<?xml version="1.0"?>
<svg xmlns="http://www.w3.org/2000/svg" version="1.2" baseProfile="tiny" width="2000" height="1872" viewBox="0 0 2000 1872" stroke-linecap="round" stroke-linejoin="round">
<g id="holc_ad_data">
<path d="M 1034.4 274.4 1043.5 276.4 1060.2 270.2 1104.1 227.2 1147.3 184.8 1160.9 192 1152.8 201.1 1216.7 241.6 1226.4 253.7 1226.4 259.6 1234.4 269.2 1239.6 279.1 1191.9 287.7 1159.6 297.8 1117.3 311.4 1040.9 387.6 1035.1 370.9 1018.9 371.9 1016.4 335.3 981.8 342.2 963.1 349.9 958.9 346.4 949.3 343.7 947 338.3 954.1 328.2 974.1 310.2 982.5 303.3 998.3 293.9 1000.9 287.2 1000.6 280.8 1034.8 286 1034.4 274.4 Z" data-holc_grade="A"/>
<path d="M 997.5 523.7 1005.2 551.9 1009.7 570.8 1012.3 589.1 1012.7 594.9 1010.5 607.6 1006.4 616.4 997.1 631.7 992.3 637.6 989.2 642.4 945.3 614.7 956.2 596.2 961.5 570.7 964.9 557.5 967.1 552.2 979.9 540.3 957.9 527.3 972.3 511.1 968.9 504.5 985.3 499.4 997.1 522.4 997.5 523.7 Z" data-holc_grade="A"/>
<path d="M 590.1 539.4 592.4 540.8 638 568.8 653.5 578.3 704.6 607.1 695.7 615.6 679.2 628.4 669.7 631.1 666.3 629.3 642.3 619.1 617.1 643 596.5 631.2 601.7 628.5 606 621.9 545.8 585.3 590.1 539.4 Z" data-holc_grade="A"/>
<path d="M 521.3 696.5 515 696 512.4 702.2 501.1 714.8 499.8 716.8 497.4 722 496.1 726.6 494.1 730.4 488.7 734.8 503.9 747.8 505.9 743.1 507.9 739 512.6 734.6 514 737.4 526.3 745.9 534.6 749.4 543.9 750.3 548.7 752.5 552.1 756.7 553 764.5 556.4 768.5 562.6 770.4 569.5 770.4 570.7 777.3 574.5 783.2 577.4 781.8 569.6 787.6 561.9 795.9 587.2 816.8 587.8 819.4 575.1 825.7 567.7 820.1 550.7 818 536.7 813.1 529.1 808.4 524.3 785.4 521.1 783.2 510.9 782.2 495.7 772.8 492.8 778.2 484.9 776.1 479.1 770 476.1 761.2 479.1 756.8 483.8 753.1 486.1 747.1 486.5 739.7 481.5 741.7 471.7 753.1 465.4 754 460.1 751.7 457.5 746.6 458.8 740 454.1 739.8 447.5 730 448.3 723.2 451.9 721.8 451.1 718.5 447.8 716.8 443.5 712.1 448.5 708.4 448.8 706.3 445.7 702.8 445.3 696.7 449.4 693.3 455.6 687.5 454 682.8 456.2 679.3 474.3 677.9 477.8 675.3 484.1 666.7 490.8 662.6 498.5 655.9 504.5 644.7 506.7 633.7 514.4 617.2 516.4 620 515.6 630.9 517.6 634.5 520.9 637.7 525.9 648.3 542.9 659.6 515.7 686.3 525.9 694.1 525.9 695.7 521.3 696.5 Z M 605.3 458.7 549.4 514.8 437.4 448 414.7 470 455.6 493.5 425.8 524.8 444.4 535 439.1 541.1 438.2 547.4 489.9 577.9 491.6 585.5 499.4 593.1 508.4 600.4 501.8 618.2 497.4 626.2 496.6 629.4 497.6 635.7 497.2 644.9 492.2 656.7 478.6 662.8 466.7 668.8 451.9 670.5 446.2 672.9 442.3 669.8 448.2 665 436.9 656.4 432 659.8 427.5 656.6 421.7 659.6 394.6 638.6 372.7 600.6 387.2 580.8 379.1 569.7 363.3 551.7 369.1 544 371.4 540.6 386.9 544 400.4 543.1 407.5 541.8 410.4 537.6 397.8 523.1 387.2 518.9 357.2 499.6 351.4 495.4 348.8 487.5 342 479.9 335.6 474.9 325.6 476.2 320.7 474.9 317.8 469.7 327.5 466 337.2 461.4 344.6 455.7 352.3 453.9 354.6 448.5 356.2 440.6 354.3 438.4 344.3 436.7 334 436.2 326.9 431.7 354.3 405.8 383 416.4 393.3 412.5 405.6 412.2 407.5 405.8 422 407.3 420.4 415.9 429.8 431.7 446.9 426.6 450.7 434.7 461.1 425.8 490.7 445.1 491.1 453.5 498.2 461.6 514.3 469.3 519.1 464.8 533.3 473 548.2 456.7 562.7 466.5 581.4 444.3 605.3 458.7 Z" data-holc_grade="A"/>
<path d="M 1002.4 715.2 1000.1 726.8 980.3 724.5 957.4 724 949.9 724 946.1 720.3 901.8 714.3 910.6 668.6 945.3 614.7 989.2 642.4 982.9 654.9 966.8 678.8 1008.5 684.5 1002.4 715.2 Z" data-holc_grade="A"/>
<path d="M 1091.7 802.8 957.2 785.5 957.2 784.2 957.6 750.5 957.4 724 980.3 724.5 1000.1 726.8 1002.4 715.2 1062.7 723.2 1060.7 733.5 1103.6 739.6 1103 744.2 1089.5 756.5 1085.9 757.9 1080.4 766.7 1091.9 777.2 1097.3 793.4 1096.5 797 1091.7 802.8 Z" data-holc_grade="A"/>
<path d="M 624.6 851.5 657.4 878.9 585 926.2 584.3 931.3 570.4 941 568.8 942.1 567.3 946.2 564 946.7 558.4 943.4 554.4 939.3 553.1 938 549.7 927.6 549.4 921 556 911.3 554.5 910 541.2 919.1 526.2 932.3 508.8 921.1 512.2 911 523.1 899.3 545.6 881.1 564.2 870.4 561.3 867 595.2 842.8 587.9 835.7 594.9 833.1 596.6 828.1 624.6 851.5 Z" data-holc_grade="A"/>
<path d="M 93.4 1185.6 78.4 1196 59.7 1183.6 51.3 1178 45.2 1169.1 79.4 1155.5 112.6 1139.2 115.8 1143.1 117.5 1150 113.9 1158 110 1166.4 110.7 1174.3 103.6 1176.5 98.7 1181.9 93.4 1185.6 Z M 205.9 1133.9 210.7 1138.9 202.9 1143.6 159.4 1166.6 147.1 1180.9 134.9 1186.4 131 1173.5 130 1161.7 135.2 1158 116.5 1136 131.6 1122.9 162 1109 249.4 1069 260 1081.3 260 1091.7 243.3 1091 232.3 1095.7 242 1109.3 201.3 1129 205.9 1133.9 Z" data-holc_grade="A"/>
<path d="M 376.5 1008.2 298.1 1047.7 249.4 1069 162 1109 105.5 1049.7 125.6 1035.6 133.7 1032.5 166.6 1012.8 165 1006.6 169.6 1000.6 186.5 988.7 99.4 956.1 67.7 942.2 43 941.9 25.6 946.9 20 938.5 22.4 927.8 45.4 921.1 74.9 915.5 87.3 914.6 88.5 933.5 103 927.8 114.8 921.1 124.8 920 143.4 922.2 162.3 930.4 168.5 930.2 194.2 920.4 202.9 919.3 215 920.4 222.3 924.1 241.4 919.3 249.6 923 256.1 919.4 266 919.3 283 914.8 293.4 916.5 298 919.8 299.9 925.7 295.3 930.6 299.4 935 312 930.4 316.6 933.3 335.5 957.6 356.1 982.8 390.2 952.9 387.1 945.8 412.1 930.3 434.3 945 452.7 954.4 465 965.2 425 984.8 376.5 1008.2 Z" data-holc_grade="A"/>
<path d="M 59.7 1183.6 15.5 1207.6 1 1189.6 45.2 1169.1 51.3 1178 59.7 1183.6 Z" data-holc_grade="B"/>
<path d="M 1129.8 149.3 1127.3 142.9 1129.3 132.1 1147.7 117.3 1107.3 95.6 1093.1 124.4 1105.1 140.4 1107.3 157.2 1081.5 169.3 1048 187.6 1023.1 198.7 972.2 216.2 997.7 231.5 992.2 237.6 977.8 251.6 950.3 232.7 935.6 232.9 867.1 254 873.3 263.4 892.6 273.5 899.4 280.9 886.4 293.4 877.3 283.5 832.8 262.8 848 246.9 942.1 219.3 951.8 204.7 877 163.3 888.2 152.2 906.1 162.4 917 153.8 939.5 159.4 952 149.4 958.8 152.2 976.7 135.3 1009.9 150.9 987.1 173.1 974.8 186.2 993.7 194.7 1009.1 179.9 1017.6 176.4 1050.8 162.5 1063.1 154 1070.4 133.5 1092.4 71.3 1093.4 70.2 1126.2 35.1 1130.4 27.5 1157.9 41.6 1153.8 46.2 1167.4 55.1 1151.2 73.2 1189.9 94.3 1189.9 96.5 1175.8 112.2 1169.3 116.8 1168.6 123.5 1164.7 132.4 1157.7 136.6 1129.8 149.3 Z" data-holc_grade="B"/>
<path d="M 1662.6 762.1 1591.8 787.9 1554.9 809.1 1543.1 813.2 1511.4 821.9 1491.9 836.5 1484 832.1 1540.2 773.8 1494.9 746.7 1520.6 723.4 1527.2 730.8 1539 740.6 1559.1 751.8 1567.7 757.8 1573 762.9 1576.4 756.1 1609.6 740.8 1621.2 728.6 1631.1 733 1635.4 733.1 1643 731.8 1657.3 725.5 1656.9 717.6 1659.6 710.6 1664.6 707.6 1675.1 706.8 1692 709.6 1696.4 709.4 1709.3 702.4 1719.6 702.9 1727.3 707.5 1731.2 713.4 1729.8 728.6 1724.8 739.6 1722.2 738.8 1715.4 724 1699.6 731.4 1660.9 746.2 1670.4 759.6 1662.6 762.1 Z" data-holc_grade="B"/>
<path d="M 1679.6 798.2 1629 826.5 1631.4 831.3 1577.7 860 1543.1 813.2 1554.9 809.1 1591.8 787.9 1662.6 762.1 1672.1 777.7 1668 779.3 1679.6 798.2 Z" data-holc_grade="B"/>
<path d="M 1405.7 909.9 1392.2 894.1 1430.2 874.3 1416.7 860.2 1410.6 855.8 1471.9 846.4 1491.9 836.5 1511.4 821.9 1531.5 844.5 1405.7 909.9 Z" data-holc_grade="B"/>
<path d="M 1301.2 823.3 1295.1 826.2 1292.2 844.2 1298.3 871.4 1298.8 903.1 1253.1 878.5 1249.9 880.7 1242.9 876.8 1230.8 887.9 1212.1 858.3 1213.1 857.6 1219.8 860 1229.5 859 1254 846.6 1244.8 835.1 1291.7 809.6 1298.9 807.9 1364 792.9 1374 797.7 1377.6 805.9 1301.2 823.3 Z" data-holc_grade="B"/>
<path d="M 945.3 614.7 910.6 668.6 901.8 714.3 946.1 720.3 949.9 724 957.4 724 957.6 750.5 957.2 784.2 957.2 785.5 1091.7 802.8 1110.9 826.4 1110.6 830.7 1093.8 849 1095.7 853.3 1095.6 860.1 1100.7 865.3 1099.4 868.6 1099.3 876.3 1091.2 886.2 1096.4 887.2 1130.9 892.1 1136.2 890.8 1143.5 900.8 1138.5 904.1 1135.9 904.1 1131.5 921.4 1081.4 919.2 1075.6 926.1 1060.1 934.2 1058.5 904.5 1046.2 904.1 1046.9 910 1032 904.8 1027 911.5 995.7 908.1 948.4 902.1 920.2 898.6 915.7 898 862.5 891.3 865.1 881.2 842.7 878.3 845.5 864 828.5 861.6 826.1 862.9 823.6 875.8 811.8 874.3 823.8 822.9 829.8 822.8 854.8 826.4 859.4 807.7 857.2 803.2 858.4 793.5 883.8 796.9 889.5 771.7 862.9 772.2 863.3 764.8 865.9 762.3 862.9 761.1 855.8 762.9 846.1 756.6 853.2 749 853.4 745.6 848.1 747.5 843.7 749.5 837.5 745.6 832.6 744.2 831.6 700.9 802.1 699.6 800.9 695 802.8 662.6 793.7 657.3 836.4 638.2 873 639.7 873 639.6 906.4 641 916.5 598.7 945.3 614.7 Z M 910 790.4 934.1 792.8 935.3 786.5 891.2 776 888.7 789.2 910 790.4 Z M 946.5 790.4 938.7 797.9 927.6 805.5 947.6 807.4 950.7 791.1 946.5 790.4 Z" data-holc_grade="B"/>
<path d="M 1230.9 937.1 1238.9 948 1238.8 952.3 1226.8 964.9 1225.1 970.5 1240.2 978.1 1244.6 981.9 1217.3 996.4 1144 998.6 1129.4 999 1143.5 937.1 1210.4 946.3 1213.8 928.2 1218.8 931.8 1224.6 932.9 1229.6 935.4 1230.9 937.1 Z" data-holc_grade="B"/>
<path d="M 608 961.4 599.3 966.4 570.4 941 584.3 931.3 585 926.2 657.4 878.9 663 884.6 658.5 889.6 643.4 903.6 646.3 914.7 657.9 920.5 672.1 934.5 660.6 941.3 628.1 914.9 606.1 929.3 634.8 956 629.5 959.4 608 961.4 Z" data-holc_grade="B"/>
<path d="M 438.4 833.8 411.3 810.4 392 789.6 375.2 783.5 372.6 782.5 371.6 782.1 413.6 762 419.7 763.9 426.2 771.6 434.6 775.1 441.7 783.2 454.2 791.4 458.7 804.7 462 822.2 438.4 833.8 Z" data-holc_grade="B"/>
<path d="M 205.9 1133.9 201.3 1129 242 1109.3 232.3 1095.7 243.3 1091 260 1091.7 260 1081.3 249.4 1069 298.1 1047.7 376.5 1008.2 386.2 1044.8 375.5 1046.5 365.5 1051.2 354.6 1058.6 352 1063.8 341.7 1063.8 329.7 1069.5 336.5 1080.8 333.9 1102.8 334.6 1112.5 337.5 1117.4 331.7 1135.2 327.8 1139.2 282.6 1148.8 261.7 1140.4 205.9 1133.9 Z" data-holc_grade="B"/>
<path d="M 269.1 1164.9 274.6 1196 240.7 1199.7 242.9 1210.6 232.9 1211.6 235.2 1220.7 199.4 1224.9 195.5 1223.2 190.7 1205.2 162.3 1209.1 159.7 1195 151 1199.7 137.1 1203.2 134.9 1186.4 147.1 1180.9 159.4 1166.6 202.9 1143.6 209.7 1144.9 269.1 1164.9 Z" data-holc_grade="B"/>
<path d="M 466.6 1360.1 465.1 1368.1 450.6 1367.2 450.6 1370.7 439.5 1370.7 438.5 1374.8 414.6 1372.4 412.2 1383.1 332.6 1373.3 340.8 1331.8 381.4 1336.8 380.9 1340.5 433.9 1347.9 432.2 1355.5 466.6 1360.1 Z M 199.2 1404.1 199.5 1400.4 189.6 1399.7 183.3 1397.2 177.2 1392.6 174.8 1385.9 191.7 1306 207.7 1307.7 198.3 1350.3 226.3 1354 214.2 1405.8 199.2 1404.1 Z" data-holc_grade="B"/>
<path d="M 1129.8 149.3 1132.2 155.2 1102.5 168.6 1052.5 194 1053.5 198.2 1104.1 227.2 1060.2 270.2 1043.5 276.4 1034.4 274.4 1029.6 270.7 1015.1 258.1 1018.6 252.2 992.2 237.6 997.7 231.5 972.2 216.2 1023.1 198.7 1048 187.6 1081.5 169.3 1107.3 157.2 1105.1 140.4 1093.1 124.4 1107.3 95.6 1147.7 117.3 1129.3 132.1 1127.3 142.9 1129.8 149.3 Z" data-holc_grade="B"/>
<path d="M 236.7 1544.7 204.1 1561.8 211.2 1544.5 218.9 1537.1 220.2 1524.9 218.6 1512.1 223.1 1507.1 253.8 1511.8 260.2 1515 274.1 1517.8 236.7 1544.7 Z M 294.6 1480.7 287.6 1482.9 282.7 1482.4 277.6 1478.1 276.4 1471.3 281.3 1456.4 270.9 1446.8 242.1 1419.1 236.3 1417.3 223.7 1420.2 202.4 1417.5 242.6 1402.6 295.8 1449.9 287.6 1457.3 311.7 1478.9 301.3 1486.5 294.6 1480.7 Z" data-holc_grade="B"/>
<path d="M 105.5 1049.7 77.3 1023.1 61.6 1014.4 54.8 1012.5 51.2 995.7 49.2 990.5 27.2 952.9 25.6 946.9 43 941.9 67.7 942.2 99.4 956.1 186.5 988.7 169.6 1000.6 165 1006.6 166.6 1012.8 133.7 1032.5 125.6 1035.6 105.5 1049.7 Z" data-holc_grade="B"/>
<path d="M 899.4 280.9 913.5 267.5 948.6 288.5 946.4 301.3 918 327.2 923.8 330.9 930.2 339.5 900.9 370.4 920.6 380.5 931.8 398.8 937.8 410.6 954.7 443.9 932.9 449.6 927.9 442.9 916.8 444.2 910.1 432.3 902.3 428.9 900.5 422.3 909.3 418.7 909.1 415 903.9 407.8 894 401 886.8 402.4 881.1 400.8 875.7 394.8 863.4 392.2 857.9 395.1 824.9 374.5 804.9 393.4 785.3 409.8 777.3 403.9 769.9 401.7 771.5 393.8 769.9 370.9 766.7 365.4 749.9 334.1 766 332.9 823.8 357 834.4 345.4 791.5 320.8 790.2 316.1 795.1 308.2 805.4 297.8 823.1 278.6 832.8 262.8 877.3 283.5 886.4 293.4 899.4 280.9 Z M 631.5 196.6 671.3 220.1 652.2 239.4 645.9 235.9 639.3 243.9 613.3 232 623.8 220.6 609.6 210.6 617.9 201.8 624.8 205.6 631.5 196.6 Z" data-holc_grade="B"/>
<path d="M 1040.9 387.6 1019 412.9 1006.9 420.3 991.8 427.7 982.1 434.3 937.8 410.6 931.8 398.8 933.8 383.5 941.8 365.7 954.1 353.6 963.1 349.9 981.8 342.2 1016.4 335.3 1018.9 371.9 1035.1 370.9 1040.9 387.6 Z" data-holc_grade="B"/>
<path d="M 605.3 458.7 631 473.3 599 507 606.3 512.2 583.8 535.5 590.1 539.4 545.8 585.3 606 621.9 601.7 628.5 596.5 631.2 617.1 643 642.3 619.1 666.3 629.3 669.7 631.1 679.2 628.4 695.7 615.6 704.6 607.1 761.3 639.1 764.5 641 764.5 640.9 764.6 641 727.8 677.2 717.5 671.1 695.6 692.1 662 671.6 652.5 665.9 620.1 646.1 602.5 662.2 588.9 641.6 581.4 636.6 530.9 682.9 536.2 686.8 582.1 645 584.6 646.1 590.9 654.4 598.8 671.5 612.9 692.7 582.1 722.9 610.7 741.5 595 756.6 649.6 790.7 629.8 809.3 638.5 815.2 633 820.7 647.1 829.6 624.6 851.5 596.6 828.1 597.1 819.9 598.7 817 597.1 812.5 609.6 808.2 597.5 790.9 593.5 783.2 590.3 784.3 587.2 788.1 585.2 789.4 579.6 785.8 577.4 781.8 574.5 783.2 570.7 777.3 569.5 770.4 562.6 770.4 556.4 768.5 553 764.5 552.1 756.7 548.7 752.5 543.9 750.3 534.6 749.4 526.3 745.9 514 737.4 512.6 734.6 509.8 729.2 510 726.5 516.9 720.9 516.5 720.5 513.8 716.3 514.4 712.5 517.9 708.7 520.7 706 521.4 700.7 521.3 696.5 525.9 695.7 525.9 694.1 515.7 686.3 542.9 659.6 525.9 648.3 520.9 637.7 517.6 634.5 535.2 625.7 543.4 625.1 558.8 610.3 551.6 599.6 540 594.1 535 581.1 533 579.9 519.7 593.7 516.6 594.6 510 601.7 508.4 600.4 499.4 593.1 491.6 585.5 489.9 577.9 438.2 547.4 439.1 541.1 444.4 535 425.8 524.8 455.6 493.5 414.7 470 437.4 448 549.4 514.8 605.3 458.7 Z M 473.3 534.8 510.9 558 514.2 562.9 519.6 568.5 528 574.2 535.7 578.3 531.6 567.4 527.6 561.1 523.4 554.7 519.2 542.9 517.9 532.6 518.3 520.6 500.5 507.6 473.3 534.8 Z M 495.9 555 476.6 544.4 465.6 555.5 483.8 566.6 495.9 555 Z M 793.6 657.3 793.7 657.3 802.8 662.6 800.9 695 792.2 690.7 754.2 727.9 722.8 708.8 751.5 681.2 763.6 688.7 784.4 667.4 779.4 664 775.1 657.1 772.8 650.7 773 646.1 780.4 650.5 793.6 657.3 Z" data-holc_grade="B"/>
<path d="M 718.1 486.6 896.2 587.3 885.2 608.3 876.3 608 871.7 624.2 873 639.6 873 639.7 836.4 638.2 836.3 638.2 828.9 628.4 805.8 636.7 803.8 640.2 810.7 649.7 793.6 657.3 780.4 650.5 773 646.1 772.9 646 771.7 633.1 769.1 634.9 764.5 640.9 764.5 641 761.3 639.1 704.6 607.1 653.5 578.3 638 568.8 718.1 486.6 Z M 727.9 594.6 772.8 608.8 782.8 597.6 747.4 577.4 744 578.3 727.9 594.6 Z" data-holc_grade="B"/>
<path d="M 1115.8 510.2 1136.5 523.6 1132.5 528.2 1129.3 545.7 1118.8 545.2 1112.8 551 1107.4 554 1099.9 555.5 1089.2 568.7 1082.3 578.4 1077.3 588 1076 603.5 1075.4 612.4 1071.9 617 1064.8 615.7 1039.7 630.9 1020.8 634.6 1031.1 648 1021.3 661.4 1015.2 659.2 1008.5 684.5 966.8 678.8 982.9 654.9 989.2 642.4 992.3 637.6 997.1 631.7 1006.4 616.4 1010.5 607.6 1012.7 594.9 1012.3 589.1 1009.7 570.8 1005.2 551.9 997.5 523.7 1009.6 513.2 1032 500 1042.3 495.5 1045 489 1050.7 487.1 1059.4 478.2 1076 487.3 1084.9 491.8 1091.1 494.2 1115.8 510.2 Z" data-holc_grade="B"/>
<path d="M 1220.9 572.1 1223.8 571.9 1257.5 591.4 1278.5 570.8 1237.7 547.3 1216.2 569.3 1151.4 531 1192.9 489 1198.4 503.9 1220.2 515.4 1221.2 520.1 1239.3 529.1 1259.4 506.5 1236.7 494.7 1235.9 487.5 1239.3 485.4 1227.7 473.2 1196 463.6 1204.5 454.5 1179.6 445.1 1222.9 398.1 1223.1 390.1 1244.4 377.3 1265.4 389 1253.1 399 1311.4 431.8 1311.9 464.3 1389.8 508.4 1407 493 1412.8 501.2 1420.8 506.5 1413 526 1409.4 532.4 1395.4 538.3 1341.4 595.9 1370.9 612.4 1323.5 665 1293.3 648.3 1253.3 690.3 1197.4 749 1168.3 774.1 1154 764.9 1154.2 759.5 1142.1 753.2 1124.6 743.1 1131 726.5 1128.5 725.1 1133 716.9 1155.7 699.6 1184.1 680.2 1204.8 668.4 1225.8 656.3 1237.7 646.9 1225.2 628.3 1233.9 619.6 1214.7 603.5 1220.5 593.8 1220.9 572.1 Z" data-holc_grade="B"/>
<path d="M 1701.3 462.6 1651 515.9 1645.6 512.7 1633.3 494.8 1630.4 486.4 1620.2 488.1 1612.7 467.5 1608.9 462 1600.4 454.6 1611 438.5 1630.6 422.6 1701.3 462.6 Z M 1872.2 186 1825 232.3 1727.8 173.6 1746.9 166 1737.7 142.2 1757 120.5 1775 104.2 1880 165.8 1872.2 186 Z" data-holc_grade="B"/>
<path d="M 59.7 1183.6 78.4 1196 93.4 1185.6 100.7 1188.9 104.9 1193.3 105.8 1200.7 115.8 1205.4 72.3 1241 45.8 1222.5 32.9 1229.6 15.5 1207.6 59.7 1183.6 Z M 888.2 152.2 877 163.3 833 204.8 825.7 211 813.3 202.8 797.8 217.9 782.7 207.8 775.7 208.1 935.6 52.4 968.1 15.1 973.2 11.8 988.4 22.1 1022 42.2 986.3 73.4 1003.7 86.7 983.6 105 972.8 99.4 965.4 105.9 948.4 95.9 888.2 152.2 Z" data-holc_grade="C"/>
<path d="M 1093.4 70.2 1092.4 71.3 1070.4 133.5 1041.1 119.4 1050.8 109.7 1077.9 83.6 1080.5 80.4 1077.8 75.7 1022 42.2 988.4 22.1 1010.9 1 1051.5 7.7 1061.5 29 1090.5 19 1092.3 20.7 1082.5 60.7 1085.7 66.8 1093.4 70.2 Z" data-holc_grade="C"/>
<path d="M 1693.3 813.3 1670.6 826.1 1687.3 843.9 1662.1 858.9 1586.2 894.1 1522.8 927.8 1509.2 932.7 1449.7 968.2 1425 976.4 1414.6 977.9 1405.7 980.1 1412.7 999.6 1424 997 1442.7 995.7 1453.1 991.2 1461.8 994 1473.4 998.8 1430.1 1058.9 1393.3 1108.4 1364.3 1123.4 1325.5 1080 1302.6 1052.3 1279.9 1023.3 1291.2 1003.3 1284.4 995.9 1289 994 1307.2 990.5 1306.9 985.9 1368.5 970.7 1368.4 970.5 1368.8 970.4 1379.5 968.3 1366.8 933 1356.9 927 1338.2 916.8 1319.5 936 1314.5 937.5 1307.5 943.8 1245.6 911.1 1232.2 903.5 1223.3 903.5 1215.3 902.2 1230.8 887.9 1242.9 876.8 1249.9 880.7 1253.1 878.5 1298.8 903.1 1298.3 871.4 1292.2 844.2 1295.1 826.2 1301.2 823.3 1349.3 851.3 1357.8 852.9 1351 865.1 1351.5 877.6 1359 873.1 1380.3 898.7 1373.5 902.9 1378.6 906.8 1384.7 919.8 1411 915.6 1405.7 909.9 1531.5 844.5 1511.4 821.9 1543.1 813.2 1577.7 860 1631.4 831.3 1629 826.5 1679.6 798.2 1693.3 813.3 Z M 1632.5 831.6 1640.3 840.2 1658.1 830.9 1650.1 822.1 1632.5 831.6 Z M 1536.1 870.9 1524.4 858.1 1503 869.3 1514.3 882.3 1536.1 870.9 Z M 1622.7 863.8 1534.7 908.5 1538.3 913.7 1611.5 875.6 1624.4 865.3 1622.7 863.8 Z" data-holc_grade="C"/>
<path d="M 1791.6 762.7 1793.8 764.3 1770.6 777.9 1754.8 762.1 1733.8 774.3 1729.4 769 1732.8 757.1 1734.7 745.8 1734.7 739 1739.6 736.6 1749.5 729 1774.7 749.5 1791.6 762.7 Z M 1714.8 777.9 1715.4 781.6 1717.5 803.8 1709.9 805.6 1703.3 812.6 1699.1 809.8 1693.3 813.3 1679.6 798.2 1668 779.3 1672.1 777.7 1662.6 762.1 1670.4 759.6 1660.9 746.2 1699.6 731.4 1715.4 724 1722.2 738.8 1699.1 749.9 1704.6 760.1 1705.8 767 1705 772.4 1693.1 779 1696.5 787.9 1714.8 777.9 Z" data-holc_grade="C"/>
<path d="M 1927.4 681.4 1963.5 716 1949.6 725.1 1953.2 729.3 1941.4 736.5 1944 740.3 1931.4 747.6 1885.6 707.1 1838 663.9 1863.7 647.2 1882.2 641.5 1927.4 681.4 Z" data-holc_grade="C"/>
<path d="M 331.3 1190.1 335.9 1210.9 245 1220.9 249.6 1239 234.5 1240.8 207 1237.6 204.7 1247.9 142 1240.2 142.6 1230.1 137.1 1203.2 151 1199.7 159.7 1195 162.3 1209.1 190.7 1205.2 195.5 1223.2 199.4 1224.9 235.2 1220.7 232.9 1211.6 242.9 1210.6 240.7 1199.7 274.6 1196 269.1 1164.9 308.8 1179.2 331.3 1190.1 Z" data-holc_grade="C"/>
<path d="M 567.1 1357.3 559.7 1360.7 478 1385.7 456.7 1406.1 446.5 1396.9 395.9 1433.6 422.3 1457.5 362.3 1500.4 327.6 1508.9 308.3 1494.3 295.8 1502.8 286.3 1495.6 294.6 1480.7 301.3 1486.5 311.7 1478.9 287.6 1457.3 295.8 1449.9 242.6 1402.6 202.4 1417.5 198 1411.5 199.2 1404.1 214.2 1405.8 226.3 1354 198.3 1350.3 207.7 1307.7 191.7 1306 196.3 1289.9 264.1 1297.7 262.6 1307.3 342.7 1316.6 471.2 1333.3 570.1 1345.7 568.7 1356.6 567.1 1357.3 Z M 466.6 1360.1 432.2 1355.5 433.9 1347.9 380.9 1340.5 381.4 1336.8 340.8 1331.8 332.6 1373.3 412.2 1383.1 414.6 1372.4 438.5 1374.8 439.5 1370.7 450.6 1370.7 450.6 1367.2 465.1 1368.1 466.6 1360.1 Z" data-holc_grade="C"/>
<path d="M 270.3 1619.3 223.6 1623.7 259.2 1598.2 290.5 1576.4 276.7 1564.3 266 1572.4 236.7 1544.7 274.1 1517.8 290.2 1520.5 310.2 1539 293.4 1551.2 336.7 1588.5 298.3 1612.8 290.2 1606.1 270.3 1619.3 Z" data-holc_grade="C"/>
<path d="M 733.2 1384.7 727.4 1408.6 661.1 1400.4 666.5 1376 696.7 1380 696.8 1382.7 711.7 1383.9 712.1 1382.1 733.2 1384.7 Z" data-holc_grade="C"/>
<path d="M 607.6 247.9 590.9 269.9 576.7 262.2 569.9 254.3 567.3 240.5 569.9 223.5 576.3 216.3 591.5 221.5 606.3 229.4 611.5 239.3 607.6 247.9 Z M 833 204.8 851.2 216.7 814.4 252.5 832.8 262.8 823.1 278.6 805.4 297.8 795.1 308.2 790.2 316.1 791.5 320.8 834.4 345.4 823.8 357 766 332.9 749.9 334.1 748.6 322.7 768.8 322.4 776.5 311.7 749.4 296.6 747.1 292.7 721.1 264.9 752.1 232.7 775.7 208.1 782.7 207.8 797.8 217.9 813.3 202.8 825.7 211 833 204.8 Z" data-holc_grade="C"/>
<path d="M 1115.8 510.2 1091.1 494.2 1084.9 491.8 1076 487.3 1059.4 478.2 1050.1 473.4 1052.4 467.6 1059 466.1 1065.5 454.2 1051.6 445.4 1052.9 442.1 1068 426 1093.9 455.3 1111.6 451.3 1119.8 446.6 1141 458.1 1105.5 477 1115.8 510.2 Z" data-holc_grade="C"/>
<path d="M 652.5 665.9 593.1 721.8 602.4 728.1 662 671.6 695.6 692.1 722.8 708.8 754.2 727.9 792.2 690.7 800.9 695 802.1 699.6 831.6 700.9 832.6 744.2 827.2 747.2 826.3 760 820.5 791.1 817.8 792.8 809.8 790.2 798 789.2 796.3 754.9 764.9 784 758.6 786.6 736.1 782.5 728.6 784.2 724.7 776 725.2 764.9 715 757.7 720.3 745.8 721.3 734.1 717 731.7 670.7 775.8 668.1 773.6 653.1 787.5 661.3 792.7 643.2 810.1 652.8 816.4 668.1 802.5 726.6 836.4 737.3 825.3 740.9 826.8 754.2 814.2 754.2 811.6 776.2 791.4 783.7 792.1 793.7 793.3 788.8 798 801.8 805.9 801.6 826.9 786.8 833.4 771.1 842.6 771.6 844.4 778.8 851.3 784.4 860.3 787.9 874.3 769.2 888.4 766.5 900.6 761.1 907.3 732 927.4 716.9 935.6 713.7 929.4 663 884.6 657.4 878.9 624.6 851.5 647.1 829.6 633 820.7 638.5 815.2 629.8 809.3 649.6 790.7 595 756.6 610.7 741.5 582.1 722.9 612.9 692.7 598.8 671.5 590.9 654.4 584.6 646.1 582.1 645 536.2 686.8 530.9 682.9 581.4 636.6 588.9 641.6 602.5 662.2 620.1 646.1 652.5 665.9 Z M 800.7 704.3 798.5 731.2 808.7 728.8 826.6 720.4 826.8 705.1 800.7 704.3 Z M 641.5 739.3 636.5 729.8 606.7 756.5 616.7 762.4 641.5 739.3 Z M 650.6 861.2 680.3 879.3 706.4 854.5 674.8 836.8 650.6 861.2 Z M 473.3 534.8 500.5 507.6 518.3 520.6 517.9 532.6 519.2 542.9 523.4 554.7 527.6 561.1 531.6 567.4 535.7 578.3 528 574.2 519.6 568.5 514.2 562.9 510.9 558 473.3 534.8 Z" data-holc_grade="C"/>
<path d="M 371.6 782.1 372.6 782.5 375.2 783.5 392 789.6 411.3 810.4 438.4 833.8 449.1 846.2 457.8 867.7 461 877.1 467.8 873.9 490.4 904.5 490 913.1 487.5 918.6 477.1 921.5 466.8 924.5 467.8 930.4 464.2 929.7 406.8 855.6 372.6 821.5 381 815.1 375.8 810.1 364.2 814.8 362 813.3 347.1 820.5 313.9 769.6 338.1 747.6 352.9 768.6 362.9 778.8 371.6 782.1 Z" data-holc_grade="C"/>
<path d="M 843.2 972.8 823.9 1045.9 795.9 1041.9 799.3 1021.2 766.1 1016.9 753.2 1007.6 738.4 993.5 724.5 975.7 756.7 961.9 843.2 972.8 Z M 570.4 941 599.3 966.4 608 961.4 644.8 971 688.1 950.4 715.7 978 686.4 987.1 681.3 990.3 744 1008.4 752 1012.5 770.8 1021.2 781.2 1029.9 790.2 1037.5 793.6 1044.9 791.6 1058.3 764 1068.9 759 1068.3 761.1 1058.7 746.1 1056.2 743.2 1066.4 734.3 1065.1 731.9 1076.8 657.6 1067.4 657.6 1067.2 659.8 1056.4 648.4 1054.2 661 1045.7 665.1 1025.5 647.9 1022.7 649.1 1013.1 638.2 1012 621.5 1016.8 614.3 1022.7 602.9 1031 600.3 1021 598.8 1012.9 596.6 999.2 592.3 991 574.1 991.4 569.8 986.9 559.8 981.6 539 974.5 534.9 963 543.6 952.1 538.3 950.2 554.4 939.3 558.4 943.4 564 946.7 567.3 946.2 568.8 942.1 570.4 941 Z" data-holc_grade="C"/>
<path d="M 823.6 875.8 842.7 878.3 865.1 881.2 862.5 891.3 915.7 898 915 899.6 912 901.6 906.3 904 899.2 906.3 892.3 907.4 883.7 907.8 872.4 907.1 871.6 933.3 907.9 949.1 909.5 948.3 920.2 898.6 948.4 902.1 995.7 908.1 990.2 940.5 955.4 936.2 935.1 933.8 925.7 979.5 858 1010.9 866.1 1030.5 866.7 1031.9 833.4 1044.5 862.8 913.5 854.8 912 825.1 908.3 816.1 911.2 809 901.1 797.7 888.8 810 831.7 806.4 826.8 818.9 823.4 823.8 822.9 811.8 874.3 823.6 875.8 Z" data-holc_grade="C"/>
<path d="M 955.4 936.2 944.4 986.5 978.5 989.9 977.3 1000.8 1004 1000.6 1030.5 1005 1035 1014.2 1077.3 1020.3 1078.9 1012.9 1150.5 1022.6 1153.1 1013.2 1148.2 1011 1147.3 1004 1144 998.6 1217.3 996.4 1101.8 1059.6 893.4 1033.9 866.1 1030.5 858 1010.9 925.7 979.5 935.1 933.8 955.4 936.2 Z" data-holc_grade="C"/>
<path d="M 1298.9 807.9 1291.7 809.6 1244.8 835.1 1219.4 803.5 1205.2 791.9 1165.5 830.7 1148.1 835.9 1130.3 820.8 1137.1 818.8 1141.9 815.4 1144.8 810.2 1134.8 794.6 1153.2 787.2 1168.3 774.1 1197.4 749 1298.9 807.9 Z" data-holc_grade="C"/>
<path d="M 1070.4 133.5 1063.1 154 1050.8 162.5 1017.6 176.4 1015.3 143.9 1021.4 137.8 1001.2 117.6 1021.9 98.3 1028.8 102.5 1050.8 109.7 1041.1 119.4 1070.4 133.5 Z" data-holc_grade="D"/>
<path d="M 1103.4 1191.4 1073.8 1159.4 1083.3 1146.2 1276.4 1047.6 1284.2 1043.7 1291.9 1048.9 1296.1 1053.3 1302.2 1052.6 1325.1 1080.2 1269.6 1108.4 1308 1151.4 1267.4 1167.7 1233.5 1165 1206.1 1178.4 1191.9 1163.5 1184.2 1166 1179 1163 1168 1167.5 1163.2 1172.4 1151.3 1176.4 1151.3 1181.8 1138 1188 1130 1178.9 1114.5 1185.8 1103.4 1191.4 Z" data-holc_grade="D"/>
<path d="M 875 1137.4 816.7 1130.1 823.5 1099.2 833.5 1100.9 838.7 1076.9 827.7 1075 831.9 1056.2 893.4 1033.9 1101.8 1059.6 977.1 1128.4 972.6 1149.6 875 1137.4 Z" data-holc_grade="D"/>
<path d="M 698.1 1280.7 703.7 1257.8 706.8 1258.2 709.3 1243.6 692.8 1241.4 663.4 1237.7 667 1222.9 624.3 1217.3 657.6 1067.1 657.6 1067.2 657.6 1067.4 731.9 1076.8 731.3 1085.4 667 1117.1 675.4 1125.3 681.7 1122.7 688 1122.9 691.2 1112.7 707.4 1104.4 715.1 1105.7 765.9 1079.5 784.8 1072.5 810.4 1075.6 808.3 1086.4 814.8 1087.1 814.3 1093.4 771 1289.9 698.1 1280.7 Z M 667.2 1221.8 676.5 1223.4 735.4 1215.8 729.5 1205 666 1211.3 667.2 1221.8 Z" data-holc_grade="D"/>
<path d="M 692.8 1241.4 692.3 1256.9 703.7 1257.8 698.1 1280.7 677.8 1277.9 612 1222.6 607.2 1213.1 602.1 1202.8 594.2 1200 589.3 1195.2 586.7 1188.4 587.2 1177.6 592.8 1155.3 607.2 1083 601.8 1074.9 597.8 1064.3 598.2 1055.4 596.6 1047.5 648.4 1054.2 659.8 1056.4 657.6 1067.2 657.6 1067.1 624.3 1217.3 667 1222.9 663.4 1237.7 692.8 1241.4 Z" data-holc_grade="D"/>
<path d="M 875 1137.4 844.5 1281.9 840.9 1296.5 781.6 1292.3 816.7 1130.1 875 1137.4 Z" data-holc_grade="D"/>
<path d="M 972.6 1149.6 968.1 1170.4 967.7 1172.1 959.3 1210.2 958.7 1276.2 960.8 1277.6 965.1 1280.4 941.6 1298.7 938 1305.6 840.9 1296.5 844.5 1281.9 875 1137.4 972.6 1149.6 Z" data-holc_grade="D"/>
<path d="M 1073.8 1159.4 1103.4 1191.4 1090.5 1195.1 1074 1204.3 1061.8 1214.1 1043.4 1232.4 1022 1239.1 1008 1249.3 991.2 1262.3 974.7 1269.4 967 1272.6 960.8 1277.6 958.7 1276.2 959.3 1210.2 967.7 1172.1 968.1 1170.4 977.3 1175 988 1169.1 1020.2 1156.5 1054.7 1138.7 1073.8 1159.4 Z" data-holc_grade="D"/>
<path d="M 702.7 1626.3 703.4 1617.7 717.3 1619.3 719.1 1617 720.9 1604.8 713.1 1600.9 733.1 1509.6 758.8 1393.5 760 1387.9 901.6 1404.2 885.4 1479.4 880.6 1494.2 849.6 1646.7 769.7 1634 702.7 1626.3 Z" data-holc_grade="D"/>
<path d="M 666.5 1376 661.1 1400.4 727.4 1408.6 733.2 1384.7 750.9 1386.9 735.5 1456.9 717.8 1454.9 708.2 1496.6 698.2 1495.9 691.5 1519.5 622.9 1511 616.6 1518.4 612.3 1523 589.4 1529.2 562.6 1538.6 556.9 1541.4 533.9 1517.9 479.9 1510.7 488.4 1491.2 506.8 1495.7 518.6 1464.4 490.8 1459 490 1449.1 501 1451 504.6 1443 528.1 1446.9 539.6 1440.9 558.3 1438.3 566.8 1434.5 603.1 1412.9 620.2 1425.1 640.5 1413.5 643.1 1411.1 607.1 1406.6 645.2 1373.2 666.5 1376 Z" data-holc_grade="D"/>
<path d="M 703.4 1617.7 702.7 1626.3 656.8 1621 648.7 1616.7 654 1592.9 597.1 1586.4 562.6 1547.2 556.9 1541.4 562.6 1538.6 589.4 1529.2 612.3 1523 616.6 1518.4 622.9 1511 691.5 1519.5 698.2 1495.9 708.2 1496.6 717.8 1454.9 735.5 1456.9 725.9 1500.7 704.6 1597.4 698 1600.7 693.4 1614.5 696.3 1616.8 703.4 1617.7 Z" data-holc_grade="D"/>
<path d="M 752.1 232.7 721.1 264.9 747.1 292.7 749.4 296.6 776.5 311.7 768.8 322.4 748.6 322.7 747.8 303.7 734.3 290.1 684.4 260.5 676.6 253.7 717.3 211 752.1 232.7 Z" data-holc_grade="D"/>
<path d="M 567.1 1357.3 568.7 1356.6 570.1 1345.7 471.2 1333.3 342.7 1316.6 262.6 1307.3 264.1 1297.7 196.3 1289.9 174.5 1264.9 166.8 1264.6 158.3 1253.3 138.9 1250.3 142 1240.2 204.7 1247.9 207 1237.6 234.5 1240.8 249.6 1239 245 1220.9 335.9 1210.9 331.3 1190.1 376.2 1209.4 396.3 1221.2 430 1216.8 423.8 1192.8 377.7 1176.2 374.3 1179.7 353 1171.4 347.6 1178.2 342.9 1177 338.7 1182.1 331.3 1183 322.8 1180 320.1 1172.3 325.9 1153.6 333.2 1154.8 337.9 1161 343.3 1161.9 352.2 1160.1 488.1 1209.4 516.3 1206.4 517.9 1220.4 512.1 1226.9 486.5 1229 488.5 1242 498.1 1241.1 499.7 1246.5 518.7 1244.7 519.4 1247.1 526.4 1245.6 572.5 1259.2 597.2 1270.2 600.3 1278.2 605 1303.7 601.9 1304.9 601.9 1310.8 596.5 1335.2 600.7 1341.1 597.2 1361 567.1 1357.3 Z M 394.9 1223.3 388.9 1220 355 1227.4 358.4 1240.4 396.1 1235.9 394.9 1223.3 Z M 383.5 1311.6 473.2 1323.3 467.5 1290.5 451.4 1291.6 432.4 1289 405.8 1290.7 378.2 1282.7 383.5 1311.6 Z" data-holc_grade="D"/>
<path d="M 456.7 1406.1 468.5 1418.4 461 1422.5 465.1 1427.9 422.3 1457.5 395.9 1433.6 446.5 1396.9 456.7 1406.1 Z" data-holc_grade="D"/>
<path d="M 223.6 1623.7 173.8 1658.5 173.1 1650.4 166.7 1646.7 167 1642.2 188 1628.1 193.4 1621.2 193.1 1611.3 201.5 1605.8 198.6 1599.9 202.1 1595.4 194.7 1585.3 199.9 1567.5 204.1 1561.8 236.7 1544.7 266 1572.4 245.7 1585.5 259.2 1598.2 223.6 1623.7 Z M 336.2 1611.8 323.8 1614.4 270.3 1619.3 290.2 1606.1 298.3 1612.8 336.7 1588.5 293.4 1551.2 310.2 1539 290.2 1520.5 274.1 1517.8 295.8 1502.8 308.3 1494.3 327.6 1508.9 306.3 1523.5 319.9 1534.1 331.5 1526.9 335.4 1529.4 367.3 1504.9 382.2 1496 394.1 1504.4 371.5 1538.8 383.4 1543.7 336.2 1611.8 Z" data-holc_grade="D"/>
<path d="M 173.8 1658.5 223.6 1623.7 270.3 1619.3 323.8 1614.4 336.2 1611.8 368.5 1605.1 333.2 1721.3 215.1 1849.4 204.5 1857.5 182.7 1844.9 182.2 1859.4 156.8 1855.5 151 1871.1 131.9 1866.1 129.5 1870.2 101.7 1862.7 90.1 1798.1 129.7 1755.3 131.9 1745.6 131.9 1735.9 141.8 1723.1 137 1719.4 136.5 1710.9 163.9 1684.2 142.8 1671.9 150.8 1663.4 159.5 1662.4 167.5 1662.8 173.8 1658.5 Z" data-holc_grade="D"/>
<path d="M 916.5 598.7 896.2 587.3 900.9 580.7 881.6 568.9 898 554.1 921.6 567.9 909.9 581 925.4 589.6 916.5 598.7 Z" data-holc_grade="D"/>
<path d="M 798 789.2 793.7 793.3 783.7 792.1 776.2 791.4 754.2 811.6 754.2 814.2 740.9 826.8 737.3 825.3 726.6 836.4 668.1 802.5 652.8 816.4 643.2 810.1 661.3 792.7 653.1 787.5 668.1 773.6 670.7 775.8 717 731.7 721.3 734.1 720.3 745.8 715 757.7 725.2 764.9 724.7 776 728.6 784.2 736.1 782.5 758.6 786.6 764.9 784 796.3 754.9 798 789.2 Z M 662 671.6 602.4 728.1 593.1 721.8 652.5 665.9 662 671.6 Z" data-holc_grade="D"/>
<path d="M 641.5 739.3 616.7 762.4 606.7 756.5 636.5 729.8 641.5 739.3 Z" data-holc_grade="D"/>
<path d="M 800.7 704.3 826.8 705.1 826.6 720.4 808.7 728.8 798.5 731.2 800.7 704.3 Z" data-holc_grade="D"/>
<path d="M 650.6 861.2 674.8 836.8 706.4 854.5 680.3 879.3 650.6 861.2 Z" data-holc_grade="D"/>
<path d="M 464.2 929.7 454.2 925.7 442.9 923.8 435.8 918.6 419.7 900.1 400.7 886 391.3 877.1 372.6 864 343.6 853.9 327.5 848.7 317.5 838 283.6 810.9 277.1 800.3 286.5 792.4 313.9 769.6 347.1 820.5 362 813.3 364.2 814.8 375.8 810.1 381 815.1 372.6 821.5 406.8 855.6 464.2 929.7 Z" data-holc_grade="D"/>
<path d="M 716.9 935.6 718.4 941.1 719 950.5 730.6 961.4 800.9 931 779.3 902.6 783.2 895.4 782.2 890.7 790 879.6 787.9 874.3 784.4 860.3 778.8 851.3 771.6 844.4 771.1 842.6 786.8 833.4 801.6 826.9 806.4 826.8 810 831.7 797.7 888.8 809 901.1 816.1 911.2 825.1 908.3 854.8 912 843.2 972.8 756.7 961.9 724.5 975.7 691.3 941.4 713.7 929.4 716.9 935.6 Z" data-holc_grade="D"/>
<path d="M 1368.4 970.5 1368.5 970.7 1306.9 985.9 1306.6 986 1303.7 979.7 1274.3 992 1271.1 1002.5 1265.9 1008.1 1260.4 1006.9 1250.8 1003.9 1244.6 1001.2 1241.9 995.6 1246.9 987.3 1244.6 981.9 1240.2 978.1 1225.1 970.5 1226.8 964.9 1238.8 952.3 1238.9 948 1230.9 937.1 1235.9 935 1246.4 921.6 1244.5 914.7 1245.3 911.5 1307.2 944.2 1314.2 937.9 1319.2 936.5 1337.9 917.2 1356.6 927.4 1345.9 945.1 1349 958.9 1352.9 957.7 1360.6 966.6 1365.1 966.6 1368.4 970.5 Z" data-holc_grade="D"/>
<path d="M 1714.8 777.9 1696.5 787.9 1693.1 779 1705 772.4 1705.8 767 1704.6 760.1 1699.1 749.9 1722.2 738.8 1724.8 739.6 1717.8 760.8 1713.4 769.6 1714.8 777.9 Z" data-holc_grade="D"/>
<path d="M 1276.4 1047.6 1083.3 1146.2 1073.8 1159.4 1054.7 1138.7 1020.2 1156.5 988 1169.1 977.3 1175 968.1 1170.4 972.6 1149.6 977.1 1128.4 1101.8 1059.6 1217.3 996.4 1244.6 981.9 1246.9 987.3 1241.9 995.6 1244.6 1001.2 1250.8 1003.9 1229.1 1024.4 1222.6 1032.1 1203.6 1041.8 1210.6 1051 1238.4 1038.9 1250.4 1037.1 1272.5 1043.9 1276.4 1047.6 Z" data-holc_grade="D"/>
<path d="M 916.5 598.7 925.4 589.6 909.9 581 921.6 567.9 898 554.1 881.6 568.9 900.9 580.7 896.2 587.3 718.1 486.6 707.4 479.8 777.3 403.9 785.3 409.8 804.9 393.4 824.9 374.5 857.9 395.1 863.4 392.2 875.7 394.8 881.1 400.8 886.8 402.4 894 401 903.9 407.8 909.1 415 909.3 418.7 900.5 422.3 902.3 428.9 910.1 432.3 916.8 444.2 927.9 442.9 932.9 449.6 954.7 443.9 937.8 410.6 982.1 434.3 991.8 427.7 1006.9 420.3 1019 412.9 1009.7 437.1 1015 441.4 1022.4 442.9 1029.7 446.6 1030.3 451.7 1024.5 458.1 1050.1 473.4 1059.4 478.2 1050.7 487.1 1045 489 1042.3 495.5 1032 500 1009.6 513.2 997.5 523.7 997.1 522.4 985.3 499.4 968.9 504.5 972.3 511.1 957.9 527.3 979.9 540.3 967.1 552.2 964.9 557.5 961.5 570.7 956.2 596.2 945.3 614.7 916.5 598.7 Z" data-holc_grade="A"/>
<path d="M 718.1 486.6 638 568.8 592.4 540.8 672.8 458.3 707.4 479.8 718.1 486.6 Z" data-holc_grade="B"/>
<path d="M 1151.4 531 1216.2 569.3 1220.9 572.1 1220.5 593.8 1214.7 603.5 1233.9 619.6 1225.2 628.3 1237.7 646.9 1225.8 656.3 1204.8 668.4 1184.1 680.2 1155.7 699.6 1133 716.9 1128.5 725.1 1110.1 714.8 1105.7 738.1 1103.6 739.6 1060.7 733.5 1062.7 723.2 1002.4 715.2 1008.5 684.5 1015.2 659.2 1021.3 661.4 1031.1 648 1020.8 634.6 1039.7 630.9 1064.8 615.7 1071.9 617 1075.4 612.4 1076 603.5 1077.3 588 1082.3 578.4 1089.2 568.7 1099.9 555.5 1107.4 554 1112.8 551 1118.8 545.2 1129.3 545.7 1132.5 528.2 1136.5 523.6 1151.4 531 Z" data-holc_grade="B"/>
<path d="M 1298.9 807.9 1197.4 749 1253.3 690.3 1293.3 648.3 1323.5 665 1370.9 612.4 1341.4 595.9 1395.4 538.3 1409.4 532.4 1404.3 546.1 1409.2 550.2 1430.9 560 1437.9 558.1 1474.5 528 1490.3 539.9 1539.6 517.7 1548.6 517.4 1557.4 523.3 1572.5 544.3 1566.7 562.1 1553.8 557.9 1549.6 561.9 1552.5 569.3 1551.9 576.2 1548 582.3 1571.5 594.4 1586.1 594 1596.4 599.4 1613.8 619.6 1609 651.7 1600.6 668.3 1599.9 673.9 1592.8 682.8 1589.3 694.2 1568 703.1 1567 720.9 1577.4 717.9 1585.4 712.5 1597 713 1602.2 716.4 1605.1 723.6 1615.8 723.6 1621.2 728.6 1609.6 740.8 1576.4 756.1 1573 762.9 1567.7 757.8 1559.1 751.8 1539 740.6 1527.2 730.8 1520.6 723.4 1494.9 746.7 1540.2 773.8 1484 832.1 1491.9 836.5 1471.9 846.4 1410.6 855.8 1416.7 860.2 1430.2 874.3 1392.2 894.1 1405.7 909.9 1411 915.6 1384.7 919.8 1378.6 906.8 1373.5 902.9 1380.3 898.7 1359 873.1 1351.5 877.6 1351 865.1 1357.8 852.9 1349.3 851.3 1301.2 823.3 1377.6 805.9 1374 797.7 1364 792.9 1298.9 807.9 Z" data-holc_grade="B"/>
<path d="M 1791.6 762.7 1774.7 749.5 1749.5 729 1748.7 727.8 1755.3 722.6 1778.2 703.9 1811.7 680.8 1808.7 670.7 1811.1 649.7 1807.5 632 1819.3 627.1 1854.6 588.8 1905.6 616.5 1916.7 620.4 1929.8 622.9 1935.1 626.5 1967.7 608.7 1984 602.1 1992.9 600.4 1995.8 600.8 1995.5 623.4 1999 630.7 1983.8 644.6 1976.3 646.2 1970.6 650 1971.1 653.3 1927.4 681.4 1882.2 641.5 1863.7 647.2 1838 663.9 1885.6 707.1 1861.1 722.6 1835.1 737 1823.4 745.1 1791.6 762.7 Z" data-holc_grade="C"/>
<path d="M 328.7 680.5 281 700.7 210.4 737 98.1 657.9 306.2 453.5 311 456.9 298 469.8 303.8 473.2 320.2 478.7 333.8 490.2 337.6 499.1 325.5 506.5 326 513.2 331.4 523.5 341.5 524.6 343.9 528.3 336.2 540.9 333.8 546.8 328 552.8 339.3 560.5 351.2 574.8 351.2 577.4 345.9 579.8 346.4 587 344.4 590.9 347.6 619.1 362.3 636.3 372.7 646.1 358.2 655 344.4 658.5 352.2 668.5 348.3 672.6 328.7 680.5 Z" data-holc_grade="B"/>
<path d="M 413.6 762 371.6 782.1 362.9 778.8 352.9 768.6 338.1 747.6 313.9 769.6 286.5 792.4 210.4 737 281 700.7 328.7 680.5 370.4 696.5 391 707.6 395.8 715.8 397.1 748.4 403.6 755.3 407.8 759.3 413.6 762 Z" data-holc_grade="B"/>
</g>
</svg>