<?xml version="1.0"?>
<svg xmlns="http://www.w3.org/2000/svg" version="1.2" baseProfile="tiny" width="2000" height="1216" viewBox="0 0 2000 1216" stroke-linecap="round" stroke-linejoin="round">
<g id="holc_ad_data">
<path d="M 1162.2 248.9 1168.8 284.8 1169.2 322.8 1131.6 321.8 1118.6 316.1 1108.3 300.5 1095.3 289.5 1080.1 276.7 1061.3 272.8 1041.1 264.2 1025 255 1013.3 246.5 1001.7 184.4 999.8 174.1 1146.5 169.1 1149.5 180.1 1162.2 248.9 Z" data-holc_grade="A"/>
<path d="M 197.4 253.5 197.2 258.6 200.4 266.8 204.2 278.9 192.7 282.3 182.7 283.3 177.7 281.5 171.9 280.5 156.5 284.2 142.9 285.3 126.2 282.5 112.1 281.3 96.5 287.9 85.9 295.5 70.1 297.8 67.3 287.7 84.5 276.2 89.7 270.3 96.3 257 104 249.1 111.7 244 125 240.3 137.4 235.9 139 238.5 142.9 238.4 181 221.2 188.4 229 193.4 239.2 197.4 253.5 Z" data-holc_grade="A"/>
<path d="M 469.2 300.2 487.7 309.6 480.6 323 473.6 321.5 449.5 354.6 455.5 358.6 449 366.2 491.8 385.3 463.1 425.9 472.7 431 430.6 488.6 367.8 460.3 364.7 468.9 345.8 477.2 340.5 483.8 334.8 484.8 331.5 480.6 337.4 469.2 348.9 452.8 336.7 433.6 341.3 428.1 362.3 418.3 380.5 404.1 390.7 399.9 363 385.9 354.9 396.7 343.2 404.5 331.7 417 326 428.1 320.2 443.3 312.8 449.7 306.1 456.2 302.1 450.9 295.6 444.2 297.1 438.4 305.7 429.3 311.2 416.2 315 407.7 329.8 392.1 337.7 379.6 320.7 378.9 304 375.3 301.6 386.7 288.7 401 277.9 413.9 271.5 416.4 267.9 412 272.2 405 291.8 381.7 293.2 372.5 243.1 367.9 229.9 379.6 225.4 388.4 221.1 394.4 211.5 404.6 210.1 413.2 206.3 416.6 199.8 417.7 196.2 415.1 198.1 401.8 207.2 393.5 215.1 385.3 218.7 376.6 211 379.5 202.2 381.4 187.9 382.3 179.3 380.6 177.3 381.7 176.6 392.3 180.9 397.5 181.9 405.2 179.5 410 174.5 414.5 166.6 418.3 154.6 418.3 139.6 418.9 132.4 416.8 134.6 405.2 132.9 397.8 130.8 387.4 126.7 381.7 86.8 382.5 78.2 381.7 72.9 377.8 67.7 377.2 63.6 381.2 58.3 384 50.7 383.1 45.4 386.1 37.6 390.3 18.9 397.3 2.7 402 1 400.1 6.7 395.6 25.6 388.4 40.2 384.8 47.4 378.3 53.1 375.9 62.4 374.7 68.1 370.4 86.5 377 95.6 377.8 119.5 376 134.8 374.3 142 373.8 179.3 373.8 200.8 371.5 217 367.7 236.1 363.7 243.4 359.6 247.9 359.5 294.1 365.8 315.7 336.1 334.8 310 386.4 334 427 278.9 469.2 300.2 Z" data-holc_grade="A"/>
<path d="M 709.7 362.9 674.3 395.4 662.3 407.7 632 450.3 613.8 442.5 570.3 423.8 538.1 410 511.5 447.7 491 438.4 556.5 345.7 588.5 361.3 620 325.3 709.7 362.9 Z M 719.1 354.1 634.9 305.7 671.4 265.3 743.6 333.3 719.1 354.1 Z" data-holc_grade="A"/>
<path d="M 491 438.4 511.5 447.7 606.1 493.6 602.3 499.8 649.8 519.3 644.8 559.9 637.6 585.1 630.2 606.5 629.5 626.4 632.1 638.9 634.1 658.6 637.2 673.9 638.8 694.4 634.3 718.5 627.6 732.3 617.6 722.1 615.4 707.8 613.5 704.2 595.3 707.1 562.8 707.8 552.3 695.2 551.6 683.8 551.4 661.4 544.7 642.9 534.2 630.2 525.3 621.5 507.4 611.6 477.3 598.2 461.8 590.5 452.1 582.5 440.1 576.9 415.1 570.1 387.8 568 369.9 568.3 430.6 488.6 472.7 431 491 438.4 Z" data-holc_grade="A"/>
<path d="M 528.6 796 531 789.6 558.8 786 576.1 788.7 593.4 796 605.7 805.9 612.5 819.9 614.3 834.8 610.8 844.1 631.4 859 655.9 850.5 694.1 841 721.6 859.5 766.7 890 741 930.1 713.8 927.5 701.3 918.9 695.9 908.7 664.8 892.4 608.1 867.1 599.1 851.4 557.3 825.4 553.4 814 540.6 801.2 528.6 796 Z" data-holc_grade="A"/>
<path d="M 1308.7 248.6 1307.4 280.5 1251.3 298.6 1242.7 300.5 1228.3 305.4 1217.2 248.6 1214.2 235.2 1278.1 232 1284.4 249.7 1308.7 248.6 Z" data-holc_grade="A"/>
<path d="M 197.4 253.5 193.4 239.2 188.4 229 181 221.2 142.9 238.4 139 238.5 137.4 235.9 108.1 186.4 105.5 114 127.2 114 133.1 137.1 168.2 159.9 202.2 206.7 218.9 228.7 204.1 247.9 197.4 253.5 Z" data-holc_grade="B"/>
<path d="M 1075 968.7 916.9 1029.8 901.5 1000.1 890.7 949.9 936.1 930.9 1057.3 929.2 1080.9 965.8 1075 968.7 Z" data-holc_grade="B"/>
<path d="M 1013.3 246.5 882.6 247.1 884.1 195 956.7 193.6 957 186 1001.7 184.4 1013.3 246.5 Z" data-holc_grade="B"/>
<path d="M 977.6 85.7 1018.2 82.2 1117.7 79.3 1108.7 41.9 1122.4 40.8 1146.5 169.1 999.8 174.1 993.4 146.9 983.3 128.8 981.1 94.2 977.6 85.7 Z" data-holc_grade="B"/>
<path d="M 1122.4 40.8 1108.7 41.9 1117.7 79.3 1018.2 82.2 977.6 85.7 954.6 33.9 945.6 3.6 1113.2 1 1114.1 11.4 1118.6 12.6 1122.4 40.8 Z" data-holc_grade="B"/>
<path d="M 1162.2 248.9 1149.5 180.1 1146.5 169.1 1122.4 40.8 1170.2 35.2 1178 74.9 1188.8 129 1194.4 168.4 1240.7 166.6 1269.8 172.8 1295.2 173.1 1308.7 248.6 1284.4 249.7 1278.1 232 1214.2 235.2 1217.2 248.6 1162.2 248.9 Z" data-holc_grade="B"/>
<path d="M 1169.2 322.8 1168.8 284.8 1162.2 248.9 1217.2 248.6 1228.3 305.4 1218.8 321.5 1237.3 322.7 1242.7 300.5 1251.3 298.6 1246.6 323.2 1257.3 325.5 1258.5 346.1 1269.3 351.8 1270.1 358.7 1264.8 364.1 1270.1 380.9 1285.4 395.6 1291.4 407.5 1292.5 424 1249.5 422.4 1239.1 386.6 1222.4 386.9 1195.5 418.1 1178.2 348.7 1171 348.5 1169.2 322.8 Z" data-holc_grade="B"/>
<path d="M 296.1 197 350.5 232.4 345.4 240.8 371.9 258.1 352.1 286.3 334.8 310 315.7 336.1 294.1 365.8 247.9 359.5 243.4 359.6 231.9 329.8 227.7 315.7 225.7 305.8 220.6 297.3 213 289 204.2 278.9 200.4 266.8 197.2 258.6 197.4 253.5 204.1 247.9 218.9 228.7 264 176.7 282.3 187.6 251.6 226.4 285.8 249 306.8 219.2 284.6 203.8 292.5 194.5 296.1 197 Z" data-holc_grade="B"/>
<path d="M 350.5 232.4 296.1 197 303.5 188.6 330.5 151 335.1 137.2 339 114.1 354.1 103.8 413.7 118.9 435.9 134.6 442.5 137.7 456.7 125.8 476.5 141 501.6 117.4 513.1 125.5 447.4 192.6 478.9 211.5 464.5 225.3 417.4 198 379.9 237.5 357.8 225.9 350.5 232.4 Z" data-holc_grade="B"/>
<path d="M 671.4 265.3 634.9 305.7 719.1 354.1 709.7 362.9 620 325.3 588.5 361.3 556.5 345.7 537.4 336.3 499.4 387.8 491.8 385.3 449 366.2 455.5 358.6 449.5 354.6 473.6 321.5 480.6 323 487.7 309.6 469.2 300.2 505.2 257.1 528.8 268.3 532.4 264.2 464.5 225.3 478.9 211.5 544.1 249 589 203.5 609.8 205.8 621.5 181.4 661.1 194.7 645.3 228.8 646.9 231.9 678.8 257.1 671.4 265.3 Z M 622.1 145.7 595.8 175.3 574.6 160.9 599.1 130.8 622.1 145.7 Z M 624.4 42.5 616.4 66.2 578.1 59.1 553.7 35.4 566.2 28.6 578.4 26.2 595.5 30 606.2 37.3 617 40.4 624.4 42.5 Z" data-holc_grade="B"/>
<path d="M 613.8 442.5 605.4 455.2 562.6 438.7 570.3 423.8 613.8 442.5 Z M 872.5 496.5 841.9 486.4 819.5 526.2 850.8 539.6 847.4 545.5 691.9 487.7 701.2 468.8 739.4 431.1 770 404.2 883.5 474.7 872.5 496.5 Z M 900 447 886.6 453.1 824.5 415.6 783.9 391.1 802.3 375.2 900 447 Z M 728.6 406.1 666.1 466.1 650.1 458.7 674.8 423.4 673.6 420 757.8 340.9 783.3 355 761.6 377.4 728.6 406.1 Z" data-holc_grade="B"/>
<path d="M 685 671.2 737.9 692.1 697.4 713.3 672.9 703.3 649.9 723.8 651.1 707.1 648.9 685.3 643 669.6 668.4 685.3 685 671.2 Z" data-holc_grade="B"/>
<path d="M 804.3 672.3 839.6 676.7 801.1 747.5 775.8 741.6 779.6 734.7 777.8 722.3 804.3 672.3 Z" data-holc_grade="B"/>
<path d="M 741 930.1 755.6 936.3 734.1 975.9 679.8 967.4 637 945.6 574.2 913.6 560.4 909.2 521.2 877.9 501.8 862.2 487.2 855.8 465.7 843.6 514.5 802 528.6 796 540.6 801.2 553.4 814 557.3 825.4 599.1 851.4 608.1 867.1 664.8 892.4 695.9 908.7 701.3 918.9 713.8 927.5 741 930.1 Z" data-holc_grade="B"/>
<path d="M 734.1 975.9 763.5 981.6 763.5 984.8 733.6 1019.1 745.3 1025 786.2 949.3 755.6 936.3 741 930.1 766.7 890 775.9 898.4 835.9 951.4 851.6 1023.6 837.3 1046.2 847.8 1079 798.3 1084.7 798.6 1053 833.9 1050.4 832.8 1044.7 797.9 1030.3 770.9 1047.9 726.7 1048.3 691.1 1044.1 670.7 1043.2 652.4 1039.1 672.4 990.8 679.8 967.4 734.1 975.9 Z" data-holc_grade="B"/>
<path d="M 168.2 159.9 133.1 137.1 127.2 114 131.9 84.5 133 67.7 131.5 55.5 129.6 45.3 104.1 30.1 120.8 11.6 170.7 9.1 249.9 42.6 223.1 67.1 176.7 41.9 170.9 47.1 191.6 60.5 171.3 101.3 213.6 122.9 231.6 106 266.9 121.9 237.5 154.1 247 161.2 216.7 191.5 168.2 159.9 Z" data-holc_grade="C"/>
<path d="M 1483.7 340.6 1478.6 360.8 1504.8 365.8 1510.6 345.9 1533.2 348.4 1543.9 348.5 1568.7 362.7 1590 371.4 1539.5 435.8 1519.7 428.1 1514.9 433.4 1520.7 436.8 1513.7 446.4 1527.7 452 1539.1 456.5 1512.4 492.3 1462.4 469.9 1469.1 451.7 1476.5 436 1533.6 384.7 1529.8 382 1429.2 363.3 1427 363.8 1428 376.9 1426.3 383.5 1433.7 387.1 1422.5 412.3 1424.1 428.4 1420.8 441.7 1421.5 455.6 1392 456.3 1368.7 454.6 1369.2 446 1379.9 445.9 1380.4 424.6 1368.7 424.3 1368.5 413.7 1370.4 394.1 1374.4 339.6 1420.4 341.6 1421.4 333.8 1450.5 334.4 1462.2 336.1 1483.7 340.6 Z" data-holc_grade="C"/>
<path d="M 1589.7 387.1 1598 375.8 1599.9 370.5 1601 367 1587.7 350.8 1564.6 343.8 1550.7 321.2 1534.8 295.8 1503.2 198.6 1503 198.6 1546 197.4 1552.3 147.1 1601.6 150.4 1594.5 201.3 1622.5 220.2 1629.2 188.5 1696.1 198.9 1654.6 235.6 1741.6 249.2 1773 262.8 1814.4 296.8 1799.8 319.3 1768.5 305.4 1758.8 306.3 1715.5 283.5 1705.8 280.3 1652 308.1 1621.4 272 1614.7 325.8 1614.7 330.9 1620.6 334.4 1655.4 316.1 1671.8 359.3 1589.7 387.1 Z M 1556.1 285.7 1580.4 297 1590.9 282.1 1566.4 271.4 1556.1 285.7 Z" data-holc_grade="C"/>
<path d="M 1700.2 1046.6 1738 1046.7 1738.5 1030 1726.3 1029.9 1726.1 1023.4 1844.8 1023 1848.6 1035.9 1831.1 1035.9 1831.1 1045.6 1860.1 1065.9 1862 1106.3 1862.2 1165 1820.4 1151.4 1790.5 1124.3 1767.1 1108.5 1738.2 1108 1737 1096.2 1684 1095.4 1682.8 1077.3 1689.7 1071.8 1700.2 1075.9 1700.2 1046.6 Z" data-holc_grade="C"/>
<path d="M 1949.2 1007.7 1942.5 1009 1898.6 1026.3 1895.2 1028.6 1888.5 1033.1 1866.4 1041.9 1849.6 1012.5 1829.9 997.6 1806.6 971.8 1790.2 957.1 1838.6 934.1 1852 923.2 1861 924.6 1882.2 914.5 1905.8 941.5 1938.6 980.8 1960.7 974.6 1971.8 1003.3 1949.2 1007.7 Z" data-holc_grade="C"/>
<path d="M 1895.2 1028.6 1898.6 1026.3 1942.5 1009 1949.2 1007.7 1963.4 1042.3 1972 1043.2 1984.7 1074.3 1979.9 1075.6 1999 1123.4 1966 1138.6 1922.5 1102.8 1930.7 1060.3 1915.6 1063.3 1895.2 1028.6 Z" data-holc_grade="C"/>
<path d="M 900 447 924.3 462.3 1096.6 566.3 1087.5 577.6 1176.6 631.8 1170.9 637.5 1149.4 625 1137.9 635 1137.7 645.6 1066.3 644.1 871.7 571.2 857.7 593.6 820.6 579.8 825.1 571.6 680.1 512.1 691.9 487.7 847.4 545.5 850.8 539.6 874.1 498.3 872.5 496.5 883.5 474.7 770 404.2 783.9 391.1 824.5 415.6 886.6 453.1 900 447 Z" data-holc_grade="C"/>
<path d="M 737.9 692.1 685 671.2 690 664.5 692.1 656.8 659.5 643.6 676.5 636.5 685.8 629.4 703 619.3 713.6 611.6 720.6 602.3 718.6 599 689.8 589.5 684 594.4 690.3 600.1 669 622.2 642.1 647 640 634.5 647 599.7 666.8 577.4 696.6 539.5 818.6 582.5 820.6 579.8 857.7 593.6 842.1 620.5 782.3 600.8 776.2 622.4 768.6 640.9 759.5 669.9 753.9 687.8 737.9 692.1 Z" data-holc_grade="C"/>
<path d="M 951.1 699.4 933.2 732.2 956.8 740.3 947.3 755.3 875.6 731 881.3 712.8 877 703 892.1 674.9 839.7 655.8 855.3 626.2 865.3 630.2 865.1 632.7 872 635.3 893.8 596.9 945.4 614.5 907.9 683.1 951.1 699.4 Z" data-holc_grade="C"/>
<path d="M 679.8 967.4 672.4 990.8 652.4 1039.1 644.9 1054.3 639.7 1070.2 618.9 1054.1 598.3 982 637 945.6 679.8 967.4 Z" data-holc_grade="C"/>
<path d="M 1124.6 1048.1 1132.5 1098.9 1124.4 1104.4 1097.6 1079.1 1057 1105.3 1083.1 1132.6 1015.9 1178.5 1008.5 1184.2 990.1 1206.5 862.3 1206.5 860.1 1204.6 902.9 1178.5 908.9 1179.6 1121.5 1045.4 1124.6 1048.1 Z M 1017.6 1045.7 994 1053.5 999.1 1081 988.7 1087.8 991.1 1097.1 1017.3 1082.2 1033.8 1081.7 905 1163.4 896.4 1156.1 877.6 1166 891.9 1092.8 851.9 1099.2 847.8 1079 837.3 1046.2 851.6 1023.6 856.3 1023.2 906.5 1033.8 916.9 1029.8 1075 968.7 1086 987.6 1034.8 1009.3 1006 1021.5 1017.6 1045.7 Z" data-holc_grade="C"/>
<path d="M 1193.1 58.4 1191.4 60.4 1191.8 86.7 1196.3 107.7 1196.3 113.3 1196.3 121.9 1220.6 122.5 1299.3 168.7 1295.2 173.1 1269.8 172.8 1240.7 166.6 1194.4 168.4 1188.8 129 1178 74.9 1170.2 35.2 1191.1 32.3 1196.7 53.9 1193.1 58.4 Z" data-holc_grade="C"/>
<path d="M 1506.4 267.5 1498.8 269.8 1508.6 301 1516 317.9 1525.3 333.6 1533.2 348.4 1510.6 345.9 1507.2 345.5 1483.7 340.6 1462.2 336.1 1450.5 334.4 1421.4 333.8 1420.7 324.9 1318.1 320 1316.7 328.3 1257.3 325.5 1246.6 323.2 1251.3 298.6 1307.4 280.5 1322.2 270.5 1346.6 261.4 1356.1 255.2 1370.2 245.2 1380.8 248.8 1385.1 244 1411.8 255.4 1417.1 249.9 1430.9 258.6 1427.3 263 1440.5 270.2 1456 272.4 1458.7 265.2 1465.6 266 1466.1 252.9 1468 240.4 1474.4 216 1482.8 216 1482.5 209.7 1488.8 209.7 1499 244 1506.4 267.5 Z" data-holc_grade="C"/>
<path d="M 1292.5 424 1293 434.5 1281.7 440.2 1270.3 436.2 1263.1 429.4 1253 433 1249.5 422.4 1292.5 424 Z M 1374.4 339.6 1370.4 394.1 1368.5 413.7 1358.2 413.3 1356.5 445.1 1369.2 446 1368.7 454.6 1315.6 450.7 1315.9 429.6 1320 418 1314.9 422.4 1308.7 422 1305.1 416.7 1305.9 406.8 1284.8 378.1 1285.8 366.7 1277.7 365.2 1277.7 347.4 1272.4 346.8 1269.3 351.8 1258.5 346.1 1257.3 325.5 1316.7 328.3 1317.1 336 1374.4 339.6 Z" data-holc_grade="C"/>
<path d="M 1435 584.7 1443.9 660.2 1418.7 688.6 1367.1 656.8 1355.6 667.6 1317.4 644 1329.2 632.3 1339.1 636.7 1343.6 631.9 1335.2 625.6 1354.3 605.5 1369.2 589.7 1384.3 598.4 1407.2 574.5 1419 579.7 1435 584.7 Z M 1158.9 504.9 1199.6 527.1 1189.2 539.3 1220.7 558.2 1239.5 630.7 1184.5 597.4 1194.9 584.6 1142.4 553.7 1110.1 534.6 1135.1 510.1 1146.9 516.2 1158.9 504.9 Z M 1454.3 508.1 1458.2 475.4 1462.4 469.9 1512.4 492.3 1498.1 511.4 1490.8 509.1 1481.7 519.7 1454.3 508.1 Z M 1111.6 489.6 1096 503.4 1044.7 472.7 1056.9 460.2 1111.6 489.6 Z M 1454.3 508.1 1452.9 516.4 1463.1 519.5 1457.9 528.6 1459.9 537.7 1455.4 542.2 1435.7 531.9 1443.4 524.6 1437.3 522.1 1429.1 521.6 1423.7 516.7 1393.6 516.7 1393.6 507.3 1390 506.6 1390.5 486.8 1370.3 486.1 1368.9 509.1 1357.4 508.8 1353.6 513.4 1347.4 513.4 1346.8 503.3 1342.3 503 1342.7 489.2 1330.9 489 1330.7 494.8 1314 494.6 1314 504.4 1329.1 506.3 1328.2 533.8 1336 528.2 1367.3 537.1 1383.1 558.4 1361.8 554 1276.5 646.2 1270 643.4 1248.5 561.1 1261.8 559.3 1276.7 620.9 1284.5 625.8 1292.4 618.4 1286.3 552.2 1310.7 551.6 1325.1 535.6 1269.9 534.1 1270.5 521.2 1262.2 517.9 1262.8 451.9 1255.2 448.2 1255.8 436.8 1269.6 446.6 1276.4 447.6 1282.5 445.9 1285.9 445.9 1293.9 443.6 1293.1 481.7 1312.4 483.7 1315.6 450.7 1368.7 454.6 1392 456.3 1421.5 455.6 1429.3 471.5 1426 492.2 1421.2 503.7 1454.3 508.1 Z M 1171.3 385 1190.2 470.1 1113 481.3 1064.7 450.4 1078.1 436.2 1091.7 443.4 1112.8 439 1143.8 411.2 1112.3 411 1108.7 385.2 1171.3 385 Z" data-holc_grade="D"/>
<path d="M 1017.6 1045.7 1047.5 1034 1034.8 1009.3 1086 987.6 1090.1 987.8 1107.3 1018.7 1024.3 1052.8 1034.1 1076.8 1033.8 1081.7 1017.3 1082.2 991.1 1097.1 988.7 1087.8 999.1 1081 994 1053.5 1017.6 1045.7 Z M 1130.9 935.3 1083.8 953.7 1070.4 928.3 1112 905.6 1130.9 935.3 Z" data-holc_grade="D"/>
<path d="M 1135.8 945.6 1147.1 941.6 1158.4 952.1 1216.3 917.9 1220.3 920.7 1227.4 916.8 1242.1 929.3 1252.3 922.7 1267 937.1 1155.2 1006.3 1145.9 990.1 1130.8 963.2 1135.8 945.6 Z" data-holc_grade="D"/>
<path d="M 1276.4 946.4 1315.6 985.2 1240.5 1033.5 1327.1 1119.1 1300.3 1138 1312.6 1152 1342.1 1151.7 1344.7 1182.5 1250.6 1187.2 1250.6 1213.9 1216.2 1215.4 1185.3 1001.5 1276.4 946.4 Z" data-holc_grade="D"/>
<path d="M 1196.3 113.3 1196.3 107.7 1191.8 86.7 1191.4 60.4 1193.1 58.4 1230.3 69.8 1246 34.9 1330.9 61.6 1329.9 67.3 1293.3 127.3 1257 132.6 1232.7 117.9 1223.3 114.3 1196.3 113.3 Z" data-holc_grade="D"/>
<path d="M 1384.6 58.7 1428.2 44.5 1437.5 65.3 1486.8 149.8 1475.7 179.4 1427.3 180.3 1427.9 159.5 1425.8 159.5 1384.9 189.6 1360.4 204 1325.2 182.2 1349.1 114.8 1372.4 114.3 1379.2 79 1384.6 58.7 Z" data-holc_grade="D"/>
<path d="M 1543.9 348.5 1533.2 348.4 1525.3 333.6 1516 317.9 1508.6 301 1498.8 269.8 1506.4 267.5 1518.2 303.7 1544 345.7 1543.9 348.5 Z M 1385.1 244 1413.6 212.2 1433.8 210 1462.9 209.7 1482.5 209.7 1482.8 216 1474.4 216 1468 240.4 1466.1 252.9 1465.6 266 1458.7 265.2 1456 272.4 1440.5 270.2 1427.3 263 1430.9 258.6 1417.1 249.9 1411.8 255.4 1385.1 244 Z" data-holc_grade="D"/>
<path d="M 1696.2 469.9 1663 521.1 1617.8 513.7 1622.6 540.4 1641.7 554 1675.7 563.2 1693.2 526.2 1809.3 553.7 1789.2 590.1 1771.2 585.4 1749.9 627.6 1806.1 612.9 1809.1 595.6 1839.8 603.9 1840.4 608.2 1749.3 697 1709 703.1 1711.1 698.2 1738.9 658.8 1750.2 630.4 1746.6 627.4 1716.2 625.7 1703.9 638 1708.4 642.5 1674.4 680.6 1681.8 700.1 1685.4 701.7 1693.2 693.9 1706 700.8 1705.1 704.1 1647.2 718.1 1627.2 737 1545.3 739.1 1547.7 729.4 1548 712.1 1575.8 681.1 1588 687.3 1596.1 677.8 1587.4 672.3 1625.7 606.5 1605.7 594.7 1572.8 643.7 1575.2 652 1522 737.7 1491.6 738.4 1491.9 673.5 1492.8 608.6 1484.4 549.7 1499 547.5 1503.5 559.4 1562.1 551.1 1557 514.6 1577.6 481.5 1623 475.6 1631.1 481.7 1650.6 452.2 1696.2 469.9 Z M 1589.7 387.1 1539.1 456.5 1527.7 452 1533.7 442.7 1520.7 436.8 1514.9 433.4 1519.7 428.1 1539.5 435.8 1590 371.4 1598 375.8 1589.7 387.1 Z" data-holc_grade="D"/>
<path d="M 1571.6 796.7 1557.8 810.9 1534.2 799.5 1572.8 792.4 1571.6 796.7 Z M 1677.6 797.4 1626.8 848.5 1573.7 814.7 1621.8 765.6 1677.6 797.4 Z M 1588.9 781.7 1530.4 784.6 1502.3 770.4 1505.3 760.4 1508.6 754.3 1614.6 752.4 1588.9 781.7 Z M 1742.7 929.8 1716.4 922.5 1677.3 916.3 1666.9 914.6 1671.9 905.6 1628.9 881.9 1600.9 913.4 1562.9 891.2 1574.6 879.3 1539.9 857.8 1544.1 852.8 1513 835 1508.9 837.4 1499.3 831.3 1501.4 828.4 1489.7 820.4 1504.7 805.7 1549.5 832.7 1557.8 826.8 1661.8 886.9 1672.5 875.5 1642.4 858.3 1703.9 793.4 1636.4 752.4 1659.7 728.9 1772.6 713.5 1750.8 737.7 1788.1 761.9 1810.2 763.3 1823.4 784.6 1808.4 788.1 1810.8 795.5 1802.8 797.9 1808.1 808.3 1835.3 802.8 1847.9 814.2 1835.9 846.6 1829.6 844.3 1776.2 849 1760.7 841.2 1749.3 853.3 1767.5 863.5 1768.7 891.9 1740.6 914.2 1742.7 929.8 Z" data-holc_grade="D"/>
<path d="M 1651.5 981.8 1650.4 997.5 1587.7 996.9 1588.4 975.2 1585.8 964.3 1658.6 961.6 1651.5 981.8 Z M 1742.7 929.8 1798 976.8 1833.9 1010 1844.8 1023 1726.1 1023.4 1726.3 1029.9 1738.5 1030 1738 1046.7 1700.2 1046.6 1688.1 1046.5 1678.3 1039.1 1664.4 1009.2 1664.2 979.8 1673 969 1671.1 952.3 1739.2 949.5 1734 938.5 1679 940.4 1677.3 916.3 1716.4 922.5 1742.7 929.8 Z" data-holc_grade="D"/>
<path d="M 1259.6 740.4 1240.6 761.1 1209.2 741.1 1222.4 724.9 1205.9 714.9 1216.8 704.4 1258.1 729.4 1253.6 735.5 1259.6 740.4 Z M 1170.9 637.5 1176.6 631.8 1222.3 660.4 1213.7 669.1 1172.4 646.9 1170.9 637.5 Z M 956.8 740.3 933.2 732.2 951.1 699.4 1007.4 719.3 1013.6 709.2 932.1 679.5 963.6 619.8 973.4 623.2 966.7 635.9 1086.7 679.5 1171.3 680.8 1169.8 738.8 1199.2 740.3 1192.8 747.5 1193.3 761.3 1177.2 776.5 1165.8 779 1165.8 771.8 1151.9 771.8 1150.5 779 1114.6 778.8 1113.2 722.7 1097.4 721.9 1097 704.9 1076.6 704.3 1075.9 724.2 1059.4 723.6 1059 726.9 1033.4 725 1021.7 744.5 1014 743 1009.3 749.8 1001.6 749 994.2 761.3 970.6 761.2 981.5 741.3 962.2 733.5 956.8 740.3 Z" data-holc_grade="D"/>
<path d="M 851.4 759.6 922.5 760.7 916.4 783 940.6 786 922.2 851.6 904.6 853.6 884.7 850.7 859.4 842.7 833.5 830.9 851.4 759.6 Z" data-holc_grade="D"/>
</g>
</svg>