<?xml version="1.0"?>
<svg xmlns="http://www.w3.org/2000/svg" version="1.2" baseProfile="tiny" width="2000" height="1340" viewBox="0 0 2000 1340" stroke-linecap="round" stroke-linejoin="round">
<g id="holc_ad_data">
<path d="M 468.9 269.6 469.4 277.9 455.1 278.9 391.9 281.5 349.5 283.8 347.7 283.1 346.8 277.3 318.3 279.2 317.6 280.6 317.2 285.5 303.8 286.2 303.4 287.9 304.6 311.3 281.5 312.8 240.3 314.6 237.9 316.2 233.9 315.6 227.1 316.2 226.6 301 223.8 277.7 223.3 257.1 225.1 257.1 227.3 256.9 229.6 256.1 233.1 254.5 233.7 253.4 235.6 252.3 237.4 251.7 238.3 251.9 239.4 253.1 240.4 254.1 243 254.4 245.5 254.1 249.2 253.3 253.1 251.6 256.9 249.7 259.3 248 261.3 246.5 262.4 245.2 263.5 243 264.2 242 264.5 240.9 265.6 239.9 267.6 238.8 269.7 238.4 273 238.2 276.1 238 279.6 237.3 284.1 236 285.7 235.2 288.1 235.5 290.9 235.6 294.2 235.2 299.9 235 309.1 234.6 310.9 233.9 315.8 230.9 318.7 227.9 321.3 226.1 324.4 225 330.1 224.1 331.4 223.6 332.3 222.7 332.9 221.7 334.9 220.6 336 219.9 337.7 219.9 339.7 221.4 342.8 222.4 345.7 224.5 347.6 227.5 349.3 229.5 349.5 230 349.7 230.4 349.9 230.8 350.2 231.1 350.5 231.5 350.9 231.8 351.2 232 351.6 232.3 352 232.5 352.4 232.7 352.9 232.9 353.4 233 354.4 233.3 356.3 233.7 357.1 233.9 357.9 234.1 358.5 234.4 358.9 234.6 359.3 234.7 359.6 234.9 359.9 235.1 360.2 235.4 360.4 235.6 360.7 235.9 360.9 236.1 361.2 236.5 361.4 236.9 361.6 237.3 361.8 237.8 361.9 238.2 362 238.8 362.1 239.3 362.2 239.9 362.2 240.5 362.2 241.1 362.2 241.8 362.2 242.5 362 244.1 361.7 245.7 357 255.2 357.7 257.9 368.9 266.1 376.2 266.5 425.2 271.4 457.3 269.1 468.9 269.6 Z" data-holc_grade="A"/>
<path d="M 667.5 963.8 665.8 963 662.3 960.8 657.3 958 652.9 956.8 650.1 955.9 646.7 954.2 645.3 953.6 641 952.1 641.2 954.3 641.2 956 641 958.1 640.2 959.6 638.5 960.5 635.8 961.9 634.1 962.7 628.8 963.3 626.3 963 623.6 962.7 622.9 962.9 620.3 963.9 621.3 966.4 622.1 969.9 623.6 975.2 624.6 980 622.8 985.6 620.1 990.8 616.5 993.1 611.8 995.3 605.9 996.9 604.5 997.2 599.3 998.2 591.5 998.9 523.2 996.4 524.6 990.1 524.8 989.3 524.9 988.4 524.9 987.5 524.8 986.6 524.6 985.8 524.3 984.9 524 984.1 523.5 983.3 523 982.5 526.7 976.7 529.6 972.6 533.1 969.3 545.9 959.5 541.9 956.1 544.7 953.2 588.9 914.9 592.4 915.9 594.5 915.9 597.4 913.9 602.2 911.5 615.1 906.6 620.4 904.9 625 903.6 627.7 903.2 633.5 902.7 638.4 901.8 641.7 901.3 647.1 901.2 656.2 900.5 665.9 899.8 671.7 898.7 676.1 897.9 677 897.9 676.7 900.3 676.4 902.5 676.4 904.2 677.2 905.2 678.3 906.7 677.9 908.6 677.4 909.5 676.4 911.1 673.8 912.4 671.5 913 668.2 914.2 666.1 915.3 663.2 917.3 661.5 919.9 659.9 924.3 661.9 934.5 667.5 963.8 Z" data-holc_grade="A"/>
<path d="M 731.2 898.8 726.1 900.7 722.7 902.4 718.6 904.8 714.1 908.7 709.3 913.5 711.8 916.2 717.4 919.4 721.2 922 727 923 732.5 925.3 736 921.8 737.1 921.5 738.2 921.7 738.8 922.6 739.6 925.1 742 930.9 742.6 931.6 743.3 932.3 744.1 933 745 933.6 745.9 934.2 746.9 934.7 747.9 935.1 748.9 935.5 750 935.8 751.1 936.1 752.3 936.2 753.4 936.3 754.6 936.4 755.7 936.3 764.3 936.9 769.6 937.7 770 971.2 762.4 970.5 759.2 970 748.5 971.8 745 971.8 741.4 971.7 727.3 969.9 723.2 969.9 720.5 970.1 704.4 972.6 698.4 972.7 695.6 971.8 692.6 970.9 684.2 983.7 672.3 967.3 667.5 963.8 661.9 934.5 659.9 924.3 661.5 919.9 663.2 917.3 666.1 915.3 668.2 914.2 671.5 913 673.8 912.4 676.4 911.1 677.4 909.5 677.9 908.6 678.3 906.7 677.2 905.2 676.4 904.2 676.4 902.5 676.7 900.3 677 897.9 679.4 897.7 684.1 897.9 691 898.4 696.5 897.8 698.5 898 700.8 897.4 703.1 896.7 705.4 895.9 707.6 895 709.8 894.1 712 893.2 714.1 892.1 716.1 891 718.1 889.9 720.1 888.7 722 887.4 731.2 898.8 Z" data-holc_grade="A"/>
<path d="M 523.2 996.4 591.5 998.9 599.3 998.2 604.5 997.2 605.9 996.9 615.7 1004.8 628 1017.5 636.3 1023.8 644.4 1029.2 654.5 1033.7 658.6 1034.7 659.2 1036.9 658.1 1047.7 639.8 1046.7 635.1 1054.3 627.2 1051.1 626 1051.4 623 1056.3 620.5 1060.3 600.5 1088.5 598.7 1088.6 587.2 1079.6 585.5 1078.2 579.2 1073.3 577.3 1068.3 571.3 1057.7 563.6 1047.1 553.2 1042.7 536.4 1034.1 517.5 1025.7 518 1019.1 523.2 996.4 Z M 592 1070 593.7 1070.3 595.3 1068.1 601.1 1060.8 604 1056.4 606.6 1050.3 607.7 1046.7 608 1043.7 607.3 1042.1 595.7 1039.3 588 1052 592.2 1054.7 589.2 1057.9 586.2 1062.5 589.9 1064.9 589.8 1066.7 592 1070 Z" data-holc_grade="A"/>
<path d="M 667.5 963.8 672.3 967.3 684.2 983.7 692.6 970.9 695.6 971.8 698.4 972.7 704.4 972.6 720.5 970.1 723.2 969.9 727.3 969.9 741.4 971.7 745 971.8 748.5 971.8 759.2 970 762.4 970.5 770 971.2 770.2 987.6 768.2 988.5 765.1 989.5 760.7 990.2 756.4 989.4 750.3 985.9 742.5 981.4 736.1 980 733.9 979.7 731.7 980.4 731.6 981.3 732.1 983.1 733.8 985.6 734 988.7 733 989.8 726.7 993.3 726.3 995 726.4 995.8 729.1 1000.7 730 1001.6 731.4 1003.1 732.8 1004.6 733.7 1005.9 734.4 1007.3 735.1 1008.6 735.7 1010 736.2 1011.4 736.6 1012.8 737 1014.2 737.3 1015.6 737.5 1017 737.7 1018.4 737.7 1019.8 737.7 1021.2 737.6 1022.6 737.4 1024 737.2 1025.4 736.3 1026.3 731.6 1027.5 718.3 1029.3 703 1031.5 688.6 1033.7 672.6 1036.3 659.2 1036.9 658.6 1034.7 654.5 1033.7 644.4 1029.2 636.3 1023.8 628 1017.5 615.7 1004.8 605.9 996.9 611.8 995.3 616.5 993.1 620.1 990.8 622.8 985.6 624.6 980 623.6 975.2 622.1 969.9 621.3 966.4 620.3 963.9 622.9 962.9 623.6 962.7 626.3 963 628.8 963.3 634.1 962.7 635.8 961.9 638.5 960.5 640.2 959.6 641 958.1 641.2 956 641.2 954.3 641 952.1 645.3 953.6 646.7 954.2 650.1 955.9 652.9 956.8 657.3 958 662.3 960.8 665.8 963 667.5 963.8 Z M 626.6 980.6 631.8 984.8 639.9 974.1 639.2 973.8 638 972.9 636.4 971.7 635.3 970.6 633.7 968.5 633.2 967.2 632.8 966.2 632 965.2 630.7 964.5 623.9 963.7 623.5 963.9 623.1 964.2 622.1 965.4 622.2 966.1 622.8 967.5 624 969.5 625.1 972.3 625.6 974.9 626.2 978.5 626.6 980.6 Z" data-holc_grade="A"/>
<path d="M 689 255 682 255.9 682.2 264.7 653.9 264.8 653 239.1 687.2 232.3 689 255 Z" data-holc_grade="A"/>
<path d="M 852.6 233.5 835.1 236 757.2 245.9 689 255 687.2 232.3 779.9 213.5 798.4 209.5 806.2 208.9 838.3 204.9 865.2 201.8 868.3 214.4 850.6 216.5 849.8 218.1 852.6 233.5 Z" data-holc_grade="A"/>
<path d="M 869 39 872.4 59.8 875 73.4 877.6 86 877.7 89 879.5 96.3 867.1 98 869.4 110.4 852.3 112.6 845.8 72.9 864.4 70.7 857.7 35.9 855.8 24 921.2 15.7 997.6 5.5 1016.6 15.1 1034.9 25.5 1021.9 26.8 994.2 11.1 898.4 23.7 867.5 27.4 869 39 Z" data-holc_grade="A"/>
<path d="M 865.2 201.8 856 137.7 865.9 137 870 155 871.7 155.4 888.2 152.9 966.5 143.1 968.2 143.1 971 155.2 973.2 155.6 991.7 153.2 992.4 154.3 999 184.5 982.5 186.6 935.9 192.6 885.3 199.2 865.2 201.8 Z" data-holc_grade="A"/>
<path d="M 502 978.2 512 977.7 513.1 977.7 514.2 977.8 515.2 978 516.3 978.2 517.3 978.6 518.3 979 519.2 979.4 520.1 979.9 520.9 980.5 521.7 981.1 522.3 981.8 523 982.5 523.5 983.3 524 984.1 524.3 984.9 524.6 985.8 524.8 986.6 524.9 987.5 524.9 988.4 524.8 989.3 524.6 990.1 523.2 996.4 518 1019.1 517.5 1025.7 517.4 1027 480.4 1027.7 451.2 1028.2 388.5 1028.4 374.7 1027.9 375.1 981.6 328.2 984.4 329.1 964.4 329.7 953.5 329.7 951.8 331.6 952.4 333.5 952.9 335.3 953.4 337 953.8 338.7 954.1 340.3 954.3 341.9 954.4 343.4 954.5 345 954.5 346.5 954.4 348 954.3 349.6 954 351 953.7 352.6 953.4 354.2 953 358.5 951.8 359.9 951.4 361.1 951.2 362.6 950.9 364 950.7 365.5 950.5 366.9 950.4 367.8 950.4 368.7 950.4 369.6 950.4 370.5 950.5 371.5 950.6 372.4 950.7 373.4 950.8 374.4 950.9 375.4 951.1 376.4 951.3 377.4 951.5 378.4 951.8 380.6 952.3 382.8 953 383.1 963.1 415.2 973.3 419.8 975 431.5 979.3 433.3 979.3 436.9 979.4 434.4 940.3 475 939.1 478.7 979.1 502 978.2 Z M 434.6 1003.3 433.5 982.8 419.9 982.8 420.4 1003.6 434.6 1003.3 Z" data-holc_grade="A"/>
<path d="M 694.9 804.4 672.2 821.5 629.6 853.9 627.9 855.2 597.8 856.5 576 859.3 570.9 859.6 573.1 854.6 585.4 819.9 593 818.5 598.8 816.1 602.5 815.1 605.8 814.4 607.5 814.4 611.5 815.2 614.5 816.2 616.9 817.7 620.7 818.1 624.3 817.6 626.7 817.4 630.7 816.8 633.2 814.7 634 812.1 634.3 804.3 639.9 797.7 643.3 795.7 644.9 793.4 645.1 791.2 644.7 790.1 640.3 784.6 640 782 640 778.9 640.2 776.4 640.2 774.2 639.8 772.1 638.6 770.1 635.3 767 632.9 765.6 629.5 764.2 627.8 763.2 625.2 761.3 623.4 759.5 622.1 757.6 620.3 755.3 619.2 751 619 748.3 619.1 745.4 619.5 742.2 619.7 737.8 619.8 735.1 619.7 732.6 620 731.6 622.9 728.8 623.9 727.4 626.3 725.8 629.2 723.5 629.6 723.2 675.9 761.1 678.9 771.2 683.8 777.1 700.7 792.9 701.2 793.4 701.6 793.9 701.9 794.5 702.2 795.1 702.4 795.7 702.5 796.3 702.5 796.9 702.4 797.6 702.2 798.2 701.9 798.8 701.6 799.4 701.1 799.9 700.6 800.4 700.1 800.8 694.9 804.4 Z" data-holc_grade="A"/>
<path d="M 696.5 897.8 691 898.4 684.1 897.9 679.4 897.7 677 897.9 676.1 897.9 671.7 898.7 665.9 899.8 656.2 900.5 647.1 901.2 641.7 901.3 638.4 901.8 633.5 902.7 627.7 903.2 625 903.6 620.4 904.9 615.1 906.6 602.2 911.5 597.4 913.9 594.5 915.9 592.4 915.9 588.9 914.9 612.1 894.8 615 891.4 620.5 885.1 611.7 880.1 607.8 879.2 601.3 887.8 600.2 889.3 581.1 904.9 541.7 940.2 538.2 943.1 537.5 944.9 537.5 946.5 538.3 948.6 544.7 953.2 541.9 956.1 545.9 959.5 533.1 969.3 529.6 972.6 526.7 976.7 523 982.5 522.3 981.8 521.7 981.1 520.9 980.5 520.1 979.9 519.2 979.4 518.3 979 517.3 978.6 516.3 978.2 515.2 978 514.2 977.8 513.1 977.7 512 977.7 502 978.2 503 971 504.3 966.7 506.1 962.8 507.4 961.6 510.6 959.7 520.9 962 522.6 960.8 530 945.5 536.2 936.6 553.2 906 560.7 882.6 570.6 860.1 570.9 859.6 576 859.3 597.8 856.5 627.9 855.2 629.6 853.9 662.8 870.1 696.5 897.8 Z" data-holc_grade="A"/>
<path d="M 732.9 813.7 728.9 817.4 760.4 839.4 765.7 843.8 766.4 845.5 765.5 847 765 849 763.3 850.7 760.6 851.6 749.1 860.3 739.4 876.1 734.8 881.4 731.9 883.1 722 887.4 720.1 888.7 718.1 889.9 716.1 891 714.1 892.1 712 893.2 709.8 894.1 707.6 895 705.4 895.9 703.1 896.7 700.8 897.4 698.5 898 696.5 897.8 662.8 870.1 629.6 853.9 672.2 821.5 694.9 804.4 697.7 806.7 705.9 807.9 728.9 812.5 732.9 813.7 Z" data-holc_grade="A"/>
<path d="M 124.6 343.8 125.2 371.9 150.5 371.2 197.9 367.8 199 367.7 244.5 365 269.8 364.1 271.9 364 272.7 376.4 276 412.7 276.4 419.6 278.9 466.5 242.8 468.1 174 472.1 76.1 476.8 28.8 479 18.1 479.2 13.9 428.5 1.6 428.7 1 415.2 12.9 414.6 10.8 383 10 371 9.8 366.2 8.8 364.8 8.7 361.2 4.7 355.7 4.9 352.8 67.2 347.5 124.6 343.8 Z M 247.6 411.8 247.9 415.1 273.6 413.9 272.1 395.8 270.1 367.9 244.1 368.6 247.4 409.9 247.6 411.8 Z M 224 413.6 223.3 412 171.9 414.3 153.6 415.3 128.8 416.3 110.3 416.8 102.8 417.7 103.1 428.8 105.1 429.8 150.5 428.1 195.7 425.5 225.3 423.9 224 413.6 Z" data-holc_grade="B"/>
<path d="M 716.5 391.4 729.6 389.3 726.7 372.4 725.9 371 696.9 374 695.6 354.3 742.7 351.5 748 351.4 750.3 360.1 761.8 359.1 768.5 392.6 747.4 395.6 720.4 398.8 719.3 398.9 718.5 398.2 717.2 392.9 716.5 391.4 Z" data-holc_grade="B"/>
<path d="M 851.4 382.5 857.2 409 823.7 414 822.6 415.2 823.2 418.5 777.5 420.6 777.4 420.1 771.8 392.4 771.7 392.2 851.4 382.5 Z" data-holc_grade="B"/>
<path d="M 1034.9 25.5 1036.3 25.4 1041.5 49.5 1040.9 50.3 999.5 55.2 997.8 55.4 985.7 50.4 983.9 52.2 982.1 53.9 980.1 55.6 978.1 57.2 976 58.8 973.9 60.4 971.7 61.8 969.5 63.2 967.2 64.6 964.8 65.9 962.4 67.2 959.9 68.3 957.4 69.4 954.8 70.5 952.3 71.5 949.6 72.4 947 73.3 944.2 74.1 941.5 74.8 940.2 75.2 938.9 75.6 937.5 76 936.1 76.2 934.7 76.5 933.3 76.6 923.4 31.7 869 39 867.5 27.4 898.4 23.7 994.2 11.1 1021.9 26.8 1034.9 25.5 Z" data-holc_grade="B"/>
<path d="M 1011.4 131.6 1014.7 144.2 1056.2 138.2 1057.4 139 1062.6 163.7 1019.4 169.6 1024.3 196.8 1005.9 199.4 1004.8 199 1003.4 198.8 1002.4 197 998.6 197.4 983.3 199.1 959.9 202.3 933.4 205.9 868.3 214.4 865.2 201.8 885.3 199.2 935.9 192.6 982.5 186.6 999 184.5 992.4 154.3 991.7 153.2 973.2 155.6 971 155.2 968.2 143.1 966.5 143.1 888.2 152.9 871.7 155.4 870 155 865.9 137 856 137.7 854.6 125.9 871.3 123.9 873.3 125.4 875.8 136 913.3 131 964.9 124.6 967.9 137.5 1011.4 131.6 Z" data-holc_grade="B"/>
<path d="M 1138.4 191.2 1093.7 196.5 1087.8 167.5 1130.4 162.5 1132.1 163.4 1138.4 191.2 Z" data-holc_grade="B"/>
<path d="M 159.3 623.8 156.8 599.1 155.4 598.3 128.3 598.2 127.9 573.5 221.1 569.4 266.6 567.2 429.9 561.1 431.6 578.9 431.6 580.2 404.6 580.8 405.6 593.1 433.6 592.3 434.6 611.8 346.2 615.1 325 616.7 293.3 618.4 211.1 621.7 168 623.5 159.3 623.8 Z" data-holc_grade="B"/>
<path d="M 509.8 633.6 496.4 634.5 497 659.3 453.3 661.6 453.4 663.9 454.4 685.1 454.3 685.1 455.3 712 413.5 714 371.5 716 209.9 723.6 207.8 699.1 206.8 697.8 179.5 698.8 177 674.5 176.3 673.5 164.3 673.9 162.5 673.1 160.4 648.3 159.3 623.8 168 623.5 211.1 621.7 293.3 618.4 325 616.7 346.2 615.1 434.6 611.8 507.7 609.1 509.8 633.6 Z M 441.2 664.2 442.5 685.6 453.5 685.1 452.1 663.9 441.2 664.2 Z" data-holc_grade="B"/>
<path d="M 221.9 874 216.1 798.8 313.7 794.2 418.6 789.6 422.2 841.8 394.3 842.9 394.9 859.1 308 862.6 308.5 870.7 221.9 874 Z" data-holc_grade="B"/>
<path d="M 475 939.1 434.4 940.3 384.8 941.7 383.4 918.5 340.8 920.4 324.8 921.1 279 923.6 225 925.4 221.9 874 308.5 870.7 308.9 877.3 397.1 873.9 397.1 868.9 420.7 868.5 421.2 872.6 482.1 870.2 481.9 863.4 520.8 862.9 552.2 861 570.6 860.1 560.7 882.6 553.2 906 536.2 936.6 509.5 938.1 475 939.1 Z" data-holc_grade="B"/>
<path d="M 329.7 951.8 329.7 953.5 329.1 964.4 328.2 984.4 298.2 986.4 232.3 989.1 229.5 991.6 227.7 991.7 226.7 991.8 229.1 979.2 228.5 973.8 226.4 947.6 225 925.4 279 923.6 324.8 921.1 340.8 920.4 340.2 942.8 330.1 944.8 329.7 951.8 Z M 288.9 953 288.5 952.9 287.1 952.5 285.5 952 283.9 951.5 281.8 950.5 280.7 949.8 279.4 948.7 277.6 946.3 276.8 945.3 275.2 944 274.5 943.1 273.6 942.4 272.8 941.7 272 941.2 271.4 941.2 270.9 941.6 270.2 942 269.9 942.4 269.6 943.2 269.3 944 269.2 945 269.1 946 269.4 947 269.8 948.4 270.3 949.4 271 950.5 271.7 951.4 272.8 952.6 273.6 954.3 273.9 955.2 274.1 956 274.2 957 274.8 958.1 275.9 958.9 278.4 960.2 279.5 961.3 280.7 961.6 283.6 962.8 285.6 962.6 286.7 962 287.7 961.7 288.8 962.1 290.6 962.6 292.7 963 295.4 963.4 297.3 964.2 298.7 964.4 299.9 964.6 301.4 964.3 302.6 964.2 304.1 963.7 305.4 963.3 307 962.7 308.1 962.1 309.2 961.8 310.6 961.6 311.8 961.7 313.1 962 314 962.2 316.1 963.1 317.9 963.6 318.7 964 320.3 964.1 321.9 963.6 323 963.1 323.9 962.8 325.8 961.5 326.7 960.5 327.2 959.1 326.6 957.9 326.1 956.3 326.4 955.5 326.7 953.8 325.9 953.5 324.7 953 323.8 952.9 322.9 952.8 322.3 952.8 321.4 952.8 320.2 952.8 319.5 952.4 318.4 952.2 317.4 952.2 315.1 952.2 313.9 952.3 312.3 952.3 311.4 952.4 310.3 952.7 308.7 953.1 307.7 953.2 306.1 953.1 305.1 953 303.8 952.6 302.9 952.3 302.2 952.3 301.5 952.5 300.2 953.3 297.6 953.4 295.3 953.4 292.9 953.7 291.9 953.8 288.9 953 Z" data-holc_grade="B"/>
<path d="M 199 367.7 197.9 367.8 150.5 371.2 125.2 371.9 124.6 343.8 197.5 341.4 199 367.7 Z" data-holc_grade="B"/>
<path d="M 461.5 788.1 467.1 856.2 423.3 858.2 422.2 841.8 418.6 789.6 413.5 714 455.3 712 461.5 788.1 Z" data-holc_grade="B"/>
<path d="M 520 785.2 461.5 788.1 455.3 712 454.3 685.1 454.4 685.1 453.4 663.9 453.3 661.6 497 659.3 497.8 674.4 502.5 679.7 499.2 683.5 497.3 688.3 515.2 710.4 520 785.2 Z" data-holc_grade="B"/>
<path d="M 585.4 819.9 573.1 854.6 570.9 859.6 570.6 860.1 552.2 861 520.8 862.9 481.9 863.4 480.6 856.2 467.1 856.2 461.5 788.1 520 785.2 565.8 783.7 568.9 820.6 585.4 819.9 Z" data-holc_grade="B"/>
<path d="M 574.1 707.3 575.3 732.5 589.5 732.7 592.4 782.8 565.8 783.7 520 785.2 515.2 710.4 497.3 688.3 499.2 683.5 502.5 679.7 497.8 674.4 497 659.3 496.4 634.5 509.8 633.6 538.8 632.3 541.1 652.5 543.4 692.1 556.8 697.1 558.8 697 574.1 707.3 Z" data-holc_grade="B"/>
<path d="M 669.9 1066.2 669 1067.1 668.1 1067.9 667.1 1068.7 666.1 1069.5 665 1070.1 663.8 1070.7 662.6 1071.3 661.4 1071.8 660.1 1072.2 658.8 1072.5 657.4 1072.8 656 1073 654.6 1073.1 653.2 1073.2 652.3 1096.1 635.3 1090 634.8 1091.1 634.2 1092.2 633.6 1093.2 632.9 1094.3 632.1 1095.3 631.2 1096.2 630.3 1097.1 629.3 1098 628.2 1098.9 627.1 1099.6 603.7 1093.1 604.5 1090.9 603.6 1089.4 600.5 1088.5 620.5 1060.3 623 1056.3 626 1051.4 627.2 1051.1 635.1 1054.3 639.8 1046.7 658.1 1047.7 659.2 1036.9 672.6 1036.3 669.9 1066.2 Z" data-holc_grade="B"/>
<path d="M 600.5 1088.5 603.6 1089.4 604.5 1090.9 603.7 1093.1 627.1 1099.6 628.5 1100 628 1105 648.5 1111.4 649.8 1151.1 648.8 1152.1 616.2 1151.6 569.1 1154.4 533.7 1153.7 529.4 1152.5 510.9 1151.4 514.8 1077.2 514.8 1077 517.4 1027 517.5 1025.7 536.4 1034.1 553.2 1042.7 563.6 1047.1 571.3 1057.7 577.3 1068.3 579.2 1073.3 585.5 1078.2 587.2 1079.6 598.7 1088.6 600.5 1088.5 Z" data-holc_grade="B"/>
<path d="M 629.6 723.2 629.2 723.5 626.3 725.8 623.9 727.4 622.9 728.8 620 731.6 619.7 732.6 619.8 735.1 619.7 737.8 619.5 742.2 619.1 745.4 619 748.3 619.2 751 620.3 755.3 622.1 757.6 623.4 759.5 625.2 761.3 627.8 763.2 629.5 764.2 632.9 765.6 635.3 767 638.6 770.1 639.8 772.1 640.2 774.2 640.2 776.4 640 778.9 640 782 640.3 784.6 644.7 790.1 645.1 791.2 644.9 793.4 643.3 795.7 639.9 797.7 634.3 804.3 634 812.1 633.2 814.7 630.7 816.8 626.7 817.4 624.3 817.6 620.7 818.1 616.9 817.7 614.5 816.2 611.5 815.2 607.5 814.4 605.8 814.4 602.5 815.1 598.8 816.1 593 818.5 585.4 819.9 568.9 820.6 565.8 783.7 592.4 782.8 589.5 732.7 575.3 732.5 574.1 707.3 587.8 706.6 586.8 681.8 600.6 681.3 600.1 655.5 639.3 653.5 640.8 658.2 642.2 660.7 641.6 667.7 642.5 667.9 643.4 668.2 644.3 668.5 645.1 668.9 645.9 669.3 646.6 669.9 647.2 670.4 647.8 671 648.3 671.7 648.7 672.4 649 673.1 649.2 673.8 649.4 674.6 649.4 675.3 649.4 676.1 649.2 676.9 649 677.6 648.6 678.3 648.2 679 647.7 679.6 647.1 680.2 646.5 680.8 645.8 681.3 645 681.8 644.2 682.1 643.3 682.5 642.4 682.7 640.2 684 638.2 686.3 627.5 716.7 629.6 723.2 Z" data-holc_grade="B"/>
<path d="M 883.4 888.4 875.2 894 866.1 901.4 865 901.8 863.8 902 862.6 902.2 861.4 902.4 860.2 902.4 859 902.4 857.8 902.4 856.6 902.2 855.5 902 854.3 901.8 853.2 901.5 852.1 901.1 851 900.6 850 900.1 845.2 897.6 836.1 890 809.4 903.5 808.5 902.5 807.5 901.5 806.5 900.6 805.4 899.8 804.2 899 803 898.3 801.7 897.6 800.4 897 799 896.4 797.6 896 796.2 895.6 794.7 895.2 793.2 895 791.7 894.8 790.2 894.7 788.6 894.6 787.1 894.7 785.6 894.8 784 895 782.5 895.2 781.1 895.5 779.6 895.9 778.2 896.4 776.8 897 775.5 897.6 774.2 898.2 773 899 771.8 899.8 770.7 900.6 761.5 894.7 759 894.8 754 898.1 746.7 894.8 735 900.3 733.3 900.2 731.2 898.8 722 887.4 731.9 883.1 734.8 881.4 739.4 876.1 749.1 860.3 760.6 851.6 763.3 850.7 765 849 765.5 847 766.4 845.5 765.7 843.8 760.4 839.4 728.9 817.4 732.9 813.7 743.2 814.9 749.4 816 755.3 817.9 759.9 820.6 766.1 824.1 801 825 804.2 827 824.2 853.7 825.8 854.9 827.4 856 829.2 857.1 830.9 858.1 832.7 859.1 834.6 860 836.5 860.8 838.5 861.6 840.5 862.3 842.5 863 844.5 863.6 846.6 864.1 848.7 864.6 850.8 865 853 865.4 855.1 865.6 857.3 865.8 858.9 866.5 860.4 867.2 861.8 867.9 863.1 868.6 864.2 869.2 865.2 869.9 866.1 870.6 867 871.3 867.6 871.9 868.2 872.6 868.8 873.2 869.2 873.9 869.6 874.6 870 875.3 870.3 876 871.1 878 871.4 878.6 871.7 879.2 872.1 879.8 872.5 880.4 872.9 881 873.4 881.6 874.1 882.3 874.9 883 875.7 883.7 876.6 884.3 877.7 885 878.8 885.7 880 886.4 881.3 887.1 883.4 888.4 Z" data-holc_grade="B"/>
<path d="M 770.2 987.6 770.3 996.1 770.8 1040.2 762.1 1040.2 762.9 1042.1 763.5 1044 764.1 1045.9 764.5 1047.9 764.9 1049.8 765.2 1051.8 765.4 1053.8 765.5 1055.7 765.5 1057.7 765.4 1059.7 765.2 1061.7 764.9 1063.6 764.7 1064.3 735.5 1063.6 734 1064.5 735.1 1116.3 674.9 1102.9 673.5 1102 671.1 1066.2 669.9 1066.2 672.6 1036.3 688.6 1033.7 703 1031.5 718.3 1029.3 731.6 1027.5 736.3 1026.3 737.2 1025.4 737.4 1024 737.6 1022.6 737.7 1021.2 737.7 1019.8 737.7 1018.4 737.5 1017 737.3 1015.6 737 1014.2 736.6 1012.8 736.2 1011.4 735.7 1010 735.1 1008.6 734.4 1007.3 733.7 1005.9 732.8 1004.6 731.4 1003.1 730 1001.6 729.1 1000.7 726.4 995.8 726.3 995 726.7 993.3 733 989.8 734 988.7 733.8 985.6 732.1 983.1 731.6 981.3 731.7 980.4 733.9 979.7 736.1 980 742.5 981.4 750.3 985.9 756.4 989.4 760.7 990.2 765.1 989.5 768.2 988.5 770.2 987.6 Z" data-holc_grade="B"/>
<path d="M 797.7 613 791.3 613.1 785.7 614.4 783.7 606.7 781.1 597.1 779.1 597 739.8 628.3 741.9 604.5 741.3 587.4 742 578.5 752.3 575.7 761.3 574.1 779.8 572.5 781.9 583.6 791.4 582.9 797.7 613 Z" data-holc_grade="B"/>
<path d="M 282.9 331.4 256.4 332.2 255.1 332.8 239.6 333.9 239.8 338.2 238.4 339.2 233.4 339.5 234.2 346.7 283.7 344.8 284.8 355.8 285.6 363.8 271.9 364 269.8 364.1 244.5 365 199 367.7 197.5 341.4 228.1 339.8 227.1 316.2 233.9 315.6 237.9 316.2 240.3 314.6 281.5 312.8 282.9 331.4 Z" data-holc_grade="B"/>
<path d="M 864.6 619.7 863.1 625.7 863.5 626.9 863 626.7 862.4 627.5 861.9 628.4 861.4 629.2 860.9 630.1 860.4 631 860 631.9 859.7 632.8 859.4 633.8 859.1 634.8 858.2 637.1 857.5 638.5 856.7 639.7 855.8 641.1 854.9 642.3 840.5 648.1 839.9 648.7 839.3 649.4 838.9 650.1 838.5 650.9 838.2 651.6 838 652.4 837.9 653.2 837.9 654 837.9 654.8 838.1 655.6 838.4 656.4 838.7 657.2 839.2 657.9 850.9 677.9 788.8 681.9 787.5 647.8 786.7 623.4 785.7 614.4 791.3 613.1 797.7 613 804.1 612.9 808.1 632.3 811.7 632.5 815.3 632.5 818.9 632.5 822.5 632.4 826.1 632.3 829.6 632 833.2 631.7 836.8 631.3 840.3 630.9 841.8 629.8 843.2 628.6 844.6 627.3 845.9 626.1 847.2 624.8 848.4 623.4 849.5 622 850.5 620.6 864.6 619.7 Z" data-holc_grade="B"/>
<path d="M 980.4 1035.6 1002.2 1055.6 1005.5 1059.4 995.9 1067.8 979.9 1099.9 978.3 1104 954.1 1093.4 933.6 1083.8 929.7 1085.1 879.9 1085.4 882.7 1082.6 885.6 1079.8 888.6 1077.1 891.7 1074.4 894.8 1071.8 898 1069.2 901.3 1066.7 904.6 1064.2 908 1061.8 911.4 1059.5 915 1057.2 918.5 1055 922.2 1052.8 925.9 1050.7 929.6 1048.6 933.4 1046.7 937.3 1044.8 941.2 1042.9 945.2 1041.1 949.2 1039.4 953.2 1037.8 957.3 1036.2 961.5 1034.7 970.6 1042.3 980.4 1035.6 Z" data-holc_grade="B"/>
<path d="M 890.9 1163.3 891.8 1161.7 892.6 1162 912.8 1170.4 915.3 1173 915.9 1175 917.4 1181.4 918.5 1183.3 917.2 1184.1 911.9 1185.8 876.3 1213.2 869.1 1206.7 866.5 1204.6 883.9 1174.5 890.9 1163.3 Z" data-holc_grade="B"/>
<path d="M 979.4 1244.8 999 1255.1 1017.7 1264.2 1038.2 1269.3 1062.1 1275.3 1057.5 1281.3 1069.4 1301.8 1068 1304.5 1062.9 1310.4 1055.3 1317.3 1048.2 1322.6 1042.3 1326 1034.9 1329.2 1028.2 1331.3 1027.6 1331 1024.7 1324.5 1022.5 1321.8 1019.9 1321.8 1013.5 1324.9 990.1 1325.1 978.9 1324.3 976.9 1323.6 975.1 1323 973.3 1322.3 972.5 1321.9 971.7 1321.5 971 1321.2 970.3 1320.8 969.7 1320.4 969.1 1320 968.5 1319.6 967.9 1319.3 967.5 1318.9 967 1318.5 966.6 1318.1 966.2 1317.7 965.9 1317.3 965.6 1316.9 965.4 1316.5 965.2 1316.1 965 1315.7 964.9 1315.3 964.8 1314.8 964.8 1314.4 964.8 1314 964.9 1313.6 965 1313.2 965.1 1312.8 965.3 1312.3 965.5 1311.9 968.1 1309.2 971.6 1306.9 964.5 1286.1 955.9 1270.5 945.4 1247.3 944.8 1245.5 948.3 1241.9 950 1241.8 951.2 1242.4 953.1 1244 955.1 1244 972.8 1252.3 973.6 1252.1 979.4 1244.8 Z" data-holc_grade="B"/>
<path d="M 978.8 511.7 997.3 511 998.6 534.7 982.8 535.5 976 536.8 977.4 544.4 974.5 546.4 963.5 545.7 960 547 949.1 553.1 936 561.7 934.1 561.9 932.3 562.2 930.6 562.4 928.9 562.7 927.4 563 925.8 563.4 924.4 563.7 923 564.1 921.8 564.5 920.5 565 919.4 565.4 918.3 565.9 917.3 566.4 916.4 567 915.5 567.5 914.8 568.1 914 568.8 913.4 569.4 912.8 570.1 912.4 570.8 911.9 571.5 911.6 572.2 911.3 573 911.1 573.8 911 574.6 910.9 575.4 911 576.3 911.1 577.2 911.2 578.1 911.5 579.1 911.8 580.1 912.1 581.1 912.3 581.9 912.3 582.7 912.3 583.5 912.1 584.3 911.9 585 911.6 585.8 911.2 586.5 910.7 587.2 910.1 587.9 909.5 588.5 908.8 589.1 908 589.6 907.2 590.1 905.6 590.4 903.9 590.8 902.3 591.3 900.7 591.8 899.2 592.4 897.6 593.1 896.2 593.8 894.8 594.6 893.5 595.5 892.2 596.4 891 597.4 889.8 598.4 888.7 599.5 887.7 600.6 886.8 601.7 886 602.9 885.2 604.1 884.5 605.4 883.9 606.7 883.8 609 880.1 615.4 880.4 618.4 882.5 622.6 882.7 625.9 880.8 626.9 869.3 627.6 866.1 627.7 863.5 626.9 863.1 625.7 864.6 619.7 864.3 615.5 863 611 861.3 607.9 860 605 859.5 601.6 858.9 598.4 861.2 596.2 862.1 593.9 865.5 587.4 867.6 583.9 870.9 580.7 872.2 576.4 871.6 572.5 869 558.2 889 544.3 887.4 532.3 887.2 530.8 900.7 504.8 899.6 498.5 909.8 496.2 913.5 500 918 502.6 919.1 504.2 919.2 505.8 918.6 506.8 917.4 507.7 914.8 509.2 913.3 510.4 911.6 511.3 910.8 512 909.2 512.7 907.8 513.5 901.2 529.7 900.7 531.4 900.9 534.6 901.3 537.3 901.9 539.1 902.6 540.9 903.4 542 904.8 543.2 906.4 544.1 907.5 544.6 909.2 545.7 909.6 547 909.6 548 911.9 550.5 913.3 551.6 914.2 552.4 921.8 552.4 938.4 540.6 946.1 528.4 961.9 521 964.8 519.6 971.7 511.5 978.8 511.7 Z" data-holc_grade="B"/>
<path d="M 1169.6 1018.5 1152 1018.8 1147.9 1017.8 1135.9 1017.2 1123.9 1017.2 1168.5 971 1177.1 971.6 1191 972.5 1208.6 972.6 1201.8 979.5 1202 983.7 1204.5 988.4 1208.9 994.2 1209.8 999.2 1213 1011.6 1206.6 1012.6 1203.4 1014.1 1199.1 1015.9 1187.1 1017.6 1169.6 1018.5 Z" data-holc_grade="B"/>
<path d="M 469.4 277.9 483.9 277.5 484.8 279.2 487.7 328.9 488.8 346.8 459.9 347.7 459.1 336 458.2 322.7 457 305 349.4 309.8 304.6 311.3 303.4 287.9 303.8 286.2 317.2 285.5 317.6 280.6 318.3 279.2 346.8 277.3 347.7 283.1 349.5 283.8 391.9 281.5 455.1 278.9 469.4 277.9 Z" data-holc_grade="B"/>
<path d="M 495.6 457 464.1 458.5 399.4 461.5 326.9 464.6 278.9 466.5 276.4 419.6 276 412.7 272.7 376.4 271.9 364 285.6 363.8 287.6 367.5 313.1 366.4 314.4 370.9 471.4 362.9 489.8 362 491.8 382.4 493.3 410.2 495.6 457 Z" data-holc_grade="B"/>
<path d="M 521.7 276.3 523 298.8 526.2 343.5 526.4 345.9 527.6 362.4 530.2 397 532.1 429.3 538.6 429.5 539.6 455 495.6 457 493.3 410.2 491.8 382.4 489.8 362 488.8 346.8 487.7 328.9 484.8 279.2 483.9 277.5 469.4 277.9 468.9 269.6 482.2 270.7 503.9 265.1 507.5 262.4 520.8 261.5 521.7 276.3 Z" data-holc_grade="B"/>
<path d="M 627.2 271.7 605.9 272.7 536.1 275.6 521.7 276.3 520.8 261.5 547.2 259.6 557 258.3 590.6 251.1 625.7 244.4 627.2 271.7 Z" data-holc_grade="B"/>
<path d="M 539.6 455 538.6 429.5 568.1 428.7 598.7 427 627.2 426.4 650.6 425.1 678.4 423.8 684.1 423.7 684.4 441.8 636.3 448.2 601.5 452.8 567 454.1 539.6 455 Z" data-holc_grade="B"/>
<path d="M 786.7 259.5 785.6 256.3 723.1 264.1 724.1 269.2 690 272.7 689.7 268.9 653.8 270.4 653.9 264.8 682.2 264.7 682 255.9 689 255 757.2 245.9 835.1 236 852.6 233.5 855.8 250.6 787.4 259.4 786.7 259.5 Z" data-holc_grade="B"/>
<path d="M 284.8 355.8 283.7 344.8 284.7 343.8 375.2 339.7 459.1 336 459.9 347.7 436.3 348.9 384.6 351 284.8 355.8 Z M 282.9 331.4 281.5 312.8 304.6 311.3 349.4 309.8 457 305 458.2 322.7 421.4 324.6 282.9 331.4 Z" data-holc_grade="C"/>
<path d="M 1201.5 107.6 1167.2 111.7 1159.4 72.9 1152.1 35.9 1185.3 32 1199.2 30.4 1204.9 29.8 1217 28.2 1237.5 25.7 1241.7 25 1249.3 60.5 1260.5 111.3 1216.9 117.8 1214.8 117 1212.7 106.2 1201.5 107.6 Z M 1220.3 47.1 1218.5 36.8 1201.1 38.7 1203.1 49.7 1220.3 47.1 Z" data-holc_grade="C"/>
<path d="M 1378.4 19.4 1400 17.2 1402.6 28.6 1423.1 26.5 1425.8 38.6 1437.5 37.5 1449.8 99 1449 100.5 1420.3 104.6 1418.6 103.2 1409.7 60.3 1404.4 55.1 1386.1 57.2 1380.3 27.9 1378.4 19.4 Z" data-holc_grade="C"/>
<path d="M 961.3 446 955.8 420.8 780.6 444.2 779.9 444.3 777.2 444.7 758.9 447.1 755.9 446.6 753 433.6 756.6 433.1 761.4 432.2 767.4 431.2 779.3 429.8 777.5 420.6 823.2 418.5 822.6 415.2 823.7 414 857.2 409 851.4 382.5 931.5 371.9 932.6 370.7 922.8 321.6 924.1 321.5 948.8 318.1 950 319.6 966.8 405.6 974.8 444.4 961.3 446 Z" data-holc_grade="C"/>
<path d="M 887.4 532.3 776.3 547.6 770.3 515.3 894.7 498.9 899.6 498.5 900.7 504.8 887.2 530.8 887.4 532.3 Z M 997.3 511 978.8 511.7 962 495.7 959.8 491.9 949.9 484.5 968.8 482.3 999.8 478.3 1013.8 476.5 1019.9 501.8 1019.8 506.6 1001.2 510.9 997.3 511 Z" data-holc_grade="C"/>
<path d="M 1048.7 382.7 1056 417.6 1059.3 433.1 992.8 441.8 991.2 435.1 989.8 427.7 985.7 406.1 982.9 391.1 1048.7 382.7 Z M 1001.3 404.2 1005.2 425.8 1044.5 420.7 1045.1 420.4 1040.6 399.2 1001.3 404.2 Z" data-holc_grade="C"/>
<path d="M 159.3 623.8 160.4 648.3 103.8 650.7 104.9 676.5 90.3 677.3 91.5 702.4 62.1 703.3 65.7 754.6 51.9 755.3 61.5 906 47.5 906.4 41.7 827.6 29.7 636.2 73.3 634 72.5 620.6 29.5 621.7 28.1 621.2 26.5 578.7 127.9 573.5 128.3 598.2 155.4 598.3 156.8 599.1 159.3 623.8 Z" data-holc_grade="C"/>
<path d="M 507.7 609.1 434.6 611.8 433.6 592.3 499 590.4 587.4 586.5 588 605.5 507.7 609.1 Z M 431.6 578.9 429.9 561.1 585.5 554.6 586.3 573.1 584.8 574.2 431.6 578.9 Z M 779.8 572.5 761.3 574.1 752.3 575.7 742 578.5 671.8 597.5 653.3 602.5 603.5 604.7 602 586.1 635 584.7 634.6 571.9 603.7 572.7 602.1 571.8 601.4 554 704.9 549.4 719.9 555.3 776.3 547.6 775.5 549.1 779.8 572.5 Z" data-holc_grade="C"/>
<path d="M 639.3 653.5 600.1 655.5 600.6 681.3 586.8 681.8 587.8 706.6 574.1 707.3 558.8 697 556.8 697.1 543.4 692.1 541.1 652.5 538.8 632.3 509.8 633.6 507.7 609.1 588 605.5 603.5 604.7 653.3 602.5 671.8 597.5 674.3 628 670.8 632 669.2 635.3 665.9 637 662.6 638.2 658.1 638.3 655.4 637.9 653 637.4 650.2 637.2 647.3 637.8 644 639.2 641.9 640.2 639.1 641.9 638.1 644.1 638.8 649.3 639.3 653.5 Z" data-holc_grade="C"/>
<path d="M 759.6 1129.7 761.1 1197.3 759.7 1198.9 644.8 1200.3 643.1 1201.5 645.1 1300.3 646.2 1314.4 635.6 1314.5 652 1326.3 668.8 1337.9 606.8 1338.6 530.4 1338.6 528.6 1309.4 527.3 1275.8 508.3 1219.3 510.9 1151.4 529.4 1152.5 533.7 1153.7 569.1 1154.4 616.2 1151.6 648.8 1152.1 649.8 1151.1 648.5 1111.4 677.9 1118.9 705.5 1124.1 733.9 1130.8 735.1 1130.6 735.3 1124.5 759.6 1129.7 Z" data-holc_grade="C"/>
<path d="M 864.6 619.7 850.5 620.6 849.5 622 848.4 623.4 847.2 624.8 845.9 626.1 844.6 627.3 843.2 628.6 841.8 629.8 840.3 630.9 836.8 631.3 833.2 631.7 829.6 632 826.1 632.3 822.5 632.4 818.9 632.5 815.3 632.5 811.7 632.5 808.1 632.3 804.1 612.9 797.7 613 791.4 582.9 781.9 583.6 779.8 572.5 775.5 549.1 776.3 547.6 887.4 532.3 889 544.3 869 558.2 871.6 572.5 872.2 576.4 870.9 580.7 867.6 583.9 865.5 587.4 862.1 593.9 861.2 596.2 858.9 598.4 859.5 601.6 860 605 861.3 607.9 863 611 864.3 615.5 864.6 619.7 Z" data-holc_grade="C"/>
<path d="M 690 272.7 690.8 285.3 690.8 285.7 694.6 336 694.7 337.1 628.1 340.7 526.4 345.9 526.2 343.5 523 298.8 521.7 276.3 536.1 275.6 605.9 272.7 627.2 271.7 645.4 270.7 653.8 270.4 689.7 268.9 690 272.7 Z" data-holc_grade="C"/>
<path d="M 921.2 736.3 920.4 741 918.9 744 916.6 745.7 915.6 746 914.7 746.2 913.8 746.6 913 746.9 912.3 747.3 911.6 747.7 910.9 748.1 910.3 748.6 909.8 749 909.4 749.5 908.9 750 908.5 750.5 908.2 751 907.9 751.6 907.6 752.2 907.4 752.8 907.2 753.4 907 754.1 906.9 754.9 906.8 755.6 906.7 756.4 906.7 757.3 906.7 758.2 906.7 759.1 906.8 760.7 907 762.5 907.3 764.3 908 768.9 908.2 770.2 908.4 771.3 882.4 774.6 880.7 771.6 879.8 771 879 770.4 878.2 769.7 877.5 768.9 876.9 768.2 876.4 767.4 876 766.5 875.7 765.6 875.4 764.7 875.3 763.8 875.2 762.9 875.3 762 875.4 761.1 875.6 760.2 876 759.3 876.4 758.5 878.6 757.1 880.4 756.3 882.2 755.5 883.9 754.7 885.6 753.8 887.2 752.8 888.8 751.8 890.4 750.7 891.4 749.4 892 748.4 892.5 747.5 892.9 746.5 893.3 745.4 893.5 744.4 893.6 743.3 893.7 742.3 889.3 734 889.3 732.8 889.4 731.6 889.5 730.4 889.7 729.3 890 728.1 890.4 726.9 890.8 725.8 891.4 724.7 892 723.6 894.7 720.8 895.9 716 897.8 711.6 899 707.4 898.2 704.2 895 698.9 894.9 691.2 895.4 687.3 894.7 685.6 882.3 679.1 879 679.2 875.3 680.9 871.5 681 866.5 679.1 861.1 678 850.9 677.9 839.2 657.9 838.7 657.2 838.4 656.4 838.1 655.6 837.9 654.8 837.9 654 837.9 653.2 838 652.4 838.2 651.6 838.5 650.9 838.9 650.1 839.3 649.4 839.9 648.7 840.5 648.1 854.9 642.3 855.8 641.1 856.7 639.7 857.5 638.5 858.2 637.1 859.1 634.8 859.4 633.8 859.7 632.8 860 631.9 860.4 631 860.9 630.1 861.4 629.2 861.9 628.4 862.4 627.5 863 626.7 863.5 626.9 866.1 627.7 869.3 627.6 880.8 626.9 882.7 625.9 882.5 622.6 880.4 618.4 880.1 615.4 883.8 609 883.9 606.7 884.6 606.9 911.6 605.5 911.8 610.5 909.6 612.3 898 617.3 909.3 639.3 916.8 649.3 961.3 646.8 961.7 651.8 965.2 694.8 960 697.1 949.1 700 941.4 708.3 940.7 711 938.4 714.4 926.6 724.3 922.1 731.9 921.2 736.3 Z" data-holc_grade="C"/>
<path d="M 959.3 959.4 955.5 976.1 946.3 975.7 943.3 974.3 941 973.9 938.3 974.6 936.2 976.3 935.4 978 935.6 980.1 922.1 979.7 925.3 1019 927.4 1019.3 995.4 1018.1 995.5 1019.4 961.5 1034.7 957.3 1036.2 953.2 1037.8 949.2 1039.4 945.2 1041.1 941.2 1042.9 937.3 1044.8 933.4 1046.7 929.6 1048.6 925.9 1050.7 922.2 1052.8 918.5 1055 915 1057.2 911.4 1059.5 908 1061.8 904.6 1064.2 901.3 1066.7 898 1069.2 894.8 1071.8 891.7 1074.4 888.6 1077.1 885.6 1079.8 882.7 1082.6 879.9 1085.4 844.7 1085.6 843.3 1084.7 842.3 1065.4 839.3 1063.7 764.7 1064.3 764.9 1063.6 765.2 1061.7 765.4 1059.7 765.5 1057.7 765.5 1055.7 765.4 1053.8 765.2 1051.8 764.9 1049.8 764.5 1047.9 764.1 1045.9 763.5 1044 762.9 1042.1 762.1 1040.2 770.8 1040.2 770.3 996.1 770.2 987.6 770 971.2 769.6 937.7 770.7 900.6 771.8 899.8 773 899 774.2 898.2 775.5 897.6 776.8 897 778.2 896.4 779.6 895.9 781.1 895.5 782.5 895.2 784 895 785.6 894.8 787.1 894.7 788.6 894.6 790.2 894.7 791.7 894.8 793.2 895 794.7 895.2 796.2 895.6 797.6 896 799 896.4 800.4 897 801.7 897.6 803 898.3 804.2 899 805.4 899.8 806.5 900.6 807.5 901.5 808.5 902.5 809.4 903.5 836.1 890 845.2 897.6 850 900.1 851 900.6 852.1 901.1 853.2 901.5 854.3 901.8 855.5 902 856.6 902.2 857.8 902.4 859 902.4 860.2 902.4 861.4 902.4 862.6 902.2 863.8 902 865 901.8 866.1 901.4 875.2 894 883.4 888.4 885.6 889.9 890.3 894.9 898.2 898.7 909.7 903.3 914.6 905.9 918 911.2 916.8 928.2 919.7 934.2 925 936 931 937.3 937.6 937.4 940.3 937.6 942.4 938.6 942.7 940.6 943 943.5 953.9 954.9 954.7 956.6 959.3 959.4 Z" data-holc_grade="C"/>
<path d="M 1103.8 1009.6 1071.3 1043.6 1061.5 1052.5 1055.1 1049.2 1028.1 1067.6 1010.9 1099.5 1002.8 1112.8 1006.4 1115 1001.1 1122.6 967.8 1166.1 943 1199.3 917.9 1233.1 906.4 1244.7 883.5 1266.6 869 1281.4 848 1292.6 841.5 1296.6 771.8 1320.5 738.2 1295.8 739.7 1294.8 740.9 1294.9 758.3 1286.4 774.2 1275.6 790.6 1261.2 827.9 1230 832.3 1224.1 838.8 1208.6 840.8 1198.4 842.1 1188.3 844.6 1175.4 850.3 1176.9 870.1 1154.4 871.4 1152.9 894.3 1126.8 929.7 1085.1 933.6 1083.8 954.1 1093.4 978.3 1104 979.9 1099.9 995.9 1067.8 1005.5 1059.4 1002.2 1055.6 980.4 1035.6 983 1033.7 994.7 1028.5 1008.4 1021.4 1017.1 1015.4 1023.5 1008.6 1062.5 996 1066.2 1016.8 1067 1017.3 1082.7 1014.3 1103.8 1009.6 Z M 890.9 1163.3 883.9 1174.5 866.5 1204.6 869.1 1206.7 876.3 1213.2 911.9 1185.8 917.2 1184.1 918.5 1183.3 917.4 1181.4 915.9 1175 915.3 1173 912.8 1170.4 892.6 1162 891.8 1161.7 890.9 1163.3 Z" data-holc_grade="C"/>
<path d="M 979.4 1244.8 973.6 1252.1 972.8 1252.3 955.1 1244 953.1 1244 951.2 1242.4 950 1241.8 948.3 1241.9 944.8 1245.5 945.4 1247.3 955.9 1270.5 964.5 1286.1 971.6 1306.9 968.1 1309.2 965.5 1311.9 965.3 1312.3 965.1 1312.8 965 1313.2 964.9 1313.6 964.8 1314 964.8 1314.4 964.8 1314.8 964.9 1315.3 965 1315.7 965.2 1316.1 965.4 1316.5 965.6 1316.9 965.9 1317.3 966.2 1317.7 966.6 1318.1 967 1318.5 967.5 1318.9 967.9 1319.3 968.5 1319.6 969.1 1320 969.7 1320.4 970.3 1320.8 971 1321.2 971.7 1321.5 972.5 1321.9 973.3 1322.3 975.1 1323 976.9 1323.6 978.9 1324.3 990.1 1325.1 1013.5 1324.9 1019.9 1321.8 1022.5 1321.8 1024.7 1324.5 1027.6 1331 1028.2 1331.3 1034.9 1329.2 1042.3 1326 1048.2 1322.6 1055.3 1317.3 1062.9 1310.4 1068 1304.5 1069.4 1301.8 1057.5 1281.3 1062.1 1275.3 1064.7 1275.6 1118.9 1289.7 1115.6 1295.1 1108.7 1313.3 1104.4 1328.2 1099.6 1337.3 1076 1337.9 977.4 1338.6 943.1 1338 772 1337.4 868.8 1304.6 881.6 1291.7 902.1 1272.5 917.1 1259.8 938.7 1240.3 945.9 1230.2 979.4 1244.8 Z" data-holc_grade="C"/>
<path d="M 1117.8 505.1 1029.6 574.8 1011.2 586.4 993.9 601 990.7 601.2 911.6 605.5 884.6 606.9 883.9 606.7 884.5 605.4 885.2 604.1 886 602.9 886.8 601.7 887.7 600.6 888.7 599.5 889.8 598.4 891 597.4 892.2 596.4 893.5 595.5 894.8 594.6 896.2 593.8 897.6 593.1 899.2 592.4 900.7 591.8 902.3 591.3 903.9 590.8 905.6 590.4 907.2 590.1 908 589.6 908.8 589.1 909.5 588.5 910.1 587.9 910.7 587.2 911.2 586.5 911.6 585.8 911.9 585 912.1 584.3 912.3 583.5 912.3 582.7 912.3 581.9 912.1 581.1 911.8 580.1 911.5 579.1 911.2 578.1 911.1 577.2 911 576.3 910.9 575.4 911 574.6 911.1 573.8 911.3 573 911.6 572.2 911.9 571.5 912.4 570.8 912.8 570.1 913.4 569.4 914 568.8 914.8 568.1 915.5 567.5 916.4 567 917.3 566.4 918.3 565.9 919.4 565.4 920.5 565 921.8 564.5 923 564.1 924.4 563.7 925.8 563.4 927.4 563 928.9 562.7 930.6 562.4 932.3 562.2 934.1 561.9 936 561.7 949.1 553.1 960 547 963.5 545.7 974.5 546.4 977.4 544.4 976 536.8 982.8 535.5 998.6 534.7 997.3 511 1001.2 510.9 1019.8 506.6 1019.9 501.8 1044.3 501 1050.1 500.2 1061.7 499.5 1062.7 506.7 1065.2 507.3 1092.4 505.6 1112.6 504.4 1117.8 505.1 Z" data-holc_grade="C"/>
<path d="M 990.7 601.2 993.1 628.4 1110.1 621.8 1114 657.8 1144.3 656.1 1141.5 613.8 1156.4 613.3 1158.3 633.9 1173.6 633.6 1176.6 676.5 1176 677.3 1168.1 677.6 1173.3 720.5 1167.6 720.9 1170.5 742.4 1120.6 745.6 1116.4 703.5 1083 705.4 1080.5 705.6 1023.8 708.9 967.4 712.3 969.1 733.8 921.2 736.3 922.1 731.9 926.6 724.3 938.4 714.4 940.7 711 941.4 708.3 949.1 700 960 697.1 965.2 694.8 961.7 651.8 961.3 646.8 916.8 649.3 909.3 639.3 898 617.3 909.6 612.3 911.8 610.5 911.6 605.5 990.7 601.2 Z M 1101.3 547.1 1104.8 574.7 1106 584.7 1107.5 596.7 1108.5 604.9 1108.6 610.2 1019.5 615.7 1020.7 613.6 1066.1 576.4 1101.3 547.1 Z" data-holc_grade="C"/>
<path d="M 1170.5 742.4 1175 776.2 1176.3 785.6 1175.3 787.2 1167.8 787.9 1173 856 1173.7 875 1131.3 877.1 1134.5 907.8 1128.2 908.6 1120.4 909.2 1105 909.9 1102.2 910.5 1075.9 895.9 1061.4 882.2 1048.9 881.5 1012.8 883.2 1008.8 840.5 1038.3 839.1 1039.6 839 1035.4 795.7 1012 797.1 977.8 798.5 976.9 797.1 973.5 778.6 972.9 777.4 907.7 780.9 907 779.6 907.2 779.3 907.4 778.9 907.6 778.5 907.8 778.1 908 777.7 908.1 777.2 908.2 776.7 908.3 776.3 908.5 775.2 908.5 774 908.5 772.7 908.4 771.3 908.2 770.2 908 768.9 907.3 764.3 907 762.5 906.8 760.7 906.7 759.1 906.7 758.2 906.7 757.3 906.7 756.4 906.8 755.6 906.9 754.9 907 754.1 907.2 753.4 907.4 752.8 907.6 752.2 907.9 751.6 908.2 751 908.5 750.5 908.9 750 909.4 749.5 909.8 749 910.3 748.6 910.9 748.1 911.6 747.7 912.3 747.3 913 746.9 913.8 746.6 914.7 746.2 915.6 746 916.6 745.7 918.9 744 920.4 741 921.2 736.3 969.1 733.8 967.4 712.3 1023.8 708.9 1080.5 705.6 1083 705.4 1116.4 703.5 1120.6 745.6 1170.5 742.4 Z M 1034.1 746.2 1035.2 756.9 1089 753.3 1087.7 742.3 1086.1 742.4 1034.1 746.2 Z" data-holc_grade="C"/>
<path d="M 1413 1008.7 1373.3 1020.4 1352.8 1026.1 1346.3 1028.7 1293.5 1050.1 1290.7 1049.6 1289.7 1048.3 1285.6 1022.8 1286.1 1021.2 1295.3 1018.6 1299.7 1016.7 1311.6 1013.3 1312.5 1009.7 1341.6 1000.5 1344.8 1002.6 1371.4 989 1385.8 982 1396.2 978.7 1413 1008.7 Z" data-holc_grade="C"/>
<path d="M 1455.7 1106.9 1453.7 1108.3 1428.8 1115 1402.3 1122.1 1375.4 1128.9 1347 1063.7 1294.1 1077.6 1283.5 1055.3 1285.5 1053 1285.2 1052.1 1290.7 1049.6 1293.5 1050.1 1346.3 1028.7 1352.8 1026.1 1373.3 1020.4 1413 1008.7 1413.4 1009.5 1417.5 1017.6 1439.4 1069.7 1455.7 1106.9 Z" data-holc_grade="C"/>
<path d="M 1517 1278.3 1517.9 1278.4 1518.8 1278.5 1519.7 1278.4 1520.6 1278.4 1521.5 1278.2 1522.4 1278 1523.2 1277.7 1524 1277.3 1524.8 1276.9 1525.5 1276.5 1526.1 1276 1526.7 1275.4 1527.2 1274.8 1527.6 1274.1 1527.9 1273.5 1528.2 1272.8 1528.4 1272.1 1549.4 1277.1 1543.2 1296.7 1534.9 1312.8 1514 1309.3 1510.2 1320.2 1490.5 1315.3 1469.9 1310.2 1475.4 1282.2 1477.5 1282.6 1483.7 1270.1 1489.1 1267.1 1491.6 1267.5 1510.5 1276.1 1517 1278.3 Z" data-holc_grade="C"/>
<path d="M 694.6 336 690.8 285.7 690.8 285.3 726.7 280.4 737.2 279.5 738.8 303.2 741.3 334 694.6 336 Z" data-holc_grade="C"/>
<path d="M 1741.7 1060.2 1719.8 1083.5 1694.5 1069.3 1671 1095 1592.7 1048.9 1619.8 976 1649 992.6 1674.1 1006.7 1667 1015.8 1742.2 1059 1741.7 1060.2 Z" data-holc_grade="C"/>
<path d="M 741.3 334 738.8 303.2 737.2 279.5 747.9 277.8 747.7 271.1 787 266.5 787.3 261.3 786.7 259.5 787.4 259.4 855.8 250.6 859 264.4 859.6 267.1 820 271.9 800.8 273.9 757.6 279.1 759.1 312.5 768.1 312.6 834.4 312.4 836.5 322.5 806.4 326.5 754 333.7 741.3 334 Z" data-holc_grade="C"/>
<path d="M 696.9 374 698.1 392.5 699.5 393.6 714.8 391.4 716.5 391.4 717.2 392.9 718.5 398.2 719.3 398.9 720.4 398.8 747.4 395.6 754.4 422.5 755.7 423 777.4 420.1 777.5 420.6 779.3 429.8 767.4 431.2 761.4 432.2 756.6 433.1 753 433.6 747.2 434.3 716.6 437.5 684.4 441.8 684.1 423.7 678.4 423.8 650.6 425.1 627.2 426.4 598.7 427 568.1 428.7 538.6 429.5 532.1 429.3 530.2 397 527.6 362.4 600.6 359.3 695.6 354.3 696.9 374 Z" data-holc_grade="C"/>
<path d="M 1026.7 208.3 1033.8 241.5 1025.1 242.7 1021.7 243.2 995.1 246.5 991.3 246.6 953.8 252.1 936.1 254.4 915.3 257.1 874.7 262.5 859 264.4 855.8 250.6 852.6 233.5 849.8 218.1 850.6 216.5 868.3 214.4 933.4 205.9 959.9 202.3 983.3 199.1 998.6 197.4 1002.4 197 1003.4 198.8 1004.8 199 1005.9 199.4 1024.3 196.8 1026.7 208.3 Z M 1003.9 219.4 999.9 200.3 999.4 199.7 960.5 204.4 964.5 223.6 965.2 223.7 1003.9 219.4 Z" data-holc_grade="C"/>
<path d="M 1062.7 47.8 1063.3 50.1 1062.5 50.2 1000.1 58.2 1003.5 75.6 967.6 79.9 927.8 84.6 914.6 86.4 916.3 97 1006.2 85.7 1027.5 83.2 1026.6 77.3 1067.8 71.7 1070.7 84.4 1004.5 93.7 1011.4 131.6 967.9 137.5 964.9 124.6 913.3 131 875.8 136 873.3 125.4 871.3 123.9 854.6 125.9 853.9 125.2 852.3 112.6 869.4 110.4 867.1 98 879.5 96.3 877.7 89 877.6 86 875 73.4 872.4 59.8 869 39 923.4 31.7 933.3 76.6 934.7 76.5 936.1 76.2 937.5 76 938.9 75.6 940.2 75.2 941.5 74.8 944.2 74.1 947 73.3 949.6 72.4 952.3 71.5 954.8 70.5 957.4 69.4 959.9 68.3 962.4 67.2 964.8 65.9 967.2 64.6 969.5 63.2 971.7 61.8 973.9 60.4 976 58.8 978.1 57.2 980.1 55.6 982.1 53.9 983.9 52.2 985.7 50.4 997.8 55.4 999.5 55.2 1040.9 50.3 1041.5 49.5 1036.3 25.4 1057 22.6 1062.7 47.8 Z" data-holc_grade="C"/>
<path d="M 1152.1 35.9 1159.4 72.9 1147 74.7 1094.7 81.5 1070.7 84.4 1067.8 71.7 1062.5 50.2 1063.3 50.1 1062.7 47.8 1089.9 43.7 1136.6 37.6 1150.6 35.8 1152.1 35.9 Z" data-holc_grade="C"/>
<path d="M 1167.2 111.7 1146 114.9 1159.9 189 1138.4 191.2 1132.1 163.4 1130.4 162.5 1087.8 167.5 1093.7 196.5 1098.5 220.6 1099.9 221.5 1136.4 216.5 1143.2 216.2 1145.7 227.9 1090.6 234.4 1080.5 235.9 1078.4 235.1 1075 222.3 1072.5 212.9 1054.3 214.8 1052.9 214.9 1051.1 214.3 1049.2 205.5 1026.7 208.3 1024.3 196.8 1019.4 169.6 1062.6 163.7 1057.4 139 1056.2 138.2 1014.7 144.2 1011.4 131.6 1004.5 93.7 1070.7 84.4 1094.7 81.5 1147 74.7 1159.4 72.9 1167.2 111.7 Z" data-holc_grade="C"/>
<path d="M 948.8 318.1 924.1 321.5 922.8 321.6 871.1 327.6 859.6 267.1 859 264.4 874.7 262.5 915.3 257.1 936.1 254.4 937.1 259.6 948.8 318.1 Z" data-holc_grade="D"/>
<path d="M 1196.9 895.6 1239.6 915.6 1269.7 918.3 1261.2 997.6 1231 998.9 1233.4 975 1232.9 974.3 1208.6 972.6 1191 972.5 1177.1 971.6 1168.5 971 1178.5 924 1178.7 922.5 1178.6 922.5 1188.7 907.6 1188.8 907.6 1196.9 895.6 Z M 1196.5 930.5 1207.4 935.9 1207.6 935.6 1217.9 920.2 1194 909.8 1183.1 924.5 1196.5 930.5 Z M 1213.2 935.5 1212.6 936.1 1211.6 937.4 1210.9 938.3 1210.7 938.9 1209.6 940.4 1208.7 941.6 1208.3 942.7 1208.2 944.2 1208.2 945.9 1208.8 948.3 1210.2 950.3 1212.9 952.8 1215.2 954.2 1216.5 954.8 1217.8 955.2 1218.9 955.7 1220.1 955.7 1221.3 955.7 1222.5 955.7 1223.6 955.6 1224.8 955.2 1225.9 954.8 1227.1 954.2 1228.1 953.4 1228.8 952.9 1229.8 952.1 1230.7 951.1 1231.4 950.6 1232.6 948.9 1233.5 947.6 1234.2 946.4 1235.1 944.9 1235.6 943.5 1235.8 942.6 1235.9 941.4 1236.2 939.7 1236.1 938.5 1236.1 937.6 1235.6 936.2 1235.1 935.1 1234.2 933.8 1233.5 932.9 1232.7 932.3 1231.4 931.7 1230.3 931.3 1228.8 930.7 1227.3 930.4 1226.3 930.2 1225.3 930.2 1223.9 930.3 1222.4 930.3 1220.7 930.7 1219.9 931 1219 931.5 1218.1 931.9 1216.8 932.6 1216.2 933.1 1215.5 933.6 1214.4 934.3 1213.9 934.9 1213.2 935.5 Z" data-holc_grade="D"/>
<path d="M 1006.4 1115 1002.8 1112.8 1010.9 1099.5 1028.1 1067.6 1055.1 1049.2 1061.5 1052.5 1042.2 1070.2 1037 1074.6 1013.4 1108.1 1006.4 1115 Z M 1169.6 1018.5 1172.8 1055.2 1204 1054.3 1205.1 1052.6 1218.2 1052.4 1228.3 1050.5 1233.8 1050 1270.8 1056.7 1285.2 1052.1 1285.5 1053 1283.5 1055.3 1294.1 1077.6 1253.3 1087.8 1240.4 1055.6 1232.7 1053.9 1231.6 1054.7 1251.9 1107 1209.4 1118 1208.5 1119.9 1167.9 1130.2 1150.5 1175.7 1130.2 1235.3 1072.7 1224.8 1065.5 1234.1 1038.2 1269.3 1017.7 1264.2 999 1255.1 979.4 1244.8 945.9 1230.2 991.5 1170.6 1021.1 1131.8 1062.8 1076.8 1084.9 1086.4 1103.9 1061.2 1082.7 1060.7 1123.9 1017.2 1135.9 1017.2 1147.9 1017.8 1152 1018.8 1169.6 1018.5 Z" data-holc_grade="D"/>
<path d="M 1399.3 773.3 1254.6 783.1 1253 765.3 1242.3 653 1244.9 651.8 1345.7 646.5 1398.6 643.7 1399.6 644.9 1403 685.6 1406.3 723.3 1410.2 760.2 1398.7 772.2 1399.3 773.3 Z" data-holc_grade="D"/>
<path d="M 1254.6 783.1 1399.3 773.3 1406.2 784.6 1418.7 780.9 1439.7 794.8 1431.2 834.8 1430.5 834.8 1428.8 843.3 1408.3 873.3 1395.6 915.1 1393.8 923.7 1394.5 937.4 1395.9 956.7 1402.7 974.9 1399.2 977.6 1396.2 978.7 1385.8 982 1371.4 989 1344.8 1002.6 1341.6 1000.5 1318 984.7 1299.4 995.5 1278.9 996.6 1278.5 996.9 1261.2 997.6 1269.7 918.3 1239.6 915.6 1196.9 895.6 1196.7 891.8 1221.5 854.7 1255.1 803.7 1256.3 802.8 1254.6 783.1 Z" data-holc_grade="D"/>
<path d="M 1341.3 1242.6 1404.6 1259.5 1456.8 1278.9 1475.4 1282.2 1469.9 1310.2 1490.5 1315.3 1487.7 1322.2 1485.3 1336.3 1361.6 1336.3 1226.8 1336 1224.3 1336.7 1200.8 1336.7 1206.6 1328.2 1213.2 1315.7 1217.9 1307.2 1257.1 1318.4 1277.4 1266 1281.8 1253.3 1282 1234.1 1337.9 1249.7 1341.3 1242.6 Z" data-holc_grade="D"/>
<path d="M 1405.4 571 1467.1 568.7 1471.7 568.7 1476.7 620.1 1502.8 618.7 1501.2 600.9 1512.8 600.4 1509.9 566.4 1561 562.5 1562.3 563.2 1564.2 580.2 1577.4 579.4 1577.9 580.4 1585.6 666.7 1560.4 668.3 1520.4 670.3 1523.5 703.4 1523.1 704.3 1446.5 708.8 1439.8 642.3 1411.7 643.7 1408.2 597.7 1405.4 571 Z" data-holc_grade="D"/>
<path d="M 1741.7 1060.2 1742.2 1059 1667 1015.8 1674.1 1006.7 1649 992.6 1619.8 976 1592.7 1048.9 1591.6 1051.7 1561.8 1047.2 1559.3 1046.8 1542.1 1044.2 1490.7 1039.2 1482.6 1070.4 1473.6 1098.6 1432.1 1002.6 1429.5 994.7 1422.4 984.9 1412.1 967.8 1406.9 955.7 1404.7 946.7 1403.1 932.4 1469.4 916 1508.9 938.8 1532.4 913.8 1580.6 941.1 1634.1 881.7 1709.6 924 1769.6 957.7 1775.1 961.7 1776.8 964.9 1777.3 967.1 1778.6 970.9 1783.3 975.2 1786.8 977.8 1788.1 981.1 1788.8 983 1806.5 994.3 1827.9 1020.5 1940.4 1054.6 1999 1073.6 1973.4 1101.9 1888.5 1084.9 1784.9 1067.4 1741.7 1060.2 Z M 1563.2 1024.3 1565.6 1024.6 1569 1004.9 1566.2 1004.9 1563 1002.4 1567.5 980.6 1527.6 975.2 1520.1 952.3 1490.7 964.5 1467.1 978.8 1502.6 1015.9 1523.7 1019.1 1563.2 1024.3 Z" data-holc_grade="D"/>
<path d="M 1517 1278.3 1510.5 1276.1 1491.6 1267.5 1489.1 1267.1 1483.7 1270.1 1477.5 1282.6 1475.4 1282.2 1456.8 1278.9 1404.6 1259.5 1341.3 1242.6 1348.1 1225.9 1344.8 1224.8 1356.4 1195.8 1369.6 1190.5 1394.6 1196.8 1402.5 1177.6 1409.2 1174.7 1441.8 1189.5 1445.3 1195.7 1460.4 1191.5 1428.8 1115 1453.7 1108.3 1455.7 1106.9 1460.4 1119.1 1492.7 1128.4 1558.2 1145.2 1569.3 1127.6 1577.9 1132 1586.5 1136.4 1595.1 1140.9 1603.6 1145.5 1612 1150.1 1620.4 1154.8 1628.8 1159.5 1637.1 1164.3 1645.3 1169.2 1653.5 1174.1 1661.6 1179.1 1669.7 1184.1 1642.7 1215.2 1642.4 1215.9 1642.1 1216.5 1641.9 1217.2 1641.7 1217.8 1641.7 1218.4 1641.7 1219 1641.7 1219.6 1641.9 1220.1 1642 1220.6 1642.3 1221 1642.5 1221.4 1642.8 1221.9 1643.2 1222.3 1643.5 1222.7 1645.1 1224.4 1645.5 1224.8 1645.7 1225.2 1646 1225.6 1646.2 1225.9 1646.3 1226.3 1646.4 1226.7 1646.4 1227.1 1646.4 1227.6 1646.3 1228 1646.1 1228.5 1645.9 1229 1645.6 1229.5 1645.2 1230 1644.8 1230.5 1653.3 1243.1 1645.8 1252.1 1614.6 1213.1 1587.7 1202.5 1568.2 1190.5 1541.2 1218.2 1518 1230.2 1515.4 1240.3 1528.2 1269.2 1528.3 1269.9 1528.4 1270.6 1528.4 1271.4 1528.4 1272.1 1528.2 1272.8 1527.9 1273.5 1527.6 1274.1 1527.2 1274.8 1526.7 1275.4 1526.1 1276 1525.5 1276.5 1524.8 1276.9 1524 1277.3 1523.2 1277.7 1522.4 1278 1521.5 1278.2 1520.6 1278.4 1519.7 1278.4 1518.8 1278.5 1517.9 1278.4 1517 1278.3 Z" data-holc_grade="D"/>
<path d="M 968.8 482.3 949.9 484.5 904 489.8 902.9 485.3 781.4 501.2 769.4 502.7 766 484.6 877.4 470 937.6 462.2 934.5 447.3 932.8 438.3 916.3 440.5 918.1 450.2 808.7 464.7 762.9 470.6 760.4 458.7 778 456.5 779.1 455.3 777.2 444.7 779.9 444.3 780.6 444.2 955.8 420.8 961.3 446 968.8 482.3 Z M 846.6 453.3 844.2 442.4 782 451.3 781.7 451.5 784.2 462 846.6 453.3 Z" data-holc_grade="D"/>
<path d="M 1048.7 382.7 982.9 391.1 982.3 391.2 968.6 325.1 966.2 313.2 964.6 305.2 963.7 301.1 962 292.6 953.8 252.1 991.3 246.6 995.1 246.5 1021.7 243.2 1025.1 242.7 1029.4 263.1 1053.8 382 1048.7 382.7 Z M 963.3 292.4 965.3 301 975.1 299.8 973.4 291.1 963.3 292.4 Z M 1020 297.9 993.1 301.2 980.5 303 982.5 311.2 1021.7 306.5 1020 297.9 Z M 1054.3 214.8 1056 224.7 1075 222.3 1078.4 235.1 1080.5 235.9 1090.6 234.4 1145.7 227.9 1159.8 293 1166.5 328.8 1124.1 334.5 1129.2 359.2 1169.6 354.3 1176.1 387.2 1182.7 417.2 1171.1 419.6 1079.9 430.7 1069.6 378.8 1042.8 242 1033.8 241.5 1026.7 208.3 1049.2 205.5 1051.1 214.3 1052.9 214.9 1054.3 214.8 Z" data-holc_grade="D"/>
<path d="M 1117.8 505.1 1112.6 504.4 1092.4 505.6 1065.2 507.3 1062.7 506.7 1061.7 499.5 1050.1 500.2 1044.3 501 1019.9 501.8 1013.8 476.5 999.8 478.3 992.8 441.8 1059.3 433.1 1064.6 432.7 1068.4 450.9 1056.3 452.4 1059.5 466.1 1045.6 468.3 1047.2 476.2 1114.6 466.6 1113.6 459.3 1086.6 462.5 1082.8 445.3 1079.9 430.7 1171.1 419.6 1182.7 417.2 1189.7 449.2 1176.6 458.5 1172.5 464.2 1148.4 482.7 1143.5 486.5 1128.6 497.2 1122.8 501.4 1117.8 505.1 Z M 1127.7 466.2 1131.5 487.2 1141.7 486.6 1148.1 480.9 1145.6 464.1 1127.7 466.2 Z M 1109.9 493.5 1111.1 502.3 1121.3 501.5 1128.5 496.1 1127.7 491.3 1109.9 493.5 Z" data-holc_grade="D"/>
<path d="M 1201.5 107.6 1212.7 106.2 1214.8 117 1216.9 117.8 1260.5 111.3 1249.3 60.5 1241.7 25 1237.5 25.7 1217 28.2 1204.9 29.8 1199.2 30.4 1185.3 32 1152.1 35.9 1147.5 10.8 1227.3 1 1317.7 61.8 1332 125.4 1342.3 177.6 1321.7 180.1 1319.4 181.6 1321.2 192.1 1301.6 194.8 1300.4 195.9 1301.8 207.1 1227 217.1 1223.9 217.1 1223.3 216.2 1206.6 133.8 1201.5 107.6 Z" data-holc_grade="D"/>
<path d="M 668.8 1337.9 652 1326.3 635.6 1314.5 646.2 1314.4 645.1 1300.3 643.1 1201.5 644.8 1200.3 759.7 1198.9 761.1 1197.3 759.6 1129.7 779.8 1134.1 782.3 1134.9 845 1133.9 845.9 1143.7 830.5 1168.5 831.1 1170.2 844.6 1175.4 842.1 1188.3 840.8 1198.4 838.8 1208.6 832.3 1224.1 827.9 1230 790.6 1261.2 774.2 1275.6 758.3 1286.4 740.9 1294.9 739.7 1294.8 738.2 1295.8 771.8 1320.5 752.3 1336.9 668.8 1337.9 Z" data-holc_grade="D"/>
<path d="M 1054.1 973.9 1054.3 975.9 1060.1 975.5 1062 978.1 1062.4 983.8 1063.7 985.7 1064.5 987.5 1064.9 988.8 1064 990.8 1062.8 992.3 1062.5 996 1023.5 1008.6 1017.1 1015.4 1008.4 1021.4 994.7 1028.5 983 1033.7 980.4 1035.6 970.6 1042.3 961.5 1034.7 995.5 1019.4 995.4 1018.1 927.4 1019.3 925.3 1019 922.1 979.7 935.6 980.1 935.4 978 936.2 976.3 938.3 974.6 941 973.9 943.3 974.3 946.3 975.7 955.5 976.1 959.3 959.4 960 958.2 960.9 948.3 962.8 948.1 972.6 950.8 977.6 952.5 981.7 955.2 986.9 955.2 992.4 954.6 998.3 953.3 1001.5 952.9 1005.4 951.2 1007.6 950.1 1009.2 949.1 1009.1 947.7 1008.2 946.8 1007 946.6 1005.7 945.1 1004.5 931.5 1017.7 924.1 1051.8 951.4 1054.1 973.9 Z" data-holc_grade="D"/>
<path d="M 1179.2 875.1 1173.7 875 1173 856 1167.8 787.9 1175.3 787.2 1176.3 785.6 1175 776.2 1170.5 742.4 1167.6 720.9 1173.3 720.5 1168.1 677.6 1176 677.3 1176.6 676.5 1173.6 633.6 1158.3 633.9 1156.4 613.3 1141.5 613.8 1140.6 606.7 1137.7 603.6 1135.8 603.7 1108.5 604.9 1107.5 596.7 1106 584.7 1132.1 580 1131.3 573.3 1129.6 573.2 1104.8 574.7 1101.3 547.1 1120.3 531.1 1150 506.6 1172.8 489.7 1174.3 485.2 1186.1 477.8 1188.2 477.9 1189.5 490.4 1191.3 502 1194.2 536.6 1195 542.6 1195 543.1 1196.2 552.7 1198.4 574.3 1200.4 593.7 1199.5 603.4 1203.7 650 1207.8 702.8 1214 762 1200.3 762.6 1204 803.5 1195 828.9 1191.8 842.1 1179.2 875.1 Z M 1179 544.5 1179.5 543.7 1191.4 543.2 1191.4 542.8 1190.2 536.3 1189.3 526.1 1188.2 526.1 1177.2 526.6 1176.6 527.4 1166.6 527.7 1166.5 528.2 1167.8 544.7 1173.3 544.9 1179 544.5 Z M 1178 523.8 1179.1 522.8 1187.8 522.3 1189 522.1 1188.6 515.9 1177.1 516 1176.6 516.7 1169.2 517.1 1165.1 517.2 1166.2 523.2 1167.2 524.1 1178 523.8 Z" data-holc_grade="D"/>
<path d="M 1103.8 1009.6 1082.7 1014.3 1067 1017.3 1066.2 1016.8 1062.5 996 1062.8 992.3 1064 990.8 1064.9 988.8 1064.5 987.5 1063.7 985.7 1062.4 983.8 1062 978.1 1060.1 975.5 1054.3 975.9 1054.1 973.9 1089.5 951.5 1111.2 937.5 1112.4 935.7 1114.2 930.7 1114.4 926.5 1111.8 919.6 1111.3 917.3 1102.2 910.5 1105 909.9 1120.4 909.2 1128.2 908.6 1134.5 907.8 1131.3 877.1 1173.7 875 1179.2 875.1 1166.8 906.9 1151.1 959.5 1139.2 973.4 1103.8 1009.6 Z" data-holc_grade="D"/>
<path d="M 615 891.4 601.3 887.8 607.8 879.2 611.7 880.1 620.5 885.1 615 891.4 Z M 413.5 714 418.6 789.6 313.7 794.2 216.1 798.8 221.9 874 225 925.4 226.4 947.6 228.5 973.8 229.1 979.2 226.7 991.8 165.4 993.4 163.6 992.7 161.8 992.1 160.1 991.4 158.5 990.7 156.9 990 155.3 989.3 153.8 988.5 152.4 987.8 151 987 149.7 986.3 148.4 985.5 147.1 984.7 144.7 983.2 139.3 979.6 137.8 978.7 136.4 977.8 134.7 976.9 133 976 131.2 975.2 129.4 974.4 128.1 974 126.8 973.5 125.4 973.1 124 972.6 122.6 972.2 121 971.8 119.5 971.5 117.8 971.1 116.1 970.7 114.3 970.4 112.5 970.1 110.5 969.8 108.5 969.5 106.5 969.2 104.3 968.9 102.1 968.6 51.4 968.2 47.5 906.4 61.5 906 51.9 755.3 65.7 754.6 62.1 703.3 91.5 702.4 90.3 677.3 104.9 676.5 103.8 650.7 160.4 648.3 162.5 673.1 164.3 673.9 176.3 673.5 177 674.5 179.5 698.8 206.8 697.8 207.8 699.1 209.9 723.6 371.5 716 413.5 714 Z" data-holc_grade="B"/>
<path d="M 480.4 1027.7 517.4 1027 514.8 1077 496.6 1077.2 481.6 1077.9 483.4 1044.2 480.5 1031.8 480.4 1027.7 Z" data-holc_grade="C"/>
</g>
</svg>