<?xml version="1.0"?>
<svg xmlns="http://www.w3.org/2000/svg" version="1.2" baseProfile="tiny" width="2000" height="2323" viewBox="0 0 2000 2323" stroke-linecap="round" stroke-linejoin="round">
<g id="holc_ad_data">
<path d="M 1285.1 1907.8 1241.3 1885.5 1209.6 1867.6 1187.8 1855.9 1155.2 1894.6 1135.1 1885.5 1114.4 1874.6 1133.9 1853 1152.8 1832.7 1158.7 1825.6 1161.3 1822.4 1170.2 1826.8 1171 1828.6 1184.4 1836.1 1192.6 1825.6 1204.1 1832.2 1212.7 1829.9 1232.7 1804.8 1300.1 1841.4 1297.7 1845.8 1327 1858.6 1292.1 1896.1 1285.1 1907.8 Z" data-holc_grade="A"/>
<path d="M 1466.5 405.7 1414.9 392.6 1360.8 378.9 1357.2 375.9 1448.1 341.5 1481.9 331.2 1478.7 344.2 1477.8 357.8 1466.5 405.7 Z" data-holc_grade="A"/>
<path d="M 859 1056.6 861 1045.9 870.8 1003.9 872.9 996.6 893.8 998.7 883.3 1059 882.6 1075.9 877.4 1092 864.5 1131.3 856.8 1178.8 853.3 1197.6 843.6 1222.4 810.4 1220.8 818.8 1213.3 824.7 1205.5 826.7 1201 830.6 1182.9 839.3 1146.9 844.2 1119.6 849.1 1108.1 858.3 1087.4 857.8 1063.1 859 1056.6 Z" data-holc_grade="A"/>
<path d="M 466.7 1603.8 455.6 1600.7 442.2 1592.2 429.7 1593.2 425 1614.1 404.1 1611.6 401.4 1621.8 395.9 1621.1 376.5 1619.6 371.8 1615.8 368.5 1610.4 366.4 1597.3 363.6 1589.8 356.7 1586 372.7 1575.1 386.2 1561.6 399 1549.4 440.3 1553.6 453.5 1554.5 475.2 1556.9 466.7 1603.8 Z" data-holc_grade="A"/>
<path d="M 376.5 1619.6 395.9 1621.1 385.1 1671.2 381.1 1698.5 332.2 1693.7 279.2 1688.7 290.5 1623.5 332 1627.7 334.7 1616.4 376.5 1619.6 Z" data-holc_grade="A"/>
<path d="M 136.1 1744.2 135.8 1710.2 137.2 1688.5 135.8 1681.6 135.7 1679.3 156.8 1679 157.5 1674.1 181.5 1676.8 189.4 1677 213.7 1636.4 227.6 1618.4 236 1612.6 255.1 1604 274 1607.7 293.1 1610.2 290.5 1623.5 279.2 1688.7 257.9 1686.7 248 1743.8 193.2 1758.2 162 1756.3 136.6 1751.8 136.1 1744.2 Z" data-holc_grade="A"/>
<path d="M 135.7 1679.3 135.8 1681.6 137.2 1688.5 135.8 1710.2 55.9 1710.6 42.3 1712.4 38.3 1712.4 50.1 1669.8 64.3 1625.6 94.8 1621.4 133.4 1616.1 135.7 1679.3 Z" data-holc_grade="A"/>
<path d="M 583.1 1259.1 549.8 1253 547 1254.3 544.4 1255.5 536 1258.2 524.3 1259.7 511.2 1260.7 503 1261.1 504.7 1246 506.9 1237.9 506.2 1234.4 501 1215.9 497.8 1206.9 501.2 1197.3 502.7 1187.4 500.2 1182.4 498.4 1175 511.2 1172.8 538.3 1174.4 562.3 1175.7 590.6 1180.5 605.7 1182 622.4 1185.8 621.9 1187.8 616.3 1190 611.8 1197.8 611.6 1207.3 612 1216 607.9 1221.6 596.7 1233.3 589.8 1243.7 587 1249.4 583.1 1259.1 Z" data-holc_grade="A"/>
<path d="M 579.8 1121.2 602.4 1121.7 621.8 1122.2 631.5 1143.3 630.8 1158.5 631.9 1167 634.1 1175.2 631.9 1182.4 632.7 1188.4 622.4 1185.8 605.7 1182 590.6 1180.5 562.3 1175.7 538.3 1174.4 546.2 1139.9 547 1115 565.4 1118.4 569.8 1121 579.8 1121.2 Z" data-holc_grade="A"/>
<path d="M 632.7 1188.4 631.9 1182.4 634.1 1175.2 631.9 1167 630.8 1158.5 631.5 1143.3 621.8 1122.2 647.3 1121.5 671.3 1121.5 678 1121 688.9 1118.9 685.7 1139.2 703.6 1139.1 722.1 1139.2 716.2 1178.1 704.6 1182.4 698.7 1187.2 695.1 1192.8 688.9 1194.7 665.6 1189.7 656.8 1189.6 644.8 1191.2 632.7 1188.4 Z" data-holc_grade="A"/>
<path d="M 826.7 1201 798.8 1198.9 764.1 1194.2 739.7 1192.6 725.7 1190.5 725.7 1186.4 716.2 1178.1 722.1 1139.2 726.2 1132.2 734.6 1098 737.4 1078.7 737.6 1077.6 759.8 1078 793.5 1080.7 813.2 1084.6 819.3 1086.8 858.3 1087.4 849.1 1108.1 844.2 1119.6 839.3 1146.9 830.6 1182.9 826.7 1201 Z" data-holc_grade="A"/>
<path d="M 962.1 1650.4 952 1712.6 947.1 1759.6 883.5 1754.9 793.8 1751.1 789.9 1743.2 787.8 1712.9 781.2 1696.5 761.3 1681.2 749.9 1669.2 771.3 1660.3 796.2 1646.3 811.6 1640.5 831.8 1635.1 873 1615.7 944 1625.2 944 1628.5 944 1635.6 944 1638.9 948.5 1649 962.1 1650.4 Z M 895.7 1671.1 876.2 1664.3 856.3 1661.8 848.9 1709.6 889.1 1714.5 895.7 1671.1 Z" data-holc_grade="A"/>
<path d="M 804.7 989.9 825 991.9 872.9 996.6 870.8 1003.9 861 1045.9 859 1056.6 810 1051.1 762.1 1047.3 761.4 1054.4 741.1 1052.9 745.5 1019.7 751.4 984.5 804.7 989.9 Z" data-holc_grade="A"/>
<path d="M 804.7 989.9 751.4 984.5 730.9 983.5 713.4 982.7 716.9 965.1 724.2 956 729.7 928 812.1 938.7 804.7 989.9 Z" data-holc_grade="A"/>
<path d="M 713.4 982.7 691.8 981.9 666.5 978.7 643 973.7 607.1 971.8 607.2 969.8 611.2 928.7 616.3 877.8 614.4 872.2 607 865.1 608.3 858.7 619.4 853.5 628.1 852.8 635.7 855.5 638.6 864.2 644.7 869.6 652.6 873.5 669.8 896.7 686.6 923.5 729.7 928 724.2 956 716.9 965.1 713.4 982.7 Z" data-holc_grade="A"/>
<path d="M 713.4 982.7 730.9 983.5 751.4 984.5 745.5 1019.7 741.1 1052.9 740 1061.3 689.2 1057.6 609.5 1049.3 611.6 1044.7 612.8 1038.9 594.2 1036.5 597.2 1020.5 604.7 989.4 606.1 985.3 607.1 971.8 643 973.7 666.5 978.7 691.8 981.9 713.4 982.7 Z" data-holc_grade="A"/>
<path d="M 734.6 1098 706.7 1096 684.5 1094.4 673.8 1092.9 665.7 1089.8 637.3 1086.7 618.2 1082.4 599.8 1079.8 593.3 1087.8 586.7 1099.3 580.2 1116 579.8 1121.2 569.8 1121 565.4 1118.4 547 1115 537.3 1114.3 531.5 1104.9 510.3 1104 498.4 1103.1 484.2 1101.5 476.8 1099.2 480.1 1084 485.2 1038.4 486.8 1034 491.3 1008.4 517.1 1011.8 551.1 1013.1 568.1 1014.9 597.2 1020.5 594.2 1036.5 612.8 1038.9 611.6 1044.7 609.5 1049.3 689.2 1057.6 740 1061.3 737.6 1077.6 737.4 1078.7 734.6 1098 Z" data-holc_grade="A"/>
<path d="M 538.3 1174.4 511.2 1172.8 498.4 1175 466.9 1175.9 433.2 1172.2 435.8 1170.5 437.4 1152.3 457.4 1129.6 465.4 1116.1 476.8 1099.2 484.2 1101.5 498.4 1103.1 510.3 1104 531.5 1104.9 537.3 1114.3 547 1115 546.2 1139.9 538.3 1174.4 Z" data-holc_grade="A"/>
<path d="M 327.8 1018.2 363.4 1016.8 366.3 1020.5 361.6 1088.7 366.9 1100.7 368.3 1116.2 364.5 1128.7 359.6 1137.1 355.2 1144.4 350.9 1154.8 349.2 1157.4 352.5 1157.9 378.7 1161.7 398.6 1167.4 395.8 1256.4 319.6 1254.5 321 1289.1 320 1298.7 320 1303.1 322.1 1321.9 321 1341.8 317.9 1361.5 277.4 1355.2 274.7 1369 170.8 1353 157.2 1352.7 188.7 1256.4 206.5 1201.5 225.7 1139.6 253 1055.9 262.9 1026.6 273.7 989.1 306.3 987.9 305.7 1019.1 327.8 1018.2 Z M 205.4 1344.5 255.4 1350.8 257.8 1347 268.6 1348.6 271.8 1343.7 273.5 1332.5 273.9 1319.7 272.1 1296.2 241.8 1293 221.5 1288.6 217.6 1306.1 214.2 1322.4 205.4 1344.5 Z" data-holc_grade="A"/>
<path d="M 607.1 971.8 606.1 985.3 604.7 989.4 597.2 1020.5 568.1 1014.9 551.1 1013.1 517.1 1011.8 491.3 1008.4 495.2 987.1 413.9 979.4 393.9 979.6 395.5 963.1 398.6 928 390.7 910.3 411.6 911.3 436.3 914.2 506.2 926 525.7 928 525.7 922.5 541.3 921.8 570.4 931.3 581.4 931.6 595.8 934 591.4 885.8 604.5 868.4 607 865.1 614.4 872.2 616.3 877.8 611.2 928.7 607.2 969.8 607.1 971.8 Z" data-holc_grade="A"/>
<path d="M 731.4 482.6 738 486.8 744.5 490.5 750.3 491.5 770 489.1 790.9 488.4 807.6 489.9 829.7 494.3 825.2 514.3 821.1 539 822.7 550.6 804.3 550.4 794.2 550.9 774.1 554.4 770 554.4 756.6 548.9 744.9 547.6 711.9 543.5 704.1 541.1 700 541.1 695.3 540 693.8 534.4 694.9 531 691.6 528.4 688.2 521 678 522.9 700.5 495.7 706.9 486.4 716.2 470.8 724.7 478.2 731.4 482.6 Z" data-holc_grade="A"/>
<path d="M 958.6 542.7 933.2 578.5 869.1 554.3 890.5 523.6 891.7 513.2 909.4 518.7 921.7 521.6 944.8 526.1 959.2 530.5 966 533.4 958.6 542.7 Z" data-holc_grade="A"/>
<path d="M 1047 1658.5 1024.3 1765.9 947.1 1759.6 952 1712.6 962.1 1650.4 1047 1658.5 Z" data-holc_grade="A"/>
<path d="M 911.2 416.2 930.5 427.6 941.2 431.8 946.6 435.6 947.3 439.8 949.1 439.8 955.7 441.4 964.5 446.9 968.9 447.3 973.1 447.8 1017.8 464.5 1002.7 484.7 978.3 519.2 966 533.4 959.2 530.5 944.8 526.1 921.7 521.6 909.4 518.7 891.7 513.2 874.9 508.3 829.7 494.3 839 470.1 848.1 442.3 848.5 440.6 854.1 420 867.2 422 876.3 424.7 894 430.7 896.5 425.6 883 410.9 890.7 405.1 911.2 416.2 Z" data-holc_grade="A"/>
<path d="M 722.1 1139.2 703.6 1139.1 685.7 1139.2 688.9 1118.9 678 1121 671.3 1121.5 647.3 1121.5 621.8 1122.2 602.4 1121.7 579.8 1121.2 580.2 1116 586.7 1099.3 593.3 1087.8 599.8 1079.8 618.2 1082.4 637.3 1086.7 665.7 1089.8 673.8 1092.9 684.5 1094.4 706.7 1096 734.6 1098 726.2 1132.2 722.1 1139.2 Z" data-holc_grade="A"/>
<path d="M 877.6 1592.2 880.7 1569.3 886.3 1539.8 962.1 1547.2 960 1575.5 949.5 1588.7 944.7 1604.5 898.2 1600.4 895.1 1596.8 888.4 1593.3 877.6 1592.2 Z" data-holc_grade="A"/>
<path d="M 1178.4 1555.1 1174.8 1565.3 1168.7 1599.7 1152.3 1623.2 1150.9 1625.2 1137.6 1644.3 1048.6 1634.7 1058.6 1584.3 1072.8 1584.8 1075.4 1560.6 1099.9 1563.9 1106.6 1558.1 1106.6 1549 1150.4 1550.4 1161.6 1555.9 1178.4 1555.1 Z" data-holc_grade="A"/>
<path d="M 1249.5 1451.5 1202 1447.3 1206.6 1428.5 1250.4 1433.3 1249.5 1451.5 Z" data-holc_grade="A"/>
<path d="M 1242.6 1066.1 1270.4 1071.6 1267.9 1084.3 1239.5 1077.4 1237.8 1091.6 1235.3 1103.1 1195.7 1098.5 1177.5 1097.8 1176.1 1107.2 1121.9 1099.8 1100.7 1097.4 999.7 1088.4 915.9 1080.4 882.6 1075.9 883.3 1059 983 1069.5 1138.6 1081.5 1140 1071.7 1231.8 1079.1 1234.2 1076.8 1236.2 1065.2 1242.6 1066.1 Z M 1141.9 1043.8 1140.4 1054.3 1099.4 1050.9 1061.5 1047.5 1067.7 1016.8 1147.1 1025.2 1141.9 1043.8 Z" data-holc_grade="A"/>
<path d="M 1657.3 790.8 1618.5 811.9 1567 782.1 1622.6 751.2 1657.3 790.8 Z" data-holc_grade="A"/>
<path d="M 1387.6 495.9 1375.6 478 1365.2 463.4 1353.8 452.3 1332.4 432.8 1317.8 417.3 1331 402.7 1351.8 411.9 1404.7 433.2 1426.6 438.7 1435.9 439.1 1445.8 441.8 1387.6 495.9 Z" data-holc_grade="A"/>
<path d="M 1013 1476.7 1009.9 1501 981.9 1498 976 1501.6 971.4 1519.3 1114 1539 1131.4 1536.5 1184.2 1541.1 1181.8 1545.3 1178.4 1555.1 1161.6 1555.9 1150.4 1550.4 1106.6 1549 1106.6 1558.1 1099.9 1563.9 1075.4 1560.6 1072.8 1584.8 1058.6 1584.3 1048.6 1634.7 1047 1658.5 962.1 1650.4 948.5 1649 944 1638.9 944 1635.6 944 1628.5 944 1625.2 873 1615.7 831.8 1635.1 811.6 1640.5 796.2 1646.3 771.3 1660.3 764.1 1648.1 763 1639.6 768.5 1612.1 771.6 1595.9 774.8 1580.2 780.9 1560.2 783.4 1541.5 784.4 1526.2 787.6 1512.7 790.3 1492.6 858.7 1410.7 939.1 1365.4 945.4 1380.6 963.5 1387.2 990.1 1391.6 1018.7 1394.8 1004.7 1456.5 1017.3 1464.2 1013 1476.7 Z M 877.6 1592.2 888.4 1593.3 895.1 1596.8 898.2 1600.4 944.7 1604.5 949.5 1588.7 960 1575.5 962.1 1547.2 886.3 1539.8 880.7 1569.3 877.6 1592.2 Z" data-holc_grade="B"/>
<path d="M 1147.1 1025.2 1067.7 1016.8 1061.5 1047.5 1099.4 1050.9 1140.4 1054.3 1141.9 1043.8 1237.6 1052.9 1244.9 1055 1242.6 1066.1 1236.2 1065.2 1234.2 1076.8 1231.8 1079.1 1140 1071.7 1138.6 1081.5 983 1069.5 883.3 1059 893.8 998.7 872.9 996.6 896.3 966.2 911.2 973.7 922.8 982.5 935.6 997.8 941.8 1003.7 947.3 1006.2 940.6 988.9 925.8 949.6 919.5 936 963.4 878.2 988.1 852.6 1052.4 888 1159.5 941.8 1157.6 977.4 1151.8 999 1147.1 1025.2 Z" data-holc_grade="B"/>
<path d="M 1216 727.8 1300.1 765.3 1239.9 848.2 1169.1 816.2 1121.7 793.2 1120.5 795.3 1057.1 766 1053.3 765.3 1062.6 753.2 1093.7 768 1117.5 734.4 1118.4 736.5 1124.5 742 1133 747.9 1144.4 753.1 1158.5 730.1 1186.4 728.5 1203.5 727.9 1216 727.8 Z M 1488 612.4 1408.2 655.2 1366 679.2 1360.5 680.6 1250.5 634 1194.9 713.6 1165.7 694.9 1150.9 685.2 1145.4 679 1134.4 669.2 1129.3 664.7 1138.9 652.9 1152 643.8 1154.1 641.2 1191.7 659 1203.7 637.6 1213.5 623.9 1222.2 589.4 1255.6 547.3 1265.6 523.3 1281 495.6 1293.1 484.6 1332.4 432.8 1353.8 452.3 1365.2 463.4 1375.6 478 1387.6 495.9 1440.3 556.5 1488 612.4 Z" data-holc_grade="B"/>
<path d="M 1583.8 722.3 1565.6 749.6 1563.2 753.6 1563.2 756.6 1520.2 781.2 1512.5 787.2 1490.9 819.9 1496.8 823.5 1481.8 845 1436 825.4 1398.6 879.1 1351.1 859.2 1319.3 905.3 1286.9 890.8 1292.1 883.7 1234.1 856.2 1239.9 848.2 1300.1 765.3 1301.9 762.9 1329.8 719.6 1340 714.4 1360.5 680.6 1366 679.2 1408.2 655.2 1488 612.4 1543.6 673.2 1583.8 722.3 Z" data-holc_grade="B"/>
<path d="M 1622.6 751.2 1567 782.1 1618.5 811.9 1657.3 790.8 1695.1 770.3 1708.2 786 1751.8 763.9 1763.2 755.3 1794.6 779.9 1804 788.7 1831 825.8 1760.6 863.9 1727.4 909.2 1697.4 894.6 1610.7 856.9 1588.5 891.4 1481.8 845 1496.8 823.5 1490.9 819.9 1512.5 787.2 1520.2 781.2 1563.2 756.6 1563.2 753.6 1565.6 749.6 1583.8 722.3 1591.2 728.3 1608.3 734.2 1615 740.3 1622.6 751.2 Z" data-holc_grade="B"/>
<path d="M 1445.8 441.8 1435.9 439.1 1426.6 438.7 1404.7 433.2 1351.8 411.9 1331 402.7 1357.2 375.9 1360.8 378.9 1414.9 392.6 1466.5 405.7 1464.4 420.5 1445.8 441.8 Z" data-holc_grade="B"/>
<path d="M 1445.8 441.8 1464.4 420.5 1466.5 405.7 1477.8 357.8 1478.7 344.2 1481.9 331.2 1546.2 309.9 1596.3 293.5 1592.2 320.3 1584.1 371.2 1574.4 430 1574.2 473 1575.6 506.1 1559 492.3 1543 483 1514.5 471.1 1480.7 455.7 1455.7 445 1445.8 441.8 Z" data-holc_grade="B"/>
<path d="M 569.8 1625.3 576.5 1575 544.5 1584.1 540.7 1593.6 532.6 1601.2 513.4 1613.4 485.7 1616.4 483.2 1628.9 461.7 1626.1 466.7 1603.8 475.2 1556.9 453.5 1554.5 440.3 1553.6 399 1549.4 409.1 1534.3 415.5 1521.8 422.8 1512.7 431.9 1492 447.9 1477.9 459.8 1469.9 475.8 1465.3 493.9 1464 529.4 1466.9 545.4 1469 545 1471.4 545.5 1477.8 545.4 1491 552.9 1499 566 1508.6 579.7 1511.5 596.6 1512.4 607.7 1516.5 618.1 1516.5 628.9 1515.4 628.6 1522.7 639.3 1534.5 634.7 1569.1 627.5 1597.3 622.8 1626 594.3 1623.4 569.8 1625.3 Z" data-holc_grade="B"/>
<path d="M 466.7 1603.8 461.7 1626.1 483.2 1628.9 491.7 1630 484.1 1633.6 467.5 1637.7 453.8 1639.3 447.7 1666.4 445.4 1688.5 439.6 1720.8 434.8 1744.5 432 1758.6 427.1 1784.7 379.1 1778.9 388.3 1744 370.3 1742.6 311.5 1737 305.2 1770.6 313 1771.5 312 1792.8 310.4 1801.3 292.8 1797.3 259.8 1786.4 237 1795.8 228.8 1796.9 187.8 1811.5 192.5 1824.6 156.9 1840.3 131.9 1853.2 132.4 1841 136.4 1824.8 137.1 1816.4 136.1 1808.2 134.7 1796.9 135.4 1782 136.6 1751.8 162 1756.3 193.2 1758.2 248 1743.8 257.9 1686.7 279.2 1688.7 332.2 1693.7 381.1 1698.5 385.1 1671.2 395.9 1621.1 401.4 1621.8 404.1 1611.6 425 1614.1 429.7 1593.2 442.2 1592.2 455.6 1600.7 466.7 1603.8 Z" data-holc_grade="B"/>
<path d="M 502.5 1810.6 490.8 1810.9 475 1812.9 452.6 1817.6 442 1819.2 424.3 1819.3 425.6 1796.9 427.1 1784.7 435.1 1784.8 461.6 1782.6 479.1 1782.4 505.6 1783.2 502.8 1800.6 502.5 1810.6 Z" data-holc_grade="B"/>
<path d="M 136.6 1751.8 135.4 1782 134.7 1796.9 136.1 1808.2 137.1 1816.4 136.4 1824.8 132.4 1841 131.9 1853.2 116 1862.1 87.2 1831.2 72.6 1840 80.2 1848 78.4 1875.5 22.5 1865.3 10 1853 1 1837.5 19.3 1775.4 38.3 1712.4 42.3 1712.4 42.3 1723.8 55.4 1723.5 54.3 1753.8 52.8 1758.6 52.5 1771.8 62.7 1765.2 100.6 1754.7 136.1 1744.2 136.6 1751.8 Z" data-holc_grade="B"/>
<path d="M 947.1 1759.6 1024.3 1765.9 1018.7 1772.4 1017 1791.8 1011.7 1797.3 1012.1 1818 1036.9 1832.8 1027.7 1843.1 1020 1849.7 971.4 1877.8 985.8 1893.9 1002.2 1885.5 1021 1906.8 1008.8 1917.7 980.2 1920.4 957.8 1914.4 944.9 1907.6 928.5 1895.3 820.2 1792.1 793.8 1751.1 883.5 1754.9 947.1 1759.6 Z" data-holc_grade="B"/>
<path d="M 384.8 1544.7 396.9 1546.7 399 1549.4 386.2 1561.6 372.7 1575.1 356.7 1586 363.6 1589.8 366.4 1597.3 368.5 1610.4 371.8 1615.8 376.5 1619.6 334.7 1616.4 335.5 1600.2 303.3 1593.5 299.1 1586.7 309.9 1582.7 314.9 1580.2 319.9 1577.8 369.5 1555.1 373 1542.7 384.8 1544.7 Z" data-holc_grade="B"/>
<path d="M 170.5 1580.3 136.1 1580.7 133.4 1616.1 94.8 1621.4 64.3 1625.6 76.1 1588.7 107 1499.3 114.8 1496.6 127.9 1490.7 142.2 1513.2 190.1 1509.1 186.6 1520.9 182.8 1530.3 176.1 1538.4 173.2 1566 170.5 1580.3 Z" data-holc_grade="B"/>
<path d="M 253.2 1507.1 245.1 1507.7 190.1 1509.1 142.2 1513.2 127.9 1490.7 114.8 1496.6 107 1499.3 124.7 1449.5 140.5 1451.1 173.3 1455.9 175.4 1443.3 219.9 1448.3 216.1 1461.3 229.2 1460 265 1451.3 265.6 1452.7 264.7 1460.4 261.8 1471.3 256.3 1489.1 253.2 1507.1 Z" data-holc_grade="B"/>
<path d="M 343.3 1361.2 339.9 1360.6 336.1 1378.4 274.7 1369 277.4 1355.2 317.9 1361.5 321 1341.8 322.1 1321.9 320 1303.1 345.8 1306.3 346.2 1326.5 343.3 1361.2 Z" data-holc_grade="B"/>
<path d="M 826.7 1201 824.7 1205.5 818.8 1213.3 810.4 1220.8 804.9 1247.8 802 1267.4 792.6 1307.9 788 1319.9 785.1 1332 785 1337.7 781.5 1358.6 785 1363.4 767.8 1389.1 769 1394.1 748.6 1439.5 741.9 1441.8 725.3 1454.8 689.4 1453.2 698 1418.1 675.6 1423.8 659.1 1421 667.5 1387.7 671.7 1366.8 630 1370.1 612.5 1368.3 598.5 1367.7 599.2 1349.9 599.1 1317 582.7 1318.2 581.1 1318 582.7 1300.1 585.3 1287.8 586.4 1279.2 590.1 1270.9 593.9 1261.6 583.1 1259.1 587 1249.4 589.8 1243.7 596.7 1233.3 607.9 1221.6 612 1216 611.6 1207.3 611.8 1197.8 616.3 1190 621.9 1187.8 622.4 1185.8 632.7 1188.4 644.8 1191.2 656.8 1189.6 665.6 1189.7 688.9 1194.7 695.1 1192.8 698.7 1187.2 704.6 1182.4 716.2 1178.1 725.7 1186.4 725.7 1190.5 739.7 1192.6 764.1 1194.2 798.8 1198.9 826.7 1201 Z" data-holc_grade="B"/>
<path d="M 485.3 1260.6 466.3 1259.5 428.7 1257.5 429.6 1224.3 433.2 1172.2 466.9 1175.9 498.4 1175 500.2 1182.4 502.7 1187.4 501.2 1197.3 497.8 1206.9 501 1215.9 506.2 1234.4 506.9 1237.9 504.7 1246 503 1261.1 485.3 1260.6 Z" data-holc_grade="B"/>
<path d="M 863 930.8 919.5 936 896.3 966.2 872.9 996.6 825 991.9 804.7 989.9 812.1 938.7 845.3 942.4 845.9 929.2 863 930.8 Z" data-holc_grade="B"/>
<path d="M 743.6 769.4 758.3 770.3 786.6 778.5 797.2 781.6 801.6 781.7 804.1 781.7 845.1 790.9 841.5 812.8 841.2 814.8 833.2 814.8 830.4 852.5 830.4 857 835.8 869.3 828.5 874.8 828.2 884.3 861.7 887.9 868.7 889.5 863 930.8 845.9 929.2 761.4 919.9 731.8 901 694.9 877.2 692.8 873.4 673.9 858.9 659.6 854.3 662 858.9 665.2 861.6 665.9 864.6 664.5 869 659.9 869.3 652.6 873.5 644.7 869.6 638.6 864.2 635.7 855.5 628.1 852.8 619.4 853.5 608.3 858.7 607 865.1 604.5 868.4 600.9 862.7 602.7 841.2 582.7 837.9 585.5 815 574 812.6 576.8 797 566.7 795.1 558.2 726.6 592.1 727.9 619.4 791.6 649.5 792.4 648.8 744.1 671.8 758.6 741.7 785.6 738.2 770.3 743.6 769.4 Z" data-holc_grade="B"/>
<path d="M 716.2 470.8 706.9 486.4 700.5 495.7 678 522.9 672.9 522.1 668.2 519 662.1 509.1 641.6 504.5 641.4 512.8 639.9 529.6 640.7 538.2 638.6 555.1 638.2 576.9 640.5 587.5 612.1 574.1 608.8 586.9 610.1 611.2 611.2 641.9 604.7 640.4 582 637.1 555.3 633.2 558.5 643.8 562.6 663.7 565 682.5 567.6 692.9 591.5 725.2 592.1 727.9 558.2 726.6 541.9 725.6 516.8 715.2 513.6 644.8 511.4 617.9 507.6 605.4 490.5 598.7 467.6 585.6 473.9 558.1 435.4 567.1 428.3 571.1 402.2 570.5 390.8 574.7 393.6 565.5 402 531.8 414.1 484.3 431.8 487.6 437 480.9 449.9 486.6 479.7 500.6 513 520.2 538.7 535.3 508.6 544 514.9 550.7 504.7 579.5 559.8 590.6 566.1 567.9 573.2 561 575.8 555.1 564.5 548.2 573.8 528.2 586.4 536.5 584.8 525.6 601.5 526.3 597.8 507.2 608.4 507.8 623.3 471 642.9 475.8 651.5 473.5 640.3 462.9 641.4 455.5 649.8 454.8 649.4 452.1 638.4 440.2 637.7 432.5 669.5 432.8 676.4 437.6 686.1 443 716.2 470.8 Z" data-holc_grade="B"/>
<path d="M 773.9 424.3 768.6 435.9 761.8 446.3 762.5 454.6 731.4 482.6 724.7 478.2 716.2 470.8 686.1 443 676.4 437.6 669.5 432.8 675.2 433 669.4 424.2 670.8 414.2 694.7 418.7 697.6 408.9 700 407.6 708 407.9 733.2 407.4 757.2 416.1 773.9 424.3 Z" data-holc_grade="B"/>
<path d="M 1155.2 1894.6 1175.2 1904 1206.7 1921 1255 1946.8 1239.6 1962.7 1184.9 1933.3 1100.4 1891 1114.4 1874.6 1135.1 1885.5 1155.2 1894.6 Z" data-holc_grade="B"/>
<path d="M 833.9 343.8 820.3 370.3 820.7 375 824.4 384.4 802.8 389 791.9 395.7 780 410.1 773.9 424.3 757.2 416.1 733.2 407.4 708 407.9 700 407.6 711.9 383 712.8 374.6 716.3 361.7 734.9 357.8 830.1 342.6 833.9 343.8 Z" data-holc_grade="B"/>
<path d="M 968.9 447.3 964.5 446.9 955.7 441.4 949.1 439.8 947.3 439.8 946.6 435.6 941.2 431.8 930.5 427.6 911.2 416.2 910.9 402.6 911.8 390.5 939.4 380.5 971.2 383.1 957.6 388.3 947.7 395.3 942.3 402.9 941.8 411.4 943.5 419.9 949.4 425.7 970.3 434.7 977.7 436.7 968.9 447.3 Z M 890.7 405.1 883 410.9 896.5 425.6 894 430.7 876.3 424.7 867.2 422 854.1 420 848.5 440.6 828.6 439.3 804.2 425.3 824.4 384.4 836.5 404 858.2 400 858.2 397.8 865.6 379.5 880.5 351.1 891.9 355.7 889.2 401.6 890.7 405.1 Z" data-holc_grade="B"/>
<path d="M 933.2 578.5 958.6 542.7 965.2 550.6 971.7 555.6 987.7 565.4 996.7 570.4 1015.9 541.3 1031.9 540.9 1042.4 541.3 1050 541.8 1062.8 547.7 1068.9 554 1075.6 565.2 1086.1 585.4 1103.5 613.3 1110.2 628.8 1112.3 638.8 1111.1 644.5 1109.6 650.1 1110.8 665.4 1107.6 677.4 1102.6 691.9 1094.5 707.6 1077.1 699.1 1048.5 687.1 1057.8 673.1 1050.5 669 1066 649.7 1041.5 639 1053.7 617 1029 606.3 1013.9 594.5 1006.3 599 1000.5 605.6 990 620.4 981 639.7 984.4 660 972.5 659.5 944.9 658.1 935.8 646 924.8 631.1 919.3 616.5 918.4 606.7 921 594.2 932.4 579.7 933.2 578.5 Z" data-holc_grade="B"/>
<path d="M 1331 402.7 1289.4 381.2 1236.4 345.7 1231.7 341 1211.6 315.3 1205.8 310.8 1201.5 302.1 1180.5 281 1194.6 272.3 1200.3 268.8 1217.8 260.9 1253.8 238 1302.3 224.1 1348.1 304.5 1362.1 325.5 1351.9 330.4 1356.1 333.9 1384.4 347.3 1351.2 371.2 1357.2 375.9 1331 402.7 Z" data-holc_grade="B"/>
<path d="M 929 226.5 943.7 224.6 985 225 986.4 233.1 987.5 254.5 1036.3 253.3 1037.5 287.7 1033.9 289.3 994.7 287.7 980.5 294.8 965.6 293.8 959.3 298.2 947.4 297.8 930.9 230.5 929 226.5 Z" data-holc_grade="B"/>
<path d="M 921.5 206.6 907.2 208 869.4 212.5 871.1 196.8 864.4 187.3 835.9 201.1 801.8 210.9 792.2 215.4 781.1 218.5 782.9 189.2 786.4 146.2 790.2 124.5 792.5 99.5 800.9 96.8 779.7 79.3 765.4 71.1 791.9 76.3 811.1 78.2 799.9 56.9 801.1 55.8 797.6 42.2 797.4 30.6 779 29.9 779.2 1 799.5 4.8 898.2 17.2 893.3 27 892.4 37.5 895.6 53.5 893.8 66.6 891.7 71.8 893.1 77.5 897.5 81.8 921.7 81.1 923.8 100 933.1 99.1 934.3 100.3 936.9 112.5 944.1 132.5 946.2 139.4 948.5 156.1 951.3 161.5 955.7 166.8 950.4 174.6 903.3 158.5 901.5 159.9 913.1 175.9 920.1 189.5 921.9 202.6 921.5 206.6 Z" data-holc_grade="B"/>
<path d="M 765.9 1941.1 770 1941.6 777.5 1943.5 799.4 1944.9 815.2 1946.2 837.8 1950.2 839 1957.3 796.6 1967.9 792.2 1982.1 788.9 1992.3 787.7 1997.2 787.7 2000.3 739.3 1994.5 712.7 1992.4 709 1993.5 712.5 1998.8 713.4 2005.6 710.9 2013.6 711.3 2021.6 714.6 2031.1 717.6 2052.2 708.1 2052.4 680.1 2051.6 660.6 2051.3 656.9 1996.8 634 1990.8 634.3 1984.6 632.4 1977.9 698.3 1986.3 705.1 1979.7 708.8 1969.5 710.6 1957.7 735.3 1961.3 737 1937.6 765.9 1941.1 Z" data-holc_grade="B"/>
<path d="M 770.3 1885.2 796 1887.4 792.3 1902.3 789.5 1910.4 784.3 1915.5 748.7 1912.3 734.4 1910.3 719.8 1908.2 699.1 1907.6 679.4 1905.2 683.7 1876.6 709 1878.5 741.2 1882.3 770.3 1885.2 Z" data-holc_grade="B"/>
<path d="M 876.7 1939.4 915.1 1909.5 927.4 1921.2 938.9 1933.9 960.3 1951.8 976 1961.7 985.7 1966.5 971.9 1982.8 958.1 1996.8 932 1980.5 901.3 1957.6 876.7 1939.4 Z" data-holc_grade="B"/>
<path d="M 1032.6 2248.7 988.4 2242.5 994.4 2237.8 995.8 2194 1023.3 2169.6 1033.6 2155.8 1042.4 2161.2 1009.3 2198 1054.5 2227.6 1029.4 2242.1 1032.6 2248.7 Z" data-holc_grade="B"/>
<path d="M 1154 1625.4 1127.6 1665.6 1120.4 1699.5 1154.6 1706.2 1181.4 1636 1180 1627 1213.2 1634.5 1244.6 1634.5 1203 1751.6 1192.9 1776.3 1165.8 1761.9 1159.4 1764.6 1163.4 1771.9 1158.2 1779.1 1141.3 1802.8 1134.9 1813.7 1158.7 1825.6 1152.8 1832.7 1133.9 1853 1114.4 1874.6 1082.5 1857 1114.4 1823.8 1103.2 1817.2 1093.5 1815 1079.1 1800.5 1057.1 1814.5 1043.9 1825.7 1036.9 1832.8 1012.1 1818 1011.7 1797.3 1017 1791.8 1018.7 1772.4 1024.3 1765.9 1047 1658.5 1048.6 1634.7 1137.6 1644.3 1150.9 1625.2 1154 1625.4 Z" data-holc_grade="B"/>
<path d="M 1026.1 2085.8 1047.1 2062.9 1105.3 2097.1 1088 2115 1074.1 2114.3 1026.1 2085.8 Z" data-holc_grade="B"/>
<path d="M 1232.7 1804.8 1212.7 1829.9 1204.1 1832.2 1192.6 1825.6 1184.4 1836.1 1171 1828.6 1170.2 1826.8 1200.6 1788.9 1232.7 1804.8 Z M 1232.7 1804.8 1240.7 1798 1297 1825.3 1300.4 1812.2 1286.1 1804.6 1285.8 1795 1203 1751.6 1244.6 1634.5 1256.4 1623 1255.7 1595.4 1258.5 1574.7 1262 1556.6 1236.5 1554.7 1240.4 1535.3 1226 1533.4 1225.7 1523.1 1188.3 1519.5 1191.1 1494.1 1220.1 1491.1 1249.1 1492.5 1293.1 1497.1 1458.7 1516.5 1445.4 1587.9 1426.2 1682.1 1437 1728.2 1339.2 1851.1 1417.1 1892.3 1407.3 1906.4 1361.9 1884.3 1341.7 1906.7 1323.9 1928 1285.1 1907.8 1292.1 1896.1 1327 1858.6 1297.7 1845.8 1300.1 1841.4 1232.7 1804.8 Z" data-holc_grade="B"/>
<path d="M 1466.4 1475.4 1412.6 1468 1390.9 1465 1298 1453.8 1313 1379.1 1484.2 1395.2 1480 1409.6 1473 1429 1466.4 1475.4 Z M 1249.5 1451.5 1250.4 1433.3 1206.6 1428.5 1206.6 1415 1263.4 1371.1 1288.5 1375.1 1287.7 1378 1286 1386.1 1282.6 1392.1 1272.9 1404.1 1266.6 1412.5 1259.1 1423.1 1256.4 1433.7 1253.6 1451.9 1249.5 1451.5 Z" data-holc_grade="B"/>
<path d="M 1616.3 1410.8 1610.1 1436.7 1595.8 1503.6 1548.1 1488.2 1466.4 1475.4 1473 1429 1480 1409.6 1519.5 1415.6 1524.7 1396.1 1524.4 1398.7 1616.3 1410.8 Z" data-holc_grade="B"/>
<path d="M 1278.2 1219.4 1276 1230.1 1269.2 1256 1263.9 1288.3 1234.1 1293.1 1171.6 1286.3 1168.6 1284.7 1135.1 1280.5 1111.6 1279.3 1092.2 1276.9 1090.1 1278.5 1052.7 1274.2 1050.6 1289.6 1022.6 1286.5 1019.6 1307.3 1023.8 1310.4 1021 1322.2 988.4 1326.9 998.2 1281.4 912.9 1273.1 908.7 1304.5 901.1 1300.5 879.4 1297.4 873.1 1333.5 871.7 1349.3 829.3 1345.8 824.4 1365.7 785 1363.4 781.5 1358.6 785 1337.7 785.1 1332 788 1319.9 792.6 1307.9 802 1267.4 804.9 1247.8 810.4 1220.8 843.6 1222.4 849.4 1222.7 890.3 1222.3 930.2 1224.9 987.2 1229 1052 1236.5 1137.9 1248.9 1160 1249.6 1182.6 1251.6 1201.9 1254.1 1220.3 1257.6 1235.7 1257.6 1250.1 1195.9 1282 1201 1278.2 1219.4 Z" data-holc_grade="B"/>
<path d="M 1307 1040.5 1303.5 1057.1 1329.4 1071 1313.7 1093.5 1307.5 1113 1329.1 1117.4 1348 1121.9 1374.5 1128.9 1371.6 1137.8 1422.2 1148.7 1425.4 1138.3 1469.7 1157.4 1472.6 1154.2 1495 1164 1517.6 1169.2 1546.5 1175.8 1546.1 1177.3 1543.6 1186.5 1334.3 1142.4 1331.7 1149.6 1261.3 1133.7 1255.1 1173.5 1250.1 1195.9 1214.7 1191.2 1215.6 1183.5 1227.5 1114.9 1176.1 1107.2 1177.5 1097.8 1195.7 1098.5 1235.3 1103.1 1237.8 1091.6 1239.5 1077.4 1267.9 1084.3 1270.4 1071.6 1242.6 1066.1 1244.9 1055 1248.5 1036 1307 1040.5 Z" data-holc_grade="B"/>
<path d="M 1407.3 1906.4 1398 1921 1402.6 1922.9 1241.2 2064.6 1201 2099.1 1168.2 2122.8 1164.3 2120.4 1170.6 2101.5 1167.1 2057.3 1204.5 2025.6 1196.5 2019.3 1203.1 2011.9 1174.8 1995.5 1180.4 1981.6 1159.1 1972.6 1179.3 1950.7 1086.4 1905.1 1100.4 1891 1184.9 1933.3 1239.6 1962.7 1255 1946.8 1284.7 1960.9 1323.9 1928 1341.7 1906.7 1361.9 1884.3 1407.3 1906.4 Z" data-holc_grade="C"/>
<path d="M 1239.9 848.2 1234.1 856.2 1204.2 896.3 1202.8 897.9 1159.5 941.8 1052.4 888 988.1 852.6 1053.3 765.3 1057.1 766 1120.5 795.3 1121.7 793.2 1169.1 816.2 1239.9 848.2 Z" data-holc_grade="C"/>
<path d="M 1345.8 955.2 1398.4 976.6 1380.9 1002.5 1352.3 1042.1 1346.5 1050.1 1330.8 1042.3 1307 1040.5 1248.5 1036 1244.9 1055 1237.6 1052.9 1141.9 1043.8 1147.1 1025.2 1151.8 999 1157.6 977.4 1159.5 941.8 1202.8 897.9 1231.3 913.3 1239.1 917.7 1316.6 943.3 1345.8 955.2 Z" data-holc_grade="C"/>
<path d="M 1398.6 879.1 1345.8 955.2 1316.6 943.3 1239.1 917.7 1231.3 913.3 1202.8 897.9 1204.2 896.3 1234.1 856.2 1292.1 883.7 1286.9 890.8 1319.3 905.3 1351.1 859.2 1398.6 879.1 Z" data-holc_grade="C"/>
<path d="M 1481.8 845 1588.5 891.4 1703.1 940.9 1660.1 1002.1 1613.7 1068.1 1602.9 1083.4 1577.2 1053.3 1559.3 1045.9 1567.7 1031.9 1521.8 1010.5 1549.2 968.6 1401.7 901.9 1374.9 942.5 1398.9 954.7 1392.7 963.8 1403.4 969.5 1398.4 976.6 1345.8 955.2 1398.6 879.1 1436 825.4 1481.8 845 Z M 1533 896.7 1503.7 881.7 1488.7 902.2 1479.9 899.2 1473.6 911.2 1514.9 930 1524.3 916.9 1522.2 909.8 1533 896.7 Z" data-holc_grade="C"/>
<path d="M 1660.1 1002.1 1703.1 940.9 1727.4 909.2 1760.6 863.9 1831 825.8 1873.4 867 1890.2 885.7 1899.7 907.1 1904.7 917.1 1912.5 932.9 1816.9 963.8 1833.7 992.2 1782.3 983 1739.8 961.2 1694 1018 1660.1 1002.1 Z" data-holc_grade="C"/>
<path d="M 1117.5 734.4 1116.2 731.7 1115.4 724 1091.2 719 1098.4 707.8 1129.3 664.7 1134.4 669.2 1145.4 679 1150.9 685.2 1165.7 694.9 1194.9 713.6 1201.9 718.1 1216 727.8 1203.5 727.9 1186.4 728.5 1158.5 730.1 1144.4 753.1 1133 747.9 1124.5 742 1118.4 736.5 1117.5 734.4 Z M 1154.1 641.2 1174.1 617 1206.7 575.4 1225.9 553.3 1243.1 524.5 1259.1 500.6 1272.8 483.4 1281.2 473.6 1303.9 437.7 1316.1 419.1 1317.8 417.3 1332.4 432.8 1293.1 484.6 1281 495.6 1265.6 523.3 1255.6 547.3 1222.2 589.4 1213.5 623.9 1203.7 637.6 1191.7 659 1154.1 641.2 Z" data-holc_grade="C"/>
<path d="M 434.8 1744.5 439.6 1720.8 445.4 1688.5 447.7 1666.4 453.8 1639.3 467.5 1637.7 484.1 1633.6 491.7 1630 508.1 1629.4 507.8 1638.5 534 1634.4 568.1 1634.4 569.8 1625.3 594.3 1623.4 622.8 1626 627.5 1597.3 657.5 1600.9 678.4 1601.4 688.6 1600.9 696.2 1615 698.5 1624.8 702.6 1638.5 724.4 1680.3 639.4 1673.5 637.7 1684.2 562.6 1678.8 566.3 1668.7 551.8 1669.9 527.6 1678.5 522.4 1713.1 512.5 1749.8 434.8 1744.5 Z M 1258.5 1574.7 1255.7 1595.4 1256.4 1623 1244.6 1634.5 1213.2 1634.5 1180 1627 1154 1625.4 1150.9 1625.2 1152.3 1623.2 1168.7 1599.7 1174.8 1565.3 1178.4 1555.1 1181.8 1545.3 1206.8 1548.5 1197.2 1585.1 1229.2 1588.1 1234.2 1572.6 1258.5 1574.7 Z" data-holc_grade="C"/>
<path d="M 502.5 1810.6 518.3 1811.5 546.5 1815 564 1816.8 557.3 1832.1 554.7 1843 553.4 1850.6 555 1863.4 546.3 1862.1 519.5 1864.5 493.9 1867.3 499.1 1854.2 503.1 1825.9 502.5 1810.6 Z" data-holc_grade="C"/>
<path d="M 314.9 1580.2 309.9 1582.7 299.1 1586.7 303.3 1593.5 284.2 1597.4 293.1 1610.2 274 1607.7 255.1 1604 236 1612.6 227.6 1618.4 213.7 1636.4 198.6 1629.5 179.4 1628.3 174.1 1627.2 170 1623.3 168 1617.8 163.3 1617.6 170.5 1580.3 173.2 1566 176.1 1538.4 182.8 1530.3 186.6 1520.9 190.1 1509.1 245.1 1507.7 253.2 1507.1 272.8 1505.5 275.1 1484.3 285.3 1484.1 284.8 1493.2 306 1494.1 329.1 1498 326.5 1503.6 325.1 1514.2 316.3 1565.3 314.9 1580.2 Z" data-holc_grade="C"/>
<path d="M 274.7 1369 336.1 1378.4 339.9 1360.6 343.3 1361.2 349.7 1362.3 351.4 1373.7 350.4 1387.9 346.2 1402.1 343.1 1415.2 334.7 1425.6 323 1435.5 314.2 1443 291.1 1471.4 285.3 1484.1 275.1 1484.3 272.8 1505.5 253.2 1507.1 256.3 1489.1 261.8 1471.3 264.7 1460.4 265.6 1452.7 265 1451.3 229.2 1460 216.1 1461.3 219.9 1448.3 175.4 1443.3 173.3 1455.9 140.5 1451.1 124.7 1449.5 157.2 1352.7 170.8 1353 274.7 1369 Z" data-holc_grade="C"/>
<path d="M 1595.8 1503.6 1544.7 1742.2 1466.7 1733.1 1417.1 1892.3 1339.2 1851.1 1437 1728.2 1426.2 1682.1 1445.4 1587.9 1458.7 1516.5 1466.4 1475.4 1548.1 1488.2 1595.8 1503.6 Z" data-holc_grade="C"/>
<path d="M 332.3 1440.2 323 1435.5 334.7 1425.6 343.1 1415.2 346.2 1402.1 350.4 1387.9 351.4 1373.7 349.7 1362.3 343.3 1361.2 346.2 1326.5 345.8 1306.3 386.7 1306.6 409.4 1307.2 414.9 1307.6 446.8 1309.9 443.3 1348.4 488 1352.5 487 1377.8 501.6 1380.6 499.9 1401.6 524 1404 520.5 1428.6 467.4 1424.8 442.6 1422.6 436.3 1437.9 427.9 1451.3 401.4 1460 386 1458.4 360.2 1450.2 332.3 1440.2 Z M 1178.9 57.2 1342.7 89.9 1359.5 146.3 1277.4 146.3 1225 147.6 1205.8 150.1 1215.2 99.1 1215.6 80 1179.9 80.6 1178.9 57.2 Z" data-holc_grade="C"/>
<path d="M 713.1 1537.6 712.3 1540.8 683.7 1546.8 663.8 1546 649.1 1541.6 639.3 1534.5 648.2 1499.1 651.2 1479.6 658.4 1449.2 689.4 1453.2 725.3 1454.8 741.9 1441.8 748.6 1439.5 737.1 1466.6 727 1496.1 719.3 1511.3 713.1 1537.6 Z" data-holc_grade="C"/>
<path d="M 689.4 1453.2 658.4 1449.2 651.2 1479.6 648.2 1499.1 638.6 1499.6 616.2 1498.2 598.3 1495.3 574.8 1489.1 557.1 1482.5 545.5 1477.8 545 1471.4 545.4 1469 552.2 1426.3 562 1417.8 552.4 1403.6 554.8 1388.3 574.8 1389.4 579.5 1383.7 578.8 1344.9 581.3 1345 582.7 1333.8 582.7 1318.2 599.1 1317 599.2 1349.9 598.5 1367.7 612.5 1368.3 630 1370.1 671.7 1366.8 667.5 1387.7 659.1 1421 675.6 1423.8 698 1418.1 689.4 1453.2 Z" data-holc_grade="C"/>
<path d="M 327.8 1018.2 305.7 1019.1 306.3 987.9 273.7 989.1 286.5 951.3 327.3 950.2 327.8 1018.2 Z" data-holc_grade="C"/>
<path d="M 337.1 782 370.1 772.4 377.7 780 400.4 780.6 399.1 810.9 395.7 843.9 328.8 842.4 319.9 841.5 337.1 782 Z" data-holc_grade="C"/>
<path d="M 526.3 835 530.3 835.5 525 864.2 523.7 877.3 522.1 881.9 513.7 879.5 506 873.5 503.8 869.5 502.5 862.9 504.7 853.6 504 849.1 501.4 844 500.3 839.1 504 835.4 506.7 832.2 526.3 835 Z" data-holc_grade="C"/>
<path d="M 812.1 938.7 729.7 928 732.3 916.5 731.8 901 761.4 919.9 845.9 929.2 845.3 942.4 812.1 938.7 Z" data-holc_grade="C"/>
<path d="M 984.4 660 1048.5 687.1 1077.1 699.1 1034 756.4 1053.3 765.3 988.1 852.6 963.4 878.2 919.5 936 863 930.8 868.7 889.5 861.7 887.9 828.2 884.3 828.5 874.8 835.8 869.3 830.4 857 830.4 852.5 833.2 814.8 841.2 814.8 841.5 812.8 894.6 823.4 895.2 812.5 911.2 786.6 930.7 765.2 941.2 755.9 932.4 751.4 943.2 710.2 931 705.2 921.7 745.9 872.5 721.2 859.4 739.6 857.6 751.6 845.1 790.9 804.1 781.7 801.6 781.7 797.2 781.6 786.6 778.5 758.3 770.3 743.6 769.4 741.7 748.2 770.6 752.2 810.7 757.7 818.6 721.8 789.7 705.1 804.4 683.3 838.1 702.6 838.6 697.9 837.7 679.3 858.2 678.4 879.1 679.5 919.2 695.5 944.6 707.3 948.8 689.3 949.2 674.9 962 679.9 972.5 659.5 984.4 660 Z" data-holc_grade="C"/>
<path d="M 1180.5 281 1201.5 302.1 1205.8 310.8 1211.6 315.3 1231.7 341 1236.4 345.7 1289.4 381.2 1331 402.7 1317.8 417.3 1316.1 419.1 1303.9 437.7 1281.2 473.6 1272.8 483.4 1259.1 500.6 1243.1 524.5 1225.9 553.3 1206.7 575.4 1174.1 617 1154.1 641.2 1152 643.8 1138.9 652.9 1129.3 664.7 1098.4 707.8 1094.5 707.6 1102.6 691.9 1107.6 677.4 1110.8 665.4 1109.6 650.1 1111.1 644.5 1112.3 638.8 1110.2 628.8 1103.5 613.3 1086.1 585.4 1075.6 565.2 1068.9 554 1062.8 547.7 1050 541.8 1042.4 541.3 1031.9 540.9 1015.9 541.3 996.7 570.4 987.7 565.4 971.7 555.6 965.2 550.6 958.6 542.7 966 533.4 978.3 519.2 1002.7 484.7 1017.8 464.5 1028.2 450 1069.6 465.2 1127.4 490.8 1135.4 476.9 1146.7 463.2 1156.6 449.1 1173.4 426 1156.8 420 1110.2 400.4 1074.3 385.8 1125.5 314.4 1136.8 310.1 1180.5 281 Z M 1180.5 281 1147.6 263.7 1151.1 223.6 1162.3 223.9 1180.7 222.8 1180.3 219.2 1183.5 204.5 1218.9 202.3 1226.9 203.1 1223 215.6 1222.6 235.5 1203.3 235.2 1201 251.9 1198.2 254.5 1194.6 272.3 1180.5 281 Z" data-holc_grade="C"/>
<path d="M 1232.7 1804.8 1200.6 1788.9 1170.2 1826.8 1161.3 1822.4 1192.9 1776.3 1203 1751.6 1285.8 1795 1286.1 1804.6 1300.4 1812.2 1297 1825.3 1240.7 1798 1232.7 1804.8 Z" data-holc_grade="C"/>
<path d="M 513 520.2 479.7 500.6 449.9 486.6 437 480.9 431.8 487.6 414.1 484.3 424.9 435.7 441.2 385.1 449.3 358.1 514.2 359.2 513.7 371.7 508.1 387.8 492.4 387.6 501.1 458 541.9 463 532 484.8 528.5 497.7 518.9 514.1 513 520.2 Z" data-holc_grade="C"/>
<path d="M 646.1 283.1 663 273.8 713.1 256.5 745.9 242 746.8 227.9 781.1 218.5 792.2 215.4 801.8 210.9 835.9 201.1 864.4 187.3 871.1 196.8 869.4 212.5 907.2 208 921.5 206.6 916.5 229.1 911.6 244.5 906 275.6 897.9 306.5 890.3 327.4 883.3 320.6 870 314 857.1 309 852.3 307.8 857.4 301.6 867.1 276 868.9 259.4 837.8 255.4 795 250.9 786.6 250.7 768.7 257 764.4 260.6 764.8 268.1 768.9 287.2 775.8 309.9 780.8 322.9 797.9 322.2 852.6 315.8 833.9 343.8 830.1 342.6 734.9 357.8 716.3 361.7 712.8 374.6 711.9 383 700 407.6 697.6 408.9 694.7 418.7 670.8 414.2 669.4 424.2 675.2 433 669.5 432.8 637.7 432.5 542.5 431.9 549.2 389.9 565.2 391.9 579.7 368.1 630.1 403.9 635.6 397.3 626 387.6 623.7 357.8 664.7 359.6 646.1 283.1 Z" data-holc_grade="C"/>
<path d="M 781.1 218.5 746.8 227.9 748.7 201.1 746.8 166.5 747.3 125.9 704.5 125.9 705.9 110.6 702.6 90.9 702.6 64.1 706.1 33.2 782.6 52.9 787.9 70 791.9 76.3 765.4 71.1 779.7 79.3 800.9 96.8 792.5 99.5 790.2 124.5 786.4 146.2 782.9 189.2 781.1 218.5 Z" data-holc_grade="C"/>
<path d="M 606.2 108.6 606.5 117.5 603.9 123.6 604.2 150.2 578 149.1 557.9 146.6 542.2 145.7 543.1 104.4 540.3 68.5 543.7 54.5 551.1 20.7 608.1 34.6 604.8 55.8 604.4 72.8 606.7 90.1 606.2 108.6 Z" data-holc_grade="C"/>
<path d="M 624 260.1 624.3 270.1 623.4 276 571.6 271.4 573.1 243.5 585.9 230.8 591.1 235.8 617.9 254.9 624 260.1 Z" data-holc_grade="C"/>
<path d="M 950.4 174.6 955.7 166.8 951.3 161.5 948.5 156.1 946.2 139.4 944.1 132.5 936.9 112.5 934.3 100.3 933.1 99.1 923.8 100 921.7 81.1 897.5 81.8 893.1 77.5 891.7 71.8 893.8 66.6 895.6 53.5 892.4 37.5 893.3 27 898.2 17.2 1034.2 31.9 1085.2 38.9 1082.2 80 981.5 78.6 990 112.2 971.6 112.4 978.3 129.7 977.5 156.7 984.7 188.3 950.4 174.6 Z" data-holc_grade="C"/>
<path d="M 379.1 1778.9 427.1 1784.7 425.6 1796.9 424.3 1819.3 417.4 1818.6 356.1 1808.9 310.4 1801.3 312 1792.8 313 1771.5 369.2 1777.7 379.1 1778.9 Z" data-holc_grade="C"/>
<path d="M 796 1887.4 770.3 1885.2 776.3 1858.3 778.9 1832.9 782.2 1780.2 701 1773.5 709.4 1703.9 736.8 1705.5 761.9 1750.6 791.9 1778.7 834.6 1822.7 848 1837.6 873.7 1867.6 864.6 1874.3 851 1881.6 837.9 1886.8 822.7 1890.8 809.3 1889.6 796 1887.4 Z" data-holc_grade="C"/>
<path d="M 839 1957.3 837.8 1950.2 815.2 1946.2 799.4 1944.9 777.5 1943.5 770 1941.6 765.9 1941.1 778.4 1920.7 800.2 1924 822 1926.4 837.4 1927 841.6 1922.4 847.2 1918.1 853.3 1925.8 863.8 1946 845.1 1954.8 839 1957.3 Z" data-holc_grade="C"/>
<path d="M 634 1990.8 656.9 1996.8 660.6 2051.3 634.3 2050.2 636.1 2037.8 635.4 2026.3 621.5 1991.9 634 1990.8 Z" data-holc_grade="C"/>
<path d="M 713.1 1537.6 719.3 1511.3 727 1496.1 737.1 1466.6 748.6 1439.5 769 1394.1 798.4 1381.5 818.1 1377.1 851.4 1366.6 842.8 1375.9 845.6 1409.3 834.2 1419.7 793.7 1468.1 787.9 1472.3 773.2 1475 761.8 1479.8 758.3 1487.6 759 1496 752.7 1509.4 787.6 1512.7 784.4 1526.2 783.4 1541.5 780.9 1560.2 774.8 1580.2 771.6 1595.9 768.5 1612.1 763 1639.6 764.1 1648.1 771.3 1660.3 749.9 1669.2 735 1653 725.7 1638.7 721.7 1629.9 721 1622.1 696.8 1579.7 716.1 1564.9 732.9 1547.6 727.3 1532.7 713.1 1537.6 Z" data-holc_grade="C"/>
<path d="M 1167.1 2057.3 1170.6 2101.5 1164.3 2120.4 1161.3 2126.9 1162.7 2137.8 1166.5 2144.1 1183.3 2152 1190.3 2153.4 1190.3 2157.2 1191 2165.2 1194.8 2172 1202.1 2178 1218.6 2184.3 1231.8 2187 1198 2206.4 1182.6 2226.1 1177.5 2265.1 1170.5 2286.2 1166.8 2301.9 1166.8 2321.6 1028 2295.3 1034.5 2280 1042.4 2250.9 1032.6 2248.7 1029.4 2242.1 1054.5 2227.6 1009.3 2198 1042.4 2161.2 1033.6 2155.8 1023.3 2169.6 995.8 2194 933.4 2183.1 1026.1 2085.8 1074.1 2114.3 1088 2115 1105.3 2097.1 1047.1 2062.9 1089.9 2018.8 1098.8 2028.7 1161.2 2046.5 1167.1 2057.3 Z" data-holc_grade="C"/>
<path d="M 851.4 1366.6 818.1 1377.1 798.4 1381.5 769 1394.1 767.8 1389.1 785 1363.4 824.4 1365.7 829.3 1345.8 871.7 1349.3 873.1 1333.5 879.4 1297.4 901.1 1300.5 908.7 1304.5 912.9 1273.1 998.2 1281.4 988.4 1326.9 965.6 1330.7 950.2 1335.7 910.6 1348.8 851.4 1366.6 Z" data-holc_grade="C"/>
<path d="M 1206.6 1415 1206.6 1428.5 1202 1447.3 1191.1 1494.1 1188.3 1519.5 1144.3 1515.2 1147.1 1486.6 1151.3 1486.6 1158.7 1438.2 1134.9 1436.1 1127.2 1486.3 1013 1476.7 1017.3 1464.2 1004.7 1456.5 1018.7 1394.8 990.1 1391.6 963.5 1387.2 945.4 1380.6 939.1 1365.4 982.4 1338.3 982.4 1345.7 1002.3 1348.2 1004 1333.7 1122.5 1325.2 1120.7 1336.4 1217.1 1354.4 1218.5 1344.6 1224.8 1343.3 1226.2 1341.1 1261.8 1344.1 1268.5 1347.9 1238.1 1370 1218.2 1367.3 1208.7 1407.1 1155.3 1399.2 1151.1 1429.5 1206.6 1415 Z M 1168.6 1284.7 1166.8 1298.9 1131.8 1295.3 1129 1308.6 1021 1322.2 1023.8 1310.4 1019.6 1307.3 1022.6 1286.5 1050.6 1289.6 1052.7 1274.2 1090.1 1278.5 1092.2 1276.9 1111.6 1279.3 1135.1 1280.5 1168.6 1284.7 Z" data-holc_grade="C"/>
<path d="M 1616.3 1410.8 1661.1 1415.8 1743.8 1438.3 1740.8 1459.2 1726 1464.9 1654.4 1446.5 1654.1 1441.7 1610.1 1436.7 1616.3 1410.8 Z M 1616.3 1410.8 1524.4 1398.7 1524.7 1396.1 1526.5 1382.3 1488.4 1377.1 1484.2 1395.2 1313 1379.1 1288.5 1375.1 1263.4 1371.1 1289.2 1347.5 1321 1351.9 1487.8 1367.3 1552.2 1376.9 1621.5 1384.8 1616.3 1410.8 Z" data-holc_grade="C"/>
<path d="M 1263.9 1288.3 1269.2 1256 1276 1230.1 1278.2 1219.4 1348.6 1221.8 1336.4 1258.4 1332.3 1265.4 1334.1 1276.8 1263.9 1288.3 Z" data-holc_grade="C"/>
<path d="M 1543.6 1186.5 1542.8 1190.6 1537 1202.7 1532.9 1213.6 1361.8 1179.5 1356.8 1194 1255.1 1173.5 1261.3 1133.7 1331.7 1149.6 1334.3 1142.4 1543.6 1186.5 Z" data-holc_grade="C"/>
<path d="M 1231.8 2187 1218.6 2184.3 1202.1 2178 1194.8 2172 1191 2165.2 1190.3 2157.2 1190.3 2153.4 1183.3 2152 1166.5 2144.1 1162.7 2137.8 1161.3 2126.9 1164.3 2120.4 1168.2 2122.8 1201 2099.1 1241.2 2064.6 1402.6 1922.9 1398 1921 1407.3 1906.4 1417.1 1892.3 1466.7 1733.1 1544.7 1742.2 1578.8 1746.2 1541 1780.3 1533.6 1808.7 1452.2 1930.8 1461.7 1936.8 1443.9 1943 1436.2 1949.3 1326.5 2042.8 1313.6 2125 1303.1 2149.9 1258.4 2187.8 1236 2187.8 1231.8 2187 Z" data-holc_grade="D"/>
<path d="M 1926.9 1139.5 1802.2 1110.8 1791.7 1110.6 1746.3 1101 1695 1090.6 1690.4 1090.6 1613.7 1068.1 1660.1 1002.1 1694 1018 1739.8 961.2 1782.3 983 1833.7 992.2 1816.9 963.8 1912.5 932.9 1999 1099.4 1973.5 1104 1967.2 1134.8 1945.6 1130.7 1942.4 1140.3 1926.9 1139.5 Z" data-holc_grade="D"/>
<path d="M 332.3 1440.2 338.4 1443.2 376.1 1467 393.6 1499 392 1504.1 384.8 1544.7 373 1542.7 369.5 1555.1 319.9 1577.8 314.9 1580.2 316.3 1565.3 325.1 1514.2 326.5 1503.6 329.1 1498 306 1494.1 284.8 1493.2 285.3 1484.1 291.1 1471.4 314.2 1443 323 1435.5 332.3 1440.2 Z" data-holc_grade="D"/>
<path d="M 583.1 1259.1 593.9 1261.6 590.1 1270.9 586.4 1279.2 585.3 1287.8 582.7 1300.1 581.1 1318 582.7 1318.2 582.7 1333.8 581.3 1345 578.8 1344.9 548.6 1344.6 549.9 1313.7 543.8 1308.1 544 1292.2 547 1254.3 549.8 1253 583.1 1259.1 Z" data-holc_grade="D"/>
<path d="M 446.8 1309.9 414.9 1307.6 427 1295.8 429.6 1282.7 428.7 1257.5 466.3 1259.5 485.3 1260.6 480.5 1299.9 457.6 1297.5 455.7 1310.6 446.8 1309.9 Z" data-holc_grade="D"/>
<path d="M 526.3 835 506.7 832.2 505.2 832 473 828.3 476.5 788.6 502.4 792.9 530.6 795.6 526.3 835 Z" data-holc_grade="D"/>
<path d="M 370.1 772.4 337.1 782 350.1 735.7 391.7 726.7 391.4 750.7 390.3 769.3 379.1 769.9 370.1 772.4 Z" data-holc_grade="D"/>
<path d="M 746.8 227.9 745.9 242 713.1 256.5 663 273.8 646.1 283.1 638 272.1 624 260.1 617.9 254.9 591.1 235.8 585.9 230.8 567 212.6 557.3 193.8 554.7 191.7 546.6 173.4 542.2 145.7 557.9 146.6 578 149.1 604.2 150.2 603.9 123.6 606.5 117.5 606.2 108.6 622.8 112.7 637.4 113.9 654 113.6 705.9 110.6 704.5 125.9 747.3 125.9 746.8 166.5 748.7 201.1 746.8 227.9 Z" data-holc_grade="D"/>
<path d="M 1595.8 1503.6 1610.1 1436.7 1654.1 1441.7 1654.4 1446.5 1726 1464.9 1740.8 1459.2 1743.8 1438.3 1661.1 1415.8 1616.3 1410.8 1621.5 1384.8 1552.2 1376.9 1487.8 1367.3 1321 1351.9 1289.2 1347.5 1322.4 1320.9 1324 1319.8 1326.1 1339.8 1428.7 1348.1 1432.1 1327.2 1441 1312 1449.2 1275.3 1960.7 1377.8 1979.8 1390.2 1940 1455.7 1894.3 1532.5 1871.7 1562.9 1835.2 1597.8 1791.6 1552.2 1770.9 1577.6 1753.9 1565.8 1701 1549.2 1691.2 1598.9 1683.1 1642.8 1695.4 1641.3 1747.6 1610.2 1782.8 1641.3 1722.7 1676.8 1715.9 1671.4 1698 1681.9 1689.4 1676.3 1678 1680.3 1668.4 1679.7 1666.3 1683.6 1623.9 1736.4 1608.6 1746.2 1601.8 1746.9 1598.6 1746 1614.2 1678.5 1610.7 1677.9 1609.7 1675.7 1619.5 1667.2 1623.5 1665.4 1648.4 1649.5 1605.3 1643.3 1596.9 1676.7 1590.4 1676.5 1585.3 1706.3 1591.1 1714.7 1588.5 1726 1588.8 1728.9 1589.7 1731.4 1592.5 1733.3 1578.8 1746.2 1544.7 1742.2 1595.8 1503.6 Z" data-holc_grade="D"/>
<path d="M 1324 1319.8 1322.4 1320.9 1316.3 1321.6 1278.8 1324.3 1258.4 1320 1263.9 1288.3 1334.1 1276.8 1395.2 1268.2 1324 1319.8 Z" data-holc_grade="D"/>
<path d="M 1334.1 1276.8 1332.3 1265.4 1336.4 1258.4 1348.6 1221.8 1361.1 1217.9 1439.5 1232.7 1395.2 1268.2 1334.1 1276.8 Z" data-holc_grade="D"/>
<path d="M 1574.5 1138 1565.1 1151.5 1557.7 1156.1 1526.9 1143.5 1519.1 1152.2 1526.4 1157.4 1517.6 1169.2 1495 1164 1472.6 1154.2 1469.7 1157.4 1425.4 1138.3 1422.2 1148.7 1371.6 1137.8 1374.5 1128.9 1348 1121.9 1329.1 1117.4 1307.5 1113 1313.7 1093.5 1329.4 1071 1346.5 1050.1 1352.3 1042.1 1456.9 1086.2 1543.6 1123.9 1574.5 1138 Z" data-holc_grade="D"/>
<path d="M 1602.9 1083.4 1574.5 1138 1543.6 1123.9 1456.9 1086.2 1352.3 1042.1 1380.9 1002.5 1398.4 976.6 1403.4 969.5 1392.7 963.8 1398.9 954.7 1374.9 942.5 1401.7 901.9 1549.2 968.6 1521.8 1010.5 1567.7 1031.9 1559.3 1045.9 1577.2 1053.3 1602.9 1083.4 Z" data-holc_grade="D"/>
<path d="M 1533 896.7 1522.2 909.8 1524.3 916.9 1514.9 930 1473.6 911.2 1479.9 899.2 1488.7 902.2 1503.7 881.7 1533 896.7 Z" data-holc_grade="D"/>
<path d="M 1532.9 1213.6 1537 1202.7 1542.8 1190.6 1543.6 1186.5 1546.1 1177.3 1590.2 1186.7 1652.8 1200.4 1673.5 1203.3 1705.8 1209.9 1697.9 1233.6 1608 1235.6 1546.9 1237 1526.2 1232.7 1532.9 1213.6 Z" data-holc_grade="D"/>
<path d="M 1565.1 1151.5 1574.5 1138 1602.9 1083.4 1613.7 1068.1 1690.4 1090.6 1695 1090.6 1746.3 1101 1791.7 1110.6 1802.2 1110.8 1926.9 1139.5 1919.2 1161.8 1898.3 1159.7 1887.8 1178.8 1879.4 1178.8 1873.1 1189.1 1861.6 1186.1 1859.5 1193.8 1743.2 1171.9 1741.8 1189.9 1572 1154.2 1565.1 1151.5 Z" data-holc_grade="D"/>
</g>
</svg>