<?xml version="1.0"?>
<svg xmlns="http://www.w3.org/2000/svg" version="1.2" baseProfile="tiny" width="2000" height="1612" viewBox="0 0 2000 1612" stroke-linecap="round" stroke-linejoin="round">
<g id="holc_ad_data">
<path d="M 1012.2 460.9 1012.6 462.9 1044 463.3 1056.1 465.5 1067.5 464.2 1080.8 485.5 1020 486.1 981.6 486.9 981.3 459.3 1011.8 459.1 1012.2 460.9 Z" data-holc_grade="A"/>
<path d="M 1849.7 688 1842.2 676.8 1857.9 670 1865.1 667.4 1836.8 625.3 1858.4 617.8 1893.8 662.5 1884.9 668.4 1867.9 680.2 1860.5 684.5 1849.7 688 Z" data-holc_grade="A"/>
<path d="M 1858.6 576.1 1855.9 581.1 1883.6 593.4 1878 600.9 1865.9 596.2 1862.2 599.4 1871 612.5 1867.3 614 1858.4 617.8 1841.7 585.2 1839.8 583.3 1844.5 571.1 1858.6 576.1 Z" data-holc_grade="A"/>
<path d="M 1916.6 529.9 1957.9 544.5 1956.6 548.5 1954.3 571.4 1951.8 580.7 1943.7 604.3 1935.6 622.5 1926.2 632.9 1921.9 639.6 1919.6 646.2 1912.7 652.4 1901.9 657.9 1893.8 662.5 1858.4 617.8 1867.3 614 1868.1 617.1 1906.1 633.8 1911.3 632.1 1912 629.1 1871 612.5 1862.2 599.4 1865.9 596.2 1878 600.9 1883.6 593.4 1855.9 581.1 1858.6 576.1 1864.5 570.3 1871 572.9 1878 565.8 1902.3 575.8 1934.7 589.1 1938.3 583.4 1927.5 579.3 1931.1 573.1 1943.9 577.1 1944.8 573.8 1919.9 564.8 1922.3 560.5 1936.7 565.3 1950.5 548.5 1905 530.6 1905.5 528.2 1907.3 526.6 1916.6 529.9 Z" data-holc_grade="A"/>
<path d="M 1924.7 490.1 1930.1 472.6 1933.5 457.3 1935 450.4 1948 415.6 1949.6 410 1960.6 391.6 1966.9 385.9 1968.2 386.7 1970.1 391 1973.9 394 1984.7 401.6 1991.7 403.2 1995.8 408.6 1993.6 412.8 1992 421.1 1987.4 425.3 1984.1 434.5 1980.4 448.8 1977.1 453.4 1970.1 458.4 1966.6 480.3 1962.3 487.9 1959.6 500.7 1958.8 511.2 1960.1 524.8 1961.7 539.3 1957.9 544.5 1916.6 529.9 1924.7 490.1 Z" data-holc_grade="A"/>
<path d="M 1872.3 462.4 1900.2 469 1915 471.4 1930.1 472.6 1924.7 490.1 1886.6 488.3 1864 479.7 1864.8 461.8 1867.2 461.2 1872.3 462.4 Z" data-holc_grade="A"/>
<path d="M 554.5 948.8 540.5 953.4 540.3 956.7 536.5 957.9 535.8 962.3 529.5 965.9 512.2 970.8 500.2 973.2 500.7 971.5 497.1 966.4 486.7 970.4 487 975.8 480.9 974 476.2 975.8 463.6 976 452.3 968.8 452.3 982.8 436.6 980 434.1 946.2 431.8 940.2 489 938.4 513.8 938.4 533.8 946.4 551.9 942 554.5 948.8 Z" data-holc_grade="A"/>
<path d="M 981.6 486.9 982.5 494.9 983.6 506.7 983.8 517.2 983 527.5 982.9 529.2 984.3 543.8 945 543.8 910.1 544.3 909.4 529.8 908.7 523.5 907.5 488.5 938.1 487.8 937 475 956.6 475.2 958.4 487.4 981.6 486.9 Z" data-holc_grade="A"/>
<path d="M 1005 543.4 1003.6 527.9 983 527.5 983.8 517.2 983.6 506.7 982.5 494.9 981.6 486.9 1020 486.1 1020.8 542.1 1005 543.4 Z" data-holc_grade="A"/>
<path d="M 636.3 603.6 636.6 610.8 634.8 613.9 618.1 614.5 617.6 604.6 572.7 605.4 571.2 563.9 583.6 563.4 597.2 567.9 596.8 550.1 615.5 549.3 617 576.3 635.3 583.1 636.3 603.6 Z" data-holc_grade="A"/>
<path d="M 765.4 602.6 690.7 603.1 687.6 547.8 725.4 547.6 752.6 547.4 754.2 574.4 764.1 574.4 765.4 602.6 Z" data-holc_grade="A"/>
<path d="M 1756.6 544.2 1720.5 570.7 1685.5 580.5 1666.5 585.8 1664.1 557.2 1650.6 551.7 1650.8 533 1680.2 497.1 1744.4 522.2 1756.6 544.2 Z" data-holc_grade="A"/>
<path d="M 660.7 24.1 655.7 29.3 655.7 32.8 653.3 36.8 652.8 41.6 653.5 50.1 662 53.8 662.3 68 661.8 72.2 657.8 76.3 655.8 82.2 653 88.3 650.3 90.1 643.4 94.1 636.6 92.1 623.4 93.1 614.1 93.3 600.4 98.5 590.1 101.8 587.6 79.9 587.1 54.7 618 53.8 617.7 41.6 612.3 41.5 607.6 38.9 606.3 14.5 622.7 8.6 622.4 1.5 638.7 1 660.7 1.4 660.7 24.1 Z" data-holc_grade="A"/>
<path d="M 936.7 313.6 928 312.8 924.4 309.5 918.3 308.3 909.3 307.6 900.5 302 895.6 301.8 894.9 281.1 903.2 280.4 902.1 269.6 916.7 269.1 936.1 292.7 936.7 313.6 Z" data-holc_grade="A"/>
<path d="M 1818 640.9 1842.2 676.8 1849.7 688 1839.1 691.8 1831.6 695 1826.6 699.5 1819.5 708.3 1821.4 710.7 1816.7 720.3 1813.4 726.5 1808.2 729.2 1804.4 745 1800.9 750.9 1796.8 754.6 1791.4 757.9 1786.4 760.3 1783.2 765 1783.2 759.8 1778.2 754.4 1778.9 748.7 1759 717.5 1767 715 1770.2 718.2 1776.9 715.9 1773.5 709.7 1781 706.7 1749.5 656.2 1812.8 633.1 1818 640.9 Z" data-holc_grade="A"/>
<path d="M 640.2 548.9 615.5 549.3 613.4 514.8 612 482.3 637.7 481.2 638.8 500.9 640.2 548.9 Z M 907.5 488.5 908.7 523.5 883.5 523.9 883 517 871.6 517 872.9 544.5 852 544.5 809.2 545.5 809.1 538.4 836.1 537.4 833.4 488.8 847.5 488.8 846.9 479.6 810.9 480.4 812.6 517.9 779.6 518.3 777.8 484.7 788.4 484.7 788.1 477.2 833.6 476.6 833.3 463.3 841.2 463.3 841.9 469 842.3 475 907.1 474.6 907.5 488.5 Z M 759.4 464 760.7 491.6 754.9 491.9 755.6 513.2 720 513.5 720.2 492.2 715.3 492.3 714.8 478.7 698.2 479.3 697.8 469.2 693.3 469 692.8 466.2 675.9 466 675.1 452.8 696 451.6 696.4 462.3 700 462.3 700.2 465.3 753.3 464.5 751.7 440.6 764.1 451.6 765.3 464 759.4 464 Z" data-holc_grade="B"/>
<path d="M 922.6 790.3 846.3 791.3 844.9 764.2 945.7 761.3 951.1 761.2 955 790 931.1 790.3 922.6 790.3 Z" data-holc_grade="B"/>
<path d="M 1650.8 533 1650.6 551.7 1664.1 557.2 1666.5 585.8 1652.7 589.7 1633.2 561.2 1617.2 537.7 1541.8 563.4 1548.9 551.7 1542.1 540.2 1539.4 538.7 1536.5 535.3 1524.4 526.7 1522.6 523.8 1541 516.9 1539.8 496.4 1537 449.4 1572.7 448.3 1574.7 474.9 1624 474.8 1624.2 501.1 1649.4 500.7 1650.8 533 Z" data-holc_grade="B"/>
<path d="M 1633.2 561.2 1534.5 595.3 1526.1 587.5 1541.8 563.4 1617.2 537.7 1633.2 561.2 Z" data-holc_grade="B"/>
<path d="M 1666.5 585.8 1685.5 580.5 1707.1 611.9 1642.3 635.7 1638.1 629.3 1618.5 599.6 1584.8 609.2 1556.4 616.6 1534.5 595.3 1633.2 561.2 1652.7 589.7 1666.5 585.8 Z" data-holc_grade="B"/>
<path d="M 1757.8 546 1810.2 626.7 1800.9 632 1776 641.6 1751.2 649.1 1733.9 652.1 1707.1 611.9 1685.5 580.5 1720.5 570.7 1756.6 544.2 1757.8 546 Z" data-holc_grade="B"/>
<path d="M 739 58.3 738.8 56.7 722.1 56.6 721.8 51.5 716.2 51.5 715.3 31.2 707.2 30.2 705.8 25.8 709.7 20.9 723.7 20.4 723 12.6 735.5 12.3 737.2 40.9 770.7 40.9 770 28.7 810.3 27.2 811.9 48.8 783.1 49.8 783.9 57.3 739 58.3 Z" data-holc_grade="B"/>
<path d="M 744 120.5 766.9 120.1 778.1 131.1 777.9 139.6 779.4 146.6 772.9 151.8 758.5 152.8 745.7 153.1 744 120.5 Z" data-holc_grade="B"/>
<path d="M 601.7 220.8 648.6 220.2 684.2 219.4 712.8 218.1 712.3 233.6 712.3 268.3 711.7 294.9 703.9 302.4 640.8 303.4 641.2 283.9 603.4 283.8 601.7 220.8 Z" data-holc_grade="B"/>
<path d="M 914 213.2 918.5 220 915.6 223.2 914.7 234.1 896 233.6 896 240.4 886.8 240.6 863.2 214.4 838.8 188.2 911.8 184.5 929.5 199.1 902.5 198.9 914 213.2 Z" data-holc_grade="B"/>
<path d="M 902.1 269.6 903.2 280.4 894.9 281.1 895.6 301.8 859.3 302.7 860.7 325.1 824.9 325.7 824 294.7 871.7 293 869.7 269.1 902.1 269.6 Z" data-holc_grade="B"/>
<path d="M 1012.2 460.9 1011.8 459.1 981.3 459.3 982.7 434.6 1017.5 434 1018 446.2 1016.1 457.7 1012.2 460.9 Z" data-holc_grade="B"/>
<path d="M 952.1 310.3 947.3 313.5 936.7 313.6 936.1 292.7 916.7 269.1 930.9 268.8 931.8 276.3 939.7 282.8 940.1 289.7 951.4 289.7 952.5 299.7 943.3 300.5 952.1 310.3 Z" data-holc_grade="B"/>
<path d="M 987.7 351 940.1 351.1 932.1 350.8 926.2 350.6 924.6 324.4 953.2 324 966.7 323.9 973.4 331 987.8 330.3 990.3 343.6 982.4 343.4 987.7 351 Z" data-holc_grade="B"/>
<path d="M 940.1 351.1 987.7 351 999.1 367.5 952.7 367 952.5 360.7 940.1 360.5 940.1 351.1 Z" data-holc_grade="B"/>
<path d="M 1750.2 702.1 1748 698.2 1758.5 695.5 1766.1 707.3 1773.5 704.3 1765.7 692.2 1760.7 693.9 1733.9 652.1 1751.2 649.1 1776 641.6 1800.9 632 1810.2 626.7 1812.8 633.1 1749.5 656.2 1781 706.7 1773.5 709.7 1776.9 715.9 1770.2 718.2 1767 715 1759 717.5 1750.2 702.1 Z" data-holc_grade="B"/>
<path d="M 1858.4 617.8 1836.8 625.3 1865.1 667.4 1857.9 670 1829.2 628.5 1817.7 632 1821.6 639.3 1818 640.9 1812.8 633.1 1810.2 626.7 1825.6 605.2 1829.6 599.6 1838.1 586 1839.8 583.3 1841.7 585.2 1858.4 617.8 Z" data-holc_grade="B"/>
<path d="M 1910.2 565.3 1902.3 575.8 1878 565.8 1871 572.9 1864.5 570.3 1858.6 576.1 1844.5 571.1 1849 561.2 1855.9 546.2 1856.4 542.4 1857.7 531.1 1874.6 537.4 1871.9 548.3 1910.2 565.3 Z" data-holc_grade="B"/>
<path d="M 1933.5 457.3 1874.2 444.1 1873.4 449.4 1873.7 454.2 1874.5 457 1872.3 462.4 1867.2 461.2 1864.8 461.8 1864.2 455 1878.5 415.4 1931.8 413.8 1931.5 410.2 1949.6 410 1948 415.6 1935 450.4 1933.5 457.3 Z" data-holc_grade="B"/>
<path d="M 397.7 629.8 389.7 630.6 388.2 632.5 383.9 634.6 379.1 635.7 372.6 634.3 363.6 630.5 356.7 627 353.9 623.5 350 616.6 350.6 611.5 396 609.7 397.7 629.8 Z" data-holc_grade="B"/>
<path d="M 554.5 948.8 551.9 942 533.8 946.4 513.8 938.4 489 938.4 431.8 940.2 429.4 884.9 464.9 885.3 485.6 884.4 573.8 881.9 547.7 917.7 552.9 918.4 555.4 928.7 553.1 929.2 554 934.1 596.4 928.2 601.1 937.7 554.5 948.8 Z" data-holc_grade="B"/>
<path d="M 581.1 975 586.5 987.7 590.1 990.2 578.4 1004 553.6 992.3 546 992.7 541.7 984.5 581.1 975 Z" data-holc_grade="B"/>
<path d="M 910.1 544.3 887.1 544.6 885.3 544.6 884.2 529.4 909.4 529.8 910.1 544.3 Z" data-holc_grade="B"/>
<path d="M 846.3 791.3 922.6 790.3 924.1 815.2 894.7 816 894.9 826.5 873.5 827 874 834.7 868.8 834.2 869 840.5 857.5 840.7 857.5 847.7 849.2 847.2 846.3 791.3 Z" data-holc_grade="B"/>
<path d="M 770.1 1152.4 754.3 1185.7 697.1 1169 706.5 1150.3 736.4 1143.1 770.1 1152.4 Z" data-holc_grade="B"/>
<path d="M 832.2 1277.4 832.3 1285.4 781.7 1286 780.8 1254 801.1 1253.9 800.6 1241 835.5 1240.2 837.8 1224 874.9 1226.7 873.3 1252.9 832.4 1254.4 832.2 1277.4 Z" data-holc_grade="B"/>
<path d="M 957.6 1249.6 950.6 1250.5 943.8 1251 945.1 1245.1 929.9 1247.1 913 1248.2 897.3 1248.5 899.9 1238.5 909.6 1231.5 922.2 1232.7 929.9 1231.9 938.8 1231 948.3 1230 955.5 1230.4 961.3 1233.5 960.4 1237.9 957.6 1249.6 Z" data-holc_grade="B"/>
<path d="M 833 1338.2 832.3 1285.4 832.2 1277.4 848.5 1285.3 854.3 1285.7 859.2 1284.7 864.3 1281.9 864.3 1310.4 865.4 1312.2 865.9 1338.6 833 1338.2 Z" data-holc_grade="B"/>
<path d="M 844.6 1599.8 850.5 1580 856 1557.5 840.8 1555.4 844.7 1547.7 846.6 1542.7 865.3 1545.9 864.5 1555.3 854.8 1587.4 849.4 1597.5 844.6 1599.8 Z" data-holc_grade="B"/>
<path d="M 806.6 1558.3 806.6 1578.3 774.1 1611.4 770.3 1611.4 770.6 1558.4 790.7 1558.9 806.6 1558.3 Z" data-holc_grade="B"/>
<path d="M 1115.7 535.4 1118.6 539.8 1075.2 540.3 1066.6 528.6 1062.6 522.5 1068.8 520.9 1077.2 526.7 1087.1 529.2 1101.2 530.8 1109.1 532.6 1115.7 535.4 Z" data-holc_grade="B"/>
<path d="M 1946.6 311.4 1933.1 308 1931.8 241.2 1958.2 218.9 1975.5 165.6 1982.5 165.6 1975 187 1973.4 200.6 1974.5 213.4 1960.1 234.5 1953.8 248.9 1948 266.2 1948 296.2 1947.1 301 1946.6 311.4 Z" data-holc_grade="B"/>
<path d="M 59.1 1029 60.2 1036.7 63 1043.6 54.8 1045 45.7 1041.4 37.9 1040.9 25.8 1043.1 25.4 1028.8 59.1 1029 Z" data-holc_grade="B"/>
<path d="M 1005 543.4 984.3 543.8 982.9 529.2 983 527.5 1003.6 527.9 1005 543.4 Z" data-holc_grade="B"/>
<path d="M 572.7 605.4 543.5 605.9 542 564.7 542.2 552 596.8 550.1 597.2 567.9 583.6 563.4 571.2 563.9 572.7 605.4 Z" data-holc_grade="B"/>
<path d="M 636.3 603.6 635.3 583.1 617 576.3 615.5 549.3 640.2 548.9 687.6 547.8 690.7 603.1 636.3 603.6 Z" data-holc_grade="B"/>
<path d="M 910.7 555 911.1 570.5 945.6 569.7 945.7 570.8 946.7 599 912.3 600 891.6 600.3 876.7 600.2 877.2 612.9 857.2 613.6 857 627.2 842.8 626.6 821.2 627.2 805.2 627.7 789.5 628.2 766.1 628.6 765.4 602.6 764.1 574.4 782.2 573.8 801.6 573.2 800.6 554.4 800.1 545.7 809.2 545.5 852 544.5 872.9 544.5 885.3 544.6 887.1 544.6 910.1 544.3 910.7 555 Z" data-holc_grade="B"/>
<path d="M 766.1 628.6 766.9 655.6 767.4 669.8 745.2 669.6 745.8 684.5 736.4 684.7 735.5 665.3 667.6 667.7 630.2 668.3 629.4 658.7 620.2 658.8 618.1 614.5 634.8 613.9 636.6 610.8 636.3 603.6 690.7 603.1 765.4 602.6 766.1 628.6 Z" data-holc_grade="B"/>
<path d="M 914.5 679.7 878.5 680.7 878.7 652.1 913.5 651.6 914.5 679.7 Z" data-holc_grade="B"/>
<path d="M 461.9 497.9 428.8 497.9 426 475.1 444.4 474.5 459.9 474 461.9 497.9 Z" data-holc_grade="C"/>
<path d="M 1073.6 568.5 1056.5 568.6 1054.5 540.5 1073.4 566.7 1073.6 568.5 Z" data-holc_grade="C"/>
<path d="M 460.4 771.3 478 770.8 480.2 803.8 462.7 804.6 460.4 771.3 Z" data-holc_grade="C"/>
<path d="M 485.6 884.4 464.9 885.3 463.3 850.7 482.5 849.5 485.6 884.4 Z" data-holc_grade="C"/>
<path d="M 337.3 887 227.4 889.3 230.2 943.6 213.5 944 100.5 946.4 96 892.3 135.1 891.6 133.6 837.4 189.8 835.9 190.5 862.2 245 861.8 243.9 834.7 334.1 832.7 337.3 887 Z" data-holc_grade="C"/>
<path d="M 25.4 1028.8 25.8 1043.1 37.9 1040.9 45.7 1041.4 54.8 1045 63 1043.6 60.2 1036.7 59.1 1029 85.3 1029.2 85.7 1062.9 142.5 1053.5 143.2 1083.6 88.3 1085.3 47.7 1083.6 34.9 1083.9 1.6 1084.2 1 1028.6 25.4 1028.8 Z" data-holc_grade="C"/>
<path d="M 88.3 1085.3 87.9 1112 44.4 1112.5 36.9 1113.8 4 1114.6 1.6 1084.2 34.9 1083.9 47.7 1083.6 88.3 1085.3 Z" data-holc_grade="C"/>
<path d="M 436.6 980 437.8 994.4 438.4 1001.5 373.4 1014 234.9 1035.1 230.2 943.6 264.6 942.7 308.8 942.6 338.1 942 431.8 940.2 434.1 946.2 436.6 980 Z" data-holc_grade="C"/>
<path d="M 595 968.4 518.5 986.8 518.3 979.5 437.8 994.4 436.6 980 452.3 982.8 457.1 985 463.4 983.8 470.8 987.3 475.1 982.8 489.9 981.5 497.6 979 504.3 975.5 512.4 975 528.4 971.7 536.8 968 538.8 962.4 540.6 958.5 544.4 959 558.6 957.4 563.5 953.5 569.8 948.2 583.8 947.4 590.3 943.2 598.2 940.4 604 939.4 606.5 945.7 610.6 950.4 611.7 954.5 616 955.5 618 962.7 595 968.4 Z" data-holc_grade="C"/>
<path d="M 437.8 994.4 518.3 979.5 518.5 986.8 595 968.4 600.7 979.5 602.5 979.8 607.7 984.5 584.5 1013.5 636.2 1037.8 640.3 1037.4 639.8 1028.5 650 1017.1 661.4 1016.6 699.5 1037.8 721.5 1028.6 727.4 1031.5 694.3 1071.1 647.3 1052.3 554.5 1052.9 438.6 1054.9 438.4 1001.5 437.8 994.4 Z M 581.1 975 541.7 984.5 546 992.7 553.6 992.3 578.4 1004 590.1 990.2 586.5 987.7 581.1 975 Z" data-holc_grade="C"/>
<path d="M 780.3 1091.7 751.9 1082 792.5 1032.1 829 1044.9 805 1075.3 796.4 1077.2 786.6 1085.3 780.3 1091.7 Z" data-holc_grade="C"/>
<path d="M 891.7 1032.4 897.1 1038.2 902.5 1051.6 898.4 1057.7 889.1 1058.5 860.8 1088.7 855.1 1086.1 839.9 1103.4 831.5 1101.8 825.7 1095.4 819.4 1093.4 814.5 1098.2 800.6 1101 796 1098.9 808.3 1083.6 854.3 1072.5 863.1 1061 834.8 1067.7 866.3 1028.8 891.7 1032.4 Z" data-holc_grade="C"/>
<path d="M 1043 568.8 1044.8 596.7 1024.5 597.2 986.3 598.1 985.6 559.6 1005.6 559.3 1005.9 569.3 1043 568.8 Z" data-holc_grade="C"/>
<path d="M 796 1098.9 800.6 1101 814.5 1098.2 811.6 1101 770.1 1152.4 736.4 1143.1 724 1139.2 754.6 1102.2 767.7 1106.7 780.3 1091.7 796 1098.9 Z" data-holc_grade="C"/>
<path d="M 873.2 1120.3 879 1122.3 890.5 1138.5 899.3 1146 909.5 1156.4 905.2 1161.2 916.8 1162.1 921.4 1165.5 920.1 1178 914.7 1182.3 912.7 1189.8 918.1 1197.5 918.1 1203.4 916.4 1206.1 911.7 1209.5 911.2 1216 910.4 1219.4 909.5 1223.9 912.3 1226.3 916.2 1226.9 924 1226.9 929.9 1231.9 922.2 1232.7 909.6 1231.5 899.9 1238.5 897.3 1248.5 896.2 1253.3 895.3 1259.8 893.1 1263.4 888.2 1268.6 882.5 1273.1 879.1 1275.7 870.5 1277 870.5 1280.1 865.9 1280.4 864.3 1281.9 859.2 1284.7 854.3 1285.7 848.5 1285.3 832.2 1277.4 832.4 1254.4 873.3 1252.9 874.9 1226.7 837.8 1224 835.5 1240.2 800.6 1241 801.1 1253.9 780.8 1254 781.7 1286 756.5 1286.1 753.1 1188.4 754.3 1185.7 770.1 1152.4 811.6 1101 814.5 1098.2 819.4 1093.4 825.7 1095.4 831.5 1101.8 839.9 1103.4 856.1 1113.8 863.3 1116.9 873.2 1120.3 Z" data-holc_grade="C"/>
<path d="M 1006.7 1110.4 1007.4 1103.2 1009.9 1094.7 1025.2 1099.6 1015.7 1112.2 1006.7 1110.4 Z" data-holc_grade="C"/>
<path d="M 1006.7 1110.4 1015.7 1112.2 1025.2 1099.6 1009.9 1094.7 1011.7 1088.8 1008.9 1086.6 997.2 1083.1 1004.4 1072.5 1017.3 1077.6 1040.4 1084 1044.8 1085.5 1011.7 1132.3 981.7 1125 989 1105 1006.7 1110.4 Z" data-holc_grade="C"/>
<path d="M 962.4 1219.5 954.7 1218.2 959 1209.4 962.4 1201.6 968.3 1200 972.4 1189.6 965.9 1188 967.2 1182.8 962.4 1181.7 976.7 1139.3 981.7 1125 1011.7 1132.3 1007 1137.8 995.3 1137.9 993.6 1145.9 990.5 1153.6 989.5 1157.4 1009.1 1159.8 994.6 1180 987.7 1187.8 983.6 1187.6 978.2 1204.3 970.7 1203.5 966.8 1215.3 962.4 1219.5 Z" data-holc_grade="C"/>
<path d="M 908.1 1350.1 916.2 1321 937.8 1257 930.4 1251.8 918.3 1252.9 913.1 1253 896.2 1253.3 897.3 1248.5 913 1248.2 929.9 1247.1 945.1 1245.1 943.8 1251 950.6 1250.5 957.6 1249.6 956.6 1266.8 958.2 1293 957.1 1295.5 952.6 1299.4 952.9 1307.2 957.3 1319.7 961.5 1319.2 965.1 1320.8 965.9 1322.2 966 1325.4 971 1326.5 971.3 1328.7 967.5 1330.4 970.5 1336.6 970.7 1340.1 967.8 1345 968.1 1348.6 965.9 1353 965.1 1355.3 964.7 1360.6 962.7 1363.5 960.8 1365.9 958.5 1369.9 949.9 1368.3 942.6 1369.7 931.2 1371.1 919.8 1372.8 904.1 1373.2 904.6 1364.9 907.3 1353.3 908.1 1350.1 Z" data-holc_grade="C"/>
<path d="M 888.2 1268.6 888.9 1278.2 892.7 1278.1 893.2 1294.9 892.6 1312.2 882.5 1312.1 883 1337.7 888.4 1337.9 888.6 1350.3 900.5 1350.3 901.4 1365.6 885 1419.6 838 1421.3 834.6 1373.8 833 1338.2 865.9 1338.6 865.4 1312.2 864.3 1310.4 864.3 1281.9 865.9 1280.4 870.5 1280.1 870.5 1277 879.1 1275.7 882.5 1273.1 888.2 1268.6 Z" data-holc_grade="C"/>
<path d="M 774.1 1611.4 806.6 1578.3 806.6 1558.3 817.8 1558 840.8 1555.4 856 1557.5 850.5 1580 844.6 1599.8 839.4 1600.6 833.9 1603.1 818.9 1600.9 805.5 1597.8 791.9 1611 774.1 1611.4 Z" data-holc_grade="C"/>
<path d="M 945.3 837.7 940.6 841.6 931.1 845.2 921.9 846.2 921.2 826.2 907 826.4 908.2 839.3 885.4 839.8 885.7 874.3 878.2 874.4 878.2 893.1 869.2 895.2 869.4 912.7 872.4 914.5 872.6 917 853.5 918.5 852.8 898.9 850.5 899.1 849.2 847.2 857.5 847.7 857.5 840.7 869 840.5 868.8 834.2 874 834.7 873.5 827 894.9 826.5 894.7 816 924.1 815.2 922.6 790.3 931.1 790.3 932.2 805.2 928.6 805.4 929.8 817.7 925 817.9 945.3 837.7 Z" data-holc_grade="C"/>
<path d="M 849.2 847.2 850.5 899.1 852.8 898.9 853.5 918.5 853.2 924.2 808 931.2 798.8 913.7 753.5 926.5 753.1 899.6 753.8 895.9 759.4 890.7 768.2 887.9 775.1 887.1 774.7 849.3 774.6 847.8 774 834.2 772.6 804.3 772.3 798.8 772 792.6 818.7 791.8 846.3 791.3 849.2 847.2 Z" data-holc_grade="C"/>
<path d="M 986 607.4 986.3 598.1 1024.5 597.2 1024.3 612.4 985.9 612.9 986 607.4 Z" data-holc_grade="C"/>
<path d="M 1902.3 575.8 1910.2 565.3 1919.9 564.8 1944.8 573.8 1943.9 577.1 1931.1 573.1 1927.5 579.3 1938.3 583.4 1934.7 589.1 1902.3 575.8 Z" data-holc_grade="C"/>
<path d="M 1867.3 614 1871 612.5 1912 629.1 1911.3 632.1 1906.1 633.8 1868.1 617.1 1867.3 614 Z" data-holc_grade="C"/>
<path d="M 1842.2 676.8 1818 640.9 1821.6 639.3 1817.7 632 1829.2 628.5 1857.9 670 1842.2 676.8 Z" data-holc_grade="C"/>
<path d="M 1748 698.2 1717.5 654 1733.9 652.1 1760.7 693.9 1765.7 692.2 1773.5 704.3 1766.1 707.3 1758.5 695.5 1748 698.2 Z" data-holc_grade="C"/>
<path d="M 1203.5 441.1 1203.7 483.3 1195 483.3 1195.3 512.7 1160.5 513.1 1161.3 483.9 1129.7 484.7 1102.4 484.3 1080.8 485.5 1067.5 464.2 1065.7 461.2 1076.7 458.8 1098.1 457.8 1112.4 458.2 1094 431.1 1096.2 429.3 1141.3 429.1 1152.2 428.7 1196.9 426.7 1196.9 428.7 1203.4 428.9 1203.5 441.1 Z" data-holc_grade="C"/>
<path d="M 1129.7 484.7 1130.8 540.2 1118.6 539.8 1115.7 535.4 1101.1 513.3 1080.8 485.5 1102.4 484.3 1129.7 484.7 Z" data-holc_grade="C"/>
<path d="M 1279 490.7 1278.6 482 1261.1 482.6 1237.5 482.6 1225.9 482.7 1203.7 483.3 1203.5 441.1 1233.3 440.3 1233.6 455.6 1246.4 455.2 1246.2 445.4 1254.7 445.4 1255.2 454.9 1313.9 454.2 1311.9 426.5 1360.3 425.7 1360 432.6 1350.6 433 1350.8 439 1330.8 439.1 1331.5 453.7 1364.3 452.9 1364.8 467.6 1366.1 482.4 1366.5 501.7 1324.6 502.7 1279.9 504.4 1279 490.7 Z" data-holc_grade="C"/>
<path d="M 1426.8 518.2 1428.1 533.6 1448.8 533.6 1454 539.2 1451.2 540.3 1470.4 562.2 1429.4 577.3 1429.6 585.5 1404.5 585.8 1404.3 572.7 1428.7 573.3 1427.9 560.6 1416.6 559.5 1416.4 529.3 1426.8 518.2 Z M 1426.8 518.2 1404.1 519.1 1403.4 506.3 1414 506.7 1414.5 493.3 1403 493.8 1403.4 479.7 1389.4 480.2 1388.7 443 1389.3 425.2 1424.6 424.3 1425.1 452.7 1444 452.6 1444.4 466.4 1425.8 466.5 1425.8 479.3 1450.3 478.2 1449.8 489.6 1426.8 518.2 Z" data-holc_grade="C"/>
<path d="M 1482.5 497.7 1482.6 505.3 1464.6 505.6 1464.4 491.4 1473.6 491.1 1473 477.6 1484.2 477.4 1484.5 455.7 1499.1 455.7 1499.6 484 1482.1 484.6 1482.5 497.7 Z" data-holc_grade="C"/>
<path d="M 1541.8 563.4 1526.1 587.5 1506.5 573.8 1487.9 558.3 1464.1 532.6 1482.9 533.2 1482.6 505.3 1482.5 497.7 1539.8 496.4 1541 516.9 1522.6 523.8 1524.4 526.7 1536.5 535.3 1539.4 538.7 1542.1 540.2 1548.9 551.7 1541.8 563.4 Z" data-holc_grade="C"/>
<path d="M 1648.4 473.7 1624 474.8 1574.7 474.9 1572.7 448.3 1571.7 420.3 1693.6 417.5 1692.3 426.1 1693.8 472 1685.2 472.3 1684.5 446 1656.9 447.1 1657.5 473.6 1648.4 473.7 Z" data-holc_grade="C"/>
<path d="M 468.1 552.1 469.6 579.6 431.7 580.5 429.8 526.7 428.8 497.9 461.9 497.9 488.9 497.9 488.9 499.8 491.1 501.9 496.5 503.5 498 511.1 496 513.9 496.2 517.7 495.6 525.3 466.6 514 468.1 552.1 Z" data-holc_grade="C"/>
<path d="M 1649.4 500.7 1624.2 501.1 1624 474.8 1648.4 473.7 1649.1 485.5 1668.8 484.9 1665.1 479.6 1674.6 479.3 1675 493.7 1649.7 494.2 1649.4 500.7 Z" data-holc_grade="C"/>
<path d="M 914.5 679.7 915 695 945.1 707.2 941.8 714 941.8 720.9 943.1 729.7 945.1 737 945.7 761.3 844.9 764.2 841.8 683.2 814.4 684 805.1 684 778 684.5 778 669.3 767.4 669.8 766.9 655.6 787.9 655.7 823.5 654.7 826 652.5 840.6 652.7 878.7 652.1 878.5 680.7 914.5 679.7 Z" data-holc_grade="C"/>
<path d="M 986 607.4 913.6 608 912.3 600 946.7 599 986.3 598.1 986 607.4 Z" data-holc_grade="C"/>
<path d="M 986 607.4 985.9 612.9 982.3 614.1 982.3 626 913 626.8 913.2 634.2 913.5 651.6 878.7 652.1 840.6 652.7 826 652.5 823.5 654.7 787.9 655.7 766.9 655.6 766.1 628.6 789.5 628.2 805.2 627.7 821.2 627.2 842.8 626.6 857 627.2 857.2 613.6 877.2 612.9 876.7 600.2 891.6 600.3 912.3 600 913.6 608 986 607.4 Z" data-holc_grade="C"/>
<path d="M 956.9 650.2 965.8 650 967.1 688.5 968.8 690.7 969.7 718 945.1 707.2 915 695 914.5 679.7 913.5 651.6 913.2 634.2 952.6 633.6 953 639.5 945.5 639.2 946.1 650.3 956.9 650.2 Z" data-holc_grade="C"/>
<path d="M 969.7 718 1003.2 731.3 990 745.5 992.2 751.6 986.5 754.6 988.4 778.5 1017.3 817.1 995.5 815.8 970.5 816.4 968 790.2 955 790 951.1 761.2 945.7 761.3 945.1 737 943.1 729.7 941.8 720.9 941.8 714 945.1 707.2 969.7 718 Z" data-holc_grade="C"/>
<path d="M 992.2 751.6 990 745.5 1003.2 731.3 969.7 718 968.8 690.7 967.1 688.5 965.8 650 956.9 650.2 958.1 645.7 969.8 644.1 988.3 634.8 989 659 989.7 686.8 999.4 684.2 1033.5 734.5 1057.8 726.2 1066.2 738.8 1058.6 753 1037.8 745.6 1030.5 756 1020 760.6 1013.5 751.8 1002.2 755.6 992.2 751.6 Z" data-holc_grade="C"/>
<path d="M 1038.3 670.5 999.4 684.2 989.7 686.8 989 659 1022.9 646.7 1038.3 670.5 Z" data-holc_grade="C"/>
<path d="M 1073.5 720.9 1057.8 726.2 1033.5 734.5 999.4 684.2 1038.3 670.5 1073.5 720.9 Z" data-holc_grade="C"/>
<path d="M 1087 621.3 1068.8 629.5 1092.7 629.8 1114.7 660.6 1099.2 666.6 1103.5 674.1 1102.8 678.7 1088.8 683 1105.9 708.1 1085.5 716.2 1073.5 720.9 1038.3 670.5 1022.9 646.7 989 659 988.3 634.8 1037.8 614.9 1039.4 617.2 1074 603 1087 621.3 Z" data-holc_grade="C"/>
<path d="M 540.5 516 542.2 552 542 564.7 505.7 565.4 505.5 559.8 509.3 557.1 507 552 503.4 547.1 504.8 543.3 502.3 535.8 503 531.7 506.1 529 506.3 524.8 522.8 524.4 522.3 511.9 540.2 511.2 540.5 516 Z" data-holc_grade="C"/>
<path d="M 1138.3 693.6 1140.4 697.5 1129.8 701.5 1108.9 709.5 1105.9 708.1 1088.8 683 1102.8 678.7 1103.5 674.1 1099.2 666.6 1114.7 660.6 1138.3 693.6 Z" data-holc_grade="C"/>
<path d="M 1181.5 633 1215.9 620.2 1233.5 647.1 1199.5 660 1207.5 671.9 1173.2 684.3 1171 681.5 1138.3 693.6 1114.7 660.6 1092.7 629.8 1068.8 629.5 1087 621.3 1104.8 614 1131.4 651.7 1181.5 633 Z" data-holc_grade="C"/>
<path d="M 1058.6 753 1103 771.2 1052.4 790.8 1025.2 789 1002.2 755.6 1013.5 751.8 1020 760.6 1030.5 756 1037.8 745.6 1058.6 753 Z" data-holc_grade="C"/>
<path d="M 1103 771.2 1058.6 753 1066.2 738.8 1057.8 726.2 1073.5 720.9 1085.5 716.2 1117.7 767.1 1103 771.2 Z" data-holc_grade="C"/>
<path d="M 1108.9 709.5 1140.2 757.9 1117.7 767.1 1085.5 716.2 1105.9 708.1 1108.9 709.5 Z" data-holc_grade="C"/>
<path d="M 1159.6 750.7 1140.2 757.9 1108.9 709.5 1129.8 701.5 1159.6 750.7 Z" data-holc_grade="C"/>
<path d="M 1184.5 701.2 1175.2 688.4 1173.2 684.3 1207.5 671.9 1244 726.5 1209.9 740.3 1204.5 734 1198.5 724.4 1187.9 728 1194.6 737.6 1159.6 750.7 1129.8 701.5 1140.4 697.5 1155.7 719.6 1189 708 1184.5 701.2 Z" data-holc_grade="C"/>
<path d="M 1318.6 563.4 1317.9 550.4 1285.5 550.8 1294.1 564 1300.6 573.8 1284.9 579.6 1268.2 554.9 1283.5 548.9 1319.6 535.1 1372.1 534.3 1372.6 561.8 1329.9 562.6 1318.6 563.4 Z" data-holc_grade="C"/>
<path d="M 1430.2 606.9 1432 646.9 1435 651.5 1420.1 657.8 1408.6 665.8 1403.2 661.5 1402.1 642.4 1416.2 642.6 1411.9 627.2 1420.5 602.5 1430 602.4 1430.2 606.9 Z" data-holc_grade="C"/>
<path d="M 1435 651.5 1432 646.9 1430.2 606.9 1450.5 606.8 1451 632.1 1442.1 632.1 1441.9 648.8 1435 651.5 Z" data-holc_grade="C"/>
<path d="M 615.5 549.3 596.8 550.1 542.2 552 540.5 516 552.2 516.7 568.4 516.2 613.4 514.8 615.5 549.3 Z" data-holc_grade="C"/>
<path d="M 695.6 713.5 695 699.5 694.5 686.4 713.1 686.2 713.3 693.6 731.2 693.2 731.2 695.3 748.1 694.8 747.9 691.3 767.8 691 768.6 699.3 769.1 711.3 770.7 757.4 747 757.6 747 739.9 723.9 740.5 723.5 757.9 718.7 758.2 718.3 746.9 709.9 747.2 708.3 731.2 713.7 731.1 712.9 713.5 695.6 713.5 Z" data-holc_grade="C"/>
<path d="M 818.7 791.8 772 792.6 770.7 757.4 769.1 711.3 768.6 699.3 805.4 698.8 805.1 684 814.4 684 816.8 710 820.5 709.8 821.8 737.3 807.7 737.8 807.5 745 790.7 745.4 791.1 757.4 808.2 756.9 808.8 765.4 822.4 765.2 822.9 775.3 818.5 775.3 818.7 791.8 Z" data-holc_grade="C"/>
<path d="M 699.2 821.3 699.9 841.4 701.4 862.8 687.5 863.2 685.2 834.9 641.6 836.6 639.4 823.3 626.5 823.3 624.8 795.4 683.4 794.7 682.6 781.5 696.9 781.2 699.2 821.3 Z" data-holc_grade="C"/>
<path d="M 774 834.2 756.1 834.7 756.5 847.9 746.6 848.1 746 841.4 736.5 841.5 736.8 848.1 718.7 848.3 718.5 841.4 699.9 841.4 699.2 821.3 733.4 821.3 732.3 804.7 737.2 804.5 772.6 804.3 774 834.2 Z" data-holc_grade="C"/>
<path d="M 982.5 1063.1 937.8 1121.9 909.5 1156.4 899.3 1146 890.5 1138.5 879 1122.3 873.2 1120.3 918.1 1066.9 920.5 1064.1 929.1 1052.3 942.6 1057.7 951.6 1047.9 977.8 1059.9 982.5 1063.1 Z" data-holc_grade="C"/>
<path d="M 992.2 890.7 982.6 894.6 965.4 871.6 948 847.2 957.5 843.9 977.2 869.3 992.2 890.7 Z" data-holc_grade="C"/>
<path d="M 1067.1 929.6 1073.5 938.9 1064.9 942.2 1067.1 945.7 1055.4 950 1059.7 958 1046.7 963.6 1039 951.2 1027.9 955.6 1034.2 968.6 1039 974.8 1026.4 981 1019.1 971.9 1006.3 976.6 1006.8 980.7 1014.8 989.4 1004.8 993.7 1001.6 993 990.8 972.6 991.9 967 998.8 966.2 998.6 962.2 988.4 944.8 1002.2 940.1 1013.9 922.7 1028.4 920.3 1046.7 921.6 1058 923.4 1062.1 930.7 1067.1 929.6 Z" data-holc_grade="C"/>
<path d="M 1118.2 963.1 1108.5 967 1094.3 945.6 1103.6 942.7 1118.2 963.1 Z" data-holc_grade="C"/>
<path d="M 1198.7 928.3 1175.8 938.5 1169.6 932.7 1178.3 929.3 1155.2 910.1 1175.5 902.1 1193.2 917.5 1198.7 928.3 Z" data-holc_grade="C"/>
<path d="M 1264.4 836.3 1182.5 803.6 1179.4 802.4 1191.9 783 1198 781.7 1199.8 786.3 1207.7 783.8 1200.5 768.7 1222.9 761.2 1264.4 836.3 Z" data-holc_grade="C"/>
<path d="M 800.6 554.4 782.1 555.2 782.2 573.8 764.1 574.4 754.2 574.4 752.6 547.4 768.2 546.8 800.1 545.7 800.6 554.4 Z" data-holc_grade="C"/>
<path d="M 1278.4 761.4 1273.5 755.7 1265.8 758.4 1266.3 760.1 1259.5 762.4 1263.5 770 1246.7 775.8 1235.1 757.1 1232.5 752.5 1272.6 735.5 1286.9 758.6 1278.4 761.4 Z" data-holc_grade="C"/>
<path d="M 1398.8 699.7 1398.7 699.7 1417.4 727.6 1376.9 742.4 1340.3 689.3 1366.6 679.3 1369 679.9 1379.6 676.3 1384.3 682.4 1387.5 682.9 1398.8 699.7 Z" data-holc_grade="C"/>
<path d="M 1474.4 666 1502.5 710.7 1513.1 724.5 1498.7 730.9 1523.9 761 1521 762.4 1540.5 788.3 1524.5 797.6 1505.1 768.5 1476 779.1 1431.7 710.2 1422.1 696.3 1425.1 695 1419.7 686.6 1416 687.4 1403.9 670 1408.6 665.8 1420.1 657.8 1435 651.5 1460.9 686.8 1474.4 666 Z" data-holc_grade="C"/>
<path d="M 1540.5 788.3 1521 762.4 1523.9 761 1498.7 730.9 1513.1 724.5 1516.7 722.1 1541.9 753.6 1557.4 775.5 1540.5 788.3 Z" data-holc_grade="C"/>
<path d="M 1541.9 753.6 1516.7 722.1 1513.1 724.5 1502.5 710.7 1474.4 666 1496.6 631.9 1517.1 628.5 1534.1 623.3 1539.9 633.4 1547.3 631.2 1559.7 646.8 1557.4 649.1 1565.3 660.8 1573.6 657.3 1594.6 687.9 1550.2 707.2 1577.5 741.3 1541.9 753.6 Z" data-holc_grade="C"/>
<path d="M 1613.3 738.7 1599.3 745.4 1596.7 747 1586 753.6 1577.5 741.3 1550.2 707.2 1594.6 687.9 1624.9 733.1 1613.3 738.7 Z" data-holc_grade="C"/>
<path d="M 1571.5 764.7 1581.8 756.8 1597 781.8 1583.5 786.3 1571.5 764.7 Z" data-holc_grade="C"/>
<path d="M 1626 759.2 1626.7 760.4 1610.8 765.2 1596.7 747 1599.3 745.4 1613.3 738.7 1617.7 745.2 1626 759.2 Z" data-holc_grade="C"/>
<path d="M 1552.3 617.7 1556.4 616.6 1584.8 609.2 1594.1 623.9 1575.1 630.9 1557.4 618.4 1552.3 617.7 Z" data-holc_grade="C"/>
<path d="M 1733.9 652.1 1717.5 654 1748 698.2 1750.2 702.1 1734.3 708.1 1719.5 713.6 1709.5 717.4 1691.8 719.1 1673.6 720.4 1632.2 662 1625 655 1597.6 643.6 1638.1 629.3 1642.3 635.7 1707.1 611.9 1733.9 652.1 Z" data-holc_grade="C"/>
<path d="M 945.6 569.7 911.1 570.5 910.7 555 945.3 553.9 945.6 569.7 Z" data-holc_grade="C"/>
<path d="M 1712.3 752.5 1691.8 719.1 1709.5 717.4 1719.5 713.6 1735 740.4 1722.5 745 1724 748.2 1712.3 752.5 Z" data-holc_grade="C"/>
<path d="M 1700.9 756.4 1712.3 752.5 1724 748.2 1722.5 745 1735 740.4 1719.5 713.6 1734.3 708.1 1745.8 726.3 1761.8 753.5 1736.7 761.9 1741 769.7 1722.2 774.4 1716 773.6 1708.2 761.6 1703.9 763 1700.9 756.4 Z" data-holc_grade="C"/>
<path d="M 1759 717.5 1778.9 748.7 1778.2 754.4 1783.2 759.8 1783.2 765 1776 761.6 1768.9 763.7 1769.1 761.3 1768.9 757 1771.9 754.9 1768.9 751.4 1761.8 753.5 1745.8 726.3 1734.3 708.1 1750.2 702.1 1759 717.5 Z" data-holc_grade="C"/>
<path d="M 1808.5 550.8 1822.4 570.9 1808.2 575.6 1825.6 605.2 1810.2 626.7 1757.8 546 1760.5 543.4 1774.2 535.1 1780.1 533.4 1793.8 556.3 1808.5 550.8 Z" data-holc_grade="C"/>
<path d="M 1825.6 605.2 1808.2 575.6 1822.4 570.9 1808.5 550.8 1795.4 527.7 1800.1 526.4 1838.1 586 1829.6 599.6 1825.6 605.2 Z" data-holc_grade="C"/>
<path d="M 1856.4 542.4 1855.9 546.2 1849 561.2 1837.9 564.3 1814.3 526.4 1856.4 542.4 Z" data-holc_grade="C"/>
<path d="M 1127.1 551.2 1075.2 570.6 1073.6 568.5 1073.4 566.7 1054.5 540.5 1075.2 540.3 1118.6 539.8 1127.1 551.2 Z" data-holc_grade="C"/>
<path d="M 1131.7 558.6 1133.5 561.6 1099.7 574.9 1077.4 573.5 1075.2 570.6 1127.1 551.2 1131.7 558.6 Z" data-holc_grade="C"/>
<path d="M 1181.5 633 1131.4 651.7 1104.8 614 1156.1 594.1 1181.5 633 Z" data-holc_grade="C"/>
<path d="M 985.6 559.6 986.3 598.1 946.7 599 945.7 570.8 945.6 569.7 945.3 553.9 945 543.8 984.3 543.8 985.6 559.6 Z" data-holc_grade="C"/>
<path d="M 1181.5 633 1156.1 594.1 1189.8 581.1 1211.6 614.1 1215.9 620.2 1181.5 633 Z" data-holc_grade="C"/>
<path d="M 1310.3 589.4 1316.2 598.3 1301 603.9 1290.1 588.3 1278.5 591.8 1304.3 631.8 1321 625.8 1312.6 612.6 1324.3 608.5 1333.1 620.6 1335.2 623.7 1307.5 633.8 1307.9 635.1 1297.3 638.2 1292.6 630.1 1280.2 633.6 1271 617.7 1280.9 614.5 1277.5 609.8 1270.8 612 1255.9 589.5 1284.9 579.6 1300.6 573.8 1310.3 589.4 Z" data-holc_grade="C"/>
<path d="M 705.8 25.8 707.2 30.2 715.3 31.2 716.2 51.5 685.6 52.2 677.7 65 671 76.1 657.8 76.3 661.8 72.2 662.3 68 662 53.8 653.5 50.1 652.8 41.6 653.3 36.8 655.7 32.8 655.7 29.3 660.7 24.1 665 24.3 665.4 28.9 676.6 29.1 676.7 23.8 684.8 23.9 689 31.2 697.1 28.5 705.8 25.8 Z" data-holc_grade="C"/>
<path d="M 724.2 105.9 722.4 80.5 725.3 78.6 714.1 67.5 709.8 68.4 708.4 64.7 677.7 65 685.6 52.2 716.2 51.5 721.8 51.5 722.1 56.6 738.8 56.7 739 58.3 740.6 71.3 757.4 70.9 758.8 105 724.2 105.9 Z" data-holc_grade="C"/>
<path d="M 724.2 105.9 690.1 106.7 649.4 107.9 648.3 96.9 643.4 94.1 650.3 90.1 653 88.3 655.8 82.2 657.8 76.3 671 76.1 677.7 65 708.4 64.7 709.8 68.4 714.1 67.5 725.3 78.6 722.4 80.5 724.2 105.9 Z" data-holc_grade="C"/>
<path d="M 995 129.4 964.7 130.3 964.2 131.4 946.4 131.1 892 131.8 888.8 101.9 881.2 97.1 883.2 90.5 888.8 90.6 888.8 76.5 903.7 77 903.7 72.4 920.5 72.1 920.3 66.3 928 59.8 926.8 46 961.1 45.2 962.4 75 1034.2 73.5 1035.3 99.8 1002 100.2 995 129.4 Z" data-holc_grade="C"/>
<path d="M 838.8 188.2 820.9 188.6 821.7 216 822.1 233.6 795.8 234.5 795.2 189.3 748.1 189.6 745.7 162.5 812.3 161.5 838.8 188.2 Z" data-holc_grade="C"/>
<path d="M 822.1 233.6 822.9 270.3 790.6 271.6 750.7 272.7 750.2 242.6 748.1 189.6 795.2 189.3 795.8 234.5 822.1 233.6 Z" data-holc_grade="C"/>
<path d="M 886.8 240.6 916.7 269.1 902.1 269.6 869.7 269.1 822.9 270.3 822.1 233.6 821.7 216 863.2 214.4 886.8 240.6 Z" data-holc_grade="C"/>
<path d="M 968.3 212.1 914 213.2 902.5 198.9 929.5 199.1 932.7 202.8 950 202.3 946.4 131.1 964.2 131.4 964.7 130.3 995 129.4 983.6 177 1006.7 177 1010.8 180.7 1007.4 181 1006.5 192.5 979.1 193.8 975.5 212.2 968.3 212.1 Z" data-holc_grade="C"/>
<path d="M 982.7 434.6 981.3 459.3 946.6 461.3 949.3 436.6 954.3 433.3 982.7 434.6 Z" data-holc_grade="C"/>
<path d="M 969.8 240.2 965.1 257 962.6 267.8 964.6 275.7 969.8 307.1 986.5 310.9 988.1 323.2 966.7 323.9 953.2 324 952.1 310.3 943.3 300.5 952.5 299.7 951.4 289.7 940.1 289.7 939.7 282.8 931.8 276.3 930.9 268.8 916.7 269.1 886.8 240.6 896 240.4 896 233.6 914.7 234.1 915.6 223.2 918.5 220 914 213.2 968.3 212.1 969.8 226.8 969.8 240.2 Z" data-holc_grade="C"/>
<path d="M 1014.8 252.8 986.9 253.2 986.7 256.8 965.1 257 969.8 240.2 1005.6 239.5 1005.6 228.6 1016.6 228.4 1017.5 238.5 1014.6 238.7 1014.8 252.8 Z" data-holc_grade="C"/>
<path d="M 1015.1 267.4 1001.6 267.6 984.9 267.3 985.8 303.8 993.9 303.9 994.6 308.4 1019.8 308.1 1019.6 302.8 1029.2 302.1 1029.9 307.6 1040.6 307.6 1041.5 321.8 1007.3 322.6 988.1 323.2 986.5 310.9 969.8 307.1 964.6 275.7 962.6 267.8 965.1 257 986.7 256.8 986.9 253.2 1014.8 252.8 1015.1 267.4 Z" data-holc_grade="C"/>
<path d="M 1039.7 294.7 1040.6 307.6 1029.9 307.6 1029.2 302.1 1019.6 302.8 1019.8 308.1 994.6 308.4 993.9 303.9 985.8 303.8 984.9 267.3 1001.6 267.6 1015.1 267.4 1039.4 266.9 1039.7 294.7 Z" data-holc_grade="C"/>
<path d="M 824 294.7 822.9 270.3 869.7 269.1 871.7 293 824 294.7 Z" data-holc_grade="C"/>
<path d="M 1030.5 377.4 1030.5 378.8 1020.9 378.4 1005.7 378.8 999.1 367.5 987.7 351 982.4 343.4 990.3 343.6 987.8 330.3 973.4 331 966.7 323.9 988.1 323.2 1007.3 322.6 1008 335.4 1027.1 357.4 1029.3 377.4 1030.5 377.4 Z" data-holc_grade="C"/>
<path d="M 924.6 324.4 926.2 350.6 932.1 350.8 932 379.6 919.9 380 920.1 408.7 903.2 408.5 902.9 401.2 899.2 324.2 924.6 324.4 Z" data-holc_grade="C"/>
<path d="M 982.7 434.6 954.3 433.3 956.1 410.2 920.1 408.7 919.9 380 932 379.6 932.1 350.8 940.1 351.1 940.1 360.5 952.5 360.7 952.7 367 999.1 367.5 1005.7 378.8 1021.4 402.2 1030.9 402.4 1031.4 397.2 1047.5 397.4 1049.5 433.1 1017.5 434 982.7 434.6 Z" data-holc_grade="C"/>
<path d="M 1084.7 430.2 1073 430.9 1073 438.8 1055.4 439.8 1049.5 433.1 1047.5 397.4 1031.4 397.2 1030.9 402.4 1021.4 402.2 1005.7 378.8 1020.9 378.4 1030.5 378.8 1030.5 377.4 1039.7 377.4 1084.7 430.2 Z" data-holc_grade="C"/>
<path d="M 1152.2 428.7 1141.3 429.1 1139.4 406.2 1118.9 406.4 1117.5 375.5 1147.2 375.1 1152.2 428.7 Z M 1077.2 293.9 1115.7 293 1116.1 321 1085.8 321.8 1077.2 293.9 Z" data-holc_grade="C"/>
<path d="M 1056.5 568.6 1043 568.8 1005.9 569.3 1005.6 559.3 1005 543.4 1020.8 542.1 1052.7 541.7 1052.7 540.6 1054.5 540.5 1056.5 568.6 Z" data-holc_grade="C"/>
<path d="M 1443.8 340.1 1399.9 341.3 1401.2 328.9 1385.5 326 1386.4 293.3 1399.2 293.5 1398.8 257.8 1453.9 256.7 1455.9 313.3 1444.2 313.3 1443.8 340.1 Z" data-holc_grade="C"/>
<path d="M 1399.9 341.3 1443.8 340.1 1448.3 340 1448.7 386.5 1451.2 424 1424.6 424.3 1389.3 425.2 1385.5 425.3 1384.8 359.8 1399.9 347.8 1399.9 341.3 Z" data-holc_grade="C"/>
<path d="M 1735.6 304.8 1735.4 302 1685.9 303.3 1685 278.6 1692.8 278.1 1695.8 221.8 1727.2 220.3 1725.7 193.6 1769.3 191.6 1768.4 164.1 1826.3 162.3 1805.8 194.5 1777.9 239.4 1763.3 262.5 1741.4 263.6 1731.5 277.5 1746.4 277.4 1747 287.2 1750.1 287.5 1751.4 292.3 1751.4 304.4 1735.6 304.8 Z" data-holc_grade="C"/>
<path d="M 1966.9 385.9 1960.6 391.6 1949.6 410 1931.5 410.2 1931.8 413.8 1878.5 415.4 1841 415.6 1865.3 354.8 1898.3 283.7 1908 268.1 1904.7 188.1 1938.2 187.5 1936.1 147.5 1966.3 111.8 1999 125 1995.5 129.4 1994.1 136.9 1989.5 141.3 1982.5 165.6 1975.5 165.6 1958.2 218.9 1931.8 241.2 1933.1 308 1946.6 311.4 1948.8 315.7 1946.3 322.7 1946.6 331.7 1932 328.5 1932.8 353.8 1935.5 360.6 1960.9 366.9 1966.9 385.9 Z" data-holc_grade="C"/>
<path d="M 1618.2 364.7 1637.6 364.4 1638.1 352.3 1645.9 351.6 1646.1 343.3 1658 337.8 1680.2 337.3 1689.9 340.3 1676.1 362.8 1652.1 363.4 1652.1 370.3 1666.2 374.7 1654.7 391.3 1617.5 392.4 1618.2 364.7 Z" data-holc_grade="C"/>
<path d="M 167.1 379.2 169 395.9 54.5 400.3 51 344.9 163.6 341.7 167.1 379.2 Z" data-holc_grade="C"/>
<path d="M 418 444.9 341.9 446.5 284.1 449.3 243.8 449.3 243.8 430.8 204.4 415.1 204.7 409.5 169 395.9 167.1 379.2 184.7 379 240.6 398.1 280.8 409.5 372.7 433.2 418 444.9 Z" data-holc_grade="C"/>
<path d="M 426 475.1 428.8 497.9 429.8 526.7 386.7 527.5 385.6 499 334.3 472.9 284.1 449.3 341.9 446.5 418 444.9 423.6 444.8 426 475.1 Z" data-holc_grade="C"/>
<path d="M 471 606.8 459.5 607 425.6 607.7 427.3 620.7 421.5 622 417.2 625.2 407.4 629 397.7 629.8 396 609.7 350.6 611.5 349.1 583.4 395.1 582.8 429.5 580.5 431.7 580.5 469.6 579.6 471 606.8 Z" data-holc_grade="C"/>
<path d="M 375.6 718.3 424.2 716.8 425.8 744 391.8 744.9 391.1 727.9 376.2 728.1 375.6 718.3 Z" data-holc_grade="C"/>
<path d="M 444.4 474.5 426 475.1 423.6 444.8 443.1 444.8 444.4 474.5 Z" data-holc_grade="D"/>
<path d="M 774.6 847.8 756.5 847.9 756.1 834.7 774 834.2 774.6 847.8 Z" data-holc_grade="D"/>
<path d="M 1075.2 570.6 1077.4 573.5 1088.9 589 1104.8 614 1087 621.3 1074 603 1068.8 595.6 1044.8 596.7 1043 568.8 1056.5 568.6 1073.6 568.5 1075.2 570.6 Z" data-holc_grade="D"/>
<path d="M 1189.8 581.1 1156.1 594.1 1104.8 614 1088.9 589 1105 584.3 1112.5 595.4 1180.8 568.1 1189.8 581.1 Z" data-holc_grade="D"/>
<path d="M 1195.3 512.7 1196.4 538 1159.8 539.2 1163.4 545.7 1131.7 558.6 1127.1 551.2 1118.6 539.8 1130.8 540.2 1129.7 484.7 1161.3 483.9 1160.5 513.1 1195.3 512.7 Z" data-holc_grade="D"/>
<path d="M 1224.6 536.9 1196.4 538 1195.3 512.7 1195 483.3 1203.7 483.3 1225.9 482.7 1224.6 536.9 Z" data-holc_grade="D"/>
<path d="M 1266.7 524.2 1235.4 536.9 1224.6 536.9 1225.9 482.7 1237.5 482.6 1266.7 524.2 Z" data-holc_grade="D"/>
<path d="M 1279.9 504.4 1280.3 509.7 1280.3 519.6 1266.7 524.2 1237.5 482.6 1261.1 482.6 1260.8 490.9 1279 490.7 1279.9 504.4 Z" data-holc_grade="D"/>
<path d="M 1426.8 518.2 1416.4 529.3 1416.6 559.5 1400.2 560.6 1395.2 559.1 1411.7 533.9 1400.6 534.3 1400.6 543.5 1387.5 543 1387.7 534.1 1372.1 534.3 1319.6 535.1 1283.5 548.9 1266.7 524.2 1280.3 519.6 1281.1 525 1313.1 524.4 1353.1 522.8 1354 507.8 1331.1 507.8 1280.3 509.7 1279.9 504.4 1324.6 502.7 1366.5 501.7 1366.1 482.4 1364.8 467.6 1364.3 452.9 1370 453.2 1370 443.4 1388.7 443 1389.4 480.2 1403.4 479.7 1403 493.8 1414.5 493.3 1414 506.7 1403.4 506.3 1404.1 519.1 1426.8 518.2 Z" data-holc_grade="D"/>
<path d="M 1232.3 582.2 1224.5 584.5 1216.4 573.4 1212.8 574.3 1201.1 554.7 1209.9 551.1 1207.2 547.8 1224.7 541.2 1248.3 576.7 1232.3 582.2 Z" data-holc_grade="D"/>
<path d="M 1283.5 548.9 1268.2 554.9 1284.9 579.6 1255.9 589.5 1240.9 594.6 1232.3 582.2 1248.3 576.7 1224.7 541.2 1235.4 536.9 1266.7 524.2 1283.5 548.9 Z" data-holc_grade="D"/>
<path d="M 542 564.7 543.5 605.9 572.7 605.4 617.6 604.6 618.1 614.5 620.2 658.8 621 687.8 658.9 712.4 659.9 700 695 699.5 695.6 713.5 695.6 734.9 684.8 739.5 587.6 741.6 583.2 687.8 510.6 688.5 510.6 687 475.2 687.2 473.5 660.4 497.7 659.9 498.5 670.3 506.5 669.5 507.4 678.4 528.8 678.1 528.1 660.8 527.1 634.8 506.1 635.4 504.8 616.8 488 607 481 606.9 480.8 612.3 476.9 613.4 477.1 632.4 472.4 632.4 471 606.8 469.6 579.6 468.1 552.1 507 552 509.3 557.1 505.5 559.8 505.7 565.4 542 564.7 Z" data-holc_grade="D"/>
<path d="M 1351.7 590.3 1310.3 589.4 1300.6 573.8 1294.1 564 1318.6 563.4 1329.9 562.6 1372.6 561.8 1372.4 574.1 1355.3 575 1355.2 590.4 1351.7 590.3 Z" data-holc_grade="D"/>
<path d="M 1173.2 684.3 1175.2 688.4 1166 691.9 1175.5 704.9 1184.5 701.2 1189 708 1155.7 719.6 1140.4 697.5 1138.3 693.6 1171 681.5 1173.2 684.3 Z" data-holc_grade="D"/>
<path d="M 1282.5 688.8 1293.8 705.6 1314.7 698.7 1318 703.9 1288.6 714.4 1285.2 710 1281.2 713.4 1244 726.5 1207.5 671.9 1199.5 660 1233.5 647.1 1265 695.1 1282.5 688.8 Z" data-holc_grade="D"/>
<path d="M 1282.5 688.8 1265 695.1 1233.5 647.1 1215.9 620.2 1211.6 614.1 1218.6 611.7 1214.3 604.7 1228.8 598.5 1239.8 611.5 1264.4 640.6 1254.8 644.3 1263.8 659.6 1272.4 656.9 1279.6 660.2 1287.4 669.8 1297.1 667 1306.4 680.2 1282.5 688.8 Z" data-holc_grade="D"/>
<path d="M 1255.9 589.5 1270.8 612 1277.5 609.8 1280.9 614.5 1271 617.7 1280.2 633.6 1292.6 630.1 1297.3 638.2 1307.9 635.1 1307.5 633.8 1335.2 623.7 1351.3 647.3 1347 653.2 1326.4 659.8 1322.8 656.1 1302.3 663.4 1289.9 644.6 1293.7 643.1 1290.4 637.6 1279.8 641.1 1278.4 639.1 1266.3 642.8 1264.4 640.6 1239.8 611.5 1228.8 598.5 1240.9 594.6 1255.9 589.5 Z M 1310.3 589.4 1351.7 590.3 1350.2 602.3 1338.5 606.5 1339.2 617.8 1333.1 620.6 1324.3 608.5 1312.6 612.6 1321 625.8 1304.3 631.8 1278.5 591.8 1290.1 588.3 1301 603.9 1316.2 598.3 1310.3 589.4 Z" data-holc_grade="D"/>
<path d="M 1403.9 670 1387.5 682.9 1384.3 682.4 1379.6 676.3 1369 679.9 1366.6 679.3 1340.3 689.3 1318.7 696.8 1309.6 684.4 1365.4 663.9 1351.7 644 1355 640.5 1353.9 619.2 1372.6 594.5 1373.3 615.5 1409.7 614.5 1410.1 602.5 1420.5 602.5 1411.9 627.2 1416.2 642.6 1402.1 642.4 1403.2 661.5 1408.6 665.8 1403.9 670 Z" data-holc_grade="D"/>
<path d="M 1474.4 666 1460.9 686.8 1435 651.5 1441.9 648.8 1442.1 632.1 1451 632.1 1450.5 606.8 1430.2 606.9 1430 602.4 1429.6 585.5 1429.4 577.3 1470.4 562.2 1484 574.8 1483.8 578.3 1460.5 586.9 1448 586.9 1448.6 596.3 1502.6 595 1513.6 605.9 1496.6 631.9 1474.4 666 Z" data-holc_grade="D"/>
<path d="M 1534.1 623.3 1517.1 628.5 1496.6 631.9 1513.6 605.9 1517.3 603 1529.2 613.4 1545.8 612.6 1552.3 617.7 1534.1 623.3 Z" data-holc_grade="D"/>
<path d="M 1128 781.9 1153.7 791.8 1143.8 794.8 1153.2 810.3 1129.6 818.1 1137.5 828.6 1140.3 833.5 1124.9 837.9 1108.4 817.8 1045.9 816.9 1025.2 789 1052.4 790.8 1103 771.2 1121 779.2 1128 781.9 Z" data-holc_grade="D"/>
<path d="M 1209.9 740.3 1218.5 748.9 1231.1 750.1 1232.5 752.5 1235.1 757.1 1222.9 761.2 1200.5 768.7 1207.7 783.8 1199.8 786.3 1198 781.7 1191.9 783 1179.4 802.4 1153.7 791.8 1128 781.9 1134.8 771.4 1146 765.9 1140.2 757.9 1159.6 750.7 1194.6 737.6 1204.5 734 1209.9 740.3 Z" data-holc_grade="D"/>
<path d="M 568.4 516.2 552.2 516.7 540.5 516 540.2 511.2 539.4 497.3 567.9 496.9 568.4 516.2 Z" data-holc_grade="D"/>
<path d="M 1301 725.4 1288.8 729.5 1272.6 735.5 1232.5 752.5 1231.1 750.1 1241.3 744.9 1234.6 735.6 1281.5 718.7 1303.8 720.3 1306 723.8 1301 725.4 Z" data-holc_grade="D"/>
<path d="M 1330.3 769.9 1333.7 775 1296.6 789.5 1279.9 763.7 1278.4 761.4 1286.9 758.6 1272.6 735.5 1288.8 729.5 1301 725.4 1330.3 769.9 Z" data-holc_grade="D"/>
<path d="M 1398.8 699.7 1408.4 696.6 1430.7 727 1423.5 734.7 1351.5 762.1 1330.3 769.9 1301 725.4 1306 723.8 1314.1 735.1 1338.7 726.6 1318.7 696.8 1340.3 689.3 1376.9 742.4 1417.4 727.6 1398.7 699.7 1398.8 699.7 Z" data-holc_grade="D"/>
<path d="M 1045.9 816.9 1108.4 817.8 1124.9 837.9 1136.5 855.8 1125.1 868 1109.8 886.8 1104.4 880.2 1087.5 885.8 1089.6 890 1080.3 893.8 1054.7 897.3 1050 891.8 1039.6 895.8 1029.9 885.3 1012.4 892.8 1006.3 885 992.2 890.7 977.2 869.3 957.5 843.9 948 847.2 965.4 871.6 982.6 894.6 969.2 900.1 958.8 886.2 944.2 892.3 938.1 884.2 926.2 888.6 925.4 881.9 922.1 882.8 921.9 846.2 931.1 845.2 940.6 841.6 945.3 837.7 948.2 835.2 951.4 828.3 953.2 805.6 955 790 968 790.2 970.5 816.4 995.5 815.8 1017.3 817.1 1045.9 816.9 Z" data-holc_grade="D"/>
<path d="M 1179.4 802.4 1182.5 803.6 1184.3 807 1190.3 818 1151.4 830.3 1140.3 833.5 1137.5 828.6 1129.6 818.1 1153.2 810.3 1143.8 794.8 1153.7 791.8 1179.4 802.4 Z" data-holc_grade="D"/>
<path d="M 1215.6 863.9 1195.8 864.5 1198.9 870.7 1179.6 877.8 1175.5 873.5 1168.8 877.7 1171.9 881.2 1163.6 883.3 1155 870.3 1156.4 868.9 1149.8 857.2 1139.9 861.2 1136.5 855.8 1124.9 837.9 1140.3 833.5 1151.4 830.3 1190.3 818 1215.6 863.9 Z" data-holc_grade="D"/>
<path d="M 1264.4 836.3 1285.6 844.7 1293.6 846.6 1258.5 856.7 1226.9 866.5 1216.9 866.4 1215.6 863.9 1190.3 818 1184.3 807 1182.5 803.6 1264.4 836.3 Z" data-holc_grade="D"/>
<path d="M 1263.5 770 1279.9 763.7 1296.6 789.5 1336 842.2 1317.7 850.3 1292.4 841.1 1290.1 841.7 1293.6 846.6 1285.6 844.7 1264.4 836.3 1222.9 761.2 1235.1 757.1 1246.7 775.8 1263.5 770 Z" data-holc_grade="D"/>
<path d="M 1336 842.2 1296.6 789.5 1333.7 775 1330.3 769.9 1351.5 762.1 1376.4 799.5 1385 796.4 1388.2 801.3 1401.9 796.7 1420.6 825.6 1408.8 830.8 1415.2 841.3 1369 861.5 1352 835.7 1336 842.2 Z" data-holc_grade="D"/>
<path d="M 1524.5 797.6 1530.3 806.3 1483.2 837.7 1445 855.8 1405.7 871.2 1380.2 878.7 1369 861.5 1415.2 841.3 1408.8 830.8 1420.6 825.6 1401.9 796.7 1388.2 801.3 1385 796.4 1376.4 799.5 1351.5 762.1 1423.5 734.7 1430.7 727 1408.4 696.6 1398.8 699.7 1387.5 682.9 1403.9 670 1416 687.4 1419.7 686.6 1425.1 695 1422.1 696.3 1431.7 710.2 1476 779.1 1505.1 768.5 1524.5 797.6 Z" data-holc_grade="D"/>
<path d="M 725.4 547.6 687.6 547.8 687.6 540.5 708.5 540.3 707.6 520.3 723.1 520.1 725.4 547.6 Z" data-holc_grade="D"/>
<path d="M 1062.6 1022.2 1053.1 1027.5 1053.3 1038.2 1058.1 1058.6 1057.4 1061 1016.8 1057.7 990.9 1049.5 982.5 1063.1 977.8 1059.9 951.6 1047.9 942.6 1057.7 929.1 1052.3 920.5 1064.1 918.1 1066.9 902.5 1051.6 897.1 1038.2 891.7 1032.4 887.8 1028.4 883 1025.1 881.6 1021.2 904.3 1012 915.3 1011.2 920.2 1008.3 918.3 1002.2 931 997.6 943.8 997.9 955.2 1009.6 964.8 1007.5 971.6 1008.8 972.6 1009 996.1 1013.4 1013.3 1006.7 1038.2 997.1 1062.6 1022.2 Z" data-holc_grade="D"/>
<path d="M 1169.6 932.7 1175.8 938.5 1139.9 954.5 1118.2 963.1 1103.6 942.7 1094.3 945.6 1108.5 967 1087.7 975.3 1038.2 997.1 1013.3 1006.7 1004.8 993.7 1014.8 989.4 1006.8 980.7 1006.3 976.6 1019.1 971.9 1026.4 981 1039 974.8 1034.2 968.6 1027.9 955.6 1039 951.2 1046.7 963.6 1059.7 958 1055.4 950 1067.1 945.7 1064.9 942.2 1073.5 938.9 1067.1 929.6 1074.6 925.1 1091.8 925.7 1104 926.1 1111.6 924.8 1148.9 911.9 1158.2 922.2 1169.6 932.7 Z" data-holc_grade="D"/>
<path d="M 1062.6 1022.2 1038.2 997.1 1087.7 975.3 1108.5 967 1118.2 963.1 1139.9 954.5 1175.8 938.5 1198.7 928.3 1203.9 938.1 1208 943.7 1194.5 955.6 1184.4 969.4 1180.1 974.6 1171.2 982.7 1166.9 988.4 1161.2 990.8 1154.3 977.2 1141.5 982.3 1137.2 990.2 1132 995.4 1121.2 999.4 1131 1018.4 1120.7 1029.4 1102.3 1024.4 1084 1022.8 1068.8 1021.4 1062.6 1022.2 Z" data-holc_grade="D"/>
<path d="M 1155.2 910.1 1148.9 911.9 1111.6 924.8 1104 926.1 1091.8 925.7 1113.7 896.1 1122.6 892.3 1126.4 894.3 1137.5 890.5 1142.9 899.5 1149.1 897.7 1146.9 894.3 1154.8 890.9 1157.2 894.3 1183.1 884.3 1187.2 888.9 1196.1 885.9 1194.2 881.9 1213.9 882.3 1226.6 885.1 1236.9 882.3 1226.9 866.5 1258.5 856.7 1293.6 846.6 1327.1 893.1 1312.5 896.5 1293.6 901.3 1277.1 906.7 1257.7 915.2 1244.7 923.4 1218.8 937.2 1208 943.7 1203.9 938.1 1198.7 928.3 1193.2 917.5 1175.5 902.1 1155.2 910.1 Z" data-holc_grade="D"/>
<path d="M 1586 753.6 1581.8 756.8 1571.5 764.7 1557.4 775.5 1541.9 753.6 1577.5 741.3 1586 753.6 Z" data-holc_grade="D"/>
<path d="M 1626 759.2 1617.7 745.2 1613.3 738.7 1624.9 733.1 1594.6 687.9 1573.6 657.3 1583.3 654.1 1602 682.9 1612.1 674.9 1646.8 726 1645 726.5 1650.4 734.4 1634.6 739.1 1643.6 754.1 1626 759.2 Z" data-holc_grade="D"/>
<path d="M 1712.3 752.5 1700.9 756.4 1693.3 759 1672.1 723.3 1673.6 720.4 1691.8 719.1 1712.3 752.5 Z" data-holc_grade="D"/>
<path d="M 950.8 435.6 877.3 435.6 865.8 435.8 864.5 403.1 902.9 401.2 903.2 408.5 920.1 408.7 956.1 410.2 954.3 433.3 950.8 435.6 Z" data-holc_grade="D"/>
<path d="M 1096.2 429.3 1094 431.1 1084.7 430.2 1039.7 377.4 1030.5 377.4 1029.3 377.4 1027.1 357.4 1008 335.4 1007.3 322.6 1041.5 321.8 1074.7 321.3 1074.7 349.7 1083.3 349.7 1082.2 376 1086.5 376.3 1096.2 429.3 Z" data-holc_grade="D"/>
<path d="M 1152.2 428.7 1147.2 375.1 1117.5 375.5 1118.9 406.4 1139.4 406.2 1141.3 429.1 1096.2 429.3 1086.5 376.3 1082.2 376 1083.3 349.7 1074.7 349.7 1074.7 321.3 1041.5 321.8 1040.6 307.6 1039.7 294.7 1077.2 293.9 1085.8 321.8 1116.1 321 1115.7 293 1192.4 291.3 1196.9 426.7 1152.2 428.7 Z" data-holc_grade="D"/>
<path d="M 768.2 546.8 752.6 547.4 751.5 519.7 767 519.6 768.2 546.8 Z" data-holc_grade="D"/>
<path d="M 1735.6 304.8 1738.3 343.1 1739.6 389.6 1681 390.1 1654.7 391.3 1666.2 374.7 1652.1 370.3 1652.1 363.4 1676.1 362.8 1689.9 340.3 1680.2 337.3 1658 337.8 1646.1 343.3 1645.9 351.6 1638.1 352.3 1637.6 364.4 1618.2 364.7 1619.8 330.7 1641.2 330.1 1639.6 304.4 1685.9 303.3 1735.4 302 1735.6 304.8 Z" data-holc_grade="D"/>
<path d="M 338.1 942 308.8 942.6 264.6 942.7 230.2 943.6 227.4 889.3 337.3 887 338.1 942 Z" data-holc_grade="D"/>
<path d="M 104.6 1111.6 87.9 1112 88.3 1085.3 143.2 1083.6 142.5 1053.5 197.6 1043.1 199.1 1109.3 104.6 1111.6 Z" data-holc_grade="D"/>
<path d="M 87.9 1112 104.6 1111.6 105.1 1140.5 52.4 1141 52 1154.4 41.2 1154.1 39 1155.8 33.2 1155.8 31 1155.5 4.2 1155.5 4 1114.6 36.9 1113.8 44.4 1112.5 87.9 1112 Z" data-holc_grade="D"/>
<path d="M 438.6 1054.9 438.4 1075.9 413.2 1076.1 326.8 1079.1 236.3 1080.1 234.9 1035.1 373.4 1014 438.4 1001.5 438.6 1054.9 Z" data-holc_grade="D"/>
<path d="M 926.2 888.6 926.7 892.8 923.7 899.6 917.2 914.3 924.8 923.8 961.7 917.8 981.2 946.8 964.3 967.1 977.1 964.8 975.3 973.6 981.8 994.5 981 998.7 972.6 1009 971.6 1008.8 954.2 973.9 940.1 954.9 913.1 917.4 909.9 911.3 907.9 898.7 907.7 886.9 922.1 882.8 925.4 881.9 926.2 888.6 Z" data-holc_grade="D"/>
<path d="M 891.7 1032.4 866.3 1028.8 843.7 1025.5 829 1044.9 792.5 1032.1 812.1 1007.6 840.9 1005.3 842.6 1009.2 841.7 1013.7 869 1026.2 883 1025.1 887.8 1028.4 891.7 1032.4 Z" data-holc_grade="D"/>
<path d="M 972.2 1137.3 937.8 1121.9 982.5 1063.1 997 1068.8 999.4 1065.6 1004.1 1061.5 1010.8 1061.5 1021.2 1063.4 1042.6 1080.2 1040.4 1084 1017.3 1077.6 1004.4 1072.5 997.2 1083.1 988.4 1081.5 982.8 1092.8 972.2 1137.3 Z" data-holc_grade="D"/>
<path d="M 972.2 1137.3 976.7 1139.3 962.4 1181.7 967.2 1182.8 965.9 1188 972.4 1189.6 968.3 1200 962.4 1201.6 959 1209.4 954.7 1218.2 962.4 1219.5 960.3 1222.8 955.7 1225.9 955.5 1230.4 948.3 1230 938.8 1231 929.9 1231.9 924 1226.9 916.2 1226.9 912.3 1226.3 909.5 1223.9 910.4 1219.4 911.2 1216 911.7 1209.5 916.4 1206.1 918.1 1203.4 918.1 1197.5 912.7 1189.8 914.7 1182.3 920.1 1178 921.4 1165.5 916.8 1162.1 905.2 1161.2 909.5 1156.4 937.8 1121.9 972.2 1137.3 Z" data-holc_grade="D"/>
<path d="M 900.5 1350.3 888.6 1350.3 888.4 1337.9 883 1337.7 882.5 1312.1 892.6 1312.2 893.2 1294.9 892.7 1278.1 888.9 1278.2 888.2 1268.6 893.1 1263.4 895.3 1259.8 896.2 1253.3 913.1 1253 918.3 1252.9 930.4 1251.8 937.8 1257 916.2 1321 908.1 1350.1 900.5 1350.3 Z" data-holc_grade="D"/>
<path d="M 782.2 573.8 782.1 555.2 800.6 554.4 801.6 573.2 782.2 573.8 Z" data-holc_grade="D"/>
<path d="M 904.1 1373.2 919.8 1372.8 931.2 1371.1 942.6 1369.7 949.9 1368.3 949.5 1373.2 945 1380.4 938.5 1392.4 930.7 1402.6 917.8 1418.2 901.6 1418.5 908 1391.5 900.8 1388.8 902.1 1383.1 904.1 1373.2 Z" data-holc_grade="D"/>
<path d="M 865.9 1477 824 1478.2 805.3 1478.8 805.5 1476.5 801.7 1476.5 800.6 1422.6 838 1421.3 885 1419.6 871.7 1463.6 865.9 1477 Z" data-holc_grade="D"/>
<path d="M 824 1478.2 865.9 1477 859.1 1496.8 851.7 1497.2 847.6 1496.7 840.4 1489.2 829.6 1489.5 824.7 1487.3 824 1478.2 Z" data-holc_grade="D"/>
<path d="M 877.3 435.6 950.8 435.6 949.3 436.6 946.6 461.3 889.9 460.4 878 460.7 877.3 435.6 Z" data-holc_grade="D"/>
<path d="M 626.5 823.3 639.4 823.3 641.6 836.6 685.2 834.9 687.5 863.2 628.4 865.9 627.9 850.2 618.2 850.3 616.4 823.2 626.5 823.3 Z" data-holc_grade="D"/>
<path d="M 772.3 798.8 772.6 804.3 737.2 804.5 734.7 770.1 752.9 783.5 753 792.6 764.4 792.6 772.3 798.8 Z" data-holc_grade="D"/>
</g>
</svg>