<?xml version="1.0"?>
<svg xmlns="http://www.w3.org/2000/svg" version="1.2" baseProfile="tiny" width="2000" height="2388" viewBox="0 0 2000 2388" stroke-linecap="round" stroke-linejoin="round">
<g id="holc_ad_data">
<path d="M 1200.1 2050.7 1200.2 2051.2 1183.3 2057.4 1170.3 2063.5 1162.4 2071.7 1163.7 2101.9 1163.8 2103.4 1152.1 2103.2 1150.4 2173.6 1171.6 2174 1175.2 2106.6 1179.4 2103.6 1179.4 2102.3 1178.9 2074.8 1199 2075.1 1199.6 2103.5 1219.1 2104.1 1217.8 2157.9 1229.5 2157.9 1230.2 2162.5 1204.8 2171.7 1195.2 2184.6 1181.6 2205.5 1173.3 2217.4 1170.7 2233.4 1175.7 2245.8 1182.5 2253.8 1195.9 2257.7 1213.9 2264.3 1227.3 2270.3 1231.6 2280.5 1230.8 2280.5 1230.8 2280.8 1207.4 2277.6 1196.1 2292.8 1178.3 2315.4 1189.9 2325.4 1004.1 2325.4 1006.2 2213.6 938.6 2213.6 935.6 2227.1 931.7 2227 928.7 2102.1 908.5 2103.1 907 2103.2 911.9 2023.3 921.2 2022.7 922.4 1967.6 932 1968.2 932.9 1914 932.9 1913.9 932.9 1913.4 932.9 1913 933.3 1913 971.8 1913 968.1 2048.6 1026.7 2049.4 1027.1 2022.7 1084.7 2022.9 1086.1 2049.2 1124.2 2049.8 1125.1 2021.9 1199.2 2022 1200.1 2050.7 Z M 1248 2042.7 1247.8 1993.2 1239.1 1994.4 1237.9 1977.4 1247.3 1977.4 1248 1913.6 1257.6 1914.2 1256 1937.4 1268.3 1937.7 1268 1901.6 1314 1901.7 1313.2 1913.5 1279.2 1914.1 1277.9 1941.4 1259.9 1941.3 1259.8 2043.2 1248 2042.7 Z" data-holc_grade="A"/>
<path d="M 287.4 1233.6 285.1 1241.2 273.6 1243.4 257.6 1247.7 252.8 1248 244 1239.5 240.2 1247.5 229.3 1251.6 212.6 1256.4 206.2 1254.7 196.7 1263.4 185.8 1262.7 170.4 1259.5 161.9 1262.2 161.3 1267.7 86.4 1286.9 82 1288.1 80.6 1288.4 83.3 1280.5 87.7 1274 101 1265.8 106.5 1255.4 111.6 1246.3 130.3 1243.6 157.5 1242 173.8 1241.7 176.2 1239.8 201.1 1235.7 214 1232.3 215.4 1232 215 1233 287.4 1233.6 Z" data-holc_grade="A"/>
<path d="M 235.9 907.1 236 907.6 237.2 917.2 298.1 918.1 297.1 907.3 297.1 906.8 297.1 906.4 316 906.1 316 906.5 316 906.9 316 907.4 317.8 907.4 316.5 933.1 304.9 936 305.9 960 266.1 962.4 220.1 945.3 218.8 961.2 200.1 961.5 200.1 989.2 200.1 989.9 198.9 989.9 180 989.4 177.8 906.6 192.9 906.6 199.7 906.6 199.8 905.6 199.8 905 235.8 906.4 235.9 907.1 Z" data-holc_grade="A"/>
<path d="M 199.6 754 198.8 769.2 197.1 769.3 196.3 769.3 191.6 769.3 164.9 769.7 162.8 769.7 165.2 618.5 184.4 618 185 630.2 201.4 631.4 199.5 714.2 198.6 754 199.2 754 199.6 754 Z" data-holc_grade="A"/>
<path d="M 160.9 360.6 158.2 360.6 154.1 238.9 159.6 238.9 193.9 238.9 195.3 360.1 160.9 360.6 Z" data-holc_grade="A"/>
<path d="M 1410.7 422.5 1410.7 420.3 1425.7 424.8 1437.9 431.3 1451.5 440.7 1508.4 443.1 1511.4 468.4 1525 468.1 1499.9 496.3 1410 494.6 1410.7 422.5 Z" data-holc_grade="A"/>
<path d="M 540.6 1860.4 579 1861.5 579 1915.3 616.7 1914.7 618.2 1968.7 771 1968.2 773.2 2049.4 832.6 2049.2 833.5 2077.8 870.7 2076.5 871.3 2104.2 849.7 2104.9 850 2129.7 865.3 2126.5 879.9 2122.9 890.4 2116.1 894.6 2110.4 894.6 2103.8 907 2103.2 908.5 2103.1 928.7 2102.1 931.7 2227 931.7 2227.7 920.5 2233 917.7 2241.6 913.4 2244.6 896.6 2245.9 887.7 2248.6 880.8 2258.3 876.6 2267.8 875.1 2279.7 876.3 2303.8 878.7 2327.1 789.5 2325.9 789.7 2325.9 789.5 2298.1 789.9 2280.7 789.5 2259.2 789.9 2213.9 771.3 2215.5 769.6 2202 752.2 2212.1 751 2271 717.5 2270.8 719 2227 674.4 2214.6 659.9 2215.1 657.7 2192.7 639.8 2193.4 640.5 2182 629 2178.4 616.6 2176.8 617.6 2215.8 482.5 2217.1 482.5 2218.5 308.5 2217.9 308.6 2215 177.3 2213.5 175.4 2185.7 194.1 2185.7 195.5 2130.7 213.7 2131.7 212.9 2078.2 174 2077.6 176.1 1967.8 211.1 1968.9 209.9 1940.9 219.7 1924.6 244.3 1928.6 251.4 1921.2 267.6 1924.8 269.4 1922.3 269 1922 269.2 1921.9 273.2 1919.7 298.1 1878.3 299.1 1878.5 310.3 1880.7 321.8 1874.3 341.7 1867.4 367 1862.2 387.7 1865.2 404.1 1867 421.7 1871 438.4 1875.5 458.3 1882 469.4 1889.9 478.8 1899.6 480.9 1910.5 481.1 1914.4 488.2 1913.2 494.1 1907.2 496.8 1895.6 499.8 1888.2 506.2 1886.2 522.8 1887.7 537.9 1887.8 540.1 1860.4 540.6 1860.4 Z M 379.2 2050.8 401.3 2045.6 424 2035.8 433.3 2031.1 442.6 2019.6 457 2001.2 466.1 1983.1 480.9 1955.7 484.9 1943.7 481.5 1920.4 477.3 1909 470.7 1895.6 463.5 1888.1 456.6 1883 436.1 1877.1 417.1 1872.4 400.1 1867.8 380 1865.6 363.1 1864 343.2 1868.3 322.8 1876.2 311.5 1881.9 304 1888.5 295.6 1904.5 286.4 1918.9 279.9 1935.4 267.6 1953.2 258.9 1965.7 249.9 1975.2 246.4 1985.6 241.6 1994.7 240.1 1998.3 236.2 2005.1 237.1 2016.7 241 2024.6 255.9 2033.1 268.5 2039.4 290.3 2045.8 306.8 2050.6 322.3 2052.3 340.6 2053 361.2 2053.2 379.2 2050.8 Z" data-holc_grade="A"/>
<path d="M 177.3 1763.1 175.6 1777 245.4 1778.7 244.2 1800 249 1800.4 252.2 1797.8 263.1 1790.9 271.8 1787.4 281.9 1783.2 282.1 1783.4 285.2 1786.6 278.7 1788.6 272.7 1793.6 266.7 1798 257.2 1805.5 253.9 1812.9 255.6 1819.6 266.3 1827.9 273.5 1828.5 283.3 1825.7 290.3 1823.6 294.6 1818.8 298.8 1814.3 306 1819.4 303.3 1822.2 300.5 1834.4 299.4 1840.5 302 1852.9 296.6 1860.4 296.6 1868 299.1 1878.5 298.1 1878.3 273.2 1919.7 269.2 1921.9 269 1922 266.3 1920 249.6 1907.9 228.4 1899.6 237.4 1886.3 199.1 1886.7 197 1918.9 153.9 1913.2 154.8 1938.4 115.3 1937.9 116.6 1858 78.1 1857.7 77.3 1829.5 4.5 1830.1 2.7 1774 94.9 1775 95.6 1726.6 92.8 1720.2 114.3 1719.9 109.3 1709.3 110.8 1696.7 116.1 1686.9 120.6 1678.6 103.8 1677.4 104.7 1667.7 112.3 1666.9 105.8 1662.4 97.5 1653.9 93.8 1645.9 94.2 1637.1 95.1 1627.4 102.1 1620.3 112.1 1612.8 139.6 1614.8 136.5 1622.3 129.5 1641 126.7 1656.9 127.8 1668.6 128.2 1676.8 131.7 1684.9 138.3 1696.1 141.5 1704.2 140.4 1710.6 136.6 1717.3 133.4 1725.3 127.7 1733 125.3 1739.6 129.5 1748.6 136.3 1756.6 145.4 1760.8 155.4 1763.1 169 1763.6 177.3 1762.7 177.3 1763.1 Z" data-holc_grade="A"/>
<path d="M 435.6 1722.8 435.6 1723.4 385.7 1721.9 385.2 1715 384.8 1708.7 386.8 1701 388.3 1694 393.5 1687.1 393.9 1682.7 395.9 1683.2 408 1684.8 410 1667.8 435.1 1668.9 434 1722.9 435.6 1722.8 Z" data-holc_grade="A"/>
<path d="M 1568.5 2042.4 1487.2 2042.4 1486.6 2029.5 1466.8 2028.6 1466.8 2129.4 1448.6 2129.7 1448.3 2157 1432.4 2157 1428.5 2183.7 1428.5 2239.6 1371.1 2236.9 1365.4 2239.2 1359.7 2253 1345.7 2266.3 1326.8 2265.9 1312.2 2273.3 1298.1 2278.4 1282.3 2279.7 1259.5 2280.7 1236.2 2280.5 1236.6 2272.1 1266.7 2272.1 1282.9 2270.4 1300.2 2267.7 1316.9 2263.1 1337.8 2257.6 1340.2 2249.4 1350.6 2237.3 1364.4 2218.6 1373.6 2206.2 1399.4 2180.6 1410 2169.8 1412.4 2160.1 1408.1 2158 1406.9 2146.8 1436.8 2108.4 1448.8 2103 1449 2088 1448.7 2020.2 1465.6 2019.9 1464.2 1942 1448 1942 1448.7 1913 1448.7 1912.2 1478.7 1911.8 1477.9 1941.2 1469 1941.5 1470.1 2013.1 1482.1 2020.4 1495.8 2022 1509.1 2017.8 1521.7 2005.9 1530.5 2000.4 1543.1 2000.8 1560.4 2004.2 1562.9 2008.5 1566.3 2014.6 1568.5 2017.6 1563.1 2020.8 1563.9 2024.2 1569 2028.6 1567.7 2039.4 1568.5 2042.4 Z" data-holc_grade="A"/>
<path d="M 1857.4 1718.9 1855.2 1720.3 1837.5 1719.6 1840.2 1610.2 1859.5 1610.1 1898.1 1610 1900.8 1623 1901.1 1633.3 1897.1 1642.5 1890.9 1652.4 1885.8 1662.2 1885.5 1669.5 1889.6 1680.8 1891.6 1690.4 1889.2 1701 1884.1 1708.7 1873.6 1711.4 1863.4 1715.2 1857.4 1718.9 Z" data-holc_grade="A"/>
<path d="M 1840.4 1541.4 1742.2 1478.8 1754.6 1469.2 1755.5 1468.5 1761.8 1477.2 1784.8 1492.4 1806.1 1505.2 1824.5 1511.9 1840.7 1520 1839.2 1523.4 1840.9 1541.7 1840.4 1541.4 Z M 1736.7 1458.7 1735.2 1459.6 1710.9 1440.9 1658.3 1405.6 1562.6 1341.3 1563.1 1341.2 1593.1 1339.6 1605.1 1347.7 1620.8 1361.3 1667.6 1396.5 1691.9 1417.9 1711.7 1431.3 1730.2 1439.8 1748.9 1450.8 1736.7 1458.7 Z M 1687.3 1325.8 1774.6 1389.5 1775.4 1390 1763.2 1398 1661.8 1325.8 1687.3 1325.8 Z" data-holc_grade="A"/>
<path d="M 61.5 1483.9 61.2 1535 7.7 1534.8 6.7 1534.8 6.4 1478.4 61.5 1483.3 61.5 1483.9 Z" data-holc_grade="A"/>
<path d="M 368.5 1384.3 371.9 1394 367.2 1406.1 359.5 1414.3 354.1 1423.9 345.9 1428.8 339.7 1420.9 333.6 1411.3 314.2 1387.1 304.1 1390.4 293.3 1395.1 281.7 1413.7 266.9 1415.1 257.3 1417.3 251.1 1430.2 255.3 1444.4 255.3 1462.8 251.1 1467.7 257.7 1481.7 258.4 1501.7 284 1506.9 177.6 1507.7 174.9 1500.4 177.3 1490.2 173.5 1486.6 164.7 1482.3 157.9 1481.1 154.5 1480.9 189.1 1448.3 190.6 1448.4 204.2 1449.6 217.4 1438.1 229.8 1424.7 230.5 1417.3 241 1408 244.5 1396.7 265 1394.8 273.9 1380.8 285.5 1375.6 304.9 1382.2 337 1385 368.4 1384.1 368.5 1384.3 Z M 617.5 1275.3 616.9 1276.7 612.2 1287.4 611.4 1289.1 409.9 1286.3 411.5 1316.5 448.2 1316.5 448.9 1340.3 441.7 1370.9 441.5 1446.4 421.8 1495 420.3 1494.6 401 1490.1 407.3 1472.9 418.5 1459.3 415.5 1452.1 399.6 1445.2 387 1437.2 384 1428 393.7 1413 401.6 1403.3 411 1390.3 418.9 1374.9 419.6 1371.9 411.6 1362.8 399.7 1352.8 387.4 1333.6 386.3 1326.2 385.8 1285.8 368.7 1285.2 368.6 1284.8 368.3 1265.1 385.2 1261.1 453.8 1263.7 452.9 1257.3 446.5 1252.8 448.3 1248.8 473.2 1253.1 493.2 1252.2 506.7 1248.4 519.2 1238.7 526.2 1239.2 535.7 1239.7 561.1 1240.2 575.5 1240.1 582 1242.4 585 1251.1 586 1261.4 594.3 1268.6 606.1 1276 617.5 1275.3 Z" data-holc_grade="A"/>
<path d="M 1071.3 283.9 1091 278 1120.8 269.4 1139.4 268.6 1144.8 266.2 1152.9 266.2 1167.1 263.8 1188 264.9 1196 266 1217.6 266.2 1217.9 277.2 1212.3 277.4 1196.1 285.1 1182.6 286.5 1169.8 285.8 1156.2 285.8 1147.9 288.6 1137.1 292 1129.2 297.7 1124.2 302.6 1104.8 301.2 1086.7 303.8 1071.3 283.9 Z" data-holc_grade="B"/>
<path d="M 714.2 1266.8 714.1 1269 731.7 1268.6 732.2 1289.3 753.5 1288.8 753.7 1321.7 734 1321.7 733.2 1342.8 772.3 1342.5 772.7 1452.4 725.4 1452.1 726.2 1478.7 640.3 1478 640 1507.1 619.2 1507.1 624.4 1343.9 612.8 1343.9 613.7 1304.8 605 1304.4 604.6 1304.4 611.4 1289.1 612.2 1287.4 616.9 1276.7 617.5 1275.3 629.2 1249.1 629.7 1249.1 646.7 1249.5 650.7 1254.7 668.3 1259.9 691 1264.7 714.2 1266.8 Z" data-holc_grade="B"/>
<path d="M 118.9 1488.2 126.3 1500.2 113 1507.8 97.1 1532.6 75.1 1548.3 74.4 1553.1 67.7 1556 64 1563.3 7.5 1562.5 7.1 1562.5 7.7 1534.8 61.2 1535 61.5 1483.9 70.9 1484.2 91.4 1488.1 108.2 1488.8 118.8 1488.1 118.9 1488.2 Z" data-holc_grade="B"/>
<path d="M 139.6 1614.8 112.1 1612.8 92.9 1611.4 102.3 1599.9 109.9 1593 117.3 1585.3 124.9 1579.6 130.2 1575 137 1572.2 158.5 1565.2 172.3 1559.2 171 1559.2 194.2 1555.3 190.5 1565.1 181.4 1572.7 171.3 1583.8 160.9 1590.4 155.4 1597.5 146.7 1604.5 140.8 1614.9 139.6 1614.8 Z" data-holc_grade="B"/>
<path d="M 747.1 1615.9 773.6 1614.8 772.6 1586.4 869.4 1586.6 870.8 1586.6 871 1695.7 853.2 1695.2 852.1 1805.1 861 1804.8 862.1 1858.1 860.1 1858.1 833.8 1858.1 835.2 1967.8 872.7 1968.7 871.4 2021.4 910.2 2022.9 912.4 1915.9 914.9 1913.4 932.9 1914 932 1968.2 922.4 1967.6 921.2 2022.7 911.9 2023.3 907 2103.2 894.6 2103.8 894.6 2110.4 890.4 2116.1 879.9 2122.9 865.3 2126.5 850 2129.7 849.7 2104.9 871.3 2104.2 870.7 2076.5 833.5 2077.8 832.6 2049.2 773.2 2049.4 771 1968.2 618.2 1968.7 616.7 1914.7 579 1915.3 579 1861.5 540.6 1860.4 540.9 1831.3 579.9 1831.8 581.8 1776.2 542.1 1775.4 541.9 1723.4 474.1 1723.1 475.4 1668 462.6 1668.1 462.1 1694.3 448.2 1694 446.9 1722.3 435.6 1722.8 434 1722.9 435.1 1668.9 410 1667.8 408 1684.8 395.9 1683.2 393.9 1682.7 387.2 1680.8 389.2 1652.5 378.5 1624.8 364.1 1603.9 361.4 1594.9 354.5 1576.8 351 1562.5 349.8 1553.8 357.2 1547.2 362.2 1536.8 362.2 1528.3 353.3 1517.9 361.8 1514.6 378.3 1507 396.1 1494.1 400.1 1489.8 401 1490.1 420.3 1494.6 421.8 1495 440.7 1499.4 440.9 1499.5 466.7 1505.5 465.6 1537.6 464.8 1560.8 504 1560.8 700 1561 701 1616.2 746.3 1615.9 747.1 1615.9 Z M 603 1586.4 641.2 1587.5 640.5 1576.4 602.4 1576.7 602.2 1586.4 603 1586.4 Z M 749.9 1811.5 750.1 1830.8 774.1 1830.8 772.6 1804.3 749.8 1804.8 749.9 1811.5 Z" data-holc_grade="B"/>
<path d="M 269 1922 269.4 1922.3 267.6 1924.8 251.4 1921.2 244.3 1928.6 219.7 1924.6 209.9 1940.9 211.1 1968.9 176.1 1967.8 174 2077.6 212.9 2078.2 213.7 2131.7 195.5 2130.7 194.1 2185.7 175.4 2185.7 177.3 2213.5 308.6 2215 308.5 2217.9 307.6 2271.2 155.2 2272.2 155.6 2214.6 1 2212.8 2 1965.9 3.5 1965.9 154.4 1966.9 153.9 1940.4 95.7 1940.3 57.6 1946.5 58.2 1939.3 3.5 1935.7 1.7 1935.6 2.9 1830.1 4.5 1830.1 77.3 1829.5 78.1 1857.7 116.6 1858 115.3 1937.9 154.8 1938.4 153.9 1913.2 197 1918.9 199.1 1886.7 237.4 1886.3 228.4 1899.6 249.6 1907.9 266.3 1920 269 1922 Z M 282.1 1783.4 281.9 1783.2 271.8 1787.4 263.1 1790.9 252.2 1797.8 249 1800.4 244.2 1800 245.4 1778.7 175.6 1777 177.3 1763.1 183.1 1761.4 199.7 1762.2 222.8 1762.2 234.1 1766.8 244.5 1771.6 256.9 1774.5 283.5 1777 283.5 1781.6 282.1 1783.4 Z" data-holc_grade="B"/>
<path d="M 789.5 2325.9 769.1 2326.9 769 2341.9 769.6 2363.1 763.8 2377.7 700.7 2377 700.9 2387.3 618 2386 618 2353.3 616.1 2325 503.5 2327.1 502.6 2270.8 482 2270.1 482.5 2218.5 482.5 2217.1 617.6 2215.8 616.6 2176.8 629 2178.4 640.5 2182 639.8 2193.4 657.7 2192.7 659.9 2215.1 674.4 2214.6 719 2227 717.5 2270.8 751 2271 752.2 2212.1 769.6 2202 771.3 2215.5 789.9 2213.9 789.5 2259.2 789.9 2280.7 789.5 2298.1 789.7 2325.9 789.5 2325.9 Z" data-holc_grade="B"/>
<path d="M 1618.3 1913.1 1618.4 1913.3 1630.4 1931.5 1643.5 1949.7 1657.6 1966.6 1668.8 1986.1 1675.9 1995.3 1693.3 2013.8 1721.8 2042.6 1568.5 2042.4 1567.7 2039.4 1569 2028.6 1563.9 2024.2 1563.1 2020.8 1568.5 2017.6 1566.3 2014.6 1562.9 2008.5 1560.4 2004.2 1543.1 2000.8 1530.5 2000.4 1521.7 2005.9 1509.1 2017.8 1495.8 2022 1482.1 2020.4 1470.1 2013.1 1469 1941.5 1477.9 1941.2 1478.7 1911.8 1448.7 1912.2 1448.7 1913 1313.2 1914.3 1313.2 1913.5 1314 1901.7 1268 1901.6 1268.3 1937.7 1256 1937.4 1257.6 1914.2 1248 1913.6 1247.3 1977.4 1237.9 1977.4 1239.1 1994.4 1247.8 1993.2 1248 2042.7 1248 2042.9 1232.6 2043.9 1219.1 2045.8 1200.1 2050.7 1199.2 2022 1125.1 2021.9 1124.2 2049.8 1086.1 2049.2 1084.7 2022.9 1027.1 2022.7 1026.7 2049.4 968.1 2048.6 971.8 1913 933.3 1913 931.4 1573.2 930.2 1573.2 930.2 1572.7 1199.6 1573.6 1201.3 1587.2 1236.3 1587.2 1365.9 1587 1367.1 1614.2 1393 1614.3 1393.5 1615 1395 1641.2 1412.3 1641.5 1413.6 1665.6 1433 1666.2 1432.7 1692.7 1451.5 1693 1451.8 1720.2 1469 1720.4 1471.7 1748.1 1488.6 1747.2 1489.2 1775.2 1507.7 1775.1 1507.5 1802.4 1527.5 1802.8 1527.2 1830.7 1548.4 1831.1 1548.7 1858.6 1569.3 1858.9 1569.4 1862.5 1570.2 1884.3 1590 1886 1589.8 1911.6 1618.3 1913.1 Z M 1076.4 1692.3 1141.2 1692.7 1139.2 1657.2 1120.5 1657.7 1121.6 1603 1057.8 1602.9 1057.8 1603.5 1049.4 1603.6 1049.9 1679.3 1075.9 1679.4 1076.4 1692.3 Z M 1010.4 1992.9 1120.4 1993.3 1121.6 1941 1011.4 1941.4 1010.4 1992.9 Z" data-holc_grade="B"/>
<path d="M 1179.4 2102.3 1179.4 2103.6 1175.2 2106.6 1171.6 2174 1150.4 2173.6 1152.1 2103.2 1163.8 2103.4 1163.7 2101.9 1179.4 2102.3 Z" data-holc_grade="B"/>
<path d="M 1568.5 2042.4 1721.8 2042.6 1722.2 2042.6 1723.8 2042.6 1736.4 2051.5 1750.7 2064.8 1764.5 2076.7 1778.2 2088.1 1798.9 2104 1827.6 2126.3 1854.5 2149.8 1874 2158.9 1890.3 2170.8 1910.4 2180.1 1927.2 2188 1946.4 2195.3 1964.7 2210.4 1965.6 2211.2 1841.2 2212.9 1841.2 2210.5 1468.5 2212.3 1464.5 2322 1231.7 2324.4 1230.8 2280.8 1230.8 2280.5 1231.6 2280.5 1236.2 2280.5 1259.5 2280.7 1282.3 2279.7 1298.1 2278.4 1312.2 2273.3 1326.8 2265.9 1345.7 2266.3 1359.7 2253 1365.4 2239.2 1371.1 2236.9 1428.5 2239.6 1428.5 2183.7 1432.4 2157 1448.3 2157 1448.6 2129.7 1466.8 2129.4 1466.8 2028.6 1486.6 2029.5 1487.2 2042.4 1568.5 2042.4 Z" data-holc_grade="B"/>
<path d="M 1857.4 1718.9 1861 1719.2 1895.3 1749.2 1901.1 1773.5 1898.4 1786.6 1845.7 1787.8 1842.3 1938.4 1868.5 1938.8 1877 1943.9 1884.1 1958.1 1885.1 1969 1877.7 1986.8 1769.4 2020.3 1768.4 2020.5 1763.2 2012.8 1764.5 1965 1744.4 1965.1 1744.3 1939.9 1723.4 1939.6 1724.7 1911 1703.9 1910.6 1704.6 1883.6 1685.7 1883.6 1685.7 1857.7 1667.3 1856.4 1666 1830.8 1647.4 1829.7 1646.7 1801.8 1628.7 1802.2 1628.1 1776.6 1609.1 1776.6 1607.9 1751.1 1587.6 1751.5 1586.5 1721.1 1564.1 1721 1562.6 1692.9 1545.1 1692.4 1546.1 1666.5 1524.7 1666.1 1526.6 1638.1 1504.3 1638.4 1501.7 1638.5 1501.6 1634.8 1500.6 1582.6 1858 1582.8 1859.5 1610 1859.5 1610.1 1840.2 1610.2 1837.5 1719.6 1855.2 1720.3 1857.4 1718.9 Z" data-holc_grade="B"/>
<path d="M 1555.5 576.3 1554.1 576.3 1555.4 658.8 1555.4 659.5 1410.2 659.8 1411.5 689.3 1392.4 689.3 1392.3 578.4 1314.7 579.5 1314.3 414.1 1274.8 414 1280.1 331 1294 331.3 1294 305.5 1294 304.7 1411.7 303.1 1410.7 357.2 1548.2 360.4 1547.1 492.6 1556.9 492.7 1555.5 576.3 Z M 1410.7 422.5 1410 494.6 1499.9 496.3 1525 468.1 1511.4 468.4 1508.4 443.1 1451.5 440.7 1437.9 431.3 1425.7 424.8 1410.7 420.3 1410.7 422.5 Z" data-holc_grade="B"/>
<path d="M 1454.3 1284.2 1455.2 1284.2 1455.1 1303.4 1505.8 1304 1531.3 1316.3 1553.2 1334.6 1563.1 1341.2 1562.6 1341.3 1658.3 1405.6 1710.9 1440.9 1735.2 1459.6 1736.7 1458.7 1754.6 1469.2 1742.2 1478.8 1840.4 1541.4 1840.4 1546.4 1503.2 1545.5 1503.2 1520.9 1627.7 1520.6 1628.4 1532.1 1667.6 1532.4 1667 1507.2 1651.1 1506.8 1650.5 1486.8 1662.4 1486.7 1676.9 1484.6 1688.1 1479.8 1686.1 1450.7 1592.9 1450.3 1592.5 1395.3 1527.9 1394.6 1527.6 1368.6 1515.9 1368 1516.5 1341.3 1506.3 1342.6 1373.5 1284.1 1454.3 1284.6 1454.3 1284.2 Z" data-holc_grade="B"/>
<path d="M 1774.6 1389.5 1687.3 1325.8 1700.8 1324.9 1784.3 1384.2 1774.6 1389.5 Z M 1818.3 1380.7 1818.3 1381.3 1801.9 1377.7 1769.6 1363.1 1750.7 1351.4 1759.4 1344 1724.7 1315.9 1706.4 1315 1678.6 1295.1 1680.1 1277.8 1675.9 1271.4 1673.2 1261.3 1675.9 1254.7 1679.5 1247.7 1693.3 1244.1 1699.6 1237.8 1699.9 1231.4 1694.8 1224.5 1685.2 1218.7 1684.6 1218.3 1693 1207.1 1812 1255.6 1814.6 1258.6 1814.7 1259 1814.9 1260.1 1816.9 1268.9 1815.1 1277.8 1817.4 1288 1823.9 1297.6 1822.5 1304.6 1818.8 1314.2 1818.3 1380.7 Z" data-holc_grade="B"/>
<path d="M 1569.3 1262.3 1569.3 1262.7 1568.5 1262.2 1569.3 1262.3 Z M 1565.3 1260.5 1555 1255 1514.8 1235.9 1487.6 1227.5 1473.3 1220 1473.6 1186 1547 1186.5 1547.2 1194.7 1565.8 1195.5 1565.3 1260.5 Z" data-holc_grade="B"/>
<path d="M 381.3 193.5 455.4 209.4 455.6 224.9 475.4 225.2 475.6 230 490.7 230.8 503.1 240.8 503.3 240.9 503.3 241.5 504.2 273.9 427.1 275.9 428.2 305.8 413.9 305.7 316 305.4 316.1 387.8 315.1 387.8 293.3 387.8 293 441.7 390.7 441.9 390 413.7 390 413.1 412.1 413.3 411.1 469.1 469.6 469.3 466.6 413.5 545.5 412.3 546.5 525.9 295.4 522.8 296.8 688.8 221.7 687.3 221.2 740.7 237.6 740.6 237.6 754.5 199.6 754 199.2 754 198.6 754 199.5 714.2 201.4 631.4 185 630.2 184.4 618 165.2 618.5 164.5 618.5 160.9 360.6 195.3 360.1 193.9 238.9 159.6 238.9 160.7 234.1 164.8 228.3 173.8 222.1 186.2 220.5 221.4 221.6 277.9 221.4 238.6 193.2 381.3 193.5 Z" data-holc_grade="B"/>
<path d="M 199.8 905 199.8 905.6 199.7 906.6 192.9 906.6 177.8 906.6 162.6 906.6 164.9 769.7 191.6 769.3 196.3 769.3 197.1 769.3 200.1 822.8 316.8 823.6 316.1 814.9 334.2 813.9 334.5 805.7 375.7 804.8 375 850.5 316.5 849.8 316.5 879.4 201.1 880.1 199.8 905 Z" data-holc_grade="B"/>
<path d="M 430.9 835.5 430.5 807.3 431.4 807.3 431.5 807.9 470.6 808.3 471.9 850.6 431.1 850.4 430.9 835.5 Z" data-holc_grade="B"/>
<path d="M 334.1 907.4 333.1 961.2 316.8 961 317.1 991.1 200.1 989.2 200.1 961.5 218.8 961.2 220.1 945.3 266.1 962.4 305.9 960 304.9 936 316.5 933.1 317.8 907.4 332.4 907.4 334.1 907.4 Z M 235.9 907.1 297.1 906.8 297.1 907.3 298.1 918.1 237.2 917.2 236 907.6 235.9 907.1 Z" data-holc_grade="B"/>
<path d="M 355 1155 358.7 1160.1 365.8 1167.6 369.2 1173.6 366.8 1180.1 357 1187.5 348.1 1197.6 339.3 1207.3 336.5 1220.5 218.5 1222.2 216.4 1222.2 216.4 1152.1 217.4 1152.1 313.4 1152.1 315.1 1205.8 334.2 1206.1 334.2 1128 334.2 1126.4 352.9 1136 352.5 1145.4 353.6 1153.1 355 1155 Z" data-holc_grade="B"/>
<path d="M 82 1288.1 86.4 1286.9 80.9 1303.6 79.9 1306.5 84.3 1313.2 86.4 1320.7 84.3 1331.5 76.5 1341.6 71.7 1355.4 69.7 1367.7 62.2 1374.6 51.3 1378 38 1383.1 34 1391 33.6 1393.9 24.8 1393.9 19 1387.9 7.8 1385 6.7 1322.9 23.8 1314 33.6 1308.7 45.2 1305.3 62.6 1305.3 75.1 1300 82 1288.1 Z" data-holc_grade="B"/>
<path d="M 368.5 1384.3 368.4 1384.1 337 1385 304.9 1382.2 285.5 1375.6 273.9 1380.8 265 1394.8 244.5 1396.7 241 1408 230.5 1417.3 229.8 1424.7 217.4 1438.1 204.2 1449.6 190.6 1448.4 212.1 1431.9 230.5 1375.3 228.1 1372 220.3 1366.8 213.1 1364.9 213.5 1339.4 230.7 1340.3 236.4 1327.1 248.3 1318.3 264.5 1313.5 285.9 1301.2 297.3 1298.6 305.7 1292.7 303.2 1313.7 308.2 1331.9 315.4 1338.2 362.9 1337.9 362.2 1352.4 364.2 1361.9 368.1 1372.3 370.1 1383.1 368.5 1384.3 Z M 611.4 1289.1 604.6 1304.4 486.1 1452.4 463.3 1452.1 440.8 1499 440.7 1499.4 421.8 1495 441.5 1446.4 441.7 1370.9 448.9 1340.3 448.2 1316.5 411.5 1316.5 409.9 1286.3 611.4 1289.1 Z M 629.7 1249.1 629.2 1249.1 617.5 1275.3 606.1 1276 594.3 1268.6 586 1261.4 585 1251.1 582 1242.4 575.5 1240.1 561.1 1240.2 535.7 1239.7 526.2 1239.2 519.2 1238.7 506.7 1248.4 493.2 1252.2 473.2 1253.1 448.3 1248.8 446.5 1252.8 452.9 1257.3 453.8 1263.7 385.2 1261.1 368.3 1265.1 368.6 1284.8 335.9 1282.2 353.9 1264.1 361.5 1258.9 372.6 1254.6 382 1250.4 397.5 1247.6 411.5 1245.7 430.2 1245.5 442.4 1243.4 461.8 1245.7 471.4 1247 484.8 1245.3 493.6 1242.4 505.5 1237.3 511.1 1232.1 637.2 1232 629.7 1249.1 Z" data-holc_grade="B"/>
<path d="M 381.3 193.5 238.6 193.2 237.6 193.2 199.4 166 268.7 166.6 382 193.5 381.3 193.5 Z" data-holc_grade="C"/>
<path d="M 1294 305.5 1294 331.3 1280.1 331 1274.8 414 1314.3 414.1 1314.7 579.5 1392.3 578.4 1392.4 689.3 1411.5 689.3 1410.2 659.8 1555.4 659.5 1555.8 682.6 1437.9 794.8 1436.6 796.1 1410.3 796.4 1410.3 795.7 1410.3 772.1 1392.3 771.6 1390.6 727.5 1352.5 728 1353.2 716.5 1315.4 717.2 1314 708.8 1237.8 709.2 1239.3 659 1164 656.7 1164.4 664.7 1144.1 664.1 1143.1 664 1144.6 627.2 1133 626.8 1132.6 611.5 1113.2 611.1 1113.7 594.3 1096.9 594 1097.7 552.9 1097.8 551.8 1098.9 551.7 1116.5 551.2 1116.7 538.5 1263.5 538.9 1265.7 470.3 1258.6 469.8 1256.6 414.5 1256.5 413.1 1256.5 412.6 1256.2 305.4 1256.2 305 1294 305.5 Z" data-holc_grade="C"/>
<path d="M 1143.6 679.9 1143.6 699.5 1163.5 699.4 1163.5 699.7 1162.8 733 1177.3 732.6 1176.5 798.1 1085.1 797.7 1084.1 855.4 1104.7 882.3 1162.6 881.2 1163.7 881.2 1116 898.9 1090.1 908.2 1089.7 907.7 1049.2 920.1 1035.8 903.3 1014.5 908.9 935.8 796.2 997.8 797 997 764.3 977.5 763.9 976.5 594.1 1078 594.1 1077.7 611.6 1095.1 611.4 1095.9 647.5 1114.9 647.9 1114.6 664.9 1123.4 665.2 1123.8 680.1 1143.6 679.9 Z" data-holc_grade="C"/>
<path d="M 1156 1011 1153 1009.9 1190.9 964.5 1233.9 979.5 1256.3 953.6 1280.2 963 1306.3 931.8 1383.8 961.1 1392.9 964.6 1393 935.6 1393.3 935.6 1431.6 935.4 1430.9 908 1393.9 908.2 1393.7 908.2 1393.4 881.8 1392.8 819.8 1392.5 796 1410.3 795.7 1410.3 796.4 1436.6 796.1 1437.9 794.8 1471.7 796.4 1470.1 855.4 1548.2 905.8 1686 904.3 1683.8 795.6 1842.9 797.1 1841.6 907.3 1762.3 906.8 1761.9 1008.9 1684 1013 1521.5 1015.9 1520.3 1015.9 1488.6 1008.9 1423.9 1096.6 1423.6 1097 1338.9 1062.8 1327.3 1078.2 1156 1011 Z" data-holc_grade="C"/>
<path d="M 1587.3 1161.3 1589.4 1227.3 1608.8 1228.2 1610.1 1261.5 1641.1 1262.7 1641.8 1312.9 1630.7 1309.1 1585.5 1279 1586.5 1263.2 1569.3 1262.3 1568.5 1262.2 1565.3 1262.1 1565.3 1260.5 1565.8 1195.5 1547.2 1194.7 1547 1186.5 1473.6 1186 1472.4 1186 1470.9 1160.1 1543.6 1160.6 1543.1 1144.9 1464.2 1113.8 1445.4 1106.2 1445.8 1105.7 1459 1090.5 1548.9 1126.9 1549.3 1145.9 1549.6 1159.6 1587.2 1161.3 1587.3 1161.3 Z" data-holc_grade="C"/>
<path d="M 1818.3 1380.7 1818.8 1314.2 1822.5 1304.6 1823.9 1297.6 1817.4 1288 1815.1 1277.8 1816.9 1268.9 1814.9 1260.1 1814.7 1259 1825 1262.5 1840.2 1267.7 1839.4 1387.3 1818.3 1380.7 Z" data-holc_grade="C"/>
<path d="M 1454.3 1284.2 1454.3 1284.6 1373.5 1284.1 1506.3 1342.6 1516.5 1341.3 1515.9 1368 1527.6 1368.6 1527.9 1394.6 1592.5 1395.3 1592.9 1450.3 1686.1 1450.7 1688.1 1479.8 1676.9 1484.6 1662.4 1486.7 1650.5 1486.8 1651.1 1506.8 1667 1507.2 1667.6 1532.4 1628.4 1532.1 1627.7 1520.6 1503.2 1520.9 1503.2 1545.5 1840.4 1546.4 1841.7 1546.4 1842.9 1558.3 1867.7 1559.1 1874.3 1562.9 1874 1582.8 1858 1582.8 1500.6 1582.6 1501.6 1634.8 1501.7 1638.5 1504.3 1638.4 1526.6 1638.1 1524.7 1666.1 1546.1 1666.5 1545.1 1692.4 1562.6 1692.9 1564.1 1721 1586.5 1721.1 1587.6 1751.5 1607.9 1751.1 1609.1 1776.6 1628.1 1776.6 1628.7 1802.2 1646.7 1801.8 1647.4 1829.7 1666 1830.8 1667.3 1856.4 1685.7 1857.7 1685.7 1883.6 1704.6 1883.6 1703.9 1910.6 1724.7 1911 1723.4 1939.6 1744.3 1939.9 1744.4 1965.1 1764.5 1965 1763.2 2012.8 1768.4 2020.5 1769 2021.4 1737.5 2032.8 1717.8 2014.2 1691.2 1992.1 1613.6 1882.5 1598.2 1856 1610.3 1856.7 1594.9 1828.9 1634.2 1828.9 1516.7 1669.4 1476 1615.3 1469.8 1615.2 1430 1560 1430.3 1480.9 1431.3 1480.9 1455 1481.2 1455 1493.3 1501.7 1493.5 1501.7 1482.2 1642.4 1485.5 1661.2 1485.2 1675.9 1482.9 1684.5 1479.7 1683.8 1475.9 1590.5 1474.8 1589.4 1451.2 1545.3 1450.7 1546.9 1424.4 1570.6 1425.1 1572.1 1397.4 1503.6 1397.4 1503.6 1369.9 1359.8 1368.4 1359.4 1340.8 1261.2 1341.2 1260.5 1341.2 1260.5 1341.1 1262.2 1304.4 1237.7 1304.2 1238.3 1228.2 1363.6 1279.9 1361.8 1264.2 1362.7 1264.3 1454.6 1273.3 1454.3 1284.2 Z" data-holc_grade="C"/>
<path d="M 1256.7 1398.8 1295 1451 1266.4 1450.3 1267.4 1505.9 1281.7 1505.2 1274.9 1512.6 1268.4 1517.1 1261.1 1519.9 1252.3 1522.5 1235.1 1527.2 1238.8 1560.1 1377 1561.3 1590.4 1869.9 1602.7 1884.7 1599.5 1884.9 1618.3 1913.1 1589.8 1911.6 1590 1886 1570.2 1884.3 1569.4 1862.5 1569.3 1858.9 1548.7 1858.6 1548.4 1831.1 1527.2 1830.7 1527.5 1802.8 1507.5 1802.4 1507.7 1775.1 1489.2 1775.2 1488.6 1747.2 1471.7 1748.1 1469 1720.4 1451.8 1720.2 1451.5 1693 1432.7 1692.7 1433 1666.2 1413.6 1665.6 1412.3 1641.5 1395 1641.2 1393.5 1615 1393 1614.3 1367.1 1614.2 1365.9 1587 1236.3 1587.2 1201.3 1587.2 1199.6 1573.6 930.2 1572.7 930.2 1559.4 929.3 1559.4 921.6 1558.9 920.7 1558.8 920.7 1505.3 901.9 1505.5 902.2 1345.9 902.2 1342.9 902.2 1342.1 1234.7 1340.9 1234.7 1341.4 1234.6 1347.9 1234 1371 1217.7 1370.5 1216 1398.2 1256.5 1398.5 1256.7 1398.8 Z" data-holc_grade="C"/>
<path d="M 1841.2 2212.9 1838.4 2325.1 1464.5 2322.8 1464.5 2322 1468.5 2212.3 1841.2 2210.5 1841.2 2212.9 Z" data-holc_grade="C"/>
<path d="M 3.5 1965.9 3.5 1935.7 58.2 1939.3 57.6 1946.5 95.7 1940.3 153.9 1940.4 154.4 1966.9 3.5 1965.9 Z" data-holc_grade="C"/>
<path d="M 474.1 1723.1 474.1 1723.6 446.9 1723 446.9 1722.3 448.2 1694 462.1 1694.3 462.6 1668.1 475.4 1668 474.1 1723.1 Z" data-holc_grade="C"/>
<path d="M 749.9 1811.5 749.8 1804.8 772.6 1804.3 774.1 1830.8 750.1 1830.8 749.9 1811.5 Z" data-holc_grade="C"/>
<path d="M 390 413.7 390.7 441.9 293 441.7 293.3 387.8 315.1 387.8 315.4 412.3 390 413.7 Z" data-holc_grade="C"/>
<path d="M 691.5 396.7 691.5 397.8 690.5 412.8 690.8 572.6 691.9 688.1 694.9 688.5 695.2 791.1 576.1 791.9 577.5 883 316.2 883.1 316 906.1 297.1 906.4 297.1 906.8 235.9 907.1 235.8 906.4 199.8 905 201.1 880.1 316.5 879.4 316.5 849.8 375 850.5 429.1 850.3 428.1 798.8 376.2 798.8 375.7 804.8 334.5 805.7 334.2 813.9 316.1 814.9 316.8 823.6 200.1 822.8 197.1 769.3 198.8 769.2 199.6 754 237.6 754.5 237.6 740.6 221.2 740.7 221.7 687.3 296.8 688.8 295.4 522.8 546.5 525.9 545.5 412.3 466.6 413.5 465.4 413.3 462.5 333.3 414.4 332 413.9 305.7 428.2 305.8 427.1 275.9 504.2 273.9 503.3 241.5 517 241.5 551.5 259 587.6 277.4 614.8 291.7 619.6 298.5 645.4 327.3 660.8 345.6 669.6 360.9 691.5 396.7 Z M 430.9 835.5 431.1 850.4 471.9 850.6 470.6 808.3 431.5 807.9 431.4 807.3 430.5 807.3 430.9 835.5 Z" data-holc_grade="C"/>
<path d="M 468.1 907.7 467.9 907.8 466.6 987.2 413.8 986.3 391.7 989.9 391.7 1017.1 465.5 1018 468.6 1070.3 469.4 1070.4 468 1125.9 372 1124 371.5 1114.3 361.5 1114.3 360.6 1103.7 284.2 1105.2 284.4 1079.5 255 1089.5 233 1069.5 263.5 1069.2 263.7 1043.8 254.3 1043.9 253.9 1037.7 238.4 1037.3 238.4 1017.7 199.6 1017.5 198.9 989.9 200.1 989.9 200.1 989.2 317.1 991.1 316.8 961 333.1 961.2 334.1 907.4 468.1 907.7 Z" data-holc_grade="C"/>
<path d="M 287.4 1233.6 215 1233 215.4 1232 218.5 1222.2 336.5 1220.5 339.3 1207.3 348.1 1197.6 357 1187.5 366.8 1180.1 369.2 1173.6 365.8 1167.6 358.7 1160.1 355 1155 373.3 1147.8 383.8 1150.5 395.4 1157.7 399.2 1164.4 396.4 1171.6 387.6 1182.7 377.7 1193.1 367.5 1202.7 353.2 1209.2 341 1213.3 335.2 1234 287.4 1233.6 Z M 334.2 1128 334.2 1206.1 315.1 1205.8 313.4 1152.1 217.4 1152.1 217.4 1123 318.5 1121.8 334.2 1128 Z" data-holc_grade="C"/>
<path d="M 603 1586.4 602.2 1586.4 602.4 1576.7 640.5 1576.4 641.2 1587.5 603 1586.4 Z M 883.1 1343 883.1 1344.8 880.8 1502.5 880.9 1505.9 774.5 1505.2 774.2 1526.7 748.8 1526.1 747.1 1615.9 746.3 1615.9 701 1616.2 700 1561 504 1560.8 504.7 1536.8 465.6 1537.6 466.7 1505.5 440.9 1499.5 440.7 1499.4 440.8 1499 463.3 1452.1 486.1 1452.4 604.6 1304.4 605 1304.4 613.7 1304.8 612.8 1343.9 624.4 1343.9 619.2 1507.1 640 1507.1 640.3 1478 726.2 1478.7 725.4 1452.1 772.7 1452.4 772.3 1342.5 733.2 1342.8 734 1321.7 753.7 1321.7 753.5 1288.8 732.2 1289.3 731.7 1268.6 714.1 1269 714.2 1266.8 715.9 1229.5 685.8 1193.2 685.1 1192.4 724.5 1175.2 759.5 1159.9 771.4 1171.3 809.8 1186.9 776.8 1227.2 776.8 1236.8 776.8 1237.3 775.8 1273.7 872.9 1274.3 874.7 1342.8 883.1 1343 Z" data-holc_grade="C"/>
<path d="M 154.5 1480.9 157.9 1481.1 164.7 1482.3 173.5 1486.6 177.3 1490.2 174.9 1500.4 177.6 1507.7 178.6 1510.2 185.1 1520.6 182.4 1522.3 167.4 1523.2 141.1 1530.9 118.6 1537.7 99.3 1547.6 85.2 1557.2 82.1 1561 171 1559.2 172.3 1559.2 158.5 1565.2 137 1572.2 130.2 1575 124.9 1579.6 117.3 1585.3 109.9 1593 102.3 1599.9 92.9 1611.4 92.5 1611.9 4.7 1611.2 7.5 1562.5 64 1563.3 67.7 1556 74.4 1553.1 75.1 1548.3 97.1 1532.6 113 1507.8 126.3 1500.2 118.9 1488.2 133.2 1481.2 131.6 1462.8 135.4 1449.3 142.5 1441.4 153.4 1428.8 154.8 1424.5 160.6 1416.1 168.1 1411.2 177.3 1412 171.5 1418.5 170.1 1423.5 172.8 1433.2 173.2 1438 163.3 1445 154.8 1455.3 151 1463 153.1 1471.7 149 1480.6 154.5 1480.9 Z" data-holc_grade="C"/>
<path d="M 862.1 1858.1 861 1804.8 852.1 1805.1 853.2 1695.2 871 1695.7 870.8 1586.6 869.4 1586.6 870.6 1561.9 881.5 1562 882.8 1686 883.1 1830.8 872.7 1830.2 871.9 1858.1 862.1 1858.1 Z M 933.3 1913 933.3 1913.4 933.3 1913.9 933.3 1914 932.9 1914 914.9 1913.4 912.4 1913.3 912.4 1915.9 910.2 2022.9 871.4 2021.4 872.7 1968.7 872.7 1967.6 872.7 1967.1 901.1 1967.2 901.7 1926.6 901.7 1922.3 901.8 1858.6 912.3 1859.1 912.1 1812.6 912.6 1748.6 903.8 1748.6 903.2 1651.4 900.8 1559.6 921.6 1558.9 929.3 1559.4 930.2 1559.4 930.2 1572.7 930.2 1573.2 931.4 1573.2 933.3 1913 Z" data-holc_grade="C"/>
<path d="M 1256.5 412.6 1236.3 413 1237.8 305.4 1256.2 305.4 1256.5 412.6 Z" data-holc_grade="C"/>
<path d="M 686.9 1 687.6 57 641.5 142.3 617.7 240.2 532.3 242 531.6 196.6 454.3 194.8 449 113.4 149.6 111.9 148.5 2.2 686.9 1 Z" data-holc_grade="D"/>
<path d="M 1521.5 1015.9 1527.2 1028.6 1547.7 1034.5 1549.8 1123.4 1778 1218.9 1780.4 1225 1793.2 1232.1 1814.1 1238 1826.9 1238.9 1833.9 1255.8 1825 1262.5 1814.7 1259 1814.6 1258.6 1812 1255.6 1693 1207.1 1684.6 1218.3 1685.2 1218.7 1681.5 1219.5 1670.6 1223.1 1669 1232.1 1667.4 1241.2 1666 1248.2 1663.3 1252.4 1654.3 1254.6 1644.6 1250.9 1639.8 1240.3 1640.9 1232.1 1644.4 1225.5 1628.6 1218.5 1653.2 1188.1 1587.3 1161.3 1587.2 1161.3 1549.6 1159.6 1549.3 1145.9 1548.9 1126.9 1459 1090.5 1445.8 1105.7 1423.9 1096.6 1488.6 1008.9 1520.3 1015.9 1521.5 1015.9 Z" data-holc_grade="D"/>
<path d="M 1143.6 679.9 1123.8 680.1 1123.4 665.2 1114.6 664.9 1114.9 647.9 1095.9 647.5 1095.1 611.4 1077.7 611.6 1078 594.1 976.5 594.1 977.5 763.9 997 764.3 997.8 797 935.8 796.2 1014.5 908.9 1035.8 903.3 1049.2 920.1 1089.7 907.7 1090.1 908.2 1101.8 923.4 1020 947.6 1030.8 973.6 986.1 986.6 973.6 973 962.3 961.2 951.6 944 948.6 936.8 948.6 929.6 954 923.8 961.2 921.9 972.7 920.8 977.2 913 965.8 906 955.3 898.6 948.6 896.8 882.7 796.1 926 780.5 916.9 768.5 896 776.3 884.5 760 874.8 710.6 869.9 687.1 870 672.6 883.8 672.6 883 627.1 856.6 627.8 855.1 608.8 854.4 595.5 852.7 588 851.6 578.1 867.6 577.9 858.2 524.5 854.1 473.7 851.6 441.1 849.4 415.6 929 414.9 930.1 449.8 930.2 524.1 1079.7 524.2 1078.8 551.9 1097.7 552.9 1096.9 594 1113.7 594.3 1113.2 611.1 1132.6 611.5 1133 626.8 1144.6 627.2 1143.1 664 1144.1 664.1 1144 679.9 1143.6 679.9 Z" data-holc_grade="D"/>
<path d="M 1393.3 935.6 1393.9 908.2 1430.9 908 1431.6 935.4 1393.3 935.6 Z M 1383.8 961.1 1306.3 931.8 1280.2 963 1256.3 953.6 1233.9 979.5 1190.9 964.5 1153 1009.9 1156 1011 1144.5 1026.6 1117.8 1016.8 1156.3 972.2 1177 953.8 1190.5 927.5 1215.3 898.4 1236.7 907.6 1321.4 907.3 1383.8 961.1 Z M 1392.8 819.8 1393.4 881.8 1367.2 882.6 1360.8 885.8 1348.5 892 1327.6 896.6 1306.3 896.6 1303.6 892.8 1235.7 801.7 1237.6 839 1223.2 857.3 1208.8 865.5 1162.6 881.2 1104.7 882.3 1084.1 855.4 1085.1 797.7 1176.5 798.1 1177.3 732.6 1162.8 733 1163.5 699.7 1166.2 701.3 1232 796 1279 796.2 1278.5 751.8 1392.8 819.8 Z" data-holc_grade="D"/>
<path d="M 1555.8 682.6 1555.4 659.5 1555.4 658.8 1554.1 576.3 1555.5 576.3 1657.1 576.3 1578.3 658.7 1589 659 1583.3 667 1596.4 672.1 1604 675.1 1612 681.8 1616 687.8 1614.9 696.9 1605.1 713.2 1556.3 712.6 1555.8 682.6 Z" data-holc_grade="D"/>
<path d="M 1097.7 552.9 1078.8 551.9 1079.7 524.2 1079.7 523.9 1236.7 523.8 1235.7 413.1 1236.3 413 1256.5 412.6 1256.5 413.1 1256.6 414.5 1258.6 469.8 1265.7 470.3 1263.5 538.9 1116.7 538.5 1116.5 551.2 1098.9 551.7 1097.8 551.8 1097.7 552.9 Z" data-holc_grade="D"/>
<path d="M 720.6 902 480.2 899.9 469.6 906.7 468.1 907.7 334.1 907.4 332.4 907.4 317.8 907.4 316 907.4 316 906.9 316 906.5 316 906.1 316.2 883.1 577.5 883 576.1 791.9 695.2 791.1 694.9 688.5 691.9 688.1 690.8 572.6 690.5 412.8 691.5 397.8 691.5 396.7 702.4 413.8 729.3 525.6 730.3 554.3 732 589.9 736.8 636.1 735.9 688.5 719.4 688.7 719.8 722.7 742.3 722.6 742.3 792.7 720 792.8 720.6 902 Z" data-holc_grade="D"/>
<path d="M 720.6 902 721.1 902 735.9 925.1 620.9 946.4 621.2 970.4 700.4 1025.5 699.4 1041.4 687.4 1040.9 688.1 1070 698 1070.5 698.3 1082.3 717.1 1098.7 628.6 1091.7 469.4 1070.4 468.6 1070.3 465.5 1018 391.7 1017.1 391.7 989.9 413.8 986.3 466.6 987.2 467.9 907.8 468.1 907.7 469.6 906.7 480.2 899.9 720.6 902 Z" data-holc_grade="D"/>
<path d="M 724.5 1175.2 685.1 1192.4 685.8 1193.2 677.6 1196.7 669.7 1189.7 639.8 1202.2 533.6 1202 508.4 1203.4 499.6 1205.4 480.8 1211.9 467.9 1221.2 446.9 1230.8 428.8 1231.2 422.4 1230.1 425.1 1224.4 440.5 1219.9 467.6 1210.1 483.6 1201.9 529.3 1172.9 551.6 1165 569.7 1153 600 1142.8 598.4 1135.6 620.8 1127.4 736.8 1128.3 743.9 1137.7 708.5 1154.6 724.5 1175.2 Z" data-holc_grade="D"/>
<path d="M 1362.7 1264.3 1361.8 1264.2 1363.6 1279.9 1238.3 1228.2 1237.7 1304.2 1262.2 1304.4 1260.5 1341.1 1234.7 1341.4 1234.7 1340.9 902.2 1342.1 902.2 1342.9 883.1 1342.4 883.1 1343 874.7 1342.8 872.9 1274.3 775.8 1273.7 776.8 1237.3 776.8 1236.8 934.6 1237.6 917 1227.9 951.6 1186.9 975.1 1196.5 986.9 1181.3 1006.3 1189.2 1019.6 1174.8 1038.3 1183 1051.3 1169 1157.5 1213.8 1172.4 1197.4 1129.2 1179.3 1168.1 1128.3 1230 1127 1248.7 1131 1277.7 1134.4 1303.4 1156.2 1315.1 1161 1330.2 1179.8 1349.6 1203.9 1354.4 1218.3 1367.2 1240.1 1362.4 1260.7 1362.7 1264.3 Z" data-holc_grade="D"/>
<path d="M 914.9 1913.4 912.4 1915.9 912.4 1913.3 914.9 1913.4 Z M 921.6 1558.9 900.8 1559.6 903.2 1651.4 903.8 1748.6 912.6 1748.6 912.1 1812.6 912.3 1859.1 901.8 1858.6 901.7 1922.3 901.7 1926.6 901.1 1967.2 872.7 1967.1 872.7 1967.6 872.7 1968.7 835.2 1967.8 833.8 1858.1 860.1 1858.1 862.1 1858.1 871.9 1858.1 872.7 1830.2 883.1 1830.8 882.8 1686 881.5 1562 880.9 1507 880.9 1505.9 880.8 1502.5 883.1 1344.8 883.1 1343 883.1 1342.4 902.2 1342.9 902.2 1345.9 901.9 1505.5 920.7 1505.3 920.7 1558.8 921.6 1558.9 Z" data-holc_grade="D"/>
<path d="M 880.9 1505.9 880.9 1507 881.5 1562 870.6 1561.9 773.8 1560.8 774.2 1526.7 774.5 1505.2 880.9 1505.9 Z" data-holc_grade="D"/>
<path d="M 1469.8 1615.2 1476 1615.3 1516.7 1669.4 1634.2 1828.9 1594.9 1828.9 1610.3 1856.7 1598.2 1856 1613.6 1882.5 1691.2 1992.1 1717.8 2014.2 1737.5 2032.8 1760.8 2054.9 1846.1 2125.6 1860.2 2137.5 1888.3 2155.7 1909.9 2166.3 1929 2173.9 1958.3 2185.2 1970.6 2191.1 1989.1 2201.5 1999 2211.4 1964.7 2210.4 1946.4 2195.3 1927.2 2188 1910.4 2180.1 1890.3 2170.8 1874 2158.9 1854.5 2149.8 1827.6 2126.3 1798.9 2104 1778.2 2088.1 1764.5 2076.7 1750.7 2064.8 1736.4 2051.5 1723.8 2042.6 1722.2 2042.6 1721.8 2042.6 1693.3 2013.8 1675.9 1995.3 1668.8 1986.1 1657.6 1966.6 1643.5 1949.7 1630.4 1931.5 1618.4 1913.3 1618.3 1913.1 1599.5 1884.9 1602.7 1884.7 1613.1 1884.3 1595.5 1854.9 1533.7 1763.3 1504.3 1722.4 1451.9 1642.1 1471.8 1642.9 1452.3 1614.8 1469.8 1615.2 Z" data-holc_grade="D"/>
<path d="M 1431.3 1480.9 1428 1451.2 1372.6 1452.2 1351.8 1448.1 1329.7 1437 1305.5 1418 1291.2 1398.5 1256.7 1398.8 1256.5 1398.5 1216 1398.2 1217.7 1370.5 1234 1371 1234.6 1347.9 1234.7 1341.4 1260.5 1341.1 1260.5 1341.2 1261.2 1341.2 1359.4 1340.8 1359.8 1368.4 1503.6 1369.9 1503.6 1397.4 1572.1 1397.4 1570.6 1425.1 1546.9 1424.4 1545.3 1450.7 1589.4 1451.2 1590.5 1474.8 1683.8 1475.9 1684.5 1479.7 1675.9 1482.9 1661.2 1485.2 1642.4 1485.5 1501.7 1482.2 1501.7 1493.5 1455 1493.3 1455 1481.2 1431.3 1480.9 Z" data-holc_grade="D"/>
</g>
</svg>