<?xml version="1.0"?>
<svg xmlns="http://www.w3.org/2000/svg" version="1.2" baseProfile="tiny" width="3000" height="5445" viewBox="0 0 3000 5445" stroke-linecap="round" stroke-linejoin="round">
<g id="A">
<path d="M 1158.9 3843.8 1173.2 3880.7 1176.5 3961.2 1166 4013 1180.9 4066.5 1177.1 4103.5 1158.2 4158 1159.3 4194.4 1164.1 4208.7 1035.7 4264.2 971.3 4106.3 960.8 4071.5 957.3 4034 1012.7 3839.3 1063.6 3863 1090.7 3858.6 1090.7 3841 1134.5 3830 1155.5 3834.9 1158.9 3843.8 Z" data-holc_grade="A"/>
<path d="M 950.3 3728.3 1080.9 3536.5 1114.7 3536.1 1120.3 3536.1 1316.1 3687.4 1158.9 3843.8 1155.5 3834.9 1134.5 3830 1090.7 3841 1082.2 3825.8 1028.7 3783 950.3 3728.3 Z" data-holc_grade="A"/>
</g>
<g id="B">
<path d="M 79.5 4822.2 120 4910.9 164.3 4959.5 273.9 5062.6 306.5 5078.6 317.1 5098 351.9 5113.4 362.5 5110.7 371.3 5121.1 386.3 5114.5 502 5211.6 512.9 5216.3 539.1 5227.6 593.9 5292.7 606.6 5283.4 655.9 5385.4 598.8 5444.4 509.7 5389.2 428.8 5352.3 291 5280 148.1 5184.5 159.8 5063.2 70.7 4941.2 1 4798.9 58 4775.2 79.5 4822.2 Z" data-holc_grade="B"/>
<path d="M 1253.8 1277.9 1201.1 1243.6 1171.4 1196.5 1114.3 1154.6 1055.9 1088.9 1187.4 882.9 1422 1031.1 1389.2 1136 1284.8 1284.1 1253.8 1277.9 Z" data-holc_grade="B"/>
<path d="M 1595.8 1226.3 1707.5 1063.8 1991.9 1259.3 1962 1302.9 1876.8 1246.1 1788.3 1377.3 1617.9 1261 1626.2 1247.3 1595.8 1226.3 Z" data-holc_grade="B"/>
<path d="M 2674.8 2250.9 2468.7 2113.9 2283.3 1982.3 2524.5 1626.8 2937.6 1823.3 2999 1862.3 2809.9 2125.8 2674.8 2250.9 Z" data-holc_grade="B"/>
<path d="M 1471.9 5258.1 1343.3 5325.1 1264 5197.2 1316.7 5159.7 1359.5 5143.4 1383.9 5194.1 1471.9 5258.1 Z" data-holc_grade="B"/>
<path d="M 1269.1 4380.7 1210.2 4486.2 1130 4593.8 1041 4656.9 996.4 4679.6 981.2 4687.3 967.5 4682.9 899.3 4589.8 917 4433.3 931.4 4232.5 894.9 4125.6 915.4 4123.4 928.7 4114.5 971.3 4106.3 1035.7 4264.2 1164.1 4208.7 1269.1 4380.7 Z" data-holc_grade="B"/>
<path d="M 591.7 3599.1 629.7 3665.6 497.9 4047.7 373.9 4011.8 401.1 3941.8 413.8 3889.4 444.2 3799.7 442.2 3777.9 442.6 3757.6 445.5 3737.7 454.2 3721.2 471.9 3698.7 507.8 3585.7 547.6 3600.7 591.7 3599.1 Z" data-holc_grade="B"/>
<path d="M 1028.5 3056.7 857 3311.4 860.9 3313.9 773.4 3440.8 743 3419.8 644.4 3562.1 627.6 3550 553.7 3497 732.7 3233.8 909.1 2974.4 1028.5 3056.7 Z" data-holc_grade="B"/>
<path d="M 1115.7 3501.3 1114.7 3536.1 1080.9 3536.5 950.3 3728.3 906.6 3693 988.5 3571.1 970.2 3553.5 1047.2 3434.4 1089.3 3382 1118.6 3405.8 1115.7 3501.3 Z" data-holc_grade="B"/>
<path d="M 1462.1 3737.2 1507.9 3702.2 1777.6 3780.2 1668.7 4048.2 1424.2 3824.6 1462.1 3737.2 Z" data-holc_grade="B"/>
<path d="M 1740.6 3466.4 1780.7 3497.3 1691.6 3574.5 1678.3 3600.4 1562.1 3564.6 1619.6 3505.6 1587 3480.2 1648.2 3391.9 1650.9 3394.3 1653.9 3391.3 1740.6 3466.4 Z" data-holc_grade="B"/>
<path d="M 1891.6 3298 2173.9 3541.6 2113.6 3618.8 1841.8 3385.1 1891.6 3298 Z" data-holc_grade="B"/>
<path d="M 658.6 1845.5 824.9 1655.8 773.2 1627.3 805 1566.5 798.4 1541.4 806.4 1522.9 827.6 1496.4 871.4 1393.2 1086.7 1546.4 1064.5 1813.1 979.5 1909.6 1018.9 1944.5 916.2 2060.4 709.5 1883.6 687.4 1859.3 658.6 1845.5 Z" data-holc_grade="B"/>
</g>
<g id="C">
<path d="M 853.6 3660.9 868.9 3688.3 880 3707.1 903.2 3729.7 894.9 3757.8 922.6 3783.2 851.2 4008.7 960.8 4071.5 971.3 4106.3 928.7 4114.5 915.4 4123.4 894.9 4125.6 931.4 4232.5 917 4433.3 837.8 4380.9 771.8 4342.2 669.8 4513.6 584 4649.9 785.3 4873.6 512.9 5216.3 502 5211.6 386.3 5114.5 371.3 5121.1 362.5 5110.7 351.9 5113.4 317.1 5098 306.5 5078.6 273.9 5062.6 164.3 4959.5 120 4910.9 79.5 4822.2 212.6 4635.9 429.9 4731.9 512.9 4632.6 614.7 4319 655.2 4253.5 743.9 4306.6 788 4235.3 824 4221.5 785.8 4125.6 709.4 4151.5 710.5 4142.6 687.3 4137.1 707.2 4047.8 790.9 3784.2 751.6 3772.1 773.7 3698.2 813 3626.6 844.6 3644.8 853.6 3660.9 Z M 884.9 3759.1 859.7 3712.8 802.5 3908.7 837.1 3913.3 884.9 3759.1 Z" data-holc_grade="C"/>
<path d="M 2458.4 2468.6 2354.8 2601.9 2291.5 2557 2338.2 2488.5 2386 2421 2458.4 2468.6 Z" data-holc_grade="C"/>
<path d="M 1471.9 5258.1 1383.9 5194.1 1359.5 5143.4 1221.7 4857.1 1182.4 4863.1 1134.7 4987.8 996.4 4679.6 1041 4656.9 1130 4593.8 1210.2 4486.2 1269.1 4380.7 1327.5 4478.2 1582.1 4573.6 1512.9 4761.7 1547.8 4776 1545.6 4836.7 1521.8 4884.7 1472.5 5165.4 1450.3 5173.1 1484.1 5250.3 1471.9 5258.1 Z" data-holc_grade="C"/>
<path d="M 444.2 3799.7 413.8 3889.4 401.1 3941.8 373.9 4011.8 497.9 4047.7 485.4 4095.9 503.1 4098.1 483.2 4161.2 514.6 4161.6 458.4 4282.7 442.7 4279.6 374.5 4435.9 362.9 4440.6 327.5 4391.3 290.7 4346.3 223.7 4276.5 223 4270.7 274.3 4165.3 233 4153.2 146.6 4124.1 203.7 3951.4 210.8 3921.4 265.2 3769.7 263.2 3673.1 269.9 3666.3 394.1 3786.9 444.2 3799.7 Z" data-holc_grade="C"/>
<path d="M 732.7 3233.8 553.7 3497 627.6 3550 595 3599 591.7 3599.1 547.6 3600.7 507.8 3585.7 449.3 3571.2 415.2 3578.2 390.9 3576 374.5 3574.7 358.1 3578.6 480.4 3438.4 468 3420.3 439.6 3400 548.2 3276.6 630.5 3153.5 732.7 3233.8 Z" data-holc_grade="C"/>
<path d="M 1075.1 2749.6 1077.3 2984.1 1028.5 3056.7 909.1 2974.4 732.7 3233.8 630.5 3153.5 715.4 3024 787.3 2957.3 847.1 3002 904.1 2925.3 982.7 2982.7 1006.5 2951.8 920.1 2861.4 984.3 2780.4 1018.7 2752.3 1033.6 2746.7 1075.1 2749.6 Z" data-holc_grade="C"/>
<path d="M 1053.7 2666.2 516.3 3041.8 404.5 2952.2 416 2936.4 294.8 2764.3 657.9 2506 525.1 2412.5 481.7 2372.8 558.7 2282.9 534.8 2263.5 589.7 2217.6 605.7 2230.8 672.1 2141.8 966.9 2396.7 1003.2 2419.6 1039.4 2459.3 1018.2 2466.4 950.9 2518.4 1053.7 2666.2 Z" data-holc_grade="C"/>
<path d="M 2142.1 855.3 2314 961.1 2275.9 1020.1 2243.9 1077.4 2228.1 1098 2194.1 1142.4 2028.2 1392.6 1884.8 1329.9 1832.3 1404.3 1797.4 1388.9 1712.8 1507.9 1815.1 1584.5 1691.2 1755.4 1798 1829.8 1648.1 2057.4 1504.8 1957.1 1415.7 2056.8 1515.3 2141.2 1216.5 2363.4 1136.1 2414.3 1039.4 2459.3 1003.2 2419.6 966.9 2396.7 672.1 2141.8 596 2074.9 636.7 2027.3 556.2 1963.8 658.6 1845.5 687.4 1859.3 709.5 1883.6 916.2 2060.4 1018.9 1944.5 979.5 1909.6 1064.5 1813.1 1086.7 1546.4 871.4 1393.2 907.7 1308.7 1028.1 1381 1136.9 1458.6 1253.8 1277.9 1284.8 1284.1 1389.2 1136 1422 1031.1 1187.4 882.9 1233.5 819.5 1302.5 865.3 1360.9 924.4 1357.4 946.4 1572.2 1071.3 1598.1 1027 1612.1 1036.9 1663.2 966.2 1725.6 1007.8 1814.5 890.8 1855.7 917.2 1868.2 898.4 1893.1 914.4 1911.3 879.7 1920.2 876.3 1941.2 887.9 1962.2 845.5 2020.3 878 2042.4 845.5 2060.1 855.9 2082.2 818.5 2142.1 855.3 Z M 1595.8 1226.3 1626.2 1247.3 1617.9 1261 1788.3 1377.3 1876.8 1246.1 1962 1302.9 1991.9 1259.3 1707.5 1063.8 1595.8 1226.3 Z" data-holc_grade="C"/>
<path d="M 2283.3 1982.3 2468.7 2113.9 2254.1 2429.3 2187.2 2527.6 2153.6 2608.7 2069.5 2701.3 2014.6 2798.4 1967.7 2852.2 1618.9 3365.5 1565.7 3323.2 1478.9 3423.8 1514.4 3525.2 1447.9 3589.6 1416.9 3584.3 1401 3569.3 1241.6 3489 1204.4 3530.5 1168.1 3507.5 1115.7 3501.3 1118.6 3405.8 1089.3 3382 1047.2 3434.4 970.2 3553.5 988.5 3571.1 906.6 3693 903.2 3729.7 880 3707.1 868.9 3688.3 853.6 3660.9 904.2 3591.3 777.6 3504.8 892.7 3340.8 890.1 3332 1069.8 3068.3 1074.3 3218.2 1276.2 2924.5 1335.5 2975.7 1586.1 2610.5 1620.6 2629.9 2138.4 1879.4 2283.3 1982.3 Z" data-holc_grade="C"/>
<path d="M 1740.6 3466.4 1653.9 3391.3 1650.9 3394.3 1648.2 3391.9 1618.9 3365.5 1967.7 2852.2 2014.6 2798.4 2069.5 2701.3 2153.6 2608.7 2187.2 2527.6 2254.1 2429.3 2338.2 2488.5 2291.5 2557 2354.8 2601.9 2458.4 2468.6 2554 2355.5 2674.8 2250.9 2821.7 2360.5 2702 2464.3 2516.2 2834 2298.2 3089 2463.7 3242.2 2253.8 3479.1 1999.1 3260.8 2038.4 3207.6 2002 3175.2 2001.5 3171.2 1967.9 3147.9 1887.7 3259.5 1857.6 3232.6 1740.6 3466.4 Z" data-holc_grade="C"/>
</g>
<g id="D">
<path d="M 655.2 4253.5 709.4 4151.5 785.8 4125.6 824 4221.5 788 4235.3 743.9 4306.6 655.2 4253.5 Z" data-holc_grade="D"/>
<path d="M 787.3 2957.3 715.4 3024 630.5 3153.5 548.2 3276.6 439.6 3400 468 3420.3 480.4 3438.4 358.1 3578.6 331.9 3559.4 297.7 3597.4 202.4 3510.1 266.8 3428.1 228.3 3388 406.7 3185.6 560.5 3077.2 516.3 3041.8 1053.7 2666.2 1069.7 2692.1 748.2 2928 787.3 2957.3 Z" data-holc_grade="D"/>
<path d="M 2138.4 1879.4 1620.6 2629.9 1586.1 2610.5 1335.5 2975.7 1276.2 2924.5 1074.3 3218.2 1069.8 3068.3 890.1 3332 860.9 3313.9 857 3311.4 1028.5 3056.7 1077.3 2984.1 1075.1 2749.6 1121.9 2783.1 1176.6 2721.5 1130.7 2673.6 1192.4 2627 1302.5 2736.4 1373.6 2631.4 1457.9 2521.3 1750.7 2070.5 1779.9 2089.4 1992.5 1936.1 2096.4 1841.1 2182.1 1728.9 2212.6 1751.9 2124.5 1871.4 2138.4 1879.4 Z" data-holc_grade="D"/>
<path d="M 2254.1 2429.3 2468.7 2113.9 2674.8 2250.9 2554 2355.5 2458.4 2468.6 2386 2421 2338.2 2488.5 2254.1 2429.3 Z" data-holc_grade="D"/>
<path d="M 2228.1 1098 2243.9 1077.4 2275.9 1020.1 2314 961.1 2142.1 855.3 2248.6 682.5 2200.5 650 2241.4 586.1 2169 542.6 2309.4 327.1 2230.9 327.1 2239.7 248.9 2121.4 220.8 2145.7 61.1 2249.1 83.6 2259 1 2510.7 45 2626.8 64.3 2797.1 101.1 2787.2 185.4 2767.8 184.3 2760.7 224.5 2456.1 982.2 2404.9 1068.1 2382.8 1111.1 2344.1 1163.5 2228.1 1098 Z" data-holc_grade="D"/>
</g>
</svg>