<?xml version="1.0"?>
<svg xmlns="http://www.w3.org/2000/svg" version="1.2" baseProfile="tiny" width="3000" height="3434" viewBox="0 0 3000 3434" stroke-linecap="round" stroke-linejoin="round">
<g id="A">
<path d="M 938.8 665.2 921.3 630.8 896.8 628.5 895.4 610.4 895.7 544.9 823.7 541 824.7 517.8 827.4 506.5 827.4 489.9 821.6 480.7 1060.8 482.9 1043 526.6 1011.4 527.9 1009.3 535.7 1011.4 541.8 1024.6 558.9 1027.2 565.4 1003 575 1004.6 582.5 1001.4 593.4 997.7 598.6 997.7 615.7 1017.2 616.1 1018.8 663.7 1000.4 667.7 976.7 672 971.4 673.3 955.7 660.2 938.8 665.2 Z M 1101.9 382.9 1093.1 383.9 1031.1 463.4 783.4 463.3 785.1 413 783.4 385.4 789.5 365 794.8 356.3 750.1 335.9 702.7 351.2 480.1 327.9 445.9 252.2 527.5 213.6 757.1 207.8 791.3 135 800.9 132.1 899.1 122.6 935.9 111 957.8 130.6 1048.9 285.6 1101.9 382.9 Z" data-holc_grade="A"/>
<path d="M 895.4 610.4 896.8 628.5 921.3 630.8 938.8 665.2 962 718.8 957.8 725.8 964.8 728.1 964.3 728.9 955 746.2 943 751.4 929 756.6 919.2 765.4 903.8 781.1 831.6 775.9 818.2 771.8 798.6 746.7 784.6 737.4 774.1 735.1 771.3 701.9 722.2 700.1 730.6 609.3 895.4 610.4 Z" data-holc_grade="A"/>
<path d="M 1318.2 593 1320.1 608.2 1278.1 611.4 1216.4 618.4 1216.4 612.6 1213.2 601 1213.2 591.6 1203 592.2 1192.9 595.1 1192.2 559.9 1227.8 559.5 1243 560.8 1255.3 558.2 1278.8 537.5 1294.2 535.7 1305.8 531.1 1317.7 589.3 1318.2 593 Z" data-holc_grade="A"/>
<path d="M 1332.8 464.1 1329.3 455.4 1331.4 448.4 1351.7 440.8 1371.3 424.5 1392.4 411.7 1397.1 403.4 1402.3 420.2 1399.5 430.1 1374.3 445.6 1363 454.3 1356 452.9 1353.9 466.2 1332.8 464.1 Z" data-holc_grade="A"/>
<path d="M 1527.8 274.7 1503.2 248.5 1526.4 237.4 1557.9 223.4 1602.1 206.5 1608.1 204.5 1608.4 235.6 1527.8 274.7 Z" data-holc_grade="A"/>
<path d="M 1460.2 223.4 1452.7 225.7 1434.5 242.6 1424.7 253.1 1396.7 272.9 1370.8 286.8 1318.8 141.3 1337.8 146.6 1383.3 154.1 1427.5 157 1460.2 223.4 Z" data-holc_grade="A"/>
<path d="M 1697.5 136.7 1678.5 159.4 1649.1 162.9 1609.1 173.3 1582.5 183.8 1553.7 196 1529.2 207.1 1475.2 218.8 1471.7 20.2 1485.7 14.4 1496.9 16.7 1518.7 37.7 1523.6 52.8 1532 55.7 1552.3 56.3 1569.8 73.8 1594.4 107 1619.6 109.3 1635.8 116.9 1642.1 125 1657.5 129.1 1672.2 133.2 1697.5 136.7 Z" data-holc_grade="A"/>
<path d="M 1612.8 1144.9 1588.7 1134.8 1596.7 1108.1 1604.7 1070.9 1596.4 1067.4 1570.2 1056.4 1528.6 1057.8 1505.6 1061 1488.1 1062.6 1465.8 1054.2 1464.4 1042.1 1453.2 1033.9 1448.5 1029.1 1468.1 1033.2 1497.5 1033.6 1510.9 1031.7 1541.3 1025.4 1560.8 1024.4 1611.3 1025.3 1614.3 1025.2 1614 999.9 1617.9 996.6 1650.6 978.3 1665.6 971.8 1674.2 1000.2 1680.6 1022 1684.4 1043 1682.8 1072.5 1678.7 1144.8 1627.1 1144.6 1612.8 1144.9 Z" data-holc_grade="A"/>
<path d="M 2547.5 1356.2 2491.6 1347.9 2487 1335.9 2486.7 1288.2 2547.3 1309.4 2547.5 1356.2 Z" data-holc_grade="A"/>
</g>
<g id="B">
<path d="M 1103.1 483.5 1075.3 538.1 1043 526.6 1060.8 482.9 1103.1 483.5 Z M 1088.9 462.9 1031.1 463.4 1093.1 383.9 1101.9 382.9 1129.9 379.9 1127.8 421 1088.9 462.9 Z" data-holc_grade="B"/>
<path d="M 980 998.7 972.7 962.2 964.6 919.6 968.8 902.1 974.6 902 1035.6 874.8 1037.7 933.8 1049.8 941.9 1049.4 977 1012.4 998.9 980 998.7 Z" data-holc_grade="B"/>
<path d="M 1274.4 1002.4 1260 1008.2 1252.1 1011.2 1234.2 1017.9 1249.1 1039.4 1245 1040.1 1237.6 1040 1243.8 1068.5 1246 1082.8 1182.9 1084.5 1180.5 1081.9 1180.8 1077.4 1180.3 1063.9 1179 998.8 1235.5 999.7 1194.6 932.7 1230.4 932.2 1274.4 1002.4 Z" data-holc_grade="B"/>
<path d="M 1246 1082.8 1246.4 1085.2 1245.8 1090.2 1247.3 1096.9 1244.2 1108.9 1239.9 1118.5 1200.9 1175.3 1191.3 1186.3 1184.5 1192.1 1169.9 1198.1 1153.8 1204.4 1141 1204.8 1133.6 1202.3 1122.1 1197.6 1113.9 1196.1 1112 1190.2 1100.1 1164.7 1094.3 1138.1 1084.9 1116.4 1084.5 1085.7 1039.6 1085.1 1039.3 1066.9 1180.3 1063.9 1180.8 1077.4 1180.5 1081.9 1182.9 1084.5 1246 1082.8 Z" data-holc_grade="B"/>
<path d="M 1612.8 1144.9 1610.4 1175.4 1610.5 1259 1610.6 1261.9 1611.1 1290.2 1599.5 1290.5 1598.1 1316.9 1549.4 1316.9 1532.7 1255.2 1525 1221.1 1522.9 1211.6 1518.3 1179.4 1520.1 1172.1 1523.6 1164.4 1531.4 1157 1548.3 1147 1557 1144.4 1563.4 1143.9 1570.3 1147.1 1576.9 1147.5 1583.8 1149.1 1576.7 1139.6 1573 1132.7 1570.7 1123.9 1576.2 1113.4 1554.7 1113.5 1555 1120.6 1550.2 1125 1534.4 1129.6 1514.1 1142.1 1504.2 1150 1496.3 1159.8 1495 1162.7 1496.5 1176.9 1495.7 1188.2 1495.2 1226.5 1479.7 1226.3 1479.9 1292.3 1482.2 1329.6 1466.3 1339.9 1446 1341.4 1447 1334.2 1429.3 1334.3 1422.3 1333.6 1421.1 1308.4 1401.7 1308.8 1393.2 1271.1 1387.3 1269.9 1386.5 1261.8 1366.5 1261.8 1352 1261.3 1364.9 1241.1 1330 1234.9 1315.2 1261.8 1302.7 1259 1296.6 1249.2 1293.6 1234.6 1293 1216.2 1295.5 1205.3 1321.2 1205.8 1345.4 1205.7 1346.9 1186.4 1380.7 1187.2 1380.7 1177.3 1448.9 1125 1452 1121.4 1451.8 1105.5 1343.1 1103.9 1332.9 1084 1335.8 1066.5 1332.1 1038.5 1337.1 1036.8 1341.2 1017.5 1352 997.9 1373.3 979.1 1374.4 988.8 1447 1027.6 1448.5 1029.1 1453.2 1033.9 1464.4 1042.1 1465.8 1054.2 1488.1 1062.6 1505.6 1061 1528.6 1057.8 1570.2 1056.4 1596.4 1067.4 1604.7 1070.9 1596.7 1108.1 1588.7 1134.8 1612.8 1144.9 Z" data-holc_grade="B"/>
<path d="M 2085.4 1539.6 2084 1525.4 2075.3 1521.9 2043.6 1507.2 2007.1 1486.7 1983.3 1472.2 1888.8 1471.1 1887.4 1450.1 1813.1 1448.9 1746.4 1447.7 1630.1 1446.4 1632.1 1410 1662.7 1372.9 1692.8 1332.8 1750.7 1250.2 1800.6 1182.8 1810.1 1169.9 1763.8 1153.6 1759.4 1141.1 1775.4 1138.5 1784.5 1133.9 1798.5 1104.2 1835 1096 1845.5 1093.7 1874.9 1090.2 1889.7 1087.3 1889 1099.5 1893.2 1119.3 1900.9 1135.1 1907.9 1146.7 1900.2 1152.5 1900.2 1163.6 1900.9 1177.6 1899.5 1214.3 1891.8 1227.7 1912.8 1240.5 1884.1 1270.2 1882.7 1284.8 1884.1 1298.2 1883.4 1309.3 1875.6 1318.6 1859.5 1325 1854.6 1332 1844.8 1387.4 1849.7 1409 1870 1412.4 1879.2 1399.6 1892.5 1390.9 1905.8 1382.1 1914.2 1366.4 1924 1358.8 1934.5 1359.4 1948.6 1369.3 1957.7 1370.5 1957 1360 1957 1347.8 1952.1 1340.8 1954.9 1330.3 1963.3 1329.1 1972.4 1327.4 1973.8 1319.8 1960.5 1312.8 1957.7 1308.1 1963.3 1302.9 1968.2 1298.8 1963.3 1292.4 1955.6 1287.7 1963.3 1267.9 1953.5 1252.8 2022.9 1253.3 2046 1293.6 2029.2 1316.3 2005.4 1320.9 1957 1407.8 2071.3 1404.3 2098.6 1424.1 2099.3 1502.2 2137.2 1502.8 2149.2 1524 2102.4 1532.5 2085.4 1539.6 Z" data-holc_grade="B"/>
<path d="M 1980.4 1220.3 1978.6 1208 2016.3 1205.1 2076.8 1177.4 2077.7 1173 2076.6 1168.1 2094.9 1157.1 2122.4 1145.5 2129.9 1142.4 2139.5 1142.9 2145.9 1144.5 2146.5 1168.3 2147.9 1197.2 2103.9 1199.5 2102.7 1204.2 2076.4 1203.5 2077.8 1225.4 2059.5 1230.1 2048 1233.3 1984.1 1232.4 1980.4 1220.3 Z" data-holc_grade="B"/>
<path d="M 2085.4 1539.6 2056 1552 2048.9 1545.2 2029.2 1552.5 2014.4 1556.6 2003.7 1555.6 1987.6 1555.4 1941 1551.5 1941.2 1538.9 1938.7 1480.6 1889.7 1480.6 1888.6 1490.1 1836.7 1489.5 1837.2 1546.2 1794.1 1545.9 1795.2 1518.8 1812 1517.9 1813.1 1448.9 1887.4 1450.1 1888.8 1471.1 1983.3 1472.2 2007.1 1486.7 2043.6 1507.2 2075.3 1521.9 2084 1525.4 2085.4 1539.6 Z" data-holc_grade="B"/>
<path d="M 2321.5 1305.3 2294.9 1286.4 2217.8 1328.7 2254.9 1347.9 2265.8 1375.9 2242.3 1395.7 2177.1 1397.4 2175.3 1333.3 2248.3 1247.1 2252.1 1241.2 2313.1 1283.2 2342.9 1301.3 2354.5 1309.4 2341.5 1317.6 2321.5 1305.3 Z" data-holc_grade="B"/>
<path d="M 2423.5 1260.8 2409.2 1285 2373.4 1298.6 2349.2 1280.6 2349.6 1256.1 2336.3 1255.2 2337 1211.8 2321.5 1210.1 2319.8 1171 2340.1 1171.6 2340.1 1190.3 2423.5 1260.8 Z" data-holc_grade="B"/>
<path d="M 2547.5 1356.2 2566.2 1359 2563.8 1389.3 2510.1 1394.2 2501.7 1373.2 2491.6 1347.9 2547.5 1356.2 Z" data-holc_grade="B"/>
<path d="M 964.3 728.9 964.8 728.1 957.8 725.8 962 718.8 938.8 665.2 955.7 660.2 971.4 673.3 976.7 672 1000.4 667.7 1018.8 663.7 1017.2 616.1 997.7 615.7 997.7 598.6 1001.4 593.4 1004.6 582.5 1003 575 1027.2 565.4 1024.6 558.9 1011.4 541.8 1009.3 535.7 1011.4 527.9 1043 526.6 1043.5 617 1048.7 618.7 1060.8 619.2 1061.4 693 1016.7 696.5 1006.2 727.1 1008.8 729.3 1001.4 740.2 964.3 728.9 Z" data-holc_grade="B"/>
<path d="M 2572.7 1502.2 2614.6 1530 2622 1541.7 2610.1 1544.6 2542 1499.7 2504.2 1520.1 2502.8 1549.6 2500.7 1596.5 2481.7 1597.1 2469.7 1600.2 2460.9 1599.8 2457.9 1569.2 2457 1551.7 2471.5 1551 2471 1530.9 2452.2 1530.9 2452.2 1510.5 2484.6 1510.9 2484.6 1498.5 2536.8 1479.9 2572.7 1502.2 Z" data-holc_grade="B"/>
<path d="M 2326.8 1794.4 2303.6 1807.1 2303.6 1820.6 2284.3 1821 2283.5 1807.8 2246.6 1805.7 2246.2 1761.9 2252.3 1753.9 2300.1 1729.9 2325.5 1729.5 2326.8 1794.4 Z" data-holc_grade="B"/>
<path d="M 750.5 2263 750.9 2221.5 804.3 2221.5 817.7 2233.9 818.4 2263.7 750.5 2263 Z" data-holc_grade="B"/>
<path d="M 585.5 2309.8 589.8 2310 586.7 2424.1 572.2 2424.1 556.2 2424.1 529.9 2385.6 511.1 2327.1 530.4 2321.9 525.2 2309.4 585.5 2309.8 Z" data-holc_grade="B"/>
<path d="M 453.9 1935.8 450.9 1980 438.3 1971.7 419.9 1989.2 497.2 2034.7 482.5 2049.1 440.9 2024.6 225.9 2021.1 226.9 1993.6 326.3 1994 352.6 1952 413.6 1951.6 413.1 1933.7 453.9 1935.8 Z" data-holc_grade="B"/>
<path d="M 225.4 1962.6 167.8 1961.6 167.1 1938.6 165.7 1928.4 168.9 1892.3 239.4 1892.6 240.1 1878.9 258.6 1878.6 258.6 1897.2 273.4 1908.9 275.1 1937.5 254.8 1941.2 254.8 1963.1 225.4 1962.6 Z" data-holc_grade="B"/>
<path d="M 984.2 1354.6 984.2 1409.9 961 1409.9 958.7 1404.7 957.6 1399.3 958.3 1394.2 954.8 1390 947.9 1387.8 940 1389.1 932.8 1391.7 923 1396.8 923 1396.6 891.5 1396.8 891.9 1353 984.2 1354.6 Z" data-holc_grade="B"/>
<path d="M 76.7 3009.6 121.6 3010.2 123.7 3041.7 142.6 3041.7 144 3060.9 1 3061.5 1.7 3007.3 76.7 3009.6 Z" data-holc_grade="B"/>
<path d="M 328.7 2718.3 330 2705.2 350.1 2703.8 367.7 2701.6 369.4 2684.4 396.2 2685.2 396.2 2701.6 484.2 2703.4 485.6 2721.6 448.7 2723.4 447.9 2751.2 370.3 2751.5 371.6 2740.6 351.5 2746.4 351 2720.9 328.7 2718.3 Z" data-holc_grade="B"/>
<path d="M 1108.7 741.9 1074.5 742.8 1076.1 692.6 1061.4 693 1060.8 619.2 1067.9 619.6 1067.9 612.7 1086.8 612 1184.1 612.3 1185.4 626.9 1185.4 658.2 1181.4 685.1 1178.4 727.7 1177.9 751 1162.6 746.3 1142.9 734.6 1135.4 724.5 1136.7 712.1 1110.9 711.7 1108.7 741.9 Z" data-holc_grade="B"/>
<path d="M 1227.8 559.5 1192.2 559.9 1192.9 595.1 1203 592.2 1213.2 591.6 1213.2 601 1216.4 612.6 1184.1 612.3 1086.8 612 1085.8 587.9 1090.5 577.8 1114.7 549 1129.4 528.4 1154.1 527.6 1151.5 547.2 1227.8 550.7 1227.8 559.5 Z" data-holc_grade="B"/>
<path d="M 1318.2 593 1317.7 589.3 1305.8 531.1 1294.2 535.7 1278.8 537.5 1255.3 558.2 1243 560.8 1243.5 543.3 1266.1 531.5 1284 525 1283 484.5 1329.3 484.2 1330.3 523.2 1362.2 510.1 1370.6 514.8 1372.4 519.1 1330 563.7 1338 591.6 1327.5 592.8 1318.2 593 Z M 1315.9 327.8 1336.6 346 1398.7 400.6 1397.1 403.4 1392.4 411.7 1371.3 424.5 1351.7 440.8 1331.4 448.4 1329.3 455.4 1332.8 464.1 1257.2 466.4 1230.9 456.4 1200.9 445.9 1199.4 430.2 1262.5 395.2 1286.7 437.2 1309.8 428.4 1283.5 370.3 1220.9 397.8 1191.5 360.7 1129.4 258.5 1156.2 240.6 1261.2 284.7 1304.7 348.2 1315.9 327.8 Z" data-holc_grade="B"/>
<path d="M 1608.1 204.5 1602.1 206.5 1557.9 223.4 1526.4 237.4 1503.2 248.5 1527.8 274.7 1567 282.2 1545.3 320.1 1482.9 293.9 1423.3 314.8 1413.5 305.5 1385.4 316.6 1358.1 325.9 1336.6 346 1315.9 327.8 1342 303.8 1349 298.5 1370.8 286.8 1396.7 272.9 1424.7 253.1 1434.5 242.6 1452.7 225.7 1460.2 223.4 1475.2 218.8 1529.2 207.1 1553.7 196 1582.5 183.8 1609.1 173.3 1649.1 162.9 1678.5 159.4 1697.5 136.7 1693.9 113.4 1668 83.7 1654 66.2 1654 52.8 1653.3 40.6 1640.7 34.8 1634.3 33 1625.9 23.7 1608.4 17.3 1608.4 2.7 1636.5 1 1670.1 36.5 1686.9 70.3 1715.7 138.4 1665.9 192 1649.1 188.5 1621 200.1 1608.1 204.5 Z" data-holc_grade="B"/>
<path d="M 1403.7 141.9 1322.3 108.7 1269 80.8 1281.7 61 1351.8 74.4 1356 24.3 1419.8 74.4 1403.7 141.9 Z" data-holc_grade="B"/>
<path d="M 740.1 896.7 739.8 879.1 718.1 884.3 710.8 889.7 690.2 888.8 680.3 877.9 674.9 871.2 667.7 862.3 659.5 857.1 646.6 832.8 640.2 820.2 633.2 807.8 631.3 797.3 744.3 803.3 743.5 841.6 830 840.9 888.1 891.6 869.5 910.7 802.2 880 740.1 896.7 Z" data-holc_grade="B"/>
<path d="M 891.2 912.9 929.2 929.3 939.9 964.9 943.1 973.5 950.7 1006.9 953.6 1015.6 958.3 1045.3 920.8 1066.8 900.8 1004 885.1 951.8 891.2 912.9 Z" data-holc_grade="B"/>
</g>
<g id="C">
<path d="M 1153.6 487.4 1194.1 487.4 1233 489.1 1235.1 498.7 1237.7 509.2 1236.2 516.2 1239.3 528.9 1266.1 531.5 1243.5 543.3 1243 560.8 1227.8 559.5 1227.8 550.7 1151.5 547.2 1154.1 527.6 1129.4 528.4 1114.7 549 1090.5 577.8 1085.8 587.9 1086.8 612 1067.9 612.7 1067.9 619.6 1060.8 619.2 1048.7 618.7 1043.5 617 1043 526.6 1075.3 538.1 1103.1 483.5 1128.4 484.3 1109.4 523.6 1131.5 525 1153.6 487.4 Z M 1257.2 466.4 1176.2 465.1 1172 459 1170.4 448.5 1169.4 424.5 1142 424.9 1133.1 439.3 1130.5 446.3 1137.3 465.1 1088.9 462.9 1127.8 421 1129.9 379.9 1132 347.2 1091 286.9 1091.6 210.5 1112.1 210 1155.7 210.5 1156.2 240.6 1129.4 258.5 1191.5 360.7 1220.9 397.8 1283.5 370.3 1309.8 428.4 1286.7 437.2 1262.5 395.2 1199.4 430.2 1200.9 445.9 1230.9 456.4 1257.2 466.4 Z" data-holc_grade="C"/>
<path d="M 1332.1 1038.5 1335.8 1066.5 1332.9 1084 1343.1 1103.9 1349.2 1115.9 1347 1125.9 1348.5 1158.7 1347.7 1176.5 1346.9 1186.4 1345.4 1205.7 1321.2 1205.8 1321.3 1109 1312.8 1095.7 1307.5 1086.9 1322 1086 1323.7 1073.9 1322.3 1067.6 1324.6 1057.9 1286 1057 1252.1 1011.2 1260 1008.2 1274.4 1002.4 1295.6 1036.4 1332.1 1038.5 Z" data-holc_grade="C"/>
<path d="M 1464.6 1400.5 1401 1402.4 1395.8 1362.2 1395.1 1343 1392.6 1298.1 1371.4 1297 1363.4 1289 1351.9 1278.8 1331 1277.3 1320.2 1275.5 1312.1 1273.1 1302.7 1259 1315.2 1261.8 1330 1234.9 1364.9 1241.1 1352 1261.3 1366.5 1261.8 1386.5 1261.8 1387.3 1269.9 1393.2 1271.1 1401.7 1308.8 1421.1 1308.4 1422.3 1333.6 1429.3 1334.3 1447 1334.2 1446 1341.4 1466.3 1339.9 1464.6 1400.5 Z" data-holc_grade="C"/>
<path d="M 1549.4 1316.9 1541.3 1316.6 1543.6 1325.9 1556.2 1357.9 1555.7 1398.5 1464.6 1400.5 1466.3 1339.9 1482.2 1329.6 1479.9 1292.3 1479.7 1226.3 1495.2 1226.5 1495.7 1188.2 1496.5 1176.9 1495 1162.7 1496.3 1159.8 1504.2 1150 1514.1 1142.1 1534.4 1129.6 1550.2 1125 1555 1120.6 1554.7 1113.5 1576.2 1113.4 1570.7 1123.9 1573 1132.7 1576.7 1139.6 1583.8 1149.1 1576.9 1147.5 1570.3 1147.1 1563.4 1143.9 1557 1144.4 1548.3 1147 1531.4 1157 1523.6 1164.4 1520.1 1172.1 1518.3 1179.4 1522.9 1211.6 1525 1221.1 1532.7 1255.2 1549.4 1316.9 Z" data-holc_grade="C"/>
<path d="M 1632.1 1410 1555 1409.1 1555.7 1398.5 1556.2 1357.9 1543.6 1325.9 1541.3 1316.6 1549.4 1316.9 1598.1 1316.9 1599.5 1290.5 1611.1 1290.2 1610.6 1261.9 1625.7 1261.3 1701.3 1264.3 1718.1 1246.4 1734.2 1225.1 1744.2 1199.7 1753.1 1179.3 1710.5 1164.1 1715.3 1149.7 1759.4 1141.1 1763.8 1153.6 1810.1 1169.9 1800.6 1182.8 1750.7 1250.2 1692.8 1332.8 1662.7 1372.9 1632.1 1410 Z" data-holc_grade="C"/>
<path d="M 1401 1402.4 1464.6 1400.5 1555.7 1398.5 1555 1409.1 1632.1 1410 1630.1 1446.4 1607.4 1445.9 1607 1467.1 1605.4 1526.2 1593.5 1526.9 1550.5 1561.9 1568.8 1575.6 1594.2 1557.3 1602.1 1557.4 1600.7 1610.7 1571.9 1629.4 1538.2 1652.9 1517 1670.1 1486.7 1665.9 1481.2 1649.3 1478.9 1631.7 1476.7 1595.3 1481.7 1592.5 1471.8 1576.7 1461.8 1554.9 1452.3 1515.8 1439.8 1509.7 1410.1 1488.2 1396.7 1476.2 1390.8 1478 1397.2 1458.7 1401 1429 1401 1402.4 Z" data-holc_grade="C"/>
<path d="M 1630.1 1446.4 1746.4 1447.7 1745.2 1545.5 1794.1 1545.9 1837.2 1546.2 1836.7 1489.5 1888.6 1490.1 1890 1537.5 1941.2 1538.9 1941 1551.5 1987.6 1555.4 2003.7 1555.6 2014.4 1556.6 2029.2 1552.5 2048.9 1545.2 2056 1552 2085.4 1539.6 2102.4 1532.5 2149.2 1524 2175.3 1519.2 2176.5 1538.5 2144.4 1541.2 2103.8 1545.4 2086.6 1549.2 2019.9 1587.6 2015.7 1584.3 1988 1599.9 1968.5 1607.1 1952.5 1610.7 1947.3 1611.7 1929.1 1608 1899.2 1596.4 1878.4 1589.2 1863.7 1581.5 1856.5 1578.7 1846.5 1577.1 1833.3 1574.1 1813.1 1571.4 1786 1571.1 1776.7 1571.9 1711.5 1583.5 1667.1 1592 1643.3 1598.6 1638.3 1599.7 1617.4 1602.1 1600.7 1610.7 1602.1 1557.4 1613.5 1557.1 1613.7 1554.2 1615 1526.4 1605.4 1526.2 1607 1467.1 1607.4 1445.9 1630.1 1446.4 Z" data-holc_grade="C"/>
<path d="M 2076.6 1168.1 2077.7 1173 2076.8 1177.4 2016.3 1205.1 1978.6 1208 1980.4 1220.3 1957.6 1221.1 1953.2 1213.1 1949.7 1210.1 1947.1 1205.1 1922.1 1214.2 1923.4 1229.1 1912.8 1240.5 1891.8 1227.7 1899.5 1214.3 1900.9 1177.6 1900.2 1163.6 1900.2 1152.5 1907.9 1146.7 1911.6 1162.1 1916.8 1167.9 1926 1176.6 1933.9 1187.6 1940.1 1193.4 1949.3 1195.6 1961.5 1197 2018.1 1192.7 2020.3 1123.8 2038.2 1120.2 2037.8 1171.9 2074.2 1156.2 2076.6 1168.1 Z" data-holc_grade="C"/>
<path d="M 2102.7 1204.2 2106.1 1259.9 2082.3 1270.6 2047.5 1270.4 2048 1233.3 2059.5 1230.1 2077.8 1225.4 2076.4 1203.5 2102.7 1204.2 Z" data-holc_grade="C"/>
<path d="M 2336.3 1255.2 2349.6 1256.1 2349.2 1280.6 2373.4 1298.6 2409.2 1285 2423.5 1260.8 2429.9 1266.6 2420.7 1315 2403.9 1319 2402.9 1359.8 2422.1 1361 2423.2 1376.2 2460.4 1376.4 2459.7 1353.7 2472.3 1354 2476.8 1373.5 2501.7 1373.2 2510.1 1394.2 2563.8 1389.3 2566.2 1359 2578.5 1357.8 2578.9 1336.2 2572.9 1305.9 2585.9 1304.2 2600.9 1298.6 2609.7 1335.7 2630 1336.8 2627.2 1374.1 2626.3 1378.4 2624.4 1387.5 2582.1 1405.4 2582 1403.6 2572.9 1396.8 2562 1397.4 2510.1 1424.5 2420.7 1424.2 2420 1380.5 2379.7 1378.8 2334.5 1381.1 2333 1389.6 2285.2 1392.5 2279.8 1391.6 2277 1336.2 2301.5 1336.2 2321.5 1305.3 2341.5 1317.6 2354.5 1309.4 2342.9 1301.3 2313.1 1283.2 2252.1 1241.2 2248.3 1247.1 2231.4 1237.2 2209.7 1205.4 2217.4 1193.5 2232.5 1170.7 2252.1 1171.3 2249.7 1196.4 2247.9 1215.3 2335.9 1269.8 2336.3 1255.2 Z" data-holc_grade="C"/>
<path d="M 2880.7 1557.8 2766.3 1555.2 2771.1 1455.8 2738.7 1454.3 2726.9 1399.3 2799.2 1392.4 2823.7 1370.5 2886.8 1369.1 2880.7 1557.8 Z" data-holc_grade="C"/>
<path d="M 1630.8 239.1 1669.4 222.2 1694.6 210.6 1713.6 200.1 1732.5 185.6 1763.4 148.3 1780.2 111.6 1804.7 108.1 1831.4 101.7 1862.2 106.4 1864.3 126.2 1845.4 157 1813.8 213.5 1765.5 277 1628 278.1 1630.8 239.1 Z" data-holc_grade="C"/>
<path d="M 2551.7 1449.7 2572.7 1502.2 2536.8 1479.9 2484.6 1498.5 2484.6 1510.9 2452.2 1510.5 2452.2 1530.9 2471 1530.9 2471.5 1551 2457 1551.7 2457.9 1569.2 2460.9 1599.8 2469.7 1600.2 2475.8 1608.5 2440.3 1610 2452.2 1634.8 2325.5 1633.7 2325.5 1608.9 2291.3 1610.4 2302.3 1596.9 2307.1 1581.9 2274.7 1528.4 2269.4 1526.2 2230.4 1541.5 2253.7 1585.6 2254.7 1589.9 2215.3 1596.4 2191.6 1596.8 2184.9 1581.5 2182.3 1562.3 2176.5 1538.5 2212 1531.3 2211.4 1522.8 2353.1 1471.9 2353.1 1479.2 2427.2 1454.1 2435 1460.1 2397.3 1473.5 2392.7 1474.4 2394.5 1498.3 2413.7 1508.8 2413.4 1517.5 2439 1518.7 2441.2 1465 2456.6 1465 2482 1454.8 2493.4 1466.5 2551.7 1449.7 Z" data-holc_grade="C"/>
<path d="M 2238.8 1462.8 2223.9 1465.4 2224.7 1479.9 2207.6 1480.7 2211.2 1520 2211.4 1522.8 2212 1531.3 2176.5 1538.5 2175.3 1519.2 2174.3 1450.8 2238.8 1450.4 2238.8 1462.8 Z" data-holc_grade="C"/>
<path d="M 2325.5 1633.7 2325.5 1729.5 2300.1 1729.9 2252.3 1753.9 2246.2 1761.9 2246.6 1805.7 2283.5 1807.8 2284.3 1821 2303.6 1820.6 2303.6 1807.1 2326.8 1794.4 2472.8 1794.7 2496.9 1853.4 2398.7 1849.7 2398.3 1842.1 2176.1 1840.6 2177.4 1808.2 2122.7 1808.9 2124.8 1766.5 2147.4 1750.3 2170 1718.8 2190.5 1702.2 2258.9 1674.2 2270.5 1666.4 2279.9 1637.9 2295.3 1637 2325.5 1608.9 2325.5 1633.7 Z" data-holc_grade="C"/>
<path d="M 1850.4 1688.5 1882.4 1689.2 1937.8 1717.2 1937.1 1681.4 1939.2 1628.9 1960.7 1628.9 1987 1621.9 2018.6 1607.5 2030.1 1601 2027.8 1598.2 2038 1594.7 2042.2 1625.3 2057 1625.3 2057.5 1606.5 2092.7 1599 2090.6 1581.1 2103.8 1555.3 2159 1553.1 2160 1597.7 2191.6 1596.8 2215.3 1596.4 2254.7 1589.9 2272 1620.5 2273.1 1638.4 2279.9 1637.9 2270.5 1666.4 2258.9 1674.2 2190.5 1702.2 2170 1718.8 2147.4 1750.3 2124.8 1766.5 2122.7 1808.9 1850.8 1805 1850.4 1688.5 Z M 2166.8 1687.3 2170.1 1606.6 2106.8 1606.6 2104.3 1649.7 2088.7 1653.8 2086.8 1688.6 2166.8 1687.3 Z" data-holc_grade="C"/>
<path d="M 1746.2 1914.9 1608.2 1913.4 1605.6 1906.8 1595 1906.5 1590.7 1868.4 1585 1818.1 1608.1 1809.4 1643.3 1811.6 1644.4 1807.7 1641.8 1797.2 1642.3 1782.7 1609.7 1787.1 1600.7 1788.9 1603.9 1773.1 1598.6 1771.4 1596 1722.8 1572.3 1722 1571.8 1705.3 1563.9 1689.6 1563.4 1669.9 1604.9 1637.6 1607.3 1646.3 1618.3 1645.2 1617.8 1660.1 1676.1 1660.9 1674 1645.8 1692.4 1644.3 1691.4 1614.9 1719.1 1616.1 1720.1 1684.9 1717.3 1690.4 1726.1 1688.4 1731.3 1758 1728.2 1763.3 1707.5 1768.2 1708.2 1777.8 1754.8 1763.6 1760.7 1761.7 1759.4 1793.1 1756.8 1805.9 1754.6 1855.5 1776.9 1856.2 1779.5 1913 1776 1915.2 1746.2 1914.9 Z" data-holc_grade="C"/>
<path d="M 1746.2 1914.9 1746.2 1977.9 1709 1974.6 1694.1 1975 1676.1 1975.7 1676.6 2026.7 1617 2029.3 1614.3 2230.5 1510.9 2225.4 1530.6 2195.8 1535.9 2180.5 1523.2 2144.8 1538.1 2130.2 1538.1 2117.1 1529.3 2109.5 1499.1 2108.7 1483.7 2105.5 1449.1 2102.5 1448.7 2061.7 1482 2061.4 1482 2015.1 1495.1 2006 1547.3 2007.1 1547.3 1969.5 1514.9 1967 1517.5 1919.7 1522.4 1919.6 1552.9 1913.9 1595 1906.5 1605.6 1906.8 1608.2 1913.4 1746.2 1914.9 Z" data-holc_grade="C"/>
<path d="M 1379.3 1885 1379.9 1944.5 1382 1949.7 1455.6 1952.4 1419.3 2044.6 1375.1 2045.5 1364.1 2106.3 1287.8 2106.3 1287.3 2091 1242.1 2091.4 1240.5 2087.1 1182.1 2086.2 1182.1 2110.7 1162.1 2110.7 1161.6 2077.9 1154.8 2076.1 1154.8 2064.8 1046.5 2063.4 1045.9 2047.7 1218.4 2049.4 1221.6 1881.1 1379.3 1885 Z M 1247.3 1894.1 1248.3 2055.5 1319.9 2054.6 1323.5 2031 1319.9 2003.9 1324.1 1977.6 1323.5 1957.1 1301.5 1956.2 1300.9 1891.9 1247.3 1894.1 Z" data-holc_grade="C"/>
<path d="M 1114 2181.7 1193.3 2181 1192.3 2200.4 1246.5 2204.5 1246.1 2223.8 1277.4 2225.6 1362.3 2226 1350.9 2260 1348.6 2287.3 1361.6 2288.6 1372.8 2291 1369.5 2320.3 1347 2313.4 1346.1 2306.6 1347.4 2295.9 1335.2 2296.2 1336.1 2285.7 1322.4 2289.2 1264.5 2289.5 1215.9 2261.2 1165.1 2231 1155.8 2214.4 1114.3 2188.6 1114 2181.7 Z" data-holc_grade="C"/>
<path d="M 1209.1 2410.9 1205.1 2406.9 1199.6 2411.2 1173.1 2385.4 1178.3 2383.3 1174.7 2379.5 1199.2 2366.9 1220.1 2382.3 1230.7 2388.9 1219.4 2397.1 1223.3 2401.8 1209.1 2410.9 Z" data-holc_grade="C"/>
<path d="M 1088.4 2374.6 1127.6 2366.2 1122.7 2348.9 1114.3 2324 1099 2283.5 1115.7 2280.2 1106.3 2251 1124.9 2244.8 1129.1 2245.9 1142.7 2245.1 1158.2 2248 1171.6 2280.1 1170.1 2304.8 1171.3 2319 1174.5 2330 1183.1 2344 1154.6 2356.8 1156 2388.3 1167.3 2419.2 1190.3 2424.4 1186.2 2427.1 1203 2450.2 1143.3 2466.9 1125.5 2473.4 1112.4 2471.3 1104.1 2470.7 1095.6 2471.2 1087.5 2474.2 1080.9 2474.6 1079.1 2463.5 1078.6 2445.9 1080.2 2433.1 1049 2433.3 1048.4 2404.7 1086.4 2405 1088.4 2374.6 Z" data-holc_grade="C"/>
<path d="M 1008.8 729.3 1006.2 727.1 1016.7 696.5 1061.4 693 1076.1 692.6 1074.5 742.8 1108.7 741.9 1115 742.4 1118.2 765.1 1126.6 769.9 1123.9 828 1070.8 845 968.8 830.6 937.8 828 984.1 772.5 1018.8 778.6 1028.8 765.1 1036.1 757.2 1053 709.6 1033.5 709.2 1026.7 731.4 1008.8 729.3 Z" data-holc_grade="C"/>
<path d="M 369.4 2684.4 367.7 2701.6 350.1 2703.8 330 2705.2 328.7 2718.3 324.3 2720.9 275.9 2710.7 285.7 2695.4 302.4 2672.4 313.3 2656 267.3 2655.3 271.3 2639.6 297.6 2638.8 297.6 2533.8 307.2 2536 435.2 2537.5 436 2548.4 433.4 2559.4 422.4 2579.8 408 2597.3 397.5 2606 375.6 2617 348.8 2635.9 330 2651.6 325.2 2657.1 344 2673.5 362 2684.4 369.4 2684.4 Z M 428.5 2509.8 427.9 2520.7 293.3 2516.8 292.3 2507.6 428.5 2509.8 Z" data-holc_grade="C"/>
<path d="M 586.7 2424.1 585.7 2447.6 447.1 2446.4 448.8 2419.6 482.9 2420.3 484.5 2382.9 491.9 2361 471.2 2333.4 490.1 2290.3 585.5 2292.1 585.5 2309.8 525.2 2309.4 530.4 2321.9 511.1 2327.1 529.9 2385.6 556.2 2424.1 572.2 2424.1 586.7 2424.1 Z" data-holc_grade="C"/>
<path d="M 750.9 2221.5 750.5 2263 750.1 2311.9 589.8 2310 585.5 2309.8 585.5 2292.1 585.8 2257.1 544.8 2256.4 545.8 2225.8 592.7 2227.3 593.9 2183.3 670.3 2184.7 670.2 2207.4 733.4 2208.6 740.9 2209.2 751 2208.3 750.9 2221.5 Z" data-holc_grade="C"/>
<path d="M 787 2093.1 779.3 2093.1 746.2 2093.7 746.2 2123.7 787.2 2123.7 787.4 2164 787.3 2179.7 695.7 2178.3 659.3 2123.7 657 2119.1 656.6 2110.9 633.3 2093.2 646.5 2069.2 658.6 2050.6 703.3 2050.2 701.6 1994.9 737 1994.6 738.8 2057.4 785.9 2058.1 787 2093.1 Z M 681.8 2138.8 688.3 2144.5 695.8 2138.6 692.9 2135.5 686.3 2126.4 678.4 2126.5 681.1 2129.9 677 2129.9 679.5 2135 681.8 2138.8 Z" data-holc_grade="C"/>
<path d="M 497.2 2034.7 594.7 2096.8 513.7 2164.6 504.3 2164.6 503.7 2167.2 473.8 2250.3 478 2253.4 467.5 2290.6 399.1 2288.8 401.2 2265.2 400.2 2235 446.4 2237.7 447 2203.5 361.2 2203.5 363.9 2155.9 437.5 2157.2 440.9 2024.6 482.5 2049.1 497.2 2034.7 Z" data-holc_grade="C"/>
<path d="M 635 1951.6 632.4 2021.1 612.4 2021.1 611.9 2037.7 645 2037.7 648.2 2037.5 645 2041.7 641 2047.6 634.5 2051.5 631 2053.8 624 2056.1 591.9 2060.5 546.6 2034.2 450.9 1980 453.9 1935.8 513 1938.9 512.2 1839.2 512.2 1837.9 595.7 1836.7 597.8 1836.6 596.6 1866.3 653.4 1867.2 669.7 1886.4 680.7 1887.3 629.7 1930.2 575.6 1930.2 575 1951.6 635 1951.6 Z" data-holc_grade="C"/>
<path d="M 415.8 1805.2 511.9 1811.7 512.2 1837.9 512.2 1839.2 513 1938.9 453.9 1935.8 413.1 1933.7 413.6 1951.6 352.6 1952 326.3 1994 226.9 1993.6 225.4 1962.6 254.8 1963.1 254.8 1941.2 275.1 1937.5 273.4 1908.9 258.6 1897.2 258.6 1878.6 264.8 1830 238.5 1804.2 208.5 1777.6 192.2 1759.6 182.2 1756.6 163.3 1758.3 166.4 1719.4 213.2 1708 216.4 1720.3 231.1 1724.2 230.6 1738.2 244.8 1739.5 250.6 1736.9 258.5 1728.1 276.4 1723.3 295.3 1720.7 312.6 1718.1 326.8 1713.3 323.2 1803.8 414.7 1805.1 415.8 1805.2 Z" data-holc_grade="C"/>
<path d="M 464 1426 468.3 1447.3 435.2 1448.7 432.1 1502.1 387.6 1505.5 259 1504.1 189.7 1505.9 184 1505.5 181 1504.5 183.4 1448.8 165.2 1448.1 166.4 1397 166.2 1372.1 167.3 1328 214.1 1329.3 213 1366.4 265 1361.3 313.4 1350.6 312.8 1380.7 338.6 1380.6 339.2 1425.6 464 1426 Z" data-holc_grade="C"/>
<path d="M 740.1 896.7 740.3 911.1 677.9 910.3 677.9 909.2 677.8 893 637.5 891.9 640.1 834.6 639.6 828.5 633.2 807.8 640.2 820.2 646.6 832.8 659.5 857.1 667.7 862.3 674.9 871.2 680.3 877.9 690.2 888.8 710.8 889.7 718.1 884.3 739.8 879.1 740.1 896.7 Z" data-holc_grade="C"/>
<path d="M 661.3 3163 723.9 3199.8 682.8 3259.3 614 3258 612.9 3215.5 614 3215.5 640.2 3184.4 661.3 3163 Z" data-holc_grade="C"/>
<path d="M 968.8 902.1 964.6 919.6 972.7 962.2 980 998.7 961.3 998.9 960.9 1010.3 962.2 1021.7 965.6 1030.9 969.9 1037.9 958.3 1045.3 953.6 1015.6 950.7 1006.9 943.1 973.5 939.9 964.9 929.2 929.3 891.2 912.9 878.4 907.5 891.1 896.3 908.9 882 925.5 872.6 945.6 865.3 963.9 872.2 975.9 872.4 968.8 902.1 Z" data-holc_grade="C"/>
<path d="M 616.6 3043.5 617.6 2986.6 787.5 2985.7 790.1 3020.3 777.5 3020.3 745.4 3092.1 700.7 3075.5 682.8 3094.3 645.5 3128.4 567.1 3129.7 562.4 3040.9 622.9 3058.8 616.6 3043.5 Z" data-holc_grade="C"/>
<path d="M 239.8 3207.5 240.8 3255.9 181.9 3255.3 180.5 3288 148.2 3288.6 148.2 3432.7 89.3 3431 90.7 3342.3 124.4 3323 125.1 3246.5 81.6 3247.1 80.2 3252.4 76.7 3252.4 16.4 3252.4 16.4 3218.5 95 3216.8 92.9 3175.9 127.9 3172.4 127.2 3163.7 130 3151.4 137 3136.8 55 3138 53.6 3089 2.4 3089 1 3061.5 144 3060.9 142.6 3041.7 123.7 3041.7 121.6 3010.2 76.7 3009.6 76.7 2982.2 196.6 2982.2 189.6 3013.1 209.9 3012.5 210.6 3035.8 279.4 3037 280.8 3157.8 238.7 3157.8 239.8 3207.5 Z" data-holc_grade="C"/>
<path d="M 439.1 2794.2 404 2814.6 286.6 2813.2 314.6 2780 439.1 2776 439.1 2794.2 Z M 177.4 2665.6 194.2 2688.9 202.7 2692.5 212.5 2705.9 225.1 2718.1 241.9 2731 258.8 2737.4 229.3 2777.6 211.1 2805.1 202 2833.1 181.6 2829 176 2833.6 170.4 2860.5 196.4 2864 192.1 2884.4 217.4 2887.3 187.9 2964.4 205.5 2966.1 196.6 2982.2 76.7 2982.2 76.5 2892.6 115.7 2891.4 117.1 2868.1 132.5 2861.7 136.1 2820.2 72.9 2819.6 72.9 2783.5 138.2 2778.8 135.4 2722.2 82.1 2724 80 2698.9 82.8 2663.9 62.4 2664.4 60.3 2638.2 58.9 2610.2 86.3 2606.7 147.3 2609.6 155 2652.2 168.3 2651 177.4 2665.6 Z" data-holc_grade="C"/>
<path d="M 1323.2 947.3 1324.8 864.5 1338.9 865.6 1352.4 871.2 1362.2 874.5 1371.9 877.4 1373.2 878.9 1370.6 910.8 1365.4 920.5 1367 924 1369.8 944.6 1358.2 952.6 1323.2 947.3 Z" data-holc_grade="C"/>
<path d="M 1039.3 1066.9 1039.6 1085.1 1084.5 1085.7 1084.9 1116.4 1094.3 1138.1 1100.1 1164.7 1112 1190.2 1113.9 1196.1 1122.1 1197.6 1133.6 1202.3 1141 1204.8 1153.8 1204.4 1169.9 1198.1 1184.5 1192.1 1191.3 1186.3 1200.9 1175.3 1239.9 1118.5 1244.2 1108.9 1247.3 1096.9 1245.8 1090.2 1246.4 1085.2 1246 1082.8 1243.8 1068.5 1237.6 1040 1245 1040.1 1249.1 1039.4 1276.3 1082.3 1281.9 1096.1 1281.8 1101.7 1275.5 1107.1 1278.6 1123.8 1279 1130.2 1245.6 1141.2 1230.2 1157.8 1211.6 1187.3 1194.9 1200.5 1188.4 1207.4 1180.7 1219.5 1179.6 1226.8 1016.6 1221.9 1017.5 1152.2 1018.6 1089.3 1009.8 1084.9 969.9 1063.8 961.7 1058.4 976.2 1043.5 982 1039.8 1038.1 1000.2 1039.3 1066.9 Z" data-holc_grade="C"/>
<path d="M 1017.5 1152.2 1016.6 1221.9 1015.9 1275 1015.9 1301.8 1020.8 1327.4 1021.7 1354.2 985.9 1354.6 984.2 1354.6 891.9 1353 891.5 1396.8 923 1396.6 923 1396.8 923.9 1421.3 906.5 1430.9 901.5 1433.1 866.8 1381.4 866.6 1301 869.4 1271.2 869.1 1230.4 855.6 1230.3 857.9 1175.3 993.8 1174.9 994 1151.5 1017.5 1152.2 Z" data-holc_grade="C"/>
<path d="M 1259.9 1415 1188.9 1431.4 1181.4 1431 1179.4 1431 1091.8 1428.4 1092 1420.2 1064 1418.1 1039.6 1415.5 1039.6 1443.6 1013.5 1443.1 984.5 1444.5 984.2 1409.9 984.2 1354.6 985.9 1354.6 1021.7 1354.2 1020.8 1327.4 1015.9 1301.8 1015.9 1275 1016.6 1221.9 1179.6 1226.8 1177.5 1237.3 1157.8 1273 1185.5 1273.3 1185.8 1295.6 1261.6 1295.1 1261.8 1333 1343.3 1333 1340.1 1352.4 1340.2 1368.2 1345.3 1388 1372.5 1388.5 1374.2 1408.3 1260.2 1406.4 1259.9 1415 Z M 1072.3 1381.8 1072.4 1361.3 1046.3 1358.5 1018.1 1358.6 1017.7 1369.8 1009.3 1370 1009.3 1382.3 1072.3 1381.8 Z M 1100.9 1314.8 1102 1276.2 1117.9 1256.7 1118.1 1230.4 1098.5 1230.4 1098.5 1256.5 1076.2 1281.6 1077.1 1314.8 1100.9 1314.8 Z" data-holc_grade="C"/>
<path d="M 1379.2 1524.8 1376.6 1545 1375.2 1563.2 1334.2 1563.3 1333 1554.1 1232.3 1552.5 1245.6 1462.6 1180.8 1462.6 1180 1453.6 1179.4 1431 1181.4 1431 1188.9 1431.4 1259.9 1415 1258.7 1433.8 1355 1434.2 1354.6 1443.1 1352 1456.1 1343.6 1481.1 1343.3 1494.5 1346.8 1495 1385.6 1490.4 1381.5 1506.9 1379.2 1524.8 Z" data-holc_grade="C"/>
</g>
<g id="D">
<path d="M 1283 484.5 1284 525 1266.1 531.5 1239.3 528.9 1236.2 516.2 1237.7 509.2 1235.1 498.7 1233 489.1 1194.1 487.4 1153.6 487.4 1151.5 483 1283 482.1 1283 484.5 Z" data-holc_grade="D"/>
<path d="M 2019.9 1587.6 2022 1591.3 2009 1599.5 1969 1616.6 1939.9 1619.6 1912.9 1614 1898.6 1607.6 1864.2 1592.5 1833 1582 1803.2 1579.9 1780.1 1582 1777.6 1632.7 1815.8 1632.1 1898.6 1633 1898.6 1680.2 1937.1 1681.4 1937.8 1717.2 1882.4 1689.2 1850.4 1688.5 1828.4 1688.1 1819.3 1705.3 1805.7 1745.2 1795.8 1750.4 1760.7 1761.7 1754.8 1763.6 1708.2 1777.8 1707.5 1768.2 1728.2 1763.3 1731.3 1758 1726.1 1688.4 1717.3 1690.4 1720.1 1684.9 1719.1 1616.1 1691.4 1614.9 1692.4 1644.3 1674 1645.8 1662.6 1646.7 1658.1 1645.2 1658.1 1612.9 1654.2 1611.1 1615.3 1623.9 1604.4 1630.6 1600.7 1610.7 1617.4 1602.1 1638.3 1599.7 1643.3 1598.6 1667.1 1592 1711.5 1583.5 1776.7 1571.9 1786 1571.1 1813.1 1571.4 1833.3 1574.1 1846.5 1577.1 1856.5 1578.7 1863.7 1581.5 1878.4 1589.2 1899.2 1596.4 1929.1 1608 1947.3 1611.7 1952.5 1610.7 1968.5 1607.1 1988 1599.9 2015.7 1584.3 2019.9 1587.6 Z" data-holc_grade="D"/>
<path d="M 1604.9 1637.6 1563.4 1669.9 1563.9 1689.6 1571.8 1705.3 1572.3 1722 1596 1722.8 1598.6 1771.4 1603.9 1773.1 1600.7 1788.9 1609.7 1787.1 1642.3 1782.7 1641.8 1797.2 1644.4 1807.7 1643.3 1811.6 1608.1 1809.4 1585 1818.1 1544.5 1818.6 1529.7 1819.9 1534 1868.9 1590.7 1868.4 1595 1906.5 1552.9 1913.9 1522.4 1919.6 1517.5 1919.7 1491.9 1920 1492.4 1906.5 1491.4 1852.7 1486.6 1804.2 1392 1802.8 1388.8 1769.6 1390.4 1747.8 1385.7 1729 1414.6 1725 1457.7 1727.2 1536.6 1725 1540.8 1685.7 1539.2 1679.5 1533.4 1676 1508.2 1690 1479.8 1700.5 1477.2 1697.9 1474 1689.6 1470.3 1690.5 1432.5 1698.3 1378.3 1705.3 1377.2 1683.9 1377.9 1651.4 1395.6 1647.2 1423 1636.3 1438.8 1625.8 1456.1 1612.2 1476.7 1595.3 1478.9 1631.7 1481.2 1649.3 1486.7 1665.9 1517 1670.1 1538.2 1652.9 1571.9 1629.4 1600.7 1610.7 1604.4 1630.6 1604.9 1637.6 Z" data-holc_grade="D"/>
<path d="M 1379.3 1885 1221.6 1881.1 1218.4 2049.4 1045.9 2047.7 1046.5 2063.4 1154.8 2064.8 1154.8 2076.1 1161.6 2077.9 1162.1 2110.7 1162.1 2133 1035.4 2131.2 1034.9 2161.4 961.8 2096.2 942.3 2096.2 919.2 2050.3 894 2049 894 2032.4 879.8 2011.8 878.7 1995.2 834.5 1995.2 834.5 1936.2 773 1932.7 757.2 1886.3 800.9 1872.8 905.5 1822 920.8 1815.1 1023.3 1816.4 1024.4 1832.1 1058.5 1831.2 1059.6 1788.4 1094.8 1805 1141.6 1817.2 1330.4 1815.9 1329.4 1822 1383.5 1822.9 1405.6 1822.9 1458.2 1825.1 1425.1 1847 1381.4 1864.5 1379.3 1885 Z" data-holc_grade="D"/>
<path d="M 1190.3 2424.4 1167.3 2419.2 1156 2388.3 1154.6 2356.8 1183.1 2344 1193.7 2360 1199.2 2366.9 1174.7 2379.5 1178.3 2383.3 1173.1 2385.4 1199.6 2411.2 1205.1 2406.9 1209.1 2410.9 1190.3 2424.4 Z" data-holc_grade="D"/>
<path d="M 1088.4 2374.6 1075.4 2377.3 1028.9 2375.2 1029.4 2255.1 1053 2256 1057.9 2243.8 1045.7 2223.8 1060.6 2210.8 1046.8 2199.9 1055.1 2188.7 1118.5 2208.2 1124.9 2244.8 1106.3 2251 1115.7 2280.2 1099 2283.5 1114.3 2324 1122.7 2348.9 1127.6 2366.2 1088.4 2374.6 Z M 955.7 2298.8 955.6 2364.9 872 2363.2 875.7 2297.4 955.7 2298.8 Z M 920.5 2329.1 922.8 2329.9 926.2 2327.7 927.2 2324.8 926.7 2321.1 924.8 2318.6 922.5 2318 919.7 2319.5 919.5 2324.8 920.5 2329.1 Z" data-holc_grade="D"/>
<path d="M 787.3 2179.7 787.4 2164 787.2 2123.7 787 2093.1 785.9 2058.1 738.8 2057.4 737 1994.6 820.6 1996 876.8 2060.2 934.6 2126.3 958 2142.8 956.4 2178.1 920.7 2179.2 787.3 2179.7 Z" data-holc_grade="D"/>
<path d="M 648.2 2037.5 645 2037.7 611.9 2037.7 612.4 2021.1 632.4 2021.1 635 1951.6 655 1950.7 653.9 2013.7 651.5 2029.6 649.5 2036 648.2 2037.5 Z" data-holc_grade="D"/>
<path d="M 597.8 1836.6 595.7 1836.7 512.2 1837.9 511.9 1811.7 415.8 1805.2 460.6 1765.5 468.8 1748.7 366.8 1747.4 365 1710.2 365.7 1693.7 482.3 1695.3 488.7 1665.8 501.3 1607.7 501.2 1598.4 497.6 1578.1 482 1512.1 476 1477.7 471.8 1446.6 472.8 1446.4 524.6 1430.8 610.1 1431.6 607.8 1497.3 608.9 1568.4 607.4 1671.8 606.3 1692.4 671.5 1691.3 748.3 1692.4 750.7 1742.8 606.3 1743.5 607 1824.8 605 1836.4 597.8 1836.6 Z" data-holc_grade="D"/>
<path d="M 874.8 1531.4 870.1 1628.8 858.1 1628.4 857.2 1620.6 852 1608.7 839.2 1590.4 830.9 1583.4 812.2 1564.7 797.6 1546.8 790 1535.5 789.3 1523.8 789.1 1500.6 767.1 1500.3 766.8 1476.3 766.4 1454.8 830.8 1455.2 833.1 1522.9 874.5 1523.1 874.8 1531.4 Z M 680.7 1887.3 669.7 1886.4 653.4 1867.2 596.6 1866.3 597.8 1836.6 605 1836.4 607 1824.8 606.3 1743.5 750.7 1742.8 748.3 1692.4 671.5 1691.3 606.3 1692.4 607.4 1671.8 608.9 1568.4 607.8 1497.3 610.1 1431.6 524.6 1430.8 472.8 1446.4 471.8 1446.6 468.3 1447.3 464 1426 461.3 1411.9 457.6 1386.2 597.3 1386.2 597.4 1361.8 692.5 1362.6 695.7 1363.4 705.7 1369.4 709.1 1376.7 707.7 1393.5 704.8 1445.5 739.6 1487.7 738.6 1543.3 782.3 1544.6 780.8 1598.4 824.4 1599 823.4 1714.6 873.3 1716.6 872.2 1738.4 823.9 1749.7 778.3 1835.5 686.1 1881.7 680.7 1887.3 Z" data-holc_grade="D"/>
<path d="M 906.9 1461.6 957.2 1461.7 956.9 1520.6 965.4 1520.6 965.4 1533.1 964.8 1541.7 984.4 1541.8 983.9 1535.2 985.3 1533 985.3 1520.7 1008.1 1520.2 1007 1552.7 1006.9 1619.3 975.5 1619.5 971.7 1618.3 904.9 1559.4 905.9 1501.6 906.9 1461.6 Z" data-holc_grade="D"/>
<path d="M 1237.9 881.5 1221.1 909.9 1207.8 910.3 1215.5 880.1 1193.6 880.3 1195.2 872.3 1205.8 848.9 1210.6 842.7 1278.6 841.3 1332 841.8 1313.3 868.9 1284.9 881.6 1237.9 881.5 Z" data-holc_grade="D"/>
<path d="M 1379.2 1524.8 1392.4 1520.3 1386.7 1550.3 1384.8 1588.2 1385.7 1598.6 1375.9 1598.8 1378.7 1635 1377.9 1651.4 1377.7 1654.4 1372.2 1657.8 1357.5 1674.9 1359.1 1695.1 1340 1695.2 1290.8 1693.5 1262.5 1692.9 1171.4 1692 1170.8 1674.3 1136.4 1674.1 1136.6 1595 1108 1595 1109.1 1562.6 1145 1563.4 1145.6 1544.1 1109.9 1544.3 1110.4 1536.2 1109.9 1454 1180 1453.6 1180.8 1462.6 1245.6 1462.6 1232.3 1552.5 1333 1554.1 1334.2 1563.3 1375.2 1563.2 1376.6 1545 1379.2 1524.8 Z" data-holc_grade="D"/>
<path d="M 855.6 1230.3 869.1 1230.4 869.4 1271.2 866.6 1301 866.8 1381.4 901.5 1433.1 876.1 1441.3 846.3 1434.5 837.7 1430 822.3 1416.3 800.4 1416.2 768.7 1390.6 737.6 1357.2 725.7 1343.5 714.9 1330 701.7 1301.7 694.1 1290 687.5 1280.9 683.2 1243.3 766.6 1244.3 766.2 1229.5 855.6 1230.3 Z" data-holc_grade="D"/>
<path d="M 409.6 1234.4 457.7 1234 482.2 1240.9 559.4 1251.8 539.9 1270.5 540.4 1327.1 432.6 1327.7 434.7 1278 408.3 1278.5 409.1 1254.5 409.6 1234.4 Z" data-holc_grade="D"/>
<path d="M 166.8 1150.7 261.7 1151 261.2 1189.9 287.9 1207 332.2 1207.1 368.9 1227.5 369.7 1258.4 313.3 1259.3 312.7 1302 230.2 1302 231.1 1259.8 167.2 1259.3 166.8 1150.7 Z" data-holc_grade="D"/>
<path d="M 165.5 959.9 290 960.1 290.2 928.4 275.9 875.1 324.1 904.9 331.8 911.8 337.2 920.9 347.7 949.8 352.4 960.3 356.8 966.9 375.3 980.8 387.8 989.2 377.7 992.8 361 994.8 312.9 995.1 312.2 1021.5 241.9 1021.7 202.7 1012 165.9 1012.1 165.5 959.9 Z" data-holc_grade="D"/>
<path d="M 677.9 910.3 680.3 1019.9 693.9 1020.4 693.9 1067.8 632.7 1096.6 626 1099.6 600.9 1099.2 597 1097.4 580.4 1077.1 555.2 1042.3 543.6 1029 535.7 1022.1 527 1016.6 562.3 1000.1 611.1 1000.5 614.3 996.8 627.8 974.4 636.5 957 635.7 933.3 636 913.9 637.5 891.9 677.8 893 677.9 909.2 677.9 910.3 Z" data-holc_grade="D"/>
<path d="M 275.9 2710.7 258.8 2737.4 241.9 2731 225.1 2718.1 212.5 2705.9 202.7 2692.5 194.2 2688.9 177.4 2665.6 188 2664.7 199 2673.5 216 2683.7 227 2697.9 243.7 2703.8 257.7 2716.2 270.4 2705.9 257.2 2696.1 267.3 2655.3 313.3 2656 302.4 2672.4 285.7 2695.4 275.9 2710.7 Z" data-holc_grade="D"/>
<path d="M 286.6 2813.2 404 2814.6 439.1 2794.2 439.7 2942.9 350.3 2942.9 348.6 2903.5 293.4 2903.5 286.6 2813.2 Z" data-holc_grade="D"/>
<path d="M 76.5 2892.6 72.9 2819.6 136.1 2820.2 132.5 2861.7 117.1 2868.1 115.7 2891.4 76.5 2892.6 Z" data-holc_grade="D"/>
<path d="M 516.1 3028.2 512.5 3091.2 459.9 3092.1 458.3 3107.8 447.3 3109.2 447.8 3006.3 486.7 3018.6 516.1 3028.2 Z M 617.6 2986.6 616.6 3043.5 554.5 3013.3 551.9 2962.1 561.9 2964.7 559.3 2948.5 589.2 2949.8 594.5 2985.7 617.6 2986.6 Z" data-holc_grade="D"/>
<path d="M 2459.7 1353.7 2460.4 1376.4 2423.2 1376.2 2422.1 1361 2402.9 1359.8 2403.9 1319 2420.7 1315 2432.7 1314.1 2444.2 1311.2 2446.7 1354 2459.7 1353.7 Z" data-holc_grade="D"/>
<path d="M 723.9 3199.8 661.3 3163 677.1 3142 700.2 3156 704.9 3141.1 726 3153.4 754.9 3128 743.3 3117.5 759.1 3103.5 849 3149 911.6 3185.3 991 3264.6 899 3263.7 897.9 3207.6 872.7 3200.6 856.4 3198.5 828 3194.5 803.3 3177 794.3 3186.2 754.9 3161.7 723.9 3199.8 Z" data-holc_grade="D"/>
<path d="M 16.4 3218.5 15 3174.7 92.9 3175.9 95 3216.8 16.4 3218.5 Z M 239.8 3207.5 238.7 3157.8 280.8 3157.8 279.4 3037 210.6 3035.8 209.9 3012.5 189.6 3013.1 196.6 2982.2 245 2981.6 249.9 3007.3 296.2 3010.2 297.6 3208.6 239.8 3207.5 Z" data-holc_grade="D"/>
<path d="M 89.3 3431 4.5 3426.3 7.3 3386 76 3327.1 76.7 3252.4 80.2 3252.4 81.6 3247.1 125.1 3246.5 124.4 3323 90.7 3342.3 89.3 3431 Z" data-holc_grade="D"/>
<path d="M 2847.4 1325 2868 1280.2 2871.9 1215 2866.2 1187.3 2862.3 1170.9 2868.8 1156.7 2834.2 1154.6 2867.1 1110.8 2885.9 1072.6 2898.6 1081.7 2906.5 1084.6 2922.7 1095.9 2944.7 1094.1 2945.1 1149.5 2910 1151.6 2910 1283.1 2948.6 1283.5 2948.6 1259.1 2999 1257.6 2995.9 1311.2 2942.5 1326.5 2895.1 1327.2 2847.4 1325 Z" data-holc_grade="D"/>
<path d="M 2624.4 1387.5 2626.3 1378.4 2680.2 1356.1 2687.9 1372.7 2812.3 1327.2 2827.4 1347.3 2806.7 1377 2795.9 1377 2722.9 1386.1 2724.3 1395.4 2661.2 1400.9 2660.2 1452.2 2626.9 1452.5 2629.3 1398.6 2624.4 1387.5 Z" data-holc_grade="D"/>
<path d="M 2551.7 1449.7 2493.4 1466.5 2482 1454.8 2505.9 1447.8 2503.1 1440.3 2544.9 1429.5 2551.7 1449.7 Z" data-holc_grade="D"/>
<path d="M 2211.4 1522.8 2211.2 1520 2207.6 1480.7 2224.7 1479.9 2223.9 1465.4 2238.8 1462.8 2252.8 1464.6 2285.2 1392.5 2333 1389.6 2334.7 1406 2361 1405.3 2362.3 1459.5 2390.4 1458.1 2389.9 1433.7 2409.7 1439.1 2424.1 1446.8 2427.2 1454.1 2353.1 1479.2 2353.1 1471.9 2211.4 1522.8 Z" data-holc_grade="D"/>
<path d="M 2272 1620.5 2254.7 1589.9 2253.7 1585.6 2230.4 1541.5 2269.4 1526.2 2274.7 1528.4 2307.1 1581.9 2302.3 1596.9 2291.3 1610.4 2272 1620.5 Z" data-holc_grade="D"/>
<path d="M 2191.6 1596.8 2160 1597.7 2159 1553.1 2103.8 1555.3 2090.6 1581.1 2092.7 1599 2057.5 1606.5 2057 1625.3 2042.2 1625.3 2038 1594.7 2027.8 1598.2 2022 1591.3 2019.9 1587.6 2086.6 1549.2 2103.8 1545.4 2144.4 1541.2 2176.5 1538.5 2182.3 1562.3 2184.9 1581.5 2191.6 1596.8 Z" data-holc_grade="D"/>
</g>
</svg>