<?xml version="1.0"?>
<svg xmlns="http://www.w3.org/2000/svg" version="1.2" baseProfile="tiny" width="2000" height="2704" viewBox="0 0 2000 2704" stroke-linecap="round" stroke-linejoin="round">
<g id="A">
<path d="M 950.5 2606.3 957.3 2607.4 960.3 2585.4 969.8 2560.2 1008.1 2516.1 1011.4 2489.8 1033.3 2451.6 1051.6 2416.5 1072.3 2382.3 1087.6 2351.7 1102.4 2335.6 1114.5 2322.6 1125 2311 1127.9 2295.4 1137.7 2290.6 1145.7 2302.1 1178.5 2315.9 1204.8 2327.6 1229.6 2338.7 1285.6 2362.8 1316.7 2373.2 1338.3 2382.9 1367.1 2390.5 1386.3 2399.4 1362.3 2421.5 1327.1 2477.5 1307.2 2506.5 1199.2 2456.1 1094.8 2623.3 1057.5 2686.1 1069.2 2691.8 1055.9 2702.9 948 2615.4 950.5 2606.3 Z" data-holc_grade="A"/>
<path d="M 1284.8 1279 1299.4 1261.5 1213 1193.9 1197.6 1215.5 1181.7 1242.4 1061.7 1185.3 1156.1 1040.8 1272 1093.3 1375.1 938.7 1467 981.5 1473.7 975.3 1556.2 1019.4 1573.2 997 1609.6 1014.8 1597.8 1031.2 1577.8 1082.7 1481.5 1032.4 1427.2 1120 1555.2 1180.5 1553.6 1186.4 1533.9 1209 1494.4 1253.1 1453.4 1298.2 1424.3 1352.1 1420.2 1346.3 1353.2 1340.1 1308.1 1333.5 1284.6 1318.5 1273.6 1306.6 1276 1287.9 1284.8 1279 Z" data-holc_grade="A"/>
<path d="M 942.4 1128.6 1039.4 1174.7 1026.6 1276.2 1004.2 1506.7 1015.5 1510.7 953.5 1684.3 929.9 1677.9 906.7 1671 871.5 1669 843.5 1658.6 849.1 1642 834.7 1602.7 761.2 1552.3 706.8 1510.2 670.9 1504 544.6 1439.1 490.2 1412.9 441.4 1381.8 327.1 1313.5 225.6 1283.1 161.7 1261 108.1 1238.9 34.6 1196.8 1 1168.5 43.4 1113.3 102.5 1043.6 128.1 986.3 151.3 909.7 157.7 888.3 161.7 849.7 169.7 809 170.5 769.6 176.1 724.1 180.9 542.6 180.1 445.3 173.7 406.7 173.7 352.9 151.3 295.6 141.7 272.1 214.4 1 674.9 45.2 691.6 146.6 630.1 226.6 764.4 295.6 737.2 519.1 730 568.1 558.2 486.7 391.9 743.4 618.1 840 534.2 985.6 658.1 1041.5 670.9 1019.4 682.1 1022.9 682.9 1104.3 683.7 1136.1 675.7 1161.6 668.5 1200.3 677.3 1201 694.8 1134.7 711.6 1120.2 738.8 1071.2 814.7 1107.1 849.1 1118.1 849.1 1135.4 858.7 1157.5 857.9 1188.5 854.7 1217.5 837.9 1220.3 818.7 1247.2 798 1272.7 758 1271.4 729.2 1267.2 713.2 1301 726 1334.2 726 1362.5 721.2 1408.7 816 1443.1 833.4 1411.7 857.9 1384.6 853.9 1374.9 857.1 1361.8 941 1368 948.2 1275.5 973.8 1256.9 981.8 1238.9 969.8 1224.4 945.8 1201 927.5 1189.9 912.3 1168.5 909.1 1149.9 909.9 1128.5 924.3 1116.8 942.4 1128.6 Z" data-holc_grade="A"/>
</g>
<g id="B">
<path d="M 863 2155.4 813.9 2137.3 763.5 2119.5 702.9 2101.4 652.2 2085.3 600.8 2061 556.3 2035.8 514.7 2010.9 473.7 1990.6 482.9 1980.4 448.2 1943.3 484.9 1932 505.5 1956.1 524.8 1973 545.1 1994.2 609.9 2031.3 648.6 2050 659.7 2054.5 704.2 2066.4 744.2 2075.7 880.4 2128 863 2155.4 Z" data-holc_grade="B"/>
<path d="M 843.6 2551.7 817 2538.9 862.6 2422.2 894.8 2343.1 945.9 2197.7 1004.2 2049.4 1029 2072.8 1023.4 2099.1 1029 2125.3 1048.2 2161.9 1052.2 2197.8 1064.9 2220.6 1084.9 2231 1106.5 2246.1 1132.2 2276.8 1137.7 2290.6 1127.9 2295.4 1125 2311 1114.5 2322.6 1102.4 2335.6 1087.6 2351.7 1072.3 2382.3 1051.6 2416.5 1033.3 2451.6 1011.4 2489.8 1008.1 2516.1 969.8 2560.2 960.3 2585.4 957.3 2607.4 950.5 2606.3 936.1 2590.2 871.5 2564.5 843.6 2551.7 Z" data-holc_grade="B"/>
<path d="M 1218.8 2049.8 1238.8 2057 1349.9 2092.6 1439.3 2125.4 1710.8 2223.4 1778.3 2246.3 1788 2249.9 1765.5 2296.7 1636.6 2247.7 1624.8 2271.5 1388 2189.3 1390 2179.6 1290.8 2144.7 1286.1 2153.5 1191.5 2121.3 1218.8 2049.8 Z" data-holc_grade="B"/>
<path d="M 1295.8 1593 1294.6 1596.4 1242.7 1738.1 1174.7 1717 1164.1 1711.1 1167.3 1700 1096.1 1680.7 1088.9 1693.8 1070.3 1688.7 1120.9 1546 1167.6 1558.5 1295.8 1593 Z" data-holc_grade="B"/>
<path d="M 1061.7 1185.3 1181.7 1242.4 1197.6 1215.5 1284.8 1279 1276 1287.9 1273.6 1306.6 1275.2 1340.4 1186.5 1336.2 1184.1 1363.9 1124.9 1361.1 1126.5 1385.9 1092.9 1384.6 1083.3 1533.4 1015.5 1510.7 1004.2 1506.7 1026.6 1276.2 1039.4 1174.7 1061.7 1185.3 Z" data-holc_grade="B"/>
<path d="M 1669.4 1468.3 1463.2 1503.5 1378.7 1621.6 1321.9 1602 1328.7 1577.8 1365.5 1458.4 1391.9 1377 1411.1 1363.9 1424.3 1352.1 1453.4 1298.2 1494.4 1253.1 1533.9 1209 1553.6 1186.4 1555.2 1180.5 1561.4 1157.5 1569.3 1120.9 1577.8 1082.7 1597.8 1031.2 1609.6 1014.8 1573.2 997 1556.2 1019.4 1473.7 975.3 1467 981.5 1375.1 938.7 1272 1093.3 1156.1 1040.8 1061.7 1185.3 1039.4 1174.7 942.4 1128.6 979.9 1068.6 1031.4 986.3 1072.3 1006.2 1099.4 962.5 1178.2 1004.9 1252.9 889.6 1348 737.2 1396.7 758.4 1399.7 754 1477 786.2 1580.3 622.4 1464.7 570.3 1424.3 628.6 1365.4 603 1359.8 611.8 1298.9 580 1192.5 728.4 1056.4 944.4 897.8 868 853.3 925.4 820.6 979.3 774.6 958.5 717.3 950.5 755.1 888.7 694.2 881.6 710 777.9 742.8 777.9 758.8 651.6 838.7 802.8 813.9 870.4 843.5 878.7 1009 649.6 1092.1 684.1 1159.3 582.6 1121.7 173.5 1204.8 214.2 1456.6 341.1 1507.8 372.2 1432.7 496.4 1604.5 575 1631.7 529.5 1655.7 540.5 1804.4 610.2 1751.6 688.2 1756.4 716.5 1939.4 803.4 1861.9 866.9 1809.2 959.4 1654.1 1200.3 1726.8 1236.2 1677.3 1323.8 1643.7 1307.9 1659.7 1409.4 1669.4 1468.3 Z M 1620.5 745.5 1566.9 829 1694 886.9 1741.2 810.3 1738.8 797.2 1620.5 745.5 Z" data-holc_grade="B"/>
<path d="M 953.5 1684.3 943.4 1712.6 916.8 1704.6 882 1789 869.2 1821.3 755.6 1787.6 714.2 1769.1 656.4 1751 592.4 1729 554.4 1712.4 528.7 1701.2 509 1692.7 486.8 1690.1 464 1680.3 450.7 1684.3 435.1 1636.5 443 1603.4 464.6 1562.7 475 1535 637.3 1613 666.9 1560.6 497.2 1482.4 488.6 1478.4 480.6 1463.9 460.6 1447.4 360.7 1394.2 348.7 1380.4 323.1 1368 288.8 1352.8 327.1 1313.5 441.4 1381.8 490.2 1412.9 544.6 1439.1 670.9 1504 706.8 1510.2 761.2 1552.3 834.7 1602.7 849.1 1642 843.5 1658.6 871.5 1669 906.7 1671 929.9 1677.9 953.5 1684.3 Z" data-holc_grade="B"/>
</g>
<g id="C">
<path d="M 1083.3 1533.4 1120.9 1546 1070.3 1688.7 1009.4 1845.1 960.3 1981.6 1055.4 2004.2 1135.4 2031 1242.7 1738.1 1294.6 1596.4 1295.8 1593 1321.9 1602 1378.7 1621.6 1364.9 1660.9 1311.2 1805.3 1241.1 1991.4 1218.8 2049.8 1191.5 2121.3 1286.1 2153.5 1290.8 2144.7 1390 2179.6 1388 2189.3 1624.8 2271.5 1636.6 2247.7 1765.5 2296.7 1788 2249.9 1823.3 2260.9 1800.3 2314.4 1758.9 2314.4 1710.8 2312.6 1676 2310 1657.6 2317.9 1626.9 2350.2 1599.8 2381.6 1570.1 2402.3 1539.4 2407.2 1508.2 2404.6 1480 2396.6 1447.3 2389.5 1422.7 2374.5 1399.7 2369.2 1379.3 2365.2 1343.4 2358.1 1307.1 2347.1 1301.5 2334.7 1281 2328.1 1246.8 2316.2 1154.2 2270.6 1127 2248.5 1113.7 2222.9 1105 2145.1 1106.6 2075.8 1068.9 2045.9 1044.2 2030 996.2 2018.3 959.4 1994.8 893.1 1977.6 876.3 1972.7 885.9 1956.8 900.8 1961.7 909.9 1939.6 885.9 1925.1 858.7 1914.7 837.9 1900.2 801.2 1872.6 733.2 1849.1 674.3 1827.9 622.1 1804.9 551 1775.3 499.3 1745.3 450.7 1684.3 464 1680.3 486.8 1690.1 509 1692.7 528.7 1701.2 554.4 1712.4 592.4 1729 656.4 1751 714.2 1769.1 755.6 1787.6 869.2 1821.3 882 1789 916.8 1704.6 943.4 1712.6 953.5 1684.3 1015.5 1510.7 1083.3 1533.4 Z" data-holc_grade="C"/>
</g>
<g id="D">
<path d="M 473.7 1990.6 514.7 2010.9 556.3 2035.8 600.8 2061 652.2 2085.3 702.9 2101.4 763.5 2119.5 813.9 2137.3 863 2155.4 857.1 2165.6 945.9 2197.7 894.8 2343.1 862.6 2422.2 817 2538.9 843.6 2551.7 803.2 2597.2 774 2634.8 686.1 2591.1 679.9 2599.5 663.5 2593.3 672.8 2582.7 642.1 2568.1 680.9 2491.2 540.2 2445.7 545.9 2431.1 518.6 2419.1 522.3 2410.3 459.4 2393.1 365.3 2479.2 252.7 2407.2 480.6 2054.9 484.5 2039.2 472.8 2035 473.7 1990.6 Z" data-holc_grade="D"/>
<path d="M 1823.3 2260.9 1788 2249.9 1778.3 2246.3 1710.8 2223.4 1439.3 2125.4 1349.9 2092.6 1238.8 2057 1218.8 2049.8 1241.1 1991.4 1311.2 1805.3 1364.9 1660.9 1378.7 1621.6 1463.2 1503.5 1669.4 1468.3 1678 1466.8 1770.4 1447.4 1915.3 1425.8 1931.6 1458.2 1924.1 1502.4 1911.6 1575.7 1895.3 1645.8 1860.4 1708.4 1837.9 1760.2 1821.6 1791.5 1854.1 1799 1891.6 1799 1941.5 1708.4 1999 1755.9 1955.3 1838.9 1930.3 1888.5 1909.1 1936 1871.6 1955.4 1915.3 1971.6 1944 1973.8 1916.6 2052.5 1896.6 2109.7 1850.4 2206.8 1823.3 2260.9 Z" data-holc_grade="D"/>
<path d="M 1242.7 1738.1 1135.4 2031 1055.4 2004.2 1071 1955.4 1137.2 1780.7 1148.4 1774.2 1174.7 1717 1242.7 1738.1 Z" data-holc_grade="D"/>
<path d="M 1056.4 944.4 1099.4 962.5 1072.3 1006.2 1031.4 986.3 979.9 1068.6 820.6 979.3 853.3 925.4 897.8 868 1056.4 944.4 Z" data-holc_grade="D"/>
<path d="M 857.1 1361.8 853.1 1351.4 857.1 1338.3 857.1 1330 871.5 1310.7 881.9 1299.7 893.9 1292.8 912.3 1286.6 948.2 1275.5 941 1368 857.1 1361.8 Z" data-holc_grade="D"/>
<path d="M 475 1535 497.2 1482.4 666.9 1560.6 637.3 1613 475 1535 Z" data-holc_grade="D"/>
<path d="M 310.4 1421.8 383.9 1459.8 345.5 1513 318.3 1497.1 294.4 1486 278.4 1482.6 275.2 1470.8 281.6 1451.5 310.4 1421.8 Z" data-holc_grade="D"/>
</g>
</svg>