<?xml version="1.0"?>
<svg xmlns="http://www.w3.org/2000/svg" version="1.2" baseProfile="tiny" width="2000" height="1842" viewBox="0 0 2000 1842" stroke-linecap="round" stroke-linejoin="round">
<g id="A">
<path d="M 1183.4 488.5 1184.6 509.3 1183.8 556.5 1184.1 639.5 1169 628.8 1121.2 597.4 1071.3 564.2 1060.3 576.6 1062 598.7 1057.2 598.9 1042 599.4 1041.8 596.4 1041.2 586.6 1039.1 546.6 1029.8 544.7 1013.5 543.6 1010.1 540.6 1003.5 534 987.2 524.6 1020.3 523.1 1018.8 501.9 1042.2 499.6 1085.9 495.3 1126.1 496.9 1123.4 478 1140.7 478.1 1154.4 478.2 1160.3 479.5 1169.8 486.7 1175.6 488.9 1183.4 488.5 Z M 1178.5 405.4 1179.8 426.6 1128.2 430.6 1081.1 433.2 1084.4 461.4 1078.7 463.8 1070.7 468.9 1062.9 477.9 1053 477 1048.5 469.8 1041.6 457.3 1041.3 438.9 1038 432.2 1057.8 431.1 1076 428.7 1072.4 411.6 1066.8 384.7 1033.2 385.6 1028.1 383.3 1030.8 376.1 1041.9 370.8 1038 365 1039.2 360.6 1035.9 301.7 1046.4 297.6 1058.7 296.2 1074.2 292.9 1076.3 289 1118.7 286.8 1119.9 321.1 1127.9 333.5 1139.4 346.4 1134.8 351.8 1136.5 363.8 1146.3 385.1 1144.6 400.3 1146.9 404.7 1152.1 402 1162.4 402 1178.5 405.4 Z" data-holc_grade="A"/>
<path d="M 1357.7 610.6 1354.3 640.4 1378.4 640.9 1393.2 645.7 1383.3 659.1 1319.3 659.4 1311.9 655.4 1313.2 652.3 1311.9 645.9 1305 639.7 1295 635.5 1271.2 636.1 1270.1 610.6 1241.5 610.9 1241.5 633.6 1223.2 634.2 1223.9 616.5 1215.3 615.8 1221.4 578.7 1224.4 577 1232.5 584.9 1281.8 584.4 1282.5 611.2 1357.7 610.6 Z" data-holc_grade="A"/>
<path d="M 1301.4 225.3 1302.7 243 1286.6 242.6 1264 239.9 1197.2 228.6 1190.8 251.6 1166.3 251.1 1159.5 274.8 1154.9 287.3 1118.7 286.8 1076.3 289 1073.2 277.1 1092.2 268.6 1117.8 267.8 1109.2 247.6 1147.8 248.6 1150.7 245.3 1152.4 222.1 1197.9 226 1210.1 170.1 1283.6 163.4 1285.2 176 1291.1 195.2 1301.3 211.3 1301.4 225.3 Z" data-holc_grade="A"/>
<path d="M 366.2 279.8 362.4 276.4 357.3 262.2 354.2 245 348.3 235.4 340.3 228.9 322.8 217.8 331.7 210.9 342.8 211.7 355.4 210.9 367.6 209 376.4 210.5 380.5 212.7 389.2 223.3 406.2 246.4 412.8 263.2 411.5 268.3 404.9 269.3 389.6 269.6 376.1 273.6 366.2 279.8 Z" data-holc_grade="A"/>
<path d="M 508.3 918.5 458.9 923.4 461.3 930.9 468.9 933.6 471.5 936.9 482.5 956.7 481.4 964.8 465 982.7 450.9 993 427.9 984.6 417.3 985.4 407.3 984.4 401.9 986.4 394.8 993.3 362 974.3 402.6 928.1 409.5 921.9 432.9 894 447.8 879.9 446.1 874.1 445.5 868.5 453.3 863.2 462.6 861.7 487.1 867.2 499.2 872.2 502.4 878.8 507 881.3 508.3 918.5 Z" data-holc_grade="A"/>
<path d="M 1357.7 610.6 1282.5 611.2 1281.8 584.4 1232.5 584.9 1224.4 577 1237.7 574.9 1239 565 1246.9 562.9 1260.3 547.1 1270 542.2 1273.7 489.8 1281.6 424.8 1294.4 426.2 1334.7 422.4 1349.6 413.2 1364.8 412.5 1386.5 412.3 1405.4 409 1388 466.3 1381 475.2 1378.5 483.7 1359 556.3 1329.8 553.2 1329.2 591.4 1357.8 593.6 1357.7 610.6 Z" data-holc_grade="A"/>
</g>
<g id="B">
<path d="M 1072.4 411.6 1076 428.7 1057.8 431.1 1038 432.2 1024 434.1 1027.4 442.8 1028.7 459 1031.6 471.3 1041.5 492.4 1042.2 499.6 1018.8 501.9 983.5 505.4 966.7 506.3 961.9 503.5 961.3 497.8 957.9 490.1 948.7 483.5 946.9 478.8 950.7 474.7 956.3 475.2 959.9 471 957 464.9 957 457.6 962.8 446.1 951.6 446 948.4 442.8 940.1 431.7 931.6 430.7 921 433.8 914 433.6 893.8 368.9 905.5 365.3 917.2 363.7 920.1 366.7 919 370 914.5 371.4 917.4 374.3 915.2 376.8 916.7 379.4 922.1 378.9 925.3 381.8 923.5 384.8 930.9 395.7 937.2 394.3 943.7 395.2 964.2 398.1 981 403.2 1019.9 401.5 1022.2 415 1027.6 416.2 1042.2 416.1 1059.3 412.2 1072.4 411.6 Z" data-holc_grade="B"/>
<path d="M 1642.2 192.6 1711.5 219 1721.4 200.3 1758.5 231.2 1751.4 242.8 1794.2 273.1 1762.8 302.9 1755 317.2 1739.3 342.6 1808.5 371.8 1832.8 377.9 1899.1 323.3 1999 392.2 1966.9 422 1945.5 430.9 1930.5 444.1 1919.8 444.7 1895.5 448.5 1897 491 1889.8 498.2 1857.7 509.8 1855.6 516.9 1844.2 520.3 1832.8 521.4 1832.8 561.6 1795.6 568.8 1760.7 569.4 1762.8 596.6 1752.7 605.1 1743.7 627.7 1743.2 649 1684 657.5 1659.6 654.7 1642.4 661.7 1636 657.3 1623.3 654.1 1612.8 658.1 1603.4 657.9 1588.7 653.8 1578 663.2 1555.9 648.8 1544.5 642.8 1535.9 633.4 1514.5 614.6 1503.8 600.8 1489.6 592.5 1484.6 577.1 1453.9 552.3 1453.2 545.6 1444.6 541.2 1433.9 524.1 1424.6 516.9 1423.9 507 1429.6 498.7 1428.2 485.5 1423.2 473.4 1425.3 465.6 1438.2 462.3 1443.9 467.3 1438.9 472.2 1448.2 480 1458.2 480.5 1465.3 471.7 1479.6 471.1 1483.8 461.2 1491 449.1 1504.5 445.2 1508.8 435.3 1511.7 422.6 1504.5 419.3 1488.1 420.4 1488.1 400 1481.7 391.1 1484.6 377.4 1509.5 377.4 1508.8 353.6 1518.1 351.4 1527.4 339.8 1528.1 323.8 1530.9 303.4 1550.9 307.3 1567.3 320.5 1576.6 319.4 1590.9 319.4 1601.6 322.7 1605.1 303.4 1605.9 290.7 1598 285.2 1586.6 274.8 1589.4 262.6 1596.6 265.9 1607.3 264.8 1614.4 260.4 1617.3 248.8 1615.1 238.3 1642.2 192.6 Z" data-holc_grade="B"/>
<path d="M 1311.9 655.4 1319.3 659.4 1383.3 659.1 1363.5 677.6 1348.6 686.7 1321.1 713.2 1278.8 689.1 1311.9 655.4 Z M 1431.6 605 1518.6 657.8 1523.9 653.9 1536.3 660.6 1550.5 660.2 1561.7 663.9 1579 676.7 1562.2 692.9 1551.4 694.1 1555.5 718.3 1538 725.1 1500.1 727.9 1490.3 725.5 1490.5 742.9 1416 743.5 1419.6 739.6 1471.4 694.5 1449.6 681.2 1456.7 674.5 1403.1 642.4 1389.6 628.5 1398.5 624.2 1406.6 619.8 1415.5 611.1 1422.5 609.4 1431.6 605 Z" data-holc_grade="B"/>
<path d="M 1893.1 1227.6 1862.1 1155.5 1876.3 1154.7 1893.2 1154.9 1902.3 1157.1 1917 1164.9 1922.1 1172 1959.7 1251 1904.9 1252.4 1893.1 1227.6 Z" data-holc_grade="B"/>
<path d="M 402.6 928.1 362 974.3 394.8 993.3 411.6 1000.1 414.3 1005.1 412.9 1011.1 415.7 1015.7 415.7 1020.6 400.6 1030.6 376.3 1040.1 394.6 1060 391.9 1065.6 367.2 1085.8 343.8 1081.9 336 1082.6 326.9 1090.1 315.4 1094 305.8 1092.9 293 1094.7 282 1100.4 277 1108.5 262.8 1123 254.6 1123 255.5 1119.1 249.5 1107.8 225.7 1114.2 227.1 1119.1 212.9 1122.7 201.5 1093.3 185.9 1096.1 212.9 1163.4 201.9 1173.7 197.4 1188.2 193.2 1190.4 166.7 1171.6 126.9 1210.9 120.9 1210.9 107.6 1207.7 98.5 1229.4 82 1225.1 67.8 1216.9 50.9 1120.9 2.8 1121.3 1 1081.9 12 1057.1 78.8 1026 108.6 1057.1 193.2 1041.5 249.5 1012.8 327.3 1013.2 331 1008.2 336 1002.2 318.6 985.6 303.1 968.9 318.2 954.4 324.1 945.5 334.2 938.5 350.2 931.4 374.9 927.1 394.6 925 402.6 928.1 Z" data-holc_grade="B"/>
<path d="M 307.2 297.8 321.1 310.1 285 332.4 278 337.4 276.1 344.8 259.3 350.2 257 350.2 263 363.6 241.5 362.8 222.6 363.7 199.2 362.5 183.4 364.6 168.7 366.8 165.9 360.5 160.3 355.9 147 356.5 146.9 351.2 148.6 343.1 153.3 337.1 155.3 331.9 156.7 322 165.1 313.1 182.8 303.7 199.8 305.1 220.1 304.9 234.6 292.6 243.2 280.6 260.3 270.1 278.9 262.2 289.5 273.5 307.2 297.8 Z" data-holc_grade="B"/>
<path d="M 1167.6 654.1 1138.3 656.2 1139.8 682.2 1105.8 684 1103.3 681.5 1103.4 674.9 1106.9 674.3 1110.5 676.2 1116.6 676.8 1123.2 674.8 1126.5 671.1 1121.2 597.4 1169 628.8 1167.6 654.1 Z" data-holc_grade="B"/>
<path d="M 1315 98.4 1298.6 114.8 1292.2 116.6 1281.7 114.3 1272.8 115.9 1268.5 120.2 1269.7 135.1 1266.2 139.1 1246.3 132.5 1215.7 158.4 1238.8 75.6 1245.3 68.8 1272.5 67.1 1292.2 70 1304.2 74.2 1314.4 91.4 1315 98.4 Z M 1325.7 35.3 1353.7 46.4 1344.7 54.4 1327.3 48.6 1314.3 47.3 1291.5 47.1 1276.7 45.8 1257.1 47.1 1250.6 41.2 1257.9 35.5 1267.2 33.5 1304.2 32.2 1325.7 35.3 Z M 1229.6 33.1 1222.9 76.2 1179.5 82.2 1151 80.9 1145.8 76.4 1152.1 70.2 1156.8 62.2 1157.9 54.7 1160 52 1171.3 52.3 1172.9 40.3 1148.5 32.5 1135.1 26.4 1155.3 1 1192.8 18.2 1229.6 33.1 Z" data-holc_grade="B"/>
<path d="M 508.3 918.5 507 881.3 520.5 869.1 563.8 871 589.3 871.3 592.4 878.5 593 884.1 614.4 883.8 616.3 891.8 620.7 894.1 631.4 891.8 645.4 882.6 654.2 880.5 668.2 881.5 680.4 887.8 681.1 931.1 646.1 956.8 616.1 937.5 611.9 939.2 572.6 915.6 508.3 918.5 Z" data-holc_grade="B"/>
<path d="M 982 30.7 982.8 48.3 974.5 54.7 970.5 68.8 954 79.8 951.3 83 936.8 87.5 916.4 90.1 903.2 90.4 908.3 97.7 907.9 100 893.5 99.7 881.5 102.1 878.3 93 866.4 73 865.3 67.6 859.9 68.3 852 67.4 834.3 58.6 822.6 54 817.7 46.7 826.1 43.7 847.8 42.1 851.3 39.7 851.6 36 846.5 23.1 846.6 19.7 849.1 14.2 853.2 12.6 879.2 20.7 894.5 20.2 901.2 27.1 929 25.6 941.2 27.1 951.9 30.5 982 30.7 Z" data-holc_grade="B"/>
<path d="M 697.5 403.7 689.3 374.2 692.2 362.5 687.3 354.8 676.9 347.1 691.2 338.9 698.2 335.5 703.4 329.5 711.5 324.2 718.3 323.8 726.9 322.2 753.5 325.1 764.9 324.5 787.4 325.6 818.6 323.3 833.6 320.7 848.6 316.6 853.4 321.8 853.4 326.5 808.7 346.9 812.6 352.2 818.6 353.2 820.3 356.1 817.3 359.8 821.2 364.7 824.6 364.5 837.5 360.1 843.1 360 843.5 365.7 830.7 377 816.3 382.4 803.1 391.1 803.6 394.9 748.6 414 733.2 397.2 697.5 403.7 Z" data-holc_grade="B"/>
<path d="M 734.2 251 696.9 253.9 644.9 257.8 644.7 257.8 658.4 226.5 685.3 216.6 730.5 214.9 734.2 251 Z" data-holc_grade="B"/>
<path d="M 225.7 408.8 251.8 434.8 208.2 465 222.8 479.8 219 482.9 209.4 483.3 202.4 487.5 188 487 181.3 497.8 118 475.4 134.4 450.9 132.6 442.7 142.5 436.9 158.4 433.1 225.7 408.8 Z" data-holc_grade="B"/>
<path d="M 334.9 729.7 363.8 745.5 355.5 752.2 402.8 779.3 388.2 804.5 419.2 823.9 417.1 827.1 364.2 828.6 358.7 820.6 341.4 821 329 816.1 318.3 823.9 304.4 822.2 286 820.7 265.6 815.7 251.1 812.7 232 809.7 223.3 807.5 231 788.6 236.3 779.3 245.7 771.2 261.8 765.2 273.5 764.4 291.3 764.8 300.5 763.5 321.2 740.7 334.9 729.7 Z" data-holc_grade="B"/>
<path d="M 820.9 1672.8 813 1686 771.8 1679.4 743 1674.6 721.6 1670.5 726.6 1651.2 729.1 1636.7 730.2 1620.6 750.5 1622.4 777 1624.2 812.2 1625.9 840.2 1626.3 841.2 1635 834.3 1651.2 820.9 1672.8 Z" data-holc_grade="B"/>
<path d="M 676.9 347.1 687.3 354.8 692.2 362.5 689.3 374.2 697.5 403.7 660.6 415.1 633.1 425.9 665.1 458.5 641.8 475.6 618.8 489.6 610.6 499.1 586.4 522.3 492.5 472.5 421.6 434.7 449.8 410 476.9 383.7 447.4 357.1 416.2 333 369.5 292.7 385.9 281.3 411.7 302.5 457.2 336.1 474.9 339.9 494.1 340.9 510.5 338.7 522.4 335.5 529.8 335.5 535.1 338.7 542.5 343.7 556.1 338 567.1 336.1 577.8 333.9 575.3 304.8 643.4 298.4 648.3 310.8 663.5 326.9 673.3 344.4 676.9 347.1 Z" data-holc_grade="B"/>
<path d="M 711.3 714.2 699.8 713.9 693.4 715.7 690.1 719.4 685.3 718.5 681 714.8 676.7 716.2 676.2 722.5 658.9 724.3 641.9 724.9 622.7 724.5 608.2 726 589.2 731.1 579.3 737.8 572.7 738.2 566.2 741.3 559.1 741.3 548.5 748.3 531.9 745.9 525.7 743.2 524.8 737.1 528.8 726.2 529.2 720.1 523.1 717.3 513.4 725.5 503.3 730.9 494.9 727.9 487 716.3 473 711.9 474.3 706.8 492.3 687.7 480 685.7 471.2 679.6 495.8 634 475.2 633.3 453.6 675.5 389 659.9 375.3 685.4 347.2 696.9 337.5 697.3 326.5 688.4 327 683 322.1 676.9 316.9 678.2 270.3 718.7 250.9 729.2 235.1 731.3 163.4 711.6 182.8 694.9 196.4 683.3 209.6 679.9 221 672.1 246.5 688.1 253.6 678.2 271.1 665 276 666.3 282.1 665 290 656.1 304.6 651.4 316 651.7 330.5 657.5 338.9 644.9 307.6 613.9 274.7 617.7 284.3 565.7 326.5 594.6 335.3 590.1 336.2 598.3 350.7 611.2 359.5 603.7 384.1 574.5 398.6 565 408.8 548.3 418.9 538.4 430.7 535.7 456.7 553.1 505 509.5 547.7 513.3 628.6 545.9 666.4 570.8 713.9 623.5 713.5 628.6 740.3 635 744.7 657.1 742.5 665.3 731.9 684.7 691.9 671.8 678.7 697.3 706 704.8 711.3 714.2 Z" data-holc_grade="B"/>
<path d="M 779.9 778.7 779.7 783.9 656.1 787.8 624.3 789.4 623.8 785.4 617.3 778.9 611.8 780 605.7 778.2 589.7 768.9 579.2 765.3 571.8 763.7 570.9 760 565.5 755 557.3 756.3 552.3 755 548.5 748.3 559.1 741.3 566.2 741.3 572.7 738.2 579.3 737.8 589.2 731.1 608.2 726 622.7 724.5 641.9 724.9 658.9 724.3 676.2 722.5 676.7 716.2 681 714.8 685.3 718.5 690.1 719.4 693.4 715.7 699.8 713.9 711.3 714.2 717.2 729.1 721.5 744.9 749.8 744.5 751.8 770.5 780.5 769.4 779.9 778.7 Z" data-holc_grade="B"/>
<path d="M 901.9 730.2 878.8 746.6 870.7 751.1 873 768.7 830.4 770 829.8 777.2 805.2 777.9 805.6 771 812.5 763.8 822.2 763.8 831.3 760.3 843 759.8 851.7 758.8 848.6 730.9 833.7 715.5 823.6 711.5 801.8 719.5 789.9 727.8 772.1 718.4 778.8 709.4 784.3 697 788.7 693.9 800.6 692.5 807.5 690.5 789.7 666.8 804.2 659 846.8 715.1 857.5 700.6 870.9 704.3 878.7 708.3 892 720.4 901.9 730.2 Z" data-holc_grade="B"/>
<path d="M 938.9 512.2 945.2 532.2 966.4 559.5 928.8 575.8 913.5 565.6 912.8 557.5 900.7 543.3 898.8 535.8 901.4 528.7 912.8 508.5 938.9 512.2 Z" data-holc_grade="B"/>
<path d="M 1183.4 488.5 1175.6 488.9 1169.8 486.7 1160.3 479.5 1154.4 478.2 1140.7 478.1 1139.3 446.1 1180.7 443 1183.4 488.5 Z M 1281.6 424.8 1273.7 489.8 1270 542.2 1260.3 547.1 1246.9 562.9 1239 565 1237.7 574.9 1224.4 577 1221.4 578.7 1215.3 615.8 1223.9 616.5 1223.2 634.2 1241.5 633.6 1240 644.5 1269.7 656.4 1264 663.8 1216.5 646.6 1199.9 638.8 1207.7 588.2 1202.5 502.2 1196.4 496.8 1200.3 398.3 1188.1 398.3 1187.2 403 1178.5 405.4 1162.4 402 1152.1 402 1146.9 404.7 1144.6 400.3 1146.3 385.1 1136.5 363.8 1134.8 351.8 1139.4 346.4 1127.9 333.5 1119.9 321.1 1118.7 286.8 1154.9 287.3 1159.5 274.8 1190 281.5 1188.9 290 1235.5 276.6 1253.9 298.9 1257.9 317.5 1225.7 352.2 1212.5 354 1215.4 394.9 1240.7 395.8 1233.8 417.6 1281.6 424.8 Z" data-holc_grade="B"/>
<path d="M 1190.8 251.6 1197.2 228.6 1264 239.9 1286.6 242.6 1302.7 243 1305.6 280.8 1247.5 273 1186.7 264.1 1190.8 251.6 Z" data-holc_grade="B"/>
</g>
<g id="C">
<path d="M 1490.7 898.6 1497 971.5 1482.9 972.8 1481.2 943.2 1459.1 944.1 1457.3 925.2 1389.8 927.3 1382.5 832.2 1447 831.5 1448.1 845.9 1486.7 843.9 1490.4 895.6 1490.7 898.6 Z" data-holc_grade="C"/>
<path d="M 1305.6 280.8 1302.7 243 1301.4 225.3 1309.5 225.8 1322.9 216.3 1331.5 214.2 1338.1 215.8 1348.6 226.2 1367.8 233.5 1380.7 245 1387.6 256.5 1394.2 273.5 1372.1 273.8 1368 274.5 1345.9 273.1 1346.1 277.8 1324.8 276.5 1320.6 281 1305.6 280.8 Z" data-holc_grade="C"/>
<path d="M 977.5 1145.5 989.8 1144.1 1001.6 1144.4 1012.4 1146.8 1015.7 1155.7 1015.5 1160.7 1003.2 1179.7 992.3 1175.9 984.4 1176.1 981.1 1181.8 975.3 1182.6 941.1 1174.2 933.1 1174 922.4 1178.7 911.9 1187.8 894.7 1185.2 879.2 1175.4 903.4 1155.1 890.2 1143.4 886.6 1144.8 882.8 1154.5 868.3 1167.2 858.2 1171.9 818.5 1186.4 785.9 1158.6 793.2 1152.7 797.9 1146.8 791.5 1143 783 1134 751.9 1161 735.8 1150.1 782.1 1110.2 794.8 1118.8 816.5 1102.6 840.4 1089.4 854 1096.5 872.1 1094.4 878.6 1098.2 887.7 1099.1 902 1104.8 918.6 1105.5 927.3 1105.9 932.4 1111 931.5 1115 925.3 1124.4 932 1132 977.5 1145.5 Z" data-holc_grade="C"/>
<path d="M 1377.9 1467.4 1382.7 1535.8 1364.6 1536.6 1362.3 1502.9 1356.5 1503.5 1352.5 1501.3 1346.2 1501.9 1340.2 1503.1 1338.4 1500.1 1334.6 1459.6 1335.6 1447.9 1338.9 1444.6 1343.7 1444.2 1341.7 1404.1 1373.6 1414.8 1374.9 1452.4 1377.9 1467.4 Z M 1257.4 1358.3 1235.3 1406 1254.1 1434.9 1190 1469.4 1160.1 1462.5 1159.3 1482.8 1155 1511.6 1137.9 1507.9 1140.7 1485.5 1143.2 1444.4 1135.4 1444.4 1139.7 1408.2 1112.5 1394.3 1127.4 1373.9 1142.7 1380.9 1156.8 1385.4 1167.4 1392 1174.1 1394 1192.8 1346.8 1202.6 1346.2 1211.4 1343.9 1257.4 1358.3 Z" data-holc_grade="C"/>
<path d="M 909.7 599.1 833.6 621.5 823.8 605 839.2 600.4 895.7 583.6 909.7 599.1 Z M 983.5 505.4 987.2 524.6 1001.4 563.1 1001.4 577.2 1013.8 576.5 1013.8 587.1 1041.2 586.6 1041.8 596.4 1042 599.4 1057.2 598.9 1053.7 611.9 1058.9 640.9 1056.6 644.2 1044.2 645.2 1043.6 681.1 1040.9 684.2 1028.8 677.1 1020 674.6 1015.4 666.7 1008.3 659.9 998.4 657.4 991.3 651.3 966.4 641.9 944.2 639.4 939 631.8 926.2 577 928.8 575.8 966.4 559.5 945.2 532.2 938.9 512.2 924.9 467 941.2 463.5 948.1 465.2 950.7 474.7 946.9 478.8 948.7 483.5 957.9 490.1 961.3 497.8 961.9 503.5 966.7 506.3 983.5 505.4 Z" data-holc_grade="C"/>
<path d="M 648.3 1131.7 622 1153.1 608.1 1142.2 635.2 1117.9 625.7 1112.7 618.6 1105.5 630.3 1093.2 645.3 1088.2 649.6 1089 661.5 1118.4 648.3 1131.7 Z M 681.1 931.1 682.8 968.4 702.8 953.6 717 977 716.2 1019.5 728.9 1023.3 736.1 1023 746.1 1025.1 768.7 1022.7 764.5 1033.1 762.6 1045 679 1045.9 674.8 1042 688.6 1017.4 677.1 1014.4 668.6 1014.7 656 1011.7 649.1 1012.3 642.9 1010.6 615.3 1009.4 607.3 1011.7 605.4 1030.7 601.9 1036.7 592.3 1039.4 583.9 1040.5 576.6 1037 555.1 1030.4 538.6 1031.9 538.2 1038.8 518.7 1059.5 516.8 1065.2 517.9 1073.2 524.8 1086 535.5 1122.8 602.3 1102.3 603.1 1105.6 569.7 1151.3 562.4 1153.4 560.1 1162.3 554.7 1167.3 547.8 1169.4 539.8 1169.4 530.6 1173.3 524.4 1179.8 506.4 1165.2 490.7 1156 483 1151.6 483.8 1145.7 488.8 1142.4 502.2 1135.9 511.8 1132 502.6 1131.7 499.1 1126.9 488.4 1093.1 491.4 1086.9 500.3 1083 506.8 1079.4 503.3 1067.6 499.5 1061.9 491.8 1059.2 470.7 1059.8 449.3 1059.2 445.8 1055.4 446.6 1043.2 454.6 1033.4 459.6 1023.9 463.1 1011.4 482.2 1011.1 489.5 1009.7 489.9 990.7 493.7 981.2 507.9 972.9 517.5 965.1 532.5 960.4 542.5 954.1 552 960.1 595 981.2 609.2 987.7 646.1 956.8 681.1 931.1 Z" data-holc_grade="C"/>
<path d="M 254.9 886.8 287.9 914.4 262.1 934.2 251.4 928.7 243.6 926.7 228.7 922.2 216.9 916.2 205.1 906.2 197 896 187.8 881 169.7 869.9 153.9 863.4 139.8 856.8 126.6 854.3 114.8 851.9 107 848.3 99.5 843 86.6 830.3 71.9 824.1 57.8 820.3 107 774.4 115.6 777.8 122.5 779.1 134 776 155.9 786.7 236.2 815.8 262.1 819.2 273.3 822.3 310.7 845.2 287.7 864.6 254.9 886.8 Z" data-holc_grade="C"/>
<path d="M 207.6 957.2 209.8 975.2 215 994 188.2 1032.6 179.6 1036.6 168.4 1037.9 153.4 1036.5 143.6 1033.4 140.8 1024.9 144.6 1009.4 148.9 990.5 150.3 984.3 153.9 979.6 169.1 969.8 186.7 961.9 207.6 957.2 Z" data-holc_grade="C"/>
<path d="M 510.3 1179.6 535.9 1198 508.9 1255.5 512.8 1262.1 514.9 1317.5 488.9 1318 488.2 1310.9 483.3 1305.2 437.9 1308 394 1296.8 450.1 1236.6 510.3 1179.6 Z" data-holc_grade="C"/>
<path d="M 663.5 1370.7 657.5 1373.4 648 1380.9 632.6 1409 618.5 1415.2 601.4 1418.1 573.1 1385.9 550.9 1405.4 531.8 1391.8 536.8 1380 537.3 1372.5 534.3 1356.4 536.8 1321.6 546.1 1321.2 554.1 1324.1 565.7 1329.6 583.2 1328.7 597.5 1326.6 622 1330.4 628.2 1337.9 633.3 1339.5 646 1337.3 657.5 1333.7 663.5 1370.7 Z" data-holc_grade="C"/>
<path d="M 824.5 1306.4 822.9 1320 825.7 1333.9 773.3 1334.8 739.4 1335.9 734.1 1332.7 738.7 1315 744.9 1289.8 742.6 1277.5 748.4 1254.4 763.6 1239.8 771 1237.5 776.7 1234.8 783.4 1238 786.2 1253.2 798 1282.1 812.3 1301.1 818.7 1305.2 824.5 1306.4 Z" data-holc_grade="C"/>
<path d="M 1626.9 949.3 1628.2 965.2 1680.2 963.7 1683.8 995.2 1635.5 998 1634.4 985.7 1602.5 986.9 1599.8 951.1 1626.9 949.3 Z M 1862.1 1155.5 1893.1 1227.6 1828.7 1213 1793.9 1174.8 1809.9 1174.4 1808 1146.1 1819.3 1149.7 1828.7 1145.7 1838.1 1146.4 1840.9 1145 1813.2 1089.3 1769.9 1089.6 1767.6 1083.4 1768.1 1072.2 1788.7 1071.8 1787.8 1050.3 1803.3 1044.5 1783.1 1007 1749.3 1009.2 1743.1 961.5 1693.8 962.6 1692.8 951 1701.3 950.6 1701.3 945.2 1707.4 945.2 1707.4 937.5 1776.5 938.6 1780.7 984.5 1841.9 983 1832.5 960.1 1859.7 949.2 1873.8 972.5 1898.8 970.6 1899.7 999 1873.8 1001.9 1873.8 1005.2 1822.6 1016.8 1854.6 1045.6 1894.5 1082.7 1920.9 1082 1920.9 1099.1 1862.1 1100.6 1844.2 1100.6 1854.1 1119.1 1852.7 1142.4 1862.1 1155.5 Z" data-holc_grade="C"/>
<path d="M 854.3 1294.4 872.3 1289.8 884.7 1284.6 891.9 1284.8 895.8 1290 896.2 1298.2 902.5 1300.2 916.3 1300.7 936.6 1297.8 954.6 1296.2 965 1295.3 978.6 1300 1018.5 1328.7 1022 1340 1007.2 1377.7 992.7 1407 987.8 1424.7 938.5 1412.5 931.5 1412 927.2 1409.3 927.2 1355.9 919.8 1352.3 911.7 1346.8 911.9 1342.1 910.8 1332.9 904.3 1327.3 891.4 1325.3 871.3 1314.6 880.6 1309.4 861.4 1299.8 854.3 1294.4 Z" data-holc_grade="C"/>
<path d="M 969.9 1483.5 980.2 1515.9 992.6 1551.1 944.7 1564.2 928.4 1570.8 919.8 1570.7 829.8 1546.6 852.7 1497 867 1500.2 885.5 1498.9 904.6 1501.6 912.9 1497.9 926.8 1497 931.8 1494 935.5 1472.6 949.9 1480.7 962.7 1482.1 969.9 1483.5 Z" data-holc_grade="C"/>
<path d="M 820.9 1672.8 836.9 1695.2 932.5 1684 931.5 1722 933 1737.7 1004.5 1741.4 1042.5 1784.1 982.4 1841.1 912.3 1825.2 883.9 1816.5 875.8 1817.1 838.8 1775.3 824.3 1699.4 813 1686 820.9 1672.8 Z M 834.3 1651.2 841.2 1635 840.2 1626.3 839.3 1614.9 840.7 1608.3 847.1 1604.1 858.1 1604.5 866.1 1606.4 871.8 1609.2 924.4 1608.6 931 1645.8 834.3 1651.2 Z" data-holc_grade="C"/>
<path d="M 1382.5 832.2 1380.7 808.4 1307.3 810.9 1306 765.3 1231.4 769.2 1191 770.9 1191 762.4 1191 717.2 1193.4 717.1 1249.1 715.4 1261.2 718.1 1277.8 721.9 1298.6 726.6 1319.3 732.4 1332.5 737.3 1332.8 746.4 1411 745.5 1411.6 784.4 1487.3 784 1487.5 822.5 1447 824.1 1447 831.5 1382.5 832.2 Z" data-holc_grade="C"/>
<path d="M 1193 703.5 1193.4 717.1 1191 717.2 1191 762.4 1109.8 763.9 1107.1 710.3 1105.8 684 1139.8 682.2 1138.3 656.2 1167.6 654.1 1177.3 652.4 1191.4 653.4 1193 703.5 Z" data-holc_grade="C"/>
<path d="M 1086.8 774.8 1086.1 779.5 1090.8 785 1097.4 789.1 1052.2 826.8 991.8 778.4 968.2 779.3 940.3 750.6 910.6 771.2 878.8 746.6 901.9 730.2 909 737.3 915.1 733.6 919.9 738.9 928.7 746.7 958.9 727.7 979.6 723 994.8 723.6 1024.1 723.7 1039.1 739.4 1060.9 765.4 1065.9 775.2 1086.8 774.8 Z" data-holc_grade="C"/>
<path d="M 910.6 771.2 908 780.6 893.2 781.6 898.8 899.7 885.3 900.1 873 901.8 860.9 902.1 850.6 904.9 846.6 910.1 836.6 917 793.1 919.2 784.1 922.5 777.7 922.5 769.9 926.8 747.7 928.7 739.9 926.6 736.2 917.5 737.6 908.6 711.3 908.8 706.5 905.3 707.1 894.3 705.4 887.8 705.1 879.7 707.4 870.2 701.2 861.5 691.4 855.9 686.3 848.3 686.1 838.1 675.1 832.2 672.9 820.5 668.7 812.5 680.5 805.6 679.9 792.1 656.6 794.1 656.1 787.8 779.7 783.9 779.9 778.7 805.2 777.9 829.8 777.2 830.4 770 873 768.7 870.7 751.1 878.8 746.6 910.6 771.2 Z" data-holc_grade="C"/>
<path d="M 890.9 1020.3 877.9 1022.8 866.4 1027.8 797.8 1050.7 780.2 1019.1 787 1015.3 781.2 1003.5 782.4 991 786 983.3 786 973.5 777.6 965.4 767.7 964.4 761.8 961.2 817.4 933 836.8 924.1 836.6 917 846.6 910.1 850.6 904.9 860.9 902.1 873 901.8 885.3 900.1 898.8 899.7 901.5 956.5 887.3 956.5 890.9 1020.3 Z" data-holc_grade="C"/>
<path d="M 586.4 522.3 610.6 499.1 618.8 489.6 641.8 475.6 665.1 458.5 701.6 437.3 743.9 430.3 747.1 438.9 752.9 444.6 755.3 451.2 786.9 450.6 791.4 477.6 791 484.5 788.6 490.6 790.2 500.7 802.9 511.8 806.6 521.3 805.4 527.3 801.7 532.4 803.3 549.2 813.2 562.9 815.2 579.7 795.5 584.4 785.3 591.7 810.7 630.7 803.7 655.2 750.8 640.6 736.5 590.1 720.9 584.1 692.2 571.7 660.6 552.4 638.1 537.2 586.4 522.3 Z" data-holc_grade="C"/>
<path d="M 1241.5 633.6 1241.5 610.9 1270.1 610.6 1271.2 636.1 1295 635.5 1305 639.7 1311.9 645.9 1313.2 652.3 1311.9 655.4 1278.8 689.1 1248.8 678.6 1228.1 668.2 1227.4 659.8 1200.1 650.9 1184.1 639.5 1183.8 556.5 1184.6 509.3 1183.4 488.5 1180.7 443 1179.8 426.6 1178.5 405.4 1187.2 403 1188.1 398.3 1200.3 398.3 1196.4 496.8 1202.5 502.2 1207.7 588.2 1199.9 638.8 1216.5 646.6 1264 663.8 1269.7 656.4 1240 644.5 1241.5 633.6 Z" data-holc_grade="C"/>
</g>
<g id="D">
<path d="M 136.8 982 133.6 1012 100.8 1016.7 106.6 1000 86.3 999.3 59 997 30.3 993.6 32.2 959.1 61.7 956.8 92.9 953.9 111.9 951.5 136.8 982 Z" data-holc_grade="D"/>
<path d="M 1468.8 1337.1 1480.5 1362.6 1408.9 1379.2 1406.6 1372.2 1404 1350.2 1468.8 1337.1 Z" data-holc_grade="D"/>
<path d="M 1382.5 832.2 1389.8 927.3 1393.5 974.9 1394.2 984.3 1372.7 984.5 1371.7 979.1 1305.3 981.6 1302.5 971.9 1272.3 971.9 1246.1 977.5 1238.4 968.2 1233.4 965.3 1224.9 963.2 1216.1 934.6 1210.1 926.5 1201.6 921.7 1194.7 917.4 1187.4 908.5 1204.3 896.8 1221.4 884.9 1199.4 813.1 1232.4 812.5 1231.4 769.2 1306 765.3 1307.3 810.9 1380.7 808.4 1382.5 832.2 Z" data-holc_grade="D"/>
<path d="M 1724 1010.9 1724.6 1046.1 1730.4 1045.3 1739.2 1043 1762.5 1043.3 1764.3 1089 1719.6 1088.6 1719.5 1056.5 1703.3 1056.4 1703.3 1028.8 1635.3 1031.3 1635.2 1016.4 1724 1010.9 Z M 1394.2 984.3 1393.5 974.9 1460.4 972.5 1482.9 972.8 1497 971.5 1490.7 898.6 1530.2 889.5 1532.1 928.9 1566.4 928 1571.7 1003.6 1549.4 1004.3 1551 1020.7 1537.4 1021 1536.6 1027.6 1453.6 1029.1 1453.6 1020.6 1443.7 1020.6 1442.6 1005.9 1420.5 1006.4 1422.9 989.6 1394.6 990.9 1394.2 984.3 Z" data-holc_grade="D"/>
<path d="M 1199.4 813.1 1191.1 813.5 1179.2 811.5 1164.3 807.6 1151.2 801.3 1133.6 790.9 1120.6 780.6 1192.1 778.2 1199.4 813.1 Z M 1097.4 789.1 1101.8 795 1100.9 800 1105.4 807.8 1093.7 818.1 1104.2 827.5 1106.2 887.8 1094.9 888.2 1095.3 902.2 1047.2 904.7 1051.7 976.6 1024.6 977.7 962.4 980.1 962.8 997.6 890.9 1020.3 887.3 956.5 901.5 956.5 898.8 899.7 893.2 781.6 908 780.6 910.6 771.2 940.3 750.6 968.2 779.3 991.8 778.4 1052.2 826.8 1097.4 789.1 Z" data-holc_grade="D"/>
<path d="M 1024.6 977.7 1051.7 976.6 1154.7 972.1 1159.6 1012.9 1171.3 1020.1 1210.5 1020.3 1210.8 1055.4 1253 1077.6 1306.6 1095 1318 1073.7 1359 1088.3 1342.3 1119.8 1271.5 1095 1267.8 1095.9 1254.5 1092.3 1242.8 1106.4 1137.8 1109.8 1129.4 1065.4 1099.2 1058 1116.8 1013.4 1115.6 983.3 1099.2 983.1 1099.9 1012.2 1081.4 1053 1033.6 1041.1 1025.9 1033.4 991.4 1059.7 958.7 1034.4 970.1 1025.6 954.1 1012.2 974.8 996.7 990.5 991 1002.2 988.4 1008 985.3 1016.4 983.3 1024.6 977.7 Z" data-holc_grade="D"/>
<path d="M 1107.1 710.3 1074.2 726.5 1051.6 700.3 1063.2 689.7 1063.4 685.1 1066.3 681.1 1062.8 675.3 1085.8 664.3 1103.3 681.5 1105.8 684 1107.1 710.3 Z M 1228.1 668.2 1228.5 672.8 1222.7 687.9 1205.7 702.1 1193 703.5 1191.4 653.4 1177.3 652.4 1167.6 654.1 1169 628.8 1184.1 639.5 1200.1 650.9 1227.4 659.8 1228.1 668.2 Z" data-holc_grade="D"/>
<path d="M 1120.6 780.6 1133.6 790.9 1151.2 801.3 1164.3 807.6 1179.2 811.5 1191.1 813.5 1199.4 813.1 1221.4 884.9 1204.3 896.8 1095.3 902.2 1094.9 888.2 1106.2 887.8 1104.2 827.5 1093.7 818.1 1105.4 807.8 1100.9 800 1101.8 795 1097.4 789.1 1090.8 785 1086.1 779.5 1086.8 774.8 1113.9 773.1 1120.6 780.6 Z" data-holc_grade="D"/>
<path d="M 1224.9 963.2 1225.8 969.2 1154.7 972.1 1051.7 976.6 1047.2 904.7 1095.3 902.2 1204.3 896.8 1187.4 908.5 1194.7 917.4 1201.6 921.7 1210.1 926.5 1216.1 934.6 1224.9 963.2 Z" data-holc_grade="D"/>
</g>
</svg>