<?xml version="1.0"?>
<svg xmlns="http://www.w3.org/2000/svg" version="1.2" baseProfile="tiny" width="2000" height="1358" viewBox="0 0 2000 1358" stroke-linecap="round" stroke-linejoin="round">
<g id="holc_ad_data">
<path d="M 1407 925.6 1406 938.6 1368.2 967.2 1366.3 989.4 1423.9 990.1 1427.9 998.9 1435.8 1004.4 1440.5 997.8 1440.5 978.2 1441.1 968.5 1441.9 965.9 1486.5 932.4 1487.5 929.3 1488.3 906.2 1493.6 913.2 1500.7 916.4 1506 917.3 1507.7 926.4 1507 932.9 1502.1 938.5 1495.1 942.6 1494 951.4 1496.8 958.7 1500.7 963.4 1509.8 959.6 1517.9 959 1526.4 959.3 1533.1 961.6 1535.2 965.2 1535.9 968.1 1532 970.7 1527.1 973.7 1524.6 979.6 1529.2 985.1 1563.7 971.6 1565.8 965.2 1569.7 951.7 1633.4 917 1637.6 918.5 1640.4 922.3 1643.6 926.1 1611.9 960.8 1590.1 979.3 1586.2 984.8 1581.3 989.5 1558.8 1003.9 1541.5 1017.4 1531.1 1022.1 1527.6 1014.8 1521.6 1014.2 1513.1 1013.3 1507.2 1014.2 1499.4 1018.9 1493.1 1019.8 1487.1 1017.4 1485.3 1019.2 1477.6 1021 1472.7 1021.8 1468.1 1025.9 1466.7 1032.4 1446.6 1048.8 1424.8 1071.7 1417.4 1071.5 1410 1074.7 1403.3 1078.8 1401.9 1084.4 1399.1 1086.7 1391 1090.5 1382.5 1094.1 1376.6 1097.9 1373 1102.9 1374.1 1106.7 1374.1 1112.9 1373 1115.8 1371.3 1118.1 1363.5 1114.6 1356.1 1107.9 1353.3 1103.2 1357.5 1095.8 1359 1091.7 1355.4 1084.7 1347.7 1079.1 1337.8 1074.7 1324.5 1067.9 1321.3 1064.7 1313.9 1055 1310.7 1050 1301.6 1045 1291.7 1040.6 1284.7 1032.7 1286.4 1030.1 1287.1 1027.4 1286.1 1024.5 1291 1021.8 1292.8 1018.9 1293.8 1014.5 1296.6 1009.8 1300.9 1003.9 1316.7 993.4 1328.7 986.6 1334 981 1339.6 977.2 1347.7 974.9 1358.2 968.7 1368.8 961.9 1374.8 954 1374.1 951.7 1369.5 951.7 1364.9 948.1 1364.9 945.2 1367.8 942.3 1372.3 938.5 1378.3 927.3 1379.7 920.8 1380.8 918.8 1397 900.9 1403.6 894.1 1408.9 894.3 1407 925.6 Z" data-holc_grade="A"/>
<path d="M 1393 838.3 1376.3 847.7 1406.2 880.5 1402.2 882.3 1397.6 883.3 1387.1 879.9 1374.3 895.4 1364.6 898.8 1358 901.8 1354.5 905.5 1344.8 916.1 1342 920.3 1336.9 923.2 1329.6 924 1320.8 923.2 1315.3 925.6 1310.9 929.1 1299.5 931.1 1284.3 941.2 1277.3 941.6 1277.9 953.3 1246.5 952.4 1246.7 954.3 1226 954.1 1224.9 936.8 1131.9 978.5 1127.3 962.7 1127.1 958.7 1130.4 953.5 1140.4 946.4 1156.9 949.9 1193.2 930.2 1193.9 926.7 1199.6 923.2 1207.1 920.5 1214.6 919.8 1213 909.7 1215.9 904.9 1220.5 902.1 1225.8 900.5 1230.6 899.8 1235.9 901.6 1264.9 886.9 1268.9 884.4 1281.4 868 1285.8 864.9 1295.3 859 1305.2 852.4 1315.3 849.1 1320.6 845.1 1323.3 841.6 1331.4 836.1 1337.3 834.5 1347 831.3 1349.7 825.8 1353 821.8 1358.5 819.8 1369.2 818.9 1373.2 815.6 1393 838.3 Z" data-holc_grade="A"/>
<path d="M 1407 925.6 1442.7 897.4 1486.5 900.7 1488.3 906.2 1487.5 929.3 1486.5 932.4 1441.9 965.9 1441.1 968.5 1440.5 978.2 1440.5 997.8 1435.8 1004.4 1427.9 998.9 1423.9 990.1 1366.3 989.4 1368.2 967.2 1406 938.6 1407 925.6 Z" data-holc_grade="A"/>
<path d="M 1078.7 1050.2 1079.6 1053.7 1082.6 1059.2 1100.9 1063.6 1096.3 1076.1 1082 1080.5 1083.3 1095.2 1135.7 1092.1 1143.8 1082.2 1183.4 1082.5 1183.6 1064.7 1182.7 1039.8 1198.8 1034.6 1204.7 1028.8 1213.5 1029.3 1235 1028.3 1236 1044.3 1260.9 1032.2 1260.9 1057.8 1248.2 1057.1 1248.4 1083.5 1311.3 1086.6 1312.3 1096.3 1330.8 1102.9 1313.7 1112.2 1300.3 1118.6 1291.5 1126.7 1223.4 1153.4 1212.6 1136.2 1213.1 1131.8 1221 1125.2 1221.6 1120.3 1216.8 1111.5 1207.8 1106.5 1200.2 1103.6 1193.3 1102.9 1184.3 1104.3 1168.5 1114.4 1175.1 1115.3 1177.2 1117 1177 1119.2 1169.6 1126.1 1160.7 1129.8 1155.9 1133.5 1153.6 1140.2 1147.7 1143.2 1123.7 1147 1119.2 1144.3 1050.6 1166.4 1018.1 1168.1 972.4 1131.6 991.4 1119.4 987.2 1072.5 1035.8 1071.7 1049.5 1052.3 1078.7 1050.2 Z" data-holc_grade="B"/>
<path d="M 1462.9 660.6 1463.5 679.2 1428.4 692.1 1424.8 689.8 1422.2 686.9 1422.2 683 1412.4 676.1 1417.2 670.4 1424.2 667.9 1433.5 674.2 1459.3 660.8 1462.9 660.6 Z" data-holc_grade="B"/>
<path d="M 720.6 802.8 715.1 789.1 713 776.9 714.8 772.8 723 762.6 741.2 758.6 772.8 758.9 772.7 797.9 760.9 803.1 720.6 802.8 Z" data-holc_grade="B"/>
<path d="M 376 963.1 375.7 984.2 341.6 984.2 341.9 1010.9 302.6 1011.3 301.5 1002.3 298.3 997.2 288.6 988 278.3 989.5 277 1008.2 233.1 1006.7 238.9 1000.3 237.3 993.9 263.2 984.7 273.5 983.6 283 982.3 288.8 979.4 303.1 971 310.2 973.5 312.6 966.8 317.3 964.2 321.8 961.1 329.8 958.7 330.4 954.4 339.4 954.2 343.9 945.2 362.1 955.3 362.1 962.8 376 963.1 Z" data-holc_grade="B"/>
<path d="M 1042.7 1000.7 1027.9 1008.7 999.1 1023.2 986.2 1030.5 960.3 1051.4 951.6 1054.5 952.4 1024.3 953.1 1000.5 1042.7 1000.7 Z" data-holc_grade="B"/>
<path d="M 1775.4 373.2 1708.2 343.3 1710.8 339.5 1708.2 329.8 1719.6 328.1 1726 324.8 1732.4 319.4 1737.9 313.9 1745.4 305.5 1748.2 292.9 1758.1 284.4 1799.5 280.8 1812 285.9 1817.8 289.6 1825 291.4 1829 294.5 1831 296.7 1840.4 296.9 1846.1 296.9 1849 296.9 1851.2 299.3 1851.4 303.1 1850.1 309.2 1848.1 315.2 1846.6 323.3 1857.4 319.8 1858 342 1824.4 341.3 1825.7 369.3 1785.6 359.6 1775.4 373.2 Z" data-holc_grade="B"/>
<path d="M 1406.2 880.5 1376.3 847.7 1393 838.3 1419.8 870.4 1406.2 880.5 Z" data-holc_grade="B"/>
<path d="M 1442.7 897.4 1407 925.6 1408.9 894.3 1403.6 894.1 1397.6 883.3 1402.2 882.3 1406.2 880.5 1426.8 896.7 1442.7 897.4 Z" data-holc_grade="B"/>
<path d="M 1405.7 764.3 1448 809.9 1440.3 813.9 1434.4 816.7 1427.1 821.1 1415.9 831.1 1411.3 833.5 1402 836.8 1393 838.3 1373.2 815.6 1369.2 818.9 1358.5 819.8 1353 821.8 1349.7 825.8 1347 831.3 1337.3 834.5 1331.4 836.1 1323.3 841.6 1320.6 845.1 1313.1 839.4 1314.9 817.2 1276.8 815.9 1277.7 797.4 1269.1 796.8 1239.9 809 1233.8 801.2 1242.2 797.5 1241.7 796.4 1271 783 1271.5 789.1 1294.3 789.1 1310.4 785.2 1310.4 777.7 1318.5 777.3 1315.1 750.2 1340.5 734.5 1354.2 734.5 1354.5 738.1 1372.4 764.7 1405.7 764.3 Z" data-holc_grade="B"/>
<path d="M 1246.7 954.3 1246.3 977.2 1211.1 977.9 1190.4 978.3 1183.8 970.4 1137.9 993.5 1131.9 978.5 1224.9 936.8 1226 954.1 1246.7 954.3 Z" data-holc_grade="B"/>
<path d="M 1084.9 1214.4 1071.5 1220.4 1056.7 1225.4 1042.7 1236.9 1023.5 1246.5 1007.2 1258.4 999.1 1264.9 998.2 1268 999.1 1270.9 1002.8 1277.3 999.3 1278.3 996.9 1282.8 991.6 1286.7 981.7 1278.1 976.2 1272.4 974.5 1265.8 974.7 1262.1 977.5 1258.1 980 1251.8 979.7 1246.5 977.8 1242.8 977.5 1238.2 980 1233.1 983.5 1230 990.7 1226.5 1002.2 1230.3 1008.3 1231.6 1015.2 1231.8 1024.8 1231.6 1034.5 1227.8 1038.5 1224.8 1041.8 1221 1042.9 1216.8 1047.3 1213.3 1054.1 1210.7 1060 1209.4 1067.5 1204.5 1073.5 1204.3 1080.5 1205 1084.5 1208.7 1084.9 1214.4 Z" data-holc_grade="B"/>
<path d="M 1238 815.6 1248.9 824 1248.7 843.8 1255.9 841.1 1260.8 847.8 1275.3 849.9 1275.7 841.8 1313.1 839.4 1320.6 845.1 1315.3 849.1 1305.2 852.4 1295.3 859 1285.8 864.9 1281.4 868 1268.9 884.4 1264.9 886.9 1235.9 901.6 1230.6 899.8 1225.8 900.5 1220.5 902.1 1215.9 904.9 1213 909.7 1214.6 919.8 1207.1 920.5 1199.6 923.2 1193.9 926.7 1193.2 930.2 1156.9 949.9 1140.4 946.4 1142.6 941.2 1142.4 937 1143.7 935 1164.4 934.6 1164.8 925.3 1156.9 897.2 1162.4 884.2 1180.5 887.8 1182.2 891.7 1185.7 893.2 1188.6 892.1 1190.4 888.2 1190.6 882.2 1193.7 877.2 1200.7 872.6 1207.7 874.6 1212.4 874.8 1213.2 873.7 1213.2 864.5 1214.8 862.2 1229.1 857.6 1229.7 842.9 1213.2 819.7 1220 816.3 1228.4 814.6 1238 815.6 Z" data-holc_grade="B"/>
<path d="M 696.9 819.8 696 832 684.4 832.1 679.6 842.2 681.8 846.3 663.8 846.5 664.3 849.4 599.6 849.1 599.8 853.8 526.6 852.4 527.1 837.5 536.1 837.4 548.4 831.2 554.4 825.2 558.6 820.4 563.7 818.5 568.6 818 598.6 819.3 598.7 793.4 636 794.1 636.3 810.1 641.4 811.3 647.2 814.1 652.3 816.8 691.4 816.6 696.9 819.8 Z" data-holc_grade="B"/>
<path d="M 829.4 915.6 793.4 933.1 793.5 895.9 824.9 887.2 830.7 896.8 829.4 915.6 Z" data-holc_grade="B"/>
<path d="M 375.3 1006.4 375.7 984.2 376 963.1 438.7 964.5 438.7 979.7 432.1 980 431.3 984.6 421.8 985 422.3 992.5 405.9 1007.7 375.3 1006.4 Z" data-holc_grade="B"/>
<path d="M 1721.4 497.8 1722.2 504.4 1702 503.7 1661.8 483.2 1695.2 480 1699.6 476 1718.6 487.6 1728.7 489.7 1727.3 494.1 1721.4 497.8 Z" data-holc_grade="B"/>
<path d="M 1024.8 671.7 1003.2 681.7 992.4 663.8 989.1 640.4 1000.7 635.6 1024.8 671.7 Z M 969.4 674.2 966.2 674.3 962.1 673.6 954.2 668.6 954.2 637.2 977.3 632.5 965.8 659.7 969 666.6 970.1 671.2 969.4 674.2 Z M 1135.1 600.7 1138.3 613.6 1132.4 620 1137.9 631.5 1058.2 669 1034.9 638.8 1036.9 609.3 1044.6 605.8 1051.1 603.5 1065 603.8 1066.3 598.5 1135.1 600.7 Z" data-holc_grade="C"/>
<path d="M 1391.4 742.9 1405.7 764.3 1372.4 764.7 1354.5 738.1 1354.2 734.5 1340.5 734.5 1315.1 750.2 1318.5 777.3 1310.4 777.7 1310.4 785.2 1294.3 789.1 1271.5 789.1 1271 783 1241.7 796.4 1242.2 797.5 1233.8 801.2 1239.9 809 1238 815.6 1228.4 814.6 1213.3 792.5 1224.6 788.1 1229.9 795.2 1268.9 774.9 1263.6 767.6 1280.9 758.5 1276.7 752 1305.9 738.2 1346 715.1 1352.7 712.4 1357.3 710.1 1365 709.2 1370 706.6 1391.4 742.9 Z" data-holc_grade="C"/>
<path d="M 1042.7 1000.7 953.1 1000.5 953.5 982.9 947.7 975.5 940.1 965.7 961 956.5 957.9 950.6 986.9 936.8 986.9 923.3 1002.8 924.6 1002.9 926.7 1021.9 926.3 1026.2 932.3 1100.6 894.1 1115.9 919.1 1119.8 916.8 1143.7 935 1142.4 937 1142.6 941.2 1140.4 946.4 1130.4 953.5 1127.1 958.7 1127.3 962.7 1042.7 1000.7 Z" data-holc_grade="C"/>
<path d="M 1153.6 1140.2 1163.9 1154 1156 1151.2 1151.8 1149.2 1146.1 1149.4 1132.2 1155.4 1107.1 1171.1 1106.9 1175.5 1096.6 1181.5 1091.5 1181.7 1089.7 1182.6 1093.1 1211.2 1084.9 1214.4 1084.5 1208.7 1080.5 1205 1073.5 1204.3 1067.5 1204.5 1060 1209.4 1054.1 1210.7 1047.3 1213.3 1042.9 1216.8 1041.8 1221 1038.5 1224.8 1034.5 1227.8 1024.8 1231.6 1015.2 1231.8 1008.3 1231.6 1002.2 1230.3 990.7 1226.5 988.1 1223.2 980.8 1216.2 977.1 1187.6 976.2 1182.4 961.5 1172.3 959.7 1170.3 953.1 1159.7 950.5 1156.2 943.7 1152.3 972.4 1131.6 1018.1 1168.1 1050.6 1166.4 1119.2 1144.3 1123.7 1147 1147.7 1143.2 1153.6 1140.2 Z" data-holc_grade="C"/>
<path d="M 1183.6 1064.7 1183.4 1082.5 1143.8 1082.2 1135.7 1092.1 1083.3 1095.2 1082 1080.5 1096.3 1076.1 1100.9 1063.6 1102.9 1058.3 1126 1065.3 1126.6 1062.9 1150.4 1063.1 1151.5 1074.1 1183.6 1064.7 Z" data-holc_grade="C"/>
<path d="M 598.7 793.4 598.6 819.3 568.6 818 563.7 818.5 558.6 820.4 554.4 825.2 548.4 831.2 536.1 837.4 527.1 837.5 526.6 852.4 599.8 853.8 599.6 849.1 664.3 849.4 663.8 846.5 681.8 846.3 679.6 842.2 684.4 832.1 696 832 696.9 819.8 723.4 820.5 743.4 820.4 745.7 839.2 746.3 844.3 723.9 845.8 723.9 866 585.3 865.9 538.1 905.6 536.2 907.3 504.7 920.5 501.7 918.5 480.2 904 502.2 903.7 505.1 878.3 470.2 877.6 470.4 891.3 461 891.6 454.6 885.7 449.9 877.9 448.8 867.6 462.2 865 490.4 862.6 498.1 850.2 521.3 835.2 520 791.5 598.7 793.4 Z" data-holc_grade="C"/>
<path d="M 461 891.6 435.6 891.4 435.6 905.2 439.5 905 439.4 917.2 478.3 917.1 479 904.1 480.2 904 501.7 918.5 491 929.1 495.2 932.4 508.7 950.5 486.7 965 502 979.3 497.8 983.3 502 988.8 471.4 1013 473 1039.9 456.1 1039.6 455.6 1065.4 413.3 1064.5 414.4 1045.1 375.6 1045.8 375.5 1034.9 375.3 1006.4 405.9 1007.7 422.3 992.5 421.8 985 431.3 984.6 432.1 980 438.7 979.7 438.7 964.5 376 963.1 362.1 962.8 362.1 955.3 343.9 945.2 339.4 954.2 330.4 954.4 329.4 952.7 338.2 940.6 343.9 930.8 351.9 923.5 360.6 918.1 371.7 913.3 387.5 901.1 408.7 886.4 448.8 867.6 449.9 877.9 454.6 885.7 461 891.6 Z" data-holc_grade="C"/>
<path d="M 329.4 952.7 330.4 954.4 329.8 958.7 321.8 961.1 317.3 964.2 312.6 966.8 310.2 973.5 303.1 971 288.8 979.4 283 982.3 273.5 983.6 263.2 984.7 237.3 993.9 236.6 973.7 262.7 942.4 265.1 938.7 277.2 925.9 278.3 950.8 326.9 950.6 329.4 952.7 Z M 397.6 836.1 374 864.7 392.3 876.2 382.7 888.7 375.7 884.5 371 891.2 355.7 882.3 346.4 894.6 358.1 900.9 387.5 901.1 371.7 913.3 360.6 918.1 351.9 923.5 343.9 930.8 338.2 940.6 331.3 932.4 327.1 928.2 323.7 927 319.6 927 295.3 912.5 348.2 841.5 352.3 844 370.5 820.4 397.6 836.1 Z" data-holc_grade="C"/>
<path d="M 209.9 1091.9 209.9 1125.6 127.2 1123.4 122.2 1095 209.9 1019 209.9 1091.9 Z" data-holc_grade="C"/>
<path d="M 188 1201.8 264 1164.4 294.1 1198.7 199.3 1232.9 188 1201.8 Z" data-holc_grade="C"/>
<path d="M 641.8 1073.8 641.1 1078.7 620.6 1078.5 621.1 1135.6 590.5 1148.1 589.8 1110.3 586.5 1114.3 568.7 1118.6 567.6 1078.9 640.2 1050.5 641.8 1073.8 Z" data-holc_grade="C"/>
<path d="M 824.9 887.2 793.5 895.9 793.4 933.1 771.4 944.2 727 970.7 722.6 973.3 708.8 957.3 683.3 973.1 674.1 962.6 634.5 985 623.5 971.4 600.2 975 599.9 1006.7 567.1 1007 567.8 973 584.7 973.1 585 960.8 603 962 688.7 907.7 728 907.1 763.3 877.3 788.2 875.4 794.6 882.4 820.1 874.9 824.9 887.2 Z" data-holc_grade="C"/>
<path d="M 1406.2 880.5 1419.8 870.4 1393 838.3 1402 836.8 1411.3 833.5 1415.9 831.1 1427.1 821.1 1434.4 816.7 1440.3 813.9 1448 809.9 1452.9 814.8 1547.2 754.5 1560.1 747.1 1576.8 747.5 1606.6 787.1 1599.2 796.1 1565.7 823.7 1564.4 829.6 1545.4 843.7 1540.3 843 1530.6 848.8 1527.7 856.7 1523.4 858.9 1489.4 870.1 1480.7 873.8 1468.3 883.1 1460.1 889.3 1442.7 897.4 1426.8 896.7 1406.2 880.5 Z" data-holc_grade="C"/>
<path d="M 1708.2 329.8 1710.8 339.5 1708.2 343.3 1775.4 373.2 1827.7 396.5 1729.6 528.6 1698.9 528 1698.2 508.3 1649 483.7 1598.6 534.2 1575.4 519.2 1551.1 545 1519.1 567.9 1489.5 541.5 1537.4 501.6 1538.8 496.3 1594.4 441.8 1629.6 463.2 1652.5 427.4 1577.1 393.3 1621.1 320.6 1628.2 310.1 1628.2 281.3 1658.1 282.2 1662.3 280.1 1699.2 279.7 1697.6 288.1 1686.5 297.7 1690 303 1692.6 326.1 1698.2 329.4 1708.2 329.8 Z M 1636.3 406.4 1639 404.7 1639.9 402.2 1639.9 397.4 1639.9 392.9 1641.6 389.7 1642.8 385.8 1646.2 381.3 1651.3 377.3 1653.8 375.4 1654.1 372.3 1654.1 370.2 1652.5 369.6 1649.9 369.7 1647.2 369.8 1640.4 374.4 1632.8 379.2 1627.2 382.4 1624.4 385.1 1623.5 388.1 1623 391.7 1621.4 394.1 1618.5 395.9 1617.5 397 1617.3 398.6 1626.2 403.7 1631.6 405.9 1634.4 406.9 1636.3 406.4 Z M 1721.4 497.8 1727.3 494.1 1728.7 489.7 1718.6 487.6 1699.6 476 1695.2 480 1661.8 483.2 1702 503.7 1722.2 504.4 1721.4 497.8 Z" data-holc_grade="C"/>
<path d="M 480.2 904 479 904.1 478.3 917.1 439.4 917.2 439.5 905 435.6 905.2 435.6 891.4 461 891.6 470.4 891.3 470.2 877.6 505.1 878.3 502.2 903.7 480.2 904 Z" data-holc_grade="C"/>
<path d="M 780.9 804.6 758.6 812.5 743.4 820.4 723.4 820.5 724.3 807.8 720.6 802.8 760.9 803.1 772.7 797.9 772.8 758.9 741.2 758.6 723 762.6 714.8 772.8 713 776.9 715.1 789.1 696.8 788.5 695.8 746.3 807.6 749.7 807.3 794.6 783.8 794 784 803.4 780.9 804.6 Z" data-holc_grade="C"/>
<path d="M 1510.7 661.8 1473.9 659.8 1473.2 686.8 1442.2 704.1 1410.5 703.6 1408 701 1395.3 692.5 1399.2 687.2 1393.2 683.1 1396 678.5 1438.9 629.5 1512.5 604.6 1510.7 661.8 Z M 1462.9 660.6 1459.3 660.8 1433.5 674.2 1424.2 667.9 1417.2 670.4 1412.4 676.1 1422.2 683 1422.2 686.9 1424.8 689.8 1428.4 692.1 1463.5 679.2 1462.9 660.6 Z" data-holc_grade="C"/>
<path d="M 1339 301.7 1331.2 317.8 1310.1 329.6 1310.1 370 1301.3 370.6 1299.9 383.8 1274.2 385.3 1254.8 373.8 1253.8 429.6 1261.2 436.6 1259.4 475.6 1226.3 474.8 1227.7 427.5 1216.5 417 1222.8 411.7 1204.2 393.2 1223.2 377.7 1211.9 365.3 1242.9 340.7 1285.1 313.4 1328.3 271.3 1340 280.6 1339.3 283.8 1327.7 292.6 1339 301.7 Z" data-holc_grade="C"/>
<path d="M 899 454.2 868.9 481.5 860.6 481.9 848.8 487.1 834.6 499.1 837.6 503.1 905.9 482.7 912.4 482.8 916.4 457.9 915.7 454.4 958.3 455 964.8 461.3 974 476.4 937.7 487.4 940.9 494.9 834.6 525.7 826 504.2 846.9 486.9 851 482.1 856.8 475.2 857.6 469.3 881.5 458.6 894.4 454.2 899 454.2 Z" data-holc_grade="C"/>
<path d="M 1213.2 819.7 1229.7 842.9 1229.1 857.6 1214.8 862.2 1213.2 864.5 1213.2 873.7 1212.4 874.8 1207.7 874.6 1200.7 872.6 1193.7 877.2 1190.6 882.2 1190.4 888.2 1188.6 892.1 1185.7 893.2 1182.2 891.7 1180.5 887.8 1162.4 884.2 1156.9 897.2 1164.8 925.3 1164.4 934.6 1143.7 935 1119.8 916.8 1137.9 915.2 1121.6 891.7 1133.7 873.5 1158.8 861.8 1156.1 856.3 1157.4 845.6 1166.7 842 1161.8 834.5 1182.3 824.8 1197.5 818.7 1203.8 824.2 1213.2 819.7 Z" data-holc_grade="C"/>
<path d="M 976.4 722.1 974.3 723.1 943.2 740.1 919.9 752.1 875.9 768.4 862.4 760.2 853.4 748.1 845.3 727.7 837.9 717.6 833.3 714.4 826.3 712.2 818.4 711.4 808.9 713.9 798.8 718.6 787.6 724.1 783.9 727.7 780.5 731.6 767.8 733.5 739.6 732.6 710.9 731.8 695.6 734 694.5 689.9 706.3 690.9 705.6 667.6 727.5 658.5 747.3 688 724.1 697.7 727.1 708.4 741.7 713.1 778 709.7 828.3 671 854.1 662.1 878.4 649.2 869.4 632.7 858.8 642.2 824.5 641.9 781.6 662.9 773.2 649.4 831.3 622.1 833 606.7 835.3 602.1 840.6 596.7 853.1 590 858.6 587.3 846.8 554.3 763.7 557.1 767.4 549.8 771.6 545.5 785.3 535.7 808.7 517.2 826 504.2 834.6 525.7 940.9 494.9 937.7 487.4 974 476.4 992 520.1 973.3 526 958 489.3 948.7 492.2 963.3 529 889.9 551.2 864 567.5 867.9 575.2 964.9 547.1 981.4 587 1007.4 573.9 1029.2 606.3 1070.9 587.1 1129.5 587.4 1146.5 593.6 1147.1 642 1153.2 651.8 1061.2 695 1048.9 673.8 1036.2 680.1 1041.6 691 976.6 722 976.4 722.1 Z M 1024.8 671.7 1000.7 635.6 989.1 640.4 992.4 663.8 1003.2 681.7 1024.8 671.7 Z M 969.4 674.2 970.1 671.2 969 666.6 965.8 659.7 977.3 632.5 954.2 637.2 954.2 668.6 962.1 673.6 966.2 674.3 969.4 674.2 Z M 1135.1 600.7 1066.3 598.5 1065 603.8 1051.1 603.5 1044.6 605.8 1036.9 609.3 1034.9 638.8 1058.2 669 1137.9 631.5 1132.4 620 1138.3 613.6 1135.1 600.7 Z" data-holc_grade="D"/>
<path d="M 1756 697.9 1754.2 572.3 1802.2 530.5 1805.1 575.8 1819.4 582.6 1827.7 591 1835 600.4 1839.6 611.7 1841.2 623.3 1840.1 638.3 1831.9 649.7 1823.6 657.4 1818.9 660 1811.9 673.2 1796.7 680.7 1756 697.9 Z" data-holc_grade="D"/>
<path d="M 1650.9 720.9 1710.7 696.3 1711.8 749.8 1654.8 752.2 1650.9 720.9 Z" data-holc_grade="D"/>
<path d="M 1938.6 613 1999 612.3 1998.7 682.2 1935.2 686.8 1938.6 613 Z" data-holc_grade="D"/>
<path d="M 1665.4 255.3 1655.5 246 1656.4 168.4 1654.2 84.3 1726.4 85.1 1756.5 118.8 1763.3 175.2 1742.2 174.9 1742.9 183.5 1745.3 197.4 1744.6 202.3 1742.9 207.8 1739.1 210.6 1734.3 215.5 1730.1 221.2 1729.7 226.7 1728.8 233.7 1728.1 239.4 1725.3 244.3 1722.2 246.7 1721.5 248 1721.3 255.9 1665.4 255.3 Z" data-holc_grade="D"/>
<path d="M 1665.4 255.3 1662.3 280.1 1658.1 282.2 1628.2 281.3 1628.2 310.1 1621.1 320.6 1501.5 397.7 1501.1 364.6 1472.6 363.7 1455.3 370.2 1450.4 374.9 1414.9 386 1404.3 386 1403.6 305.5 1403.6 302.1 1463.1 303.9 1459.9 272.2 1563.4 248.2 1655.5 246 1665.4 255.3 Z" data-holc_grade="D"/>
<path d="M 1353.1 225.3 1384.2 194.3 1405.1 168.6 1497.5 168.8 1593.3 167.9 1566.4 196.9 1538.7 225.7 1452.3 227.1 1353.1 225.3 Z" data-holc_grade="D"/>
<path d="M 1307.1 114.7 1272 114.9 1272.8 86.8 1308.2 86.8 1307.1 114.7 Z M 1390.3 116.2 1371 116.9 1372.1 79.3 1391.9 78.4 1390.3 116.2 Z M 1470.6 101.7 1435.2 103.5 1436.8 28 1492.5 27.6 1490.6 57.1 1513.6 61.5 1493 87.4 1470.6 101.7 Z M 1604.4 27.2 1546.9 27.8 1544.5 23.4 1572.7 1 1605 3.9 1604.4 27.2 Z" data-holc_grade="D"/>
<path d="M 958.3 455 915.7 454.4 899 454.2 894.4 454.2 881.5 458.6 882.8 404.6 773.5 407.5 774.3 355.8 771.9 351.9 770.3 316.2 876 311.2 938.3 393.6 1035.7 269.1 1125.7 339.1 1024.6 437.4 1025.1 455.9 958.3 455 Z" data-holc_grade="D"/>
<path d="M 856.8 475.2 851 482.1 846.9 486.9 826 504.2 808.7 517.2 785.3 535.7 771.6 545.5 767.4 549.8 763.7 557.1 759.8 558.4 736 579.9 726.8 584.5 725.2 474.1 856.8 475.2 Z" data-holc_grade="D"/>
<path d="M 397 662 343.9 662.6 343.2 597.2 397.7 596.6 397 662 Z M 475.2 515.9 312.9 603 308.7 529.1 441.8 466.6 475.2 515.9 Z" data-holc_grade="D"/>
<path d="M 1621.1 320.6 1577.1 393.3 1652.5 427.4 1629.6 463.2 1594.4 441.8 1538.8 496.3 1537.4 501.6 1489.5 541.5 1519.1 567.9 1551.1 545 1575.4 519.2 1598.6 534.2 1649 483.7 1698.2 508.3 1698.9 528 1729.6 528.6 1669.2 610.4 1661.4 609 1546.3 602.5 1547.7 663.6 1510.7 661.8 1512.5 604.6 1438.9 629.5 1396 678.5 1369.2 637.4 1371.7 565.6 1384.7 576.4 1402.7 576.4 1442.7 550.3 1442.3 543.6 1458.9 532.7 1461.3 523.6 1468 518.9 1451.8 512.7 1448.6 505.1 1440.9 501.9 1444.4 499.2 1470.8 462 1470.8 452.6 1472.6 442.3 1499 443.2 1501.5 397.7 1621.1 320.6 Z" data-holc_grade="D"/>
<path d="M 341.7 735.1 226.3 810.8 170.3 802.6 296.7 647.9 341.7 735.1 Z M 203.1 718.1 107 798.8 1 753.9 135.8 632.1 203.1 718.1 Z" data-holc_grade="D"/>
<path d="M 662.8 1125.7 765.1 1128.8 766.9 1154.3 662.8 1153.8 662.8 1125.7 Z" data-holc_grade="D"/>
<path d="M 348.2 841.5 295.3 912.5 319.6 927 323.7 927 327.1 928.2 331.3 932.4 338.2 940.6 329.4 952.7 326.9 950.6 278.3 950.8 277.2 925.9 265.1 938.7 254.2 934 225.4 970.3 221.2 1001.2 222.5 1018.3 233.1 1006.7 277 1008.2 274.8 1034 375.5 1034.9 375.6 1045.8 414.4 1045.1 413.3 1064.5 455.6 1065.4 456.1 1039.6 473 1039.9 471.4 1013 502 988.8 497.8 983.3 502 979.3 486.7 965 508.7 950.5 495.2 932.4 491 929.1 501.7 918.5 504.7 920.5 536.2 907.3 538.1 905.6 585.3 865.9 723.9 866 723.9 845.8 746.3 844.3 745.7 839.2 793.1 830.7 796.3 837.6 813.6 846 813.9 854.3 816.3 862.3 752.3 874.8 724.6 880.3 694.7 888 598.9 929 582.2 936.8 583 903.9 563.8 894.8 521.3 930.1 523.6 935.3 522.1 939.7 541.8 965.9 523.7 987.1 489.7 1032 461.7 1067.9 439.8 1094.5 296.9 1094.1 273.2 1121.9 242.3 1110 242 1092.6 209.9 1091.9 209.9 1019 212.5 960.7 232.5 937.3 240.4 928.1 258.7 907.4 243.1 903.4 242 900.8 214.6 900.5 215.1 928.3 177.1 931.8 158.1 932.3 82.8 930.3 82 892 117.4 890.9 112.9 817.3 151.7 815.8 152.8 842.2 252.3 838 249.7 870.8 278.5 884.3 328.6 814.2 346.3 823.9 336.3 835.2 348.2 841.5 Z M 520 791.5 521.3 835.2 498.1 850.2 490.4 862.6 462.2 865 448.8 867.6 408.7 886.4 392.3 876.2 374 864.7 397.6 836.1 400.7 838.1 450.2 837.8 449.9 823 407.4 823 381.4 807.7 413.8 767.4 400.7 761.2 440.7 711.5 398.6 696.2 428.2 667.9 442.3 657.3 470.4 633 473.4 657.9 463.4 670 459.5 671.6 452.5 673.3 472.9 681.5 503.7 649.9 503.4 640.3 501.4 636.1 497 627.8 494.6 625.1 489.5 624 481.4 623.6 472 625.4 454.6 610.2 455.5 574.7 569.5 577.1 570.8 635.8 537 636.2 537.3 663.1 509.7 663.2 508.1 692.1 506.9 697.7 504.8 790.7 520 791.5 Z" data-holc_grade="D"/>
<path d="M 1391.4 742.9 1370 706.6 1365 709.2 1357.3 710.1 1352.7 712.4 1346 715.1 1305.9 738.2 1276.7 752 1280.9 758.5 1263.6 767.6 1268.9 774.9 1229.9 795.2 1224.6 788.1 1213.3 792.5 1228.4 814.6 1220 816.3 1213.2 819.7 1203.8 824.2 1197.5 818.7 1182.3 824.8 1176.7 816.9 1129.5 837.7 1109.1 805.5 1214 753.8 1220 761.1 1251.3 745.9 1246 739.1 1275.6 725.3 1261.5 698.9 1235.1 709.5 1238.7 704.5 1238 653.7 1179.5 652.6 1167.2 632.9 1210.5 611.5 1197.5 591.2 1182.3 596.8 1167.2 573.9 1183 566.9 1174.2 556.9 1191.1 549.9 1188 544.6 1210.1 518.5 1209.8 435.7 1184.8 434.6 1184.8 398.2 1189.4 394.1 1186.9 324 1227.7 331.3 1270.3 304.9 1291.5 284.1 1307.3 276.5 1321 265.6 1328.3 271.3 1285.1 313.4 1242.9 340.7 1211.9 365.3 1223.2 377.7 1204.2 393.2 1222.8 411.7 1216.5 417 1227.7 427.5 1226.3 474.8 1259.4 475.6 1261.2 436.6 1253.8 429.6 1254.8 373.8 1274.2 385.3 1299.9 383.8 1301.3 370.6 1310.1 370 1310.1 329.6 1331.2 317.8 1339 301.7 1403.6 305.5 1404.3 386 1368.9 387 1343.9 383.8 1346.7 450.4 1297.1 480 1243.6 499.1 1242.5 612.6 1267.2 614.1 1267.5 566.6 1290.4 567.5 1291.8 547.8 1371.4 549.9 1370.7 521.7 1420 522.9 1418.2 541.9 1404.5 549.3 1373.5 549.9 1371.7 551.6 1371.7 565.6 1369.2 637.4 1396 678.5 1393.2 683.1 1399.2 687.2 1395.3 692.5 1408 701 1410.5 703.6 1425.9 720.1 1391.4 742.9 Z" data-holc_grade="D"/>
<path d="M 1100.6 894.1 1026.2 932.3 1021.9 926.3 1002.9 926.7 1002.8 924.6 986.9 923.3 989.2 917.4 980 903.8 1020.7 885 1075.4 859.8 1100.6 894.1 Z M 1121.6 891.7 1107.3 871.5 1118.7 869.1 1110.8 857.2 1161.8 834.5 1166.7 842 1157.4 845.6 1156.1 856.3 1158.8 861.8 1133.7 873.5 1121.6 891.7 Z" data-holc_grade="D"/>
<path d="M 820.1 874.9 794.6 882.4 788.2 875.4 763.3 877.3 728 907.1 688.7 907.7 603 962 585 960.8 584.7 973.1 567.8 973 567.1 1007 599.9 1006.7 600.2 975 623.5 971.4 634.5 985 674.1 962.6 683.3 973.1 708.8 957.3 722.6 973.3 727 970.7 727.4 1043.7 759.1 1045.2 759.6 1074.3 791 1075.2 793.4 933.1 829.4 915.6 834.9 924.5 831.2 927.4 855.8 963 877.1 952.4 888.2 969.4 986.9 923.3 986.9 936.8 957.9 950.6 961 956.5 940.1 965.7 947.7 975.5 914.8 973.6 886.3 1011.3 918.5 1012 918.5 1024.1 952.4 1024.3 951.6 1054.5 907.9 1053.6 911.1 1047 856.3 1046.1 846 1054.5 786.1 1095.6 714.3 1093.7 715 1076.3 641.8 1073.8 640.2 1050.5 567.6 1078.9 545.9 1092.8 519.1 1093.4 502.7 1101.6 497.7 1104.9 490 1121.4 484.5 1128 474.5 1132.9 569.5 1133.7 570.8 1175.8 562.4 1179.1 562.9 1213.9 544.2 1213.9 540.7 1283.5 443.6 1281.6 439.6 1332.2 323.7 1326.5 294.9 1356.9 263 1318.3 283 1300.5 292.3 1310.6 300.5 1301.4 360.1 1257.3 346.7 1245.9 458 1150 458 1147.2 450.3 1145.4 407.6 1145.2 408.6 1106.4 467 1109.5 478.8 1097.6 474.9 1087.5 475.1 1069.7 461.7 1067.9 489.7 1032 523.7 987.1 541.8 965.9 551.1 955.2 555.6 950.7 575.1 940.2 582.2 936.8 598.9 929 694.7 888 724.6 880.3 752.3 874.8 816.3 862.3 820.1 874.9 Z" data-holc_grade="D"/>
<path d="M 816.3 862.3 813.9 854.3 813.6 846 796.3 837.6 793.1 830.7 780.9 804.6 784 803.4 783.8 794 807.3 794.6 807.6 749.7 695.8 746.3 695.6 734 710.9 731.8 739.6 732.6 767.8 733.5 780.5 731.6 783.9 727.7 787.6 724.1 798.8 718.6 808.9 713.9 818.4 711.4 826.3 712.2 833.3 714.4 837.9 717.6 845.3 727.7 853.4 748.1 862.4 760.2 875.9 768.4 919.9 752.1 943.2 740.1 974.3 723.1 976.4 722.1 1004.6 761.9 994.3 767.2 1000.1 776.6 981.4 785.5 987.9 793.9 965.6 804.3 975.3 817.2 925.4 840 929 846.4 886.2 864.2 894.6 875 880.7 878.6 891.1 891.9 892.9 915.3 920.7 915.3 928.4 927.6 949 918.2 951 880.8 1001.1 857.1 1020.7 885 980 903.8 989.2 917.4 986.9 923.3 888.2 969.4 877.1 952.4 855.8 963 831.2 927.4 834.9 924.5 829.4 915.6 830.7 896.8 824.9 887.2 820.1 874.9 816.3 862.3 Z M 854.5 804.6 853.1 784.8 819.1 783.3 818.9 804.6 854.5 804.6 Z" data-holc_grade="D"/>
<path d="M 1211.1 977.9 1213.5 1029.3 1204.7 1028.8 1198.8 1034.6 1182.7 1039.8 1183.6 1064.7 1151.5 1074.1 1150.4 1063.1 1126.6 1062.9 1126 1065.3 1102.9 1058.3 1100.9 1063.6 1082.6 1059.2 1079.6 1053.7 1078.7 1050.2 1080 1034.1 1113 1031.7 1114.5 999 1140.9 998.8 1137.9 993.5 1183.8 970.4 1190.4 978.3 1211.1 977.9 Z" data-holc_grade="D"/>
<path d="M 1018.6 481.7 1038.3 481.7 1037.6 473 1056.8 473.6 1057.8 451.6 1105.2 439.1 1122.4 412.6 1132.8 408.9 1117.8 393.1 1150.1 372.5 1165.5 391.3 1147.2 486.6 1114.3 486.5 1114.3 539 1022.6 536.4 1018.7 517.9 1018.6 481.7 Z" data-holc_grade="D"/>
</g>
</svg>