<?xml version="1.0"?>
<svg xmlns="http://www.w3.org/2000/svg" version="1.2" baseProfile="tiny" width="3000" height="2037" viewBox="0 0 3000 2037" stroke-linecap="round" stroke-linejoin="round">
<g id="A">
<path d="M 2110.7 1388.3 2109.1 1407.8 2052.5 1450.8 2049.7 1484.2 2136.1 1485.2 2142 1498.4 2153.9 1506.6 2161 1496.7 2161 1467.3 2161.8 1452.8 2163 1448.8 2230 1398.6 2231.6 1394 2232.7 1359.3 2240.7 1369.8 2251.3 1374.6 2259.2 1375.9 2261.8 1389.6 2260.8 1399.3 2253.4 1407.6 2242.8 1413.8 2241.2 1427 2245.5 1438 2251.3 1445.1 2265 1439.4 2277.2 1438.5 2289.8 1438.9 2299.9 1442.4 2303 1447.7 2304.1 1452.1 2298.3 1456.1 2290.9 1460.5 2287.2 1469.3 2294.1 1477.7 2345.8 1457.4 2349 1447.7 2354.8 1427.5 2450.4 1375.5 2456.8 1377.7 2461 1383.4 2465.7 1389.1 2418.2 1441.1 2385.5 1468.9 2379.6 1477.2 2372.2 1484.3 2338.4 1505.9 2312.6 1526.2 2296.9 1533.2 2291.6 1522.2 2282.7 1521.3 2270 1520 2261 1521.3 2249.4 1528.4 2239.9 1529.7 2230.9 1526.2 2228.2 1528.8 2216.6 1531.4 2209.2 1532.8 2202.4 1538.9 2200.3 1548.6 2170.1 1573.3 2137.4 1607.7 2126.3 1607.2 2115.2 1612.1 2105.2 1618.2 2103.1 1626.6 2098.8 1630.1 2086.7 1635.9 2074 1641.1 2065 1646.9 2059.7 1654.4 2061.3 1660.1 2061.3 1669.3 2059.7 1673.8 2057.1 1677.3 2045.5 1672 2034.4 1661.9 2030.2 1654.8 2036.5 1643.8 2038.6 1637.6 2033.3 1627 2021.7 1618.7 2006.9 1612.1 1986.8 1601.9 1982.1 1597.1 1971 1582.5 1966.2 1575.1 1952.5 1567.6 1937.7 1561 1927.2 1549.1 1929.8 1545.1 1930.8 1541.1 1929.3 1536.7 1936.7 1532.8 1939.3 1528.4 1940.9 1521.7 1945.1 1514.7 1951.5 1505.9 1975.2 1490 1993.2 1479.9 2001.1 1471.5 2009.6 1465.8 2021.7 1462.3 2037.6 1453 2053.4 1442.9 2062.4 1431 2061.3 1427.5 2054.5 1427.5 2047.6 1422.2 2047.6 1417.8 2051.8 1413.4 2058.7 1407.6 2067.7 1390.9 2069.8 1381.2 2071.4 1378.1 2095.7 1351.3 2105.6 1341.1 2113.5 1341.4 2110.7 1388.3 Z" data-holc_grade="A"/>
<path d="M 2089.7 1257.4 2064.6 1271.4 2109.5 1320.7 2103.6 1323.4 2096.6 1324.8 2080.8 1319.9 2061.6 1343 2047.1 1348.2 2037.2 1352.6 2031.9 1358.1 2017.4 1374.1 2013.1 1380.4 2005.5 1384.8 1994.6 1385.9 1981.4 1384.8 1973.2 1388.4 1966.6 1393.6 1949.4 1396.7 1926.6 1411.8 1916 1412.4 1917 1430 1869.8 1428.6 1870.1 1431.4 1839.1 1431.1 1837.5 1405.2 1697.9 1467.7 1691 1444 1690.7 1438 1695.6 1430.3 1710.7 1419.5 1735.4 1424.8 1789.9 1395.3 1790.9 1390.1 1799.5 1384.8 1810.7 1380.7 1821.9 1379.6 1819.6 1364.5 1823.9 1357.3 1830.9 1353.2 1838.8 1350.7 1846 1349.6 1854 1352.3 1897.6 1330.3 1903.5 1326.5 1922.3 1302 1928.9 1297.3 1943.1 1288.5 1958 1278.6 1973.2 1273.6 1981.1 1267.6 1985 1262.3 1997.3 1254.1 2006.2 1251.6 2020.7 1246.9 2024.7 1238.7 2029.6 1232.6 2037.9 1229.6 2054 1228.2 2060 1223.2 2089.7 1257.4 Z" data-holc_grade="A"/>
<path d="M 2110.7 1388.3 2164.2 1346.1 2230 1351 2232.7 1359.3 2231.6 1394 2230 1398.6 2163 1448.8 2161.8 1452.8 2161 1467.3 2161 1496.7 2153.9 1506.6 2142 1498.4 2136.1 1485.2 2049.7 1484.2 2052.5 1450.8 2109.1 1407.8 2110.7 1388.3 Z" data-holc_grade="A"/>
</g>
<g id="B">
<path d="M 1618 1575.4 1619.4 1580.6 1624 1588.9 1651.4 1595.5 1644.5 1614.2 1623 1620.8 1625 1642.8 1703.6 1638.2 1715.8 1623.3 1775.2 1623.8 1775.5 1597.1 1774.2 1559.7 1798.3 1552 1807.2 1543.2 1820.4 1544 1852.6 1542.4 1854.2 1566.5 1891.4 1548.4 1891.4 1586.7 1872.4 1585.7 1872.8 1625.4 1967.1 1630 1968.7 1644.5 1996.4 1654.4 1970.7 1668.3 1950.5 1677.9 1937.5 1690.1 1835.2 1730.1 1819 1704.3 1819.8 1697.7 1831.7 1687.8 1832.5 1680.6 1825.3 1667.3 1811.9 1659.7 1800.4 1655.4 1790.1 1654.4 1776.6 1656.4 1752.8 1671.6 1762.7 1673 1765.9 1675.6 1765.5 1678.9 1754.4 1689.1 1741.1 1694.8 1734 1700.4 1730.4 1710.3 1721.7 1714.9 1685.6 1720.5 1678.9 1716.6 1575.9 1749.6 1527.2 1752.3 1458.6 1697.4 1487.2 1679.2 1480.8 1608.8 1553.7 1607.5 1574.3 1578.4 1618 1575.4 Z" data-holc_grade="B"/>
<path d="M 2194.6 990.7 2195.4 1018.7 2142.9 1037.9 2137.4 1034.5 2133.5 1030.2 2133.5 1024.4 2118.8 1014.1 2126.1 1005.4 2136.5 1001.7 2150.5 1011.2 2189.2 991.1 2194.6 990.7 Z" data-holc_grade="B"/>
<path d="M 1080.7 1204.1 1072.5 1183.6 1069.4 1165.3 1072 1159.1 1084.4 1143.7 1111.6 1137.8 1159.2 1138.2 1158.9 1196.8 1141.2 1204.5 1080.7 1204.1 Z" data-holc_grade="B"/>
<path d="M 563.7 1444.6 563.2 1476.3 512.1 1476.4 512.5 1516.3 453.5 1517 451.9 1503.5 447.2 1495.9 432.5 1482 417 1484.3 415.1 1512.4 349.3 1510.1 358 1500.5 355.6 1490.9 394.5 1477 409.9 1475.4 424.2 1473.4 432.9 1469.1 454.3 1456.5 465 1460.2 468.5 1450.3 475.7 1446.3 482.4 1441.7 494.3 1438 495.3 1431.6 508.8 1431.3 515.5 1417.7 542.9 1432.9 542.9 1444.2 563.7 1444.6 Z" data-holc_grade="B"/>
<path d="M 1564.1 1501 1541.8 1513 1498.6 1534.8 1479.2 1545.7 1440.4 1577.1 1427.3 1581.7 1428.6 1536.5 1429.7 1500.8 1564.1 1501 Z" data-holc_grade="B"/>
<path d="M 2663.4 559.5 2562.7 514.6 2566.6 509 2562.7 494.4 2579.8 491.8 2589.4 486.8 2598.9 478.8 2607.2 470.6 2618.4 457.9 2622.7 438.9 2637.6 426.3 2699.6 420.8 2718.5 428.5 2727 434 2737.9 436.7 2743.9 441.4 2746.8 444.7 2761 445 2769.6 445 2773.9 445 2777.2 448.6 2777.6 454.3 2775.6 463.4 2772.6 472.5 2770.3 484.6 2786.5 479.4 2787.5 512.7 2736.9 511.6 2738.9 553.6 2678.8 539.1 2663.4 559.5 Z" data-holc_grade="B"/>
<path d="M 2109.5 1320.7 2064.6 1271.4 2089.7 1257.4 2130 1305.5 2109.5 1320.7 Z" data-holc_grade="B"/>
<path d="M 2164.2 1346.1 2110.7 1388.3 2113.5 1341.4 2105.6 1341.1 2096.6 1324.8 2103.6 1323.4 2109.5 1320.7 2140.4 1345.1 2164.2 1346.1 Z" data-holc_grade="B"/>
<path d="M 2108.7 1146.3 2172.2 1214.7 2160.7 1220.8 2151.8 1224.9 2140.9 1231.5 2124 1246.6 2117.1 1250.2 2103.2 1255.2 2089.7 1257.4 2060 1223.2 2054 1228.2 2037.9 1229.6 2029.6 1232.6 2024.7 1238.7 2020.7 1246.9 2006.2 1251.6 1997.3 1254.1 1985 1262.3 1981.1 1267.6 1969.9 1259 1972.5 1225.7 1915.4 1223.8 1916.7 1196 1903.8 1195.2 1859.9 1213.3 1850.8 1201.8 1863.5 1196.2 1862.7 1194.5 1906.7 1174.4 1907.5 1183.6 1941.5 1183.6 1965.7 1177.7 1965.7 1166.4 1978 1165.8 1972.8 1125.1 2010.9 1101.7 2031.5 1101.7 2031.9 1107 2058.8 1146.9 2108.7 1146.3 Z" data-holc_grade="B"/>
<path d="M 1870.1 1431.4 1869.6 1465.8 1816.8 1466.8 1785.8 1467.4 1775.9 1455.6 1706.9 1490.3 1697.9 1467.7 1837.5 1405.2 1839.1 1431.1 1870.1 1431.4 Z" data-holc_grade="B"/>
<path d="M 1627.4 1821.7 1607.3 1830.8 1585.1 1838.2 1564 1855.5 1535.3 1869.9 1510.9 1887.8 1498.6 1897.4 1497.3 1902.1 1498.6 1906.5 1504.3 1916.1 1499 1917.5 1495.3 1924.4 1487.4 1930.2 1472.6 1917.2 1464.3 1908.7 1461.7 1898.8 1462 1893.3 1466.3 1887.2 1469.9 1877.9 1469.6 1869.9 1466.6 1864.4 1466.3 1857.5 1469.9 1849.8 1475.2 1845.1 1486.1 1839.8 1503.3 1845.6 1512.5 1847.6 1522.7 1847.8 1537.3 1847.6 1551.8 1841.8 1557.7 1837.4 1562.7 1831.6 1564.3 1825.2 1571 1820 1581.2 1816.2 1590.1 1814.2 1601.3 1806.8 1610.2 1806.5 1620.8 1807.6 1626.7 1813.1 1627.4 1821.7 Z" data-holc_grade="B"/>
<path d="M 1857.1 1223.2 1873.5 1235.9 1873.1 1265.6 1884 1261.5 1891.3 1271.7 1913.1 1274.7 1913.7 1262.6 1969.9 1259 1981.1 1267.6 1973.2 1273.6 1958 1278.6 1943.1 1288.5 1928.9 1297.3 1922.3 1302 1903.5 1326.5 1897.6 1330.3 1854 1352.3 1846 1349.6 1838.8 1350.7 1830.9 1353.2 1823.9 1357.3 1819.6 1364.5 1821.9 1379.6 1810.7 1380.7 1799.5 1384.8 1790.9 1390.1 1789.9 1395.3 1735.4 1424.8 1710.7 1419.5 1714 1411.8 1713.7 1405.5 1715.6 1402.5 1746.7 1401.9 1747.3 1387.9 1735.4 1345.7 1743.7 1326.2 1770.8 1331.7 1773.4 1337.5 1778.7 1339.7 1783 1338 1785.6 1332.3 1786 1323.2 1790.6 1315.7 1801.1 1308.9 1811.7 1311.9 1818.6 1312.2 1820 1310.5 1820 1296.7 1822.3 1293.2 1843.7 1286.3 1844.7 1264.3 1819.9 1229.4 1830.1 1224.4 1842.8 1221.7 1857.1 1223.2 Z" data-holc_grade="B"/>
<path d="M 1045.2 1229.6 1043.9 1247.9 1026.4 1248.1 1019.3 1263.3 1022.5 1269.4 995.5 1269.7 996.3 1274.1 899.2 1273.6 899.5 1280.7 789.6 1278.5 790.4 1256.2 803.9 1256 822.4 1246.8 831.3 1237.7 837.7 1230.5 845.3 1227.6 852.7 1226.9 897.6 1228.9 897.9 1189.9 953.8 1191 954.3 1215.1 962 1216.8 970.7 1221 978.3 1225.2 1037 1224.7 1045.2 1229.6 Z" data-holc_grade="B"/>
<path d="M 1244.1 1373.3 1189.9 1399.6 1190.2 1343.8 1237.2 1330.8 1245.9 1345.1 1244.1 1373.3 Z" data-holc_grade="B"/>
<path d="M 562.7 1509.6 563.2 1476.3 563.7 1444.6 657.7 1446.8 657.7 1469.6 647.8 1469.9 646.6 1476.9 632.4 1477.5 633.2 1488.8 608.6 1511.6 562.7 1509.6 Z" data-holc_grade="B"/>
<path d="M 2582.5 746.5 2583.7 756.3 2553.3 755.3 2493.1 724.5 2543.2 719.7 2549.7 713.7 2578.2 731.2 2593.4 734.3 2591.3 740.8 2582.5 746.5 Z" data-holc_grade="B"/>
</g>
<g id="C">
<path d="M 1537.2 1007.4 1504.7 1022.3 1488.6 995.5 1483.6 960.5 1501 953.2 1537.2 1007.4 Z M 1454 1011.1 1449.3 1011.3 1443.2 1010.2 1431.3 1002.7 1431.3 955.6 1465.9 948.6 1448.7 989.3 1453.5 999.7 1455.1 1006.7 1454 1011.1 Z M 1702.7 900.8 1707.5 920.2 1698.7 929.9 1706.9 947 1587.3 1003.4 1552.4 958 1555.3 913.8 1566.9 908.5 1576.7 905 1597.6 905.4 1599.4 897.5 1702.7 900.8 Z" data-holc_grade="C"/>
<path d="M 2087.4 1114.3 2108.7 1146.3 2058.8 1146.9 2031.9 1107 2031.5 1101.7 2010.9 1101.7 1972.8 1125.1 1978 1165.8 1965.7 1166.4 1965.7 1177.7 1941.5 1183.6 1907.5 1183.6 1906.7 1174.4 1862.7 1194.5 1863.5 1196.2 1850.8 1201.8 1859.9 1213.3 1857.1 1223.2 1842.8 1221.7 1820.1 1188.7 1837 1182.1 1844.9 1192.7 1903.5 1162.3 1895.6 1151.3 1921.5 1137.6 1915.2 1127.9 1959 1107.2 2019.2 1072.5 2029.3 1068.5 2036.1 1065 2047.7 1063.6 2055.1 1059.7 2087.4 1114.3 Z" data-holc_grade="C"/>
<path d="M 1564.1 1501 1429.7 1500.8 1430.2 1474.4 1421.5 1463.3 1410.1 1448.6 1441.5 1434.7 1436.8 1425.9 1480.4 1405.2 1480.4 1384.9 1504.1 1386.9 1504.4 1390 1532.9 1389.4 1539.3 1398.4 1651 1341.1 1674 1378.6 1679.8 1375.2 1715.6 1402.5 1713.7 1405.5 1714 1411.8 1710.7 1419.5 1695.6 1430.3 1690.7 1438 1691 1444 1564.1 1501 Z" data-holc_grade="C"/>
<path d="M 1730.4 1710.3 1745.9 1731 1734 1726.9 1727.8 1723.9 1719.2 1724.2 1698.4 1733.3 1660.8 1756.7 1660.4 1763.3 1644.9 1772.4 1637.3 1772.6 1634.7 1774 1639.6 1817 1627.4 1821.7 1626.7 1813.1 1620.8 1807.6 1610.2 1806.5 1601.3 1806.8 1590.1 1814.2 1581.2 1816.2 1571 1820 1564.3 1825.2 1562.7 1831.6 1557.7 1837.4 1551.8 1841.8 1537.3 1847.6 1522.7 1847.8 1512.5 1847.6 1503.3 1845.6 1486.1 1839.8 1482.1 1834.9 1471.2 1824.4 1465.6 1781.4 1464.3 1773.7 1442.2 1758.6 1439.6 1755.6 1429.6 1739.6 1425.7 1734.4 1415.5 1728.6 1458.6 1697.4 1527.2 1752.3 1575.9 1749.6 1678.9 1716.6 1685.6 1720.5 1721.7 1714.9 1730.4 1710.3 Z" data-holc_grade="C"/>
<path d="M 1775.5 1597.1 1775.2 1623.8 1715.8 1623.3 1703.6 1638.2 1625 1642.8 1623 1620.8 1644.5 1614.2 1651.4 1595.5 1654.4 1587.5 1689 1598 1690 1594.4 1725.7 1594.6 1727.3 1611.2 1775.5 1597.1 Z" data-holc_grade="C"/>
<path d="M 897.9 1189.9 897.6 1228.9 852.7 1226.9 845.3 1227.6 837.7 1230.5 831.3 1237.7 822.4 1246.8 803.9 1256 790.4 1256.2 789.6 1278.5 899.5 1280.7 899.2 1273.6 996.3 1274.1 995.5 1269.7 1022.5 1269.4 1019.3 1263.3 1026.4 1248.1 1043.9 1247.9 1045.2 1229.6 1084.9 1230.7 1115 1230.5 1118.4 1258.7 1119.3 1266.4 1085.8 1268.6 1085.8 1299 877.8 1298.7 807 1358.4 804.1 1360.8 756.8 1380.7 752.3 1377.7 720.1 1356 753.1 1355.6 757.3 1317.5 705 1316.4 705.3 1336.8 691.2 1337.3 681.7 1328.5 674.5 1316.8 672.9 1301.4 693 1297.4 735.3 1293.9 746.9 1275.2 781.7 1252.7 779.8 1187.1 897.9 1189.9 Z" data-holc_grade="C"/>
<path d="M 691.2 1337.3 653.1 1337 653.1 1357.8 658.9 1357.5 658.8 1375.7 717.2 1375.6 718.2 1356.2 720.1 1356 752.3 1377.7 736.2 1393.6 742.5 1398.6 762.7 1425.7 729.8 1447.5 752.8 1468.9 746.5 1474.9 752.8 1483.1 706.9 1519.5 709.2 1559.8 683.9 1559.5 683.1 1598.1 619.7 1596.8 621.3 1567.7 563.1 1568.7 562.9 1552.3 562.7 1509.6 608.6 1511.6 633.2 1488.8 632.4 1477.5 646.6 1476.9 647.8 1469.9 657.7 1469.6 657.7 1446.8 563.7 1444.6 542.9 1444.2 542.9 1432.9 515.5 1417.7 508.8 1431.3 495.3 1431.6 493.7 1429 507 1410.9 515.5 1396.1 527.5 1385.2 540.6 1377.1 557.3 1369.9 581 1351.5 612.7 1329.6 672.9 1301.4 674.5 1316.8 681.7 1328.5 691.2 1337.3 Z" data-holc_grade="C"/>
<path d="M 493.7 1429 495.3 1431.6 494.3 1438 482.4 1441.7 475.7 1446.3 468.5 1450.3 465 1460.2 454.3 1456.5 432.9 1469.1 424.2 1473.4 409.9 1475.4 394.5 1477 355.6 1490.9 354.4 1460.5 393.7 1413.6 397.2 1408 415.5 1388.8 417 1426.1 489.9 1425.8 493.7 1429 Z M 596.1 1254 560.7 1297 588.1 1314.2 573.8 1333 563.2 1326.7 556.2 1336.7 533.2 1323.4 519.3 1341.9 536.8 1351.4 581 1351.5 557.3 1369.9 540.6 1377.1 527.5 1385.2 515.5 1396.1 507 1410.9 496.6 1398.6 490.3 1392.2 485.2 1390.5 479.1 1390.5 442.6 1368.6 522 1262.2 528.1 1265.9 555.4 1230.5 596.1 1254 Z" data-holc_grade="C"/>
<path d="M 314.4 1637.9 314.4 1688.5 190.4 1685.2 182.9 1642.5 314.4 1528.5 314.4 1637.9 Z" data-holc_grade="C"/>
<path d="M 281.5 1802.8 395.6 1746.6 440.8 1798.2 298.6 1849.4 281.5 1802.8 Z" data-holc_grade="C"/>
<path d="M 962.5 1610.8 961.4 1618.1 930.7 1617.9 931.4 1703.5 885.5 1722.2 884.5 1665.5 879.6 1671.6 852.8 1677.9 851.2 1618.4 960.1 1575.8 962.5 1610.8 Z" data-holc_grade="C"/>
<path d="M 1237.2 1330.8 1190.2 1343.8 1189.9 1399.6 1157 1416.3 1090.4 1456 1083.8 1459.9 1063.1 1435.9 1024.8 1459.7 1011.1 1443.8 951.6 1477.5 935 1457 900.1 1462.5 899.6 1510.1 850.5 1510.6 851.5 1459.5 876.9 1459.7 877.3 1441.2 904.3 1442.9 1032.9 1361.4 1091.9 1360.6 1144.8 1315.9 1182.3 1313 1191.8 1323.6 1230.1 1312.3 1237.2 1330.8 Z" data-holc_grade="C"/>
<path d="M 2109.5 1320.7 2130 1305.5 2089.7 1257.4 2103.2 1255.2 2117.1 1250.2 2124 1246.6 2140.9 1231.5 2151.8 1224.9 2160.7 1220.8 2172.2 1214.7 2179.7 1222.2 2321.1 1131.7 2340.5 1120.4 2365.5 1121.1 2410.2 1180.6 2399.1 1194.1 2348.8 1235.4 2346.8 1244.3 2318.3 1265.5 2310.8 1264.5 2296.1 1273.1 2291.8 1284.9 2285.4 1288.2 2234.3 1305.1 2221.3 1310.7 2202.6 1324.6 2190.3 1333.8 2164.2 1346.1 2140.4 1345.1 2109.5 1320.7 Z" data-holc_grade="C"/>
<path d="M 2562.7 494.4 2566.6 509 2562.7 514.6 2663.4 559.5 2741.9 594.5 2594.7 792.6 2548.8 791.8 2547.7 762.3 2473.8 725.3 2398.2 801 2363.4 778.6 2326.9 817.3 2278.8 851.6 2234.5 812 2306.3 752.1 2308.4 744.2 2391.9 662.3 2444.7 694.5 2479 640.8 2366 589.7 2432 480.6 2442.6 464.7 2442.6 421.6 2487.5 422.9 2493.8 419.8 2549.2 419.2 2546.8 431.7 2530.2 446.2 2535.3 454.2 2539.3 488.8 2547.6 493.8 2562.7 494.4 Z M 2454.8 609.3 2458.9 606.7 2460.1 603 2460.1 595.8 2460.1 589.1 2462.7 584.3 2464.6 578.3 2469.6 571.6 2477.2 565.7 2481 562.8 2481.5 558.1 2481.5 554.9 2479.1 554 2475.1 554.2 2471.1 554.4 2461 561.3 2449.6 568.5 2441.1 573.2 2436.9 577.3 2435.6 581.9 2434.8 587.3 2432.4 590.8 2428 593.5 2426.5 595.2 2426.3 597.5 2439.6 605.3 2447.7 608.6 2451.9 610 2454.8 609.3 Z M 2582.5 746.5 2591.3 740.8 2593.4 734.3 2578.2 731.2 2549.7 713.7 2543.2 719.7 2493.1 724.5 2553.3 755.3 2583.7 756.3 2582.5 746.5 Z" data-holc_grade="C"/>
<path d="M 720.1 1356 718.2 1356.2 717.2 1375.6 658.8 1375.7 658.9 1357.5 653.1 1357.8 653.1 1337 691.2 1337.3 705.3 1336.8 705 1316.4 757.3 1317.5 753.1 1355.6 720.1 1356 Z" data-holc_grade="C"/>
<path d="M 1171.2 1206.8 1137.8 1218.6 1115 1230.5 1084.9 1230.7 1086.3 1211.5 1080.7 1204.1 1141.2 1204.5 1158.9 1196.8 1159.2 1138.2 1111.6 1137.8 1084.4 1143.7 1072 1159.1 1069.4 1165.3 1072.5 1183.6 1045.1 1182.7 1043.6 1119.4 1211.3 1124.4 1210.8 1191.8 1175.7 1190.9 1175.9 1205 1171.2 1206.8 Z" data-holc_grade="C"/>
<path d="M 2266.4 992.5 2211 989.5 2210 1030 2163.5 1056 2115.9 1055.3 2112.2 1051.3 2093.2 1038.5 2099 1030.6 2090 1024.5 2094.2 1017.6 2158.6 944.1 2269 906.7 2266.4 992.5 Z M 2194.6 990.7 2189.2 991.1 2150.5 1011.2 2136.5 1001.7 2126.1 1005.4 2118.8 1014.1 2133.5 1024.4 2133.5 1030.2 2137.4 1034.5 2142.9 1037.9 2195.4 1018.7 2194.6 990.7 Z" data-holc_grade="C"/>
<path d="M 2008.6 452.2 1997 476.4 1965.3 494 1965.3 554.7 1952.1 555.6 1950 575.4 1911.5 577.6 1882.4 560.5 1880.8 644.1 1891.9 654.6 1889.3 713.2 1839.6 711.9 1841.7 641 1824.8 625.2 1834.3 617.2 1806.3 589.5 1834.9 566.2 1818 547.7 1864.4 510.7 1927.8 469.8 1992.6 406.7 2010.2 420.5 2009.2 425.3 1991.7 438.5 2008.6 452.2 Z" data-holc_grade="C"/>
<path d="M 1348.5 681 1303.3 722 1290.9 722.7 1273.2 730.4 1251.8 748.4 1256.3 754.4 1358.8 723.8 1368.5 724 1374.6 686.6 1373.6 681.4 1437.5 682.2 1447.2 691.6 1461 714.3 1406.6 730.8 1411.3 742 1251.8 788.3 1238.9 756.1 1270.3 730.1 1276.4 722.9 1285.1 712.5 1286.4 703.7 1322.2 687.6 1341.6 681 1348.5 681 Z" data-holc_grade="C"/>
<path d="M 1819.9 1229.4 1844.7 1264.3 1843.7 1286.3 1822.3 1293.2 1820 1296.7 1820 1310.5 1818.6 1312.2 1811.7 1311.9 1801.1 1308.9 1790.6 1315.7 1786 1323.2 1785.6 1332.3 1783 1338 1778.7 1339.7 1773.4 1337.5 1770.8 1331.7 1743.7 1326.2 1735.4 1345.7 1747.3 1387.9 1746.7 1401.9 1715.6 1402.5 1679.8 1375.2 1706.9 1372.7 1682.4 1337.5 1700.6 1310.2 1738.2 1292.6 1734.3 1284.4 1736.2 1268.4 1750.1 1262.9 1742.8 1251.6 1773.6 1237.2 1796.3 1227.9 1805.8 1236.3 1819.9 1229.4 Z" data-holc_grade="C"/>
</g>
<g id="D">
<path d="M 1464.6 1083 1461.4 1084.6 1414.7 1110 1379.9 1128 1313.8 1152.5 1293.5 1140.1 1280 1122.1 1267.9 1091.5 1256.8 1076.3 1249.9 1071.4 1239.4 1068.1 1227.5 1067 1213.2 1070.8 1198.2 1077.8 1181.2 1086 1175.7 1091.5 1170.7 1097.2 1151.5 1100.1 1109.3 1098.7 1066.2 1097.6 1043.2 1100.9 1041.7 1034.7 1059.4 1036.2 1058.3 1001.2 1091.1 987.5 1120.9 1031.8 1086 1046.3 1090.5 1062.4 1112.4 1069.5 1166.9 1064.4 1242.4 1006.3 1281 993.1 1317.5 973.7 1304 948.8 1288.2 963.1 1236.7 962.7 1172.3 994.2 1159.7 973.9 1246.8 933 1249.5 909.8 1252.9 903 1260.8 894.9 1279.6 884.7 1287.8 880.8 1270.1 831.2 1145.4 835.4 1151 824.4 1157.3 818 1177.9 803.3 1213 775.6 1238.9 756.1 1251.8 788.3 1411.3 742 1406.6 730.8 1461 714.3 1488 779.9 1460 788.7 1437 733.7 1423 738.1 1444.9 793.3 1334.8 826.6 1296 851 1301.8 862.7 1447.3 820.4 1472.1 880.3 1511.1 860.7 1543.8 909.3 1606.4 880.5 1694.3 880.9 1719.9 890.2 1720.7 962.8 1729.9 977.6 1591.8 1042.3 1573.3 1010.6 1554.3 1020.1 1562.5 1036.4 1464.9 1082.9 1464.6 1083 Z M 1537.2 1007.4 1501 953.2 1483.6 960.5 1488.6 995.5 1504.7 1022.3 1537.2 1007.4 Z M 1454 1011.1 1455.1 1006.7 1453.5 999.7 1448.7 989.3 1465.9 948.6 1431.3 955.6 1431.3 1002.7 1443.2 1010.2 1449.3 1011.3 1454 1011.1 Z M 1702.7 900.8 1599.4 897.5 1597.6 905.4 1576.7 905 1566.9 908.5 1555.3 913.8 1552.4 958 1587.3 1003.4 1706.9 947 1698.7 929.9 1707.5 920.2 1702.7 900.8 Z" data-holc_grade="D"/>
<path d="M 2634.4 1046.7 2631.7 858.2 2703.7 795.5 2708 863.5 2729.5 873.6 2742 886.3 2752.9 900.3 2759.8 917.4 2762.2 934.7 2760.5 957.3 2748.3 974.4 2735.7 985.9 2728.8 989.8 2718.2 1009.6 2695.5 1020.9 2634.4 1046.7 Z" data-holc_grade="D"/>
<path d="M 2476.6 1081.1 2566.4 1044.3 2568.1 1124.6 2482.6 1128.2 2476.6 1081.1 Z" data-holc_grade="D"/>
<path d="M 2908.4 919.3 2999 918.2 2998.6 1023.2 2903.3 1030.1 2908.4 919.3 Z" data-holc_grade="D"/>
<path d="M 2498.5 382.6 2483.6 368.6 2484.9 252.3 2481.6 126 2589.9 127.1 2635.1 177.7 2645.4 262.4 2613.7 261.9 2614.7 274.8 2618.3 295.7 2617.3 303.1 2614.7 311.4 2609.1 315.5 2601.8 322.9 2595.5 331.5 2594.9 339.7 2593.5 350.2 2592.5 358.7 2588.3 366.1 2583.6 369.7 2582.6 371.6 2582.3 383.4 2498.5 382.6 Z" data-holc_grade="D"/>
<path d="M 2498.5 382.6 2493.8 419.8 2487.5 422.9 2442.6 421.6 2442.6 464.7 2432 480.6 2252.4 596.3 2251.9 546.6 2209.1 545.3 2183.2 555 2175.8 562 2122.5 578.7 2106.6 578.7 2105.6 457.9 2105.6 452.8 2194.9 455.5 2190.1 408 2345.4 371.9 2483.6 368.6 2498.5 382.6 Z" data-holc_grade="D"/>
<path d="M 2029.8 337.6 2076.5 291 2107.8 252.4 2246.5 252.7 2390.3 251.4 2349.9 295 2308.3 338.2 2178.7 340.2 2029.8 337.6 Z" data-holc_grade="D"/>
<path d="M 1960.8 171.6 1908.2 171.9 1909.3 129.7 1962.4 129.7 1960.8 171.6 Z M 2085.6 173.9 2056.7 174.9 2058.3 118.5 2088 117.1 2085.6 173.9 Z M 2206.1 152.1 2153 154.7 2155.4 41.6 2239 40.9 2236.2 85.1 2270.7 91.7 2239.8 130.7 2206.1 152.1 Z M 2406.9 40.3 2320.6 41.2 2317 34.7 2359.4 1 2407.7 5.3 2406.9 40.3 Z" data-holc_grade="D"/>
<path d="M 1437.5 682.2 1373.6 681.4 1348.5 681 1341.6 681 1322.2 687.6 1324.2 606.7 1160.1 611 1161.3 533.4 1157.8 527.5 1155.4 474 1313.9 466.4 1407.4 590.2 1553.6 403.4 1688.6 508.3 1536.9 655.9 1537.7 683.6 1437.5 682.2 Z" data-holc_grade="D"/>
<path d="M 1285.1 712.5 1276.4 722.9 1270.3 730.1 1238.9 756.1 1213 775.6 1177.9 803.3 1157.3 818 1151 824.4 1145.4 835.4 1139.5 837.3 1103.9 869.7 1090 876.6 1087.6 710.9 1285.1 712.5 Z" data-holc_grade="D"/>
<path d="M 595.3 992.9 515.5 993.7 514.4 895.6 596.3 894.7 595.3 992.9 Z M 712.5 773.6 469 904.4 462.7 793.4 662.4 699.6 712.5 773.6 Z" data-holc_grade="D"/>
<path d="M 2432 480.6 2366 589.7 2479 640.8 2444.7 694.5 2391.9 662.3 2308.4 744.2 2306.3 752.1 2234.5 812 2278.8 851.6 2326.9 817.3 2363.4 778.6 2398.2 801 2473.8 725.3 2547.7 762.3 2548.8 791.8 2594.7 792.6 2504.1 915.5 2492.5 913.3 2319.7 903.6 2321.8 995.2 2266.4 992.5 2269 906.7 2158.6 944.1 2094.2 1017.6 2054 956 2057.7 848.1 2077.3 864.4 2104.2 864.4 2164.2 825.2 2163.7 815.1 2188.5 798.8 2192.2 785.2 2202.2 778.1 2177.9 768.9 2173.2 757.4 2161.6 752.6 2166.9 748.6 2206.5 692.7 2206.5 678.6 2209.1 663.2 2248.7 664.5 2252.4 596.3 2432 480.6 Z" data-holc_grade="D"/>
<path d="M 512.3 1102.5 339 1216.1 255 1203.8 444.7 971.7 512.3 1102.5 Z M 304.2 1077 160 1198.1 1 1130.7 203.3 947.9 304.2 1077 Z" data-holc_grade="D"/>
<path d="M 994 1688.6 1147.6 1693.3 1150.2 1731.6 994 1730.8 994 1688.6 Z" data-holc_grade="D"/>
<path d="M 522 1262.2 442.6 1368.6 479.1 1390.5 485.2 1390.5 490.3 1392.2 496.6 1398.6 507 1410.9 493.7 1429 489.9 1425.8 417 1426.1 415.5 1388.8 397.2 1408 380.9 1401 337.7 1455.5 331.4 1501.8 333.4 1527.5 349.3 1510.1 415.1 1512.4 411.8 1551 562.9 1552.3 563.1 1568.7 621.3 1567.7 619.7 1596.8 683.1 1598.1 683.9 1559.5 709.2 1559.8 706.9 1519.5 752.8 1483.1 746.5 1474.9 752.8 1468.9 729.8 1447.5 762.7 1425.7 742.5 1398.6 736.2 1393.6 752.3 1377.7 756.8 1380.7 804.1 1360.8 807 1358.4 877.8 1298.7 1085.8 1299 1085.8 1268.6 1119.3 1266.4 1118.4 1258.7 1189.5 1245.9 1194.4 1256.3 1220.3 1268.9 1220.8 1281.5 1224.4 1293.4 1128.3 1312.1 1086.7 1320.4 1041.9 1331.9 898.1 1393.4 873 1405.2 874.4 1355.7 845.4 1342.2 781.7 1395 785.2 1403 782.8 1409.6 812.5 1448.9 785.4 1480.6 734.2 1548 692.3 1601.9 659.4 1641.9 445.1 1641.2 409.4 1682.8 363.1 1665 362.7 1638.9 314.4 1637.9 314.4 1528.5 318.3 1441 348.4 1405.9 360.3 1392.1 387.6 1361 364.2 1355.1 362.7 1351.1 321.5 1350.8 322.2 1392.4 265.2 1397.7 236.7 1398.3 123.8 1395.4 122.6 1337.9 175.7 1336.2 168.9 1225.9 227.2 1223.6 228.8 1263.2 378.1 1257 374.1 1306.2 417.3 1326.3 492.6 1221.3 519.1 1235.8 504.1 1252.7 522 1262.2 Z M 779.8 1187.1 781.7 1252.7 746.9 1275.2 735.3 1293.9 693 1297.4 672.9 1301.4 612.7 1329.6 588.1 1314.2 560.7 1297 596.1 1254 600.8 1257.1 675 1256.7 674.5 1234.4 610.9 1234.4 571.8 1211.5 620.4 1151 600.8 1141.7 660.8 1067.1 597.6 1044.2 642 1001.7 663.1 985.8 705.4 949.3 709.9 986.7 694.8 1004.8 689 1007.2 678.5 1009.8 709.1 1022.2 755.3 974.6 754.8 960.3 751.9 953.9 745.3 941.6 741.6 937.4 733.9 935.9 721.8 935.2 707.8 937.8 681.6 915.2 683 861.9 854.1 865.4 856 953.5 805.2 954.1 805.8 994.4 764.3 994.6 761.9 1038 760.1 1046.4 756.9 1186 779.8 1187.1 Z" data-holc_grade="D"/>
<path d="M 2087.4 1114.3 2055.1 1059.7 2047.7 1063.6 2036.1 1065 2029.3 1068.5 2019.2 1072.5 1959 1107.2 1915.2 1127.9 1921.5 1137.6 1895.6 1151.3 1903.5 1162.3 1844.9 1192.7 1837 1182.1 1820.1 1188.7 1842.8 1221.7 1830.1 1224.4 1819.9 1229.4 1805.8 1236.3 1796.3 1227.9 1773.6 1237.2 1765.1 1225.3 1694.3 1256.5 1663.7 1208.1 1821.1 1130.6 1830.1 1141.6 1877.1 1118.7 1869.2 1108.6 1913.6 1087.9 1892.4 1048.2 1852.8 1064.1 1858.1 1056.6 1857 980.4 1769.4 978.7 1750.9 949.2 1815.8 917 1796.3 886.6 1773.6 895 1750.9 860.7 1774.6 850.1 1761.4 835.1 1786.8 824.6 1782 816.6 1815.3 777.5 1814.8 653.3 1777.3 651.6 1777.3 597 1784.1 590.8 1780.5 485.6 1841.7 496.6 1905.6 457 1937.3 425.8 1961.1 414.3 1981.7 398.1 1992.6 406.7 1927.8 469.8 1864.4 510.7 1818 547.7 1834.9 566.2 1806.3 589.5 1834.3 617.2 1824.8 625.2 1841.7 641 1839.6 711.9 1889.3 713.2 1891.9 654.6 1880.8 644.1 1882.4 560.5 1911.5 577.6 1950 575.4 1952.1 555.6 1965.3 554.7 1965.3 494 1997 476.4 2008.6 452.2 2105.6 457.9 2106.6 578.7 2053.5 580.3 2016 575.4 2020.3 675.3 1945.8 719.8 1865.5 748.4 1863.9 918.8 1900.9 921 1901.4 849.7 1935.8 851 1937.9 821.5 2057.2 824.6 2056.2 782.3 2130.1 784.1 2127.5 812.7 2106.9 823.7 2060.4 824.6 2057.8 827.2 2057.7 848.1 2054 956 2094.2 1017.6 2090 1024.5 2099 1030.6 2093.2 1038.5 2112.2 1051.3 2115.9 1055.3 2139.1 1079.9 2087.4 1114.3 Z" data-holc_grade="D"/>
<path d="M 1651 1341.1 1539.3 1398.4 1532.9 1389.4 1504.4 1390 1504.1 1386.9 1480.4 1384.9 1483.8 1376 1470.1 1355.6 1531.1 1327.5 1613.1 1289.7 1651 1341.1 Z M 1682.4 1337.5 1661 1307.2 1678.1 1303.6 1666.3 1285.7 1742.8 1251.6 1750.1 1262.9 1736.2 1268.4 1734.3 1284.4 1738.2 1292.6 1700.6 1310.2 1682.4 1337.5 Z" data-holc_grade="D"/>
<path d="M 1230.1 1312.3 1191.8 1323.6 1182.3 1313 1144.8 1315.9 1091.9 1360.6 1032.9 1361.4 904.3 1442.9 877.3 1441.2 876.9 1459.7 851.5 1459.5 850.5 1510.6 899.6 1510.1 900.1 1462.5 935 1457 951.6 1477.5 1011.1 1443.8 1024.8 1459.7 1063.1 1435.9 1083.8 1459.9 1090.4 1456 1091 1565.5 1138.5 1567.8 1139.3 1611.5 1186.4 1612.8 1189.9 1399.6 1244.1 1373.3 1252.3 1386.7 1246.7 1391.1 1283.7 1444.4 1315.6 1428.6 1332.3 1454.1 1480.4 1384.9 1480.4 1405.2 1436.8 1425.9 1441.5 1434.7 1410.1 1448.6 1421.5 1463.3 1372.1 1460.5 1329.3 1517 1377.7 1518 1377.7 1536.1 1428.6 1536.5 1427.3 1581.7 1361.8 1580.4 1366.6 1570.5 1284.4 1569.2 1268.9 1581.7 1179 1643.5 1071.2 1640.5 1072.4 1614.4 962.5 1610.8 960.1 1575.8 851.2 1618.4 818.7 1639.2 778.4 1640.2 753.8 1652.4 746.3 1657.4 734.8 1682.2 726.5 1692.1 711.4 1699.4 854.1 1700.7 856 1763.8 843.4 1768.8 844.1 1821 816 1821 810.9 1925.4 665.1 1922.5 659.1 1998.5 485.2 1989.9 442 2035.5 394.1 1977.7 424.2 1950.9 438.1 1966.1 450.3 1952.2 539.9 1886.1 519.7 1868.9 686.7 1725.1 686.7 1720.9 675.2 1718.2 611 1717.9 612.6 1659.7 700.2 1664.3 718 1646.5 712.1 1631.3 712.5 1604.5 692.3 1601.9 734.2 1548 785.4 1480.6 812.5 1448.9 826.4 1432.7 833.1 1426.1 862.5 1410.2 873 1405.2 898.1 1393.4 1041.9 1331.9 1086.7 1320.4 1128.3 1312.1 1224.4 1293.4 1230.1 1312.3 Z" data-holc_grade="D"/>
<path d="M 1224.4 1293.4 1220.8 1281.5 1220.3 1268.9 1194.4 1256.3 1189.5 1245.9 1171.2 1206.8 1175.9 1205 1175.7 1190.9 1210.8 1191.8 1211.3 1124.4 1043.6 1119.4 1043.2 1100.9 1066.2 1097.6 1109.3 1098.7 1151.5 1100.1 1170.7 1097.2 1175.7 1091.5 1181.2 1086 1198.2 1077.8 1213.2 1070.8 1227.5 1067 1239.4 1068.1 1249.9 1071.4 1256.8 1076.3 1267.9 1091.5 1280 1122.1 1293.5 1140.1 1313.8 1152.5 1379.9 1128 1414.7 1110 1461.4 1084.6 1464.6 1083 1507 1142.7 1491.4 1150.6 1500.1 1164.7 1472.1 1178.2 1481.9 1190.7 1448.3 1206.4 1462.9 1225.7 1388.1 1259.9 1393.4 1269.6 1329.2 1296.2 1341.9 1312.5 1321 1317.8 1336.6 1337.8 1339.3 1372.8 1381 1372.8 1392.6 1391.4 1423.5 1377.3 1426.4 1321.1 1501.7 1285.6 1531.1 1327.5 1470.1 1355.6 1483.8 1376 1480.4 1384.9 1332.3 1454.1 1315.6 1428.6 1283.7 1444.4 1246.7 1391.1 1252.3 1386.7 1244.1 1373.3 1245.9 1345.1 1237.2 1330.8 1230.1 1312.3 1224.4 1293.4 Z M 1281.7 1206.8 1279.6 1177.1 1228.6 1174.9 1228.3 1206.8 1281.7 1206.8 Z" data-holc_grade="D"/>
<path d="M 1816.8 1466.8 1820.4 1544 1807.2 1543.2 1798.3 1552 1774.2 1559.7 1775.5 1597.1 1727.3 1611.2 1725.7 1594.6 1690 1594.4 1689 1598 1654.4 1587.5 1651.4 1595.5 1624 1588.9 1619.4 1580.6 1618 1575.4 1620 1551.1 1669.6 1547.6 1671.9 1498.5 1711.5 1498.3 1706.9 1490.3 1775.9 1455.6 1785.8 1467.4 1816.8 1466.8 Z" data-holc_grade="D"/>
<path d="M 1527.9 722.2 1557.4 722.2 1556.4 709.2 1585.2 710.1 1586.8 677.1 1657.8 658.4 1683.7 618.6 1699.3 613.1 1676.8 589.3 1725.2 558.5 1748.4 586.6 1720.9 729.7 1671.5 729.5 1671.5 808.3 1533.9 804.3 1528.1 776.6 1527.9 722.2 Z" data-holc_grade="D"/>
</g>
</svg>