<?xml version="1.0"?>
<svg xmlns="http://www.w3.org/2000/svg" version="1.2" baseProfile="tiny" width="3000" height="2026" viewBox="0 0 3000 2026" stroke-linecap="round" stroke-linejoin="round">
<g id="A">
<path d="M 502.3 726.9 522.6 804.1 515.8 833.9 504.9 943.5 471 950.3 397.6 952.9 347.4 791.9 386.8 777 449.3 721.5 492.8 703.9 502.3 726.9 Z" data-holc_grade="A"/>
</g>
<g id="B">
<path d="M 1230.4 545.7 1172 571.4 1147.6 510.5 1085.1 541.6 1062 563.3 1098.7 608 1060.6 633.7 984.6 572.8 1044.3 503.7 1121.8 448.3 1106.8 395.5 1320.1 311.6 1367.8 307.7 1359.5 482.1 1310.6 490.2 1230.4 545.7 Z" data-holc_grade="B"/>
<path d="M 1833.4 813.6 1620.6 876.8 1600.6 795.6 1634.1 772.1 1652.2 741.4 1632.3 686.4 1657.7 658.4 1693 637.7 1713.8 640.4 1825.2 765.8 1804.4 781.1 1833.4 813.6 Z" data-holc_grade="B"/>
<path d="M 1253.5 674.3 1256.2 712.2 1269.8 739.3 1364.9 721.7 1352.7 834 1343.2 850.3 1258.9 876 1267.1 899 1220.9 913.9 1188.3 882.7 1147.5 877.3 1138 916.6 1189.7 932.8 1226.3 926 1238.6 961.2 1267.1 982.9 1261.7 993.7 1207.3 968 1151.6 957.2 1140.7 997.8 1105.4 992.4 1032.1 978.8 1045.6 915.2 1010.3 896.2 1000.8 916.5 975 915.2 975 928.7 928.8 920.6 924.7 934.1 890.8 930.1 859.5 936.8 859.5 959.8 779.4 950.3 788.9 982.8 723.7 973.3 680.2 981.5 632.6 966.5 640.8 936.8 631.3 904.3 850 847.5 931.5 850.2 1034.9 799.1 1136.7 748.7 1079.6 704.1 1109.5 660.7 1144.9 652.6 1177.4 720.3 1253.5 674.3 Z" data-holc_grade="B"/>
<path d="M 1034.9 799.1 931.5 850.2 850 847.5 631.3 904.3 640.8 936.8 632.6 966.5 680.2 981.5 677.9 1003.3 597.5 982.3 593.9 1047.3 453.3 1031.4 459.8 970 406.2 981.5 397.6 952.9 471 950.3 504.9 943.5 515.8 833.9 552.5 854.2 627.2 829.8 647.6 786.5 707.4 785.2 716.9 741.9 760.4 743.2 790.3 709.4 798.4 670.2 873.2 659.4 899 664.8 939.7 649.9 998.1 702.7 999.5 727.1 1034.9 799.1 Z" data-holc_grade="B"/>
<path d="M 515.8 833.9 522.6 804.1 502.3 726.9 640.9 698.6 644.9 721.6 661.2 735.1 689.8 728.3 696.6 683.7 798.4 670.2 790.3 709.4 760.4 743.2 716.9 741.9 707.4 785.2 647.6 786.5 627.2 829.8 552.5 854.2 515.8 833.9 Z" data-holc_grade="B"/>
<path d="M 677.9 1003.3 725.7 1021.3 748.9 1053.1 766.3 1096.4 775 1148.4 657.6 1206.9 561.9 1228.5 578.6 1183 594.6 1094.2 593.9 1047.3 597.5 982.3 677.9 1003.3 Z" data-holc_grade="B"/>
<path d="M 1181.9 1093.4 1219.9 1151.4 1253.9 1204.8 1277.1 1220.7 1395.2 1217.1 1395.2 1245.2 1335.8 1245.2 1287.3 1253.9 1253.9 1247.4 1215.5 1219.2 1198.1 1188.9 1162.6 1124.6 1111.9 1078.4 1101.1 1053.9 1102.5 1027.9 1105.4 1008.4 1143.8 1017.8 1132.9 1039.4 1139.5 1074.1 1167 1090.7 1181.9 1093.4 Z" data-holc_grade="B"/>
</g>
<g id="C">
<path d="M 2170.6 378.2 2086.2 539.3 1893.3 482.5 1887.9 493.3 1724.9 422.9 1727.6 452.7 1704.5 500.1 1676 489.2 1435.6 325.5 1424.2 309.9 1452.4 288.2 1435 263.7 1479.2 232 1407.5 148.9 1480.7 1 1921.8 260.1 2170.6 378.2 Z" data-holc_grade="C"/>
<path d="M 877.9 179.6 1369 281.8 1367.8 307.7 1320.1 311.6 1106.8 395.5 1121.8 448.3 1044.3 503.7 984.6 572.8 1060.6 633.7 1098.7 608 1062 563.3 1085.1 541.6 1147.6 510.5 1172 571.4 1230.4 545.7 1286.1 654 1253.5 674.3 1177.4 720.3 1144.9 652.6 1109.5 660.7 1079.6 704.1 1136.7 748.7 1034.9 799.1 999.5 727.1 998.1 702.7 939.7 649.9 899 664.8 873.2 659.4 798.4 670.2 696.6 683.7 689.8 728.3 661.2 735.1 644.9 721.6 640.9 698.6 502.3 726.9 492.8 703.9 449.3 721.5 386.8 777 347.4 791.9 397.6 952.9 406.2 981.5 226.4 1001.4 77 979.7 13.2 819.9 1 767.1 123.3 772.6 120.6 721.2 179 734.7 202.1 759.1 309.4 774 351.5 721.3 434.4 653.6 464.3 611.7 537.7 495.3 613.7 529.2 650.4 534.6 698 449.3 549.9 357.3 668.1 330.2 733.3 403.3 793.1 376.3 897.7 425 946.6 391.2 890.9 278.9 896.3 250.4 821.6 238.2 821.6 167.9 877.9 179.6 Z" data-holc_grade="C"/>
<path d="M 1424.2 309.9 1435.6 325.5 1510.3 439.2 1674.7 628.6 1713.8 640.4 1693 637.7 1657.7 658.4 1632.3 686.4 1604 710.8 1499.4 698.7 1492.6 731.2 1364.9 721.7 1269.8 739.3 1256.2 712.2 1253.5 674.3 1286.1 654 1230.4 545.7 1310.6 490.2 1359.5 482.1 1367.8 307.7 1369 281.8 1424.2 309.9 Z" data-holc_grade="C"/>
<path d="M 2055.3 1011.2 2158.6 1124 2078 1266.6 2004.1 1415.3 1988.3 1447.1 1942.1 1416.4 1794.5 1297.3 1645 1223.3 1605.2 1179.1 1618.8 1161.9 1612.4 1134 1647.7 1041.9 1573.5 992.3 1579.8 961.6 1617.8 963.4 1625.1 933.6 1620.6 876.8 1833.4 813.6 1988.3 1011.2 2055.3 1011.2 Z" data-holc_grade="C"/>
<path d="M 1689.8 1804.9 1862 1933.1 1818.6 1996.4 1764.6 1957.4 1717.7 2025 1626.3 1966.1 1586.3 1923.6 1689.8 1804.9 Z" data-holc_grade="C"/>
<path d="M 1267.1 982.9 1296 933.3 1368.4 952.8 1339.5 976.7 1344.5 1001.9 1303.2 1026.5 1283.7 1022.1 1227.9 1052.5 1225.7 1082.8 1219.9 1100.1 1181.9 1093.4 1167 1090.7 1139.5 1074.1 1132.9 1039.4 1143.8 1017.8 1105.4 1008.4 1033 1010.6 934.4 1006.9 885.1 993.9 788.9 982.8 779.4 950.3 859.5 959.8 859.5 936.8 890.8 930.1 924.7 934.1 928.8 920.6 975 928.7 975 915.2 1000.8 916.5 1010.3 896.2 1045.6 915.2 1032.1 978.8 1105.4 992.4 1140.7 997.8 1151.6 957.2 1207.3 968 1261.7 993.7 1267.1 982.9 Z" data-holc_grade="C"/>
</g>
<g id="D">
<path d="M 1862 1933.1 1689.8 1804.9 1621.5 1739.6 1585.2 1520.2 1597 1490.4 1518.2 1485.9 1517.3 1397.5 1560.8 1398.4 1566.2 1303.6 1513.7 1275.7 1540 1196.2 1584.3 1219.7 1595.2 1234.1 1611.5 1252.2 1760.1 1325.3 1957.6 1471.5 1953.9 1483.2 2182.2 1675.4 2173.2 1686.2 2227.6 1731.4 1997.5 1874 1914.1 1975.1 1862 1933.1 Z M 2850.9 233.2 2999 384.7 2891.8 583.7 2844.3 625.7 2628.3 658.2 2568.5 678.5 2652.8 801.7 2572.6 859.9 2549.5 804.4 2502 811.2 2478.9 824.8 2458.5 869.4 2436.8 877.6 2381.1 878.9 2320 842.4 2379.7 732.7 2366.1 701.6 2291.4 648.8 2215.3 693.5 2207.2 743.6 2173.2 749 2294.1 831.6 2329.6 1011.4 2229 1003.5 2055.3 1011.2 1988.3 1011.2 1833.4 813.6 1804.4 781.1 1825.2 765.8 1713.8 640.4 1674.7 628.6 1510.3 439.2 1435.6 325.5 1676 489.2 1704.5 500.1 1727.6 452.7 1724.9 422.9 1887.9 493.3 1893.3 482.5 2086.2 539.3 2170.6 378.2 2213.9 295.6 2414.9 410.6 2428.5 399.8 2472 421.4 2533.1 271.2 2579.2 208.9 2701.5 302.3 2783 336.1 2850.9 233.2 Z" data-holc_grade="D"/>
<path d="M 2329.6 1011.4 2521.1 1026.4 2655.6 1067 2696.4 1100.8 2729 1107.6 2731.7 1080.5 2776.5 1071 2863.5 1084.5 2957.2 1146.7 2928.8 1256.4 2996.7 1269.9 2991.3 1305.1 2927.4 1295.6 2915.2 1362 2739.9 1330.9 2735.9 1371.5 2673.4 1363.4 2676.1 1324.2 2600 1310.7 2616.2 1206.4 2548.3 1192.9 2454.6 1433.9 2388 1366.2 2350 1405.5 2226.3 1347.3 2208.7 1390.6 2408.4 1498.9 2369.1 1599.1 2290.3 1593.7 2290.2 1543.6 2303.8 1523.3 2233.2 1503 2220.9 1551.7 2222.3 1582.9 2131.3 1576.1 2143.5 1535.5 2004.1 1415.3 2078 1266.6 2158.6 1124 2055.3 1011.2 2229 1003.5 2329.6 1011.4 Z" data-holc_grade="D"/>
</g>
</svg>