<?xml version="1.0"?>
<svg xmlns="http://www.w3.org/2000/svg" version="1.2" baseProfile="tiny" width="3000" height="4237" viewBox="0 0 3000 4237" stroke-linecap="round" stroke-linejoin="round">
<g id="A">
<path d="M 2170.3 1339.6 2160.3 1340 2100.5 1296.3 2055.7 1295.6 1968.8 1294.4 1976.2 1349.3 1980 1402.4 1944.5 1403.3 1946.4 1488 1897.8 1540.2 1825.8 1480.6 1800.6 1449 1745.1 1418.2 1773.5 1380.1 1864.1 1239.5 1919.2 1234.9 1911.2 1172.1 1967.6 1166.7 2117.1 1144.9 2244.8 1126.3 2309.8 1184.5 2374.3 1214.3 2346.3 1379 2286.5 1409.8 2282.8 1365.1 2263.1 1336.2 2170.3 1339.6 Z" data-holc_grade="A"/>
<path d="M 1245.1 2341.3 1252.1 2364.6 1271.5 2505.8 1192.8 2543.9 1155.4 2468.6 1219.3 2440.6 1202.2 2321.1 1245.1 2341.3 Z" data-holc_grade="A"/>
<path d="M 828.9 2665.6 878.8 2803.8 811 2809.2 786.8 2792.9 758 2783.6 739.3 2796 621.6 2844.1 606 2814.6 531.2 2843.2 485.2 2859.5 477.5 2832.4 497.7 2821.5 475.1 2779.6 487.6 2775.7 481.4 2760.2 530.5 2670.2 535.2 2643 565.6 2625.9 594.4 2617.4 623.3 2622.9 635.7 2654.7 670.8 2666.3 683.2 2642.3 731.5 2654.7 729.2 2669.5 752.6 2674.9 793.1 2678.8 828.9 2665.6 Z" data-holc_grade="A"/>
<path d="M 2125.6 3034.2 2173.3 3059.3 2226.6 3097.5 2308.9 3145.9 2217.3 3193.5 2143.4 3221.4 2188.3 3310.8 2227.6 3319.2 2254.7 3324.8 2295.8 3232.6 2388.4 3266.1 2392.2 3361.1 2412.8 3361.1 2473.6 3339.6 2497.9 3320 2513.8 3307.9 2513.8 3335.9 2526 3375 2541.9 3407.6 2569.9 3432.7 2570 3454.2 2545.6 3470 2509.2 3482.1 2452.1 3500.8 2411 3507.3 2411 3531.6 2420.3 3570.7 2420.4 3658.3 2386.7 3655.5 2353 3640.6 2321.2 3608.9 2294.1 3571.7 2289.4 3543.7 2221.1 3522.3 2197.7 3513.9 2184.6 3501.8 2101.3 3413.3 1970.4 3523.3 1854.4 3369.6 1918 3340.7 1965.7 3211.2 2013.4 3121.8 2012.4 3022.1 2071.3 3027.7 2125.6 3034.2 Z" data-holc_grade="A"/>
</g>
<g id="B">
<path d="M 1693.5 724.7 1794 903 1718.4 954.2 1688.1 972.8 1632 1019.4 1569 1065.9 1488.8 951.1 1445.9 876.7 1530 820.1 1476.3 727.8 1456.1 688.2 1558.8 612.2 1585.3 589.7 1604.8 568.8 1644.5 634.7 1693.5 724.7 Z" data-holc_grade="B"/>
<path d="M 2275 2646.7 2273.9 2718.7 2282.5 2785.4 2284.8 2816.5 2190.5 2721.8 2160.9 2747.4 2105.5 2686.9 2059.6 2727.3 2004.3 2692.4 1988.7 2673 1980.9 2638 1969.2 2615.5 1941.9 2601.6 1910 2593 1895.9 2612.4 1883.5 2621 1839.4 2601.7 1840.6 2599.1 1884.4 2503.9 1940.3 2520.1 2006.6 2544.9 2051.8 2562.7 2086.8 2586 2113.3 2608.5 2153.1 2644.2 2180.3 2620.1 2121.9 2568.2 2073.6 2535.6 2012 2506.1 1898.6 2471.3 1899.8 2468.7 1900.5 2469 1905.5 2458 1801.9 2256.3 1782.4 2228.3 1776.9 2211.3 1746.5 2147.6 1717.1 2097.2 1737.7 2091.8 1769.7 2108.1 1800.8 2120.5 1835.1 2124.3 1860 2163.1 1874.8 2178.7 1913 2155.4 1931.7 2145.3 1955.1 2148.4 1992.5 2171.6 2011.9 2177.1 2039.2 2179.4 2065.7 2185.6 2086 2288 2174.8 2327.6 2196.6 2299.6 2214.5 2288 2240.2 2280.2 2269 2278.7 2278.4 2284.1 2278.4 2424.5 2275 2646.7 Z" data-holc_grade="B"/>
<path d="M 2637.5 2344.1 2660.5 2359 2735.3 2385.1 2802.7 2398.1 2884.3 2414.1 2973.4 2426.5 2999 2427.7 2931.7 2516.6 2891.3 2561.9 2867 2584.3 2847.6 2581.2 2783.4 2576.2 2729.8 2579.4 2709.9 2544.6 2702.4 2521.7 2677.4 2462.1 2647.5 2415.5 2610.7 2366.5 2637.5 2344.1 Z" data-holc_grade="B"/>
<path d="M 375.3 3030.2 280.2 3027.9 293.5 2892.8 291.2 2882.7 314.6 2883.5 345 2892.8 370.7 2913 378.4 2939.4 378.4 2983.7 375.3 3030.2 Z" data-holc_grade="B"/>
<path d="M 2160.9 2747.4 2190.5 2721.8 2284.8 2816.5 2282.5 2785.4 2273.9 2718.7 2275 2646.7 2441.5 2647.6 2517.2 2637.3 2611.6 2599.1 2618.2 2612.1 2633.2 2695 2643.5 2733.2 2665 2754.6 2723 2835.6 2783.8 2910 2780.1 2932.4 2781.1 2979.9 2787.6 3026.5 2785.8 3058.1 2761.5 3062.8 2749.3 3074.9 2743.7 3090.8 2739.1 3136.4 2727.9 3181.1 2713.9 3232.4 2713 3255.7 2563.3 3287.4 2530.6 3293.9 2513.8 3307.9 2497.9 3320 2473.6 3339.6 2412.8 3361.1 2392.2 3361.1 2388.4 3266.1 2295.8 3232.6 2254.7 3324.8 2227.6 3319.2 2188.3 3310.8 2143.4 3221.4 2217.3 3193.5 2308.9 3145.9 2226.6 3097.5 2173.3 3059.3 2125.6 3034.2 2125.5 2994.1 2136.8 2947.6 2166.7 2942.9 2189.1 2927.1 2160.1 2880.5 2140.5 2858.1 2129.2 2823.7 2128.3 2800.4 2140.4 2767.8 2160.9 2747.4 Z" data-holc_grade="B"/>
<path d="M 437.5 3691.1 328.1 3715.7 165.3 3755.7 113.8 3730.5 156.9 3656.9 64.3 3614 74.6 3588.8 68.1 3578.6 83.1 3544.1 147.6 3539.5 175.7 3540.4 245.8 3568.4 278.6 3531.2 314.1 3508.8 349.7 3507.9 367.4 3521 432 3581.6 373 3665.4 437.5 3691.1 Z" data-holc_grade="B"/>
<path d="M 2012.4 3022.1 2013.4 3121.8 1965.7 3211.2 1918 3340.7 1854.4 3369.6 1970.4 3523.3 2101.3 3413.3 2184.6 3501.8 2105.2 3691.6 2090 3725.6 2080.2 3747.6 2055.3 3736.4 2017.9 3736.4 1916.8 3607.2 1875.7 3639.5 1901.9 3679.3 1896.9 3694.2 1859.5 3724 1819.5 3745.1 1859.5 3797.3 1840.8 3802.3 1803.3 3819.7 1759.7 3834.6 1717.3 3822.2 1647.4 3820.9 1596.8 3823.1 1590 3837.4 1588.1 3879.7 1592.9 3890.5 1555.5 3909.2 1511.8 3968.2 1483 3978.3 1465.9 3969 1444.8 3959.6 1426.1 3941.8 1413.6 3915.4 1390.2 3833.8 1384 3819.1 1358.3 3809.8 1325.5 3815.2 1285.8 3830 1230.4 3851.7 1217 3820 1187.1 3725 1146.6 3597 1229.5 3585.2 1232.6 3554.2 1249.5 3554.2 1286.3 3627.5 1338.6 3615 1369.2 3693.9 1440.9 3677.2 1536.9 3677.8 1611.8 3686.5 1608.8 3620.9 1578.8 3602.3 1542.7 3571.2 1522.7 3530.2 1490.3 3543.9 1457.8 3497.9 1610 3427.1 1739.7 3373.7 1687.3 3310.4 1550.1 3130.3 1545.1 3117.8 1563.8 3100.5 1538.7 3067.7 1470.1 2978.3 1466.6 2973.8 1475.3 2969.9 1536.4 2942.7 1567.2 2927.2 1667.3 2876.9 1745.9 3013.5 1879.3 3003.6 2007.7 3002.3 2012.4 3022.1 Z" data-holc_grade="B"/>
<path d="M 1376.8 1229.8 1340.1 1234.8 1311.4 1232.3 1280.9 1227.3 1318.5 1202.8 1280.1 1150.2 1272.1 1154.2 1206.9 1064.8 1321 986.9 1359.8 1055.4 1416.7 1017.2 1452 1068.8 1495.4 1121.4 1429.6 1168.1 1469.5 1226.7 1419.1 1230.1 1389.7 1230.1 1376.8 1229.8 Z" data-holc_grade="B"/>
<path d="M 1745.1 1418.2 1690.3 1491.8 1558.5 1400.6 1514.6 1454.6 1474.4 1426.6 1420.2 1485.3 1314.6 1432.2 1265.1 1455.5 1261.4 1421 1166 1443.4 1113.7 1356.8 1148.3 1353.1 1262.3 1335.4 1255.3 1319.8 1303.3 1309.8 1345.7 1301.8 1388.6 1301.8 1376.8 1229.8 1389.7 1230.1 1419.1 1230.1 1469.5 1226.7 1631.3 1207.8 1790.9 1183.8 1911.2 1172.1 1919.2 1234.9 1864.1 1239.5 1773.5 1380.1 1745.1 1418.2 Z" data-holc_grade="B"/>
<path d="M 2286.5 1409.8 2346.3 1379 2374.3 1214.3 2309.8 1184.5 2244.8 1126.3 2237.8 1116.2 2374.9 1101.4 2367.9 1078.1 2331.2 1013.8 2282.2 944.5 2324 918.6 2307.1 890 2357.6 857.1 2404.9 823 2525.1 770.2 2619.2 925.3 2684.7 1043.7 2690.9 1056.1 2676.7 1175.3 2672.4 1295.7 2649.3 1373.9 2639.4 1409.2 2606.5 1618.4 2551 1637 2538 1702.8 2519.3 1720.2 2485.7 1771.7 2432.7 1830.1 2392.2 1879.8 2364.8 1913.9 2316.9 1967.3 2291.3 1945 2301.9 1846.9 2172.8 1731.5 2231.4 1671.9 2232 1630.9 2237 1571.4 2242.6 1534.1 2256.9 1487.6 2275.6 1439.8 2286.5 1409.8 Z" data-holc_grade="B"/>
<path d="M 2099.6 1431.2 1762.3 1868.8 1715.6 1839 1904.3 1561.6 1952.9 1564.4 2072.5 1404.2 2078.1 1413.5 2099.6 1431.2 Z" data-holc_grade="B"/>
<path d="M 704 1675.3 730.8 1676.5 762.5 1686.5 778.1 1704.5 793.7 1728.7 813.6 1741.7 824.2 1753.5 837.3 1770.9 848.5 1792 867.2 1832.3 912.7 1865.9 841 1942.8 806.7 1917.4 631.7 1760.3 677.8 1715 704 1675.3 Z" data-holc_grade="B"/>
<path d="M 1717.1 2097.2 1746.5 2147.6 1776.9 2211.3 1782.4 2228.3 1801.9 2256.3 1905.5 2458 1900.5 2469 1899.8 2468.7 1854.9 2448.7 1812 2437.1 1742.7 2413 1655.4 2371.9 1466.9 2304.4 1451.3 2326.9 1625 2391.3 1727.1 2443.3 1810.5 2475.1 1851 2488.3 1885.6 2501.4 1884.4 2503.9 1840.6 2599.1 1839.4 2601.7 1794.1 2700.2 1772.3 2739 1704.5 2711 1685.1 2700.2 1700.6 2654.4 1614.9 2622.6 1602.5 2659.8 1590.8 2727.3 1579.9 2725.8 1558 2732 1535.4 2746 1522.2 2742.9 1521.4 2719.6 1530.8 2673.8 1540.9 2647.4 1504.3 2564.4 1470 2565.9 1426.4 2487.5 1314.2 2531.8 1293.9 2493.7 1473.9 2420.8 1496.5 2406.8 1274.5 2312.9 1238.9 2297.9 1236.5 2280.8 1241.2 2262.2 1093.9 2208.6 1032.4 2170.6 1139.7 2100.3 1207.5 2079.3 1313.4 2121.3 1338.4 2068.5 1392.1 2064.6 1426.4 2071.6 1491 2100.3 1605.5 2142.2 1716.2 2095.7 1717.1 2097.2 Z" data-holc_grade="B"/>
<path d="M 366.6 2339.9 531.7 2336.9 532.9 2418.8 508.6 2459.8 494.3 2490.2 478.1 2503.2 430.1 2501.4 428.8 2484 365.2 2483.9 366.6 2339.9 Z" data-holc_grade="B"/>
<path d="M 1238.9 2297.9 1245.1 2341.3 1202.2 2321.1 1219.3 2440.6 1155.4 2468.6 1192.8 2543.9 1220.9 2600.5 1066.6 2675.8 1017.5 2710.7 973.9 2736.3 991 2781.3 887.3 2829.4 878.8 2803.8 828.9 2665.6 972.3 2604.3 956.7 2560.1 987.9 2548.5 962.2 2487.2 1033.1 2460 1058.8 2444.5 1054.9 2421.2 1038.6 2356.8 1026.1 2335.1 1016 2287 1025.4 2237.3 1021.5 2207 1006.7 2190 1032.4 2170.6 1093.9 2208.6 1241.2 2262.2 1236.5 2280.8 1238.9 2297.9 Z" data-holc_grade="B"/>
</g>
<g id="C">
<path d="M 2098.4 325.4 2019.9 383.7 1951.4 443.9 1945.2 445.7 1915.3 403.6 1848.6 327.3 1783.3 261.5 1720.4 203.9 1830.6 122 1889.7 141.8 2048.5 1 2289.4 65.4 2279.5 79.1 2300.7 90.9 2243.4 138 2229.1 192.6 2171.8 178.3 2160.6 195.7 2130.7 299.3 2098.4 325.4 Z" data-holc_grade="C"/>
<path d="M 1475.3 2969.9 1363 2805.2 1340.1 2819.6 1415.4 2926.4 1455.3 2986.5 1470.1 2978.3 1538.7 3067.7 1450.3 3146 1392.5 3174.3 1410.4 3209.6 1448.8 3192.2 1488.7 3165.4 1545.1 3117.8 1550.1 3130.3 1687.3 3310.4 1739.7 3373.7 1610 3427.1 1457.8 3497.9 1490.3 3543.9 1449.1 3560.3 1345.6 3550.3 1338.1 3519.3 1318.2 3477 1245.9 3375.2 1315.7 3325.5 1283.3 3252.2 1242.2 3159.1 1299.5 3159.1 1410.5 3111.9 1467.9 3072.1 1432.9 3020 1414.2 3012.5 1359.4 3046.1 1350.6 3033.6 1318.2 3044.8 1240.9 3020 1239.7 3005.1 1173.6 2962.8 1136.2 2939.2 1112.5 2921.8 1098.8 2938 1081.3 2924.3 966.6 2867.2 981.6 2859.7 1010.3 2849.8 1037.7 2817.5 1060.2 2811.3 1110 2848.6 1127.5 2862.2 1153.7 2818.8 1137.5 2798.9 1113.8 2780.3 1110 2761.6 1183.6 2728.1 1213.5 2710.7 1279.6 2690.9 1355.7 2648.7 1413 2636.2 1447.9 2649.9 1487.8 2682.2 1504 2710.7 1509 2741.8 1507.8 2754.2 1479.1 2770.4 1567.2 2927.2 1536.4 2942.7 1475.3 2969.9 Z" data-holc_grade="C"/>
<path d="M 328.1 3715.7 437.5 3691.1 473.1 3683.1 499.2 3703.7 548.8 3736.3 537.6 3746.5 549.7 3759.6 502 3792.2 475.8 3771.7 459.9 3767 445.9 3772.6 416 3798.7 382.3 3814.5 316.8 3847.1 272.8 3796.7 345.8 3749.2 328.1 3715.7 Z" data-holc_grade="C"/>
<path d="M 1111.7 4186.6 1101.6 4067.7 1127.5 4070.7 1143.9 4074.5 1170.4 4073 1203.9 4076.9 1177.4 4007.8 1245.2 3981.4 1280.3 3971.3 1254.6 3919.3 1230.4 3851.7 1285.8 3830 1325.5 3815.2 1358.3 3809.8 1384 3819.1 1390.2 3833.8 1413.6 3915.4 1426.1 3941.8 1444.8 3959.6 1465.9 3969 1483 3978.3 1511.8 3968.2 1555.5 3909.2 1592.9 3890.5 1614 3876.6 1632.7 3871.9 1657.6 3857.9 1674 3896 1673.2 3905.3 1780.1 4139.8 1805 4177.8 1784 4209.7 1700.5 4232.2 1690.4 4201.1 1656.9 4072.2 1592.9 4095.5 1571.9 4058.3 1543 4003.1 1446.4 4042 1349.7 4064.5 1352 4089.3 1380.1 4182.5 1269.4 4212 1253.8 4174 1111.7 4186.6 Z" data-holc_grade="C"/>
<path d="M 1859.5 3797.3 1887.3 3793.6 1922.8 3784.3 1955.9 3771.8 2017.9 3736.4 2055.3 3736.4 2080.2 3747.6 2090 3725.6 2125 3771.3 2244.8 3916.7 2242.3 3939 2217.4 3946.5 2155 3951.5 2221.1 4058.3 2078.9 4062.1 1992.9 4034.8 1928 4008.7 1940.4 3965.2 1891.8 3951.5 1819.4 3913 1805.7 3899.4 1795.7 3855.9 1803.3 3819.7 1840.8 3802.3 1859.5 3797.3 Z" data-holc_grade="C"/>
<path d="M 1158.8 703.6 1174.4 721 1278.4 906.5 1221.7 954.3 1154.4 1023.8 1105.8 1057.9 1069.7 1077.7 1054.8 1085.2 1064.7 1106.9 998.7 1159.6 946.4 1078.3 894.7 1144.1 847.9 1198.7 811.8 1174.5 776.3 1224.1 671 1146.5 762 1034.9 851.7 906.4 838.7 879.8 925.3 832.6 996.9 814 1074.1 765 1158.8 703.6 Z" data-holc_grade="C"/>
<path d="M 2282.2 944.5 2331.2 1013.8 2367.9 1078.1 2374.9 1101.4 2237.8 1116.2 2244.8 1126.3 2117.1 1144.9 1967.6 1166.7 1911.2 1172.1 1790.9 1183.8 1631.3 1207.8 1469.5 1226.7 1429.6 1168.1 1495.4 1121.4 1452 1068.8 1416.7 1017.2 1464.6 986 1412.5 900.7 1445.9 876.7 1488.8 951.1 1569 1065.9 1632 1019.4 1688.1 972.8 1718.4 954.2 1794 903 1693.5 724.7 1750.3 698.3 1790 678.9 1826.6 657.2 1845.3 673.5 1866.3 691.3 1913.1 723.9 1966.8 684.3 2030.6 640.9 2071.9 616.8 2195.7 813 2264.2 919.2 2282.2 944.5 Z" data-holc_grade="C"/>
<path d="M 348.3 1503.2 347 1597.5 304 1595.7 298.2 1856.9 274.6 1827.1 277.9 1503.8 280.4 1421.3 316.5 1463.5 348.3 1503.2 Z M 171.2 1689.3 171.2 1660.8 196.8 1656.4 191.9 1486.4 191.9 1475.8 196.9 1419.4 238.7 1420.6 232.9 1742.1 229.1 1863.1 193.6 1866.2 184.3 1690.6 171.2 1689.3 Z" data-holc_grade="C"/>
<path d="M 582.3 2120.3 528.1 2120.9 520 2038.3 465.2 2041.4 463.9 2020.9 455.9 1866.3 525.7 1862 618.4 2102.3 582.3 2120.3 Z M 727.5 2194.2 690.7 2205.3 558.7 1858.3 691.4 1848.4 800.5 1946.5 771.2 1950.9 760.6 1956.4 749.4 1973.8 731.9 1975.7 723.2 1979.4 722.5 2065.7 728.8 2075.6 731.2 2117.2 739.3 2147 735 2189.8 727.5 2194.2 Z M 562.5 1834.1 560.6 1781.3 573.7 1775.1 576.2 1754 666.5 1828.6 562.5 1834.1 Z M 631.7 1760.3 585.6 1719.3 657.9 1639.9 704 1675.3 677.8 1715 631.7 1760.3 Z" data-holc_grade="C"/>
<path d="M 1113.7 1356.8 1166 1443.4 1261.4 1421 1265.1 1455.5 1314.6 1432.2 1420.2 1485.3 1474.4 1426.6 1514.6 1454.6 1462.3 1537.4 1381.9 1648.2 1343.6 1693.8 1256.6 1759.9 1234.2 1745 1295 1652.8 1190.3 1610.9 1128.6 1576.5 1079.1 1538.3 995.9 1481.5 1034.3 1419.2 972.6 1377.3 1061.4 1362.4 1113.7 1356.8 Z M 1376.8 1229.8 1388.6 1301.8 1345.7 1301.8 1303.3 1309.8 1255.3 1319.8 1244.1 1304.9 1102.7 1328.4 1071.5 1270.7 1134.5 1231.6 1150.1 1224.8 1197.4 1219.2 1237.3 1208.1 1253.5 1211.8 1280.9 1227.3 1311.4 1232.3 1340.1 1234.8 1376.8 1229.8 Z" data-holc_grade="C"/>
<path d="M 962.2 2487.2 893.7 2473.2 825.9 2457.6 812.7 2386.2 787.7 2382.3 765.1 2388.5 758.9 2380 758.1 2356.7 759.7 2338.9 755 2332.7 723.1 2347.4 708.3 2307.1 828.3 2262.9 988 2209.4 1006.7 2190 1021.5 2207 1025.4 2237.3 1016 2287 1026.1 2335.1 1038.6 2356.8 1054.9 2421.2 1058.8 2444.5 1033.1 2460 962.2 2487.2 Z" data-holc_grade="C"/>
<path d="M 223.4 2873.4 207.1 2853.2 197.7 2840.8 196.2 2823.7 221.1 2795 293.6 2798.9 291.2 2882.7 293.5 2892.8 280.2 3027.9 375.3 3030.2 376.8 3077.6 376 3118.7 389.2 3164.5 409.5 3224.3 438.3 3281.8 435.9 3318.3 428.1 3327.6 334.6 3265.4 281.6 3340.7 305 3383.4 277.7 3404.4 248.8 3415.2 227 3419.1 227.1 3286.3 245.1 3032.5 254.6 2879.6 249.1 2869.5 234.3 2870.3 223.4 2873.4 Z" data-holc_grade="C"/>
<path d="M 650 3267.7 566.7 3405.5 465.7 3349.6 482.6 3278.8 488.2 3224.8 608.9 3242.5 651.9 3255.6 650 3267.7 Z M 1249.5 3554.2 1232.6 3554.2 1229.5 3585.2 1146.6 3597 1187.1 3725 1217 3820 1230.4 3851.7 1207.3 3861.3 1152.1 3891.1 1125 3897.6 1087.6 3887.4 996.9 3843.6 939.8 3809.1 886.5 3771.8 851.9 3761.5 759.3 3741 768.6 3709.3 789.2 3656.2 802.3 3632 909.9 3610.6 760.3 3523 749.1 3553.7 704.1 3634.8 693.8 3643.2 676.1 3645 663 3637.6 563.8 3606.8 594.7 3528.5 631.2 3446.6 714.5 3487.6 744.5 3324.6 832.4 3382.3 832.4 3224 798.7 3201.6 746.4 3183.9 695.9 3176.4 695.2 3145.7 502.3 3120.5 496.7 3005 602.4 3015.2 605.2 2963.1 710.9 2974.3 709.9 3030.2 731.5 3031.1 764.2 2973.4 795.1 2953.8 842.8 2939 883.9 2928.7 916.6 2913.8 1051.2 3312.5 1117.6 3344.2 1151.3 3369.4 1199 3410.4 1215.8 3439.3 1265.4 3507.3 1325.2 3550.1 1249.5 3554.2 Z" data-holc_grade="C"/>
</g>
<g id="D">
<path d="M 1951.4 443.9 2019.9 383.7 2098.4 325.4 2132.6 364.4 2208.6 427.1 2100.9 522 2046.7 574.7 1951.4 443.9 Z" data-holc_grade="D"/>
<path d="M 1237.3 1208.1 1197.4 1219.2 1150.1 1224.8 1134.5 1231.6 1071.5 1270.7 1102.7 1328.4 1059.1 1333.4 1014.2 1337.1 940.1 1350.7 887.8 1316.6 920.2 1299.2 978.7 1267.6 1041 1234.7 1016.7 1183.8 1052.9 1147.8 1148.8 1102 1176.8 1147.9 1190.6 1139.8 1237.3 1208.1 Z" data-holc_grade="D"/>
<path d="M 463.9 2020.9 465.2 2041.4 520 2038.3 528.1 2120.9 582.3 2120.3 581 2144.5 576.6 2241.3 556.1 2265.5 556.7 2299.6 483.1 2303.3 460.1 2298.4 463.8 2234.4 379.7 2206.5 369.1 2212.7 318.6 2215.1 317.4 2251.7 255 2253.6 254.5 2103.3 258.9 2068.6 323.1 2068 323 2121.4 439 2116.5 431.5 2024 463.9 2020.9 Z M 171.1 1954.3 21.5 1967.3 6 1912 164.3 1894.1 171.1 1954.3 Z M 232.8 1947.5 196.6 1951.2 195.4 1889.8 229.7 1889.2 232.8 1947.5 Z M 357.4 1937 273.3 1943.8 272.1 1882.4 356.2 1875 357.4 1937 Z M 348.3 1503.2 451 1622.4 488.4 1650.4 491.5 1659.1 575 1729.8 576.2 1754 573.7 1775.1 560.6 1781.3 562.5 1834.1 298.2 1856.9 304 1595.7 347 1597.5 348.3 1503.2 Z M 196.9 1419.4 191.9 1475.8 191.9 1486.4 196.8 1656.4 171.2 1660.8 171.2 1689.3 153.2 1693 164.9 1867.4 146.2 1869.3 133.2 1694.9 108.9 1697.3 122.5 1872.4 1 1883.5 21 1717.1 32.3 1643.3 62.2 1642.1 69.7 1637.7 80.3 1536.6 94.8 1410.6 196.9 1419.4 Z M 449 1084.4 440.3 1117.2 410.4 1108.5 398.5 1145.8 458.9 1166.3 444 1215.3 433.3 1268 472 1276.1 468.2 1302.2 474.4 1312.1 524.9 1345 521.1 1416.4 397.8 1419.4 410.9 1370.4 293.8 1344.9 301.9 1313.9 269.5 1305.8 262 1336.8 233.3 1334.3 79.5 1290.8 111.3 1167.3 69.6 1155.5 81.5 1105.9 122.6 1109.6 131.3 1079.9 105.1 1073.6 65.3 1068 69 1027.7 80.9 1022.7 91.5 990.5 449 1084.4 Z" data-holc_grade="D"/>
<path d="M 2170.3 1339.6 2099.6 1431.2 2078.1 1413.5 2072.5 1404.2 2006.2 1360.5 2055.7 1295.6 2100.5 1296.3 2160.3 1340 2170.3 1339.6 Z" data-holc_grade="D"/>
<path d="M 196.2 2823.7 197.7 2840.8 207.1 2853.2 223.4 2873.4 216.3 3044.1 191.1 3425.3 167 3426 173.3 3342.2 26.1 3073.5 100.2 2978.9 85.4 2963.3 175.9 2813.6 196.2 2823.7 Z" data-holc_grade="D"/>
<path d="M 1111.7 4186.6 1115.1 4226.8 1022.8 4235.7 1018.3 4153.2 951.9 4153.7 920 4151.7 717.9 4165.5 715.9 4098.9 794.8 4096 912 4086.6 1037.8 4071.2 1101.6 4067.7 1111.7 4186.6 Z" data-holc_grade="D"/>
</g>
</svg>