<?xml version="1.0"?>
<svg xmlns="http://www.w3.org/2000/svg" version="1.2" baseProfile="tiny" width="3000" height="3262" viewBox="0 0 3000 3262" stroke-linecap="round" stroke-linejoin="round">
<g id="A">
<path d="M 2772.6 1302.6 2776.7 1273.9 2780.8 1239.4 2785.8 1212.3 2792.4 1183.5 2791.5 1167.1 2790.7 1141.6 2798.9 1130.1 2819.6 1121.1 2848.4 1117.8 2864.9 1104.6 2884.7 1065.2 2907.8 1034.8 2918.5 1010.2 2926.8 992.1 2949 977.3 2961.4 969.1 2977.9 980.6 2987.8 1000.3 2995.3 1019.2 2987 1027.4 2980.4 1038.1 2973.8 1058.6 2965.6 1112 2969.7 1130.1 2987.1 1159.6 2969.8 1195 2954.1 1229.5 2931.8 1250.8 2917.8 1266.4 2897.2 1266.5 2881.5 1253.3 2876.5 1236.1 2857.6 1231.1 2840.2 1241 2833.6 1259.1 2821.3 1290.3 2802.3 1299.3 2787.4 1299.4 2772.6 1302.6 Z" data-holc_grade="A"/>
<path d="M 2202.6 2456.3 2199.5 2469.7 2217 2493.3 2241.8 2511.8 2232.5 2539.5 2221.2 2551.9 2195.4 2538.5 2154.1 2535.4 2122.1 2535.5 2079.8 2515.9 2038.5 2495.4 2021 2490.3 2021 2507.7 2030.3 2546.8 2011.7 2587.9 1985.9 2640.3 1961.2 2671.1 1958.1 2693.7 1972.5 2722.4 2008.6 2743 2035.5 2778.9 2077.8 2878.6 2098.5 2954.6 2076.8 2998.8 2039.6 3026.5 1993.2 3066.6 1936.5 3090.2 1875.6 3117 1816.7 3145.7 1715.6 3183.7 1699.7 3115.1 1684.8 3067.4 1683.2 3021.4 1688.1 2975.4 1693.1 2919.5 1693.1 2908 1628.7 2965.5 1567.6 3031.3 1542.8 3106.9 1528 3179.2 1519.7 3261.4 1457 3233.5 1405.8 3226.9 1412.4 3157.9 1395.9 3118.4 1369.5 3080.6 1338.1 3023.1 1328.2 2911.3 1349.7 2819.2 1382.7 2728.8 1424 2638.4 1432.2 2587.5 1407.5 2559.5 1374.4 2508.6 1327.1 2464.6 1333.3 2446.1 1346.9 2426.4 1361.7 2422.7 1398.1 2443 1418.7 2461.5 1436.2 2491.3 1463.1 2500.5 1486.8 2480 1497.1 2433.7 1504.3 2390.6 1503.3 2330 1507.4 2279.7 1514.7 2221.1 1497.1 2179 1485.8 2148.2 1489.9 2118.4 1510.3 2100.9 1529.9 2095.8 1556.7 2094.8 1611.4 2084.5 1672.2 2075.2 1704.2 2066 1731.1 2038.3 1730 2018.8 1720.7 2005.4 1696 1990 1688.7 1978.7 1686.7 1960.2 1712.5 1930.4 1727.9 1908.6 1798.9 1848.6 1890.7 1911 1885.7 1934 1882.4 1965.2 1892.3 1989.9 1908.8 2045.8 1908.8 2078.6 1910.5 2111.5 1915.4 2137.8 1925.4 2160.8 1940.2 2187.1 1946.8 2215 1953.4 2234.7 1969.9 2236.4 1999.7 2228.2 2016.2 2215 2034.3 2190.4 2062.4 2170.6 2092.1 2178.9 2102 2193.6 2102 2229.8 2095.4 2277.5 2105.3 2316.9 2123.5 2331.7 2135 2361.3 2140 2379.3 2149.9 2390.8 2173 2405.6 2184.6 2425.4 2189.5 2446.7 2202.6 2456.3 Z" data-holc_grade="A"/>
<path d="M 1170 1777.2 1191.8 1766 1207.5 1759.7 1213.9 1764.8 1223.8 1768.1 1233.7 1781.2 1248.6 1814.1 1275 1837.1 1293.1 1858.4 1309.6 1866.7 1314.7 1891.5 1332 1918.6 1329.6 1948.2 1327.1 1970.4 1312.2 1992.5 1275.1 2018.4 1250.3 2035.7 1202 2096.1 1188.4 2134.3 1181 2170 1164.9 2209.5 1161.2 2251.4 1159.9 2277.3 1138.9 2293.3 1127.7 2310.5 1081.9 2363.5 1042.3 2404.2 1038.6 2425.2 1017.5 2423.9 1000.2 2420.2 991.5 2405.4 990.3 2379.5 987.8 2330.2 987.8 2287.1 975.4 2266.1 979.2 2230.4 990.3 2202 1002.7 2186 1018.8 2171.2 1027.5 2149 1043.6 2130.6 1083.2 2094.8 1110.4 2078.8 1137.7 2070.2 1158.7 2064 1158.7 2051.7 1146.3 2032 1121.6 2014.7 1109.2 1996.2 1088.1 1977.7 1056 1970.3 1031.2 1958 1006.4 1938.3 979.2 1922.3 975.5 1892.7 990.4 1869.3 1012.6 1847.1 1034.9 1821.2 1041.1 1804 1041.1 1790.4 1032.5 1779.3 1022.6 1762.1 1027.5 1746 1042.4 1733.7 1059.7 1739.9 1078.3 1753.4 1098.1 1771.9 1103 1783 1125.3 1795.3 1150.1 1790.4 1170 1777.2 Z" data-holc_grade="A"/>
</g>
<g id="B">
<path d="M 2714.5 1079.9 2779.1 1086.6 2799.8 1107.1 2798.9 1130.1 2790.7 1141.6 2791.5 1167.1 2792.4 1183.5 2785.8 1212.3 2780.8 1239.4 2776.7 1273.9 2772.6 1302.6 2755.3 1401.2 2739.6 1407.8 2673.6 1403.7 2638.9 1397.2 2611.7 1380.7 2579.5 1360.2 2549.8 1329.8 2530 1315.9 2494.5 1302.7 2466.4 1302.7 2449.1 1326.6 2441.7 1348.8 2431.8 1390.7 2422.7 1428.4 2414.5 1461.3 2411.2 1479.4 2411.2 1494.2 2409.6 1507.3 2337.8 1497.5 2336.9 1476.1 2337.8 1449 2344.4 1426.8 2350.9 1408.7 2351.8 1396.4 2354.2 1380.8 2360.8 1361.9 2363.3 1342.2 2367.4 1313.5 2369.9 1292.9 2351.7 1287.2 2336.9 1279 2335.2 1264.2 2341 1242.8 2341.8 1219 2347.6 1205 2353.4 1187.8 2357.5 1170.5 2360 1155.7 2365.7 1132.7 2373.2 1110.5 2380.6 1087.5 2392.9 1076 2409.5 1080.1 2422.7 1071.9 2426.8 1050.6 2435 1029.2 2444.1 1023.5 2456.6 1015.3 2477.2 1022.5 2521.6 1026.6 2553.5 1039.9 2595.8 1054.3 2647.4 1067.6 2714.5 1079.9 Z" data-holc_grade="B"/>
<path d="M 2409.6 1507.3 2415.3 1527.9 2434.3 1544.3 2473.9 1564 2504.5 1575.5 2499.5 1610 2496.3 1634.6 2499.6 1655.2 2545 1693.8 2455 1828.5 2339.6 1759.3 2330.4 1753.8 2299 1731.6 2275.9 1713.6 2258.6 1695.5 2258.6 1669.2 2269.3 1640.4 2275.1 1619.9 2291.6 1600.2 2316.3 1580.5 2329.5 1564 2332.8 1546 2332.8 1531.2 2332 1512.3 2334.2 1506.5 2337.8 1497.5 2409.6 1507.3 Z" data-holc_grade="B"/>
<path d="M 2202.6 2456.3 2189.5 2446.7 2184.6 2425.4 2173 2405.6 2149.9 2390.8 2140 2379.3 2135 2361.3 2123.5 2331.7 2105.3 2316.9 2095.4 2277.5 2102 2229.8 2102 2193.6 2092.1 2178.9 2062.4 2170.6 2034.3 2190.4 2016.2 2215 1999.7 2228.2 1969.9 2236.4 1953.4 2234.7 1946.8 2215 1940.2 2187.1 1925.4 2160.8 1915.4 2137.8 1910.5 2111.5 1908.8 2078.6 1908.8 2045.8 1892.3 1989.9 1882.4 1965.2 1885.7 1934 1890.7 1911 1798.9 1848.6 1801.4 1831.3 1816.2 1810.8 1850.9 1779.6 1911.1 1710.6 1926 1679.3 1793.9 1572.5 1786.5 1556.9 1787.3 1533.9 1799.7 1512.6 1817 1485.5 1835.2 1470.7 1868.2 1455.9 1927.6 1441.9 1956.5 1444.4 1991.2 1446 2006.8 1441.9 2046.5 1462.4 2080.3 1469.8 2107.5 1475.6 2127.3 1481.9 2114.1 1523.8 2105.9 1549.3 2105.9 1569 2117.4 1593.6 2134 1607.6 2157.1 1623.2 2170.3 1636.4 2186 1648.7 2186 1661 2195 1680.7 2206.6 1701.3 2214.9 1721.8 2214 1743.2 2200.8 1777.7 2175.3 1805.6 2184.3 1839.3 2214.1 1870.5 2245.4 1892.7 2263.6 1911.6 2253.7 1935.4 2250.9 1967.7 2272.7 1983.1 2288.4 2001.1 2300.7 2006.1 2385.9 2119.6 2362.8 2152.5 2339.7 2188.7 2308.4 2224.8 2285.3 2267.6 2278.7 2290.6 2280.3 2323.4 2283.6 2369.5 2295.2 2400.7 2270.4 2448.3 2214.3 2464.8 2202.6 2456.3 Z" data-holc_grade="B"/>
<path d="M 1385.6 1865 1407.6 1900.1 1441 1943.3 1473.2 2008.6 1467 2066.5 1457.1 2120.7 1448.3 2135.7 1439.7 2150.3 1422.4 2187.3 1412.5 2221.8 1393.9 2262.5 1381.5 2306.8 1367.9 2375.9 1361.7 2422.7 1346.9 2426.4 1333.3 2446.1 1327.1 2464.6 1302.3 2510.2 1292.4 2525 1268.9 2516.4 1241.6 2491.7 1207 2473.2 1189.6 2454.8 1148.8 2448.6 1133.9 2463.4 1122.8 2472 1101.7 2473.2 1096.8 2457.2 1074.5 2443.6 1059.6 2437.5 1038.6 2425.2 1042.3 2404.2 1081.9 2363.5 1127.7 2310.5 1138.9 2293.3 1159.9 2277.3 1161.2 2251.4 1164.9 2209.5 1181 2170 1188.4 2134.3 1202 2096.1 1250.3 2035.7 1275.1 2018.4 1312.2 1992.5 1327.1 1970.4 1329.6 1948.2 1332 1918.6 1314.7 1891.5 1309.6 1866.7 1327.8 1861.7 1337.7 1848.6 1354.2 1848.6 1385.6 1865 Z" data-holc_grade="B"/>
<path d="M 934.9 1932.7 944.5 1938.3 970.5 1958 1001.5 1977.7 1048.5 2004.8 1069.6 2034.4 1085.7 2060.3 1110.4 2078.8 1083.2 2094.8 1043.6 2130.6 1027.5 2149 1018.8 2171.2 1002.7 2186 990.3 2202 979.2 2230.4 975.4 2266.1 987.8 2287.1 987.8 2330.2 990.3 2379.5 991.5 2405.4 1000.2 2420.2 980.4 2420.2 937 2404.2 927.1 2394.3 913.5 2341.3 881.4 2245.2 869 2193.4 857.8 2174.9 847.9 2129.3 860.3 2087.4 869 2055.4 848 2039.3 817 2001.1 770 1964.1 745.2 1940.7 741.5 1925.9 755.1 1900 773.7 1870.5 794.8 1850.7 820.8 1854.5 841.8 1868 865.3 1887.7 897.5 1908.7 914.8 1921 934.9 1932.7 Z" data-holc_grade="B"/>
<path d="M 1207.5 1759.7 1191.8 1766 1170 1777.2 1150.2 1771.3 1137.7 1750.2 1120.5 1725.9 1100.7 1697.7 1082.2 1679.9 1071.7 1660.8 1078.3 1638.5 1100 1635 1114.9 1630 1136.3 1621.8 1161.1 1621.8 1194.1 1628.4 1199.1 1656.3 1192.4 1685.9 1185.8 1707.3 1185.8 1733.6 1197.4 1751.6 1207.5 1759.7 Z" data-holc_grade="B"/>
<path d="M 632.1 1012.2 606.9 1052.7 582.2 1091.3 561.5 1113.4 534.3 1113.4 504.6 1113.4 478.2 1112.6 446.8 1116.7 426.2 1117.5 397.3 1121.6 392.4 1115.9 388.3 1091.2 388.3 1069.9 397.4 1040.3 403.1 1009.9 415.5 991 441.1 969.7 467.5 940.9 493.1 919.6 523.6 901.4 526.9 910.5 571.3 959.8 598.1 981.4 618.7 1000.9 632.1 1012.2 Z" data-holc_grade="B"/>
</g>
<g id="C">
<path d="M 2100.3 889 2130 847.1 2169.6 873 2242.7 808.2 2278.1 816.2 2310.1 822.3 2344.1 827.5 2387.4 837.7 2421.5 839.8 2459.6 845.9 2481.3 846.9 2505 847.9 2542.1 857.2 2570 836.6 2608.1 811 2632.5 786.6 2724 728.7 2758.7 701.6 2782.2 654.8 2698 573.5 2693 561.2 2726.4 534.1 2819.3 621.5 2933.1 497 2959.7 555.2 2853.5 683.6 2999 771.8 2950.6 870.4 2856.7 944.3 2755.6 823.2 2750.5 818.1 2721.6 853 2703 881.8 2700 907.4 2702 932.1 2691.7 967 2683.5 990.6 2696.9 1009.1 2719.6 1029.6 2728.9 1074.8 2714.5 1079.9 2647.4 1067.6 2595.8 1054.3 2553.5 1039.9 2521.6 1026.6 2477.2 1022.5 2456.6 1015.3 2467.9 985.5 2420.5 983.5 2380.3 975.3 2330.7 971.2 2263.7 959.9 2224.5 953.8 2189.4 941.5 2158.5 926.1 2123.8 904.9 2100.3 889 Z" data-holc_grade="C"/>
<path d="M 632.1 1012.2 618.7 1000.9 598.1 981.4 571.3 959.8 526.9 910.5 523.6 901.4 517.7 884.9 487.8 842.8 475.4 824.3 440.3 791.4 425.9 758.6 421.8 741.1 426.9 719.5 446.5 708.3 467.2 701.1 502.2 683.6 528 661.1 542.5 637.4 551.8 597.4 550.7 559.4 534.3 531.7 514.7 518.3 482.7 518.3 472.4 505 433.2 471.1 403.3 453.6 375.5 438.2 361 415.6 364.1 405.4 381.7 372.5 409.5 379.7 439.4 387.9 461.1 400.3 492 358.2 517.8 326.4 644.6 485.5 682.8 534.8 710.6 589.2 723 608.7 746.7 615.9 750.8 669.3 745.6 708.3 736.3 751.5 734.3 778.2 743.5 797.7 761.1 800.7 776.5 795.6 790 775.1 805.4 749.4 821.9 716.6 844.6 700.1 866.3 713.5 879.7 724.8 831.2 766.9 779.6 818.2 739.4 874.7 717.7 916.8 690.9 963 676.5 1009.2 660 1012.2 632.1 1012.2 Z" data-holc_grade="C"/>
<path d="M 1057.3 908.6 1047.7 925.9 1043.2 934.1 1028.4 958.7 1009.4 996.5 987.1 1024.4 958.2 1046.6 940.9 1068 918.6 1095.9 900.5 1104.1 878.2 1107.4 860.9 1106.6 844.4 1113.1 824.6 1100.8 794.9 1078.6 780 1058.1 748.7 1031 750.3 1016.2 752.8 1003.9 789.9 962 808.9 936.5 837 888.9 878.3 797.7 884.9 750.1 879.7 724.8 926.1 754.2 961.6 778.8 992.1 804.3 1011.1 833.1 1012.7 855.2 1029.2 883.2 1057.3 908.6 Z" data-holc_grade="C"/>
<path d="M 70.2 408.3 180.6 454.6 215.6 479.2 238.3 500.8 223.9 518.3 208.4 577.8 203.2 618.9 208.3 664 212.4 701 199 733.8 182.5 766.7 145.4 791.3 116.5 804.7 91.7 811.8 60.8 809.8 29.9 806.7 14.4 792.3 1 760.5 23.8 521.3 70.2 408.3 Z" data-holc_grade="C"/>
<path d="M 941.7 1392.5 933.5 1414.5 933.5 1437.9 969.4 1477.4 995.4 1500.8 1018.9 1505.7 1033.7 1486 1063.4 1492.2 1071.5 1506.7 1060.4 1510.1 1055.5 1526.5 1060.4 1554.4 1083.5 1572.5 1098.4 1585.7 1103.3 1616.9 1100 1635 1078.3 1638.5 1071.7 1660.8 1082.2 1679.9 1100.7 1697.7 1120.5 1725.9 1137.7 1750.2 1150.2 1771.3 1170 1777.2 1150.1 1790.4 1125.3 1795.3 1103 1783 1098.1 1771.9 1078.3 1753.4 1059.7 1739.9 1042.4 1733.7 1027.5 1746 1022.6 1762.1 1005.2 1783 986.7 1794.1 963.1 1807.6 943.3 1821.2 938.4 1833.5 939.6 1855.7 952 1873 949.5 1891.4 934.9 1932.7 914.8 1921 897.5 1908.7 865.3 1887.7 841.8 1868 820.8 1854.5 794.8 1850.7 773.7 1870.5 755.1 1900 741.5 1925.9 745.2 1940.7 770 1964.1 817 2001.1 848 2039.3 869 2055.4 860.3 2087.4 847.9 2129.3 857.8 2174.9 869 2193.4 881.4 2245.2 913.5 2341.3 927.1 2394.3 852.8 2388.1 851.6 2368.4 838 2329 836.8 2294.5 835.5 2248.9 777.4 2213.1 732.8 2171.2 696.9 2136.7 646.1 2097.2 638.7 2073.8 646.2 2034.4 659.8 1988.8 666 1955.5 637.5 1919.7 621.4 1918.5 575.6 1914.8 500.1 1903.7 430.8 1891.3 370.1 1891.3 333.9 1893.5 308.2 1895 262.4 1898.7 240.1 1893.7 235.2 1878.9 246.3 1869.1 315.7 1795.2 346.6 1782.8 399.9 1766.8 422.2 1753.3 419.7 1726.2 403.6 1679.3 388.8 1655.9 371.5 1617.7 376.4 1595.5 367.7 1579.5 365.3 1561 424.7 1522.8 468 1509.3 496.5 1497 528.7 1493.3 562.1 1482.2 590.1 1468 615.7 1506.6 631.4 1527.1 654.5 1551.8 680.9 1576.4 695.7 1584.6 716.4 1597 737.8 1613.4 762.6 1577.3 770.8 1561.7 787.3 1551 804.7 1539.5 820.4 1515.7 838.5 1491.8 877.3 1453.2 887.2 1440.9 882.3 1422.8 860.8 1390.8 831.1 1348.9 814.6 1317.7 808.8 1293 813 1281.5 823.7 1268.4 849.3 1280.7 874.9 1309.5 897.1 1337.4 923.5 1370.3 941.7 1392.5 Z" data-holc_grade="C"/>
<path d="M 2456.6 1015.3 2444.1 1023.5 2435 1029.2 2426.8 1050.6 2422.7 1071.9 2409.5 1080.1 2392.9 1076 2380.6 1087.5 2373.2 1110.5 2365.7 1132.7 2360 1155.7 2357.5 1170.5 2353.4 1187.8 2347.6 1205 2341.8 1219 2341 1242.8 2335.2 1264.2 2336.9 1279 2351.7 1287.2 2369.9 1292.9 2367.4 1313.5 2363.3 1342.2 2360.8 1361.9 2354.2 1380.8 2351.8 1396.4 2350.9 1408.7 2344.4 1426.8 2337.8 1449 2336.9 1476.1 2337.8 1497.5 2334.2 1506.5 2279.2 1501.6 2225.5 1492.6 2207.4 1490.9 2165.3 1481.1 2127.3 1481.9 2107.5 1475.6 2080.3 1469.8 2046.5 1462.4 2006.8 1441.9 1977.5 1417.2 1984.8 1415.1 2004.6 1390.8 2024.4 1366.5 2025.8 1352 2039 1333.6 2042.9 1317.8 2036.3 1300.8 2031.7 1287.6 2017.2 1271.8 1920.1 1183.1 1945.7 1160.1 1939.5 1138 1970.4 1089.9 2100.3 889 2123.8 904.9 2158.5 926.1 2189.4 941.5 2224.5 953.8 2263.7 959.9 2330.7 971.2 2380.3 975.3 2420.5 983.5 2467.9 985.5 2456.6 1015.3 Z" data-holc_grade="C"/>
<path d="M 2755.3 1401.2 2756.2 1450 2765.2 1480.1 2762.8 1513 2762.8 1528.6 2725.6 1531.9 2690.2 1531.9 2636.5 1522.9 2587 1519.6 2553.2 1517.1 2519.3 1531.9 2505.3 1553.3 2504.5 1575.5 2473.9 1564 2434.3 1544.3 2415.3 1527.9 2409.6 1507.3 2411.2 1494.2 2411.2 1479.4 2414.5 1461.3 2422.7 1428.4 2431.8 1390.7 2441.7 1348.8 2449.1 1326.6 2466.4 1302.7 2494.5 1302.7 2530 1315.9 2549.8 1329.8 2579.5 1360.2 2611.7 1380.7 2638.9 1397.2 2673.6 1403.7 2739.6 1407.8 2755.3 1401.2 Z" data-holc_grade="C"/>
<path d="M 2334.2 1506.5 2332 1512.3 2332.8 1531.2 2332.8 1546 2329.5 1564 2316.3 1580.5 2291.6 1600.2 2275.1 1619.9 2269.3 1640.4 2258.6 1669.2 2258.6 1695.5 2275.9 1713.6 2299 1731.6 2330.4 1753.8 2339.6 1759.3 2328.8 1774.3 2312.3 1799 2294.1 1840.1 2301.5 1864.7 2327.1 1902.5 2339.5 1919.8 2356 1944.4 2331.3 1980.6 2300.7 2006.1 2288.4 2001.1 2272.7 1983.1 2250.9 1967.7 2253.7 1935.4 2263.6 1911.6 2245.4 1892.7 2214.1 1870.5 2184.3 1839.3 2175.3 1805.6 2200.8 1777.7 2214 1743.2 2214.9 1721.8 2206.6 1701.3 2195 1680.7 2186 1661 2186 1648.7 2170.3 1636.4 2157.1 1623.2 2134 1607.6 2117.4 1593.6 2105.9 1569 2105.9 1549.3 2114.1 1523.8 2127.3 1481.9 2165.3 1481.1 2170.2 1498.3 2179.3 1521.3 2187.6 1550.1 2195.8 1578 2203.3 1610.9 2207.4 1628.1 2209.1 1647.9 2214.8 1664.3 2219.8 1661.8 2234.6 1621.6 2253.6 1567.3 2270.1 1526.2 2279.2 1501.6 2334.2 1506.5 Z" data-holc_grade="C"/>
<path d="M 1977.5 1417.2 2006.8 1441.9 1991.2 1446 1956.5 1444.4 1927.6 1441.9 1868.2 1455.9 1835.2 1470.7 1817 1485.5 1799.7 1512.6 1787.3 1533.9 1786.5 1556.9 1793.9 1572.5 1926 1679.3 1911.1 1710.6 1850.9 1779.6 1816.2 1810.8 1801.4 1831.3 1798.9 1848.6 1727.9 1908.6 1718 1894.6 1682.6 1873.3 1660.3 1868.3 1618.2 1904.5 1591.8 1885.6 1569.5 1861.8 1553.8 1856 1612.4 1667.9 1557.9 1614.5 1545.5 1598 1532.3 1581.6 1521.6 1563.5 1505.9 1549.6 1496.9 1536.4 1494.4 1526.9 1574.9 1468.4 1600.6 1486.1 1632.3 1501.9 1663.3 1521 1694.4 1497.3 1727.4 1470.4 1755.1 1452.6 1791.4 1440.1 1834.3 1421.7 1889.1 1407.9 1932.7 1407.9 1959.8 1419.1 1968.3 1419.7 1977.5 1417.2 Z" data-holc_grade="C"/>
<path d="M 2274.7 223.7 2475.9 121.9 2529.6 208.1 2522.2 217.9 2476.8 218.8 2448.7 220.4 2418.2 227.8 2395.1 244.2 2380.3 264 2377.8 270.5 2367.1 288.6 2350.6 305.8 2274.7 223.7 Z" data-holc_grade="C"/>
<path d="M 1788.1 712.3 1731.4 674.3 1675.7 642.5 1635.5 612.7 1565.4 565.5 1588.1 512.1 1614.9 463.8 1649.9 410.5 1676.7 379.7 1710.8 311.9 1759.2 214.4 1795.3 154.8 1856.1 66.5 1897.4 6 1966.5 53.2 1921.1 151.7 1887.1 207.2 1861.3 253.4 1840.7 285.2 1819 327.3 1820.1 354 1833.5 369.4 1875.8 404.3 1912.9 443.3 1950 475.1 1993.3 518.2 1788.1 712.3 Z" data-holc_grade="C"/>
<path d="M 1427.9 111.2 1488.8 99.8 1495.2 272.3 1433.8 261.4 1427.9 111.2 Z" data-holc_grade="C"/>
<path d="M 1582.9 935.5 1601.1 956 1603.5 984.8 1582.1 1004.5 1568.1 1022.6 1558.7 1029.9 1552.4 1034.9 1444.3 1127.7 1439.3 1124.4 1422 1108.8 1403 1091.6 1380.8 1075.1 1364.3 1062 1334.6 1042.3 1314.7 1053.8 1300.7 1071.9 1289.2 1071.9 1271.8 1052.1 1257 1034.9 1210.7 986.7 1214.5 970.7 1212 952.2 1230.5 937.4 1255.3 921.4 1277.6 891.8 1302.3 878.3 1324.6 869.6 1349.4 858.6 1376.6 841.3 1390.7 851.7 1420.4 880.5 1434.4 902.6 1450.9 918.3 1462.4 925.6 1476.5 939.6 1493 945.4 1512 933.9 1524.3 922.4 1547.4 913.3 1564.8 917.4 1582.9 935.5 Z" data-holc_grade="C"/>
</g>
<g id="D">
<path d="M 2632.5 786.6 2600.2 610.5 2584.1 600.6 2462.9 569.9 2445.5 589.6 2434.4 616.7 2375 679.5 2262.4 788 2248.8 802.8 2242.7 808.2 2169.6 873 2130 847.1 2100.3 889 1970.4 1089.9 1939.5 1138 1945.7 1160.1 1920.1 1183.1 1910.9 1173.3 1883.1 1162.1 1796 1068.8 1761.7 1032.7 1723.2 1010 1838.7 892 1980.3 759.7 2039.7 703 2130 616.8 2238.9 510.8 2294.5 467.7 2353.9 414.7 2403.4 380.2 2455.4 353 2518.5 330.9 2570.4 323.4 2622.4 327.1 2678.1 277.8 2798.1 254.4 2852.6 334.4 2883.5 389.9 2897.2 414.5 2933.1 497 2819.3 621.5 2726.4 534.1 2693 561.2 2698 573.5 2782.2 654.8 2758.7 701.6 2724 728.7 2632.5 786.6 Z" data-holc_grade="D"/>
<path d="M 426.9 719.5 407.4 712.4 397 697 390.9 685.7 381.6 673.3 373.3 656.9 379.5 632.3 389.9 586.1 413.6 555.3 440.4 530.6 482.7 518.3 514.7 518.3 534.3 531.7 550.7 559.4 551.8 597.4 542.5 637.4 528 661.1 502.2 683.6 467.2 701.1 446.5 708.3 426.9 719.5 Z" data-holc_grade="D"/>
<path d="M 283 1287.5 297 1296.1 311 1303.5 353.5 1327.4 359.3 1338.5 366.3 1366.4 359.7 1386.9 339.9 1388.2 277.6 1384.9 223.5 1377.4 168.2 1376.2 121.6 1368 81.2 1368.4 62.2 1363 32.5 1357.2 44.5 1336.7 83.3 1295.2 99.4 1273.9 128.3 1240.6 153.5 1211.9 203.4 1191.4 254.1 1188.1 301.2 1194.3 308.6 1205.8 293.7 1238.6 293.7 1259.2 289.2 1276 283 1287.5 Z" data-holc_grade="D"/>
<path d="M 1723.2 1010 1761.7 1032.7 1796 1068.8 1883.1 1162.1 1910.9 1173.3 1920.1 1183.1 2017.2 1271.8 2031.7 1287.6 2036.3 1300.8 2042.9 1317.8 2039 1333.6 2025.8 1352 2024.4 1366.5 2004.6 1390.8 1984.8 1415.1 1977.5 1417.2 1968.3 1419.7 1959.8 1419.1 1932.7 1407.9 1889.1 1407.9 1834.3 1421.7 1791.4 1440.1 1755.1 1452.6 1727.4 1470.4 1694.4 1497.3 1663.3 1521 1632.3 1501.9 1600.6 1486.1 1574.9 1468.4 1550.5 1442.8 1528 1422.4 1485.8 1377 1444.8 1334.3 1421.1 1310.7 1413.1 1292.3 1421.1 1275.8 1433.6 1262 1431 1251.5 1427 1237.7 1432.3 1223.9 1447.5 1212.7 1469.3 1197.6 1489.1 1180.5 1504.9 1165.4 1514.8 1156.9 1537.2 1136.5 1565 1112.8 1580.8 1087.2 1584.8 1072.1 1581.5 1055.7 1558.7 1029.9 1568.1 1022.6 1582.1 1004.5 1603.5 984.8 1601.1 956 1582.9 935.5 1601.5 919.7 1723.2 1010 Z" data-holc_grade="D"/>
<path d="M 1496.9 1536.4 1505.9 1549.6 1521.6 1563.5 1532.3 1581.6 1545.5 1598 1557.9 1614.5 1535.8 1630.1 1499.5 1669.5 1464.8 1697.4 1458.2 1738.5 1458.2 1771.4 1453.2 1794.4 1428.5 1820.7 1405.4 1843.7 1385.6 1865 1354.2 1848.6 1337.7 1848.6 1327.8 1861.7 1309.6 1866.7 1293.1 1858.4 1275 1837.1 1248.6 1814.1 1233.7 1781.2 1223.8 1768.1 1213.9 1764.8 1207.5 1759.7 1197.4 1751.6 1185.8 1733.6 1185.8 1707.3 1192.4 1685.9 1199.1 1656.3 1194.1 1628.4 1161.1 1621.8 1136.3 1621.8 1114.9 1630 1100 1635 1103.3 1616.9 1098.4 1585.7 1083.5 1572.5 1060.4 1554.4 1055.5 1526.5 1060.4 1510.1 1071.5 1506.7 1081.9 1503.5 1096.7 1495.3 1116.5 1473.9 1141.3 1460.8 1154.5 1475.6 1172.7 1477.2 1218.9 1442.7 1266.7 1408.2 1304.7 1367.2 1329.5 1365.5 1496.9 1536.4 Z" data-holc_grade="D"/>
<path d="M 1727.9 1908.6 1712.5 1930.4 1686.7 1960.2 1688.7 1978.7 1696 1990 1720.7 2005.4 1730 2018.8 1731.1 2038.3 1704.2 2066 1672.2 2075.2 1611.4 2084.5 1556.7 2094.8 1529.9 2095.8 1510.3 2100.9 1497.9 2097.8 1497.9 2087.6 1497.9 2058.8 1506.1 2015.7 1513.4 1980.8 1527.8 1948.9 1537.1 1929.4 1538.1 1906.8 1543.3 1885.2 1553.8 1856 1569.5 1861.8 1591.8 1885.6 1618.2 1904.5 1660.3 1868.3 1682.6 1873.3 1718 1894.6 1727.9 1908.6 Z" data-holc_grade="D"/>
<path d="M 1582.9 935.5 1564.8 917.4 1547.4 913.3 1524.3 922.4 1512 933.9 1493 945.4 1476.5 939.6 1462.4 925.6 1450.9 918.3 1434.4 902.6 1420.4 880.5 1390.7 851.7 1376.6 841.3 1413.7 806.8 1443.4 779.7 1481.8 718.1 1508.7 671.2 1540.6 617.8 1565.4 565.5 1635.5 612.7 1675.7 642.5 1731.4 674.3 1788.1 712.3 1717 801.6 1838.7 892 1723.2 1010 1601.5 919.7 1582.9 935.5 Z" data-holc_grade="D"/>
<path d="M 710.6 589.2 682.8 534.8 644.6 485.5 517.8 326.4 501.8 295.4 473.3 265.8 458.5 242.4 447.3 216.5 490.7 2.2 511.7 2.2 539 1 555 8.4 568.7 15.8 618.1 23.2 676.3 26.9 724.6 30.6 767.9 33.1 798.8 22 832.2 34.3 871.8 47.9 912.6 63.9 941.1 87.3 962.1 118.1 970.8 140.3 995.5 174.8 1032.6 216.7 1061.1 249.9 1105.6 290.6 1127.9 311.5 1148.9 327.6 1156.3 334.9 1173.7 332.5 1204.6 336.2 1273.9 355.9 1349.4 390.4 1426.1 415 1455.8 421.2 1460.8 402.7 1463.2 387.9 1469.4 354.7 1474.4 326.3 1486.7 305.4 1501.6 302.9 1502.8 325.1 1502.8 344.8 1497.9 365.8 1492.9 399 1486.7 442.1 1478.1 500 1478.1 539.5 1475.6 592.4 1474.4 645.4 1476.8 676.2 1481.8 703.3 1481.8 718.1 1443.4 779.7 1413.7 806.8 1376.6 841.3 1349.4 858.6 1324.6 869.6 1302.3 878.3 1277.6 891.8 1255.3 921.4 1230.5 937.4 1212 952.2 1214.5 970.7 1210.7 986.7 1177.3 1012.6 1157.5 999 1130.3 965.7 1129.1 953.4 1151.3 931.2 1178.6 899.2 1199.6 875.8 1226.8 845 1230.6 840.1 1226.8 824 1212 810.5 1220.7 793.2 1241.7 769.8 1250.4 760 1233 750.1 1197.1 747.7 1146.4 724.2 1089.5 708.2 1048.6 691 1023.9 677.4 991.7 641.7 991.7 625.7 1006.6 607.2 1022.7 591.2 1027.6 553 1042.5 497.5 1038.8 482.8 1022.7 480.3 1001.6 514.8 971.9 533.3 947.2 546.8 929.9 524.6 923.7 502.5 907.6 476.6 885.3 454.4 863.1 444.5 819.7 443.3 788.8 444.5 775.2 445.8 757.9 463 734.3 495 724.4 536.9 710.6 589.2 Z" data-holc_grade="D"/>
<path d="M 879.7 724.8 866.3 713.5 844.6 700.1 821.9 716.6 805.4 749.4 790 775.1 776.5 795.6 761.1 800.7 743.5 797.7 734.3 778.2 736.3 751.5 745.6 708.3 750.8 669.3 746.7 615.9 781.8 613.7 830.4 616.2 870.9 617 902.2 626.9 915.4 644.1 912.9 667.1 904.7 690.1 917.9 703.3 981.4 746.8 1025.1 777.2 1047.4 794.5 1075.4 878.2 1057.3 908.6 1029.2 883.2 1012.7 855.2 1011.1 833.1 992.1 804.3 961.6 778.8 926.1 754.2 879.7 724.8 Z" data-holc_grade="D"/>
<path d="M 844.4 1113.1 860.9 1106.6 878.2 1107.4 900.5 1104.1 918.6 1095.9 940.9 1068 958.2 1046.6 987.1 1024.4 1009.4 996.5 1028.4 958.7 1043.2 934.1 1047.7 925.9 1096.9 980.9 1089.4 989.1 1067.2 1003.1 1044.9 1017.1 1025.9 1031 1012.7 1047.4 1001.2 1058.9 991.2 1074.5 978 1096.7 960.7 1109 939.3 1127.1 924.4 1146 923.6 1166.5 929.3 1173.9 941.7 1173.9 953.3 1162.4 965.7 1144.4 987.9 1127.9 1007.7 1109.9 1025.1 1095.9 1044.9 1089.3 1060.6 1089.3 1071.3 1100 1068 1114.8 1033.3 1141.1 1007.7 1169 979.7 1187.9 962.3 1212.5 967.3 1224.1 973.9 1231.4 983 1242.1 996.2 1252 1012.7 1252.8 1030 1247.9 1051.5 1238 1070.4 1231.5 1091.9 1224.9 1115.8 1223.2 1127.4 1231.5 1130.7 1242.1 954.1 1393.3 941.7 1392.5 923.5 1370.3 897.1 1337.4 874.9 1309.5 849.3 1280.7 823.7 1268.4 813 1281.5 808.8 1293 814.6 1317.7 831.1 1348.9 860.8 1390.8 882.3 1422.8 887.2 1440.9 877.3 1453.2 838.5 1491.8 820.4 1515.7 804.7 1539.5 787.3 1551 770.8 1561.7 762.6 1577.3 737.8 1613.4 716.4 1597 695.7 1584.6 680.9 1576.4 654.5 1551.8 631.4 1527.1 615.7 1506.6 590.1 1468 561.3 1435.9 538.2 1384.1 531.6 1358.7 523.3 1297.9 524.2 1248.6 530 1210 543.2 1183.7 562.2 1170.6 595.2 1153.3 627.3 1139.4 663.7 1146.8 700.8 1156.6 724.7 1170.6 755.2 1188.7 767.6 1189.5 776.7 1179.7 810.5 1145.2 844.4 1113.1 Z" data-holc_grade="D"/>
<path d="M 315.7 1795.2 246.3 1869.1 235.2 1878.9 240.1 1893.7 262.4 1898.7 308.2 1895 333.9 1893.5 365.2 1925.4 427 1987.9 480.7 2040.5 508.7 2068.4 521.9 2091.4 511.2 2135.8 474.9 2193.3 431.9 2250.8 381.5 2319 328.7 2296.8 275.1 2256.5 228.9 2216.2 197.5 2194.9 160.4 2188.3 112.5 2170.2 76.2 2158.6 65.5 2147.1 60.5 2128.2 79.5 2089.6 114.2 2042.8 136.5 2021.5 139 1996 134.9 1978.7 109.3 1945.8 80.4 1901.5 78.8 1882.6 189.4 1770.1 220.8 1753.6 264.5 1758.6 298.4 1766 316.5 1773.4 315.7 1795.2 Z" data-holc_grade="D"/>
</g>
</svg>