<?xml version="1.0"?>
<svg xmlns="http://www.w3.org/2000/svg" version="1.2" baseProfile="tiny" width="3000" height="3818" viewBox="0 0 3000 3818" stroke-linecap="round" stroke-linejoin="round">
<g id="A">
<path d="M 1327.5 1391.4 1307.4 1389.4 1293.3 1386.4 1273.2 1374.4 1264.2 1347.4 1264.2 1322.4 1268.2 1312.4 1272.2 1292.4 1294.3 1264.4 1330.5 1237.4 1355.6 1200.4 1365.6 1176.4 1379.7 1122.5 1392.7 1109.5 1436.9 1122.5 1484.1 1120.5 1546.4 1108.5 1587.5 1110.5 1610.6 1086.5 1616.7 1040.5 1609.6 982.5 1603.6 939.6 1604.6 901.6 1604.6 860.6 1614.6 844.6 1616.6 830.6 1636.7 790.6 1655.8 787.6 1704 798.6 1722.1 796.6 1747.1 778.6 1761.2 778.6 1808.4 801.6 1842.5 809.6 1908.8 859.6 1895.7 885.5 1870.7 920.5 1835.5 958.5 1797.4 999.5 1775.3 1032.5 1757.2 1072.5 1749.2 1105.5 1760.2 1117.5 1809.4 1151.4 1793.4 1191.4 1772.3 1251.4 1758.3 1297.4 1747.2 1355.4 1744.2 1409.4 1741.2 1426.4 1746.2 1451.3 1739.2 1483.3 1734.2 1519.3 1728.2 1535.3 1737.2 1570.3 1741.2 1598.3 1735.2 1622.3 1719.1 1642.3 1700 1656.3 1689 1669.3 1668.9 1696.3 1653.9 1709.3 1636.8 1711.3 1622.7 1691.3 1606.6 1661.3 1595.6 1623.3 1621.7 1601.3 1646.8 1576.3 1653.8 1536.3 1641.8 1495.3 1622.7 1467.4 1616.7 1421.4 1590.6 1376.4 1569.5 1359.4 1537.3 1324.4 1451 1309.4 1423.9 1322.4 1408.8 1326.4 1393.7 1338.4 1382.7 1341.4 1375.7 1362.4 1354.6 1385.4 1327.5 1391.4 Z" data-holc_grade="A"/>
<path d="M 2520.5 2576 2418.7 2519.2 2410.5 2513 2386 2501.7 2351.3 2488.5 2355.1 2474.1 2362.7 2451.1 2382 2443.6 2401.6 2442 2418.7 2443.5 2445.3 2451 2468.9 2450.5 2498 2443 2526.3 2433.7 2540.7 2429 2601.4 2425.3 2610.2 2439.7 2610.2 2454.7 2586.4 2491.6 2566.3 2519.1 2561.9 2533.5 2520.5 2576 Z" data-holc_grade="A"/>
<path d="M 2885.6 3073.5 2921.7 3083.7 2938 3091.2 2999 3128.1 2988.3 3156.8 2967 3174.4 2950.7 3189.4 2938.7 3203.1 2914.9 3242.6 2894.2 3280.1 2865.9 3266.3 2838.3 3255.1 2793.7 3239.5 2743.4 3223.9 2686.2 3205.2 2633.4 3185.2 2509.7 3140.9 2559 3034.3 2585.3 2974.3 2596 2941.8 2612.9 2906.7 2635.6 2936.7 2661.3 2962.4 2692.1 2987.4 2739.3 3020.5 2785.8 3042.3 2835.4 3056.7 2885.6 3073.5 Z" data-holc_grade="A"/>
<path d="M 196.6 3664.3 210.2 3668.9 241.9 3666.9 268.5 3660.9 286.1 3646.4 293.7 3620.9 304.8 3590.9 312.3 3570.8 323.9 3548.8 347 3514.8 356.1 3496.8 368.1 3472.8 391.8 3431.3 396.8 3418.3 398.8 3406.3 409.4 3384.8 420.5 3363.8 424 3348.8 428.5 3332.2 431.6 3317.7 438.6 3304.2 438.1 3297.7 437.6 3290.7 429.1 3286.2 427.7 3276.8 445.4 3275.5 463 3279.2 465.5 3290.5 461.1 3323.6 459.2 3334.3 454.8 3348.6 453.5 3371.2 441.6 3421.2 444.1 3442.4 441.5 3481.8 430.8 3540.6 429.5 3578.8 427.6 3596.3 430.8 3625.1 429.5 3669.5 432 3705.1 430.7 3743.3 425.7 3763.3 416.9 3797.7 402.4 3810.8 370.3 3816.4 332 3817 241.5 3817 224.6 3810.7 208.2 3792 195.1 3780.1 193.2 3761.3 192.6 3741.9 194.5 3723.1 203.3 3700 205.2 3693.1 196.6 3664.3 Z M 182.1 3614.8 149.9 3624.9 133 3623.6 134.8 3606.8 139.3 3596.1 138 3575.5 141.2 3523.6 146.9 3506.1 158.2 3471.1 167.6 3446 184.6 3422.9 189.6 3407.3 193.4 3378.5 213.5 3369.1 232.4 3348.5 267.6 3321.6 314.7 3289.2 323.5 3276 335.5 3266.7 359.4 3222.3 375.1 3199.8 382.6 3186 405.9 3160.4 421 3138.5 436.7 3150.4 442.3 3197.3 442.9 3232.3 424.7 3243.6 415.5 3261.2 398.9 3262.2 382.3 3270.7 365.2 3281.2 357.7 3289.2 339.1 3309.7 321 3328.7 312.4 3344.2 298.3 3369.2 286.8 3392.2 268.7 3420.7 250.5 3451.2 245 3479.7 225.9 3505.2 189.2 3530.7 177.6 3547.2 178.1 3561.8 179.6 3577.3 179.6 3599.8 182.1 3614.8 Z" data-holc_grade="A"/>
</g>
<g id="B">
<path d="M 399.5 322.6 434.6 313.6 472.7 293.7 489.8 277.7 572.1 202.8 567.1 182.8 536 163.8 482.8 156.8 426.6 196.7 387.5 227.7 368.4 263.7 338.3 273.6 278 296.6 253.9 308.6 229.8 338.5 203.7 371.5 168.5 404.4 145.5 413.4 21 333.4 5 315.4 1 293.4 33.2 217.5 51.3 181.5 75.4 158.6 115.5 141.6 148.7 126.6 183.8 122.7 253 137.7 307.2 148.7 385.5 135.8 462.8 80.9 516 54.9 544.1 36.9 576.2 18 609.4 1 652.5 34 681.6 49 684.6 83 678.6 117.9 659.5 158.9 701.6 208.9 718.7 239.8 675.5 329.7 659.4 344.7 649.4 366.7 617.2 397.7 592.1 414.6 565 427.6 538.9 442.6 515.8 463.6 489.7 483.5 472.6 501.5 448.5 513.5 425.4 530.5 403.4 543.5 368.2 555.4 348.1 564.4 308 568.4 257.8 555.4 224.7 526.4 202.6 482.4 206.7 449.4 234.8 423.5 265.9 403.5 304.1 388.5 341.2 386.5 368.3 394.5 400.4 386.6 422.5 367.6 399.5 322.6 Z" data-holc_grade="B"/>
<path d="M 1389.7 881.6 1334.5 854.6 1296.4 821.6 1271.3 807.6 1229.1 747.6 1253.2 706.7 1298.4 587.8 1323.5 519.8 1369.7 430.9 1394.8 380.9 1411.9 342.9 1435.9 288 1482.1 160.1 1501.2 112.1 1521.3 72.2 1698.9 110.1 1772.2 137.1 1775.2 155.1 1770.2 171.1 1755.1 198 1711 285 1631.7 482.8 1622.6 504.8 1605.6 526.8 1578.5 548.8 1539.3 575.8 1511.2 613.7 1487.1 673.7 1471.1 722.7 1460 764.7 1443 805.6 1434.9 841.6 1434.9 866.6 1417.9 887.6 1389.7 881.6 Z" data-holc_grade="B"/>
<path d="M 1636.8 1711.3 1583.5 1737.2 1492.3 1788.2 1452.4 1808.5 1421.8 1815.3 1476.1 1602.3 1481.1 1581.3 1469 1561.3 1449 1556.3 1405.8 1529.3 1382.7 1477.4 1355.6 1468.4 1315.4 1429.4 1312.4 1431.4 1327.5 1391.4 1354.6 1385.4 1375.7 1362.4 1382.7 1341.4 1393.7 1338.4 1408.8 1326.4 1423.9 1322.4 1451 1309.4 1537.3 1324.4 1569.5 1359.4 1590.6 1376.4 1616.7 1421.4 1622.7 1467.4 1641.8 1495.3 1653.8 1536.3 1646.8 1576.3 1621.7 1601.3 1595.6 1623.3 1606.6 1661.3 1622.7 1691.3 1636.8 1711.3 Z" data-holc_grade="B"/>
<path d="M 2181.6 2599.2 2091.2 2554.2 2110.8 2509.2 2115.3 2488.2 2111.5 2452.9 2095.7 2437.2 2094.2 2421.4 2106.1 2410.6 2167.4 2395.6 2197.6 2372.5 2222.7 2327.5 2234.7 2311.5 2252.8 2273.5 2263.1 2263.1 2279.2 2232.1 2310.3 2192.1 2317.4 2252.6 2326.9 2292.6 2329.9 2329.1 2330.5 2356.1 2330 2382.6 2327.5 2404.6 2317.4 2427.6 2297.3 2458.6 2274.2 2486.1 2251.1 2506.1 2218.5 2537.2 2202.9 2557.7 2190.9 2578.7 2181.6 2599.2 Z" data-holc_grade="B"/>
<path d="M 2351.3 2488.5 2351.1 2488.5 2338.1 2512 2325.5 2536.5 2304.9 2561.5 2296.9 2585 2288.9 2630.5 2288.9 2631 2288.9 2631.2 2290.3 2647.6 2290.4 2648.2 2284.4 2653.2 2284.2 2676.8 2283.9 2717.7 2280.9 2732.2 2270.8 2750.7 2267.8 2769.7 2254.8 2795.7 2249.7 2814.2 2214.6 2877.8 2210.1 2886.8 2208.2 2893.2 2208 2893.8 2204.6 2905.8 2186.5 2936.3 2172.4 2951.8 2152.8 2985.3 2154.3 2998.3 2153.3 3005.9 2148.3 3016.6 2042.2 2966.2 2043.4 2953 2107.4 2855.8 2116.9 2852.8 2133.5 2838.5 2193.7 2719.2 2227.6 2677.2 2232.2 2657.7 2220.8 2632.9 2203.5 2609.7 2181.6 2599.2 2190.9 2578.7 2202.9 2557.7 2218.5 2537.2 2251.1 2506.1 2274.2 2486.1 2297.3 2458.6 2317.4 2427.6 2327.5 2404.6 2330 2382.6 2330.5 2356.1 2329.9 2329.1 2326.9 2292.6 2317.4 2252.6 2310.3 2192.1 2323.4 2176.1 2337.4 2154.6 2351 2126.1 2367 2098 2377.6 2087 2410.2 2069.5 2444.9 2088.5 2399.7 2138 2395.2 2159.5 2391.7 2177 2384.1 2198 2374.1 2215 2364.6 2228.1 2361.6 2240.1 2364.6 2260.1 2370.6 2278.6 2378.7 2295.1 2376.2 2343.1 2373.2 2410.1 2372.7 2428.6 2362.7 2451.1 2355.1 2474.1 2351.3 2488.5 Z" data-holc_grade="B"/>
<path d="M 2885.6 3073.5 2835.4 3056.7 2785.8 3042.3 2739.3 3020.5 2692.1 2987.4 2661.3 2962.4 2635.6 2936.7 2612.9 2906.7 2596 2941.8 2585.3 2974.3 2559 3034.3 2478.6 2998.1 2403.2 2964.4 2363 2949.4 2310.2 2930 2256.8 2910.6 2224.8 2895.7 2208.2 2893.2 2210.1 2886.8 2214.6 2877.8 2249.7 2814.2 2254.8 2795.7 2267.8 2769.7 2270.8 2750.7 2280.9 2732.2 2283.9 2717.7 2284.2 2676.8 2291.9 2679.9 2308.2 2685.5 2316.4 2689.9 2334 2706.8 2343.4 2711.8 2349.1 2708.7 2353.5 2679.9 2340.3 2671.2 2310.7 2656.2 2290.4 2648.2 2290.3 2647.6 2288.9 2631.2 2288.9 2631 2288.9 2630.5 2296.9 2585 2304.9 2561.5 2325.5 2536.5 2338.1 2512 2351.1 2488.5 2351.3 2488.5 2386 2501.7 2410.5 2513 2418.7 2519.2 2387.3 2580.5 2462.1 2618 2474.6 2611.1 2488.4 2586.1 2496 2584.2 2510.4 2589.2 2520.5 2576 2561.9 2533.5 2566.3 2519.1 2586.4 2491.6 2610.2 2454.7 2610.2 2439.7 2601.4 2425.3 2604.5 2411.6 2622.7 2384.1 2632.7 2360.9 2657.8 2281.5 2704.9 2304 2734.5 2329.6 2762.7 2355.2 2780.9 2375.2 2811.7 2384 2843.1 2389 2879.5 2388.9 2885.8 2409.6 2891.5 2427.7 2892.1 2457.1 2888.4 2483.9 2867.1 2544.6 2866.5 2564.6 2871.5 2587.1 2867.8 2606.5 2859.6 2622.1 2842 2630.9 2820.7 2637.8 2801.2 2645.3 2773.6 2672.2 2773 2682.8 2781.1 2696.6 2801.9 2708.4 2837.7 2722.8 2862.2 2737.8 2883.6 2761.5 2903 2792.1 2905.6 2809 2895.5 2832.2 2886.1 2855.3 2882.4 2879.7 2957.1 2914.7 2885.6 3073.5 Z" data-holc_grade="B"/>
<path d="M 1796.3 3738.3 1813.1 3681.9 1832.4 3637.4 1897.6 3494.5 1913.2 3459.7 1939.8 3378 1950.6 3336 1990.4 3245.9 1998.8 3208.7 2010.9 3160.7 2038.6 3062.2 2044.6 3021.4 2042.2 2966.2 2148.3 3016.6 2119.4 3074.2 2091.7 3142.6 2079.6 3195.5 2066.4 3231.5 2042.3 3293.9 2003.7 3405.6 1965.1 3481.3 1960.3 3499.3 1938.6 3556.9 1922.9 3593 1902.4 3656.6 1906 3669.8 1933.8 3704.7 1949.5 3709.5 1966.4 3739.5 1956.7 3746.7 1880.7 3747.9 1796.3 3738.3 Z" data-holc_grade="B"/>
<path d="M 427.7 3276.8 429.1 3286.2 437.6 3290.7 438.1 3297.7 438.6 3304.2 431.6 3317.7 428.5 3332.2 424 3348.8 420.5 3363.8 409.4 3384.8 398.8 3406.3 396.8 3418.3 391.8 3431.3 368.1 3472.8 356.1 3496.8 347 3514.8 323.9 3548.8 312.3 3570.8 304.8 3590.9 293.7 3620.9 286.1 3646.4 268.5 3660.9 241.9 3666.9 210.2 3668.9 196.6 3664.3 188.1 3649.3 184.1 3631.8 182.1 3614.8 179.6 3599.8 179.6 3577.3 178.1 3561.8 177.6 3547.2 189.2 3530.7 225.9 3505.2 245 3479.7 250.5 3451.2 268.7 3420.7 286.8 3392.2 298.3 3369.2 312.4 3344.2 321 3328.7 339.1 3309.7 357.7 3289.2 365.2 3281.2 382.3 3270.7 398.9 3262.2 415.5 3261.2 427.1 3272.2 427.7 3276.8 Z" data-holc_grade="B"/>
</g>
<g id="C">
<path d="M 368.4 263.7 387.5 227.7 426.6 196.7 482.8 156.8 536 163.8 567.1 182.8 572.1 202.8 489.8 277.7 472.7 293.7 434.6 313.6 399.5 322.6 393.4 318.6 400.5 304.6 417.5 298.6 418.6 272.7 399.5 264.7 384.4 264.7 368.4 263.7 Z" data-holc_grade="C"/>
<path d="M 916.8 3164.7 951.3 3142.9 968.5 3123.4 980.8 3116.8 1008.6 3127.3 1030.3 3131.8 1052.3 3141.1 1062.2 3147.7 1047.2 3172 1042.3 3186.1 1042.9 3199.6 1052 3203.8 1064.3 3213.4 1072.5 3211.3 1089.4 3215.5 1102 3224.5 1137.3 3238.7 1158.1 3251 1160.2 3259.1 1156.9 3270.5 1160.5 3279.9 1148.5 3305.5 1127.8 3346.8 1126.5 3354.3 1102 3409.9 1089.4 3430.6 1078.1 3443.7 1071.8 3461.8 1064.9 3477.5 1059.3 3498.7 1048 3521.2 1036.6 3546.3 1014 3576.3 1006.5 3592.5 998.3 3605 977.6 3643.8 965.6 3669.5 956.2 3692 953.7 3703.2 941.7 3725.1 929.8 3735.1 906.5 3730.1 897.7 3718.9 886.4 3702 884.6 3684.4 886.5 3665.7 887.1 3643.2 891.5 3621.9 901.6 3605 904.7 3591.3 917.9 3568.1 931.7 3536.9 941.2 3512.5 949.3 3485.6 948.7 3464.9 941.2 3447.4 928 3427.4 912.3 3396.1 903.5 3358.6 906 3351.1 915.4 3337.3 932.4 3317.3 936.8 3304.8 938.1 3291.1 923 3280.4 929.3 3259.8 936.8 3250.4 945.6 3226.7 951.3 3207.3 929.9 3192.9 914.9 3175.4 916.8 3164.7 Z" data-holc_grade="C"/>
<path d="M 739.9 3039 810.6 3067 809.4 3077 800.1 3091.8 785.7 3108.2 770.4 3134.2 771 3164 779 3190.1 796.1 3210.1 810.1 3263.1 818.2 3269.1 835.2 3294.1 834.2 3335.2 843.3 3364.2 847.3 3382.2 846.3 3405.2 843.3 3420.2 824.1 3484.3 822.1 3506.3 820.1 3522.3 808 3588.3 799 3614.3 796.9 3640.4 797.9 3686.4 796.9 3707.4 790.9 3723.4 727.5 3718.4 687.3 3720.4 673.3 3707.4 666.2 3656.3 667.3 3601.3 677.3 3540.2 681.4 3505.2 697.5 3402.2 706.6 3305.1 703.6 3287.1 700.6 3257.1 708.6 3241.1 708.6 3216 691.6 3191 679.5 3164 675.5 3134 687.6 3106 706.7 3081 739.9 3039 Z" data-holc_grade="C"/>
<path d="M 1229.1 747.6 1271.3 807.6 1296.4 821.6 1334.5 854.6 1389.7 881.6 1318.5 927.6 1273.3 993.5 1282.3 1036.5 1280.3 1048.5 1185.9 1175.4 1170.8 1178.4 1097.5 1141.4 1089.5 1158.4 1046.3 1217.4 1023.2 1219.4 1013.2 1203.4 986.1 1145.4 975 1078.4 973.1 1039.4 982.1 999.5 1014.2 970.5 1060.4 936.5 1116.7 888.5 1157.8 849.6 1229.1 747.6 Z" data-holc_grade="C"/>
<path d="M 1421.8 1815.3 1407.8 1863.3 1188.8 1811.3 1194.8 1801.3 1208.9 1794.3 1208.4 1789.1 1206.9 1773.3 1206.9 1734.3 1204.9 1710.3 1210.9 1682.3 1219 1661.3 1236 1636.3 1250.1 1608.3 1278.2 1578.3 1311.4 1555.3 1327.4 1533.3 1326.4 1508.3 1310.4 1483.3 1282.3 1453.3 1312.4 1431.4 1315.4 1429.4 1355.6 1468.4 1382.7 1477.4 1405.8 1529.3 1449 1556.3 1469 1561.3 1481.1 1581.3 1476.1 1602.3 1421.8 1815.3 Z" data-holc_grade="C"/>
<path d="M 955.9 2067.8 973.5 2047.3 991.1 2029.8 995.6 2029.8 1002.7 2022.8 1020.2 2015.3 1021.2 2124.3 1023.7 2173.8 1018.2 2184.8 998.1 2208.3 988.5 2221.8 986 2230.3 976.5 2251.8 973.5 2266.8 972.5 2276.3 968.4 2280.3 961.9 2279.8 954.9 2273.8 949.9 2263.8 947.8 2251.3 952.4 2233.3 959.4 2219.8 965.4 2207.3 967.5 2192.8 963.9 2182.8 963.9 2170.8 968 2155.3 958.9 2156.8 946.9 2150.8 944.4 2143.3 944.9 2123.8 954.9 2103.3 955.9 2067.8 Z" data-holc_grade="C"/>
<path d="M 1420.8 2158.1 1409.2 2183.1 1435.3 2194.6 1491.1 2220.6 1500.1 2215.6 1510.7 2216.1 1531.3 2227.1 1539.8 2223.1 1554.4 2229.1 1585.5 2246.1 1586 2252.1 1563.9 2300.6 1565.4 2307.6 1590.1 2327.6 1591.1 2341.1 1586.5 2345.6 1575 2348.1 1371.5 2251.1 1338.9 2235.6 1256.5 2195.6 1262.6 2171.6 1263.1 2162.1 1258.5 2153.1 1241.5 2146.6 1228.9 2145.1 1228.9 2139.1 1238.5 2119.1 1248 2086.6 1257.5 2066.1 1247.5 2034.1 1237.5 2021.1 1236 1992.1 1232.9 1983.1 1191.8 1967.1 1191.8 1955.6 1202.8 1951.6 1218.4 1957.1 1245.5 1973.1 1269.6 1990.1 1291.7 2012.6 1453.4 2084.6 1454.9 2089.6 1445.9 2109.6 1437.4 2109.6 1415.3 2099.6 1409.2 2100.6 1390.6 2144.6 1420.8 2158.1 Z M 1333.4 2213.1 1391.6 2244.1 1409.7 2195.1 1355 2170.6 1333.4 2213.1 Z" data-holc_grade="C"/>
<path d="M 2305.8 1558.5 2455.1 1386.9 2478.4 1416.5 2504.5 1429.5 2530.7 1434.5 2547.7 1452.4 2554.8 1500.4 2561.8 1544.4 2578.9 1564.4 2574.9 1586.4 2575.9 1604.4 2569.9 1632.4 2573 1663.4 2586 1680.4 2605.1 1709.4 2583 1732.4 2524.8 1776.4 2506.7 1798.4 2508.8 1826.4 2495.7 1858.4 2474.6 1896.4 2454.6 1929.4 2426.5 1987.4 2409.4 2015.4 2386.3 2034.4 2347.1 2071.5 2324 2067.5 2293.9 2080.5 2287.9 2077.5 2266.8 2135.5 2257.8 2137.5 2206.5 2121.5 2165.3 2183.5 2163.3 2209.5 2180.4 2228.5 2205.5 2236.5 2218.6 2248.5 2236.7 2270.5 2252.8 2273.5 2234.7 2311.5 2222.7 2327.5 2197.6 2372.5 2167.4 2395.6 2106.1 2410.6 2068 2397.6 2115.1 2274.6 2111.1 2251.6 2140.2 2179.5 2140.2 2158.5 2167.3 2088.5 2000.6 2013.6 2074.8 1850.6 2174.3 1894.5 2305.8 1558.5 Z" data-holc_grade="C"/>
<path d="M 1728.7 2400.5 1774.7 2424.5 1786.7 2402.7 1798 2404.2 1883.2 2442.5 1937.5 2453.7 2024.1 2462.7 2054.2 2437.9 2055 2421.4 2068 2397.6 2106.1 2410.6 2094.2 2421.4 2095.7 2437.2 2111.5 2452.9 2115.3 2488.2 2110.8 2509.2 2091.2 2554.2 2181.6 2599.2 2203.5 2609.7 2220.8 2632.9 2232.2 2657.7 2227.6 2677.2 2193.7 2719.2 2133.5 2838.5 2116.9 2852.8 2107.4 2855.8 2090.5 2861.1 2068.7 2861.1 2030.2 2846.8 1942.8 2803.3 1921.7 2795.1 1871.2 2767.3 1842.6 2756.1 1618 2657.1 1622.2 2646.8 1647.9 2585 1691 2481.5 1690.3 2465.8 1629.2 2434.3 1628.5 2422.3 1650.3 2364.5 1728.7 2400.5 Z" data-holc_grade="C"/>
<path d="M 2657.8 2281.5 2632.7 2360.9 2622.7 2384.1 2604.5 2411.6 2601.4 2425.3 2540.7 2429 2526.3 2433.7 2510.1 2427.5 2506.1 2421 2491 2411.5 2476.4 2405.5 2452.3 2398 2443.8 2389 2442.2 2382.5 2447.3 2378.5 2475.9 2306 2484.4 2286 2487.9 2272 2506 2231 2512 2215 2528.1 2210 2543.6 2211.4 2573.8 2224.9 2603.9 2250.4 2657.8 2281.5 Z" data-holc_grade="C"/>
<path d="M 2107.4 2855.8 2043.4 2953 2042.2 2966.2 2044.6 3021.4 2038.6 3062.2 2010.9 3160.7 1998.8 3208.7 1990.4 3245.9 1950.6 3336 1939.8 3378 1913.2 3459.7 1897.6 3494.5 1832.4 3637.4 1813.1 3681.9 1796.3 3738.3 1791.4 3759.9 1774.6 3788.7 1640.6 3793.6 1644.3 3714.3 1603.2 3495.7 1570.7 3354 1518.8 3037.1 1536.9 2956.6 1744.3 3051.5 1715.4 3112.7 1802.2 3147.5 1769.7 3215.9 1768.5 3231.6 1778.1 3246 1804.6 3258 1892.7 3063.4 1893.9 3040.6 1881.8 3026.2 1786.5 2981.8 1776.9 2971 1797.4 2933.8 1797.4 2917 1716.6 2877.4 1669.5 2848.6 1552.5 2798.2 1618 2657.1 1842.6 2756.1 1871.2 2767.3 1921.7 2795.1 1942.8 2803.3 2030.2 2846.8 2068.7 2861.1 2090.5 2861.1 2107.4 2855.8 Z" data-holc_grade="C"/>
</g>
<g id="D">
<path d="M 1282.3 1453.3 1310.4 1483.3 1326.4 1508.3 1327.4 1533.3 1311.4 1555.3 1278.2 1578.3 1250.1 1608.3 1236 1636.3 1219 1661.3 1210.9 1682.3 1204.9 1710.3 1206.9 1734.3 1206.9 1773.3 1208.4 1789.1 1159.3 1797.2 1056.9 1716.2 981.6 1653.2 920.6 1604.4 916.1 1587.9 920.6 1566.2 936.4 1541.4 973.3 1516.7 992.2 1517.5 1011 1507 1015.5 1494.2 1075.1 1390 1225.7 1397.5 1221.9 1476.3 1229.4 1476.3 1260.3 1442.5 1282.3 1453.3 Z" data-holc_grade="D"/>
<path d="M 2455.1 1386.9 2305.8 1558.5 2234.4 1525.6 2209.3 1580.6 2177.2 1634.6 2110.9 1658.6 2004.5 1598.6 2084.8 1425.6 2137 1312.6 2174.1 1242.7 2469.4 1370.5 2455.1 1386.9 Z" data-holc_grade="D"/>
<path d="M 955.9 2067.8 954.9 2103.3 944.9 2123.8 944.4 2143.3 946.9 2150.8 958.9 2156.8 968 2155.3 963.9 2170.8 963.9 2182.8 967.5 2192.8 965.4 2207.3 959.4 2219.8 952.4 2233.3 947.8 2251.3 949.9 2263.8 954.9 2273.8 961.9 2279.8 968.4 2280.3 972.5 2276.3 973.5 2266.8 976.5 2251.8 986 2230.3 988.5 2221.8 998.1 2208.3 1018.2 2184.8 1023.7 2173.8 1021.2 2124.3 1020.2 2015.3 1037.8 2005.8 1049.4 1996.3 1096.6 1996.8 1102.1 2002.8 1106.1 2124.8 1113.1 2127.8 1116.6 2189.3 1053.8 2189.3 1046.8 2198.8 1049.3 2214.8 1093.5 2242.8 1062.9 2328.3 1075.4 2334.4 1047.8 2393.4 1011.6 2374.3 1032.2 2324.8 1005.6 2309.8 973 2293.8 949.8 2342.3 920.2 2327.8 890.1 2311.8 872.5 2171.3 869.5 2139.8 884.1 2100.3 898.7 2067.3 903.7 2058.3 914.2 2055.3 924.3 2056.8 935.3 2063.3 955.9 2067.8 Z" data-holc_grade="D"/>
<path d="M 1238.5 2119.1 1224.9 2119.1 1222.9 2052.6 1179.2 2056.6 1177.2 1967.1 1191.8 1967.1 1232.9 1983.1 1236 1992.1 1237.5 2021.1 1247.5 2034.1 1257.5 2066.1 1248 2086.6 1238.5 2119.1 Z" data-holc_grade="D"/>
<path d="M 1713.6 2233.6 1680.1 2275.4 1661.9 2298.1 1586 2387.2 1535.3 2433.7 1519.7 2442.2 1513.7 2449.7 1505.2 2456.7 1485.6 2464.7 1465 2466.2 1449.4 2472.7 1430.3 2478.2 1423.8 2473.2 1424.3 2455.7 1431.8 2430.2 1373 2404.7 1370 2396.2 1380.6 2367.1 1345.9 2350.1 1329.3 2345.1 1311.3 2339.6 1297.7 2331.1 1284.6 2318.6 1290.2 2308.1 1307.2 2315.1 1338.9 2325.1 1345.9 2329.6 1355 2332.1 1367.5 2298.1 1338.9 2286.1 1316.8 2276.1 1284.1 2262.6 1256 2249.1 1235.9 2240.6 1233.4 2231.6 1234.9 2223.6 1243 2217.6 1251 2209.1 1256.5 2195.6 1338.9 2235.6 1371.5 2251.1 1575 2348.1 1586.5 2345.6 1591.1 2341.1 1590.1 2327.6 1565.4 2307.6 1563.9 2300.6 1586 2252.1 1585.5 2246.1 1554.4 2229.1 1539.8 2223.1 1531.3 2227.1 1510.7 2216.1 1500.1 2215.6 1491.1 2220.6 1435.3 2194.6 1409.2 2183.1 1420.8 2158.1 1446.9 2168.6 1482.6 2134.6 1492.1 2135.1 1520.2 2148.1 1531.3 2146.6 1549.9 2129.1 1583 2124.6 1591.6 2108.1 1605.6 2103.6 1647.8 2119.6 1659.9 2124.6 1724.7 2124.1 1729.2 2128.6 1693.5 2219.1 1713.6 2233.6 Z M 1676.5 2224.1 1636.8 2206.1 1619.7 2250.6 1661.4 2271.1 1676.5 2224.1 Z" data-holc_grade="D"/>
<path d="M 2068 2397.6 2055 2421.4 2054.2 2437.9 2024.1 2462.7 1937.5 2453.7 1883.2 2442.5 1798 2404.2 1786.7 2402.7 1774.7 2424.5 1728.7 2400.5 1765.6 2312.7 1734.7 2299.2 1718.9 2300 1680.1 2275.4 1713.6 2233.6 1734 2226.5 1780.7 2185.2 1832.7 2122.9 1938.1 2170.9 2000.6 2013.6 2167.3 2088.5 2140.2 2158.5 2140.2 2179.5 2111.1 2251.6 2115.1 2274.6 2068 2397.6 Z" data-holc_grade="D"/>
<path d="M 1622.2 2646.8 1608.6 2653.1 1579.4 2668.1 1544.3 2675.1 1488 2675.1 1477 2683.1 1428.7 2775.2 1502.1 2862.2 1523.2 2894.2 1532.2 2923.2 1536.9 2956.6 1518.8 3037.1 1570.7 3354 1603.2 3495.7 1644.3 3714.3 1640.6 3793.6 1489.8 3793.6 1487.4 3685.5 1460.9 3542.6 1407.8 3487.3 1371.6 3480.1 1348.7 3468.1 1334.2 3444.1 1336.6 3417.7 1348.7 3392.5 1357.2 3362.4 1346.3 3336 1347.5 3310.8 1359.6 3282 1386.1 3226.8 1371.6 3185.9 1363.2 3153.5 1370.4 3130.7 1393.4 3110.3 1403 3099.5 1440.4 3083.9 1422.3 2995 1425.9 2968.6 1378.9 2833 1378.9 2797 1375.3 2776.6 1309 2684.1 1305.4 2650.5 1311.4 2626.5 1346.4 2526.9 1435.6 2568.9 1454.9 2525.7 1617.7 2597.7 1647.9 2585 1622.2 2646.8 Z" data-holc_grade="D"/>
<path d="M 1129.9 2457.9 1309.7 2534.9 1315.8 2541.9 1268.5 2640.9 1253.5 2642.9 1242.4 2668.9 1227.3 2687.9 1210.2 2689.9 1148.9 2825 1147.9 2850 1144.9 2869 1134.8 2904 1125.8 2918 1107.7 2928 1074.5 2921 1012.2 2905 958 2879 954 2899 932.8 2935 918.8 2972 908.7 2990 900.7 3009 883.6 3016 853.4 3014 832.3 3002 821.3 2978 821.3 2965 829.3 2953 846.4 2925.9 883.6 2854.9 901.7 2833.9 942.9 2802.9 979.1 2790.9 994.2 2776.9 1015.3 2714.9 1050.5 2631.9 1075.6 2567.9 1103.8 2505.9 1129.9 2457.9 Z" data-holc_grade="D"/>
</g>
</svg>