<?xml version="1.0"?>
<svg xmlns="http://www.w3.org/2000/svg" version="1.2" baseProfile="tiny" width="2000" height="918" viewBox="0 0 2000 918" stroke-linecap="round" stroke-linejoin="round">
<g id="holc_ad_data">
<path d="M 189 461.6 188.6 479 88.8 476.9 90.5 454.8 66.2 447.7 45.8 441 28.7 430 23 424.7 13.9 418.2 4.8 412.6 1.8 410.2 1 404.9 4.5 405.4 5.3 406.6 7.7 410.9 10.6 411.7 15.3 412.8 19.3 415.1 22.4 419 25.8 422 28.7 423 31.8 423.5 35.2 427.3 38.1 431.4 44.2 435.7 49.7 439.1 54.2 440.2 60.4 442.2 70.7 444.9 79.4 446.8 83.6 449 89 450.1 94.3 451.1 101 452.8 104.4 452.4 103.2 474.4 160.7 474.7 161.3 463.8 156.9 462.6 156.7 457.6 162.8 458.3 171.2 459.5 181.3 459.8 186.4 460.8 189 461.6 Z" data-holc_grade="A"/>
<path d="M 542.4 448 541.2 449.3 502.3 451.2 502.3 455.5 494.4 456.5 494.1 459.6 491.2 460.1 490.7 461.4 487.4 461 486 462 486.6 468.4 482.9 468.1 479.5 470.2 476 470.6 473.4 472.3 471.1 472.9 468.2 473.3 466.3 474.7 462.3 473 458.3 467.4 456.5 464.1 455.9 462.2 456.7 462.2 458.8 462.7 458.6 461.7 457.8 459.7 457.3 458.3 456 457.4 454 457.6 453.2 458.6 451.5 459 442.4 450.2 441.6 448.6 446.2 451.1 450.4 451.6 456 452.3 460.6 451.6 463.2 451.9 468 452.6 472.8 452.5 481.5 449.5 492.1 446.3 500.4 444.2 507.7 443.6 511.2 443.1 519.2 440.1 526.5 438.8 531.2 439.2 534.9 439.5 543.8 438.7 541.7 442.8 542.4 448 Z" data-holc_grade="A"/>
<path d="M 573.1 448.6 559 447.9 558.2 449.4 546.9 449.4 547 447.6 542.4 448 541.7 442.8 543.8 438.7 550.9 438.1 556.1 437.9 561.6 437.8 573.7 437.7 573.1 448.6 Z" data-holc_grade="A"/>
<path d="M 655.7 448.5 656.7 457.9 654.9 457.8 647.1 455.6 636.1 453.3 630.9 452.6 626.4 452.5 621.4 451.8 615.8 451.4 611.1 450.7 604.2 450.6 597.5 450.1 589.5 449.1 589.8 437.7 593.7 438.6 599.6 438.5 604.9 438.3 610 438.2 615.3 438 620.2 437.7 624.4 437.1 629.4 436.6 635.3 437.2 639.7 438.3 641.9 439.9 644.8 443 646.5 445.8 649.4 446.9 652.9 447.5 655.7 448.5 Z" data-holc_grade="A"/>
<path d="M 589.5 449.1 597.5 450.1 604.2 450.6 611.1 450.7 615.8 451.4 621.4 451.8 626.4 452.5 630.9 452.6 636.1 453.3 647.1 455.6 654.9 457.8 655.4 459.9 655.3 461.1 630.1 455.5 612.3 454.2 611.5 463.4 596.3 463.3 595.5 453.1 582 452.5 582.3 449 589.5 449.1 Z" data-holc_grade="A"/>
<path d="M 821.5 605.1 820.5 606.9 820.6 628.2 798.7 627.9 793.4 627.9 793 604.3 802.8 603.7 803.1 601.6 819.9 601.6 821.8 604.7 821.5 605.1 Z" data-holc_grade="A"/>
<path d="M 927.1 652.8 946.7 653.3 947 673.7 945.4 676.2 945.7 678.3 927.4 676.8 927.1 652.8 Z" data-holc_grade="A"/>
<path d="M 753.2 747.8 722.8 746.9 719.5 746.7 719.4 745.3 720.6 733.2 722.6 731.9 727.1 730.4 731.9 730.3 732.3 725.1 743.2 727.1 752.8 728.9 755 729.1 759.7 729.1 765.6 730.2 769.5 732.2 770.8 733.6 770.7 735.2 753.2 747.8 Z" data-holc_grade="A"/>
<path d="M 708.8 785.7 708.1 786.2 705.8 787.5 703 786.3 701.9 786 700.2 785.6 694.7 787.1 692 787.1 692.1 785.3 693.9 781.2 695.2 779.6 700.4 777.8 705.1 776.2 705 774.2 704.2 772.7 708.8 770.8 711.4 773.6 715.1 774.3 720.6 773.9 720.8 776.2 719.2 778.1 713.8 781.8 708.8 785.7 Z" data-holc_grade="A"/>
<path d="M 827.2 799.4 813.8 798.4 810.1 801.3 801.2 804.6 796.4 805.8 793.6 807.2 793.3 816.9 757.3 816.9 757.7 794.7 797.2 794.7 797.1 791.8 827.3 792.2 827.2 799.4 Z" data-holc_grade="A"/>
<path d="M 1370.1 569.9 1411.3 569.7 1411.5 588.9 1370.9 589.5 1370.1 569.9 Z" data-holc_grade="A"/>
<path d="M 443.7 459.9 442.9 461.8 443.7 465.4 446.8 471 447.5 472.9 431.5 474.4 427.2 474.6 422.5 474.2 420.1 472.5 417.4 473.6 418.2 476.9 417.5 479.3 415.9 480.2 413.6 481.4 407 482.6 377.7 488.7 374.3 489.7 371.8 490.4 359.2 487.7 352.6 486.9 342.7 487.5 322.1 487.4 322.8 481.6 329.3 482.2 333.2 481.5 339.5 481.7 343.5 481.7 346.9 480.3 354.6 479.3 366 476.9 376.6 475.1 394.4 471.4 433.5 457.4 433.3 456.1 433 453.9 435 453.5 435.7 454.9 437.4 455.1 440.5 455.9 443.7 459.9 Z" data-holc_grade="A"/>
<path d="M 1431.7 545 1467.9 545 1479.4 544.6 1479.9 547.8 1473.7 547.9 1473.3 569.6 1437.1 569.7 1411.3 569.7 1370.1 569.9 1369.7 545.2 1376.1 544.6 1388.3 544.1 1399.8 543.8 1410.9 544.4 1423.8 544.4 1431.7 545 Z" data-holc_grade="A"/>
<path d="M 1418.2 518.5 1425 520.1 1428.4 522.2 1431.7 524.2 1434.3 525.2 1434.3 526.4 1432.7 528.3 1431.9 530.7 1431.9 532.6 1431.1 535.8 1431.7 545 1423.8 544.4 1410.9 544.4 1399.8 543.8 1388.3 544.1 1376.1 544.6 1369.7 545.2 1370.1 543.7 1370.3 538.8 1366.4 538.8 1356.3 538.4 1349.5 537.2 1343.7 533.7 1351.3 527 1341.2 519.1 1342.5 517.7 1417 519.6 1418.2 518.5 Z" data-holc_grade="A"/>
<path d="M 1305.1 461.2 1306.1 468.6 1310.2 470.5 1320.3 471.4 1320.4 471.4 1324.7 471.8 1323.5 483.2 1326.3 486.3 1329.4 494.4 1331.3 498.3 1333.8 502 1342.5 509.4 1345.5 511.9 1344.5 515.5 1342.5 517.7 1341.2 519.1 1351.3 527 1343.7 533.7 1341.8 535.5 1329.4 526.2 1329.6 520 1303.4 521.3 1301.4 521.3 1301.6 518 1302.6 498.8 1299.9 470.2 1278.5 468.3 1272.2 467.8 1271.2 448.8 1291 456.5 1294.5 456.7 1297 459.3 1301.4 461.2 1305.1 461.2 Z" data-holc_grade="A"/>
<path d="M 1467.6 532.7 1467.9 545 1431.7 545 1431.1 535.8 1457.3 536.8 1461 534.5 1467.6 532.7 Z M 1418.2 518.5 1417 519.6 1342.5 517.7 1344.5 515.5 1345.5 511.9 1348.2 509.4 1351.7 509.4 1351.3 506.2 1361.7 506.9 1366.4 510 1370.9 511.4 1377.1 510.4 1385.2 510.5 1387.3 512.4 1391.4 514.8 1399.9 516.1 1411.2 517.1 1418.2 518.5 Z M 1331.3 498.3 1329.4 494.4 1326.3 486.3 1323.5 483.2 1324.7 471.8 1320.4 471.4 1327 471.5 1332.1 474.7 1336.5 479.9 1336.5 484.4 1336.3 489.3 1337.3 494.6 1337.3 498.2 1331.3 498.3 Z M 1467.6 532.7 1465.5 531.3 1464.9 521.9 1457.3 522.5 1449.9 519.1 1446.7 519.7 1443.4 519.7 1442 516.4 1438.3 514.8 1418.7 514.3 1403.6 513.3 1389.5 509.2 1381.1 507.6 1376.7 507.2 1374.3 507.2 1371 504.3 1366.2 503.4 1355.9 502 1346.6 500.5 1345.1 497.5 1344.1 493 1345.8 488.5 1345.6 485 1345.1 480.9 1349.3 478.4 1356.5 480.3 1362.3 480.3 1369.9 482.8 1379.8 484.4 1384.2 485.9 1392.8 488.9 1400.7 490.6 1412.7 491.5 1419.9 493.4 1424.6 492.7 1434.1 492.4 1441.6 494.6 1457.7 497 1463.3 497.2 1462.9 495.6 1454.8 494.4 1452.3 493.4 1453.2 485.9 1453.2 482.2 1447.6 481.6 1438.5 481.4 1429.6 482.2 1422.6 482.8 1419.7 481.8 1411.4 480.5 1411.6 472.6 1423.9 472.3 1424.1 468.4 1432.4 468.4 1465.9 468.2 1467.6 532.7 Z M 1320.3 471.4 1310.2 470.5 1306.1 468.6 1305.1 461.2 1311.7 464.4 1317.2 468.9 1320.3 471.4 Z" data-holc_grade="A"/>
<path d="M 1479.4 544.6 1467.9 545 1467.6 532.7 1465.9 468.2 1499.2 468.1 1498.8 470.3 1530.3 470.4 1533.1 470.9 1566.7 471 1566.7 520.5 1517.4 519.7 1511.9 514.1 1504.7 513.5 1500.2 519.1 1481.2 520.2 1479.4 544.6 Z M 1544.8 479.6 1544 481.1 1543.5 482.7 1544.9 484.4 1546.9 485.8 1548.9 486.6 1551.7 486.6 1554 485.5 1555.7 483.7 1555.8 482.3 1555.3 481.5 1554.6 480.4 1553.5 479.5 1551.5 478.8 1549.2 478.5 1548.2 478.4 1546.2 478.9 1544.8 479.6 Z M 1491.1 483.2 1488.3 482.8 1486 482.9 1480.7 482.3 1478 480.4 1476.7 482.3 1473.9 485.8 1474.4 491.6 1491.8 491.2 1491.4 486.3 1491.1 483.2 Z" data-holc_grade="A"/>
<path d="M 1468.5 420 1468.7 425.9 1499.4 425.4 1499.4 420.9 1509.7 420.6 1510.5 426.6 1508.2 429.6 1505.4 432.5 1501.6 434.3 1499.2 436.8 1499.2 468.1 1465.9 468.2 1432.4 468.4 1432.4 446.8 1435.7 446.7 1436.3 445.6 1437.1 444 1436.1 433.7 1438.3 428.7 1438.7 424.9 1439.9 421.1 1439 419.9 1468.5 420 Z M 1489.3 450.6 1487.9 449.1 1485.6 447.5 1484.4 446.6 1484 448.5 1483.9 451.1 1482.6 453 1480.5 455.3 1478 457.3 1476.1 459.1 1474.3 461.6 1474.8 463.1 1476.1 464.6 1478.1 465.1 1480.5 464.9 1481.4 464.9 1486.8 461.5 1491 458.9 1495.7 458.3 1496 451.1 1493.6 451.2 1489.3 450.6 Z" data-holc_grade="A"/>
<path d="M 1598.1 371 1597.9 380.7 1589.1 381.1 1589.1 379 1586.3 378.2 1582.8 377.6 1582.2 376.1 1578.7 376.1 1575.7 376.2 1574.9 376.2 1573.5 373.3 1572.9 372.6 1571 372.2 1569.6 370.3 1569 369.1 1563.5 368.3 1562.1 368.4 1561.4 367.1 1560.5 365.2 1558 364 1554.4 364.2 1554.4 357.7 1565.8 357.9 1582.2 357.9 1594.2 357.6 1594.7 361.3 1598.3 360.3 1598.1 371 Z" data-holc_grade="A"/>
<path d="M 1444.7 378.2 1447.2 380.4 1449.8 381.7 1450.1 391.1 1434.6 390.4 1419.1 390.2 1401.9 389.8 1401.9 355.7 1400.2 345.2 1396.3 339.4 1404 340.1 1410.3 340.5 1413.5 337.9 1416.6 336.7 1422.9 335 1431.7 334.1 1433.6 336.3 1433.6 341.2 1428.5 353.9 1429.7 355 1436.5 355.9 1434.6 378.4 1444.7 378.2 Z" data-holc_grade="A"/>
<path d="M 1396.3 339.4 1400.2 345.2 1401.9 355.7 1396.3 355.7 1393.4 356.3 1391.7 353.9 1380.5 357.3 1375.7 359.1 1370.4 361.2 1365.7 362.4 1365.3 365 1358.7 366.2 1354.4 366.4 1352.7 363.7 1349.8 355.3 1348.5 352.8 1347.6 346.5 1367.7 346.8 1367.8 323.2 1368.2 321.3 1373.5 321.6 1376.9 325.2 1381.3 322 1386.8 326.1 1390.2 330.7 1393.6 336.1 1396.3 339.4 Z" data-holc_grade="A"/>
<path d="M 1367.8 323.2 1367.7 346.8 1347.6 346.5 1340.1 325.4 1343.3 323.1 1355.2 322.9 1367.8 323.2 Z" data-holc_grade="A"/>
<path d="M 415.1 501.9 387.2 514.2 375.5 519.4 371.2 519.5 368.8 512.2 365.5 500.5 342.9 500.8 342.7 487.5 352.6 486.9 359.2 487.7 371.8 490.4 374.3 489.7 377.7 488.7 407 482.6 413.6 481.4 412.4 483.1 412 485.9 412.3 488.8 413.5 491.3 412.8 494.6 411.8 499.3 414.1 501.1 415.1 501.9 Z" data-holc_grade="A"/>
<path d="M 1432.7 76.2 1443.4 69.3 1454.9 80.7 1444.3 87 1432.7 76.2 Z" data-holc_grade="A"/>
<path d="M 1457.2 58.5 1463.5 54.2 1468.8 51 1474.4 45.5 1479.7 43.5 1492.3 55.4 1490.7 58.9 1471.7 70.5 1470.4 69.6 1457.2 58.5 Z" data-holc_grade="A"/>
<path d="M 418.8 504.7 423.9 506.1 428.6 507.3 435.9 508 447.8 508.3 475.7 509.2 476.6 504.4 477.3 503.5 479.3 503.5 482.4 504.5 486.7 506.8 480.7 517.1 480.5 521.5 473.2 521.1 472.8 514.8 449.8 514.3 445.6 523.1 444.4 523.1 439.6 523 431.9 543 419.5 545.5 418.8 504.7 Z" data-holc_grade="A"/>
<path d="M 434.6 581.3 433.3 568.1 464.1 568.1 464.2 566.2 471.9 566.4 472.1 580.4 468.8 580.8 465.3 581 462.3 582 459.1 582.8 454.8 583.6 450.6 584.2 436 584.7 434.6 581.3 Z" data-holc_grade="A"/>
<path d="M 339.8 648.6 340.2 631.4 344.6 629 353.2 625.1 362.1 622.9 374.5 619.5 379.1 615.8 379.7 621.7 390.2 621.9 390.2 627.6 384.4 628.5 382.9 629 380.8 632.3 367.9 632.5 366.4 633.5 365.8 635.8 364.6 637.3 364.8 640.6 366.1 642.1 369.3 641.7 369.7 639.1 370.9 638.3 372.5 637.7 378.9 637.6 381.1 636.3 383.4 634.8 386.4 632.6 389.2 631.7 390.2 631.7 390.2 649.9 339.8 648.6 Z" data-holc_grade="A"/>
<path d="M 538.5 557.8 536.7 586.7 530.2 587.2 522.8 589.6 521 589.6 520.1 585.5 517.8 585 516.3 586.1 516 589.8 508.6 589.1 505.4 599.4 509.4 599.6 508.9 605.3 506.3 612 503.7 611.3 497.4 631 490.3 631.4 490.3 628.7 489.4 622.4 488.2 615.3 486.9 610.9 486.9 605.6 487.9 603.5 488.5 599.4 493.9 597.8 493.9 597.1 484.3 596.1 486.3 594.2 488.9 593.2 491.5 590.6 494.7 591.3 494.5 585.8 499.2 583.5 505.8 580.3 509.9 576.3 510.8 573.4 510.8 560.6 506.3 555.9 508.4 552.2 516.7 548.4 517.6 546.1 525.6 544.6 524.8 553.1 523.2 556.4 523.6 557.4 538.5 557.8 Z" data-holc_grade="A"/>
<path d="M 568.8 525.7 569.2 528.9 561.9 528.5 560.6 531.8 542.5 532.2 542.2 543.1 554.8 543.4 557.5 543.7 558 545.5 558.5 547.5 559.6 550.8 560.8 553.3 564.2 555.8 568.6 556.2 568.3 563.8 569.4 565.5 570.3 566.9 564 569.8 563.2 569.6 560.8 566.4 559.4 564.2 558.5 562 555.6 561.8 555.8 556.2 553.7 554.3 552.8 555 540.4 555.2 538.5 557.8 523.6 557.4 523.2 556.4 524.8 553.1 525.6 544.6 525.8 543.2 525.3 540.3 523.2 538.2 520.8 536.2 519.1 534.5 520.8 532.3 536.6 532.2 537.6 525.9 555.6 525.5 568.8 525.7 Z" data-holc_grade="A"/>
<path d="M 549.2 508.5 557.1 508.6 555.6 525.5 537.6 525.9 536.6 532.2 520.8 532.3 519.1 534.5 512.5 532.5 496.7 532.3 496.1 527.6 495.1 524.6 495 519.8 501.2 504.1 529.8 504.7 538.2 505.9 537.7 519.1 548.8 519.1 549.2 508.5 Z" data-holc_grade="A"/>
<path d="M 189 461.6 193.7 462.7 201.6 464.2 208 464.9 215.2 465.8 220.6 467.3 223.2 468.7 226.9 469.5 232.2 469.5 236.8 468.9 242.4 467.3 252.8 469.5 258.1 470.4 270.7 473.8 276.5 474.5 278.2 474.2 280.6 475.6 289.4 476.9 293.5 478.5 292.3 503.6 73.7 501.2 74.2 496.5 73.5 494 72.5 478.4 41.5 476.9 41.5 466.9 50.2 466.9 50 462.9 42 458.2 42 449.9 29.6 449.9 28.4 457.8 12.1 458.4 13.6 438.1 22.3 438.1 22.3 434.4 6.6 424.6 13.9 418.2 23 424.7 28.7 430 45.8 441 66.2 447.7 90.5 454.8 88.8 476.9 188.6 479 189 461.6 Z" data-holc_grade="B"/>
<path d="M 598.2 504 597.4 525.7 581.1 525.7 568.8 525.7 555.6 525.5 557.1 508.6 549.2 508.5 549.4 504.6 559.6 503.7 576.5 503.8 598.2 504 Z" data-holc_grade="B"/>
<path d="M 549.4 504.6 549.2 508.5 548.8 519.1 537.7 519.1 538.2 505.9 529.8 504.7 501.2 504.1 502.5 499.9 500.4 495.6 497.7 493.9 494.5 491 493.8 481.8 494.9 480.6 497 481.7 496.6 488.1 500.9 491.6 513.7 491.5 514.3 490.6 514.7 480 539.7 480.9 539.2 502.2 542.1 504.5 549.4 504.6 Z" data-holc_grade="B"/>
<path d="M 550.7 496.5 550 481.5 589.8 482.3 590.1 499.4 554.4 499.7 553.3 494.7 550.7 496.5 Z" data-holc_grade="B"/>
<path d="M 637.7 482.6 637 498.6 602.3 498.3 602.3 480.5 617.3 480.7 618.8 483.7 621.1 482.6 623.6 480.9 626.8 480.3 631.7 480.7 637.7 482.6 Z" data-holc_grade="B"/>
<path d="M 573.1 448.6 582.3 449 582 452.5 595.5 453.1 596.3 463.3 611.5 463.4 612.3 454.2 630.1 455.5 655.3 461.1 655.2 462.3 639.7 463 638.5 464.6 638.4 467.8 594.7 466.5 564.2 466.4 535.4 465.5 535.3 456.9 528 456.9 526.5 464.8 502.8 464.9 467.4 476.2 466.3 474.7 468.2 473.3 471.1 472.9 473.4 472.3 476 470.6 479.5 470.2 482.9 468.1 486.6 468.4 486 462 487.4 461 490.7 461.4 491.2 460.1 494.1 459.6 494.4 456.5 502.3 455.5 502.3 451.2 541.2 449.3 542.4 448 547 447.6 546.9 449.4 558.2 449.4 559 447.9 573.1 448.6 Z" data-holc_grade="B"/>
<path d="M 678.4 451.7 678.6 462.2 674.3 461.7 673.5 463.6 655.4 459.9 654.9 457.8 656.7 457.9 655.7 448.5 661.1 449.6 664.1 449.8 668.7 450.9 674.6 451.9 678.4 451.7 Z" data-holc_grade="B"/>
<path d="M 736.8 472.8 735.2 475.1 678.7 464.1 678.6 462.2 678.4 451.7 682.4 452.2 688.2 452.4 693.7 453 697.2 454.2 701.4 456.1 704 457.1 707.6 457.2 720.7 457.4 720.6 460.7 738.9 465.3 738.1 466.6 736.8 468.5 736.8 472.8 Z" data-holc_grade="B"/>
<path d="M 676.5 573 677.2 558.9 677.4 556.8 688.1 556.6 688.3 555.6 687.4 553.5 699 549.2 712.4 544.1 728.1 543.5 727.6 548.4 726.7 552.5 724.7 555 715.8 561 715 563.2 715.5 566.7 707.6 567 706.6 573 676.5 573 Z" data-holc_grade="B"/>
<path d="M 676.5 573 673.8 573 673.4 573.4 673.4 590.2 642 589.5 643.8 569.1 650.9 568.7 651.1 566.2 651.9 565.8 674.9 559.1 677.2 558.9 676.5 573 Z" data-holc_grade="B"/>
<path d="M 643.8 569.1 642 589.5 636.5 589.8 636 600.9 627.6 601.1 625 603.5 624.8 608.7 622.9 610.1 622.1 612 600.3 611.6 599.8 589.5 603.8 589.1 604.2 581.6 632.2 572.3 631.8 580.2 638.8 580 639.1 563 638.3 562.6 627.9 565.4 628.5 556.9 653.2 549.7 657 556 656.4 556.9 643.7 560.9 643.8 569.1 Z" data-holc_grade="B"/>
<path d="M 462.3 477.2 451 480.5 433 480.2 419.1 479.6 419.8 496.7 423.5 502.4 435.6 502.4 435.3 498.5 441.2 498 441.8 491.1 449.7 491.3 449.4 497.7 454.3 497.9 457.8 503.6 463 505.7 472.9 504.3 476.6 504.4 475.7 509.2 447.8 508.3 435.9 508 428.6 507.3 423.9 506.1 418.8 504.7 415.1 501.9 414.1 501.1 411.8 499.3 412.8 494.6 413.5 491.3 412.3 488.8 412 485.9 412.4 483.1 413.6 481.4 415.9 480.2 417.5 479.3 418.2 476.9 417.4 473.6 420.1 472.5 422.5 474.2 427.2 474.6 431.5 474.4 447.5 472.9 446.8 471 443.7 465.4 442.9 461.8 443.7 459.9 447.7 463.2 451.8 468.4 455.6 472.8 459.3 473.6 461.3 475 462.3 477.2 Z" data-holc_grade="B"/>
<path d="M 849.2 619.7 849.2 636.7 831.8 637.1 831.2 640.5 799.7 640.3 798.8 640.3 798.7 627.9 820.6 628.2 820.5 606.9 821.5 605.1 826.7 606.5 829.6 606.6 831.9 605.9 834 604.7 836 603.9 852.2 603.9 852.9 616.1 849.1 616.2 849.2 619.7 Z" data-holc_grade="B"/>
<path d="M 952.2 682.5 924.1 684.3 922.3 682.1 908.2 681.9 906.9 675.1 885.8 674.4 886.7 669.4 919 670 919.5 658.7 904.2 658.7 902.4 662.7 888.2 662.5 892.2 653.5 915.5 653 915.3 645 909.2 640.6 916.6 636.2 919.8 637 951.8 636.4 952 644.7 954.4 646 954.4 678.2 952 680 952.2 682.5 Z M 927.1 652.8 927.4 676.8 945.7 678.3 945.4 676.2 947 673.7 946.7 653.3 927.1 652.8 Z" data-holc_grade="B"/>
<path d="M 960.3 708.7 929.8 708.2 924.1 708.6 916.1 708.5 900.4 708.6 889.7 708.1 888 705.9 875.7 705.4 875.7 699.5 889.5 700.4 899.8 701.2 926.6 701.1 960.4 699.9 960.3 708.7 Z" data-holc_grade="B"/>
<path d="M 798.5 725.1 832.5 725 833.5 745.2 798.1 745.3 798.5 725.1 Z" data-holc_grade="B"/>
<path d="M 755 761.7 756.1 747.9 753.2 747.8 770.7 735.2 770.8 733.6 769.5 732.2 765.6 730.2 759.7 729.1 755 729.1 752.8 728.9 743.2 727.1 732.3 725.1 733.5 722.8 734.7 722.1 758.1 726.5 769.1 727.2 771.9 727.8 778.3 732.9 789.1 737.6 788.7 744.4 768.6 744.6 768.6 750 868.9 750.9 869.9 760.8 830.1 761.2 829.2 789 829.3 789.7 833.9 789.9 833.7 799.3 827.2 799.4 827.3 792.2 797.1 791.8 797.2 794.7 757.7 794.7 757.1 783.1 754.6 782.8 755 761.7 Z" data-holc_grade="B"/>
<path d="M 753.2 747.8 756.1 747.9 755 761.7 739.9 775 732 769.6 726.5 773.3 725.8 774.4 727.7 775.7 712.4 788.4 708.8 785.7 713.8 781.8 719.2 778.1 720.8 776.2 720.6 773.9 715.1 774.3 711.4 773.6 708.8 770.8 709.4 762.5 711 762.4 714.6 762.4 723.2 759.6 722.8 746.9 753.2 747.8 Z" data-holc_grade="B"/>
<path d="M 396.5 878.3 397.4 867.4 386.2 866.9 380.3 863.8 375 863.7 373.7 862.9 373.4 860.5 367.9 859.9 368.2 857.1 389.6 857.5 390.3 846.2 400.5 846.1 400.6 844.3 423.2 844.3 422.6 848.3 418.6 848 417.5 857.8 400 858.1 400.5 863.4 411.2 864 410.6 872.5 420.4 873.2 419.9 878.3 396.5 878.3 Z" data-holc_grade="B"/>
<path d="M 362.4 902 353.1 901.4 354.1 894.1 358.5 893.8 358.6 885 361.4 885 361.6 882 348.4 881.7 349.9 859.4 356.9 856.5 357.4 860.3 356.5 863.5 358.1 865.4 362.2 867.5 367.3 868.8 371.9 868.6 370.7 874.5 371 876.3 373.6 878.2 372.9 878.9 361.6 894 361.5 894.2 361.8 898.9 362 899 362.1 900.4 362.4 902 Z" data-holc_grade="B"/>
<path d="M 1481.9 782.1 1491.6 776.9 1497.2 774.2 1500.7 773.5 1501.1 789.4 1494.9 789.8 1491.3 791 1489.7 791 1487 789.3 1484.8 788 1482.9 785.2 1482.4 784 1481.9 782.1 Z" data-holc_grade="B"/>
<path d="M 1464.9 766.7 1458.9 766.5 1453.8 766.7 1449.7 767.1 1447.5 769.3 1437.4 764.1 1438.4 762.6 1432.3 759 1431.6 758.4 1437 752.5 1431 747.9 1434.4 746.4 1434.3 731 1464.6 731 1464.9 766.7 Z" data-holc_grade="B"/>
<path d="M 480.5 521.5 481.5 524.3 480 525.6 476.6 525 472.6 524 466.2 523.3 464.3 523.3 460 524.7 458.2 525.4 454.8 525.6 452.4 525.9 450.2 526.8 446.7 529.2 444.5 531.5 444 534.2 445 535.5 445.7 537.4 446.6 539.4 449.5 541.3 452 542.4 449.8 543.6 439.9 541.4 431.9 543 439.6 523 444.4 523.1 445.6 523.1 449.8 514.3 472.8 514.8 473.2 521.1 480.5 521.5 Z" data-holc_grade="B"/>
<path d="M 1484.7 707.1 1462.1 706.9 1446 705.7 1441.3 709.8 1435.3 713.3 1430.5 715.6 1424.7 717.6 1416.3 719.2 1407.4 717.8 1404.8 716.1 1393.8 716.2 1386 716.3 1378.6 716.4 1375.4 717.4 1373.6 716.2 1371.7 712.6 1371.8 705.5 1369.6 704.4 1370.4 692.4 1371.5 690.4 1383.8 690.1 1421.6 690.9 1484.3 692.3 1484.7 707.1 Z" data-holc_grade="B"/>
<path d="M 1236.7 682.4 1236.5 687.4 1216.1 687.9 1220.1 694.6 1221.2 697.1 1223.6 700.4 1227.5 704 1229.9 705.8 1228.9 706.3 1208.6 706.3 1207.9 696.4 1171.4 695.5 1171.7 685.5 1170.6 683.5 1171.3 681.5 1211.5 681.3 1200.7 666.6 1194.9 668 1191.5 665.6 1181.8 667.7 1181.2 654.7 1192.1 652 1209.5 651.9 1209.6 659.9 1211.6 660.5 1212.7 667.8 1221.3 668.6 1222.7 670 1230.7 669.8 1232.2 670.9 1233.3 672.3 1235.5 672.9 1237.1 673.5 1236.7 682.4 Z" data-holc_grade="B"/>
<path d="M 1303.2 645.1 1303.6 647.3 1297.8 647.5 1296.4 648.1 1296.4 649.9 1296.9 652.5 1294.9 653.6 1289.1 654.7 1284.6 657.4 1282.3 660.3 1276.2 658.4 1275.1 646.5 1259.9 646.5 1257.9 622.4 1290.4 621.8 1302.7 621.8 1303.2 645.1 Z" data-holc_grade="B"/>
<path d="M 1370.1 569.9 1370.9 589.5 1411.5 588.9 1411.3 569.7 1437.1 569.7 1436.1 595.7 1400.3 595.6 1346 595.4 1347.1 569.6 1370.1 569.9 Z" data-holc_grade="B"/>
<path d="M 1343.7 533.7 1349.5 537.2 1356.3 538.4 1366.4 538.8 1370.3 538.8 1370.1 543.7 1369.7 545.2 1370.1 569.9 1347.1 569.6 1344.8 569.6 1344.2 542.5 1329.1 542.3 1329.4 526.2 1341.8 535.5 1343.7 533.7 Z" data-holc_grade="B"/>
<path d="M 1278.1 477.7 1278.5 468.3 1299.9 470.2 1302.6 498.8 1301.6 518 1284.4 505 1283.6 485.3 1280.5 484.4 1278.1 477.7 Z" data-holc_grade="B"/>
<path d="M 1284 423 1308 424 1319.2 423.5 1319.4 428.9 1318.3 434.6 1316.9 442 1333.8 442.8 1334.9 446.8 1369.5 447.2 1369.7 477.3 1368.6 477 1362.1 474.7 1358.1 474.8 1352.4 473.8 1346.7 472.3 1340.4 469.5 1335.2 467.2 1326.7 463.2 1322.8 460.5 1315.3 457.7 1311.3 455.2 1308.4 453.9 1305.2 453.9 1298.6 453.7 1293.1 452.7 1287.6 452.1 1285.7 450.1 1283.3 447.4 1282.6 445 1281.3 442.8 1275.9 443.2 1273.7 442.8 1268 441.5 1266.5 442.3 1260.7 443.8 1257.4 443.8 1252.8 441.3 1249.4 441.2 1245.6 442 1244.1 442.8 1241.1 440.8 1241.5 437.2 1240.8 431.1 1244.1 430.4 1250.5 427.5 1254.4 424.9 1258.6 422.5 1271.9 423.1 1281.6 423 1284 423 Z" data-holc_grade="B"/>
<path d="M 1284 423 1283 413.4 1286.9 408.6 1297 403.3 1308.1 400.4 1324.2 399.4 1334.5 397.4 1339.8 397 1340 394.5 1343.4 391.7 1353.9 390.8 1354.9 391.8 1357.3 391.3 1364 388.9 1366.3 390.8 1367.9 395 1368.3 402.2 1369 415.8 1369.3 435.3 1369.5 447.2 1334.9 446.8 1333.8 442.8 1316.9 442 1318.3 434.6 1319.4 428.9 1319.2 423.5 1308 424 1284 423 Z" data-holc_grade="B"/>
<path d="M 1401.9 355.7 1401.9 389.8 1419.1 390.2 1434.6 390.4 1450.1 391.1 1449.6 396.5 1434.2 395.9 1434.3 401 1434.4 409.2 1434.4 413.9 1400.3 413.3 1399.9 432.2 1413.2 432.7 1414.2 446.5 1424.5 446.5 1424.7 448.1 1424.1 468.4 1423.9 472.3 1411.6 472.6 1411.4 480.5 1401.3 479.9 1398.1 477.5 1389.8 477.6 1381.3 475.6 1375.9 476.9 1369.7 477.3 1369.5 447.2 1369.3 435.3 1369 415.8 1368.3 402.2 1367.9 395 1366.3 390.8 1364 388.9 1357.3 391.3 1354.9 391.8 1356.9 388 1350.5 383.3 1353.1 381.7 1349.7 374.4 1347.5 371.3 1354.4 366.4 1358.7 366.2 1365.3 365 1365.7 362.4 1370.4 361.2 1375.7 359.1 1380.5 357.3 1391.7 353.9 1393.4 356.3 1396.3 355.7 1401.9 355.7 Z" data-holc_grade="B"/>
<path d="M 1481.3 314.3 1472.4 318.3 1474.8 321.2 1472.9 345.5 1466.8 345.9 1466.4 354.1 1465.8 363.9 1446.4 363.7 1444.7 378.2 1434.6 378.4 1436.5 355.9 1429.7 355 1428.5 353.9 1433.6 341.2 1433.6 336.3 1431.7 334.1 1422.9 335 1416.6 336.7 1413.5 337.9 1410.3 340.5 1404 340.1 1396.3 339.4 1393.6 336.1 1390.2 330.7 1386.8 326.1 1381.3 322 1376.9 325.2 1373.5 321.6 1368.2 321.3 1368.5 297.3 1370.5 297.4 1376 297 1383.1 296.8 1396.8 296.5 1400.5 296 1401.7 287.6 1400.5 271.3 1411.8 271.2 1433.4 271 1434.1 294.8 1465.6 295.5 1472.6 294.9 1478.9 299.7 1489.6 308.5 1481.3 314.3 Z" data-holc_grade="B"/>
<path d="M 418.8 504.7 419.5 545.5 406.9 549.6 385.9 556.5 385.4 556.7 387.2 514.2 415.1 501.9 418.8 504.7 Z" data-holc_grade="B"/>
<path d="M 1434.4 413.9 1434.8 416.3 1433.7 417.9 1434.2 419.2 1435.7 420.3 1439 419.9 1439.9 421.1 1438.7 424.9 1438.3 428.7 1436.1 433.7 1437.1 444 1436.3 445.6 1435.7 446.7 1432.4 446.8 1432.4 468.4 1424.1 468.4 1424.7 448.1 1424.5 446.5 1414.2 446.5 1413.2 432.7 1399.9 432.2 1400.3 413.3 1434.4 413.9 Z" data-holc_grade="B"/>
<path d="M 1478 354.2 1479.3 356.7 1477.3 358.8 1476.4 365.8 1476.7 368.8 1478.8 370.1 1491.3 369.2 1492.7 365.6 1492 362.2 1495.4 358.9 1498.1 357.4 1498.5 354.3 1508.8 355.4 1508.9 369.1 1514.1 369.7 1514.8 367.9 1521.2 367.6 1524.4 368 1524.8 356.9 1537 357.4 1548.8 357.7 1554.4 357.7 1554.4 364.2 1554.3 386.7 1550.9 387.9 1548.6 388.3 1548.1 397.1 1524.2 396.8 1524.2 402.3 1548.8 403.1 1548.9 419.9 1509.7 420.6 1499.4 420.9 1497 420.1 1495.2 372.3 1482.4 372 1480.1 378.1 1479.3 383.9 1479.6 387.2 1480.3 389.6 1481.5 392.5 1482 395.5 1480.1 399.5 1478.7 402.3 1479.4 404.5 1481 407.6 1482.7 410.9 1484.3 413.6 1484.7 419 1484.2 420.5 1468.5 420 1467.1 410.5 1461.9 409.7 1451.5 409.6 1434.4 409.2 1434.3 401 1458.8 402 1466.4 402.4 1466.4 387.7 1465.5 380.8 1465.5 370.1 1465.8 363.9 1466.4 354.1 1478 354.2 Z" data-holc_grade="B"/>
<path d="M 1513.5 316.2 1512.6 332.8 1504.6 332.8 1503.6 339.9 1486.4 340.3 1487.4 342.8 1488.9 344.6 1489.8 346.6 1489.6 353.3 1485.5 354.3 1478 354.2 1466.4 354.1 1466.8 345.9 1472.9 345.5 1474.8 321.2 1472.4 318.3 1481.3 314.3 1484 316.9 1499.8 316.7 1500.7 314 1511.4 313.6 1513.6 314.7 1513.5 316.2 Z" data-holc_grade="B"/>
<path d="M 1368.5 297.3 1368.2 321.3 1367.8 323.2 1355.2 322.9 1343.3 323.1 1340.1 325.4 1335.1 323.9 1332.8 319.5 1338 316 1342.8 312.7 1344.8 310.1 1345 309.1 1343.7 307.2 1344.5 305.7 1346.1 305.4 1350.1 302.4 1354.4 299.4 1358.5 296.1 1363.9 297 1368.5 297.3 Z" data-holc_grade="B"/>
<path d="M 1239.7 251.8 1227.7 256.9 1225.7 258.3 1213 263 1211.8 263.5 1191 273.4 1173 281.6 1157.9 288.4 1157.1 274.6 1163.5 271.3 1169.4 268 1173 265.4 1179.9 260.6 1191.4 252.5 1198.5 247.9 1208.1 242.4 1215.4 238.5 1218.2 241.5 1217 243.3 1216.8 246 1218 248.9 1220.1 248 1224.5 247.4 1228.1 249.4 1231.8 245.6 1220.5 236.2 1225.1 232.1 1233.4 227.3 1237.6 223.7 1242.9 221.3 1248.7 217 1256.2 212.7 1262.1 208.6 1267.5 204.2 1277 197.5 1285.5 192.3 1290.1 188.8 1297.3 192.9 1300.8 195.3 1299.7 199.7 1288.9 200.4 1283.9 203.9 1275 209.5 1248.7 228.1 1246.9 234.6 1255.6 237.7 1249.5 240.6 1248.1 240.3 1244.5 241.5 1240.5 240.3 1235.6 243.9 1232.8 247 1239.7 251.8 Z" data-holc_grade="B"/>
<path d="M 1312 183 1313.3 180.3 1312.6 177.3 1311.6 174.9 1313.7 173.1 1317.6 170.5 1322.3 167.3 1325.4 164.8 1329.7 160.6 1333.4 157.5 1336.1 156.8 1336.3 157.5 1335.7 160.6 1338 162 1338.3 172.6 1338.3 174 1336 175.3 1329.4 174.2 1314 183.3 1312 183 Z" data-holc_grade="B"/>
<path d="M 1405.3 121 1405.4 120.9 1405.8 120.4 1406.4 119.8 1421.5 123.8 1421 135.4 1417.7 136.4 1414.2 138.6 1375 123 1384.6 117.7 1388.4 113.8 1396.6 106.7 1402.8 111.6 1394.9 118.9 1403.6 124.3 1404.4 124 1404.6 121.6 1405.3 121 Z" data-holc_grade="B"/>
<path d="M 1421.2 108.7 1413.7 108.7 1408.4 107.2 1402.2 101.8 1420.9 87.8 1421.2 108.7 Z" data-holc_grade="B"/>
<path d="M 1434 229.2 1434.6 227.8 1440.9 223.6 1444.8 220.6 1451.1 219.1 1455.2 219.1 1458.3 219.8 1460 222.3 1461.3 226.6 1460.8 229.4 1459.7 232.9 1459.2 236.3 1458 236.4 1450.4 236.6 1443.6 237.1 1443.5 233.9 1440.3 232 1437.8 231.1 1434.6 231.1 1434 229.2 Z" data-holc_grade="B"/>
<path d="M 1458.3 219.8 1456.3 217.7 1455.6 214.5 1454.8 211.9 1453.5 208.6 1455.7 206.4 1459.8 205.6 1463.6 205.6 1467 203.6 1469.1 201.5 1467.8 200.6 1464.8 200.1 1464.7 199.1 1466.9 197.5 1469.8 198.8 1471.1 200 1471.1 201.3 1471.1 202.7 1472.1 204 1475.1 205.3 1475.8 206.9 1476.1 208.4 1476.8 209.4 1479.1 210.3 1479.1 211.5 1477.9 213.9 1476.8 218.1 1474.8 222.1 1474.4 223 1464.5 221.9 1458.3 219.8 Z" data-holc_grade="B"/>
<path d="M 464.2 566.2 464.1 568.1 433.3 568.1 434.6 581.3 412.9 581.5 406.5 581.5 406.7 566.6 406.9 549.6 419.5 545.5 431.9 543 439.9 541.4 438.3 544.3 443 546.5 445.3 546.6 443.4 548.9 443.5 550.8 449 550.2 453.5 549.6 453.4 548.2 455.1 546.3 456.9 546.5 459 547.6 459.8 549.2 462.1 549.8 464.7 549.8 464.2 566.2 Z" data-holc_grade="B"/>
<path d="M 1542.6 189.1 1543.2 194.1 1543 197.2 1538.1 197.4 1532.5 197.6 1529.4 198.5 1530.4 200.4 1531.5 202.2 1531.6 204.5 1527.9 206.2 1522.5 207.2 1516.6 207.7 1512.3 208 1507.1 208.7 1502.3 209.3 1499.1 209.9 1497.4 209.3 1495 208.3 1492.4 208.3 1492.1 210.1 1491.7 209.4 1491 207.6 1488.3 207.1 1484.6 207.7 1484.8 206.7 1484.2 202.2 1481.7 196.6 1484.7 192.1 1486.9 189.6 1490.6 190.4 1497.5 191.4 1499.5 191 1499.8 187 1507.2 186.8 1513.8 186.4 1516.2 187 1519.1 186.9 1520.3 186.2 1520.2 192.5 1521.3 193.6 1523.9 193.7 1528.8 192.7 1535.2 191.7 1541.6 190.1 1542.6 189.1 Z" data-holc_grade="B"/>
<path d="M 1552.1 175.1 1549.3 174.1 1545.9 173.6 1545.9 171.8 1549.3 167.8 1547.3 165.2 1549 163.4 1554.5 159.8 1553.5 157.3 1553.6 156.3 1558.1 153.7 1561.9 150.9 1564.8 151.1 1569.7 151.1 1573.1 153 1575.1 155.2 1575.8 157.8 1576.3 159.8 1574.2 162.5 1572.3 166.3 1572.4 168 1573.5 169.9 1572.4 171.2 1553.1 170.7 1552.4 171.6 1552.1 175.1 Z" data-holc_grade="B"/>
<path d="M 1497.6 55 1492.8 58.1 1493.8 64.9 1492.5 68.9 1487.6 72.7 1487.5 83.6 1452.4 85.4 1448.2 88.7 1450.1 89.9 1450.6 98 1426.1 99.2 1430.4 94 1426.9 90.6 1433.8 84.9 1427.5 80.6 1432.7 76.2 1444.3 87 1454.9 80.7 1443.4 69.3 1449.2 65.7 1455 70.5 1456.9 68.9 1462.6 74.6 1467.4 72.5 1456.9 62.1 1454.2 64 1451.6 62.5 1457.2 58.5 1470.4 69.6 1471.7 70.5 1490.7 58.9 1492.3 55.4 1479.7 43.5 1483.5 42 1497.6 55 Z" data-holc_grade="B"/>
<path d="M 1580.6 14.4 1562.9 21.9 1534.9 32.6 1530.9 34.1 1524.5 36.6 1507.8 46.6 1499.6 32.4 1502.2 32.1 1507.6 29.2 1510.2 26.2 1518 26 1523.1 24.6 1529.4 23.6 1537.6 21.9 1543.8 20.7 1550.9 18.2 1559.2 14.7 1566 11.5 1568.3 11.1 1572.6 7.6 1578.6 5 1584.3 2.2 1595.2 1.8 1593.5 9 1580.6 14.4 Z" data-holc_grade="B"/>
<path d="M 1580.6 14.4 1593.5 9 1595.2 1.8 1632.6 1 1631.9 26.3 1612.7 33 1612.6 42.8 1586.9 42.7 1585.5 43.7 1580.6 43.4 1580.6 14.4 Z" data-holc_grade="B"/>
<path d="M 1207.9 510.6 1207.1 520.7 1211.3 521.4 1215.5 523.1 1218.9 525.2 1219.1 526.7 1219.4 528.1 1218.4 531.2 1215 531.2 1208.5 531.3 1202.7 528.8 1200.9 525.2 1199.5 521.2 1182.8 517.5 1182.8 508.7 1206.3 509.4 1207.9 510.6 Z" data-holc_grade="B"/>
<path d="M 412.9 581.5 434.6 581.3 436 584.7 450.6 584.2 454.8 583.6 459.1 582.8 462.3 582 465.3 581 468.8 580.8 472.1 580.4 471.6 582.5 455.1 587.6 452.4 595.8 448.4 595.7 443.9 590 440.6 589.9 435.4 593.1 424.9 597.4 403.8 603.5 402 605.6 398.5 607.8 396 610.2 398.1 612.1 397.9 614.7 397.8 616.8 395.4 617.3 390.6 617.6 390.2 621.9 379.7 621.7 379.1 615.8 374.5 619.5 362.1 622.9 353.2 625.1 344.6 629 340.2 631.4 339.8 648.6 316.7 648.9 315.9 637.7 335.7 629.7 352.2 621.3 355.7 620.8 365.6 617.6 366.4 602.7 381.3 602.5 381.1 607.9 384 609.2 398.9 602.5 400.1 594.2 412.1 594.8 412.9 581.5 Z" data-holc_grade="B"/>
<path d="M 544.6 608.2 543.5 625 535.6 624.9 530.4 628.1 530.4 638 526.7 641.5 515.7 641.8 515.7 648.7 510.1 649 509.9 656.2 508.3 657.1 479.9 656 480.7 646.7 481.5 644.4 479.5 640 480.7 637.8 489.2 638 490.3 631.4 497.4 631 503.7 611.3 506.3 612 508.9 605.3 513.4 606.7 521.3 608 544.6 608.2 Z" data-holc_grade="B"/>
<path d="M 563.1 584.9 563.2 594.5 551.9 594.8 551.7 597.1 545.1 597.5 544.6 608.2 521.3 608 513.4 606.7 508.9 605.3 509.4 599.6 505.4 599.4 508.6 589.1 516 589.8 516.3 586.1 517.8 585 520.1 585.5 521 589.6 522.8 589.6 530.2 587.2 536.7 586.7 538.5 557.8 540.4 555.2 552.8 555 553.7 554.3 555.8 556.2 555.6 561.8 554.8 565.1 556.9 567.1 560.3 570.8 563.1 574.3 565.2 577.2 566.8 580 562.5 581.1 563.1 584.9 Z M 523.3 602.8 531.2 603 531.3 597 523.4 597.1 523.3 602.8 Z" data-holc_grade="B"/>
<path d="M 568.8 525.7 581.1 525.7 581.1 531.2 580.8 532.6 578.4 531.4 573.9 530.8 569.7 531.3 568.7 532.8 570.3 534.3 576.9 537.7 577.1 539.5 589.7 544 589.4 551.4 577.9 559.4 579.5 561.9 581.9 564.6 582.5 568.8 580.9 577.2 566.8 580 565.2 577.2 563.1 574.3 560.3 570.8 556.9 567.1 554.8 565.1 555.6 561.8 558.5 562 559.4 564.2 560.8 566.4 563.2 569.6 564 569.8 570.3 566.9 569.4 565.5 568.3 563.8 568.6 556.2 564.2 555.8 560.8 553.3 559.6 550.8 558.5 547.5 558 545.5 557.5 543.7 554.8 543.4 542.2 543.1 542.5 532.2 560.6 531.8 561.9 528.5 569.2 528.9 568.8 525.7 Z" data-holc_grade="B"/>
<path d="M 174.8 839.2 174.9 834.5 188.9 834.1 189.4 824.9 192.9 824.9 192.9 823.6 220.1 824.2 222.9 823.1 223.2 830.6 230.7 831 235.5 824.7 242.3 824.4 235 834.2 235 837.3 236.7 838.7 243.3 838.9 247.5 835.8 254.1 835.6 243.3 843.1 243.7 857.5 237.9 857.5 237.3 859.7 237.5 865.7 237.5 868 240.9 872.7 219.6 872.9 222.3 862.1 216.2 861.9 213.5 866.3 192 866.8 192.7 840.1 174.8 839.2 Z" data-holc_grade="C"/>
<path d="M 631.5 502.3 629.9 524.3 609.9 524.3 606.5 525.8 597.4 525.7 598.2 504 599 501.7 631.5 502.3 Z" data-holc_grade="C"/>
<path d="M 569.1 583.7 563.1 584.9 562.5 581.1 566.8 580 580.9 577.2 582.5 568.8 581.9 564.6 579.5 561.9 577.9 559.4 589.4 551.4 589.7 544 577.1 539.5 576.9 537.7 570.3 534.3 568.7 532.8 569.7 531.3 573.9 530.8 578.4 531.4 580.8 532.6 581.1 531.2 581.1 525.7 597.4 525.7 606.5 525.8 609.9 524.3 629.9 524.3 631.2 524.8 631.2 527.3 623.5 528.1 612.8 541.4 605.4 541.3 604.8 548.6 602.7 548.5 585.9 559 589.5 573.3 588.8 579.9 569.1 583.7 Z" data-holc_grade="C"/>
<path d="M 469.2 700 462.1 700 416.3 700.1 416.5 686.5 425.1 686.4 425.3 689.8 433.8 690.1 433.8 680.1 443.7 679.7 445.5 673.3 455.8 673.2 456.2 673.2 457.5 648.7 459.5 648.2 459.5 633.7 462.3 633.7 465.1 632.8 468.2 632 471.8 630.5 475 629.1 476 628.8 476.2 639.1 476.6 641.4 480.7 646.7 479.9 656 508.3 657.1 509.9 656.2 510.1 649 515.7 648.7 515.7 641.8 526.7 641.5 530.4 638 530.4 628.1 535.6 624.9 543.5 625 544.6 608.2 545.1 597.5 551.7 597.1 551.9 594.8 563.2 594.5 563.1 584.9 569.1 583.7 568.1 598.5 558.4 598.2 557.8 601 551.8 600.4 550.6 628.7 537 628.7 537.4 640.6 524.5 648.7 525.5 654.6 501.1 681.7 499.9 682.4 494.2 685.1 489.8 688.6 487.1 691.2 482.7 700 469.2 700 Z" data-holc_grade="C"/>
<path d="M 462.1 700 469.2 700 457.5 717.2 472.8 717.7 443.9 751 426.4 750.1 462.1 700 Z" data-holc_grade="C"/>
<path d="M 517.2 902.8 502.6 902.7 497.2 875.3 507.1 866.3 528.2 866.3 525.1 869.2 556.9 889.2 537.4 906.6 523.2 898.5 523.2 898.6 521.1 900.3 517.2 902.8 Z" data-holc_grade="C"/>
<path d="M 591.7 633.8 591.3 650.4 592 653.3 592 676.5 543.8 676.2 536.9 676.3 532.7 677.4 532.3 649.5 557.3 649.7 556.7 624.7 566.8 624.2 566.8 617.3 575.5 617 575.5 634.1 591.7 633.8 Z" data-holc_grade="C"/>
<path d="M 604.2 581.6 603.8 589.1 599.8 589.5 600.3 611.6 622.1 612 622.9 610.1 624.8 608.7 625 603.5 627.6 601.1 636 600.9 636.5 589.8 642 589.5 673.4 590.2 676.6 590 676.4 599.1 680.1 603.1 670 610.3 637 609.6 636.3 635.9 640.5 636.1 640.3 652.1 676 652.8 675.8 659.9 636.8 658.9 636.3 656 625.4 662.8 624.6 657.6 601.9 657.3 601.6 650.9 591.3 650.4 591.7 633.8 592.9 579.5 604.4 577.2 604.2 581.6 Z" data-holc_grade="C"/>
<path d="M 768.3 547.5 766.1 548.6 757.5 548.7 757.5 556.9 750.9 557.6 750.9 560.5 743 560.5 741.9 570.4 724.7 570.5 719.9 573.1 720 587 702.6 587.5 700.7 587.4 702.4 589.5 680.1 603.1 676.4 599.1 676.6 590 673.4 590.2 673.4 573.4 673.8 573 676.5 573 706.6 573 707.6 567 715.5 566.7 715 563.2 715.8 561 724.7 555 726.7 552.5 727.6 548.4 728.1 543.5 729.3 538.2 768.3 547.5 Z" data-holc_grade="C"/>
<path d="M 699.2 543.1 699 549.2 687.4 553.5 688.3 555.6 688.1 556.6 677.4 556.8 677.2 558.9 674.9 559.1 651.9 565.8 651.1 566.2 650.9 568.7 643.8 569.1 643.7 560.9 656.4 556.9 657 556 653.2 549.7 628.5 556.9 627.9 565.4 638.3 562.6 639.1 563 638.8 580 631.8 580.2 632.2 572.3 604.2 581.6 604.4 577.2 614.1 574 614.2 561.4 617.1 561.5 616.9 553.4 628.2 553.5 628.6 552.7 629.4 542.3 663.7 547.6 664.8 529.8 678 529.8 678.1 525.5 699.4 525.5 699.2 543.1 Z" data-holc_grade="C"/>
<path d="M 678.7 464.1 735.2 475.1 736.8 472.8 751.8 475.7 758.5 477.5 756.8 478.1 737.3 485.8 735.2 482.7 723.7 487.2 705 481.9 699.2 493.8 695.1 493.1 691.7 494.3 692.1 502.8 690.8 502.9 677.9 503.1 679 480.4 690.4 482.4 692.4 477.5 684.1 475.4 683 470.9 679 470.3 678.4 464 678.7 464.1 Z" data-holc_grade="C"/>
<path d="M 349.9 859.4 348.4 881.7 361.6 882 361.4 885 358.6 885 358.5 893.8 354.1 894.1 353.1 901.4 362.4 902 371.1 916.7 370.7 917.3 341.4 917.3 321.5 885.5 307.3 885.3 308.9 858.9 349.9 859.4 Z" data-holc_grade="C"/>
<path d="M 808.1 482.8 808.2 513.7 808.1 527 800.5 531.7 787.7 540.5 781.3 544.7 775.9 544.1 769.2 544 768.3 547.5 729.3 538.2 728.1 543.5 712.4 544.1 699 549.2 699.2 543.1 707.3 539.7 707.9 501.9 701 502.1 722.5 492.3 733.8 498.1 739.9 499.8 743.3 499.4 744.1 502.3 780.3 502.4 780.3 497.2 774.2 496.5 774.5 492.6 773.4 492 764.5 494.2 762.9 491 740.6 493.1 737.3 485.8 756.8 478.1 757.1 479.1 774.8 483.9 775.2 488.3 781.2 488.6 785.5 488.4 793.6 486.6 804.6 483.7 808.1 482.8 Z" data-holc_grade="C"/>
<path d="M 882.2 498.9 883.5 501.9 882.3 504 879 505.4 877.4 506.2 874.2 506.2 867.5 506 864.9 509.9 858.9 510.5 853.9 510.6 845.6 510.9 837.5 505.6 828 505.7 821.5 510.6 817.8 513.7 808.2 513.7 808.1 482.8 814.7 481.2 815.7 477 838.9 470.2 838.4 480.7 851.4 478.1 851.5 481.6 857.9 481.5 863.2 479.3 875.4 480.3 872.5 487.3 874.3 490.2 880 495.6 882.2 498.9 Z" data-holc_grade="C"/>
<path d="M 877.9 551.4 808.7 552.2 808.6 542.2 813.6 542.4 813.3 531.7 837.2 520.8 844.2 520.1 852.8 519.7 858.5 518.9 864.8 517.7 873.3 515 876 513.5 881.3 511.4 889.8 510.8 897.3 510.4 897.6 504.7 901.9 501.8 903 503 904.7 504.7 906.8 504.3 909 503.6 911.5 503.9 910.4 512.4 906.5 513.5 906.1 526.5 886.4 527.2 886.5 535.3 877.9 551.4 Z" data-holc_grade="C"/>
<path d="M 875.8 554.5 856.1 585.1 853.4 583.9 850.3 584.8 849.7 588 846.6 588 842.5 585.7 839.2 583.9 836.1 582 834.9 579.3 834.4 577.4 828.7 574.7 824.6 572.7 821.8 571.7 821.1 572.5 820 580.4 809.7 580.5 810.4 571.3 792.3 564.4 797.1 559.2 797.9 557.8 798.2 556 799.1 553.2 800.3 552.3 808.7 552.2 877.9 551.4 875.8 554.5 Z" data-holc_grade="C"/>
<path d="M 907.7 579.4 904.8 595.4 903.7 601.2 901.6 601.6 898.7 601.9 896.4 602 895.1 603.2 894 604.2 891.7 604 890.6 602.7 889.9 600.8 889 601.1 887.7 601.5 886.4 601.1 883.2 599.7 880.8 599.7 878.6 599.7 877.3 599.8 877.8 598.2 877.6 596.2 875 596.2 871.3 596.6 865.7 594.8 863.3 595.1 861 595.4 858.9 593.1 857.3 590.8 856.8 588.2 857.4 586.3 856.1 585.1 875.8 554.5 905.5 554.1 906.1 555 900.3 578.9 906.6 578.6 907.7 579.4 Z" data-holc_grade="C"/>
<path d="M 907.7 579.4 911 579 923.1 579.4 934.5 579.9 941.3 579.6 944.9 579 951.7 578.5 951.8 582.9 950.5 585 951.1 587.9 950.6 590.8 947.1 590.4 944 589.2 946.8 593.8 947.3 595.8 938.7 593.1 938.5 600 936.8 601.1 932.3 601.2 929 600.1 928.3 598.1 926.4 598.2 924.9 599.2 922.7 599.5 923.2 605.9 922.2 608.6 919.4 608.5 915.7 608.2 915.2 607.3 914.8 594.9 904.8 595.4 907.7 579.4 Z" data-holc_grade="C"/>
<path d="M 952.2 682.5 952 680 954.4 678.2 954.4 646 952 644.7 951.8 636.4 919.8 637 916.6 636.2 909.2 640.6 915.3 645 915.5 653 892.2 653.5 887.1 653.6 886.9 652.2 815.5 652.1 815.3 644.6 799 644.7 799.7 640.3 831.2 640.5 831.8 637.1 849.2 636.7 849.2 619.7 878.7 620.1 880.6 614.8 877.5 614 879.6 608.9 893.7 614.2 899.2 616.7 901.6 617.7 903.7 619.2 904 621.7 905 622.3 920 622.4 920.5 618.4 931.5 617.2 931.2 611.7 932.1 608 947 605.8 951.2 606.8 953.3 611.2 957.7 614 962.2 616.3 969 625.1 959.9 645.9 959.4 674.8 969.6 680.2 964 686.6 958 684.2 957.8 692.3 952.3 692.3 952.2 682.5 Z" data-holc_grade="C"/>
<path d="M 892.2 653.5 888.2 662.5 884.1 662.4 881.4 668.7 886.7 669.4 885.8 674.4 906.9 675.1 908.2 681.9 922.3 682.1 924.1 684.3 952.2 682.5 952.3 692.3 926.5 693 923.4 687.3 909.7 687.4 909 692.8 877.7 692.6 877.2 686.7 795.5 687.4 795.5 682.8 814.5 682 814.5 661.9 814.5 654 815.5 652.1 886.9 652.2 887.1 653.6 892.2 653.5 Z M 866.2 657 837.6 656.5 837.3 661.8 859.4 662 866.2 657 Z" data-holc_grade="C"/>
<path d="M 875.7 699.5 875.7 705.4 875.7 727 875.7 736.6 875.7 760.6 869.9 760.8 868.9 750.9 768.6 750 768.6 744.6 788.7 744.4 789.1 737.6 778.3 732.9 771.9 727.8 769.1 727.2 758.1 726.5 734.7 722.1 733.3 721 735.8 716.5 760.2 721.9 760.8 701.4 795.4 700.7 817.7 702.2 851 700.4 875.7 699.5 Z M 798.5 725.1 798.1 745.3 833.5 745.2 832.5 725 798.5 725.1 Z" data-holc_grade="C"/>
<path d="M 960.3 708.7 960.3 711.7 961.1 715.3 946.8 715.4 946.8 717 947.1 722.7 941.6 722.5 946 735.4 961.1 738.5 961.8 777.4 923.2 779 909 793.3 918.6 793.1 905.7 811.1 893.4 811.4 893 812 892 812.9 881.8 813.4 881.2 815.4 880 815.5 878.6 816.1 878.3 817.8 876.8 818.4 876.6 820.4 873.6 822 871.1 823 876.2 797.4 875.7 760.6 875.7 736.6 910.4 735.9 908.1 742.2 909.4 745.6 912.3 748.1 911.7 753.3 915.6 752.9 917.2 754.9 917.8 763.6 949 762.8 932.9 720 931.6 721.1 926.9 721 923.3 721.9 918.6 722.2 916.5 726.7 875.7 727 875.7 705.4 888 705.9 889.7 708.1 900.4 708.6 916.1 708.5 924.1 708.6 929.8 708.2 960.3 708.7 Z" data-holc_grade="C"/>
<path d="M 385.9 878 396.5 878.3 419.9 878.3 420.4 873.2 421 869.5 425.5 869.8 424 882.8 424.5 884.4 438.7 885.1 438.2 894.5 425.8 895.2 425.5 900.2 423.9 900.7 421.6 899 418.8 898.2 419.1 901.1 417.6 902.4 409.4 907.5 403.6 904.9 390.2 904.4 388.2 904.1 379.8 897.4 380 895.7 382.8 890.3 384.3 888.8 386.5 887.2 386.1 884.4 385.5 881.7 384.8 880.5 385.9 878 Z" data-holc_grade="C"/>
<path d="M 871.1 823 869.5 830.9 918 831 918.8 844.6 856.8 845.3 855.8 844.9 857.9 839.7 829.8 839.5 831.6 816.6 832.2 814.8 834.6 813.7 837.4 813.7 847.1 813.3 850.3 813.1 852.7 811.8 852.7 810.4 851.9 809.1 849 808.4 845 809.5 842.1 808.7 841.4 807.4 841.3 805.4 841.1 803 837.4 802.9 834.8 803 833.3 803 833.7 799.3 833.9 789.9 829.3 789.7 829.2 789 830.1 761.2 869.9 760.8 875.7 760.6 876.2 797.4 871.1 823 Z" data-holc_grade="C"/>
<path d="M 701.9 786 703 786.3 705.8 787.5 708.1 786.2 708.8 785.7 712.4 788.4 727.7 775.7 725.8 774.4 726.5 773.3 732 769.6 739.9 775 740.3 780 746.1 780.4 746.4 801.7 705.1 801.4 704 789.5 702.4 788.7 700.5 787.6 701.9 786 Z" data-holc_grade="C"/>
<path d="M 661.8 856.8 661.8 860.6 640.3 860.9 639.5 821.8 671.8 811.6 671.7 828.2 709.1 829.2 708 857 668.6 857 661.8 856.8 Z" data-holc_grade="C"/>
<path d="M 814.5 661.9 814.5 682 795.5 682.8 795 671.8 773.3 672.2 773.3 662.8 792.2 663.2 794.3 661.5 814.5 661.9 Z" data-holc_grade="C"/>
<path d="M 1536.8 856 1535.3 856.8 1519.9 857.2 1502.8 857.1 1500.2 856.6 1499.3 854.4 1499.2 852.4 1499 849.4 1499.5 846.2 1499 839.9 1499 836.9 1495.5 836.9 1491.5 836.6 1485.9 836.4 1483.3 836.2 1483.4 834.9 1483.6 832.9 1483.7 831.1 1483 830.8 1480.5 830.1 1479.1 829.1 1479.1 828 1480.4 827.3 1481.6 826.4 1483.7 825 1486.8 824.3 1487.9 825.4 1489.2 826.5 1490.5 826.3 1491.4 825.6 1491.5 824.7 1492.3 822.9 1496 825.2 1498.3 824.6 1501.3 824.2 1505.4 824.1 1510.8 823.6 1516.3 822.9 1521 822.8 1525.4 822.3 1530.8 822 1534.9 822.2 1537.5 822.8 1537.8 825.2 1535.3 826.1 1533.1 826.4 1530.5 826.8 1529.4 828.1 1529.3 831.4 1528.4 833.7 1526.3 833.9 1533.4 843 1532.2 844.1 1528.9 845.9 1532.1 849.2 1536.8 856 Z" data-holc_grade="C"/>
<path d="M 1464.9 766.7 1475.6 766.6 1475.9 756.3 1493 756.4 1493.5 739 1516.9 739.2 1516.6 752.2 1508.7 752.3 1511.9 763.6 1513.5 763.3 1531.6 755.3 1531.9 756.8 1531.5 759.6 1534 759.9 1536.3 759.3 1542.6 757.6 1549.2 758.2 1548.7 781.8 1544.4 782.2 1543.1 796.4 1542 796.4 1533.1 795.8 1525.5 795.3 1524 790.4 1509.7 789.5 1505.9 790 1505.8 791.3 1507.7 793.8 1513.5 799.6 1518.9 803.2 1520 806 1512.6 806.8 1504.3 805.9 1496.2 804.7 1490.4 803.4 1481.2 802 1476.9 798.4 1474.4 796.9 1469.4 793.9 1463.4 790.4 1458.3 786.4 1454.2 782 1451.2 778.8 1447.5 776.4 1444.5 773.9 1439.7 771.8 1437.1 770.4 1433.2 767 1434.5 764.8 1433.6 763.3 1430.2 762.2 1426.5 761.4 1418.1 760.2 1414.3 757.6 1402.5 757.6 1402.9 755 1402.7 751.9 1404.5 750 1396.7 744.3 1407.7 737 1408.3 731 1434.3 731 1434.4 746.4 1431 747.9 1437 752.5 1431.6 758.4 1432.3 759 1438.4 762.6 1437.4 764.1 1447.5 769.3 1449.7 767.1 1453.8 766.7 1458.9 766.5 1464.9 766.7 Z M 1481.9 782.1 1482.4 784 1482.9 785.2 1484.8 788 1487 789.3 1489.7 791 1491.3 791 1494.9 789.8 1501.1 789.4 1500.7 773.5 1497.2 774.2 1491.6 776.9 1481.9 782.1 Z" data-holc_grade="C"/>
<path d="M 1369.8 805.8 1370.1 782.8 1400.8 783.4 1402.2 782.3 1408.7 781.9 1412.1 785.9 1413.7 787.6 1415.2 786.7 1416.8 782.7 1421.6 781.3 1421.9 775.9 1431 775.5 1437.3 773.8 1444.4 778.3 1449.3 782.2 1453.1 786.5 1458.1 792.4 1450.2 797 1445.1 795.7 1439.4 795.1 1433.6 795.7 1432.1 795 1432.1 792.8 1431 791.5 1428.4 792.8 1426.1 793.3 1425.8 791.9 1417.9 794.7 1412.3 797.6 1408.7 800.2 1407.4 804.7 1369.8 805.8 Z" data-holc_grade="C"/>
<path d="M 1302.6 783.8 1301 743 1300.6 717.5 1302 716.7 1302.2 734.1 1346.8 733.6 1367.8 749.9 1367.5 777 1340 778.1 1340 782.9 1370.1 782.8 1369.8 805.8 1346.2 806 1346.3 814.3 1336.3 814.5 1335.8 806.9 1334.4 806.3 1333.6 792 1315.2 789 1302.6 783.8 Z" data-holc_grade="C"/>
<path d="M 1301.2 708.4 1303.2 708.3 1302.5 696.4 1309.5 696.5 1313.1 696.4 1316.4 697.1 1318 702 1321 702.1 1321.6 703.3 1321.8 706.1 1325.5 705.8 1335.6 715.5 1333.1 717 1325.7 716.7 1302 716.7 1301.2 708.4 Z" data-holc_grade="C"/>
<path d="M 1484.7 707.1 1484.3 692.3 1421.6 690.9 1383.8 690.1 1371.5 690.4 1370.4 692.4 1369.6 704.4 1371.8 705.5 1371.7 712.6 1373.6 716.2 1375.4 717.4 1378.6 716.4 1386 716.3 1393.8 716.2 1404.8 716.1 1407.4 717.8 1416.3 719.2 1424.7 717.6 1430.5 715.6 1435.3 713.3 1441.3 709.8 1446 705.7 1462.1 706.9 1484.7 707.1 1464.6 707 1464.6 720.7 1435.8 721 1434.3 731 1408.3 731 1407.7 737 1396.7 744.3 1391.4 740.3 1374.9 728.1 1369.7 731.2 1362.6 729.5 1361.4 728.7 1345.5 718 1352 711.6 1346.5 707 1334.3 706.5 1336 698.6 1312.7 681.4 1328.7 681.4 1360.7 681.4 1402.2 681.1 1496.9 682.3 1498 706 1497.2 707.1 1484.7 707.1 Z" data-holc_grade="C"/>
<path d="M 359.2 851.8 364.9 849.4 368.9 847.8 375.4 844.6 379.2 843.3 394.8 843 395 840 403.6 839.1 405 839.6 423.2 839.6 423.2 844.3 400.6 844.3 400.5 846.1 390.3 846.2 389.6 857.5 368.2 857.1 367.9 859.9 373.4 860.5 373.7 862.9 375 863.7 380.3 863.8 386.2 866.9 397.4 867.4 396.5 878.3 385.9 878 385.1 876.8 384 872.8 381.6 869.3 379.3 867.8 377.5 866.4 371.4 866.3 370.2 865.4 369.6 863.3 366.6 861.7 364.8 861.1 363.6 858.5 362.2 855.9 359.2 851.8 Z" data-holc_grade="C"/>
<path d="M 1302.5 696.4 1303.2 708.3 1301.2 708.4 1291.1 708.8 1291.7 719.4 1291.7 722.6 1291.3 726.1 1291.1 729.1 1288.7 730.5 1284.3 731.4 1280.2 731.4 1276.2 731.2 1274.4 732 1273 734.8 1270.5 738 1267.7 740.6 1262.5 742 1261.2 743.2 1299.4 742.6 1301 743 1302.6 783.8 1298.8 783.6 1288.5 780.3 1280.4 777.3 1277.2 774.1 1271.7 770.1 1269.3 766.7 1265.1 766.4 1260.8 767.6 1256 768.3 1251.1 767.4 1246.1 767.4 1240.6 766.4 1237.4 765.3 1237.2 762.7 1238 759.8 1239.4 757.1 1241.3 753 1242.1 750.9 1244.5 748.8 1250.7 747.9 1253.4 747.7 1253 745.5 1251.8 745.8 1249.3 746.5 1246.1 745.5 1243.9 745.5 1239.6 744.5 1237.4 741.5 1233.2 738.9 1225.9 737.6 1223.1 737 1222.5 730.3 1222.3 728.9 1224.9 727.1 1228.5 722.6 1230.3 718.3 1229.7 716.8 1228.9 717 1224.1 717.4 1221.5 715.8 1215.6 715.5 1209.5 715.9 1208.7 720.9 1203.5 721.5 1203.5 737.7 1193.2 737.9 1192.6 733.8 1190.4 733.2 1185.1 732.9 1181.7 729.1 1179.1 724.7 1177.2 718.6 1176.8 715.5 1181.7 715.9 1186.7 715.9 1186.7 708.5 1185.9 707.7 1181.7 707.4 1176 707.9 1172 709.4 1169.8 711.1 1134.4 711.2 1132 705.9 1126.1 705.8 1126.7 701.7 1166.5 702.1 1168.3 700.6 1168.4 683.4 1170.6 683.5 1171.7 685.5 1171.4 695.5 1207.9 696.4 1208.6 706.3 1228.9 706.3 1229.9 705.8 1227.5 704 1223.6 700.4 1221.2 697.1 1220.1 694.6 1216.1 687.9 1236.5 687.4 1236.7 682.4 1246.7 683.1 1250.1 682.1 1250.5 662.5 1254.4 664.4 1258.8 665 1262.1 666.7 1262.1 669.3 1264.3 670.6 1267.5 672.8 1268.3 675.2 1268.7 677.8 1276.2 678.2 1276 687.8 1282.2 688.1 1288.3 688.1 1294.6 687.6 1297.8 685.9 1301.8 684.6 1302.5 696.4 Z" data-holc_grade="C"/>
<path d="M 1209.5 651.9 1192.1 652 1181.2 654.7 1181.8 667.7 1191.5 665.6 1194.9 668 1200.7 666.6 1211.5 681.3 1171.3 681.5 1170.6 683.5 1168.4 683.4 1159.7 683.3 1159.4 668.5 1154.1 668.2 1154.1 666.4 1157.1 662.4 1154.2 661.1 1151.3 663.8 1148.9 664.7 1146 664.7 1143.6 666.2 1140.8 661.1 1140.9 659.8 1143.9 656.2 1142.3 654.8 1139.2 654.3 1136.3 654 1134.7 652.1 1133 650 1131.9 648.2 1129.6 648.2 1128.4 647.2 1128.4 646 1127.6 645.1 1125.5 645.1 1124.9 643.6 1127.2 640.7 1133.4 634.5 1136.4 633.7 1136.8 648.2 1146.8 648.3 1196.8 648.3 1197.2 637.6 1199.8 637.6 1199 631.9 1214.1 641.1 1210.2 644.7 1209.5 651.9 Z" data-holc_grade="C"/>
<path d="M 1314.8 645.7 1314.8 676.9 1329.5 676.8 1329.7 659 1338.4 658.9 1352.3 658.8 1351.8 663.6 1360.8 664.3 1360.7 681.4 1328.7 681.4 1312.7 681.4 1296.5 669.9 1243.4 655 1243.2 648.5 1260.2 648.7 1259.9 646.5 1275.1 646.5 1276.2 658.4 1282.3 660.3 1284.6 657.4 1289.1 654.7 1294.9 653.6 1296.9 652.5 1296.4 649.9 1296.4 648.1 1297.8 647.5 1303.6 647.3 1303.2 645.1 1314.8 645.7 Z" data-holc_grade="C"/>
<path d="M 1360.7 681.4 1360.8 664.3 1351.8 663.6 1352.3 658.8 1338.4 658.9 1338.4 643 1371 642.8 1371 633.8 1411.4 649.9 1412.2 670.2 1403 670.6 1402.2 681.1 1360.7 681.4 Z" data-holc_grade="C"/>
<path d="M 1281.9 609.5 1281.9 610.4 1278 611.9 1323 623.5 1321.9 635 1315 635.3 1314.8 643.3 1314.8 645.7 1303.2 645.1 1302.7 621.8 1290.4 621.8 1257.9 622.4 1231.8 622.8 1230.9 616.4 1195.9 615.5 1195.9 619.9 1188.8 619.8 1188.5 605 1201.4 605.2 1202.2 609.6 1205.4 609.5 1209.8 609.5 1209.9 598.8 1220.3 598.9 1241.9 603.1 1241.9 605.7 1261.5 606.3 1262.1 609.4 1281.9 609.5 Z" data-holc_grade="C"/>
<path d="M 1178.1 634.2 1182.7 640.9 1186 640.9 1185.7 640.2 1184.8 637.4 1197.2 637.6 1196.8 648.3 1146.8 648.3 1155.1 636.7 1150.4 637 1149.8 636.1 1153.5 632.4 1144.7 632 1144.7 623.9 1159.7 623.9 1160.3 624.6 1157.7 628.6 1157.6 629.4 1161.7 629.7 1159.5 633.9 1178.1 634.2 Z" data-holc_grade="C"/>
<path d="M 1032.7 577.6 1033.1 583.3 1040.2 583.4 1046.7 585.4 1052 587.1 1053 588.6 1053 591.4 1053 595.6 1054.1 598.5 1056.6 602.2 1056.3 605.3 1055.2 605.5 1053.4 604.2 1051.3 605.6 1031.4 605.2 1023.5 604.8 1017.6 603.6 1010.5 603.9 1007.5 603.1 1007.7 577.7 1032.7 577.6 Z" data-holc_grade="C"/>
<path d="M 1081.6 585.9 1081.1 574 1089.9 574.1 1089.9 558.7 1098.1 559 1098.2 564.7 1105.8 564.5 1106.6 576.2 1118.6 576.1 1119.2 596 1107.7 596.4 1102.8 599.8 1102.2 596.9 1093.6 597 1093.5 586.1 1081.6 585.9 Z" data-holc_grade="C"/>
<path d="M 1400.3 595.6 1400.8 603.6 1413.2 603.9 1413.2 620 1401.9 620.7 1402 635.7 1361.4 625.5 1353.2 623.2 1344.8 620.7 1325.7 615.2 1331 612.6 1336.8 608.7 1343.8 605.9 1345.7 605 1346 595.4 1400.3 595.6 Z" data-holc_grade="C"/>
<path d="M 1229.7 529.8 1228.1 529.6 1228.1 536 1232 535.8 1232.8 548.4 1241 548.4 1241 557.9 1281.6 557.6 1282.4 548.5 1288.7 548.5 1304 545.7 1304.2 586.7 1319 586.4 1319.8 568.8 1344.8 569.6 1347.1 569.6 1346 595.4 1345.7 605 1343.8 605.9 1336.8 608.7 1331 612.6 1325.7 615.2 1306.8 610.6 1281.9 610.4 1281.9 609.5 1281.7 603.9 1261.5 604.1 1261 598.5 1241.5 597.6 1241.5 589.6 1216.4 589.1 1215.3 581.1 1209.5 581.2 1209 564.4 1205 563.8 1205.3 538.6 1206.6 538 1216.6 536.9 1222.1 536.9 1222.1 535.6 1221.8 533.6 1220.2 532.2 1218.4 531.2 1219.4 528.1 1219.1 526.7 1229.7 529.8 Z" data-holc_grade="C"/>
<path d="M 342.9 799.3 390.1 799.2 390.6 810.1 373.5 832.2 371.9 832.5 365.3 828.7 364.3 828.2 361.8 824.9 360.3 822.3 357.5 815.3 356.7 812.3 356.5 809.2 355.3 807.4 353.5 805.7 350 804.4 348.4 803.4 346 802.6 344.3 801.4 342.9 799.3 Z" data-holc_grade="C"/>
<path d="M 1301.6 518 1301.4 521.3 1303.4 521.3 1329.6 520 1329.4 526.2 1329.1 542.3 1344.2 542.5 1344.8 569.6 1319.8 568.8 1318.6 530.1 1282.8 529.6 1282.8 517.4 1278.4 517.1 1278.2 514 1277.8 508.9 1283.9 508.9 1284.4 505 1301.6 518 Z" data-holc_grade="C"/>
<path d="M 1278.2 514 1241.8 513.7 1241.5 510.8 1207.9 510.6 1206.3 509.4 1182.8 508.7 1182.8 517.5 1179 519.5 1177.8 519.4 1177.8 519.3 1178.2 507.7 1178.5 505.1 1182.7 496.6 1188.2 496.7 1191.7 492.5 1196 484.5 1198.3 480.4 1220.9 478.3 1238.9 478.1 1254.9 477.7 1256.7 479.8 1277.3 479.3 1278.1 477.7 1280.5 484.4 1283.6 485.3 1284.4 505 1283.9 508.9 1277.8 508.9 1278.2 514 Z" data-holc_grade="C"/>
<path d="M 1271.2 448.8 1272.2 467.8 1278.5 468.3 1278.1 477.7 1277.3 479.3 1256.7 479.8 1254.9 477.7 1238.9 478.1 1220.9 478.3 1198.3 480.4 1200.1 476.8 1201.4 474.5 1219.9 473.6 1220.5 470.9 1237.7 470.3 1237.5 467.1 1237.9 461.9 1240.7 458.9 1218.5 446.2 1225.8 438.8 1231.4 439.5 1232.7 441.1 1233.2 443.5 1236.9 446.2 1241.7 446.5 1250 447.5 1261.1 447.3 1261.8 446.5 1271.2 448.8 Z M 1244.1 442.8 1242.8 443.8 1239.4 443.6 1235.7 440.2 1234.6 437.6 1233.2 436 1233.3 433.8 1231.4 432 1228.9 430.1 1225.7 432 1221.5 433.8 1220.1 433.1 1214.7 428.2 1208.8 422.6 1208.2 421.4 1207.4 416.3 1206.8 412.5 1206 409 1208.9 408.6 1210.8 408.4 1212.7 409 1214.1 411.4 1215.5 413.4 1220.1 415.5 1221.3 417.8 1222.4 421.3 1224 423.7 1226.2 426.5 1229.8 425.9 1232.7 423.1 1236.3 416.9 1241.7 419.6 1241.2 420.1 1240.8 431.1 1241.5 437.2 1241.1 440.8 1244.1 442.8 Z" data-holc_grade="C"/>
<path d="M 1245 371.7 1248.2 370.9 1251.4 371.9 1248.2 377.5 1247.5 383.1 1226.9 399.4 1219.4 404.6 1217.9 402.6 1216.2 397.1 1215 393.8 1215.6 391.8 1217.8 389.9 1220.6 387.7 1221.4 384.2 1220.6 382.1 1219.1 381 1215.1 380.3 1210.2 380.3 1203 383.2 1200 381.5 1197 380 1194.4 379 1193.8 377 1193.3 374.7 1193.6 371.3 1193.2 367.9 1193.2 364 1195.1 361.4 1196.4 357.8 1195.9 355.3 1193.1 353.4 1189.6 351.3 1184 352.4 1181.3 352.7 1179.3 349.9 1177.2 347.5 1175.6 344.2 1173.1 340.6 1168.6 338 1167.3 335.8 1166.4 333.9 1163.5 332.7 1160.6 328.4 1158.3 322.4 1157.1 317 1160.2 316.8 1161.1 319.9 1173.7 320 1173.7 322.3 1169.2 323.2 1169 326.8 1171.1 327.4 1171.1 335.3 1179.7 334.4 1180.4 339 1179.6 340.4 1180 342.5 1181.7 341.7 1183.4 347.4 1191 346.5 1197.2 345.2 1198.5 347.3 1198 353.3 1201.2 353.8 1201.2 361 1203.5 362.1 1203.8 364.9 1209.6 366.5 1221.7 367.3 1234.3 366.7 1235 370.7 1240.8 370.4 1242.1 372.2 1245 371.7 Z" data-holc_grade="C"/>
<path d="M 1180.8 370.6 1125.7 371.1 1116.8 362.2 1116.2 336.8 1120.5 336.5 1120.7 331.7 1138.4 323.4 1139.9 325.6 1145.9 323.7 1146.9 323.3 1149.8 329.5 1152.1 328.9 1156 334.5 1154.1 336.4 1157.8 341 1160.6 340.3 1163.4 344.9 1161.8 346.4 1187.6 358.7 1186.6 363.9 1180.8 370.6 Z" data-holc_grade="C"/>
<path d="M 1256.1 344.2 1244.8 344 1238 343.7 1225.8 344.8 1224.6 343.7 1225.9 327.4 1227.7 328.1 1231.9 328.1 1237.1 327.1 1246.8 326 1253.7 324.6 1257.1 324.6 1256.1 344.2 Z" data-holc_grade="C"/>
<path d="M 1225.7 258.3 1227.7 256.9 1239.7 251.8 1243.7 249.8 1253.7 246 1256.5 250.6 1249.1 254.8 1245.3 255.9 1247.5 261.5 1266.3 260.5 1277.2 272.8 1279.6 272.9 1278.8 290.4 1277.1 318.5 1276.3 320.9 1262.9 321.5 1260.8 320.5 1259.4 318.7 1257.7 317.7 1255.1 315.3 1252.1 311.2 1249.4 310.4 1248.7 309 1247.1 304 1244.7 301.3 1238 299.2 1229.4 295.9 1228.3 294.2 1228.7 284.1 1226 278.6 1224.8 275.8 1228.3 274.3 1228.3 268.2 1233.7 267.7 1235.5 266.4 1232.8 264.7 1225.7 258.3 Z" data-holc_grade="C"/>
<path d="M 1317.1 261.6 1317.5 264.1 1317.7 264.9 1321.7 265 1324.9 267.5 1325.6 271.1 1306.2 271.7 1284.2 271.9 1285.4 270 1296.5 261.1 1305.2 254.6 1312.2 255.9 1315.2 257.4 1316.9 260 1317.1 261.6 Z" data-holc_grade="C"/>
<path d="M 1292.2 318 1291.2 320.1 1288.7 319.9 1284.1 320.6 1284.2 304 1284.2 298.7 1284.5 288.4 1284.2 271.9 1306.2 271.7 1325.6 271.1 1329.1 271 1335.1 271 1334.1 273.1 1334.3 276.5 1331.7 279.4 1327.2 280.4 1323 280.4 1321.7 289.3 1321.2 290.9 1326.1 291.9 1326.1 293.5 1314.1 303.9 1309.3 308.8 1306.8 309.2 1304.4 310.9 1303.4 312.8 1300.2 311.5 1297.1 311 1294.6 312.6 1292.2 318 Z" data-holc_grade="C"/>
<path d="M 1401.7 287.6 1400.5 296 1396.8 296.5 1383.1 296.8 1376 297 1370.5 297.4 1368.5 297.3 1363.9 297 1358.5 296.1 1354.4 299.4 1350.1 302.4 1346.1 305.4 1344.5 305.7 1343.7 307.2 1345 309.1 1344.8 310.1 1342.8 312.7 1338 316 1332.8 319.5 1330.5 321.5 1327.5 324.9 1311.2 340.2 1304.6 347.2 1301.5 350.2 1304.4 351.5 1315.2 355.8 1321.6 357.8 1333.5 362.4 1335.3 363.4 1335.2 371 1318 370.8 1312.4 370.7 1312.2 368.8 1312.6 362.9 1312.7 359.9 1308.9 359 1303.5 356.3 1300.2 354.9 1297.3 351.5 1280.8 368.5 1278.5 367.3 1275.1 365.8 1270.6 362 1268.6 359 1264.5 356.5 1260.2 354.1 1256.3 352.8 1256.1 344.2 1257.1 324.6 1258.4 324 1258.6 323 1260.8 320.5 1262.9 321.5 1276.3 320.9 1276.5 324.6 1275.9 327.7 1278.6 330.1 1277.7 334.1 1277.3 338.6 1276.1 343.1 1274 346 1276.9 344.5 1279.6 345.7 1281.5 347.3 1281.9 344.7 1281.5 342.3 1286.4 337.3 1284.2 335.7 1286.5 333.4 1282.5 330.9 1285.1 327.8 1285.5 326.1 1282.1 324.2 1284.1 320.6 1288.7 319.9 1291.2 320.1 1292.2 318 1296.9 321.3 1298.1 322 1300.3 319.6 1307.2 324.8 1313.3 319.1 1307.3 315 1311.5 311.4 1318.5 305.1 1323.2 300.6 1330.6 295.8 1330.2 294 1330.6 293 1332.4 292.3 1339 285.2 1345.4 289.2 1350.6 283.9 1355.5 279.6 1358.4 276.7 1364.9 271.3 1368.1 272.3 1370 273.5 1372.2 274.8 1374.5 276 1367.1 283.7 1370.5 286.3 1375 288.5 1386.6 293.1 1388.9 293.8 1392 287.9 1394.5 287 1401.7 287.6 Z" data-holc_grade="C"/>
<path d="M 406.7 566.6 406.5 581.5 412.9 581.5 412.1 594.8 400.1 594.2 398.9 602.5 384 609.2 381.1 607.9 381.3 602.5 366.4 602.7 365.6 617.6 355.7 620.8 352.2 621.3 335.7 629.7 315.9 637.7 317.1 596.9 371.2 597 371.6 585.8 383.2 585.1 385.2 566.3 406.7 566.6 Z" data-holc_grade="C"/>
<path d="M 1241.2 420.1 1252.1 420.3 1258.4 419.2 1258.6 415.6 1259.4 407.1 1260.3 403.8 1265.2 398 1266.6 395.3 1288.9 395.9 1319.2 384.7 1318 382.1 1317.2 380.3 1318 370.8 1335.2 371 1335.3 363.4 1344 367.3 1347.5 371.3 1349.7 374.4 1353.1 381.7 1350.5 383.3 1356.9 388 1354.9 391.8 1353.9 390.8 1343.4 391.7 1340 394.5 1339.8 397 1334.5 397.4 1324.2 399.4 1308.1 400.4 1297 403.3 1286.9 408.6 1283 413.4 1284 423 1281.6 423 1271.9 423.1 1258.6 422.5 1254.4 424.9 1250.5 427.5 1244.1 430.4 1240.8 431.1 1241.2 420.1 Z" data-holc_grade="C"/>
<path d="M 1566.9 319.9 1565.8 357.9 1554.4 357.7 1548.8 357.7 1537 357.4 1524.8 356.9 1524.4 368 1521.2 367.6 1514.8 367.9 1514.1 369.7 1508.9 369.1 1508.8 355.4 1498.5 354.3 1498.1 357.4 1495.4 358.9 1492 362.2 1492.7 365.6 1491.3 369.2 1478.8 370.1 1476.7 368.8 1476.4 365.8 1477.3 358.8 1479.3 356.7 1478 354.2 1485.5 354.3 1489.6 353.3 1489.8 346.6 1488.9 344.6 1487.4 342.8 1486.4 340.3 1503.6 339.9 1504.6 332.8 1512.6 332.8 1513.5 316.2 1523.5 315.2 1528.7 311 1532.8 310.9 1547.5 308.1 1567.3 304.8 1566.9 319.9 Z" data-holc_grade="C"/>
<path d="M 1681.9 319.5 1679.9 355.3 1686.1 355.9 1685.9 380.6 1675.8 380.1 1675.3 389.6 1632.2 389.3 1631.3 371 1598.1 371 1598.3 360.3 1594.7 361.3 1594.2 357.6 1582.2 357.9 1565.8 357.9 1566.9 319.9 1600.4 319.9 1600 296.1 1632.2 296.5 1633 318.6 1681.9 319.5 Z M 1626.9 345.6 1626.6 355.8 1634.1 355.4 1634.6 345.9 1626.9 345.6 Z" data-holc_grade="C"/>
<path d="M 1685.9 380.6 1686.1 355.9 1679.9 355.3 1681.9 319.5 1748.7 320.2 1749.3 313.7 1754.4 313.5 1753.6 353.6 1757.3 354.1 1757.8 376.6 1742.7 376.2 1742.5 359.1 1730.5 358.8 1730.3 379.8 1717.9 379.7 1717.5 370.7 1702.4 370.8 1702 359.4 1695.2 359.5 1694.5 385.8 1685.5 386.7 1685.9 380.6 Z" data-holc_grade="C"/>
<path d="M 1411.8 271.2 1400.5 271.3 1389.8 271.3 1373.7 271.3 1371.1 271.1 1370 273.5 1368.1 272.3 1367.7 269 1369.3 267 1363 262.9 1373.7 255.1 1378.3 259.3 1378.7 260.8 1381.4 258.9 1381.7 257.3 1378.2 254.5 1372.4 249.9 1379 244.5 1382.2 246.4 1385.6 249.2 1388.7 252.7 1392.9 250.5 1399 246.4 1397.9 244.6 1389.8 239.1 1389.7 237.5 1392.4 236.2 1389 233.5 1390 231.9 1395.8 225.3 1401.3 220.9 1417.1 232.1 1416.3 234.3 1422 239.7 1421 242.4 1415.8 245.6 1411.8 242.2 1409 242.7 1408.9 244.3 1413.9 246.8 1415.3 248.7 1415 252.5 1410.2 257.2 1406 258.8 1407.1 260.3 1415.3 261.4 1416.8 262.2 1414.9 265.5 1411.5 268.4 1411.8 271.2 Z" data-holc_grade="C"/>
<path d="M 1515.4 173.8 1515.5 175 1513.4 176.1 1511.6 178.1 1509.5 178.6 1507.3 179 1499.8 182.1 1491.2 185.2 1482.5 187.7 1476.9 189.6 1475.5 191.6 1474.8 192.1 1472.9 193.5 1466.9 197.5 1464.7 199.1 1464.8 200.1 1467.8 200.6 1469.1 201.5 1467 203.6 1463.6 205.6 1459.8 205.6 1455.7 206.4 1453.5 208.6 1454.8 211.9 1455.6 214.5 1452.7 215.2 1445.9 219.7 1444.8 220.6 1440.9 223.6 1434.6 227.8 1434 229.2 1432.6 228.8 1428.8 226.7 1425.3 223.9 1429.2 221.1 1433.3 217.2 1430.9 215.3 1426.6 211.9 1423.4 210 1420.1 207.7 1417.8 206.4 1430.9 198.6 1445.9 209.4 1459.2 198.7 1455.4 196.3 1448.9 191.4 1444.9 189 1451.4 185.4 1452.8 184.7 1456.5 186.7 1457.9 188 1463.5 188.8 1465.1 190.4 1466.6 192.1 1469.5 193 1471.6 191.2 1473.1 188.8 1472 187.6 1470 184.8 1470.4 183.2 1473.4 181.5 1479.6 179.9 1484.8 177.7 1485.9 179.4 1487.1 181.4 1489.5 181.6 1492.3 180.4 1492.7 177.4 1490.5 173.8 1488.9 169.7 1488.4 165.5 1489 163.3 1496.4 163 1501.5 162.9 1501.5 164.2 1509.6 164.2 1515.3 163.9 1515 166.1 1515 168.3 1515.3 171.9 1515.4 173.8 Z" data-holc_grade="C"/>
<path d="M 1474.8 192.1 1475.5 191.6 1476.9 189.6 1482.5 187.7 1491.2 185.2 1499.8 182.1 1507.3 179 1509.5 178.6 1511.6 178.1 1513.4 176.1 1515.5 175 1515.4 173.8 1519.3 171.7 1524.9 168.3 1531.5 163.6 1537.9 159.8 1547.3 153.8 1551.6 151.8 1556.5 147.3 1558.7 145.6 1563.9 148.9 1561.9 150.9 1558.1 153.7 1553.6 156.3 1553.5 157.3 1554.5 159.8 1549 163.4 1547.3 165.2 1549.3 167.8 1545.9 171.8 1545.9 173.6 1549.3 174.1 1552.1 175.1 1551.8 182.5 1549.5 182.9 1544.4 183.2 1543.3 183.6 1542.6 189.1 1541.6 190.1 1535.2 191.7 1528.8 192.7 1523.9 193.7 1521.3 193.6 1520.2 192.5 1520.3 186.2 1519.1 186.9 1516.2 187 1513.8 186.4 1507.2 186.8 1499.8 187 1499.5 191 1497.5 191.4 1490.6 190.4 1486.9 189.6 1484.7 192.1 1481.7 196.6 1479.7 195.8 1477.1 193.8 1474.8 192.1 Z" data-holc_grade="C"/>
<path d="M 1312 183 1314 183.3 1329.4 174.2 1336 175.3 1338.3 174 1338.3 172.6 1338 162 1335.7 160.6 1336.3 157.5 1336.1 156.8 1335.5 155 1340.1 150.1 1347.3 145.2 1347.7 156.6 1368.9 150.4 1382.1 150 1378.4 145.3 1370 139.6 1361.6 134.1 1375 123 1414.2 138.6 1417.7 136.4 1421 135.4 1421.8 136.3 1421.9 142.9 1422.1 147.6 1420.5 148.3 1416.8 149.5 1413.8 151.8 1412.4 155.7 1415.8 158.9 1418.1 161.3 1417.7 163.6 1416.6 165.5 1408.6 168.4 1406.8 165.9 1397.5 170.1 1383.2 175.4 1370.9 179.8 1355.3 179.9 1355.4 182.9 1348.6 183 1346 185 1335.5 189.6 1335.1 192.7 1308.4 193.3 1300.8 195.3 1297.3 192.9 1302 189.2 1307.6 184.8 1312 183 Z" data-holc_grade="C"/>
<path d="M 1455 123 1454.6 130.1 1454.7 140.5 1454.3 145.4 1439.4 145.2 1439.4 142.9 1421.9 142.9 1421.8 136.3 1421 135.4 1421.5 123.8 1421.4 121.4 1454.2 120.7 1455 123 Z" data-holc_grade="C"/>
<path d="M 1405.4 120.9 1405.4 121 1405.3 121 1405.4 120.9 Z M 1405.4 120.9 1405.2 120.5 1402.7 120.2 1402.6 115.1 1402.8 111.6 1396.6 106.7 1402.2 101.8 1408.4 107.2 1413.7 108.7 1421.2 108.7 1421.4 121.4 1421.5 123.8 1406.4 119.8 1405.8 120.4 1405.4 120.9 Z" data-holc_grade="C"/>
<path d="M 465.5 483.7 459.7 482.6 454.3 497.9 449.4 497.7 449.7 491.3 441.8 491.1 441.2 498 435.3 498.5 435.6 502.4 423.5 502.4 419.8 496.7 419.1 479.6 433 480.2 432.8 485.5 421.7 489.1 421.2 490.5 425.1 497 433.1 494.1 433.6 490.3 443.1 487.6 444.7 488.4 453.1 484.2 451 480.5 462.3 477.2 465.5 483.7 Z" data-holc_grade="C"/>
<path d="M 1520.4 74.6 1525.1 79.8 1528.7 83.7 1545.5 102 1509.3 123 1507.3 122.3 1455 123 1454.2 120.7 1421.4 121.4 1421.2 108.7 1420.9 87.8 1427.5 80.6 1433.8 84.9 1426.9 90.6 1430.4 94 1426.1 99.2 1450.6 98 1450.1 89.9 1448.2 88.7 1452.4 85.4 1487.5 83.6 1487.6 72.7 1492.5 68.9 1493.8 64.9 1492.8 58.1 1497.6 55 1497.6 53.5 1499.1 53.2 1510.2 63.4 1520.4 74.6 Z M 1487.6 87.9 1469.5 88.4 1454.1 88.8 1453.5 100 1449 99.5 1449.8 106 1454.2 105.6 1454.6 101.9 1475.7 103 1487.8 102.1 1487.6 87.9 Z" data-holc_grade="C"/>
<path d="M 1449.2 65.7 1451.6 62.5 1454.2 64 1456.9 62.1 1467.4 72.5 1462.6 74.6 1456.9 68.9 1455 70.5 1449.2 65.7 Z" data-holc_grade="C"/>
<path d="M 1499.1 53.2 1497.6 53.5 1497.6 55 1483.5 42 1484.3 39.6 1488.5 39.1 1489.5 37 1492.7 34.7 1499.6 32.4 1507.8 46.6 1499.1 53.2 Z" data-holc_grade="C"/>
<path d="M 1586.9 42.7 1586.8 78.5 1581 82.3 1569.2 88.1 1554.8 97.2 1551.8 98 1548.5 96.8 1546.8 92.8 1545.2 88.9 1544.6 87.3 1540.2 87.5 1536.5 88.1 1534.6 86.6 1534.2 85 1534.2 82.4 1534.1 81.2 1530.7 81.8 1528.7 83.7 1525.1 79.8 1520.4 74.6 1523.9 71.5 1531.8 64.1 1535.9 62.8 1548.6 62.8 1550.5 63.3 1552.3 75.8 1551.9 79.2 1542.8 79.3 1540.6 79.9 1540.8 81.4 1541.5 82.5 1546.2 82.3 1550.1 82.4 1555.4 82.1 1558.8 82.3 1559.5 80.9 1559.1 63.6 1554.9 63.1 1553.7 61.1 1554 57.5 1554 52.3 1554.1 48 1552.8 46.7 1539.8 48.9 1536.9 49.8 1536.3 47.8 1536.6 44.4 1535.9 42.9 1535.3 42.1 1534.9 32.6 1562.9 21.9 1580.6 14.4 1580.6 43.4 1585.5 43.7 1586.9 42.7 Z" data-holc_grade="C"/>
<path d="M 1927.3 647.8 1936 647.8 1951.6 644.4 1980 633.1 1999 658.2 1991.4 665.5 1972.2 666.1 1972.2 666.7 1983.1 682.7 1958.5 682.4 1937.2 684.9 1937.2 687.3 1917.5 699 1916.2 681.6 1937 680.6 1938.3 675.4 1929.9 671.4 1927.3 647.8 Z" data-holc_grade="C"/>
<path d="M 1750.9 774.1 1801.3 774.4 1802.3 778 1802.7 780.8 1803.6 783.7 1802.9 786.7 1800.5 788.5 1791 789.4 1780.8 789.4 1774 787.3 1769.3 785.4 1763.7 784.1 1759.6 784.4 1759.3 788.3 1759.6 792.6 1762 793.3 1767.8 797.1 1775.5 801.3 1779.8 801.4 1782.3 801 1783.1 803 1784.7 805.5 1787.2 806.8 1792 809.3 1796.5 811.5 1797.1 812.2 1800.9 811.8 1802.5 812.6 1803.3 815.1 1807.7 815.1 1812.2 815.1 1815.7 818.7 1810.8 822.8 1804.4 822.8 1802.3 853.9 1760 853.1 1760.4 841.1 1748 840.6 1750.9 774.1 Z" data-holc_grade="C"/>
<path d="M 1607.5 853 1607.4 860.6 1588.8 860.5 1588 886.9 1572.7 887.4 1577.6 891.3 1572.7 895.1 1566.5 891.4 1566.1 895.4 1557.6 895.2 1558.8 884 1542.4 870.8 1542 856.9 1547.6 856.7 1547 852.3 1607.5 853 Z M 1560.1 880.5 1570.4 880.8 1571.1 873.9 1585.3 873.4 1586.1 861.1 1560.4 860.5 1560.1 880.5 Z" data-holc_grade="C"/>
<path d="M 638.4 467.8 637.7 482.6 631.7 480.7 626.8 480.3 623.6 480.9 621.1 482.6 618.8 483.7 617.3 480.7 602.3 480.5 602.3 498.3 637 498.6 636.8 502.4 631.5 502.3 599 501.7 598.2 504 576.5 503.8 559.6 503.7 549.4 504.6 542.1 504.5 539.2 502.2 539.7 480.9 514.7 480 514.3 490.6 513.7 491.5 500.9 491.6 496.6 488.1 497 481.7 494.9 480.6 493.8 481.8 494.5 491 489.6 489.5 484.1 491.8 478.3 494.4 474.1 491.1 472.2 494.5 470.7 494.5 465.5 483.7 462.3 477.2 467.4 476.2 502.8 464.9 526.5 464.8 528 456.9 535.3 456.9 535.4 465.5 564.2 466.4 594.7 466.5 638.4 467.8 Z M 550.7 496.5 553.3 494.7 554.4 499.7 590.1 499.4 589.8 482.3 550 481.5 550.7 496.5 Z" data-holc_grade="C"/>
<path d="M 678.6 462.2 678.7 464.1 678.4 464 679 470.3 672.9 469.1 673.1 470.9 667.1 468.9 661.2 467.3 655.2 467.5 655.1 465.2 645.6 465.6 645.3 471.5 655.2 471.6 664.3 473.1 664.8 478.2 675 479.2 679 480.4 677.9 503.1 659.6 502.8 642.3 502.5 636.8 502.4 637 498.6 637.7 482.6 638.4 467.8 638.5 464.6 639.7 463 655.2 462.3 655.3 461.1 655.4 459.9 673.5 463.6 674.3 461.7 678.6 462.2 Z" data-holc_grade="C"/>
<path d="M 359.2 851.8 356.2 848.8 371.9 839.6 377.9 839.6 384.5 833.5 389.7 833 389.1 829.6 405.7 819.8 403.6 839.1 395 840 394.8 843 379.2 843.3 375.4 844.6 368.9 847.8 364.9 849.4 359.2 851.8 Z" data-holc_grade="D"/>
<path d="M 1338.4 658.9 1329.7 659 1319.3 658.4 1319 645.9 1314.8 645.7 1314.8 643.3 1338.4 643 1338.4 658.9 Z" data-holc_grade="D"/>
<path d="M 1353.2 623.2 1351.3 625.2 1352 638.1 1336 637.8 1336.1 631.6 1338.1 631.3 1338.9 622.8 1344.2 624.5 1344.8 620.7 1353.2 623.2 Z" data-holc_grade="D"/>
<path d="M 1278.2 514 1278.4 517.1 1282.8 517.4 1282.8 529.6 1318.6 530.1 1319.8 568.8 1319 586.4 1304.2 586.7 1304 545.7 1288.7 548.5 1282.4 548.5 1281.6 557.6 1241 557.9 1241 548.4 1232.8 548.4 1232 535.8 1228.1 536 1228.1 529.6 1229.7 529.8 1241.2 532.3 1241.8 513.7 1278.2 514 Z" data-holc_grade="D"/>
<path d="M 1177.8 519.3 1177.8 519.4 1179 519.5 1190.6 522.1 1191.6 527.4 1193.7 527.7 1194 529.5 1195.4 529.2 1195 531.3 1196.5 531.4 1197.2 533 1199.8 532.4 1199.5 536.6 1205.3 538.6 1205 563.8 1209 564.4 1209.5 581.2 1215.3 581.1 1216.4 589.1 1213.8 589.5 1213 593.1 1186.9 586.8 1178.7 587 1177.8 585.4 1171.1 584.8 1170.7 551.4 1166.1 551.3 1165.7 548.7 1163.4 548 1163.3 545.3 1162.6 540.4 1161.4 535.7 1162.1 530.4 1162.6 524.8 1169.4 524.2 1169.2 523.3 1169.5 517.6 1177.8 519.3 Z" data-holc_grade="D"/>
<path d="M 1205.4 609.5 1202.2 609.6 1201.4 605.2 1188.5 605 1188.8 619.8 1189.4 622.4 1181.5 622.4 1179.1 621.8 1176.9 619.5 1174.4 618 1172.6 616.7 1170.2 614.3 1168.1 612.8 1166.5 614 1165.9 615.2 1178.1 634.2 1159.5 633.9 1161.7 629.7 1157.6 629.4 1157.7 628.6 1160.3 624.6 1159.7 623.9 1144.7 623.9 1144.7 632 1153.5 632.4 1149.8 636.1 1150.4 637 1155.1 636.7 1146.8 648.3 1136.8 648.2 1136.4 633.7 1136.2 623.7 1140.1 623.1 1140.5 618.2 1158.6 607.6 1161.3 608.1 1164.2 607.4 1167.7 603.9 1166 601.5 1161.1 599.4 1157.8 602.2 1156.2 605.1 1153.8 608.8 1152.4 610 1144.9 610 1138.6 609.5 1138.6 603.8 1142.6 604 1142.6 598.1 1146.2 596.4 1148.4 595.6 1150.1 594.7 1152.9 592.9 1157.4 590.8 1159.8 589.9 1161.9 590.4 1164.2 591.3 1166.9 591.6 1168.4 591 1170.8 591.2 1174.7 591.6 1178.3 591.4 1178.7 593.4 1193.1 594 1193.9 598.4 1205.1 598.9 1205.4 609.5 Z" data-holc_grade="D"/>
<path d="M 1119.5 550.3 1120.4 535.9 1127.4 538.7 1129.8 537.9 1139.5 541.4 1139.8 548.6 1150.3 548.6 1151 563.7 1139.4 563.5 1143.6 574.1 1138.4 582.5 1148.6 589.9 1134.8 599 1134 607.8 1128.7 608.2 1125.9 609.7 1126.9 615 1124.5 617.5 1125.1 626.3 1115 626.6 1113 631.1 1099.9 631.1 1099.4 625.8 1099 625.1 1109.3 625.5 1108.3 616.6 1118.2 616.4 1117.7 610.6 1096.6 610.4 1096.5 600.8 1102.8 599.8 1107.7 596.4 1119.2 596 1118.6 576.1 1106.6 576.2 1105.8 564.5 1098.2 564.7 1098.1 559 1089.9 558.7 1089.9 574.1 1081.1 574 1081.6 585.9 1083.5 586.7 1082.7 591.6 1078.8 591.7 1078.9 595.8 1085.2 595.6 1086.4 599.8 1087.8 624.7 1080.6 624.9 1079.9 624.1 1080 619.4 1079.3 613 1079 610.3 1079.2 604 1077.9 601.5 1068 601.5 1067.7 597.6 1064.5 597.2 1063.5 589.2 1059.8 588.8 1058.9 583.7 1059.9 579.9 1059.8 576.7 1057.9 575.6 1054.6 575.6 1049.5 577 1048.7 575.9 1046.5 574.5 1042.5 574.4 1039.1 573.3 1037.2 572.1 1035.4 573.8 1033.9 573.3 1031.7 572.8 1029.7 572.9 1029.3 571.1 1028.3 570.3 1025.4 569.8 1025.3 563.4 1034.6 562.7 1034.9 561.1 1033.4 558.9 1034.7 556.9 1029.4 550.4 1009.5 550.7 1008.7 542.1 1010.3 542.1 1029.3 542.3 1035.2 549.2 1038.6 547.9 1040.8 548.1 1041.8 549.4 1049.4 549.7 1049.4 561.5 1063.1 560.8 1063 565.7 1070.3 565.1 1070.7 555.4 1071.6 554.5 1078.3 554 1078.9 551.9 1082 551.9 1084.9 552.3 1087.6 553.6 1089.3 552.5 1091.9 551.8 1095.5 554.3 1099.7 556.2 1106.6 558.4 1111.1 560 1113.7 561.5 1115.6 563.2 1118.7 562.7 1119.1 560.5 1119.4 557.8 1119.5 550.3 Z" data-holc_grade="D"/>
<path d="M 1120.4 535.9 1119.5 550.3 1118.9 549.5 1113 549.7 1100.8 549.7 1096.3 549.7 1092.9 547.7 1090.4 545.5 1085 542.3 1079 546.6 1076.2 546.8 1070.9 547.6 1069.1 549 1066.5 550.5 1061.4 551.3 1057.8 550.9 1054.1 548 1054.2 541.6 1053 540.2 1050.5 538.7 1048.2 537.3 1046.5 536 1048.8 534.2 1048.5 532.9 1047 532.6 1044.8 531.5 1041.9 529.5 1043.8 527.9 1033.4 528.2 1032.7 524 1033.6 523.6 1043 523.9 1043.8 522.8 1043.3 514.2 1044.9 514.2 1045 512.4 1043.8 509.8 1040.4 506.4 1044.3 504.1 1041.4 502.5 1036.5 499.4 1031.4 495.2 1025 492.5 1025 485.1 1027.1 485 1029.2 483.8 1031.2 485 1034 487.4 1036.6 485.9 1052.4 497 1053.7 496.5 1056.8 494.6 1056.8 491.6 1059.9 491.3 1063.3 491.5 1066.8 492.3 1069.1 492.3 1072.6 491.6 1076.8 490.5 1080.8 490 1089.2 488.7 1093.6 488 1095.1 488.6 1097.9 489.8 1099.8 491 1100.4 492.7 1102.6 494.2 1104.5 493.2 1107.5 493.4 1108.3 495.3 1108.6 502.2 1108 512 1109.5 512.4 1112.6 512.3 1115 513 1115.8 518.3 1113.7 518.6 1108.7 518.6 1107.9 520.9 1102.5 521.1 1101.9 522.5 1100 524.5 1097.3 524.8 1097.7 514.9 1095.7 514.6 1087.7 514.4 1086.5 505.2 1079 505.6 1076.3 504.7 1075.1 499.6 1072.6 498.8 1070.3 497.8 1068.8 496.9 1065.1 497.5 1065.1 500.3 1066 509.4 1065.8 515 1070.9 514.5 1074.6 517.3 1076.8 519 1076.2 520.8 1077.6 523 1084.3 523 1085.7 525.4 1087.8 528.5 1092.5 529.3 1097.3 530 1099.4 533.4 1107 538.2 1113.3 533.1 1120.4 535.9 Z" data-holc_grade="D"/>
<path d="M 1108.6 502.2 1108.3 495.3 1107.5 493.4 1104.5 493.2 1102.6 494.2 1100.4 492.7 1099.8 491 1097.9 489.8 1095.1 488.6 1093.6 488 1099.1 483.8 1104.5 486 1108.6 481.8 1113.1 479.3 1128.1 479 1148.3 479.1 1148.7 482.4 1153.7 482.6 1153.7 487.8 1157.5 488.3 1156.7 511 1143.9 505.1 1144.3 513.5 1151.7 515.1 1152.1 524.7 1143.8 525.2 1143.3 531 1139.8 530.8 1139.5 513.5 1135.4 513.1 1135.4 508.9 1119.1 508.7 1118 502.2 1108.6 502.2 Z" data-holc_grade="D"/>
<path d="M 998.5 422.5 999.5 422.7 1070.1 414.8 1074.8 414.9 1075.3 418.6 1081.5 418.7 1081.7 422.5 1087.6 423.4 1090.5 426.4 1094.7 430.4 1097.9 434.1 1097.7 436.9 1103.3 436.6 1103.5 437.6 1103.9 442.5 1109.1 442.5 1109.7 447.5 1101.6 447.7 1101.2 464.7 1117.4 464.6 1117.4 453.4 1122.7 453.5 1122.8 457.4 1127.3 457.7 1126.7 463.8 1127.4 464.3 1130.7 464.7 1131.1 470.7 1127.7 470.9 1126.3 469.8 1117.8 469.7 1117.8 466.1 1112.6 466.2 1111.9 474.4 1111.7 475.2 1106.3 477.1 1102.1 478.7 1094.6 478.4 1094.5 479.7 1092.9 480.4 1091.3 479.8 1088.9 478.5 1079.2 485.2 1075.1 484.7 1071.4 484.3 1065.9 484.5 1064.5 482.9 1057.4 483.1 1055.9 481.5 1055.3 472 1050.4 470.6 1049.3 473.8 1046.5 473.6 1048.8 464 1037 461.6 1036.5 462 1034 467 1032.5 466.7 1031 466.9 1026.2 465.7 1023.8 467.3 1012.6 457.8 1012.2 456.7 1010.1 456.1 1008.6 456.4 983.8 450.5 987.8 438.9 981.4 430.2 979.6 426 980.4 425 992 424.3 994.1 426.1 995.2 427.2 996.2 428.4 997.8 428.1 999.2 427.1 998.7 425.8 998.5 422.5 Z" data-holc_grade="D"/>
<path d="M 1070.1 414.8 999.5 422.7 998.5 422.5 997.3 419.2 994 419.3 992.8 412.4 979 413.3 978.3 409 972.2 402 958.6 409.1 953.9 406.3 958 403.4 954.4 399.1 995.5 380.1 999.3 384.9 1021.8 374.5 1027.8 382.3 1031.9 381.7 1039.6 390.9 1043.6 390.2 1047.1 395.9 1053 395.5 1054.7 400 1056.7 400 1058.7 405.3 1060.7 405.1 1062.6 411.3 1068.8 410.8 1070.1 414.8 Z" data-holc_grade="D"/>
<path d="M 675.8 659.9 676.5 668.3 673 668.3 672.4 671 671 673.4 668.8 674 657.3 673.7 657.7 679.5 662.1 680.2 658.5 683.7 605.2 682.8 605.2 676.2 625.4 662.8 636.3 656 636.8 658.9 675.8 659.9 Z" data-holc_grade="D"/>
<path d="M 1146.9 323.3 1145.9 323.7 1139.9 325.6 1138.4 323.4 1120.7 331.7 1120.5 336.5 1116.2 336.8 1116.8 362.2 1125.7 371.1 1180.8 370.6 1184.5 370.5 1186.9 384.1 1192.6 387.9 1198 388.8 1198.6 401.4 1207.7 400.9 1206 409 1206.8 412.5 1207.4 416.3 1181.3 417.3 1162.3 417.6 1151.2 417.9 1136.3 417.3 1121.5 416.9 1105.3 415.6 1100 414.7 1091.9 414.8 1087.2 414.3 1087.6 408.6 1074.6 409.5 1074.6 403.5 1068.2 404.1 1065.3 393.4 1059.1 393.8 1058.3 390.8 1053.4 391.1 1052.8 387.3 1048 387.9 1039.3 377.2 1033.8 378.7 1028 371.6 1025.4 372.6 1022.7 369 1068.4 348.6 1069.2 346.2 1073.6 346.3 1075.6 344.7 1079.9 343 1092.6 335.8 1092.2 332.6 1101.1 331.8 1102.1 333.6 1104.7 333.9 1105.1 328 1112 327.9 1112.8 324.3 1115.2 322.6 1116.2 319.1 1122.1 319.7 1123.9 316.4 1129.2 316.6 1129.4 323.7 1137 319.9 1137.6 304.3 1143.5 301.6 1144.1 317.3 1147.7 315.8 1151 321.4 1149.8 322.3 1146.9 323.3 Z" data-holc_grade="D"/>
<path d="M 1207.4 416.3 1208.2 421.4 1208.8 422.6 1214.7 428.2 1220.1 433.1 1221.5 433.8 1225.8 438.8 1218.5 446.2 1240.7 458.9 1237.9 461.9 1237.5 467.1 1237.7 470.3 1220.5 470.9 1219.9 473.6 1201.4 474.5 1200.1 476.8 1198.3 480.4 1196 484.5 1191.7 492.5 1188.2 496.7 1182.7 496.6 1171.9 496.3 1170.8 493.4 1171.6 489.2 1172.9 485.4 1182.2 485.3 1182 482.9 1178.9 481.4 1174.5 480.8 1170 481.1 1167.1 480 1168.5 477.4 1163.4 475 1159.9 475.5 1154.7 472.6 1159.3 467.3 1153.3 464.2 1136.5 464.1 1136.5 453.6 1127.2 453 1127.2 451 1121 450.9 1119.4 444.3 1117.1 443.9 1117.1 441.7 1115.9 438.1 1110.3 438.1 1107.8 435.9 1105.6 433.7 1099.4 427 1096 424 1096.3 418.8 1087.8 418.9 1087.2 414.3 1091.9 414.8 1100 414.7 1105.3 415.6 1121.5 416.9 1136.3 417.3 1151.2 417.9 1162.3 417.6 1181.3 417.3 1207.4 416.3 Z M 1205.9 455.1 1212.5 448.4 1217.3 433.7 1206.6 439.2 1199.3 440.1 1198.9 445.3 1177.8 446.9 1177.2 463.8 1199.7 464.1 1205.9 455.1 Z" data-holc_grade="D"/>
<path d="M 1261.8 371.3 1257.9 375.3 1255.2 378.8 1262.5 388.4 1264.9 392 1266.6 393.1 1266.6 395.3 1265.2 398 1260.3 403.8 1259.4 407.1 1258.6 415.6 1258.4 419.2 1252.1 420.3 1241.2 420.1 1241.7 419.6 1236.3 416.9 1234.9 415.2 1237.3 409.8 1236.3 407.8 1231.3 404.2 1226.9 399.4 1247.5 383.1 1248.2 377.5 1251.4 371.9 1248.2 370.9 1245 371.7 1245 369.4 1246.8 368.3 1251.6 368.8 1253.1 367.9 1256.5 364.7 1261.8 371.3 Z" data-holc_grade="D"/>
<path d="M 1258.6 323 1258.4 324 1257.1 324.6 1253.7 324.6 1246.8 326 1237.1 327.1 1231.9 328.1 1227.7 328.1 1225.9 327.4 1224.6 343.7 1225.8 344.8 1238 343.7 1244.8 344 1256.1 344.2 1256.3 352.8 1256.5 364.7 1253.1 367.9 1251.6 368.8 1246.8 368.3 1245 369.4 1245 371.7 1242.1 372.2 1240.8 370.4 1235 370.7 1234.3 366.7 1221.7 367.3 1209.6 366.5 1203.8 364.9 1203.5 362.1 1201.2 361 1201.2 353.8 1198 353.3 1198.5 347.3 1197.2 345.2 1191 346.5 1183.4 347.4 1181.7 341.7 1180 342.5 1179.6 340.4 1180.4 339 1179.7 334.4 1171.1 335.3 1171.1 327.4 1169 326.8 1169.2 323.2 1173.7 322.3 1173.7 320 1161.1 319.9 1160.2 316.8 1157.1 317 1155.6 315.9 1155.6 312.7 1154.7 307.6 1156.4 304.4 1156.6 290.4 1157.9 288.4 1173 281.6 1191 273.4 1211.8 263.5 1213.1 264.9 1212.7 267.6 1211.9 268.4 1211.7 268.8 1211.7 269.6 1209.8 269.9 1209 271.3 1210.5 271.7 1212.7 271.4 1213.9 270.7 1215 270.4 1215.3 271.1 1216.4 271.2 1216.8 269.8 1215.3 268.6 1220.1 268.4 1220.2 271.9 1220.5 275.7 1221.3 278.2 1223.5 279.1 1224.5 280.2 1224.5 281.9 1223.9 285.5 1223.9 288.6 1223.7 291.1 1224.8 294 1226.9 295.4 1226.9 296.5 1227 298.2 1227 299.4 1229.2 299.3 1231 299.7 1231.2 300.9 1231.9 301.8 1233.6 302.8 1236.3 302.2 1237 303.1 1238 303.9 1237.2 304.7 1238.5 305.6 1239.6 305.8 1240.6 306.4 1240.5 308.6 1240.8 310.4 1242.4 311.1 1244.1 311.4 1245.3 312.3 1248 312.8 1249.8 313.8 1250.9 314.7 1251.6 315.3 1251.8 317.3 1252.4 318.6 1253.8 319.2 1254.8 319.2 1257.3 319.7 1258.9 321.5 1258.6 323 Z" data-holc_grade="D"/>
<path d="M 1261.8 371.3 1256.5 364.7 1256.3 352.8 1260.2 354.1 1264.5 356.5 1268.6 359 1270.6 362 1275.1 365.8 1278.5 367.3 1280.8 368.5 1274.1 376.8 1265.4 372 1261.8 371.3 Z" data-holc_grade="D"/>
<path d="M 1452.8 184.7 1451.4 185.4 1444.9 189 1441.9 190.7 1433.2 190.7 1419.3 190.5 1418.9 193.2 1420.1 195.7 1420.4 198.5 1418.5 200.1 1414.7 200.9 1412.3 193.4 1411.2 192.1 1404.7 195.3 1403.9 197 1407.5 203.3 1406.3 204.6 1403.3 204.4 1402.6 206.5 1401.8 210.3 1400.9 212.5 1396.3 215 1394.2 212.9 1391.8 208.8 1389.5 206 1387.9 205 1385.7 206.7 1383.9 206.6 1375.7 212.7 1377.4 215.3 1380.2 218.3 1379.4 219.9 1380.3 221.8 1382.4 223.5 1382 226.2 1375.5 230.3 1376.9 232.4 1378.2 233.5 1374.8 235.6 1372.9 236.6 1369.8 239.6 1364.5 242 1359.3 245.1 1354.5 249.1 1350.3 252.8 1347.9 254.8 1344.5 251.9 1342 250.8 1338.3 251.4 1336.1 250.2 1334.8 249.4 1334.1 251.4 1328.3 253.6 1328.5 255.4 1330.9 261.6 1331.4 263.5 1327.2 264.5 1326.1 262.8 1325.2 259.5 1322.3 260 1317.1 261.6 1316.9 260 1315.2 257.4 1312.2 255.9 1305.2 254.6 1296.5 261.1 1285.4 270 1284.9 263.9 1284.2 246.6 1285.7 246.6 1294.1 250.2 1299.9 252.8 1300.5 250.2 1300 246.5 1300.7 242.4 1299.4 241.5 1295.4 242.1 1290.5 240.5 1289.2 239.6 1289.7 237.3 1288.6 236.2 1287.8 235 1284.1 235.5 1284.7 234.3 1302.3 226.3 1312.2 227 1325.7 221.1 1338.8 215.3 1360.3 205 1372.7 198.7 1374.2 201.6 1382.6 198.1 1385.3 203 1407.5 187.2 1405.7 184.8 1409.7 181.1 1417.3 175.6 1424.8 171.8 1428.8 173.5 1431.6 172 1437.4 176.1 1442.5 172.9 1446.9 175.8 1442.5 179 1443 180.1 1449.5 178.2 1450.8 179.1 1451.1 181.3 1453.5 181.3 1456.3 180.7 1457.7 182.2 1453.7 184.2 1452.8 184.7 Z" data-holc_grade="D"/>
<path d="M 1300.8 195.3 1308.4 193.3 1335.1 192.7 1335.5 189.6 1346 185 1348.6 183 1355.4 182.9 1355.3 179.9 1370.9 179.8 1383.2 175.4 1397.5 170.1 1406.8 165.9 1408.6 168.4 1416.6 165.5 1417.7 163.6 1418.1 161.3 1415.8 158.9 1412.4 155.7 1413.8 151.8 1416.8 149.5 1420.5 148.3 1422.1 147.6 1421.9 142.9 1425.2 146.5 1429.1 150.6 1431.2 154.2 1433.6 158.8 1423 159.1 1422.2 161.9 1422.2 166.3 1410.5 172.2 1407.8 171.1 1407.3 170.6 1400.7 173.5 1393.2 177.1 1389.5 178.1 1385.7 180 1379.7 181.4 1373.5 183.4 1369.8 184.2 1365.9 184.2 1357.4 183.7 1357.9 186.8 1356.1 189.8 1347.4 188.9 1347 196.2 1335.2 195.3 1334.4 204.9 1317.8 205.3 1317.2 211.5 1302 211.8 1301.3 221.3 1278.7 223 1277.9 222.6 1278.1 215.3 1289 208.6 1288.9 200.4 1299.7 199.7 1300.8 195.3 Z" data-holc_grade="D"/>
<path d="M 1509.3 123 1508.5 126.2 1475.6 143.5 1472.5 140.4 1470 136.1 1469.4 133.8 1468.3 132.3 1465.3 132.3 1465 130 1454.6 130.1 1455 123 1507.3 122.3 1509.3 123 Z" data-holc_grade="D"/>
<path d="M 1487.6 87.9 1487.8 102.1 1475.7 103 1454.6 101.9 1454.2 105.6 1449.8 106 1449 99.5 1453.5 100 1454.1 88.8 1469.5 88.4 1487.6 87.9 Z" data-holc_grade="D"/>
<path d="M 874.2 506.2 868.3 512.9 861.8 515 851 516.3 843.7 515.6 842.1 514.7 836.4 510.9 830.7 511.2 830 517.5 829.2 518.2 820.9 520.5 809.4 528 809.2 531.7 776.6 552.7 761.6 553.3 761.1 562.1 755.1 565.9 748.8 566.1 748.5 569.9 742.8 574.6 728 574.6 725.6 575.3 725.9 587.7 698.1 609.2 695 611.4 693.3 611.2 692.5 608.4 693.1 605.3 696.4 602.6 696.1 599.6 694.7 600.6 676.3 610.7 676.5 624.5 656.3 624.7 650.9 628.9 664.4 629.3 664.6 631.6 661.2 631.6 659.9 634 655.5 634.4 655.5 636.2 640.5 636.1 636.3 635.9 637 609.6 670 610.3 680.1 603.1 702.4 589.5 700.7 587.4 702.6 587.5 720 587 719.9 573.1 724.7 570.5 741.9 570.4 743 560.5 750.9 560.5 750.9 557.6 757.5 556.9 757.5 548.7 766.1 548.6 768.3 547.5 769.2 544 775.9 544.1 781.3 544.7 787.7 540.5 800.5 531.7 808.1 527 808.2 513.7 817.8 513.7 821.5 510.6 828 505.7 837.5 505.6 845.6 510.9 853.9 510.6 858.9 510.5 864.9 509.9 867.5 506 874.2 506.2 Z" data-holc_grade="D"/>
<path d="M 659.6 502.8 659.1 511.9 655.5 513.6 656.5 516.5 640.5 522.6 642.3 502.5 659.6 502.8 Z" data-holc_grade="D"/>
<path d="M 808.1 482.8 804.6 483.7 793.6 486.6 785.5 488.4 781.2 488.6 775.2 488.3 774.8 483.9 757.1 479.1 756.8 478.1 758.5 477.5 768 473.9 770.8 477.4 772.6 477.6 775.8 478.3 779.6 478.3 781.9 478.6 785.1 477.8 787.2 478.1 789.1 477.8 793.7 476.4 794.1 468.4 796.2 466.9 797.1 467.1 798.5 477.4 802.6 475.8 801.7 464.8 806.3 462.1 807.9 462.8 807.8 468 809.6 468.8 813.2 469 822 468.5 821.6 462.7 829.8 460.7 830.6 465.8 838.6 463.1 839.6 463.4 841.6 464.4 843.5 464.6 845.8 464.3 846.3 465.1 848.6 464.5 851.2 465.2 852.4 466.5 856 465.7 859.6 465.8 865.1 463.3 869.3 462.5 873.7 459.2 874.2 457.8 871 456 868.6 451.8 876.7 431.3 889.9 434.7 890.7 436 887.3 443.6 888.4 444.2 890.7 444.4 892.5 444.4 893.9 445.2 896.2 445.7 898.2 447.4 886.7 454.5 887.9 456.1 888.7 457.8 889.8 463.2 890.7 465.8 891.8 465.4 894.7 464.3 897.3 461.9 908 466.6 911.7 466.2 916.8 463.9 921.6 461.1 924.3 463.1 921.6 467.4 924.5 467.9 924.9 469 925.8 472.4 926.2 474.9 921.3 475.8 921.3 484 919 486.5 914.9 488.3 910.9 489.3 909.3 488.5 907.7 487.6 902.3 490 903.5 491.8 903.1 492.9 900.8 493.6 899.3 494.5 897.6 493.7 896.1 493 882.2 498.9 880 495.6 874.3 490.2 872.5 487.3 875.4 480.3 863.2 479.3 857.9 481.5 851.5 481.6 851.4 478.1 838.4 480.7 838.9 470.2 815.7 477 814.7 481.2 808.1 482.8 Z" data-holc_grade="D"/>
<path d="M 907.7 579.4 906.6 578.6 900.3 578.9 906.1 555 905.5 554.1 875.8 554.5 877.9 551.4 886.5 535.3 886.4 527.2 906.1 526.5 906.5 513.5 910.4 512.4 911.5 503.9 912.8 499.7 914.4 496.1 916.1 494.5 919 496.7 920.1 498.6 922 498.8 925.9 499.1 926.9 496.9 924.9 495.9 920.9 495.6 921.4 493.6 924.8 493.2 927.4 494 929.1 494 928.8 489.2 935.1 488.4 935.1 485.3 935.8 480.2 935.1 476.8 939.5 476.1 941.7 476.2 944 474.9 948.4 474.5 953.9 475.2 955.5 477.3 960.8 478.1 965 478.1 965.2 480.4 966 483.6 970.2 486.6 974.2 490.1 977.6 493.4 982 497.5 977 500.7 975.8 502.1 977.6 505.4 980.5 508.4 981.3 510.1 977.3 510.6 970.7 510.9 969.7 510.2 969 506 964.7 506 961.5 505.6 958.1 504.7 956 503.8 953.2 503.8 951.4 505.4 948.7 505.6 948 512.4 948.4 518.7 948.5 524.6 950.6 526.2 953.1 529 954 531.3 957.9 533.7 961.3 534.2 960 535.9 950.5 536.6 950 539.5 943 539.8 941.4 540.5 939.8 541.2 934.6 542.8 932.9 544.8 931.9 548.1 930.8 549.8 915.7 549.3 914 556.8 932.2 557.4 932.5 559.4 933.2 562.5 926.7 563.1 924.3 565.7 919.9 568.2 916.9 570.6 912.3 572.8 908.8 573.7 907.3 575.2 907.7 579.4 Z" data-holc_grade="D"/>
<path d="M 1560.1 880.5 1560.4 860.5 1586.1 861.1 1585.3 873.4 1571.1 873.9 1570.4 880.8 1560.1 880.5 Z" data-holc_grade="D"/>
<path d="M 1391.4 740.3 1383.7 746.3 1380.7 745.7 1367.6 740.7 1359.6 733.9 1360.9 731.3 1361.4 728.7 1362.6 729.5 1369.7 731.2 1374.9 728.1 1391.4 740.3 Z" data-holc_grade="D"/>
<path d="M 1329.7 659 1329.5 676.8 1314.8 676.9 1314.8 645.7 1319 645.9 1319.3 658.4 1329.7 659 Z" data-holc_grade="D"/>
</g>
</svg>