<?xml version="1.0"?>
<svg xmlns="http://www.w3.org/2000/svg" version="1.2" baseProfile="tiny" width="3000" height="3738" viewBox="0 0 3000 3738" stroke-linecap="round" stroke-linejoin="round">
<g id="A">
<path d="M 1233.7 776 1229.6 851.5 1127.1 845.9 1127.4 834.4 1125.6 820.4 1116.9 799.1 1105.4 782.2 1098.1 767.8 1233.7 776 Z" data-holc_grade="A"/>
<path d="M 1232.4 1032.9 1226.9 1032.6 1226.4 1044.4 1148.7 1039.4 1156.4 1030 1158.7 1018.7 1159.1 993.5 1158.7 974.6 1156 962.9 1156 951.2 1158.3 937.2 1229.2 933.7 1318.3 938.2 1329.4 950.5 1327.4 996.7 1232.4 993.9 1232.4 1032.9 Z" data-holc_grade="A"/>
<path d="M 1554.9 1362.5 1559.8 1405.8 1517.5 1404.7 1517.5 1417.3 1414.4 1415.1 1413.5 1402.1 1296.3 1398.5 1282.2 1334.8 1166.5 1329.4 1166.5 1366.1 1160.3 1371.1 1149.5 1352.8 1126.7 1263.4 1127.5 1254.8 1130 1233.2 1132.2 1196.4 1253.7 1200.8 1251.1 1180.3 1277.2 1182.8 1311.1 1255.9 1361.8 1259.9 1376.2 1237.9 1392.1 1221.7 1401.5 1214.1 1412 1209.8 1416.4 1209.8 1418.9 1212.7 1419.6 1219.2 1413.8 1230.7 1404.1 1249.1 1400.4 1257.4 1400.8 1262.4 1423.2 1264.2 1447.5 1271 1460.1 1272.5 1476 1270 1491.9 1266.4 1524.5 1275 1521.2 1360.7 1554.9 1362.5 Z" data-holc_grade="A"/>
<path d="M 2698.6 2766.1 2693.1 2853.1 2475.7 2845.4 2475.3 2857.6 2449.5 2857 2449.3 2857 2429.7 2856.5 2393.2 2855.7 2391.6 2844.1 2385.2 2836 2382.1 2826.6 2377.5 2806.7 2377.2 2790.5 2377.1 2785.1 2378.4 2777.9 2359.8 2745.9 2354.8 2693.2 2370.6 2637.3 2348.5 2639.5 2349.8 2568.8 2414 2571.9 2421.2 2452.5 2564.1 2461.4 2564.6 2473.1 2658.4 2479.3 2712.8 2482.8 2708.6 2574.8 2698.6 2766.1 Z" data-holc_grade="A"/>
<path d="M 2957.4 2786.2 2871.5 2781.7 2698.6 2766.1 2708.6 2574.8 2872 2548.7 2955 2536.7 2955 2547.5 2999 2542.6 2985.7 2788.7 2957.4 2786.2 Z" data-holc_grade="A"/>
<path d="M 2671.7 2882.8 2668.3 2926.1 2622.3 2945.2 2615.4 3040.1 2560.6 3035.8 2564.7 2998.3 2528.2 2994 2536.5 2878 2671.7 2882.8 Z" data-holc_grade="A"/>
<path d="M 381.7 2902.3 352.3 2905.4 359 3009.3 365.3 3106.4 342.6 3109.6 343.5 3129.4 403.3 3124.5 422.3 3125.9 418.2 3159.7 405.9 3225.9 324.9 3214.2 334.9 3182.1 320.4 3181.7 317.3 3120.8 175.6 3128.4 175.2 3109.9 254.8 3105 254.4 3070.3 174.8 3071.6 169.4 2965.6 189.3 2965.2 186.7 2916.5 240.3 2913 317.5 2908.1 313.4 2872.9 372.2 2868.9 381.7 2902.3 Z" data-holc_grade="A"/>
<path d="M 701.4 2111.7 641.7 2109.5 596.8 2128.9 605.4 2225.1 555.5 2222.9 541.1 2199.1 567.5 2180.8 571.1 2174.3 571.1 2169.3 569.7 2159.2 562.8 2142.2 556.7 2133.2 551.6 2130.3 543.7 2129.6 536.8 2133.2 526.3 2139.3 521.9 2141.1 513.3 2141.1 507.8 2138.6 497.8 2136.8 429.9 2049.9 428.1 2042.7 427.4 2031.8 431 2018.5 438.6 2006.3 454.2 1988.3 465.4 1976.7 467.6 1971.3 466.9 1962.3 445.2 1868.3 360.9 1863.9 357.3 1859.9 363.6 1728.4 460.2 1736.4 617.1 1739.4 618.9 1750.6 710.4 1758.6 706.8 1876.4 669.1 1875.3 667.3 1904.8 803.7 1913.9 801.1 2002.5 730.5 1997.5 729.4 2035.7 694 2034.6 701.4 2111.7 Z" data-holc_grade="A"/>
</g>
<g id="B">
<path d="M 1266.5 154.4 1280.2 155.4 1277.3 224.5 1394.4 231.7 1394 241.4 1395.8 244.3 1468.1 249.7 1467 285.7 1440.3 283.9 1438.5 329.6 1328.6 320.2 1332.7 363.7 1180.1 355.9 1180.1 340.3 1172.9 340 1169.7 381.8 1095.5 374 1093.8 361.9 1091.2 355.8 1090.5 348.6 1091.6 335.6 1093 325.5 1090.2 315.1 1088.4 306.8 1082.9 296.4 1179.8 300 1183.8 148.5 1266.5 154.4 Z" data-holc_grade="B"/>
<path d="M 2081.8 1379.8 2073.2 1581.9 1963.6 1573.9 1964.7 1556 1914.9 1552.7 1928.5 1371.8 2081.8 1379.8 Z" data-holc_grade="B"/>
<path d="M 2047.6 1740.5 2006 1858.4 1994.5 1974 1956.8 1971.7 1954.2 2007.8 1904.5 2004.1 1889.1 2036.1 1839.6 2034.3 1842.8 1961.1 1862.2 1961.7 1866 1930.6 1883.9 1932.6 1882.2 1916.1 1912.5 1919 1916.6 1834 1949 1836.8 1955.6 1735.7 1861.5 1729.1 1864.4 1676.9 1937.5 1681.9 1938.5 1669.7 2047.4 1678.3 2024.3 1739.2 2047.6 1740.5 Z" data-holc_grade="B"/>
<path d="M 1579.8 2094 1424.2 2086.5 1401.5 1941.7 1395.7 1936 1312.1 1932.7 1315.4 1919.4 1396.1 1923.4 1397.9 1933.1 1402.9 1938.5 1451.1 1939.9 1453.2 1904.3 1422.8 1902.8 1423.9 1881.2 1454.7 1882.6 1455 1867.1 1445.6 1856.3 1386.7 1852.7 1380.9 1817.8 1491.9 1825.4 1492.7 1828.2 1562.5 1833.3 1554.9 2012.4 1582.7 2014.9 1579.8 2094 Z" data-holc_grade="B"/>
<path d="M 1413.8 2093.4 1402.8 2137.3 1316.5 2131.5 1320.3 2152.5 1286.1 2150.8 1286.1 2180.8 1240.1 2177.9 1242.6 2106 1303.8 2107.5 1306.6 2084.6 1413.8 2093.4 Z" data-holc_grade="B"/>
<path d="M 2489.4 2254.6 2480.6 2287.4 2332 2276 2332.7 2252.2 2314.6 2210.4 2318.9 2150.2 2417.7 2156.6 2395.3 2221.9 2368.9 2255.8 2432.2 2259.7 2438.7 2220.4 2479.6 2194.1 2479.6 2203.5 2478.5 2213.2 2481.4 2228 2487.2 2246.3 2489.4 2254.6 Z" data-holc_grade="B"/>
<path d="M 2413.2 2306.5 2395.4 2356.4 2321.8 2355 2322.6 2334.5 2343.2 2301.1 2413.2 2306.5 Z" data-holc_grade="B"/>
<path d="M 2313.6 2572.5 2303.2 2587.6 2263.7 2585.1 2264.4 2575.4 2269.5 2568.9 2272.4 2562 2275.6 2559.5 2272.7 2556.6 2271.6 2550.5 2273.8 2547.6 2273.8 2541.9 2272 2535 2273.8 2530.3 2282.1 2529.2 2288.6 2528.9 2295.2 2522.7 2302 2509.4 2304.9 2498.6 2318.7 2488.8 2316.8 2481.3 2316.1 2475.9 2324.1 2462.2 2326.2 2445.9 2361.9 2448.8 2342.8 2511.4 2313.6 2572.5 Z" data-holc_grade="B"/>
<path d="M 2653.3 2413 2664 2413.4 2658.4 2479.3 2564.6 2473.1 2564.1 2461.4 2421.2 2452.5 2444.2 2378.7 2447.8 2377.6 2448.9 2403.5 2566.8 2411.5 2568.5 2409.5 2653.3 2413 Z" data-holc_grade="B"/>
<path d="M 2955 2536.7 2872 2548.7 2708.6 2574.8 2712.8 2482.8 2893.5 2495.6 2955.8 2500.5 2955 2536.7 Z" data-holc_grade="B"/>
<path d="M 2820.1 3062.1 2681.9 3051.3 2688.2 2883.1 2688.2 2882.5 2693.1 2853.1 2698.6 2766.1 2871.5 2781.7 2957.4 2786.2 2951.2 2873.2 2975.2 2874.5 2971.6 2934 2897 2927.3 2891.6 3043.2 2891.2 3051.3 2894.8 3065.2 2820.1 3062.1 Z M 2817.4 2924 2731 2917.6 2730.8 2926 2728.4 2931.5 2727.5 2943.8 2729.7 2951.1 2733 2955.5 2731.3 2980.4 2812.5 2984.6 2817.4 2924 Z" data-holc_grade="B"/>
<path d="M 1354.7 479.4 1313.6 479.4 1302.9 485.8 1240 482.9 1240.9 435.4 1161.7 436.5 1147.5 481.4 1092 485.4 1096.7 440.5 1098.4 406.2 1098.4 391 1096.1 382.6 1095.5 374 1169.7 381.8 1172.9 340 1180.1 340.3 1180.1 355.9 1332.7 363.7 1328.7 410 1329.2 413.5 1340.8 411.5 1353.2 440.6 1354.7 479.4 Z" data-holc_grade="B"/>
<path d="M 2693.1 2853.1 2688.2 2882.5 2688.2 2883.1 2681.9 3051.3 2820.1 3062.1 2818.6 3075.4 2815.8 3080.6 2809.9 3089.5 2782.8 3114.4 2709.6 3161.6 2695.3 3159.3 2683.8 3160.4 2639.7 3161.5 2619.9 3158.5 2612.5 3154.6 2606.9 3142 2596.3 3162.2 2589.1 3168.2 2579.8 3175.4 2572.2 3179.3 2562 3181.9 2557 3184.7 2544.9 3197.7 2538.1 3202.9 2531 3204.9 2523.6 3205.3 2490.9 3145.8 2503.7 3099.7 2493.3 3047.8 2469.1 3046.9 2427.8 2898.5 2429.7 2856.5 2449.3 2857 2454 2893.3 2506.2 2897 2507 2859.3 2475.3 2857.6 2475.7 2845.4 2693.1 2853.1 Z M 2671.7 2882.8 2536.5 2878 2528.2 2994 2564.7 2998.3 2560.6 3035.8 2615.4 3040.1 2622.3 2945.2 2668.3 2926.1 2671.7 2882.8 Z" data-holc_grade="B"/>
<path d="M 2188.1 2591.4 2238.7 2594.5 2257.9 2624.4 2261.2 2653.2 2149.7 2668.8 2149.4 2731.9 2318.3 2743.7 2329.5 2798.1 2328.8 2821.9 2329.2 2833.4 2332.6 2854.2 2285.5 2852.8 2284.9 2815.8 2167.3 2810.7 2169.6 2767.1 2223.4 2769.1 2226 2749.2 2125 2742 2128.7 2708.6 2066.2 2702.8 2052.3 2704.6 2053.4 2694.7 1879.7 2716.8 1880.6 2692.7 2049.4 2668.8 2051.3 2665.9 2133.8 2652.9 2139.9 2588.4 2188.1 2591.4 Z" data-holc_grade="B"/>
<path d="M 2285.5 2852.8 2276.6 2993.9 2243.1 2990.3 2241.3 3010.6 2164.8 3005.3 2168.2 2921.7 2197.5 2923.2 2202.9 2852.5 2285.5 2852.8 Z" data-holc_grade="B"/>
<path d="M 2041.3 2846.3 2069.2 2847.1 2063 2956.7 2065.2 2960 2125 2961.4 2116.3 3084.7 2146 3085.8 2150 3027.3 2203.9 3031.6 2202.8 3074.6 2245.2 3077.8 2237.2 3162.9 2235.9 3177.7 2103.1 3168.7 2093.4 3305.8 1901.9 3298 1887.1 3297.4 1885.5 3295.8 1894 3174.9 1895.6 3138 1906.5 3138.9 1907.7 3123.9 1911.6 3012.5 2008.4 3015.9 2019.9 2845.7 2041.3 2846.3 Z" data-holc_grade="B"/>
<path d="M 838.4 3025.3 852.5 3095 859.2 3128.1 713.4 3178.5 710.8 3163 685.3 3061.4 748.8 3046.1 745.2 2932.9 695.3 2936.8 694.2 2885.6 739 2884.1 779.2 2908.9 787.3 3040.1 838.4 3025.3 Z" data-holc_grade="B"/>
<path d="M 324.9 3214.2 405.9 3225.9 418.2 3159.7 422.3 3125.9 431.6 3123.5 541.2 3097.7 555.6 3169.5 558.2 3199 504.9 3186.5 484.7 3174.4 476.2 3221.4 429.9 3214.2 409.2 3310.2 307.3 3288.2 324.9 3214.2 Z" data-holc_grade="B"/>
<path d="M 541.2 3097.7 431.6 3123.5 421.1 2949.3 390.9 2952.7 394.3 3007.7 359 3009.3 352.3 2905.4 381.7 2902.3 565.8 2894.9 546.3 2910 549.5 2974.6 533.6 2976 541.2 3097.7 Z" data-holc_grade="B"/>
<path d="M 565.8 2894.9 381.7 2902.3 372.2 2868.9 313.4 2872.9 317.5 2908.1 240.3 2913 238.2 2869.4 272.3 2847.1 390 2787.7 388.2 2771.9 472.5 2749.2 480.1 2747.8 514.5 2752.5 518.9 2752.1 557.5 2746 563.6 2796.1 578.7 2894.2 565.8 2894.9 Z" data-holc_grade="B"/>
<path d="M 1049.9 2391.9 1012 2392.9 1004.1 2395.8 994.7 2402.7 981.3 2416.4 974.7 2425.7 961.4 2423.9 954.5 2421 947.6 2413.8 892.2 2409.8 889.7 2470 843.4 2467.1 849.6 2368.7 851.7 2340.6 923.8 2345.3 927 2341.7 977.3 2342.1 950.2 2325.9 976 2322.2 1014.2 2352.2 1031.9 2368.4 1047.9 2386.1 1049.9 2391.9 Z" data-holc_grade="B"/>
<path d="M 605.4 2225.1 681 2228.4 677 2359.6 849.6 2368.7 843.4 2467.1 798.9 2467.8 790.2 2472.9 655.3 2458.4 641.9 2455.8 637.5 2451.5 611.5 2409 578.3 2300.5 555.5 2222.9 605.4 2225.1 Z" data-holc_grade="B"/>
<path d="M 1182.2 653.1 1182.2 653 1186.1 564.1 1318.8 568.1 1318.3 616.5 1246.8 612.5 1245.1 682.4 1204 685 1198 687.3 1193.9 688.2 1181.2 676.1 1182.2 653.1 Z" data-holc_grade="B"/>
<path d="M 790.7 2152.9 788.9 2157.8 788.1 2175.9 788.1 2193.5 961.1 2201.9 956.7 2307.1 976 2322.2 950.2 2325.9 919.8 2299.9 912.6 2282.3 910.8 2271.4 911.5 2238.3 689 2228.8 691.9 2148.4 790.7 2152.9 Z" data-holc_grade="B"/>
<path d="M 691.9 2148.4 689 2228.8 681 2228.4 605.4 2225.1 596.8 2128.9 641.7 2109.5 701.4 2111.7 691.9 2148.4 Z" data-holc_grade="B"/>
<path d="M 803.7 1913.9 667.3 1904.8 669.1 1875.3 706.8 1876.4 710.4 1758.6 809.7 1766.2 803.7 1913.9 Z" data-holc_grade="B"/>
<path d="M 1242 765.8 1328.6 769.1 1324.5 851.4 1336.4 852.9 1331.7 932.4 1533.3 945.3 1535.6 974.7 1456.7 966.4 1426.3 964.9 1416.8 967.2 1378.6 999.5 1327.4 996.7 1329.4 950.5 1318.3 938.2 1229.2 933.7 1234.6 851.7 1229.6 851.5 1233.7 776 1236.3 765.6 1242 765.8 Z" data-holc_grade="B"/>
<path d="M 1229.6 851.5 1234.6 851.7 1229.2 933.7 1158.3 937.2 1156 951.2 1156 962.9 1158.7 974.6 1159.1 993.5 1158.7 1018.7 1156.4 1030 1148.7 1039.4 1226.4 1044.4 1225.8 1056.7 1234.8 1100.3 1029.9 1092.5 1026.7 1079 1025.8 1060.5 1031.7 1039.4 1039.8 1025.4 1057.9 1008.8 1062.9 1002.9 1098.2 917 1115.3 886.8 1122.6 872 1127.1 845.9 1229.6 851.5 Z" data-holc_grade="B"/>
<path d="M 1232.4 1032.9 1414.6 1042.7 1438.1 1069.4 1438.4 1082.7 1444.9 1087.7 1440.6 1218.5 1528.1 1225.3 1524.5 1275 1491.9 1266.4 1476 1270 1460.1 1272.5 1447.5 1271 1423.2 1264.2 1400.8 1262.4 1400.4 1257.4 1404.1 1249.1 1413.8 1230.7 1419.6 1219.2 1418.9 1212.7 1416.4 1209.8 1412 1209.8 1401.5 1214.1 1392.1 1221.7 1376.2 1237.9 1361.8 1259.9 1311.1 1255.9 1277.2 1182.8 1251.1 1180.3 1234.8 1100.3 1225.8 1056.7 1226.4 1044.4 1226.9 1032.6 1232.4 1032.9 Z" data-holc_grade="B"/>
<path d="M 1414.4 1415.1 1412.9 1460.9 1171.5 1448.6 1170.8 1412.9 1160.3 1371.1 1166.5 1366.1 1166.5 1329.4 1282.2 1334.8 1296.3 1398.5 1413.5 1402.1 1414.4 1415.1 Z" data-holc_grade="B"/>
<path d="M 1559.8 1405.8 1550.8 1436.6 1561.8 1617.3 1547.5 1620.4 1541.3 1619.4 1536.3 1616.1 1458.5 1611.8 1372.2 1623 1325.9 1630.2 1313.6 1555.9 1241.7 1553.8 1232.3 1523.2 1238.8 1486.4 1314.9 1488.9 1313.5 1476.3 1412.2 1480 1412.9 1460.9 1414.4 1415.1 1517.5 1417.3 1517.5 1404.7 1559.8 1405.8 Z" data-holc_grade="B"/>
<path d="M 1561.8 1712.1 1561.3 1712 1465.5 1705.8 1467.3 1685.3 1451.8 1684.2 1453.2 1637.8 1458.5 1631.6 1462.6 1629.9 1469.2 1630.2 1476.5 1633.1 1482.8 1635.4 1515.2 1640.3 1532 1637.1 1534.9 1634.2 1541 1629 1547.1 1627.6 1551.4 1630.5 1551.7 1634.8 1563.6 1638.5 1561.8 1712.1 Z" data-holc_grade="B"/>
</g>
<g id="C">
<path d="M 1468.1 249.7 1395.8 244.3 1394 241.4 1394.4 231.7 1277.3 224.5 1280.2 155.4 1266.5 154.4 1268.7 85.2 1316 39.5 1366.6 17.9 1392.3 1 1484.7 3.9 1479.7 37.3 1468.1 249.7 Z" data-holc_grade="C"/>
<path d="M 1380.9 1817.8 1386.7 1852.7 1445.6 1856.3 1455 1867.1 1454.7 1882.6 1423.9 1881.2 1422.8 1902.8 1453.2 1904.3 1451.1 1939.9 1402.9 1938.5 1397.9 1933.1 1396.1 1923.4 1315.4 1919.4 1312.1 1932.7 1192.1 1930.6 1198.8 1899.4 1207.5 1886.9 1207.7 1880.6 1209.2 1869.4 1212.2 1862.9 1215.1 1858.1 1219.8 1855.1 1230 1849.5 1243.7 1841.9 1256.3 1832.2 1262.4 1823.8 1268.9 1810.8 1380.9 1817.8 Z" data-holc_grade="C"/>
<path d="M 1672.5 1808.7 1724.1 1812.1 1715 1980.8 1711.9 1984.8 1702 1997.8 1612.6 1990.9 1615.2 1934.3 1626.7 1935.1 1631.4 1805.3 1672.5 1808.7 Z" data-holc_grade="C"/>
<path d="M 1861.5 1729.1 1955.6 1735.7 1949 1836.8 1916.6 1834 1912.5 1919 1882.2 1916.1 1883.9 1932.6 1866 1930.6 1862.2 1961.7 1842.8 1961.1 1839.6 2034.3 1889.1 2036.1 1904.5 2004.1 1954.2 2007.8 1956.8 1971.7 1994.5 1974 2006 1858.4 2047.6 1740.5 2136.9 1745.4 2125.3 1778 2100.2 1885.8 2038.3 1882.9 1998.1 2049 1915.1 2133.2 1851.9 2130.6 1851.9 2138.1 1723.3 2130.4 1723.9 2118.9 1729.7 1997.7 1702 1997.8 1711.9 1984.8 1755.5 1983.9 1757.8 1912.7 1837.1 1912.7 1835.7 1821 1814.5 1818.1 1819.9 1726.2 1861.5 1729.1 Z" data-holc_grade="C"/>
<path d="M 2054.6 2082.8 2056.4 2030.9 2061.9 2013.3 2175 2022.2 2172.7 2088.5 2054.6 2082.8 Z" data-holc_grade="C"/>
<path d="M 2444.2 2378.7 2260.1 2371.8 2237.8 2338.3 2245 2256.4 2280 2237.1 2284.9 2148.3 2318.9 2150.2 2314.6 2210.4 2332.7 2252.2 2332 2276 2480.6 2287.4 2479.6 2291 2477.5 2297.2 2471.3 2308.3 2467.7 2314.8 2464.1 2330.7 2459.9 2343 2453 2348.7 2446.1 2359.5 2444.2 2378.7 Z M 2413.2 2306.5 2343.2 2301.1 2322.6 2334.5 2321.8 2355 2395.4 2356.4 2413.2 2306.5 Z" data-holc_grade="C"/>
<path d="M 2903.4 2300.8 2719 2293.4 2717.9 2295.2 2579.3 2287.4 2571.4 2339 2567.7 2363 2447.8 2377.6 2444.2 2378.7 2446.1 2359.5 2453 2348.7 2459.9 2343 2464.1 2330.7 2467.7 2314.8 2471.3 2308.3 2477.5 2297.2 2479.6 2291 2480.6 2287.4 2489.4 2254.6 2578.7 2260.7 2586.7 2211.3 2591 2143.5 2804.4 2152.7 2801.9 2197.8 2760.7 2197.1 2760 2225.2 2756.4 2226.7 2756.4 2259.1 2904 2265.1 2903.4 2300.8 Z" data-holc_grade="C"/>
<path d="M 2653.3 2413 2568.5 2409.5 2566.8 2411.5 2448.9 2403.5 2447.8 2377.6 2567.7 2363 2658.5 2352 2653.3 2413 Z" data-holc_grade="C"/>
<path d="M 2261.2 2653.2 2257.9 2624.4 2238.7 2594.5 2188.1 2591.4 2191.1 2522.9 2198.1 2408.2 2269 2401.6 2249.1 2439.1 2326.2 2445.9 2324.1 2462.2 2316.1 2475.9 2316.8 2481.3 2318.7 2488.8 2304.9 2498.6 2302 2509.4 2295.2 2522.7 2288.6 2528.9 2282.1 2529.2 2273.8 2530.3 2272 2535 2273.8 2541.9 2273.8 2547.6 2271.6 2550.5 2272.7 2556.6 2275.6 2559.5 2272.4 2562 2269.5 2568.9 2264.4 2575.4 2263.7 2585.1 2303.2 2587.6 2313.6 2572.5 2322.7 2572.8 2327.8 2576.1 2327 2580 2310.4 2595.5 2306.8 2610 2304.6 2615 2298.5 2620.8 2297 2627.6 2295.9 2637.7 2291.6 2643.9 2288 2648.9 2261.2 2653.2 Z" data-holc_grade="C"/>
<path d="M 2188.1 2591.4 2139.9 2588.4 2133.8 2652.9 2051.3 2665.9 2049.4 2668.8 1880.6 2692.7 1882.4 2649.7 2056.2 2624.2 2121.1 2626.5 2128.7 2520.3 2191.1 2522.9 2188.1 2591.4 Z" data-holc_grade="C"/>
<path d="M 1880.6 2692.7 1879.7 2716.8 2053.4 2694.7 2052.3 2704.6 2041.3 2846.3 2019.9 2845.7 2008.4 3015.9 1911.6 3012.5 1903.7 3011.4 1870.3 2992.7 1858.6 2991.4 1863.9 2986.2 1879.6 2970.8 1886.1 2841.7 1808.7 2838.9 1808.6 2837.1 1848 2838 1849.3 2792.6 1809.3 2792 1808.6 2837.1 1808.3 2812.9 1747.5 2823.7 1683.5 2830.7 1665.3 2693.1 1663.8 2682.2 1882.4 2649.7 1880.6 2692.7 Z M 1739.4 2793.7 1733.8 2755.4 1677.9 2763.4 1682.4 2801.8 1739.4 2793.7 Z" data-holc_grade="C"/>
<path d="M 1240 482.9 1302.9 485.8 1313.6 479.4 1354.7 479.4 1355 490.9 1515.4 498.2 1518.6 558.6 1169.6 539.9 1169.6 479.7 1240 482.9 Z" data-holc_grade="C"/>
<path d="M 2285.5 2852.8 2202.9 2852.5 2197.5 2923.2 2168.2 2921.7 2164.8 3005.3 2150 3027.3 2146 3085.8 2116.3 3084.7 2125 2961.4 2065.2 2960 2063 2956.7 2069.2 2847.1 2041.3 2846.3 2052.3 2704.6 2066.2 2702.8 2128.7 2708.6 2125 2742 2226 2749.2 2223.4 2769.1 2169.6 2767.1 2167.3 2810.7 2284.9 2815.8 2285.5 2852.8 Z" data-holc_grade="C"/>
<path d="M 2332.6 2854.2 2325 3029.1 2322.3 3032.2 2310.6 3167.9 2237.2 3162.9 2245.2 3077.8 2202.8 3074.6 2203.9 3031.6 2150 3027.3 2164.8 3005.3 2241.3 3010.6 2243.1 2990.3 2276.6 2993.9 2285.5 2852.8 2332.6 2854.2 Z M 2332.6 2854.2 2329.2 2833.4 2328.8 2821.9 2329.5 2798.1 2318.3 2743.7 2347.8 2746.6 2359 2771.8 2367 2783 2377.2 2790.5 2377.5 2806.7 2382.1 2826.6 2385.2 2836 2391.6 2844.1 2393.2 2855.7 2332.6 2854.2 Z" data-holc_grade="C"/>
<path d="M 1794.4 3116 1682.5 3108.1 1582.2 3122.6 1536.9 3117.1 1510.4 2999.7 1618.6 2982 1721.1 2988.5 1750.8 2990.7 1750.8 2996.8 1801.1 3000.4 1802.5 2987.4 1858.6 2991.4 1870.3 2992.7 1903.7 3011.4 1911.6 3012.5 1907.7 3123.9 1794.4 3116 Z" data-holc_grade="C"/>
<path d="M 1778.8 3374 1778.8 3381.1 1750.9 3379 1745.5 3478.2 1637.6 3472.1 1635.8 3498 1603.1 3495 1592.7 3494.1 1579.3 3420.5 1574.6 3339.7 1563 3338.2 1563.7 3218.8 1536.9 3117.1 1582.2 3122.6 1682.5 3108.1 1794.4 3116 1778.8 3328.1 1778.8 3374 Z M 1678.9 3129.5 1619.2 3138.6 1611.7 3139.1 1611.6 3149.3 1616.8 3179.7 1676.9 3182 1678.9 3129.5 Z" data-holc_grade="C"/>
<path d="M 1907.7 3123.9 1906.5 3138.9 1895.6 3138 1894 3174.9 1885.5 3295.8 1887.1 3297.4 1901.9 3298 1893.7 3469.6 1820 3463.5 1822 3378.1 1778.8 3374 1778.8 3328.1 1794.4 3116 1907.7 3123.9 Z M 1869.3 3176.9 1832.1 3175.4 1831.2 3215.3 1868.6 3216.6 1869.3 3176.9 Z M 1825.7 3442.8 1849.2 3444.7 1852.4 3412.8 1869.2 3413.8 1870.5 3377.8 1824.4 3376.6 1825.7 3442.8 Z" data-holc_grade="C"/>
<path d="M 852.5 3095 838.4 3025.3 879.7 3016.3 917.7 2948.8 964.6 2941.9 951.3 2854.2 890.8 2863.4 885.3 2837.5 953.1 2828.3 962.2 2829.4 965.4 2845.9 1142 2818.8 1152.2 2888.3 1140.6 2953 1100.4 2960.7 1095.8 2920.1 1047.2 2925.8 1055.3 2972 1036.4 2976.9 1028.6 2931.6 1014.4 2931.9 1020.5 2981.5 900.9 3009.4 912.4 3079.2 852.5 3095 Z" data-holc_grade="C"/>
<path d="M 565.8 2894.9 578.7 2894.2 563.6 2796.1 557.5 2746 572 2737.2 581.7 2731.2 586.4 2734.8 609.5 2891.3 694.2 2885.6 695.3 2936.8 745.2 2932.9 748.8 3046.1 685.3 3061.4 662.2 3067.3 657.7 2967.4 594.7 2969.9 593.7 2960.9 577.7 2961.6 576.6 2982.9 558.9 2982.5 565 3091.7 541.2 3097.7 533.6 2976 549.5 2974.6 546.3 2910 565.8 2894.9 Z" data-holc_grade="C"/>
<path d="M 409.2 3310.2 429.9 3214.2 476.2 3221.4 484.7 3174.4 504.9 3186.5 558.2 3199 555.6 3169.5 541.2 3097.7 565 3091.7 662.2 3067.3 685.3 3061.4 710.8 3163 670.2 3180.9 667.3 3178.9 602.2 3192.4 587.3 3284.4 551.7 3277.2 549.7 3273.7 436.4 3248.5 423.6 3315.2 409.2 3310.2 Z" data-holc_grade="C"/>
<path d="M 422.3 3125.9 403.3 3124.5 401.4 3105.5 365.3 3106.4 359 3009.3 394.3 3007.7 390.9 2952.7 421.1 2949.3 431.6 3123.5 422.3 3125.9 Z" data-holc_grade="C"/>
<path d="M 240.3 2913 186.7 2916.5 189.3 2965.2 169.4 2965.6 174.8 3071.6 175.2 3109.9 175.6 3128.4 317.3 3120.8 320.4 3181.7 290.7 3184 287.8 3147.9 146.2 3157 133.3 2956.5 70.5 2957.8 9.3 3008.3 6.7 3005.4 1 2925.2 48.4 2924.4 51.7 2868.4 77.7 2870.4 102.6 2868.5 96.2 2887.5 98.8 2889.5 138.5 2885.8 182 2864.8 176.8 2816.3 216.5 2811.4 231.8 2815.2 288.9 2815.3 301.3 2813.5 332.9 2794.5 351.8 2790.2 361 2787.1 376.8 2778.2 388.2 2771.9 390 2787.7 272.3 2847.1 238.2 2869.4 240.3 2913 Z" data-holc_grade="C"/>
<path d="M 1186.1 564.1 1182.2 653 1182.2 653.1 1047.4 648.7 1042.8 634.9 1019.4 603.2 1003.2 577 998.6 565.4 1000.1 558.2 1002.4 555.7 1006.7 554.2 1011 557.1 1186.1 564.1 Z" data-holc_grade="C"/>
<path d="M 572 2737.2 557.5 2746 518.9 2752.1 514.5 2752.5 480.1 2747.8 472.5 2749.2 388.2 2771.9 376.8 2778.2 371 2754 352.5 2751.4 336.7 2681.1 444.2 2674 487.2 2673.8 518.1 2679.5 566.9 2696.4 572 2737.2 Z" data-holc_grade="C"/>
<path d="M 1061.2 2402.7 1071.7 2412.1 1084 2424.3 1094.2 2444.5 1101 2462.9 1103.2 2490.3 1102.8 2508.3 1099.6 2517.7 955.5 2509.7 958.8 2441.2 974.7 2425.7 981.3 2416.4 994.7 2402.7 1004.1 2395.8 1012 2392.9 1049.9 2391.9 1052.2 2398.4 1061.2 2402.7 Z" data-holc_grade="C"/>
<path d="M 689 2228.8 911.5 2238.3 910.8 2271.4 912.6 2282.3 919.8 2299.9 950.2 2325.9 977.3 2342.1 927 2341.7 923.8 2345.3 851.7 2340.6 849.6 2368.7 677 2359.6 681 2228.4 689 2228.8 Z" data-holc_grade="C"/>
<path d="M 1049.9 2391.9 1047.9 2386.1 1031.9 2368.4 1014.2 2352.2 976 2322.2 956.7 2307.1 961.1 2201.9 788.1 2193.5 788.1 2175.9 997.1 2184.4 997.3 2200.5 1055.5 2203.5 1053 2244.1 1091.7 2247.7 1087 2325.6 1072.1 2353 1071 2387.6 1061.2 2402.7 1052.2 2398.4 1049.9 2391.9 Z" data-holc_grade="C"/>
<path d="M 1364.6 2457.9 1333.6 2455.6 1338 2382.6 1260.4 2377.1 1261.2 2329.3 1244.3 2326.7 1245.7 2291.2 1217.7 2290.6 1205.6 2254.6 1335.8 2261.2 1364.6 2457.9 Z" data-holc_grade="C"/>
<path d="M 1480 2461.4 1455.7 2461.1 1398 2458.5 1392.5 2527.5 1375.3 2526.5 1364.6 2457.9 1335.8 2261.2 1205.6 2254.6 1211.1 2182.8 1238.9 2183.9 1240.1 2177.9 1286.1 2180.8 1286.1 2150.8 1320.3 2152.5 1316.5 2131.5 1402.8 2137.3 1413.8 2093.4 1424.2 2086.5 1455.7 2288.9 1480 2461.4 Z" data-holc_grade="C"/>
<path d="M 1579.8 2094 1609.6 2095.4 1609.7 2114.2 1590 2128.3 1583.6 2221.7 1581.3 2226.6 1577.8 2273.6 1539.9 2271.9 1550 2334.2 1531.2 2333.9 1541.9 2396.2 1522.8 2394.5 1529.2 2449 1480 2461.4 1455.7 2288.9 1424.2 2086.5 1579.8 2094 Z" data-holc_grade="C"/>
<path d="M 1242 765.8 1236.3 765.6 1233.7 776 1098.1 767.8 1091.3 753 1087.3 734.3 1087.3 723.5 1093.1 716.7 1241.6 723.2 1242 765.8 Z" data-holc_grade="C"/>
<path d="M 1533.3 945.3 1331.7 932.4 1336.4 852.9 1324.5 851.4 1328.6 769.1 1532.2 779.2 1532.2 809.1 1528.4 854.9 1533.3 945.3 Z" data-holc_grade="C"/>
<path d="M 1412.9 1460.9 1412.2 1480 1313.5 1476.3 1314.9 1488.9 1238.8 1486.4 1232.3 1523.2 1241.7 1553.8 1197.9 1551.2 1186.7 1544.8 1182.4 1535.8 1181.3 1525.7 1178.7 1505.5 1173.7 1486 1169.7 1472 1169.7 1462.6 1169.7 1455.8 1171.5 1448.6 1412.9 1460.9 Z" data-holc_grade="C"/>
<path d="M 1593.9 1714.1 1562.4 1712.1 1561.8 1712.1 1563.6 1638.5 1565.3 1634 1561.8 1617.3 1550.8 1436.6 1559.8 1405.8 1554.9 1362.5 1623.7 1363.7 1628.3 1481.3 1705.6 1485.6 1701.3 1537.5 1687.1 1538 1677.3 1721 1593.9 1714.1 Z" data-holc_grade="C"/>
<path d="M 1914.9 1552.7 1964.7 1556 1963.6 1573.9 2073.2 1581.9 2081.8 1379.8 2286.8 1390 2286.9 1464.6 2397 1468.8 2394.9 1558 2296.7 1553.7 2286.5 1756.9 2136.9 1745.4 2047.6 1740.5 2024.3 1739.2 2047.4 1678.3 1938.5 1669.7 1936.5 1645.2 1865.4 1640.9 1866.5 1609 1816.7 1603.3 1818 1546.1 1914.9 1552.7 Z" data-holc_grade="C"/>
<path d="M 1453.2 1637.8 1451.8 1684.2 1467.3 1685.3 1465.5 1705.8 1561.3 1712 1561.8 1712.1 1562.4 1712.1 1593.9 1714.1 1596.8 1888.2 1614.9 2095.7 1609.6 2095.4 1579.8 2094 1582.7 2014.9 1554.9 2012.4 1562.5 1833.3 1492.7 1828.2 1491.9 1825.4 1380.9 1817.8 1268.9 1810.8 1271.3 1784.4 1278.5 1763.1 1298.1 1653.6 1330.6 1655.4 1325.9 1630.2 1372.2 1623 1375.5 1647.5 1431.9 1649.6 1436.9 1641.7 1453.2 1637.8 Z" data-holc_grade="C"/>
</g>
<g id="D">
<path d="M 1724.1 1812.1 1672.5 1808.7 1677.3 1721 1687.1 1538 1701.3 1537.5 1705.6 1485.6 1708.2 1442.1 1826.2 1451.5 1818 1546.1 1816.7 1603.3 1819.9 1726.2 1814.5 1818.1 1724.1 1812.1 Z" data-holc_grade="D"/>
<path d="M 1820 3463.5 1819.5 3488 1805.6 3487.2 1804.1 3536.5 1815.7 3536.5 1814 3563.9 1649.7 3552.4 1648.5 3557.3 1604.5 3555 1603.1 3495 1635.8 3498 1637.6 3472.1 1745.5 3478.2 1750.9 3379 1778.8 3381.1 1778.8 3374 1822 3378.1 1820 3463.5 Z" data-holc_grade="D"/>
<path d="M 1808.6 2837.1 1808.7 2838.9 1886.1 2841.7 1879.6 2970.8 1863.9 2986.2 1858.6 2991.4 1802.5 2987.4 1801.1 3000.4 1750.8 2996.8 1750.8 2990.7 1721.1 2988.5 1618.6 2982 1510.4 2999.7 1497.3 2939.1 1617.2 2920.7 1613.9 2896.9 1668.9 2888.6 1661.7 2833.1 1683.5 2830.7 1747.5 2823.7 1808.3 2812.9 1808.6 2837.1 Z" data-holc_grade="D"/>
<path d="M 859.2 3128.1 852.5 3095 912.4 3079.2 900.9 3009.4 1020.5 2981.5 1014.4 2931.9 1028.6 2931.6 1036.4 2976.9 1055.3 2972 1047.2 2925.8 1095.8 2920.1 1100.4 2960.7 1140.6 2953 1152.2 2888.3 1142 2818.8 965.4 2845.9 962.2 2829.4 953.1 2828.3 885.3 2837.5 873.2 2757.3 938.6 2760.2 932.6 2729.3 1076.3 2738.3 1111.7 2713.5 1176.7 2718.2 1185.1 2720.8 1190.9 2722.8 1210.6 2742.4 1223.3 2747 1228.5 2747 1295.1 2737.2 1298.3 2761.5 1415.3 2742.7 1442.2 2772.4 1400.2 2778.5 1409.5 2842.9 1441.4 2839.1 1433.2 2854.6 1430.3 2858.5 1427.7 2862.4 1413.5 2871.4 1396.2 2882.6 1346.8 2908.3 1267.7 2921 1275.8 2979.2 1084.5 3050.7 859.2 3128.1 Z" data-holc_grade="D"/>
<path d="M 662.2 3067.3 565 3091.7 558.9 2982.5 576.6 2982.9 577.7 2961.6 593.7 2960.9 594.7 2969.9 657.7 2967.4 662.2 3067.3 Z" data-holc_grade="D"/>
<path d="M 1055.5 2203.5 997.3 2200.5 997.1 2184.4 788.1 2175.9 788.9 2157.8 790.7 2152.9 794.5 2117.1 999.6 2127.9 1052.2 2153 1140.2 2160.8 1136.7 2190.5 1140.8 2207.8 1055.5 2203.5 Z" data-holc_grade="D"/>
<path d="M 1364.6 2457.9 1375.3 2526.5 1392.5 2527.5 1464.3 2531.7 1455.7 2461.1 1480 2461.4 1529.2 2449 1522.8 2394.5 1541.9 2396.2 1531.2 2333.9 1550 2334.2 1539.9 2271.9 1577.8 2273.6 1581.3 2226.6 1583.6 2221.7 1590 2128.3 1609.7 2114.2 1615.3 2252 1617.5 2276.4 1587.5 2294.4 1584.6 2353.5 1589.5 2400.5 1581.4 2401.7 1581.7 2507.5 1569 2531.1 1525.3 2530.6 1525.6 2540.1 1494 2545.3 1497.6 2574.4 1454.7 2578.4 1380.6 2575.6 1368.7 2557.7 1278.7 2552.8 1268.6 2525.6 1270 2498.8 1257.6 2497.7 1261.4 2393.9 1221.4 2392.1 1217.9 2368.5 1214.2 2360.1 1212.4 2353.5 1212.7 2337.9 1218.8 2324.4 1216.5 2299.8 1217.7 2290.6 1245.7 2291.2 1244.3 2326.7 1261.2 2329.3 1260.4 2377.1 1338 2382.6 1333.6 2455.6 1364.6 2457.9 Z" data-holc_grade="D"/>
<path d="M 2334 1938.1 2467.3 1945.8 2476.2 1967.6 2460.8 2024.9 2331.2 2015.9 2334 1938.1 Z" data-holc_grade="D"/>
<path d="M 2054.6 2082.8 2172.7 2088.5 2170.7 2116.2 2157.7 2116.2 2153.1 2173.8 2048 2168.7 2054.6 2082.8 Z" data-holc_grade="D"/>
<path d="M 1723.9 2118.9 1723.3 2130.4 1851.9 2138.1 1851.9 2130.6 1915.1 2133.2 1914.5 2156.9 1824.4 2154.4 1807.7 2147.5 1790.7 2164.3 1711 2162.7 1707.4 2166.6 1636.6 2165.9 1619.8 2151 1621.6 2114.8 1723.9 2118.9 Z" data-holc_grade="D"/>
<path d="M 1617.5 2276.4 1615.3 2252 1656.9 2254.3 1662.3 2177.7 1683.1 2181.8 1683.1 2189 1760.9 2190.3 1764.5 2198.9 1847.7 2202 1848.2 2206.1 1923.3 2209.2 1921.5 2285.8 2191.5 2296.5 2190.7 2380.3 2091.1 2376.7 2091.6 2354.2 2038.7 2351.5 2037.3 2344.8 1912.5 2338.9 1903.4 2363.3 1893 2379.9 1884.4 2391.7 1870.9 2402 1856.8 2408.3 1840.5 2412.9 1692.2 2405.7 1692.2 2398.5 1653.7 2394.9 1654.2 2351.6 1694.9 2353.4 1698.9 2279.1 1617.5 2276.4 Z" data-holc_grade="D"/>
<path d="M 2903.4 2300.8 2911.1 2301.5 2911.1 2328.1 2724.4 2319 2724 2344.5 2571.4 2339 2579.3 2287.4 2717.9 2295.2 2719 2293.4 2903.4 2300.8 Z" data-holc_grade="D"/>
<path d="M 2191.1 2522.9 2128.7 2520.3 2121.1 2626.5 2056.2 2624.2 1882.4 2649.7 1663.8 2682.2 1665.3 2693.1 1585.4 2702.1 1573.1 2628.6 1642.6 2557.6 1716 2561.9 1769.2 2549.6 1773.2 2447.2 1830 2450.1 1831.8 2434.6 1914 2438.2 1916.5 2429.9 2018.5 2433.1 2025.2 2431.3 2087.8 2434.5 2088.6 2420.8 2198.1 2408.2 2191.1 2522.9 Z" data-holc_grade="D"/>
<path d="M 2325 3029.1 2332.6 2854.2 2393.2 2855.7 2394.1 2860.2 2398.2 2880.9 2403.2 2889.5 2404.1 2899.4 2401.8 2914.3 2396.4 2936.8 2397.3 2946.7 2398.7 2957.6 2405.5 2969.7 2406.9 2976.5 2401 3009.4 2401 3016.6 2409.2 3034.2 2325 3029.1 Z" data-holc_grade="D"/>
<path d="M 1763.9 3608.1 1919.9 3618.4 1912.8 3737.5 1758.5 3728.8 1763.9 3608.1 Z" data-holc_grade="D"/>
</g>
</svg>