<?xml version="1.0"?>
<svg xmlns="http://www.w3.org/2000/svg" version="1.2" baseProfile="tiny" width="3000" height="2732" viewBox="0 0 3000 2732" stroke-linecap="round" stroke-linejoin="round">
<g id="A">
<path d="M 2857 1333.3 2856.8 1485.8 2855.4 1485.8 2779.3 1488.1 2778 1505.4 2762.4 1499 2749.1 1498.6 2735.3 1508.2 2725.3 1516 2667 1476.7 2689 1455.7 2674.8 1454.8 2627.1 1441.1 2618.9 1436.1 2587.7 1458 2526.2 1411 2548.2 1383.1 2602.3 1423.8 2662.4 1344.3 2617.4 1300.4 2650.9 1261.1 2733 1221.9 2817.8 1221.3 2857.1 1213.7 2857 1325.1 2857 1333.3 Z" data-holc_grade="A"/>
<path d="M 2209.2 1784.3 2207.6 1781.2 2215.5 1745.6 2228.9 1685.9 2297.7 1700.9 2299.7 1803.3 2219.4 1786.4 2209.2 1784.3 Z" data-holc_grade="A"/>
<path d="M 2245.9 1472.1 2258.9 1495 2236.5 1507.3 2217.5 1480.7 2180.7 1499.3 2159 1462.1 2153.4 1441.8 2138.3 1440.1 2137 1446.8 2054.6 1312.3 2051.9 1309.4 2048.9 1266.6 2047.8 1238.9 2043.8 1205.9 2041.6 1182.7 2039.5 1160.8 2042.3 1137.8 2047.6 1115.3 2053.6 1109.7 2067.5 1109.3 2076.2 1115.3 2082.4 1124 2085.4 1141.4 2081.1 1160.6 2079.9 1196.4 2079.2 1214.7 2084.1 1242.3 2088 1263.2 2106 1268 2111.8 1265.1 2123 1263.3 2212.1 1412.2 2245.9 1472.1 Z" data-holc_grade="A"/>
</g>
<g id="B">
<path d="M 2857 1333.3 2857 1325.1 2857.1 1213.7 2817.8 1221.3 2733 1221.9 2650.9 1261.1 2617.4 1300.4 2662.4 1344.3 2602.3 1423.8 2548.2 1383.1 2526.2 1411 2587.7 1458 2618.9 1436.1 2627.1 1441.1 2674.8 1454.8 2689 1455.7 2667 1476.7 2725.3 1516 2735.3 1508.2 2749.1 1498.6 2762.4 1499 2778 1505.4 2779.3 1488.1 2855.4 1485.8 2854.2 2310 2282.6 2301.7 2276.5 2301.6 2276.2 1986.9 2216.6 1986.7 2215.5 1913.4 2151.4 1913.5 2152.5 1910.9 2162.9 1887.2 2208.2 1784 2209.2 1784.3 2219.4 1786.4 2299.7 1803.3 2297.7 1700.9 2228.9 1685.9 2215.5 1745.6 2207.6 1781.2 2207.5 1781.5 2181.4 1771.2 2210.6 1627.7 2163.1 1616.3 2135 1753 2137.1 1763.9 2081.6 1767.4 2079 1866.2 1921 1867 1905.1 1867.1 1860.3 1867.3 1860.9 1764.8 1905 1765.1 1911.6 1342.9 1911.6 1342.1 1938.4 1342.4 1994.9 1343 1994.1 1294 1993.8 1272.1 1993.8 1269.2 2000.9 1269 2013 1268.7 2011.9 1039.7 2156.3 1039.3 2160.2 765.4 2308.7 764.4 2310.4 964.2 2352.8 965.2 2353.5 1031.8 2391.8 1111.6 2395.4 1111.6 2395.4 1149.9 2380.2 1150.3 2379.9 1182.7 2408 1183.3 2407 1232.2 2447 1231.9 2447 1232.6 2473.7 1233.7 2519.5 1257.7 2519.7 1110.4 2594.9 1109 2604.7 1029.5 2617.7 882.4 2522.3 883 2523.3 789.5 2607.2 789.4 2603.6 753.6 2611.9 717.7 2590 674.1 2593.1 657.5 2609.8 573.3 2616.5 530.7 2617.5 473.6 2996.6 473.9 2997.8 752.4 2999 968.5 2997 1146.7 2995 1332.7 2863.8 1333.3 2857 1333.3 Z M 2245.9 1472.1 2212.1 1412.2 2123 1263.3 2111.8 1265.1 2106 1268 2088 1263.2 2084.1 1242.3 2079.2 1214.7 2079.9 1196.4 2081.1 1160.6 2085.4 1141.4 2082.4 1124 2076.2 1115.3 2067.5 1109.3 2053.6 1109.7 2047.6 1115.3 2042.3 1137.8 2039.5 1160.8 2041.6 1182.7 2043.8 1205.9 2047.8 1238.9 2048.9 1266.6 2051.9 1309.4 2054.6 1312.3 2137 1446.8 2138.3 1440.1 2153.4 1441.8 2159 1462.1 2180.7 1499.3 2217.5 1480.7 2236.5 1507.3 2258.9 1495 2245.9 1472.1 Z" data-holc_grade="B"/>
<path d="M 1982.8 2589 1982.9 2583.1 2005.1 2583.1 2003.5 2676.6 1980.8 2676 1982.8 2589 Z" data-holc_grade="B"/>
<path d="M 1988 2178.4 1999.5 2178.4 2029.2 2178.6 2029.2 2179.1 2029 2182.5 2026.7 2285 1988.4 2283.5 1987.6 2192.9 1988 2179.3 1988 2178.7 1988 2178.4 Z" data-holc_grade="B"/>
<path d="M 380.7 1528.2 379.8 1523.9 378.7 1522.5 377.6 1431.8 422.5 1426.1 421.5 1397.9 999 1401 1001.5 1310.8 1148.7 1311.8 1150.3 1330.2 1549.9 1334.4 1546.7 1578 1500.9 1579.5 1503.9 1603.3 1222.8 1602.3 1221.3 1621.1 1142.7 1620.1 1144.7 1540.3 994 1536.8 999 1571 901.4 1572 901.9 1596.3 845.2 1597.2 845.2 1572 450.8 1566 451.2 1529.3 380.7 1528.2 Z" data-holc_grade="B"/>
<path d="M 448.4 1783.6 446 1718.5 527.1 1718 526.8 1645.7 685.7 1647.9 688 1718.3 898.4 1721.1 899.4 1654.2 1071.1 1655.8 1069.6 1790.6 448.4 1783 448.4 1783.6 Z" data-holc_grade="B"/>
<path d="M 1455.2 1834.3 1415.3 1834.7 1412.9 1794.6 1358.1 1796.1 1359.1 1658.3 1413.4 1659.3 1413.3 1655.6 1466.7 1656.4 1466.3 1727 1595.7 1728.3 1599.6 1796.7 1451.4 1796.2 1455.2 1834.3 Z" data-holc_grade="B"/>
<path d="M 286.8 227.3 1.4 224.5 1 113.1 22.1 107.9 60.4 90.8 78.6 91 100.3 87.6 115.3 78.9 132.9 71.6 158.8 63.4 196.2 49.4 212.9 46.4 231.2 43 259.2 41.6 299.2 40.8 309.7 47.6 319.2 58.5 323.1 69.2 324.9 81.8 322.2 93.1 311.5 115.9 299.1 135.3 289.1 153.5 287.8 227.3 286.8 227.3 Z" data-holc_grade="B"/>
</g>
<g id="C">
<path d="M 2519.7 1110.4 2519.5 1257.7 2473.7 1233.7 2447 1232.6 2447 1231.9 2446.9 1108.1 2519.7 1109.2 2519.7 1110.4 Z" data-holc_grade="C"/>
<path d="M 2207.6 1781.2 2209.2 1784.3 2208.2 1784 2162.9 1887.2 2152.5 1910.9 1905.6 1907.5 1905.1 1867.1 1921 1867 2079 1866.2 2081.6 1767.4 2137.1 1763.9 2135 1753 2163.1 1616.3 2210.6 1627.7 2181.4 1771.2 2207.5 1781.5 2207.6 1781.2 Z" data-holc_grade="C"/>
<path d="M 1993.8 1272.1 1994.1 1294 1994.9 1343 1938.4 1342.4 1911.6 1342.1 1911.6 1342.9 1909 1341.4 1909.6 1269.2 1993.8 1272.1 Z" data-holc_grade="C"/>
<path d="M 2029.2 2178.6 2054.7 2178.8 2078.7 2179.6 2073.9 2730.8 1856.6 2726.4 1856.6 2718.1 1857 2287.8 1903 2283.1 1903.1 2248.8 1902.7 2177.8 1988 2178.4 1988 2178.7 1988 2179.3 1987.6 2192.9 1988.4 2283.5 2026.7 2285 2029 2182.5 2029.2 2179.1 2029.2 2178.6 Z M 1982.8 2589 1980.8 2676 2003.5 2676.6 2005.1 2583.1 1982.9 2583.1 1982.8 2589 Z" data-holc_grade="C"/>
<path d="M 1455.2 1834.3 1451.4 1796.2 1599.6 1796.7 1595.7 1728.3 1466.3 1727 1466.7 1656.4 1413.3 1655.6 1412.4 1621.1 1696.4 1624.1 1696.9 1756.4 1689 1780.7 1657.1 1813.4 1636.3 1825.8 1606.4 1831.7 1560.6 1831.7 1543.2 1832.2 1546.2 1866.4 1468.1 1864 1467.6 1834.2 1455.2 1834.3 Z" data-holc_grade="C"/>
<path d="M 286.8 227.3 287.8 227.3 289.1 153.5 299.1 135.3 311.5 115.9 322.2 93.1 324.9 81.8 323.1 69.2 319.2 58.5 309.7 47.6 299.2 40.8 259.2 41.6 231.2 43 212.9 46.4 261.1 29.2 283.3 32.3 318.3 17.9 335.8 21.8 345 21 372.1 14 392.2 11.8 412.3 17.5 423.2 43.2 434.1 68 442 71.9 452 65 460.8 49.8 459.9 34.9 460.8 10.1 477.8 1 492.2 1.4 516.3 14.1 525.9 30.6 536.8 43.7 544.7 53.3 549.9 68.9 549.9 82.4 545.1 95.9 531.5 108.1 525 112 517.5 131.2 513.6 148.6 510.1 171.7 507 200 507 215.2 510.5 244.8 515.3 278.3 517.5 297.1 512.2 313.6 502.6 331.9 489 338.8 462.8 343.6 454.2 351.5 445.1 361 442.2 376.1 442.2 398.4 440.1 415 437.5 441.4 287.2 442.2 286.8 227.3 Z" data-holc_grade="C"/>
</g>
<g id="D">
<path d="M 1993.8 1272.1 1909.6 1269.2 1909 1341.4 1911.6 1342.9 1905 1765.1 1860.9 1764.8 1860.3 1867.3 1905.1 1867.1 1905.6 1907.5 2152.5 1910.9 2151.4 1913.5 2215.5 1913.4 2216.6 1986.7 2276.2 1986.9 2276.5 2301.6 2282.6 2301.7 2282.2 2305.5 2150.8 2299.7 2143 2731.4 2073.9 2731.1 2073.9 2730.8 2078.7 2179.6 2054.7 2178.8 2029.2 2178.6 1999.5 2178.4 1988 2178.4 1902.7 2177.8 1903.1 2248.8 1903 2283.1 1857 2287.8 1856.6 2718.1 1856.6 2726.4 1856.6 2726.6 1283.9 2724.1 1285.4 2443.4 1641.3 2438.5 1716.4 2412.2 1715.5 2293 1711.9 2279.2 1575.8 2281.5 1576.6 1909.7 709.3 1900.5 703.7 2230.2 565.9 2225.7 566.4 2166.7 526.6 2165.2 530.1 2048.2 495.3 2044.7 497.4 1898.5 448.7 1897.8 448.4 1783.6 448.4 1783 1069.6 1790.6 1071.1 1655.8 899.4 1654.2 898.4 1721.1 688 1718.3 685.7 1647.9 526.8 1645.7 527.1 1718 446 1718.5 380.6 1718.9 380.3 1528.2 380.7 1528.2 451.2 1529.3 450.8 1566 845.2 1572 845.2 1597.2 901.9 1596.3 901.4 1572 999 1571 994 1536.8 1144.7 1540.3 1142.7 1620.1 1221.3 1621.1 1222.8 1602.3 1503.9 1603.3 1500.9 1579.5 1546.7 1578 1549.9 1334.4 1150.3 1330.2 1148.7 1311.8 1001.5 1310.8 999 1401 421.5 1397.9 422.5 1426.1 377.6 1431.8 378.7 1522.5 379.8 1523.9 292.5 1564.7 292.2 1493 149.6 1491 181.6 1420.1 226.9 1360.1 282.2 1311.6 331.9 1284.3 400.1 1259.1 444.9 1249.2 479.2 1231.9 551.3 1208.1 600.6 1185.3 653.8 1161.1 716 1132.4 764.3 1104.6 851.5 1074.9 909.8 1053 941.6 1036.2 1004.5 999.8 1005.3 1025.4 1719.8 1035 1717.9 1107.3 1774.3 1107.9 1773.2 1302.1 1859 1303.1 1862.1 943 2000.9 1269 1993.8 1269.2 1993.8 1272.1 Z M 1413.3 1655.6 1413.4 1659.3 1359.1 1658.3 1358.1 1796.1 1412.9 1794.6 1415.3 1834.7 1455.2 1834.3 1467.6 1834.2 1468.1 1864 1546.2 1866.4 1543.2 1832.2 1560.6 1831.7 1606.4 1831.7 1636.3 1825.8 1657.1 1813.4 1689 1780.7 1696.9 1756.4 1696.4 1624.1 1412.4 1621.1 1413.3 1655.6 Z" data-holc_grade="D"/>
<path d="M 3.3 619.9 143.2 621.7 142.3 694.9 3.7 694.8 3.3 619.9 Z" data-holc_grade="D"/>
</g>
</svg>