<?xml version="1.0"?>
<svg xmlns="http://www.w3.org/2000/svg" version="1.2" baseProfile="tiny" width="3000" height="2762" viewBox="0 0 3000 2762" stroke-linecap="round" stroke-linejoin="round">
<g id="A">
<path d="M 673.7 1488.2 682.5 1471.1 827.4 1390.9 835.6 1357.7 844.4 1350.7 860 1364.9 878.9 1364.9 885.4 1372.5 940.2 1452 908.9 1480.4 844.8 1512.8 792.3 1537.6 757.3 1544.7 731.9 1550.6 676 1558.4 672.6 1527.9 678.7 1510.1 673.7 1488.2 Z" data-holc_grade="A"/>
<path d="M 1084.3 1246.9 1089.5 1271.4 1097.8 1320.6 1062.2 1328.7 1013 1367.8 991.7 1389.6 975.1 1368 978.7 1363.3 938.6 1308 928.3 1281.1 944.4 1254.2 972.1 1245.2 1001 1258.7 1026.6 1263.7 1045.4 1264.9 1065.1 1257.3 1084.3 1246.9 Z" data-holc_grade="A"/>
<path d="M 1461.2 952.9 1457.8 957.3 1487.9 971.8 1531.6 1049.8 1533.8 1058 1526.3 1062.4 1483.5 1075 1475.9 1101.9 1461.1 1118.9 1453.8 1122 1442.7 1142.5 1424.3 1156 1395.9 1193.9 1365.5 1218.8 1322.9 1223.4 1283.8 1239.1 1275.5 1233.5 1274.5 1221 1271.8 1209.9 1276.2 1185.9 1248.8 1169.9 1228.3 1137.4 1217.8 1117.1 1211.6 1107.1 1193.8 1095.4 1183 1070.7 1196.9 1030.2 1214.6 1038.3 1293.6 1015 1290.8 998.1 1292.9 988 1298.3 975.5 1297.3 967.3 1307.7 957 1308.5 948.4 1306.6 924.5 1322.4 928.1 1340.3 923.1 1438 936.2 1461.2 952.9 Z" data-holc_grade="A"/>
<path d="M 1986.8 1337.2 1971.5 1346.6 1969 1342.3 1965.6 1336.3 1955.2 1318 1937.3 1286.7 1931.4 1273 1923.8 1222 1925.3 1197 2029.5 1202.7 2017.5 1244.6 1992.6 1248.2 1995 1273.4 2000.5 1314 1993.2 1333.2 1986.8 1337.2 Z" data-holc_grade="A"/>
<path d="M 2318.6 563.5 2428.9 471.2 2448.3 503.7 2459.4 526.7 2437.7 545.2 2430.6 554.1 2422 576.3 2409.2 603.3 2400.3 613.6 2390.9 623.3 2371.2 633.5 2361.1 627.9 2348.5 604.4 2318.6 563.5 Z" data-holc_grade="A"/>
<path d="M 2330.5 1070.7 2332.8 1045.7 2336.6 1005.3 2344.4 999.7 2350.9 978.3 2330.2 925.5 2325.2 925.1 2341.3 908.1 2403.1 863.2 2409.4 862.8 2442.9 911.1 2450.9 911.1 2477.4 893.9 2482.6 895.5 2484.6 897.4 2505.6 938.1 2521.6 963.2 2493.2 984.6 2495.7 989.5 2464.6 1015.3 2448.6 998.8 2416.9 1031.6 2417.6 1061.6 2425.7 1069.5 2423.6 1087.2 2406.9 1103.3 2407.1 1110.7 2377.6 1142.9 2341.3 1176 2325.2 1176 2312.8 1166.4 2322 1145.8 2330.2 1074.2 2330.5 1070.7 Z" data-holc_grade="A"/>
<path d="M 2895.1 1246.9 2905.3 1260.2 2890.7 1319.7 2883.4 1320.2 2874.5 1291.8 2862.9 1264 2853.8 1245.5 2832.7 1254.7 2758.3 1230.8 2749.2 1195.6 2744.1 1143.9 2767.8 1087 2771.6 1081.8 2790.8 1063.6 2782.2 1055.1 2755.8 1050.6 2744.6 1044.5 2726.9 1052.4 2671.6 1050 2645.5 1053.1 2629.7 1042.2 2602.7 996.6 2584.2 964.1 2604 947.3 2634.2 932.9 2646.2 957.2 2667.6 952 2710.8 935.2 2716.7 944.1 2781.3 913.6 2770.1 892.7 2733.7 869.7 2698.6 821 2681.5 757.3 2668.5 689.8 2727.9 630.7 2738.6 626.1 2744.2 591.5 2758.8 530.1 2772.4 488 2780.2 488 2791.3 436.2 2801.7 380.3 2806.2 347.4 2858.5 339.5 2880.7 380.3 2875.8 501.9 2896.3 489.2 2923.6 497.8 2931.6 535.8 2912.4 545.8 2917.2 594.4 2893.2 598.2 2890.9 650.6 2874.3 690.1 2916.8 728.7 2929.9 748.6 2924.3 768.5 2902.7 789.4 2935.7 885 2915.1 932.3 2867.6 958.4 2862.6 1016.6 2891.2 1059.8 2858.1 1085.2 2862.7 1116.3 2881.2 1183.2 2892.7 1201.6 2890.8 1224.9 2885.5 1237.3 2895.1 1246.9 Z M 2843.4 860.2 2853.5 891 2876.2 882.1 2869.8 864.2 2865.5 852.1 2843.4 860.2 Z" data-holc_grade="A"/>
</g>
<g id="B">
<path d="M 981 644.8 1034.5 680.6 1053.7 647.6 1094.6 673.9 1062.3 739.3 1053.6 771.3 1010.5 794.3 998.9 792.8 921.8 746 981 644.8 Z" data-holc_grade="B"/>
<path d="M 1969.9 1556.8 1979.2 1551.4 1993 1547.3 2006.8 1545.4 2031.5 1537.7 2038.2 1535.7 2051.9 1580.9 2033.4 1583 2024.5 1584.3 2012.9 1587.3 2006.5 1587.8 1998.6 1588.3 1977.5 1590.9 1969.9 1556.8 Z" data-holc_grade="B"/>
<path d="M 2162.3 754.9 2166.2 772.7 2136.3 794.4 2110.4 816.9 2079 851.6 2064.6 867.7 2018.1 900.1 1992.6 866.2 2009.1 855.5 2015.9 820.6 2016.5 809 2049.3 782.6 2028.9 758.1 2106.7 701.7 2113.7 696.6 2134.8 718.1 2160.5 746.6 2162.3 754.9 Z" data-holc_grade="B"/>
<path d="M 2247.1 630.7 2233.1 644.4 2186.4 673.7 2077.3 514.1 2102.1 496.2 2102.7 495.8 2101.9 486.4 2094.3 469.7 2124.2 430.7 2149.1 402 2237.9 512.7 2250.6 542.8 2256.3 571.3 2256.6 590.6 2247.1 630.7 Z" data-holc_grade="B"/>
<path d="M 2428.9 471.2 2318.6 563.5 2279.5 516.8 2275.4 506.4 2263.6 478.9 2259.3 458.4 2253.6 440.6 2246.3 432.8 2238.1 428.4 2178 356.9 2215.1 315.8 2252.2 277.1 2253.3 261.4 2253.8 254.1 2257.3 231.8 2268.1 212.2 2275.5 201.2 2295 200.1 2324 226.3 2347.2 203.9 2390.4 172.1 2384 164.9 2460.9 104.8 2502.6 160.6 2522.1 199.3 2522.8 208 2531.5 226 2535.1 250.9 2560.1 276.5 2569.7 332.4 2569.8 353.3 2428.9 471.2 Z" data-holc_grade="B"/>
<path d="M 2727.9 630.7 2668.5 689.8 2651.5 683.5 2631.9 684.5 2604.3 659.4 2588.5 638.4 2575.4 617.7 2553.3 601.7 2528.4 585.2 2506.8 575.7 2489.2 568.3 2475.5 567 2459.2 566.8 2443 574.9 2429.9 592.2 2427.6 599.8 2428.7 607.7 2435 620.6 2446 637.5 2452.3 651.4 2457.6 670 2461.6 727.8 2449.2 719.8 2430.4 715.3 2400.9 720.2 2394 729.3 2390.5 737.6 2398.5 749.6 2418.1 764.4 2444.8 786.8 2452.9 799.5 2458.7 803.1 2465.3 823.6 2481.1 834.4 2525.7 867.2 2549.9 893.6 2540.5 926.4 2524.4 915.8 2509.5 898.7 2489.7 880.5 2466 863.6 2455.9 854.9 2439.2 835.3 2431.6 822.4 2420.1 811.6 2400 793.8 2366.8 765.9 2354.3 746.7 2347 733.4 2287.5 774.2 2264.8 770 2240 737.6 2238.9 733.6 2214.8 708.7 2224.8 682 2241.6 645.6 2247.1 630.7 2277.7 605.4 2295.5 591.2 2303.8 588.5 2322.4 594.8 2343.2 611.1 2361.1 627.9 2371.2 633.5 2390.9 623.3 2400.3 613.6 2409.2 603.3 2422 576.3 2430.6 554.1 2437.7 545.2 2459.4 526.7 2464.6 522 2479.1 523 2507.1 533.8 2536.8 544.6 2556.1 552.8 2594.1 585.3 2613.5 606.7 2618.3 616 2623.8 623 2643.5 634.4 2656.2 642.2 2667.8 642.4 2695.6 632.7 2705 627.4 2716.9 617.4 2727.9 630.7 Z" data-holc_grade="B"/>
<path d="M 2403.1 863.2 2341.3 908.1 2325.2 925.1 2319.9 924.6 2301.8 895.6 2290.9 877 2253.8 888.5 2221.5 898 2198.2 908.6 2194.4 907.7 2182.7 865.4 2156.5 836.9 2173 817.7 2212.3 781.2 2235.3 780.4 2244 784 2258.8 789.7 2282.4 804.5 2295.3 814.4 2304.9 839.4 2314.8 854.6 2328 869.6 2342.3 877.6 2367 872.5 2381.4 860.3 2403.6 858.1 2403.1 863.2 Z" data-holc_grade="B"/>
<path d="M 2377.6 1142.9 2407.1 1110.7 2406.9 1103.3 2423.6 1087.2 2425.7 1069.5 2417.6 1061.6 2416.9 1031.6 2448.6 998.8 2464.6 1015.3 2495.7 989.5 2493.2 984.6 2521.6 963.2 2527.7 969.3 2527.5 981.8 2520 1013.1 2507.8 1043 2502.4 1086.3 2488.9 1099.7 2440.6 1144.8 2434.3 1146.9 2418 1160.4 2403.2 1162.3 2377.6 1142.9 Z" data-holc_grade="B"/>
<path d="M 2758.3 1230.8 2832.7 1254.7 2853.8 1245.5 2862.9 1264 2874.5 1291.8 2883.4 1320.2 2877.6 1324.7 2878.3 1331.8 2859.6 1397.4 2859.7 1408.2 2861.3 1424.9 2864.4 1435.6 2864.9 1448.8 2884.1 1459.6 2882.1 1471.5 2846.8 1479.8 2858.1 1490.1 2861.7 1495.6 2790.4 1524 2758.3 1445.5 2753 1445.9 2718.6 1449.9 2710.6 1449 2697.8 1445.3 2684.5 1436.9 2675.8 1427.1 2669 1408 2668.8 1395 2685.9 1383 2699.7 1379.2 2704.9 1373.8 2710.9 1372.9 2711.5 1366 2714 1360 2717.8 1355.4 2732.7 1349.4 2745.5 1345 2750.9 1339.6 2756.3 1312.5 2758.8 1285.4 2759.6 1260.2 2751.8 1240.7 2758.3 1230.8 Z" data-holc_grade="B"/>
<path d="M 232.8 2446.2 196.9 2402.1 201.1 2393.3 174.4 2359.7 204.9 2288.2 85.6 2350.2 68.2 2253.2 38.7 2156.9 76.8 2123 70.5 2109.5 158.3 2054 223.8 2123.2 268.7 2191.7 337.4 2301.5 232.8 2446.2 Z" data-holc_grade="B"/>
<path d="M 1506.8 675.7 1510.7 690.7 1516.1 712 1517.7 718 1455.8 746.4 1453.4 740 1446.3 746.2 1443 750.5 1442.9 785.3 1441.6 810.6 1439.4 856.4 1433.2 848.7 1423.5 849.9 1367.9 838.4 1359.6 833.6 1321.2 826.5 1332 758.3 1291 756 1292.6 725.2 1248 721.3 1235.2 724.4 1221.2 717 1212.7 710.9 1204.6 708.8 1191.3 701.3 1187.2 681.7 1187.9 659 1228.9 525.1 1232 510.1 1292.1 526.5 1413.9 631.2 1450.1 655.6 1474.7 668.9 1490.3 674.9 1506.8 675.7 Z" data-holc_grade="B"/>
<path d="M 1089.5 1271.4 1084.3 1246.9 1129 1237.1 1133.9 1242.3 1157.5 1237.5 1148.6 1200.1 1198.5 1190.7 1218.5 1278.8 1187.8 1284.1 1166.3 1294.1 1153.7 1260.9 1094.8 1270.8 1089.5 1271.4 Z" data-holc_grade="B"/>
<path d="M 1395.9 1193.9 1424.3 1156 1442.7 1142.5 1453.8 1122 1461.1 1118.9 1475.9 1101.9 1516.6 1129.6 1521.4 1139.7 1511 1190.1 1501.3 1205.7 1482.5 1229.2 1465 1248.3 1436.9 1231.3 1431.2 1230.3 1407.9 1207 1395.9 1193.9 Z" data-holc_grade="B"/>
<path d="M 1234.9 1304 1273.2 1300.7 1281 1362.2 1306.7 1397.9 1412.1 1362.9 1464.2 1349.3 1542.8 1355.3 1542.3 1369.5 1553.1 1399.9 1570.9 1427 1542.8 1437.2 1502.9 1433.6 1460.6 1456.1 1430.7 1442.5 1396.7 1447.1 1350.3 1465.7 1337.3 1447.5 1307.8 1463.3 1253.6 1390 1235.6 1349 1231.5 1331.4 1234.9 1304 Z" data-holc_grade="B"/>
<path d="M 1759.5 1182.8 1734 1201.4 1690.3 1228.9 1682 1213 1635 1122 1647.9 1114.3 1685.1 1091.9 1733.1 1157.1 1748.9 1146.4 1754 1150.4 1759.5 1182.8 Z" data-holc_grade="B"/>
<path d="M 2039.8 1126.8 2037.6 1176 2030.3 1176 2029.5 1202.7 1925.3 1197 1923.8 1222 1931.4 1273 1937.3 1286.7 1955.2 1318 1965.6 1336.3 1969 1342.3 1971.5 1346.6 1951.5 1354.6 1944.6 1349.2 1932.7 1339.9 1908.1 1320.8 1882.2 1262.4 1869.8 1216.5 1863.8 1163.3 1863.6 1162 1863.2 1158.5 1951 1143.8 1988.2 1128.7 2029.7 1132.9 2039.8 1126.8 Z" data-holc_grade="B"/>
<path d="M 1826.2 1582.4 1815.3 1565.5 1828.2 1556.9 1864.3 1532.6 1869.9 1528.9 1879.2 1547.8 1826.2 1582.4 Z" data-holc_grade="B"/>
<path d="M 1922.1 1749.7 1921 1757.2 1914.6 1757.8 1913 1774.8 1900 1777.4 1822 1829.7 1815.9 1825.1 1838.8 1765 1862.9 1772.7 1885.2 1765.6 1893.4 1754.3 1901.7 1711.3 1902.5 1689.3 1905.4 1612.4 1908.3 1578.5 1892 1578.4 1888.7 1569.9 1896.1 1558.2 1918.7 1557.4 1946 1556.7 1946.5 1579.6 1928.8 1583 1928.9 1610.6 1926.8 1711.9 1925.9 1720.4 1924.2 1736.1 1922.1 1749.7 Z" data-holc_grade="B"/>
</g>
<g id="C">
<path d="M 759.6 884.9 818.8 837.6 877.8 787.7 899.5 814.2 925.3 843.3 933.7 884.8 930.3 899.6 928.2 924.9 902.6 937.1 788.2 931.2 759.6 884.9 Z" data-holc_grade="C"/>
<path d="M 2106.7 701.7 2028.9 758.1 2049.3 782.6 2016.5 809 2017 800.4 2007 781.8 1999.9 766.5 2008.8 753.1 2009.4 732.4 2020.4 722.7 2021.2 715.7 2013.1 698 2009.1 679.4 2007.7 645.8 2025.3 631.8 2063.1 693.7 2087.9 674.2 2106.7 701.7 Z" data-holc_grade="C"/>
<path d="M 2247.1 630.7 2241.6 645.6 2224.8 682 2214.8 708.7 2204.2 722.8 2189.9 743.2 2132.9 681.2 2047.9 533 2077.3 514.1 2186.4 673.7 2233.1 644.4 2247.1 630.7 Z" data-holc_grade="C"/>
<path d="M 2325.2 925.1 2330.2 925.5 2350.9 978.3 2344.4 999.7 2336.6 1005.3 2327.5 1012 2309.6 995.7 2274.9 979.4 2268.8 984.9 2267.5 993.8 2259.4 1003.1 2247.6 1004.8 2253.8 1034.4 2177.7 1061.5 2133.3 1098.2 2112 1060.9 2064.2 1000.7 2047.7 973.4 2028.4 942.3 2015.5 910.3 2018.1 900.1 2064.6 867.7 2079 851.6 2110.4 816.9 2136.3 794.4 2166.2 772.7 2162.3 754.9 2178.2 767.9 2195.7 766.4 2212.3 781.2 2173 817.7 2156.5 836.9 2182.7 865.4 2194.4 907.7 2198.2 908.6 2221.5 898 2253.8 888.5 2290.9 877 2301.8 895.6 2319.9 924.6 2325.2 925.1 Z" data-holc_grade="C"/>
<path d="M 2330.5 1070.7 2311.1 1084.5 2297.7 1088.4 2271.9 1111.6 2213.8 1128 2202.4 1133.9 2193 1114 2193.5 1107 2332.8 1045.7 2330.5 1070.7 Z" data-holc_grade="C"/>
<path d="M 2253.3 261.4 2252.2 277.1 2215.1 315.8 2178 356.9 2165.8 337.4 2163.4 329.2 2229.4 233.8 2253.3 261.4 Z" data-holc_grade="C"/>
<path d="M 2531.5 226 2522.8 208 2522.1 199.3 2502.6 160.6 2460.9 104.8 2384 164.9 2390.4 172.1 2347.2 203.9 2324 226.3 2295 200.1 2275.5 201.2 2283 188.9 2295.4 171.7 2316.6 150.2 2351.5 117 2392.8 94.8 2419.1 84.9 2434.2 81.6 2438.2 83.9 2451 82.8 2453 76.7 2456.4 76.7 2497 83.6 2576.4 92.3 2616.8 96.5 2628.9 94.7 2634.6 96.6 2649.5 94.3 2663.5 139.5 2671.6 175.3 2637.3 183.8 2609.5 193.3 2549.9 217.2 2531.5 226 Z" data-holc_grade="C"/>
<path d="M 2890.7 1319.7 2905.3 1260.2 2895.1 1246.9 2939.4 1245.9 2989.4 1251.8 2996.9 1242.5 2999 1283.2 2992.3 1293.4 2986.7 1349.3 2985.7 1372.4 2971.8 1382.4 2956.3 1408.1 2909.4 1374.1 2891.3 1335.2 2890.7 1319.7 Z" data-holc_grade="C"/>
<path d="M 108.3 2606.2 72.9 2554 29 2504.4 1 2469.8 14.2 2451.5 97.3 2415 85.6 2350.2 204.9 2288.2 174.4 2359.7 201.1 2393.3 196.9 2402.1 232.8 2446.2 206.2 2484.3 144.3 2547.9 146.9 2557.4 108.3 2606.2 Z" data-holc_grade="C"/>
<path d="M 1094.6 673.9 1053.7 647.6 1034.5 680.6 981 644.8 1000.2 613.6 988 603.1 1036.1 536.7 1081.7 508.2 1164 499.1 1204.3 498.3 1199.9 539.4 1195.6 543.2 1155.1 603.4 1137 654.5 1116.5 688.6 1094.6 673.9 Z" data-holc_grade="C"/>
<path d="M 1739.1 722.6 1739 743.9 1736.5 765.5 1734.7 787.5 1695.5 824.7 1696 842.1 1670.8 863.9 1643.6 892.6 1624.9 915.7 1656 935.8 1687.6 902.4 1684.8 880.4 1746.1 829.8 1815.8 1162.3 1803.8 1150.6 1759.5 1182.8 1754 1150.4 1748.9 1146.4 1733.1 1157.1 1685.1 1091.9 1647.9 1114.3 1625.1 1069.7 1606.6 1035.1 1596.1 1038.2 1575.7 1053.8 1533.8 1058 1531.6 1049.8 1487.9 971.8 1457.8 957.3 1461.2 952.9 1475.5 934.6 1502.6 926.5 1499.8 916.6 1523.9 907.9 1519.7 888 1518.2 869.2 1517.1 858.8 1513.8 807.4 1506.7 789.6 1452 806.8 1441.6 810.6 1442.9 785.3 1443 750.5 1446.3 746.2 1453.4 740 1455.8 746.4 1517.7 718 1516.1 712 1597.6 713.1 1614.1 706.6 1665.4 708.9 1692.9 704.5 1698 730.4 1739.1 722.6 Z" data-holc_grade="C"/>
<path d="M 1875.1 779.4 1820.8 789.2 1812 783.7 1805.3 726.2 1812.7 698.8 1797 628.4 1863.7 609.9 1866.8 634 1858.3 671.4 1856.3 705.1 1875.1 779.4 Z" data-holc_grade="C"/>
<path d="M 1815.8 1162.3 1821.2 1167.5 1830.8 1166.4 1858.3 1162.7 1863.6 1162 1863.8 1163.3 1869.8 1216.5 1882.2 1262.4 1908.1 1320.8 1932.7 1339.9 1944.6 1349.2 1951.5 1354.6 1955.1 1367.8 1899.2 1390.3 1888.8 1395.2 1878.5 1400.1 1862 1408 1859.8 1409.1 1826.5 1377.7 1814.2 1373.4 1806.2 1361.5 1791.2 1353.3 1775 1341.4 1771.1 1320.5 1767 1311.9 1761.3 1290.8 1670.2 1365.4 1636 1387.2 1594.3 1293.5 1550.4 1318.7 1549.3 1312.4 1556 1290.1 1584.5 1261.6 1609.2 1250.3 1620.8 1239.2 1641.5 1234.3 1682 1213 1690.3 1228.9 1734 1201.4 1759.5 1182.8 1803.8 1150.6 1815.8 1162.3 Z" data-holc_grade="C"/>
<path d="M 2039.8 1126.8 2029.7 1132.9 1988.2 1128.7 1951 1143.8 1863.2 1158.5 1863.6 1162 1858.3 1162.7 1810.5 889.9 1841.9 881 1895.5 870.6 1905.1 870.8 1926.7 917.6 1947.5 1000.5 2021.7 1007.1 2039.5 1038.5 2039.8 1126.8 Z" data-holc_grade="C"/>
<path d="M 1869.9 1528.9 1864.3 1532.6 1828.2 1556.9 1815.3 1565.5 1815.7 1518.8 1763.4 1508.9 1695.9 1554.6 1668.3 1501.4 1750.5 1459.4 1859.8 1409.1 1862 1408 1878.5 1400.1 1888.8 1395.2 1890.7 1422.6 1902.3 1489.7 1903.1 1517.2 1869.9 1528.9 Z" data-holc_grade="C"/>
<path d="M 1969.9 1556.8 1957.2 1557.5 1946 1556.7 1918.7 1557.4 1896.1 1558.2 1888.7 1569.9 1892 1578.4 1908.3 1578.5 1905.4 1612.4 1902.5 1689.3 1901.7 1711.3 1893.4 1754.3 1885.2 1765.6 1862.9 1772.7 1838.8 1765 1838.3 1752.7 1884 1635.3 1887.7 1619.1 1815 1614.7 1754.3 1671.9 1655.6 1675.6 1637.2 1640.9 1717.1 1595.9 1704.1 1571.1 1735.4 1572.6 1792.1 1580.1 1826.2 1582.4 1879.2 1547.8 1869.9 1528.9 1903.1 1517.2 1902.3 1489.7 1890.7 1422.6 1888.8 1395.2 1899.2 1390.3 1955.1 1367.8 1951.5 1354.6 1971.5 1346.6 1986.8 1337.2 1996.3 1375.6 2006.4 1424.5 2015.6 1493.1 2018.7 1494 2038.2 1535.7 2031.5 1537.7 2006.8 1545.4 1993 1547.3 1979.2 1551.4 1969.9 1556.8 Z" data-holc_grade="C"/>
<path d="M 2051.9 1580.9 2071.2 1655.2 2004.8 1673.3 2010 1703.8 2064 1705.9 2062 1766.3 2066.8 1786.9 2079.3 1809.7 2101.9 1810.2 2090.3 1924.3 2030.2 1923.8 1950.1 1920.7 1856.6 1914 1828.8 1904.8 1776.9 1895 1776.1 1873.8 1784.9 1854.7 1886.4 1863.9 1916.9 1857.9 1926.3 1854.7 1933.5 1849.8 1938.5 1840.9 1944.9 1837.3 1955 1822.1 1956.3 1809.8 1960.6 1807.3 1961.5 1800.3 1959.7 1790 1962 1784 1958.4 1768.8 1949.3 1757.4 1942.7 1755.3 1931.3 1755.9 1926.4 1754 1922.1 1749.7 1924.2 1736.1 1925.9 1720.4 1926.8 1711.9 1928.9 1610.6 1928.8 1583 1946.5 1579.6 1946 1556.7 1957.2 1557.5 1969.9 1556.8 1977.5 1590.9 1998.6 1588.3 2006.5 1587.8 2012.9 1587.3 2024.5 1584.3 2033.4 1583 2051.9 1580.9 Z" data-holc_grade="C"/>
</g>
<g id="D">
<path d="M 1739.1 722.6 1698 730.4 1692.9 704.5 1665.4 708.9 1614.1 706.6 1597.6 713.1 1516.1 712 1510.7 690.7 1506.8 675.7 1608.4 676.8 1608.8 669.3 1666 665.2 1719.9 652.3 1741.7 722.1 1739.1 722.6 Z" data-holc_grade="D"/>
<path d="M 2843.4 860.2 2865.5 852.1 2869.8 864.2 2876.2 882.1 2853.5 891 2843.4 860.2 Z" data-holc_grade="D"/>
<path d="M 1841.9 881 1820.8 789.2 1875.1 779.4 1928.7 850.5 1957 890.1 2042.6 1009.8 2052.7 1035.9 2061.4 1057.4 2057.3 1116.9 2061.5 1126.4 2039.8 1126.8 2039.5 1038.5 2021.7 1007.1 1947.5 1000.5 1926.7 917.6 1905.1 870.8 1895.5 870.6 1841.9 881 Z" data-holc_grade="D"/>
<path d="M 2149.1 402 2124.2 430.7 2094.3 469.7 2101.9 486.4 2102.7 495.8 2102.1 496.2 2077.3 514.1 2047.9 533 1994.8 567.1 2025.3 631.8 2007.7 645.8 2009.1 679.4 2013.1 698 2021.2 715.7 2020.4 722.7 2009.4 732.4 2008.8 753.1 1999.9 766.5 2007 781.8 2017 800.4 2016.5 809 2015.9 820.6 2009.1 855.5 1992.6 866.2 1978.9 875.1 1897.4 741.8 1891.4 708.2 1896 685.4 1906.8 649.1 1929.7 582.4 1970.2 544.8 2010.7 509 2053 469.7 2084 435.9 2127.5 384 2149.1 402 Z" data-holc_grade="D"/>
<path d="M 2649.5 94.3 2634.6 96.6 2628.9 94.7 2616.8 96.5 2576.4 92.3 2497 83.6 2456.4 76.7 2453 76.7 2451 82.8 2438.2 83.9 2434.2 81.6 2419.1 84.9 2392.8 94.8 2351.5 117 2316.6 150.2 2295.4 171.7 2283 188.9 2275.5 201.2 2268.1 212.2 2257.3 231.8 2253.8 254.1 2253.3 261.4 2229.4 233.8 2227 226 2250.2 183 2270.4 154.9 2282.4 135.6 2294.2 121.8 2306.4 107.2 2314.4 100.7 2322.4 93.3 2337.6 82.1 2339.9 83.7 2355.8 69.8 2375.9 53 2378.5 53.4 2395.8 40.5 2399.2 38 2413.5 33.5 2422.1 27.2 2429.7 25.7 2440 21.2 2454.9 13 2463.5 8.5 2469 6.3 2482 1 2510.6 1.5 2525.8 2.3 2537.8 3.5 2539.9 2.8 2548.9 4.8 2573.1 6.7 2574.8 13 2586.7 14.8 2607.9 17.9 2617.7 21.5 2621.1 22.8 2627.5 38 2632.6 50.2 2633.8 52.6 2637.2 52.6 2641.8 65.4 2646.8 84.5 2649.5 94.3 Z" data-holc_grade="D"/>
<path d="M 108.3 2606.2 146.9 2557.4 144.3 2547.9 206.2 2484.3 232.8 2446.2 262.8 2477.5 280.8 2507.4 248.9 2658.5 171.1 2761.5 108.3 2606.2 Z" data-holc_grade="D"/>
</g>
</svg>