<?xml version="1.0"?>
<svg xmlns="http://www.w3.org/2000/svg" version="1.2" baseProfile="tiny" width="3000" height="3359" viewBox="0 0 3000 3359" stroke-linecap="round" stroke-linejoin="round">
<g id="A">
<path d="M 579.2 2021.6 601.2 2016.8 632.7 2010.4 664.2 2000.8 689 1994.3 713.8 1991.1 726.3 1991.1 726.3 2018.7 717.7 2017.3 701.1 2015.4 692.5 2015.4 700 2038.5 679.9 2041.8 679.4 2044.7 682.2 2055.8 684 2066.4 681.1 2076.5 675.4 2086.2 671.4 2091 656.5 2101.6 646.2 2107.3 635.3 2110.2 622.1 2113.6 607.8 2116.5 595.8 2119.4 582 2122.3 579.7 2116 579.2 2103.5 578.6 2093.9 578 2082.8 576.9 2072.7 578 2061.1 578.6 2047.6 579.2 2036.5 579.2 2021.6 Z" data-holc_grade="A"/>
<path d="M 1146.7 121 1335.4 124.9 1343.7 77.9 1353.7 1 1427 4.8 1486.6 5.6 1534.2 6.4 1622.2 7.2 1624 22.5 1623.1 38.7 1623.1 54.1 1621.3 94.1 1571.8 93.3 1522.3 93.3 1461.9 91.8 1428 92.6 1428 127.2 1426.1 192.6 1462.8 192.6 1504 191.1 1543.4 188.8 1547.1 219.5 1548.9 243.4 1549.8 266.5 1551.7 287.3 1503.1 285.7 1426.1 288 1424.3 362.7 1393.1 363.4 1347.3 364.2 1315.3 364.2 1268.5 362.7 1241 361.9 1207.1 361.1 1181.5 361.9 1157.7 361.1 1132 349.6 1136.6 330.4 1139.3 295 1144.8 271.1 1144.8 231.1 1146.7 198 1146.7 150.3 1143 134.9 1146.7 121 Z" data-holc_grade="A"/>
<path d="M 1067.1 1977.7 1073.8 1982 1082.3 1989.4 1089.3 1997.8 1091.9 2001 1079.5 2007.4 1071.5 2012.3 1069 2013.8 1062.7 2024.6 1059.5 2029.9 1058.2 2035 1055.7 2045.1 1054.7 2050 1052.5 2059.9 1050.9 2067.6 1027 2067.6 1011.8 2070 987 2078.1 938.3 2080.5 911.6 2080.5 903 2085.3 893.4 2093.3 888.6 2100.5 888.6 2112.6 888.6 2120.6 860 2121.4 828.5 2123 799.9 2123 771.2 2122.2 740.7 2119 739.5 2106.4 739.5 2100.1 739.5 2095.3 738.9 2088.1 734.4 2088.6 728.1 2090.5 724 2090.5 726.3 2080.9 726.9 2071.2 723.5 2066.4 723.5 2060.1 723.5 2057.3 724 2053.9 729.8 2049.5 735.5 2043.8 738.9 2036.5 745.8 2031.2 748.1 2027.4 750.4 2022.6 754.4 2017.3 758.4 2014.9 769.3 2014.4 777.9 2013.9 787 2012.9 795.6 2012 796.8 1995.1 802.5 1993.1 810.2 1990.3 819.7 1985.9 827.4 1982.3 834.5 1977.4 840.7 1973.2 847.4 1968.6 855 1963.9 862.7 1959 867.1 1957.3 873.4 1954.9 879.2 1952.6 885.6 1950.2 893.9 1948.2 902.8 1946.2 912.4 1945.4 921.9 1944.6 931.5 1945.2 944.8 1946.2 957.3 1943 966.7 1940.6 975.4 1937.8 982 1935.7 987.7 1930.1 997.8 1931.6 1012.1 1933.5 1025.8 1940.7 1033.9 1950.3 1040.2 1965.3 1044.2 1973.5 1050.5 1978.3 1067.1 1977.7 Z" data-holc_grade="A"/>
<path d="M 2882.2 1020 2906.2 1037.4 2929.1 1051.8 2946.3 1066.2 2964.6 1080.7 2981.8 1094.2 2999 1109.6 2989.8 1123 2984.1 1135.5 2977.2 1148.1 2963.5 1156.7 2950.9 1172.1 2931.4 1187.5 2924.6 1198.1 2913.1 1214.5 2885.6 1227 2866.1 1239.5 2849 1251.1 2830.6 1265.5 2805.4 1280.9 2772.2 1305.9 2759.6 1298.2 2734.4 1279 2710.4 1260.7 2720.7 1229.9 2728.7 1205.8 2703.5 1182.7 2711.5 1176 2734.4 1170.2 2756.2 1155.8 2773.4 1138.4 2792.8 1115.3 2816.9 1087.4 2838.7 1063.4 2855.8 1044.1 2882.2 1020 Z" data-holc_grade="A"/>
<path d="M 2559.9 1297.9 2548.9 1289.9 2531.3 1277.1 2507.4 1262.6 2480.7 1253 2453 1249.8 2441.8 1251.6 2428.2 1253.8 2422.5 1256.2 2410.7 1246.8 2401.9 1239.7 2381.4 1223.3 2385.2 1192 2391.9 1173.6 2390 1153.5 2387.1 1154.3 2379.5 1158.3 2366.2 1170.4 2316.5 1172 2307.9 1160.8 2302.2 1154.3 2290.7 1154.3 2282.2 1158.3 2275.5 1168 2265.9 1179.2 2250.7 1185.6 2250.9 1169.2 2251.2 1149 2251.4 1136.4 2251.7 1115.3 2251.8 1103.7 2252.2 1080.6 2252.6 1054.1 2415.8 1058.9 2421.5 1054.9 2467.3 966.6 2537 997.1 2531.3 965 2577.1 973.9 2582.8 1001.1 2588.5 1012.4 2589.5 1027.6 2595.2 1045.2 2602.9 1082.1 2609.5 1103 2616.2 1123.9 2626.7 1158.3 2631.5 1180.8 2629.6 1195.2 2624.8 1212.1 2620 1228.1 2620 1245.8 2602.9 1255.4 2590.4 1265 2573.3 1284.3 2559.9 1297.9 Z" data-holc_grade="A"/>
<path d="M 2212.1 1207.7 2211 1215.4 2172.1 1251.1 2144.6 1279 2119.4 1295.3 2094.2 1315.6 2072.4 1295.3 2054.1 1281.9 2041.5 1267.4 2066.7 1247.2 2083.9 1230.8 2105.6 1219.3 2113.6 1209.7 2115.2 1197.6 2115.9 1188.5 2137.7 1190.4 2155.8 1189.5 2174.3 1188.5 2188.1 1188.5 2208.7 1188.5 2210.6 1199.2 2212.1 1207.7 Z" data-holc_grade="A"/>
<path d="M 2251.2 1021.8 2204.1 1022.4 2191.7 1022.6 2170.9 1022.6 2143.4 1022.6 2129.3 1022.6 2098.2 1022.6 2069.8 1021.1 2048.4 1021.1 2032.3 1021.1 2003.8 1021.1 1979.1 1021.1 1966.9 1020.7 1949.8 1020.3 1931.5 1020.3 1915.9 1020.3 1903.3 1020.8 1878.3 1021.8 1846.6 1021.4 1826.1 1021.1 1811.1 1020.9 1793.9 1020.6 1770.2 1020.3 1740.8 1017.2 1756.4 988 1760.1 976.4 1767.4 964.1 1776.6 949.5 1782.1 934.8 1785.7 923.3 1791.2 909.4 1802.2 902.5 1817.8 878.6 1821.5 865.5 1837.1 844 1847.8 829.6 1852.6 823.2 1908.5 827 1955.3 827 2005.6 827 2058.8 825.5 2112.9 826.3 2190.7 827.8 2243.9 828.6 2245.7 843.2 2247.5 864 2247.5 898.6 2250.3 938.7 2253 952.5 2254 975.6 2251.2 1021.8 Z" data-holc_grade="A"/>
<path d="M 1483.7 890.1 1483.7 920 1483.7 935.4 1489.4 963.3 1497.4 980.6 1505.5 996 1510 995 1526.1 968.1 1532.7 965.6 1527.2 971 1521.5 985.4 1515.8 996.9 1511.2 1007.5 1504.3 1025.8 1510 1031.6 1513.5 1027.7 1514.6 1019.1 1519.2 1008.5 1522.6 999.8 1528.4 991.2 1534.1 984.4 1537.5 971.9 1534.4 965 1536.4 964.2 1542.1 971 1539.8 983.5 1535.2 999.8 1527.2 1012.3 1524.9 1026.8 1522.6 1035.4 1499.7 1046 1490.6 1054.7 1494 1066.2 1500.9 1089.3 1508.9 1105.7 1507.8 1123 1511.2 1136.5 1516.9 1147.1 1527.2 1159.6 1538.3 1178.1 1534.5 1185.7 1527.3 1199.7 1518.8 1211.1 1509.9 1222.8 1504.7 1225.5 1498 1229 1490.7 1233.6 1487 1243.6 1479.7 1258.2 1473.3 1269 1465 1283.6 1452.8 1274.2 1441.2 1262.1 1441.9 1252.2 1443.1 1234 1444.5 1212.9 1445.8 1192.8 1447.2 1170.4 1448.5 1150.4 1448.5 1125.9 1448.5 1110.4 1448.4 1097 1448.1 1078.7 1447.8 1059.4 1447.6 1044.2 1431.2 1043.7 1418.3 1043.4 1418.3 1038.8 1397.7 1038.9 1373.7 1039.1 1361.1 1039.2 1332.4 1039.4 1309.3 1039.5 1287.7 1055.4 1272.6 1066.5 1264.4 1085.7 1248.6 1097.9 1230.6 1083.6 1215.1 1072.9 1218.1 1041.3 1221.3 1007 1223.1 987.2 1211.8 979.1 1195.2 967.3 1181.3 957.4 1169.1 948.7 1173.3 925.7 1173.3 900.7 1175.9 880 1214.4 880.5 1239.9 880.8 1260 881.7 1286.4 882.8 1297.2 883.2 1306.9 883.7 1329.6 884.8 1352.4 883.6 1374.5 882.4 1374.8 861.3 1375.1 842 1375.4 824.7 1397.9 823.4 1418.4 822.3 1416.8 839.2 1415 858.4 1415.7 876.5 1416.1 889.2 1448.2 890.1 1483.7 890.1 Z M 1468.8 1022.9 1476.8 1034.5 1480.3 1031.6 1478 1012.3 1474.5 992.1 1466.5 974.8 1458.5 957.5 1451.6 930.5 1450.5 901.7 1444.8 906.5 1443.6 921.9 1441.3 931.5 1440.2 941.1 1437.9 948.8 1439 957.5 1442.5 966.1 1447 975.8 1448.2 982.5 1444.8 994.1 1445.9 999.8 1459.6 1000.8 1460.8 1006.6 1464.2 1011.4 1468.8 1022.9 Z M 1491.7 1041.2 1480.3 1047 1472.2 1041.2 1468.8 1056.6 1473.4 1073 1481.4 1086.5 1488.3 1096.1 1497.4 1095.1 1488.3 1079.7 1483.7 1070.1 1480.3 1059.5 1486 1050.8 1491.7 1041.2 Z M 1506.6 1155.8 1511.2 1164.4 1521.5 1160.6 1519.2 1151.9 1513.5 1142.3 1508.9 1131.7 1504.3 1119.2 1499.7 1102.8 1491.7 1102.8 1494 1115.3 1498.6 1126.9 1500.9 1141.3 1506.6 1155.8 Z M 1445.9 1264.5 1451.6 1267.4 1459.6 1259.7 1466.5 1244.3 1473.4 1236.6 1478 1227 1483.7 1218.3 1495.2 1206.8 1505.5 1196.2 1516.9 1186.6 1519.2 1169.2 1511.2 1170.2 1510 1185.6 1506.6 1191.4 1498.6 1201 1488.3 1205.8 1480.3 1213.5 1473.4 1221.2 1460.8 1233.7 1451.6 1248.2 1445.9 1264.5 Z" data-holc_grade="A"/>
<path d="M 1344.9 584.9 1433.6 587.3 1539.6 587.3 1645.5 588.1 1656.9 588 1653.2 612.2 1650.3 636.2 1650.3 653.1 1650.3 679.5 1648.4 694 1599.7 693.2 1557.7 695.6 1555.8 708.4 1538.9 708.9 1527.2 709.2 1523.4 717.2 1511.2 717 1498.6 716.7 1486.1 716.4 1479.5 725.3 1478.5 739.7 1465.1 740.5 1464.4 756.1 1463.9 768.6 1463.2 782.2 1448 790.2 1433.8 794 1421.2 797.4 1419.5 812.3 1418.4 822.3 1397.9 823.4 1375.4 824.7 1375.1 842 1374.8 861.3 1374.5 882.4 1352.4 883.6 1329.6 884.8 1306.9 883.7 1297.2 883.2 1286.4 882.8 1260 881.7 1239.9 880.8 1214.4 880.5 1175.9 880 1175.9 863.2 1176.9 846.3 1175 831.9 1148.3 833.5 1148.3 808.7 1144.4 771.8 1143.5 748.5 1143.5 734.9 1145.4 712.4 1146.4 688.4 1180.7 686.8 1225.6 684.4 1263.7 682 1264.7 660.3 1269.5 621.8 1274.2 609 1277.1 587.3 1311.5 587.3 1344.9 584.9 Z" data-holc_grade="A"/>
<path d="M 1804.9 559.3 1782 560.1 1764.3 560.1 1747.7 560.1 1725.4 560.1 1701.8 560.1 1702.3 571.6 1702.8 587.3 1686.5 587.6 1656.9 588 1645.5 588.1 1539.6 587.3 1433.6 587.3 1344.9 584.9 1345.8 515.2 1419.3 516 1418.4 459 1460.4 442.2 1559.6 439 1640.8 439 1749.6 441.4 1753.4 451 1758.2 480.7 1777.2 481.5 1804 483.9 1806.8 509.6 1804.9 526.4 1804.9 559.3 Z" data-holc_grade="A"/>
</g>
<g id="B">
<path d="M 958.3 2169.6 958.3 2131 948.8 2128.6 948.8 2108.6 920.1 2109.4 924 2131 920.1 2131.8 911.6 2132.6 915.4 2151.1 882 2152.7 862.9 2154.3 822.8 2155.9 822.8 2165.6 799.9 2188 816.1 2203.3 817.1 2228.2 817.1 2261.1 817.1 2282.8 817.1 2311.7 803.7 2306.8 793.4 2302.5 777 2295.6 758.6 2287.9 742.6 2281.1 722.4 2273.7 705.4 2267.5 705.7 2255.5 706 2246.7 706.3 2233.8 697.8 2216.9 699.3 2203.1 700.6 2191.2 701.1 2186.2 702.9 2167.8 703.5 2161.5 702.2 2140.5 701.6 2130.2 709.2 2126.2 739.8 2125.4 740.7 2119 771.2 2122.2 799.9 2123 828.5 2123 860 2121.4 888.6 2120.6 888.6 2112.6 888.6 2100.5 893.4 2093.3 903 2085.3 911.6 2080.5 938.3 2080.5 987 2078.1 1011.8 2070 1027 2067.6 1050.9 2067.6 1058.5 2067.6 1052.8 2080.5 1045.2 2094.9 1033.7 2112.6 1031.8 2128.6 1030.9 2146.3 1029 2178.4 1003.2 2176 976.5 2175.2 958.3 2169.6 Z" data-holc_grade="B"/>
<path d="M 2251.2 1021.8 2252.6 1054.1 2252.2 1080.6 2251.8 1103.7 2251.7 1115.3 2251.4 1136.4 2251.2 1149 2250.9 1169.2 2250.7 1185.6 2249.9 1207.7 2220.2 1204.9 2212.1 1207.7 2210.6 1199.2 2208.7 1188.5 2188.1 1188.5 2174.3 1188.5 2155.8 1189.5 2137.7 1190.4 2115.9 1188.5 2115.2 1197.6 2113.6 1209.7 2105.6 1219.3 2083.9 1230.8 2066.7 1247.2 2041.5 1267.4 2054.1 1281.9 2072.4 1295.3 2094.2 1315.6 2117.4 1334.5 2100.9 1346.8 2076.2 1368.4 2047.8 1386.8 2027.6 1402.3 1999.2 1424.6 1975.4 1408.4 1943.3 1378.4 1909.4 1347.6 1866.4 1310.6 1930.5 1261.3 1894.8 1233.6 1895.7 1160.4 1850.8 1160.4 1850.8 1122.7 1767.4 1121.9 1755.5 1115 1717 1059.6 1740.8 1017.2 1770.2 1020.3 1793.9 1020.6 1811.1 1020.9 1826.1 1021.1 1846.6 1021.4 1878.3 1021.8 1903.3 1020.8 1915.9 1020.3 1931.5 1020.3 1949.8 1020.3 1966.9 1020.7 1979.1 1021.1 2003.8 1021.1 2032.3 1021.1 2048.4 1021.1 2069.8 1021.1 2098.2 1022.6 2129.3 1022.6 2143.4 1022.6 2170.9 1022.6 2191.7 1022.6 2204.1 1022.4 2251.2 1021.8 Z M 1980.8 1159.6 1957.9 1160.6 1953.3 1197.2 1954.4 1223.1 1955.6 1243.4 1967 1246.2 1981.9 1243.4 1981.9 1231.8 1983.1 1198.1 1983.1 1179.8 1980.8 1159.6 Z" data-holc_grade="B"/>
<path d="M 1441.2 1262.1 1426.6 1247.5 1393.6 1271.3 1422.9 1299.1 1420.1 1312.9 1358.8 1267.5 1386.2 1243.6 1411 1222.8 1388.1 1202.8 1367.9 1221.3 1330.3 1249 1279 1206.6 1267.1 1215.1 1209.4 1174.3 1210.3 1152 1211.7 1126.5 1248.6 1097.9 1264.4 1085.7 1272.6 1066.5 1287.7 1055.4 1309.3 1039.5 1332.4 1039.4 1361.1 1039.2 1373.7 1039.1 1397.7 1038.9 1418.3 1038.8 1418.3 1043.4 1431.2 1043.7 1447.6 1044.2 1447.8 1059.4 1448.1 1078.7 1448.4 1097 1448.5 1110.4 1448.5 1125.9 1448.5 1150.4 1447.2 1170.4 1445.8 1192.8 1444.5 1212.9 1443.1 1234 1441.9 1252.2 1441.2 1262.1 Z" data-holc_grade="B"/>
<path d="M 1847.8 829.6 1837.1 844 1821.5 865.5 1805.9 880.2 1788.5 894 1769.2 914.8 1749.3 930.3 1733.5 942.5 1718.9 955.1 1695 975.6 1674.9 994.9 1642.8 1023.4 1619 1041.1 1607.1 1051.1 1601.1 1061.2 1595.2 1071.1 1581.4 1098.1 1569.5 1124.2 1558.4 1143.8 1550.3 1158.1 1538.3 1178.1 1527.2 1159.6 1516.9 1147.1 1511.2 1136.5 1507.8 1123 1508.9 1105.7 1500.9 1089.3 1494 1066.2 1490.6 1054.7 1499.7 1046 1522.6 1035.4 1524.9 1026.8 1527.2 1012.3 1535.2 999.8 1539.8 983.5 1542.1 971 1536.4 964.2 1534.4 965 1534.1 964.2 1532.7 965.6 1526.1 968.1 1510 995 1505.5 996 1497.4 980.6 1489.4 963.3 1483.7 935.4 1483.7 920 1483.7 890.1 1503.2 890.1 1503.2 878.6 1503.2 859.3 1502 838.2 1502 820.8 1482.6 817.9 1484.8 797.7 1496.3 788.1 1506.6 774.6 1508.9 766.9 1510 759.2 1538.7 760.2 1558.1 759.2 1557 742.9 1555.9 727.5 1555.8 708.4 1557.7 695.6 1599.7 693.2 1648.4 694 1650.3 679.5 1650.3 653.1 1650.3 636.2 1653.2 612.2 1656.9 588 1686.5 587.6 1702.8 587.3 1702.3 571.6 1701.8 560.1 1725.4 560.1 1747.7 560.1 1764.3 560.1 1782 560.1 1804.9 559.3 1825 562.9 1825 585.1 1833 587 1836.5 590.8 1878.8 588 1925.8 586 1929.2 645.7 1928.1 678.4 1904 723.6 1883.4 758.3 1862.8 800.6 1847.8 829.6 Z M 1699 681.3 1697.9 719.8 1694.4 760.2 1696.7 791 1697.9 824.7 1732.2 824.7 1788.4 825.6 1784.9 812.2 1784.9 785.2 1780.3 750.6 1782.6 706.3 1765.5 706.3 1762 660.1 1699 660.1 1699 681.3 Z" data-holc_grade="B"/>
<path d="M 1052.7 1033.4 1070.1 1047.2 1076.5 1051.1 1091.2 1058.8 1112.3 1062.6 1163.6 1100.4 1163.6 1108.8 1162.7 1116.5 1141.6 1135 1124.2 1151.2 1112.3 1162.7 1100.4 1152.7 1088.4 1142.7 1077.5 1140.4 1062.8 1145.8 1047.2 1151.2 1038.1 1152 1013.3 1131.9 995 1115.8 978.5 1098.1 997.7 1084.2 982.2 1068.8 978.5 1061.1 1003.2 1044.9 948.3 999.5 971.2 980.3 991.3 962.5 1001.4 954.1 1010.6 949.5 1024.3 957.2 1050.9 981 1028.9 1003.4 1043.6 1026.4 1052.7 1033.4 Z" data-holc_grade="B"/>
<path d="M 470.9 843.2 500.2 816.3 524.9 797.8 579.9 757.7 589.1 761.6 612.9 770.8 636.7 782.4 645 783.2 660.5 791.6 681.6 804.7 697.2 820.1 721 840.1 738.4 856.3 759.5 877.8 753.1 883.2 739.3 887.9 730.2 895.6 714.6 908.6 697.2 923.3 669.7 941.8 639.5 911.7 625.7 911.7 603.7 908.6 579 903.3 543.3 894 529.5 886.3 470.9 843.2 Z" data-holc_grade="B"/>
<path d="M 848.4 593.8 841.1 508.3 890.5 465.2 901.5 452.9 920.8 442.1 935.4 420.6 977.6 420.6 1009.6 449.1 1040.8 479.1 1043.6 492.9 1049 498.3 1046.3 512.2 1046.3 593.8 848.4 593.8 Z" data-holc_grade="B"/>
<path d="M 549.8 2165.6 559.9 2160.3 578.2 2158.4 598.8 2156.5 612.6 2154.9 613.3 2146.5 610.7 2134 620.4 2132.6 626.2 2171.2 626.2 2215.3 594.7 2224.1 582.3 2267.5 581.3 2299.6 575.6 2319.7 577.5 2347 516.4 2344.6 461 2343.8 427.6 2343 397.1 2341.4 396.1 2321.3 395.2 2302.8 415.2 2294 435.3 2282.8 450.6 2276.3 474.4 2269.1 493.5 2263.5 529.8 2254.7 544.1 2254.7 544.1 2222.5 549.8 2165.6 Z" data-holc_grade="B"/>
<path d="M 379 2473.8 400.9 2469 418.1 2468.2 437.2 2468.2 455.3 2465.8 472.5 2465.8 497.3 2465.8 513.5 2465.8 536.5 2467.4 567 2466.6 587 2465.8 602.3 2466.6 616.6 2468.2 629 2468.2 627.1 2506.7 626.2 2534.8 625.2 2554.9 625.2 2571.8 616.6 2573.4 579.4 2574.2 567.9 2577.4 540.3 2579.8 518.3 2580.6 490.6 2580.6 447.7 2579 434.3 2579.8 413.3 2579.8 401.9 2578.2 392.3 2580.6 379 2583 379 2473.8 Z" data-holc_grade="B"/>
<path d="M 841.9 2597.5 827.5 2597.3 812.2 2597.1 797.9 2596.9 779.8 2596.7 778.3 2589.1 777 2582.2 777.4 2575.4 777.9 2565.4 777.9 2549.3 777.9 2532.4 778.9 2512.4 793.6 2507.3 804.7 2503.5 821.8 2498.7 841.9 2492.3 841.9 2597.5 Z" data-holc_grade="B"/>
<path d="M 1272.3 2750.8 1261.8 2752.5 1230.3 2717.1 1208.4 2695.4 1153 2695.4 1113.9 2694.6 1079.5 2693 1025.1 2692.2 987.9 2692.2 987.9 2676.2 995.5 2662.5 1005.1 2647.3 1012.7 2635.2 1011.8 2620 1014.6 2614.3 1032.8 2597.5 1043.3 2583.8 1049 2572.6 1051.9 2562.9 1055.7 2554.9 1067.1 2538.1 1072.9 2528.4 1086.2 2518.8 1104.4 2513.2 1121.5 2513.2 1121.5 2500.3 1124.4 2485.1 1137.8 2480.2 1145.1 2474.4 1152.8 2468.1 1161.6 2461 1172.2 2453.2 1174 2536.5 1206.5 2536.5 1249.4 2535.6 1274.2 2536.5 1274.2 2557.3 1277.1 2594.3 1278.1 2628 1276.2 2659.3 1274.2 2679.4 1273.3 2718.7 1272.3 2750.8 Z" data-holc_grade="B"/>
<path d="M 1647.4 2585.4 1621.7 2595.9 1608.3 2602.3 1595.9 2611.9 1578.7 2617.5 1563.5 2625.6 1544.4 2633.6 1523.4 2641.6 1509 2644.8 1490 2614.3 1481.4 2599.1 1472.8 2573.4 1500.5 2559.7 1517.6 2551.7 1531 2544.5 1547.2 2536.5 1563.5 2530 1581.6 2525.2 1589.2 2520.4 1599.7 2516.4 1605.4 2518 1613.1 2546.1 1624.5 2556.5 1632.2 2571 1647.4 2585.4 Z" data-holc_grade="B"/>
<path d="M 2811.7 1761.5 2829.2 1767.3 2847.6 1774.4 2875.8 1784.6 2900.2 1793 2916.3 1799.4 2931.5 1807.8 2936.9 1814.2 2931.5 1828.9 2927.7 1839.9 2923.1 1848.8 2923.9 1860.4 2924.7 1872 2925.4 1889.3 2916.3 1895.7 2912.5 1904.7 2904.1 1914.3 2899.5 1923.3 2895.7 1936.8 2887.3 1947.1 2874.3 1964.4 2865.1 1977.9 2853.7 1975.3 2843 1969.5 2830 1965.7 2813.2 1964.4 2800.2 1963.1 2789.5 1961.8 2777.3 1960.6 2780.4 1947.7 2781.9 1925.9 2778.1 1916.3 2780.4 1906.6 2786.5 1898.3 2790.3 1872.6 2785.7 1870.7 2772 1870.7 2754.4 1871.3 2739.1 1871.3 2725.4 1870.7 2708.6 1868.7 2720.8 1855.3 2732.3 1843.7 2749.1 1826.4 2759 1819.3 2768.9 1803.9 2776.5 1793.6 2783.4 1784.6 2794.9 1771.8 2800.2 1764.7 2811.7 1761.5 Z" data-holc_grade="B"/>
<path d="M 2497.7 1612.5 2497.7 1648 2497.7 1653.4 2495.9 1663.4 2452.8 1663.4 2385.9 1663.4 2385.9 1658 2385.9 1626.4 2386.8 1574 2388.7 1548.6 2388.7 1543.2 2388.7 1527.8 2388.7 1522.4 2450 1522.4 2515.1 1521.6 2551.7 1520.9 2576.5 1520.9 2571 1543.2 2568.2 1564.8 2563.7 1609.4 2497.7 1607.1 2497.7 1612.5 Z" data-holc_grade="B"/>
<path d="M 2401.9 1239.7 2410.7 1246.8 2422.5 1256.2 2428.2 1253.8 2441.8 1251.6 2453 1249.8 2480.7 1253 2507.4 1262.6 2531.3 1277.1 2548.9 1289.9 2559.9 1297.9 2559.2 1310.7 2552.3 1319.4 2535.1 1331 2523.7 1343.5 2505.4 1359.8 2490.5 1374.3 2467.6 1395.5 2456.5 1407.6 2451.9 1400.7 2433.5 1390.7 2411.6 1386.8 2396 1371.4 2383.2 1362.2 2350.2 1332.9 2342.8 1335.2 2326.3 1322.9 2286.9 1296 2250.3 1325.2 2215.5 1354.5 2173.9 1382.3 2170.4 1379.3 2162.3 1372.2 2154.1 1366 2136.7 1353 2117.4 1334.5 2094.2 1315.6 2119.4 1295.3 2144.6 1279 2172.1 1251.1 2211 1215.4 2212.1 1207.7 2220.2 1204.9 2249.9 1207.7 2275.1 1214.5 2291.2 1218.3 2306.1 1218.3 2314.1 1227 2325.5 1236.6 2340.4 1247.2 2372.5 1264.5 2401.9 1239.7 Z" data-holc_grade="B"/>
</g>
<g id="C">
<path d="M 988.7 1869.9 987.7 1930.1 982 1935.7 975.4 1937.8 966.7 1940.6 957.3 1943 944.8 1946.2 931.5 1945.2 921.9 1944.6 912.4 1945.4 902.8 1946.2 893.9 1948.2 885.6 1950.2 879.2 1952.6 873.4 1954.9 867.1 1957.3 862.7 1959 855 1963.9 847.4 1968.6 840.7 1973.2 834.5 1977.4 827.4 1982.3 819.7 1985.9 810.2 1990.3 802.5 1993.1 796.8 1995.1 735.8 1991.1 726.3 1991.1 713.8 1991.1 689 1994.3 664.2 2000.8 632.7 2010.4 601.2 2016.8 579.2 2021.6 580.2 2012.8 595.5 2011.2 609.8 2002.4 628.9 1997.5 642.2 1990.3 656.5 1986.3 683.3 1975.9 710.9 1969.4 710.9 1918.9 709 1879.6 731 1878.8 784.4 1876.4 832.2 1875.5 860.8 1877.2 861.7 1925.3 877 1918.1 892.3 1908.5 910.4 1898 920 1891.6 929.5 1884.4 941 1875.5 949.6 1867.5 961 1858.7 971.5 1856.3 983 1851.5 989.6 1848.3 988.7 1869.9 Z" data-holc_grade="C"/>
<path d="M 1572.2 1560.9 1571.9 1560.7 1553 1547.8 1518.2 1520.1 1478.8 1484.7 1456.8 1468.5 1434.8 1450 1402.7 1423 1398.2 1403.8 1389 1385.3 1416.5 1369.9 1428.4 1357.6 1438.5 1346 1443 1336 1446.7 1326.8 1453.1 1312.9 1459.5 1297.5 1465 1283.6 1473.3 1269 1479.7 1258.2 1487 1243.6 1490.7 1233.6 1498 1229 1504.7 1225.5 1509.9 1222.8 1559.4 1242.1 1554.8 1253.6 1564.9 1260.5 1583.2 1277.5 1603.4 1296 1628.1 1316 1647.4 1336 1673 1353 1702.4 1380.7 1744.5 1415.3 1712.4 1442.3 1706.5 1447.4 1688.5 1462.7 1651 1494.7 1618.1 1521.6 1590.7 1545.1 1572.2 1560.9 Z" data-holc_grade="C"/>
<path d="M 1052.7 1033.4 1083 1009.5 1102.2 994.9 1119.6 977.9 1132.4 967.9 1144.3 959.5 1154.4 956.4 1164.5 953.3 1169.1 948.7 1181.3 957.4 1195.2 967.3 1211.8 979.1 1223.1 987.2 1221.3 1007 1218.1 1041.3 1215.1 1072.9 1214 1085 1211.7 1126.5 1210.3 1152 1209.4 1174.3 1267.1 1215.1 1279 1206.6 1330.3 1249 1321.2 1261.3 1345.9 1279 1358.8 1267.5 1420.1 1312.9 1422 1326 1416.5 1329.9 1406.4 1339.9 1395.4 1349.9 1382.6 1350.7 1372.5 1360.7 1365.2 1369.9 1356.9 1378.4 1341.3 1386.1 1328.5 1390.7 1319.4 1390.7 1312.9 1395.3 1274.5 1365.3 1247.9 1389.2 1234.1 1390.7 1225.9 1386.8 1222.2 1389.2 1225.9 1421.5 1209.4 1404.6 1192 1386.8 1181 1371.4 1168.2 1355.3 1159.9 1349.9 1145.3 1346.8 1121.4 1341.4 1102.2 1340.6 1086.6 1339.9 1072.9 1336 1061.9 1327.5 1061 1319.1 1054.5 1306 1048.1 1296 1041.7 1283.6 1036.2 1265.9 1031.6 1251.3 1035.3 1239.8 1038.1 1219.7 1043.6 1197.4 1004.2 1192 993.2 1178.1 978.5 1165.1 967.5 1156.6 957.4 1147.3 901.5 1100.4 864.9 1068 813.6 1024.9 796.2 1008 765.9 984.9 733.8 957.9 799.8 914.8 817.2 926.4 852 952.5 866.7 961 875.9 967.9 892.4 983.3 922.6 1008.7 939.1 1024.9 946.4 1025.7 956.5 1036.5 978.5 1061.1 982.2 1068.8 997.7 1084.2 978.5 1098.1 995 1115.8 1013.3 1131.9 1038.1 1152 1047.2 1151.2 1062.8 1145.8 1077.5 1140.4 1088.4 1142.7 1100.4 1152.7 1112.3 1162.7 1124.2 1151.2 1141.6 1135 1162.7 1116.5 1163.6 1108.8 1163.6 1100.4 1112.3 1062.6 1091.2 1058.8 1076.5 1051.1 1070.1 1047.2 1052.7 1033.4 Z" data-holc_grade="C"/>
<path d="M 759.5 877.8 738.4 856.3 721 840.1 697.2 820.1 681.6 804.7 660.5 791.6 645 783.2 636.7 782.4 612.9 770.8 589.1 761.6 579.9 757.7 524.9 797.8 500.2 816.3 470.9 843.2 432.4 810.9 448.9 799.3 469 779.3 498.4 757 527.7 733.1 510.3 724.6 481.9 709.3 454.4 695.4 428.7 687.7 401.2 679.2 426 660 451.6 636.1 480 610.7 490.1 588.4 497.4 576.8 508.4 569.9 526.8 559.1 542.3 548.4 556.1 527.6 567.1 516 579 509.1 582.7 503.7 592.7 492.2 607.4 482.2 627.6 501.4 593.7 533.7 551.5 576.8 523.1 601.5 505.7 622.3 555.2 667.7 586.3 698.5 618.4 724.6 688 663.1 723.8 632.3 754.9 600.7 808.1 596.9 848.4 593.8 852 639.2 855.7 675.4 856.6 696.2 824.6 730.8 783.3 770.8 752.2 800.9 773.2 819.3 791.6 835.5 798.9 849.4 759.5 877.8 Z" data-holc_grade="C"/>
<path d="M 709.2 2126.2 701.6 2130.2 702.2 2140.5 703.5 2161.5 702.9 2167.8 701.1 2186.2 700.6 2191.2 699.3 2203.1 697.8 2216.9 706.3 2233.8 706 2246.7 705.7 2255.5 705.4 2267.5 722.4 2273.7 742.6 2281.1 758.6 2287.9 777 2295.6 793.4 2302.5 803.7 2306.8 798 2360.6 793.2 2391.9 790.3 2426.5 782.7 2461 781.7 2489.9 778.9 2512.4 777.9 2532.4 777.9 2549.3 777.9 2565.4 777.4 2575.4 777 2582.2 778.3 2589.1 779.8 2596.7 797.9 2596.9 812.2 2597.1 827.5 2597.3 841.9 2597.5 841.9 2617.5 869.6 2616.7 905.8 2617.5 905.8 2634.4 903 2667.3 903 2692.2 846.7 2692.2 846.7 2677.8 806.6 2678.6 759.8 2678.6 759.8 2705.9 759.8 2725.1 759.8 2749.2 759.8 2767.7 760.7 2792.6 733.1 2792.6 700.6 2791 699.7 2766.9 699.7 2728.4 701.6 2695.4 667.2 2695.4 623.3 2696.2 571.8 2694.6 571.8 2672.2 570.8 2635.2 575.6 2608.7 579.4 2574.2 616.6 2573.4 625.2 2571.8 625.2 2554.9 626.2 2534.8 627.1 2506.7 629 2468.2 616.6 2468.2 602.3 2466.6 587 2465.8 567 2466.6 536.5 2467.4 513.5 2465.8 497.3 2465.8 472.5 2465.8 455.3 2465.8 437.2 2468.2 418.1 2468.2 400.9 2469 379 2473.8 370.4 2466.6 299.7 2474.6 300.7 2493.9 298.8 2518.8 298.8 2538.1 299.7 2558.9 302.6 2601.5 260.6 2600.7 226.3 2599.9 169.9 2599.9 166.1 2538.1 157.5 2534.8 116.5 2524.4 44.9 2510.8 1 2470.6 2 2404.8 2.9 2358.2 6.7 2280.3 23.9 2281.9 73.5 2279.5 68.8 2334.9 191.9 2336.5 199.5 2325.3 205.3 2308.4 210 2286.8 211 2263.5 213.8 2230.6 213.8 2205.7 282.6 2209.7 283.5 2139.9 351.3 2102.1 446.7 2102.9 445.8 2147.1 429.6 2147.1 428.6 2215.3 485.9 2219.3 485.9 2204.9 549.8 2165.6 544.1 2222.5 544.1 2254.7 529.8 2254.7 493.5 2263.5 474.4 2269.1 450.6 2276.3 435.3 2282.8 415.2 2294 395.2 2302.8 396.1 2321.3 397.1 2341.4 427.6 2343 461 2343.8 516.4 2344.6 577.5 2347 575.6 2319.7 581.3 2299.6 582.3 2267.5 594.7 2224.1 626.2 2215.3 626.2 2171.2 620.4 2132.6 651 2131.8 675.8 2118.2 678.7 2107.8 706.3 2111 709.2 2126.2 Z" data-holc_grade="C"/>
<path d="M 1301 2191.2 1271.4 2232.2 1261.8 2244.2 1249.4 2246.6 1234.2 2255.5 1208.4 2267.5 1183.6 2281.1 1154 2297.2 1124.4 2310.8 1092.9 2318.9 1056.6 2320.5 975.5 2318.9 905.8 2317.3 859.1 2314.1 860 2338.9 917.3 2336.5 949.7 2337.3 981.2 2336.5 1006 2336.5 1049 2337.3 1082.4 2337.3 1098.6 2336.5 1105.3 2334.9 1117.7 2330.9 1131.1 2328.5 1144.4 2323.7 1163.5 2316.5 1181.7 2306.8 1192.2 2301.2 1218.9 2284.4 1234.2 2277.9 1245.6 2270.7 1253.3 2264.3 1264.7 2260.3 1278.1 2247.4 1280 2273.1 1279 2326.9 1270.5 2328.5 1266 2329.3 1253.3 2331.7 1242.8 2331.3 1232.3 2330.9 1217.9 2330.9 1212.2 2330.9 1204.6 2331.7 1190.3 2337.3 1190.3 2346.2 1190.7 2355.8 1191.2 2367.8 1198.5 2377.5 1202.6 2383 1209.3 2391.9 1220.5 2382.2 1230.3 2373.6 1241.8 2365.4 1253.3 2363 1259.9 2357.4 1270.4 2355.8 1283.1 2349.3 1284.7 2362.2 1276 2370.2 1262.2 2382.8 1246.8 2396.9 1239.9 2403.2 1231.7 2409.1 1219.9 2417.6 1206.5 2427.3 1196.5 2434.9 1184.5 2444.1 1172.2 2453.2 1161.6 2461 1152.8 2468.1 1145.1 2474.4 1137.8 2480.2 1124.4 2485.1 1095.8 2484.3 1068.1 2483.5 1030.9 2487.5 1004.1 2478.6 970.7 2471.4 940.2 2470.6 926.8 2473.8 885.8 2484.3 841.9 2492.3 821.8 2498.7 804.7 2503.5 793.6 2507.3 778.9 2512.4 781.7 2489.9 782.7 2461 790.3 2426.5 793.2 2391.9 798 2360.6 803.7 2306.8 817.1 2311.7 817.1 2282.8 817.1 2261.1 817.1 2228.2 816.1 2203.3 799.9 2188 822.8 2165.6 822.8 2155.9 862.9 2154.3 882 2152.7 882 2182.4 912.6 2182 945 2181.6 948.8 2173.6 958.3 2169.6 976.5 2175.2 1003.2 2176 1029 2178.4 1030.9 2146.3 1031.8 2128.6 1033.7 2112.6 1045.2 2094.9 1052.8 2080.5 1058.5 2067.6 1050.9 2067.6 1052.5 2059.9 1054.7 2050 1055.7 2045.1 1058.2 2035 1059.5 2029.9 1062.7 2024.6 1069 2013.8 1071.5 2012.3 1079.5 2007.4 1091.9 2001 1089.3 1997.8 1082.3 1989.4 1073.8 1982 1067.1 1977.7 1118.7 1977.7 1117.5 1949.4 1135.8 1949.7 1153 1950 1167.2 1950.2 1180.7 1964.9 1193.1 1974.5 1208.4 1989 1221.8 2001 1244.7 2012.2 1265.7 2021.1 1286.7 2030.7 1287.6 2054.8 1290.5 2064.4 1300 2078.1 1310.5 2098.9 1316.2 2118.2 1319.1 2129.4 1317.2 2141.5 1316.2 2155.1 1312.4 2177.6 1301 2191.2 Z M 1141.6 2113.4 1142.5 2136.7 1216 2135.9 1214.1 2077.3 1201.7 2077.3 1189.3 2078.9 1172.1 2078.9 1169.3 2083.7 1158.8 2089.3 1150.2 2093.3 1143.5 2100.5 1141.6 2113.4 Z M 861 2218.5 884.8 2233 925.9 2233 958.3 2233 990.8 2235.4 1031.8 2236.2 1059.5 2236.2 1057.6 2220.1 1055.7 2216.9 1043.3 2216.9 1013.7 2216.9 990.8 2216.1 955.5 2216.1 924.9 2216.1 884.8 2215.3 869.6 2204.1 870.5 2212.1 861 2218.5 Z" data-holc_grade="C"/>
<path d="M 1647.4 2585.4 1632.2 2571 1624.5 2556.5 1613.1 2546.1 1605.4 2518 1599.7 2516.4 1589.2 2520.4 1581.6 2525.2 1563.5 2530 1547.2 2536.5 1531 2544.5 1517.6 2551.7 1500.5 2559.7 1472.8 2573.4 1481.4 2599.1 1490 2614.3 1509 2644.8 1490 2653.7 1482.3 2663.3 1480.4 2673.8 1500.5 2683.4 1582.5 2713.9 1562.5 2718.7 1546.3 2726 1523.4 2734.8 1513.8 2742.8 1490.9 2748.4 1466.1 2748.4 1426 2748.4 1407.9 2751.6 1388.8 2752.5 1371.6 2752.5 1357.3 2752.5 1336.3 2752.5 1334.4 2752.5 1315.3 2752.5 1295.2 2752.5 1272.3 2750.8 1273.3 2718.7 1274.2 2679.4 1276.2 2659.3 1278.1 2628 1277.1 2594.3 1274.2 2557.3 1274.2 2536.5 1249.4 2535.6 1206.5 2536.5 1174 2536.5 1172.2 2453.2 1184.5 2444.1 1196.5 2434.9 1206.5 2427.3 1219.9 2417.6 1231.7 2409.1 1239.9 2403.2 1246.8 2396.9 1262.2 2382.8 1276 2370.2 1284.7 2362.2 1283.1 2349.3 1300 2353.4 1315.3 2358.2 1330.6 2359.8 1345.8 2360.6 1345.8 2373.5 1347.7 2400 1381.1 2400.8 1416.5 2400.8 1444.1 2402.4 1451.8 2380.7 1457.5 2365.4 1466.1 2348.6 1476.6 2337.3 1485.2 2330.1 1497.6 2325.3 1506.2 2315.7 1520.5 2308.4 1532 2301.2 1545.3 2295.6 1555.8 2293.2 1558.7 2271.5 1553.9 2249 1579.7 2254.7 1604.5 2255.5 1630.3 2260.3 1657 2260.3 1686.6 2261.9 1704.7 2263.5 1703.8 2276.3 1700.9 2291.6 1697.1 2307.6 1693.3 2320.5 1684.7 2337.3 1677 2352.6 1673.2 2364.6 1667.5 2379.9 1667.5 2387.9 1659.9 2400.8 1656 2408.8 1656 2428.9 1657 2438.5 1665.6 2455.4 1674.2 2467.4 1684.7 2478.6 1693.3 2493.1 1703.8 2514 1709.5 2532.4 1720.9 2553.3 1700.9 2560.5 1669.4 2573.4 1647.4 2585.4 Z M 1317.2 2598.3 1318.2 2557.3 1319.1 2540.5 1295.2 2542.1 1297.2 2599.1 1317.2 2598.3 Z" data-holc_grade="C"/>
<path d="M 1272.3 2750.8 1295.2 2752.5 1315.3 2752.5 1334.4 2752.5 1336.3 2752.5 1357.3 2752.5 1371.6 2752.5 1388.8 2752.5 1407.9 2751.6 1426 2748.4 1419.3 2805.5 1422.2 2825.5 1482.3 2919.5 1596.9 2862.5 1623.6 2893.8 1615 2936.4 1644.6 2980.5 1586.4 3007.8 1621.7 3060.9 1625.5 3072.1 1592.1 3078.5 1613.1 3132.3 1627.4 3160.5 1641.7 3189.4 1658.9 3231.9 1669.4 3249.6 1691.3 3281.8 1704.7 3306.7 1720 3330 1682.8 3340.4 1618.8 3358.1 1597.8 3334 1591.1 3317.9 1579.7 3318.7 1569.2 3298.6 1553 3269.7 1481.4 3286.6 1464.2 3263.3 1456.6 3248.8 1432.7 3216.7 1403.1 3233.6 1403.1 3181.3 1403.1 3167.7 1396.4 3157.2 1322 3165.3 1323.9 3151.6 1319.1 3143.6 1351.6 3142 1343.9 3107.4 1336.3 3072.9 1328.7 3045.6 1270.4 3045.6 1199.8 3045.6 1199.8 2987.8 1199.8 2966.1 1197.9 2901.8 1113.9 2901.8 1099.6 2898.6 1098.6 2870.5 1113.9 2869.7 1113.9 2826.3 1114.9 2794.2 1113.9 2776.5 1114.9 2754.9 1073.8 2755.7 1025.1 2754.9 986 2754.9 986 2738 985 2715.5 987.9 2692.2 1025.1 2692.2 1079.5 2693 1113.9 2694.6 1153 2695.4 1208.4 2695.4 1230.3 2717.1 1261.8 2752.5 1272.3 2750.8 Z" data-holc_grade="C"/>
<path d="M 2230 1748 2259.3 1767.3 2280.4 1785.8 2296.9 1799.7 2324.4 1815.8 2301.5 1832 2282.2 1849 2261.1 1867.5 2239.1 1889 2226.3 1898.3 2211.7 1908.3 2196.1 1916.8 2180.5 1926.8 2192.4 1933.7 2218.1 1941.4 2242.8 1945.3 2260.2 1946 2277.6 1945.3 2296.9 1944.5 2313.4 1946.8 2327.1 1949.1 2346.3 1952.2 2364.7 1950.7 2383.9 1952.2 2405.9 1952.2 2420.6 1952.2 2442.6 1953.8 2460.9 1954.5 2483.8 1954.5 2481 1973 2477.4 1988.4 2472.8 2003.8 2467.3 2016.2 2462.7 2031.6 2455.4 2050.1 2443.5 2073.2 2429.7 2097.8 2408.7 2121 2390.3 2144.8 2370.2 2164.1 2350.9 2149.5 2328.9 2131.7 2303.3 2109.4 2290.5 2101.7 2278.5 2110.9 2263.9 2121 2248.3 2136.4 2235.5 2148.7 2229.1 2155.6 2218.1 2164.1 2207.1 2174.1 2194.2 2181.1 2173.2 2195.7 2164 2207.3 2149.3 2216.5 2134.7 2228.8 2126.4 2236.5 2132.9 2250.4 2139.3 2261.2 2150.3 2274.3 2157.6 2290.5 2162.2 2305.1 2164 2319.8 2157.6 2329 2146.6 2336 2137.4 2334.4 2131 2321.3 2123.7 2311.3 2118.2 2302.1 2109.9 2293.6 2107.2 2289 2096.2 2282 2080.6 2272 2073.3 2265.8 2063.2 2255.8 2047.6 2244.3 2031.1 2231.9 2018.3 2221.9 2011.9 2215.7 2000 2207.3 1989.9 2190.3 1978.9 2175.7 1962.8 2184.5 1947.5 2166 1920.8 2145.2 1890.2 2121.9 1864.5 2101 1845.4 2085 1823.4 2066.5 1830.5 2058.5 1836.9 2052.4 1851.6 2043.9 1861.6 2036.2 1872.6 2026.9 1881.8 2017.7 1891 2010.8 1898.3 2004.6 1909.3 1996.1 1892.8 1978.4 1877.2 1992.3 1861.6 2005.4 1842.4 2021.6 1823.2 2034.7 1803.4 2050.5 1774.7 2028 1757.6 2009.5 1743.2 1998.3 1765.2 1979.8 1754.7 1966.2 1769 1943.7 1787.2 1917.2 1806.2 1896.4 1820.6 1875.5 1836.8 1848.2 1852.1 1838.6 1859.7 1828.1 1875 1818.5 1892.1 1799.2 1924.6 1771.2 1948.5 1749.5 1954.2 1731.8 1965.6 1701.3 1969.5 1682.1 1972.3 1666.8 1975.4 1651 1975.4 1656.4 1975.4 1657.2 1987.6 1660.5 2008.9 1666.2 2021.1 1669.5 2046.9 1676.5 2046.2 1681.7 2044.2 1695.7 2041.2 1702.6 2038 1710.9 2034.6 1719.7 2029.3 1733.4 2049.5 1748 2062.3 1758.8 2069.6 1765 2095.2 1786.9 2102.9 1793.8 2113.4 1803 2120 1808.9 2133.3 1820.1 2142 1827.4 2147.7 1821.1 2153.1 1815.3 2160.3 1807.4 2172.7 1797 2179.6 1791.2 2187.9 1781.8 2196.1 1772.7 2206.1 1765.4 2213.9 1759.7 2220.7 1754.8 2230 1748 Z M 1884.5 1930.6 1918.4 1956.8 1932.2 1946.8 1945 1936.8 1964.3 1917.5 1981.7 1903.7 1995.4 1896 2002.7 1886.7 2011.9 1877.5 2024.7 1868.2 2033.9 1860.5 2023.8 1852.1 2012.8 1846.7 1999.1 1833.6 1983.5 1847.4 1972.5 1854.4 1958.8 1869 1938.6 1887.5 1912 1906.8 1884.5 1930.6 Z" data-holc_grade="C"/>
<path d="M 1884.5 1930.6 1912 1906.8 1938.6 1887.5 1958.8 1869 1972.5 1854.4 1983.5 1847.4 1999.1 1833.6 2012.8 1846.7 2023.8 1852.1 2033.9 1860.5 2024.7 1868.2 2011.9 1877.5 2002.7 1886.7 1995.4 1896 1981.7 1903.7 1964.3 1917.5 1945 1936.8 1932.2 1946.8 1918.4 1956.8 1884.5 1930.6 Z" data-holc_grade="C"/>
<path d="M 2456.5 1407.6 2437.2 1426.9 2420.7 1442.3 2405.1 1454.6 2379.5 1481.6 2363 1493.9 2365.7 1504.7 2369.4 1509.3 2366.7 1530.1 2388.7 1527.8 2388.7 1543.2 2388.7 1548.6 2386.8 1574 2385.9 1626.4 2385.9 1658 2385.9 1663.4 2452.8 1663.4 2495.9 1663.4 2497.7 1653.4 2497.7 1648 2497.7 1612.5 2563.7 1614.8 2563.7 1660.3 2559.1 1709.6 2557.2 1739.6 2520.6 1739.6 2490 1732.8 2489.4 1727.3 2489.4 1725 2469.3 1728.1 2457.4 1728.1 2443.6 1726.5 2436.5 1723.6 2417 1715.6 2407.9 1711.9 2395.2 1707.6 2374 1700.3 2358.4 1695 2346.1 1694.1 2326.6 1692.8 2300.7 1691.1 2275.4 1690.1 2262.2 1689.6 2244.6 1687.3 2225.6 1684.9 2198.6 1680.3 2172.4 1675.7 2177.8 1671.3 2205.4 1648.7 2248.2 1607.6 2256.7 1599.4 2269 1609.7 2279.5 1618.6 2283.3 1621.8 2291.1 1627.9 2306.7 1640.2 2328 1658 2346.1 1673.6 2362.1 1687.3 2375.8 1686.5 2374.9 1669.5 2374 1652.6 2365.7 1645.4 2345.4 1627.8 2331.9 1616.1 2318.3 1604.3 2306.6 1594.2 2296.2 1585.2 2284.2 1574.8 2292.9 1568.1 2306.6 1557.5 2316.3 1550 2329.6 1539.7 2340.1 1531.7 2354.7 1519.3 2345.4 1512.6 2335.5 1505.5 2326 1513.1 2312.6 1523.9 2299.2 1534.5 2290.7 1541.2 2282.4 1547.8 2273.9 1555.8 2265.9 1563.2 2257.8 1569.3 2247.6 1576.9 2238.9 1583.5 2232 1588.7 2227.2 1592.5 2222.3 1596.6 2218.4 1599.8 2205.9 1610 2190.4 1622.6 2173.1 1636 2163.2 1643.3 2160.9 1646 2151.4 1656.8 2145.7 1663.4 2144.1 1665.2 2140.3 1669.5 2127.1 1666.4 2113.7 1663.3 2100.2 1660.2 2080.8 1655.7 2070.5 1663.6 2055.6 1675.1 2051.1 1678.6 2046.9 1681.9 2046.2 1681.7 2046.9 1676.5 2021.1 1669.5 2008.9 1666.2 1987.6 1660.5 1975.4 1657.2 1975.4 1656.4 1975.4 1651 1984.2 1638.8 1997.3 1620.5 2010.6 1602 1981.8 1576.3 1984.9 1573.7 1981.8 1570.9 2024 1535.5 2087.2 1481.6 2143.1 1436.1 2171.5 1410.7 2185.8 1398 2170.4 1384.7 2173.9 1382.3 2215.5 1354.5 2250.3 1325.2 2286.9 1296 2326.3 1322.9 2342.8 1335.2 2350.2 1332.9 2383.2 1362.2 2396 1371.4 2411.6 1386.8 2433.5 1390.7 2451.9 1400.7 2456.5 1407.6 Z" data-holc_grade="C"/>
<path d="M 2117.4 1334.5 2136.7 1353 2154.1 1366 2162.3 1372.2 2170.4 1379.3 2173.9 1382.3 2170.4 1384.7 2185.8 1398 2171.5 1410.7 2143.1 1436.1 2087.2 1481.6 2024 1535.5 1981.8 1570.9 1961.7 1559.4 1940.6 1578.6 1911.3 1554.8 1871 1518.6 1840.7 1493.9 1826.1 1504.7 1805.9 1526.3 1750 1481.6 1706.5 1447.4 1712.4 1442.3 1744.5 1415.3 1702.4 1380.7 1673 1353 1647.4 1336 1628.1 1316 1603.4 1296 1583.2 1277.5 1564.9 1260.5 1554.8 1253.6 1559.4 1242.1 1509.9 1222.8 1518.8 1211.1 1527.3 1199.7 1534.5 1185.7 1538.3 1178.1 1550.3 1158.1 1558.4 1143.8 1569.5 1124.2 1581.4 1098.1 1595.2 1071.1 1601.1 1061.2 1607.1 1051.1 1619 1041.1 1628.1 1044.2 1661.1 1054.2 1690.4 1062.6 1700.5 1039.5 1680.4 1032.6 1656.3 1026.7 1642.8 1023.4 1674.9 994.9 1695 975.6 1718.9 955.1 1733.5 942.5 1749.3 930.3 1769.2 914.8 1788.5 894 1805.9 880.2 1821.5 865.5 1817.8 878.6 1802.2 902.5 1791.2 909.4 1785.7 923.3 1782.1 934.8 1776.6 949.5 1767.4 964.1 1760.1 976.4 1756.4 988 1740.8 1017.2 1717 1059.6 1755.5 1115 1767.4 1121.9 1850.8 1122.7 1850.8 1160.4 1895.7 1160.4 1894.8 1233.6 1930.5 1261.3 1866.4 1310.6 1909.4 1347.6 1943.3 1378.4 1975.4 1408.4 1999.2 1424.6 2027.6 1402.3 2047.8 1386.8 2076.2 1368.4 2100.9 1346.8 2117.4 1334.5 Z" data-holc_grade="C"/>
</g>
<g id="D">
<path d="M 1167.2 1950.2 1153 1950 1135.8 1949.7 1117.5 1949.4 1120.4 1934.1 1053.6 1929.3 1053.6 1870.7 988.7 1869.9 989.6 1848.3 983 1851.5 971.5 1856.3 961 1858.7 949.6 1867.5 941 1875.5 929.5 1884.4 920 1891.6 910.4 1898 892.3 1908.5 877 1918.1 861.7 1925.3 860.8 1877.2 832.2 1875.5 784.4 1876.4 731 1878.8 709 1879.6 692.8 1882 669.9 1886 655.6 1886.8 639.4 1889.2 615.5 1890.8 567.8 1890.8 526.7 1891.6 527.7 1856.3 523.9 1807.3 484.7 1799.3 450.4 1794.5 417 1791.3 406.5 1791.3 411.2 1633.2 459 1638.8 499.1 1642 552.5 1647.6 582.1 1650.9 620.3 1653.3 668 1655.7 710.9 1658.1 768.2 1662.9 815.9 1668.5 848.4 1670.9 882.7 1674.9 928.6 1680.5 980.1 1685.4 1019.2 1690.2 1044 1715 1061.2 1730.3 1068.9 1742.3 1082.2 1760.8 1090.8 1776 1116.6 1805.7 1128 1837.8 1132.8 1842.6 1138.5 1861.1 1131.9 1862.7 1139.5 1882 1148.1 1903.6 1149 1912.5 1152.9 1923.7 1157.6 1937.3 1167.2 1950.2 Z" data-holc_grade="D"/>
<path d="M 948.8 2128.6 924 2131 920.1 2109.4 948.8 2108.6 948.8 2128.6 Z" data-holc_grade="D"/>
<path d="M 1283.1 2349.3 1279 2338.9 1270.5 2328.5 1279 2326.9 1280 2273.1 1278.1 2247.4 1296.2 2231.4 1301.7 2224.5 1306.8 2218.3 1314.3 2208.9 1321 2194.4 1301 2191.2 1312.4 2177.6 1316.2 2155.1 1317.2 2141.5 1319.1 2129.4 1316.2 2118.2 1310.5 2098.9 1300 2078.1 1290.5 2064.4 1287.6 2054.8 1286.7 2030.7 1308.6 2046.8 1334.4 2067.6 1368.7 2092.5 1397.4 2119 1428.9 2143.1 1479.5 2179.2 1513.8 2201.7 1529.1 2212.9 1542.5 2216.1 1549.1 2231.4 1553.9 2249 1558.7 2271.5 1555.8 2293.2 1545.3 2295.6 1532 2301.2 1520.5 2308.4 1506.2 2315.7 1497.6 2325.3 1485.2 2330.1 1476.6 2337.3 1466.1 2348.6 1457.5 2365.4 1451.8 2380.7 1444.1 2402.4 1416.5 2400.8 1381.1 2400.8 1347.7 2400 1345.8 2373.5 1345.8 2360.6 1330.6 2359.8 1315.3 2358.2 1300 2353.4 1283.1 2349.3 Z" data-holc_grade="D"/>
<path d="M 2370.2 2164.1 2357.2 2176.1 2338.1 2196 2322.8 2214.6 2297.6 2243.5 2284.7 2262.1 2270.9 2281.4 2256.4 2300.6 2241.9 2321.2 2228.9 2337.9 2229.7 2353.9 2232 2373.2 2232 2388 2235 2408.5 2261.7 2409.2 2286.9 2405.3 2313.7 2403.4 2316 2417.5 2318.3 2441.3 2319 2461.2 2318.3 2468.3 2298.4 2468.3 2261.7 2472.1 2238.1 2474.1 2215.2 2477.3 2196.1 2479.2 2181.6 2479.8 2177.8 2464.4 2176.2 2444.5 2173.2 2427.8 2169.4 2408.5 2166.3 2378.4 2163.2 2345.6 2157.6 2329 2164 2319.8 2162.2 2305.1 2157.6 2290.5 2150.3 2274.3 2139.3 2261.2 2132.9 2250.4 2126.4 2236.5 2134.7 2228.8 2149.3 2216.5 2164 2207.3 2173.2 2195.7 2194.2 2181.1 2207.1 2174.1 2218.1 2164.1 2229.1 2155.6 2235.5 2148.7 2248.3 2136.4 2263.9 2121 2278.5 2110.9 2290.5 2101.7 2303.3 2109.4 2328.9 2131.7 2350.9 2149.5 2370.2 2164.1 Z" data-holc_grade="D"/>
<path d="M 2144.1 1665.2 2155.8 1668.7 2172.4 1670.3 2177.8 1671.3 2172.4 1675.7 2198.6 1680.3 2225.6 1684.9 2244.6 1687.3 2262.2 1689.6 2275.4 1690.1 2300.7 1691.1 2326.6 1692.8 2346.1 1694.1 2358.4 1695 2374 1700.3 2395.2 1707.6 2407.9 1711.9 2417 1715.6 2436.5 1723.6 2443.6 1726.5 2457.4 1728.1 2469.3 1728.1 2489.4 1725 2489.4 1727.3 2490 1732.8 2493 1761.1 2525 1769.6 2539.7 1778.1 2547.9 1791.2 2546.1 1807.4 2540.6 1827.4 2528.7 1847.4 2522.3 1866.7 2514.9 1882.9 2506.7 1901.4 2491.1 1914.5 2485.6 1926 2483.8 1954.5 2460.9 1954.5 2442.6 1953.8 2420.6 1952.2 2405.9 1952.2 2383.9 1952.2 2364.7 1950.7 2346.3 1952.2 2327.1 1949.1 2313.4 1946.8 2296.9 1944.5 2277.6 1945.3 2260.2 1946 2242.8 1945.3 2218.1 1941.4 2192.4 1933.7 2180.5 1926.8 2196.1 1916.8 2211.7 1908.3 2226.3 1898.3 2239.1 1889 2261.1 1867.5 2282.2 1849 2301.5 1832 2324.4 1815.8 2296.9 1799.7 2280.4 1785.8 2259.3 1767.3 2230 1748 2240.1 1740.3 2245.6 1732.6 2238.2 1729.6 2225.4 1723.4 2212.6 1718.8 2195.2 1713.4 2182.3 1710.3 2164 1703.4 2153 1701.8 2140.2 1699.5 2126.4 1697.2 2106.3 1691 2089.8 1689.5 2062.3 1684.1 2051.1 1678.6 2055.6 1675.1 2070.5 1663.6 2080.8 1655.7 2100.2 1660.2 2113.7 1663.3 2127.1 1666.4 2140.3 1669.5 2144.1 1665.2 Z" data-holc_grade="D"/>
<path d="M 1962.8 2184.5 1928.4 2213.4 1910.3 2196.5 1894.1 2179.7 1875.9 2162 1860.6 2146.8 1843.5 2131.5 1830.1 2120.3 1814.8 2109.8 1795.7 2093.8 1779.5 2081.8 1765.2 2070.5 1749.9 2059.3 1731.8 2051.3 1719.4 2044 1717.5 2035.2 1718.4 2022.4 1716.5 2009.5 1711.7 1993.5 1703.2 1980.6 1688.8 1969.4 1673.6 1965.4 1665 1959 1650.7 1948.5 1610.6 1926 1582.9 1909.2 1560 1896.4 1522.8 1873.1 1537.1 1857.8 1567.6 1835.4 1596.3 1812.1 1615.3 1795.2 1633.5 1792.8 1655.4 1789.6 1677.4 1788.8 1707.9 1787.2 1734.7 1785.6 1749.9 1772.8 1773.8 1752.7 1751.8 1730.2 1737.5 1716.6 1763.3 1712.6 1786.2 1710.2 1812.9 1706.2 1827.2 1701.3 1838.7 1692.5 1846.3 1684.5 1855.9 1678.1 1858.7 1672.5 1866.4 1664.4 1882.6 1646 1885 1631.2 1895 1633.9 1933.2 1644.4 1975.4 1651 1972.3 1666.8 1969.5 1682.1 1965.6 1701.3 1954.2 1731.8 1948.5 1749.5 1924.6 1771.2 1892.1 1799.2 1875 1818.5 1859.7 1828.1 1852.1 1838.6 1836.8 1848.2 1820.6 1875.5 1806.2 1896.4 1787.2 1917.2 1769 1943.7 1754.7 1966.2 1765.2 1979.8 1743.2 1998.3 1757.6 2009.5 1774.7 2028 1803.4 2050.5 1823.4 2066.5 1845.4 2085 1864.5 2101 1890.2 2121.9 1920.8 2145.2 1947.5 2166 1962.8 2184.5 Z" data-holc_grade="D"/>
<path d="M 1981.8 1570.9 1984.9 1573.7 1981.8 1576.3 2010.6 1602 1997.3 1620.5 1984.2 1638.8 1975.4 1651 1933.2 1644.4 1895 1633.9 1885 1631.2 1865.4 1625.9 1836.8 1621.1 1817.7 1620.3 1792.9 1625.9 1780.5 1617.9 1764.2 1606.7 1739.4 1585.8 1715.6 1600.2 1701.2 1611.5 1672.6 1628.3 1666.9 1621.1 1629.7 1589 1568.6 1641.2 1522.5 1600.9 1538.8 1587.1 1562.1 1568.9 1572.2 1560.9 1590.7 1545.1 1618.1 1521.6 1651 1494.7 1688.5 1462.7 1706.5 1447.4 1750 1481.6 1805.9 1526.3 1826.1 1504.7 1840.7 1493.9 1871 1518.6 1911.3 1554.8 1940.6 1578.6 1961.7 1559.4 1981.8 1570.9 Z" data-holc_grade="D"/>
<path d="M 1572.2 1560.9 1562.1 1568.9 1538.8 1587.1 1532.1 1592.8 1522.5 1600.9 1484.3 1634.9 1468.7 1621.8 1434.8 1590.2 1427.5 1583.3 1412.8 1581.7 1379.8 1607.1 1363.3 1597.1 1350.5 1590.2 1339.5 1580.2 1320.3 1564 1345.9 1547.8 1359.7 1534 1339.5 1517 1323 1506.2 1301 1485.4 1283.6 1472.3 1273.5 1457.7 1291.9 1441.5 1309.3 1427.7 1329.4 1415.3 1344.1 1406.9 1369.7 1397.6 1389 1385.3 1398.2 1403.8 1402.7 1423 1434.8 1450 1456.8 1468.5 1478.8 1484.7 1518.2 1520.1 1553 1547.8 1571.9 1560.7 1572.2 1560.9 Z" data-holc_grade="D"/>
<path d="M 884.1 713.9 1002.3 710 1002.3 793.9 998.7 818.6 982.2 823.2 968.4 829.3 950.1 834 919.9 867.8 893.3 835.5 870.4 807.8 845.6 781.6 870.4 760.1 898.8 730.8 884.1 713.9 Z" data-holc_grade="D"/>
</g>
</svg>