<?xml version="1.0"?>
<svg xmlns="http://www.w3.org/2000/svg" version="1.2" baseProfile="tiny" width="3000" height="2429" viewBox="0 0 3000 2429" stroke-linecap="round" stroke-linejoin="round">
<g id="A">
<path d="M 2717.5 1065.5 2820.5 1066.1 2820.5 1199.3 2729.1 1198.5 2716.3 1199.4 2707.6 1212.7 2707.2 1497.4 2616.8 1468.5 2601.3 1460.2 2585.8 1449.1 2536.9 1410.1 2446.7 1330.2 2454.7 1330.1 2465.9 1326.3 2486.2 1317.7 2496 1310.9 2487.3 1302.1 2476.5 1293 2471.6 1284.3 2446.7 1291.1 2447 1274 2413.7 1249.4 2428.7 1216.8 2441.3 1205.2 2441.5 1164.2 2443.6 1160.3 2460.2 1151.1 2476.6 1145.9 2498.7 1145 2503.4 1143.7 2512.2 1138.3 2526.2 1137.2 2712.9 1136.1 2713.5 1136.1 2713.6 1135.8 2714.8 1065.5 2717.5 1065.5 Z" data-holc_grade="A"/>
<path d="M 1559.7 956.2 1473.9 957 1475.1 933.4 1511 933.5 1559.6 933.8 1559.7 956.2 Z M 1479.3 799.5 1479.6 808.8 1471.8 933.4 1471.8 933.7 1399.7 934.2 1366 934.5 1367.3 800.4 1479.3 799.5 Z M 1479.3 799.5 1480.6 782.5 1482.3 758.5 1604.5 759.2 1620.8 759.3 1625.9 742.1 1649.4 741.9 1648.8 940.2 1616.1 939.3 1568.6 938.1 1577.4 907.9 1609.3 799.3 1479.3 799.5 Z" data-holc_grade="A"/>
</g>
<g id="B">
<path d="M 2950.1 1201.1 2949.3 1201.1 2820.5 1199.3 2820.5 1066.1 2949.3 1065.4 2950.1 1201.1 Z" data-holc_grade="B"/>
<path d="M 2451.9 852.6 2451 953.3 2452.3 965.8 2454.3 977.2 2461.1 993.4 2473.1 1014.5 2477.3 1023 2480.3 1031.5 2482.3 1040.6 2482.6 1067 2577.5 1066.4 2584.3 1066.3 2584.3 1063.4 2584 1017.2 2545.2 1016.4 2545.2 987.3 2584.6 988.6 2583.5 978.2 2586.8 969.5 2587 932.8 2648.2 931.9 2647.7 1005.7 2717.1 1005.1 2717.5 1065.5 2714.8 1065.5 2713.6 1135.8 2713.5 1136.1 2712.9 1136.1 2526.2 1137.2 2512.2 1138.3 2503.4 1143.7 2498.7 1145 2476.6 1145.9 2460.2 1151.1 2443.6 1160.3 2441.5 1164.2 2441.3 1205.2 2428.7 1216.8 2413.7 1249.4 2447 1274 2446.7 1291.1 2471.6 1284.3 2476.5 1293 2487.3 1302.1 2496 1310.9 2486.2 1317.7 2465.9 1326.3 2454.7 1330.1 2442.9 1310.3 2441.3 1290.8 2408.3 1291.2 2407.5 1280.4 2388.4 1268.7 2390.8 1196.5 2393.4 1166.6 2393.8 1067.6 2315.9 1067 2316.7 951.7 2271.4 951.5 2271.5 912.8 2314.2 912.6 2315 852.7 2382 852.8 2451.9 852.6 Z" data-holc_grade="B"/>
<path d="M 743.9 1444.5 742.2 1276 756.4 1275.9 1071.1 1274.7 1071.9 1384.9 1092.3 1426.4 1039.5 1433.8 924.7 1434.4 872.5 1431.9 810.9 1428.8 743.9 1444.5 Z" data-holc_grade="B"/>
<path d="M 1482.3 758.5 1480.6 782.5 1479.3 799.5 1367.3 800.4 1366 934.5 1318.4 935.5 1080.1 935.8 1082 803.2 1350.2 799.5 1350.9 717.5 1484.6 716.4 1482.3 758.5 Z" data-holc_grade="B"/>
<path d="M 1482.3 758.5 1484.6 716.4 1485.4 716.4 1486.2 687.3 1634.1 688.1 1642.1 688.1 1637.6 705.2 1711.6 705.4 1711.5 669.6 1749.9 669 1750.9 536.3 1883.5 534.7 1885 602.6 1920.4 602.2 1918.9 669.4 1998.4 670.7 1998.3 706.6 1998.1 802.2 2050.3 803.3 2050.6 871.4 2182 871.7 2180.6 1068.2 2004.9 1069.3 1946.9 1068.5 1947.1 975.4 1927.2 975.4 1813.2 975.4 1813 1000.6 1747.2 1001 1747.2 1021.1 1648.1 1021.5 1648.3 1068.5 1639.7 1068.7 1640 1147.5 1560.2 1148.4 1561.3 1070.5 1558.8 1069.4 1560 1022.9 1472.7 1023.3 1473.9 957 1559.7 956.2 1559.8 988.3 1615.9 989.4 1616.1 939.3 1648.8 940.2 1649.4 741.9 1625.9 742.1 1620.8 759.3 1604.5 759.2 1482.3 758.5 Z M 1996.9 903.1 1996.1 973 2052.8 980.1 2053.7 902.1 2050.8 901.9 1996.9 903.1 Z" data-holc_grade="B"/>
<path d="M 2005.8 1486.3 2002.8 1370.1 2002.8 1293.4 2120.2 1294 2206.1 1294.5 2206.8 1331.9 2245.8 1332.8 2246.2 1348.5 2262.7 1383 2233.2 1416.3 2188.2 1436.7 2005.8 1486.3 Z" data-holc_grade="B"/>
<path d="M 2003.4 1087.9 2003.4 1184.7 1761.9 1186 1762.1 1146.2 1876.2 1146.2 1876.9 1108.8 1909.5 1108.9 1909.3 1098 1970.5 1098 1970.5 1088.8 2003.4 1087.9 Z M 2717.1 1005.1 2647.7 1005.7 2648.2 931.9 2587 932.8 2586.8 969.5 2583.5 978.2 2584.6 988.6 2545.2 987.3 2545.2 1016.4 2584 1017.2 2584.3 1063.4 2584.3 1066.3 2577.5 1066.4 2482.6 1067 2482.3 1040.6 2480.3 1031.5 2477.3 1023 2473.1 1014.5 2461.1 993.4 2454.3 977.2 2452.3 965.8 2451 953.3 2451.9 852.6 2452.9 654.6 2320.1 655.1 2321 666.6 2068.8 671.1 1998.4 670.7 1918.9 669.4 1920.4 602.2 1885 602.6 1883.5 534.7 1750.9 536.3 1688.5 535.9 1694.3 514.8 1621.4 514 1621.3 537.8 1294.7 539.6 1293.8 668.5 1351.4 668.5 1350.9 717.5 1350.2 799.5 1082 803.2 1082.1 798.9 1085.1 595.2 1093.9 3.4 2292.2 3.3 2999 1 2986.2 732.1 2722.3 731.4 2717.1 1005.1 Z" data-holc_grade="B"/>
</g>
<g id="C">
<path d="M 2950.1 1201.1 2949.3 1065.4 2950.3 1012.3 2982.6 1012.4 2980.1 1200.2 2950.1 1201.1 Z M 2262.7 1383 2246.2 1348.5 2245.8 1332.8 2206.8 1331.9 2206.1 1294.5 2120.2 1294 2002.8 1293.4 2003.4 1184.7 2003.4 1087.9 2004.9 1069.3 2180.6 1068.2 2182 871.7 2182.2 851.7 2228.5 851.6 2229.3 892.1 2243.1 912.6 2224.6 913.7 2243.8 946.6 2254.3 985.9 2308.4 1212.5 2319.7 1252.6 2323.3 1261 2323.3 1331.8 2323.4 1370.7 2310.5 1371.4 2270.2 1389.1 2262.7 1383 Z" data-holc_grade="C"/>
<path d="M 1750.9 536.3 1749.9 669 1711.5 669.6 1711.6 705.4 1637.6 705.2 1642.1 688.1 1634.1 688.1 1486.2 687.3 1485.4 716.4 1484.6 716.4 1350.9 717.5 1351.4 668.5 1293.8 668.5 1294.7 539.6 1621.3 537.8 1621.4 514 1694.3 514.8 1688.5 535.9 1750.9 536.3 Z" data-holc_grade="C"/>
<path d="M 1082 803.2 1080.1 935.8 1058 936 1052.7 936.1 1020.7 936.3 1017.5 936.4 878.4 937.6 878.3 904.5 814.3 903.7 816.3 739 670.9 739.5 670 809.4 703.3 810.3 701.7 938.7 679.6 938.1 547.8 808.2 551.8 623.4 813.7 541 820 539 819.8 324.2 724.9 324 726.4 205.3 560.1 204.4 565 4.5 1093.9 3.4 1085.1 595.2 1082.1 798.9 1082 803.2 Z" data-holc_grade="C"/>
<path d="M 2068.8 671.1 2069 690 2069.9 707.7 2071.2 716.7 2072.5 729.5 2074.8 738.6 2077.2 748.5 2079.4 757.3 2084 768.1 2089.3 779.6 2099.4 795.8 2105.5 803.5 2055.2 803.4 2050.3 803.3 1998.1 802.2 1998.3 706.6 1998.4 670.7 2068.8 671.1 Z" data-holc_grade="C"/>
<path d="M 2004.9 1069.3 2003.4 1087.9 1970.5 1088.8 1970.5 1098 1909.3 1098 1909.5 1108.9 1876.9 1108.8 1876.2 1146.2 1762.1 1146.2 1761.9 1186 2003.4 1184.7 2002.8 1293.4 2002.8 1370.1 2005.8 1486.3 1987.9 1493.1 1979.4 1481.7 1970.2 1478.7 1938.1 1485 1938.4 1528 1907 1554.8 1906.3 1516.8 1906.2 1510.2 1906.2 1509.9 1899.2 1515 1898.7 1515.4 1896 1517.2 1830.9 1561 1811.3 1553.1 1726.2 1553.5 1726.2 1538.9 1602.5 1537.3 1602.2 1517.2 1622.3 1516.3 1622.1 1497.7 1601.9 1497.9 1598.3 1265.4 1600.1 1148 1640 1147.5 1639.7 1068.7 1648.3 1068.5 1648.1 1021.5 1747.2 1021.1 1747.2 1001 1813 1000.6 1813.2 975.4 1927.2 975.4 1947.1 975.4 1946.9 1068.5 2004.9 1069.3 Z M 1640.5 1483.6 1661.6 1484 1661 1459.1 1640.6 1459.1 1640.5 1483.6 Z" data-holc_grade="C"/>
<path d="M 631.4 1475.8 590 1510.1 589.3 1510.1 19.3 1497.1 5 1495.7 7.1 1273.9 600.8 1279 602.9 1283.5 604.4 1293 603.3 1326.4 602.6 1344.5 605.1 1356 610.9 1399.5 626.4 1437.2 643.2 1468.4 631.4 1475.8 Z" data-holc_grade="C"/>
<path d="M 472.3 1277.9 7.1 1273.9 13.3 813.2 476.1 810.4 472.3 1277.9 Z" data-holc_grade="C"/>
<path d="M 600.8 1279 472.3 1277.9 476.1 810.4 499.9 810.3 547.6 857.2 582.8 890.9 607.1 913.9 629.5 948.4 639.1 967.5 648.1 1002.8 654 1033.2 652.6 1076.2 637.7 1137.8 636.8 1173.8 616.7 1228.8 606.2 1279.4 600.8 1279 Z" data-holc_grade="C"/>
<path d="M 631.4 1475.8 644 1575.3 665.2 1575.1 697.2 1574.9 701.7 1681.5 707.3 1815.4 547.9 1915 456.6 1885.8 414.8 1872.4 391.7 1865.2 341.8 1849.6 331.5 1847.6 321 1846.2 310.3 1845.5 299 1844.6 271.3 1843.9 217.5 1844 205.9 1787.5 222.7 1787.3 464.1 1609.1 534.9 1555.8 588.8 1511.1 590 1510.1 631.4 1475.8 Z" data-holc_grade="C"/>
<path d="M 414.8 1872.4 456.6 1885.8 547.9 1915 401.3 1999.5 358.3 2024.3 334.8 2039.2 199.8 2139.3 132.3 2139.6 1 2140.1 6.4 1875.2 133.6 1875.3 133.7 1846.7 217.1 1847.6 234.5 1869.9 252.1 1906.1 317.4 1876.2 327 1876.9 366.3 1883.6 386.5 1887.1 408.8 1890.9 414.6 1881.2 414.8 1872.4 Z M 205.9 1787.5 83.5 1821 2.6 1801.8 5 1495.7 19.3 1497.1 589.3 1510.1 590 1510.1 588.8 1511.1 534.9 1555.8 464.1 1609.1 222.7 1787.3 205.9 1787.5 Z" data-holc_grade="C"/>
<path d="M 1399.7 1069.4 1401.1 1108.2 1438.5 1107.7 1438.5 1099.6 1519 1098.5 1518.8 1069.2 1399.7 1069.4 1399.7 934.2 1471.8 933.7 1471.8 933.4 1475.1 933.4 1473.9 957 1472.7 1023.3 1560 1022.9 1558.8 1069.4 1561.3 1070.5 1560.2 1148.4 1600.1 1148 1598.3 1265.4 1516 1267.1 1516.3 1302.7 1467.3 1303.1 1466.9 1227.3 1228.6 1225.6 1230.8 1535.3 952.7 1535.3 941.3 1533.5 913.2 1533.5 730.2 1535.2 712.3 1521.7 689.5 1503.2 673.8 1484.4 659.6 1463.8 743.9 1444.5 810.9 1428.8 872.5 1431.9 924.7 1434.4 1039.5 1433.8 1092.3 1426.4 1071.9 1384.9 1071.1 1274.7 756.4 1275.9 756.6 1236.8 643.5 1237.2 671.3 1119.9 677.1 1119.7 677.4 1022.5 676 1010.7 674.3 1001.5 671 987.9 668.4 980 667.3 966.6 668.8 960.5 672.9 955 684.3 945 679.6 938.1 701.7 938.7 703.3 810.3 670 809.4 670.9 739.5 816.3 739 814.3 903.7 878.3 904.5 878.4 937.6 1017.5 936.4 1020.7 936.3 1052.7 936.1 1058 936 1080.1 935.8 1318.4 935.5 1317 1070 1399.7 1069.4 Z M 878.3 1072.5 878.9 1026.9 760.5 1027.6 760.7 1074 776.9 1073.9 776.2 1121.9 844 1122.3 843.7 1072.3 878.3 1072.5 Z" data-holc_grade="C"/>
</g>
<g id="D">
<path d="M 2315.9 1067 2393.8 1067.6 2393.4 1166.6 2390.8 1196.5 2388.4 1268.7 2407.5 1280.4 2408.3 1291.2 2441.3 1290.8 2442.9 1310.3 2454.7 1330.1 2446.7 1330.2 2323.3 1331.8 2323.3 1261 2319.7 1252.6 2317.6 1237.5 2315.3 1211.5 2314.4 1197.6 2312.9 1196.6 2310.3 1195.7 2308.9 1189.6 2298.6 1145.3 2299.8 1144.2 2299.6 1066.9 2315.9 1067 Z" data-holc_grade="D"/>
<path d="M 1938.4 1528 1938.1 1485 1970.2 1478.7 1979.4 1481.7 1987.9 1493.1 1968.5 1505.1 1938.4 1528 Z M 1640.5 1483.6 1640.6 1459.1 1661 1459.1 1661.6 1484 1640.5 1483.6 Z M 1598.3 1265.4 1601.9 1497.9 1622.1 1497.7 1622.3 1516.3 1602.2 1517.2 1602.5 1537.3 1726.2 1538.9 1726.2 1553.5 1811.3 1553.1 1830.9 1561 1896 1517.2 1898.7 1515.4 1899.2 1515 1906.2 1509.9 1906.2 1510.2 1906.3 1516.8 1907 1554.8 1847.5 1608.9 1837.1 1614.5 1784.5 1653.5 1786 1658 1751.2 1675 1722.7 1700.7 1715.3 1700.3 1705.2 1701.6 1689.4 1719 1669.5 1735.9 1641.5 1748.9 1607.9 1757.5 1575.2 1758.2 1559.1 1760.5 1472.4 1761.9 1442.1 1758.9 1423 1759.4 1395.1 1764.2 1367.1 1768.1 1315.7 1778.5 1316.5 1754.6 1249.9 1748.5 1190.7 1746.1 1160.3 1743.5 1068 1743.9 1020.2 1749.3 968.2 1755.3 937.6 1762.7 907.6 1775.2 857.2 1805.5 828.2 1830.8 813 1848 790.3 1883 776.5 1913.6 707.3 1815.4 701.7 1681.5 697.2 1574.9 665.2 1575.1 644 1575.3 631.4 1475.8 643.2 1468.4 659.6 1463.8 673.8 1484.4 689.5 1503.2 712.3 1521.7 730.2 1535.2 913.2 1533.5 941.3 1533.5 952.7 1535.3 1230.8 1535.3 1228.6 1225.6 1466.9 1227.3 1467.3 1303.1 1516.3 1302.7 1516 1267.1 1598.3 1265.4 Z M 1399.7 1069.4 1518.8 1069.2 1519 1098.5 1438.5 1099.6 1438.5 1107.7 1401.1 1108.2 1399.7 1069.4 Z M 878.3 1072.5 843.7 1072.3 844 1122.3 776.2 1121.9 776.9 1073.9 760.7 1074 760.5 1027.6 878.9 1026.9 878.3 1072.5 Z" data-holc_grade="D"/>
<path d="M 506.2 2138.2 199.8 2139.3 334.8 2039.2 358.3 2024.3 401.3 1999.5 547.9 1915 707.3 1815.4 776.5 1913.6 767.4 1934.3 755.2 1946.5 733.5 1959.2 717.6 1963.3 702 1962.6 692.8 1961.3 684.9 1958 673.4 1958.2 665.9 1958.6 650 1974.9 636.5 1991.1 506.2 2138.2 Z M 205.9 1787.5 217.5 1844 271.3 1843.9 299 1844.6 310.3 1845.5 321 1846.2 331.5 1847.6 341.8 1849.6 391.7 1865.2 414.8 1872.4 414.6 1881.2 408.8 1890.9 386.5 1887.1 366.3 1883.6 327 1876.9 317.4 1876.2 252.1 1906.1 234.5 1869.9 217.1 1847.6 133.7 1846.7 133.6 1875.3 6.4 1875.2 2.6 1801.8 83.5 1821 205.9 1787.5 Z" data-holc_grade="D"/>
<path d="M 1 2140.1 132.3 2139.6 199.8 2139.3 506.2 2138.2 333.5 2333.2 330.1 2331.2 243.7 2428.2 179.8 2427 170.6 2386.3 168.8 2339.3 1.5 2338 1 2140.1 Z" data-holc_grade="D"/>
</g>
</svg>