<?xml version="1.0"?>
<svg xmlns="http://www.w3.org/2000/svg" version="1.2" baseProfile="tiny" width="3000" height="3376" viewBox="0 0 3000 3376" stroke-linecap="round" stroke-linejoin="round">
<g id="A">
<path d="M 2484.9 910.5 2483.4 1047.6 2413.2 1048.6 2414.9 1293.6 2408.8 1293.1 2391 1293.5 2389.4 1098.6 2389 1051.9 2373 1051.9 2289.3 1052.7 2219.3 1050.8 2218.4 1026.5 2180 1026.5 2179.7 999.1 2159.4 997.1 2144.4 998.3 2100.8 999.1 2102.1 970.1 2147.5 969.3 2179.4 970.1 2179.4 921.6 2145.6 921.6 2145 896.2 2163.1 896.4 2257.9 897.3 2257.6 890.6 2336.1 890.9 2335.5 836.5 2414.3 837.2 2415.3 911.5 2484.9 910.5 Z" data-holc_grade="A"/>
<path d="M 2258.3 1099.1 2257.1 1181.3 2218.4 1179.8 2189.3 1179.4 2124.9 1179.8 2070.8 1180.6 2070.2 1103.5 2164.7 1102.3 2165.6 1090.8 2213.5 1090.7 2257.7 1092.7 2258.3 1099.1 Z" data-holc_grade="A"/>
<path d="M 2410 1373.1 2329.6 1370.2 2331.1 1467.7 2300.4 1467.1 2260.1 1465.9 2258.6 1370.3 2181.9 1370.3 2181.9 1393.9 2165.1 1393.9 2165.6 1421.2 2127.3 1421.3 2126.3 1463.5 2088.9 1464.1 2089.4 1566 2080.8 1566 2049.6 1566 2049.6 1597 2012.2 1595.8 2012.7 1564.1 1960.4 1564.8 1961.1 1497.7 1961.4 1465.4 1962.3 1370.1 1962.6 1342.9 1962 1319.7 1961.7 1294 2212.6 1293.3 2391 1293.5 2408.8 1293.1 2410 1373.1 Z M 2069.1 1531.1 2069.3 1464.7 2015.9 1464.7 2014.7 1531.5 2069.1 1531.1 Z" data-holc_grade="A"/>
<path d="M 1646.5 1295.2 1646.5 1317.8 1675.7 1318.6 1750.9 1317.8 1817.2 1317.4 1885.6 1319.4 1950.3 1319.7 1962 1319.7 1962.6 1342.9 1909.2 1343.5 1817.2 1341.5 1735.8 1342.5 1619.2 1344.5 1570.3 1343.8 1550.2 1343.5 1549 1296.8 1583.9 1296.8 1583.9 1265.5 1646.1 1264.5 1646.5 1295.2 Z" data-holc_grade="A"/>
<path d="M 1656.2 1409.4 1657.7 1472 1590.2 1472 1592.1 1489.8 1658.5 1489.8 1659.3 1495.8 1659.6 1512.7 1659.3 1523.6 1594 1520.1 1559.1 1521.6 1475.5 1520.6 1465.9 1512.2 1451.7 1505.2 1442.1 1504.7 1442.5 1477.9 1476.6 1478.4 1478.2 1446.1 1569.5 1446.6 1570.2 1372.6 1636.6 1371.6 1655.8 1389 1656.2 1409.4 Z" data-holc_grade="A"/>
<path d="M 1753.5 1972.9 1733.8 1972.2 1718.9 1974.7 1663.8 1973.5 1664.2 1889 1663.3 1828.2 1662.5 1822.3 1813.3 1822.6 1813.1 1786 1833.1 1785.7 1835.9 1830.7 1829.9 1873.6 1830.4 1900.4 1812 1900.2 1812 1977.1 1763.8 1974.7 1753.5 1972.9 Z" data-holc_grade="A"/>
</g>
<g id="B">
<path d="M 2163.1 896.4 2161.5 721.9 2058 724.5 1958.3 724.5 1958.4 685.5 1958.6 611.7 2017.3 611.7 2017.3 646 2034.5 646.5 2035.3 669.8 2070.2 669.8 2071 684.7 2123.9 684.7 2123.9 710.5 2143.5 710 2142.7 684.2 2188.3 684.2 2188.7 712 2276.5 712.9 2275.8 762.1 2257 761.1 2257.4 796.9 2334.5 797.4 2335.5 836.5 2336.1 890.9 2257.6 890.6 2257.9 897.3 2163.1 896.4 Z" data-holc_grade="B"/>
<path d="M 371 984.6 425.7 984.6 426.9 933.9 458.5 935.5 458.4 1062.1 426.8 1062.1 427.3 1096.4 255.3 1100 255.9 1062 371.5 1062.8 371 984.6 Z" data-holc_grade="B"/>
<path d="M 156 597.2 296.4 597.3 298.1 620.4 338.9 621.2 336.6 677.9 315.3 680.8 313.6 665.9 188.8 665.8 185.3 657.6 155.4 658.3 156 597.2 Z" data-holc_grade="B"/>
<path d="M 596.7 581.3 590.3 573.9 574.8 564.9 566.2 567.9 555.3 569.4 544.9 565.6 530 558.2 524.2 550.7 521.3 545.5 521.9 531.3 370.7 529.7 371.3 453 391.6 455.2 390.2 412.3 370.6 411.7 372 374.4 445.8 376.3 447.3 299.3 472.3 300.6 471.8 227.3 595.4 227.4 596.8 302.5 596.3 378.3 597.7 442.3 445.3 436.6 444.3 475.1 596.2 480.8 596.7 581.3 Z" data-holc_grade="B"/>
<path d="M 2163.1 896.4 2145 896.2 2145.6 921.6 2179.4 921.6 2179.4 970.1 2147.5 969.3 2102.1 970.1 2100.8 999.1 2011.7 1000.7 1959.9 999.2 1959.8 986 1958.5 763.8 1958.3 724.5 2058 724.5 2161.5 721.9 2163.1 896.4 Z" data-holc_grade="B"/>
<path d="M 2389.4 1098.6 2358 1099 2284.1 1102.2 2258.3 1099.1 2257.7 1092.7 2213.5 1090.7 2165.6 1090.8 2164.7 1102.3 2070.2 1103.5 2070.8 1180.6 1987.1 1180.7 1961.6 1178.3 1960.4 1138.5 1973.6 1138.5 1973.5 1065.4 1958.2 1064.6 1959.9 999.2 2011.7 1000.7 2100.8 999.1 2144.4 998.3 2159.4 997.1 2179.7 999.1 2180 1026.5 2218.4 1026.5 2219.3 1050.8 2289.3 1052.7 2373 1051.9 2389 1051.9 2389.4 1098.6 Z" data-holc_grade="B"/>
<path d="M 2637.3 1160.1 2639.7 1328.7 2561.1 1330.7 2561.9 1374.9 2410 1373.1 2408.8 1293.1 2414.9 1293.6 2413.2 1048.6 2483.4 1047.6 2484.9 910.5 2524.4 910.4 2521.5 1160.8 2637.3 1160.1 Z" data-holc_grade="B"/>
<path d="M 1962.6 1342.9 1962.3 1370.1 1843.4 1370.1 1636.6 1371.6 1570.2 1372.6 1570.3 1343.8 1619.2 1344.5 1735.8 1342.5 1817.2 1341.5 1909.2 1343.5 1962.6 1342.9 Z M 1961.1 1236.4 1961.7 1294 1962 1319.7 1950.3 1319.7 1885.6 1319.4 1817.2 1317.4 1750.9 1317.8 1675.7 1318.6 1646.5 1317.8 1646.5 1295.2 1744.4 1295.9 1744.4 1234.9 1752.1 1235.2 1763.1 1232.1 1790.9 1234.5 1819.2 1233.3 1871 1233.9 1961.1 1236.4 Z" data-holc_grade="B"/>
<path d="M 1962.3 1370.1 1961.4 1465.4 1938.2 1465.4 1939.3 1411.3 1656.2 1409.4 1655.8 1389 1636.6 1371.6 1843.4 1370.1 1962.3 1370.1 Z" data-holc_grade="B"/>
<path d="M 1549 1296.8 1550.2 1343.5 1570.3 1343.8 1570.2 1372.6 1569.5 1446.6 1478.2 1446.1 1476.6 1478.4 1442.5 1477.9 1442.1 1504.7 1436.4 1520.6 1363.8 1520.1 1364.2 1436.2 1406 1436.7 1405.3 1370 1404.5 1300.1 1478.6 1300.6 1478.2 1183.8 1506.9 1185.3 1505.4 1296.1 1549 1296.8 Z" data-holc_grade="B"/>
<path d="M 1662.5 1822.3 1663.3 1828.2 1664.2 1889 1663.8 1973.5 1718.9 1974.7 1733.8 1972.2 1753.5 1972.9 1754.9 2013.2 1715.1 2012 1716.1 2117.6 1717.1 2203.9 1663.8 2203 1645.1 2202.6 1646.5 2180.9 1624 2180.3 1623.5 2163.5 1584.6 2161.7 1581.7 2049.9 1526.6 2050.5 1526.1 2015.1 1506.9 2013.9 1509.3 1831.9 1510.3 1746.8 1452.7 1746.2 1451.9 1669.3 1451.2 1595.3 1590.3 1595.3 1661.3 1595.9 1660.4 1755.5 1659 1794.6 1662.5 1822.3 Z" data-holc_grade="B"/>
<path d="M 1511.4 2201.7 1472.8 2202.1 1472.3 2087.2 1401.3 2085.9 1402.8 1746.2 1434.6 1746.2 1433.1 2049.9 1507.5 2050.9 1511.4 2201.7 Z" data-holc_grade="B"/>
</g>
<g id="C">
<path d="M 2860 1001.1 2859.8 1124.8 2859 1165 2711.7 1167.2 2710.6 1159.7 2637.3 1160.1 2521.5 1160.8 2524.4 910.4 2715.7 910.8 2715 948.6 2860 950.4 2860 1001.1 Z" data-holc_grade="C"/>
<path d="M 1320 2315.1 1319.7 2353 1320.2 2427.5 1260.2 2427.5 1259.2 2465.3 1242 2465.3 1242.9 2540.5 1261.6 2541.1 1261.2 2504.5 1317.8 2503.2 1318.3 2581.5 1283.1 2581.9 1145 2583.3 1145.7 2540.4 1147.9 2390.2 1185.8 2390.8 1184.9 2352.9 1202.6 2352.3 1201.7 2313.2 1214.6 2313.2 1216.6 1973.5 1280.9 1975.4 1280.4 1895.9 1219.5 1895.3 1218.6 1799 1217.7 1606.5 1216.2 1476.1 1215.3 1332.6 1226.3 1333.9 1244.9 1351.1 1258.4 1361 1284.4 1384.4 1286.3 1434.1 1290.2 1442 1322.4 1465.9 1322.1 1669.3 1322 1768.9 1322.3 2039.2 1320 2315.1 Z M 1129.6 1595.1 1126.4 1366.6 1140.8 1366 1140.8 1331.2 1188.3 1333.7 1188.7 1647.3 1165.7 1649.2 1166.2 1669.1 1130.7 1670.3 1129.6 1595.1 Z" data-holc_grade="C"/>
<path d="M 1451.9 1669.3 1322.1 1669.3 1322.4 1465.9 1290.2 1442 1286.3 1434.1 1284.4 1384.4 1258.4 1361 1244.9 1351.1 1226.3 1333.9 1290.1 1334.8 1311.7 1335.1 1311.7 1368 1405.3 1370 1406 1436.7 1364.2 1436.2 1363.8 1520.1 1436.4 1520.6 1435.4 1595.3 1451.2 1595.3 1451.9 1669.3 Z" data-holc_grade="C"/>
<path d="M 1434.6 1746.2 1402.8 1746.2 1401.3 2085.9 1472.3 2087.2 1472.8 2202.1 1511.4 2201.7 1547.2 2201.4 1547.7 2239.9 1585.1 2239.9 1584.9 2314.6 1320 2315.1 1322.3 2039.2 1322 1768.9 1322.1 1669.3 1451.9 1669.3 1452.7 1746.2 1434.6 1746.2 Z" data-holc_grade="C"/>
<path d="M 1664 2504.2 1664.3 2580.2 1433.4 2579.6 1433.9 2352.3 1319.7 2353 1320 2315.1 1584.9 2314.6 1584.6 2425.6 1663.8 2427.5 1664 2504.2 Z" data-holc_grade="C"/>
<path d="M 1663.8 2427.5 1663.8 2203 1717.1 2203.9 1716.1 2117.6 1715.1 2012 1754.9 2013.2 1810.6 2015.9 1810 2149.8 1809.1 2280.8 1865.3 2294.3 1866.8 2353.5 1887.1 2354.7 1889 2429.4 1924.3 2430.2 1925.5 2504.9 1863.8 2502.5 1840.1 2506.1 1664 2504.2 1663.8 2427.5 Z" data-holc_grade="C"/>
<path d="M 1211.8 2886.3 1211.6 2919.6 1220.3 2918.8 1222 2930 1264 2959.1 1242.1 2958.3 1241.6 3035.1 1351.6 3037.3 1349.3 3371.2 1291.6 3369.7 1200.6 3374.9 1204.1 3257.1 1102.1 3260.1 1103.9 3073.4 1088.3 3072.6 1086.6 3038.3 1052 3038.3 1053.8 2933.2 1088.9 2933.3 1089.5 2883.3 1211.8 2886.3 Z M 1145 2583.3 1283.1 2581.9 1283.1 2726.6 1355.1 2729.6 1353.9 2922.6 1281.3 2917.3 1280.8 2878.6 1241 2878.6 1240.4 2833.1 1222 2833.9 1222.4 2816.9 1222.6 2805.6 1105.7 2804 1108.3 2690.1 1110.9 2576 1145 2583.3 Z" data-holc_grade="C"/>
<path d="M 602.9 882.6 602.3 909.2 600.6 984.8 522.1 984.2 522.1 1136.8 313.6 1137.8 313.6 1141.7 144.2 1136.4 144.4 985.9 371 984.6 371.5 1062.8 255.9 1062 255.3 1100 427.3 1096.4 426.8 1062.1 458.4 1062.1 458.5 935.5 426.9 933.9 425.7 879.5 602.9 882.6 Z" data-holc_grade="C"/>
<path d="M 143.2 795.4 143.9 910.9 1 909.3 1.2 756.5 30.5 756.6 31.3 530 144.6 529.4 143.2 795.4 Z" data-holc_grade="C"/>
<path d="M 597 609.2 597.7 678.2 611.5 678.2 611.5 702.8 613.2 732.6 610.9 831 602.8 833.2 602.9 882.6 425.7 879.5 426.9 933.9 408.8 934.3 408.3 905.9 341.6 908.1 334.7 905.1 327.2 901.4 313.4 893.2 313.4 889.5 311.8 760.6 254.8 759 254.8 794.8 143.2 795.4 144.6 529.4 142.4 450.5 156.8 453.5 165.4 455.8 371.3 453 370.7 529.7 521.9 531.3 521.3 545.5 524.2 550.7 530 558.2 544.9 565.6 555.3 569.4 566.2 567.9 574.8 564.9 590.3 573.9 596.7 581.3 597 609.2 Z M 156 597.2 155.4 658.3 185.3 657.6 188.8 665.8 313.6 665.9 315.3 680.8 336.6 677.9 338.9 621.2 298.1 620.4 296.4 597.3 156 597.2 Z" data-holc_grade="C"/>
<path d="M 693.4 113.9 692.9 226.3 774.3 230.1 774.8 305.9 826 309 826 332 900.3 335.1 897.8 532.6 822.1 532.6 823 609.7 597 609.2 596.7 581.3 596.2 480.8 444.3 475.1 445.3 436.6 597.7 442.3 596.3 378.3 596.8 302.5 595.4 227.4 595.8 115.1 595.9 75.6 596.1 2.8 649 2.9 648.2 115.1 693.4 113.9 Z" data-holc_grade="C"/>
<path d="M 1958.4 685.5 1958.3 724.5 1958.5 763.8 1891.5 764.6 1806.8 765.8 1732.9 765.8 1654.4 767 1655 650.6 1655 578.2 1653.1 480.1 1798.5 479.3 1887.7 478.4 1889.3 536.1 1889 610.8 1811.1 610.8 1810.8 584.6 1773.4 583.4 1773.4 688.7 1837.8 688.3 1958.4 685.5 Z" data-holc_grade="C"/>
<path d="M 595.9 75.6 595.8 115.1 558.3 115.8 560 144.2 539.3 143.4 527.2 149.4 516.3 154.6 447.9 151.5 447.9 179.9 353.6 177.5 351.8 229 471.8 227.3 472.3 300.6 447.3 299.3 371.9 303.5 372 374.4 370.6 411.7 390.2 412.3 391.6 455.2 371.3 453 165.4 455.8 156.8 453.5 142.4 450.5 143.5 379.3 14.1 375.5 15.9 262.2 145.3 263.8 144.7 225.1 295.4 229.7 297.9 3.1 448.5 1 446.7 74.8 595.9 75.6 Z" data-holc_grade="C"/>
<path d="M 1654.4 767 1654.8 869.9 1592.5 868.7 1593.3 686.6 1591.7 609.9 1573.3 608.7 1573 558.6 1572.4 480.7 1653.1 480.1 1655 578.2 1655 650.6 1654.4 767 Z" data-holc_grade="C"/>
<path d="M 1654 986.9 1653.7 1033.5 1586.5 1035.1 1475.2 1035.1 1432.2 1033.9 1433.5 969.2 1434.4 923.1 1511.4 923.1 1511.7 896.8 1592.4 897.2 1592.5 868.7 1654.8 869.9 1654 986.9 Z" data-holc_grade="C"/>
<path d="M 1959.9 999.2 1958.2 1064.6 1973.5 1065.4 1973.6 1138.5 1960.4 1138.5 1961.6 1178.3 1961.1 1236.4 1871 1233.9 1819.2 1233.3 1790.9 1234.5 1763.1 1232.1 1752.1 1235.2 1744.4 1234.9 1736.7 1234.6 1736.7 1216.5 1654.7 1217.8 1653.7 1033.5 1654 986.9 1743.8 986.4 1959.8 986 1959.9 999.2 Z" data-holc_grade="C"/>
<path d="M 1433.5 969.2 1432.2 1033.9 1430.5 1067.5 1386 1068.3 1329.3 1067.1 1269.4 1066.7 1270.7 966.4 1342.5 969.1 1433.5 969.2 Z" data-holc_grade="C"/>
<path d="M 1654.7 1217.8 1583.7 1217.5 1581.8 1141.1 1507 1139.9 1506.9 1185.3 1478.2 1183.8 1478.6 1300.6 1404.5 1300.1 1405.3 1370 1311.7 1368 1311.7 1335.1 1290.1 1334.8 1288.2 1199.7 1329.9 1201 1329.3 1067.1 1386 1068.3 1430.5 1067.5 1432.2 1033.9 1475.2 1035.1 1586.5 1035.1 1653.7 1033.5 1654.7 1217.8 Z" data-holc_grade="C"/>
<path d="M 1329.3 1067.1 1329.9 1201 1288.2 1199.7 1290.1 1334.8 1226.3 1333.9 1227.3 1102.2 1268.6 1101 1269.4 1066.7 1329.3 1067.1 Z" data-holc_grade="C"/>
<path d="M 1961.4 1465.4 1961.1 1497.7 1709.9 1495.8 1659.3 1495.8 1658.5 1489.8 1592.1 1489.8 1590.2 1472 1657.7 1472 1656.2 1409.4 1939.3 1411.3 1938.2 1465.4 1961.4 1465.4 Z" data-holc_grade="C"/>
</g>
<g id="D">
<path d="M 2860 1001.1 2955.9 1001 2955.9 986.6 2998.5 987.5 2999 1139.6 2916.5 1140.1 2916.5 1125.7 2859.8 1124.8 2860 1001.1 Z" data-holc_grade="D"/>
<path d="M 918.2 609.9 823 609.7 822.1 532.6 897.8 532.6 900.3 335.1 826 332 826 309 774.8 305.9 774.3 230.1 692.9 226.3 693.4 113.9 770.1 114 771 151.2 825.1 153.7 828 201.6 900.8 202.2 901.8 191.7 978 189.8 977 156.9 1041.2 155.7 1035.8 507.2 994.6 507.2 993.6 583.6 972.1 584.2 971.6 611.5 918.2 609.9 Z" data-holc_grade="D"/>
<path d="M 1082.9 623.1 1082.1 682.7 1011.5 682.7 1011.5 642 1049.1 619.6 1082.9 623.1 Z" data-holc_grade="D"/>
<path d="M 1572.4 480.7 1573 558.6 1553.3 555.8 1435.2 557 1436.4 681.8 1432.7 841.6 1434.4 923.1 1433.5 969.2 1342.5 969.1 1270.7 966.4 1248.3 965.6 1248.3 938.5 1218.6 938.1 1220.8 699.3 1333.7 588.4 1434.1 489.5 1436 460.5 1472.1 427.8 1514 381.5 1571.5 381.5 1572.4 480.7 Z" data-holc_grade="D"/>
<path d="M 1573 558.6 1573.3 608.7 1591.7 609.9 1593.3 686.6 1592.5 868.7 1592.4 897.2 1511.7 896.8 1511.4 923.1 1434.4 923.1 1432.7 841.6 1436.4 681.8 1435.2 557 1553.3 555.8 1573 558.6 Z" data-holc_grade="D"/>
<path d="M 1436.1 5 1435.7 28.3 1434.2 47.2 1356.4 72.5 1359.1 153.5 1331.8 271.8 1331.5 307 1205.7 304.5 1202.7 156.5 1172.8 154.5 1174.7 55.6 1172 2.9 1436.1 5 Z" data-holc_grade="D"/>
<path d="M 1736.9 156 1735.5 224.9 1805.4 225.7 1838.6 229.3 1868.9 229.3 1871.1 382.3 1675.7 381.5 1675.1 308 1593.5 307.6 1592.3 233.3 1469 233.3 1469 191.9 1466.9 156.6 1736.9 156 Z" data-holc_grade="D"/>
<path d="M 1736.9 156 1735.3 1 1812.4 2.5 1814.3 20.9 1810.9 21.4 1813.9 42.3 1796.3 40.3 1797.1 66.1 1799.4 75.5 1797.8 154.5 1736.9 156 Z" data-holc_grade="D"/>
<path d="M 1961.1 1497.7 1960.4 1564.8 1960.9 1666.1 1876.1 1666.7 1796.6 1595.6 1795.1 1514.7 1659.6 1512.7 1659.3 1495.8 1709.9 1495.8 1961.1 1497.7 Z" data-holc_grade="D"/>
<path d="M 1032.3 2480.7 1030.6 2502.6 982 2502.3 982.1 2424.8 994 2424.3 995 2302.6 1010.7 2311.3 1023 2321.7 1028.3 2334.9 1028.3 2354.3 1024.3 2386.3 1027.2 2402.7 1027 2435.2 1031.2 2458.8 1032.3 2480.7 Z M 1201.7 2313.2 1202.6 2352.3 1184.9 2352.9 1185.8 2390.8 1147.9 2390.2 1145.7 2540.4 1127 2540.4 1127 2501 1043.8 2502.6 1040.4 2469.2 1040.4 2441.4 1037.4 2421.5 1036.8 2374.2 1037.7 2351.2 1037.4 2330.5 1031.9 2312.2 1033.4 2274.9 1140.3 2274.9 1181.8 2086.9 1190.1 2086.9 1187.9 2314.3 1201.7 2313.2 Z" data-holc_grade="D"/>
<path d="M 1102.1 3260.1 1049.1 3264.6 1049.7 3131.9 1063.5 3102.9 1064.1 3073 1073.3 3052.2 1086.6 3038.3 1088.3 3072.6 1103.9 3073.4 1102.1 3260.1 Z M 1052 3038.3 1001.1 3037.3 1001.1 3110 930 3111.2 994.4 2882.7 1089.5 2883.3 1088.9 2933.3 1053.8 2933.2 1052 3038.3 Z M 1222.4 2816.9 1222 2833.9 1240.4 2833.1 1241 2878.6 1280.8 2878.6 1281.3 2917.3 1353.9 2922.6 1353.9 2959.8 1264 2959.1 1222 2930 1220.3 2918.8 1211.6 2919.6 1211.8 2886.3 1212.2 2817.5 1222.4 2816.9 Z M 1105.7 2804 1050.9 2804 1053.9 2687.8 1108.3 2690.1 1105.7 2804 Z" data-holc_grade="D"/>
<path d="M 824.9 1537.4 861.8 1536.1 865.1 1567.2 894.9 1567.2 902.1 1576.5 903.5 1591.4 975 1592.7 980.2 1744.2 1017.6 1747.3 1017.1 1821.9 903.4 1820.6 902.5 1748.5 826.2 1747.9 824.9 1537.4 Z" data-holc_grade="D"/>
<path d="M 1188.3 1333.7 1140.8 1331.2 1140.8 1366 1126.4 1366.6 1129.6 1595.1 1060.7 1595.1 1041 1557.2 963.3 1554.7 957.6 1515 937.9 1514.4 937.5 1430.5 976.3 1431.8 915.9 1309.4 896.8 1199.5 957.7 1197 958.7 1143.6 917.4 1141.7 917.9 1079.9 886.3 1022.1 960.7 978.7 1031.1 1099.2 1161.5 1100.5 1162.9 1187.4 1194.5 1232.7 1191.2 1240.8 1188.3 1333.7 Z" data-holc_grade="D"/>
<path d="M 598 1155.8 649.8 1155.1 731.5 1234.9 776.9 1235.7 779.6 1520.3 674.9 1517.3 675.4 1629.1 752 1630.6 753.1 1671.6 604 1677.5 598 1155.8 Z" data-holc_grade="D"/>
<path d="M 600.6 984.8 621.1 985 621.6 1061 598 1061.7 598 1155.8 604 1677.5 305.3 1672.8 304.8 1591.6 145.9 1589.2 148.3 1478.9 162.7 1478 168 1473.7 295.1 1476.3 296.5 1489.3 481.1 1489.5 481.2 1427.4 315.7 1425.4 313.6 1141.7 313.6 1137.8 522.1 1136.8 522.1 984.2 600.6 984.8 Z" data-holc_grade="D"/>
<path d="M 823 609.7 918.2 609.9 918.1 631.5 933.7 646.4 815.7 762.6 825.5 790.2 749.5 835.6 749.5 852 721.9 850.5 717.3 859.5 714.4 866.2 707.5 868.4 698.3 871.4 698.3 908.6 602.3 909.2 602.9 882.6 602.8 833.2 610.9 831 613.2 732.6 611.5 702.8 611.5 678.2 597.7 678.2 597 609.2 823 609.7 Z M 670.9 837.3 647.3 833.3 623.4 833.3 622.8 858.7 660.2 860.7 673.1 862.7 670.9 837.3 Z" data-holc_grade="D"/>
</g>
</svg>