<?xml version="1.0"?>
<svg xmlns="http://www.w3.org/2000/svg" version="1.2" baseProfile="tiny" width="3000" height="2418" viewBox="0 0 3000 2418" stroke-linecap="round" stroke-linejoin="round">
<g id="A">
<path d="M 1518.3 691.1 1519 694.1 1566 694.7 1584.2 698 1601.3 696 1621.2 728.1 1530 728.9 1472.4 730.1 1471.9 688.7 1517.7 688.4 1518.3 691.1 Z" data-holc_grade="A"/>
<path d="M 2775 1031.9 2763.7 1015.1 2787.3 1004.8 2798 1001 2755.6 937.7 2788 926.5 2841.2 993.5 2827.9 1002.4 2802.2 1020.1 2791.2 1026.6 2775 1031.9 Z" data-holc_grade="A"/>
<path d="M 2788.4 863.9 2784.3 871.4 2825.9 889.9 2817.4 901.1 2799.2 894.1 2793.8 898.8 2807 918.5 2801.4 920.9 2788 926.5 2763 877.7 2760.1 874.8 2767.1 856.5 2788.4 863.9 Z" data-holc_grade="A"/>
<path d="M 2875.3 794.6 2937.3 816.6 2935.3 822.5 2931.9 857 2928.2 870.9 2916.1 906.3 2903.9 933.5 2889.7 949.2 2883.3 959.2 2879.9 969.2 2869.5 978.4 2853.2 986.6 2841.2 993.5 2788 926.5 2801.4 920.9 2802.6 925.5 2859.7 950.5 2867.4 948 2868.4 943.5 2807 918.5 2793.8 898.8 2799.2 894.1 2817.4 901.1 2825.9 889.9 2784.3 871.4 2788.4 863.9 2797.2 855.2 2807 859.2 2817.4 848.5 2853.9 863.4 2902.5 883.4 2908 874.9 2891.7 868.7 2897.1 859.4 2916.4 865.4 2917.7 860.4 2880.3 847 2884 840.5 2905.6 847.7 2926.2 822.5 2858 795.6 2858.6 792.1 2861.3 789.6 2875.3 794.6 Z" data-holc_grade="A"/>
<path d="M 2887.6 734.9 2895.7 708.6 2900.7 685.6 2903 675.4 2922.4 623 2924.8 614.7 2941.5 587.2 2950.8 578.5 2952.8 579.7 2955.6 586.3 2961.3 590.7 2977.5 602.1 2988.1 604.5 2994.1 612.6 2990.9 618.9 2988.5 631.4 2981.6 637.7 2976.7 651.4 2971 673 2966.2 679.9 2955.6 687.3 2950.4 720.2 2943.9 731.6 2939.8 750.7 2938.6 766.6 2940.6 786.9 2943.1 808.8 2937.3 816.6 2875.3 794.6 2887.6 734.9 Z" data-holc_grade="A"/>
<path d="M 2808.9 693.3 2850.7 703.2 2873 706.8 2895.7 708.6 2887.6 734.9 2830.4 732.2 2796.4 719.3 2797.6 692.4 2801.2 691.5 2808.9 693.3 Z" data-holc_grade="A"/>
<path d="M 831.5 1423.2 810.5 1430.1 810.3 1435.1 804.6 1436.9 803.5 1443.5 794 1448.9 768.1 1456.2 750 1459.8 750.8 1457.2 745.4 1449.7 729.7 1455.6 730.3 1463.6 721.1 1461 714.1 1463.6 695.1 1464 678.2 1453.2 678.2 1474.2 654.6 1470 650.8 1419.3 647.5 1410.3 733.2 1407.5 770.4 1407.5 800.4 1419.5 827.7 1412.9 831.5 1423.2 Z" data-holc_grade="A"/>
<path d="M 1472.4 730.1 1473.8 742.1 1475.4 759.8 1475.7 775.6 1474.5 791.1 1474.3 793.5 1476.5 815.5 1417.5 815.5 1365.2 816.2 1364.1 794.5 1363 785 1361.3 732.5 1407 731.5 1405.4 712.2 1434.9 712.6 1437.6 730.9 1472.4 730.1 Z" data-holc_grade="A"/>
<path d="M 1507.5 814.9 1505.4 791.5 1474.5 791.1 1475.7 775.6 1475.4 759.8 1473.8 742.1 1472.4 730.1 1530 728.9 1531.2 812.9 1507.5 814.9 Z" data-holc_grade="A"/>
<path d="M 954.2 905.3 954.7 916.1 952 920.7 926.9 921.5 926.2 906.7 858.8 907.9 856.6 845.7 875.3 844.9 895.5 851.6 895 824.9 923.1 823.7 925.2 864.2 952.8 874.4 954.2 905.3 Z" data-holc_grade="A"/>
<path d="M 1148 903.6 1035.8 904.4 1031.2 821.5 1088 821.1 1128.8 820.9 1131.2 861.4 1146.1 861.4 1148 903.6 Z" data-holc_grade="A"/>
<path d="M 2635.3 816.1 2581.1 855.9 2528.6 870.5 2500 878.5 2496.6 835.6 2476.3 827.4 2476.6 799.3 2520.6 745.4 2617 783.1 2635.3 816.1 Z" data-holc_grade="A"/>
<path d="M 990.9 35.6 983.3 43.4 983.3 48.8 979.8 54.7 979 61.9 980.1 74.6 992.8 80.2 993.3 101.5 992.5 107.9 986.6 114 983.6 122.8 979.3 132 975.2 134.8 965 140.7 954.7 137.7 935 139.1 920.9 139.5 900.4 147.3 885 152.3 881.2 119.4 880.4 81.6 926.9 80.2 926.3 61.9 918.2 61.7 911.2 57.9 909.3 21.3 933.9 12.3 933.3 1.8 957.9 1 990.9 1.6 990.9 35.6 Z" data-holc_grade="A"/>
<path d="M 1405.1 470.1 1391.9 468.8 1386.5 463.9 1377.4 462.1 1363.9 461.1 1350.7 452.7 1343.3 452.4 1342.3 421.3 1354.8 420.3 1353.1 404.1 1375 403.3 1404.1 438.7 1405.1 470.1 Z" data-holc_grade="A"/>
<path d="M 2727.4 961.2 2763.7 1015.1 2775 1031.9 2759.1 1037.6 2747.8 1042.4 2740.3 1049.1 2729.6 1062.3 2732.5 1065.9 2725.4 1080.2 2720.5 1089.6 2712.8 1093.7 2706.9 1117.4 2701.7 1126.2 2695.6 1131.7 2687.5 1136.8 2680 1140.4 2675.2 1147.3 2675.2 1139.6 2667.7 1131.5 2668.7 1122.9 2638.8 1076.2 2650.8 1072.3 2655.7 1077.1 2665.8 1073.8 2660.6 1064.4 2671.9 1059.9 2624.6 984.2 2719.6 949.5 2727.4 961.2 Z" data-holc_grade="A"/>
</g>
<g id="B">
<path d="M 960.2 823.1 923.1 823.7 919.9 772 917.8 723.1 956.4 721.5 958 751.1 960.2 823.1 Z M 1361.3 732.5 1363 785 1325.2 785.6 1324.4 775.2 1307.4 775.2 1309.2 816.6 1277.9 816.5 1213.6 818 1213.6 807.3 1254.1 805.9 1250.1 732.9 1271.2 732.9 1270.3 719.1 1216.3 720.3 1218.7 776.6 1169.3 777.2 1166.6 726.7 1182.5 726.7 1182 715.6 1250.3 714.6 1249.8 694.6 1261.7 694.6 1262.8 703.2 1263.3 712.2 1360.6 711.6 1361.3 732.5 Z M 1139 695.7 1140.9 737.2 1132.2 737.6 1133.3 769.5 1079.8 770.1 1080.1 738 1072.8 738.2 1072 717.8 1047.1 718.6 1046.6 703.5 1039.8 703.3 1039 699.1 1013.6 698.7 1012.5 679 1043.9 677.2 1044.4 693.1 1049.8 693.1 1050.1 697.7 1129.8 696.5 1127.4 660.6 1146 677.2 1147.9 695.7 1139 695.7 Z" data-holc_grade="B"/>
<path d="M 1383.8 1185.3 1269.4 1186.8 1267.3 1146.1 1418.5 1141.9 1426.7 1141.6 1432.4 1184.9 1396.6 1185.3 1383.8 1185.3 Z" data-holc_grade="B"/>
<path d="M 2476.6 799.3 2476.3 827.4 2496.6 835.6 2500 878.5 2479.3 884.4 2450.2 841.5 2426.2 806.3 2313 844.9 2323.6 827.4 2313.4 810 2309.3 807.8 2305 802.7 2286.9 789.9 2284.2 785.5 2311.8 775.1 2310 744.4 2305.8 673.8 2359.3 672.2 2362.3 712.1 2436.3 711.9 2436.6 751.4 2474.4 750.8 2476.6 799.3 Z" data-holc_grade="B"/>
<path d="M 2450.2 841.5 2302 892.7 2289.4 881 2313 844.9 2426.2 806.3 2450.2 841.5 Z" data-holc_grade="B"/>
<path d="M 2500 878.5 2528.6 870.5 2561 917.6 2463.8 953.3 2457.4 943.7 2428.1 899.2 2377.5 913.6 2334.8 924.8 2302 892.7 2450.2 841.5 2479.3 884.4 2500 878.5 Z" data-holc_grade="B"/>
<path d="M 2637 818.8 2715.7 939.9 2701.7 947.8 2664.5 962.2 2627.2 973.4 2601.2 978 2561 917.6 2528.6 870.5 2581.1 855.9 2635.3 816.1 2637 818.8 Z" data-holc_grade="B"/>
<path d="M 1108.3 87 1108.1 84.6 1083 84.4 1082.6 76.8 1074.1 76.8 1072.9 46.4 1060.7 44.9 1058.5 38.2 1064.4 30.9 1085.4 30.1 1084.4 18.5 1103.1 18 1105.7 60.9 1155.9 60.9 1154.9 42.5 1215.3 40.3 1217.7 72.7 1174.6 74.3 1175.8 85.5 1108.3 87 Z" data-holc_grade="B"/>
<path d="M 1115.8 180.2 1150.2 179.8 1167.1 196.3 1166.7 208.9 1169 219.4 1159.3 227.3 1137.6 228.8 1118.4 229.2 1115.8 180.2 Z" data-holc_grade="B"/>
<path d="M 902.4 330.8 972.7 329.9 1026.2 328.7 1069 326.8 1068.4 350 1068.4 402.1 1067.4 442 1055.7 453.2 961 454.7 961.7 425.5 905 425.3 902.4 330.8 Z" data-holc_grade="B"/>
<path d="M 1371 319.4 1377.7 329.6 1373.3 334.4 1372 350.8 1344 350.1 1344 360.3 1330.1 360.5 1294.7 321.2 1258.2 281.8 1367.6 276.4 1394.3 298.3 1353.8 298 1371 319.4 Z" data-holc_grade="B"/>
<path d="M 1353.1 404.1 1354.8 420.3 1342.3 421.3 1343.3 452.4 1288.9 453.7 1290.9 487.3 1237.2 488.3 1235.9 441.7 1307.5 439.2 1304.5 403.3 1353.1 404.1 Z" data-holc_grade="B"/>
<path d="M 1518.3 691.1 1517.7 688.4 1471.9 688.7 1474 651.6 1526.2 650.7 1527.1 669 1524.2 686.3 1518.3 691.1 Z" data-holc_grade="B"/>
<path d="M 1428.1 465.1 1421 469.8 1405.1 470.1 1404.1 438.7 1375 403.3 1396.3 402.8 1397.7 414.1 1409.5 423.8 1410.2 434.2 1427 434.2 1428.7 449.2 1414.9 450.4 1428.1 465.1 Z" data-holc_grade="B"/>
<path d="M 1481.5 526.2 1410.1 526.3 1398 525.9 1389.2 525.6 1386.8 486.2 1429.8 485.7 1450 485.4 1460.1 496.2 1481.7 495.2 1485.5 515.1 1473.6 514.8 1481.5 526.2 Z" data-holc_grade="B"/>
<path d="M 1410.1 526.3 1481.5 526.2 1498.6 551 1429.1 550.2 1428.7 540.8 1410.1 540.5 1410.1 526.3 Z" data-holc_grade="B"/>
<path d="M 2625.6 1053 2622.3 1047.2 2638.2 1043.1 2649.5 1060.8 2660.6 1056.3 2648.9 1038.1 2641.4 1040.7 2601.2 978 2627.2 973.4 2664.5 962.2 2701.7 947.8 2715.7 939.9 2719.6 949.5 2624.6 984.2 2671.9 1059.9 2660.6 1064.4 2665.8 1073.8 2655.7 1077.1 2650.8 1072.3 2638.8 1076.2 2625.6 1053 Z" data-holc_grade="B"/>
<path d="M 2788 926.5 2755.6 937.7 2798 1001 2787.3 1004.8 2744.2 942.5 2727 947.8 2732.9 958.8 2727.4 961.2 2719.6 949.5 2715.7 939.9 2738.8 907.6 2744.9 899.2 2757.6 878.8 2760.1 874.8 2763 877.7 2788 926.5 Z" data-holc_grade="B"/>
<path d="M 2865.7 847.7 2853.9 863.4 2817.4 848.5 2807 859.2 2797.2 855.2 2788.4 863.9 2767.1 856.5 2774 841.6 2784.3 819.1 2785 813.4 2787.1 796.4 2812.4 805.8 2808.3 822.3 2865.7 847.7 Z" data-holc_grade="B"/>
<path d="M 2900.7 685.6 2811.8 665.8 2810.6 673.9 2811 681.1 2812.2 685.2 2808.9 693.3 2801.2 691.5 2797.6 692.4 2796.8 682.3 2818.3 622.7 2898.1 620.3 2897.7 615 2924.8 614.7 2922.4 623 2903 675.4 2900.7 685.6 Z" data-holc_grade="B"/>
<path d="M 596.3 944.6 584.3 945.8 582 948.6 575.5 951.7 568.4 953.4 558.7 951.3 545 945.5 534.7 940.3 530.5 935 524.6 924.7 525.6 917 593.7 914.4 596.3 944.6 Z" data-holc_grade="B"/>
<path d="M 831.5 1423.2 827.7 1412.9 800.4 1419.5 770.4 1407.5 733.2 1407.5 647.5 1410.3 643.7 1327.4 697.1 1327.9 728.2 1326.6 860.6 1322.9 821.4 1376.5 829.1 1377.5 832.9 1393 829.5 1393.8 830.7 1401.2 894.3 1392.3 901.4 1406.5 831.5 1423.2 Z" data-holc_grade="B"/>
<path d="M 871.4 1462.5 879.5 1481.5 884.9 1485.2 867.4 1506 830.2 1488.5 818.7 1489 812.3 1476.7 871.4 1462.5 Z" data-holc_grade="B"/>
<path d="M 1365.2 816.2 1330.6 816.7 1327.9 816.7 1326.3 793.9 1364.1 794.5 1365.2 816.2 Z" data-holc_grade="B"/>
<path d="M 1269.4 1186.8 1383.8 1185.3 1386.2 1222.7 1341.9 1224 1342.3 1239.7 1310.2 1240.5 1310.9 1251.9 1303.1 1251.2 1303.4 1260.7 1286.2 1260.9 1286.2 1271.4 1273.7 1270.7 1269.4 1186.8 Z" data-holc_grade="B"/>
<path d="M 1155.1 1728.6 1131.3 1778.7 1045.5 1753.6 1059.6 1725.5 1104.4 1714.7 1155.1 1728.6 Z" data-holc_grade="B"/>
<path d="M 1248.2 1916.3 1248.4 1928.2 1172.5 1929.2 1171.1 1881.2 1201.5 1880.9 1200.9 1861.7 1253.2 1860.4 1256.6 1836.2 1312.3 1840.2 1309.9 1879.4 1248.5 1881.7 1248.2 1916.3 Z" data-holc_grade="B"/>
<path d="M 1436.4 1874.5 1425.9 1875.9 1415.7 1876.6 1417.7 1867.8 1394.9 1870.8 1369.5 1872.4 1345.9 1872.9 1349.8 1857.9 1364.3 1847.4 1383.2 1849.2 1394.8 1848 1408.2 1846.7 1422.4 1845.2 1433.2 1845.7 1442 1850.4 1440.6 1856.9 1436.4 1874.5 Z" data-holc_grade="B"/>
<path d="M 1249.4 2007.5 1248.4 1928.2 1248.2 1916.3 1272.7 1928.2 1281.4 1928.8 1288.7 1927.3 1296.4 1923.1 1296.4 1965.8 1298.1 1968.5 1298.7 2008 1249.4 2007.5 Z" data-holc_grade="B"/>
<path d="M 1266.8 2400 1275.7 2370.3 1284 2336.5 1261.1 2333.3 1267 2321.8 1269.8 2314.4 1298 2319.1 1296.7 2333.2 1282.2 2381.4 1274 2396.6 1266.8 2400 Z" data-holc_grade="B"/>
<path d="M 1209.8 2337.7 1209.8 2367.7 1161 2417.5 1155.3 2417.5 1155.7 2337.8 1185.9 2338.6 1209.8 2337.7 Z" data-holc_grade="B"/>
<path d="M 1673.6 802.9 1678 809.5 1612.9 810.2 1599.9 792.7 1594 783.6 1603.2 781.2 1615.9 789.7 1630.7 793.5 1651.8 795.9 1663.7 798.7 1673.6 802.9 Z" data-holc_grade="B"/>
<path d="M 2920.4 466.7 2900.1 461.6 2898.1 361.5 2937.8 328 2963.7 248 2974.3 248 2962.9 280.1 2960.6 300.5 2962.3 319.7 2940.6 351.3 2931.2 373 2922.4 398.9 2922.4 443.9 2921.1 451.2 2920.4 466.7 Z" data-holc_grade="B"/>
<path d="M 88.2 1543.5 89.8 1555.1 94 1565.4 81.7 1567.6 68.1 1562.1 56.4 1561.3 38.3 1564.7 37.6 1543.1 88.2 1543.5 Z" data-holc_grade="B"/>
<path d="M 1507.5 814.9 1476.5 815.5 1474.3 793.5 1474.5 791.1 1505.4 791.5 1507.5 814.9 Z" data-holc_grade="B"/>
<path d="M 858.8 907.9 815 908.7 812.7 846.9 813.1 827.7 895 824.9 895.5 851.6 875.3 844.9 856.6 845.7 858.8 907.9 Z" data-holc_grade="B"/>
<path d="M 954.2 905.3 952.8 874.4 925.2 864.2 923.1 823.7 960.2 823.1 1031.2 821.5 1035.8 904.4 954.2 905.3 Z" data-holc_grade="B"/>
<path d="M 1366 832.3 1366.6 855.5 1418.4 854.4 1418.5 856 1420.1 898.4 1368.4 899.8 1337.3 900.3 1314.9 900.1 1315.7 919.2 1285.7 920.2 1285.5 940.6 1264.1 939.8 1231.7 940.6 1207.7 941.4 1184.2 942.2 1149.1 942.7 1148 903.6 1146.1 861.4 1173.1 860.5 1202.3 859.6 1200.8 831.4 1200.1 818.3 1213.6 818 1277.9 816.5 1309.2 816.6 1327.9 816.7 1330.6 816.7 1365.2 816.2 1366 832.3 Z" data-holc_grade="B"/>
<path d="M 1149.1 942.7 1150.3 983.2 1150.9 1004.6 1117.7 1004.2 1118.5 1026.6 1104.5 1027 1103.1 997.8 1001.3 1001.4 945.1 1002.2 944 987.8 930.1 988 926.9 921.5 952 920.7 954.7 916.1 954.2 905.3 1035.8 904.4 1148 903.6 1149.1 942.7 Z" data-holc_grade="B"/>
<path d="M 1371.7 1019.4 1317.7 1020.8 1318 978 1370.3 977.3 1371.7 1019.4 Z" data-holc_grade="B"/>
</g>
<g id="C">
<path d="M 692.6 746.6 643 746.6 638.7 712.4 666.3 711.5 689.6 710.7 692.6 746.6 Z" data-holc_grade="C"/>
<path d="M 1610.5 852.5 1584.7 852.8 1581.8 810.5 1610.1 849.8 1610.5 852.5 Z" data-holc_grade="C"/>
<path d="M 690.3 1156.9 716.7 1156.1 720.1 1205.5 693.7 1206.8 690.3 1156.9 Z" data-holc_grade="C"/>
<path d="M 728.2 1326.6 697.1 1327.9 694.7 1275.9 723.4 1274.2 728.2 1326.6 Z" data-holc_grade="C"/>
<path d="M 505.6 1330.4 340.8 1333.9 344.9 1415.3 319.8 1416 150.3 1419.5 143.5 1338.4 202.3 1337.4 199.9 1256 284.4 1253.7 285.4 1293.2 367.1 1292.7 365.4 1252 500.8 1249 505.6 1330.4 Z" data-holc_grade="C"/>
<path d="M 37.6 1543.1 38.3 1564.7 56.4 1561.3 68.1 1562.1 81.7 1567.6 94 1565.4 89.8 1555.1 88.2 1543.5 127.4 1543.8 128.1 1594.4 213.4 1580.3 214.3 1625.4 132 1628 71 1625.4 51.9 1625.9 2 1626.3 1 1542.9 37.6 1543.1 Z" data-holc_grade="C"/>
<path d="M 132 1628 131.3 1668.1 66.2 1668.8 54.8 1670.7 5.5 1671.9 2 1626.3 51.9 1625.9 71 1625.4 132 1628 Z" data-holc_grade="C"/>
<path d="M 654.6 1470 656.4 1491.6 657.3 1502.2 559.7 1521 352 1552.7 344.9 1415.3 396.6 1414.1 462.8 1413.8 506.9 1413 647.5 1410.3 650.8 1419.3 654.6 1470 Z" data-holc_grade="C"/>
<path d="M 892.4 1452.5 777.5 1480.2 777.2 1469.3 656.4 1491.6 654.6 1470 678.2 1474.2 685.4 1477.5 694.8 1475.7 706 1481 712.4 1474.2 734.7 1472.3 746.1 1468.5 756.3 1463.3 768.4 1462.5 792.4 1457.5 804.9 1452 807.9 1443.5 810.6 1437.8 816.4 1438.5 837.7 1436 845.1 1430.3 854.5 1422.3 875.5 1421.1 885.3 1414.8 897.1 1410.6 905.9 1409.1 909.6 1418.6 915.7 1425.5 917.4 1431.8 923.8 1433.3 926.8 1444 892.4 1452.5 Z" data-holc_grade="C"/>
<path d="M 656.4 1491.6 777.2 1469.3 777.5 1480.2 892.4 1452.5 900.8 1469.3 903.5 1469.8 911.3 1476.7 876.5 1520.2 954.2 1556.7 960.2 1556.2 959.6 1542.7 974.8 1525.7 992 1525 1049.1 1556.7 1082.2 1542.9 1090.9 1547.2 1041.3 1606.7 970.7 1578.4 831.6 1579.4 657.7 1582.4 657.3 1502.2 656.4 1491.6 Z M 871.4 1462.5 812.3 1476.7 818.7 1489 830.2 1488.5 867.4 1506 884.9 1485.2 879.5 1481.5 871.4 1462.5 Z" data-holc_grade="C"/>
<path d="M 1170.3 1637.6 1127.7 1623 1188.6 1548.2 1243.4 1567.4 1207.4 1612.9 1194.5 1615.8 1179.9 1628 1170.3 1637.6 Z" data-holc_grade="C"/>
<path d="M 1337.4 1548.6 1345.5 1557.3 1353.6 1577.4 1347.5 1586.5 1333.5 1587.7 1291.1 1633.1 1282.6 1629.2 1259.8 1655.2 1247.2 1652.8 1238.4 1643.2 1229 1640.1 1221.6 1647.4 1200.7 1651.6 1193.8 1648.4 1212.3 1625.4 1281.3 1608.9 1294.6 1591.6 1252.2 1601.7 1299.4 1543.2 1337.4 1548.6 Z" data-holc_grade="C"/>
<path d="M 1564.6 852.9 1567.3 894.8 1536.8 895.6 1479.4 896.9 1478.5 839.2 1508.4 838.8 1508.9 853.8 1564.6 852.9 Z" data-holc_grade="C"/>
<path d="M 1193.8 1648.4 1200.7 1651.6 1221.6 1647.4 1217.3 1651.6 1155.1 1728.6 1104.4 1714.7 1085.8 1708.9 1131.8 1653.4 1151.5 1660.1 1170.3 1637.6 1193.8 1648.4 Z" data-holc_grade="C"/>
<path d="M 1309.8 1680.5 1318.5 1683.5 1335.7 1707.8 1349 1719 1364.2 1734.6 1357.7 1741.8 1375.2 1743.3 1382 1748.3 1380.1 1767 1372 1773.5 1369.1 1784.8 1377.2 1796.3 1377.2 1805.2 1374.6 1809.3 1367.4 1814.3 1366.8 1824.2 1365.5 1829.2 1364.2 1835.9 1368.4 1839.5 1374.3 1840.5 1385.9 1840.5 1394.8 1848 1383.2 1849.2 1364.3 1847.4 1349.8 1857.9 1345.9 1872.9 1344.2 1880.1 1342.8 1889.9 1339.6 1895.3 1332.3 1903.1 1323.7 1909.8 1318.6 1913.7 1305.7 1915.6 1305.7 1920.3 1298.8 1920.7 1296.4 1923.1 1288.7 1927.3 1281.4 1928.8 1272.7 1928.2 1248.2 1916.3 1248.5 1881.7 1309.9 1879.4 1312.3 1840.2 1256.6 1836.2 1253.2 1860.4 1200.9 1861.7 1201.5 1880.9 1171.1 1881.2 1172.5 1929.2 1134.7 1929.3 1129.5 1782.6 1131.3 1778.7 1155.1 1728.6 1217.3 1651.6 1221.6 1647.4 1229 1640.1 1238.4 1643.2 1247.2 1652.8 1259.8 1655.2 1284.1 1670.8 1294.8 1675.4 1309.8 1680.5 Z" data-holc_grade="C"/>
<path d="M 1510.1 1665.7 1511.1 1654.9 1514.9 1642.2 1537.8 1649.5 1523.6 1668.3 1510.1 1665.7 Z" data-holc_grade="C"/>
<path d="M 1510.1 1665.7 1523.6 1668.3 1537.8 1649.5 1514.9 1642.2 1517.6 1633.3 1513.4 1629.9 1495.8 1624.6 1506.5 1608.8 1526 1616.5 1560.7 1626.1 1567.2 1628.2 1517.6 1698.5 1472.5 1687.5 1483.5 1657.5 1510.1 1665.7 Z" data-holc_grade="C"/>
<path d="M 1443.6 1829.3 1432 1827.4 1438.5 1814.2 1443.6 1802.4 1452.4 1800 1458.6 1784.4 1448.8 1782 1450.8 1774.4 1443.6 1772.7 1465 1709.1 1472.5 1687.5 1517.6 1698.5 1510.4 1706.7 1492.9 1706.9 1490.3 1718.9 1485.8 1730.4 1484.2 1736.2 1513.7 1739.8 1492 1770 1481.6 1781.8 1475.4 1781.6 1467.3 1806.5 1456 1805.3 1450.1 1823.1 1443.6 1829.3 Z" data-holc_grade="C"/>
<path d="M 1362.1 2025.4 1374.2 1981.7 1406.7 1885.7 1395.5 1877.9 1377.5 1879.5 1369.6 1879.7 1344.2 1880.1 1345.9 1872.9 1369.5 1872.4 1394.9 1870.8 1417.7 1867.8 1415.7 1876.6 1425.9 1875.9 1436.4 1874.5 1434.8 1900.3 1437.2 1939.7 1435.6 1943.5 1428.9 1949.2 1429.3 1961 1435.9 1979.6 1442.2 1978.9 1447.7 1981.3 1448.9 1983.5 1449 1988.3 1456.5 1990 1456.9 1993.3 1451.2 1995.8 1455.8 2005.1 1456 2010.4 1451.7 2017.7 1452.1 2023.1 1448.8 2029.7 1447.7 2033.2 1447.1 2041 1444 2045.4 1441.1 2049 1437.8 2055.1 1424.8 2052.7 1413.9 2054.7 1396.7 2056.9 1379.6 2059.5 1356.2 2060 1356.9 2047.6 1360.9 2030.2 1362.1 2025.4 Z" data-holc_grade="C"/>
<path d="M 1332.3 1903.1 1333.3 1917.5 1339 1917.3 1339.8 1942.5 1338.8 1968.5 1323.7 1968.3 1324.4 2006.8 1332.5 2007 1332.8 2025.6 1350.7 2025.6 1352.1 2048.6 1327.4 2129.6 1256.9 2132.1 1251.8 2060.8 1249.4 2007.5 1298.7 2008 1298.1 1968.5 1296.4 1965.8 1296.4 1923.1 1298.8 1920.7 1305.7 1920.3 1305.7 1915.6 1318.6 1913.7 1323.7 1909.8 1332.3 1903.1 Z" data-holc_grade="C"/>
<path d="M 1161 2417.5 1209.8 2367.7 1209.8 2337.7 1226.6 2337.2 1261.1 2333.3 1284 2336.5 1275.7 2370.3 1266.8 2400 1259.1 2401.2 1250.7 2405 1228.3 2401.7 1208.2 2397 1187.7 2416.9 1161 2417.5 Z" data-holc_grade="C"/>
<path d="M 1417.9 1256.4 1410.8 1262.3 1396.6 1267.8 1382.8 1269.3 1381.8 1239.2 1360.5 1239.5 1362.2 1258.9 1328.1 1259.7 1328.4 1311.4 1317.3 1311.6 1317.3 1339.6 1303.8 1342.8 1304.1 1369 1308.5 1371.8 1308.8 1375.5 1280.1 1377.8 1279.1 1348.3 1275.7 1348.6 1273.7 1270.7 1286.2 1271.4 1286.2 1260.9 1303.4 1260.7 1303.1 1251.2 1310.9 1251.9 1310.2 1240.5 1342.3 1239.7 1341.9 1224 1386.2 1222.7 1383.8 1185.3 1396.6 1185.3 1398.3 1207.8 1392.9 1208 1394.6 1226.5 1387.5 1226.7 1417.9 1256.4 Z" data-holc_grade="C"/>
<path d="M 1273.7 1270.7 1275.7 1348.6 1279.1 1348.3 1280.1 1377.8 1279.8 1386.3 1211.9 1396.7 1198.1 1370.5 1130.2 1389.8 1129.5 1349.3 1130.5 1343.8 1139 1336.1 1152.1 1331.8 1162.6 1330.6 1161.9 1273.9 1161.8 1271.6 1160.9 1251.2 1158.7 1206.3 1158.3 1198.1 1157.9 1188.8 1228 1187.5 1269.4 1186.8 1273.7 1270.7 Z" data-holc_grade="C"/>
<path d="M 1479 910.9 1479.4 896.9 1536.8 895.6 1536.5 918.5 1478.8 919.2 1479 910.9 Z" data-holc_grade="C"/>
<path d="M 2853.9 863.4 2865.7 847.7 2880.3 847 2917.7 860.4 2916.4 865.4 2897.1 859.4 2891.7 868.7 2908 874.9 2902.5 883.4 2853.9 863.4 Z" data-holc_grade="C"/>
<path d="M 2801.4 920.9 2807 918.5 2868.4 943.5 2867.4 948 2859.7 950.5 2802.6 925.5 2801.4 920.9 Z" data-holc_grade="C"/>
<path d="M 2763.7 1015.1 2727.4 961.2 2732.9 958.8 2727 947.8 2744.2 942.5 2787.3 1004.8 2763.7 1015.1 Z" data-holc_grade="C"/>
<path d="M 2622.3 1047.2 2576.6 980.8 2601.2 978 2641.4 1040.7 2648.9 1038.1 2660.6 1056.3 2649.5 1060.8 2638.2 1043.1 2622.3 1047.2 Z" data-holc_grade="C"/>
<path d="M 1805.3 661.4 1805.6 724.8 1792.7 724.8 1793.1 768.7 1740.8 769.3 1742 725.7 1694.6 726.9 1653.7 726.3 1621.2 728.1 1601.3 696 1598.5 691.6 1615.2 688 1647.2 686.5 1668.6 687.1 1641.1 646.4 1644.3 643.7 1712 643.4 1728.4 642.7 1795.5 639.8 1795.5 642.8 1805.2 643.1 1805.3 661.4 Z" data-holc_grade="C"/>
<path d="M 1694.6 726.9 1696.2 810 1678 809.5 1673.6 802.9 1651.6 769.6 1621.2 728.1 1653.7 726.3 1694.6 726.9 Z" data-holc_grade="C"/>
<path d="M 1918.6 735.8 1918 722.7 1891.7 723.6 1856.4 723.6 1839 723.8 1805.6 724.8 1805.3 661.4 1850.1 660.2 1850.5 683.1 1869.7 682.6 1869.4 667.9 1882.2 667.9 1882.9 682.1 1971 681.1 1968 639.5 2040.6 638.2 2040.2 648.7 2026.1 649.2 2026.4 658.2 1996.3 658.4 1997.4 680.3 2046.7 679.1 2047.3 701.1 2049.3 723.4 2049.9 752.3 1987 753.8 1919.9 756.4 1918.6 735.8 Z" data-holc_grade="C"/>
<path d="M 2140.4 777 2142.3 800.2 2173.4 800.2 2181.2 808.6 2177 810.3 2205.9 843 2144.3 865.8 2144.6 878 2107 878.5 2106.7 858.8 2143.3 859.8 2142 840.7 2125.1 839 2124.8 793.7 2140.4 777 Z M 2140.4 777 2106.3 778.4 2105.4 759.3 2121.2 759.8 2121.9 739.7 2104.7 740.4 2105.4 719.3 2084.3 720 2083.3 664.3 2084.2 637.5 2137.2 636.2 2137.8 678.8 2166.2 678.6 2166.9 699.3 2138.9 699.5 2138.9 718.7 2175.7 717 2175 734.2 2140.4 777 Z" data-holc_grade="C"/>
<path d="M 2224 746.3 2224.1 757.7 2197.1 758.2 2196.8 736.9 2210.7 736.4 2209.7 716.1 2226.6 715.9 2226.9 683.3 2249 683.3 2249.6 725.7 2223.4 726.6 2224 746.3 Z" data-holc_grade="C"/>
<path d="M 2313 844.9 2289.4 881 2260 860.4 2232.1 837.2 2196.4 798.7 2224.7 799.6 2224.1 757.7 2224 746.3 2310 744.4 2311.8 775.1 2284.2 785.5 2286.9 789.9 2305 802.7 2309.3 807.8 2313.4 810 2323.6 827.4 2313 844.9 Z" data-holc_grade="C"/>
<path d="M 2473 710.4 2436.3 711.9 2362.3 712.1 2359.3 672.2 2357.9 630.2 2540.8 625.9 2538.8 638.8 2541.1 707.7 2528.1 708.2 2527.1 668.7 2485.6 670.4 2486.6 710.1 2473 710.4 Z" data-holc_grade="C"/>
<path d="M 701.8 828 704.1 869.2 647.2 870.5 644.4 789.8 643 746.6 692.6 746.6 733.1 746.6 733.1 749.5 736.3 752.6 744.4 755 746.7 766.5 743.8 770.5 744.1 776.3 743.1 787.8 699.7 770.8 701.8 828 Z" data-holc_grade="C"/>
<path d="M 2474.4 750.8 2436.6 751.4 2436.3 711.9 2473 710.4 2474 728.1 2503.5 727.1 2498 719.2 2512.2 718.7 2512.9 740.3 2474.9 741 2474.4 750.8 Z" data-holc_grade="C"/>
<path d="M 1371.7 1019.4 1372.5 1042.4 1417.6 1060.6 1412.7 1070.9 1412.7 1081.2 1414.6 1094.4 1417.6 1105.4 1418.5 1141.9 1267.3 1146.1 1262.6 1024.7 1221.5 1025.8 1207.6 1025.8 1166.9 1026.6 1166.9 1003.8 1150.9 1004.6 1150.3 983.2 1181.7 983.4 1235.2 981.8 1239 978.6 1260.9 978.8 1318 978 1317.7 1020.8 1371.7 1019.4 Z" data-holc_grade="C"/>
<path d="M 1479 910.9 1370.4 911.8 1368.4 899.8 1420.1 898.4 1479.4 896.9 1479 910.9 Z" data-holc_grade="C"/>
<path d="M 1479 910.9 1478.8 919.2 1473.5 921 1473.5 938.7 1369.5 939.9 1369.7 951.2 1370.3 977.3 1318 978 1260.9 978.8 1239 978.6 1235.2 981.8 1181.7 983.4 1150.3 983.2 1149.1 942.7 1184.2 942.2 1207.7 941.4 1231.7 940.6 1264.1 939.8 1285.5 940.6 1285.7 920.2 1315.7 919.2 1314.9 900.1 1337.3 900.3 1368.4 899.8 1370.4 911.8 1479 910.9 Z" data-holc_grade="C"/>
<path d="M 1435.3 975.1 1448.7 974.9 1450.6 1032.6 1453.2 1035.9 1454.5 1076.9 1417.6 1060.6 1372.5 1042.4 1371.7 1019.4 1370.3 977.3 1369.7 951.2 1428.9 950.2 1429.5 959.1 1418.2 958.6 1419.2 975.3 1435.3 975.1 Z" data-holc_grade="C"/>
<path d="M 1454.5 1076.9 1504.8 1096.9 1485 1118.1 1488.3 1127.3 1479.8 1131.8 1482.6 1167.7 1526 1225.6 1493.2 1223.6 1455.7 1224.6 1452 1185.1 1432.4 1184.9 1426.7 1141.6 1418.5 1141.9 1417.6 1105.4 1414.6 1094.4 1412.7 1081.2 1412.7 1070.9 1417.6 1060.6 1454.5 1076.9 Z" data-holc_grade="C"/>
<path d="M 1488.3 1127.3 1485 1118.1 1504.8 1096.9 1454.5 1076.9 1453.2 1035.9 1450.6 1032.6 1448.7 974.9 1435.3 975.1 1437.1 968.4 1454.6 966 1482.4 952.1 1483.5 988.4 1484.6 1030.1 1499.2 1026.1 1550.2 1101.6 1586.7 1089.2 1599.3 1108.1 1588 1129.4 1556.8 1118.3 1545.8 1133.8 1530 1140.7 1520.3 1127.6 1503.3 1133.2 1488.3 1127.3 Z" data-holc_grade="C"/>
<path d="M 1557.5 1005.6 1499.2 1026.1 1484.6 1030.1 1483.5 988.4 1534.3 969.8 1557.5 1005.6 Z" data-holc_grade="C"/>
<path d="M 1610.2 1081.2 1586.7 1089.2 1550.2 1101.6 1499.2 1026.1 1557.5 1005.6 1610.2 1081.2 Z" data-holc_grade="C"/>
<path d="M 1630.5 931.7 1603.2 944.1 1639.1 944.5 1672.1 990.7 1648.8 999.8 1655.3 1010.9 1654.3 1017.9 1633.2 1024.3 1658.8 1062 1628.3 1074.1 1610.2 1081.2 1557.5 1005.6 1534.3 969.8 1483.5 988.4 1482.4 952.1 1556.7 922.2 1559.2 925.5 1611.1 904.4 1630.5 931.7 Z" data-holc_grade="C"/>
<path d="M 810.5 773.8 813.1 827.7 812.7 846.9 758.3 847.9 757.9 839.5 763.8 835.4 760.2 827.7 754.9 820.5 757 814.7 753.2 803.5 754.3 797.3 758.9 793.3 759.2 787 784 786.4 783.2 767.6 810.1 766.6 810.5 773.8 Z" data-holc_grade="C"/>
<path d="M 1707.5 1040.3 1710.7 1046.1 1694.7 1052.1 1663.4 1064 1658.8 1062 1633.2 1024.3 1654.3 1017.9 1655.3 1010.9 1648.8 999.8 1672.1 990.7 1707.5 1040.3 Z" data-holc_grade="C"/>
<path d="M 1772.4 949.4 1823.9 930.1 1850.4 970.4 1799.3 989.8 1811.3 1007.7 1759.9 1026.3 1756.6 1022.1 1707.5 1040.3 1672.1 990.7 1639.1 944.5 1603.2 944.1 1630.5 931.7 1657.2 920.8 1697.2 977.4 1772.4 949.4 Z" data-holc_grade="C"/>
<path d="M 1588 1129.4 1654.6 1156.7 1578.6 1186.1 1537.7 1183.4 1503.3 1133.2 1520.3 1127.6 1530 1140.7 1545.8 1133.8 1556.8 1118.3 1588 1129.4 Z" data-holc_grade="C"/>
<path d="M 1654.6 1156.7 1588 1129.4 1599.3 1108.1 1586.7 1089.2 1610.2 1081.2 1628.3 1074.1 1676.6 1150.6 1654.6 1156.7 Z" data-holc_grade="C"/>
<path d="M 1663.4 1064 1710.3 1136.7 1676.6 1150.6 1628.3 1074.1 1658.8 1062 1663.4 1064 Z" data-holc_grade="C"/>
<path d="M 1739.5 1125.9 1710.3 1136.7 1663.4 1064 1694.7 1052.1 1739.5 1125.9 Z" data-holc_grade="C"/>
<path d="M 1776.9 1051.7 1762.9 1032.5 1759.9 1026.3 1811.3 1007.7 1866.1 1089.6 1815 1110.3 1806.9 1100.8 1797.9 1086.4 1782 1091.9 1792.1 1106.3 1739.5 1125.9 1694.7 1052.1 1710.7 1046.1 1733.7 1079.2 1783.7 1061.8 1776.9 1051.7 Z" data-holc_grade="C"/>
<path d="M 1978.1 844.9 1977 825.4 1928.3 826 1941.3 845.7 1951 860.5 1927.5 869.3 1902.4 832.2 1925.4 823.2 1979.6 802.4 2058.3 801.2 2059.1 842.5 1995.1 843.7 1978.1 844.9 Z" data-holc_grade="C"/>
<path d="M 2145.5 910.1 2148.2 970.2 2152.7 977.1 2130.3 986.5 2113.1 998.5 2105 992.1 2103.4 963.4 2124.5 963.8 2118 940.6 2131 903.5 2145.2 903.4 2145.5 910.1 Z" data-holc_grade="C"/>
<path d="M 2152.7 977.1 2148.2 970.2 2145.5 910.1 2176 910.1 2176.7 947.9 2163.4 947.9 2163.1 973 2152.7 977.1 Z" data-holc_grade="C"/>
<path d="M 923.1 823.7 895 824.9 813.1 827.7 810.5 773.8 828.1 774.8 852.4 774 919.9 772 923.1 823.7 Z" data-holc_grade="C"/>
<path d="M 1043.2 1070.1 1042.4 1049.1 1041.6 1029.4 1069.5 1029.2 1069.8 1040.2 1096.7 1039.7 1096.7 1042.8 1122 1042.1 1121.7 1036.8 1151.5 1036.4 1152.8 1048.8 1153.5 1066.8 1156 1136 1120.4 1136.2 1120.4 1109.7 1085.7 1110.6 1085.1 1136.7 1077.9 1137.2 1077.3 1120.2 1064.6 1120.7 1062.4 1096.7 1070.5 1096.5 1069.2 1070.1 1043.2 1070.1 Z" data-holc_grade="C"/>
<path d="M 1228 1187.5 1157.9 1188.8 1156 1136 1153.5 1066.8 1152.8 1048.8 1207.9 1048.1 1207.6 1025.8 1221.5 1025.8 1225.1 1064.8 1230.6 1064.6 1232.6 1105.8 1211.5 1106.5 1211.2 1117.3 1185.9 1118 1186.5 1136 1212.1 1135.3 1213.1 1148 1233.5 1147.7 1234.2 1162.8 1227.7 1162.8 1228 1187.5 Z" data-holc_grade="C"/>
<path d="M 1048.7 1231.9 1049.7 1262 1051.9 1294.2 1031.1 1294.8 1027.6 1252.2 962.2 1254.8 959 1234.9 939.5 1234.9 937.1 1192.9 1024.9 1191.9 1023.8 1172.2 1045.2 1171.8 1048.7 1231.9 Z" data-holc_grade="C"/>
<path d="M 1160.9 1251.2 1134 1252 1134.6 1271.8 1119.7 1272 1118.9 1262 1104.6 1262.2 1105.1 1272 1077.8 1272.4 1077.6 1262 1049.7 1262 1048.7 1231.9 1100 1231.9 1098.4 1206.9 1105.7 1206.7 1158.7 1206.3 1160.9 1251.2 Z" data-holc_grade="C"/>
<path d="M 1473.8 1594.7 1406.7 1682.9 1364.2 1734.6 1349 1719 1335.7 1707.8 1318.5 1683.5 1309.8 1680.5 1377.2 1600.4 1380.7 1596.1 1393.7 1578.5 1413.9 1586.5 1427.3 1571.9 1466.6 1589.8 1473.8 1594.7 Z" data-holc_grade="C"/>
<path d="M 1488.3 1336.1 1473.9 1341.9 1448.1 1307.3 1422 1270.8 1436.2 1265.8 1465.8 1303.8 1488.3 1336.1 Z" data-holc_grade="C"/>
<path d="M 1600.6 1394.4 1610.3 1408.3 1597.4 1413.3 1600.6 1418.6 1583.1 1425 1589.6 1437 1570.1 1445.4 1558.5 1426.7 1541.9 1433.4 1551.3 1452.9 1558.5 1462.2 1539.7 1471.6 1528.6 1457.9 1509.5 1464.8 1510.2 1471.1 1522.2 1484 1507.2 1490.5 1502.4 1489.5 1486.2 1458.8 1487.8 1450.5 1498.2 1449.3 1497.8 1443.3 1482.6 1417.1 1503.4 1410.2 1520.9 1384 1542.6 1380.5 1570.1 1382.4 1587 1385 1593.2 1396 1600.6 1394.4 Z" data-holc_grade="C"/>
<path d="M 1677.4 1444.7 1662.9 1450.5 1641.5 1418.3 1655.4 1414 1677.4 1444.7 Z" data-holc_grade="C"/>
<path d="M 1798.2 1392.5 1763.8 1407.7 1754.5 1399.1 1767.6 1393.9 1732.9 1365.1 1763.4 1353.1 1789.9 1376.1 1798.2 1392.5 Z" data-holc_grade="C"/>
<path d="M 1896.7 1254.4 1773.8 1205.4 1769.1 1203.4 1788 1174.4 1797.1 1172.4 1799.8 1179.4 1811.6 1175.7 1800.8 1152.9 1834.5 1141.6 1896.7 1254.4 Z" data-holc_grade="C"/>
<path d="M 1200.8 831.4 1173.1 832.6 1173.1 860.5 1146.1 861.4 1131.2 861.4 1128.8 820.9 1152.2 820 1200.1 818.3 1200.8 831.4 Z" data-holc_grade="C"/>
<path d="M 1917.7 1142 1910.4 1133.4 1898.8 1137.4 1899.6 1140 1889.4 1143.4 1895.4 1154.9 1870.2 1163.6 1852.8 1135.5 1848.9 1128.6 1909.1 1103.1 1930.4 1137.8 1917.7 1142 Z" data-holc_grade="C"/>
<path d="M 2098.4 1049.3 2098.2 1049.4 2126.3 1091.3 2065.5 1113.5 2010.7 1033.8 2050.1 1018.9 2053.6 1019.7 2069.6 1014.3 2076.6 1023.5 2081.5 1024.3 2098.4 1049.3 Z" data-holc_grade="C"/>
<path d="M 2211.8 998.9 2254 1065.8 2269.9 1086.6 2248.3 1096.3 2286.1 1141.5 2281.7 1143.4 2311.1 1182.4 2287.1 1196.2 2258 1152.6 2214.2 1168.6 2147.7 1065.2 2133.3 1044.3 2137.8 1042.4 2129.7 1029.7 2124.1 1031 2106.1 1004.9 2113.1 998.5 2130.3 986.5 2152.7 977.1 2191.6 1030 2211.8 998.9 Z" data-holc_grade="C"/>
<path d="M 2311.1 1182.4 2281.7 1143.4 2286.1 1141.5 2248.3 1096.3 2269.9 1086.6 2275.3 1083.1 2313.1 1130.2 2336.4 1163.2 2311.1 1182.4 Z" data-holc_grade="C"/>
<path d="M 2313.1 1130.2 2275.3 1083.1 2269.9 1086.6 2254 1065.8 2211.8 998.9 2245.1 947.7 2275.9 942.6 2301.4 934.8 2310.1 949.9 2321.2 946.6 2339.8 970.1 2336.4 973.5 2348.2 991 2360.7 985.8 2392.1 1031.7 2325.6 1060.6 2366.5 1111.8 2313.1 1130.2 Z" data-holc_grade="C"/>
<path d="M 2420.2 1107.9 2399.2 1118 2395.3 1120.4 2379.3 1130.2 2366.5 1111.8 2325.6 1060.6 2392.1 1031.7 2437.7 1099.5 2420.2 1107.9 Z" data-holc_grade="C"/>
<path d="M 2357.6 1146.9 2373 1135.1 2395.9 1172.6 2375.6 1179.4 2357.6 1146.9 Z" data-holc_grade="C"/>
<path d="M 2439.4 1138.6 2440.4 1140.5 2416.5 1147.7 2395.3 1120.4 2399.2 1118 2420.2 1107.9 2426.9 1117.7 2439.4 1138.6 Z" data-holc_grade="C"/>
<path d="M 2328.7 926.4 2334.8 924.8 2377.5 913.6 2391.5 935.6 2363 946.1 2336.4 927.5 2328.7 926.4 Z" data-holc_grade="C"/>
<path d="M 2601.2 978 2576.6 980.8 2622.3 1047.2 2625.6 1053 2601.8 1061.9 2579.6 1070.3 2564.6 1075.9 2538 1078.6 2510.8 1080.5 2448.5 992.8 2437.8 982.3 2396.7 965.3 2457.4 943.7 2463.8 953.3 2561 917.6 2601.2 978 Z" data-holc_grade="C"/>
<path d="M 1418.4 854.4 1366.6 855.5 1366 832.3 1417.9 830.6 1418.4 854.4 Z" data-holc_grade="C"/>
<path d="M 2568.8 1128.6 2538 1078.6 2564.6 1075.9 2579.6 1070.3 2602.9 1110.4 2584.1 1117.4 2586.3 1122.2 2568.8 1128.6 Z" data-holc_grade="C"/>
<path d="M 2551.7 1134.5 2568.8 1128.6 2586.3 1122.2 2584.1 1117.4 2602.9 1110.4 2579.6 1070.3 2601.8 1061.9 2619.1 1089.3 2643.1 1130.1 2605.5 1142.8 2611.9 1154.5 2583.7 1161.4 2574.3 1160.2 2562.7 1142.3 2556.2 1144.4 2551.7 1134.5 Z" data-holc_grade="C"/>
<path d="M 2638.8 1076.2 2668.7 1122.9 2667.7 1131.5 2675.2 1139.6 2675.2 1147.3 2664.5 1142.3 2653.8 1145.4 2654.1 1141.8 2653.8 1135.3 2658.3 1132.2 2653.8 1126.9 2643.1 1130.1 2619.1 1089.3 2601.8 1061.9 2625.6 1053 2638.8 1076.2 Z" data-holc_grade="C"/>
<path d="M 2713.1 826 2734 856.2 2712.8 863.2 2738.8 907.6 2715.7 939.9 2637 818.8 2641.2 814.8 2661.8 802.3 2670.5 799.9 2691.1 834.3 2713.1 826 Z" data-holc_grade="C"/>
<path d="M 2738.8 907.6 2712.8 863.2 2734 856.2 2713.1 826 2693.5 791.4 2700.6 789.4 2757.6 878.8 2744.9 899.2 2738.8 907.6 Z" data-holc_grade="C"/>
<path d="M 2785 813.4 2784.3 819.1 2774 841.6 2757.3 846.2 2721.9 789.4 2785 813.4 Z" data-holc_grade="C"/>
<path d="M 1690.7 826.6 1612.8 855.7 1610.5 852.5 1610.1 849.8 1581.8 810.5 1612.9 810.2 1678 809.5 1690.7 826.6 Z" data-holc_grade="C"/>
<path d="M 1697.6 837.7 1700.4 842.2 1649.6 862.1 1616.1 860.1 1612.8 855.7 1690.7 826.6 1697.6 837.7 Z" data-holc_grade="C"/>
<path d="M 1772.4 949.4 1697.2 977.4 1657.2 920.8 1734.2 891 1772.4 949.4 Z" data-holc_grade="C"/>
<path d="M 1478.5 839.2 1479.4 896.9 1420.1 898.4 1418.5 856 1418.4 854.4 1417.9 830.6 1417.5 815.5 1476.5 815.5 1478.5 839.2 Z" data-holc_grade="C"/>
<path d="M 1772.4 949.4 1734.2 891 1784.7 871.5 1817.4 921 1823.9 930.1 1772.4 949.4 Z" data-holc_grade="C"/>
<path d="M 1965.6 883.8 1974.4 897.2 1951.7 905.6 1935.2 882.3 1917.9 887.4 1956.6 947.5 1981.7 938.5 1969 918.8 1986.6 912.6 1999.8 930.8 2003 935.3 1961.4 950.5 1962 952.5 1946 957.1 1939 944.9 1920.4 950.3 1906.6 926.3 1921.4 921.6 1916.3 914.6 1906.3 917.8 1884 884 1927.5 869.3 1951 860.5 1965.6 883.8 Z" data-holc_grade="C"/>
<path d="M 1058.5 38.2 1060.7 44.9 1072.9 46.4 1074.1 76.8 1028.2 77.8 1016.4 97.1 1006.3 113.7 986.6 114 992.5 107.9 993.3 101.5 992.8 80.2 980.1 74.6 979 61.9 979.8 54.7 983.3 48.8 983.3 43.4 990.9 35.6 997.4 36 997.9 42.8 1014.7 43.2 1014.9 35.2 1027.1 35.4 1033.3 46.4 1045.5 42.2 1058.5 38.2 Z" data-holc_grade="C"/>
<path d="M 1086.2 158.4 1083.4 120.3 1087.8 117.5 1070.9 100.8 1064.5 102.1 1062.5 96.6 1016.4 97.1 1028.2 77.8 1074.1 76.8 1082.6 76.8 1083 84.4 1108.1 84.6 1108.3 87 1110.8 106.5 1136 105.9 1138.1 157 1086.2 158.4 Z" data-holc_grade="C"/>
<path d="M 1086.2 158.4 1034.9 159.6 973.9 161.4 972.2 144.9 965 140.7 975.2 134.8 979.3 132 983.6 122.8 986.6 114 1006.3 113.7 1016.4 97.1 1062.5 96.6 1064.5 102.1 1070.9 100.8 1087.8 117.5 1083.4 120.3 1086.2 158.4 Z" data-holc_grade="C"/>
<path d="M 1492.6 193.7 1447 195 1446.3 196.7 1419.6 196.2 1337.9 197.2 1333.2 152.4 1321.7 145.2 1324.7 135.2 1333.2 135.5 1333.2 114.3 1355.4 115.1 1355.4 108.1 1380.8 107.6 1380.4 98.9 1391.9 89.2 1390.2 68.6 1441.6 67.3 1443.6 112.1 1551.3 109.9 1553 149.2 1503 149.9 1492.6 193.7 Z" data-holc_grade="C"/>
<path d="M 1258.2 281.8 1231.3 282.5 1232.5 323.7 1233.1 350 1193.6 351.4 1192.7 283.5 1122 284 1118.4 243.3 1218.3 241.9 1258.2 281.8 Z" data-holc_grade="C"/>
<path d="M 1233.1 350 1234.2 405.1 1185.9 407.1 1125.9 408.7 1125.2 363.5 1122 284 1192.7 283.5 1193.6 351.4 1233.1 350 Z" data-holc_grade="C"/>
<path d="M 1330.1 360.5 1375 403.3 1353.1 404.1 1304.5 403.3 1234.2 405.1 1233.1 350 1232.5 323.7 1294.7 321.2 1330.1 360.5 Z" data-holc_grade="C"/>
<path d="M 1452.4 317.7 1371 319.4 1353.8 298 1394.3 298.3 1399 303.7 1425 303 1419.6 196.2 1446.3 196.7 1447 195 1492.6 193.7 1475.3 265.2 1510.1 265.2 1516.2 270.6 1511.1 271.1 1509.8 288.3 1468.6 290.3 1463.2 317.9 1452.4 317.7 Z" data-holc_grade="C"/>
<path d="M 1474 651.6 1471.9 688.7 1419.9 691.8 1424 654.6 1431.4 649.6 1474 651.6 Z" data-holc_grade="C"/>
<path d="M 1454.7 359.9 1447.6 385.1 1443.9 401.3 1447 413.2 1454.7 460.3 1479.7 466 1482.1 484.5 1450 485.4 1429.8 485.7 1428.1 465.1 1414.9 450.4 1428.7 449.2 1427 434.2 1410.2 434.2 1409.5 423.8 1397.7 414.1 1396.3 402.8 1375 403.3 1330.1 360.5 1344 360.3 1344 350.1 1372 350.8 1373.3 334.4 1377.7 329.6 1371 319.4 1452.4 317.7 1454.7 339.8 1454.7 359.9 Z" data-holc_grade="C"/>
<path d="M 1522.3 378.9 1480.4 379.4 1480.1 384.8 1447.6 385.1 1454.7 359.9 1508.4 358.9 1508.4 342.5 1525 342.3 1526.3 357.4 1521.9 357.7 1522.3 378.9 Z" data-holc_grade="C"/>
<path d="M 1522.6 400.7 1502.3 401 1477.3 400.5 1478.7 455.3 1490.9 455.6 1491.9 462.3 1529.7 461.8 1529.4 453.8 1543.9 452.8 1544.9 461 1560.9 461 1562.3 482.4 1511 483.6 1482.1 484.5 1479.7 466 1454.7 460.3 1447 413.2 1443.9 401.3 1447.6 385.1 1480.1 384.8 1480.4 379.4 1522.3 378.9 1522.6 400.7 Z" data-holc_grade="C"/>
<path d="M 1559.6 441.8 1560.9 461 1544.9 461 1543.9 452.8 1529.4 453.8 1529.7 461.8 1491.9 462.3 1490.9 455.6 1478.7 455.3 1477.3 400.5 1502.3 401 1522.6 400.7 1559.1 400 1559.6 441.8 Z" data-holc_grade="C"/>
<path d="M 1235.9 441.7 1234.2 405.1 1304.5 403.3 1307.5 439.2 1235.9 441.7 Z" data-holc_grade="C"/>
<path d="M 1545.7 565.7 1545.7 567.9 1531.3 567.3 1508.6 567.9 1498.6 551 1481.5 526.2 1473.6 514.8 1485.5 515.1 1481.7 495.2 1460.1 496.2 1450 485.4 1482.1 484.5 1511 483.6 1512.1 502.7 1540.7 535.8 1543.9 565.7 1545.7 565.7 Z" data-holc_grade="C"/>
<path d="M 1386.8 486.2 1389.2 525.6 1398 525.9 1398 569.2 1379.7 569.7 1380.1 612.8 1354.8 612.5 1354.2 601.5 1348.7 485.9 1386.8 486.2 Z" data-holc_grade="C"/>
<path d="M 1474 651.6 1431.4 649.6 1434.1 615 1380.1 612.8 1379.7 569.7 1398 569.2 1398 525.9 1410.1 526.3 1410.1 540.5 1428.7 540.8 1429.1 550.2 1498.6 551 1508.6 567.9 1532.1 603 1546.3 603.3 1547.1 595.6 1571.2 595.9 1574.3 649.4 1526.2 650.7 1474 651.6 Z" data-holc_grade="C"/>
<path d="M 1627.2 645.1 1609.5 646.1 1609.5 657.9 1583.2 659.4 1574.3 649.4 1571.2 595.9 1547.1 595.6 1546.3 603.3 1532.1 603 1508.6 567.9 1531.3 567.3 1545.7 567.9 1545.7 565.7 1559.6 565.7 1627.2 645.1 Z" data-holc_grade="C"/>
<path d="M 1728.4 642.7 1712 643.4 1709.2 609 1678.4 609.3 1676.3 563 1720.9 562.4 1728.4 642.7 Z M 1615.8 440.5 1673.6 439.2 1674.2 481.2 1628.8 482.4 1615.8 440.5 Z" data-holc_grade="C"/>
<path d="M 1584.7 852.8 1564.6 852.9 1508.9 853.8 1508.4 838.8 1507.5 814.9 1531.2 812.9 1579.1 812.3 1579.1 810.6 1581.8 810.5 1584.7 852.8 Z" data-holc_grade="C"/>
<path d="M 2165.9 509.8 2100 511.7 2102 493 2078.4 488.7 2079.8 439.7 2099 439.9 2098.3 386.4 2181.1 384.6 2184.1 469.6 2166.6 469.6 2165.9 509.8 Z" data-holc_grade="C"/>
<path d="M 2100 511.7 2165.9 509.8 2172.6 509.7 2173.3 579.4 2177 635.7 2137.2 636.2 2084.2 637.5 2078.4 637.7 2077.4 539.3 2100 521.4 2100 511.7 Z" data-holc_grade="C"/>
<path d="M 2603.8 456.9 2603.5 452.7 2529.2 454.6 2527.9 417.6 2539.6 416.9 2544.1 332.2 2591.1 330.1 2588.9 289.9 2654.3 287.1 2653 245.7 2739.9 243.1 2709.1 291.4 2667.3 358.8 2645.3 393.4 2612.5 395.1 2597.6 415.9 2620 415.7 2620.9 430.5 2625.5 431 2627.4 438.1 2627.4 456.3 2603.8 456.9 Z" data-holc_grade="C"/>
<path d="M 2950.8 578.5 2941.5 587.2 2924.8 614.7 2897.7 615 2898.1 620.3 2818.3 622.7 2761.9 623 2798.4 531.9 2847.8 425.1 2862.4 401.8 2857.6 281.7 2907.8 280.8 2904.6 220.8 2950 167.3 2999 187 2993.7 193.6 2991.7 205 2984.8 211.5 2974.3 248 2963.7 248 2937.8 328 2898.1 361.5 2900.1 461.6 2920.4 466.7 2923.6 473.3 2920 483.7 2920.4 497.2 2898.5 492.4 2899.7 530.4 2903.8 540.5 2941.9 550.1 2950.8 578.5 Z" data-holc_grade="C"/>
<path d="M 2427.6 546.7 2456.8 546.3 2457.4 528.1 2469.1 527.1 2469.4 514.7 2487.3 506.3 2520.7 505.6 2535.2 510.1 2514.5 543.9 2478.5 544.8 2478.5 555.1 2499.6 561.8 2482.4 586.7 2426.6 588.3 2427.6 546.7 Z" data-holc_grade="C"/>
<path d="M 250.3 568.5 253.1 593.6 81.3 600.2 76 517.1 245 512.3 250.3 568.5 Z" data-holc_grade="C"/>
<path d="M 626.7 667.1 512.5 669.5 425.8 673.7 365.4 673.7 365.4 645.9 306.2 622.3 306.6 613.9 253.1 593.6 250.3 568.5 276.6 568.2 360.5 596.9 420.9 613.9 558.7 649.5 626.7 667.1 Z" data-holc_grade="C"/>
<path d="M 638.7 712.4 643 746.6 644.4 789.8 579.8 791 578.1 748.2 501.1 709 425.8 673.7 512.5 669.5 626.7 667.1 635.2 666.9 638.7 712.4 Z" data-holc_grade="C"/>
<path d="M 706.3 910.1 689 910.3 638.1 911.3 640.7 930.9 631.9 932.8 625.4 937.6 610.9 943.4 596.3 944.6 593.7 914.4 525.6 917 523.3 874.9 592.4 873.9 643.9 870.6 647.2 870.5 704.1 869.2 706.3 910.1 Z" data-holc_grade="C"/>
<path d="M 563 1077.3 636 1075 638.3 1115.9 587.3 1117.2 586.3 1091.7 564 1092 563 1077.3 Z" data-holc_grade="C"/>
</g>
<g id="D">
<path d="M 666.3 711.5 638.7 712.4 635.2 666.9 664.4 666.9 666.3 711.5 Z" data-holc_grade="D"/>
<path d="M 1161.8 1271.6 1134.6 1271.8 1134 1252 1160.9 1251.2 1161.8 1271.6 Z" data-holc_grade="D"/>
<path d="M 1612.8 855.7 1616.1 860.1 1633.4 883.3 1657.2 920.8 1630.5 931.7 1611.1 904.4 1603.2 893.2 1567.3 894.8 1564.6 852.9 1584.7 852.8 1610.5 852.5 1612.8 855.7 Z" data-holc_grade="D"/>
<path d="M 1784.7 871.5 1734.2 891 1657.2 920.8 1633.4 883.3 1657.5 876.3 1668.8 892.8 1771.2 851.9 1784.7 871.5 Z" data-holc_grade="D"/>
<path d="M 1793.1 768.7 1794.7 806.7 1739.8 808.6 1745.2 818.3 1697.6 837.7 1690.7 826.6 1678 809.5 1696.2 810 1694.6 726.9 1742 725.7 1740.8 769.3 1793.1 768.7 Z" data-holc_grade="D"/>
<path d="M 1837.1 805.1 1794.7 806.7 1793.1 768.7 1792.7 724.8 1805.6 724.8 1839 723.8 1837.1 805.1 Z" data-holc_grade="D"/>
<path d="M 1900.1 786.1 1853.3 805.1 1837.1 805.1 1839 723.8 1856.4 723.6 1900.1 786.1 Z" data-holc_grade="D"/>
<path d="M 1919.9 756.4 1920.6 764.3 1920.6 779.1 1900.1 786.1 1856.4 723.6 1891.7 723.6 1891.4 736.1 1918.6 735.8 1919.9 756.4 Z" data-holc_grade="D"/>
<path d="M 2140.4 777 2124.8 793.7 2125.1 839 2100.5 840.7 2093 838.5 2117.7 800.7 2101.1 801.2 2101.1 815 2081.4 814.3 2081.7 800.9 2058.3 801.2 1979.6 802.4 1925.4 823.2 1900.1 786.1 1920.6 779.1 1921.9 787.3 1969.8 786.3 2029.8 783.9 2031.1 761.4 1996.8 761.4 1920.6 764.3 1919.9 756.4 1987 753.8 2049.9 752.3 2049.3 723.4 2047.3 701.1 2046.7 679.1 2055.1 679.6 2055.1 664.8 2083.3 664.3 2084.3 720 2105.4 719.3 2104.7 740.4 2121.9 739.7 2121.2 759.8 2105.4 759.3 2106.3 778.4 2140.4 777 Z" data-holc_grade="D"/>
<path d="M 1848.5 873.1 1836.9 876.5 1824.7 859.9 1819.3 861.3 1801.8 831.8 1815 826.4 1810.9 821.4 1837.2 811.6 1872.5 864.9 1848.5 873.1 Z" data-holc_grade="D"/>
<path d="M 1925.4 823.2 1902.4 832.2 1927.5 869.3 1884 884 1861.5 891.6 1848.5 873.1 1872.5 864.9 1837.2 811.6 1853.3 805.1 1900.1 786.1 1925.4 823.2 Z" data-holc_grade="D"/>
<path d="M 812.7 846.9 815 908.7 858.8 907.9 926.2 906.7 926.9 921.5 930.1 988 931.4 1031.6 988.1 1068.5 989.7 1049.8 1042.4 1049.1 1043.2 1070.1 1043.2 1102.2 1027 1109.2 881.1 1112.3 874.6 1031.6 765.7 1032.5 765.7 1030.4 712.5 1030.6 710 990.4 746.3 989.7 747.6 1005.2 759.6 1004 760.9 1017.4 792.9 1017 792 991.1 790.4 952 758.9 953 757 924.9 731.7 910.3 721.3 910.1 721 918.2 715.1 919.9 715.5 948.4 708.3 948.4 706.3 910.1 704.1 869.2 701.8 828 760.2 827.7 763.8 835.4 757.9 839.5 758.3 847.9 812.7 846.9 Z" data-holc_grade="D"/>
<path d="M 2027.7 885.3 1965.6 883.8 1951 860.5 1941.3 845.7 1978.1 844.9 1995.1 843.7 2059.1 842.5 2058.8 860.9 2033.2 862.3 2032.9 885.4 2027.7 885.3 Z" data-holc_grade="D"/>
<path d="M 1759.9 1026.3 1762.9 1032.5 1749.1 1037.7 1763.4 1057.3 1776.9 1051.7 1783.7 1061.8 1733.7 1079.2 1710.7 1046.1 1707.5 1040.3 1756.6 1022.1 1759.9 1026.3 Z" data-holc_grade="D"/>
<path d="M 1923.9 1033.1 1940.9 1058.2 1972.2 1047.9 1977.1 1055.7 1933.1 1071.4 1927.9 1064.8 1922 1070 1866.1 1089.6 1811.3 1007.7 1799.3 989.8 1850.4 970.4 1897.7 1042.5 1923.9 1033.1 Z" data-holc_grade="D"/>
<path d="M 1923.9 1033.1 1897.7 1042.5 1850.4 970.4 1823.9 930.1 1817.4 921 1828 917.4 1821.5 906.8 1843.4 897.6 1859.8 917 1896.7 960.7 1882.3 966.2 1895.8 989.2 1908.8 985.2 1919.6 990.2 1931.2 1004.6 1945.8 1000.4 1959.8 1020.1 1923.9 1033.1 Z" data-holc_grade="D"/>
<path d="M 1884 884 1906.3 917.8 1916.3 914.6 1921.4 921.6 1906.6 926.3 1920.4 950.3 1939 944.9 1946 957.1 1962 952.5 1961.4 950.5 2003 935.3 2027.1 970.8 2020.6 979.6 1989.8 989.6 1984.4 984 1953.6 995 1935 966.6 1940.6 964.5 1935.8 956.3 1919.8 961.5 1917.7 958.5 1899.6 964.1 1896.7 960.7 1859.8 917 1843.4 897.6 1861.5 891.6 1884 884 Z M 1965.6 883.8 2027.7 885.3 2025.5 903.2 2007.9 909.6 2009 926.5 1999.8 930.8 1986.6 912.6 1969 918.8 1981.7 938.5 1956.6 947.5 1917.9 887.4 1935.2 882.3 1951.7 905.6 1974.4 897.2 1965.6 883.8 Z" data-holc_grade="D"/>
<path d="M 2106.1 1004.9 2081.5 1024.3 2076.6 1023.5 2069.6 1014.3 2053.6 1019.7 2050.1 1018.9 2010.7 1033.8 1978.3 1045 1964.6 1026.4 2048.3 995.7 2027.8 965.8 2032.6 960.6 2031 928.7 2059.1 891.6 2060.2 923.1 2114.8 921.5 2115.3 903.5 2131 903.5 2118 940.6 2124.5 963.8 2103.4 963.4 2105 992.1 2113.1 998.5 2106.1 1004.9 Z" data-holc_grade="D"/>
<path d="M 2211.8 998.9 2191.6 1030 2152.7 977.1 2163.1 973 2163.4 947.9 2176.7 947.9 2176 910.1 2145.5 910.1 2145.2 903.4 2144.6 878 2144.3 865.8 2205.9 843 2226.3 862 2226 867.2 2191 880.1 2172.1 880.1 2173.1 894.3 2254.2 892.4 2270.7 908.6 2245.1 947.7 2211.8 998.9 Z" data-holc_grade="D"/>
<path d="M 2301.4 934.8 2275.9 942.6 2245.1 947.7 2270.7 908.6 2276.2 904.3 2294.1 919.9 2319 918.7 2328.7 926.4 2301.4 934.8 Z" data-holc_grade="D"/>
<path d="M 1692 1172.7 1730.6 1187.6 1715.7 1192.1 1729.9 1215.3 1694.4 1227.1 1706.3 1242.8 1710.5 1250.1 1687.4 1256.8 1662.7 1226.6 1568.8 1225.3 1537.7 1183.4 1578.6 1186.1 1654.6 1156.7 1681.6 1168.7 1692 1172.7 Z" data-holc_grade="D"/>
<path d="M 1815 1110.3 1827.8 1123.3 1846.8 1125 1848.9 1128.6 1852.8 1135.5 1834.5 1141.6 1800.8 1152.9 1811.6 1175.7 1799.8 1179.4 1797.1 1172.4 1788 1174.4 1769.1 1203.4 1730.6 1187.6 1692 1172.7 1702.2 1156.9 1719.1 1148.7 1710.3 1136.7 1739.5 1125.9 1792.1 1106.3 1806.9 1100.8 1815 1110.3 Z" data-holc_grade="D"/>
<path d="M 852.4 774 828.1 774.8 810.5 773.8 810.1 766.6 808.9 745.7 851.6 745.1 852.4 774 Z" data-holc_grade="D"/>
<path d="M 1951.7 1088 1933.4 1094.1 1909.1 1103.1 1848.9 1128.6 1846.8 1125 1862.1 1117.3 1852.1 1103.3 1922.3 1077.9 1955.8 1080.3 1959.1 1085.5 1951.7 1088 Z" data-holc_grade="D"/>
<path d="M 1995.6 1154.7 2000.7 1162.4 1945 1184.1 1920 1145.5 1917.7 1142 1930.4 1137.8 1909.1 1103.1 1933.4 1094.1 1951.7 1088 1995.6 1154.7 Z" data-holc_grade="D"/>
<path d="M 2098.4 1049.3 2112.8 1044.8 2146.3 1090.3 2135.5 1101.9 2027.4 1143 1995.6 1154.7 1951.7 1088 1959.1 1085.5 1971.2 1102.5 2008.3 1089.7 1978.3 1045 2010.7 1033.8 2065.5 1113.5 2126.3 1091.3 2098.2 1049.4 2098.4 1049.3 Z" data-holc_grade="D"/>
<path d="M 1568.8 1225.3 1662.7 1226.6 1687.4 1256.8 1704.8 1283.7 1687.8 1302 1664.8 1330.2 1656.7 1320.2 1631.4 1328.7 1634.4 1334.9 1620.5 1340.7 1582 1345.9 1575 1337.7 1559.4 1343.7 1544.9 1327.9 1518.6 1339.2 1509.4 1327.4 1488.3 1336.1 1465.8 1303.8 1436.2 1265.8 1422 1270.8 1448.1 1307.3 1473.9 1341.9 1453.7 1350.2 1438.2 1329.2 1416.2 1338.4 1407.1 1326.2 1389.3 1332.9 1388.1 1322.8 1383.2 1324.2 1382.8 1269.3 1396.6 1267.8 1410.8 1262.3 1417.9 1256.4 1422.3 1252.8 1427 1242.3 1429.7 1208.4 1432.4 1184.9 1452 1185.1 1455.7 1224.6 1493.2 1223.6 1526 1225.6 1568.8 1225.3 Z" data-holc_grade="D"/>
<path d="M 1769.1 1203.4 1773.8 1205.4 1776.5 1210.4 1785.6 1226.9 1727.2 1245.3 1710.5 1250.1 1706.3 1242.8 1694.4 1227.1 1729.9 1215.3 1715.7 1192.1 1730.6 1187.6 1769.1 1203.4 Z" data-holc_grade="D"/>
<path d="M 1823.4 1295.8 1793.7 1296.7 1798.5 1306 1769.4 1316.7 1763.3 1310.2 1753.2 1316.4 1757.9 1321.7 1745.4 1324.9 1732.6 1305.5 1734.6 1303.2 1724.8 1285.7 1710 1291.7 1704.8 1283.7 1687.4 1256.8 1710.5 1250.1 1727.2 1245.3 1785.6 1226.9 1823.4 1295.8 Z" data-holc_grade="D"/>
<path d="M 1896.7 1254.4 1928.5 1267 1940.5 1269.8 1887.8 1285 1840.4 1299.7 1825.5 1299.5 1823.4 1295.8 1785.6 1226.9 1776.5 1210.4 1773.8 1205.4 1896.7 1254.4 Z" data-holc_grade="D"/>
<path d="M 1895.4 1154.9 1920 1145.5 1945 1184.1 2004.2 1263.2 1976.6 1275.4 1938.8 1261.6 1935.3 1262.4 1940.5 1269.8 1928.5 1267 1896.7 1254.4 1834.5 1141.6 1852.8 1135.5 1870.2 1163.6 1895.4 1154.9 Z" data-holc_grade="D"/>
<path d="M 2004.2 1263.2 1945 1184.1 2000.7 1162.4 1995.6 1154.7 2027.4 1143 2064.7 1199.1 2077.7 1194.5 2082.5 1201.9 2103.1 1194.9 2131.2 1238.3 2113.3 1246 2123.1 1261.8 2053.6 1292.2 2028.2 1253.4 2004.2 1263.2 Z" data-holc_grade="D"/>
<path d="M 2287.1 1196.2 2295.8 1209.3 2225 1256.4 2167.7 1283.6 2108.8 1306.8 2070.5 1317.9 2053.6 1292.2 2123.1 1261.8 2113.3 1246 2131.2 1238.3 2103.1 1194.9 2082.5 1201.9 2077.7 1194.5 2064.7 1199.1 2027.4 1143 2135.5 1101.9 2146.3 1090.3 2112.8 1044.8 2098.4 1049.3 2081.5 1024.3 2106.1 1004.9 2124.1 1031 2129.7 1029.7 2137.8 1042.4 2133.3 1044.3 2147.7 1065.2 2214.2 1168.6 2258 1152.6 2287.1 1196.2 Z" data-holc_grade="D"/>
<path d="M 1088 821.1 1031.2 821.5 1031.2 810.5 1062.6 810.3 1061.2 780.2 1084.5 780 1088 821.1 Z" data-holc_grade="D"/>
<path d="M 1594 1533.3 1579.7 1541.2 1580 1557.3 1587.2 1588 1586.2 1591.6 1525.2 1586.5 1486.3 1574.3 1473.8 1594.7 1466.6 1589.8 1427.3 1571.9 1413.9 1586.5 1393.7 1578.5 1380.7 1596.1 1377.2 1600.4 1353.6 1577.4 1345.5 1557.3 1337.4 1548.6 1331.6 1542.7 1324.5 1537.6 1322.3 1531.9 1356.3 1518 1372.9 1516.8 1380.3 1512.4 1377.4 1503.3 1396.5 1496.4 1415.7 1496.8 1432.8 1514.4 1447.1 1511.2 1457.4 1513.2 1458.9 1513.5 1494.1 1520.1 1520 1510.1 1557.3 1495.6 1594 1533.3 Z" data-holc_grade="D"/>
<path d="M 1754.5 1399.1 1763.8 1407.7 1709.9 1431.7 1677.4 1444.7 1655.4 1414 1641.5 1418.3 1662.9 1450.5 1631.7 1462.9 1557.3 1495.6 1520 1510.1 1507.2 1490.5 1522.2 1484 1510.2 1471.1 1509.5 1464.8 1528.6 1457.9 1539.7 1471.6 1558.5 1462.2 1551.3 1452.9 1541.9 1433.4 1558.5 1426.7 1570.1 1445.4 1589.6 1437 1583.1 1425 1600.6 1418.6 1597.4 1413.3 1610.3 1408.3 1600.6 1394.4 1612 1387.6 1637.8 1388.5 1656.1 1389.1 1667.4 1387.2 1723.5 1367.7 1737.4 1383.3 1754.5 1399.1 Z" data-holc_grade="D"/>
<path d="M 1594 1533.3 1557.3 1495.6 1631.7 1462.9 1662.9 1450.5 1677.4 1444.7 1709.9 1431.7 1763.8 1407.7 1798.2 1392.5 1805.9 1407.1 1812.1 1415.5 1791.8 1433.3 1776.7 1454.1 1770.2 1461.9 1757 1474.1 1750.5 1482.7 1741.8 1486.3 1731.5 1465.8 1712.3 1473.4 1705.8 1485.4 1698.1 1493.2 1681.9 1499.2 1696.5 1527.6 1681.1 1544.1 1653.5 1536.6 1626 1534.2 1603.3 1532.1 1594 1533.3 Z" data-holc_grade="D"/>
<path d="M 1732.9 1365.1 1723.5 1367.7 1667.4 1387.2 1656.1 1389.1 1637.8 1388.5 1670.6 1344.1 1684 1338.4 1689.7 1341.4 1706.3 1335.7 1714.4 1349.2 1723.7 1346.5 1720.5 1341.4 1732.2 1336.3 1735.9 1341.4 1774.8 1326.4 1780.8 1333.3 1794.2 1328.8 1791.4 1322.8 1821 1323.4 1840 1327.6 1855.4 1323.4 1840.4 1299.7 1887.8 1285 1940.5 1269.8 1990.8 1339.6 1968.9 1344.7 1940.5 1351.8 1915.8 1359.9 1886.6 1372.8 1867.2 1385.1 1828.2 1405.8 1812.1 1415.5 1805.9 1407.1 1798.2 1392.5 1789.9 1376.1 1763.4 1353.1 1732.9 1365.1 Z" data-holc_grade="D"/>
<path d="M 2379.3 1130.2 2373 1135.1 2357.6 1146.9 2336.4 1163.2 2313.1 1130.2 2366.5 1111.8 2379.3 1130.2 Z" data-holc_grade="D"/>
<path d="M 2439.4 1138.6 2426.9 1117.7 2420.2 1107.9 2437.7 1099.5 2392.1 1031.7 2360.7 985.8 2375.3 981 2403.3 1024.2 2418.5 1012.2 2470.5 1088.8 2467.8 1089.6 2475.9 1101.5 2452.3 1108.5 2465.8 1131 2439.4 1138.6 Z" data-holc_grade="D"/>
<path d="M 2568.8 1128.6 2551.7 1134.5 2540.3 1138.4 2508.5 1084.8 2510.8 1080.5 2538 1078.6 2568.8 1128.6 Z" data-holc_grade="D"/>
<path d="M 1426.1 653.2 1315.9 653.2 1315.9 653.1 1298.7 653.4 1296.7 604.3 1354.2 601.5 1354.8 612.5 1380.1 612.8 1434.1 615 1431.4 649.6 1426.1 653.2 Z" data-holc_grade="D"/>
<path d="M 1644.3 643.7 1641.1 646.4 1627.2 645.1 1559.6 565.7 1545.7 565.7 1543.9 565.7 1540.7 535.8 1512.1 502.7 1511 483.6 1562.3 482.4 1612 481.6 1612 524.3 1625 524.3 1623.4 563.7 1629.9 564.1 1644.3 643.7 Z" data-holc_grade="D"/>
<path d="M 1728.4 642.7 1720.9 562.4 1676.3 563 1678.4 609.3 1709.2 609 1712 643.4 1644.3 643.7 1629.9 564.1 1623.4 563.7 1625 524.3 1612 524.3 1612 481.6 1562.3 482.4 1560.9 461 1559.6 441.8 1615.8 440.5 1628.8 482.4 1674.2 481.2 1673.6 439.2 1788.7 436.6 1795.5 639.8 1728.4 642.7 Z" data-holc_grade="D"/>
<path d="M 1152.2 820 1128.8 820.9 1127.2 779.4 1150.4 779.2 1152.2 820 Z" data-holc_grade="D"/>
<path d="M 2603.8 456.9 2607.8 514.3 2609.7 584.1 2521.9 584.9 2482.4 586.7 2499.6 561.8 2478.5 555.1 2478.5 544.8 2514.5 543.9 2535.2 510.1 2520.7 505.6 2487.3 506.3 2469.4 514.7 2469.1 527.1 2457.4 528.1 2456.8 546.3 2427.6 546.7 2430 495.8 2462.2 494.8 2459.8 456.3 2529.2 454.6 2603.5 452.7 2603.8 456.9 Z" data-holc_grade="D"/>
<path d="M 506.9 1413 462.8 1413.8 396.6 1414.1 344.9 1415.3 340.8 1333.9 505.6 1330.4 506.9 1413 Z" data-holc_grade="D"/>
<path d="M 156.5 1667.5 131.3 1668.1 132 1628 214.3 1625.4 213.4 1580.3 296 1564.7 298.3 1664 156.5 1667.5 Z" data-holc_grade="D"/>
<path d="M 131.3 1668.1 156.5 1667.5 157.3 1710.8 78.2 1711.5 77.5 1731.7 61.3 1731.2 58.1 1733.8 49.3 1733.8 46.1 1733.3 5.9 1733.3 5.5 1671.9 54.8 1670.7 66.2 1668.8 131.3 1668.1 Z" data-holc_grade="D"/>
<path d="M 657.7 1582.4 657.3 1613.9 619.5 1614.2 489.8 1618.7 354.1 1620.2 352 1552.7 559.7 1521 657.3 1502.2 657.7 1582.4 Z" data-holc_grade="D"/>
<path d="M 1389.3 1332.9 1390 1339.1 1385.5 1349.4 1375.8 1371.5 1387.1 1385.6 1442.6 1376.7 1471.7 1420.1 1446.5 1450.6 1465.6 1447.2 1463 1460.4 1472.7 1491.8 1471.4 1498 1458.9 1513.5 1457.4 1513.2 1431.2 1460.9 1410.1 1432.3 1369.6 1376 1364.8 1366.9 1361.8 1348 1361.5 1330.2 1383.2 1324.2 1388.1 1322.8 1389.3 1332.9 Z" data-holc_grade="D"/>
<path d="M 1337.4 1548.6 1299.4 1543.2 1265.5 1538.3 1243.4 1567.4 1188.6 1548.2 1218.1 1511.5 1261.2 1507.9 1263.8 1513.9 1262.5 1520.6 1303.4 1539.3 1324.5 1537.6 1331.6 1542.7 1337.4 1548.6 Z" data-holc_grade="D"/>
<path d="M 1458.2 1706 1406.7 1682.9 1473.8 1594.7 1495.5 1603.3 1499.1 1598.5 1506.2 1592.3 1516.3 1592.3 1531.8 1595.1 1563.9 1620.3 1560.7 1626.1 1526 1616.5 1506.5 1608.8 1495.8 1624.6 1482.6 1622.2 1474.1 1639.3 1458.2 1706 Z" data-holc_grade="D"/>
<path d="M 1458.2 1706 1465 1709.1 1443.6 1772.7 1450.8 1774.4 1448.8 1782 1458.6 1784.4 1452.4 1800 1443.6 1802.4 1438.5 1814.2 1432 1827.4 1443.6 1829.3 1440.4 1834.4 1433.6 1838.9 1433.2 1845.7 1422.4 1845.2 1408.2 1846.7 1394.8 1848 1385.9 1840.5 1374.3 1840.5 1368.4 1839.5 1364.2 1835.9 1365.5 1829.2 1366.8 1824.2 1367.4 1814.3 1374.6 1809.3 1377.2 1805.2 1377.2 1796.3 1369.1 1784.8 1372 1773.5 1380.1 1767 1382 1748.3 1375.2 1743.3 1357.7 1741.8 1364.2 1734.6 1406.7 1682.9 1458.2 1706 Z" data-holc_grade="D"/>
<path d="M 1350.7 2025.6 1332.8 2025.6 1332.5 2007 1324.4 2006.8 1323.7 1968.3 1338.8 1968.5 1339.8 1942.5 1339 1917.3 1333.3 1917.5 1332.3 1903.1 1339.6 1895.3 1342.8 1889.9 1344.2 1880.1 1369.6 1879.7 1377.5 1879.5 1395.5 1877.9 1406.7 1885.7 1374.2 1981.7 1362.1 2025.4 1350.7 2025.6 Z" data-holc_grade="D"/>
<path d="M 1173.1 860.5 1173.1 832.6 1200.8 831.4 1202.3 859.6 1173.1 860.5 Z" data-holc_grade="D"/>
<path d="M 1356.2 2060 1379.6 2059.5 1396.7 2056.9 1413.9 2054.7 1424.8 2052.7 1424.2 2060 1417.4 2070.8 1407.7 2088.9 1396.1 2104.1 1376.6 2127.5 1352.3 2127.9 1362 2087.5 1351.2 2083.5 1353.1 2074.8 1356.2 2060 Z" data-holc_grade="D"/>
<path d="M 1298.7 2215.7 1235.9 2217.5 1207.9 2218.5 1208.2 2215 1202.5 2215 1200.8 2134.1 1256.9 2132.1 1327.4 2129.6 1307.5 2195.7 1298.7 2215.7 Z" data-holc_grade="D"/>
<path d="M 1235.9 2217.5 1298.7 2215.7 1288.6 2245.5 1277.5 2246 1271.4 2245.3 1260.6 2234 1244.4 2234.5 1236.9 2231.2 1235.9 2217.5 Z" data-holc_grade="D"/>
<path d="M 1315.9 653.2 1426.1 653.2 1424 654.6 1419.9 691.8 1334.8 690.3 1316.9 690.8 1315.9 653.2 Z" data-holc_grade="D"/>
<path d="M 939.5 1234.9 959 1234.9 962.2 1254.8 1027.6 1252.2 1031.1 1294.8 942.5 1298.8 941.7 1275.2 927.1 1275.4 924.4 1234.7 939.5 1234.9 Z" data-holc_grade="D"/>
<path d="M 1158.3 1198.1 1158.7 1206.3 1105.7 1206.7 1101.9 1155 1129.2 1175.2 1129.4 1188.7 1146.5 1188.7 1158.3 1198.1 Z" data-holc_grade="D"/>
</g>
</svg>