<?xml version="1.0"?>
<svg xmlns="http://www.w3.org/2000/svg" version="1.2" baseProfile="tiny" width="3000" height="4397" viewBox="0 0 3000 4397" stroke-linecap="round" stroke-linejoin="round">
<g id="A">
<path d="M 1322.6 2396.5 1430 2657.9 1322 2702.9 1273.3 2595.3 1146.8 2644.7 1140.6 2612.1 1159.2 2563.6 1174.2 2541.5 1189.3 2514.2 1168.9 2449.8 1144.1 2420.7 1062.7 2263.8 1042.4 2245.2 1154.8 2207.4 1168 2203.8 1256.5 2423.4 1322.6 2396.5 Z" data-holc_grade="A"/>
</g>
<g id="B">
<path d="M 1328 753.1 1334.6 806 1353.2 911.7 1367.8 944.8 1367.8 964.6 1377.1 1008.2 1412.9 1198.6 1431.5 1281.9 1452.7 1350.7 1505.8 1572.8 1353.2 1478.9 1280.2 1562.2 1253.6 1381.1 1252.3 1009.5 1228.5 1020.1 1231.1 809.9 1160.8 552.2 1194 546.9 1217.9 634.1 1298.8 623.5 1317.4 708.1 1270.9 721.4 1278.9 761 1328 753.1 Z" data-holc_grade="B"/>
<path d="M 1669.5 1927.4 1765 2167.2 1750.9 2189.3 1743.8 2209.6 1759.8 2248.7 1472.1 2360.3 1460.1 2365.2 1449.5 2344.9 1322.6 2396.5 1256.5 2423.4 1168 2203.8 1154.8 2207.4 1110.5 2090.1 1297.3 2013.4 1283.1 1966.7 1344.2 1939.3 1407.9 1919.1 1423.8 1950.8 1584 1882.9 1591 1922.6 1669.5 1927.4 Z" data-holc_grade="B"/>
<path d="M 1151.5 3228.3 921.2 3356.4 729.9 3396.1 433.8 3409.2 335.5 3407.9 294.4 3393.3 194.8 3296.7 173.6 3264.9 212.1 3262.3 250.6 3220 144.4 3114.1 144.4 3090.3 574.6 3123.5 797.7 3099.8 858.8 3072 916 3054.4 1067.2 3007.8 1114.3 3115.9 1142.2 3187.3 1151.5 3228.3 Z" data-holc_grade="B"/>
<path d="M 1472.1 2360.3 1644.7 2752.7 1881 2668.1 1914.7 2750.1 1849.9 2779.9 1875.1 2847.3 1820.7 2859.2 1742.3 2896.3 1670.6 2945.2 1644.1 2982.3 1620.2 2982.3 1605.6 2977 1598.9 2987.6 1597.6 2995.5 1496.7 3036.5 1418.4 3085.5 1350.7 3126.5 1187.3 3211.1 1151.5 3228.3 1142.2 3187.3 1114.3 3115.9 1067.2 3007.8 1061.2 2994.2 1009.5 2868.5 992.2 2834.1 956.4 2720.3 1146.8 2644.7 1273.3 2595.3 1322 2702.9 1430 2657.9 1322.6 2396.5 1449.5 2344.9 1460.1 2365.2 1472.1 2360.3 Z" data-holc_grade="B"/>
<path d="M 2544.1 2980.1 2695.6 3134.8 2712.9 3201 2768.7 3518.5 2750.4 3526.4 2750.4 3552.9 2719.9 3566.1 2692 3429.8 2600.3 3205 2345.2 2925.9 2288.1 2879.6 2269.8 2827.9 2336.2 2814.7 2374.9 2812.5 2405.9 2827.9 2455.7 2878.6 2544.1 2980.1 Z" data-holc_grade="B"/>
</g>
<g id="C">
<path d="M 1228.5 1020.1 956.9 1119.2 812.7 766.7 808.3 644.2 821.6 636.3 803.9 567.5 1160.8 552.2 1231.1 809.9 1228.5 1020.1 Z" data-holc_grade="C"/>
<path d="M 1912.3 4118.6 1956 4185.4 1958.1 4224.2 1948.9 4278.5 1871 4307.5 1826.4 4192.4 1716.6 4281.4 1543.7 4396.4 1616.7 4157.9 1623.8 4104.9 1672.7 3914.7 1683.8 3909.6 1694.5 3947.9 1782.1 3918.8 1863.1 4142.4 1912.3 4118.6 Z" data-holc_grade="C"/>
<path d="M 1317.4 708.1 1298.8 623.5 1354.1 610.8 1353.2 582.6 1515.1 579 1530.1 669.8 1317.4 708.1 Z" data-holc_grade="C"/>
<path d="M 1764.1 1949.5 1704 1931.9 1669.5 1927.4 1591 1922.6 1584 1882.9 1423.8 1950.8 1407.9 1919.1 1367.8 1820 1290.8 1629.6 1280.2 1562.2 1353.2 1478.9 1505.8 1572.8 1452.7 1350.7 1431.5 1281.9 1412.9 1198.6 1377.1 1008.2 1367.8 964.6 1367.8 944.8 1353.2 911.7 1334.6 806 1328 753.1 1537.6 716.1 1550.9 751.8 1573.5 1077 1677 1040 1586.7 628.8 1564.2 635.4 1566.8 593.1 1544.3 531 1521.7 459.6 1285.6 454.3 1170.2 1 1249.8 20.8 1302.8 53.9 1358.5 64.5 1408.9 101.5 1464.7 157 1520.4 192.7 1580.1 200.6 1694.2 246.8 1832.1 353.9 1866.6 505.9 1856 513.8 1838.8 505.9 1822.9 498 1700.8 548.2 1698.2 593.1 1712.8 652.6 1768.5 753.1 1807 739.9 1868 713.4 1903.8 722.7 1950.3 1013.5 1889.3 1029.4 1840.2 1047.9 1809.7 1063.7 1749.9 1066.4 1723.4 1069 1659.7 1095.5 1682.3 1227.7 1493.8 1300.4 1528.3 1400.9 1712.8 1816.1 1764.1 1949.5 Z" data-holc_grade="C"/>
<path d="M 1704 1931.9 1883.7 2364.7 1850.9 2378.8 1910.2 2530.5 1879.2 2540.2 1759.8 2248.7 1743.8 2209.6 1750.9 2189.3 1765 2167.2 1669.5 1927.4 1704 1931.9 Z" data-holc_grade="C"/>
<path d="M 2038.5 1421.1 2115.5 1698.8 2085 1714.6 2168.6 1899.7 2200.8 1880.3 2346.6 2259.4 2212.5 2311 2191.3 2271.3 2176.7 2275.3 2147.5 2203.9 2089 2186.7 2026.7 2152.4 2013.4 2121.9 2024 2114 1915.1 1835 1867.3 1848.2 1771.7 1610.2 1842.1 1517.6 1819.5 1482 1831.5 1462.1 1858 1382.8 1865.9 1332.5 1869.9 1263.8 1969.4 1240 1985.4 1442.3 2038.5 1421.1 Z" data-holc_grade="C"/>
<path d="M 916 3054.4 858.8 3072 797.7 3099.8 574.6 3123.5 144.4 3090.3 144.4 3114.1 250.6 3220 212.1 3262.3 173.6 3264.9 127.1 3271.5 121.3 3275.1 99.2 3288.7 56.7 3234.4 31.5 3200 1 3186.8 14.5 2801.9 67.6 2808.5 131.3 2755.6 127.4 2665.7 322.5 2657.8 365 2794.1 394.1 2869.5 386.1 2956.8 528.2 2950.2 771.2 2911.9 844.2 2880.2 916 3054.4 Z" data-holc_grade="C"/>
<path d="M 1910.2 2530.5 1976.6 2506.7 2034.2 2654.8 1934.1 2691 1950.1 2738.6 1914.7 2750.1 1881 2668.1 1644.7 2752.7 1472.1 2360.3 1759.8 2248.7 1879.2 2540.2 1910.2 2530.5 Z" data-holc_grade="C"/>
<path d="M 2047.1 2500.8 2210.8 2437.3 2258.6 2566 2181.6 2599.5 2148.9 2518.4 2060.4 2552.8 2047.1 2500.8 Z" data-holc_grade="C"/>
<path d="M 2288.1 2879.6 2345.2 2925.9 2600.3 3205 2692 3429.8 2719.9 3566.1 2750.4 3552.9 2750.4 3526.4 2768.7 3518.5 2712.9 3201 2695.6 3134.8 2544.1 2980.1 2630.4 2931.1 2776.5 3097.8 2808.5 3216.8 2779.3 3227.4 2819.7 3419.4 2844.4 3537 2743.5 3574 2732.9 3605.8 2678.5 3617.7 2667.8 3572.7 2592.2 3587.3 2610.7 3514.5 2610.7 3439.1 2593.4 3412.7 2573.5 3427.2 2504.5 3444.5 2505.8 3517.2 2524.4 3541 2507.2 3579.4 2509.8 3608.5 2440.8 3633.7 2338.5 3412.8 2403.5 3386.3 2334.4 3299 2230.8 3041 2196.3 3148.2 2230.9 3247.4 2277.3 3260.6 2277.4 3340 2244.2 3452.5 2197.7 3473.7 2223 3543.8 2168.5 3557 2009.3 4139.8 1937.5 4081.6 1912.3 4118.6 1863.1 4142.4 1782.1 3918.8 1694.5 3947.9 1683.8 3909.6 1672.7 3914.7 1665.5 3918 1626.5 3865.1 1555.7 3695.7 1627.9 3669.1 1620.1 3631.6 1690.9 3602.9 1651.1 3501.5 1583.6 3527.9 1539.3 3533.4 1468.9 3555.5 1434.4 3488.5 1414.9 3415.2 1472.9 3391.2 1430.9 3365.9 1409.8 3333.9 1455.2 3262.2 1468.5 3235.8 1508.3 3206 1570.3 3163 1731.8 3064.9 1901.1 2957.1 2026.1 2924 2156.8 3302.1 2207.7 3285.5 2077 2894.2 2164.7 2858.5 2225.7 2836 2266.9 2959 2309.4 2940.5 2288.1 2879.6 Z" data-holc_grade="C"/>
</g>
<g id="D">
<path d="M 2026.7 2152.4 2089 2186.7 2147.5 2203.9 2176.7 2275.3 1929.7 2375.3 1976.6 2506.7 1910.2 2530.5 1850.9 2378.8 1883.7 2364.7 1704 1931.9 1764.1 1949.5 1801.3 2059.7 1870.3 2038.5 1927.9 2088.8 1949.1 2109 1957.1 2126.7 1972.1 2160.2 2007.5 2310.9 2057.1 2290.6 2026.7 2152.4 Z" data-holc_grade="D"/>
<path d="M 2138.1 1530.4 2175.2 1682.9 2182.1 1697.6 2262.9 1870.6 2474.1 2404.9 2549.7 2378.4 2695.9 2739.4 2668 2750 2579 2750 2437 2742.1 2393.2 2738.2 2357.3 2742.2 2316.1 2636.4 2289.6 2643 2258.6 2566 2210.8 2437.3 2047.1 2500.8 2033.3 2422.2 2229.8 2341.4 2212.5 2311 2346.6 2259.4 2200.8 1880.3 2203.9 1853.9 2217.2 1833.6 2224.3 1814.2 2216.8 1791.7 2197.7 1756.4 2189.8 1753.8 2168.1 1761.3 2148.6 1771 2135.8 1789.5 2138.5 1811.6 2149.5 1834.9 2155.3 1851.7 2165.9 1872.4 2169 1879.4 2178.7 1890.4 2200.8 1880.3 2168.6 1899.7 2085 1714.6 2115.5 1698.8 2038.5 1421.1 2104.8 1393.3 2138.1 1530.4 Z" data-holc_grade="D"/>
<path d="M 2182.1 1697.6 2207.1 1704 2227 1719.9 2277.4 1734.4 2308 1756.9 2308 1775.4 2304 1799.2 2304 1838.9 2309.3 1846.8 2594.6 1747.6 2929.5 2638.8 2994.6 2763.1 2985.3 2763.1 2970.7 2768.4 2957.4 2771 2925.6 2763.1 2885.7 2744.6 2851.2 2730.1 2823.3 2726.1 2792.8 2728.8 2746.3 2735.4 2695.9 2739.4 2549.7 2378.4 2474.1 2404.9 2262.9 1870.6 2182.1 1697.6 Z M 2182.1 1697.6 2175.2 1682.9 2138.1 1530.4 2184.5 1516.3 2207 1518.9 2233.6 1550.6 2232.3 1585 2220.3 1608.8 2238.9 1647.2 2204.4 1673.6 2182.1 1697.6 Z" data-holc_grade="D"/>
<path d="M 121.3 3275.1 127.1 3271.5 173.6 3264.9 194.8 3296.7 294.4 3393.3 335.5 3407.9 433.8 3409.2 729.9 3396.1 921.2 3356.4 1151.5 3228.3 1187.3 3211.1 1350.7 3126.5 1418.4 3085.5 1496.7 3036.5 1597.6 2995.5 1606.2 3005.2 1570.8 3032 1553.8 3037.7 1532.6 3040.5 1517.7 3046.8 1501.4 3060.9 1491.5 3082.8 1459.6 3099.7 1400.9 3132.2 1383.9 3138.5 1373.2 3142.1 1364 3149.1 1353.4 3151.2 1330 3161.8 1325.8 3172.4 1335.7 3175.2 1365.4 3167.5 1389.5 3158.3 1410.1 3149.1 1432 3135.7 1450.4 3125.8 1474.5 3110.3 1506.4 3092.7 1526.2 3080 1543.9 3073.6 1561.6 3060.2 1569.4 3044.7 1602 3018.6 1612.6 3015.8 1611.9 3027.1 1563 3079.3 1450.4 3159.7 1408.6 3169.6 1371.1 3197.8 1319.4 3235.2 1245 3273.3 1196.9 3328.3 1123.2 3369.2 1055.9 3377 1019.8 3396 941.2 3439.8 864.7 3451.8 716 3470.8 515.5 3463.7 359 3458 319.4 3457.2 298.1 3452.3 252.1 3425.5 225.9 3400.8 157.2 3316.1 121.3 3275.1 Z" data-holc_grade="D"/>
<path d="M 1414.9 3415.2 1434.4 3488.5 1468.9 3555.5 1457.4 3596.1 1466.3 3632.2 1497.3 3720.4 1555.7 3695.7 1626.5 3865.1 1665.5 3918 1523.8 3971 1308.7 3470.8 1414.9 3415.2 Z" data-holc_grade="D"/>
<path d="M 2819.7 3419.4 2779.3 3227.4 2808.5 3216.8 2776.5 3097.8 2630.4 2931.1 2747.7 2828.7 2779.8 2822.1 2787.5 2832 2777.6 2839.7 2764.3 2851.9 2770.9 2867.3 2795.3 2900.4 2915.9 3000.6 2925.9 3028.2 2943.6 3039.2 2956.9 3056.8 2973.5 3095.4 2999 3147.2 2840.8 3206.8 2864.1 3280.7 2938.2 3264.1 2961.5 3335.7 2971.4 3383.1 2819.7 3419.4 Z" data-holc_grade="D"/>
<path d="M 2592.2 3587.3 2559.4 3592.8 2569.5 3570.1 2588.6 3526.1 2592.3 3483.8 2594.4 3446.2 2590.1 3438.3 2580.6 3437.2 2566.8 3449.4 2567.9 3486.5 2571.6 3509.7 2565.2 3530.4 2548.8 3556.3 2531.2 3587.5 2530.2 3601.8 2509.8 3608.5 2507.2 3579.4 2524.4 3541 2505.8 3517.2 2504.5 3444.5 2573.5 3427.2 2593.4 3412.7 2610.7 3439.1 2610.7 3514.5 2592.2 3587.3 Z" data-holc_grade="D"/>
<path d="M 2009.3 4139.8 2168.5 3557 2223 3543.8 2222.2 3581.4 2238.8 3625.5 2303 3603.4 2371.7 3767.7 2484.6 3740.1 2621.9 4052.1 2659.6 4121.5 2442.6 4217.6 2323.1 4215.4 2274.4 4098.5 2310.9 4029 2319.7 3983.8 2300.9 3949.6 2271 3862.5 2221.2 3800.8 2153.7 3816.2 2134.9 3887.9 2091.7 4111.8 2086.2 4200 2009.3 4139.8 Z" data-holc_grade="D"/>
</g>
</svg>