<?xml version="1.0"?>
<svg xmlns="http://www.w3.org/2000/svg" version="1.2" baseProfile="tiny" width="3000" height="4000" viewBox="0 0 3000 4000" stroke-linecap="round" stroke-linejoin="round">
<g id="A">
<path d="M 633.7 2531 882 2418.7 959.3 2382.3 996.7 2366.7 1014.2 2377.7 1027.9 2401.4 1026.7 2420.6 1011.7 2423.3 970.5 2420.6 948.1 2471.7 951.8 2493.6 949.3 2515.5 933.1 2534.6 899.4 2546.5 868.2 2553.8 830.8 2568.4 797.1 2586.6 766 2592.1 722.3 2602.2 688.6 2607.6 669.9 2607.6 636.2 2617.7 633.7 2531 Z" data-holc_grade="A"/>
<path d="M 2037.1 2094.4 2014.7 2114.4 2008.7 2114 1977.9 2111.7 1954.2 2109.4 1946.7 2097.1 1949.8 2076.1 1930.5 2049.2 1924.8 2026.4 1886.2 1983.5 1964.2 1982.8 1979.7 1982.6 1987.2 2077.5 2003.4 2077.5 2031.5 2085.7 2037.1 2094.4 Z" data-holc_grade="A"/>
</g>
<g id="B">
<path d="M 1422.2 1169.4 1233 1170.3 1231.8 1120.4 1424.6 1117.8 1422.2 1169.4 Z" data-holc_grade="B"/>
<path d="M 1354.4 1442.1 1398 1443.1 1393 1452.2 1401.7 1468.6 1400.5 1478.6 1278.2 1479.6 1288.2 1634.6 1313.1 1634.6 1326.9 1625.4 1349.3 1617.2 1368 1621.8 1388 1630 1431.7 1632.7 1427.9 1724.8 1343.1 1723.9 1311.9 1725.7 1282 1735.8 1260.7 1713 1230.8 1727.6 1247 1755.8 1175.9 1786.8 1158.5 1772.3 1137.2 1779.6 1097.3 1775 1059.9 1760.4 1066.1 1962.9 1083.6 1966.5 1042.4 2020.3 1062.4 2023.1 1086.1 2063.2 1093.6 2078.7 942.6 2143.5 926.4 2143.5 928.9 2126.1 909 2094.2 887.7 2086 867.8 2061.4 877.8 2045.9 861.5 1993.9 857.8 1980.2 840.3 1977.5 824.1 1989.3 814.1 2018.5 804.2 2034 792.9 2030.4 740.5 2015.8 711.8 1995.7 811.6 1897.2 773.8 1886.4 814.2 1824 878.6 1845.3 873.1 1855.2 902 1864 942.9 1821.7 905.5 1809.2 734.9 1754.5 773.8 1686.1 764.8 1685 764.8 1669.7 731.9 1655.4 705.7 1633.6 673.5 1621.5 665.3 1604 658.5 1599.1 652.5 1560.3 763.2 1558.7 780.3 1583.1 789.2 1632.7 843.1 1623.2 899 1619.6 895 1602.8 835.1 1600.6 833.1 1548.1 811.2 1546.6 781.2 1550.5 780.4 1493 758 1490.3 755.7 1452.5 1055.9 1449.8 1053 1389.4 1144.7 1391.1 1143.5 1318.2 1187.1 1318.2 1193.4 1393.9 1268.2 1397.5 1270.7 1440.3 1354.4 1442.1 Z M 888 1537.1 888 1524.7 883 1499.9 866.1 1501.4 860.1 1525.5 870.1 1541.5 888 1537.1 Z M 1148.5 1717.3 1165.5 1712.2 1171.5 1696.9 1123.6 1699.8 1121.6 1721.7 1148.5 1717.3 Z" data-holc_grade="B"/>
<path d="M 826 2223.2 784.8 2223.2 638.1 2115.9 689.8 2049.2 721.2 2062.3 742.2 2077.1 849.2 2117.6 834.2 2147.7 823.8 2189.8 826 2223.2 Z" data-holc_grade="B"/>
<path d="M 1123.8 2225.5 1237.9 2226 1211.9 2267.6 1164 2293.2 1136.1 2304.1 1149.1 2320.2 1157 2339.9 1159 2355.2 1147.1 2374.9 1164 2396.8 1173 2417.3 1170 2423.8 1133.1 2434.8 1119.1 2434.8 1088.2 2411.4 1067.2 2410 1052.3 2401.2 1027.9 2401.4 1014.2 2377.7 996.7 2366.7 959.3 2382.3 882 2418.7 828.3 2367.7 990.5 2322 1096.5 2287.4 1116.5 2277.3 1100.3 2246.3 1087.2 2225.3 1123.8 2225.5 Z" data-holc_grade="B"/>
<path d="M 1959.2 1752.1 1920.2 1733.1 1897.3 1717.8 1876.3 1717.1 1838.4 1701 1876.3 1690.1 1923.2 1688.6 1963.1 1686.4 1959.2 1752.1 Z" data-holc_grade="B"/>
<path d="M 1750.5 1912.1 1826.3 1999 1848.1 2031.4 1867.5 2045.1 1879.3 2051.9 1877.4 2078.4 1915.5 2075.7 1923 2100.7 1946.7 2097.1 1954.2 2109.4 1977.9 2111.7 2008.7 2114 2014.7 2114.4 2010.3 2134.5 1990.3 2145.9 1978.5 2157.8 1984.5 2171.4 1948.6 2174.7 1881.2 2146.3 1844.5 2125.5 1803.4 2102.5 1709.1 2048.8 1787 2008.2 1729.6 1942 1614.8 1997.2 1596.8 1974 1662.9 1949.3 1679.7 1920.6 1736.5 1896 1750.5 1912.1 Z" data-holc_grade="B"/>
<path d="M 2075 1831.3 2223.6 1832.1 2228 1859 2245.5 1874.1 2254.2 1891.4 2259.2 1979.9 2254.2 2005 2234.9 2026.9 2169.4 2041.4 2156.9 2015.9 2146.3 2016.4 2124.5 2057.9 2110.1 2059.2 2087 2062.4 2068.9 2074.7 2043.4 2094.8 2037.1 2094.4 2031.5 2085.7 2003.4 2077.5 1987.2 2077.5 1979.7 1982.6 1964.2 1982.8 1962.9 1949.3 1960.4 1938.8 1961.7 1927.9 1972.9 1920.6 1978.5 1907.4 2043.4 1906.5 2044.6 1897.3 2047.7 1884.6 2040.9 1855.8 2043.4 1842.6 2052.3 1838.1 2065.8 1831.2 2075 1831.3 Z" data-holc_grade="B"/>
</g>
<g id="C">
<path d="M 1424.6 1117.8 1231.8 1120.4 1233 1170.3 1231.8 1170.3 1235.4 1233.5 1045.4 1234.8 1036.6 1194.8 950.4 1193.9 950.4 1134.4 922.8 1110.8 903.6 1130 903.6 1162.4 835.4 1165.9 833 1089.8 1039 1085.4 1031.8 1011 1191.1 1008.4 1203.1 1011.9 1198.3 958.5 1128.8 962.9 1130 927.9 1089.3 927.9 1085.7 918.3 1028.2 914.8 1029.4 782.7 1151.6 783.6 1150.4 813.3 1416.2 815.1 1424.6 1117.8 Z M 1259.3 1006.7 1259.3 1078.4 1300.1 1075.8 1301.3 1006.7 1259.3 1006.7 Z" data-holc_grade="C"/>
<path d="M 2059 1666 2075 1831.3 2065.8 1831.2 2052.3 1838.1 1996.1 1836.7 1981.1 1802.4 2000.1 1798 2004.1 1763.7 1964.1 1760.8 1959.2 1752.1 1963.1 1686.4 1923.2 1688.6 1876.3 1690.1 1838.4 1701 1797.5 1698.1 1785.5 1692.3 1757.6 1693 1705.7 1646.3 1702.7 1636.1 1739.6 1616.4 1763.5 1595.2 1848.4 1599.6 1857.4 1578.5 1847.4 1531.8 1863.3 1503.3 1888.3 1463.2 1891.3 1431.8 1898.3 1407.8 1915.2 1378.6 2040 1375.7 2049 1663.1 2059 1666 Z" data-holc_grade="C"/>
<path d="M 2264.5 1653.6 2266.2 1678.1 2287.5 2002.3 2280.5 2017.7 2228.6 2044.7 2177.7 2058.5 2169.4 2041.4 2234.9 2026.9 2254.2 2005 2259.2 1979.9 2254.2 1891.4 2245.5 1874.1 2228 1859 2223.6 1832.1 2075 1831.3 2059 1666 2076.9 1664.5 2066.9 1446.4 2118.8 1448.6 2118.8 1482.2 2164.7 1485.1 2162.8 1515.7 2211.7 1518.6 2214.6 1584.3 2198.7 1579.2 2197.7 1642.6 2203.7 1647.8 2264.5 1653.6 Z" data-holc_grade="C"/>
<path d="M 1750.5 1912.1 1736.5 1896 1679.7 1920.6 1674.1 1903.3 1791.4 1723.6 1806.3 1732.7 1824.4 1743.7 1860 1748.7 1876.8 1751.9 1879.9 1766 1879.3 1781.5 1892.4 1795.2 1909.9 1800.2 1907.4 1814.3 1906.1 1832.1 1905.5 1835.3 1800.7 1881.8 1781.4 1861.3 1752.1 1878.2 1765.8 1899.6 1750.5 1912.1 Z" data-holc_grade="C"/>
<path d="M 1709.1 2048.8 1640.1 2088 1581.8 2014.5 1614.8 1997.2 1729.6 1942 1787 2008.2 1709.1 2048.8 Z" data-holc_grade="C"/>
<path d="M 1470.7 2344.2 1467.7 2393.8 1424 2413.7 1378.4 2317 1459.5 2301 1470.7 2344.2 Z" data-holc_grade="C"/>
<path d="M 1731.3 2757.6 1684.3 2758.2 1686.3 2715.8 1588.5 2715.8 1583.1 2759.5 1473.3 2764.1 1353.5 2764.1 1353 2744.2 1355 2692.4 1353 2617.2 1345 2614.3 1261.2 2612.1 1261.2 2561.7 1314 2560.3 1318 2531.1 1401.9 2528.1 1404.9 2432.5 1447.8 2431 1453.8 2729.6 1496.7 2726.7 1496.7 2532.5 1576.5 2531.1 1571.5 2507.7 1493.7 2503.3 1491.7 2388 1467.7 2393.8 1470.7 2344.2 1510.7 2331.1 1579.5 2400.4 1584.5 2451.5 1642.4 2449.3 1681.3 2459.5 1688.3 2563.9 1722.2 2562.4 1731.3 2757.6 Z" data-holc_grade="C"/>
<path d="M 2061.2 2598.7 2036.2 2598.9 2031.2 2585 2041.8 2569.1 2080.5 2549.9 2109.2 2530.3 2121 2504.7 2110.4 2469.2 2097.3 2449.5 2075.5 2438.1 2038.7 2429.5 2008.8 2435.9 1985.7 2444.1 1969.5 2427.6 1953.3 2405.7 1942 2392.1 1942 2366.1 1959.5 2358.3 1972.6 2373.8 2009.4 2390.7 2045.6 2387.5 2078.6 2373.4 2099.8 2352.8 2116.7 2349.6 2120.4 2348.7 2129.2 2351.5 2141 2372.4 2147.9 2390.2 2153.5 2403.5 2139.8 2444.1 2139.8 2456.4 2147.2 2473.7 2153.5 2493.8 2156.6 2507.5 2155.3 2523.9 2138.5 2551.3 2121 2565.4 2109.8 2570.4 2084.2 2575.9 2064.9 2581.4 2061.2 2598.7 Z" data-holc_grade="C"/>
<path d="M 2047.3 2712.5 1893.7 2599.8 2036.2 2598.9 2061.2 2598.7 2316.6 2597.1 2309.1 2694.7 2151.9 2701.1 2134.5 2711.1 2047.3 2712.5 Z M 2256.7 2636.3 2158.2 2631.8 2153.2 2654.6 2258 2657.3 2256.7 2636.3 Z" data-holc_grade="C"/>
<path d="M 2641 3999.5 2627.2 3846.9 2659.7 3844.2 2652.2 3683.4 2765.7 3683.4 2759.5 3841.5 2781.9 3858.8 2879.2 3793 2999 3866.1 2818.1 3987.6 2641 3999.5 Z" data-holc_grade="C"/>
<path d="M 1053 1389.4 1055.9 1449.8 755.7 1452.5 758 1490.3 780.4 1493 781.2 1550.5 763.2 1558.7 652.5 1560.3 658.5 1599.1 646.6 1589.8 630.1 1581 623.3 1275.9 630.7 1235.4 1034.2 1234.9 1045.4 1234.8 1053 1389.4 Z" data-holc_grade="C"/>
<path d="M 1429.3 1382.4 1351.4 1385.3 1268.2 1397.5 1193.4 1393.9 1187.1 1318.2 1240.2 1318.2 1235.4 1233.5 1231.8 1170.3 1233 1170.3 1422.2 1169.4 1429.3 1382.4 Z" data-holc_grade="C"/>
<path d="M 1368 1621.8 1349.3 1617.2 1326.9 1625.4 1313.1 1634.6 1288.2 1634.6 1278.2 1479.6 1400.5 1478.6 1401.7 1468.6 1393 1452.2 1398 1443.1 1354.4 1442.1 1351.4 1385.3 1429.3 1382.4 1436.3 1615.8 1407.3 1615.8 1368 1621.8 Z" data-holc_grade="C"/>
<path d="M 905.5 1809.2 878.6 1845.3 814.2 1824 773.8 1886.4 725.9 1870.5 603.1 1836 425.7 1787.9 618.7 1592.6 630.1 1581 646.6 1589.8 658.5 1599.1 665.3 1604 673.5 1621.5 705.7 1633.6 731.9 1655.4 764.8 1669.7 764.8 1685 773.8 1686.1 734.9 1754.5 905.5 1809.2 Z M 523 1764.3 557.5 1773.1 568.7 1752.8 548.5 1739.7 523 1764.3 Z" data-holc_grade="C"/>
<path d="M 1083.6 1966.5 1066.1 1962.9 1059.9 1760.4 1097.3 1775 1137.2 1779.6 1158.5 1772.3 1175.9 1786.8 1247 1755.8 1413.4 1926.4 1250.6 1989.8 1208.2 2007.1 1143.3 2038.1 1083.6 1966.5 Z M 1288 1909.5 1271.2 1892.7 1228.8 1909.1 1243.1 1929.6 1288 1909.5 Z" data-holc_grade="C"/>
<path d="M 1427.9 1724.8 1437.3 1871.9 1419.3 1878.5 1282 1735.8 1311.9 1725.7 1343.1 1723.9 1427.9 1724.8 Z" data-holc_grade="C"/>
<path d="M 826 2223.2 969.7 2223.2 974.2 2179.4 1009.4 2178.9 1052.1 2183.8 1059.5 2226 826 2296.6 448 2305.9 440.5 2319.6 390.4 2325 391.1 2217.7 504.9 2216.1 524.4 2142.2 596.2 2176.7 608.9 2172.9 629.9 2200.8 644.9 2173.4 614.9 2153.2 638.1 2115.9 784.8 2223.2 826 2223.2 Z" data-holc_grade="C"/>
<path d="M 520.5 2474.2 530.9 2340.7 808.4 2332.1 858.3 2318.4 909.4 2302 1021.7 2270.9 1067.8 2257.3 1100.3 2246.3 1116.5 2277.3 1096.5 2287.4 990.5 2322 828.3 2367.7 882 2418.7 633.7 2531 632.5 2468.9 520.5 2474.2 Z" data-holc_grade="C"/>
</g>
<g id="D">
<path d="M 1655.3 777.6 1481.9 778.8 1460.9 779 1151.6 783.6 1029.4 782.7 1030.5 715.2 1449.7 711.5 1449.7 658.7 1039.2 658.7 1031.7 568.5 1343.6 570.3 1342.4 496.5 1243.8 491 1242.6 474.6 1433.4 473.7 1432.2 325.2 1250.1 325.2 1242.6 173.1 1324.9 164.9 1332.4 5.6 1468.4 1 1474.6 86.6 1513.3 84.8 1514.5 169.5 1447.2 169.5 1453.4 234.2 1618.1 229.6 1623.1 321.6 1725.4 318 1726.6 471 1830.1 471 1833.9 555.7 1725.4 556.6 1730.3 625.9 1843.9 625.9 1848.9 776.2 1655.3 777.6 Z" data-holc_grade="D"/>
<path d="M 1653.8 997.6 1652.8 1198.2 1600.4 1196.4 1589.2 1231.9 1534.3 1234.6 1530.5 1384 1493 1386 1484.4 1004 1653.8 997.6 Z M 1528.1 1058.7 1526.8 1069.7 1568 1063.3 1609.2 1049.6 1589.2 1033.2 1565.5 1045.1 1528.1 1058.7 Z M 1501.9 1778.1 1493.6 1410.6 1529.9 1407.7 1527 1521.9 1526.3 1551.8 1520.6 1776.2 1501.9 1778.1 Z" data-holc_grade="D"/>
<path d="M 1527 1521.9 1529.9 1407.7 1530.5 1384 1534.3 1234.6 1589.2 1231.9 1600.4 1196.4 1652.8 1198.2 1653.8 997.6 1654.1 930.2 1655.3 777.6 1848.9 776.2 1805 849.1 1735.2 854.6 1732.7 922 1758.9 949.4 1766.3 970.3 1770.1 1001.3 1780.1 1003.1 1798.8 1004 1801.3 1082.4 1772.6 1131.6 1742.6 1190 1723.9 1194.5 1716.4 1234.6 1644.1 1237.4 1652.8 1367.7 1596.7 1369.6 1597.7 1521.8 1527 1521.9 Z M 1501.9 1778.1 1520.6 1776.2 1526.3 1551.8 1597.9 1549.2 1597.9 1758 1697.7 1699.6 1730.2 1729.7 1706.5 1742.5 1677.8 1758.9 1660.3 1754.3 1604.2 1843.7 1591.7 1854.7 1564.2 1852.8 1548 1870.2 1548 1895.7 1499.4 1898.4 1501.9 1778.1 Z" data-holc_grade="D"/>
<path d="M 1915.2 1378.6 1898.3 1407.8 1891.3 1431.8 1888.3 1463.2 1863.3 1503.3 1847.4 1531.8 1857.4 1578.5 1848.4 1599.6 1763.5 1595.2 1749.7 1580.3 1741.7 1567.9 1687.8 1545.3 1790.6 1168.2 1854.5 1166.8 1856.5 1217.1 1872.4 1219.3 1909.4 1217.1 1920.3 1226.6 1951.3 1248.4 1970.2 1256.5 1943.3 1311.2 1925.3 1330.9 1914.3 1355.7 1915.2 1378.6 Z" data-holc_grade="D"/>
<path d="M 2472.2 1299.5 2265.6 1303.1 2265.7 1308.8 2159.9 1309.3 2159.1 1294.6 2150.9 1287.5 2132.9 1262.9 2115.7 1243.7 2109.7 1227.8 2125.4 1230.6 2149.4 1233.3 2171.8 1232.2 2186.8 1213.1 2197.3 1200 2213.7 1194.5 2227.2 1202.7 2253.4 1203.8 2260.9 1180.3 2253.4 1103.7 2364.9 1101.5 2370.2 1169.3 2347 1170.4 2302.1 1179.7 2281.1 1197.2 2266.1 1219.6 2284.9 1241.5 2322.3 1250.3 2358.2 1232.8 2385.2 1220.7 2418.8 1226.2 2442.8 1215.3 2464.5 1199.4 2498.2 1191.7 2532.6 1192.3 2566.3 1192.8 2595.5 1194.5 2638.1 1171 2690.5 1146.9 2716.7 1142.5 2753.4 1143.6 2769.1 1154 2773.6 1178.6 2783.4 1195.6 2805.1 1219.1 2800.6 1296.8 2472.2 1299.5 Z" data-holc_grade="D"/>
<path d="M 2266.2 1678.1 2264.5 1653.6 2267.6 1581 2358.5 1574.5 2267.6 1465.8 2265.7 1308.8 2265.6 1303.1 2472.2 1299.5 2472.2 1451.9 2580 1447.6 2579 1589.1 2677.8 1588.3 2677.8 1440.3 2894.4 1437.3 2895.4 1492 2688.8 1487.7 2688.8 1550.4 2893.4 1550.4 2891.4 1598.5 2801.6 1602.9 2800.6 1667.8 2690.8 1669.3 2693.8 1753.2 2480.2 1762 2481.2 1677.3 2266.2 1678.1 Z M 2521.1 1586.9 2521.1 1566.4 2482.2 1566.4 2481.2 1590.5 2521.1 1586.9 Z" data-holc_grade="D"/>
<path d="M 1669.4 2374 1676.1 2357.5 1691.8 2336.2 1703.8 2317 1703.8 2300.1 1685.9 2289.1 1673.9 2285.3 1655.2 2289.7 1636.5 2294.6 1618.5 2293 1595.3 2302.8 1580.3 2310.5 1575.8 2299 1547.4 2289.1 1520.4 2284.7 1477.8 2270.5 1482.3 2232.2 1454.6 2194.4 1571.3 2138.6 1661.9 2210.3 1751.7 2283.6 1751 2324.7 1776.4 2324.7 1764.5 2425.4 1679.9 2425.4 1669.4 2374 Z" data-holc_grade="D"/>
<path d="M 1669.4 2374 1658.9 2371.8 1615.5 2367.4 1595.3 2347.7 1583.3 2325.8 1580.3 2310.5 1595.3 2302.8 1618.5 2293 1636.5 2294.6 1655.2 2289.7 1673.9 2285.3 1685.9 2289.1 1703.8 2300.1 1703.8 2317 1691.8 2336.2 1676.1 2357.5 1669.4 2374 Z" data-holc_grade="D"/>
<path d="M 1803.4 2102.5 1692.6 2162.1 1670.9 2145.7 1712.8 2120.5 1687.4 2089.9 1665.6 2098.1 1676.9 2114 1659.7 2129.8 1621.5 2098.6 1640.1 2088 1709.1 2048.8 1803.4 2102.5 Z" data-holc_grade="D"/>
<path d="M 1893.9 2553 1862.5 2555.7 1844.5 2549.2 1834.1 2485.6 1818.3 2410.6 1819.1 2362.5 1829.6 2318.1 1837.1 2319.8 1854.3 2326.9 1864.8 2331.8 1874.5 2338.9 1876.7 2348.8 1873.7 2377.8 1867.7 2389.3 1879 2397.5 1877.5 2438.6 1890.2 2440.8 1890.2 2485.1 1894.7 2504.8 1896.9 2541.5 1893.9 2553 Z M 1984.5 2171.4 1995 2234.9 2088.6 2230 2090.1 2169.8 2293.6 2164.9 2296.8 2217 2301.1 2289.7 2180.6 2289.1 2172.4 2250.8 2137.2 2249.2 2138.7 2290.8 2091.5 2291.3 2091.5 2309.9 2091.5 2320.9 2084.1 2328 2069.8 2332.4 2060.9 2346.1 2045.1 2358.6 2027.9 2357 2015.2 2349.9 2009.2 2342.8 1977.8 2340 1953.1 2340 1943.3 2332.9 1939.6 2323.6 1916.4 2319.8 1906.7 2314.8 1903.7 2307.2 1890.2 2300.6 1863.3 2296.2 1835.6 2261.8 1812.4 2273.2 1748.7 2215.8 1765.2 2199.9 1748.7 2185.7 1726.3 2196.6 1692.6 2162.1 1803.4 2102.5 1844.5 2125.5 1881.2 2146.3 1948.6 2174.7 1984.5 2171.4 Z" data-holc_grade="D"/>
<path d="M 1353.5 2764.1 1473.3 2764.1 1478.3 2837.1 1479.5 2916.5 1482 3070.8 1364.8 3075.3 1357.3 2903.7 1353.5 2764.1 Z" data-holc_grade="D"/>
<path d="M 208.2 930.2 528.8 933.9 527.6 1016.8 633.6 1023.2 623.6 1093.4 215.7 1088.8 208.2 930.2 Z" data-holc_grade="D"/>
<path d="M 1890 2838.9 1907.9 2910.9 1479.5 2916.5 1478.3 2837.1 1585.6 2835.3 1583.1 2759.5 1684.3 2758.2 1731.3 2757.6 1858.8 2755.9 1886.2 2744.9 1862.5 2613.5 1947.4 2658.2 2014.7 2713 2047.3 2712.5 2134.5 2711.1 2151.9 2701.1 2309.1 2694.7 2316.6 2597.1 2382.7 2597.1 2389 2750.4 2317.9 2750.4 2319.1 2807.9 2234.3 2802.4 2236.8 2753.1 2160.7 2751.3 2165.7 2812.5 2104.5 2755 1897.5 2756.8 1875 2759.5 1890 2838.9 Z" data-holc_grade="D"/>
<path d="M 2296.8 2217 2293.6 2164.9 2484.6 2161 2469.7 1984 2695.5 1879.1 2700.5 1974 2532 1983.1 2540.8 2154.6 2610.6 2157.3 2611.9 2195.6 2702.9 2194.7 2724.2 2585.2 2619.4 2590.7 2623.1 2607.1 2644.3 2616.2 2651.8 2629.9 2631.8 2646.3 2645.6 2657.3 2660.5 2667.3 2650.6 2677.4 2649.3 2689.2 2658 2703.8 2659.3 2720.3 2646.8 2729.4 2644.3 2739.4 2626.8 2739.4 2578.2 2744.9 2580.7 2807.9 2443.5 2811.5 2442.2 2744 2504.6 2741.3 2497.1 2599.8 2409.8 2597.1 2411 2449.3 2401 2430.1 2398.6 2415.5 2421 2424.6 2437.2 2411.8 2455.9 2406.4 2470.9 2410.9 2477.1 2423.7 2487.1 2432.8 2509.6 2442 2517.1 2452 2517.1 2465.7 2502.1 2474.8 2483.4 2473 2487.1 2494 2489.6 2502.2 2505.8 2509.5 2502.1 2528.6 2525.8 2522.2 2528.3 2550.5 2544.5 2556.9 2540.8 2290.5 2491.4 2290.5 2489.9 2212.8 2296.8 2217 Z" data-holc_grade="D"/>
<path d="M 1907.9 2910.9 1890 2838.9 2171.9 2837.1 2317.9 2978.6 2139.5 2985 2139.5 2970.4 2150.7 2967.6 2150.7 2910.1 2122 2904.6 2138.2 3203.1 2209.3 3205.9 2220.6 3310.9 2134.5 3310.9 2190.6 3360.2 1983.5 3371.1 1972.3 3314.5 1885 3328.2 1882.5 3214.1 1695.4 3216.8 1687.9 3048.9 1800.1 3052.5 1801.4 2942.1 1913.7 2933.8 1907.9 2910.9 Z" data-holc_grade="D"/>
<path d="M 2105.8 3531.8 2239.3 3525.5 2219.3 3420.4 2291.7 3417.7 2285.4 3348.3 2448.8 3346.5 2466.3 3448.7 2359 3533.7 2265.5 3530.9 2238 3542.8 2245.5 3631.4 2105.8 3632.3 2105.8 3531.8 Z" data-holc_grade="D"/>
<path d="M 630.1 1581 618.7 1592.6 557.4 1554.8 439.1 1659.9 348.6 1629.8 496.8 1497.4 496.8 1277 623.3 1275.9 630.1 1581 Z" data-holc_grade="D"/>
<path d="M 425.7 1787.9 603.1 1836 725.9 1870.5 673.5 1933.4 654.8 1942.2 612.9 1986.5 603.1 1992 579.9 1993.6 569.5 1979.4 556 1959.1 549.2 1918.1 530.5 1904.4 504.3 1900.6 435.5 1903.9 381.6 1896.2 361.4 1882.5 351.6 1869.9 425.7 1787.9 Z" data-holc_grade="D"/>
<path d="M 530.9 2340.7 520.5 2474.2 450.1 2479.7 454.6 2604.5 415.7 2624.3 309.4 2628.6 309.4 2475.3 177.6 2475.3 4 2475.3 1 2324.2 98.3 2321 104.3 2222.4 207.6 2219.1 221.1 2319.9 333.3 2327.5 337.8 2385.5 530.9 2340.7 Z" data-holc_grade="D"/>
<path d="M 1290 2034.2 1239.1 2058.9 1173.9 2091.2 1129.8 2108.7 1114.8 2084.6 1272.8 2012.9 1290 2034.2 Z" data-holc_grade="D"/>
<path d="M 1303.4 1999.8 1426.2 1952.2 1453.1 1980.6 1347.6 2026.6 1321.4 2015.1 1303.4 1999.8 Z" data-holc_grade="D"/>
<path d="M 1237.9 2226 1123.8 2225.5 1170.2 2202.3 1218.9 2177.1 1239.1 2157.9 1257 2149.7 1265.3 2139.3 1266.8 2126.7 1295.2 2113.1 1239.1 2058.9 1290 2034.2 1324.4 2040.3 1340.1 2042.5 1337.9 2057.2 1373 2075.8 1382.8 2095 1367.1 2118.5 1360.3 2138.8 1377.5 2150.8 1507 2096.6 1501 2084.6 1504.8 2074.2 1516 2070.9 1533.2 2095.5 1541.5 2105.9 1352.1 2183.7 1373.8 2198.4 1316.2 2226.4 1237.9 2226 Z" data-holc_grade="D"/>
<path d="M 1481.9 778.8 1655.3 777.6 1654.1 930.2 1488.1 928.4 1486.9 892.9 1520.6 886.5 1523.1 862.8 1485.7 866.4 1481.9 778.8 Z" data-holc_grade="D"/>
</g>
</svg>