<?xml version="1.0"?>
<svg xmlns="http://www.w3.org/2000/svg" version="1.2" baseProfile="tiny" width="3000" height="2425" viewBox="0 0 3000 2425" stroke-linecap="round" stroke-linejoin="round">
<g id="A">
<path d="M 431.2 2197.5 639.7 2141.1 639.8 2141.4 695.6 2310.1 536.8 2424.5 429.6 2197.9 431.2 2197.5 Z M 752 2098.4 736.7 2051.8 716.7 1991 713.9 1982.4 704 1952.1 706.2 1951.4 745.7 1939.6 871.9 1901.5 946.9 1879.5 969.3 1872.9 1037 1853.1 1086.4 1816.9 1133.7 1782.2 1148 1767.4 1171.5 1743.1 1186.7 1724.4 1199.1 1709.1 1203.4 1705.1 1226 1683.8 1246.2 1676 1261.7 1670.1 1284.2 1666.4 1294.6 1669.4 1297.3 1670.2 1299.5 1670.8 1322.7 1688.9 1329 1702.6 1332.9 1711.3 1338.2 1733.5 1338.7 1735.9 1338.7 1736.2 1336.5 1745.6 1326.4 1788.7 1308.9 1814.7 1302.5 1820 1275.5 1842.2 1273.1 1844.7 1255.8 1862.5 1181.7 1930.5 1128.6 1975.3 1087.5 2001.4 1041.3 2014.4 1000.1 2022.3 924.6 2047 752 2098.4 Z M 1331.8 1339.8 1172.6 1387.5 1042.3 1429.6 1056.3 1468 1073.5 1524 1090.2 1587.9 1106.1 1631 1117.7 1670.8 1076.7 1681 1020.9 1697.6 959.9 1719.9 894.3 1737 834.8 1754.6 731 1784.7 647.2 1813.8 595.1 1824.9 549 1839.3 501.6 1816.1 477.4 1799 451.3 1772.6 422.5 1738.3 409 1708.2 402.5 1677.7 403.4 1652.2 416.9 1629.5 427.6 1622.6 436 1608.2 463.5 1578.1 494.2 1551.3 541.2 1508.7 552.8 1493.9 568.6 1459.6 591.4 1426.8 599.8 1398.5 573.8 1293 559.8 1255 624.5 1229.1 674.8 1214.3 843.2 1167.6 886 1308.8 991.6 1281 1015.8 1358.8 1038.2 1355.5 1074.4 1345.4 1136.3 1324.1 1247.5 1291.2 1378.3 1253.7 1456 1231.5 1492.3 1219.5 1568.1 1201.4 1692.8 1164.4 1783.6 1133.3 1857.5 1108.8 1940.4 1086.1 1993.4 1075.5 2033.9 1062.5 2052.5 1128.7 2012.5 1138 1989.2 1144.4 1899.4 1169.4 1602.1 1260.2 1459.3 1302.3 1331.8 1339.8 Z M 1405.3 1853.4 1463.1 1799.5 1509.6 1759 1552.5 1721.4 1580.1 1701.9 1667.4 1646.9 1724.8 1609.3 1780.8 1566.6 1826.6 1529 1859.3 1508 1881.1 1476.9 1921.1 1440.7 1996 1385 2068 1323.6 2171.9 1238.9 2261.3 1152.1 2301.3 1101.5 2392.2 1077.6 2501.2 977.8 2683.6 808.5 2680.1 809.6 2747.5 728 2790.7 673.6 2841.8 617.5 2876.1 559.6 2907 500 2905.4 500.6 2866.4 514.1 2747.5 550.9 2615.3 586.9 2480.5 629 2401.3 656.4 2400.1 652.3 2286.7 679.8 2223.5 700.8 2094.1 742.7 1926.1 796.3 1855.6 815.8 1782.9 837.5 1668.1 870.8 1496.5 919.3 1497.2 921.5 1444.1 934.6 1393.1 953.3 1372.8 956.1 1277 986 1197.3 1004.1 1102.3 1029 1083.4 974.9 1082.7 973.1 1116.3 963.3 1176.3 949.9 1237.1 935.3 1281.4 920.6 1382.1 890.3 1478.3 864.5 1555.3 844.4 1617 823.5 1694.9 799 1828.7 763 1928.5 733.1 1984 714.4 2031.4 702 2107.9 679.7 2165.2 658.3 2271.2 618.7 2327.2 609.8 2410.8 591.1 2505.2 566.6 2563.4 542.5 2612.2 531.4 2689.1 508.2 2773.7 482.8 2827.4 471.7 2922.6 441.5 2923.5 438.4 2997.7 412.4 2999 412 2999 446.1 2994.1 460 2975.9 485.7 2935.4 541.4 2894.9 598.4 2853.6 656.9 2806.8 723.6 2776 762.6 2734.8 821 2711.7 841.2 2641.1 904.5 2577.5 961.6 2529.3 1007.5 2448.9 1077.8 2370.6 1147.4 2317.4 1196.1 2264.3 1242 2186 1311.6 2115.4 1375.6 2078.3 1401.3 2004.9 1454.2 1930.1 1509.2 1869.3 1553.7 1822.4 1590.6 1755.3 1637.2 1693.8 1683.8 1653.9 1713 1577 1772.9 1495.9 1831.3 1416.1 1892.5 1405.3 1853.4 Z" data-holc_grade="A"/>
</g>
<g id="B">
<path d="M 2401.3 656.4 2467 875.1 2680.1 809.6 2683.6 808.5 2501.2 977.8 2392.2 1077.6 2301.3 1101.5 2261.3 1152.1 2171.9 1238.9 2068 1323.6 1996 1385 1921.1 1440.7 1881.1 1476.9 1859.3 1508 1826.6 1529 1780.8 1566.6 1724.8 1609.3 1667.4 1646.9 1580.1 1701.9 1552.5 1721.4 1509.6 1759 1463.1 1799.5 1405.3 1853.4 1404.9 1853.8 1403.4 1861.8 1297.3 1931.2 1267.5 1947.1 1084.2 2003.5 1087.5 2001.4 1128.6 1975.3 1181.7 1930.5 1255.8 1862.5 1273.1 1844.7 1275.5 1842.2 1302.5 1820 1308.9 1814.7 1326.4 1788.7 1336.5 1745.6 1338.7 1736.2 1338.7 1735.9 1338.2 1733.5 1332.9 1711.3 1329 1702.6 1322.7 1688.9 1299.5 1670.8 1297.3 1670.2 1294.6 1669.4 1284.2 1666.4 1261.7 1670.1 1246.2 1676 1226 1683.8 1203.4 1705.1 1199.1 1709.1 1186.7 1724.4 1171.5 1743.1 1148 1767.4 1133.7 1782.2 1086.4 1816.9 1037 1853.1 969.3 1872.9 946.9 1879.5 871.9 1901.5 745.7 1939.6 706.2 1951.4 704 1952.1 713.9 1982.4 716.7 1991 736.7 2051.8 752 2098.4 753.4 2102.6 639.8 2141.4 639.7 2141.1 431.2 2197.5 389.8 2119.6 347.8 1981.7 300.9 1807.6 254.8 1653.9 179 1419.1 176.8 1412 180.2 1410.4 502.5 1266.3 469.2 1164.4 579 1131.8 674.3 1099.3 744.8 1079.1 828.4 1059.5 922.2 1033.5 922.4 1034.3 953.4 1139.1 1031.9 1105.1 1113 1078.3 1114.8 1077.6 1127.2 1110.2 1263.1 1073.3 1395.5 1037.1 1519 998.1 1497.2 921.5 1496.5 919.3 1668.1 870.8 1782.9 837.5 1855.6 815.8 1926.1 796.3 2094.1 742.7 2223.5 700.8 2286.7 679.8 2400.1 652.3 2401.3 656.4 Z M 1331.8 1339.8 1459.3 1302.3 1602.1 1260.2 1899.4 1169.4 1989.2 1144.4 2012.5 1138 2052.5 1128.7 2033.9 1062.5 1993.4 1075.5 1940.4 1086.1 1857.5 1108.8 1783.6 1133.3 1692.8 1164.4 1568.1 1201.4 1492.3 1219.5 1456 1231.5 1378.3 1253.7 1247.5 1291.2 1136.3 1324.1 1074.4 1345.4 1038.2 1355.5 1015.8 1358.8 991.6 1281 886 1308.8 843.2 1167.6 674.8 1214.3 624.5 1229.1 559.8 1255 573.8 1293 599.8 1398.5 591.4 1426.8 568.6 1459.6 552.8 1493.9 541.2 1508.7 494.2 1551.3 463.5 1578.1 436 1608.2 427.6 1622.6 416.9 1629.5 403.4 1652.2 402.5 1677.7 409 1708.2 422.5 1738.3 451.3 1772.6 477.4 1799 501.6 1816.1 549 1839.3 595.1 1824.9 647.2 1813.8 731 1784.7 834.8 1754.6 894.3 1737 959.9 1719.9 1020.9 1697.6 1076.7 1681 1117.7 1670.8 1106.1 1631 1090.2 1587.9 1073.5 1524 1056.3 1468 1042.3 1429.6 1172.6 1387.5 1331.8 1339.8 Z M 1083.4 974.9 1060.8 978.9 1030.8 992.2 1030.5 991 1016.1 941.9 1032.2 937 1046.9 934.4 1078.3 919.2 1114.1 907.6 1135.1 906.3 1195.5 889 1255.9 873.8 1311.9 857.4 1377.6 836.4 1409 828.9 1448.3 820.4 1521.7 795.9 1539.2 783.9 1572.3 774.5 1610.3 762.5 1634 757.2 1644.8 758.1 1693.6 742.9 1712.8 737.6 1760.7 725.6 1802.3 711.8 1860.5 694.4 1914.2 678.4 1958 666.3 1977.7 658.8 2023.8 645.4 2057.3 634.3 2142.8 609.3 2193.4 591.1 2255.1 571.9 2210.4 417 2181.7 328.9 2307.9 295.5 2411.2 263.4 2510.5 233.1 2615.2 204.2 2706.5 175.7 2813.4 145.4 2906 116.4 2924.4 143.6 2940.5 207.7 2947.2 218.3 2969.2 301.1 2987.5 362.1 2997.7 412.4 2923.5 438.4 2922.6 441.5 2827.4 471.7 2773.7 482.8 2689.1 508.2 2612.2 531.4 2563.4 542.5 2505.2 566.6 2410.8 591.1 2327.2 609.8 2271.2 618.7 2165.2 658.3 2107.9 679.7 2031.4 702 1984 714.4 1928.5 733.1 1828.7 763 1694.9 799 1617 823.5 1555.3 844.4 1478.3 864.5 1382.1 890.3 1281.4 920.6 1237.1 935.3 1176.3 949.9 1116.3 963.3 1082.7 973.1 1083.4 974.9 Z" data-holc_grade="B"/>
</g>
<g id="C">
<path d="M 1113 1078.3 1101.5 1029.2 1102.3 1029 1197.3 1004.1 1277 986 1372.8 956.1 1393.1 953.3 1444.1 934.6 1497.2 921.5 1519 998.1 1395.5 1037.1 1263.1 1073.3 1127.2 1110.2 1114.8 1077.6 1113 1078.3 Z M 2680.1 809.6 2467 875.1 2401.3 656.4 2480.5 629 2615.3 586.9 2747.5 550.9 2866.4 514.1 2905.4 500.6 2907 500 2876.1 559.6 2841.8 617.5 2790.7 673.6 2747.5 728 2680.1 809.6 Z" data-holc_grade="C"/>
</g>
<g id="D">
<path d="M 2906 116.4 2813.4 145.4 2706.5 175.7 2615.2 204.2 2510.5 233.1 2411.2 263.4 2307.9 295.5 2181.7 328.9 2210.4 417 2255.1 571.9 2193.4 591.1 2142.8 609.3 2057.3 634.3 2023.8 645.4 1977.7 658.8 1958 666.3 1914.2 678.4 1860.5 694.4 1802.3 711.8 1760.7 725.6 1712.8 737.6 1693.6 742.9 1644.8 758.1 1634 757.2 1610.3 762.5 1572.3 774.5 1539.2 783.9 1521.7 795.9 1448.3 820.4 1409 828.9 1377.6 836.4 1311.9 857.4 1255.9 873.8 1195.5 889 1135.1 906.3 1114.1 907.6 1078.3 919.2 1046.9 934.4 1032.2 937 1016.1 941.9 1030.5 991 963.7 1017.6 922.4 1034.3 922.2 1033.5 828.4 1059.5 744.8 1079.1 674.3 1099.3 579 1131.8 469.2 1164.4 502.5 1266.3 180.2 1410.4 176.8 1412 113.5 1189.7 35.9 928.1 1 820.3 307.3 732.7 573.7 653.5 646.4 620.8 686.9 613.8 989.7 524.8 1331.6 424 1351.8 418.4 1544.1 315.5 1660.1 277.9 1704.2 267.5 1741.9 265.4 1924.4 214.6 2018.8 191 2127.1 134.6 2606 1 2645.9 34.4 2659.1 84.5 2808 37.8 2906 116.4 Z" data-holc_grade="D"/>
</g>
</svg>