<?xml version="1.0"?>
<svg xmlns="http://www.w3.org/2000/svg" version="1.2" baseProfile="tiny" width="3000" height="2832" viewBox="0 0 3000 2832" stroke-linecap="round" stroke-linejoin="round">
<g id="A">
<path d="M 456.2 2260.7 524.4 2242.9 548.3 2333.7 481.5 2354.5 456.2 2260.7 Z" data-holc_grade="A"/>
<path d="M 697.6 2314.4 585.2 2190.4 517.5 2190.4 448.3 2189.3 444.8 2218.6 393.6 2009.8 445.4 2005.4 447.9 2020.8 469.8 2021.8 469.8 2027.7 537 2013.9 548.9 2058.5 481.2 2074.3 492.6 2126.4 502.6 2119.9 586.7 2040.2 628.5 2138.3 640.3 2134.2 623.5 2081.3 648.4 2070.9 799.2 2235.6 697.6 2314.4 Z" data-holc_grade="A"/>
<path d="M 2202.4 1383.2 1964.5 1470 1906.9 1328.3 1962.1 1308.2 1963.8 1307.5 2088.3 1262.7 2153.4 1239.2 2202.4 1383.2 Z M 2066.5 1337.6 2063.4 1330.1 2070.7 1318.1 2092.5 1290.8 2101.7 1273.8 2068.7 1304.5 2046.3 1332.1 2039.1 1347.4 2031.4 1365.9 2024 1392.9 2016.3 1420 2017 1430.5 2030.3 1442.8 2032.6 1433.2 2043 1421.1 2084.5 1401.2 2060 1407.3 2034 1414.5 2028.8 1410.2 2031 1398.7 2037.9 1384.8 2055.6 1343.5 2070.9 1344.6 2066.5 1337.6 Z" data-holc_grade="A"/>
<path d="M 1055.6 422.7 1049.8 506.5 1057.6 521.2 1067.5 532.8 954.1 526 957.8 483.6 939.5 481.1 927.4 523.1 848.9 509.8 889 359.2 958.3 372.1 1027.6 380.9 1025.5 396.7 1055.6 397.1 1055.6 422.7 Z" data-holc_grade="A"/>
</g>
<g id="B">
<path d="M 1652.6 2484.5 1644.6 2488.6 1649.9 2502.5 1670.9 2521.3 1706.8 2549.6 1723.8 2560.5 1749.6 2583.2 1854.7 2656.8 1854.7 2666.8 1825.8 2649.8 1814 2665.1 1772 2712.2 1783.4 2720.9 1690.6 2831.2 1619.7 2668.6 1634.7 2651.3 1623.2 2642.4 1672.5 2578.2 1636.9 2557.3 1577.5 2524.6 1549.3 2517.4 1561.5 2506.3 1557.9 2496.5 1570.8 2487 1564.7 2478.3 1539.4 2471.1 1546.5 2466.6 1535.5 2453.8 1554 2440.4 1557.9 2445.1 1581.5 2426.4 1593.8 2414.4 1547 2368.1 1530.8 2353.4 1552.6 2334.4 1561.6 2344.2 1615.1 2396.3 1612.8 2399.4 1617.6 2407.2 1621.8 2405.8 1616.6 2400.1 1622.3 2392.7 1681.4 2469.8 1652.6 2484.5 Z" data-holc_grade="B"/>
<path d="M 1238.8 2291.2 1371.1 2156.3 1405 2121.7 1449.8 2120.7 1458.8 2131.6 1474.7 2140.5 1502.1 2181.2 1471.2 2205 1504.6 2248.6 1339.3 2408.8 1304 2377.5 1288.5 2347.3 1238.8 2291.2 Z" data-holc_grade="B"/>
<path d="M 787.7 2467 550.5 2516.5 529.4 2538.1 503.8 2427.3 559.8 2409.5 573.8 2442.8 728.7 2315.1 745.8 2313.5 787.7 2467 Z" data-holc_grade="B"/>
<path d="M 1156.5 2009.9 1214.1 2079.7 1100.5 2175.7 1072.5 2192.7 1087.3 2205.9 1004.8 2272.5 1011 2331.4 952.7 2328.3 828.2 2303.5 833.7 2257.8 885.8 2237.8 879.1 2223 919.7 2208.8 902.7 2197 966.1 2172.5 956.4 2162.1 1097.4 2047.8 1107.4 2060.2 1134.8 2033.2 1127.8 2021.5 1156.5 2009.9 Z" data-holc_grade="B"/>
<path d="M 916.7 2082.9 985.9 2049.4 973.2 2018 999 2012.9 1024.5 2001.8 1010.2 1985.9 1001.2 1973.9 999.2 1964.4 1001.9 1960.5 1010.5 1966.2 1021.3 1968.5 1036.9 1960.2 1038.2 1940.6 1058 1926.6 1064.5 1930.6 1074.2 1920.6 1061.5 1913.9 1059.9 1901.5 1062.7 1888.8 1071.3 1888.8 1137.3 1931.4 1140.1 1940.6 1136.6 1950.7 1101.9 1968.8 1112.1 1992 1017.8 2038.9 1037.2 2064 952.8 2125.2 948.6 2118.5 941.6 2117.1 916.7 2082.9 Z" data-holc_grade="B"/>
<path d="M 804.7 2051.2 828.9 2036.6 812.6 2016 860.1 1990 871.9 2011.4 896.7 1996.7 916.5 2033.5 898.3 2042.7 910.7 2067.1 896.1 2071.2 903.4 2086.2 853.4 2108.4 804.7 2051.2 Z" data-holc_grade="B"/>
<path d="M 952.3 1694.4 928.8 1717.1 764 1507.1 733.7 1462.2 759.3 1442.1 845.6 1566 903.9 1638.1 952.3 1694.4 Z" data-holc_grade="B"/>
<path d="M 2067.2 1759.7 1862.7 1835.6 1815.3 1851.9 1761.6 1711.7 1804.4 1728 1825.4 1728 1832.3 1715.9 1868 1718.2 1873.1 1715.9 1894.4 1722.9 1929.8 1729.2 2002.1 1730.2 2009.1 1747.9 2018 1747 1987.7 1675.9 2078.9 1667.5 2075.4 1705.6 2073.5 1750.2 2085.4 1751.2 2067.2 1759.7 Z" data-holc_grade="B"/>
<path d="M 1958.4 1604.9 1810.6 1659.8 1803.3 1638.9 1797.6 1639.9 1763.6 1634.8 1761.9 1636.2 1750.6 1630.3 1750.5 1641.6 1737 1645.5 1730.5 1627.1 1820.9 1596 1835.1 1589.5 1856.7 1582.9 1855.9 1577.3 1938 1549.5 1958.4 1604.9 Z" data-holc_grade="B"/>
<path d="M 2491.9 1505.7 2606.3 1511.6 2643.2 1633 2471.5 1619.7 2481.8 1562.4 2491.9 1563.2 2491.9 1523.1 2491.9 1505.7 Z" data-holc_grade="B"/>
<path d="M 2227.6 939.7 2127.2 1034.9 2291.7 1055.8 2286.9 1115.5 2327.1 1121.1 2346.8 1203.9 2309.7 1200.8 2268.5 1182.1 2227 1176.9 2220.4 1188.7 2182.8 1200.9 2122.9 1185.2 2091.9 1187.4 2055.1 1159.1 1978.6 1174.4 1933.6 1183.1 1903 1174.4 1881.5 1181.4 1857.9 1201.8 1778.6 1271.8 1763.6 1232 1732 1248.2 1702 1166.3 1645.2 1185.5 1630.9 1139.2 1599.3 1154.8 1570.8 1074.3 1602.9 1061.7 1575.2 985.6 1589.2 980.1 1613.9 1053.1 1621.7 1050.6 1629.5 1065.4 1658.9 1054.5 1653.3 1005.1 1684.4 1006.5 1681.3 1025.5 1702.6 1030.2 1691.7 1034.7 1696.4 1054.2 1719.1 1107.2 1777.9 1086 2031.8 997.7 2248.8 914.3 2254.4 904.7 2234.8 879 2217.3 883.3 2205.9 884.2 2203.3 848.1 2275 842.8 2287.7 838 2292 828 2310.4 813.2 2308.6 804.9 2330 796.6 2395.6 731.3 2393.4 709.5 2405.6 708.2 2411.8 742.2 2465.1 696.4 2490 671.6 2532.9 675 2533.7 700.7 2541.2 701.6 2540.7 727.7 2555.6 746 2549.5 797.4 2542.6 840.5 2371.6 857.6 2368.1 794.4 2311.3 850.6 2269.3 895.1 2236.5 931.2 2227.6 939.7 Z" data-holc_grade="B"/>
<path d="M 2153.4 1239.2 2088.3 1262.7 2071.8 1251.2 2110.4 1237.3 2112.1 1222.5 2098.3 1198.8 2121.3 1198 2149.3 1204.9 2175.3 1214.1 2246.4 1194 2250 1195.1 2228.2 1204.6 2213.6 1209.1 2210 1220.5 2153.4 1239.2 Z" data-holc_grade="B"/>
<path d="M 1963.8 1307.5 1962.1 1308.2 1906.9 1328.3 1964.5 1470 2202.4 1383.2 2225 1445.9 2241.3 1437.4 2253 1497 2337.7 1485.4 2339.3 1495.5 2447.3 1480.7 2462.9 1568.2 2465.3 1665 2517.4 1675.1 2522.9 1686.7 2507.3 1701.4 2480.1 1722.3 2397.7 1723.1 2370.5 1710 2361.1 1635.6 1979.5 1666.1 1958.4 1604.9 1938 1549.5 1855.9 1577.3 1856.7 1582.9 1835.1 1589.5 1820.9 1596 1730.5 1627.1 1726.8 1616.1 1686.5 1498.2 1658.9 1417.4 1812.1 1362.4 1778.6 1271.8 1919.3 1299.7 1922 1270.1 1970.9 1272.4 1963.8 1307.5 Z" data-holc_grade="B"/>
<path d="M 2214.3 728.2 2276.4 717.6 2299.1 719.8 2320.9 721.2 2328.2 727.1 2320.9 752.7 2322.3 777 2289.6 778.7 2287.6 763.3 2218.8 763.9 2214.3 728.2 Z" data-holc_grade="B"/>
<path d="M 1153.5 538.1 1105.5 535.5 1104.9 556.6 1104.9 558 1104.6 569.2 1107 591.1 1107.3 594.4 1112.2 639.5 1119.3 640.6 1121.6 647.2 1134.9 712.8 1144.4 763.4 1146.4 768.7 1149.9 778.2 1164.1 816.5 1196.6 906.2 1216.8 964.2 1189.1 975.6 1104 1005.4 1120.8 1034.9 1163.9 1113.4 1124.6 1132.6 1188 1245.8 1221.6 1227.1 1252.7 1282 1244.4 1288.1 1299.9 1384.8 1328.8 1370.4 1342.8 1417.5 1299.9 1442.8 1326.6 1494.6 1250 1537.3 1157.2 1377.7 1098.5 1285.1 1050.5 1186.2 973.6 1054.3 852.1 713 833.9 665.1 829.7 591.8 899 606.7 904.4 582.2 932.1 586.5 921.4 656.6 937.5 652.4 938.5 673.7 992.9 821.5 1037.8 810.8 978 647.1 1079.4 642.9 1076.2 535.5 1067.5 532.8 1057.6 521.2 1049.8 506.5 1055.6 422.7 1102 427.1 1097.6 482.4 1137.4 485.4 1153.5 538.1 Z" data-holc_grade="B"/>
</g>
<g id="C">
<path d="M 1868.2 2647 1809.8 2606.7 1756.9 2566.7 1709.8 2533.7 1684.6 2513.1 1670.6 2496.9 1652.6 2484.5 1681.4 2469.8 1622.3 2392.7 1622.8 2388.7 1633 2382 1656.2 2361.1 1694.8 2413.7 1744.2 2474.7 1768.7 2496.9 1792 2521 1827.7 2553.6 1896.9 2611.6 1868.2 2647 Z" data-holc_grade="C"/>
<path d="M 1214.1 2079.7 1156.5 2009.9 1153.7 2000.7 1177.1 1995.7 1186.5 1987.3 1239.8 1994.7 1246.8 1987.8 1264.7 2008.6 1246.8 2033.4 1247.8 2038.9 1230.8 2053.2 1234.8 2063.6 1214.1 2079.7 Z" data-holc_grade="C"/>
<path d="M 764 1507.1 928.8 1717.1 952.3 1694.4 1120 1861.2 1100.6 1882.1 1016.6 1827.9 946.6 1760.4 903.9 1719.4 804.4 1603.2 791.2 1601.6 744.5 1516.4 764 1507.1 Z" data-holc_grade="C"/>
<path d="M 2185.1 2112.6 2118.4 2167.2 2100.5 2180.1 2084 2214.8 1981.5 2141.4 1862 2020 1892.3 1982.8 1866.6 1958 1830 1883.7 1875.1 1872 1862.7 1835.6 2067.2 1759.7 2102.2 1861.1 2068.8 1909.2 2075 1926.2 2040 1970.4 1995.7 1954.9 1956 1968.1 1942.8 2005.3 1940.5 2023.9 1959.2 2058.7 1956.3 2074.5 1977.3 2064.3 1971.9 2018.6 1977.9 2001.5 2004.1 1999.9 2013.3 2018.6 2020 2045.6 2041.3 2055.7 2063 2053.8 2090.7 2038.6 2102.5 2013.5 2124.5 2077 2170.4 2104.2 2185.1 2112.6 Z" data-holc_grade="C"/>
<path d="M 2506.8 2397.1 2495.3 2405.1 2452.6 2362.1 2502.2 2308.8 2546.5 2350.6 2506.8 2397.1 Z" data-holc_grade="C"/>
<path d="M 2291.7 1055.8 2127.2 1034.9 2227.6 939.7 2259.3 1004.4 2292.1 991.5 2312.6 1058.2 2291.7 1055.8 Z" data-holc_grade="C"/>
<path d="M 1686.5 1498.2 1726.8 1616.1 1671.6 1636.9 1624.9 1520.3 1672.5 1495.9 1686.5 1498.2 Z" data-holc_grade="C"/>
<path d="M 1778.6 1271.8 1812.1 1362.4 1658.9 1417.4 1639.3 1368.3 1619.6 1310.3 1588.8 1326 1591.2 1297.3 1631 1275.5 1627.9 1268.5 1669 1244.6 1645.2 1185.5 1702 1166.3 1732 1248.2 1763.6 1232 1778.6 1271.8 Z" data-holc_grade="C"/>
<path d="M 1221.6 1227.1 1188 1245.8 1124.6 1132.6 1163.9 1113.4 1120.8 1034.9 1104 1005.4 1189.1 975.6 1235.4 1085.6 1273.1 1194.5 1221.6 1227.1 Z" data-holc_grade="C"/>
</g>
<g id="D">
<path d="M 1907.7 2673.2 1927.4 2643.2 1995.4 2656.2 2140.5 2688.8 2127.1 2742.4 2002.1 2715.7 2009.4 2698.7 1907.7 2673.2 Z" data-holc_grade="D"/>
<path d="M 1854.7 2656.8 1749.6 2583.2 1723.8 2560.5 1706.8 2549.6 1670.9 2521.3 1649.9 2502.5 1644.6 2488.6 1652.6 2484.5 1670.6 2496.9 1684.6 2513.1 1709.8 2533.7 1756.9 2566.7 1809.8 2606.7 1868.2 2647 1861.5 2658.1 1854.7 2656.8 Z" data-holc_grade="D"/>
<path d="M 364.3 1035.3 397.6 1003.1 414.1 1018.5 437.4 1025.9 501.1 1089.9 561.2 1189.5 545.8 1197.9 512 1148.8 487.6 1116.6 471.7 1085.9 440.4 1060.6 424.9 1055.4 364.3 1035.3 Z" data-holc_grade="D"/>
<path d="M 476.8 969.9 543.3 1035 582.2 1073.1 588.1 1093.9 599.6 1125.1 612 1124.6 614.5 1138 633.4 1139.5 639.9 1159.3 636.9 1171.7 642.3 1204.9 646.3 1220.8 585.1 1226.2 581.6 1206.9 593.6 1206.4 591.1 1184.1 578.2 1185.5 568.7 1125.1 561.3 1101.3 541.4 1108.7 522 1101.3 512.5 1087.4 499.1 1067.1 515.5 1053.7 477.2 1007.6 467.8 1013.5 458.3 1000.1 476.8 969.9 Z" data-holc_grade="D"/>
<path d="M 1 715.3 51.2 713.4 61.1 743.3 78.6 738.2 92.9 723.3 99 728.4 166.4 904.4 185.8 899.1 173.4 858.5 180.4 858.1 169 820.1 190.3 815.3 195.7 826.1 216.4 823.6 224.3 851.2 258.4 832.8 301.4 912.8 317.3 923.2 302 932.4 318.5 950.5 312.8 959.1 255.2 903.9 242.5 909.9 309 978.4 302.9 980.9 309.3 993 234.4 1020.6 228.1 1009.1 223.3 1010.7 219.2 995.2 213.8 981.2 205.2 959.3 195.3 943.1 192.1 929.5 176.5 932.3 199.4 1001.5 179.6 966.3 87.9 975.5 1 715.3 Z" data-holc_grade="D"/>
<path d="M 253.2 369.2 282.9 443.7 211 468.9 220.7 499.6 246.2 507.7 266 509.5 278.2 512.9 272 543 273.4 611.1 275.6 676.3 268.1 676.9 255.7 669 250 660.9 246.9 652.1 229.4 649.7 226.3 658 230.6 673.6 232.4 688 225.9 694.1 188.2 702.6 192.7 715.2 196.3 741.8 198.8 761.9 160.9 748.3 158 716.6 153.8 715.8 143 674.6 84.1 687.5 70.9 635.4 66 618.3 60.6 611.4 49.2 623.3 35.3 593.1 14.4 586.1 6.4 538.1 151.1 489.3 151.9 485.5 74.7 404.4 130.6 392.5 166 433.3 187.8 402.3 195.5 423.4 243.6 407.6 234.9 387.1 212.2 389.7 207.2 376.7 253.2 369.2 Z M 124.5 552.4 126.1 584.1 175.9 572.3 170 548 158.6 552.4 149.2 532.5 121.3 541.6 124.5 552.4 Z" data-holc_grade="D"/>
<path d="M 119.6 52.8 148.4 28 248.6 1 357.3 102.5 388.4 145 348 167.5 354.2 187.6 298.2 224.7 119.6 52.8 Z" data-holc_grade="D"/>
<path d="M 2696.3 2652.1 2714.8 2644.8 2823.5 2511.5 2885.6 2430.1 2892.1 2416.2 2860.2 2408.8 2846.8 2455.9 2823.9 2484.2 2808 2465.7 2815 2451 2807.8 2443.8 2824.9 2399.4 2777.1 2383.1 2865.3 2296.4 2871.2 2303.9 2876.3 2295 2856.7 2282.6 2873.8 2261.6 2864.1 2254.7 2813.5 2255.6 2792.5 2244.2 2817.2 2240.6 2814.3 2212.1 2795.8 2207.4 2758.2 2192.2 2766.2 2243.9 2718.1 2248.4 2693.2 2275.9 2680.3 2290.1 2668.1 2303.6 2660.1 2293.1 2700.9 2251.5 2678.3 2253.8 2673.1 2203.6 2699 2207.1 2752.4 2081.4 2762.3 2080.1 2832.4 2108.3 2801.2 2196 2804.7 2195.9 2858.2 2129.3 2886.6 2163.2 2896.1 2176.5 2872 2191.1 2875.5 2237 2940.4 2233.1 2923.8 2207.7 2933.4 2192 2929.3 2191.5 2919.1 2166 2909 2144.4 2991 2125.7 2997.8 2168.9 2999 2198.6 2986.4 2199.8 2987.2 2231.3 2995.8 2240.6 2962.8 2260.6 2995 2314.8 2966.4 2354.8 2953.7 2395.2 2929.8 2388.8 2918.6 2427.4 2913.7 2439.5 2883.4 2479.6 2900.3 2493 2875.9 2523.5 2832.2 2581.3 2820.6 2572.7 2745.8 2672.4 2737.1 2662.9 2707.8 2697.2 2688.7 2693.4 2696.3 2652.1 Z" data-holc_grade="D"/>
<path d="M 2743.5 2581.9 2730.7 2555.3 2783.2 2495.9 2774 2490.8 2783.6 2475.6 2811.6 2496.5 2743.5 2581.9 Z" data-holc_grade="D"/>
<path d="M 2452.6 2362.1 2495.3 2405.1 2506.8 2397.1 2530.7 2428.4 2523.2 2440 2528.1 2445.7 2583.1 2384.3 2602.7 2399.7 2631.7 2366.8 2657.6 2355.4 2705.9 2321.9 2718.3 2318.2 2737.3 2332.6 2742.6 2333.4 2767.3 2350.1 2753.6 2372.6 2725.1 2403.7 2736.1 2415.7 2721.8 2430.3 2736.5 2443.3 2720.8 2459.6 2727.5 2465.4 2694.7 2505.8 2668.2 2482.6 2614.1 2534.1 2565.3 2490.6 2556.7 2499.5 2558.6 2514.1 2564.7 2524.2 2574.2 2519.2 2632.9 2574.7 2642.1 2573.1 2692.5 2615.9 2682.3 2626.7 2691.9 2633 2705.9 2621.3 2702.7 2629.2 2693.5 2643.2 2690.4 2647.5 2696.3 2652.1 2661.9 2663.9 2647 2682.9 2590.5 2631.2 2556.1 2591.5 2487.6 2501.4 2378.9 2391.4 2313.5 2349.2 2267 2326 2249.8 2315.9 2223.7 2357.1 2242.8 2372 2229.7 2389.5 2211.9 2377.8 2180.7 2423.5 2063.7 2335.9 2052.6 2339.4 2030.6 2324.2 1995.2 2280.1 1968.4 2257.6 1950 2240.4 1925.1 2223.6 1879.5 2177 1981.5 2141.4 2084 2214.8 2100.5 2180.1 2118.4 2167.2 2185.1 2112.6 2294.6 2181.5 2361.3 2092.2 2478.3 2186.9 2455.9 2200.3 2466.8 2208.2 2415.6 2245.9 2450.4 2272.7 2433 2296 2428.8 2292.6 2415.9 2314.1 2446.5 2335.7 2439.5 2349.1 2452.6 2362.1 Z M 2426.9 2195.5 2438.5 2182.7 2399.9 2151 2343.2 2220.3 2354.9 2229.8 2337.6 2248.7 2317.8 2274.1 2311.3 2282.7 2275.4 2303.2 2305.4 2320.9 2318.2 2321.3 2324.8 2326.7 2359.2 2287.5 2352.9 2281.8 2395.5 2230 2419.3 2202.4 2421.4 2205 2426.9 2195.5 Z" data-holc_grade="D"/>
<path d="M 1832.3 1715.9 1822.4 1693.4 1987.7 1675.9 2018 1747 2009.1 1747.9 2002.1 1730.2 1929.8 1729.2 1894.4 1722.9 1873.1 1715.9 1868 1718.2 1832.3 1715.9 Z" data-holc_grade="D"/>
<path d="M 1810.6 1659.8 1958.4 1604.9 1979.5 1666.1 1816.1 1679.1 1810.6 1659.8 Z" data-holc_grade="D"/>
<path d="M 1905.1 920.9 1946.2 791.1 2048.9 803.7 2083.9 818.5 2103.1 777.6 2093.1 777.1 2096.1 731 2102.7 719.2 2138.1 720.9 2140.7 729.6 2167.4 727.5 2168.7 739.2 2169.1 754.5 2180.1 778 2177.5 796.3 2176.2 830.7 2170.9 853.3 2174 885.1 2157.7 887.3 2160 903 2076.4 908.8 2065.7 909.6 2043.3 954.4 2038.5 963.1 1905.1 920.9 Z" data-holc_grade="D"/>
<path d="M 1815.3 1851.9 1830 1883.7 1866.6 1958 1892.3 1982.8 1862 2020 1826.9 1984.1 1785.2 1941.2 1755.8 1948 1693.6 1873.8 1667.7 1850 1695 1827.5 1667.7 1771 1692.3 1762.2 1686.1 1747.2 1658.1 1708.4 1620.5 1723.4 1608.2 1688.6 1643.7 1675 1666.3 1706.3 1738.7 1699.5 1761.6 1711.7 1815.3 1851.9 Z" data-holc_grade="D"/>
<path d="M 1250 1537.3 1326.6 1494.6 1378.6 1538.2 1436.7 1459.9 1476.3 1483.1 1441.4 1531.4 1478.3 1547.1 1480.4 1566.8 1469.5 1627.4 1452.4 1643.7 1504.3 1688 1496.1 1700.2 1529.7 1727.7 1593.8 1728.8 1572 1747.2 1523.4 1747.9 1596.3 1810.4 1621.2 1827.5 1605 1836.2 1615 1844.5 1591.1 1859.5 1472.2 1737 1474.2 1726.8 1475.7 1716.4 1458.2 1705.9 1327 1612.2 1250 1537.3 Z" data-holc_grade="D"/>
<path d="M 1730.5 1627.1 1737 1645.5 1746.3 1668.7 1741 1678.7 1685 1667.6 1671.6 1636.9 1726.8 1616.1 1730.5 1627.1 Z" data-holc_grade="D"/>
<path d="M 1658.9 1417.4 1686.5 1498.2 1672.5 1495.9 1624.9 1520.3 1609.1 1527.7 1575 1431 1591.2 1423.2 1574.1 1367.8 1568 1391.8 1561.4 1390.5 1559.7 1377.4 1571.5 1334.7 1588.8 1326 1619.6 1310.3 1639.3 1368.3 1658.9 1417.4 Z" data-holc_grade="D"/>
<path d="M 1570.8 1074.3 1599.3 1154.8 1457.2 1232.6 1429.8 1145.5 1464.7 1126.4 1432.6 996.4 1419.6 1005.3 1382.7 905.2 1392.9 899.8 1405.2 944 1418.9 944.7 1418.9 960.3 1448.3 945.4 1499.5 1103.9 1570.8 1074.3 Z" data-holc_grade="D"/>
<path d="M 1508.1 1282 1551.4 1272 1562.7 1312.9 1518.6 1323.4 1508.1 1282 Z" data-holc_grade="D"/>
<path d="M 1153.5 538.1 1157.7 555.1 1181.2 636.1 1155.6 638.7 1186.4 761.3 1233.8 943.7 1270.3 1073.6 1287.6 1106.9 1339.2 1215 1418.5 1375.6 1342.8 1417.5 1328.8 1370.4 1299.9 1384.8 1244.4 1288.1 1252.7 1282 1221.6 1227.1 1273.1 1194.5 1235.4 1085.6 1189.1 975.6 1216.8 964.2 1196.6 906.2 1164.1 816.5 1144.4 763.4 1134.9 712.8 1121.6 647.2 1119.3 640.6 1112.2 639.5 1104.6 569.2 1105.5 535.5 1153.5 538.1 Z" data-holc_grade="D"/>
</g>
</svg>