<?xml version="1.0"?>
<svg xmlns="http://www.w3.org/2000/svg" version="1.2" baseProfile="tiny" width="3000" height="2733" viewBox="0 0 3000 2733" stroke-linecap="round" stroke-linejoin="round">
<g id="C">
<path d="M 2338.9 2404 2430.7 2511.8 2321.6 2518.7 2322.8 2591.6 2075.9 2596.5 1950.8 2604.5 1777.4 2601.5 1761.3 2582.6 1739.5 2464.9 1764.7 2368.1 1799.2 2370.1 1885.3 2395 1953.1 2237.5 1978.3 2242.4 1920.9 2398 2096.6 2458.9 2093.1 2465.9 2150.5 2482.8 2248.2 2448.9 2309 2409 2338.9 2404 Z" data-holc_grade="C"/>
<path d="M 2521.1 2253.8 2506.3 2254.3 2454.6 2270.3 2429.9 2246.4 2422.7 2236 2394 2232.9 2391.6 2080.2 2391.6 2014.7 2400 1991.9 2397.6 1958.6 2298.4 1959.7 2299.5 1825.7 2312.7 1825.7 2321.1 1833 2333 1843.3 2352.2 1838.2 2365.3 1837.1 2383.3 1843.3 2397.6 1833 2402.4 1814.3 2420.4 1803.9 2420.4 1789.3 2415.6 1773.8 2426.3 1746.7 2440.7 1738.4 2461 1747.8 2486.1 1748.8 2500.5 1742.6 2516 1746.7 2531.6 1770.6 2530.4 1784.1 2525.6 1806 2535.2 1841.3 2555.5 1868.3 2584.2 1872.4 2627.3 1841.3 2633.3 1994 2694.3 1995 2696.7 2039.7 2684.7 2058.4 2610.5 2059.4 2609.3 2130.1 2548.3 2138.4 2517.2 2115.5 2521.1 2253.8 Z" data-holc_grade="C"/>
<path d="M 2741 1860.2 2825.3 1834.7 2892.9 1834.7 2942.5 1829 2991.6 1865.9 2995.2 1957.8 2968.9 1981.7 2955.1 1981.7 2954.5 1992.6 2892.3 1994.7 2744.6 1943.3 2741 1860.2 Z" data-holc_grade="C"/>
<path d="M 2109.3 1893.8 2037.3 1884.3 2015.8 1876.8 2002.3 1863.9 1993.7 1848.7 1994.5 1839.7 1987.9 1829.7 1985.6 1822.2 1990.8 1803.5 1996.2 1784.1 2001.4 1770.1 2009.4 1759.9 2012.9 1755.7 2022.4 1755.9 2027.5 1748.2 2041 1739 2051.9 1736.7 2076 1738.7 2086.4 1745.7 2101.9 1772.1 2103 1786.3 2118.8 1785.1 2145.2 1792.3 2109.3 1893.8 Z" data-holc_grade="C"/>
<path d="M 2440.7 1738.4 2426.3 1746.7 2415.6 1773.8 2407.1 1778.6 2387.4 1826.4 2333.6 1811.3 2331.6 1805.7 2301.9 1719.4 2272.6 1664.9 2252.8 1647.7 2242.5 1644.4 2112.9 1602 2129.6 1567.2 2103.3 1576.1 2065 1570.9 1638.6 1443.7 1498.1 1393.3 1486.1 1415.6 1420.3 1406.8 1377.9 1394.3 1301.9 1360.6 1267.2 1340.8 1217.6 1311.2 1314.5 1183.5 1330 1193.4 1337.8 1185.1 1364.1 1204.3 1377.3 1187.2 1441.9 1220.9 1453.2 1220.4 1480.7 1226.1 1519 1247.9 1668.5 1297.2 1662 1311.8 1670.3 1314.4 1661.4 1337.2 1674.5 1340.8 1661.4 1367.8 1862.9 1439 1993.3 1231.3 2096.7 1261.4 2121.8 1300.9 2111.7 1327.3 2124.8 1331.5 2114.1 1359 2175.1 1378.7 2182.8 1385 2219.9 1405.7 2328.8 1437.9 2352.7 1446.8 2371.8 1458.7 2477.7 1635.8 2475.9 1656.6 2487.3 1663.3 2467.5 1716.8 2448.4 1717.8 2440.7 1738.4 Z" data-holc_grade="C"/>
<path d="M 1650.9 1942.1 1627.1 1993.6 1596.5 1987.3 1652.7 1845 1684.4 1855.9 1675.4 1881.3 1702.3 1890.7 1683.8 1940.5 1658.1 1933.8 1650.9 1942.1 Z" data-holc_grade="C"/>
<path d="M 891.5 1374.2 727.9 1577.8 753.7 1599.4 739 1619.2 664.2 1580.5 678.6 1559.9 653.5 1544.3 617.6 1581.1 517.8 1521.9 722.4 1266.4 891.5 1374.2 Z" data-holc_grade="C"/>
<path d="M 699.8 2178.5 646.7 2317.4 751 2350.7 706 2475.3 574.9 2436.3 608.4 2340.7 565.4 2326.6 582.6 2277.5 510.8 2256.7 552.9 2128.7 699.8 2178.5 Z" data-holc_grade="C"/>
<path d="M 897.9 2527.9 1018.5 2563.8 1040.3 2512.9 1066.7 2470.1 1074.8 2443.1 951.9 2403.2 1003.6 2245.6 1039.2 2242.6 1133.3 2277.5 1095.4 2387.3 1227.5 2429.2 1204.5 2511 1190.7 2509 1166.6 2542.9 1123 2635.6 1017.3 2676.5 980.6 2664.6 984 2652.6 866.9 2622.7 897.9 2527.9 Z" data-holc_grade="C"/>
<path d="M 2320.1 965 2443.5 963.7 2455 1298.9 2513.9 1305.1 2516.7 1367.4 2331.6 1250.3 2320.1 965 Z" data-holc_grade="C"/>
<path d="M 2640 1100.2 2617.2 1099.5 2608.6 1072.1 2555.5 1069.6 2555.5 1004.8 2581.3 999.9 2611.5 1011.1 2602.9 865.3 2833.9 903.9 2833.9 971.2 2767.9 971.2 2772.2 1027.3 2635.9 1032.2 2640 1100.2 Z" data-holc_grade="C"/>
<path d="M 1788.6 829.3 1794.3 536.4 2038.3 533.9 2036.9 715.8 2424.4 710.8 2428.7 850.3 2315.3 835.4 2315.3 754.4 2230.6 751.9 2233.5 1148.1 2184.7 1150.6 2189 1236.6 2145.9 1235.4 2121.5 1201.7 2105.8 943.8 1914.9 945 1914.9 982.4 1785.7 979.9 1788.6 829.3 Z" data-holc_grade="C"/>
<path d="M 1484.5 568.8 1475.7 573 1476.8 623.9 1270.1 628.8 1273.6 480.4 1264.8 352.9 1252.9 319.7 1246.9 294.8 1261.2 273 1339 274.1 1342.6 413.2 1337.8 430.8 1342.6 457.8 1348.5 491 1482.5 494.1 1488.5 551.2 1484.5 568.8 Z" data-holc_grade="C"/>
<path d="M 1173.7 613.8 1173.7 774.3 1018.7 832.2 1020.7 801.3 974.8 798.8 865.7 843.6 831.3 786.3 815.5 791.3 771 828.7 749.4 810 723.6 822.5 725 889.7 555.7 883.5 555.7 828.7 491.1 827.4 491.1 838.7 361.9 837.4 361.9 781.4 394.9 780.1 399.2 742.7 420.8 745.2 417.9 720.3 417.9 706.6 443.7 709.1 462.4 709.1 469.6 701.6 472.4 687.9 482.5 681.7 491.1 674.2 504 666.7 516.9 661.8 532.7 651.8 551.4 651.8 581.5 653 597.3 663 618.8 664.3 614.5 639.3 611.7 594.5 616 493.6 628.9 494.8 680.1 532.9 727.9 568.3 755.2 619.4 837 594.5 868.6 503.6 854.8 483.9 848.5 474.9 822.6 438.8 781 412.6 769.5 450 733.7 432.6 713.6 428.8 682 411.4 682.1 397.1 674.2 389.6 671.3 364.7 682.8 368.4 695 352.2 693.5 315.5 654.1 315.5 656.9 334.2 657.7 340.4 651.9 349.7 646.2 357.8 643.3 364 643.3 370.3 649.8 376.5 653.4 386.5 650.5 393.3 648.3 402 650.5 405.2 656.2 406.4 664.1 406.4 667 408.3 668.4 415.1 672 420.1 679.9 422.6 686.4 426.3 686.4 443.1 658.4 442.5 656.2 462.4 618.9 462.4 617.5 471.8 607.8 471.7 476.1 471.2 475.4 380.2 494.8 378.4 491.2 255.7 467.5 255.1 465.3 184.7 486.1 184.7 489.7 172.2 489.7 118.1 472.5 105 466.8 51.4 514.1 50.8 522.7 167.3 574.4 166 577.3 179.1 581.6 189.7 581.6 200.3 581.6 217.7 581.6 223.9 583 233.9 586.6 243.9 598.1 260.7 611.7 279.4 693.5 276.9 702.2 281.2 703.6 345.4 789 408.3 790.4 387.1 745.2 324.8 837.8 318 908.3 279.1 920.3 272.5 909.6 3.5 1028.7 1 1039.4 26.5 1045.2 58.3 1056 309.2 1050.2 314.2 1045.9 634.4 1084.7 636.8 1099 618.8 1120.5 598.2 1137.8 567.7 1157.9 613.8 1173.7 613.8 Z" data-holc_grade="C"/>
<path d="M 370.5 301.6 294 214.4 294.9 451.1 213.6 450.2 218.4 683.6 222 776.9 210.6 774.4 190.5 774.4 179 779.4 172.3 781.9 169.4 791 164.6 795.2 154.1 800.1 129.2 791.8 117.7 785.2 98.6 784.4 81.4 779.4 75.6 767.8 53.6 752.8 45 752.8 47.9 779.4 9.6 780.2 10.6 845 1 836.7 2.9 468.8 168.5 464.6 172.3 166.5 62.2 169.9 61.3 245.4 2 245.4 2 22.1 312 22.1 346.4 41.2 408.6 40.3 414.4 193.9 361.7 193.9 370.5 301.6 Z" data-holc_grade="C"/>
</g>
<g id="B">
<path d="M 2322.8 2591.6 2321.6 2518.7 2430.7 2511.8 2338.9 2404 2366.2 2387 2384.6 2384 2398.3 2383 2413.3 2377 2435.1 2384 2448.9 2386 2454.6 2270.3 2506.3 2254.3 2521.1 2253.8 2651 2249.3 2652.1 2266.3 2766.9 2391 2771.5 2395.9 2786.4 2400.9 2792.2 2423.9 2770.4 2447.8 2764.6 2462.8 2764.6 2476.7 2724.4 2507.7 2704.9 2506.7 2693.4 2500.7 2678.5 2501.7 2647.5 2525.6 2625.7 2542.6 2631.4 2552.5 2639.5 2564.5 2679.7 2587.5 2688.8 2575.5 2693.4 2584.5 2708.4 2597.4 2714.1 2608.4 2702.6 2619.4 2694.6 2627.4 2700.3 2639.3 2696.9 2650.3 2683.1 2661.3 2677.4 2673.3 2671.6 2690.2 2655.5 2691.2 2634.9 2697.2 2623.4 2705.2 2615.4 2715.2 2597 2719.1 2575.2 2704.2 2549.9 2702.2 2540.7 2708.2 2526.9 2721.1 2506.3 2732.1 2485.6 2728.1 2470.7 2715.2 2463.8 2705.2 2450 2705.2 2438.5 2705.2 2425.9 2710.2 2422.5 2679.2 2432.8 2657.3 2428.2 2594.4 2322.8 2591.6 Z" data-holc_grade="B"/>
<path d="M 2391.6 2080.2 2259 2080.8 2256 2051.2 2296.1 2021.6 2298.4 1959.7 2397.6 1958.6 2400 1991.9 2391.6 2014.7 2391.6 2080.2 Z" data-holc_grade="B"/>
<path d="M 2331.6 1805.7 2302.5 1813.9 2259.4 1738.1 2227.1 1694.5 2242.5 1644.4 2252.8 1647.7 2272.6 1664.9 2301.9 1719.4 2331.6 1805.7 Z" data-holc_grade="B"/>
<path d="M 1570.2 2058.5 1665.2 2082.3 1665.8 2092.2 1650.3 2086.5 1642.5 2104.7 1689.8 2115.1 1668.2 2162.3 1592.3 2145.2 1541.5 2122.3 1570.2 2058.5 Z" data-holc_grade="B"/>
<path d="M 1627.1 1993.6 1650.9 1942.1 1669.4 1981.6 1647.3 2038.2 1605.4 2040.3 1627.1 1993.6 Z" data-holc_grade="B"/>
<path d="M 1263.7 1543.7 1303 1445.7 1408.2 1479.7 1426.4 1435.7 1627.3 1497.2 1568 1573.6 1754.6 1633.4 1744.1 1666.7 1704.8 1657.5 1679 1693.3 1667.5 1687.4 1621.6 1734.8 1635 1738.1 1613.9 1795.5 1563.2 1778 1497.2 1834.5 1395.8 1773 1437.9 1667.5 1278.1 1615.1 1300.1 1557 1263.7 1543.7 Z" data-holc_grade="B"/>
<path d="M 951.9 2403.2 1074.8 2443.1 1066.7 2470.1 1040.3 2512.9 1018.5 2563.8 897.9 2527.9 951.9 2403.2 Z" data-holc_grade="B"/>
<path d="M 908.3 279.1 837.8 318 745.2 324.8 662 218.4 690.7 217.8 690.7 201.6 904.5 201.6 908.3 279.1 Z" data-holc_grade="B"/>
<path d="M 476.1 471.2 607.8 471.7 616 493.6 611.7 594.5 614.5 639.3 618.8 664.3 597.3 663 581.5 653 551.4 651.8 532.7 651.8 516.9 661.8 504 666.7 469.1 652.9 428.9 675.3 352.3 671.1 350.4 687.7 218.4 683.6 213.6 450.2 294.9 451.1 294 214.4 370.5 301.6 373.4 469.3 476.1 471.2 Z" data-holc_grade="B"/>
<path d="M 2.9 468.8 2 245.4 61.3 245.4 62.2 169.9 172.3 166.5 168.5 464.6 2.9 468.8 Z" data-holc_grade="B"/>
<path d="M 414 1476.4 417.3 1395.5 194.8 1395.5 155.3 1328 32.1 1382 63.2 1429.8 3.4 1430.8 3.4 1224.2 59.7 1220.2 64.3 1153.4 3.4 1154.4 1.1 1104.5 13.7 1101.5 24.1 1091.6 31 1068.6 43.6 1068.6 47 1144.4 269.8 1134.4 353.6 1135.4 357.1 1254.1 481.1 1245.1 492.5 1232.1 569.5 1282 414 1476.4 Z" data-holc_grade="B"/>
</g>
<g id="D">
<path d="M 739 1619.2 753.7 1599.4 727.9 1577.8 891.5 1374.2 973.8 1419.9 909.7 1488.9 906.8 1562 917.3 1538.7 970.9 1550.3 980.5 1519.6 1014.9 1528.7 1049.4 1545.4 1072.4 1515.4 1051.3 1498 1074.3 1475.6 1106.8 1497.2 1263.7 1543.7 1170.9 1784.7 1067.6 1756.4 1047.5 1800.4 961.4 1778.8 914.5 1896.8 890.5 1888.5 931.7 1780.5 846.5 1754.7 838.9 1762.2 696.3 1676.6 739 1619.2 Z" data-holc_grade="D"/>
<path d="M 2924.4 1097 2980.3 1095.8 2999 1649.1 2937.3 1652.8 2924.4 1097 Z" data-holc_grade="D"/>
<path d="M 2640 1100.2 2743.5 1103.3 2752.1 1514.5 2627.3 1426 2617.2 1099.5 2640 1100.2 Z" data-holc_grade="D"/>
<path d="M 1018.7 832.2 1173.7 774.3 1173.7 613.8 1173.7 480.4 1273.6 480.4 1270.1 628.8 1476.8 623.9 1475.7 573 1484.5 568.8 1528.5 548.1 1523.9 451.5 1489.4 450.5 1484.8 348.8 1525 348.8 1529.6 441.5 1530.3 449.8 1540.7 449.4 1559.8 452.8 1639 452.1 1641 559.7 1597.7 577.7 1598.9 593.9 1709.9 590.6 1709.1 559.1 1788.3 523.8 1794.3 536.4 1788.6 829.3 1566.4 833.2 1571 960.7 1182.9 969.7 1149.6 961.7 1117.4 944.8 1085.3 942.8 1064.6 940.8 1016.4 955.7 1018.7 832.2 Z" data-holc_grade="D"/>
<path d="M 680.1 532.9 727.3 485 782.5 523 786.1 520.5 786.1 512.4 791.9 509.3 804.1 508 812.7 499.3 819.8 485.6 854.8 483.9 868.6 503.6 837 594.5 755.2 619.4 727.9 568.3 680.1 532.9 Z" data-holc_grade="D"/>
<path d="M 555.7 883.5 492.5 885.8 491.1 838.7 491.1 827.4 555.7 828.7 555.7 883.5 Z" data-holc_grade="D"/>
<path d="M 569.5 1282 492.5 1232.1 481.1 1245.1 357.1 1254.1 353.6 1135.4 423.5 1133.1 430.7 1100.9 434.3 1073.9 453.4 1046.9 472.6 1034.5 496.5 1042.8 513.2 1080.2 588.6 1082.3 605.3 1112.4 614.9 1112.4 673.5 1149.7 569.5 1282 Z" data-holc_grade="D"/>
<path d="M 608.9 945.2 613.7 1024.1 472.6 1024.1 459.4 1010.6 443.8 1009.6 443.8 995 425.9 996.1 418.7 988.8 409.2 988.8 403.2 926.5 608.9 945.2 Z" data-holc_grade="D"/>
<path d="M 14.4 1057.3 12.1 1014.8 4.9 1007.5 4.9 886 230.9 908.9 226.2 991.9 148.4 999.2 128.1 989.8 126.9 969.1 114.9 962.8 94.6 979.5 79 1001.3 71.9 1022 87.4 1056.3 14.4 1057.3 Z" data-holc_grade="D"/>
<path d="M 1243.6 205.8 1241.2 22.6 1478 20.5 1478.6 130 1331.5 132.1 1335.1 209.4 1243.6 205.8 Z" data-holc_grade="D"/>
</g>
<g id="A">
<path d="M 739 1619.2 696.3 1676.6 838.9 1762.2 748.8 1873.7 779.8 1892.3 763 1938.2 854.9 1971.1 823.1 2047.5 811.2 2056.2 721.7 2038.2 652 1995.4 634.4 2016.6 635.9 2021.6 645.1 2036.2 647 2046.5 649.3 2059.8 647 2079.8 658.5 2104.7 668.8 2113.7 674.6 2103.7 689.5 2096.7 696.4 2092.8 702.1 2082.8 720.5 2083.8 730.8 2098.7 699.8 2178.5 552.9 2128.7 629.8 2021 616 2012 596.5 2007 580.4 2007 575.8 2009 579.3 2018 570.1 2023.9 559.8 2021 544.8 2020 531.1 2028.9 509.2 2044.9 487.4 2049.9 471.3 2045.9 454.1 2036.9 439.2 2026.9 415.1 2021 446.1 1926.2 354.2 1888.3 315.2 1869.4 269.3 1842.4 517.8 1521.9 617.6 1581.1 653.5 1544.3 678.6 1559.9 664.2 1580.5 739 1619.2 Z" data-holc_grade="A"/>
<path d="M 183.9 2415.4 112.1 2399.6 124.6 2364.7 133.2 2337.2 136 2306.5 138 2293.2 176.2 2208.4 202.1 2130.3 264.3 2146.9 221.2 2264.9 204 2352.2 183.9 2415.4 Z" data-holc_grade="A"/>
<path d="M 414 1476.4 410.1 1575.2 176.8 1875.3 109.9 1841.1 75.2 1841.1 3.4 1872.2 3.4 1430.8 63.2 1429.8 32.1 1382 155.3 1328 194.8 1395.5 417.3 1395.5 414 1476.4 Z" data-holc_grade="A"/>
<path d="M 353.6 1135.4 269.8 1134.4 262.9 1069.6 276.7 1065.7 305.4 1055.7 346.7 1054.7 353.6 1135.4 Z" data-holc_grade="A"/>
</g>
</svg>