<?xml version="1.0"?>
<svg xmlns="http://www.w3.org/2000/svg" version="1.2" baseProfile="tiny" width="2000" height="1822" viewBox="0 0 2000 1822" stroke-linecap="round" stroke-linejoin="round">
<g id="C">
<path d="M 1559.1 1602.5 1620.3 1674.3 1547.6 1678.9 1548.3 1727.5 1383.8 1730.8 1300.4 1736.1 1184.9 1734.1 1174.1 1721.5 1159.6 1643 1176.4 1578.5 1199.4 1579.9 1256.8 1596.5 1301.9 1491.5 1318.8 1494.8 1280.5 1598.5 1397.6 1639 1395.3 1643.7 1433.6 1655 1498.6 1632.4 1539.2 1605.8 1559.1 1602.5 Z" data-holc_grade="C"/>
<path d="M 1680.5 1502.4 1670.6 1502.7 1636.2 1513.3 1619.7 1497.4 1615 1490.5 1595.8 1488.4 1594.2 1386.7 1594.2 1343 1599.8 1327.8 1598.2 1305.7 1532.1 1306.4 1532.9 1217.1 1541.6 1217.1 1547.2 1221.9 1555.2 1228.8 1567.9 1225.4 1576.7 1224.7 1588.7 1228.8 1598.2 1221.9 1601.4 1209.4 1613.4 1202.5 1613.4 1192.8 1610.2 1182.4 1617.4 1164.4 1626.9 1158.9 1640.5 1165.1 1657.2 1165.8 1666.8 1161.7 1677.1 1164.4 1687.5 1180.4 1686.7 1189.4 1683.5 1203.9 1689.9 1227.4 1703.4 1245.4 1722.6 1248.2 1751.3 1227.4 1755.3 1329.2 1795.9 1329.9 1797.5 1359.7 1789.5 1372.1 1740.1 1372.8 1739.3 1419.9 1698.7 1425.4 1677.9 1410.2 1680.5 1502.4 Z" data-holc_grade="C"/>
<path d="M 1827.1 1240.1 1883.3 1223.1 1928.3 1223.1 1961.4 1219.3 1994.1 1243.9 1996.4 1305.1 1978.9 1321 1969.7 1321 1969.3 1328.3 1927.9 1329.7 1829.4 1295.4 1827.1 1240.1 Z" data-holc_grade="C"/>
<path d="M 1406.1 1262.4 1358.1 1256.1 1343.7 1251.1 1334.7 1242.5 1329 1232.4 1329.6 1226.4 1325.2 1219.7 1323.6 1214.8 1327.1 1202.3 1330.7 1189.3 1334.2 1180 1339.5 1173.2 1341.8 1170.4 1348.1 1170.6 1351.6 1165.4 1360.6 1159.3 1367.8 1157.8 1383.9 1159.1 1390.8 1163.8 1401.1 1181.4 1401.9 1190.8 1412.4 1190 1430 1194.8 1406.1 1262.4 Z" data-holc_grade="C"/>
<path d="M 1626.9 1158.9 1617.4 1164.4 1610.2 1182.4 1604.5 1185.7 1591.4 1217.5 1555.5 1207.5 1554.2 1203.8 1534.4 1146.2 1514.9 1109.9 1501.7 1098.5 1494.9 1096.2 1408.4 1068 1419.6 1044.8 1402.1 1050.7 1376.6 1047.2 1092.4 962.4 998.7 928.9 990.8 943.8 946.9 937.9 918.6 929.6 868 907.1 844.9 893.9 811.8 874.2 876.4 789.1 886.7 795.7 891.9 790.1 909.4 802.9 918.2 791.5 961.3 814 968.8 813.6 987.2 817.5 1012.7 832 1112.3 864.9 1107.9 874.6 1113.5 876.3 1107.5 891.5 1116.3 893.9 1107.5 911.9 1241.8 959.3 1328.7 820.9 1397.7 841 1414.4 867.3 1407.7 884.9 1416.4 887.7 1409.2 906 1449.9 919.2 1455.1 923.3 1479.8 937.2 1552.3 958.6 1568.3 964.5 1581 972.5 1651.6 1090.5 1650.4 1104.3 1657.9 1108.8 1644.8 1144.5 1632 1145.2 1626.9 1158.9 Z" data-holc_grade="C"/>
<path d="M 1100.6 1294.6 1084.7 1328.9 1064.3 1324.8 1101.8 1229.9 1122.9 1237.2 1116.9 1254.1 1134.8 1260.4 1122.5 1293.6 1105.3 1289.1 1100.6 1294.6 Z" data-holc_grade="C"/>
<path d="M 594.5 916.2 485.4 1051.8 502.6 1066.2 492.8 1079.4 443 1053.6 452.6 1039.9 435.8 1029.5 411.9 1054 345.4 1014.6 481.8 844.3 594.5 916.2 Z" data-holc_grade="C"/>
<path d="M 466.7 1452.2 431.3 1544.8 500.8 1566.9 470.9 1650 383.5 1624 405.8 1560.3 377.1 1550.9 388.6 1518.2 340.8 1504.3 368.8 1419 466.7 1452.2 Z" data-holc_grade="C"/>
<path d="M 598.8 1685 679.1 1709 693.6 1675.1 711.2 1646.5 716.6 1628.5 634.7 1601.9 669.2 1496.9 692.9 1494.9 755.6 1518.2 730.4 1591.3 818.4 1619.2 803.1 1673.7 793.9 1672.4 777.8 1695 748.7 1756.8 678.3 1784.1 653.8 1776.1 656.1 1768.1 578.1 1748.2 598.8 1685 Z" data-holc_grade="C"/>
<path d="M 1546.6 643.4 1628.8 642.6 1636.5 866 1675.7 870.1 1677.6 911.7 1554.2 833.6 1546.6 643.4 Z" data-holc_grade="C"/>
<path d="M 1759.8 733.6 1744.6 733.1 1738.8 714.8 1703.4 713.2 1703.4 670 1720.6 666.7 1740.7 674.2 1735 577 1889 602.7 1889 647.6 1845 647.6 1847.9 684.9 1757 688.3 1759.8 733.6 Z" data-holc_grade="C"/>
<path d="M 1192.3 553 1196.1 357.8 1358.7 356.2 1357.8 477.4 1616.1 474.1 1618.9 567 1543.4 557.1 1543.4 503.1 1486.9 501.4 1488.8 765.5 1456.3 767.2 1459.2 824.5 1430.5 823.6 1414.2 801.2 1403.7 629.3 1276.5 630.1 1276.5 655.1 1190.4 653.4 1192.3 553 Z" data-holc_grade="C"/>
<path d="M 989.7 379.4 983.8 382.2 984.5 416.1 846.8 419.4 849.1 320.5 843.3 235.6 835.3 213.4 831.3 196.8 840.9 182.3 892.7 183 895.1 275.7 891.9 287.4 895.1 305.4 899.1 327.6 988.3 329.6 992.3 367.7 989.7 379.4 Z" data-holc_grade="C"/>
<path d="M 782.5 409.4 782.5 516.4 679.2 554.9 680.6 534.3 650 532.7 577.3 562.6 554.3 524.4 543.8 527.7 514.1 552.6 499.8 540.2 482.6 548.5 483.5 593.3 370.7 589.1 370.7 552.6 327.6 551.8 327.6 559.3 241.5 558.4 241.5 521.1 263.5 520.2 266.4 495.3 280.7 497 278.8 480.4 278.8 471.2 296.1 472.9 308.5 472.9 313.3 467.9 315.2 458.8 321.9 454.6 327.6 449.7 336.2 444.7 344.8 441.4 355.4 434.7 367.8 434.7 387.9 435.5 398.4 442.2 412.8 443 409.9 426.4 408 396.5 410.8 329.3 419.4 330.1 453.6 355.4 485.4 379.1 503.6 413.1 558.1 396.5 579.2 335.9 570 322.8 565.8 316.8 548.6 292.8 520.8 275.3 513.2 300.2 489.3 288.6 475.9 286.1 454.8 274.5 454.9 264.9 449.6 260 447.7 243.4 455.4 245.9 463.5 235.1 462.5 210.6 436.2 210.6 438.1 223 438.6 227.2 434.8 233.4 431 238.8 429.1 243 429.1 247.1 433.4 251.3 435.8 257.9 433.8 262.5 432.4 268.3 433.8 270.3 437.7 271.2 442.9 271.2 444.8 272.4 445.8 277 448.2 280.3 453.5 282 457.8 284.5 457.8 295.7 439.1 295.2 437.7 308.5 412.8 308.5 411.8 314.8 405.4 314.7 317.6 314.3 317.1 253.7 330.1 252.5 327.7 170.7 311.9 170.3 310.4 123.4 324.3 123.4 326.7 115.1 326.7 79 315.2 70.3 311.4 34.6 343 34.2 348.7 111.8 383.1 111 385.1 119.7 387.9 126.7 387.9 133.8 387.9 145.4 387.9 149.6 388.9 156.2 391.3 162.8 398.9 174.1 408 186.5 462.5 184.8 468.3 187.8 469.2 230.5 526.2 272.4 527.1 258.3 497 216.8 558.7 212.2 605.7 186.3 613.7 181.9 606.5 2.7 685.9 1 693.1 18 696.9 39.2 704.1 206.4 700.2 209.7 697.4 423.1 723.2 424.8 732.8 412.7 747.1 399 758.6 378.7 772 409.4 782.5 409.4 Z" data-holc_grade="C"/>
<path d="M 247.3 201.3 196.2 143.2 196.9 300.9 142.7 300.4 145.9 455.9 148.3 518.1 140.7 516.4 127.3 516.4 119.6 519.7 115.1 521.4 113.2 527.5 110 530.3 103 533.6 86.5 528 78.8 523.6 66 523.1 54.6 519.7 50.7 512 36.1 502 30.3 502 32.2 519.7 6.7 520.3 7.4 563.5 1 557.9 2.3 312.7 112.6 310 115.1 111.3 41.8 113.5 41.2 163.9 1.6 163.9 1.6 15 208.3 15 231.2 27.8 272.7 27.2 276.5 129.6 241.4 129.6 247.3 201.3 Z" data-holc_grade="C"/>
</g>
<g id="B">
<path d="M 1548.3 1727.5 1547.6 1678.9 1620.3 1674.3 1559.1 1602.5 1577.3 1591.1 1589.5 1589.1 1598.7 1588.5 1608.6 1584.5 1623.2 1589.1 1632.4 1590.4 1636.2 1513.3 1670.6 1502.7 1680.5 1502.4 1767 1499.4 1767.8 1510.7 1844.3 1593.8 1847.4 1597.1 1857.3 1600.4 1861.2 1615.7 1846.6 1631.7 1842.8 1641.6 1842.8 1650.9 1816 1671.5 1803 1670.9 1795.4 1666.9 1785.4 1667.6 1764.8 1683.5 1750.2 1694.8 1754 1701.5 1759.4 1709.4 1786.2 1724.7 1792.3 1716.8 1795.4 1722.7 1805.3 1731.4 1809.1 1738.7 1801.5 1746 1796.1 1751.3 1800 1759.3 1797.7 1766.6 1788.5 1773.9 1784.6 1781.9 1780.8 1793.2 1770.1 1793.9 1756.3 1797.9 1748.7 1803.2 1743.3 1809.8 1731.1 1812.5 1716.5 1802.5 1699.7 1801.2 1693.6 1805.2 1684.4 1813.8 1670.6 1821.1 1656.9 1818.5 1646.9 1809.8 1642.3 1803.2 1633.1 1803.2 1625.5 1803.2 1617.1 1806.5 1614.8 1785.9 1621.7 1771.3 1618.6 1729.4 1548.3 1727.5 Z" data-holc_grade="B"/>
<path d="M 1594.2 1386.7 1505.8 1387.1 1503.8 1367.3 1530.5 1347.6 1532.1 1306.4 1598.2 1305.7 1599.8 1327.8 1594.2 1343 1594.2 1386.7 Z" data-holc_grade="B"/>
<path d="M 1554.2 1203.8 1534.8 1209.2 1506.1 1158.7 1484.6 1129.6 1494.9 1096.2 1501.7 1098.5 1514.9 1109.9 1534.4 1146.2 1554.2 1203.8 Z" data-holc_grade="B"/>
<path d="M 1046.8 1372.2 1110.1 1388.1 1110.5 1394.7 1100.2 1390.9 1095 1403 1126.5 1409.9 1112.1 1441.4 1061.5 1430 1027.6 1414.8 1046.8 1372.2 Z" data-holc_grade="B"/>
<path d="M 1084.7 1328.9 1100.6 1294.6 1112.9 1320.9 1098.2 1358.7 1070.3 1360.1 1084.7 1328.9 Z" data-holc_grade="B"/>
<path d="M 842.5 1029.1 868.7 963.8 938.8 986.5 950.9 957.1 1084.9 998.1 1045.3 1049.1 1169.7 1088.9 1162.7 1111.1 1136.5 1105 1119.3 1128.8 1111.6 1124.9 1081 1156.5 1090 1158.7 1075.9 1196.9 1042.1 1185.3 998.1 1222.9 930.5 1182 958.6 1111.6 852.1 1076.7 866.8 1038 842.5 1029.1 Z" data-holc_grade="B"/>
<path d="M 634.7 1601.9 716.6 1628.5 711.2 1646.5 693.6 1675.1 679.1 1709 598.8 1685 634.7 1601.9 Z" data-holc_grade="B"/>
<path d="M 605.7 186.3 558.7 212.2 497 216.8 441.5 145.9 460.6 145.5 460.6 134.7 603.2 134.7 605.7 186.3 Z" data-holc_grade="B"/>
<path d="M 317.6 314.3 405.4 314.7 410.8 329.3 408 396.5 409.9 426.4 412.8 443 398.4 442.2 387.9 435.5 367.8 434.7 355.4 434.7 344.8 441.4 336.2 444.7 312.9 435.4 286.2 450.4 235.1 447.6 233.9 458.7 145.9 455.9 142.7 300.4 196.9 300.9 196.2 143.2 247.3 201.3 249.2 313.1 317.6 314.3 Z" data-holc_grade="B"/>
<path d="M 2.3 312.7 1.6 163.9 41.2 163.9 41.8 113.5 115.1 111.3 112.6 310 2.3 312.7 Z" data-holc_grade="B"/>
<path d="M 276.3 984.3 278.4 930.3 130.1 930.3 103.8 885.4 21.7 921.3 42.5 953.2 2.6 953.9 2.6 816.2 40.1 813.5 43.2 769 2.6 769.7 1.1 736.4 9.5 734.5 16.4 727.8 21 712.5 29.4 712.5 31.7 763 180.1 756.4 236 757 238.3 836.1 320.9 830.1 328.6 821.5 379.9 854.7 276.3 984.3 Z" data-holc_grade="B"/>
</g>
<g id="D">
<path d="M 492.8 1079.4 502.6 1066.2 485.4 1051.8 594.5 916.2 649.3 946.6 606.6 992.6 604.7 1041.3 611.7 1025.8 647.4 1033.5 653.8 1013.1 676.7 1019.2 699.7 1030.2 715 1010.3 701 998.7 716.3 983.7 738 998.1 842.5 1029.1 780.7 1189.7 711.8 1170.9 698.4 1200.2 641 1185.8 609.8 1264.5 593.8 1258.9 621.3 1186.9 564.5 1169.8 559.4 1174.8 464.4 1117.7 492.8 1079.4 Z" data-holc_grade="D"/>
<path d="M 1949.3 731.5 1986.6 730.6 1999 1099.4 1957.9 1101.9 1949.3 731.5 Z" data-holc_grade="D"/>
<path d="M 1759.8 733.6 1828.7 735.6 1834.5 1009.7 1751.3 950.7 1744.6 733.1 1759.8 733.6 Z" data-holc_grade="D"/>
<path d="M 679.2 554.9 782.5 516.4 782.5 409.4 782.5 320.5 849.1 320.5 846.8 419.4 984.5 416.1 983.8 382.2 989.7 379.4 1019 365.6 1015.9 301.2 993 300.5 989.9 232.8 1016.7 232.8 1019.7 294.6 1020.2 300.1 1027.1 299.9 1039.9 302.1 1092.7 301.6 1093.9 373.4 1065.1 385.3 1065.9 396.2 1139.9 393.9 1139.3 372.9 1192.1 349.4 1196.1 357.8 1192.3 553 1044.2 555.6 1047.3 640.6 788.6 646.6 766.5 641.3 745 630 723.6 628.7 709.8 627.3 677.7 637.3 679.2 554.9 Z" data-holc_grade="D"/>
<path d="M 453.6 355.4 485 323.6 521.8 348.9 524.2 347.2 524.2 341.8 528.1 339.7 536.2 338.9 541.9 333.1 546.7 324 570 322.8 579.2 335.9 558.1 396.5 503.6 413.1 485.4 379.1 453.6 355.4 Z" data-holc_grade="D"/>
<path d="M 370.7 589.1 328.5 590.6 327.6 559.3 327.6 551.8 370.7 552.6 370.7 589.1 Z" data-holc_grade="D"/>
<path d="M 379.9 854.7 328.6 821.5 320.9 830.1 238.3 836.1 236 757 282.6 755.5 287.4 734 289.8 716.1 302.5 698.1 315.3 689.8 331.2 695.3 342.4 720.2 392.6 721.6 403.7 741.7 410.1 741.7 449.2 766.6 379.9 854.7 Z" data-holc_grade="D"/>
<path d="M 406.1 630.3 409.3 682.8 315.3 682.8 306.5 673.8 296.1 673.2 296.1 663.5 284.2 664.2 279.4 659.3 273 659.3 269 617.8 406.1 630.3 Z" data-holc_grade="D"/>
<path d="M 10 705 8.4 676.6 3.6 671.8 3.6 590.8 154.2 606 151.1 661.4 99.2 666.2 85.7 660 84.9 646.2 76.9 642 63.4 653.1 53 667.6 48.2 681.5 58.6 704.3 10 705 Z" data-holc_grade="D"/>
<path d="M 829.1 137.5 827.5 15.4 985.3 14 985.7 87 887.7 88.4 890.1 139.9 829.1 137.5 Z" data-holc_grade="D"/>
</g>
<g id="A">
<path d="M 492.8 1079.4 464.4 1117.7 559.4 1174.8 499.4 1249 520.1 1261.5 508.8 1292 570 1314 548.9 1364.9 541 1370.7 481.3 1358.7 434.9 1330.1 423.1 1344.3 424.1 1347.6 430.3 1357.4 431.5 1364.2 433.1 1373.1 431.5 1386.4 439.2 1403 446.1 1409 449.9 1402.3 459.9 1397.7 464.4 1395 468.3 1388.4 480.5 1389.1 487.4 1399 466.7 1452.2 368.8 1419 420.1 1347.2 410.9 1341.2 397.9 1337.9 387.2 1337.9 384.1 1339.2 386.4 1345.2 380.3 1349.2 373.4 1347.2 363.4 1346.5 354.2 1352.5 339.7 1363.1 325.2 1366.5 314.5 1363.8 303 1357.8 293 1351.2 277 1347.2 297.6 1284 236.4 1258.8 210.4 1246.2 179.8 1228.2 345.4 1014.6 411.9 1054 435.8 1029.5 452.6 1039.9 443 1053.6 492.8 1079.4 Z" data-holc_grade="A"/>
<path d="M 122.9 1610 75.1 1599.5 83.3 1576.3 89.1 1558 91 1537.5 92.3 1528.6 117.8 1472.1 135 1420.1 176.4 1431.1 147.8 1509.8 136.3 1567.9 122.9 1610 Z" data-holc_grade="A"/>
<path d="M 276.3 984.3 273.6 1050.1 118.2 1250.1 73.6 1227.3 50.4 1227.3 2.6 1248.1 2.6 953.9 42.5 953.2 21.7 921.3 103.8 885.4 130.1 930.3 278.4 930.3 276.3 984.3 Z" data-holc_grade="A"/>
<path d="M 236 757 180.1 756.4 175.5 713.2 184.7 710.5 203.9 703.9 231.4 703.2 236 757 Z" data-holc_grade="A"/>
</g>
</svg>