<?xml version="1.0"?>
<svg xmlns="http://www.w3.org/2000/svg" version="1.2" baseProfile="tiny" width="3000" height="3011" viewBox="0 0 3000 3011" stroke-linecap="round" stroke-linejoin="round">
<g id="A">
<path d="M 2422.3 570.7 2326.9 557.6 2215.6 329.4 2163.9 210.7 2162.5 175.1 2238 19.5 2346.7 23.5 2357.3 5 2492.4 1 2499.1 16.8 2727 20.7 2732.3 88 2789.3 188.2 2659.5 271.3 2603.8 361 2654.2 359.6 2659.5 397.9 2680.7 426.9 2668.8 470.4 2648.9 579.9 2422.3 570.7 Z" data-holc_grade="A"/>
<path d="M 2854.7 1463.6 2845.4 1446.4 2805.6 1449.1 2421.2 1459.7 2419.9 1483.5 2248.9 1494.1 2250.2 1327.8 2250.2 1276.4 2301.9 1112.8 2999 1104.7 2989.8 1289.4 2873.2 1442.4 2854.7 1463.6 Z" data-holc_grade="A"/>
<path d="M 1301.2 1854.3 1299.8 1966.4 1250.8 1958.5 1233.5 1975.6 1205.7 1961.1 1127.5 1961.1 705.9 1961.1 704.6 1895.1 619.8 1895.1 625.1 1790.8 853.1 1781.7 853.1 1866.1 1103.6 1863.5 1301.2 1854.3 Z" data-holc_grade="A"/>
<path d="M 480.6 1190.6 445 1153.7 388 1096.9 317.7 1177.4 55.4 1032.2 43.5 959.6 60.7 908.2 164.1 897.7 189.3 885.8 372.1 1012.5 474.2 1094.3 519.2 1148.4 480.6 1190.6 Z" data-holc_grade="A"/>
</g>
<g id="B">
<path d="M 2154.7 711.9 2150.6 334.7 2121.5 177.8 2097.6 179.1 2153.2 20.9 2238 19.5 2162.5 175.1 2163.9 210.7 2215.6 329.4 2326.9 557.6 2422.3 570.7 2374.7 693.4 2154.7 711.9 Z" data-holc_grade="B"/>
<path d="M 2250.2 1327.8 2248.9 1494.1 2419.9 1483.5 2421.2 1459.7 2805.6 1449.1 2616.3 1622.2 2555.3 1672.1 2442.4 1686.5 2404.3 1884.9 2272.8 1992.1 2215.1 2058.9 1881.8 1998.1 1881.3 1977 1880.5 1940 2062.1 1969 2125.7 1599.6 2027.6 1594.3 2030.9 1384.7 2032.8 1264.6 1982.5 1265.9 1978.5 1049.6 2107 1049.5 2120.3 1347.7 2173.3 1345 2174.7 1331.8 2250.2 1327.8 Z" data-holc_grade="B"/>
<path d="M 1365.8 2494.6 1438 2401.8 1553.4 2407.7 1557.6 2450.7 1553 2487.6 1551.7 2531.1 1489.4 2545.6 1366.1 2528.5 1384.5 2500.6 1365.8 2494.6 Z" data-holc_grade="B"/>
<path d="M 1233.5 1975.6 1241.5 1992.8 1245.5 2025.8 1148.6 2039.4 1088.5 2018.8 924.9 2022.9 822.6 2019.1 707.2 2008.5 697.9 2098.3 615.8 2096.9 619.8 1895.1 704.6 1895.1 705.9 1961.1 1127.5 1961.1 1205.7 1961.1 1233.5 1975.6 Z" data-holc_grade="B"/>
<path d="M 1240.3 1387.7 1169.4 1511.7 1206.6 1565.3 1183.9 1608.6 1326.8 1730.2 1368.8 1664.3 1440.4 1744.8 1398.1 1804.8 1393.8 1859.7 1301.2 1854.3 1103.6 1863.5 853.1 1866.1 853.1 1781.7 625.1 1790.8 632.9 1571.4 463.1 1577.5 459.4 1404.4 457 1293.1 525.3 1303.4 637.1 1385.9 829.7 1460.1 879.4 1476.6 907.7 1425.6 999.6 1260.2 1240.3 1387.7 Z" data-holc_grade="B"/>
<path d="M 445 1153.7 321.7 1253.9 235.5 1257.8 1 1119.2 55.4 1032.2 317.7 1177.4 388 1096.9 445 1153.7 Z" data-holc_grade="B"/>
<path d="M 519.2 1148.4 474.2 1094.3 372.1 1012.5 189.3 885.8 164.1 897.7 60.7 908.2 46.9 897.8 178.4 859 249.7 860.7 464.2 968 634.7 1061.7 519.2 1148.4 Z" data-holc_grade="B"/>
</g>
<g id="C">
<path d="M 1985.2 706.4 2063.9 349.3 2097.6 179.1 2121.5 177.8 2150.6 334.7 2154.7 711.9 1985.2 706.4 Z" data-holc_grade="C"/>
<path d="M 2030.9 1384.7 1834 1388.6 1861.1 1266.9 1909.5 1049.6 1978.5 1049.6 1982.5 1265.9 2032.8 1264.6 2030.9 1384.7 Z" data-holc_grade="C"/>
<path d="M 2663 1652.6 2294 2041.1 2271.1 2074.9 2215.1 2058.9 2272.8 1992.1 2404.3 1884.9 2442.4 1686.5 2555.3 1672.1 2616.3 1622.2 2805.6 1449.1 2845.4 1446.4 2854.7 1463.6 2663 1652.6 Z" data-holc_grade="C"/>
<path d="M 2109.1 2364.6 2170.2 2379.7 2148.2 2458.3 2131.2 2543.6 2003.9 2531.8 2043.8 2363.7 2109.1 2364.6 Z" data-holc_grade="C"/>
<path d="M 1365.8 2494.6 1384.5 2500.6 1366.1 2528.5 1489.4 2545.6 1551.7 2531.1 1553 2487.6 1557.6 2450.7 1553.4 2407.7 1438 2401.8 1470.8 2343.8 1550.4 2338.5 1543.8 2147.2 1515.9 2127.4 1458.9 2036.3 1343.6 2021.8 1245.5 2025.8 1241.5 1992.8 1233.5 1975.6 1250.8 1958.5 1299.8 1966.4 1301.2 1854.3 1393.8 1859.7 1398.1 1804.8 1570.3 1993.1 1537.2 2031.1 1609.3 2113 1678.9 2113 1691.6 2137.4 1690.8 2210.1 1715.4 2207.5 1706.9 2495.5 1695.1 3009 1467.6 3006.4 1565.2 2843.4 1126.5 2837.5 1365.8 2494.6 Z" data-holc_grade="C"/>
<path d="M 1793.6 1822.6 1625.9 1822.6 1543.7 1908.4 1590.1 1971.7 1570.3 1993.1 1398.1 1804.8 1440.4 1744.8 1368.8 1664.3 1413.8 1611.5 1252.2 1418.1 1382 1421.5 1556.7 1583.6 1608.5 1581 1609.3 1284.7 1594.9 1277.9 1589.8 1250.9 1557.6 1238.3 1515.9 1241.5 1507.8 1001.1 1356.9 989.2 1335.3 909 1348.9 898.1 1407.4 903.1 1408.3 949.6 1711.9 965.6 1763.7 983.3 1784.1 1032.3 1769.6 1155.5 1749.3 1267.1 1701.5 1267.2 1706.8 1677.5 1793 1673.5 1793.6 1822.6 Z" data-holc_grade="C"/>
<path d="M 924.9 2022.9 918.7 2229 618.3 2222.8 615.8 2096.9 697.9 2098.3 707.2 2008.5 822.6 2019.1 924.9 2022.9 Z" data-holc_grade="C"/>
<path d="M 480.6 1190.6 508.6 1219.6 703.4 1378 907.7 1425.6 879.4 1476.6 829.7 1460.1 637.1 1385.9 525.3 1303.4 457 1293.1 459.4 1404.4 313.7 1408.2 321.7 1253.9 445 1153.7 480.6 1190.6 Z" data-holc_grade="C"/>
</g>
<g id="D">
<path d="M 2030.9 1384.7 2027.6 1594.3 2125.7 1599.6 2062.1 1969 1880.5 1940 1881.3 1977 1794.3 1990.1 1793.6 1822.6 1793 1673.5 1706.8 1677.5 1701.5 1267.2 1749.3 1267.1 1861.1 1266.9 1834 1388.6 2030.9 1384.7 Z" data-holc_grade="D"/>
<path d="M 2294 2041.1 2663 1652.6 2631.7 2095.1 2294 2041.1 Z" data-holc_grade="D"/>
<path d="M 1695.1 3009 1706.9 2495.5 1715.4 2207.5 1957.2 2236.2 2036.1 2253.9 2136.3 2275 2109.1 2364.6 2043.8 2363.7 2003.9 2531.8 2131.2 2543.6 2148.2 2458.3 2170.2 2379.7 2261.9 2388.2 2293.2 2253.9 2359.4 2263.2 2371.3 2188.9 2630.1 2226.8 2633.6 2552.8 2404.5 2555.3 2247.5 2557.9 2221.3 2566.7 2181.5 2647.2 2182.8 2694.7 2198.8 2743.5 2221.3 2779.1 2225.3 2818.7 2210.7 2854.3 1916.4 2841.2 1954.8 3010.1 1695.1 3009 Z" data-holc_grade="D"/>
<path d="M 1245.5 2025.8 1343.6 2021.8 1458.9 2036.3 1515.9 2127.4 1543.8 2147.2 1550.4 2338.5 1470.8 2343.8 1438 2401.8 1365.8 2494.6 1126.5 2837.5 1078.1 2845.5 1080.2 2538.3 609.9 2525.8 618.3 2222.8 918.7 2229 924.9 2022.9 1088.5 2018.8 1148.6 2039.4 1245.5 2025.8 Z" data-holc_grade="D"/>
<path d="M 2063.9 349.3 1985.2 706.4 1909.5 1049.6 1861.1 1266.9 1749.3 1267.1 1769.6 1155.5 1784.1 1032.3 1763.7 983.3 1711.9 965.6 1722.3 334.9 2063.9 349.3 Z" data-holc_grade="D"/>
<path d="M 1407.4 903.1 1348.9 898.1 1335.3 909 1356.9 989.2 1507.8 1001.1 1515.9 1241.5 1557.6 1238.3 1589.8 1250.9 1594.9 1277.9 1609.3 1284.7 1608.5 1581 1556.7 1583.6 1382 1421.5 1252.2 1418.1 1240.3 1387.7 1239.5 1300.7 1397.3 1301.6 1401.5 1257.7 1264.1 897.9 924.8 886 928.8 626.2 1412.5 638.1 1407.4 903.1 Z" data-holc_grade="D"/>
</g>
</svg>