<?xml version="1.0"?>
<svg xmlns="http://www.w3.org/2000/svg" version="1.2" baseProfile="tiny" width="3000" height="3296" viewBox="0 0 3000 3296" stroke-linecap="round" stroke-linejoin="round">
<g id="A">
<path d="M 1044.1 1682.8 1044.1 1684.3 903.1 1704.5 798.1 1758.6 800.4 1831.8 795.1 1835.8 647.8 1839.4 648.3 1769.4 676.1 1767.9 673.8 1644.6 340.6 1657.1 334.3 1657.3 327.1 1532.3 321.3 1468.5 316.4 1349.9 318.3 1164.8 416.2 1161.1 420.2 1142.5 417.1 1042.3 570.6 1038.4 574.6 1094.6 580.4 1098 650.7 1088.5 718.4 1087.6 776.1 1137.4 776.1 1136.9 789.3 1144.3 863.7 1140.9 866.6 1172.9 866.6 1217 1026.7 1371.3 1030.4 1471.2 1064.6 1485.6 1077.7 1500.3 1095.4 1525.8 1108.1 1555.8 1060.3 1550.6 1059 1563.1 1064.9 1640.7 1045.1 1641.5 1044.2 1656.3 1044.1 1682.8 Z M 556.8 1317.6 557.4 1302.6 552.8 1271.2 547.9 1152.9 472.2 1156.9 480.1 1326.7 556.8 1317.6 Z" data-holc_grade="A"/>
</g>
<g id="B">
<path d="M 458.6 527.4 573.1 522.7 770.9 514.6 777.8 676.4 461.3 688.2 458.6 527.4 Z" data-holc_grade="B"/>
<path d="M 470.2 842 578 941.3 573.1 948.6 569.4 981.6 570.6 1038.4 417.1 1042.3 420.2 1142.5 416.2 1161.1 318.3 1164.8 316.4 1349.9 321.3 1468.5 327.1 1532.3 334.3 1657.3 25.3 1663.1 19.8 1487.1 12.5 1484 1 1167.5 174 1162.1 172 1013.8 169.8 959.3 170.2 941.4 169.8 853.9 226.9 847.5 221.4 773.3 218.2 655.1 208.5 587.8 257.5 635.7 470.2 842 Z" data-holc_grade="B"/>
<path d="M 776.1 1136.9 776.1 1137.4 718.4 1087.6 650.7 1088.5 580.4 1098 574.6 1094.6 570.6 1038.4 569.4 981.6 573.1 948.6 578 941.3 470.2 842 774.5 833.3 779.7 825.8 778.3 791.5 779.8 753.3 855.3 751 856.9 831.2 937.7 829.7 942.7 974.4 777.7 979.4 774.3 1049.1 776.1 1136.9 Z" data-holc_grade="B"/>
<path d="M 1151 1684.1 1120 1681.3 1106.5 1675.2 1044.1 1682.8 1044.2 1656.3 1045.1 1641.5 1064.9 1640.7 1059 1563.1 1060.3 1550.6 1108.1 1555.8 1095.4 1525.8 1077.7 1500.3 1064.6 1485.6 1030.4 1471.2 1026.7 1371.3 866.6 1217 866.6 1172.9 863.7 1140.9 789.3 1144.3 776.1 1136.9 774.3 1049.1 777.7 979.4 942.7 974.4 946.8 1137.6 1256.9 1126.2 1257.3 1157.1 1178.8 1423.3 1179 1438.2 1172.6 1495.3 1169.1 1517.2 1156.8 1617.1 1156.5 1632.4 1153.2 1647.8 1151.2 1664.6 1151 1684.1 Z" data-holc_grade="B"/>
<path d="M 650.4 2001.8 647.8 1839.4 795.1 1835.8 800.4 1831.8 798.1 1758.6 903.1 1704.5 1044.1 1684.3 1044.1 1682.8 1106.5 1675.2 1120 1681.3 1121.5 1913.9 1079.1 1913.6 1079.1 1984.8 1020.9 1984.1 1023.3 2078.9 904.9 2080.7 906.1 2163.8 821.7 2166.9 819.3 2010.1 817.8 1995.1 738.6 1996.3 708.9 2001.5 650.4 2001.8 Z" data-holc_grade="B"/>
<path d="M 647.8 1839.4 650.4 2001.8 650.5 2004.7 657.2 2113.8 657.5 2174.9 661.4 2221 657.2 2225.9 475 2236.2 401.8 2245.1 353.5 2249.4 348.8 2154.4 338.9 1817 390.9 1814.8 389.5 1773.5 337.5 1775.3 340.6 1657.1 673.8 1644.6 676.1 1767.9 648.3 1769.4 647.8 1839.4 Z" data-holc_grade="B"/>
<path d="M 1861.3 2024.9 1853.6 1872.1 1903.6 1871.2 1904.3 1837 1947.8 1817.1 1952.7 1810.4 1999.6 1792.9 2036.1 1782.2 2040.5 1885.1 2047.9 1890.7 2086.9 1888.4 2089.8 1932.9 2051.4 1933.3 2050.8 1964.3 2051.2 2017.7 1861.3 2024.9 Z" data-holc_grade="B"/>
<path d="M 556.8 1317.6 480.1 1326.7 472.2 1156.9 547.9 1152.9 552.8 1271.2 557.4 1302.6 556.8 1317.6 Z" data-holc_grade="B"/>
</g>
<g id="C">
<path d="M 942.7 974.4 937.7 829.7 856.9 831.2 855.3 751 779.8 753.3 778.3 791.5 779.7 825.8 774.5 833.3 470.2 842 257.5 635.7 208.5 587.8 160.6 540.9 458.6 527.4 461.3 688.2 777.8 676.4 770.9 514.6 573.1 522.7 570.4 368.8 768.2 363.3 763.6 206.2 859.2 200.7 969.5 194.2 1069.4 191.5 1066 165.9 1065.1 42.2 1236.8 52.9 1235.9 66.9 1204.3 157.9 1197.5 228.2 1216.5 504 1245.9 649.5 1282.3 820.6 1307.2 960.3 942.7 974.4 Z" data-holc_grade="C"/>
<path d="M 2002.8 1615.4 1892.7 1613.6 1880.6 1613.4 1881.1 1587.9 1871.7 1587.1 1870.1 1479.1 1867.7 1305.9 1863.1 1176.9 1862.9 1103.3 2098 1101.3 2084.2 1122.6 2059.7 1171.1 2048 1209.5 2037.1 1230.9 2040.7 1306.9 2043 1402.1 1997.5 1401.6 1999.3 1477.5 2002.8 1615.4 Z" data-holc_grade="C"/>
<path d="M 2036.5 1751.4 2036.1 1782.2 1999.6 1792.9 1952.7 1810.4 1947.8 1817.1 1904.3 1837 1903.6 1871.2 1853.6 1872.1 1861.3 2024.9 1811.6 2024.3 1804.1 2041.2 1790.9 2059.5 1771 2075.7 1755.4 2088.9 1716.1 2104.5 1685.4 2114.6 1662.1 2119.1 1640.9 2127.7 1628.4 2152.1 1616.1 2177.2 1573.5 2243.2 1520.1 2287.5 1515.8 2187 1508.7 2040 1474.7 2040.6 1557.4 1813.2 1591.9 1727.5 1662.1 1726.5 1790.5 1722.3 1842.3 1715.8 1856.6 1711.6 2036.7 1708.8 2036.5 1751.4 Z" data-holc_grade="C"/>
<path d="M 2051.2 2017.7 2055.1 2171.4 2005.4 2173 1998.9 2090.1 1921.9 2092.9 1924.1 2124.1 1922.6 2135.7 1925 2178.8 1803.2 2185.2 1809.4 2295.6 1752 2343.8 1670.7 2346 1668 2300.5 1521.6 2307.5 1520.1 2287.5 1573.5 2243.2 1616.1 2177.2 1628.4 2152.1 1640.9 2127.7 1662.1 2119.1 1685.4 2114.6 1716.1 2104.5 1755.4 2088.9 1771 2075.7 1790.9 2059.5 1804.1 2041.2 1811.6 2024.3 1861.3 2024.9 2051.2 2017.7 Z M 2089.8 1932.9 2086.9 1888.4 2047.9 1890.7 2040.5 1885.1 2036.1 1782.2 2036.5 1751.4 2046.8 1740.4 2101.1 1754.1 2141.1 1762.7 2131.7 1816.8 2118.1 1867.2 2114 1891.1 2111.9 1930.5 2089.8 1932.9 Z" data-holc_grade="C"/>
<path d="M 1844.8 2648.2 1849 2695.2 1916.9 2724.2 2070.3 2801 2073.3 2880.8 1795.3 2749.7 1648 2670 1617.6 2645.7 1544 2563.1 1535.3 2545 1747.4 2533.6 1744.3 2483.9 1842.5 2480 1842.2 2578.7 1844.8 2648.2 Z" data-holc_grade="C"/>
<path d="M 2217.9 2426.1 2062.2 2433 2059.9 2319 2445.8 2308.9 2450 2420.1 2217.9 2426.1 Z" data-holc_grade="C"/>
<path d="M 1216.8 1690.1 1151 1684.1 1151.2 1664.6 1153.2 1647.8 1156.5 1632.4 1156.8 1617.1 1169.1 1517.2 1172.6 1495.3 1179 1438.2 1178.8 1423.3 1257.3 1157.1 1256.9 1126.2 946.8 1137.6 942.7 974.4 1307.2 960.3 1312.1 1116.9 1320.8 1124 1349.1 1123.1 1344.5 1133.4 1331.3 1186.2 1259.2 1433.1 1235.8 1506.4 1232.7 1543.3 1216.8 1690.1 Z" data-holc_grade="C"/>
<path d="M 1151 1684.1 1216.8 1690.1 1207.8 1765.1 1189.9 1821.3 1154.2 1823.3 1155.8 1963.6 1129.6 2016.5 1119.7 2017.9 1074.6 2144 997.5 2237.3 819.2 2241.6 820.1 2312.2 661.4 2319.8 657.2 2225.9 661.4 2221 657.5 2174.9 657.2 2113.8 650.5 2004.7 650.4 2001.8 708.9 2001.5 738.6 1996.3 817.8 1995.1 819.3 2010.1 821.7 2166.9 906.1 2163.8 904.9 2080.7 1023.3 2078.9 1020.9 1984.1 1079.1 1984.8 1079.1 1913.6 1121.5 1913.9 1120 1681.3 1151 1684.1 Z" data-holc_grade="C"/>
<path d="M 657.2 2225.9 661.4 2319.8 669 2492.7 517.5 2535.9 50.7 2554.8 46.7 2262.5 48.9 2169.1 61.7 2170.8 73.7 2167.6 81.5 2159.3 165.2 2157.5 188.2 2161.2 348.8 2154.4 353.5 2249.4 401.8 2245.1 475 2236.2 657.2 2225.9 Z" data-holc_grade="C"/>
<path d="M 348.8 2154.4 188.2 2161.2 165.2 2157.5 81.5 2159.3 73.7 2167.6 61.7 2170.8 48.9 2169.1 41 2168 25.3 1663.1 334.3 1657.3 340.6 1657.1 337.5 1775.3 389.5 1773.5 390.9 1814.8 338.9 1817 348.8 2154.4 Z" data-holc_grade="C"/>
<path d="M 2425.5 22.7 2429.8 206.2 2137.7 202.7 2179.3 29.2 2425.5 22.7 Z M 2485.2 798.7 2485.8 854.2 2470.1 878.2 2264.7 886.7 2201.5 889.7 2198.7 889.8 2028.6 892.9 2026.6 784.1 2026.6 781.5 2025.5 737.1 2033.1 715.7 2022.8 687.5 2018.2 666.5 2031.6 652.3 2027.7 475.2 1708.1 490.9 1831.1 36.2 1839.1 4.9 2012.9 1 2014.1 130.9 2015.9 223.4 2024.7 315.3 2213.7 306.7 2236.9 311.3 2267.5 317 2267.5 359.2 2274.9 397.4 2277.2 468.9 2360.9 465 2413.3 464.5 2417.7 509.9 2421.6 575.1 2420.8 670.4 2422.4 750.2 2484.7 746.5 2485.2 798.7 Z" data-holc_grade="C"/>
<path d="M 2203 1007.4 2201.5 889.7 2264.7 886.7 2470.1 878.2 2485.8 854.2 2485.2 798.7 2624 793.7 2625.8 806.6 2631.1 1022.9 2634.5 1092.8 2698.9 1087.3 2843.4 1080.5 2985.7 1080.1 2988.5 1167.2 2999 1379.8 2968.7 1415.3 2821.2 1472.2 2739.9 1484.8 2728.2 1501 2581.3 1516.9 2540.3 1520.1 2509.5 1515 2410.1 1511.4 2270.3 1511.9 2230.3 1528.4 2184.2 1424.9 2201.2 1390.9 2201.2 1327.2 2238.5 1269.9 2257.8 1232.8 2277.6 1211.3 2308.4 1183.3 2288.1 1092.1 2203 1007.4 Z" data-holc_grade="C"/>
<path d="M 2504.8 2055.8 2504 1884.6 2458.7 1838.4 2453.7 1761.7 2466.3 1762.4 2591.7 1807.8 2662.3 1797.1 2665.7 1759.7 2678.7 1738.7 2865.4 1614.4 2921 1549.1 2935.3 1791.6 2900.8 1793.6 2903.1 1928 2903.2 1995.6 2831.8 1999.9 2833.8 2096.5 2674.7 2099.3 2671.1 1915.9 2600.2 1916.7 2599.5 2056.1 2504.8 2055.8 Z M 2982.5 47 2981 238 2749.9 232.4 2748.9 494.7 2456.9 495.6 2449.5 244.8 2449.2 77.1 2760.6 35.5 2864.8 31.1 2982.5 47 Z" data-holc_grade="C"/>
<path d="M 1637 1522.9 1638.2 1420.5 1635.2 1381.8 1631.8 1245.7 1707.3 1244 1706.3 1193.7 1706.7 1190.4 1710.6 1159.4 1712.3 1104.5 1862.9 1103.3 1863.1 1176.9 1867.7 1305.9 1870.1 1479.1 1871.7 1587.1 1817.2 1589.4 1717.1 1588.7 1716.4 1531.4 1711.1 1525 1637 1522.9 Z" data-holc_grade="C"/>
</g>
<g id="D">
<path d="M 669 2492.7 661.4 2319.8 820.1 2312.2 819.2 2241.6 997.5 2237.3 969.1 2274.1 893.5 2357.7 819.9 2361.9 806.9 2387.5 778.9 2411.2 745.1 2433.7 718.7 2445.2 707.5 2471.2 712.1 2481.5 680.3 2492.2 669 2492.7 Z M 1129.6 2016.5 1155.8 1963.6 1154.2 1823.3 1189.9 1821.3 1207.8 1765.1 1216.8 1690.1 1232.7 1543.3 1235.8 1506.4 1259.2 1433.1 1331.3 1186.2 1344.5 1133.4 1349.1 1123.1 1360.5 1121 1369.4 1116.5 1381.2 1108.9 1381.2 1121.4 1365.9 1170 1361.3 1188.5 1354.8 1202.7 1352.9 1215.2 1349.5 1220.7 1348.7 1230.6 1344 1245.2 1338.3 1278.1 1322.8 1322.1 1315.7 1351.5 1309 1374.4 1298.4 1399.9 1295.8 1424.2 1280.3 1457.6 1261.3 1510 1255.8 1540.3 1254.4 1557.6 1255.9 1571.5 1250.7 1599.6 1245.6 1690.9 1240.1 1726.8 1234.2 1767.5 1228.4 1797.2 1220.3 1822 1216.2 1841.5 1208.6 1869.7 1196.6 1929.9 1193.2 1947.3 1191.2 1969.7 1188.5 2014 1129.6 2016.5 Z" data-holc_grade="D"/>
<path d="M 2201.5 889.7 2203 1007.4 2204 1090.9 2196.5 1089.2 2186.6 1081.7 2175.5 1078.9 2156.4 1083.5 2138.3 1083.1 2124 1085.4 2114.8 1086.1 2104.8 1094.1 2098 1101.3 1862.9 1103.3 1712.3 1104.5 1717.6 940.7 1864.3 935.5 1860.1 788.6 1873.6 786.4 2026.6 781.5 2026.6 784.1 2028.6 892.9 2198.7 889.8 2201.5 889.7 Z" data-holc_grade="D"/>
<path d="M 1637 1522.9 1519.9 1525.4 1519.5 1489.9 1517.4 1426.4 1513.1 1316.7 1504.8 1196.9 1706.7 1190.4 1706.3 1193.7 1707.3 1244 1631.8 1245.7 1635.2 1381.8 1638.2 1420.5 1637 1522.9 Z" data-holc_grade="D"/>
<path d="M 2230.3 1528.4 2270.3 1511.9 2410.1 1511.4 2509.5 1515 2540.3 1520.1 2581.3 1516.9 2728.2 1501 2739.9 1484.8 2821.2 1472.2 2968.7 1415.3 2945.9 1434.4 2879 1466.9 2755.8 1538 2620.5 1602.5 2571.8 1623.3 2503.4 1634.6 2428.7 1649.6 2253.9 1690 2249.4 1573.2 2230.3 1528.4 Z" data-holc_grade="D"/>
<path d="M 1520.1 2287.5 1503.8 2306.9 1474.7 2327.1 1445.9 2334.8 1429 2335.9 1389.9 2339 1379.6 2343.9 1365.4 2358.8 1075.7 2369 1077.3 2354.3 1083.5 2329 1096.4 2300.6 1127 2257.6 1161.1 2204.3 1183.7 2145 1190.1 2118.3 1228.1 2018.2 1224.9 1967.1 1226.5 1933.8 1225.4 1906.6 1244 1848.6 1261.3 1819 1395.4 1817.4 1400.3 1950.1 1406.5 2091.4 1412.2 2179.6 1467 2179.3 1465.9 2155.6 1458.6 1977.9 1457.5 1898.1 1458.6 1813.3 1459.8 1736.5 1501.9 1730.8 1591.9 1727.5 1557.4 1813.2 1474.7 2040.6 1508.7 2040 1515.8 2187 1520.1 2287.5 Z" data-holc_grade="D"/>
<path d="M 2445.8 2308.9 2059.9 2319 2059.9 2316.1 2057 2229.4 2127.9 2143.9 2166.6 2096.4 2208.4 2046.4 2280 1957.3 2276 1857.7 2366.5 1754.4 2453.7 1761.7 2458.7 1838.4 2504 1884.6 2504.8 2055.8 2510 2265.5 2514.2 2307.6 2445.8 2308.9 Z" data-holc_grade="D"/>
<path d="M 2055.1 2171.4 2057 2229.4 2059.9 2316.1 2059.9 2319 2062.2 2433 2217.9 2426.1 2230.2 2632.4 2229.5 2662.2 2234.9 2789.9 2071.1 2794.5 2070.3 2801 1916.9 2724.2 1849 2695.2 1844.8 2648.2 1999.3 2638.2 1978.2 2586.6 1973.6 2536.6 1975.9 2504.5 1968.6 2475.1 1842.5 2480 1744.3 2483.9 1747.4 2533.6 1535.3 2545 1565.6 2503.8 1607.4 2447.6 1632.7 2411.7 1670.6 2356.3 1670.7 2346 1752 2343.8 1809.4 2295.6 1803.2 2185.2 1925 2178.8 1922.6 2135.7 1924.1 2124.1 1921.9 2092.9 1998.9 2090.1 2005.4 2173 2055.1 2171.4 Z" data-holc_grade="D"/>
<path d="M 2002.8 1615.4 2004.3 1680.1 2035.5 1681.3 2051.6 1675.8 2069.4 1675.1 2116.3 1685.4 2134.5 1685.4 2163.9 1684.2 2101.1 1754.1 2046.8 1740.4 2036.5 1751.4 2036.7 1708.8 1856.6 1711.6 1868.1 1696.9 1875.4 1682.2 1878.4 1665.7 1880.5 1646.5 1882.3 1631.8 1886.7 1622.6 1892.7 1613.6 2002.8 1615.4 Z" data-holc_grade="D"/>
<path d="M 1075.7 2369 1365.4 2358.8 1379.6 2343.9 1389.9 2339 1429 2335.9 1445.9 2334.8 1474.7 2327.1 1503.8 2306.9 1520.1 2287.5 1521.6 2307.5 1494.3 2343.9 1438.1 2401.4 1375.1 2449.6 1304.3 2498.2 1220.8 2558.7 1144.7 2617 1142.8 2684.9 1190.1 2667.8 1288.3 2621 1335.8 2606.7 1378.5 2602.1 1441.4 2601.2 1444.2 2644 1443.5 2716.1 1443 2875.8 1551 2875.3 1555.1 2973.7 1446.2 2979.1 1455.4 3141 1457.7 3231.3 1181.1 3244.6 1262.5 3158.9 1252 2976.8 1147 2976.8 1153 3121.2 1162.2 3246 683.4 3269.7 70.9 3294.9 65.1 3092.3 62.6 3022.1 61.9 2891.9 59.3 2786.3 78.4 2785.2 239.2 2711.5 276.8 2702.4 373.8 2674.5 406 2674.2 551 2632.6 582.3 2615.8 593.9 2602.9 612.4 2577 644.3 2555 687.6 2535.1 803.4 2485.3 825.6 2471.8 852.9 2446.2 902.8 2406 949.9 2362.7 936.1 2356.2 940.9 2348.6 984.6 2307.4 1010.7 2275.6 1045.3 2243.7 1071.5 2217.9 1102.9 2185.1 1124.4 2167.2 1142.6 2156.5 1101 2217.2 1074 2246.7 1044.8 2280.7 1017.1 2318 1001 2342.3 992.2 2363 978.3 2384.3 931.2 2426.1 889.8 2462.8 870.5 2485 865.9 2500.9 865.2 2542.6 865.2 2570.7 860.6 2598.3 851.3 2614.9 833 2643.6 820.2 2662.2 804.2 2693.3 793.9 2720.2 785.8 2735.3 772.3 2741.1 755.7 2740.8 739.9 2742.5 727.8 2749 720.3 2759.9 712.3 2757.1 688.1 2770.7 675.3 2770.7 667.7 2767.3 661.8 2753.1 661.7 2735.1 650.3 2728.8 641.1 2728.8 617.3 2733.4 590.8 2739.5 567.2 2749.3 554 2757.7 543.7 2768.5 529.1 2785.8 514.5 2801.1 505.5 2806.7 494.4 2817.9 484 2818.8 462.8 2815.4 453.2 2815 437.2 2815.9 415.6 2819.7 400.1 2821.5 389 2825.8 364.3 2834.8 330.4 2850.8 292.3 2871.9 243.4 2896 227 2898.5 186 2920.2 183.7 2926.6 178.3 2928 153.3 2942.9 130.9 2959.4 137.6 2964 144.9 2966.9 155.6 2971.2 157.9 2971.2 167.7 2979.6 172.5 2988 172.3 2998.4 174.6 3019.5 176.1 3041.2 175.2 3053.4 194.4 3036.6 233.8 3007.5 251.5 2993.6 277.1 2982.7 306.3 2971.6 339.9 2967 352.9 2965.6 379.3 2960.3 391.7 2959.5 408.6 2953.4 429 2943.5 450.8 2936.8 507.6 2899.5 537.4 2878.1 557.2 2862.2 571 2847.1 576.5 2826.8 588.3 2813.2 599.4 2807.4 609.8 2807.2 622.2 2814.9 640.8 2825.4 664.3 2826.2 687.6 2826.2 705.7 2816.9 720.4 2800.8 733 2792.4 740.7 2791.4 775.2 2787.4 798.4 2783.3 808.5 2777.3 818.3 2769.2 823.7 2760.8 829.7 2742.9 835.5 2723.8 838.9 2713.6 847 2696 852.7 2683 863.4 2662.2 878.8 2644.2 890.4 2631.1 901.2 2612.7 920.5 2592.6 941.7 2574.5 965 2559.4 985.1 2549.8 968.8 2548 961 2538.3 961.5 2510.8 964.9 2499.4 981.6 2472.5 996.6 2448.3 1011.2 2438.1 1040 2434.4 1048.6 2428.3 1068.4 2408.8 1073.5 2389.2 1075.7 2369 Z" data-holc_grade="D"/>
</g>
</svg>