<?xml version="1.0"?>
<svg xmlns="http://www.w3.org/2000/svg" version="1.2" baseProfile="tiny" width="3000" height="2745" viewBox="0 0 3000 2745" stroke-linecap="round" stroke-linejoin="round">
<g id="A">
<path d="M 35 1614.3 33.7 1785.3 1 1780 4.5 1591.5 12.2 1599.2 19.9 1603.8 28.4 1605.9 35 1614.3 Z M 37.5 1590 25.6 1585.1 13.6 1580.2 14 1567.9 11.9 1547.9 3.5 1540.2 4 1257.9 30.7 1258 32.9 1397.4 40.7 1401.6 38.8 1466 38 1532.2 37.5 1590 Z" data-holc_grade="A"/>
<path d="M 538 1927.2 539.2 1956.2 490.9 1947.7 486.8 1863.1 536 1874.9 538 1927.2 Z M 442 1743.7 444.2 1857.7 383.3 1845.5 384.4 1739 442 1743.7 Z M 429.3 1447.8 560 1452.1 562.3 1546.9 520.1 1548.3 519 1642.6 440.7 1643 390.2 1571.5 393.1 1498.6 427.3 1496.4 429.3 1447.8 Z" data-holc_grade="A"/>
<path d="M 1650.9 1217.1 1701.9 1217.5 1700.4 1250.3 1550.4 1248.5 1550.4 1216.2 1650.9 1217.1 Z" data-holc_grade="A"/>
<path d="M 1700.4 1250.3 1701.4 1265.6 1702.3 1277.9 1697.6 1346.5 1683.1 1342.8 1649.8 1344.2 1632.5 1347.5 1612.8 1344.2 1576.7 1320.4 1550.9 1300.3 1550.4 1248.5 1700.4 1250.3 Z M 1642.9 1273.2 1617.2 1272.2 1619.7 1317.3 1643.6 1318.7 1642.9 1273.2 Z" data-holc_grade="A"/>
<path d="M 1860.8 1939.9 1772.2 1937.6 1679.8 1938.6 1679.3 1856.4 1722.9 1857.8 1724.4 1888.1 1862.2 1890.9 1860.8 1939.9 Z" data-holc_grade="A"/>
<path d="M 1865.1 2128.3 1870.8 2131.5 1870.8 2173.6 1830.9 2173.6 1831.8 2140.9 1834.2 2127.3 1865.1 2128.3 Z" data-holc_grade="A"/>
<path d="M 2675.6 2276.4 2705.1 2254.4 2725.4 2254.1 2725.5 2318.6 2721.7 2325.7 2676.8 2324.6 2675.6 2276.4 Z M 2540.2 2132.8 2561.3 2134.8 2562.2 2134.8 2572.2 2136.9 2577.2 2140.4 2578.4 2157.9 2631.4 2156.6 2625.3 2166 2624.7 2174.5 2629.1 2182.1 2640 2192.6 2646.7 2195.2 2641.7 2202.8 2635.9 2205.1 2620.9 2204.3 2556.1 2183.6 2533.2 2185.7 2534.1 2159.4 2533.5 2135.4 2540.2 2132.8 Z M 2721.7 2139 2722.6 2126.7 2788.9 2127.8 2788.3 2141.5 2771.8 2141.8 2747.8 2143.3 2732 2143.4 2721.1 2146.6 2721.7 2139 Z" data-holc_grade="A"/>
</g>
<g id="B">
<path d="M 73 1218.7 72.2 1275.7 63 1278.5 63 1294.3 45.1 1296 45.6 1217.2 73 1218.7 Z M 30.7 1258 4 1257.9 4.6 1211.8 32.9 1212.8 30.7 1258 Z" data-holc_grade="B"/>
<path d="M 1788.2 2173.6 1830.9 2173.6 1870.8 2173.6 1871.3 2227.3 1802.8 2225 1779.3 2226 1775.6 2179.7 1775.3 2172.2 1788.2 2173.6 Z" data-holc_grade="B"/>
<path d="M 2435.8 1753.2 2434.6 1784.9 2387.8 1807.8 2381.2 1802.2 2318.8 1783.1 2326.8 1768.6 2343.2 1751.3 2345 1725.2 2411.6 1726 2436.9 1724.6 2435.8 1753.2 Z" data-holc_grade="B"/>
<path d="M 2815.2 1679.2 2817 1688.4 2816 1694.7 2798.4 1705.2 2766.1 1716.8 2751.7 1721.1 2723.2 1727.1 2681.7 1735.2 2683.1 1696.3 2761.5 1669.2 2796.2 1655.6 2800.7 1662.5 2815.2 1679.2 Z" data-holc_grade="B"/>
<path d="M 2999 1642.1 2878 1637.1 2878.4 1625.9 2878.1 1613.3 2883.4 1613.9 2885.2 1605.4 2975.4 1581.3 2995 1584.5 2999 1642.1 Z" data-holc_grade="B"/>
<path d="M 33.7 1785.3 35 1614.3 46.3 1623.1 56.1 1631.9 63.8 1647 72.2 1654 71.7 1791.3 33.7 1785.3 Z M 206.4 1554.4 206.5 1670 172.4 1669.6 172.9 1624.7 173.7 1552.9 206.4 1554.4 Z M 160.3 1310.9 155.9 1668.3 134.1 1664.1 130.6 1652.2 130.6 1644.4 120.1 1641.3 110.6 1648.3 103.2 1658.4 95.1 1669.3 81 1645.8 81.4 1614.2 92.3 1614.3 90.5 1459.4 84.2 1457.7 78.9 1432.5 71.2 1409.7 69.5 1620.2 62.8 1600.2 50.2 1593.2 37.5 1590 38 1532.2 38.8 1466 40.7 1401.6 48 1399.8 46 1356.4 69.9 1356.1 72.1 1308.8 85.5 1305.9 160.3 1310.9 Z" data-holc_grade="B"/>
<path d="M 1787.1 1279.3 1787.1 1297.9 1787.1 1345.6 1697.6 1346.5 1702.3 1277.9 1787.1 1279.3 Z" data-holc_grade="B"/>
<path d="M 1774.2 1968.7 1679.8 1977.4 1679.8 1938.6 1772.2 1937.6 1774.2 1968.7 Z" data-holc_grade="B"/>
<path d="M 1859 1961 1774.2 1968.7 1772.2 1937.6 1860.8 1939.9 1859 1961 Z" data-holc_grade="B"/>
<path d="M 1876.1 1956.8 1875.6 1915.2 1927.7 1915.6 1925.8 1949.8 1876.1 1956.8 Z" data-holc_grade="B"/>
<path d="M 1834.2 2127.3 1832.3 2082.9 1864.2 2081.5 1865.1 2128.3 1834.2 2127.3 Z" data-holc_grade="B"/>
<path d="M 1678 2176.5 1678 2127.4 1705.2 2126.9 1706.6 2175.5 1678 2176.5 Z" data-holc_grade="B"/>
<path d="M 1775.3 2172.2 1773.7 2127.8 1800.9 2127.6 1800 2153.5 1790.1 2154.5 1788.2 2173.6 1775.3 2172.2 Z" data-holc_grade="B"/>
</g>
<g id="C">
<path d="M 135.1 110.7 162.2 142.9 162.4 290.2 115.6 288.3 117.2 155 127.5 141.9 134.1 129.3 135.1 110.7 Z" data-holc_grade="C"/>
<path d="M 37.8 2738.3 12.6 2743.6 20.9 2688.6 9.2 2682.2 12.2 2623.1 87.9 2623.3 83.8 2632.6 88.5 2640.8 85.5 2650.1 78.5 2654.8 72.6 2664.2 70.2 2674.7 70.2 2692.2 66.1 2698.6 60.8 2703.3 55.5 2709.7 57.2 2718.5 50.8 2720.8 45.5 2724.3 43.7 2731.9 37.8 2738.3 Z M 1068.9 2216.6 1068.8 2261.5 1090.2 2259.8 1091.3 2317 1035 2315.9 970.3 2342.2 971.9 2413.5 1019.2 2412.4 1019.2 2443.8 961.8 2444.9 962.3 2401.1 952.8 2400 950.5 2374.2 917.9 2372.5 916.8 2314.7 818.3 2316.3 820 2260.8 870.7 2261.4 872.9 2214.3 1068.9 2216.6 Z" data-holc_grade="C"/>
<path d="M 1207 1361.3 1181.6 1361.6 1063.6 1363.1 1062.2 1289.4 1010.2 1286.5 1010.2 1227.2 1008.4 1180.1 1186.4 1213.3 1182.2 1275.4 1206.5 1277.3 1210.3 1213.8 1231.4 1213.3 1235.6 1185.8 1260 1186.3 1272.6 1195.1 1289.5 1202.1 1302.6 1204.9 1305.9 1346.4 1276.4 1348.7 1207.5 1341.2 1207 1361.3 Z" data-holc_grade="C"/>
<path d="M 1550.4 1216.2 1550.4 1248.5 1550.9 1300.3 1481 1249.5 1482.4 1213.1 1482 1201.9 1495.6 1193 1502.6 1178.6 1549 1180.9 1550.4 1216.2 Z" data-holc_grade="C"/>
<path d="M 1851.8 1361 1816.6 1362 1775.9 1363.8 1716.8 1362.8 1653.6 1361.5 1630.6 1356.3 1632.5 1347.5 1649.8 1344.2 1683.1 1342.8 1697.6 1346.5 1787.1 1345.6 1790.4 1345.5 1813.8 1346.5 1812.9 1322.2 1826.9 1321.3 1825.5 1299.3 1787.1 1297.9 1787.1 1279.3 1853.6 1278.3 1851.8 1361 Z M 1701.4 1265.6 1700.4 1250.3 1701.9 1217.5 1771.1 1216.7 1773.3 1247.3 1785.9 1246.9 1786.3 1216.5 1813 1219.3 1813 1230.1 1841.1 1231.1 1861.8 1238.8 1865.3 1251.1 1866.7 1246.9 1901.9 1246.9 2029.1 1283.9 2031.6 1358.2 1868.2 1362.8 1869.2 1277.4 1934.6 1274.9 1933.5 1262.6 1852 1265.1 1701.4 1265.6 Z M 1961.7 1294.5 1960.6 1316.2 1972.9 1319 1974.3 1296.6 1961.7 1294.5 Z M 1909.6 1296.6 1885.4 1295.2 1887.9 1319.7 1907.9 1320.1 1909.6 1296.6 Z" data-holc_grade="C"/>
<path d="M 2434.8 1369.4 2437.5 1435.9 2254.4 1438.4 2254.4 1407.8 2281.9 1406.9 2283.6 1366.6 2434.8 1369.4 Z" data-holc_grade="C"/>
<path d="M 2434.8 1369.4 2432 1350.8 2437.6 1324.7 2431.5 1294.8 2481.7 1303.2 2515.9 1303.1 2517.2 1267.6 2514.8 1220.5 2663.4 1227.8 2667.2 1254.8 2618.5 1283.8 2644.3 1301.1 2658.3 1281.5 2707.5 1282.3 2706.7 1379.4 2661.2 1375.8 2659.3 1317.4 2622.7 1310.4 2620.5 1372.1 2434.8 1369.4 Z M 2563.5 1189.6 2512 1189.7 2510.5 1116.9 2539.5 1115.4 2539.5 1106.6 2583.6 1110.2 2583.2 1151.3 2563.5 1151.3 2563.5 1189.6 Z" data-holc_grade="C"/>
<path d="M 2990.1 992.8 2993.4 1103.4 2973 1098.6 2963.2 1114.7 2959.7 1120.6 2898.2 1142.1 2894 1095.5 2895.3 1075.2 2704.2 1073.4 2702.7 1034.9 2726.3 1037.3 2728.3 1027.2 2990.1 992.8 Z" data-holc_grade="C"/>
<path d="M 1670.5 1389.8 1673.3 1465.5 1671.5 1475.7 1674.8 1554.2 1624 1553.7 1386.9 1551.4 1386 1509.4 1304 1508 1303.5 1481.3 1302.1 1388 1670.5 1389.8 Z M 1608.2 1434.2 1609.1 1423.5 1600.7 1422.1 1600.7 1434.2 1608.2 1434.2 Z M 1553.8 1458 1505.5 1455.7 1505.1 1479.5 1552.9 1480 1553.8 1458 Z" data-holc_grade="C"/>
<path d="M 1815 1387.5 1812.3 1429.2 1796 1428.6 1796 1462.8 1761.8 1461.4 1758.4 1457.2 1758.9 1433.1 1721.8 1435.4 1681.2 1403.6 1670.5 1389.8 1672.6 1381.3 1815 1387.5 Z" data-holc_grade="C"/>
<path d="M 1958.2 1457.2 1869.6 1454.9 1867.3 1404.9 1885.5 1404.9 1941.3 1417.9 1954 1424 1958.2 1429.1 1958.2 1457.2 Z" data-holc_grade="C"/>
<path d="M 165.5 78.6 302.5 190.2 306.2 211.7 324 215.9 356.7 250.4 268.7 246.1 168.3 128.9 165.5 78.6 Z" data-holc_grade="C"/>
<path d="M 1773.7 2127.8 1773.7 2081.6 1727.7 2080.2 1727.2 2128.8 1773.7 2127.8 1775.3 2172.2 1775.6 2179.7 1706.6 2175.5 1705.2 2126.9 1678 2127.4 1678 2078.3 1679.8 1977.4 1774.2 1968.7 1859 1961 1864.2 2081.5 1832.3 2082.9 1834.2 2127.3 1800.9 2127.6 1773.7 2127.8 Z M 1960.5 1891.8 1964.7 2083.4 1966.8 2177.3 1918.9 2177.3 1921.3 2226.9 1871.3 2227.3 1870.8 2173.6 1870.8 2131.5 1878.1 2130.1 1876.1 1956.8 1925.8 1949.8 1927.7 1915.6 1875.6 1915.2 1875.1 1839.5 1940.3 1842.3 1936.6 1892.3 1960.5 1891.8 Z" data-holc_grade="C"/>
<path d="M 2157.1 1991.2 2108.3 1991.7 2064.1 1992.2 2064.7 2072.1 2006.6 2057.6 2004.7 2084.3 1964.7 2083.4 1960.5 1891.8 1962.3 1842.7 2008.3 1844.6 2010.7 1891.8 2249.8 1893 2250.4 1942.5 2383.1 1943.8 2383.1 1963.9 2374.2 1966.2 2373.8 1992.9 2250.9 1991.1 2250.9 1999.5 2206.3 1998.2 2203.5 1990.7 2157.1 1991.2 Z" data-holc_grade="C"/>
<path d="M 2705.1 2254.4 2675.6 2276.4 2664.7 2277.5 2661.4 2231.7 2666.4 2225.8 2668.4 2216.2 2668.1 2203.9 2668.4 2194 2656.9 2171.5 2668.9 2156.3 2682.7 2138.2 2721.7 2139 2721.1 2146.6 2732 2143.4 2747.8 2143.3 2771.8 2141.8 2788.3 2141.5 2788.9 2127.8 2789.1 2124.3 2814.3 2124 2815.2 2142.7 2705.1 2254.4 Z" data-holc_grade="C"/>
<path d="M 176.6 162 300.9 318 261.6 322.6 259.7 333.3 178.2 332.2 178.9 232 176.6 162 Z" data-holc_grade="C"/>
<path d="M 806.2 763.6 877 764.1 878.3 812.1 826.3 812.1 824.9 793.9 781.9 791.1 780.4 860.6 753.2 860.6 751.4 809.2 730.8 808.7 730.7 861 706.9 859.1 704.1 835.8 686.3 837.6 685.8 880.1 667 878.7 669.5 784.4 703.2 785.4 703.7 738.7 671.4 738.2 662 727 706.1 682.3 720.1 688.8 746.4 666.9 764.7 635.7 784.8 646.9 788.9 763.5 806.2 763.6 Z" data-holc_grade="C"/>
<path d="M 437.7 902.5 411.3 902.6 413 878.9 386.1 879.4 389 779.2 437.3 781 437.7 902.5 Z" data-holc_grade="C"/>
<path d="M 198.2 1363.5 193.6 1377.5 175 1371.9 177.2 1316.5 195.1 1330.2 202.8 1342.1 207 1355.1 196.5 1358.6 198.2 1363.5 Z M 160.3 1310.9 85.5 1305.9 84.5 1285.2 159 1288.8 160.3 1310.9 Z M 72.2 1275.7 73 1218.7 121.1 1217 140.8 1238.7 132.7 1246.4 138.3 1274.8 72.2 1275.7 Z M 269.9 1200.2 271.2 1234.4 299.3 1248.8 297.8 1272.6 255.3 1275.7 254.6 1236.5 255 1223.5 208.3 1227.6 176.3 1224.8 176.4 1183.5 179.2 1138.3 214.3 1163.2 269.8 1197.3 269.9 1200.2 Z M 33.2 1122.1 32.9 1212.8 4.6 1211.8 4.6 1205.9 4.5 1146.1 4.5 1121.5 6.8 1121.6 33.2 1122.1 Z" data-holc_grade="C"/>
<path d="M 560 1452.1 429.3 1447.8 392.7 1449.1 392.8 1402.9 557.7 1405 560 1452.1 Z M 207.5 1497.9 206.4 1554.4 173.7 1552.9 174.1 1485.7 174.2 1444.7 175.7 1401.3 205.9 1401.7 207.5 1494.8 207.5 1497.9 Z" data-holc_grade="C"/>
<path d="M 562.3 1546.9 560 1452.1 586.3 1450.8 586 1282.7 593 1279 595.9 1256.1 632.9 1257.1 637.6 1266.4 678.8 1272 680.7 1280.5 731.7 1281.4 732.1 1359.4 822.1 1357.1 821.2 1310 881.2 1308.2 914 1323.6 913.5 1361.4 878.4 1361.9 876 1386.1 826.3 1385.2 826.8 1403.8 852.1 1405.3 853.9 1437.9 915.8 1447.3 916.7 1485.2 867.5 1483.3 866.1 1453.4 658.5 1451.8 659.4 1464.9 682.3 1479.8 686.4 1598.4 641 1597.9 638.6 1644.6 595.9 1642.7 595.5 1592.3 607.2 1591.8 609.1 1549.8 562.3 1546.9 Z" data-holc_grade="C"/>
<path d="M 539.2 1956.2 538 1927.2 582.8 1927.7 584.8 1853.4 634.5 1853.5 635 1864.2 677.6 1865.2 680 1832.5 728.8 1834.9 730.6 1903.1 751.7 1907.8 751.7 1933.5 633.9 1931.5 635.3 1971.2 648 1973.6 650.2 2117 628.6 2117.5 628.3 1974.5 539.2 1956.2 Z" data-holc_grade="C"/>
<path d="M 2796.2 1655.6 2761.5 1669.2 2683.1 1696.3 2681.2 1683.2 2789.4 1645.2 2796.2 1655.6 Z" data-holc_grade="C"/>
</g>
<g id="D">
<path d="M 423.7 496.2 436.7 551.8 397 550.4 394.9 495.8 390.4 444.7 406.9 446.1 412.9 465.7 423.7 496.2 Z M 369.8 399.6 371.1 497.5 301.2 495 300.9 441.8 322 440.1 323.2 346 369.8 399.6 Z M 365 268.4 368.1 363.2 284 265.1 365 268.4 Z M 92.1 43.5 93.9 84 57 83.1 55.2 1 92.1 43.5 Z" data-holc_grade="D"/>
<path d="M 2857 1757.6 2834.5 1757.8 2839.4 1742.9 2846.7 1734.9 2855.5 1723 2857 1757.6 Z M 2836.6 1738.9 2832.1 1752.9 2832.3 1710.4 2821.5 1710.2 2820.3 1674 2819.1 1662.3 2841.4 1662.8 2855.5 1666.5 2856.7 1716.7 2836.6 1738.9 Z M 2999 1642.1 2999 1666.8 2954 1662.7 2949.3 1665 2955.1 1757 2902.1 1757.6 2901 1664.6 2862.1 1663.3 2854.1 1660 2847.1 1659.1 2834.9 1657.3 2818.5 1655 2810.5 1655.9 2814.8 1676.9 2815.7 1679.7 2815.2 1679.2 2800.7 1662.5 2796.2 1655.6 2789.4 1645.2 2681.2 1683.2 2668.5 1684.1 2665.8 1738.3 2654.5 1735.1 2638.1 1740.7 2619.8 1756.6 2480.6 1753.5 2435.8 1753.2 2436.9 1724.6 2439.2 1704.5 2438.3 1668.5 2436.8 1631.7 2547 1632.9 2547.1 1689.9 2617.8 1672.1 2616 1693.1 2806.2 1627.4 2878.4 1625.9 2878 1637.1 2999 1642.1 Z M 2815.8 1485.6 2819.8 1570.8 2821.6 1617.8 2790.2 1625.1 2789 1571.4 2763.5 1570 2760.9 1573.5 2759.2 1629.6 2729.9 1637.2 2728.4 1610.3 2729.5 1568 2760 1569.4 2760.3 1552.2 2766.4 1553.4 2771.4 1551.6 2772.5 1543.7 2773.1 1533.2 2779.8 1528.2 2790.7 1520.9 2793.3 1513.9 2794.2 1508.7 2798 1505.5 2806.5 1496.7 2815.8 1485.6 Z" data-holc_grade="D"/>
<path d="M 2434.6 1784.9 2435.8 1753.2 2480.6 1753.5 2479.6 1763.3 2481.1 1799.8 2497 1805.8 2498.9 1804.9 2507.4 1804.4 2526.1 1805.8 2527.6 1891.7 2573.1 1897.3 2574.6 1945.4 2525.8 1945.5 2438.6 1942.8 2437.2 1928.7 2434.6 1784.9 Z" data-holc_grade="D"/>
<path d="M 877 764.1 806.2 763.6 801.6 642.7 764.2 604.9 780.2 589.5 908.8 716 912.1 760.8 885.9 733.7 885.9 745.4 875.6 745.9 877 764.1 Z" data-holc_grade="D"/>
<path d="M 669.5 784.4 671.4 738.2 703.7 738.7 703.2 785.4 669.5 784.4 Z M 634.8 742.4 633.9 784.9 580.5 782.5 587 771.7 587.1 761 590.8 745.1 601.1 739.1 616.6 724.2 634.8 742.4 Z" data-holc_grade="D"/>
<path d="M 633 912.5 635.4 1031.5 584.1 1029.4 581.4 935.6 551.9 930.6 552.6 912.8 633 912.5 Z M 347.7 997 347.8 940.4 347.2 902.9 411.3 902.6 437.7 902.5 438.2 1027.4 348.2 1028.9 347.7 997 Z M 490.4 1030.8 454.5 1031.9 451.9 779.9 490.7 779.3 490.4 1030.8 Z" data-holc_grade="D"/>
<path d="M 172 830.4 256.9 828.9 260.1 912.3 303.9 914.1 304.5 942.1 347.8 940.4 347.7 997 173.4 997.9 172 830.4 Z M 172 830.4 163.6 832.1 161.7 920 153.3 921.1 151 948.5 73.4 945.1 71.8 914.8 43.7 911.4 43.7 895.2 22.9 895.7 2.7 874.9 1.7 827.9 34.3 828.5 33.2 779.2 46.7 778.1 47.9 730 77.2 726.7 86.8 687 136.2 682.6 99.8 636.6 112.8 584 170.7 585.2 172 830.4 Z" data-holc_grade="D"/>
<path d="M 207.5 1497.9 207.5 1494.8 205.9 1401.7 208.7 1380.7 193.6 1377.5 198.2 1363.5 254.1 1377.9 253.6 1469.3 293.7 1471.1 320.3 1506.2 321 1523.4 301.3 1523 301.4 1513.5 253.9 1513.5 252.9 1497.7 207.5 1497.9 Z M 254.6 1236.5 255.3 1275.7 297.8 1272.6 299.9 1289 255.6 1295.6 256.6 1346.1 228.8 1346.4 219 1343.2 203.2 1323.9 202.9 1310.3 176.2 1310.6 176.3 1224.8 208.3 1227.6 209.7 1235.7 254.6 1236.5 Z M 437.6 1181.1 440.7 1201 409.5 1185.2 409.1 1162.1 447.4 1161.8 447.1 1180.7 437.6 1181.1 Z M 46.7 1074.6 92.4 1093.4 99.1 1084 160.6 1117.1 161.9 1215.1 145.5 1215.4 145.3 1167 114.2 1166.3 117.2 1106.5 70.4 1105.6 68.5 1159.8 75.6 1159.6 75.5 1175.6 46.8 1175 46.7 1074.6 Z M 33.2 1122.1 6.8 1121.6 4.5 1121.5 4.7 1110.5 6.6 1025.4 6.7 1019.4 7.3 1019.8 21.6 1029.1 17.5 1038.7 37.7 1059.1 33.2 1122.1 Z M 269.9 1200.2 269.8 1197.3 214.3 1163.2 179.2 1138.3 178.7 1076.7 68.5 1021.3 76.9 1008 84.7 993.6 112.1 1005.6 119.1 995.1 169.3 1023.9 170 1051.5 192.1 1062.4 192.2 1035.8 246.2 1047.8 261 1055.9 260.6 1090.2 277.8 1097.9 279.2 1068.5 304.5 1083.6 321.7 1091 343.5 1087.1 349.5 1082.2 352.9 1161.4 320.6 1154.3 286.2 1139.9 251.1 1122.7 218.4 1106.6 217 1127.2 261.2 1147.9 290 1182.6 348.6 1220.5 350.3 1248.5 283.3 1206.8 269.9 1200.2 Z" data-holc_grade="D"/>
<path d="M 1149.9 1690.1 1151.4 1742.9 1106.8 1742 1108.3 1689.5 1149.9 1690.1 Z M 1305.2 1722.2 1302.6 1825.9 1288.2 1815.6 1273.3 1811.3 1259.5 1806.9 1251.3 1808.6 1251.6 1694.8 1299.1 1691.9 1302 1652.4 1344.2 1652.2 1347.1 1720.2 1305.2 1722.2 Z M 1162.9 1555.2 1162.3 1600.1 1113.9 1599 1113.3 1649.2 1058.5 1648.3 1058.6 1555.2 1162.9 1555.2 Z" data-holc_grade="D"/>
<path d="M 1672.6 1381.3 1670.5 1389.8 1302.1 1388 1303.5 1481.3 1277.3 1481.8 1279.6 1552.8 1231.8 1552.3 1229 1457.5 1182.1 1457.5 1181.6 1361.6 1207 1361.3 1222.9 1365.5 1252.9 1371.6 1273.5 1372.5 1292.7 1372.1 1305.4 1367.4 1481.6 1376.3 1483.5 1367.9 1674.3 1374.4 1672.6 1381.3 Z" data-holc_grade="D"/>
<path d="M 2283.1 1728 2279.4 1748.6 2246.6 1746.7 2246.1 1676.7 2268.6 1683.7 2284 1695.3 2288.3 1706.5 2283.1 1728 Z M 2107 1655.1 2111.2 1727.5 2046 1674.7 2044.6 1650.4 2107 1655.1 Z M 1869.6 1454.9 1958.2 1457.2 2010.7 1459.5 2028.5 1469.3 2031.4 1485.6 1959.6 1485.6 1961.5 1509.9 2005.1 1512.7 2004.7 1557.1 2029.5 1558.4 2032.9 1637.8 2023.5 1645.3 2018.3 1654.7 1995.8 1640.2 1959.7 1666.4 1912.4 1688.8 1911.5 1710.8 1873 1711.7 1869.6 1454.9 Z M 1891.2 1558.1 1971.4 1614.1 1970.5 1560.3 1891.2 1558.1 Z M 1851.8 1361 1857.1 1746.3 1770.4 1749.1 1767.1 1701 1677.5 1699.2 1677 1686.1 1657.8 1686.1 1627.3 1677.7 1601.6 1673 1602 1601.1 1624.5 1603.4 1624 1553.7 1674.8 1554.2 1671.5 1475.7 1673.3 1465.5 1670.5 1389.8 1681.2 1403.6 1721.8 1435.4 1758.4 1457.2 1761.8 1461.4 1796 1462.8 1812.4 1460 1812.3 1429.2 1815 1387.5 1816.6 1362 1851.8 1361 Z M 1719.6 1553.6 1743.8 1554.7 1746 1576 1768 1578.8 1770.2 1647.2 1795 1646.6 1796.6 1555.3 1832.6 1555.8 1832.6 1511 1719 1506 1719.6 1553.6 Z" data-holc_grade="D"/>
<path d="M 1786.3 1216.5 1771.1 1216.7 1701.9 1217.5 1650.9 1217.1 1651.3 1206 1696.3 1208.8 1720.5 1208.8 1746.5 1200.7 1786.3 1213 1786.3 1216.5 Z" data-holc_grade="D"/>
<path d="M 1678 2127.4 1678 2176.5 1678 2198 1663.5 2197 1663.4 2086.7 1678 2078.3 1678 2127.4 Z" data-holc_grade="D"/>
<path d="M 2108.3 1991.7 2157.1 1991.2 2157.1 2036.5 2131.3 2036.1 2131.3 2082.3 2155.3 2084.2 2156.7 2131.4 2110.7 2134.7 2108.3 1991.7 Z" data-holc_grade="D"/>
</g>
</svg>