<?xml version="1.0"?>
<svg xmlns="http://www.w3.org/2000/svg" version="1.2" baseProfile="tiny" width="3000" height="2410" viewBox="0 0 3000 2410" stroke-linecap="round" stroke-linejoin="round">
<g id="A">
<path d="M 701.9 1308.4 696.3 1312.5 695.1 1325.9 667.9 1341.4 662.3 1344.6 660.1 1344.3 638 1341.7 593.3 1338.4 580.4 1338.4 562.5 1336.1 542.2 1335.9 522.5 1333.6 507.2 1332.8 492.9 1334.4 488.4 1334.8 483.8 1338.1 480.3 1341.8 477.9 1348.4 471.7 1362.8 466.5 1369.4 461.1 1379.2 455.4 1388.7 447.8 1399.8 442.2 1409.7 434.9 1418.9 424.2 1432.9 414 1442.3 402.2 1448.9 394.6 1448.9 388.3 1447.5 382.7 1441.7 374.4 1432.4 366.1 1422.4 361.4 1412.9 358.3 1399.3 357.9 1391.7 359.6 1379.6 363.5 1368.1 366.6 1359.4 370.5 1351 378.3 1341.7 387.8 1328.4 402.7 1315.4 414.8 1306.4 419.5 1303.9 428.9 1299.7 432.7 1298 447.3 1292.4 460.8 1287.5 474.6 1288.7 489 1288.7 501.9 1289.8 516.6 1286.9 530.7 1282.4 542 1281.8 549.2 1287.5 553.5 1292.7 553.6 1298 555.3 1299.3 556.7 1298 557 1294.3 558.3 1287.3 560.3 1286.8 568.9 1286.9 587.7 1287.2 600.6 1289.8 608.8 1289.7 616.2 1289.7 624.3 1289.6 629.9 1290.1 635.9 1289.9 638.8 1289.1 640.9 1290.1 643.4 1290.9 649 1291.3 656.2 1292.9 666.5 1295.8 671.7 1298.1 679.5 1297.8 687.6 1301.5 692.2 1300.5 698.6 1306.9 702.2 1308.2 701.9 1308.4 Z M 498.4 955 585.7 956.1 586.4 956.1 585.9 964.5 678 967.3 678.2 992.4 679.6 1162.4 495.7 1163.8 495.9 1160 498.4 955 Z M 711.6 767.4 781.5 769.9 779.8 884.4 684.2 881.8 681.9 767.6 688 767.7 706.9 767.9 711.6 768 711.6 767.4 Z M 2402.7 611.9 2405 627.4 2403.8 721.2 2404 774.6 2400.5 774.6 2396.7 918.5 2208.3 847.5 2205.4 950.4 2006.7 953.7 2007.8 919.9 2008.9 865.7 2011.5 833.1 2013.7 813.5 2015.7 783.8 2001 682.9 2116.6 697.3 2115 701.1 2128.9 701.8 2151.9 698.6 2168.5 691.5 2180.3 685 2199.1 673.8 2235.2 651.4 2250.9 642.6 2272 630.7 2290.3 624.1 2311.6 617.9 2334.7 612.8 2354 610.9 2378.9 611.1 2386.9 612.1 2402.7 611.9 Z" data-holc_grade="A"/>
</g>
<g id="B">
<path d="M 1282.9 1923.8 1156.1 1926.5 1158.3 1854.1 1158.7 1842.5 1159 1809.9 1283.4 1807.2 1282.9 1923.8 Z M 1062.3 1548.5 1063.2 1714.7 1051.8 1713.7 1032 1708.5 1020.8 1711.5 1002.9 1713.9 989.3 1713.2 979.6 1712.4 965.8 1705.6 998.6 1652.3 1062.3 1548.5 Z M 1553.2 1510.3 1552.8 1507.9 1544.8 1507.1 1535.6 1508.7 1531.7 1512.4 1526.7 1518.9 1525.8 1526.3 1525 1536.1 1522.3 1550.6 1202.7 1556 1204.2 1728.2 1132.1 1729.4 1132 1551 1161.1 1551 1164 1523.5 1201.1 1523.2 1227.1 1523 1404.7 1521.4 1403.6 1452.4 1414 1402.8 1413.2 1402.3 1413.6 1400.4 1416.3 1402.6 1424.7 1405.2 1433 1408.3 1440.3 1411.5 1447.4 1412.9 1460.8 1416.3 1467.6 1420.2 1472.5 1426.7 1476.3 1433 1481.8 1438.3 1488.5 1440.6 1492.7 1443.5 1499.4 1451.3 1503.3 1453.2 1508.5 1455.1 1510.3 1460.2 1515.5 1463.5 1521.1 1466.9 1525.3 1468.9 1528.4 1473.3 1531 1476.3 1536.3 1477.7 1541.6 1479.4 1544.6 1478.6 1551.2 1480.8 1555.6 1481.8 1558.3 1485.1 1558.1 1488.3 1558 1493 1558 1497 1561.1 1499.4 1564.8 1503 1566.6 1505.3 1565.3 1509 1563.5 1509.1 1560.7 1509 1558.7 1511 1554.3 1511 1553.2 1510.3 Z M 1004.6 1389.1 1004.7 1424.6 1007.9 1424.4 1008 1478.6 891.2 1478.8 891.5 1532 890.6 1537.5 887.3 1543.2 884.2 1545.5 803.2 1547.3 803.3 1645.4 806.1 1729.9 762.3 1728.6 759.2 1721.3 758 1706.5 758 1683 759.2 1663.4 757.7 1429.7 782.1 1429.7 780 1365 777 1358.6 755.8 1357.6 716.6 1356.3 684.1 1355.2 679.7 1353.7 675.4 1354.4 674.4 1355 670.6 1357.7 667.6 1361.5 667.3 1366.4 667.8 1367.4 670.5 1373.2 673.3 1383.1 675 1393.6 674.5 1400.9 671.8 1411.6 666.4 1415.6 658.2 1423 648.7 1428.9 640.5 1433.4 634.3 1433.4 629.1 1430.3 623.6 1426.6 615.9 1417.7 610 1411.2 607.4 1398.2 607.7 1386.7 614.2 1376.2 620.6 1366.4 625.9 1360 633.7 1354.6 644.6 1351.6 655.4 1350.7 660.1 1344.3 662.3 1344.6 667.9 1341.4 695.1 1325.9 696.3 1312.5 701.9 1308.4 703.5 1309.2 704.9 1314.6 703.9 1320.7 704.7 1323.4 706.8 1321 710.2 1317.9 714.6 1314.2 718 1312.9 723.1 1315.1 729.2 1318.4 736.1 1323.2 743.4 1328.4 748.7 1329.4 756.8 1330.2 767.8 1331.3 773.7 1332.5 779.1 1336.2 790.1 1342.8 801.3 1345.7 811.1 1349.4 823.9 1355.8 845.6 1364 858.6 1365.4 866.2 1365.7 878 1370.4 882.7 1370.3 885.6 1371.4 890.9 1370.7 896.2 1370.9 901.6 1371.4 903.6 1375.7 906.4 1377.9 911.2 1380.1 920 1380 926.2 1381 931.8 1380.2 939.4 1380.3 947.1 1381.7 950.2 1383.2 957 1383.6 964.4 1385.7 968.8 1387.3 978.4 1386.4 986.9 1385.6 992.7 1387.2 998.7 1388.3 1004.6 1387.6 1004.6 1389.1 Z M 1303.1 979 1652.9 975.8 1651.7 1063.6 1518.4 1067.3 1446.5 1068.8 1449.2 1245.6 1287.6 1246.5 1287.1 1176.3 1341.9 1175.1 1341.4 1056 1303.5 1052.1 1303.1 979 Z M 2228.5 979.8 2223.1 981.9 2216.3 981.1 2211.6 987 2079.3 987.5 1959.7 987.9 1960.7 954.4 2006.7 953.7 2205.4 950.4 2208.3 847.5 2396.7 918.5 2400.5 774.6 2404 774.6 2678.7 775.3 2678.7 777.7 2678.1 863.6 2820.8 866.1 2821.3 866.1 2820.4 970.7 2990.6 973.7 2992.1 1202.3 2991.1 1238.5 2915.3 1205 2896.1 1201.5 2881.4 1197.5 2868.4 1191.8 2859.9 1182.6 2853.1 1178.6 2839.8 1175.5 2836.8 1172 2836.8 1157.9 2825.7 1146.4 2811.4 1143.3 2796.4 1129.2 2769.4 1116.9 2733 1104.1 2718.6 1099.7 2707.9 1099.3 2693.9 1105.9 2677.7 1129.3 2647.1 1113.4 2631.1 1091.4 2626.2 1075.5 2623.2 1012.8 2407.5 933.9 2393.5 933.1 2380.4 923.8 2370.4 923.2 2228.5 979.8 Z M 1822.2 709.3 1821.5 709.1 1837.9 749.2 1839.4 858.1 1839.4 952.2 1353 950.7 1353.7 891.9 1646.7 897.2 1648.5 774.3 1670.2 773.9 1675 709.6 1673.8 709.6 1673.8 709.4 1720.8 706.7 1758.6 706.4 1770.2 701.6 1781.9 696.4 1792.5 692.7 1801.4 691.4 1807.3 692.3 1812.4 695.2 1816.6 698.2 1820.1 704.1 1822.2 709.3 Z M 681.9 767.6 684.2 881.8 779.8 884.4 781.5 769.9 711.6 767.4 710.3 718.9 766.1 719.1 766.7 670.8 800.5 670.9 802.7 580.3 880.2 580.5 876.9 770.3 918.2 769.6 921.9 582.4 1018.7 582.6 1060.9 582.3 1061.2 600 1064.3 600 1059.1 865.5 1057.4 866.5 1057.2 865.5 966.4 866.2 962.8 1062.9 984.4 1049 998.7 1043.2 1007.6 1043.9 1011.9 1054.2 1012.4 1066.6 1013.2 1091.1 1055.2 1089.3 1053.9 1184 1048.5 1194.2 1032.1 1200.4 1005.6 1208.5 1005.6 1207.8 998.5 1208.3 992.5 1208.3 986.8 1208.1 979.5 1204.8 973.1 1201 965.2 1194.5 962.6 1188.9 961.1 1188.9 949.2 1168.8 779.4 1165.3 780.8 966.9 678 967 678 967.3 585.9 964.5 586.4 956.1 585.7 956.1 586.3 833.3 499.9 834.1 499.9 832.9 501.7 678.9 507.6 666.3 522.6 647.8 534.3 638.9 551.6 630 565.7 623.5 574.9 615.1 581.8 604.1 587.6 584.2 589.2 574.8 693 575.1 690.4 682.1 604 679.7 600 766.7 681.9 767.6 Z M 1101.6 553.7 1101.1 553.7 1095.1 544 1089.2 536.3 1083.5 531.2 1077.9 526.4 1068.6 528 1058 528 1050.4 525.7 1039.7 528.9 1032.4 530.2 1023.8 530.8 1022.7 449.2 1022.8 449.2 1114.3 446.7 1116.2 554.3 1101.6 553.7 Z" data-holc_grade="B"/>
</g>
<g id="C">
<path d="M 674.4 1273.6 674.4 1274 673.5 1273.5 674.4 1273.6 Z M 1413.2 1402.3 1414 1402.8 1403.6 1452.4 1404.7 1521.4 1227.1 1523 1201.1 1523.2 1164 1523.5 1161.1 1551 1132 1551 1132.1 1729.4 1204.2 1728.2 1202.7 1556 1522.3 1550.6 1525 1536.1 1525.8 1526.3 1526.7 1518.9 1531.7 1512.4 1535.6 1508.7 1544.8 1507.1 1552.8 1507.9 1553.2 1510.3 1553.7 1512.5 1558.7 1513.5 1566.3 1512.5 1573.4 1510.6 1569.1 1503.9 1564 1491.9 1557.1 1477.9 1553.1 1476.9 1545 1473 1549.5 1465.9 1545.2 1450.7 1545.3 1466.4 1539.4 1467.9 1535.4 1458.3 1539.2 1446 1538.5 1439.1 1541.9 1428.6 1550.6 1422.5 1558.9 1417.3 1587.2 1447.6 1592.8 1451.4 1608.7 1452.5 1629.3 1467.9 1633 1556.1 1636.1 2097.8 1660.2 2097.9 1734.5 2104.4 1748.4 2119.1 1757.4 2108 1842.7 2108.3 1853.6 2318.9 1757.5 2318.4 1744.8 2167.7 1748.5 2165.8 1746.8 2142.7 1725.8 2119.4 1638.5 2121 1636.3 2307.9 558 2303.2 542.6 2408.6 58.7 2407.7 75.5 2147.5 1 2086.5 1.8 1703 15.2 1703.8 33.1 1694.7 44 1689.1 54.3 1685.1 63.6 1677.3 68.1 1673.1 70.2 1674.6 73.7 1680.7 76.4 1676.6 76.4 1656 77.5 1641.5 92 1612.5 115 1599.6 160.3 1540.2 175.3 1516.4 195.6 1497.3 224.2 1465.5 236.7 1455.1 239.2 1455.1 255.9 1439 264.7 1423.3 270.4 1406.5 272.8 1394.8 282.2 1385.2 285.5 1373.9 287 1358.7 291.8 1352.3 302.7 1347.4 309.4 1343.5 316.5 1331.2 323.3 1330 330 1323.4 340.7 1316.8 354.8 1314.1 364.8 1311.6 375.5 1307.7 381.8 1307.2 392.5 1307.2 398.3 1303.3 409.3 1305 428.9 1299.7 419.5 1303.9 414.8 1306.4 402.7 1315.4 387.8 1328.4 378.3 1341.7 370.5 1351 366.6 1359.4 363.5 1368.1 359.6 1379.6 357.9 1391.7 358.3 1399.3 361.4 1412.9 366.1 1422.4 374.4 1432.4 382.7 1441.7 388.3 1447.5 394.6 1448.9 402.2 1448.9 414 1442.3 424.2 1432.9 434.9 1418.9 442.2 1409.7 447.8 1399.8 455.4 1388.7 461.1 1379.2 466.5 1369.4 471.7 1362.8 477.9 1348.4 480.3 1341.8 483.8 1338.1 488.4 1334.8 492.9 1334.4 507.2 1332.8 522.5 1333.6 542.2 1335.9 562.5 1336.1 580.4 1338.4 593.3 1338.4 638 1341.7 660.1 1344.3 655.4 1350.7 644.6 1351.6 633.7 1354.6 625.9 1360 620.6 1366.4 614.2 1376.2 607.7 1386.7 607.4 1398.2 610 1411.2 615.9 1417.7 623.6 1426.6 629.1 1430.3 634.3 1433.4 640.5 1433.4 648.7 1428.9 658.2 1423 666.4 1415.6 671.8 1411.6 674.5 1400.9 675 1393.6 673.3 1383.1 670.5 1373.2 667.8 1367.4 667.3 1366.4 667.6 1361.5 670.6 1357.7 674.4 1355 675.4 1354.4 679.7 1353.7 684.1 1355.2 716.6 1356.3 755.8 1357.6 777 1358.6 780 1365 782.1 1429.7 757.7 1429.7 759.2 1663.4 758 1683 758 1706.5 759.2 1721.3 762.3 1728.6 806.1 1729.9 803.3 1645.4 803.2 1547.3 884.2 1545.5 887.3 1543.2 890.6 1537.5 891.5 1532 891.2 1478.8 1008 1478.6 1007.9 1424.4 1004.7 1424.6 1004.6 1389.1 1010.3 1386.9 1024.2 1379.4 1036.1 1369.2 1038.3 1359.6 1044.1 1345.3 1044.8 1333.5 1046.6 1323.5 1043.4 1304.8 1045.7 1297.2 1047.4 1281.8 1048.8 1271 1048.1 1265.6 1045.4 1257 1044.7 1246.2 1042.5 1234.6 1042.1 1225.8 1048.7 1214.2 1058.9 1211.4 1071 1210.7 1081.4 1209.3 1094.3 1212.7 1104.6 1214.6 1115.5 1214.8 1126.5 1211.3 1133.2 1205.5 1141.2 1198.6 1148.8 1196.8 1156 1197.4 1156.9 1201.3 1150.7 1207.2 1146.1 1210.5 1142.9 1218.2 1139.1 1232.2 1139.1 1247.9 1138 1257.2 1133.3 1264.6 1131.1 1271.7 1132.2 1286.2 1137.8 1303.4 1145.4 1311 1159 1316.9 1176.7 1321.3 1184.9 1321.8 1201.3 1315.9 1211.7 1307.6 1216 1300.9 1219.3 1294.6 1225.8 1284 1232.3 1283.5 1245 1285.7 1256.7 1294.1 1269 1302.9 1279.2 1313.5 1289.8 1324.5 1299.6 1331.1 1305.1 1332.3 1310 1344.7 1313.1 1352.7 1320.5 1356.8 1326.3 1359.9 1331.5 1367.5 1337.1 1369.3 1343.2 1370.9 1349.7 1374.8 1358.8 1376 1370.2 1383.2 1377.2 1384 1385.1 1386 1391.2 1391.2 1395.7 1393.9 1408.2 1399.2 1413.2 1402.3 Z M 1062.3 1548.5 998.6 1652.3 965.8 1705.6 979.6 1712.4 989.3 1713.2 1002.9 1713.9 1020.8 1711.5 1032 1708.5 1051.8 1713.7 1063.2 1714.7 1062.3 1548.5 Z M 1282.9 1923.8 1283.4 1807.2 1159 1809.9 1158.7 1842.5 1158.3 1854.1 1156.1 1926.5 1282.9 1923.8 Z M 1116.5 1040.5 1144.8 1076.6 1142.6 1191.5 1138.9 1193.7 1134.3 1197.5 1127.6 1202 1120.8 1204.5 1113.5 1206.8 1105.2 1208.7 1096.4 1208.3 1089.9 1207.2 1083.9 1206.2 1084.1 1204.1 1087.3 1101 1084.9 1042.4 1116.5 1040.5 Z M 2228.5 979.8 2226 988.1 2225.5 996.2 2232.6 1009.3 2241.9 1030.2 2252.8 1051.1 2255.4 1065.6 2251.8 1076.8 2244.5 1085.5 2236.4 1090.3 2222.2 1096.1 2218.4 1097.7 2224.9 1298.9 2083.4 1300.6 2082 1209 2203.8 1206.4 2202.1 1137.6 2057.3 1140.5 1948.2 1087.5 1949.7 1085.1 1951.5 1077.2 1951.8 1074.7 2056.9 1119.5 2205.4 1119.6 2205.6 1097.7 2199.5 1100.3 2195.2 1102.9 2190 1106.1 2185.7 1109 2180 1108.7 2172.5 1108.4 2168.4 1107.7 2162.7 1110 2155.4 1108 2148.5 1104.2 2145.7 1096.5 2145 1089.4 2145.2 1083 2135.7 1075.9 2130.5 1074.6 2126.5 1070.8 2122 1062.4 2122 1055.3 2119.6 1049.9 2113.2 1048.6 2110.1 1049.2 2104.2 1054.4 2099.5 1056.6 2092.1 1057 2087.6 1051.5 2085.9 1011 2078.8 1010.7 2079.3 987.5 2211.6 987 2216.3 981.1 2223.1 981.9 2228.5 979.8 Z M 1500.7 1346.5 1444.1 1346.6 1379.2 1345.4 1337.5 1346.2 1325.2 1345.8 1318 1343.7 1316.1 1339.6 1313.6 1332.2 1307 1324 1293.3 1308.6 1274.1 1294 1258.9 1284.3 1249.5 1280.4 1240.1 1275.4 1228.4 1278.5 1220.1 1284.7 1212.3 1295.2 1204.1 1305.3 1198.7 1309 1187.5 1312.7 1174 1312.9 1163.5 1311.2 1156.5 1306.7 1149.8 1303.4 1142.6 1296 1139.5 1290.2 1138.5 1279.7 1139.1 1267.8 1140.4 1264.1 1143.5 1259.2 1143.9 1255.1 1144.7 1248.4 1144.1 1239.1 1144.1 1227.9 1146.5 1221.7 1150.2 1214.7 1155.9 1208.2 1163.6 1203.9 1168.8 1201.2 1174.8 1202.5 1178.6 1201.6 1184.3 1197.9 1188.8 1195.4 1195.5 1189.5 1198.1 1187.2 1198.4 1177.9 1200.2 1168.9 1201.3 1158.6 1201.3 1148.1 1201.3 1138.6 1198.7 1126.7 1197.7 1115.4 1187.2 1094.4 1182.6 1085.6 1176.3 1076.9 1169.6 1064.4 1162.9 1058.4 1156.7 1056.8 1151.3 1049.8 1141.4 1042.6 1135.5 1031.7 1131.1 1024.5 1128.1 1014.2 1124.3 1009 1123.4 1003.7 1122.6 997.7 1123.4 990.1 1123.2 982.3 1124 976.1 1303.1 978.9 1303.1 979 1303.5 1052.1 1341.4 1056 1341.9 1175.1 1287.1 1176.3 1287.6 1246.5 1449.2 1245.6 1446.5 1068.8 1518.4 1067.3 1651.7 1063.6 1652.9 975.8 1652.9 972.3 1785.3 970.8 1788.9 1028.6 1787.5 1062.6 1666.5 1063.4 1665.5 1124.9 1581.4 1124.6 1583 1190.7 1526.4 1198 1524.7 1315.5 1500.7 1346.5 Z M 1055.2 1089.3 1013.2 1091.1 1012.4 1066.6 1011.9 1054.2 1007.6 1043.9 998.7 1043.2 984.4 1049 962.8 1062.9 966.4 866.2 1057.2 865.5 1057.4 866.5 1058.9 875.3 1059.4 939.7 1042.7 943.4 1041.3 1029.3 1054.2 1030.4 1055.6 1089.3 1055.2 1089.3 Z M 2820.8 866.1 2678.1 863.6 2678.7 777.7 2809.9 770.7 2812.7 622.3 2405 627.4 2402.7 611.9 2401.5 604 2813.3 604.3 2813.3 576.6 2911.9 566.9 2950.7 568.6 2953.8 587 2999 587.4 2996.1 614.4 2953.2 614.8 2953.2 639.1 2827.6 648.5 2825.4 771.2 2938.3 767.6 2939.8 863.7 2820.6 863.8 2820.8 866.1 Z M 822.1 425.5 821.6 577.5 833.6 577.7 834.7 565.6 852 560.5 926.8 558.4 1000.3 555.4 1008.6 559.3 1008 540.1 1017.3 542.1 1026.8 542.7 1032.6 540.9 1037.6 537.2 1047.2 535.8 1062.6 534.8 1069.1 535.5 1078.1 538.8 1085.7 547.2 1092.6 558.3 1100.5 576.7 1101.8 588.4 1102.6 598.5 1102.6 600.1 1076.9 600.7 1068.4 600.1 1064.3 600 1061.2 600 1060.9 582.3 1018.7 582.6 921.9 582.4 918.2 769.6 876.9 770.3 880.2 580.5 802.7 580.3 800.5 670.9 766.7 670.8 766.1 719.1 710.3 718.9 711.6 767.4 711.6 768 706.9 767.9 688 767.7 681.9 767.6 600 766.7 604 679.7 690.4 682.1 693 575.1 589.2 574.8 587.6 584.2 581.8 604.1 574.9 615.1 565.7 623.5 551.6 630 534.3 638.9 522.6 647.8 507.6 666.3 501.7 678.9 499.9 832.9 499.9 834.1 498.4 955 495.9 1160 495.7 1163.8 679.6 1162.4 678.2 992.4 678 967.3 678 967 780.8 966.9 779.4 1165.3 949.2 1168.8 961.1 1188.9 948.7 1188.7 925 1188.4 842 1187.7 783.1 1188.8 677.9 1186.4 677.9 1186.9 673.6 1186.8 672.9 1273.1 669.8 1271.3 664.3 1270.8 656.4 1270.1 645.8 1269.6 639.8 1267.1 631.6 1265 622.4 1265 617.5 1265.3 607.4 1265.4 579.1 1263.9 550.8 1265 546.7 1266 526.5 1266 512.5 1267.5 503 1268.6 496.3 1268.6 489 1267.1 482.9 1269.2 474.5 1269.2 467.6 1271.2 459.3 1271.6 448.1 1273.6 438.9 1275.2 426.8 1276 420.5 1277.4 407.3 1287.6 374.3 1286.7 364.2 1287.9 358.3 1290.3 347.7 1296.7 336.2 1302.9 320.2 1311.6 314.3 1312 312.6 1311.6 312.4 1313.8 303.2 1319.3 291.3 1327.3 281.6 1336.8 275.1 1344.9 271.6 1344.9 271.1 1349.2 273.2 1352.9 268.7 1352.9 267.3 1355.8 267.6 1362 267.3 1366.8 260.5 1375.2 256.1 1380.8 252.2 1381.3 248.9 1380.1 245.7 1382.9 245.4 1393 245.8 1398.7 241.3 1406 237.9 1410.2 230.3 1419.1 226 1426.1 224.5 1431.6 215.2 1438.4 210 1443.1 199.9 1450.9 193.8 1457.5 189.9 1463.6 182.6 1467.1 175.6 1478.9 171.1 1484 167.7 1491.3 161.3 1500.6 153.3 1508.8 149.6 1517.5 143 1524.1 134.9 1536.4 124.8 1546.7 125.8 1548.4 121.3 1554.1 108.8 1565.9 96.5 1571.5 95.3 1577.9 90.2 1583.2 81.4 1588.3 72.3 1593.8 60.1 1600.9 52.5 1607.7 51 1611 50.6 1615.4 54.8 1617.8 58.7 1621.3 54.4 1626.7 44.4 1632.3 30.2 1646.6 21.4 1652.6 16.1 1659.2 7.4 1666.7 2.8 1667.8 4.9 1545.4 4.8 1022.5 13.7 491.7 25.9 477.4 31.4 469.4 42 455.2 49.6 454.8 57.3 457.9 66.1 462.6 80.8 464.7 91.8 461.2 108.4 453.7 124.3 444.1 137.4 436.4 152.4 428.7 165.5 424.5 179.5 421.7 188.4 430.1 194.7 432.9 201.6 433.4 208.4 441.6 218.3 447.5 227.8 451.9 242.1 458.3 250.5 461.1 259.8 458.3 266 459.5 275.6 461.6 286.7 461.6 296.3 458.6 306.9 457.4 319.7 455.9 329.2 455.3 343.7 450.8 347.2 449.3 358.8 448.6 376.3 446.1 383.1 444.6 396.8 436.6 413.8 431.1 423 433.3 435.4 438.4 449.1 440.3 464.7 437.7 475 435.9 486.3 426 496.8 408.5 503 394.9 506.5 390.6 519.5 380.3 530 370.8 535.7 362.4 549.1 360.2 557.4 359 566.9 347.1 574 341.9 581.9 336.8 589.3 333.3 602.4 330.2 608.1 332.3 611.1 340.8 618.3 340.5 632.8 334.1 653.3 325.8 676.7 313.9 692.6 316.8 699.4 321 706.8 325.1 713.5 330.1 718.4 337 725.2 344.8 731.5 354.7 739.4 365.2 751 378.4 777.6 399.9 794.8 411.7 807.9 419.1 822.1 425.5 Z M 1673.8 709.6 1675 709.6 1670.2 773.9 1648.5 774.3 1422.2 778.9 1421.3 809.4 1354.7 808.6 1353.7 891.9 1353 950.7 1353 951.4 1244.7 950.7 1246.2 886.7 1246.7 823.9 1245.5 778.9 1171.2 781.3 1174 602.6 1112.1 602.3 1111.7 601 1112 592.3 1111.4 584.8 1109.6 574.8 1107 567.7 1102.9 557.1 1101.6 553.7 1116.2 554.3 1114.3 446.7 1022.8 449.2 1021.3 447.6 979.8 449.5 912.9 447.2 907 442.3 896.9 435.1 887.6 431.1 879.9 426.8 860.2 420.6 850.3 415.7 833.7 412.4 827.6 409.1 816.5 405.4 812.8 402.5 797.9 396.3 784.7 387.9 773.2 376 761.5 360.7 740.6 332.8 726.8 310.3 714.7 293.7 703.7 280.9 694.1 270.2 686.9 261.4 676.1 251.5 665 252.3 654.3 254.6 648.2 258 644.6 259.3 640.3 268.9 638.9 281.9 638 288.9 632.7 294 629.8 291.2 626.7 297.5 620 304.9 613 309.7 604.1 311.9 602.2 315 599.5 315.8 595.7 312.1 596.6 309.2 591.5 310.5 586.3 311.7 575.9 317.5 569.9 322.4 557.3 329.4 552.3 338.1 541.2 345.2 534.3 352.9 531.5 351.9 526 362.8 513.2 372.2 499.5 385.7 491.9 391.1 487.9 403 477.7 412.3 467.2 422.3 457.1 427.4 450.9 431.9 442.8 433.8 435 433.5 426.5 428.7 418.9 425.5 403.8 427.1 391.4 431.9 383.9 432.8 375.6 438 363 439.5 349.6 440.5 336 443.5 316 447.5 307.1 449.5 297.8 451 287.8 452 279.5 451.3 269.1 451.4 251.1 450.5 239.9 446.6 233.6 446.2 226.1 441.9 217.1 438.6 210.5 432.9 179.7 412 171.2 412.6 161.2 415.5 147.7 422.1 140 422.7 133.6 426.8 125.3 427.2 115.1 430.9 110.9 434.4 102.2 437.2 91.5 445.1 83.6 448.8 72.2 449.6 58.4 446.9 47.5 442.5 37.1 434.5 36.6 417.8 34.7 412 40.4 398.5 40.4 394.9 34.8 393.7 28.8 391.1 25.5 380.2 27 370.2 20.3 360.9 19.4 353.5 19.2 347.4 15.2 338.7 21 41.3 46.1 9.4 161.7 1 169.7 13.6 1258.3 11.5 1260.5 195.8 1448.9 199.4 1451.8 284.2 1455.5 285.7 1492 258.8 1639 267.3 1638.7 386.7 1646.9 553.4 1649.1 710.1 1673.8 709.6 Z M 1311.9 373.4 1257.1 456 1257.9 472 1222.7 473.5 1225.6 601.6 1238.2 602.6 1238.6 701.5 1279.7 701.4 1308.3 701.2 1307.4 607.7 1324.9 604.2 1320.9 406.5 1453.5 289.5 1419.4 252.6 1352.9 285 1311.9 373.4 Z" data-holc_grade="C"/>
</g>
<g id="D">
<path d="M 961.1 1188.9 962.6 1188.9 965.2 1194.5 973.1 1201 979.5 1204.8 986.8 1208.1 992.5 1208.3 998.5 1208.3 1005.6 1207.8 1005.6 1208.5 1003.3 1271 987.4 1271.3 978.8 1277.8 971.7 1278.7 969.2 1275.5 965 1272.4 968.1 1265.4 977.8 1264.9 994.9 1264.9 996.9 1263.5 998.5 1243.2 780.6 1242.6 777.6 1316.4 774.4 1317.3 771.4 1316.3 764.8 1311.2 755.6 1303.2 747.9 1298.3 731.3 1290.1 721.4 1286.9 715 1283.3 708.7 1281.5 703.5 1279.9 697.7 1277.2 691.7 1277.5 685.9 1275.2 681.4 1273.9 676.8 1273.8 674.4 1273.6 673.5 1273.5 672.9 1273.4 672.9 1273.1 673.6 1186.8 677.9 1186.9 677.9 1186.4 783.1 1188.8 842 1187.7 925 1188.4 948.7 1188.7 961.1 1188.9 Z M 1142.6 1191.5 1144.8 1076.6 1116.5 1040.5 1105 1025.8 1105.1 1000.7 1114.7 1000.4 1115.3 1008.7 1119.3 1015.2 1119.3 1024.8 1121.4 1026.9 1123.3 1031.8 1126.6 1034.5 1130.1 1043.8 1138.9 1050.8 1138.6 1053.1 1141.4 1055.6 1146.2 1059.4 1149.5 1065.2 1153.8 1067.5 1157.9 1072.6 1163.3 1079 1168 1083.2 1174 1088.3 1174.5 1095.6 1176.9 1096.1 1177.7 1099.1 1180 1100.1 1180.8 1104.8 1184 1112.7 1187.7 1121.5 1188.4 1128.3 1190.3 1134.1 1192.3 1139.4 1191.6 1148.2 1193.8 1155.1 1193.8 1159.4 1190.2 1165.3 1190.7 1171.9 1188.7 1179.1 1185.5 1184.6 1180.7 1188.6 1174.9 1190.7 1166.2 1191.6 1157.5 1192.1 1146.9 1191.3 1142.6 1191.8 1142.6 1191.5 Z M 1951.5 1077.2 1949.7 1085.1 1948.7 1086.7 1948.4 1087.2 1944.1 1088.2 1938.5 1085.7 1934.5 1082.8 1930.5 1081.2 1926.5 1080.8 1924.3 1083 1922.3 1085.7 1920.3 1093.4 1919.9 1099.8 1922.6 1104.2 1927.1 1109.4 1931.3 1114.4 1935.9 1118.9 1940.3 1122.9 1943.8 1126 1947.5 1128.8 1949.5 1131.7 1950.7 1136.9 1949.7 1139.4 1946.3 1141.2 1941.5 1142.1 1937.5 1142.7 1934 1142.7 1928.1 1142.7 1923.6 1143.7 1919.4 1145.3 1919 1148 1917.5 1153.6 1918.4 1157.5 1920.4 1161.3 1922.1 1170.1 1921 1174.4 1917.9 1178.1 1913.4 1178.2 1906.4 1175.3 1900.1 1169.3 1896.5 1163 1892.7 1155.1 1889.7 1152.4 1885.1 1151 1882.4 1151.3 1880.3 1157.5 1879.6 1161.9 1880.7 1169.4 1882.1 1173.5 1883.7 1179.8 1883.7 1183.4 1881.9 1186.3 1876.4 1189.2 1871 1187.6 1866.1 1183.6 1861.2 1181.7 1855.5 1180.4 1853.1 1184.7 1851 1191 1847.9 1200.2 1844.9 1202.4 1838.7 1201.7 1834.6 1202.1 1832.1 1205.1 1831.9 1208.3 1833.5 1210.8 1836.3 1213 1837.4 1215.5 1837.2 1219.1 1835.4 1221 1834.4 1224.4 1833.9 1226.2 1834.6 1229.3 1835.6 1230.2 1838.3 1230.9 1840.1 1231 1843.3 1231.5 1847.3 1231.4 1850.4 1230.9 1853 1231.7 1854.5 1232.6 1855.3 1234.4 1855.4 1235.8 1855.1 1243.3 1854 1248.8 1853.5 1253 1851.9 1257.2 1849.7 1260.6 1846.8 1262.1 1844.1 1262.3 1841.6 1262 1837.3 1257.3 1834 1252.8 1830.7 1250 1825.5 1246.2 1821.6 1243.6 1819.2 1241.1 1815.9 1240.7 1811.9 1240.7 1808.4 1244.2 1806.1 1246.6 1804.3 1249.9 1802.4 1250.9 1798.3 1250.6 1796.1 1248.5 1796.4 1245 1797.9 1242.2 1799.6 1238.7 1801.5 1236.5 1803.8 1232.9 1805.5 1229.6 1806.1 1227.1 1805.8 1224.5 1803.8 1222.8 1801.4 1222.8 1798.8 1224.1 1795.2 1226.6 1793.6 1228.9 1793.1 1231.4 1793.1 1233.2 1792.8 1234.8 1792 1237.8 1791.1 1240.8 1787.6 1246.3 1785.5 1249 1780.3 1253.1 1775.3 1254.9 1768.4 1261 1767 1265.6 1763.1 1269.3 1760.9 1273.4 1756.4 1277.7 1750.9 1280.8 1746 1280.6 1740.9 1273.1 1738.3 1267.6 1734.8 1262.3 1731.7 1261.5 1725 1263.2 1721.8 1267.2 1720 1272 1719.9 1276.7 1721.5 1282.9 1724.8 1288.5 1726.7 1295.5 1726.7 1298.8 1723.4 1308.2 1721.4 1315.1 1719.9 1320.5 1718.3 1324.3 1719.2 1327.5 1723.8 1328.6 1728.7 1330.2 1734.4 1328.8 1739 1328.8 1744 1329 1746.2 1330.1 1748.7 1336.4 1748.7 1338.7 1747.9 1344.7 1746.4 1346.9 1536.7 1345.3 1500.4 1346.9 1500.7 1346.5 1524.7 1315.5 1526.4 1198 1583 1190.7 1581.4 1124.6 1665.5 1124.9 1666.5 1063.4 1787.5 1062.6 1788.9 1028.6 1785.3 970.8 1785.2 970 1820.6 982.2 1959.8 983.3 1958.9 1029.3 1969.4 1029.9 1967.1 1060.7 1955.4 1061.2 1954 1069.7 1952.5 1071 1951.8 1074.6 1951.6 1075.9 1951.5 1077.2 Z M 1839.4 952.2 1839.4 858.1 1837.9 749.2 1821.5 709.1 1822.2 709.3 1837.1 713 1851.8 719.8 1873.3 723.3 1866.1 664.1 1905.3 669 1911.9 711.6 1917.6 743.7 1922.2 763 1926.1 773.8 1924.6 801.7 1922.8 858 1922.5 906.2 1924.7 952.7 1839.4 955.4 1839.4 952.2 Z M 1128.4 865.9 1129.2 868.3 1126.1 868 1124.4 866.2 1082.8 866.4 1081.9 619.1 1089.7 606.2 1101.8 606.1 1103.4 613 1104.6 623.2 1105.8 629.3 1109.3 638.4 1112.9 642 1116.2 648.3 1116.5 655.5 1114.9 661.8 1114.3 671 1115.8 678 1116 684.3 1111.1 695.8 1106.3 706.3 1106.1 709.1 1106.1 712.2 1105.6 715.4 1105.4 722.9 1107.3 729.2 1107.3 733.7 1107.3 736.7 1106.3 741.9 1106.6 746.8 1108 751.2 1109.7 756.6 1111 760.4 1113.4 770 1115.4 775.8 1118.7 784 1121.6 792.9 1126.5 806 1130.1 816.6 1133 828 1134.9 840.9 1134.4 848.9 1132.8 855.6 1130.6 861.3 1128.4 865.9 Z M 1244.7 950.7 1244.7 952.1 1130.2 950.4 1139.9 934 1140.6 888.9 1140.8 881.4 1141 869.9 1142.7 862.4 1144.2 855.4 1145.3 849.8 1146.5 843.3 1146.9 838.1 1145.4 834.5 1146.2 830.1 1144.4 826.8 1143.9 822 1139.7 817.2 1139.4 812.5 1137.4 809 1137.6 804.7 1136.7 798.8 1135.4 795.8 1133.8 790.4 1131.1 781.6 1131 776.3 1130.8 772.4 1130.3 768.8 1128.4 763.4 1127.2 758.9 1125.6 755.4 1124.3 753.5 1122.2 751.4 1122.2 750.3 1122.1 747.4 1122.3 744.2 1121 741.3 1120.3 738.2 1120.5 736.3 1120.7 732.4 1120 728.5 1119.4 725 1119 720.4 1118 717.1 1119.4 715.8 1120.4 713.9 1120.8 710.8 1122.1 704.2 1123.8 700.3 1125.4 697.3 1127 694.5 1128.2 692 1129.1 690 1128.7 687.2 1128.4 684.3 1128.3 682.1 1128.2 680 1129.2 677.9 1130.5 675.2 1132.1 672.1 1132.2 668.1 1132.4 661.8 1132.3 658.8 1130.7 655.9 1129.4 652.7 1127.5 650 1124.1 648.5 1122.5 646.5 1122.1 644.2 1122.2 641.1 1123.3 638.8 1124.5 636.1 1122.8 635.5 1119.9 633.4 1118 630.7 1115.6 624.2 1114 619.9 1112.4 613.9 1111.7 608 1111.6 602.3 1112.1 602.3 1174 602.6 1171.2 781.3 1245.5 778.9 1246.7 823.9 1246.2 886.7 1244.7 950.7 Z M 1008 540.1 1008.6 559.3 1000.3 555.4 926.8 558.4 852 560.5 834.7 565.6 833.6 577.7 821.6 577.5 822.1 425.5 822.2 420 826.9 422.8 831.1 424.3 838.6 424.2 841.4 427 844.6 427 849.9 427.9 856.6 431.2 864.9 431.5 872.4 434.1 879.3 435.4 886.8 438.9 891.7 442.3 894 445 897 448.2 902.1 451.9 909.2 458.2 913.2 460.5 917.4 466.6 922.4 470.3 927.3 476.6 933.6 484.3 939.5 490.6 945.8 497.2 949.2 498.5 952.2 503.5 956.6 507.8 965.5 513.9 969.7 518.1 977.1 522.6 984.5 527.2 988.1 526.8 995.4 532.3 1005.2 538 1008 539.7 1008 540.1 Z M 1311.9 373.4 1352.9 285 1419.4 252.6 1453.5 289.5 1320.9 406.5 1324.9 604.2 1307.4 607.7 1308.3 701.2 1279.7 701.4 1238.6 701.5 1238.2 602.6 1225.6 601.6 1222.7 473.5 1257.9 472 1257.1 456 1311.9 373.4 Z" data-holc_grade="D"/>
</g>
</svg>