<?xml version="1.0"?>
<svg xmlns="http://www.w3.org/2000/svg" version="1.2" baseProfile="tiny" width="3000" height="2506" viewBox="0 0 3000 2506" stroke-linecap="round" stroke-linejoin="round">
<g id="A">
<path d="M 2461.6 360.3 2448.9 336.8 2438.6 325.6 2406.6 269 2392.9 240.4 2384.6 227.6 2369.8 215.9 2351.2 196.7 2327.8 171.5 2313.8 159 2289.9 136.8 2272.9 124 2354.6 60.7 2377.6 42.2 2408.7 59.5 2431.4 78.7 2458.3 99.4 2462.4 105.4 2472.3 128 2482.5 138.6 2498.4 152.5 2575.6 101.6 2577.8 90.3 2578.2 81.2 2547.3 1 2556.4 1.7 2611.7 18.3 2632.5 19 2650.3 22 2669.5 23.1 2680.1 28 2698.3 41.6 2719.1 50.6 2736.5 55.1 2747.9 61.1 2758.9 62.6 2765.7 61.1 2776.7 63 2776.7 73.2 2775.9 100.3 2776.2 104.4 2778.9 110.9 2785 118.4 2787.2 121.8 2788.4 127.4 2788.4 138.7 2788.8 148.9 2789.2 154.6 2785 161 2775.2 174.2 2773.3 177.9 2769.1 200.2 2763.1 220.9 2760.8 229.2 2745.3 252.6 2727.2 247.7 2718.8 248.1 2712 251.1 2703.3 256.4 2637.5 309.6 2531.2 341.3 2524 342.1 2504 340.6 2461.6 360.3 Z" data-holc_grade="A"/>
<path d="M 2863.7 719.3 2829.5 741.3 2794.7 764.2 2765.9 780 2709.3 683.3 2682.7 645.2 2661.5 602.4 2668.6 600.8 2705.2 593.4 2742.1 580.7 2762.7 571 2767.6 571.3 2782.4 597.2 2799.4 623.5 2821.2 655.7 2830 664.8 2863.7 719.3 Z" data-holc_grade="A"/>
<path d="M 2118.1 694.3 2138.6 646.6 2169.9 646.4 2218.6 649.7 2263.6 650.1 2285.8 658.1 2302.4 669.4 2324.6 670.3 2370.1 657.1 2422.6 627.4 2464.7 624.6 2534.2 622.6 2574.4 622.1 2661.5 602.4 2682.7 645.2 2709.3 683.3 2691.9 686.1 2676.9 690 2663.9 694.9 2641.5 707 2605.3 729.8 2557.5 756.5 2512.7 784 2470.9 813.4 2435.5 838.3 2456.3 868.5 2496.1 922 2476.1 929.8 2470.8 931.8 2458.3 933.1 2435.3 934.3 2418.2 930.6 2392.7 923.8 2384.2 921.7 2368.7 920.2 2353.6 919.1 2350.5 919.1 2345.4 918.3 2338.6 914 2336.1 911.6 2333.1 907.3 2331.8 901.4 2332.9 893.9 2337.9 882.3 2339.9 869.2 2340.6 863.9 2339.6 858.4 2336.8 854.2 2333.7 850.4 2329.2 845.4 2328.1 844.1 2323.9 841.9 2320.4 841.2 2315.7 842.1 2310.8 842.8 2306.5 843.2 2302.5 843.2 2299.3 843.1 2297.2 841.8 2294.9 838.4 2294.3 834.5 2295.1 830.8 2297 825.4 2302.4 809.5 2303.1 803.8 2302.8 798.4 2302.1 795.2 2298.9 790.3 2295.8 786.1 2283 774.1 2288.8 766.4 2342.2 767.7 2349.5 767.8 2354.6 767.6 2356.3 767.4 2356.7 767.4 2358.8 765.3 2359.2 763.4 2358.2 760 2355.3 757.9 2351.5 756.8 2342.9 755.6 2322.1 755.5 2301.2 755.3 2274.4 749.3 2240.5 745.1 2238.5 744.7 2231.9 735 2236.3 715.2 2235.9 710.5 2215.2 710 2196.1 710.2 2180.8 712 2165.8 713.4 2151.8 712.2 2137.1 710.4 2123.7 708.3 2118.6 707.3 2116.7 705.3 2115.6 701.9 2116 698.3 2118.1 694.3 Z" data-holc_grade="A"/>
<path d="M 2297.4 320.4 2318.2 354.6 2329.9 373.5 2341.3 393.1 2344 399.9 2340.9 402.5 2328.8 405.1 2302 412.7 2270.9 417.2 2255.4 420.3 2202.8 341.1 2248.9 338.1 2264.1 333.6 2285.6 324.9 2297.4 320.4 Z" data-holc_grade="A"/>
<path d="M 2533.1 976.7 2505 996.6 2475.9 1018.8 2435.3 1051.2 2405.7 1071.1 2396.4 1058.1 2377.6 1046.2 2347.8 1065.4 2304 1091.2 2283.5 1105.5 2277.4 1106.4 2267.6 1107.5 2257.2 1107.3 2251.1 1105.5 2226.5 1095.3 2192.6 1072.5 2170.1 1059.4 2133.5 1030.7 2129.2 1023.9 2126.2 1013.5 2123.5 1002.6 2123 988.8 2121.2 979.8 2116 963 2100.9 942.9 2089.1 930 2076.6 922.3 2064.8 915.8 2052.8 913.5 2048.7 914.2 2041.2 919.2 2028.9 926.9 2018.3 933.9 2013.5 938.6 1999.2 949.7 1993.8 958.8 1971.9 944.9 1925.3 915.5 1939.9 901.3 1952.3 889.2 1957.4 880.8 1959.2 870.2 1957.7 858.5 1952 846.4 1947.1 841.6 1992.1 813.2 2010.3 800.3 2022.4 786 2024.3 754.7 2025.8 747.4 2049.3 752.9 2051.5 755.9 2055.2 764.5 2020.8 843.8 2012.6 857.7 1993.7 878.1 1985.3 885.6 1981.8 888.8 1981.5 891.8 1983.7 894.5 1989.6 897.4 1998.4 897.5 2007.4 894.5 2018.3 889.7 2025.8 886.4 2034.7 880.2 2041.8 877.6 2047.9 876.5 2054.2 878.1 2060.1 880.8 2065.2 883.6 2070.8 888.9 2072 894.6 2075.2 898.7 2082.6 901.3 2096.9 900.8 2113.7 899.1 2119 896.9 2122.9 892.1 2126.6 888.3 2132 878.3 2138.8 873.2 2145.3 871.8 2150.6 872 2155.8 873.5 2159.3 875 2164.2 878 2168.9 881.8 2174 887.1 2182.2 899 2186 911.3 2186.8 916.9 2184.8 926.9 2184.1 934.7 2185 938.2 2202.8 926.4 2231.3 912.4 2249.6 906.6 2255.9 906.6 2276.4 895.6 2287.7 887 2292.6 884 2296.6 882.6 2299.5 883.2 2304.1 886.7 2305.4 889.2 2306.8 898.9 2313.8 919.6 2320.3 933.4 2328.8 939.9 2334.2 941.7 2352.6 944.4 2356.7 945.3 2360.7 946.8 2389.1 960.2 2408.2 959.6 2415 957.2 2420.8 955.5 2426.1 955.4 2439.9 956.7 2452.6 954.9 2460 952.7 2503.6 934.7 2533.1 976.7 Z" data-holc_grade="A"/>
<path d="M 2587.7 1058.8 2550.8 1086.2 2550.3 1098.9 2558.8 1117.7 2572.6 1137.1 2587.3 1168.2 2585.4 1180.9 2586.8 1210.1 2594.4 1268.6 2598.7 1314.8 2596.4 1329.8 2592.4 1341.8 2583.2 1348.5 2574.8 1351.4 2565.5 1349.8 2562.4 1347.3 2554.4 1341.4 2548.7 1337.1 2544.4 1334.4 2540.1 1332.8 2536 1332.8 2527.6 1335.8 2518.7 1342.3 2495.8 1354.6 2451.1 1373.8 2433.9 1379.3 2421.8 1381.6 2406.4 1384.1 2392.5 1386.1 2380.5 1385.2 2355.7 1378.9 2318.9 1364.2 2303.2 1357.9 2298 1356.7 2291.8 1356.5 2286.6 1359 2253.5 1387.1 2224.2 1411.1 2217.7 1402 2212.9 1398.4 2205.6 1394.8 2146.3 1369 2143.1 1365 2136.7 1357.7 2096.1 1329.9 2082 1313.8 2094.5 1305.2 2107.5 1291.4 2118.2 1278.3 2120.2 1273.1 2119.3 1262 2114.3 1249.6 2102.5 1233.3 2093.8 1224.7 2084 1208.2 2096.8 1204.3 2112.9 1197.7 2134 1182.4 2160.4 1159.5 2171 1149.5 2179.9 1143.4 2183.5 1142.5 2189.7 1143.2 2195.6 1145.2 2203.5 1154 2215.6 1170.8 2236.5 1195.4 2263.8 1233.9 2276.7 1229.1 2330.2 1192.2 2393.8 1150.1 2429.4 1118.2 2429.9 1113.9 2428.3 1108.2 2425.5 1103 2405.7 1071.1 2435.3 1051.2 2475.9 1018.8 2505 996.6 2533.1 976.7 2548.3 1000.7 2554.4 1010.4 2556.9 1018.1 2567.6 1036.2 2583.3 1053.8 2587.7 1058.8 Z" data-holc_grade="A"/>
<path d="M 1889.1 1048.9 1881.1 1069.4 1826.1 1105.1 1781.6 1136.1 1776.3 1131.9 1763.8 1126.6 1746.4 1109.3 1738.4 1089.3 1737.3 1079.5 1742.6 1063.7 1765.3 1036.9 1782.7 1020.3 1823.2 987.1 1837.2 974.3 1852.8 994.3 1864.1 1010.5 1867.9 1021.8 1882.3 1037.2 1889.1 1048.9 Z" data-holc_grade="A"/>
<path d="M 1855.6 1426.4 1847.7 1457.7 1842 1496.2 1830.2 1512.8 1792.3 1537.8 1789 1542.3 1767.5 1554.4 1698.4 1587.3 1670.6 1599.1 1649 1606.3 1639.9 1610.8 1621 1620.5 1588.3 1555.6 1575.8 1542 1569.8 1533.3 1558.6 1509.1 1577.8 1500.1 1597.5 1486.5 1610.8 1482.6 1618.7 1490.7 1624.4 1494 1628.7 1494.6 1633.2 1494 1663.2 1474.7 1689.3 1460.5 1699.3 1458.4 1709.3 1447.8 1715.3 1445.7 1720.8 1440 1733.5 1434.3 1751.4 1422.5 1759.9 1420.4 1774.7 1408 1803.8 1393.2 1830.1 1408.9 1845 1414.3 1855.6 1426.4 Z" data-holc_grade="A"/>
</g>
<g id="B">
<path d="M 2988.3 555.9 2982.6 557.8 2978.8 555.4 2975.5 552.1 2963.2 549.3 2941.4 547.4 2916.3 539.4 2902.6 539.5 2877.5 539.5 2843.5 536.2 2805.6 535.3 2798 531.5 2777.7 527.8 2766 523.9 2760.6 522.2 2746.4 512.3 2736.5 502.4 2727.5 490.6 2714.7 467.5 2709.5 464.2 2701.9 446.3 2689.1 425.6 2649.8 352.2 2644.1 327.7 2637.5 309.6 2703.3 256.4 2712 251.1 2718.8 248.1 2727.2 247.7 2745.3 252.6 2785.5 266.8 2798.3 312.5 2816.8 346.8 2832.4 369 2853.3 399.1 2859.4 405.2 2867.5 407.1 2872.7 405.7 2879.8 403.3 2891.1 395.3 2906.2 387.7 2922.8 378.3 2933.7 372.2 2946.4 368.4 2958.3 362.7 2971.5 366 2982.9 371.6 2989 382 2994.7 398 2999 418.3 2998.6 446.5 2998.1 476.2 2991.5 519.1 2988.3 555.9 Z" data-holc_grade="B"/>
<path d="M 1663.2 1474.7 1633.2 1494 1628.7 1494.6 1624.4 1494 1618.7 1490.7 1610.8 1482.6 1597.5 1486.5 1577.8 1500.1 1558.6 1509.1 1533.1 1451.5 1531 1440.4 1517 1404.1 1509.2 1390.9 1486.1 1348.6 1464.5 1317.7 1462.1 1312.8 1455.5 1289.7 1450.5 1277.8 1448.9 1241 1454.6 1233.2 1468.7 1221.6 1491.4 1206.2 1509 1194.6 1512.8 1194.4 1519.3 1197.7 1522.7 1201.2 1540.5 1227.9 1543.6 1228.3 1572.2 1209.8 1622.4 1149.8 1644.9 1122.9 1673.4 1086.8 1686.4 1094.7 1699.9 1111.7 1679.5 1127.4 1665.2 1136.8 1663.3 1141.8 1663.4 1146.4 1668.1 1158 1657.4 1175.2 1649.9 1181.9 1630.5 1199.8 1617.4 1209.8 1593.5 1236.8 1564.4 1265 1558.2 1266.4 1571 1296.1 1595.6 1354 1620.7 1413 1633.9 1425.2 1655.2 1469.1 1663.2 1474.7 Z" data-holc_grade="B"/>
<path d="M 1699.4 1650.4 1698.3 1654.9 1714.9 1679.5 1716.1 1686.2 1715.3 1693 1702.8 1707 1696.8 1714.9 1697.1 1745.8 1712.3 1776.4 1729.3 1817.5 1730.1 1825.4 1728.5 1830.6 1726.7 1836.4 1701.7 1847.3 1688.4 1848.1 1678.6 1840.2 1667.2 1820.9 1652.8 1801.7 1634.6 1765.9 1623.6 1747 1608.5 1714.2 1593.7 1677.2 1575.5 1642.2 1602.8 1632.6 1613.7 1626.5 1621 1620.5 1639.9 1610.8 1649 1606.3 1670.6 1599.1 1671 1632.7 1676.3 1639.8 1699.4 1650.4 Z" data-holc_grade="B"/>
<path d="M 1107.6 2407.6 1096.2 2505 1070.8 2501.2 1060.2 2501.6 1042.4 2496.7 1022.3 2492.5 993.5 2475.1 957.1 2460 945 2456.6 953.4 2389.5 1000.3 2395.5 1042 2397 1107.6 2407.6 Z" data-holc_grade="B"/>
<path d="M 1090.7 1644.1 1093.4 1646.6 1091.3 1655.9 1091.3 1688.3 1089.5 1708.2 1090.2 1748.9 1092.4 1800.3 1096.5 1811.6 1109.5 1822.3 1125.4 1828.6 1146.1 1833.8 1148.8 1838.8 1142.8 1885.9 1136 1914.4 1134.4 1939.6 1127.9 1978.2 1124.9 1982.2 1107 1981 1093.2 1977.8 1072.2 1976.3 1029.6 2051.1 1019.5 2064.5 1011.4 2077.8 998.4 2104.5 981.9 2127.8 961.1 2148.9 953.4 2154.3 943.2 2155.7 939.7 2155.4 935.4 2152.3 921 2137.9 920.6 2133 924 2122.5 929.7 2117.6 939.8 2101.4 954.9 2073.4 970.1 2051.9 986.4 2026.3 1009.2 1988.2 1003.5 1987.8 975.8 1984 947 1982.5 935.7 1974.9 934.9 1968.5 948.1 1864.1 953.1 1824 959.6 1793.1 1002.8 1787.5 1051.7 1786.3 1056.2 1706.4 1057.4 1694.7 1055.9 1650.5 1069.9 1644.5 1084.3 1643.8 1090.7 1644.1 Z" data-holc_grade="B"/>
<path d="M 652.9 1184.8 629.6 1260.2 616.3 1256.8 609.9 1255.2 600.4 1255.2 579.2 1253 561 1249.6 547 1243.5 538.7 1234.5 536.1 1223.5 538 1213 538 1200.1 536.5 1194.1 530.4 1189.2 524 1186.9 517.5 1186.5 508.8 1183.9 498.6 1178.2 486.5 1176.7 475.5 1175.2 470.2 1175.2 459.6 1169.9 453.6 1162.7 453.2 1152.9 455.3 1146.2 466.3 1115.7 547.7 1119.1 559.4 1121.8 601.5 1125.6 617 1127.5 635.5 1133.9 649.5 1136.9 653.3 1141.8 649.5 1156.5 648 1168.6 648.8 1181 652.9 1184.8 Z" data-holc_grade="B"/>
<path d="M 305.5 134.6 308.5 169.7 289.2 221.7 250.2 223.9 249.8 234.5 231.6 279.7 241.4 285.7 331.9 313.7 326.9 400.4 313.5 519.1 316.6 522.1 365.8 527 362.3 622.4 267.3 620.8 201 615.1 196.8 684.9 166.5 682.6 147.6 679.2 150.6 657.3 151 640 150.3 618.5 154.5 582.3 156 570.2 161 548.4 172 489.6 167.8 485 133 478.6 162.2 431.5 165.6 407.8 98.7 388.5 124.5 309.4 129 301.4 141.9 269.8 151 255.9 163.9 244.9 186.6 225.4 200.2 212.6 209 200.1 236.6 179.8 266.9 156.1 286.2 143.7 305.5 134.6 Z" data-holc_grade="B"/>
<path d="M 147.6 679.2 100.9 668.9 67.5 664 28.4 661.5 2.1 659.8 3.2 639.1 1 585.9 106.6 590.9 110.8 587.9 123.7 503.1 133 478.6 167.8 485 172 489.6 161 548.4 156 570.2 154.5 582.3 150.3 618.5 151 640 150.6 657.3 147.6 679.2 Z" data-holc_grade="B"/>
<path d="M 2982.2 592.7 2975.1 656.5 2943.3 674 2914.5 689.1 2863.7 719.3 2830 664.8 2821.2 655.7 2799.4 623.5 2782.4 597.2 2767.6 571.3 2762.7 571 2742.1 580.7 2705.2 593.4 2668.6 600.8 2634.1 543.6 2686.4 550.4 2704.5 558.7 2736.4 565.8 2765.6 567.4 2777.6 568.1 2881.5 574.7 2952.7 581.8 2966.3 588.2 2982.2 592.7 Z" data-holc_grade="B"/>
<path d="M 2461.6 360.3 2385.4 390.8 2412.6 432.7 2418.4 482.1 2412.7 504.4 2380.9 500.8 2361.3 499 2345.2 500.9 2312.5 499.1 2291 500.6 2282.8 500.9 2274.3 499.4 2263.4 499.7 2249.8 500.3 2240.7 501.2 2228 504.5 2215 505.5 2162.3 510.6 2129.6 518.2 2121.1 488 2116.6 475.7 2110.5 470.2 2101.1 459.1 2102 443.1 2109.3 444.3 2171.1 434.3 2224.3 424.9 2255.4 420.3 2270.9 417.2 2302 412.7 2328.8 405.1 2340.9 402.5 2344 399.9 2341.3 393.1 2329.9 373.5 2318.2 354.6 2297.4 320.4 2324.7 307.5 2406.6 269 2438.6 325.6 2448.9 336.8 2461.6 360.3 Z" data-holc_grade="B"/>
<path d="M 2634.1 543.6 2668.6 600.8 2661.5 602.4 2574.4 622.1 2534.2 622.6 2464.7 624.6 2422.6 627.4 2370.1 657.1 2324.6 670.3 2302.4 669.4 2285.8 658.1 2263.6 650.1 2218.6 649.7 2169.9 646.4 2138.6 646.6 2145.6 630.4 2147.1 618 2140.5 588.7 2139.1 556 2205.1 540.5 2258.8 531.5 2283 527.3 2351.9 530.7 2441.5 536.3 2535.3 538.1 2626.2 542.5 2634.1 543.6 Z" data-holc_grade="B"/>
<path d="M 2657.9 1165.6 2664.8 1177.7 2674.3 1194 2678.5 1200.6 2684.6 1216.6 2684 1221.1 2697.6 1238.3 2670.1 1267.3 2640.1 1301.1 2629.8 1312.3 2596.5 1338.8 2592.4 1341.8 2596.4 1329.8 2598.7 1314.8 2594.4 1268.6 2586.8 1210.1 2585.4 1180.9 2587.3 1168.2 2572.6 1137.1 2558.8 1117.7 2550.3 1098.9 2550.8 1086.2 2587.7 1058.8 2599 1081.4 2615.1 1106.9 2625.1 1126.2 2636 1143.6 2657.9 1165.6 Z" data-holc_grade="B"/>
<path d="M 2405.7 1071.1 2425.5 1103 2428.3 1108.2 2429.9 1113.9 2429.4 1118.2 2393.8 1150.1 2330.2 1192.2 2276.7 1229.1 2263.8 1233.9 2236.5 1195.4 2215.6 1170.8 2203.5 1154 2195.6 1145.2 2189.7 1143.2 2183.5 1142.5 2179.9 1143.4 2171 1149.5 2160.4 1159.5 2134 1182.4 2112.9 1197.7 2096.8 1204.3 2084 1208.2 2063.4 1179.6 2055.6 1163.3 2048.8 1156.3 2032 1170.8 2014.5 1180.7 1987.7 1166 1966.1 1155.6 1962 1150.6 2025.6 1104.4 2029.5 1105.6 2035.3 1113.2 2038.9 1115.6 2042.9 1115.3 2112.8 1062.2 2127.2 1076.4 2131.7 1078.9 2136.5 1078.9 2145.4 1073 2156.5 1063.9 2135.8 1046.7 2084.7 999 2059.5 985 2042.4 979.8 2032 975.5 2008.8 964.7 2001.1 962.6 1993.8 958.8 1999.2 949.7 2013.5 938.6 2018.3 933.9 2028.9 926.9 2041.2 919.2 2048.7 914.2 2052.8 913.5 2064.8 915.8 2076.6 922.3 2089.1 930 2100.9 942.9 2116 963 2121.2 979.8 2123 988.8 2123.5 1002.6 2126.2 1013.5 2129.2 1023.9 2133.5 1030.7 2170.1 1059.4 2192.6 1072.5 2226.5 1095.3 2251.1 1105.5 2257.2 1107.3 2267.6 1107.5 2277.4 1106.4 2283.5 1105.5 2304 1091.2 2347.8 1065.4 2377.6 1046.2 2396.4 1058.1 2405.7 1071.1 Z" data-holc_grade="B"/>
<path d="M 1947.1 841.6 1932.6 847.3 1902.6 828 1896.2 820.8 1895.6 815.9 1899.5 799.4 1925.5 786 1953.3 767.2 1978.7 750.2 2005.2 746.2 2025.8 747.4 2024.3 754.7 2022.4 786 2010.3 800.3 1992.1 813.2 1947.1 841.6 Z" data-holc_grade="B"/>
<path d="M 1779.6 808.4 1788.1 807.8 1806.3 794.6 1831.4 810.8 1842.6 823.8 1852 827.7 1923.5 882.6 1932.3 889.8 1938.9 896.2 1939.9 901.3 1925.3 915.5 1797.2 822.3 1779.6 808.4 Z" data-holc_grade="B"/>
<path d="M 1699.9 1111.7 1686.4 1094.7 1694.5 1086.7 1698.3 1081.8 1722.1 1044.4 1743.3 1003.7 1752.1 993.8 1763.6 984.4 1829 942.6 1840.3 954.2 1846.9 956.6 1854.5 955.4 1874.8 943.3 1900.2 929.2 1917.9 946.7 1965.2 977.3 1991.4 992 1947.8 1019.5 1889.1 1048.9 1882.3 1037.2 1867.9 1021.8 1864.1 1010.5 1852.8 994.3 1837.2 974.3 1823.2 987.1 1782.7 1020.3 1765.3 1036.9 1742.6 1063.7 1737.3 1079.5 1738.4 1089.3 1746.4 1109.3 1763.8 1126.6 1776.3 1131.9 1781.6 1136.1 1751.7 1159.4 1728.2 1142.5 1711.9 1129.7 1704.4 1119.9 1699.9 1111.7 Z" data-holc_grade="B"/>
</g>
<g id="C">
<path d="M 2766 523.9 2777.7 527.8 2798 531.5 2805.6 535.3 2843.5 536.2 2877.5 539.5 2902.6 539.5 2916.3 539.4 2941.4 547.4 2963.2 549.3 2975.5 552.1 2978.8 555.4 2982.6 557.8 2988.3 555.9 2982.2 592.7 2966.3 588.2 2952.7 581.8 2881.5 574.7 2777.6 568.1 2765.6 567.4 2736.4 565.8 2704.5 558.7 2686.4 550.4 2634.1 543.6 2626.2 542.5 2535.3 538.1 2441.5 536.3 2351.9 530.7 2283 527.3 2258.8 531.5 2205.1 540.5 2139.1 556 2138.9 551.1 2129.6 518.2 2162.3 510.6 2215 505.5 2228 504.5 2240.7 501.2 2249.8 500.3 2263.4 499.7 2274.3 499.4 2282.8 500.9 2291 500.6 2312.5 499.1 2345.2 500.9 2361.3 499 2380.9 500.8 2412.7 504.4 2427.8 508.8 2461.1 504.6 2488 509.8 2487.2 488.4 2484.5 446.9 2484.5 429.2 2487.9 418.3 2505.7 407.7 2532.5 392.2 2558.7 424.6 2582.9 464.5 2615.5 514.3 2628 518.4 2703.4 528.5 2761.5 536.4 2766 523.9 Z" data-holc_grade="C"/>
<path d="M 1106 2044.6 1105.2 2037.4 1111.3 2014 1118.5 1993.6 1124.9 1982.2 1127.9 1978.2 1134.4 1939.6 1136 1914.4 1142.8 1885.9 1148.8 1838.8 1146.1 1833.8 1125.4 1828.6 1109.5 1822.3 1096.5 1811.6 1092.4 1800.3 1090.2 1748.9 1089.5 1708.2 1091.3 1688.3 1091.3 1655.9 1093.4 1646.6 1090.7 1644.1 1086.6 1630.5 1081.6 1617 1077.5 1601.5 1088.2 1523.9 1091.5 1504.1 1127.4 1552.3 1131.9 1573.1 1134 1580.9 1134.6 1590 1146.1 1629.8 1148.3 1641.6 1149.8 1654.9 1160.7 1695 1169.4 1755.1 1170.7 1781.6 1178.2 1837.8 1185.8 1932.6 1181.8 1973.6 1181.5 1985.1 1183.3 2015.6 1170 2021.6 1179.4 2055.4 1176.4 2056.6 1106 2044.6 Z" data-holc_grade="C"/>
<path d="M 1124.9 1982.2 1118.5 1993.6 1111.3 2014 1105.2 2037.4 1106 2044.6 1104.1 2049.5 1104.1 2069.5 1106.7 2088.7 1109.8 2093.3 1141.2 2108.7 1145.8 2112.1 1149.2 2120.4 1146.5 2132.9 1140.8 2137.4 1125.3 2138.2 1112 2141.9 1106.7 2151.7 1107.8 2241.2 1104 2260.1 1102.5 2285.7 1107.6 2407.6 1042 2397 1000.3 2395.5 953.4 2389.5 945 2456.6 920.2 2452.5 888.3 2446 884.9 2441.9 843.6 2239.1 935.4 2152.3 939.7 2155.4 943.2 2155.7 953.4 2154.3 961.1 2148.9 981.9 2127.8 998.4 2104.5 1011.4 2077.8 1019.5 2064.5 1029.6 2051.1 1072.2 1976.3 1093.2 1977.8 1107 1981 1124.9 1982.2 Z" data-holc_grade="C"/>
<path d="M 1090.7 1644.1 1084.3 1643.8 1069.9 1644.5 1055.9 1650.5 1057.4 1694.7 1056.2 1706.4 1051.7 1786.3 1002.8 1787.5 959.6 1793.1 953.1 1824 948.1 1864.1 934.9 1968.5 935.7 1974.9 947 1982.5 975.8 1984 1003.5 1987.8 1009.2 1988.2 986.4 2026.3 970.1 2051.9 954.9 2073.4 939.8 2101.4 929.7 2117.6 924 2122.5 920.6 2133 921 2137.9 935.4 2152.3 843.6 2239.1 837.2 2226.6 826.6 2227.3 819.8 2231.5 794.7 2232.2 753.1 2234.5 736.4 2243.9 723.1 2258.6 710.2 2262.4 686 2259 671.2 2259.3 651.1 2257.8 626.9 2196.2 664.4 2152.6 694.6 2115.3 720.7 2073.4 726.4 2061.5 730.4 2006.1 730.5 1967 729.9 1925.1 736.2 1876.9 796.4 1877.9 804 1823.2 812.5 1757.2 853.3 1756.7 881.5 1751.1 904.6 1751.4 963.7 1749.6 984.3 1751.5 1000.6 1756.3 1001.6 1738.5 997 1669.4 998.2 1657.9 997.9 1642.8 1044.1 1641.9 1077.5 1601.5 1081.6 1617 1086.6 1630.5 1090.7 1644.1 Z" data-holc_grade="C"/>
<path d="M 1101.8 1339.6 1093.9 1360.3 1092.5 1379.6 1091.6 1394.7 1086.3 1418.2 1084.9 1435.2 1078.3 1491.3 1091.5 1504.1 1088.2 1523.9 1084 1521.5 1039.4 1516.3 1000.2 1510.2 989.7 1510.1 979.8 1541.7 969.4 1558.7 958 1573.8 945.2 1582.3 943.3 1608.7 932.9 1609.6 922 1608.7 906.8 1610.1 905.4 1646.4 855.7 1646.4 854.7 1721.3 853.3 1756.7 812.5 1757.2 804 1823.2 796.4 1877.9 736.2 1876.9 689.8 1873.1 666.2 1870.7 630.2 1872.1 630.7 1833.5 632.1 1792.9 635.4 1771.7 640.7 1668.4 643.6 1659.5 665.3 1640.1 694.7 1619.4 743.5 1584.5 789.9 1548.7 806.5 1530.3 815 1513.4 826.9 1499.7 836.8 1485.6 845.8 1473.3 853.9 1461.1 794.7 1355 798.5 1343.6 836.7 1307 892.6 1411.7 926.6 1486.7 946.5 1471.1 978.7 1434.8 1010.4 1402.8 1011.4 1341.5 1013.7 1329.2 1029.4 1332.5 1041.7 1332.1 1077.6 1336.8 1101.8 1339.6 Z" data-holc_grade="C"/>
<path d="M 1199.2 806.9 1196.3 830.6 1201.5 835.1 1215.1 836.3 1224.7 837.4 1223.6 847.7 1225.2 851.4 1234.8 856.1 1272.3 862.7 1301.3 863.8 1302.7 866.5 1293.1 941.2 1285.2 978.1 1288.8 983.9 1301.1 987.8 1338.3 992.5 1327.6 1090.6 1325.3 1108.9 1274.1 1102.8 1245.6 1101 1241.1 1113.7 1234.1 1162.6 1210.1 1307.4 1160 1237.4 1167.2 1168.5 1145.4 1163.8 1116.4 1163.8 1112.2 1163.8 1100.9 1161.4 1093.5 1134.9 1092.9 1105.5 1093.5 1098.1 1083.8 1091.3 1080.4 1086.2 1074.2 1033.6 1069.7 1026.8 1065.7 1023.4 1061.7 1023.4 1077.1 977.6 1086.7 964.1 1094.7 965.2 1113.4 964.6 1118 940.9 1125.3 940.3 1129.9 936.4 1129.3 931.3 1129.3 926.7 1132.7 917.1 1142.4 913.7 1149.8 916 1160 917.7 1163.4 914.9 1163.4 914.5 1167.4 887.7 1158.9 884.3 1118 880.4 1114.6 870.7 1116.2 853.6 1116.3 853.2 1118.5 844.7 1170.8 851.5 1171.4 806.9 1175.3 802.9 1199.2 806.9 Z" data-holc_grade="C"/>
<path d="M 387.9 1133 418.6 1085.9 426.2 980.7 422.5 974.3 399.4 967.4 397.5 964.4 396.7 955.8 408.9 899.6 410.4 887.9 408.1 879.2 404 875.5 391.1 873.6 370.7 872.4 357 869.8 356.7 865.6 374 756.6 399.5 758.9 437 766.3 481.3 773.7 502.9 777.9 508.2 759.4 510.5 748.1 515.1 710.4 521.9 653.1 521.7 633.1 568.6 631.6 584.5 633.5 635.6 635.8 670.5 637.7 725.7 638.9 768.5 642.3 822.2 646.5 837.4 649.1 853.7 654 914.2 661.2 925.6 663.5 930.9 667.6 928.2 676.3 919.1 749.4 920.2 756.6 911.2 772.1 910.4 781.1 901.7 795.4 875.9 973.4 870.2 1034.5 841.8 1039 839.1 1043.1 836.1 1050.3 835.3 1103.8 838.3 1110.6 845.5 1114.8 853.5 1114.8 884.9 1115.2 885.6 1123.1 861.8 1165.3 839 1215.8 722.8 1196.2 683.2 1192 652.9 1184.8 648.8 1181 648 1168.6 649.5 1156.5 653.3 1141.8 649.5 1136.9 635.5 1133.9 617 1127.5 601.5 1125.6 559.4 1121.8 547.7 1119.1 466.3 1115.7 455.3 1146.2 439.7 1140.9 423.8 1138.7 401.5 1137.5 387.9 1133 Z" data-holc_grade="C"/>
<path d="M 28.4 661.5 67.5 664 100.9 668.9 147.6 679.2 166.5 682.6 196.8 684.9 201 615.1 267.3 620.8 362.3 622.4 365.8 527 316.6 522.1 313.5 519.1 326.9 400.4 331.9 313.7 241.4 285.7 231.6 279.7 249.8 234.5 250.2 223.9 289.2 221.7 308.5 169.7 305.5 134.6 321.9 123.8 323.1 120.2 323.7 110.3 383 106.1 432.7 99.8 433.9 95.3 435.7 89.6 438.1 87.5 465.7 85.4 469.3 89.3 469.9 108 452.7 117.6 440.5 124.2 435.4 133.3 433.3 145.3 436.3 154.7 441.4 161.9 453.5 164.3 472.3 161.9 499.5 158.9 518.6 158.5 547 163.7 554.4 168.7 519.1 216.2 508.4 232.6 495.8 255.8 491.9 272.2 483.9 311.7 480.5 353.6 487.8 405 483.8 454.8 480.9 488.1 484.3 520.3 485.4 540.1 493.4 589.9 496.2 607.4 494.5 630.6 492.7 640.2 493.9 650.4 491.6 672.5 491 692.2 489.3 703 485.3 729.6 482.4 753.3 481.3 773.7 437 766.3 399.5 758.9 374 756.6 341.6 751.5 309.3 749.2 296.8 740.7 207.1 729.4 204.2 760.5 200.2 787 220.1 789.3 232 792.7 226.8 859.4 223.4 865.1 132.6 856.5 135.4 832.2 135.4 806.2 98.5 802.2 95.7 840.1 92.2 850.3 83.7 852.5 68.4 853.1 59.9 849.7 56.5 844 57 831 62.2 787.5 66.2 718.5 63.4 711.7 23.7 706.6 28.4 661.5 Z" data-holc_grade="C"/>
<path d="M 740.1 555.9 778.4 562.7 774.1 581.9 730.3 576.9 680.8 571.5 673.7 569.9 673.3 567 636.9 562 607 558.3 594.9 558.3 582.7 550.9 587.9 531.6 656.5 541.6 700.3 547.1 712.8 550.9 723.3 551.6 740.1 555.9 Z" data-holc_grade="C"/>
<path d="M 2324.7 307.5 2297.4 320.4 2285.6 324.9 2264.1 333.6 2248.9 338.1 2202.8 341.1 2255.4 420.3 2224.3 424.9 2171.1 434.3 2109.3 444.3 2102 443.1 2101.1 459.1 2110.5 470.2 2116.6 475.7 2121.1 488 2129.6 518.2 2138.9 551.1 2139.1 556 2140.5 588.7 2147.1 618 2145.6 630.4 2138.6 646.6 2118.1 694.3 2095.7 694.9 2063.7 687.3 2065.3 677.3 2049.7 587.8 2048.3 564.7 2041.6 553.4 1976.3 520 1944.6 506.3 1918.1 499.3 1892.6 490.3 1854.7 469.1 1829.2 462.1 1829.2 456.4 1868.9 407.4 1908.2 410.7 1944.1 417.7 2016.5 407.4 2013.7 395.1 1994.2 365.4 1984.8 344.7 1964 302.3 1998.3 278.3 2029.5 250.2 2064.5 223.1 2083.6 207.4 2125 170.9 2171.4 244.8 2191.1 233 2214.7 225.4 2232.2 218.8 2261.6 206.1 2274.3 219.4 2288.6 241.1 2311 274.5 2324.7 307.5 Z" data-holc_grade="C"/>
<path d="M 1939.9 901.3 1938.9 896.2 1932.3 889.8 1923.5 882.6 1852 827.7 1842.6 823.8 1831.4 810.8 1806.3 794.6 1788.1 807.8 1779.6 808.4 1760.8 792.8 1747.5 771.6 1731.6 748.3 1764.1 728.2 1789.6 760.5 1796 771.6 1805.3 768.3 1820.5 758.7 1871.1 796 1878 798.5 1899.5 799.4 1895.6 815.9 1896.2 820.8 1902.6 828 1932.6 847.3 1947.1 841.6 1952 846.4 1957.7 858.5 1959.2 870.2 1957.4 880.8 1952.3 889.2 1939.9 901.3 Z" data-holc_grade="C"/>
<path d="M 2592.4 1341.8 2596.5 1338.8 2629.8 1312.3 2640.1 1301.1 2670.1 1267.3 2697.6 1238.3 2684 1221.1 2684.6 1216.6 2678.5 1200.6 2674.3 1194 2664.8 1177.7 2657.9 1165.6 2664.8 1162.6 2677.3 1163.2 2720.3 1168.6 2769.1 1177 2781.2 1177.3 2813 1181.5 2816.3 1185.1 2801.5 1203.5 2782.7 1227.1 2755.8 1256.6 2726.4 1283.5 2687 1324 2629.3 1362.7 2601.8 1384.9 2574.8 1351.4 2583.2 1348.5 2592.4 1341.8 Z" data-holc_grade="C"/>
<path d="M 1881.1 1069.4 1889.1 1048.9 1947.8 1019.5 1991.4 992 2012.2 1001.3 2042.5 1010.3 2063.7 1017.2 2074.6 1023.9 2112.8 1062.2 2042.9 1115.3 2038.9 1115.6 2035.3 1113.2 2029.5 1105.6 2025.6 1104.4 1962 1150.6 1935 1115.6 1931.7 1115.6 1928.1 1116.5 1920.5 1121.7 1893.5 1080 1881.1 1069.4 Z" data-holc_grade="C"/>
<path d="M 1900.2 929.2 1874.8 943.3 1854.5 955.4 1846.9 956.6 1840.3 954.2 1829 942.6 1824.5 937.9 1790.9 877.6 1785.7 874.3 1782.4 873.7 1734.8 905.4 1710.3 919.9 1727.6 950.3 1742.1 974.7 1749.1 979.9 1763.6 984.4 1752.1 993.8 1743.3 1003.7 1722.1 1044.4 1694 997.7 1697.6 993.5 1697.9 986.2 1694.6 980.8 1684 972.6 1673.7 957.6 1670 950 1671.2 939.5 1688.5 924.1 1672.1 891.8 1652.2 903.3 1642.5 909 1634.3 908.1 1632.8 915 1629.7 924.7 1624.6 932.5 1580.1 955.8 1581.3 963.6 1584 969.9 1604.9 1020.9 1642.2 1046.3 1633.1 1058.9 1642.5 1067.7 1673.4 1086.8 1644.9 1122.9 1622.4 1149.8 1572.2 1209.8 1543.6 1228.3 1540.5 1227.9 1522.7 1201.2 1519.3 1197.7 1512.8 1194.4 1509 1194.6 1491.4 1206.2 1468.7 1221.6 1454.6 1233.2 1448.9 1241 1450.5 1277.8 1455.5 1289.7 1462.1 1312.8 1464.5 1317.7 1486.1 1348.6 1456.7 1365.8 1418.3 1380.9 1387.7 1400.8 1381.3 1361.7 1393.9 1349.8 1405.5 1340.4 1437.6 1325 1409.1 1281.6 1379.1 1297.9 1355.9 1311.3 1333.8 1276.6 1328.3 1261.2 1337.1 1254.3 1356.5 1245.2 1368.6 1233.2 1371.6 1224.7 1347.7 1191.8 1325.3 1108.9 1327.6 1090.6 1463 1024.5 1471.5 1023 1480.9 1017.3 1484.8 1017 1496.7 1008.3 1503.6 997.4 1511.5 962.4 1514.2 916.6 1522.1 880.1 1531.2 849 1543 823.3 1597.5 832.4 1626 811.9 1600.5 767.5 1584.5 740.4 1645.5 746.7 1692.4 747.6 1699.1 752.2 1711.5 773.3 1740.3 807.3 1760 827.5 1780.9 844.7 1843.6 888.8 1900.2 929.2 Z" data-holc_grade="C"/>
<path d="M 1803.8 1393.2 1774.7 1408 1759.9 1420.4 1751.4 1422.5 1733.5 1434.3 1720.8 1440 1715.3 1445.7 1709.3 1447.8 1699.3 1458.4 1689.3 1460.5 1663.2 1474.7 1655.2 1469.1 1633.9 1425.2 1620.7 1413 1595.6 1354 1571 1296.1 1558.2 1266.4 1564.4 1265 1593.5 1236.8 1617.4 1209.8 1630.5 1199.8 1649.9 1181.9 1657.4 1175.2 1668.1 1158 1672.3 1169.7 1673 1194.9 1675.9 1208.4 1680 1219.5 1682.5 1223.1 1688.6 1226.3 1703.4 1231.1 1713.9 1238.7 1722.3 1248.3 1725.5 1251.9 1727.3 1258.7 1733.4 1277.9 1740.2 1291.7 1751.4 1306.9 1764.1 1317 1775.9 1324.7 1782.7 1327.9 1800 1351.2 1807.2 1360.9 1812 1368.2 1812.5 1374.7 1811.3 1381.1 1809.7 1389.7 1803.8 1393.2 Z" data-holc_grade="C"/>
<path d="M 1728.5 1830.6 1730.1 1825.4 1729.3 1817.5 1712.3 1776.4 1697.1 1745.8 1696.8 1714.9 1702.8 1707 1715.3 1693 1716.1 1686.2 1714.9 1679.5 1698.3 1654.9 1699.4 1650.4 1770 1681.8 1782.9 1683.3 1786.3 1682.9 1793.9 1677.6 1803.8 1665.2 1845.4 1599.9 1849.2 1593.1 1849.2 1580.7 1838.2 1534.6 1835.5 1517.7 1830.2 1512.8 1842 1496.2 1847.7 1457.7 1855.6 1426.4 1878.3 1432 1900.3 1424.5 1915.4 1413.2 1925.7 1412 1931.7 1413.5 1964.7 1447.5 1964.3 1483.7 1967.7 1495 1972.3 1510.1 1992.4 1539.5 1992 1550.1 2006.4 1566.7 2050.3 1624.4 2064.4 1647.4 2067 1657.6 2059.1 1675.7 2042.4 1701.7 2003.8 1741.7 1945.5 1779.8 1935.2 1784 1907.2 1802.8 1863.3 1826.6 1850.4 1827.8 1844 1826.6 1838.6 1821.4 1825 1798 1820.1 1790.8 1811.7 1788.2 1800.4 1788.9 1789.4 1794.6 1728.5 1830.6 Z" data-holc_grade="C"/>
<path d="M 1486.1 1348.6 1509.2 1390.9 1517 1404.1 1531 1440.4 1533.1 1451.5 1558.6 1509.1 1569.8 1533.3 1575.8 1542 1588.3 1555.6 1621 1620.5 1613.7 1626.5 1602.8 1632.6 1575.5 1642.2 1530.7 1657 1470.7 1676.9 1405.8 1703.2 1469.2 1798.3 1452.5 1807 1441 1815.2 1423.4 1825.4 1391.9 1841.4 1382.1 1847.3 1361.8 1861.2 1338.4 1872.7 1272.4 1890.8 1263 1887.5 1242.7 1774.6 1256.9 1765.2 1276.3 1758 1293 1752.9 1303 1748.9 1308.4 1744.1 1310.6 1741.1 1312.4 1735.7 1311.8 1666.9 1312.4 1657.2 1314.8 1597.4 1311.5 1574.5 1313.6 1550.1 1312.1 1540.7 1312.1 1516.3 1314.2 1490.9 1314.8 1469.2 1317 1461.3 1321.2 1451.4 1336.2 1436.1 1387.7 1400.8 1418.3 1380.9 1456.7 1365.8 1486.1 1348.6 Z M 1491.5 1465.3 1493.7 1463.5 1505.1 1460.1 1515.3 1452.4 1482.4 1377 1464 1386.7 1454.2 1391.5 1446 1393.1 1442.2 1396.5 1441 1401.7 1448.3 1423.9 1441.7 1431.3 1461.7 1473.2 1494.9 1475 1491.5 1465.3 Z" data-holc_grade="C"/>
</g>
<g id="D">
<path d="M 1964 302.3 1984.8 344.7 1994.2 365.4 2013.7 395.1 2016.5 407.4 1944.1 417.7 1908.2 410.7 1868.9 407.4 1829.2 456.4 1829.2 462.1 1854.7 469.1 1892.6 490.3 1918.1 499.3 1944.6 506.3 1976.3 520 2041.6 553.4 2048.3 564.7 2049.7 587.8 2065.3 677.3 2063.7 687.3 2062 697.1 2041.7 689.1 2032.2 675.5 2024.2 662.7 1980.1 647.2 1958.4 636.4 1935.7 620.8 1857.8 591.6 1830.8 595.4 1806.2 605.3 1741 646.3 1747.1 658.6 1720.6 674.6 1726.3 686.8 1709.7 697.7 1663.8 623.7 1661.9 608.6 1716.8 569.5 1737.6 540.8 1736.2 536.5 1701.2 547.4 1692.2 552.1 1644.4 576.1 1620.8 595 1608 604.4 1590.5 633.6 1573.4 656.2 1546.5 705.7 1395.1 690.6 1406.4 589.8 1409.3 573.3 1426.3 576.6 1443.3 577.1 1449 524.8 1500.1 532.3 1512.4 536.5 1539.4 538 1596.2 541.7 1597.6 527.6 1602.8 499.3 1614.1 455.5 1608 431 1586.7 400.4 1576.3 382.9 1569.2 366.9 1571.1 360.3 1594.7 342.9 1632.1 324.5 1684.6 296.2 1725 277.9 1732.6 279.3 1734 276 1788.9 251.5 1856.1 238.3 1915.2 212.8 1928.5 234 1938.9 256.6 1951.6 278.3 1964 302.3 Z" data-holc_grade="D"/>
<path d="M 1199.2 806.9 1175.3 802.9 1171.4 806.9 1170.8 851.5 1118.5 844.7 1116.3 853.2 1116.2 853.6 1114.6 870.7 1118 880.4 1158.9 884.3 1167.4 887.7 1163.4 914.5 1163.4 914.9 1160 917.7 1149.8 916 1142.4 913.7 1132.7 917.1 1129.3 926.7 1129.3 931.3 1129.9 936.4 1125.3 940.3 1118 940.9 1100.5 939.6 1098 938.3 1097.3 936.8 1097.2 933.6 1097.9 929.1 1102.1 918.9 1103.1 913.3 1102.3 909.6 1101.2 908.4 1076.9 906.3 1068.9 934.1 1041 930.8 1019.5 929.9 1011.3 929.3 999.2 927.9 993.4 926.2 967.9 920.8 957.2 918.5 955.2 918.4 954.1 917.8 952.6 915.8 949.5 911.1 948 906.8 947.5 903.1 952.4 878.1 956.7 851.4 958.8 839.1 960.4 821.1 969 769.9 974.9 724 980.2 673 980.8 671.7 981.2 670.5 982.8 669.8 985.2 670.4 989 671.2 997.6 673.2 1006.9 674.3 1009.6 675.3 1011.4 676.7 1012 679.1 1013.1 682.2 1012.4 684.2 1010.7 685.8 1008.3 686.2 1003.7 686.3 999.9 685.8 997 685.5 995.2 686.6 994.4 689 992.6 693.6 993 699 992.8 701.9 994.3 704.4 997.2 706.6 999.8 708.7 1002.3 712.6 1003.4 717.6 1002.9 722.6 1001.6 728 996.7 760.2 994.3 778.7 983.4 849.8 978.1 889.2 1035.3 896.6 1049.6 898.6 1056.1 899.1 1060.4 899.7 1062.3 899.6 1064 897.4 1064 895.9 1064 892.9 1062.2 884.2 1058.7 871.2 1056.3 861.3 1052.6 841.9 1052.1 836.2 1051.6 831.9 1051.3 827.6 1051.3 822 1052.7 812 1054.1 805.1 1063.2 740.3 1069.8 696.9 1078.2 696.8 1088.1 698.5 1096.3 700.3 1104.2 702.3 1111.1 704.5 1119.6 706.2 1129 706.2 1134.8 706.1 1138.4 706.4 1143.3 707.3 1160.2 709.2 1176.8 711.8 1186.3 713.6 1187.3 714 1188.2 715 1188.4 717.6 1187.7 720.1 1186.5 726.6 1186 730.2 1185.8 733 1186.2 735.1 1188 737.5 1191.6 738.4 1197.5 739 1203.8 739.7 1207.2 739.9 1209.4 741 1210 743.1 1209.6 748.1 1199.2 806.9 Z" data-holc_grade="D"/>
<path d="M 973.9 489.4 973.5 489 976.2 482.6 980.4 482.6 986.8 484.5 1014.4 490.2 1057.2 498.5 1057.9 511.3 1057.9 518.5 1063.6 521.1 1078.4 522.6 1110.9 527.9 1130.6 531.3 1132.1 534.7 1131.4 546.8 1127.2 560.7 1120.8 560.7 1099.6 555.8 1068.2 552.4 1045.4 548.3 1043.2 570.9 1050.4 575 1062.8 578.8 1075.7 580.3 1114.3 586.7 1121.5 587.9 1124.9 592.8 1123.8 598.4 1118.9 605.6 1114.3 607.8 1103.7 607.5 1079.5 601.8 1055.7 598.8 1045.1 596.9 1040.1 601.8 1037.1 608.6 1042.8 617.2 1048.5 618.4 1079.5 626.3 1102.6 631.2 1111.7 635 1115.8 640.6 1116.2 650.1 1115.4 657.6 1113.9 662.9 1078 657.2 1051.5 654.6 1019.7 648.1 990.1 642.9 969 639.8 959.9 637.6 957.6 630.8 956.8 628.9 973.9 489.4 Z" data-holc_grade="D"/>
<path d="M 374 756.6 356.7 865.6 357 869.8 370.7 872.4 391.1 873.6 404 875.5 408.1 879.2 410.4 887.9 408.9 899.6 396.7 955.8 397.5 964.4 399.4 967.4 422.5 974.3 426.2 980.7 418.6 1085.9 387.9 1133 229.6 1109.8 189.9 1107.6 88 1091.2 96.5 967.6 102.1 955.9 152.9 959.7 187.7 960.1 249 965.1 261.7 795.4 232 792.7 220.1 789.3 200.2 787 204.2 760.5 207.1 729.4 296.8 740.7 309.3 749.2 341.6 751.5 374 756.6 Z" data-holc_grade="D"/>
<path d="M 930.9 667.6 925.6 663.5 914.2 661.2 853.7 654 837.4 649.1 822.2 646.5 768.5 642.3 725.7 638.9 670.5 637.7 635.6 635.8 584.5 633.5 568.6 631.6 521.7 633.1 520.6 593.4 509.1 537 513.4 467.6 509.5 452.5 522 365.3 535.6 314.3 537.4 301.4 545.3 285.7 559.9 249.5 584.7 196.5 585 189.8 582.6 182.6 562.7 174.1 554.4 168.7 547 163.7 518.6 158.5 499.5 158.9 472.3 161.9 453.5 164.3 441.4 161.9 436.3 154.7 433.3 145.3 435.4 133.3 440.5 124.2 452.7 117.6 469.9 108 469.3 89.3 465.7 85.4 438.1 87.5 435.7 89.6 433.9 95.3 432.7 99.8 383 106.1 323.7 110.3 318.2 37.1 315.5 22.6 337.9 16.6 400 10.9 476 2.3 495.2 3.5 524.9 11 591.7 25.8 687.4 51.2 731.4 71.4 756.2 80.2 770.4 89.2 786.8 103.1 812.5 129.4 846.4 172.8 893 226.5 903.9 243.7 983.8 341.7 967.4 364.6 963.2 374.8 949.9 485.5 937.1 597.1 937.1 622.7 930.9 667.6 Z M 740.1 555.9 723.3 551.6 712.8 550.9 700.3 547.1 656.5 541.6 587.9 531.6 582.7 550.9 594.9 558.3 607 558.3 636.9 562 673.3 567 673.7 569.9 680.8 571.5 730.3 576.9 774.1 581.9 778.4 562.7 740.1 555.9 Z" data-holc_grade="D"/>
<path d="M 1318.7 571.5 1359.2 574.5 1379.3 577.9 1367.2 690.6 1324.8 686.5 1301.3 684.6 1290.3 680.1 1287.3 674.8 1288.8 663.5 1294.5 644.2 1303.6 645.4 1308.5 641.6 1318.7 571.5 Z" data-holc_grade="D"/>
<path d="M 1584.5 740.4 1600.5 767.5 1626 811.9 1597.5 832.4 1543 823.3 1531.2 849 1522.1 880.1 1514.2 916.6 1511.5 962.4 1503.6 997.4 1496.7 1008.3 1484.8 1017 1480.9 1017.3 1471.5 1023 1463 1024.5 1327.6 1090.6 1338.3 992.5 1301.1 987.8 1288.8 983.9 1285.2 978.1 1293.1 941.2 1302.7 866.5 1301.3 863.8 1272.3 862.7 1234.8 856.1 1225.2 851.4 1223.6 847.7 1224.7 837.4 1234.7 791.5 1237.5 769.5 1240.5 736.6 1242 729.4 1242 720.3 1245 710.7 1250.2 712.8 1266.8 714.6 1268.1 724.3 1266.8 731.8 1262.9 780.7 1274.1 786.7 1288.2 787.3 1293.4 748.4 1293.4 731.8 1296.1 713.4 1361.5 720.1 1356.4 780.4 1344.9 838.3 1334 914.9 1332.7 937.8 1342.1 943.6 1349.7 944.8 1361.2 943 1364.5 935.7 1369.7 905.9 1371.8 879.6 1385.5 799.7 1389.4 781.9 1391.8 760.2 1396.7 722.5 1483.3 733.3 1584.5 740.4 Z" data-holc_grade="D"/>
<path d="M 1694 997.7 1642.2 1046.3 1604.9 1020.9 1584 969.9 1581.3 963.6 1580.1 955.8 1624.6 932.5 1629.7 924.7 1632.8 915 1634.3 908.1 1642.5 909 1652.2 903.3 1672.1 891.8 1688.5 924.1 1671.2 939.5 1670 950 1673.7 957.6 1684 972.6 1694.6 980.8 1697.9 986.2 1697.6 993.5 1694 997.7 Z" data-holc_grade="D"/>
<path d="M 1387.7 1400.8 1336.2 1436.1 1321.2 1451.4 1298.8 1446.9 1277.3 1434.8 1241.3 1419 1238.9 1411.8 1231.6 1403.9 1218.3 1389.4 1220.7 1353.5 1220.7 1323.4 1210.1 1307.4 1234.1 1162.6 1241.1 1113.7 1245.6 1101 1274.1 1102.8 1325.3 1108.9 1347.7 1191.8 1371.6 1224.7 1368.6 1233.2 1356.5 1245.2 1337.1 1254.3 1328.3 1261.2 1333.8 1276.6 1355.9 1311.3 1365.6 1328.2 1371.9 1346.3 1381.3 1361.7 1387.7 1400.8 Z" data-holc_grade="D"/>
<path d="M 1125 1341.5 1138.8 1403.9 1143.5 1427.5 1147.8 1458.1 1147.8 1485.9 1152.5 1507.1 1151.1 1515.2 1159.1 1546.8 1160.5 1556.7 1163 1580.2 1164.8 1590.5 1173.3 1615.5 1180.3 1644.2 1183.3 1674.4 1184.8 1686.7 1198.1 1724.2 1225.1 1724.2 1231.2 1719.4 1233.9 1710.9 1233.9 1697.3 1228.1 1665 1225.7 1647.5 1227.2 1637.6 1235.7 1631.2 1246.6 1627.3 1274.5 1623.1 1295.1 1617.7 1292.4 1515.1 1286.1 1466.5 1277.3 1434.8 1298.8 1446.9 1321.2 1451.4 1317 1461.3 1314.8 1469.2 1314.2 1490.9 1312.1 1516.3 1312.1 1540.7 1313.6 1550.1 1311.5 1574.5 1314.8 1597.4 1312.4 1657.2 1311.8 1666.9 1312.4 1735.7 1310.6 1741.1 1308.4 1744.1 1303 1748.9 1293 1752.9 1276.3 1758 1256.9 1765.2 1242.7 1774.6 1263 1887.5 1272.4 1890.8 1338.4 1872.7 1361.8 1861.2 1382.1 1847.3 1392.7 1985.6 1338.1 2024.8 1341.7 2089.4 1339.6 2093.6 1296.9 2109 1287.8 2107.2 1282.6 2104.2 1266.3 2048.1 1259.6 2008.5 1250.8 1981.6 1236.6 1986.8 1232.9 1993.7 1183.3 2015.6 1181.5 1985.1 1181.8 1973.6 1185.8 1932.6 1178.2 1837.8 1170.7 1781.6 1169.4 1755.1 1160.7 1695 1149.8 1654.9 1148.3 1641.6 1146.1 1629.8 1134.6 1590 1134 1580.9 1131.9 1573.1 1127.4 1552.3 1091.5 1504.1 1078.3 1491.3 1084.9 1435.2 1086.3 1418.2 1091.6 1394.7 1092.5 1379.6 1093.9 1360.3 1101.8 1339.6 1125 1341.5 Z" data-holc_grade="D"/>
<path d="M 853.3 1756.7 854.7 1721.3 855.7 1646.4 905.4 1646.4 947.6 1644 997.9 1642.8 998.2 1657.9 997 1669.4 1001.6 1738.5 1000.6 1756.3 984.3 1751.5 963.7 1749.6 904.6 1751.4 881.5 1751.1 853.3 1756.7 Z" data-holc_grade="D"/>
<path d="M 736.2 1876.9 729.9 1925.1 730.5 1967 730.4 2006.1 726.4 2061.5 720.7 2073.4 694.6 2115.3 664.4 2152.6 626.9 2196.2 623.5 2174.1 625.3 2053.5 627.1 1904.7 626.5 1893.9 630.2 1872.1 666.2 1870.7 689.8 1873.1 736.2 1876.9 Z" data-holc_grade="D"/>
<path d="M 1100.9 1161.4 1112.2 1163.8 1116.4 1163.8 1145.4 1163.8 1167.2 1168.5 1160 1237.4 1147.3 1262.3 1138.7 1279.8 1128.3 1323.1 1125 1341.5 1101.8 1339.6 1077.6 1336.8 1041.7 1332.1 1029.4 1332.5 1013.7 1329.2 1011.4 1341.5 1010.4 1402.8 978.7 1434.8 946.5 1471.1 926.6 1486.7 892.6 1411.7 836.7 1307 840.1 1299.5 839.6 1294.3 824 1269.3 848.1 1242 860.4 1229.2 863.8 1225 862.3 1220.8 858.1 1219.3 849.6 1217.5 839 1215.8 861.8 1165.3 885.6 1123.1 884.9 1115.2 897.9 1077.5 908.3 1016.2 956.6 1025.6 968.4 1025.6 1004.4 1029 1035.6 1036 1042.7 1037 1047.4 1035.1 1056.9 1031.8 1047 1063.9 1017.6 1062.4 993.9 1057.2 958.5 1052.5 944.2 1155.7 947 1167.5 955.6 1186.9 969.8 1209.5 977.8 1218 1009.5 1254.3 1019.4 1264.2 1049.3 1283.1 1090.4 1311.8 1101.8 1317 1115.5 1318 1121.7 1285 1100.9 1161.4 Z" data-holc_grade="D"/>
</g>
</svg>