<?xml version="1.0"?>
<svg xmlns="http://www.w3.org/2000/svg" version="1.2" baseProfile="tiny" width="3000" height="2026" viewBox="0 0 3000 2026" stroke-linecap="round" stroke-linejoin="round">
<g id="A">
<path d="M 1165.9 1048.2 1314.6 1047 1327.4 994.8 1565.3 1009.6 1541.9 1167.6 1281.6 1161.5 1281.1 1216.9 1157.5 1206.3 1165.9 1048.2 Z" data-holc_grade="A"/>
<path d="M 1972.2 929.2 1965.3 1077.7 1883.5 1111.7 1865.1 1103.3 1832.3 1099 1845.6 993.8 1802.1 986.5 1806.2 938.1 1613.8 920.4 1625.7 781.6 1622.9 769.6 1597.3 768.6 1602.4 735.2 1650.7 740.3 1644.4 856.8 1801.7 868 1851.6 880.5 1905.7 897.5 1918.2 804.6 1987.5 811.4 1972.2 929.2 Z" data-holc_grade="A"/>
<path d="M 1864.7 531.5 1886.8 541.1 1892 563.4 1919.3 593.1 1941.4 599.5 1930.3 690.3 1817.2 676 1829.6 529.4 1864.7 531.5 Z" data-holc_grade="A"/>
<path d="M 2367.2 1225.2 2327.3 1225.4 2324.7 1334.8 2298.7 1334.8 2297.4 1377.2 2266.1 1377.3 2269.6 1235.4 2134.8 1236.1 2132.1 1219.4 2118.8 1219.4 2070 1180.3 2089.5 1180.2 2117.9 1141.1 2117.9 1157.8 2192.4 1156.3 2196.9 1088.1 2223.5 1054.7 2245.6 1059.8 2279.3 1057.6 2300.6 1056.2 2329 1060.5 2346.8 1056.9 2372.5 1066.3 2367.2 1225.2 Z" data-holc_grade="A"/>
<path d="M 2500.3 920.2 2625.5 900.4 2630.6 899.6 2624.9 1001.2 2615.3 1002.9 2487.8 999.5 2482.3 979.1 2498.9 957.6 2500.3 920.2 Z" data-holc_grade="A"/>
<path d="M 2636.7 787.8 2627.8 876.8 2600.5 874.8 2602.2 787.8 2636.7 787.8 Z" data-holc_grade="A"/>
<path d="M 2787.1 1067.7 2786.7 1062 2795.6 879.2 2963.3 852.3 2947.9 1064.4 2999 1065.8 2996.1 1237.6 2559.7 1226 2562.3 1205.6 2573 1175.9 2587.2 1169.4 2612.9 1167.9 2614.5 1059.3 2635.1 1060.2 2694.7 1060.9 2676 1107.1 2675.8 1115.8 2687.8 1120.3 2905.2 1161.7 2906.5 1157 2906.3 1143.8 2910.2 1128.5 2912.6 1112.6 2909.1 1098.5 2905.2 1096.4 2842.3 1095.6 2831.8 1092.9 2823.7 1084.1 2820.7 1068.3 2801.7 1067.8 2787.1 1067.7 Z" data-holc_grade="A"/>
</g>
<g id="B">
<path d="M 1484.6 360.6 1481.3 435.4 1807.3 470 1808.1 490.4 1813.1 514.9 1829.6 529.4 1817.2 676 1619.6 656.7 1615.8 700.6 1656.3 705 1650.7 740.3 1602.4 735.2 1597.3 768.6 1622.9 769.6 1625.7 781.6 1613.8 920.4 1806.2 938.1 1802.1 986.5 1845.6 993.8 1832.3 1099 1865.1 1103.3 1883.5 1111.7 1881.9 1181 1992 1180.6 1989.3 1305 1992.8 1317.4 1919.7 1383.7 1896 1369.1 1856.2 1369.5 1859.8 1260.8 1698.3 1257.2 1693 1338.4 1535.1 1335.5 1538.7 1220.2 1400.3 1223.6 1298.7 1227.8 1156.8 1220.8 1157.3 1211.4 1157.5 1206.3 1165.9 1048.2 1167.9 1011.9 1166.1 952.5 1183.8 955.4 1205.1 709.5 1216.3 662.2 1129.2 652.6 1138.3 567.6 1216.3 543.2 1334.5 548.5 1348.8 426.4 1419 431.7 1421.6 360.5 1484.6 360.6 Z M 1702.9 1157.7 1703.9 1170.8 1711.8 1170.8 1718.9 1168.8 1742.4 1159.1 1702.9 1157.7 Z" data-holc_grade="B"/>
<path d="M 1856.2 1369.5 1896 1369.1 1919.7 1383.7 1863.3 1434.9 1851.8 1427.7 1757.8 1427.7 1754.2 1527.8 1409.5 1532.3 1354 1476.8 1356.8 1411 1293.1 1407.6 1262.6 1378.1 1287.5 1349.8 1329.1 1355.5 1333.2 1297.6 1365.1 1296.5 1365.1 1244.4 1492.6 1327.1 1401.2 1324.9 1401.2 1396.3 1521.7 1402 1523.1 1381.5 1578.6 1381.5 1660.3 1432.6 1659 1371.3 1856.2 1369.5 Z" data-holc_grade="B"/>
<path d="M 1069.4 1792 1069.9 1817 988.1 1827.2 914.7 1848.7 878.6 1875.9 852.3 1913.4 845.4 2024.5 655.5 1992.8 546 1991.6 583.9 1939.7 635.9 1874.2 709.5 1810.4 785.3 1783.8 949.9 1789.1 1069.4 1792 Z" data-holc_grade="B"/>
<path d="M 2070.4 555.3 2056.5 654.9 2050.1 701.2 1930.3 690.3 1941.4 599.5 1919.3 593.1 1892 563.4 1886.8 541.1 1864.7 531.5 1871.2 491.2 1967.4 459.3 2005 461.4 2002.4 556 2070.4 555.3 Z" data-holc_grade="B"/>
<path d="M 1987.5 811.4 1918.2 804.6 1914.9 799.3 1922.2 755.9 1990.9 763.3 1987.5 811.4 Z" data-holc_grade="B"/>
<path d="M 2963.3 852.3 2795.6 879.2 2787.1 1067.7 2635.1 1060.2 2614.5 1059.3 2612.9 1167.9 2587.2 1169.4 2573 1175.9 2562.3 1205.6 2559.7 1226 2996.1 1237.6 2995.2 1361.6 2685.6 1359.5 2646.1 1373 2641.3 1436.3 2639.1 1514.8 2623.7 1514.3 2590.2 1515.7 2593.4 1429.8 2213.7 1425.5 2211.9 1377.6 2266.1 1377.3 2359.2 1376.9 2355.6 1355.8 2440.8 1354.4 2445.2 1226 2367.2 1225.2 2372.5 1066.3 2346.8 1056.9 2329 1060.5 2300.6 1056.2 2279.3 1057.6 2245.6 1059.8 2223.5 1054.7 2196.9 1088.1 2192.4 1156.3 2117.9 1157.8 2117.9 1141.1 2089.5 1180.2 2070 1180.3 1992 1180.6 1881.9 1181 1883.5 1111.7 1965.3 1077.7 1972.2 929.2 2144.1 990.8 2162.1 997.2 2231.4 973.4 2332.6 941.7 2416.5 930.9 2500.3 920.2 2498.9 957.6 2482.3 979.1 2487.8 999.5 2615.3 1002.9 2624.9 1001.2 2630.6 899.6 2625.5 900.4 2627.8 876.8 2636.7 787.8 2639.5 759.5 2960.6 767.5 2963.3 852.3 Z" data-holc_grade="B"/>
<path d="M 2818.7 675.8 2893.2 678 2891.6 721.9 2816 720.6 2818.7 675.8 Z" data-holc_grade="B"/>
<path d="M 2962.2 673.6 2891.6 671 2892.1 641.4 2962.7 643.6 2962.2 673.6 Z" data-holc_grade="B"/>
</g>
<g id="C">
<path d="M 1205.1 709.5 1183.8 955.4 1166.1 952.5 1167.9 1011.9 1165.9 1048.2 1157.5 1206.3 1157.3 1211.4 1156.8 1220.8 1298.7 1227.8 1400.3 1223.6 1538.7 1220.2 1535.1 1335.5 1693 1338.4 1698.3 1257.2 1859.8 1260.8 1856.2 1369.5 1659 1371.3 1660.3 1432.6 1578.6 1381.5 1523.1 1381.5 1521.7 1402 1401.2 1396.3 1401.2 1324.9 1492.6 1327.1 1365.1 1244.4 1365.1 1296.5 1333.2 1297.6 1329.1 1355.5 1287.5 1349.8 1262.6 1378.1 1293.1 1407.6 1356.8 1411 1354 1476.8 1409.5 1532.3 1754.2 1527.8 1669.9 1581.5 1668.3 1673.7 1140.4 1663.5 1145.7 1552.5 1027.7 1551 1025.1 1662.1 1009.1 1660.6 1069.4 1792 949.9 1789.1 785.3 1783.8 709.5 1810.4 635.9 1874.2 583.9 1939.7 293.7 1936.2 289.4 1877.7 267.7 1822.8 376 1702.3 402 1643.8 601 1648.3 609 1527.1 560.2 1527.8 555.8 1450.9 547.8 1416.8 504.3 1416.1 500.8 1403.7 503.5 1293.4 616.1 1300.7 728.8 1304.3 727.6 1336.9 970.6 1344.4 972.8 1309.1 1058 1311.4 1067.1 1209.2 1105.9 1217.2 889.7 1024.5 857.8 988.2 868.9 922.4 876 923.2 913.3 927.4 1103.2 948.5 1124 701.4 1205.1 709.5 Z M 1287 1412.6 1282.9 1494.8 1321.7 1494.6 1322.8 1453 1287 1412.6 Z M 1204.1 1438.4 1152 1437.3 1149 1492 1202.2 1492 1204.1 1438.4 Z" data-holc_grade="C"/>
<path d="M 1138.3 567.6 1129.2 652.6 1009.7 648.5 1012.8 574.7 1111.6 568.3 1138.3 567.6 Z" data-holc_grade="C"/>
<path d="M 1078.9 238 1147.7 239.7 1147.3 338 1076.1 365.6 1078.9 238 Z" data-holc_grade="C"/>
<path d="M 1871.2 491.2 1864.7 531.5 1829.6 529.4 1813.1 514.9 1808.1 490.4 1807.3 470 1481.3 435.4 1484.6 360.6 1550.3 364.7 1552.8 382.3 1639.3 387.8 1689.2 402.1 1705 404.8 1729.9 409.5 1777.3 412.2 1873.8 421.1 1871.2 491.2 Z" data-holc_grade="C"/>
<path d="M 2892.1 641.4 2891.6 671 2962.2 673.6 2960.6 767.5 2639.5 759.5 2510.8 758.3 2500.3 920.2 2416.5 930.9 2415.6 900.2 2419.5 671.8 2294.8 514.5 2220.7 535.8 2184.4 722.8 2144.1 990.8 1972.2 929.2 1987.5 811.4 1990.9 763.3 1922.2 755.9 1930.3 690.3 2050.1 701.2 2056.5 654.9 2070.4 555.3 2178.4 537 2185.9 524.8 2186.9 448.2 2173.1 414.3 2142.2 366.4 2083.1 321.6 2027.8 297.3 1972.4 286.4 1910.7 282 1914.5 98.9 1950.3 100.2 1961.1 77.1 1976.9 53.3 2001.9 34.3 2009.4 6.4 2029.3 1 2048.4 17.3 2047.6 100.9 2631.3 108.8 2627.4 495.4 2965.3 495.4 2962.7 643.6 2892.1 641.4 Z M 2494.5 229.4 2524.4 230.7 2525.4 190.2 2495.6 189.8 2494.5 229.4 Z M 2818.7 675.8 2816 720.6 2891.6 721.9 2893.2 678 2818.7 675.8 Z" data-holc_grade="C"/>
<path d="M 2266.1 1377.3 2211.9 1377.6 2102.8 1376.1 2103.7 1298.5 2064.7 1295.6 2069.1 1222.3 1992.8 1317.4 1989.3 1305 1992 1180.6 2070 1180.3 2118.8 1219.4 2132.1 1219.4 2134.8 1236.1 2269.6 1235.4 2266.1 1377.3 Z" data-holc_grade="C"/>
<path d="M 2590.2 1515.7 2529.5 1530.7 2209.3 1524.2 2213.7 1425.5 2593.4 1429.8 2590.2 1515.7 Z" data-holc_grade="C"/>
<path d="M 2995.2 1361.6 2988.1 1522 2639.1 1514.8 2641.3 1436.3 2646.1 1373 2685.6 1359.5 2995.2 1361.6 Z" data-holc_grade="C"/>
</g>
<g id="D">
<path d="M 1914.5 98.9 1910.7 282 1972.4 286.4 2027.8 297.3 2083.1 321.6 2142.2 366.4 2173.1 414.3 2186.9 448.2 2185.9 524.8 2178.4 537 2070.4 555.3 2002.4 556 2005 461.4 1967.4 459.3 1871.2 491.2 1873.8 421.1 1777.3 412.2 1729.9 409.5 1705 404.8 1689.2 402.1 1639.3 387.8 1552.8 382.3 1550.3 364.7 1484.6 360.6 1421.6 360.5 1419 431.7 1348.8 426.4 1334.5 548.5 1216.3 543.2 1138.3 567.6 1111.6 568.3 1012.8 574.7 1009.7 648.5 1129.2 652.6 1216.3 662.2 1205.1 709.5 1124 701.4 1103.2 948.5 913.3 927.4 917.5 895.1 881.9 892.1 876 923.2 868.9 922.4 857.8 988.2 889.7 1024.5 1105.9 1217.2 1067.1 1209.2 1058 1311.4 972.8 1309.1 970.6 1344.4 727.6 1336.9 728.8 1304.3 616.1 1300.7 503.5 1293.4 500.8 1403.7 504.3 1416.1 547.8 1416.8 555.8 1450.9 560.2 1527.8 609 1527.1 601 1648.3 402 1643.8 376 1702.3 267.7 1822.8 289.4 1877.7 293.7 1936.2 225.1 1936.6 125.6 1934.8 87.3 1919.6 100 1629 101.6 1520.8 5.2 1513.3 1 1482 8.5 1474.5 9.3 1463.6 4.3 1446.6 11 1432.3 23.5 1413.3 21 1399 17.6 1370.4 9.3 1352.1 11.8 1334.4 22.6 1315.3 40.9 1300.4 26.8 1298.3 55.9 1247.3 105.3 1186.1 171.6 1123.4 258.6 1063.8 287.2 1047.9 453.6 885.3 471.7 849.2 489.9 819.4 505.5 770.6 510.7 749.3 514.6 718.5 534.1 672.8 548.2 625.7 557.4 599.9 578.1 551.6 613.9 512.9 641.3 449.6 637.2 366.7 644.7 357.2 671.3 306.9 685.4 243.7 683.8 105 675.4 89.4 651.3 80.5 621.4 24.1 635.5 4.4 691.2 7.8 724.5 17.3 752.8 7.1 789.4 8.5 894.2 11.2 888.3 71.7 883.3 232.1 972.3 233.5 981.5 93.4 1081.3 96.8 1082.1 116.5 1287.5 113.1 1488.8 113.8 1657.6 105 1710.8 99.6 1914.5 98.9 Z M 1078.9 238 1076.1 365.6 1147.3 338 1147.7 239.7 1078.9 238 Z M 857.1 673.9 904.1 677.5 908.2 656.9 903.8 651.6 849.3 637.4 857.1 673.9 Z" data-holc_grade="D"/>
<path d="M 2416.5 930.9 2332.6 941.7 2231.4 973.4 2162.1 997.2 2144.1 990.8 2184.4 722.8 2220.7 535.8 2294.8 514.5 2419.5 671.8 2415.6 900.2 2416.5 930.9 Z" data-holc_grade="D"/>
<path d="M 2211.9 1377.6 2213.7 1425.5 2209.3 1524.2 2152.5 1521.8 2136.5 1927.7 1969.8 1918.3 1667.1 1735.9 1668.3 1673.7 1669.9 1581.5 1754.2 1527.8 1757.8 1427.7 1851.8 1427.7 1863.3 1434.9 1919.7 1383.7 1992.8 1317.4 2069.1 1222.3 2064.7 1295.6 2103.7 1298.5 2102.8 1376.1 2211.9 1377.6 Z" data-holc_grade="D"/>
</g>
</svg>