<?xml version="1.0"?>
<svg xmlns="http://www.w3.org/2000/svg" version="1.2" baseProfile="tiny" width="3000" height="3460" viewBox="0 0 3000 3460" stroke-linecap="round" stroke-linejoin="round">
<g id="A">
<path d="M 2124 842.7 2048.6 847 1918.2 847.5 1949.3 776.1 2018.3 773.4 2019.7 785.4 2126.9 784.3 2124 842.7 Z M 1864.7 871.9 1682.1 880.5 1675.7 751.7 1676.9 738.2 1674.7 671.4 1741.7 667.2 1740.5 644.9 1808.3 646.4 1807.9 624.8 1841 627 1878.1 625.2 1882.5 728.9 1928.7 726.4 1864.7 871.9 Z" data-holc_grade="A"/>
<path d="M 1791.6 2597.8 1780.3 2603.7 1759.2 2609.2 1744.9 2610.9 1737.2 2614.7 1694.8 2640.8 1688.7 2646.6 1679.8 2650.6 1647.2 2667.5 1629.7 2689.1 1624.3 2700.3 1619.8 2708.1 1612.5 2722.7 1608.6 2726.7 1594 2733.6 1585.7 2740.2 1572.3 2744.8 1558.5 2754.6 1545.8 2760.4 1539.4 2766.1 1527.9 2771.8 1502.4 2781.9 1486.8 2790.5 1467.3 2749.1 1434.1 2709.5 1468.6 2698.3 1532.2 2658.6 1629.4 2591.1 1699.6 2542.6 1727.2 2558.3 1740.8 2567.2 1758.5 2579.1 1791.6 2597.8 Z" data-holc_grade="A"/>
<path d="M 1330.1 2844.9 1320.9 2851.8 1299.2 2863 1266.6 2882.8 1272.7 2855.8 1269.6 2781.3 1281.9 2778.6 1306.5 2765.3 1354 2827.3 1330.4 2844.8 1330.1 2844.9 Z" data-holc_grade="A"/>
<path d="M 1532.2 2658.6 1468.6 2698.3 1434.1 2709.5 1307.6 2752.8 1306.4 2758.2 1281.7 2767.1 1276.9 2688.4 1274.9 2656.9 1365.4 2656.1 1365.4 2572.5 1399.8 2568.1 1415.1 2559.5 1441.9 2593.7 1522.6 2538.5 1572.4 2600.9 1515.9 2639.1 1532.2 2658.6 Z" data-holc_grade="A"/>
<path d="M 1274.9 2656.9 1276.9 2688.4 1246.4 2689.5 1233.2 2689.2 1201.3 2691.3 1165.4 2690.6 1163.4 2610.9 1161.4 2580.7 1145.1 2580.7 1141.9 2541.2 1230.4 2541.2 1259.9 2541.9 1263.1 2598.3 1229.6 2597.2 1232.4 2660.1 1248.8 2660.8 1274.9 2656.9 Z" data-holc_grade="A"/>
<path d="M 486.2 3340.6 496.4 3337.1 554.8 3339.7 609.7 3336.9 614.4 3412.2 603 3441.5 609 3442.6 608.4 3458.2 604.9 3458.7 592.1 3450.7 588.6 3448.1 581.3 3448.4 579 3437.5 573.3 3429.4 565.3 3421.9 554.8 3412.7 545.5 3404.4 540.1 3402.1 511.4 3395.5 508.5 3391.5 486.2 3340.6 Z" data-holc_grade="A"/>
<path d="M 498.9 2910.1 443.3 2912.9 390.7 2898.9 386 2850 307.3 2851.9 294.6 2847.4 280.7 2839.8 276.9 2836.8 263.7 2805.8 260.6 2800 255.8 2797.6 227.4 2797.2 229.3 2855.6 234.1 2876.3 237.9 2914.6 277.8 2961.8 254.2 2964 212.3 2918.9 203.7 2867.6 196.2 2748.9 201.3 2741.8 201.8 2687.5 199.8 2659.9 208 2654.1 218 2641.8 221.4 2637.7 240.8 2630.8 244.6 2632.5 388.4 2628.6 397 2635.5 403.2 2636.4 410.4 2640.9 422.1 2646.7 515.2 2684 518.1 2725 501.3 2726.5 499.9 2717.6 488.9 2706.2 481.2 2701.9 401.1 2666.3 386.5 2661.2 378.3 2659.7 373.1 2656.2 361.4 2656.9 344.6 2658.4 331.7 2658.6 322.1 2657.9 305.1 2660.1 294.1 2659.2 283.1 2659.7 260.9 2662.5 255.8 2661.6 251 2660.5 247.5 2660.7 240.5 2662.9 236 2667.9 234.8 2672.4 232.6 2674.1 229.3 2676.9 227.8 2680.6 228.1 2689.6 265.2 2687.3 296.5 2686.6 303.4 2686 377.9 2684.9 400 2697.2 425.8 2707.9 437.8 2714.4 439.7 2719.4 446.2 2727.8 443.8 2746.3 447.6 2757.9 449 2770.4 452.6 2854.3 494.3 2853 497.6 2875.6 498.9 2910.1 Z" data-holc_grade="A"/>
<path d="M 2033.9 1189.3 1911.1 1193 1907.9 1091.4 1974.7 1092.7 1978.7 1169.6 2043.5 1167.5 2047.7 1171.1 2052.7 1175 2061.9 1176.1 2058.5 1181.3 2055.5 1181.1 2044.7 1187 2033.9 1189.3 Z M 1905.9 1008.3 1996.8 1006.2 2060.4 1004.4 2078.6 1007.4 2077.5 1010.8 2078.3 1017 2091.7 1051.7 2077.1 1049.5 1996.3 1053.5 1922.2 1054.6 1906.6 1055.8 1905.9 1008.3 Z" data-holc_grade="A"/>
<path d="M 1878.3 1381.9 1899.6 1346 1964.7 1344.9 1966.3 1350.9 1972.7 1368.4 1975.5 1396.8 1984.5 1417.2 1850.8 1421.5 1871.2 1393.7 1878.3 1381.9 Z" data-holc_grade="A"/>
<path d="M 2934.9 645.9 2827 650.5 2821.5 578.4 2825.8 567.9 2828.6 556.9 2879.1 552.9 2925.5 552 2934.9 645.9 Z" data-holc_grade="A"/>
<path d="M 2645.4 1013.7 2659.6 1013.8 2682.7 1010.1 2671.7 980.3 2682.7 981.7 2708.4 971.1 2757.9 946 2785.4 935.2 2805.1 929.1 2821.3 926.3 2821.3 940.3 2803.7 944 2767.7 955.2 2781.8 988.5 2768.3 994.1 2758.3 998.8 2747.3 1005.6 2732.4 1014.4 2697.1 1028.4 2698.5 1037.7 2679.7 1042.7 2652.6 1044.2 2636.8 1047.4 2642.6 1031.3 2645 1025 2645.4 1013.7 Z" data-holc_grade="A"/>
<path d="M 2919.8 1132.5 2910 1132.8 2907.2 1132.1 2893.3 1045.2 2892.5 1040 2894.9 1033.6 2897 1029.5 2900.8 1027.7 2905.6 1027.7 2911.8 1029.6 2915.2 1033.8 2918.2 1043.5 2919.8 1058.2 2922.4 1080.2 2925.8 1087.4 2930.3 1095.1 2938.9 1124.6 2934.7 1124.6 2930.5 1125.3 2926 1128.3 2919.8 1132.5 Z M 2878.1 1086.7 2874.5 1089.2 2866.3 1088.9 2860 1088.7 2849.4 1091 2833.8 1095.5 2826.1 1097.5 2816.7 1100.7 2812.1 1102.7 2802.7 1101.2 2792.4 1102 2787.8 1100.5 2776.8 1100.9 2769.8 1097.8 2763 1092.4 2760.5 1086.7 2758.9 1078.4 2758.5 1074 2759.5 1068.6 2765.4 1059.6 2768.6 1053.7 2775.2 1045.8 2780 1040.8 2786.2 1034.3 2795 1028.6 2799.9 1028.4 2808.9 1028 2819.5 1024.4 2826.1 1023.4 2832 1023.4 2842 1025 2851.2 1027.5 2860.4 1033.8 2869.1 1039.9 2872.3 1047.8 2875.9 1058.5 2878.5 1067 2879.7 1078.1 2878.1 1086.7 Z" data-holc_grade="A"/>
<path d="M 2959.9 1143.9 2975.3 1145.6 2989 1144.2 2987.1 1222 2982.3 1275.4 2984.2 1282.3 2984.2 1303.5 2985.5 1312.4 2983.9 1319.9 2980.7 1335.7 2981.3 1351.5 2983.6 1373 2981.6 1403.8 2974.6 1448.8 2971.4 1473 2967.9 1487 2967 1506.6 2958.7 1550.2 2954.5 1564 2953.2 1577.2 2952.6 1608.2 2928.7 1603.3 2929.6 1581.5 2933.8 1558 2939.8 1536.4 2940.8 1516.9 2949.4 1449.1 2955.8 1427.6 2957.1 1405.8 2953.6 1379.6 2955.8 1353.2 2955.2 1329.4 2958.3 1309.9 2959 1249.3 2957.4 1236.9 2955.2 1222 2955.2 1211.9 2957.1 1199 2958 1155.4 2959.9 1143.9 Z" data-holc_grade="A"/>
<path d="M 2553.1 1897.2 2556.1 1898.1 2562.3 1898.1 2567.1 1896.7 2574.9 1898.5 2582.7 1897.4 2597.2 1898.1 2605.6 1899.7 2613.6 1899 2616.6 1899.5 2619.3 1903.3 2621.1 1908.3 2621.1 1914.4 2621.9 1919.7 2617.2 1926.5 2611.2 1929 2606.8 1929.9 2602.4 1930.1 2596 1928.1 2586.2 1929.7 2579.3 1927.4 2573.7 1928.1 2568.7 1927.6 2565.9 1927.2 2559.1 1927.7 2555.3 1927.4 2550.4 1925.4 2543.6 1916.6 2543.2 1912.8 2535.6 1907.4 2533.4 1904.2 2534 1900.6 2538 1897.2 2540.8 1896.3 2544.4 1896.9 2553.1 1897.2 Z M 2532.2 1865.6 2536.4 1867.1 2546.4 1867.1 2556.3 1867.1 2569.3 1866.3 2576.7 1868 2615.6 1867.2 2619 1867.2 2619.7 1868 2621.7 1873 2623.7 1878.9 2623.5 1885.4 2618.6 1892.2 2610.4 1891.6 2603.8 1889.9 2598.8 1889.7 2585.3 1889.5 2568.7 1890.2 2554.9 1889 2542.8 1890 2533.4 1887.9 2525.2 1887.9 2519.8 1884.8 2519.6 1881.6 2519.2 1878.7 2513.5 1870.1 2516.7 1868 2532.2 1865.6 Z M 2559.9 1822 2565.3 1822.7 2574.7 1820.4 2584.9 1821.1 2592.2 1821.1 2598.8 1818.9 2616.8 1818.9 2617.8 1820.2 2617.6 1834.4 2619.9 1848 2619.9 1852.7 2618.8 1855.6 2617 1858.8 2611.4 1859.2 2602.8 1858.3 2591 1859.3 2580.7 1858.3 2569.9 1858.6 2554.5 1859.5 2541.4 1859.9 2530.8 1859 2522 1858.1 2518.1 1857.2 2515.7 1857.9 2511.9 1856.1 2508.1 1851.4 2504.9 1845.9 2505.9 1828.6 2507.3 1825.2 2509.5 1822.2 2510.3 1819.1 2513.5 1817.9 2532.4 1818 2551.6 1819.1 2559.9 1822 Z M 2616.6 1804.4 2615 1805.8 2574.9 1805.3 2534.4 1802.8 2531.6 1801.2 2530.2 1799.6 2528.8 1795.8 2528.8 1792.2 2533.2 1786.8 2545 1778.4 2559.9 1772.3 2578.5 1767.2 2590.8 1765.4 2601.8 1765.4 2612 1767.8 2614.8 1770.7 2616.6 1775.7 2619.3 1780.5 2617.8 1787.9 2618 1795.2 2617.4 1802.2 2616.6 1804.4 Z M 2649.1 1930.3 2620.1 1962.5 2616.6 1936.4 2623.9 1926 2627.7 1917.7 2627.7 1906.2 2630.3 1898.7 2634.4 1897 2642.1 1895 2644 1890.7 2645.9 1869.7 2642.7 1849.6 2644.6 1836.7 2641.4 1804.8 2640.5 1799.1 2637.6 1795.6 2629.6 1795 2626.4 1787.3 2624.2 1782.1 2625.5 1776.9 2632.2 1763.4 2640.2 1751.9 2665.1 1735 2671.8 1729.5 2681.6 1718.3 2697.3 1723.2 2703.7 1727.5 2702.7 1735.3 2686.7 1751.7 2675.3 1768.9 2667.9 1791.9 2671.8 1802.2 2674.6 1844.4 2675.3 1888.7 2649.1 1930.3 Z M 2890.4 1701.5 2890.1 1713.7 2886.8 1728.8 2877.7 1749.3 2867.9 1768 2864 1778.8 2862.1 1786.3 2861.2 1796.3 2861.2 1817.8 2859.7 1824.5 2860.4 1833.9 2859.2 1843.9 2852.8 1852.9 2842 1860 2814.3 1874 2822.4 1838 2829.3 1797.5 2777.2 1809.4 2726.4 1921.4 2707.1 1929.2 2736 1867.6 2744.6 1807.5 2769.3 1806.8 2787.7 1741.7 2792 1712.9 2775.5 1712.9 2766.9 1711.2 2764.3 1707.1 2762.8 1698.7 2765 1681.4 2771.7 1648.5 2839.6 1649.6 2867.9 1650.6 2889.9 1651.5 2891.5 1690 2890.4 1701.5 Z M 2770.8 1600.2 2767.9 1609.1 2760.6 1654.5 2757.1 1676 2752 1704.7 2744.7 1713.1 2734.4 1715.4 2716.3 1716.8 2684.4 1709.9 2683.7 1706.5 2683.7 1701.6 2694.6 1670.8 2693.9 1665.1 2693.3 1660.2 2692.3 1657.9 2688.2 1654.5 2676.4 1647.9 2667.1 1638.4 2660.1 1631.5 2657.2 1624.3 2656.9 1618.3 2655.3 1614.3 2653.1 1613.4 2651.8 1614.8 2648.9 1617.1 2644.8 1618.6 2641.9 1618.6 2638.7 1615.7 2636.8 1611.7 2637.1 1605.6 2639.7 1603.3 2641.3 1601.9 2644.2 1601.3 2649.3 1603.6 2653.7 1605.4 2655.6 1604.5 2654.4 1599.6 2654.7 1596.5 2657.6 1593.6 2663.3 1591.6 2670.6 1575.2 2673.5 1559.4 2678.3 1552.8 2681.5 1549.6 2682.8 1543.3 2680.5 1536.1 2679.6 1529 2679.6 1521.2 2678.3 1514.9 2677 1506.3 2678.3 1499.7 2683.7 1493.1 2689.5 1489 2694.6 1483.3 2695.5 1471.8 2699.3 1464.6 2704.8 1457.5 2710.2 1452 2717.9 1450 2726.5 1445.1 2732.2 1439.4 2736.7 1438.5 2745 1439.4 2750.1 1442.8 2774.3 1462.1 2788.4 1468.7 2793.5 1470.4 2795.7 1472.4 2803 1492.8 2805.3 1501.1 2804 1506.6 2799.2 1515.2 2799.5 1520.6 2799.2 1525.2 2797 1533.8 2770.8 1600.2 Z M 2904.2 1486.7 2900.1 1500.8 2900.1 1512 2906.1 1543.9 2910.6 1577.2 2894.7 1635.2 2841.1 1628 2772.8 1628 2776.6 1602.8 2787.8 1575.2 2800.9 1549.1 2806 1541.3 2807.6 1526.1 2809.5 1513.7 2812.3 1499.7 2818.1 1495.9 2840.1 1497.9 2849.4 1496.5 2853.8 1493.6 2863.1 1485.9 2882.5 1465.5 2887.6 1455.2 2892.4 1435.6 2897.8 1433.3 2903.3 1432.5 2919.2 1430.7 2927.8 1430.7 2930.4 1432.8 2932.9 1437.1 2919.2 1462.6 2904.2 1486.7 Z M 2888.3 1119.9 2896.6 1130.5 2903.6 1144 2904.6 1149.8 2908.7 1158.1 2910.3 1164.1 2916.4 1182.5 2919.9 1195.1 2922.5 1207.2 2924 1221 2925 1226.2 2923.7 1238.2 2922.5 1252.3 2921.8 1264.6 2923.1 1270.4 2929.5 1297.1 2930.1 1306 2927.6 1312.6 2922.5 1330.1 2920.2 1362.6 2923.4 1375.5 2924.7 1385 2922.8 1392.4 2925 1401 2926.9 1407.6 2927.9 1419.1 2927.6 1422.6 2903.9 1424.9 2891.2 1424.6 2887.4 1432 2881.3 1443.8 2878.4 1452.7 2877.8 1458.2 2874.9 1463.9 2873 1469.1 2866.9 1472.8 2863.1 1475.7 2859 1478.3 2856.1 1477.4 2852.6 1476.3 2848.4 1473.1 2844.3 1470 2840.5 1467.4 2837.3 1466.5 2833.1 1466.5 2827.4 1467.9 2822.6 1467.9 2813 1467.4 2797.4 1465.1 2785.9 1460.2 2778.9 1455.9 2777.6 1453 2767.7 1449 2763.9 1445.3 2757.8 1438.4 2753 1430.3 2752.4 1419.4 2755 1408.2 2761.3 1395.9 2768.4 1387.5 2782.1 1373.8 2789.1 1366.9 2796.4 1352.8 2801.5 1342.2 2804.7 1330.1 2805 1318 2799.9 1307.1 2796.4 1296.8 2794.2 1290.2 2790 1287.6 2783 1282.4 2780.2 1273.8 2775.7 1269.2 2771.2 1263.8 2769.3 1259.2 2762.9 1248 2755.6 1235.9 2754 1228.4 2760.1 1192.3 2758.8 1170.2 2780.5 1159.2 2787.8 1155.2 2795.8 1154.7 2802.2 1153.5 2816.5 1145.2 2824.8 1134.8 2845.2 1105.8 2848.4 1101.2 2853.9 1099.5 2860.2 1096.7 2873.3 1096.9 2879.7 1097.2 2881.6 1107.6 2888.3 1119.9 Z M 2795.6 1411 2827.9 1411.8 2829.9 1401.7 2835.5 1396.7 2858.2 1397.8 2877.7 1398.1 2885.7 1398.2 2885.3 1404.9 2884.5 1412.5 2895.7 1414.6 2902.1 1410.3 2903.7 1402.1 2899.7 1394.9 2893.3 1386.6 2894.5 1365.8 2892.5 1329.5 2896.1 1320.2 2896.1 1305.5 2898.1 1281.5 2901.7 1265.3 2900.5 1238.7 2898.5 1216.1 2893.7 1193.9 2887.3 1183.1 2883.3 1165.5 2870.6 1141.5 2865.8 1135.4 2859.4 1125.7 2843.4 1151.9 2835.5 1162.3 2828.3 1167.3 2810.7 1172.7 2802.4 1184.5 2796 1195.7 2792.8 1205.7 2791.2 1218.3 2792 1236.2 2796 1249.1 2803.2 1259.9 2809.9 1265.3 2817.9 1282.5 2826.3 1302.6 2828.7 1316.6 2831.1 1341.8 2823.1 1362.2 2811.9 1381.6 2804.3 1392.7 2797.6 1404.9 2795.6 1411 Z" data-holc_grade="A"/>
<path d="M 2470.8 2307.2 2463.5 2307.2 2458.3 2304.3 2452.3 2301.2 2446.5 2295.1 2437.9 2200.9 2442.7 2190 2447.5 2186.3 2456.8 2185.1 2464.4 2185.1 2472.7 2188.8 2480.4 2196.6 2484.2 2199.8 2492.8 2294 2490.6 2300 2485.1 2305.2 2478.8 2306.9 2470.8 2307.2 Z M 2356.6 2257.1 2347.4 2258.9 2178.1 2184.8 2174.1 2178.3 2170.9 2171.9 2170.5 2167.7 2171.5 2164.3 2172.7 2162.7 2174.5 2161.1 2177.1 2160 2180.7 2157.7 2184.7 2155.7 2187.1 2155.2 2190.5 2155 2364 2230.6 2368.3 2236.9 2369.1 2240.4 2368.3 2245.7 2367.7 2248.9 2362 2253.7 2356.6 2257.1 Z M 2374.3 2198.4 2368.9 2198.6 2360.7 2197.7 2214.4 2133.3 2211.4 2127.5 2211.4 2120.3 2212.6 2115.7 2215 2112.2 2219.3 2109.4 2224.7 2108.1 2230.1 2108.1 2373.5 2169.2 2378.1 2171.7 2382.9 2175.1 2387 2182.3 2388 2185.1 2387.4 2187.1 2385.2 2193 2379.5 2197 2374.3 2198.4 Z M 2201.3 2045.3 2127.1 2046.8 2121.2 2041.2 2116.9 2033.4 2116.9 2027.6 2118.5 2023.3 2125.7 2016.2 2199.2 2013.4 2204.7 2016.6 2209.9 2020.5 2213 2026.5 2213.3 2031.9 2210.9 2039.2 2201.3 2045.3 Z M 2265.8 2072.4 2257.7 2073.1 2252.6 2071.1 2246.4 2067.9 2240.4 2060.3 2238.5 1983.6 2244.3 1977.2 2253.1 1973.9 2263.7 1974.8 2269.9 1977.4 2275.6 1983.6 2280.4 2059.9 2276.1 2067.4 2272 2070.7 2265.8 2072.4 Z M 2394.1 2075 2386.9 2075 2381.9 2071.5 2376.4 2066.6 2374.2 2054.7 2370.9 1975 2374 1969.2 2381.1 1965.1 2388.3 1963.2 2395.3 1964.9 2401.5 1968.8 2405.3 1974.6 2407 1979.1 2412.7 2061.6 2409.6 2067.2 2406.5 2070.9 2402 2074.6 2394.1 2075 Z M 2337.1 2100.4 2328.5 2102.6 2319.2 2099.6 2311.5 2093.3 2309.1 2084.9 2304.1 1954.1 2310.1 1948.3 2319.4 1944.9 2326.6 1945.3 2334.2 1951.3 2338.5 1960.4 2347.2 2091.8 2344.5 2096.3 2337.1 2100.4 Z" data-holc_grade="A"/>
</g>
<g id="B">
<path d="M 1758.5 298.3 1827.7 296.2 1832.5 383.2 1833.5 403 1833.1 444.3 1857.4 446.4 1946.1 444.9 1946.7 469.3 1948 496.3 1949.9 506.1 1950.5 531.9 1912.3 530.7 1861.9 533 1788.8 433.7 1763.3 383.5 1758.5 298.3 Z" data-holc_grade="B"/>
<path d="M 2989 1144.2 2975.3 1145.6 2959.9 1143.9 2961.9 1129.1 2962.7 1118.3 2962.7 1111.6 2959.3 1093.5 2959.3 1087.2 2959.3 1080.2 2955.3 1058.2 2948.1 1044 2942.7 1034.7 2938.1 1029.3 2931.2 1026.2 2919.4 1011 2911 1000.6 2905.8 988.5 2904.6 982.4 2895.9 963.8 2891.1 957 2886.5 954.1 2881.5 948.5 2877.1 943.7 2871.9 935.2 2867 927.5 2899.9 924.5 2912.6 927.5 2924.2 932 2929.2 936 2942.5 951 2947.3 952.7 2959.7 959.1 2960.1 979.8 2986.4 979 2986.2 991.8 2987.6 999.3 2990.2 1012.1 2991.2 1020.7 2993 1032.1 2994.2 1043.5 2995.8 1064.1 2996.6 1089 2996 1099.4 2994.6 1112 2993.8 1120.6 2993.2 1129.6 2992 1134.1 2989 1144.2 Z" data-holc_grade="B"/>
<path d="M 2741 2236.1 2732.4 2234.2 2720.7 2234.6 2624.7 2238.3 2618.7 2239.8 2618.7 2220.6 2609.4 2220.6 2608.7 2182.3 2585.7 2183.6 2580 2143.3 2578.8 2138.7 2552.2 2098.4 2549.3 2083.4 2549.1 2072.6 2550.5 2065.3 2551 2054.5 2559.6 2037.5 2557.7 2029.7 2562.5 2019.6 2603.6 1995 2603.9 2019.6 2596.9 2019.6 2597.7 2042 2604.1 2043.1 2605.1 2100.6 2634.3 2100.8 2632.4 2041.4 2768.5 2039.8 2771.4 2093.9 2741 2236.1 Z M 2647.2 2141.8 2649.1 2179.5 2704.6 2176.9 2700.8 2099.7 2684.5 2099.5 2683.6 2081.2 2663.2 2081.4 2664.2 2140.2 2647.2 2141.8 Z M 2713.5 2019.1 2632.1 2021.1 2631.5 1983.6 2684 1958.3 2694.7 1950.4 2712.3 1943 2713.5 2019.1 Z M 2811.5 1968.1 2824.2 1968.8 2829.2 1966.9 2844.5 1958 2853.1 1953.7 2851 1960.8 2856.5 1960.4 2836.9 2065.3 2819.9 2065.7 2821.8 2058.2 2792.1 2071.8 2793.1 2028.9 2779.4 2028 2777.8 1977.6 2779.7 1902.7 2795.7 1892.1 2802.4 1887.8 2834.2 1899.9 2814.1 1943.2 2811.5 1968.1 Z" data-holc_grade="B"/>
<path d="M 2474.9 1996.2 2479 1992.1 2488.6 1987.6 2495.3 1987.8 2500.8 1989.3 2508.4 1990.4 2516.1 1995.5 2523 2000.3 2529.5 2003.1 2536.2 2015.1 2541.2 2018.8 2543.6 2022.5 2543.6 2030.4 2534.5 2039.9 2525.9 2045.3 2521.6 2050.9 2507.7 2052.4 2498.4 2048.1 2485 2041 2472.5 2031.5 2469.4 2021.4 2468.2 2012.6 2470.6 2004.2 2474.9 1996.2 Z" data-holc_grade="B"/>
<path d="M 1817.5 2553 1817.4 2562.7 1817.2 2569.4 1816 2577.7 1810 2586.5 1799.4 2594.2 1791.6 2597.8 1758.5 2579.1 1740.8 2567.2 1727.2 2558.3 1699.6 2542.6 1706.3 2534.4 1744.1 2533.8 1817.5 2553 Z" data-holc_grade="B"/>
<path d="M 1562 2511 1629.4 2591.1 1532.2 2658.6 1515.9 2639.1 1572.4 2600.9 1522.6 2538.5 1441.9 2593.7 1415.1 2559.5 1399.8 2568.1 1398.2 2551.9 1398.2 2526.5 1445.1 2525.8 1446 2508.3 1557.5 2505.8 1562 2511 Z" data-holc_grade="B"/>
<path d="M 1321.8 2146.2 1323.2 2204.4 1298.3 2203.9 1272.5 2206.7 1213.6 2208.2 1213.6 2145.3 1223.5 2145.2 1244.3 2144.9 1252.6 2138.2 1251.7 2116.5 1321.8 2146.2 Z" data-holc_grade="B"/>
<path d="M 1100.3 2336.8 1103.5 2386.3 1105.5 2395.6 1105.7 2444.4 987 2448.8 983.1 2366.7 980.3 2339.3 1100.3 2336.8 Z M 1059.3 2363.6 1051.1 2363.1 1051.9 2348.2 1018 2349.6 1018 2382.5 1048.3 2380.2 1050.9 2380.3 1058.5 2384.1 1059.3 2363.6 Z" data-holc_grade="B"/>
<path d="M 1398.2 2551.9 1399.8 2568.1 1365.4 2572.5 1365.4 2656.1 1274.9 2656.9 1248.8 2660.8 1232.4 2660.1 1229.6 2597.2 1263.1 2598.3 1259.9 2541.9 1230.4 2541.2 1141.9 2541.2 1145.1 2580.7 1161.4 2580.7 1163.4 2610.9 1165.4 2690.6 1201.3 2691.3 1233.2 2689.2 1246.4 2689.5 1276.9 2688.4 1281.7 2767.1 1281.9 2778.6 1269.6 2781.3 1257.1 2784 1257.5 2768.6 1197.7 2771.4 1064.5 2774 1064.9 2803.1 999.1 2804.1 998.3 2771.4 1031.4 2771.4 1030.6 2692.4 1096.8 2691 1096.8 2657.2 1129.9 2656.1 1129.1 2605.1 1058.9 2607.3 1058.9 2591.1 1128.3 2590.8 1125.5 2512.5 1054.5 2513.6 1053.7 2462.9 1089.2 2461.1 1125.9 2462.9 1165 2461.5 1213.3 2458.2 1258.4 2457.5 1258.7 2465.2 1308.7 2464.6 1308.9 2475.8 1325.7 2476.2 1329.7 2556.8 1364.7 2555.3 1398.2 2551.9 Z" data-holc_grade="B"/>
<path d="M 1330.1 2844.9 1333.6 2851.2 1333.6 2859 1341.3 2878.2 1352.4 2892 1332.7 2891.4 1306.5 2894.3 1297.2 2906.4 1289.9 2911 1288 2920.2 1282.9 2926.2 1276.5 2932.2 1270.4 2939.4 1265 2942 1256.7 2942.9 1252.3 2952.9 1246.2 2955.8 1231.2 2956.4 1220.4 2959.3 1212.7 2959.3 1205.4 2957.2 1200.6 2951.5 1191.6 2950.3 1183.7 2952.4 1174.4 2933.6 1157.8 2900.3 1159.7 2881.9 1157.2 2821.3 1236 2791.4 1257.1 2784 1269.6 2781.3 1272.7 2855.8 1266.6 2882.8 1299.2 2863 1320.9 2851.8 1330.1 2844.9 Z" data-holc_grade="B"/>
<path d="M 746.7 3219.5 749.7 3245.3 812.7 3202.9 882.1 3127.6 885.2 3117 889.7 3109.8 916.5 3087.1 966.5 3139.1 957.6 3146.6 946.1 3159.5 939.1 3162.7 911 3191.7 901.5 3198.6 895.4 3205.2 893.8 3208.7 898.3 3220.2 895.4 3223.6 899.2 3229.9 896.7 3231.1 893.5 3234 892.8 3238 894.8 3240.9 891.9 3247.8 870.8 3268.2 832.9 3298.3 821.1 3313.9 814 3327.4 812.1 3345.2 813.1 3356.1 819.8 3372.2 774.2 3376.5 750.9 3376.2 748.6 3317 640.5 3321 636.3 3271.3 606.7 3272.2 604.1 3219.9 707.5 3218.1 746.7 3219.5 Z" data-holc_grade="B"/>
<path d="M 1845.5 914.3 1752.4 918.4 1753 948.9 1733.6 948.7 1713.7 951.2 1683.8 950.9 1683 906.6 1665.6 906 1664 858.5 1611.4 859.6 1611 839.8 1612.8 824.2 1611.6 810 1610.6 779 1608.2 774.1 1608.9 739 1606.3 673.6 1674.7 671.4 1676.9 738.2 1675.7 751.7 1682.1 880.5 1864.7 871.9 1845.5 914.3 Z" data-holc_grade="B"/>
<path d="M 390.7 2898.9 443.3 2912.9 498.9 2910.1 552.7 2907.3 590.2 2845 623.7 2826.5 624.4 2851.7 654.4 2850.2 657 2881.4 627.3 2882.3 626.6 2944 558.2 2943.5 561 3024.6 491.9 3024.6 464.4 3028.9 461 2960.5 395.4 2945.5 390.7 2898.9 Z" data-holc_grade="B"/>
<path d="M 254.2 2964 261.5 3177.8 201.3 3180.3 194.5 2964.8 254.2 2964 Z" data-holc_grade="B"/>
<path d="M 518.1 2725 515.2 2684 422.1 2646.7 410.4 2640.9 403.2 2636.4 397 2635.5 388.4 2628.6 244.6 2632.5 240.8 2630.8 221.4 2637.7 218 2641.8 208 2654.1 199.8 2659.9 201.8 2687.5 201.3 2741.8 196.2 2748.9 203.7 2867.6 212.3 2918.9 254.2 2964 194.5 2964.8 196 2943.6 190.5 2918.1 184.9 2838.3 183.7 2786.6 178.9 2747.1 178.9 2737 178.9 2702.2 177.7 2660.9 172.9 2594.4 174.5 2565.3 175.3 2555.6 168.9 2487 381.3 2478.8 386.1 2549.9 439.1 2546.7 436.3 2522.2 474.2 2519 476.6 2576.5 441.9 2577.6 442.7 2598.4 582.3 2591.6 580.3 2557.8 607 2559.2 601.4 2461.9 632.5 2460.8 636.5 2648.3 580.7 2651.9 583.9 2718 518.1 2725 Z" data-holc_grade="B"/>
<path d="M 924.1 2699.9 872.1 2701.1 870.5 2651.1 980.9 2647.6 980.9 2660.9 923.5 2663.1 924.1 2699.9 Z" data-holc_grade="B"/>
<path d="M 838.1 2416.7 777.1 2419.3 774.9 2341.3 834.5 2339.8 838.3 2399.4 838.1 2416.7 Z" data-holc_grade="B"/>
<path d="M 337.1 1537.7 362.9 1554.7 366.7 1589.6 366 1605.3 367.7 1716.9 251.2 1718.4 248.8 1669.5 242.8 1661.5 125.3 1567.6 75.8 1567.2 75.5 1586.3 2.2 1585.7 1 1547.6 59.9 1547.1 58.9 1521.7 103.2 1520.4 163.7 1522.4 163.2 1539 200.4 1536.4 337.1 1537.7 Z" data-holc_grade="B"/>
<path d="M 1904.8 992.5 1904.2 983.1 1955.9 980.3 1972.9 961.8 1913 962.9 1915.2 904.1 1958 903.7 1957.5 864.3 1911.1 864.7 1918.2 847.5 2048.6 847 2124 842.7 2126.2 901.9 2124.3 906 2123.1 925.8 2122.2 935.1 2107.1 963.5 2095.1 973.2 2089.6 979.7 2082.2 995 2078.6 1007.4 2060.4 1004.4 1996.8 1006.2 1905.9 1008.3 1904.8 992.5 Z" data-holc_grade="B"/>
<path d="M 1969.1 1255.1 1915.3 1256.9 1912.8 1201.6 1911.1 1193 2033.9 1189.3 2018.8 1202.1 2006.8 1211.7 1994.6 1219.1 1985.3 1225.3 1979.6 1231.1 1972.4 1242.1 1969.1 1255.1 Z M 1892.7 1315.9 1847.4 1316.6 1842.9 1206.5 1835.7 1104.9 1881.6 1104.6 1892.7 1315.9 Z" data-holc_grade="B"/>
<path d="M 1964.7 1344.9 1899.6 1346 1878.3 1381.9 1851.4 1382.8 1849.2 1338.3 1892.3 1336.2 1898 1335.7 1923.2 1335.7 1931.5 1333.1 1938.9 1333.4 1939.2 1324.2 1958.3 1324.5 1958.6 1331.4 1960.6 1337.7 1964.7 1344.9 Z" data-holc_grade="B"/>
<path d="M 1506.1 1663.7 1439.2 1665.1 1435.9 1589.6 1421 1589.6 1418.6 1566.8 1461.5 1564.6 1460.3 1532.3 1572 1528 1577.3 1661.7 1506.1 1663.7 Z" data-holc_grade="B"/>
<path d="M 1777.6 1551 1779.6 1612 1744.4 1611.8 1744.9 1599.3 1725.7 1599.1 1724.8 1577.5 1641.5 1577.7 1640.1 1526.7 1708.3 1525.2 1709 1537.7 1777.6 1551 Z" data-holc_grade="B"/>
<path d="M 2973.8 656.1 2956.2 654.6 2953.5 648.1 2940.3 647.1 2934.9 645.9 2925.5 552 2879.1 552.9 2871.5 473.7 2901.6 471.7 2896.8 412.1 2902.8 410.8 2915.7 421.6 2956.4 420.5 2956.2 437.3 2958.8 449.1 2961.9 495.2 2965.7 512 2965.3 537.2 2969.6 571 2973.8 656.1 Z" data-holc_grade="B"/>
<path d="M 2940.3 647.1 2953.5 648.1 2956.2 654.6 2973.8 656.1 2992 714.1 2991.7 742.8 2993.6 771.8 2997.1 835.2 2999 853.9 2965.8 854.2 2967.4 894.9 2912.9 893.8 2912.8 778 2910.8 754.7 2939.9 752.9 2940.3 647.1 Z" data-holc_grade="B"/>
</g>
<g id="C">
<path d="M 1862 300 1964.4 296.7 1968.5 382.4 1898.4 384.8 1897.2 353.6 1862.7 354.9 1862 300 Z" data-holc_grade="C"/>
<path d="M 2724.7 2303.1 2704.6 2389.5 2684.8 2388.5 2634.8 2304.6 2706.1 2301.6 2724.7 2303.1 Z M 2741 2236.1 2728.8 2283.7 2715.9 2281.2 2704.9 2281.4 2630.7 2285 2629.7 2267.8 2618.7 2267.8 2618.7 2239.8 2624.7 2238.3 2720.7 2234.6 2732.4 2234.2 2741 2236.1 Z" data-holc_grade="C"/>
<path d="M 972.3 2016.7 979.9 2021.3 986.6 2021 1002.3 2025.9 1017.6 2025 1026.5 2025.3 1033.5 2025.9 1043.4 2029.6 1075.3 2047.7 1114.6 2061.2 1123.2 2062.7 1153.2 2080.5 1173 2084.8 1179 2089.4 1176.1 2099.7 1170.1 2108.1 1161.8 2115.8 1150.6 2120.4 1130.8 2123.3 1118.7 2122.1 1116.8 2124.1 1112.3 2123.9 1110.4 2093.1 1109.2 2086.2 1027.5 2090.8 970.4 2091.1 968.8 2017 972.3 2016.7 Z M 1465.9 2137.1 1470.7 2140.7 1475.5 2149.6 1497 2171.5 1514.2 2193.1 1514.6 2226.5 1501 2223.3 1484.2 2211.4 1459.1 2189.1 1449.6 2184.8 1445.6 2178.4 1427.2 2173.3 1416.9 2164.4 1404.9 2160.4 1400.5 2154.3 1390.5 2155 1360.2 2148.2 1325.1 2136.3 1309.6 2126.7 1279.3 2118.8 1263.3 2111.2 1262 1958.2 1314.7 1956.4 1315.2 2044.1 1316.8 2091.5 1317.9 2122.3 1359.8 2143.9 1403.3 2139.9 1412.5 2139.6 1436 2139.9 1465.9 2137.1 Z M 1230.1 1943.6 1233.9 2096 1224.6 2093.4 1215.7 2090.8 1206.1 2086.5 1198.2 2085.6 1189.5 2083.6 1183.2 2077.9 1181.9 2072.4 1176.1 2069.6 1170.7 2071.6 1170.1 2076.5 1146.2 2066.4 1127 2055.2 1109.5 2051.2 1099.9 2046.3 1089.4 2043.4 1037.7 2018.4 1039 2012.7 1037.7 2006.6 1031.6 2002 997.2 2001.8 988.9 1997.5 984.4 1992.6 986.4 1949.7 1230.1 1943.6 Z" data-holc_grade="C"/>
<path d="M 1598.1 2299.7 1521.1 2302.5 1517.2 2255.9 1528 2244.9 1538.3 2249.5 1543.8 2255.1 1557.9 2260.7 1573 2279.8 1579 2282.9 1585.9 2285 1589.7 2289.1 1592.8 2294.1 1598.1 2299.7 Z M 1321.8 2146.2 1372.5 2163.7 1373.2 2180.3 1486.1 2233.7 1489.5 2275.3 1490.2 2303.3 1338 2306.8 1250.9 2309.6 1242.8 2313.9 1111.3 2316.7 1111.5 2336.5 1100.3 2336.8 980.3 2339.3 983.1 2366.7 987 2448.8 935.2 2451.6 867 2452.9 844.2 2455.3 763.1 2457.8 762.2 2432.1 759.1 2342.1 709 2343.4 707.1 2321.2 844 2317.1 842.8 2283.9 890.9 2283.5 904.5 2283.5 981.8 2274.5 1063.5 2271.4 1059 2150.8 1190.7 2147.3 1190.2 2132.9 1193.1 2130.1 1200.5 2128.6 1221.1 2128.4 1223.3 2131.6 1223.5 2145.2 1213.6 2145.3 1213.6 2208.2 1272.5 2206.7 1298.3 2203.9 1323.2 2204.4 1321.8 2146.2 Z M 1276.5 2238.7 1278.9 2269.5 1332 2268 1330.8 2236.3 1276.5 2238.7 Z M 838.1 2416.7 838.3 2399.4 834.5 2339.8 774.9 2341.3 777.1 2419.3 838.1 2416.7 Z" data-holc_grade="C"/>
<path d="M 1500.3 2449.5 1501.9 2491.5 1582.8 2489.7 1583.2 2478.2 1597.6 2477.8 1597.9 2488.1 1562 2511 1557.5 2505.8 1446 2508.3 1445.1 2525.8 1398.2 2526.5 1398.2 2551.9 1364.7 2555.3 1329.7 2556.8 1325.7 2476.2 1308.9 2475.8 1308.7 2464.6 1258.7 2465.2 1258.4 2457.5 1298.9 2455.3 1345.8 2455.6 1398.9 2452.1 1500.3 2449.5 Z M 1111.5 2336.5 1111.6 2345.1 1192 2343.8 1240.1 2340.6 1240.6 2356.6 1240.4 2382.6 1244.4 2441 1191.1 2441.5 1138.9 2444.5 1105.7 2444.4 1105.5 2395.6 1103.5 2386.3 1100.3 2336.8 1111.5 2336.5 Z M 1596.1 2326.2 1639.8 2384.3 1640.5 2426.8 1458.1 2432 1408 2436.3 1273 2441.2 1271.4 2394 1270.8 2366.5 1270.8 2338.6 1520.8 2329.4 1532 2329.7 1596.1 2326.2 Z" data-holc_grade="C"/>
<path d="M 1597.6 2477.8 1611.9 2477.5 1608.3 2446.2 1785.2 2439.6 1792.9 2404.7 1832.8 2413.5 1825.7 2484.9 1817.5 2553 1744.1 2533.8 1706.3 2534.4 1699.6 2542.6 1629.4 2591.1 1562 2511 1597.9 2488.1 1597.6 2477.8 Z" data-holc_grade="C"/>
<path d="M 1174.4 2933.6 1143.3 2952.9 1051.7 3031.4 1028.4 3055.5 1005.5 3055 1004.8 2992.6 1001.6 2927.6 1002.9 2919 1001.3 2904.1 1013.7 2902.6 1011.2 2884 1079.8 2853.8 1079.5 2848.9 1157.2 2821.3 1159.7 2881.9 1157.8 2900.3 1174.4 2933.6 Z" data-holc_grade="C"/>
<path d="M 1005.5 3055 977.4 3053.5 873.4 3056.4 872.7 3053.8 863.2 3054.7 860 3019 808.6 3021.3 808.6 2976.8 955.7 2973.6 954.7 2928.2 1001.6 2927.6 1004.8 2992.6 1005.5 3055 Z" data-holc_grade="C"/>
<path d="M 882.1 3127.6 812.7 3202.9 749.7 3245.3 746.7 3219.5 743.8 3194.3 664.2 3200 659.5 3135.4 739.3 3127 805.3 3125 806 3121.2 880.9 3119.8 882.1 3127.6 Z" data-holc_grade="C"/>
<path d="M 1257.1 2784 1236 2791.4 1157.2 2821.3 1079.5 2848.9 1078.7 2814.8 957.1 2817.4 955.1 2777.5 912.2 2778.4 914.2 2824.2 858.9 2825.1 818.5 2827.8 768.2 2827.8 726.3 2827.8 725.3 2789.2 766.6 2786.9 806.7 2785.3 860.3 2784.7 860 2769.2 912.6 2768.6 912.3 2722.3 858.7 2723.8 859.4 2708.3 859.7 2679.8 856.5 2645.6 891 2645 891 2630.1 923.2 2627.8 980.9 2627.2 979 2603.7 900.2 2606.3 897 2509.4 895.1 2469.8 954.4 2469.2 1009.3 2464.3 1053.7 2462.9 1054.5 2513.6 1125.5 2512.5 1128.3 2590.8 1058.9 2591.1 1058.9 2607.3 1129.1 2605.1 1129.9 2656.1 1096.8 2657.2 1096.8 2691 1030.6 2692.4 1031.4 2771.4 998.3 2771.4 999.1 2804.1 1064.9 2803.1 1064.5 2774 1197.7 2771.4 1257.5 2768.6 1257.1 2784 Z M 924.1 2699.9 923.5 2663.1 980.9 2660.9 980.9 2647.6 870.5 2651.1 872.1 2701.1 924.1 2699.9 Z" data-holc_grade="C"/>
<path d="M 601.4 2461.9 607 2559.2 580.3 2557.8 582.3 2591.6 442.7 2598.4 441.9 2577.6 476.6 2576.5 544.2 2574.2 542.6 2529.6 500.7 2530.7 498.7 2496.2 453.3 2497.7 434.1 2499.8 434.1 2472.5 402.2 2472.9 401.8 2433.7 454.1 2435.2 453.3 2470.4 539 2467.5 537.4 2435.2 597.2 2433 601.4 2461.9 Z" data-holc_grade="C"/>
<path d="M 1714.5 1065.4 1710.2 982.7 1699.9 981.9 1690.5 982.3 1669.2 979.9 1651.7 977.4 1648.5 891.7 1597.3 892.9 1594.9 791.2 1593.5 775.9 1602.3 775.8 1610.6 779 1611.6 810 1612.8 824.2 1611 839.8 1611.4 859.6 1664 858.5 1665.6 906 1683 906.6 1683.8 950.9 1713.7 951.2 1733.6 948.7 1753 948.9 1752.4 918.4 1845.5 914.3 1820.9 965.8 1837.9 983.4 1819.8 1032.5 1821.3 1061.1 1768.9 1062.5 1766.9 1024.6 1766.7 971.7 1748 971.2 1738.6 973.3 1742.2 1064.3 1714.5 1065.4 Z" data-holc_grade="C"/>
<path d="M 303 1414.1 404.6 1409.6 411.1 1578.4 306.3 1501 303 1414.1 Z" data-holc_grade="C"/>
<path d="M 800.3 6.2 867.3 4.7 896 1 899.6 79.3 861.8 78.3 772.8 81.7 761.6 47.1 771.4 42.8 778.1 39.3 782.8 35.4 786.2 30.7 791.7 22.5 796.5 15.9 800.3 6.2 Z" data-holc_grade="C"/>
<path d="M 1904.8 992.5 1875.5 994.1 1874.5 939.8 1911.1 864.7 1957.5 864.3 1958 903.7 1915.2 904.1 1913 962.9 1972.9 961.8 1955.9 980.3 1904.2 983.1 1904.8 992.5 Z" data-holc_grade="C"/>
<path d="M 1696.6 1248.2 1628.9 1250 1630.5 1271.7 1577.7 1272.3 1495.3 1273.2 1497.3 1320.4 1458.7 1319.7 1459.2 1330.3 1392.2 1330.5 1388.6 1269.1 1491.8 1265.9 1488.4 1206 1592.6 1202 1622.9 1200.9 1644.2 1199.4 1684.6 1200.2 1695.6 1197.4 1697.5 1228.2 1695.9 1237 1696.6 1248.2 Z" data-holc_grade="C"/>
<path d="M 1958.3 1324.5 1939.2 1324.2 1938.9 1333.4 1931.5 1333.1 1923.2 1335.7 1898 1335.7 1892.3 1336.2 1849.2 1338.3 1847.4 1316.6 1892.7 1315.9 1918.1 1315.5 1915.3 1256.9 1969.1 1255.1 1965.9 1292.5 1958.9 1317.3 1958.3 1324.5 Z" data-holc_grade="C"/>
<path d="M 1506.1 1663.7 1577.3 1661.7 1572 1528 1460.3 1532.3 1461.5 1564.6 1418.6 1566.8 1421 1589.6 1435.9 1589.6 1439.2 1665.1 1440.2 1688.7 1255.7 1696.4 1253.8 1659.4 1345.4 1655.1 1394.7 1654.2 1389.7 1578.8 1366.5 1579.7 1365.9 1549.5 1364.6 1488.4 1465.6 1484.7 1501.3 1483.6 1501.4 1500.5 1639.9 1497.4 1709.4 1493.6 1705.3 1447.1 1773.1 1446.4 1776 1475.2 1777.6 1551 1709 1537.7 1708.3 1525.2 1640.1 1526.7 1641.5 1577.7 1724.8 1577.5 1725.7 1599.1 1744.9 1599.3 1744.4 1611.8 1779.6 1612 1779.8 1641.7 1714.5 1643 1715.4 1683.7 1506.6 1689.5 1506.1 1663.7 Z" data-holc_grade="C"/>
<path d="M 1207.1 1398.6 1215.4 1596.2 1160.2 1598.8 1129.6 1599.6 1125.4 1525.8 1157.3 1525.5 1153.8 1425.6 1189.2 1424.7 1188.3 1399.2 1207.1 1398.6 Z M 1564.4 1362.8 1633.9 1361.9 1632.7 1331.9 1732.1 1327.9 1732.4 1347.7 1735 1374.2 1726.7 1371 1699.9 1373 1700.5 1384.2 1616.3 1387.9 1565.9 1387.7 1564.4 1362.8 Z" data-holc_grade="C"/>
<path d="M 1152.9 1776 1151.1 1744.7 1152.7 1734.6 1151.5 1719.9 1222.2 1718.6 1226.6 1802.2 1206.3 1803.1 1204.3 1775.3 1152.9 1776 Z M 1449.3 1884.8 1260.1 1888.8 1256 1717.9 1358.1 1713 1494 1710.1 1495.3 1749.2 1444.5 1750.9 1446.8 1828.8 1449.3 1884.8 Z" data-holc_grade="C"/>
<path d="M 1803.4 1641.4 1820.4 1640.5 1863.2 1636 1859.3 1657.5 1862.2 1667.9 1862.7 1674.6 1882.2 1673.7 1885.2 1678.2 1884.2 1689.4 1865.7 1688.9 1860.8 1690.3 1858.3 1695.7 1860.3 1700.6 1857.8 1706.9 1861.3 1716.3 1878.7 1716.3 1884.2 1719.9 1885.7 1725.7 1883.7 1731.1 1869.2 1731.6 1864.2 1731.6 1862.2 1733.8 1862.2 1739.7 1865.2 1741.5 1877.2 1742.8 1883.2 1746.4 1882.7 1763.9 1866.7 1765.7 1865.7 1768.4 1867.7 1772.4 1877.2 1770.6 1882.2 1774.7 1884.2 1788.6 1882.2 1796.7 1881.7 1826.7 1879.2 1838.8 1880.2 1865.8 1879.7 1871.2 1880.2 1879.2 1878.7 1896.3 1881.7 1917.4 1857.8 1920.5 1852.3 1949.7 1858.3 1959.6 1863.2 1977.1 1862.7 1988.8 1864.2 1996.4 1870.2 2001.3 1877.2 1997.3 1881.2 1998.2 1884.7 2035.4 1828.4 2037.7 1825.4 2027.8 1827.9 2002.2 1827.4 1883.7 1810.4 1885.5 1812.9 1987.9 1808.9 2037.7 1800.4 2038.6 1790 1712.3 1794.5 1684 1803.4 1641.4 Z" data-holc_grade="C"/>
</g>
<g id="D">
<path d="M 1593.5 775.9 1594.9 791.2 1597.3 892.9 1580.6 892 1573.5 894.6 1512.9 898.6 1509.7 848.7 1473.7 849.5 1472.4 838.6 1440.2 836.6 1438.3 771.7 1473 769.4 1471.4 710 1540.4 708.3 1541 774.9 1593.5 775.9 Z" data-holc_grade="D"/>
<path d="M 768.2 2827.8 818.5 2827.8 858.9 2825.1 914.2 2824.2 912.2 2778.4 955.1 2777.5 957.1 2817.4 959.9 2880.4 842.2 2919.8 829.8 2925.8 792.4 2935.6 737.2 2956.3 733.7 2896.2 768.8 2894.8 768.2 2827.8 Z M 859.4 2708.3 858.7 2723.8 912.3 2722.3 912.6 2768.6 860 2769.2 860.3 2784.7 806.7 2785.3 766.6 2786.9 725.3 2789.2 722.6 2742.5 733.4 2742.2 733.1 2709.7 859.4 2708.3 Z M 856.5 2645.6 848.2 2472.9 895.1 2469.8 897 2509.4 900.2 2606.3 979 2603.7 980.9 2627.2 923.2 2627.8 891 2630.1 891 2645 856.5 2645.6 Z" data-holc_grade="D"/>
<path d="M 762.2 2432.1 715.6 2433.5 709.7 2374.5 709 2343.4 759.1 2342.1 762.2 2432.1 Z" data-holc_grade="D"/>
<path d="M 203.3 2316 203.7 2358.5 227.6 2357.1 230.8 2418.3 161.2 2420 159.6 2436.1 72.5 2438.4 70.3 2395 145.3 2393.3 143 2318 203.3 2316 Z M 566.5 2282 568.4 2349.3 476.7 2349.5 433.9 2352.5 434.9 2387.8 336.3 2392.4 334.8 2287 367.4 2283.8 392.5 2284.4 475.3 2281.8 566.5 2282 Z M 842.8 2283.9 844 2317.1 707.1 2321.2 702.6 2212.7 778 2210.6 781.5 2268.3 841.5 2268.2 842.8 2283.9 Z" data-holc_grade="D"/>
<path d="M 404.6 1409.6 303 1414.1 301.8 1398 283.4 1398 277.8 1307.9 253.1 1309 256.7 1399.8 256.7 1431 236.8 1431.7 234.8 1401.2 219.6 1401.2 218 1354.5 197.7 1356 197.3 1356.7 192.5 1200.9 207.6 1202 415 1197.3 418.6 1244.3 418.2 1256.2 420.6 1294.2 419.8 1306.8 423.8 1408.7 404.6 1409.6 Z M 399.6 850.5 405.6 1024.2 320.2 1027.8 318.2 1011.2 254 1012 258.4 1150.9 224.9 1152.3 214.2 921.2 361.7 917.9 361.3 851.9 399.6 850.5 Z" data-holc_grade="D"/>
<path d="M 1497.3 1320.4 1495.3 1273.2 1577.7 1272.3 1577.7 1318.2 1497.3 1320.4 Z M 1826.9 1131 1770.9 1131.7 1769.7 1081.5 1824.1 1081.1 1826.9 1131 Z M 1669.2 979.9 1690.5 982.3 1699.9 981.9 1710.2 982.7 1714.5 1065.4 1687.2 1066.7 1688.9 1084.6 1742.2 1082.6 1746.3 1165.8 1734.3 1165.5 1737.2 1239 1736 1247 1738.4 1312 1629.8 1317.2 1628.3 1283.8 1697.7 1281.6 1696.6 1248.2 1695.9 1237 1697.5 1228.2 1695.6 1197.4 1684.6 1200.2 1644.2 1199.4 1622.9 1200.9 1592.6 1202 1589.7 1153.9 1488.3 1155.4 1484.4 1096.9 1500.3 1096.2 1497.7 1048.6 1609.7 1044.3 1609.9 1076.8 1671.2 1076.2 1669.2 979.9 Z M 1202.1 918.1 1209.6 1030.7 1344.7 1024.4 1345.2 1052.3 1411 1051.4 1412 1073.8 1278.4 1077.4 1278.9 1103.4 1415 1100.7 1417.5 1118.2 1418 1159.9 1281.4 1167.6 1281.4 1174.3 1007.2 1184.2 1003.2 1052.3 996.2 925.7 1202.1 918.1 Z" data-holc_grade="D"/>
<path d="M 1293.5 1335.5 1238.7 1337.3 1135.9 1340.7 1130.5 1233 1225.9 1230.1 1283.6 1225.5 1293.5 1335.5 Z" data-holc_grade="D"/>
<path d="M 1365.9 1549.5 1366.5 1579.7 1389.7 1578.8 1394.7 1654.2 1345.4 1655.1 1253.8 1659.4 1251.2 1583.4 1298.7 1582.7 1297.9 1552.1 1365.9 1549.5 Z M 1773.1 1446.4 1705.3 1447.1 1709.4 1493.6 1639.9 1497.4 1501.4 1500.5 1501.3 1483.6 1465.6 1484.7 1463.3 1454 1362.8 1456 1361.6 1397.7 1360.6 1393.7 1240.6 1397.4 1238.7 1337.3 1293.5 1335.5 1392.2 1330.5 1397.6 1418.1 1462.5 1417.5 1460.6 1335.4 1512.3 1336 1562.7 1334.8 1564.4 1362.8 1565.9 1387.7 1616.3 1387.9 1700.5 1384.2 1699.9 1373 1726.7 1371 1735 1374.2 1732.4 1347.7 1732.1 1327.9 1767.2 1326.8 1766.9 1312.7 1835.2 1311.8 1838.7 1368.7 1837.7 1445.7 1773.1 1446.4 Z" data-holc_grade="D"/>
<path d="M 897.9 1788.9 898.7 1821.5 946.9 1820.1 947.7 1879 838.9 1883.3 776.2 1837 776.6 1789.2 897.1 1785.6 897.9 1788.9 Z M 1207.1 1398.6 1188.3 1399.2 1189.2 1424.7 1153.8 1425.6 1157.3 1525.5 1125.4 1525.8 1129.6 1599.6 1160.2 1598.8 1215.4 1596.2 1218.9 1699 1046.9 1701 1047.9 1715.1 979.9 1716.3 976.3 1615 939.5 1616.7 943.1 1705.2 772.9 1711.1 771.5 1661.7 807.9 1660.7 803.6 1538.5 750.9 1539.4 748.1 1474.3 851.1 1471.3 849.9 1411.4 915.2 1409.7 911.6 1287 977.9 1287.2 980.1 1331.8 1083.6 1327.4 1082.4 1290.8 1116.8 1290 1120.2 1385.8 1206.8 1382.6 1207.1 1398.6 Z" data-holc_grade="D"/>
<path d="M 1514.2 2193.1 1497 2171.5 1475.5 2149.6 1470.7 2140.7 1465.9 2137.1 1462.2 2131.5 1455.9 2127.4 1449.5 2013.7 1502.4 2013.1 1505 2074.3 1505.3 2091 1509.8 2138.6 1514.2 2193.1 Z M 1314.7 1956.4 1262 1958.2 1260.1 1888.8 1449.3 1884.8 1450.4 1951.8 1314.7 1956.4 Z M 1446.8 1828.8 1444.5 1750.9 1495.3 1749.2 1498.8 1825.9 1446.8 1828.8 Z M 1047.9 1715.1 1048.6 1723.2 1151.5 1719.9 1152.7 1734.6 1151.1 1744.7 1152.9 1776 1157.1 1852.4 1191 1852.8 1227.3 1849.9 1228.9 1895.5 1230.5 1908.1 1230.1 1943.6 986.4 1949.7 985.6 1866.4 984.4 1847.7 984.8 1836.3 979.9 1716.3 1047.9 1715.1 Z M 1637.1 1916.4 1532.7 1917 1534 1890 1533.4 1877.4 1525.1 1722.3 1524.4 1716.5 1523.8 1709.1 1715.9 1704.5 1720.3 1804.4 1706 1804.4 1708.2 1871.4 1668.3 1872.8 1668.3 1806.1 1637.4 1807.3 1637.1 1916.4 Z" data-holc_grade="D"/>
<path d="M 1532.7 1917 1637.1 1916.4 1638 1926.2 1721.9 1923.9 1722.2 1970.2 1695.7 2073 1697.6 2115.2 1671.1 2117.5 1675 2216.1 1595.9 2220.4 1543.2 2220.1 1540.3 2151.4 1534.3 2087.4 1531.7 2035.7 1531.7 1972.2 1532.7 1917 Z" data-holc_grade="D"/>
<path d="M 1597.6 2477.8 1583.2 2478.2 1582.8 2489.7 1501.9 2491.5 1500.3 2449.5 1608.3 2446.2 1611.9 2477.5 1597.6 2477.8 Z" data-holc_grade="D"/>
<path d="M 880.9 3119.8 806 3121.2 805.3 3125 739.3 3127 659.5 3135.4 635.3 3137.9 598.9 3139.4 597.6 3114.6 596.4 3108.3 699.1 3027 733.7 3025.5 733.7 2985.6 752.2 2976.7 757.3 2970.6 765.6 2971.2 771.4 2967.2 778.4 2964.9 781.9 2958.6 871.6 2925.8 935.4 2904.5 1001.3 2904.1 1002.9 2919 1001.6 2927.6 954.7 2928.2 955.7 2973.6 808.6 2976.8 808.6 3021.3 860 3019 863.2 3054.7 872.7 3053.8 873.4 3056.4 877.1 3082.2 880.9 3119.8 Z" data-holc_grade="D"/>
</g>
</svg>