<?xml version="1.0"?>
<svg xmlns="http://www.w3.org/2000/svg" version="1.2" baseProfile="tiny" width="2000" height="2572" viewBox="0 0 2000 2572" stroke-linecap="round" stroke-linejoin="round">
<g id="holc_ad_data">
<path d="M 1666.8 714.7 1653.6 714.7 1653.6 694.4 1585.5 693.1 1584.6 748.9 1579.9 754.5 1560.4 764 1527.8 716.3 1535.2 713.4 1560.7 714.5 1561.9 665.7 1633.5 666.6 1634.1 637.2 1617.2 637 1603 622.7 1603.9 609.1 1545 607.6 1536.4 592.9 1525.5 592.9 1515.7 590.3 1514.5 605.2 1482.1 605 1474.3 605 1474.8 549.2 1514.8 549.7 1530.8 570.2 1540.2 570.4 1538.5 564.8 1533.7 558.5 1533.7 550.8 1529.6 548.8 1525.2 548.8 1505.9 518.1 1507.4 488.8 1444.7 487.9 1445 454.2 1487 454.8 1487.9 426.6 1507.1 426.6 1521 385.7 1529.9 357.4 1534.6 255.1 1535.8 213.4 1569 213.9 1568.7 201.8 1569.3 193.1 1573.4 186.4 1578.4 181.5 1579.8 146.5 1580.4 140.2 1580.4 126.2 1580.4 123.8 1664 126.7 1663.7 145.9 1688.2 146.7 1684.4 156.2 1682 164.9 1670.2 183.9 1657.7 198.8 1647.1 213.9 1640 228.8 1633.8 244.1 1623.4 266.1 1613.6 284 1604.8 295.3 1602.7 303.9 1593.2 321 1582.9 340.2 1576.4 350.8 1570.7 360.7 1559.5 373.4 1549.1 385.3 1540.5 396.1 1533.7 408.8 1530.2 424.8 1528.4 431.7 1530.2 450.1 1535.2 468.9 1539.1 486.2 1544.7 506 1550 515.8 1550.6 519.9 1559.5 529.6 1571 548.6 1586.7 567.8 1600.6 582.3 1613.1 594.4 1626.1 610.2 1645.3 630.5 1659.5 642.4 1671.1 649.5 1683.5 657.3 1698.6 672 1708.6 680.2 1711 683.6 1723.1 688.6 1732.6 701.3 1736.2 711.5 1678.2 711.9 1677.3 714.7 1666.8 714.7 Z" data-holc_grade="A"/>
<path d="M 1776.9 906.8 1752.8 906.5 1752 850.3 1727.2 850.3 1727.2 790.3 1728 737.6 1667.2 737.9 1666.8 714.7 1677.3 714.7 1678.2 711.9 1736.2 711.5 1740.7 725.8 1748.6 738.5 1749.4 749.1 1754.9 763.8 1764.4 781.7 1784.9 809.1 1787.2 817.1 1788 831 1785.3 843.9 1788 854.6 1794.3 865.5 1801.8 880.2 1808.9 892.9 1813.7 906.5 1776.9 906.8 Z" data-holc_grade="A"/>
<path d="M 902.9 783 902.9 790.8 903.1 804.5 902.9 816.2 901.9 831.5 901.4 843.9 902.9 844.8 913.7 845 929 845.2 952.7 845 955.7 846.6 955.4 861.9 955.2 881.2 954.7 888.4 952.9 889.5 931.7 889 904.1 889 902.6 889.3 902.9 900.1 900.9 904.1 882.4 904.3 861.5 904.3 837.8 904.1 838.8 899.9 839.5 895.6 836.5 893.3 833.3 890.4 831.4 887.2 831.1 881.8 831.6 872.7 831.9 844.6 830.1 844.1 817.8 843.9 818 814.7 819 783.2 822.7 782.7 853.8 782.5 877.2 782.7 902.9 783 Z" data-holc_grade="A"/>
<path d="M 770.9 963.7 665.3 965 653.7 965.7 654.3 936.2 654.3 934.9 662.4 935.1 691 935.3 723.6 935.4 749 935.3 762.8 935.3 772.2 939.8 783 945.7 780.3 948.2 776.4 952.7 771.7 956.9 770.9 963.7 Z" data-holc_grade="A"/>
<path d="M 595.5 965.4 595.8 1027.7 514.1 1028.4 514.9 1069.7 508 1067 502.5 1064.8 493.9 1063.2 486.7 1061.9 479.3 1060.3 471.2 1057.4 465 1053.6 459.6 1048.4 455.9 1037.6 452.2 1032 440.9 1029 435 1025.5 426.8 1022.3 418.9 1018.2 415.2 1010.6 414.2 995.4 411.8 988.2 409.8 968.8 588.8 965.4 595.5 965.4 Z" data-holc_grade="A"/>
<path d="M 816.3 1114.5 811.3 1115.1 808.7 1116 806.6 1117.2 806.6 1119.4 806.9 1121.4 807.5 1123.5 808.4 1125.9 808.4 1129.8 808.4 1133.9 807.8 1137.4 809.3 1138.2 793.9 1138.2 786.8 1131.9 786 1109.5 779.5 1107.6 742 1103 733.6 1102.3 733.7 1058.1 817 1057.6 816.8 1073.8 816.6 1089 816.3 1099.2 816.6 1112.9 816.3 1114.5 Z" data-holc_grade="A"/>
<path d="M 692.9 1207 692.9 1207.9 692.9 1209.4 692.9 1211 692.9 1212.8 693.2 1214.6 693.5 1216.3 693.9 1218.3 694.1 1219.4 694.1 1220.4 694.1 1222.5 694 1224.1 694 1225.9 693.9 1228.2 693.9 1230.7 693.9 1232.4 684.1 1233.1 678.7 1233.9 674.6 1234.5 668.6 1235.4 662.9 1236.2 656.9 1236.6 650.1 1238.6 643.7 1239.3 638.1 1239.8 631.4 1239.6 626.3 1239 618.1 1237.6 614.8 1237.4 610.5 1235.7 603 1234.2 593.4 1231.4 587.3 1230.7 578.6 1230.7 580.9 1223.9 583 1217.2 585.2 1208.7 595 1208.4 610.9 1207.8 613.3 1207.8 622.8 1207.7 633.7 1207.3 643.1 1207.1 654.5 1206.9 668.2 1206.6 673.9 1206.6 682 1206.9 690.5 1206.9 692.9 1207 Z" data-holc_grade="A"/>
<path d="M 1060.9 1671.2 1060.3 1687 1014.8 1687 1014.8 1654.1 1021 1653 1027.2 1647.8 1031.6 1647.6 1034.6 1651.5 1037.9 1652.4 1045.6 1649.8 1050.6 1645.2 1055 1643.3 1057.4 1641.8 1060.7 1641.3 1060.9 1671.2 Z" data-holc_grade="A"/>
<path d="M 1482.1 605 1481.7 625.2 1481.3 639.1 1443.1 637.9 1443.5 581.5 1444.7 487.9 1507.4 488.8 1505.9 518.1 1525.2 548.8 1529.6 548.8 1533.7 550.8 1533.7 558.5 1538.5 564.8 1540.2 570.4 1530.8 570.2 1514.8 549.7 1474.8 549.2 1474.3 605 1482.1 605 Z" data-holc_grade="B"/>
<path d="M 817 1057.6 733.7 1058.1 733.6 1102.3 678.6 1097.8 646.5 1095.2 618.3 1097.7 579.5 1098.2 574.3 1095.3 548.6 1095.6 545.4 1092.2 547.4 1087.9 549.1 1084.6 545.9 1082.3 541.2 1075.1 545.7 1073.7 543 1071.7 534.3 1071.5 531.9 1072.9 524.7 1068.2 518.1 1070.2 514.9 1069.7 514.1 1028.4 595.8 1027.7 673.4 1027 673.2 996 664.6 996 665.3 965 770.9 963.7 773.9 963.9 815.8 964.3 817.3 965.2 817.6 987 817.1 1018 817.1 1054.7 817 1057.6 Z" data-holc_grade="B"/>
<path d="M 578.6 1230.7 572.5 1245.5 568.2 1255.6 567.6 1264.9 578 1264.6 578 1269.2 571.2 1269.6 482 1271.5 451.7 1271.2 449.1 1212.9 471.3 1212.8 502.6 1212 540.1 1210.6 567.2 1209.5 585.2 1208.7 583 1217.2 580.9 1223.9 578.6 1230.7 Z" data-holc_grade="B"/>
<path d="M 816.3 1183.3 815.9 1185.5 815.7 1188.7 814.3 1192.4 813.3 1195.7 813.1 1198.7 813 1202.7 812.9 1207 812.9 1213.1 812.9 1214.7 813.9 1216.4 813.9 1219.3 813.8 1225.7 799.6 1226.5 785.6 1227.7 768.8 1228.1 745.2 1229.1 737.9 1229.5 725.2 1230.4 706.3 1231.5 693.9 1232.4 693.9 1230.7 693.9 1228.2 694 1225.9 694 1224.1 694.1 1222.5 694.1 1220.4 694.1 1219.4 693.9 1218.3 693.5 1216.3 693.2 1214.6 692.9 1212.8 692.9 1211 692.9 1209.4 692.9 1207.9 692.9 1207 692.9 1198.4 692.8 1192.3 692.5 1188.7 706.1 1189.1 712.5 1189.3 721 1189.5 731.3 1189.4 733.1 1189.4 733.5 1191.6 733.9 1192.8 735.2 1193.3 738.9 1193.4 756.8 1193.4 759.1 1193.4 766.6 1193.5 776.5 1193.6 783.7 1193.6 792.9 1193.4 794.5 1192.7 794.6 1188.7 794.6 1185.2 794.2 1180.6 795.8 1179.7 798.2 1179.7 800.9 1180.3 805.2 1181.3 811.9 1182.7 816.3 1183.3 Z" data-holc_grade="B"/>
<path d="M 937.7 1223.8 937.1 1224.6 936.1 1226.4 936.1 1229.1 935 1232.4 933.9 1235.2 933 1238.9 932.3 1241.5 930.8 1243.5 929 1245.9 927.8 1248 926.5 1250.2 925.4 1252.5 922.9 1256.2 920.9 1258.3 917.3 1260.7 913.3 1262.5 909.1 1263.8 905.1 1264.2 901.7 1264.6 899.3 1264.6 899.3 1257.3 899.9 1247 900.1 1238.5 899.4 1225.5 899.3 1224.6 898.9 1207.5 906 1207.5 914.7 1207.5 921 1207.3 929.2 1207.5 935 1207.5 940.7 1207.6 947.5 1207.6 953.8 1207.6 959.2 1207.3 961.1 1208.4 957.6 1210.7 954.4 1213.2 952.1 1215 950.3 1215.9 948.1 1216.5 945.9 1217.4 944.8 1218.3 943.7 1219 942.1 1220 939.4 1221.1 938.3 1223 937.7 1223.8 Z" data-holc_grade="B"/>
<path d="M 897.3 1389.9 897 1446.9 865.4 1446.7 864.8 1389.9 897.3 1389.9 Z" data-holc_grade="B"/>
<path d="M 814.2 1536.6 815.7 1506.5 873.4 1506.1 896.7 1506.1 897 1536.2 814.2 1536.6 Z" data-holc_grade="B"/>
<path d="M 1040.9 1613 1041.1 1625.5 1017.1 1626 1017.1 1648 977.5 1647.8 971 1648 970.1 1633.8 955.3 1634 955.3 1629.9 913.8 1628.2 916.5 1563 981.6 1563 980.1 1615.1 1035.5 1583.1 1040.5 1587.2 1040.9 1613 Z" data-holc_grade="B"/>
<path d="M 1711.5 1690.4 1714.5 1620 1722.2 1610.2 1708.8 1603.1 1713 1598.5 1719.1 1594.6 1748.5 1609 1802.2 1640.4 1790.6 1648.9 1780 1642.4 1756.8 1655.7 1756.1 1691.4 1711.5 1690.4 Z" data-holc_grade="B"/>
<path d="M 1957.9 1845.4 1844 1845.9 1844.2 1826.3 1874.3 1825.6 1877 1834 1897 1833 1897.7 1824.3 1918.2 1824.1 1918.2 1829.9 1952 1828.6 1956.2 1833 1957.4 1839.8 1957.9 1845.4 Z" data-holc_grade="B"/>
<path d="M 1945.7 2241.3 1905.8 2218.9 1908 2150.3 1907.9 2128.3 1907.7 2112.6 1928 2112.8 1946.7 2111.5 1948.2 2147.8 1946.7 2211.7 1945.7 2241.3 Z" data-holc_grade="B"/>
<path d="M 1527.8 716.3 1521.6 711.7 1507.8 698.1 1494 686.3 1486.5 681.7 1486.9 665 1480.5 664.7 1481.3 639.1 1481.7 625.2 1482.1 605 1514.5 605.2 1515.7 590.3 1525.5 592.9 1536.4 592.9 1545 607.6 1603.9 609.1 1603 622.7 1617.2 637 1634.1 637.2 1633.5 666.6 1561.9 665.7 1560.7 714.5 1535.2 713.4 1527.8 716.3 Z" data-holc_grade="B"/>
<path d="M 311.8 2027.2 311 2048 300.8 2049.2 300.4 2034.4 284.6 2035.3 251.4 2037 229.4 2037.9 230.5 2015.4 278.3 2014.2 280.3 2012.5 280.6 1991.1 243.2 1992.6 230.5 1992.6 230.9 1974.9 267.6 1974.4 293.7 1971.8 311.8 1971.8 311.8 2027.2 Z" data-holc_grade="B"/>
<path d="M 1666.8 714.7 1667.2 737.9 1728 737.6 1727.2 790.3 1577.6 790.3 1560.4 764 1579.9 754.5 1584.6 748.9 1585.5 693.1 1653.6 694.4 1653.6 714.7 1666.8 714.7 Z" data-holc_grade="B"/>
<path d="M 1727.2 850.3 1722.4 850.3 1689.3 850.3 1688.1 887.5 1656.1 887.5 1656.1 907.6 1696.8 908.2 1696.8 957.2 1649 956.9 1644.3 947.4 1644.3 850.2 1644.3 834.4 1613.5 833.8 1609.2 826.1 1591.4 806.5 1577.6 790.3 1727.2 790.3 1727.2 850.3 Z" data-holc_grade="B"/>
<path d="M 1696.8 908.2 1722.8 907.3 1722.4 850.3 1727.2 850.3 1752 850.3 1752.8 906.5 1776.9 906.8 1778.1 913.7 1776.5 921.2 1772.9 933 1774.9 940.5 1772.5 949.4 1767.8 950.6 1763.1 953.8 1763.5 956.9 1696.8 957.2 1696.8 908.2 Z" data-holc_grade="B"/>
<path d="M 1564.2 942.3 1564.6 926 1564.6 909.6 1564.2 897.5 1564.2 890.1 1564.2 877.2 1564.2 865.1 1564.6 857 1564.2 850.4 1574.3 850.4 1586.1 850.2 1597 850.1 1599.2 850.1 1599.7 852.7 1599.3 856.7 1597 863.9 1595.6 868.7 1595 871.8 1594.8 873.4 1594.2 875.6 1594 878.3 1593.8 881.8 1594.4 885.2 1595.8 888.6 1597.2 892.3 1598.4 895 1599.7 898.4 1600.3 902 1601.1 906.6 1601.7 911.8 1601.9 915.7 1600.9 919.7 1599.9 924.6 1599 928.3 1598.4 931.4 1597 934.2 1594.6 936.4 1593 939.7 1591.9 942 1574.9 941.9 1564.2 942.3 Z" data-holc_grade="B"/>
<path d="M 1322 750.8 1322 768.6 1316.7 768.3 1316.4 777.9 1337.4 778.5 1336.3 794.3 1264.3 793.4 1261.1 793 1259.6 791.5 1260.2 780.5 1263.4 780.2 1276.2 780 1276.8 772.5 1274.4 771.6 1256.3 771.8 1255.5 770.7 1255.5 768.1 1262.3 768.8 1273.8 769 1274.1 759.9 1274.4 750.8 1270.6 750.4 1260.5 749.5 1256 749.1 1254.3 748 1235.3 747.2 1234.4 748 1234.4 773.3 1233.6 773.8 1212 763.6 1211.7 746.7 1208.1 745 1202.5 736.1 1196.6 737.7 1190.1 725.5 1226.2 725.8 1245.1 726.4 1268.5 726.9 1269.7 727.9 1269.4 739.6 1270.8 740.9 1296 740.9 1308.1 741.1 1307.2 749.5 1322 750.8 Z" data-holc_grade="B"/>
<path d="M 1069.9 785.9 1064.7 787.7 1057.5 791 1050.4 794.2 1049.9 798.5 1049.9 805.6 1049.9 815.8 1049.9 829.9 1049.9 841.2 1050.4 849 1050.1 855.6 1039 856 1017.8 855.6 997.3 855.5 990.9 855.5 987.2 856.9 986.7 863.2 986.5 874.9 986.2 883.7 986.2 892 986 901.9 984.3 905 978.9 904.9 973 904.9 966.1 904.8 959.9 904.7 955.9 904.7 950.7 904.6 944.6 904.6 940.1 904.6 934.5 904.6 928.5 904.6 923.1 904.6 919.2 904.5 912 904.5 906.6 904.4 903.2 904.2 900.9 904.1 902.9 900.1 902.6 889.3 904.1 889 931.7 889 952.9 889.5 954.7 888.4 955.2 881.2 955.4 861.9 955.7 846.6 952.7 845 929 845.2 913.7 845 902.9 844.8 901.4 843.9 901.9 831.5 902.9 816.2 903.1 804.5 902.9 790.8 902.9 783 924.1 783.2 948 783.6 970.7 783.6 984 783.4 985 782.5 986 769.7 987.5 768.1 999.8 768.1 999.6 755.8 999.8 753.3 1007.2 753.3 1020.6 753.5 1025.2 753.7 1028.6 754 1031.9 754.2 1034.8 754.2 1039.5 754.2 1046.1 754.2 1048.3 754.3 1050.8 754.4 1053.7 754.5 1056.4 754.6 1059.3 754.7 1062 754.7 1065.2 754.7 1070.2 754.7 1071.9 753.5 1074.5 752.4 1079 757.5 1086.1 764.9 1091.8 770.6 1095.7 774.4 1096 780.5 1081.9 780.3 1072.8 784.8 1069.9 785.9 Z" data-holc_grade="B"/>
<path d="M 900.9 904.1 903.2 904.2 906.6 904.4 912 904.5 919.2 904.5 923.1 904.6 928.5 904.6 934.5 904.6 940.1 904.6 944.6 904.6 950.7 904.6 955.9 904.7 959.9 904.7 966.1 904.8 973 904.9 978.9 904.9 984.3 905 986 905.7 986 908.4 986 909.8 986.1 911.6 986.1 914.3 986.1 916.9 986.2 920.7 986.2 921.2 986.2 925.7 986.2 928.6 986.1 930.2 986.1 931.2 986 933.1 988.8 933.2 991.1 933.3 994.5 933.5 998.7 933.6 1004.3 933.9 1007 934 1009.3 934.1 1012.4 934.4 1012.4 938.3 1012.4 942.6 1012.4 944.3 1012.3 951.3 1012.3 956.5 1012.2 960.5 1012.1 968.4 1012.1 974.4 1012.1 980.5 1012.1 999.4 1012.4 1024.8 1011.9 1025.9 989.7 1025.9 971 1025.7 952.2 1025.7 933.7 1025.9 923.8 1026.2 923.1 1035.8 922.9 1049.7 922.4 1071.8 922.1 1089 916.2 1089.1 903.9 1089.5 890.6 1090.6 878 1091.3 867.1 1091.5 859.7 1091.8 856 1101.2 850.6 1117.4 848.4 1118.3 835.1 1116.7 816.3 1114.5 816.6 1112.9 816.3 1099.2 816.6 1089 816.8 1073.8 817 1057.6 817.1 1054.7 817.1 1018 817.6 987 817.3 965.2 815.8 964.3 773.9 963.9 770.9 963.7 771.7 956.9 776.4 952.7 780.3 948.2 783 945.7 772.2 939.8 762.8 935.3 749 935.3 723.6 935.4 691 935.3 662.4 935.1 654.3 934.9 654.5 928.4 654.3 914 654 905 684.9 904.8 712 904.9 721.4 905 759.6 904.6 785.7 904.6 817.1 904.6 817.3 888.8 817.8 871.3 818 854.7 817.8 843.9 830.1 844.1 831.9 844.6 831.6 872.7 831.1 881.8 831.4 887.2 833.3 890.4 836.5 893.3 839.5 895.6 838.8 899.9 837.8 904.1 861.5 904.3 882.4 904.3 900.9 904.1 Z" data-holc_grade="B"/>
<path d="M 1113.6 512.2 1114.9 514.3 1116.8 517.2 1117.7 521.3 1119.8 530.5 1118.9 542 1084.8 541.7 1059.3 542 1038.2 541.8 1015.7 541.6 1003.1 541.1 991.2 540.8 991 534.4 991.6 510.5 991.9 490.4 984.8 481.9 984.8 475.9 1031 476.5 1031 462.5 1031 452.1 1031 445 1031.6 432.9 1048.7 432.5 1065.6 432.7 1077.5 432.5 1077.2 440.3 1076.6 448.9 1076 467.9 1075.7 478.1 1075.4 490.2 1075.1 501.8 1074.8 512.4 1088.4 512.4 1113.6 512.2 Z" data-holc_grade="C"/>
<path d="M 1069.8 874 1066.4 874 1066.4 881.4 1066.1 892.9 1065.7 901.6 1065.4 906.3 1067.6 907.2 1067.9 910 1067.9 914.6 1067.9 919.4 1067.9 922.8 1067.9 924.8 1067.9 930.9 1067.9 934 1069.8 934.5 1074.5 934.6 1080.7 934.7 1087 935 1091.3 935.3 1094.5 937.1 1094.4 939.7 1094.2 943.4 1094 946.1 1094 950.7 1094 954.9 1094 957.5 1094 961.9 1094 965 1093.9 967.6 1093.9 970.2 1093.8 974.9 1093.7 976.5 1093.7 978 1093.6 980.4 1093.5 982.3 1090.2 982.3 1086.9 982.4 1082.9 982.5 1077 982.2 1073.2 982.1 1068.6 981.9 1065.6 981.8 1060.5 981.5 1054 981.2 1050.4 981 1045.1 980.9 1039.5 980.8 1034.7 980.8 1030.9 980.7 1027.9 980.6 1024.9 980.6 1018.8 980.5 1012.1 980.5 1012.1 974.4 1012.1 968.4 1012.2 960.5 1012.3 956.5 1012.3 951.3 1012.4 944.3 1012.4 942.6 1012.4 938.3 1012.4 934.4 1009.3 934.1 1007 934 1004.3 933.9 1005 931.8 1005.5 927.5 1005.5 923.5 1005.7 916.3 1006 908.8 1004.2 907.5 998.6 907.5 989.7 906.8 986 905.7 984.3 905 986 901.9 986.2 892 986.2 883.7 986.5 874.9 986.7 863.2 987.2 856.9 990.9 855.5 997.3 855.5 1017.8 855.6 1039 856 1050.1 855.6 1050.4 849 1049.9 841.2 1049.9 829.9 1049.9 815.8 1049.9 805.6 1049.9 798.5 1050.4 794.2 1057.5 791 1064.7 787.7 1069.9 785.9 1070.1 790.1 1070.1 799.8 1070.1 811.7 1070.1 823 1070.1 833.5 1069.8 844.5 1070.1 855.5 1070.1 863.4 1069.8 874 Z" data-holc_grade="C"/>
<path d="M 1143.1 1211.8 1141.2 1211.8 1140.1 1211.9 1138.4 1212 1137.5 1212 1135.8 1212.1 1134.9 1212.1 1134 1212.1 1132.4 1212.2 1130.8 1212.2 1129.3 1212.2 1128.3 1212.2 1127.2 1212.2 1125.6 1212.2 1124.4 1212.2 1122.9 1212.2 1121.6 1212.2 1120.4 1212.2 1118.9 1212.2 1118 1212.2 1117.1 1212.2 1116 1212.2 1114.5 1212.2 1112.9 1212.2 1111.5 1212.2 1110.6 1212.2 1109.2 1212.2 1108 1212.2 1106.8 1212.2 1105.5 1212.2 1104.1 1212.2 1102.6 1212.2 1101.1 1212.2 1100 1212.2 1098.8 1212.3 1097.5 1212.3 1095.9 1212.4 1094.3 1212.4 1093.2 1212.5 1092.3 1212.5 1091.3 1212.5 1089.4 1212.6 1088.3 1212.6 1087.7 1212.6 1085.3 1212.6 1083.7 1212.5 1082.1 1212.5 1081 1212.5 1079.5 1212.5 1077.7 1212.4 1075.6 1212.4 1074.1 1212.4 1072.1 1212.4 1070.9 1212.4 1069 1212.3 1068.1 1212.3 1067.4 1212.2 1066.2 1212.2 1064.5 1212.1 1062.6 1212 1062.6 1210 1062.6 1207.8 1062.6 1205.9 1062.6 1204.6 1062.6 1202.5 1062.5 1200.4 1062.4 1198.9 1062.4 1198.2 1062 1189.9 1061.7 1178.5 1062 1166.8 1062.3 1160.5 1062.5 1156.2 1062.8 1148 1062.9 1146.2 1062.9 1143 1062.9 1139.1 1062.9 1134.8 1065.7 1133.6 1067.6 1132.9 1070 1132 1074.1 1129.1 1077.7 1127.5 1094.8 1128.2 1112 1128.2 1140.4 1128.1 1147.3 1128.1 1146.1 1137.8 1145.8 1145.6 1145.5 1152.7 1145.5 1158.6 1145.2 1163.1 1144.6 1167 1144.6 1173 1144.6 1178.9 1144.3 1184.5 1144 1193.4 1143.7 1199.7 1143.7 1208.1 1143.1 1211.8 Z" data-holc_grade="C"/>
<path d="M 665.3 965 664.6 996 673.2 996 673.4 1027 595.8 1027.7 595.5 965.4 653.7 965.7 665.3 965 Z M 611.3 995.8 611.4 1010.4 649.2 1010.2 649 995.6 611.3 995.8 Z" data-holc_grade="C"/>
<path d="M 1065.6 981.8 1065.9 989.7 1065.9 999.6 1065.6 1009.6 1065.3 1023.4 1065.6 1036.4 1065.6 1053.7 1065.6 1064.7 1065 1077.7 1064.4 1088.7 1064.1 1099.1 1063.8 1114.2 1063.8 1124 1062.9 1134.8 1062.9 1139.1 1062.9 1143 1062.9 1146.2 1062.8 1148 1062.5 1156.2 1062.3 1160.5 1053.4 1160.7 1044.2 1160.7 1036.9 1160.7 1034.8 1159.6 1034.8 1158.1 1034.8 1154.2 1035.1 1149.5 1035.4 1145.4 1035.7 1140 1034.2 1138.7 1031.2 1138.7 1025.6 1138.9 1018.5 1138.9 1014.4 1138.9 1012.9 1138.2 1012.9 1134.1 1013.5 1128.7 1013.8 1122.7 1014.1 1113.6 1014.4 1104.5 1014.4 1094.5 1014.7 1083.3 1014.7 1073.1 1015.2 1067.3 1008.7 1064 1001.9 1060.2 994.2 1056 988.6 1053 983.9 1051.9 978 1054.3 973.8 1054.8 968.2 1055.2 959 1055 945.7 1055 943 1056.7 943 1061.2 942.7 1069.5 942.7 1076.4 942.7 1083.5 942.4 1088.5 938 1088.5 934.1 1088.4 929.7 1088.3 927.6 1088.5 924.9 1088.7 922.1 1089 922.4 1071.8 922.9 1049.7 923.1 1035.8 923.8 1026.2 933.7 1025.9 952.2 1025.7 971 1025.7 989.7 1025.9 1011.9 1025.9 1012.4 1024.8 1012.1 999.4 1012.1 980.5 1018.8 980.5 1024.9 980.6 1027.9 980.6 1030.9 980.7 1034.7 980.8 1039.5 980.8 1045.1 980.9 1050.4 981 1054 981.2 1060.5 981.5 1065.6 981.8 Z" data-holc_grade="C"/>
<path d="M 1109.4 1011.3 1109.6 1014.7 1109.8 1017.2 1110.1 1020.8 1110.5 1026.8 1110.7 1029.9 1111 1034.4 1111.3 1036.9 1111.7 1039.7 1112 1042.5 1112 1047.4 1112 1050.4 1112.2 1054.4 1112.3 1056.5 1112.7 1060.1 1113.2 1065.4 1113.5 1070 1113.8 1073.7 1114 1076.3 1114.2 1079.3 1114.5 1082.3 1113.9 1086.1 1112.9 1091.2 1112 1094.5 1110.5 1097.5 1107.5 1103.3 1104.4 1107.7 1102.2 1110.6 1096.7 1115.6 1092.3 1119.1 1086.9 1122.3 1077.7 1127.5 1074.1 1129.1 1070 1132 1067.6 1132.9 1065.7 1133.6 1062.9 1134.8 1063.8 1124 1063.8 1114.2 1064.1 1099.1 1064.4 1088.7 1065 1077.7 1065.6 1064.7 1065.6 1053.7 1065.6 1036.4 1065.3 1023.4 1065.6 1009.6 1065.9 999.6 1065.9 989.7 1065.6 981.8 1068.6 981.9 1073.2 982.1 1077 982.2 1082.9 982.5 1086.9 982.4 1090.2 982.3 1093.5 982.3 1093.4 986.6 1093.4 989.7 1093.4 993.1 1093.4 995.1 1093.4 995.9 1093.4 997.9 1093.3 1000.8 1093.1 1004.4 1093.1 1008.3 1093.1 1010 1095.2 1010.9 1096.9 1010.9 1102.8 1010.9 1105.8 1011 1109.4 1011.3 Z" data-holc_grade="C"/>
<path d="M 1227.7 1128.5 1227.7 1131.5 1227.7 1135 1227.7 1138 1227.1 1143.8 1226.8 1150.3 1226.8 1156 1226.3 1162.7 1225.7 1171.1 1225.4 1181.7 1225.1 1196.8 1225.1 1205.3 1225.1 1213.1 1225.1 1218.9 1213.5 1218.9 1200.2 1218.7 1188.1 1218.5 1178 1218.7 1166.8 1218.7 1157 1218.5 1143.4 1218.5 1143.1 1211.8 1143.7 1208.1 1143.7 1199.7 1144 1193.4 1144.3 1184.5 1144.6 1178.9 1144.6 1173 1144.6 1167 1145.2 1163.1 1145.5 1158.6 1145.5 1152.7 1145.8 1145.6 1146.1 1137.8 1147.3 1128.1 1152 1128.1 1157 1128.2 1160.3 1128.2 1164.1 1128.2 1168 1128.2 1171.8 1128.2 1174.8 1128.2 1178.6 1128.2 1182.8 1128.2 1186.6 1128.2 1189.3 1128.1 1192.2 1128.1 1195.2 1128.1 1198.7 1128.1 1200.8 1128.1 1202.9 1128.1 1206 1128.1 1209.6 1128.1 1213.2 1128.2 1216.7 1128.3 1219.4 1128.3 1221.8 1128.4 1224.4 1128.4 1226.8 1128.5 1227.7 1128.5 Z" data-holc_grade="C"/>
<path d="M 942.4 1088.5 942.4 1098 942.7 1104.1 942.7 1111 942.1 1113.6 942.1 1117.5 942.1 1120.5 942.1 1123.5 945.1 1124.6 954 1124.6 966.7 1124.2 975.3 1124.4 985.9 1124.4 991.6 1124.4 996.6 1124.6 1000.7 1124.8 999.9 1127.6 999.6 1130.7 999.6 1133.9 999 1141.3 998.1 1144.5 999 1148.2 996.9 1149 992.5 1149 989.8 1150.6 987.1 1151.6 984.5 1153.8 982.1 1155.7 980.3 1157.3 978 1159.6 976.2 1161.4 972.6 1163.1 968.5 1164.2 963.8 1164.8 958.7 1164.8 955.5 1165 955.5 1167.2 955.5 1169.6 955.5 1172 955.2 1174.6 955.2 1175.9 954 1177.4 951 1177.8 946 1176.5 940.7 1173.5 936.2 1171.5 931.8 1169.6 924.7 1167 919.7 1165.3 913.1 1163.7 908.4 1162.5 904.9 1161.8 901 1161.6 900.1 1160.3 899.8 1150.6 899.8 1147.7 901.3 1147.1 911.1 1147.1 930.3 1146.7 934.5 1146.4 934.5 1143.4 934.2 1137.4 934.2 1133.7 934.5 1127.6 930.9 1126.8 923.2 1126.8 912.3 1126.3 904.9 1126.3 900.1 1126.3 896.6 1126.3 889.2 1125.3 880.6 1124.2 871.4 1122.9 870.8 1123.5 871.1 1125.5 871.7 1127.6 872 1129.8 872.3 1132 872.3 1134.5 871.4 1137.1 869.6 1138.9 867.6 1141.9 865.8 1144.3 868.2 1146 870.2 1147.5 871.4 1150.3 871.7 1153.4 872.3 1158.3 871.4 1163.5 869.6 1165.5 864 1165.9 859.3 1167.6 856 1168.7 853.7 1168.9 850.7 1169.4 846.9 1169.4 843.9 1167.9 841.2 1165.5 841.8 1160.5 842.1 1154.9 842.4 1151 842.4 1147.3 843.3 1143.4 843.9 1140.4 843.3 1138.4 841.2 1138.2 835.3 1138.2 830.3 1137.8 825 1138 817.6 1138 809.3 1138.2 807.8 1137.4 808.4 1133.9 808.4 1129.8 808.4 1125.9 807.5 1123.5 806.9 1121.4 806.6 1119.4 806.6 1117.2 808.7 1116 811.3 1115.1 816.3 1114.5 835.1 1116.7 848.4 1118.3 850.6 1117.4 856 1101.2 859.7 1091.8 867.1 1091.5 878 1091.3 890.6 1090.6 903.9 1089.5 916.2 1089.1 922.1 1089 924.9 1088.7 927.6 1088.5 929.7 1088.3 934.1 1088.4 938 1088.5 942.4 1088.5 Z" data-holc_grade="C"/>
<path d="M 733.6 1102.3 742 1103 779.5 1107.6 786 1109.5 786.8 1131.9 793.9 1138.2 775.9 1139.4 775.1 1132.9 748.3 1132.6 748.1 1126.5 741.2 1126.8 742 1137.8 734.3 1149.7 697.2 1134.9 684.2 1130.6 658.1 1125.1 646.3 1120.8 631.9 1115.9 623.2 1113.3 618.3 1113 618.3 1097.7 646.5 1095.2 678.6 1097.8 733.6 1102.3 Z" data-holc_grade="C"/>
<path d="M 734.3 1162 756.4 1172 756.8 1193.4 738.9 1193.4 735.2 1193.3 733.9 1192.8 733.5 1191.6 733.1 1189.4 731.3 1189.4 721 1189.5 712.5 1189.3 706.1 1189.1 692.5 1188.7 693.1 1157.2 697.4 1156.4 703.3 1153.8 708.2 1150.6 712.6 1150.9 731.7 1162.1 734.3 1162 Z M 613.3 1207.8 610.9 1207.8 595 1208.4 585.2 1208.7 567.2 1209.5 565.6 1172.4 565.8 1121.5 571.5 1122.2 583.2 1121.6 591.8 1121.3 596.4 1121.6 608.2 1120.6 626.6 1121.5 638.8 1123.9 652 1131.6 658.7 1133.2 664.4 1141.7 665.2 1147.7 665 1151.5 671.3 1156.4 679.4 1161.6 673.7 1163.9 666 1163.3 652 1159.8 637.4 1154.4 637.2 1164.3 636 1169.6 633.7 1175 631.5 1182.5 627.7 1185.8 623.6 1186.2 619.1 1185.9 615.3 1188.5 613.3 1207.8 Z" data-holc_grade="C"/>
<path d="M 844 1225 842.7 1225 840.6 1225 838.8 1225 835 1225.2 831.7 1225.4 829 1225.5 825.5 1225.7 823.4 1225.8 821.1 1225.9 817.8 1225.8 815.9 1225.8 813.8 1225.7 813.9 1219.3 813.9 1216.4 812.9 1214.7 812.9 1213.1 812.9 1207 813 1202.7 813.1 1198.7 813.3 1195.7 814.3 1192.4 815.7 1188.7 815.9 1185.5 816.3 1183.3 820.8 1183.3 824 1182.4 825.6 1181.8 828.8 1180.5 832.7 1179.7 838.3 1179 842.2 1179 849.8 1179.5 853.5 1180.1 855.4 1181.3 855.9 1183.3 855 1188 853.9 1192 852.8 1196 850.6 1200.4 851.2 1201.3 857.6 1201.5 868.6 1201.7 875 1201.6 892.5 1201.7 902.2 1201.6 912.1 1202 925.2 1201.9 939.5 1202.3 947.7 1202.2 955.9 1202.2 964.9 1202.2 973.9 1202 979.5 1202 982.3 1202.9 982.3 1204.3 982.3 1204.8 982.3 1205.3 982.3 1206.1 982.3 1207.4 982.4 1208.5 982.5 1209.2 982.5 1210.2 982.6 1211.5 982.7 1212.9 983 1214.6 983.1 1215.9 983 1217.2 982.7 1219.1 982.8 1221.8 977 1222.6 969.4 1223 960.2 1223.5 951.2 1223.8 943 1223.8 937.7 1223.8 938.3 1223 939.4 1221.1 942.1 1220 943.7 1219 944.8 1218.3 945.9 1217.4 948.1 1216.5 950.3 1215.9 952.1 1215 954.4 1213.2 957.6 1210.7 961.1 1208.4 959.2 1207.3 953.8 1207.6 947.5 1207.6 940.7 1207.6 935 1207.5 929.2 1207.5 921 1207.3 914.7 1207.5 906 1207.5 898.9 1207.5 899.3 1224.6 885.5 1224.8 875.1 1225.3 863 1225.2 846.5 1225 844 1225 Z" data-holc_grade="C"/>
<path d="M 1071.9 753.5 1070.2 754.7 1065.2 754.7 1062 754.7 1059.3 754.7 1056.4 754.6 1053.7 754.5 1050.8 754.4 1048.3 754.3 1046.1 754.2 1039.5 754.2 1034.8 754.2 1031.9 754.2 1028.6 754 1025.2 753.7 1020.6 753.5 1021.4 731.6 1020.8 724.1 1018.7 721.9 1010 721.2 988 720 988.7 702.1 988.7 678.5 989.5 654.9 989.5 637 991.1 613.4 991.1 599 991.1 578.8 991.1 570.2 991 564.5 990.8 554.4 991.2 540.8 1003.1 541.1 1015.7 541.6 1038.2 541.8 1059.3 542 1084.8 541.7 1118.9 542 1120.5 557.4 1105.3 557.1 1078 557.1 1077.8 571.2 1098.2 571.4 1098.2 581.2 1098.4 591 1099 602.6 1089.1 602.5 1070.4 602.5 1040.4 602.2 1038.8 602.6 1043.3 606.8 1049.4 611.8 1060.7 621.9 1074.3 634.6 1074.3 638.5 1074.3 643.7 1074 650.1 1073.9 654.1 1073.6 660.6 1073.5 662.8 1073.5 663.4 1082.4 663.3 1089.1 663.3 1090.9 694 1080.8 694.1 1076.9 694.1 1074.1 694.5 1073.5 696.5 1073.5 699 1078.6 698.9 1082.6 699.4 1081.6 701.9 1081.2 703.9 1081.2 706.8 1081.8 710.8 1078.4 714.1 1076.3 718.2 1074.5 721.8 1072.9 724.1 1072.3 730.3 1072.3 735.9 1072.3 743.7 1072.1 749.3 1071.9 753.5 Z" data-holc_grade="C"/>
<path d="M 693.9 1232.4 706.3 1231.5 725.2 1230.4 737.9 1229.5 745.2 1229.1 768.8 1228.1 785.6 1227.7 799.6 1226.5 813.8 1225.7 815.9 1225.8 817.8 1225.8 821.1 1225.9 823.4 1225.8 825.5 1225.7 829 1225.5 831.7 1225.4 835 1225.2 838.8 1225 840.6 1225 842.7 1225 844 1225 843.5 1228.9 843.2 1233 843.3 1237 842.7 1242.2 842.4 1246.8 841.8 1254.6 840.8 1258.6 839.7 1263.6 839.2 1267.5 838.4 1270.4 830.2 1270.3 818.1 1270.6 804 1270.9 793 1270.7 785.6 1270.8 773.7 1271.2 764.7 1270.7 759 1270.3 758.7 1264.9 751.5 1264.5 741.7 1264.5 731.7 1264.5 719.4 1264.1 701 1264.3 680.1 1264.4 663.4 1264.6 656 1264.6 653 1264.4 650.9 1263.3 637.5 1263.7 622.5 1263.9 616.2 1263.7 614.3 1263.3 614.8 1255 614.6 1246.7 614.8 1237.4 618.1 1237.6 626.3 1239 631.4 1239.6 638.1 1239.8 643.7 1239.3 650.1 1238.6 656.9 1236.6 662.9 1236.2 668.6 1235.4 674.6 1234.5 678.7 1233.9 684.1 1233.1 693.9 1232.4 Z" data-holc_grade="C"/>
<path d="M 486 1392.5 485.4 1434.9 442.5 1435.8 443.9 1391.8 486 1392.5 Z" data-holc_grade="C"/>
<path d="M 485.4 1434.9 486 1392.5 486.3 1390.1 535.1 1389.2 538.6 1392 555.8 1392 556.7 1424.1 519.7 1424.1 508.5 1425.1 495.7 1429.7 485.4 1434.9 Z" data-holc_grade="C"/>
<path d="M 652.6 1333 653.1 1345.9 691 1345.9 691.8 1390.6 652.7 1391.5 652.1 1436.2 602 1444.6 594.6 1447.2 567.6 1447.2 568.5 1390.5 635.7 1391 636 1332.8 652.6 1333 Z" data-holc_grade="C"/>
<path d="M 485.4 1434.9 495.7 1429.7 508.5 1425.1 519.7 1424.1 556.7 1424.1 555.8 1392 538.6 1392 535.1 1389.2 535.4 1362 568.2 1361.3 568.5 1390.5 567.6 1447.2 594.6 1447.2 602 1444.6 652.1 1436.2 651.9 1446.6 650.5 1538.1 565.9 1538.8 565.6 1523.2 456.7 1523.2 456.1 1506.7 400.1 1539.2 401 1506.5 428.6 1505.7 427.4 1448.3 486.6 1447.9 485.4 1434.9 Z" data-holc_grade="C"/>
<path d="M 742 1446.9 815.3 1471.1 874.5 1491.6 894.4 1498.5 873.4 1506.1 815.7 1506.5 814.2 1536.6 760.3 1537 758.8 1566.3 734.6 1566.7 734.6 1627.1 710.6 1627.3 710.3 1599.4 689.6 1599.8 690.8 1537.9 650.5 1538.1 651.9 1446.6 742 1446.9 Z" data-holc_grade="C"/>
<path d="M 980.4 1390 966 1390 897.3 1389.9 864.8 1389.9 865.4 1446.7 815.1 1447.2 815.2 1375.9 814.4 1350 814.3 1346 820.6 1329.5 838.5 1329.5 857.9 1329.5 858.5 1375.3 980.2 1355 980.4 1390 Z" data-holc_grade="C"/>
<path d="M 1119.2 1595.4 1117.2 1578.3 1075.1 1578.1 1074.3 1565.6 1060.1 1565.1 1059.2 1508.2 1037.9 1507.8 1039.9 1448.5 1031.9 1448.3 1037.3 1435.3 1027.5 1421.4 1029 1354.3 1166.9 1344.6 1167.8 1390.5 1164.8 1442.6 1162.5 1510.4 1139.1 1524.4 1138.5 1595 1119.2 1595.4 Z" data-holc_grade="C"/>
<path d="M 1102.7 1625.3 1060.6 1625.5 1041.1 1625.5 1040.9 1613 1061.5 1612.3 1077.5 1614.9 1102.9 1613.9 1102.7 1625.3 Z M 1119.2 1595.4 1103.3 1595.2 1103 1607.4 1077.8 1606.9 1061.3 1603.9 1060.1 1565.1 1074.3 1565.6 1075.1 1578.1 1117.2 1578.3 1119.2 1595.4 Z" data-holc_grade="C"/>
<path d="M 1349.3 1564 1350.1 1575.8 1386.4 1573.8 1385.2 1626.9 1247.9 1625.2 1247.1 1617.7 1251.4 1616.5 1251.4 1613.6 1248.3 1612.2 1248.3 1609.3 1262.5 1609 1263.7 1533.4 1238.8 1554.2 1237.2 1565.4 1219.9 1565.1 1221.4 1534.8 1253 1534.3 1275.9 1517.5 1356.8 1518.7 1356.8 1535.1 1346.9 1535.1 1347.3 1548.4 1336.3 1548.7 1336.7 1564 1349.3 1564 Z" data-holc_grade="C"/>
<path d="M 1182.6 711.3 1156.4 710.6 1118.4 709.9 1117.9 704.8 1102.2 694 1090.9 694 1089.1 663.3 1098.2 663.3 1109.6 663.4 1117 663.4 1124.8 663.3 1131.7 663.2 1140.6 663.1 1146.2 663.1 1150.8 664.5 1154.7 664.1 1144.9 644.6 1142 640.1 1139.3 634.5 1136.1 627.8 1129.5 617.6 1139.6 616.2 1145.1 616.6 1153 614.8 1160.4 613.7 1165.8 610.8 1165.8 607.9 1170.7 605.8 1173.7 607.9 1181.1 607.6 1184 607.6 1186.5 605.8 1191.9 605.8 1199.3 604.3 1199.3 614.4 1199.3 632.4 1198.8 650.8 1198.3 660.5 1210.2 661.6 1218.6 661.2 1218.6 644.3 1218.6 641.8 1237.8 641.8 1237.8 623.1 1252.6 622.7 1267.9 623.1 1270.4 631.3 1274.3 641.8 1277.3 654 1279.7 662.3 1280.7 666.3 1287.1 678.5 1298 697.2 1296.5 699.1 1254.1 696.5 1250.1 693.3 1225 685 1185.5 672.8 1185.5 664.5 1159.9 664.1 1164.3 676 1172.2 690 1182.6 711.3 Z" data-holc_grade="C"/>
<path d="M 1385.2 1626.9 1384.6 1676.3 1384.4 1686.9 1306.3 1686.5 1216.7 1686.1 1217.5 1625.7 1247.9 1625.2 1385.2 1626.9 Z" data-holc_grade="C"/>
<path d="M 1599.7 1582.1 1601.2 1585.9 1595 1586.1 1592 1586.9 1591.8 1601.9 1608.1 1602.3 1608.3 1611.5 1628.9 1611.5 1637.2 1628 1649.4 1628.2 1650.8 1580.1 1639.9 1569.5 1670.1 1551.4 1681 1559.8 1678.4 1565 1685.8 1574.9 1677.5 1579.7 1713 1598.5 1708.8 1603.1 1722.2 1610.2 1714.5 1620 1711.5 1690.4 1695.7 1690.4 1688.6 1689 1678 1680 1675.2 1679 1654.1 1658.3 1644.3 1643.1 1589.2 1643.4 1501.6 1643.1 1508.2 1625 1564.7 1625 1565.3 1607 1545.5 1606.3 1545.5 1584.5 1507.9 1583.6 1507.9 1567.8 1568.6 1568.2 1569.2 1581 1598.2 1581.4 1599.7 1582.1 Z" data-holc_grade="C"/>
<path d="M 1589.2 1643.4 1589.2 1672.2 1658.7 1672.8 1675.2 1679 1678 1680 1688.6 1689 1695.7 1690.4 1711.5 1690.4 1713.1 1749.3 1545.8 1748.1 1539.9 1748.1 1540.3 1719.4 1511.9 1718.7 1512.3 1724.6 1519.2 1747.8 1485.8 1747.3 1486.2 1708.3 1494.9 1708 1496.1 1658.7 1501.6 1643.1 1589.2 1643.4 Z" data-holc_grade="C"/>
<path d="M 1306.2 1697.6 1306.3 1686.5 1384.4 1686.9 1384.6 1676.3 1416.8 1644.5 1427.8 1645.1 1427.8 1672.5 1461 1672.5 1460.2 1659.2 1496.1 1658.7 1494.9 1708 1486.2 1708.3 1485.8 1747.3 1384.4 1747.3 1384.8 1704.6 1365.5 1704 1364.3 1697.3 1306.2 1697.6 Z" data-holc_grade="C"/>
<path d="M 1519.2 1747.8 1539.9 1748.1 1545.8 1748.1 1546.2 1790.6 1581.7 1806.2 1581.7 1871.7 1458.2 1871.2 1457.8 1810.8 1384 1809.9 1384.4 1747.3 1485.8 1747.3 1519.2 1747.8 Z" data-holc_grade="C"/>
<path d="M 1896 1992.2 1872.3 1992.5 1871.3 1942.3 1871.1 1889.1 1856.5 1889.4 1845 1875.7 1818.6 1846.1 1795.4 1819.1 1792.2 1818.5 1792.2 1815.6 1789.5 1810.9 1917.7 1809.5 1918.2 1824.1 1897.7 1824.3 1897 1833 1877 1834 1874.3 1825.6 1844.2 1826.3 1844 1845.9 1957.9 1845.4 1958.2 1894.3 1959.9 1935.5 1959.9 1959.7 1953.2 1962.4 1945.6 1963.6 1918.7 1963.6 1918.7 1992 1896 1992.2 Z" data-holc_grade="C"/>
<path d="M 1907.9 2128.3 1908 2150.3 1905.8 2218.9 1945.7 2241.3 1944.7 2245.1 1941.8 2249.5 1918.8 2237.5 1884.8 2220 1877.9 2224.5 1875.4 2224.2 1875.2 2221.5 1878.4 2220.2 1878.4 2217.9 1873.5 2216.2 1872.2 2211.7 1867.1 2201.6 1863.1 2179.2 1870.3 2178.1 1872 2168.6 1855.2 2168.4 1854 2135 1869.8 2135.3 1867.1 2128.3 1907.9 2128.3 Z" data-holc_grade="C"/>
<path d="M 1851.3 2295.2 1849.1 2278.2 1885.8 2278.2 1887.8 2243.1 1891.5 2244 1918.6 2257.2 1917.6 2269.2 1945.2 2270.4 1944.5 2285.8 1977.5 2286.3 1977.3 2301.9 1998.8 2302 1999 2310.9 1992.8 2328.8 1940.1 2329.1 1938.8 2343.9 1882.3 2342.5 1884.1 2295.3 1851.3 2295.2 Z" data-holc_grade="C"/>
<path d="M 1851.3 2295.2 1859.2 2332.6 1829.3 2332.4 1829.6 2351.7 1863.1 2352.4 1868.5 2380.8 1835.2 2381 1832 2371 1774.3 2371.9 1774.1 2355.5 1691.7 2354.6 1691.2 2334 1693.7 2293.9 1851.3 2295.2 Z" data-holc_grade="C"/>
<path d="M 1402.1 622.7 1414.2 630.7 1422.2 637 1431.1 642.8 1441.5 649.7 1460.4 662.5 1468.4 669 1457.5 669.2 1443 669 1429.3 668.3 1419.3 668.1 1406.8 667.7 1400.3 667.7 1399.4 658.8 1400 642.2 1400.3 632.2 1402.1 622.7 Z" data-holc_grade="C"/>
<path d="M 863.2 720.6 853.1 721.2 842.7 720.9 831.8 720.9 821.7 721.6 821.1 725.7 820.6 730.9 815.4 730.7 810.5 730.4 805.5 730.1 802.9 730 800.1 729.8 800 728 800 725.7 799.9 722.6 799.7 719.2 799.6 715.3 799.5 712.1 799.4 708.8 799.3 705.6 803.7 705.5 807.8 705.4 811.7 705.3 814 705.2 818.8 705.1 823 705 823.1 701.7 823.1 698.3 823.2 693.1 823.3 689.8 823.4 687 823.4 683.6 852.2 684.3 864 684.8 863.2 706.2 863.2 720.6 Z" data-holc_grade="C"/>
<path d="M 1516 786.6 1544.6 786.6 1550 791.6 1553.5 794.1 1558.9 801.3 1564.8 803.9 1569.8 805.3 1573.7 807.8 1576.2 810 1582.6 812.5 1587 816.1 1590 819.7 1592.4 823.3 1594.9 826.9 1595.9 833.4 1585 833 1573.7 833.4 1557.4 833.8 1557.4 820.4 1546.1 819.7 1531.3 819.7 1517 819.7 1516.5 808.9 1516 786.6 Z" data-holc_grade="C"/>
<path d="M 1480.4 849.3 1477 849.3 1474 849.3 1470.8 849.2 1468.4 849.2 1463.7 849.1 1460 849.1 1456 849 1452.1 849 1447.4 848.9 1442.7 848.9 1439 848.8 1434.3 848.8 1429.6 848.7 1425.9 848.7 1421.8 848.6 1417.8 848.6 1415 848.5 1409.7 848.5 1406 848.5 1401.5 848.4 1397.3 848.4 1394.1 848.4 1390.4 848.4 1387.2 848.3 1383 848.3 1378.3 848.2 1373.6 848.1 1369.2 848 1365.7 848 1363 847.9 1357.6 847.8 1353.4 847.7 1351 847.7 1348.5 847.6 1344.8 847.6 1339.8 847.5 1335.6 847.4 1332.7 847.3 1328.8 847.3 1323.6 847.2 1319.9 847.1 1317 847 1312.5 847 1310.5 846.9 1308.3 846.9 1303.6 846.8 1298.2 846.8 1293 846.7 1288.6 846.6 1285.4 846.6 1282.4 846.6 1278.7 846.5 1275.5 846.5 1273 846.4 1269.3 846.4 1264.9 846.3 1261.4 846.3 1258.5 846.2 1254.8 846.2 1252.5 846.2 1249.1 846.1 1245.9 846 1240.2 845.9 1232.8 845.7 1226.9 845.6 1220.7 845.4 1216.3 845.3 1211.1 845.2 1206.5 845.1 1202.5 845 1198.8 844.9 1196 844.9 1191.9 844.8 1188.2 844.8 1181.6 844.8 1175.9 844.7 1170.7 844.7 1165.3 844.7 1160.2 844.6 1156.6 844.5 1153.4 844.4 1149.8 844.2 1149.5 839.9 1119.9 808.9 1109.1 797.4 1109.1 790.9 1110 782.3 1117.9 782.6 1135.2 783 1148 782.6 1148.5 768.6 1148.5 760.6 1149 754.2 1139.6 753.8 1127.8 753.4 1117.4 753.8 1117.9 739 1118.4 726.4 1118.4 718.1 1118.4 709.9 1156.4 710.6 1182.6 711.3 1190.1 725.5 1196.6 737.7 1202.5 736.1 1208.1 745 1211.7 746.7 1212 763.6 1233.6 773.8 1234.4 773.3 1234.4 748 1235.3 747.2 1254.3 748 1256 749.1 1255.5 768.1 1255.5 770.7 1256.3 771.8 1274.4 771.6 1276.8 772.5 1276.2 780 1263.4 780.2 1260.2 780.5 1259.6 791.5 1261.1 793 1264.3 793.4 1336.3 794.3 1337.4 778.5 1316.4 777.9 1316.7 768.3 1322 768.6 1322 750.8 1334.2 750.8 1339.5 756.2 1399.3 757.1 1398.1 786.9 1428 787.6 1431.3 788.2 1430.4 820.4 1457.3 821.1 1484.8 849.4 1480.4 849.3 Z" data-holc_grade="C"/>
<path d="M 1480.4 849.3 1481.2 851.7 1481.7 858.5 1481.5 866.6 1481.2 878.3 1481.5 890.9 1481 901.9 1480.7 916.3 1480.7 930.9 1480.5 945 1480.5 956 1480.5 964.3 1480.5 971.1 1475.3 970.9 1469.6 971.3 1469.4 981.2 1469.6 987 1469.4 992 1469.4 1002.5 1469.4 1013.6 1469.1 1022.1 1468.9 1029.7 1466.9 1031.6 1453.3 1031.1 1438.3 1030.9 1424.7 1030.7 1422.5 1030.3 1419.1 1029.7 1419.1 1016.7 1419.3 1002.3 1419.6 985.9 1419.8 970.9 1409 970.9 1379.1 970.7 1324.1 970 1288.4 969.8 1256 969.8 1214.9 970.2 1189.5 969.8 1168.7 969.8 1151.5 969.5 1151.2 961.2 1151.2 954.7 1149 953.1 1132 952.6 1127.6 952.6 1126.8 950.6 1127.1 938.7 1125.8 938 1116.5 937.6 1117.2 932.4 1103.6 932.2 1103.4 928.9 1103.1 924.8 1102.9 921 1102.8 917.5 1102.6 914.2 1102.5 910.7 1102.4 907.7 1102.4 903.4 1102 899.5 1101.9 898 1101.5 893.9 1101.2 890.8 1100.5 885.2 1100.2 882.8 1100.3 878.3 1100.4 875.8 1096.7 874.7 1100.9 873.3 1113.7 873.8 1114.5 872.9 1114.5 860.5 1114.7 856.5 1126.3 856.7 1138.7 856.9 1150 856.7 1149.8 849 1149.8 844.2 1153.4 844.4 1156.6 844.5 1160.2 844.6 1165.3 844.7 1170.7 844.7 1175.9 844.7 1181.6 844.8 1188.2 844.8 1191.9 844.8 1196 844.9 1198.8 844.9 1202.5 845 1206.5 845.1 1211.1 845.2 1216.3 845.3 1220.7 845.4 1226.9 845.6 1232.8 845.7 1240.2 845.9 1245.9 846 1249.1 846.1 1252.5 846.2 1254.8 846.2 1258.5 846.2 1261.4 846.3 1264.9 846.3 1269.3 846.4 1273 846.4 1275.5 846.5 1278.7 846.5 1282.4 846.6 1285.4 846.6 1288.6 846.6 1293 846.7 1298.2 846.8 1303.6 846.8 1308.3 846.9 1310.5 846.9 1312.5 847 1317 847 1319.9 847.1 1323.6 847.2 1328.8 847.3 1332.7 847.3 1335.6 847.4 1339.8 847.5 1344.8 847.6 1348.5 847.6 1351 847.7 1353.4 847.7 1357.6 847.8 1363 847.9 1365.7 848 1369.2 848 1373.6 848.1 1378.3 848.2 1383 848.3 1387.2 848.3 1390.4 848.4 1394.1 848.4 1397.3 848.4 1401.5 848.4 1406 848.5 1409.7 848.5 1415 848.5 1417.8 848.6 1421.8 848.6 1425.9 848.7 1429.6 848.7 1434.3 848.8 1439 848.8 1442.7 848.9 1447.4 848.9 1452.1 849 1456 849 1460 849.1 1463.7 849.1 1468.4 849.2 1470.8 849.2 1474 849.3 1477 849.3 1480.4 849.3 Z M 1236.6 851.5 1235.1 899.2 1237.8 901.9 1242 905 1247.7 910 1254.3 915.3 1259 918.9 1280.7 919.4 1278 910 1276.5 906.1 1275.5 902.5 1274.1 898 1271.8 891.1 1269.9 887 1269.6 884.3 1268.1 879.6 1266.7 876 1263.7 871.3 1258.8 864.6 1254.6 857.1 1251.1 851.7 1236.6 851.5 Z" data-holc_grade="C"/>
<path d="M 1566.3 1149.3 1559.2 1148.8 1638.2 1065.5 1612.1 1052.3 1592.9 1051.3 1597.9 1044.6 1600.9 1026.4 1606.2 1001.5 1621.6 1001.5 1617.8 978.8 1616.3 963.5 1641.7 960 1641.2 949.6 1631.1 949.4 1630.5 941.4 1611.6 941.6 1610.1 934.5 1612.4 910.5 1611.9 877.6 1612.4 865.8 1616.6 850 1644.3 850.2 1644.3 947.4 1649 956.9 1696.8 957.2 1763.5 956.9 1763.1 959.4 1760.4 968 1765.2 973.6 1769 980.5 1769 993.3 1762.2 1002.2 1742.1 1023.1 1733.8 1028.3 1722.8 1029.6 1706.9 1047.1 1715.1 1051.7 1698.9 1064.4 1693.5 1062.3 1685.5 1069.6 1687.9 1070.9 1679.3 1075.7 1674.6 1075.5 1666.3 1070.3 1656.5 1069.4 1651.2 1075.7 1640.9 1083.3 1634 1079.8 1568.3 1149.4 1566.3 1149.3 Z M 1723.1 1010.6 1721.9 1004.5 1705.1 1004.1 1682.3 1028.6 1705.1 1028.8 1723.1 1010.6 Z" data-holc_grade="C"/>
<path d="M 1099 602.6 1125.1 602.3 1127.2 609.8 1129.5 617.6 1136.1 627.8 1139.3 634.5 1142 640.1 1144.9 644.6 1154.7 664.1 1150.8 664.5 1146.2 663.1 1135.2 659.7 1123.4 656.3 1112.1 653 1103.9 650.2 1101.3 649.3 1094 646.3 1092.3 644.4 1090.8 642.8 1088.7 640.5 1082.2 637.9 1079.7 636.8 1074.3 634.6 1060.7 621.9 1049.4 611.8 1043.3 606.8 1038.8 602.6 1040.4 602.2 1070.4 602.5 1089.1 602.5 1099 602.6 Z" data-holc_grade="D"/>
<path d="M 815.1 1447.2 865.4 1446.7 897 1446.9 897 1463.4 874.9 1462.5 874.5 1491.6 815.3 1471.1 815.1 1447.2 Z M 966 1390 980.4 1390 982.2 1394.7 979.4 1446 965.6 1446 966 1390 Z M 815.1 1447.2 742 1446.9 651.9 1446.6 652.1 1436.2 652.7 1391.5 691.8 1390.6 691 1345.9 653.1 1345.9 652.6 1333 652.3 1326.6 660 1326.5 677.4 1327.1 688.4 1327.4 712.7 1327.7 711.9 1388.3 765.2 1387.8 765.2 1361.8 774.2 1361.5 773.8 1351.7 814.4 1350 815.2 1375.9 815.1 1447.2 Z" data-holc_grade="D"/>
<path d="M 1224.8 1340.6 1224.2 1388.2 1390.3 1388 1387.6 1564 1349.3 1564 1336.7 1564 1336.3 1548.7 1347.3 1548.4 1346.9 1535.1 1356.8 1535.1 1356.8 1518.7 1275.9 1517.5 1253 1534.3 1221.4 1534.8 1222.2 1507.7 1168.2 1506.8 1162.5 1510.4 1164.8 1442.6 1167.8 1390.5 1166.9 1344.6 1029 1354.3 1001.7 1355.9 1001.7 1345 1021.4 1343 1021.4 1333.1 1053.7 1330.8 1225 1327.7 1224.8 1340.6 Z M 1376.5 1475.4 1366.3 1474.8 1363.9 1470.8 1353.6 1452.3 1334.3 1469.6 1337.8 1474.5 1338.6 1505.7 1377.7 1506.3 1376.5 1475.4 Z" data-holc_grade="D"/>
<path d="M 1387.6 1564 1390.3 1388 1224.2 1388.2 1224.8 1340.6 1303.5 1334.9 1438.9 1335.5 1438.5 1385.7 1460.6 1386.2 1462.1 1411.6 1450.3 1411.9 1451.1 1417.7 1460.6 1437.6 1450.3 1437 1449.9 1456.6 1425.4 1460.1 1426.2 1486.6 1447.2 1512.6 1446.4 1535.1 1440.8 1546.1 1433.7 1557.1 1424.7 1564.3 1387.6 1564 Z" data-holc_grade="D"/>
<path d="M 1507.9 1583.6 1508.2 1625 1501.6 1643.1 1496.1 1658.7 1460.2 1659.2 1461.9 1607.5 1448.6 1577 1454.2 1569.4 1460.4 1555.6 1466.7 1537 1467.3 1481.1 1467.6 1474.2 1475.8 1469 1540.7 1540.7 1539.2 1542.2 1550.4 1555.4 1586.5 1574.2 1598.2 1581.4 1569.2 1581 1568.6 1568.2 1507.9 1567.8 1507.9 1583.6 Z" data-holc_grade="D"/>
<path d="M 1628.9 1611.5 1618.2 1590.9 1599.7 1582.1 1598.2 1581.4 1586.5 1574.2 1550.4 1555.4 1539.2 1542.2 1540.7 1540.7 1475.8 1469 1481.8 1466 1494.2 1463.6 1505.7 1463.8 1512.2 1465.8 1511.9 1480.1 1556 1483.5 1578.8 1495.2 1588.3 1524 1615.5 1524.6 1629.4 1534.4 1641.9 1528.7 1670.1 1551.4 1639.9 1569.5 1650.8 1580.1 1649.4 1628.2 1637.2 1628 1628.9 1611.5 Z" data-holc_grade="D"/>
<path d="M 734.3 1162 731.7 1162.1 712.6 1150.9 708.2 1150.6 703.3 1153.8 697.4 1156.4 693.1 1157.2 691.1 1145.7 693.1 1138.9 697.2 1134.9 734.3 1149.7 734.3 1162 Z" data-holc_grade="D"/>
<path d="M 1887.8 2243.1 1885.8 2278.2 1849.1 2278.2 1851.3 2295.2 1693.7 2293.9 1697.1 2231 1726.5 2230.9 1729.9 2168.6 1765 2169.5 1802.2 2169.6 1800 2231 1838.9 2231.8 1846.6 2264.8 1870.3 2265.2 1872.2 2241 1880.9 2241 1887.8 2243.1 Z" data-holc_grade="D"/>
<path d="M 1843.3 2539.9 1900.4 2544.4 1896.1 2516.4 1929.9 2519.3 1926.1 2554.2 1903.7 2553.9 1907 2571.3 1888.9 2571.1 1862.7 2568.2 1840.9 2565.4 1843.3 2539.9 Z" data-holc_grade="D"/>
<path d="M 300.8 2049.2 311 2048 311.8 2027.2 337.1 2027.2 338.3 2041.1 302.4 2065.4 300.8 2049.2 Z" data-holc_grade="D"/>
<path d="M 223 2316.7 273.7 2335 244.3 2356.9 219.7 2359.7 223 2316.7 Z" data-holc_grade="D"/>
<path d="M 1398.6 731.4 1411 731.4 1426.4 731.6 1438.2 732.3 1447.7 732.9 1456.6 733.1 1456.9 739.8 1456.6 745.5 1456 751.1 1456 753.5 1446.5 753.7 1433.8 753.5 1423.7 753.2 1414.5 753.2 1406.5 752.6 1398.3 752.2 1398.6 731.4 Z" data-holc_grade="D"/>
<path d="M 1497.6 1073.5 1494.4 1073.4 1492.2 1073.4 1489.3 1073.3 1486.3 1073.3 1483.3 1073.3 1480.4 1073.3 1475.6 1073.3 1471.9 1073.4 1469.4 1073.5 1466 1073.5 1462.3 1073.6 1458.5 1073.7 1455.2 1073.8 1452.2 1073.8 1448.9 1073.9 1447.4 1073.9 1445.9 1073.9 1442.5 1073.9 1438.7 1073.9 1435.4 1073.9 1431.4 1073.9 1427.3 1073.9 1424.1 1073.9 1424.2 1071.5 1424.3 1070 1424.3 1068.4 1424.3 1066.4 1424.4 1064.5 1424.5 1061.8 1424.5 1059.2 1424.7 1057.3 1424.8 1055.3 1425 1053.6 1425.1 1051.7 1425.2 1049.6 1425.4 1047.8 1425.5 1045.7 1425.5 1043.5 1425.5 1041.3 1425.5 1038.6 1425.5 1036.3 1425.4 1035.3 1425.2 1034 1424.9 1032.2 1424.7 1030.7 1438.3 1030.9 1453.3 1031.1 1466.9 1031.6 1468.9 1029.7 1469.1 1022.1 1469.4 1013.6 1469.4 1002.5 1469.4 992 1469.6 987 1469.4 981.2 1469.6 971.3 1475.3 970.9 1480.5 971.1 1480.5 964.3 1480.5 956 1480.5 945 1480.7 930.9 1480.7 916.3 1481 901.9 1481.5 890.9 1481.2 878.3 1481.5 866.6 1481.7 858.5 1481.2 851.7 1480.4 849.3 1484.8 849.4 1493.8 848.9 1518.7 849.4 1538 849.7 1554.8 849.9 1560.3 850.1 1564.2 850.4 1564.6 857 1564.2 865.1 1564.2 877.2 1564.2 890.1 1564.2 897.5 1564.6 909.6 1564.6 926 1564.2 942.3 1564 958.7 1564.2 967.8 1564.4 975.9 1563.8 983.3 1569 983.8 1572.9 983.7 1575.5 984.1 1578 984.7 1581 985.6 1581 988 1581.2 990.3 1584 993.3 1586.5 998.1 1586.7 1002.4 1586.7 1005.3 1585.7 1009.2 1585.3 1012.5 1585.3 1015.7 1584 1019.3 1580.2 1024.5 1573.1 1031.3 1567 1035.4 1561.9 1037.6 1553.4 1041.8 1549 1044.2 1545.5 1046 1541.1 1047.4 1536.8 1050.7 1533.6 1054 1529.7 1056.5 1524.2 1060.1 1519.2 1063 1512.9 1067.6 1507.6 1070.3 1503.1 1072.5 1500.3 1073.5 1497.6 1073.5 Z" data-holc_grade="D"/>
<path d="M 1566.3 1149.3 1564.8 1152.2 1562.1 1155.4 1560.1 1160.1 1558.3 1165.3 1556.1 1169.9 1553.8 1173.3 1550.8 1178 1550 1182.3 1550.2 1188.7 1550.2 1192.4 1548.8 1196.3 1548.1 1200.2 1546.7 1201.8 1544.1 1204.3 1541.1 1204.8 1536 1205.1 1532.5 1205.1 1532.5 1203 1531.3 1197.3 1529.5 1188.1 1528.9 1183.1 1527.9 1176.7 1527.7 1173 1526.9 1169.4 1526.3 1167.5 1523.8 1167.6 1514.9 1168.2 1506.6 1168.9 1495.4 1169.4 1479.6 1170.4 1473.7 1170.7 1472.3 1169.9 1471.7 1166.9 1470.9 1163.6 1470.3 1158.7 1469.9 1154.7 1468.9 1150.8 1468.5 1146.9 1467.9 1142.3 1466.8 1141.7 1461.2 1141.8 1453.9 1141.8 1445.3 1141.7 1437.6 1141.8 1437 1140.8 1438.9 1137.2 1443.1 1132 1446.6 1129.3 1450.8 1127 1454.5 1123.8 1461 1120.9 1464.6 1117.9 1469.5 1115.2 1471.9 1113 1474.5 1109.5 1477.6 1106.1 1481.4 1101.7 1483.1 1099.4 1486.7 1096.4 1489.5 1093.5 1491.8 1091.2 1495.2 1089.1 1498.1 1087 1502.9 1083.3 1506.4 1081.7 1509.8 1079.1 1513.9 1076.1 1517.5 1073.5 1523.2 1069.7 1527.1 1066.3 1532.1 1063.3 1536.6 1062.1 1544.3 1060.4 1549 1060.1 1555 1059.8 1562.7 1060.1 1567.2 1059.5 1571.3 1058.8 1576.1 1057.9 1580.8 1057.6 1584 1056.3 1588.7 1054 1592.9 1051.3 1612.1 1052.3 1638.2 1065.5 1559.2 1148.8 1566.3 1149.3 Z" data-holc_grade="D"/>
<path d="M 1419.1 1029.7 1422.5 1030.3 1424.7 1030.7 1424.9 1032.2 1425.2 1034 1425.4 1035.3 1425.5 1036.3 1425.5 1038.6 1425.5 1041.3 1425.5 1043.5 1425.5 1045.7 1425.4 1047.8 1425.2 1049.6 1425.1 1051.7 1425 1053.6 1424.8 1055.3 1424.7 1057.3 1424.5 1059.2 1424.5 1061.8 1424.4 1064.5 1424.3 1066.4 1424.3 1068.4 1424.3 1070 1424.2 1071.5 1424.1 1073.9 1427.3 1073.9 1431.4 1073.9 1435.4 1073.9 1438.7 1073.9 1442.5 1073.9 1445.9 1073.9 1447.4 1073.9 1448.9 1073.9 1452.2 1073.8 1455.2 1073.8 1458.5 1073.7 1462.3 1073.6 1466 1073.5 1469.4 1073.5 1471.9 1073.4 1475.6 1073.3 1480.4 1073.3 1483.3 1073.3 1486.3 1073.3 1489.3 1073.3 1492.2 1073.4 1494.4 1073.4 1497.6 1073.5 1496.8 1074.9 1493.2 1076.7 1488.9 1078.2 1485.5 1080.3 1481.4 1082.9 1478.4 1085.3 1474.3 1087.8 1473.1 1089.6 1471.5 1091.1 1467 1093.1 1462.4 1095 1456.5 1095.5 1454.5 1097.9 1452.2 1099.4 1447.2 1102.8 1440.5 1110 1437.6 1114.4 1434.4 1117.8 1429.5 1123.7 1427.1 1128.1 1418.2 1127.8 1391.2 1127.6 1373.8 1127.6 1361.4 1127.3 1346 1127.4 1331.4 1127.3 1329.4 1128.1 1329 1136.4 1329 1149.6 1327.1 1151.3 1324.7 1151.2 1316.8 1151.2 1310.1 1151.3 1310.1 1150.2 1310.1 1149.7 1310.1 1149.3 1310.1 1148.8 1310.1 1148.3 1310 1147.6 1310 1147.2 1310 1146.8 1310 1146.5 1310 1146.1 1310 1145.3 1310 1144.6 1310 1143.9 1310 1143.3 1310 1142.8 1310 1142.4 1310 1141.8 1309.9 1141.2 1309.9 1140.6 1309.9 1139.9 1309.9 1139.2 1309.9 1138.8 1310 1138.4 1310 1137.9 1310 1137.5 1310 1137.1 1310.1 1136.5 1310.1 1136.1 1310.1 1135.6 1310.1 1135.3 1310.2 1134.6 1310.2 1134.1 1310.2 1133.3 1310.3 1132.8 1310.3 1132.6 1310.3 1132.2 1310.3 1131.9 1310.4 1131.3 1310.4 1130.8 1310.5 1130.4 1310.5 1129.8 1310.6 1129.3 1310.6 1128.8 1310.7 1128.3 1310.7 1127.9 1310.8 1127.6 1310.8 1127.2 1317 1126.8 1316.7 1113.6 1317 1100.8 1317.7 1087.7 1318 1069.5 1318.2 1053.3 1318.7 1044.6 1318.9 1033.3 1319.2 1029.5 1328.6 1029.3 1350 1029.3 1359.9 1029.8 1370 1030 1381.6 1029.8 1395.4 1029.7 1411.2 1029.8 1419.1 1029.7 Z" data-holc_grade="D"/>
<path d="M 1419.1 1029.7 1411.2 1029.8 1395.4 1029.7 1381.6 1029.8 1370 1030 1359.9 1029.8 1350 1029.3 1328.6 1029.3 1319.2 1029.5 1318.9 1033.3 1318.7 1044.6 1318.2 1053.3 1318 1069.5 1317.7 1087.7 1317 1100.8 1316.7 1113.6 1317 1126.8 1310.8 1127.2 1310.2 1127.3 1309.9 1127.4 1309.4 1127.6 1309 1127.7 1308.6 1127.8 1308.1 1127.9 1307.6 1128.1 1307.2 1128.1 1306.5 1128.2 1305.7 1128.3 1304.9 1128.3 1304.1 1128.4 1303.2 1128.5 1302.2 1128.6 1300.5 1128.6 1299.2 1128.6 1297.7 1128.7 1296.9 1128.7 1294.8 1128.7 1292.7 1128.7 1289.8 1128.8 1288.4 1128.8 1284.3 1128.8 1281.6 1128.8 1276.9 1128.8 1271.8 1128.8 1267.9 1128.8 1263.8 1128.8 1258.8 1128.8 1255.6 1128.8 1252.3 1128.8 1247 1128.8 1243.2 1128.8 1239.3 1128.7 1235.1 1128.6 1231.9 1128.6 1227.7 1128.5 1226.8 1128.5 1224.4 1128.4 1221.8 1128.4 1219.4 1128.3 1216.7 1128.3 1213.2 1128.2 1209.6 1128.1 1206 1128.1 1202.9 1128.1 1200.8 1128.1 1198.7 1128.1 1195.2 1128.1 1192.2 1128.1 1189.3 1128.1 1186.6 1128.2 1182.8 1128.2 1178.6 1128.2 1174.8 1128.2 1171.8 1128.2 1168 1128.2 1164.1 1128.2 1160.3 1128.2 1157 1128.2 1152 1128.1 1147.3 1128.1 1140.4 1128.1 1112 1128.2 1094.8 1128.2 1077.7 1127.5 1086.9 1122.3 1092.3 1119.1 1096.7 1115.6 1102.2 1110.6 1104.4 1107.7 1107.5 1103.3 1110.5 1097.5 1112 1094.5 1112.9 1091.2 1113.9 1086.1 1114.5 1082.3 1114.2 1079.3 1114 1076.3 1113.8 1073.7 1113.5 1070 1113.2 1065.4 1112.7 1060.1 1112.3 1056.5 1112.2 1054.4 1112 1050.4 1112 1047.4 1112 1042.5 1111.7 1039.7 1111.3 1036.9 1111 1034.4 1110.7 1029.9 1110.5 1026.8 1110.1 1020.8 1109.8 1017.2 1109.6 1014.7 1109.4 1011.3 1109.3 1009.1 1109 1005.7 1108.6 1000.5 1108.2 994.9 1108.1 991.8 1107.5 986.7 1106.8 979.9 1106.8 976.5 1106.8 971.6 1106.4 966.5 1106.1 963.2 1105.7 958.5 1105.4 953.5 1105.2 951 1105.1 946.6 1104.9 942.6 1104.1 936.5 1103.6 932.2 1117.2 932.4 1116.5 937.6 1125.8 938 1127.1 938.7 1126.8 950.6 1127.6 952.6 1132 952.6 1149 953.1 1151.2 954.7 1151.2 961.2 1151.5 969.5 1168.7 969.8 1189.5 969.8 1214.9 970.2 1256 969.8 1288.4 969.8 1324.1 970 1379.1 970.7 1409 970.9 1419.8 970.9 1419.6 985.9 1419.3 1002.3 1419.1 1016.7 1419.1 1029.7 Z M 1102.4 907.7 1097.5 907.6 1092.8 907.5 1087.8 907.6 1082.2 907.7 1076.5 907.7 1072.6 907.5 1067.6 907.2 1065.4 906.3 1065.7 901.6 1066.1 892.9 1066.4 881.4 1066.4 874 1069.8 874 1076.8 874.4 1087.9 874.5 1096.7 874.7 1100.4 875.8 1100.3 878.3 1100.2 882.8 1100.5 885.2 1101.2 890.8 1101.5 893.9 1101.9 898 1102 899.5 1102.4 903.4 1102.4 907.7 Z" data-holc_grade="D"/>
<path d="M 1310.1 1150.2 1308.2 1150.6 1306 1151.2 1305.2 1152.2 1304.9 1156.4 1305.1 1162.1 1305.1 1168 1305.1 1174.6 1305.1 1179.2 1305.4 1184.9 1305.4 1192 1305.5 1198 1305.8 1203.5 1305.8 1210 1306.8 1218.8 1307 1221.9 1307.1 1230.6 1307.1 1236.8 1306.8 1239.2 1298.1 1239.5 1271.6 1239.8 1261 1239.8 1240 1239.9 1229.9 1239.8 1203.6 1240.1 1183.5 1239.8 1171.2 1239.9 1161 1240.1 1152.6 1240.1 1143.4 1240.2 1143.6 1248.2 1143.7 1257.3 1140.9 1258.7 1137.1 1259.8 1133.2 1261.7 1130.5 1263 1126.2 1264.7 1122 1266.3 1116.9 1268 1112 1269.6 1108.2 1270.6 1099.4 1271.5 1092 1271.4 1084.2 1271.5 1073.8 1271.4 1063.4 1270.9 1063.9 1265.4 1064 1254.8 1064 1243.3 1064.5 1232.4 1064.9 1223.3 1064.7 1217.8 1062.5 1217.1 1062.6 1212 1064.5 1212.1 1066.2 1212.2 1067.4 1212.2 1068.1 1212.3 1069 1212.3 1070.9 1212.4 1072.1 1212.4 1074.1 1212.4 1075.6 1212.4 1077.7 1212.4 1079.5 1212.5 1081 1212.5 1082.1 1212.5 1083.7 1212.5 1085.3 1212.6 1087.7 1212.6 1088.3 1212.6 1089.4 1212.6 1091.3 1212.5 1092.3 1212.5 1093.2 1212.5 1094.3 1212.4 1095.9 1212.4 1097.5 1212.3 1098.8 1212.3 1100 1212.2 1101.1 1212.2 1102.6 1212.2 1104.1 1212.2 1105.5 1212.2 1106.8 1212.2 1108 1212.2 1109.2 1212.2 1110.6 1212.2 1111.5 1212.2 1112.9 1212.2 1114.5 1212.2 1116 1212.2 1117.1 1212.2 1118 1212.2 1118.9 1212.2 1120.4 1212.2 1121.6 1212.2 1122.9 1212.2 1124.4 1212.2 1125.6 1212.2 1127.2 1212.2 1128.3 1212.2 1129.3 1212.2 1130.8 1212.2 1132.4 1212.2 1134 1212.1 1134.9 1212.1 1135.8 1212.1 1137.5 1212 1138.4 1212 1140.1 1211.9 1141.2 1211.8 1143.1 1211.8 1143.4 1218.5 1157 1218.5 1166.8 1218.7 1178 1218.7 1188.1 1218.5 1200.2 1218.7 1213.5 1218.9 1225.1 1218.9 1225.1 1213.1 1225.1 1205.3 1225.1 1196.8 1225.4 1181.7 1225.7 1171.1 1226.3 1162.7 1226.8 1156 1226.8 1150.3 1227.1 1143.8 1227.7 1138 1227.7 1135 1227.7 1131.5 1227.7 1128.5 1231.9 1128.6 1235.1 1128.6 1239.3 1128.7 1243.2 1128.8 1247 1128.8 1252.3 1128.8 1255.6 1128.8 1258.8 1128.8 1263.8 1128.8 1267.9 1128.8 1271.8 1128.8 1276.9 1128.8 1281.6 1128.8 1284.3 1128.8 1288.4 1128.8 1289.8 1128.8 1292.7 1128.7 1294.8 1128.7 1296.9 1128.7 1297.7 1128.7 1299.2 1128.6 1300.5 1128.6 1302.2 1128.6 1303.2 1128.5 1304.1 1128.4 1304.9 1128.3 1305.7 1128.3 1306.5 1128.2 1307.2 1128.1 1307.6 1128.1 1308.1 1127.9 1308.6 1127.8 1309 1127.7 1309.4 1127.6 1309.9 1127.4 1310.2 1127.3 1310.8 1127.2 1310.8 1127.6 1310.7 1127.9 1310.7 1128.3 1310.6 1128.8 1310.6 1129.3 1310.5 1129.8 1310.5 1130.4 1310.4 1130.8 1310.4 1131.3 1310.3 1131.9 1310.3 1132.2 1310.3 1132.6 1310.3 1132.8 1310.2 1133.3 1310.2 1134.1 1310.2 1134.6 1310.1 1135.3 1310.1 1135.6 1310.1 1136.1 1310.1 1136.5 1310 1137.1 1310 1137.5 1310 1137.9 1310 1138.4 1309.9 1138.8 1309.9 1139.2 1309.9 1139.9 1309.9 1140.6 1309.9 1141.2 1310 1141.8 1310 1142.4 1310 1142.8 1310 1143.3 1310 1143.9 1310 1144.6 1310 1145.3 1310 1146.1 1310 1146.5 1310 1146.8 1310 1147.2 1310 1147.6 1310.1 1148.3 1310.1 1148.8 1310.1 1149.3 1310.1 1149.7 1310.1 1150.2 Z" data-holc_grade="D"/>
<path d="M 982.8 1221.8 982.7 1219.1 983 1217.2 983.1 1215.9 983 1214.6 982.7 1212.9 982.6 1211.5 982.5 1210.2 982.5 1209.2 982.4 1208.5 982.3 1207.4 982.3 1206.1 982.3 1205.3 982.3 1204.8 982.3 1204.3 982.3 1202.9 983.3 1200.9 989.2 1200.3 995.9 1200 1002.1 1199.6 1007.8 1199.3 1012.9 1199.3 1021.8 1198.7 1027.5 1198.7 1036.8 1198.6 1041.5 1198.3 1045.7 1198.4 1049.6 1198.3 1053.6 1198.2 1057.5 1198.2 1062.4 1198.2 1062.4 1198.9 1062.5 1200.4 1062.6 1202.5 1062.6 1204.6 1062.6 1205.9 1062.6 1207.8 1062.6 1210 1062.6 1212 1062.5 1217.1 1064.7 1217.8 1064.9 1223.3 1064.5 1232.4 1064 1243.3 1064 1254.8 1063.9 1265.4 1063.4 1270.9 1057.1 1271.3 1052 1271.7 1046.9 1271.9 1040.3 1271.9 1034.1 1271.8 1024.3 1271.5 1017.2 1271.3 1013.4 1270.6 1009.8 1269.2 1006.1 1268 1000.8 1266.1 995.8 1263 990 1259 987.6 1257.4 984.5 1254 982.4 1250.9 980.8 1247.5 979.6 1244.9 979.5 1241.6 979.5 1236.8 980.5 1231.8 981.8 1227.8 982.8 1224.8 982.8 1221.8 Z M 1060.8 1223 1060.8 1221 1060.7 1218.7 1059.4 1218.5 1055.5 1218.5 1055.3 1220.4 1054.5 1221.1 1051.3 1221.1 1047.9 1221.2 1047.6 1222.5 1047.1 1223.9 1045.3 1224.1 1041.1 1224 1038.3 1223.8 1033.9 1223.7 1030.4 1223.6 1028 1223.7 1027.9 1229.6 1027.5 1233.2 1027.4 1236.2 1027 1239.5 1028.3 1240.1 1030.4 1240.6 1032.6 1240.8 1035.8 1241 1039 1241 1041.7 1240.7 1044.4 1240.6 1046.8 1240.1 1049.3 1239.7 1051.8 1239.3 1055.3 1238.8 1058.1 1239.1 1060 1239.2 1060.9 1238.9 1060.7 1235 1060.5 1232.2 1060.7 1228.8 1060.9 1226.3 1060.8 1223 Z" data-holc_grade="D"/>
<path d="M 857.9 1329.5 838.5 1329.5 820.6 1329.5 816.6 1329.5 796.6 1329.5 770.8 1329.3 756.8 1329.1 742.3 1328.3 729.3 1328 715 1327.7 712.7 1327.7 688.4 1327.4 677.4 1327.1 660 1326.5 652.3 1326.6 651.8 1315.4 651.5 1308.9 651.5 1301.4 645.8 1301.3 635.2 1301.3 623.2 1301.2 614.4 1301 614.4 1296.2 613.9 1288.8 613.9 1283.3 613.9 1274.8 613.9 1267.5 614.3 1263.3 616.2 1263.7 622.5 1263.9 637.5 1263.7 650.9 1263.3 653 1264.4 656 1264.6 663.4 1264.6 680.1 1264.4 701 1264.3 719.4 1264.1 731.7 1264.5 741.7 1264.5 751.5 1264.5 758.7 1264.9 759 1270.3 764.7 1270.7 773.7 1271.2 785.6 1270.8 793 1270.7 804 1270.9 818.1 1270.6 830.2 1270.3 838.4 1270.4 838.4 1280.7 838.2 1288.5 838 1298.4 854.8 1298.3 857.5 1299.3 857.5 1306.3 857.6 1319.5 857.9 1329.5 Z" data-holc_grade="D"/>
<path d="M 486 1392.5 443.9 1391.8 403.7 1392.1 404.7 1332.5 569 1332.1 568.2 1361.3 535.4 1362 535.1 1389.2 486.3 1390.1 486 1392.5 Z M 403 1332.5 316.5 1332.7 317.1 1299 407 1300.1 510.6 1300.5 568.3 1300.7 568.3 1309.8 482.5 1309.4 482.2 1321.5 431.3 1320.4 402.9 1319.3 403 1332.5 Z" data-holc_grade="D"/>
<path d="M 1580.8 65.3 1580.7 61.6 1581 52.6 1581 45.2 1581.3 36.8 1581.6 29.9 1582.1 19.8 1582.7 11.4 1583 2.7 1599.9 3.2 1614.1 3.2 1625.4 3.6 1625.4 10.1 1625.4 20.2 1625.4 29.1 1625.1 38.1 1613.2 37.9 1600.5 37 1599.9 42.2 1599.9 49.8 1599.9 56.5 1599 65.3 1590.7 65.3 1580.8 65.3 Z" data-holc_grade="A"/>
<path d="M 1957.9 1845.4 1957.4 1839.8 1956.2 1833 1952 1828.6 1952 1822.3 1976.2 1823.2 1979.1 1828.6 1983.3 1833.1 1985.5 1838.2 1981.1 1845.8 1962.3 1845.6 1957.9 1845.4 Z" data-holc_grade="A"/>
<path d="M 1583 2.7 1582.7 11.4 1582.1 19.8 1581.6 29.9 1581.3 36.8 1581 45.2 1581 52.6 1580.7 61.6 1580.8 65.3 1581 68.5 1581 81.3 1581 91.4 1580.4 101.8 1580.4 111.5 1580.4 121 1580.4 123.8 1580.4 126.2 1580.4 140.2 1579.8 146.5 1572.7 146 1564.4 146.5 1555.2 146.5 1551.4 146.5 1551.7 153.4 1551.4 162.2 1551.4 171.3 1551.4 178.8 1551.1 184.7 1537.5 184.5 1518.8 184 1491.6 183.6 1468.8 182.3 1449.9 182.1 1439.2 181 1439.5 175.4 1440.1 167.8 1440.1 158.3 1440.4 150.6 1440.1 142.4 1440.4 134.4 1441 126.8 1441 119.3 1451.3 119.3 1467 119.9 1485.1 120.6 1496.9 120.6 1508.5 120.8 1522.4 121.4 1536.6 121.6 1536.9 113.9 1536.9 104.2 1536.9 89.5 1536.9 77.8 1536.9 59.9 1537.5 45.2 1536.9 33.8 1537.5 19.8 1538 9.4 1538 1 1551.7 1.4 1566.5 1.6 1583 2.7 Z" data-holc_grade="B"/>
<path d="M 1438.8 241.5 1457.1 241.8 1480.2 242.9 1480.2 249 1479.7 257.3 1479.7 264.5 1479.7 270.6 1479.7 276 1479.3 281.4 1479.3 287.2 1478.8 291.1 1467.9 291.5 1454.1 290.4 1440.3 290.4 1427.5 290.7 1422.5 291.1 1423.5 287.9 1425.5 278.9 1425.5 274.2 1430.4 267.7 1433.9 264.5 1435.4 259.4 1437.3 251.5 1438.8 241.5 Z" data-holc_grade="B"/>
<path d="M 574.4 660.1 450.5 659.5 449.7 625.5 533.3 626.1 574.4 660.1 Z" data-holc_grade="B"/>
<path d="M 398.4 787.5 483.6 787.5 484.8 907.2 311.9 908.5 314.7 787.2 398.4 787.5 Z" data-holc_grade="B"/>
<path d="M 654.3 936.2 653.7 965.7 595.5 965.4 588.8 965.4 589.6 936 654.3 936.2 Z" data-holc_grade="B"/>
<path d="M 279.1 1599.3 273.8 1600.6 264.6 1599.8 266.7 1572.5 309.9 1571 311.1 1581.1 307.5 1585.3 279.1 1599.3 Z M 349.8 1447.8 351.6 1509.1 344.2 1509.1 343.3 1543 301 1543.7 302.2 1508.2 319 1507.8 318.8 1499.8 286.2 1500.4 286.2 1478.1 318.5 1476.4 318.2 1448.7 349.8 1447.8 Z" data-holc_grade="B"/>
<path d="M 853.5 1746.8 853.2 1780.6 811.5 1780.1 811.5 1747.2 853.5 1746.8 Z M 918.3 1746.6 865.9 1747 865.6 1702.8 916.5 1702.6 918.3 1746.6 Z" data-holc_grade="B"/>
<path d="M 1060.9 1671.2 1060.7 1641.3 1060.6 1625.5 1102.7 1625.3 1187 1627.5 1186.1 1658 1134.3 1657.1 1134 1646.1 1095.3 1645.7 1095 1671.2 1060.9 1671.2 Z" data-holc_grade="B"/>
<path d="M 1306.3 1686.5 1306.2 1697.6 1305.5 1749 1215.1 1748.1 1216.7 1686.1 1306.3 1686.5 Z" data-holc_grade="B"/>
<path d="M 1114.9 514.3 1113.6 512.2 1111.8 500.7 1110.6 494.3 1110.3 490.4 1119.2 489.5 1126.3 489.7 1135.8 489.9 1144.9 490.2 1151.7 489.9 1161.2 490.2 1162.4 493.8 1162.4 497.1 1163.6 502.2 1172.2 502.5 1182.2 502.7 1193.5 503.3 1209.2 503.3 1214.5 506.8 1223.1 513.5 1233.1 519.7 1242.3 526.7 1245.8 529.2 1245.3 532.1 1245 534.4 1245.6 538.3 1250 544.8 1236.4 544.4 1213.9 544.2 1197.3 543.3 1176.6 543.3 1156.2 542.9 1155.3 533.1 1155.9 521.3 1155.6 513.3 1146.7 512.4 1139 512.4 1127.5 512.6 1121 512.6 1114.9 514.3 Z" data-holc_grade="C"/>
<path d="M 913.8 1628.2 955.3 1629.9 955.3 1634 970.1 1633.8 971 1648 977.5 1647.8 976.9 1693.1 895.5 1692.9 894.9 1689.2 832.8 1689 832.5 1704.1 811.2 1703.7 811.2 1668.6 894.3 1668 894 1625.5 910.9 1626.2 910.9 1628.1 913.8 1628.2 Z" data-holc_grade="C"/>
<path d="M 1872.3 1992.5 1896 1992.2 1896.7 2027.5 1956.2 2027 1956.2 2054.6 1936 2055.7 1866.4 2055.5 1871.6 2023.8 1872.3 1992.5 Z" data-holc_grade="C"/>
<path d="M 1323.4 498.5 1324.3 495.5 1329.9 495.7 1336.1 496.8 1342 498.9 1348.2 500.7 1361 500.7 1365.1 500 1373.4 500 1379 499.2 1384.4 499.2 1394.1 498.5 1398 498.5 1397.7 502.6 1394.7 509.1 1390 515.8 1382.6 524.4 1377.2 530.5 1373.7 536.3 1369.9 540.6 1363.9 544.5 1357.7 546.9 1354.8 548.2 1353.3 551.6 1353.3 555.3 1352.4 558.6 1348.5 562.9 1342.9 568.7 1339.4 575.2 1334.9 579.3 1322.2 571.3 1322.5 560.7 1322.5 555.7 1322.5 551 1322.5 546.5 1323.1 541.3 1323.1 536.1 1323.1 529.6 1322.8 520.1 1323.1 507.8 1323.4 498.5 Z" data-holc_grade="C"/>
<path d="M 825.3 597.3 823.4 683.6 823.4 687 823.3 689.8 823.2 693.1 823.1 698.3 823.1 701.7 823 705 818.8 705.1 814 705.2 811.7 705.3 807.8 705.4 803.7 705.5 799.3 705.6 799.4 708.8 799.5 712.1 799.6 715.3 799.7 719.2 799.9 722.6 800 725.7 800 728 800.1 729.8 802.9 730 805.5 730.1 810.5 730.4 815.4 730.7 820.6 730.9 820.6 752.3 714.9 753.4 680.9 752.8 654.9 752.3 655.7 724.6 653.3 722.3 635.1 721.7 597.3 721.7 568.9 721.7 568.9 705 598.8 704.4 610.7 705 603.6 697.5 588.6 680.2 574.4 660.1 658.8 661.8 660.4 596.7 825.3 597.3 Z" data-holc_grade="C"/>
<path d="M 817.8 843.9 764.5 843.8 755.5 847.9 757.8 851.3 740.9 858.8 717.2 830 656.8 829.4 657.6 843.5 673.4 843.8 673.4 873.5 675.7 875.5 675.7 887.9 712 904.9 684.9 904.8 654 905 484.8 907.2 483.6 787.5 398.4 787.5 399 723.5 568.9 721.7 597.3 721.7 635.1 721.7 653.3 722.3 655.7 724.6 654.9 752.3 680.9 752.8 714.9 753.4 820.6 752.3 820.6 730.9 821.1 725.7 821.7 721.6 831.8 720.9 842.7 720.9 853.1 721.2 863.2 720.6 879 720.6 914.5 720 944.9 720 944.1 751.3 983.9 751.3 984 721 987.9 721.2 988 720 1010 721.2 1018.7 721.9 1020.8 724.1 1021.4 731.6 1020.6 753.5 1007.2 753.3 999.8 753.3 999.6 755.8 999.8 768.1 987.5 768.1 986 769.7 985 782.5 984 783.4 970.7 783.6 948 783.6 924.1 783.2 902.9 783 877.2 782.7 853.8 782.5 822.7 782.7 819 783.2 818 814.7 817.8 843.9 Z" data-holc_grade="C"/>
<path d="M 181.9 968.9 272.5 968 275.5 1066.4 236.7 1066.2 238.8 1157 158.6 1158.1 157.4 1092.2 196.4 1090.6 196.4 1035.9 181.6 1036.6 181.9 968.9 Z" data-holc_grade="C"/>
<path d="M 314.1 1030.2 384.9 1030.3 384.9 1045.3 370.8 1044.9 358.8 1047.1 347.9 1051.1 338 1056.1 331.4 1061.7 326.5 1068.7 323.7 1073.2 319.8 1074.7 314.9 1074.5 314.1 1030.2 Z" data-holc_grade="C"/>
<path d="M 428.8 1213.8 432.1 1239.1 405.4 1241.7 404.6 1272.6 358.1 1273.3 357.8 1243 336.2 1241.9 299.2 1239.1 299.2 1266.1 238.2 1267.2 238.2 1273.3 150.3 1275.4 77.5 1277.6 75.8 1235.6 159.2 1226.1 158.9 1216.2 213.4 1214.6 303.9 1214.2 428.8 1213.8 Z" data-holc_grade="C"/>
<path d="M 403.7 1392.1 344 1393.1 284.5 1392.9 219.4 1394.9 151 1397 59.6 1400.7 1.3 1402.4 1 1342.7 146 1336.9 235.4 1333.4 307.9 1332.8 316.5 1332.7 403 1332.5 404.7 1332.5 403.7 1392.1 Z" data-holc_grade="C"/>
<path d="M 479.1 1879.6 479.9 1901.9 440.9 1901.6 435.7 1902.4 426.7 1896.4 417.6 1892.3 410.5 1888 410.5 1883.7 412.8 1880.8 479.1 1879.6 Z M 315.8 1846.4 315.8 1871.3 268.8 1870.4 269.6 1846.4 315.8 1846.4 Z M 526.1 1809.7 425.5 1810 427 1784 477.2 1784 478.7 1776 478.3 1769 526.5 1768.7 522.9 1788.4 526.1 1800.8 526.1 1809.7 Z M 484.5 1596.1 485.1 1629.4 441.3 1629.2 443.9 1596.1 484.5 1596.1 Z" data-holc_grade="C"/>
<path d="M 991.1 570.2 991.1 578.8 991.1 599 991.1 613.4 989.5 637 989.5 654.9 988.7 678.5 988.7 702.1 988 720 987.9 721.2 984 721 954 720 944.9 720 914.5 720 879 720.6 863.2 720.6 863.2 706.2 864 684.8 852.2 684.3 823.4 683.6 825.3 597.3 903.5 597.3 922.4 597.3 923.2 582.9 924 568.5 942.9 568.5 968.2 569 991.1 570.2 Z" data-holc_grade="D"/>
<path d="M 564.1 1686.8 610.9 1687 611.7 1706.5 566.5 1705.8 566.5 1737.7 482.7 1737.2 483.3 1700.9 563.8 1700.2 564.1 1686.8 Z" data-holc_grade="D"/>
<path d="M 1792.9 1910.6 1793.7 1947 1823.5 1947.4 1851.4 1989.8 1793.9 1989.8 1793.2 1948.5 1775.4 1947.6 1781.6 1927 1734.5 1927.7 1734.7 1910.4 1792.9 1910.6 Z M 1792.2 1818.5 1792.4 1868.5 1707.6 1868.3 1707.3 1865.8 1708.8 1815.6 1792.2 1815.6 1792.2 1818.5 Z" data-holc_grade="D"/>
<path d="M 1868.5 2380.8 1863.1 2352.4 1940.8 2353.5 1938.8 2401.9 1874.7 2401.6 1868.5 2380.8 Z" data-holc_grade="D"/>
</g>
</svg>