<?xml version="1.0"?>
<svg xmlns="http://www.w3.org/2000/svg" version="1.2" baseProfile="tiny" width="3000" height="3859" viewBox="0 0 3000 3859" stroke-linecap="round" stroke-linejoin="round">
<g id="A">
<path d="M 2500.5 1072 2480.7 1072 2480.7 1041.5 2378.6 1039.5 2377.3 1123.2 2370.1 1131.6 2340.8 1145.9 2292 1074.2 2303.1 1070 2341.3 1071.6 2343.1 998.4 2450.5 999.7 2451.4 955.6 2426.1 955.3 2404.8 933.9 2406.1 913.4 2317.7 911.2 2304.9 889.1 2288.4 889.1 2273.8 885.2 2272 907.6 2223.5 907.3 2211.6 907.3 2212.5 823.6 2272.5 824.3 2296.4 855.1 2310.6 855.4 2308 847 2300.9 837.6 2300.9 825.9 2294.7 823 2288 823 2259.1 777 2261.4 732.9 2167.2 731.6 2167.7 681 2230.7 682 2232 639.5 2260.9 639.5 2281.8 578.3 2295.1 535.8 2302.2 382.3 2304 319.8 2353.7 320.4 2353.3 302.3 2354.2 289.3 2360.4 279.3 2367.9 271.8 2370 219.3 2370.8 209.9 2370.8 188.8 2370.8 185.3 2496.3 189.5 2495.8 218.4 2532.7 219.7 2526.9 233.9 2523.4 246.9 2505.6 275.4 2486.9 297.7 2471 320.4 2460.3 342.8 2451 365.8 2435.4 398.8 2420.8 425.7 2407.4 442.5 2404.3 455.5 2390.1 481.1 2374.6 509.9 2364.8 525.8 2356.4 540.7 2339.5 559.8 2324 577.6 2311.1 593.9 2300.9 613 2295.5 636.9 2292.9 647.3 2295.5 674.9 2303.1 703.1 2308.9 729 2317.3 758.8 2325.3 773.4 2326.2 779.6 2339.5 794.1 2356.8 822.7 2380.4 851.5 2401.2 873.2 2419.9 891.4 2439.4 915.1 2468.3 945.5 2489.6 963.4 2506.9 974.1 2525.6 985.7 2548.2 1007.8 2563.3 1020.1 2566.9 1025.3 2585.1 1032.7 2599.3 1051.9 2604.6 1067.1 2517.6 1067.8 2516.2 1072 2500.5 1072 Z" data-holc_grade="A"/>
<path d="M 2665.7 1360.1 2629.6 1359.7 2628.4 1275.3 2591.1 1275.3 2591.1 1185.4 2592.3 1106.3 2501.1 1106.7 2500.5 1072 2516.2 1072 2517.6 1067.8 2604.6 1067.1 2611.4 1088.5 2623.2 1107.6 2624.4 1123.6 2632.7 1145.6 2646.9 1172.4 2677.7 1213.5 2681.3 1225.6 2682.4 1246.4 2678.3 1265.8 2682.4 1281.8 2691.9 1298.3 2703.2 1320.3 2713.8 1339.3 2720.9 1359.7 2665.7 1360.1 Z" data-holc_grade="A"/>
<path d="M 1354.3 1174.5 1354.3 1186.1 1354.6 1206.6 1354.3 1224.2 1352.8 1247.2 1352.1 1265.8 1354.3 1267.2 1370.6 1267.4 1393.5 1267.7 1429 1267.4 1433.5 1269.9 1433.1 1292.8 1432.7 1321.8 1432 1332.6 1429.4 1334.2 1397.6 1333.4 1356.1 1333.4 1353.9 1333.9 1354.3 1350.1 1351.3 1356.1 1323.6 1356.4 1292.1 1356.4 1256.6 1356.1 1258.1 1349.9 1259.2 1343.4 1254.7 1339.9 1249.9 1335.5 1247 1330.7 1246.6 1322.6 1247.3 1309.1 1247.7 1266.9 1245.1 1266.1 1226.6 1265.8 1227 1222 1228.5 1174.7 1234 1173.9 1280.6 1173.6 1315.8 1173.9 1354.3 1174.5 Z" data-holc_grade="A"/>
<path d="M 1156.3 1445.6 997.8 1447.5 980.4 1448.6 981.2 1404.2 981.3 1402.3 993.5 1402.6 1036.4 1402.9 1085.2 1403.1 1123.4 1402.9 1144.1 1402.9 1158.1 1409.6 1174.4 1418.5 1170.4 1422.3 1164.4 1429.1 1157.4 1435.3 1156.3 1445.6 Z" data-holc_grade="A"/>
<path d="M 893.1 1448.1 893.4 1541.5 770.9 1542.6 772 1604.6 761.7 1600.5 753.5 1597.3 740.6 1594.8 729.9 1592.9 718.8 1590.5 706.5 1586.2 697.3 1580.5 689.2 1572.7 683.6 1556.4 678.1 1548.1 661 1543.5 652.1 1538.3 639.9 1533.5 628.1 1527.2 622.5 1515.9 621.1 1493.2 617.4 1482.4 614.4 1453.2 883.1 1448 893.1 1448.1 Z" data-holc_grade="A"/>
<path d="M 1224.4 1671.9 1216.9 1672.7 1212.9 1674 1209.8 1675.9 1209.8 1679.2 1210.3 1682.1 1211.1 1685.3 1212.5 1688.9 1212.5 1694.8 1212.5 1700.9 1211.6 1706.1 1213.8 1707.4 1190.7 1707.4 1180 1697.9 1178.9 1664.3 1169.1 1661.5 1112.8 1654.6 1100.2 1653.6 1100.4 1587.1 1225.4 1586.5 1225.1 1610.8 1224.8 1633.5 1224.4 1648.9 1224.8 1669.4 1224.4 1671.9 Z" data-holc_grade="A"/>
<path d="M 1039.2 1810.6 1039.2 1811.9 1039.2 1814.2 1039.2 1816.6 1039.2 1819.3 1039.6 1822 1040.1 1824.6 1040.6 1827.6 1040.9 1829.3 1040.9 1830.6 1040.9 1833.8 1040.9 1836.3 1040.8 1838.9 1040.8 1842.4 1040.7 1846.2 1040.6 1848.7 1025.9 1849.8 1017.9 1851 1011.7 1851.8 1002.7 1853.2 994.2 1854.4 985.2 1855 975 1858.1 965.3 1859.1 957 1859.8 946.8 1859.5 939.3 1858.6 926.9 1856.5 922 1856.2 915.5 1853.7 904.4 1851.4 889.9 1847.3 880.7 1846.2 867.6 1846.2 871.2 1836 874.3 1826 877.6 1813.2 892.3 1812.6 916.2 1811.8 919.8 1811.7 934 1811.6 950.3 1811.1 964.5 1810.7 981.6 1810.4 1002.2 1810 1010.7 1810 1022.8 1810.4 1035.6 1810.4 1039.2 1810.6 Z" data-holc_grade="A"/>
<path d="M 1591.4 2507.2 1590.6 2530.9 1522.2 2530.9 1522.2 2481.5 1531.5 2479.9 1540.8 2472.1 1547.5 2471.7 1551.9 2477.6 1556.8 2478.9 1568.3 2475 1575.9 2468.2 1582.6 2465.2 1586.1 2463 1591.1 2462.3 1591.4 2507.2 Z" data-holc_grade="A"/>
<path d="M 2371.5 97.5 2371.3 92 2371.7 78.4 2371.7 67.4 2372.2 54.8 2372.6 44.4 2373.5 29.2 2374.4 16.5 2374.8 3.6 2400.2 4.2 2421.5 4.2 2438.3 4.9 2438.3 14.6 2438.3 29.8 2438.3 43.1 2437.9 56.7 2420.1 56.4 2401 55.1 2400.2 62.8 2400.2 74.2 2400.2 84.2 2398.8 97.5 2386.4 97.5 2371.5 97.5 Z" data-holc_grade="A"/>
<path d="M 2937.3 2768.5 2936.6 2760.1 2934.7 2749.8 2928.5 2743.3 2928.5 2733.9 2964.7 2735.2 2969.2 2743.3 2975.5 2750.1 2978.8 2757.7 2972.1 2769.1 2944 2768.8 2937.3 2768.5 Z" data-holc_grade="A"/>
</g>
<g id="B">
<path d="M 2223.5 907.3 2222.8 937.7 2222.2 958.4 2164.8 956.7 2165.4 872 2167.2 731.6 2261.4 732.9 2259.1 777 2288 823 2294.7 823 2300.9 825.9 2300.9 837.6 2308 847 2310.6 855.4 2296.4 855.1 2272.5 824.3 2212.5 823.6 2211.6 907.3 2223.5 907.3 Z" data-holc_grade="B"/>
<path d="M 1225.4 1586.5 1100.4 1587.1 1100.2 1653.6 1017.8 1646.8 969.6 1642.9 927.2 1646.6 869 1647.3 861.2 1643 822.7 1643.5 817.9 1638.4 820.9 1631.9 823.5 1627 818.7 1623.5 811.6 1612.7 818.3 1610.5 814.2 1607.5 801.3 1607.3 797.6 1609.4 786.8 1602.4 776.9 1605.4 772 1604.6 770.9 1542.6 893.4 1541.5 1010 1540.5 1009.6 1494 996.7 1494 997.8 1447.5 1156.3 1445.6 1160.7 1445.8 1223.6 1446.4 1225.9 1447.7 1226.2 1480.4 1225.5 1526.9 1225.5 1582.1 1225.4 1586.5 Z" data-holc_grade="B"/>
<path d="M 867.6 1846.2 858.5 1868.3 852.1 1883.6 851.2 1897.4 866.8 1897.1 866.8 1904 856.6 1904.5 722.8 1907.5 677.3 1906.9 673.3 1819.5 706.7 1819.3 753.6 1818.1 810 1816 850.5 1814.3 877.6 1813.2 874.3 1826 871.2 1836 867.6 1846.2 Z" data-holc_grade="B"/>
<path d="M 1224.3 1775 1223.8 1778.4 1223.5 1783.2 1221.3 1788.7 1219.9 1793.7 1219.5 1798.1 1219.4 1804.2 1219.2 1810.5 1219.2 1819.8 1219.2 1822.1 1220.8 1824.7 1220.8 1829.1 1220.6 1838.7 1199.3 1839.9 1178.3 1841.6 1153.1 1842.2 1117.6 1843.8 1106.6 1844.4 1087.7 1845.7 1059.3 1847.4 1040.6 1848.7 1040.7 1846.2 1040.8 1842.4 1040.8 1838.9 1040.9 1836.3 1040.9 1833.8 1040.9 1830.6 1040.9 1829.3 1040.6 1827.6 1040.1 1824.6 1039.6 1822 1039.2 1819.3 1039.2 1816.6 1039.2 1814.2 1039.2 1811.9 1039.2 1810.6 1039.3 1797.7 1039.1 1788.6 1038.5 1783.2 1059 1783.8 1068.6 1784.1 1081.4 1784.3 1096.8 1784.2 1099.5 1784.2 1100.2 1787.6 1100.7 1789.3 1102.7 1790 1108.2 1790.2 1135 1790.2 1138.5 1790.2 1149.7 1790.3 1164.7 1790.4 1175.5 1790.4 1189.2 1790.2 1191.7 1789.1 1191.8 1783.2 1191.8 1777.8 1191.1 1771 1193.6 1769.7 1197.2 1769.7 1201.3 1770.6 1207.6 1772 1217.8 1774.1 1224.3 1775 Z" data-holc_grade="B"/>
<path d="M 1406.5 1835.8 1405.6 1837 1404.2 1839.8 1404.2 1843.7 1402.5 1848.8 1400.8 1852.9 1399.4 1858.4 1398.5 1862.4 1396.1 1865.4 1393.5 1869 1391.6 1872.1 1389.7 1875.4 1388.1 1878.9 1384.2 1884.4 1381.3 1887.6 1375.9 1891.1 1369.9 1893.8 1363.7 1895.8 1357.6 1896.4 1352.6 1897 1348.9 1897 1348.9 1886 1349.7 1870.6 1350 1857.9 1349 1838.3 1349 1837 1348.3 1811.4 1358.9 1811.4 1372 1811.4 1381.4 1811 1393.7 1811.4 1402.5 1811.4 1411 1811.5 1421.2 1811.5 1430.7 1811.5 1438.7 1811 1441.6 1812.7 1436.4 1816.2 1431.6 1819.8 1428.1 1822.6 1425.5 1824 1422.2 1824.9 1418.8 1826.2 1417.2 1827.6 1415.5 1828.7 1413.2 1830.1 1409.1 1831.8 1407.5 1834.6 1406.5 1835.8 Z" data-holc_grade="B"/>
<path d="M 1346 2085.1 1345.4 2170.6 1298 2170.3 1297.1 2085 1346 2085.1 Z" data-holc_grade="B"/>
<path d="M 1221.2 2305.2 1223.4 2260 1310 2259.4 1345.1 2259.4 1345.5 2304.5 1221.2 2305.2 Z" data-holc_grade="B"/>
<path d="M 1561.4 2419.8 1561.7 2438.6 1525.7 2439.3 1525.7 2472.4 1466.2 2472.1 1456.4 2472.4 1455.1 2451 1432.9 2451.3 1432.9 2445.1 1370.7 2442.7 1374.7 2344.7 1472.4 2344.7 1470.2 2423 1553.3 2374.9 1560.8 2381.1 1561.4 2419.8 Z" data-holc_grade="B"/>
<path d="M 2567.7 2536 2572.1 2430.3 2583.6 2415.7 2563.6 2404.9 2569.8 2398.1 2579 2392.1 2623.1 2413.8 2703.7 2460.9 2686.3 2473.6 2670.4 2463.9 2635.6 2483.9 2634.5 2537.5 2567.7 2536 Z" data-holc_grade="B"/>
<path d="M 2937.3 2768.5 2766.4 2769.3 2766.7 2739.8 2811.9 2738.7 2816 2751.5 2845.9 2749.8 2847 2736.8 2877.8 2736.6 2877.8 2745.2 2928.5 2743.3 2934.7 2749.8 2936.6 2760.1 2937.3 2768.5 Z" data-holc_grade="B"/>
<path d="M 2919.1 3362.6 2859.1 3329 2862.4 3226 2862.2 3193 2862.1 3169.4 2892.4 3169.7 2920.5 3167.8 2922.8 3222.3 2920.5 3318.2 2919.1 3362.6 Z" data-holc_grade="B"/>
<path d="M 2292 1074.2 2282.6 1067.4 2261.9 1047 2241.2 1029.3 2229.9 1022.4 2230.5 997.3 2221.1 996.9 2222.2 958.4 2222.8 937.7 2223.5 907.3 2272 907.6 2273.8 885.2 2288.4 889.1 2304.9 889.1 2317.7 911.2 2406.1 913.4 2404.8 933.9 2426.1 955.3 2451.4 955.6 2450.5 999.7 2343.1 998.4 2341.3 1071.6 2303.1 1070 2292 1074.2 Z" data-holc_grade="B"/>
<path d="M 467.4 3041.3 466.2 3072.6 450.8 3074.3 450.2 3052.2 426.5 3053.5 376.8 3056.1 343.6 3057.4 345.4 3023.6 417.1 3021.8 420 3019.2 420.6 2987.2 364.4 2989.3 345.4 2989.3 346 2962.9 401.1 2962 440.2 2958.1 467.4 2958.1 467.4 3041.3 Z" data-holc_grade="B"/>
<path d="M 2500.5 1072 2501.1 1106.7 2592.3 1106.3 2591.1 1185.4 2366.7 1185.4 2340.8 1145.9 2370.1 1131.6 2377.3 1123.2 2378.6 1039.5 2480.7 1041.5 2480.7 1072 2500.5 1072 Z" data-holc_grade="B"/>
<path d="M 2591.1 1275.3 2584 1275.3 2534.3 1275.3 2532.5 1331.1 2484.5 1331.1 2484.5 1361.4 2545.5 1362.3 2545.5 1435.8 2473.9 1435.4 2466.8 1421.1 2466.8 1275.2 2466.8 1251.6 2420.6 1250.7 2414.1 1239 2387.4 1209.6 2366.7 1185.4 2591.1 1185.4 2591.1 1275.3 Z" data-holc_grade="B"/>
<path d="M 2545.5 1362.3 2584.6 1361 2584 1275.3 2591.1 1275.3 2628.4 1275.3 2629.6 1359.7 2665.7 1360.1 2667.5 1370.5 2665.1 1381.7 2659.8 1399.5 2662.8 1410.7 2659.2 1424.1 2652.1 1425.8 2645 1430.6 2645.6 1435.4 2545.5 1435.8 2545.5 1362.3 Z" data-holc_grade="B"/>
<path d="M 2346.6 1413.4 2347.2 1389 2347.2 1364.4 2346.6 1346.2 2346.6 1335.2 2346.6 1315.7 2346.6 1297.5 2347.2 1285.4 2346.6 1275.5 2361.7 1275.5 2379.5 1275.3 2395.8 1275.1 2399 1275.1 2399.9 1278.9 2399.3 1285 2395.8 1295.8 2393.7 1302.9 2392.8 1307.7 2392.5 1310.1 2391.6 1313.3 2391.3 1317.4 2391 1322.6 2391.9 1327.8 2394 1332.8 2396.1 1338.4 2397.8 1342.5 2399.9 1347.5 2400.8 1352.9 2402 1359.8 2402.9 1367.6 2403.2 1373.4 2401.7 1379.5 2400.2 1386.8 2398.7 1392.5 2397.8 1397 2395.8 1401.3 2392.2 1404.6 2389.9 1409.6 2388.1 1413 2362.6 1412.8 2346.6 1413.4 Z" data-holc_grade="B"/>
<path d="M 1983.2 1126.1 1983.2 1152.7 1975.2 1152.4 1974.8 1166.7 2006.3 1167.6 2004.5 1191.3 1896.6 1190 1891.8 1189.4 1889.5 1187.1 1890.4 1170.6 1895.3 1170.2 1914.4 1169.9 1915.3 1158.6 1911.7 1157.3 1884.6 1157.6 1883.3 1156 1883.4 1152.1 1893.5 1153.1 1910.8 1153.4 1911.3 1139.8 1911.7 1126.1 1906 1125.5 1890.9 1124.2 1884.2 1123.5 1881.5 1121.9 1853.1 1120.6 1851.8 1121.9 1851.8 1159.9 1850.5 1160.5 1818 1145.3 1817.6 1120 1812.3 1117.4 1803.8 1104.1 1794.9 1106.4 1785.3 1088.2 1839.4 1088.5 1867.8 1089.5 1902.9 1090.1 1904.6 1091.8 1904.2 1109.3 1906.4 1111.2 1944.2 1111.2 1962.4 1111.5 1961 1124.2 1983.2 1126.1 Z" data-holc_grade="B"/>
<path d="M 1604.9 1178.7 1597 1181.5 1586.3 1186.3 1575.6 1191.2 1574.8 1197.7 1574.8 1208.2 1574.8 1223.6 1574.8 1244.7 1574.8 1261.8 1575.6 1273.4 1575.2 1283.4 1558.6 1283.9 1526.7 1283.4 1496 1283.1 1486.4 1283.1 1480.8 1285.3 1480.1 1294.7 1479.7 1312.3 1479.4 1325.5 1479.4 1338 1479 1352.8 1476.4 1357.4 1468.3 1357.3 1459.4 1357.3 1449.1 1357.1 1439.8 1357 1433.9 1357 1426.1 1356.9 1416.8 1356.9 1410.2 1356.9 1401.6 1356.9 1392.8 1356.9 1384.6 1356.8 1378.7 1356.8 1368 1356.7 1359.8 1356.6 1354.8 1356.3 1351.3 1356.1 1354.3 1350.1 1353.9 1333.9 1356.1 1333.4 1397.6 1333.4 1429.4 1334.2 1432 1332.6 1432.7 1321.8 1433.1 1292.8 1433.5 1269.9 1429 1267.4 1393.5 1267.7 1370.6 1267.4 1354.3 1267.2 1352.1 1265.8 1352.8 1247.2 1354.3 1224.2 1354.6 1206.6 1354.3 1186.1 1354.3 1174.5 1386.1 1174.7 1422 1175.3 1456 1175.3 1476 1175 1477.5 1173.6 1479 1154.5 1481.2 1152 1499.7 1152 1499.3 1133.7 1499.7 1129.9 1510.8 1129.9 1531 1130.1 1537.8 1130.5 1543 1130.8 1547.8 1131.1 1552.3 1131.1 1559.3 1131.1 1569.1 1131.1 1572.5 1131.3 1576.2 1131.4 1580.6 1131.6 1584.7 1131.8 1589 1132 1593 1132 1597.8 1132 1605.3 1132 1607.9 1130.1 1611.8 1128.5 1618.5 1136.1 1629.2 1147.2 1637.7 1155.8 1643.7 1161.5 1644 1170.7 1622.9 1170.4 1609.2 1177.2 1604.9 1178.7 Z" data-holc_grade="B"/>
<path d="M 1351.3 1356.1 1354.8 1356.3 1359.8 1356.6 1368 1356.7 1378.7 1356.8 1384.6 1356.8 1392.8 1356.9 1401.6 1356.9 1410.2 1356.9 1416.8 1356.9 1426.1 1356.9 1433.9 1357 1439.8 1357 1449.1 1357.1 1459.4 1357.3 1468.3 1357.3 1476.4 1357.4 1479 1358.5 1479 1362.6 1479.1 1364.7 1479.1 1367.4 1479.1 1371.5 1479.2 1375.3 1479.2 1380.9 1479.3 1381.7 1479.3 1388.5 1479.2 1392.9 1479.2 1395.3 1479.1 1396.7 1479 1399.6 1483.2 1399.8 1486.6 1399.9 1491.8 1400.2 1498 1400.4 1506.5 1400.8 1510.4 1401 1513.9 1401.2 1518.6 1401.5 1518.6 1407.4 1518.6 1413.9 1518.6 1416.4 1518.5 1426.9 1518.4 1434.8 1518.3 1440.7 1518.2 1452.6 1518.2 1461.5 1518.2 1470.7 1518.2 1499.1 1518.6 1537.2 1517.8 1538.8 1484.5 1538.8 1456.4 1538.6 1428.3 1538.6 1400.5 1538.8 1385.7 1539.4 1384.6 1553.7 1384.3 1574.5 1383.5 1607.8 1383.1 1633.5 1374.3 1633.7 1355.8 1634.3 1335.8 1635.9 1316.9 1637 1300.6 1637.3 1289.5 1637.8 1284 1651.9 1275.8 1676.2 1272.5 1677.6 1252.5 1675.1 1224.4 1671.9 1224.8 1669.4 1224.4 1648.9 1224.8 1633.5 1225.1 1610.8 1225.4 1586.5 1225.5 1582.1 1225.5 1526.9 1226.2 1480.4 1225.9 1447.7 1223.6 1446.4 1160.7 1445.8 1156.3 1445.6 1157.4 1435.3 1164.4 1429.1 1170.4 1422.3 1174.4 1418.5 1158.1 1409.6 1144.1 1402.9 1123.4 1402.9 1085.2 1403.1 1036.4 1402.9 993.5 1402.6 981.3 1402.3 981.6 1392.6 981.3 1371 980.9 1357.4 1027.1 1357.2 1067.9 1357.4 1081.9 1357.4 1139.3 1356.9 1178.5 1356.9 1225.5 1356.9 1225.9 1333.1 1226.6 1306.9 1227 1282 1226.6 1265.8 1245.1 1266.1 1247.7 1266.9 1247.3 1309.1 1246.6 1322.6 1247 1330.7 1249.9 1335.5 1254.7 1339.9 1259.2 1343.4 1258.1 1349.9 1256.6 1356.1 1292.1 1356.4 1323.6 1356.4 1351.3 1356.1 Z" data-holc_grade="B"/>
<path d="M 2374.8 3.6 2374.4 16.5 2373.5 29.2 2372.6 44.4 2372.2 54.8 2371.7 67.4 2371.7 78.4 2371.3 92 2371.5 97.5 2371.7 102.4 2371.7 121.5 2371.7 136.7 2370.8 152.2 2370.8 166.8 2370.8 181.1 2370.8 185.3 2370.8 188.8 2370.8 209.9 2370 219.3 2359.3 218.6 2346.9 219.3 2333.1 219.3 2327.3 219.3 2327.8 229.6 2327.3 242.9 2327.3 256.5 2327.3 267.9 2326.9 276.6 2306.5 276.3 2278.5 275.6 2237.6 275 2203.4 273 2175 272.7 2159 271.1 2159.5 262.7 2160.4 251.3 2160.4 237.1 2160.8 225.4 2160.4 213.1 2160.8 201.1 2161.7 189.8 2161.7 178.5 2177.2 178.5 2200.8 179.4 2227.9 180.4 2245.6 180.4 2262.9 180.7 2283.8 181.7 2305.1 182 2305.6 170.4 2305.6 155.8 2305.6 133.8 2305.6 116.3 2305.6 89.4 2306.5 67.4 2305.6 50.2 2306.5 29.2 2307.3 13.6 2307.3 1 2327.8 1.6 2350 2 2374.8 3.6 Z" data-holc_grade="B"/>
<path d="M 2158.4 361.8 2185.8 362.3 2220.6 364 2220.6 373.1 2219.9 385.6 2219.9 396.4 2219.9 405.5 2219.9 413.6 2219.1 421.7 2219.1 430.4 2218.4 436.3 2202.1 436.8 2181.4 435.2 2160.7 435.2 2141.4 435.8 2134 436.3 2135.5 431.4 2138.4 417.9 2138.4 410.9 2145.8 401.2 2151 396.4 2153.2 388.8 2156.2 376.9 2158.4 361.8 Z" data-holc_grade="B"/>
<path d="M 861.4 989.9 675.4 989.1 674.3 938.1 799.8 938.9 861.4 989.9 Z" data-holc_grade="B"/>
<path d="M 597.3 1181.1 725.2 1181.1 727 1360.8 467.5 1362.7 471.7 1180.6 597.3 1181.1 Z" data-holc_grade="B"/>
<path d="M 981.2 1404.2 980.4 1448.6 893.1 1448.1 883.1 1448 884.2 1404 981.2 1404.2 Z" data-holc_grade="B"/>
<path d="M 418.3 2399.3 410.3 2401.2 396.5 2399.9 399.6 2359 464.5 2356.7 466.2 2372 460.9 2378.2 418.3 2399.3 Z M 524.4 2172 527.1 2263.9 516 2263.9 514.6 2314.8 451.1 2315.8 452.9 2262.6 478.2 2261.9 477.8 2249.9 428.9 2250.9 428.9 2217.4 477.3 2214.8 476.9 2173.2 524.4 2172 Z" data-holc_grade="B"/>
<path d="M 1280.1 2620.5 1279.7 2671.2 1217.1 2670.6 1217.1 2621.2 1280.1 2620.5 Z M 1377.4 2620.2 1298.8 2620.9 1298.4 2554.6 1374.7 2554.3 1377.4 2620.2 Z" data-holc_grade="B"/>
<path d="M 1591.4 2507.2 1591.1 2462.3 1591 2438.5 1654.1 2438.3 1780.6 2441.5 1779.3 2487.3 1701.6 2486 1701.1 2469.5 1643 2468.8 1642.5 2507.2 1591.4 2507.2 Z" data-holc_grade="B"/>
<path d="M 1959.6 2530.2 1959.4 2546.8 1958.4 2623.9 1822.8 2622.6 1825.2 2529.5 1959.6 2530.2 Z" data-holc_grade="B"/>
</g>
<g id="C">
<path d="M 1670.4 768 1672.4 771.1 1675.3 775.5 1676.6 781.6 1679.7 795.6 1678.4 812.8 1627.2 812.3 1589 812.8 1557.3 812.5 1523.6 812.1 1504.6 811.5 1486.8 811 1486.6 801.4 1487.4 765.4 1487.9 735.3 1477.2 722.7 1477.2 713.6 1546.5 714.6 1546.5 693.5 1546.5 677.9 1546.5 667.2 1547.4 649.1 1573.1 648.4 1598.5 648.8 1616.2 648.4 1615.8 660.1 1614.9 673.1 1614 701.6 1613.6 716.8 1613.1 735 1612.7 752.5 1612.2 768.4 1632.6 768.4 1670.4 768 Z" data-holc_grade="C"/>
<path d="M 1604.8 1310.9 1599.6 1310.9 1599.6 1322 1599.3 1339.3 1598.5 1352.3 1598.1 1359.3 1601.5 1360.7 1601.8 1365 1601.8 1371.9 1601.8 1379.1 1601.8 1384.2 1601.8 1387.2 1601.8 1396.3 1601.8 1401 1604.8 1401.8 1611.8 1401.9 1621.1 1402 1630.5 1402.5 1637 1402.9 1641.8 1405.6 1641.6 1409.5 1641.3 1415.1 1641.1 1419.1 1641.1 1426.1 1641.1 1432.3 1641.1 1436.2 1641.1 1442.9 1641 1447.5 1640.9 1451.4 1640.8 1455.3 1640.7 1462.3 1640.6 1464.8 1640.5 1467 1640.4 1470.6 1640.3 1473.4 1635.3 1473.5 1630.4 1473.6 1624.4 1473.7 1615.6 1473.3 1609.8 1473.1 1603 1472.9 1598.4 1472.6 1590.8 1472.3 1581 1471.8 1575.6 1471.5 1567.7 1471.4 1559.2 1471.2 1552.1 1471.1 1546.3 1471 1541.9 1470.9 1537.4 1470.9 1528.2 1470.7 1518.2 1470.7 1518.2 1461.5 1518.2 1452.6 1518.3 1440.7 1518.4 1434.8 1518.5 1426.9 1518.6 1416.4 1518.6 1413.9 1518.6 1407.4 1518.6 1401.5 1513.9 1401.2 1510.4 1401 1506.5 1400.8 1507.5 1397.7 1508.2 1391.2 1508.2 1385.3 1508.6 1374.5 1509 1363.1 1506.4 1361.2 1497.9 1361.2 1484.5 1360.1 1479 1358.5 1476.4 1357.4 1479 1352.8 1479.4 1338 1479.4 1325.5 1479.7 1312.3 1480.1 1294.7 1480.8 1285.3 1486.4 1283.1 1496 1283.1 1526.7 1283.4 1558.6 1283.9 1575.2 1283.4 1575.6 1273.4 1574.8 1261.8 1574.8 1244.7 1574.8 1223.6 1574.8 1208.2 1574.8 1197.7 1575.6 1191.2 1586.3 1186.3 1597 1181.5 1604.9 1178.7 1605.2 1185 1605.2 1199.6 1605.2 1217.4 1605.2 1234.5 1605.2 1250.1 1604.8 1266.6 1605.2 1283.1 1605.2 1295 1604.8 1310.9 Z" data-holc_grade="C"/>
<path d="M 1714.7 1817.8 1711.9 1817.9 1710.3 1817.9 1707.7 1818 1706.3 1818.1 1703.8 1818.2 1702.4 1818.3 1701.1 1818.3 1698.7 1818.4 1696.3 1818.4 1694.1 1818.4 1692.6 1818.4 1690.8 1818.4 1688.4 1818.4 1686.6 1818.4 1684.4 1818.4 1682.5 1818.4 1680.7 1818.4 1678.4 1818.4 1677 1818.4 1675.7 1818.4 1674.1 1818.4 1671.8 1818.4 1669.4 1818.4 1667.3 1818.4 1665.9 1818.4 1663.9 1818.4 1662.1 1818.4 1660.3 1818.4 1658.2 1818.4 1656.2 1818.4 1653.9 1818.4 1651.7 1818.4 1650 1818.5 1648.2 1818.5 1646.3 1818.6 1643.9 1818.7 1641.6 1818.7 1639.8 1818.8 1638.4 1818.9 1636.9 1818.9 1634.1 1819 1632.6 1819.1 1631.5 1819 1628 1819 1625.6 1818.9 1623.1 1818.9 1621.5 1818.8 1619.3 1818.8 1616.6 1818.7 1613.4 1818.7 1611.2 1818.7 1608.2 1818.7 1606.4 1818.7 1603.6 1818.6 1602.2 1818.5 1601.2 1818.5 1599.3 1818.4 1596.7 1818.2 1593.9 1818.1 1593.9 1815.1 1593.9 1811.8 1593.9 1809 1593.9 1807.1 1593.9 1803.8 1593.8 1800.6 1593.7 1798.4 1593.6 1797.4 1593 1785 1592.6 1767.8 1593 1750.2 1593.5 1740.8 1593.8 1734.4 1594.3 1722.1 1594.4 1719.4 1594.4 1714.5 1594.4 1708.7 1594.4 1702.2 1598.6 1700.5 1601.4 1699.4 1605 1698 1611.2 1693.8 1616.6 1691.3 1642.2 1692.4 1668.1 1692.4 1710.6 1692.2 1721 1692.2 1719.2 1706.8 1718.7 1718.4 1718.3 1729.2 1718.3 1737.9 1717.8 1744.7 1716.9 1750.6 1716.9 1759.7 1716.9 1768.4 1716.5 1776.9 1716 1790.2 1715.6 1799.6 1715.6 1812.2 1714.7 1817.8 Z" data-holc_grade="C"/>
<path d="M 997.8 1447.5 996.7 1494 1009.6 1494 1010 1540.5 893.4 1541.5 893.1 1448.1 980.4 1448.6 997.8 1447.5 Z M 916.7 1493.7 916.9 1515.6 973.6 1515.3 973.4 1493.4 916.7 1493.7 Z" data-holc_grade="C"/>
<path d="M 1598.4 1472.6 1598.8 1484.5 1598.8 1499.4 1598.4 1514.3 1597.9 1535.1 1598.4 1554.6 1598.4 1580.5 1598.4 1597.1 1597.5 1616.5 1596.6 1633.1 1596.1 1648.7 1595.7 1671.4 1595.7 1686 1594.4 1702.2 1594.4 1708.7 1594.4 1714.5 1594.4 1719.4 1594.3 1722.1 1593.8 1734.4 1593.5 1740.8 1580.2 1741.2 1566.4 1741.2 1555.3 1741.2 1552.2 1739.5 1552.2 1737.3 1552.2 1731.4 1552.6 1724.3 1553.1 1718.1 1553.5 1710 1551.3 1708.1 1546.9 1708.1 1538.4 1708.4 1527.8 1708.4 1521.5 1708.4 1519.3 1707.4 1519.3 1701.2 1520.2 1693.1 1520.7 1684 1521.1 1670.4 1521.5 1656.8 1521.5 1641.9 1522 1625 1522 1609.7 1522.9 1601 1513.1 1596.1 1502.9 1590.3 1491.3 1584.1 1482.9 1579.6 1475.8 1577.9 1466.9 1581.5 1460.7 1582.2 1452.3 1582.8 1438.5 1582.5 1418.5 1582.5 1414.5 1585.1 1414.5 1591.9 1414.1 1604.2 1414.1 1614.6 1414.1 1625.3 1413.6 1632.8 1407 1632.8 1401.1 1632.6 1394.5 1632.4 1391.4 1632.7 1387.4 1633.1 1383.1 1633.5 1383.5 1607.8 1384.3 1574.5 1384.6 1553.7 1385.7 1539.4 1400.5 1538.8 1428.3 1538.6 1456.4 1538.6 1484.5 1538.8 1517.8 1538.8 1518.6 1537.2 1518.2 1499.1 1518.2 1470.7 1528.2 1470.7 1537.4 1470.9 1541.9 1470.9 1546.3 1471 1552.1 1471.1 1559.2 1471.2 1567.7 1471.4 1575.6 1471.5 1581 1471.8 1590.8 1472.3 1598.4 1472.6 Z" data-holc_grade="C"/>
<path d="M 1664.2 1516.9 1664.5 1522.1 1664.8 1525.9 1665.2 1531.2 1665.9 1540.2 1666.2 1544.9 1666.6 1551.5 1667.1 1555.4 1667.6 1559.6 1668.1 1563.7 1668.1 1571.1 1668.1 1575.6 1668.3 1581.6 1668.5 1584.8 1669.1 1590.1 1669.8 1598.2 1670.3 1605.1 1670.7 1610.5 1671 1614.5 1671.4 1618.9 1671.8 1623.5 1670.9 1629.2 1669.4 1636.9 1668.1 1641.9 1665.8 1646.3 1661.2 1655 1656.7 1661.6 1653.3 1665.9 1645.1 1673.5 1638.5 1678.6 1630.3 1683.5 1616.6 1691.3 1611.2 1693.8 1605 1698 1601.4 1699.4 1598.6 1700.5 1594.4 1702.2 1595.7 1686 1595.7 1671.4 1596.1 1648.7 1596.6 1633.1 1597.5 1616.5 1598.4 1597.1 1598.4 1580.5 1598.4 1554.6 1597.9 1535.1 1598.4 1514.3 1598.8 1499.4 1598.8 1484.5 1598.4 1472.6 1603 1472.9 1609.8 1473.1 1615.6 1473.3 1624.4 1473.7 1630.4 1473.6 1635.3 1473.5 1640.3 1473.4 1640.1 1480 1640.1 1484.5 1640.1 1489.7 1640.1 1492.6 1640.1 1493.9 1640.1 1496.8 1640 1501.2 1639.7 1506.6 1639.7 1512.4 1639.7 1515 1642.8 1516.3 1645.4 1516.3 1654.3 1516.3 1658.8 1516.6 1664.2 1516.9 Z" data-holc_grade="C"/>
<path d="M 1841.6 1692.8 1841.7 1697.3 1841.7 1702.5 1841.7 1707.1 1840.8 1715.8 1840.4 1725.6 1840.4 1734 1839.5 1744.1 1838.6 1756.7 1838.2 1772.6 1837.7 1795.4 1837.7 1808 1837.7 1819.7 1837.7 1828.5 1820.4 1828.5 1800.4 1828.1 1782.2 1827.8 1767.1 1828.1 1750.2 1828.1 1735.6 1827.8 1715.2 1827.8 1714.7 1817.8 1715.6 1812.2 1715.6 1799.6 1716 1790.2 1716.5 1776.9 1716.9 1768.4 1716.9 1759.7 1716.9 1750.6 1717.8 1744.7 1718.3 1737.9 1718.3 1729.2 1718.7 1718.4 1719.2 1706.8 1721 1692.2 1728 1692.3 1735.6 1692.3 1740.5 1692.4 1746.2 1692.4 1752.1 1692.4 1757.8 1692.4 1762.2 1692.4 1768 1692.4 1774.2 1692.3 1780 1692.3 1784 1692.3 1788.4 1692.3 1792.9 1692.2 1798.2 1692.2 1801.3 1692.2 1804.4 1692.2 1809.1 1692.2 1814.5 1692.3 1819.9 1692.4 1825.2 1692.5 1829.2 1692.5 1832.8 1692.6 1836.8 1692.7 1840.3 1692.8 1841.6 1692.8 Z" data-holc_grade="C"/>
<path d="M 1413.6 1632.8 1413.6 1647.1 1414.1 1656.1 1414.1 1666.5 1413.2 1670.4 1413.2 1676.3 1413.2 1680.8 1413.2 1685.3 1417.6 1687 1431 1687 1450 1686.3 1462.9 1686.6 1478.9 1686.6 1487.4 1686.6 1494.9 1687 1501.1 1687.3 1499.8 1691.5 1499.3 1696.1 1499.3 1700.9 1498.5 1712 1497.1 1716.8 1498.5 1722.3 1495.3 1723.6 1488.7 1723.6 1484.7 1725.9 1480.7 1727.5 1476.7 1730.8 1473.1 1733.7 1470.5 1736 1466.9 1739.5 1464.3 1742.1 1458.9 1744.7 1452.7 1746.4 1445.6 1747.3 1438.1 1747.3 1433.2 1747.7 1433.2 1750.9 1433.2 1754.5 1433.2 1758 1432.7 1761.9 1432.7 1763.9 1431 1766.2 1426.5 1766.8 1419 1764.9 1411 1760.3 1404.3 1757.4 1397.6 1754.5 1387 1750.6 1379.4 1748 1369.7 1745.7 1362.6 1743.8 1357.2 1742.8 1351.5 1742.5 1350.1 1740.5 1349.7 1725.9 1349.7 1721.7 1351.9 1720.7 1366.6 1720.7 1395.4 1720.1 1401.6 1719.7 1401.6 1715.2 1401.2 1706.1 1401.2 1700.6 1401.6 1691.5 1396.3 1690.2 1384.8 1690.2 1368.3 1689.6 1357.2 1689.6 1350.1 1689.6 1344.8 1689.6 1333.7 1687.9 1320.8 1686.3 1307.1 1684.4 1306.2 1685.3 1306.6 1688.3 1307.5 1691.5 1307.9 1694.8 1308.4 1698 1308.4 1701.9 1307.1 1705.8 1304.4 1708.4 1301.3 1712.9 1298.6 1716.5 1302.2 1719.1 1305.3 1721.4 1307.1 1725.6 1307.5 1730.1 1308.4 1737.6 1307.1 1745.4 1304.4 1748.3 1296 1748.9 1288.9 1751.5 1284 1753.2 1280.4 1753.5 1276 1754.1 1270.2 1754.1 1265.8 1751.9 1261.8 1748.3 1262.7 1740.8 1263.1 1732.4 1263.5 1726.6 1263.5 1721 1264.9 1715.2 1265.8 1710.7 1264.9 1707.7 1261.8 1707.4 1252.9 1707.4 1245.3 1706.8 1237.3 1707.1 1226.2 1707.1 1213.8 1707.4 1211.6 1706.1 1212.5 1700.9 1212.5 1694.8 1212.5 1688.9 1211.1 1685.3 1210.3 1682.1 1209.8 1679.2 1209.8 1675.9 1212.9 1674 1216.9 1672.7 1224.4 1671.9 1252.5 1675.1 1272.5 1677.6 1275.8 1676.2 1284 1651.9 1289.5 1637.8 1300.6 1637.3 1316.9 1637 1335.8 1635.9 1355.8 1634.3 1374.3 1633.7 1383.1 1633.5 1387.4 1633.1 1391.4 1632.7 1394.5 1632.4 1401.1 1632.6 1407 1632.8 1413.6 1632.8 Z" data-holc_grade="C"/>
<path d="M 1100.2 1653.6 1112.8 1654.6 1169.1 1661.5 1178.9 1664.3 1180 1697.9 1190.7 1707.4 1163.8 1709.1 1162.6 1699.4 1122.3 1699 1122 1689.9 1111.7 1690.3 1112.8 1706.7 1101.3 1724.7 1045.6 1702.4 1026.1 1695.9 987 1687.7 969.3 1681.2 947.6 1673.9 934.6 1670 927.2 1669.5 927.2 1646.6 969.6 1642.9 1017.8 1646.8 1100.2 1653.6 Z" data-holc_grade="C"/>
<path d="M 1101.3 1743.1 1134.5 1758 1135 1790.2 1108.2 1790.2 1102.7 1790 1100.7 1789.3 1100.2 1787.6 1099.5 1784.2 1096.8 1784.2 1081.4 1784.3 1068.6 1784.1 1059 1783.8 1038.5 1783.2 1039.4 1735.9 1045.9 1734.7 1054.8 1730.8 1062.2 1726 1068.7 1726.4 1097.4 1743.3 1101.3 1743.1 Z M 919.8 1811.7 916.2 1811.8 892.3 1812.6 877.6 1813.2 850.5 1814.3 848.2 1758.7 848.5 1682.3 857.1 1683.4 874.5 1682.5 887.6 1682.1 894.4 1682.5 912.1 1681 939.7 1682.3 958 1686 977.8 1697.4 987.9 1699.8 996.5 1712.6 997.7 1721.7 997.4 1727.3 1006.9 1734.7 1019 1742.4 1010.4 1745.9 998.9 1745 977.8 1739.8 955.9 1731.6 955.6 1746.5 953.9 1754.6 950.3 1762.6 947.1 1773.8 941.4 1778.8 935.2 1779.4 928.4 1779 922.8 1782.9 919.8 1811.7 Z" data-holc_grade="C"/>
<path d="M 1265.9 1837.7 1264 1837.7 1260.9 1837.7 1258.1 1837.7 1252.4 1837.9 1247.4 1838.2 1243.3 1838.3 1238.2 1838.6 1235.1 1838.8 1231.6 1839 1226.6 1838.9 1223.7 1838.8 1220.6 1838.7 1220.8 1829.1 1220.8 1824.7 1219.2 1822.1 1219.2 1819.8 1219.2 1810.5 1219.4 1804.2 1219.5 1798.1 1219.9 1793.7 1221.3 1788.7 1223.5 1783.2 1223.8 1778.4 1224.3 1775 1231.1 1775 1235.9 1773.7 1238.4 1772.8 1243.2 1770.8 1249 1769.7 1257.4 1768.6 1263.2 1768.6 1274.6 1769.4 1280.1 1770.3 1283 1772 1283.8 1775.1 1282.4 1782.1 1280.8 1788.1 1279.1 1794.1 1275.9 1800.7 1276.7 1802 1286.3 1802.4 1302.9 1802.6 1312.4 1802.5 1338.7 1802.6 1353.3 1802.5 1368 1803.1 1387.8 1803 1409.3 1803.5 1421.5 1803.4 1433.8 1803.4 1447.3 1803.4 1460.8 1803.1 1469.3 1803.1 1473.5 1804.5 1473.5 1806.5 1473.5 1807.3 1473.5 1808.1 1473.5 1809.3 1473.5 1811.2 1473.6 1812.8 1473.7 1813.8 1473.8 1815.4 1473.9 1817.3 1474.1 1819.4 1474.4 1822 1474.7 1824 1474.4 1826 1474.1 1828.7 1474.1 1832.7 1465.6 1834 1454 1834.6 1440.3 1835.3 1426.8 1835.9 1414.4 1835.9 1406.5 1835.8 1407.5 1834.6 1409.1 1831.8 1413.2 1830.1 1415.5 1828.7 1417.2 1827.6 1418.8 1826.2 1422.2 1824.9 1425.5 1824 1428.1 1822.6 1431.6 1819.8 1436.4 1816.2 1441.6 1812.7 1438.7 1811 1430.7 1811.5 1421.2 1811.5 1411 1811.5 1402.5 1811.4 1393.7 1811.4 1381.4 1811 1372 1811.4 1358.9 1811.4 1348.3 1811.4 1349 1837 1328.3 1837.3 1312.6 1838.1 1294.5 1837.9 1269.6 1837.7 1265.9 1837.7 Z" data-holc_grade="C"/>
<path d="M 1607.9 1130.1 1605.3 1132 1597.8 1132 1593 1132 1589 1132 1584.7 1131.8 1580.6 1131.6 1576.2 1131.4 1572.5 1131.3 1569.1 1131.1 1559.3 1131.1 1552.3 1131.1 1547.8 1131.1 1543 1130.8 1537.8 1130.5 1531 1130.1 1532.1 1097.2 1531.3 1086 1528 1082.7 1515 1081.6 1481.9 1079.9 1483.1 1053.1 1483.1 1017.6 1484.2 982.2 1484.2 955.4 1486.6 919.9 1486.6 898.3 1486.6 868 1486.6 855.1 1486.6 846.5 1486.3 831.3 1486.8 811 1504.6 811.5 1523.6 812.1 1557.3 812.5 1589 812.8 1627.2 812.3 1678.4 812.8 1680.8 835.9 1658 835.5 1617.1 835.5 1616.8 856.6 1647.3 856.8 1647.3 871.5 1647.6 886.2 1648.5 903.7 1633.7 903.5 1605.6 903.5 1560.6 903.1 1558.2 903.7 1565 910 1574.2 917.6 1591.1 932.7 1611.5 951.7 1611.5 957.6 1611.5 965.3 1611.1 975 1610.9 981 1610.5 990.7 1610.3 994 1610.3 995 1623.6 994.8 1633.7 994.7 1636.4 1040.8 1621.3 1041 1615.3 1041 1611.2 1041.6 1610.3 1044.7 1610.3 1048.3 1618 1048.1 1623.9 1049 1622.4 1052.7 1621.8 1055.7 1621.8 1060 1622.7 1066.1 1617.7 1071 1614.4 1077.1 1611.8 1082.5 1609.4 1086 1608.5 1095.2 1608.5 1103.7 1608.5 1115.4 1608.2 1123.8 1607.9 1130.1 Z" data-holc_grade="C"/>
<path d="M 1040.6 1848.7 1059.3 1847.4 1087.7 1845.7 1106.6 1844.4 1117.6 1843.8 1153.1 1842.2 1178.3 1841.6 1199.3 1839.9 1220.6 1838.7 1223.7 1838.8 1226.6 1838.9 1231.6 1839 1235.1 1838.8 1238.2 1838.6 1243.3 1838.3 1247.4 1838.2 1252.4 1837.9 1258.1 1837.7 1260.9 1837.7 1264 1837.7 1265.9 1837.7 1265.2 1843.5 1264.7 1849.6 1264.9 1855.7 1264 1863.4 1263.5 1870.4 1262.5 1882 1261.1 1888 1259.5 1895.5 1258.8 1901.4 1257.6 1905.7 1245.3 1905.5 1227 1906 1205.9 1906.6 1189.4 1906.2 1178.2 1906.4 1160.5 1906.9 1147 1906.2 1138.4 1905.5 1138 1897.5 1127.1 1896.9 1112.4 1896.9 1097.5 1896.9 1079 1896.3 1051.3 1896.5 1020 1896.7 994.9 1897 983.8 1897 979.3 1896.7 976.2 1895.1 956.1 1895.6 933.6 1896 924.1 1895.6 921.3 1895.1 922 1882.7 921.7 1870.2 922 1856.2 926.9 1856.5 939.3 1858.6 946.8 1859.5 957 1859.8 965.3 1859.1 975 1858.1 985.2 1855 994.2 1854.4 1002.7 1853.2 1011.7 1851.8 1017.9 1851 1025.9 1849.8 1040.6 1848.7 Z" data-holc_grade="C"/>
<path d="M 728.7 2088.9 727.8 2152.5 663.4 2153.8 665.6 2087.9 728.7 2088.9 Z" data-holc_grade="C"/>
<path d="M 727.8 2152.5 728.7 2088.9 729.1 2085.3 802.4 2084 807.7 2088.3 833.5 2088.3 834.8 2136.3 779.3 2136.3 762.4 2137.9 743.3 2144.8 727.8 2152.5 Z" data-holc_grade="C"/>
<path d="M 978.7 1999.7 979.5 2019.1 1036.3 2019.1 1037.5 2086.2 978.9 2087.5 977.9 2154.5 902.8 2167.2 891.7 2171.1 851.3 2171.1 852.6 2086 953.4 2086.6 953.8 1999.3 978.7 1999.7 Z" data-holc_grade="C"/>
<path d="M 727.8 2152.5 743.3 2144.8 762.4 2137.9 779.3 2136.3 834.8 2136.3 833.5 2088.3 807.7 2088.3 802.4 2084 802.8 2043.1 852.1 2042.2 852.6 2086 851.3 2171.1 891.7 2171.1 902.8 2167.2 977.9 2154.5 977.7 2170.1 975.6 2307.5 848.6 2308.4 848.1 2285 684.7 2285 683.8 2260.4 599.9 2309.1 601.2 2260 642.5 2258.7 640.8 2172.7 729.6 2172 727.8 2152.5 Z" data-holc_grade="C"/>
<path d="M 1112.8 2170.6 1222.8 2207 1311.6 2237.7 1341.5 2248 1310 2259.4 1223.4 2260 1221.2 2305.2 1140.3 2305.8 1138.1 2349.7 1101.7 2350.3 1101.7 2440.9 1065.7 2441.3 1065.3 2399.4 1034.2 2400 1036 2307.1 975.6 2307.5 977.7 2170.1 1112.8 2170.6 Z" data-holc_grade="C"/>
<path d="M 1470.6 2085.2 1449 2085.2 1346 2085.1 1297.1 2085 1298 2170.3 1222.5 2171 1222.8 2064 1221.5 2025.1 1221.3 2019.2 1230.8 1994.4 1257.6 1994.4 1286.8 1994.4 1287.6 2063.2 1470.3 2032.7 1470.6 2085.2 Z" data-holc_grade="C"/>
<path d="M 1678.9 2393.5 1675.8 2367.8 1612.8 2367.5 1611.4 2348.6 1590.1 2348 1588.8 2262.6 1556.8 2261.9 1559.9 2172.9 1547.9 2172.6 1555.9 2153.1 1541.3 2132.4 1543.5 2031.7 1750.4 2017.1 1751.8 2085.9 1747.3 2164.2 1743.8 2265.8 1708.7 2286.9 1707.8 2392.8 1678.9 2393.5 Z" data-holc_grade="C"/>
<path d="M 1654.1 2438.3 1591 2438.5 1561.7 2438.6 1561.4 2419.8 1592.3 2418.8 1616.3 2422.7 1654.4 2421.1 1654.1 2438.3 Z M 1678.9 2393.5 1654.9 2393.1 1654.6 2411.3 1616.8 2410.7 1591.9 2406.1 1590.1 2348 1611.4 2348.6 1612.8 2367.5 1675.8 2367.8 1678.9 2393.5 Z" data-holc_grade="C"/>
<path d="M 2024.1 2346.3 2025.3 2364 2079.8 2361 2078 2440.7 1871.9 2438.1 1870.8 2426.8 1877.3 2425.1 1877.3 2420.7 1872.5 2418.6 1872.5 2414.2 1893.9 2413.8 1895.6 2300.3 1858.3 2331.5 1856 2348.4 1829.9 2348 1832.3 2302.5 1879.6 2301.6 1914 2276.5 2035.4 2278.3 2035.4 2302.9 2020.6 2302.9 2021.2 2322.9 2004.6 2323.3 2005.2 2346.3 2024.1 2346.3 Z" data-holc_grade="C"/>
<path d="M 1773.9 1066.8 1734.7 1065.7 1677.7 1064.6 1677 1057.1 1653.3 1040.9 1636.4 1040.8 1633.7 994.7 1647.4 994.8 1664.4 994.9 1675.5 994.9 1687.3 994.8 1697.6 994.7 1710.9 994.5 1719.3 994.4 1726.3 996.6 1732.1 995.9 1717.5 966.7 1713 959.9 1709 951.5 1704.1 941.5 1694.4 926.2 1709.5 924.1 1717.7 924.7 1729.5 922 1740.6 920.4 1748.8 916 1748.8 911.7 1756.2 908.5 1760.6 911.7 1771.7 911.2 1776.1 911.2 1779.8 908.5 1788 908.5 1799.1 906.3 1799.1 921.4 1799.1 948.5 1798.3 976 1797.6 990.6 1815.4 992.2 1828 991.7 1828 966.3 1828 962.5 1856.8 962.5 1856.8 934.4 1879 933.9 1902 934.4 1905.7 946.8 1911.6 962.5 1916 980.9 1919.7 993.3 1921.2 999.2 1930.8 1017.6 1947.1 1045.7 1944.9 1048.4 1881.2 1044.6 1875.3 1039.8 1837.6 1027.3 1778.4 1009 1778.4 996.5 1740 996 1746.5 1013.8 1758.4 1034.9 1773.9 1066.8 Z" data-holc_grade="C"/>
<path d="M 2078 2440.7 2077 2514.7 2076.8 2530.8 1959.6 2530.2 1825.2 2529.5 1826.4 2438.9 1871.9 2438.1 2078 2440.7 Z" data-holc_grade="C"/>
<path d="M 2399.8 2373.5 2402.1 2379.2 2392.8 2379.4 2388.4 2380.6 2387.9 2403.1 2412.5 2403.8 2412.8 2417.5 2443.7 2417.5 2456.2 2442.3 2474.4 2442.6 2476.6 2370.5 2460.2 2354.6 2505.5 2327.3 2521.9 2340 2517.9 2347.8 2529 2362.7 2516.6 2369.9 2569.8 2398.1 2563.6 2404.9 2583.6 2415.7 2572.1 2430.3 2567.7 2536 2544 2536 2533.3 2533.8 2517.3 2520.4 2513.1 2518.8 2481.5 2487.8 2466.8 2465 2384.1 2465.4 2252.7 2464.9 2262.5 2437.7 2347.4 2437.7 2348.3 2410.8 2318.5 2409.8 2318.5 2377 2262.1 2375.7 2262.1 2352 2353.1 2352.6 2354 2371.8 2397.5 2372.5 2399.8 2373.5 Z" data-holc_grade="C"/>
<path d="M 2384.1 2465.4 2384.1 2508.7 2488.3 2509.5 2513.1 2518.8 2517.3 2520.4 2533.3 2533.8 2544 2536 2567.7 2536 2570 2624.3 2319 2622.6 2310.1 2622.5 2310.7 2579.5 2268.1 2578.4 2268.6 2587.3 2279 2622 2229 2621.3 2229.6 2562.8 2242.6 2562.4 2244.4 2488.3 2252.7 2464.9 2384.1 2465.4 Z" data-holc_grade="C"/>
<path d="M 1959.4 2546.8 1959.6 2530.2 2076.8 2530.8 2077 2514.7 2125.4 2467.1 2141.9 2468 2141.9 2509.1 2191.7 2509.1 2190.5 2489.2 2244.4 2488.3 2242.6 2562.4 2229.6 2562.8 2229 2621.3 2076.8 2621.3 2077.4 2557.2 2048.4 2556.3 2046.6 2546.4 1959.4 2546.8 Z" data-holc_grade="C"/>
<path d="M 2279 2622 2310.1 2622.5 2319 2622.6 2319.6 2686.3 2372.9 2709.7 2372.9 2808 2187.5 2807.2 2186.9 2716.6 2076.2 2715.3 2076.8 2621.3 2229 2621.3 2279 2622 Z" data-holc_grade="C"/>
<path d="M 2844.4 2988.9 2808.9 2989.3 2807.4 2914 2807.1 2834.1 2785.2 2834.6 2767.9 2814 2728.3 2769.6 2693.5 2729 2688.7 2728.2 2688.7 2723.9 2684.6 2716.8 2877 2714.6 2877.8 2736.6 2847 2736.8 2845.9 2749.8 2816 2751.5 2811.9 2738.7 2766.7 2739.8 2766.4 2769.3 2937.3 2768.5 2937.7 2841.9 2940.3 2903.7 2940.3 2940 2930.3 2944 2918.8 2945.9 2878.5 2945.9 2878.5 2988.5 2844.4 2988.9 Z" data-holc_grade="C"/>
<path d="M 2862.2 3193 2862.4 3226 2859.1 3329 2919.1 3362.6 2917.6 3368.3 2913.1 3374.8 2878.7 3356.9 2827.7 3330.6 2817.3 3337.4 2813.6 3336.9 2813.2 3332.8 2818 3330.9 2818 3327.4 2810.6 3325 2808.8 3318.2 2801 3303 2795.1 3269.4 2805.8 3267.8 2808.4 3253.4 2783.3 3253.1 2781.4 3203 2805.1 3203.6 2801 3193 2862.2 3193 Z" data-holc_grade="C"/>
<path d="M 2777.3 3443.4 2774 3417.9 2829.1 3417.9 2832.1 3365.3 2837.7 3366.7 2878.4 3386.5 2876.9 3404.4 2918.3 3406.3 2917.2 3429.3 2966.8 3430.1 2966.4 3453.4 2998.6 3453.7 2999 3467 2989.7 3493.8 2910.6 3494.4 2908.7 3516.6 2824 3514.4 2826.6 3443.7 2777.3 3443.4 Z" data-holc_grade="C"/>
<path d="M 2777.3 3443.4 2789.2 3499.5 2744.4 3499.2 2744.8 3528.2 2795.1 3529.3 2803.2 3571.9 2753.3 3572.2 2748.5 3557.2 2661.9 3558.6 2661.5 3533.9 2537.9 3532.6 2537.2 3501.7 2540.9 3441.5 2777.3 3443.4 Z" data-holc_grade="C"/>
<path d="M 2103.4 933.9 2121.6 945.9 2133.6 955.3 2146.9 964 2162.4 974.4 2190.8 993.5 2202.8 1003.3 2186.4 1003.6 2164.6 1003.3 2144.2 1002.3 2129.1 1002 2110.5 1001.3 2100.7 1001.3 2099.4 988 2100.3 963.1 2100.7 948.2 2103.4 933.9 Z" data-holc_grade="C"/>
<path d="M 1294.8 1080.7 1279.5 1081.6 1264 1081.3 1247.6 1081.3 1232.5 1082.2 1231.6 1088.4 1230.8 1096.3 1223 1095.8 1215.7 1095.4 1208.2 1095 1204.2 1094.8 1200 1094.6 1199.9 1091.9 1199.8 1088.3 1199.7 1083.8 1199.5 1078.7 1199.3 1072.8 1199.2 1068 1199 1063.1 1198.9 1058.2 1205.4 1058.1 1211.6 1057.9 1217.4 1057.8 1220.9 1057.7 1228 1057.5 1234.4 1057.4 1234.5 1052.4 1234.6 1047.2 1234.8 1039.4 1234.9 1034.6 1235 1030.4 1235.1 1025.3 1278.2 1026.2 1296 1027.1 1294.8 1059.1 1294.8 1080.7 Z" data-holc_grade="C"/>
<path d="M 2274.2 1179.8 2317.2 1179.8 2325.3 1187.3 2330.5 1191.1 2338.6 1201.9 2347.5 1205.7 2354.9 1207.9 2360.8 1211.6 2364.5 1214.9 2374.2 1218.7 2380.8 1224.1 2385.3 1229.5 2389 1234.9 2392.7 1240.3 2394.1 1250 2377.9 1249.5 2360.8 1250 2336.4 1250.6 2336.4 1230.6 2319.4 1229.5 2297.2 1229.5 2275.7 1229.5 2275 1213.3 2274.2 1179.8 Z" data-holc_grade="C"/>
<path d="M 2220.9 1273.9 2215.7 1273.9 2211.3 1273.8 2206.5 1273.8 2202.8 1273.7 2195.7 1273.6 2190.2 1273.6 2184.3 1273.5 2178.4 1273.4 2171.3 1273.3 2164.3 1273.2 2158.7 1273.2 2151.7 1273.1 2144.7 1273 2139.1 1272.9 2132.8 1272.9 2126.9 1272.8 2122.7 1272.7 2114.7 1272.7 2109.2 1272.6 2102.5 1272.6 2096.2 1272.5 2091.4 1272.5 2085.9 1272.5 2081 1272.4 2074.7 1272.4 2067.7 1272.3 2060.6 1272.1 2054 1272 2048.8 1271.9 2044.7 1271.8 2036.6 1271.7 2030.3 1271.5 2026.6 1271.5 2022.9 1271.4 2017.3 1271.3 2009.9 1271.1 2003.6 1271 1999.2 1270.9 1993.3 1270.8 1985.5 1270.6 1980 1270.5 1975.7 1270.5 1968.9 1270.4 1965.9 1270.3 1962.6 1270.3 1955.6 1270.2 1947.4 1270.1 1939.7 1270 1933 1269.9 1928.2 1269.8 1923.7 1269.8 1918.2 1269.7 1913.4 1269.6 1909.7 1269.6 1904.1 1269.5 1897.5 1269.4 1892.3 1269.3 1887.8 1269.3 1882.3 1269.2 1878.9 1269.2 1873.7 1269 1868.9 1268.9 1860.4 1268.7 1849.3 1268.5 1840.4 1268.3 1831.2 1268.1 1824.5 1267.9 1816.8 1267.7 1809.8 1267.6 1803.9 1267.4 1798.3 1267.3 1794.1 1267.2 1788 1267.2 1782.4 1267.1 1772.4 1267.1 1763.9 1267 1756.2 1267 1748 1266.9 1740.3 1266.9 1734.9 1266.7 1730.1 1266.5 1724.8 1266.2 1724.3 1259.8 1679.9 1213.3 1663.6 1196 1663.6 1186.2 1665.1 1173.3 1677 1173.8 1702.9 1174.3 1722.1 1173.8 1722.9 1152.7 1722.9 1140.8 1723.6 1131.1 1709.5 1130.6 1691.8 1130 1676.2 1130.6 1677 1108.4 1677.7 1089.5 1677.7 1077.1 1677.7 1064.6 1734.7 1065.7 1773.9 1066.8 1785.3 1088.2 1794.9 1106.4 1803.8 1104.1 1812.3 1117.4 1817.6 1120 1818 1145.3 1850.5 1160.5 1851.8 1159.9 1851.8 1121.9 1853.1 1120.6 1881.5 1121.9 1884.2 1123.5 1883.4 1152.1 1883.3 1156 1884.6 1157.6 1911.7 1157.3 1915.3 1158.6 1914.4 1169.9 1895.3 1170.2 1890.4 1170.6 1889.5 1187.1 1891.8 1189.4 1896.6 1190 2004.5 1191.3 2006.3 1167.6 1974.8 1166.7 1975.2 1152.4 1983.2 1152.7 1983.2 1126.1 2001.4 1126.1 2009.4 1134.2 2099.1 1135.5 2097.4 1180.3 2142.2 1181.3 2147.1 1182.2 2145.8 1230.6 2186.2 1231.5 2227.5 1274 2220.9 1273.9 Z" data-holc_grade="C"/>
<path d="M 2220.9 1273.9 2222.1 1277.4 2222.8 1287.7 2222.4 1299.9 2222.1 1317.4 2222.4 1336.4 2221.7 1352.8 2221.3 1374.5 2221.3 1396.4 2221 1417.4 2221 1433.9 2221 1446.4 2221 1456.6 2213.2 1456.4 2204.7 1456.9 2204.3 1471.8 2204.7 1480.4 2204.3 1488 2204.3 1503.7 2204.3 1520.5 2203.9 1533.2 2203.6 1544.5 2200.6 1547.5 2180.2 1546.7 2157.7 1546.4 2137.3 1546.1 2134 1545.5 2128.8 1544.5 2128.8 1525 2129.2 1503.4 2129.6 1478.8 2129.9 1456.4 2113.6 1456.4 2068.9 1456.1 1986.3 1455 1932.7 1454.8 1884.2 1454.8 1822.4 1455.3 1784.3 1454.8 1753.2 1454.8 1727.3 1454.2 1726.9 1441.8 1726.9 1432 1723.6 1429.6 1698.1 1428.8 1691.4 1428.8 1690.3 1425.8 1690.7 1408 1688.8 1406.9 1674.7 1406.4 1675.9 1398.5 1655.5 1398.3 1655.2 1393.3 1654.8 1387.2 1654.4 1381.5 1654.2 1376.2 1654 1371.3 1653.8 1366.1 1653.7 1361.5 1653.7 1355 1653.1 1349.2 1652.9 1346.9 1652.3 1340.9 1651.8 1336.1 1650.8 1327.7 1650.3 1324.2 1650.6 1317.4 1650.7 1313.6 1645.1 1312 1651.4 1309.9 1670.7 1310.7 1671.8 1309.3 1671.8 1290.7 1672.2 1284.7 1689.6 1285 1708.1 1285.3 1725.1 1285 1724.7 1273.4 1724.8 1266.2 1730.1 1266.5 1734.9 1266.7 1740.3 1266.9 1748 1266.9 1756.2 1267 1763.9 1267 1772.4 1267.1 1782.4 1267.1 1788 1267.2 1794.1 1267.2 1798.3 1267.3 1803.9 1267.4 1809.8 1267.6 1816.8 1267.7 1824.5 1267.9 1831.2 1268.1 1840.4 1268.3 1849.3 1268.5 1860.4 1268.7 1868.9 1268.9 1873.7 1269 1878.9 1269.2 1882.3 1269.2 1887.8 1269.3 1892.3 1269.3 1897.5 1269.4 1904.1 1269.5 1909.7 1269.6 1913.4 1269.6 1918.2 1269.7 1923.7 1269.8 1928.2 1269.8 1933 1269.9 1939.7 1270 1947.4 1270.1 1955.6 1270.2 1962.6 1270.3 1965.9 1270.3 1968.9 1270.4 1975.7 1270.5 1980 1270.5 1985.5 1270.6 1993.3 1270.8 1999.2 1270.9 2003.6 1271 2009.9 1271.1 2017.3 1271.3 2022.9 1271.4 2026.6 1271.5 2030.3 1271.5 2036.6 1271.7 2044.7 1271.8 2048.8 1271.9 2054 1272 2060.6 1272.1 2067.7 1272.3 2074.7 1272.4 2081 1272.4 2085.9 1272.5 2091.4 1272.5 2096.2 1272.5 2102.5 1272.6 2109.2 1272.6 2114.7 1272.7 2122.7 1272.7 2126.9 1272.8 2132.8 1272.9 2139.1 1272.9 2144.7 1273 2151.7 1273.1 2158.7 1273.2 2164.3 1273.2 2171.3 1273.3 2178.4 1273.4 2184.3 1273.5 2190.2 1273.6 2195.7 1273.6 2202.8 1273.7 2206.5 1273.8 2211.3 1273.8 2215.7 1273.9 2220.9 1273.9 Z M 1855 1277.2 1852.7 1348.8 1856.8 1352.8 1863.1 1357.4 1871.6 1365 1881.6 1372.8 1888.6 1378.3 1921.2 1379.1 1917.1 1365 1914.9 1359.1 1913.4 1353.7 1911.2 1346.9 1907.9 1336.6 1904.9 1330.4 1904.6 1326.4 1902.3 1319.3 1900.1 1313.9 1895.7 1306.9 1888.3 1296.9 1882 1285.5 1876.8 1277.4 1855 1277.2 Z" data-holc_grade="C"/>
<path d="M 2349.8 1724 2339 1723.3 2457.6 1598.3 2418.5 1578.5 2389.7 1576.9 2397.2 1566.8 2401.7 1539.6 2409.6 1502.3 2432.7 1502.3 2427 1468.2 2424.7 1445.2 2462.9 1440 2462 1424.4 2447 1424.1 2446.1 1412.1 2417.6 1412.4 2415.4 1401.7 2419 1365.7 2418.1 1316.4 2419 1298.6 2425.2 1274.9 2466.8 1275.2 2466.8 1421.1 2473.9 1435.4 2545.5 1435.8 2645.6 1435.4 2645 1439 2641 1452 2648.1 1460.4 2653.9 1470.8 2653.9 1490 2643.7 1503.3 2613.5 1534.7 2601 1542.5 2584.6 1544.5 2560.6 1570.7 2573.1 1577.6 2548.6 1596.7 2540.6 1593.5 2528.7 1604.5 2532.2 1606.4 2519.3 1613.6 2512.2 1613.2 2499.8 1605.5 2485.1 1604.2 2477.1 1613.6 2461.6 1624.9 2451.4 1619.7 2352.8 1724.2 2349.8 1724 Z M 2585.1 1515.9 2583.3 1506.8 2558 1506.2 2523.8 1542.8 2558 1543.2 2585.1 1515.9 Z" data-holc_grade="C"/>
<path d="M 1672.4 771.1 1670.4 768 1667.7 750.9 1666 741.1 1665.5 735.3 1678.8 734 1689.5 734.3 1703.7 734.6 1717.5 735 1727.7 734.6 1741.9 735 1743.7 740.5 1743.7 745.3 1745.4 753.1 1758.3 753.4 1773.4 753.8 1790.3 754.7 1813.8 754.7 1821.8 759.9 1834.7 770 1849.8 779.4 1863.6 789.7 1868.9 793.6 1868 797.9 1867.6 801.4 1868.5 807.3 1875.1 817 1854.7 816.3 1820.9 816 1796.1 814.7 1765 814.7 1734.3 814.1 1733 799.5 1733.9 781.6 1733.5 769.7 1720.1 768.4 1708.6 768.4 1691.3 768.7 1681.5 768.7 1672.4 771.1 Z" data-holc_grade="C"/>
<path d="M 1370.7 2442.7 1432.9 2445.1 1432.9 2451.3 1455.1 2451 1456.4 2472.4 1466.2 2472.1 1465.3 2540 1343.2 2539.6 1342.3 2534.1 1249.1 2533.8 1248.6 2556.5 1216.6 2555.9 1216.6 2503.3 1341.4 2502.3 1341 2438.6 1366.3 2439.6 1366.3 2442.5 1370.7 2442.7 Z" data-holc_grade="C"/>
<path d="M 2808.9 2989.3 2844.4 2988.9 2845.6 3041.8 2934.7 3041 2934.7 3082.5 2904.4 3084.1 2800 3083.8 2807.8 3036.1 2808.9 2989.3 Z" data-holc_grade="C"/>
<path d="M 1985.2 747.5 1986.6 743 1995 743.3 2004.3 744.9 2013.2 748.2 2022.5 750.7 2041.6 750.7 2047.9 749.8 2060.3 749.8 2068.7 748.5 2076.7 748.5 2091.4 747.5 2097.1 747.5 2096.7 753.7 2092.3 763.4 2085.2 773.4 2074.1 786.4 2066.1 795.5 2060.7 804.2 2055 810.7 2046.1 816.5 2036.8 820.1 2032.3 822.1 2030.1 827.2 2030.1 832.7 2028.8 837.6 2023 844.1 2014.6 852.8 2009.2 862.6 2002.6 868.7 1983.5 856.7 1983.9 840.9 1983.9 833.4 1983.9 826.3 1983.9 819.5 1984.8 811.7 1984.8 803.9 1984.8 794.2 1984.4 779.9 1984.8 761.4 1985.2 747.5 Z" data-holc_grade="C"/>
<path d="M 1237.9 895.7 1235.1 1025.3 1235 1030.4 1234.9 1034.6 1234.8 1039.4 1234.6 1047.2 1234.5 1052.4 1234.4 1057.4 1228 1057.5 1220.9 1057.7 1217.4 1057.8 1211.6 1057.9 1205.4 1058.1 1198.9 1058.2 1199 1063.1 1199.2 1068 1199.3 1072.8 1199.5 1078.7 1199.7 1083.8 1199.8 1088.3 1199.9 1091.9 1200 1094.6 1204.2 1094.8 1208.2 1095 1215.7 1095.4 1223 1095.8 1230.8 1096.3 1230.8 1128.3 1072.1 1130 1021.2 1129.1 982.1 1128.3 983.3 1086.8 979.8 1083.3 952.5 1082.5 895.7 1082.5 853.1 1082.5 853.1 1057.4 898.1 1056.5 915.8 1057.4 905.2 1046.1 882.7 1020.2 861.4 989.9 988.1 992.5 990.4 894.8 1237.9 895.7 Z" data-holc_grade="C"/>
<path d="M 1226.6 1265.8 1146.7 1265.7 1133.1 1271.7 1136.6 1276.9 1111.2 1288.2 1075.6 1244.9 985 1244 986.2 1265.2 1009.9 1265.7 1009.9 1310.2 1013.5 1313.2 1013.5 1331.8 1067.9 1357.4 1027.1 1357.2 980.9 1357.4 727 1360.8 725.2 1181.1 597.3 1181.1 598.2 1085.1 853.1 1082.5 895.7 1082.5 952.5 1082.5 979.8 1083.3 983.3 1086.8 982.1 1128.3 1021.2 1129.1 1072.1 1130 1230.8 1128.3 1230.8 1096.3 1231.6 1088.4 1232.5 1082.2 1247.6 1081.3 1264 1081.3 1279.5 1081.6 1294.8 1080.7 1318.5 1080.7 1371.7 1079.9 1417.3 1079.9 1416.1 1126.9 1475.9 1126.9 1475.9 1081.4 1481.9 1081.6 1481.9 1079.9 1515 1081.6 1528 1082.7 1531.3 1086 1532.1 1097.2 1531 1130.1 1510.8 1129.9 1499.7 1129.9 1499.3 1133.7 1499.7 1152 1481.2 1152 1479 1154.5 1477.5 1173.6 1476 1175 1456 1175.3 1422 1175.3 1386.1 1174.7 1354.3 1174.5 1315.8 1173.9 1280.6 1173.6 1234 1173.9 1228.5 1174.7 1227 1222 1226.6 1265.8 Z" data-holc_grade="C"/>
<path d="M 272.5 1453.3 408.4 1452 412.8 1599.7 354.6 1599.3 357.8 1735.6 237.4 1737.3 235.6 1638.3 294.3 1636 294.3 1553.9 272 1554.9 272.5 1453.3 Z" data-holc_grade="C"/>
<path d="M 470.8 1545.3 577.1 1545.5 577.1 1568 556 1567.4 537.8 1570.7 521.5 1576.6 506.7 1584.2 496.7 1592.6 489.3 1603.1 485.3 1609.9 479.4 1612.1 472 1611.8 470.8 1545.3 Z" data-holc_grade="C"/>
<path d="M 643 1820.8 647.8 1858.8 607.9 1862.6 606.5 1909.1 536.8 1910 536.4 1864.6 504 1863 448.5 1858.8 448.5 1899.3 357 1900.9 357 1910 225.1 1913.3 115.8 1916.5 113.2 1853.6 238.4 1839.3 238 1824.3 319.7 1822.1 455.6 1821.4 643 1820.8 Z" data-holc_grade="C"/>
<path d="M 605.3 2088.4 515.7 2089.9 426.4 2089.6 328.7 2092.5 226.1 2095.7 88.9 2101.3 1.4 2103.9 1 2014.2 218.6 2005.5 352.7 2000.3 461.5 1999.3 474.4 1999.3 604.1 1998.9 606.7 1998.9 605.3 2088.4 Z" data-holc_grade="C"/>
<path d="M 718.4 2819.9 719.6 2853.2 661 2852.8 653.3 2854.1 639.7 2845 626.1 2838.9 615.4 2832.4 615.4 2825.9 619 2821.6 718.4 2819.9 Z M 473.3 2770 473.3 2807.3 402.9 2806 404 2770 473.3 2770 Z M 788.9 2715 637.9 2715.5 640.3 2676.5 715.5 2676.5 717.8 2664.3 717.3 2653.9 789.5 2653.5 784.2 2683 788.9 2701.6 788.9 2715 Z M 726.5 2394.4 727.4 2444.4 661.6 2444.1 665.6 2394.4 726.5 2394.4 Z" data-holc_grade="C"/>
</g>
<g id="D">
<path d="M 1648.5 903.7 1687.7 903.2 1690.8 914.5 1694.4 926.2 1704.1 941.5 1709 951.5 1713 959.9 1717.5 966.7 1732.1 995.9 1726.3 996.6 1719.3 994.4 1702.8 989.4 1685.2 984.3 1668.2 979.4 1655.8 975.1 1652 973.7 1641.1 969.3 1638.5 966.5 1636.2 964 1633.1 960.6 1623.4 956.6 1619.5 955 1611.5 951.7 1591.1 932.7 1574.2 917.6 1565 910 1558.2 903.7 1560.6 903.1 1605.6 903.5 1633.7 903.5 1648.5 903.7 Z" data-holc_grade="D"/>
<path d="M 1222.5 2171 1298 2170.3 1345.4 2170.6 1345.4 2195.3 1312.2 2194 1311.6 2237.7 1222.8 2207 1222.5 2171 Z M 1449 2085.2 1470.6 2085.2 1473.3 2092.2 1469.1 2169.3 1448.4 2169.3 1449 2085.2 Z M 1222.5 2171 1112.8 2170.6 977.7 2170.1 977.9 2154.5 978.9 2087.5 1037.5 2086.2 1036.3 2019.1 979.5 2019.1 978.7 1999.7 978.3 1990.1 989.9 1990 1015.9 1990.8 1032.5 1991.3 1068.9 1991.7 1067.7 2082.7 1147.6 2081.8 1147.6 2042.9 1161.2 2042.4 1160.7 2027.7 1221.5 2025.1 1222.8 2064 1222.5 2171 Z" data-holc_grade="D"/>
<path d="M 1837.4 2011.1 1836.4 2082.6 2085.7 2082.1 2081.5 2346.3 2024.1 2346.3 2005.2 2346.3 2004.6 2323.3 2021.2 2322.9 2020.6 2302.9 2035.4 2302.9 2035.4 2278.3 1914 2276.5 1879.6 2301.6 1832.3 2302.5 1833.5 2261.8 1752.3 2260.5 1743.8 2265.8 1747.3 2164.2 1751.8 2085.9 1750.4 2017.1 1543.5 2031.7 1502.5 2034.1 1502.5 2017.6 1532.1 2014.6 1532.1 1999.9 1580.6 1996.4 1837.6 1991.7 1837.4 2011.1 Z M 2065 2213.3 2049.6 2212.4 2046 2206.4 2030.6 2178.7 2001.6 2204.7 2006.9 2212 2008.1 2258.8 2066.7 2259.6 2065 2213.3 Z" data-holc_grade="D"/>
<path d="M 2081.5 2346.3 2085.7 2082.1 1836.4 2082.6 1837.4 2011.1 1955.4 2002.5 2158.5 2003.3 2157.9 2078.7 2191.1 2079.5 2193.5 2117.6 2175.7 2118.1 2176.9 2126.7 2191.1 2156.6 2175.7 2155.7 2175.1 2185.2 2138.4 2190.4 2139.6 2230.2 2171 2269.2 2169.8 2302.9 2161.5 2319.4 2150.8 2335.9 2137.2 2346.7 2081.5 2346.3 Z" data-holc_grade="D"/>
<path d="M 2262.1 2375.7 2262.5 2437.7 2252.7 2464.9 2244.4 2488.3 2190.5 2489.2 2193.1 2411.6 2173.1 2365.8 2181.6 2354.4 2190.9 2333.7 2200.2 2305.7 2201.1 2221.9 2201.6 2211.6 2214 2203.8 2311.2 2311.3 2309 2313.5 2325.9 2333.3 2380.1 2361.6 2397.5 2372.5 2354 2371.8 2353.1 2352.6 2262.1 2352 2262.1 2375.7 Z" data-holc_grade="D"/>
<path d="M 2443.7 2417.5 2427.6 2386.6 2399.8 2373.5 2397.5 2372.5 2380.1 2361.6 2325.9 2333.3 2309 2313.5 2311.2 2311.3 2214 2203.8 2222.9 2199.2 2241.5 2195.6 2258.8 2196 2268.6 2198.9 2268.2 2220.3 2334.3 2225.5 2368.5 2243.1 2382.7 2286.2 2423.6 2287.2 2444.5 2301.8 2463.1 2293.4 2505.5 2327.3 2460.2 2354.6 2476.6 2370.5 2474.4 2442.6 2456.2 2442.3 2443.7 2417.5 Z" data-holc_grade="D"/>
<path d="M 1101.3 1743.1 1097.4 1743.3 1068.7 1726.4 1062.2 1726 1054.8 1730.8 1045.9 1734.7 1039.4 1735.9 1036.5 1718.6 1039.4 1708.5 1045.6 1702.4 1101.3 1724.7 1101.3 1743.1 Z" data-holc_grade="D"/>
<path d="M 2832.1 3365.3 2829.1 3417.9 2774 3417.9 2777.3 3443.4 2540.9 3441.5 2546 3347.2 2590.1 3346.9 2595.3 3253.4 2647.8 3254.8 2703.7 3255 2700.4 3347.2 2758.8 3348.3 2770.3 3397.9 2805.8 3398.4 2808.8 3362.1 2821.7 3362.1 2832.1 3365.3 Z" data-holc_grade="D"/>
<path d="M 2765.3 3810.6 2851 3817.4 2844.7 3775.3 2895.3 3779.7 2889.7 3832.1 2856 3831.6 2861 3857.8 2833.8 3857.4 2794.4 3853.1 2761.8 3848.9 2765.3 3810.6 Z" data-holc_grade="D"/>
<path d="M 450.8 3074.3 466.2 3072.6 467.4 3041.3 505.3 3041.3 507.1 3062.1 453.2 3098.6 450.8 3074.3 Z" data-holc_grade="D"/>
<path d="M 334.1 3475.6 410.1 3503.2 366.1 3536 329.1 3540.2 334.1 3475.6 Z" data-holc_grade="D"/>
<path d="M 2098 1097 2116.7 1097 2139.8 1097.3 2157.5 1098.3 2171.8 1099.2 2185.1 1099.6 2185.5 1109.6 2185.1 1118.1 2184.2 1126.5 2184.2 1130.1 2170 1130.4 2150.9 1130.1 2135.8 1129.7 2122 1129.7 2110 1128.8 2097.6 1128.1 2098 1097 Z" data-holc_grade="D"/>
<path d="M 2246.6 1610.2 2241.8 1610.2 2238.6 1610.1 2234.1 1610.1 2229.7 1610.1 2225.2 1610.1 2220.8 1610.1 2213.7 1610.1 2208.1 1610.2 2204.3 1610.3 2199.2 1610.4 2193.6 1610.5 2188 1610.6 2183 1610.7 2178.5 1610.8 2173.5 1610.9 2171.4 1610.9 2169 1610.9 2164 1610.9 2158.3 1610.9 2153.3 1610.9 2147.4 1610.9 2141.2 1610.9 2136.4 1610.9 2136.5 1607.2 2136.6 1605.1 2136.7 1602.7 2136.7 1599.6 2136.8 1596.8 2136.9 1592.7 2137 1588.9 2137.2 1585.9 2137.5 1583 2137.6 1580.4 2137.9 1577.5 2138.1 1574.5 2138.3 1571.7 2138.5 1568.5 2138.5 1565.3 2138.5 1562 2138.5 1557.9 2138.5 1554.5 2138.3 1552.9 2138 1551 2137.6 1548.3 2137.3 1546.1 2157.7 1546.4 2180.2 1546.7 2200.6 1547.5 2203.6 1544.5 2203.9 1533.2 2204.3 1520.5 2204.3 1503.7 2204.3 1488 2204.7 1480.4 2204.3 1471.8 2204.7 1456.9 2213.2 1456.4 2221 1456.6 2221 1446.4 2221 1433.9 2221 1417.4 2221.3 1396.4 2221.3 1374.5 2221.7 1352.8 2222.4 1336.4 2222.1 1317.4 2222.4 1299.9 2222.8 1287.7 2222.1 1277.4 2220.9 1273.9 2227.5 1274 2240.9 1273.3 2278.2 1274 2307.3 1274.4 2332.4 1274.8 2340.7 1275.1 2346.6 1275.5 2347.2 1285.4 2346.6 1297.5 2346.6 1315.7 2346.6 1335.2 2346.6 1346.2 2347.2 1364.4 2347.2 1389 2346.6 1413.4 2346.3 1438.1 2346.6 1451.7 2346.9 1463.8 2346 1474.9 2353.7 1475.7 2359.7 1475.5 2363.5 1476.2 2367.4 1477 2371.8 1478.3 2371.8 1482 2372.1 1485.5 2376.2 1490 2380.1 1497.1 2380.4 1503.6 2380.4 1508 2378.9 1513.8 2378.3 1518.8 2378.3 1523.5 2376.2 1528.9 2370.6 1536.7 2359.9 1546.9 2350.8 1553.2 2343.1 1556.4 2330.3 1562.7 2323.8 1566.4 2318.5 1569 2312 1571.1 2305.5 1576.1 2300.7 1581.1 2294.8 1584.7 2286.5 1590.2 2279.1 1594.5 2269.7 1601.4 2261.7 1605.5 2254.9 1608.8 2250.7 1610.3 2246.6 1610.2 Z" data-holc_grade="D"/>
<path d="M 2349.8 1724 2347.5 1728.4 2343.4 1733.2 2340.4 1740.3 2337.7 1748.1 2334.5 1755 2330.9 1760 2326.5 1767.1 2325.3 1773.6 2325.6 1783.1 2325.6 1788.8 2323.5 1794.6 2322.4 1800.4 2320.3 1802.8 2316.4 1806.5 2312 1807.4 2304.3 1807.8 2299 1807.8 2299 1804.6 2297.2 1796.1 2294.5 1782.3 2293.6 1774.7 2292.2 1765.2 2291.9 1759.6 2290.7 1754.1 2289.8 1751.3 2285.9 1751.5 2272.6 1752.4 2260.2 1753.5 2243.3 1754.1 2219.6 1755.7 2210.7 1756.1 2208.7 1755 2207.8 1750.5 2206.6 1745.5 2205.7 1738.1 2205.1 1732.1 2203.6 1726.2 2203 1720.4 2202.2 1713.5 2200.4 1712.6 2192.1 1712.8 2181.1 1712.8 2168.1 1712.6 2156.6 1712.8 2155.7 1711.3 2158.6 1705.9 2164.9 1698.1 2170.2 1694 2176.4 1690.5 2182 1685.8 2191.8 1681.4 2197.1 1676.9 2204.5 1672.8 2208.1 1669.5 2211.9 1664.4 2216.7 1659.2 2222.3 1652.7 2225 1649.2 2230.3 1644.7 2234.4 1640.3 2238 1636.9 2243 1633.6 2247.5 1630.6 2254.6 1625 2259.9 1622.6 2264.9 1618.7 2271.1 1614.2 2276.5 1610.3 2285 1604.7 2291 1599.5 2298.4 1594.9 2305.2 1593.2 2316.7 1590.6 2323.8 1590.2 2332.7 1589.7 2344.3 1590.2 2351.1 1589.3 2357.3 1588.2 2364.4 1586.9 2371.5 1586.5 2376.2 1584.5 2383.3 1581.1 2389.7 1576.9 2418.5 1578.5 2457.6 1598.3 2339 1723.3 2349.8 1724 Z" data-holc_grade="D"/>
<path d="M 2128.8 1544.5 2134 1545.5 2137.3 1546.1 2137.6 1548.3 2138 1551 2138.3 1552.9 2138.5 1554.5 2138.5 1557.9 2138.5 1562 2138.5 1565.3 2138.5 1568.5 2138.3 1571.7 2138.1 1574.5 2137.9 1577.5 2137.6 1580.4 2137.5 1583 2137.2 1585.9 2137 1588.9 2136.9 1592.7 2136.8 1596.8 2136.7 1599.6 2136.7 1602.7 2136.6 1605.1 2136.5 1607.2 2136.4 1610.9 2141.2 1610.9 2147.4 1610.9 2153.3 1610.9 2158.3 1610.9 2164 1610.9 2169 1610.9 2171.4 1610.9 2173.5 1610.9 2178.5 1610.8 2183 1610.7 2188 1610.6 2193.6 1610.5 2199.2 1610.4 2204.3 1610.3 2208.1 1610.2 2213.7 1610.1 2220.8 1610.1 2225.2 1610.1 2229.7 1610.1 2234.1 1610.1 2238.6 1610.1 2241.8 1610.2 2246.6 1610.2 2245.4 1612.4 2240.1 1615 2233.5 1617.4 2228.5 1620.4 2222.3 1624.3 2217.8 1628 2211.6 1631.7 2209.9 1634.5 2207.5 1636.7 2200.7 1639.7 2193.9 1642.5 2185 1643.4 2182 1646.8 2178.5 1649.2 2171.1 1654.2 2161 1665 2156.6 1671.7 2151.8 1676.7 2144.4 1685.6 2140.9 1692.3 2127.6 1691.8 2087 1691.4 2060.9 1691.4 2042.3 1691 2019.2 1691.2 1997.3 1691 1994.3 1692.3 1993.7 1704.6 1993.7 1724.5 1990.8 1727.1 1987.2 1726.9 1975.4 1726.9 1965.3 1727.1 1965.3 1725.4 1965.3 1724.6 1965.3 1724 1965.3 1723.3 1965.2 1722.5 1965.2 1721.5 1965.2 1720.9 1965.2 1720.3 1965.2 1719.8 1965.2 1719.2 1965.2 1718.1 1965.2 1717 1965.1 1715.8 1965.1 1715 1965.1 1714.3 1965.1 1713.6 1965.1 1712.8 1965.1 1711.9 1965.1 1711 1965 1710 1965 1708.9 1965.1 1708.3 1965.1 1707.7 1965.1 1707 1965.2 1706.4 1965.2 1705.7 1965.2 1704.9 1965.3 1704.2 1965.3 1703.5 1965.3 1703 1965.4 1702 1965.4 1701.2 1965.5 1700.1 1965.5 1699.3 1965.6 1698.9 1965.6 1698.4 1965.6 1697.9 1965.7 1697 1965.8 1696.2 1965.8 1695.6 1965.9 1694.7 1966 1694 1966.1 1693.3 1966.2 1692.5 1966.2 1691.9 1966.3 1691.4 1966.4 1690.8 1975.6 1690.3 1975.2 1670.5 1975.6 1651.3 1976.7 1631.6 1977.1 1604.3 1977.5 1579.9 1978.2 1567 1978.6 1549.9 1978.9 1544.2 1993 1544 2025.2 1544 2040 1544.8 2055.2 1545.1 2072.6 1544.8 2093.3 1544.5 2117 1544.8 2128.8 1544.5 Z" data-holc_grade="D"/>
<path d="M 2128.8 1544.5 2117 1544.8 2093.3 1544.5 2072.6 1544.8 2055.2 1545.1 2040 1544.8 2025.2 1544 1993 1544 1978.9 1544.2 1978.6 1549.9 1978.2 1567 1977.5 1579.9 1977.1 1604.3 1976.7 1631.6 1975.6 1651.3 1975.2 1670.5 1975.6 1690.3 1966.4 1690.8 1965.5 1691 1965 1691.2 1964.2 1691.4 1963.7 1691.5 1963 1691.7 1962.3 1691.9 1961.5 1692.2 1960.9 1692.2 1959.9 1692.3 1958.7 1692.4 1957.5 1692.6 1956.2 1692.7 1954.9 1692.8 1953.4 1693 1950.9 1693 1948.9 1693 1946.7 1693.1 1945.4 1693.1 1942.3 1693.1 1939.2 1693.2 1934.9 1693.2 1932.7 1693.2 1926.5 1693.2 1922.5 1693.2 1915.4 1693.2 1907.9 1693.2 1902 1693.2 1895.9 1693.2 1888.3 1693.2 1883.5 1693.2 1878.6 1693.2 1870.6 1693.2 1865 1693.2 1859 1693.1 1852.8 1693 1848 1692.9 1841.6 1692.8 1840.3 1692.8 1836.8 1692.7 1832.8 1692.6 1829.2 1692.5 1825.2 1692.5 1819.9 1692.4 1814.5 1692.3 1809.1 1692.2 1804.4 1692.2 1801.3 1692.2 1798.2 1692.2 1792.9 1692.2 1788.4 1692.3 1784 1692.3 1780 1692.3 1774.2 1692.3 1768 1692.4 1762.2 1692.4 1757.8 1692.4 1752.1 1692.4 1746.2 1692.4 1740.5 1692.4 1735.6 1692.3 1728 1692.3 1721 1692.2 1710.6 1692.2 1668.1 1692.4 1642.2 1692.4 1616.6 1691.3 1630.3 1683.5 1638.5 1678.6 1645.1 1673.5 1653.3 1665.9 1656.7 1661.6 1661.2 1655 1665.8 1646.3 1668.1 1641.9 1669.4 1636.9 1670.9 1629.2 1671.8 1623.5 1671.4 1618.9 1671 1614.5 1670.7 1610.5 1670.3 1605.1 1669.8 1598.2 1669.1 1590.1 1668.5 1584.8 1668.3 1581.6 1668.1 1575.6 1668.1 1571.1 1668.1 1563.7 1667.6 1559.6 1667.1 1555.4 1666.6 1551.5 1666.2 1544.9 1665.9 1540.2 1665.2 1531.2 1664.8 1525.9 1664.5 1522.1 1664.2 1516.9 1664 1513.7 1663.6 1508.5 1662.9 1500.7 1662.4 1492.3 1662.2 1487.7 1661.4 1480 1660.3 1469.9 1660.3 1464.7 1660.3 1457.5 1659.6 1449.8 1659.2 1444.8 1658.7 1437.8 1658.1 1430.2 1657.9 1426.4 1657.6 1419.9 1657.4 1413.9 1656.3 1404.7 1655.5 1398.3 1675.9 1398.5 1674.7 1406.4 1688.8 1406.9 1690.7 1408 1690.3 1425.8 1691.4 1428.8 1698.1 1428.8 1723.6 1429.6 1726.9 1432 1726.9 1441.8 1727.3 1454.2 1753.2 1454.8 1784.3 1454.8 1822.4 1455.3 1884.2 1454.8 1932.7 1454.8 1986.3 1455 2068.9 1456.1 2113.6 1456.4 2129.9 1456.4 2129.6 1478.8 2129.2 1503.4 2128.8 1525 2128.8 1544.5 Z M 1653.7 1361.5 1646.3 1361.4 1639.2 1361.2 1631.7 1361.3 1623.3 1361.5 1614.8 1361.5 1609 1361.1 1601.5 1360.7 1598.1 1359.3 1598.5 1352.3 1599.3 1339.3 1599.6 1322 1599.6 1310.9 1604.8 1310.9 1615.2 1311.5 1631.8 1311.8 1645.1 1312 1650.7 1313.6 1650.6 1317.4 1650.3 1324.2 1650.8 1327.7 1651.8 1336.1 1652.3 1340.9 1652.9 1346.9 1653.1 1349.2 1653.7 1355 1653.7 1361.5 Z" data-holc_grade="D"/>
<path d="M 1965.3 1725.4 1962.5 1726 1959.2 1726.8 1957.9 1728.3 1957.4 1734.6 1957.7 1743.2 1957.7 1752.1 1957.7 1762 1957.7 1768.9 1958.2 1777.4 1958.2 1788.1 1958.5 1797.1 1958.9 1805.4 1958.9 1815.1 1960.3 1828.3 1960.6 1832.9 1960.8 1846.1 1960.8 1855.3 1960.3 1858.9 1947.3 1859.4 1907.5 1859.8 1891.7 1859.8 1860.2 1859.9 1845 1859.8 1805.5 1860.3 1775.4 1859.8 1756.9 1859.9 1741.5 1860.3 1729 1860.3 1715.2 1860.5 1715.5 1872.4 1715.7 1886.1 1711.4 1888.2 1705.7 1889.9 1699.8 1892.7 1695.8 1894.6 1689.4 1897.2 1683 1899.6 1675.4 1902.2 1668.1 1904.6 1662.4 1906 1649.1 1907.4 1638 1907.2 1626.4 1907.4 1610.8 1907.2 1595.1 1906.5 1595.9 1898.2 1596.1 1882.3 1596.1 1865.1 1596.8 1848.7 1597.4 1835.1 1597.1 1826.9 1593.8 1825.8 1593.9 1818.1 1596.7 1818.2 1599.3 1818.4 1601.2 1818.5 1602.2 1818.5 1603.6 1818.6 1606.4 1818.7 1608.2 1818.7 1611.2 1818.7 1613.4 1818.7 1616.6 1818.7 1619.3 1818.8 1621.5 1818.8 1623.1 1818.9 1625.6 1818.9 1628 1819 1631.5 1819 1632.6 1819.1 1634.1 1819 1636.9 1818.9 1638.4 1818.9 1639.8 1818.8 1641.6 1818.7 1643.9 1818.7 1646.3 1818.6 1648.2 1818.5 1650 1818.5 1651.7 1818.4 1653.9 1818.4 1656.2 1818.4 1658.2 1818.4 1660.3 1818.4 1662.1 1818.4 1663.9 1818.4 1665.9 1818.4 1667.3 1818.4 1669.4 1818.4 1671.8 1818.4 1674.1 1818.4 1675.7 1818.4 1677 1818.4 1678.4 1818.4 1680.7 1818.4 1682.5 1818.4 1684.4 1818.4 1686.6 1818.4 1688.4 1818.4 1690.8 1818.4 1692.6 1818.4 1694.1 1818.4 1696.3 1818.4 1698.7 1818.4 1701.1 1818.3 1702.4 1818.3 1703.8 1818.2 1706.3 1818.1 1707.7 1818 1710.3 1817.9 1711.9 1817.9 1714.7 1817.8 1715.2 1827.8 1735.6 1827.8 1750.2 1828.1 1767.1 1828.1 1782.2 1827.8 1800.4 1828.1 1820.4 1828.5 1837.7 1828.5 1837.7 1819.7 1837.7 1808 1837.7 1795.4 1838.2 1772.6 1838.6 1756.7 1839.5 1744.1 1840.4 1734 1840.4 1725.6 1840.8 1715.8 1841.7 1707.1 1841.7 1702.5 1841.7 1697.3 1841.6 1692.8 1848 1692.9 1852.8 1693 1859 1693.1 1865 1693.2 1870.6 1693.2 1878.6 1693.2 1883.5 1693.2 1888.3 1693.2 1895.9 1693.2 1902 1693.2 1907.9 1693.2 1915.4 1693.2 1922.5 1693.2 1926.5 1693.2 1932.7 1693.2 1934.9 1693.2 1939.2 1693.2 1942.3 1693.1 1945.4 1693.1 1946.7 1693.1 1948.9 1693 1950.9 1693 1953.4 1693 1954.9 1692.8 1956.2 1692.7 1957.5 1692.6 1958.7 1692.4 1959.9 1692.3 1960.9 1692.2 1961.5 1692.2 1962.3 1691.9 1963 1691.7 1963.7 1691.5 1964.2 1691.4 1965 1691.2 1965.5 1691 1966.4 1690.8 1966.3 1691.4 1966.2 1691.9 1966.2 1692.5 1966.1 1693.3 1966 1694 1965.9 1694.7 1965.8 1695.6 1965.8 1696.2 1965.7 1697 1965.6 1697.9 1965.6 1698.4 1965.6 1698.9 1965.5 1699.3 1965.5 1700.1 1965.4 1701.2 1965.4 1702 1965.3 1703 1965.3 1703.5 1965.3 1704.2 1965.2 1704.9 1965.2 1705.7 1965.2 1706.4 1965.1 1707 1965.1 1707.7 1965.1 1708.3 1965 1708.9 1965 1710 1965.1 1711 1965.1 1711.9 1965.1 1712.8 1965.1 1713.6 1965.1 1714.3 1965.1 1715 1965.1 1715.8 1965.2 1717 1965.2 1718.1 1965.2 1719.2 1965.2 1719.8 1965.2 1720.3 1965.2 1720.9 1965.2 1721.5 1965.2 1722.5 1965.3 1723.3 1965.3 1724 1965.3 1724.6 1965.3 1725.4 Z" data-holc_grade="D"/>
<path d="M 1474.1 1832.7 1474.1 1828.7 1474.4 1826 1474.7 1824 1474.4 1822 1474.1 1819.4 1473.9 1817.3 1473.8 1815.4 1473.7 1813.8 1473.6 1812.8 1473.5 1811.2 1473.5 1809.3 1473.5 1808.1 1473.5 1807.3 1473.5 1806.5 1473.5 1804.5 1475 1801.5 1483.9 1800.6 1493.9 1800.2 1503.1 1799.5 1511.7 1799.1 1519.4 1799.1 1532.7 1798.2 1541.3 1798.2 1555.2 1798 1562.3 1797.6 1568.5 1797.8 1574.4 1797.6 1580.4 1797.3 1586.3 1797.3 1593.6 1797.4 1593.7 1798.4 1593.8 1800.6 1593.9 1803.8 1593.9 1807.1 1593.9 1809 1593.9 1811.8 1593.9 1815.1 1593.9 1818.1 1593.8 1825.8 1597.1 1826.9 1597.4 1835.1 1596.8 1848.7 1596.1 1865.1 1596.1 1882.3 1595.9 1898.2 1595.1 1906.5 1585.7 1907.1 1578.1 1907.7 1570.4 1907.9 1560.5 1907.9 1551.2 1907.8 1536.5 1907.4 1525.8 1907.1 1520.2 1906.1 1514.6 1903.9 1509.1 1902.2 1501.1 1899.3 1493.7 1894.7 1485 1888.7 1481.4 1886.2 1476.8 1881.2 1473.6 1876.5 1471.1 1871.4 1469.4 1867.4 1469.2 1862.5 1469.2 1855.3 1470.8 1847.8 1472.7 1841.8 1474.1 1837.3 1474.1 1832.7 Z M 1591.2 1834.6 1591.2 1831.6 1591 1828.2 1589.1 1827.8 1583.2 1827.8 1583 1830.7 1581.8 1831.7 1577 1831.8 1571.8 1832 1571.5 1833.9 1570.6 1836 1567.9 1836.2 1561.7 1836.1 1557.5 1835.9 1550.9 1835.6 1545.6 1835.5 1542 1835.7 1541.8 1844.6 1541.3 1849.9 1541.1 1854.4 1540.6 1859.4 1542.5 1860.3 1545.6 1861 1548.9 1861.3 1553.7 1861.6 1558.5 1861.7 1562.6 1861.2 1566.7 1861 1570.2 1860.3 1574 1859.7 1577.7 1859.1 1583 1858.3 1587.1 1858.7 1590 1859 1591.4 1858.4 1591 1852.6 1590.8 1848.4 1591 1843.3 1591.4 1839.5 1591.2 1834.6 Z" data-holc_grade="D"/>
<path d="M 1286.8 1994.4 1257.6 1994.4 1230.8 1994.4 1224.8 1994.4 1194.9 1994.4 1156.1 1994.1 1135.1 1993.7 1113.3 1992.6 1093.8 1992.1 1072.3 1991.7 1068.9 1991.7 1032.5 1991.3 1015.9 1990.8 989.9 1990 978.3 1990.1 977.6 1973.2 977.1 1963.6 977.1 1952.2 968.5 1952.1 952.6 1952.1 934.6 1952 921.5 1951.7 921.5 1944.4 920.6 1933.4 920.7 1925 920.6 1912.4 920.6 1901.3 921.3 1895.1 924.1 1895.6 933.6 1896 956.1 1895.6 976.2 1895.1 979.3 1896.7 983.8 1897 994.9 1897 1020 1896.7 1051.3 1896.5 1079 1896.3 1097.5 1896.9 1112.4 1896.9 1127.1 1896.9 1138 1897.5 1138.4 1905.5 1147 1906.2 1160.5 1906.9 1178.2 1906.4 1189.4 1906.2 1205.9 1906.6 1227 1906 1245.3 1905.5 1257.6 1905.7 1257.5 1921.1 1257.2 1932.8 1256.9 1947.8 1282.1 1947.6 1286.2 1949.1 1286.2 1959.6 1286.3 1979.5 1286.8 1994.4 Z" data-holc_grade="D"/>
<path d="M 728.7 2088.9 665.6 2087.9 605.3 2088.4 606.7 1998.9 853.2 1998.4 852.1 2042.2 802.8 2043.1 802.4 2084 729.1 2085.3 728.7 2088.9 Z M 604.1 1998.9 474.4 1999.3 475.3 1948.7 610.3 1950.3 765.7 1950.9 852.3 1951.3 852.3 1964.9 723.5 1964.2 723.1 1982.4 646.7 1980.8 604 1979.2 604.1 1998.9 Z" data-holc_grade="D"/>
<path d="M 1486.6 855.1 1486.6 868 1486.6 898.3 1486.6 919.9 1484.2 955.4 1484.2 982.2 1483.1 1017.6 1483.1 1053.1 1481.9 1079.9 1481.9 1081.6 1475.9 1081.4 1431 1079.9 1417.3 1079.9 1371.7 1079.9 1318.5 1080.7 1294.8 1080.7 1294.8 1059.1 1296 1027.1 1278.2 1026.2 1235.1 1025.3 1237.9 895.7 1355.2 895.7 1383.6 895.7 1384.8 874.1 1386 852.5 1414.4 852.5 1452.3 853.3 1486.6 855.1 Z" data-holc_grade="D"/>
<path d="M 845.9 2530.5 916.1 2530.9 917.4 2560.1 849.5 2559.1 849.5 2606.9 723.8 2606.2 724.7 2551.6 845.5 2550.7 845.9 2530.5 Z" data-holc_grade="D"/>
<path d="M 2689.8 2866.3 2690.9 2921 2735.7 2921.6 2777.5 2985.2 2691.2 2985.2 2690.1 2923.2 2663.5 2921.8 2672.7 2890.9 2602.1 2892 2602.4 2866 2689.8 2866.3 Z M 2688.7 2728.2 2689 2803.2 2561.7 2802.9 2561.4 2799.1 2563.6 2723.9 2688.7 2723.9 2688.7 2728.2 Z" data-holc_grade="D"/>
<path d="M 2803.2 3571.9 2795.1 3529.3 2911.7 3531 2908.7 3603.6 2812.5 3603.1 2803.2 3571.9 Z" data-holc_grade="D"/>
</g>
</svg>