<?xml version="1.0"?>
<svg xmlns="http://www.w3.org/2000/svg" version="1.2" baseProfile="tiny" width="3000" height="2950" viewBox="0 0 3000 2950" stroke-linecap="round" stroke-linejoin="round">
<g id="A">
<path d="M 1588.5 2331.9 1603.1 2334.1 1636.4 2333.2 1674.8 2337.5 1724.9 2343.5 1780.2 2352.1 1840.7 2362.4 1890.8 2368.5 1943.9 2371 1996.6 2370.6 2048.9 2369.7 2077.8 2365.8 2124.4 2364.5 2181.4 2365.7 2194.9 2449.6 2225.2 2573.2 2237.7 2653.8 2236.6 2689.8 2219.4 2881.2 2143 2890.3 2115 2894.1 2068.7 2901 2034.6 2901 1993.1 2899.8 1959 2897.2 1909.3 2895.5 1832.4 2884.3 1795.3 2883.5 1740.4 2878.7 1719.7 2878.7 1668.2 2868.4 1651 2868.9 1609.5 2867.6 1554.6 2868.4 1473.4 2863.3 1446.6 2860.7 1383.5 2865.8 1338.2 2866.3 1279 2864.1 1218.5 2862.4 1171.8 2860.7 1134.3 2861.5 1102.7 2863.2 1077.2 2863.7 1028.4 2866.2 992.6 2873.1 899.7 2890.7 875.9 2892 802.9 2897.1 777.4 2899.7 702.6 2912.1 617.1 2922.4 519.5 2932.3 449.5 2937.4 340.6 2944.6 320.3 2946.3 293.5 2948.9 268 2945.4 249.9 2938.1 240.8 2930.4 222.2 2909.3 202.4 2889.5 187.7 2873.5 172.1 2863.2 153.1 2850.3 131.6 2836.9 84.1 2812.4 107 2774.5 148.9 2710.1 177.9 2663.6 205.6 2624.5 223.3 2596.2 244.1 2559.2 264.8 2523.9 287.8 2482.7 313.3 2419.9 319.8 2400.1 327.6 2381.2 333.2 2367.4 338.4 2354.5 346.2 2336.1 365.6 2305.1 389 2275.9 410.6 2254 425.7 2237.6 477.5 2186.9 500.4 2162.4 514.7 2148.3 525.9 2134.5 537.2 2117.8 570.2 2071.6 596.7 2030.2 609.7 2001.7 614.5 1978.6 615.6 1963.6 618.9 1925.4 627 1890.5 638.9 1859.5 648.3 1847.5 661.1 1835.5 676.6 1828.3 694.6 1821.4 723.9 1811.4 765.4 1797.3 797.2 1786.7 823.8 1776.4 857.6 1763 892.8 1750.7 887.6 1777.2 885.9 1808.6 882.4 1828.8 879 1850.7 878.1 1880.8 876.4 1905.8 877.6 1926.8 882 1953.9 885.8 1989.2 889.3 2016.2 960.1 2022.7 1003.3 2033 1043 2041.2 1097 2052.4 1099.6 2060.2 1099.6 2073.5 1100.8 2088.5 1100 2113 1096.1 2149.2 1091.8 2179.7 1188.1 2193 1296.5 2208.5 1311.1 2212.4 1303.4 2236.9 1300.8 2255.4 1296.9 2301.8 1407.4 2310.9 1470.1 2316.9 1588.4 2331.9 1588.5 2331.9 Z" data-holc_grade="A"/>
</g>
<g id="B">
<path d="M 1646.9 1835.4 1649.3 1875.1 1651.9 1906.1 1652.8 1944.7 1653.6 1976.6 1655.8 2020.2 1652.8 2044.3 1649.8 2080 1642 2114.4 1634.2 2140.6 1622.6 2187 1617 2215 1615.2 2239.9 1612.2 2255.4 1603.6 2291.5 1590.6 2324.6 1588.5 2331.9 1588.4 2331.9 1470.1 2316.9 1407.4 2310.9 1296.9 2301.8 1300.8 2255.4 1303.4 2236.9 1311.1 2212.4 1296.5 2208.5 1188.1 2193 1091.8 2179.7 1096.1 2149.2 1100 2113 1100.8 2088.5 1099.6 2073.5 1099.6 2060.2 1097 2052.4 1043 2041.2 1003.3 2033 960.1 2022.7 889.3 2016.2 885.8 1989.2 882 1953.9 877.6 1926.8 876.4 1905.8 878.1 1880.8 879 1850.7 882.4 1828.8 885.9 1808.6 887.6 1777.2 892.8 1750.7 892.8 1750.6 918.3 1738.3 936 1731.4 960.5 1724.2 971.9 1720 985 1715.2 996.4 1706.3 1006.8 1697.4 1020.6 1681.2 1029.2 1656.8 1037.5 1636.5 1044.1 1620.3 1055.3 1600.8 1058.3 1595.6 1070.5 1597.5 1126.1 1609.6 1160.7 1618.2 1201.4 1635.7 1256.7 1723.1 1308.1 1694.5 1319.5 1625.1 1321.3 1598.9 1333 1569 1477.8 1484.3 1477.7 1484.2 1394.2 1346.1 1477.8 1484.2 1494.7 1514.1 1503.3 1535 1504.9 1564.6 1499.5 1622.1 1547.6 1631.2 1672.2 1648.4 1647.4 1798.9 1646.9 1835.4 Z" data-holc_grade="B"/>
<path d="M 2856.3 784.7 2843 782.9 2738.4 769.5 2713.6 766.3 2658 764.7 2611.6 760.5 2566.9 751.4 2525.9 749.8 2482.7 744.4 2467.6 741.2 2434.2 743.4 2493.4 582.3 2505.2 540.4 2540.8 460.9 2427.5 419.1 2511.6 284.8 2521.8 259 2528.8 245.6 2564.4 204.2 2608.6 159.1 2622.6 136.6 2655.4 83.4 2666.7 71.6 2675.4 68.9 2677.5 105.9 2680.8 127.4 2683.3 135 2694.3 142.9 2702.9 145.6 2748.7 71 2768.1 35 2782.1 15.7 2790.3 5.8 2803.9 1 2896.1 49.4 2940.7 74.1 2956.3 97.7 2971.4 142.2 2990.9 201.2 2999 236.7 2998.5 250.1 2995.8 266.7 2984.5 324.7 2979.7 348.4 2977.5 373.1 2978.1 413.9 2977.1 461.1 2973.9 512.1 2973.4 541.1 2970.7 570.1 2967.5 601.3 2965.9 627 2967 653.3 2967.5 674.8 2967 708.7 2966.5 747.3 2967.1 776.3 2966.6 784.4 2956.3 798.4 2856.3 784.7 Z" data-holc_grade="B"/>
</g>
<g id="C">
<path d="M 1058.3 1595.6 1071.1 1574.5 1103.9 1529.4 1176.5 1466.9 1219.5 1430.1 1219.5 1430.7 1214.1 1502.2 1257.6 1578 1333 1532.6 1278.9 1441.1 1238.7 1414.5 1266.7 1390.9 1282.6 1375.1 1333.4 1364.4 1394.2 1346.1 1477.7 1484.2 1477.8 1484.3 1333 1569 1321.3 1598.9 1319.5 1625.1 1308.1 1694.5 1256.7 1723.1 1201.4 1635.7 1160.7 1618.2 1126.1 1609.6 1070.5 1597.5 1058.3 1595.6 Z" data-holc_grade="C"/>
<path d="M 2154.7 1878.4 2158.6 1888 2160.3 1899.1 2156 1921.9 2155.6 1949.9 2169.4 2014.2 2143.5 2030.3 2117.6 2047 2150 2144.8 2183 2325.9 2181.4 2365.7 2124.4 2364.5 2077.8 2365.8 2048.9 2369.7 1996.6 2370.6 1943.9 2371 1890.8 2368.5 1840.7 2362.4 1780.2 2352.1 1724.9 2343.5 1674.8 2337.5 1636.4 2333.2 1603.1 2334.1 1588.5 2331.9 1590.6 2324.6 1603.6 2291.5 1612.2 2255.4 1615.2 2239.9 1617 2215 1622.6 2187 1634.2 2140.6 1642 2114.4 1649.8 2080 1652.8 2044.3 1655.8 2020.2 1653.6 1976.6 1652.8 1944.7 1651.9 1906.1 1649.3 1875.1 1646.9 1835.4 1702.5 1840.8 1698.2 1816.6 1711.1 1788.6 1776.4 1798.3 1795.8 1792.9 1881.1 1806.3 1879.5 1835.9 2007.4 1850.9 2014.4 1857.9 2026.3 1860.6 2100.3 1874 2119.1 1878.8 2154.7 1878.4 Z" data-holc_grade="C"/>
<path d="M 2675.4 68.9 2666.7 71.6 2655.4 83.4 2622.6 136.6 2608.6 159.1 2564.4 204.2 2528.8 245.6 2521.8 259 2511.6 284.8 2427.5 419.1 2540.8 460.9 2505.2 540.4 2493.4 582.3 2434.2 743.4 2467.6 741.2 2482.7 744.4 2525.9 749.8 2566.9 751.4 2611.6 760.5 2658 764.7 2713.6 766.3 2738.4 769.5 2843 782.9 2856.3 784.7 2850.9 847.1 2845.5 896.1 2832.1 989.1 2828.5 989.4 2819.9 991.2 2813.4 994.3 2805.4 996.6 2797.7 999 2788.6 998.5 2780.8 998.7 2749.5 992 2746.1 996.7 2739.9 997 2729.6 998.5 2723.1 1000.1 2716.9 1001.1 2709.1 1000.8 2700.8 999.8 2689.9 998.3 2679.6 998.5 2670.8 999.6 2665.1 1002.4 2663.3 1049.9 2605.5 1042.9 2544.7 1037 2365 1016.8 2377.6 910.5 2379.9 895.1 2379.9 883.2 2379.4 870.8 2377.3 861.3 2372.5 852.9 2363.9 847.7 2355.2 844.3 2343.1 841.9 2332.1 841.2 2313.1 841.9 2318.9 783.1 2321.4 772.5 2322.4 766.3 2328.6 711.3 2334.1 657.3 2341 626.4 2361.3 524.3 2243.9 512.4 2238.1 546.4 2232.6 578.4 2224.6 624.1 2220.5 655.3 2213.6 669.1 2202.6 681.8 2188.8 693.2 2178.1 701.1 2160.8 710.7 2142.9 718.3 2127.7 726.9 2109.7 732.7 2094.5 735.1 2083.5 736.2 2074.2 735.1 1981.3 721.1 1985.1 680.9 1989.9 617.3 1995.1 557.1 2011.3 453.3 2017.5 436.5 2047.5 368.5 2049.9 354 2054.4 327.9 2060.6 292.9 2067.8 254.7 2074 221.4 2103.3 166.7 2101.9 163.3 2100.9 158.8 2100.2 150.3 2101.6 139.3 2169.9 140.9 2183.7 138.9 2216.2 138.5 2238.9 138.9 2248.6 138.5 2256.5 141.6 2266.2 151.6 2265.9 191.1 2267.3 228.2 2270 257.7 2368.7 264.2 2420.9 268 2425.7 259.7 2434.3 241.2 2441.9 224.3 2447.4 214 2455.7 201.6 2465 186.2 2471.2 176.9 2476.4 163.8 2486.7 143.9 2490.2 137.7 2491.2 127.4 2493.9 117.1 2497 100.6 2500.8 86.9 2504.3 78.9 2511.5 65.9 2518.1 55.2 2523.6 47 2532.5 38 2540.8 32.5 2549.8 28.1 2560.5 22.9 2568.1 19.8 2576.4 19.1 2584.6 19.8 2589.8 21.5 2612.9 30.4 2639.9 40.4 2655.7 46.6 2667.5 51.7 2672 56.5 2675.4 68.9 Z" data-holc_grade="C"/>
</g>
<g id="D">
<path d="M 1677.9 1218.6 1667.6 1223.8 1601.3 1258.9 1527.1 1302.6 1481.5 1319.8 1394.2 1346.1 1333.4 1364.4 1282.6 1375.1 1266.7 1390.9 1238.7 1414.5 1219.5 1430.7 1219.5 1430.1 1176.5 1466.9 1103.9 1529.4 1071.1 1574.5 1058.3 1595.6 1055.3 1600.8 1044.1 1620.3 1037.5 1636.5 1029.2 1656.8 1020.6 1681.2 1006.8 1697.4 996.4 1706.3 985 1715.2 971.9 1720 960.5 1724.2 936 1731.4 918.3 1738.3 892.8 1750.6 892.8 1750.7 857.6 1763 823.8 1776.4 797.2 1786.7 765.4 1797.3 723.9 1811.4 694.6 1821.4 676.6 1828.3 661.1 1835.5 648.3 1847.5 638.9 1859.5 550.9 1798.3 431.4 1701.9 394.5 1670.3 390.4 1659.3 292 1527.1 270.3 1509.3 247.5 1487.9 222.6 1473.1 199.9 1459.7 180.5 1449.7 153.6 1439.4 130.5 1431.1 95.6 1418 64.2 1408 38.3 1398.4 1 1387 35.6 1321 62.2 1264 96.5 1209.3 118.9 1168.4 135.5 1140.3 141.4 1135.8 148 1133.7 158.3 1133.1 169.4 1134.1 179 1136.5 187.7 1138.6 193.2 1140 206.7 1137.9 215.6 1136.2 223.2 1136.2 222.2 1137.9 223.9 1142 223.6 1143.8 223.6 1145.1 238.8 1139.6 253.6 1131.7 270.2 1124.5 279.9 1117.3 301.6 1088.5 317.9 1068.5 364.5 1047.9 375.2 1061 449.7 1116.7 487 1129.1 560.9 1184.9 618.9 1221 628.5 1219.6 678.3 1204.2 874.4 1141.4 857.2 1089.8 902.1 1070.2 916.6 1089.5 924.5 1101.8 930.7 1123.5 964.2 1116.6 1031.4 1105 1062.9 1097.7 1118.2 1086.1 1111.3 1053.4 1164.4 1041.4 1181.2 1035.4 1181.6 1026.8 1171.7 967.9 1148 840.3 1142.8 812 1157.5 659.5 1163 615.3 1168.5 567.2 1173.7 530.8 1174.4 526.3 1201.7 525.3 1215.8 526.3 1235.2 527.7 1258.3 521.2 1280.4 518.8 1296.9 518.4 1310.4 519.1 1325.6 521.2 1355.6 515.3 1372.9 512.9 1382.2 551.1 1429.8 548.7 1454.7 545.6 1503.3 539.8 1536.1 533.9 1556.2 531.2 1574.8 593.4 1547.5 597.5 1564.1 614 1586.2 630.8 1615.9 660.7 1661.8 709.5 1679.7 739.8 1700.5 727.4 1717.4 717.4 1732.6 705 1750.2 685.8 1759.8 669.6 1764.3 653.8 1768.8 632.9 1770.2 619.5 1783.6 619.1 1784.7 651.4 1784.7 666.1 1787.8 685 1795.1 705 1806.8 730.8 1815.1 749 1818.6 766.5 1818.9 776.1 1819.6 790.2 1818.6 808.8 1819.3 831.1 1821 845.9 1826.2 886.4 1835.5 917.7 1826.9 921.5 1828.3 924.9 1827.9 951.8 1839.3 956.9 1855.9 991.3 1887.9 1057 1742.3 1131.6 1766.6 1173.5 1677.9 1218.6 Z M 1605.1 925.4 1616.8 934 1627.6 927.4 1565 811.8 1531.5 828.8 1513.9 847.2 1605.1 925.4 Z M 1507.1 1094.1 1444.1 1127.9 1472.9 1174.8 1533.5 1139.2 1507.1 1094.1 Z" data-holc_grade="D"/>
<path d="M 2219.4 2881.2 2236.6 2689.8 2237.7 2653.8 2225.2 2573.2 2194.9 2449.6 2181.4 2365.7 2183 2325.9 2150 2144.8 2117.6 2047 2143.5 2030.3 2169.4 2014.2 2221.2 1977.7 2259.5 1847.1 2259.5 1839.5 2255.1 1836.3 2240.6 1842.8 2170.9 1841.7 2162.9 1878.3 2154.7 1878.4 2119.1 1878.8 2100.3 1874 2026.3 1860.6 2014.4 1857.9 2007.4 1850.9 1879.5 1835.9 1881.1 1806.3 1795.8 1792.9 1776.4 1798.3 1711.1 1788.6 1698.2 1816.6 1702.5 1840.8 1646.9 1835.4 1647.4 1798.9 1672.2 1648.4 1547.6 1631.2 1499.5 1622.1 1504.9 1564.6 1503.3 1535 1494.7 1514.1 1477.8 1484.2 1394.2 1346.1 1481.5 1319.8 1527.1 1302.6 1601.3 1258.9 1667.6 1223.8 1677.9 1218.6 1707.8 1278.7 1720.7 1313.6 1735.3 1343.7 1761.2 1329.7 1788.2 1399.5 1854 1428 2030.4 1329.1 2083.8 1300.1 2101.7 1311.9 2125.4 1323.2 2152.4 1333.9 2199.3 1345.2 2256.5 1352.7 2313.7 1340.8 2406 1324.1 2407.6 1367.1 2449.7 1368.2 2494.5 1364.9 2534.4 1356.3 2601.3 1352.5 2609.4 1393.9 2603.6 1516.9 2586.8 1519 2559.9 1525 2545.3 1611.5 2581 1615.8 2615 1621.1 2698.6 1628.6 2734.2 1632.8 2772.6 1633.9 2811.4 1631.2 2849.6 1631 2859 1666.1 2856.9 1716.6 2849.7 1782.7 2835.3 1895.1 2825 1987 2813.7 2100.5 2800.3 2191.3 2791 2274.9 2779 2374 2772.1 2419.7 2771 2470.2 2766.2 2508.9 2757 2560 2750.6 2604.6 2750.6 2671.3 2752.8 2726.6 2745.4 2843.3 2727 2840.6 2711.9 2842.8 2687.6 2842.8 2661.7 2847.1 2637.4 2850.9 2620.6 2853.6 2597.4 2856.9 2579.1 2862.8 2543.4 2869.8 2524 2869.8 2509.4 2866 2480.8 2858.5 2462.4 2858.5 2448.9 2857.5 2429.5 2859.6 2371.7 2864.5 2334.4 2868.3 2310.7 2871 2272.9 2874.2 2246.4 2878 2219.4 2881.2 Z" data-holc_grade="D"/>
<path d="M 2074 221.4 2067.8 254.7 2060.6 292.9 2054.4 327.9 2049.9 354 2047.5 368.5 2017.5 436.5 2011.3 453.3 1995.1 557.1 1989.9 617.3 1985.1 680.9 1981.3 721.1 2074.2 735.1 2083.5 736.2 2094.5 735.1 2109.7 732.7 2127.7 726.9 2142.9 718.3 2160.8 710.7 2178.1 701.1 2188.8 693.2 2202.6 681.8 2213.6 669.1 2220.5 655.3 2224.6 624.1 2232.6 578.4 2238.1 546.4 2243.9 512.4 2361.3 524.3 2341 626.4 2334.1 657.3 2328.6 711.3 2322.4 766.3 2321.4 772.5 2318.9 783.1 2313.1 841.9 2332.1 841.2 2343.1 841.9 2355.2 844.3 2363.9 847.7 2372.5 852.9 2377.3 861.3 2379.4 870.8 2379.9 883.2 2379.9 895.1 2377.6 910.5 2365 1016.8 2544.7 1037 2605.5 1042.9 2663.3 1049.9 2685.6 1052.3 2686.1 1054.3 2686.4 1061.6 2687.4 1067 2692.6 1072.6 2706.1 1087.8 2714.6 1099.4 2730.2 1125.5 2740.8 1146.6 2742.6 1149.2 2743.4 1152 2740 1164.9 2724 1166.5 2711.3 1168.3 2698.3 1172.2 2680.7 1175.8 2671.9 1178.4 2663.6 1179.1 2641.6 1180.4 2624.8 1180.2 2611.1 1182.3 2600.7 1183.3 2586 1188 2572.5 1191.3 2567.6 1192.9 2555.7 1194.9 2550.2 1195.7 2538.3 1200.6 2531.3 1203.7 2523.6 1205.8 2507 1214 2493 1219.5 2484.2 1223.6 2472.8 1225.9 2460.6 1230.1 2452.4 1233.2 2443.6 1237 2424.7 1240.4 2399.8 1244.8 2384.3 1249.7 2367.4 1251 2351.4 1252.8 2331.9 1253.6 2316.7 1253.6 2300.6 1255.2 2283.8 1257.7 2268.6 1263.3 2251.8 1268.5 2202.1 1272.8 2178.8 1275.4 2151.6 1277.6 2130.9 1275 2117.9 1268.1 2092.9 1249.6 2103.8 1207.8 2107.7 1190.3 2111.3 1169.9 2112.3 1148.5 2110.8 1130 2107.9 1115.3 2102.7 1099 2097.6 1084.2 2087.5 1065.1 2076.4 1043 2064.9 1019.2 2053.8 1009.7 2041.6 1002 2018.6 992.4 1999.4 985.5 1981.3 982.4 1963.4 984.2 1939.9 988.1 1926.9 993.2 1911.1 1001.2 1906.7 995.1 1895.1 973.9 1882.1 950.7 1872 925.7 1866.6 909.5 1862.7 891.4 1861.4 882.4 1858 868.5 1852.8 846.6 1849.5 832.1 1845.8 811 1844.8 799.7 1843.8 786.5 1842.2 777.5 1839.4 763.1 1839.4 753.5 1838.6 742.7 1834.8 725.7 1835.1 709.9 1836.5 691 1838.9 676.6 1841 667.6 1845.1 651.1 1846.8 639.8 1846.8 626.1 1841.6 611.6 1827.5 585.8 1820 565.9 1810.2 539.1 1803.8 513.3 1800.8 499.2 1800.6 486 1796.2 470.8 1791.5 454.3 1786.1 442.2 1770.3 413.8 1750.3 377.3 1737.4 353.8 1723.7 335.3 1709.9 323.1 1698.6 313.9 1680.4 302 1663.1 285 1645 266.7 1636.4 249.4 1610.5 222.4 1613.9 214.7 1623.2 202.8 1633.1 197.9 1642.4 194.6 1657.6 194.6 1671.1 196.9 1683 203.1 1700.9 218 1722.1 232.9 1733.7 239.9 1751.8 243.9 1783.6 245.5 1874.7 240.7 1866.1 196.6 1877.9 198.8 1920.5 203.6 1956.7 206.8 1990.1 208.4 2013.3 210 2033.2 211.6 2048.9 213.8 2074 221.4 Z" data-holc_grade="D"/>
</g>
</svg>