<?xml version="1.0"?>
<svg xmlns="http://www.w3.org/2000/svg" version="1.2" baseProfile="tiny" width="2000" height="1485" viewBox="0 0 2000 1485" stroke-linecap="round" stroke-linejoin="round">
<g id="A">
<path d="M 1254.9 418.6 1241.7 419.5 1240.9 408.6 1253.8 408 1254.9 418.6 Z" data-holc_grade="A"/>
<path d="M 395.9 482.9 392.9 540.4 383 544.9 368.2 549.9 355.4 555.1 343.6 561.4 339.1 564.4 332 568 332.1 564.4 308.6 570.2 308.1 560.1 296.4 559.7 307.6 547.9 313.3 537.1 321.5 524.5 329 514.7 337.4 507.9 351.2 497.8 358.6 493.1 367.4 488.9 375.7 486.8 386.1 485.2 395.9 482.9 Z" data-holc_grade="A"/>
<path d="M 493.2 451.2 490.8 487.4 478.7 491.6 481.5 450 493.4 448.3 493.2 451.2 Z" data-holc_grade="A"/>
<path d="M 524.7 531.5 529.5 531.7 529.2 539.3 563.1 542 565.2 542.4 569.1 544.8 570.7 546.3 571.7 548.1 572.1 553.2 573.4 583.1 578.9 591.4 573.8 600.4 571.2 601.5 569.2 603.9 565.5 607.3 563.3 609.4 561 610.7 557.5 611.3 554.9 611.8 553 612.4 550.1 613.4 529.6 612.5 526.7 610.2 524.6 608.8 521.4 607.7 518.2 606.4 515 605.6 513 604.3 510.7 602.5 507.7 599.4 506.7 596.9 506.8 593.9 507.8 588.8 508.7 585.6 508.5 582.8 507.8 580.2 506.6 578.7 504.7 576.5 504.7 573 508.8 546.5 508.9 544 506.7 539.2 504.4 533.5 503.2 528.9 524.7 531.5 Z" data-holc_grade="A"/>
<path d="M 609.6 464.6 638.5 461.1 629.3 571 628.4 590.7 599 590.2 598.6 575 609.6 464.6 Z" data-holc_grade="A"/>
<path d="M 800.8 331.3 793.7 383.9 753.3 379 754.2 377.2 755.3 374.4 755.3 372.1 755.3 369.8 754.8 368.4 766.9 274.5 767.6 273.6 806.8 277.4 800.8 331.3 Z M 806.2 260.7 770 257.2 779.5 159.8 816.9 163.6 806.2 260.7 Z" data-holc_grade="A"/>
<path d="M 1068.4 85 1059.8 88 1054.7 89.1 1050.8 89.5 996.4 112.4 971.4 113.7 925.2 107.3 923 98.2 920.4 86.1 918.7 79 913.5 66.9 911.4 60 910.5 55 910.1 50.2 911.4 44 915.9 36.6 921.9 30.1 924.5 25.8 925.6 21.9 926 17.6 925.2 11.1 923.9 5.5 962.4 1.7 970.8 1 982.4 3.2 994 6.8 1000.9 11.2 1010.1 17.4 1018.9 24.5 1026 29.1 1040.2 32.1 1048.6 32.7 1060.7 32.7 1067.6 32.7 1066.9 46.1 1065.8 61.5 1065.8 67.1 1066.9 76.2 1068.4 85 Z" data-holc_grade="A"/>
<path d="M 1376.3 302.2 1370.2 304.2 1369.2 285.3 1338.4 287 1333.5 228.6 1380.2 225.7 1384.7 294 1381.8 294.8 1377.7 297.1 1376.5 299.3 1375.8 300.3 1376.3 302.2 Z" data-holc_grade="A"/>
<path d="M 1402.6 351.1 1372.6 365 1349.7 326.1 1363.1 319.4 1376 310.1 1402.6 351.1 Z" data-holc_grade="A"/>
<path d="M 751.2 973.8 731.2 961.1 732.1 958.7 733.2 959.4 780.5 830.4 792.8 834.8 804.5 835.9 798.4 870.8 789.3 911.1 771.8 985.4 751.2 973.8 Z" data-holc_grade="A"/>
</g>
<g id="B">
<path d="M 1451.9 510.8 1428.9 511.9 1428.2 501.1 1451.2 499.5 1451.9 510.8 Z" data-holc_grade="B"/>
<path d="M 343.6 438.6 340.2 493.1 339.4 494.8 336.8 496.2 332.4 498.7 328.6 501.6 324.1 505.5 326.1 451.9 326.6 438.5 343.6 438.6 Z" data-holc_grade="B"/>
<path d="M 1184.9 482.1 1184.7 481.7 1183.1 481.7 1177.9 481.8 1162.8 459.5 1174.2 458.9 1195.2 457.8 1197 480.8 1184.9 482.1 Z" data-holc_grade="B"/>
<path d="M 1392.9 397.1 1372.6 365 1402.6 351.1 1422.9 382.3 1392.9 397.1 Z" data-holc_grade="B"/>
<path d="M 1493.7 294.6 1480.5 293 1474.9 293 1470 293.4 1461.8 294.1 1449.9 293.4 1438.7 292.9 1412.6 294.6 1397.6 297.1 1377.3 304.8 1376.3 302.2 1375.8 300.3 1376.5 299.3 1377.7 297.1 1381.8 294.8 1384.7 294 1380.2 225.7 1429.5 223 1428.6 202.9 1445.7 202.2 1447.4 221.2 1487.8 219.5 1493.7 294.6 Z" data-holc_grade="B"/>
<path d="M 1649.4 582 1642.5 605.7 1627.9 601.8 1629.6 594.5 1619.7 592.3 1624.7 575.9 1649.4 582 Z" data-holc_grade="B"/>
<path d="M 1476.9 1043.9 1481.8 1004.1 1458.4 1004.3 1458.4 992.9 1495.5 991.3 1492.2 1042.5 1476.9 1043.9 Z" data-holc_grade="B"/>
<path d="M 1052.5 1107.3 1098.9 1077.5 1124.4 1108.1 1073.1 1138.8 1052.5 1107.3 Z" data-holc_grade="B"/>
<path d="M 853 1025.6 861.6 1117.9 844.6 1118.8 838.8 1058 837.7 1047.8 834.3 1010.8 851.6 1009.9 853 1025.6 Z" data-holc_grade="B"/>
<path d="M 774 986.6 771.8 985.4 789.3 911.1 798.4 870.8 823.8 884 848 850 852.6 853.1 855.6 858.1 858.5 864.7 858.7 869.6 857.9 876.9 857.2 882.7 854 886.9 850.6 890.4 838.8 896.8 849.8 988.6 801.7 992.5 801 1003.1 774 986.6 Z" data-holc_grade="B"/>
<path d="M 711.2 910 709.3 909.1 666.9 975.1 651 965.7 729.2 857.8 703.7 840.5 668.3 810.9 679 801 753.2 858 722.6 915.4 711.2 910 Z" data-holc_grade="B"/>
<path d="M 780.5 830.4 733.2 959.4 732.1 958.7 731.2 961.1 716.8 1002.5 730.2 1005.6 733.8 995 746.7 998.6 751.2 973.8 771.8 985.4 774 986.6 765.9 1049.3 722.8 1042 694.4 1035.1 682.4 1031 666.3 1024.1 717 925.7 711.2 910 722.6 915.4 753.2 858 679 801 681.5 798.8 686.9 802.1 695.1 794.9 725.8 819.3 729.3 815.7 760.3 839.6 765.9 830.6 769.3 823.8 771.5 825 780.5 830.4 Z M 760.9 870.7 755.1 868.8 729.1 913.6 736.2 916.4 760.9 870.7 Z" data-holc_grade="B"/>
<path d="M 392.9 540.4 395.9 482.9 404.3 482.1 409.7 480.5 412.5 479.3 415.8 477.6 419.6 476.2 436.8 476.6 434.4 522.1 392.9 540.4 Z" data-holc_grade="B"/>
<path d="M 651 965.7 643.7 975.9 630 966.3 614.9 984.1 606.4 994.2 612.1 997.4 582.4 1032.9 578.1 1030.7 551.6 1064.3 545.5 1060.8 542.6 1058.7 573.6 1017.8 571.2 1015.8 602.3 976.7 594.9 973.5 613.7 950 620 954 627.1 945.3 571.7 900.5 580.7 892.1 633.9 937.5 681.8 871.5 639.7 837.1 668.3 810.9 703.7 840.5 729.2 857.8 651 965.7 Z" data-holc_grade="B"/>
<path d="M 534.7 1124.8 518.6 1113.9 535.9 1092.7 524.7 1086.7 545.5 1060.8 551.6 1064.3 578.1 1030.7 582.4 1032.9 612.1 997.4 639.2 1014.1 612 1054.9 593.9 1044.4 534.7 1124.8 Z" data-holc_grade="B"/>
<path d="M 716.1 1050.5 699.2 1097.2 717.7 1102.9 718.8 1097.7 743.7 1102.3 739 1119 755.3 1121.9 777.2 1122.5 776.1 1141.2 795.3 1144 794.5 1148.6 793.9 1160.5 773.5 1160.5 774.5 1170 744.2 1169.2 712.2 1162.6 704.5 1149.9 706.7 1140.9 690.8 1137.7 683.5 1162.7 661.1 1159.4 659.5 1167.5 650.3 1165.5 620.6 1155.6 622.8 1151.3 602.5 1143.2 613.7 1121.8 663.2 1029.2 716.1 1050.5 Z" data-holc_grade="B"/>
<path d="M 457.8 434.5 435.6 445.6 439.1 387.5 459.7 387.9 457.8 434.5 Z" data-holc_grade="B"/>
<path d="M 490.8 487.4 493.2 451.2 497.3 448.9 501.1 446.9 506.1 445.2 508.8 444.9 511.9 445 513.8 445.9 516 447.8 517 452.7 516.2 472.7 515.8 475.5 514.8 477.3 512.7 479.1 490.8 487.4 Z" data-holc_grade="B"/>
<path d="M 549.5 482.1 552.2 482.8 554 482.9 556.6 482.1 557.9 481.3 559.1 479.8 559.4 478.2 559.2 476.9 559.1 474.9 558.8 472.2 558.6 470.1 577.8 466.7 576.4 487.8 553.9 486.9 551.8 485.1 549.5 482.1 Z" data-holc_grade="B"/>
<path d="M 578.9 591.4 573.4 583.1 572.1 553.2 571.7 548.1 570.7 546.3 569.1 544.8 565.2 542.4 563.1 542 529.2 539.3 529.5 531.7 524.7 531.5 528.6 486.8 539 484.4 538.4 495 539.3 496.7 543.7 502.2 547.2 507.3 551.3 513.3 555.9 522.2 565.7 533.4 586.8 554.1 591.6 556.9 594.6 557.7 593 570.6 593.2 573.4 593.9 591.2 578.9 591.4 Z" data-holc_grade="B"/>
<path d="M 766.9 274.5 754.8 368.4 746 367.4 751.6 314.4 739.7 313.9 744.7 272.2 766.9 274.5 Z M 779.5 159.8 770 257.2 758.5 256 768.1 158.7 779.5 159.8 Z" data-holc_grade="B"/>
<path d="M 799.8 469 762.6 465.3 760.6 464.2 759.8 462.5 763.1 430.4 820.1 400.9 840.5 442.8 803.7 439.2 799.8 469 Z" data-holc_grade="B"/>
<path d="M 1004 571.1 907.4 505.1 980 511.8 983.3 515 987.1 521.6 989.2 524.7 992.4 527.2 998.5 531.5 1006.6 536.3 1011.3 539.2 1015.6 542.7 1018.2 545.2 1018.5 547.6 1018.7 550.1 1017.7 555 1014.6 559.6 1007.7 565.6 1005.3 568.6 1004 571.1 Z" data-holc_grade="B"/>
</g>
<g id="C">
<path d="M 19.3 814 46 798.3 46.4 803.1 61.4 794 60.8 788.4 77.6 778.4 77.8 783.8 98 811.5 83 819.5 96.3 835.9 52.4 861.5 21.7 820.5 19.3 814 Z" data-holc_grade="C"/>
<path d="M 738.1 576.9 754.4 622.1 770.9 670.7 786.1 682.6 771.7 693.7 712.5 645.4 720.7 637.1 711.2 629 720 621.4 728.9 629.1 743 616.5 720 598.4 700 598 701.7 574 738.1 576.9 Z" data-holc_grade="C"/>
<path d="M 975.5 632.6 1059.4 689.4 1039.4 710.8 1013.8 693.4 1024 681.6 1005.5 669 995 680.8 885.7 606.3 902.2 589 937.4 615.4 942.4 610.6 975.5 632.6 Z M 773.9 550.7 924.1 652 1078.1 756.8 1089.3 744.6 1135.9 776.1 1108.8 806.4 979 747.6 855.8 690.4 754.4 622.1 738.1 576.9 743.7 576.8 745.2 568.3 765.7 583.8 772.4 577.6 773.9 550.7 Z M 815.1 511.5 857.1 539.8 851.1 546.9 892.1 576.4 872.2 597 774.5 530.3 775 525.1 793 535.9 815.1 511.5 Z" data-holc_grade="C"/>
<path d="M 872.2 597 873.4 597.9 885.7 606.3 995 680.8 988.9 686.7 1009.1 699.8 1013.8 693.4 1039.4 710.8 1089.3 744.6 1078.1 756.8 924.1 652 773.9 550.7 774.5 530.3 872.2 597 Z" data-holc_grade="C"/>
<path d="M 907.4 505.1 1004 571.1 998.5 576.7 995.2 580 992.9 583.1 991.5 587.7 988.7 596.9 948.1 569 937.1 581.4 905.6 560 902.9 562.4 860.8 534 857.1 539.8 815.1 511.5 809.3 507.2 820.8 504.2 841.7 498.8 907.4 505.1 Z" data-holc_grade="C"/>
<path d="M 1137.9 526.7 1144.6 526 1183.1 481.7 1184.7 481.7 1184.9 482.1 1198.2 503.4 1192 507.8 1199.5 519.7 1203.3 516 1211.1 529 1179.6 561.8 1218.3 587.5 1209.4 597.2 1220.2 603.3 1194.6 630.6 1185.2 641.3 1176.6 635.8 1156.8 657.2 1110.9 626.6 1087.7 651.4 1011.2 601.7 1030.6 579.7 1020.3 573.3 992.8 604.1 988.1 600.5 988.7 596.9 991.5 587.7 992.9 583.1 995.2 580 998.5 576.7 1006.7 571.9 1016.4 563.5 1022.3 554.6 1022.6 549 1022 543.9 1020.2 540.6 1011.5 536.2 1007.5 531.1 998.6 522.7 997.3 520.8 997.6 516 1000 512.5 1004.6 506.9 1009.7 497.8 1009.4 488.7 1011 486.4 1021.2 474 1023.9 467.5 1024.2 461 1025 452.6 1037.1 456.1 1015.6 512.9 1028 521.3 1036.3 497.3 1050.3 501.5 1046.2 513.4 1051.6 514.8 1048.1 523.9 1137.9 526.7 Z M 1078.5 563.4 1040.5 550.4 1034.1 564.7 1068.7 588.3 1078.5 563.4 Z" data-holc_grade="C"/>
<path d="M 1078.5 563.4 1068.7 588.3 1034.1 564.7 1040.5 550.4 1078.5 563.4 Z" data-holc_grade="C"/>
<path d="M 1347.7 735.1 1340.5 744.8 1333.6 740.2 1294.6 714.3 1302.3 705.6 1303.9 706.7 1347.7 735.1 Z M 1290.6 696.4 1281.6 705.7 1238.3 677.1 1247.4 667.1 1290.6 696.4 Z M 1230.7 654.3 1222.2 665.1 1185.2 641.3 1194.6 630.6 1230.7 654.3 Z" data-holc_grade="C"/>
<path d="M 1162.8 459.5 1177.9 481.8 1183.1 481.7 1144.6 526 1137.9 526.7 1147.3 485.2 1058.9 481.7 1069.1 453.1 1159.9 455.3 1162.8 459.5 Z M 1256.8 452.8 1207.6 511.1 1201.3 500.8 1198.2 503.4 1184.9 482.1 1197 480.8 1195.2 457.8 1174.2 458.9 1173.1 451.8 1199.7 431.8 1211.7 436.2 1256.8 452.8 Z" data-holc_grade="C"/>
<path d="M 1335.5 430.1 1256.3 433.7 1256.8 452.8 1211.7 436.2 1234.4 420.8 1228 413.8 1253.8 397.2 1257.8 400.2 1308.6 369.2 1323.4 349.1 1328.4 349 1335.5 430.1 Z M 1254.9 418.6 1253.8 408 1240.9 408.6 1241.7 419.5 1254.9 418.6 Z" data-holc_grade="C"/>
<path d="M 1487.8 219.5 1447.4 221.2 1445.7 202.2 1428.6 202.9 1429.5 223 1380.2 225.7 1333.5 228.6 1330.8 181.8 1484.1 172.3 1487.8 219.5 Z" data-holc_grade="C"/>
<path d="M 1 707 84 685.7 92.2 747.8 23.8 787.5 1 707 Z" data-holc_grade="C"/>
<path d="M 1392.9 397.1 1422.9 382.3 1402.6 351.1 1376 310.1 1363.1 319.4 1349.7 326.1 1345.3 320 1358.7 307.7 1364.2 305.3 1370.2 304.2 1376.3 302.2 1377.3 304.8 1397.6 297.1 1412.6 294.6 1438.7 292.9 1449.9 293.4 1461.8 294.1 1470 293.4 1474.9 293 1480.5 293 1493.7 294.6 1498.4 366.9 1463.2 408.7 1463.9 422.3 1465.7 444.9 1467.8 479 1438.7 480.3 1430.7 476.8 1426.8 472 1425.3 468.5 1424.2 463.5 1424.2 459 1425.3 455.1 1449.4 453.4 1445.5 413.6 1394.7 416.5 1392.9 397.1 Z" data-holc_grade="C"/>
<path d="M 1450.1 666.8 1440.8 665.1 1435.3 665.3 1457.2 598.6 1451.9 510.8 1451.2 499.5 1454 499.1 1452.9 491.7 1473.8 490.5 1472.7 486.4 1508.2 483.1 1450.1 666.8 Z" data-holc_grade="C"/>
<path d="M 1687.5 589.7 1689 590.8 1690.1 593.2 1689.9 597.1 1685.1 615.2 1712.4 622.3 1699.3 665.5 1701.5 684.3 1690.3 719.9 1592.8 697.2 1606.8 650.8 1562.5 640.9 1587.2 561.7 1672.6 580.7 1670.9 585.9 1687.5 589.7 Z M 1649.4 582 1624.7 575.9 1619.7 592.3 1629.6 594.5 1627.9 601.8 1642.5 605.7 1649.4 582 Z" data-holc_grade="C"/>
<path d="M 1592.8 697.2 1690.3 719.9 1683.9 732.6 1490.7 689.1 1474.2 685.4 1445.6 678.9 1450.1 666.8 1592.8 697.2 Z" data-holc_grade="C"/>
<path d="M 1921.1 785.8 1916.9 793.8 1900.8 788 1874.8 840.6 1862.5 836 1888.4 783.2 1871.5 775.8 1711 739.9 1717.1 722.4 1730 725.3 1749.1 729.7 1763.4 733 1772.5 735.1 1778.2 716.3 1794.7 719.9 1787.9 742 1870.7 761.7 1923.8 780.7 1921.1 785.8 Z" data-holc_grade="C"/>
<path d="M 1942.8 882.9 1978.2 810.4 1999 817.7 1964.4 889.6 1942.8 882.9 Z M 1936.8 807.8 1951.6 813.4 1940.1 839.6 1936.1 848.3 1921.8 875.4 1906.9 869.8 1936.8 807.8 Z" data-holc_grade="C"/>
<path d="M 1590.6 936.8 1592.9 895 1600.5 894.3 1596.3 941.1 1639.3 943.9 1642.9 945 1638.9 1018.7 1575.3 1014.1 1576.6 985 1582.1 981 1583.8 949.2 1590.6 949.4 1590.6 936.8 Z" data-holc_grade="C"/>
<path d="M 1424.2 903 1414 890.8 1408.9 893.6 1388.7 871.3 1415.8 853.1 1407.9 845.4 1422.6 837.5 1430.5 835.6 1460.8 834.7 1460.8 836.6 1484.2 836.6 1482 857.8 1463.2 856.4 1460.2 893.2 1479.9 893.9 1477.2 920 1439 917.6 1436.6 902.3 1424.2 903 Z" data-holc_grade="C"/>
<path d="M 1468.1 1153.6 1422.8 1156.2 1419.4 1115.5 1453.8 1112.4 1447.6 1009.9 1425.6 1011.1 1424.8 998.7 1443.3 997.8 1442.5 986.1 1456.7 985 1495.7 986.8 1495.5 991.3 1458.4 992.9 1458.4 1004.3 1481.8 1004.1 1476.9 1043.9 1476.6 1057.4 1463.5 1058.4 1464 1074.2 1467.5 1074.4 1472.3 1143.4 1468.1 1153.6 Z" data-holc_grade="C"/>
<path d="M 1373.1 1297.9 1396.4 1327.4 1349 1355.3 1340.2 1344 1334.2 1346.2 1328.8 1337.6 1283.5 1285.1 1297.4 1277.4 1323.9 1311.9 1340.2 1301.8 1323.9 1279.1 1333.1 1274.8 1320 1258.2 1333.1 1250 1351.8 1271.1 1373.1 1297.9 Z" data-holc_grade="C"/>
<path d="M 151.5 566.1 203.8 567.5 203.2 592.2 198 601.9 151 601.1 151.5 566.1 Z" data-holc_grade="C"/>
<path d="M 1166.1 1386 1142.4 1344.2 1188.9 1330.5 1211.2 1318.7 1235 1352 1166.1 1386 Z" data-holc_grade="C"/>
<path d="M 1166.1 1386 1188.9 1426.2 1156.7 1435 1137.8 1386.6 1123.1 1350 1142.4 1344.2 1166.1 1386 Z" data-holc_grade="C"/>
<path d="M 1007.6 1381.6 1065.2 1366.3 1079.4 1405.7 1058.2 1410.3 1064.9 1432.3 1021.9 1442.4 1007.6 1381.6 Z" data-holc_grade="C"/>
<path d="M 927 1402.9 952.7 1396.4 964.3 1449.1 934 1452.5 927 1402.9 Z" data-holc_grade="C"/>
<path d="M 1028.6 1215.6 1014.3 1219.9 1004.9 1198.4 1018.2 1194.3 1028.6 1215.6 Z M 1198.1 1024 1176.3 1089.4 1106.7 1135.1 1050 1164.5 1017.7 1182.2 974.1 1197.1 941.6 1204.7 930.9 1171.3 925.6 1172.4 928.2 1205.2 871.4 1208.7 873 1220.1 875.4 1242.9 856.2 1244.4 852.6 1211.5 836.8 1213.1 833.3 1179 831.7 1162.7 864.4 1162.6 897.9 1162.8 924 1161.9 946.4 1155.4 953.2 1174.5 993.2 1162.4 984.8 1143.5 1039.9 1116 1047.9 1110.2 1052.5 1107.3 1073.1 1138.8 1124.4 1108.1 1098.9 1077.5 1105.8 1073.1 1136.8 1053.6 1146 1061.9 1173.6 1032.1 1177.9 1028.4 1182 1026.1 1186 1023.7 1190 1023 1196 1023.5 1198.1 1024 Z M 1095.3 1061.5 999 1117.6 939.3 1138.8 934.7 1121.1 974.7 1109.2 986.8 1103.2 991.6 1113.2 998.9 1110.4 993.5 1100.2 1068.5 1058.7 1069.9 1058 1064.5 1051 1094.3 1032.8 1090 1026.3 1097.3 1020.7 1119.6 1044.9 1116.9 1049.4 1095.3 1061.5 Z" data-holc_grade="C"/>
<path d="M 1105.8 1073.1 1098.9 1077.5 1052.5 1107.3 1047.9 1110.2 1039.9 1116 984.8 1143.5 979.6 1145.8 946.4 1155.4 924 1161.9 897.9 1162.8 864.4 1162.6 863.8 1143.9 895 1141.6 939.3 1138.8 999 1117.6 1095.3 1061.5 1105.8 1073.1 Z" data-holc_grade="C"/>
<path d="M 895 1141.6 882 1022.8 853 1025.6 851.6 1009.9 851 998.9 876.6 996.7 880.2 1015.8 883.4 1016.7 885.3 1018.8 887.4 1020.9 888.5 1023.3 889.8 1027.9 893.6 1028.9 895.8 1031.9 897.1 1033.7 899.5 1044.7 901.1 1047.3 903.3 1047.7 907.1 1047.7 926.4 1112.3 907.3 1114.4 907.6 1125.6 918.6 1124.4 934.7 1121.1 939.3 1138.8 895 1141.6 Z" data-holc_grade="C"/>
<path d="M 863.8 1143.9 861.6 1117.9 853 1025.6 882 1022.8 895 1141.6 863.8 1143.9 Z" data-holc_grade="C"/>
<path d="M 857.1 839.4 866.2 859.2 881.4 892.4 887.7 906.1 886.4 907.3 923.7 983.3 894.4 995.2 876.6 996.7 851 998.9 801 1003.1 801.7 992.5 849.8 988.6 838.8 896.8 850.6 890.4 854 886.9 857.2 882.7 857.9 876.9 858.7 869.6 858.5 864.7 855.6 858.1 852.6 853.1 848 850 823.8 884 798.4 870.8 804.5 835.9 811.4 836.2 821.5 820.2 857.1 839.4 Z M 883.6 948.7 871.5 909.6 862.9 884.2 858.1 887.7 874.7 950.2 883.6 948.7 Z" data-holc_grade="C"/>
<path d="M 823.7 767.2 813 740.7 809.6 738 827.5 717.2 864.6 742.8 840.8 775.5 823.7 767.2 Z" data-holc_grade="C"/>
<path d="M 397 750.8 410.3 752.6 395 793.4 383.3 788.1 397 750.8 Z" data-holc_grade="C"/>
<path d="M 707.5 774.9 719.3 764.5 746.3 786.1 741.3 792.8 750.6 799.9 741.3 810.9 765.9 830.6 760.3 839.6 729.3 815.7 740.5 802.7 707.5 774.9 Z" data-holc_grade="C"/>
<path d="M 686.1 702.1 701.1 707.5 716.7 713.2 739.2 724.8 703.8 757.1 694.8 765.2 653.8 730.5 661.2 723.4 643.8 709.3 652.4 701.4 661.2 708.2 671.4 697.7 686.1 702.1 Z" data-holc_grade="C"/>
<path d="M 653.8 730.5 694.8 765.2 639.8 816.1 637 813.8 599.3 783 552 745.1 564 734.5 555.4 726.7 564.1 719.4 573.5 726.9 581.5 718.8 590.9 725.8 599.1 718.5 616.9 732.1 619.9 731.1 622 732.5 630.6 724.7 646.2 737.7 653.8 730.5 Z" data-holc_grade="C"/>
<path d="M 637 813.8 620.9 829.1 623.6 831.8 588.8 863.2 561.3 840.5 578.2 824.8 564.7 814.1 599.3 783 637 813.8 Z" data-holc_grade="C"/>
<path d="M 588.8 863.2 541.3 907.7 518.5 889.4 510 895.6 533.8 915.5 512.7 935.8 493.3 920.9 504.4 910.1 494.6 902.3 561.3 840.5 588.8 863.2 Z" data-holc_grade="C"/>
<path d="M 718.1 764 719.3 764.5 707.5 774.9 703.6 772.1 677.9 795.4 681.5 798.8 679 801 668.3 810.9 639.7 837.1 580.7 892.1 571.7 900.5 505.1 962.6 489.8 976.9 487.5 959.1 512.7 935.8 533.8 915.5 538.9 919 546.3 912.7 541.3 907.7 588.8 863.2 623.6 831.8 628.5 835.4 644.8 820.6 639.8 816.1 694.8 765.2 703.8 757.1 718.1 764 Z" data-holc_grade="C"/>
<path d="M 580.7 892.1 639.7 837.1 681.8 871.5 633.9 937.5 580.7 892.1 Z M 646.9 910.7 654.4 901 661.3 892 656.6 888.1 660.2 883.6 630.2 859.4 604.6 883.6 629.1 902.9 617.2 914.9 633.4 928.2 646.9 910.7 Z" data-holc_grade="C"/>
<path d="M 571.2 1015.8 505.1 962.6 571.7 900.5 627.1 945.3 620 954 613.7 950 594.9 973.5 602.3 976.7 571.2 1015.8 Z M 563.9 982.8 594.2 956.1 591.5 953.2 595.2 949.5 568.8 928.8 555.4 940.8 564.1 948.3 559.6 951.7 564.8 956.5 548.5 970.6 538.3 979.4 554 991.6 563.9 982.8 Z" data-holc_grade="C"/>
<path d="M 571.2 1015.8 573.6 1017.8 542.6 1058.7 545.5 1060.8 524.7 1086.7 535.9 1092.7 518.6 1113.9 534.7 1124.8 517.3 1148.8 499.4 1137.3 498.1 1127.9 502.8 1124 523 1098.7 514.3 1093.2 520.9 1084.7 513.1 1080.1 519.7 1071.6 508.4 1061.5 540.2 1032.4 509.4 1007.1 517.8 1000.1 489.8 976.9 505.1 962.6 571.2 1015.8 Z" data-holc_grade="C"/>
<path d="M 666.3 1024.1 682.4 1031 694.4 1035.1 722.8 1042 765.9 1049.3 774 986.6 801 1003.1 851 998.9 851.6 1009.9 834.3 1010.8 792.9 1013 791.1 1050.1 775.3 1048.9 770.3 1049.2 767.5 1051.7 765.1 1055.1 757.7 1100.1 774.1 1101.1 775.8 1061.7 785 1061.4 786.6 1056.5 798.7 1056.9 798.1 1062.6 797.7 1067.1 791.7 1067.5 789 1101.2 796.6 1101.5 796.6 1105.3 820.1 1104 818.2 1082.5 831.4 1081.2 828.3 1059 838.8 1058 844.6 1118.8 861.6 1117.9 863.8 1143.9 794.5 1148.6 795.3 1144 776.1 1141.2 777.2 1122.5 755.3 1121.9 739 1119 743.7 1102.3 718.8 1097.7 731.7 1049.8 717.5 1046.3 716.1 1050.5 663.2 1029.2 639.2 1014.1 612.1 997.4 606.4 994.2 614.9 984.1 631.6 994.7 626.6 1001.3 666.3 1024.1 Z" data-holc_grade="C"/>
<path d="M 326.1 451.9 324.1 505.5 322.6 507.3 319.5 509.7 316 513.1 313.2 516.5 310.1 520.8 305.2 527.9 303.6 531.3 300.7 534.4 296.9 537.2 291.7 541.3 285.1 545.6 287.6 451.2 326.1 451.9 Z" data-holc_grade="C"/>
<path d="M 831.7 1162.7 793.1 1162.7 793.9 1160.5 794.5 1148.6 863.8 1143.9 864.4 1162.6 831.7 1162.7 Z" data-holc_grade="C"/>
<path d="M 793.9 1160.5 793.1 1162.7 831.7 1162.7 833.3 1179 794.1 1182.2 744.5 1180.2 737.9 1214.1 689.8 1205.8 673.5 1266.9 653.8 1262.6 649.1 1276.4 608.5 1275.7 616.9 1254.9 588 1245.7 552.5 1231.8 602.5 1143.2 622.8 1151.3 620.6 1155.6 650.3 1165.5 659.5 1167.5 661.1 1159.4 683.5 1162.7 690.8 1137.7 706.7 1140.9 704.5 1149.9 712.2 1162.6 744.2 1169.2 774.5 1170 773.5 1160.5 793.9 1160.5 Z" data-holc_grade="C"/>
<path d="M 341.7 1376.8 362.2 1340 410.3 1367.9 399.2 1385.4 391.8 1402.8 341.7 1376.8 Z M 384.3 1303.4 396.4 1285.5 405.5 1289.2 416.8 1295.8 388.1 1344.5 368.7 1330.7 375.4 1316 384.3 1303.4 Z" data-holc_grade="C"/>
<path d="M 340.2 493.1 343.6 438.6 356.3 439.1 362.5 324.3 455.2 328.5 604.5 431.4 603.4 459.6 549.1 467 527.3 443.5 519.8 438.6 514.7 437.5 503.4 435.8 500.9 435.4 494 435.1 479.4 438.2 467.1 442.3 453.1 449.8 440.2 457.5 432.6 461.7 421.6 466.1 415.2 469.1 400.1 471.9 390.2 473.3 377.3 475.2 368.7 476.6 364.9 481.5 358.7 482.6 351.4 486.4 340.2 493.1 Z M 457.8 434.5 459.7 387.9 439.1 387.5 435.6 445.6 457.8 434.5 Z" data-holc_grade="C"/>
<path d="M 594.6 557.7 591.6 556.9 586.8 554.1 565.7 533.4 555.9 522.2 551.3 513.3 547.2 507.3 543.7 502.2 539.3 496.7 538.4 495 539 484.4 528.6 486.8 529.2 480.6 545.9 474.3 548.4 480.6 549.5 482.1 551.8 485.1 553.9 486.9 576.4 487.8 577.8 466.7 603.4 465.6 594.6 557.7 Z" data-holc_grade="C"/>
<path d="M 768.1 158.7 758.5 256 770 257.2 806.2 260.7 822.6 262.3 816.3 312.5 821.6 313 819.2 333.1 800.8 331.3 806.8 277.4 767.6 273.6 766.9 274.5 744.7 272.2 739.7 313.9 751.6 314.4 746 367.4 754.8 368.4 755.3 369.8 755.3 372.1 755.3 374.4 754.2 377.2 753.3 379 707.4 373.4 719.5 232 723.1 160.3 729.8 93 761.8 96.1 759.7 115.8 772.1 117.2 769.7 139.2 768.1 158.7 Z" data-holc_grade="C"/>
<path d="M 753.3 379 793.7 383.9 825.3 387.8 826.6 390.9 826.8 393.9 826 396.9 824.2 398.8 820.1 400.9 763.1 430.4 759.8 462.5 760.6 464.2 762.6 465.3 799.8 469 797.1 493.1 810.3 494.8 820.8 504.2 809.3 507.2 775.5 517.3 777.7 494.7 789.8 496.1 783.2 489.2 754 470.5 748.4 465.3 745.5 461.3 744.4 457.5 743.9 452.3 744.2 447.4 744.8 443 746.6 437.4 748.7 434 732.9 442.1 702.2 439.8 707.4 373.4 753.3 379 Z" data-holc_grade="C"/>
</g>
<g id="D">
<path d="M 760.9 870.7 736.2 916.4 729.1 913.6 755.1 868.8 760.9 870.7 Z" data-holc_grade="D"/>
<path d="M 883.6 948.7 874.7 950.2 858.1 887.7 862.9 884.2 871.5 909.6 883.6 948.7 Z" data-holc_grade="D"/>
<path d="M 410.4 802.7 445.2 714.2 457.2 718.3 422.5 807.8 410.4 802.7 Z" data-holc_grade="D"/>
<path d="M 1333.6 740.2 1294.6 785.6 1285 779.5 1253.6 814.5 1223.8 793.6 1294.6 714.3 1333.6 740.2 Z" data-holc_grade="D"/>
<path d="M 1253.8 397.2 1228 413.8 1206.1 427.1 1136.7 403.9 1068.3 406.1 1062.9 349.5 1103.5 347.7 1084 313.7 1163.3 309.3 1154.2 317.6 1253.8 397.2 Z" data-holc_grade="D"/>
<path d="M 1314.8 265.1 1228.2 270.1 1226.3 240.4 1311.9 235.7 1314.8 265.1 Z" data-holc_grade="D"/>
<path d="M 1433.8 89.6 1476.5 87.3 1478.6 115.2 1435.5 117.5 1433.8 89.6 Z" data-holc_grade="D"/>
<path d="M 1498.4 366.9 1493.7 294.6 1549.2 291.9 1552.6 320.8 1543.9 325.2 1529.6 337.6 1501.2 364.7 1498.4 366.9 Z" data-holc_grade="D"/>
<path d="M 1463.9 422.3 1503.3 420.5 1504.9 442.8 1465.7 444.9 1463.9 422.3 Z" data-holc_grade="D"/>
<path d="M 1365.4 435.8 1390.5 434 1394.8 476.1 1368.5 477.8 1365.4 435.8 Z" data-holc_grade="D"/>
<path d="M 1297.9 467.2 1256.8 452.8 1256.3 433.7 1335.5 430.1 1336.7 448.4 1295.9 450.4 1297.9 467.2 Z" data-holc_grade="D"/>
<path d="M 1297.9 467.2 1356.9 487.9 1360.5 534.7 1371 668.4 1309.8 673 1306.8 675.7 1300.4 685.3 1290.6 696.4 1247.4 667.1 1230.7 654.3 1194.6 630.6 1220.2 603.3 1209.4 597.2 1218.3 587.5 1179.6 561.8 1211.1 529 1203.3 516 1207.6 511.1 1256.8 452.8 1297.9 467.2 Z" data-holc_grade="D"/>
<path d="M 1428.2 501.1 1428.9 511.9 1451.9 510.8 1457.2 598.6 1435.3 665.3 1371 668.4 1360.5 534.7 1364.8 527.2 1368 521.6 1373.6 514.4 1410.6 512.7 1408.4 489.6 1420.5 489.2 1420.9 501.1 1428.2 501.1 Z M 1430.8 639.4 1424.6 569.9 1403.3 571.2 1408.9 641.3 1430.8 639.4 Z" data-holc_grade="D"/>
<path d="M 653.8 730.5 646.2 737.7 630.6 724.7 622 732.5 619.9 731.1 616.9 732.1 599.1 718.5 590.9 725.8 581.5 718.8 573.5 726.9 564.1 719.4 555.4 726.7 564 734.5 552 745.1 535.7 731.5 600.3 616.1 622.7 633.6 641.4 617.6 666.9 638.9 651.4 654.1 695.9 693.1 686.1 702.1 671.4 697.7 661.2 708.2 652.4 701.4 643.8 709.3 661.2 723.4 653.8 730.5 Z" data-holc_grade="D"/>
<path d="M 1430.8 639.4 1408.9 641.3 1403.3 571.2 1424.6 569.9 1430.8 639.4 Z" data-holc_grade="D"/>
<path d="M 1490.7 689.1 1683.9 732.6 1681 737.4 1677.4 741.5 1615.1 771.7 1543.7 757 1512.9 756.3 1473.1 748.2 1490.7 689.1 Z M 1347.7 735.1 1303.9 706.7 1314.2 694.6 1320 688.8 1322.8 685.8 1332 684.1 1437 676.9 1445.6 678.9 1474.2 685.4 1455.5 746.2 1375.9 753.5 1347.7 735.1 Z" data-holc_grade="D"/>
<path d="M 1687.5 589.7 1670.9 585.9 1672.6 580.7 1587.2 561.7 1562.5 640.9 1606.8 650.8 1592.8 697.2 1450.1 666.8 1508.2 483.1 1518.9 485.9 1522.8 539 1522.6 549.2 1519.4 564.9 1538.5 569 1559.8 495 1690.4 525.4 1677.9 569.2 1678.1 572.9 1679 577.6 1681.1 582.2 1684.6 586.3 1687.5 589.7 Z" data-holc_grade="D"/>
<path d="M 1921.1 785.8 1923.8 780.7 1870.7 761.7 1787.9 742 1794.7 719.9 1778.2 716.3 1772.5 735.1 1763.4 733 1799.5 628.4 1899.3 650.6 1996.4 682.4 1943.7 793.6 1921.1 785.8 Z M 1749.1 729.7 1730 725.3 1766.3 620.9 1783.6 625.2 1749.1 729.7 Z" data-holc_grade="D"/>
<path d="M 1711 739.9 1871.5 775.8 1888.4 783.2 1862.5 836 1874.8 840.6 1900.8 788 1916.9 793.8 1884.9 860.4 1841.8 845 1819.6 829.2 1737.7 809.4 1751.4 769.5 1736.1 765.6 1724.1 803.2 1722.6 799.3 1719.8 799.1 1720.6 794.6 1720.4 792 1718.4 791.2 1716.1 790.6 1715.6 787.6 1709.8 784.6 1713.8 772.3 1700.9 768.6 1711 739.9 Z" data-holc_grade="D"/>
<path d="M 1978.2 810.4 1942.8 882.9 1930 877.5 1937.7 862 1956.1 819 1954.8 815.1 1952.9 813.9 1951.6 813.4 1936.8 807.8 1941.9 798.1 1978.2 810.4 Z" data-holc_grade="D"/>
<path d="M 1755.7 917.9 1777.3 926.7 1782.8 931.2 1787.6 935.7 1785.7 982.1 1751.3 980.8 1755.7 917.9 Z" data-holc_grade="D"/>
<path d="M 1695.3 970.9 1710.2 974.2 1716.9 977.2 1719.2 979 1719.7 981.2 1718.7 1008.6 1692.9 1008.2 1695.3 970.9 Z" data-holc_grade="D"/>
<path d="M 1545.1 1032.1 1541.3 1109.4 1527.9 1107.5 1514.5 1109.4 1518.7 1035.9 1521.9 1031.3 1545.1 1032.1 Z M 1576.6 985 1519.3 1025.7 1524 945.7 1583.8 949.2 1582.1 981 1576.6 985 Z M 1592.9 895 1590.6 936.8 1524.8 934.1 1531.4 836.4 1578.4 849 1575.9 894.7 1592.9 895 Z" data-holc_grade="D"/>
<path d="M 1388.7 871.3 1408.9 893.6 1414 890.8 1424.2 903 1414 903.7 1416.7 951.2 1428.5 950.3 1424.2 903 1436.6 902.3 1439 917.6 1477.2 920 1479.9 893.9 1460.2 893.2 1463.2 856.4 1482 857.8 1484.2 836.6 1460.8 836.6 1460.8 834.7 1460.8 828.6 1507.8 832.4 1495.7 986.8 1456.7 985 1442.5 986.1 1443.3 997.8 1424.8 998.7 1425.6 1011.1 1447.6 1009.9 1453.8 1112.4 1419.4 1115.5 1405.7 905.5 1404.3 902.5 1383.1 875.9 1388.7 871.3 Z M 1450.3 973.8 1447.1 949.3 1435 950 1437.1 974.5 1450.3 973.8 Z" data-holc_grade="D"/>
<path d="M 809.6 738 813 740.7 823.7 767.2 808.6 788.7 802.8 809.3 781.4 799.6 769.3 823.8 765.9 830.6 741.3 810.9 750.6 799.9 741.3 792.8 746.3 786.1 719.3 764.5 718.1 764 775.9 710.8 809.6 738 Z" data-holc_grade="D"/>
<path d="M 1422.8 1156.2 1468.1 1153.6 1489.6 1152.3 1494.1 1226.2 1477.9 1227.6 1472.7 1227.6 1471.1 1205.9 1425.7 1205.4 1422.8 1156.2 Z" data-holc_grade="D"/>
<path d="M 1349 1355.3 1303.6 1380.1 1263.9 1319.9 1244.3 1291.4 1252.5 1278.7 1269.4 1268.8 1283.5 1285.1 1328.8 1337.6 1334.2 1346.2 1340.2 1344 1349 1355.3 Z M 1373.1 1297.9 1351.8 1271.1 1333.1 1250 1320 1258.2 1333.1 1274.8 1323.9 1279.1 1340.2 1301.8 1323.9 1311.9 1297.4 1277.4 1282.8 1261 1327.7 1234.2 1330.8 1235.1 1333.8 1237.9 1336.1 1240.9 1338.3 1241.2 1344.1 1238.1 1349.5 1235.7 1355.5 1233.2 1359.8 1234.3 1399.8 1283.6 1373.1 1297.9 Z" data-holc_grade="D"/>
<path d="M 1123.1 1350 1137.8 1386.6 1098.3 1398.9 1084.3 1361.2 1123.1 1350 Z" data-holc_grade="D"/>
<path d="M 1217.2 968.3 1198.1 1024 1196 1023.5 1190 1023 1186 1023.7 1182 1026.1 1177.9 1028.4 1173.6 1032.1 1146 1061.9 1136.8 1053.6 1142.2 1051 1195.4 979.5 1200.5 972.5 1205.9 969 1211.6 966.6 1217.2 968.3 Z M 1119.6 1044.9 1097.3 1020.7 1120.4 988.8 1108.8 982.7 1136.8 948.7 1177.9 971.5 1119.6 1044.9 Z" data-holc_grade="D"/>
<path d="M 1015.5 881.6 1136.8 948.7 1108.8 982.7 1082 1018.1 1090 1026.3 1094.3 1032.8 1064.5 1051 1069.9 1058 1068.5 1058.7 993.5 1100.2 998.9 1110.4 991.6 1113.2 986.8 1103.2 974.7 1109.2 934.7 1121.1 918.6 1124.4 907.6 1125.6 907.3 1114.4 926.4 1112.3 907.1 1047.7 903.3 1047.7 901.1 1047.3 899.5 1044.7 897.1 1033.7 895.8 1031.9 893.6 1028.9 889.8 1027.9 888.5 1023.3 887.4 1020.9 885.3 1018.8 883.4 1016.7 880.2 1015.8 876.6 996.7 894.4 995.2 923.7 983.3 886.4 907.3 887.7 906.1 881.4 892.4 911.5 876.5 901 861.6 885.1 854.3 866.2 859.2 857.1 839.4 843.2 808.7 855.8 803.8 861.2 803.1 873.8 802.4 878.1 803.1 880 803.6 926.3 830.1 918.7 840.4 932.2 855 929.2 858.3 1001.8 899.3 1015.5 881.6 Z M 984.4 1028.2 964.7 1000.2 948.3 1008.1 960.2 1024.7 950.2 1029.3 938.6 1013 922.8 1019.8 932.7 1041 947.3 1037.4 951.6 1045.2 984.4 1028.2 Z" data-holc_grade="D"/>
<path d="M 1043.5 1248.9 1028.6 1215.6 1018.2 1194.3 1023.1 1192.9 1017.7 1182.2 1050 1164.5 1106.7 1135.1 1176.3 1089.4 1198.1 1024 1217.2 968.3 1247.9 975 1224.7 1058.2 1293.6 1072.7 1297.1 1086.6 1287.9 1118.6 1268.6 1144 1217.5 1185.4 1202.4 1192.9 1139.5 1221.1 1043.5 1248.9 Z M 1200 1117.6 1210.2 1110.2 1211.6 1102.7 1196.8 1099.7 1165.3 1121.2 1194.9 1155.9 1231.2 1129.8 1213.2 1113.4 1203 1121.4 1200 1117.6 Z" data-holc_grade="D"/>
<path d="M 941.6 1204.7 945.1 1215.5 980.6 1207.2 1004.9 1198.4 1014.3 1219.9 1028.6 1215.6 1043.5 1248.9 953.4 1259.8 858.6 1269.6 831.5 1273.4 815.4 1274.5 809.4 1274.6 804.6 1274 797.3 1273.2 790.7 1272.1 770.1 1273.1 731.2 1274.3 649.1 1276.4 653.8 1262.6 673.5 1266.9 689.8 1205.8 737.9 1214.1 744.5 1180.2 794.1 1182.2 833.3 1179 836.8 1213.1 852.6 1211.5 856.2 1244.4 875.4 1242.9 873 1220.1 929.1 1216.3 928.2 1205.2 925.6 1172.4 930.9 1171.3 941.6 1204.7 Z" data-holc_grade="D"/>
<path d="M 798.1 1062.6 828.3 1059 831.4 1081.2 818.2 1082.5 820.1 1104 796.6 1105.3 796.6 1101.5 789 1101.2 791.7 1067.5 797.7 1067.1 798.1 1062.6 Z M 775.8 1061.7 774.1 1101.1 757.7 1100.1 765.1 1055.1 767.5 1051.7 770.3 1049.2 775.3 1048.9 775.8 1061.7 Z M 837.7 1047.8 791.1 1050.1 792.9 1013 834.3 1010.8 837.7 1047.8 Z" data-holc_grade="D"/>
<path d="M 656.6 888.1 651.9 884.2 642.6 892 654.4 901 646.9 910.7 633.5 899.5 629.1 902.9 604.6 883.6 630.2 859.4 660.2 883.6 656.6 888.1 Z" data-holc_grade="D"/>
<path d="M 564.7 814.1 578.2 824.8 561.3 840.5 494.6 902.3 504.4 910.1 493.3 920.9 512.7 935.8 487.5 959.1 472.6 840.8 472.5 840.7 506.3 780.8 529.1 799.3 537.3 792.4 564.7 814.1 Z" data-holc_grade="D"/>
<path d="M 700 598 720 598.4 743 616.5 728.9 629.1 720 621.4 711.2 629 720.7 637.1 712.5 645.4 650.3 594.9 700 598 Z" data-holc_grade="D"/>
<path d="M 563.9 982.8 548.5 970.6 564.8 956.5 559.6 951.7 564.1 948.3 555.4 940.8 568.8 928.8 595.2 949.5 591.5 953.2 594.2 956.1 563.9 982.8 Z" data-holc_grade="D"/>
<path d="M 517.3 1148.8 503.7 1165.5 498.8 1161.9 499.4 1137.3 517.3 1148.8 Z M 514.3 1093.2 510.9 1091.3 504.1 1099.8 499.2 1097.3 498.1 1054 489.8 976.9 517.8 1000.1 509.4 1007.1 540.2 1032.4 508.4 1061.5 519.7 1071.6 513.1 1080.1 520.9 1084.7 514.3 1093.2 Z" data-holc_grade="D"/>
<path d="M 362.2 1340 341.7 1376.8 335.5 1388.7 335.3 1388.7 321.4 1382.4 348.5 1332.6 362.2 1340 Z M 405.5 1289.2 396.4 1285.5 384.3 1303.4 373.3 1296.9 399.6 1245.6 416.8 1269.9 405.5 1289.2 Z" data-holc_grade="D"/>
<path d="M 806.9 1482.9 781.6 1484 780.6 1442.3 806.1 1443 806.9 1482.9 Z M 757.4 1461 756.9 1481.2 652.6 1470.3 573.5 1457.2 521.9 1441.8 528.4 1422 523.3 1420.2 536.2 1394.5 551.2 1397.3 545.8 1408.5 537 1424.1 550.7 1426.9 570.8 1432.3 757.4 1461 Z" data-holc_grade="D"/>
<path d="M 855.8 690.4 979 747.6 1108.8 806.4 1095.8 820.8 1114.6 829.2 1163 847.3 1153.2 877.6 1124.3 867.1 1017.8 818.5 1027.2 808 873.6 737.5 884.7 724.4 818.5 693.8 831.2 681 855.8 690.4 Z" data-holc_grade="D"/>
<path d="M 1077.8 680.3 1072.7 685.3 1184.1 760 1176.8 768.2 1168.6 762.6 1152.6 780.6 1148.9 784.8 1135.9 776.1 1089.3 744.6 1039.4 710.8 1059.4 689.4 975.5 632.6 979.4 626.9 1077.8 680.3 Z" data-holc_grade="D"/>
<path d="M 1087.7 651.4 1108.8 666.3 1104.7 670.9 1091.2 687.6 1077.8 680.3 979.4 626.9 988.1 600.5 992.8 604.1 1020.3 573.3 1030.6 579.7 1011.2 601.7 1087.7 651.4 Z" data-holc_grade="D"/>
<path d="M 1185.2 641.3 1222.2 665.1 1173.8 718.7 1104.7 670.9 1108.8 666.3 1087.7 651.4 1110.9 626.6 1156.8 657.2 1176.6 635.8 1185.2 641.3 Z" data-holc_grade="D"/>
<path d="M 1238.3 677.1 1281.6 705.7 1240.2 753.9 1226.1 744.2 1214.5 757.5 1175.5 736.1 1184.3 725.7 1173.8 718.7 1222.2 665.1 1238.3 677.1 Z" data-holc_grade="D"/>
<path d="M 1152.6 780.6 1168.6 762.6 1176.8 768.2 1184.1 760 1202.3 773 1194.9 780.7 1206.9 789.1 1190.4 807 1152.6 780.6 Z" data-holc_grade="D"/>
<path d="M 1173.8 718.7 1184.3 725.7 1175.5 736.1 1091.2 687.6 1104.7 670.9 1173.8 718.7 Z" data-holc_grade="D"/>
<path d="M 1015.5 881.6 1001.8 899.3 929.2 858.3 932.2 855 918.7 840.4 926.3 830.1 1015.5 881.6 Z" data-holc_grade="D"/>
<path d="M 1559.8 495 1538.5 569 1519.4 564.9 1522.6 549.2 1522.8 539 1518.9 485.9 1559.8 495 Z" data-holc_grade="D"/>
</g>
</svg>