<?xml version="1.0"?>
<svg xmlns="http://www.w3.org/2000/svg" version="1.2" baseProfile="tiny" width="3000" height="3599" viewBox="0 0 3000 3599" stroke-linecap="round" stroke-linejoin="round">
<g id="A">
<path d="M 1995.4 1778.5 1996.3 1785.3 1997 1801.3 1980.1 1816.4 1970.2 1825.8 1957.3 1837.9 1954.4 1840.7 1953.5 1844.1 1947 1845.2 1941.3 1843.5 1940.4 1845.3 1941.9 1847.5 1944.1 1850.3 1941.9 1854.3 1940.4 1854.8 1936.8 1853.2 1935.9 1857.1 1936.3 1859.6 1937.3 1862 1938.2 1865.2 1937.9 1869 1940.3 1877.6 1936.9 1881.4 1935.6 1885.4 1929.3 1891.2 1924.3 1897.3 1926.5 1900.1 1931.8 1901.6 1937.3 1902.2 1940.1 1905.2 1939.6 1907.5 1937 1909.3 1932.7 1911 1927.5 1910.7 1920.9 1906.5 1910.2 1896.8 1906.1 1894.2 1903.6 1893.4 1897.8 1893.5 1895.8 1891.6 1893.5 1886.6 1893.2 1881.2 1893.1 1877.5 1891.5 1874.2 1891.1 1869.7 1890.9 1866.8 1888.9 1864.4 1884.7 1865.5 1876.7 1862.2 1873.3 1864.7 1870.6 1866.5 1865.3 1865.8 1862.7 1861.7 1862.3 1858.5 1864.6 1852.7 1869.5 1849.3 1870.7 1847 1870 1845 1865.2 1841.3 1863.7 1838.9 1863.8 1827.1 1862.6 1821.3 1859.1 1820.4 1857.4 1820.3 1853.8 1821.6 1850.1 1823.5 1846.6 1825.5 1845.8 1829.9 1841.4 1830.1 1838.5 1836.2 1839.1 1840.8 1844 1843.8 1847.3 1846.9 1849.3 1849.3 1849.4 1853.5 1847.4 1855.6 1844.3 1853.2 1843 1853.1 1842.6 1856 1842.9 1864.1 1842.8 1866.5 1842.4 1868.5 1842 1870.9 1845 1872.5 1848.9 1873.9 1851.1 1874.7 1850.4 1876.7 1848.2 1878 1839.7 1879.8 1834.3 1876 1830.7 1872.3 1829 1866.1 1828.3 1862.2 1824.6 1858 1823.8 1851 1826.6 1847 1827.8 1844.1 1826.2 1841.6 1827.1 1835.1 1828.6 1832.8 1827.1 1832.2 1824.3 1833.9 1821.4 1835.4 1821.1 1830.8 1819.4 1827.2 1817.9 1828.6 1817.1 1832.5 1817.3 1840.5 1815.4 1846.8 1811.5 1853.5 1806.1 1857.6 1802.1 1859 1794.6 1859.2 1787.3 1857.6 1779.8 1858.9 1771.3 1859.3 1768.1 1854.9 1772.8 1853.4 1780.8 1849.7 1785 1847.3 1787.1 1844.7 1790.9 1841.1 1795.2 1840.1 1801 1834 1800.1 1832.1 1798.2 1832.1 1794.8 1833.3 1789.5 1836.7 1785.8 1837.9 1781 1836.3 1780.5 1832.9 1784.6 1824.8 1784.2 1819.3 1780 1814.2 1778.5 1807.7 1775.5 1799 1790.3 1760.5 1826.6 1754.8 1847.1 1755.9 1865.3 1754.9 1869.1 1759 1884.5 1775.1 1887.9 1775.5 1932.8 1778.2 1943.6 1778.8 1960.7 1780.5 1995.4 1778.5 Z" data-holc_grade="A"/>
<path d="M 2257.5 1953 2254.8 1959.9 2244.4 1989.2 2231.2 2028.2 2231.1 2028.2 2203.5 2024.5 2176.9 2019 2159.4 2015 2142.4 2010.9 2141.1 2007.3 2141.5 2004.9 2150.3 1998.4 2155.8 1992.7 2165 1988.4 2172.9 1988 2178.2 1984.8 2176.7 1983.4 2166.1 1982.7 2161.4 1982.5 2148.5 1986.1 2141.7 1988 2137.4 1986.2 2134 1981.5 2133.2 1975.6 2126.1 1959.5 2126.1 1956.5 2129.6 1950.1 2132.5 1950.6 2135.8 1957.8 2140.8 1964.3 2143.5 1966.8 2145.2 1964.8 2144.3 1959 2140.6 1949.7 2133.8 1944.5 2131.6 1940.5 2131.1 1936.7 2134.4 1932.9 2140.5 1926.6 2145.5 1925.6 2153 1927.5 2159.6 1928.7 2164.5 1927 2168.5 1927.9 2171.5 1931.7 2175.8 1931.7 2181.6 1926.5 2198.3 1931.1 2198.9 1931.3 2204.5 1933.4 2243.4 1947.8 2257.5 1952.9 2257.5 1953 Z" data-holc_grade="A"/>
<path d="M 1397.7 2850.1 1403.2 2865.4 1407.1 2880.7 1409.6 2889.6 1405.8 2893.8 1399 2892.6 1387 2896 1378.9 2900.6 1375.9 2906.2 1373.4 2911.2 1369.5 2916.3 1416.9 2955 1401.1 2976.2 1396.4 2979.6 1387.4 2981.3 1380.6 2981.3 1369.5 2983.4 1362.3 2986 1352.9 2988.1 1347.8 2988.8 1343.9 2989.4 1334.1 2989.4 1327.3 2987.7 1323.5 2982.1 1316.2 2973.7 1309.8 2972 1301.3 2972 1294.9 2965.6 1291.9 2952.4 1291.9 2940.5 1290.2 2929.5 1289.4 2921 1287.2 2913.8 1285.1 2897.2 1284.3 2890.9 1281.3 2881.5 1287.2 2876.4 1287.7 2876 1293.6 2873 1307.3 2870.6 1307.7 2870.5 1312.4 2867.1 1316.7 2864.1 1325.2 2859 1332 2855.2 1337.1 2857.3 1344.8 2862.8 1349.2 2863.5 1350.4 2863.7 1349.2 2860.8 1346.9 2855.2 1346.7 2853.3 1345.7 2845.9 1340.6 2838.2 1339.4 2837.3 1335 2834 1334.7 2832.4 1333.7 2827.6 1335.9 2819.1 1342.7 2814 1350.8 2813.2 1356.8 2808.5 1361.3 2808.5 1366.6 2808.5 1376.8 2814.4 1386.6 2824.6 1394.3 2836.1 1397.7 2850.1 Z" data-holc_grade="A"/>
<path d="M 1209.1 412.9 1261.3 407.8 1266.6 469.3 1311 448.6 1311.2 450 1314.1 469.1 1280.7 479.7 1237.8 489 1229.6 493.8 1222.1 496 1212.9 499.1 1205.8 502.7 1195.5 507.1 1183.4 512.4 1174.2 515.1 1165 520.4 1156.1 524.3 1145.5 528.3 1112.1 528.3 1101.4 529.2 1076.2 543.8 1048.5 559.3 1024.4 516.3 1020.4 511.2 1015.2 504.4 1041.8 485.8 1076.6 462.8 1072 454.8 1052.1 467.7 1048.2 461 1043.6 463.2 1034.4 442.9 1072.4 415 1078 410.1 1082.7 407 1089.4 403.9 1100.1 395.1 1105 389.3 1111.1 386.2 1119.9 380.9 1136.3 369 1139.1 384 1140.5 398.6 1142.3 422.1 1161.1 419.9 1172.8 417.2 1192.3 414.6 1209.1 412.9 Z" data-holc_grade="A"/>
<path d="M 106.1 228 69.6 160.4 48.6 132.7 16.8 101.2 1 84.3 81 44.1 91.9 51.7 99.1 59 105.9 69.3 141.8 144.2 170.5 116.5 171.6 119.5 173.5 120.7 173.9 125 175.6 127.1 177.9 127.5 177.1 130.5 178 132.9 181 133.5 181.7 136.6 182 139.6 185.2 142.2 185.6 146.3 187.3 148.1 190 148.6 106.1 228 Z" data-holc_grade="A"/>
</g>
<g id="B">
<path d="M 2488.9 1315.5 2504.5 1299.9 2515.2 1288 2521.5 1280.8 2535.1 1265.9 2550.6 1251.1 2553.9 1242.4 2571.7 1234.7 2589.7 1248.8 2622.8 1275.9 2573 1329.5 2568.5 1334.5 2553.8 1326.2 2534.8 1322.4 2500.9 1316.6 2488.9 1315.5 Z" data-holc_grade="B"/>
<path d="M 2199.4 2302.8 2200.5 2290 2203.3 2273.7 2204.4 2268.3 2206.4 2253.1 2222.1 2253.4 2223 2208.6 2232.2 2211.3 2237.5 2212.3 2241.3 2213.3 2244.1 2216.2 2247.9 2220.2 2252 2224.3 2258 2230.3 2263.4 2236.7 2267.1 2244.1 2270.7 2254.9 2272.9 2262.5 2274.1 2269.3 2274.8 2276 2273 2282 2271.6 2285.3 2271 2289.1 2270.9 2291.9 2266.3 2292.1 2250.7 2294.2 2244.7 2293.9 2235.8 2295.3 2223.7 2297.8 2211.2 2299.5 2210.6 2299.6 2199.4 2302.8 Z" data-holc_grade="B"/>
<path d="M 1926.5 2511.8 1915.5 2504.9 1910.5 2499.9 1912.4 2496.9 1907.8 2497.6 1904.4 2495.6 1900.2 2492.7 1900.1 2492.6 1899.9 2492.4 1897.1 2488.1 1893.9 2482 1893.1 2480.7 1891.5 2478.3 1900.7 2474.9 1885 2429 1882.4 2421.3 1884.7 2419.9 1887.2 2418.3 1890.5 2417.8 1894.2 2417.4 1897 2416.9 1901.2 2417 1903.9 2417.2 1908.3 2418.6 1911.7 2420.3 1914.2 2408.6 1915.7 2402.5 1920.7 2403.8 1927.7 2406.6 1931.8 2408.1 1935.3 2410.5 1942.9 2415.2 1948.4 2418.3 1954 2421.4 1956.7 2422.9 1957.7 2425.4 1960.1 2430.8 1961.6 2435.5 1962.2 2437.6 1963.5 2444.4 1963.9 2449.4 1965.6 2456.6 1966.7 2461.4 1967.4 2467.9 1967.1 2473.4 1967.6 2475.6 1969.4 2478.2 1969.6 2478.6 1967.6 2482.7 1965.1 2487.6 1962.8 2489.9 1961.5 2489.5 1958.7 2488.8 1956 2486.1 1952.4 2484.8 1951.5 2484.5 1948.7 2485.6 1946 2489.9 1945.5 2492.6 1942.1 2493.3 1942.8 2498.5 1940.4 2502.5 1938.7 2505.3 1934.7 2511.2 1931.9 2515.3 1926.5 2511.8 Z" data-holc_grade="B"/>
<path d="M 2070 2495.5 2067.5 2504.5 2055.7 2540.8 2046.3 2561 2035.2 2585.2 2018.4 2623.1 2032.7 2631.9 2026.6 2647.6 2018.1 2662.7 2010.9 2675.4 2004.1 2672.5 1999.3 2669.3 1996.8 2666.4 1996.3 2666 1992.2 2662.7 1990.1 2659.5 1989.3 2653.2 1990.6 2647.4 1991.1 2643.8 1993 2638.6 1995.4 2633.5 1995.5 2633.2 1997.3 2629.2 1999.7 2624.5 2003.1 2618.4 2003.9 2615.3 2004.9 2613.2 2006.1 2610.7 1993.8 2606.7 1994.5 2604.8 2018 2561.9 2032.8 2532.5 2012.9 2522.6 2007.9 2520.1 2023.2 2491 2032.4 2494.8 2040.1 2478 2070 2495.5 Z" data-holc_grade="B"/>
<path d="M 1732.3 2915.3 1720.7 2915 1699.7 2914.3 1687.5 2914.1 1684.4 2922.8 1680.9 2934.3 1661.7 2924.8 1642.9 2915.3 1642.1 2902 1640.3 2890.2 1639.2 2879.1 1638.3 2873.2 1638.3 2869 1638.3 2866.6 1638.7 2861.3 1640.1 2857.3 1644.7 2853 1648.9 2850.3 1654.7 2848 1658.1 2847.9 1659.9 2850.2 1661.5 2852.1 1665.4 2851.1 1668.3 2849.6 1672.6 2846 1678.3 2839.4 1684 2832.4 1687.9 2826.4 1692.7 2817.1 1695.9 2813.4 1701.6 2807.2 1706.5 2809 1709.1 2810.8 1711.8 2819 1713.6 2823.6 1716.4 2827 1717 2831 1715 2834.2 1712.9 2836.8 1711.4 2839.5 1711.8 2841.9 1714 2841.8 1717.2 2843.4 1718.9 2844.5 1717 2851.6 1716.5 2859.2 1717.1 2863.8 1717 2867.5 1719.2 2870.7 1725.6 2876.1 1728.7 2879.1 1731 2885.4 1732.3 2891 1732.5 2898.2 1732.8 2907.7 1732.3 2915.3 Z" data-holc_grade="B"/>
<path d="M 333.7 602.4 327.9 605.1 297.2 540.9 295.8 536.7 291.2 529.9 290.5 523 289.1 519.7 287.1 512.9 285.4 508.8 284.9 503.7 283.8 498.3 283.6 497.2 280.7 491.8 280.1 490.8 280 490.3 278 484.6 275.2 478.4 273.4 473.1 271.3 466.9 269.2 462.4 267.4 458.5 264.9 451.8 262.4 445.6 254.6 433.7 254.3 428.4 249.7 421.3 245.4 411.1 242.3 400.9 241.2 392 241 387.8 240.9 383.6 242.3 377 243.7 370.8 244.8 364.2 247.6 360.2 256.5 377 282.3 430.2 300.8 466.9 315.6 497.9 330.5 528 362.6 588.6 357.7 591 333.7 602.4 Z" data-holc_grade="B"/>
<path d="M 932.8 553.9 981.5 596.9 1002.1 577.4 1023.7 560.2 1031.2 574.7 995.7 612.3 941.4 676.5 875.7 612.2 932.8 553.9 Z" data-holc_grade="B"/>
<path d="M 1311 448.6 1266.6 469.3 1261.3 407.8 1209.1 412.9 1203 344.2 1229 310.7 1247.1 286.7 1260.4 278.7 1275.4 268.1 1281.1 264 1283.7 272.1 1287.6 294.8 1295.8 341.8 1300.1 371.3 1302.6 388.3 1306.5 412.9 1311 448.6 Z" data-holc_grade="B"/>
<path d="M 2475.5 1331.6 2475.6 1334.3 2490.1 1338.7 2507.1 1344.1 2527.2 1349.7 2560.5 1357.5 2560.8 1357.6 2560.2 1362.1 2551.2 1433.8 2528.2 1427.2 2524.9 1428.5 2522.8 1431.4 2525.8 1469.6 2506.5 1473.4 2492.2 1474.1 2478.6 1474.1 2463.6 1471.4 2445.2 1468 2426.8 1462.3 2445.1 1419.2 2450.9 1404.4 2445.3 1402.4 2437.5 1401 2430.6 1401.9 2423.1 1403.8 2411.7 1406.2 2403.9 1407.1 2398.5 1404 2391.6 1398.6 2386.3 1397.6 2382.3 1394.2 2379.2 1386.5 2381.1 1378.1 2383.2 1374.8 2386.6 1372.2 2390 1371.8 2396 1371.1 2392.3 1368.3 2390.3 1365.7 2391.1 1360.7 2392.9 1356.6 2395 1352.1 2399.9 1348.1 2403.1 1345.1 2411.2 1342.7 2418.4 1339.8 2424.1 1337.6 2435.7 1334 2447.7 1332.1 2459.4 1332 2470.9 1332.3 2475.5 1331.6 Z" data-holc_grade="B"/>
<path d="M 2943 1474.8 2937.2 1490.3 2921 1530 2911.5 1553.6 2903.2 1570.1 2778.6 1499.9 2668.4 1587.6 2666.6 1565.1 2665.2 1548.8 2664.1 1535.2 2662.6 1517 2659.8 1507.8 2655.5 1480.2 2795.3 1465.9 2865.3 1493.2 2882.9 1450.6 2943 1474.8 Z" data-holc_grade="B"/>
<path d="M 2333 1879.9 2330 1888 2326.7 1886.8 2306.7 1879.6 2287.4 1872.8 2278.8 1865.4 2273.7 1855.8 2279.4 1850.7 2275.4 1848.5 2276 1843.9 2263.5 1836.6 2247.6 1834.9 2230.5 1832.1 2206.1 1829.8 2204.9 1771.6 2241.3 1778.4 2265.7 1781.2 2289 1784 2308.3 1786.2 2311.1 1788.5 2309.3 1795 2307.7 1800.4 2303.2 1813.4 2298 1829.4 2292.4 1846.2 2308.4 1854.1 2337.9 1866.5 2333 1879.9 Z" data-holc_grade="B"/>
<path d="M 2106.3 1857 2107 1862.6 2108 1865.8 2104.9 1869.8 2103.5 1871.5 2103.8 1874.9 2107.5 1877.1 2110.9 1880.5 2112.3 1885 2112.6 1889 2114.6 1893.8 2116.3 1897.5 2119.1 1900.3 2119.4 1905.1 2117.7 1909.9 2117.2 1914 2117.1 1914.7 2116.9 1915.8 2116 1919.5 2112 1918.7 2111.7 1912.8 2110 1909.9 2108 1911.3 2107.2 1916.2 2107.8 1921.5 2107.8 1924.9 2107.7 1925.5 2107.2 1928.9 2104.9 1930.9 2100.4 1930.9 2096.1 1924.4 2093.9 1919.4 2093.6 1918.7 2092.1 1912.5 2090.4 1908 2085.3 1907.1 2084.2 1909.9 2085.6 1916.2 2085 1920.7 2082.5 1923.8 2083.6 1928 2087.3 1931.4 2089 1937.1 2090.2 1942.2 2094.7 1945.6 2098.9 1947 2100.4 1947.6 2107.2 1950.9 2106.9 1954.3 2099 1954.1 2088.2 1952.1 2078.8 1946.7 2073.1 1943.3 2063.5 1937.7 2059.5 1934.3 2058.3 1926.4 2055.5 1924.4 2052.7 1926.1 2045 1925 2040.5 1920.4 2036.8 1915.9 2035.3 1911.7 2038.2 1907.7 2042.4 1905.2 2046.7 1905.2 2050.4 1904.9 2051.5 1901.5 2046.7 1898.7 2046.1 1897.4 2045 1895 2046.1 1891.9 2044.7 1889 2045.5 1886.8 2047 1886.5 2048.1 1886.2 2052.4 1887.9 2058 1886.8 2060.6 1884.5 2060.6 1880 2058.9 1878.3 2053.2 1878.9 2050.1 1878.9 2049.7 1878.4 2048.1 1876.3 2050.9 1870.7 2054.9 1866.1 2054.9 1862.2 2050.6 1861.3 2046.4 1862.7 2046.1 1867.8 2044.7 1869 2039.9 1869.8 2037 1874.3 2034.8 1880.8 2035 1888.5 2033.3 1893.9 2030.5 1899.5 2028.8 1903.8 2024.8 1901.8 2024.5 1895.8 2022 1897.3 2021.7 1901.8 2020.3 1905.7 2017.7 1908 2016.6 1911.9 2016.6 1912 2019.4 1914.5 2023.4 1918.7 2024 1923 2018 1923 2013.2 1918.7 1993 1893.9 1994.7 1888.5 2000.1 1885.9 2003.2 1881.1 2003.8 1877.2 2007.8 1874.4 2011.5 1869.5 2012 1864.5 2012 1864.4 2013.2 1857.7 2019.1 1852.6 2027.4 1851.2 2043.3 1846.3 2050.2 1843.5 2050.6 1844.2 2052.2 1846.6 2056.7 1845.5 2063.5 1848.9 2068.1 1852.3 2071.7 1856.6 2072 1857 2073.8 1859 2075.5 1859 2079.2 1858.7 2090.8 1858.1 2106.3 1857 Z" data-holc_grade="B"/>
<path d="M 1906.9 2200.2 1896.9 2200.8 1896.3 2189.7 1896.6 2184.6 1894.3 2181.5 1894.1 2181.3 1887.2 2176.4 1885.8 2172.5 1882.4 2167.1 1881.8 2164.6 1875.8 2164.6 1866.5 2165.1 1858.8 2165.7 1839.8 2166.5 1822.1 2163.7 1813.1 2162.3 1799.1 2160.1 1800.4 2156.6 1800.2 2152.1 1800.1 2146.9 1800.6 2138.8 1802.4 2123.9 1805.6 2101.1 1804.7 2096.5 1804.7 2086.4 1806.1 2077.2 1807.8 2066 1811.2 2060.4 1812.4 2055 1813 2043.6 1813.9 2036.6 1818.4 2024.6 1818.4 2020.1 1817.8 2014.3 1815.8 2007.8 1812.7 2003.3 1810.9 1995.5 1812.5 1985.4 1815.2 1980.7 1821.2 1976.1 1827.6 1969.7 1834.5 1964.6 1837 1958.1 1838.9 1953.7 1843.9 1949.2 1846.9 1947 1849.9 1946.6 1853.6 1945.9 1858.2 1946.2 1862.4 1948.9 1866.9 1954.3 1867.4 1960.7 1865.9 1964.1 1862.6 1966.5 1858.6 1966.5 1855 1964.7 1852.4 1963.4 1851.1 1965.4 1850.1 1968.3 1850 1970.9 1849.9 1973.6 1850.1 1977.8 1850.2 1980.6 1850.4 1982 1853.2 1983.7 1856.5 1985.1 1859.6 1987.1 1861.1 1988.4 1861 1992.4 1858.7 1995.7 1857.8 1997.9 1855 1999.8 1853.8 2002.7 1851.7 2003.2 1850.6 2004 1848.2 2004.3 1845.4 2006.1 1843.4 2007.2 1843.4 2008.8 1846.7 2010.1 1850.9 2012.8 1855.3 2015.9 1858.9 2014.7 1862.9 2012.5 1866.2 2010.7 1868.5 2009.8 1870.8 2009.7 1873.9 2011.9 1873.8 2015.3 1871.5 2018.1 1868 2020.3 1865.3 2022.4 1860.8 2025.4 1856.8 2026.3 1853.8 2027.6 1852 2030 1851.1 2032.1 1857.4 2032.6 1861.9 2032.7 1865.2 2033.5 1868.4 2035.8 1869.3 2040.1 1868.6 2044.4 1869.2 2048.2 1869.5 2052.9 1869.4 2057.3 1865.4 2060.8 1860 2063.1 1855.4 2063.6 1852.3 2064.8 1852.3 2068.9 1855.5 2069.8 1862.4 2071.7 1866.1 2073.5 1869.1 2076.6 1870.7 2080.4 1872.6 2086.4 1874.4 2091 1879.3 2097.9 1880.4 2102.7 1880.9 2109.8 1883.1 2111.3 1884.6 2111.1 1885.1 2108.5 1883.2 2102.9 1883.2 2099.7 1883.7 2097.4 1884.5 2097.1 1887.8 2095.6 1890 2097.4 1892.5 2098.8 1894.3 2097.4 1894.3 2096.1 1893.1 2095.4 1886.6 2094 1883.2 2091.7 1880.6 2090.4 1877.8 2088.7 1875.6 2083.9 1875.4 2079.5 1875.8 2073.5 1877.2 2068.5 1879.2 2063 1878.6 2051.9 1879.7 2047.3 1879.7 2039.4 1880.9 2035 1883.4 2031.9 1887.4 2030.7 1891.7 2032.1 1893.4 2039.3 1894.1 2043.2 1895.2 2045.9 1898 2051.4 1898.9 2047.8 1901.2 2040.9 1904.2 2038.4 1908.3 2037.6 1911.9 2036.3 1913.2 2033 1912.8 2026.6 1911.8 2019.7 1912.3 2014.6 1915.2 2010.9 1918.5 2009.5 1920.7 2009.3 1923.8 2009.1 1929.3 2011.8 1931.9 2011.5 1931.9 2008.4 1931.4 2005.4 1930.1 2002.4 1925.5 1998.7 1917.3 1995.8 1910.6 1994.1 1906.6 1991.8 1901.3 1991.2 1899.6 1990.3 1897.5 1991 1895.5 1993.3 1893.4 1994.3 1891.2 1993.2 1891.3 1990.9 1895.6 1986.4 1899.7 1982.8 1904.2 1979.9 1909.1 1978.2 1911.5 1974.6 1912.9 1973.9 1915.1 1971.8 1918.6 1969.5 1920.4 1968.4 1926.9 1966.6 1929 1965.6 1931.2 1965.7 1936.6 1966.3 1939.5 1968.2 1943.4 1972.3 1946.4 1974.2 1948.3 1975.5 1950.3 1975.5 1951.2 1972.4 1951.5 1965 1951.6 1961.3 1954 1958.4 1957.2 1956.8 1963.4 1956.4 1967.6 1960 1970.5 1961 1973.9 1963.5 1972.2 1965.7 1967.1 1966.3 1972.2 1969 1978.3 1971.9 1983.2 1973.8 1988.9 1977.2 1991.5 1980.4 1991.6 1983.6 1988.6 1987.4 1984.2 1990.4 1984.8 1993.5 1987.5 1997.1 1993.8 1997.5 2000.9 1995.8 2004.4 1993.8 2009.6 1991.8 2014.3 1991.2 2018 1991.2 2020.8 1992.1 2024.6 1995.1 2027.8 1998.7 2030.1 2005.1 2030 2009.1 2030.1 2012.8 2033.3 2016 2037.1 2018.9 2041.9 2021.2 2045.8 2020.6 2050.2 2019 2055 2017.8 2059.3 2017.7 2063.4 2018.4 2066.4 2021.3 2066.1 2024.2 2063.4 2027.8 2056.5 2032.4 2051.3 2035.7 2051.7 2039.5 2051.3 2043.1 2053.2 2047.2 2054.5 2050.9 2056.2 2056.4 2053.1 2061.7 2047.5 2063.9 2041.8 2063.2 2033.7 2060 2030 2057.8 2028.2 2056.7 2021.7 2064.5 2024.1 2066.8 2027.6 2070.5 2032.9 2077.2 2038.4 2084.8 2043.2 2092.9 2044.6 2097.7 2045 2102.8 2041.2 2104.8 2034.9 2108 2034.2 2112.2 2031.9 2116 2025.9 2116.1 2021.8 2112.3 2016.5 2111.3 2014.1 2113.3 2014.7 2115.9 2019.4 2119.5 2026.3 2122.1 1978.3 2133.3 1978.3 2144.6 1966.6 2145.1 1966.5 2133.9 1957.3 2134 1954.6 2137.7 1951.7 2143.4 1949.8 2147.3 1946 2150.5 1942.2 2152.7 1936.6 2155.3 1932.9 2156.3 1928.1 2157.5 1924.8 2159 1922.1 2160.6 1919.5 2163.3 1918.2 2166.5 1916.5 2172.8 1916.3 2179.3 1915.6 2185.7 1913.3 2192.6 1912.5 2193.5 1906.9 2200.2 Z" data-holc_grade="B"/>
<path d="M 2231.1 2028.2 2231.2 2028.2 2244.4 1989.2 2254.8 1959.9 2257.5 1953 2268.6 1957.2 2278 1960.8 2292.3 1966.1 2305 1968 2312.8 1964.2 2315.5 1962.9 2321.8 1965.2 2322.5 1965.3 2326.6 1965.7 2333.4 1962.1 2336.6 1962.1 2338.9 1964.4 2340.3 1965.7 2342.3 1968 2346.2 1967.1 2347.5 1966.5 2348.8 1965.7 2352.4 1967.3 2354.5 1968.3 2359.6 1972.2 2358.2 1975.1 2358.5 1979.3 2363.3 1982.4 2361.3 1987.5 2358.8 1994.6 2355.6 1997.7 2353.5 1998.5 2350.2 1999.7 2348 2001.6 2343.4 2000.5 2338 2000.8 2335.7 1995.2 2335.5 1994.4 2334 1989.8 2331.2 1988.4 2329.8 1991.2 2330 1991.6 2331.5 1995.2 2330.6 1997.7 2327.5 1995.2 2325.2 1991.8 2322.7 1989.2 2319.3 1988.4 2316.1 1988.4 2314.4 1990.4 2315.1 1992 2315.6 1993.5 2318.4 1996.6 2322.1 2000.3 2325.8 2004.2 2329.8 2008.4 2329.2 2014.4 2328.5 2015.4 2327.8 2016.4 2326.3 2016.7 2319 2018.1 2313 2017.2 2308.2 2020.1 2306.8 2023.2 2311.6 2024.9 2315.3 2024.9 2318.4 2026.6 2321.8 2028.8 2323.8 2032.2 2323.8 2036.2 2323.8 2041.3 2323 2045.8 2321.6 2051.2 2318.9 2055 2318.2 2056 2315.1 2058.5 2309.7 2058.5 2304 2054.3 2296 2049.8 2289.8 2045.5 2285.5 2041.6 2283.8 2037 2282.7 2033.9 2282 2029.1 2281.8 2027.4 2282.1 2022.1 2282.1 2017 2277.8 2009.9 2274.7 2011.3 2273.5 2011.9 2273.5 2013 2273.3 2017 2273.1 2017.3 2269.6 2023.8 2272.7 2030.3 2274.1 2034.2 2273.6 2037.1 2271.3 2040.7 2267 2043 2260.2 2044.7 2259.3 2045.1 2255.4 2046.7 2254.8 2047 2246.9 2051.2 2247.4 2055.2 2250.3 2060 2253.1 2062.5 2259.1 2063.1 2263.4 2065.3 2266.5 2069.6 2268.2 2070.4 2267.6 2065.9 2267 2060.5 2267 2057.7 2267.3 2054.6 2270.7 2052.6 2274.4 2052.9 2278.4 2055.2 2280.4 2056.8 2281.3 2060.2 2282.7 2064.8 2284.7 2071 2284.7 2074.1 2284.1 2077.2 2286.1 2079.8 2289.2 2080.6 2289.8 2082.9 2288.4 2086.8 2287.2 2090.5 2286.7 2094.2 2285.7 2097.6 2284.9 2101.5 2282.5 2103.2 2277.8 2103.6 2274.6 2102.2 2272.2 2098.7 2270.4 2096.5 2267.2 2094.8 2265.4 2095.5 2265.4 2100.4 2269.7 2105 2276.1 2108.5 2282.1 2113.8 2284.6 2118.1 2284.3 2122.7 2277.1 2123.4 2274 2122 2268.3 2118.1 2266.1 2112.4 2263.6 2108.9 2261.5 2104 2259.4 2103.3 2258 2106.1 2259 2109.6 2258.3 2112.4 2255.1 2112.5 2254.3 2111.6 2251.9 2109.3 2250.6 2106.7 2250.2 2105.7 2245.9 2101.9 2242.7 2101.9 2239.9 2104.3 2241.6 2109.6 2244.5 2113.5 2244.6 2114.6 2244.8 2116.7 2247.3 2120.6 2252.6 2120.9 2258.3 2122 2262.2 2125.2 2265.1 2130.5 2265.1 2135.1 2264.7 2142.9 2264.2 2144 2263 2147.1 2258 2150.6 2254.4 2151.1 2252.3 2151.3 2247.7 2150.6 2244.1 2148.5 2240.9 2149.2 2243.4 2153.8 2248.4 2158.8 2250.5 2162 2252.3 2165.5 2248.7 2171.7 2244.4 2175.1 2244.2 2175.4 2240.6 2178.9 2237.1 2183 2230 2182.5 2227.8 2180.7 2226.4 2173.6 2227.1 2168 2230.3 2162 2230.7 2159.1 2228.9 2156 2225.7 2157 2222.5 2161.6 2219.6 2162.3 2216.8 2160.2 2213.6 2154.6 2209.3 2148.9 2207.9 2143.6 2206.5 2139.7 2209.7 2133.7 2214.7 2131.9 2222.5 2130.9 2227.4 2128.7 2227.8 2124.1 2235.6 2121.7 2235.2 2112.1 2233.1 2098 2228.8 2074.6 2225.6 2047.4 2223.5 2040.7 2226.8 2032.8 2231.1 2028.2 Z" data-holc_grade="B"/>
<path d="M 2328.4 2214.3 2327 2212.4 2326.7 2205.6 2323.8 2203 2319.3 2203.3 2316.2 2207.6 2315.9 2211.2 2312.2 2212.1 2309.9 2215.5 2310.2 2219.2 2305.9 2219.5 2301.1 2218.6 2297.4 2220.3 2293.7 2220.6 2288.3 2218.3 2286.9 2214.1 2284.6 2208.4 2285.5 2206.2 2292.6 2204.8 2298.3 2203.6 2301.4 2201.6 2301.4 2198.2 2307.3 2194.8 2311.6 2192.6 2315.6 2192.9 2319.8 2192 2321 2189.7 2317.6 2188.3 2314.2 2187.8 2307.3 2187.8 2303.9 2190.3 2297.4 2192 2294 2188.9 2290.3 2183 2292 2175.3 2296.5 2172.2 2302.2 2170.2 2305.9 2170.2 2311 2169.7 2312.7 2168.3 2311.9 2165.4 2320.1 2165.1 2320.1 2161.2 2318.1 2157.2 2314.7 2153 2312.1 2151.6 2311 2148.7 2312.7 2144.2 2317 2143.1 2322.1 2143.1 2325.8 2144.2 2331.7 2145.6 2338.8 2145.9 2342 2145 2344.8 2142.8 2345.4 2139.1 2343.4 2137.4 2339.7 2136 2339.4 2134.3 2342.8 2132.9 2344.8 2134 2347.1 2132.9 2346.8 2131.2 2344.8 2130.6 2341.1 2130 2341.1 2128.1 2341.1 2123 2340 2121 2337.1 2120.4 2334.3 2123.3 2331.7 2124.1 2330.9 2126.1 2327.7 2124.4 2329.4 2119.9 2329.4 2116.5 2327.2 2118.7 2326 2119.3 2324 2117 2324 2111.1 2324.3 2107.1 2323.2 2102.6 2320.1 2099.8 2319.2 2095.6 2320.3 2091.9 2322.6 2089 2325.7 2091.3 2328.6 2093.6 2332 2095.8 2334.8 2097.8 2337.4 2098.4 2339.4 2097 2343.1 2093.3 2344.5 2089.3 2345.3 2085.4 2345.3 2083.4 2347 2080.8 2350.2 2078.6 2351 2075.2 2349.6 2070.9 2350.3 2068.3 2352.5 2067 2354.7 2066.9 2356.9 2063.3 2358.9 2061.1 2361.6 2058.9 2364 2060.1 2367.2 2061.8 2368.7 2063.8 2369 2066.4 2367.6 2069.1 2367 2070.8 2367 2073.2 2368 2075.5 2370 2075.8 2371.9 2074.9 2375.1 2073.6 2377.8 2074.2 2377.3 2076.8 2375.5 2079 2374 2081.3 2373 2084.5 2372 2088.8 2371.6 2093.4 2370.7 2097.1 2370.7 2099 2373.6 2100 2375.6 2101.5 2376.3 2103.9 2375 2106.3 2373.3 2107.9 2375 2108.7 2377.4 2108.9 2378.8 2110.3 2378.6 2113.4 2376.7 2114.9 2376.1 2117.5 2377.3 2119.7 2378.6 2121.4 2379.3 2123.8 2378.1 2127.1 2377.4 2129.1 2376.4 2132.5 2372.8 2141.8 2370.2 2142.3 2368.4 2141.5 2359 2139.5 2353.2 2138.1 2351.2 2140 2348.4 2144.2 2344.7 2148.1 2342 2152.5 2338.9 2158.2 2337.2 2161 2336.4 2165.1 2335.8 2169.2 2335 2174.2 2335 2177.6 2334.9 2182.1 2335 2187.4 2336.4 2192 2337 2197.1 2337.2 2201.3 2337.2 2205.5 2336.2 2210.1 2334.4 2212.3 2331 2214.3 2328.4 2214.3 Z" data-holc_grade="B"/>
<path d="M 2164.8 2199.7 2137.4 2193.8 2134.7 2193.2 2119.9 2189.2 2089.3 2297.9 2081.3 2296.1 2070.5 2293.5 2059.8 2290.9 2058 2290.4 2058.9 2285.6 2059.7 2279.4 2059.7 2275.1 2059.4 2268.6 2060 2264.4 2062 2257 2062 2253.7 2062 2250.5 2063.4 2241.5 2065.4 2235.3 2067.6 2227.3 2068.5 2225.5 2069.6 2223.1 2071 2221.6 2072.2 2220.3 2076.4 2217.7 2081.3 2212.6 2085 2209.8 2087.8 2203.6 2087.5 2199.9 2085.8 2195.1 2085.8 2188.9 2086.9 2182.9 2088.4 2178.7 2090.1 2171.6 2091.5 2165.4 2096 2165.4 2099.9 2166.1 2103.5 2167 2106 2167.6 2111.4 2165.9 2113 2164.6 2116.3 2162.5 2120.6 2159.2 2127.2 2155.5 2133.7 2154.8 2138.2 2154.8 2141.9 2154.7 2144.1 2155.4 2146.9 2156.6 2148.4 2157.3 2151.5 2159.2 2155.8 2162 2159.2 2164.7 2161.4 2167.7 2163.1 2171.3 2165.6 2181.7 2168.5 2183.7 2164.8 2199.7 Z" data-holc_grade="B"/>
</g>
<g id="C">
<path d="M 2424 1190.2 2413.2 1181.4 2416.3 1176.3 2420.3 1165.3 2418.6 1161.5 2419.1 1144.9 2417.4 1137.4 2414.6 1132.8 2404.9 1129.4 2391.7 1119.4 2384.5 1107.2 2378.5 1098.6 2374.4 1091.6 2369.7 1088.4 2362.5 1087.3 2355.4 1088.7 2346.5 1091.8 2339 1090.9 2328.6 1087.9 2326.1 1083.7 2322 1078 2318.3 1072.8 2314.5 1070.1 2307.7 1072.5 2295.6 1077.5 2286.7 1078.6 2278.3 1077.8 2266.8 1072.9 2245.7 1064.1 2234.8 1061.4 2221.9 1061.4 2200.8 1060 2187.1 1059.4 2170.4 1060 2170.1 1060 2152.4 1062.8 2140.8 1070.2 2122.4 1077 2118.9 1078.4 2112.2 1081.1 2104.9 1078.7 2099.2 1074.9 2089.7 1071.9 2083.1 1066.3 2079.4 1059 2075.8 1057 2072.4 1059.7 2069.5 1059.7 2066 1055.9 2060.1 1057 2055.4 1054.5 2052 1049.8 2048.1 1046.4 2043.6 1041.4 2038.2 1038.3 2033.1 1035.2 2030.8 1034.3 2027.2 1034.3 2023.5 1037.4 2020.3 1042.8 2020.1 1047.3 2018.1 1053.3 2015.2 1058.6 2015.4 1063.1 2012.7 1068.8 2010.4 1074.2 2007.3 1077.8 2004.3 1069.3 2005.1 1056.9 2009 1044.8 2010.7 1031.2 2014.1 1021.9 2019.2 1007.5 2019.8 999.5 2023.5 991.4 2032.1 988.9 2042.2 988 2045.5 989.6 2054.1 993.9 2065.2 997.3 2073.8 998.5 2084.3 1000.2 2088.9 1000.8 2100.9 1001.9 2114.4 1002.4 2126.5 1002.3 2137.6 1002.3 2142 1002 2147.5 1001.9 2166.6 1000 2178.4 998.9 2192.9 997.2 2199.5 996.8 2205.7 996.3 2219.2 997.4 2231.4 999.1 2250.1 1002.4 2267.1 1006.9 2282.1 1013.1 2297.1 1019.8 2310.6 1025.8 2321.3 1030.6 2338.4 1041.2 2356.2 1051.1 2365.1 1055.3 2377.2 1062.2 2385.9 1067.6 2396.6 1076.9 2412.8 1087.3 2424.7 1098.7 2442.2 1110.9 2456.9 1122.4 2472.4 1132 2453.8 1156.3 2424 1190.2 Z" data-holc_grade="C"/>
<path d="M 2199.4 2302.8 2199.5 2344.4 2201.8 2353.2 2203.9 2364.6 2213.1 2410.1 2221.4 2409.5 2232.9 2406.1 2251.1 2402 2254.6 2401.1 2254.2 2395.6 2261.7 2391.8 2266.9 2388.5 2272.2 2385.8 2278.3 2385.1 2284.8 2388 2288.9 2391.8 2291.4 2395.1 2294 2398.4 2298.6 2406 2302.7 2412.3 2311 2424.4 2313.2 2430.5 2312.7 2435 2311.1 2439.9 2308.1 2442.7 2304.1 2442.7 2299.3 2441.7 2293.5 2441.7 2285.5 2444.2 2274.6 2453.3 2272.1 2457.3 2269.8 2461.5 2268.9 2464.9 2259.8 2467.1 2252.3 2468.4 2246 2470.6 2237.8 2472.1 2233.4 2473.2 2228.3 2474.3 2209.5 2467.2 2182.9 2457 2141.1 2441.4 2042.5 2406 2047.8 2368.4 2047.9 2363.2 2047.2 2351.9 2047.5 2333.7 2048.3 2303.6 2048.5 2293.9 2048.6 2287.9 2058 2290.4 2059.8 2290.9 2070.5 2293.5 2081.3 2296.1 2089.3 2297.9 2128.5 2306.8 2152.1 2304.6 2153.6 2304.5 2184.3 2301.4 2184.7 2284.9 2191.2 2277 2191.5 2275.2 2197.6 2217.5 2209.5 2218.4 2206.5 2252.3 2206.4 2253.1 2204.4 2268.3 2203.3 2273.7 2200.5 2290 2199.4 2302.8 Z" data-holc_grade="C"/>
<path d="M 2426.9 2320 2423.7 2328.9 2419.9 2339.8 2399.2 2401.4 2397.5 2405.1 2396 2406.3 2394.1 2407.5 2388.7 2407 2383.4 2405.6 2379.1 2404.3 2374.8 2403 2370.3 2401.7 2365.7 2400.5 2361.3 2399.5 2357 2398.4 2355.8 2398.5 2354.8 2399 2354.2 2399.8 2353.1 2402 2351.9 2403.7 2348.5 2407 2345.1 2409.2 2340.2 2410.5 2336.2 2411 2332.9 2411.1 2331.4 2410.9 2329.5 2410.7 2325.2 2410.6 2319.9 2409 2314.8 2405.2 2314.5 2400.6 2318.5 2395.6 2321.9 2389.9 2318.4 2392.4 2312.8 2394.4 2309.9 2393.1 2307.7 2386.9 2304.4 2382.9 2305 2378.8 2306.3 2377 2309.8 2374.8 2309.7 2363.4 2310.6 2357.4 2314.9 2355.3 2321.5 2357.7 2323.3 2356 2323.3 2351.9 2319.9 2345.8 2319.5 2341.4 2323.7 2331.9 2327.9 2326.5 2334.8 2325.1 2348 2323.5 2356.5 2321.2 2355 2317.2 2352.9 2315.5 2348.9 2314.3 2341.3 2313.4 2333.7 2313.6 2321 2314 2316.7 2311.4 2313.9 2307.7 2313.2 2296.1 2319 2288 2332.6 2277.6 2349.4 2270.3 2383.8 2279.3 2431 2288.7 2434.4 2293.4 2427.6 2317.9 2426.9 2320 Z" data-holc_grade="C"/>
<path d="M 2557.5 2341.8 2559.1 2350.2 2563.6 2373.1 2604.5 2577.4 2521.3 2632.2 2515.9 2629 2511.7 2621.2 2514.4 2613.7 2514.4 2605.4 2511.6 2603.5 2509.9 2595.9 2508.3 2588 2506.3 2580.1 2512.8 2576.9 2516.8 2581.1 2521.9 2583.3 2526.7 2588.7 2532.8 2592.1 2533 2590.5 2528.6 2587.6 2525.6 2582.4 2526 2577.5 2520.4 2576.4 2511 2573.1 2504.5 2568.2 2496.7 2559.5 2488.8 2551.8 2483 2543.9 2484.9 2537.4 2489.8 2534.4 2496 2533.7 2501.4 2535.8 2506.9 2537.2 2513 2536.8 2512.7 2531.9 2519.2 2531 2521.2 2534.4 2528 2537.1 2530.5 2538.2 2536.7 2538.9 2541.7 2538.4 2546.4 2541.8 2553.7 2544.7 2557.4 2544.3 2554 2541 2548.6 2535.1 2541.8 2533.5 2533.5 2531 2527.9 2527.4 2524.2 2521.8 2520.5 2521.3 2514.1 2524.4 2511.2 2525.6 2500.7 2529.9 2494 2529.6 2490.5 2529.7 2480.7 2532 2474.1 2529.7 2468.9 2526.2 2468.3 2523.3 2470 2516.4 2472.1 2509.3 2476.2 2502.5 2477.2 2497 2482 2489.7 2482.2 2486.5 2479.9 2486.8 2476.9 2490.9 2472.7 2499.1 2469.3 2505.9 2465.9 2512 2461.2 2518.1 2453.5 2522.7 2446.8 2522.6 2446.6 2522.7 2438.1 2526.6 2433.2 2517.7 2429.3 2508.4 2426.9 2502.1 2425.2 2499.4 2420.4 2495.3 2417.4 2494.9 2412.5 2496.3 2406.6 2492.3 2405.8 2483.2 2405.7 2475 2405 2473.2 2403.5 2475.6 2401.1 2482.9 2397.7 2487.6 2391.2 2490 2389.2 2489 2384.6 2486.6 2383.4 2479.5 2383.9 2474.8 2384.1 2472.7 2385.4 2465.9 2383.9 2460 2380.6 2457.8 2377.3 2461.5 2376.7 2466.2 2375.6 2472.4 2373.4 2479.9 2369.6 2480.4 2366.3 2476.4 2364.8 2470.5 2365.6 2461.4 2362.4 2457.4 2355.6 2451.3 2349 2445.9 2343.5 2442.6 2337.5 2438.7 2334.9 2433.4 2329.5 2419.1 2328.1 2412.3 2325.2 2410.6 2329.5 2410.7 2331.4 2410.9 2332.9 2411.1 2336.2 2411 2340.2 2410.5 2345.1 2409.2 2348.5 2407 2351.9 2403.7 2353.1 2402 2354.2 2399.8 2354.8 2399 2355.8 2398.5 2357 2398.4 2361.3 2399.5 2365.7 2400.5 2370.3 2401.7 2374.8 2403 2379.1 2404.3 2383.4 2405.6 2388.7 2407 2394.1 2407.5 2396 2406.3 2397.5 2405.1 2399.2 2401.4 2419.9 2339.8 2423.7 2328.9 2426.9 2320 2436.8 2323.3 2466 2332.7 2483.3 2279.3 2491.6 2278.1 2504.8 2276.2 2512.1 2286.2 2554.1 2344.2 2557.5 2341.8 Z" data-holc_grade="C"/>
<path d="M 1926.5 2511.8 1925.5 2513.7 1920.1 2523.4 1918.1 2527 1908.6 2544.3 1902.3 2552.8 1845.8 2520.3 1862.2 2487.2 1878.5 2482.7 1891.5 2478.3 1893.1 2480.7 1893.9 2482 1897.1 2488.1 1899.9 2492.4 1900.1 2492.6 1900.2 2492.7 1904.4 2495.6 1907.8 2497.6 1912.4 2496.9 1910.5 2499.9 1915.5 2504.9 1926.5 2511.8 Z" data-holc_grade="C"/>
<path d="M 2078.6 2472.3 2070.2 2494.7 2070 2495.5 2040.1 2478 2032.4 2494.8 2023.2 2491 2007.9 2520.1 2012.9 2522.6 2032.8 2532.5 2018 2561.9 1994.5 2604.8 1993.8 2606.7 2006.1 2610.7 2004.9 2613.2 2001.7 2613.8 1999.2 2614.9 1996.4 2616.9 1994.1 2619.3 1991.8 2621 1989.6 2622.6 1987.9 2624.8 1985.9 2626.5 1983.3 2629.2 1981.7 2631.4 1979.6 2633.6 1977.8 2634.7 1975.2 2634.2 1971.8 2633.5 1971.3 2633.3 1957.9 2626.4 1967.6 2607.8 1950.5 2598.7 1961.6 2578.9 1929.5 2558.3 1908.6 2544.3 1918.1 2527 1920.1 2523.4 1925.5 2513.7 1926.5 2511.8 1931.9 2515.3 1934.7 2511.2 1938.7 2505.3 1940.4 2502.5 1942.8 2498.5 1942.1 2493.3 1945.5 2492.6 1946 2489.9 1948.7 2485.6 1951.5 2484.5 1952.4 2484.8 1956 2486.1 1958.7 2488.8 1961.5 2489.5 1962.8 2489.9 1965.1 2487.6 1967.6 2482.7 1969.6 2478.6 1969.4 2478.2 1967.6 2475.6 1967.1 2473.4 1967.4 2467.9 1966.7 2461.4 1965.6 2456.6 1963.9 2449.4 1963.5 2444.4 1962.2 2437.6 1961.6 2435.5 1960.1 2430.8 1957.7 2425.4 1956.7 2422.9 1954 2421.4 1948.4 2418.3 1942.9 2415.2 1935.3 2410.5 1931.8 2408.1 1927.7 2406.6 1920.7 2403.8 1915.7 2402.5 1914.2 2408.6 1911.7 2420.3 1908.3 2418.6 1903.9 2417.2 1901.2 2417 1897 2416.9 1894.2 2417.4 1890.5 2417.8 1887.2 2418.3 1884.7 2419.9 1882.4 2421.3 1885 2429 1900.7 2474.9 1891.5 2478.3 1878.5 2482.7 1862.2 2487.2 1850.7 2427.3 1857.8 2424.2 1870 2419 1876.9 2416.2 1875.7 2414.1 1875 2413.3 1874 2412.6 1872.4 2411.8 1870.2 2410.2 1867.7 2408.4 1865.2 2405.2 1864.3 2401.6 1865.2 2398.6 1867.5 2396.8 1869.9 2396.6 1872.4 2396.6 1873.8 2395.9 1873 2394.1 1873.2 2392.4 1874.5 2391 1877 2389.7 1881 2387.1 1885.1 2384.9 1888.1 2384.6 1891.6 2383.9 1894.9 2383.6 1898.7 2383.5 1901.8 2383.8 1904.5 2384.9 1907.5 2386.4 1910.5 2389.1 1912.8 2392.2 1916.3 2394.4 1920.3 2395.2 1925.2 2395.9 1929.8 2397.4 1935.3 2399.5 1941.3 2402.5 1944.6 2404 1947.2 2405 1949.9 2406.1 1954 2407.4 1961.2 2409.9 1966.7 2411 1969.8 2412.4 1971 2412.9 1973.2 2413.9 1978.3 2416.7 1981.3 2418.6 1985.7 2420.4 1989.4 2422 1991.4 2423.2 1993.7 2424.3 1996.3 2426.7 1998.2 2428.9 1999.6 2431.7 2002.1 2432.8 2005.3 2433.9 2008.3 2434.4 2011.8 2436.1 2014.8 2437.9 2018.9 2438.3 2022 2440.2 2023.3 2441.8 2025.3 2444.7 2028.7 2447.5 2031.7 2450.1 2035.8 2453.1 2038.2 2454.7 2042.4 2456.7 2047.6 2458.4 2053 2460.7 2057.7 2462.2 2061.2 2463.5 2063.7 2465 2067.7 2467.2 2070.4 2468.5 2073.4 2470 2078.6 2472.3 Z" data-holc_grade="C"/>
<path d="M 2010.9 2675.4 2018.1 2662.7 2026.6 2647.6 2032.7 2631.9 2018.4 2623.1 2035.2 2585.2 2046.3 2561 2055.7 2540.8 2067.5 2504.5 2070 2495.5 2070.2 2494.7 2078.6 2472.3 2085 2476.7 2095.6 2481.3 2101.9 2483.9 2110.1 2484.4 2115.4 2484.8 2120.7 2486.6 2127.6 2488 2132.3 2488.9 2141.2 2492.9 2147.6 2495.1 2152 2496.2 2146.9 2512.5 2138.1 2538.3 2130.9 2560.8 2121.8 2586.4 2117.5 2597.9 2112.5 2612.6 2101.9 2611 2095.6 2610.4 2084.8 2618.3 2074.6 2625.1 2067.2 2633.6 2062.7 2641.6 2059.3 2652.9 2055.3 2660.8 2046.8 2668.7 2035.4 2673.8 2022.4 2675.5 2010.9 2675.4 Z" data-holc_grade="C"/>
<path d="M 2083.2 2715.1 2079.2 2732.3 2077.7 2731.9 2062.7 2728.4 2058.5 2727 2054.5 2727.7 2049.2 2727.6 2048.4 2720 2048.4 2713.7 2047 2707.4 2046 2697.9 2046.4 2685.9 2051.4 2684.4 2056.6 2681.9 2064 2677.2 2082.5 2665.5 2083 2669.4 2083.3 2675.5 2083.7 2679.2 2084.3 2685 2085 2692.4 2084.9 2695.5 2085.6 2701.8 2084.6 2707.4 2083.2 2715.1 Z" data-holc_grade="C"/>
<path d="M 2660.5 2832.7 2666.5 2891.2 2666.5 2905.9 2657.5 2924.3 2650.8 2914 2644.6 2904.3 2640.4 2902.5 2634 2900.8 2629.1 2902.4 2622.8 2904.2 2616.8 2900.7 2609.8 2895.6 2602.7 2894.5 2595.9 2895.1 2588.6 2898.5 2585.2 2900.3 2579.5 2902 2573.5 2904.3 2572.2 2904.8 2557.4 2902.6 2548.3 2900.3 2547 2900.2 2540.9 2899.8 2537.5 2900.9 2532.9 2901.5 2525.5 2901.5 2516.4 2898.7 2509.6 2894.7 2502.8 2890.8 2497.7 2889.1 2490.3 2891.3 2485.7 2893.6 2478.2 2893.8 2471.4 2891.7 2464.7 2887.4 2460.1 2882.9 2460.1 2877.8 2464.4 2874.1 2468.4 2872.7 2468.4 2864.7 2475 2862 2475.3 2859 2475.8 2856 2476.7 2850.4 2474.5 2850.1 2471.6 2850.7 2469.2 2850.3 2466.4 2852.3 2459.5 2851.7 2459.3 2855.1 2464.3 2856.7 2456.1 2859.7 2455 2865.3 2453.3 2868.2 2449.9 2868.2 2448.2 2863.6 2444.8 2863.1 2444.1 2865.8 2450.3 2873.4 2453.4 2877.7 2453.3 2879.5 2450.5 2879.5 2445.9 2878.4 2440.8 2875 2434 2870.4 2429.5 2865 2427.4 2862 2427.2 2860.1 2428.3 2856.9 2431 2853.2 2431.7 2852.3 2433.8 2850.2 2434.3 2846.3 2434 2843.6 2432.8 2843.3 2427.5 2846 2424.1 2848.8 2419.9 2846.7 2420.1 2839.1 2422.9 2834.2 2423.2 2832.2 2422.8 2830.9 2421.2 2831 2417.2 2838.3 2415.5 2839.3 2410.4 2836.3 2408 2831.6 2408.8 2825.4 2408.9 2820.1 2408.4 2813.5 2414.1 2812.9 2447.1 2811.4 2477.2 2809.5 2477.3 2818.8 2520.3 2818.3 2569.3 2818.9 2616.4 2820.5 2660.5 2832.7 Z" data-holc_grade="C"/>
<path d="M 2230.2 3011.9 2189.9 2999 2199.9 2969.2 2202.2 2962.3 2209 2943.3 2221.9 2947.3 2228.1 2949.4 2235.4 2951.6 2243.3 2953.6 2247.8 2957.8 2248 2963.1 2247.7 2965.7 2245.2 2971.1 2230.2 3011.9 Z" data-holc_grade="C"/>
<path d="M 2442.6 3047.8 2389 3029.7 2390.4 3026.1 2394 3024 2399.7 3022.9 2406.4 3019.7 2409.6 3012.7 2411.4 3006.6 2412.8 2999.6 2411.7 2992.1 2410.3 2987.9 2408.5 2981.5 2405.3 2973.7 2400.3 2969.2 2393.9 2960.3 2393.9 2952.9 2395.7 2947.2 2397.1 2939.8 2395.3 2931.7 2395.7 2928.8 2399.2 2930.2 2412.4 2927 2415.9 2927.4 2418.8 2932 2421.3 2936.6 2428 2939.4 2434.8 2939 2436.9 2943.6 2438.3 2951.1 2450.8 2951.8 2456.5 2951.4 2463.9 2948.2 2469.6 2947.5 2475.3 2945.4 2480.6 2945.4 2491.3 2945.7 2498.4 2945 2502.7 2943.2 2508 2942.2 2514 2941.5 2516.9 2942.9 2516.2 2946.4 2510.8 2957 2503.7 2970.1 2502.8 2972.2 2496.7 2986.1 2492.4 3001.6 2490.6 3014.7 2487.1 3016.5 2476.4 3018.3 2462.2 3021.5 2452.6 3024.5 2447.6 3026.1 2451.9 3043.1 2442.6 3047.8 Z" data-holc_grade="C"/>
<path d="M 2622.8 1275.9 2589.7 1248.8 2571.7 1234.7 2553.9 1242.4 2550.6 1251.1 2535.1 1265.9 2521.5 1280.8 2515.2 1288 2504.5 1299.9 2488.9 1315.5 2475.5 1331.6 2470.9 1332.3 2459.4 1332 2447.7 1332.1 2435.7 1334 2424.1 1337.6 2418.4 1339.8 2411.2 1342.7 2403.1 1345.1 2401.6 1333.2 2401.7 1328.9 2402.1 1325 2401.8 1318.9 2398.2 1316.3 2384.3 1323.7 2327.4 1244.5 2340.4 1239.2 2356.7 1231.1 2366 1226.5 2381.3 1218.4 2395.2 1211.4 2410.7 1196 2413.2 1181.4 2424 1190.2 2457.1 1217.2 2507.6 1157.6 2514.4 1155.4 2524.6 1159.9 2537.1 1169.5 2545.6 1176.2 2568.3 1186.1 2578.2 1195.3 2593.1 1210.1 2603.8 1221.4 2609.4 1225.4 2619.5 1227.8 2632.7 1238 2642.8 1249.2 2632.8 1258.5 2622.8 1275.9 Z" data-holc_grade="C"/>
<path d="M 2552.9 3071.2 2540.6 3065.2 2537.9 3064.1 2527.5 3059.6 2526 3056.8 2521.4 3051.1 2514.7 3048.6 2508.6 3043.7 2501.1 3040.9 2498.5 3036.1 2497.6 3034.5 2499.4 3028.5 2504.3 3024.2 2507.7 3023.4 2508.9 3023.2 2511.8 3019.3 2512.5 3009.4 2537.6 2958.1 2543.5 2953.6 2554.7 2949.9 2559.7 2948.3 2566.1 2948.2 2582.6 2950.7 2591.1 2952.5 2602.6 2963.3 2602.3 2970.8 2584.7 3002.7 2563.4 3050.7 2552.9 3071.2 Z" data-holc_grade="C"/>
<path d="M 1609.7 2777.4 1612.3 2807.2 1612.8 2812.8 1601.7 2821.4 1594 2827.4 1594.1 2828.6 1593 2829.5 1508.3 2897.1 1491.6 2897.5 1482.8 2898.1 1482.1 2891.6 1481.1 2881.7 1478.5 2856.5 1480 2856.4 1505.2 2856 1505.1 2853.8 1504.7 2822.5 1502.4 2788.4 1501.6 2784.8 1496.7 2777.2 1492 2772.8 1488.8 2766.2 1489.2 2759.5 1490.6 2752.4 1490.6 2748.5 1490.2 2746.5 1489.9 2745.4 1492 2740.4 1495 2737.8 1500.3 2735.3 1505.8 2735.7 1509.4 2736.2 1515.7 2740.2 1519.5 2741.2 1521.9 2738.8 1517 2734.3 1513.3 2731.8 1511.7 2729.5 1511.4 2727.3 1511.8 2724.4 1512.4 2721.6 1512.8 2715.9 1511.6 2709.5 1509.2 2706.9 1505.9 2705.6 1500.1 2705.3 1496 2705.1 1492.6 2705.1 1492.3 2703 1497.3 2701.4 1505.1 2699.8 1528.5 2694.6 1586.5 2693.7 1589.6 2725.1 1604.4 2725.8 1606.8 2749.6 1609.6 2776.5 1609.7 2777.4 Z" data-holc_grade="C"/>
<path d="M 1885.3 2858.6 1886.4 2880.9 1886.9 2905.7 1887.8 2933.4 1839.1 2934 1816.1 2934.1 1815.6 2930 1814.5 2926.9 1813.2 2924.8 1811.9 2922.2 1812 2918.7 1809.8 2913.1 1808 2910 1806.4 2908.3 1804 2906.6 1800.3 2904.1 1794.2 2899.4 1790.4 2895 1788.6 2892 1787 2886.6 1784.3 2882.6 1781.9 2880.2 1779.7 2880 1778.3 2880.3 1776.8 2882.9 1776 2885.2 1775.9 2888.1 1775.8 2890.3 1775.3 2893.8 1774 2894.3 1772.3 2894.7 1769.7 2894.4 1770 2898.5 1769.6 2905.6 1769.4 2907.8 1769 2914.7 1769 2920.8 1769 2928 1769 2933.1 1769 2934.3 1769 2955 1751.1 2955.6 1742.2 2955.8 1713.8 2956.6 1700.7 2957 1680.5 2957.6 1657.2 2958.2 1668.3 2944.2 1634.3 2945.9 1634.6 2937.5 1634.7 2931.9 1634.4 2926.3 1637.9 2921.2 1642.9 2915.3 1661.7 2924.8 1680.9 2934.3 1684.4 2922.8 1687.5 2914.1 1699.7 2914.3 1720.7 2915 1732.3 2915.3 1737.4 2915.3 1737.4 2911.1 1739.4 2897 1738.5 2886.5 1738.5 2882.1 1738.4 2872.3 1736 2858.6 1735.6 2847.1 1735.3 2832.1 1735.9 2824 1738 2819.2 1744.3 2812.6 1751.1 2809.5 1755 2808.3 1758.2 2805.8 1762.9 2806 1769.7 2805 1775.8 2804.1 1778.7 2804.3 1782.6 2805.7 1791.4 2813.2 1796.5 2815.4 1803.2 2816.4 1807 2815.5 1808.5 2811.7 1809.3 2809.3 1810.7 2807.8 1814.9 2805.7 1828.8 2805.4 1831 2805.1 1837.8 2804.1 1842.2 2804.4 1850.9 2805.6 1856.5 2805.4 1862.6 2804.8 1868.8 2803.9 1869.2 2806.6 1870.8 2827.6 1872.3 2846.1 1873.1 2858.7 1885.3 2858.6 Z" data-holc_grade="C"/>
<path d="M 2009.9 2931.2 1938 2932.4 1933.6 2933.1 1932 2933.3 1931.9 2913.1 1931.8 2907.3 1933.9 2904.1 1940.7 2895.1 1940.6 2885.2 1940.2 2875.3 1939.7 2862.7 1939.9 2858.3 1940.3 2855.5 1949.5 2866.4 1951.3 2868.3 1951.6 2870.1 1952.4 2884.9 1953.3 2892.2 1951.2 2895.3 1947.9 2899.2 1948.1 2901.4 1951.1 2903.1 1955.6 2903.1 1958.4 2903.1 1976.6 2902.4 1981 2902.4 1981.3 2909.5 1983 2911.1 1988 2911.3 1990.1 2908.8 1993.9 2905.1 1996.1 2903.9 2001.3 2901.2 2008.9 2901.2 2009.9 2931.2 Z" data-holc_grade="C"/>
<path d="M 1704.3 3202.5 1703.3 3200.4 1702.1 3197.8 1697.9 3192.4 1695.8 3189.6 1694.4 3187.7 1687.9 3181.5 1687.3 3163.3 1683.5 3072.7 1697.8 3067.6 1705.6 3065.2 1717.7 3061.6 1738 3057.5 1757.7 3054.3 1766.9 3053.5 1781.5 3052.7 1791.2 3052.1 1808.1 3049.8 1820.4 3043.8 1888.8 3063.7 1888.8 3066.2 1890.4 3094.5 1891.6 3123.2 1840.6 3160.7 1840.9 3201.9 1834.7 3203.6 1756.3 3223.4 1755.9 3201.3 1748.1 3203.8 1705.7 3214.4 1706 3210 1704.3 3202.5 Z" data-holc_grade="C"/>
<path d="M 2358.2 3355.1 2349.9 3360.5 2347.5 3364.7 2318 3398.3 2309.9 3398.3 2299.2 3400.4 2264.8 3410.2 2250.6 3344.9 2251.5 3338.5 2272.4 3334.6 2271 3326 2258.9 3257.3 2339.8 3246.5 2358.2 3355.1 Z" data-holc_grade="C"/>
<path d="M 2656.3 1602.5 2658 1630.9 2663.3 1664.1 2598.8 1671.2 2547.2 1680 2539.4 1588 2545.2 1588.3 2550.3 1590.8 2559.2 1595 2569 1601.4 2579.6 1608.2 2587.3 1611.8 2599.4 1616 2607.7 1616.7 2615.1 1615.7 2621.4 1615 2627.1 1611.7 2630.6 1606.7 2634 1602.1 2637.2 1598.9 2641.5 1597.1 2645.5 1598.2 2650.3 1600.3 2656.3 1602.5 Z" data-holc_grade="C"/>
<path d="M 2338.2 1708.3 2368.9 1754.1 2393.6 1755.5 2414.3 1746.2 2432.1 1741.7 2457.9 1748.3 2475 1752.6 2491.3 1756 2510.3 1758.6 2520.2 1761.3 2524.6 1763.6 2528.3 1769.6 2529.1 1774.3 2512.8 1836.3 2497.4 1894.8 2480.3 1880.2 2467.8 1868.9 2446.7 1853.2 2430.3 1839.5 2406.3 1819.2 2398.5 1813.7 2380.8 1799.9 2383.7 1772.8 2339.4 1760.4 2316.1 1753.6 2321.7 1736.1 2330.8 1721.4 2338.2 1708.3 Z" data-holc_grade="C"/>
<path d="M 2725.3 2058.2 2751.3 2158.1 2734.3 2163.2 2715.2 2167.9 2693.6 2192.3 2683.6 2203.8 2674.9 2213.8 2661.2 2229.7 2651.1 2238.3 2642.5 2245.5 2627.7 2229.7 2617.5 2214.5 2611.8 2203.7 2607.1 2178.7 2605.5 2170.3 2605.9 2169 2607.8 2163.5 2605.4 2160.1 2604.3 2158.5 2605.7 2157.1 2610 2152.8 2606.3 2151.1 2603.8 2150 2590.7 2150 2581.6 2145.5 2579.9 2137.5 2583.9 2131.3 2589.5 2124.5 2598.6 2120.6 2608.3 2123.9 2614 2119.4 2627 2118.8 2632.7 2120 2637.6 2120.8 2647.1 2124 2659.2 2124 2668.6 2122.7 2669.1 2122.8 2677.6 2123.9 2679.1 2122.8 2687.8 2116.5 2700.9 2108 2700.1 2101.4 2699.2 2090.5 2699.1 2080.3 2702 2070.1 2707.2 2063.2 2716.8 2059 2725.3 2058.2 Z" data-holc_grade="C"/>
<path d="M 2658 2361.3 2598.4 2337 2563.6 2373.1 2559.1 2350.2 2557.5 2341.8 2573.5 2326.4 2567.9 2301 2566.9 2288.3 2566.3 2283.6 2566.1 2278.4 2565.1 2271.7 2565.3 2260.9 2566.3 2255.5 2560.9 2248.9 2562.8 2245.3 2567.8 2241.5 2579.4 2242.1 2590.4 2244.1 2596.2 2246.1 2602.6 2249.5 2611.9 2250.7 2618.6 2251.3 2627.4 2255.9 2632.9 2259.5 2638.5 2264 2643.7 2268.5 2649.8 2271.8 2652.9 2274.1 2656.4 2277.6 2658.9 2282.7 2661.8 2291.3 2663 2294.4 2664.8 2296.9 2667.6 2301.5 2667.4 2307.7 2666.3 2316.5 2661.5 2326.7 2659.4 2332.4 2658.6 2339.6 2660.3 2347 2660.8 2354.9 2658 2361.3 Z" data-holc_grade="C"/>
<path d="M 2943 1474.8 2882.9 1450.6 2865.3 1493.2 2795.3 1465.9 2655.5 1480.2 2659.8 1507.8 2662.6 1517 2664.1 1535.2 2665.2 1548.8 2666.6 1565.1 2668.4 1587.6 2656.3 1602.5 2650.3 1600.3 2645.5 1598.2 2641.5 1597.1 2637.2 1598.9 2634 1602.1 2630.6 1606.7 2627.1 1611.7 2621.4 1615 2615.1 1615.7 2607.7 1616.7 2599.4 1616 2587.3 1611.8 2579.6 1608.2 2569 1601.4 2559.2 1595 2550.3 1590.8 2545.2 1588.3 2539.4 1588 2532.5 1510.4 2630.6 1497.4 2616.1 1351.6 2663.3 1302 2672.1 1288.9 2711.4 1319.8 2739.1 1342.3 2767.5 1364.9 2792.4 1381.9 2818 1398.8 2825.1 1405.1 2841.3 1413.7 2864.2 1423.2 2875.9 1426.4 2949.3 1458.2 2943 1474.8 Z" data-holc_grade="C"/>
<path d="M 2791.7 2449.1 2792.5 2447.3 2792.4 2443 2791.4 2441.3 2903.4 2377.5 2938.6 2431.6 2826.8 2495.9 2791.7 2449.1 Z" data-holc_grade="C"/>
<path d="M 2657.5 2924.3 2666.5 2905.9 2666.5 2891.2 2660.5 2832.7 2688 2838 2708.9 2843.3 2726.6 2850.3 2732.4 2835.4 2751.3 2787.5 2720.8 2729.3 2743.5 2727.4 2756.5 2725.3 2772.7 2724.2 2807.7 2720.2 2803.2 2727.4 2821.1 2720.6 2828.1 2718 2833.3 2720.2 2837.5 2724.8 2844.6 2738.5 2845.3 2744.2 2843.3 2748.4 2836.6 2749.2 2830.7 2748 2825.9 2748 2819.5 2755.6 2813.7 2762.3 2814.1 2764.1 2822.6 2756.6 2830.7 2751.2 2837 2753.4 2837.5 2758.1 2844.6 2765.1 2845.4 2767.2 2842.2 2770.8 2832.4 2773.1 2824.6 2772.4 2818.3 2774.9 2815.2 2779.7 2815.9 2782.1 2822 2777 2826 2777.3 2826.7 2779.8 2823 2785.4 2824.4 2786.1 2829.9 2781.9 2834.5 2783 2837.5 2778.7 2843.8 2782.4 2847.6 2790.9 2843.2 2794.2 2842 2795.7 2842.1 2799.7 2848.8 2802.8 2865.2 2809.4 2868.9 2816.4 2872.5 2824.6 2871.1 2832.6 2866.3 2837.9 2860.9 2848 2856.7 2857.1 2852.5 2866.3 2843 2864 2835.2 2863.8 2827.3 2863.6 2826.1 2865.1 2825.7 2866.5 2842.1 2876.9 2843 2880.5 2841.8 2884.2 2836.9 2888.9 2828.3 2892.7 2824.4 2894.9 2823.6 2898.2 2824.2 2904 2821.7 2906.7 2816.4 2907.5 2808.4 2904.2 2802.5 2899.9 2798.3 2894.3 2794.3 2896.8 2790.7 2896.9 2787.4 2896.2 2784 2898.2 2771.3 2897.5 2764.2 2897.2 2760.4 2899.4 2760 2900.7 2763.4 2904.9 2761.6 2906.8 2756.5 2909 2739.4 2902 2728.2 2889.8 2723.2 2885.3 2718.3 2883.8 2715.5 2885.3 2713.1 2888.5 2713.3 2892.9 2717.5 2895.8 2723.9 2897.4 2726.1 2899 2727.1 2903.1 2723.5 2908.3 2713.8 2908.9 2708.2 2907.7 2698.8 2907.7 2686.6 2911.9 2679 2911.9 2674.5 2915.3 2675.2 2919.9 2668.5 2924.5 2664.1 2926.1 2661.1 2926.2 2657.5 2924.3 Z" data-holc_grade="C"/>
<path d="M 2698.2 3031.9 2656.4 3104 2628 3093.5 2602.8 3080.5 2583 3070.6 2617.2 3024.4 2632.7 3004.7 2635.1 2998.3 2698.2 3031.9 Z" data-holc_grade="C"/>
<path d="M 1801 3386.2 1808.2 3389.2 1820.6 3397.2 1831.3 3402.7 1835.9 3406.6 1844.1 3409.5 1850.4 3409.5 1859 3412.5 1860.3 3413.4 1865 3416.4 1866.2 3417.2 1870.9 3424.4 1873.5 3435.4 1876.1 3441.4 1881.2 3443.1 1899.5 3450.3 1896.3 3459.3 1888.6 3480.8 1854.3 3569.6 1850.9 3572.4 1710 3597.8 1703 3594.4 1695.3 3589.5 1692.6 3585.4 1652.9 3576.7 1650.1 3573.8 1648.7 3568.8 1709.7 3442.7 1741.2 3386.2 1790.3 3387.5 1801 3386.2 Z" data-holc_grade="C"/>
<path d="M 1708 3298.9 1710.9 3300.1 1711.7 3317.2 1714.5 3364 1634.5 3364.1 1582.8 3367.2 1581.3 3347.2 1580.7 3333.6 1580.7 3323.9 1582.4 3312.6 1583.5 3303 1584.7 3292.8 1586.9 3284.9 1587.8 3277.4 1595.5 3280.5 1599.5 3282 1603.9 3283.8 1606.4 3284.7 1612.5 3287.1 1616.4 3288 1624.1 3289.7 1632.8 3291.7 1635.3 3292.2 1643.8 3292.2 1652.9 3291.6 1664.3 3292.8 1673.4 3290.5 1683.4 3290.5 1684.5 3290.5 1685.9 3290.5 1688.1 3291.2 1692.7 3292.7 1696.1 3293.9 1700.2 3295.6 1703.6 3297.1 1708 3298.9 Z" data-holc_grade="C"/>
<path d="M 1294.6 3002.4 1299.2 3004.5 1300.1 3001.1 1297.1 2995.1 1296.7 2987.5 1298.3 2985.7 1300.1 2983.7 1306.5 2985.4 1306.8 2985.5 1316.3 2990.9 1324.4 3001.5 1330.8 3009.6 1333.4 3016.8 1332.1 3023.6 1329.5 3031.7 1334.2 3035.5 1335.5 3041.4 1337.2 3048.6 1339.3 3052 1342.7 3055.4 1345.3 3060.5 1345.3 3066.1 1345.3 3072.4 1347 3080.1 1348.3 3082.6 1351.3 3082.6 1352.5 3078.4 1349.1 3071.6 1347.4 3065.2 1347.9 3058.4 1348.3 3055.4 1346.6 3051.2 1341.9 3046.9 1339.3 3041.8 1340.2 3037.2 1336.8 3028.3 1335.9 3021.9 1337.6 3016.8 1345.7 3015.9 1350.8 3019.3 1356 3026.1 1361.9 3027.8 1374.7 3027.4 1382.4 3029.1 1390.9 3035.1 1397.3 3040.6 1401.2 3049.9 1406.3 3057.6 1423.3 3075.8 1428 3077.1 1428.9 3072.4 1422.1 3065.6 1418.6 3058.8 1405.4 3044.4 1404.1 3038.5 1401.6 3034.2 1394.3 3028.7 1387.5 3025.7 1376 3022.7 1367.5 3020.6 1360.7 3018.9 1343.2 3001.1 1348.3 2999 1359 2997.7 1367.5 2996.4 1391 2989.1 1394.8 2987.9 1473.2 2986.2 1473.4 2997.6 1474.1 3041.4 1477 3087.5 1477.2 3112.8 1477.1 3159.2 1463.8 3169.6 1425.5 3169 1344.6 3170.5 1320.1 3147.6 1297.1 3129.3 1282.6 3119.5 1255.7 3099 1252 3096.2 1249.2 2988.8 1248.6 2975.2 1256.5 2968.2 1268.6 2962.9 1272.4 2960.7 1277.1 2960.5 1280.8 2964.9 1280.9 2971.7 1283.2 2974.4 1285.3 2978.8 1284.3 2983.2 1284.7 2986.4 1285.2 2990 1291.1 2996 1294.6 3002.4 Z" data-holc_grade="C"/>
<path d="M 408.2 864 392.4 871.9 375 835.1 367.7 819.9 364.7 813.5 354.5 792.5 368.8 786 350.4 750.9 372.3 739 429.9 853.2 408.7 863.8 408.2 864 Z M 391 668.4 380.5 673.8 367.8 648 357.9 652.7 354.6 654.3 380 710.2 394.3 703.4 405.5 698 434.8 756.4 439 764.9 472.2 831.9 457.7 839.3 410.5 742 403.9 745.4 391.7 751.6 387.2 741.8 374.1 713.8 363.8 691.5 347.9 657.5 336.3 664 335.6 664.4 311 613.1 327.9 605.1 333.7 602.4 357.7 591 362.6 588.6 373.5 583.5 409.6 658.9 391 668.4 Z" data-holc_grade="C"/>
<path d="M 717.1 696.8 717.2 697.3 721.3 709 718.6 710.4 693.3 722.7 686.9 725.9 661.3 738.2 659.3 733.2 653.9 735.8 604.8 760.1 603.2 760.9 601.6 756.6 542.1 786.1 536.9 775.7 531.7 765.4 513.8 729.6 508 718.1 493.9 689.8 488.9 679.9 519.6 665.4 556.9 646.8 599.3 625.3 600.8 624.5 640 702.1 700.1 673.4 712.8 697.9 717.1 696.8 Z" data-holc_grade="C"/>
<path d="M 789.9 652.6 790.6 653.9 795 654.3 799.9 654.8 801 654.9 806.3 655.3 806.4 655.4 808.9 657.6 812 662.1 812.7 666.6 815.3 679.2 815.5 679.8 817.2 684.9 818.1 687.8 811.9 688.2 808.8 689.7 805.2 701.8 802 713 801.2 715.5 800.2 729.9 800.8 739.6 801.4 740.9 802.4 743.3 746 771.3 718.8 784.8 687.3 800.3 669.2 809.1 668.5 807.8 663.3 797.6 655.3 782.1 650.5 773.1 642.1 757.6 610.7 773.5 607.5 769.1 640.3 752.7 657.9 743.8 663.5 741 661.3 738.2 686.9 725.9 693.3 722.7 718.6 710.4 721.3 709 717.2 697.3 717.1 696.8 733.6 689.2 746.4 683.3 765.2 674.6 756.3 654.6 765.7 650 770.1 647.8 772.5 648.4 775.1 648 776.8 647.8 779.1 647.7 781.1 649.5 781.2 649.7 782.3 651.1 784.5 650 786.7 648.6 788.1 647.6 788.7 648.8 788.6 650.7 789.9 652.6 Z" data-holc_grade="C"/>
<path d="M 802.4 743.3 801.4 740.9 800.8 739.6 800.2 729.9 801.2 715.5 802 713 805.2 701.8 808.8 689.7 811.9 688.2 818.1 687.8 817.2 684.9 815.5 679.8 815.3 679.2 812.7 666.6 812 662.1 808.9 657.6 806.4 655.4 806.3 655.3 801 654.9 799.9 654.8 795 654.3 790.6 653.9 789.9 652.6 799.4 643.3 829 613.9 850.3 592.7 851.2 589.3 866.1 603 875.7 612.2 941.4 676.5 913.8 706.4 886.9 736.1 860.5 765.9 849.4 778.6 843 783.4 840.4 788.7 833.6 786 828.5 783.4 826.8 779.1 830.2 775.9 829.8 768.5 827.7 760.5 823.8 756.8 820 753.1 814.9 753.1 807.2 747.2 802.4 743.3 Z" data-holc_grade="C"/>
<path d="M 1847 1628.1 1778 1632.1 1771.2 1541 1776.9 1540.5 1792.9 1539.2 1909.1 1529.1 1906 1532.8 1905.9 1532.9 1902.3 1535.6 1901.2 1539.9 1899.5 1543.8 1899.5 1548.4 1896.9 1552.3 1896.7 1554.9 1898.6 1558.5 1900.5 1561.1 1902.1 1563.3 1905 1563.9 1906.6 1564.2 1909.7 1567.6 1911.4 1569.8 1909.2 1574.1 1906.9 1577.5 1906.6 1582.6 1908.6 1587.4 1908.6 1592.7 1911.2 1595.6 1914 1599 1919.1 1602.1 1922.5 1606.6 1923.6 1609.7 1923.7 1610 1922.5 1616.5 1920 1621.9 1916.4 1622.3 1910.4 1623 1897.3 1624.7 1847 1628.1 Z" data-holc_grade="C"/>
<path d="M 1023.7 560.2 1002.1 577.4 981.5 596.9 932.8 553.9 938.5 546.4 958 564.6 981.8 554 967.3 524.3 939.6 529.1 913.7 553 866.1 603 851.2 589.3 835.2 605.7 824.9 597.2 848 573.4 840.5 566.3 876.8 527.8 884.2 535.3 926.1 493.3 944.5 473.5 956.6 460.5 984.2 438.3 1010.2 417.6 1013.7 414.9 1014.9 424.3 1030.9 456.6 991.8 480.5 1015.2 504.4 1020.4 511.2 1024.4 516.3 1018.8 522.1 1008.5 527 1023.7 560.2 Z" data-holc_grade="C"/>
<path d="M 1334 226.6 1282.4 263.1 1281.1 264 1275.4 268.1 1260.4 278.7 1247.1 286.7 1224 300.5 1192.9 320.9 1186.6 271.3 1166.6 246.1 1213.6 211.5 1231.3 233.9 1261.1 211 1280.4 198.5 1311.7 172.5 1311.6 181.1 1313 186.2 1316.2 195.2 1317.8 200.3 1319.6 203.4 1322.1 208.3 1323.7 212.8 1326.2 216.5 1328.4 220.4 1331.6 222.7 1334 226.6 Z" data-holc_grade="C"/>
<path d="M 1387.3 187.9 1387.4 234.3 1387.5 253 1387.7 262.9 1384.3 263.2 1377.7 261.8 1373.2 261 1368.4 259.8 1363.7 257.6 1359.3 257.6 1355 256.7 1352.1 252.7 1347.5 251 1344.1 247.4 1341.2 242.8 1337.5 234.6 1334.4 227.2 1334 226.6 1331.6 222.7 1328.4 220.4 1326.2 216.5 1323.7 212.8 1322.1 208.3 1319.6 203.4 1317.8 200.3 1316.2 195.2 1313 186.2 1311.6 181.1 1311.7 172.5 1312.1 140.8 1333 141.7 1349.1 142.5 1360 142.6 1387.1 144.3 1387.3 187.9 Z" data-holc_grade="C"/>
<path d="M 1479.7 94.8 1482.4 104.6 1498.8 100.9 1504 101.2 1508.3 102.3 1513.3 104.6 1518.3 107.2 1520.4 112 1521.1 117.9 1520.4 123.6 1517.9 125.6 1515.4 130.7 1514.2 135.5 1510.8 142 1504.9 147.4 1500.8 149.6 1496.5 154.5 1493.1 157.9 1488.8 160.4 1484.7 162.1 1482.2 163 1480 163.8 1479 163.2 1477.9 161 1477.5 157.9 1477.7 154.5 1476.5 150.5 1474 150.2 1473.4 151.9 1473.6 155 1473.8 159.6 1473.8 164.1 1475.4 167.8 1475.4 171.7 1474.5 175.4 1473.1 177.1 1471.3 178.8 1468.6 181.9 1467.5 181.4 1465.6 180.8 1463.8 179.1 1461.1 178 1459.5 177.1 1456.3 176.8 1454.1 176.5 1451.6 175.7 1450.2 174.3 1450.2 171.5 1451.3 168.9 1450.7 167.8 1448.4 167.2 1444.7 166.4 1442.5 166.4 1439.3 166.4 1437 165.2 1435 164.1 1432.7 161.3 1431.1 159.3 1428.6 156.7 1426.6 154.7 1424.5 153.9 1422 152.2 1419.1 150.8 1415 149.1 1412.5 149.6 1412.7 150.8 1414.1 152.2 1415.7 153.9 1417.3 156.4 1418.6 158.4 1422.5 160.1 1425.7 161.3 1427.9 161.8 1430 163.2 1430.9 165.8 1430.2 167.8 1427.5 168.6 1423.6 169.5 1419.8 170 1417 170.6 1414.1 170.9 1412.7 171.4 1410.7 171.4 1408.9 171.4 1406.4 170.6 1403.9 172 1403.9 174 1405.9 174.8 1409.5 176 1411.8 177.1 1413.4 180.2 1410.4 182.5 1405.7 184.8 1401.8 187.9 1419.3 189.3 1419.3 207.1 1449.7 198.6 1446.6 245.4 1445.2 246.5 1441.6 246.8 1437.5 246.2 1432.2 246.2 1430.4 246.8 1430 248.5 1430.4 250.2 1429.8 250.5 1426.6 250.5 1423.2 250.2 1420 250.8 1417.3 249.3 1413.6 250.2 1412.5 247.9 1410.7 244.5 1409.1 243.4 1407.3 242.3 1403.9 244.2 1400.4 247.6 1398.4 250.8 1395.2 252.5 1392 252.5 1387.5 253 1387.4 234.3 1387.3 187.9 1399.8 187.9 1400.7 145.1 1421.1 147.1 1462 146.8 1479.7 146.2 1504.7 142 1506.5 138.3 1507.4 134.6 1507.4 132.1 1504.3 132.4 1499.9 132.6 1496.5 133.5 1492.7 133.5 1489 133.8 1486.8 133.8 1483.4 134.6 1480.4 135.2 1476.1 136 1472.7 136.3 1470.2 136.6 1466.8 135.2 1458.8 105.7 1478.7 89.4 1479.7 94.8 Z" data-holc_grade="C"/>
<path d="M 1467.5 16.9 1466.5 13 1467.2 9.8 1468.9 7.9 1472 7.5 1473.9 7.4 1476.2 8.2 1478 8.2 1479.8 7.9 1482.1 6.7 1483.9 5.4 1485.4 4.3 1487 3.3 1488.8 2 1490.6 1.3 1491.3 1 1493 1.1 1494.9 1.7 1495.7 1.7 1497.2 1.8 1498.6 1.8 1500.9 1.8 1502.9 1.1 1504.7 2.6 1507.4 4 1509.9 4.5 1513.9 6.5 1516.5 8.4 1518.7 9.6 1520.4 12 1521.8 14.2 1523.2 16.7 1523.9 19.6 1522.4 23.2 1523.7 25.6 1524.9 27.6 1525.7 29.3 1526.3 32.7 1526.7 38.4 1527.4 42.8 1527.6 47.2 1527.5 51 1526.2 53.5 1522.2 55.5 1519.9 57.4 1515.9 59.9 1514.8 62.5 1514 64.3 1515.8 66.7 1518.3 69.3 1520.1 70.7 1521.7 71.4 1523.3 72.9 1524.5 74.8 1525.2 77.1 1525.1 79.5 1523.8 81.3 1521.4 83.3 1516.2 84.8 1512.5 85.4 1509.1 85.4 1505.4 85 1502.7 85.3 1501.1 86.8 1499.9 88.8 1498.1 90.5 1494.9 92.4 1489 93.8 1484.5 94.5 1479.7 94.8 1478.7 89.4 1484.6 84.6 1468.8 18.4 1467.5 16.9 Z" data-holc_grade="C"/>
<path d="M 1741.6 189.9 1747.1 196.3 1788.3 156.9 1810.5 176.9 1814.6 179.2 1818.6 181.8 1822.4 184.1 1827 187.3 1830.7 190.7 1832.1 194.7 1834.2 199.4 1836 204.1 1833.8 211.7 1829.7 224.1 1823.1 245.7 1799.6 268.5 1773.4 290.1 1718.5 329.9 1711.9 337.1 1642 297.6 1644.7 292.3 1649 285.7 1655.6 277.2 1664.2 267 1674 228.1 1682.5 196.1 1658.2 179.3 1676.7 151.2 1685.9 155.1 1706.9 165.5 1722.4 173.5 1730.2 178.6 1733.8 181.8 1738.1 185.4 1741.6 189.9 Z M 1695.9 259.4 1712.3 276.6 1748.5 247.9 1722.2 219.5 1704.1 233.3 1712.6 246.1 1695.9 258.9 1695.9 259.4 Z" data-holc_grade="C"/>
<path d="M 2370.9 1517.3 2366.7 1517.7 2366.7 1518.1 2365 1521.5 2361.6 1524.1 2357.3 1526.2 2351.8 1528.7 2344.1 1528.3 2337.7 1528.3 2329.2 1530.9 2322.4 1530.5 2316.4 1526.7 2316.4 1521.1 2318.6 1515.6 2322 1511.8 2325.4 1506.3 2328.8 1505.4 2332.2 1502 2333.9 1499.1 2330 1494.8 2328.3 1489.8 2329.2 1485.9 2331.7 1485.5 2336 1484.7 2336 1480.8 2332.2 1478.7 2327.9 1477.5 2323.6 1471.5 2324.9 1466.9 2328.3 1463.5 2334.7 1463.9 2341.9 1464.7 2347.5 1465.1 2352.2 1461.7 2358.1 1460.9 2369.6 1460 2379.8 1460 2392.6 1462.1 2404.1 1464.3 2412.6 1465.5 2422.9 1467.6 2433.9 1476.9 2425 1496.5 2419.9 1505.4 2414.8 1513.4 2408.9 1521.9 2405.5 1529.6 2401.2 1538.9 2397.4 1541.9 2390.1 1543.1 2383.3 1542.3 2379.1 1540.6 2373.9 1535.9 2370.1 1530.9 2370.1 1525.8 2372.2 1520.7 2370.9 1517.3 Z" data-holc_grade="C"/>
<path d="M 2021.8 1841.5 2012.9 1850.9 2006.4 1856.6 2002.7 1860.8 1996.9 1868.4 1988.9 1879.2 1981.3 1884 1976 1886.5 1970.2 1887.4 1962 1884.5 1955.8 1877.8 1951.7 1872.7 1949.8 1866.2 1950.7 1857.7 1952.2 1848.8 1953.5 1844.1 1954.4 1840.7 1957.3 1837.9 1970.2 1825.8 1980.1 1816.4 1997 1801.3 1996.3 1785.3 1995.4 1778.5 2027.7 1778 2028.4 1778 2038.9 1777.7 2040.1 1798.7 2040.8 1816.2 2032 1827.5 2027.2 1834.4 2021.8 1841.5 Z" data-holc_grade="C"/>
<path d="M 1906.9 2200.2 1948.6 2197.9 1949.4 2209.6 1929.3 2210.2 1902.8 2211 1879.8 2211.6 1876.6 2211.7 1856.5 2212.5 1846.8 2212.8 1831 2213 1815.9 2213.2 1806.3 2215.6 1790.2 2216.4 1783.2 2216.7 1785.1 2212.2 1790.5 2206.8 1791.8 2200.5 1795.4 2195.3 1797.7 2188.6 1799.4 2182.1 1800 2177.3 1799.4 2174.8 1797.8 2169.4 1798.7 2166.4 1799.6 2162.8 1799.1 2160.1 1813.1 2162.3 1822.1 2163.7 1839.8 2166.5 1858.8 2165.7 1866.5 2165.1 1875.8 2164.6 1881.8 2164.6 1882.4 2167.1 1885.8 2172.5 1887.2 2176.4 1894.1 2181.3 1894.3 2181.5 1896.6 2184.6 1896.3 2189.7 1896.9 2200.8 1906.9 2200.2 Z" data-holc_grade="C"/>
<path d="M 2060 2264.4 2059.4 2268.6 2059.7 2275.1 2059.7 2279.4 2058.9 2285.6 2058 2290.4 2048.6 2287.9 2048.5 2293.9 2048.3 2303.6 2047.5 2333.7 2047.2 2351.9 2047.9 2363.2 2047.8 2368.4 2042.5 2406 1981.9 2384.2 1991.9 2364.4 1974.1 2357.2 1969.1 2355.2 1967.3 2294.9 1962.3 2195.8 1963.3 2191.4 1969.7 2190.8 1973.5 2190.8 1977.7 2191.4 1980.6 2192.2 1982.6 2192.7 1984 2195.1 1983.6 2197.2 1982 2199.1 1980.7 2201.5 1979.7 2204.2 1980.6 2207 1983 2206.3 1984.3 2203.6 1986.1 2201.2 1988.6 2199.8 1990.3 2199 1993 2198.4 1994 2197.7 1994.9 2195.7 1994.9 2192.7 1995.3 2187.2 1995.7 2185 1999.5 2181 2002 2178 2005.2 2175.8 2006.9 2173.8 2010 2172.9 2012.1 2172.5 2017 2174.1 2021.6 2174.9 2025.6 2173.7 2027 2169.9 2028.2 2166.5 2028.2 2163.5 2029.5 2158.9 2030.2 2155.8 2033.9 2154.7 2039.2 2153.6 2045.4 2152.3 2053 2152.3 2064.7 2152.4 2081.5 2152.1 2080.4 2154.5 2077.4 2156.4 2076.4 2158.2 2075.4 2162.3 2075 2165.1 2074.4 2168.5 2073 2171.5 2071.7 2176 2070.6 2178.2 2066.3 2179.6 2063.9 2181.4 2063.6 2185.1 2067.3 2192.9 2070.6 2201.8 2070.4 2206 2067.8 2210.5 2065.1 2213 2061.8 2214.7 2059 2214.8 2056.3 2212.5 2054.2 2212 2052.3 2213.4 2052.1 2215 2055.1 2218.7 2054.8 2220.9 2053.4 2222.1 2050.6 2222.1 2049.5 2224.9 2050.3 2226.1 2053.9 2226.3 2055.7 2229.8 2056.7 2235.1 2056.9 2241 2056.6 2246.5 2056.6 2250.9 2053.8 2254.7 2052.8 2255.7 2052.5 2257.3 2053.2 2259.3 2055.7 2262.5 2058.4 2264.4 2060 2264.4 Z" data-holc_grade="C"/>
<path d="M 2152.1 2304.6 2128.5 2306.8 2089.3 2297.9 2119.9 2189.2 2134.7 2193.2 2137.4 2193.8 2164.8 2199.7 2164.9 2199.7 2168.5 2183.7 2176.6 2185.7 2191.1 2189.4 2184.4 2218.6 2174.7 2216.3 2157.5 2283.6 2152.1 2304.6 Z" data-holc_grade="C"/>
</g>
<g id="D">
<path d="M 2106.3 1857 2090.8 1858.1 2079.2 1858.7 2075.5 1859 2073.8 1859 2072 1857 2071.7 1856.6 2068.1 1852.3 2063.5 1848.9 2056.7 1845.5 2052.2 1846.6 2050.6 1844.2 2050.2 1843.5 2049.3 1842.1 2047.1 1838.7 2038.5 1840.4 2032.3 1841.5 2024.9 1842.1 2021.8 1841.5 2027.2 1834.4 2032 1827.5 2040.8 1816.2 2040.1 1798.7 2038.9 1777.7 2028.4 1778 2025.4 1705.5 2130.7 1711.8 2130 1741.2 2130.6 1750.2 2133 1773.8 2133.9 1783.9 2078.5 1786 2079.5 1800.2 2080.6 1806.9 2075.4 1803.6 2073.2 1804.7 2071.4 1806.4 2073.1 1810.2 2091.9 1831 2097.8 1836.3 2103.8 1844.5 2105.6 1850.8 2106.3 1857 Z" data-holc_grade="D"/>
<path d="M 2202.2 2962.3 2199.9 2969.2 2189.9 2999 2181.7 3018.7 2159.4 3011.7 2159.2 3018.7 2153.8 3033 2145.6 3045.2 2135.3 3055.6 2130.4 3059.5 2123.7 3064.2 2116.9 3067 2106.7 3000.4 2107.1 3000.3 2111.4 2999 2114.2 2995.6 2108.7 2986.9 2099.8 2972.6 2120.6 2952 2125.6 2946.9 2138 2937.9 2152.9 2925.9 2155.9 2936.1 2163.3 2939.9 2166.1 2944.8 2166.9 2949.9 2167.8 2951.9 2170.8 2950.8 2202.2 2962.3 Z" data-holc_grade="D"/>
<path d="M 2230.2 3011.9 2231.3 3017.4 2233.3 3013.7 2242.5 3012.8 2247.9 3017.3 2246.6 3020.7 2244.9 3026.6 2245.9 3028 2249.9 3023.8 2253.2 3019.1 2255.4 3016.1 2258.2 3014.6 2258.5 3014.6 2267.7 3013.9 2286.1 3020 2295 3030.9 2308 3049.8 2283.7 3082.9 2272.9 3103.2 2267 3112.2 2252.5 3094.8 2186.9 3149.3 2151.8 3105.7 2177.4 3031.4 2181.7 3018.7 2189.9 2999 2230.2 3011.9 Z" data-holc_grade="D"/>
<path d="M 2442.6 3047.8 2446.5 3084.7 2446.5 3094 2419.6 3147.5 2411 3143.4 2409.1 3142.5 2402.1 3139.3 2377.9 3128 2367.8 3122.7 2361.3 3119.3 2345 3110.8 2321.5 3099.3 2315.3 3096.3 2311.8 3070.9 2334.6 3011.8 2356.4 3017.9 2374.8 3024.7 2390.8 3030.3 2442.6 3047.8 Z" data-holc_grade="D"/>
<path d="M 2315.3 3096.3 2321.5 3099.3 2309.3 3126.8 2344.6 3146.6 2361.3 3119.3 2367.8 3122.7 2377.9 3128 2402.1 3139.3 2409.1 3142.5 2400.2 3160.6 2381.9 3193.4 2365.7 3222.7 2366.8 3227.4 2380.5 3326.8 2358.2 3355.1 2339.8 3246.5 2258.9 3257.3 2271 3326 2272.4 3334.6 2251.5 3338.5 2250.6 3344.9 2244.6 3343.4 2233.5 3342.3 2224.6 3344.2 2216.6 3344.5 2208.3 3343.8 2196.7 3344.6 2192.1 3345.3 2187 3345.2 2169.9 3254.4 2223 3247.7 2208 3163.5 2221.7 3160.3 2231 3155.6 2249.8 3138.3 2262.6 3121 2267 3112.2 2272.9 3103.2 2283.7 3082.9 2294.8 3088.1 2312.6 3094.9 2315.3 3096.3 Z" data-holc_grade="D"/>
<path d="M 2453.7 3286.9 2437.5 3275.8 2428.6 3269.6 2420.3 3278.9 2414.1 3284.9 2409 3290.7 2380.5 3326.8 2366.8 3227.4 2365.7 3222.7 2381.9 3193.4 2400.2 3160.6 2409.1 3142.5 2421.1 3148.2 2471 3171.8 2513.2 3201.9 2453.7 3286.9 Z" data-holc_grade="D"/>
<path d="M 1594.1 2828.6 1594 2827.4 1601.7 2821.4 1612.8 2812.8 1612.3 2807.2 1609.7 2777.4 1621.5 2776.6 1620 2750.1 1630.4 2749.4 1627.3 2724 1632.1 2723.6 1627.7 2682.9 1727.9 2675.2 1730.4 2697 1732.9 2725 1726.2 2725.8 1700.7 2728.3 1669.3 2732.4 1673.3 2779.7 1669.4 2784.6 1668.2 2789.6 1666.2 2792.8 1664.5 2796.5 1666.5 2801.1 1669.3 2804.6 1669.7 2809.4 1669.7 2816 1667.7 2819.9 1666.3 2823.1 1662.5 2828 1648.7 2841.8 1644.6 2839.6 1638.9 2836.2 1634.4 2832.6 1630.8 2830.2 1625.9 2828.6 1621.6 2828.3 1614.4 2829.1 1620.9 2945.5 1634.2 3103 1566.7 3144.4 1530.8 3165.9 1525.7 3168 1523.9 3144.6 1522.5 3119.8 1522.5 3119.5 1522.5 3119.3 1522.5 3084.5 1520.8 3062.1 1520.5 3058.1 1518.6 3032.7 1517.1 3023.9 1515 3011.5 1513.7 2996.2 1512.7 2985.4 1512.9 2975 1509.9 2909.2 1518.8 2902.6 1522.5 2900.9 1524.2 2901 1525.7 2940 1554.3 2939.9 1582.8 2912.5 1598.6 2897.1 1598.7 2895.1 1596.4 2862 1594.7 2837.1 1594.1 2828.6 Z" data-holc_grade="D"/>
<path d="M 1940.3 2855.5 1939.9 2858.3 1939.7 2862.7 1940.2 2875.3 1940.6 2885.2 1940.7 2895.1 1933.9 2904.1 1931.8 2907.3 1931.9 2913.1 1932 2933.3 1933.6 2933.1 1938 2932.4 2009.9 2931.2 2011.9 2958.5 1998 2959 1984.4 2959.9 1978.2 2959.9 1971 2959.8 1968.6 2962.3 1939.2 2962.5 1928.9 2962.9 1851.6 2964.5 1852.3 2986.8 1874.8 2986.5 1976 2983.2 1976.8 3005.9 1982.1 3006.1 1995.5 3005.9 1996.2 3038.7 1996 3040.4 1973.8 3050.7 1943.4 3062.2 1928.2 3062.8 1909.1 3063.6 1895.3 3064.2 1888.8 3063.7 1820.4 3043.8 1814.5 3042.3 1809.6 3041 1797.8 3036.9 1790.9 3036.5 1785.4 3033.7 1778.3 3033 1772 3024.1 1766.5 3018.8 1761.4 3015.6 1756.2 3013.5 1752.1 3013.5 1688.8 3014.5 1678.1 3008.7 1667 3003.9 1660.6 3000.7 1654.6 2997.5 1646.5 2986.4 1640.1 2976.8 1649.5 2968.9 1657.2 2958.2 1680.5 2957.6 1700.7 2957 1713.8 2956.6 1742.2 2955.8 1751.1 2955.6 1769 2955 1769 2934.3 1816.1 2934.1 1839.1 2934 1887.8 2933.4 1886.9 2905.7 1886.4 2880.9 1885.3 2858.6 1921.7 2858.1 1924.7 2857.2 1931.3 2852.2 1933 2851.1 1936.2 2850.5 1940.3 2855.5 Z" data-holc_grade="D"/>
<path d="M 1707.8 3255.9 1708.4 3293.4 1708 3298.9 1703.6 3297.1 1700.2 3295.6 1696.1 3293.9 1692.7 3292.7 1688.1 3291.2 1685.9 3290.5 1684.5 3290.5 1683.4 3290.5 1673.4 3290.5 1664.3 3292.8 1652.9 3291.6 1643.8 3292.2 1635.3 3292.2 1632.8 3291.7 1624.1 3289.7 1616.4 3288 1612.5 3287.1 1606.4 3284.7 1603.9 3283.8 1599.5 3282 1595.5 3280.5 1587.8 3277.4 1586.3 3271.1 1582.5 3267.4 1582 3266.8 1576 3265.9 1575.2 3265.8 1568 3268.6 1567.3 3217 1651.4 3162.1 1687.3 3163.3 1687.9 3181.5 1694.4 3187.7 1695.8 3189.6 1697.9 3192.4 1702.1 3197.8 1703.3 3200.4 1704.3 3202.5 1673.1 3229.3 1702.1 3251.8 1707.8 3255.9 Z" data-holc_grade="D"/>
<path d="M 1932.2 3216.6 1932.3 3217.4 1932.5 3219.2 1931.9 3234.5 1914.8 3243.1 1890.4 3258.8 1856.1 3274.9 1844.2 3281.2 1832.4 3289.2 1816.4 3304.2 1811.7 3312.1 1798.5 3305.9 1771 3290.8 1707.8 3255.9 1702.1 3251.8 1673.1 3229.3 1704.3 3202.5 1706 3210 1705.7 3214.4 1748.1 3203.8 1755.9 3201.3 1756.3 3223.4 1834.7 3203.6 1840.9 3201.9 1840.6 3160.7 1891.6 3123.2 1890.4 3094.5 1888.8 3066.2 1888.8 3063.7 1895.3 3064.2 1909.1 3063.6 1928.2 3062.8 1943.4 3062.2 1943.5 3068.6 1943.7 3085.9 1943.9 3087.8 1945.5 3092.7 1946.1 3097.2 1945 3104 1945.4 3116.6 1945.5 3123.2 1945.4 3133.6 1942.1 3150.6 1940.1 3157.7 1934.5 3170.3 1932.4 3176.9 1930.9 3182 1931 3194.5 1931.5 3201.5 1931.7 3208.1 1932.2 3216.6 Z" data-holc_grade="D"/>
<path d="M 1932.2 3216.6 1931.7 3208.1 1931.5 3201.5 1931 3194.5 1930.9 3182 1932.4 3176.9 1934.5 3170.3 1940.1 3157.7 1942.1 3150.6 1945.4 3133.6 1945.5 3123.2 1945.4 3116.6 1945 3104 1946.1 3097.2 1945.5 3092.7 1943.9 3087.8 1943.7 3085.9 1943.5 3068.6 1943.4 3062.2 1973.8 3050.7 1996 3040.4 1998.3 3039.2 2006.4 3036.7 2011.1 3036.5 2016 3037.2 2021.2 3040.4 2024.9 3048.5 2043.3 3090.8 2021.7 3100.1 2048.3 3165.8 2042.5 3168.5 1936.4 3216.1 1932.2 3216.6 Z" data-holc_grade="D"/>
<path d="M 2329.1 1902.5 2326.6 1914.7 2321.6 1910.7 2324.5 1914.8 2329.3 1927.3 2336.4 1937.5 2332.3 1940.3 2331.4 1942.6 2320.4 1943.2 2317.4 1945.9 2332.3 1948.7 2333.7 1950.9 2331 1956.9 2322 1959.3 2316 1961.5 2309.5 1962.5 2294.6 1959.6 2286.3 1957.4 2271.6 1951.7 2257.7 1947.1 2274 1897.2 2279.3 1879.2 2301.1 1887.7 2329.8 1900.1 2329.1 1902.5 Z" data-holc_grade="D"/>
<path d="M 2659.5 1974.4 2657.6 1952.6 2653.4 1945.3 2650.8 1934.2 2640.6 1913.9 2630.3 1888.4 2619.2 1863 2607.3 1835 2603 1827.4 2599.5 1819.4 2593.9 1813.7 2589.7 1809.4 2586.1 1804.6 2581.7 1791.8 2581.7 1787 2581.7 1782.3 2598.9 1782.8 2614.8 1783.7 2631.5 1785.8 2652.9 1790.2 2676 1793.4 2693.7 1795.4 2752.4 1828.7 2770.2 1861.3 2733.2 1954.9 2716.8 1957.6 2700.5 1960.2 2678.1 1968.7 2659.5 1974.4 Z" data-holc_grade="D"/>
<path d="M 2824 2031.6 2793.9 2040 2759.2 2047.4 2724.9 2056.7 2719.3 2031.6 2687.7 2035.1 2611.4 2039.4 2582.8 2041.6 2558.4 2042.3 2559 1973.7 2659.5 1974.4 2678.1 1968.7 2700.5 1960.2 2716.8 1957.6 2733.2 1954.9 2755.2 1950 2809.2 1935 2824 2031.6 Z" data-holc_grade="D"/>
<path d="M 2693.6 2192.3 2715.2 2167.9 2734.3 2163.2 2751.3 2158.1 2725.3 2058.2 2724.9 2056.7 2759.2 2047.4 2793.9 2040 2824 2031.6 2832.5 2069.8 2840.6 2127 2844.5 2140.8 2845.8 2143.3 2862 2169.7 2874 2191.4 2881.5 2201.4 2885.1 2224.5 2886.3 2235.8 2889.5 2256.5 2885.8 2263.6 2883.3 2268.6 2874.9 2270.3 2793.8 2295 2788 2296.7 2773.1 2301.4 2771 2289.9 2765 2262.8 2763.9 2259.5 2760.5 2252.2 2756.6 2245.3 2751.5 2241.5 2741.8 2236.8 2725.2 2230.5 2712.9 2217.9 2706.1 2204.3 2700.9 2197.8 2695.1 2192.9 2693.6 2192.3 Z" data-holc_grade="D"/>
<path d="M 2658 2361.3 2675.3 2434.4 2682.7 2431.9 2773.1 2412.6 2783.3 2428.5 2791.4 2441.3 2792.4 2443 2792.5 2447.3 2791.7 2449.1 2790.8 2451 2762.2 2501.5 2755.5 2507 2743.4 2509.9 2733.5 2515.5 2720.7 2521.9 2700.1 2532.5 2685.2 2543.2 2668.9 2553.8 2658.7 2556.6 2656.1 2557.3 2649.7 2558.1 2606.6 2587.4 2604.5 2577.4 2563.6 2373.1 2598.4 2337 2658 2361.3 Z" data-holc_grade="D"/>
<path d="M 2877.9 3184.1 2865.9 3254.2 2898 3345.5 2922.9 3374 2987.4 3325.6 2999 3342.8 2998.1 3429.1 2946.7 3503.4 2915.3 3483.5 2824.9 3381.7 2821.3 3384.5 2814.9 3383.1 2806.4 3380.3 2801.4 3381.7 2793.6 3381.7 2789.3 3372.5 2785 3366.8 2781.5 3363.3 2775.1 3365.4 2770.1 3364 2767.2 3359.8 2758 3359.8 2753 3364 2748.1 3361.9 2742.4 3361.2 2731 3361.9 2723.9 3366.2 2716.1 3365.5 2717.5 3358.4 2710.4 3352.8 2704.7 3353.5 2701.1 3350.7 2693.3 3350.7 2684.1 3351.4 2684.8 3342.9 2680.5 3337.2 2674.1 3325.9 2669.1 3317.4 2666.5 3309.2 2669.1 3301.8 2671.9 3294.1 2666.9 3289.8 2669.8 3288.4 2671.9 3282.7 2674 3273.5 2674.7 3274.2 2679 3272.1 2681.7 3268 2690.2 3268 2691.8 3262.2 2691.8 3253.7 2691.8 3245.2 2695.1 3238.6 2700.8 3237.1 2707.8 3240 2708.1 3238.1 2705.3 3235.3 2697.4 3223.9 2697.4 3214 2701 3201.3 2708.8 3194.2 2715.9 3192.1 2724.4 3193.5 2735.1 3193.5 2738.6 3187.1 2740.7 3171.5 2740.7 3155.2 2745 3147.5 2779.8 3155.2 2809.7 3163 2823.2 3162.9 2838.1 3167.2 2857.3 3174.9 2877.9 3184.1 Z" data-holc_grade="D"/>
<path d="M 2358.2 3355.1 2380.5 3326.8 2409 3290.7 2414.1 3284.9 2420.3 3278.9 2428.6 3269.6 2437.5 3275.8 2453.7 3286.9 2516 3332.1 2516.4 3371.3 2514.6 3434.2 2475.8 3429.1 2454.7 3426.7 2438.3 3422.9 2365.7 3403.9 2360.7 3367.2 2358.2 3355.1 Z" data-holc_grade="D"/>
<path d="M 488.9 679.9 466.9 690.4 461.9 680.2 452.1 660.3 447.3 650.7 447.5 650.6 496.2 627.2 499.8 625.4 519.6 665.4 488.9 679.9 Z" data-holc_grade="D"/>
<path d="M 531.7 765.4 520.5 771.4 520.1 771.6 529.9 793.4 533.5 800.6 549.5 833.2 569.9 878.9 583.5 871.5 575.8 852.2 567.8 832.2 542.1 786.1 601.6 756.6 603.2 760.9 607.5 769.1 610.7 773.5 642.1 757.6 650.5 773.1 655.3 782.1 663.3 797.6 668.5 807.8 669.2 809.1 643 820.2 636.3 823 636.5 823.3 660.4 869.9 675.7 900.1 690.9 931 673.2 945.4 663.4 953.3 641.2 971.3 607.2 928.3 592.6 909.7 563.3 923.4 561.3 924.3 537.5 872.1 525.1 878.7 512.1 851.6 506.7 840 495.7 816.9 487.5 800.3 478 780.8 473.3 771.2 465.2 754.8 457.4 739 457.6 738.9 476.2 730.5 472.8 723.1 471.6 720.6 464.8 723.6 447.2 731.2 433.9 706.8 466.9 690.4 488.9 679.9 493.9 689.8 508 718.1 513.8 729.6 531.7 765.4 Z" data-holc_grade="D"/>
<path d="M 682.3 618.9 690.5 608.7 700.8 610.5 710.4 614 718.9 617.7 719.6 618 729.6 621.6 738.5 623.3 747.7 624.7 755.9 628.2 762.2 634 762.3 634.9 762.6 639.7 764.7 641.5 771.5 640.2 770.2 647.2 770.1 647.8 765.7 650 756.3 654.6 765.2 674.6 746.4 683.3 733.6 689.2 717.1 696.8 712.8 697.9 700.1 673.4 640 702.1 600.8 624.5 612.8 618.4 649.4 590.1 683.8 664.9 697.3 659.1 679.2 622.8 682.3 618.9 Z" data-holc_grade="D"/>
<path d="M 926.1 493.3 891.3 422 996.1 334.4 1044 333.5 1058.6 332.2 1070.3 330.9 1084.8 348.6 1088.4 357.5 1044.3 391.1 1013.7 414.9 1010.2 417.6 984.2 438.3 956.6 460.5 944.5 473.5 926.1 493.3 Z" data-holc_grade="D"/>
<path d="M 1783.2 2216.7 1790.2 2216.4 1806.3 2215.6 1815.9 2213.2 1831 2213 1846.8 2212.8 1856.5 2212.5 1876.6 2211.7 1879.8 2211.6 1902.8 2211 1929.3 2210.2 1949.4 2209.6 1950.1 2224.2 1951.5 2252.7 1953.3 2290.9 1954.4 2311.1 1955.5 2334.1 1955.1 2350.7 1938.1 2342.2 1930.3 2353.5 1864.6 2335.2 1843.6 2336.6 1830.5 2336.2 1819 2336.8 1808.4 2337.3 1801.3 2333.1 1794.6 2331.3 1794.5 2331.2 1787.5 2329.2 1777.9 2327.4 1767.2 2326 1764.7 2325.6 1759.8 2324.9 1755.5 2322.8 1755.5 2318.9 1755.5 2313.3 1756.6 2307.6 1754.5 2304.8 1755.5 2301.2 1761.9 2298.4 1766.9 2296.3 1770.3 2297.1 1772.9 2297.7 1774.5 2296.8 1776.1 2295.9 1777.9 2292.7 1781.8 2289.9 1786.1 2293.1 1789.6 2294.2 1796.6 2295.9 1796.7 2295.9 1803.1 2298.7 1804.9 2296.6 1805 2295.5 1805.2 2292.4 1800.3 2290.6 1796 2289.6 1792.8 2287.4 1792.1 2283.2 1794.2 2279.3 1799.6 2275.8 1802.4 2272.2 1804.2 2268 1802.2 2267.3 1795.9 2270.2 1791.1 2273.9 1784.6 2279 1781.5 2280.1 1777 2282 1774.1 2288.8 1768.4 2293.9 1764.4 2295 1759.8 2289 1759.1 2281.8 1759.4 2276.1 1759.1 2270.5 1760.8 2263.4 1765.8 2258.4 1767.9 2253.1 1770 2247.2 1773 2245.3 1778.7 2245.4 1781.3 2249.4 1784.7 2256.2 1788.3 2257.5 1790.3 2255.3 1798.1 2253.8 1801.3 2250.7 1805.6 2249.6 1811.6 2250.3 1818 2248.9 1821.9 2246.8 1823.7 2247.8 1827.4 2248.7 1828.7 2246.9 1828.2 2242.6 1825.7 2239.4 1822.6 2238.9 1819.6 2239.8 1815.6 2242.7 1813.2 2244.7 1808.8 2244.2 1807.4 2237.2 1805.1 2235 1800.5 2238.1 1796 2238.4 1795.3 2236.2 1794 2231.4 1790.8 2230.9 1788.9 2235.4 1787.3 2242.5 1782.9 2245.8 1778.2 2242.9 1777.5 2239.7 1777.5 2234.8 1780 2230.4 1782.1 2225.2 1783.2 2216.7 Z" data-holc_grade="D"/>
<path d="M 1478.7 89.4 1458.8 105.7 1448.9 64.7 1437 66.4 1449.7 121.3 1416 124.1 1417.1 134.4 1313.8 129.8 1314.9 80.6 1317.7 77.7 1322.3 74.9 1325.7 72.4 1331.4 70.3 1336.8 68.9 1340.5 67.1 1343.3 64.7 1348.1 62.9 1355.8 61.5 1360.3 60.4 1366.9 57.9 1372.8 53 1376.5 49.8 1381.6 47.7 1385.9 46.2 1390.7 43.1 1396.4 41.3 1402.9 39.5 1409.4 37.7 1416.3 36 1421.4 32.8 1425.3 29.6 1429.9 25.7 1433.6 24.7 1438.1 22.9 1441.8 21.1 1445.2 19 1451.2 19 1467.5 16.9 1468.8 18.4 1484.6 84.6 1478.7 89.4 Z" data-holc_grade="D"/>
<path d="M 1971.3 2633.3 1955.1 2659.6 1926.4 2646.5 1927.8 2642.3 1927.2 2636.6 1925.5 2632.4 1922.4 2630.4 1910.4 2626.5 1906.2 2600.7 1917.2 2580.6 1929.5 2558.3 1961.6 2578.9 1950.5 2598.7 1967.6 2607.8 1957.9 2626.4 1971.3 2633.3 Z" data-holc_grade="D"/>
<path d="M 2366.2 2481.5 2346.2 2528.7 2337.4 2550.4 2331.2 2566.6 2327.7 2575.9 2319.3 2587.6 2310.4 2595.2 2305.3 2600.1 2295.7 2623.3 2294.1 2622.6 2271.9 2613.5 2245.9 2616.3 2221.2 2615.4 2219.8 2600.9 2213.9 2552.5 2237.5 2549.7 2236.9 2534.4 2262.8 2529.9 2261.6 2518.4 2260.8 2510.3 2267.7 2490.4 2270.5 2480.2 2270.6 2477.6 2270.8 2474 2274.3 2466.9 2279.1 2462.9 2284.1 2459.4 2286.9 2455.9 2290.7 2448.7 2295.7 2444.1 2298.7 2443.7 2299.1 2447.1 2298.7 2448.9 2298 2454.7 2299.4 2458.6 2303.4 2451.6 2309.9 2449 2314.5 2449 2319.8 2448 2323.9 2452.3 2325.5 2455.8 2327.7 2457.5 2330.2 2461.4 2333.4 2463.9 2339 2466 2345.8 2468.8 2347.9 2478 2352.2 2481.9 2355.7 2479.4 2359.6 2479.4 2364.3 2480.5 2366.2 2481.5 Z" data-holc_grade="D"/>
<path d="M 2392.2 2729.5 2336.3 2706.8 2319.8 2700.1 2323.5 2691.1 2343.5 2643.9 2359.5 2649.4 2373.4 2654.1 2379.9 2638.9 2396.2 2600.8 2347.8 2590.9 2343.4 2601.1 2327.6 2636.6 2295.7 2623.3 2305.3 2600.1 2310.4 2595.2 2319.3 2587.6 2327.7 2575.9 2331.2 2566.6 2337.4 2550.4 2346.2 2528.7 2366.2 2481.5 2368.2 2482.6 2370.7 2489.3 2371.7 2496 2372.5 2500.6 2374.2 2506.3 2376.7 2510.5 2379.9 2514.1 2384.2 2513 2386.3 2511.9 2384.2 2507.3 2379.9 2503.8 2378.5 2497.8 2381 2492.8 2385.6 2491.8 2389.9 2491.8 2392 2496.7 2397.7 2500.6 2403.4 2504.1 2410.1 2507.7 2416.5 2512.6 2420.4 2515.8 2421.8 2519.7 2418.6 2523.6 2416.2 2525.3 2413.7 2528.9 2413.3 2532.8 2415.1 2538.8 2416.2 2543.7 2418 2550.5 2422.2 2545.5 2421.9 2539.8 2424.7 2531.3 2426.5 2528.9 2431.1 2527.8 2436.1 2529.9 2443.9 2533.5 2447.4 2538.8 2447.8 2545.1 2448.9 2551.1 2450.3 2556.4 2441.4 2559.3 2436.8 2562.1 2434.3 2566.4 2434.3 2570.6 2438.2 2577 2439.3 2581.2 2441 2587 2439.9 2593.8 2437.6 2598.6 2434.5 2604.9 2453.6 2608.5 2444.5 2629.8 2431.3 2658.8 2420.4 2683.9 2419.8 2685.5 2414.5 2697.8 2409.8 2704.8 2392.2 2729.5 Z" data-holc_grade="D"/>
<path d="M 2295.7 2623.3 2327.6 2636.6 2328.8 2638.1 2327.5 2641.4 2325 2647.1 2321.8 2652.7 2319 2657.6 2316.5 2661.9 2313.6 2668.4 2313.9 2672.3 2312.3 2677.5 2311.2 2680.9 2310.7 2686.4 2302.1 2713.4 2298.1 2723.9 2296.1 2730.9 2296.1 2731 2293 2737.2 2290.6 2742 2290.1 2742.8 2287.9 2748.5 2285 2754.7 2281.9 2758.1 2276.8 2766.6 2275.1 2771.4 2272 2776.8 2269.4 2784.7 2266 2791 2262.6 2796.1 2258.1 2801.7 2244.4 2811.8 2235.4 2818.1 2235.7 2818.3 2229.1 2826.8 2186.5 2804.5 2185.4 2803.9 2181.9 2802.5 2178.3 2791.8 2170 2770.4 2168.7 2767.1 2138.8 2755.4 2166.5 2711.2 2153 2702.7 2149.5 2699.9 2150.9 2695.3 2151.2 2691 2147.7 2689.3 2141.3 2688.6 2137 2686.8 2138.4 2681.8 2141.3 2677.7 2142 2674.2 2142.4 2671.7 2143.8 2665.7 2144.4 2662.2 2145.6 2655.4 2143.1 2642.3 2136.7 2627.8 2141.3 2628.2 2154.1 2629.6 2165.5 2631.4 2171.5 2632.1 2178.6 2633.8 2187.9 2635.9 2198.5 2639.1 2214.5 2642.7 2217.7 2629.2 2221.2 2615.4 2245.9 2616.3 2271.9 2613.5 2294.1 2622.6 2295.7 2623.3 Z" data-holc_grade="D"/>
<path d="M 2319.8 2700.1 2336.3 2706.8 2392.2 2729.5 2391.9 2731.7 2392.7 2735.8 2393.8 2740.9 2394.2 2748.4 2393.6 2750.5 2394.2 2752.8 2394.9 2756.5 2394.9 2759.3 2395.8 2761.7 2396.6 2764.4 2395.4 2766.4 2392 2771.9 2394.1 2775.5 2393.8 2778.4 2394.9 2780.1 2398.2 2781.6 2400.2 2783.6 2398.1 2789.5 2399.3 2791.8 2398.8 2795.6 2399.7 2798.7 2398.2 2801.9 2401.1 2805.6 2402.9 2807.7 2404.1 2810 2405.3 2813.6 2405.6 2816.2 2403.6 2818.2 2401.9 2824.7 2398.2 2823.3 2393.5 2820.3 2392.3 2821.3 2394.2 2823 2397 2825.1 2400.1 2828.8 2402.7 2832.5 2404.6 2834.2 2407.8 2837 2410.9 2840.3 2412.5 2846.5 2413 2852.4 2413 2856.1 2412.4 2858 2411.2 2858.5 2407.3 2858.9 2405.1 2857.1 2400.1 2855 2393.4 2853 2385.8 2848.6 2382.8 2846.1 2377.9 2843.2 2375 2843.8 2369.6 2848.2 2363.3 2852.4 2356.1 2857 2347.7 2863.8 2335.7 2872.1 2325.2 2879.4 2323.9 2880.3 2306.6 2874.7 2305.4 2871.5 2297.1 2858.9 2290 2849.9 2284.2 2841.5 2281.5 2837.8 2276.6 2830.1 2286.2 2822.8 2293.3 2814.6 2298.2 2802.4 2300.7 2791.9 2302.1 2778.1 2302.1 2772.7 2304.9 2761.6 2304.4 2754.8 2306.6 2750.9 2305.7 2738.2 2310.3 2728.4 2310.7 2727.1 2313.3 2715.7 2318.9 2702.5 2319.8 2700.1 Z" data-holc_grade="D"/>
<path d="M 2544.1 2670.2 2545.6 2709 2582.5 2706.1 2582.7 2714.8 2583.4 2741.9 2583.7 2752.3 2548.7 2750.6 2523.7 2750.9 2500.7 2751.2 2477.4 2750.9 2477.4 2750.6 2477.4 2747.3 2427.9 2747 2428.2 2721.3 2428.1 2716.7 2427.6 2692.7 2483 2681.6 2485 2679.9 2500.1 2672.2 2544.1 2670.2 Z" data-holc_grade="D"/>
</g>
</svg>