<?xml version="1.0"?>
<svg xmlns="http://www.w3.org/2000/svg" version="1.2" baseProfile="tiny" width="2000" height="1994" viewBox="0 0 2000 1994" stroke-linecap="round" stroke-linejoin="round">
<g id="A">
<path d="M 1111.4 985.5 1113.6 984.5 1118 978.7 1115.6 971.7 1105.5 965.1 1096.6 961.4 1085.8 957.9 1084.3 955.3 1084.8 949.3 1091 947.7 1094.9 944.8 1094.4 942.5 1090.7 939.6 1083.8 936.5 1071.5 930.8 1063.1 930.2 1056.2 932 1049.3 936.1 1040 940.9 1039.7 948.1 1041 954.7 1036.5 961.6 1038.3 967.6 1041 974.4 1049.1 988.2 1043.9 989.6 1038.3 988.4 1031.4 984.1 1026 980.8 1023.7 980.6 1014.6 982.2 1004.5 977.9 987 970.7 987.5 969.1 990.2 962.1 994.7 957.3 998.9 950.3 1001.1 937.8 1005.3 930 1010.7 923 1021.5 914.7 1029.1 905 1029.9 904 1037 897.4 1053 881.4 1056.2 873.2 1055.5 866.2 1047.4 858.1 1039.2 846.8 1029.4 834.3 1020.5 822.5 1009.9 807.5 998.6 793.3 990.2 783.6 975.9 768.5 982.3 764.6 985.5 763.8 989.9 765.6 998.3 773 1007.2 778.4 1015.5 782.9 1021 790.7 1029.1 793.6 1038.7 793.6 1041.4 788.7 1048.8 787.2 1050.5 784.1 1052.5 777.1 1057.7 773.6 1064.8 770.1 1066.3 767 1063.3 764.6 1060.9 763.1 1060.6 759.8 1063.1 755.3 1068 754.1 1076.1 749.7 1079.1 745.6 1086.2 742.7 1093.9 742.8 1103 741.7 1108.6 739.7 1114 736 1116.8 729.2 1115 725.1 1113.3 720.5 1112.6 717 1114.3 714.8 1119 711.9 1126.6 709.4 1126.6 705.3 1127.6 703.6 1129.3 702.4 1133.5 702.4 1140.4 703.8 1146.8 702 1150.7 697.5 1151.8 691 1155.5 685.9 1159.2 681.7 1157.1 676.6 1152.2 674 1152.2 672 1152.8 670.1 1156.8 667.6 1158 665 1156.5 660.3 1157.1 655.2 1184.2 654.8 1184.5 652.8 1191.7 659.3 1195.1 663.4 1197.8 671.4 1200.5 674.1 1208.2 674.9 1209.6 675.6 1218.8 679.5 1224.4 683 1232.1 690 1241.4 696.6 1249.8 701.9 1274.9 705.4 1281.8 707.3 1291.9 711.4 1300.5 730.5 1301.2 734 1306.7 740.2 1306.2 744.3 1306.2 748.2 1302 755.8 1294.4 765.3 1289.2 774.2 1290.9 781.4 1286.2 787.7 1284 794.9 1283.8 801.3 1281.5 809.3 1284.7 818 1288 827.5 1291.2 831.4 1292.4 836.5 1290.7 840.6 1285.5 848.5 1282.5 855.5 1279.3 863.9 1278.3 869.2 1283.8 875.2 1288.2 877.7 1290.7 878.7 1292.6 880.8 1305.2 884.5 1292.1 894.6 1259.9 931.8 1249.5 940.7 1243.6 949.1 1238.7 951 1230.1 951.4 1214.3 949.5 1192.9 946.8 1176.4 946.6 1151 946.8 1151.3 954.9 1149.8 956.5 1148.8 961 1149.6 963.7 1160.6 972.6 1165.1 976.5 1168.3 979.6 1173 981.8 1177.1 984.3 1178.4 984.5 1182.8 985.1 1193.6 985.9 1213.8 985.9 1224.7 985.3 1234.8 985.3 1241.4 985.9 1245.6 987.8 1250.5 989 1252.7 989 1272.7 982.8 1278.1 981.2 1281.8 979.6 1285 980 1286.7 981 1288.7 983.7 1294.6 988 1302.2 990.5 1312.1 991.9 1319.2 992.7 1327.8 996.2 1334.7 999.5 1339.9 1004.4 1344.1 1014.5 1345.6 1020.7 1349 1023.4 1354.7 1026.5 1360.6 1032.4 1362.8 1034.5 1364.5 1037.2 1367.2 1048.9 1369.5 1056.5 1369.2 1062.7 1370.7 1067.6 1374.4 1072.8 1373.9 1075.9 1363.5 1083.5 1354.7 1086.3 1347.8 1087.6 1335.7 1087.6 1326.6 1085.7 1317.3 1081.4 1304.4 1076.3 1292.6 1071.9 1282.8 1067.8 1279.6 1063.9 1275.9 1057.1 1269.5 1049.9 1265 1043.5 1258.9 1038.8 1242.4 1036.6 1234.8 1035.1 1232.8 1033.7 1230.1 1030.4 1215.1 1021.1 1200 1012.3 1183.3 1003.4 1177.1 1001.8 1167.8 999.9 1156.7 995.2 1146.6 992.1 1136 991.1 1120.8 990.2 1115.1 988.2 1111.4 985.5 Z" data-holc_grade="A"/>
<path d="M 543.5 118.9 537.4 123.1 533.5 125 531 133.2 530.1 136.7 523.7 131.1 520.6 126.7 515.8 124.3 509.8 124.8 488.5 129.9 495 133.6 501.8 135.8 505.1 137.2 506.2 138.8 506.9 144.3 492.8 147.4 488.1 149.3 483.4 152.7 479.4 155.9 473.8 160.5 465.2 164.6 460.5 166.7 454.7 166.8 448.2 166.2 440.5 162.7 435.5 158.5 424.9 150 417.9 146.1 409.6 151.3 408.8 147.7 405.7 144.9 401.1 143.6 392.8 143.3 387.8 143.9 389.8 151.6 387.6 158.9 386.3 156.8 379 150.8 373.5 147 368 142.8 365.9 139.3 363.6 135.4 363.2 128.5 354.2 115.6 346.8 108.6 344.4 106.1 342.8 105 331.7 102 329.3 102.3 325.7 102.3 323.5 101.5 323.1 100 326.8 99.1 329.1 96.2 329.4 93.7 324.5 93.3 324.9 91.5 325.7 88.4 328.7 85.6 326.3 85.6 321.9 85.2 317 84.2 313.7 83.3 311 81.4 308.7 79.3 306.9 76.8 306.4 75 307.3 72.4 308.1 71.2 312.5 69.2 318.3 66.7 315.1 60.8 315.9 60.4 318.4 59.6 321.1 59.3 325 59.7 327.2 61 328.4 62.9 330.5 64.6 334.7 66 338.8 65.9 341.6 65.1 342 63.2 341.9 60.9 341.7 55.6 342.9 52.3 343.7 48.4 342.5 44.5 339.5 41.2 335.8 37.8 333.3 34 338.5 30.2 342.2 28.5 351.8 24.8 359.5 22.7 365.1 20.6 371.6 16.3 376 12.5 379.3 10.3 387 7.6 394.3 5.6 400.3 3.9 403.8 2.2 404.3 1.1 409.8 1 410.1 4.7 409.2 7 408.8 9.1 414.1 12.9 429.3 22.4 433.3 25.8 437.4 29.4 442.8 33.3 447.4 36.4 454.1 41.6 458.6 45.1 468.4 49.8 475.8 54.3 482.8 59.2 497 71.4 505 75.9 515.3 86.2 523.5 92.9 532.4 101 536.1 106.5 543.5 118.9 Z M 365.3 116.3 370.1 117.6 377 116.5 382 115.6 385.5 114.7 385 111.9 383.3 110.2 381.2 108.8 378.1 108.6 371.4 109.5 366 109 362.9 106.9 362.2 111 363.1 114 365.3 116.3 Z M 479.6 143.7 479 141.5 476.1 140 472 140.7 472.6 144.8 479.6 143.7 Z" data-holc_grade="A"/>
<path d="M 785 1029.8 781.6 1036 781.1 1040.7 782.3 1045.9 766.1 1050.2 752 1044.4 748.8 1044.2 705 1029.6 674.7 1050.2 661.2 1045.9 683 1017.6 683.5 1020 689.7 1022.5 699.5 1021.3 702 1016.9 706.4 1015.3 713.6 1016.7 723.4 1020.2 733.3 1025.8 740.2 1028.9 753.9 1028.9 761.6 1030.3 774.6 1030.3 785 1029.8 Z" data-holc_grade="A"/>
<path d="M 1111.4 985.5 1102.6 982.2 1098.2 980.5 1094 980.7 1090.3 981.8 1089 985.5 1088.3 991.4 1086.1 996.2 1085.1 999.2 1082.9 1001.7 1077.9 1003.1 1075.3 1003.8 1064.7 998.4 1072.5 990.8 1072.8 988.1 1072.3 986.9 1071.3 986.7 1067.9 987.7 1062.7 990 1056.3 990.6 1049.1 988.2 1041 974.4 1038.3 967.6 1036.5 961.6 1041 954.7 1039.7 948.1 1040 940.9 1049.3 936.1 1056.2 932 1063.1 930.2 1071.5 930.8 1083.8 936.5 1090.7 939.6 1094.4 942.5 1094.9 944.8 1091 947.7 1084.8 949.3 1084.3 955.3 1085.8 957.9 1096.6 961.4 1105.5 965.1 1115.6 971.7 1118 978.7 1113.6 984.5 1111.4 985.5 Z" data-holc_grade="A"/>
<path d="M 324.5 93.3 324.1 95.7 323.1 100 323.5 101.5 325.7 102.3 329.3 102.3 331.7 102 342.8 105 344.4 106.1 346.8 108.6 354.2 115.6 363.2 128.5 363.6 135.4 365.9 139.3 368 142.8 373.5 147 379 150.8 386.3 156.8 387.6 158.9 387.4 163.7 376.7 161.5 363.4 160.7 350.5 160.9 340.5 163.6 337.9 155.4 336.1 150.9 326.5 151.9 322.3 144.3 314.2 146.8 307.3 148.6 303.1 148 302.5 145.2 298.3 137.3 295 131.1 288.7 126.4 275.1 116.5 267 109.9 258.7 104.5 253.6 98.3 251.4 89.1 250.9 85.5 251 80.9 249.5 75.4 247.3 72.3 253.5 69.9 258.8 68.1 262.7 68.9 265 67.8 269.5 63.3 273.6 61.2 277.5 59.4 282.1 58.2 286.5 57.8 291.2 56.3 302.8 53.2 306.5 53.2 309.8 53.2 312.5 53.3 315.6 52.9 320 52 322.9 50.1 324.7 47.5 333.3 34 335.8 37.8 339.5 41.2 342.5 44.5 343.7 48.4 342.9 52.3 341.7 55.6 341.9 60.9 342 63.2 341.6 65.1 338.8 65.9 334.7 66 330.5 64.6 328.4 62.9 327.2 61 325 59.7 321.1 59.3 318.4 59.6 315.9 60.4 315.1 60.8 318.3 66.7 312.5 69.2 308.1 71.2 307.3 72.4 306.4 75 306.9 76.8 308.7 79.3 311 81.4 313.7 83.3 317 84.2 321.9 85.2 326.3 85.6 328.7 85.6 325.7 88.4 324.9 91.5 324.5 93.3 Z" data-holc_grade="A"/>
<path d="M 483.7 213 487.4 206.6 489 200.7 489 197.4 489.5 194.3 491.4 192.8 494 191.6 497.6 190.4 500 189.5 501 187.4 500.9 185.5 499.3 182.7 494.4 178.7 492 176.2 490.9 170.3 496.5 167.5 506.6 165 510.5 165.3 513.8 165.5 517 165.3 523.1 163.6 528.7 160.4 527.6 159.9 524.3 159.9 521.8 159.6 518.4 158.5 517.7 157.5 516.8 156.1 519.1 152.3 518.4 149.7 514.1 145.9 510.6 144.3 506.9 144.3 506.2 138.8 505.1 137.2 501.8 135.8 495 133.6 488.5 129.9 509.8 124.8 515.8 124.3 520.6 126.7 523.7 131.1 530.1 136.7 531 133.2 533.5 125 537.4 123.1 543.5 118.9 546.4 123.5 549.1 129.1 552.8 133.1 559.2 137.1 567 140.3 583.3 149.1 600.1 157.5 604.4 159.7 616.2 165.8 619.2 168.2 622.5 170.7 624.9 174 625.7 177.3 626.5 185.3 628.4 196.1 629 198.6 635.1 202 641 205.1 645 208.4 653.4 214 655.9 218.2 655.5 231.2 659 256.2 613.1 261.2 612.9 258.5 611.5 257 604.6 256.4 598.7 255.8 596.2 254.1 594.5 249.1 592.4 242.5 586.8 234.9 583.9 233.1 583.3 233.2 583.8 235.5 583.9 238.1 583.4 238.9 581.4 238.4 577.9 234.3 576.3 230.6 573.2 227.3 568.4 225.2 559.6 225.2 555.2 225.8 549.4 230 541.9 233 534.4 235.5 519.6 236.9 515.8 238.2 499.5 240.2 498.1 237.3 496 234.5 490.4 231 486.5 227.1 485 222.8 484.2 218.3 483.7 213 Z" data-holc_grade="A"/>
<path d="M 701.1 562.5 649.9 568.8 648.4 551.3 645.6 545.5 659.8 529.2 685.3 527.5 681.6 498.4 648.4 499.6 645.9 479.6 652.7 478.7 648.7 449.8 693.3 446.3 771.6 443.3 775.1 443.7 783.6 440.9 789.7 436.9 800.5 427.2 810.4 418 816.1 412.8 820.8 409.7 824.1 404.6 838.6 394.5 845.8 394.6 850.8 396.4 853.3 399.5 855.7 405.1 860.8 418.5 865.2 427.4 868.1 431.7 874.2 435.5 878.2 437.2 886 439.2 891.5 439 898.6 438.4 901 438 904.7 439.8 909.5 441.8 918.9 443.9 922.1 447.3 924.8 450.9 926.4 456.9 929.8 455.5 934.1 455.8 937.3 458.3 945.7 467.5 952.4 476.1 957.7 483.8 960.9 488.7 963.8 491.8 964.2 494.3 962.9 498.9 959.7 504.1 950 514.2 946.6 519.8 930 524.7 921 527.8 892.7 534.6 873 541.2 865 541.7 859.2 541.2 856.8 539.2 856.4 534.7 856 532.2 850.1 530 839.1 528.6 828.5 529.7 819.8 531.1 809.8 531.4 804.8 529.4 799.5 528.3 793.2 529.8 790.1 532.5 775.5 536.2 778.6 557.8 709.5 561.4 701.1 562.5 Z" data-holc_grade="A"/>
<path d="M 742.8 669.5 734.6 671.7 729.3 673.1 723 676.8 716.7 681.3 711.7 684.4 704 686.8 696.8 687.7 693 686.4 690.8 682.7 690.3 678.1 694.3 674.6 693.8 663.7 690.1 654.1 677.3 652.2 675.8 650.2 682.7 642.3 687.4 640.9 696.5 642.5 704.1 641.1 710 637.6 710.3 632.2 707.8 626.9 704.1 623.4 702.1 620.7 702.6 618 705.6 612.7 704.4 608.4 714.2 608.8 721.3 611.7 725.3 615.4 729.5 619.5 734.4 620.7 738.1 619.3 736.1 613.1 736.9 609 741 604.7 741 602.2 725.8 590.6 735.9 589.4 745 590.2 753.1 592.9 763.2 599.7 769.6 605.5 770.4 610.2 767.6 614.3 759.8 614.5 769.1 625.2 774.5 625.4 777.5 623.6 780.2 631.2 784.1 631.2 787.1 632.9 789.6 636.8 789.6 641.7 788.1 645.4 776 652.6 777.2 655.5 742.8 669.5 Z" data-holc_grade="A"/>
<path d="M 975.9 768.5 990.2 783.6 998.6 793.3 1009.9 807.5 1020.5 822.5 1029.4 834.3 1039.2 846.8 1047.4 858.1 1055.5 866.2 1056.2 873.2 1053 881.4 1037 897.4 1029.9 904 1029.1 905 1014.3 896.1 981.2 873.6 955.8 857.7 943 848 920.2 835.5 882.6 783.6 889.4 782.2 895.8 778.5 907.2 766.6 912.1 761.2 917.7 758.3 926.3 756.6 940.8 754.2 948.5 754.2 959.5 756.6 967.9 761.7 974.3 767.3 975.9 768.5 Z" data-holc_grade="A"/>
<path d="M 882.6 783.6 920.2 835.5 887.8 839.5 888.8 843.8 893.3 848.8 899.7 852.7 901.1 857 898.7 860.1 893.3 861.7 889.8 861.3 894.7 871 894.2 876.8 871.6 878.8 875.5 943 841.6 934.9 810.8 928.9 805.6 920.7 801.4 912.7 800.7 906.7 795.3 900.7 786.7 896.8 787.4 890.1 783.2 888.4 747.8 904.2 758.6 887.4 765.7 887 766.2 872.6 764 869.7 762.3 861.7 756.4 857.9 748.3 850.3 745.6 845.2 741.4 834.3 736.2 829.3 752 825.8 758.8 819.7 770.7 818.8 778.3 816 807.9 812 820.2 810.6 822.1 805.9 817.9 799.1 806.4 782.6 805.6 774.2 809.3 771.5 821.4 770.9 833.7 773.3 847.7 778.5 858.1 783 870.1 783.2 882.6 783.6 Z" data-holc_grade="A"/>
<path d="M 1029.1 905 1021.5 914.7 1010.7 923 1005.3 930 1001.1 937.8 998.9 950.3 994.7 957.3 990.2 962.1 987.5 969.1 987 970.7 958.5 963.6 910.2 951.6 875.5 943 871.6 878.8 894.2 876.8 894.7 871 889.8 861.3 893.3 861.7 898.7 860.1 901.1 857 899.7 852.7 893.3 848.8 888.8 843.8 887.8 839.5 920.2 835.5 943 848 955.8 857.7 981.2 873.6 1014.3 896.1 1029.1 905 Z" data-holc_grade="A"/>
<path d="M 810.8 928.9 841.6 934.9 875.5 943 910.2 951.6 896.7 963.4 892.3 968.7 882.2 973.9 874.3 977.6 865.2 984.8 854.1 987.3 842.3 990.4 834.4 995.7 824.1 999.6 809 1002.3 800.9 1002.1 797.2 1005 788.6 1010.9 778.3 1015.9 764 1015 756.1 1012.8 746.5 1007.6 738.9 1006.4 732.7 1003.3 722.1 996.5 709.3 989.7 699.5 983.8 697.3 981.5 697.6 979.2 706.7 979.1 716.5 986.1 727.2 989.8 740 991.2 750.2 991 764.6 988.2 774 987.6 781.1 982.6 793.7 977.8 806.5 975.3 819.3 974.2 823.3 972.4 814.8 968 810.7 963 808.1 956.8 808.1 952.9 811.9 950.1 813 948.2 811.5 943.1 807.5 940.8 805 937.4 803.8 933.3 804.7 927.5 810.8 928.9 Z" data-holc_grade="A"/>
</g>
<g id="B">
<path d="M 234.5 151.8 237.9 76.2 242.4 73.7 247.3 72.3 249.5 75.4 251 80.9 250.9 85.5 251.4 89.1 253.6 98.3 258.7 104.5 267 109.9 275.1 116.5 288.7 126.4 295 131.1 298.3 137.3 302.5 145.2 303.1 148 265.8 150.4 234.5 151.8 Z" data-holc_grade="B"/>
<path d="M 468.1 647.6 500 643.1 493.5 684.2 471 684.7 465.1 648 468.1 647.6 Z" data-holc_grade="B"/>
<path d="M 725.8 590.6 741 602.2 741 604.7 736.9 609 736.1 613.1 738.1 619.3 734.4 620.7 729.5 619.5 725.3 615.4 721.3 611.7 714.2 608.8 704.4 608.4 705.6 612.7 702.6 618 702.1 620.7 704.1 623.4 707.8 626.9 710.3 632.2 710 637.6 704.1 641.1 696.5 642.5 687.4 640.9 682.7 642.3 675.8 650.2 677.3 652.2 690.1 654.1 693.8 663.7 694.3 674.6 690.3 678.1 690.8 682.7 693 686.4 690.6 687 660.3 704.3 654.6 705.5 648.2 706.8 631 714 618.4 715.8 609.8 716.9 615.6 708 649.2 655.5 653.4 646.6 687.9 598.5 636.9 619.5 625.3 601.8 605.6 607.9 617.4 595.8 611.3 584.9 595.3 590 593 585.3 591.8 583 601.9 570.8 649.9 568.8 701.1 562.5 699.9 571.1 710.8 572.1 723.3 572.7 726.3 584.3 725.8 590.6 Z" data-holc_grade="B"/>
<path d="M 779.4 588.1 779.6 614.7 782.8 615.3 795.9 623.9 799.3 627.4 803 634.8 813.4 641.2 820 647 826.9 648.6 830.6 649 838.2 650.3 844.1 653.8 848.1 653.1 853.3 654 859.7 656.4 868.3 662.6 880.8 666.3 929.1 716 982.3 764.6 975.9 768.5 974.3 767.3 967.9 761.7 959.5 756.6 948.5 754.2 940.8 754.2 926.3 756.6 917.7 758.3 912.1 761.2 907.2 766.6 895.8 778.5 889.4 782.2 882.6 783.6 876.1 773.9 866.9 765.4 848.4 754.4 841 748.5 742.8 669.5 777.2 655.5 776 652.6 788.1 645.4 789.6 641.7 789.6 636.8 787.1 632.9 784.1 631.2 780.2 631.2 777.5 623.6 774.5 625.4 769.1 625.2 759.8 614.5 767.6 614.3 770.4 610.2 769.6 605.5 763.2 599.7 753.1 592.9 745 590.2 735.9 589.4 725.8 590.6 726.3 584.3 723.3 572.7 729.7 569.2 739.6 568 749.7 570.1 753.9 572.1 759.3 577.5 767.4 583.4 779.4 588.1 Z" data-holc_grade="B"/>
<path d="M 880.8 666.3 880.3 663.2 884.3 657.7 890.2 652.1 894.6 649.2 904.5 648.6 911.9 649 915.6 650.3 917.3 653.4 918.8 660.1 917.5 665.1 928.2 672.5 931.5 679.8 933 684.2 933 691.7 941.8 700.2 950.7 705.7 957.4 716 960.3 714.5 966.6 716 970.3 726.5 974.7 731.1 979.9 737.5 993.2 748.6 1012.4 737.3 1019 720 1022 710.4 1024.6 697.3 1029 685.9 1034.6 681.8 1039.7 672.5 1044.9 668.1 1043.4 654.7 1043.8 645.7 1047.1 632 1053.4 620 1066 605.2 1074.6 591.8 1085.7 576 1096.7 568.7 1105.7 562.1 1114.9 569.2 1120.4 580.6 1123.2 590.3 1123.5 595 1130.9 598.4 1143.5 600.8 1155.8 604.4 1162.6 610.3 1166 614.6 1167.5 623.9 1168.8 633.6 1183.9 648.9 1184.5 652.8 1184.2 654.8 1157.1 655.2 1156.5 660.3 1158 665 1156.8 667.6 1152.8 670.1 1152.2 672 1152.2 674 1157.1 676.6 1159.2 681.7 1155.5 685.9 1151.8 691 1150.7 697.5 1146.8 702 1140.4 703.8 1133.5 702.4 1129.3 702.4 1127.6 703.6 1126.6 705.3 1126.6 709.4 1119 711.9 1114.3 714.8 1112.6 717 1113.3 720.5 1115 725.1 1116.8 729.2 1114 736 1108.6 739.7 1103 741.7 1093.9 742.8 1086.2 742.7 1079.1 745.6 1076.1 749.7 1068 754.1 1063.1 755.3 1060.6 759.8 1060.9 763.1 1063.3 764.6 1066.3 767 1064.8 770.1 1057.7 773.6 1052.5 777.1 1050.5 784.1 1048.8 787.2 1041.4 788.7 1038.7 793.6 1029.1 793.6 1021 790.7 1015.5 782.9 1007.2 778.4 998.3 773 989.9 765.6 985.5 763.8 982.3 764.6 929.1 716 880.8 666.3 Z" data-holc_grade="B"/>
<path d="M 882.6 783.6 870.1 783.2 858.1 783 847.7 778.5 833.7 773.3 821.4 770.9 809.3 771.5 805.6 774.2 782.3 782.3 766.3 783.8 742 791.1 722.6 792 713 791.8 697.9 794.2 702.9 803.5 697.9 805.4 702.2 814.9 706.6 828.3 693.9 831.7 693.3 845.5 683.2 873.5 677 898.8 668.5 896.5 644.4 875.7 627.8 861.5 633.4 856.4 630.3 850.8 639.8 841.5 641.5 837.5 642.9 834 643.5 824.3 666.9 815.3 672.5 811.6 681.7 798 687.2 790.2 690 788.8 692.8 787.3 713.1 781.7 739 776.9 764.8 769.3 782.4 767.1 788.5 766.9 791.6 766.2 792.8 763.2 794.1 761.3 804.5 757.9 841 748.5 848.4 754.4 866.9 765.4 876.1 773.9 882.6 783.6 Z" data-holc_grade="B"/>
<path d="M 810.8 928.9 804.7 927.5 731.9 911.6 700.1 904.6 677 898.8 683.2 873.5 693.3 845.5 693.9 831.7 706.6 828.3 702.2 814.9 697.9 805.4 702.9 803.5 697.9 794.2 713 791.8 722.6 792 742 791.1 766.3 783.8 782.3 782.3 805.6 774.2 806.4 782.6 817.9 799.1 822.1 805.9 820.2 810.6 807.9 812 778.3 816 770.7 818.8 758.8 819.7 752 825.8 750.9 822.5 746.3 816.9 742.5 810 741.5 801 735 801 725.4 814.6 734.6 828 736.2 829.3 741.4 834.3 745.6 845.2 748.3 850.3 756.4 857.9 762.3 861.7 764 869.7 766.2 872.6 765.7 887 758.6 887.4 747.8 904.2 783.2 888.4 787.4 890.1 786.7 896.8 795.3 900.7 800.7 906.7 801.4 912.7 805.6 920.7 810.8 928.9 Z" data-holc_grade="B"/>
<path d="M 641.5 837.5 639.8 841.5 630.3 850.8 633.4 856.4 627.8 861.5 644.4 875.7 637.7 877.1 635.9 879.3 637.1 881.5 648.8 892.9 631 908.7 601.1 886.8 591 871 588.2 866.6 591.9 865.7 605.1 859.8 611.3 855.2 613.7 849.4 620.8 847.2 626.7 842.1 628.2 836 628.2 829.2 641.5 837.5 Z" data-holc_grade="B"/>
<path d="M 591 871 601.1 886.8 631 908.7 648.8 892.9 637.1 881.5 635.9 879.3 637.7 877.1 644.4 875.7 668.5 896.5 677 898.8 700.1 904.6 731.9 911.6 717.1 921.5 713.2 924.9 710 928.7 710.2 931.7 710.7 935 709.5 938.3 704.3 942.2 697.9 946.1 693 946.6 689.5 944.3 687.5 941.6 688.3 937.9 691.5 931.3 685.6 932.6 675.3 932.6 671.3 932.6 661.7 930.9 657.3 933.8 655.3 934.2 653.1 940.4 651.3 950.1 647.2 954.4 636.1 959.3 628 943.9 626.5 935.2 625.2 928.2 622.5 922.9 619.3 918.6 615.2 915.7 608.3 912.2 595 906.6 587.6 901.5 581.4 896.1 569.6 887.9 561.2 882.8 561 892.6 558.8 897 553.6 900.9 546 903.3 536.8 907.9 523.5 914.9 514.2 907.9 517.1 906 523.8 901.1 527.7 895.1 530.2 889.1 544 881.5 548.2 875.8 555.3 868.4 565.9 866.5 570.6 870.2 577 871.8 591 871 Z" data-holc_grade="B"/>
<path d="M 636.1 959.3 635.1 965.8 632.8 972.8 626.9 976.2 618.8 978.5 615.6 978.8 612.2 982.3 608.3 985 600.5 988.1 588.7 990.1 579.8 990.6 568 989.5 565.6 988 565.9 979.1 561.5 972.1 555.6 965.6 545.7 960.1 538.7 955 534.6 952.5 529.9 954.9 525.9 950.1 522.2 945.6 526 945.2 532.7 944.9 537.4 943.1 546.3 938.7 550.7 937.9 555.3 938.2 559.1 938.5 589.4 920.3 592.1 922.4 593.5 925.2 594.6 928.9 598.3 929.9 603.4 928.7 607.4 926.7 608.8 922.2 610.1 918.8 615.2 915.7 619.3 918.6 622.5 922.9 625.2 928.2 626.5 935.2 628 943.9 636.1 959.3 Z" data-holc_grade="B"/>
<path d="M 804.7 927.5 803.8 933.3 805 937.4 807.5 940.8 811.5 943.1 813 948.2 811.9 950.1 808.1 952.9 808.1 956.8 810.7 963 814.8 968 823.3 972.4 819.3 974.2 806.5 975.3 793.7 977.8 781.1 982.6 774 987.6 764.6 988.2 750.2 991 740 991.2 727.2 989.8 716.5 986.1 706.7 979.1 697.6 979.2 692.3 974.7 672 980.2 657.8 985.8 649.5 981.6 657 972.5 664.7 960.2 669 949.3 671.6 939.8 675.3 932.6 685.6 932.6 691.5 931.3 688.3 937.9 687.5 941.6 689.5 944.3 693 946.6 697.9 946.1 704.3 942.2 709.5 938.3 710.7 935 710.2 931.7 710 928.7 713.2 924.9 717.1 921.5 731.9 911.6 804.7 927.5 Z" data-holc_grade="B"/>
<path d="M 237.9 76.2 234.5 151.8 156.5 156.7 146.4 125.9 144.9 119.4 139.4 100.9 134.4 88.1 131.4 75.7 140.5 75.1 149 75 157.1 76.1 163.8 77.8 172.4 79.3 182.9 80.9 191.2 83 197.7 85.2 202.8 87.2 207.7 87.7 213.8 88.3 219.5 87.7 223.9 86.6 229 83.7 232.1 80.6 237.9 76.2 Z M 204.6 99.8 187.6 98.6 186.3 116.7 203.3 117.7 204.6 99.8 Z" data-holc_grade="B"/>
<path d="M 683 1017.6 661.2 1045.9 674.7 1050.2 705 1029.6 748.8 1044.2 743.4 1047.6 741 1050.6 742.4 1054.8 739.7 1060.7 739.7 1062.4 740.8 1066 740.8 1069.4 738.3 1071.8 696.5 1076.1 679.2 1079.6 671.5 1080.5 660.9 1083.6 654.8 1070.2 649 1071.1 653 1058.4 631.2 1049.7 638.1 1046.7 647 1040.5 662.7 1023.6 682.3 1014.7 683 1017.6 Z" data-holc_grade="B"/>
<path d="M 958.5 963.6 943.1 974.1 923.4 986.5 909.8 992.1 903.2 991.8 898.7 994.3 886.9 1002.1 878.8 1008.3 873.4 1016.5 868 1020 861.1 1022.3 855.4 1025.6 849.7 1030.9 845.3 1034.4 837.2 1036.1 827.8 1034.9 818 1031.1 815.3 1031.1 812.8 1032.8 807.6 1034.4 802.5 1033 791.1 1029.5 785 1029.8 774.6 1030.3 761.6 1030.3 753.9 1028.9 740.2 1028.9 733.3 1025.8 723.4 1020.2 713.6 1016.7 706.4 1015.3 702 1016.9 699.5 1021.3 689.7 1022.5 683.5 1020 683 1017.6 682.3 1014.7 690.2 1004.4 686.7 1002.8 671 997.8 662.8 994.1 697.3 981.5 699.5 983.8 709.3 989.7 722.1 996.5 732.7 1003.3 738.9 1006.4 746.5 1007.6 756.1 1012.8 764 1015 778.3 1015.9 788.6 1010.9 797.2 1005 800.9 1002.1 809 1002.3 824.1 999.6 834.4 995.7 842.3 990.4 854.1 987.3 865.2 984.8 874.3 977.6 882.2 973.9 892.3 968.7 896.7 963.4 910.2 951.6 958.5 963.6 Z" data-holc_grade="B"/>
<path d="M 1049.1 988.2 1056.3 990.6 1062.7 990 1067.9 987.7 1071.3 986.7 1072.3 986.9 1072.8 988.1 1072.5 990.8 1064.7 998.4 1075.3 1003.8 1077.9 1003.1 1100.3 1011.7 1074.9 1023.4 1060.7 1031.6 1050.2 1025.7 1045.1 1025.7 1039.2 1026.8 1039.2 1025.4 1038.6 1021.8 1036.9 1018.7 1034.7 1015.3 1031.5 1012.5 1023.9 1022.5 1017.2 1029.1 1008.1 1033.3 999.8 1034.6 996.1 1034 993.7 1033.7 977.6 1029.5 975.2 1019.2 977 1009.2 980.3 1001 983.9 996.8 988 993.2 998 988.4 1001 987.3 1000.6 980.9 1004.5 977.9 1014.6 982.2 1023.7 980.6 1026 980.8 1031.4 984.1 1038.3 988.4 1043.9 989.6 1049.1 988.2 Z" data-holc_grade="B"/>
<path d="M 977.6 1029.5 974.9 1032 974 1033.5 973.5 1040.4 971.1 1048.3 966.5 1056.1 966.1 1058.8 967.9 1061.4 969.6 1063.2 963 1078.1 958 1092.2 967.4 1094.2 958.8 1114.5 941.5 1156.2 928.7 1153.2 930.9 1149.9 934.6 1136.8 936 1126.3 933.5 1121.9 919.4 1119 923.5 1100 883.6 1093.6 874.7 1116.1 859.2 1113.5 867 1090.7 819.7 1080.5 816.7 1091.9 791.6 1087.5 775.7 1098.9 764.7 1093 756.9 1097.1 743.2 1083.1 743.2 1081.4 752.5 1077.3 758.4 1077.3 766.1 1078.2 773.2 1079.9 778.7 1076.1 786.5 1080.2 800.5 1070 806.4 1073.8 832.3 1052.8 830.8 1048.1 827.8 1044.9 822.3 1043.1 813 1042.3 806.4 1043.7 802 1046.9 792.4 1054.2 782.3 1045.9 781.1 1040.7 781.6 1036 785 1029.8 791.1 1029.5 802.5 1033 807.6 1034.4 812.8 1032.8 815.3 1031.1 818 1031.1 827.8 1034.9 837.2 1036.1 845.3 1034.4 849.7 1030.9 855.4 1025.6 861.1 1022.3 868 1020 873.4 1016.5 878.8 1008.3 886.9 1002.1 898.7 994.3 903.2 991.8 909.8 992.1 923.4 986.5 943.1 974.1 958.5 963.6 987 970.7 1004.5 977.9 1000.6 980.9 1001 987.3 998 988.4 988 993.2 983.9 996.8 980.3 1001 977 1009.2 975.2 1019.2 977.6 1029.5 Z M 905.8 1020.6 898.7 1013.3 873 1026.2 879.7 1034.1 905.8 1020.6 Z" data-holc_grade="B"/>
<path d="M 919.4 1119 916.6 1120.4 919.3 1129 919.3 1134.4 916.5 1142.2 912.6 1148.7 901.9 1148 898.5 1151.6 886.5 1144 882.1 1138.2 878.7 1128.5 874.7 1116.1 883.6 1093.6 923.5 1100 919.4 1119 Z" data-holc_grade="B"/>
<path d="M 941.5 1156.2 912.9 1223.4 899.3 1218.1 906 1204.5 908 1198.3 904.6 1186.8 908.2 1183.8 913.1 1171.2 914.1 1159.7 918.4 1155.9 921.9 1155.8 928.7 1153.2 941.5 1156.2 Z" data-holc_grade="B"/>
<path d="M 1009 1085.9 1005.4 1084.5 993.7 1082.7 982.1 1079.9 976.6 1077.1 979.8 1069.1 985.1 1058.8 997.9 1060.9 1009.7 1043.4 1018.5 1047.3 1008.7 1059 1007 1063.5 1012.6 1065.6 1021.5 1071.8 1041.4 1053.2 1063.4 1067.9 1086 1075.7 1068 1093.4 1053 1082.7 1036.3 1100.1 1012.1 1082.9 1009 1085.9 Z" data-holc_grade="B"/>
<path d="M 1081.9 1130.9 1047.6 1164.3 1011.4 1150.5 1012.8 1138.3 1006.9 1134.6 1015.5 1106.3 1046.6 1113.3 1051 1116.1 1053.5 1119.7 1069.3 1126.7 1081.9 1130.9 Z" data-holc_grade="B"/>
<path d="M 1143.2 1114 1123.6 1147.8 1118.5 1152.3 1094.4 1130.8 1087.5 1124.8 1126.6 1086.5 1136.1 1094 1132.9 1104.1 1143.2 1114 Z" data-holc_grade="B"/>
<path d="M 1257 1088.4 1252.3 1089.3 1241.7 1089.3 1234.6 1091.6 1226.9 1094 1219.6 1097.3 1217.3 1101.7 1210.7 1093 1205 1086.6 1200.3 1081.9 1196.9 1081.1 1193.7 1081.7 1186.1 1088.3 1186.1 1090.6 1183.4 1095.1 1175.7 1103.1 1175.7 1104.8 1175.5 1111.3 1172.8 1116.3 1168.1 1120.2 1163.9 1114.6 1163.4 1106.8 1161.4 1101.9 1153.1 1098.6 1143.2 1114 1132.9 1104.1 1136.1 1094 1126.6 1086.5 1140.2 1073.2 1140.2 1071.4 1138.2 1070.3 1132.6 1069.7 1129.1 1067.6 1129.4 1064.1 1134.5 1060.6 1146.8 1052.2 1150 1048.1 1150 1045 1148.6 1042.1 1144.9 1039.2 1130.2 1028.6 1132.4 1025.7 1137.1 1024.3 1142.7 1023.1 1151.8 1023.5 1155.5 1025.3 1160 1027.2 1170.8 1029.2 1179.2 1031.1 1185.8 1030.5 1189.8 1030.7 1193 1032.1 1200.3 1035 1209.2 1036.2 1214.4 1036.9 1217.3 1038.5 1219.8 1044.9 1227.2 1048.2 1239 1052.9 1245.9 1057.4 1250.1 1061.1 1251.6 1064.8 1253 1068.5 1256.2 1072 1260.9 1074.1 1266.8 1075.5 1270.8 1077.8 1272.7 1080.9 1272.5 1084 1269 1085.8 1262.2 1087.3 1257 1088.4 Z" data-holc_grade="B"/>
<path d="M 258 245.9 250.6 247.4 244.5 248 237.8 247.2 231.2 244.5 225 244.7 219.8 244.1 209.8 240.6 214.8 226.3 206.5 224.1 202.8 215.1 189.2 217.8 182.5 195.4 155.1 201.7 144.3 203.4 140.3 189.3 175.1 181.1 169.5 164.8 243.5 159.7 251.2 158.5 260.4 159 282.6 157.8 291.5 183 283.8 199.3 284.7 216.6 284.1 225.8 280.7 231.1 277.3 235 275.2 244.5 258 245.9 Z" data-holc_grade="B"/>
<path d="M 1217.3 1101.7 1219.6 1097.3 1226.9 1094 1234.6 1091.6 1241.7 1089.3 1252.3 1089.3 1257 1088.4 1262.4 1091.2 1267.1 1095.7 1270 1101.9 1270.3 1105.8 1269.3 1109.7 1267.8 1110.5 1276.2 1111.5 1283.6 1112.6 1281.4 1117.1 1276.2 1123.5 1272.2 1127.2 1264.4 1131.5 1256.7 1135 1243.7 1138.9 1231.1 1140.3 1224 1139.1 1218.3 1135.4 1215.6 1130.1 1214.4 1124.1 1209.9 1117.7 1214.9 1113.4 1217.3 1101.7 Z" data-holc_grade="B"/>
<path d="M 1232.9 1270.3 1237.2 1272.2 1244.7 1275 1256 1277.8 1255.4 1282.2 1256.4 1290 1259.7 1297.1 1262.2 1301.2 1267.6 1303.5 1274.6 1304.9 1275.1 1310.8 1276.2 1314.6 1276.9 1318 1276.5 1319.5 1274.5 1321.6 1271.2 1323.9 1264.8 1327.6 1264.2 1328.4 1265.2 1330.7 1270.3 1336.4 1275.3 1342.6 1279.2 1346.6 1283 1349.9 1289.6 1352.3 1287.6 1355.1 1281.6 1362.5 1270.2 1371.9 1257.5 1381.6 1249.8 1380.4 1244.8 1379.9 1238.4 1380.6 1227.6 1380.6 1217.1 1380 1203.6 1379.1 1187.1 1378.5 1178.5 1378.4 1169.7 1378.9 1157.7 1377.9 1148.6 1376.8 1133.1 1375.3 1125.5 1373.9 1123.7 1356.6 1121.2 1345.4 1113.8 1333.3 1129.2 1324.8 1119.4 1314.3 1119.4 1312.4 1128.3 1306.5 1118.4 1299 1124.9 1296.3 1134.1 1291.4 1142.4 1285.4 1148.9 1279.8 1164 1292.9 1179.1 1284.6 1187.1 1277.8 1189.2 1272.2 1188 1268.8 1184.6 1263.9 1177.8 1258.6 1184 1253.2 1190.5 1250.6 1196.9 1249.6 1203.6 1249.7 1207.3 1250.7 1210 1252.2 1212.7 1255.7 1216.1 1259.2 1218.7 1261.1 1225.4 1263.3 1229.1 1265.3 1232.2 1267.8 1232.9 1270.3 Z" data-holc_grade="B"/>
<path d="M 1257.5 1381.6 1270.2 1371.9 1281.6 1362.5 1287.6 1355.1 1289.6 1352.3 1294 1346 1301.4 1339.1 1306.2 1334.2 1314.2 1329.1 1322.3 1325.8 1324 1323.6 1327.4 1319.2 1331.1 1314 1334.2 1309.5 1337.3 1307.2 1346.9 1316.8 1353.1 1312.9 1369.3 1327.3 1361.8 1330.9 1366.4 1334.8 1358.8 1339.5 1365.2 1346 1368 1350.2 1374.8 1356.5 1389.2 1369.4 1402 1381.9 1395.3 1385.6 1387.4 1378.5 1384 1375.2 1348.5 1359.3 1304.2 1389.1 1299.2 1385.4 1294.1 1389.5 1287.6 1389.2 1281.6 1387.4 1271.1 1384.8 1263.8 1383.5 1257.5 1381.6 Z" data-holc_grade="B"/>
<path d="M 1456.3 1432.4 1423.9 1410.9 1421.7 1409.4 1425.6 1405.3 1422 1402.7 1411 1398.2 1403.9 1393.8 1398.4 1389.3 1395.3 1385.6 1402 1381.9 1410.3 1374.2 1410.8 1377.3 1411.1 1380.9 1412 1383.2 1414.7 1385.5 1419.7 1387.6 1423.8 1389 1428.8 1390.5 1433.4 1392.2 1439.8 1396.2 1445 1400.4 1454.4 1392 1459.3 1383.7 1460.8 1384.6 1462.4 1386.5 1464.5 1389.4 1465.9 1392 1467.8 1396.2 1470.5 1397.7 1475.1 1399 1479.6 1400.4 1483.5 1403.1 1484.4 1406.1 1484.1 1408.3 1481.7 1411.1 1478.7 1412.6 1476.1 1414 1471.3 1416.1 1466.1 1421.1 1456.3 1432.4 Z" data-holc_grade="B"/>
<path d="M 1314.1 1413.6 1319.7 1414.1 1330.6 1415.5 1338.8 1418.7 1344.4 1423.4 1352.2 1429.6 1350.1 1431.7 1317.9 1450.2 1250.2 1494.4 1236.9 1481.5 1242.4 1472.1 1225.4 1453.7 1291.6 1411.6 1314.1 1413.6 Z" data-holc_grade="B"/>
<path d="M 1378.3 1516.6 1355.5 1527.2 1350.4 1525.2 1336.2 1512.1 1318.6 1493.7 1326.1 1488.6 1331.3 1485 1354.8 1509.9 1365.7 1502.5 1376.3 1500.5 1389.5 1512.5 1378.3 1516.6 Z" data-holc_grade="B"/>
<path d="M 1492.1 1515.6 1483.8 1512.9 1477.7 1509 1474.8 1503.7 1472 1499.1 1442.8 1512.2 1425.6 1520 1409.3 1499.9 1423.7 1492.1 1419.4 1487.5 1433.9 1479.7 1452.2 1467.6 1474.7 1458.1 1489.3 1477.1 1491.1 1481.3 1487 1483.5 1485.4 1485.4 1490.9 1495.2 1494.9 1495 1496.8 1495.6 1500.6 1500 1505.3 1508.1 1508.5 1515.4 1502.2 1515.9 1492.1 1515.6 Z" data-holc_grade="B"/>
<path d="M 1568.6 1451.6 1574 1456.2 1575.6 1459.7 1576.5 1464.2 1575.9 1470.3 1574.5 1475.8 1571.4 1480.7 1567.5 1485.3 1563.7 1487.6 1556.7 1491.4 1551 1493.4 1547.4 1494.5 1542.7 1494.4 1539.7 1493.4 1534.9 1493.4 1527.8 1494.9 1519.8 1497.3 1511.5 1500.4 1507.2 1495.5 1505.6 1490.7 1502.4 1484.4 1512.4 1479.2 1511.4 1477 1508.6 1471.4 1502.9 1462.3 1508.4 1460.7 1512 1460 1518.2 1460.3 1524.5 1460.9 1527.9 1459.3 1529.5 1458 1532.2 1457 1536.9 1457.5 1540.2 1456.7 1541.9 1455.3 1544.4 1452.8 1545.7 1451.3 1548.1 1449.8 1551.6 1449.5 1554.5 1449.7 1557.3 1450.4 1560.7 1451.2 1565.2 1451.6 1568.6 1451.6 Z" data-holc_grade="B"/>
<path d="M 1621.4 1597 1610.8 1599.9 1592.4 1586.3 1589.4 1581.8 1589.2 1577.3 1578.6 1576.9 1578.6 1573 1576.8 1570.3 1590.9 1556.9 1587.3 1553.1 1595.3 1539.9 1599.3 1533.4 1605.4 1531.7 1611.2 1527.7 1614.2 1526.8 1617.5 1526.8 1619.8 1527.4 1621.5 1528.4 1623.2 1529.2 1626.5 1529 1629.2 1527.5 1633.7 1526 1636.4 1525.8 1638.6 1526.4 1639.5 1526.7 1643.4 1525.1 1646.6 1522.7 1650.4 1519.5 1652.8 1516.7 1655.1 1516.5 1662.6 1520.3 1663.4 1510.2 1665.7 1510 1669.3 1510.7 1673 1509.3 1676.7 1507 1680.9 1506.2 1683.6 1506.3 1684.8 1507.4 1686.8 1508.6 1691.4 1508.5 1694.8 1506.9 1698.8 1505.7 1701.6 1505.7 1702.5 1503.6 1702.4 1500 1701.5 1496.5 1699.3 1490.4 1696.2 1483.5 1696 1479.5 1700.7 1476.8 1697.5 1469.6 1695 1464.2 1695 1460.7 1701.4 1456.4 1705.7 1453.6 1714.2 1448.2 1722.5 1444.1 1727.6 1441.5 1735.7 1437.6 1742.8 1433.6 1750.5 1429 1762.3 1420.7 1772.3 1418.4 1782.3 1415.9 1793.5 1414.7 1804 1413.4 1815.5 1411.3 1827.5 1409.4 1838.4 1407.6 1841 1407.2 1843.7 1408.6 1848.2 1411.3 1851.6 1414.1 1854.9 1417.4 1858.1 1421.2 1863.4 1426.8 1868.2 1432.5 1872.9 1438.9 1876.8 1443.5 1880.4 1449 1879.9 1451.8 1877.1 1454.7 1871.7 1457.4 1869.1 1458.3 1865.5 1458.3 1858.5 1459.1 1853.2 1460.4 1842.9 1462 1836 1461.9 1816.1 1462 1808.6 1462.3 1807.5 1463.2 1805.2 1464.3 1800.9 1465 1791.6 1466.5 1787.8 1467.9 1784.1 1467.9 1781.8 1469.3 1779.3 1472.6 1778 1477.1 1776.6 1481.1 1776.9 1485.1 1774.7 1485.7 1773.4 1487.6 1768.3 1487.7 1757 1489.4 1754.3 1490.1 1741 1491.5 1734.9 1492.3 1729.7 1493.8 1725.5 1496.5 1722.9 1499.2 1720.4 1503.4 1718 1507.1 1716.1 1511.2 1715.4 1513.6 1715.6 1515.5 1718.1 1521.1 1719.1 1522.6 1724.6 1522.4 1731 1522 1742.7 1520.8 1746.4 1519.4 1750.8 1515.5 1756.6 1511.7 1764 1507.2 1765.5 1505.6 1771.7 1505.2 1782.3 1504.5 1790.3 1504.2 1793.7 1502.5 1802.1 1501.4 1804 1500.7 1810.8 1500.3 1813 1499.3 1815.3 1499.3 1824.6 1493.6 1827.4 1490.9 1842.7 1487.9 1845.1 1489 1845.1 1490 1846.3 1492.4 1850.7 1499 1855.1 1504.5 1858 1508.9 1859.7 1512.8 1860.8 1515.3 1861.4 1518.3 1861.6 1521.4 1860.5 1525 1858.2 1527.8 1855.7 1529.6 1851.3 1534.4 1847.3 1539.8 1843.9 1545.4 1841.3 1549.3 1837.9 1552.9 1836.5 1554.5 1831.8 1556.2 1823.2 1557.3 1811.8 1559.4 1801.5 1561.2 1794.4 1562.7 1780.4 1565.2 1753.3 1569.6 1739.9 1571.7 1728.6 1573.8 1725.4 1573.9 1721.2 1572.3 1716.2 1570.8 1710.4 1568.1 1705.1 1565.6 1702.2 1561.8 1700.8 1563.4 1696.7 1565.8 1688.9 1569.4 1682.5 1572.8 1677.2 1575.6 1673.3 1576.4 1671.4 1576.4 1669.5 1577.8 1668.2 1580.8 1666 1583.8 1664.2 1585.4 1660.3 1586.4 1654.6 1586.4 1649.4 1585.9 1647 1585.3 1643 1583.4 1638.4 1581.9 1634.2 1581.5 1629.9 1583.1 1626.8 1585.1 1625.3 1586.1 1625 1588.3 1624.4 1590.5 1623.3 1592.7 1621.4 1597 Z" data-holc_grade="B"/>
<path d="M 1582.4 1737.6 1543.7 1748.5 1520.3 1715.5 1548 1708 1557.6 1701 1580.6 1732.1 1582.4 1737.6 Z" data-holc_grade="B"/>
<path d="M 387.4 163.7 392.2 164.7 397 170.3 396.3 173.8 387.4 179.6 385.2 186.6 385.9 191 391.8 195.6 400.7 201.2 410.7 206.1 411.6 212.9 414 230.7 416.6 250.4 406.8 251.3 381.5 253.6 379.4 250.2 357.8 251.7 357.8 256.5 332.3 260.2 321.8 266 327.1 278.6 327.4 289.1 302.8 293.7 302.1 299.5 279.2 302.2 238.5 305.3 234 296 259.5 286.6 275.2 244.5 277.3 235 280.7 231.1 284.1 225.8 284.7 216.6 283.8 199.3 291.5 183 282.6 157.8 303.6 157.2 337.9 155.4 340.5 163.6 350.5 160.9 363.4 160.7 376.7 161.5 387.4 163.7 Z" data-holc_grade="B"/>
<path d="M 1645.8 1787.9 1615.4 1793.9 1624.3 1830.6 1632.3 1829.9 1637.8 1831.8 1643.7 1834.3 1649.5 1833.8 1656.6 1831.3 1665.1 1832.2 1667.1 1835.5 1660.5 1840 1654.9 1842.9 1644.2 1843 1629.7 1843 1615 1844.9 1606.8 1845.8 1600.6 1845.2 1591.5 1844.3 1583.5 1848.7 1579.5 1847.9 1517.5 1758.5 1543.7 1748.5 1582.4 1737.6 1604 1730.8 1645.8 1787.9 Z" data-holc_grade="B"/>
<path d="M 1477.3 1786.5 1492.4 1778.5 1508.8 1773.1 1523.6 1799.7 1546.4 1828.1 1571 1859.1 1568.3 1863.4 1564.2 1865 1556.9 1865 1549 1862 1541.7 1860.6 1533.6 1858.6 1527.7 1859.1 1498.9 1819.5 1477.3 1786.5 Z" data-holc_grade="B"/>
<path d="M 1774.2 1839.7 1703.7 1857.6 1703.2 1856.4 1700.3 1849.7 1691.6 1837.8 1685 1818.3 1684.2 1810.5 1683 1808.1 1680 1807.6 1676.9 1807.3 1672.3 1808.7 1670 1811 1671.9 1818.3 1670 1823.8 1665.1 1832.2 1656.6 1831.3 1649.5 1833.8 1643.7 1834.3 1637.8 1831.8 1632.3 1829.9 1624.3 1830.6 1615.4 1793.9 1645.8 1787.9 1676.4 1782.5 1683.1 1781.2 1768 1779.2 1767.5 1781.9 1765.1 1785.5 1764.9 1791.1 1765.7 1795 1767.9 1800.4 1770.2 1810.2 1770.1 1822.7 1772 1831.9 1774.2 1839.7 Z" data-holc_grade="B"/>
<path d="M 478.5 1418.1 488.7 1418.1 510.2 1426.4 493.1 1450.8 525.6 1465.5 524.8 1468.6 517.7 1472.6 510.4 1473.5 501.1 1471.5 498 1467.2 494.1 1463.3 487.4 1459.7 474.9 1455 463.9 1451.1 453.5 1445.2 447.6 1441 432.2 1435.8 433.2 1417.5 478.5 1418.1 Z" data-holc_grade="B"/>
<path d="M 678 1555.7 701.7 1567 722.4 1582.1 728.9 1577 751.6 1592.5 738 1604.7 729.5 1599.7 722.4 1598.4 715.4 1598.2 707.5 1596.7 701.7 1592.7 695.8 1590.5 687.4 1592.8 680.5 1591.4 675.5 1587.9 667.9 1578.2 649.9 1566.8 641 1558.4 650.9 1554.7 656.8 1553.8 674 1561.4 678 1555.7 Z" data-holc_grade="B"/>
<path d="M 856.5 1488.5 831.1 1511.7 804.5 1494.4 790 1506.5 780.2 1499.8 770.8 1506.7 759.7 1498.7 797.6 1452.5 828.4 1467.9 834.3 1475.7 856.5 1488.5 Z" data-holc_grade="B"/>
<path d="M 818.9 1523.6 831.1 1511.7 856.5 1488.5 876.4 1469.9 879.7 1477.2 882.5 1481.7 886.6 1490.4 888.5 1500.8 886.9 1510.1 881.1 1526 873.6 1537.3 858.5 1550 818.9 1523.6 Z" data-holc_grade="B"/>
<path d="M 454.7 166.8 457.3 188 460.7 215.5 483.7 213 484.2 218.3 485 222.8 486.5 227.1 490.4 231 496 234.5 498.1 237.3 499.5 240.2 515.8 238.2 519.6 236.9 534.4 235.5 541.9 233 549.4 230 555.2 225.8 559.6 225.2 568.4 225.2 573.2 227.3 576.3 230.6 577.9 234.3 581.4 238.4 583.4 238.9 583.9 238.1 583.8 235.5 583.3 233.2 583.9 233.1 586.8 234.9 592.4 242.5 594.5 249.1 596.2 254.1 598.7 255.8 604.6 256.4 611.5 257 612.9 258.5 613.1 261.2 587.5 265 555.4 271.4 510.3 275.7 467.5 281.3 469.3 290.3 471.5 313.6 463.8 313.1 449 315.1 444.6 283.6 454.2 282.2 451.6 245.7 428.7 248.8 416.6 250.4 414 230.7 426.5 229.7 424.6 211.3 411.6 212.9 410.7 206.1 400.7 201.2 391.8 195.6 385.9 191 385.2 186.6 387.4 179.6 396.3 173.8 397 170.3 392.2 164.7 387.4 163.7 387.6 158.9 389.8 151.6 387.8 143.9 392.8 143.3 401.1 143.6 405.7 144.9 408.8 147.7 409.6 151.3 417.9 146.1 424.9 150 435.5 158.5 440.5 162.7 448.2 166.2 454.7 166.8 Z" data-holc_grade="B"/>
<path d="M 234 296 229.2 286.1 245.2 276.4 258 245.9 275.2 244.5 259.5 286.6 234 296 Z" data-holc_grade="B"/>
<path d="M 631.7 413.6 624.1 414.2 620.2 397.2 617.7 379.7 625.2 368.8 630 367.7 636.7 367.4 648.9 363.3 655.1 361.3 668.4 352.8 664.2 309.6 672.8 307.2 681.9 304.5 691.3 301.7 706.3 299.4 715.2 300.2 726 302.1 736.8 305.2 744.7 308.5 751.1 313 758.7 318.8 763.2 324.7 766.6 328.4 769.8 333.6 769.6 336.9 766.9 341.6 758.5 343.7 750.1 345.3 742.5 346.6 736.3 349.4 726.5 353.2 719.8 355 709.7 356.7 705.1 358.9 701.9 361.2 699.4 364.1 699.4 366.7 702.1 369.2 710.2 370.2 717.9 371.7 734.9 372.1 748.4 372.7 763.7 372.5 775.7 371.5 791.2 370.5 807.5 368.6 822 365.7 838 361.4 847.9 362 856.5 364.7 860.8 368.9 861 373.5 855.6 377.2 844 385.2 838.6 394.5 824.1 404.6 805.4 415.3 795.7 421.3 791.6 427.4 785.9 433.2 779.3 438.1 775.1 443.7 771.6 443.3 769.6 403.3 631.7 413.6 Z" data-holc_grade="B"/>
<path d="M 648.7 449.8 652.7 478.7 645.9 479.6 648.4 499.6 681.6 498.4 685.3 527.5 659.8 529.2 645.6 545.5 648.4 551.3 649.9 568.8 601.9 570.8 591.1 571.3 585.3 541.6 542.7 546.7 535.8 514.8 551 513 547.6 499.2 549 497.3 545.6 461.5 542.1 460.3 538.4 423.8 578.4 418.9 582.9 455.7 584 479 596.6 478.4 594.4 454.3 633.1 451.2 648.7 449.8 Z" data-holc_grade="B"/>
<path d="M 601.9 570.8 591.8 583 593 585.3 576.2 604.3 587.1 613.6 598.9 609.3 599.5 620.3 593.5 622.5 585.1 625.5 578.2 628.3 570.9 632.9 565.6 638.8 555.7 634.6 548 581.8 545.3 575.1 540 574.9 530.8 548.3 542.7 546.7 585.3 541.6 591.1 571.3 601.9 570.8 Z" data-holc_grade="B"/>
</g>
<g id="C">
<path d="M 209.8 240.6 202.5 242.3 193.2 243 184.6 243.5 175.1 243 164 241.1 158.8 240.1 147.4 239.1 141.5 238.9 138.1 238.9 119.8 179.9 116.8 169.3 138.2 168 157 166.7 169.5 164.8 175.1 181.1 140.3 189.3 144.3 203.4 155.1 201.7 182.5 195.4 189.2 217.8 202.8 215.1 206.5 224.1 214.8 226.3 209.8 240.6 Z M 82.2 192.4 64.3 140.3 59.1 140.5 44.4 96.3 66.4 92.9 80.6 89.8 114.7 191.5 82.2 192.4 Z M 131.4 75.7 134.4 88.1 139.4 100.9 144.9 119.4 146.4 125.9 156.5 156.7 113.7 158.7 100 116.5 94.5 102.3 89.8 82.2 98.4 83.7 106.4 82.9 116 79.8 123.7 76.9 131.4 75.7 Z" data-holc_grade="C"/>
<path d="M 593.5 622.5 595.5 656.7 599.2 687.8 603.2 716.2 583.2 753 562.1 754.6 530.5 754.2 530.8 765.4 537.2 765.8 536.4 776.3 483.5 778.9 491.6 708.3 495.7 704.8 511.9 691 532.1 669.1 555.7 634.6 565.6 638.8 570.9 632.9 578.2 628.3 585.1 625.5 593.5 622.5 Z M 615.6 708 613.5 693.5 608 639.2 605.6 607.9 625.3 601.8 636.9 619.5 687.9 598.5 653.4 646.6 649.2 655.5 615.6 708 Z" data-holc_grade="C"/>
<path d="M 501.2 895.7 470.2 890.7 469.4 894.2 452.1 890.7 483.5 778.9 536.4 776.3 566.2 775.2 525.9 846.1 518.5 842.9 498.2 838.2 495.3 851.6 500.1 855.1 502.3 857.5 502.3 860.7 507.1 863.3 521.9 865 501.2 895.7 Z M 467.1 777.6 436.5 887.5 407.7 883.1 436.5 772.3 467.1 777.6 Z" data-holc_grade="C"/>
<path d="M 501.2 895.7 492.4 906.7 485.1 907 457.3 952.8 438.8 949.4 452.1 890.7 469.4 894.2 470.2 890.7 501.2 895.7 Z M 436.5 887.5 417.9 968.1 387.4 962.6 407.7 883.1 436.5 887.5 Z" data-holc_grade="C"/>
<path d="M 641.5 837.5 628.2 829.2 628.2 836 626.7 842.1 620.8 847.2 613.7 849.4 611.3 855.2 605.1 859.8 591.9 865.7 588.2 866.6 591 871 577 871.8 570.6 870.2 565.9 866.5 555.3 868.4 548.2 875.8 544 881.5 530.2 889.1 527.7 895.1 523.8 901.1 517.1 906 514.2 907.9 502.3 906.6 524.2 874 551.9 858.7 554 859.4 629.2 804.7 635.9 800.1 672.9 772.6 690 788.8 687.2 790.2 681.7 798 672.5 811.6 666.9 815.3 643.5 824.3 642.9 834 641.5 837.5 Z M 602.9 741 613.2 743.3 620.2 742.4 628.5 741.1 651 749.5 667.3 764 544.4 856.3 536.5 850.7 602.9 741 Z" data-holc_grade="C"/>
<path d="M 615.2 915.7 610.1 918.8 608.8 922.2 607.4 926.7 603.4 928.7 598.3 929.9 594.6 928.9 593.5 925.2 592.1 922.4 589.4 920.3 559.1 938.5 555.3 938.2 550.7 937.9 546.3 938.7 537.4 943.1 532.7 944.9 526 945.2 522.2 945.6 525.9 950.1 506.6 971.6 496.2 956.8 494.1 951.2 489.8 948.6 479.6 946.1 493.2 920.6 502.3 906.6 514.2 907.9 523.5 914.9 536.8 907.9 546 903.3 553.6 900.9 558.8 897 561 892.6 561.2 882.8 569.6 887.9 581.4 896.1 587.6 901.5 595 906.6 608.3 912.2 615.2 915.7 Z" data-holc_grade="C"/>
<path d="M 593.5 1104.4 581.5 1111.7 568.4 1099 572.6 1096.3 574.3 1092.2 573.8 1088.5 571.1 1086.6 577 1070.4 581.2 1060.1 586.4 1057.6 600.2 1053.9 607.6 1051 612.5 1044.4 617.9 1032.9 626 1015.6 630.5 1010.3 639.6 1005.7 651.4 1000.8 653.6 997.5 655.3 992.2 662.8 994.1 671 997.8 686.7 1002.8 690.2 1004.4 682.3 1014.7 662.7 1023.6 647 1040.5 638.1 1046.7 631.2 1049.7 622.6 1053.5 608.8 1056.2 596.7 1072.8 589.4 1077.6 594 1085.4 601.2 1086.2 598.7 1101.2 593.5 1104.4 Z M 525.9 950.1 529.9 954.9 534.6 952.5 538.7 955 545.7 960.1 555.6 965.6 561.5 972.1 565.9 979.1 565.6 988 568 989.5 579.8 990.6 588.7 990.1 600.5 988.1 608.3 985 612.2 982.3 615.6 978.8 618.8 978.5 625.1 984.8 628.3 991.3 630.2 995.7 629.2 1000 625.3 1004.3 617.2 1008.8 608.6 1011.1 595.8 1011.1 592.8 1010.1 592.6 1016.7 588.9 1020.2 583.2 1021.4 575.1 1022 569.4 1022.6 558.6 1023.9 555.9 1021.4 552.4 1016.4 552.2 1010.9 551.7 1007.4 542.3 1006.4 527.8 1001.8 515.2 996.1 506.6 989.1 502.2 988 507.9 983.7 508.8 979 506.6 971.6 525.9 950.1 Z" data-holc_grade="C"/>
<path d="M 1053.4 620 1047.1 632 1043.8 645.7 1043.4 654.7 1044.9 668.1 1039.7 672.5 1034.6 681.8 1029 685.9 1024.6 697.3 1022 710.4 1019 720 1012.4 737.3 993.2 748.6 979.9 737.5 974.7 731.1 970.3 726.5 966.6 716 960.3 714.5 957.4 716 950.7 705.7 941.8 700.2 933 691.7 933 684.2 931.5 679.8 928.2 672.5 917.5 665.1 918.8 660.1 917.3 653.4 915.6 650.3 911.9 649 904.5 648.6 894.6 649.2 890.2 652.1 884.3 657.7 880.3 663.2 880.8 666.3 868.3 662.6 859.7 656.4 853.3 654 848.1 653.1 844.1 653.8 838.2 650.3 830.6 649 826.9 648.6 820 647 813.4 641.2 803 634.8 799.3 627.4 795.9 623.9 782.8 615.3 779.6 614.7 779.4 588.1 781.1 581.1 771.9 566.9 782.3 566 799.6 568.7 807.8 573.9 818.9 578.9 827.3 585.3 856.9 600.5 889.8 618 910.5 626.4 930.4 634.9 952.9 640.4 957.4 643.6 961.4 641 971.8 638.1 981.7 632.8 991.3 623.5 997.6 611.8 1005.4 601.9 1010.2 589.7 1013.5 584.7 1017.2 584.7 1019 584.7 1027.9 583.8 1034.2 585.3 1043.4 596.4 1042.7 605.4 1053.4 620 Z" data-holc_grade="C"/>
<path d="M 743.2 1083.1 729.4 1082.5 724.9 1084.7 721 1083.9 700.3 1083.5 684.7 1085 670.3 1088.9 660.5 1094.5 654.2 1088.9 609.9 1119.3 593.5 1104.4 598.7 1101.2 601.2 1086.2 594 1085.4 589.4 1077.6 596.7 1072.8 608.8 1056.2 622.6 1053.5 631.2 1049.7 653 1058.4 649 1071.1 654.8 1070.2 660.9 1083.6 671.5 1080.5 679.2 1079.6 696.5 1076.1 738.3 1071.8 778.5 1065.9 792.4 1054.2 802 1046.9 806.4 1043.7 813 1042.3 822.3 1043.1 827.8 1044.9 830.8 1048.1 832.3 1052.8 806.4 1073.8 800.5 1070 786.5 1080.2 778.7 1076.1 773.2 1079.9 766.1 1078.2 758.4 1077.3 752.5 1077.3 743.2 1081.4 743.2 1083.1 Z" data-holc_grade="C"/>
<path d="M 660.5 1094.5 723.7 1149.5 666.9 1191.3 659 1184.8 657.7 1184.3 649.4 1189.9 588.1 1135.3 553.8 1106.6 568.4 1099 581.5 1111.7 593.5 1104.4 609.9 1119.3 654.2 1088.9 660.5 1094.5 Z" data-holc_grade="C"/>
<path d="M 874.7 1116.1 878.7 1128.5 882.1 1138.2 886.5 1144 898.5 1151.6 913.8 1155.9 918.4 1155.9 914.1 1159.7 913.1 1171.2 908.2 1183.8 904.6 1186.8 908 1198.3 906 1204.5 899.3 1218.1 912.9 1223.4 899.4 1259.6 825 1255.5 804.5 1253.9 837.8 1220.4 823.7 1212.1 842.7 1196.3 869.5 1166.9 851.3 1163.6 846.6 1164.4 830.4 1155.4 825.7 1187.2 807.2 1176.1 797.9 1184.6 775.5 1171.6 769.1 1179.4 748.4 1167.3 723.5 1193 713.2 1186.8 697.4 1202 682.4 1193 674 1197.1 671.5 1195.1 666.9 1191.3 723.7 1149.5 660.5 1094.5 670.3 1088.9 684.7 1085 700.3 1083.5 721 1083.9 724.9 1084.7 729.4 1082.5 743.2 1083.1 756.9 1097.1 764.7 1093 775.7 1098.9 791.6 1087.5 816.7 1091.9 819.7 1080.5 867 1090.7 859.2 1113.5 874.7 1116.1 Z M 822 1125.1 834.1 1110.9 795.2 1103.7 796.2 1111.5 794 1120.4 796.2 1133.3 822 1125.1 Z" data-holc_grade="C"/>
<path d="M 82.2 192.4 28.6 194.5 13.8 142.5 59.1 140.5 64.3 140.3 82.2 192.4 Z" data-holc_grade="C"/>
<path d="M 904.3 1343.4 890.1 1336.7 880.1 1332.3 884.2 1326.4 892.2 1307.9 901.7 1285.7 909.7 1268.5 922.3 1272.9 931.2 1277.7 938.6 1283.8 941.4 1289.4 937.9 1292.5 933.9 1300.9 929.1 1307.8 922.7 1316 920 1319.4 904.3 1343.4 Z M 782.2 1273.1 791.9 1262 793 1260.6 805.2 1262.3 812.7 1263.3 881 1267.2 895.3 1268.5 895.9 1269.7 889.7 1284.1 875.1 1315.9 870.3 1326.8 856.9 1319.4 845.7 1312.8 827.2 1301.3 813.9 1292.9 797.2 1283.2 789.4 1278.1 782.2 1273.1 Z" data-holc_grade="C"/>
<path d="M 1130.2 1028.6 1144.9 1039.2 1148.6 1042.1 1150 1045 1150 1048.1 1146.8 1052.2 1134.5 1060.6 1129.4 1064.1 1129.1 1067.6 1132.6 1069.7 1138.2 1070.3 1140.2 1071.4 1140.2 1073.2 1126.6 1086.5 1087.5 1124.8 1058.4 1112.7 1053 1112.7 1046.6 1113.3 1015.5 1106.3 992.7 1101.2 1009 1085.9 1012.1 1082.9 1036.3 1100.1 1053 1082.7 1068 1093.4 1086 1075.7 1063.4 1067.9 1041.4 1053.2 1021.5 1071.8 1012.6 1065.6 1007 1063.5 1008.7 1059 1018.5 1047.3 1009.7 1043.4 997.9 1060.9 985.1 1058.8 996.1 1034 999.8 1034.6 1008.1 1033.3 1017.2 1029.1 1023.9 1022.5 1031.5 1012.5 1034.7 1015.3 1036.9 1018.7 1038.6 1021.8 1039.2 1025.4 1039.2 1026.8 1045.1 1025.7 1050.2 1025.7 1060.7 1031.6 1074.9 1023.4 1100.3 1011.7 1106.2 1014.6 1111.1 1015.2 1117 1016 1121.5 1022.2 1130.2 1028.6 Z" data-holc_grade="C"/>
<path d="M 1015.5 1106.3 1006.9 1134.6 1012.8 1138.3 1011.4 1150.5 1047.6 1164.3 1081.9 1130.9 1084 1128.9 1113.8 1156.4 1125.2 1166.6 1105.8 1177.3 1099.9 1171.9 1051.6 1199.4 1045.7 1197 1027.6 1206.2 1018.5 1210.8 1014 1213 1001.1 1218.4 994.3 1224.2 1006 1237.6 961.4 1261.7 970.9 1267.3 947.2 1285 941.4 1289.4 938.6 1283.8 931.2 1277.7 922.3 1272.9 909.7 1268.5 919.9 1238.6 938 1190.4 950 1160.5 950.8 1158.4 975 1097.7 992.7 1101.2 1015.5 1106.3 Z" data-holc_grade="C"/>
<path d="M 1057.6 1244.9 1069.8 1255.5 1077.8 1262.4 1097 1251.6 1102.9 1254.9 1138.7 1231.5 1153.8 1246.7 1184.8 1233.1 1192.9 1238.4 1196.9 1244.7 1196.9 1249.6 1190.5 1250.6 1184 1253.2 1177.8 1258.6 1184.6 1263.9 1188 1268.8 1189.2 1272.2 1187.1 1277.8 1179.1 1284.6 1164 1292.9 1148.9 1279.8 1142.4 1285.4 1134.1 1291.4 1124.9 1296.3 1118.4 1299 1128.3 1306.5 1119.4 1312.4 1119.4 1314.3 1129.2 1324.8 1113.8 1333.3 1121.2 1345.4 1123.7 1356.6 1125.5 1373.9 1065.8 1374.2 1052 1367.1 1040.3 1362.5 1025.8 1355.7 1020.2 1351.8 1011.3 1351.5 1006.7 1347.6 995.6 1337.2 984.5 1327.7 974.4 1318.4 964.8 1309.9 959 1303.8 955 1299.5 947.2 1285 970.9 1267.3 961.4 1261.7 1006 1237.6 994.3 1224.2 1001.1 1218.4 1014 1213 1018.5 1210.8 1057.6 1244.9 Z M 1031 1269.9 1012.2 1251 994.7 1263.3 984.6 1268.6 1003.4 1288.6 1031 1269.9 Z" data-holc_grade="C"/>
<path d="M 1125.2 1166.6 1185.3 1230.4 1184.8 1233.1 1153.8 1246.7 1138.7 1231.5 1102.9 1254.9 1097 1251.6 1077.8 1262.4 1069.8 1255.5 1102.4 1236.5 1111.3 1230.7 1120.7 1228.5 1118.9 1217 1111.3 1217.5 1104.8 1220 1098.4 1223.3 1057.6 1244.9 1018.5 1210.8 1027.6 1206.2 1045.7 1197 1051.6 1199.4 1099.9 1171.9 1105.8 1177.3 1125.2 1166.6 Z M 1205.9 1228 1202.2 1225.4 1200.4 1226.2 1123.6 1147.8 1143.2 1114 1153.1 1098.6 1161.4 1101.9 1163.4 1106.8 1163.9 1114.6 1168.1 1120.2 1206.7 1158.8 1196.7 1164.7 1237.3 1204.9 1212.2 1218.7 1216.3 1223.9 1205.9 1228 Z" data-holc_grade="C"/>
<path d="M 1217.3 1101.7 1214.9 1113.4 1209.9 1117.7 1214.4 1124.1 1215.6 1130.1 1218.3 1135.4 1224 1139.1 1231.1 1140.3 1243.7 1138.9 1256.7 1135 1264.4 1131.5 1272.2 1127.2 1276.2 1123.5 1281.4 1117.1 1283.6 1112.6 1286.8 1115 1294.5 1123.5 1298.9 1127.3 1307.8 1126.4 1314.5 1124.4 1326.6 1124.7 1335.5 1125 1344 1123.5 1352.1 1124.4 1363.6 1127.9 1374.3 1131.1 1383.5 1136.9 1389.1 1141.3 1393.1 1148.3 1395 1152.4 1402.4 1155.6 1408.3 1157.1 1410.9 1161.2 1411.6 1166.7 1409.4 1171.7 1404.2 1177.8 1401.6 1183.3 1400.9 1187.7 1395 1193.9 1389.4 1199.1 1387.2 1201.4 1387.8 1203.4 1392 1204.7 1397.9 1205.4 1401.6 1205.8 1405.4 1204.7 1408.7 1204.4 1412.4 1204.6 1416.2 1205.7 1419.4 1208 1426.7 1212.2 1435 1216.4 1439.5 1217.7 1442.6 1218.6 1449.9 1221.8 1452.7 1224.5 1455.3 1226.7 1458.4 1228.9 1465.7 1231.4 1470.7 1234.4 1474.8 1238.1 1479 1241.9 1485.8 1246.2 1493.9 1250.9 1499.2 1254.4 1503.5 1259.3 1506.2 1262.5 1507.2 1265.8 1507.4 1269.2 1506 1271.9 1502.2 1275.7 1496 1280.9 1491.4 1283.9 1485.6 1286.9 1478.4 1289.5 1469.8 1291 1461.8 1292.8 1446.5 1296.9 1437.3 1299.4 1431.7 1296.9 1429.9 1296.5 1427.7 1297.2 1426.4 1299.2 1424.8 1301.6 1422.1 1306.6 1414.3 1306.1 1406.3 1306.4 1394.8 1307.3 1392.9 1296.7 1390.8 1290 1388.3 1286.7 1386 1284.6 1382.7 1282.6 1380.6 1281.2 1375.8 1278.9 1372.7 1278.1 1367.1 1278.5 1362.9 1280.4 1359.8 1281.3 1356.2 1280.7 1354.1 1279.8 1352.2 1277.5 1350.7 1275.3 1349.3 1272.5 1347.6 1270 1343.3 1267.8 1339.2 1266.2 1336.3 1265.2 1329.8 1265.2 1324.6 1266 1318.4 1267.2 1312.2 1266.7 1303.5 1265.8 1298.6 1265.2 1292.8 1264.2 1281.1 1263.2 1269.9 1263 1270.9 1270.1 1272.4 1279.4 1274.1 1301.4 1274.6 1304.9 1267.6 1303.5 1262.2 1301.2 1259.7 1297.1 1256.4 1290 1255.4 1282.2 1256 1277.8 1244.7 1275 1237.2 1272.2 1232.9 1270.3 1237.8 1265.1 1242.5 1262 1243.4 1261 1242.9 1258.4 1241 1255.8 1238.2 1253.6 1234.7 1252.6 1229.8 1251.9 1226 1250.8 1217.9 1249.7 1212.2 1249.1 1209.2 1248 1205.7 1246.5 1202.4 1244.7 1200.7 1242 1200 1240.8 1208.7 1234.7 1205.9 1228 1216.3 1223.9 1212.2 1218.7 1237.3 1204.9 1196.7 1164.7 1206.7 1158.8 1168.1 1120.2 1172.8 1116.3 1175.5 1111.3 1175.7 1104.8 1175.7 1103.1 1183.4 1095.1 1186.1 1090.6 1186.1 1088.3 1193.7 1081.7 1196.9 1081.1 1200.3 1081.9 1205 1086.6 1210.7 1093 1217.3 1101.7 Z" data-holc_grade="C"/>
<path d="M 1314.1 1413.6 1291.6 1411.6 1225.4 1453.7 1242.4 1472.1 1236.9 1481.5 1250.2 1494.4 1242 1499.7 1192.6 1479 1190.8 1476.3 1192.8 1475 1213.4 1462.4 1200.5 1450.3 1207.2 1445.8 1189.5 1429.8 1176 1437.9 1143.8 1410.6 1104.1 1437.6 1086.3 1430.7 1073.9 1424.8 1065.2 1418.9 1050.9 1411.6 989.1 1382.5 997.4 1376.5 981.7 1369.6 997.4 1351.4 1004.3 1357.9 997.4 1362.9 1005.2 1368.1 1007.7 1366.4 1018.5 1371.6 1039.1 1380.9 1046.9 1384.8 1051.2 1387.4 1066.8 1387.4 1091.1 1387.9 1121.1 1388.8 1127.6 1390 1135.8 1390.9 1147.2 1390.6 1161.9 1390.9 1169.8 1391.1 1177.9 1392.4 1185.1 1392.5 1194.2 1393.2 1200.6 1394.1 1208.9 1397 1213.1 1398.9 1217.1 1400.9 1224.6 1403.4 1228.3 1405.1 1230.3 1407.4 1233.4 1405.5 1238.9 1400.9 1243.9 1397.6 1248.4 1397.4 1257.4 1398.1 1269.5 1400.9 1283 1403.5 1295.7 1405.1 1314 1406.8 1314.1 1413.6 Z" data-holc_grade="C"/>
<path d="M 1374.1 1309 1378.7 1311.4 1389.2 1314.1 1396 1316 1404.9 1317.7 1415.1 1320.3 1418 1323.1 1418.7 1325.4 1418.7 1327.8 1417.6 1330.2 1413 1331.9 1407.4 1331.7 1400.1 1331.2 1409.2 1343 1414.9 1345.1 1422.5 1349.4 1430.6 1353.1 1435.2 1356.6 1438.8 1360.6 1442.8 1360.7 1445.9 1359.6 1448.5 1357.7 1450.6 1359.3 1452.4 1361.3 1452.6 1363.3 1452.2 1365.7 1457.5 1365 1460.2 1366 1462.5 1368.4 1466.5 1370.4 1468.9 1370.5 1469.8 1375.7 1474.1 1381.5 1479.3 1385.7 1495.1 1395.9 1504.2 1402.6 1511.3 1406.8 1527.1 1413.4 1540.7 1419.7 1549.4 1424 1561.3 1433.3 1563.9 1436.3 1555.1 1436.6 1553.5 1437.5 1553.9 1439 1555.9 1440.6 1558.1 1442.6 1562.7 1443.6 1566.3 1444.3 1569.4 1446.1 1570.6 1448 1570.7 1449.5 1568.6 1451.6 1565.2 1451.6 1560.7 1451.2 1557.3 1450.4 1554.5 1449.7 1551.6 1449.5 1548.1 1449.8 1545.7 1451.3 1544.4 1452.8 1541.9 1455.3 1540.2 1456.7 1536.9 1457.5 1532.2 1457 1529.5 1458 1527.9 1459.3 1524.5 1460.9 1518.2 1460.3 1512 1460 1508.4 1460.7 1502.9 1462.3 1499.6 1463 1490.1 1450.7 1485.7 1446.4 1482.4 1447.8 1471.1 1441.3 1456.3 1432.4 1466.1 1421.1 1471.3 1416.1 1476.1 1414 1478.7 1412.6 1481.7 1411.1 1484.1 1408.3 1484.4 1406.1 1483.5 1403.1 1479.6 1400.4 1475.1 1399 1470.5 1397.7 1467.8 1396.2 1465.9 1392 1464.5 1389.4 1462.4 1386.5 1460.8 1384.6 1459.3 1383.7 1454.4 1392 1445 1400.4 1439.8 1396.2 1433.4 1392.2 1428.8 1390.5 1423.8 1389 1419.7 1387.6 1414.7 1385.5 1412 1383.2 1411.1 1380.9 1410.8 1377.3 1410.3 1374.2 1420.1 1368.5 1426.2 1366.1 1417.3 1356.8 1413.8 1352.8 1410.7 1350.3 1407.7 1348.6 1405.7 1348.1 1403.2 1347.9 1400.9 1347.8 1398.1 1347.3 1397 1346 1395.1 1343.6 1394.1 1341.6 1392 1340.2 1388.9 1339.6 1386.1 1339.6 1383.6 1340.8 1381.1 1342.4 1378 1344.6 1366.4 1334.8 1361.8 1330.9 1369.3 1327.3 1353.1 1312.9 1346.9 1316.8 1337.3 1307.2 1339.3 1304.7 1340.9 1303.4 1344.6 1303.7 1348.1 1302.9 1349.3 1303 1353.1 1305.6 1356 1306.8 1358 1307.1 1360.4 1306.8 1363.9 1305.5 1374.1 1309 Z" data-holc_grade="C"/>
<path d="M 1375.8 1413.3 1357.1 1426.5 1336.4 1411.4 1338.6 1410.5 1374.1 1411.6 1375.8 1413.3 Z M 1395.3 1385.6 1398.4 1389.3 1403.9 1393.8 1411 1398.2 1422 1402.7 1425.6 1405.3 1421.7 1409.4 1423.9 1410.9 1419.5 1416.1 1419.5 1417.4 1424.5 1420.8 1435 1427.7 1448.9 1436.7 1458 1442.9 1466.5 1448.1 1469.6 1450.6 1474.7 1458.1 1452.2 1467.6 1433.9 1479.7 1419.4 1487.5 1423.7 1492.1 1409.3 1499.9 1425.6 1520 1389.8 1536.3 1379.3 1522.7 1378.3 1516.6 1389.5 1512.5 1376.3 1500.5 1365.7 1502.5 1354.8 1509.9 1331.3 1485 1344 1475.8 1317.9 1450.2 1350.1 1431.7 1358.5 1437.8 1366.7 1444.3 1372 1449.1 1375 1452 1382.1 1447 1388.5 1442 1393.2 1439.1 1400.7 1434.7 1410.6 1428.5 1404.4 1421.2 1397.8 1413.9 1396.8 1410.5 1397.1 1405.8 1381.1 1398.5 1376.2 1396.3 1368.2 1386.7 1365.6 1384.2 1357.3 1377.3 1348.4 1369.4 1347.2 1368.9 1335.2 1377.7 1322.8 1387.4 1313.4 1394.4 1304.2 1389.1 1348.5 1359.3 1384 1375.2 1387.4 1378.5 1395.3 1385.6 Z" data-holc_grade="C"/>
<path d="M 1700.3 1704.7 1689.8 1706.9 1667.1 1712.8 1659.6 1714.9 1634.1 1722 1604 1730.8 1585 1704 1565.6 1676.1 1542 1648.4 1521.9 1619.3 1490.6 1576.1 1442.8 1512.2 1472 1499.1 1474.8 1503.7 1477.7 1509 1483.8 1512.9 1492.1 1515.6 1473.9 1522 1493.1 1545.7 1519.8 1536.2 1528.2 1551.4 1537.4 1577.8 1543 1589.7 1556.6 1583.3 1549.5 1560.7 1540.9 1557.4 1533.6 1538.8 1518.2 1509.7 1524.6 1510.6 1534.2 1515.6 1543.6 1521.3 1552.7 1526.9 1562.1 1532.9 1574.4 1541.9 1583 1548.5 1587.3 1553.1 1590.9 1556.9 1576.8 1570.3 1578.6 1573 1578.6 1576.9 1589.2 1577.3 1589.4 1581.8 1592.4 1586.3 1610.8 1599.9 1621.4 1597 1629.8 1606.7 1631.3 1608.7 1636.2 1620.2 1651.9 1644.3 1661.8 1657.5 1674.8 1656.6 1682.2 1653.8 1686.4 1649.9 1689.1 1641.4 1694.1 1629.7 1698.5 1623.7 1702.7 1620.2 1707.8 1619.2 1724.8 1616.1 1748.5 1610.2 1758.1 1606.5 1775.3 1597 1791.8 1587.8 1802.4 1582.2 1810.3 1576.2 1814.7 1573 1822.3 1570.7 1831 1567.6 1837.9 1564.9 1847.2 1558.4 1857.8 1554.5 1866.4 1549.5 1871.1 1546.8 1882.7 1542.9 1891 1538.4 1914.2 1532.2 1930.4 1528.5 1936.8 1526.5 1940.6 1524.2 1942.6 1524.8 1947.3 1531 1950.1 1533.1 1953.2 1534 1957.3 1534.6 1962.7 1534.7 1965.3 1535.3 1968.4 1536.9 1973.3 1541.9 1977 1545.1 1981.1 1548.7 1985.1 1551.2 1990.4 1554.8 1993.1 1556.9 1995.9 1560.7 1997.4 1564.6 1998.7 1568.7 1999 1572.7 1998.6 1576.7 1995.3 1580.4 1991.3 1583.4 1987.3 1585.4 1986.4 1586.2 1985.6 1588 1980.1 1591.5 1976.7 1594.5 1968.6 1598.4 1963.9 1600.8 1961.5 1602.5 1958.2 1604.5 1953.8 1607.7 1947.7 1611.8 1943.2 1615.4 1940.9 1617.9 1939.9 1619.9 1938.5 1622.5 1936.9 1627.5 1934.8 1634.4 1930.6 1636.2 1926.6 1637.3 1924.8 1637.9 1922.9 1638.8 1919.9 1640.3 1914.9 1642.7 1907.4 1646.3 1904.1 1648.7 1899.6 1650.4 1896.5 1651.7 1893 1652.8 1885.2 1656.2 1878.7 1658.3 1874.5 1659.8 1868.2 1660.8 1861.2 1661.7 1853 1662.9 1848.4 1664 1842.7 1664.7 1838.7 1665.7 1833.9 1666.1 1829.2 1666.9 1821.6 1667.3 1811.1 1669 1794.6 1671.8 1780.6 1674.9 1763.1 1680.4 1754.9 1682.9 1748.1 1684.2 1745.9 1684 1741.8 1682 1736.4 1680.2 1730.7 1677.7 1728.7 1674.8 1727.2 1672.3 1725.9 1670.2 1724.8 1668.9 1723.1 1668.6 1720.7 1668.7 1716.3 1669.5 1711.5 1671.1 1707.2 1672 1703.9 1671.5 1700.3 1670.7 1697.5 1671.9 1687.2 1678.3 1679.2 1683.5 1661.1 1672.5 1631.5 1692 1634 1694.9 1637.4 1697.1 1642.3 1699.9 1646.5 1702.2 1656.4 1700.1 1662.7 1698.3 1669.3 1696 1673.8 1693.7 1684.9 1685.9 1689.4 1690.2 1693 1695.2 1697.1 1700.3 1700.3 1704.7 Z" data-holc_grade="C"/>
<path d="M 209.8 240.6 219.8 244.1 225 244.7 231.2 244.5 237.8 247.2 244.5 248 250.6 247.4 258 245.9 245.2 276.4 229.2 286.1 234 296 238.5 305.3 279.2 302.2 280.8 315.2 284.3 342.9 176 357.2 165.9 328.5 152.4 285.1 138.1 238.9 141.5 238.9 147.4 239.1 158.8 240.1 164 241.1 175.1 243 184.6 243.5 193.2 243 202.5 242.3 209.8 240.6 Z M 229.8 255.1 206.3 249.4 197.8 270.1 222 275.2 229.8 255.1 Z" data-holc_grade="C"/>
<path d="M 1326.1 1488.6 1318.6 1493.7 1336.2 1512.1 1350.4 1525.2 1355.5 1527.2 1378.3 1516.6 1379.3 1522.7 1389.8 1536.3 1425.6 1520 1442.8 1512.2 1490.6 1576.1 1521.9 1619.3 1542 1648.4 1565.6 1676.1 1585 1704 1604 1730.8 1582.4 1737.6 1580.6 1732.1 1557.6 1701 1548 1708 1520.3 1715.5 1518.9 1715.8 1510.4 1720.6 1504.3 1701.9 1488.8 1705.6 1480.6 1684.9 1472.6 1672.5 1457.6 1653.5 1440 1626.5 1450.8 1621.2 1445.8 1614.9 1454.9 1610.3 1447.1 1598.8 1479.2 1584.7 1459.7 1558.8 1401.1 1584.5 1362.2 1532.9 1342.4 1527.6 1290.2 1505.5 1270.2 1499.4 1269.6 1497.2 1308.6 1471.6 1326.1 1488.6 Z" data-holc_grade="C"/>
<path d="M 1659.6 1714.9 1667.1 1712.8 1689.8 1706.9 1700.3 1704.7 1710.6 1716.6 1717.7 1724.5 1723.1 1732 1730.2 1743.1 1719.1 1737.9 1708.7 1732.9 1700 1730 1687.2 1729.8 1679.3 1731.2 1663.6 1736.2 1659 1721.9 1659.6 1714.9 Z" data-holc_grade="C"/>
<path d="M 1730.2 1743.1 1738 1743.8 1744.9 1745.9 1756.4 1749.5 1761.1 1752.3 1764.6 1756.9 1765.6 1761.9 1765.4 1770 1766.2 1771.7 1767.6 1775 1768 1779.2 1683.1 1781.2 1676.4 1782.5 1645.8 1787.9 1604 1730.8 1634.1 1722 1659.6 1714.9 1659 1721.9 1663.6 1736.2 1679.3 1731.2 1687.2 1729.8 1700 1730 1708.7 1732.9 1719.1 1737.9 1730.2 1743.1 Z" data-holc_grade="C"/>
<path d="M 1681.1 1938.7 1639.1 1954.7 1585.6 1869.1 1681.1 1938.7 Z M 1703.2 1856.4 1703.7 1857.6 1774.2 1839.7 1769.8 1842.2 1766.9 1846.5 1766.1 1849.7 1765.3 1854 1765.9 1861.3 1767.2 1866 1768.9 1869 1771.6 1872.9 1777.5 1877.5 1786.4 1882.3 1795.1 1887 1786.3 1889.9 1745.5 1900.1 1719.5 1907.8 1704.6 1913.2 1719.8 1945.8 1709.6 1951.7 1592.5 1866.6 1579.1 1856.8 1581.8 1854.9 1583.2 1852.9 1583.5 1848.7 1591.5 1844.3 1600.6 1845.2 1606.8 1845.8 1615 1844.9 1629.7 1843 1644.2 1843 1654.9 1842.9 1660.5 1840 1667.1 1835.5 1672.8 1836.6 1684.8 1860.9 1703.2 1856.4 Z" data-holc_grade="C"/>
<path d="M 262.9 1382.1 261.4 1394.8 260.9 1399.3 254.8 1398.4 246.5 1395.9 234.2 1393.7 225.8 1390.8 216.3 1386 211.7 1383.8 200.6 1377.9 188.9 1369.4 183.1 1363.3 173.2 1356.8 208.4 1358.2 208.4 1363.4 213.6 1367.7 219 1371.2 226.2 1372.6 226.9 1380.6 262.9 1382.1 Z" data-holc_grade="C"/>
<path d="M 337 1367.3 263.6 1365.8 262.9 1382.1 226.9 1380.6 226.2 1372.6 219 1371.2 213.6 1367.7 208.4 1363.4 208.4 1358.2 173.2 1356.8 172.5 1312.3 242.4 1314 242.7 1328.6 250 1328.8 249.9 1337.5 284.8 1338.2 285 1330 338.4 1331.7 337 1367.3 Z" data-holc_grade="C"/>
<path d="M 349.5 1378.5 348.5 1367.4 405.4 1369 405.1 1378.5 349.5 1378.5 Z M 337 1367.3 337.2 1396.5 261.4 1394.8 262.9 1382.1 263.6 1365.8 337 1367.3 Z" data-holc_grade="C"/>
<path d="M 479.4 1398.4 478.5 1418.1 433.2 1417.5 432.2 1435.8 384.4 1417.9 384.4 1397.4 356.1 1396.8 357.3 1414.7 348.7 1411.8 349.5 1378.5 405.1 1378.5 405.4 1369 348.5 1367.4 348 1343.7 377 1344.5 377.3 1336.1 417.2 1336.7 417.2 1355.4 442.8 1356.5 440.8 1379.3 480.2 1381.3 479.4 1398.4 Z" data-holc_grade="C"/>
<path d="M 723.6 1448.8 721.9 1451 718.2 1450.7 716.1 1449.3 712.4 1451.9 705.3 1452.7 696.1 1448.8 681 1442.9 670.8 1456.3 685 1462.4 684 1465.1 677 1473.3 662.8 1493.3 642.5 1522.5 636.3 1520.6 639.7 1513.3 615.4 1503.3 609.6 1511.1 601.2 1503.8 593.6 1496.7 581.2 1488.9 571.1 1482.6 559.1 1476.7 575.8 1452 601.4 1462.5 618.2 1436.8 531.7 1400.2 479.4 1398.4 480.2 1381.3 440.8 1379.3 442.8 1356.5 481.2 1358.5 481.2 1355.6 510.8 1355.3 520.3 1356.8 531.4 1361.4 590.5 1387 593.2 1383.1 633.3 1399.6 630.5 1404.2 662.5 1418.1 665.6 1413.5 728.4 1442.9 723.6 1448.8 Z" data-holc_grade="C"/>
<path d="M 524.8 1468.6 525.6 1465.5 493.1 1450.8 510.2 1426.4 488.7 1418.1 478.5 1418.1 479.4 1398.4 531.7 1400.2 618.2 1436.8 601.4 1462.5 575.8 1452 559.1 1476.7 550.2 1473.2 537.9 1468.9 528.5 1467.4 524.8 1468.6 Z" data-holc_grade="C"/>
<path d="M 379.1 348.1 362.7 349.7 357.8 306.8 280.8 315.2 279.2 302.2 302.1 299.5 302.8 293.7 327.4 289.1 327.1 278.6 321.8 266 332.3 260.2 357.8 256.5 357.7 259.2 381.5 257.5 381.5 253.6 406.8 251.3 416.7 344.5 379.1 348.1 Z" data-holc_grade="C"/>
<path d="M 876.4 1469.9 856.5 1488.5 834.3 1475.7 828.4 1467.9 797.6 1452.5 759.7 1498.7 770.8 1506.7 780.2 1499.8 790 1506.5 804.5 1494.4 831.1 1511.7 818.9 1523.6 810.7 1531.6 849.1 1557.3 834.1 1571.3 795.7 1545.4 785.6 1554 798.4 1563.1 791.2 1570.5 783.8 1566 764.9 1583 733.6 1561.2 760 1538 746.4 1528.8 722.8 1552.4 691.3 1536.4 678 1555.7 674 1561.4 656.8 1553.8 650.9 1554.7 641 1558.4 637.6 1552.8 635.6 1545.8 632.7 1533.7 619.9 1524.2 609.6 1511.1 615.4 1503.3 639.7 1513.3 636.3 1520.6 642.5 1522.5 670.1 1536.8 710.2 1489.1 715.4 1487 726 1491.7 738.3 1477.5 732.6 1473.2 737.6 1466.7 727.5 1460.9 733.5 1453.4 742.1 1457.4 752.2 1445.9 770 1454.8 778 1444.6 784.5 1447.1 810.2 1417 826.2 1423.5 839 1430.7 852.8 1440.5 865.4 1450.2 874 1461.7 876.4 1469.9 Z" data-holc_grade="C"/>
<path d="M 834.1 1571.3 810.3 1586.3 798.9 1595.2 782.1 1602.2 769.7 1607.8 764.4 1610.6 760.4 1615.3 759.5 1618.4 754.9 1621 751 1621.4 746.1 1619 743.9 1613.7 738 1604.7 751.6 1592.5 728.9 1577 722.4 1582.1 701.7 1567 678 1555.7 691.3 1536.4 722.8 1552.4 746.4 1528.8 760 1538 733.6 1561.2 764.9 1583 783.8 1566 791.2 1570.5 798.4 1563.1 785.6 1554 795.7 1545.4 834.1 1571.3 Z" data-holc_grade="C"/>
<path d="M 613.1 261.2 659 256.2 664.2 309.6 668.4 352.8 655.1 361.3 648.9 363.3 636.7 367.4 630 367.7 625.2 368.8 621.9 365.9 620.1 361.6 611.6 357.8 605.7 354.8 601.6 351.3 601.2 342 601.2 331.5 600.5 326 599.4 323.6 593.8 321.9 588.3 321.9 579.1 322.2 573.5 320.4 570.6 316.9 566.9 315.2 562.1 315.2 470.8 328 453.8 331.5 447.6 331.8 437.6 333 428.7 248.8 451.6 245.7 454.2 282.2 444.6 283.6 449 315.1 463.8 313.1 471.5 313.6 469.3 290.3 467.5 281.3 510.3 275.7 555.4 271.4 587.5 265 613.1 261.2 Z" data-holc_grade="C"/>
<path d="M 524.1 425.6 464.3 432.9 459.5 404.1 519.8 396.6 524.1 425.6 Z M 617.7 379.7 620.2 397.2 624.1 414.2 631.7 413.6 633.1 451.2 594.4 454.3 596.6 478.4 584 479 582.9 455.7 578.4 418.9 538.4 423.8 533.1 394.1 550 391.8 547.8 383.6 594.3 378.4 598 382.2 617.7 379.7 Z" data-holc_grade="C"/>
<path d="M 395.2 518.6 392.6 498.8 385.2 498.8 383.7 481.9 391.5 480.4 390 462.9 429.1 457.1 433.1 480 418.5 516.5 395.2 518.6 Z M 398.1 620.3 392.9 621 402.6 599 421 551.9 425.5 540.5 429.4 527.6 434.3 512.3 437 505.1 439.7 498.5 444.2 487.6 453 465.2 451.3 453.9 466.8 451.6 464.3 432.9 524.1 425.6 518.2 483.3 512.7 520.1 507 551.4 457.3 558 446.8 559.4 422.8 562.5 428.4 595.6 419.7 596.8 422.8 616.7 406 619.2 398.1 620.3 Z M 530.8 548.3 519.9 549.7 525.5 508.3 535.2 427.7 538.4 423.8 542.1 460.3 545.6 461.5 549 497.3 547.6 499.2 551 513 535.8 514.8 542.7 546.7 530.8 548.3 Z" data-holc_grade="C"/>
<path d="M 341.5 713.1 355.2 721.3 349.3 749.7 334.5 773.1 331.9 781.5 318.6 784.4 296.1 711.5 310.9 710.6 323.3 713.4 341.5 713.1 Z" data-holc_grade="C"/>
<path d="M 500 643.1 468.1 647.6 466.6 635.1 500 630.7 502.9 642.4 500 643.1 Z M 467.1 777.6 436.5 772.3 445.3 732.6 425.4 703.8 412.5 657.1 412.8 653 410.3 634.6 406 619.2 422.8 616.7 419.7 596.8 428.4 595.6 422.8 562.5 446.8 559.4 449.8 570.3 451.3 582.8 452.2 601 453.2 624.2 456.2 646.3 460.1 656.8 463.1 683.1 473 751.9 473 756 467.1 777.6 Z M 503.3 581.3 463 585.2 457.3 558 507 551.4 503.3 581.3 Z M 555.7 634.6 532.1 669.1 511.9 691 495.7 704.8 508.3 620.6 535.3 616 529.9 576.5 515.9 578.6 519.9 549.7 530.8 548.3 540 574.9 545.3 575.1 548 581.8 555.7 634.6 Z" data-holc_grade="C"/>
</g>
<g id="D">
<path d="M 454.7 166.8 460.5 166.7 465.2 164.6 473.8 160.5 479.4 155.9 483.4 152.7 488.1 149.3 492.8 147.4 506.9 144.3 510.6 144.3 514.1 145.9 518.4 149.7 519.1 152.3 516.8 156.1 517.7 157.5 518.4 158.5 521.8 159.6 524.3 159.9 527.6 159.9 528.7 160.4 523.1 163.6 517 165.3 513.8 165.5 510.5 165.3 506.6 165 496.5 167.5 490.9 170.3 492 176.2 494.4 178.7 499.3 182.7 500.9 185.5 501 187.4 500 189.5 497.6 190.4 494 191.6 491.4 192.8 489.5 194.3 489 197.4 489 200.7 487.4 206.6 483.7 213 460.7 215.5 457.3 188 454.7 166.8 Z" data-holc_grade="D"/>
<path d="M 804.5 1253.9 798.8 1253.3 793 1260.6 791.9 1262 782.2 1273.1 758.4 1260.5 713.9 1234 669 1207.1 664.4 1203.9 665 1201.1 668.2 1197.7 671.5 1195.1 674 1197.1 682.4 1193 697.4 1202 718 1214.8 733.2 1199.9 723.5 1193 748.4 1167.3 769.1 1179.4 775.5 1171.6 797.9 1184.6 807.2 1176.1 825.7 1187.2 830.4 1155.4 846.6 1164.4 851.3 1163.6 869.5 1166.9 842.7 1196.3 823.7 1212.1 837.8 1220.4 804.5 1253.9 Z" data-holc_grade="D"/>
<path d="M 760.3 1278.5 743.1 1296.5 730.6 1298 730.4 1309.8 712 1311.6 699.3 1312.7 688.8 1264.5 687.2 1254.1 684.5 1250.9 678.7 1247.4 672.2 1243.6 656.7 1235.3 636 1227 630.6 1225.2 617.1 1222.3 606.9 1220.4 599.7 1218.1 594.5 1217 582.7 1212.9 572.1 1209.3 563 1207.2 549.3 1205.1 529.1 1201.8 514.6 1199.1 492.6 1195.6 436.7 1187 377.3 1164.2 400.7 1125.1 412.3 1130.2 415.5 1124 404.4 1118.8 417.4 1097 480.8 1121.3 477.7 1128.5 485.9 1131.4 484.6 1139.8 516.1 1151.7 519 1138.3 518.9 1121.3 521.1 1116.4 533.3 1118.7 630.1 1201.9 639.9 1195.6 648.9 1203.6 658.9 1208.6 658.8 1214 753.3 1270 750.7 1272.7 760.3 1278.5 Z M 461.5 1125.4 451.7 1120.7 448.4 1125.6 458 1129.8 461.5 1125.4 Z" data-holc_grade="D"/>
<path d="M 928.7 1153.2 921.9 1155.8 918.4 1155.9 913.8 1155.9 898.5 1151.6 901.9 1148 912.6 1148.7 916.5 1142.2 919.3 1134.4 919.3 1129 916.6 1120.4 919.4 1119 933.5 1121.9 936 1126.3 934.6 1136.8 930.9 1149.9 928.7 1153.2 Z" data-holc_grade="D"/>
<path d="M 1031 1269.9 1003.4 1288.6 984.6 1268.6 994.7 1263.3 1012.2 1251 1031 1269.9 Z" data-holc_grade="D"/>
<path d="M 997.4 1351.4 981.7 1369.6 997.4 1376.5 989.1 1382.5 904.3 1343.4 920 1319.4 922.7 1316 936.1 1320.1 948.9 1304.3 970.3 1327.7 997.4 1351.4 Z" data-holc_grade="D"/>
<path d="M 712 1311.6 730.4 1309.8 730.6 1298 743.1 1296.5 760.3 1278.5 793.3 1297.8 798.2 1302.5 809.2 1315.2 819.1 1321.3 830.4 1327.4 858.2 1343.7 864.8 1343.2 961.5 1390.8 972.9 1396.3 984.3 1398.5 1067 1448.2 1023.5 1477.9 1020.3 1477.3 1019.5 1475.2 1001.1 1461.7 1000.1 1462.6 985.4 1489.4 983.3 1490.6 980.4 1491.4 976.4 1491.1 972.9 1488.7 936.7 1464.8 907.2 1439 895 1428.8 860.9 1428.7 844.5 1421 837.5 1417.1 830.8 1412.1 825.3 1407.4 818.7 1403.7 800.2 1394.8 769.6 1380.2 765.8 1380.3 759 1380.7 751.9 1379.9 746 1378 738.6 1373.4 733.1 1366.4 729.3 1359.4 724.1 1347.5 719.3 1339 713.5 1327.1 712.2 1322.8 712 1311.6 Z" data-holc_grade="D"/>
<path d="M 1437.3 1299.4 1445.3 1302.4 1451.3 1305.7 1458.4 1309.5 1464.7 1312.9 1474.4 1317.5 1488.7 1324.2 1494.5 1326.6 1502.4 1330.2 1512.1 1334.1 1522.8 1338.9 1530.4 1342.5 1536.4 1345.1 1542.5 1347.8 1546.8 1350.2 1551.2 1351.6 1558 1353.6 1565.5 1355.9 1570.4 1358.2 1576.3 1361.8 1580.9 1364.8 1584.5 1367.5 1590.4 1371.5 1595.4 1374.8 1599.6 1377.6 1604.3 1380.8 1608.1 1383.9 1613.4 1388.6 1616.7 1391.7 1620.5 1394.8 1623.6 1398.3 1624.4 1400.8 1624.4 1402.9 1623.6 1404.5 1617.5 1409.4 1613.5 1412.5 1610.5 1414.4 1607.9 1414.8 1606 1414.8 1605.1 1414.9 1599.3 1419.3 1591.7 1424.4 1584.8 1428.8 1582.4 1430.9 1581.5 1431.5 1581 1432.6 1581.6 1434.6 1581.9 1439.6 1581.5 1443.9 1580.7 1446.2 1579.1 1447.6 1577.8 1447.4 1576.5 1446.5 1574.5 1444.3 1569.7 1439.6 1564.6 1437.2 1563.9 1436.3 1561.3 1433.3 1549.4 1424 1540.7 1419.7 1527.1 1413.4 1511.3 1406.8 1504.2 1402.6 1495.1 1395.9 1479.3 1385.7 1474.1 1381.5 1469.8 1375.7 1468.9 1370.5 1466.5 1370.4 1462.5 1368.4 1460.2 1366 1457.5 1365 1452.2 1365.7 1452.6 1363.3 1452.4 1361.3 1450.6 1359.3 1448.5 1357.7 1445.9 1359.6 1442.8 1360.7 1438.8 1360.6 1435.2 1356.6 1430.6 1353.1 1422.5 1349.4 1414.9 1345.1 1409.2 1343 1400.1 1331.2 1407.4 1331.7 1413 1331.9 1417.6 1330.2 1418.7 1327.8 1418.7 1325.4 1418 1323.1 1415.1 1320.3 1404.9 1317.7 1396 1316 1389.2 1314.1 1378.7 1311.4 1374.1 1309 1394.8 1307.3 1406.3 1306.4 1414.3 1306.1 1422.1 1306.6 1424.8 1301.6 1426.4 1299.2 1427.7 1297.2 1429.9 1296.5 1431.7 1296.9 1437.3 1299.4 Z" data-holc_grade="D"/>
<path d="M 1410.3 1374.2 1402 1381.9 1389.2 1369.4 1374.8 1356.5 1368 1350.2 1365.2 1346 1358.8 1339.5 1366.4 1334.8 1378 1344.6 1381.1 1342.4 1383.6 1340.8 1386.1 1339.6 1388.9 1339.6 1392 1340.2 1394.1 1341.6 1395.1 1343.6 1397 1346 1398.1 1347.3 1400.9 1347.8 1403.2 1347.9 1405.7 1348.1 1407.7 1348.6 1410.7 1350.3 1413.8 1352.8 1417.3 1356.8 1426.2 1366.1 1420.1 1368.5 1410.3 1374.2 Z" data-holc_grade="D"/>
<path d="M 1383.8 1602.6 1405.8 1632.9 1419.7 1649.4 1455.6 1697.7 1482.2 1731.5 1487.8 1729 1499.2 1745.1 1461.8 1765.6 1440.7 1775.1 1456.1 1802 1448.4 1807.2 1399.2 1807.4 1373.3 1786.2 1349.3 1765.8 1325 1748 1290.2 1717.3 1252.1 1683 1178.8 1621.7 1149 1639.5 1103.4 1592.5 1130.2 1574.7 1096.6 1542.8 1057.5 1509.3 1129 1460.1 1153.8 1471.2 1281.3 1531.1 1311 1546.6 1358.9 1569.7 1383.8 1602.6 Z M 1317.9 1450.2 1344 1475.8 1331.3 1485 1326.1 1488.6 1308.6 1471.6 1269.6 1497.2 1270.2 1499.4 1290.2 1505.5 1342.4 1527.6 1362.2 1532.9 1401.1 1584.5 1459.7 1558.8 1479.2 1584.7 1447.1 1598.8 1454.9 1610.3 1445.8 1614.9 1450.8 1621.2 1440 1626.5 1457.6 1653.5 1472.6 1672.5 1480.6 1684.9 1488.8 1705.6 1504.3 1701.9 1510.4 1720.6 1494.3 1727.9 1472.4 1700.8 1454.7 1675.6 1426.2 1638.9 1393 1595.2 1366.8 1558.9 1327.5 1540.3 1283.9 1518.1 1242 1499.7 1250.2 1494.4 1317.9 1450.2 Z M 1192.8 1475 1167.2 1462.9 1135.7 1449 1108.6 1438.6 1104.1 1437.6 1143.8 1410.6 1176 1437.9 1189.5 1429.8 1207.2 1445.8 1200.5 1450.3 1213.4 1462.4 1192.8 1475 Z" data-holc_grade="D"/>
<path d="M 1575.6 1862.6 1657.1 1991.5 1652.9 1993.4 1603.4 1963.1 1532.2 1914.2 1527.8 1916.7 1500.2 1891.4 1470.7 1864.1 1478.6 1859.6 1488.9 1858.9 1503.7 1861.6 1515.2 1864.9 1528.1 1863.1 1536.2 1863.1 1546.3 1865.5 1559.1 1869.8 1565.5 1870.5 1571.1 1865.1 1575.6 1862.6 Z" data-holc_grade="D"/>
<path d="M 387.5 444.4 215.8 466.2 191.4 393.6 189.3 384.9 380.9 361.8 381.6 367.7 371.7 371.5 373.9 386.9 384.6 386.6 386.1 405.6 380.9 405.6 377.9 409.1 378.3 417.2 383.8 417.5 384.2 422.8 387.9 423.4 387.5 444.4 Z M 249.5 407.3 249.6 413.2 262.2 411.8 261.6 405.7 249.5 407.3 Z M 379.1 348.1 379.8 353.1 184.3 376.9 176 357.2 284.3 342.9 280.8 315.2 357.8 306.8 362.7 349.7 379.1 348.1 Z" data-holc_grade="D"/>
<path d="M 810.2 1417 784.5 1447.1 778 1444.6 770 1454.8 752.2 1445.9 742.1 1457.4 733.5 1453.4 723.6 1448.8 728.4 1442.9 665.6 1413.5 662.5 1418.1 630.5 1404.2 633.3 1399.6 593.2 1383.1 590.5 1387 531.4 1361.4 520.3 1356.8 510.8 1355.3 481.2 1355.6 481.2 1358.5 442.8 1356.5 417.2 1355.4 417.2 1336.7 377.3 1336.1 377 1344.5 348 1343.7 349.2 1306 448.1 1308.3 452.8 1310 457.8 1311.6 463.9 1312.6 470.1 1313.5 477.5 1316.3 483.7 1319.9 486.7 1323.7 487.5 1327.9 488 1330 491.4 1331.9 496.5 1333.9 505.6 1334.5 511.1 1335.5 520.2 1336.9 536.5 1342.2 548.6 1349.3 567.5 1358.8 579.8 1341.2 670.6 1380.5 686.7 1387.1 672.9 1406 679.7 1408.8 694 1390.2 721.2 1400.9 725.5 1396.3 732.5 1385.9 759 1394.5 778 1403.2 810.2 1417 Z" data-holc_grade="D"/>
<path d="M 214.3 584 147.2 597.7 142.8 585.4 142.8 581 137.3 562.5 125.4 529.8 118.7 509.4 112.6 492 106.9 477.9 102.2 469.2 97.3 460.5 95.7 457.8 95.8 450.4 89 440 75.7 420.6 71.7 410.5 107 402 179.3 385.2 193.5 431.5 206.5 471.6 210.6 486.1 239.9 578.7 214.3 584 Z M 132.1 238.1 175.7 377.5 76.2 399.1 69.8 402 70.6 407.4 51.9 411.9 29.2 343.1 2.1 250.2 15.4 247.6 17.4 248.6 20.3 251.1 24.8 252.3 30 251.7 38.1 249.8 44.5 248.8 65.4 247.6 69.8 245.7 79.2 244.7 89.5 242.4 97.2 241.8 106.8 242.4 112.4 241.4 121.8 239.3 132.1 238.1 Z M 123.6 349.3 127.2 361.1 137.6 359.1 133.4 346.7 123.6 349.3 Z" data-holc_grade="D"/>
<path d="M 395.2 518.6 390.4 521 394.8 541.1 404 541.7 408.5 569.7 397.1 594.8 355.8 599.9 359.4 618.7 388.3 614.5 384.8 622.2 379.8 622.7 347.5 626.3 342.4 607.6 289.5 614.3 280.7 594.2 276.2 595.1 269.2 576.1 250.7 579.9 215.8 466.2 387.5 444.4 425.9 439.3 429.1 457.1 390 462.9 391.5 480.4 383.7 481.9 385.2 498.8 392.6 498.8 395.2 518.6 Z M 255.7 507 260.7 538.1 277.7 535.5 272.2 505.3 255.7 507 Z M 451.3 453.9 444.6 405.6 459.5 404.1 464.3 432.9 466.8 451.6 451.3 453.9 Z" data-holc_grade="D"/>
<path d="M 508.3 620.6 494.7 622.1 491.5 607.9 466.1 610.4 463 585.2 503.3 581.3 515.9 578.6 529.9 576.5 535.3 616 508.3 620.6 Z" data-holc_grade="D"/>
<path d="M 281.6 719.5 303.4 788.3 285.6 792.4 273.4 786.3 228.8 795 218 792.7 203.3 789.5 195.1 791.2 174.8 691.2 171.9 683 162.3 656.8 158.9 642.8 153.4 624.4 150.4 614.5 150.4 608.6 147.2 597.7 214.3 584 265.7 723 281.6 719.5 Z" data-holc_grade="D"/>
<path d="M 331.9 781.5 334.5 773.1 349.3 749.7 355.2 721.3 392.9 621 398.1 620.3 403.6 665.1 414.2 706.9 431.6 731.1 376.9 941.1 373 949.3 325.7 801.9 331.9 781.5 Z M 281.6 719.5 265.7 723 214.3 584 239.9 578.7 247.1 607.9 259.5 642 260.7 654.6 281.6 719.5 Z M 379.8 622.7 341.5 713.1 323.3 713.4 310.9 710.6 296.1 711.5 285.5 684.4 277.8 666.7 265.4 631.2 250.7 579.9 269.2 576.1 276.2 595.1 280.7 594.2 289.5 614.3 342.4 607.6 347.5 626.3 379.8 622.7 Z" data-holc_grade="D"/>
<path d="M 367.2 977.6 361.3 979.3 317.9 962 319.2 957.1 265.9 945.7 254.8 972 224.1 963.4 218.9 976.8 207.1 1007 198.2 1005.8 183.1 1044.9 125.1 1031.6 119.6 1039.7 179.4 1053.1 279.1 1074.7 265.8 1118.8 151.7 1093.1 145.4 1092.3 112.9 1073.6 91.1 1061.6 61.6 1045.9 22.8 1024.3 1 1013.2 13.2 1005 26.1 998 51.6 980.2 60.8 972 66.7 967.6 72.7 963.9 80.8 959.5 90.8 954.2 109.2 941.1 129.5 919.8 143.6 903.2 154.3 892.7 161.3 882.4 164.3 877.5 170.2 866.7 173.5 859.4 175 851.8 204.1 842.5 205.6 841 201.6 829.1 293.2 809.8 313.1 814.8 367.2 977.6 Z M 276.8 841.6 259.5 863.2 268.7 865.6 276.8 841.6 Z M 149.3 932.5 173.8 945 183.6 933.6 158.8 920.2 149.3 932.5 Z" data-holc_grade="D"/>
<path d="M 183.1 1044.9 198.2 1005.8 207.1 1007 218.9 976.8 249.8 984.7 254.8 972 265.9 945.7 319.2 957.1 317.9 962 361.3 979.3 367.2 977.6 370.6 990.4 315.5 1080.2 288.1 1068.3 183.1 1044.9 Z" data-holc_grade="D"/>
</g>
</svg>