<?xml version="1.0"?>
<svg xmlns="http://www.w3.org/2000/svg" version="1.2" baseProfile="tiny" width="3000" height="3769" viewBox="0 0 3000 3769" stroke-linecap="round" stroke-linejoin="round">
<g id="A">
<path d="M 1666.5 1862.5 1669.9 1860.7 1676.5 1849.6 1672.8 1836.4 1657.7 1823.9 1644.4 1816.9 1628.1 1810.3 1625.9 1805.5 1626.6 1794.1 1635.9 1791.2 1641.8 1785.6 1641 1781.2 1635.5 1775.7 1625.2 1769.8 1606.7 1759.2 1594.1 1758.1 1583.8 1761.4 1573.5 1769.1 1559.4 1778.3 1559.1 1791.9 1560.9 1804.4 1554.3 1817.3 1556.8 1828.7 1560.9 1841.5 1573.1 1867.7 1565.3 1870.2 1556.8 1868 1546.5 1859.9 1538.4 1853.7 1535.1 1853.3 1521.4 1856.3 1506.2 1848.3 1480 1834.6 1480.8 1831.6 1484.8 1818.4 1491.5 1809.2 1497.8 1795.9 1501.1 1772.4 1507.4 1757.7 1515.5 1744.5 1531.7 1728.6 1543.1 1710.3 1544.3 1708.4 1555 1695.9 1579 1665.8 1583.8 1650.3 1582.7 1637.1 1570.5 1621.6 1558.3 1600.3 1543.5 1576.8 1530.2 1554.3 1514.4 1526 1497.4 1499.2 1484.8 1480.8 1463.3 1452.4 1472.9 1445 1477.7 1443.5 1484.4 1446.8 1496.9 1460.8 1510.2 1471.1 1522.8 1479.5 1530.9 1494.2 1543.1 1499.7 1557.5 1499.7 1561.5 1490.6 1572.6 1487.6 1575.2 1481.7 1578.2 1468.5 1585.9 1461.9 1596.6 1455.3 1598.8 1449.4 1594.4 1445 1590.7 1442 1590.3 1435.8 1594 1427.3 1601.4 1425.1 1613.6 1416.6 1618 1408.9 1628.7 1403.4 1640.2 1403.8 1653.8 1401.6 1662.3 1397.9 1670.5 1390.9 1674.5 1378 1671.9 1370.3 1669.3 1361.5 1668.2 1354.9 1670.8 1350.8 1677.8 1345.3 1689.3 1340.5 1689.3 1332.8 1690.8 1329.5 1693.3 1327.3 1699.6 1327.3 1710 1329.9 1719.6 1326.6 1725.5 1318.1 1727.1 1305.7 1732.7 1296 1738.2 1288.2 1735 1278.6 1727.6 1273.5 1727.6 1269.8 1728.5 1266.2 1734.5 1261.6 1736.3 1256.5 1734 1247.8 1735 1238.1 1775.6 1237.2 1776 1233.5 1786.8 1245.8 1792 1253.5 1796.1 1268.6 1800.1 1273.8 1811.6 1275.2 1813.8 1276.7 1827.4 1284.1 1835.9 1290.7 1847.4 1303.9 1861.4 1316.4 1874 1326.3 1911.6 1332.9 1922 1336.6 1937.1 1344.3 1950 1380.3 1951.1 1387 1959.3 1398.7 1958.5 1406.4 1958.5 1413.8 1952.3 1428.1 1940.8 1446.2 1933.1 1463.1 1935.7 1476.7 1928.7 1488.4 1925.3 1502.1 1925 1514.2 1921.7 1529.3 1926.5 1545.8 1931.3 1563.8 1936.1 1571.2 1937.9 1580.7 1935.3 1588.5 1927.6 1603.5 1923.2 1616.8 1918.4 1632.6 1916.9 1642.5 1925 1653.9 1931.7 1658.7 1935.4 1660.5 1938.3 1664.6 1957.1 1671.6 1937.6 1690.7 1889.2 1760.9 1873.7 1777.9 1864.9 1793.7 1857.5 1797.4 1844.5 1798.1 1820.9 1794.4 1788.8 1789.3 1764 1788.9 1726 1789.3 1726.4 1804.7 1724.1 1807.7 1722.7 1816.1 1723.8 1821.3 1740.4 1838.2 1747.1 1845.6 1751.9 1851.5 1758.9 1855.5 1765.2 1860.3 1767 1860.6 1773.6 1861.7 1789.9 1863.2 1820.2 1863.2 1836.4 1862.1 1851.6 1862.1 1861.5 1863.2 1867.8 1866.9 1875.2 1869.1 1878.5 1869.1 1908.5 1857.3 1916.6 1854.4 1922.1 1851.4 1926.9 1852.1 1929.5 1854 1932.5 1859.1 1941.3 1867.2 1952.8 1872 1967.6 1874.6 1978.3 1876 1991.2 1882.7 2001.5 1888.9 2009.3 1898.1 2015.6 1917.2 2017.8 1929 2023 1934.1 2031.5 1940 2040.3 1951 2043.7 1955.1 2046.3 1960.2 2050.3 1982.3 2053.7 1996.6 2053.3 2008.4 2055.5 2017.6 2061.1 2027.5 2060.3 2033.4 2044.8 2047.8 2031.5 2052.9 2021.2 2055.5 2003.1 2055.5 1989.4 2051.8 1975.4 2043.8 1956.2 2034.2 1938.4 2025.7 1923.6 2018 1918.8 2010.7 1913.3 1997.8 1903.7 1984.2 1897 1972.1 1887.8 1963.2 1863 1959.2 1851.6 1956.3 1848.6 1953.7 1844.6 1947.4 1822 1929.8 1799.5 1913.2 1774.4 1896.3 1765.2 1893.4 1751.1 1889.7 1734.5 1880.9 1719.4 1875 1703.5 1873.2 1680.6 1871.3 1672.1 1867.6 1666.5 1862.5 Z" data-holc_grade="A"/>
<path d="M 815.5 224.1 806.3 231.9 800.6 235.5 796.7 251 795.4 257.7 785.8 247 781.2 238.8 774 234.2 765 235.2 733.1 244.8 742.9 251.8 753.1 255.9 757.9 258.6 759.7 261.7 760.7 272 739.6 277.9 732.5 281.4 725.4 287.8 719.4 294 711 302.6 698.2 310.3 691.1 314.2 682.4 314.5 672.7 313.4 661.2 306.7 653.7 298.8 637.7 282.7 627.3 275.4 614.9 285.1 613.6 278.3 609 273 602.1 270.5 589.7 270.1 582.2 271.2 585.3 285.7 581.9 299.6 580 295.6 569 284.3 560.9 277.1 552.6 269.1 549.4 262.4 546 255 545.4 241.9 532 217.5 520.8 204.3 517.2 199.7 514.9 197.5 498.2 191.9 494.7 192.5 489.2 192.5 485.9 190.9 485.4 188.1 490.9 186.3 494.3 180.9 494.8 176.2 487.5 175.4 488 171.9 489.2 166.2 493.8 160.8 490.1 160.9 483.6 160 476.2 158.3 471.2 156.5 467.2 152.8 463.8 148.8 461 144.1 460.3 140.8 461.6 135.9 463 133.6 469.5 129.8 478.2 125.2 473.5 114 474.6 113.3 478.3 111.7 482.5 111.1 488.2 112 491.6 114.3 493.4 118 496.5 121.2 502.8 123.7 508.9 123.6 513.1 122.1 513.7 118.6 513.6 114.2 513.3 104.2 515.1 97.9 516.3 90.6 514.5 83.2 509.9 77 504.5 70.6 500.6 63.4 508.5 56.2 514.1 52.9 528.5 45.9 539.9 41.9 548.4 38.1 558.2 30 564.6 22.6 569.6 18.6 581.2 13.5 592.1 9.6 601.2 6.5 606.3 3.2 607.1 1.2 615.4 1 615.7 8 614.4 12.4 613.9 16.2 621.8 23.4 644.5 41.4 650.6 47.9 656.6 54.7 664.8 62 671.6 67.9 681.7 77.8 688.3 84.4 703.1 93.3 714.2 101.9 724.7 111.1 745.9 134.2 757.9 142.7 773.3 162.2 785.5 174.8 799 190.1 804.5 200.6 815.5 224.1 Z M 548.5 218.9 555.7 221.5 566 219.3 573.6 217.6 578.8 216 578 210.6 575.5 207.5 572.3 204.8 567.7 204.4 557.7 206 549.6 205.1 545 201.3 543.9 209 545.2 214.7 548.5 218.9 Z M 719.7 270.9 718.8 266.6 714.5 263.8 708.4 265.2 709.2 273 719.7 270.9 Z" data-holc_grade="A"/>
<path d="M 1176.9 1946.2 1171.8 1958 1171.1 1966.8 1172.9 1976.8 1148.5 1984.9 1127.5 1973.8 1122.7 1973.4 1056.9 1945.8 1011.5 1984.8 991.2 1976.7 1023.9 1923.2 1024.8 1927.6 1034 1932.4 1048.8 1930.2 1052.5 1921.7 1059.1 1918.8 1069.8 1921.4 1084.6 1928 1099.4 1938.7 1109.7 1944.6 1130.4 1944.6 1141.8 1947.1 1161.4 1947.2 1176.9 1946.2 Z" data-holc_grade="A"/>
<path d="M 1666.5 1862.5 1653.3 1856.3 1646.7 1853 1640.4 1853.4 1634.9 1855.6 1633 1862.6 1631.9 1873.6 1628.6 1882.8 1627.1 1888.3 1623.8 1893.1 1616.3 1895.8 1612.3 1897.2 1596.4 1886.9 1608.3 1872.5 1608.6 1867.4 1607.9 1865.2 1606.4 1864.8 1601.2 1866.6 1593.5 1871.1 1583.9 1872.2 1573.1 1867.7 1560.9 1841.5 1556.8 1828.7 1554.3 1817.3 1560.9 1804.4 1559.1 1791.9 1559.4 1778.3 1573.5 1769.1 1583.8 1761.4 1594.1 1758.1 1606.7 1759.2 1625.2 1769.8 1635.5 1775.7 1641 1781.2 1641.8 1785.6 1635.9 1791.2 1626.6 1794.1 1625.9 1805.5 1628.1 1810.3 1644.4 1816.9 1657.7 1823.9 1672.8 1836.4 1676.5 1849.6 1669.9 1860.7 1666.5 1862.5 Z" data-holc_grade="A"/>
<path d="M 487.5 175.4 486.8 180 485.4 188.1 485.9 190.9 489.2 192.5 494.7 192.5 498.2 191.9 514.9 197.5 517.2 199.7 520.8 204.3 532 217.5 545.4 241.9 546 255 549.4 262.4 552.6 269.1 560.9 277.1 569 284.3 580 295.6 581.9 299.6 581.6 308.7 565.5 304.5 545.6 302.8 526.3 303.3 511.3 308.3 507.4 292.9 504.8 284.3 490.4 286.2 484.2 271.8 472 276.6 461.6 279.9 455.2 278.9 454.4 273.6 448.2 258.6 443.2 246.8 433.7 238 413.4 219.2 401.3 206.8 388.9 196.5 381.2 184.8 378 167.4 377.1 160.7 377.4 151.8 375.1 141.5 371.8 135.7 381.1 131 389 127.6 394.9 129.3 398.3 127.2 405.1 118.7 411.2 114.7 417.1 111.2 424 109 430.5 108.3 437.6 105.5 455 99.6 460.5 99.6 465.5 99.6 469.5 99.8 474.2 99 480.7 97.3 485.1 93.8 487.8 88.9 500.6 63.4 504.5 70.6 509.9 77 514.5 83.2 516.3 90.6 515.1 97.9 513.3 104.2 513.6 114.2 513.7 118.6 513.1 122.1 508.9 123.6 502.8 123.7 496.5 121.2 493.4 118 491.6 114.3 488.2 112 482.5 111.1 478.3 111.7 474.6 113.3 473.5 114 478.2 125.2 469.5 129.8 463 133.6 461.6 135.9 460.3 140.8 461 144.1 463.8 148.8 467.2 152.8 471.2 156.5 476.2 158.3 483.6 160 490.1 160.9 493.8 160.8 489.2 166.2 488 171.9 487.5 175.4 Z" data-holc_grade="A"/>
<path d="M 725.8 401.8 731.3 389.7 733.7 378.7 733.7 372.4 734.5 366.5 737.4 363.6 741.3 361.4 746.7 359.2 750.4 357.4 751.8 353.5 751.6 349.8 749.3 344.5 741.9 337 738.4 332.4 736.7 321.2 745 315.8 760.2 311.1 766.1 311.6 771 312 775.8 311.6 784.9 308.5 793.4 302.5 791.7 301.5 786.7 301.5 783 301 777.9 298.8 776.8 296.9 775.5 294.4 779 287.2 777.9 282.2 771.4 275.1 766.3 272 760.7 272 759.7 261.7 757.9 258.6 753.1 255.9 742.9 251.8 733.1 244.8 765 235.2 774 234.2 781.2 238.8 785.8 247 795.4 257.7 796.7 251 800.6 235.5 806.3 231.9 815.5 224.1 819.9 232.8 823.9 243.3 829.5 250.8 839.1 258.3 850.6 264.4 875.1 281.2 900.2 297.1 906.7 301.2 924.4 312.6 928.8 317.4 933.9 322.1 937.4 328.2 938.6 334.4 939.7 349.7 942.7 370 943.6 374.7 952.7 381.1 961.6 387 967.5 393.2 980.2 403.8 983.9 411.7 983.3 436.3 988.5 483.7 919.6 493.1 919.5 487.9 917.2 485.2 906.9 484.1 898.1 482.8 894.4 479.7 891.8 470.1 888.7 457.8 880.4 443.3 875.9 440 875 440.2 875.7 444.6 875.9 449.3 875.2 451 872.2 449.9 866.9 442.2 864.5 435.2 859.9 428.9 852.7 424.9 839.6 425.1 833 426.2 824.3 434.1 813 439.8 801.8 444.5 779.6 447.1 773.9 449.5 749.6 453.3 747.3 447.8 744.2 442.5 735.9 435.9 730 428.5 727.8 420.4 726.5 411.8 725.8 401.8 Z" data-holc_grade="A"/>
<path d="M 1051.3 1062.7 974.7 1074.7 972.4 1041.6 968.2 1030.6 989.5 999.8 1027.8 996.6 1022.3 941.5 972.4 943.8 968.7 906.1 978.9 904.3 972.9 849.6 1039.8 843.1 1157.1 837.5 1162.3 838.2 1175.1 832.9 1184.3 825.3 1200.5 807.1 1215.3 789.7 1223.8 779.7 1230.9 773.8 1235.8 764.3 1257.5 745.2 1268.4 745.3 1275.8 748.8 1279.6 754.7 1283.2 765.3 1290.9 790.6 1297.3 807.4 1301.8 815.6 1310.9 822.7 1316.8 825.9 1328.6 829.7 1336.9 829.4 1347.5 828.2 1351.1 827.4 1356.7 830.9 1363.8 834.7 1377.9 838.5 1382.7 845 1386.8 851.8 1389.2 863.2 1394.2 860.6 1400.7 861.2 1405.4 865.9 1418.1 883.2 1428.1 899.4 1436.1 914.1 1440.8 923.2 1445.3 929.1 1445.9 933.8 1443.8 942.6 1439.1 952.3 1424.5 971.6 1419.4 982.1 1394.5 991.3 1381.1 997.3 1338.7 1010.2 1309.1 1022.6 1297.1 1023.5 1288.4 1022.6 1284.8 1018.7 1284.3 1010.2 1283.7 1005.5 1274.8 1001.4 1258.3 998.7 1242.3 1000.8 1229.3 1003.4 1214.3 1004 1206.9 1000.2 1198.9 998.1 1189.5 1001.1 1184.7 1006.1 1162.9 1013.1 1167.6 1054 1064 1060.7 1051.3 1062.7 Z" data-holc_grade="A"/>
<path d="M 1113.8 1265.1 1101.5 1269.2 1093.5 1271.8 1084.1 1278.9 1074.6 1287.4 1067.2 1293.3 1055.7 1297.7 1044.8 1299.5 1039.2 1297 1035.9 1290 1035.2 1281.2 1041.1 1274.6 1040.3 1254 1034.8 1236 1015.6 1232.3 1013.4 1228.6 1023.7 1213.6 1030.7 1211 1044.4 1213.9 1055.9 1211.4 1064.7 1204.8 1065.1 1194.5 1061.4 1184.5 1055.9 1177.9 1052.9 1172.8 1053.7 1167.6 1058.1 1157.7 1056.2 1149.6 1071 1150.4 1081.7 1155.9 1087.6 1162.9 1093.9 1170.6 1101.3 1172.8 1106.8 1170.2 1103.9 1158.5 1105 1150.7 1111.2 1142.6 1111.2 1137.9 1088.4 1115.8 1103.5 1113.6 1117.2 1115.1 1129.3 1120.2 1144.5 1133.1 1154.1 1144.1 1155.2 1152.9 1151.1 1160.7 1139.3 1161 1153.3 1181.3 1161.4 1181.6 1165.9 1178.3 1169.9 1192.7 1175.8 1192.7 1180.3 1196 1184 1203.3 1184 1212.5 1181.7 1219.5 1163.6 1233.1 1165.5 1238.6 1113.8 1265.1 Z" data-holc_grade="A"/>
<path d="M 1463.3 1452.4 1484.8 1480.8 1497.4 1499.2 1514.4 1526 1530.2 1554.3 1543.5 1576.8 1558.3 1600.3 1570.5 1621.6 1582.7 1637.1 1583.8 1650.3 1579 1665.8 1555 1695.9 1544.3 1708.4 1543.1 1710.3 1520.9 1693.5 1471.2 1650.9 1433.1 1620.9 1413.9 1602.6 1379.8 1579 1323.4 1480.8 1333.6 1478.1 1343.3 1471.2 1360.3 1448.7 1367.7 1438.6 1376 1433.1 1389 1429.8 1410.6 1425.2 1422.2 1425.2 1438.8 1429.8 1451.3 1439.5 1460.9 1450.1 1463.3 1452.4 Z" data-holc_grade="A"/>
<path d="M 1323.4 1480.8 1379.8 1579 1331.3 1586.5 1332.7 1594.6 1339.4 1604.2 1349 1611.5 1351.2 1619.6 1347.5 1625.5 1339.4 1628.4 1334.2 1627.7 1341.6 1646.1 1340.9 1657.1 1306.9 1660.8 1312.8 1782.1 1261.9 1766.8 1215.7 1755.4 1208 1740 1201.7 1724.9 1200.6 1713.5 1192.4 1702.1 1179.5 1694.7 1180.6 1682.2 1174.4 1678.9 1121.2 1708.7 1137.4 1677.1 1148.1 1676.3 1148.9 1649.1 1145.6 1643.6 1143 1628.5 1134.1 1621.2 1121.9 1606.8 1117.9 1597.3 1111.6 1576.7 1103.9 1567.1 1127.5 1560.5 1137.8 1549.1 1155.6 1547.3 1167 1542.1 1211.3 1534.4 1229.8 1531.8 1232.7 1523 1226.5 1510.2 1209.1 1478.9 1208 1463.1 1213.5 1457.9 1231.6 1456.8 1250.1 1461.3 1271.1 1471.2 1286.7 1479.6 1304.7 1480 1323.4 1480.8 Z" data-holc_grade="A"/>
<path d="M 1543.1 1710.3 1531.7 1728.6 1515.5 1744.5 1507.4 1757.7 1501.1 1772.4 1497.8 1795.9 1491.5 1809.2 1484.8 1818.4 1480.8 1831.6 1480 1834.6 1437.2 1821.1 1364.8 1798.4 1312.8 1782.1 1306.9 1660.8 1340.9 1657.1 1341.6 1646.1 1334.2 1627.7 1339.4 1628.4 1347.5 1625.5 1351.2 1619.6 1349 1611.5 1339.4 1604.2 1332.7 1594.6 1331.3 1586.5 1379.8 1579 1413.9 1602.6 1433.1 1620.9 1471.2 1650.9 1520.9 1693.5 1543.1 1710.3 Z" data-holc_grade="A"/>
<path d="M 1215.7 1755.4 1261.9 1766.8 1312.8 1782.1 1364.8 1798.4 1344.5 1820.8 1337.9 1830.7 1322.7 1840.6 1310.9 1847.6 1297.2 1861.2 1280.6 1866 1262.9 1871.9 1251.1 1881.8 1235.6 1889.1 1213 1894.3 1200.8 1893.9 1195.3 1899.4 1182.4 1910.5 1166.9 1920 1145.4 1918.2 1133.6 1914.1 1119.2 1904.2 1107.8 1902 1098.5 1896.1 1082.7 1883.2 1063.5 1870.3 1048.7 1859.3 1045.4 1854.9 1045.9 1850.6 1059.5 1850.3 1074.3 1863.5 1090.2 1870.6 1109.4 1873.3 1124.8 1873 1146.4 1867.7 1160.5 1866.5 1171.2 1857.1 1190.1 1848 1209.3 1843.3 1228.5 1841.2 1234.4 1837.7 1221.7 1829.5 1215.5 1820 1211.7 1808.3 1211.7 1800.9 1217.3 1795.6 1219.1 1792.1 1216.7 1782.4 1210.8 1778 1206.9 1771.5 1205.2 1763.8 1206.6 1752.9 1215.7 1755.4 Z" data-holc_grade="A"/>
</g>
<g id="B">
<path d="M 352.5 285.8 357.7 143 364.4 138.3 371.8 135.7 375.1 141.5 377.4 151.8 377.1 160.7 378 167.4 381.2 184.8 388.9 196.5 401.3 206.8 413.4 219.2 433.7 238 443.2 246.8 448.2 258.6 454.4 273.6 455.2 278.9 399.5 283.2 352.5 285.8 Z" data-holc_grade="B"/>
<path d="M 702 1223.5 749.8 1215 740 1292.7 706.4 1293.6 697.5 1224.3 702 1223.5 Z" data-holc_grade="B"/>
<path d="M 1088.4 1115.8 1111.2 1137.9 1111.2 1142.6 1105 1150.7 1103.9 1158.5 1106.8 1170.2 1101.3 1172.8 1093.9 1170.6 1087.6 1162.9 1081.7 1155.9 1071 1150.4 1056.2 1149.6 1058.1 1157.7 1053.7 1167.6 1052.9 1172.8 1055.9 1177.9 1061.4 1184.5 1065.1 1194.5 1064.7 1204.8 1055.9 1211.4 1044.4 1213.9 1030.7 1211 1023.7 1213.6 1013.4 1228.6 1015.6 1232.3 1034.8 1236 1040.3 1254 1041.1 1274.6 1035.2 1281.2 1035.9 1290 1039.2 1297 1035.5 1298.1 990.1 1330.8 981.6 1333 972 1335.6 946.2 1349.2 927.3 1352.5 914.4 1354.7 923.1 1337.7 973.5 1238.6 979.8 1221.6 1031.5 1130.9 955.1 1170.5 937.7 1137.1 908.2 1148.5 925.9 1125.7 916.7 1105.1 892.7 1114.6 889.2 1105.7 887.6 1101.4 902.7 1078.4 974.7 1074.7 1051.3 1062.7 1049.6 1079 1065.9 1080.9 1084.7 1082 1089.1 1104 1088.4 1115.8 Z" data-holc_grade="B"/>
<path d="M 1168.7 1111.2 1169.1 1161.6 1173.9 1162.7 1193.4 1178.8 1198.6 1185.5 1204.1 1199.4 1219.6 1211.6 1229.6 1222.6 1239.9 1225.5 1245.5 1226.3 1256.9 1228.9 1265.8 1235.5 1271.7 1234 1279.4 1235.8 1289 1240.3 1302 1252 1320.8 1259 1393.2 1353 1472.9 1445 1463.3 1452.4 1460.9 1450.1 1451.3 1439.5 1438.8 1429.8 1422.2 1425.2 1410.6 1425.2 1389 1429.8 1376 1433.1 1367.7 1438.6 1360.3 1448.7 1343.3 1471.2 1333.6 1478.1 1323.4 1480.8 1313.7 1462.5 1299.9 1446.4 1272.2 1425.7 1261.1 1414.5 1113.8 1265.1 1165.5 1238.6 1163.6 1233.1 1181.7 1219.5 1184 1212.5 1184 1203.3 1180.3 1196 1175.8 1192.7 1169.9 1192.7 1165.9 1178.3 1161.4 1181.6 1153.3 1181.3 1139.3 1161 1151.1 1160.7 1155.2 1152.9 1154.1 1144.1 1144.5 1133.1 1129.3 1120.2 1117.2 1115.1 1103.5 1113.6 1088.4 1115.8 1089.1 1104 1084.7 1082 1094.3 1075.4 1109 1073.2 1124.2 1077.2 1130.5 1080.9 1138.6 1091.2 1150.8 1102.2 1168.7 1111.2 Z" data-holc_grade="B"/>
<path d="M 1320.8 1259 1320.1 1253.1 1326 1242.8 1334.8 1232.2 1341.5 1226.7 1356.2 1225.6 1367.3 1226.3 1372.8 1228.9 1375.4 1234.8 1377.6 1247.2 1375.8 1256.8 1391.8 1270.8 1396.8 1284.6 1399 1292.8 1399 1307.2 1412.3 1323.2 1425.6 1333.6 1435.5 1353 1440 1350.2 1449.4 1353 1454.9 1372.8 1461.6 1381.6 1469.3 1393.8 1489.2 1414.7 1518 1393.2 1528 1360.7 1532.4 1342.5 1536.3 1317.7 1543 1296.2 1551.3 1288.4 1559 1270.8 1566.8 1262.5 1564.6 1237.1 1565.1 1220 1570.1 1194.1 1579.5 1171.5 1598.4 1143.5 1611.3 1118.2 1627.9 1088.3 1644.5 1074.6 1657.9 1062.2 1671.7 1075.5 1680 1097.1 1684.2 1115.5 1684.6 1124.2 1695.7 1130.6 1714.6 1135.2 1733.1 1142.1 1743.2 1153.1 1748.3 1161.4 1750.6 1178.9 1752.5 1197.2 1775.1 1226.2 1776 1233.5 1775.6 1237.2 1735 1238.1 1734 1247.8 1736.3 1256.5 1734.5 1261.6 1728.5 1266.2 1727.6 1269.8 1727.6 1273.5 1735 1278.6 1738.2 1288.2 1732.7 1296 1727.1 1305.7 1725.5 1318.1 1719.6 1326.6 1710 1329.9 1699.6 1327.3 1693.3 1327.3 1690.8 1329.5 1689.3 1332.8 1689.3 1340.5 1677.8 1345.3 1670.8 1350.8 1668.2 1354.9 1669.3 1361.5 1671.9 1370.3 1674.5 1378 1670.5 1390.9 1662.3 1397.9 1653.8 1401.6 1640.2 1403.8 1628.7 1403.4 1618 1408.9 1613.6 1416.6 1601.4 1425.1 1594 1427.3 1590.3 1435.8 1590.7 1442 1594.4 1445 1598.8 1449.4 1596.6 1455.3 1585.9 1461.9 1578.2 1468.5 1575.2 1481.7 1572.6 1487.6 1561.5 1490.6 1557.5 1499.7 1543.1 1499.7 1530.9 1494.2 1522.8 1479.5 1510.2 1471.1 1496.9 1460.8 1484.4 1446.8 1477.7 1443.5 1472.9 1445 1393.2 1353 1320.8 1259 Z" data-holc_grade="B"/>
<path d="M 1323.4 1480.8 1304.7 1480 1286.7 1479.6 1271.1 1471.2 1250.1 1461.3 1231.6 1456.8 1213.5 1457.9 1208 1463.1 1173 1478.4 1149 1481.1 1112.5 1494.9 1083.4 1496.7 1069.1 1496.3 1046.5 1500.9 1053.9 1518.3 1046.5 1522 1053 1539.9 1059.4 1565.2 1040.5 1571.7 1039.5 1597.9 1024.3 1650.7 1015.1 1698.5 1002.3 1694.2 966.2 1654.9 941.3 1627.9 949.7 1618.3 945 1607.7 959.4 1590.3 961.8 1582.6 964 1576 964.9 1557.6 1000 1540.6 1008.3 1533.7 1022.2 1508 1030.5 1493.3 1034.7 1490.5 1038.8 1487.8 1069.2 1477.2 1108 1468 1146.8 1453.8 1173.1 1449.7 1182.3 1449.2 1187 1447.8 1188.8 1442.3 1190.6 1438.6 1206.3 1432.2 1261.1 1414.5 1272.2 1425.7 1299.9 1446.4 1313.7 1462.5 1323.4 1480.8 Z" data-holc_grade="B"/>
<path d="M 1215.7 1755.4 1206.6 1752.9 1097.4 1722.7 1049.7 1709.6 1015.1 1698.5 1024.3 1650.7 1039.5 1597.9 1040.5 1571.7 1059.4 1565.2 1053 1539.9 1046.5 1522 1053.9 1518.3 1046.5 1500.9 1069.1 1496.3 1083.4 1496.7 1112.5 1494.9 1149 1481.1 1173 1478.4 1208 1463.1 1209.1 1478.9 1226.5 1510.2 1232.7 1523 1229.8 1531.8 1211.3 1534.4 1167 1542.1 1155.6 1547.3 1137.8 1549.1 1127.5 1560.5 1125.9 1554.3 1119.1 1543.7 1113.3 1530.7 1111.9 1513.7 1102.1 1513.7 1087.7 1539.4 1101.4 1564.8 1103.9 1567.1 1111.6 1576.7 1117.9 1597.3 1121.9 1606.8 1134.1 1621.2 1143 1628.5 1145.6 1643.6 1148.9 1649.1 1148.1 1676.3 1137.4 1677.1 1121.2 1708.7 1174.4 1678.9 1180.6 1682.2 1179.5 1694.7 1192.4 1702.1 1200.6 1713.5 1201.7 1724.9 1208 1740 1215.7 1755.4 Z" data-holc_grade="B"/>
<path d="M 961.8 1582.6 959.4 1590.3 945 1607.7 949.7 1618.3 941.3 1627.9 966.2 1654.9 956.2 1657.5 953.4 1661.6 955.3 1665.8 972.8 1687.4 946 1717.3 901.2 1675.9 886 1645.9 881.9 1637.7 887.4 1635.9 907.3 1624.8 916.5 1616.1 920.2 1605.1 930.8 1601 939.6 1591.3 941.9 1579.8 941.9 1566.9 961.8 1582.6 Z" data-holc_grade="B"/>
<path d="M 886 1645.9 901.2 1675.9 946 1717.3 972.8 1687.4 955.3 1665.8 953.4 1661.6 956.2 1657.5 966.2 1654.9 1002.3 1694.2 1015.1 1698.5 1049.7 1709.6 1097.4 1722.7 1075.2 1741.6 1069.2 1747.8 1064.4 1755.2 1064.8 1760.7 1065.6 1766.9 1063.7 1773.2 1055.9 1780.6 1046.3 1787.9 1039 1789 1033.8 1784.6 1030.8 1779.4 1031.9 1772.5 1036.7 1760 1027.9 1762.5 1012.5 1762.5 1006.5 1762.5 992.1 1759.2 985.4 1764.7 982.5 1765.4 979.1 1777.2 976.5 1795.6 970.3 1803.7 953.6 1812.9 941.5 1783.8 939.2 1767.3 937.4 1754 933.3 1744.1 928.5 1736 922.3 1730.5 911.9 1723.9 892 1713.2 880.9 1703.6 871.7 1693.3 854 1677.9 841.4 1668.3 841 1686.7 837.7 1695.1 830 1702.5 818.5 1706.9 804.8 1715.7 784.9 1729 770.9 1715.7 775.3 1712 785.3 1702.8 791.2 1691.5 794.9 1680.1 815.6 1665.7 821.9 1655.1 832.6 1641.1 848.5 1637.4 855.5 1644.4 865.1 1647.4 886 1645.9 Z" data-holc_grade="B"/>
<path d="M 953.6 1812.9 952.1 1825.2 948.8 1838.5 939.9 1844.9 927.7 1849.3 922.8 1849.7 917.7 1856.3 912 1861.4 900.2 1867.4 882.5 1871.1 869.2 1872 851.5 1870 847.9 1867.1 848.4 1850.4 841.7 1837.1 832.9 1824.8 818 1814.4 807.6 1804.7 801.4 1800 794.3 1804.4 788.3 1795.4 782.8 1787 788.6 1786.1 798.6 1785.7 805.6 1782.1 818.9 1774 825.6 1772.5 832.5 1772.9 838.2 1773.6 883.7 1739.2 887.7 1743.1 889.9 1748.4 891.4 1755.5 897 1757.3 904.7 1755.1 910.7 1751.3 912.7 1742.7 914.7 1736.3 922.3 1730.5 928.5 1736 933.3 1744.1 937.4 1754 939.2 1767.3 941.5 1783.8 953.6 1812.9 Z" data-holc_grade="B"/>
<path d="M 1206.6 1752.9 1205.2 1763.8 1206.9 1771.5 1210.8 1778 1216.7 1782.4 1219.1 1792.1 1217.3 1795.6 1211.7 1800.9 1211.7 1808.3 1215.5 1820 1221.7 1829.5 1234.4 1837.7 1228.5 1841.2 1209.3 1843.3 1190.1 1848 1171.2 1857.1 1160.5 1866.5 1146.4 1867.7 1124.8 1873 1109.4 1873.3 1090.2 1870.6 1074.3 1863.5 1059.5 1850.3 1045.9 1850.6 1037.9 1842.1 1007.5 1852.3 986.2 1862.9 973.8 1855 985 1837.9 996.6 1814.7 1003.1 1794.1 1006.9 1776.1 1012.5 1762.5 1027.9 1762.5 1036.7 1760 1031.9 1772.5 1030.8 1779.4 1033.8 1784.6 1039 1789 1046.3 1787.9 1055.9 1780.6 1063.7 1773.2 1065.6 1766.9 1064.8 1760.7 1064.4 1755.2 1069.2 1747.8 1075.2 1741.6 1097.4 1722.7 1206.6 1752.9 Z" data-holc_grade="B"/>
<path d="M 357.7 143 352.5 285.8 235.7 295 220.6 236.9 218.3 224.5 210.1 189.6 202.7 165.3 198.1 141.8 211.9 140.8 224.6 140.5 236.7 142.6 246.7 145.9 259.7 148.8 275.3 151.8 287.7 155.9 297.4 160 305.1 163.8 312.5 164.7 321.6 165.9 330.2 164.7 336.7 162.7 344.4 157.1 349.1 151.2 357.7 143 Z M 307.7 187.6 282.3 185.4 280.4 219.5 305.9 221.4 307.7 187.6 Z" data-holc_grade="B"/>
<path d="M 1023.9 1923.2 991.2 1976.7 1011.5 1984.8 1056.9 1945.8 1122.7 1973.4 1114.6 1980 1111 1985.6 1113.1 1993.5 1108.9 2004.7 1108.9 2007.9 1110.7 2014.7 1110.7 2021.2 1106.9 2025.6 1044.2 2033.8 1018.2 2040.3 1006.7 2042 990.7 2047.9 981.6 2022.6 973 2024.4 978.9 2000.2 946.2 1983.9 956.6 1978.2 969.9 1966.4 993.6 1934.4 1022.9 1917.7 1023.9 1923.2 Z" data-holc_grade="B"/>
<path d="M 1437.2 1821.1 1414.1 1840.9 1384.5 1864.4 1364.2 1875.1 1354.2 1874.4 1347.6 1879.1 1329.8 1893.8 1317.7 1905.6 1309.5 1921.1 1301.4 1927.7 1291.1 1932.1 1282.6 1938.3 1274.1 1948.3 1267.4 1954.9 1255.2 1958.2 1241.2 1956 1226.4 1948.6 1222.4 1948.6 1218.7 1951.9 1210.9 1954.9 1203.1 1952.3 1186.2 1945.7 1176.9 1946.2 1161.4 1947.2 1141.8 1947.1 1130.4 1944.6 1109.7 1944.6 1099.4 1938.7 1084.6 1928 1069.8 1921.4 1059.1 1918.8 1052.5 1921.7 1048.8 1930.2 1034 1932.4 1024.8 1927.6 1023.9 1923.2 1022.9 1917.7 1034.7 1898.2 1029.6 1895.3 1005.9 1885.7 993.7 1878.7 1045.4 1854.9 1048.7 1859.3 1063.5 1870.3 1082.7 1883.2 1098.5 1896.1 1107.8 1902 1119.2 1904.2 1133.6 1914.1 1145.4 1918.2 1166.9 1920 1182.4 1910.5 1195.3 1899.4 1200.8 1893.9 1213 1894.3 1235.6 1889.1 1251.1 1881.8 1262.9 1871.9 1280.6 1866 1297.2 1861.2 1310.9 1847.6 1322.7 1840.6 1337.9 1830.7 1344.5 1820.8 1364.8 1798.4 1437.2 1821.1 Z" data-holc_grade="B"/>
<path d="M 1573.1 1867.7 1583.9 1872.2 1593.5 1871.1 1601.2 1866.6 1606.4 1864.8 1607.9 1865.2 1608.6 1867.4 1608.3 1872.5 1596.4 1886.9 1612.3 1897.2 1616.3 1895.8 1649.9 1912.1 1611.8 1934.2 1590.5 1949.8 1574.8 1938.6 1567.1 1938.6 1558.3 1940.6 1558.3 1938 1557.4 1931.2 1554.7 1925.3 1551.5 1918.9 1546.8 1913.6 1535.2 1932.4 1525.2 1945 1511.6 1953 1499.2 1955.3 1493.6 1954.3 1490 1953.6 1465.8 1945.6 1462.2 1926.2 1464.9 1907.4 1469.9 1891.8 1475.3 1883.8 1481.5 1877.1 1496.5 1868 1501 1865.9 1500.4 1853.8 1506.2 1848.3 1521.4 1856.3 1535.1 1853.3 1538.4 1853.7 1546.5 1859.9 1556.8 1868 1565.3 1870.2 1573.1 1867.7 Z" data-holc_grade="B"/>
<path d="M 1465.8 1945.6 1461.8 1950.5 1460.5 1953.2 1459.8 1966.3 1456.1 1981.3 1449.3 1996.1 1448.5 2001.2 1451.3 2006.1 1453.8 2009.4 1443.9 2037.7 1436.4 2064.2 1450.6 2068 1437.6 2106.4 1411.7 2185.3 1392.4 2179.5 1395.8 2173.4 1401.3 2148.6 1403.5 2128.7 1399.6 2120.5 1378.6 2114.9 1384.7 2079.1 1324.8 2066.9 1311.5 2109.4 1288.3 2104.4 1299.9 2061.4 1229 2042.1 1224.6 2063.6 1186.9 2055.3 1163 2076.8 1146.4 2065.8 1134.8 2073.5 1114.3 2047 1114.3 2043.7 1128.1 2036 1137 2036 1148.6 2037.7 1159.2 2041 1167.5 2033.8 1179.1 2041.5 1200.2 2022.2 1209 2029.4 1247.8 1989.7 1245.6 1980.8 1241.2 1974.8 1232.9 1971.5 1219 1969.8 1209.1 1972.6 1202.4 1978.6 1188 1992.4 1172.9 1976.8 1171.1 1966.8 1171.8 1958 1176.9 1946.2 1186.2 1945.7 1203.1 1952.3 1210.9 1954.9 1218.7 1951.9 1222.4 1948.6 1226.4 1948.6 1241.2 1956 1255.2 1958.2 1267.4 1954.9 1274.1 1948.3 1282.6 1938.3 1291.1 1932.1 1301.4 1927.7 1309.5 1921.1 1317.7 1905.6 1329.8 1893.8 1347.6 1879.1 1354.2 1874.4 1364.2 1875.1 1384.5 1864.4 1414.1 1840.9 1437.2 1821.1 1480 1834.6 1506.2 1848.3 1500.4 1853.8 1501 1865.9 1496.5 1868 1481.5 1877.1 1475.3 1883.8 1469.9 1891.8 1464.9 1907.4 1462.2 1926.2 1465.8 1945.6 Z M 1358.2 1928.8 1347.5 1915.2 1309 1939.5 1318.9 1954.4 1358.2 1928.8 Z" data-holc_grade="B"/>
<path d="M 1378.6 2114.9 1374.4 2117.6 1378.4 2133.8 1378.4 2144.1 1374.2 2158.7 1368.4 2171.1 1352.2 2169.7 1347.1 2176.6 1329.2 2162.2 1322.5 2151.2 1317.4 2132.9 1311.5 2109.4 1324.8 2066.9 1384.7 2079.1 1378.6 2114.9 Z" data-holc_grade="B"/>
<path d="M 1411.7 2185.3 1368.8 2312.2 1348.4 2302.2 1358.4 2276.6 1361.4 2264.8 1356.4 2243 1361.7 2237.5 1369.1 2213.6 1370.5 2191.8 1377.1 2184.6 1382.4 2184.5 1392.4 2179.5 1411.7 2185.3 Z" data-holc_grade="B"/>
<path d="M 1512.9 2052.4 1507.5 2049.8 1490.1 2046.3 1472.6 2041 1464.4 2035.7 1469.1 2020.7 1477 2001.1 1496.3 2005.2 1514 1972.1 1527.3 1979.4 1512.5 2001.5 1509.9 2010 1518.4 2014 1531.7 2025.8 1561.6 1990.5 1594.5 2018.4 1628.5 2033.1 1601.5 2066.6 1579 2046.4 1553.9 2079.1 1517.7 2046.7 1512.9 2052.4 Z" data-holc_grade="B"/>
<path d="M 1622.4 2137.5 1570.8 2200.6 1516.5 2174.5 1518.7 2151.3 1509.9 2144.3 1522.7 2091 1569.4 2104.1 1575.9 2109.5 1579.8 2116.3 1603.4 2129.5 1622.4 2137.5 Z" data-holc_grade="B"/>
<path d="M 1714.3 2105.4 1685 2169.3 1677.2 2177.9 1641.1 2137.2 1630.7 2125.8 1689.3 2053.5 1703.6 2067.6 1698.8 2086.7 1714.3 2105.4 Z" data-holc_grade="B"/>
<path d="M 1885 2056.9 1877.9 2058.7 1862 2058.7 1851.3 2063.1 1839.9 2067.5 1828.8 2073.8 1825.5 2082.3 1815.5 2065.7 1807 2053.6 1800 2044.7 1794.8 2043.3 1790 2044.4 1778.6 2056.9 1778.6 2061.3 1774.5 2069.8 1763.1 2084.8 1763.1 2088.2 1762.7 2100.3 1758.6 2109.9 1751.6 2117.2 1745.3 2106.5 1744.6 2091.8 1741.6 2082.6 1729.1 2076.4 1714.3 2105.4 1698.8 2086.7 1703.6 2067.6 1689.3 2053.5 1709.8 2028.3 1709.8 2025 1706.8 2022.8 1698.3 2021.7 1693.1 2017.7 1693.5 2011 1701.3 2004.4 1719.7 1988.6 1724.5 1980.9 1724.5 1975 1722.3 1969.5 1716.8 1964 1694.8 1943.9 1698 1938.5 1705 1935.9 1713.5 1933.7 1727.2 1934.4 1732.7 1937.7 1739.4 1941.4 1755.6 1945.1 1768.2 1948.7 1778.2 1947.6 1784.1 1948 1788.9 1950.6 1800 1956.1 1813.3 1958.3 1821 1959.8 1825.5 1962.7 1829.2 1974.8 1840.2 1981.1 1858 1989.9 1868.3 1998.4 1874.6 2005.4 1876.8 2012.4 1879 2019.3 1883.8 2026 1890.9 2030 1899.7 2032.6 1905.6 2037 1908.6 2042.9 1908.2 2048.8 1903.1 2052.1 1892.7 2055 1885 2056.9 Z" data-holc_grade="B"/>
<path d="M 387.6 463.8 376.5 466.7 367.3 467.8 357.3 466.3 347.4 461.2 338.1 461.6 330.4 460.4 315.4 453.8 322.9 426.7 310.4 422.5 304.9 405.5 284.6 410.6 274.5 368.3 233.4 380.2 217.3 383.4 211.3 356.8 263.4 341.2 255.2 310.4 366 300.9 377.5 298.6 391.3 299.5 424.6 297.2 437.9 345 426.3 375.8 427.7 408.4 426.8 425.8 421.7 435.9 416.6 443.3 413.4 461.2 387.6 463.8 Z" data-holc_grade="B"/>
<path d="M 1825.5 2082.3 1828.8 2073.8 1839.9 2067.5 1851.3 2063.1 1862 2058.7 1877.9 2058.7 1885 2056.9 1893.1 2062.4 1900.1 2070.8 1904.5 2082.6 1904.9 2090 1903.4 2097.3 1901.2 2098.8 1913.8 2100.6 1924.9 2102.8 1921.5 2111.3 1913.8 2123.4 1907.9 2130.4 1896.1 2138.5 1884.6 2145.1 1865 2152.5 1846.2 2155.1 1835.5 2152.9 1827 2145.9 1822.9 2136 1821.1 2124.6 1814.4 2112.4 1821.8 2104.3 1825.5 2082.3 Z" data-holc_grade="B"/>
<path d="M 1848.9 2400.8 1855.4 2404.6 1866.7 2409.9 1883.5 2415.2 1882.6 2423.4 1884.2 2438.1 1889.1 2451.6 1892.8 2459.3 1901 2463.7 1911.5 2466.4 1912.3 2477.5 1913.9 2484.7 1914.9 2491.1 1914.3 2494 1911.4 2497.8 1906.4 2502.2 1896.8 2509.2 1895.9 2510.8 1897.3 2515.2 1905 2525.8 1912.6 2537.6 1918.5 2545.1 1924.1 2551.4 1934.1 2555.9 1931.1 2561.3 1922 2575.2 1904.9 2593.1 1885.9 2611.4 1874.3 2609.1 1866.8 2608.2 1857.1 2609.5 1841.1 2609.5 1825.2 2608.4 1805 2606.6 1780.3 2605.5 1767.3 2605.3 1754 2606.2 1736.1 2604.4 1722.4 2602.3 1699.2 2599.4 1687.8 2596.8 1685 2564.2 1681.3 2543 1670.3 2520 1693.3 2503.9 1678.6 2484.2 1678.6 2480.5 1692 2469.4 1677.2 2455.2 1686.9 2450.1 1700.7 2440.9 1713.2 2429.4 1722.9 2418.8 1745.5 2443.7 1768.2 2428 1780.2 2415.1 1783.4 2404.6 1781.5 2398.1 1776.5 2388.9 1766.3 2378.8 1775.5 2368.7 1785.2 2363.6 1794.9 2361.8 1805 2361.9 1810.6 2363.9 1814.5 2366.8 1818.5 2373.4 1823.6 2380 1827.6 2383.6 1837.6 2387.8 1843.1 2391.5 1847.8 2396.1 1848.9 2400.8 Z" data-holc_grade="B"/>
<path d="M 1885.9 2611.4 1904.9 2593.1 1922 2575.2 1931.1 2561.3 1934.1 2555.9 1940.6 2544.1 1951.7 2531 1959 2521.8 1971 2512 1983.2 2505.9 1985.6 2501.7 1990.7 2493.3 1996.2 2483.6 2000.9 2474.9 2005.5 2470.7 2020 2488.8 2029.3 2481.4 2053.5 2508.7 2042.4 2515.4 2049.3 2522.8 2037.9 2531.7 2047.4 2544 2051.6 2552 2061.8 2563.9 2083.6 2588.2 2102.7 2611.8 2092.6 2618.7 2080.7 2605.4 2075.6 2599.2 2022.4 2569.2 1955.9 2625.5 1948.4 2618.5 1940.9 2626.2 1931.1 2625.8 1922 2622.2 1906.3 2617.4 1895.4 2614.9 1885.9 2611.4 Z" data-holc_grade="B"/>
<path d="M 2184.2 2707.3 2135.6 2666.6 2132.2 2663.8 2138.2 2656.1 2132.8 2651.1 2116.3 2642.6 2105.6 2634.3 2097.3 2625.8 2092.6 2618.7 2102.7 2611.8 2115.1 2597.2 2115.9 2603 2116.4 2609.9 2117.7 2614.3 2121.8 2618.6 2129.3 2622.7 2135.4 2625.2 2142.9 2628.1 2149.8 2631.3 2159.5 2638.8 2167.3 2646.7 2181.4 2630.9 2188.7 2615.3 2190.9 2616.9 2193.4 2620.4 2196.5 2626 2198.6 2630.8 2201.5 2638.8 2205.6 2641.7 2212.5 2644.2 2219.2 2646.7 2225 2651.9 2226.4 2657.5 2225.9 2661.6 2222.3 2666.9 2217.9 2669.8 2214 2672.5 2206.7 2676.5 2199 2685.9 2184.2 2707.3 Z" data-holc_grade="B"/>
<path d="M 1970.8 2671.9 1979.2 2672.8 1995.6 2675.5 2008 2681.4 2016.3 2690.3 2028.1 2702 2024.9 2706 1976.5 2741 1875 2824.6 1855.1 2800.3 1863.3 2782.4 1837.8 2747.7 1937.1 2668 1970.8 2671.9 Z" data-holc_grade="B"/>
<path d="M 2067.3 2866.4 2033 2886.6 2025.3 2882.8 2004 2858 1977.7 2823.3 1988.9 2813.6 1996.7 2806.8 2032 2853.9 2048.4 2839.9 2064.3 2836.1 2084.1 2858.7 2067.3 2866.4 Z" data-holc_grade="B"/>
<path d="M 2238.1 2864.5 2225.7 2859.5 2216.5 2852.1 2212 2842.1 2207.9 2833.3 2164 2858.2 2138.2 2872.8 2113.8 2834.9 2135.4 2820.2 2129 2811.4 2150.7 2796.7 2178.2 2773.8 2211.9 2755.8 2233.9 2791.7 2236.6 2799.7 2230.4 2803.8 2228 2807.4 2236.3 2825.9 2242.2 2825.6 2245.1 2826.8 2250.8 2835 2257.9 2850.3 2262.6 2864.2 2253.2 2865.1 2238.1 2864.5 Z" data-holc_grade="B"/>
<path d="M 2352.9 2743.5 2361 2752.1 2363.4 2758.7 2364.7 2767.3 2363.9 2778.8 2361.6 2789.2 2357 2798.5 2351.2 2807.1 2345.5 2811.5 2335.1 2818.8 2326.4 2822.6 2321.1 2824.6 2314 2824.3 2309.6 2822.6 2302.2 2822.6 2291.6 2825.5 2279.6 2829.9 2267.2 2835.9 2260.8 2826.6 2258.3 2817.5 2253.4 2805.6 2268.5 2795.7 2267 2791.5 2262.7 2780.9 2254.2 2763.8 2262.4 2760.7 2268 2759.4 2277.2 2760.1 2286.6 2761 2291.7 2758.1 2294.1 2755.5 2298.2 2753.8 2305.2 2754.6 2310.2 2753.2 2312.7 2750.5 2316.5 2745.7 2318.5 2742.9 2322 2740.2 2327.3 2739.5 2331.7 2739.9 2335.9 2741.1 2340.9 2742.7 2347.8 2743.6 2352.9 2743.5 Z" data-holc_grade="B"/>
<path d="M 2432.3 3018.3 2416.4 3023.8 2388.6 2998.1 2384.2 2989.6 2383.8 2981.1 2367.9 2980.4 2367.9 2973.1 2365.3 2967.9 2386.4 2942.5 2381 2935.4 2393 2910.5 2399 2898 2408.2 2894.8 2416.8 2887.4 2421.3 2885.6 2426.3 2885.6 2429.7 2886.6 2432.4 2888.7 2434.9 2890.2 2439.8 2889.7 2443.9 2886.9 2450.5 2884 2454.7 2883.7 2457.9 2884.9 2459.3 2885.4 2465.2 2882.4 2469.9 2877.8 2475.7 2871.7 2479.2 2866.4 2482.8 2866.1 2494 2873.4 2495.2 2854.2 2498.6 2853.8 2504 2855.1 2509.5 2852.5 2515.1 2848 2521.5 2846.5 2525.5 2846.7 2527.2 2848.9 2530.4 2851.1 2537.2 2850.9 2542.3 2847.8 2548.3 2845.6 2552.5 2845.6 2553.9 2841.6 2553.6 2834.8 2552.3 2828.1 2549 2816.7 2544.3 2803.6 2544.1 2796.1 2551.2 2791.1 2546.3 2777.4 2542.5 2767.2 2542.5 2760.6 2552.1 2752.5 2558.6 2747.1 2571.3 2737 2583.7 2729.1 2591.5 2724.3 2603.7 2716.9 2614.2 2709.4 2625.8 2700.5 2643.5 2684.9 2658.5 2680.4 2673.5 2675.8 2690.3 2673.4 2706 2671 2723.3 2667 2741.3 2663.4 2757.7 2659.9 2761.6 2659.2 2765.7 2662 2772.3 2666.9 2777.5 2672.2 2782.5 2678.5 2787.3 2685.7 2795.3 2696.3 2802.5 2707 2809.5 2719.1 2815.4 2727.8 2820.8 2738.3 2820.1 2743.6 2815.8 2748.9 2807.7 2754.1 2803.8 2755.8 2798.4 2755.8 2787.9 2757.2 2780 2759.8 2764.5 2762.8 2754.1 2762.6 2724.4 2762.8 2713.1 2763.4 2711.4 2765.2 2707.9 2767.2 2701.4 2768.5 2687.6 2771.5 2681.9 2774.1 2676.3 2774.1 2672.8 2776.7 2669.1 2782.9 2667.1 2791.4 2665.1 2799.1 2665.4 2806.7 2662.1 2807.8 2660.3 2811.3 2652.5 2811.5 2635.7 2814.8 2631.6 2816.1 2611.7 2818.7 2602.4 2820.3 2594.7 2823.1 2588.4 2828.3 2584.5 2833.4 2580.7 2841.3 2577.1 2848.3 2574.3 2855.9 2573.2 2860.5 2573.5 2864.2 2577.3 2874.8 2578.8 2877.6 2587.1 2877.3 2596.7 2876.4 2614.2 2874.1 2619.8 2871.4 2626.4 2864.1 2635.1 2856.8 2646.1 2848.4 2648.4 2845.3 2657.7 2844.7 2673.6 2843.3 2685.6 2842.7 2690.7 2839.6 2703.3 2837.3 2706.2 2836 2716.4 2835.3 2719.7 2833.3 2723.1 2833.3 2737 2822.5 2741.2 2817.4 2764.3 2811.9 2767.9 2813.9 2767.9 2815.9 2769.6 2820.3 2776.3 2832.9 2783 2843.2 2787.2 2851.4 2789.8 2858.9 2791.4 2863.5 2792.3 2869.3 2792.7 2875 2791 2881.9 2787.7 2887.2 2783.9 2890.7 2777.2 2899.8 2771.3 2909.9 2766.2 2920.5 2762.2 2927.8 2757.1 2934.7 2755.1 2937.8 2748 2940.9 2735.1 2943.1 2718 2947.1 2702.5 2950.5 2691.9 2953.3 2670.8 2958 2630.2 2966.5 2610.1 2970.3 2593.1 2974.4 2588.2 2974.6 2582 2971.5 2574.5 2968.7 2565.8 2963.6 2557.9 2959 2553.4 2951.7 2551.4 2954.8 2545.2 2959.2 2533.5 2966 2523.9 2972.5 2516 2977.8 2510.2 2979.3 2507.3 2979.3 2504.4 2982 2502.4 2987.7 2499.1 2993.2 2496.4 2996.3 2490.7 2998.3 2482 2998.3 2474.2 2997.4 2470.7 2996.2 2464.6 2992.7 2457.8 2989.7 2451.4 2989 2444.9 2991.9 2440.4 2995.8 2438.1 2997.7 2437.7 3001.8 2436.7 3005.9 2435 3010.2 2432.3 3018.3 Z" data-holc_grade="B"/>
<path d="M 2373.8 3284.1 2315.8 3304.7 2280.6 3242.3 2322.1 3228.3 2336.5 3215 2371.2 3273.7 2373.8 3284.1 Z" data-holc_grade="B"/>
<path d="M 581.6 308.7 588.8 310.5 596 321 594.9 327.6 581.6 338.6 578.2 351.9 579.3 360.1 588.2 369 601.5 379.4 616.4 388.8 617.8 401.6 621.3 435.2 625.3 472.6 610.5 474.3 572.7 478.5 569.5 472.1 537.2 474.8 537.2 484 498.9 490.9 483.2 501.9 491 525.8 491.5 545.5 454.6 554.2 453.7 565.3 419.2 570.4 358.4 576.2 351.6 558.6 389.8 540.9 413.4 461.2 416.6 443.3 421.7 435.9 426.8 425.8 427.7 408.4 426.3 375.8 437.9 345 424.6 297.2 456 296.1 507.4 292.9 511.3 308.3 526.3 303.3 545.6 302.8 565.5 304.5 581.6 308.7 Z" data-holc_grade="B"/>
<path d="M 2469.2 3379.3 2423.4 3390.5 2436.8 3460 2448.9 3458.6 2457.2 3462.3 2466 3466.9 2474.7 3465.9 2485.4 3461.3 2498.1 3462.9 2501.2 3469.2 2491.2 3477.6 2482.8 3483.1 2466.8 3483.4 2445.1 3483.4 2422.9 3486.9 2410.7 3488.7 2401.4 3487.6 2387.6 3485.8 2375.6 3494.2 2369.6 3492.7 2276.5 3323.7 2315.8 3304.7 2373.8 3284.1 2406.2 3271.3 2469.2 3379.3 Z" data-holc_grade="B"/>
<path d="M 2216.1 3376.6 2238.8 3361.6 2263.4 3351.3 2285.6 3401.6 2319.9 3455.2 2356.9 3513.8 2352.8 3522.1 2346.6 3525 2335.6 3525 2323.8 3519.4 2312.9 3516.8 2300.7 3513 2291.9 3513.8 2248.6 3439.1 2216.1 3376.6 Z" data-holc_grade="B"/>
<path d="M 2662 3476.9 2556.1 3510.9 2555.3 3508.7 2551 3495.9 2538 3473.5 2527.9 3436.7 2526.7 3422 2525 3417.3 2520.5 3416.4 2515.8 3415.8 2509 3418.4 2505.4 3422.9 2508.4 3436.7 2505.5 3447 2498.1 3462.9 2485.4 3461.3 2474.7 3465.9 2466 3466.9 2457.2 3462.3 2448.9 3458.6 2436.8 3460 2423.4 3390.5 2469.2 3379.3 2515 3368.9 2525.1 3366.6 2652.5 3362.6 2651.8 3367.7 2648.3 3374.5 2648 3385.1 2649.2 3392.4 2652.4 3402.7 2656 3421.3 2655.7 3444.8 2658.7 3462.2 2662 3476.9 Z" data-holc_grade="B"/>
<path d="M 716.8 2680.1 732.2 2680.2 764.4 2695.8 738.6 2742 787.4 2769.7 786.2 2775.6 775.6 2783.3 764.6 2785 750.7 2781.2 746 2773 740.1 2765.6 730.1 2758.8 711.4 2750 694.9 2742.6 679.2 2731.4 670.4 2723.5 647.3 2713.5 648.8 2679 716.8 2680.1 Z" data-holc_grade="B"/>
<path d="M 1016.1 2940.4 1051.7 2961.8 1082.8 2990.4 1092.5 2980.7 1126.5 3010.1 1106.1 3033.1 1093.4 3023.7 1082.8 3021.2 1072.3 3020.9 1060.5 3018.1 1051.7 3010.4 1042.9 3006.3 1030.1 3010.7 1019.8 3008 1012.4 3001.3 1000.9 2983 974 2961.5 960.6 2945.6 975.4 2938.6 984.3 2936.8 1010.2 2951.1 1016.1 2940.4 Z" data-holc_grade="B"/>
<path d="M 1284.1 2813.6 1246 2857.4 1206.1 2824.6 1184.3 2847.4 1169.5 2834.9 1155.4 2847.8 1138.8 2832.7 1195.7 2745.5 1241.9 2774.5 1250.8 2789.3 1284.1 2813.6 Z" data-holc_grade="B"/>
<path d="M 1227.6 2879.8 1246 2857.4 1284.1 2813.6 1314 2778.2 1318.9 2792.1 1323.1 2800.7 1329.3 2817 1332.2 2836.7 1329.7 2854.4 1321.1 2884.4 1309.8 2905.8 1287.1 2929.7 1227.6 2879.8 Z" data-holc_grade="B"/>
<path d="M 682.4 314.5 686.3 354.6 691.3 406.6 725.8 401.8 726.5 411.8 727.8 420.4 730 428.5 735.9 435.9 744.2 442.5 747.3 447.8 749.6 453.3 773.9 449.5 779.6 447.1 801.8 444.5 813 439.8 824.3 434.1 833 426.2 839.6 425.1 852.7 424.9 859.9 428.9 864.5 435.2 866.9 442.2 872.2 449.9 875.2 451 875.9 449.3 875.7 444.6 875 440.2 875.9 440 880.4 443.3 888.7 457.8 891.8 470.1 894.4 479.7 898.1 482.8 906.9 484.1 917.2 485.2 919.5 487.9 919.6 493.1 881.4 500.2 833.2 512.3 765.7 520.5 701.4 530.9 704.2 548 707.5 592.1 695.9 591 673.7 594.9 667.1 535.3 681.5 532.6 677.7 463.7 643.4 469.5 625.3 472.6 621.3 435.2 640.1 433.4 637.3 398.6 617.8 401.6 616.4 388.8 601.5 379.4 588.2 369 579.3 360.1 578.2 351.9 581.6 338.6 594.9 327.6 596 321 588.8 310.5 581.6 308.7 581.9 299.6 585.3 285.7 582.2 271.2 589.7 270.1 602.1 270.5 609 273 613.6 278.3 614.9 285.1 627.3 275.4 637.7 282.7 653.7 298.8 661.2 306.7 672.7 313.4 682.4 314.5 Z" data-holc_grade="B"/>
<path d="M 351.6 558.6 344.4 539.8 368.4 521.5 387.6 463.8 413.4 461.2 389.8 540.9 351.6 558.6 Z" data-holc_grade="B"/>
<path d="M 947.4 781.2 936.1 782.3 930.2 750.3 926.5 717.2 937.8 696.6 945 694.4 954.9 693.8 973.2 686.1 982.6 682.3 1002.6 666.3 996.2 584.6 1009.1 580 1022.8 574.9 1036.8 569.8 1059.3 565.4 1072.6 566.8 1088.8 570.5 1105.1 576.4 1116.9 582.7 1126.5 591.1 1137.9 602.1 1144.5 613.2 1149.7 620.1 1154.5 630.1 1154.1 636.3 1150.1 645.1 1137.5 649.2 1125 652.1 1113.5 654.7 1104.3 659.8 1089.5 667.2 1079.6 670.5 1064.4 673.8 1057.4 677.8 1052.6 682.2 1048.9 687.7 1048.9 692.5 1053 697.3 1065.2 699.1 1076.6 702.1 1102.1 702.8 1122.4 703.9 1145.3 703.6 1163.3 701.7 1186.6 699.9 1210.9 696.2 1232.7 690.7 1256.7 682.6 1271.5 683.7 1284.4 688.9 1290.8 696.7 1291.1 705.5 1283 712.5 1265.7 727.6 1257.5 745.2 1235.8 764.3 1207.7 784.5 1193.3 795.9 1187 807.3 1178.6 818.3 1168.6 827.5 1162.3 838.2 1157.1 837.5 1154.2 761.7 947.4 781.2 Z" data-holc_grade="B"/>
<path d="M 972.9 849.6 978.9 904.3 968.7 906.1 972.4 943.8 1022.3 941.5 1027.8 996.6 989.5 999.8 968.2 1030.6 972.4 1041.6 974.7 1074.7 902.7 1078.4 886.5 1079.3 877.8 1023.2 813.9 1032.8 803.6 972.5 826.4 969.2 821.3 943.1 823.5 939.4 818.4 871.8 813.2 869.5 807.6 800.5 867.6 791.3 874.2 860.7 875.9 904.8 894.9 903.8 891.6 858.2 949.5 852.3 972.9 849.6 Z" data-holc_grade="B"/>
<path d="M 902.7 1078.4 887.6 1101.4 889.2 1105.7 864.1 1141.7 880.4 1159.4 898.1 1151.2 899 1172 890 1176.1 877.4 1181.7 867.1 1187 856.1 1195.9 848.2 1207 833.4 1199.1 821.9 1099.1 817.8 1086.4 809.8 1086.1 796.1 1035.8 813.9 1032.8 877.8 1023.2 886.5 1079.3 902.7 1078.4 Z" data-holc_grade="B"/>
</g>
<g id="C">
<path d="M 315.4 453.8 304.4 457 290.5 458.3 277.6 459.2 263.3 458.3 246.7 454.6 238.9 452.8 221.8 450.9 213.1 450.5 208 450.5 180.6 338.9 176.1 318.9 208.3 316.3 236.4 313.9 255.2 310.4 263.4 341.2 211.3 356.8 217.3 383.4 233.4 380.2 274.5 368.3 284.6 410.6 304.9 405.5 310.4 422.5 322.9 426.7 315.4 453.8 Z M 124.3 362.5 97.6 263.9 89.7 264.4 67.8 180.8 100.8 174.4 122.1 168.5 173 360.8 124.3 362.5 Z M 198.1 141.8 202.7 165.3 210.1 189.6 218.3 224.5 220.6 236.9 235.7 295 171.5 298.7 151 218.9 142.9 192.2 135.9 154.2 148.8 157 160.8 155.6 175.1 149.6 186.6 144.1 198.1 141.8 Z" data-holc_grade="C"/>
<path d="M 890 1176.1 893.1 1240.9 898.6 1299.7 904.5 1353.4 874.5 1422.8 842.8 1425.8 795.5 1425 795.9 1446.3 805.5 1447.1 804.4 1466.9 725 1471.7 737.2 1338.2 743.3 1331.7 767.7 1305.6 798 1264.1 833.4 1199.1 848.2 1207 856.1 1195.9 867.1 1187 877.4 1181.7 890 1176.1 Z M 923.1 1337.7 920 1310.3 911.7 1207.8 908.2 1148.5 937.7 1137.1 955.1 1170.5 1031.5 1130.9 979.8 1221.6 973.5 1238.6 923.1 1337.7 Z" data-holc_grade="C"/>
<path d="M 751.4 1692.5 704.8 1683.1 703.7 1689.8 677.7 1683.1 725 1471.7 804.4 1466.9 849 1464.8 788.5 1598.8 777.4 1592.7 747 1583.9 742.5 1609.2 749.7 1615.9 753.1 1620.3 753.1 1626.4 760.3 1631.3 782.4 1634.6 751.4 1692.5 Z M 700.4 1469.2 654.4 1677 611.2 1668.7 654.5 1459.3 700.4 1469.2 Z" data-holc_grade="C"/>
<path d="M 751.4 1692.5 738.2 1713.4 727.2 1714 685.5 1800.5 657.8 1794 677.7 1683.1 703.7 1689.8 704.8 1683.1 751.4 1692.5 Z M 654.4 1677 626.4 1829.3 580.6 1819 611.2 1668.7 654.4 1677 Z" data-holc_grade="C"/>
<path d="M 961.8 1582.6 941.9 1566.9 941.9 1579.8 939.6 1591.3 930.8 1601 920.2 1605.1 916.5 1616.1 907.3 1624.8 887.4 1635.9 881.9 1637.7 886 1645.9 865.1 1647.4 855.5 1644.4 848.5 1637.4 832.6 1641.1 821.9 1655.1 815.6 1665.7 794.9 1680.1 791.2 1691.5 785.3 1702.8 775.3 1712 770.9 1715.7 753.1 1713.2 785.9 1651.6 827.4 1622.7 830.7 1624.1 943.3 1520.7 953.5 1512 1008.9 1460 1034.7 1490.5 1030.5 1493.3 1022.2 1508 1008.3 1533.7 1000 1540.6 964.9 1557.6 964 1576 961.8 1582.6 Z M 904.1 1400.1 919.4 1404.5 930 1402.8 942.5 1400.4 976.1 1416.3 1000.6 1443.7 816.2 1618 804.4 1607.5 904.1 1400.1 Z" data-holc_grade="C"/>
<path d="M 922.3 1730.5 914.7 1736.3 912.7 1742.7 910.7 1751.3 904.7 1755.1 897 1757.3 891.4 1755.5 889.9 1748.4 887.7 1743.1 883.7 1739.2 838.2 1773.6 832.5 1772.9 825.6 1772.5 818.9 1774 805.6 1782.1 798.6 1785.7 788.6 1786.1 782.8 1787 788.3 1795.4 759.4 1836.1 743.9 1808.1 740.7 1797.6 734.2 1792.5 719 1787.9 739.3 1739.6 753.1 1713.2 770.9 1715.7 784.9 1729 804.8 1715.7 818.5 1706.9 830 1702.5 837.7 1695.1 841 1686.7 841.4 1668.3 854 1677.9 871.7 1693.3 880.9 1703.6 892 1713.2 911.9 1723.9 922.3 1730.5 Z" data-holc_grade="C"/>
<path d="M 889.6 2087.2 871.6 2101 852 2077.1 858.3 2071.9 860.9 2064.2 860.2 2057.2 856.1 2053.5 865 2023 871.3 2003.5 879 1998.7 899.7 1991.7 910.8 1986.2 918.2 1973.7 926.3 1952 938.5 1919.3 945.2 1909.4 958.9 1900.5 976.6 1891.4 979.9 1885.1 982.5 1875.2 993.7 1878.7 1005.9 1885.7 1029.6 1895.3 1034.7 1898.2 1022.9 1917.7 993.6 1934.4 969.9 1966.4 956.6 1978.2 946.2 1983.9 933.3 1991 912.7 1996.2 894.5 2027.4 883.5 2036.6 890.5 2051.3 901.2 2052.8 897.5 2081.1 889.6 2087.2 Z M 788.3 1795.4 794.3 1804.4 801.4 1800 807.6 1804.7 818 1814.4 832.9 1824.8 841.7 1837.1 848.4 1850.4 847.9 1867.1 851.5 1870 869.2 1872 882.5 1871.1 900.2 1867.4 912 1861.4 917.7 1856.3 922.8 1849.7 927.7 1849.3 937.1 1861.2 941.9 1873.3 944.8 1881.8 943.4 1889.9 937.4 1898 925.2 1906.4 912.3 1910.8 893.1 1910.8 888.7 1909 888.3 1921.5 882.8 1928.1 874.3 1930.3 862.1 1931.4 853.6 1932.5 837.3 1935.1 833.3 1930.3 828.1 1920.7 827.7 1910.4 827 1903.8 813 1902 791.2 1893.1 772.4 1882.4 759.4 1869.2 752.8 1867 761.3 1858.9 762.8 1850.1 759.4 1836.1 788.3 1795.4 Z" data-holc_grade="C"/>
<path d="M 1579.5 1171.5 1570.1 1194.1 1565.1 1220 1564.6 1237.1 1566.8 1262.5 1559 1270.8 1551.3 1288.4 1543 1296.2 1536.3 1317.7 1532.4 1342.5 1528 1360.7 1518 1393.2 1489.2 1414.7 1469.3 1393.8 1461.6 1381.6 1454.9 1372.8 1449.4 1353 1440 1350.2 1435.5 1353 1425.6 1333.6 1412.3 1323.2 1399 1307.2 1399 1292.8 1396.8 1284.6 1391.8 1270.8 1375.8 1256.8 1377.6 1247.2 1375.4 1234.8 1372.8 1228.9 1367.3 1226.3 1356.2 1225.6 1341.5 1226.7 1334.8 1232.2 1326 1242.8 1320.1 1253.1 1320.8 1259 1302 1252 1289 1240.3 1279.4 1235.8 1271.7 1234 1265.8 1235.5 1256.9 1228.9 1245.5 1226.3 1239.9 1225.5 1229.6 1222.6 1219.6 1211.6 1204.1 1199.4 1198.6 1185.5 1193.4 1178.8 1173.9 1162.7 1169.1 1161.6 1168.7 1111.2 1171.3 1098 1157.6 1071.1 1173.1 1069.5 1199.1 1074.4 1211.3 1084.4 1227.9 1093.8 1240.6 1105.9 1284.9 1134.6 1334.2 1167.7 1365.2 1183.6 1395.1 1199.6 1428.9 1210.1 1435.5 1216.2 1441.6 1211.2 1457.1 1205.7 1472.1 1195.8 1486.5 1178.1 1495.9 1156.1 1507.5 1137.3 1514.7 1114.2 1519.7 1104.8 1525.2 1104.8 1528 1104.8 1541.3 1103.1 1550.7 1105.9 1564.6 1126.9 1563.4 1144 1579.5 1171.5 Z" data-holc_grade="C"/>
<path d="M 1114.3 2047 1093.6 2045.9 1086.8 2050 1080.9 2048.5 1049.8 2047.7 1026.5 2050.6 1004.9 2057.9 990.1 2068.5 980.7 2057.9 914.2 2115.3 889.6 2087.2 897.5 2081.1 901.2 2052.8 890.5 2051.3 883.5 2036.6 894.5 2027.4 912.7 1996.2 933.3 1991 946.2 1983.9 978.9 2000.2 973 2024.4 981.6 2022.6 990.7 2047.9 1006.7 2042 1018.2 2040.3 1044.2 2033.8 1106.9 2025.6 1167.2 2014.4 1188 1992.4 1202.4 1978.6 1209.1 1972.6 1219 1969.8 1232.9 1971.5 1241.2 1974.8 1245.6 1980.8 1247.8 1989.7 1209 2029.4 1200.2 2022.2 1179.1 2041.5 1167.5 2033.8 1159.2 2041 1148.6 2037.7 1137 2036 1128.1 2036 1114.3 2043.7 1114.3 2047 Z" data-holc_grade="C"/>
<path d="M 990.1 2068.5 1084.9 2172.4 999.7 2251.6 987.9 2239.2 985.9 2238.3 973.4 2248.9 881.6 2145.6 830.2 2091.4 852 2077.1 871.6 2101 889.6 2087.2 914.2 2115.3 980.7 2057.9 990.1 2068.5 Z" data-holc_grade="C"/>
<path d="M 1311.5 2109.4 1317.4 2132.9 1322.5 2151.2 1329.2 2162.2 1347.1 2176.6 1370.2 2184.7 1377.1 2184.6 1370.5 2191.8 1369.1 2213.6 1361.7 2237.5 1356.4 2243 1361.4 2264.8 1358.4 2276.6 1348.4 2302.2 1368.8 2312.2 1348.5 2380.8 1236.8 2372.9 1206.2 2370 1256.1 2306.7 1235 2290.9 1263.5 2261.1 1303.7 2205.5 1276.4 2199.3 1269.4 2200.7 1245 2183.8 1238 2243.8 1210.3 2222.8 1196.2 2239 1162.6 2214.3 1153 2229 1122 2206.2 1084.6 2254.8 1069.1 2243 1045.5 2271.7 1022.9 2254.7 1010.4 2262.5 1006.7 2258.7 999.7 2251.6 1084.9 2172.4 990.1 2068.5 1004.9 2057.9 1026.5 2050.6 1049.8 2047.7 1080.9 2048.5 1086.8 2050 1093.6 2045.9 1114.3 2047 1134.8 2073.5 1146.4 2065.8 1163 2076.8 1186.9 2055.3 1224.6 2063.6 1229 2042.1 1299.9 2061.4 1288.3 2104.4 1311.5 2109.4 Z M 1232.4 2126.4 1250.5 2099.6 1192.2 2086 1193.7 2100.8 1190.4 2117.6 1193.7 2141.9 1232.4 2126.4 Z" data-holc_grade="C"/>
<path d="M 124.3 362.5 44 366.3 21.9 268 89.7 264.4 97.6 263.9 124.3 362.5 Z" data-holc_grade="C"/>
<path d="M 1355.9 2539.1 1334.6 2526.5 1319.5 2518.2 1325.7 2507.1 1337.7 2472 1351.9 2430.1 1364 2397.5 1382.9 2405.8 1396.3 2415 1407.4 2426.5 1411.5 2437.1 1406.2 2442.9 1400.2 2458.8 1393.1 2471.8 1383.5 2487.3 1379.4 2493.9 1355.9 2539.1 Z M 1172.7 2406.2 1187.2 2385.3 1188.8 2382.7 1207.1 2385.9 1218.4 2387.7 1320.9 2395.2 1342.4 2397.6 1343.3 2399.8 1333.9 2427 1312 2487.2 1304.9 2507.8 1284.7 2493.9 1267.9 2481.3 1240.2 2459.6 1220.2 2443.7 1195.2 2425.4 1183.4 2415.7 1172.7 2406.2 Z" data-holc_grade="C"/>
<path d="M 1694.8 1943.9 1716.8 1964 1722.3 1969.5 1724.5 1975 1724.5 1980.9 1719.7 1988.6 1701.3 2004.4 1693.5 2011 1693.1 2017.7 1698.3 2021.7 1706.8 2022.8 1709.8 2025 1709.8 2028.3 1689.3 2053.5 1630.7 2125.8 1587.1 2103 1579 2103 1569.4 2104.1 1522.7 2091 1488.5 2081.3 1512.9 2052.4 1517.7 2046.7 1553.9 2079.1 1579 2046.4 1601.5 2066.6 1628.5 2033.1 1594.5 2018.4 1561.6 1990.5 1531.7 2025.8 1518.4 2014 1509.9 2010 1512.5 2001.5 1527.3 1979.4 1514 1972.1 1496.3 2005.2 1477 2001.1 1493.6 1954.3 1499.2 1955.3 1511.6 1953 1525.2 1945 1535.2 1932.4 1546.8 1913.6 1551.5 1918.9 1554.7 1925.3 1557.4 1931.2 1558.3 1938 1558.3 1940.6 1567.1 1938.6 1574.8 1938.6 1590.5 1949.8 1611.8 1934.2 1649.9 1912.1 1658.8 1917.6 1666.2 1918.7 1675 1920.2 1681.7 1932 1694.8 1943.9 Z" data-holc_grade="C"/>
<path d="M 1522.7 2091 1509.9 2144.3 1518.7 2151.3 1516.5 2174.5 1570.8 2200.6 1622.4 2137.5 1625.5 2133.7 1670.2 2185.5 1687.2 2204.8 1658.1 2225.1 1649.4 2215 1576.9 2266.9 1568.1 2262.3 1540.8 2279.8 1527.2 2288.5 1520.5 2292.7 1501.1 2302.8 1491 2313.8 1508.5 2339.1 1441.5 2384.7 1455.9 2395.2 1420.3 2428.8 1411.5 2437.1 1407.4 2426.5 1396.3 2415 1382.9 2405.8 1364 2397.5 1379.2 2341 1406.5 2249.9 1424.5 2193.4 1425.7 2189.5 1461.9 2074.7 1488.5 2081.3 1522.7 2091 Z" data-holc_grade="C"/>
<path d="M 1585.9 2353 1604.2 2373 1616.1 2386.1 1644.9 2365.7 1653.8 2371.8 1707.6 2327.6 1730.3 2356.3 1776.7 2330.6 1788.9 2340.6 1794.9 2352.6 1794.9 2361.8 1785.2 2363.6 1775.5 2368.7 1766.3 2378.8 1776.5 2388.9 1781.5 2398.1 1783.4 2404.6 1780.2 2415.1 1768.2 2428 1745.5 2443.7 1722.9 2418.8 1713.2 2429.4 1700.7 2440.9 1686.9 2450.1 1677.2 2455.2 1692 2469.4 1678.6 2480.5 1678.6 2484.2 1693.3 2503.9 1670.3 2520 1681.3 2543 1685 2564.2 1687.8 2596.8 1598.2 2597.3 1577.4 2584 1559.9 2575.2 1538.2 2562.4 1529.8 2555 1516.4 2554.5 1509.5 2547.2 1492.9 2527.4 1476.3 2509.5 1461 2492 1446.7 2475.9 1437.9 2464.4 1431.9 2456.1 1420.3 2428.8 1455.9 2395.2 1441.5 2384.7 1508.5 2339.1 1491 2313.8 1501.1 2302.8 1520.5 2292.7 1527.2 2288.5 1585.9 2353 Z M 1546 2400.3 1517.8 2364.5 1491.5 2387.7 1476.4 2397.8 1504.5 2435.6 1546 2400.3 Z" data-holc_grade="C"/>
<path d="M 1687.2 2204.8 1777.5 2325.5 1776.7 2330.6 1730.3 2356.3 1707.6 2327.6 1653.8 2371.8 1644.9 2365.7 1616.1 2386.1 1604.2 2373 1653.1 2337 1666.4 2326.1 1680.6 2322 1677.9 2300.2 1666.4 2301.1 1656.6 2305.8 1647.2 2312 1585.9 2353 1527.2 2288.5 1540.8 2279.8 1568.1 2262.3 1576.9 2266.9 1649.4 2215 1658.1 2225.1 1687.2 2204.8 Z M 1808.4 2321 1802.9 2316 1800.2 2317.5 1685 2169.3 1714.3 2105.4 1729.1 2076.4 1741.6 2082.6 1744.6 2091.8 1745.3 2106.5 1751.6 2117.2 1809.5 2190.2 1794.5 2201.2 1855.5 2277.4 1817.8 2303.3 1823.9 2313.2 1808.4 2321 Z" data-holc_grade="C"/>
<path d="M 1825.5 2082.3 1821.8 2104.3 1814.4 2112.4 1821.1 2124.6 1822.9 2136 1827 2145.9 1835.5 2152.9 1846.2 2155.1 1865 2152.5 1884.6 2145.1 1896.1 2138.5 1907.9 2130.4 1913.8 2123.4 1921.5 2111.3 1924.9 2102.8 1929.6 2107.4 1941.3 2123.4 1947.9 2130.6 1961.2 2128.9 1971.2 2125 1989.5 2125.6 2002.8 2126.1 2015.5 2123.4 2027.7 2125 2044.9 2131.6 2061 2137.7 2074.8 2148.7 2083.1 2157 2089.2 2170.2 2092 2178 2103.1 2184 2112 2186.8 2115.8 2194.5 2117 2205 2113.6 2214.4 2105.9 2226 2102 2236.5 2100.9 2244.7 2092 2256.3 2083.7 2266.3 2080.4 2270.7 2081.3 2274.5 2087.5 2276.9 2096.4 2278.2 2101.9 2278.9 2107.7 2276.9 2112.6 2276.2 2118.1 2276.7 2123.9 2278.6 2128.8 2283.1 2139.6 2291 2152 2298.9 2158.9 2301.4 2163.6 2303.1 2174.4 2309.1 2178.7 2314.2 2182.6 2318.3 2187.3 2322.5 2198.2 2327.2 2205.7 2332.9 2211.9 2340 2218.1 2347 2228.3 2355.2 2240.5 2364 2248.5 2370.6 2254.9 2379.9 2258.9 2386.1 2260.5 2392.3 2260.7 2398.7 2258.7 2403.7 2253 2411 2243.7 2420.7 2236.8 2426.5 2228.1 2432.2 2217.3 2437.1 2204.4 2440 2192.5 2443.3 2169.4 2451 2155.7 2455.9 2147.2 2451 2144.6 2450.4 2141.2 2451.7 2139.3 2455.5 2136.8 2460.1 2132.8 2469.4 2121.1 2468.5 2109.1 2469.2 2091.8 2470.7 2089 2450.7 2085.9 2438.2 2082 2431.9 2078.7 2427.9 2073.7 2424 2070.6 2421.4 2063.4 2417 2058.7 2415.6 2050.2 2416.3 2044 2420 2039.3 2421.6 2034 2420.5 2030.8 2418.9 2027.9 2414.5 2025.7 2410.2 2023.6 2405.1 2021 2400.3 2014.6 2396.1 2008.5 2393.1 2004 2391.3 1994.3 2391.3 1986.5 2392.8 1977.3 2395 1967.8 2394.1 1954.9 2392.4 1947.5 2391.3 1938.8 2389.3 1921.2 2387.6 1904.4 2387.1 1905.9 2400.6 1908.1 2418 1910.8 2459.8 1911.5 2466.4 1901 2463.7 1892.8 2459.3 1889.1 2451.6 1884.2 2438.1 1882.6 2423.4 1883.5 2415.2 1866.7 2409.9 1855.4 2404.6 1848.9 2400.8 1856.2 2391.1 1863.3 2385.2 1864.7 2383.3 1863.9 2378.5 1861.1 2373.5 1856.9 2369.4 1851.6 2367.5 1844.3 2366.2 1838.5 2364.1 1826.4 2362.1 1817.9 2360.9 1813.3 2358.8 1808.1 2355.9 1803.1 2352.5 1800.6 2347.4 1799.5 2345.1 1812.6 2333.7 1808.4 2321 1823.9 2313.2 1817.8 2303.3 1855.5 2277.4 1794.5 2201.2 1809.5 2190.2 1751.6 2117.2 1758.6 2109.9 1762.7 2100.3 1763.1 2088.2 1763.1 2084.8 1774.5 2069.8 1778.6 2061.3 1778.6 2056.9 1790 2044.4 1794.8 2043.3 1800 2044.7 1807 2053.6 1815.5 2065.7 1825.5 2082.3 Z" data-holc_grade="C"/>
<path d="M 1970.8 2671.9 1937.1 2668 1837.8 2747.7 1863.3 2782.4 1855.1 2800.3 1875 2824.6 1862.7 2834.6 1788.5 2795.4 1785.8 2790.4 1788.8 2788 1819.7 2764.1 1800.4 2741.3 1810.4 2732.7 1783.8 2702.5 1763.6 2717.7 1715.3 2666.3 1655.6 2717.3 1629 2704.3 1610.4 2693 1597.3 2682 1575.8 2668.1 1483.1 2613.1 1495.5 2601.8 1472 2588.8 1495.5 2554.4 1506 2566.5 1495.5 2576 1507.3 2585.9 1511.1 2582.6 1527.2 2592.5 1558.1 2610 1569.8 2617.5 1576.2 2622.4 1599.7 2622.3 1636.1 2623.2 1681.1 2625 1690.9 2627.2 1703.3 2628.9 1720.4 2628.4 1742.4 2628.9 1754.3 2629.4 1766.4 2631.7 1777.2 2631.9 1790.9 2633.2 1800.5 2635 1812.9 2640.4 1819.3 2644.1 1825.2 2647.9 1836.6 2652.5 1842.1 2655.7 1845 2660.1 1849.7 2656.6 1858 2647.8 1865.4 2641.6 1872.2 2641.3 1885.8 2642.5 1903.8 2647.8 1924.2 2652.8 1943.1 2655.7 1970.6 2658.9 1970.8 2671.9 Z" data-holc_grade="C"/>
<path d="M 2060.8 2474 2067.8 2478.6 2083.5 2483.7 2093.6 2487.3 2107 2490.5 2122.4 2495.4 2126.6 2500.7 2127.7 2504.9 2127.7 2509.5 2126.1 2514.1 2119.2 2517.3 2110.7 2516.9 2099.8 2516 2113.5 2538.2 2122 2542.3 2133.5 2550.4 2145.7 2557.4 2152.5 2564 2157.9 2571.5 2164 2571.7 2168.6 2569.7 2172.5 2566 2175.6 2569.1 2178.4 2572.8 2178.6 2576.7 2178 2581.3 2186 2579.8 2190 2581.8 2193.6 2586.2 2199.5 2590.1 2203.2 2590.3 2204.5 2600.1 2211 2611.1 2218.8 2618.9 2242.5 2638.3 2256.1 2651 2266.7 2658.8 2290.5 2671.3 2310.9 2683.2 2323.9 2691.3 2341.8 2708.9 2345.7 2714.6 2332.6 2715.2 2330.1 2716.8 2330.8 2719.6 2333.7 2722.6 2337.1 2726.5 2344 2728.4 2349.4 2729.7 2354.1 2733.1 2355.9 2736.6 2356 2739.6 2352.9 2743.5 2347.8 2743.6 2340.9 2742.7 2335.9 2741.1 2331.7 2739.9 2327.3 2739.5 2322 2740.2 2318.5 2742.9 2316.5 2745.7 2312.7 2750.5 2310.2 2753.2 2305.2 2754.6 2298.2 2753.8 2294.1 2755.5 2291.7 2758.1 2286.6 2761 2277.2 2760.1 2268 2759.4 2262.4 2760.7 2254.2 2763.8 2249.3 2765.2 2235 2741.8 2228.4 2733.7 2223.4 2736.3 2206.5 2724 2184.2 2707.3 2199 2685.9 2206.7 2676.5 2214 2672.5 2217.9 2669.8 2222.3 2666.9 2225.9 2661.6 2226.4 2657.5 2225 2651.9 2219.2 2646.7 2212.5 2644.2 2205.6 2641.7 2201.5 2638.8 2198.6 2630.8 2196.5 2626 2193.4 2620.4 2190.9 2616.9 2188.7 2615.3 2181.4 2630.9 2167.3 2646.7 2159.5 2638.8 2149.8 2631.3 2142.9 2628.1 2135.4 2625.2 2129.3 2622.7 2121.8 2618.6 2117.7 2614.3 2116.4 2609.9 2115.9 2603 2115.1 2597.2 2129.8 2586.5 2139 2581.9 2125.7 2564.3 2120.4 2556.9 2115.8 2552 2111.3 2548.8 2108.3 2547.8 2104.6 2547.6 2101.1 2547.4 2096.9 2546.4 2095.1 2544 2092.4 2539.4 2090.9 2535.6 2087.7 2533 2083 2531.9 2078.8 2532 2075.1 2534.1 2071.4 2537.2 2066.8 2541.4 2049.3 2522.8 2042.4 2515.4 2053.5 2508.7 2029.3 2481.4 2020 2488.8 2005.5 2470.7 2008.5 2466 2011 2463.4 2016.5 2464.1 2021.8 2462.6 2023.6 2462.8 2029.3 2467.5 2033.6 2469.8 2036.6 2470.5 2040.2 2469.9 2045.4 2467.4 2060.8 2474 Z" data-holc_grade="C"/>
<path d="M 2063.5 2671.2 2035.4 2696.3 2004.4 2667.7 2007.6 2665.9 2060.8 2668 2063.5 2671.2 Z M 2092.6 2618.7 2097.3 2625.8 2105.6 2634.3 2116.3 2642.6 2132.8 2651.1 2138.2 2656.1 2132.2 2663.8 2135.6 2666.6 2129 2676.5 2129 2679 2136.5 2685.3 2152.4 2698.4 2173.2 2715.5 2186.8 2727.1 2199.5 2737 2204.2 2741.7 2211.9 2755.8 2178.2 2773.8 2150.7 2796.7 2129 2811.4 2135.4 2820.2 2113.8 2834.9 2138.2 2872.8 2084.5 2903.8 2068.8 2878 2067.3 2866.4 2084.1 2858.7 2064.3 2836.1 2048.4 2839.9 2032 2853.9 1996.7 2806.8 2015.7 2789.3 1976.5 2741 2024.9 2706 2037.5 2717.6 2049.8 2729.9 2057.8 2738.9 2062.2 2744.4 2072.9 2734.9 2082.5 2725.5 2089.6 2719.9 2100.8 2711.7 2115.6 2699.9 2106.4 2686.1 2096.4 2672.3 2094.9 2665.8 2095.5 2657 2071.4 2643.2 2064 2639 2052 2621 2048.1 2616.2 2035.6 2603.1 2022.3 2588.2 2020.4 2587.3 2002.5 2603.9 1983.8 2622.3 1969.8 2635.5 1955.9 2625.5 2022.4 2569.2 2075.6 2599.2 2080.7 2605.4 2092.6 2618.7 Z" data-holc_grade="C"/>
<path d="M 2550.8 3221.8 2535 3226 2501 3237.3 2489.7 3241.2 2451.5 3254.7 2406.2 3271.3 2377.6 3220.7 2348.6 3168 2313.1 3115.6 2282.9 3060.5 2235.9 2979 2164 2858.2 2207.9 2833.3 2212 2842.1 2216.5 2852.1 2225.7 2859.5 2238.1 2864.5 2210.7 2876.6 2239.6 2921.4 2279.7 2903.5 2292.3 2932.2 2306.1 2982.1 2314.6 3004.7 2335 2992.5 2324.3 2949.7 2311.4 2943.5 2300.3 2908.4 2277.2 2853.4 2286.9 2855 2301.3 2864.5 2315.4 2875.2 2329.1 2885.9 2343.1 2897.3 2361.6 2914.2 2374.5 2926.7 2381 2935.4 2386.4 2942.5 2365.3 2967.9 2367.9 2973.1 2367.9 2980.4 2383.8 2981.1 2384.2 2989.6 2388.6 2998.1 2416.4 3023.8 2432.3 3018.3 2444.8 3036.7 2447.1 3040.4 2454.5 3062.1 2478.2 3107.7 2493 3132.7 2512.5 3130.9 2523.6 3125.7 2529.9 3118.4 2534 3102.2 2541.3 3080.1 2548 3068.6 2554.3 3062 2562 3060.2 2587.5 3054.3 2623 3043.2 2637.4 3036.2 2663.3 3018.1 2688 3000.8 2703.9 2990.1 2715.7 2978.7 2722.4 2972.8 2733.8 2968.4 2746.8 2962.5 2757.1 2957.3 2771.1 2945.2 2787 2937.8 2800 2928.2 2807 2923 2824.3 2915.7 2836.9 2907.2 2871.6 2895.4 2896 2888.4 2905.6 2884.7 2911.3 2880.3 2914.2 2881.4 2921.3 2893.1 2925.5 2897.1 2930.2 2898.9 2936.4 2900 2944.4 2900.2 2948.4 2901.3 2953 2904.4 2960.4 2913.6 2965.9 2919.8 2972.1 2926.6 2978.1 2931.3 2986.1 2938.1 2990.1 2942.1 2994.3 2949.1 2996.5 2956.7 2998.5 2964.4 2999 2971.9 2998.3 2979.4 2993.5 2986.5 2987.5 2992.2 2981.5 2996 2980.2 2997.5 2978.8 3000.8 2970.6 3007.5 2965.6 3013.2 2953.4 3020.5 2946.4 3025.2 2942.7 3028.3 2937.9 3032 2931.2 3038.1 2922 3045.8 2915.4 3052.7 2911.9 3057.4 2910.4 3061.3 2908.3 3066.1 2906 3075.6 2902.8 3088.6 2896.4 3092.1 2890.4 3094.1 2887.8 3095.2 2884.9 3096.9 2880.4 3099.9 2872.9 3104.4 2861.6 3111.3 2856.8 3115.7 2849.9 3119 2845.2 3121.4 2840 3123.4 2828.3 3130 2818.5 3133.8 2812.2 3136.7 2802.9 3138.7 2792.3 3140.3 2780 3142.6 2773.1 3144.7 2764.5 3146.1 2758.5 3148 2751.3 3148.8 2744.2 3150.2 2732.9 3150.9 2717.2 3154.2 2692.3 3159.6 2671.3 3165.5 2645 3175.8 2632.8 3180.5 2622.6 3183.1 2619.2 3182.6 2613.1 3178.9 2605 3175.4 2596.4 3170.7 2593.5 3165.3 2591.1 3160.6 2589.2 3156.6 2587.5 3154.2 2585 3153.6 2581.3 3153.8 2574.8 3155.3 2567.6 3158.4 2561.1 3160 2556.2 3159.1 2550.7 3157.6 2546.6 3159.8 2531.1 3172 2519.1 3181.7 2492 3161 2447.5 3197.9 2451.2 3203.5 2456.3 3207.5 2463.7 3212.8 2470 3217.1 2484.9 3213.3 2494.4 3209.8 2504.3 3205.5 2511 3201.1 2527.7 3186.3 2534.4 3194.4 2539.9 3204 2546.1 3213.5 2550.8 3221.8 Z" data-holc_grade="C"/>
<path d="M 315.4 453.8 330.4 460.4 338.1 461.6 347.4 461.2 357.3 466.3 367.3 467.8 376.5 466.7 387.6 463.8 368.4 521.5 344.4 539.8 351.6 558.6 358.4 576.2 419.2 570.4 421.7 594.8 426.9 647.2 264.5 674.3 249.5 619.9 229.2 537.9 208 450.5 213.1 450.5 221.8 450.9 238.9 452.8 246.7 454.6 263.3 458.3 277.6 459.2 290.5 458.3 304.4 457 315.4 453.8 Z M 345.3 481.3 310.1 470.4 297.3 509.5 333.7 519.2 345.3 481.3 Z" data-holc_grade="C"/>
<path d="M 1988.9 2813.6 1977.7 2823.3 2004 2858 2025.3 2882.8 2033 2886.6 2067.3 2866.4 2068.8 2878 2084.5 2903.8 2138.2 2872.8 2164 2858.2 2235.9 2979 2282.9 3060.5 2313.1 3115.6 2348.6 3168 2377.6 3220.7 2406.2 3271.3 2373.8 3284.1 2371.2 3273.7 2336.5 3215 2322.1 3228.3 2280.6 3242.3 2278.4 3243.1 2265.8 3252 2256.5 3216.7 2233.2 3223.7 2221 3184.7 2209 3161.1 2186.4 3125.2 2160 3074.3 2176.2 3064.1 2168.7 3052.4 2182.3 3043.5 2170.7 3021.8 2218.7 2995.1 2189.5 2946.2 2101.5 2994.8 2043.1 2897.3 2013.3 2887.4 1935 2845.6 1905 2834 1904.1 2829.8 1962.7 2781.4 1988.9 2813.6 Z" data-holc_grade="C"/>
<path d="M 2489.7 3241.2 2501 3237.3 2535 3226 2550.8 3221.8 2566.4 3244.3 2577 3259.3 2585 3273.4 2595.7 3294.3 2579.1 3284.6 2563.4 3275.2 2550.4 3269.6 2531.2 3269.4 2519.4 3272 2495.7 3281.5 2488.9 3254.4 2489.7 3241.2 Z" data-holc_grade="C"/>
<path d="M 2595.7 3294.3 2607.5 3295.8 2617.9 3299.6 2635 3306.4 2642.1 3311.7 2647.5 3320.5 2649 3329.9 2648.7 3345.3 2649.9 3348.5 2651.9 3354.7 2652.5 3362.6 2525.1 3366.6 2515 3368.9 2469.2 3379.3 2406.2 3271.3 2451.5 3254.7 2489.7 3241.2 2488.9 3254.4 2495.7 3281.5 2519.4 3272 2531.2 3269.4 2550.4 3269.6 2563.4 3275.2 2579.1 3284.6 2595.7 3294.3 Z" data-holc_grade="C"/>
<path d="M 2522.3 3664.3 2459.3 3694.6 2378.8 3532.7 2522.3 3664.3 Z M 2555.3 3508.7 2556.1 3510.9 2662 3476.9 2655.3 3481.8 2651.1 3489.9 2649.8 3495.9 2648.7 3504 2649.6 3517.8 2651.5 3526.7 2654.1 3532.4 2658.1 3539.7 2667 3548.4 2680.3 3557.6 2693.5 3566.4 2680.2 3571.9 2619 3591.1 2580 3605.7 2557.6 3616 2580.4 3677.6 2565.1 3688.7 2389.2 3528 2369 3509.4 2373 3505.9 2375.2 3502.1 2375.6 3494.2 2387.6 3485.8 2401.4 3487.6 2410.7 3488.7 2422.9 3486.9 2445.1 3483.4 2466.8 3483.4 2482.8 3483.1 2491.2 3477.6 2501.2 3469.2 2509.7 3471.3 2527.7 3517.2 2555.3 3508.7 Z" data-holc_grade="C"/>
<path d="M 393.2 2612 391.1 2635.9 390.3 2644.5 381.1 2642.6 368.6 2638 350.2 2633.9 337.7 2628.4 323.4 2619.1 316.5 2615 299.8 2603.9 282.3 2587.8 273.5 2576.3 258.8 2564 311.6 2566.6 311.6 2576.6 319.4 2584.7 327.5 2591.3 338.2 2593.9 339.3 2609 393.2 2612 Z" data-holc_grade="C"/>
<path d="M 504.5 2584.1 394.4 2581 393.2 2612 339.3 2609 338.2 2593.9 327.5 2591.3 319.4 2584.7 311.6 2576.6 311.6 2566.6 258.8 2564 257.7 2479.7 362.7 2483.1 363 2510.7 374 2511.2 373.8 2527.6 426.2 2529 426.5 2513.4 506.7 2516.7 504.5 2584.1 Z" data-holc_grade="C"/>
<path d="M 523.2 2605.3 521.8 2584.3 607.1 2587.3 606.7 2605.3 523.2 2605.3 Z M 504.5 2584.1 504.8 2639.3 391.1 2635.9 393.2 2612 394.4 2581 504.5 2584.1 Z" data-holc_grade="C"/>
<path d="M 718.2 2643 716.8 2680.1 648.8 2679 647.3 2713.5 575.7 2679.6 575.7 2641 533.2 2639.9 535 2673.7 522.1 2668.2 523.2 2605.3 606.7 2605.3 607.1 2587.3 521.8 2584.3 521.1 2539.4 564.7 2540.9 565 2525.1 624.9 2526.2 624.9 2561.6 663.3 2563.8 660.3 2606.8 719.4 2610.6 718.2 2643 Z" data-holc_grade="C"/>
<path d="M 1084.7 2738.4 1082.1 2742.5 1076.5 2742 1073.3 2739.2 1067.8 2744.3 1057.1 2745.7 1043.3 2738.3 1020.7 2727.3 1005.4 2752.5 1026.6 2764.1 1025.3 2769.1 1014.6 2784.8 993.4 2822.5 962.9 2877.7 953.6 2874 958.7 2860.2 922.2 2841.3 913.4 2856 901 2842.2 889.4 2828.9 870.9 2814.1 855.7 2802.2 837.7 2791 862.8 2744.3 901.2 2764.2 926.4 2715.6 796.7 2646.4 718.2 2643 719.4 2610.6 660.3 2606.8 663.3 2563.8 720.9 2567.5 720.9 2562 765.3 2561.6 779.6 2564.3 796.2 2573.1 884.9 2621.4 889 2614 949.1 2645.3 944.9 2654.1 993 2680.3 997.6 2671.6 1091.8 2727.3 1084.7 2738.4 Z" data-holc_grade="C"/>
<path d="M 786.2 2775.6 787.4 2769.7 738.6 2742 764.4 2695.8 732.2 2680.2 716.8 2680.1 718.2 2643 796.7 2646.4 926.4 2715.6 901.2 2764.2 862.8 2744.3 837.7 2791 824.4 2784.4 805.9 2776.3 791.8 2773.3 786.2 2775.6 Z" data-holc_grade="C"/>
<path d="M 569 657.2 544.4 660.2 537.1 579 421.7 594.8 419.2 570.4 453.7 565.3 454.6 554.2 491.5 545.5 491 525.8 483.2 501.9 498.9 490.9 537.2 484 537 489.1 572.6 485.9 572.7 478.5 610.5 474.3 625.2 650.4 569 657.2 Z" data-holc_grade="C"/>
<path d="M 1314 2778.2 1284.1 2813.6 1250.8 2789.3 1241.9 2774.5 1195.7 2745.5 1138.8 2832.7 1155.4 2847.8 1169.5 2834.9 1184.3 2847.4 1206.1 2824.6 1246 2857.4 1227.6 2879.8 1215.3 2894.9 1273 2943.5 1250.4 2970 1192.8 2921 1177.6 2937.2 1196.8 2954.5 1186.1 2968.5 1175 2960 1146.5 2992 1099.6 2950.8 1139.2 2907 1118.8 2889.7 1083.3 2934.2 1036 2904 1016.1 2940.4 1010.2 2951.1 984.3 2936.8 975.4 2938.6 960.6 2945.6 955.5 2934.9 952.5 2921.7 948.1 2898.9 928.9 2880.8 913.4 2856 922.2 2841.3 958.7 2860.2 953.6 2874 962.9 2877.7 1004.3 2904.8 1064.5 2814.6 1072.3 2810.6 1088.2 2819.4 1106.7 2792.6 1098.2 2784.5 1105.6 2772.3 1090.4 2761.3 1099.4 2747 1112.5 2754.6 1127.6 2732.9 1154.2 2749.7 1166.2 2730.5 1176 2735.1 1214.7 2678.3 1238.6 2690.6 1257.8 2704.3 1278.5 2722.7 1297.4 2741.1 1310.3 2762.8 1314 2778.2 Z" data-holc_grade="C"/>
<path d="M 1250.4 2970 1214.7 2998.4 1197.5 3015.1 1172.4 3028.4 1153.7 3039 1145.8 3044.3 1139.8 3053.1 1138.4 3059 1131.6 3064 1125.6 3064.6 1118.3 3060.2 1115 3050.2 1106.1 3033.1 1126.5 3010.1 1092.5 2980.7 1082.8 2990.4 1051.7 2961.8 1016.1 2940.4 1036 2904 1083.3 2934.2 1118.8 2889.7 1139.2 2907 1099.6 2950.8 1146.5 2992 1175 2960 1186.1 2968.5 1196.8 2954.5 1177.6 2937.2 1192.8 2921 1250.4 2970 Z" data-holc_grade="C"/>
<path d="M 919.6 493.1 988.5 483.7 996.2 584.6 1002.6 666.3 982.6 682.3 973.2 686.1 954.9 693.8 945 694.4 937.8 696.6 932.8 691.1 930 682.8 917.3 675.6 908.5 670.1 902.4 663.5 901.8 645.9 901.8 626 900.7 615.5 899.1 611.1 890.8 607.8 882.5 607.8 868.6 608.4 860.3 605.1 855.9 598.4 850.4 595.1 843.2 595.1 706.4 619.3 681 625.9 671.6 626.5 656.6 628.7 643.4 469.5 677.7 463.7 681.5 532.6 667.1 535.3 673.7 594.9 695.9 591 707.5 592.1 704.2 548 701.4 530.9 765.7 520.5 833.2 512.3 881.4 500.2 919.6 493.1 Z" data-holc_grade="C"/>
<path d="M 786.1 803.8 696.5 817.6 689.4 763.1 779.8 749.1 786.1 803.8 Z M 926.5 717.2 930.2 750.3 936.1 782.3 947.4 781.2 949.5 852.3 891.6 858.2 894.9 903.8 875.9 904.8 874.2 860.7 867.6 791.3 807.6 800.5 799.7 744.3 825 740 821.7 724.5 891.4 714.6 897 721.8 926.5 717.2 Z" data-holc_grade="C"/>
<path d="M 592.8 979.6 589 942.1 577.9 942.1 575.7 910.2 587.3 907.4 585.1 874.3 643.8 863.4 649.8 906.6 627.8 975.6 592.8 979.6 Z M 597.1 1171.8 589.3 1173.2 603.8 1131.5 631.5 1042.6 638.2 1020.9 644.1 996.7 651.5 967.6 655.6 954 659.6 941.5 666.3 921 679.6 878.7 677.1 857.2 700.3 852.9 696.5 817.6 786.1 803.8 777.2 912.9 769.1 982.4 760.4 1041.7 685.8 1054.1 670.2 1056.7 634.2 1062.7 642.5 1125.2 629.6 1127.5 634.2 1165.1 608.9 1169.7 597.1 1171.8 Z M 796.1 1035.8 779.8 1038.5 788.2 960.2 802.8 807.9 807.6 800.5 813.2 869.5 818.4 871.8 823.5 939.4 821.3 943.1 826.4 969.2 803.6 972.5 813.9 1032.8 796.1 1035.8 Z" data-holc_grade="C"/>
<path d="M 512.1 1347.2 532.7 1362.8 523.8 1416.5 501.6 1460.6 497.7 1476.6 477.8 1482 444.1 1344.1 466.3 1342.4 484.9 1347.7 512.1 1347.2 Z" data-holc_grade="C"/>
<path d="M 749.8 1215 702 1223.5 699.8 1199.8 749.8 1191.7 754.2 1213.7 749.8 1215 Z M 700.4 1469.2 654.5 1459.3 667.8 1384.3 637.9 1329.7 618.6 1241.4 619.1 1233.7 615.3 1198.9 608.9 1169.7 634.2 1165.1 629.6 1127.5 642.5 1125.2 634.2 1062.7 670.2 1056.7 674.6 1077.4 676.8 1100.9 678.3 1135.5 679.7 1179.2 684.1 1221.1 690 1240.9 694.4 1290.5 709.3 1420.7 709.3 1428.4 700.4 1469.2 Z M 754.9 1098.3 694.4 1105.6 685.8 1054.1 760.4 1041.7 754.9 1098.3 Z M 833.4 1199.1 798 1264.1 767.7 1305.6 743.3 1331.7 762.2 1172.6 802.8 1163.8 794.8 1089.1 773.7 1093.2 779.8 1038.5 796.1 1035.8 809.8 1086.1 817.8 1086.4 821.9 1099.1 833.4 1199.1 Z" data-holc_grade="C"/>
</g>
<g id="D">
<path d="M 682.4 314.5 691.1 314.2 698.2 310.3 711 302.6 719.4 294 725.4 287.8 732.5 281.4 739.6 277.9 760.7 272 766.3 272 771.4 275.1 777.9 282.2 779 287.2 775.5 294.4 776.8 296.9 777.9 298.8 783 301 786.7 301.5 791.7 301.5 793.4 302.5 784.9 308.5 775.8 311.6 771 312 766.1 311.6 760.2 311.1 745 315.8 736.7 321.2 738.4 332.4 741.9 337 749.3 344.5 751.6 349.8 751.8 353.5 750.4 357.4 746.7 359.2 741.3 361.4 737.4 363.6 734.5 366.5 733.7 372.4 733.7 378.7 731.3 389.7 725.8 401.8 691.3 406.6 686.3 354.6 682.4 314.5 Z" data-holc_grade="D"/>
<path d="M 1206.2 2370 1197.5 2368.8 1188.8 2382.7 1187.2 2385.3 1172.7 2406.2 1136.9 2382.3 1070.2 2332.3 1002.8 2281.3 996 2275.4 996.9 2270.1 1001.6 2263.7 1006.7 2258.7 1010.4 2262.5 1022.9 2254.7 1045.5 2271.7 1076.4 2296.1 1099.1 2267.8 1084.6 2254.8 1122 2206.2 1153 2229 1162.6 2214.3 1196.2 2239 1210.3 2222.8 1238 2243.8 1245 2183.8 1269.4 2200.7 1276.4 2199.3 1303.7 2205.5 1263.5 2261.1 1235 2290.9 1256.1 2306.7 1206.2 2370 Z" data-holc_grade="D"/>
<path d="M 1139.8 2416.5 1114 2450.5 1095.2 2453.3 1095 2475.6 1067.3 2478.9 1048.2 2481.2 1032.5 2390 1030.1 2370.3 1026.1 2364.1 1017.4 2357.5 1007.7 2350.4 984.4 2334.8 953.4 2319.1 945.2 2315.5 925 2310 909.7 2306.5 898.8 2302.1 891.1 2300.1 873.4 2292.3 857.4 2285.5 843.9 2281.5 823.3 2277.5 792.9 2271.3 771.2 2266.2 738.2 2259.6 654.4 2243.2 565.3 2200.1 600.3 2126.1 617.8 2135.9 622.6 2124.1 606 2114.2 625.4 2073 720.5 2119 715.8 2132.7 728.2 2138.2 726.2 2154.1 773.4 2176.6 777.9 2151.3 777.7 2119 781 2109.8 799.3 2114.2 944.4 2271.5 959.2 2259.7 972.7 2274.7 987.7 2284.2 987.5 2294.4 1129.4 2400.4 1125.4 2405.5 1139.8 2416.5 Z M 691.6 2126.8 677 2118 671.9 2127.2 686.4 2135.2 691.6 2126.8 Z" data-holc_grade="D"/>
<path d="M 1392.4 2179.5 1382.4 2184.5 1377.1 2184.6 1370.2 2184.7 1347.1 2176.6 1352.2 2169.7 1368.4 2171.1 1374.2 2158.7 1378.4 2144.1 1378.4 2133.8 1374.4 2117.6 1378.6 2114.9 1399.6 2120.5 1403.5 2128.7 1401.3 2148.6 1395.8 2173.4 1392.4 2179.5 Z" data-holc_grade="D"/>
<path d="M 1546 2400.3 1504.5 2435.6 1476.4 2397.8 1491.5 2387.7 1517.8 2364.5 1546 2400.3 Z" data-holc_grade="D"/>
<path d="M 1495.5 2554.4 1472 2588.8 1495.5 2601.8 1483.1 2613.1 1355.9 2539.1 1379.4 2493.9 1383.5 2487.3 1403.6 2495.1 1422.8 2465.3 1455 2509.4 1495.5 2554.4 Z" data-holc_grade="D"/>
<path d="M 1067.3 2478.9 1095 2475.6 1095.2 2453.3 1114 2450.5 1139.8 2416.5 1189.4 2452.9 1196.6 2461.8 1213.2 2485.9 1228 2497.3 1245 2508.9 1286.7 2539.8 1296.5 2538.9 1441.7 2628.9 1458.7 2639.2 1475.9 2643.4 1600.1 2737.2 1534.7 2793.5 1529.9 2792.2 1528.8 2788.4 1501 2762.8 1499.6 2764.5 1477.6 2815.2 1474.4 2817.5 1470 2818.9 1464.1 2818.4 1458.7 2813.8 1404.4 2768.7 1360.2 2719.9 1341.9 2700.6 1290.8 2700.4 1266.2 2685.8 1255.5 2678.5 1245.5 2669 1237.3 2660.2 1227.4 2653.1 1199.7 2636.3 1153.8 2608.7 1148 2608.9 1137.8 2609.6 1127.2 2608.1 1118.3 2604.5 1107.2 2595.9 1099 2582.7 1093.2 2569.4 1085.5 2546.9 1078.2 2530.8 1069.5 2508.2 1067.5 2500.1 1067.3 2478.9 Z" data-holc_grade="D"/>
<path d="M 2155.7 2455.9 2167.6 2461.6 2176.6 2467.8 2187.2 2475 2196.7 2481.3 2211.3 2490 2232.8 2502.6 2241.5 2507.2 2253.3 2513.9 2268 2521.4 2283.9 2530.4 2295.3 2537.2 2304.3 2542.2 2313.5 2547.3 2320 2551.7 2326.7 2554.4 2336.9 2558.2 2348.1 2562.6 2355.3 2566.9 2364.2 2573.8 2371.2 2579.4 2376.6 2584.5 2385.5 2592 2392.9 2598.3 2399.3 2603.5 2406.4 2609.5 2412 2615.4 2420 2624.4 2425 2630.1 2430.6 2636.1 2435.4 2642.6 2436.5 2647.3 2436.5 2651.4 2435.4 2654.4 2426.2 2663.7 2420.2 2669.6 2415.7 2673.1 2411.7 2673.8 2408.9 2673.8 2407.6 2674.1 2398.9 2682.4 2387.5 2692.1 2377.2 2700.3 2373.5 2704.3 2372.1 2705.5 2371.4 2707.6 2372.3 2711.4 2372.7 2720.8 2372.1 2728.9 2371 2733.2 2368.6 2736 2366.7 2735.5 2364.6 2733.8 2361.7 2729.7 2354.4 2720.8 2346.9 2716.3 2345.7 2714.6 2341.8 2708.9 2323.9 2691.3 2310.9 2683.2 2290.5 2671.3 2266.7 2658.8 2256.1 2651 2242.5 2638.3 2218.8 2618.9 2211 2611.1 2204.5 2600.1 2203.2 2590.3 2199.5 2590.1 2193.6 2586.2 2190 2581.8 2186 2579.8 2178 2581.3 2178.6 2576.7 2178.4 2572.8 2175.6 2569.1 2172.5 2566 2168.6 2569.7 2164 2571.7 2157.9 2571.5 2152.5 2564 2145.7 2557.4 2133.5 2550.4 2122 2542.3 2113.5 2538.2 2099.8 2516 2110.7 2516.9 2119.2 2517.3 2126.1 2514.1 2127.7 2509.5 2127.7 2504.9 2126.6 2500.7 2122.4 2495.4 2107 2490.5 2093.6 2487.3 2083.5 2483.7 2067.8 2478.6 2060.8 2474 2091.8 2470.7 2109.1 2469.2 2121.1 2468.5 2132.8 2469.4 2136.8 2460.1 2139.3 2455.5 2141.2 2451.7 2144.6 2450.4 2147.2 2451 2155.7 2455.9 Z" data-holc_grade="D"/>
<path d="M 2115.1 2597.2 2102.7 2611.8 2083.6 2588.2 2061.8 2563.9 2051.6 2552 2047.4 2544 2037.9 2531.7 2049.3 2522.8 2066.8 2541.4 2071.4 2537.2 2075.1 2534.1 2078.8 2532 2083 2531.9 2087.7 2533 2090.9 2535.6 2092.4 2539.4 2095.1 2544 2096.9 2546.4 2101.1 2547.4 2104.6 2547.6 2108.3 2547.8 2111.3 2548.8 2115.8 2552 2120.4 2556.9 2125.7 2564.3 2139 2581.9 2129.8 2586.5 2115.1 2597.2 Z" data-holc_grade="D"/>
<path d="M 2075.6 3029.2 2108.7 3086.3 2129.5 3117.5 2183.5 3208.9 2223.4 3272.7 2231.9 3268.1 2249 3298.3 2192.9 3337.2 2161.1 3355.1 2184.2 3405.9 2172.7 3415.9 2098.9 3416.3 2060 3376.3 2024 3337.6 1987.4 3304 1935.2 3246.1 1877.9 3181.2 1767.9 3065.3 1723.1 3098.9 1654.7 3010.1 1694.9 2976.5 1644.5 2916.2 1585.8 2852.7 1693 2759.8 1730.3 2780.8 1921.7 2894.1 1966.2 2923.2 2038.1 2966.9 2075.6 3029.2 Z M 1976.5 2741 2015.7 2789.3 1996.7 2806.8 1988.9 2813.6 1962.7 2781.4 1904.1 2829.8 1905 2834 1935 2845.6 2013.3 2887.4 2043.1 2897.3 2101.5 2994.8 2189.5 2946.2 2218.7 2995.1 2170.7 3021.8 2182.3 3043.5 2168.7 3052.4 2176.2 3064.1 2160 3074.3 2186.4 3125.2 2209 3161.1 2221 3184.7 2233.2 3223.7 2256.5 3216.7 2265.8 3252 2241.6 3265.8 2208.7 3214.7 2182 3167 2139.3 3097.7 2089.3 3015 2050 2946.4 1991 2911.3 1925.6 2869.4 1862.7 2834.6 1875 2824.6 1976.5 2741 Z M 1788.8 2788 1750.5 2765.2 1703.2 2738.9 1662.5 2719.2 1655.6 2717.3 1715.3 2666.3 1763.6 2717.7 1783.8 2702.5 1810.4 2732.7 1800.4 2741.3 1819.7 2764.1 1788.8 2788 Z" data-holc_grade="D"/>
<path d="M 2363.7 3520.4 2486.3 3764.1 2480 3767.8 2405.6 3710.4 2298.7 3618 2292.1 3622.8 2250.6 3575 2206.2 3523.4 2218.1 3515 2233.6 3513.5 2255.8 3518.6 2273.2 3524.9 2292.4 3521.5 2304.6 3521.5 2319.7 3525.9 2339 3534 2348.6 3535.5 2357.1 3525.2 2363.7 3520.4 Z" data-holc_grade="D"/>
<path d="M 581.5 839.2 324 880.3 287.6 743 284.4 726.6 571.6 683 572.7 694.2 557.7 701.3 561.1 730.6 577.1 730 579.3 765.9 571.5 765.8 567.1 772.5 567.7 787.9 576 788.5 576.5 798.4 582 799.5 581.5 839.2 Z M 374.6 769.1 374.8 780.2 393.6 777.6 392.8 765.9 374.6 769.1 Z M 569 657.2 569.9 666.7 277 711.4 264.5 674.3 426.9 647.2 421.7 594.8 537.1 579 544.4 660.2 569 657.2 Z" data-holc_grade="D"/>
<path d="M 1214.7 2678.3 1176 2735.1 1166.2 2730.5 1154.2 2749.7 1127.6 2732.9 1112.5 2754.6 1099.4 2747 1084.7 2738.4 1091.8 2727.3 997.6 2671.6 993 2680.3 944.9 2654.1 949.1 2645.3 889 2614 884.9 2621.4 796.2 2573.1 779.6 2564.3 765.3 2561.6 720.9 2562 720.9 2567.5 663.3 2563.8 624.9 2561.6 624.9 2526.2 565 2525.1 564.7 2540.9 521.1 2539.4 522.9 2468 671.4 2472.6 678.4 2475.9 685.8 2478.8 695 2480.7 704.3 2482.5 715.3 2487.7 724.8 2494.5 729.2 2501.7 730.5 2509.7 731.2 2513.6 736.2 2517.3 744 2521 757.6 2522.1 765.8 2524.1 779.4 2526.7 804 2536.6 822.1 2550.1 850.4 2568.1 868.9 2534.8 1005.2 2609.2 1029.2 2621.7 1008.5 2657.5 1018.8 2662.8 1040.3 2627.5 1081.1 2647.9 1087.5 2639.1 1098.1 2619.4 1137.8 2635.8 1166.2 2652.1 1214.7 2678.3 Z" data-holc_grade="D"/>
<path d="M 321.6 1102.9 221 1128.8 214.5 1105.6 214.5 1097.3 206.2 1062.2 188.4 1000.4 178.4 961.8 169.2 928.9 160.8 902.3 153.8 885.7 146.4 869.4 144 864.2 144.2 850.2 134.1 830.6 114.2 793.8 108.2 774.8 161.1 758.7 269.4 727.1 290.6 814.6 310 890.5 316.2 917.8 359.9 1093.1 321.6 1102.9 Z M 199 449 264.1 712.5 115 753.2 105.4 758.7 106.5 769 78.4 777.4 44.6 647.3 4.2 471.6 24.1 466.8 27.1 468.7 31.5 473.4 38.1 475.7 45.9 474.6 58 470.9 67.6 469.1 99 466.9 105.7 463.2 119.7 461.4 135.2 457 146.6 455.9 161 457 169.5 455.2 183.5 451.2 199 449 Z M 186 659.1 191.4 681.4 207.1 677.8 200.7 654.3 186 659.1 Z" data-holc_grade="D"/>
<path d="M 592.8 979.6 585.6 984 592.2 1022.1 606.1 1023.2 612.7 1076.1 595.7 1123.6 533.7 1133.2 539 1168.8 582.4 1160.9 577.2 1175.4 569.7 1176.4 521.3 1183 513.5 1147.8 434.3 1160.4 421.1 1122.3 414.4 1124 403.9 1088.1 376.2 1095.3 324 880.3 581.5 839.2 638.9 829.7 643.8 863.4 585.1 874.3 587.3 907.4 575.7 910.2 577.9 942.1 589 942.1 592.8 979.6 Z M 383.7 957.5 391.2 1016.2 416.7 1011.4 408.5 954.3 383.7 957.5 Z M 677.1 857.2 667.1 765.9 689.4 763.1 696.5 817.6 700.3 852.9 677.1 857.2 Z" data-holc_grade="D"/>
<path d="M 762.2 1172.6 741.9 1175.3 737.1 1148.5 699.1 1153.3 694.4 1105.6 754.9 1098.3 773.7 1093.2 794.8 1089.1 802.8 1163.8 762.2 1172.6 Z" data-holc_grade="D"/>
<path d="M 422.3 1359.2 454.8 1489.4 428.2 1497.1 410 1485.5 342.9 1502 326.9 1497.6 304.7 1491.5 292.6 1494.8 262.3 1305.6 257.8 1290.1 243.5 1240.5 238.5 1214 230.2 1179.3 225.8 1160.5 225.8 1149.5 221 1128.8 321.6 1102.9 398.4 1365.8 422.3 1359.2 Z" data-holc_grade="D"/>
<path d="M 497.7 1476.6 501.6 1460.6 523.8 1416.5 532.7 1362.8 589.3 1173.2 597.1 1171.8 605.4 1256.4 621.2 1335.5 647.1 1381.3 564.9 1778.4 559 1793.8 488.3 1515 497.7 1476.6 Z M 422.3 1359.2 398.4 1365.8 321.6 1102.9 359.9 1093.1 370.7 1148.2 389.3 1212.6 391 1236.4 422.3 1359.2 Z M 569.7 1176.4 512.1 1347.2 484.9 1347.7 466.3 1342.4 444.1 1344.1 428.2 1292.9 416.7 1259.4 398.2 1192.3 376.2 1095.3 403.9 1088.1 414.4 1124 421.1 1122.3 434.3 1160.4 513.5 1147.8 521.3 1183 569.7 1176.4 Z" data-holc_grade="D"/>
<path d="M 550.3 1847.2 541.5 1850.4 476.5 1817.7 478.3 1808.5 398.5 1786.9 381.8 1836.5 335.6 1820.4 327.8 1845.6 310.2 1902.7 296.8 1900.3 274.1 1974.3 187.1 1949 178.8 1964.5 268.5 1989.9 418.1 2030.9 398.1 2114.2 226.9 2065.5 217.5 2063.8 168.8 2028.4 136.1 2005.8 91.8 1976 33.7 1935.1 1 1914.1 19.3 1898.6 38.7 1885.4 77 1851.8 90.8 1836.4 99.7 1828.1 108.6 1820.9 120.8 1812.7 135.7 1802.8 163.5 1778 194 1737.7 215 1706.3 231.1 1686.5 241.7 1667.2 246.1 1657.8 255 1637.4 260 1623.6 262.2 1609.3 306 1591.6 308.2 1588.9 302.1 1566.3 439.5 1530 469.4 1539.4 550.3 1847.2 Z M 414.9 1590.1 388.9 1630.8 402.8 1635.4 414.9 1590.1 Z M 223.6 1761.7 260.3 1785.4 275 1764 237.8 1738.6 223.6 1761.7 Z" data-holc_grade="D"/>
<path d="M 274.1 1974.3 296.8 1900.3 310.2 1902.7 327.8 1845.6 374.2 1860.6 381.8 1836.5 398.5 1786.9 478.3 1808.5 476.5 1817.7 541.5 1850.4 550.3 1847.2 555.4 1871.6 472.6 2041.2 431.5 2018.6 274.1 1974.3 Z" data-holc_grade="D"/>
</g>
</svg>