<?xml version="1.0"?>
<svg xmlns="http://www.w3.org/2000/svg" version="1.2" baseProfile="tiny" width="3000" height="4078" viewBox="0 0 3000 4078" stroke-linecap="round" stroke-linejoin="round">
<g id="A">
<path d="M 13.3 2714.9 11.8 2661.7 10.9 2401.3 11.8 2073.7 14.9 1769.2 15.4 1769.2 149 1769.6 241 1768.8 360.9 1769.7 517 1771.8 642 1771.9 753.5 1771.1 789.9 1770.8 790.4 1713.6 790.7 1652.9 791 1634.4 791.2 1603.7 794.6 1603.7 858.5 1603.3 867.1 1610.6 903.2 1640.2 947.1 1676.1 952.4 1679.3 966.3 1687.4 977.2 1687.4 1048.3 1687.4 1048.4 1687.4 1046.3 1642.5 1046.2 1640.3 1046.6 1594.6 1047.4 1506.3 1049.1 1427.2 1132.9 1429.5 1133.2 1435.2 1133.5 1457 1134.6 1560.1 1134.6 1614.2 1134.6 1647.6 1132.3 1734 1130.3 1732.8 1091.2 1711.5 1091.2 1713.2 1089.5 1778.8 1090.1 1816.1 1090 1901.6 1092.8 2003.2 1199.2 2004.5 1413.2 2008.3 1411.5 2032.9 1411.7 2045.7 1410.7 2089.9 1410.4 2095.2 1410.2 2112.1 1409.8 2128.8 1409.3 2164.1 1408.7 2206.3 1408.9 2212.1 1411.5 2274.1 1412 2322.1 1412 2370.1 1387.3 2369.9 1362.3 2369.6 1344.5 2369.5 1218.9 2371.2 1218.3 2506.4 1217.8 2579.8 1217.7 2591.1 1216.6 2715.7 1050.7 2715.1 1050.4 2715.1 1049.8 2715.1 964.8 2724 798 2709.4 684.3 2712.7 539.5 2712 497.5 2711.6 365.4 2709.7 13.3 2714.9 Z" data-holc_grade="A"/>
</g>
<g id="B">
<path d="M 1559.9 1879.4 1560.5 1879.4 1560.1 1945.5 1559.9 1988.7 1559.8 2006 1559.8 2007 1559.4 2082 1558.8 2128 1558.7 2136.9 1559.2 2186.1 1557.6 2268.3 1602.8 2268.8 1649.6 2269.5 1693.4 2270.2 1732.6 2269.2 1731 2335 1730.3 2372.4 1780.6 2372.9 1815.9 2373.1 1816.2 2428.5 1816.6 2494.9 1817.4 2546.2 1817.5 2589.4 1816.6 2627.5 1816.6 2629.3 1816.8 2675.6 1816.6 2722.6 1817.1 2765.2 1814.8 2958.1 1826.7 2958.2 2212.9 2958.3 2264.9 2957.9 2264.3 2958.3 2228 2990.1 2174.2 3037.9 2109.2 3093.5 2085.4 3115.8 2074.9 3127.6 2064.1 3138.8 2051.2 3160 2041.8 3174.3 2034.2 3187.3 2028.8 3199.5 2022.7 3211.3 2019.8 3222.8 2014 3237.2 2010.8 3250.1 2008.3 3263.1 2003.2 3286.8 1997.8 3314.1 1994.6 3343.9 1990.6 3372.7 1987.4 3402.8 1987.8 3443.4 1993.9 3486.9 2002.2 3533.3 2006.6 3567.4 2010.9 3595.1 2014.5 3614.8 2021.7 3640 2029.7 3665.5 2039.1 3688.1 2052.8 3722.6 2067.2 3752.1 2085.6 3789.5 2109.8 3837.2 2134 3881.1 2152.1 3908.7 2175.9 3938.9 2188.5 3954 2205.1 3967.3 2225.3 3978.4 2245.6 3984.9 2266.5 3991 2279.8 3994.6 2299.3 3997 2311.3 3999.6 2324.3 4002.1 2337.9 4004.1 2353.4 4006 2367 4008 2382.7 4010.1 2394 4012.9 2421 4016.8 2444.6 4020.9 2467.4 4026.4 2477.8 4029.1 2498.9 4036.9 2515.9 4042.5 2534.4 4049.1 2554.5 4055.3 2561.7 4059.2 2583.9 4066.8 2610.4 4077.4 2401.7 4073.8 2023.1 4065.2 1957.6 3942.2 1912 3861.4 1882.3 3809 1860.5 3769.5 1832.1 3732 1758 3631.7 1712.9 3574.5 1669 3474 1730.4 3473 1728.4 3375.2 1728.8 3257 1628.2 3256 1624.9 3239.1 1617.3 3190.6 1607.5 3130.4 1599.6 3076 1587.8 3001.3 1584.5 2980.8 1647.3 2981.5 1728.4 2980.4 1730.2 2908.6 1730.5 2827.1 1730.8 2808.2 1731.6 2743 1731.9 2710.7 1667.1 2712.1 1636.8 2751.3 1610.4 2788 1590.6 2805.2 1571.4 2817.4 1570.5 2817.7 1569.2 2818.1 1562.4 2820.5 1562.2 2954.9 1563.6 2977.8 1563.6 2978.3 1526.8 2980.1 1520.3 2998.4 1518.9 3008.1 1465.2 3009.2 1420.4 3009.8 1417.1 3009.8 1387.3 3010 1364 3010.5 1363.5 3010.6 1359.9 3010.6 1349.4 3013.5 1340.4 3015.3 1335.8 3017.1 1332 3018.2 1295.4 3032.8 1255.4 3048.5 1223 3061.8 1216.7 3064.1 1216.7 3064.4 1215.9 3064.7 1216.4 3096.8 1216 3138.9 1216 3139.6 1178.1 3141 1082.6 3140.6 1018.4 3140.2 964.7 3140.2 940.8 3139.5 873.1 3137.7 871.6 3211.1 870.9 3236.1 869.6 3286.5 863.6 3383 858.9 3456.3 856.3 3504.5 857 3565.6 857.9 3604.2 857.4 3638.9 860.2 3765.7 862.8 3806.8 862.9 3810.7 863.3 3813.8 863.8 3822.5 865.9 3841.2 866.7 3872 866.3 3900.6 865.7 3934.9 865.7 3938.3 865.6 3940.8 864.8 4011.9 863.3 4061 1 4074.5 12.2 3873 12.3 3783.9 17.9 3634.4 15.4 3419.2 15.6 3169.8 14.4 2987.6 13.3 2714.9 365.4 2709.7 497.5 2711.6 539.5 2712 684.3 2712.7 798 2709.4 964.8 2724 1049.8 2715.1 1050.4 2715.1 1050.7 2715.1 1216.6 2715.7 1217.7 2591.1 1217.8 2579.8 1218.3 2506.4 1218.9 2371.2 1344.5 2369.5 1362.3 2369.6 1387.3 2369.9 1412 2370.1 1412 2322.1 1411.5 2274.1 1408.9 2212.1 1408.7 2206.3 1409.3 2164.1 1409.8 2128.8 1410.2 2112.1 1410.4 2095.2 1410.7 2089.9 1411.7 2045.7 1411.5 2032.9 1413.2 2008.3 1199.2 2004.5 1092.8 2003.2 1090 1901.6 1090.1 1816.1 1089.5 1778.8 1091.2 1713.2 1091.2 1711.5 1130.3 1732.8 1132.3 1734 1134.6 1647.6 1134.6 1614.2 1134.6 1560.1 1133.5 1457 1133.2 1435.2 1131.8 1344.8 1174.6 1345.9 1175.2 1302.2 1214 1301.7 1212.3 1264.1 1045.8 1259.6 1047.5 1136.8 1047.5 1029.2 1046.4 898.6 1045.3 794.3 1046.5 706.3 1156.7 700.2 1266.4 698.5 1257.5 578.6 1256.3 544.4 1259.2 463.2 1260.9 389.8 1263.1 304.1 1264.3 220 1265.4 65.4 1267.7 4.9 1393.1 2.1 1537.6 2.1 1566.3 1 1552.8 37.4 1541 66 1535.3 81.1 1528 123.7 1520.1 146.1 1521.3 185.9 1524.3 210.4 1526.9 226 1540.9 259.8 1575.7 323.7 1618.6 396.3 1637.9 420.4 1663.9 444.3 1700.6 476.6 1736.3 504.6 1749.7 579.7 1779.5 704.1 1779.4 705.1 1777.8 717.6 1846.5 936.2 1907.3 1130.1 1952.9 1280.3 1972.3 1345.1 1971.4 1345.1 1883 1343.3 1819.6 1343.3 1753 1341.9 1634.5 1341.9 1575.8 1341.9 1518.9 1342.7 1435 1344.8 1435 1345.7 1436 1394 1436.8 1456.8 1435.9 1517 1435.4 1517 1380.1 1516.1 1375.3 1524.3 1375 1524.8 1372.6 1540 1372.2 1553.7 1371.4 1553.7 1315.7 1553.9 1315.7 1554.2 1315.3 1572.9 1315 1587.2 1315.1 1622.3 1315.2 1651 1315.2 1688.2 1370.3 1688.5 1371.2 1848.7 1371.7 1880.7 1417.3 1880.5 1468.1 1880.3 1513.5 1879.4 1559.6 1879.4 1559.9 1879.4 Z" data-holc_grade="B"/>
<path d="M 1046.6 1594.6 1046.2 1640.3 1046.3 1642.5 1048.4 1687.4 1048.3 1687.4 977.2 1687.4 966.3 1687.4 952.4 1679.3 947.1 1676.1 903.2 1640.2 867.1 1610.6 858.5 1603.3 794.6 1603.7 791.2 1603.7 791 1634.4 790.7 1652.9 790.4 1713.6 789.9 1770.8 753.5 1771.1 642 1771.9 517 1771.8 360.9 1769.7 241 1768.8 149 1769.6 15.4 1769.2 15.5 1649.1 15.3 1498.8 14.7 1353.4 16.3 1256.2 171.1 1257.4 280.3 1259.3 367.1 1258.6 366.3 1298.1 398 1323.6 453.1 1365.6 536.6 1429.6 614.4 1430 692.9 1430 789.5 1430.4 788.8 1346.4 877 1345.4 875.9 1385.2 1045.6 1384.2 1048.1 1429.4 1046.9 1549.7 1046.6 1594.6 Z" data-holc_grade="B"/>
</g>
<g id="C">
<path d="M 865.7 3938.3 867 3882.1 866.7 3872 866.9 3864.1 866.3 3843.3 863.3 3813.8 862.8 3806.8 860.2 3728.7 858.8 3644.6 857.9 3604.2 859.2 3514.5 865 3415.7 867.3 3360.3 868.7 3327.7 869.6 3286.5 870.9 3236.1 871.6 3211.1 873.8 3139.1 940.8 3139.5 964.7 3140.2 1018.4 3140.2 1082.6 3140.6 1178.1 3141 1216 3139.6 1216 3138.9 1217.1 3138.8 1216.4 3096.8 1215.9 3064.7 1216.7 3064.4 1223 3061.8 1255.4 3048.5 1295.4 3032.8 1332 3018.2 1335.8 3017.1 1349.4 3013.5 1359.9 3010.6 1363.5 3010.6 1364 3010.5 1387.3 3010 1417.1 3009.8 1420.4 3009.8 1457.9 3010 1496.7 3009.1 1522.1 3008.6 1510 3058.6 1490.3 3077.7 1468.1 3104.5 1453.7 3120.8 1441.3 3138.3 1411.8 3174.8 1399.9 3192.7 1389.8 3209.6 1386.6 3214.7 1383.7 3216.8 1383.7 3219.3 1381.9 3221.5 1371.3 3240.9 1367.5 3261.2 1373.7 3315.7 1370.8 3418.4 1368.6 3474 1367.5 3500.4 1366.9 3649.3 1543.9 3646.7 1541.3 4054.7 865.1 4062.3 865.1 3989.3 865.7 3938.3 Z" data-holc_grade="C"/>
<path d="M 2264.3 2958.3 2264.9 2957.9 2212.9 2958.3 1826.7 2958.2 1814.8 2958.1 1817.1 2765.2 1816.6 2722.6 1816.8 2675.6 1816.6 2629.3 1881.9 2630.9 1883.3 2527.5 1974.9 2530.4 1975.2 2471.5 2043.3 2471.8 2044.8 2429.8 2135.2 2431.9 2218.1 2433 2223.9 2455.9 2227.2 2478.2 2229.7 2501.5 2231.5 2537.1 2234.1 2571.6 2236.6 2594.9 2247.4 2628.3 2268.7 2678.2 2296.4 2736.5 2312 2803.5 2313.1 2835.5 2312.4 2870.3 2307 2889 2304.9 2899.8 2298.4 2916.3 2290.8 2928.2 2282.2 2938.2 2264.5 2958.3 2264.3 2958.3 Z" data-holc_grade="C"/>
<path d="M 1558.8 2128 1559.4 2082 1559.8 2007 1810.1 2008.1 1810.1 2007.2 1811.8 1985.6 1812.9 1877.6 1815.1 1750.4 1814.5 1600.2 1729.8 1598.6 1729.7 1597.4 1729.2 1594.1 1727 1577.2 1540.9 1580.1 1540.5 1580.1 1540.5 1606.6 1540.5 1607.4 1473.8 1608.9 1473 1686.3 1560 1686.1 1559.5 1750 1560 1833.2 1559.9 1879.4 1559.6 1879.4 1513.5 1879.4 1468.1 1880.3 1417.3 1880.5 1371.7 1880.7 1371.2 1848.7 1370.3 1688.5 1315.2 1688.2 1315.2 1651 1315.1 1622.3 1315 1587.2 1315.3 1572.9 1315.7 1554.2 1315.7 1553.9 1371.4 1553.7 1372.2 1553.7 1372.6 1540 1375 1524.8 1375.3 1524.3 1380.1 1516.1 1435.4 1517 1435.9 1517 1436.8 1456.8 1436 1394 1435 1345.7 1435 1344.8 1518.9 1342.7 1575.8 1341.9 1634.5 1341.9 1753 1341.9 1819.6 1343.3 1883 1343.3 1971.4 1345.1 1972.3 1345.1 1952.9 1280.3 1907.3 1130.1 1846.5 936.2 1777.8 717.6 1777.9 716.7 1777.8 716.7 1779.1 705.1 1779.4 705.1 1815.5 706.1 1871 706.4 1930.7 706.4 1969.7 707 2002.8 705.9 2014.8 712.9 2029.1 723.2 2035 727.3 2041.3 732.3 2049.8 738.2 2057.6 741.3 2062.6 746.2 2070.6 752.8 2075.4 754.1 2084.9 761.3 2093.6 767.1 2102.1 769.6 2109.3 772.7 2119.4 775.9 2129.3 778.5 2136.4 781 2142.5 783.5 2151.2 785.6 2159.5 788 2172.8 791.6 2185.2 796.1 2200.7 805 2208.1 810 2213.5 814.3 2218.5 817.5 2232.6 826.4 2243.2 832.5 2248.9 832.7 2261.2 838.3 2269.9 838.3 2276.7 840.2 2287.9 842.7 2303.3 838.4 2312.6 835.5 2316.7 833.6 2323.2 830.3 2326.8 829.2 2331.5 827.9 2337.5 825 2340.9 822.9 2344.9 820.7 2348.8 818.7 2350.7 818 2354 817.5 2358.1 816.5 2362.3 815.6 2365.7 815.3 2368.2 815.6 2375.1 815.7 2380 816.4 2393 819.1 2402.7 821.6 2410.7 822.3 2419.1 824.5 2426.4 825.7 2439.9 827.8 2462.3 833.6 2467.7 835.6 2473.8 837.6 2488.9 844.3 2504.9 852.5 2512.2 856.3 2527 865.2 2533.1 869.8 2540.4 874.9 2550.9 883.8 2564.6 894.6 2576.1 901 2583.8 908.4 2600.6 921.8 2607.2 927.3 2615.6 932.8 2624.8 939.5 2631.2 943.6 2637.6 947.8 2643.9 953.7 2651.8 959.6 2657.4 964.7 2667.1 972.3 2675.9 978.3 2684.6 983.3 2694.7 987.9 2700.7 989.7 2705.4 990.6 2708.1 991.6 2711.8 992.6 2720.3 993.4 2733.1 998.8 2748.5 1002.3 2757.1 1006.2 2769 1011.3 2785.8 1020.3 2794.4 1024.7 2805.8 1028.5 2814.9 1031.6 2830.6 1035.9 2847 1039 2870.7 1046.2 2889.4 1052.3 2898 1055.1 2906.8 1059 2915.9 1063.4 2927.4 1067.2 2954.1 1074.1 2964.6 1080 2976 1086.2 2981.9 1090.3 2987.2 1094.7 2989.3 1101.5 2990.7 1118.1 2991.9 1131.2 2992.6 1143.9 2997 1157.4 2998.8 1168.3 2999 1176.7 2999 1189 2997.7 1194.9 2995.9 1203.8 2994.3 1210.7 2989.9 1220.4 2989.3 1224.6 2984.4 1232.7 2983.5 1237.9 2976.2 1245.3 2971.8 1258.6 2969.8 1264.3 2966.8 1273 2964.6 1282.5 2961.5 1294.3 2958.3 1319.8 2956.2 1331.1 2953.1 1342.4 2949.6 1354.4 2946.6 1363.2 2942.7 1376.6 2933.2 1395.2 2921.7 1412.1 2910.3 1420.1 2896.8 1429.8 2889 1439.6 2885.6 1445.5 2878.8 1450.3 2874.8 1455.4 2865.9 1464.3 2861.6 1471.8 2855.7 1477.5 2847.3 1490.8 2839.6 1500.7 2834.6 1507.8 2828.5 1519.9 2824.9 1528.5 2819.2 1537.4 2812.1 1558 2806.5 1567.2 2802.5 1577.6 2800.7 1591.4 2797.2 1597.8 2783.3 1615.6 2779.3 1625.1 2774.4 1636.7 2773.4 1647.8 2769.4 1657.8 2761.6 1669.6 2753.3 1682.7 2748.2 1693.5 2742.7 1706 2731.8 1718 2723 1726.5 2700.8 1739.6 2688.7 1727 2678.4 1717.8 2665.4 1714.8 2659.2 1715.6 2643.2 1718.5 2614.3 1728.6 2583.3 1737.9 2558.8 1746.9 2532.6 1754.9 2513 1761.9 2482 1772.1 2456.4 1771.8 2452.4 1769.5 2442.7 1764.2 2419.6 1751.1 2393.7 1736.9 2374.5 1730.4 2357.6 1729.7 2333.5 1730 2334.2 1728.4 2375.3 1643.6 2408.6 1570 2415.1 1554.4 2421.5 1554.4 2431.3 1553.7 2455.1 1553.6 2463.6 1551.6 2478.2 1544.6 2493 1528.7 2500.1 1511.7 2502 1483.6 2502 1467.2 2503.8 1452.9 2508.7 1435 2511.2 1421.4 2518.6 1408.5 2520.7 1398.1 2524.6 1382.9 2528 1361.5 2531 1338.2 2531.9 1314 2534.2 1299.3 2537.2 1292.8 2536.9 1256.1 2534.7 1242.8 2530.4 1228.1 2521 1215.8 2503.3 1196 2489.2 1176.3 2474.7 1162.9 2455.9 1155.8 2436.8 1159 2412.6 1165.1 2386.9 1165.5 2361.3 1159.4 2323 1140.7 2313.2 1141.1 2281.1 1140 2256.1 1148.3 2231.2 1166.3 2221.1 1176.4 2194.4 1190.8 2171.6 1195.9 2152.1 1199.8 2127.6 1208.5 2112.4 1216.8 2103.7 1218.9 2093.6 1226.1 2073.4 1238 2047.7 1247 2037.2 1246.7 2040.5 1256.4 2024.2 1272.9 2018.8 1289.9 2018.1 1310 2017 1324.8 2014.2 1333.1 2007.7 1353.6 1999.7 1406.1 1987.4 1441 1974.8 1523.5 1961.1 1611.3 1948.9 1708.2 1929.7 1796 1907.3 1799.6 1906.3 1878.5 1907.4 1936.8 1906.1 1985.6 1905.5 2053.1 1809.5 2055.4 1733.8 2055.4 1732.2 2128 1558.8 2128 Z" data-holc_grade="C"/>
</g>
<g id="D">
<path d="M 1368.6 3476.2 1668.2 3473.3 1680.1 3505.7 1695.3 3538.4 1714.7 3575.6 1860.1 3768.7 2022 4061.3 1538.2 4056.3 1542.2 3646.9 1368 3649.2 1368.6 3476.2 Z" data-holc_grade="D"/>
<path d="M 1563.6 2977.8 1562.2 2954.9 1562.4 2820.5 1569.2 2818.1 1570.5 2817.7 1571.4 2817.4 1590.6 2805.2 1610.4 2788 1636.8 2751.3 1667.1 2712.1 1731.9 2710.7 1731.6 2743 1730.8 2808.2 1727.7 2980.1 1584.2 2980.8 1563.6 2977.8 Z" data-holc_grade="D"/>
<path d="M 1559.8 2007 1559.8 2006 1559.9 1988.7 1560.1 1945.5 1560.5 1879.4 1559.9 1879.4 1560 1833.2 1559.5 1750 1560 1686.1 1473 1686.3 1473.8 1608.9 1540.5 1607.4 1540.5 1606.6 1540.5 1580.1 1540.9 1580.1 1727 1577.2 1729.2 1594.1 1729.7 1597.4 1729.8 1598.6 1814.5 1600.2 1815.1 1750.4 1812.9 1877.6 1811.8 1985.6 1810.1 2007.2 1810.1 2008.1 1559.8 2007 Z" data-holc_grade="D"/>
</g>
</svg>