<?xml version="1.0"?>
<svg xmlns="http://www.w3.org/2000/svg" version="1.2" baseProfile="tiny" width="3000" height="3624" viewBox="0 0 3000 3624" stroke-linecap="round" stroke-linejoin="round">
<g id="B">
<path d="M 2254.3 982.7 2387.3 983.7 2383.7 720.9 2626.6 720.8 2821.4 552.7 2872.8 550.9 2996.3 527.5 2999 582.3 2974.7 623.6 2801.5 631.8 2706 709.1 2701.5 740.5 2525.7 880.8 2449.1 988.6 2394.1 991.3 2395 1155.8 2313.8 1156.7 2312 1065.9 2263.3 1065.9 2255.2 1056.1 2254.3 982.7 Z" data-holc_grade="B"/>
<path d="M 2397.8 1528.8 2350.9 1528.8 2350.9 1454.2 2396 1453.3 2397.8 1528.8 Z" data-holc_grade="B"/>
<path d="M 2199.4 1918.9 2246.3 1919.8 2245.4 1846.1 2308.6 1845.2 2308.6 1797.5 2347.3 1797.5 2348.2 1633.9 2398.7 1633.9 2400.6 1776.8 2654.9 1777.7 2654.9 1799.2 2663 1818.1 2673 1832.5 2673.9 1842.4 2670.3 1856.8 2550.3 1856.8 2551.2 1909.8 2677.5 1911.6 2684.7 1952.9 2148.9 1961.1 2148 1922.5 2199.4 1918.9 Z" data-holc_grade="B"/>
<path d="M 2613 2327.6 2609.6 2344.5 2609.6 2363.8 2597.8 2393.9 2593.3 2411 2587 2425 2586.1 2437.5 2573.5 2476.7 2564.5 2492.4 2560.4 2519.8 2550.1 2540.9 2531.6 2578.2 2528.9 2590.4 2514.5 2604.3 2500 2614.2 2481.5 2614.7 2454.5 2607.5 2433.3 2599 2404.8 2589.5 2367.4 2573.3 2356.1 2569.8 2332.2 2559.9 2306.5 2539.6 2289.4 2528 2275.8 2520.8 2239.3 2492.9 2219.4 2463.2 2200.9 2441.7 2191.5 2430 2260.6 2428.8 2481.9 2570.7 2518.6 2494.8 2569.3 2315 2613 2327.6 Z" data-holc_grade="B"/>
</g>
<g id="C">
<path d="M 1579.1 987.2 1549.8 991.7 1114.7 991.6 963.6 997.2 777.6 993.8 538.8 504.1 963.7 495.1 1407.8 490.7 1643.4 479.6 1643.3 481.5 1645.6 543.2 1589.2 542.4 1589.2 733.3 1573.4 732.2 1579.1 987.2 Z M 1085.4 809.7 1086.5 946.7 1131.6 942.2 1127.1 806.3 1085.4 809.7 Z" data-holc_grade="C"/>
<path d="M 777.6 993.8 963.6 997.2 1114.7 991.6 1549.8 991.7 1548.6 1104 1355.9 1108.5 1353.6 1453.4 1431.4 1456.7 1431.4 1543.2 1154.1 1552.2 987.2 1370.2 777.6 993.8 Z" data-holc_grade="C"/>
<path d="M 2383.7 720.9 2387.3 983.7 2254.3 982.7 2092 981.5 2086.3 737.8 2256.5 735.5 2249.7 580.5 2254.2 474.9 2380.4 476 2383.7 720.9 Z" data-holc_grade="C"/>
<path d="M 2254.3 982.7 2255.2 1056.1 2263.3 1065.9 2312 1065.9 2313.8 1156.7 2395 1155.8 2396 1453.3 2350.9 1454.2 2350.9 1528.8 2397.8 1528.8 2398.7 1633.9 2348.2 1633.9 2347.3 1797.5 2308.6 1797.5 2308.6 1845.2 2245.4 1846.1 2246.3 1919.8 2199.4 1918.9 2194 1796.6 2156.1 1794.9 2146.1 1447.9 2057.8 1447.9 2057.7 981.9 2092 981.5 2254.3 982.7 Z" data-holc_grade="C"/>
<path d="M 2148 1922.5 2148.9 1961.1 2684.7 1952.9 2690 2003.6 2685.9 2038.3 2600.7 2040 2612.2 2115.2 2656.8 2114.1 2660.9 2123.2 2673.5 2123.9 2673.5 2159.1 2665.1 2201.2 2648.2 2239.1 2629.8 2258.8 2624.2 2292.5 2613 2327.6 2569.3 2315 2518.6 2494.8 2481.9 2570.7 2260.6 2428.8 2157.7 2312.3 2073.1 2295.4 2088.6 2206.9 2105.5 2139.5 2015.3 2117.1 2066 1924.6 2148 1922.5 Z M 2677.5 1911.6 2551.2 1909.8 2550.3 1856.8 2670.3 1856.8 2669.8 1866.8 2673.9 1886.3 2674.2 1893.2 2681 1907.7 2677.5 1911.6 Z" data-holc_grade="C"/>
<path d="M 1427 3009.2 1064.4 3005.7 1070.5 2584.3 1310.4 2584.3 1313.8 2668.6 1422 2670.3 1427 3009.2 Z" data-holc_grade="C"/>
<path d="M 1070.5 2584.3 1064.4 3005.7 1029.6 3009.1 1029.7 2850.7 953.5 2849.6 954.6 3243.5 1065.7 3245.2 1058.2 3377.9 703.6 3375.9 711.1 3125.7 711.2 2887 477 2887.6 477.7 2801.9 474.4 2645.5 478.9 2596.8 483.9 2543 590.8 2541.7 594.9 2465.5 1029.3 2473.7 1026.5 2584.9 1070.5 2584.3 Z M 947.4 2680 946 2545.1 732.2 2541.7 726.8 2729.2 947.4 2680 Z" data-holc_grade="C"/>
<path d="M 1427 3009.2 1562.4 3010.4 1561.7 3130.5 1666.7 3618.1 1185.5 3612 1188.2 3378.6 1058.2 3377.9 1065.7 3245.2 1065.7 3121.6 1029.6 3120.4 1029.6 3009.1 1064.4 3005.7 1427 3009.2 Z" data-holc_grade="C"/>
</g>
<g id="D">
<path d="M 1643.4 479.6 1407.8 490.7 1407.8 11.1 1909.3 1 1914.9 366 1647.8 368.3 1643.4 479.6 Z" data-holc_grade="D"/>
<path d="M 1065.7 3245.2 954.6 3243.5 953.5 2849.6 1029.7 2850.7 1029.6 3009.1 1029.6 3120.4 1065.7 3121.6 1065.7 3245.2 Z" data-holc_grade="D"/>
<path d="M 711.1 3125.7 467.9 3120.2 477 2887.6 711.2 2887 711.1 3125.7 Z" data-holc_grade="D"/>
<path d="M 1666.7 3618.1 1561.7 3130.5 1562.4 3010.4 1643.6 3009.1 1643.6 3118.7 1714.7 3622.8 1666.7 3618.1 Z" data-holc_grade="D"/>
<path d="M 963.7 495.1 538.8 504.1 376.6 30.1 710.2 25.6 712.4 86.3 800.3 85.2 802.5 268.2 961.5 270.5 963.7 495.1 Z" data-holc_grade="D"/>
<path d="M 1 446 63 451.7 122.2 471.4 229.2 599.2 178.4 641.3 282.7 799.9 281.2 863.1 244.6 864.5 206.6 858.9 169.9 870.1 151.6 889.8 145.9 926.3 151.6 967 165.6 1003.5 262.9 1004.9 264.3 1038.6 444.6 1042.9 686.9 1461.4 372.6 1464.2 371.2 1665 238.7 1673.4 141.5 1673.3 16 1660.6 13.4 1239.4 14.9 1059.6 22 853.2 23.4 736.7 17.9 589.3 1 446 Z" data-holc_grade="D"/>
<path d="M 777.6 993.8 987.2 1370.2 1154.1 1552.2 1431.4 1543.2 1434.2 1648.1 1439.3 1839.9 955.7 1460.1 767.5 1115.2 743.8 1164.6 600.7 892.7 632.2 824.2 490.3 504 538.8 504.1 777.6 993.8 Z" data-holc_grade="D"/>
<path d="M 2086.3 737.8 2092 981.5 2057.7 981.9 1579.1 987.2 1573.4 732.2 1589.2 733.3 1589.2 542.4 1645.6 543.2 1643.3 481.5 1643.4 479.6 1647.8 368.3 1914.9 366 1916.1 485.1 1727.9 882.7 1845.1 882.7 1841.7 814.2 1892.4 813 1886.8 737.8 2086.3 737.8 Z" data-holc_grade="D"/>
<path d="M 2057.8 1447.9 1731.9 1452.5 1609.4 1454.2 1615 1643.8 1434.2 1648.1 1431.4 1543.2 1431.4 1456.7 1353.6 1453.4 1355.9 1108.5 1548.6 1104 1549.8 991.7 1579.1 987.2 2057.7 981.9 2057.8 1447.9 Z" data-holc_grade="D"/>
<path d="M 2199.4 1918.9 2148 1922.5 2066 1924.6 2015.3 2117.1 2105.5 2139.5 2088.6 2206.9 1909.6 2163.4 1968.8 1914.8 1961.7 1808.1 1770 1812.3 1730.6 1809.5 1731.9 1452.5 2057.8 1447.9 2146.1 1447.9 2156.1 1794.9 2194 1796.6 2199.4 1918.9 Z" data-holc_grade="D"/>
<path d="M 2673.5 2123.9 2660.9 2123.2 2656.8 2114.1 2612.2 2115.2 2600.7 2040 2685.9 2038.3 2682.6 2049.8 2682.1 2067.2 2681.6 2085.8 2676.5 2120.6 2673.5 2123.9 Z" data-holc_grade="D"/>
<path d="M 1562.4 3010.4 1427 3009.2 1422 2670.3 1313.8 2668.6 1310.4 2584.3 1070.5 2584.3 1026.5 2584.9 1029.3 2473.7 594.9 2465.5 590.8 2541.7 483.9 2543 478.9 2596.8 136.5 2594.2 138.3 2272.2 141.8 1893 498.6 1903.2 500.3 2061.6 963.7 2130.8 965.4 2152.7 1073.6 2157.8 1073.6 2220.2 1322.2 2218.5 1322.2 2272.4 1422 2270.8 1425.4 2324.7 1621.6 2326.4 1633.4 2333.1 1631.8 2877.6 1564.1 2881 1562.4 3010.4 Z" data-holc_grade="D"/>
</g>
</svg>