<?xml version="1.0"?>
<svg xmlns="http://www.w3.org/2000/svg" version="1.2" baseProfile="tiny" width="3000" height="2808" viewBox="0 0 3000 2808" stroke-linecap="round" stroke-linejoin="round">
<g id="A">
<path d="M 1551.7 411.2 1565.2 414.2 1590.4 404.9 1656.2 340.4 1721.1 276.9 1741.4 287.6 1729.3 301.3 1825.1 362 1839.7 380.1 1839.7 389 1851.8 403.4 1859.5 418.3 1787.9 431.2 1739.5 446.4 1676.1 466.8 1561.3 581.2 1552.6 556 1528.4 557.5 1524.6 502.7 1472.8 513 1444.7 524.5 1438.4 519.3 1423.9 515.3 1420.5 507.1 1431.1 491.9 1461.1 464.9 1473.7 454.5 1497.4 440.5 1501.3 430.5 1500.8 420.8 1552.1 428.6 1551.7 411.2 Z" data-holc_grade="A"/>
<path d="M 1496.2 785.3 1507.8 827.6 1514.5 856 1518.4 883.5 1519 892.1 1515.7 911.1 1509.6 924.4 1495.6 947.4 1488.5 956.3 1483.8 963.4 1417.9 921.9 1434.2 894.1 1442.2 855.8 1447.3 836.1 1450.6 828 1469.8 810.2 1436.8 790.8 1458.5 766.3 1453.4 756.4 1477.9 748.8 1495.6 783.3 1496.2 785.3 Z" data-holc_grade="A"/>
<path d="M 884.9 808.9 888.4 811 956.8 853 980 867.3 1056.7 910.4 1056.7 910.5 1043.4 923.3 1018.7 942.3 1004.4 946.4 999.3 943.8 963.3 928.4 925.5 964.4 894.5 946.6 902.3 942.5 908.8 932.7 818.5 877.7 884.9 808.9 Z" data-holc_grade="A"/>
<path d="M 781.7 1044.5 772.3 1043.8 768.4 1053.1 751.5 1072.1 749.5 1075.1 745.8 1082.8 743.9 1089.8 740.9 1095.5 732.8 1102.1 755.6 1121.6 758.6 1114.5 761.7 1108.4 768.7 1101.7 770.8 1105.9 789.3 1118.6 801.7 1124 815.6 1125.4 822.9 1128.6 828 1134.9 829.2 1146.7 834.4 1152.7 843.7 1155.5 854 1155.5 855.8 1165.9 861.6 1174.7 865.8 1172.6 854.2 1181.3 842.6 1193.8 880.6 1225.1 881.5 1229 862.4 1238.4 851.3 1230.1 825.9 1226.9 804.8 1219.5 793.5 1212.5 786.2 1178 781.3 1174.7 766.1 1173.2 743.4 1159.1 739 1167.3 727.1 1164.1 718.4 1154.8 713.8 1141.7 718.4 1135 725.4 1129.5 728.8 1120.6 729.6 1109.4 722.1 1112.4 707.3 1129.5 697.9 1130.9 689.9 1127.4 686 1119.8 687.9 1109.8 680.9 1109.6 671 1094.8 672.2 1084.6 677.5 1082.6 676.3 1077.6 671.5 1075 664.9 1067.9 672.4 1062.4 672.9 1059.2 668.3 1054 667.6 1045 673.9 1039.8 683.1 1031.1 680.7 1024 684.1 1018.8 711.2 1016.6 716.5 1012.7 725.9 1000 735.9 993.7 747.4 983.7 756.5 966.8 759.8 950.4 771.3 925.6 774.4 929.8 773.2 946.2 776.2 951.6 781.1 956.3 788.7 972.3 814.1 989.2 773.2 1029.3 788.7 1041.1 788.7 1043.4 781.7 1044.5 Z M 907.8 687.8 823.9 772 655.9 671.7 621.7 704.8 683.1 740 638.4 787 666.4 802.3 658.4 811.4 656.9 820.9 734.6 866.7 737.2 878.1 748.8 889.5 762.3 900.4 752.4 927.1 745.9 939.2 744.6 944 746.1 953.4 745.5 967.1 738 984.9 717.7 994 699.8 1003.1 677.5 1005.5 669 1009.2 663.2 1004.6 672 997.4 655 984.4 647.8 989.6 641 984.8 632.3 989.2 591.6 957.7 558.7 900.7 580.5 871 568.4 854.4 544.6 827.3 553.4 815.8 556.8 810.6 580 815.8 600.3 814.4 611 812.5 615.3 806.2 596.4 784.4 580.5 778.1 535.5 749.2 526.7 742.9 522.9 731 512.7 719.5 503 712.1 488 714 480.8 712.1 476.4 704.4 490.9 698.8 505.4 691.8 516.6 683.2 528.2 680.6 531.6 672.5 534 660.7 531.1 657.3 516.1 654.7 500.6 654 490 647.3 531.1 608.4 574.2 624.4 589.7 618.4 608.1 618.1 611 608.4 632.7 610.7 630.3 623.6 644.4 647.3 670 639.5 675.8 651.8 691.3 638.4 735.8 667.3 736.3 679.9 747 692.1 771.2 703.6 778.4 696.9 799.7 709.2 822 684.7 843.8 699.5 871.9 666.2 907.8 687.8 Z" data-holc_grade="A"/>
<path d="M 1503.6 1072.6 1500.1 1090.1 1470.4 1086.6 1436.1 1085.9 1424.9 1085.9 1419.1 1080.3 1352.6 1071.3 1365.9 1002.7 1417.9 921.9 1483.8 963.4 1474.4 982.2 1450.2 1018.1 1512.8 1026.6 1503.6 1072.6 Z" data-holc_grade="A"/>
<path d="M 1637.6 1204.1 1435.7 1178.2 1435.8 1176.2 1436.4 1125.7 1436.1 1085.9 1470.4 1086.6 1500.1 1090.1 1503.6 1072.6 1594 1084.7 1591 1100.2 1655.4 1109.2 1654.5 1116.2 1634.3 1134.7 1628.8 1136.8 1620.7 1150 1637.9 1165.7 1646.1 1190 1644.9 1195.4 1637.6 1204.1 Z" data-holc_grade="A"/>
<path d="M 936.7 1277.2 985.9 1318.3 877.3 1389.2 876.2 1397 855.4 1411.5 853 1413.1 850.8 1419.2 845.7 1420.1 837.4 1415 831.4 1409 829.4 1407 824.3 1391.4 823.9 1381.4 833.7 1366.9 831.6 1365 811.6 1378.6 789.1 1398.4 763 1381.7 768 1366.4 784.4 1348.9 818.1 1321.6 846.1 1305.5 841.7 1300.5 892.6 1264.1 881.7 1253.5 892.2 1249.6 894.7 1242.1 936.7 1277.2 Z" data-holc_grade="A"/>
<path d="M 139.7 1778.5 117.2 1794.1 89.1 1775.4 76.5 1767.1 67.3 1753.7 118.6 1733.3 168.5 1708.8 173.3 1714.8 175.7 1725.1 170.4 1737 164.6 1749.6 165.6 1761.5 154.9 1764.8 147.7 1773 139.7 1778.5 Z M 308.5 1700.9 315.6 1708.5 304 1715.5 238.7 1750 220.3 1771.5 201.9 1779.7 196.1 1760.4 194.6 1742.6 202.4 1737 174.3 1704 197 1684.3 242.5 1663.5 373.7 1603.5 389.7 1622 389.7 1637.6 364.5 1636.5 348.1 1643.6 362.6 1663.9 301.6 1693.6 308.5 1700.9 Z" data-holc_grade="A"/>
<path d="M 564.4 1512.3 446.8 1571.6 373.7 1603.5 242.5 1663.5 157.8 1574.6 188 1553.5 200.1 1548.8 249.4 1519.2 247 1509.9 254 1500.9 279.4 1483 148.6 1434.2 101 1413.3 64 1412.8 37.8 1420.3 29.5 1407.8 33.1 1391.6 67.6 1381.6 111.9 1373.3 130.4 1371.9 132.2 1400.3 154 1391.6 171.8 1381.6 186.7 1380 214.6 1383.3 243 1395.5 252.4 1395.2 290.9 1380.5 304 1378.8 322.1 1380.5 333 1386.1 361.7 1378.8 374 1384.4 383.8 1379.1 398.7 1378.8 424.1 1372.2 439.7 1374.7 446.6 1379.7 449.5 1388.6 442.6 1395.8 448.8 1402.5 467.7 1395.5 474.6 1400 503 1436.4 533.8 1474.2 584.9 1429.3 580.4 1418.6 617.9 1395.4 651.2 1417.4 678.7 1431.6 697.2 1447.8 637.3 1477.2 564.4 1512.3 Z" data-holc_grade="A"/>
<path d="M 1374.7 897.8 1388.1 884.2 1364.9 871.3 1382.3 851.6 1347 830.9 1322.3 853.1 1351.3 870.9 1344.3 880.7 1077 729.6 1077.1 729.6 1060.9 719.5 1165.8 605.6 1177.9 614.4 1207.2 589.8 1237.2 561.4 1286.8 592.4 1295 588 1313.4 591.9 1321.6 601 1330.1 603.3 1341 601.2 1355.8 611.4 1363.7 622.2 1364 627.8 1350.6 633.1 1353.4 643.1 1365.2 648.2 1375.2 666 1391.8 664.1 1399.4 674.1 1432 665.5 1406.6 615.5 1473.2 651.2 1487.7 641.2 1510.4 630.1 1528.5 619 1514.6 655.3 1522.5 661.8 1533.7 664.1 1544.6 669.7 1545.5 677.3 1536.7 686.8 1575.2 709.9 1589.1 717 1576.1 730.5 1567.6 733.3 1563.5 743.1 1548 749.7 1514.3 769.6 1496.2 785.3 1495.6 783.3 1477.9 748.8 1453.4 756.4 1458.5 766.3 1436.8 790.8 1469.8 810.2 1450.6 828 1447.3 836.1 1442.2 855.8 1434.2 894.1 1417.9 921.9 1374.7 897.8 Z" data-holc_grade="A"/>
</g>
<g id="B">
<path d="M 89.1 1775.4 22.8 1811.6 1 1784.5 67.3 1753.7 76.5 1767.1 89.1 1775.4 Z" data-holc_grade="B"/>
<path d="M 1694.8 223.5 1691.1 213.9 1694 197.7 1721.6 175.4 1661.1 142.9 1639.8 186.2 1657.7 210.2 1661.1 235.4 1622.3 253.5 1572 280.9 1534.7 297.6 1458.2 323.9 1496.5 346.8 1488.2 356.1 1466.7 377 1425.4 348.6 1403.4 349 1300.5 380.6 1309.8 394.8 1338.9 409.9 1349.1 421 1329.5 439.7 1315.9 424.9 1249.1 393.8 1271.9 370 1413.2 328.6 1427.7 306.7 1315.5 244.5 1332.2 227.8 1359.1 243.1 1375.4 230.3 1409.2 238.7 1428 223.7 1438.2 227.8 1465.1 202.6 1514.8 225.9 1480.7 259.2 1462.2 278.9 1490.5 291.7 1513.7 269.5 1526.4 264.2 1576.2 243.4 1594.7 230.6 1605.6 199.8 1638.6 106.6 1640.2 104.8 1689.4 52.2 1695.6 40.8 1737 61.9 1730.8 68.8 1751.1 82.1 1726.8 109.3 1784.9 141 1784.9 144.3 1763.9 167.9 1754.1 174.8 1753 184.8 1747.2 198.1 1736.6 204.5 1694.8 223.5 Z" data-holc_grade="B"/>
<path d="M 2494.2 1143.1 2388 1181.8 2332.7 1213.5 2314.9 1219.7 2267.4 1232.7 2238 1254.7 2226.2 1248 2310.6 1160.6 2242.6 1120 2281.1 1085 2291 1096.1 2308.7 1110.7 2339 1127.6 2351.8 1136.6 2359.8 1144.2 2364.9 1134.1 2414.7 1111.1 2432.1 1092.7 2446.9 1099.4 2453.4 1099.6 2464.8 1097.6 2486.3 1088.1 2485.6 1076.2 2489.7 1065.7 2497.2 1061.2 2513 1060.1 2538.4 1064.2 2544.9 1064 2564.3 1053.5 2579.8 1054.2 2591.4 1061.1 2597.2 1069.9 2595 1092.7 2587.5 1109.2 2583.6 1108.1 2573.5 1085.9 2549.8 1097 2491.7 1119.2 2506 1139.2 2494.2 1143.1 Z" data-holc_grade="B"/>
<path d="M 2519.7 1197.1 2443.8 1239.7 2447.4 1246.9 2366.8 1290 2314.9 1219.7 2332.7 1213.5 2388 1181.8 2494.2 1143.1 2508.4 1166.5 2502.4 1168.8 2519.7 1197.1 Z" data-holc_grade="B"/>
<path d="M 2108.7 1364.8 2088.5 1341.1 2145.6 1311.4 2125.2 1290.3 2116 1283.6 2208 1269.5 2238 1254.7 2267.4 1232.7 2297.5 1266.6 2108.7 1364.8 Z" data-holc_grade="B"/>
<path d="M 1951.9 1234.8 1942.9 1239.3 1938.5 1266.2 1947.6 1307.1 1948.3 1354.6 1879.7 1317.7 1875 1321 1864.5 1315.2 1846.3 1331.9 1818.3 1287.4 1819.7 1286.3 1829.9 1289.9 1844.4 1288.5 1881.1 1269.9 1867.3 1252.6 1937.7 1214.3 1948.5 1211.8 2046.2 1189.3 2061.1 1196.5 2066.6 1208.7 1951.9 1234.8 Z" data-holc_grade="B"/>
<path d="M 1417.9 921.9 1365.9 1002.7 1352.6 1071.3 1419.1 1080.3 1424.9 1085.9 1436.1 1085.9 1436.4 1125.7 1435.8 1176.2 1435.7 1178.2 1637.6 1204.1 1666.4 1239.5 1665.9 1246 1640.7 1273.4 1643.6 1279.9 1643.4 1290.1 1651.1 1297.9 1649.2 1302.9 1649 1314.4 1636.9 1329.2 1644.6 1330.7 1696.4 1338.1 1704.4 1336.1 1715.3 1351.1 1707.8 1356.1 1703.9 1356.1 1697.4 1382 1622.1 1378.7 1613.4 1389.1 1590.1 1401.3 1587.7 1356.7 1569.3 1356.1 1570.3 1365 1548 1357.2 1540.5 1367.2 1493.6 1362.1 1422.6 1353.1 1380.3 1347.8 1373.5 1347 1293.6 1336.9 1297.5 1321.7 1264 1317.3 1268.2 1296 1242.7 1292.4 1239.1 1294.2 1235.3 1313.6 1217.7 1311.3 1235.6 1234.2 1244.6 1234.1 1282.1 1239.5 1289.1 1211.4 1285.7 1204.7 1287.6 1190.1 1325.7 1195.2 1334.1 1157.5 1294.2 1158.2 1294.8 1147 1298.8 1143.3 1294.2 1141.5 1283.6 1144.3 1269.1 1134.8 1279.7 1123.4 1280 1118.3 1272.1 1121.1 1265.5 1124.1 1256.1 1118.3 1248.8 1116.2 1247.3 1051.2 1203 1049.3 1201.2 1042.3 1204 993.7 1190.4 985.8 1254.6 957.1 1309.5 959.3 1359.5 961.3 1374.7 897.8 1417.9 921.9 Z M 1365 1185.5 1401.2 1189 1402.9 1179.7 1336.7 1163.8 1333 1183.7 1365 1185.5 Z M 1419.8 1185.5 1408 1196.7 1391.3 1208.2 1421.3 1211 1426 1186.5 1419.8 1185.5 Z" data-holc_grade="B"/>
<path d="M 1846.4 1405.6 1858.5 1422 1858.3 1428.5 1840.4 1447.4 1837.7 1455.7 1860.5 1467.2 1867 1472.9 1826 1494.6 1716.1 1497.9 1694.2 1498.5 1715.3 1405.7 1815.7 1419.4 1820.8 1392.3 1828.3 1397.7 1837 1399.4 1844.5 1403.1 1846.4 1405.6 Z" data-holc_grade="B"/>
<path d="M 911.8 1442 898.7 1449.5 855.4 1411.5 876.2 1397 877.3 1389.2 985.9 1318.3 994.3 1326.9 987.7 1334.3 965 1355.4 969.2 1372.1 986.7 1380.6 1007.9 1401.7 990.7 1411.9 942 1372.3 909 1393.9 952 1433.9 944.1 1439 911.8 1442 Z" data-holc_grade="B"/>
<path d="M 657.4 1250.7 616.7 1215.5 587.7 1184.3 562.5 1175.1 558.6 1173.6 557.1 1173 620.1 1142.8 629.3 1145.8 639 1157.3 651.5 1162.5 662.2 1174.7 681.1 1186.9 687.9 1207 692.7 1233.3 657.4 1250.7 Z" data-holc_grade="B"/>
<path d="M 308.5 1700.9 301.6 1693.6 362.6 1663.9 348.1 1643.6 364.5 1636.5 389.7 1637.6 389.7 1622 373.7 1603.5 446.8 1571.6 564.4 1512.3 579 1567.2 563 1569.8 548 1576.8 531.5 1587.9 527.6 1595.7 512.2 1595.7 494.2 1604.2 504.4 1621.3 500.5 1654.3 501.5 1668.8 505.9 1676.2 497.2 1702.9 491.3 1708.8 423.6 1723.3 392.1 1710.7 308.5 1700.9 Z" data-holc_grade="B"/>
<path d="M 403.2 1747.4 411.5 1794.1 360.6 1799.7 364 1816 349 1817.5 352.4 1831.2 298.7 1837.5 292.9 1834.9 285.6 1807.9 243 1813.8 239.2 1792.7 226.1 1799.7 205.3 1804.9 201.9 1779.7 220.3 1771.5 238.7 1750 304 1715.5 314.2 1717.4 403.2 1747.4 Z" data-holc_grade="B"/>
<path d="M 699.6 2040.4 697.4 2052.4 675.7 2051 675.7 2056.3 659 2056.3 657.5 2062.4 621.6 2058.8 617.9 2074.9 498.5 2060.2 510.8 1997.8 571.8 2005.3 571.1 2010.9 650.6 2022 648.1 2033.4 699.6 2040.4 Z M 298.5 2106.4 298.8 2100.8 283.9 2099.7 274.5 2096.1 265.4 2089.1 261.8 2079.1 287.2 1959.1 311.2 1961.7 297 2025.7 339.1 2031.2 321 2108.9 298.5 2106.4 Z" data-holc_grade="B"/>
<path d="M 1694.8 223.5 1698.3 232.4 1653.8 252.4 1578.8 290.6 1580.2 296.8 1656.2 340.4 1590.4 404.9 1565.2 414.2 1551.7 411.2 1544.4 405.7 1522.6 386.8 1527.9 377.9 1488.2 356.1 1496.5 346.8 1458.2 323.9 1534.7 297.6 1572 280.9 1622.3 253.5 1661.1 235.4 1657.7 210.2 1639.8 186.2 1661.1 142.9 1721.6 175.4 1694 197.7 1691.1 213.9 1694.8 223.5 Z" data-holc_grade="B"/>
<path d="M 354.6 2317.4 305.7 2343 316.4 2317 328 2305.9 329.9 2287.7 327.5 2268.4 334.3 2260.9 380.3 2268 389.9 2272.8 410.8 2276.9 354.6 2317.4 Z M 441.5 2221.3 431 2224.7 423.7 2223.8 416.1 2217.4 414.3 2207.1 421.5 2184.9 405.9 2170.4 362.7 2128.9 354 2126.1 335.1 2130.6 303.2 2126.4 363.4 2104.1 443.3 2175.1 431 2186.2 467.3 2218.5 451.7 2230 441.5 2221.3 Z" data-holc_grade="B"/>
<path d="M 157.8 1574.6 115.5 1534.7 91.9 1521.6 81.7 1518.8 76.3 1493.5 73.4 1485.7 40.3 1429.3 37.8 1420.3 64 1412.8 101 1413.3 148.6 1434.2 279.4 1483 254 1500.9 247 1509.9 249.4 1519.2 200.1 1548.8 188 1553.5 157.8 1574.6 Z" data-holc_grade="B"/>
<path d="M 1349.1 421 1370.1 400.9 1422.9 432.3 1419.5 451.6 1376.9 490.4 1385.6 496 1395.3 509 1351.3 555.2 1380.8 570.4 1397.7 597.8 1406.6 615.5 1432 665.5 1399.4 674.1 1391.8 664.1 1375.2 666 1365.2 648.2 1353.4 643.1 1350.6 633.1 1364 627.8 1363.7 622.2 1355.8 611.4 1341 601.2 1330.1 603.3 1321.6 601 1313.4 591.9 1295 588 1286.8 592.4 1237.2 561.4 1207.2 589.8 1177.9 614.4 1165.8 605.6 1154.7 602.3 1157.2 590.4 1154.7 556 1149.9 547.8 1124.7 500.8 1148.9 499 1235.6 535.2 1251.5 517.8 1187.2 480.8 1185.2 473.8 1192.5 461.9 1208 446.4 1234.6 417.5 1249.1 393.8 1315.9 424.9 1329.5 439.7 1349.1 421 Z M 947.1 294.5 1006.8 329.8 978.1 358.7 968.7 353.4 958.7 365.4 919.7 347.6 935.4 330.5 914.3 315.5 926.7 302.3 937 308.1 947.1 294.5 Z" data-holc_grade="B"/>
<path d="M 1561.3 581.2 1528.5 619 1510.4 630.1 1487.7 641.2 1473.2 651.2 1406.6 615.5 1397.7 597.8 1400.6 574.9 1412.7 548.2 1431.1 530.1 1444.7 524.5 1472.8 513 1524.6 502.7 1528.4 557.5 1552.6 556 1561.3 581.2 Z" data-holc_grade="B"/>
<path d="M 907.8 687.8 946.3 709.8 898.4 760.3 909.3 768.1 875.5 803.1 884.9 808.9 818.5 877.7 908.8 932.7 902.3 942.5 894.5 946.6 925.5 964.4 963.3 928.4 999.3 943.8 1004.4 946.4 1018.7 942.3 1043.4 923.3 1056.7 910.5 1141.8 958.4 1146.6 961.3 1146.6 961.2 1146.7 961.3 1091.6 1015.7 1076.1 1006.4 1043.2 1038.1 992.8 1007.3 978.6 998.6 930 968.9 903.5 993.1 883.2 962.3 871.9 954.8 796 1024.2 804 1030.1 873 967.3 876.6 968.9 886.1 981.4 898.1 1007 919.1 1039 873 1084.3 915.8 1112.1 892.2 1134.9 974.3 1186 944.5 1213.8 957.6 1222.7 949.2 1231 970.5 1244.3 936.7 1277.2 894.7 1242.1 895.5 1229.8 897.9 1225.4 895.5 1218.7 914.2 1212.2 896.1 1186.3 890 1174.7 885.2 1176.3 880.6 1182.1 877.6 1184 869.1 1178.6 865.8 1172.6 861.6 1174.7 855.8 1165.9 854 1155.5 843.7 1155.5 834.4 1152.7 829.2 1146.7 828 1134.9 822.9 1128.6 815.6 1125.4 801.7 1124 789.3 1118.6 770.8 1105.9 768.7 1101.7 764.5 1093.6 764.8 1089.6 775.2 1081.2 774.6 1080.6 770.5 1074.2 771.4 1068.7 776.6 1062.9 780.8 1058.9 781.8 1050.9 781.7 1044.5 788.7 1043.4 788.7 1041.1 773.2 1029.3 814.1 989.2 788.7 972.3 781.1 956.3 776.2 951.6 802.6 938.3 814.8 937.4 838 915.2 827.2 899.2 809.8 890.9 802.2 871.5 799.3 869.7 779.4 890.3 774.7 891.6 764.8 902.4 762.3 900.4 748.8 889.5 737.2 878.1 734.6 866.7 656.9 820.9 658.4 811.4 666.4 802.3 638.4 787 683.1 740 621.7 704.8 655.9 671.7 823.9 772 907.8 687.8 Z M 709.6 801.9 766.2 836.8 771 844.2 779.1 852.5 791.7 861.1 803.3 867.3 797.1 850.8 791.1 841.5 784.9 831.9 778.5 814.1 776.6 798.7 777.2 780.6 750.5 761.2 709.6 801.9 Z M 743.7 832.3 714.6 816.3 698.1 833 725.5 849.7 743.7 832.3 Z M 1190.4 985.8 1204 993.7 1201.2 1042.3 1188.1 1035.9 1131.1 1091.8 1084 1063 1127.2 1021.6 1145.3 1032.9 1176.6 1000.9 1169.1 995.9 1162.5 985.5 1159.1 975.9 1159.4 968.9 1170.5 975.6 1190.3 985.8 1190.4 985.8 Z" data-holc_grade="B"/>
<path d="M 1077 729.6 1344.3 880.7 1327.7 912.2 1314.4 911.8 1307.4 936.1 1309.5 959.3 1254.6 957.1 1254.4 957.1 1243.3 942.4 1208.6 954.8 1205.6 960.1 1216 974.3 1190.4 985.8 1190.3 985.8 1170.5 975.6 1159.4 968.9 1159.2 968.9 1157.5 949.4 1153.6 952.2 1146.6 961.2 1146.6 961.3 1141.8 958.4 1056.7 910.5 1056.7 910.4 980 867.3 956.8 853 1077 729.6 Z M 1091.7 891.7 1159.1 913 1174.1 896.2 1120.9 865.9 1115.8 867.2 1091.7 891.7 Z" data-holc_grade="B"/>
<path d="M 1673.8 765 1704.9 785.1 1698.9 792.1 1694 818.3 1678.3 817.6 1669.2 826.3 1661.1 830.8 1649.9 833 1633.8 852.8 1623.5 867.4 1616 881.7 1614 905 1613.1 918.3 1607.9 925.3 1597.2 923.4 1559.6 946.2 1531.2 951.7 1546.7 971.8 1532 992 1522.9 988.6 1512.8 1026.6 1450.2 1018.1 1474.4 982.2 1483.8 963.4 1488.5 956.3 1495.6 947.4 1509.6 924.4 1515.7 911.1 1519 892.1 1518.4 883.5 1514.5 856 1507.8 827.6 1496.2 785.3 1514.3 769.6 1548 749.7 1563.5 743.1 1567.6 733.3 1576.1 730.5 1589.1 717 1614 730.8 1627.4 737.4 1636.7 741 1673.8 765 Z" data-holc_grade="B"/>
<path d="M 1831.5 857.9 1835.8 857.6 1886.4 886.9 1917.8 856 1856.6 820.8 1824.4 853.8 1727.1 796.3 1789.4 733.2 1797.7 755.7 1830.4 772.9 1831.9 779.8 1859.1 793.5 1889.2 759.6 1855.1 741.8 1854 731 1859.1 727.9 1841.7 709.6 1794.1 695.1 1806.8 681.5 1769.4 667.3 1834.4 596.8 1834.8 584.9 1866.7 565.7 1898.3 583.2 1879.8 598.2 1967.3 647.3 1968 696.2 2084.9 762.3 2110.7 739.3 2119.4 751.5 2131.4 759.6 2119.8 788.7 2114.3 798.4 2093.2 807.2 2012.3 893.7 2056.6 918.4 1985.4 997.3 1940 972.3 1880.1 1035.2 1796.2 1123.3 1752.6 1161.1 1731.1 1147.2 1731.4 1139.1 1713.2 1129.6 1686.9 1114.6 1696.6 1089.6 1692.8 1087.5 1699.6 1075.2 1733.7 1049.3 1776.3 1020.2 1807.3 1002.4 1838.8 984.3 1856.6 970.1 1837.9 942.3 1851 929.2 1822.2 905.1 1830.9 890.5 1831.5 857.9 Z" data-holc_grade="B"/>
<path d="M 2552.3 693.6 2476.8 773.6 2468.8 768.8 2450.3 741.9 2445.9 729.4 2430.7 731.9 2419.4 701.1 2413.6 692.7 2400.9 681.6 2416.9 657.4 2446.3 633.6 2552.3 693.6 Z M 2808.8 278.6 2738 348 2592 260 2620.7 248.6 2606.9 212.8 2636 180.3 2662.8 155.9 2820.4 248.3 2808.8 278.6 Z" data-holc_grade="B"/>
<path d="M 1077 729.6 956.8 853 888.4 811 1009 687.2 1060.9 719.5 1077.1 729.6 1077 729.6 Z" data-holc_grade="B"/>
<path d="M 1727.1 796.3 1824.4 853.8 1831.5 857.9 1830.9 890.5 1822.2 905.1 1851 929.2 1837.9 942.3 1856.6 970.1 1838.8 984.3 1807.3 1002.4 1776.3 1020.2 1733.7 1049.3 1699.6 1075.2 1692.8 1087.5 1665.2 1072.1 1658.6 1107.1 1655.4 1109.2 1591 1100.2 1594 1084.7 1503.6 1072.6 1512.8 1026.6 1522.9 988.6 1532 992 1546.7 971.8 1531.2 951.7 1559.6 946.2 1597.2 923.4 1607.9 925.3 1613.1 918.3 1614 905 1616 881.7 1623.5 867.4 1633.8 852.8 1649.9 833 1661.1 830.8 1669.2 826.3 1678.3 817.6 1694 818.3 1698.9 792.1 1704.9 785.1 1727.1 796.3 Z" data-holc_grade="B"/>
<path d="M 1948.5 1211.8 1796.2 1123.3 1880.1 1035.2 1940 972.3 1985.4 997.3 2056.6 918.4 2012.3 893.7 2093.2 807.2 2114.3 798.4 2106.7 818.9 2113.9 825 2146.6 839.8 2157.1 837 2212 791.7 2235.6 809.6 2309.7 776.3 2323.2 775.9 2336.3 784.8 2359.1 816.3 2350.4 842.9 2331 836.6 2324.7 842.6 2329.1 853.7 2328.1 864.1 2322.3 873.3 2357.6 891.5 2379.4 890.7 2394.9 898.9 2421 929.3 2413.8 977.4 2401.2 1002.2 2400.2 1010.8 2389.6 1024.1 2384.2 1041.1 2352.3 1054.5 2350.8 1081.2 2366.3 1076.7 2378.4 1068.6 2395.9 1069.3 2403.6 1074.5 2408 1085.2 2424.1 1085.2 2432.1 1092.7 2414.7 1111.1 2364.9 1134.1 2359.8 1144.2 2351.8 1136.6 2339 1127.6 2308.7 1110.7 2291 1096.1 2281.1 1085 2242.6 1120 2310.6 1160.6 2226.2 1248 2238 1254.7 2208 1269.5 2116 1283.6 2125.2 1290.3 2145.6 1311.4 2088.5 1341.1 2108.7 1364.8 2116.7 1373.4 2077.2 1379.7 2068.1 1360.2 2060.5 1354.4 2070.7 1348 2038.7 1309.6 2027.5 1316.3 2026.7 1297.7 2036.9 1279.3 2024.2 1276.8 1951.9 1234.8 2066.6 1208.7 2061.1 1196.5 2046.2 1189.3 1948.5 1211.8 Z" data-holc_grade="B"/>
<path d="M 492.8 1020.6 421.1 1050.9 315.1 1105.4 146.7 986.7 458.9 680 466.2 685 446.6 704.5 455.3 709.5 480 717.8 500.3 735 506.1 748.4 488 759.5 488.7 769.5 496.7 785 511.9 786.7 515.6 792.3 504 811.2 500.3 820 491.6 828.9 508.7 840.6 526.5 862 526.5 865.9 518.5 869.5 519.2 880.3 516.3 886.2 521 928.4 543.2 954.2 558.8 969 537 982.3 516.3 987.6 527.9 1002.6 522.1 1008.7 492.8 1020.6 Z" data-holc_grade="B"/>
<path d="M 620.1 1142.8 557.1 1173 544.1 1168 529.1 1152.8 506.8 1121.3 470.5 1154.3 429.4 1188.6 315.1 1105.4 421.1 1050.9 492.8 1020.6 555.2 1044.6 586.2 1061.3 593.5 1073.5 595.4 1122.5 605.1 1132.8 611.4 1138.8 620.1 1142.8 Z" data-holc_grade="B"/>
</g>
<g id="C">
<path d="M 89.1 1775.4 117.2 1794.1 139.7 1778.5 150.6 1783.4 156.9 1790.1 158.3 1801.2 173.3 1808.2 108 1861.6 68.3 1833.8 48.9 1844.6 22.8 1811.6 89.1 1775.4 Z M 1332.2 227.8 1315.5 244.5 1249.4 306.8 1238.4 316.2 1219.8 303.7 1196.6 326.4 1173.9 311.3 1163.5 311.7 1403.4 78.1 1452.2 22.1 1459.7 17.3 1482.6 32.6 1532.9 62.8 1479.5 109.6 1505.6 129.6 1475.4 157.1 1459.1 148.7 1448.1 158.5 1422.5 143.4 1332.2 227.8 Z" data-holc_grade="C"/>
<path d="M 1640.2 104.8 1638.6 106.6 1605.6 199.8 1561.7 178.7 1576.2 164 1617 125 1620.8 120.1 1616.7 113.1 1532.9 62.8 1482.6 32.6 1516.3 1 1577.3 11 1592.3 43 1635.8 28 1638.5 30.6 1623.7 90.5 1628.6 99.8 1640.2 104.8 Z" data-holc_grade="C"/>
<path d="M 2540.4 1219.9 2506.2 1239.1 2531.3 1265.8 2493.5 1288.3 2379.5 1341.1 2284.4 1391.7 2264.1 1399 2174.8 1452.4 2137.8 1464.6 2122.1 1466.8 2108.7 1470.2 2119.2 1499.4 2136.3 1495.5 2164.2 1493.5 2179.8 1486.9 2192.9 1491 2210.3 1498.3 2145.4 1588.4 2090.2 1662.6 2046.6 1685.2 1988.3 1620 1954 1578.5 1919.9 1535 1937 1504.9 1926.8 1493.8 1933.7 1491 1960.9 1485.8 1960.5 1478.9 2053 1456 2052.8 1455.8 2053.4 1455.6 2069.5 1452.4 2050.3 1399.4 2035.5 1390.5 2007.5 1375.1 1979.4 1404 1971.9 1406.2 1961.5 1415.7 1868.5 1366.6 1848.5 1355.2 1835.1 1355.2 1823.1 1353.3 1846.3 1331.9 1864.5 1315.2 1875 1321 1879.7 1317.7 1948.3 1354.6 1947.6 1307.1 1938.5 1266.2 1942.9 1239.3 1951.9 1234.8 2024.2 1276.8 2036.9 1279.3 2026.7 1297.7 2027.5 1316.3 2038.7 1309.6 2070.7 1348 2060.5 1354.4 2068.1 1360.2 2077.2 1379.7 2116.7 1373.4 2108.7 1364.8 2297.5 1266.6 2267.4 1232.7 2314.9 1219.7 2366.8 1290 2447.4 1246.9 2443.8 1239.7 2519.7 1197.1 2540.4 1219.9 Z M 2449.1 1247.3 2460.7 1260.3 2487.5 1246.3 2475.4 1233 2449.1 1247.3 Z M 2304.4 1306.3 2286.9 1287 2254.7 1303.9 2271.7 1323.4 2304.4 1306.3 Z M 2434.4 1295.6 2302.3 1362.7 2307.7 1370.4 2417.5 1313.4 2436.9 1297.9 2434.4 1295.6 Z" data-holc_grade="C"/>
<path d="M 2687.9 1143.9 2691.1 1146.4 2656.2 1166.7 2632.6 1143.1 2601 1161.4 2594.5 1153.4 2599.6 1135.6 2602.5 1118.6 2602.5 1108.3 2609.7 1104.7 2624.6 1093.3 2662.4 1124.2 2687.9 1143.9 Z M 2572.5 1166.8 2573.4 1172.2 2576.6 1205.6 2565.2 1208.4 2555.3 1218.7 2549 1214.7 2540.4 1219.9 2519.7 1197.1 2502.4 1168.8 2508.4 1166.5 2494.2 1143.1 2506 1139.2 2491.7 1119.2 2549.8 1097 2573.5 1085.9 2583.6 1108.1 2549 1124.8 2557.2 1140 2559.1 1150.4 2557.9 1158.5 2540 1168.3 2545.1 1181.7 2572.5 1166.8 Z" data-holc_grade="C"/>
<path d="M 2891.5 1021.9 2945.8 1073.8 2924.9 1087.5 2930.3 1093.8 2912.6 1104.6 2916.5 1110.3 2897.6 1121.2 2828.9 1060.5 2757.5 995.6 2795.9 970.6 2823.8 962.1 2891.5 1021.9 Z" data-holc_grade="C"/>
<path d="M 496.6 1785.2 503.6 1816.4 367.1 1831.5 374 1858.7 351.4 1861.4 310.2 1856.5 306.7 1872 212.6 1860.5 213.5 1845.3 205.3 1804.9 226.1 1799.7 239.2 1792.7 243 1813.8 285.6 1807.9 292.9 1834.9 298.7 1837.5 352.4 1831.2 349 1817.5 364 1816 360.6 1799.7 411.5 1794.1 403.2 1747.4 462.8 1768.9 496.6 1785.2 Z" data-holc_grade="C"/>
<path d="M 850.5 2036.2 839.4 2041.2 716.7 2078.8 684.7 2109.4 669.5 2095.5 593.6 2150.6 633.2 2186.5 543.2 2250.8 491.1 2263.5 462.1 2241.6 443.4 2254.5 429.2 2243.6 441.5 2221.3 451.7 2230 467.3 2218.5 431 2186.2 443.3 2175.1 363.4 2104.1 303.2 2126.4 296.6 2117.5 298.5 2106.4 321 2108.9 339.1 2031.2 297 2025.7 311.2 1961.7 287.2 1959.1 294.1 1934.9 395.8 1946.6 393.6 1961.1 513.7 1975 706.5 2000.1 855 2018.7 852.8 2035.1 850.5 2036.2 Z M 699.6 2040.4 648.1 2033.4 650.6 2022 571.1 2010.9 571.8 2005.3 510.8 1997.8 498.5 2060.2 617.9 2074.9 621.6 2058.8 657.5 2062.4 659 2056.3 675.7 2056.3 675.7 2051 697.4 2052.4 699.6 2040.4 Z" data-holc_grade="C"/>
<path d="M 405.1 2429.3 335 2435.8 388.5 2397.6 435.5 2364.9 414.6 2346.7 398.7 2358.9 354.6 2317.4 410.8 2276.9 435 2281 465 2308.8 439.8 2327 504.7 2383.1 447.1 2419.5 435 2409.4 405.1 2429.3 Z" data-holc_grade="C"/>
<path d="M 1099.7 2077.2 1091 2113.1 991.4 2100.9 999.5 2064.2 1044.8 2070.2 1045.1 2074.2 1067.3 2076.1 1068.1 2073.3 1099.7 2077.2 Z" data-holc_grade="C"/>
<path d="M 911.3 371.5 886.1 404.4 864.8 393 854.6 381.1 850.8 360.4 854.6 334.8 864.3 324.1 887.1 331.9 909.3 343.7 917.1 358.5 911.3 371.5 Z M 1249.4 306.8 1276.7 324.6 1221.6 378.4 1249.1 393.8 1234.6 417.5 1208 446.4 1192.5 461.9 1185.2 473.8 1187.2 480.8 1251.5 517.8 1235.6 535.2 1148.9 499 1124.7 500.8 1122.8 483.6 1153 483.2 1164.6 467.2 1124 444.5 1120.5 438.8 1081.6 397 1128.1 348.6 1163.5 311.7 1173.9 311.3 1196.6 326.4 1219.8 303.7 1238.4 316.2 1249.4 306.8 Z" data-holc_grade="C"/>
<path d="M 1673.8 765 1636.7 741 1627.4 737.4 1614 730.8 1589.1 717 1575.2 709.9 1578.6 701.1 1588.6 698.9 1598.2 681 1577.4 667.8 1579.4 662.8 1602.1 638.7 1640.8 682.6 1667.5 676.7 1679.8 669.7 1711.5 686.9 1658.3 715.2 1673.8 765 Z" data-holc_grade="C"/>
<path d="M 978.6 998.6 889.5 1082.6 903.4 1092 992.8 1007.3 1043.2 1038.1 1084 1063 1131.1 1091.8 1188.1 1035.9 1201.2 1042.3 1203 1049.3 1247.3 1051.2 1248.8 1116.2 1240.8 1120.7 1239.3 1139.9 1230.6 1186.5 1226.6 1189.1 1214.6 1185.2 1196.8 1183.8 1194.4 1132.2 1147.2 1175.8 1137.7 1179.7 1104 1173.6 1092.7 1176.1 1086.9 1163.9 1087.6 1147.2 1072.4 1136.4 1080.4 1118.6 1081.8 1101.1 1075.3 1097.5 1006 1163.6 1002 1160.3 979.4 1181.1 991.8 1188.9 964.6 1215 979.1 1224.5 1002 1203.6 1089.8 1254.5 1105.8 1237.8 1111.2 1240.1 1131.2 1221.1 1131.2 1217.3 1164.2 1187 1175.5 1188.1 1190.4 1189.9 1183 1196.8 1202.6 1208.8 1202.3 1240.2 1180.2 1250.1 1156.5 1263.9 1157.2 1266.5 1168.1 1276.9 1176.5 1290.3 1181.8 1311.5 1153.7 1332.6 1149.7 1350.8 1141.5 1360.9 1097.9 1391.1 1075.2 1403.4 1070.3 1394.1 994.3 1326.9 985.9 1318.3 936.7 1277.2 970.5 1244.3 949.2 1231 957.6 1222.7 944.5 1213.8 974.3 1186 892.2 1134.9 915.8 1112.1 873 1084.3 919.1 1039 898.1 1007 886.1 981.4 876.6 968.9 873 967.3 804 1030.1 796 1024.2 871.9 954.8 883.2 962.3 903.5 993.1 930 968.9 978.6 998.6 Z M 1200.9 1056.3 1197.6 1096.6 1212.9 1093 1239.7 1080.5 1240.1 1057.4 1200.9 1056.3 Z M 962.1 1108.9 954.5 1094.6 909.8 1134.6 924.9 1143.5 962.1 1108.9 Z M 975.7 1291.8 1020.2 1318.8 1059.4 1281.7 1012 1255.1 975.7 1291.8 Z M 709.6 801.9 750.5 761.2 777.2 780.6 776.6 798.7 778.5 814.1 784.9 831.9 791.1 841.5 797.1 850.8 803.3 867.3 791.7 861.1 779.1 852.5 771 844.2 766.2 836.8 709.6 801.9 Z" data-holc_grade="C"/>
<path d="M 557.1 1173 558.6 1173.6 562.5 1175.1 587.7 1184.3 616.7 1215.5 657.4 1250.7 673.3 1269.2 686.4 1301.5 691.2 1315.6 701.4 1310.7 735.3 1356.7 734.8 1369.7 730.9 1377.8 715.4 1382.3 700 1386.7 701.4 1395.6 696.1 1394.5 609.9 1283.3 558.6 1232.2 571.2 1222.5 563.5 1215.1 546 1222.1 542.6 1219.9 520.4 1230.7 470.5 1154.3 506.8 1121.3 529.1 1152.8 544.1 1168 557.1 1173 Z" data-holc_grade="C"/>
<path d="M 1264.7 1459.1 1235.8 1568.9 1193.8 1562.9 1198.9 1531.9 1149 1525.4 1129.7 1511.4 1107.4 1490.3 1086.6 1463.6 1135 1442.8 1264.7 1459.1 Z M 855.4 1411.5 898.7 1449.5 911.8 1442 967 1456.5 1032 1425.6 1073.3 1467 1029.4 1480.7 1021.8 1485.4 1115.8 1512.6 1127.8 1518.8 1156.1 1531.8 1171.7 1544.9 1185.2 1556.3 1190.2 1567.4 1187.3 1587.5 1146 1603.3 1138.3 1602.5 1141.6 1588 1119.1 1584.4 1114.7 1599.7 1101.3 1597.7 1097.7 1615.3 986.2 1601.1 986.3 1600.8 989.5 1584.7 972.4 1581.3 991.3 1568.5 997.5 1538.2 971.7 1534.1 973.5 1519.6 957.2 1517.9 932.1 1525.2 921.2 1534.1 904.2 1546.6 900.2 1531.6 898 1519.3 894.7 1498.7 888.2 1486.5 861 1487.1 854.4 1480.4 839.6 1472.3 808.3 1461.8 802.2 1444.5 815.2 1428.1 807.2 1425.3 831.4 1409 837.4 1415 845.7 1420.1 850.8 1419.2 853 1413.1 855.4 1411.5 Z" data-holc_grade="C"/>
<path d="M 1235.3 1313.6 1264 1317.3 1297.5 1321.7 1293.6 1336.9 1373.5 1347 1372.5 1349.3 1367.9 1352.3 1359.4 1356 1348.8 1359.4 1338.4 1361 1325.5 1361.6 1308.6 1360.7 1307.4 1399.9 1361.8 1423.7 1364.3 1422.4 1380.3 1347.8 1422.6 1353.1 1493.6 1362.1 1485.3 1410.7 1433.1 1404.3 1402.6 1400.7 1388.5 1469.2 1286.9 1516.3 1299.1 1545.8 1299.9 1547.8 1250.1 1566.8 1294.1 1370.3 1282.2 1367.9 1237.6 1362.4 1224.1 1366.8 1213.4 1351.6 1196.5 1333.1 1214.9 1247.5 1209.5 1240.1 1228.3 1235 1235.6 1234.2 1217.7 1311.3 1235.3 1313.6 Z" data-holc_grade="C"/>
<path d="M 1433.1 1404.3 1416.5 1479.7 1467.8 1484.9 1465.9 1501.2 1506 1500.9 1545.7 1507.5 1552.5 1521.3 1615.9 1530.5 1618.3 1519.4 1725.8 1533.9 1729.7 1519.8 1722.4 1516.4 1721 1506 1716.1 1497.9 1826 1494.6 1652.7 1589.5 1340 1550.9 1299.1 1545.8 1286.9 1516.3 1388.5 1469.2 1402.6 1400.7 1433.1 1404.3 Z" data-holc_grade="C"/>
<path d="M 1948.5 1211.8 1937.7 1214.3 1867.3 1252.6 1829.1 1205.2 1807.8 1187.8 1748.3 1246 1722.2 1253.8 1695.5 1231.1 1705.7 1228.2 1713 1223 1717.3 1215.2 1702.3 1191.9 1729.9 1180.7 1752.6 1161.1 1796.2 1123.3 1948.5 1211.8 Z" data-holc_grade="C"/>
<path d="M 2687.9 1143.9 2662.4 1124.2 2624.6 1093.3 2623.4 1091.6 2633.3 1083.8 2667.7 1055.7 2718 1021 2713.4 1005.8 2717 974.3 2711.7 947.8 2729.4 940.4 2782.4 883 2858.9 924.5 2875.6 930.4 2895.2 934.1 2903.2 939.5 2952 912.8 2976.5 903 2989.8 900.4 2994.2 901 2993.7 934.9 2999 945.8 2976.2 966.7 2964.9 969.1 2956.4 974.9 2957.1 979.7 2891.5 1021.9 2823.8 962.1 2795.9 970.6 2757.5 995.6 2828.9 1060.5 2792.1 1083.8 2753.1 1105.4 2735.5 1117.6 2687.9 1143.9 Z" data-holc_grade="C"/>
</g>
<g id="D">
<path d="M 1605.6 199.8 1594.7 230.6 1576.2 243.4 1526.4 264.2 1522.9 215.4 1532 206.2 1501.8 176 1532.8 147 1543.3 153.4 1576.2 164 1561.7 178.7 1605.6 199.8 Z" data-holc_grade="D"/>
<path d="M 1655.1 1787.2 1610.8 1739.2 1625 1719.3 1914.7 1571.5 1926.4 1565.5 1938 1573.3 1944.3 1580 1953.5 1578.9 1987.9 1620.4 1904.6 1662.7 1962.2 1727.2 1901.2 1751.7 1850.4 1747.6 1809.3 1767.6 1788 1745.4 1776.3 1749.1 1768.6 1744.6 1752.1 1751.3 1744.9 1758.7 1727 1764.7 1727 1772.8 1707.1 1782.1 1695 1768.4 1671.8 1778.8 1655.1 1787.2 Z" data-holc_grade="D"/>
<path d="M 1312.5 1706.2 1225 1695.2 1235.2 1648.8 1250.2 1651.4 1257.9 1615.5 1241.5 1612.5 1247.8 1584.3 1340 1550.9 1652.7 1589.5 1465.6 1692.6 1458.8 1724.5 1312.5 1706.2 Z" data-holc_grade="D"/>
<path d="M 1047 1921.1 1055.4 1886.8 1060.1 1887.4 1063.8 1865.5 1039.1 1862.2 994.9 1856.7 1000.4 1834.4 936.3 1826.1 986.2 1600.8 986.3 1600.8 986.2 1601.1 1097.7 1615.3 1096.9 1628.2 1000.3 1675.8 1013 1688 1022.4 1684.1 1031.9 1684.4 1036.6 1669.1 1060.9 1656.6 1072.5 1658.5 1148.8 1619.3 1177.1 1608.7 1215.6 1613.5 1212.3 1629.6 1222.1 1630.7 1221.4 1640.2 1156.4 1935.1 1047 1921.1 Z M 1000.6 1832.8 1014.5 1835.2 1103 1823.8 1094.1 1807.6 998.8 1817.1 1000.6 1832.8 Z" data-holc_grade="D"/>
<path d="M 1039.1 1862.2 1038.2 1885.5 1055.4 1886.8 1047 1921.1 1016.6 1917 917.8 1834 910.6 1819.8 902.9 1804.4 891.1 1800.1 883.7 1792.9 879.9 1782.7 880.6 1766.5 888.9 1733.1 910.6 1624.6 902.5 1612.5 896.5 1596.4 897.1 1583.1 894.8 1571.2 972.4 1581.3 989.5 1584.7 986.3 1600.8 986.2 1600.8 936.3 1826.1 1000.4 1834.4 994.9 1856.7 1039.1 1862.2 Z" data-holc_grade="D"/>
<path d="M 1312.5 1706.2 1266.7 1922.9 1261.3 1944.8 1172.3 1938.5 1225 1695.2 1312.5 1706.2 Z" data-holc_grade="D"/>
<path d="M 1458.8 1724.5 1452.1 1755.8 1451.6 1758.2 1439 1815.4 1438 1914.4 1441.2 1916.5 1447.7 1920.7 1412.4 1948.2 1407 1958.6 1261.3 1944.8 1266.7 1922.9 1312.5 1706.2 1458.8 1724.5 Z" data-holc_grade="D"/>
<path d="M 1610.8 1739.2 1655.1 1787.2 1635.8 1792.8 1611.1 1806.5 1592.7 1821.3 1565.1 1848.8 1533 1858.7 1511.9 1874.1 1486.8 1893.6 1462.1 1904.2 1450.5 1909 1441.2 1916.5 1438 1914.4 1439 1815.4 1451.6 1758.2 1452.1 1755.8 1466 1762.5 1482 1753.8 1530.2 1734.9 1582 1708.2 1610.8 1739.2 Z" data-holc_grade="D"/>
<path d="M 1054 2439.7 1054.9 2426.8 1075.8 2429.3 1078.5 2425.7 1081.1 2407.5 1069.5 2401.6 1099.5 2264.6 1138 2090.4 1139.9 2082 1352.3 2106.6 1328.1 2219.3 1320.8 2241.6 1274.3 2470.3 1154.5 2451.3 1054 2439.7 Z" data-holc_grade="D"/>
<path d="M 999.5 2064.2 991.4 2100.9 1091 2113.1 1099.7 2077.2 1126.2 2080.5 1103.1 2185.6 1076.5 2182.6 1062.2 2245.2 1047.2 2244.1 1037 2279.5 934.2 2266.7 924.7 2277.8 918.2 2284.7 883.8 2294 843.7 2308.1 835.1 2312.3 800.6 2277.1 719.6 2266.3 732.4 2237 760 2243.8 777.6 2196.9 736 2188.7 734.8 2173.9 751.3 2176.7 756.6 2164.8 791.9 2170.5 809.1 2161.6 837.2 2157.7 850 2152 904.5 2119.5 930.1 2137.9 960.6 2120.4 964.5 2116.9 910.5 2110 967.6 2060 999.5 2064.2 Z" data-holc_grade="D"/>
<path d="M 1054.9 2426.8 1054 2439.7 985 2431.8 972.9 2425.3 980.8 2389.6 895.5 2379.8 843.7 2321.1 835.1 2312.3 843.7 2308.1 883.8 2294 918.2 2284.7 924.7 2277.8 934.2 2266.7 1037 2279.5 1047.2 2244.1 1062.2 2245.2 1076.5 2182.6 1103.1 2185.6 1088.6 2251.3 1056.7 2396.4 1046.8 2401.4 1040 2422 1044.4 2425.6 1054.9 2426.8 Z" data-holc_grade="D"/>
<path d="M 1128.1 348.6 1081.6 397 1120.5 438.8 1124 444.5 1164.6 467.2 1153 483.2 1122.8 483.6 1121.6 455.2 1101.3 434.8 1026.4 390.3 1014.8 380.1 1075.8 316.2 1128.1 348.6 Z" data-holc_grade="D"/>
<path d="M 850.5 2036.2 852.8 2035.1 855 2018.7 706.5 2000.1 513.7 1975 393.6 1961.1 395.8 1946.6 294.1 1934.9 261.4 1897.4 249.7 1897 237 1880.1 207.9 1875.6 212.6 1860.5 306.7 1872 310.2 1856.5 351.4 1861.4 374 1858.7 367.1 1831.5 503.6 1816.4 496.6 1785.2 564 1814.2 594.2 1832 644.7 1825.3 635.4 1789.2 566.3 1764.3 561.1 1769.7 529.1 1757.2 521 1767.4 514 1765.7 507.6 1773.2 496.6 1774.6 483.8 1770.1 479.8 1758.5 488.5 1730.5 499.5 1732.3 506.5 1741.6 514.6 1743 528 1740.3 731.9 1814.2 774.3 1809.7 776.6 1830.6 767.9 1840.4 729.5 1843.6 732.4 1863.1 747 1861.8 749.3 1869.8 777.7 1867.1 778.9 1870.7 789.4 1868.5 858.5 1889 895.7 1905.4 900.3 1917.5 907.3 1955.7 902.6 1957.5 902.6 1966.4 894.5 2002.9 900.9 2011.8 895.7 2041.7 850.5 2036.2 Z M 592.1 1835.1 583 1830 532.2 1841.2 537.2 1860.7 593.9 1854 592.1 1835.1 Z M 574.9 1967.5 709.5 1985.1 701 1936 676.8 1937.6 648.4 1933.6 608.5 1936.2 567 1924.1 574.9 1967.5 Z" data-holc_grade="D"/>
<path d="M 684.7 2109.4 702.5 2127.8 691.3 2133.9 697.4 2142 633.2 2186.5 593.6 2150.6 669.5 2095.5 684.7 2109.4 Z" data-holc_grade="D"/>
<path d="M 335 2435.8 260.2 2488.2 259.3 2475.9 249.6 2470.3 250.1 2463.6 281.5 2442.5 289.8 2432.1 289.3 2417.2 301.9 2409.1 297.5 2400.2 302.8 2393.5 291.7 2378.2 299.4 2351.5 305.7 2343 354.6 2317.4 398.7 2358.9 368.2 2378.6 388.5 2397.6 335 2435.8 Z M 504 2418 485.3 2421.9 405.1 2429.3 435 2409.4 447.1 2419.5 504.7 2383.1 439.8 2327 465 2308.8 435 2281 410.8 2276.9 443.4 2254.5 462.1 2241.6 491.1 2263.5 459.2 2285.4 479.5 2301.4 496.9 2290.6 502.7 2294.4 550.7 2257.6 572.9 2244.2 590.8 2256.9 556.9 2308.5 574.9 2315.9 504 2418 Z" data-holc_grade="D"/>
<path d="M 260.2 2488.2 335 2435.8 405.1 2429.3 485.3 2421.9 504 2418 552.5 2408 499.5 2582.3 322.3 2774.5 306.4 2786.7 273.7 2767.8 273 2789.5 234.8 2783.7 226.1 2807.1 197.4 2799.6 193.8 2805.7 152.1 2794.5 134.6 2697.6 194.2 2633.3 197.4 2618.8 197.4 2604.3 212.3 2585.1 205.1 2579.5 204.3 2566.7 245.4 2526.6 213.8 2508.2 225.8 2495.4 238.8 2494 250.8 2494.6 260.2 2488.2 Z" data-holc_grade="D"/>
<path d="M 1374.7 897.8 1344.3 880.7 1351.3 870.9 1322.3 853.1 1347 830.9 1382.3 851.6 1364.9 871.3 1388.1 884.2 1374.7 897.8 Z" data-holc_grade="D"/>
<path d="M 1196.8 1183.8 1190.4 1189.9 1175.5 1188.1 1164.2 1187 1131.2 1217.3 1131.2 1221.1 1111.2 1240.1 1105.8 1237.8 1089.8 1254.5 1002 1203.6 979.1 1224.5 964.6 1215 991.8 1188.9 979.4 1181.1 1002 1160.3 1006 1163.6 1075.3 1097.5 1081.8 1101.1 1080.4 1118.6 1072.4 1136.4 1087.6 1147.2 1086.9 1163.9 1092.7 1176.1 1104 1173.6 1137.7 1179.7 1147.2 1175.8 1194.4 1132.2 1196.8 1183.8 Z M 992.8 1007.3 903.4 1092 889.5 1082.6 978.6 998.6 992.8 1007.3 Z" data-holc_grade="D"/>
<path d="M 962.1 1108.9 924.9 1143.5 909.8 1134.6 954.5 1094.6 962.1 1108.9 Z" data-holc_grade="D"/>
<path d="M 1200.9 1056.3 1240.1 1057.4 1239.7 1080.5 1212.9 1093 1197.6 1096.6 1200.9 1056.3 Z" data-holc_grade="D"/>
<path d="M 975.7 1291.8 1012 1255.1 1059.4 1281.7 1020.2 1318.8 975.7 1291.8 Z" data-holc_grade="D"/>
<path d="M 696.1 1394.5 681.1 1388.6 664.1 1385.6 653.5 1377.8 629.3 1350 600.7 1328.9 586.7 1315.6 558.6 1295.9 515 1280.7 490.8 1272.9 475.8 1257 425 1216.2 415.3 1200.3 429.4 1188.6 470.5 1154.3 520.4 1230.7 542.6 1219.9 546 1222.1 563.5 1215.1 571.2 1222.5 558.6 1232.2 609.9 1283.3 696.1 1394.5 Z" data-holc_grade="D"/>
<path d="M 1075.2 1403.4 1077.4 1411.7 1078.4 1425.8 1095.8 1442.1 1201.3 1396.5 1168.9 1353.9 1174.7 1343.1 1173.2 1336.1 1184.9 1319.4 1181.8 1311.5 1176.5 1290.3 1168.1 1276.9 1157.2 1266.5 1156.5 1263.9 1180.2 1250.1 1202.3 1240.2 1209.5 1240.1 1214.9 1247.5 1196.5 1333.1 1213.4 1351.6 1224.1 1366.8 1237.6 1362.4 1282.2 1367.9 1264.7 1459.1 1135 1442.8 1086.6 1463.6 1036.7 1412.1 1070.3 1394.1 1075.2 1403.4 Z" data-holc_grade="D"/>
<path d="M 2052.8 1455.8 2053 1456 1960.5 1478.9 1960 1479 1955.7 1469.5 1911.6 1488.1 1906.8 1503.8 1899 1512.2 1890.8 1510.3 1876.3 1505.8 1867 1501.8 1863 1493.4 1870.5 1480.9 1867 1472.9 1860.5 1467.2 1837.7 1455.7 1840.4 1447.4 1858.3 1428.5 1858.5 1422 1846.4 1405.6 1854 1402.4 1869.7 1382.4 1866.8 1372 1868 1367.2 1961 1416.3 1971.4 1406.9 1978.9 1404.6 2007 1375.7 2035 1391.1 2019.1 1417.6 2023.7 1438.4 2029.5 1436.5 2041.1 1449.9 2047.9 1449.9 2052.8 1455.8 Z" data-holc_grade="D"/>
<path d="M 2572.5 1166.8 2545.1 1181.7 2540 1168.3 2557.9 1158.5 2559.1 1150.4 2557.2 1140 2549 1124.8 2583.6 1108.1 2587.5 1109.2 2577 1141.1 2570.5 1154.3 2572.5 1166.8 Z" data-holc_grade="D"/>
<path d="M 1914.7 1571.5 1625 1719.3 1610.8 1739.2 1582 1708.2 1530.2 1734.9 1482 1753.8 1466 1762.5 1452.1 1755.8 1458.8 1724.5 1465.6 1692.6 1652.7 1589.5 1826 1494.6 1867 1472.9 1870.5 1480.9 1863 1493.4 1867 1501.8 1876.3 1505.8 1843.8 1536.5 1833.9 1548.1 1805.5 1562.8 1815.9 1576.6 1857.8 1558.3 1875.8 1555.7 1908.9 1565.9 1914.7 1571.5 Z" data-holc_grade="D"/>
</g>
</svg>