<?xml version="1.0"?>
<svg xmlns="http://www.w3.org/2000/svg" version="1.2" baseProfile="tiny" width="3000" height="3651" viewBox="0 0 3000 3651" stroke-linecap="round" stroke-linejoin="round">
<g id="A">
<path d="M 1552.5 534.5 1566 538.4 1591.2 526.4 1656.9 442.4 1721.6 359.8 1741.9 373.7 1729.9 391.5 1825.6 470.5 1840.1 494 1840.1 505.6 1852.2 524.4 1859.9 543.6 1788.4 560.5 1740.1 580.3 1676.7 606.8 1562.2 755.6 1553.5 722.8 1529.3 724.8 1525.4 653.5 1473.7 667 1445.7 681.9 1439.4 675.2 1424.9 669.9 1421.5 659.3 1432.1 639.5 1462.1 604.4 1474.7 590.9 1498.3 572.6 1502.2 559.6 1501.7 547.1 1553 557.2 1552.5 534.5 Z" data-holc_grade="A"/>
<path d="M 1497.1 1021.1 1508.7 1076 1515.4 1113 1519.3 1148.7 1519.9 1160 1516.6 1184.7 1510.5 1202 1496.6 1231.9 1489.4 1243.4 1484.7 1252.7 1418.9 1198.8 1435.2 1162.6 1443.2 1112.8 1448.2 1087.1 1451.5 1076.6 1470.7 1053.5 1437.7 1028.2 1459.4 996.4 1454.3 983.5 1478.9 973.6 1496.6 1018.5 1497.1 1021.1 Z" data-holc_grade="A"/>
<path d="M 886.3 1051.5 889.8 1054.3 958.1 1108.9 958.1 1109 981.3 1127.5 1057.9 1183.7 1057.9 1183.8 1044.6 1200.4 1019.9 1225.2 1005.6 1230.5 1000.5 1227.1 964.5 1207.1 926.7 1253.8 895.8 1230.7 903.5 1225.4 910.1 1212.6 819.9 1141 886.3 1051.5 Z" data-holc_grade="A"/>
<path d="M 782.9 1358 773.6 1357.1 769.6 1369.1 752.7 1393.8 750.7 1397.7 747 1407.7 745.1 1416.8 742.1 1424.2 733.9 1432.8 756.7 1458.2 759.8 1448.9 762.8 1441 769.8 1432.4 772 1437.8 790.4 1454.4 802.8 1461.3 816.7 1463.1 824 1467.3 829.1 1475.5 830.3 1490.8 835.5 1498.7 844.8 1502.3 855.1 1502.3 856.9 1515.9 862.7 1527.3 866.9 1524.6 855.3 1536 843.6 1552.1 881.6 1592.9 882.6 1597.9 863.4 1610.2 852.3 1599.3 826.9 1595.2 805.9 1585.6 794.5 1576.4 787.3 1531.6 782.4 1527.2 767.2 1525.3 744.5 1506.9 740.1 1517.5 728.3 1513.4 719.6 1501.4 715 1484.3 719.6 1475.6 726.6 1468.4 730 1456.8 730.7 1442.4 723.2 1446.2 708.5 1468.4 699 1470.3 691 1465.7 687.2 1455.8 689.1 1442.8 682.1 1442.5 672.2 1423.3 673.4 1410 678.8 1407.4 677.5 1400.9 672.7 1397.5 666.2 1388.3 673.7 1381.1 674.2 1377 669.6 1370.2 668.9 1358.4 675.2 1351.7 684.4 1340.4 682 1331.2 685.4 1324.5 712.5 1321.6 717.8 1316.6 727.2 1299.9 737.2 1291.8 748.7 1278.9 757.8 1256.9 761.2 1235.5 772.7 1203.3 775.7 1208.7 774.5 1230.1 777.6 1237.1 782.4 1243.2 790 1264 815.3 1286 774.5 1338.1 789.9 1353.5 789.9 1356.5 782.9 1358 Z M 909.3 894.1 825.4 1003.5 657.6 872.9 623.5 915.9 684.7 961.8 640 1022.9 668 1042.8 660 1054.7 658.5 1067 736.1 1126.6 738.6 1141.5 750.2 1156.3 763.7 1170.4 753.8 1205.2 747.3 1220.9 745.9 1227.2 747.5 1239.5 746.9 1257.3 739.4 1280.4 719 1292.2 701.1 1304 678.8 1307.1 670.4 1311.9 664.6 1305.9 673.3 1296.5 656.4 1279.6 649.1 1286.4 642.3 1280.1 633.6 1285.9 593 1244.9 560.2 1170.6 582 1132.1 569.9 1110.4 546.3 1075.2 555 1060.3 558.4 1053.6 581.6 1060.3 601.9 1058.4 612.6 1056 616.9 1047.8 598.1 1019.4 582.1 1011.2 537.2 973.6 528.5 965.4 524.7 950 514.5 935 504.8 925.4 489.9 927.8 482.6 925.3 478.3 915.2 492.8 908 507.3 898.9 518.4 887.8 530 884.5 533.4 873.9 535.9 858.5 533 854.1 518 850.7 502.5 849.7 491.9 841.1 533 790.5 576.1 811.3 591.5 803.6 609.9 803.1 612.8 790.6 634.6 793.5 632.1 810.4 646.1 841.2 671.8 831.1 677.6 847 693.1 829.7 737.5 867.3 738 883.7 748.6 899.6 772.8 914.5 780 905.9 801.3 921.8 823.6 890 845.3 909.3 873.4 866 909.3 894.1 Z" data-holc_grade="A"/>
<path d="M 1504.5 1394.8 1501 1417.5 1471.4 1413 1437 1412 1425.8 1412 1420.1 1404.8 1353.5 1393 1366.9 1303.9 1418.9 1198.8 1484.7 1252.7 1475.3 1277.1 1451.1 1323.8 1513.7 1335 1504.5 1394.8 Z" data-holc_grade="A"/>
<path d="M 1638.5 1565.8 1436.7 1532.1 1436.7 1529.5 1437.3 1463.8 1437 1412 1471.4 1413 1501 1417.5 1504.5 1394.8 1594.9 1410.4 1591.9 1430.6 1656.3 1442.3 1655.4 1451.4 1635.1 1475.5 1629.7 1478.2 1621.5 1495.4 1638.8 1515.9 1646.9 1547.5 1645.7 1554.4 1638.5 1565.8 Z" data-holc_grade="A"/>
<path d="M 937.7 1660.7 986.8 1714.2 878.2 1806.3 877.1 1816.4 856.2 1835.2 853.8 1837.4 851.7 1845.3 846.6 1846.4 838.2 1839.9 832.2 1832 830.2 1829.4 825.2 1809.2 824.8 1796.1 834.6 1777.3 832.5 1774.8 812.5 1792.5 790 1818.2 763.8 1796.5 768.9 1776.6 785.3 1753.8 819.1 1718.4 847 1697.4 842.7 1690.9 893.5 1643.6 882.7 1629.9 893.2 1624.8 895.7 1615 937.7 1660.7 Z" data-holc_grade="A"/>
<path d="M 139.8 2311.9 117.2 2332.1 89.2 2307.8 76.6 2296.9 67.4 2279.5 118.8 2253 168.7 2221.3 173.6 2229 176 2242.5 170.6 2257.9 164.8 2274.3 165.7 2289.8 155.1 2294.1 147.8 2304.7 139.8 2311.9 Z M 308.8 2211.2 315.9 2221 304.3 2230.1 238.9 2274.9 220.4 2302.9 202 2313.5 196.2 2288.4 194.8 2265.2 202.6 2258 174.5 2215 197.3 2189.5 242.9 2162.5 374.2 2084.6 390.2 2108.7 390.2 2128.9 365 2127.5 348.5 2136.6 363 2163.2 301.9 2201.7 308.8 2211.2 Z" data-holc_grade="A"/>
<path d="M 565.1 1966.1 447.4 2043.2 374.2 2084.6 242.9 2162.5 158.3 2046.6 188.6 2019.2 200.7 2013.2 250.1 1974.7 247.7 1962.7 254.6 1950.9 280.1 1927.7 149.3 1864 101.8 1836.8 64.8 1836 38.6 1845.8 30.3 1829.5 34 1808.5 68.5 1795.5 112.8 1784.8 131.3 1783 133.1 1819.9 154.9 1808.7 172.7 1795.7 187.6 1793.6 215.5 1797.9 243.8 1813.9 253.2 1813.5 291.8 1794.4 304.8 1792.3 323 1794.5 333.9 1801.7 362.6 1792.3 374.9 1799.6 384.7 1792.7 399.6 1792.4 425 1783.7 440.6 1787 447.5 1793.5 450.4 1805.1 443.5 1814.5 449.6 1823.2 468.5 1814.2 475.4 1820 503.8 1867.4 534.6 1916.6 585.8 1858.2 581.2 1844.3 618.8 1814.2 652 1842.9 679.6 1861.3 698 1882.4 638 1920.6 565.1 1966.1 Z" data-holc_grade="A"/>
<path d="M 1375.7 1167.4 1389.1 1149.8 1365.9 1132.9 1383.3 1107.4 1348 1080.4 1323.3 1109.3 1352.3 1132.4 1345.3 1145.2 1078.3 948.6 1078.3 948.5 1062.2 935.4 1167.1 787.3 1179.1 798.7 1208.5 766.8 1238.4 729.8 1287.9 770.2 1296.1 764.4 1314.5 769.6 1322.7 781.3 1331.2 784.3 1342 781.6 1356.8 794.9 1364.7 809 1365 816.2 1351.7 823.1 1354.4 836.1 1366.2 842.7 1376.2 865.9 1392.8 863.5 1400.4 876.4 1433 865.3 1407.6 800.3 1474.1 846.6 1488.6 833.7 1511.3 819.2 1529.4 804.8 1515.5 852.1 1523.4 860.5 1534.5 863.5 1545.4 870.7 1546.3 880.7 1537.6 893 1576.1 923 1589.9 932.2 1576.9 949.8 1568.4 953.4 1564.4 966.1 1548.9 974.8 1515.2 1000.6 1497.1 1021.1 1496.6 1018.5 1478.9 973.6 1454.3 983.5 1459.4 996.4 1437.7 1028.2 1470.7 1053.5 1451.5 1076.6 1448.2 1087.1 1443.2 1112.8 1435.2 1162.6 1418.9 1198.8 1375.7 1167.4 Z" data-holc_grade="A"/>
</g>
<g id="B">
<path d="M 89.2 2307.8 22.7 2354.7 1 2319.4 67.4 2279.5 76.6 2296.9 89.2 2307.8 Z" data-holc_grade="B"/>
<path d="M 1695.4 290.4 1691.7 277.9 1694.5 256.8 1722.1 227.9 1661.7 185.5 1640.4 241.8 1658.3 273.1 1661.7 305.9 1623 329.5 1572.8 365.1 1535.6 386.7 1459.2 420.9 1497.4 450.8 1489.2 462.8 1467.6 490.1 1426.4 453.1 1404.4 453.7 1301.7 494.7 1311 513.2 1340 532.8 1350.2 547.3 1330.6 571.6 1317.1 552.3 1250.4 511.9 1273.2 480.9 1414.2 427.1 1428.7 398.6 1316.7 317.7 1333.4 296 1360.2 315.9 1376.5 299.3 1410.2 310.1 1429.1 290.6 1439.2 296 1466 263.2 1515.7 293.5 1481.6 336.8 1463.1 362.5 1491.4 379.1 1514.6 350.2 1527.2 343.3 1576.9 316.2 1595.4 299.6 1606.3 259.5 1639.3 138.3 1640.8 136.1 1690 67.5 1696.1 52.7 1737.4 80.1 1731.3 89.2 1751.6 106.5 1727.3 141.9 1785.3 183 1785.3 187.3 1764.3 218 1754.5 227 1753.4 240 1747.6 257.4 1737.1 265.7 1695.4 290.4 Z" data-holc_grade="B"/>
<path d="M 2494.8 1485.9 2388.7 1536.3 2333.4 1577.7 2315.6 1585.6 2268.1 1602.7 2238.8 1631.3 2226.9 1622.6 2311.3 1508.8 2243.3 1456.1 2281.7 1410.5 2291.6 1424.9 2309.3 1444 2339.6 1465.9 2352.4 1477.7 2360.4 1487.5 2365.5 1474.3 2415.3 1444.3 2432.7 1420.5 2447.4 1429.1 2454 1429.4 2465.3 1426.7 2486.9 1414.4 2486.1 1399 2490.2 1385.2 2497.7 1379.4 2513.4 1378 2538.8 1383.2 2545.4 1383 2564.7 1369.2 2580.2 1370.2 2591.8 1379.1 2597.6 1390.6 2595.5 1420.3 2588 1441.7 2584.1 1440.3 2573.9 1411.4 2550.3 1425.9 2492.2 1454.9 2506.5 1480.9 2494.8 1485.9 Z" data-holc_grade="B"/>
<path d="M 2520.3 1556.2 2444.5 1611.6 2448.2 1621 2367.6 1677.1 2315.6 1585.6 2333.4 1577.7 2388.7 1536.3 2494.8 1485.9 2509.1 1516.3 2503 1519.3 2520.3 1556.2 Z" data-holc_grade="B"/>
<path d="M 2109.6 1774.5 2089.3 1743.7 2146.4 1705.1 2126.1 1677.6 2116.9 1669 2208.8 1650.6 2238.8 1631.3 2268.1 1602.7 2298.3 1646.8 2109.6 1774.5 Z" data-holc_grade="B"/>
<path d="M 1952.8 1605.6 1943.7 1611.4 1939.4 1646.5 1948.5 1699.6 1949.2 1761.5 1880.6 1713.4 1875.9 1717.8 1865.3 1710.2 1847.2 1731.9 1819.1 1674.1 1820.6 1672.6 1830.7 1677.3 1845.3 1675.5 1881.9 1651.3 1868.1 1628.8 1938.5 1578.9 1949.3 1575.7 2047 1546.3 2061.9 1555.7 2067.3 1571.6 1952.8 1605.6 Z" data-holc_grade="B"/>
<path d="M 1418.9 1198.8 1366.9 1303.9 1353.5 1393 1420.1 1404.8 1425.8 1412 1437 1412 1437.3 1463.8 1436.7 1529.5 1436.7 1532.1 1638.5 1565.8 1667.3 1611.8 1666.8 1620.3 1641.6 1656 1644.5 1664.4 1644.3 1677.6 1652 1687.8 1650.1 1694.3 1649.8 1709.2 1637.8 1728.5 1645.5 1730.4 1697.3 1740.1 1705.3 1737.4 1716.2 1756.9 1708.7 1763.4 1704.8 1763.4 1698.3 1797.2 1623 1792.9 1614.3 1806.4 1591.1 1822.3 1588.6 1764.2 1570.2 1763.5 1571.2 1775 1548.9 1764.9 1541.4 1777.9 1494.5 1771.3 1423.5 1759.6 1381.2 1752.7 1374.4 1751.6 1294.6 1738.5 1298.4 1718.7 1264.9 1713 1269.1 1685.3 1243.6 1680.6 1240 1683 1236.2 1708.2 1218.6 1705.2 1236.5 1604.9 1245.5 1604.8 1283.1 1611.7 1290 1575.3 1286.7 1566.6 1288.5 1547.6 1326.6 1554.2 1335.1 1505.1 1295.2 1506 1295.8 1491.5 1299.7 1486.7 1295.2 1484.3 1284.6 1487.9 1270.1 1475.6 1280.7 1460.8 1281 1454.2 1273.1 1457.8 1266.5 1461.7 1257.1 1454.2 1249.7 1451.5 1248.3 1366.9 1204 1364.3 1202.2 1355.3 1205.1 1292.1 1191.5 1281.8 1255.6 1244.5 1310.5 1247.4 1360.5 1250 1375.7 1167.4 1418.9 1198.8 Z M 1365.9 1541.6 1402.1 1546.2 1403.9 1534 1337.7 1513.4 1334 1539.2 1365.9 1541.6 Z M 1420.7 1541.6 1408.9 1556.2 1392.2 1571.1 1422.2 1574.7 1426.9 1542.9 1420.7 1541.6 Z" data-holc_grade="B"/>
<path d="M 1847.3 1827.9 1859.5 1849.1 1859.2 1857.5 1841.3 1882.1 1838.7 1893 1861.4 1907.9 1868 1915.3 1827 1943.5 1717.1 1947.9 1695.1 1948.7 1716.2 1827.9 1816.6 1845.7 1821.7 1810.5 1829.2 1817.5 1837.9 1819.7 1845.4 1824.5 1847.3 1827.9 Z" data-holc_grade="B"/>
<path d="M 912.6 1875 899.6 1884.8 856.2 1835.2 877.1 1816.4 878.2 1806.3 986.8 1714.2 995.2 1725.4 988.6 1735 965.9 1762.4 970.1 1784.1 987.6 1795.3 1008.8 1822.7 991.5 1835.9 942.9 1784.4 909.9 1812.4 952.8 1864.6 944.9 1871.2 912.6 1875 Z" data-holc_grade="B"/>
<path d="M 658.4 1626 617.8 1580.2 588.8 1539.6 563.6 1527.6 559.8 1525.6 558.2 1524.9 621.3 1485.7 630.5 1489.5 640.1 1504.5 652.7 1511.3 663.3 1527.2 682.2 1543.1 688.9 1569.1 693.7 1603.4 658.4 1626 Z" data-holc_grade="B"/>
<path d="M 308.8 2211.2 301.9 2201.7 363 2163.2 348.5 2136.6 365 2127.5 390.2 2128.9 390.2 2108.7 374.2 2084.6 447.4 2043.2 565.1 1966.1 579.6 2037.5 563.6 2040.9 548.6 2050 532.1 2064.5 528.2 2074.6 512.7 2074.6 494.8 2085.7 504.9 2107.9 501 2150.8 502 2169.6 506.3 2179.2 497.6 2214 491.7 2221.7 423.9 2240.4 392.5 2224 308.8 2211.2 Z" data-holc_grade="B"/>
<path d="M 403.5 2271.7 411.7 2332.5 360.8 2339.7 364.2 2360.9 349.2 2362.9 352.6 2380.7 298.8 2388.8 293 2385.5 285.8 2350.2 243.1 2357.9 239.3 2330.4 226.2 2339.5 205.4 2346.3 202 2313.5 220.4 2302.9 238.9 2274.9 304.3 2230.1 314.5 2232.6 403.5 2271.7 Z" data-holc_grade="B"/>
<path d="M 699.7 2653.1 697.6 2668.7 675.8 2666.9 675.7 2673.8 659 2673.7 657.6 2681.7 621.6 2677 617.9 2697.9 498.4 2678.6 510.8 2597.6 571.9 2607.4 571.1 2614.7 650.7 2629.2 648.2 2644 699.7 2653.1 Z M 298.1 2738.5 298.5 2731.2 283.6 2729.8 274.1 2725.1 265 2716 261.4 2703 287.1 2547 311.1 2550.3 296.8 2633.5 338.9 2640.8 320.6 2741.8 298.1 2738.5 Z" data-holc_grade="B"/>
<path d="M 1695.4 290.4 1698.9 302 1654.4 328 1579.5 377.6 1581 385.8 1656.9 442.4 1591.2 526.4 1566 538.4 1552.5 534.5 1545.2 527.3 1523.5 502.8 1528.8 491.2 1489.2 462.8 1497.4 450.8 1459.2 420.9 1535.6 386.7 1572.8 365.1 1623 329.5 1661.7 305.9 1658.3 273.1 1640.4 241.8 1661.7 185.5 1722.1 227.9 1694.5 256.8 1691.7 277.9 1695.4 290.4 Z" data-holc_grade="B"/>
<path d="M 354 3013 305 3046.2 315.7 3012.5 327.3 2998 329.3 2974.3 326.9 2949.2 333.7 2939.6 379.7 2948.8 389.4 2955.1 410.2 2960.4 354 3013 Z M 441.1 2888.2 430.6 2892.5 423.3 2891.4 415.7 2883.1 413.9 2869.7 421.2 2840.7 405.6 2821.9 362.4 2767.9 353.7 2764.3 334.8 2770 302.8 2764.6 363.1 2735.7 443 2828.1 430.6 2842.5 466.9 2884.6 451.3 2899.4 441.1 2888.2 Z" data-holc_grade="B"/>
<path d="M 158.3 2046.6 116 1994.7 92.4 1977.6 82.3 1974 76.9 1941.1 74 1931 41.1 1857.5 38.6 1845.8 64.8 1836 101.8 1836.8 149.3 1864 280.1 1927.7 254.6 1950.9 247.7 1962.7 250.1 1974.7 200.7 2013.2 188.6 2019.2 158.3 2046.6 Z" data-holc_grade="B"/>
<path d="M 1350.2 547.3 1371.2 521.1 1423.9 562 1420.5 587 1378 637.6 1386.7 644.8 1396.3 661.7 1352.3 721.9 1381.8 741.6 1398.7 777.2 1407.6 800.3 1433 865.3 1400.4 876.4 1392.8 863.5 1376.2 865.9 1366.2 842.7 1354.4 836.1 1351.7 823.1 1365 816.2 1364.7 809 1356.8 794.9 1342 781.6 1331.2 784.3 1322.7 781.3 1314.5 769.6 1296.1 764.4 1287.9 770.2 1238.4 729.8 1208.5 766.8 1179.1 798.7 1167.1 787.3 1156 783 1158.4 767.6 1156 722.8 1151.2 712.2 1126.1 651 1150.3 648.6 1236.8 695.8 1252.7 673.2 1188.5 625 1186.5 615.9 1193.8 600.5 1209.3 580.2 1235.9 542.7 1250.4 511.9 1317.1 552.3 1330.6 571.6 1350.2 547.3 Z M 948.8 382.6 1008.5 428.5 979.7 466.1 970.4 459.2 960.4 474.8 921.5 451.6 937.2 429.4 916 409.8 928.4 392.7 938.7 400.2 948.8 382.6 Z" data-holc_grade="B"/>
<path d="M 1562.2 755.6 1529.4 804.8 1511.3 819.2 1488.6 833.7 1474.1 846.6 1407.6 800.3 1398.7 777.2 1401.6 747.4 1413.7 712.7 1432.1 689.1 1445.7 681.9 1473.7 667 1525.4 653.5 1529.3 724.8 1553.5 722.8 1562.2 755.6 Z" data-holc_grade="B"/>
<path d="M 909.3 894.1 947.7 922.7 899.8 988.4 910.7 998.5 876.9 1044 886.3 1051.5 819.9 1141 910.1 1212.6 903.5 1225.4 895.8 1230.7 926.7 1253.8 964.5 1207.1 1000.5 1227.1 1005.6 1230.5 1019.9 1225.2 1044.6 1200.4 1057.9 1183.8 1142.9 1246.1 1147.7 1249.9 1147.7 1249.8 1147.8 1249.9 1092.7 1320.6 1077.2 1308.6 1044.3 1349.7 993.9 1309.6 979.8 1298.4 931.2 1259.8 904.7 1291.2 884.4 1251.1 873.2 1241.3 797.3 1331.6 805.3 1339.2 874.3 1257.6 877.9 1259.7 887.3 1276 899.3 1309.2 920.3 1350.8 874.2 1409.7 917 1445.9 893.3 1475.5 975.3 1542.1 945.5 1578.2 958.6 1589.8 950.2 1600.6 971.5 1617.9 937.7 1660.7 895.7 1615 896.5 1599 898.9 1593.3 896.5 1584.6 915.2 1576.2 897.1 1542.4 891.1 1527.3 886.2 1529.4 881.7 1537 878.7 1539.4 870.2 1532.5 866.9 1524.6 862.7 1527.3 856.9 1515.9 855.1 1502.3 844.8 1502.3 835.5 1498.7 830.3 1490.8 829.1 1475.5 824 1467.3 816.7 1463.1 802.8 1461.3 790.4 1454.4 772 1437.8 769.8 1432.4 765.6 1421.8 766 1416.5 776.4 1405.7 775.8 1404.8 771.7 1396.6 772.6 1389.4 777.8 1381.8 782 1376.6 783.1 1366.2 782.9 1358 789.9 1356.5 789.9 1353.5 774.5 1338.1 815.3 1286 790 1264 782.4 1243.2 777.6 1237.1 803.9 1219.8 816.1 1218.7 839.4 1189.8 828.5 1169 811.1 1158.1 803.6 1132.9 800.7 1130.6 780.8 1157.4 776.1 1159.1 766.2 1173 763.7 1170.4 750.2 1156.3 738.6 1141.5 736.1 1126.6 658.5 1067 660 1054.7 668 1042.8 640 1022.9 684.7 961.8 623.5 915.9 657.6 872.9 825.4 1003.5 909.3 894.1 Z M 711.2 1042.4 767.6 1087.7 772.4 1097.4 780.6 1108.2 793.1 1119.3 804.7 1127.4 798.5 1106 792.6 1093.9 786.4 1081.4 780 1058.2 778.1 1038.2 778.7 1014.7 752 989.4 711.2 1042.4 Z M 745.1 1081.9 716.1 1061.1 699.6 1082.8 727 1104.5 745.1 1081.9 Z M 1191.4 1281.8 1191.5 1281.8 1205.1 1292.1 1202.2 1355.3 1189.2 1347 1132.2 1419.6 1085.1 1382.2 1128.3 1328.4 1146.4 1343.1 1177.6 1301.4 1170.1 1294.9 1163.6 1281.4 1160.2 1268.9 1160.5 1259.9 1171.6 1268.6 1191.4 1281.8 Z" data-holc_grade="B"/>
<path d="M 1078.3 948.6 1345.3 1145.2 1328.7 1186.2 1315.4 1185.6 1308.5 1217.2 1310.5 1247.4 1255.6 1244.5 1255.5 1244.5 1244.4 1225.3 1209.7 1241.5 1206.6 1248.4 1217 1266.9 1191.4 1281.8 1171.6 1268.6 1160.5 1259.9 1160.3 1259.8 1158.6 1234.5 1154.7 1238.1 1147.7 1249.8 1147.7 1249.9 1142.9 1246.1 1057.9 1183.8 1057.9 1183.7 981.3 1127.5 958.1 1109 1078.3 948.6 Z M 1092.9 1159.4 1160.2 1187.1 1175.2 1165.3 1122.1 1125.8 1117 1127.5 1092.9 1159.4 Z" data-holc_grade="B"/>
<path d="M 1674.6 994.7 1705.6 1020.8 1699.6 1029.9 1694.8 1064 1679.1 1063.1 1670 1074.4 1661.9 1080.2 1650.7 1083.1 1634.6 1108.9 1624.3 1127.8 1616.8 1146.5 1614.9 1176.8 1613.9 1194.1 1608.7 1203.2 1598 1200.7 1560.5 1230.4 1532.1 1237.5 1547.5 1263.7 1532.8 1289.9 1523.7 1285.5 1513.7 1335 1451.1 1323.8 1475.3 1277.1 1484.7 1252.7 1489.4 1243.4 1496.6 1231.9 1510.5 1202 1516.6 1184.7 1519.9 1160 1519.3 1148.7 1515.4 1113 1508.7 1076 1497.1 1021.1 1515.2 1000.6 1548.9 974.8 1564.4 966.1 1568.4 953.4 1576.9 949.8 1589.9 932.2 1614.8 950.1 1628.2 958.8 1637.5 963.4 1674.6 994.7 Z" data-holc_grade="B"/>
<path d="M 1832.1 1115.5 1836.4 1115.1 1887 1153.1 1918.4 1112.9 1857.2 1067.2 1825.1 1110.1 1727.8 1035.4 1790 953.2 1798.4 982.5 1831 1004.9 1832.5 1013.9 1859.7 1031.6 1889.8 987.5 1855.7 964.4 1854.6 950.3 1859.7 946.4 1842.2 922.5 1794.7 903.7 1807.4 886 1770.1 867.6 1834.9 775.9 1835.3 760.3 1867.2 735.4 1898.8 758.1 1880.3 777.6 1967.7 841.5 1968.5 905.1 2085.3 991 2111 961 2119.7 976.9 2131.7 987.4 2120.1 1025.3 2114.7 1037.9 2093.7 1049.4 2012.8 1161.9 2057.1 1194 1986.1 1296.7 1940.7 1264.2 1880.8 1346.1 1797 1460.6 1753.4 1509.8 1731.9 1491.8 1732.2 1481.2 1714.1 1468.9 1687.8 1449.3 1697.4 1416.8 1693.7 1414.1 1700.4 1398.1 1734.5 1364.4 1777.1 1326.6 1808 1303.4 1839.5 1279.9 1857.3 1261.4 1838.6 1225.2 1851.7 1208.2 1822.9 1176.8 1831.6 1157.9 1832.1 1115.5 Z" data-holc_grade="B"/>
<path d="M 2552.2 901.2 2476.8 1005.3 2468.9 999.2 2450.3 964.1 2445.9 947.9 2430.7 951.1 2419.4 911 2413.6 900.2 2400.9 885.8 2416.8 854.3 2446.2 823.2 2552.2 901.2 Z M 2807.6 361.1 2737.1 451.5 2591.2 337.2 2619.8 322.4 2606 275.8 2634.9 233.5 2661.7 201.7 2819.2 321.7 2807.6 361.1 Z" data-holc_grade="B"/>
<path d="M 1078.3 948.6 958.1 1109 958.1 1108.9 889.8 1054.3 1010.4 893.4 1062.2 935.4 1078.3 948.5 1078.3 948.6 Z" data-holc_grade="B"/>
<path d="M 1727.8 1035.4 1825.1 1110.1 1832.1 1115.5 1831.6 1157.9 1822.9 1176.8 1851.7 1208.2 1838.6 1225.2 1857.3 1261.4 1839.5 1279.9 1808 1303.4 1777.1 1326.6 1734.5 1364.4 1700.4 1398.1 1693.7 1414.1 1666 1394.1 1659.4 1439.6 1656.3 1442.3 1591.9 1430.6 1594.9 1410.4 1504.5 1394.8 1513.7 1335 1523.7 1285.5 1532.8 1289.9 1547.5 1263.7 1532.1 1237.5 1560.5 1230.4 1598 1200.7 1608.7 1203.2 1613.9 1194.1 1614.9 1176.8 1616.8 1146.5 1624.3 1127.8 1634.6 1108.9 1650.7 1083.1 1661.9 1080.2 1670 1074.4 1679.1 1063.1 1694.8 1064 1699.6 1029.9 1705.6 1020.8 1727.8 1035.4 Z" data-holc_grade="B"/>
<path d="M 1949.3 1575.7 1797 1460.6 1880.8 1346.1 1940.7 1264.2 1986.1 1296.7 2057.1 1194 2012.8 1161.9 2093.7 1049.4 2114.7 1037.9 2107.1 1064.6 2114.4 1072.5 2147 1091.7 2157.5 1088.1 2212.3 1029.1 2235.9 1052.4 2309.9 1009 2323.4 1008.5 2336.5 1020 2359.3 1061 2350.6 1095.7 2331.3 1087.5 2325 1095.2 2329.3 1109.6 2328.4 1123.1 2322.6 1135.2 2357.9 1158.8 2379.7 1157.8 2395.2 1168.4 2421.3 1207.8 2414.2 1270.5 2401.6 1302.8 2400.7 1313.9 2390 1331.2 2384.7 1353.4 2352.8 1370.8 2351.4 1405.5 2366.9 1399.7 2379 1389.1 2396.4 1390 2404.1 1396.8 2408.5 1410.7 2424.6 1410.7 2432.7 1420.5 2415.3 1444.3 2365.5 1474.3 2360.4 1487.5 2352.4 1477.7 2339.6 1465.9 2309.3 1444 2291.6 1424.9 2281.7 1410.5 2243.3 1456.1 2311.3 1508.8 2226.9 1622.6 2238.8 1631.3 2208.8 1650.6 2116.9 1669 2126.1 1677.6 2146.4 1705.1 2089.3 1743.7 2109.6 1774.5 2117.6 1785.8 2078.1 1794 2069 1768.6 2061.4 1761.1 2071.5 1752.7 2039.6 1702.9 2028.3 1711.5 2027.6 1687.3 2037.7 1663.4 2025 1660.2 1952.8 1605.6 2067.3 1571.6 2061.9 1555.7 2047 1546.3 1949.3 1575.7 Z" data-holc_grade="B"/>
<path d="M 494.2 1326.5 422.5 1365.9 316.5 1436.7 148.4 1282.1 460.9 883.6 468.1 890.1 448.5 915.4 457.2 921.9 481.8 932.7 502.1 955.2 507.9 972.5 489.8 986.9 490.5 1000 498.4 1020.2 513.7 1022.4 517.3 1029.6 505.6 1054.2 502 1065.7 493.3 1077.3 510.3 1092.5 528.1 1120.3 528.1 1125.4 520.1 1130.1 520.8 1144.2 517.9 1151.7 522.5 1206.7 544.6 1240.3 560.2 1259.5 538.4 1276.8 517.7 1283.6 529.3 1303.2 523.5 1311.1 494.2 1326.5 Z" data-holc_grade="B"/>
<path d="M 621.3 1485.7 558.2 1524.9 545.3 1518.4 530.3 1498.6 508.1 1457.6 471.7 1500.5 430.6 1544.9 316.5 1436.7 422.5 1365.9 494.2 1326.5 556.6 1357.9 587.5 1379.6 594.7 1395.5 596.6 1459.1 606.3 1472.7 612.6 1480.4 621.3 1485.7 Z" data-holc_grade="B"/>
</g>
<g id="C">
<path d="M 89.2 2307.8 117.2 2332.1 139.8 2311.9 150.7 2318.2 156.9 2326.9 158.4 2341.4 173.4 2350.6 107.9 2419.9 68.2 2383.7 48.8 2397.6 22.7 2354.7 89.2 2307.8 Z M 1333.4 296 1316.7 317.7 1250.7 398.8 1239.7 410.9 1221.1 394.7 1197.9 424.2 1175.3 404.5 1164.9 405.1 1404.5 101.2 1453.2 28.5 1460.7 22.1 1483.6 42.1 1533.8 81.4 1480.4 142.3 1506.5 168.2 1476.3 204.1 1460.1 193.1 1449.1 205.8 1423.6 186.1 1333.4 296 Z" data-holc_grade="C"/>
<path d="M 1640.8 136.1 1639.3 138.3 1606.3 259.5 1562.5 232.1 1577 213 1617.7 162.2 1621.5 156 1617.4 146.8 1533.8 81.4 1483.6 42.1 1517.1 1 1578 14 1593 55.6 1636.5 36.1 1639.1 39.5 1624.4 117.4 1629.2 129.5 1640.8 136.1 Z" data-holc_grade="C"/>
<path d="M 2541 1585.8 2507 1610.8 2532 1645.4 2494.3 1674.8 2380.4 1743.6 2285.3 1809.5 2265 1818.9 2175.8 1888.4 2138.7 1904.4 2123.1 1907.3 2109.7 1911.7 2120.2 1949.6 2137.3 1944.5 2165.3 1942 2180.9 1933.3 2193.9 1938.7 2211.4 1948.1 2146.5 2065.3 2091.3 2162 2047.8 2191.3 1989.4 2106.6 1955 2052.6 1920.9 1996 1938 1957 1927.8 1942.5 1934.7 1938.9 1961.9 1932 1961.5 1923 2053.9 1893.2 2053.8 1893 2054.4 1892.8 2070.5 1888.5 2051.3 1819.6 2036.4 1808 2008.4 1788 1980.3 1825.7 1972.8 1828.5 1962.4 1840.8 1869.4 1777 1849.4 1762.2 1835.9 1762.3 1824 1759.7 1847.2 1731.9 1865.3 1710.2 1875.9 1717.8 1880.6 1713.4 1949.2 1761.5 1948.5 1699.6 1939.4 1646.5 1943.7 1611.4 1952.8 1605.6 2025 1660.2 2037.7 1663.4 2027.6 1687.3 2028.3 1711.5 2039.6 1702.9 2071.5 1752.7 2061.4 1761.1 2069 1768.6 2078.1 1794 2117.6 1785.8 2109.6 1774.5 2298.3 1646.8 2268.1 1602.7 2315.6 1585.6 2367.6 1677.1 2448.2 1621 2444.5 1611.6 2520.3 1556.2 2541 1585.8 Z M 2449.9 1621.4 2461.5 1638.3 2488.2 1620.1 2476.1 1602.9 2449.9 1621.4 Z M 2305.2 1698.4 2287.7 1673.3 2255.6 1695.3 2272.5 1720.6 2305.2 1698.4 Z M 2435.2 1684.3 2303.2 1771.7 2308.6 1781.8 2418.4 1707.4 2437.7 1687.3 2435.2 1684.3 Z" data-holc_grade="C"/>
<path d="M 2688.4 1486.7 2691.6 1490 2656.8 1516.4 2633.2 1485.7 2601.6 1509.6 2595.1 1499.1 2600.1 1476 2603 1453.9 2603 1440.6 2610.2 1435.8 2625.1 1421 2662.9 1461.1 2688.4 1486.7 Z M 2573.1 1516.6 2574 1523.7 2577.2 1567.1 2565.8 1570.7 2555.9 1584.2 2549.6 1578.9 2541 1585.8 2520.3 1556.2 2503 1519.3 2509.1 1516.3 2494.8 1485.9 2506.5 1480.9 2492.2 1454.9 2550.3 1425.9 2573.9 1411.4 2584.1 1440.3 2549.5 1462 2557.7 1481.8 2559.7 1495.3 2558.5 1505.9 2540.6 1518.7 2545.7 1536 2573.1 1516.6 Z" data-holc_grade="C"/>
<path d="M 2891.8 1327.8 2946.1 1395.2 2925.3 1413.1 2930.6 1421.2 2913 1435.2 2916.9 1442.7 2898 1457 2829.2 1378.1 2757.7 1293.8 2796.1 1261.2 2823.9 1250.1 2891.8 1327.8 Z" data-holc_grade="C"/>
<path d="M 496.9 2321.1 503.8 2361.6 367.2 2381.1 374.2 2416.5 351.5 2419.9 310.2 2413.5 306.7 2433.7 212.6 2418.6 213.5 2398.9 205.4 2346.3 226.2 2339.5 239.3 2330.4 243.1 2357.9 285.8 2350.2 293 2385.5 298.8 2388.8 352.6 2380.7 349.2 2362.9 364.2 2360.9 360.8 2339.7 411.7 2332.5 403.5 2271.7 463.1 2299.8 496.9 2321.1 Z" data-holc_grade="C"/>
<path d="M 850.8 2647.8 839.6 2654.3 716.8 2703.1 684.8 2742.9 669.5 2724.8 593.5 2796.4 633.1 2843.1 542.8 2926.7 490.7 2943.1 461.7 2914.6 442.9 2931.3 428.7 2917.1 441.1 2888.2 451.3 2899.4 466.9 2884.6 430.6 2842.5 443 2828.1 363.1 2735.7 302.8 2764.6 296.3 2753 298.1 2738.5 320.6 2741.8 338.9 2640.8 296.8 2633.5 311.1 2550.3 287.1 2547 294 2515.5 395.7 2530.9 393.5 2549.7 513.8 2567.9 706.7 2600.7 855.3 2625 853.1 2646.4 850.8 2647.8 Z M 699.7 2653.1 648.2 2644 650.7 2629.2 571.1 2614.7 571.9 2607.4 510.8 2597.6 498.4 2678.6 617.9 2697.9 621.6 2677 657.6 2681.7 659 2673.7 675.7 2673.8 675.8 2666.9 697.6 2668.7 699.7 2653.1 Z" data-holc_grade="C"/>
<path d="M 404.3 3158.6 334.1 3167 387.8 3117.3 434.8 3074.9 414 3051.2 398 3067.1 354 3013 410.2 2960.4 434.5 2965.8 464.5 3002 439.2 3025.6 504.1 3098.6 446.4 3145.9 434.3 3132.8 404.3 3158.6 Z" data-holc_grade="C"/>
<path d="M 1100.1 2701.3 1091.5 2747.9 991.8 2732 999.9 2684.3 1045.3 2692.1 1045.5 2697.4 1067.8 2699.8 1068.5 2696.2 1100.1 2701.3 Z" data-holc_grade="C"/>
<path d="M 913 482.7 887.8 525.5 866.6 510.6 856.4 495.2 852.6 468.2 856.5 435 866.2 421 888.9 431.2 911.1 446.6 918.8 465.8 913 482.7 Z M 1250.7 398.8 1278 421.9 1222.8 491.8 1250.4 511.9 1235.9 542.7 1209.3 580.2 1193.8 600.5 1186.5 615.9 1188.5 625 1252.7 673.2 1236.8 695.8 1150.3 648.6 1126.1 651 1124.2 628.7 1154.3 628.1 1166 607.3 1125.4 577.8 1121.9 570.3 1083 516 1129.5 453 1164.9 405.1 1175.3 404.5 1197.9 424.2 1221.1 394.7 1239.7 410.9 1250.7 398.8 Z" data-holc_grade="C"/>
<path d="M 1674.6 994.7 1637.5 963.4 1628.2 958.8 1614.8 950.1 1589.9 932.2 1576.1 923 1579.5 911.6 1589.4 908.7 1599 885.4 1578.2 868.3 1580.2 861.8 1602.9 830.5 1641.6 887.5 1668.2 879.8 1680.5 870.7 1712.2 893.1 1659 929.9 1674.6 994.7 Z" data-holc_grade="C"/>
<path d="M 979.8 1298.4 890.6 1407.6 904.6 1419.7 993.9 1309.6 1044.3 1349.7 1085.1 1382.2 1132.2 1419.6 1189.2 1347 1202.2 1355.3 1204 1364.3 1248.3 1366.9 1249.7 1451.5 1241.8 1457.2 1240.3 1482.2 1231.6 1542.9 1227.6 1546.2 1215.6 1541.1 1197.8 1539.3 1195.4 1472.2 1148.2 1529 1138.7 1534 1105 1526.1 1093.7 1529.3 1087.9 1513.4 1088.7 1491.7 1073.4 1477.6 1081.4 1454.5 1082.9 1431.7 1076.4 1427 1007 1513 1003 1508.6 980.5 1535.7 992.8 1545.9 965.6 1579.8 980.1 1592.1 1003 1565 1090.8 1631.2 1106.8 1609.6 1112.2 1612.5 1132.2 1587.9 1132.2 1582.8 1165.2 1543.4 1176.5 1544.9 1191.4 1547.2 1184 1556.3 1203.6 1571.8 1203.2 1612.7 1181.1 1625.5 1157.4 1643.4 1158.2 1646.9 1169.1 1660.4 1177.5 1677.9 1182.7 1705.4 1154.7 1732.8 1150.6 1756.5 1142.4 1769.7 1098.7 1808.9 1076 1824.9 1071.2 1812.8 995.2 1725.4 986.8 1714.2 937.7 1660.7 971.5 1617.9 950.2 1600.6 958.6 1589.8 945.5 1578.2 975.3 1542.1 893.3 1475.5 917 1445.9 874.2 1409.7 920.3 1350.8 899.3 1309.2 887.3 1276 877.9 1259.7 874.3 1257.6 805.3 1339.2 797.3 1331.6 873.2 1241.3 884.4 1251.1 904.7 1291.2 931.2 1259.8 979.8 1298.4 Z M 1201.9 1373.5 1198.6 1426 1213.9 1421.3 1240.8 1405 1241.1 1375 1201.9 1373.5 Z M 963.2 1441.8 955.7 1423.2 910.9 1475.3 926 1486.8 963.2 1441.8 Z M 976.7 1679.6 1021.2 1714.9 1060.4 1666.7 1013 1631.9 976.7 1679.6 Z M 711.2 1042.4 752 989.4 778.7 1014.7 778.1 1038.2 780 1058.2 786.4 1081.4 792.6 1093.9 798.5 1106 804.7 1127.4 793.1 1119.3 780.6 1108.2 772.4 1097.4 767.6 1087.7 711.2 1042.4 Z" data-holc_grade="C"/>
<path d="M 558.2 1524.9 559.8 1525.6 563.6 1527.6 588.8 1539.6 617.8 1580.2 658.4 1626 674.3 1650.1 687.4 1692.1 692.2 1710.4 702.4 1704.1 736.2 1763.9 735.7 1780.8 731.8 1791.4 716.3 1797.2 700.8 1803 702.3 1814.5 696.9 1813.1 610.9 1668.4 559.7 1601.8 572.3 1589.3 564.5 1579.6 547.1 1588.8 543.7 1585.9 521.5 1599.8 471.7 1500.5 508.1 1457.6 530.3 1498.6 545.3 1518.4 558.2 1524.9 Z" data-holc_grade="C"/>
<path d="M 1265.6 1897.5 1236.6 2040.3 1194.6 2032.4 1199.7 1992 1149.8 1983.6 1130.5 1965.4 1108.2 1937.9 1087.4 1903.2 1135.9 1876.2 1265.6 1897.5 Z M 856.2 1835.2 899.6 1884.8 912.6 1875 967.8 1893.9 1032.8 1853.8 1074.2 1907.7 1030.2 1925.4 1022.6 1931.5 1116.6 1967 1128.6 1975 1156.9 1992 1172.5 2009 1186 2023.8 1191.1 2038.3 1188.1 2064.3 1146.7 2084.9 1139.1 2083.8 1142.4 2065 1119.9 2060.3 1115.5 2080.2 1102.1 2077.7 1098.4 2100.5 986.9 2082 987 2081.5 990.2 2060.6 973.2 2056.3 992.1 2039.6 998.2 2000.2 972.5 1994.8 974.3 1976 958 1973.8 932.9 1983.2 922 1994.8 904.9 2011 900.9 1991.5 898.8 1975.6 895.5 1948.8 889 1932.9 861.8 1933.6 855.2 1924.9 840.3 1914.4 809.1 1900.6 803 1878.2 816.1 1856.9 808.1 1853.3 832.2 1832 838.2 1839.9 846.6 1846.4 851.7 1845.3 853.8 1837.4 856.2 1835.2 Z" data-holc_grade="C"/>
<path d="M 1236.2 1708.2 1264.9 1713 1298.4 1718.7 1294.6 1738.5 1374.4 1751.6 1373.4 1754.7 1368.8 1758.5 1360.3 1763.4 1349.7 1767.7 1339.3 1769.9 1326.4 1770.6 1309.5 1769.4 1308.3 1820.5 1362.7 1851.4 1365.2 1849.7 1381.2 1752.7 1423.5 1759.6 1494.5 1771.3 1486.2 1834.4 1434 1826.2 1403.5 1821.4 1389.4 1910.6 1287.7 1971.8 1299.9 2010.2 1300.8 2012.8 1250.9 2037.4 1295 1781.9 1283 1778.8 1238.5 1771.6 1225 1777.4 1214.3 1757.6 1197.4 1733.5 1215.8 1622.1 1210.5 1612.5 1229.2 1605.9 1236.5 1604.9 1218.6 1705.2 1236.2 1708.2 Z" data-holc_grade="C"/>
<path d="M 1434 1826.2 1417.4 1924.3 1468.7 1931 1466.8 1952.2 1506.9 1951.8 1546.6 1960.4 1553.4 1978.3 1616.9 1990.3 1619.3 1975.9 1726.8 1994.6 1730.6 1976.3 1723.4 1972 1721.9 1958.5 1717.1 1947.9 1827 1943.5 1653.7 2067 1340.9 2016.8 1299.9 2010.2 1287.7 1971.8 1389.4 1910.6 1403.5 1821.4 1434 1826.2 Z" data-holc_grade="C"/>
<path d="M 1949.3 1575.7 1938.5 1578.9 1868.1 1628.8 1830 1567.2 1808.7 1544.5 1749.2 1620.2 1723 1630.3 1696.4 1600.9 1706.6 1597.1 1713.8 1590.3 1718.2 1580.2 1703.2 1549.8 1730.8 1535.4 1753.4 1509.8 1797 1460.6 1949.3 1575.7 Z" data-holc_grade="C"/>
<path d="M 2688.4 1486.7 2662.9 1461.1 2625.1 1421 2623.8 1418.8 2633.7 1408.6 2668.1 1372 2718.3 1326.8 2713.7 1307.1 2717.3 1266.1 2711.9 1231.7 2729.5 1222 2782.4 1147.3 2858.9 1201.1 2875.6 1208.8 2895.2 1213.6 2903.2 1220.6 2952 1185.8 2976.4 1173 2989.7 1169.6 2994.1 1170.3 2993.7 1214.4 2999 1228.6 2976.3 1255.9 2964.9 1259 2956.5 1266.5 2957.2 1272.8 2891.8 1327.8 2823.9 1250.1 2796.1 1261.2 2757.7 1293.8 2829.2 1378.1 2792.5 1408.3 2753.5 1436.6 2736 1452.4 2688.4 1486.7 Z" data-holc_grade="C"/>
</g>
<g id="D">
<path d="M 1606.3 259.5 1595.4 299.6 1576.9 316.2 1527.2 343.3 1523.8 279.9 1532.9 267.9 1502.7 228.6 1533.7 190.9 1544.1 199.2 1577 213 1562.5 232.1 1606.3 259.5 Z" data-holc_grade="D"/>
<path d="M 1656.1 2324.2 1611.7 2261.8 1626 2235.9 1915.7 2043.5 1927.4 2035.8 1939 2045.9 1945.3 2054.6 1954.5 2053.1 1988.9 2107.1 1905.7 2162.1 1963.3 2246 1902.3 2277.9 1851.5 2272.6 1810.3 2298.7 1789 2269.7 1777.4 2274.6 1769.6 2268.8 1753.2 2277.5 1745.9 2287.1 1728 2294.9 1728 2305.5 1708.1 2317.5 1696 2299.7 1672.8 2313.2 1656.1 2324.2 Z" data-holc_grade="D"/>
<path d="M 1313.3 2218.7 1225.8 2204.5 1236 2144.2 1251 2147.6 1258.8 2100.8 1242.3 2096.9 1248.6 2060.3 1340.9 2016.8 1653.7 2067 1466.5 2201.1 1459.7 2242.6 1313.3 2218.7 Z" data-holc_grade="D"/>
<path d="M 1047.5 2498.3 1056 2453.6 1060.6 2454.3 1064.4 2425.9 1039.7 2421.7 995.5 2414.4 1001 2385.4 936.8 2374.6 986.9 2081.5 987 2081.5 986.9 2082 1098.4 2100.5 1097.6 2117.3 1001 2179.1 1013.7 2195 1023.1 2190 1032.6 2190.3 1037.3 2170.5 1061.6 2154.2 1073.3 2156.7 1149.6 2105.7 1177.9 2092 1216.4 2098.2 1213.1 2119.2 1222.9 2120.6 1222.2 2132.9 1157 2516.4 1047.5 2498.3 Z M 1001.1 2383.4 1015.1 2386.5 1103.6 2371.6 1094.7 2350.6 999.4 2362.9 1001.1 2383.4 Z" data-holc_grade="D"/>
<path d="M 1039.7 2421.7 1038.8 2451.9 1056 2453.6 1047.5 2498.3 1017.1 2492.8 918.3 2384.9 911.2 2366.4 903.4 2346.3 891.6 2340.7 884.3 2331.4 880.4 2318.1 881.2 2297.1 889.5 2253.5 911.3 2112.5 903.2 2096.7 897.2 2075.9 897.8 2058.5 895.5 2043.1 973.2 2056.3 990.2 2060.6 987 2081.5 986.9 2081.5 936.8 2374.6 1001 2385.4 995.5 2414.4 1039.7 2421.7 Z" data-holc_grade="D"/>
<path d="M 1313.3 2218.7 1267.4 2500.7 1262 2529.2 1172.9 2520.9 1225.8 2204.5 1313.3 2218.7 Z" data-holc_grade="D"/>
<path d="M 1459.7 2242.6 1453 2283.3 1452.4 2286.5 1439.8 2360.8 1438.9 2489.6 1442.1 2492.4 1448.5 2497.8 1413.2 2533.5 1407.8 2547 1262 2529.2 1267.4 2500.7 1313.3 2218.7 1459.7 2242.6 Z" data-holc_grade="D"/>
<path d="M 1611.7 2261.8 1656.1 2324.2 1636.7 2331.4 1612 2349.2 1593.6 2368.5 1566 2404.3 1533.9 2417.2 1512.8 2437.2 1487.6 2462.6 1462.9 2476.3 1451.3 2482.6 1442.1 2492.4 1438.9 2489.6 1439.8 2360.8 1452.4 2286.5 1453 2283.3 1466.8 2292.1 1482.9 2280.7 1531.2 2256.1 1583 2221.4 1611.7 2261.8 Z" data-holc_grade="D"/>
<path d="M 1054.2 3172.8 1055.1 3155.9 1076.1 3159.1 1078.7 3154.6 1081.4 3130.9 1069.8 3123.2 1099.9 2945 1138.5 2718.4 1140.5 2707.5 1353.1 2739.5 1328.8 2886.1 1321.5 2915.1 1274.8 3212.6 1154.8 3187.9 1054.2 3172.8 Z" data-holc_grade="D"/>
<path d="M 999.9 2684.3 991.8 2732 1091.5 2747.9 1100.1 2701.3 1126.7 2705.6 1103.5 2842.2 1076.9 2838.4 1062.6 2919.7 1047.5 2918.3 1037.3 2964.4 934.4 2947.6 924.9 2962.1 918.3 2971 883.9 2983.1 843.7 3001.4 835.1 3006.9 800.6 2961 719.5 2947 732.3 2908.8 759.9 2917.8 777.7 2856.7 736 2846.1 734.8 2826.8 751.3 2830.4 756.6 2815 792 2822.5 809.2 2810.9 837.3 2805.9 850.2 2798.4 904.7 2756.2 930.4 2780.1 960.9 2757.4 964.8 2752.8 910.8 2743.9 968 2678.8 999.9 2684.3 Z" data-holc_grade="D"/>
<path d="M 1055.1 3155.9 1054.2 3172.8 985.2 3162.4 973 3154 980.9 3107.5 895.5 3094.8 843.7 3018.3 835.1 3006.9 843.7 3001.4 883.9 2983.1 918.3 2971 924.9 2962.1 934.4 2947.6 1037.3 2964.4 1047.5 2918.3 1062.6 2919.7 1076.9 2838.4 1103.5 2842.2 1089 2927.6 1056.9 3116.4 1047 3122.9 1040.2 3149.7 1044.6 3154.3 1055.1 3155.9 Z" data-holc_grade="D"/>
<path d="M 1129.5 453 1083 516 1121.9 570.3 1125.4 577.8 1166 607.3 1154.3 628.1 1124.2 628.7 1123 591.7 1102.7 565.1 1027.9 507.3 1016.3 494 1077.3 410.8 1129.5 453 Z" data-holc_grade="D"/>
<path d="M 850.8 2647.8 853.1 2646.4 855.3 2625 706.7 2600.7 513.8 2567.9 393.5 2549.7 395.7 2530.9 294 2515.5 261.3 2466.7 249.7 2466.1 236.9 2444.1 207.9 2438.2 212.6 2418.6 306.7 2433.7 310.2 2413.5 351.5 2419.9 374.2 2416.5 367.2 2381.1 503.8 2361.6 496.9 2321.1 564.3 2358.8 594.5 2382 645.1 2373.3 635.8 2326.4 566.7 2293.9 561.4 2300.9 529.5 2284.6 521.3 2297.9 514.4 2295.6 508 2305.5 496.9 2307.2 484.1 2301.4 480.1 2286.3 488.8 2249.9 499.9 2252.2 506.8 2264.3 515 2266.1 528.4 2262.6 732.3 2358.9 774.7 2353.2 777 2380.4 768.3 2393.1 729.9 2397.1 732.8 2422.6 747.3 2420.9 749.6 2431.3 778.1 2427.9 779.3 2432.5 789.7 2429.6 858.9 2456.3 896.1 2477.7 900.7 2493.4 907.7 2543.2 903 2545.5 903 2557.1 894.8 2604.6 901.2 2616.1 896 2654.9 850.8 2647.8 Z M 592.3 2386 583.3 2379.4 532.4 2393.9 537.5 2419.2 594.1 2410.6 592.3 2386 Z M 575 2558.2 709.7 2581.2 701.3 2517.3 677 2519.4 648.6 2514.2 608.6 2517.5 567.2 2501.8 575 2558.2 Z" data-holc_grade="D"/>
<path d="M 684.8 2742.9 702.6 2766.8 691.3 2774.8 697.4 2785.3 633.1 2843.1 593.5 2796.4 669.5 2724.8 684.8 2742.9 Z" data-holc_grade="D"/>
<path d="M 334.1 3167 259.2 3235 258.2 3219 248.5 3211.8 249 3203.1 280.5 3175.6 288.8 3162.1 288.3 3142.8 301 3132.2 296.6 3120.6 302 3111.9 290.8 3092.1 298.6 3057.3 305 3046.2 354 3013 398 3067.1 367.4 3092.7 387.8 3117.3 334.1 3167 Z M 503.4 3144.1 484.7 3149.1 404.3 3158.6 434.3 3132.8 446.4 3145.9 504.1 3098.6 439.2 3025.6 464.5 3002 434.5 2965.8 410.2 2960.4 442.9 2931.3 461.7 2914.6 490.7 2943.1 458.7 2971.6 479 2992.4 496.5 2978.4 502.3 2983.2 550.3 2935.5 572.7 2918.1 590.6 2934.6 556.6 3001.6 574.5 3011.3 503.4 3144.1 Z" data-holc_grade="D"/>
<path d="M 259.2 3235 334.1 3167 404.3 3158.6 484.7 3149.1 503.4 3144.1 552 3131 498.6 3357.7 320.9 3607.5 304.8 3623.4 272.1 3598.7 271.4 3627 233.2 3619.3 224.4 3649.7 195.7 3639.9 192 3647.9 150.2 3633.3 132.9 3507.2 192.7 3423.6 196 3404.8 196 3385.9 211 3361 203.7 3353.7 203 3337.1 244.2 3284.9 212.6 3261 224.6 3244.4 237.7 3242.6 249.7 3243.3 259.2 3235 Z" data-holc_grade="D"/>
<path d="M 1375.7 1167.4 1345.3 1145.2 1352.3 1132.4 1323.3 1109.3 1348 1080.4 1383.3 1107.4 1365.9 1132.9 1389.1 1149.8 1375.7 1167.4 Z" data-holc_grade="D"/>
<path d="M 1197.8 1539.3 1191.4 1547.2 1176.5 1544.9 1165.2 1543.4 1132.2 1582.8 1132.2 1587.9 1112.2 1612.5 1106.8 1609.6 1090.8 1631.2 1003 1565 980.1 1592.1 965.6 1579.8 992.8 1545.9 980.5 1535.7 1003 1508.6 1007 1513 1076.4 1427 1082.9 1431.7 1081.4 1454.5 1073.4 1477.6 1088.7 1491.7 1087.9 1513.4 1093.7 1529.3 1105 1526.1 1138.7 1534 1148.2 1529 1195.4 1472.2 1197.8 1539.3 Z M 993.9 1309.6 904.6 1419.7 890.6 1407.6 979.8 1298.4 993.9 1309.6 Z" data-holc_grade="D"/>
<path d="M 963.2 1441.8 926 1486.8 910.9 1475.3 955.7 1423.2 963.2 1441.8 Z" data-holc_grade="D"/>
<path d="M 1201.9 1373.5 1241.1 1375 1240.8 1405 1213.9 1421.3 1198.6 1426 1201.9 1373.5 Z" data-holc_grade="D"/>
<path d="M 976.7 1679.6 1013 1631.9 1060.4 1666.7 1021.2 1714.9 976.7 1679.6 Z" data-holc_grade="D"/>
<path d="M 696.9 1813.1 681.9 1805.4 665 1801.5 654.4 1791.3 630.2 1755.2 601.7 1727.7 587.6 1710.3 559.6 1684.7 516.1 1664.9 491.9 1654.7 476.9 1634 426.1 1580.9 416.5 1560.2 430.6 1544.9 471.7 1500.5 521.5 1599.8 543.7 1585.9 547.1 1588.8 564.5 1579.6 572.3 1589.3 559.7 1601.8 610.9 1668.4 696.9 1813.1 Z" data-holc_grade="D"/>
<path d="M 1076 1824.9 1078.3 1835.7 1079.2 1854 1096.6 1875.2 1202.2 1816 1169.8 1760.5 1175.6 1746.5 1174.2 1737.4 1185.8 1715.7 1182.7 1705.4 1177.5 1677.9 1169.1 1660.4 1158.2 1646.9 1157.4 1643.4 1181.1 1625.5 1203.2 1612.7 1210.5 1612.5 1215.8 1622.1 1197.4 1733.5 1214.3 1757.6 1225 1777.4 1238.5 1771.6 1283 1778.8 1265.6 1897.5 1135.9 1876.2 1087.4 1903.2 1037.6 1836.1 1071.2 1812.8 1076 1824.9 Z" data-holc_grade="D"/>
<path d="M 2053.8 1893 2053.9 1893.2 1961.5 1923 1961 1923.2 1956.6 1910.9 1912.6 1935 1907.8 1955.5 1900 1966.4 1891.8 1964 1877.3 1958.2 1868 1952.9 1863.9 1942 1871.5 1925.7 1868 1915.3 1861.4 1907.9 1838.7 1893 1841.3 1882.1 1859.2 1857.5 1859.5 1849.1 1847.3 1827.9 1854.9 1823.7 1870.7 1797.6 1867.7 1784.1 1868.9 1777.8 1961.9 1841.7 1972.3 1829.4 1979.8 1826.5 2007.9 1788.9 2036 1808.9 2020 1843.3 2024.6 1870.3 2030.4 1867.9 2042.1 1885.3 2048.8 1885.3 2053.8 1893 Z" data-holc_grade="D"/>
<path d="M 2573.1 1516.6 2545.7 1536 2540.6 1518.7 2558.5 1505.9 2559.7 1495.3 2557.7 1481.8 2549.5 1462 2584.1 1440.3 2588 1441.7 2577.6 1483.2 2571.1 1500.3 2573.1 1516.6 Z" data-holc_grade="D"/>
<path d="M 1915.7 2043.5 1626 2235.9 1611.7 2261.8 1583 2221.4 1531.2 2256.1 1482.9 2280.7 1466.8 2292.1 1453 2283.3 1459.7 2242.6 1466.5 2201.1 1653.7 2067 1827 1943.5 1868 1915.3 1871.5 1925.7 1863.9 1942 1868 1952.9 1877.3 1958.2 1844.8 1998.1 1834.9 2013.1 1806.5 2032.3 1816.9 2050.2 1858.8 2026.4 1876.8 2023 1909.9 2036.3 1915.7 2043.5 Z" data-holc_grade="D"/>
</g>
</svg>