<?xml version="1.0"?>
<svg xmlns="http://www.w3.org/2000/svg" version="1.2" baseProfile="tiny" width="3000" height="4364" viewBox="0 0 3000 4364" stroke-linecap="round" stroke-linejoin="round">
<g id="A">
<path d="M 1205.6 1820.4 2169.2 2568.6 2041.3 2671.5 1984.3 2717.3 1958 2776.2 1887.8 2819.9 1828.6 2863.5 1747.4 2922.5 1598.2 3094.9 1536.8 3055.6 1486.4 3127.6 1440.3 3110.2 1341.6 3238.9 1228.2 3386.4 1197.3 3357.1 1155.2 3421.3 1111.7 3380.8 1070.9 3433.9 1027.4 3390.6 986.7 3439.5 749.3 3247.6 826.1 3140.7 784.4 3097 936.3 2908.3 549.7 2592.8 613.4 2512.1 677 2551.4 762.5 2444.5 709.9 2398.6 1030.2 2027.7 1205.6 1820.4 Z" data-holc_grade="A"/>
</g>
<g id="B">
<path d="M 2169.2 2568.6 1205.6 1820.4 1455.7 1490.9 696.9 897.3 825.2 725.3 488 448.3 755.7 75.5 1440.9 1 1799.5 107.5 2452.7 624.1 2666.9 970.3 2752.7 1417.7 2999 1641.4 2554.7 2083.7 2394.1 2280.9 2217.4 2494 2169.2 2568.6 Z" data-holc_grade="B"/>
<path d="M 135.2 4038.2 161 4058.2 312.7 3876.6 270.6 3838.9 333.8 3762.1 225.7 3675.4 91.7 3844.9 33.6 3798.4 1 3770.4 345.1 3347.2 474.2 3443.6 486.9 3496.7 481.2 3541.4 461.6 3583.3 500.9 3560.9 538.8 3559.5 710.1 3700.7 673.6 3746.8 707.3 3774.7 722.7 4036 687.6 4091.8 557 3970.3 221.3 4362.8 12.1 4185.3 135.2 4038.2 Z" data-holc_grade="B"/>
</g>
<g id="C">
<path d="M 749.3 3247.6 718.6 3284.7 1045.4 3566.3 931.3 3710.4 782.1 3592.5 823.8 3546.7 380.7 3175.5 268.9 3092.6 251.3 3022.7 205.3 3033.6 549.7 2592.8 936.3 2908.3 784.4 3097 826.1 3140.7 749.3 3247.6 Z" data-holc_grade="C"/>
</g>
<g id="D">
<path d="M 613.4 2512.1 709.9 2398.6 762.5 2444.5 677 2551.4 613.4 2512.1 Z" data-holc_grade="D"/>
<path d="M 1486.4 3127.6 1256.6 3396.2 1264.7 3401.8 1372.8 3269.1 1393.9 3295.6 1277.3 3426.9 1315.2 3473 1255.7 3557.2 1299.7 3612.6 1256.6 3643.9 1208.1 3626.9 1137.1 3714.5 1114.6 3693.1 1102 3707.4 1127.2 3723.5 1104.7 3758.3 1071.5 3733.3 1026.6 3786.9 931.3 3710.4 1045.4 3566.3 718.6 3284.7 749.3 3247.6 986.7 3439.5 1027.4 3390.6 1070.9 3433.9 1111.7 3380.8 1155.2 3421.3 1197.3 3357.1 1228.2 3386.4 1341.6 3238.9 1440.3 3110.2 1486.4 3127.6 Z" data-holc_grade="D"/>
<path d="M 135.2 4038.2 13.6 3943.6 91.7 3844.9 225.7 3675.4 333.8 3762.1 270.6 3838.9 312.7 3876.6 161 4058.2 135.2 4038.2 Z" data-holc_grade="D"/>
</g>
</svg>