<?xml version="1.0"?>
<svg xmlns="http://www.w3.org/2000/svg" version="1.2" baseProfile="tiny" width="2000" height="1635" viewBox="0 0 2000 1635" stroke-linecap="round" stroke-linejoin="round">
<g id="holc_ad_data">
<path d="M 843.1 331.2 843.1 333 812.7 333.5 813.1 305.2 843.1 305.2 843.1 331.2 Z" data-holc_grade="A"/>
<path d="M 597.1 844.9 659.5 860.9 654.6 871.8 652.8 875.7 648.3 879.9 642.3 882.7 635.4 884.2 624.8 883.3 617.4 880.7 612.9 881 612.7 883 615.9 886.1 630.4 895.2 627.8 899.8 623.3 901.3 618.5 899.6 615.1 893.7 610.3 887.5 607.3 886.3 603.8 886.3 603 889.5 605.1 893.9 601.5 896.7 602.5 906.7 595 919 582.9 925.3 572.1 927.6 569.5 925.6 571.9 917.2 576 913.8 572.8 912.3 568 914.7 557.6 919.3 545.6 925 543.2 927.9 532.8 927.4 524 927.4 519.2 929.1 505.6 923.7 503.7 920 503.7 917 497.9 910 499.8 906.9 511 904.4 516.4 901.9 524 901.9 528.9 902.5 533.3 905.7 546.4 898.8 563 887.5 565.4 884.5 563.7 883 540.2 881.9 536.5 881.9 531.5 873.7 530.2 869.7 532.2 864.2 541.5 858.6 545.8 859.5 550.3 863.6 554 863.6 551.8 859.2 556.6 854.4 561.5 851.6 564.6 846.5 571 843.2 575.3 844.1 579 848 579.2 849.8 586.8 845 592.8 843.8 597.1 844.9 Z" data-holc_grade="A"/>
<path d="M 647.2 962 646.6 966.9 641 975.2 634.5 977.7 634 981.3 634.8 983.9 641.5 986.2 641.5 993.7 644.5 995.4 649.6 997.1 650.1 999 646.9 1006.2 646.6 1008.9 655 1014.5 653.9 1021.5 642.9 1021.4 642.3 1015.9 637.5 1014 634.8 1014.2 633.1 1016.6 632.9 1019.7 632.3 1022.7 613.2 1022.5 610.2 1016.6 603.7 1012.1 587.3 1011.9 580.8 1008.5 576.2 998.5 574.6 994.7 569.2 990.3 544.9 990.7 540.9 984.9 548.4 983.2 552.7 981.1 561.6 976.5 561.4 974.4 542.5 974.6 531.7 972.6 520.1 961.6 518.2 957.1 553.3 957.1 553 934.7 565.2 940 573.5 942.7 575.1 947.2 574.3 952.3 583 952.3 588.4 953.1 591.1 955.9 592.1 959.1 595.6 958.2 596.2 951.8 597.3 948.7 604 946.8 614.8 948.5 619.1 951 621.5 950.2 620.7 943.4 623.7 938.7 632.6 940.6 635.8 950.1 639.4 952.3 638.5 956.7 633.4 960.8 632.6 965.4 632.9 966.9 643.7 961.6 647.2 962 Z" data-holc_grade="A"/>
<path d="M 682.9 1128.6 682.3 1070.8 761.7 1070.8 759 1078.5 759.2 1084.7 764.9 1091.9 765.7 1101.4 764.4 1108.4 761.9 1113.7 756.3 1118 750.3 1119 712.5 1116.7 682.9 1128.6 Z" data-holc_grade="A"/>
<path d="M 1280.8 1126.4 1280.8 1164.8 1284.3 1169.1 1284.9 1256.2 1207.2 1234 1207.2 1222.1 1199.3 1220 1198.3 1190.9 1197.2 1184.4 1191.8 1177.1 1185.6 1171 1191.3 1168.6 1200.6 1165.7 1205.1 1162.2 1206 1157.5 1205.3 1148.9 1210.8 1138.8 1211.3 1134.6 1211 1130.8 1226.2 1124.8 1239.5 1125.9 1245.5 1128.8 1249.8 1129.3 1256.8 1127.2 1270.6 1126 1280.8 1126.4 Z" data-holc_grade="A"/>
<path d="M 915.3 1357.7 917.2 1402.5 974.8 1401.5 977.4 1404.5 978.3 1413.6 969.2 1407.3 968.8 1414.5 955.8 1414.5 957.1 1474.5 965.7 1478.1 978.7 1487.5 979.5 1507.2 866.9 1507.2 863.9 1403.3 863.5 1374.9 842.5 1358.1 915.3 1357.7 Z" data-holc_grade="A"/>
<path d="M 1056 1517 1043.9 1515.9 1028.1 1514.4 1005.8 1517.3 1005.3 1507.2 979.5 1507.2 978.7 1487.5 965.7 1478.1 957.1 1474.5 955.8 1414.5 968.8 1414.5 969.2 1407.3 978.3 1413.6 977.4 1404.5 974.8 1401.5 974.4 1395.8 1018 1396.1 1025.3 1406.4 1040.4 1428.5 1053.4 1442.7 1063.3 1450.3 1078.8 1455.1 1094 1460.3 1097 1467.2 1094.8 1476.3 1087.5 1487.8 1078.4 1498.4 1070.6 1506.6 1067.6 1513.3 1065.9 1518.1 1056 1517 Z" data-holc_grade="A"/>
<path d="M 1056 1517 1022.4 1622.8 1017.2 1633.3 850.9 1633.7 845.7 1507.2 866.9 1507.2 979.5 1507.2 1005.3 1507.2 1005.8 1517.3 1028.1 1514.4 1043.9 1515.9 1056 1517 Z" data-holc_grade="A"/>
<path d="M 1396.4 558.8 1375.1 561.3 1354.7 554.1 1351.1 548.4 1347.2 544.8 1343.7 544.8 1339.8 548.4 1335.6 549.5 1326.8 545.7 1314.5 540.7 1316.5 537.8 1321 534.4 1320.7 531.4 1312.6 533.2 1303.5 532.5 1294.8 530 1292.2 527.1 1288 519.8 1264.3 517.3 1257.5 519.8 1242.6 519.4 1242.5 498.5 1203.7 498.3 1201.5 494.6 1193.4 491.4 1184 492.5 1166.7 484 1153 471.9 1132.5 468.9 1133.3 456 1150 455.6 1195.6 470.2 1195.9 466.6 1214.2 466.2 1214.2 455.3 1243.6 454.7 1243.6 447.5 1290.2 448.2 1289.6 478.3 1307.7 479.3 1314.5 494.4 1312.9 521 1356.3 522.8 1357.9 539.3 1362.4 547.7 1378.6 548.4 1390.3 551.1 1400.3 551.1 1396.4 558.8 Z" data-holc_grade="A"/>
<path d="M 1241 562.9 1240.4 593.8 1240.4 600.3 1187.6 601 1180.2 597.4 1174.6 597.6 1175.4 547.3 1210.7 547.3 1213.7 541.1 1221.8 540.9 1223.1 512.9 1203.2 512.3 1203.7 498.3 1242.5 498.5 1242.6 519.4 1241 562.9 Z" data-holc_grade="A"/>
<path d="M 1478.8 595.1 1505.5 595.1 1505.7 566.4 1549.2 565.8 1527.2 573.5 1528.1 597.8 1557.4 598.2 1557.6 620 1478.9 619.3 1478.8 595.1 Z" data-holc_grade="A"/>
<path d="M 597.3 687 607.2 703.4 608.7 705.4 610.9 708.1 626.8 722.3 608.1 720.6 591.2 718.1 570.4 719.5 559.9 720.2 549.7 719.8 580.2 708.3 586.1 704.3 581.8 700.6 573.2 698.7 564.3 695.6 552.4 691.7 542.1 692.4 540.8 678.6 541.9 671.6 536.2 671.5 530 670.1 523.5 665.8 524.3 672.8 521.6 674.9 515.1 674.1 508.1 674.3 505.7 684.3 502.2 688.7 509.2 692.1 507.6 694.9 501.7 696.8 498.7 695.8 491.1 694.1 483 697.2 475.6 701.5 475.2 677.3 508.4 640.5 517.3 640.5 517.3 635.2 526.5 635 573.2 663.7 579.6 665.4 580.7 673.9 595.3 683.5 597.3 687 Z" data-holc_grade="A"/>
<path d="M 580.2 708.3 575.3 707 549.7 705.3 527.8 707.7 520.5 712.7 508.1 712.5 497.3 718.1 487.6 719.8 476 725.1 475.6 701.5 483 697.2 491.1 694.1 498.7 695.8 501.7 696.8 507.6 694.9 509.2 692.1 502.2 688.7 505.7 684.3 508.1 674.3 515.1 674.1 521.6 674.9 524.3 672.8 523.5 665.8 530 670.1 536.2 671.5 541.9 671.6 540.8 678.6 542.1 692.4 552.4 691.7 564.3 695.6 573.2 698.7 581.8 700.6 586.1 704.3 580.2 708.3 Z" data-holc_grade="A"/>
<path d="M 549.7 719.8 559.9 720.2 570.4 719.5 571.8 745.2 559.9 745.2 559.7 752.2 546.7 753.1 519.5 764.6 519.5 772.6 477.1 772.2 476.6 757.7 400.2 757.3 400.7 744.2 409.4 749.9 422.6 747.4 437.4 739.7 456.3 738.9 481.1 730.1 496.8 730.4 513.3 729.1 540.2 721.2 549.7 719.8 Z" data-holc_grade="A"/>
<path d="M 390.8 797.4 406 797.9 413.1 800.2 421.9 800.1 431.7 797.1 434.1 872.9 394.6 861.1 388.4 855.1 379.6 851.7 377.5 846.5 389.8 839.3 395.3 832.6 393 829.2 386.6 829 381.3 829.1 377.5 825.1 379.9 820.4 391.1 812.4 390.8 797.4 Z" data-holc_grade="A"/>
<path d="M 415.9 903.8 418.3 902.4 423 903 424.9 905.9 428.3 907 443.2 908.1 452 913.6 459.6 913 466.5 912.3 471.2 913.3 472.4 916.7 469.8 921.8 464.3 922.2 455.6 924.7 446.8 924.5 432.8 925.4 430.6 920.5 426.6 919.5 409.3 919.7 404.7 917.3 402.3 911.9 406.4 909.5 415.6 905.9 415.9 903.8 Z" data-holc_grade="A"/>
<path d="M 493.1 205.4 492.7 188.3 565.5 188.9 566 198.3 638.8 198.6 639.7 185.4 683 185.6 685.1 173.4 716 173 770.9 172.3 769.5 191 768.7 231.1 737.4 231.7 637.3 232 537.3 232.6 517.9 229 539.5 226.3 538.8 205.8 493.1 205.4 Z" data-holc_grade="B"/>
<path d="M 1243.7 444.7 1243.6 447.5 1243.6 454.7 1214.2 455.3 1214.2 466.2 1195.9 466.6 1195.6 470.2 1150 455.6 1133.3 456 1132.5 468.9 1153 471.9 1166.7 484 1184 492.5 1193.4 491.4 1201.5 494.6 1203.7 498.3 1203.2 512.3 1223.1 512.9 1221.8 540.9 1213.7 541.1 1210.7 547.3 1175.4 547.3 1175.6 500.4 1065.5 500 1065.5 464 1075 463.8 1074.5 446.6 1101.2 446.2 1102.2 464.9 1116.5 465.3 1116.5 444.7 1243.7 444.7 Z" data-holc_grade="B"/>
<path d="M 1175.4 547.3 1174.6 597.6 1174.3 615.8 1063.4 615.3 1063.1 605.3 1026.7 605.1 1026.4 569.8 998.4 569.6 1000.3 518.9 1023.7 518.9 1023.5 500 1065.5 500 1175.6 500.4 1175.4 547.3 Z" data-holc_grade="B"/>
<path d="M 1062 652.2 1062.6 623.3 1131.9 623.5 1238.8 622.3 1225.8 629.7 1198.6 630.1 1197.2 651.4 1062 652.2 Z" data-holc_grade="B"/>
<path d="M 1131.7 836.4 1178.3 837.1 1179.9 838.7 1197.1 838.9 1198.7 837.6 1233.4 837.4 1234.3 885.7 1132 885.2 1131.7 836.4 Z" data-holc_grade="B"/>
<path d="M 1126.9 1088.6 1127.5 1106.2 1134.8 1106.8 1139.6 1147.6 1147.2 1210.5 1147.5 1223.9 1134 1224.6 1134 1229.2 1097.3 1229.9 1097 1223.1 1104.8 1222.9 1101.6 1208 1084.9 1209.7 1085.1 1213.7 1040.9 1214.4 983.1 1212.2 1016.1 1206.5 1031.2 1197.4 1037.4 1197.6 1037.4 1192.5 1044.9 1180 1048.2 1177.9 1050.4 1177.9 1089.2 1177.5 1083 1126.8 1092.9 1126.6 1091.6 1105.4 1110.2 1105.8 1110.2 1088.2 1126.9 1088.6 Z" data-holc_grade="B"/>
<path d="M 1133.3 1408.5 1094.8 1426 1052.5 1373.2 1106.5 1367.1 1116.4 1377.1 1130 1395.1 1133.3 1408.5 Z M 1041.5 1315 1099.2 1313.8 1101.5 1345.9 1046.7 1348.4 1041.5 1315 Z" data-holc_grade="B"/>
<path d="M 1327.8 1129.7 1327.8 1164.5 1318.1 1164.8 1318.1 1260.8 1285.9 1260.5 1284.9 1256.2 1284.3 1169.1 1280.8 1164.8 1280.8 1126.4 1306 1126.5 1306 1112.6 1327.8 1112.6 1327.8 1129.7 Z" data-holc_grade="B"/>
<path d="M 1396.4 558.8 1408.7 559.3 1417.8 557.7 1422.7 561.1 1433.4 563.2 1450.5 560 1311.3 616 1174.3 615.8 1174.6 597.6 1180.2 597.4 1187.6 601 1240.4 600.3 1240.4 593.8 1284.7 593.8 1283.1 562.5 1241 562.9 1242.6 519.4 1257.5 519.8 1264.3 517.3 1288 519.8 1292.2 527.1 1294.8 530 1303.5 532.5 1312.6 533.2 1320.7 531.4 1321 534.4 1316.5 537.8 1314.5 540.7 1326.8 545.7 1335.6 549.5 1339.8 548.4 1343.7 544.8 1347.2 544.8 1351.1 548.4 1354.7 554.1 1375.1 561.3 1396.4 558.8 Z" data-holc_grade="B"/>
<path d="M 1338.2 439.1 1335.5 498.7 1349.5 498.7 1349.8 511 1397 510.3 1397.3 521.8 1479.3 521.6 1479.6 548.4 1450.5 560 1433.4 563.2 1422.7 561.1 1417.8 557.7 1408.7 559.3 1396.4 558.8 1400.3 551.1 1390.3 551.1 1378.6 548.4 1362.4 547.7 1357.9 539.3 1356.3 522.8 1312.9 521 1314.5 494.4 1307.7 479.3 1289.6 478.3 1290.2 448.2 1243.6 447.5 1243.7 444.7 1244.3 422.6 1289.4 422.1 1289.3 433.2 1311.6 433.2 1312.6 438.9 1338.2 439.1 Z" data-holc_grade="B"/>
<path d="M 1310.4 761.2 1311 755.3 1289.2 755.4 1289 761 1234 760.4 1233.1 652.4 1297.1 630.2 1363.1 646 1363.9 689 1386.4 689 1386.7 700.4 1386.4 709.7 1412.6 710.2 1413.3 730.6 1386.8 730.4 1386.4 756.7 1339.3 757 1339.2 761.9 1338.5 784.4 1338.5 787.3 1314.1 787.5 1313.4 785.5 1312.1 761.3 1310.4 761.2 Z M 1310.5 752.7 1309.8 731.9 1287.1 734.5 1275.2 736.3 1269.4 737.5 1263.3 736 1253.5 738 1251.6 739.7 1251.4 742.5 1245.2 749 1245.7 752.5 1260.7 752.9 1310.5 752.7 Z" data-holc_grade="B"/>
<path d="M 650.3 334.7 618.2 334.2 615.8 323.6 610.2 298.8 606.3 290.4 596.2 278.9 588.2 272.4 577.4 265 543.5 256.5 543.1 239.4 648.4 239.9 650.3 334.7 Z" data-holc_grade="B"/>
<path d="M 1478.8 595.1 1478.9 619.3 1557.6 620 1556.8 632.3 1530.7 631.9 1503.3 631.4 1502.9 665.3 1476.5 665 1476.7 631.6 1455.8 631.3 1456 664.4 1441.1 664.2 1440.7 685.9 1430.3 685.9 1429.9 654.6 1385.9 654 1385.4 643.5 1364.1 642.5 1363.6 631.4 1297.1 630.2 1414.4 582.9 1479.3 556.8 1478.8 595.1 Z" data-holc_grade="B"/>
<path d="M 1622.8 501.4 1622.5 539.6 1523 539.4 1622.8 501.4 Z M 1713.5 456.8 1653.1 480.4 1598.3 502.1 1479.6 548.4 1479.3 521.6 1397.3 521.8 1397 510.3 1349.8 511 1349.5 498.7 1335.5 498.7 1338.2 439.1 1338.5 433.6 1385.4 433.6 1384.1 466.6 1383.5 480.2 1389.7 480.8 1389.2 498.2 1481.3 497.7 1526.5 497.4 1527.6 460.2 1602.9 460.6 1602.1 433.2 1690.8 433 1713 433 1713.5 456.8 Z" data-holc_grade="B"/>
<path d="M 1411.2 821.2 1407.7 821 1407.9 796.4 1463.2 796.2 1463 784.9 1484.5 785.1 1485.6 776.4 1505.1 776.8 1505.9 790.7 1535.5 790.6 1535.5 803.8 1526.9 804 1526.9 822.1 1506.9 822.7 1507.5 847.1 1540.9 847.7 1541.5 860.3 1507.8 860.7 1507.8 865.6 1541.8 865.8 1541.8 879.4 1506.1 879.8 1506.4 887 1437.1 887.9 1430.6 885.1 1428.7 868.8 1431.1 866 1422.2 864.7 1419.3 836.3 1418.4 822.9 1414.7 821.4 1411.2 821.2 Z" data-holc_grade="B"/>
<path d="M 1622.5 539.6 1622.3 557.3 1607.7 557.7 1561.6 565.1 1558.6 563.7 1549.2 565.8 1505.7 566.4 1505.5 595.1 1478.8 595.1 1479.3 556.8 1523 539.4 1622.5 539.6 Z" data-holc_grade="B"/>
<path d="M 1716.3 483 1717.6 499.8 1717.6 502.3 1706.6 502 1706.9 532.2 1656.9 531.4 1656.4 560.2 1622.3 559.8 1622.3 557.3 1622.5 539.6 1622.8 501.4 1714.3 465.5 1716.3 483 Z" data-holc_grade="B"/>
<path d="M 1914.5 450.6 1916.1 464.5 1915.8 500.6 1880.5 499.2 1867.5 483.3 1852 474 1822.2 454.8 1821.6 434.9 1902.2 433.7 1903.5 450.7 1914.5 450.6 Z" data-holc_grade="B"/>
<path d="M 444.2 594.9 453.8 602.8 460.8 609.2 472.9 608.3 480.8 610.9 513.7 617.4 552.3 617 552.8 639.7 570.6 640.1 571.2 652 589.2 651.8 589 666.9 607.9 667.3 608.7 679.7 627 679.9 628.9 704.3 638.6 704.4 637.9 723.4 626.8 722.3 610.9 708.1 608.7 705.4 607.3 686.4 597.3 687 595.3 683.5 580.7 673.9 579.6 665.4 573.2 663.7 526.5 635 517.3 635.2 517.3 640.5 508.4 640.5 496.7 641 482.9 643.3 480.8 639.1 488.3 635.3 489.4 632.7 494.5 629.8 492.9 625.7 487 626.1 481.8 629.7 474.8 637.2 440.8 645 440.3 635.7 425.2 631.7 420.1 628.5 449.2 627.8 448.9 613.2 435.4 599 421.4 599 421.1 595.8 361.8 596.4 360.4 590.9 365 588.6 370.1 584.7 373.1 580.5 382.3 581.7 386.3 580.3 396.6 577.1 396.9 573.7 399.8 570.1 421.9 571.1 430.3 576.7 433 581.5 433.8 586.4 444.2 594.9 Z" data-holc_grade="B"/>
<path d="M 626.8 722.3 637.9 723.4 641 723.7 642.9 755.6 641 757.9 629.7 758.5 607.5 758.6 608.1 720.6 626.8 722.3 Z" data-holc_grade="B"/>
<path d="M 679.9 865.7 679.9 858.5 693.4 829.7 712.3 834.7 711.5 839.2 712.8 841.3 726 858.3 707.9 858.3 708.2 865.3 679.9 865.7 Z M 659.5 860.9 597.1 844.9 607.1 825.6 611.6 826.4 615.1 826.2 622.8 814.1 623.9 804.2 628.2 802.9 631 799.3 637.5 799.8 637.7 793.6 635.6 791 634.7 788.3 637.7 785.5 636.9 783.4 633.6 782.7 627.2 786.2 623.9 784 623.3 778.6 625 773.8 630 771.5 638.8 769.1 645.9 769.1 653.5 773.4 664.1 783.1 674.4 791 660 818.1 677.9 822.8 659.5 860.9 Z" data-holc_grade="B"/>
<path d="M 1018 1396.1 974.4 1395.8 974.8 1401.5 917.2 1402.5 915.3 1357.7 986.3 1357.9 999 1370 1011.9 1382.7 1018 1396.1 Z" data-holc_grade="B"/>
<path d="M 683.4 370.7 684.1 400.8 678.4 400.7 672.3 401.5 668.4 398.8 664 392.5 661.5 384.8 654.3 378.8 650.1 376 641.5 374.5 638.5 370.8 635 369.3 633.1 367.3 683.5 367.7 683.4 370.7 Z" data-holc_grade="B"/>
<path d="M 769.5 334.3 729.6 334.3 729.1 302.1 770.1 301.8 769.5 334.3 Z M 770.1 286.3 691.1 285.5 690.9 277.2 705 277.2 704.1 240 768.8 239.3 770.1 286.3 Z" data-holc_grade="B"/>
<path d="M 781.9 443.7 781.1 493.8 764 495.2 748.2 501.8 687 445.8 686.6 441.5 781.9 443.7 Z" data-holc_grade="B"/>
<path d="M 900.7 237.5 841.2 237.9 841.8 231.1 781.6 230.7 781.8 214.7 845 214.8 845.5 196.8 868.6 196.8 869 220.4 902.7 220.6 900.7 237.5 Z" data-holc_grade="B"/>
<path d="M 842.7 284.5 843.1 303.5 843.1 305.2 813.1 305.2 812.7 333.5 783.7 334 781.1 238.4 841.2 237.9 900.7 237.5 896 269.4 842.5 270 842.7 284.5 Z" data-holc_grade="B"/>
<path d="M 843.1 331.2 863.4 331.5 862.5 303.1 843.1 303.5 842.7 284.5 894.9 284.2 895.3 301.7 957.1 301.1 959.5 362.3 842 362.9 843.1 333 843.1 331.2 Z" data-holc_grade="B"/>
<path d="M 1206.4 316.8 1205.9 350.5 1130 350.8 1128.9 335.1 1108.2 335.2 1107.6 342.4 1107.6 342.6 1040.6 342.6 1040.4 325.5 1040.7 325.5 1040.7 325.4 1130.6 324.8 1130.6 315.8 1130.9 315.8 1130.7 296.1 1196.3 296.1 1197.3 302.4 1207.3 302.7 1206.4 316.8 Z" data-holc_grade="B"/>
<path d="M 162.5 57.9 93 88.1 72.2 67.3 60.6 71.7 105.7 122.3 72.4 134.8 1 51.7 49.6 33 43.3 19.1 88.6 1 112.2 39.8 120.6 37.4 122.3 39.4 140 32.1 162.5 57.9 Z" data-holc_grade="C"/>
<path d="M 1062.6 623.3 1062 652.2 1026.7 652.4 1025.9 668.8 995.4 680.2 988.4 681.5 980.8 687.2 976.8 693.2 964.4 697.9 964.9 624 1062.6 623.3 Z M 992.1 500.4 991.6 519.3 1000.3 518.9 998.4 569.6 1026.4 569.8 1026.7 605.1 1063.1 605.3 1063.4 615.3 966.3 615.5 969.2 500.6 992.1 500.4 Z" data-holc_grade="C"/>
<path d="M 1530.7 631.9 1530.7 655.8 1553.6 645.9 1552.3 670.7 1587.5 671.2 1588.5 652 1578.4 651.2 1578.4 636.7 1589.6 632 1715.5 632.6 1715.7 641.7 1739.6 641.9 1739 673.2 1716.8 673.3 1716.1 693.4 1502.4 691 1502.9 665.3 1503.3 631.4 1530.7 631.9 Z" data-holc_grade="C"/>
<path d="M 1811.9 422.8 1738.5 450.9 1715.4 459.8 1713.5 456.8 1713 433 1716.3 416.5 1763 416.5 1764.6 364.8 1795.3 365 1815.4 368.2 1811.9 422.8 Z" data-holc_grade="C"/>
<path d="M 1719.2 532.4 1706.9 532.2 1706.6 502 1717.6 502.3 1717.6 499.8 1716.3 483 1797.6 483 1796.3 457.6 1811.2 457.6 1811.2 499.5 1811.2 532.4 1791.1 532.2 1789.8 518.8 1764.9 519 1764.9 532 1719.2 532.4 Z" data-holc_grade="C"/>
<path d="M 1810 599.3 1810.8 575.9 1848.1 583.1 1844.4 698.9 1904.5 698.5 1904 737.4 1855.8 738.8 1855.3 781.3 1805.3 780.2 1805.4 766.5 1806 757.8 1806 729.9 1810 599.3 Z" data-holc_grade="C"/>
<path d="M 1914.5 450.6 1903.5 450.7 1902.2 433.7 1821.6 434.9 1810.2 435 1811.5 451.6 1738.5 450.9 1811.9 422.8 1877.6 397.2 1897.3 398.8 1897 383.1 1997.1 399.4 1999 449.8 1914.5 450.6 Z" data-holc_grade="C"/>
<path d="M 1253.4 831.5 1254.3 890.7 1035.9 888.6 1036.2 828.5 1253.4 831.5 Z M 1131.7 836.4 1132 885.2 1234.3 885.7 1233.4 837.4 1198.7 837.6 1197.1 838.9 1179.9 838.7 1178.3 837.1 1131.7 836.4 Z" data-holc_grade="C"/>
<path d="M 1102.7 1079.1 1073.1 1078.3 1055.4 1024.9 1023.4 1022 1018.5 1011.1 1011.4 1010.6 975.8 930.3 1082.9 951.8 1082.9 1064.9 1102.7 1079.1 Z" data-holc_grade="C"/>
<path d="M 1073.1 1078.3 1102.7 1079.1 1140 1080.1 1142.6 1088.5 1126.9 1088.6 1110.2 1088.2 1110.2 1105.8 1091.6 1105.4 1092.9 1126.6 1083 1126.8 1089.2 1177.5 1050.4 1177.9 1049.7 1158.6 1038 1157.9 1029 1147.1 1033.8 1142.5 1034.2 1140.9 1002.1 1139.8 1018.9 1104.6 1054.9 1104.4 1070.7 1078.3 1073.1 1078.3 Z" data-holc_grade="C"/>
<path d="M 1099.2 1313.8 1041.5 1315 1006.1 1315.7 961.5 1262.7 961.3 1241.7 983.4 1241.7 983.1 1212.2 1040.9 1214.4 1085.1 1213.7 1084.9 1209.7 1101.6 1208 1104.8 1222.9 1097 1223.1 1097.3 1229.9 1134 1229.2 1134 1224.6 1147.5 1223.9 1149.9 1237.3 1156.1 1245.8 1175.8 1246.4 1174.7 1286 1173.6 1312.5 1126.7 1313.2 1099.2 1313.8 Z" data-holc_grade="C"/>
<path d="M 279.4 156.4 239.2 188.3 229.4 194.7 221.3 192.4 212.6 192 184.8 193.5 155.3 193.8 143.1 192.5 134.6 188.2 125.4 183 117.8 176.2 112.8 172.9 130.1 150.6 122.7 146.9 136.8 129.2 157.7 136.8 172.4 128.8 279.4 156.4 Z M 263.4 54.8 283.1 59.6 287.8 59.6 279.3 71.8 360.8 71.7 357.9 97.6 323.3 122.2 288.6 149.5 250.8 139.6 183.6 123.4 199 114.6 139.8 122.1 118.5 115 99.9 95.6 158.8 69.6 165.5 67 176.2 64.4 248 79.8 263.4 54.8 Z" data-holc_grade="C"/>
<path d="M 1327.8 1112.6 1306 1112.6 1305.9 1076.3 1289.2 1076.3 1288.4 1054 1179.6 1054.2 1179.9 1026.9 1141.8 1026.7 1141.6 1011 1137 1010.8 1133.5 997.4 1159.1 997.6 1158.8 958.1 1226 972.6 1243.6 972.6 1244.1 984.6 1250 984.7 1250.6 998.2 1298.1 997.8 1345.1 996.3 1345.1 1019.2 1342.9 1026.2 1329.9 1050.2 1329.6 1105.8 1329.7 1112.6 1327.8 1112.6 Z M 1228.8 1009.2 1228.8 1025.6 1250 1025 1249.8 1009.2 1228.8 1009.2 Z" data-holc_grade="C"/>
<path d="M 1313.8 790.9 1313.7 823.8 1205.3 823.3 1205.2 791.1 1313.8 790.9 Z M 1313.4 785.5 1205.2 784.3 1205 667.9 1205 660.4 1205.1 656 1220.6 651.2 1220.6 640.9 1229.7 632.1 1297.1 630.2 1233.1 652.4 1234 760.4 1289 761 1310.4 761.2 1312.1 761.3 1313.4 785.5 Z" data-holc_grade="C"/>
<path d="M 1316.6 934 1316.3 895 1349.3 894.8 1354.5 891.1 1410.8 891.8 1409.5 956 1374.2 954.9 1373.9 934 1356.1 933.6 1356.1 936.3 1341.2 936.3 1340.2 933.8 1316.6 934 Z M 1316.1 888.7 1314.6 832.6 1412.1 831.5 1411.1 884.6 1347.7 884.6 1343.8 888.4 1316.1 888.7 Z M 1411.2 821.2 1411.2 824.2 1313.7 823.8 1313.8 790.9 1407.9 790.7 1407.9 796.4 1407.7 821 1411.2 821.2 Z M 1338.5 784.4 1339.2 761.9 1407.5 761.7 1407.8 784.6 1338.5 784.4 Z" data-holc_grade="C"/>
<path d="M 1421.8 966.6 1421.4 1008.3 1387.3 1008.8 1386.8 1041.2 1375.8 1041.6 1376.3 1076.3 1391.1 1076.5 1391.6 1094.9 1424 1095 1423.8 1076.9 1443.6 1077.2 1444.7 1122.9 1337.6 1122.6 1337.4 1047.7 1347.1 1027.9 1351.4 1023.3 1352.3 979.4 1385.1 979.6 1385.8 962.5 1421.8 962.9 1421.8 966.6 Z" data-holc_grade="C"/>
<path d="M 1318.1 1260.8 1318.1 1164.8 1327.8 1164.5 1327.8 1129.7 1444.8 1130.6 1445 1154.8 1377.6 1154.2 1378.1 1189.6 1332.5 1189.2 1333.4 1275.1 1318.3 1270.9 1318.1 1260.8 Z" data-holc_grade="C"/>
<path d="M 1693.7 730.1 1663.9 730.2 1612.7 728.1 1578.1 728.8 1534.4 729.3 1534.4 762.4 1615.7 762.8 1614.6 789.9 1535.5 790.6 1505.9 790.7 1505.1 776.8 1485.6 776.4 1484.5 785.1 1463 784.9 1456.4 786.6 1428.5 786.6 1428.5 761.5 1453.8 761.2 1453.4 730.2 1413.3 730.6 1412.6 710.2 1386.4 709.7 1386.7 700.4 1504.3 700 1627.3 702 1691.7 702.5 1693.7 730.1 Z" data-holc_grade="C"/>
<path d="M 1506.4 887 1526.6 886.6 1528 957 1424.1 956.2 1425.2 890.8 1422.8 885.7 1422.2 864.7 1431.1 866 1428.7 868.8 1430.6 885.1 1437.1 887.9 1506.4 887 Z" data-holc_grade="C"/>
<path d="M 1652.1 856.3 1651.8 887.4 1691.2 887.9 1696.4 891 1712.8 891.3 1712.8 894.9 1712.8 937.1 1714.2 958.1 1641.6 958.3 1563.3 956.8 1528 957 1526.6 886.6 1553.4 886.4 1553.4 873.4 1609.2 873 1609.7 856 1607 854.3 1606.2 822.7 1614.3 822.7 1614.1 815.1 1607 814.9 1606 803.2 1614.1 803.2 1614.3 798.3 1652.6 799.3 1652.1 856.3 Z" data-holc_grade="C"/>
<path d="M 1714.2 1029.4 1694.9 1029.1 1694.3 1042.3 1714 1042.5 1713.4 1088.1 1618.1 1054.7 1534.3 1019 1529.2 1013.2 1438.1 968.5 1433.8 961.8 1629.3 964.5 1629.7 992.4 1715.2 993.3 1714.5 1007.5 1714.2 1029.4 Z" data-holc_grade="C"/>
<path d="M 1712.7 1098 1712.4 1122.1 1628 1121 1623.2 1119.8 1621.8 1117 1642.1 1117.4 1640.7 1101.5 1622.1 1101.7 1621.8 1065 1626.4 1066.8 1712.7 1098 Z M 1712.3 1128.7 1711.9 1155.9 1445 1154.8 1444.8 1130.6 1444.7 1122.9 1443.6 1077.2 1457.3 1077.4 1458.2 1101.8 1526 1102.7 1525.5 1059.6 1507.4 1059.3 1507.7 1026.2 1472 1025.5 1471.6 1013.3 1460.1 1013 1460.1 1005.9 1444 1005.6 1443.8 1008.6 1421.4 1008.3 1421.8 966.6 1431.3 973.2 1544.6 1033.3 1612.2 1061 1614 1128.4 1712.3 1128.7 Z" data-holc_grade="C"/>
<path d="M 239.2 188.3 279.4 156.4 301.1 163.1 321.4 166.6 468.1 218.1 525.3 237.5 478.1 237 456 237.4 445.3 239.6 424.1 268.1 414.4 272 350.4 248.9 324.8 284.3 308.7 268.1 301 254.8 317.9 232.8 291.8 216.3 273.5 210.7 259.7 204.5 248.5 192.1 239.2 188.3 Z M 716 173 685.1 173.4 683 185.6 639.7 185.4 638.8 198.6 566 198.3 565.5 188.9 492.7 188.3 493.1 205.4 493.1 219.4 358.9 171.2 370.7 155.9 366.3 153.9 366 137.5 411.5 137.3 414.5 125.1 417.2 108.5 426.9 108.7 425.7 121.3 453.3 121 453.4 127.4 448.2 143.5 447.9 168.8 542.1 167.8 543.4 158.9 640.4 158.3 639.6 168.3 715.5 167.6 716 173 Z" data-holc_grade="C"/>
<path d="M 1693.7 730.1 1806 729.9 1806 757.8 1666.5 757.4 1666.5 766.2 1805.4 766.5 1805.3 780.2 1805.1 797.8 1712.8 796.6 1713.4 832.7 1692.1 832.5 1692.4 856.8 1652.1 856.3 1652.6 799.3 1614.3 798.3 1614.6 789.9 1615.7 762.8 1620.2 761 1620.2 756.5 1605.6 746.9 1603.4 742 1591.4 736.5 1584.2 733.6 1578.1 728.8 1612.7 728.1 1663.9 730.2 1693.7 730.1 Z" data-holc_grade="C"/>
<path d="M 1714.2 958.1 1712.8 937.1 1712.8 894.9 1750.8 895.4 1841.5 896.5 1840.6 907 1839.8 909.5 1840.6 926.9 1837.8 931.6 1833.7 931.7 1832.9 934.3 1830.5 941.5 1825.7 944 1826.2 962.6 1788.6 962.7 1788.2 987.4 1714.1 986.8 1714.2 958.1 Z" data-holc_grade="C"/>
<path d="M 1712.7 1098 1803 1124.4 1712.4 1122.1 1712.7 1098 Z M 1775.6 1223.2 1711.2 1222 1713.2 1158 1711.9 1155.9 1712.3 1128.7 1805.1 1131.2 1805.7 1146.7 1827.3 1147.1 1827.8 1112.3 1806.7 1111.5 1806.2 1117.2 1713.4 1088.1 1714 1042.5 1714.2 1029.4 1714.5 1007.5 1902.8 1011.3 1903.3 1225.4 1775.6 1223.2 Z M 1795.5 1075 1806.6 1075.4 1805.8 1060.8 1795.3 1060.8 1795.5 1075 Z" data-holc_grade="C"/>
<path d="M 541.5 610 586.5 610 588.4 611.3 589.5 639.3 624.9 639.3 626.5 659.9 680.4 659.1 682.6 727.4 664.5 725 649.9 724.2 648.6 704.7 638.6 704.4 628.9 704.3 627 679.9 608.7 679.7 607.9 667.3 589 666.9 589.2 651.8 571.2 652 570.6 640.1 552.8 639.7 552.3 617 513.7 617.4 480.8 610.9 472.9 608.3 460.8 609.2 453.8 602.8 444.2 594.9 482.7 589.4 511 589.4 517.5 593 527.2 603.8 528 610 541.5 610 Z" data-holc_grade="C"/>
<path d="M 649.9 724.2 664.5 725 664.8 746.9 694.2 754.5 678 785.5 710.9 794.2 708.5 799.3 720.4 802.9 714.7 813.9 732 819.5 760 765.6 785.1 772.5 764 820.7 756.2 838.4 778.6 844.9 772.4 858.1 771.4 862.5 771.4 891.8 760.8 891.5 751.1 891.2 750.7 874.9 750.3 858.7 726 858.3 712.8 841.3 711.5 839.2 712.3 834.7 693.4 829.7 679.9 858.5 679.9 865.7 654.6 871.8 659.5 860.9 677.9 822.8 660 818.1 674.4 791 664.1 783.1 653.5 773.4 645.9 769.1 638.8 769.1 630 771.5 629.7 758.5 641 757.9 642.9 755.6 641 723.7 649.9 724.2 Z" data-holc_grade="C"/>
<path d="M 646.6 966.9 647.2 962 648 938.8 638.5 938.2 639.1 904.6 666.9 906.3 666.9 918 682.3 919.5 682.5 925.6 713 927.3 710.3 990.1 649.9 987.8 646.6 966.9 Z" data-holc_grade="C"/>
<path d="M 832.8 1032.8 820.1 1043.8 809.8 1056.5 801.7 1067.8 801.5 1074.3 802 1082.1 797.4 1077.9 789.6 1076 789.1 1073.3 785 1069.7 781.2 1065 783.4 1058.6 785.8 1054.8 796.9 1053.3 795 1051.8 788 1048.7 784.5 1044.2 785.8 1037.8 783.7 1036.1 775.8 1038.9 764.2 1035.5 751.8 1035.5 750.5 1008.1 740.5 1008.1 740 985.9 779.9 986.1 782.3 981.6 792.3 978.4 804.2 976.5 813.8 976.4 827.1 997.5 825.6 1004.3 820.9 1012.2 813.1 1019 812.9 1032.8 832.8 1032.8 Z" data-holc_grade="C"/>
<path d="M 842 362.9 783.7 363.3 783.7 334 812.7 333.5 843.1 333 842 362.9 Z M 769.5 334.3 768.8 363 684 362.6 683.5 367.7 633.1 367.3 627 364.4 623.8 360.5 624 357.3 627.9 354.7 629.8 350.6 634.8 346.7 635.7 344.2 633.3 342.3 625.5 344.9 621.4 346.1 618.4 343.2 618.2 334.2 650.3 334.7 657.9 334.8 657.9 240.2 704.1 240 705 277.2 690.9 277.2 691.1 285.5 770.1 286.3 770.1 301.8 729.1 302.1 729.6 334.3 769.5 334.3 Z" data-holc_grade="C"/>
<path d="M 842.7 284.5 842.5 270 896 269.4 900.7 237.5 902.7 220.6 869 220.4 868.6 196.8 845.5 196.8 845 214.8 781.8 214.7 782 189.3 783.3 171.1 801 175.7 823 170.7 873.7 178.4 956.9 198 957.9 226.6 957.1 301.1 895.3 301.7 894.9 284.2 842.7 284.5 Z" data-holc_grade="C"/>
<path d="M 684.1 400.8 683.4 370.7 768.6 371.9 767.9 429 684.7 428.8 684.1 400.8 Z M 957.7 424.2 903.6 424.9 903.6 422.2 805.2 420.8 801.9 504.3 780.9 504.9 781.1 493.8 781.9 443.7 783.1 370.7 958 369.8 957.7 424.2 Z" data-holc_grade="C"/>
<path d="M 1130.7 296.1 1130.9 315.8 1130.6 315.8 969.5 316.2 969.5 253.9 971.7 223.7 1008.9 232.7 1007.8 247.8 1070.7 248 1071.5 256.1 1122.5 256 1131.7 260.7 1131.7 264.3 1197.8 268.6 1196.5 295.9 1130.7 295.9 1130.7 296.1 Z" data-holc_grade="C"/>
<path d="M 1107.6 342.4 1107.8 342.4 1108.2 366.9 970 366.9 969.5 316.2 1130.6 315.8 1130.6 324.8 1040.7 325.4 1040.7 325.5 1040.4 325.5 1040.6 342.6 1107.6 342.6 1107.6 342.4 Z M 1205.6 367.1 1129 367.1 1130 350.8 1205.9 350.5 1205.6 367.1 Z" data-holc_grade="C"/>
<path d="M 1289.9 367 1289.4 422.1 1244.3 422.6 1243.7 444.7 1116.5 444.7 1116.5 465.3 1102.2 464.9 1101.2 446.2 1074.5 446.6 1075 463.8 1065.5 464 1065.5 500 1023.5 500 992.1 500.4 969.2 500.6 969.1 488.4 1032.5 488.2 1035.1 432.6 1214.8 432.2 1213.7 404.8 1213.5 401.6 1205.1 401.8 1205.2 395.9 1205.6 367.1 1205.9 350.5 1206.4 316.8 1244.6 317 1244.3 356 1290.3 356.2 1289.9 367 Z" data-holc_grade="C"/>
<path d="M 957 498.6 854.4 500 844.7 504 833 504.7 801.9 504.3 805.2 420.8 903.6 422.2 903.6 424.9 957.7 424.2 957 498.6 Z" data-holc_grade="D"/>
<path d="M 957 498.6 955.7 570.5 952.5 677.8 914.6 677.8 914.3 648.7 871.5 622 844 605.4 845 584.1 829.8 573 831.1 541.5 829.8 529.2 832.3 518.1 833 504.7 844.7 504 854.4 500 957 498.6 Z" data-holc_grade="D"/>
<path d="M 969.1 488.4 970.4 403.4 1213.7 404.8 1214.8 432.2 1035.1 432.6 1032.5 488.2 969.1 488.4 Z M 1205.6 367.1 1205.2 395.9 970.4 394.8 969.7 367.1 1129 367.1 1205.6 367.1 Z" data-holc_grade="D"/>
<path d="M 1103.9 783.6 1103.5 792.7 1082.8 792.2 1083.1 798.8 1103.2 798.8 1103.5 821.5 1035.2 820.3 1034.9 783.1 1103.9 783.6 Z M 1104.2 763.8 1104.5 778.1 1034.9 777.9 1034.9 763.4 1104.2 763.8 Z M 1205 667.9 1205.2 784.3 1205.2 791.1 1205.3 823.3 1111.4 821.4 1111.4 792.3 1164.8 792.6 1165.1 763.3 1113 763.5 1112.5 759.5 1035.3 759 1035.3 733.1 1116.8 702.3 1205 667.9 Z M 1205.1 656 1205 660.4 1154.3 680.1 1033.8 727.5 977.2 726.9 977.9 698.6 1018.3 681.1 1036.1 680.9 1036.2 708.3 1046.4 708.7 1046.8 711.7 1060.7 712.2 1060.1 681.9 1087 681.7 1087.2 663.9 1183.5 663.6 1205.1 656 Z" data-holc_grade="D"/>
<path d="M 1314.6 832.6 1316.1 888.7 1316.3 895 1316.6 934 1316.6 957.6 1281 957.6 1280.6 947.4 1264.4 947.6 1237.9 956.5 1236.9 966.7 1091.5 935.2 1054.6 917.7 1052 896.1 1254.4 897 1254.3 890.7 1253.4 831.5 1314.6 832.6 Z" data-holc_grade="D"/>
<path d="M 682.6 727.4 680.4 659.1 626.5 659.9 624.9 639.3 589.5 639.3 588.4 611.3 586.5 610 541.5 610 541.5 597.1 607 596.8 607 578.4 635.9 568.8 652.4 564.8 679.9 583.2 681 614.9 698 614.9 702 728.5 682.6 727.4 Z" data-holc_grade="D"/>
<path d="M 760 765.6 732 819.5 714.7 813.9 720.4 802.9 708.5 799.3 710.9 794.2 678 785.5 694.2 754.5 704.1 738.6 747.9 750.2 742.1 760.6 760 765.6 Z" data-holc_grade="D"/>
<path d="M 832.8 1032.8 812.9 1032.8 813.1 1019 820.9 1012.2 825.6 1004.3 827.1 997.5 813.8 976.4 778.3 919.9 779.8 892.2 771.4 891.8 771.4 862.5 772.4 858.1 778.6 844.9 756.2 838.4 764 820.7 779.2 824.3 802.7 776.4 819.3 780.3 814.2 792.7 848.7 801.8 821.7 856.4 820.9 895.6 835.3 895.9 856.5 938.7 856.9 1015.1 850.2 1032.8 832.8 1032.8 Z" data-holc_grade="D"/>
<path d="M 802 1082.1 843.6 1082.9 854.8 1098.3 855.7 1182.2 825.1 1182.8 825.1 1159.5 822.9 1158 803.5 1157.7 790.1 1094.1 781.5 1091.4 780.2 1081.7 802 1082.1 Z" data-holc_grade="D"/>
<path d="M 1378.1 1189.6 1377.6 1154.2 1445 1154.8 1711.9 1155.9 1713.2 1158 1711.2 1222 1775.6 1223.2 1774.9 1278.9 1769.5 1287.4 1604.8 1286.5 1380.3 1287.1 1378.1 1189.6 Z M 1719.2 532.4 1720.3 566.6 1810.4 566.2 1810.8 575.9 1810 599.3 1765.1 599.7 1764.8 627.4 1717.1 626.9 1717.3 598.1 1676.6 598.1 1676.9 582.5 1693.3 582.3 1693.3 559 1671.5 558.8 1668.5 560.3 1656.4 560.2 1656.9 531.4 1706.9 532.2 1719.2 532.4 Z M 1690.8 433 1602.1 433.2 1602.9 460.6 1527.6 460.2 1526.5 497.4 1481.3 497.7 1481.9 465.9 1384.1 466.6 1385.4 433.6 1338.5 433.6 1338.2 439.1 1312.6 438.9 1311.6 433.2 1289.3 433.2 1289.4 422.1 1289.9 367 1573.5 367.3 1540.8 402.2 1620.5 402.4 1621.8 399.4 1693.7 398.1 1690.8 433 Z" data-holc_grade="C"/>
<path d="M 726.6 1219.1 741.3 1225.8 741.3 1220.6 746.1 1219.4 750.8 1221.2 761.6 1226.4 770.2 1234.3 775 1240.9 776.3 1247.6 792.7 1234.9 795.3 1235.8 793.5 1264.8 785.8 1268.2 753 1267.6 743 1271.2 736.6 1271.5 716.7 1266.3 706.3 1269.4 705.5 1211.2 716.7 1207.6 718 1217.3 726.6 1219.1 Z M 616.2 1186.7 617.3 1202.2 590 1203 590 1250.9 473.2 1251.6 474 1282.9 438.4 1282.7 438.1 1247.7 452.2 1217 452.4 1209.6 474 1210 474.6 1199.2 544.2 1200.9 545.5 1186.2 616.2 1186.7 Z M 825.1 1182.8 828.9 1191.9 832.4 1197.9 843.2 1204.3 844.9 1211.5 850.5 1212.2 850.5 1225.5 807.8 1225.2 807.4 1217.3 765.1 1216.4 764.2 1201 780.2 1201 781.5 1183.1 825.1 1182.8 Z M 682.9 1128.6 690.7 1130.3 699.1 1134.9 717.9 1135.1 723.6 1140.7 727.1 1140.7 733.9 1140 737.9 1137.5 741.1 1137 743.6 1138.7 744.7 1142.6 740.1 1145.7 724.7 1147.6 727.4 1149.8 733.6 1150 740.6 1152.1 744.1 1151.9 747.9 1149.3 751.7 1148.3 754.9 1149.5 754.9 1152.7 750.9 1157 746 1161 743.8 1167 743 1169.7 734.1 1164.6 723.1 1163.1 719.3 1160.8 715 1157.4 715.2 1183.5 706.1 1182.4 685.6 1181.4 675.3 1185.2 668.3 1191.6 665.6 1191.6 643.5 1148.9 642.4 1141.7 643.2 1136.8 672.9 1132.6 682.9 1128.6 Z M 496.7 1120.5 544.7 1120.9 544.2 1103.9 554.4 1107.5 554.4 1097.4 569.8 1089.5 589 1090.4 589 1105 646.7 1106.3 626.2 1154.4 451.4 1151 452.2 1119.7 404.7 1119.6 403.9 1074.5 421.7 1075.7 441.6 1079.6 471.1 1091 495.6 1101.8 496.7 1120.5 Z M 430.6 896.3 432.8 902.3 436.8 901.8 447.3 901.1 453.7 902.5 464.4 906.7 471.2 909.5 481 911.5 484.3 914 490 916.7 488.6 922.6 488.8 934.2 481.7 934.1 470 935.2 460.8 938.7 453.6 937.9 445.3 942.9 437.5 945.1 428.9 944.6 413 939.5 410.7 935.4 407.4 933.3 395 933.1 389.7 931.7 385.2 926.8 385.5 923.3 390 920.2 390.2 908.9 401.4 908.4 401.4 906.4 409.3 905.9 410.6 900 411.9 898.6 413.5 889.9 415.9 889.3 423.2 895.5 430.6 896.3 Z M 415.9 903.8 415.6 905.9 406.4 909.5 402.3 911.9 404.7 917.3 409.3 919.7 426.6 919.5 430.6 920.5 432.8 925.4 446.8 924.5 455.6 924.7 464.3 922.2 469.8 921.8 472.4 916.7 471.2 913.3 466.5 912.3 459.6 913 452 913.6 443.2 908.1 428.3 907 424.9 905.9 423 903 418.3 902.4 415.9 903.8 Z M 750.7 874.9 751.1 891.2 760.8 891.5 760.8 894.2 760 896.9 754.6 901.4 744.4 905.8 730.3 910.1 712.8 912.2 703.6 911.6 705 879.3 713.1 874 750.7 874.9 Z" data-holc_grade="B"/>
</g>
</svg>