<?xml version="1.0"?>
<svg xmlns="http://www.w3.org/2000/svg" version="1.2" baseProfile="tiny" width="3000" height="3354" viewBox="0 0 3000 3354" stroke-linecap="round" stroke-linejoin="round">
<g id="A">
<path d="M 1940.5 935.9 2010.2 931.3 2015.8 860.5 2041.8 861.2 2046 802.3 2040.4 787.6 2055.8 757.5 2064.3 727.3 2067.8 693.7 2093.1 628.5 2128.9 526.9 2174 535.3 2206.3 532.5 2232.3 463.8 2232.3 417.6 2232.3 408.5 2247.1 386.7 2271.7 381.8 2297 376.9 2316.7 353.1 2332.2 355.2 2330.7 366.4 2339.2 384.6 2343.5 564.7 2349.1 580.8 2370.2 624.2 2399.8 685.9 2438.5 743.3 2499 810.6 2531.4 832.3 2539.1 847 2534.9 895.4 2551.1 917.8 2559.6 956.4 2577.9 977.4 2587.8 1004.7 2592 1040.4 2575.1 1071.3 2364.8 1126.8 2061.6 1203.9 1967.3 1209.6 1940.5 935.9 Z" data-holc_grade="A"/>
<path d="M 2077.6 3334.2 2133.4 3282.6 2060.8 3207.6 1974.3 3044.6 1927.4 3032.1 1891.4 3017.7 1845.4 2998.9 1836.4 3000.7 1817 2989.4 1806.6 2977.8 1807.4 2977.2 1856.6 2939.6 1874.2 2889.3 1877.6 2856.1 1953.5 2860.2 1974 3025 1988.1 3031.4 2176.8 2978.7 2141.5 2844 2222 2845.4 2219.4 2852.4 2210.8 2881.6 2213.5 2900 2214 2931 2224.4 2960.2 2226.6 3060.7 2245.1 3092.6 2293.8 3208 2288.9 3275.3 2278.1 3343.1 2077.6 3334.2 Z" data-holc_grade="A"/>
<path d="M 868 2910.3 981.1 2993.4 1019.8 3000.6 967.1 3164.9 977.9 3270.5 935 3338.9 932.3 3343.2 466.6 3345.8 467.2 3345 588.1 3181 660.3 2912.1 661.5 2912.7 793.2 2977.7 864.4 2907.7 868 2910.3 Z" data-holc_grade="A"/>
</g>
<g id="B">
<path d="M 2056.8 2474.9 2173.8 2448.4 2199.9 2558.5 2185.8 2640.6 2246.4 2726.2 2262.6 2773.1 2238 2812.4 2237.3 2829.3 2222.5 2845.4 2222 2845.4 2141.5 2844 2176.8 2978.7 1988.1 3031.4 1974 3025 1953.5 2860.2 1877.6 2856.1 1875.4 2856 1877.5 2834.3 1864.1 2798.5 1833.1 2774.6 1819.8 2758.5 1788.8 2720.6 1749.4 2723.5 1728.2 2712.9 1702.2 2705.9 1674 2719.3 1664.9 2701.7 1631.1 2653.3 1782.4 2522.2 1722.4 2455.4 1726.2 2452.6 1735.2 2462.5 1855.6 2374.9 1899.5 2581.3 1933.6 2573.6 1965.5 2572.5 2011.7 2558.3 2077.7 2540.7 2056.8 2474.9 Z" data-holc_grade="B"/>
<path d="M 1806.6 2977.8 1817 2989.4 1836.4 3000.7 1845.4 2998.9 1891.4 3017.7 1927.4 3032.1 1974.3 3044.6 2060.8 3207.6 2133.4 3282.6 2077.6 3334.2 1751.7 3336.6 1717.4 3251.2 1697.2 3251.2 1682.3 3247.2 1656.1 3233.2 1625.9 3218 1595.8 3214.4 1571.1 3212.1 1492.3 3138.3 1483.7 3168.8 1477.3 3224.8 1471.3 3338.7 1311 3339.8 1379.2 3087.7 1372.6 2968.2 1442 2714 1477.7 2814.4 1506.1 2935.1 1467.8 3025.4 1460.6 3086 1508.3 3113.4 1567.8 3163.7 1572.5 3168.3 1594.4 3189.7 1653 3227.4 1694.9 3167.2 1704.4 3119.2 1708.4 3067.6 1722.8 3033 1743.6 3007.9 1758 3005.2 1771.8 2994.4 1793.1 2977.8 1806.6 2977.8 Z" data-holc_grade="B"/>
<path d="M 1211.4 3341.7 1210.7 3344.3 935 3338.9 977.9 3270.5 967.1 3164.9 1019.8 3000.6 981.1 2993.4 868 2910.3 880.7 2742.9 881.6 2725 924.4 2709.3 984.8 2660.3 1054.1 2735.3 1146.7 2647.7 1193.9 2580.4 1165.7 2546 1151 2522.1 1137.6 2496.9 1118.6 2478 1115.1 2463.2 1223.5 2415.6 1253.7 2466.8 1232.6 2502.5 1274.1 2525.7 1267.8 2741 1367.1 2739.6 1365.5 2783.4 1331.2 2900.1 1277.6 3095.9 1211.4 3341.7 Z" data-holc_grade="B"/>
<path d="M 1940.5 935.9 1984.8 804.5 1873.7 805.2 1873 791.2 1888.3 752 1902.2 717 1913 683.4 1918 653.8 1928.8 619.3 1934.2 601.8 1960.7 552.9 1936 543 1909.9 542.1 1939.6 476.2 2049.4 213 2104.2 203.9 2181.6 112.8 2289.9 95.9 2314.5 165.3 2213.9 190.5 2177.4 294.3 2196.4 287.9 2217.5 311.8 2247.1 386.7 2232.3 408.5 2232.3 417.6 2232.3 463.8 2206.3 532.5 2174 535.3 2128.9 526.9 2093.1 628.5 2067.8 693.7 2064.3 727.3 2055.8 757.5 2040.4 787.6 2046 802.3 2041.8 861.2 2015.8 860.5 2010.2 931.3 1940.5 935.9 Z" data-holc_grade="B"/>
<path d="M 2575.1 1071.3 2554.3 1100.8 2536.3 1148.8 2535.4 1173 2533.6 1189.6 2522.8 1205.3 2522.8 1213 2513.8 1221.9 2510.7 1234.9 2499.9 1266.4 2437.7 1265 2384.6 1262.8 2322 1266 2158.1 1276.8 2149.5 1291.2 2143.3 1325.7 2110.4 1324.4 2109.5 1351.7 2119.4 1386.3 2066.3 1393.9 2064.5 1367.9 2062.2 1357.6 2058.1 1326.2 1953.7 1337.9 1957.3 1373.7 1962.2 1397.5 1965.4 1446.4 1947.4 1449.6 1924.9 1465.3 1844.7 1357.2 1828.9 1343.7 1818.6 1348.2 1800.1 1205.1 1798.7 1182.2 1795.1 1134.7 1792 1098.3 1786.6 1085.3 1785.7 1048.1 1868.5 1044.9 1871.2 1024.7 1839.2 986.6 1836.5 943.1 1940.5 935.9 1967.3 1209.6 2061.6 1203.9 2364.8 1126.8 2575.1 1071.3 Z" data-holc_grade="B"/>
<path d="M 2337.5 1663 2472 1458.8 2580.9 1249.3 2612 1263.6 2629.1 1268.1 2709.3 1312.9 2799.4 1352.8 2887.2 1394.9 2866.5 1444.3 2833.7 1554.7 2787 1738.7 2714.9 1699.7 2692.4 1698.3 2625.7 1665.6 2611.3 1693.4 2610 1702 2601 1724.4 2598.7 1737 2583 1773.3 2337.5 1663 Z M 2460.4 1554.9 2571.2 1611.8 2579.3 1594.7 2645 1626.1 2665.7 1588 2528.8 1524.8 2460.4 1554.9 Z" data-holc_grade="B"/>
<path d="M 1170.9 736.5 1159.7 770.8 1157.5 783.5 1147.7 810.8 1084.4 794 1066.1 868.2 1052.7 864.7 940.2 795.3 928.9 863.3 935.2 907.5 942.2 948.8 672.8 995 677.7 1067.9 770.6 1060.2 786 1173.8 645.3 1197.6 660.7 1324.4 513.7 1320.9 475 1313.1 382.8 1286.5 354.7 1278.7 292.8 1189 262.6 1151.1 252.7 1131.5 254.2 1088 247.6 1067.8 244.3 1057.9 271.1 1051.6 299.2 1056.5 309.8 1034.8 381.5 1032 397 1044.6 401.9 1055.9 439.2 1058.7 505.4 944.5 574.4 821.1 758.7 814.2 758.7 681.7 666.6 631.3 636.3 660.7 658.8 683.1 650.4 753.2 559.6 761.6 521.5 571.6 360.4 600.2 360.3 742.8 268.9 743.2 265.8 716.3 255.9 687.6 242.4 618.5 233.3 573.6 220.7 483.9 213 428.5 204.6 405.4 195.5 355.7 192.7 329.7 227.8 322.7 260.2 320 501.4 285.7 564.7 283 717.4 277.4 745.5 325.1 656.1 428 679.3 552.1 822.8 531.1 817.2 512.2 912.1 524.8 929.7 444.9 1045.7 514.3 1027.4 585.8 907.2 567.6 879.7 662.9 943.7 705.6 967.6 717.5 1006.3 716.9 1116.8 731.6 1170.9 736.5 Z" data-holc_grade="B"/>
<path d="M 1308.7 1963.1 1307.8 2013.7 1295.2 2046.3 1168.1 2038.9 1013.1 1979.7 1001 2002.7 879.1 1925.2 1028.5 1863.6 1074.7 1891 1224.2 1948 1308.9 1953.5 1308.7 1963.1 Z" data-holc_grade="B"/>
<path d="M 1440.7 2711.5 1418.9 2670.1 1261.6 2284.4 1260.5 2216.4 1300.1 2046.6 1295.2 2046.3 1307.8 2013.7 1308.7 1963.1 1313.3 1907.5 1380.4 1778.2 1389 1759.3 1467.3 2137.6 1488.2 2190.5 1726.2 2452.6 1722.4 2455.4 1641.3 2516.7 1555.3 2580 1455.6 2684.5 1442 2709.1 1440.7 2711.5 Z" data-holc_grade="B"/>
</g>
<g id="C">
<path d="M 1263.7 788.3 1239.1 758.9 1170.9 736.5 1116.8 731.6 1006.3 716.9 967.6 717.5 943.7 705.6 879.7 662.9 907.2 567.6 1027.4 585.8 1045.7 514.3 929.7 444.9 912.1 524.8 817.2 512.2 822.8 531.1 679.3 552.1 656.1 428 745.5 325.1 717.4 277.4 803.2 204.5 916.6 98.4 995.6 62.5 1059.1 35.2 1244.5 1 1526.1 11.3 1584.4 14.7 1687.5 48.9 1745.8 74.6 1689.2 199.4 1651.4 317.5 1629.1 399.6 1558.7 548.4 1399 695.6 1386.8 688.4 1276.9 781.2 1263.7 788.3 Z" data-holc_grade="C"/>
<path d="M 1696.5 1092.5 1694.7 1022.1 1709.6 980.8 1709.6 963.8 1713.3 933.5 1767.4 714.8 1778 692.4 1878.5 454.1 1855.3 346.9 1844.7 325.9 1796.2 272.6 1865.1 122.7 1998.7 110.7 2019.1 119.8 2091.6 119.1 2181.6 112.8 2104.2 203.9 2049.4 213 1939.6 476.2 1909.9 542.1 1936 543 1960.7 552.9 1934.2 601.8 1928.8 619.3 1918 653.8 1913 683.4 1902.2 717 1888.3 752 1873 791.2 1873.7 805.2 1984.8 804.5 1940.5 935.9 1836.5 943.1 1839.2 986.6 1871.2 1024.7 1868.5 1044.9 1785.7 1048.1 1786.6 1085.3 1792 1098.3 1795.1 1134.7 1798.7 1182.2 1774.9 1174.6 1765.4 1181.8 1719.5 1185.4 1719.5 1167.4 1712.7 1154 1696.5 1092.5 Z" data-holc_grade="C"/>
<path d="M 1170.9 736.5 1239.1 758.9 1263.7 788.3 1292.6 822.7 1346.1 873.2 1469.2 932.1 1541.6 970.6 1709.6 963.8 1709.6 980.8 1694.7 1022.1 1696.5 1092.5 1582.2 1087.1 1514.6 1072.3 1512.8 1134.7 1396 1135.3 1303.8 1151.4 1262.3 1164 1210.3 1094.7 1144.1 1130.4 1083.6 1170.3 951.3 1262.8 923.2 1293 909.1 1340.2 906.6 1340 904.3 1356.2 895.5 1417.8 846.1 1418.8 827.4 1439.6 828.5 1456.1 824.1 1475.8 844 1604.1 716.9 1616.1 643 1575 622.4 1559.6 637.9 1532.2 617.3 1499.7 583 1479.1 552 1451.7 512.5 1450 483.3 1496.2 428.4 1465.4 414.6 1432.8 344.2 1372.9 292.7 1350.6 258.4 1311.2 284.2 1259.9 206.9 1123 174.3 1111 85 1063 73.8 1046.3 50.7 1011.6 43.9 929.5 16.4 888.4 113.1 800.8 220.9 724.2 266.9 1009 271.1 1051.6 244.3 1057.9 247.6 1067.8 254.2 1088 252.7 1131.5 262.6 1151.1 292.8 1189 354.7 1278.7 382.8 1286.5 475 1313.1 513.7 1320.9 660.7 1324.4 645.3 1197.6 786 1173.8 770.6 1060.2 677.7 1067.9 672.8 995 942.2 948.8 935.2 907.5 928.9 863.3 940.2 795.3 1052.7 864.7 1066.1 868.2 1084.4 794 1147.7 810.8 1157.5 783.5 1159.7 770.8 1170.9 736.5 Z" data-holc_grade="C"/>
<path d="M 2437.7 1265 2425.6 1272.2 2410.7 1271.8 2408 1281.2 2390.5 1295.6 2368.4 1283.5 2363.9 1295.6 2350.8 1296.9 2333.7 1292 2320.2 1302.3 2288.7 1301.4 2276.5 1306.4 2269.3 1336.4 2268.9 1364.7 2282.4 1387.1 2278.4 1416.7 2276.6 1454.6 2279.5 1464.1 2287.5 1487.1 2172.8 1501.1 2122.2 1505.4 2089.1 1519.4 2058.1 1527.1 2005.4 1525 1970.2 1537.6 1924.9 1465.3 1947.4 1449.6 1965.4 1446.4 1962.2 1397.5 1957.3 1373.7 1953.7 1337.9 2058.1 1326.2 2062.2 1357.6 2064.5 1367.9 2066.3 1393.9 2119.4 1386.3 2109.5 1351.7 2110.4 1324.4 2143.3 1325.7 2149.5 1291.2 2158.1 1276.8 2322 1266 2384.6 1262.8 2437.7 1265 Z" data-holc_grade="C"/>
<path d="M 2337.5 1663 2583 1773.3 2598.7 1737 2601 1724.4 2610 1702 2611.3 1693.4 2625.7 1665.6 2692.4 1698.3 2714.9 1699.7 2787 1738.7 2833.7 1554.7 2866.5 1444.3 2887.2 1394.9 2799.4 1352.8 2709.3 1312.9 2629.1 1268.1 2612 1263.6 2669.5 1214.2 2715.2 1179.2 2775 1136.4 2893.1 1047.3 2936.7 1073.9 2988.1 1090 2988.2 1155.9 2984 1287.7 2979.8 1358.5 2978.5 1428.6 2991.2 1541.4 2999 1611.5 2990.6 1758.8 2993.6 1931.9 2998.6 2065.9 2997.3 2245.4 2934.6 2232.1 2911.4 2226.5 2876.2 2209.7 2839.7 2312.8 2835.5 2343 2816.5 2425 2804.6 2481.8 2748.9 2477 2731.3 2465 2718.7 2468.6 2710.2 2461.5 2701.8 2466.5 2688.4 2461.6 2676.4 2446.8 2668.7 2454.6 2656 2449.7 2644.7 2456 2583.5 2371.8 2630.6 2360.6 2667.2 2326.2 2670 2306.6 2671.4 2268 2671.4 2221.7 2706.5 2064.5 2740.8 1943.5 2744.4 1914.5 2739.5 1912.5 2705.7 1912.5 2689.5 1901.3 2658.5 1892.9 2631.1 1879.6 2564.2 1823.5 2527.6 1867 2481.2 1939.9 2411.6 2029.7 2380.6 2055.7 2353.2 2010.8 2353.1 1998.2 2337.7 1977.1 2255.2 1768.9 2259.4 1722 2285.5 1684.8 2337.5 1663 Z" data-holc_grade="C"/>
<path d="M 895.5 1417.8 900 1417.7 879 1529.5 877.9 1590.8 877.9 1634.6 906.5 1655.4 913.2 1659.6 865.3 1924.4 618.3 2007 557.8 2013.7 557.8 2013.6 513.8 2008.1 491.8 2020.1 300.2 2047.3 248.8 2026.6 218 2021.1 309.4 1791.1 306.1 1719.8 126.9 1668.3 14.7 1735 6.2 1345 1 828.5 16.4 888.4 43.9 929.5 50.7 1011.6 73.8 1046.3 85 1063 174.3 1111 206.9 1123 284.2 1259.9 258.4 1311.2 292.7 1350.6 344.2 1372.9 414.6 1432.8 428.4 1465.4 483.3 1496.2 512.5 1450 552 1451.7 583 1479.1 617.3 1499.7 637.9 1532.2 622.4 1559.6 643 1575 716.9 1616.1 844 1604.1 824.1 1475.8 828.5 1456.1 827.4 1439.6 846.1 1418.8 895.5 1417.8 Z" data-holc_grade="C"/>
<path d="M 1465.2 1639.9 1468.4 1646.8 1431 1667.6 1389 1759.3 1380.4 1778.2 1313.3 1907.5 1308.7 1963.1 1308.9 1953.5 1224.2 1948 1074.7 1891 1028.5 1863.6 879.1 1925.2 873.4 1921.6 865.3 1924.4 913.2 1659.6 906.5 1655.4 877.9 1634.6 877.9 1590.8 879 1529.5 900 1417.7 895.5 1417.8 904.3 1356.2 906.6 1340 909.1 1340.2 974.7 1346.6 1014.3 1337.8 1069.3 1355.3 1186.9 1319.2 1261.7 1303.9 1355.1 1305 1422.2 1307.2 1433.2 1332.4 1464 1366.3 1518.9 1412.3 1377.1 1457.2 1435.4 1576.6 1465.2 1639.9 Z" data-holc_grade="C"/>
<path d="M 2056.8 2474.9 2077.7 2540.7 2011.7 2558.3 1965.5 2572.5 1933.6 2573.6 1899.5 2581.3 1855.6 2374.9 1735.2 2462.5 1726.2 2452.6 1488.2 2190.5 1467.3 2137.6 1389 1759.3 1431 1667.6 1468.4 1646.8 1465.2 1639.9 1524.4 1607.3 1595.9 1512 1727.9 1584.3 1771.8 1647.8 1812.5 1621.5 1804.8 1715.7 1913.8 2025.8 2056.8 2474.9 Z" data-holc_grade="C"/>
<path d="M 557.8 2013.7 572.1 2059.6 556.5 2409.1 621.4 2430 556.5 2570.2 554.3 2607.5 575.1 2661.2 583.9 2719.3 590.5 2820.1 677.4 2847.5 661.5 2912.7 660.3 2912.1 588.1 3181 467.2 3345 105.5 3352 5.4 3353.3 15.1 3049.9 16 2773.5 64.7 2765 99.9 2757.4 123 2746.4 145 2725.6 153.8 2704.8 152.7 2687.3 159.3 2661 149.4 2632.5 158.3 2608.4 256.2 2593.1 313.4 2588.7 400.3 2583.3 430 2563.6 417.9 2467.1 424.6 2395.9 401.6 2160.3 393.9 2111 345.5 2069.3 299.3 2047.4 300.2 2047.3 491.8 2020.1 513.8 2008.1 557.8 2013.6 557.8 2013.7 Z" data-holc_grade="C"/>
<path d="M 879.1 1925.2 1001 2002.7 1013.1 1979.7 1168.1 2038.9 1295.2 2046.3 1300.1 2046.6 1260.5 2216.4 1261.6 2284.4 1418.9 2670.1 1440.7 2711.5 1442 2714 1372.6 2968.2 1379.2 3087.7 1311 3339.8 1211.4 3341.7 1277.6 3095.9 1331.2 2900.1 1365.5 2783.4 1367.1 2739.6 1267.8 2741 1274.1 2525.7 1232.6 2502.5 1253.7 2466.8 1223.5 2415.6 1115.1 2463.2 1118.6 2478 1137.6 2496.9 1151 2522.1 1165.7 2546 1193.9 2580.4 1146.7 2647.7 1054.1 2735.3 984.8 2660.3 924.4 2709.3 881.6 2725 880.7 2742.9 868 2910.3 864.4 2907.7 793.2 2977.7 661.5 2912.7 677.4 2847.5 590.5 2820.1 583.9 2719.3 575.1 2661.2 554.3 2607.5 556.5 2570.2 621.4 2430 556.5 2409.1 572.1 2059.6 557.8 2013.7 618.3 2007 865.3 1924.4 873.4 1921.6 879.1 1925.2 Z" data-holc_grade="C"/>
<path d="M 1751.7 3336.6 1742.2 3336.5 1588.5 3337 1524.1 3339.7 1471.3 3338.7 1477.3 3224.8 1483.7 3168.8 1492.3 3138.3 1571.1 3212.1 1595.8 3214.4 1625.9 3218 1656.1 3233.2 1682.3 3247.2 1697.2 3251.2 1717.4 3251.2 1751.7 3336.6 Z" data-holc_grade="C"/>
</g>
<g id="D">
<path d="M 1709.6 963.8 1541.6 970.6 1469.2 932.1 1346.1 873.2 1292.6 822.7 1263.7 788.3 1276.9 781.2 1386.8 688.4 1399 695.6 1449.5 756.9 1466.4 761.8 1507.9 767.4 1519.8 777.2 1522.6 719 1534.6 675.6 1609.8 514.4 1665.4 545.2 1687.9 572.5 1724.5 616.7 1745.6 653.1 1767.4 714.8 1713.3 933.5 1709.6 963.8 Z" data-holc_grade="D"/>
<path d="M 1924.9 1465.3 1970.2 1537.6 2005.4 1525 2058.1 1527.1 2089.1 1519.4 2122.2 1505.4 2172.8 1501.1 2287.5 1487.1 2286.1 1494.8 2293.2 1519.3 2292.5 1540.4 2300.9 1572.6 2312.2 1580.3 2304.5 1627.3 2270 1628 2234.8 1607 2196.8 1598.6 2161.6 1593 2101.1 1598.6 2083.5 1612.6 2020.2 1670.8 2008.9 1661.7 1989.2 1682.1 1778.1 1361 1818.6 1348.2 1828.9 1343.7 1844.7 1357.2 1924.9 1465.3 Z" data-holc_grade="D"/>
</g>
</svg>