<?xml version="1.0"?>
<svg xmlns="http://www.w3.org/2000/svg" version="1.2" baseProfile="tiny" width="3000" height="2290" viewBox="0 0 3000 2290" stroke-linecap="round" stroke-linejoin="round">
<g id="A">
<path d="M 1742.7 468 1752.6 535.8 1753.3 607.4 1696.8 605.4 1677.3 594.7 1661.9 565.3 1642.4 544.5 1619.5 520.5 1591.3 513.1 1561.1 497 1536.9 479.6 1519.4 463.6 1501.9 346.5 1499.1 327.2 1719.1 317.7 1723.7 338.5 1742.7 468 Z" data-holc_grade="A"/>
<path d="M 295.7 476.5 295.5 486 300.3 501.5 305.9 524.3 288.7 530.7 273.7 532.6 266.1 529.1 257.6 527.2 234.4 534.1 214 536.3 189 530.9 167.8 528.7 144.4 541 128.5 555.5 104.9 559.7 100.6 540.7 126.4 519.1 134.2 507.8 144.2 483 155.7 468 167.3 458.3 187.2 451.4 205.9 443.2 208.2 448.1 214 447.9 271.2 415.6 282.3 430.3 289.7 449.5 295.7 476.5 Z" data-holc_grade="A"/>
<path d="M 703.3 564.6 731.2 582.3 720.4 607.6 710 604.8 673.8 667.2 682.7 674.7 673 689 737.2 725 694.1 801.4 708.5 811 645.3 919.5 551.1 866.3 546.4 882.3 518.1 898 510.2 910.5 501.6 912.3 496.6 904.4 505.6 883 522.8 852 504.5 815.9 511.3 805.6 542.9 787 570.1 760.3 585.6 752.4 544 726 531.8 746.4 514.2 761 497 784.5 488.4 805.6 479.8 834.1 468.7 846.3 458.6 858.4 452.5 848.4 442.9 835.9 445 824.8 457.9 807.7 466.2 783.1 471.9 767 494.2 737.8 506 714.2 480.6 712.8 455.5 706 451.9 727.4 432.5 754.5 416.4 778.8 406.7 783.4 401.3 775.2 407.8 762 437.2 718.1 439.4 700.6 364.1 692 344.4 714.1 337.6 730.5 331.1 742 316.8 761.2 314.6 777.3 308.9 783.7 299.2 785.8 293.8 780.8 296.7 755.8 310.3 740.2 322.2 724.8 327.5 708.4 316.1 713.7 302.8 717.3 281.3 719.1 268.4 715.9 265.5 718 264.4 738 270.9 747.6 272.3 762.3 268.7 771.2 261.2 779.7 249.4 786.9 231.4 786.9 208.9 787.9 198.1 784 201.3 762.2 198.8 748.3 195.6 728.7 189.5 717.9 129.7 719.3 116.8 717.9 108.9 710.4 101 709.3 94.9 716.8 87 722.1 75.6 720.3 67.7 726.1 55.9 733.9 27.9 747.1 3.5 756 1 752.4 9.6 743.9 37.9 730.3 59.8 723.5 70.6 711.4 79.2 706.8 93.1 704.7 101.8 696.5 129.3 709 143 710.4 178.8 707.2 201.7 704 212.5 703 268.4 703 300.7 698.7 325 691.6 353.7 684.1 364.7 676.4 371.4 676.2 440.6 688.1 473.1 632.1 501.7 583 579.2 628.3 640.2 524.4 703.3 564.6 Z" data-holc_grade="A"/>
<path d="M 1063.9 682.9 1010.8 744.1 992.9 767.3 947.4 847.6 920.1 832.8 854.9 797.6 806.5 771.5 766.7 842.5 735.9 825 834.2 650.3 882.2 679.9 929.6 611.9 1063.9 682.9 Z M 1078.2 666.3 951.9 575 1006.6 499 1114.8 627.1 1078.2 666.3 Z" data-holc_grade="A"/>
<path d="M 735.9 825 766.7 842.5 908.5 929.1 902.8 940.9 974.1 977.7 966.6 1054 955.8 1101.5 944.7 1141.8 943.6 1179.3 947.5 1202.9 950.4 1240 955 1268.9 957.5 1307.5 950.7 1352.8 940.7 1378.9 925.6 1359.6 922.4 1332.8 919.5 1326 892.3 1331.4 843.5 1332.8 827.7 1308.9 826.7 1287.5 826.3 1245.3 816.3 1210.3 800.5 1186.4 787.3 1170 760.4 1151.4 715.3 1126.1 692 1111.6 677.4 1096.6 659.5 1086 622 1073.1 581.1 1069.2 554.2 1069.7 645.3 919.5 708.5 811 735.9 825 Z" data-holc_grade="A"/>
<path d="M 792.1 1498.9 795.7 1486.8 837.4 1480.2 863.4 1485.1 889.3 1498.9 907.7 1517.7 918 1544 920.7 1572.1 915.3 1589.5 946.2 1617.7 983 1601.6 1040.4 1583.8 1081.6 1618.6 1149.3 1676.2 1110.7 1751.6 1069.9 1746.7 1051.1 1730.6 1043 1711.4 996.4 1680.6 911.3 1632.8 897.8 1603.4 835.1 1554.2 829.3 1532.8 810 1508.7 792.1 1498.9 Z" data-holc_grade="A"/>
<path d="M 1962.3 467.4 1960.4 527.6 1876.4 561.7 1863.4 565.2 1841.9 574.6 1825.1 467.4 1820.7 442.4 1916.4 436.2 1925.9 469.7 1962.3 467.4 Z" data-holc_grade="A"/>
</g>
<g id="B">
<path d="M 295.7 476.5 289.7 449.5 282.3 430.3 271.2 415.6 214 447.9 208.2 448.1 205.9 443.2 161.9 349.9 158.2 213.5 190.7 213.4 199.6 257.1 252.1 300.1 303 388.2 328 429.7 305.8 465.8 295.7 476.5 Z" data-holc_grade="B"/>
<path d="M 1612 1824.4 1374.6 1939.6 1351.5 1883.6 1335.4 1788.9 1403.5 1753.2 1585.3 1750 1620.9 1818.9 1612 1824.4 Z" data-holc_grade="B"/>
<path d="M 1519.4 463.6 1323.4 464.7 1325.7 366.6 1434.5 363.9 1434.9 349.7 1501.9 346.5 1519.4 463.6 Z" data-holc_grade="B"/>
<path d="M 1465.8 160.7 1526.7 154 1675.9 148.6 1662.4 78.1 1683 75.9 1719.1 317.7 1499.1 327.2 1489.5 275.9 1474.4 241.9 1471.1 176.7 1465.8 160.7 Z" data-holc_grade="B"/>
<path d="M 1683 75.9 1662.4 78.1 1675.9 148.6 1526.7 154 1465.8 160.7 1431.3 63 1417.9 5.9 1669.1 1 1670.5 20.6 1677.2 22.9 1683 75.9 Z" data-holc_grade="B"/>
<path d="M 1742.7 468 1723.7 338.5 1719.1 317.7 1683 75.9 1754.5 65.5 1766.3 140.2 1782.6 242.2 1791 316.4 1860.4 313 1904.1 324.7 1942.1 325.2 1962.3 467.4 1925.9 469.7 1916.4 436.2 1820.7 442.4 1825.1 467.4 1742.7 468 Z" data-holc_grade="B"/>
<path d="M 1753.3 607.4 1752.6 535.8 1742.7 468 1825.1 467.4 1841.9 574.6 1827.5 604.9 1855.3 607.2 1863.4 565.2 1876.4 561.7 1869.2 608.1 1885.3 612.5 1887.1 651.3 1903.3 662 1904.6 675 1896.5 685.2 1904.6 716.9 1927.5 744.5 1936.4 766.9 1938.2 798.1 1873.7 795 1858 727.6 1832.9 728.1 1792.6 787 1766.6 656.3 1755.9 655.8 1753.3 607.4 Z" data-holc_grade="B"/>
<path d="M 443.8 370 525.4 436.8 517.8 452.6 557.4 485.2 527.8 538.3 501.7 583 473.1 632.1 440.6 688.1 371.4 676.2 364.7 676.4 347.5 620.2 341.2 593.7 338.1 574.9 330.5 558.9 319.1 543.3 305.9 524.3 300.3 501.5 295.5 486 295.7 476.5 305.8 465.8 328 429.7 395.7 331.7 423.1 352.4 377.1 425.4 428.4 468 459.9 411.8 426.6 382.9 438.4 365.2 443.8 370 Z" data-holc_grade="B"/>
<path d="M 525.4 436.8 443.8 370 454.9 354.2 495.5 283.3 502.4 257.5 508.3 213.8 530.9 194.4 620.2 223 653.6 252.6 663.4 258.4 684.7 235.9 714.5 264.7 752.1 220.1 769.4 235.5 670.8 361.9 718 397.4 696.3 423.5 625.8 371.9 569.5 446.4 536.4 424.5 525.4 436.8 Z" data-holc_grade="B"/>
<path d="M 1006.6 499 951.9 575 1078.2 666.3 1063.9 682.9 929.6 611.9 882.2 679.9 834.2 650.3 805.6 632.8 748.6 729.6 737.2 725 673 689 682.7 674.7 673.8 667.2 710 604.8 720.4 607.6 731.2 582.3 703.3 564.6 757.3 483.4 792.8 504.5 798.2 496.8 696.3 423.5 718 397.4 815.7 468.2 883.1 382.5 914.3 386.8 931.8 340.8 991.2 366 967.5 430.2 969.9 436.1 1017.8 483.5 1006.6 499 Z M 932.7 273.6 893.3 329.3 861.5 302.1 898.2 245.5 932.7 273.6 Z M 936.3 79.2 924.2 123.7 866.9 110.4 830.2 65.7 849 52.8 867.4 48.4 892.9 55.5 909 69.3 925.1 75.1 936.3 79.2 Z" data-holc_grade="B"/>
<path d="M 920.1 832.8 907.5 856.7 843.3 825.6 854.9 797.6 920.1 832.8 Z M 1308.2 934.6 1262.3 915.7 1228.6 990.6 1275.6 1016 1270.5 1027 1037.2 918.1 1051.2 882.4 1108.6 811.4 1154.5 760.7 1324.7 893.5 1308.2 934.6 Z M 1349.4 841.4 1329.3 852.8 1236.2 782.2 1175.2 736.1 1202.8 706.1 1349.4 841.4 Z M 1092.3 764.3 998.5 877.2 974.6 863.3 1011.7 796.9 1009.8 790.5 1136.2 641.4 1174.4 668 1141.8 710.2 1092.3 764.3 Z" data-holc_grade="B"/>
<path d="M 1026.8 1263.9 1106.1 1303.1 1045.4 1343.1 1008.7 1324.3 974.1 1362.9 975.9 1331.4 972.6 1290.4 963.9 1260.7 1002 1290.4 1026.8 1263.9 Z" data-holc_grade="B"/>
<path d="M 1205.9 1265.9 1258.8 1274.2 1201 1407.5 1163.1 1396.6 1168.7 1383.4 1166.1 1360.1 1205.9 1265.9 Z" data-holc_grade="B"/>
<path d="M 1110.7 1751.6 1132.6 1763.4 1100.3 1838 1018.9 1821.9 954.7 1780.8 860.4 1720.4 839.7 1712.2 780.9 1653.3 751.8 1623.6 730 1611.5 697.7 1588.6 770.9 1510.1 792.1 1498.9 810 1508.7 829.3 1532.8 835.1 1554.2 897.8 1603.4 911.3 1632.8 996.4 1680.6 1043 1711.4 1051.1 1730.6 1069.9 1746.7 1110.7 1751.6 Z" data-holc_grade="B"/>
<path d="M 1100.3 1838 1144.4 1848.6 1144.4 1854.7 1099.6 1919.3 1117.1 1930.4 1178.5 1787.9 1132.6 1763.4 1110.7 1751.6 1149.3 1676.2 1163.1 1691.9 1253.1 1791.9 1276.7 1927.9 1255.2 1970.4 1271 2032.2 1196.7 2042.9 1197.1 1983.3 1250.2 1978.3 1248.4 1967.6 1196 1940.4 1155.5 1973.6 1089.2 1974.3 1035.7 1966.5 1005.2 1964.7 977.6 1957 1007.8 1866 1018.9 1821.9 1100.3 1838 Z" data-holc_grade="B"/>
</g>
<g id="C">
<path d="M 252.1 300.1 199.6 257.1 190.7 213.4 197.8 157.8 199.4 126.2 197.3 103.2 194.3 83.9 156.2 55.3 181.2 20.4 256.1 15.9 374.7 79.1 334.6 125.2 265 77.7 256.2 87.5 287.4 112.7 256.8 189.6 320.2 230.2 347.3 198.6 400.1 228.5 356 289.1 370.3 302.5 324.8 359.6 252.1 300.1 Z" data-holc_grade="C"/>
<path d="M 2224.9 640.7 2217.3 678.8 2256.5 688.3 2265.2 650.7 2299.1 655.4 2315.1 655.6 2352.4 682.4 2384.3 698.8 2308.7 820.2 2279 805.5 2271.8 815.5 2280.4 822 2270 840.2 2291 850.6 2308 859.1 2268.1 926.5 2193.1 884.4 2203 850.2 2214.1 820.6 2299.7 723.8 2294 718.8 2143.1 683.5 2139.9 684.6 2141.3 709.2 2138.8 721.7 2149.9 728.5 2133.1 776 2135.6 806.3 2130.6 831.3 2131.8 857.4 2087.4 858.8 2052.4 855.6 2053.2 839.5 2069.3 839.2 2070 799.2 2052.5 798.5 2052.1 778.5 2055 741.7 2061 639 2129.9 642.6 2131.4 628 2175.1 629 2192.7 632.2 2224.9 640.7 Z" data-holc_grade="C"/>
<path d="M 2384 728.3 2396.3 707.1 2399.3 696.9 2400.8 690.5 2380.9 659.9 2346.2 646.8 2325.3 604.2 2301.5 556.3 2254 373.2 2253.8 373.2 2318.1 370.9 2327.6 276.1 2401.5 282.2 2390.9 378.1 2432.9 413.8 2443 354.1 2543.2 373.6 2481.1 442.8 2611.6 468.3 2658.6 493.9 2720.8 558 2699 600.4 2652 574.2 2637.4 575.9 2572.4 533 2557.9 526.9 2477.3 579.4 2431.3 511.4 2421.3 612.8 2421.3 622.3 2430.3 629 2482.3 594.4 2507 675.8 2384 728.3 Z M 2333.5 537.3 2369.9 558.5 2385.6 530.5 2348.9 510.3 2333.5 537.3 Z" data-holc_grade="C"/>
<path d="M 2550.4 1970.9 2607.2 1971.1 2607.9 1939.7 2589.6 1939.4 2589.2 1927.2 2767.5 1926.4 2773.1 1950.7 2746.9 1950.7 2746.9 1968.9 2790.4 2007.1 2793.3 2083.2 2793.7 2193.9 2730.9 2168.2 2686.1 2117.2 2650.9 2087.6 2607.5 2086.5 2605.7 2064.4 2526.1 2063 2524.2 2028.7 2534.6 2018.3 2550.4 2026.2 2550.4 1970.9 Z" data-holc_grade="C"/>
<path d="M 2924 1897.3 2914 1899.8 2848.2 1932.4 2843 1936.8 2832.9 1945.4 2799.8 1961.9 2774.6 1906.6 2745 1878.5 2710 1829.9 2685.3 1802.2 2757.9 1758.8 2778.1 1738.3 2791.5 1741 2823.4 1721.7 2858.8 1772.6 2908.2 1846.7 2941.3 1835 2958 1889 2924 1897.3 Z" data-holc_grade="C"/>
<path d="M 2843 1936.8 2848.2 1932.4 2914 1899.8 2924 1897.3 2945.4 1962.5 2958.3 1964.3 2977.4 2022.9 2970.2 2025.4 2999 2115.3 2949.5 2144 2884.2 2076.5 2896.3 1996.5 2873.7 2002.2 2843 1936.8 Z" data-holc_grade="C"/>
<path d="M 1349.4 841.4 1385.9 870.2 1644.3 1066.1 1630.7 1087.6 1764.4 1189.6 1755.8 1200.3 1723.6 1176.8 1706.4 1195.7 1706 1215.7 1598.8 1212.9 1307 1075.4 1286 1117.6 1230.3 1091.7 1237.1 1076.1 1019.6 964 1037.2 918.1 1270.5 1027 1275.6 1016 1310.6 938 1308.2 934.6 1324.7 893.5 1154.5 760.7 1175.2 736.1 1236.2 782.2 1329.3 852.8 1349.4 841.4 Z" data-holc_grade="C"/>
<path d="M 1106.1 1303.1 1026.8 1263.9 1034.3 1251.2 1037.5 1236.7 988.6 1211.8 1014.1 1198.4 1028.1 1185 1053.9 1166 1069.8 1151.6 1080.3 1133.9 1077.3 1127.8 1034 1109.8 1025.4 1119.2 1034.8 1129.9 1002.8 1171.4 962.5 1218.2 959.3 1194.7 969.8 1129.1 999.6 1087.1 1044.3 1015.6 1227.3 1096.7 1230.3 1091.7 1286 1117.6 1262.6 1168.2 1172.8 1131.3 1163.6 1172 1152.3 1206.8 1138.6 1261.4 1130.2 1295.1 1106.1 1303.1 Z" data-holc_grade="C"/>
<path d="M 1426.1 1317 1399.2 1378.7 1434.7 1394.1 1420.3 1422.3 1312.8 1376.6 1321.4 1342.3 1314.9 1323.7 1337.5 1270.9 1259 1234.8 1282.3 1179.2 1297.4 1186.7 1297 1191.3 1307.4 1196.3 1340 1123.8 1417.5 1157 1361.2 1286.3 1426.1 1317 Z" data-holc_grade="C"/>
<path d="M 1018.9 1821.9 1007.8 1866 977.6 1957 966.5 1985.6 958.6 2015.6 927.4 1985.2 896.6 1849.5 954.7 1780.8 1018.9 1821.9 Z" data-holc_grade="C"/>
<path d="M 1686.5 1974 1698.3 2069.7 1686.2 2080 1646 2032.5 1585 2081.8 1624.1 2133.3 1523.3 2219.7 1512.2 2230.4 1484.6 2272.6 1292.7 2272.6 1289.4 2269 1353.6 2219.7 1362.6 2221.8 1681.8 1969 1686.5 1974 Z M 1525.9 1969.5 1490.5 1984.2 1498.1 2036 1482.4 2049 1486 2066.4 1525.5 2038.2 1550.1 2037.3 1356.9 2191.4 1343.9 2177.5 1315.6 2196.3 1337.1 2058.3 1277.1 2070.4 1271 2032.2 1255.2 1970.4 1276.7 1927.9 1283.8 1927.1 1359.1 1947.2 1374.6 1939.6 1612 1824.4 1628.6 1860.1 1551.7 1901 1508.4 1924 1525.9 1969.5 Z" data-holc_grade="C"/>
<path d="M 1788.9 109.1 1786.5 112.9 1787 162.5 1793.7 202.1 1793.7 212.6 1793.8 228.8 1830.1 229.9 1948.3 316.9 1942.1 325.2 1904.1 324.7 1860.4 313 1791 316.4 1782.6 242.2 1766.3 140.2 1754.5 65.5 1785.9 59.9 1794.3 100.6 1788.9 109.1 Z" data-holc_grade="C"/>
<path d="M 2258.9 503 2247.5 507.3 2262.2 566.2 2273.3 597.9 2287.3 627.5 2299.1 655.4 2265.2 650.7 2260.1 650 2224.9 640.7 2192.7 632.2 2175.1 629 2131.4 628 2130.3 611.2 1976.6 602 1974.4 617.7 1885.3 612.5 1869.2 608.1 1876.4 561.7 1960.4 527.6 1982.7 508.8 2019.2 491.7 2033.5 479.9 2054.7 461 2070.4 467.8 2076.9 458.8 2117 480.2 2124.9 469.9 2145.7 486.3 2140.3 494.5 2160 508.1 2183.3 512.3 2187.3 498.8 2197.7 500.2 2198.4 475.6 2201.2 452 2210.9 406 2223.4 406 2223.1 394.2 2232.4 394.2 2247.8 458.8 2258.9 503 Z" data-holc_grade="C"/>
<path d="M 1938.2 798.1 1938.8 817.8 1922 828.5 1904.8 821 1894 808.2 1879 814.9 1873.7 795 1938.2 798.1 Z M 2061 639 2055 741.7 2052.1 778.5 2036.7 777.8 2034.2 837.7 2053.2 839.5 2052.4 855.6 1972.9 848.4 1973.3 808.5 1979.3 786.7 1971.8 794.9 1962.5 794.2 1957.1 784.2 1958.2 765.7 1926.6 711.4 1928.1 690 1915.9 687.2 1915.9 653.6 1908 652.6 1903.3 662 1887.1 651.3 1885.3 612.5 1974.4 617.7 1975 632.2 2061 639 Z" data-holc_grade="C"/>
</g>
<g id="D">
<path d="M 2152 1100.8 2165.5 1243 2127.6 1296.5 2050.1 1236.6 2032.9 1256.9 1975.6 1212.5 1993.4 1190.5 2008.2 1198.8 2014.9 1189.7 2002.2 1177.9 2031 1139.9 2053.3 1110.2 2075.9 1126.5 2110.3 1081.5 2128 1091.4 2152 1100.8 Z M 1737.8 950.6 1798.8 992.3 1783.2 1015.3 1830.5 1050.9 1858.8 1187.5 1776.2 1124.8 1791.8 1100.7 1713.1 1042.4 1664.7 1006.5 1702 960.2 1719.8 971.7 1737.8 950.6 Z M 2181 956.5 2186.8 894.9 2193.1 884.4 2268.1 926.5 2246.6 962.7 2235.7 958.2 2222 978.3 2181 956.5 Z M 1666.8 921.7 1643.5 947.7 1566.4 889.9 1584.7 866.3 1666.8 921.7 Z M 2181 956.5 2178.8 972 2194.2 977.9 2186.4 995 2189.3 1012.2 2182.6 1020.7 2153 1001.2 2164.6 987.5 2155.5 982.7 2143.1 981.9 2135 972.6 2089.9 972.6 2089.9 954.9 2084.5 953.6 2085.3 916.4 2054.9 915 2052.8 958.4 2035.5 957.9 2029.9 966.4 2020.5 966.4 2019.7 947.4 2013 946.9 2013.5 920.9 1995.7 920.4 1995.5 931.4 1970.5 931.1 1970.5 949.6 1993.1 953.1 1991.7 1005 2003.4 994.3 2050.5 1011.1 2074.2 1051.3 2042.2 1043 1914.2 1216.8 1904.6 1211.4 1872.3 1056.4 1892.2 1052.9 1914.5 1169.1 1926.3 1178.2 1938.2 1164.3 1929 1039.5 1965.5 1038.4 1987.2 1008.2 1904.4 1005.5 1905.2 981.2 1892.8 975 1893.6 850.6 1882.3 843.6 1883.1 822.2 1903.8 840.6 1914 842.5 1923.1 839.3 1928.3 839.3 1940.3 835 1939 906.8 1968.1 910.5 1972.9 848.4 2052.4 855.6 2087.4 858.8 2131.8 857.4 2143.3 887.4 2138.5 926.5 2131.2 948.2 2181 956.5 Z M 1756.4 724.6 1784.7 884.9 1668.9 905.9 1596.5 847.8 1616.6 821 1637 834.6 1668.6 826.4 1715.2 773.9 1667.8 773.5 1662.5 725 1756.4 724.6 Z" data-holc_grade="D"/>
<path d="M 1525.9 1969.5 1570.8 1947.5 1551.7 1901 1628.6 1860.1 1634.6 1860.4 1660.4 1918.6 1536 1982.9 1550.7 2028.2 1550.1 2037.3 1525.5 2038.2 1486 2066.4 1482.4 2049 1498.1 2036 1490.5 1984.2 1525.9 1969.5 Z M 1695.9 1761.5 1625.2 1796.2 1605.1 1748.3 1667.5 1705.5 1695.9 1761.5 Z" data-holc_grade="D"/>
<path d="M 1703.3 1780.9 1720.2 1773.4 1737.2 1793.2 1824.1 1728.7 1830 1734 1840.7 1726.5 1862.8 1750.1 1878.1 1737.8 1900.2 1764.8 1732.4 1895.3 1718.4 1864.8 1695.8 1814.1 1703.3 1780.9 Z" data-holc_grade="D"/>
<path d="M 1914.2 1782.5 1973 1855.5 1860.4 1946.5 1990.5 2107.8 1950.1 2143.5 1968.6 2169.7 2012.9 2169.1 2016.9 2227.2 1875.6 2236.1 1875.6 2286.4 1824.1 2289.2 1777.5 1886.3 1914.2 1782.5 Z" data-holc_grade="D"/>
<path d="M 1793.7 212.6 1793.7 202.1 1787 162.5 1786.5 112.9 1788.9 109.1 1844.7 130.6 1868.3 64.9 1995.5 115.2 1994.1 125.9 1939.3 239 1884.8 249 1848.3 221.2 1834.3 214.4 1793.7 212.6 Z" data-holc_grade="D"/>
<path d="M 2076.1 109.6 2141.5 82.8 2155.4 122 2229.4 281.2 2212.8 337 2140.2 338.8 2141.1 299.5 2138 299.5 2076.6 356.2 2039.9 383.4 1987.1 342.4 2022.9 215.3 2057.8 214.4 2068.1 147.9 2076.1 109.6 Z" data-holc_grade="D"/>
<path d="M 2315.1 655.6 2299.1 655.4 2287.3 627.5 2273.3 597.9 2262.2 566.2 2247.5 507.3 2258.9 503 2276.6 571.2 2315.3 650.4 2315.1 655.6 Z M 2076.9 458.8 2119.6 398.8 2150 394.7 2193.5 394.2 2223.1 394.2 2223.4 406 2210.9 406 2201.2 452 2198.4 475.6 2197.7 500.2 2187.3 498.8 2183.3 512.3 2160 508.1 2140.3 494.5 2145.7 486.3 2124.9 469.9 2117 480.2 2076.9 458.8 Z" data-holc_grade="D"/>
<path d="M 2543.7 884.3 2494 980.8 2426.2 966.9 2433.5 1017.1 2462.1 1042.7 2513 1060 2539.3 990.3 2713.5 1042 2683.3 1110.6 2656.5 1101.7 2624.5 1181.3 2708.8 1153.6 2713.2 1121 2759.4 1136.6 2760.3 1144.7 2623.7 1312.1 2563.2 1323.7 2566.4 1314.4 2608 1240.2 2625 1186.7 2619.6 1180.9 2573.9 1177.8 2555.5 1201 2562.3 1209.5 2511.2 1281.4 2522.4 1317.9 2527.8 1321.1 2539.5 1306.3 2558.7 1319.3 2557.4 1325.5 2470.5 1351.9 2440.5 1387.6 2317.7 1391.7 2321.2 1373.4 2321.7 1340.8 2363.3 1282.3 2381.7 1293.9 2393.8 1276.1 2380.8 1265.8 2438.1 1141.7 2408.1 1119.4 2358.8 1211.8 2362.4 1227.4 2282.7 1389 2237 1390.4 2237.4 1268.1 2238.7 1145.8 2226.1 1034.7 2248.1 1030.7 2254.8 1053 2342.6 1037.4 2334.9 968.7 2365.8 906.2 2433.9 895 2446 906.6 2475.4 850.9 2543.7 884.3 Z M 2384 728.3 2308 859.1 2291 850.6 2300 833.1 2280.4 822 2271.8 815.5 2279 805.5 2308.7 820.2 2384.3 698.8 2396.3 707.1 2384 728.3 Z" data-holc_grade="D"/>
<path d="M 2357.1 1500.1 2336.5 1526.9 2301.1 1505.5 2358.9 1492.1 2357.1 1500.1 Z M 2516.2 1501.3 2440.1 1597.8 2360.3 1534 2432.4 1441.6 2516.2 1501.3 Z M 2383.1 1472 2295.3 1477.4 2253.1 1450.6 2257.6 1431.9 2262.5 1420.2 2421.6 1416.6 2383.1 1472 Z M 2614.1 1750.8 2574.6 1737 2515.9 1725.4 2500.2 1722.3 2507.8 1705.3 2443.3 1660.7 2401.2 1720.1 2344.2 1678.2 2361.7 1655.9 2309.7 1615.3 2315.9 1605.9 2269.3 1572.4 2263 1576.9 2248.7 1565.3 2251.8 1559.9 2234.3 1544.8 2256.7 1517.1 2324 1567.9 2336.5 1556.8 2492.6 1670.1 2508.7 1648.6 2463.4 1616.1 2555.7 1493.7 2454.3 1416.6 2489.3 1372.4 2658.7 1343.3 2626 1388.8 2682 1434.3 2715.2 1437 2734.9 1477.1 2712.5 1483.8 2716.1 1497.6 2704 1502.1 2712.1 1521.8 2752.9 1511.5 2771.7 1532.9 2753.8 1594 2744.4 1589.6 2664.2 1598.6 2640.9 1583.8 2623.9 1606.6 2651.2 1625.8 2653 1679.3 2610.9 1721.3 2614.1 1750.8 Z" data-holc_grade="D"/>
<path d="M 2477.3 1848.8 2475.6 1878.4 2381.5 1877.3 2382.6 1836.6 2378.6 1815.9 2487.9 1810.8 2477.3 1848.8 Z M 2614.1 1750.8 2697.1 1839.3 2751 1901.8 2767.5 1926.4 2589.2 1927.2 2589.6 1939.4 2607.9 1939.7 2607.2 1971.1 2550.4 1970.9 2532.2 1970.8 2517.5 1956.9 2496.7 1900.5 2496.3 1845.1 2509.5 1824.8 2506.7 1793.3 2608.9 1787.9 2601 1767.2 2518.5 1770.8 2515.9 1725.4 2574.6 1737 2614.1 1750.8 Z" data-holc_grade="D"/>
<path d="M 1888.9 1394.2 1860.4 1433.3 1813.4 1395.6 1833.1 1365 1808.4 1346.2 1824.8 1326.4 1886.6 1373.4 1879.9 1385.1 1888.9 1394.2 Z M 1755.8 1200.3 1764.4 1189.6 1832.9 1243.5 1820 1259.9 1758.1 1218 1755.8 1200.3 Z M 1434.7 1394.1 1399.2 1378.7 1426.1 1317 1510.5 1354.5 1519.8 1335.6 1397.5 1279.5 1444.9 1167 1459.6 1173.5 1449.5 1197.4 1629.5 1279.5 1756.4 1282 1754.3 1391.2 1798.4 1394.1 1788.7 1407.6 1789.4 1433.7 1765.4 1462.3 1748.2 1466.9 1748.2 1453.4 1727.4 1453.4 1725.2 1466.9 1671.4 1466.6 1669.3 1360.9 1645.6 1359.5 1644.9 1327.3 1614.4 1326.3 1613.4 1363.8 1588.6 1362.7 1587.9 1368.8 1549.5 1365.2 1532 1402 1520.5 1399.1 1513.3 1412 1501.9 1410.5 1490.7 1433.7 1455.2 1433.4 1471.7 1395.9 1442.7 1381.2 1434.7 1394.1 Z" data-holc_grade="D"/>
<path d="M 1276.4 1430.3 1383.2 1432.5 1374 1474.5 1410.3 1480.2 1382.6 1603.9 1356.3 1607.6 1326.4 1602 1288.5 1587 1249.5 1564.8 1276.4 1430.3 Z" data-holc_grade="D"/>
</g>
</svg>