<?xml version="1.0"?>
<svg xmlns="http://www.w3.org/2000/svg" version="1.2" baseProfile="tiny" width="3000" height="3809" viewBox="0 0 3000 3809" stroke-linecap="round" stroke-linejoin="round">
<g id="A">
<path d="M 1236.8 148.8 1225.6 162.7 1158.3 117.9 1136.4 103.7 1119.2 92.4 1109.8 84.9 1097.9 62.7 1079.1 43.5 1053.8 36.1 1049.8 19.3 1035 10.9 1017.6 1 1058.8 2.5 1078.6 30.1 1096.9 45.5 1119.2 57.8 1148.9 83.5 1205.4 129.4 1236.8 148.8 Z" data-holc_grade="A"/>
<path d="M 2668.9 3172.8 2667.8 3288.8 2600.3 3295.1 2556.6 3313 2461.6 3311.9 2466.4 3243.4 2490.2 3201.4 2444.5 3184 2360.3 3189.6 2360.4 3077.2 2392.9 3075.2 2392.1 3062.6 2523.2 3057.3 2574.1 3100.4 2651.2 3185.5 2668.9 3172.8 Z" data-holc_grade="A"/>
<path d="M 1975.9 3316.8 2114.6 3309.7 2157.1 3203.9 2230.9 3200.5 2232.6 3224.7 2234.5 3238.7 2233.5 3249.8 2222.4 3266.9 2214.8 3284.9 2215.8 3303.9 2314 3301 2308.3 3468.9 2286.1 3493.3 2301.4 3511.6 2312.5 3564.5 2191 3567.7 2198.6 3539.2 2135 3541.2 2134.6 3421.1 2162.3 3369.8 2119.6 3330.9 2071.7 3459.5 1924.6 3465.9 1922.3 3401.9 1953.1 3400 1952.8 3387.9 1961.1 3366.7 1975.9 3316.8 Z" data-holc_grade="A"/>
<path d="M 2388.9 3594.6 2516.1 3593.3 2516.9 3628.1 2435.4 3631 2441.9 3808.3 2287.3 3806.9 2281.4 3786.3 2288.9 3760.1 2299.2 3751 2317.5 3744.3 2331.4 3743.1 2344.1 3743.1 2377.9 3728 2395 3717.7 2388.9 3594.6 Z" data-holc_grade="A"/>
<path d="M 1557.4 1019.7 1529.9 1020.4 1527.2 956.7 1414.2 872.6 1400.7 874.5 1384.4 876.5 1367 876.5 1344.8 851.6 1375.3 821.2 1413.8 782.1 1463.3 835.4 1470.1 799.5 1528.8 803.4 1528.4 755.6 1534.3 726.4 1702.8 728.3 1698.5 763.5 1691.3 779.7 1682.6 791.5 1673.5 797.5 1651.7 798.3 1617.2 799.5 1617.6 828.7 1646.9 827.5 1662.4 829.5 1661.6 838.2 1656.4 844.9 1639.4 861.1 1618.4 888.8 1612 899 1608.1 916.8 1565.2 917.6 1558.1 962.7 1555.3 987.6 1556.1 1009.7 1557.4 1019.7 Z" data-holc_grade="A"/>
<path d="M 1474.8 1204.1 1436.4 1264.4 1421.8 1259.4 1404 1284.4 1375.1 1317.9 1362.8 1336.2 1350.1 1356.5 1273 1451.3 1179.6 1453.6 1189.2 1434.6 1202.7 1408.9 1218.1 1382.5 1235.2 1363.5 1248.7 1353.6 1265.8 1338.6 1270.1 1323.6 1287.2 1264.3 1284 1259.9 1311.4 1173.8 1328.1 1215.3 1390.7 1213.7 1410.6 1156.8 1433.2 1156 1475.2 1155.6 1483 1158.5 1498.9 1168 1487.8 1185.1 1474.8 1204.1 Z" data-holc_grade="A"/>
<path d="M 536.9 1513.9 534.5 1597.3 532.4 1606.2 364.8 1603.5 367.1 1485.5 392.2 1491.2 448.7 1502.7 483 1512.8 536.9 1513.9 Z" data-holc_grade="A"/>
<path d="M 143.2 1576.6 208.2 1577.7 208.2 1641.5 142.7 1639.9 143.2 1576.6 Z" data-holc_grade="A"/>
<path d="M 2179.3 2848.1 2138.3 2838.6 2063 2838.9 1989.9 2816.5 2011.5 2763.3 2191.9 2821.6 2179.3 2848.1 Z" data-holc_grade="A"/>
<path d="M 2006.3 3088.4 2010.7 3064 2038.7 3059.6 2047.6 3058.6 2058 3058.6 2062.5 3059.2 2072.3 3034.5 2145.7 3029.4 2155.6 2969.6 2137.8 2969.6 2155.2 2915.5 2162.2 2902.2 2186.3 2902.8 2201.3 2901.5 2208.6 2897.7 2224.5 2894.8 2242.3 2892.6 2255.6 2890.4 2271.2 2889.7 2290.2 2893.9 2304.5 2901.1 2317.2 2902.4 2322.6 2916.9 2319.9 3080.3 2006.3 3088.4 Z" data-holc_grade="A"/>
<path d="M 2522.3 2933.9 2508.4 2969.1 2549.8 3003.1 2568.4 2957.2 2605.7 2977.3 2651.1 3009.3 2697.4 3060 2708.9 3071.8 2781.3 3145 2731.8 3155.7 2730.6 3161.6 2684.9 3161.3 2668.9 3172.8 2651.2 3185.5 2574.1 3100.4 2523.2 3057.3 2392.1 3062.6 2392.9 3075.2 2360.4 3077.2 2360.3 2947 2357.5 2921.3 2343.6 2875 2322.4 2845.6 2346.6 2858.4 2399 2882.9 2522.3 2933.9 Z" data-holc_grade="A"/>
<path d="M 2839.3 2903.8 2840.3 2920.1 2848.6 2926.8 2855.4 2932.8 2864.5 2933.6 2875.6 2932 2886.3 2922.5 2902.2 2912.9 2916.1 2911.3 2921.7 2913.7 2930.4 2925.6 2937.6 2936.7 2940.4 2949.3 2934.4 2964.4 2904.7 2998.4 2881.7 3015.1 2867.4 3029.3 2862.2 3046 2863 3050.7 2867 3053.5 2869.4 3052.7 2875.3 3045.9 2878.1 3037.2 2887.2 3027.3 2899.5 3018.6 2923.3 3002 2933.7 3002.3 2932.9 3057.4 2935.4 3163 2858 3164.3 2855.5 3071.7 2764.5 3069 2708.9 3071.8 2697.4 3060 2701 3045.7 2701.4 3034.6 2706.5 3020 2751 2901 2839.3 2903.8 Z" data-holc_grade="A"/>
</g>
<g id="B">
<path d="M 1069.4 1155.1 1092 1078.7 1096.2 1030.1 1099.8 953.6 1104.6 925.7 1073 925.7 1077.2 816.1 1078.9 786.9 1081 750.5 1145.1 764 1180.8 680.6 1212.9 681.3 1171.2 772.8 1227.1 777 1221.8 787.1 1215.8 796.5 1205.1 803.7 1196.2 813.7 1190.8 819.1 1178.9 847.5 1164.7 885.4 1135.5 918 1121.2 947.7 1120 970.2 1122.4 981.5 1201.5 986.8 1198.5 1037.2 1204.5 1043.1 1214 1058.5 1218.2 1067.4 1216.4 1091.1 1199.7 1126.1 1183.6 1149.8 1171.7 1158.1 1163.4 1159.3 1069.4 1155.1 Z" data-holc_grade="B"/>
<path d="M 507.1 2983 567.7 2953.4 577.1 2952.4 715.1 2948.1 927.1 2945.7 925.1 2970.9 941.4 2972.9 942.4 3016.9 925 3016.9 925.5 3046.1 941.4 3046.1 940.4 3201 963.7 3201.5 946.8 3239.1 943.9 3253.9 947.8 3287.6 947.8 3312.8 937.9 3342.5 881.8 3326.6 826.1 3408.7 637.5 3273 637.5 3205.3 618.2 3205.3 507.1 2983 Z" data-holc_grade="B"/>
<path d="M 1685.1 3126.8 1696.1 3142.3 1689.2 3159.6 1683.8 3148.9 1660.9 3126.4 1663.7 3186.5 1666.4 3199 1595.3 3213.8 1591.8 3228 1533.8 3239.4 1536.5 3227.3 1523.1 3229 1527.2 3208.6 1527.4 3198.3 1541 3158 1509.3 3148.5 1497.1 3148.5 1481.2 3148.5 1463.5 3147 1444.7 3138.7 1439.7 3159.9 1406.6 3154.2 1413.3 3093.6 1424.1 3067.6 1558.3 3126.5 1569.1 3098.3 1619.3 3096.4 1651.7 3076.5 1663.1 3100.2 1685.1 3126.8 Z" data-holc_grade="B"/>
<path d="M 1353.4 3245.6 1380.5 3190 1403.1 3189.8 1404.9 3211.6 1408.5 3215.6 1415.4 3218.1 1423.6 3231.8 1429.7 3234.9 1486.5 3237.3 1499 3234.2 1461.3 3337.7 1389.8 3341.4 1392.8 3327.4 1420 3264.8 1411.8 3261.9 1395.4 3254.5 1389.2 3251 1379.9 3249.4 1373.5 3249.4 1353.4 3245.6 Z" data-holc_grade="B"/>
<path d="M 2006.3 3088.4 2319.9 3080.3 2314.2 3162 2315.2 3196.5 2230.6 3200.5 2156.8 3203.9 2114.3 3309.7 1975.6 3316.8 1916 3319.9 1862.3 3446.9 1817.1 3433 1857.2 3329.4 1832.1 3330.7 1836.5 3273.3 1848.3 3252.8 1852.7 3239.8 1854.9 3224.3 1856.5 3204.3 1857.8 3184.4 1856.5 3171.7 1857.4 3164.1 1863.5 3157.1 1870.5 3151.7 1881.6 3144.5 1906.4 3127 1936.6 3113.7 1963.3 3135.3 1970.9 3145.1 1974.7 3138.1 1994.1 3125.1 2000.4 3116.9 2003 3103.6 2006.3 3088.4 Z" data-holc_grade="B"/>
<path d="M 2881.7 3421.2 2847.1 3448.5 2739.3 3331.4 2732.2 3312.4 2723.9 3336.2 2719.9 3351.3 2710 3360.4 2700 3362.4 2686.1 3361.6 2678.2 3360.8 2674.6 3358.4 2675 3341.8 2676.9 3286.4 2667.8 3288.8 2668.9 3172.8 2684.9 3161.3 2730.6 3161.6 2731.8 3155.7 2781.3 3145 2812.3 3175.4 2791.7 3192.9 2773 3211.9 2766.3 3227.3 2766.3 3243.1 2766.3 3255.4 2768.7 3268.9 2771.5 3285.1 2776.3 3296.6 2831.1 3363.8 2881.7 3421.2 Z" data-holc_grade="B"/>
<path d="M 1245.6 3351.8 1216.7 3442.5 1176.9 3545.5 1165 3581.1 1094.3 3580.7 1080.3 3573.7 1075.8 3566.4 1084.8 3520.2 1092.4 3501.2 1101 3479.3 1123.6 3419.5 1181.4 3419.5 1201.8 3351.4 1245.6 3351.8 Z" data-holc_grade="B"/>
<path d="M 2847.1 3448.5 2881.7 3421.2 2999 3554.1 2998.3 3647.9 2980.4 3668.5 2972.5 3671.3 2956.6 3685.2 2949.5 3701.8 2947.9 3720 2944.4 3731.1 2938.8 3736.3 2922.1 3736.7 2901.4 3733.5 2880 3728 2874.4 3714.9 2872 3700.3 2872.4 3692.4 2875.6 3681.3 2874 3667.8 2866 3666.6 2848.5 3659.9 2838.6 3656.8 2827.4 3648.1 2825.8 3636.2 2823.4 3618 2819.9 3607.7 2812.7 3599.8 2804.3 3594.6 2793.2 3584.4 2788 3571.3 2784.5 3562.2 2784.8 3482.6 2788.7 3452.1 2842 3452.9 2847.1 3448.5 Z" data-holc_grade="B"/>
<path d="M 1529.9 1020.4 1557.4 1019.7 1739.9 1015 1735.5 1021.6 1726.6 1069.7 1724.1 1080.4 1720.6 1084.8 1715.8 1086.4 1677.4 1086.7 1678.7 1387.4 1501.6 1388.4 1443.9 1391.9 1447.4 1435.8 1432.3 1480.4 1285 1485.2 1246.6 1483.9 1273 1451.3 1350.1 1356.5 1362.8 1336.2 1375.1 1317.9 1404 1284.4 1421.8 1259.4 1436.4 1264.4 1408.1 1308.1 1404.7 1316.6 1429.7 1314.7 1431 1378.3 1488.1 1374.8 1484.9 1284.7 1550 1279.6 1547.1 1199.3 1474.8 1204.1 1487.8 1185.1 1498.9 1168 1483 1158.5 1509.4 1121.8 1508.1 1114.3 1505.6 1103.8 1508.4 1089.3 1516.7 1075.7 1528.3 1067.1 1536.2 1063.7 1529.2 1032.4 1529.9 1020.4 Z" data-holc_grade="B"/>
<path d="M 2213.3 1536.2 2197.8 1542.5 2150.2 1563.1 2037.1 1605.6 2037.6 1513.2 2113.4 1505.2 2112.9 1475.6 2104.9 1355 2134.2 1352 2154.5 1354.5 2164.9 1357.9 2180.3 1356.9 2194.2 1319.9 2173.4 1320.4 2163.9 1318.9 2161.9 1275.9 2175.8 1275.9 2242.2 1268.5 2272 1229.4 2224.9 1209.7 2234.8 1162.7 2213.9 1139 2211.9 1132.6 2214.4 1125.2 2226.8 1120.8 2221.3 1114.8 2226.3 1099.5 2220.8 1089.1 2223.3 1083.7 2231.7 1080.2 2244.1 1078.8 2249.6 1084.2 2251.6 1091.6 2249.1 1105.4 2254.1 1107.9 2261.5 1107.4 2266.5 1111.3 2270.9 1112.8 2246.7 1156.8 2275.9 1164.7 2281.9 1165.2 2316.1 1162.7 2456.9 1154.2 2450 1238.7 2445 1248.1 2428.7 1260.9 2418.3 1267.4 2339.9 1267.4 2342.5 1345 2382.6 1346.9 2378.2 1367.7 2385.1 1393.9 2258.7 1396.9 2265.7 1533.8 2213.3 1536.2 Z" data-holc_grade="B"/>
<path d="M 1421.8 1646.8 1384.9 1651.2 1267.5 1655.3 1250.1 1542.4 1285 1485.2 1432.3 1480.4 1438 1644.9 1421.8 1646.8 Z" data-holc_grade="B"/>
<path d="M 1410.2 1719 1416.1 1779.5 1395.2 1781.5 1399.6 1888.4 1318.4 1889.9 1326.3 1828.2 1286.2 1829.7 1280.3 1869.7 1249.4 1871.3 1237.9 1869.3 1225.2 1860.6 1234.8 1849.5 1235.4 1837.8 1244 1828 1245.2 1818.2 1244.6 1794.2 1244.6 1764.8 1245.6 1738.5 1249.1 1703.1 1246.9 1675.6 1240.2 1651.8 1227.5 1635.7 1203.4 1604.4 1177 1573.1 1160.2 1547.1 1151.7 1516.4 1155.8 1508.9 1230.1 1508.9 1246.6 1483.9 1285 1485.2 1250.1 1542.4 1267.5 1655.3 1384.9 1651.2 1421.8 1646.8 1409.4 1665.8 1410.2 1719 Z" data-holc_grade="B"/>
<path d="M 1149.7 1687.7 1124.1 1836.8 1090.8 1837.5 1078 1906.4 1068.9 1904.4 1065.7 1926.1 1059 1949.1 1050.6 1943.9 1042.3 2003.2 1018.5 2003.6 1014.9 2066.1 950.6 2066.1 721.2 2063.2 723.7 1793.5 1096.9 1794.8 1117.9 1686.9 1149.7 1687.7 Z" data-holc_grade="B"/>
<path d="M 2565.1 2214.2 2549.6 2211.8 2527.4 2211.8 2244.2 2226.2 2266.6 2167.3 2235.3 2111.9 2213.9 2091.8 2212 2061.1 2256.6 2061 2273.4 2056.5 2295.8 2046.6 2335 2045.1 2349.8 2032.7 2400.4 2028.3 2457.5 2024.8 2456.5 2080.6 2459.6 2158.2 2510.2 2155.7 2505.7 2100.4 2528.5 2101.3 2528 2069.2 2679.8 2058.7 2683.3 2090.3 2682.3 2102.7 2672.9 2116.6 2595 2151.7 2591.1 2171.5 2583.6 2194.2 2570.8 2215 2565.1 2214.2 Z" data-holc_grade="B"/>
<path d="M 2501.8 2746.7 2406.4 2740.8 2420.3 2709.5 2412 2704.8 2408 2702.8 2409.2 2697.7 2417.1 2691 2421.9 2685.8 2421.9 2675.1 2402.4 2677.5 2383.8 2671.6 2408.7 2611 2444.5 2610.6 2565 2603.4 2564.7 2619.5 2528.8 2677.4 2501.8 2746.7 Z" data-holc_grade="B"/>
<path d="M 1 3218.1 4.7 3003.1 38.7 3003.4 39.6 3058.5 104.8 3058.9 106.6 3096 118.4 3095.3 125.1 3095.7 131.4 3097.3 138.1 3100.4 147 3104.9 154 3108.4 158.1 3108 160.6 3107.1 167.6 3101.7 174.9 3094.4 184.2 3091.9 183.6 3024.8 186.5 3008.7 362.8 3015.1 361.5 3048.4 321.1 3123.7 191.4 3124.9 66.5 3215.6 1 3218.1 Z" data-holc_grade="B"/>
</g>
<g id="C">
<path d="M 1212.9 681.3 1180.8 680.6 1145.1 764 1081 750.5 1065.4 747.2 1064.7 689.1 1067.1 682 1095.6 606.9 1107.8 595.5 1109.7 583.4 1113.5 578.4 1123.7 566.3 1140.8 544.5 1159.9 519.9 1165.8 510.9 1167.3 504.7 1168.5 495.9 1170.8 430.1 1167.3 427.2 1169.2 381.2 1173.7 364.6 1178.5 357.1 1195.4 340.5 1209.2 336 1227.5 332.9 1239.8 331.5 1259.1 335.7 1268.2 338.4 1280.3 348.1 1279.6 307.5 1273.6 245.2 1127.9 116 1136.4 103.7 1158.3 117.9 1225.6 162.7 1236.8 148.8 1337.5 233.9 1369.3 250.4 1361.7 263.7 1348.6 300.9 1389.1 323 1356.7 387.4 1404.1 410.7 1381.2 441.2 1362.2 467.8 1336.5 513.8 1307.9 565.9 1295.1 594.6 1288.7 613.8 1282.8 648.1 1280.2 657.9 1272.1 689.6 1226.9 681.6 1212.9 681.3 Z" data-holc_grade="C"/>
<path d="M 1318.4 1889.9 1312 1940.1 1401.7 1938.5 1612.8 1928.6 1623.8 2191.2 1464.7 2194 1215.5 2208.2 1203.2 2015.2 1236.9 1966.2 1236.2 1942 1269.9 1940.5 1280.3 1869.7 1286.2 1829.7 1326.3 1828.2 1318.4 1889.9 Z" data-holc_grade="C"/>
<path d="M 1947.4 2112.4 1947.5 2165 1941.1 2182.1 1746.8 2189.2 1690.4 2187.7 1673 2190 1623.8 2191.2 1612.8 1928.6 1828.1 1916.7 1836.9 2037.3 1871 2037.3 1873 2125.5 1947.4 2112.4 Z" data-holc_grade="C"/>
<path d="M 546.6 2225.2 382.9 2229.4 386.8 2365.9 444.9 2379.8 445.3 2421.3 546.5 2421.9 546.5 2436.9 546.8 2561.1 541.6 2602.6 307.6 2601.2 272.5 2443.9 56.2 2442.7 60.4 2256.3 231.5 2306.4 211.2 2277.2 200.8 2264.3 184.5 2251 159.7 2229.2 165.3 2041.3 203 2042.4 445.6 2035.6 444.1 2093 546.8 2094.5 546.6 2225.2 Z" data-holc_grade="C"/>
<path d="M 613.2 2436.8 546.5 2436.9 546.5 2421.9 546.6 2225.2 722.7 2228.5 721.2 2063.2 950.6 2066.1 1014.9 2066.1 1047.4 2065.3 1057.3 2110.4 1058.5 2152.3 1030.3 2160.2 1093.4 2328 1117.6 2373.5 1070.3 2376.2 1094.6 2422.1 783.5 2424 783.1 2436.6 613.2 2436.8 Z" data-holc_grade="C"/>
<path d="M 2149.8 2387.4 2062.2 2626.3 2000.2 2627.9 1996.6 2597.4 1996.2 2570.9 1976.8 2566.1 1979.5 2547.6 1901.5 2529.4 1905.1 2508 1861.4 2498.9 1864.6 2483.1 1823.2 2474.4 1830.1 2457 1934.5 2377.5 2051.5 2281.7 1897.9 2291.2 1941.1 2182.1 1947.5 2165 1947.4 2112.4 2194 2101.4 2232.3 2161 2150.6 2385.3 2149.8 2387.4 Z" data-holc_grade="C"/>
<path d="M 2575.1 2377.1 2487.4 2378.4 2267.7 2394.7 2223.1 2289.9 2244.2 2226.2 2527.4 2211.8 2549.6 2211.8 2565.1 2214.2 2565.1 2226 2560.3 2233.1 2560.3 2240.7 2566.3 2249 2568.3 2255.3 2562.4 2321 2566 2327.7 2571.1 2336 2575.1 2377.1 Z" data-holc_grade="C"/>
<path d="M 763.2 2482.5 764 2504.3 806.5 2503.9 807.5 2770.2 605.5 2770.1 541.9 2770 541.6 2602.6 546.8 2561.1 546.5 2436.9 613.2 2436.8 625.1 2446.8 637.4 2456.7 656 2467.4 686.6 2476.5 691.7 2484.1 710.8 2506.2 723.9 2530.4 729.4 2515.3 763.2 2482.5 Z" data-holc_grade="C"/>
<path d="M 2223.1 2289.9 2267.7 2394.7 2487.4 2378.4 2575.1 2377.1 2576 2425.8 2464.4 2429.4 2429.9 2510.5 2456.1 2507.4 2505.7 2487.9 2509.3 2467.8 2576 2467.3 2580.8 2504.9 2588.7 2501.7 2591.9 2501.3 2595.1 2506.9 2572.5 2568.6 2565 2603.4 2444.5 2610.6 2408.7 2611 2383.8 2671.6 2402.4 2677.5 2421.9 2675.1 2421.9 2685.8 2417.1 2691 2409.2 2697.7 2408 2702.8 2412 2704.8 2420.3 2709.5 2406.4 2740.8 2501.8 2746.7 2486.7 2784.7 2476.9 2805.3 2606.3 2804.3 2582.2 2869.5 2552.5 2945.3 2522.3 2933.9 2399 2882.9 2346.6 2858.4 2322.4 2845.6 2300.9 2834.3 2321.1 2781.6 2195.6 2779.3 2232.5 2682.8 2176.5 2687.1 2071.3 2646 2074.4 2625.1 2062.2 2626.3 2149.8 2387.4 2186.7 2387.2 2223.1 2289.9 Z" data-holc_grade="C"/>
<path d="M 1817.2 2935.4 1768.9 2943.7 1530.9 2759.9 1487 2725.7 1486.7 2671 1594.4 2651.3 1636 2543.1 1772.7 2505.4 1775.9 2510.1 1804.8 2523.7 1781 2582.7 1764.5 2623.5 1775 2628.5 1755 2677.9 1798.8 2695 1816.6 2643.4 1859.2 2662.7 1844.9 2703.5 2011.5 2763.3 1989.9 2816.5 2063 2838.9 2138.3 2838.6 2179.3 2848.1 2160.9 2890.5 1996.1 2915.2 1853.2 2929.2 1817.2 2935.4 Z" data-holc_grade="C"/>
<path d="M 2501.8 2746.7 2528.8 2677.4 2564.7 2619.5 2565 2603.4 2642.5 2594.4 2648.9 2603.6 2640 2616.6 2667.6 2631.4 2672.4 2641.2 2679.7 2660.5 2675.9 2685.9 2668.3 2721.6 2649.6 2762.2 2623.9 2762.5 2624.5 2786.2 2700.8 2784 2734.8 2780.4 2769 2784.2 2931.6 2815.7 2901.5 2841.1 2840.2 2852.2 2826.8 2834.5 2810.9 2834.2 2800.4 2820.3 2785.8 2813.3 2756 2828.9 2779.8 2839.6 2788.1 2848.8 2795.7 2856.4 2811.9 2865.2 2828.4 2869 2839.9 2875.3 2852.3 2880.7 2859.3 2885.7 2859.3 2890.5 2858 2896.5 2853.6 2900.9 2846.3 2905.1 2839.3 2903.8 2751 2901 2630.2 2879.6 2582.2 2869.5 2606.3 2804.3 2476.9 2805.3 2486.7 2784.7 2501.8 2746.7 Z" data-holc_grade="C"/>
<path d="M 1702.8 728.3 1534.3 726.4 1542.6 599.3 1540.2 544 1567.9 531.2 1565.4 484.8 1422.7 419.6 1423.7 413.2 1432.1 411.2 1432.6 402.3 1435.6 392.9 1446 391 1455.9 389 1458.9 381.6 1471.8 376.6 1474.7 368.2 1470.8 365.8 1468.8 361.8 1472.8 358.9 1475.2 353.4 1484.2 342.6 1494.6 326.8 1506.9 344.5 1523.8 356.9 1551 382.1 1578.8 405.3 1596.6 412.7 1617 420.1 1641.2 435.9 1679.4 446.2 1689.3 447.7 1696.7 453.7 1704.7 465 1717.6 493.6 1733.9 509.4 1757.7 529.7 1774.6 537.6 1809.8 567.7 1828.1 577.1 1846.4 584 1858.8 595.3 1871.2 607.7 1894 620 1917.8 632.9 1922.8 638.8 1883.1 682.8 1860.8 702 1841 744 1811.3 752.4 1811.8 784 1791.5 783.5 1781.1 780.1 1767.2 773.7 1759.2 768.2 1755.3 754.9 1759.7 739.6 1767.7 729.2 1702.8 728.3 Z" data-holc_grade="C"/>
<path d="M 605.5 2770.1 807.5 2770.2 914.2 2771 926.2 2768.6 927.1 2945.7 715.1 2948.1 577.1 2952.4 567.7 2953.4 507.1 2983 498.2 2964.2 524.5 2949.4 518 2936.6 514.6 2922.7 511.1 2908.9 514.6 2901.9 574.7 2805 605.5 2770.1 Z" data-holc_grade="C"/>
<path d="M 1768.9 2943.7 1772.4 2943.8 1707.5 3079.8 1685.1 3126.8 1663.1 3100.2 1651.7 3076.5 1619.3 3096.4 1569.1 3098.3 1558.3 3126.5 1424.1 3067.6 1442.2 3021.7 1259.5 3032.8 1265.5 3019.8 1278.2 2999.8 1285.2 2988.4 1300.1 2978.3 1326.8 2959.3 1356.4 2916.9 1440.3 2793.5 1446.1 2792.5 1456.6 2794.1 1470.3 2792.8 1486.2 2795.4 1495.4 2799.2 1497.9 2804.5 1557.6 2901.4 1575.1 2926.7 1592.6 2936.5 1610.1 2944.8 1633.3 2952.7 1651.4 2953.9 1682.2 2953 1710.1 2949.8 1759.7 2943.5 1768.9 2943.7 Z" data-holc_grade="C"/>
<path d="M 1707.5 3079.8 1772.4 2943.8 1768.9 2943.7 1817.2 2935.4 1854.4 2951.7 1862.7 2952.7 1937.4 2958.4 1903.7 3047.1 1879.7 3031.6 1849.3 3075 1840.4 3069.8 1837.6 3068.3 1831.5 3068.7 1826.7 3070.2 1822.5 3072.2 1817.2 3076.2 1768.3 3059 1765.1 3069.9 1759.4 3078.6 1752.2 3083.7 1733.3 3087.1 1719.1 3087.3 1714.3 3084.9 1707.5 3079.8 Z" data-holc_grade="C"/>
<path d="M 2751 2901 2706.5 3020 2701.4 3034.6 2701 3045.7 2697.4 3060 2651.1 3009.3 2605.7 2977.3 2568.4 2957.2 2549.8 3003.1 2508.4 2969.1 2522.3 2933.9 2552.5 2945.3 2582.2 2869.5 2630.2 2879.6 2751 2901 Z" data-holc_grade="C"/>
<path d="M 963.7 3201.5 940.4 3201 941.4 3046.1 953.3 3046.9 951.7 2929.5 993 2930.4 992.1 2923.5 1056.6 2921.9 1057.8 3076.4 1156 2981.5 1221.5 3050.5 1213.5 3063.5 1206.8 3081.8 1198.9 3103.4 1191.6 3117.6 1183.3 3129.3 1177.3 3135.3 1137.6 3149.9 1111.2 3156.5 1091.2 3157.2 1080 3154.9 1073 3157.2 1041.9 3158.1 1017.1 3163.5 1003.1 3168.8 990.7 3174.5 975.2 3186.6 963.7 3201.5 Z" data-holc_grade="C"/>
<path d="M 2766.3 3255.4 2766.3 3243.1 2766.3 3227.3 2796.1 3231.6 2847.7 3239.5 2845 3349.2 2828 3348 2797.7 3311.6 2800.5 3257.8 2766.3 3255.4 Z" data-holc_grade="C"/>
<path d="M 1353.4 3245.6 1331.1 3284.2 1308.8 3331.3 1277.4 3422.8 1259 3488.7 1258.8 3527.7 1262.5 3547.7 1270.3 3578.1 1165 3581.1 1176.9 3545.5 1216.7 3442.5 1245.6 3351.8 1246.7 3348.3 1280.7 3262.2 1311.5 3192.4 1380.5 3190 1353.4 3245.6 Z" data-holc_grade="C"/>
<path d="M 2382.6 1346.9 2418.3 1267.4 2428.7 1260.9 2445 1248.1 2450 1238.7 2456.9 1154.2 2316.1 1162.7 2281.9 1165.2 2275.9 1164.7 2246.7 1156.8 2270.9 1112.8 2274.9 1105.9 2272.4 1098 2296.2 1092.6 2293.2 1084.2 2307.6 1081.7 2305.1 1068.8 2299.7 1068.3 2293.2 1026.9 2401.3 1018.9 2419.6 1019.9 2426 993.7 2407.7 993.2 2356.6 995.7 2352.6 952.7 2350.2 955.2 2347.6 838.6 2356.5 847.5 2362.5 837.6 2370.9 824.3 2341.1 817.4 2344.1 830.7 2323.3 826.8 2307.9 822.4 2300 814.5 2298.5 797.2 2333.7 805 2389.7 812.9 2402.6 818.3 2442.3 821.3 2461.1 820.3 2486.4 820.3 2498.3 820.3 2563.2 821.2 2616.7 817.2 2625.7 820.6 2624.7 826.6 2616.8 835 2593 837 2552.3 836 2498.8 836.1 2480.5 900.8 2470.6 987.2 2515.3 985.7 2515.3 995.6 2510.8 1004 2495.9 1014.9 2501.9 1021.3 2506.9 1027.7 2515.8 1029.7 2519.8 1033.1 2526.2 1048.9 2528.7 1057.8 2535.6 1064.7 2538.1 1072.6 2539.6 1081.5 2535.7 1086.5 2532.2 1092.4 2530.7 1106.7 2539.6 1109.7 2546.1 1109.7 2552.5 1105.2 2557 1118.1 2556.5 1129.4 2552.1 1139.8 2548.1 1143.8 2543.1 1144.8 2535.2 1142.8 2522.8 1143.8 2513.4 1144.8 2508.4 1151.2 2514.4 1157.6 2526.8 1161.6 2532.2 1168.5 2538.2 1167 2544.1 1161.1 2547.6 1167 2547.6 1176.9 2540.2 1179.8 2534.2 1187.3 2529.3 1190.7 2537.7 1196.6 2527.8 1207.5 2514.9 1216.4 2518.9 1233.2 2525.8 1225.8 2531.8 1227.3 2533.3 1232.7 2526.8 1241.1 2534.3 1252.5 2532.8 1269.8 2537.8 1281.1 2542.7 1283.6 2549.2 1281.1 2552.7 1274.7 2558.1 1278.6 2562.1 1285.1 2562.6 1291.5 2558.1 1299.4 2553.2 1303.3 2539.8 1303.9 2524.9 1301.9 2510 1294.5 2504.1 1295.5 2485.7 1297 2497.1 1309.8 2471.4 1335.5 2466.4 1336.5 2460 1335.5 2457.5 1327.1 2454 1320.2 2449.1 1317.8 2428.2 1325.7 2425.3 1331.6 2420.8 1335.1 2415.3 1336.1 2408.4 1335.6 2401.5 1336.1 2393 1344.5 2382.6 1346.9 Z" data-holc_grade="C"/>
<path d="M 1167.3 427.2 1170.8 430.1 1168.5 495.9 1167.3 504.7 1165.8 510.9 1159.9 519.9 1140.8 544.5 1123.7 566.3 1113.5 578.4 1109.7 583.4 1107.8 595.5 1095.6 606.9 1067.1 682 1064.7 689.1 1065.4 747.2 1081 750.5 1078.9 786.9 1070.3 783.5 966.8 781.1 843.3 778.4 843.9 688.4 776.7 687.1 775.8 919.1 638.4 918.4 556 915.8 554.3 738.6 733.9 738.1 732.8 653.3 811.9 654 876.1 654.6 926.7 656.4 930.9 422.3 1167.3 427.2 Z" data-holc_grade="C"/>
<path d="M 878.7 1307 863.3 1331.3 861.9 1333.5 820.2 1335.9 756.6 1331.7 753.1 1225.5 752.5 1179.9 749 1121.8 691.2 1122.4 686.6 1015.1 639.6 1015 638.4 918.4 775.8 919.1 799.6 992.6 840.6 1040.6 840.1 881.2 972.2 886.6 966.8 781.1 1070.3 783.5 1078.9 786.9 1077.2 816.1 1073 925.7 1104.6 925.7 1099.8 953.6 1096.2 1030.1 1092 1078.7 1069.4 1155.1 1063.1 1166.4 1051.8 1155.1 1038.1 1139.7 1031.6 1128.4 1026.8 1114.8 1026.2 1100 992.3 1129.6 963.7 1172.3 878.7 1307 Z" data-holc_grade="C"/>
<path d="M 1117.9 1686.9 1073.9 1685.7 1084.2 1628.8 1076.7 1584.5 957.4 1582.9 957.4 1599.9 930.4 1641 838.8 1587.6 799.9 1571.7 677.3 1555.1 678.9 1598.2 534.5 1597.3 536.9 1513.9 553.2 1513.9 579.7 1524.6 659.8 1537.7 658.3 1413.1 737.6 1413.2 737.5 1507.7 735.5 1534.5 755.8 1537.3 778.8 1493.4 787.2 1470.9 808.6 1427.8 863.3 1331.3 878.7 1307 896.3 1342.1 899 1501.4 1075.5 1498.7 1086.2 1552.5 1096.1 1579.8 1101.3 1590.8 1107.2 1599.1 1110.4 1610.2 1111.2 1621.7 1118.3 1634.7 1124.3 1642.2 1133.4 1648.6 1129.5 1650.9 1129.5 1658.4 1149.7 1687.7 1117.9 1686.9 Z" data-holc_grade="C"/>
<path d="M 1073.9 1685.7 1117.9 1686.9 1096.9 1794.8 723.7 1793.5 721.2 2063.2 653.4 2016.9 652.7 1798.6 545.2 1796.6 544.3 1906.5 499.5 1861.4 452.7 1750.2 532.7 1753.4 533.9 1738 535.6 1676 718.4 1676.9 718.4 1663 955.7 1660.8 1060.4 1746.6 1073.9 1685.7 Z" data-holc_grade="C"/>
<path d="M 2212 2061.1 2213.9 2091.8 2214.4 2100.5 2194 2101.4 1947.4 2112.4 1873 2125.5 1871 2037.3 1836.9 2037.3 1828.1 1916.7 1612.8 1928.6 1401.7 1938.5 1399.6 1888.4 1395.2 1781.5 1416.1 1779.5 1410.2 1719 1489.6 1708 1547.5 1692.2 1555.4 1690.6 1682.6 1677.9 1690.2 1825.8 1686.2 1851.5 1804.5 1847.5 1799.7 1783.5 1911.5 1782.3 1907.5 1723.3 2063.8 1721.3 2067.4 1812.6 2171.4 1813 2166.6 1688.8 2152.7 1686.1 2150.7 1627.6 2150.2 1563.1 2197.8 1542.5 2213.3 1536.2 2211.4 1585.2 2216.2 1756 2269 1754 2272.6 1804.2 2240 1806.2 2245.3 1917 2242.5 1930 2238.1 1939.5 2242.9 1943.1 2249.6 1949.8 2244.1 1957.7 2236.6 1963.2 2206.8 1976.3 2212 2061.1 Z" data-holc_grade="C"/>
<path d="M 1280.3 1869.7 1269.9 1940.5 1236.2 1942 1236.9 1966.2 1203.2 2015.2 1215.5 2208.2 1165.6 2206.6 1129.4 2234.7 1106.4 2198.3 1098.9 2173.8 1095.4 2055.5 1094.6 2034.2 1092.2 2022.7 1095.8 2011.6 1110.9 1986.7 1122.4 1973.3 1124 1965.7 1137 1972.5 1225.2 1860.6 1237.9 1869.3 1249.4 1871.3 1280.3 1869.7 Z" data-holc_grade="C"/>
</g>
<g id="D">
<path d="M 1390.7 2467.3 1382.4 2435.7 1353.1 2449.9 1228.9 2298.4 1250.8 2282.2 1251.6 2240.2 1217 2242.6 1215.5 2208.2 1464.7 2194 1623.8 2191.2 1576.9 2300 1623 2320.2 1617.8 2326.9 1669.4 2325.7 1721.8 2350.6 1722.6 2405.6 1752.4 2409.2 1737.7 2441.6 1727.4 2456.6 1690.1 2424.6 1670.6 2471.7 1617.4 2449.1 1530.1 2416.7 1542.4 2383.9 1390.7 2467.3 Z" data-holc_grade="D"/>
<path d="M 1823.2 2474.4 1817 2490.2 1772.7 2505.4 1636 2543.1 1655.9 2508.5 1611.9 2536.9 1575.4 2521.5 1569.8 2540.5 1490 2508.9 1469.7 2521.1 1411 2540.5 1390.7 2467.3 1542.4 2383.9 1530.1 2416.7 1617.4 2449.1 1670.6 2471.7 1690.1 2424.6 1727.4 2456.6 1737.7 2441.6 1752.4 2409.2 1722.6 2405.6 1721.8 2350.6 1669.4 2325.7 1617.8 2326.9 1623 2320.2 1576.9 2300 1623.8 2191.2 1673 2190 1690.4 2187.7 1746.8 2189.2 1941.1 2182.1 1897.9 2291.2 2051.5 2281.7 1934.5 2377.5 1830.1 2457 1823.2 2474.4 Z" data-holc_grade="D"/>
<path d="M 807.5 2770.2 806.5 2503.9 764 2504.3 763.2 2482.5 775.1 2469.1 784.7 2447.3 955.4 2446.6 1108.1 2444.3 1155.7 2494.5 1183.1 2470 1209.7 2502.1 1154.5 2551.1 1219.6 2613.2 1225.5 2610.1 1253.3 2651.6 1019 2727.9 1004.8 2701 983.3 2722 969.4 2706.9 946.8 2682.8 937.3 2683.6 940.4 2730.3 914.2 2730.3 914.2 2771 807.5 2770.2 Z" data-holc_grade="D"/>
<path d="M 1859.2 2662.7 1816.6 2643.4 1798.8 2695 1755 2677.9 1775 2628.5 1764.5 2623.5 1781 2582.7 1811.6 2591.2 1825.6 2595.9 1840.5 2599.7 1850.7 2599.7 1862.1 2599.7 1889.5 2598.1 1890.4 2631 1907.3 2630.7 1892.7 2675 1859.2 2662.7 Z" data-holc_grade="D"/>
<path d="M 1279.3 2941 1235.5 2904.9 1229.1 2890.6 1229.4 2848.8 1106.5 2848.2 1105.6 2798.5 1083.7 2729.8 1309.1 2656.1 1335.4 2740.3 1337.7 2817.5 1318.6 2857.1 1337.3 2857.1 1279.3 2941 Z" data-holc_grade="D"/>
<path d="M 1221.5 3050.5 1156 2981.5 1057.8 3076.4 1056.6 2921.9 992.1 2923.5 993 2930.4 951.7 2929.5 948.6 2775.9 1021.7 2752.2 1083.7 2729.8 1105.6 2798.5 1106.5 2848.2 1229.4 2848.8 1229.1 2890.6 1235.5 2904.9 1279.3 2941 1254.5 2982.7 1233.5 3020.7 1221.5 3050.5 Z" data-holc_grade="D"/>
<path d="M 1768.9 2943.7 1759.7 2943.5 1710.1 2949.8 1682.2 2953 1651.4 2953.9 1633.3 2952.7 1610.1 2944.8 1592.6 2936.5 1575.1 2926.7 1557.6 2901.4 1497.9 2804.5 1495.4 2799.2 1486.2 2795.4 1470.3 2792.8 1456.6 2794.1 1446.1 2792.5 1440.3 2793.5 1423.3 2718.1 1463.3 2708.6 1473.8 2762.7 1530.9 2759.9 1768.9 2943.7 Z" data-holc_grade="D"/>
</g>
</svg>