<?xml version="1.0"?>
<svg xmlns="http://www.w3.org/2000/svg" version="1.2" baseProfile="tiny" width="3000" height="2697" viewBox="0 0 3000 2697" stroke-linecap="round" stroke-linejoin="round">
<g id="A">
<path d="M 160 303.1 149.7 264.5 154.9 252 138.6 237.8 140.1 234.9 140.1 232.8 137.2 226.2 132.7 221.8 125.9 219.1 117.9 218.7 110.8 196.3 111 192.7 107.2 185.6 95.2 194.8 88.4 198.4 88.5 195.5 88 189 89.5 185.8 93.5 177.1 96 174 102.7 170.2 113.9 169.7 122 166.8 124 165.5 141.8 173.2 150.2 178.1 157.5 180.2 164.3 183.8 172 184.9 175 184.4 179.3 185.5 186.2 185.6 189.3 184.4 190.8 189.3 192.1 191.5 194.8 192.7 200.2 194 197.4 200.6 193.5 205.9 183.9 217.8 177.8 224.8 170 235.6 167.8 239.3 165.1 254.3 165.6 262.9 168.1 279.2 172.8 300.3 160 303.1 Z" data-holc_grade="A"/>
<path d="M 1706.3 1639.3 1704.6 1675.4 1704.6 1713.7 1704.6 1735.6 1687.4 1735.6 1688 1637.6 1706.3 1639.3 Z" data-holc_grade="A"/>
<path d="M 2053.8 1281.7 2016.4 1279.8 2003.8 1278.5 1992.3 1278.1 1975.7 1278.5 1959.8 1280.5 1939.9 1283.1 1936.1 1268.6 1934.5 1252.4 1934.8 1250.4 1935.4 1244.7 1934.7 1235.8 1930.4 1224.4 1929.8 1214.1 1934.3 1202.5 1941.7 1202.4 1946.4 1202.4 1947.5 1202.9 1951.8 1204.6 1955.7 1207.2 1960.9 1210 1963.5 1209.8 1965.5 1209.3 1966.3 1206.1 1965.9 1202 1962.9 1194.7 1960.1 1185.2 1959.2 1180.9 1960.5 1175.5 1961.1 1171 1965.9 1166.2 1970.7 1163.2 1976.1 1160.6 1981.3 1158.9 1988.2 1158.9 1996 1160 2005.3 1162.6 2007.5 1166.9 2015.5 1169.7 2021.7 1170.1 2026.9 1169.9 2033.2 1168.4 2036.9 1166.6 2043 1168.2 2048.4 1171.2 2050.3 1175 2050.3 1180.4 2048.4 1183.9 2040.4 1194.9 2039.1 1202.4 2039.7 1204.1 2042.3 1205 2046 1204.1 2048.6 1203.3 2056 1201.3 2060.5 1198.1 2067.4 1196.1 2071.1 1195.9 2077.4 1198.5 2079.6 1200.9 2080.9 1208 2082.4 1216.2 2085.2 1220.1 2090.4 1225 2096.7 1233.8 2098.6 1239.9 2097.3 1242.2 2093.7 1244.8 2085.4 1246.1 2067.2 1253.2 2066.2 1255.4 2068.1 1260.1 2071.4 1262.9 2076.3 1265.1 2086.1 1269 2091.7 1271.3 2095.4 1273.1 2097.8 1276.3 2103.4 1284.7 2053.8 1281.7 Z" data-holc_grade="A"/>
<path d="M 2205.7 1314.9 2204.7 1343.9 2200.6 1348 2187.5 1345.9 2187.9 1346.3 2191.6 1349.7 2180.7 1353.2 2174 1359 2169.9 1368.3 2169.9 1380.5 2168.4 1391.5 2164.3 1399.3 2045 1395.9 2047.4 1310.8 2047.3 1299.8 2048.4 1296.6 2050.4 1295.1 2053 1291.4 2054.5 1288.4 2053.8 1281.7 2103.4 1284.7 2108.2 1290.7 2111.2 1292.9 2117.9 1293.5 2114.9 1277.7 2110.2 1263.2 2108.9 1249.4 2107.3 1236 2105.6 1222.2 2113.2 1222.2 2119.7 1225.5 2128.9 1230.6 2138.4 1234.3 2145.7 1237.6 2157.9 1246.7 2169.5 1255.3 2175.7 1257.7 2189.3 1263.4 2205 1265.8 2205.7 1314.9 Z" data-holc_grade="A"/>
<path d="M 2200.6 1348 2197.4 1398.5 2164.3 1399.3 2168.4 1391.5 2169.9 1380.5 2169.9 1368.3 2174 1359 2180.7 1353.2 2191.6 1349.7 2187.9 1346.3 2187.5 1345.9 2200.6 1348 Z" data-holc_grade="A"/>
<path d="M 2456.5 1320.9 2457 1357.2 2394.8 1395 2383.6 1396.8 2354.7 1401.2 2357.1 1344.7 2405 1345.4 2408.8 1345.2 2412.3 1341.9 2416.4 1334.4 2421.8 1326.3 2425.6 1319.8 2428 1313.6 2432.4 1311.2 2440.7 1310.9 2441.8 1296.1 2438.8 1295 2433.1 1293.2 2428 1291.5 2422.1 1289.1 2418.8 1284.8 2417.7 1279.4 2418.2 1271.6 2424.7 1264.6 2430.4 1261.4 2439.3 1258.9 2445.3 1258.9 2449.4 1259.2 2453.7 1259.5 2460.5 1261.3 2456.2 1295.8 2456.5 1320.9 Z" data-holc_grade="A"/>
<path d="M 29.4 284.6 27.7 291.7 24.2 296.2 20.7 299.6 20.1 301.9 21.1 306.6 33.5 340.5 31.2 356.9 33.8 365.5 37.4 371 41.7 379.6 45.5 388 48.4 405.7 6 416 4.9 410.6 3.3 389 3.6 376.6 5.8 366.4 6.9 358.9 7.2 353.5 5.6 342.5 2.6 333 1 319.8 3.7 296.4 9.4 285.9 10.2 277.9 12.7 268.2 17.6 262.3 29.1 249.5 30.3 256.2 27 265.8 21.9 271 19.3 273.2 19.2 276.1 20.3 278.2 29.4 284.6 Z" data-holc_grade="A"/>
<path d="M 233.1 394.2 255.4 465.6 180.8 513.6 135.1 509.7 147.8 495.3 156.9 480.3 173 459.2 220.9 398.2 230.5 385.9 233.1 394.2 Z" data-holc_grade="A"/>
<path d="M 180.8 513.6 199.4 577.2 202.3 587.3 171.8 592.9 148.9 597.4 102.6 609.6 99.1 606.8 92.6 599.9 85.9 595.1 79.2 595.6 72.1 594.3 64.9 590.6 59.3 586.1 54.6 578.7 53.3 574.2 49.8 571.6 42.2 569.5 35.3 567.7 29.5 563.4 26.9 560 23 556.7 21.5 551.1 22.4 547.7 25.2 542.3 25.2 537.6 25.8 532.6 79.3 521.4 135.1 509.7 180.8 513.6 Z" data-holc_grade="A"/>
<path d="M 692 1734.1 669.5 1716.6 634.1 1766.2 603.4 1742 631.6 1701.7 596.3 1673.9 612.5 1665.9 618.4 1659.3 624.2 1653 630.1 1647.6 636.8 1644.8 644.8 1642.5 619.1 1616.1 610.6 1609.9 615.8 1603 618.9 1597.4 634.5 1576.3 676.3 1520.9 744.1 1571 745.4 1568.6 749.5 1565.6 754.5 1563 758.4 1560.4 764.6 1555 774.4 1563.2 775.9 1568.2 777.2 1572.1 779.4 1575.3 782.8 1578.8 788 1578.8 790.8 1578.1 794.1 1591.7 792.6 1593.8 692 1734.1 Z" data-holc_grade="A"/>
<path d="M 517.4 1858.9 562.3 1894.8 546.9 1917.2 519 1940.3 510.6 1950 505.7 1960 474.1 2084.5 450.1 2085.5 493.6 1873.7 497.4 1855.4 517.4 1858.9 Z" data-holc_grade="A"/>
<path d="M 1142.6 1418.9 1113 1444.3 1104.1 1459.3 1083.6 1443.8 1051.1 1491.5 999.9 1452.8 1031.8 1404 1022.4 1395.4 1029.6 1395.3 1077.3 1401.9 1129.4 1408.6 1138 1410.4 1140.3 1412.8 1142.6 1418.9 Z" data-holc_grade="A"/>
<path d="M 1180.3 2427.9 1187.3 2432 1193.6 2436.8 1196.5 2445.7 1210.9 2430.7 1197.4 2422.6 1199.3 2421.2 1200.1 2418 1204.9 2414.5 1210.1 2412 1214.2 2407.7 1215.5 2402.6 1216.3 2397 1218.5 2391.8 1221.2 2387.2 1228.8 2383.7 1244 2381.9 1238.3 2395.9 1237.5 2401.5 1237.7 2410.2 1251 2404 1252.4 2397.2 1256.1 2387.8 1259.7 2382.7 1264.3 2378.6 1269.7 2375.1 1273.8 2374 1259.9 2325.3 1265.6 2313.1 1284.1 2321.5 1284.9 2336 1286.8 2347.1 1292.2 2358.1 1297.9 2371.6 1305.4 2377.6 1306.5 2388.1 1305.7 2406.7 1304.1 2415 1300.6 2422.6 1296.8 2437.1 1297.9 2445.8 1298.1 2458.4 1297.3 2463.3 1294.1 2467.3 1283.2 2463 1276.2 2459.5 1267.8 2449.5 1255.6 2438.5 1239.1 2430.7 1232.6 2429.3 1224.2 2430.1 1219.3 2434.2 1215.8 2440.1 1213.9 2443.1 1212.8 2448.7 1213.3 2451.1 1187.6 2466.5 1184.9 2470.5 1183.3 2471.1 1175.7 2466.8 1168.9 2456.3 1153.2 2443.6 1143.7 2431.4 1138.3 2427.7 1108.8 2408.5 1080.6 2392.6 1039.2 2372.1 1099.4 2253.8 1112.4 2260.8 1074.1 2337.9 1113.1 2356.5 1109.9 2362.7 1111.8 2367 1115 2371.6 1117.5 2374.5 1118 2379.9 1116.9 2381.8 1136.7 2388 1152.1 2407.2 1159.2 2429 1180.3 2427.9 Z M 1287.6 2441.7 1290 2439.8 1292.4 2437.1 1294.6 2432.3 1294.9 2427.7 1295.7 2423.7 1295.7 2422 1294.1 2419.3 1290.5 2417.5 1287.3 2416.1 1282.4 2416.1 1277.5 2417.5 1275.4 2420.2 1272.1 2422.6 1271 2427.7 1270.5 2431.5 1271.8 2435.5 1272.7 2437.7 1275.6 2440.9 1278.9 2441.7 1284.6 2442.8 1287.6 2441.7 Z" data-holc_grade="A"/>
<path d="M 1512.7 1641.5 1437.3 1643.9 1438.8 1622.4 1442.9 1616.3 1447.9 1613.7 1454.8 1608.6 1511.8 1607.9 1512.7 1641.5 Z" data-holc_grade="A"/>
<path d="M 220.9 398.2 173 459.2 156.9 480.3 147.8 495.3 135.1 509.7 79.3 521.4 107.5 447.6 121.4 420.2 112.9 369.2 116.9 368.5 122 369.8 127.1 372.2 132.1 377.6 138.5 382.3 148 382.6 152.1 384.6 160.5 386.3 166.6 386 172.7 387.7 176.4 391.1 180.8 395.1 185.8 397.5 195.3 399.2 203.1 399.5 212.6 399.5 220.9 398.2 Z" data-holc_grade="A"/>
<path d="M 199.4 577.2 180.8 513.6 255.4 465.6 233.1 394.2 245.4 373 241.3 350.1 238.6 341.7 239.3 337.6 244.4 330.9 248.5 326.5 247.8 320.8 305 259.3 288.8 520.4 287.8 528.8 284.4 536.9 279 540.6 260.1 550.3 199.4 577.2 Z" data-holc_grade="A"/>
<path d="M 305 259.3 288.4 230.1 186.7 261.6 180 258 173.3 251.5 171.2 248.1 170.7 240.3 170 235.6 177.8 224.8 183.9 217.8 193.5 205.9 197.4 200.6 200.2 194 207.9 188 212.9 187.4 222.3 181.7 230.4 175.6 237.8 173.2 244.5 172.5 251 173.7 258.1 172.1 269.8 170 280.8 169.2 286.1 184.7 286.1 193.3 297.3 210.1 297.1 219.1 305 259.3 Z" data-holc_grade="A"/>
</g>
<g id="B">
<path d="M 280.8 169.2 269.8 170 258.1 172.1 251 173.7 244.5 172.5 237.8 173.2 230.4 175.6 222.3 181.7 212.9 187.4 207.9 188 205.6 175.6 229 144.9 240.1 132.8 249.7 118.3 257.3 103.9 274.9 67.9 291.5 37.4 310 1.8 328.1 1 323.4 115.5 322.2 138.9 317.4 156.3 311.8 161.9 301.3 167.1 293.8 168.4 280.8 169.2 Z" data-holc_grade="B"/>
<path d="M 578.9 1933.2 546.9 1950.8 539.6 1954.9 526.3 1983.2 522.7 1988 522.2 1993.4 525.4 1998 533.8 2007.4 533.8 2012.3 528.1 2022.5 517.3 2038.7 515.1 2051.9 513.2 2089.1 473.1 2088.2 474.1 2084.5 505.7 1960 510.6 1950 519 1940.3 546.9 1917.2 562.3 1894.8 573.6 1903.8 561.2 1919.7 578.9 1933.2 Z" data-holc_grade="B"/>
<path d="M 1270.2 1427.1 1270.4 1517.1 1261 1517 1261 1532.3 1319.4 1532.2 1319.6 1559.8 1302.4 1560.1 1300.3 1563.5 1303.5 1575.5 1303.5 1594.7 1299.9 1595.5 1296.2 1600.2 1292.1 1612.3 1292.3 1619.5 1291.3 1623 1287.1 1624.6 1283.5 1624.1 1279.1 1621.6 1276.9 1622.7 1272.8 1621.4 1272.3 1623.3 1274.3 1627.2 1278.5 1631.9 1284.2 1641.3 1286.1 1646.5 1224.5 1645.2 1192.9 1654.7 1189.3 1656.9 1163.1 1616.8 1046 1529.9 1041.8 1517.8 1038.2 1510.2 1033.3 1504.2 1025.4 1500.3 1010.1 1498.7 983 1478 999.9 1452.8 1051.1 1491.5 1083.6 1443.8 1104.1 1459.3 1113 1444.3 1142.6 1418.9 1143.3 1428 1146.5 1431.5 1153.5 1435.1 1163.1 1436.7 1173.3 1436.5 1179.3 1437.5 1184.2 1438 1186.5 1436.4 1190.6 1428 1194.7 1423.6 1198.9 1421.2 1204.4 1422 1207.5 1424.4 1207.6 1428 1207.5 1434.5 1211.2 1441.7 1214.6 1443 1222.7 1441.2 1227.6 1440.1 1229.6 1436.9 1230.9 1433.3 1229.9 1420.2 1232.7 1418.3 1236.6 1416.5 1242.9 1414.9 1253.3 1418.1 1258.5 1420.9 1263.5 1426.2 1270.2 1427.1 Z" data-holc_grade="B"/>
<path d="M 1286.1 1646.5 1332.7 1647.5 1333.8 1683.9 1323.5 1683.9 1324 1696.3 1343.8 1695.7 1344.3 1755 1312.7 1755.3 1310.5 1713.5 1295.3 1713 1294.8 1720.5 1294.8 1724.8 1293.2 1729.1 1290.5 1730.5 1289.1 1728.3 1286.9 1724.8 1287.2 1715.9 1285.9 1703.8 1284.5 1697.3 1281.5 1693.8 1276.1 1689.5 1274.8 1684.9 1257.7 1686 1256.6 1691.7 1251.7 1704.3 1252.6 1708.4 1260.4 1718.1 1265.8 1725.9 1273.7 1750.6 1260.3 1753.4 1260 1745 1192.9 1654.7 1224.5 1645.2 1286.1 1646.5 Z" data-holc_grade="B"/>
<path d="M 1232.6 2183.2 1220.4 2201.2 1204.7 2234.1 1178.4 2220.4 1169.5 2240.6 1221.5 2265.9 1231.3 2247.1 1264.3 2263.5 1264.3 2271.9 1265.9 2276.7 1269.4 2280.5 1272.4 2282.7 1275.7 2282.7 1278.9 2282.4 1283.3 2278.6 1286.8 2276.5 1301.7 2284 1298.4 2289.7 1296 2298.6 1293 2304 1288.1 2311.5 1284.1 2321.5 1265.6 2313.1 1259.9 2325.3 1273.8 2374 1269.7 2375.1 1264.3 2378.6 1259.7 2382.7 1256.1 2387.8 1252.4 2397.2 1251 2404 1237.7 2410.2 1237.5 2401.5 1238.3 2395.9 1244 2381.9 1228.8 2383.7 1221.2 2387.2 1218.5 2391.8 1216.3 2397 1215.5 2402.6 1214.2 2407.7 1210.1 2412 1204.9 2414.5 1200.1 2418 1199.3 2421.2 1197.4 2422.6 1171.4 2383.2 1199.8 2328.5 1205.5 2330.4 1215 2311.2 1164.3 2286.7 1154 2304.5 1184.4 2320.9 1151.6 2386.2 1153.2 2389.1 1157 2397.2 1162.4 2402.1 1169.5 2407.2 1173.5 2410.7 1180.3 2427.9 1159.2 2429 1152.1 2407.2 1136.7 2388 1116.9 2381.8 1118 2379.9 1117.5 2374.5 1115 2371.6 1111.8 2367 1109.9 2362.7 1113.1 2356.5 1074.1 2337.9 1112.4 2260.8 1099.4 2253.8 1138.6 2174.5 1151.9 2153.3 1173.9 2166.2 1183.9 2167.8 1196.1 2169.7 1204.5 2171.1 1232.6 2183.2 Z" data-holc_grade="B"/>
<path d="M 1518.3 1349.4 1518 1371.7 1411.5 1373 1426.6 1360.8 1432.4 1359.9 1440.2 1358 1443 1358.2 1446.9 1359.7 1459.7 1364.4 1468.4 1362.3 1474 1361.6 1476.2 1359.5 1476.2 1357.5 1475.1 1354.5 1473.1 1352.6 1469 1348.3 1468.6 1343.8 1470.1 1339.2 1471.8 1337.7 1475.3 1337.1 1478.8 1338.8 1481.8 1340.5 1485.3 1342.7 1499.5 1343.3 1501.1 1344.2 1508.9 1344.2 1512.1 1345.7 1518.3 1349.4 Z" data-holc_grade="B"/>
<path d="M 1531.6 1641.3 1512.7 1641.5 1511.8 1607.9 1454.8 1608.6 1447.9 1613.7 1442.9 1616.3 1438.8 1622.4 1437.3 1643.9 1408.3 1645.5 1408.3 1607.8 1429.8 1607 1431.4 1602.5 1433.7 1598.1 1437.6 1592.6 1444.4 1586.7 1530.3 1587 1531.6 1641.3 Z" data-holc_grade="B"/>
<path d="M 1831.4 1285.7 1783 1284.1 1783.4 1291.5 1782 1296.5 1777.3 1301.2 1773.5 1306.3 1771.2 1312 1772.2 1320.8 1771.5 1323.8 1762.7 1323.8 1762.7 1338.9 1592.9 1340.3 1591.6 1344 1589.9 1347.7 1585.1 1350.7 1577.3 1350.7 1572.9 1349.4 1575.4 1297.5 1625.6 1297.5 1626.3 1299.4 1628.2 1304.8 1628 1306.3 1626.5 1310.2 1622.8 1319.5 1622.8 1324.2 1624.3 1329 1656.4 1320.8 1656.8 1275.7 1657.4 1272.7 1727.9 1272.3 1728.6 1319.9 1753.9 1316.2 1751.5 1311.3 1752.4 1303.9 1753.2 1299.2 1756.7 1295.3 1755.8 1265.2 1829.6 1211.9 1831.4 1285.7 Z" data-holc_grade="B"/>
<path d="M 1823.5 1637.3 1706.3 1639.3 1688 1637.6 1577 1639.7 1576 1621.1 1589.9 1620.8 1590.2 1602.7 1590.2 1601.6 1618 1601.6 1617.6 1551.4 1615.9 1538 1807.3 1537.9 1822.2 1586.1 1823.5 1637.3 Z" data-holc_grade="B"/>
<path d="M 1826 1780.7 1722.3 1783 1686.5 1782.6 1687.4 1735.6 1704.6 1735.6 1704.6 1713.7 1704.6 1675.4 1706.3 1639.3 1823.5 1637.3 1831.3 1637.3 1832.3 1686.8 1841.1 1687.1 1844.9 1703.9 1844.9 1734.6 1824.6 1734.3 1826 1780.7 Z" data-holc_grade="B"/>
<path d="M 1722.3 1783 1721.5 1935.4 1688.6 1935.4 1688.5 1929.3 1686.5 1782.6 1722.3 1783 Z" data-holc_grade="B"/>
<path d="M 76.4 284.3 33.8 293.5 31.3 284.9 29.4 284.6 20.3 278.2 19.2 276.1 19.3 273.2 21.9 271 27 265.8 30.3 256.2 29.1 249.5 30.2 243.4 29.7 230.7 27.5 217.2 27.7 212.4 37.7 210.5 47.7 205.8 56.2 200 68.7 184.3 80.2 171.9 85.3 167.5 91 162.9 95 162 98.1 162.3 98.1 163.7 98.1 166.6 101.4 169.3 102.7 170.2 96 174 93.5 177.1 89.5 185.8 88 189 88.5 195.5 88.4 198.4 83 204.2 73.9 218.3 71.9 219.8 69.3 220.8 66.3 222.4 63.9 226 62.4 230.4 61.8 235.7 63.7 242.8 76.4 284.3 Z" data-holc_grade="B"/>
<path d="M 1934.8 1250.4 1934.5 1252.4 1936.1 1268.6 1939.9 1283.1 1921.5 1284.7 1890.3 1285.8 1831.4 1285.7 1829.6 1211.9 1888.7 1172.9 1886.9 1159.2 1922.4 1156.3 1923.4 1173.4 1922.6 1178.7 1921 1187.8 1920.2 1192.8 1921 1199.9 1914.6 1200.1 1917.6 1221.6 1918.9 1251.1 1934.8 1250.4 Z" data-holc_grade="B"/>
<path d="M 2053.8 1281.7 2054.5 1288.4 2053 1291.4 2050.4 1295.1 2048.4 1296.6 2047.3 1299.8 2047.4 1310.8 2045 1395.9 2164.3 1399.3 2164 1429.1 2055.9 1425.5 1965.6 1426.1 1968.3 1324.6 1944.5 1289.8 1939.9 1283.1 1959.8 1280.5 1975.7 1278.5 1992.3 1278.1 2003.8 1278.5 2016.4 1279.8 2053.8 1281.7 Z" data-holc_grade="B"/>
<path d="M 2258.7 1419.9 2258.8 1412.8 2164 1429.1 2164.3 1399.3 2197.4 1398.5 2200.6 1348 2204.7 1343.9 2205.7 1314.9 2226 1316.1 2227.2 1342.7 2268.2 1344.3 2275.5 1327.3 2309.2 1328.9 2321.8 1322.1 2333.6 1316.8 2346.2 1316.8 2356.3 1320.8 2360.8 1323.6 2357.9 1332.5 2357.1 1344.7 2354.7 1401.2 2383.6 1396.8 2384.4 1426.3 2341.8 1426.3 2342.6 1402.8 2258.7 1419.9 Z" data-holc_grade="B"/>
<path d="M 2165.1 1661.7 2162.8 1616.6 2165.1 1616.5 2173 1621.6 2176.6 1624.7 2178.1 1627.2 2180.6 1662.1 2165.1 1661.7 Z" data-holc_grade="B"/>
<path d="M 128.4 307.6 123.3 294.7 95.2 194.8 107.2 185.6 111 192.7 110.8 196.3 117.9 218.7 125.9 219.1 132.7 221.8 137.2 226.2 140.1 232.8 140.1 234.9 138.6 237.8 154.9 252 149.7 264.5 160 303.1 128.4 307.6 Z" data-holc_grade="B"/>
<path d="M 33.8 293.5 46.3 337.4 43.2 341.3 42.9 347.6 43.2 353.9 46.8 363.6 54.7 381.7 95.6 367.4 112 364.1 112.9 369.2 121.4 420.2 107.5 447.6 79.3 521.4 25.8 532.6 19.9 483.4 6 416 48.4 405.7 45.5 388 41.7 379.6 37.4 371 33.8 365.5 31.2 356.9 33.5 340.5 21.1 306.6 20.1 301.9 20.7 299.6 24.2 296.2 27.7 291.7 29.4 284.6 31.3 284.9 33.8 293.5 Z" data-holc_grade="B"/>
<path d="M 102.6 609.6 148.9 597.4 171.8 592.9 202.3 587.3 227.4 612.3 193 617.4 99.9 640.6 97.6 634.6 93.7 633.3 92.6 631.8 93.2 629.6 97.4 623.1 100.8 615.8 102.6 609.6 Z" data-holc_grade="B"/>
<path d="M 526.1 1497.3 530.8 1500.8 523.8 1516.3 521.8 1523.4 506.9 1541.6 460.9 1506.8 469.3 1499.6 477 1500.5 486.5 1501.3 492.7 1499.8 503.1 1496.8 507.5 1494.2 514.2 1488.9 526.1 1497.3 Z" data-holc_grade="B"/>
<path d="M 520.9 1578.6 520.7 1581.9 523 1583.6 497.8 1616.3 420.3 1717 420.2 1717.1 386.2 1761.2 366.6 1745.9 455.4 1624.7 499.8 1563.4 520.9 1578.6 Z" data-holc_grade="B"/>
<path d="M 420.3 1717 497.8 1616.3 491 1660.1 439.2 1729.9 420.3 1717 Z" data-holc_grade="B"/>
<path d="M 596.3 1673.9 540.1 1750.9 508.1 1760 486.7 1767.8 458.4 1744 482.9 1712.2 483.5 1706.8 516.3 1669.1 516.1 1656.4 518.7 1646.4 520.6 1633.7 520.4 1628.6 523.7 1623 550.8 1640.3 596.3 1673.9 Z" data-holc_grade="B"/>
<path d="M 579.5 925.7 582.4 938.1 579.1 951 575.9 963.1 570.6 976.1 558.8 987.4 551.1 1000.3 546.2 1014 549 1032.2 550.6 1047.5 550.6 1064.1 548.2 1081.5 546.9 1092 540.9 1100.9 535.2 1116.6 533.5 1127.5 527.8 1132 516.9 1130.7 505.1 1122.6 490.1 1105.7 483.2 1083.4 479.2 1060 477.2 1040.2 469.1 1021.2 463.4 1007.1 460.2 987.7 446.4 973.1 437.1 969.1 423.7 963.8 403 959.8 378.2 961.4 369.3 969 355.9 975.1 337.1 978.9 327.2 981.7 318.1 953.7 548.1 891 551.8 904.1 571.1 900.1 579.5 925.7 Z" data-holc_grade="B"/>
<path d="M 450.1 2085.5 373.6 2086.4 412.8 1909.6 493.6 1873.7 450.1 2085.5 Z" data-holc_grade="B"/>
<path d="M 366.6 1745.9 386.2 1761.2 434.8 1797.8 418.2 1872.2 331.1 1852.1 327.3 1857.5 325.4 1866.7 323.5 1879.1 323.5 1889.3 323.5 1895.5 321.6 1904.1 319.4 1909.8 316.7 1915.7 315.6 1922.7 316.4 1928.9 315.8 1932.7 279 1924 279.1 1886.3 278 1873.6 275.6 1859.9 276.4 1845.6 281.8 1838.9 292.7 1829.7 297.3 1822.2 296.7 1813 291.1 1800.9 286.2 1789 283.5 1772.1 285.1 1762.4 288.7 1754.3 288.4 1748.4 285.2 1740 288.7 1725.4 292.5 1707.9 300 1695.9 366.6 1745.9 Z" data-holc_grade="B"/>
<path d="M 2553.2 1299.2 2577.3 1294.9 2594.3 1292.5 2597.9 1290.6 2600.3 1286 2603 1281.2 2633.9 1280.5 2633.6 1337.6 2648.2 1338.7 2648.2 1386.1 2607.6 1387.7 2603.8 1391 2603.9 1445.4 2592.5 1445.9 2580.6 1445.9 2564.9 1450.2 2503.2 1471.9 2492.9 1461.1 2484.3 1449.8 2476.1 1437.4 2471.8 1425 2470.7 1405.6 2551.3 1405.5 2553.2 1299.2 Z" data-holc_grade="B"/>
</g>
<g id="C">
<path d="M 112 364.1 95.6 367.4 54.7 381.7 46.8 363.6 43.2 353.9 42.9 347.6 43.2 341.3 46.3 337.4 89.4 326.5 81.6 305.8 102.2 301.4 123.3 294.7 128.4 307.6 112.4 312.4 120.8 338.6 108.9 342.3 112 364.1 Z" data-holc_grade="C"/>
<path d="M 1301.7 2284 1286.8 2276.5 1283.3 2278.6 1278.9 2282.4 1275.7 2282.7 1272.4 2282.7 1269.4 2280.5 1265.9 2276.7 1264.3 2271.9 1264.3 2263.5 1231.3 2247.1 1221.5 2265.9 1169.5 2240.6 1178.4 2220.4 1204.7 2234.1 1220.4 2201.2 1232.6 2183.2 1250.4 2193.6 1250.5 2193.7 1229.8 2231.8 1244.3 2239.1 1261.6 2205.8 1265 2202.2 1267 2203.4 1273.8 2208.5 1279.2 2209.9 1286.8 2212.6 1313.9 2228.2 1318.2 2230.9 1321.4 2234.4 1320.9 2239 1316.6 2251.1 1315.2 2265.4 1312.5 2274.3 1310.3 2278.1 1308.4 2281.3 1301.7 2284 Z" data-holc_grade="C"/>
<path d="M 1827.7 1498.7 1827.4 1516.4 1832 1529.8 1831.6 1530 1807.3 1537.9 1615.9 1538 1617.6 1551.4 1618 1601.6 1590.2 1601.6 1590.2 1602.7 1589.9 1620.8 1576 1621.1 1577 1639.7 1560.4 1641.4 1561.4 1375 1559.4 1349.7 1563.5 1349.1 1572.9 1349.4 1577.3 1350.7 1585.1 1350.7 1589.9 1347.7 1591.6 1344 1592.9 1340.3 1762.7 1338.9 1762.7 1323.8 1771.5 1323.8 1772.2 1320.8 1771.2 1312 1773.5 1306.3 1777.3 1301.2 1782 1296.5 1783.4 1291.5 1783 1284.1 1831.4 1285.7 1827.7 1498.7 Z" data-holc_grade="C"/>
<path d="M 1688.6 1935.4 1688.3 1963.7 1531.1 1964.5 1530.7 1931.4 1688.5 1929.3 1688.6 1935.4 Z" data-holc_grade="C"/>
<path d="M 1688.3 1963.7 1688.6 1935.4 1721.5 1935.4 1722.3 1783 1826 1780.7 1833.1 1780.5 1838.4 1920 1825.8 1918.4 1793.8 1918.8 1795 1935.4 1790.1 1935.8 1790.9 1963.7 1688.3 1963.7 Z" data-holc_grade="C"/>
<path d="M 1851.2 1593.6 1907.5 1780.4 1903.4 1780.1 1877 1780.9 1833.1 1780.5 1826 1780.7 1824.6 1734.3 1844.9 1734.6 1844.9 1703.9 1841.1 1687.1 1832.3 1686.8 1831.3 1637.3 1823.5 1637.3 1822.2 1586.1 1807.3 1537.9 1831.6 1530 1832 1529.8 1851.2 1593.6 Z" data-holc_grade="C"/>
<path d="M 2164 1429.1 2163.1 1502.6 1827.7 1498.7 1831.4 1285.7 1890.3 1285.8 1921.5 1284.7 1939.9 1283.1 1944.5 1289.8 1968.3 1324.6 1965.6 1426.1 2055.9 1425.5 2164 1429.1 Z" data-holc_grade="C"/>
<path d="M 2163.1 1502.6 2161.5 1523.6 2161.5 1531.2 2164.7 1549.8 2165.6 1563 2164.5 1574.8 2161.5 1591.5 2162 1600.8 2162.8 1616.6 2165.1 1661.7 2165.1 1661.9 2166.7 1693.9 2137.2 1693.7 2136.6 1621.5 2135.5 1598.8 1883.5 1594.9 1868.1 1596.8 1851.2 1593.6 1832 1529.8 1827.4 1516.4 1827.7 1498.7 2163.1 1502.6 Z" data-holc_grade="C"/>
<path d="M 2093.2 2136.2 2143.6 2134.9 2204.9 2135.7 2204.9 2184.6 2155.4 2185.9 2022.5 2184.7 2021.7 2230 2003.1 2229.2 2003.5 2217.5 1882.4 2217.5 1880.3 2133.8 1960 2133.4 1983.1 2135 2051.8 2141.4 2093.6 2141.4 2093.2 2136.2 Z" data-holc_grade="C"/>
<path d="M 2258.7 1419.9 2257.7 1503 2163.1 1502.6 2164 1429.1 2258.8 1412.8 2258.7 1419.9 Z" data-holc_grade="C"/>
<path d="M 2257.7 1503 2277.8 1503.1 2279.3 1531 2290.5 1530.9 2298.6 1531.8 2306.4 1532.6 2307.3 1603.3 2292.5 1602.2 2244 1601.7 2244 1600.1 2245.5 1594.7 2248.3 1589.1 2247.6 1585.7 2247.4 1579.5 2243 1570.8 2238.7 1569.9 2234 1571.6 2231.4 1573.4 2229.4 1575.7 2228.3 1578.4 2228.3 1583 2228.3 1586.8 2216.9 1587 2204.7 1592.2 2197.1 1598.7 2194.3 1608.8 2194.4 1624.2 2185.4 1617.6 2187.5 1615.6 2188.8 1613.9 2188.5 1611.6 2183.6 1605.3 2183.6 1602.5 2162 1600.8 2161.5 1591.5 2164.5 1574.8 2165.6 1563 2164.7 1549.8 2161.5 1531.2 2161.5 1523.6 2163.1 1502.6 2257.7 1503 Z" data-holc_grade="C"/>
<path d="M 579.5 925.7 571.1 900.1 551.8 904.1 548.1 891 318.1 953.7 327.2 981.7 311.9 986.4 306.6 988 294.5 903.9 266.5 833.2 347.6 810.4 359.4 847.7 639.2 773.9 643.5 794.8 620.2 830.8 628.3 857.4 608.7 862.1 622.5 917 579.5 925.7 Z" data-holc_grade="C"/>
<path d="M 2353.7 1789.8 2305.5 1789.6 2305.4 1716 2353.8 1715.5 2353.7 1789.8 Z" data-holc_grade="C"/>
<path d="M 2633.9 1280.5 2603 1281.2 2600.3 1286 2597.9 1290.6 2594.3 1292.5 2577.3 1294.9 2553.2 1299.2 2537.3 1311.9 2497.2 1340.8 2456.9 1370.2 2457 1357.2 2456.5 1320.9 2487 1290.7 2551.4 1239.2 2566.2 1222.2 2577.3 1221.1 2577.9 1226.8 2604.7 1227.6 2610.3 1237.5 2623 1237.5 2617.5 1214.1 2681.1 1205.4 2679.8 1210 2676.3 1219.1 2674.9 1226.7 2675.7 1236.1 2749.1 1235.2 2750.2 1242.5 2767.8 1242.7 2768.3 1263.2 2752.1 1262.7 2752.9 1278 2633.9 1280.5 Z" data-holc_grade="C"/>
<path d="M 2650.3 1927.8 2646.3 1928.6 2590.7 1993.8 2435.9 1993.9 2436.7 1987.4 2462.7 1980.9 2488.3 1976.9 2495.6 1976.1 2489.9 1971.2 2486.7 1968 2485.1 1965.2 2485.9 1961.9 2488.7 1960.7 2492 1962.3 2505 1959.9 2514.7 1955.8 2516.7 1949.4 2515.5 1940.1 2514.7 1933.6 2516.3 1928.8 2525.6 1930.4 2534.2 1934 2542.3 1934.4 2557.3 1928.7 2562.2 1927.1 2570.7 1925.1 2572.8 1923.5 2576 1917.4 2580 1888.3 2652.7 1834 2650.3 1927.8 Z" data-holc_grade="C"/>
<path d="M 386.1 1391.4 382.8 1391.9 376.3 1390.8 359.6 1381.1 349.8 1373.9 345.2 1368.2 339.6 1360.4 338.2 1335.9 334.5 1286.6 369.4 1287.1 363.7 1304.4 363.1 1318.1 365.3 1330 371.5 1347.2 381.5 1367.7 387.7 1377.9 389.3 1381.7 388.5 1386 386.1 1391.4 Z M 371.4 1209.3 370.3 1213.9 330 1213.6 325.5 1081.3 327.9 1079.7 331.7 1079.5 336 1079.5 354.4 1076.5 355.8 1091.1 352.3 1105.9 349.5 1119.6 348.7 1133.6 349.8 1163.5 354.9 1172.7 362.7 1188 370 1203.1 371.4 1209.3 Z M 311.9 986.4 327.2 981.7 337.1 978.9 339.2 1023.2 317.2 1026.8 311.9 986.4 Z" data-holc_grade="C"/>
<path d="M 530.8 1500.8 541.6 1509 512.3 1556.4 522.1 1562.9 520.9 1578.6 499.8 1563.4 455.4 1624.7 366.6 1745.9 300 1695.9 301.7 1670.4 304.1 1646.1 302.1 1623.2 343.1 1571 383 1601.7 400.9 1577.2 361 1548.2 374.6 1525.3 379 1520.2 396.6 1498.7 455.1 1542.2 429.4 1581.2 447.6 1594.7 487.6 1540.2 450.7 1510.9 453.4 1506.5 457.2 1505.8 460.9 1506.8 506.9 1541.6 521.8 1523.4 523.8 1516.3 530.8 1500.8 Z" data-holc_grade="C"/>
<path d="M 634.5 1576.3 618.9 1597.4 615.8 1603 610.6 1609.9 619.1 1616.1 644.8 1642.5 636.8 1644.8 630.1 1647.6 624.2 1653 618.4 1659.3 612.5 1665.9 596.3 1673.9 550.8 1640.3 523.7 1623 536.6 1605.2 528.6 1587.8 523 1583.6 520.7 1581.9 520.9 1578.6 522.1 1562.9 567.3 1597.2 598.5 1551.8 541.6 1509 530.8 1500.8 526.1 1497.3 596.4 1482.3 598.7 1510.7 599.8 1546.9 634.5 1576.3 Z" data-holc_grade="C"/>
<path d="M 625.5 1846.9 560.5 1798.8 508.1 1760 540.1 1750.9 596.3 1673.9 631.6 1701.7 603.4 1742 634.1 1766.2 669.5 1716.6 692 1734.1 641 1806.5 669.9 1829.4 625.5 1846.9 Z" data-holc_grade="C"/>
<path d="M 625.5 1846.9 621.2 1856.6 620.6 1863.2 618.9 1873.6 617.7 1885.1 616.3 1900.4 613 1907.2 610.5 1914.8 604 1921.4 578.9 1933.2 561.2 1919.7 573.6 1903.8 562.3 1894.8 517.4 1858.9 560.5 1798.8 625.5 1846.9 Z" data-holc_grade="C"/>
<path d="M 1559.4 1349.7 1561.4 1375 1560.4 1641.4 1531.6 1641.3 1530.3 1587 1444.4 1586.7 1437.6 1592.6 1433.7 1598.1 1431.4 1602.5 1429.8 1607 1408.3 1607.8 1408.3 1645.5 1395 1647 1332.7 1647.5 1286.1 1646.5 1284.2 1641.3 1278.5 1631.9 1274.3 1627.2 1272.3 1623.3 1272.8 1621.4 1276.9 1622.7 1279.1 1621.6 1283.5 1624.1 1287.1 1624.6 1291.3 1623 1292.3 1619.5 1292.1 1612.3 1296.2 1600.2 1299.9 1595.5 1303.5 1594.7 1303.5 1575.5 1300.3 1563.5 1302.4 1560.1 1319.6 1559.8 1319.4 1532.2 1261 1532.3 1261 1517 1270.4 1517.1 1270.2 1427.1 1275.9 1428.9 1279.3 1429.4 1283.4 1429.2 1287.9 1426.8 1292.6 1426.6 1295.7 1430.3 1300.3 1436.5 1304.3 1444.2 1306.3 1446 1311.6 1442.5 1318.5 1438.9 1326.3 1438.3 1333.1 1438.3 1338 1439.9 1340.4 1440.8 1344.6 1438.6 1348 1438.6 1352.7 1440 1355.2 1440.4 1356.6 1438.6 1357.3 1433.1 1354.8 1425.5 1350.9 1420.2 1344.3 1414.8 1338.6 1408.8 1337.6 1403 1336.8 1393 1339.9 1387.5 1342.3 1383.6 1343.5 1378.3 1343.8 1375.9 1348.2 1377.3 1350.8 1381.7 1354.5 1388.5 1356.5 1394 1359.1 1398 1359.6 1401.4 1372.1 1412.9 1381.2 1419.5 1387.6 1426.5 1390.1 1431.6 1392.4 1437 1398.4 1444.4 1400.5 1464.9 1397.6 1467.2 1397.9 1473.3 1400.6 1479.2 1404.7 1483.4 1409.1 1483 1415.1 1479.8 1417.4 1477.7 1416.4 1446.4 1418.2 1426.8 1409.6 1418.2 1398.2 1410.8 1396.6 1404 1397.7 1395.8 1401.5 1390.1 1406.5 1382.7 1408.3 1375.6 1411.5 1373 1518 1371.7 1518.3 1349.4 1559.4 1349.7 Z" data-holc_grade="C"/>
<path d="M 1325.1 1926.9 1326.2 1900.2 1325.6 1883 1323.5 1860.4 1321.3 1852 1288.6 1760.1 1277.5 1762.5 1273.7 1750.6 1265.8 1725.9 1260.4 1718.1 1252.6 1708.4 1251.7 1704.3 1256.6 1691.7 1257.7 1686 1274.8 1684.9 1276.1 1689.5 1281.5 1693.8 1284.5 1697.3 1285.9 1703.8 1287.2 1715.9 1286.9 1724.8 1289.1 1728.3 1290.5 1730.5 1293.2 1729.1 1294.8 1724.8 1294.8 1720.5 1295.3 1713 1310.5 1713.5 1312.7 1755.3 1344.3 1755 1343.8 1695.7 1324 1696.3 1323.5 1683.9 1333.8 1683.9 1332.7 1647.5 1395 1647 1395.5 1879.2 1438 1879.2 1438.3 1924.8 1325.1 1926.9 Z" data-holc_grade="C"/>
</g>
<g id="D">
<path d="M 81.6 305.8 89.4 326.5 46.3 337.4 33.8 293.5 76.4 284.3 80.5 303 81.6 305.8 Z" data-holc_grade="D"/>
<path d="M 2240.5 1789.3 2305.5 1789.6 2353.7 1789.8 2651 1791.2 2652.7 1834 2580 1888.3 2576 1917.4 2572.8 1923.5 2570.7 1925.1 2562.2 1927.1 2557.3 1928.7 2542.3 1934.4 2534.2 1934 2525.6 1930.4 2516.3 1928.8 2514.7 1933.6 2515.5 1940.1 2516.7 1949.4 2514.7 1955.8 2505 1959.9 2492 1962.3 2488.7 1960.7 2485.9 1961.9 2485.1 1965.2 2486.7 1968 2489.9 1971.2 2495.6 1976.1 2488.3 1976.9 2462.7 1980.9 2436.7 1987.4 2435.9 1993.9 2590.7 1993.8 2646.3 1928.6 2650.3 1927.8 2650.4 1993.3 2847 1985 2844.5 1932.5 2942.8 1938.8 2943.7 1991.4 2973.7 1992.2 2999 2076.2 2955.1 2091.6 2869.1 2116.8 2826 2132.2 2596.2 2213.3 2523.4 2236.1 2556.5 2330.2 2651.2 2296.4 2680.4 2392.1 2586.3 2423.9 2631.9 2565.4 2536.4 2596.5 2545.9 2628.8 2529 2636.9 2529 2650.4 2526.3 2659.2 2519.5 2665.9 2518.2 2672 2513.4 2679.4 2468.7 2695.6 2381.2 2438.2 2475.3 2408.5 2460.3 2359.9 2482.7 2354.5 2467.1 2304 2397.3 2325.6 2406.8 2351.9 2380.4 2360.7 2373 2333.7 2345.9 2341.8 2332.5 2296.8 2242.4 2328 2244.3 2136.9 2245.1 2066.1 2242.9 1937.5 2240.5 1789.3 Z" data-holc_grade="D"/>
<path d="M 1022.4 1395.4 1031.8 1404 999.9 1452.8 983 1478 938.8 1444 899.2 1494.6 861.3 1466.3 856.8 1464.6 823.4 1441.7 864.2 1387 826.5 1353.8 961.8 1329.7 978 1367 991.9 1359.5 1002.9 1360.4 1009.2 1345.1 1013.8 1341.6 1040 1368.4 1022.4 1395.4 Z" data-holc_grade="D"/>
<path d="M 1273.7 1750.6 1277.5 1762.5 1288.6 1760.1 1321.3 1852 1323.5 1860.4 1325.6 1883 1326.2 1900.2 1325.1 1926.9 1265.6 1925.6 1264.8 1889.2 1262.9 1876.2 1221.3 1759.8 1155.5 1677.4 1189.3 1656.9 1192.9 1654.7 1260 1745 1260.3 1753.4 1273.7 1750.6 Z" data-holc_grade="D"/>
<path d="M 1530.7 1931.4 1531.1 1964.5 1688.3 1963.7 1689.5 2036.8 1688.7 2036.9 1686.4 2287.9 1642 2287.5 1637.6 2283.9 1639.2 2228.5 1510.8 2123 1508.4 1931 1530.7 1931.4 Z" data-holc_grade="D"/>
<path d="M 1877 1780.9 1952.2 2039.2 1882.1 2037.2 1826 2034.8 1689.5 2036.8 1688.3 1963.7 1790.9 1963.7 1790.1 1935.8 1795 1935.4 1793.8 1918.8 1825.8 1918.4 1838.4 1920 1833.1 1780.5 1877 1780.9 Z" data-holc_grade="D"/>
<path d="M 2093.2 2136.2 2093.6 2141.4 2051.8 2141.4 1983.1 2135 1960 2133.4 1880.3 2133.8 1882.4 2217.5 2003.5 2217.5 2003.1 2229.2 2021.7 2230 2022.5 2184.7 2155.4 2185.9 2156.2 2233.2 2094.5 2233.6 2094.5 2282.9 2044.5 2280.9 2045 2354.9 2055.1 2391.3 1949.9 2426.2 1890.2 2417.7 1843.8 2376.9 1851.2 2367.5 1832.1 2351.4 1837.7 2341.3 1803.6 2310.1 1795.9 2320.3 1785.3 2310.1 1784.5 2317.4 1713.4 2317 1713.9 2312.6 1710.7 2308.5 1707.8 2304.1 1702.2 2301.7 1694.4 2300.9 1686.3 2299.7 1686.4 2287.9 1688.7 2036.9 1689.5 2036.8 1826 2034.8 1882.1 2037.2 1879.3 2124.9 1974.7 2127.7 2093.2 2136.2 Z" data-holc_grade="D"/>
<path d="M 2166.7 1693.9 2190.2 1694.7 2221.1 1715.4 2185.6 1791.7 2130.8 1794.2 2119.8 1795.8 2107.7 1795.8 2086.9 1793 1907.5 1780.4 1851.2 1593.6 1868.1 1596.8 1883.5 1594.9 2135.5 1598.8 2136.6 1621.5 2137.2 1693.7 2166.7 1693.9 Z" data-holc_grade="D"/>
<path d="M 1907.5 1780.4 2086.9 1793 2107.7 1795.8 2119.8 1795.8 2130.8 1794.2 2185.6 1791.7 2240.5 1789.3 2242.9 1937.5 2245.1 2066.1 2172.8 2064.6 2144.4 2073.1 2145.6 2037.5 2096.8 2036.7 2094.4 2096.6 2018.8 2060.6 1998.1 2059.4 1997.3 2036.8 1952.2 2039.2 1877 1780.9 1903.4 1780.1 1907.5 1780.4 Z" data-holc_grade="D"/>
<path d="M 2204.9 2135.7 2143.6 2134.9 2144.4 2073.1 2172.8 2064.6 2245.1 2066.1 2244.3 2136.9 2204.9 2135.7 Z" data-holc_grade="D"/>
</g>
</svg>