<?xml version="1.0"?>
<svg xmlns="http://www.w3.org/2000/svg" version="1.2" baseProfile="tiny" width="3000" height="2841" viewBox="0 0 3000 2841" stroke-linecap="round" stroke-linejoin="round">
<g id="A">
<path d="M 1048.3 1111.1 942.3 1213.8 1050.8 1327.1 970.7 1400.8 863 1290.2 835.6 1316 731.2 1414.5 711.4 1436.8 714 1473.6 622.7 1473.6 620.1 1420.4 533.6 1230.3 592.9 1177.5 685.3 1115.1 733.5 1166.6 767.2 1210.5 854.7 1120.6 832.7 1099.4 942.9 997.9 1048.3 1111.1 Z" data-holc_grade="A"/>
<path d="M 2586.6 1252.5 2503.9 1302.3 2441.2 1197.7 2537.3 1137 2556.2 1104 2571.1 1137.6 2582.7 1172.5 2591.8 1205.9 2586.6 1252.5 Z" data-holc_grade="A"/>
</g>
<g id="B">
<path d="M 142 730.6 212.5 700.5 222.5 717.5 341 664.9 356.9 700.6 321.6 714.8 337.6 747.7 387.2 729.1 409.8 776.3 342 806.5 306.2 734.6 207.5 777.3 213.1 787.7 108.3 836 92.4 797 156.3 764.1 142 730.6 Z" data-holc_grade="B"/>
<path d="M 735.2 863.5 735.2 863.2 732.2 837.3 820.3 867.5 830 843.5 951.9 896.3 1073.8 1024 1112.4 994.5 1148.2 1036.3 1111.5 1063.8 1048.3 1111.1 942.9 997.9 832.7 1099.4 854.7 1120.6 767.2 1210.5 733.5 1166.6 685.3 1115.1 592.9 1177.5 533.6 1230.3 443.5 1025.8 507.6 997.1 452.3 873.7 500.2 851.2 574.6 822 574.7 822.2 597.7 855 636.5 888.3 636.9 888 653.9 870.2 654.4 870.4 738.6 903.2 738.6 902.9 739.3 903.2 735.2 863.5 Z" data-holc_grade="B"/>
<path d="M 857 1470.2 714 1473.6 711.4 1436.8 731.2 1414.5 835.6 1316 902.6 1381.9 880.2 1399.1 899.2 1423.9 857 1470.2 Z M 1273.8 1448 1246.3 1469.4 1223.9 1454.9 1200.6 1480.6 1156.7 1436 1037 1563.8 990.5 1519.2 1032.7 1475.4 970.7 1400.8 1050.8 1327.1 942.3 1213.8 1048.3 1111.1 1111.5 1063.8 1254 1222.5 1214.4 1253.3 1271.3 1315.1 1273.8 1448 Z" data-holc_grade="B"/>
<path d="M 1626.1 733.4 1662.4 710.5 1662.9 710.1 1663.1 710.5 1748.5 852.2 1748 852.4 1677.8 882.9 1608.2 770.5 1638.5 751.9 1626.1 733.4 Z" data-holc_grade="B"/>
<path d="M 2573.5 1409.6 2526.7 1435.7 2427.7 1270.2 2327.8 1103.1 2248.2 969.3 2428 868 2456.9 889.2 2476.9 896.1 2483.1 905 2501.7 955.6 2514.6 1039.5 2527 1070 2554.7 1095.1 2556.2 1104 2537.3 1137 2441.2 1197.7 2503.9 1302.3 2586.6 1252.5 2561.1 1348.6 2560.8 1373.6 2573.5 1409.6 Z" data-holc_grade="B"/>
<path d="M 1599.3 1830.3 1705.1 1834.1 1695.7 1956 1718.9 1987.3 1673.7 2025.2 1625.2 1942.8 1598.2 1954.3 1575 1873.6 1583.3 1849.5 1599.3 1830.3 Z" data-holc_grade="B"/>
<path d="M 1666 2219 1604.3 2257.2 1657.7 2349 1741 2299.7 1869.4 2201.9 1893.7 2181 1952.7 2246.9 2006.7 2304 2037.1 2312.2 2056.1 2312.4 2056.1 2322.2 2017.4 2327.4 1933.8 2374.6 1959.7 2432.9 1931.2 2449.2 2067.4 2698 2136.3 2657.6 2206.1 2644.7 2214.8 2702.2 2211.3 2722 1942.5 2839.6 1879.6 2713.4 1764.1 2774.4 1751.2 2789 1705.5 2811.3 1670.2 2743.5 1649.5 2679.2 1618.5 2618.2 1596.9 2632 1581.4 2397.8 1522.8 2405.5 1502.2 2366 1483.2 2298.2 1453.9 2229.6 1422.9 2240.8 1337.6 2293.9 1317.8 2247.6 1336.8 2185.9 1364.3 2157.5 1411.7 2119.8 1434.4 2086.1 1447.7 2107 1558.5 2044.4 1600.9 2121.8 1616.9 2135 1666 2219 Z" data-holc_grade="B"/>
</g>
<g id="C">
<path d="M 371.9 601.7 202.1 679.1 212.5 700.5 142 730.6 128.8 701 81.9 724 46.7 656.5 35.7 659.3 1 589 141.2 528.5 304.8 458 371.9 601.7 Z" data-holc_grade="C"/>
<path d="M 2827.3 402.1 2899.6 489.1 2828 535.1 2693.8 629.2 2643.5 568.1 2676.5 536.6 2625.5 470.8 2709.5 400.8 2754.3 457 2780.5 433.6 2827.3 402.1 Z" data-holc_grade="C"/>
<path d="M 970.7 1400.8 1032.7 1475.4 990.5 1519.2 1037 1563.8 1156.7 1436 1200.6 1480.6 1223.9 1454.9 1246.3 1469.4 1273.8 1448 1326 1410.9 1321.8 1322.4 1427.2 1317 1435.5 1470.6 1301.8 1476.1 1304.6 1504.3 1240.5 1507.7 1243.3 1594.8 909.8 1596.8 911.2 1474.7 903.6 1465.1 970.7 1400.8 Z" data-holc_grade="C"/>
<path d="M 2427.7 1270.2 2212.8 1401.3 2129.4 1451.4 2092.9 1381.5 2129.4 1360.2 2076.3 1267.6 2203.8 1195.5 2140.3 1091.3 2045.3 1149.6 2015.7 1100.2 2248.2 969.3 2327.8 1103.1 2427.7 1270.2 Z" data-holc_grade="C"/>
<path d="M 2056.1 2312.4 2037.1 2312.2 2006.7 2304 1952.7 2246.9 1893.7 2181 1923.5 2161.3 1886.5 2116.3 1876 2088.8 1850.1 2108 1813.2 2137.1 1781.2 2154.7 1731 2087.2 1847.4 1996 1944.8 1932.4 1979.5 1966.5 1991.1 2019.2 1982.8 2061.6 1960.1 2115.2 1958 2144.8 1971.7 2184.3 2002.7 2221.8 2040.8 2263 2056.1 2312.4 Z M 1873.9 1928.4 1803.8 1975.2 1737.1 2027.3 1705.1 2051.5 1666.5 2048.2 1598.7 2042.2 1560.1 1968.6 1526.5 1990.6 1530.9 1950.5 1546.3 1881.9 1572.2 1850.6 1592.1 1814.4 1589.9 1797.5 1622.1 1798.8 1655.6 1796.7 1664.3 1794.3 1877.6 1805.8 1873.9 1928.4 Z M 1599.3 1830.3 1583.3 1849.5 1575 1873.6 1598.2 1954.3 1625.2 1942.8 1673.7 2025.2 1718.9 1987.3 1695.7 1956 1705.1 1834.1 1599.3 1830.3 Z" data-holc_grade="C"/>
<path d="M 2212.8 1401.3 2427.7 1270.2 2526.7 1435.7 2573.5 1409.6 2589 1428.7 2601.4 1463.6 2617.9 1476.7 2641.4 1480.8 2669.6 1479.4 2694.4 1467.7 2707.5 1454 2720.6 1443.7 2739.2 1441.6 2754.3 1456.7 2799.9 1541.8 2800.6 1624.8 2790.3 1710.6 2777.3 1862.9 2767.7 1950 2715.9 1887.6 2612.6 1978.2 2467.1 1710 2618 1622.8 2672.5 1701.7 2747.5 1660.5 2685.5 1584.4 2633.8 1517.1 2602.1 1536.4 2589.7 1515.8 2433.3 1605.7 2383 1528.2 2362.3 1538.5 2331.3 1481.6 2298.9 1500.1 2267.2 1445.2 2244.5 1455.5 2212.8 1401.3 Z" data-holc_grade="C"/>
<path d="M 1705.1 2051.5 1731 2087.2 1781.2 2154.7 1813.2 2137.1 1850.1 2108 1876 2088.8 1886.5 2116.3 1923.5 2161.3 1893.7 2181 1869.4 2201.9 1741 2299.7 1714 2266.7 1680.3 2213.5 1666 2219 1616.9 2135 1600.9 2121.8 1558.5 2044.4 1447.7 2107 1434.4 2086.1 1449.9 2043.3 1470.8 2022.4 1522.1 1999.9 1526.5 1990.6 1560.1 1968.6 1598.7 2042.2 1666.5 2048.2 1705.1 2051.5 Z" data-holc_grade="C"/>
<path d="M 735.2 863.5 739.3 903.2 738.6 902.9 738.6 903.2 654.4 870.4 653.9 870.2 636.9 888 636.5 888.3 597.7 855 574.7 822.2 574.6 822 500.2 851.2 452.3 873.7 451.7 874 355.1 919.5 365 945.4 329 961.5 289.8 873.8 190.6 917.8 156.2 938.7 108.3 836 213.1 787.7 207.5 777.3 306.2 734.6 342 806.5 409.8 776.3 387.2 729.1 337.6 747.7 321.6 714.8 356.9 700.6 341 664.9 391.5 643.3 431.6 724.8 497.3 698.5 559.7 797.7 618 822.5 735.2 863.5 Z" data-holc_grade="C"/>
<path d="M 1353.5 1125.6 1355.9 1128.4 1254 1222.5 1111.5 1063.8 1148.2 1036.3 1112.4 994.5 1073.8 1024 951.9 896.3 830 843.5 820.3 867.5 732.2 837.3 734.3 804.4 717.4 662 912.9 778.5 939.7 758.8 1060 893.8 1131.5 832.1 1195.9 904.9 1178.2 921.8 1353.5 1125.6 Z" data-holc_grade="C"/>
<path d="M 1748.5 852.2 1748.6 852.4 1762.4 875.2 1580.6 947.4 1577.9 935.8 1573.4 881.6 1549.3 835.3 1501.1 771 1459.8 738.4 1414.1 712.7 1370.2 653.5 1355.4 624.4 1543.3 511.6 1662.9 710.1 1626.1 733.4 1638.5 751.9 1608.2 770.5 1677.8 882.9 1748 852.4 1748.5 852.2 Z" data-holc_grade="C"/>
<path d="M 1776.9 479.6 1745.2 498.8 1774.9 544.8 1679.1 599.7 1825.2 845.2 1808 853.5 1762.5 875.4 1762.4 875.2 1748.6 852.4 1748.5 852.2 1663.1 710.5 1662.9 710.1 1543.3 511.6 1450.5 352.1 1540.7 298.6 1617.1 428.2 1712.9 370.6 1776.9 479.6 Z M 1625.4 516 1649.5 554.9 1681.9 535 1657.8 496.1 1625.4 516 Z" data-holc_grade="C"/>
<path d="M 2238.5 623.2 2147 678.7 2100 600.1 2142.5 574.3 2095.1 496.4 2053.7 521.1 2009.7 444.8 2119.3 380 2257.6 612.1 2238.5 623.2 Z" data-holc_grade="C"/>
<path d="M 2406.7 620 2407.8 668.3 2388.5 745.6 2385.8 782.9 2383.4 784.3 2346.5 804.8 2238.5 623.2 2257.6 612.1 2119.3 380 2009.7 444.8 1914 288.1 2282 59.8 2333.2 102.1 2379.5 148.1 2394.9 180.5 2406 216.2 2405.4 246.9 2391.7 299 2391.1 333 2398.9 394.5 2390.1 532.2 2387.3 551.9 2394 589.8 2406.7 620 Z" data-holc_grade="C"/>
<path d="M 1891.2 948.4 2042.9 858.9 2073.7 841.1 2042.3 787.9 2168.5 712.7 2147 678.7 2238.5 623.2 2346.5 804.8 2245.7 867.4 2254.5 879.5 1956.4 1057.9 1891.2 948.4 Z" data-holc_grade="C"/>
<path d="M 2640.8 782.8 2483.1 905 2476.9 896.1 2456.9 889.2 2428 868 2627 757.4 2640.8 782.8 Z M 2383.4 784.3 2385.8 782.9 2388.5 745.6 2407.8 668.3 2406.7 620 2468.9 602.8 2534.3 547.2 2630.8 662.4 2400.7 804.5 2383.4 784.3 Z" data-holc_grade="C"/>
<path d="M 2206.1 2644.7 2136.3 2657.6 2067.4 2698 1931.2 2449.2 1959.7 2432.9 2083.3 2372.1 2183.3 2556.6 2206.6 2596 2206.1 2644.7 Z" data-holc_grade="C"/>
<path d="M 1596.9 2632 1498.3 2687 1484.5 2512 1376 2530.9 1373.4 2514.6 1388 2453.7 1387.2 2424.5 1379.4 2405.6 1354.4 2349 1337.6 2293.9 1422.9 2240.8 1453.9 2229.6 1483.2 2298.2 1502.2 2366 1522.8 2405.5 1581.4 2397.8 1596.9 2632 Z" data-holc_grade="C"/>
</g>
<g id="D">
<path d="M 371.9 601.7 304.8 458 141.2 528.5 42.5 303.2 144.7 269.3 151.3 280.3 181.2 269 198.1 299.2 224.6 286.8 241.5 317.7 265.6 306.7 275.6 356.1 295.2 416.5 342 400 352.3 433.6 428.1 406.6 481.4 522.5 503.1 571.6 598.5 742.7 578.5 751.3 501.4 611.3 474.9 557.1 371.9 601.7 Z" data-holc_grade="D"/>
<path d="M 2998.2 612.5 2999 802.5 2872.3 896.6 2817.8 827.3 2723.5 900.1 2721.4 773.2 2781.3 740.2 2749.6 681.3 2955.5 561.8 2998.2 612.5 Z" data-holc_grade="D"/>
<path d="M 2129.4 1451.4 2212.8 1401.3 2244.5 1455.5 2267.2 1445.2 2298.9 1500.1 2331.3 1481.6 2362.3 1538.5 2383 1528.2 2433.3 1605.7 2414.9 1618.6 2436.9 1652.2 2610.5 1552.7 2602.1 1536.4 2633.8 1517.1 2685.5 1584.4 2618 1622.8 2467.1 1710 2612.6 1978.2 2641.9 2035.5 2582.8 2082.9 2554.3 2051.6 2464.2 2122.4 2308.3 2216.4 2304.2 2213.9 2286.3 2016.3 2263.6 1973 2175.1 2048 2193.7 2087.1 2197.9 2218.1 2205.4 2291.3 2056.1 2312.4 2040.8 2263 2002.7 2221.8 1971.7 2184.3 1958 2144.8 1960.1 2115.2 1982.8 2061.6 1991.1 2019.2 1979.5 1966.5 1944.8 1932.4 2142.5 1791.8 2254.6 1939.3 2295.9 1917.3 2180.8 1762.9 2233.8 1725.2 2378.6 1867.2 2426.8 1843.8 2363.7 1771.4 2227.9 1614.6 2184.8 1538.1 2129.4 1451.4 Z M 2129.4 1451.4 2071.1 1483.8 2162.5 1655 2206.7 1701.1 2162.9 1732.4 2110 1640.6 2032.6 1499.4 1987.6 1525.8 2068.6 1672.3 2121.6 1762.1 2092.6 1782.7 1990.1 1855.1 1873.9 1928.4 1877.6 1805.8 1664.3 1794.3 1655.6 1796.7 1622.1 1798.8 1589.9 1797.5 1585.3 1785.6 1565.1 1752.7 1562.2 1689.7 1751.5 1562.5 1903.2 1465.7 1899.5 1453.8 1844.5 1407.7 2002.8 1318.7 2076 1391.2 2092.9 1381.5 2129.4 1451.4 Z" data-holc_grade="D"/>
<path d="M 1355.4 624.4 1370.2 653.5 1414.1 712.7 1459.8 738.4 1501.1 771 1549.3 835.3 1573.4 881.6 1488.2 954.5 1429.6 888.4 1395.2 915.9 1299.6 810.4 1243.6 861 1064.6 652.6 1301.3 448.6 1319.4 470.9 1323.7 511.2 1336.6 587.5 1355.4 624.4 Z" data-holc_grade="D"/>
<path d="M 2042.9 858.9 1891.2 948.4 1872 959.8 1808 853.5 1825.2 845.2 1679.1 599.7 1774.9 544.8 1745.2 498.8 1776.9 479.6 1819.6 558.5 1852 542.7 2042.9 858.9 Z" data-holc_grade="D"/>
<path d="M 2147 678.7 2168.5 712.7 2042.3 787.9 1928.7 596.8 1956.2 579.2 1910.5 501.3 1941.9 482.1 1849.3 326.9 1817.9 345.5 1679.6 111.3 1868 1 1888.4 146.9 1896.7 273.7 1903.8 294.5 1886.8 304.9 2026.7 537.5 2040 529.8 2085.2 608.3 2100 600.1 2147 678.7 Z" data-holc_grade="D"/>
<path d="M 1254 1222.5 1355.9 1128.4 1353.5 1125.6 1373.6 1110.2 1508.3 1266 1304.7 1276.2 1254 1222.5 Z" data-holc_grade="D"/>
<path d="M 2709.5 400.8 2779.7 343.8 2827.3 402.1 2780.5 433.6 2754.3 457 2709.5 400.8 Z" data-holc_grade="D"/>
<path d="M 857 1470.2 903.6 1465.1 911.2 1474.7 909.8 1596.8 1243.3 1594.8 1246.6 1851.2 954.4 1859.4 718.7 1858.6 718.1 1596.5 465.9 1599.8 466.7 1470.2 622.7 1473.6 714 1473.6 857 1470.2 Z" data-holc_grade="D"/>
<path d="M 1246.6 1851.2 1243.3 1594.8 1240.5 1507.7 1304.6 1504.3 1304.5 1518.4 1540.1 1510.2 1544.3 1582.2 1423 1589.1 1427.8 1653.6 1394.1 1654.9 1395.4 1685.8 1318.3 1690.6 1324.5 1910.9 1246.6 1913.6 1246.6 1851.2 Z" data-holc_grade="D"/>
<path d="M 2483.1 905 2640.8 782.8 2671.5 845.6 2688.9 911.5 2689 985.2 2554.7 1095.1 2527 1070 2514.6 1039.5 2501.7 955.6 2483.1 905 Z" data-holc_grade="D"/>
</g>
</svg>