<?xml version="1.0"?>
<svg xmlns="http://www.w3.org/2000/svg" version="1.2" baseProfile="tiny" width="3000" height="3331" viewBox="0 0 3000 3331" stroke-linecap="round" stroke-linejoin="round">
<g id="A">
<path d="M 1264 938.7 1322.4 1020.7 1266.9 1013 1220.4 1009.4 1147.3 1006.6 1072.2 1004.2 1096 946.4 1094.6 933.8 1103.7 928.9 1183.9 929.6 1264 938.7 Z" data-holc_grade="A"/>
<path d="M 1897.7 1450 1912.3 1415.3 1937.1 1373.8 1950.6 1326.7 2009.6 1347.4 2028.8 1308.2 2113.2 1338.4 2090.7 1402.3 2086.8 1423.6 2060.3 1471.3 2033.3 1502.1 1962.4 1467.4 1956.2 1479.7 1897.7 1450 Z" data-holc_grade="A"/>
<path d="M 2664.3 1575.4 2528.4 1568.7 2533.5 1519.9 2544.4 1499.8 2553.7 1466.1 2504.7 1452.7 2514 1421.6 2531.7 1389.6 2496.3 1384.6 2462.5 1383.3 2511.4 1288.7 2611 1292 2612.7 1358.4 2593.3 1398.8 2573.9 1413.1 2563.8 1428.3 2667.6 1445.9 2664.3 1575.4 Z" data-holc_grade="A"/>
<path d="M 2578.4 1806.7 2507.9 1868.1 2488.2 1853.5 2530.9 1812.6 2562.4 1761 2519 1735.8 2485.8 1715.6 2456.6 1703.8 2422.1 1499.2 2396.8 1478.5 2343.9 1445.4 2363 1364.7 2378.1 1372 2450.7 1382.9 2462.5 1383.3 2496.3 1384.6 2531.7 1389.6 2514 1421.6 2504.7 1452.7 2553.7 1466.1 2544.4 1499.8 2533.5 1519.9 2528.4 1568.7 2664.3 1575.4 2660.2 1723.4 2631.5 1718.4 2610.4 1719.2 2587.6 1728.5 2585.1 1742 2577.5 1758.8 2578.4 1806.7 Z" data-holc_grade="A"/>
<path d="M 2507.9 1868.1 2578.4 1806.7 2580.1 1821.9 2636.6 1865.6 2660.3 1868.1 2656.9 1945.5 2712.7 1995.9 2801.4 2073.2 2814.9 2084.2 2999 2132.8 2966.2 2305.3 2811.7 2288.6 2725.5 2267.6 2738.1 2133 2733 2083.4 2502.4 1902.7 2515.9 1874.1 2507.9 1868.1 Z" data-holc_grade="A"/>
</g>
<g id="B">
<path d="M 1264 938.7 1183.9 929.6 1103.7 928.9 1094.6 933.8 1096 946.4 1072.2 1004.2 1054.5 1047.3 1085.4 1059.2 1066.4 1141.1 1036.9 1114.5 979.2 1076.7 885.7 1038.8 873.7 1070.3 956 1108.9 972.9 1115.9 1019.3 1150.9 1043.9 1171.3 1060.8 1182.5 1066.4 1141.1 1121.3 1220.3 1112.8 1232.9 1043.9 1239.9 1012.2 1227.3 976.4 1214 960.9 1209.8 930.7 1208.4 905.4 1202.1 889.9 1195.1 877.9 1188 858.9 1185.9 844.9 1189.4 823.1 1197.1 801.3 1190.1 790 1202.7 774.5 1198.5 751.3 1270 727.7 1263.4 738.7 1224.4 772.5 1141.8 792.2 1088.5 816.8 1039.5 822.4 1024.8 795 1006.5 641 935 731.1 799.8 784.5 779.5 815.5 830 819 855.9 835.8 889.5 856.2 936.5 949.7 902.9 964.5 899.4 1002.5 872.8 1005.3 891 1062.3 872.1 1072.8 911.3 1157.2 895.9 1231 894.5 1264 938.7 Z" data-holc_grade="B"/>
<path d="M 1825.7 2073.4 1858.9 2081.8 1889.3 2104.8 1928.4 2165.3 1884.3 2186.4 1856.8 2205.3 1790.2 2205.3 1771.3 2213.8 1748 2212.5 1740.1 2164.2 1684.6 2208.2 1558.9 2309.9 1519.5 2294.5 1473 2294.5 1458.7 2302 1442.3 2288.2 1444.9 2248.2 1446.3 2218.7 1437.8 2193.5 1425.2 2168.3 1471.6 2164.1 1506.8 2150 1639.1 2033.7 1673.1 2023.5 1729.4 2044.2 1789.7 2119.9 1825.7 2073.4 Z" data-holc_grade="B"/>
<path d="M 2090 2006 2003.9 2076.1 1860.3 1906 1938.3 1840.1 1959.1 1823.5 1926.5 1781.4 1987.8 1650.2 2135.8 1728.6 2073.9 1781.9 2135.8 1854.2 2107.1 1868.3 2121.8 1891.3 2128 1918.2 2152.8 1959.7 2090 2006 Z" data-holc_grade="B"/>
<path d="M 2176.1 1194.9 2171.1 1201.1 2284.8 1272.8 2316.8 1222.9 2414.2 1289 2395.6 1315.3 2358.5 1356.8 2363 1364.7 2343.9 1445.4 2254.4 1414.6 2237 1530.1 2330.5 1576.1 2371.5 1613 2394.6 1514.9 2396.8 1478.5 2422.1 1499.2 2456.6 1703.8 2485.8 1715.6 2519 1735.8 2562.4 1761 2530.9 1812.6 2488.2 1853.5 2444.3 1913 2412.8 1927 2299.1 1863.2 2261.4 1892.9 2184.8 1842.5 2179.7 1818.9 2187.6 1801 2179.1 1764.5 2208.4 1702.3 1765.5 1484.8 1897.7 1450 1956.2 1479.7 1962.4 1467.4 2033.3 1502.1 2060.3 1471.3 2086.8 1423.6 2090.7 1402.3 2113.2 1338.4 2028.8 1308.2 2009.6 1347.4 1950.6 1326.7 1955.1 1302.6 1997.3 1302.6 2056.3 1166.9 2071.5 1160.7 2096.2 1171.9 2108.1 1145.6 2139.7 1161.8 2158.1 1171.3 2176.1 1194.9 Z" data-holc_grade="B"/>
<path d="M 2801.4 2073.2 2712.7 1995.9 2766.7 1880.6 2910.2 1873 2858.8 2021.1 2801.4 2073.2 Z" data-holc_grade="B"/>
</g>
<g id="C">
<path d="M 727.7 1263.4 702 1354.1 689.4 1349.8 671.8 1334.4 644.4 1284 629.7 1235.6 612.1 1204.1 602.3 1170.4 581.2 1115.1 561.5 1100.3 641 935 795 1006.5 822.4 1024.8 816.8 1039.5 792.2 1088.5 772.5 1141.8 738.7 1224.4 727.7 1263.4 Z" data-holc_grade="C"/>
<path d="M 1425.2 2168.3 1415.3 2133.2 1415.3 2113.6 1401.3 2071.5 1378.7 2022.4 1366.1 1990.2 1347.8 1957.9 1343.6 1939.7 1449.1 1932.7 1511 1966.4 1605.3 2012.6 1639.1 2033.7 1506.8 2150 1471.6 2164.1 1425.2 2168.3 Z" data-holc_grade="C"/>
<path d="M 1442.1 1845.1 1475.9 1803.1 1558.1 1751.5 1593.5 1719 1609.3 1753.2 1683 1832.2 1710.6 1810.9 1770.3 1869.8 1826 1937.6 1801.8 1954.5 1782.1 1991.5 1756.8 1991.5 1708.4 1975.8 1702.7 1986.5 1598.6 1948.9 1600.3 1922.5 1580.6 1911.9 1555.3 1900.7 1533.3 1886.6 1468 1862 1442.1 1845.1 Z" data-holc_grade="C"/>
<path d="M 1938.3 1840.1 1860.3 1906 1837.3 1878.1 1838 1875.4 1909.3 1806.8 1938.3 1840.1 Z M 1863.7 1806.8 1815.1 1854.2 1732 1760 1785.7 1718.6 1863.7 1806.8 Z M 1662.6 1668.6 1706.9 1635.3 1733.3 1651 1775.2 1705.8 1722.5 1749.6 1662.6 1668.6 Z" data-holc_grade="C"/>
<path d="M 2135.8 1728.6 1987.8 1650.2 1926.5 1781.4 1901.1 1750.6 1892.7 1696.2 1882.6 1682.7 1880.3 1660.9 1876.4 1655.3 1876.9 1617.7 1819 1601.4 1795.3 1595.3 1785.2 1596.4 1767.7 1608.7 1761 1617.7 1730.5 1592.3 1747.4 1540.4 1725.8 1539.8 1726.1 1526.3 1710.6 1525 1702.8 1541.1 1677.8 1523.6 1688.6 1500.1 1712.9 1463.4 1765.5 1484.8 2208.4 1702.3 2179.1 1764.5 2150.4 1719.1 2135.8 1728.6 Z" data-holc_grade="C"/>
<path d="M 2139.7 1161.8 2108.1 1145.6 2096.2 1171.9 2071.5 1160.7 2056.3 1166.9 1997.3 1302.6 1955.1 1302.6 1854.9 1298.1 2008.4 995.4 2146.7 1071.9 2129.9 1107.2 2156.3 1121.2 2139.7 1161.8 Z" data-holc_grade="C"/>
<path d="M 2176.1 1194.9 2158.1 1171.3 2139.7 1161.8 2156.3 1121.2 2129.9 1107.2 2146.7 1071.9 2008.4 995.4 2047.8 889.4 2081.5 818.2 2123.6 755.2 2219.2 680.1 2335.6 741.1 2267.6 875.7 2427.4 939 2375.1 1018 2310.5 1085.3 2176.1 1194.9 Z" data-holc_grade="C"/>
<path d="M 1062 2517.4 1128.2 2479.5 1178.9 2458.5 1280.2 2408 1352 2367.4 1425.2 2319.7 1458.7 2302 1473 2294.5 1519.5 2294.5 1558.9 2309.9 1432.2 2423.5 1397 2434.7 1380.1 2458.5 1453.3 2754.4 1436.4 2783.9 1388.5 2796.5 1336.5 2830.2 1264.7 2754.4 1222.5 2710.9 1170.4 2587.5 1062 2517.4 Z" data-holc_grade="C"/>
<path d="M 1558.9 2309.9 1684.6 2208.2 1728.5 2273.9 1771.7 2350.7 1774.9 2255.1 1771.3 2213.8 1790.2 2205.3 1856.8 2205.3 1884.3 2186.4 1928.4 2165.3 1977.9 2199 1993.7 2240.2 2026.6 2283.8 2041.5 2306.2 2110 2391 2132.4 2416.1 2154 2448.4 2177.9 2473.1 2199.6 2493.7 2245.9 2513.9 2260.4 2531.8 2215.8 2528.7 2177.5 2504.9 2152.7 2487 2133.8 2481.2 2111.3 2481.6 2072.5 2440.8 2018.9 2411.2 2000.5 2437.2 1950 2448.9 1848.7 2477.6 1798.7 2488.4 1834.8 2564.7 1843.2 2583.2 1849.4 2635.9 1843.2 2680.3 1822.4 2745.9 1841 2825 1848.3 2887.8 1851.1 2920.4 1844.4 2939.5 1626.5 2956.9 1615.2 2904.1 1610.7 2860.9 1608.4 2853.1 1621.4 2843.5 1681.6 2729.6 1704.1 2641 1661.9 2606.8 1641.7 2597.3 1709.8 2446.9 1715.9 2426.2 1558.9 2309.9 Z" data-holc_grade="C"/>
<path d="M 2090 2006 2177.2 2130.5 2127.7 2172.6 2229.1 2301.5 2222.6 2305.3 2179.6 2329.8 2110 2391 2041.5 2306.2 2026.6 2283.8 1993.7 2240.2 1977.9 2199 1928.4 2165.3 1889.3 2104.8 1858.9 2081.8 1825.7 2073.4 1804 2020.1 1782.1 1991.5 1801.8 1954.5 1826 1937.6 1860.3 1906 2003.9 2076.1 2090 2006 Z" data-holc_grade="C"/>
<path d="M 2546.8 2723.8 2575 2758 2642.6 2836.5 2821.8 3064.2 2916.5 3179.7 2995.4 3271.7 2920.5 3329.5 2837.7 3238.1 2638.2 3007.6 2558.7 2906.1 2502.9 2841 2458.5 2836 2359.3 2726.1 2378.4 2705.3 2336.8 2645.9 2288.9 2599.9 2290.6 2589.3 2260.4 2531.8 2245.9 2513.9 2199.6 2493.7 2177.9 2473.1 2154 2448.4 2132.4 2416.1 2110 2391 2179.6 2329.8 2222.6 2305.3 2546.8 2723.8 Z" data-holc_grade="C"/>
<path d="M 1170.6 784.8 1215.5 820.3 1193.7 834.3 1231 894.5 1157.2 895.9 1072.8 911.3 1062.3 872.1 1005.3 891 1002.5 872.8 964.5 899.4 949.7 902.9 856.2 936.5 835.8 889.5 994.1 835.6 980.7 767 951.9 741.1 1010.3 658.4 1170.6 784.8 Z" data-holc_grade="C"/>
<path d="M 2546.8 2723.8 2222.6 2305.3 2229.1 2301.5 2246 2297 2279.2 2306.6 2246.5 2239.3 2356.2 2151.7 2421 2212.3 2443 2198.2 2475.6 2226.3 2374.9 2348 2440.2 2394.5 2506.7 2416.4 2602.4 2474.1 2502.8 2579.6 2518 2594.8 2500.6 2610.5 2576.1 2705.2 2546.8 2723.8 Z" data-holc_grade="C"/>
<path d="M 1215.5 820.3 1170.6 784.8 1213.5 568.1 1222.6 484 1323.9 532.4 1324.6 505 1312.6 413.3 1309.1 322.9 1479.2 357.3 1503.1 373.4 1481.3 393 1432.8 502.3 1356.2 573.7 1333.7 683.7 1304.9 751.6 1215.5 820.3 Z" data-holc_grade="C"/>
<path d="M 2451.2 1 2495.3 10.8 2486.3 85.7 2601.5 75.3 2720.7 109.3 2767.9 101.2 2831.4 106.6 2882.2 166.1 2849.9 273.7 2828.8 272 2772.1 286.8 2758.2 287.2 2742.9 293.5 2726.2 282.8 2710 277.9 2732.9 152.8 2578.6 116.1 2586.7 251 2572.3 245.7 2487.8 263.2 2476.5 270.4 2427 281.6 2408.6 275.8 2399.1 260.5 2399.1 217.5 2412.6 169.1 2427 125.6 2430.6 100.1 2438.2 62.9 2428.7 49.9 2431 36 2442.2 18.5 2450.3 9.5 2451.2 1 Z" data-holc_grade="C"/>
<path d="M 1470.5 1256.2 1495.5 1302.3 1499.9 1320.1 1511.4 1350.7 1516.1 1400.9 1484 1447.3 1458 1472.5 1418.9 1448.6 1395.2 1440.2 1361.5 1431.5 1330.4 1427.8 1327.7 1446.6 1282.1 1439.2 1291.6 1430.1 1297.7 1419 1299 1405.2 1300.4 1372.9 1305.1 1364.9 1304.8 1353.4 1314.9 1340.3 1330.8 1330.2 1381.4 1306.7 1411.4 1294.2 1424.3 1280.8 1433.7 1280.4 1438.4 1273 1456.3 1268 1470.5 1256.2 Z" data-holc_grade="C"/>
<path d="M 753.9 2148.5 866.1 2260.8 1132.5 2290.6 1178.9 2458.5 1128.2 2479.5 1062 2517.4 1026.8 2535.6 935.4 2452.8 828.4 2407.9 834.1 2430.4 834 2471 829.8 2535.5 821.3 2570.6 774.8 2701 759.4 2698.2 681.9 2935.2 641.1 2686.9 642.5 2667.3 628.5 2564.9 521.6 2527 555.4 2513 611.7 2379.8 500.6 2325.1 520.3 2280.2 471 2290 251.4 2355.8 214.9 2271.6 205.1 2270.2 188.1 2362.7 131.8 2334.7 96.7 2299.6 67.1 2288.3 1 2270.1 25 2146.7 530.9 1886.8 738.5 2119 706.1 2137.3 680.8 2179.3 661 2227 663.8 2259.2 693.4 2260.6 696.2 2218.6 713.1 2187.7 728.6 2162.5 753.9 2148.5 Z" data-holc_grade="C"/>
<path d="M 738.5 2119 530.9 1886.8 626 1835.8 654.2 1837.2 700.6 1863.9 806.1 1873.7 831.4 1908.8 855.3 1920 884.9 1917.2 901.8 1911.6 908.8 1890.6 976.3 1887.8 1028.4 1878 1110 1854.2 1019.9 1946.7 972.1 1984.5 900.3 2022.4 738.5 2119 Z" data-holc_grade="C"/>
<path d="M 1132.5 2290.6 866.1 2260.8 753.9 2148.5 780.7 2134.5 853.9 2092.4 896.1 2064.4 932.7 2046.2 981.9 2023.8 1049.5 1984.5 1062.2 1950.9 1104.4 1901.8 1097.3 1950.9 1093.1 1988.8 1100.1 1997.2 1118.4 2021 1124 2049 1118.4 2061.7 1126.9 2084.1 1136.7 2127.6 1136.7 2157 1121.2 2180.8 1115.6 2206.1 1125.4 2236.9 1124 2262.2 1129.6 2280.4 1132.5 2290.6 Z" data-holc_grade="C"/>
<path d="M 1337.9 1889.3 1343.6 1939.7 1347.8 1957.9 1366.1 1990.2 1378.7 2022.4 1401.3 2071.5 1415.3 2113.6 1415.3 2133.2 1425.2 2168.3 1437.8 2193.5 1446.3 2218.7 1444.9 2248.2 1442.3 2288.2 1398.4 2251 1305.6 2190.7 1301.3 2137.4 1277.4 2086.9 1229.6 1914.5 1295.7 1900.5 1301.4 1886.4 1337.9 1889.3 Z" data-holc_grade="C"/>
</g>
<g id="D">
<path d="M 1237.8 1263.2 1243.2 1232.2 1252.6 1201.7 1285 1122.3 1331.4 1131.8 1339 1160 1345.8 1225 1348.5 1246.6 1345.8 1253.7 1317.4 1275.3 1294.5 1274.4 1237.8 1263.2 Z" data-holc_grade="D"/>
<path d="M 1287.2 1581.2 1324.3 1503.1 1326.7 1462.4 1347.6 1466.4 1365.2 1471.8 1385.8 1486.3 1402.7 1499.4 1420.2 1507.5 1287.2 1581.2 Z" data-holc_grade="D"/>
<path d="M 1337.9 1889.3 1301.4 1886.4 1295.7 1900.5 1229.6 1914.5 1277.4 2086.9 1301.3 2137.4 1305.6 2190.7 1398.4 2251 1442.3 2288.2 1458.7 2302 1425.2 2319.7 1352 2367.4 1280.2 2408 1178.9 2458.5 1194.3 2427.6 1195.8 2371.6 1178.9 2325.3 1160.6 2280.4 1149.3 2245.3 1152.2 2208.9 1163.4 2176.6 1171.9 2147.2 1170.5 2116.4 1159.2 2089.7 1145.2 2067.3 1138.1 2011.2 1138.1 1963.5 1145.2 1914.5 1152.2 1872.4 1269 1827.6 1377.3 1795.3 1374.5 1817.8 1387.2 1823.4 1390 1840.2 1413.9 1852.8 1406.9 1875.2 1337.9 1889.3 Z" data-holc_grade="D"/>
<path d="M 1593.5 1719 1558.1 1751.5 1475.9 1803.1 1442.1 1845.1 1376.9 1789.1 1483.2 1566.5 1545.1 1630.4 1584 1690.4 1593.5 1719 Z" data-holc_grade="D"/>
<path d="M 1712.9 1463.4 1688.6 1500.1 1677.8 1523.6 1702.8 1541.1 1710.6 1525 1726.1 1526.3 1725.8 1539.8 1747.4 1540.4 1730.5 1592.3 1704.2 1584.5 1688.3 1572.4 1665.7 1559 1635.3 1588.9 1706.9 1635.3 1662.6 1668.6 1554.6 1536.1 1527.2 1515.2 1533 1504.1 1510.7 1489.3 1539 1419.4 1516.1 1400.9 1511.4 1350.7 1499.9 1320.1 1495.5 1302.3 1470.5 1256.2 1539.7 1224.3 1583.3 1264.3 1627.8 1246.8 1645.4 1248.5 1626.8 1273.7 1607.6 1316.4 1604.5 1335.3 1598.8 1349.4 1606.2 1355.1 1641.7 1331.9 1713.2 1360.8 1674.4 1447.3 1712.9 1463.4 Z" data-holc_grade="D"/>
<path d="M 2081.5 818.2 2047.8 889.4 2008.4 995.4 1854.9 1298.1 1748 1278.5 1772.2 1225.3 1781.8 1224.7 1930.8 914.1 2081.5 818.2 Z" data-holc_grade="D"/>
<path d="M 2741.6 417.7 2745.2 402.5 2764.5 397.5 2778 389.4 2791.5 368.4 2792.4 352.7 2798.2 341 2856.7 326.6 2893.1 313.6 2912.5 315.8 2930 326.1 2945.3 343.2 2960.7 392.9 2969.3 441.8 2961.6 481.7 2960.8 496.9 2954.9 505.4 2896.9 534.2 2887.9 514 2873.9 488.9 2857.7 469.6 2839.2 453.1 2824.4 442.8 2801 431.6 2777.6 424 2757.3 418.6 2741.6 417.7 Z" data-holc_grade="D"/>
</g>
</svg>