<?xml version="1.0"?>
<svg xmlns="http://www.w3.org/2000/svg" version="1.2" baseProfile="tiny" width="3000" height="2827" viewBox="0 0 3000 2827" stroke-linecap="round" stroke-linejoin="round">
<g id="A">
<path d="M 665.4 4.9 668.8 124 651.6 123.3 649.2 166.4 641.6 166.4 635.4 166 635.8 113.8 617.2 113.8 611.7 53.4 620.3 52.4 621.3 50.8 621 46.6 632.7 44.3 633 29.3 624.8 26 626.1 20 630.6 17.9 637.1 15.4 639.9 12.4 644.7 1 665.4 4.9 Z" data-holc_grade="A"/>
<path d="M 683.9 1556.2 694.6 1546.2 709.7 1533.5 719.4 1521.9 722.1 1516.5 725.6 1512.6 732.1 1510.3 740.7 1503.5 750.7 1491.5 763.4 1481 766.5 1468.5 773.1 1460.4 778.7 1455.5 844.6 1456.4 845 1469.2 788.5 1467.5 787.5 1506.5 768.2 1505.9 767.2 1526 752.4 1525.8 752.4 1549.5 739.7 1548.8 688.7 1561.6 683.9 1556.2 Z" data-holc_grade="A"/>
<path d="M 964.5 1544.1 964.5 1594.4 975.5 1600.9 976.1 1643.1 946.6 1643.1 944.4 1578.3 923.2 1578.6 923.2 1561.5 900.6 1571.2 898.7 1531.8 943.9 1530.7 964.5 1544.1 Z" data-holc_grade="A"/>
<path d="M 682 1961.2 699.8 1961.3 700.1 1976.8 715.3 1977 715.3 2039.7 683 2037.1 683 2095.5 676.1 2103.6 675.7 2109.1 678.3 2117 688.6 2124.5 698.5 2131.5 703.3 2141.1 707.1 2157.4 717.5 2182 730.4 2194.8 745 2202.7 744.6 2233.2 691.6 2232.6 681.7 2207.3 677.9 2195.4 677.9 2188.4 683.9 2173.6 684.8 2162 674.9 2149.5 666.3 2135.6 660.7 2123.4 655.9 2112.1 652.9 2096.4 658.5 2079.5 663.7 2069.9 666.3 2061.2 664.1 2052.8 646 1993.9 649.5 1985.1 647.8 1981.1 644.3 1969.8 636.2 1959.4 682 1961.2 Z" data-holc_grade="A"/>
<path d="M 2705.5 275.8 2730.8 275.6 2712.7 304.1 2632 351.2 2568.2 362.4 2564 355.8 2547 349.8 2547.5 343.6 2543 280.5 2551.1 274.4 2705.5 275.8 Z" data-holc_grade="A"/>
<path d="M 2396.2 467.4 2428.8 467.3 2427.8 429.7 2423.6 429.8 2424.1 375.5 2452.5 375.3 2455.6 426.3 2486.6 426.7 2487.1 399.9 2557.8 402.4 2555.2 429.3 2554.8 445 2553.4 459.4 2550 465.2 2525.2 494.2 2507.7 504.6 2488.4 522.2 2468.1 535.4 2457.7 545 2450.5 547.5 2437.1 559.8 2437.4 565.8 2441.6 573.2 2446.7 576.7 2454.3 583.2 2456 591.1 2459.5 597.8 2450.9 612 2444 615.2 2435.4 617.5 2427.8 617.1 2423.3 614.5 2417.1 604.5 2400.3 581.4 2392 577.2 2372.4 568.8 2366.9 560.3 2365.5 554.9 2376.9 540.8 2349.3 529.7 2342.1 520.8 2338 515.5 2319.4 514.3 2306.6 514.1 2297 509.5 2293.2 502.5 2290.1 498.6 2283.6 498.8 2285.3 488.6 2281.5 478.6 2282.9 473.3 2286.8 468.8 2396.2 467.4 Z" data-holc_grade="A"/>
<path d="M 710.9 795.8 717.2 847.6 692.5 842.1 677.1 794 710.9 795.8 Z M 661 793.1 660 842.7 633.6 836 570 791.5 520.7 758.7 431.5 698.9 433.4 662.2 405.6 660.7 414.4 612.5 519 615.8 524.2 616 520.9 651.3 554.3 652 551.5 691.7 601.6 694.7 596.7 742.5 643.8 744.6 661.9 743.3 661 793.1 Z" data-holc_grade="A"/>
<path d="M 1219.2 877.8 1218.6 899.7 1169.6 899.4 1169.6 887.2 1144.3 886.2 1134.5 886.9 1127.8 885.8 1119.5 878.5 1116.9 869.5 1096.8 868.8 1097.8 797.1 1136 797.5 1137.1 863.6 1183 865 1183.5 876.8 1219.2 877.8 Z" data-holc_grade="A"/>
<path d="M 2116.8 839.7 2127.6 850.7 2090.1 849.9 2087.6 877.7 1989.5 875.1 1989.5 843.8 2030.3 814.8 2043 808.9 2049.3 811.3 2054.9 810.7 2055.7 792.4 2041.5 787.2 1984 757.1 1984.9 721.1 1985.6 685.5 1972.7 680.8 1980 676.8 1990.8 675 1984.3 671.6 1977 671.6 1978.7 669 1969.2 656.5 1964.9 656.5 1957.2 652.7 1957.6 643.2 1963.7 637.9 1969.7 635.9 1979.1 635.3 1985.2 635 1991.2 633.6 2030.3 634.8 2070.4 633.6 2091.9 640.8 2085.4 643.7 2095.3 648.7 2095.3 649.8 2098.3 652.1 2113.4 653 2091.4 665.2 2090.1 679.7 2102.2 682 2106.9 683.7 2110.4 689.8 2111.2 704.3 2115.1 711.3 2122.8 721.1 2131 726.3 2130.2 748.1 2122.8 747.2 2112.1 746.9 2111.2 834.8 2116.8 839.7 Z" data-holc_grade="A"/>
<path d="M 2370.9 1126.6 2363.1 1121.4 2358.4 1113.3 2354.1 1108.9 2350.2 1105.7 2347.2 1101.7 2348.1 1093.6 2351.1 1080.8 2342.5 1062.8 2334.3 1039 2329.1 1033.8 2321.8 1028.9 2310.2 1026.6 2297.3 1024.2 2285.7 1024.2 2276.7 1024.2 2271.5 1013.8 2272.8 1003.4 2280.5 992.6 2285.7 983.4 2292.1 978.4 2252.1 960.4 2251.5 924 2251.5 893 2222.2 891.8 2223.5 898.7 2191.2 898.5 2189.8 876.9 2210 855.5 2210.8 846.5 2191.9 826.2 2191 802.7 2206.5 773.7 2194.5 761.8 2195.3 741.5 2222.4 709.1 2230.6 712.8 2243.5 714 2251.7 713.7 2259 710.5 2262 707 2268.5 700.1 2273.6 696.3 2311.5 692.3 2314.1 721.8 2311.9 730.2 2305.5 870.6 2437.6 871.4 2409.6 900.7 2384.6 930.6 2352.8 963.9 2352 978.7 2389.8 1008.3 2386.8 1071.5 2370.9 1126.6 Z" data-holc_grade="A"/>
<path d="M 2387.7 1754.5 2308.1 1752.5 2307.6 1715.6 2290 1714.2 2287 1654.4 2282.7 1644.8 2274.5 1634.6 2268.5 1621.6 2269.8 1603.3 2274.5 1587.9 2280.5 1581.2 2290.4 1576.6 2306.3 1586.7 2319.7 1606.4 2343.3 1655.5 2362.3 1686.5 2382.1 1730.4 2387.7 1754.5 Z" data-holc_grade="A"/>
<path d="M 2694.3 2048.6 2698.7 2049.2 2705.6 2052.7 2707.8 2056.5 2708.2 2061.7 2703 2066.6 2695.7 2074.8 2693.6 2083.5 2698.3 2095.1 2701.7 2099.5 2701.7 2104.4 2695.3 2111.3 2642.3 2111.8 2640.2 2097.8 2629.9 2106 2620.3 2110.4 2620.9 2095 2533.2 2095 2487.2 2096.3 2488.1 2047.8 2529 2047 2650.1 2044.6 2668.2 2044.9 2694.3 2048.6 Z" data-holc_grade="A"/>
</g>
<g id="B">
<path d="M 1212.9 216.2 1067.7 217.8 1032.8 217.9 988.3 217.9 818.4 218 632.5 220.3 633.1 202.1 611.9 202.3 612.7 184.1 584.3 185.4 565.6 184.5 567.8 175.9 572.8 166.5 585.2 150.2 592.6 140.7 606.9 113.1 617.2 113.8 635.8 113.8 635.4 166 641.6 166.4 649.2 166.4 651.6 123.3 668.8 124 665.4 4.9 717.8 10.2 755.2 11 776.4 10.8 934.4 9.1 1056.9 7.8 1215.1 8.7 1213.8 56.6 1212.9 216.2 Z" data-holc_grade="B"/>
<path d="M 788.8 795.5 846.1 797.9 823.7 816.4 825.4 856.6 718 854.2 717.2 847.6 710.9 795.8 712.2 744.8 728.6 744.8 731.1 612.3 790.5 614 789.7 652.3 769 652 766.9 721.3 787.5 721.9 788.8 795.5 Z" data-holc_grade="B"/>
<path d="M 1174.2 611.6 1173.6 639.9 1136 640.2 1127.3 643.4 1122.1 649.3 1120.5 677.4 1122.1 686.5 1124.2 688.2 1145.3 689.3 1172.5 688.4 1216.1 689.3 1248.6 689.6 1251.2 641 1290.4 641.6 1290.1 654.8 1372.2 655.9 1382.3 657.3 1382.3 672.6 1395.2 674.7 1409.1 711.9 1413.8 732.7 1445.3 773.8 1445.3 795.9 1445.3 849.3 1409.1 849.6 1406 926.5 1350.3 927.2 1349.3 940.8 1272.3 939.4 1255.8 928.6 1255.3 917.1 1169.1 917.8 1132.4 902.2 1112.3 902.9 1095.2 886.9 1073 885.8 1073.6 868.4 1054.5 867.7 1055.5 850.3 1042.1 850.3 1046.2 764.1 1029.7 746.3 1030.7 695.2 1059.6 693.8 1059.1 663.2 1042.1 639.2 1046.7 583.9 1068.9 583.9 1111.8 585.6 1176.3 586.3 1174.2 611.6 Z M 1219.2 877.8 1183.5 876.8 1183 865 1137.1 863.6 1136 797.5 1097.8 797.1 1096.8 868.8 1116.9 869.5 1119.5 878.5 1127.8 885.8 1134.5 886.9 1144.3 886.2 1169.6 887.2 1169.6 899.4 1218.6 899.7 1219.2 877.8 Z" data-holc_grade="B"/>
<path d="M 1984.9 721.1 1984 757.1 2041.5 787.2 2055.7 792.4 2054.9 810.7 2049.3 811.3 2043 808.9 2038.5 807.2 2032.9 807.2 2024.3 810.4 2018.7 813.9 2011 813.3 2005 809 1998.5 797.4 1989.5 793 1971.8 789.5 1968.4 796.2 1978.3 795.3 1985.2 798.2 1990.3 803.2 1992.5 813.6 1991.2 820.3 1985.6 826.1 1983.9 834.5 1988.2 840.6 1989.5 843.8 1989.5 875.1 2087.6 877.7 2090.1 849.9 2127.6 850.7 2116.8 839.7 2126.3 841.2 2134.9 846.1 2137.5 851 2135.7 856.5 2132.7 865.2 2135.7 874.5 2140.1 884.4 2155.1 898.6 2156.8 904.6 2163.7 911.9 2176.1 924 2164 925.2 2059.5 920.8 2056.5 949.8 1691.9 947.9 1694.1 937.6 1699.7 931.6 1707.4 931.6 1708.3 929.5 1700.1 908.1 1710.8 896.5 1735.8 875 1735.4 849.8 1744.8 817.6 1746.1 813 1741 805.1 1740.1 800.2 1754.3 783.7 1723.3 782.2 1675.1 780.3 1667.4 772.2 1669.1 711.9 1676.4 706.3 1681.6 695.6 1707.4 694.2 1716.4 693.9 1716.9 657.1 1727.6 656.8 1732.8 656.8 1804.6 569.8 1833.9 593.3 1873 635 1872.2 659.1 1899.3 688.7 1944.7 688.3 1943.4 720.3 1984.9 721.1 Z M 1909 826.1 1897.8 819.7 1890.1 810.4 1887.9 798.5 1832.4 800 1828.1 849.6 1820.4 849 1818.2 904.4 1869.9 906.1 1887.9 904.6 1910.3 901.2 1909 826.1 Z" data-holc_grade="B"/>
<path d="M 2437.6 871.4 2305.5 870.6 2311.9 730.2 2314.1 721.8 2311.5 692.3 2320.5 694.3 2329.6 696.9 2349.4 700.4 2363.6 699.8 2366.6 696.6 2375.6 697.5 2400.6 681.2 2411.3 690.8 2417.8 691.4 2426.8 701.8 2427.2 710.2 2436.7 715.5 2441 719.8 2440.6 723.6 2436.3 732.8 2431.5 749.7 2438 764.7 2439.3 785 2444.9 791.7 2437.6 871.4 Z" data-holc_grade="B"/>
<path d="M 2694.3 2048.6 2668.2 2044.9 2650.1 2044.6 2529 2047 2528.5 2024.9 2541.4 2023.7 2613.3 2024.3 2597.8 2006 2585.7 1989.8 2547.9 1991.2 2530.7 1974.9 2530.7 1939.5 2542.7 1939.2 2541.9 1905.8 2521.2 1905.3 2521.2 1887 2507.4 1886.4 2502.3 1888.1 2501.9 1852.7 2482.1 1851.8 2482.9 1817.6 2374.5 1817.3 2374.9 1779 2261.8 1780.1 2260.9 1753.7 2249.3 1753.1 2251 1728.2 2225.2 1728.2 2228.2 1716 2217.9 1715.1 2204.6 1698 2209.3 1695.7 2189.5 1670.7 2175.3 1670.7 2177.9 1592.1 2141.7 1591.8 2146.5 1505 2188.2 1505.9 2190.8 1381.4 2185.6 1377.6 2187.3 1265.6 2222.2 1267.4 2222.2 1129.3 2233 1129.6 2237.3 933 2251.5 924 2252.1 960.4 2292.1 978.4 2285.7 983.4 2280.5 992.6 2272.8 1003.4 2271.5 1013.8 2276.7 1024.2 2285.7 1024.2 2297.3 1024.2 2310.2 1026.6 2321.8 1028.9 2329.1 1033.8 2334.3 1039 2342.5 1062.8 2351.1 1080.8 2348.1 1093.6 2347.2 1101.7 2350.2 1105.7 2354.1 1108.9 2358.4 1113.3 2363.1 1121.4 2370.9 1126.6 2347.2 1254.8 2319.3 1288.5 2314.1 1297.5 2305.1 1318.9 2290.4 1367.1 2288.3 1414.1 2295.6 1425.4 2316.7 1464.6 2315.4 1476.5 2317.1 1485.2 2316.7 1507.2 2291.3 1538.6 2290.4 1576.6 2280.5 1581.2 2274.5 1587.9 2269.8 1603.3 2268.5 1621.6 2274.5 1634.6 2282.7 1644.8 2287 1654.4 2290 1714.2 2307.6 1715.6 2308.1 1752.5 2387.7 1754.5 2388.5 1757.4 2395.8 1762.7 2402.3 1762.9 2404 1761.5 2403.6 1758 2402.3 1753.7 2430.3 1754.8 2434.6 1749.3 2442.3 1748.7 2479.3 1765.8 2482.3 1781.8 2487.9 1775.7 2500.8 1785 2517.2 1782.4 2531.8 1790.8 2557.2 1813.7 2537.4 1839 2579.1 1877.9 2607.1 1883.4 2668.2 1977.2 2688.8 2029.5 2692.3 2034.4 2694.3 2048.6 Z" data-holc_grade="B"/>
<path d="M 1999.2 1627.5 1998.8 1657.1 2024.2 1727 1994.5 1725.6 1916.6 1725.3 1917.9 1758.1 1914.4 1801.9 1907.7 1845.8 1905.8 1857.9 1908.4 1882 1908 1892.5 1854.2 1891 1855.5 1822.2 1872.7 1821.6 1876.2 1774 1889.1 1773.8 1889.5 1740.9 1876.2 1724.1 1860.2 1714 1847.8 1710.5 1811.6 1711.3 1812 1649.5 1818.5 1610 1852.1 1610.8 1850.5 1567.4 1937.9 1568 1938.1 1603 1949.3 1604.5 1954 1608.5 1958.3 1617.5 1957.1 1627.1 1999.2 1627.5 Z" data-holc_grade="B"/>
<path d="M 2151.8 1906.1 2151.8 1910.2 2159.1 1910.2 2162.6 1914.8 2168.2 1916 2172.5 1916.6 2173.7 1970.6 2075.7 1968.6 2055.9 1903.5 2151.8 1906.1 Z" data-holc_grade="B"/>
<path d="M 2559.7 2370.9 2574.5 2361.1 2591 2350.9 2590.3 2304.4 2570.7 2245.6 2572.8 2203.1 2605.1 2150.6 2614.7 2123.6 2590 2122.5 2532.8 2122.5 2533.2 2095 2620.9 2095 2620.3 2110.4 2629.9 2106 2640.2 2097.8 2642.3 2111.8 2695.3 2111.3 2693.6 2128.7 2689.4 2142.9 2677.4 2157.3 2670.2 2161.3 2663.6 2168 2651.2 2173.8 2644.3 2184 2642.6 2192.9 2644.7 2207.5 2628.9 2226.8 2617.5 2250.9 2613.4 2272.1 2616.5 2280.5 2628.2 2297 2634.7 2303.7 2636.4 2321.6 2639.9 2331.6 2648.1 2340.4 2658.5 2347.6 2666 2357.2 2669.8 2367.1 2671.5 2386.7 2669.1 2399 2671.9 2411.8 2670.8 2418 2665.3 2422.2 2647.4 2422.9 2641.2 2418.7 2629.5 2420.4 2629.5 2423.9 2601.3 2422.2 2602.4 2413.2 2571.7 2413.4 2573.8 2382 2559.7 2370.9 Z" data-holc_grade="B"/>
<path d="M 982.3 1521.7 980.6 1565.7 991.6 1565.9 991.9 1617.7 1004.3 1617.3 1006.2 1655.2 1046.9 1710.4 1049.4 1784.5 1062.6 1784.5 1073 1784.5 1055.1 1819.5 1054.7 1832.8 1054.3 1845.5 995.4 1844.9 994.3 1880.8 777 1880.2 777.9 1691.3 777.7 1619.4 651.6 1619.9 649.6 1634.2 630.2 1644.8 606.8 1644.3 600.7 1648.9 598.8 1665.6 607.6 1666.2 606.5 1719.9 607.6 1744.2 626.3 1744.6 628.5 1773.2 622.5 1774.3 622.5 1798.8 648.9 1799.4 647.8 1825 666 1824.5 665.7 1850.7 685 1851.6 685.5 1881.1 662.1 1880.8 658.5 1899 661.3 1930.4 681.1 1931.1 682 1961.2 636.2 1959.4 587 1899.4 576.5 1880.2 566.3 1874.5 539.3 1850.1 527.8 1826.5 521.8 1823.4 519 1820.2 518.2 1816.3 507.7 1810.2 502.5 1800.5 501.4 1790.3 500.8 1779.9 502.8 1771.3 471.9 1740.9 460.1 1739.4 355.6 1679.4 343.7 1672.1 338 1667.3 338 1662.3 342.4 1658.6 347.3 1656.3 353.1 1654.3 365.5 1648.9 368.5 1678.1 399.4 1692 409.3 1699.4 436.5 1706.7 449.2 1712.4 449.2 1625.7 480.6 1616.2 496.3 1612.3 532.6 1598 573.5 1583.2 594.7 1574.6 615.8 1564.4 625.7 1579.9 630.6 1582.7 641.2 1583.6 670.5 1557.4 672.5 1556.2 680.8 1555.3 683.9 1556.2 688.7 1561.6 739.7 1548.8 752.4 1549.5 752.4 1525.8 767.2 1526 768.2 1505.9 787.5 1506.5 788.5 1467.5 845 1469.2 844.6 1456.4 778.7 1455.5 783.4 1451.5 793.7 1445.3 802.7 1441.3 811.9 1439 817.5 1434.4 825.4 1425.1 830.2 1416.2 830.2 1410.9 832.3 1406.5 836.4 1403.2 844.6 1401.6 855 1404.6 870.5 1417.6 901.1 1442.9 919.2 1474.1 952.5 1500.1 982.3 1521.7 Z M 964.5 1544.1 943.9 1530.7 898.7 1531.8 900.6 1571.2 923.2 1561.5 923.2 1578.6 944.4 1578.3 946.6 1643.1 976.1 1643.1 975.5 1600.9 964.5 1594.4 964.5 1544.1 Z" data-holc_grade="B"/>
<path d="M 994.3 1880.8 995 1920.4 999.7 1924.8 997.1 1986 1003.5 1986.1 1002.1 2194.2 964.8 2194 964 2247.7 949.4 2246.8 948.5 2408.6 962.3 2408.6 962.7 2428.4 960.5 2458.3 1003.6 2459.2 1003.2 2463.1 1002.1 2508.9 921 2508.3 794.5 2505.7 773.8 2508.9 757.5 2509.7 739 2509.4 674 2505.1 675.3 2501.9 685.2 2494.3 709.3 2478.9 718.3 2468.5 731.2 2433.6 738.1 2435.6 741.1 2434.8 745.8 2359.8 749.3 2233.2 744.6 2233.2 745 2202.7 730.4 2194.8 717.5 2182 707.1 2157.4 703.3 2141.1 698.5 2131.5 688.6 2124.5 678.3 2117 675.7 2109.1 676.1 2103.6 683 2095.5 695.5 2112.9 714.4 2113.5 715.3 2039.7 715.3 1977 722.6 1977.1 722.1 1981.4 741.1 1981.6 742.2 1984 756 1984.9 756.2 1973.8 771.4 1968.2 771.7 1929.8 778.3 1929.6 777 1880.2 994.3 1880.8 Z" data-holc_grade="B"/>
<path d="M 1288.9 378.7 1214 374.2 1213 323.7 1209.4 312.3 1212.5 297 1215.6 283.8 1209.9 245.2 1212.9 216.2 1213.8 56.6 1215.1 8.7 1258.3 7.8 1499.4 7.4 1545.6 7.4 1581.8 9.9 1611.2 7.1 1772.8 9.9 1924.6 9.5 1994.8 8.8 1997.9 218.4 1781.6 218.7 1756.8 190.2 1770.2 188.5 1782.1 185 1766.1 167.3 1764.5 116.2 1751.1 117.2 1705.7 148.5 1702.1 144.4 1685.5 135 1671.6 126.6 1660.7 123.2 1633.9 124.9 1629.8 122.5 1618.9 123.5 1600.9 118.6 1589.5 108.6 1583.3 98.5 1574.5 86 1566.6 79.7 1551.1 76.9 1541.3 78.3 1533.1 81.8 1526.9 88.4 1523.3 104.7 1514.5 118.6 1506.2 124.2 1489.2 129.8 1470.1 134.3 1457.7 139.5 1446.8 148.2 1441.7 161.4 1438.1 194.4 1425.2 209.7 1421 249 1423.1 251.1 1421.6 279.6 1313.1 281 1310.5 371.4 1288.9 378.7 Z" data-holc_grade="B"/>
<path d="M 1741.1 508.3 1737.8 508.9 1670.8 508.7 1638.9 508.6 1636.7 531.5 1619.9 530.7 1618.6 549.5 1526.6 547.8 1525.3 554.4 1496.5 554.4 1498 532 1500.5 512.9 1479.9 516.7 1366.8 515 1366.3 503.2 1365.8 428.7 1287.8 427.7 1288.9 378.7 1310.5 371.4 1507.6 373.3 1511.1 295.1 1509.4 277.7 1579.1 256.3 1624.7 220.3 1626.4 205.8 1632.8 194 1636.7 188.8 1644.9 185.3 1666.8 184.4 1670.7 185.9 1672.2 191.1 1670.5 219.7 1652.4 219.1 1647.4 278.5 1731.4 279 1730.6 268.5 1744.9 269.6 1743.5 219.7 1781.6 218.7 1997.9 218.4 2090.7 220.3 2133.8 219.8 2166.7 218 2207.2 219.5 2314.3 217.7 2317.7 343.5 2302.3 357.7 2297.5 370.4 2297.5 378.8 2294.9 398.8 2282.5 416.8 2270 424.3 2251.9 428.7 2238.6 429.2 2226.5 426.9 2223.1 375.3 2236.4 375.3 2234.3 328.1 2174.5 327.8 2171.9 324.1 2153.8 323.5 2076.6 323.8 2076.2 297.1 2069.8 295.1 2065.9 290.4 2064.6 282.9 2059 283.5 2038.3 264.4 1996.6 264.4 1950.1 246.1 1929.1 245.5 1886.9 257.4 1887.3 269.6 1887.8 278 1898.1 281.2 1894.2 376.5 1882.6 376.8 1883.9 491.8 1882.6 511.2 1839.6 511.8 1827.1 508.1 1807.1 506 1787.7 506.3 1771.8 505.2 1756.8 505.2 1741.1 508.3 Z" data-holc_grade="B"/>
<path d="M 2053 334.8 2059.9 346.5 2074.2 361.9 2062.9 368.7 2057.7 375.8 2053.8 384.3 2053.8 395.6 2060.7 413.4 2069 432.2 1914.2 433.6 1913.1 281.2 1936.3 267.1 2039 304.6 2040.1 335.5 2053 334.8 Z" data-holc_grade="B"/>
<path d="M 2471.6 220.5 2478.3 268.5 2504.1 268.5 2497.9 280 2487.6 296 2479.4 305.7 2464.9 309.9 2451.5 310.6 2438.1 307.8 2422 309.5 2396.8 315.4 2390.6 216.3 2421.5 218.4 2471.6 220.5 Z" data-holc_grade="B"/>
<path d="M 2452.5 375.3 2467 375.2 2467 326.2 2475.2 326.9 2510.9 306.7 2523.8 294.9 2543 280.5 2547.5 343.6 2547 349.8 2564 355.8 2568.2 362.4 2563.5 370.7 2557.8 402.4 2487.1 399.9 2486.6 426.7 2455.6 426.3 2452.5 375.3 Z" data-holc_grade="B"/>
<path d="M 2286.8 468.8 2282.7 456.2 2282.7 432.3 2343.6 375.9 2424.1 375.5 2423.6 429.8 2394.2 430.9 2396.2 467.4 2286.8 468.8 Z" data-holc_grade="B"/>
<path d="M 516.3 275.9 541.5 310.9 532.2 338.5 501.1 337.1 484.9 336.4 479.6 321.8 368 316.8 363.5 295.2 408.7 282.1 407.7 280.9 406.2 278 410 275.7 416.8 274.9 445.9 275.2 516.3 275.9 Z" data-holc_grade="B"/>
<path d="M 355.8 563 348.3 555.4 349.2 529.2 407.3 530.9 437 528.5 483.8 530.3 482.7 551.5 483 555.7 521.2 588.2 519 615.8 414.4 612.5 407.8 610.8 415.2 592.8 410.3 585 400.9 575.8 364.6 562.2 355.8 563 Z" data-holc_grade="B"/>
</g>
<g id="C">
<path d="M 988.3 217.9 990 310.8 922.9 310.8 841.5 310.8 738.7 312 679.3 312.6 638.5 313.7 603.2 312.6 589.4 291.1 574.4 270.6 567.9 259 563.2 232.3 562.3 207.4 565.6 184.5 584.3 185.4 612.7 184.1 611.9 202.3 633.1 202.1 632.5 220.3 818.4 218 988.3 217.9 Z" data-holc_grade="C"/>
<path d="M 1445.3 795.9 1445.3 773.8 1413.8 732.7 1409.1 711.9 1395.2 674.7 1447.7 685.3 1515.2 781.5 1512.8 785.7 1512.4 796.3 1445.3 795.9 Z" data-holc_grade="C"/>
<path d="M 1674.2 947.8 1691.9 947.9 2056.5 949.8 2059.5 920.8 2164 925.2 2176.1 924 2193.3 946.6 2189.8 949.5 2170.5 951.3 2067 951 2067.9 978.5 2022.7 978 2020.5 1003.8 1985.2 1003.8 1986.1 1073.9 1903.5 1105.3 1904.8 1088.2 1839.8 1088.2 1711.6 1085.5 1711.2 1049 1672.5 1048.7 1675.9 1017.1 1674.2 947.8 Z" data-holc_grade="C"/>
<path d="M 1937.9 1568 1850.5 1567.4 1848.6 1518.6 1937.7 1518.8 1937.9 1568 Z" data-holc_grade="C"/>
<path d="M 2251.5 924 2237.3 933 2233 1129.6 2222.2 1129.3 2222.2 1267.4 2187.3 1265.6 2185.6 1377.6 2190.8 1381.4 2188.2 1505.9 2146.5 1505 2141.7 1591.8 2177.9 1592.1 2175.3 1670.7 2189.5 1670.7 2209.3 1695.7 2204.6 1698 2217.9 1715.1 2228.2 1716 2225.2 1728.2 2251 1728.2 2249.3 1753.1 2260.9 1753.7 2261.8 1780.1 2374.9 1779 2374.5 1817.3 2482.9 1817.6 2482.1 1851.8 2501.9 1852.7 2502.3 1888.1 2507.4 1886.4 2521.2 1887 2521.2 1905.3 2541.9 1905.8 2542.7 1939.2 2530.7 1939.5 2530.7 1974.9 2547.9 1991.2 2585.7 1989.8 2597.8 2006 2613.3 2024.3 2541.4 2023.7 2528.5 2024.9 2529 2047 2488.1 2047.8 2487.2 2096.3 2389.6 2095.7 2199 2095.5 2093.1 2092.3 2052 1961.9 2033.1 1899.7 2029.6 1882.9 2067.1 1880.3 2069.2 1777.8 2064.9 1777.5 2065.8 1725.6 2024.2 1727 1998.8 1657.1 1999.2 1627.5 2065 1628.3 2065.5 1592 2103.3 1592.3 2105.9 1506.4 2126.6 1506.4 2125.7 1483.4 2164.9 1483.7 2162.7 1413.8 2143.8 1414.4 2142.9 1399.6 2150.7 1375.8 2153.2 1283.3 2152 1252.8 2186.8 1253.1 2188 1172.2 2186.3 1128.6 2200.1 1128.6 2201.8 1007.4 2208.2 1006.3 2210 953.2 2203.9 948.3 2208.4 914.1 2190.4 904.3 2191.2 898.5 2223.5 898.7 2222.2 891.8 2251.5 893 2251.5 924 Z M 2151.8 1906.1 2055.9 1903.5 2075.7 1968.6 2173.7 1970.6 2172.5 1916.6 2168.2 1916 2162.6 1914.8 2159.1 1910.2 2151.8 1910.2 2151.8 1906.1 Z" data-holc_grade="C"/>
<path d="M 2487.2 2096.3 2533.2 2095 2532.8 2122.5 2590 2122.5 2614.7 2123.6 2605.1 2150.6 2572.8 2203.1 2570.7 2245.6 2590.3 2304.4 2591 2350.9 2574.5 2361.1 2559.7 2370.9 2534.5 2387.6 2533.5 2452.4 2535.2 2470.3 2541.1 2475 2545.2 2476.9 2593.5 2475.2 2615.9 2472.2 2643.1 2467.3 2667.2 2466.4 2686.5 2468 2700.9 2472.7 2717.5 2481.5 2745.3 2506.1 2766.7 2533.3 2786.6 2547.7 2798 2559.6 2824.8 2576.8 2847.6 2583.6 2890.6 2594.9 2936.7 2600.5 2956.3 2604.7 2991.8 2615.4 2999 2620.3 2991.5 2620.3 2937.1 2619.1 2905.1 2619.1 2882 2619.1 2863.1 2617.7 2841 2621.2 2815.6 2622.1 2826.2 2633.8 2844.1 2665.4 2844.5 2675.2 2830.7 2676.8 2825.9 2718.6 2783.9 2721.4 2677 2724 2676 2824.7 2636.7 2824.4 2534.2 2826.1 2533.5 2726.3 2534.9 2622.8 2457.3 2621 2228.4 2619.1 2224.9 2574.7 2225.3 2393.4 2187.8 2392.7 2139.2 2250.3 2139.2 2241.9 2126.2 2227.5 2113.1 2203.1 2111.5 2197.4 2120.8 2180.3 2093.1 2092.3 2199 2095.5 2389.6 2095.7 2487.2 2096.3 Z" data-holc_grade="C"/>
<path d="M 1228.9 1905.4 1236.9 1921.3 1246 1942.6 1244.6 1955.8 1259.2 1956.2 1257.2 1929.3 1261.1 1925.2 1266.6 1922.7 1273.5 1924.2 1277.3 1927.4 1282.3 1931.5 1291.1 1941.1 1293.3 1948.6 1299.6 1949.7 1298.8 1991.1 1229.4 1989.8 1231.1 2041.9 1247.1 2041.9 1246.2 2196.3 1193.4 2195 1193.6 2188.5 1165.3 2117 1145.5 2115.8 1146.3 2099.7 1166.7 2099.3 1166.4 2038 1179.3 2038.5 1179.9 1988.9 1198.3 1988.7 1199.1 1880.2 1185.7 1852.9 1190.1 1846.6 1189.5 1831.3 1227.8 1831.1 1225.6 1846.7 1228.1 1903.8 1228.9 1905.4 Z" data-holc_grade="C"/>
<path d="M 1002.1 2194.2 1042.8 2194.5 1037.2 2464 1003.2 2463.1 1003.6 2459.2 960.5 2458.3 962.7 2428.4 962.3 2408.6 948.5 2408.6 949.4 2246.8 964 2247.7 964.8 2194 1002.1 2194.2 Z" data-holc_grade="C"/>
<path d="M 777 1880.2 778.3 1929.6 771.7 1929.8 771.4 1968.2 756.2 1973.8 756 1984.9 742.2 1984 741.1 1981.6 722.1 1981.4 722.6 1977.1 715.3 1977 700.1 1976.8 699.8 1961.3 682 1961.2 681.1 1931.1 661.3 1930.4 658.5 1899 662.1 1880.8 685.5 1881.1 685 1851.6 665.7 1850.7 666 1824.5 647.8 1825 648.9 1799.4 622.5 1798.8 622.5 1774.3 628.5 1773.2 626.3 1744.6 607.6 1744.2 606.5 1719.9 683 1720.5 683.3 1684.7 675 1684.7 674.5 1670.4 629.8 1669.8 630.2 1644.8 649.6 1634.2 651.6 1619.9 777.7 1619.4 777.9 1691.3 777 1880.2 Z" data-holc_grade="C"/>
<path d="M 365.5 1648.9 377.1 1642.2 407.6 1635.2 449.2 1625.7 449.2 1712.4 436.5 1706.7 409.3 1699.4 399.4 1692 368.5 1678.1 365.5 1648.9 Z" data-holc_grade="C"/>
<path d="M 1032.8 217.9 1067.7 217.8 1212.9 216.2 1209.9 245.2 1215.6 283.8 1212.5 297 1209.4 312.3 1213 323.7 1214 374.2 1288.9 378.7 1287.8 427.7 1365.8 428.7 1366.3 503.2 1366.8 515 1479.9 516.7 1500.5 512.9 1498 532 1478.9 532 1463.4 543.5 1454.1 534.8 1370.4 532.4 1372.5 572 1325 563.3 1241.4 544.2 1237.2 537.6 1216.1 521.2 1203.2 508.7 1166.5 469.4 1164.4 373.5 1136 373.1 1135 378 1099.9 375.2 1100.9 323.4 1069.4 323.4 1070 310.2 1031.2 311.2 1032.8 217.9 Z" data-holc_grade="C"/>
<path d="M 1781.6 218.7 1743.5 219.7 1744.9 269.6 1730.6 268.5 1731.4 279 1647.4 278.5 1652.4 219.1 1670.5 219.7 1672.2 191.1 1694.8 191 1708.8 189.5 1720.4 184.7 1726.2 179.3 1731.4 171.7 1766.1 167.3 1782.1 185 1770.2 188.5 1756.8 190.2 1781.6 218.7 Z" data-holc_grade="C"/>
<path d="M 2174.5 327.8 2160.5 337 2162.2 368 2171.3 375.6 2223.1 375.3 2226.5 426.9 2216.8 423.3 2196.1 415.7 2164.4 388.2 2148.2 376.2 2128.6 364.3 2117.6 360 2106 357.8 2089.8 357.6 2074.2 361.9 2059.9 346.5 2053 334.8 2076.6 323.8 2153.8 323.5 2171.9 324.1 2174.5 327.8 Z" data-holc_grade="C"/>
<path d="M 2471.6 220.5 2558.9 220.2 2624.4 219.1 2706 220.9 2705.5 275.8 2551.1 274.4 2543 280.5 2523.8 294.9 2510.9 306.7 2475.2 326.9 2467 326.2 2467 375.2 2452.5 375.3 2424.1 375.5 2343.6 375.9 2282.7 432.3 2282.7 456.2 2286.8 468.8 2235.2 471.9 2229.5 467 2206.8 434.3 2206.8 428.1 2209.3 426.3 2216.8 423.3 2226.5 426.9 2238.6 429.2 2251.9 428.7 2270 424.3 2282.5 416.8 2294.9 398.8 2297.5 378.8 2297.5 370.4 2302.3 357.7 2317.7 343.5 2314.3 217.7 2390.6 216.3 2396.8 315.4 2422 309.5 2438.1 307.8 2451.5 310.6 2464.9 309.9 2479.4 305.7 2487.6 296 2497.9 280 2504.1 268.5 2478.3 268.5 2471.6 220.5 Z" data-holc_grade="C"/>
<path d="M 1670.8 508.7 1669.8 534.1 1655 533.2 1653.2 566.8 1619.2 564.7 1619.2 585.8 1496.3 583.5 1496.5 554.4 1525.3 554.4 1526.6 547.8 1618.6 549.5 1619.9 530.7 1636.7 531.5 1638.9 508.6 1670.8 508.7 Z" data-holc_grade="C"/>
<path d="M 788.8 795.5 787.5 721.9 766.9 721.3 769 652 789.7 652.3 790.5 614 731.1 612.3 728.6 744.8 712.2 744.8 710.9 795.8 677.1 794 661 793.1 661.9 743.3 643.8 744.6 596.7 742.5 601.6 694.7 551.5 691.7 554.3 652 520.9 651.3 524.2 616 519 615.8 521.2 588.2 483 555.7 482.7 551.5 483.8 530.3 589.5 530.4 585.3 471.7 590 423.3 590.9 376.7 578.4 377.6 509.6 377.6 501.1 337.1 532.2 338.5 555.2 351.8 606.8 355.5 613.3 366.3 612.8 373.2 621.9 383.6 635.2 396.7 659.7 409.4 684.7 419.3 713.9 427.7 732.4 436.4 769.9 457.5 819.8 494.9 854.2 520.7 905.4 587.7 905 648.8 897.2 653.7 788.8 795.5 Z" data-holc_grade="C"/>
<path d="M 1176.3 586.3 1111.8 585.6 1068.9 583.9 1046.7 583.9 1042.1 639.2 1059.1 663.2 1059.6 693.8 1030.7 695.2 1029.7 746.3 1046.2 764.1 1042.1 850.3 1055.5 850.3 1054.5 867.7 1073.6 868.4 1073 885.8 1095.2 886.9 1112.3 902.9 1132.4 902.2 1169.1 917.8 1255.3 917.1 1255.8 928.6 1272.3 939.4 1349.3 940.8 1350.3 927.2 1406 926.5 1409.1 849.6 1445.3 849.3 1442.9 959.9 1140.7 957.8 1123.5 943.6 1156.5 948.7 1156.9 929 1089.9 905.4 1017.7 838.8 1020.8 796.3 1006.6 795.9 1001.5 612.2 1000.4 534.8 1037.3 523.4 1068.3 529.4 1068.9 531.1 1117.8 564.9 1114 570.9 1176.3 586.3 Z" data-holc_grade="C"/>
<path d="M 1372.2 655.9 1290.1 654.8 1290.4 641.6 1251.2 641 1216.9 640.5 1216.1 689.3 1172.5 688.4 1173.6 639.9 1174.2 611.6 1210 611.8 1209.7 601.8 1255.7 602.9 1372.2 655.9 Z" data-holc_grade="C"/>
</g>
<g id="D">
<path d="M 355.8 563 364.6 562.2 400.9 575.8 410.3 585 415.2 592.8 407.8 610.8 414.4 612.5 405.6 660.7 433.4 662.2 431.5 698.9 520.7 758.7 570 791.5 536.1 791.1 517.7 779.3 474.4 751.3 410.6 713.2 408.9 709.1 395.4 689.7 380.3 670.2 386.3 611.9 365.7 587.8 355.8 563 Z M 355.8 563 314.6 571.9 240.6 592 151.1 617.4 110.3 567.3 70.7 518.1 40.4 478.8 1 429.7 20.6 431.3 23 417.8 82 410.8 96.3 417.2 131.2 427.3 185.4 442.5 252.6 475.9 326.4 533.5 348.3 555.4 355.8 563 Z M 516.3 275.9 445.9 275.2 416.8 274.9 410 275.7 406.2 278 407.7 280.9 408.7 282.1 363.5 295.2 348.7 301.2 295 324.8 263.2 354.7 242.5 386.3 213.3 393.3 102.4 408.7 99.7 393.8 107.6 393.3 135.1 377.7 198.1 296.6 251 272 335.6 235.6 357.9 183.6 405.6 195.5 516.3 275.9 Z" data-holc_grade="D"/>
<path d="M 778.7 1455.5 773.1 1460.4 766.5 1468.5 763.4 1481 750.7 1491.5 740.7 1503.5 732.1 1510.3 725.6 1512.6 722.1 1516.5 719.4 1521.9 709.7 1533.5 694.6 1546.2 683.9 1556.2 680.8 1555.3 672.5 1556.2 670.5 1557.4 641.2 1583.6 630.6 1582.7 625.7 1579.9 615.8 1564.4 665 1521.6 682.2 1522.8 690.4 1518.4 700.4 1508.4 710.4 1495.2 779.9 1433 820.2 1401.4 833.3 1395.8 843.3 1394.2 857.4 1394 867.4 1394.7 873.2 1396.5 883.5 1401.4 888.7 1411.6 901.1 1442.9 870.5 1417.6 855 1404.6 844.6 1401.6 836.4 1403.2 832.3 1406.5 830.2 1410.9 830.2 1416.2 825.4 1425.1 817.5 1434.4 811.9 1439 802.7 1441.3 793.7 1445.3 783.4 1451.5 778.7 1455.5 Z" data-holc_grade="D"/>
<path d="M 715.3 2039.7 714.4 2113.5 695.5 2112.9 683 2095.5 683 2037.1 715.3 2039.7 Z" data-holc_grade="D"/>
<path d="M 1496.3 583.5 1619.2 585.8 1619.2 564.7 1653.2 566.8 1655 533.2 1669.8 534.1 1670.8 508.7 1737.8 508.9 1741.1 508.3 1767.9 514.4 1716.2 530.6 1685.6 547.5 1658.4 568.9 1634.3 593.4 1619.5 616.6 1504.9 612.7 1504.2 604.8 1496.3 604.3 1496.3 583.5 Z" data-holc_grade="D"/>
<path d="M 1691.9 947.9 1674.2 947.8 1673.4 896.5 1699.2 875 1712.6 854.4 1729.3 818.8 1725.9 804.3 1720.3 795 1719.9 788 1723.3 782.2 1754.3 783.7 1740.1 800.2 1741 805.1 1746.1 813 1744.8 817.6 1735.4 849.8 1735.8 875 1710.8 896.5 1700.1 908.1 1708.3 929.5 1707.4 931.6 1699.7 931.6 1694.1 937.6 1691.9 947.9 Z" data-holc_grade="D"/>
<path d="M 1986.1 1073.9 1985.2 1003.8 2020.5 1003.8 2022.7 978 2067.9 978.5 2067 951 2170.5 951.3 2189.8 949.5 2203.9 948.3 2210 953.2 2208.2 1006.3 2201.8 1007.4 2200.1 1128.6 2186.3 1128.6 2188 1172.2 1987.1 1171 1986.1 1073.9 Z" data-holc_grade="D"/>
<path d="M 1986.1 1073.9 1987.1 1171 2188 1172.2 2186.8 1253.1 2152 1252.8 2153.2 1283.3 2150.7 1375.8 2142.9 1399.6 2143.8 1414.4 2162.7 1413.8 2164.9 1483.7 2125.7 1483.4 2126.6 1506.4 2105.9 1506.4 2103.3 1592.3 2065.5 1592 2065 1628.3 1999.2 1627.5 1957.1 1627.1 1958.3 1617.5 1954 1608.5 1949.3 1604.5 1938.1 1603 1937.9 1568 1937.7 1518.8 1848.6 1518.6 1850.5 1567.4 1852.1 1610.8 1818.5 1610 1797 1549.3 1792.7 1489.5 1735.9 1399.3 1734.6 1366.2 1928.2 1364.2 1906.7 1292.5 1764.3 1291.4 1726.9 1248.1 1643 1153 1670.1 1141.1 1663.6 1134.7 1705.8 1117.3 1713.1 1119.9 1750.1 1121.7 1773.8 1121.4 1797 1121.1 1796.6 1166.1 1862.4 1166.3 1864.1 1148.9 1860.3 1127.5 1908.9 1128.1 1904.1 1112.7 1903.5 1105.3 1986.1 1073.9 Z" data-holc_grade="D"/>
<path d="M 1907.7 1845.8 1943.1 1869.6 1978 1871.6 1978 1877.1 2029.6 1882.9 2033.1 1899.7 2052 1961.9 2093.1 2092.3 2120.8 2180.3 2111.5 2197.4 2105.5 2195.9 2090.8 2186.4 2060.7 2164 1953.2 2081.5 1913.6 2065 1865.8 2011.2 1844.7 1992.1 1791.4 1952 1780.6 1886.4 1781.5 1838.5 1790.5 1812.7 1789.2 1788.3 1848.6 1788.6 1845.6 1767.1 1845.2 1724.4 1847.8 1710.5 1860.2 1714 1876.2 1724.1 1889.5 1740.9 1889.1 1773.8 1876.2 1774 1872.7 1821.6 1855.5 1822.2 1854.2 1891 1908 1892.5 1908.4 1882 1905.8 1857.9 1907.7 1845.8 Z" data-holc_grade="D"/>
<path d="M 1688 2336.1 1821.2 2337.3 1823.6 2349.1 1835 2354.9 1851.5 2363 1862.5 2366.8 1875.9 2369.3 1871.4 2442.1 1688 2440.9 1688 2336.1 Z" data-holc_grade="D"/>
<path d="M 1002.1 2508.9 1003.2 2463.1 1037.2 2464 1042.8 2194.5 1002.1 2194.2 1003.5 1986.1 1136.4 1986.1 1137.1 1833 1054.7 1832.8 1055.1 1819.5 1073 1784.5 1175.5 1785 1217.7 1738.6 1275.4 1739.2 1305 1765.6 1327 1800.7 1333.9 1834.1 1341.6 1875 1341.2 1893.9 1340.3 1906.7 1336.9 1920 1337.3 1928.5 1341.2 1940.9 1348.5 1955.2 1361.8 1966.2 1394.5 1986.5 1407 1995.8 1414.8 2003.4 1422.9 2021.4 1443.6 2112.3 1456.9 2178 1455.9 2180.5 1490 2218.9 1513 2225.4 1530.2 2251.2 1538.2 2305.8 1590.1 2306.2 1588.4 2380.4 1573.3 2380.8 1572.9 2378.7 1515.4 2378.7 1510.6 2383.4 1441.1 2384.3 1439.4 2434.3 1442.1 2485.7 1515.8 2485.9 1515.8 2433.8 1589.4 2432.7 1590.1 2508.9 1438 2511.7 1368.8 2508.9 1165.4 2509.4 1109.5 2510.3 1022.4 2509.4 1002.1 2508.9 Z M 1299.6 1949.7 1300.2 1913.7 1298.5 1909.5 1293.7 1907.4 1288.3 1905.3 1282.4 1903.8 1277.4 1903.4 1269.9 1903.9 1264.9 1900.9 1257.6 1898.4 1249.2 1897.9 1242.9 1899 1237 1900.8 1228.9 1905.4 1228.1 1903.8 1225.6 1846.7 1227.8 1831.1 1189.5 1831.3 1190.1 1846.6 1185.7 1852.9 1199.1 1880.2 1198.3 1988.7 1179.9 1988.9 1179.3 2038.5 1166.4 2038 1166.7 2099.3 1146.3 2099.7 1145.5 2115.8 1165.3 2117 1193.6 2188.5 1193.4 2195 1246.2 2196.3 1247.1 2041.9 1231.1 2041.9 1229.4 1989.8 1298.8 1991.1 1299.6 1949.7 Z M 1141.1 2148.6 1067.1 2148 1067.6 2168.9 1141.1 2170 1141.1 2148.6 Z" data-holc_grade="D"/>
<path d="M 1062.6 1784.5 1049.4 1784.5 1046.9 1710.4 1006.2 1655.2 1004.3 1617.3 991.9 1617.7 991.6 1565.9 980.6 1565.7 982.3 1521.7 1018.7 1561.8 1022.2 1577.5 1060 1666 1062.6 1784.5 Z" data-holc_grade="D"/>
</g>
</svg>