<?xml version="1.0"?>
<svg xmlns="http://www.w3.org/2000/svg" version="1.2" baseProfile="tiny" width="3000" height="2713" viewBox="0 0 3000 2713" stroke-linecap="round" stroke-linejoin="round">
<g id="A">
<path d="M 1492.6 240.1 1368.4 229.6 1356.3 368.4 1344.7 447 1341.2 520.7 1287.8 498.6 1192.6 491.3 1189.9 500.6 1134.2 496.6 1077.2 498.6 1081.9 428.5 1088.7 334.3 1074.6 332.3 1073.2 213.4 1082.7 59.1 1156.4 75.1 1271.1 81.8 1275.8 1 1495.7 20.4 1505.1 48.4 1532.6 73.8 1558.1 90.5 1565.5 127.9 1547.4 173.3 1515.2 201.4 1492.6 240.1 Z" data-holc_grade="A"/>
<path d="M 973.6 323.6 969 379.7 961 465.9 953.4 571.1 925.2 569 731.6 554.5 746.2 303.5 973.6 323.6 Z" data-holc_grade="A"/>
<path d="M 1875.5 723.1 1864.4 720.9 1848.4 721.2 1822.9 721.8 1821.6 707.6 1800.2 683.4 1810.7 603.2 1813.6 533.9 1863.9 578.1 1908.4 629.5 1942.3 682.9 1900 728 1875.5 723.1 Z" data-holc_grade="A"/>
<path d="M 198.3 994.4 187.5 1150.8 188.1 1150.8 167.3 1159.4 149.2 1167.5 130.4 1178.8 109 1197.5 69.4 1230.2 32.5 1252.3 5 1273 4.3 1253.6 3 1223.5 1.6 1180.1 1 1132.6 23.2 1087.9 58.7 1045.8 94.3 1014.4 137.9 994.4 198.3 994.4 Z" data-holc_grade="A"/>
<path d="M 2837.9 1369.5 2835.3 1397.7 2764.9 1393.6 2789.1 1179.7 2854.5 1187.2 2837.9 1369.5 Z" data-holc_grade="A"/>
<path d="M 2488.9 1685.2 2488.4 1702 2555.9 1710 2553.9 1757.6 2503.5 1752.6 2487 1914.5 2329 1838.8 2344.5 1675.4 2488.4 1684.4 2488.9 1684.4 2488.9 1685.2 Z" data-holc_grade="A"/>
<path d="M 955.6 1987.7 956.2 1987.8 1093.9 2003.2 1084.5 2118.1 1148.9 2120.1 1141.5 2213.7 1163.7 2214.4 1154.9 2349.4 1095.9 2342 1112 2166.9 934.2 2148.8 936.9 2092 894.6 2082.7 898.6 2036.5 942.9 2040.6 944.3 1986.8 944.3 1986.4 955.6 1987.7 Z" data-holc_grade="A"/>
</g>
<g id="B">
<path d="M 1088.7 334.3 1081.9 428.5 1077.2 498.6 1134.2 496.6 1189.9 500.6 1178.8 663 1176.9 691.9 1176.4 762.6 1170.3 779.6 1169.8 796.6 1051.1 793.1 1045.6 789.6 1058.7 670.9 999.8 661.8 918.3 649.3 925.2 569 953.4 571.1 961 465.9 969 379.7 973.6 323.6 1088.7 334.3 Z" data-holc_grade="B"/>
<path d="M 1492.6 240.1 1482.6 419.5 1509.7 420 1497.7 549.7 1594.2 555.7 1580.7 698.5 1446.8 687.7 1327.1 678 1332.2 608.8 1341.2 520.7 1344.7 447 1356.3 368.4 1368.4 229.6 1492.6 240.1 Z" data-holc_grade="B"/>
<path d="M 1327.1 678 1446.8 687.7 1580.7 698.5 1672 705.2 1735.1 711.2 1822.9 721.8 1848.4 721.2 1875.5 723.1 1870.6 745.9 1856.5 761.9 1837 775.3 1826.3 794 1790.7 790 1786.7 882.2 1766.6 902.9 1755.6 936.5 1690.7 938 1621.3 934 1569.9 931 1513.6 925.7 1441.7 919 1433.6 970.1 1423.1 1038.2 1409 1071.8 1405.9 1078.3 1372.2 1125.4 1331.3 1103.3 1300.4 1100.7 1237.4 1104 1169.6 1096.7 1140.1 1079.9 1123.3 1062.6 1108.6 1034.5 1086.5 1009.8 1067.7 997.8 1056.9 988.4 1066.3 941.6 1091.2 953.7 1108.6 945.6 1134.1 948.3 1149.5 947 1168.3 936.3 1187.1 935.6 1199.8 946.3 1238.1 951 1248.1 784 1170.3 779.6 1176.4 762.6 1176.9 691.9 1178.8 663 1327.1 678 Z" data-holc_grade="B"/>
<path d="M 693.6 1032.1 694.3 1063.5 684.9 1094.9 686.2 1139.7 238.8 1102.8 229.4 1208.4 208.6 1215 193.4 1221.4 181.8 1226.4 156.9 1239.7 132.8 1265.1 130.4 1178.8 149.2 1167.5 167.3 1159.4 188.1 1150.8 187.5 1150.8 198.3 994.4 291.9 1008.6 277.8 1041.3 316.7 1046.7 391.8 1048.7 465.6 1058.1 462.2 985.3 497.8 988 530 994 610.5 1028.1 658.8 1038.1 693.6 1032.1 Z" data-holc_grade="B"/>
<path d="M 2753.3 1160 2783.2 1161.4 2789.1 1179.7 2764.9 1393.6 2720.8 1393.7 2361.5 1394.5 2362.5 1361.9 2365.7 1257.6 2380.8 1233.3 2380.7 1188.2 2603 1199 2603.8 1153.1 2753.3 1160 Z" data-holc_grade="B"/>
<path d="M 2651 1699.9 2667.5 1537 2598.1 1503 2530.1 1507.5 2515.1 1686.9 2488.9 1685.2 2488.9 1684.4 2488.4 1684.4 2344.5 1675.4 2329 1838.8 2254.5 1803.2 2264.9 1684.9 2273.1 1592.3 2281.9 1493.1 2352.3 1484.7 2358.6 1423.1 2361.5 1394.5 2720.8 1393.7 2719 1499.2 2718.1 1551.4 2718.1 1552.5 2717.8 1570.2 2693.7 1707 2651 1699.9 Z" data-holc_grade="B"/>
<path d="M 2718.1 1552.5 2718.1 1551.4 2719 1499.2 2720.8 1393.7 2764.9 1393.6 2835.3 1397.7 2837.9 1369.5 2898.4 1363.4 2942.6 1362.9 2999 1363.9 2981.4 1445.1 2968.4 1552.3 2958.4 1642.5 2949.3 1669.6 2718.1 1552.5 Z" data-holc_grade="B"/>
<path d="M 1856.4 2068 1864.2 2080.6 1835.4 2104.7 1809.2 2066.6 1788.4 2061.9 1783 2109.4 1788.4 2122.1 1623.3 2126.1 1625.4 2094 1586.4 2092.7 1603.9 1882.8 1685.1 1892.9 1715.3 1900.2 1755.5 1916.9 1783 1951 1815.2 2001.1 1856.4 2068 Z" data-holc_grade="B"/>
<path d="M 1286.7 2034.6 1264.5 2357.5 1154.9 2349.4 1163.7 2214.4 1141.5 2213.7 1148.9 2120.1 1084.5 2118.1 1093.9 2003.2 956.2 1987.8 955.6 1987.7 958.3 1959.7 1135.7 1980.5 1131.7 2026.6 1286.7 2034.6 Z" data-holc_grade="B"/>
</g>
<g id="C">
<path d="M 2774 398.5 2774.2 397.8 2786.3 397 2804.8 397.8 2894.1 414 2975.8 414 2967.4 498.7 2970.8 510.4 2865.6 601.9 2760.9 657.1 2671.6 646.3 2674.9 584 2719.3 524.7 2757 459.6 2774 398.5 Z" data-holc_grade="C"/>
<path d="M 2293.2 2287.2 2301.2 2086.7 1966 2072.6 1967.9 2043.6 2013.6 1974.8 2050.4 1905.3 2051.8 1886.6 2080 1897.2 2098.8 1859.8 2432.3 2022.1 2415.5 2049.5 2663.8 2173.1 2660.5 2225.2 2659.8 2274.7 2649.1 2310.8 2293.2 2287.2 Z" data-holc_grade="C"/>
<path d="M 461.5 2083.5 534.9 2092.9 592.6 2098.2 689 2117 519 2563.9 480.2 2544.1 460.3 2566 430.9 2574.3 410 2564.9 393.2 2528.4 421.5 2500.2 436.2 2472 444.6 2444.8 453 2410.4 444.6 2375.9 444.6 2341.4 468.8 2308 396.4 2264.1 461.5 2083.5 Z" data-holc_grade="C"/>
<path d="M 1586.4 2092.7 1625.4 2094 1618.2 2186.1 1387.5 2173.5 1358.1 2582.1 1468 2593 1461.8 2712.4 1236.3 2690.3 1264.5 2357.5 1286.7 2034.6 1296.7 2022.6 1441.6 2036.6 1467.8 1832.1 1606.7 1836.2 1586.4 2092.7 Z" data-holc_grade="C"/>
<path d="M 1966 2072.6 2301.2 2086.7 2293.2 2287.2 1924.8 2259.2 1916.7 2177 1892.6 2102.8 1864.2 2080.6 1856.4 2068 1966 2072.6 Z" data-holc_grade="C"/>
<path d="M 2011.2 1129.8 2026.6 1067.6 2091.6 1026.2 2099 982.1 2154.7 944.7 2181.5 905.9 2378.1 757.9 2463.8 693.4 2481.3 694 2473.9 838.3 2497.4 841 2492.7 879.1 2410.2 890.5 2410.2 918.5 2144.6 1097.7 2150 1020.2 2112.4 1047.6 2111.1 1077.6 2011.2 1129.8 Z" data-holc_grade="C"/>
<path d="M 1755.6 936.5 1750 965.1 1752.6 998.1 1742.5 1041.2 1684.2 1037.2 1595.1 1030.2 1589.6 1058.8 1578.5 1078.3 1495 1036.2 1438.6 1067.3 1409 1071.8 1423.1 1038.2 1433.6 970.1 1441.7 919 1513.6 925.7 1569.9 931 1621.3 934 1690.7 938 1755.6 936.5 Z" data-holc_grade="C"/>
<path d="M 193.4 1221.4 208.6 1215 229.4 1208.4 238.8 1102.8 686.2 1139.7 684.9 1094.9 694.3 1063.5 693.6 1032.1 693.6 1011.1 717 996.9 753.9 974.3 813.5 964.3 838.6 944.3 885.6 928.4 925 932.6 973.6 947.7 1018 997.8 1041.5 1010.3 1076.7 1039.5 1101 1085.5 1121.2 1127.2 1159.7 1148.1 1157.2 1195.7 1148.8 1204.9 1145.4 1294.3 682.6 1253.3 347.2 1228.1 193.4 1221.4 Z" data-holc_grade="C"/>
<path d="M 2380.7 1188.2 2380.8 1233.3 2365.7 1257.6 2362.5 1361.9 2335.3 1359.8 2317.2 1363.1 2258.1 1359.8 2240.7 1362.5 2216.5 1361.2 2134.7 1359.2 2130 1391.2 2053.5 1393.9 1902.6 1384.6 1909.3 1352.5 1742 1346.9 1745 1294.8 1750.1 1249.2 1795.9 1246.3 1843.1 1195.8 1872 1221.1 1888.1 1225.8 1943.8 1271.9 1954.9 1281 2015.3 1289 2061.6 1247.6 2079 1227.6 2085 1233.6 2106.5 1218.2 2135.3 1192.8 2139.4 1198.8 2166.2 1175.4 2183.6 1172.7 2308.4 1078.5 2321.1 1077.8 2343.9 1061.8 2350 1049.8 2385.3 1030.6 2380.7 1188.2 Z" data-holc_grade="C"/>
<path d="M 2753.3 1160 2603.8 1153.1 2603 1199 2380.7 1188.2 2385.3 1030.6 2397.9 1024.3 2400 967.9 2589.6 849.9 2605.4 876 2737.4 838.4 2736.3 854 2762.5 842.6 2753.3 1160 Z" data-holc_grade="C"/>
<path d="M 1669.7 1616.8 1751.7 1629.3 1815.1 1635.3 1850.1 1637.1 1849 1660.1 1784.5 1736.1 1896 1814.6 2051.8 1886.6 2050.4 1905.3 2013.6 1974.8 1967.9 2043.6 1966 2072.6 1856.4 2068 1815.2 2001.1 1783 1951 1755.5 1916.9 1715.3 1900.2 1685.1 1892.9 1603.9 1882.8 1606.7 1836.2 1467.8 1832.1 1221.6 1811.6 1231 1649.8 1225.8 1626.8 1122 1616.4 909.2 1600.7 923.2 1564 846.9 1560.6 827.6 1609.9 536.6 1583.1 534.1 1642.4 528.2 1691.7 504.5 1690.4 493 1743.6 495.1 1761.4 498.2 1776 386 1768.6 382.3 1696.7 389.8 1624.8 338.7 1623.1 283.3 1619.8 295.1 1517.9 192 1517 202.1 1413.4 124.9 1412.6 134.2 1281.4 189.5 1284 244.9 1285.7 304.4 1289 401.7 1298.2 504 1304.1 615.5 1313.3 859.5 1333.4 919.9 1340.1 917.4 1386.9 892.2 1405.3 893.9 1413.6 971.9 1418.7 987.8 1377.7 1126.2 1389.4 1123.6 1439.6 1200 1438.7 1269.6 1449.6 1261.2 1503.1 1260.3 1557.4 1304.8 1558.2 1299.7 1661.8 1324.9 1664.3 1796.2 1930.7 1787 1909.9 1816.4 1890.6 1342.5 1610.8 1345.9 1554 1350.1 1535.6 1433.1 1541.5 1498.5 1547.3 1495.1 1599.1 1669.7 1616.8 Z" data-holc_grade="C"/>
<path d="M 2358.6 1423.1 2352.3 1484.7 2281.9 1493.1 2273.1 1592.3 2264.9 1684.9 2254.5 1803.2 1993.9 1671.3 1979.8 1633.8 1953.2 1618.6 1952 1527.6 1872 1535.6 1806.6 1532.6 1732.1 1521.1 1732.1 1522.6 1677.8 1510.6 1674.5 1472.2 1714.1 1480.8 1720.1 1394 1898.6 1408.7 1902.6 1384.6 2053.5 1393.9 2130 1391.2 2129.3 1424.7 2358.6 1423.1 Z" data-holc_grade="C"/>
<path d="M 1221.6 1811.6 1467.8 1832.1 1441.6 2036.6 1296.7 2022.6 1286.7 2034.6 1131.7 2026.6 1135.7 1980.5 958.3 1959.7 980.5 1730.2 1114.6 1737.5 1106.2 1804.3 1221.6 1811.6 Z" data-holc_grade="C"/>
</g>
<g id="D">
<path d="M 2774.2 397.8 2774 398.5 2748.6 393.2 2726.8 455.4 2505.1 430.9 2518 218.4 2759 237.1 2770.7 231.6 2843.7 241.6 2774.2 397.8 Z" data-holc_grade="D"/>
<path d="M 372.2 603.1 615.3 569.8 671.4 806.9 559.9 830.3 575.8 926.3 564.1 928.8 552.4 923 530.6 927.1 509.6 916.3 492.8 898.7 465.2 892.9 447.6 892.9 436.7 890.4 435.8 891.2 372.2 603.1 Z" data-holc_grade="D"/>
<path d="M 2378.1 757.9 2181.5 905.9 2154.7 944.7 2099 982.1 2091.6 1026.2 2026.6 1067.6 2011.2 1129.8 1972.6 1236.5 1943.8 1271.9 1888.1 1225.8 1872 1221.1 1843.1 1195.8 1918.9 1098.2 1880.7 1091.5 1932.3 1000 1978.6 1002 1983.3 935.2 2031.6 938.5 2037.6 953.2 2035.6 963.9 2065.1 973.9 2069.2 949.2 2100 932.5 2100 899.7 2108 836.9 2122.8 746.1 2147.6 747.4 2177.1 737.4 2225.4 743.4 2291.8 745.4 2378.1 757.9 Z" data-holc_grade="D"/>
<path d="M 1742.5 1041.2 1775.2 1045.7 1772.7 1059.8 1781.8 1085.8 1773.7 1119.4 1750.6 1148 1714.8 1163.5 1684.7 1166.5 1657 1167.5 1650 1240.7 1695.2 1245.2 1750.1 1249.2 1745 1294.8 1742 1346.9 1411 1321.4 1418 1214.1 1574.5 1232.2 1575 1144.5 1553.4 1135.4 1504.6 1129.4 1457.3 1097.9 1405.9 1078.3 1409 1071.8 1438.6 1067.3 1495 1036.2 1578.5 1078.3 1589.6 1058.8 1595.1 1030.2 1684.2 1037.2 1742.5 1041.2 Z" data-holc_grade="D"/>
<path d="M 1953.2 1618.6 1953.5 1641.3 1919.8 1634.3 1893.6 1634.3 1864.9 1637.8 1850.1 1637.1 1815.1 1635.3 1751.7 1629.3 1669.7 1616.8 1677.8 1510.6 1732.1 1522.6 1732.1 1521.1 1806.6 1532.6 1872 1535.6 1952 1527.6 1953.2 1618.6 Z" data-holc_grade="D"/>
<path d="M 2651 1699.9 2515.1 1686.9 2530.1 1507.5 2598.1 1503 2667.5 1537 2651 1699.9 Z" data-holc_grade="D"/>
<path d="M 1221.6 1811.6 1106.2 1804.3 1114.6 1737.5 980.5 1730.2 958.3 1959.7 955.6 1987.7 944.3 1986.4 944.3 1986.8 733 1969.2 705.7 2050.7 289.5 2012.9 300.1 1783.2 385 1797.9 386 1768.6 498.2 1776 495.1 1761.4 493 1743.6 504.5 1690.4 528.2 1691.7 791.8 1707.1 758.2 1787.5 831.6 1793.8 909.2 1600.7 1122 1616.4 1225.8 1626.8 1231 1649.8 1221.6 1811.6 Z" data-holc_grade="D"/>
<path d="M 1618.2 2186.1 1606.7 2317.4 1606.8 2372.1 1597.2 2370.6 1592.7 2501.4 1478.9 2490.4 1468 2593 1358.1 2582.1 1387.5 2173.5 1618.2 2186.1 Z" data-holc_grade="D"/>
</g>
</svg>