<?xml version="1.0"?>
<svg xmlns="http://www.w3.org/2000/svg" version="1.2" baseProfile="tiny" width="3000" height="2564" viewBox="0 0 3000 2564" stroke-linecap="round" stroke-linejoin="round">
<g id="A">
<path d="M 2246.6 433.3 2186.2 495.6 2180.2 490.2 2141.9 526 2116.9 499.4 2158.7 458.9 2182.9 480.8 2227.6 432.1 2246.6 433.3 Z" data-holc_grade="A"/>
<path d="M 2447.3 1375.9 2446.9 1449.7 2408.5 1449.3 2408.5 1375 2447.3 1375.9 Z" data-holc_grade="A"/>
<path d="M 2380.3 1605.4 2368.5 1605.4 2358.2 1602.4 2346.1 1600.3 2323.4 1585.5 2301.3 1569.9 2325.8 1500.9 2368.4 1518.9 2408.1 1534.2 2380.3 1605.4 Z" data-holc_grade="A"/>
<path d="M 2821.2 1808.4 2827.2 1797.9 2835.4 1779.7 2839.4 1766.9 2838.6 1755.2 2853.9 1760.4 2864.7 1726.6 2875.2 1722.2 2867.3 1776.5 2870.9 1788.5 2871.3 1805.4 2870.2 1827.1 2865.3 1837.5 2843.2 1838 2835.9 1834.8 2817.7 1831.2 2813.7 1828 2821.2 1808.4 Z" data-holc_grade="A"/>
<path d="M 2826 1957 2818.7 1945.3 2803.8 1925.7 2812.3 1921.5 2840.1 1921.1 2838.6 1929.6 2841.4 1942.5 2843.2 1954.9 2826 1957 Z" data-holc_grade="A"/>
<path d="M 2818.7 1945.3 2826 1957 2821.4 1960.4 2820.6 1982.1 2795.1 1984.2 2761.5 1985.5 2747.6 1984.9 2736.1 1986.1 2703.4 1950.9 2711.9 1950.3 2720 1948.2 2727.9 1943.3 2734.8 1941.8 2738.8 1943.9 2740.9 1948.1 2806.6 1947.1 2818.7 1945.3 Z" data-holc_grade="A"/>
<path d="M 2843.3 2025.1 2840.7 2014.3 2863.9 2003.1 2888.4 1996.7 2893.3 2011.8 2896.6 2009.7 2915.4 2004.2 2905.1 2034.4 2946.7 2073.2 2976.1 2101.8 2986.4 2114.1 2898.6 2108.5 2869.8 2073.9 2861.3 2053.7 2845.5 2033.6 2843.3 2025.1 Z" data-holc_grade="A"/>
<path d="M 1113.7 2106.2 1075.8 2081.6 1048.3 2061.7 1029.4 2048.9 1001.2 2091.6 983.8 2081.5 965.8 2069.5 982.8 2045.6 999.2 2023.3 1004.2 2015.4 1006.5 2011.9 1014.2 2016.7 1014.9 2018.7 1026.5 2027 1033.6 2015.4 1043.6 2022.7 1051.1 2020.1 1068.4 1992.5 1126.8 2032.9 1124.7 2037.8 1150.1 2051.9 1119.8 2093.2 1113.7 2106.2 Z" data-holc_grade="A"/>
<path d="M 1271.4 448.2 1226.9 433.6 1180 418.6 1176.9 415.2 1255.6 377.2 1284.8 365.9 1282 380.2 1281.3 395.3 1271.4 448.2 Z" data-holc_grade="A"/>
<path d="M 745.4 1166.3 747.1 1154.5 755.6 1108.2 757.4 1100 775.6 1102.5 766.4 1169 765.8 1187.7 761.3 1205.4 750 1248.8 743.3 1301.2 740.3 1322 731.8 1349.3 703.1 1347.5 710.4 1339.2 715.5 1330.7 717.3 1325.7 720.6 1305.7 728.2 1265.9 732.5 1235.8 736.8 1223.2 744.7 1200.3 744.4 1173.5 745.4 1166.3 Z" data-holc_grade="A"/>
<path d="M 404.9 1770 395.3 1766.5 383.7 1757.1 372.9 1758.1 368.8 1781.2 350.7 1778.4 348.4 1789.7 343.6 1789 326.8 1787.3 322.7 1783.1 319.9 1777.1 318.1 1762.6 315.7 1754.4 309.6 1750.1 323.6 1738.1 335.3 1723.3 346.4 1709.8 382.1 1714.5 393.6 1715.5 412.4 1718.2 404.9 1770 Z" data-holc_grade="A"/>
<path d="M 326.8 1787.3 343.6 1789 334.2 1844.2 330.6 1874.4 288.2 1869 242.4 1863.4 252.3 1791.5 288.2 1796.1 290.6 1783.7 326.8 1787.3 Z" data-holc_grade="A"/>
<path d="M 118.2 1924.5 118 1886.9 119.3 1863 118.1 1855.4 118 1852.8 136.3 1852.6 137 1847.1 157.7 1850.2 164.6 1850.4 185.7 1805.6 197.8 1785.8 205.1 1779.3 221.6 1769.9 238 1774 254.5 1776.8 252.3 1791.5 242.4 1863.4 223.9 1861.1 215.3 1924.2 167.7 1940 140.7 1937.9 118.7 1932.8 118.2 1924.5 Z" data-holc_grade="A"/>
<path d="M 118 1852.8 118.1 1855.4 119.3 1863 118 1886.9 48.8 1887.2 37.1 1889.2 33.5 1889.2 43.9 1842.2 56.3 1793.4 82.7 1788.8 116.2 1783.1 118 1852.8 Z" data-holc_grade="A"/>
<path d="M 506.3 1389.6 477.4 1382.8 475 1384.2 472.7 1385.5 465.5 1388.6 455.3 1390.2 444 1391.3 436.9 1391.7 438.4 1375 440.3 1366 439.7 1362.2 435.2 1341.8 432.5 1331.8 435.4 1321.2 436.7 1310.3 434.6 1304.8 433 1296.6 444.2 1294.2 467.6 1296 488.3 1297.5 512.9 1302.8 525.9 1304.5 540.4 1308.7 539.9 1310.9 535.1 1313.3 531.2 1322 531 1332.4 531.4 1342.1 527.8 1348.2 518.1 1361.2 512.1 1372.6 509.7 1378.8 506.3 1389.6 Z" data-holc_grade="A"/>
<path d="M 503.6 1237.4 523.2 1238 540 1238.5 548.3 1261.9 547.7 1278.6 548.6 1288 550.5 1297 548.6 1305 549.3 1311.6 540.4 1308.7 525.9 1304.5 512.9 1302.8 488.3 1297.5 467.6 1296 474.5 1258 475.2 1230.5 491.1 1234.2 495 1237.1 503.6 1237.4 Z" data-holc_grade="A"/>
<path d="M 549.3 1311.6 548.6 1305 550.5 1297 548.6 1288 547.7 1278.6 548.3 1261.9 540 1238.5 562 1237.7 582.8 1237.7 588.7 1237.3 598.1 1235 595.3 1257.4 610.8 1257.3 626.7 1257.4 621.6 1300.3 611.6 1305 606.5 1310.3 603.3 1316.5 598 1318.6 577.8 1313 570.2 1312.9 559.8 1314.7 549.3 1311.6 Z" data-holc_grade="A"/>
<path d="M 717.3 1325.7 693.1 1323.4 663.1 1318.1 641.9 1316.3 629.8 1314 629.8 1309.5 621.6 1300.3 626.7 1257.4 630.3 1249.7 637.6 1211.9 640.1 1190.6 640.2 1189.4 659.5 1189.9 688.6 1192.8 705.7 1197.2 711 1199.6 744.7 1200.3 736.8 1223.2 732.5 1235.8 728.2 1265.9 720.6 1305.7 717.3 1325.7 Z" data-holc_grade="A"/>
<path d="M 834.1 1821.8 825.2 1890.5 821 1942.4 765.9 1937.2 688.1 1932.9 684.8 1924.1 683 1890.7 677.3 1872.6 660 1855.7 650.2 1842.5 668.8 1832.6 690.3 1817.2 703.7 1810.8 721.2 1804.8 756.9 1783.5 818.4 1794.1 818.4 1797.7 818.4 1805.5 818.4 1809.1 822.3 1820.3 834.1 1821.8 Z M 776.6 1844.7 759.6 1837.1 742.4 1834.4 736 1887.1 770.8 1892.6 776.6 1844.7 Z" data-holc_grade="A"/>
<path d="M 698.5 1092.6 716 1094.9 757.4 1100 755.6 1108.2 747.1 1154.5 745.4 1166.3 702.9 1160.2 661.5 1156 660.9 1163.8 643.3 1162.1 647.2 1125.5 652.4 1086.6 698.5 1092.6 Z" data-holc_grade="A"/>
<path d="M 698.5 1092.6 652.4 1086.6 634.6 1085.5 619.5 1084.7 622.5 1065.2 628.8 1055.1 633.6 1024.3 704.9 1036.2 698.5 1092.6 Z" data-holc_grade="A"/>
<path d="M 619.5 1084.7 600.8 1083.7 578.8 1080.1 558.5 1074.6 527.4 1072.4 527.5 1070.3 531 1024.9 535.5 968.7 533.9 962.5 527.5 954.6 528.7 947.6 538.2 941.9 545.8 941.1 552.3 944.2 554.9 953.7 560.1 959.7 566.9 964 581.8 989.6 596.3 1019.2 633.6 1024.3 628.8 1055.1 622.5 1065.2 619.5 1084.7 Z" data-holc_grade="A"/>
<path d="M 619.5 1084.7 634.6 1085.5 652.4 1086.6 647.2 1125.5 643.3 1162.1 642.3 1171.4 598.4 1167.3 529.4 1158 531.3 1153 532.3 1146.6 516.2 1143.9 518.8 1126.3 525.3 1091.9 526.5 1087.3 527.4 1072.4 558.5 1074.6 578.8 1080.1 600.8 1083.7 619.5 1084.7 Z" data-holc_grade="A"/>
<path d="M 637.6 1211.9 613.5 1209.7 594.3 1207.9 585 1206.2 578 1202.8 553.4 1199.4 536.9 1194.5 520.9 1191.7 515.3 1200.5 509.6 1213.2 504 1231.6 503.6 1237.4 495 1237.1 491.1 1234.2 475.2 1230.5 466.8 1229.7 461.8 1219.3 443.4 1218.3 433.1 1217.3 420.9 1215.5 414.4 1212.9 417.3 1196.2 421.8 1145.8 423.2 1141 427.1 1112.7 449.5 1116.5 478.9 1118 493.6 1120 518.8 1126.3 516.2 1143.9 532.3 1146.6 531.3 1153 529.4 1158 598.4 1167.3 642.3 1171.4 640.2 1189.4 640.1 1190.6 637.6 1211.9 Z" data-holc_grade="A"/>
<path d="M 467.6 1296 444.2 1294.2 433 1296.6 405.8 1297.6 376.6 1293.5 378.8 1291.6 380.3 1271.5 397.6 1246.5 404.6 1231.5 414.4 1212.9 420.9 1215.5 433.1 1217.3 443.4 1218.3 461.8 1219.3 466.8 1229.7 475.2 1230.5 474.5 1258 467.6 1296 Z" data-holc_grade="A"/>
<path d="M 285.6 1123.4 316.4 1121.9 318.9 1125.9 314.8 1201.2 319.3 1214.5 320.5 1231.5 317.2 1245.3 312.9 1254.6 309.1 1262.6 305.3 1274.2 303.9 1277 306.7 1277.6 329.4 1281.8 346.6 1288.2 344.1 1386.4 278.1 1384.2 279.3 1422.4 278.4 1433 278.4 1437.8 280.1 1458.6 279.2 1480.6 276.4 1502.2 241.4 1495.3 239 1510.5 149.1 1492.7 137.3 1492.4 164.7 1386.1 180.2 1325.6 197 1257.2 220.8 1164.9 229.5 1132.5 238.8 1091.1 267.1 1089.9 266.5 1124.3 285.6 1123.4 Z M 179.1 1483.4 222.3 1490.4 224.4 1486.2 233.8 1488 236.6 1482.6 238.1 1470.2 238.4 1456.1 236.9 1430.2 210.6 1426.5 193.1 1421.7 189.7 1440.9 186.7 1459 179.1 1483.4 Z" data-holc_grade="A"/>
<path d="M 527.4 1072.4 526.5 1087.3 525.3 1091.9 518.8 1126.3 493.6 1120 478.9 1118 449.5 1116.5 427.1 1112.7 430.6 1089.2 360.2 1080.7 342.9 1080.9 344.3 1062.6 347 1023.8 340.2 1004.4 358.3 1005.4 379.7 1008.6 440.1 1021.8 457.1 1024 457.1 1018 470.6 1017.2 495.8 1027.7 505.2 1028.1 517.7 1030.7 514 977.5 525.3 958.4 527.5 954.6 533.9 962.5 535.5 968.7 531 1024.9 527.5 1070.3 527.4 1072.4 Z" data-holc_grade="A"/>
<path d="M 635.6 532.5 641.3 537.2 646.9 541.3 651.9 542.4 669 539.8 687.1 539.1 701.6 540.7 720.6 545.6 716.7 567.7 713.1 594.9 714.5 607.8 698.6 607.4 689.9 608.1 672.5 611.9 668.9 611.9 657.3 605.8 647.2 604.3 618.7 599.8 611.9 597.1 608.4 597.1 604.3 595.9 603 589.7 604 586 601.1 583.1 598.2 574.9 589.4 577 608.9 547 614.4 536.7 622.5 519.6 629.9 527.8 635.6 532.5 Z" data-holc_grade="A"/>
<path d="M 832 599.1 810.1 638.6 754.6 611.8 773.2 577.9 774.2 566.5 789.5 572.5 800.2 575.8 820.1 580.8 832.6 585.6 838.5 588.8 832 599.1 Z" data-holc_grade="A"/>
<path d="M 907.6 1830.9 887.8 1949.4 821 1942.4 825.2 1890.5 834.1 1821.8 907.6 1830.9 Z" data-holc_grade="A"/>
<path d="M 791.2 459.4 807.9 472.1 817.2 476.7 821.8 480.9 822.4 485.5 824 485.5 829.6 487.3 837.3 493.3 841.1 493.9 844.7 494.4 883.4 512.8 870.3 535.1 849.1 573.2 838.5 588.8 832.6 585.6 820.1 580.8 800.2 575.8 789.5 572.5 774.2 566.5 759.7 561.1 720.6 545.6 728.7 518.9 736.6 488.2 737 486.3 741.8 463.6 753.1 465.8 761 468.8 776.3 475.4 778.5 469.8 766.8 453.6 773.5 447.2 791.2 459.4 Z" data-holc_grade="A"/>
<path d="M 626.7 1257.4 610.8 1257.3 595.3 1257.4 598.1 1235 588.7 1237.3 582.8 1237.7 562 1237.7 540 1238.5 523.2 1238 503.6 1237.4 504 1231.6 509.6 1213.2 515.3 1200.5 520.9 1191.7 536.9 1194.5 553.4 1199.4 578 1202.8 585 1206.2 594.3 1207.9 613.5 1209.7 637.6 1211.9 630.3 1249.7 626.7 1257.4 Z" data-holc_grade="A"/>
<path d="M 760.9 1757.6 763.6 1732.2 768.5 1699.7 834.2 1707.9 832.3 1739.2 823.2 1753.7 819 1771.2 778.7 1766.6 776 1762.7 770.3 1758.8 760.9 1757.6 Z" data-holc_grade="A"/>
<path d="M 1021.5 1716.8 1018.4 1728.1 1013.1 1766 998.9 1792 997.7 1794.1 986.1 1815.3 909 1804.6 917.8 1748.9 930.1 1749.6 932.3 1722.8 953.5 1726.5 959.3 1720 959.3 1710 997.3 1711.6 1006.9 1717.7 1021.5 1716.8 Z" data-holc_grade="A"/>
<path d="M 1083.1 1602.5 1042 1597.8 1046 1577.1 1084 1582.4 1083.1 1602.5 Z" data-holc_grade="A"/>
<path d="M 1077.4 1177.1 1101.5 1183.1 1099.3 1197.2 1074.7 1189.5 1073.3 1205.2 1071.1 1217.8 1036.8 1212.8 1021.1 1212 1019.9 1222.4 972.9 1214.2 954.6 1211.5 867.2 1201.5 794.6 1192.6 765.8 1187.7 766.4 1169 852.7 1180.6 987.4 1194 988.6 1183.1 1068.1 1191.4 1070.1 1188.8 1071.9 1176 1077.4 1177.1 Z M 990.3 1152.4 989 1164 953.5 1160.2 920.7 1156.4 926 1122.5 994.8 1131.8 990.3 1152.4 Z" data-holc_grade="A"/>
<path d="M 1436.5 873.3 1402.9 896.5 1358.3 863.7 1406.4 829.6 1436.5 873.3 Z" data-holc_grade="A"/>
<path d="M 1203.2 547.7 1192.8 527.9 1183.8 511.8 1174 499.5 1155.5 478.1 1142.8 460.9 1154.3 444.8 1172.2 454.9 1218 478.5 1236.9 484.5 1245 485 1253.5 488 1203.2 547.7 Z" data-holc_grade="A"/>
</g>
<g id="B">
<path d="M 2350.5 280 2353.4 241.6 2357.2 238.1 2387.1 241 2424.1 236.2 2436.2 235.7 2435.7 275.1 2436.7 281.6 2418.4 281.4 2350.5 280 Z" data-holc_grade="B"/>
<path d="M 2248.6 477.4 2153.7 570.7 2100.1 624.7 2083.5 611.4 2043.1 574.2 2116.8 499.3 2116.9 499.4 2141.9 526 2180.2 490.2 2186.2 495.6 2246.6 433.3 2254.5 441.1 2254.5 444.1 2268.4 456.4 2248.6 477.4 Z" data-holc_grade="B"/>
<path d="M 2456.8 1300.6 2456.3 1327.2 2480.5 1326.7 2480 1352.3 2479.5 1374.9 2447.3 1375.9 2408.5 1375 2408.5 1449.3 2373.3 1450.3 2373.8 1469.9 2335.4 1448.4 2333.4 1394.6 2316.7 1367.5 2317.7 1353.5 2288 1355.5 2288.9 1297.3 2359 1296.2 2364 1298.7 2456.8 1300.6 Z" data-holc_grade="B"/>
<path d="M 2301.3 1569.9 2298.9 1577.7 2188.8 1530.5 2221.7 1454.6 2325.8 1500.9 2301.3 1569.9 Z" data-holc_grade="B"/>
<path d="M 2595.3 1696.1 2568.7 1738.3 2550.5 1730.8 2579.7 1691.3 2595.3 1696.1 Z" data-holc_grade="B"/>
<path d="M 2694 1767.7 2684.3 1756.2 2681.3 1748.4 2664.2 1733.3 2637.6 1709.9 2595.3 1696.1 2607 1677.7 2609.7 1673.8 2653.7 1696.3 2674.2 1664.9 2711.1 1685.4 2724.7 1662.7 2735.3 1669.1 2747.7 1676.6 2726.6 1714.6 2713 1738.1 2709.4 1742.6 2707.3 1752.6 2694 1767.7 Z" data-holc_grade="B"/>
<path d="M 2677 1914.8 2685.8 1909.9 2694.2 1904.2 2701.8 1898.2 2710.2 1885.5 2715.4 1882.2 2746.8 1866.7 2751.1 1870.6 2772.4 1850 2801.6 1865.7 2802.2 1876.6 2798.6 1895 2796.8 1910.4 2798.4 1921.2 2803.8 1925.7 2818.7 1945.3 2806.6 1947.1 2740.9 1948.1 2738.8 1943.9 2734.8 1941.8 2727.9 1943.3 2720 1948.2 2711.9 1950.3 2703.4 1950.9 2697.9 1947.6 2671.9 1926.8 2673.1 1920.5 2677 1914.8 Z" data-holc_grade="B"/>
<path d="M 2840.7 2014.3 2832.7 1981.1 2826 1957 2843.2 1954.9 2841.4 1942.5 2838.6 1929.6 2840.1 1921.1 2812.3 1921.5 2803.8 1925.7 2798.4 1921.2 2796.8 1910.4 2798.6 1895 2802.2 1876.6 2801.6 1865.7 2818.5 1858.2 2831.2 1853.9 2849.7 1852.4 2867.6 1850.3 2873.9 1846.6 2877 1859 2879.7 1878 2879.8 1900.3 2878.3 1925.9 2877.1 1955.1 2863.2 1955.5 2847.8 1956.4 2848.1 1962.4 2863.9 2003.1 2840.7 2014.3 Z" data-holc_grade="B"/>
<path d="M 2840.7 2014.3 2843.3 2025.1 2830.9 2019.4 2817.9 2012.5 2798.2 2004.7 2779.1 1997.8 2766.1 1994.8 2743.1 1992.7 2736.1 1986.1 2747.6 1984.9 2761.5 1985.5 2795.1 1984.2 2820.6 1982.1 2821.4 1960.4 2826 1957 2832.7 1981.1 2840.7 2014.3 Z" data-holc_grade="B"/>
<path d="M 878.3 1630.2 875.6 1657 851.4 1653.7 846.2 1657.6 842.3 1677.2 965.7 1699 980.8 1696.3 1026.5 1701.4 1024.5 1706 1021.5 1716.8 1006.9 1717.7 997.3 1711.6 959.3 1710 959.3 1720 953.5 1726.5 932.3 1722.8 930.1 1749.6 917.8 1748.9 909 1804.6 907.6 1830.9 834.1 1821.8 822.3 1820.3 818.4 1809.1 818.4 1805.5 818.4 1797.7 818.4 1794.1 756.9 1783.5 721.2 1804.8 703.7 1810.8 690.3 1817.2 668.8 1832.6 662.5 1819.2 661.5 1809.7 666.4 1779.4 669.1 1761.5 671.9 1744.2 677.2 1722.1 679.4 1701.5 680.2 1684.6 683.1 1669.7 685.4 1647.5 744.8 1557.2 814.4 1507.2 819.8 1524.1 835.5 1531.3 858.5 1536.2 883.3 1539.8 871.2 1607.9 882.1 1616.3 878.3 1630.2 Z M 760.9 1757.6 770.3 1758.8 776 1762.7 778.7 1766.6 819 1771.2 823.2 1753.7 832.3 1739.2 834.2 1707.9 768.5 1699.7 763.6 1732.2 760.9 1757.6 Z" data-holc_grade="B"/>
<path d="M 994.8 1131.8 926 1122.5 920.7 1156.4 953.5 1160.2 989 1164 990.3 1152.4 1073.2 1162.5 1079.4 1164.8 1077.4 1177.1 1071.9 1176 1070.1 1188.8 1068.1 1191.4 988.6 1183.1 987.4 1194 852.7 1180.6 766.4 1169 775.6 1102.5 757.4 1100 777.7 1066.5 790.6 1074.8 800.7 1084.6 811.8 1101.4 817.1 1108 821.9 1110.7 816.1 1091.7 803.3 1048.2 797.9 1033.2 835.9 969.5 857.3 941.2 912.9 980.3 1005.6 1039.8 1003.9 1079.1 998.9 1103 994.8 1131.8 Z" data-holc_grade="B"/>
<path d="M 1054.6 803.6 1127.4 845.1 1075.2 936.6 1014 901.1 973 875.8 972 878 917.1 845.6 913.8 844.9 921.9 831.6 948.8 847.9 969.3 810.8 970.2 813.2 975.4 819.2 982.8 825.7 992.7 831.5 1004.9 806.1 1029 804.3 1043.8 803.7 1054.6 803.6 Z M 1290 676.4 1221 723.5 1184.4 750.1 1179.7 751.6 1084.5 700.1 1036.4 787.9 1011.1 767.2 998.3 756.5 993.6 749.7 984 738.9 979.6 733.9 987.9 720.8 999.3 710.8 1001.1 708 1033.6 727.6 1044 704 1052.5 688.9 1060 650.8 1088.9 604.4 1097.7 577.9 1111 547.4 1121.5 535.2 1155.5 478.1 1174 499.5 1183.8 511.8 1192.8 527.9 1203.2 547.7 1248.7 614.6 1290 676.4 Z" data-holc_grade="B"/>
<path d="M 1372.8 797.6 1357.1 827.7 1355 832.2 1355 835.6 1317.8 862.6 1311.2 869.3 1292.4 905.4 1297.5 909.3 1284.5 933.1 1244.9 911.4 1212.6 970.7 1171.5 948.7 1143.9 999.6 1115.8 983.6 1120.4 975.8 1070.2 945.3 1075.2 936.6 1127.4 845.1 1128.9 842.4 1153.1 794.6 1161.9 788.8 1179.7 751.6 1184.4 750.1 1221 723.5 1290 676.4 1338.1 743.5 1372.8 797.6 Z" data-holc_grade="B"/>
<path d="M 1406.4 829.6 1358.3 863.7 1402.9 896.5 1436.5 873.3 1469.1 850.6 1480.5 868 1518.2 843.6 1528.1 834.1 1555.3 861.2 1563.3 871 1586.8 911.9 1525.8 954 1497.1 1003.9 1471.1 987.9 1396.1 946.2 1376.9 984.4 1284.5 933.1 1297.5 909.3 1292.4 905.4 1311.2 869.3 1317.8 862.6 1355 835.6 1355 832.2 1357.1 827.7 1372.8 797.6 1379.2 804.2 1394.1 810.8 1399.9 817.5 1406.4 829.6 Z" data-holc_grade="B"/>
<path d="M 1253.5 488 1245 485 1236.9 484.5 1218 478.5 1172.2 454.9 1154.3 444.8 1176.9 415.2 1180 418.6 1226.9 433.6 1271.4 448.2 1269.7 464.5 1253.5 488 Z" data-holc_grade="B"/>
<path d="M 1253.5 488 1269.7 464.5 1271.4 448.2 1281.3 395.3 1282 380.2 1284.8 365.9 1340.4 342.4 1383.7 324.4 1380.2 353.9 1373.1 410.1 1364.8 475 1364.6 522.4 1365.8 559 1351.5 543.7 1337.6 533.4 1312.9 520.4 1283.7 503.3 1262.1 491.5 1253.5 488 Z" data-holc_grade="B"/>
<path d="M 494.2 1793.8 500.1 1738.3 472.4 1748.3 469.1 1758.8 462 1767.1 445.3 1780.6 421.4 1783.9 419.2 1797.7 400.6 1794.6 404.9 1770 412.4 1718.2 393.6 1715.5 382.1 1714.5 346.4 1709.8 355.2 1693.1 360.8 1679.3 367.1 1669.3 374.9 1646.4 388.8 1630.9 399.2 1622.1 413 1617.1 428.7 1615.6 459.4 1618.9 473.3 1621.2 472.9 1623.9 473.3 1631 473.3 1645.6 479.8 1654.4 491.1 1664.9 503 1668.2 517.6 1669.2 527.2 1673.8 536.3 1673.8 545.6 1672.5 545.3 1680.6 554.6 1693.7 550.6 1731.8 544.2 1762.9 540.1 1794.6 515.4 1791.8 494.2 1793.8 Z" data-holc_grade="B"/>
<path d="M 404.9 1770 400.6 1794.6 419.2 1797.7 426.5 1798.9 420 1802.9 405.6 1807.4 393.7 1809.1 388.4 1839 386.4 1863.4 381.3 1899 377.1 1925.2 374.6 1940.7 370.4 1969.6 328.8 1963.1 336.8 1924.6 321.2 1923.1 270.3 1916.7 264.7 1953.9 271.5 1954.9 270.6 1978.4 269.2 1987.7 254 1983.3 225.4 1971.2 205.6 1981.6 198.5 1982.8 162.9 1998.8 167 2013.3 136.1 2030.5 114.4 2044.8 114.9 2031.3 118.3 2013.4 118.9 2004.2 118.2 1995.1 117 1982.7 117.6 1966.2 118.7 1932.8 140.7 1937.9 167.7 1940 215.3 1924.2 223.9 1861.1 242.4 1863.4 288.2 1869 330.6 1874.4 334.2 1844.2 343.6 1789 348.4 1789.7 350.7 1778.4 368.8 1781.2 372.9 1758.1 383.7 1757.1 395.3 1766.5 404.9 1770 Z" data-holc_grade="B"/>
<path d="M 435.6 1998.3 425.5 1998.6 411.8 2000.8 392.4 2005.9 383.2 2007.7 367.9 2007.8 369.1 1983.1 370.4 1969.6 377.3 1969.7 400.2 1967.3 415.4 1967 438.3 1968 435.9 1987.2 435.6 1998.3 Z" data-holc_grade="B"/>
<path d="M 118.7 1932.8 117.6 1966.2 117 1982.7 118.2 1995.1 118.9 2004.2 118.3 2013.4 114.9 2031.3 114.4 2044.8 100.6 2054.6 75.7 2020.4 63.1 2030.2 69.6 2039 68 2069.4 19.6 2058 8.8 2044.4 1 2027.3 17 1958.7 33.5 1889.2 37.1 1889.2 37.1 1901.7 48.4 1901.5 47.3 1934.9 46.1 1940.2 45.8 1954.8 54.6 1947.5 87.4 1936 118.2 1924.5 118.7 1932.8 Z" data-holc_grade="B"/>
<path d="M 821 1942.4 887.8 1949.4 883 1956.6 881.5 1978 876.9 1984 877.2 2006.9 898.7 2023.2 890.7 2034.7 884.1 2041.9 841.9 2072.9 854.3 2090.7 868.6 2081.4 884.9 2104.9 874.3 2117 849.5 2120 830.1 2113.3 818.9 2105.8 804.7 2092.2 711 1978.1 688.1 1932.9 765.9 1937.2 821 1942.4 Z" data-holc_grade="B"/>
<path d="M 334.1 1704.6 344.6 1706.8 346.4 1709.8 335.3 1723.3 323.6 1738.1 309.6 1750.1 315.7 1754.4 318.1 1762.6 319.9 1777.1 322.7 1783.1 326.8 1787.3 290.6 1783.7 291.3 1765.8 263.4 1758.3 259.8 1750.9 269.1 1746.5 273.5 1743.7 277.8 1741.1 320.8 1716 323.8 1702.4 334.1 1704.6 Z" data-holc_grade="B"/>
<path d="M 148.4 1743.6 118.6 1744 116.2 1783.1 82.7 1788.8 56.3 1793.4 66.6 1752.7 93.5 1654.1 100.3 1651.1 111.7 1644.6 124 1669.5 165.5 1665 162.5 1678.1 159.2 1688.4 153.4 1697.4 150.8 1727.8 148.4 1743.6 Z" data-holc_grade="B"/>
<path d="M 220.1 1662.9 213.2 1663.6 165.5 1665 124 1669.5 111.7 1644.6 100.3 1651.1 93.5 1654.1 109 1599.1 122.6 1600.9 151.1 1606.2 152.9 1592.4 191.4 1598 188.1 1612.3 199.5 1610.8 230.5 1601.3 231 1602.9 230.2 1611.4 227.7 1623.4 222.9 1643 220.1 1662.9 Z" data-holc_grade="B"/>
<path d="M 298.5 1502 295.5 1501.4 292.2 1520.9 239 1510.5 241.4 1495.3 276.4 1502.2 279.2 1480.6 280.1 1458.6 278.4 1437.8 300.7 1441.4 301 1463.7 298.5 1502 Z" data-holc_grade="B"/>
<path d="M 717.3 1325.7 715.5 1330.7 710.4 1339.2 703.1 1347.5 698.3 1377.4 695.8 1398.9 687.6 1443.6 683.6 1456.9 681.1 1470.2 681 1476.5 678 1499.6 681 1504.9 666.1 1533.2 667.1 1538.7 649.4 1588.9 643.6 1591.4 629.2 1605.7 598 1604 605.5 1565.2 586.2 1571.4 571.9 1568.4 579.2 1531.7 582.8 1508.6 546.7 1512.1 531.6 1510.1 519.5 1509.5 520.1 1489.8 520 1453.5 505.9 1454.8 504.4 1454.6 505.9 1434.8 508.1 1421.2 509.1 1411.8 512.3 1402.7 515.6 1392.3 506.3 1389.6 509.7 1378.8 512.1 1372.6 518.1 1361.2 527.8 1348.2 531.4 1342.1 531 1332.4 531.2 1322 535.1 1313.3 539.9 1310.9 540.4 1308.7 549.3 1311.6 559.8 1314.7 570.2 1312.9 577.8 1313 598 1318.6 603.3 1316.5 606.5 1310.3 611.6 1305 621.6 1300.3 629.8 1309.5 629.8 1314 641.9 1316.3 663.1 1318.1 693.1 1323.4 717.3 1325.7 Z" data-holc_grade="B"/>
<path d="M 421.6 1391.1 405.1 1389.9 372.6 1387.6 373.4 1351 376.6 1293.5 405.8 1297.6 433 1296.6 434.6 1304.8 436.7 1310.3 435.4 1321.2 432.5 1331.8 435.2 1341.8 439.7 1362.2 440.3 1366 438.4 1375 436.9 1391.7 421.6 1391.1 Z" data-holc_grade="B"/>
<path d="M 749 1027.4 797.9 1033.2 777.7 1066.5 757.4 1100 716 1094.9 698.5 1092.6 704.9 1036.2 733.6 1040.2 734.1 1025.6 749 1027.4 Z" data-holc_grade="B"/>
<path d="M 645.8 849.2 658.5 850.1 683 859.3 692.2 862.7 696 862.8 698.2 862.9 733.6 873 730.5 897.2 730.2 899.3 723.3 899.3 720.9 941 720.8 946 725.5 959.5 719.2 965.6 718.9 976.1 747.9 980.1 754 981.9 749 1027.4 734.1 1025.6 661.1 1015.3 635.4 994.4 603.5 968.1 601.7 963.9 585.4 947.9 573 942.8 575.1 947.9 577.9 950.9 578.5 954.2 577.2 959.1 573.3 959.4 566.9 964 560.1 959.7 554.9 953.7 552.3 944.2 545.8 941.1 538.2 941.9 528.7 947.6 527.5 954.6 525.3 958.4 522.2 952.1 523.8 928.3 506.5 924.6 509 899.4 499 896.6 501.5 879.5 492.7 877.4 485.4 801.8 514.8 803.3 538.3 873.5 564.3 874.4 563.8 821.2 583.7 837.1 644.1 867 641.1 850.2 645.8 849.2 Z" data-holc_grade="B"/>
<path d="M 622.5 519.6 614.4 536.7 608.9 547 589.4 577 585 576.1 580.9 572.7 575.6 561.8 557.9 556.6 557.7 565.8 556.4 584.4 557.1 593.9 555.3 612.5 554.9 636.6 556.8 648.3 532.4 633.5 529.4 647.6 530.5 674.4 531.5 708.3 525.8 706.7 506.2 703 483.1 698.6 485.8 710.3 489.4 732.3 491.4 753 493.7 764.6 514.3 800.2 514.8 803.3 485.4 801.8 471.4 800.7 449.6 789.1 447 711.4 445.1 681.7 441.9 667.9 427.1 660.5 407.3 646 412.8 615.7 379.4 625.6 373.3 629.9 350.7 629.2 340.9 633.9 343.3 623.8 350.6 586.5 361.2 534.1 376.5 537.8 381 530.4 392.1 536.7 417.9 552.1 446.7 573.8 468.9 590.6 442.8 600.2 448.3 607.5 439.4 639.3 487 651.6 492.6 626.5 498.7 619 501 612.4 491.1 604.9 499.2 582.7 510.2 591.9 508.7 579.9 523.2 580.7 520 559.6 529.2 560.3 542.2 519.7 559.1 525 566.5 522.5 556.8 510.7 557.8 502.6 565.1 501.8 564.7 498.9 555.3 485.7 554.6 477.2 582.2 477.6 588.1 482.9 596.5 488.8 622.5 519.6 Z" data-holc_grade="B"/>
<path d="M 672.5 468.2 667.8 481.1 662 492.5 662.6 501.7 635.6 532.5 629.9 527.8 622.5 519.6 596.5 488.8 588.1 482.9 582.2 477.6 587.1 477.8 582.1 468 583.3 457 604 462 606.5 451.2 608.5 449.7 615.5 450.1 637.2 449.5 658 459.2 672.5 468.2 Z" data-holc_grade="B"/>
<path d="M 1001.2 2091.6 1018.6 2101.9 1045.8 2120.8 1087.7 2149.2 1074.3 2166.8 1026.9 2134.3 953.7 2087.5 965.8 2069.5 983.8 2081.5 1001.2 2091.6 Z" data-holc_grade="B"/>
<path d="M 724.4 379.4 712.6 408.7 713 413.9 716.2 424.2 697.5 429.3 688 436.8 677.7 452.6 672.5 468.2 658 459.2 637.2 449.5 615.5 450.1 608.5 449.7 618.9 422.7 619.6 413.4 622.7 399.1 638.8 394.9 721.1 378.1 724.4 379.4 Z" data-holc_grade="B"/>
<path d="M 841.1 493.9 837.3 493.3 829.6 487.3 824 485.5 822.4 485.5 821.8 480.9 817.2 476.7 807.9 472.1 791.2 459.4 790.9 444.4 791.7 431.1 815.6 420 843.1 423 831.4 428.7 822.8 436.4 818.2 444.8 817.7 454.2 819.1 463.5 824.3 469.9 842.3 479.9 848.7 482.2 841.1 493.9 Z M 773.5 447.2 766.8 453.6 778.5 469.8 776.3 475.4 761 468.8 753.1 465.8 741.8 463.6 737 486.3 719.7 484.8 698.6 469.4 716.2 424.2 726.6 445.9 745.4 441.5 745.4 439.1 751.8 418.9 764.8 387.6 774.6 392.6 772.2 443.4 773.5 447.2 Z" data-holc_grade="B"/>
<path d="M 810.1 638.6 832 599.1 837.8 607.9 843.4 613.4 857.2 624.2 865 629.7 881.6 597.6 895.5 597.1 904.6 597.6 911.1 598.1 922.2 604.7 927.5 611.7 933.2 624 942.3 646.3 957.4 677.2 963.2 694.2 964.9 705.3 963.9 711.5 962.6 717.8 963.6 734.6 960.9 747.9 956.6 764 949.5 781.3 934.4 771.9 909.8 758.6 917.8 743.1 911.5 738.6 924.9 717.3 903.7 705.5 914.3 681.2 892.9 669.4 879.8 656.3 873.3 661.3 868.2 668.6 859.2 684.9 851.3 706.2 854.3 728.7 844 728.1 820.1 726.5 812.3 713.2 802.7 696.6 798 680.6 797.2 669.8 799.5 656 809.3 639.9 810.1 638.6 Z" data-holc_grade="B"/>
<path d="M 1154.3 444.8 1118.3 421 1072.5 381.9 1068.5 376.6 1051.1 348.3 1046.1 343.2 1042.3 333.7 1024.2 310.4 1036.4 300.8 1041.4 296.9 1056.5 288.2 1087.6 262.9 1129.6 247.6 1169.1 336.4 1181.2 359.5 1172.4 364.9 1176.1 368.9 1200.5 383.6 1171.8 410.1 1176.9 415.2 1154.3 444.8 Z" data-holc_grade="B"/>
<path d="M 806.8 250 819.5 248 855.2 248.5 856.4 257.4 857.4 281 899.5 279.7 900.6 317.7 897.4 319.5 863.5 317.7 851.3 325.5 838.4 324.4 832.9 329.2 822.6 328.8 808.5 254.5 806.8 250 Z" data-holc_grade="B"/>
<path d="M 800.3 228.1 788 229.6 755.2 234.5 756.8 217.2 751 206.7 726.3 222 696.9 232.7 688.5 237.7 678.9 241.1 680.5 208.7 683.6 161.3 686.9 137.3 688.9 109.7 696.2 106.7 677.9 87.4 665.5 78.4 688.4 84.2 705 86.2 695.4 62.8 696.4 61.6 693.4 46.5 693.2 33.7 677.3 32.9 677.5 1 695 5.2 780.4 18.9 776.1 29.8 775.3 41.4 778.1 59 776.5 73.5 774.7 79.3 775.9 85.5 779.7 90.3 800.6 89.5 802.4 110.4 810.5 109.4 811.5 110.8 813.7 124.2 819.9 146.3 821.7 153.9 823.7 172.4 826.1 178.4 829.9 184.2 825.3 192.8 784.6 174.9 783 176.5 793.1 194.2 799.1 209.2 800.7 223.7 800.3 228.1 Z" data-holc_grade="B"/>
<path d="M 663.8 2142.6 667.3 2143.2 673.8 2145.2 692.7 2146.8 706.5 2148.3 726 2152.7 727 2160.5 690.3 2172.2 686.4 2187.8 683.6 2199.1 682.6 2204.5 682.6 2207.9 640.6 2201.5 617.6 2199.2 614.4 2200.4 617.4 2206.3 618.2 2213.7 616 2222.5 616.4 2231.4 619.2 2241.8 621.8 2265.2 613.5 2265.3 589.3 2264.5 572.3 2264.1 569.1 2204 549.4 2197.3 549.6 2190.5 548 2183.1 605.1 2192.4 611 2185.1 614.2 2173.9 615.8 2160.8 637.2 2164.9 638.7 2138.7 663.8 2142.6 Z" data-holc_grade="B"/>
<path d="M 667.6 2080.9 689.9 2083.3 686.7 2099.7 684.2 2108.7 679.7 2114.4 648.9 2110.8 636.4 2108.5 623.8 2106.3 605.9 2105.6 588.8 2102.8 592.6 2071.3 614.5 2073.4 642.4 2077.7 667.6 2080.9 Z" data-holc_grade="B"/>
<path d="M 759.8 2140.8 793.1 2107.9 803.7 2120.8 813.7 2134.8 832.2 2154.5 845.8 2165.5 854.2 2170.8 842.2 2188.8 830.3 2204.2 807.7 2186.2 781.1 2160.9 759.8 2140.8 Z" data-holc_grade="B"/>
<path d="M 894.6 2482.3 856.3 2475.5 861.5 2470.2 862.8 2422 886.6 2395.1 895.5 2379.8 903.2 2385.8 874.5 2426.4 913.6 2459 891.8 2475.1 894.6 2482.3 Z" data-holc_grade="B"/>
<path d="M 1000.3 1794.3 977.4 1838.8 971.1 1876.2 1000.8 1883.6 1024 1806.1 1022.9 1796.1 1051.6 1804.5 1078.8 1804.4 1042.7 1933.7 1034 1960.9 1010.4 1945 1004.9 1948 1008.4 1956.1 1003.9 1964.1 989.2 1990.2 983.7 2002.3 1004.2 2015.4 999.2 2023.3 982.8 2045.6 965.8 2069.5 938.2 2050 965.9 2013.3 956.2 2006.1 947.7 2003.7 935.3 1987.7 916.3 2003 904.7 2015.4 898.7 2023.2 877.2 2006.9 876.9 1984 881.5 1978 883 1956.6 887.8 1949.4 907.6 1830.9 909 1804.6 986.1 1815.3 997.7 1794.1 1000.3 1794.3 Z" data-holc_grade="B"/>
<path d="M 889.1 2302.6 907.3 2277.2 957.8 2315.1 942.8 2334.8 930.7 2334 889.1 2302.6 Z" data-holc_grade="B"/>
<path d="M 1068.4 1992.5 1051.1 2020.1 1043.6 2022.7 1033.6 2015.4 1026.5 2027 1014.9 2018.7 1014.2 2016.7 1040.6 1974.9 1068.4 1992.5 Z M 1068.4 1992.5 1075.4 1985 1124.1 2015.1 1127.1 2000.7 1114.7 1992.2 1114.4 1981.7 1042.7 1933.7 1078.8 1804.4 1089.1 1791.8 1088.5 1761.3 1090.9 1738.4 1094 1718.5 1071.9 1716.4 1075.2 1695 1062.8 1692.9 1062.5 1681.5 1030.1 1677.5 1032.6 1649.5 1057.7 1646.2 1082.8 1647.7 1120.9 1652.9 1264.4 1674.4 1252.8 1753.1 1236.1 1857.1 1245.5 1908 1160.7 2043.6 1228.2 2089.2 1219.7 2104.7 1180.4 2080.3 1162.8 2105 1147.3 2128.5 1113.7 2106.2 1119.8 2093.2 1150.1 2051.9 1124.7 2037.8 1126.8 2032.9 1068.4 1992.5 Z" data-holc_grade="B"/>
<path d="M 1271 1628.9 1224.4 1620.8 1205.7 1617.5 1125.2 1605.1 1138.2 1522.5 1286.5 1540.4 1282.8 1556.3 1276.8 1577.7 1271 1628.9 Z M 1083.1 1602.5 1084 1582.4 1046 1577.1 1046.1 1562.1 1095.3 1513.8 1117 1518.2 1116.3 1521.4 1114.8 1530.4 1111.9 1536.9 1103.5 1550.1 1098 1559.4 1091.5 1571.2 1089.1 1582.9 1086.7 1603 1083.1 1602.5 Z" data-holc_grade="B"/>
<path d="M 1400.8 1557.6 1395.5 1586.2 1383.1 1660.1 1341.8 1643.1 1271 1628.9 1276.8 1577.7 1282.8 1556.3 1317 1563 1321.5 1541.4 1321.3 1544.3 1400.8 1557.6 Z" data-holc_grade="B"/>
<path d="M 1108.2 1346.3 1106.2 1358.1 1100.4 1386.6 1095.7 1422.4 1069.9 1427.6 1015.9 1420.1 1013.2 1418.3 984.2 1413.7 963.8 1412.3 947.1 1409.6 945.3 1411.5 912.8 1406.6 911 1423.7 886.8 1420.2 884.2 1443.1 887.8 1446.6 885.4 1459.6 857.1 1464.8 865.6 1414.6 791.8 1405.3 788.2 1440 781.5 1435.6 762.8 1432.2 757.3 1471.9 756.1 1489.4 719.4 1485.6 715.1 1507.5 681 1504.9 678 1499.6 681 1476.5 681.1 1470.2 683.6 1456.9 687.6 1443.6 695.8 1398.9 698.3 1377.4 703.1 1347.5 731.8 1349.3 736.8 1349.6 772.3 1349.3 806.8 1352.1 856.2 1356.8 912.3 1365 986.6 1378.7 1005.8 1379.6 1025.4 1381.8 1042.1 1384.6 1058 1388.4 1071.3 1388.4 1083.9 1320.4 1111.5 1326 1108.2 1346.3 Z" data-holc_grade="B"/>
<path d="M 1133.2 1148.8 1130.1 1167.1 1152.5 1182.5 1138.9 1207.3 1133.6 1228.9 1152.3 1233.7 1168.6 1238.7 1191.6 1246.5 1189.1 1256.3 1232.9 1268.3 1235.7 1256.8 1274 1277.9 1276.5 1274.4 1295.9 1285.2 1315.5 1290.9 1340.5 1298.2 1340.2 1299.9 1338 1310 1156.8 1261.3 1154.5 1269.3 1093.5 1251.7 1088.2 1295.6 1083.9 1320.4 1053.2 1315.2 1053.9 1306.6 1064.3 1230.9 1019.9 1222.4 1021.1 1212 1036.8 1212.8 1071.1 1217.8 1073.3 1205.2 1074.7 1189.5 1099.3 1197.2 1101.5 1183.1 1077.4 1177.1 1079.4 1164.8 1082.5 1143.8 1133.2 1148.8 Z" data-holc_grade="B"/>
</g>
<g id="C">
<path d="M 2357.2 238.1 2353.4 241.6 2350.5 280 2350.4 280.7 2281.4 280.3 2282.5 320.1 2299.9 319.8 2303.2 357.9 2268.9 357.5 2265.6 327.6 2254.1 328.9 2252.5 281.3 2219.5 282.1 2218.5 244 2253.5 236.4 2255.5 272.5 2288.4 233.1 2297.8 233.1 2342 183.2 2342.7 176.2 2353.6 164.6 2354.1 174.7 2355.3 186.2 2357.2 238.1 Z" data-holc_grade="C"/>
<path d="M 2373.8 1469.9 2373.3 1450.3 2408.5 1449.3 2446.9 1449.7 2447.3 1375.9 2479.5 1374.9 2480 1352.3 2540 1353.2 2539.5 1373.3 2555.2 1376.8 2570.3 1389.8 2568.8 1417.4 2542.1 1418 2528.5 1415 2529 1452.6 2454.9 1456.2 2454 1491.4 2374.3 1489 2373.8 1469.9 Z" data-holc_grade="C"/>
<path d="M 2301.3 1569.9 2323.4 1585.5 2346.1 1600.3 2358.2 1602.4 2368.5 1605.4 2380.3 1605.4 2454.9 1630.1 2510.8 1648.6 2511.7 1670.6 2500.5 1670.9 2485.1 1665.2 2462.1 1659.2 2387.6 1631.3 2372.2 1625.3 2349.8 1613.8 2317.7 1606.3 2309.2 1621.7 2299.6 1621.4 2292.9 1619.9 2286.6 1620.5 2280.8 1621.1 2273.5 1619.6 2263 1615.4 2256 1611.8 2247.2 1611.2 2238.4 1612.4 2235.7 1614.8 2224 1637.5 2214.9 1629.1 2195.9 1608.7 2167.2 1575.1 2188.8 1530.5 2298.9 1577.7 2301.3 1569.9 Z" data-holc_grade="C"/>
<path d="M 2605.4 1607.8 2607 1677.7 2595.3 1696.1 2579.7 1691.3 2511.7 1670.6 2510.8 1648.6 2454.9 1630.1 2468.7 1586.6 2486.7 1542.9 2530.6 1560.3 2533.1 1606.7 2605.4 1607.8 Z" data-holc_grade="C"/>
<path d="M 2724.7 1662.7 2711.1 1685.4 2674.2 1664.9 2685.1 1650.5 2705.3 1659.5 2709.3 1655.8 2724.7 1662.7 Z M 2609.7 1673.8 2607 1677.7 2605.4 1607.8 2626.3 1608.7 2646 1620.7 2609.7 1673.8 Z" data-holc_grade="C"/>
<path d="M 2694 1767.7 2707.4 1789.3 2721.3 1813.7 2730.7 1828.5 2746.8 1866.7 2715.4 1882.2 2710.2 1885.5 2701.8 1898.2 2694.2 1904.2 2685.8 1909.9 2677 1914.8 2656.7 1915.1 2636.7 1907.9 2630.1 1896.5 2622.2 1882.6 2620.6 1874.2 2617.9 1857 2613.6 1842.5 2607.3 1829.3 2603 1819.6 2651.6 1739.1 2658.9 1743.6 2664.2 1733.3 2681.3 1748.4 2684.3 1756.2 2694 1767.7 Z" data-holc_grade="C"/>
<path d="M 2772.4 1850 2751.1 1870.6 2746.8 1866.7 2730.7 1828.5 2721.3 1813.7 2707.4 1789.3 2694 1767.7 2707.3 1752.6 2709.4 1742.6 2713 1738.1 2726.6 1714.6 2747.7 1676.6 2777.4 1694.3 2763.8 1719 2779 1727.4 2786.5 1714.2 2808.9 1719.9 2797.2 1747.6 2786.9 1765.4 2827.2 1797.9 2821.2 1808.4 2806.1 1822.6 2800.3 1822.9 2772.4 1850 Z" data-holc_grade="C"/>
<path d="M 2875.2 1722.2 2864.7 1726.6 2853.9 1760.4 2838.6 1755.2 2838.5 1741.1 2847.4 1730.3 2867.5 1711.4 2872 1701.3 2894.4 1632.2 2918.3 1640.6 2930.8 1637.3 2932.4 1630.5 2982.8 1630 2983.2 1640 2998.9 1640.4 2999 1675 2932.4 1674.3 2930.4 1681.5 2928.8 1685.9 2924.8 1681.5 2903 1697.2 2915.9 1701.2 2919.6 1706.4 2920.8 1718.1 2918.4 1732.2 2912.8 1747 2901.5 1739 2884.9 1732.6 2875.2 1722.2 Z" data-holc_grade="C"/>
<path d="M 2275.6 584.4 2157.5 585.5 2153.7 570.7 2248.6 477.4 2255.6 484.7 2239.8 500.1 2275.6 498.8 2276.4 519.6 2249.8 519 2250 564.6 2275 565 2275.6 584.4 Z" data-holc_grade="C"/>
<path d="M 1908.5 950.1 1890.9 961.4 1874.3 933.6 1874.5 921.6 1902 904 1923.1 937.8 1908.5 950.1 Z" data-holc_grade="C"/>
<path d="M 2197.2 1733.7 2193.6 1736.9 2212.2 1758.6 2182 1786.7 2069.1 1669.1 2066.5 1666.3 2087 1647.4 2133.9 1698.8 2148.4 1686.3 2197.2 1733.7 Z" data-holc_grade="C"/>
<path d="M 1658.4 2096.5 1671.9 2071.8 1684 2043.8 1687.6 2032.9 1705.5 1982.9 1722.1 1973.5 1735.2 1969.9 1752.4 1976.8 1764.5 1982.2 1768.5 1984.6 1779 1980.4 1789.6 1979.2 1799 1972.6 1812 1965.6 1818.4 1962.6 1821.7 1962.9 1837.2 1979.8 1891.1 2032.5 1922.3 2060.2 1862.9 2078.4 1835.7 2074.2 1803.6 2083.2 1748.8 2013.3 1727 2006.4 1717.3 2018.7 1706.1 2036.5 1688.3 2079 1681.6 2096.2 1658.4 2096.5 Z" data-holc_grade="C"/>
<path d="M 2149.4 1555.3 2037.6 1431.6 2101.9 1371.9 2160.2 1432.3 2181.6 1444 2197.8 1449.6 2149.4 1555.3 Z" data-holc_grade="C"/>
<path d="M 2197.8 1449.6 2181.6 1444 2160.2 1432.3 2101.9 1371.9 2167.8 1310.6 2183.5 1301 2202.1 1299.4 2222.2 1311.4 2236.4 1325 2243.2 1338.3 2243.2 1349.5 2197.8 1449.6 Z" data-holc_grade="C"/>
<path d="M 2236.4 1325 2222.2 1311.4 2211.3 1293.3 2305 1278.2 2306 1283.7 2454.2 1258 2456.8 1300.6 2364 1298.7 2359 1296.2 2288.9 1297.3 2288 1355.5 2317.7 1353.5 2316.7 1367.5 2333.4 1394.6 2298.6 1403.7 2285 1424.3 2258.3 1411.3 2260.8 1395.2 2261.8 1378.6 2259.2 1366.1 2272.3 1364.6 2271.8 1350 2260.2 1349.5 2236.4 1325 Z" data-holc_grade="C"/>
<path d="M 2570.3 1389.8 2555.2 1376.8 2539.5 1373.3 2540 1353.2 2480 1352.3 2480.5 1326.7 2456.3 1327.2 2456.8 1300.6 2454.2 1258 2605.9 1227.6 2608.4 1262.8 2608.6 1373.2 2649.9 1372.6 2651 1390.7 2649 1416.3 2626.8 1417.9 2593 1404.9 2570.3 1389.8 Z" data-holc_grade="C"/>
<path d="M 1219.7 2104.7 1211.6 2120.7 1215.5 2122.9 1075.6 2279.3 1040.7 2317.3 1012.3 2343.5 1008.9 2340.8 1014.4 2320 1011.4 2271.1 1043.8 2236.2 1036.9 2229.2 1042.6 2221.1 1018.1 2203 1023 2187.6 1004.5 2177.6 1022.1 2153.5 941.6 2103.1 953.7 2087.5 1026.9 2134.3 1074.3 2166.8 1087.7 2149.2 1113.4 2164.8 1147.3 2128.5 1162.8 2105 1180.4 2080.3 1219.7 2104.7 Z" data-holc_grade="C"/>
<path d="M 1075.2 936.6 1070.2 945.3 1044.3 989.6 1043 991.3 1005.6 1039.8 912.9 980.3 857.3 941.2 913.8 844.9 917.1 845.6 972 878 973 875.8 1014 901.1 1075.2 936.6 Z" data-holc_grade="C"/>
<path d="M 1166.8 1054.7 1212.3 1078.3 1197.2 1106.9 1172.4 1150.6 1167.4 1159.4 1153.8 1150.8 1133.2 1148.8 1082.5 1143.8 1079.4 1164.8 1073.2 1162.5 990.3 1152.4 994.8 1131.8 998.9 1103 1003.9 1079.1 1005.6 1039.8 1043 991.3 1067.7 1008.4 1074.5 1013.2 1141.6 1041.5 1166.8 1054.7 Z" data-holc_grade="C"/>
<path d="M 1212.6 970.7 1166.8 1054.7 1141.6 1041.5 1074.5 1013.2 1067.7 1008.4 1043 991.3 1044.3 989.6 1070.2 945.3 1120.4 975.8 1115.8 983.6 1143.9 999.6 1171.5 948.7 1212.6 970.7 Z" data-holc_grade="C"/>
<path d="M 1284.5 933.1 1376.9 984.4 1476.1 1039 1438.9 1106.5 1398.6 1179.4 1389.3 1196.3 1367.1 1163 1351.6 1154.8 1358.8 1139.4 1319.2 1115.8 1342.9 1069.6 1215.2 995.8 1192 1040.6 1212.8 1054.1 1207.4 1064.2 1216.6 1070.5 1212.3 1078.3 1166.8 1054.7 1212.6 970.7 1244.9 911.4 1284.5 933.1 Z M 1328.9 990.2 1303.5 973.6 1290.5 996.2 1282.9 992.9 1277.5 1006.1 1313.1 1026.9 1321.3 1012.5 1319.5 1004.6 1328.9 990.2 Z" data-holc_grade="C"/>
<path d="M 1438.9 1106.5 1476.1 1039 1497.1 1003.9 1525.8 954 1586.8 911.9 1623.4 957.3 1638 978 1646.2 1001.6 1650.5 1012.7 1657.3 1030.1 1574.6 1064.3 1589.1 1095.6 1544.6 1085.5 1507.8 1061.4 1468.2 1124 1438.9 1106.5 Z" data-holc_grade="C"/>
<path d="M 969.3 810.8 968.3 807.9 967.6 799.3 946.6 793.8 952.9 781.5 979.6 733.9 984 738.9 993.6 749.7 998.3 756.5 1011.1 767.2 1036.4 787.9 1042.4 792.9 1054.6 803.6 1043.8 803.7 1029 804.3 1004.9 806.1 992.7 831.5 982.8 825.7 975.4 819.2 970.2 813.2 969.3 810.8 Z M 1001.1 708 1018.4 681.2 1046.7 635.3 1063.3 611 1078.2 579.2 1092 552.9 1103.9 533.8 1111.2 523 1130.8 483.4 1141.4 462.9 1142.8 460.9 1155.5 478.1 1121.5 535.2 1111 547.4 1097.7 577.9 1088.9 604.4 1060 650.8 1052.5 688.9 1044 704 1033.6 727.6 1001.1 708 Z" data-holc_grade="C"/>
<path d="M 377.1 1925.2 381.3 1899 386.4 1863.4 388.4 1839 393.7 1809.1 405.6 1807.4 420 1802.9 426.5 1798.9 440.8 1798.2 440.5 1808.3 463.2 1803.8 492.7 1803.8 494.2 1793.8 515.4 1791.8 540.1 1794.6 544.2 1762.9 570.2 1767 588.4 1767.5 597.2 1767 603.7 1782.6 605.7 1793.4 609.2 1808.5 628.1 1854.7 554.5 1847.1 552.9 1858.9 487.9 1852.8 491.2 1841.7 478.6 1843 457.6 1852.5 453 1890.7 444.4 1931.1 377.1 1925.2 Z M 1090.9 1738.4 1088.5 1761.3 1089.1 1791.8 1078.8 1804.4 1051.6 1804.5 1022.9 1796.1 1000.3 1794.3 997.7 1794.1 998.9 1792 1013.1 1766 1018.4 1728.1 1021.5 1716.8 1024.5 1706 1046.1 1709.5 1037.8 1749.9 1065.5 1753.2 1069.8 1736.2 1090.9 1738.4 Z" data-holc_grade="C"/>
<path d="M 435.6 1998.3 449.4 1999.3 473.7 2003.2 488.9 2005.1 483.1 2022 480.8 2034.1 479.7 2042.4 481.1 2056.6 473.5 2055.1 450.3 2057.8 428.1 2060.8 432.7 2046.4 436.1 2015.2 435.6 1998.3 Z" data-holc_grade="C"/>
<path d="M 273.5 1743.7 269.1 1746.5 259.8 1750.9 263.4 1758.3 246.9 1762.7 254.5 1776.8 238 1774 221.6 1769.9 205.1 1779.3 197.8 1785.8 185.7 1805.6 172.6 1797.9 156 1796.6 151.4 1795.3 147.9 1791.1 146.1 1785 142.1 1784.8 148.4 1743.6 150.8 1727.8 153.4 1697.4 159.2 1688.4 162.5 1678.1 165.5 1665 213.2 1663.6 220.1 1662.9 237.1 1661.1 239.2 1637.8 248 1637.6 247.6 1647.6 265.9 1648.7 285.9 1652.9 283.7 1659.2 282.4 1670.8 274.7 1727.2 273.5 1743.7 Z" data-holc_grade="C"/>
<path d="M 239 1510.5 292.2 1520.9 295.5 1501.4 298.5 1502 304 1503.2 305.5 1515.8 304.5 1531.5 300.9 1547.2 298.1 1561.6 290.9 1573.1 280.8 1584 273.1 1592.2 253.1 1623.5 248 1637.6 239.2 1637.8 237.1 1661.1 220.1 1662.9 222.9 1643 227.7 1623.4 230.2 1611.4 231 1602.9 230.5 1601.3 199.5 1610.8 188.1 1612.3 191.4 1598 152.9 1592.4 151.1 1606.2 122.6 1600.9 109 1599.1 137.3 1492.4 149.1 1492.7 239 1510.5 Z" data-holc_grade="C"/>
<path d="M 1383.1 1660.1 1338.7 1923.5 1271.2 1913.4 1228.2 2089.2 1160.7 2043.6 1245.5 1908 1236.1 1857.1 1252.8 1753.1 1264.4 1674.4 1271 1628.9 1341.8 1643.1 1383.1 1660.1 Z" data-holc_grade="C"/>
<path d="M 288.8 1589.1 280.8 1584 290.9 1573.1 298.1 1561.6 300.9 1547.2 304.5 1531.5 305.5 1515.8 304 1503.2 298.5 1502 301 1463.7 300.7 1441.4 336.1 1441.8 355.8 1442.4 360.5 1442.9 388.2 1445.5 385.1 1487.9 423.8 1492.5 422.8 1520.5 435.5 1523.6 434 1546.8 454.9 1549.5 451.8 1576.6 405.8 1572.3 384.3 1569.9 378.9 1586.8 371.6 1601.5 348.6 1611.1 335.3 1609.3 312.9 1600.2 288.8 1589.1 Z M 1022.9 63.3 1164.5 99.4 1179 161.7 1108 161.7 1062.7 163.2 1046.1 165.9 1054.3 109.6 1054.6 88.6 1023.8 89.1 1022.9 63.3 Z" data-holc_grade="C"/>
<path d="M 618.5 1697.1 617.8 1700.7 593 1707.3 575.7 1706.4 563 1701.5 554.6 1693.7 562.3 1654.6 564.9 1633.1 571.2 1599.5 598 1604 629.2 1605.7 643.6 1591.4 649.4 1588.9 639.4 1618.8 630.6 1651.3 623.9 1668.2 618.5 1697.1 Z" data-holc_grade="C"/>
<path d="M 598 1604 571.2 1599.5 564.9 1633.1 562.3 1654.6 554 1655.2 534.6 1653.5 519.1 1650.3 498.7 1643.4 483.4 1636.2 473.3 1631 472.9 1623.9 473.3 1621.2 479.3 1574.1 487.8 1564.7 479.5 1549 481.5 1532.1 498.9 1533.4 502.9 1527.1 502.4 1484.3 504.6 1484.3 505.8 1472.1 505.9 1454.8 520 1453.5 520.1 1489.8 519.5 1509.5 531.6 1510.1 546.7 1512.1 582.8 1508.6 579.2 1531.7 571.9 1568.4 586.2 1571.4 605.5 1565.2 598 1604 Z" data-holc_grade="C"/>
<path d="M 285.6 1123.4 266.5 1124.3 267.1 1089.9 238.8 1091.1 250 1049.5 285.3 1048.3 285.6 1123.4 Z" data-holc_grade="C"/>
<path d="M 294.1 862.6 322.6 852 329.2 860.5 348.8 861.2 347.6 894.6 344.7 931 286.7 929.3 279.1 928.3 294.1 862.6 Z" data-holc_grade="C"/>
<path d="M 457.7 921.3 461.2 921.9 456.5 953.6 455.4 968 454 973.1 446.7 970.4 440.1 963.8 438.1 959.5 437.1 952.1 439 941.9 438.4 937 436.1 931.3 435.2 925.9 438.4 921.8 440.7 918.3 457.7 921.3 Z" data-holc_grade="C"/>
<path d="M 704.9 1036.2 633.6 1024.3 635.9 1011.5 635.4 994.4 661.1 1015.3 734.1 1025.6 733.6 1040.2 704.9 1036.2 Z" data-holc_grade="C"/>
<path d="M 854.3 728.7 909.8 758.6 934.4 771.9 897.1 835 913.8 844.9 857.3 941.2 835.9 969.5 797.9 1033.2 749 1027.4 754 981.9 747.9 980.1 718.9 976.1 719.2 965.6 725.5 959.5 720.8 946 720.9 941 723.3 899.3 730.2 899.3 730.5 897.2 776.4 908.9 776.9 896.9 790.8 868.3 807.7 844.7 816.8 834.5 809.2 829.4 818.6 784.1 808 778.5 799.9 823.4 757.4 796 746 816.3 744.5 829.6 733.6 873 698.2 862.9 696 862.8 692.2 862.7 683 859.3 658.5 850.1 645.8 849.2 644.2 825.8 669.2 830.2 703.9 836.3 710.8 796.8 685.8 778.3 698.5 754.2 727.7 775.5 728.1 770.3 727.3 749.8 745.1 748.8 763.2 750.1 797.8 767.7 819.8 780.8 823.4 760.9 823.8 745.1 834.9 750.5 844 728.1 854.3 728.7 Z" data-holc_grade="C"/>
<path d="M 1024.2 310.4 1042.3 333.7 1046.1 343.2 1051.1 348.3 1068.5 376.6 1072.5 381.9 1118.3 421 1154.3 444.8 1142.8 460.9 1141.4 462.9 1130.8 483.4 1111.2 523 1103.9 533.8 1092 552.9 1078.2 579.2 1063.3 611 1046.7 635.3 1018.4 681.2 1001.1 708 999.3 710.8 987.9 720.8 979.6 733.9 952.9 781.5 949.5 781.3 956.6 764 960.9 747.9 963.6 734.6 962.6 717.8 963.9 711.5 964.9 705.3 963.2 694.2 957.4 677.2 942.3 646.3 933.2 624 927.5 611.7 922.2 604.7 911.1 598.1 904.6 597.6 895.5 597.1 881.6 597.6 865 629.7 857.2 624.2 843.4 613.4 837.8 607.9 832 599.1 838.5 588.8 849.1 573.2 870.3 535.1 883.4 512.8 892.4 496.8 928.2 513.7 978.1 542 985 526.6 994.9 511.5 1003.4 495.9 1017.9 470.4 1003.6 463.8 963.3 442.1 932.3 426 976.6 347.2 986.4 342.5 1024.2 310.4 Z M 1024.2 310.4 995.7 291.2 998.8 247 1008.5 247.3 1024.4 246.2 1024.1 242.2 1026.9 226 1057.5 223.6 1064.4 224.4 1061 238.2 1060.7 260.1 1043.9 259.8 1042 278.3 1039.5 281.1 1036.4 300.8 1024.2 310.4 Z" data-holc_grade="C"/>
<path d="M 1068.4 1992.5 1040.6 1974.9 1014.2 2016.7 1006.5 2011.9 1034 1960.9 1042.7 1933.7 1114.4 1981.7 1114.7 1992.2 1127.1 2000.7 1124.1 2015.1 1075.4 1985 1068.4 1992.5 Z" data-holc_grade="C"/>
<path d="M 446.7 573.8 417.9 552.1 392.1 536.7 381 530.4 376.5 537.8 361.2 534.1 370.6 480.5 384.8 424.6 391.8 394.8 448 396.1 447.5 409.9 442.6 427.7 429.1 427.4 436.5 505.2 471.7 510.7 463.1 534.8 460.1 549.1 451.8 567.1 446.7 573.8 Z" data-holc_grade="C"/>
<path d="M 562.1 312.3 576.7 302 620 283 648.5 267 649.3 251.5 678.9 241.1 688.5 237.7 696.9 232.7 726.3 222 751 206.7 756.8 217.2 755.2 234.5 788 229.6 800.3 228.1 796 252.9 791.7 269.9 786.9 304.3 779.8 338.3 773.2 361.4 767.2 353.9 755.6 346.6 744.6 341.1 740.4 339.8 744.8 332.9 753.2 304.6 754.8 286.3 727.9 281.8 690.9 276.8 683.6 276.7 668.2 283.5 664.4 287.5 664.8 295.9 668.3 316.9 674.2 341.9 678.5 356.4 693.4 355.6 740.6 348.6 724.4 379.4 721.1 378.1 638.8 394.9 622.7 399.1 619.6 413.4 618.9 422.7 608.5 449.7 606.5 451.2 604 462 583.3 457 582.1 468 587.1 477.8 582.2 477.6 554.6 477.2 472.3 476.4 478.1 430 492 432.3 504.6 406 548.1 445.6 552.9 438.4 544.6 427.6 542.6 394.7 578.1 396.8 562.1 312.3 Z" data-holc_grade="C"/>
<path d="M 678.9 241.1 649.3 251.5 650.9 221.8 649.4 183.7 649.8 138.8 612.8 138.8 614 121.9 611.2 100.1 611.2 70.5 614.3 36.5 680.4 58.3 684.9 77.1 688.4 84.2 665.5 78.4 677.9 87.4 696.2 106.7 688.9 109.7 686.9 137.3 683.6 161.3 680.5 208.7 678.9 241.1 Z" data-holc_grade="C"/>
<path d="M 527.9 119.7 528.1 129.4 525.9 136.2 526.1 165.5 503.4 164.2 486.1 161.5 472.5 160.4 473.3 114.9 471 75.3 473.9 59.8 480.4 22.6 529.6 37.9 526.7 61.3 526.4 80 528.3 99.1 527.9 119.7 Z" data-holc_grade="C"/>
<path d="M 543 286.9 543.3 297.9 542.5 304.4 497.7 299.3 499 268.5 510.2 254.5 514.6 260 537.8 281.1 543 286.9 Z" data-holc_grade="C"/>
<path d="M 825.3 192.8 829.9 184.2 826.1 178.4 823.7 172.4 821.7 153.9 819.9 146.3 813.7 124.2 811.5 110.8 810.5 109.4 802.4 110.4 800.6 89.5 779.7 90.3 775.9 85.5 774.7 79.3 776.5 73.5 778.1 59 775.3 41.4 776.1 29.8 780.4 18.9 897.9 35.3 941.9 43.1 939.4 88.4 852.3 86.8 859.6 123.9 843.7 124.2 849.5 143.2 848.7 173.1 855 207.9 825.3 192.8 Z" data-holc_grade="C"/>
<path d="M 328.8 1963.1 370.4 1969.6 369.1 1983.1 367.9 2007.8 361.9 2007 308.7 1996.2 269.2 1987.7 270.6 1978.4 271.5 1954.9 320.2 1961.7 328.8 1963.1 Z" data-holc_grade="C"/>
<path d="M 689.9 2083.3 667.6 2080.9 672.8 2051.2 675.1 2023.2 678.1 1965 607.7 1957.5 615.1 1880.7 638.8 1882.5 660.5 1932.3 686.5 1963.4 723.4 2012 735 2028.4 757.3 2061.5 749.3 2068.9 737.5 2077 726.2 2082.7 713 2087.1 701.4 2085.8 689.9 2083.3 Z" data-holc_grade="C"/>
<path d="M 727 2160.5 726 2152.7 706.5 2148.3 692.7 2146.8 673.8 2145.2 667.3 2143.2 663.8 2142.6 674.6 2120.1 693.5 2123.7 712.4 2126.4 725.7 2127.1 729.4 2122 734.2 2117.2 739.5 2125.8 748.6 2148.1 732.4 2157.7 727 2160.5 Z" data-holc_grade="C"/>
<path d="M 549.4 2197.3 569.1 2204 572.3 2264.1 549.5 2262.9 551.1 2249.2 550.5 2236.5 538.5 2198.5 549.4 2197.3 Z" data-holc_grade="C"/>
<path d="M 618.5 1697.1 623.9 1668.2 630.6 1651.3 639.4 1618.8 649.4 1588.9 667.1 1538.7 692.5 1524.9 709.7 1520.1 738.5 1508.5 731 1518.7 733.4 1555.7 723.5 1567.1 688.4 1620.5 683.3 1625.1 670.6 1628.1 660.7 1633.3 657.7 1642 658.3 1651.2 652.8 1666.1 683.1 1669.7 680.2 1684.6 679.4 1701.5 677.2 1722.1 671.9 1744.2 669.1 1761.5 666.4 1779.4 661.5 1809.7 662.5 1819.2 668.8 1832.6 650.2 1842.5 637.3 1824.6 629.3 1808.7 625.8 1799 625.3 1790.4 604.3 1743.6 621.1 1727.3 635.6 1708.2 630.8 1691.8 618.5 1697.1 Z" data-holc_grade="C"/>
<path d="M 1011.4 2271.1 1014.4 2320 1008.9 2340.8 1006.3 2348 1007.5 2360 1010.8 2367 1025.4 2375.7 1031.4 2377.2 1031.4 2381.5 1032 2390.2 1035.3 2397.8 1041.7 2404.4 1055.9 2411.3 1067.4 2414.3 1038 2435.8 1024.7 2457.5 1020.2 2500.5 1014.2 2523.8 1010.9 2541.1 1010.9 2562.9 890.6 2533.8 896.2 2516.9 903.1 2484.7 894.6 2482.3 891.8 2475.1 913.6 2459 874.5 2426.4 903.2 2385.8 895.5 2379.8 886.6 2395.1 862.8 2422 808.7 2409.9 889.1 2302.6 930.7 2334 942.8 2334.8 957.8 2315.1 907.3 2277.2 944.5 2228.6 952.2 2239.5 1006.3 2259.2 1011.4 2271.1 Z" data-holc_grade="C"/>
<path d="M 738.5 1508.5 709.7 1520.1 692.5 1524.9 667.1 1538.7 666.1 1533.2 681 1504.9 715.1 1507.5 719.4 1485.6 756.1 1489.4 757.3 1471.9 762.8 1432.2 781.5 1435.6 788.2 1440 791.8 1405.3 865.6 1414.6 857.1 1464.8 837.4 1469 824 1474.4 789.7 1488.8 738.5 1508.5 Z" data-holc_grade="C"/>
<path d="M 1046.1 1562.1 1046 1577.1 1042 1597.8 1032.6 1649.5 1030.1 1677.5 992 1672.8 994.5 1641.1 998.1 1641.1 1004.5 1587.8 983.9 1585.4 977.2 1640.8 878.3 1630.2 882.1 1616.3 871.2 1607.9 883.3 1539.8 858.5 1536.2 835.5 1531.3 819.8 1524.1 814.4 1507.2 851.9 1477.4 851.9 1485.5 869.1 1488.3 870.7 1472.3 973.2 1463 971.7 1475.4 1055.2 1495.3 1056.4 1484.5 1061.8 1483 1063.1 1480.6 1093.9 1483.9 1099.7 1488.1 1073.3 1512.5 1056.1 1509.5 1047.9 1553.5 1001.6 1544.7 998 1578.1 1046.1 1562.1 Z M 1013.2 1418.3 1011.6 1434 981.4 1430 979 1444.7 885.4 1459.6 887.8 1446.6 884.2 1443.1 886.8 1420.2 911 1423.7 912.8 1406.6 945.3 1411.5 947.1 1409.6 963.8 1412.3 984.2 1413.7 1013.2 1418.3 Z" data-holc_grade="C"/>
<path d="M 1400.8 1557.6 1439.7 1563.2 1511.3 1588 1508.7 1611.1 1495.9 1617.4 1433.9 1597.1 1433.6 1591.8 1395.5 1586.2 1400.8 1557.6 Z M 1400.8 1557.6 1321.3 1544.3 1321.5 1541.4 1323.1 1526.2 1290.1 1520.5 1286.5 1540.4 1138.2 1522.5 1117 1518.2 1095.3 1513.8 1117.7 1487.7 1145.1 1492.5 1289.6 1509.7 1345.4 1520.2 1405.4 1529 1400.8 1557.6 Z" data-holc_grade="C"/>
<path d="M 1095.7 1422.4 1100.4 1386.6 1106.2 1358.1 1108.2 1346.3 1169.1 1348.9 1158.5 1389.4 1155 1397.1 1156.5 1409.7 1095.7 1422.4 Z" data-holc_grade="C"/>
<path d="M 1338 1310 1337.3 1314.6 1332.2 1327.9 1328.7 1339.9 1180.5 1302.2 1176.2 1318.3 1088.2 1295.6 1093.5 1251.7 1154.5 1269.3 1156.8 1261.3 1338 1310 Z" data-holc_grade="C"/>
</g>
<g id="D">
<path d="M 2275.9 600.2 2275.6 584.4 2275 565 2276.4 519.6 2275.6 498.8 2276.5 430.8 2287.1 431.1 2301.3 432.3 2317 431.1 2318.9 514.1 2344.3 513.5 2344.3 532.4 2334.9 534.3 2334.6 543 2282.7 544.2 2281.8 564.1 2303.8 563.8 2296 592.7 2323.5 592.6 2325 605.9 2274 634.8 2275.9 600.2 Z" data-holc_grade="D"/>
<path d="M 1988.2 1479.5 1940.2 1527.4 1917 1545.2 1892.1 1519.3 1882.4 1503.6 1877.9 1493.6 1878.3 1480.3 1880 1472.3 1889.6 1462.6 1904.1 1449.4 1915 1436.1 1926.3 1426.9 1934.8 1421.7 1988.2 1479.5 Z" data-holc_grade="D"/>
<path d="M 2149.4 1555.3 2164 1571.3 2167.2 1575.1 2195.9 1608.7 2214.9 1629.1 2224 1637.5 2225.8 1639.2 2198.4 1666.5 2205.6 1677.3 2184.3 1693.4 2114.9 1618.9 1988.2 1479.5 2037.6 1431.6 2149.4 1555.3 Z" data-holc_grade="D"/>
<path d="M 2114.9 1618.9 2087 1647.4 2066.5 1666.3 2069.1 1669.1 2060.9 1675.7 2119.4 1743.5 2111.9 1750.5 2086.6 1722.9 2072.5 1736 2067 1739 2030.7 1701.7 2002.8 1725 1934.6 1652.3 1954.8 1632.6 1913.2 1581.6 1914 1547.5 1917 1545.2 1940.2 1527.4 1988.2 1479.5 2114.9 1618.9 Z" data-holc_grade="D"/>
<path d="M 2197.2 1733.7 2215.7 1716.8 2223.8 1723.8 2251.6 1757.9 2296.5 1808.1 2284.4 1818.7 2296.5 1840.8 2326.8 1878.4 2351.1 1914.1 2317.8 1937.2 2276 1974.9 2248.3 1997.1 2236.6 1984.5 2214.9 1959.4 2208.9 1951.4 2174 1910.7 2156.3 1887.6 2188.6 1863 2072.5 1736 2086.6 1722.9 2111.9 1750.5 2119.4 1743.5 2060.9 1675.7 2069.1 1669.1 2182 1786.7 2212.2 1758.6 2193.6 1736.9 2197.2 1733.7 Z M 2294.7 1910 2280.8 1891.7 2271.2 1882.1 2266.1 1877.1 2258.3 1861.6 2242.1 1841.5 2225.2 1856.8 2281.6 1921.3 2294.7 1910 Z M 2288.9 1924.6 2273.5 1936.4 2266.9 1931.6 2248.5 1947.5 2268.7 1971.3 2305.3 1941.6 2288.9 1924.6 Z" data-holc_grade="D"/>
<path d="M 1849.4 1698.2 1858.4 1656.7 1901.3 1669 1976 1749.4 1967.2 1779.2 1897.8 1710.7 1849.4 1698.2 Z" data-holc_grade="D"/>
<path d="M 2605.9 1227.6 2454.2 1258 2306 1283.7 2305 1278.2 2300.9 1238 2347.3 1203.4 2397.6 1173.7 2434.4 1138.5 2472.6 1093.3 2502.3 1067.7 2526 1058.1 2522.5 1053.1 2571.9 1056 2601.1 1058.5 2599.1 1096.7 2602.7 1134.8 2595.1 1136.3 2605.9 1227.6 Z" data-holc_grade="D"/>
<path d="M 2058.7 760.6 2058.7 701.7 2102.2 656.3 2072.2 623.4 2083.5 611.4 2100.1 624.7 2153.7 570.7 2157.5 585.5 2275.6 584.4 2275.9 600.2 2155 600.5 2151.5 612.1 2144.5 621.4 2123.6 643 2155.3 679.5 2146 692.8 2150.3 700.6 2132.4 711.2 2065 712 2065.2 722.2 2121.4 721.7 2122.2 759.6 2058.7 760.6 Z" data-holc_grade="D"/>
<path d="M 2158.7 458.9 2116.9 499.4 2116.8 499.3 2043.1 574.2 2010.2 608.9 2050.4 651.9 2021.4 682.6 1981.8 643.5 2003.8 619.4 1991.4 604.7 2087.5 506.8 2081.7 501.7 2142.1 437.9 2143.6 420.4 2152.6 420.7 2154.7 393.9 2192.5 393.9 2192.5 420.1 2158.7 458.9 Z" data-holc_grade="D"/>
<path d="M 2022.5 491.9 2022.8 519.5 2010.9 519 2010.2 531 2015.2 530.5 2015 550.6 1923.4 554.4 1924.4 578 1953.3 577.7 1951.8 606.8 1932.7 607.1 1933 630.6 1888.6 630.2 1889.1 555.2 1865.2 553.7 1865.4 533.9 1868.7 516.8 1874 520.1 1886.6 523.6 1888.1 513.3 1887.6 507 1891.8 494.8 1907.7 477.7 1927.3 466.7 1951.5 513 1956.1 513.8 1956.8 487.2 1965.9 486.9 1969.6 467.4 2022.5 462.8 2022.5 491.9 Z M 2112.6 440.5 2093 463.8 2084.7 459 2082.6 454.5 2081 445 2092.4 419 2098.6 423 2112.6 440.5 Z" data-holc_grade="D"/>
<path d="M 2058.7 760.6 2058.8 866.7 2029.8 870.5 2010.9 872.3 1978.4 866.8 1977.2 851.7 1944.4 852.8 1981.3 702.2 2036.2 703 2058.7 701.7 2058.7 760.6 Z" data-holc_grade="D"/>
<path d="M 1908.5 950.1 1923.1 937.8 1902 904 1874.5 921.6 1874.3 933.6 1873 1005.6 1844.3 1004.4 1840.8 939.9 1871.7 918.6 1874.5 871.1 1919.8 875.6 1926.4 877.9 1933.7 893.4 1931.9 904 1931.7 915 1932.7 928.1 1931.9 936.8 1937 963.9 1939.8 983.7 1908.5 950.1 Z M 1932.2 770.7 1925.2 801 1936.7 804.8 1923.8 861 1849 836.7 1862.5 782.2 1903.8 795.2 1911.7 765.7 1932.2 770.7 Z" data-holc_grade="D"/>
<path d="M 1800.5 1057.3 1991.2 1055.2 1991.8 1103.6 1884.2 1208.4 1825.5 1211.4 1818.9 1169.7 1814.4 1125.8 1811.4 1103.7 1800.5 1057.3 Z" data-holc_grade="D"/>
<path d="M 1944.2 1183.2 1995.6 1134.8 2015.5 1153.8 1961.3 1206.3 1944.2 1183.2 Z" data-holc_grade="D"/>
<path d="M 2101.9 1371.9 2037.6 1431.6 1988.2 1479.5 1934.8 1421.7 1930.3 1413.6 2027.9 1357.3 2066.2 1334.8 2036.3 1303.9 2104.8 1240.8 2167.8 1310.6 2101.9 1371.9 Z" data-holc_grade="D"/>
<path d="M 1067.4 2414.3 1055.9 2411.3 1041.7 2404.4 1035.3 2397.8 1032 2390.2 1031.4 2381.5 1031.4 2377.2 1025.4 2375.7 1010.8 2367 1007.5 2360 1006.3 2348 1008.9 2340.8 1012.3 2343.5 1040.7 2317.3 1075.6 2279.3 1215.5 2122.9 1211.6 2120.7 1219.7 2104.7 1228.2 2089.2 1271.2 1913.4 1338.7 1923.5 1368.3 1927.9 1335.6 1965.5 1329.2 1996.8 1258.6 2131.6 1266.8 2138.2 1251.3 2145.1 1244.7 2152.1 1149.6 2255.2 1138.3 2345.9 1129.2 2373.4 1090.4 2415.3 1071.1 2415.3 1067.4 2414.3 Z" data-holc_grade="D"/>
<path d="M 1669.8 1258.1 1561.9 1226.5 1552.8 1226.2 1513.5 1215.7 1469 1204.2 1465.1 1204.2 1398.6 1179.4 1438.9 1106.5 1468.2 1124 1507.8 1061.4 1544.6 1085.5 1589.1 1095.6 1574.6 1064.3 1657.3 1030.1 1732.2 1213.8 1710.1 1219 1704.7 1253 1686 1248.5 1683.2 1259 1669.8 1258.1 Z" data-holc_grade="D"/>
<path d="M 288.8 1589.1 294.1 1592.5 326.7 1618.8 341.8 1654.2 340.4 1659.8 334.1 1704.6 323.8 1702.4 320.8 1716 277.8 1741.1 273.5 1743.7 274.7 1727.2 282.4 1670.8 283.7 1659.2 285.9 1652.9 265.9 1648.7 247.6 1647.6 248 1637.6 253.1 1623.5 273.1 1592.2 280.8 1584 288.8 1589.1 Z" data-holc_grade="D"/>
<path d="M 506.3 1389.6 515.6 1392.3 512.3 1402.7 509.1 1411.8 508.1 1421.2 505.9 1434.8 504.4 1454.6 505.9 1454.8 505.8 1472.1 504.6 1484.3 502.4 1484.3 476.3 1483.9 477.4 1449.8 472.1 1443.6 472.4 1426.1 475 1384.2 477.4 1382.8 506.3 1389.6 Z" data-holc_grade="D"/>
<path d="M 388.2 1445.5 360.5 1442.9 371 1429.9 373.3 1415.4 372.6 1387.6 405.1 1389.9 421.6 1391.1 417.3 1434.4 397.5 1431.9 395.9 1446.3 388.2 1445.5 Z" data-holc_grade="D"/>
<path d="M 457.7 921.3 440.7 918.3 439.4 918.1 411.6 913.9 414.7 870.1 437 874.8 461.5 877.9 457.7 921.3 Z" data-holc_grade="D"/>
<path d="M 322.6 852 294.1 862.6 305.4 811.6 341.4 801.6 341.1 828.1 340.1 848.7 330.4 849.3 322.6 852 Z" data-holc_grade="D"/>
<path d="M 649.3 251.5 648.5 267 620 283 576.7 302 562.1 312.3 555.1 300.2 543 286.9 537.8 281.1 514.6 260 510.2 254.5 493.8 234.4 485.5 213.6 483.2 211.3 476.2 191 472.5 160.4 486.1 161.5 503.4 164.2 526.1 165.5 525.9 136.2 528.1 129.4 527.9 119.7 542.2 124.2 554.8 125.5 569.2 125.2 614 121.9 612.8 138.8 649.8 138.8 649.4 183.7 650.9 221.8 649.3 251.5 Z" data-holc_grade="D"/>
<path d="M 1383.1 1660.1 1395.5 1586.2 1433.6 1591.8 1433.9 1597.1 1495.9 1617.4 1508.7 1611.1 1511.3 1588 1439.7 1563.2 1400.8 1557.6 1405.4 1529 1345.4 1520.2 1289.6 1509.7 1145.1 1492.5 1117.7 1487.7 1146.4 1458.4 1147.8 1457.1 1149.6 1479.2 1238.4 1488.4 1241.3 1465.3 1249.1 1448.5 1256.2 1408.1 1699.1 1521.2 1715.7 1534.9 1681.2 1607.2 1641.7 1692 1622.1 1725.5 1590.4 1764.1 1552.7 1713.7 1534.8 1741.8 1520 1728.8 1474.2 1710.5 1465.8 1765.3 1458.7 1813.8 1469.4 1812.1 1514.6 1777.8 1545.1 1812.1 1493 1851.3 1487.2 1845.3 1471.6 1857 1464.2 1850.7 1454.3 1855.1 1446 1854.5 1444.2 1858.8 1407.5 1917 1394.1 1927.9 1388.3 1928.7 1385.5 1927.7 1399 1853.1 1396 1852.5 1395.2 1850.1 1403.6 1840.7 1407.1 1838.7 1428.6 1821.2 1391.3 1814.3 1384.1 1851.1 1378.4 1850.9 1374 1883.9 1379 1893.1 1376.8 1905.6 1377 1908.8 1377.8 1911.6 1380.2 1913.6 1368.3 1927.9 1338.7 1923.5 1383.1 1660.1 Z" data-holc_grade="D"/>
<path d="M 1147.8 1457.1 1146.4 1458.4 1141.1 1459.1 1108.6 1462.1 1091 1457.4 1095.7 1422.4 1156.5 1409.7 1209.5 1400.2 1147.8 1457.1 Z" data-holc_grade="D"/>
<path d="M 1156.5 1409.7 1155 1397.1 1158.5 1389.4 1169.1 1348.9 1180 1344.7 1247.8 1361 1209.5 1400.2 1156.5 1409.7 Z" data-holc_grade="D"/>
<path d="M 1364.7 1256.6 1356.6 1271.5 1350.1 1276.5 1323.5 1262.5 1316.7 1272.2 1323 1278 1315.5 1290.9 1295.9 1285.2 1276.5 1274.4 1274 1277.9 1235.7 1256.8 1232.9 1268.3 1189.1 1256.3 1191.6 1246.5 1168.6 1238.7 1152.3 1233.7 1133.6 1228.9 1138.9 1207.3 1152.5 1182.5 1167.4 1159.4 1172.4 1150.6 1262.9 1199.3 1338 1241 1364.7 1256.6 Z" data-holc_grade="D"/>
<path d="M 1389.3 1196.3 1364.7 1256.6 1338 1241 1262.9 1199.3 1172.4 1150.6 1197.2 1106.9 1212.3 1078.3 1216.6 1070.5 1207.4 1064.2 1212.8 1054.1 1192 1040.6 1215.2 995.8 1342.9 1069.6 1319.2 1115.8 1358.8 1139.4 1351.6 1154.8 1367.1 1163 1389.3 1196.3 Z" data-holc_grade="D"/>
<path d="M 1328.9 990.2 1319.5 1004.6 1321.3 1012.5 1313.1 1026.9 1277.5 1006.1 1282.9 992.9 1290.5 996.2 1303.5 973.6 1328.9 990.2 Z" data-holc_grade="D"/>
<path d="M 1328.7 1339.9 1332.2 1327.9 1337.3 1314.6 1338 1310 1340.2 1299.9 1378.3 1310.3 1432.5 1325.4 1450.4 1328.6 1478.4 1335.9 1471.6 1362 1393.7 1364.3 1340.8 1365.8 1322.9 1361 1328.7 1339.9 Z" data-holc_grade="D"/>
<path d="M 1356.6 1271.5 1364.7 1256.6 1389.3 1196.3 1398.6 1179.4 1465.1 1204.2 1469 1204.2 1513.5 1215.7 1552.8 1226.2 1561.9 1226.5 1669.8 1258.1 1663.2 1282.8 1645 1280.4 1636 1301.5 1628.7 1301.5 1623.3 1313 1613.3 1309.6 1611.5 1318.1 1510.7 1294 1509.5 1313.9 1362.6 1274.4 1356.6 1271.5 Z" data-holc_grade="D"/>
</g>
</svg>