<?xml version="1.0"?>
<svg xmlns="http://www.w3.org/2000/svg" version="1.2" baseProfile="tiny" width="3000" height="3484" viewBox="0 0 3000 3484" stroke-linecap="round" stroke-linejoin="round">
<g id="A">
<path d="M 1927.8 2862.2 1862.1 2828.7 1814.5 2801.8 1781.7 2784.3 1732.8 2842.4 1702.7 2828.7 1671.7 2812.4 1700.9 2779.9 1729.3 2749.5 1738.1 2738.8 1742 2734.1 1755.4 2740.6 1756.5 2743.2 1776.7 2754.6 1789 2738.9 1806.3 2748.7 1819.1 2745.2 1849.1 2707.7 1950.3 2762.6 1946.6 2769.1 1990.7 2788.4 1938.2 2844.5 1927.8 2862.2 Z" data-holc_grade="A"/>
<path d="M 2199.9 608.3 2122.6 588.5 2041.4 568.1 2036 563.5 2172.4 511.9 2223.1 496.5 2218.3 515.9 2216.9 536.4 2199.9 608.3 Z" data-holc_grade="A"/>
<path d="M 1288.5 1584.9 1291.4 1568.9 1306.1 1505.9 1309.2 1494.8 1340.7 1498.1 1324.9 1588.6 1323.9 1613.9 1316 1638.1 1296.6 1697 1285.1 1768.3 1279.9 1796.5 1265.3 1833.7 1215.5 1831.3 1228.2 1820 1236.9 1808.4 1240 1801.6 1245.8 1774.4 1258.9 1720.4 1266.2 1679.4 1273.6 1662.2 1287.4 1631.2 1286.7 1594.7 1288.5 1584.9 Z" data-holc_grade="A"/>
<path d="M 699.7 2406.1 683.1 2401.3 663 2388.7 644.2 2390 637.3 2421.4 605.8 2417.7 601.9 2433 593.6 2432 564.4 2429.8 557.4 2424.1 552.5 2415.9 549.3 2396.2 545.2 2385 534.7 2379.3 558.8 2362.9 579 2342.7 598.3 2324.4 660.1 2330.7 680 2332 712.5 2335.6 699.7 2406.1 Z" data-holc_grade="A"/>
<path d="M 564.4 2429.8 593.6 2432 577.4 2507.1 571.3 2548.1 497.9 2540.9 418.5 2533.4 435.4 2435.6 497.6 2441.9 501.8 2424.9 564.4 2429.8 Z" data-holc_grade="A"/>
<path d="M 203.7 2616.7 203.2 2565.7 205.3 2533.2 203.2 2522.8 203.1 2519.2 234.8 2518.9 235.9 2511.5 271.9 2515.6 283.7 2515.9 320.1 2455 341.1 2427.9 353.6 2419.2 382.3 2406.4 410.6 2411.8 439.2 2415.6 435.4 2435.6 418.5 2533.4 386.5 2530.3 371.7 2616 289.4 2637.6 242.5 2634.9 204.5 2628.1 203.7 2616.7 Z" data-holc_grade="A"/>
<path d="M 203.1 2519.2 203.2 2522.8 205.3 2533.2 203.2 2565.7 83.3 2566.2 63 2568.9 56.9 2568.9 74.6 2505 95.9 2438.7 141.7 2432.4 199.7 2424.5 203.1 2519.2 Z" data-holc_grade="A"/>
<path d="M 874.5 1888.8 824.5 1879.6 820.3 1881.5 816.3 1883.3 803.8 1887.5 786.2 1889.7 766.6 1891.2 754.3 1891.8 756.8 1869.1 760.2 1856.9 759 1851.7 751.2 1823.9 746.5 1810.4 751.5 1796 753.7 1781.1 750.1 1773.7 747.3 1762.6 766.6 1759.3 807.3 1761.6 843.2 1763.7 885.7 1770.9 908.3 1773.1 933.5 1778.7 932.6 1781.8 924.3 1785.1 917.5 1796.9 917.3 1811.1 917.8 1824.2 911.7 1832.5 894.9 1850.1 884.6 1865.6 880.4 1874.2 874.5 1888.8 Z" data-holc_grade="A"/>
<path d="M 869.4 1681.9 903.4 1682.7 932.5 1683.3 947 1715.1 945.9 1737.9 947.6 1750.6 951 1762.9 947.6 1773.7 948.9 1782.7 933.5 1778.7 908.3 1773.1 885.7 1770.9 843.2 1763.7 807.3 1761.6 819.1 1710 820.3 1672.6 847.8 1677.6 854.5 1681.5 869.4 1681.9 Z" data-holc_grade="A"/>
<path d="M 948.9 1782.7 947.6 1773.7 951 1762.9 947.6 1750.6 945.9 1737.9 947 1715.1 932.5 1683.3 970.8 1682.2 1006.8 1682.2 1016.9 1681.6 1033.3 1678.5 1028.4 1708.9 1055.3 1708.8 1083 1708.9 1074.1 1767.2 1056.7 1773.6 1047.9 1780.8 1042.5 1789.3 1033.3 1792.1 998.3 1784.6 985 1784.4 967 1786.9 948.9 1782.7 Z" data-holc_grade="A"/>
<path d="M 1240 1801.6 1198 1798.5 1146.1 1791.3 1109.4 1789 1088.4 1785.9 1088.4 1779.7 1074.1 1767.2 1083 1708.9 1089.2 1698.4 1101.8 1647.1 1106 1618.2 1106.2 1616.4 1139.6 1617.1 1190.1 1621 1219.7 1626.9 1228.9 1630.2 1287.4 1631.2 1273.6 1662.2 1266.2 1679.4 1258.9 1720.4 1245.8 1774.4 1240 1801.6 Z" data-holc_grade="A"/>
<path d="M 1443.2 2475.9 1428 2569.3 1420.6 2639.7 1325.2 2632.8 1190.5 2627 1184.8 2615.2 1181.6 2569.7 1171.7 2545.1 1141.8 2522.2 1124.7 2504.2 1156.9 2490.8 1194.2 2469.7 1217.3 2461.1 1247.7 2452.9 1309.5 2423.8 1415.9 2438.2 1415.9 2443.1 1415.9 2453.7 1415.9 2458.6 1422.7 2473.8 1443.2 2475.9 Z M 1343.6 2507 1314.2 2496.8 1284.3 2493.1 1273.3 2564.8 1333.6 2572.1 1343.6 2507 Z" data-holc_grade="A"/>
<path d="M 1207 1484.8 1237.4 1487.9 1309.2 1494.8 1306.1 1505.9 1291.4 1568.9 1288.5 1584.9 1214.9 1576.7 1143.1 1571 1142 1581.6 1111.5 1579.3 1118.1 1529.5 1127 1476.7 1207 1484.8 Z" data-holc_grade="A"/>
<path d="M 1207 1484.8 1127 1476.7 1096.3 1475.2 1070 1474.1 1075.2 1447.6 1086.1 1434 1094.4 1392 1218.1 1408.1 1207 1484.8 Z" data-holc_grade="A"/>
<path d="M 1070 1474.1 1037.6 1472.8 999.6 1468 964.3 1460.6 910.4 1457.7 910.6 1454.7 916.6 1393 924.3 1316.6 921.5 1308.2 910.3 1297.5 912.3 1288 928.9 1280.2 942 1279.1 953.4 1283.2 957.7 1296.2 966.9 1304.4 978.7 1310.2 1004.5 1345 1029.8 1385.2 1094.4 1392 1086.1 1434 1075.2 1447.6 1070 1474.1 Z" data-holc_grade="A"/>
<path d="M 1070 1474.1 1096.3 1475.2 1127 1476.7 1118.1 1529.5 1111.5 1579.3 1109.8 1592 1033.6 1586.5 914.1 1573.9 917.3 1567.1 919 1558.4 891.1 1554.8 895.6 1530.8 906.8 1484.2 908.9 1477.9 910.4 1457.7 964.3 1460.6 999.6 1468 1037.6 1472.8 1070 1474.1 Z" data-holc_grade="A"/>
<path d="M 1101.8 1647.1 1059.8 1644.1 1026.6 1641.6 1010.6 1639.4 998.3 1634.8 955.7 1630.2 927.1 1623.6 899.5 1619.8 889.7 1631.8 879.9 1649 870.1 1674.1 869.4 1681.9 854.5 1681.5 847.8 1677.6 820.3 1672.6 805.7 1671.5 797.1 1657.3 765.2 1656 747.3 1654.7 726.1 1652.3 714.9 1648.8 719.9 1626.1 727.5 1557.6 730 1551 736.6 1512.5 775.4 1517.7 826.4 1519.6 851.9 1522.4 895.6 1530.8 891.1 1554.8 919 1558.4 917.3 1567.1 914.1 1573.9 1033.6 1586.5 1109.8 1592 1106.2 1616.4 1106 1618.2 1101.8 1647.1 Z" data-holc_grade="A"/>
<path d="M 807.3 1761.6 766.6 1759.3 747.3 1762.6 700.1 1763.9 649.5 1758.4 653.4 1755.8 655.9 1728.5 685.8 1694.5 697.8 1674.1 714.9 1648.8 726.1 1652.3 747.3 1654.7 765.2 1656 797.1 1657.3 805.7 1671.5 820.3 1672.6 819.1 1710 807.3 1761.6 Z" data-holc_grade="A"/>
<path d="M 491.4 1527.3 544.7 1525.2 549.1 1530.7 542.1 1633 550 1651.1 552.2 1674.3 546.5 1693.1 539.1 1705.7 532.5 1716.6 526 1732.3 523.4 1736.2 528.4 1736.9 567.7 1742.7 597.6 1751.2 593.4 1884.7 479.1 1881.9 481.2 1933.9 479.7 1948.2 479.7 1954.7 482.8 1983 481.2 2012.9 476.5 2042.4 415.7 2033 411.7 2053.6 255.8 2029.7 235.4 2029.3 282.6 1884.7 309.3 1802.4 338.1 1709.5 379.2 1583.9 394 1539.9 410.2 1483.6 459.1 1481.9 458.3 1528.6 491.4 1527.3 Z M 307.7 2017 382.7 2026.4 386.4 2020.7 402.6 2023.1 407.3 2015.8 409.9 1999 410.5 1979.7 407.8 1944.5 362.2 1939.6 331.8 1933 326.1 1959.2 320.8 1983.8 307.7 2017 Z" data-holc_grade="A"/>
<path d="M 910.4 1457.7 908.9 1477.9 906.8 1484.2 895.6 1530.8 851.9 1522.4 826.4 1519.6 775.4 1517.7 736.6 1512.5 742.6 1480.6 620.6 1469.2 590.6 1469.4 593 1444.6 597.6 1391.9 585.7 1365.5 617.1 1366.8 654.2 1371.2 759 1388.9 788.3 1391.9 788.3 1383.8 811.7 1382.7 855.4 1396.9 871.9 1397.4 893.5 1400.9 886.9 1328.6 906.5 1302.6 910.3 1297.5 921.5 1308.2 924.3 1316.6 916.6 1393 910.6 1454.7 910.4 1457.7 Z" data-holc_grade="A"/>
<path d="M 1096.9 723.6 1106.8 730 1116.6 735.4 1125.3 737 1154.9 733.5 1186.2 732.4 1211.4 734.6 1244.4 741.2 1237.6 771.2 1231.5 808.3 1234 825.7 1206.3 825.3 1191.2 826.2 1161 831.4 1154.9 831.4 1134.8 823.1 1117.2 821.2 1067.7 815.1 1055.9 811.3 1049.8 811.3 1042.8 809.8 1040.6 801.3 1042.2 796.3 1037.2 792.4 1032.2 781.2 1016.8 784.1 1050.6 743.3 1060.1 729.3 1074.1 706 1087 717.1 1096.9 723.6 Z" data-holc_grade="A"/>
<path d="M 1437.8 813.8 1399.8 867.5 1303.6 831.2 1335.7 785.1 1337.5 769.6 1364 777.8 1382.5 782.1 1417.1 788.9 1438.8 795.5 1448.9 799.8 1437.8 813.8 Z" data-holc_grade="A"/>
<path d="M 1570.5 2488.1 1536.5 2649.2 1420.6 2639.7 1428 2569.3 1443.2 2475.9 1570.5 2488.1 Z" data-holc_grade="A"/>
<path d="M 1366.7 624 1395.7 641.1 1411.8 647.4 1419.8 653.1 1420.9 659.4 1423.7 659.4 1433.5 661.9 1446.8 670 1453.3 670.7 1459.7 671.4 1526.8 696.5 1504.1 726.8 1467.4 778.6 1448.9 799.8 1438.8 795.5 1417.1 788.9 1382.5 782.1 1364 777.8 1337.5 769.6 1312.2 762.2 1244.4 741.2 1258.4 704.9 1272 663.2 1272.7 660.6 1281.1 629.7 1300.7 632.7 1314.3 636.8 1340.9 645.8 1344.7 638.1 1324.5 616.1 1336 607.3 1366.7 624 Z" data-holc_grade="A"/>
<path d="M 1083 1708.9 1055.3 1708.8 1028.4 1708.9 1033.3 1678.5 1016.9 1681.6 1006.8 1682.2 970.8 1682.2 932.5 1683.3 903.4 1682.7 869.4 1681.9 870.1 1674.1 879.9 1649 889.7 1631.8 899.5 1619.8 927.1 1623.6 955.7 1630.2 998.3 1634.8 1010.6 1639.4 1026.6 1641.6 1059.8 1644.1 1101.8 1647.1 1089.2 1698.4 1083 1708.9 Z" data-holc_grade="A"/>
<path d="M 1316.3 2388.6 1321 2354.2 1329.4 2309.9 1443.2 2321 1440 2363.6 1424.3 2383.3 1417 2407 1347.2 2400.9 1342.5 2395.6 1332.6 2390.2 1316.3 2388.6 Z" data-holc_grade="A"/>
<path d="M 1767.7 2332.9 1762.3 2348.3 1753.1 2399.8 1728.5 2435.1 1726.5 2438.1 1706.4 2466.8 1573 2452.4 1588 2376.7 1609.3 2377.5 1613.2 2341.2 1649.8 2346.1 1660 2337.4 1660 2323.7 1725.7 2325.9 1742.4 2334.1 1767.7 2332.9 Z" data-holc_grade="A"/>
<path d="M 1874.3 2177.5 1803 2171.2 1810 2143 1875.7 2150.2 1874.3 2177.5 Z" data-holc_grade="A"/>
<path d="M 1864 1599.2 1905.8 1607.4 1902 1626.5 1859.3 1616.2 1856.9 1637.4 1853 1654.6 1793.6 1647.8 1766.4 1646.7 1764.3 1660.9 1682.9 1649.7 1651.1 1646.2 1499.6 1632.7 1373.8 1620.7 1323.9 1613.9 1324.9 1588.6 1474.5 1604.2 1707.9 1622.2 1710 1607.5 1847.9 1618.6 1851.4 1615.2 1854.4 1597.8 1864 1599.2 Z M 1712.9 1565.8 1710.7 1581.5 1649.1 1576.3 1592.3 1571.2 1601.5 1525.2 1720.8 1537.8 1712.9 1565.8 Z" data-holc_grade="A"/>
<path d="M 2486.3 1186.1 2428.1 1217.7 2350.8 1173.1 2434.2 1126.7 2486.3 1186.1 Z" data-holc_grade="A"/>
<path d="M 2081.5 743.6 2063.6 716.7 2047.9 694.9 2030.9 678.2 1998.8 649 1976.8 625.7 1996.7 603.8 2027.8 617.5 2107.3 649.5 2140.1 657.7 2154 658.4 2168.9 662.5 2081.5 743.6 Z" data-holc_grade="A"/>
</g>
<g id="B">
<path d="M 1519.5 2215.3 1514.8 2251.8 1472.9 2247.3 1463.9 2252.6 1457.1 2279.2 1671 2308.7 1697.2 2305 1776.3 2312 1772.8 2318.2 1767.7 2332.9 1742.4 2334.1 1725.7 2325.9 1660 2323.7 1660 2337.4 1649.8 2346.1 1613.2 2341.2 1609.3 2377.5 1588 2376.7 1573 2452.4 1570.5 2488.1 1443.2 2475.9 1422.7 2473.8 1415.9 2458.6 1415.9 2453.7 1415.9 2443.1 1415.9 2438.2 1309.5 2423.8 1247.7 2452.9 1217.3 2461.1 1194.2 2469.7 1156.9 2490.8 1146.1 2472.5 1144.3 2459.7 1152.7 2418.4 1157.2 2394.1 1162.1 2370.6 1171.2 2340.6 1175.1 2312.5 1176.5 2289.5 1181.4 2269.3 1185.3 2239.1 1288 2116.2 1408.6 2048.2 1418 2071.2 1445.3 2081 1485.1 2087.5 1528.1 2092.5 1507.1 2185 1526 2196.5 1519.5 2215.3 Z M 1316.3 2388.6 1332.6 2390.2 1342.5 2395.6 1347.2 2400.9 1417 2407 1424.3 2383.3 1440 2363.6 1443.2 2321 1329.4 2309.9 1321 2354.2 1316.3 2388.6 Z" data-holc_grade="B"/>
<path d="M 1720.8 1537.8 1601.5 1525.2 1592.3 1571.2 1649.1 1576.3 1710.7 1581.5 1712.9 1565.8 1856.6 1579.4 1867.5 1582.5 1864 1599.2 1854.4 1597.8 1851.4 1615.2 1847.9 1618.6 1710 1607.5 1707.9 1622.2 1474.5 1604.2 1324.9 1588.6 1340.7 1498.1 1309.2 1494.8 1344.3 1449.2 1366.8 1460.5 1384.2 1473.8 1403.4 1496.7 1412.6 1505.5 1420.9 1509.3 1410.9 1483.4 1388.6 1424.3 1379.2 1404 1445.1 1317.2 1482.2 1278.8 1578.6 1331.9 1739.4 1412.7 1736.5 1466.2 1727.7 1498.6 1720.8 1537.8 Z" data-holc_grade="B"/>
<path d="M 1824.1 1091.6 1950.3 1147.9 1859.9 1272.3 1753.8 1224.2 1682.6 1189.7 1680.8 1192.8 1585.6 1148.8 1580 1147.8 1593.9 1129.7 1640.7 1151.9 1676.2 1101.4 1677.7 1104.7 1686.7 1112.8 1699.5 1121.7 1716.7 1129.5 1737.9 1095 1779.6 1092.5 1805.4 1091.7 1824.1 1091.6 Z M 2232.2 918.5 2112.6 982.6 2049.2 1018.7 2040.9 1020.7 1875.8 950.8 1792.5 1070.3 1748.6 1042.1 1726.4 1027.6 1718.2 1018.4 1701.6 1003.7 1694 996.8 1708.4 979.1 1728 965.5 1731.2 961.6 1787.7 988.3 1805.7 956.2 1820.4 935.6 1833.4 883.9 1883.5 820.8 1898.6 784.8 1921.6 743.2 1939.9 726.7 1998.8 649 2030.9 678.2 2047.9 694.9 2063.6 716.7 2081.5 743.6 2160.6 834.6 2232.2 918.5 Z" data-holc_grade="B"/>
<path d="M 2375.9 1083.3 2348.7 1124.2 2345 1130.4 2345 1134.9 2280.6 1171.7 2269 1180.7 2236.5 1229.8 2245.4 1235.1 2222.9 1267.4 2154.2 1238 2098.2 1318.6 2026.9 1288.7 1979.2 1357.9 1930.4 1336.2 1938.3 1325.5 1851.3 1284.2 1859.9 1272.3 1950.3 1147.9 1953 1144.3 1994.9 1079.2 2010.1 1071.4 2040.9 1020.7 2049.2 1018.7 2112.6 982.6 2232.2 918.5 2315.7 1009.7 2375.9 1083.3 Z" data-holc_grade="B"/>
<path d="M 2434.2 1126.7 2350.8 1173.1 2428.1 1217.7 2486.3 1186.1 2543 1155.3 2562.6 1178.9 2628.1 1145.8 2645.2 1132.8 2692.4 1169.7 2706.3 1183 2746.9 1238.5 2641.2 1295.8 2591.5 1363.7 2546.5 1341.9 2416.3 1285.3 2383.1 1337.1 2222.9 1267.4 2245.4 1235.1 2236.5 1229.8 2269 1180.7 2280.6 1171.7 2345 1134.9 2345 1130.4 2348.7 1124.2 2375.9 1083.3 2387 1092.3 2412.8 1101.1 2422.9 1110.3 2434.2 1126.7 Z" data-holc_grade="B"/>
<path d="M 2168.9 662.5 2154 658.4 2140.1 657.7 2107.3 649.5 2027.8 617.5 1996.7 603.8 2036 563.5 2041.4 568.1 2122.6 588.5 2199.9 608.3 2196.9 630.5 2168.9 662.5 Z" data-holc_grade="B"/>
<path d="M 2168.9 662.5 2196.9 630.5 2199.9 608.3 2216.9 536.4 2218.3 515.9 2223.1 496.5 2319.6 464.5 2394.7 440 2388.6 480.2 2376.4 556.5 2362 644.8 2361.5 709.2 2363.7 758.9 2338.8 738.2 2314.8 724.2 2272 706.5 2221.3 683.3 2183.7 667.3 2168.9 662.5 Z" data-holc_grade="B"/>
<path d="M 854.5 2438.2 864.6 2362.8 816.5 2376.4 810.8 2390.8 798.6 2402 769.8 2420.5 728.3 2424.9 724.6 2443.7 692.3 2439.5 699.7 2406.1 712.5 2335.6 680 2332 660.1 2330.7 598.3 2324.4 613.4 2301.7 623 2282.9 634 2269.2 647.5 2238.2 671.5 2217 689.4 2205.1 713.4 2198.2 740.5 2196.2 793.8 2200.6 817.8 2203.7 817.3 2207.4 818 2217 817.8 2236.8 829.2 2248.8 848.8 2263.1 869.4 2267.5 894.7 2268.9 911.3 2275 927 2275 943.2 2273.3 942.8 2284.3 958.8 2302.1 951.9 2353.9 941 2396.2 934 2439.2 891.2 2435.5 854.5 2438.2 Z" data-holc_grade="B"/>
<path d="M 699.7 2406.1 692.3 2439.5 724.6 2443.7 737.3 2445.3 725.9 2450.8 701 2456.9 680.5 2459.3 671.3 2500 667.8 2533.1 659.1 2581.6 652 2617.1 647.7 2638.2 640.4 2677.4 568.4 2668.7 582.2 2616.4 555.1 2614.3 466.9 2605.8 457.4 2656.3 469.2 2657.7 467.7 2689.7 465.2 2702.3 438.9 2696.4 389.3 2680 355.1 2694.2 342.8 2695.8 281.3 2717.7 288.3 2737.3 234.9 2760.8 197.5 2780.2 198.2 2761.9 204.1 2737.6 205.2 2725 203.8 2712.7 201.7 2695.8 202.7 2673.4 204.5 2628.1 242.5 2634.9 289.4 2637.6 371.7 2616 386.5 2530.3 418.5 2533.4 497.9 2540.9 571.3 2548.1 577.4 2507.1 593.6 2432 601.9 2433 605.8 2417.7 637.3 2421.4 644.2 2390 663 2388.7 683.1 2401.3 699.7 2406.1 Z" data-holc_grade="B"/>
<path d="M 753.5 2716.4 736 2716.8 712.2 2719.8 678.7 2726.8 662.8 2729.2 636.2 2729.4 638.2 2695.8 640.4 2677.4 652.4 2677.6 692.1 2674.4 718.4 2673.9 758.1 2675.2 753.9 2701.2 753.5 2716.4 Z" data-holc_grade="B"/>
<path d="M 204.5 2628.1 202.7 2673.4 201.7 2695.8 203.8 2712.7 205.2 2725 204.1 2737.6 198.2 2761.9 197.5 2780.2 173.5 2793.6 130.3 2747.2 108.4 2760.5 119.8 2772.4 117.2 2813.8 33.3 2798.4 14.5 2779.9 1 2756.7 28.5 2663.5 56.9 2568.9 63 2568.9 63 2586 82.7 2585.7 80.9 2631.1 78.7 2638.2 78.3 2658 93.6 2648.1 150.4 2632.4 203.7 2616.7 204.5 2628.1 Z" data-holc_grade="B"/>
<path d="M 1420.6 2639.7 1536.5 2649.2 1528.1 2659 1525.4 2688.1 1517.6 2696.3 1518.1 2727.4 1555.3 2749.6 1541.5 2765.1 1530 2775 1457.2 2817.2 1478.6 2841.4 1503.3 2828.7 1531.6 2860.6 1513.2 2877 1470.3 2881.1 1436.7 2872.1 1417.3 2861.9 1392.7 2843.4 1230.2 2688.5 1190.5 2627 1325.2 2632.8 1420.6 2639.7 Z" data-holc_grade="B"/>
<path d="M 577 2317.3 595.1 2320.3 598.3 2324.4 579 2342.7 558.8 2362.9 534.7 2379.3 545.2 2385 549.3 2396.2 552.5 2415.9 557.4 2424.1 564.4 2429.8 501.8 2424.9 502.9 2400.6 454.6 2390.5 448.4 2380.4 464.4 2374.4 472.1 2370.6 479.5 2367 553.9 2332.9 559.1 2314.3 577 2317.3 Z" data-holc_grade="B"/>
<path d="M 255.3 2370.8 203.7 2371.4 199.7 2424.5 141.7 2432.4 95.9 2438.7 113.7 2383.4 160 2249.2 171.8 2245.1 191.5 2236.2 212.9 2270 284.8 2263.9 279.5 2281.7 273.9 2295.7 263.8 2307.9 259.4 2349.2 255.3 2370.8 Z" data-holc_grade="B"/>
<path d="M 379.4 2260.9 367.3 2261.9 284.8 2263.9 212.9 2270 191.5 2236.2 171.8 2245.1 160 2249.2 186.7 2174.5 210.2 2176.8 259.6 2184 262.7 2165.2 329.5 2172.7 323.8 2192.2 343.5 2190.2 397.2 2177.2 398.1 2179.2 396.8 2190.8 392.4 2207.2 384.1 2233.8 379.4 2260.9 Z" data-holc_grade="B"/>
<path d="M 514.7 2042 509.5 2041.1 503.8 2067.8 411.7 2053.6 415.7 2033 476.5 2042.4 481.2 2012.9 482.8 1983 479.7 1954.7 518.4 1959.7 519 1990 514.7 2042 Z" data-holc_grade="B"/>
<path d="M 1240 1801.6 1236.9 1808.4 1228.2 1820 1215.5 1831.3 1207.2 1871.9 1202.8 1901.2 1188.9 1961.9 1181.9 1980 1177.5 1998.1 1177.4 2006.7 1172.2 2038 1177.4 2045.2 1151.7 2083.8 1153.4 2091.3 1122.8 2159.5 1112.8 2163 1087.9 2182.4 1033.9 2180.1 1046.8 2127.4 1013.3 2135.9 988.5 2131.8 1001.1 2081.8 1007.3 2050.4 944.8 2055.3 918.6 2052.6 897.6 2051.8 898.7 2025 898.4 1975.6 873.9 1977.5 871.4 1977.1 873.9 1950.3 877.7 1931.8 879.4 1919 885 1906.5 890.7 1892.5 874.5 1888.8 880.4 1874.2 884.6 1865.6 894.9 1850.1 911.7 1832.5 917.8 1824.2 917.3 1811.1 917.5 1796.9 924.3 1785.1 932.6 1781.8 933.5 1778.7 948.9 1782.7 967 1786.9 985 1784.4 998.3 1784.6 1033.3 1792.1 1042.5 1789.3 1047.9 1780.8 1056.7 1773.6 1074.1 1767.2 1088.4 1779.7 1088.4 1785.9 1109.4 1789 1146.1 1791.3 1198 1798.5 1240 1801.6 Z" data-holc_grade="B"/>
<path d="M 727.7 1891 699.2 1889.4 642.8 1886.4 644.2 1836.6 649.5 1758.4 700.1 1763.9 747.3 1762.6 750.1 1773.7 753.7 1781.1 751.5 1796 746.5 1810.4 751.2 1823.9 759 1851.7 760.2 1856.9 756.8 1869.1 754.3 1891.8 727.7 1891 Z" data-holc_grade="B"/>
<path d="M 1294.5 1396.1 1379.2 1404 1344.3 1449.2 1309.2 1494.8 1237.4 1487.9 1207 1484.8 1218.1 1408.1 1267.8 1413.5 1268.7 1393.7 1294.5 1396.1 Z" data-holc_grade="B"/>
<path d="M 1115.3 1154 1137.3 1155.3 1179.7 1167.6 1195.7 1172.3 1202.3 1172.4 1206 1172.5 1267.5 1186.3 1262.2 1219.1 1261.7 1222.1 1249.7 1222.1 1245.5 1278.7 1245.5 1285.5 1253.6 1303.8 1242.7 1312.1 1242.2 1326.4 1292.5 1331.8 1303 1334.2 1294.5 1396.1 1268.7 1393.7 1142.1 1379.8 1097.5 1351.4 1042.2 1315.7 1039 1310 1010.7 1288.3 989.2 1281.4 992.9 1288.3 997.6 1292.4 998.7 1296.9 996.6 1303.4 989.7 1303.9 978.7 1310.2 966.9 1304.4 957.7 1296.2 953.4 1283.2 942 1279.1 928.9 1280.2 912.3 1288 910.3 1297.5 906.5 1302.6 901.2 1294 903.8 1261.7 873.9 1256.8 878.1 1222.4 860.8 1218.7 865 1195.4 849.8 1192.6 837.1 1089.8 887.9 1091.8 928.9 1187.2 974 1188.5 973 1116 1007.6 1137.7 1112.4 1178.2 1107.2 1155.3 1115.3 1154 Z" data-holc_grade="B"/>
<path d="M 1074.1 706 1060.1 729.3 1050.6 743.3 1016.8 784.1 1009.2 782.9 1002.2 778.3 992.9 763.5 962.2 756.5 961.9 768.9 959.7 794.2 960.8 807.1 957.7 832.4 957.2 865.1 960.5 881 918 861 913 880.2 915 916.6 916.6 962.6 906.8 960.5 872.7 955.4 832.8 949.6 837.5 965.5 843.7 995.4 847.3 1023.5 851.2 1039.2 887 1087.7 887.9 1091.8 837.1 1089.8 812.6 1088.3 774.9 1072.6 770.2 967 766.8 926.6 761.2 907.9 735.5 897.8 701.1 878.2 710.6 837 652.7 850.5 642.1 856.4 603 855.5 585.9 861.8 590.1 848.1 602.7 797.5 620.9 726.2 647.4 731.2 655.3 721.1 674.5 729.6 719.3 750.6 769.3 780 807.9 802.7 762.6 815.8 772.1 825.8 756.7 869 839.5 885.6 849 851.6 859.6 841.3 863.5 832.4 846.5 822.1 860.4 792 879.5 804.5 876.9 788.1 902.1 789.2 896.5 760.6 912.4 761.5 934.8 706.3 964.2 713.5 977 710 960.2 694.1 961.9 683 974.5 681.9 973.9 677.9 957.4 660.1 956.3 648.5 1004.1 648.9 1014.5 656.1 1029 664.2 1074.1 706 Z" data-holc_grade="B"/>
<path d="M 1160.8 636.1 1152.7 653.6 1142.6 669.1 1143.7 681.6 1096.9 723.6 1087 717.1 1074.1 706 1029 664.2 1014.5 656.1 1004.1 648.9 1012.7 649.2 1003.9 635.9 1006.1 620.9 1041.9 627.8 1046.3 613.1 1049.8 611.1 1061.9 611.6 1099.6 610.8 1135.6 623.8 1160.8 636.1 Z" data-holc_grade="B"/>
<path d="M 1732.8 2842.4 1763 2856.4 1810.1 2882 1882.6 2920.6 1859.5 2944.5 1777.4 2900.5 1650.7 2836.9 1671.7 2812.4 1702.7 2828.7 1732.8 2842.4 Z" data-holc_grade="B"/>
<path d="M 1250.7 515.3 1230.3 555.1 1231 562.2 1236.5 576.3 1204.1 583.2 1187.7 593.3 1169.9 614.8 1160.8 636.1 1135.6 623.8 1099.6 610.8 1061.9 611.6 1049.8 611.1 1067.7 574.3 1069 561.6 1074.2 542.2 1102.2 536.4 1245 513.6 1250.7 515.3 Z" data-holc_grade="B"/>
<path d="M 1453.3 670.7 1446.8 670 1433.5 661.9 1423.7 659.4 1420.9 659.4 1419.8 653.1 1411.8 647.4 1395.7 641.1 1366.7 624 1366.2 603.6 1367.6 585.5 1409 570.4 1456.8 574.3 1436.4 582.2 1421.6 592.7 1413.5 604 1412.6 616.9 1415.2 629.5 1424.1 638.3 1455.4 651.8 1466.6 654.8 1453.3 670.7 Z M 1336 607.3 1324.5 616.1 1344.7 638.1 1340.9 645.8 1314.3 636.8 1300.7 632.7 1281.1 629.7 1272.7 660.6 1242.8 658.6 1206.1 637.6 1236.5 576.3 1254.7 605.7 1287.2 599.7 1287.2 596.4 1298.4 568.9 1320.7 526.4 1337.9 533.2 1333.7 602.2 1336 607.3 Z" data-holc_grade="B"/>
<path d="M 1399.8 867.5 1437.8 813.8 1447.9 825.7 1457.5 833.2 1481.5 847.9 1495 855.4 1523.9 811.7 1547.9 811.1 1563.6 811.7 1575 812.4 1594.2 821.3 1603.4 830.8 1613.4 847.5 1629.1 877.9 1655.3 919.8 1665.4 943 1668.4 958 1666.7 966.5 1664.5 975 1666.2 997.9 1661.4 1015.9 1654 1037.8 1641.8 1061.3 1615.6 1048.5 1572.8 1030.5 1586.8 1009.5 1575.8 1003.3 1599 974.3 1562.3 958.3 1580.6 925.3 1543.5 909.2 1520.8 891.5 1509.4 898.3 1500.7 908.2 1485 930.4 1471.4 959.3 1476.6 989.9 1458.8 989.1 1417.3 987 1403.7 968.9 1387.1 946.4 1378.8 924.6 1377.5 909.9 1381.5 891.2 1398.5 869.3 1399.8 867.5 Z" data-holc_grade="B"/>
<path d="M 1996.7 603.8 1934.2 571.4 1854.7 518.3 1847.7 511.1 1817.6 472.6 1808.8 465.8 1802.3 452.9 1770.8 421.2 1792 408.1 1800.6 402.8 1826.8 390.9 1880.8 356.6 1953.7 335.7 2022.3 456.4 2043.3 487.9 2028.1 495.2 2034.4 500.5 2076.8 520.6 2027.1 556.6 2036 563.5 1996.7 603.8 Z" data-holc_grade="B"/>
<path d="M 1393.4 339.3 1415.5 336.5 1477.5 337.2 1479.6 349.3 1481.3 381.3 1554.5 379.5 1556.3 431.2 1550.9 433.7 1492 431.2 1470.8 441.8 1448.4 440.4 1438.9 446.9 1421.1 446.4 1396.4 345.3 1393.4 339.3 Z" data-holc_grade="B"/>
<path d="M 1382.2 309.5 1360.8 311.5 1304 318.4 1306.6 294.8 1296.6 280.5 1253.8 301.3 1202.7 316 1188.2 322.8 1171.5 327.4 1174.2 283.3 1179.5 218.9 1185.2 186.2 1188.7 148.8 1201.3 144.7 1169.4 118.4 1148 106.2 1187.8 114 1216.6 116.8 1199.8 84.9 1201.5 83.3 1196.3 62.9 1195.9 45.4 1168.3 44.3 1168.7 1 1199.1 6.7 1347.2 25.3 1339.9 40 1338.5 55.8 1343.4 79.8 1340.6 99.4 1337.5 107.3 1339.6 115.7 1346.2 122.3 1382.5 121.2 1385.7 149.5 1399.7 148.2 1401.4 150.1 1405.2 168.3 1416.1 198.3 1419.2 208.7 1422.7 233.7 1426.9 241.9 1433.5 249.8 1425.5 261.5 1354.9 237.3 1352.1 239.5 1369.6 263.4 1380.1 283.9 1382.9 303.5 1382.2 309.5 Z" data-holc_grade="B"/>
<path d="M 1148.8 2912.2 1154.9 2912.9 1166.1 2915.7 1199 2917.9 1222.7 2919.8 1256.6 2925.8 1258.4 2936.4 1194.8 2952.3 1188.1 2973.6 1183.2 2988.9 1181.5 2996.3 1181.5 3000.9 1108.8 2992.2 1069 2989.2 1063.4 2990.8 1068.6 2998.7 1070 3008.8 1066.2 3020.9 1066.9 3032.9 1071.8 3047.1 1076.3 3078.8 1062 3079.1 1020 3078 990.7 3077.4 985.1 2995.7 950.9 2986.7 951.2 2977.4 948.4 2967.3 1047.3 2979.9 1057.4 2970 1063 2954.7 1065.8 2937 1102.9 2942.4 1105.3 2906.9 1148.8 2912.2 Z" data-holc_grade="B"/>
<path d="M 1155.3 2828.3 1193.9 2831.5 1188.3 2853.8 1184.1 2866.1 1176.3 2873.7 1122.9 2868.9 1101.4 2865.9 1079.6 2862.8 1048.6 2861.9 1018.9 2858.2 1025.4 2815.4 1063.4 2818.2 1111.7 2823.9 1155.3 2828.3 Z" data-holc_grade="B"/>
<path d="M 1315 2909.6 1372.5 2864.8 1391 2882.3 1408.3 2901.3 1440.5 2928.2 1464 2943 1478.5 2950.2 1457.8 2974.7 1437.1 2995.7 1398 2971.2 1351.9 2936.9 1315 2909.6 Z" data-holc_grade="B"/>
<path d="M 1548.9 3373.7 1482.6 3364.4 1491.6 3357.3 1493.7 3291.7 1535 3255 1550.3 3234.3 1563.6 3242.5 1514 3297.7 1581.8 3341.9 1544.1 3363.8 1548.9 3373.7 Z" data-holc_grade="B"/>
<path d="M 1731.1 2438.3 1691.4 2498.8 1680.6 2549.6 1732 2559.7 1772.1 2454.3 1770.2 2440.8 1819.9 2452.1 1867 2452 1804.6 2627.8 1789.5 2664.8 1748.7 2643.2 1739.1 2647.3 1745.2 2658.2 1737.4 2669.1 1712 2704.6 1702.4 2721 1738.1 2738.8 1729.3 2749.5 1700.9 2779.9 1671.7 2812.4 1623.8 2785.9 1671.7 2736 1654.9 2726.2 1640.2 2722.9 1618.7 2701.2 1585.7 2722.1 1565.8 2738.9 1555.3 2749.6 1518.1 2727.4 1517.6 2696.3 1525.4 2688.1 1528.1 2659 1536.5 2649.2 1570.5 2488.1 1573 2452.4 1706.4 2466.8 1726.5 2438.1 1731.1 2438.3 Z" data-holc_grade="B"/>
<path d="M 1539.2 3129.3 1570.6 3094.9 1658 3146.2 1632.1 3173 1611.1 3171.9 1539.2 3129.3 Z" data-holc_grade="B"/>
<path d="M 1849.1 2707.7 1819.1 2745.2 1806.3 2748.7 1789 2738.9 1776.7 2754.6 1756.5 2743.2 1755.4 2740.6 1801 2683.8 1849.1 2707.7 Z M 1849.1 2707.7 1861.2 2697.4 1945.6 2738.4 1950.8 2718.7 1929.3 2707.3 1928.8 2692.9 1804.6 2627.8 1867 2452 1884.8 2434.8 1883.7 2393.4 1887.9 2362.3 1893.2 2335.2 1854.9 2332.4 1860.7 2303.3 1839.2 2300.4 1838.7 2284.9 1782.6 2279.5 1786.8 2241.4 1830.3 2236.9 1873.8 2239 1939.8 2245.9 2188.3 2275.1 2168.4 2382.1 2139.5 2523.4 2155.8 2592.7 2009 2777.1 2125.9 2839 2111.2 2860.1 2043.1 2826.9 2012.7 2860.5 1985.9 2892.5 1927.8 2862.2 1938.2 2844.5 1990.7 2788.4 1946.6 2769.1 1950.3 2762.6 1849.1 2707.7 Z" data-holc_grade="B"/>
<path d="M 2199.8 2213.3 2119.1 2202.3 2086.6 2197.8 1947.2 2181 1969.7 2068.8 2226.5 2092.9 2220.2 2114.6 2209.8 2143.7 2199.8 2213.3 Z M 1874.3 2177.5 1875.7 2150.2 1810 2143 1810 2122.7 1895.3 2056.9 1932.8 2062.9 1931.6 2067.2 1929.1 2079.4 1924.1 2088.4 1909.5 2106.3 1900 2118.9 1888.9 2134.9 1884.7 2150.8 1880.5 2178.1 1874.3 2177.5 Z" data-holc_grade="B"/>
<path d="M 2424.7 2116.4 2415.5 2155.3 2394 2255.7 2322.5 2232.6 2199.8 2213.3 2209.8 2143.7 2220.2 2114.6 2279.5 2123.6 2287.3 2094.4 2286.8 2098.3 2424.7 2116.4 Z" data-holc_grade="B"/>
<path d="M 1917.4 1829.2 1914.1 1845.3 1904 1884.1 1895.9 1932.7 1851.2 1939.8 1757.6 1929.7 1753 1927.2 1702.7 1920.9 1667.4 1919 1638.4 1915.5 1635.3 1917.9 1579 1911.4 1575.9 1934.6 1533.9 1929.9 1529.4 1961.1 1535.7 1965.7 1531.5 1983.4 1482.6 1990.5 1497.2 1922.3 1369.3 1909.7 1363.1 1957 1351.5 1951 1319 1946.3 1309.6 2000.4 1307.5 2024.1 1243.9 2018.9 1236.6 2048.7 1177.4 2045.2 1172.2 2038 1177.4 2006.7 1177.5 1998.1 1181.9 1980 1188.9 1961.9 1202.8 1901.2 1207.2 1871.9 1215.5 1831.3 1265.3 1833.7 1274 1834.1 1335.5 1833.6 1395.2 1837.4 1480.8 1843.7 1578 1854.9 1706.9 1873.4 1740.1 1874.5 1774 1877.5 1803 1881.3 1830.6 1886.5 1853.7 1886.5 1875.3 1794 1923.2 1801.6 1917.4 1829.2 Z" data-holc_grade="B"/>
<path d="M 1960.7 1560.8 1955.4 1585.7 1994.2 1606.5 1970.6 1640.3 1961.5 1669.6 1993.8 1676.1 2022.2 1682.9 2061.9 1693.5 2057.6 1706.8 2133.6 1723.2 2138.4 1707.5 2204.8 1736.1 2209.1 1731.4 2242.8 1746 2276.7 1753.8 2320.1 1763.8 2319.5 1766 2315.7 1779.8 2001.7 1713.6 1997.7 1724.5 1892 1700.6 1882.8 1760.4 1875.3 1794 1822.1 1787 1823.4 1775.4 1841.4 1672.3 1764.3 1660.9 1766.4 1646.7 1793.6 1647.8 1853 1654.6 1856.9 1637.4 1859.3 1616.2 1902 1626.5 1905.8 1607.4 1864 1599.2 1867.5 1582.5 1872.8 1554 1960.7 1560.8 Z" data-holc_grade="B"/>
</g>
<g id="C">
<path d="M 2111.2 2860.1 2097.2 2881.9 2104 2884.8 1861.9 3097.5 1801.6 3149.2 1752.3 3184.8 1746.6 3181.1 1756 3152.8 1750.8 3086.4 1806.8 3038.9 1794.8 3029.5 1804.7 3018.4 1762.3 2993.8 1770.7 2972.9 1738.7 2959.4 1769.1 2926.6 1629.7 2858.1 1650.7 2836.9 1777.4 2900.5 1859.5 2944.5 1882.6 2920.6 1927.2 2941.8 1985.9 2892.5 2012.7 2860.5 2043.1 2826.9 2111.2 2860.1 Z" data-holc_grade="C"/>
<path d="M 1859.9 1272.3 1851.3 1284.2 1806.5 1344.5 1804.2 1346.7 1739.4 1412.7 1578.6 1331.9 1482.2 1278.8 1580 1147.8 1585.6 1148.8 1680.8 1192.8 1682.6 1189.7 1753.8 1224.2 1859.9 1272.3 Z" data-holc_grade="C"/>
<path d="M 2018.9 1432.8 2097.7 1464.9 2071.5 1503.8 2028.6 1563.2 2020 1575.1 1996.4 1563.5 1960.7 1560.8 1872.8 1554 1867.5 1582.5 1856.6 1579.4 1712.9 1565.8 1720.8 1537.8 1727.7 1498.6 1736.5 1466.2 1739.4 1412.7 1804.2 1346.7 1847.1 1369.9 1858.8 1376.5 1975.1 1414.9 2018.9 1432.8 Z" data-holc_grade="C"/>
<path d="M 2098.2 1318.6 2018.9 1432.8 1975.1 1414.9 1858.8 1376.5 1847.1 1369.9 1804.2 1346.7 1806.5 1344.5 1851.3 1284.2 1938.3 1325.5 1930.4 1336.2 1979.2 1357.9 2026.9 1288.7 2098.2 1318.6 Z" data-holc_grade="C"/>
<path d="M 2222.9 1267.4 2383.1 1337.1 2555.1 1411.4 2490.5 1503.1 2420.8 1602.2 2404.6 1625.2 2366 1580 2339.2 1568.9 2351.8 1547.9 2283 1515.8 2324.1 1452.9 2102.7 1352.8 2062.5 1413.7 2098.5 1432 2089.3 1445.7 2105.2 1454.3 2097.7 1464.9 2018.9 1432.8 2098.2 1318.6 2154.2 1238 2222.9 1267.4 Z M 2299.8 1345.1 2255.8 1322.6 2233.2 1353.2 2220.1 1348.7 2210.7 1366.8 2272.5 1395 2286.7 1375.3 2283.6 1364.7 2299.8 1345.1 Z" data-holc_grade="C"/>
<path d="M 2490.5 1503.1 2555.1 1411.4 2591.5 1363.7 2641.2 1295.8 2746.9 1238.5 2810.5 1300.4 2835.7 1328.5 2849.9 1360.6 2857.5 1375.7 2869.2 1399.3 2725.8 1445.7 2751 1488.3 2673.8 1474.6 2610.1 1441.8 2541.3 1527 2490.5 1503.1 Z" data-holc_grade="C"/>
<path d="M 1676.2 1101.4 1674.4 1097.5 1673.1 1085.8 1636.8 1078.3 1647.7 1061.6 1694 996.8 1701.6 1003.7 1718.2 1018.4 1726.4 1027.6 1748.6 1042.1 1792.5 1070.3 1802.9 1077 1824.1 1091.6 1805.4 1091.7 1779.6 1092.5 1737.9 1095 1716.7 1129.5 1699.5 1121.7 1686.7 1112.8 1677.7 1104.7 1676.2 1101.4 Z M 1731.2 961.6 1761.2 925.2 1810.1 862.9 1839 829.8 1864.7 786.5 1888.8 750.7 1909.3 724.8 1922 710.2 1956 656.3 1974.4 628.4 1976.8 625.7 1998.8 649 1939.9 726.7 1921.6 743.2 1898.6 784.8 1883.5 820.8 1833.4 883.9 1820.4 935.6 1805.7 956.2 1787.7 988.3 1731.2 961.6 Z" data-holc_grade="C"/>
<path d="M 652 2617.1 659.1 2581.6 667.8 2533.1 671.3 2500 680.5 2459.3 701 2456.9 725.9 2450.8 737.3 2445.3 761.9 2444.4 761.5 2458 800.8 2451.9 851.9 2451.9 854.5 2438.2 891.2 2435.5 934 2439.2 941 2396.2 986 2401.7 1017.5 2402.4 1032.8 2401.7 1044.1 2422.9 1047.6 2437.6 1053.7 2458 1086.5 2520.9 958.9 2510.6 956.3 2526.7 843.6 2518.5 849.3 2503.5 827.5 2505.2 791.2 2518.1 783.3 2570 768.5 2625 652 2617.1 Z M 1887.9 2362.3 1883.7 2393.4 1884.8 2434.8 1867 2452 1819.9 2452.1 1770.2 2440.8 1731.1 2438.3 1726.5 2438.1 1728.5 2435.1 1753.1 2399.8 1762.3 2348.3 1767.7 2332.9 1772.8 2318.2 1810.3 2323 1795.9 2378 1844 2382.4 1851.4 2359.2 1887.9 2362.3 Z" data-holc_grade="C"/>
<path d="M 753.5 2716.4 777.3 2717.7 819.5 2722.9 845.8 2725.5 835.7 2748.5 831.8 2764.9 829.8 2776.3 832.3 2795.5 819.2 2793.5 778.9 2797.2 740.6 2801.4 748.5 2781.7 754.3 2739.3 753.5 2716.4 Z" data-holc_grade="C"/>
<path d="M 472.1 2370.6 464.4 2374.4 448.4 2380.4 454.6 2390.5 426 2396.5 439.2 2415.6 410.6 2411.8 382.3 2406.4 353.6 2419.2 341.1 2427.9 320.1 2455 297.4 2444.5 268.6 2442.8 260.8 2441.1 254.6 2435.3 251.6 2427.1 244.6 2426.7 255.3 2370.8 259.4 2349.2 263.8 2307.9 273.9 2295.7 279.5 2281.7 284.8 2263.9 367.3 2261.9 379.4 2260.9 408.8 2258.4 412.3 2226.7 427.6 2226.4 426.9 2240.1 458.7 2241.5 493.3 2247.2 489.5 2255.7 487.4 2271.5 474.1 2348.2 472.1 2370.6 Z" data-holc_grade="C"/>
<path d="M 411.7 2053.6 503.8 2067.8 509.5 2041.1 514.7 2042 524.2 2043.6 526.8 2060.8 525.3 2082.1 519 2103.4 514.2 2123.1 501.7 2138.6 484.2 2153.5 470.9 2164.7 436.3 2207.3 427.6 2226.4 412.3 2226.7 408.8 2258.4 379.4 2260.9 384.1 2233.8 392.4 2207.2 396.8 2190.8 398.1 2179.2 397.2 2177.2 343.5 2190.2 323.8 2192.2 329.5 2172.7 262.7 2165.2 259.6 2184 210.2 2176.8 186.7 2174.5 235.4 2029.3 255.8 2029.7 411.7 2053.6 Z" data-holc_grade="C"/>
<path d="M 2394 2255.7 2317.3 2613.7 2200.3 2600.1 2125.9 2839 2009 2777.1 2155.8 2592.7 2139.5 2523.4 2168.4 2382.1 2188.3 2275.1 2199.8 2213.3 2322.5 2232.6 2394 2255.7 Z" data-holc_grade="C"/>
<path d="M 498.1 2160.5 484.2 2153.5 501.7 2138.6 514.2 2123.1 519 2103.4 525.3 2082.1 526.8 2060.8 524.2 2043.6 514.7 2042 519 1990 518.4 1959.7 579.8 1960.1 613.8 1960.9 622 1961.5 669.9 1965 664.7 2022.7 731.8 2028.9 730.2 2066.9 752.2 2071 749.6 2102.6 785.8 2106.3 780.5 2143.1 700.8 2137.4 663.6 2134.1 654.2 2157 641.6 2177.1 601.8 2190.2 578.7 2187.8 539.9 2175.5 498.1 2160.5 Z M 1768.4 85.3 2014.2 134.3 2039.4 218.9 1916.2 218.9 1837.6 221 1808.8 224.7 1822.9 148.2 1823.4 119.6 1770 120.4 1768.4 85.3 Z" data-holc_grade="C"/>
<path d="M 1069.5 2306.6 1068.3 2311.5 1025.3 2320.5 995.5 2319.3 973.4 2312.7 958.8 2302.1 972 2248.9 976.6 2219.7 987.4 2174.1 1033.9 2180.1 1087.9 2182.4 1112.8 2163 1122.8 2159.5 1105.5 2200.1 1090.3 2244.3 1078.8 2267.3 1069.5 2306.6 Z" data-holc_grade="C"/>
<path d="M 1033.9 2180.1 987.4 2174.1 976.6 2219.7 972 2248.9 957.7 2249.7 924.2 2247.5 897.3 2243.2 862 2233.9 835.4 2224.1 818 2217 817.3 2207.4 817.8 2203.7 828.1 2139.7 842.8 2126.8 828.4 2105.6 831.9 2082.6 862 2084.3 869 2075.8 867.9 2017.6 871.8 2017.6 873.9 2000.9 873.9 1977.5 898.4 1975.6 898.7 2025 897.6 2051.8 918.6 2052.6 944.8 2055.3 1007.3 2050.4 1001.1 2081.8 988.5 2131.8 1013.3 2135.9 1046.8 2127.4 1033.9 2180.1 Z" data-holc_grade="C"/>
<path d="M 491.4 1527.3 458.3 1528.6 459.1 1481.9 410.2 1483.6 429.4 1427 490.6 1425.3 491.4 1527.3 Z" data-holc_grade="C"/>
<path d="M 505.4 1172.9 554.8 1158.4 566.2 1169.9 600.2 1170.8 598.3 1216.2 593.3 1265.8 492.8 1263.6 479.5 1262.2 505.4 1172.9 Z" data-holc_grade="C"/>
<path d="M 789.1 1252.4 795.2 1253.2 787.3 1296.2 785.4 1315.9 782.9 1322.8 770.3 1319.2 758.7 1310.1 755.4 1304.3 753.5 1294.3 756.9 1280.4 755.8 1273.6 751.8 1266 750.1 1258.6 755.8 1253 759.8 1248.3 789.1 1252.4 Z" data-holc_grade="C"/>
<path d="M 1218.1 1408.1 1094.4 1392 1098.4 1374.6 1097.5 1351.4 1142.1 1379.8 1268.7 1393.7 1267.8 1413.5 1218.1 1408.1 Z" data-holc_grade="C"/>
<path d="M 1476.6 989.9 1572.8 1030.5 1615.6 1048.5 1551 1134.5 1580 1147.8 1482.2 1278.8 1445.1 1317.2 1379.2 1404 1294.5 1396.1 1303 1334.2 1292.5 1331.8 1242.2 1326.4 1242.7 1312.1 1253.6 1303.8 1245.5 1285.5 1245.5 1278.7 1249.7 1222.1 1261.7 1222.1 1262.2 1219.1 1341.8 1235 1342.7 1218.7 1366.7 1179.8 1396 1147.7 1411.7 1133.8 1398.6 1126.9 1414.8 1065.2 1396.4 1057.7 1382.4 1118.8 1308.6 1081.6 1289 1109.2 1286.4 1127.3 1267.5 1186.3 1206 1172.5 1202.3 1172.4 1195.7 1172.3 1179.7 1167.6 1137.3 1155.3 1115.3 1154 1112.5 1122.2 1155.8 1128.2 1215.9 1136.4 1227.8 1082.6 1184.5 1057.5 1206.5 1024.8 1257.1 1053.7 1257.8 1046.6 1256.4 1018.8 1287.2 1017.4 1318.6 1019.1 1378.7 1043.1 1416.8 1060.8 1423.1 1033.8 1423.8 1012.3 1443 1019.6 1458.8 989.1 1476.6 989.9 Z" data-holc_grade="C"/>
<path d="M 1770.8 421.2 1802.3 452.9 1808.8 465.8 1817.6 472.6 1847.7 511.1 1854.7 518.3 1934.2 571.4 1996.7 603.8 1976.8 625.7 1974.4 628.4 1956 656.3 1922 710.2 1909.3 724.8 1888.8 750.7 1864.7 786.5 1839 829.8 1810.1 862.9 1761.2 925.2 1731.2 961.6 1728 965.5 1708.4 979.1 1694 996.8 1647.7 1061.6 1641.8 1061.3 1654 1037.8 1661.4 1015.9 1666.2 997.9 1664.5 975 1666.7 966.5 1668.4 958 1665.4 943 1655.3 919.8 1629.1 877.9 1613.4 847.5 1603.4 830.8 1594.2 821.3 1575 812.4 1563.6 811.7 1547.9 811.1 1523.9 811.7 1495 855.4 1481.5 847.9 1457.5 833.2 1447.9 825.7 1437.8 813.8 1448.9 799.8 1467.4 778.6 1504.1 726.8 1526.8 696.5 1542.4 674.7 1604.4 697.6 1691.1 736 1703.1 715 1720.2 694.5 1735 673.4 1760.1 638.7 1735.3 629.7 1665.4 600.3 1611.4 578.4 1688.3 471.3 1705.3 464.8 1770.8 421.2 Z M 1770.8 421.2 1721.4 395.1 1726.7 335 1743.5 335.4 1771.2 333.9 1770.6 328.4 1775.4 306.4 1828.5 303.1 1840.5 304.2 1834.6 323 1834.1 352.8 1805 352.4 1801.6 377.5 1797.4 381.4 1792 408.1 1770.8 421.2 Z" data-holc_grade="C"/>
<path d="M 1849.1 2707.7 1801 2683.8 1755.4 2740.6 1742 2734.1 1789.5 2664.8 1804.6 2627.8 1928.8 2692.9 1929.3 2707.3 1950.8 2718.7 1945.6 2738.4 1861.2 2697.4 1849.1 2707.7 Z" data-holc_grade="C"/>
<path d="M 769.3 780 719.3 750.6 674.5 729.6 655.3 721.1 647.4 731.2 620.9 726.2 637 653.3 661.5 577.3 673.7 536.8 771.1 538.5 770.2 557.2 761.9 581.4 738.4 581.1 751.5 686.7 812.6 694.2 797.8 726.9 792.5 746.4 778.1 770.9 769.3 780 Z" data-holc_grade="C"/>
<path d="M 969 424.3 994.3 410.3 1069.4 384.4 1118.8 362.6 1120.1 341.5 1171.5 327.4 1188.2 322.8 1202.7 316 1253.8 301.3 1296.6 280.5 1306.6 294.8 1304 318.4 1360.8 311.5 1382.2 309.5 1374.8 343.2 1367.3 366.4 1359 413.1 1346.8 459.4 1335.4 490.8 1325 480.5 1304.9 470.7 1285.6 463.2 1278.4 461.4 1286 452 1300.5 413.6 1303.3 388.8 1256.6 382.7 1192.4 375.9 1179.8 375.7 1152.9 385.1 1146.5 390.5 1147.1 401.9 1153.2 430.4 1163.6 464.4 1171.1 484.1 1196.8 483 1278.8 473.4 1250.7 515.3 1245 513.6 1102.2 536.4 1074.2 542.2 1069 561.6 1067.7 574.3 1049.8 611.1 1046.3 613.1 1041.9 627.8 1006.1 620.9 1003.9 635.9 1012.7 649.2 1004.1 648.9 956.3 648.5 813.5 647.5 823.5 584.5 847.6 587.5 869.4 551.8 945 605.6 953.3 595.7 938.8 581.1 935.3 536.4 996.9 539.2 969 424.3 Z" data-holc_grade="C"/>
<path d="M 1171.5 327.4 1120.1 341.5 1122.9 301.2 1120.1 249.4 1120.8 188.3 1056.5 188.3 1058.6 165.5 1053.7 135.8 1053.7 95.6 1058.9 49.3 1173.8 78.9 1181.7 104.5 1187.8 114 1148 106.2 1169.4 118.4 1201.3 144.7 1188.7 148.8 1185.2 186.2 1179.5 218.9 1174.2 283.3 1171.5 327.4 Z" data-holc_grade="C"/>
<path d="M 909.2 162.5 909.6 175.8 905.7 185 906.1 224.9 866.8 223.2 836.7 219.4 813.1 218.1 814.5 156.2 810.3 102.4 815.3 81.2 826.5 30.6 912 51.3 907 83.2 906.4 108.7 909.8 134.6 909.2 162.5 Z" data-holc_grade="C"/>
<path d="M 935.8 389.8 936.3 404.8 934.9 413.6 857.2 406.8 859.4 364.9 878.7 345.9 886.5 353.3 926.6 381.9 935.8 389.8 Z" data-holc_grade="C"/>
<path d="M 1425.5 261.5 1433.5 249.8 1426.9 241.9 1422.7 233.7 1419.2 208.7 1416.1 198.3 1405.2 168.3 1401.4 150.1 1399.7 148.2 1385.7 149.5 1382.5 121.2 1346.2 122.3 1339.6 115.7 1337.5 107.3 1340.6 99.4 1343.4 79.8 1338.5 55.8 1339.9 40 1347.2 25.3 1551.3 47.3 1627.8 57.9 1623.4 119.5 1472.3 117.5 1484.9 167.9 1457.4 168.2 1467.5 194.1 1466.2 234.7 1477.1 282 1425.5 261.5 Z" data-holc_grade="C"/>
<path d="M 568.4 2668.7 640.4 2677.4 638.2 2695.8 636.2 2729.4 625.8 2728.3 533.8 2713.8 465.2 2702.3 467.7 2689.7 469.2 2657.7 553.5 2666.9 568.4 2668.7 Z" data-holc_grade="C"/>
<path d="M 1193.9 2831.5 1155.3 2828.3 1164.3 2787.8 1168.2 2749.8 1173.3 2670.7 1051.4 2660.6 1064 2556.2 1105 2558.6 1142.8 2626.3 1187.8 2668.5 1251.8 2734.5 1271.9 2756.8 1310.5 2801.8 1296.8 2811.9 1276.4 2822.8 1256.8 2830.7 1233.9 2836.6 1213.8 2834.8 1193.9 2831.5 Z" data-holc_grade="C"/>
<path d="M 1258.4 2936.4 1256.6 2925.8 1222.7 2919.8 1199 2917.9 1166.1 2915.7 1154.9 2912.9 1148.8 2912.2 1167.6 2881.5 1200.3 2886.4 1233 2890 1256 2891 1262.3 2884.1 1270.7 2877.5 1279.9 2889.2 1295.7 2919.5 1267.6 2932.6 1258.4 2936.4 Z" data-holc_grade="C"/>
<path d="M 950.9 2986.7 985.1 2995.7 990.7 3077.4 951.2 3075.8 954 3057.2 953 3040 932 2988.3 950.9 2986.7 Z" data-holc_grade="C"/>
<path d="M 1069.5 2306.6 1078.8 2267.3 1090.3 2244.3 1105.5 2200.1 1122.8 2159.5 1153.4 2091.3 1197.4 2072.4 1227.1 2065.9 1277.1 2050.1 1264.2 2064 1268.4 2114.2 1251.2 2129.8 1190.4 2202.4 1181.7 2208.7 1159.7 2212.8 1142.6 2219.9 1137.3 2231.6 1138.4 2244.2 1128.9 2264.4 1181.4 2269.3 1176.5 2289.5 1175.1 2312.5 1171.2 2340.6 1162.1 2370.6 1157.2 2394.1 1152.7 2418.4 1144.3 2459.7 1146.1 2472.5 1156.9 2490.8 1124.7 2504.2 1102.4 2479.9 1088.4 2458.3 1082.5 2445.2 1081.4 2433.4 1045.1 2369.8 1074.1 2347.7 1099.2 2321.7 1090.9 2299.4 1069.5 2306.6 Z" data-holc_grade="C"/>
<path d="M 1750.8 3086.4 1756 3152.8 1746.6 3181.1 1742 3190.9 1744.1 3207.3 1749.9 3216.7 1775 3228.6 1785.5 3230.7 1785.5 3236.4 1786.5 3248.3 1792.3 3258.6 1803.3 3267.6 1828 3277 1847.8 3281.1 1797 3310.2 1774 3339.8 1766.3 3398.3 1755.8 3430 1750.2 3453.5 1750.2 3483 1542 3443.6 1551.7 3420.7 1563.6 3376.9 1548.9 3373.7 1544.1 3363.8 1581.8 3341.9 1514 3297.7 1563.6 3242.5 1550.3 3234.3 1535 3255 1493.7 3291.7 1400.1 3275.3 1539.2 3129.3 1611.1 3171.9 1632.1 3173 1658 3146.2 1570.6 3094.9 1634.9 3028.7 1648.2 3043.5 1741.8 3070.3 1750.8 3086.4 Z" data-holc_grade="C"/>
<path d="M 1277.1 2050.1 1227.1 2065.9 1197.4 2072.4 1153.4 2091.3 1151.7 2083.8 1177.4 2045.2 1236.6 2048.7 1243.9 2018.9 1307.5 2024.1 1309.6 2000.4 1319 1946.3 1351.5 1951 1363.1 1957 1369.3 1909.7 1497.2 1922.3 1482.6 1990.5 1448.3 1996.3 1425.3 2003.6 1365.9 2023.3 1277.1 2050.1 Z" data-holc_grade="C"/>
<path d="M 1810 2122.7 1810 2143 1803 2171.2 1786.8 2241.4 1782.6 2279.5 1716.6 2273.1 1720.8 2230.1 1727.1 2230.1 1738.1 2157.6 1702.4 2154.3 1690.9 2229.7 1519.5 2215.3 1526 2196.5 1507.1 2185 1528.1 2092.5 1485.1 2087.5 1445.3 2081 1418 2071.2 1408.6 2048.2 1473.6 2007.7 1473.6 2018.7 1503.4 2022.4 1506.1 2000.7 1683.7 1988 1681.1 2004.8 1825.8 2031.8 1827.9 2017.1 1837.3 2015.1 1839.4 2011.8 1892.9 2016.3 1902.8 2022 1857.2 2055.2 1827.4 2051.1 1813.2 2110.9 1733 2099 1726.7 2144.5 1810 2122.7 Z M 1753 1927.2 1750.2 1948.4 1697.8 1943 1693.6 1963 1531.5 1983.4 1535.7 1965.7 1529.4 1961.1 1533.9 1929.9 1575.9 1934.6 1579 1911.4 1635.3 1917.9 1638.4 1915.5 1667.4 1919 1702.7 1920.9 1753 1927.2 Z" data-holc_grade="C"/>
<path d="M 2424.7 2116.4 2492 2123.9 2616 2157.7 2611.6 2189.1 2589.4 2197.6 2481.9 2170 2481.5 2162.8 2415.5 2155.3 2424.7 2116.4 Z M 2424.7 2116.4 2286.8 2098.3 2287.3 2094.4 2290 2073.7 2232.8 2065.9 2226.5 2092.9 1969.7 2068.8 1932.8 2062.9 1895.3 2056.9 1934 2021.5 1981.6 2028 2231.9 2051.2 2328.6 2065.5 2432.6 2077.5 2424.7 2116.4 Z" data-holc_grade="C"/>
<path d="M 1895.9 1932.7 1904 1884.1 1914.1 1845.3 1917.4 1829.2 2023.1 1832.8 2004.8 1887.7 1998.7 1898.3 2001.3 1915.4 1895.9 1932.7 Z" data-holc_grade="C"/>
<path d="M 2315.7 1779.8 2314.5 1786 2305.8 1804.1 2299.6 1820.5 2042.8 1769.3 2035.4 1791.1 1882.8 1760.4 1892 1700.6 1997.7 1724.5 2001.7 1713.6 2315.7 1779.8 Z" data-holc_grade="C"/>
</g>
<g id="D">
<path d="M 1847.8 3281.1 1828 3277 1803.3 3267.6 1792.3 3258.6 1786.5 3248.3 1785.5 3236.4 1785.5 3230.7 1775 3228.6 1749.9 3216.7 1744.1 3207.3 1742 3190.9 1746.6 3181.1 1752.3 3184.8 1801.6 3149.2 1861.9 3097.5 2104 2884.8 2097.2 2881.9 2111.2 2860.1 2125.9 2839 2200.3 2600.1 2317.3 2613.7 2368.4 2619.7 2311.7 2670.8 2300.7 2713.4 2178.6 2896.6 2192.8 2905.6 2166 2915 2154.5 2924.5 1989.9 3064.7 1970.5 3188 1954.8 3225.4 1887.7 3282.3 1854.2 3282.3 1847.8 3281.1 Z" data-holc_grade="D"/>
<path d="M 2890.8 1709.3 2703.7 1666.3 2688 1665.9 2619.8 1651.6 2542.8 1636 2536 1636 2420.8 1602.2 2490.5 1503.1 2541.3 1527 2610.1 1441.8 2673.8 1474.6 2751 1488.3 2725.8 1445.7 2869.2 1399.3 2999 1649.1 2960.7 1656.1 2951.3 1702.3 2918.8 1696.2 2914.1 1710.5 2890.8 1709.3 Z" data-holc_grade="D"/>
<path d="M 498.1 2160.5 507.3 2165 563.9 2200.8 590.1 2248.8 587.6 2256.5 577 2317.3 559.1 2314.3 553.9 2332.9 479.5 2367 472.1 2370.6 474.1 2348.2 487.4 2271.5 489.5 2255.7 493.3 2247.2 458.7 2241.5 426.9 2240.1 427.6 2226.4 436.3 2207.3 470.9 2164.7 484.2 2153.5 498.1 2160.5 Z" data-holc_grade="D"/>
<path d="M 874.5 1888.8 890.7 1892.5 885 1906.5 879.4 1919 877.7 1931.8 873.9 1950.3 871.4 1977.1 873.9 1977.5 873.9 2000.9 871.8 2017.6 867.9 2017.6 822.7 2017.1 824.6 1970.8 815.4 1962.2 815.8 1938.5 820.3 1881.5 824.5 1879.6 874.5 1888.8 Z" data-holc_grade="D"/>
<path d="M 669.9 1965 622 1961.5 640.2 1943.8 644.2 1924.2 642.8 1886.4 699.2 1889.4 727.7 1891 720.5 1949.9 686.1 1946.4 683.3 1966.1 669.9 1965 Z" data-holc_grade="D"/>
<path d="M 789.1 1252.4 759.8 1248.3 757.5 1247.9 709.3 1242.4 714.5 1182.8 753.3 1189.2 795.6 1193.3 789.1 1252.4 Z" data-holc_grade="D"/>
<path d="M 554.8 1158.4 505.4 1172.9 524.8 1103.5 587.2 1089.9 586.8 1125.9 585.1 1153.9 568.4 1154.7 554.8 1158.4 Z" data-holc_grade="D"/>
<path d="M 1120.1 341.5 1118.8 362.6 1069.4 384.4 994.3 410.3 969 424.3 956.8 407.8 935.8 389.8 926.6 381.9 886.5 353.3 878.7 345.9 850.2 318.6 835.8 290.3 831.9 287.2 819.6 259.6 813.1 218.1 836.7 219.4 866.8 223.2 906.1 224.9 905.7 185 909.6 175.8 909.2 162.5 934.1 168.7 955.9 170.4 980.8 170 1058.6 165.5 1056.5 188.3 1120.8 188.3 1120.1 249.4 1122.9 301.2 1120.1 341.5 Z" data-holc_grade="D"/>
<path d="M 2394 2255.7 2415.5 2155.3 2481.5 2162.8 2481.9 2170 2589.4 2197.6 2611.6 2189.1 2616 2157.7 2492 2123.9 2424.7 2116.4 2432.6 2077.5 2328.6 2065.5 2231.9 2051.2 1981.6 2028 1934 2021.5 1983.8 1981.6 1986.2 1979.8 1989.4 2009.9 2143.3 2022.3 2148.3 1990.9 2161.7 1968.1 2174 1913.1 2941.5 2066.9 2970.2 2085.5 2910.4 2183.8 2841.9 2299 2808 2344.6 2753.2 2397.1 2687.8 2328.5 2656.7 2366.7 2631.2 2349 2551.9 2324.1 2537.2 2398.7 2525 2464.5 2543.5 2462.3 2621.8 2415.6 2674.5 2462.3 2584.4 2515.6 2574.3 2507.4 2547.3 2523.2 2534.4 2514.8 2517.3 2520.8 2503 2520 2499.8 2525.7 2436.2 2604.9 2413.2 2619.7 2403 2620.8 2398.1 2619.4 2421.6 2518.1 2416.3 2517.2 2414.9 2514 2429.6 2501.1 2435.5 2498.4 2472.9 2474.6 2408.3 2465.3 2395.7 2515.3 2385.9 2515 2378.2 2559.8 2387 2572.4 2383.1 2589.3 2383.5 2593.7 2384.9 2597.5 2389.1 2600.3 2368.4 2619.7 2317.3 2613.7 2394 2255.7 Z" data-holc_grade="D"/>
<path d="M 1986.2 1979.8 1983.8 1981.6 1974.6 1982.6 1918.3 1986.7 1887.7 1980.2 1895.9 1932.7 2001.3 1915.4 2093 1902.4 1986.2 1979.8 Z" data-holc_grade="D"/>
<path d="M 2001.3 1915.4 1998.7 1898.3 2004.8 1887.7 2023.1 1832.8 2041.9 1827 2159.4 1849.2 2093 1902.4 2001.3 1915.4 Z" data-holc_grade="D"/>
<path d="M 2362 1707.1 2347.9 1727.4 2336.8 1734.3 2290.6 1715.3 2278.9 1728.4 2289.8 1736.2 2276.7 1753.8 2242.8 1746 2209.1 1731.4 2204.8 1736.1 2138.4 1707.5 2133.6 1723.2 2057.6 1706.8 2061.9 1693.5 2022.2 1682.9 1993.8 1676.1 1961.5 1669.6 1970.6 1640.3 1994.2 1606.5 2020 1575.1 2028.6 1563.2 2185.5 1629.3 2315.7 1686 2362 1707.1 Z" data-holc_grade="D"/>
<path d="M 2404.6 1625.2 2362 1707.1 2315.7 1686 2185.5 1629.3 2028.6 1563.2 2071.5 1503.8 2097.7 1464.9 2105.2 1454.3 2089.3 1445.7 2098.5 1432 2062.5 1413.7 2102.7 1352.8 2324.1 1452.9 2283 1515.8 2351.8 1547.9 2339.2 1568.9 2366 1580 2404.6 1625.2 Z" data-holc_grade="D"/>
<path d="M 2299.8 1345.1 2283.6 1364.7 2286.7 1375.3 2272.5 1395 2210.7 1366.8 2220.1 1348.7 2233.2 1353.2 2255.8 1322.6 2299.8 1345.1 Z" data-holc_grade="D"/>
<path d="M 2299.6 1820.5 2305.8 1804.1 2314.5 1786 2315.7 1779.8 2319.5 1766 2385.7 1780.2 2479.6 1800.7 2510.6 1805.1 2559.1 1815 2547.3 1850.5 2412.3 1853.6 2320.6 1855.6 2289.6 1849.1 2299.6 1820.5 Z" data-holc_grade="D"/>
<path d="M 2347.9 1727.4 2362 1707.1 2404.6 1625.2 2420.8 1602.2 2536 1636 2542.8 1636 2619.8 1651.6 2688 1665.9 2703.7 1666.3 2890.8 1709.3 2879.3 1742.8 2847.8 1739.6 2832.1 1768.2 2819.5 1768.2 2810.1 1783.8 2792.8 1779.3 2789.7 1790.7 2615.1 1758 2613 1785 2358.3 1731.4 2347.9 1727.4 Z" data-holc_grade="D"/>
</g>
</svg>