<?xml version="1.0"?>
<svg xmlns="http://www.w3.org/2000/svg" version="1.2" baseProfile="tiny" width="3000" height="4395" viewBox="0 0 3000 4395" stroke-linecap="round" stroke-linejoin="round">
<g id="A">
<path d="M 517.2 3071.4 469.2 3083.7 475.4 3136.5 434.1 3146 387.1 3161 332.7 3181.9 311.9 3170 288.1 3156.3 292.1 3129.5 263.5 3112.5 212.8 3106.3 140.4 3103.4 89.2 3104.7 41.3 3048.5 1 3005.8 14.3 2997.7 118.6 2940.3 143.2 2905.4 150.6 2884.1 181.9 2872.2 240.1 2866.6 277 2884.9 293 2883.6 305.3 2889.5 301.3 2902.1 312.6 2914.7 325.6 2916.1 332.2 2914.4 336.2 2903.8 341.9 2900.5 351.5 2902.5 385.5 2917.1 395.8 2919.8 413.4 2919.4 426 2909.3 440 2882.8 448.9 2867.4 467.1 2857.9 481.7 2860.3 501.4 2865.6 526.9 2880.2 543.6 2907 518.5 2916 505.2 2919.1 512.5 2955.3 518.5 2984.3 525.3 3024.9 521.1 3070.4 517.2 3071.4 Z" data-holc_grade="A"/>
<path d="M 1007.4 3199.8 979.7 3199.1 948 3200.6 908.3 3195.6 897.3 3189.1 895.2 3135.9 903.3 3070.3 899.7 3058.9 879 3061.2 844.9 3071.5 844.8 2976.5 846.6 2941.9 843.3 2930.8 785.4 2952.8 742 2955.6 708.3 2885.3 683.2 2857.5 647.4 2835.9 608 2770.9 621 2749.6 623 2728.9 618.9 2703.7 762.6 2650.9 777.6 2648.2 820 2635.2 850.4 2625.2 890.3 2607.5 917.4 2603.9 951.3 2591 964.9 2590.6 968.2 2603.6 971.9 2618.2 971 2633.9 967 2646.9 962.8 2662.6 962.3 2676.7 972.5 2713.2 979.4 2743.4 979.6 2786.7 979.8 2818.1 973.6 2829.8 956.9 2893.7 956.3 2905.6 967.8 2930.6 971.8 2968.1 975.5 3056.5 991.9 3048.8 1004.1 3037.7 1016.1 3029.5 1034.3 3022.3 1041.9 2999.5 1049.8 2957.3 1052.1 2935.4 1061.4 2919.3 1086.2 2900.3 1120.6 2885.1 1151.7 2872.5 1173.6 2869 1181.8 2871.8 1172.7 2891.3 1165.4 2908.7 1160.1 2931.9 1110 2943.6 1078 2949.6 1076 2994.7 1072.9 3048.1 1067.8 3075.5 1046.5 3104.2 1040.7 3119.3 1029.8 3129.9 1020.1 3144.2 1012.8 3166.5 1007.4 3199.8 Z" data-holc_grade="A"/>
<path d="M 1403.3 2706.5 1383.7 2719.1 1365.5 2733.7 1344.7 2735 1310.3 2744.7 1312.1 2765.3 1266.8 2778.5 1225.5 2769.9 1219.3 2764.2 1219.5 2740.5 1209.8 2698.8 1204.4 2667.7 1238.5 2661.5 1265.4 2651.3 1272.8 2635.2 1279.8 2609.6 1280.1 2581.4 1272.3 2560.4 1283.3 2561.8 1289.7 2574.2 1303.9 2593.4 1316.7 2603.3 1331.6 2619.2 1324.9 2630.7 1327.7 2661 1331.8 2692.1 1349.1 2707.3 1372.7 2709.4 1400.4 2705.2 1403.3 2706.5 Z" data-holc_grade="A"/>
<path d="M 342.6 3963.8 366.2 3953.3 401.4 3945.9 468.8 3945.9 553.7 3941.5 580.1 3939.9 635 3920.3 649.7 3913.9 669.1 3912.8 670.6 3925.5 671.2 3942.6 678.1 3955.6 684.3 3973.7 684.7 3987.9 672.3 4019.3 673.8 4033.9 669.2 4046.7 653.6 4059.7 647.4 4080.5 650.1 4107 648.5 4116.1 641.2 4117.6 632.8 4112.8 622.1 4098.8 611 4081.4 602.6 4082.2 595.3 4090.9 593.2 4132.9 585 4201.4 589.2 4229.5 586.3 4235.7 579.2 4237.4 571.7 4234.6 569.7 4222.4 567.5 4198.3 562.6 4170.9 555.3 4145.7 543.3 4128.9 522 4122.9 500.7 4124.4 481.4 4133.7 466.7 4145.9 453.2 4175 453.4 4197.6 447.6 4202.9 439.9 4201.1 427.9 4186.7 420.6 4166.2 426.6 4149.8 425.3 4136.1 418.6 4125.3 407.6 4115.2 396.7 4087.3 382.4 4055.8 366.4 4016.3 342.6 3963.8 Z" data-holc_grade="A"/>
<path d="M 960.3 3992.5 975.8 3981.7 989.1 3974 1007.2 3966.5 1039.1 3960.7 1057.4 3955.2 1088.2 3950.5 1084.6 3936.7 1107 3925.4 1133.9 3914.6 1170.8 3903 1182.8 3946.3 1198.5 3982 1213.4 3993.4 1233.4 3994.1 1252.7 3988.9 1262.9 3988.8 1273.5 3995.6 1278.7 4005.2 1274.3 4028.7 1267.7 4073 1263.4 4103.8 1264.9 4119.9 1268.5 4151.3 1264 4180.9 1259.5 4197.7 1247.2 4218.4 1231 4239 1215.9 4247.1 1142.5 4331.1 1130.2 4335.9 1114.4 4334.3 1088.7 4330.1 1069.1 4330.8 1049.6 4336.3 1031.3 4346.4 1021.3 4355.3 997.7 4389 992 4394 986.3 4394.3 984.7 4386.8 990.5 4339.9 990.7 4298.4 986.2 4271.4 986.4 4249.9 983.5 4234.8 985.2 4196.1 991.2 4163.5 989.6 4095.5 985.6 4064.3 981.8 4029 973.2 4013.8 960.3 3992.5 Z" data-holc_grade="A"/>
<path d="M 1463.7 3715.9 1457 3707.6 1453 3687 1451.4 3669.8 1457 3637 1466.7 3607.8 1505.6 3611.8 1535.6 3617.7 1539.6 3598.5 1566.2 3606.1 1553.9 3653.2 1548.9 3691.3 1544.2 3709.2 1545.5 3726.1 1548.9 3738.1 1549.2 3750.7 1541.9 3761.3 1528.6 3765.3 1516.9 3762.3 1497.6 3757 1483.3 3733.8 1475.7 3711.9 1470 3703.9 1463.7 3715.9 Z" data-holc_grade="A"/>
<path d="M 1561.1 3132.3 1539.7 3122.5 1526.4 3096 1521.7 3058 1525.1 3059.6 1635.4 3111.2 1691.5 3122.9 1743.5 3131.2 1903.3 3099.8 2011.4 3065.8 2095.4 3021.9 2191.8 2848.7 2289 2698.7 2298.7 2730.2 2320.8 2717.1 2345.8 2708.1 2358.9 2701.2 2368.7 2723.9 2375.6 2760.5 2374.9 2806.8 2390.2 2848.9 2437.3 2850.3 2439.4 2824.7 2430.4 2803.3 2429 2781.9 2438 2779.1 2478.2 2777.1 2505.9 2772.9 2524.6 2765.3 2542.6 2756.3 2559.9 2738.4 2567.5 2719 2556.4 2699 2552.3 2679 2559.9 2655.5 2545.3 2618.2 2548.1 2598.9 2615 2621.1 2651.7 2634.2 2691.9 2638.3 2770.2 2627.2 2840.2 2623.7 2894.3 2627.2 2924.8 2652 2952.5 2662.3 2966.4 2658.9 2956 2685.1 2960.2 2715.5 2979.6 2736.2 2999 2762.4 2976.9 2805.9 2951.9 2837 2938.1 2870.8 2934 2908.1 2949.2 2936.9 2953.7 2967.2 2944.3 2996 2921 3008.1 2898.3 3029.1 2876.1 3051.3 2843.4 3073.4 2835.1 3095.5 2843.4 3103.8 2850.6 3102.6 2874.5 3083.8 2908.8 3057.3 2933.2 3033 2960.9 3025.8 2963.7 3036.3 2954.3 3067.8 2954.3 3089.9 2964.9 3108.6 2967.1 3120.8 2948.3 3139.6 2932.2 3142.9 2922.2 3163.4 2896.9 3173.1 2873.1 3172 2849.3 3177 2844.3 3165.4 2830.9 3150.5 2816 3145.6 2807.1 3153.9 2800.5 3164.9 2798.2 3181.5 2779.4 3196.4 2783.3 3205.8 2795.5 3205.2 2806.6 3200.8 2806 3213 2777.8 3230.7 2752.2 3229 2736.7 3242.3 2713.5 3275.5 2688.5 3281 2682.4 3289.3 2683.5 3303.6 2657.5 3307.5 2638.6 3313.6 2638.6 3306.4 2619.2 3305.3 2595.9 3315.3 2591.5 3310.9 2602 3297.6 2615.9 3275 2609.7 3270.5 2606.4 3261.7 2609.2 3254 2618.6 3254 2631.4 3247.3 2628.6 3239 2636.9 3224.1 2654.1 3213.1 2682.4 3191.5 2690.1 3178.2 2695.6 3146.2 2677.3 3151.7 2667.9 3165.5 2651.8 3171.1 2652.4 3161.7 2666.2 3127.4 2676.8 3128 2694 3128.5 2716.7 3118.6 2734.4 3095.4 2757.1 3068.8 2763.2 3042.3 2780.4 3023.5 2793.7 3010.8 2799.8 2977.7 2792.6 2954.5 2785.4 2966.1 2769.3 3010.8 2765.4 3022.4 2740.5 3048.4 2706.7 3074.4 2685.6 3083.2 2681.7 3081 2666.8 3090.4 2654.6 3107 2645.7 3107.6 2637.4 3109.2 2623 3114.7 2607.5 3125.3 2598 3129.1 2594.1 3121.9 2589.7 3123.1 2574.2 3122.5 2574.7 3109.8 2579.2 3096 2583.6 3072.2 2580.2 3061.7 2576.9 3066.7 2558.1 3077.2 2530.4 3088.3 2524.3 3099.3 2528.1 3113.1 2528.7 3130.8 2520.4 3139.7 2504.3 3147.4 2486.6 3150.2 2474.9 3160.7 2468.8 3159 2463.3 3151.8 2462.2 3136.4 2476.6 3129.7 2492.1 3120.3 2489.9 3107.1 2472.7 3100.5 2462.7 3096.6 2462.7 3083.3 2460.5 3070.6 2448.8 3083.9 2442.7 3098.3 2428.9 3109.3 2421.7 3112.6 2417.8 3151.9 2406.7 3160.7 2397.3 3162.9 2375.7 3177.3 2361.3 3173.4 2343 3177.3 2343 3186.1 2354.1 3189.5 2379.6 3193.9 2385.7 3207.7 2386.2 3221.5 2374.6 3229.2 2359.6 3225.9 2338 3211 2314.7 3203.8 2287.5 3216 2275.3 3234.8 2270.3 3224.8 2270.3 3211 2263.1 3182.3 2253.1 3216 2250.9 3230.4 2250.9 3245.8 2255.9 3259.7 2267 3263.5 2274.8 3266.8 2275.4 3277.3 2287 3282.8 2289.2 3272.9 2292.5 3261.8 2299.2 3257.4 2320.8 3252.4 2355.8 3248.6 2377.4 3253.5 2410.7 3255.2 2447.3 3255.2 2463.3 3249.6 2468.9 3264 2471.1 3279.5 2479.4 3289.4 2471.1 3312 2456.7 3313.2 2435.1 3321.5 2424.6 3335.3 2404 3350.7 2386.9 3353 2360.8 3355.7 2352.5 3346.9 2357.4 3329.8 2356.9 3320.4 2340.3 3333.6 2321.4 3345.3 2304.8 3343.1 2292.6 3316.5 2277 3300 2263.7 3296.1 2253.7 3319.3 2244.3 3315.5 2243.2 3326 2259.3 3355.8 2264.3 3359.1 2266.5 3344.7 2272 3337.5 2284.8 3350.8 2298.7 3361.3 2299.2 3371.8 2298.7 3390.6 2305.9 3409.4 2304.8 3418.7 2296.5 3427.6 2287.1 3424.3 2278.7 3412.1 2263.2 3397.2 2239.3 3397.2 2218.3 3403.9 2221.6 3417.1 2230.5 3422.6 2236 3429.8 2242.1 3445.3 2246.6 3464.6 2246.6 3498.9 2249.4 3528.2 2252.2 3541.4 2260.5 3551.4 2268.2 3537.5 2276 3518.2 2287.1 3501.6 2304.8 3482.3 2313.1 3471.8 2317.6 3451.3 2333.1 3438.6 2340.3 3419.3 2353 3416 2355.8 3419.8 2372.5 3428.1 2385.8 3430.3 2397.4 3445.8 2403 3457.9 2407.4 3473.9 2403.5 3483.3 2397.4 3484.5 2386.9 3477.8 2372.5 3476.7 2348.1 3489.4 2331.5 3495.5 2323.7 3492.2 2307 3497.2 2302.1 3509.9 2297.6 3531.5 2290.4 3552.5 2293.2 3559.6 2278.8 3564.6 2272.1 3566.3 2263.8 3588.4 2264.9 3603.3 2256.1 3641.1 2255.3 3660.2 2247.8 3684.3 2242 3704.1 2237 3718.2 2228.7 3739 2222 3768.8 2218.7 3797 2208.7 3826 2193.7 3846.7 2182.9 3850 2161.3 3829.3 2153.8 3802 2155.4 3775.5 2156.3 3760.5 2154.6 3734.8 2145.4 3716.6 2121.3 3689.3 2104.7 3652.8 2097.2 3636.2 2099.7 3615.5 2099.6 3589.8 2071.4 3572.4 2040.6 3569.1 2028.9 3559.2 2029.8 3545.9 2035.6 3542.6 2048.9 3535.1 2038.9 3529.3 2028.1 3517.7 2026.4 3498.7 2038.1 3477.9 2050.5 3479.6 2062.2 3501.1 2067.2 3516.9 2082.2 3526 2088.8 3521 2087.1 3514.4 2079.7 3493.7 2081.3 3482.9 2084.6 3468.8 2084.6 3451.4 2079.6 3441.5 2080.5 3432.4 2083.8 3424.9 2094.6 3420.7 2099.6 3411.6 2107.1 3395.9 2127 3356.9 2137 3339.5 2143.7 3316.3 2147.8 3293.9 2147 3273.2 2143.6 3255 2161.1 3229.3 2177.7 3211.9 2190.2 3197.8 2196 3184.5 2198.5 3158.9 2196.8 3141.5 2207.6 3119.1 2211 3102.5 2211 3088.4 2206.8 3077.7 2205.1 3060.3 2212.6 3048.6 2222.6 3040.4 2235.1 3022.1 2244.2 3008 2251.7 2986.5 2255 2967.4 2267.5 2940.9 2278.3 2926.8 2285.7 2905.3 2260 2924.3 2231.7 2962.5 2216.7 2998.9 2210.9 3014.7 2199.3 3035.4 2182.7 3037.1 2173.5 3029.6 2166 3032.1 2171.9 3047.8 2175.2 3070.2 2181 3081 2178.5 3095.9 2170.2 3096.7 2166 3114.1 2157.7 3130.7 2161.9 3145.6 2171.1 3156.4 2179.4 3170.5 2169.4 3177.1 2159.4 3182.9 2143.6 3192.8 2132.8 3208.6 2128.7 3218.5 2125.3 3234.3 2122 3240.9 2117.8 3242.6 2095.4 3252.5 2079.6 3247.6 2072.1 3242.6 2058 3248.4 2058.8 3265 2063 3277.4 2063 3287.3 2053 3303.1 2043.8 3313.9 2050.5 3324.6 2060.5 3331.3 2079.6 3323 2087.1 3315.5 2100.4 3317.2 2113.7 3325.4 2112.9 3346.2 2107.1 3356.1 2080.4 3366.1 2068.8 3384.3 2061.3 3398.4 2060.5 3410.8 2039.7 3410.8 2023.9 3410 2004.8 3421.6 1997.3 3424.1 1975.6 3427.4 1974.8 3438.2 1989.8 3447.3 2004.8 3462.2 2008.9 3477.1 2013.1 3493.7 2007.3 3518.6 2007.3 3550.1 2000.6 3563.3 1994.8 3568.3 1984 3574.1 1973.2 3576.6 1964.9 3583.2 1958.2 3574.1 1934.9 3575.8 1912.5 3584.1 1890 3591.5 1879.2 3584.1 1873.3 3574.1 1876.7 3550.1 1870 3531.9 1858.4 3517.8 1847.5 3502.9 1840.1 3489.6 1825.9 3484.6 1823.4 3473 1823.4 3464.7 1824.2 3443.2 1821.7 3421.6 1816.8 3411.7 1806.8 3400.9 1797.6 3395.1 1775.2 3391.8 1769.3 3380.2 1769.3 3371.1 1784.3 3365.3 1795.1 3361.1 1802.6 3352.9 1810.1 3342.1 1818.4 3335.5 1824.2 3338.8 1829.2 3347.1 1826.7 3361.1 1819.2 3380.2 1830.1 3373.6 1838.4 3357 1860.8 3341.2 1862.5 3328.8 1857.5 3319.7 1830 3319.7 1824.2 3312.3 1826.7 3296.5 1827.5 3280.8 1821.7 3271.6 1810.9 3266.7 1803.4 3260.9 1811.7 3250.1 1810.9 3239.3 1800.1 3235.2 1794.3 3258.4 1791.8 3267.5 1782.6 3270 1779.3 3265 1781 3241 1776.8 3225.2 1766 3231 1758.5 3217 1758.5 3207 1742.7 3205.4 1730.2 3198.7 1736 3191.3 1746.8 3174.7 1716.1 3187.1 1696.1 3187.1 1685.3 3183.8 1668.7 3187.1 1649.5 3183.8 1632.9 3175.5 1629.6 3163.9 1612.1 3151.5 1570.5 3136.6 1561.1 3132.3 Z" data-holc_grade="A"/>
<path d="M 2102.7 330.5 2091 353.3 2091 375.3 2093.1 409.8 2087.5 435.3 2078.6 482.2 2073.7 496.7 2074.4 521.5 2074.4 538.1 2073.7 561.5 2080 589.1 2098.7 612.6 2116 645 2136.8 667 2163.1 699.4 2178.2 718 2159.3 728 2133.9 754.5 2096.2 766.6 2055.2 769.9 2034.2 769.9 2002 783.2 1952.2 794.2 1924.8 800.4 1877.7 810.8 1807.8 819.8 1757.2 815 1717.8 808.1 1693.5 789.4 1612.5 712.9 1626.4 666.7 1629.1 611.5 1620.8 557.7 1604.9 495 1572.4 426 1607 380.5 1631.2 355 1634.7 345.3 1638.1 330.2 1628.4 305.3 1624.8 248.2 1624.1 233.8 1624.1 232.7 1622.1 209.4 1629.8 192.3 1635.5 131.3 1640.3 91.3 1648.6 61.7 1670.1 32 1681.9 26.5 1692.2 17.6 1724.1 17.6 1742.1 16.9 1769.8 12 1802.3 1 1846.6 5.8 1888.1 25.1 1935.9 54.8 1960.1 105.8 1988.5 168.5 2023.1 220.9 2037.7 248.5 2068.8 287.8 2102.7 330.5 Z M 1870.2 346.3 1844.8 360.7 1835.8 358 1817.7 356.2 1803.2 363.4 1791.4 377.9 1773.3 384.2 1739.8 390.5 1703.5 404 1701.7 414.9 1689 427.5 1670 451 1695.4 447.4 1742.5 530.4 1804.1 492.5 1810.4 513.2 1817.7 535.8 1819.5 560.2 1818.6 583.6 1829.5 587.2 1863.9 571 1915.5 531.3 1941.8 506.9 1937.3 487 1939.1 479.8 1969.9 431.1 1967.2 396.8 1961.7 389.6 1907.4 381.5 1900.1 366.1 1892.9 339.9 1870.2 346.3 Z" data-holc_grade="A"/>
</g>
<g id="B">
<path d="M 810.2 3190.5 814.8 3140.1 819.7 3089.1 812.8 3058.2 794.1 3031.2 753.3 2992.7 727.7 3003 704.1 2953.6 669.4 2896.3 639.2 2861.5 595.1 2813.1 565.3 2774.8 562.4 2765.6 565.2 2721 532.1 2732.7 527.6 2747.4 519.6 2775.7 521 2798.2 527.1 2813.8 486.9 2828.1 459.5 2841.2 453.6 2854.2 448.9 2867.4 440 2882.8 426 2909.3 413.4 2919.4 395.8 2919.8 385.5 2917.1 351.5 2902.5 357.1 2884 358.8 2850.6 356.9 2806.1 355.2 2779.9 357.5 2757.5 372.4 2745.1 389.6 2736 458.4 2706.5 512.7 2686.9 505 2668.1 482 2644.4 476.2 2631.7 475.9 2612 474.5 2599.3 460.1 2585 459 2558.4 445.2 2541.3 458.1 2505.7 439 2487.7 445.8 2479.2 484.3 2470.9 499 2466 518.3 2467.6 522.4 2475.1 524.3 2505.9 527.5 2519.3 536.5 2528.1 586.1 2531.4 595.1 2527.7 610.4 2508 635.5 2456.9 645.3 2445.6 657 2438.4 684.4 2432.5 776.4 2430.9 776.7 2391.5 772.4 2376.9 778.4 2370.1 811.7 2368.3 875.7 2372.8 898.3 2381.1 900.9 2420.8 904 2574.7 917.4 2603.9 890.3 2607.5 850.4 2625.2 820 2635.2 777.6 2648.2 762.6 2650.9 618.9 2703.7 623 2728.9 621 2749.6 608 2770.9 647.4 2835.9 683.2 2857.5 708.3 2885.3 742 2955.6 785.4 2952.8 843.3 2930.8 846.6 2941.9 844.8 2976.5 844.9 3071.5 879 3061.2 899.7 3058.9 903.3 3070.3 895.2 3135.9 897.3 3189.1 908.3 3195.6 948 3200.6 979.7 3199.1 1007.4 3199.8 1001.9 3212.5 987.3 3209.4 962.8 3211.9 915.4 3237.7 878.8 3239.2 860 3241.7 799 3260 798 3248.6 802.6 3225.7 814.5 3194.7 810.2 3190.5 Z" data-holc_grade="B"/>
<path d="M 1870.2 346.3 1892.9 339.9 1900.1 366.1 1907.4 381.5 1961.7 389.6 1967.2 396.8 1969.9 431.1 1939.1 479.8 1937.3 487 1941.8 506.9 1915.5 531.3 1863.9 571 1829.5 587.2 1818.6 583.6 1819.5 560.2 1817.7 535.8 1810.4 513.2 1804.1 492.5 1742.5 530.4 1695.4 447.4 1670 451 1689 427.5 1701.7 414.9 1703.5 404 1739.8 390.5 1773.3 384.2 1791.4 377.9 1803.2 363.4 1817.7 356.2 1835.8 358 1844.8 360.7 1870.2 346.3 Z" data-holc_grade="B"/>
<path d="M 1204.4 2667.7 1203.8 2664.5 1200.5 2630.5 1146.6 2639.7 1149.1 2613.7 1125.1 2607.7 1105 2607 1063.7 2597.7 1009.4 2589.1 977.9 2585.8 964.9 2590.6 951.3 2591 917.4 2603.9 904 2574.7 900.9 2420.8 898.3 2381.1 933 2341.7 945.8 2330.2 964.9 2290 972.9 2243.2 969.8 2209.6 971.1 2184.9 984.9 2157.1 996 2141.2 997.3 2122.2 996 2100.1 999.5 2079.3 1008 2046.2 1009.7 2014.3 1001.6 1971.2 991.4 1941.9 965.1 1900.2 1067.3 1892.3 1130.2 1919.6 1217.8 1926 1263.8 1871.3 1288.4 1860.3 1313.4 1742.4 1359.1 1770.9 1406.2 1759.5 1438.4 1768.9 1428.9 1789.4 1424.2 1824.4 1418.4 1879.9 1407.9 1939.5 1396 1965.5 1371.3 1999.1 1350.5 2042.5 1350.2 2082.2 1296.2 2133 1254 2360.8 1240.7 2412.4 1218.3 2485.6 1205.5 2522.6 1204.9 2561 1272.3 2560.4 1280.1 2581.4 1279.8 2609.6 1272.8 2635.2 1265.4 2651.3 1238.5 2661.5 1204.4 2667.7 Z" data-holc_grade="B"/>
<path d="M 311.9 3170 332.7 3181.9 387.1 3161 434.1 3146 475.4 3136.5 469.2 3083.7 517.2 3071.4 524.7 3138.4 532.4 3169.6 545.7 3267.9 535 3268.8 523.3 3263.5 487.3 3255.5 474.2 3255.1 455.6 3251.3 384.2 3242.2 341.4 3238 300.1 3233.8 307 3211 312.3 3189.8 311.9 3170 Z" data-holc_grade="B"/>
<path d="M 1204.4 2667.7 1209.8 2698.8 1219.5 2740.5 1219.3 2764.2 1225.5 2769.9 1225.1 2821.8 1222.4 2872.2 1215.1 2911.1 1213.8 2931.4 1207.5 2979.4 1201.3 2993.5 1169.8 3145.1 1162.5 3162.3 1136.1 3201.2 1124.3 3214.2 1089.1 3223.9 1071.3 3227.2 1059.1 3232.3 1024.5 3234.9 995.8 3234.2 1001.9 3212.5 1007.4 3199.8 1012.8 3166.5 1020.1 3144.2 1029.8 3129.9 1040.7 3119.3 1046.5 3104.2 1067.8 3075.5 1072.9 3048.1 1076 2994.7 1078 2949.6 1110 2943.6 1160.1 2931.9 1165.4 2908.7 1172.7 2891.3 1181.8 2871.8 1173.6 2869 1151.7 2872.5 1120.6 2885.1 1086.2 2900.3 1061.4 2919.3 1052.1 2935.4 1049.8 2957.3 1041.9 2999.5 1034.3 3022.3 1016.1 3029.5 1004.1 3037.7 991.9 3048.8 975.5 3056.5 971.8 2968.1 967.8 2930.6 956.3 2905.6 956.9 2893.7 973.6 2829.8 979.8 2818.1 979.6 2786.7 979.4 2743.4 972.5 2713.2 962.3 2676.7 962.8 2662.6 967 2646.9 971 2633.9 971.9 2618.2 968.2 2603.6 964.9 2590.6 977.9 2585.8 1009.4 2589.1 1063.7 2597.7 1105 2607 1125.1 2607.7 1149.1 2613.7 1146.6 2639.7 1200.5 2630.5 1203.8 2664.5 1204.4 2667.7 Z" data-holc_grade="B"/>
<path d="M 1521.7 3058 1526.4 3096 1539.7 3122.5 1561.1 3132.3 1565.4 3138.7 1586.3 3160 1592.5 3174.5 1602.2 3202.8 1616.4 3213 1616 3228.5 1612.4 3243.5 1612 3275.7 1618.1 3327.1 1571.6 3346 1543.6 3357.4 1536.3 3356.9 1525 3334.2 1517.4 3325.2 1508.1 3323.2 1491.4 3325.2 1459.5 3330.2 1425.2 3335.8 1405.6 3333.5 1389.3 3323.2 1376.6 3305 1364.7 3274.8 1346 3222.8 1319.8 3170.7 1294.1 3182.7 1273.8 3190.9 1232.9 3205.5 1217.6 3204.2 1207.3 3208.2 1173 3210.8 1163 3208.8 1124.3 3214.2 1136.1 3201.2 1162.5 3162.3 1169.8 3145.1 1201.3 2993.5 1207.5 2979.4 1213.8 2931.4 1215.1 2911.1 1222.4 2872.2 1225.1 2821.8 1225.5 2769.9 1266.8 2778.5 1312.1 2765.3 1310.3 2744.7 1344.7 2735 1365.5 2733.7 1383.7 2719.1 1403.3 2706.5 1413.6 2710.7 1424 2731.5 1430.2 2736.3 1448.2 2750.8 1453.1 2768 1459.3 2799.8 1457.2 2857.8 1470.4 2928.9 1500.2 3002.1 1521.7 3058 Z" data-holc_grade="B"/>
<path d="M 943.3 3898.3 967.2 3890.5 1012.1 3881.1 1059.6 3875.3 1057 3859.3 1108.3 3846.4 1130.6 3840.8 1138.2 3830.8 1151.9 3816.9 1166.9 3807.6 1173.2 3806.3 1175.8 3813.8 1174.2 3827.6 1168.1 3840 1166.1 3850.5 1169.2 3859.3 1171.9 3882.3 1170.8 3903 1133.9 3914.6 1107 3925.4 1084.6 3936.7 1088.2 3950.5 1057.4 3955.2 1039.1 3960.7 1007.2 3966.5 989.1 3974 975.8 3981.7 960.3 3992.5 941.7 3968.2 926.4 3955.7 906.2 3944.4 894.3 3935.3 884.6 3927 881 3915.9 943.3 3898.3 Z" data-holc_grade="B"/>
<path d="M 1281.7 3592.9 1308.1 3586.8 1353.7 3590.4 1357.1 3567.8 1425.1 3576.3 1454.7 3581.6 1453.4 3604.1 1466.7 3607.8 1457 3637 1451.4 3669.8 1453 3687 1457 3707.6 1463.7 3715.9 1456.4 3727.1 1439.4 3736.1 1412.4 3735.1 1373.2 3723.5 1351.2 3714.5 1280.3 3712.9 1284.3 3609.1 1281.7 3592.9 Z" data-holc_grade="B"/>
<path d="M 1752.1 2857.8 1755.9 2868.1 1758 2922.7 1761.5 2938.6 1767.1 2986.9 1760.8 3062.2 1743.5 3131.2 1691.5 3122.9 1635.4 3111.2 1525.1 3059.6 1521.7 3058 1500.2 3002.1 1470.4 2928.9 1457.2 2857.8 1459.3 2799.8 1453.1 2768 1448.2 2750.8 1430.2 2736.3 1424 2731.5 1413.6 2710.7 1403.3 2706.5 1400.4 2705.2 1372.7 2709.4 1349.1 2707.3 1331.8 2692.1 1327.7 2661 1324.9 2630.7 1334.5 2624.8 1342.9 2619.6 1363 2599.6 1382.4 2572.7 1395.6 2545.8 1401.1 2526.4 1397 2496.7 1396.3 2475.3 1406 2429.8 1418.7 2371.5 1525.2 2409 1551.5 2475.3 1565.3 2556.1 1549.4 2615.5 1513.4 2690 1518.2 2701.8 1527.9 2725.2 1532.1 2733.5 1536.2 2786 1591 2828.1 1654.1 2875.7 1746.9 2844 1752.1 2857.8 Z" data-holc_grade="B"/>
<path d="M 2289 2698.7 2353 2610.9 2384.6 2558.7 2437 2552.9 2466.9 2498.2 2439.5 2505.6 2420.3 2493.2 2344.7 2475 2251.5 2460.2 2222.9 2377.1 2222.8 2356.1 2243.9 2293.1 2272.1 2236 2278.4 2206.3 2313.7 2204.9 2410 2190.3 2447.4 2181.4 2459.2 2195.2 2523.6 2168.9 2547.8 2150.9 2562.4 2150.2 2574.2 2186.1 2611.6 2252.4 2622 2252.4 2636.6 2280.6 2666.4 2331.7 2620.7 2361.4 2572.2 2386.3 2541.1 2408.4 2541.1 2422.9 2545.2 2465.7 2540.4 2515.4 2535.6 2558.9 2539.1 2584.4 2548.1 2598.9 2545.3 2618.2 2559.9 2655.5 2552.3 2679 2556.4 2699 2567.5 2719 2559.9 2738.4 2542.6 2756.3 2524.6 2765.3 2505.9 2772.9 2478.2 2777.1 2438 2779.1 2429 2781.9 2430.4 2803.3 2439.4 2824.7 2437.3 2850.3 2390.2 2848.9 2374.9 2806.8 2375.6 2760.5 2368.7 2723.9 2358.9 2701.2 2345.8 2708.1 2320.8 2717.1 2298.7 2730.2 2289 2698.7 Z" data-holc_grade="B"/>
</g>
<g id="C">
<path d="M 598 3080.4 622.2 3039.2 636.8 3012 633.3 2993.4 608.2 2954 580 2930.2 543.6 2907 526.9 2880.2 501.4 2865.6 481.7 2860.3 467.1 2857.9 448.9 2867.4 453.6 2854.2 459.5 2841.2 486.9 2828.1 527.1 2813.8 521 2798.2 519.6 2775.7 527.6 2747.4 532.1 2732.7 565.2 2721 562.4 2765.6 565.3 2774.8 595.1 2813.1 639.2 2861.5 669.4 2896.3 704.1 2953.6 727.7 3003 753.3 2992.7 794.1 3031.2 812.8 3058.2 819.7 3089.1 814.8 3140.1 810.2 3190.5 775.9 3187.3 767.8 3201.1 758.4 3221.1 751.9 3268.9 725.5 3277.4 688.5 3284.3 652.7 3295.1 623.2 3304.1 610.6 3294.8 607.7 3284.9 610.4 3274.5 624.2 3256.1 641 3240.7 652.2 3225.3 650.7 3213.3 642.7 3204.4 622.3 3195.4 609.3 3175 600.6 3139.7 593.3 3106.1 598 3080.4 Z" data-holc_grade="C"/>
<path d="M 545.7 3267.9 552 3284.8 554.2 3323.2 541.7 3321.5 525.9 3331.2 506 3335.1 462.4 3326.7 418.6 3314.3 384.3 3294.7 356.8 3276.1 351.5 3282.8 348.2 3322.5 345.4 3393.8 339.3 3445.5 340.6 3467.8 337.6 3506 333.1 3520.6 328.7 3571.7 326.1 3616.6 316.2 3643.3 318 3651.4 489.6 3683 557 3592.8 618.1 3549.2 619 3583.6 574.9 3595.3 576.3 3676.1 569.7 3691.8 572.1 3705.6 582.3 3739.4 585.3 3764.1 587.8 3784.5 579.2 3858.6 657.5 3857.6 665.2 3871.7 668.6 3888.8 669.1 3912.8 649.7 3913.9 635 3920.3 580.1 3939.9 553.7 3941.5 468.8 3945.9 401.4 3945.9 366.2 3953.3 342.6 3963.8 282 3828.1 286.7 3806.3 290.9 3736.7 294 3689.4 298.1 3676.7 295.7 3621.7 260.2 3620.9 266.9 3560.7 271 3533.6 277.7 3500.4 284.1 3430.8 307.2 3433.9 306.1 3409.3 306.9 3333.1 304.7 3282.2 300.1 3233.8 341.4 3238 384.2 3242.2 455.6 3251.3 474.2 3255.1 487.3 3255.5 523.3 3263.5 535 3268.8 545.7 3267.9 Z" data-holc_grade="C"/>
<path d="M 619 3583.6 618.1 3549.2 646.6 3528.9 643.9 3493.7 628.3 3452.6 622.7 3406.4 625.5 3357.5 623.4 3347.1 675.6 3326.9 689.9 3320.6 714.9 3317.8 747.7 3307.1 748.7 3341.9 745.6 3380.4 747.2 3404.6 749.3 3470.9 776.1 3460.4 789.1 3466.9 822.7 3475.5 822.3 3487.5 818.2 3512.7 814.7 3560.6 857.1 3573.3 897.4 3575.7 931.5 3581.8 937.5 3589.8 939.4 3620.3 905.7 3646.6 886.7 3641 877.2 3641 865.7 3678.6 838.7 3735.6 845.4 3750 798.3 3799.1 788.6 3804.7 780.1 3801.4 754.5 3768.6 733.6 3732.9 723.1 3707.1 703.1 3677.2 699.3 3652.2 696.5 3644.1 690.4 3570.5 685.5 3568.6 635.8 3582.5 619 3583.6 Z" data-holc_grade="C"/>
<path d="M 1132.4 3530.6 1125.4 3481 1119.7 3434.6 1106.4 3420.6 1057.4 3385.8 1037.1 3373.2 1027.5 3368 1004.3 3355.3 989.6 3345.2 980.1 3338.7 964 3323.2 945.4 3299.6 927.3 3282.3 982.6 3257.7 995.8 3234.2 1024.5 3234.9 1059.1 3232.3 1071.3 3227.2 1089.1 3223.9 1124.3 3214.2 1163 3208.8 1173 3210.8 1207.3 3208.2 1217.6 3204.2 1232.9 3205.5 1273.8 3190.9 1294.1 3182.7 1319.8 3170.7 1346 3222.8 1364.7 3274.8 1376.6 3305 1389.3 3323.2 1405.6 3333.5 1425.2 3335.8 1459.5 3330.2 1491.4 3325.2 1508.1 3323.2 1517.4 3325.2 1525 3334.2 1536.3 3356.9 1543.6 3357.4 1571.6 3346 1618.1 3327.1 1622.4 3340.7 1635.7 3339.4 1645.9 3348.4 1650.1 3361.5 1651.4 3373.6 1643.7 3384.9 1644.1 3388 1653.6 3388.4 1663.6 3392.2 1685.2 3404.3 1699.6 3407.4 1715.8 3403.4 1728 3405.7 1733.3 3411.6 1733.1 3424.4 1728 3436.8 1736.2 3446.1 1744.4 3448.3 1766.3 3440.8 1772.8 3442.3 1777.9 3451.6 1774.1 3458.2 1749.9 3477.7 1711.3 3495.6 1697.1 3506 1690.3 3519.3 1682.1 3552.8 1675.4 3584.2 1668.8 3601.2 1658.5 3601.2 1650.8 3592.8 1647.9 3577.8 1643.5 3531 1646.1 3479.4 1624.5 3448.8 1582.2 3458.2 1563.3 3458.6 1564.4 3476.2 1569.3 3502.7 1471.8 3536.1 1404.2 3520.4 1365.4 3512.9 1357.1 3567.8 1353.7 3590.4 1308.1 3586.8 1281.7 3592.9 1253.3 3554.1 1233.1 3536.8 1224.3 3532.9 1198 3544.1 1195.6 3526.9 1182.9 3496.7 1149.1 3520.8 1132.4 3530.6 Z" data-holc_grade="C"/>
<path d="M 1173.2 3806.3 1166.9 3807.6 1151.9 3816.9 1138.2 3830.8 1130.6 3840.8 1108.3 3846.4 1057 3859.3 1059.6 3875.3 1012.1 3881.1 967.2 3890.5 943.3 3898.3 943.3 3884.7 961.4 3829.2 993.5 3728.7 1053.7 3744.9 1060 3724.1 1062 3712.4 1069.4 3703.2 1084.3 3688.9 1105.3 3678.6 1124.3 3678 1137.6 3683.9 1144.2 3692.6 1148.6 3705.5 1159.2 3741 1165.9 3770.5 1173.2 3806.3 Z" data-holc_grade="C"/>
<path d="M 1743.5 3131.2 1760.8 3062.2 1767.1 2986.9 1761.5 2938.6 1758 2922.7 1755.9 2868.1 1752.1 2857.8 1760.7 2843.8 1806.4 2844.2 1805.6 2909.1 1812.7 2930.4 1824.6 2959.1 1836.6 2990.9 1840.2 3023.1 1855.7 3016.5 1877.9 3010.3 1924.9 3007.2 1924 2978.1 1905.8 2929.9 1883.2 2890.1 1870.7 2868 1851.7 2870.3 1845.5 2849 1841.9 2827.8 1839.2 2810.2 1802.9 2808 1755 2802.2 1715.5 2794.7 1718.2 2752.7 1887.4 2757.7 1889.9 2683.1 1871.6 2615.2 1970.5 2591.1 2002.1 2615.1 2047 2627.6 2138.5 2526.5 2215 2505.7 2256.5 2504.1 2251.5 2460.2 2344.7 2475 2420.3 2493.2 2439.5 2505.6 2466.9 2498.2 2437 2552.9 2384.6 2558.7 2353 2610.9 2289 2698.7 2191.8 2848.7 2095.4 3021.9 2011.4 3065.8 1903.3 3099.8 1743.5 3131.2 Z M 2082 2841.3 2120.2 2759.2 2138.5 2716.2 2140.2 2676.4 2092.8 2704.6 2072 2729.4 2045.4 2746 1999.7 2800.7 2009.6 2811.5 2021.3 2867 2082 2841.3 Z" data-holc_grade="C"/>
</g>
<g id="D">
<path d="M 623.4 3347.1 625.5 3357.5 622.7 3406.4 628.3 3452.6 643.9 3493.7 646.6 3528.9 618.1 3549.2 557 3592.8 489.6 3683 318 3651.4 316.2 3643.3 326.1 3616.6 328.7 3571.7 333.1 3520.6 337.6 3506 340.6 3467.8 339.3 3445.5 345.4 3393.8 348.2 3322.5 351.5 3282.8 356.8 3276.1 384.3 3294.7 418.6 3314.3 462.4 3326.7 506 3335.1 525.9 3331.2 541.7 3321.5 554.2 3323.2 552 3284.8 545.7 3267.9 532.4 3169.6 524.7 3138.4 517.2 3071.4 521.1 3070.4 569.1 3066.1 573.4 3085.2 588.5 3080.7 598 3080.4 593.3 3106.1 600.6 3139.7 609.3 3175 622.3 3195.4 642.7 3204.4 650.7 3213.3 652.2 3225.3 641 3240.7 624.2 3256.1 610.4 3274.5 607.7 3284.9 610.6 3294.8 623.2 3304.1 622.4 3341.7 623.4 3347.1 Z" data-holc_grade="D"/>
<path d="M 1132.4 3530.6 1117.5 3533.5 1089.7 3540.3 1067.3 3545.4 1041.8 3549.2 1028.5 3550.6 1012.3 3554.9 998.4 3554.9 986.2 3550.1 977.8 3545.4 968.5 3534.3 960.3 3528.5 960.6 3519.5 951 3509.7 942.6 3499.6 932.6 3494.2 929.1 3495.1 916.7 3478.9 894.3 3442.4 896.3 3433.6 924.5 3414.6 940.4 3408.6 965.3 3404 992.1 3400 1001 3396.3 1027.5 3368 1037.1 3373.2 1057.4 3385.8 1106.4 3420.6 1119.7 3434.6 1125.4 3481 1132.4 3530.6 Z M 927.3 3282.3 945.4 3299.6 964 3323.2 980.1 3338.7 989.6 3345.2 955 3361.2 910 3386 853.2 3418 798.6 3449.8 793 3435 791.5 3399.2 793.1 3360.1 791.7 3349.9 794.2 3332.9 796 3313.2 797.1 3294.2 843.7 3279.2 873.8 3279 899.6 3281.9 927.3 3282.3 Z" data-holc_grade="D"/>
<path d="M 2082 2841.3 2021.3 2867 2009.6 2811.5 1999.7 2800.7 2045.4 2746 2072 2729.4 2092.8 2704.6 2140.2 2676.4 2138.5 2716.2 2120.2 2759.2 2082 2841.3 Z M 1718.2 2752.7 1715.5 2794.7 1755 2802.2 1802.9 2808 1839.2 2810.2 1841.9 2827.8 1845.5 2849 1851.7 2870.3 1870.7 2868 1883.2 2890.1 1905.8 2929.9 1924 2978.1 1924.9 3007.2 1877.9 3010.3 1855.7 3016.5 1840.2 3023.1 1836.6 2990.9 1824.6 2959.1 1812.7 2930.4 1805.6 2909.1 1806.4 2844.2 1760.7 2843.8 1752.1 2857.8 1746.9 2844 1654.1 2875.7 1591 2828.1 1536.2 2786 1532.1 2733.5 1527.9 2725.2 1518.2 2701.8 1513.4 2690 1549.4 2615.5 1559.8 2616.7 1570.4 2620.2 1584.2 2624.6 1592.2 2629 1605 2640.1 1612.6 2652 1607.3 2694 1663.1 2695.7 1714.6 2694.4 1714.2 2748.8 1718.2 2752.7 Z" data-holc_grade="D"/>
</g>
</svg>