<?xml version="1.0"?>
<svg xmlns="http://www.w3.org/2000/svg" version="1.2" baseProfile="tiny" width="3000" height="2955" viewBox="0 0 3000 2955" stroke-linecap="round" stroke-linejoin="round">
<g id="A">
<path d="M 2363.6 164.7 2345.6 173.1 2347.7 198 2324 202.3 2325.3 209.6 2331.2 211.8 2332.5 229.4 2349.7 228.2 2350.7 246 2354.1 256.2 2356 283.3 2355.8 283.3 2354.7 283.3 2319.6 274.2 2303.4 271.6 2279.3 270.9 2276 220.7 2270.3 182.7 2349 161.3 2363.6 164.7 Z" data-holc_grade="A"/>
<path d="M 2490.8 613.9 2488.5 622.7 2480.2 621.1 2470.2 620.5 2458.6 615.8 2451.5 617.1 2449.4 622.9 2446.4 636.4 2441.8 641.9 2428.9 652.9 2416.9 654.6 2410.9 658.1 2404.6 663.4 2388.7 666.2 2389.5 654.9 2387.8 593.3 2389.6 592.6 2398.1 589.4 2424.2 605.9 2439.9 619.2 2439.7 595.6 2412.3 570.3 2418.3 548.3 2436.2 555.3 2447.6 509.6 2428.4 501.1 2473.6 445.3 2491.4 416.8 2508.2 379.7 2512.5 370.9 2531.9 386.5 2517.4 408.6 2516.2 417.6 2521.6 450.4 2521.6 534.2 2487.9 588.3 2486.6 596.7 2487 608.7 2490.8 613.9 Z" data-holc_grade="A"/>
<path d="M 2327.7 754.4 2374.3 740.3 2377.1 740.3 2428.8 739.6 2454 757.7 2456.1 766.6 2469.5 776.4 2477.2 790.2 2466.8 808.7 2460.6 813.7 2451.8 815.6 2448.6 820.5 2447.6 828.6 2439 842.6 2430.8 849.4 2423.8 878.8 2394.5 883.3 2375.6 881.8 2373.4 889.1 2364 895 2352.1 905.2 2348.2 912.2 2347.3 920.6 2351.9 928.2 2362.5 934.3 2373.6 938.5 2381.5 938.9 2375.6 948.6 2348.5 982 2336.8 965.5 2326.6 977 2302.8 1012.9 2276.1 1052 2275.9 1059.2 2279.3 1068.1 2330.2 1104.2 2327.7 1104.6 2314.4 1166.5 2294.5 1185.1 2289.9 1191.7 2281.7 1201.7 2243.2 1239.1 2242.1 1240.4 2242.4 1229.2 2239.4 1223.3 2239.6 1206.6 2233.6 1199.6 2231.6 1193.1 2223.8 1202.3 2208.8 1214.9 2199.4 1218.3 2195.6 1216.9 2188.9 1197.2 2181 1184.9 2186.3 1159.4 2192.6 1140.1 2183.6 1104.1 2190 1060.7 2184.1 1064.4 2175.1 1073.2 2168.1 1075.5 2162.5 1074.9 2147.9 1044.3 2148.1 1029.4 2159.7 1024.4 2170.3 1011.8 2177.8 991.4 2175.5 981.4 2157.2 972.4 2140.3 936.6 2114.1 902.5 2114 892.2 2142.8 885.9 2149.4 868 2151.7 843 2159.2 841.2 2179.7 813.2 2212.1 813.6 2312.8 820.1 2313.3 812.3 2306.3 798.3 2302.7 779.7 2308.3 771.2 2323.9 762.1 2327.7 754.4 Z" data-holc_grade="A"/>
<path d="M 2337.7 403.1 2341.5 420.3 2345.2 449.3 2346 480.9 2318.7 488.8 2317.8 502.5 2287.7 513.2 2279.1 508.7 2264.4 400 2286.8 397.5 2290.3 411.3 2337.7 403.1 Z" data-holc_grade="A"/>
</g>
<g id="B">
<path d="M 2030 428.1 2021.9 411 2040 403.2 2060.1 394.5 2078.2 387.2 2122.7 387 2162.1 380.6 2194.7 375.3 2202.7 372 2252.9 361.6 2258.9 400.6 2264.4 400 2279.1 508.7 2287.7 513.2 2286.9 538.1 2277 539.4 2263.6 542.6 2249.4 550.4 2242.1 556 2225.6 576.1 2187 555.1 2162.3 522.1 2132.6 503.8 2081.9 478.3 2032.1 432.7 2030 428.1 Z" data-holc_grade="B"/>
<path d="M 2037.3 1534.1 1997.5 1592.3 1980.7 1576.3 1974.4 1571.6 1988.9 1558.1 1973.7 1548.3 1953.1 1535.8 1943.7 1532.4 1964.5 1484.8 1962.7 1474.1 1971.7 1468.1 2005.4 1455.2 2011 1460.3 2016.2 1515.3 2035.4 1532.2 2037.3 1534.1 Z" data-holc_grade="B"/>
<path d="M 1910.3 1698.6 1938 1672.9 1938.5 1664.7 1941.6 1659.5 1944.7 1657.7 1946.1 1658.5 1949.8 1660.6 1955.1 1661.5 1965.6 1646.4 1971.3 1649.8 1989.3 1649.4 2000.3 1651.8 2007.5 1656.4 2028.1 1676.7 2037.2 1680.2 2045.9 1686.1 2054.1 1695.4 2067.1 1702.3 2072.5 1702.6 2080.7 1709.1 2027.3 1762.3 2023.2 1758.1 1986.5 1762.4 1963.3 1742.4 1910.3 1698.6 Z" data-holc_grade="B"/>
<path d="M 1534.9 1971.2 1573.3 1966.2 1586.6 1943.1 1590.2 1931.3 1599.1 1925.5 1608.7 1925.7 1628.9 1927.7 1644.4 1928.9 1665.8 1914.9 1672.4 1907.1 1703.3 1933.2 1727 1962.5 1742.3 1982 1755.7 1996.7 1740.6 2013 1706.2 2046 1683.9 2071.8 1678.7 2070.2 1663.1 2055.8 1652.3 2069.9 1639.9 2056.2 1636.8 2039.3 1622.6 2033 1598.3 2043.2 1598.1 2049.6 1593.5 2079.8 1590.2 2086.8 1576.6 2087.1 1530.3 2132.8 1502.1 2097.6 1503.7 2092.8 1508.6 2090.8 1509.9 2085.9 1460.3 2021.3 1481.9 2007.3 1506.5 1987.3 1531 1971.7 1534.9 1971.2 Z" data-holc_grade="B"/>
<path d="M 1461.1 2341.7 1466 2336.3 1478.9 2333.5 1495.3 2325.2 1511.1 2311.3 1518.6 2298.4 1545.7 2329.3 1533.2 2342.8 1514.3 2356.2 1486.8 2373.5 1461.1 2341.7 Z" data-holc_grade="B"/>
<path d="M 849.2 2429.8 848.5 2428.3 840.4 2433.3 830.5 2412.4 822.4 2420.1 812.7 2389.7 810.2 2381.4 826 2369.3 858.4 2353.4 854.1 2339.2 853.3 2338 874.5 2329.6 888.5 2355.2 892.9 2371.7 896.4 2382.5 887.6 2395.4 874.3 2408.1 849.2 2429.8 Z" data-holc_grade="B"/>
<path d="M 2944.5 806.8 2937.8 804.5 2912.9 758.6 2940.7 748.1 2947.1 729.5 2964.5 723.3 2986.6 761.4 2999 788 2973.2 796.9 2944.5 806.8 Z" data-holc_grade="B"/>
<path d="M 2650.6 267.9 2643.1 298.2 2638.7 300.3 2634.7 298.5 2632.9 291 2628.9 288.2 2623.6 290.3 2620.9 295.6 2630.2 319.8 2628.2 324.9 2624.5 327.2 2614.3 323.8 2604.7 310.5 2596.9 320.1 2625.5 362.4 2608.8 389.8 2592.9 415.7 2587.8 421.6 2582.5 436.1 2575.9 442.7 2569.6 444.5 2558 442.5 2550.7 434.9 2549.4 420 2551.9 405.5 2555.8 395.9 2564 386 2533.9 357.4 2565.9 304.4 2563.7 299 2579.9 272 2588.9 264.7 2595.1 267.9 2600.8 267.7 2619.8 258.7 2635 240.7 2639.5 244.5 2647.9 231 2658.5 221.5 2664.3 219.3 2667.5 221.8 2667.1 232.6 2657.8 243.9 2653.7 250.1 2650.6 267.9 Z" data-holc_grade="B"/>
<path d="M 1769.2 475.7 1764.2 532 1747.1 636.3 1658 624.7 1671.4 521.1 1680.2 458.7 1722 469.5 1769.2 475.7 Z" data-holc_grade="B"/>
<path d="M 1973.4 662.3 1961.7 664.4 1918.8 667.3 1875.9 668.4 1863.7 536.2 1901.2 530.3 1942.8 527.7 1974.7 524.2 1988.6 559.4 1990.7 579.2 1987 597.6 1982.7 609.9 1978.4 613.9 1967.1 609.4 1973.4 662.3 Z" data-holc_grade="B"/>
<path d="M 2389.6 592.6 2387.8 593.3 2389.5 654.9 2388.7 666.2 2385.3 692.7 2382.3 700 2380.6 713.5 2363.4 723.2 2337.5 687.4 2319 669.8 2308.9 650.9 2296.4 634.6 2319 613.6 2353.8 567.5 2377.7 581.8 2389.6 592.6 Z" data-holc_grade="B"/>
<path d="M 2270.3 182.7 2276 220.7 2279.3 270.9 2303.4 271.6 2319.6 274.2 2354.7 283.3 2355.8 283.3 2356 283.3 2366.8 283.2 2378.4 284.7 2383.6 290.7 2392.9 296.4 2393 302.1 2399.1 305.3 2411.2 309.7 2426.3 308.8 2437.3 310.2 2458.3 307.7 2469.1 301.2 2472.5 303.3 2481.5 318.6 2492.1 318.8 2516 340.2 2519.9 343.9 2512.1 357 2490.8 359.7 2454 348.3 2407.5 338.1 2391 335.7 2389.8 333.3 2373.3 334.6 2375.1 371.4 2363.1 372.7 2364.3 398.6 2337.7 403.1 2290.3 411.3 2286.8 397.5 2264.4 400 2258.9 400.6 2252.9 361.6 2202.7 372 2197 334.9 2196.4 318.1 2219.5 312.7 2212.4 278.9 2211.3 253.4 2206.9 221.8 2236.7 218 2218 93.9 2253.3 87.2 2263.4 136.5 2270.3 182.7 Z" data-holc_grade="B"/>
<path d="M 2348.5 982 2353.8 986.1 2383.6 1002 2406.2 1013 2432.4 1027.8 2395.5 1053.1 2350.9 1086.8 2342.3 1092.6 2333.1 1103.8 2330.2 1104.2 2279.3 1068.1 2275.9 1059.2 2276.1 1052 2302.8 1012.9 2326.6 977 2336.8 965.5 2348.5 982 Z" data-holc_grade="B"/>
<path d="M 2753.6 930.7 2758.8 942 2760.8 951.4 2763.2 989.2 2755.5 1001.8 2745.3 1007 2730.8 1008 2702 1000.9 2686.5 994.4 2656.2 991.8 2627.5 994.1 2590.1 1010.9 2573 974.6 2571 963.6 2580.9 958.7 2588.9 936.9 2611.5 932.4 2630.9 929.4 2640.2 924 2648.6 910.8 2643.4 905.8 2633 893.6 2623.7 881 2612.9 852.4 2632.2 812.9 2640.5 821.1 2659.9 832.7 2669.2 870.9 2703.5 859.3 2753.1 929.5 2753.6 930.7 Z" data-holc_grade="B"/>
<path d="M 2195.1 1546.2 2159.2 1519.5 2101.9 1472.5 2123.2 1453.2 2072.4 1415.3 2087.7 1394.9 2092.4 1389.5 2123.7 1375.6 2137.9 1355.9 2138.1 1348.3 2189.5 1384.4 2155.1 1421 2184.2 1446.1 2217.7 1473.5 2238.4 1488.5 2195.1 1546.2 Z" data-holc_grade="B"/>
</g>
<g id="C">
<path d="M 2642 36.3 2675.5 88.2 2675.9 94.3 2668 103.7 2681.3 125.9 2675.4 128.5 2650 133.5 2663.4 171 2619.5 177.3 2619.6 193.8 2553.2 206.4 2540.2 208.1 2538.5 201.9 2548.3 133.9 2562.8 132.9 2559.2 93.2 2569.4 83.2 2540.7 39.9 2555.4 32.5 2565 29.3 2580.4 28.3 2633.6 48.8 2642 36.3 Z" data-holc_grade="C"/>
<path d="M 2532 639.5 2533.1 642.4 2528.9 659.7 2529.8 668.8 2532.2 679.9 2540 695.3 2537.8 701.9 2530.6 713.7 2519.2 736.4 2502 758.6 2499.7 762.3 2482.7 751 2434.3 710.8 2441.8 702.3 2455 687.2 2486.9 713.7 2505.2 680.5 2482.4 661.5 2488.5 622.7 2490.8 613.9 2532 639.5 Z" data-holc_grade="C"/>
<path d="M 2923.7 826.7 2902.3 788 2871 811.8 2831.2 829.7 2819.1 830.1 2801.6 877.1 2787.5 911.1 2758.8 848.3 2806 823 2787.8 793.7 2765.7 749.4 2903.2 660.1 2917.3 654.4 2939.2 687.3 2939.1 697.9 2949.1 698.3 2960 711.9 2964.5 723.3 2947.1 729.5 2940.7 748.1 2912.9 758.6 2937.8 804.5 2944.5 806.8 2950.1 818.1 2923.7 826.7 Z" data-holc_grade="C"/>
<path d="M 2763.2 989.2 2760.8 951.4 2758.8 942 2753.6 930.7 2786.3 914.1 2787.5 911.1 2801.6 877.1 2859.9 895.7 2867.1 866.7 2870.5 860.6 2913.8 942.2 2930.9 979.7 2917 980.3 2903.9 984.9 2869.9 993 2861.7 983.7 2782 1017.8 2769.7 1011.5 2763.2 989.2 Z" data-holc_grade="C"/>
<path d="M 2588.9 936.9 2588.2 921.6 2582.2 911.8 2612.9 852.4 2623.7 881 2633 893.6 2643.4 905.8 2648.6 910.8 2640.2 924 2630.9 929.4 2611.5 932.4 2588.9 936.9 Z" data-holc_grade="C"/>
<path d="M 2582.2 911.8 2588.2 921.6 2588.9 936.9 2580.9 958.7 2571 963.6 2573 974.6 2590.1 1010.9 2575.4 1024 2563.2 1038.1 2547 1028.1 2530.2 1032.6 2518.2 1058.5 2511.4 1077.8 2489.7 1102.1 2509.4 1118.6 2533.8 1134.7 2510 1172.4 2533.2 1187 2519.2 1205.3 2547.9 1225.3 2542.3 1236.2 2570.5 1254.6 2553.3 1276.2 2529.1 1312.2 2467.5 1274 2440.2 1255.6 2362 1203.8 2327.5 1183.1 2307.5 1204.7 2289.9 1191.7 2294.5 1185.1 2314.4 1166.5 2327.7 1104.6 2330.2 1104.2 2333.1 1103.8 2342.3 1092.6 2350.9 1086.8 2395.5 1053.1 2432.4 1027.8 2406.2 1013 2383.6 1002 2353.8 986.1 2348.5 982 2375.6 948.6 2381.5 938.9 2373.6 938.5 2362.5 934.3 2351.9 928.2 2347.3 920.6 2348.2 912.2 2352.1 905.2 2364 895 2373.4 889.1 2375.6 881.8 2394.5 883.3 2423.8 878.8 2430.8 849.4 2439 842.6 2447.6 828.6 2448.6 820.5 2451.8 815.6 2460.6 813.7 2466.8 808.7 2463.1 850.6 2460.7 923.9 2456.9 956.6 2464.9 969.3 2472.9 969.4 2482.9 954.1 2492 943.2 2503.2 934.8 2543.6 941.2 2571.8 933.8 2582.2 911.8 Z" data-holc_grade="C"/>
<path d="M 2307.5 1204.7 2285.9 1228.6 2297.5 1237.6 2326 1264.3 2342.9 1284.6 2382 1319.6 2354.1 1349.8 2289.6 1429 2394.6 1501.6 2461.6 1546.2 2476.5 1551 2470.5 1562.9 2464.2 1567.8 2452.2 1565.5 2444.2 1561.5 2427.7 1588 2276.1 1488.4 2244.4 1530.3 2219.1 1562.5 2200.2 1550 2195.1 1546.2 2238.4 1488.5 2217.7 1473.5 2184.2 1446.1 2155.1 1421 2189.5 1384.4 2138.1 1348.3 2132.9 1346.5 2133.2 1330.5 2135.3 1325.9 2141.5 1321.2 2150.7 1317.8 2165 1308.2 2170.6 1308.2 2185.1 1302.9 2198.5 1296.6 2203.6 1292.3 2207.6 1281.7 2217.1 1276.7 2227.9 1269.1 2230.3 1261.4 2234.6 1248.9 2242.1 1240.4 2243.2 1239.1 2281.7 1201.7 2289.9 1191.7 2307.5 1204.7 Z" data-holc_grade="C"/>
<path d="M 2087.7 1394.9 2072.4 1415.3 2123.2 1453.2 2101.9 1472.5 2159.2 1519.5 2195.1 1546.2 2200.2 1550 2102.9 1678.4 2019.8 1612.2 2058.9 1556.2 2037.3 1534.1 2035.4 1532.2 2016.2 1515.3 2011 1460.3 2005.4 1455.2 1995.1 1446 1957.2 1440.2 1955.3 1432.6 1951.5 1425.7 1946.7 1423.1 1931.6 1422.7 1935.2 1398.3 1935.7 1377.2 1939.6 1374.8 2006.1 1395.3 2007.9 1384.4 2038.4 1362.9 2010.8 1318.1 2023.5 1301.8 2062.5 1333 2072.3 1382.9 2087.7 1394.9 Z" data-holc_grade="C"/>
<path d="M 2147.5 1803.1 2125.5 1815.3 2105.2 1826.3 2027.3 1762.3 2080.7 1709.1 2086.5 1716 2090.8 1723.3 2096.4 1728 2106.1 1730.3 2113.9 1738.1 2122.3 1749.4 2131.1 1754.6 2139.9 1757.4 2149.6 1767 2152 1772.6 2151.2 1790.4 2147.5 1803.1 Z" data-holc_grade="C"/>
<path d="M 1732.2 1510.8 1821.7 1493.2 1867.3 1486.2 1907.8 1466.6 1927.7 1453.2 1929.8 1452.9 1933.7 1452.2 1957.2 1440.2 1995.1 1446 2005.4 1455.2 1971.7 1468.1 1962.7 1474.1 1920.2 1491 1891.8 1498.3 1812.5 1511.4 1812.8 1524.9 1815.3 1547.9 1820.3 1566.2 1792.8 1569.5 1799 1605.5 1808.9 1622 1847.7 1616.5 1845.5 1600.4 1846.8 1596.7 1867.2 1593.7 1922.9 1614.2 1906.3 1642.5 1953.9 1646.9 1946.1 1658.5 1944.7 1657.7 1941.6 1659.5 1938.5 1664.7 1938 1672.9 1910.3 1698.6 1886.4 1720.9 1880.6 1712.4 1865.1 1696.7 1847.4 1681.5 1839.7 1680.4 1753.5 1625.5 1673 1572.1 1687.4 1551 1688.4 1534.9 1709.1 1533.7 1707.8 1515.1 1721.4 1512.9 1732.2 1510.8 Z" data-holc_grade="C"/>
<path d="M 1590.2 1931.3 1586.6 1943.1 1573.3 1966.2 1534.9 1971.2 1530 1946.5 1518.9 1909.3 1503.2 1861.2 1548.5 1848.3 1518 1762.8 1555.3 1751.2 1562.9 1768 1578.1 1802 1590.3 1835.2 1601.5 1864.6 1603.4 1873.2 1576.3 1882.3 1590.2 1931.3 Z" data-holc_grade="C"/>
<path d="M 2635 240.7 2619.8 258.7 2600.8 267.7 2595.1 267.9 2588.9 264.7 2579.9 272 2563.7 299 2565.9 304.4 2533.9 357.4 2519.9 343.9 2516 340.2 2492.1 318.8 2481.5 318.6 2472.5 303.3 2521.1 280.4 2518.5 272.9 2536.4 260.4 2572.3 239.4 2590.6 249.4 2602.4 242.5 2626.6 231.3 2635 240.7 Z" data-holc_grade="C"/>
<path d="M 1710.3 2125.3 1666.5 2092.9 1650.1 2110.2 1615 2176.2 1533.1 2269.4 1485.7 2237 1462.3 2209.2 1453.4 2195.4 1467.9 2184.4 1475.8 2194.2 1523.9 2160.8 1542.3 2143.8 1530.3 2132.8 1576.6 2087.1 1590.2 2086.8 1593.5 2079.8 1598.1 2049.6 1598.3 2043.2 1622.6 2033 1636.8 2039.3 1639.9 2056.2 1652.3 2069.9 1663.1 2055.8 1678.7 2070.2 1683.9 2071.8 1706.2 2046 1740.6 2013 1766.9 2033.7 1771.4 2038.4 1762.8 2049.6 1757.8 2054 1755 2061.5 1731.5 2083.2 1721.3 2096 1714.5 2112.3 1712.8 2122.6 1710.3 2125.3 Z" data-holc_grade="C"/>
<path d="M 1418.8 2360.6 1366.7 2391.1 1338.1 2333 1361.5 2319.3 1356 2306.1 1382.6 2292.1 1418.8 2360.6 Z M 1400.4 2181.3 1347.8 2229.9 1308.3 2161.1 1308.6 2124.3 1258.4 2090.6 1287.7 2046.2 1310.1 2042.5 1296.4 1969.6 1288.2 1905.5 1322.4 1900.9 1310.9 1825.1 1363.8 1788.6 1371 1824.1 1385.2 1927.9 1402.8 2024.7 1357 2041.3 1354.6 2046.7 1355.7 2056.9 1362.2 2072.2 1377.3 2093.9 1425.8 2156.9 1400.4 2181.3 Z" data-holc_grade="C"/>
<path d="M 1295 2424.9 1276.9 2426.6 1261.4 2424 1236.2 2420.3 1221.7 2394.1 1268.5 2360.4 1295 2413.7 1295 2424.9 Z M 1223.7 2000.4 1220.1 2027.4 1212 2041.3 1191.8 2062.5 1241.2 2089 1219.9 2123.7 1257.3 2180.4 1217.2 2209.2 1190.6 2223.8 1155.7 2248.5 1180.7 2298.5 1133.5 2326.3 1126.8 2328.2 1113.4 2301.6 1133.7 2292.8 1110.7 2258 1092.9 2265.7 1066.3 2216 1097.2 2204.1 1108.1 2230.3 1126.1 2220.6 1172.1 2163.5 1176.5 2141 1173.4 2134.2 1166.9 2132.7 1140.3 2142.5 982.9 2031.9 994.7 2013.5 980.4 2003.9 980.6 2001.7 1010.9 1979.4 1019.8 1959.2 1022.4 1952.7 1129.4 2018.7 1165.8 1967.3 1166.9 1952.3 1216.4 1943.7 1220.7 1960.9 1223.7 2000.4 Z" data-holc_grade="C"/>
<path d="M 959.3 2314.7 972.4 2338.8 1012 2318.3 1030.6 2345.5 1045.2 2376.1 1010.1 2398.2 1025 2429.9 1037.1 2456.2 1024.1 2463.6 997.6 2414.7 975.3 2372.5 967 2376.7 954.2 2351.2 941.4 2325 959.3 2314.7 Z M 853.3 2338 854.1 2339.2 858.4 2353.4 826 2369.3 810.2 2381.4 812.7 2389.7 822.4 2420.1 830.5 2412.4 840.4 2433.3 848.5 2428.3 849.2 2429.8 908.4 2549 879.6 2567 855.4 2577 844 2580 836.5 2581.9 786.9 2608.3 781 2614.4 757.4 2626.6 727.6 2640.7 659.5 2699.2 616.1 2530.2 570.5 2535.9 575.5 2506 552.7 2503.7 527.4 2496.5 531.4 2471.8 530.8 2441.2 533.7 2414.9 517.4 2336.9 489.6 2333.8 499.7 2250.3 561.2 2251.6 584.6 2362 603.1 2410.1 603.8 2417.6 657.7 2408.9 714.3 2404.5 715.4 2388.5 764.8 2371.9 759.9 2351.5 751.7 2332.2 748.6 2316.6 733 2322 723.7 2283.9 709.7 2226.4 698.8 2174.5 687.5 2120.7 707.4 2120.2 727.2 2117 731.3 2133.8 733.5 2151.8 752.1 2144.3 766.8 2189.4 791.6 2261 849.8 2241.5 844.4 2222.8 866 2214.4 915 2196.3 887.7 2128 898.5 2122.1 927.3 2114.2 931 2123.3 966.6 2110.3 973.4 2126.7 939.6 2139.6 970.5 2230.3 936.2 2235.3 950.9 2279.2 879.6 2307 864.3 2275 831.1 2285.4 835.2 2310.1 853.3 2338 Z" data-holc_grade="C"/>
<path d="M 76.7 2705.8 96.5 2733.7 108.9 2729.5 133.3 2723.8 146.7 2710.9 160.6 2704.7 168 2700.2 173.7 2693.6 179.1 2688.6 190.1 2682 200.2 2673.6 205.7 2665.4 239.6 2700.5 250.2 2691.7 259.4 2686.1 268.9 2674.4 312.6 2638.7 312.1 2635.2 337.2 2609.6 345.2 2656 361.3 2729.8 332.1 2736.3 339.7 2773.9 349.3 2809.2 316.6 2824.2 264.2 2838.4 282.9 2924.7 277.9 2926.5 257.7 2936.5 188.6 2954.2 186 2939.6 160.1 2846.4 148.5 2812.4 113.1 2821.5 84.6 2827.2 48.1 2836.1 36.7 2837.1 9.8 2846.3 1 2783.3 7.8 2786.3 29.2 2786.4 47.8 2733.3 53.2 2730.5 52.5 2723.4 76.7 2705.8 Z" data-holc_grade="C"/>
<path d="M 2393.5 214.6 2391.2 196.6 2378.7 198.2 2375.4 167.5 2363.6 164.7 2349 161.3 2343.9 110.8 2373.6 107.8 2400.5 104.8 2427.2 101.1 2455.5 91.4 2458.7 111.5 2502 97.3 2505.6 117.8 2513.2 124.4 2513.9 151.6 2519.6 154.4 2519.8 159.1 2516.4 163.9 2508.4 167.5 2505.9 171.4 2507.2 177.1 2512.7 191.5 2493 198.1 2465.8 205.6 2439.9 211.9 2410.8 212.4 2393.5 214.6 Z" data-holc_grade="C"/>
<path d="M 2469.1 301.2 2458.3 307.7 2437.3 310.2 2426.3 308.8 2411.2 309.7 2399.1 305.3 2393 302.1 2392.9 296.4 2383.6 290.7 2378.4 284.7 2391.3 263.8 2398.8 256.1 2407.9 252.6 2418.2 254.1 2435.8 262.2 2460.4 260 2472.8 269.2 2469.1 301.2 Z" data-holc_grade="C"/>
<path d="M 2030 428.1 2006.5 437.1 2015.8 462.7 2019 478.2 2037.5 519.3 2051.2 534.9 2062.6 550.6 2069.8 575 2114.7 575.7 2115.6 595 2128.9 684 2177.5 676 2231.3 659.5 2247.8 692.9 2247.3 700.5 2263.1 742.9 2208.8 744 2164.1 715.6 2094.1 723.5 2098.3 770.4 2074.4 777 2056.8 741.4 2051.4 703.2 2008.2 707.1 1993.4 660.5 1973.4 662.3 1967.1 609.4 1978.4 613.9 1982.7 609.9 1987 597.6 1990.7 579.2 1988.6 559.4 1974.7 524.2 1942.8 527.7 1901.2 530.3 1863.7 536.2 1861.7 504.2 1873 460.4 1876.2 440.4 1889.3 441.3 1923 431.1 1990.8 418.6 2021.9 411 2030 428.1 Z" data-holc_grade="C"/>
<path d="M 1948.2 270.7 1958.8 267.4 1991.5 265.3 1990.2 246.4 2022.5 246.6 2026.4 283.7 2050.5 281.3 2091.1 273.8 2117.2 275.1 2146.4 274 2139.3 241.2 2138 219.8 2134.4 211.4 2129.7 185.9 2122.9 148.4 2118 128 2119.5 119.3 2147.4 95.4 2151.5 87.7 2161.6 76.1 2230.5 60.7 2243.6 77 2250.9 77 2253.3 87.2 2218 93.9 2236.7 218 2206.9 221.8 2211.3 253.4 2212.4 278.9 2219.5 312.7 2196.4 318.1 2197 334.9 2202.7 372 2194.7 375.3 2162.1 380.6 2122.7 387 2078.2 387.2 2060.1 394.5 2040 403.2 2021.9 411 1990.8 418.6 1923 431.1 1889.3 441.3 1876.2 440.4 1862.3 438 1827.7 431.9 1806.2 453.6 1785.6 477.8 1769.2 475.7 1722 469.5 1680.2 458.7 1699.4 449.8 1702.6 445.8 1705.7 401.8 1764.4 328.5 1771.8 319.2 1761.8 313 1730.2 296.9 1686.8 282.8 1700.1 227.4 1735.7 226.7 1748.7 228.5 1776.7 230 1805.5 231.5 1825.1 228.5 1850.9 185.4 1865.8 194.4 1881.7 207 1885.4 223.7 1881.7 235.7 1879.4 254.4 1883.7 270.3 1890.8 274.5 1902.8 280.5 1908.2 287.4 1910.2 299.2 1949.7 290.8 1948.2 270.7 Z" data-holc_grade="C"/>
<path d="M 1876.2 440.4 1873 460.4 1861.7 504.2 1863.7 536.2 1875.9 668.4 1880.3 719.3 1862.7 721.1 1817.3 721.4 1794.8 723.8 1769.3 734 1698 749.3 1638.5 767.3 1644.3 721.8 1633.1 720.7 1639.3 667.8 1602.9 663.2 1608.8 630.3 1611.2 616.6 1616.7 616.6 1642 498.2 1642.5 495.5 1646.5 471.2 1652.9 470.2 1680.2 458.7 1671.4 521.1 1658 624.7 1747.1 636.3 1764.2 532 1769.2 475.7 1785.6 477.8 1806.2 453.6 1827.7 431.9 1862.3 438 1876.2 440.4 Z" data-holc_grade="C"/>
<path d="M 2074.4 777 2028.1 792.4 2027.8 826.9 1951.7 833.7 1897.9 839.4 1863.1 841.4 1861.8 774.2 1862.7 721.1 1880.3 719.3 1875.9 668.4 1918.8 667.3 1961.7 664.4 1973.4 662.3 1993.4 660.5 2008.2 707.1 2051.4 703.2 2056.8 741.4 2074.4 777 Z" data-holc_grade="C"/>
<path d="M 2353.8 567.5 2319 613.6 2296.4 634.6 2280.2 612.1 2262.1 585.8 2284.7 572 2321.3 554 2341.9 542.2 2346 547.3 2367.8 530.8 2383.1 534.9 2353.8 567.5 Z" data-holc_grade="C"/>
</g>
<g id="D">
<path d="M 2572.9 729.2 2566.4 744.4 2613.6 779.5 2638.7 797.9 2632.2 812.9 2612.9 852.4 2582.2 911.8 2571.8 933.8 2543.6 941.2 2503.2 934.8 2492 943.2 2482.9 954.1 2472.9 969.4 2464.9 969.3 2456.9 956.6 2460.7 923.9 2463.1 850.6 2466.8 808.7 2477.2 790.2 2481.1 782.9 2487.3 773.3 2494.9 770.3 2499.7 762.3 2502 758.6 2519.2 736.4 2530.6 713.7 2572.9 729.2 Z" data-holc_grade="D"/>
<path d="M 2363.4 723.2 2377.1 740.3 2374.3 740.3 2327.7 754.4 2263.1 742.9 2247.3 700.5 2247.8 692.9 2231.3 659.5 2249.4 654.4 2278.5 639.7 2296.4 634.6 2308.9 650.9 2319 669.8 2337.5 687.4 2363.4 723.2 Z" data-holc_grade="D"/>
<path d="M 2476.5 1551 2461.6 1546.2 2394.6 1501.6 2289.6 1429 2354.1 1349.8 2382 1319.6 2409.7 1343.9 2394.9 1360.6 2375.5 1388.4 2461.6 1443.7 2464.6 1441.5 2476.2 1428.1 2488.4 1434.4 2528.8 1465.5 2555.7 1465.2 2620.4 1416.4 2639.7 1433.2 2583.8 1485.2 2580.4 1491.4 2522 1545.5 2502 1536.5 2488.2 1534.9 2476.5 1551 Z" data-holc_grade="D"/>
<path d="M 2248 1573.6 2268 1587.5 2332.3 1623.8 2346.8 1634.2 2383.2 1663.6 2390.3 1666.4 2437.4 1693.3 2431.8 1701.8 2424.4 1698.9 2418.7 1700.8 2413.9 1708.7 2408.3 1723.9 2392.8 1738.7 2381.2 1748.6 2371 1754.2 2360.7 1754.6 2356.8 1764.8 2349.8 1766.9 2345.3 1769.7 2326.2 1760 2307.9 1742.6 2292.6 1733.8 2276.1 1753.8 2257.5 1781.6 2252.5 1792.2 2239.4 1777 2206.7 1759.7 2225.8 1735.1 2166.4 1706.5 2234.3 1596.3 2248 1573.6 Z" data-holc_grade="D"/>
<path d="M 1931.6 1422.7 1930.9 1427.4 1929.8 1452.9 1927.7 1453.2 1907.8 1466.6 1867.3 1486.2 1821.7 1493.2 1732.2 1510.8 1720.9 1471.8 1716.4 1446.3 1742.1 1442.5 1786.4 1437.9 1830.4 1432.5 1880.5 1405.8 1920.8 1384.2 1935.7 1377.2 1935.2 1398.3 1931.6 1422.7 Z" data-holc_grade="D"/>
<path d="M 930 1156.6 941.2 1123.1 949.5 1104.2 961.6 1077.6 989.7 1040.7 1023.9 1062.2 1059.8 1057.6 1083 1033.6 1069 1023.5 1115.1 975.7 1138.4 998.7 1110.6 1024.6 1136.5 1055.9 1086.6 1114.4 1077.2 1128.5 1068.2 1154 1063.9 1166 1056.9 1173 1045.4 1180.7 1037.3 1198.2 1032.5 1215.5 973.6 1262.5 953.3 1249.1 947.1 1254.1 883.2 1248.9 874.9 1252.3 870.4 1230.7 855.9 1223.7 850.5 1214.4 895.2 1183.5 930 1156.6 Z" data-holc_grade="D"/>
<path d="M 2105.2 1826.3 2125.5 1815.3 2147.5 1803.1 2161.7 1811.2 2191.3 1840.2 2253.1 1899 2246.3 1914 2241.1 1917 2236.1 1926.4 2232.7 1936.1 2221.1 1949.8 2217.4 1965.7 2212.9 1969.6 2200.8 1993.4 2190.1 2005 2176.7 1998.8 2165.9 1986.8 2155.1 1969.2 2142.4 1959.5 2122.2 1953.5 2114.6 1948.4 2107.7 1935.9 2086.8 1930.2 2088.7 1898 2086.8 1862.8 2098.2 1830.1 2105.2 1826.3 Z" data-holc_grade="D"/>
<path d="M 1710.3 2125.3 1710.9 2186.1 1708.1 2199.1 1704.1 2207 1700.5 2207.3 1698.7 2202.8 1697.9 2198.8 1691.8 2202.4 1674.5 2225.4 1674 2229.7 1679.7 2236.6 1668.6 2253.8 1653.4 2255.4 1640.9 2246.3 1635.4 2247.2 1632.9 2258.9 1623.4 2267.7 1616.6 2281 1609 2287.3 1593.9 2295.4 1588.2 2310.9 1581.1 2310.6 1537.5 2277.3 1533.1 2269.4 1615 2176.2 1650.1 2110.2 1666.5 2092.9 1710.3 2125.3 Z" data-holc_grade="D"/>
<path d="M 1060.1 2483.5 1052 2471.1 1136.8 2427.7 1146.5 2448.1 1154 2458.4 1153.7 2477.4 1155.8 2493 1159.6 2500.9 1173 2522.7 1188.7 2553.7 1185.3 2557.2 1177.2 2557.9 1161.9 2552.4 1152 2548.3 1143.2 2549.5 1136.9 2553.6 1129.7 2563.5 1122.4 2571.9 1116.1 2575.5 1110.2 2574.9 1090.6 2552 1054.3 2575.3 1038.3 2563.3 1009.7 2529.8 1017.8 2524.3 1010.3 2510.1 1060.1 2483.5 Z" data-holc_grade="D"/>
<path d="M 844 2580 855.4 2577 879.6 2567 908.4 2549 918.7 2572.8 926.6 2588.3 931.5 2625.2 933.8 2691.7 937.4 2700.8 946.5 2715.3 865.6 2728.9 870.5 2675 869.3 2637.7 835.8 2641.5 827.4 2642.1 844 2580 Z" data-holc_grade="D"/>
<path d="M 76.7 2705.8 139.1 2657.9 191.6 2613.6 234.5 2569.4 292.8 2617.2 312.1 2635.2 312.6 2638.7 268.9 2674.4 259.4 2686.1 250.2 2691.7 239.6 2700.5 205.7 2665.4 200.2 2673.6 190.1 2682 179.1 2688.6 173.7 2693.6 168 2700.2 160.6 2704.7 146.7 2710.9 133.3 2723.8 108.9 2729.5 96.5 2733.7 76.7 2705.8 Z M 410.7 2568.9 404.8 2572.3 395.6 2569.9 385.7 2571.3 381.4 2567.4 375.5 2553.6 367.4 2546.5 363.1 2542.9 360.4 2520.7 372.8 2520.7 386.1 2514.1 399.3 2512.3 410.7 2568.9 Z M 333.7 2455.9 327.2 2539.3 299.5 2533.5 303.2 2469.1 304.8 2452.6 317.2 2455.1 333.7 2455.9 Z" data-holc_grade="D"/>
<path d="M 2697.7 554.4 2695 568.6 2691.5 573.4 2664 592.6 2655.8 595.8 2586.1 663.1 2584.2 670.2 2583.4 690.1 2583.2 704.5 2572.9 729.2 2530.6 713.7 2537.8 701.9 2540 695.3 2532.2 679.9 2529.8 668.8 2528.9 659.7 2533.1 642.4 2532 639.5 2545.9 613.8 2547.1 596.4 2524.1 587.2 2528.8 563.3 2534.8 524.9 2558.2 532.6 2572.2 461.4 2575.9 442.7 2582.5 436.1 2587.8 421.6 2592.9 415.7 2608.8 389.8 2625.5 362.4 2596.9 320.1 2604.7 310.5 2614.3 323.8 2624.5 327.2 2628.2 324.9 2630.2 319.8 2620.9 295.6 2623.6 290.3 2628.9 288.2 2632.9 291 2634.7 298.5 2638.7 300.3 2643.1 298.2 2650.6 267.9 2660.5 268.3 2672.7 272.1 2674.5 276.7 2682.8 279.7 2691 278 2692.5 273.7 2701.2 272.5 2707.4 267.1 2718.1 263.7 2730 291 2711.6 349 2700.6 372.4 2699.4 387.4 2705 404.9 2718.1 439.6 2730.5 459 2735.4 470.8 2717.7 462.9 2719.9 485.8 2693.1 499.2 2679.2 502.8 2673.3 487.6 2667.8 492 2669.2 502.6 2673.7 509.5 2684.2 532.9 2697.7 554.4 Z" data-holc_grade="D"/>
<path d="M 189.6 2201.1 203.4 2206 212 2204.7 271.1 2216 281.9 2222 291.3 2233.9 297.5 2240.7 301.4 2246.5 301.1 2253.2 297.5 2259.1 289.3 2267.6 283.7 2274.4 278.9 2283.4 270.6 2284.5 262.5 2288.8 255.3 2294.4 248.9 2296.4 243.4 2294.9 239.7 2292 235.5 2281.8 210.9 2273.4 208.8 2263.3 203.4 2255.6 199.8 2248.6 193.8 2231.2 188.6 2211 187.5 2207 189.6 2201.1 Z M 365.4 2139.2 353.4 2206.7 285.7 2188.2 293.8 2141.5 345.5 2140 365.4 2139.2 Z" data-holc_grade="D"/>
<path d="M 439.2 2100.2 518.3 2083.8 552.8 2078.2 579.9 2164.5 572.7 2199.1 477.5 2208.2 470.8 2212.3 453.6 2156.3 439.2 2100.2 Z" data-holc_grade="D"/>
<path d="M 563.3 1861.1 570.3 1857.9 586.1 1851.1 596.9 1847 610.3 1839.9 635.1 1837.9 651.4 1888.2 677.5 1876.4 701.5 1938.7 682.8 1947.3 660 1953.5 651.8 1927.6 556.8 1953.1 545.8 1920.7 544.8 1909.4 559 1892.1 563.3 1861.1 Z" data-holc_grade="D"/>
<path d="M 2870.5 860.6 2867.1 866.7 2859.9 895.7 2801.6 877.1 2819.1 830.1 2831.2 829.7 2871 811.8 2902.3 788 2923.7 826.7 2907.2 835.7 2870.5 860.6 Z" data-holc_grade="D"/>
<path d="M 2642 36.3 2633.6 48.8 2580.4 28.3 2565 29.3 2555.4 32.5 2540.7 39.9 2569.4 83.2 2559.2 93.2 2562.8 132.9 2548.3 133.9 2538.5 201.9 2540.2 208.1 2553.2 206.4 2619.6 193.8 2619.5 177.3 2663.4 171 2650 133.5 2675.4 128.5 2681.3 125.9 2691.2 121.6 2695.2 126.7 2703.2 178.3 2706.6 202.8 2706.4 218.9 2710.6 235.1 2718.1 263.7 2707.4 267.1 2701.2 272.5 2692.5 273.7 2691 278 2682.8 279.7 2674.5 276.7 2672.7 272.1 2660.5 268.3 2650.6 267.9 2653.7 250.1 2657.8 243.9 2667.1 232.6 2667.5 221.8 2664.3 219.3 2658.5 221.5 2647.9 231 2639.5 244.5 2635 240.7 2626.6 231.3 2602.4 242.5 2590.6 249.4 2572.3 239.4 2536.4 260.4 2518.5 272.9 2521.1 280.4 2472.5 303.3 2469.1 301.2 2472.8 269.2 2460.4 260 2435.8 262.2 2418.2 254.1 2407.9 252.6 2412.8 244 2396.2 239.5 2393.5 214.6 2410.8 212.4 2439.9 211.9 2465.8 205.6 2493 198.1 2512.7 191.5 2507.2 177.1 2505.9 171.4 2508.4 167.5 2516.4 163.9 2519.8 159.1 2519.6 154.4 2513.9 151.6 2513.2 124.4 2505.6 117.8 2502 97.3 2458.7 111.5 2455.5 91.4 2427.2 101.1 2400.5 104.8 2373.6 107.8 2343.9 110.8 2341.2 75.7 2347.7 69.1 2395.7 67.6 2427 62.1 2508 39.3 2517.1 35.2 2550.2 9.1 2562.8 2.4 2581.8 1 2592.9 4.4 2649.5 25.1 2642 36.3 Z" data-holc_grade="D"/>
<path d="M 2917.3 654.4 2903.2 660.1 2765.7 749.4 2728.4 767.5 2715.5 779.1 2699.2 809.5 2697.1 819.7 2667.9 820.7 2638.7 797.9 2696.5 679.6 2675 657.2 2682.6 633.3 2711.4 619.7 2714.7 614.4 2699.2 572.3 2695 568.6 2697.7 554.4 2719.5 536.7 2758.9 512.8 2804.9 559.7 2860.4 606.4 2898.6 628.7 2917.3 654.4 Z" data-holc_grade="D"/>
<path d="M 2533.2 1187 2510 1172.4 2533.8 1134.7 2509.4 1118.6 2489.7 1102.1 2511.4 1077.8 2518.2 1058.5 2530.2 1032.6 2547 1028.1 2563.2 1038.1 2575.4 1024 2590.1 1010.9 2627.5 994.1 2656.2 991.8 2686.5 994.4 2702 1000.9 2730.8 1008 2745.3 1007 2755.5 1001.8 2763.2 989.2 2769.7 1011.5 2782 1017.8 2861.7 983.7 2869.9 993 2903.9 984.9 2925.6 1027.2 2887.3 1044.4 2872.8 1058.6 2864.1 1076.6 2853.7 1092.3 2831.9 1105.3 2815.2 1105.5 2802.7 1103.2 2798.6 1116.7 2799.9 1133.8 2776.2 1143.7 2774.4 1153.6 2753.7 1177.6 2745.9 1165.4 2722.9 1166.4 2706 1186.2 2659.1 1153.2 2645.4 1155.2 2615.7 1097.4 2565.8 1075.4 2552.5 1117.3 2547.9 1140.2 2556.9 1154.3 2533.2 1187 Z" data-holc_grade="D"/>
<path d="M 1948.2 270.7 1943.3 239.1 1942 218.7 1958.4 218.1 2000.3 193.2 2025.1 162.8 2030.7 147.3 2041.8 143.5 2051.3 143 2059.5 149.2 2066.2 156.3 2071 154.6 2086.2 145.4 2119.5 119.3 2118 128 2122.9 148.4 2129.7 185.9 2134.4 211.4 2138 219.8 2139.3 241.2 2146.4 274 2117.2 275.1 2091.1 273.8 2050.5 281.3 2026.4 283.7 2022.5 246.6 1990.2 246.4 1991.5 265.3 1958.8 267.4 1948.2 270.7 Z" data-holc_grade="D"/>
<path d="M 1156.8 398.8 1124.3 434 1095.5 416.1 1085.4 409.9 1081.8 412.9 1070.4 412.5 1066.1 409 1061.2 404.1 1038.3 397.5 1020.3 377.1 1010.3 366.8 1043.3 320.2 1115.4 356.5 1138.9 369.9 1136 375.2 1140 380 1155 386.7 1157.9 390.6 1156.8 398.8 Z M 1735.7 226.7 1700.1 227.4 1686.8 282.8 1730.2 296.9 1761.8 313 1771.8 319.2 1764.4 328.5 1705.7 401.8 1702.6 445.8 1699.4 449.8 1680.2 458.7 1652.9 470.2 1646.5 471.2 1642.5 495.5 1642 498.2 1598.8 492.5 1601 480.9 1571.1 477.7 1567.4 491.6 1490.8 484 1466.2 482 1450 479.3 1414.3 470.4 1418.3 440.7 1337.9 426.1 1335.5 442 1294.2 446.4 1273.5 451.1 1208.9 444.4 1213.7 421.5 1214.5 402.7 1242.2 371.9 1262.5 353.4 1276.4 348.9 1302.8 346.6 1321.9 338.1 1329.8 326.2 1331.9 300.9 1330.8 293.1 1266.5 289.6 1263.4 243.3 1263.7 159.7 1269 153.6 1289.3 145.7 1302.1 143.4 1309.4 144.7 1355.9 162 1387.6 177.7 1400.1 190.4 1412.7 203.7 1429.1 212.3 1453.8 222.3 1546.4 225.2 1583.4 221.3 1607 216 1640.1 210.2 1665.4 206.4 1728.5 179 1745.6 178.1 1735.7 226.7 Z" data-holc_grade="D"/>
<path d="M 1863.1 841.4 1870.3 904 1875.9 985.1 1837.9 988.6 1786.5 990 1787 1012.3 1765.7 1023.2 1723.3 1015.2 1736.5 986.7 1741 980.3 1733.8 905.8 1719.3 894.6 1700.6 887.1 1684 875.8 1687.7 860.5 1692.1 815.6 1689.5 773.1 1702.9 769.1 1698 749.3 1769.3 734 1794.8 723.8 1817.3 721.4 1862.7 721.1 1861.8 774.2 1863.1 841.4 Z" data-holc_grade="D"/>
<path d="M 1638.5 767.3 1634.4 803.6 1587.2 801 1593 777.9 1574.6 780 1548.7 785 1555.9 745.7 1604 757.8 1611.6 717.4 1633.1 720.7 1644.3 721.8 1638.5 767.3 Z M 1608.8 630.3 1571.7 625.3 1562.4 628 1553.9 649.8 1544.8 651.6 1541.1 666.4 1539.8 680.5 1536.4 684.5 1500.9 675.1 1480.2 727.5 1449 803.1 1448.1 808.8 1405.3 815.6 1398.6 798.7 1430 774.8 1457.3 694.3 1477.4 652.6 1497.3 602.3 1503.8 597.8 1526.2 571.7 1565.1 541.3 1595.6 506.5 1598.8 492.5 1642 498.2 1616.7 616.6 1611.2 616.6 1608.8 630.3 Z" data-holc_grade="D"/>
</g>
</svg>