<?xml version="1.0"?>
<svg xmlns="http://www.w3.org/2000/svg" version="1.2" baseProfile="tiny" width="3000" height="2740" viewBox="0 0 3000 2740" stroke-linecap="round" stroke-linejoin="round">
<g id="A">
<path d="M 346 1034.9 344.5 1051.8 345.4 1087.9 346.8 1115 348.3 1134 349.6 1155.3 350.5 1194.3 350.4 1217.4 350.3 1229.3 349.2 1239.1 320 1229.7 306.4 1225.1 288.6 1221.4 268.7 1217.2 249.4 1215.1 227.7 1211 213.4 1207.3 197.5 1201.5 164.5 1168.3 153.2 1155.7 137.9 1135 115.4 1105.6 68.2 1046.6 46.2 1019.6 32.3 1003.1 15.5 986.1 15.8 974.8 172.4 970 190.4 969.1 225.8 969.1 241 969.1 264.6 983.8 284 994.8 292.5 1001.6 308.1 1011.7 324.4 1022.1 344.6 1034.1 346 1034.9 Z" data-holc_grade="A"/>
<path d="M 1076.3 1336.6 1077.6 1389.6 1074.6 1392.8 994.4 1393.7 994.4 1377.3 994.9 1372.8 995.6 1348.6 995.4 1342.9 994.4 1332.1 1007.7 1330.4 1019.9 1328.8 1033.3 1328.4 1045.8 1328.8 1057.6 1330.7 1067 1333.4 1076.3 1336.6 Z" data-holc_grade="A"/>
<path d="M 992.8 2116.4 1008.8 2116.9 1016.1 2111 1096.7 2109.3 1069 2128.7 1055.1 2149.7 1028.4 2189.2 1025.5 2237.3 1021.6 2298.5 1015.3 2304.9 899.5 2303.3 879 2339.9 848.6 2398.8 833.4 2427.4 871.9 2430.9 880.8 2413.1 925.1 2436.3 927.6 2439.3 884.2 2461.2 870.6 2491.8 852.2 2528.7 834.3 2563.4 809.1 2618.2 801.6 2630.7 790 2642.2 772.8 2655.7 760.9 2662.9 750 2667.9 755.7 2678.3 760.1 2686.9 759.8 2692 757.1 2697 751 2702.8 739.1 2710.2 728 2718.6 722.4 2724.6 721.5 2730 721.6 2738.7 687.4 2694.8 655.8 2647.1 657.9 2643.8 666.5 2630.7 674.9 2613.3 684.2 2590.9 688.6 2587.4 690.3 2581.1 694.2 2568.9 703.1 2546.6 720.4 2507.6 740.2 2456.3 754.5 2420.2 770.6 2377.5 795.4 2316.6 808.9 2280.2 820.2 2248.2 823.6 2237.2 834.8 2229.1 856 2220.7 869.3 2213.9 891.1 2201.7 992.8 2116.4 Z" data-holc_grade="A"/>
<path d="M 1263.8 2238.8 1257.9 2233.4 1254.7 2228.5 1252.7 2219.9 1252.3 2210.9 1253.8 2198.4 1255.3 2185.2 1256.8 2170.6 1258.9 2157.3 1262.4 2147.4 1266.4 2137.3 1270.7 2129.7 1277.6 2117.5 1286.8 2106.1 1299.6 2091.2 1317 2070.8 1333.9 2056.8 1347.4 2050.1 1366.4 2042.8 1376.5 2038.3 1381.3 2036.9 1378.6 2189.2 1263.8 2238.8 Z" data-holc_grade="A"/>
<path d="M 632.7 1325.5 594 1311.9 537.3 1291.9 518.1 1284.6 463.5 1271 431.1 1262.1 409.6 1257.2 382.4 1253 349.2 1239.1 350.3 1229.3 350.4 1217.4 350.5 1194.3 349.6 1155.3 348.3 1134 346.8 1115 345.4 1087.9 344.5 1051.8 346 1034.9 355.1 1040.1 391.6 1063 404.3 1072.7 421.1 1084.8 470.4 1114.9 507.1 1144 553.3 1174.4 568 1183.6 577.8 1188.3 587.2 1191.7 596.4 1195.6 605.5 1200.7 631.5 1220.5 632.7 1325.5 Z" data-holc_grade="A"/>
<path d="M 713.8 962 767 961.7 768.2 1008.3 769.4 1041.4 771.3 1135.7 772 1179.5 772.7 1188.9 776.3 1214.7 695 1216.7 706 1346.9 669.7 1337.5 635.5 1330.7 632.7 1325.5 631.5 1220.5 605.5 1200.7 596.4 1195.6 587.2 1191.7 577.8 1188.3 568 1183.6 553.3 1174.4 507.1 1144 470.4 1114.9 421.1 1084.8 404.3 1072.7 391.6 1063 355.1 1040.1 346 1034.9 344.6 1034.1 324.4 1022.1 308.1 1011.7 292.5 1001.6 284 994.8 264.6 983.8 241 969.1 252 968.5 266.7 967.7 293.9 967.8 328.6 969.4 343.8 969.8 375.2 968.2 423.3 966.9 422.9 984.9 420.5 999.6 420 1016.2 421.2 1023.8 422.1 1045.9 425.4 1077.9 452.4 1095.9 462.8 1096.7 497.4 1097.5 562.3 1098.6 574 1101.2 628.7 1100 628.8 1080 626.8 1044 625.8 962.5 713.8 962 Z" data-holc_grade="A"/>
<path d="M 724.4 807.8 731.1 793.5 729.7 707.5 872.8 704.8 936.8 704.4 936.1 764.8 873.1 765.1 873.6 855.8 857 856.2 846.1 857.7 828.7 857.5 812.7 862.3 803.2 862.7 794.9 857.6 759.9 833.7 752.1 825.3 742 816 724.4 807.8 Z" data-holc_grade="A"/>
<path d="M 942.1 1084 874.3 1085.2 872.2 1050.8 871.9 1022.3 870.3 989.8 868.7 958.2 903.6 957.7 925 958.7 938.2 960.3 938.8 971.4 939.9 990.3 940.5 1009.3 942.1 1084 Z" data-holc_grade="A"/>
<path d="M 1069.4 1057 1067.9 1031.3 1067.5 1004.6 1067.5 971.2 1189.7 970.4 1190.2 985.8 1153.3 985.8 1145.8 986.5 1135.7 991.1 1125.1 997.5 1115.3 1010.3 1108.5 1027.1 1104 1036.6 1097.6 1044.3 1088.2 1051.6 1081 1055.8 1075.3 1057.5 1069.4 1057 Z" data-holc_grade="A"/>
<path d="M 1196.5 1080.7 1196.5 1111.3 1134.7 1073.8 1157 1053.3 1172.3 1042.5 1189.8 1037.5 1192.9 1037.5 1195 1056.3 1196.3 1071.1 1196.5 1080.7 Z" data-holc_grade="A"/>
<path d="M 925.6 1284.2 812.4 1286.3 805.3 1214.2 922.4 1213.5 925.6 1284.2 Z" data-holc_grade="A"/>
<path d="M 1076.2 1335 1076.3 1336.6 1067 1333.4 1057.6 1330.7 1045.8 1328.8 1033.3 1328.4 1019.9 1328.8 1007.7 1330.4 994.4 1332.1 992.9 1312.2 992 1287.7 990.3 1211.7 1038.7 1209.6 1073 1208.9 1073.8 1242.9 1075.2 1295.1 1076.2 1335 Z" data-holc_grade="A"/>
</g>
<g id="B">
<path d="M 868.4 452 870.8 594.4 870.2 605.6 870.6 621.9 871.7 675.9 872.8 704.8 729.7 707.5 731.1 793.5 724.4 807.8 713.1 802.5 679.5 784 681.7 772.6 683.2 764.9 683.4 757.2 682.7 692.9 736.7 691.2 735.9 678.1 735 662.2 735.5 633.6 735.6 627.3 735 606.8 733.4 591.7 732.6 581.3 731.7 561.3 730.8 550.1 729.9 526.3 728.3 491.7 727.4 473.6 726.3 451.9 749 451.5 780.4 450.5 806.5 450.6 821.2 452.7 868.4 452 Z" data-holc_grade="B"/>
<path d="M 1431.8 1263.6 1428.5 1265.7 1428 1274 1426.3 1281.6 1424.6 1285.4 1425.5 1311.4 1406.3 1312.5 1281.5 1314.1 1281.8 1296 1283.9 1276.7 1284 1248.2 1283.5 1237.4 1285.4 1204.5 1305.6 1203.8 1304.9 1200.8 1304.6 1196.6 1309.8 1184.8 1326.7 1149.9 1339.5 1125.8 1350.5 1103.5 1369.4 1068.5 1374.3 1058.3 1379.2 1043.6 1383.4 1033.5 1383.8 1032.8 1386 1077.6 1386.4 1136.9 1387.5 1173.3 1387.8 1232.4 1431.8 1263.6 Z" data-holc_grade="B"/>
<path d="M 1510.9 1095.2 1512 1131.8 1514.9 1263.1 1515.2 1311.3 1479.1 1294.5 1459.3 1282.6 1431.8 1263.6 1387.8 1232.4 1387.5 1173.3 1386.4 1136.9 1386 1077.6 1383.8 1032.8 1394.8 1011.8 1403.3 998.1 1417.9 966.6 1452.4 963.4 1482.4 963.1 1508.4 961.6 1510.9 1095.2 Z" data-holc_grade="B"/>
<path d="M 1624.6 1021.3 1629.3 1183.8 1631.2 1218.4 1631.4 1260.4 1514.9 1263.1 1512 1131.8 1575.2 1130.8 1574.3 1094.6 1510.9 1095.2 1508.4 961.6 1482.4 963.1 1452.4 963.4 1417.9 966.6 1426.4 948.1 1455.1 883.6 1478.5 836.7 1488.6 817.9 1503.4 832.8 1513.6 848.2 1556.3 911.7 1575.7 945.4 1605.5 989.4 1621.8 1014.6 1624.6 1021.3 Z" data-holc_grade="B"/>
<path d="M 1630.7 1031.2 1624.6 1021.3 1621.8 1014.6 1605.5 989.4 1575.7 945.4 1633.4 943.9 1633.6 962.1 1665.6 960.4 1667.2 1005.5 1630.7 1031.2 Z" data-holc_grade="B"/>
<path d="M 1824.3 904.7 1759.8 907.1 1758.2 844.9 1865.9 841.7 1884.6 839.2 1887.3 888.9 1887.9 902.7 1871.6 902.9 1870.3 873.2 1824 872.9 1824.3 904.7 Z" data-holc_grade="B"/>
<path d="M 2516 165.3 2516.3 166.7 2516.2 190.4 2515.4 215 2508.2 216.5 2509.4 248.1 2509.7 270.7 2509.8 286 2573.8 285.1 2573.6 291.9 2561.5 293.2 2561.7 304.1 2602.9 304.3 2599.9 314.1 2597.6 322.1 2596.3 329.9 2595.7 342.2 2595.2 353.8 2594.3 367 2591.4 382.6 2590.1 390.1 2588.4 396.7 2586.6 406.1 2585.7 412.6 2584.6 421.7 2583.1 425.2 2530 420.1 2523.7 414.1 2513.5 415.3 2513.8 460.4 2446.8 451 2423.1 448.5 2386.1 444.8 2386.5 440.2 2313.1 443.7 2310.4 416.2 2316.6 414.2 2321 409 2335.8 397.7 2341.5 396.2 2346.3 391.2 2361.7 380.5 2372.7 371.4 2382.3 363.6 2417.6 360.6 2431.6 346.1 2443.2 332.7 2452.4 294.1 2456.6 284.6 2457.7 265.6 2460.9 257.2 2461.5 246.6 2461.5 228.9 2465.1 213.7 2469.6 204 2474.3 198 2482.5 190.6 2489.8 184.3 2497.8 174 2502.5 164.9 2501.4 153.7 2504.5 146.2 2508.2 144.8 2512.4 148 2513.8 155.1 2516 165.3 Z" data-holc_grade="B"/>
<path d="M 2355.8 1550.8 2473.4 1548.1 2477.1 1657.2 2412.3 1657.9 2412.2 1679.1 2380 1680.3 2356 1660.4 2361.7 1651.3 2350.6 1636.7 2353.8 1616.8 2355.3 1602.6 2351.2 1597.5 2349.5 1587.8 2349.9 1581.2 2354.3 1574.6 2355.1 1570.1 2355.8 1550.8 Z" data-holc_grade="B"/>
<path d="M 2317.7 1938.6 2345.9 1937.3 2411.3 1931.2 2423.8 1930.7 2446.6 1927.7 2447.6 1938.6 2449.9 1984.7 2449.4 1989.6 2329 1991.9 2324.9 1988.2 2320.1 1984.7 2316 1960 2314.8 1951.8 2316.4 1942.8 2317.7 1938.6 Z" data-holc_grade="B"/>
<path d="M 1160.6 1780 1195 1781.7 1194.8 1879 1158.9 1921.2 1062.2 1983.3 1035.2 1975.8 1034.5 1910.2 964.1 1911.1 997.8 1840.3 1046.5 1739.3 1062.2 1749 1046.9 1776.2 1047 1780.2 1088.2 1780.2 1160.6 1780 Z" data-holc_grade="B"/>
<path d="M 926.4 1862.6 919.7 1864.3 915.9 1867.3 908.9 1867.6 902.2 1873.8 894.9 1879 889.2 1882 880.9 1887.2 875.7 1890.2 869.9 1892.7 862.7 1895.4 858.4 1898.7 850.2 1899.2 839.4 1900.6 839.2 1781.8 898.4 1781 925.5 1780.6 926.4 1862.6 Z" data-holc_grade="B"/>
<path d="M 982.7 575.4 987.9 581 1010 603.8 1029.3 626.5 1020.3 636.8 1013.8 645.4 1007.8 656.6 1003.6 664.8 996.1 672.2 988.3 676.7 985.8 678.2 987.9 688 988.8 695.5 989.1 703.8 1018.6 704.1 1057 702.6 1059.6 700.8 1059.6 650.5 1068.9 657.4 1123 701.9 1124 729 1124.3 766.1 1061.8 767.5 1062.3 792.3 999.4 792 999.1 826.9 939.9 828.8 942 847.5 943.2 864.4 945.7 904.6 946.5 925.1 963.4 924.8 965 959 1005.7 956.2 1023.1 954.2 1035.1 953.1 1052.3 952.4 1066.2 952.3 1067.5 971.2 1067.5 1004.6 1067.9 1031.3 1069.4 1057 1060.7 1056.1 1051.4 1053.5 1038.8 1049 1026 1048.1 1016.1 1049.1 1005.2 1054.1 996.9 1059.4 989.4 1068.6 979.9 1083.2 942.1 1084 940.5 1009.3 939.9 990.3 938.8 971.4 938.2 960.3 925 958.7 903.6 957.7 868.7 958.2 870.3 989.8 871.9 1022.3 872.2 1050.8 874.3 1085.2 804.2 1086.2 804.2 1072.6 811.3 1060.6 823.4 1042.1 837.3 1016.8 826 1009.6 824.7 960.7 767 961.7 713.8 962 712.8 951.7 712.3 945.3 711 937.9 709.8 929.6 708 878.5 707.8 828.5 709.2 810.7 710.9 804 713.1 802.5 724.4 807.8 742 816 752.1 825.3 759.9 833.7 794.9 857.6 803.2 862.7 812.7 862.3 828.7 857.5 846.1 857.7 857 856.2 873.6 855.8 873.1 765.1 936.1 764.8 936.8 704.4 872.8 704.8 871.7 675.9 870.6 621.9 870.2 605.6 870.8 594.4 868.4 452 882.3 465.6 910.6 498 946.7 535.6 982.7 575.4 Z" data-holc_grade="B"/>
<path d="M 74.2 1962.4 89.2 1964.6 115.6 1967.1 147.2 1967.3 176.2 2016.7 158.8 2041.9 146.8 2041.6 137.7 2041.6 133.8 2042.2 129.1 2047.9 128.3 2053.4 129.4 2058.8 132.2 2063.2 134.4 2066.8 132.1 2072.2 126.4 2081.4 121.4 2085.9 114.8 2090.6 108 2094.9 100.5 2098.2 94.5 2100.8 88.9 2101.8 79.5 2103.5 79.4 2067.7 77.2 2039.2 77 2030.1 76.6 2018.6 77 1991.5 73.9 1962.2 74.2 1962.4 Z" data-holc_grade="B"/>
<path d="M 1051.9 2067.3 1006 2106.5 992.8 2116.4 891.1 2201.7 869.3 2213.9 856 2220.7 834.8 2229.1 823.6 2237.2 753.1 2296.5 744.4 2301.9 741.9 2303.4 713.9 2301.7 674.4 2299.7 642.7 2298.9 597.8 2297.2 584.3 2275.7 582.9 2165.4 600.4 2164.9 676.5 2167.3 771.4 2171 772.4 2154.5 773.7 2138.6 774.5 2122 774.9 2102.6 774.5 2042.6 828.9 2043.2 830 2110.6 843.7 2114.6 873.3 2117.8 933.5 2116.7 991.5 2066.3 1021.9 2040.1 1051.9 2067.3 Z" data-holc_grade="B"/>
<path d="M 1096.7 2109.3 1016.1 2111 1008.8 2116.9 992.8 2116.4 1006 2106.5 1051.9 2067.3 1101.3 2021.3 1180.4 1947.4 1269.1 1923.3 1274.4 1929.4 1198.6 2003.8 1198.2 1999.5 1197.3 1950.4 1185.9 1952.6 1157.4 1979.1 1157.2 2046 1096.7 2109.3 Z" data-holc_grade="B"/>
<path d="M 1126.3 825.8 1126 806.3 1124.3 766.1 1124 729 1123 701.9 1068.9 657.4 1059.6 650.5 1059.8 643.4 1061.8 639.9 1066.5 634.7 1080.8 621.6 1085.9 615.1 1088.9 609.6 1090.5 605.8 1092.4 598.2 1093.7 594.9 1096 588.1 1098.7 576.8 1116.7 571.9 1116 515.1 1124.8 513.4 1134.8 511.8 1145.6 510.3 1154 508.9 1167.9 508.3 1203.9 507.2 1225.2 506.5 1251.7 505.2 1280.3 505.3 1292.4 505.9 1296.7 506.1 1304.3 508 1306.3 571.4 1371.5 570.4 1372 624.8 1373.9 636.8 1376 650.8 1376.9 676.1 1379.4 687.9 1380.5 698.9 1408.2 709.4 1410.3 778.4 1400.2 778 1396.2 778.1 1390.6 781.7 1385.9 789.8 1380.9 795.4 1376 801 1370.5 805.5 1364 808.8 1357.5 811.5 1354.1 815.1 1353.5 820.4 1349.4 824.1 1218.4 825.9 1126.3 825.8 Z" data-holc_grade="B"/>
<path d="M 497.4 1097.5 462.8 1096.7 452.4 1095.9 425.4 1077.9 422.1 1045.9 421.2 1023.8 420 1016.2 420.5 999.6 422.9 984.9 423.3 966.9 493.8 964.8 497.4 1097.5 Z" data-holc_grade="B"/>
<path d="M 645.4 1398.5 648.7 1455.3 649.8 1521.3 581.2 1521 571.7 1428.7 571 1397.8 570.5 1397.9 570.8 1397.6 645.4 1398.5 Z" data-holc_grade="B"/>
<path d="M 343.2 1395.9 453.6 1393.3 457.3 1445.1 457.1 1486.7 460 1515.6 462 1561.4 388.2 1562.3 387.8 1460.5 378.1 1461.5 347 1474.6 338.7 1475.2 327 1478.7 326.9 1426.9 330.2 1426.5 340.5 1417.8 342.9 1396 343.2 1395.9 Z" data-holc_grade="B"/>
<path d="M 880.5 1337.3 850.5 1337.3 817.8 1336.6 812.4 1286.3 925.6 1284.2 927.5 1336 880.5 1337.3 Z" data-holc_grade="B"/>
<path d="M 1076.2 1335 1075.2 1295.1 1073.8 1242.9 1073 1208.9 1038.7 1209.6 1034.5 1120.5 1073.2 1118.6 1139.9 1116.7 1142.7 1206.5 1112.4 1207.1 1117.2 1333.9 1076.2 1335 Z" data-holc_grade="B"/>
<path d="M 1257 1029.7 1257.6 1079.7 1196.5 1080.7 1196.3 1071.1 1195 1056.3 1192.9 1037.5 1201.8 1037.5 1210.7 1037.7 1219.7 1034.7 1228.5 1027.6 1237.4 1023.5 1243 1023.3 1251 1025.4 1257 1029.7 Z" data-holc_grade="B"/>
</g>
<g id="C">
<path d="M 55.3 94.4 127.6 90.7 192.8 89.4 190.1 102.1 189.7 158.7 157 159.6 126.8 157.1 123.5 181.2 122.9 226.3 123.5 234.8 126.9 257.5 129.5 287.4 132.7 345.5 134.2 391.4 135 420.6 135.4 444.3 168.6 449.9 195.6 456.6 196.3 518.5 159.1 501.2 157.6 516.4 158.2 537.9 160.1 561.8 162.7 595.4 29.5 596.7 9.2 542.5 33.8 543.6 48.2 541.6 58.3 541.3 68.8 542 65.4 480.4 56.1 191.9 55.4 94.7 55.3 94.4 Z" data-holc_grade="C"/>
<path d="M 1797.2 93.5 1800.6 82 1809 62.7 1814 50.1 1820.9 32.7 1828.4 17.3 1884.9 61.8 1886 76 1884.7 87.6 1882.2 101.7 1894.5 103.7 1894.1 113 1891.1 120.8 1887.1 147.4 1882.4 168.4 1926.5 156.9 1955.9 146.1 1937.6 170.5 1931.9 178.2 1928.4 194.3 1926.7 215.3 1927.1 296.6 1901.5 297.7 1865.3 242.9 1864.3 198.4 1877.9 113.4 1802.8 112.6 1797.2 93.5 Z" data-holc_grade="C"/>
<path d="M 2387.3 147.8 2413.5 161.6 2422.5 150.6 2455 167.2 2444.9 182.7 2426.5 212.1 2413.5 235.1 2388.5 278.2 2375.1 272.7 2329.6 256.2 2279.8 230.4 2284.8 218 2323.4 173.1 2345.9 184.2 2355.4 168.4 2370.4 176.3 2387.4 147.9 2387.3 147.8 Z" data-holc_grade="C"/>
<path d="M 2573.8 285.1 2509.8 286 2509.7 270.7 2509.4 248.1 2508.2 216.5 2515.4 215 2516.2 190.4 2516.3 166.7 2516 165.3 2520.4 166.4 2525.8 165.6 2531.8 162.8 2537.9 160 2535.9 199.3 2533.7 202.9 2530.9 205.1 2525.6 206.5 2525.9 214.7 2564.1 213 2564 190.7 2564 178.3 2565.3 166.1 2565.6 147.7 2572 145.4 2581.8 143.2 2594.7 140.2 2601.3 138.9 2615 144.2 2620.6 147.7 2642.7 122 2660.7 102.3 2666.1 90.8 2667.7 82.2 2667.1 69.8 2663.3 52.7 2661.9 44.9 2655.6 34.6 2651.9 27.8 2650.1 24.6 2654.9 21.1 2661.6 20.3 2668.6 20.4 2673.9 24.4 2681.6 15.3 2687.4 5.1 2856.6 1 2851.4 10.6 2844.2 21.8 2837.6 37.1 2835.4 46 2833.1 54.6 2832.4 63.1 2831.4 73.8 2828.9 78.9 2825.6 83.5 2821.1 86.1 2811.5 86.4 2802.2 87.1 2796.6 86.7 2790.1 85.3 2778.8 85.8 2769.1 86.2 2762 87.2 2757.8 89.4 2752 93.7 2746 100.7 2733.3 113.1 2722.5 124.5 2717 133.2 2710.4 139.3 2702.9 148 2694.7 159.8 2687.3 170.8 2673.6 190.5 2663.8 204.9 2650.1 226.7 2641.4 239 2631.5 248.2 2625.7 257 2620.1 266.8 2618.3 269.9 2610.4 268 2592.7 265.6 2572 263.3 2572.4 276.9 2573.8 285.1 Z" data-holc_grade="C"/>
<path d="M 2386.1 444.8 2423.1 448.5 2446.8 451 2513.8 460.4 2513.5 415.3 2523.7 414.1 2530 420.1 2583.1 425.2 2580.2 443.4 2576.7 448.6 2567.9 454.8 2557.7 465.8 2549 471.5 2540 482 2532 491.5 2527.8 502.2 2527.8 501.7 2515.4 497.7 2493.9 495.8 2387.3 481.2 2386.1 444.8 Z" data-holc_grade="C"/>
<path d="M 2195.1 533.3 2259.9 531.1 2253.2 488.3 2327.9 483.1 2328.8 505.4 2327.6 525 2271.9 527.7 2277.6 569 2342.9 565.6 2343.9 599.4 2261.3 602.2 2258.7 575.1 2224.2 576.7 2209.4 575.2 2211.3 649.4 2220.2 649.3 2220.6 661.2 2262.4 660.1 2265.9 743.2 2267.9 760.6 2247 764 2223.6 766.1 2204.5 769 2201.3 657.8 2195.1 533.3 Z" data-holc_grade="C"/>
<path d="M 1871.6 902.9 1887.9 902.7 1887.3 888.9 1884.6 839.2 1865.9 841.7 1758.2 844.9 1674.1 846.8 1664.4 815.6 1650.9 816.5 1643.1 817.5 1629.9 818.7 1619.5 822.3 1606.8 823.8 1591.8 823.9 1624.5 792 1637.8 781.3 1649.3 772.1 1662.9 765 1669.1 759.4 1672.2 754.9 1674.1 749 1675.4 739.4 1677.6 728.4 1680 723.6 1684.4 720.4 1715.8 720 1725.9 724 1731.7 729.4 1735.6 738.6 1738.2 746 1744.8 751.1 1751.9 752.8 1759.4 753.1 1766.7 750.7 1771.8 748.2 1775.8 745.7 1777.8 805.2 1800.5 803.6 1816 802.9 1840.1 800.8 1857.2 797 1855.7 678.8 1881 678.3 1882.2 691.8 1922.9 691.7 1926.3 788.5 1959.9 786.2 1975.6 785.2 2007.5 783.3 2044.6 781.1 2081.6 778.8 2109.7 776.4 2124.6 776.2 2124.4 784.4 2078.5 892.8 1902.2 899.1 1903 934 1872.3 934.2 1871.6 902.9 Z" data-holc_grade="C"/>
<path d="M 1812.2 1239.5 1856.8 1210.9 1912.8 1174.6 1930.6 1163.4 1951.3 1149.6 1970.5 1135.7 1991.9 1123.7 1998.5 1113.6 2015.3 1095.5 2027 1079.7 2047.5 1057.7 2076.5 1056.3 2075.9 992.7 2143.5 989.6 2142.3 957.4 2141.1 891.1 2138.4 891.2 2126.4 880.5 2170.4 833.2 2195.5 802.4 2322.5 919.3 2279.6 964.7 2244.7 1002.1 2207.7 1043.3 2196.8 1032.6 2136.7 1100 2142.1 1107.3 2125.3 1130.5 2051.3 1223.3 2004.2 1252.8 1964.5 1279.3 1927.7 1300.8 1932.8 1311.4 1883.9 1350.6 1873 1335.1 1868.6 1334.1 1864.9 1327 1854.9 1312.3 1843.9 1294.8 1828 1268.2 1812.2 1239.5 Z" data-holc_grade="C"/>
<path d="M 1591.8 823.9 1606.8 823.8 1619.5 822.3 1629.9 818.7 1643.1 817.5 1650.9 816.5 1664.4 815.6 1674.1 846.8 1758.2 844.9 1759.8 907.1 1824.3 904.7 1825.1 935 1829.1 1073.1 1838.5 1090.5 1843.3 1098.1 1856 1117.9 1813.3 1145.7 1856.8 1210.9 1812.2 1239.5 1792 1252.5 1655.5 1045.1 1662.4 1040.1 1679.3 1038.4 1679 1005.6 1667.2 1005.5 1665.6 960.4 1633.6 962.1 1633.4 943.9 1575.7 945.4 1556.3 911.7 1513.6 848.2 1503.4 832.8 1488.6 817.9 1513.4 771.5 1518 771.5 1525.6 776.7 1528.9 778.1 1533 778.5 1536.3 776.1 1542.5 777.1 1556.3 777.2 1563.3 781.9 1564.7 823.9 1591.8 823.9 Z" data-holc_grade="C"/>
<path d="M 965.1 1522.7 964.5 1490.6 964.3 1457.9 973.2 1458.2 972.9 1394 994.4 1393.7 1074.6 1392.8 1077.6 1389.6 1076.3 1336.6 1076.2 1335 1117.2 1333.9 1112.4 1207.1 1142.7 1206.5 1139.9 1116.7 1073.2 1118.6 1134.7 1073.8 1196.5 1111.3 1196.5 1080.7 1257.6 1079.7 1257 1029.7 1264.6 1033.3 1270.7 1035 1280 1034.5 1286.5 1031.3 1293.1 1026 1295.2 1020.2 1333 1020.3 1349.9 995.7 1370 957.9 1420.2 862.8 1448.9 812.6 1475.9 771.4 1485.1 779.6 1489.3 780.9 1494.2 779.9 1500.9 777.9 1508.7 773.1 1513.4 771.5 1488.6 817.9 1478.5 836.7 1455.1 883.6 1426.4 948.1 1417.9 966.6 1403.3 998.1 1394.8 1011.8 1383.8 1032.8 1383.4 1033.5 1379.2 1043.6 1374.3 1058.3 1369.4 1068.5 1350.5 1103.5 1339.5 1125.8 1326.7 1149.9 1303.2 1138 1330.2 1091.4 1328.3 1064.3 1295.1 1071.2 1251.2 1148.4 1267 1159.5 1303.4 1181.8 1309.8 1184.8 1304.6 1196.6 1304.9 1200.8 1305.6 1203.8 1285.4 1204.5 1283.5 1237.4 1284 1248.2 1283.9 1276.7 1281.8 1296 1281.5 1314.1 1406.3 1312.5 1425.5 1311.4 1432.7 1312.7 1469.6 1315.2 1476.6 1317 1490.3 1312.6 1506.3 1310.8 1515.2 1311.3 1514.9 1263.1 1631.4 1260.4 1631.2 1218.4 1629.3 1183.8 1624.6 1021.3 1630.7 1031.2 1651.6 1065.2 1654.4 1152.2 1691.9 1152.2 1721.8 1195.2 1657.6 1195.8 1658.5 1222.9 1658.6 1279.4 1626.1 1279.8 1579.3 1280.4 1531.1 1279.8 1531.2 1323.4 1534.2 1324.4 1599 1366.9 1584.5 1392.2 1583.7 1391.7 1534.4 1360.2 1516.5 1359.7 1515.4 1342.4 1446.4 1343.2 1414.7 1345 1415.9 1392.6 1352.8 1392.7 1351.8 1424.3 1351.8 1452 1416 1452.3 1414.8 1486.1 1415.5 1499.9 1415.1 1520.8 1414.9 1539.7 1415.6 1565.5 1409.6 1566.8 1403.4 1570.5 1398.4 1577 1395.9 1582.8 1397.1 1620.9 1394.1 1625.9 1352.1 1625.1 1351.8 1612.6 1309.3 1612.7 1309 1582.9 1300.9 1580.7 1161 1580.9 1117 1579.6 1111.4 1575.7 1107.3 1573.4 1103.5 1569.2 1094.2 1553.2 1093.5 1522.5 965.1 1522.7 Z M 1181.1 1333.9 1181.3 1311.8 1178.1 1304.6 1234.8 1206.5 1178.1 1206.5 1180.2 1270.1 1180.6 1270.5 1132.1 1271.4 1134.8 1333.9 1181.1 1333.9 Z" data-holc_grade="C"/>
<path d="M 881.3 1393.5 868 1393.5 868.9 1409.7 964.5 1490.6 965.1 1522.7 891.2 1523 890.1 1546 889.4 1569.8 835.2 1570.6 835.6 1614.2 835.7 1653.9 800.7 1653.6 800.3 1522.2 649.8 1521.3 648.7 1455.3 645.4 1398.5 672 1397.9 669.7 1337.5 706 1346.9 766.6 1362.8 768.6 1395.1 851.7 1393.2 852.2 1390.2 850.5 1337.3 880.5 1337.3 881.3 1393.5 Z" data-holc_grade="C"/>
<path d="M 982.7 575.4 946.7 535.6 910.6 498 882.3 465.6 868.4 452 859.4 440.5 821.4 402.2 797.5 374.7 723.4 289.2 704.5 299.9 703.7 314.9 702.3 324.4 682.7 327.2 666.5 327.6 606.7 329.2 535.8 331 467.5 333.9 406.9 336.6 405.5 307.8 326.1 308.9 322.7 212.9 368 210.8 366 166.3 391.5 166.2 388.2 124 313.9 123.2 313.8 95.7 318.7 83.2 375.1 81.5 403.9 81.5 426.4 79.5 432.3 163.4 457.8 160 461.9 207.8 478.2 205.3 499.1 204.8 498.5 163.5 497.7 143.8 496.4 134.7 520.5 132.4 567.3 130.9 583.1 131.4 573.4 121.8 562.2 109.4 548.2 95.8 540.3 88.2 529.6 75 603.3 72.6 602.5 89.3 601.7 100.3 603.5 111.5 604.6 137.8 736.3 135.8 738.3 149.1 739.6 195.3 726.9 196.1 718 196.8 709 199.4 698.2 199.1 664.2 199.5 661.7 215.2 711.1 271.3 731.6 286.7 733.9 285.7 732.8 252.2 791.3 249.6 795.2 248.3 794.3 238.8 843.3 236.9 842.3 207.6 805.9 208 803.3 162.6 803.2 126.7 805.8 124 892.6 121.9 889.9 132.5 890.2 152.5 893.6 191.9 873.5 193.6 857.6 195.3 859.8 235.7 889.1 235.1 910.5 234.9 925.6 235.1 927 252.2 929.3 292.2 932.4 361.5 936.1 447.3 997.9 445.8 998.9 484.9 981.9 500.7 1015.4 540.1 982.7 575.4 Z" data-holc_grade="C"/>
<path d="M 33.1 1231.8 97.2 1230 148.7 1234 192.4 1234 244.3 1230.7 243.7 1282.4 221 1284 219.2 1326.8 214.3 1364.8 214 1388.8 142.7 1386.7 137.4 1408.6 136.4 1496.6 138.7 1513.8 72.6 1511.3 74.8 1387.7 52.9 1359.2 35.5 1344.9 33.3 1232.1 33.1 1231.8 Z" data-holc_grade="C"/>
<path d="M 74.2 1962.4 73.9 1962.2 77 1991.5 76.6 2018.6 77 2030.1 28 2030.8 24.1 2028.5 19.4 2026 11.5 2023.5 5.8 2022.9 2.7 2023 3.1 1995.5 2.6 1963.2 1 1903 8.5 1906.3 13 1906.4 75.4 1906.2 75.8 1918.2 74.4 1933 74.2 1962.4 Z" data-holc_grade="C"/>
<path d="M 839.2 1781.8 839.4 1900.6 828.9 1901.3 819.1 1902.5 808.6 1906 797.1 1911.5 782.6 1914 776.3 1915.5 772.3 1915.7 772.1 1824.3 773.4 1795.2 711.2 1795.4 710.9 1824.5 709.1 1836.5 708.4 1841.9 708.6 1854.4 691.1 1860.4 672.6 1866.8 658.6 1870.8 631.7 1879 620.8 1882.7 608 1885.8 590.5 1892 581.1 1894.9 583.4 1780.8 603.2 1780.6 621.4 1781.1 644.2 1783.1 709.2 1783.7 839.2 1781.8 Z" data-holc_grade="C"/>
<path d="M 1258.3 1644.2 1259.4 1809.2 1255.9 1809 1194.8 1879 1195 1781.7 1160.6 1780 1160 1740 1159.2 1733.9 1157.6 1732.4 1154.2 1732.4 1151.7 1727.7 1141.2 1721.2 1136.4 1720.5 1126.6 1721.5 1119.8 1720.5 1114.8 1718.8 1086.4 1735.6 1072.3 1743.7 1062.2 1749 1046.5 1739.3 997.8 1840.3 985.7 1840.6 978.4 1837.5 972.6 1838 965.9 1836.6 962.1 1835.5 956.8 1836.9 952.3 1838.6 949 1842.7 944.6 1846.9 941.2 1852.1 935.1 1856.5 926.4 1862.6 925.5 1780.6 898.4 1781 897.5 1724.1 1072.5 1683 1075.6 1677.4 1084.8 1676.7 1097.6 1674.3 1107.5 1671.8 1115.6 1671.3 1122.9 1669.2 1132.6 1666.6 1149 1663.6 1176.1 1658 1204.5 1651.3 1224 1650.4 1224 1643.3 1258.3 1644.2 Z" data-holc_grade="C"/>
<path d="M 1382.7 1696.6 1383.1 1749.6 1478.9 1663.3 1465.6 1647.8 1447.6 1626.7 1481.7 1608 1512.9 1645.4 1568.9 1594 1576.6 1578.9 1589.5 1581.7 1603 1584.9 1611.3 1586.9 1631.5 1588.4 1641.1 1588 1647.8 1584.3 1654.4 1575.9 1659.3 1565.1 1663.6 1555 1669.8 1545.8 1676.7 1540.8 1684 1540.4 1690.6 1541 1698.8 1546.8 1711 1552.4 1718.5 1555.7 1727.9 1555 1725.5 1621.8 1723.4 1625.8 1718.5 1631.9 1711.4 1633.4 1653.3 1651.2 1653.7 1655.8 1658.4 1658.3 1673.4 1660.5 1683.5 1661.8 1692.7 1667.4 1712.4 1683.3 1712.5 1690.9 1704.4 1736 1690.6 1751.7 1655 1752.2 1654.3 1801.4 1576 1835.8 1564.9 1837.5 1548 1841.6 1449.6 1868.9 1405.4 1882.6 1314.9 1909.1 1306.6 1909.3 1300.5 1904.7 1294.4 1898.1 1287.2 1885.6 1282.6 1877.2 1276.5 1856.5 1272.9 1841.8 1271.6 1823.4 1270.6 1810 1259.4 1809.2 1258.3 1644.2 1260.5 1644.2 1263.5 1651 1269.1 1656.4 1274.6 1658.3 1279.6 1660.5 1281.1 1709.4 1318.8 1710.9 1353.1 1711.7 1352.4 1648.4 1382.4 1648.6 1382.7 1696.6 Z" data-holc_grade="C"/>
<path d="M 1021.9 2040.1 991.5 2066.3 933.5 2116.7 873.3 2117.8 904.2 2040.9 945.1 2041.3 978.3 2040 1005.6 2039.4 1021.9 2040.1 Z" data-holc_grade="C"/>
<path d="M 655.8 2647.1 644.3 2631.8 634.2 2640.9 553.8 2524 530.3 2493.4 615 2419.5 649.3 2386.6 656.8 2378.4 660.9 2371.2 706.7 2325.4 721 2315 732.2 2309 741.9 2303.4 744.4 2301.9 753.1 2296.5 823.6 2237.2 820.2 2248.2 808.9 2280.2 795.4 2316.6 770.6 2377.5 754.5 2420.2 740.2 2456.3 720.4 2507.6 703.1 2546.6 694.2 2568.9 690.3 2581.1 688.6 2587.4 684.2 2590.9 674.9 2613.3 666.5 2630.7 657.9 2643.8 655.8 2647.1 Z" data-holc_grade="C"/>
<path d="M 1481.1 2075.7 1489.1 2075 1498.2 2074.2 1509.6 2070 1515.4 2066 1541.2 2048.4 1546.3 2046.2 1549.9 2046.2 1551.8 2049.2 1552.3 2054.3 1549 2147.7 1486.9 2147.7 1486.2 2125.2 1444.4 2168.1 1440.5 2170.5 1429.7 2199.3 1417.2 2199.9 1411.4 2202.2 1401.4 2209.9 1386.9 2226.5 1375.8 2226.8 1361.1 2230.1 1353 2233.2 1341.2 2237.7 1329.2 2246.6 1316.9 2262.5 1311.2 2269.7 1304.7 2276.2 1299.7 2279.3 1295.8 2280.6 1291.5 2281.8 1286.5 2285.4 1280.6 2286 1277.9 2282 1277.8 2275.7 1276.8 2267.6 1274.8 2258 1268.7 2248.5 1263.8 2238.8 1378.6 2189.2 1381.3 2036.9 1396.2 2034.7 1396.7 2080.8 1440.4 2081.8 1441.2 2090.3 1480.8 2090 1481.1 2075.7 Z" data-holc_grade="C"/>
<path d="M 1856.1 1942.8 1856 1961.1 1911.2 1961.5 1909.3 1890.6 1933.6 1889.2 1933.4 1878.4 2007.8 1876.6 2009 1889.3 2023 1888.6 2021.2 1819.6 2036.4 1813.6 2047.9 1807.4 2071.5 1795.6 2095 1783.6 2097.8 1798.7 2098.3 1841.3 2034.8 1844 2036.7 1880.7 2093.6 1935.5 2083.5 1935.4 2083.2 1954.3 2045.9 1954.1 2061.4 1983.1 2064.5 1992.7 2066.9 2003.6 2032.4 2006 1980.5 2006.3 1928.5 2005.7 1867.8 2005.1 1867.9 2037.1 1807.1 2033.3 1808 2068.4 1833 2068.6 1833.9 2096.3 1735.6 2096.2 1735.4 2029.3 1724.1 2016.2 1723.7 2009 1602 2009.1 1620.4 1987.1 1628.9 1985.5 1702.5 1960.2 1712.7 1957.8 1717.6 1958 1721.5 1955.8 1778.7 1936.9 1788.3 1970.3 1795 1964 1819.6 1942.8 1856.1 1942.8 Z" data-holc_grade="C"/>
<path d="M 2411.3 1931.2 2345.9 1937.3 2317.7 1938.6 2316.8 1938.6 2303.8 1937.7 2289.6 1934.3 2275.7 1931.5 2276 1982.5 2279.5 1983.5 2288.2 1988.6 2292.3 1996.1 2294 2005.4 2294.1 2032.7 2266.8 2009.5 2254.2 1999.4 2238.9 1990.3 2231.2 1984.9 2233 1931.2 2183.2 1933.7 2184.4 1922.8 2183.6 1915 2180.7 1904.6 2178.6 1894.5 2175.3 1879.4 2174.7 1871.6 2175.3 1863.3 2178.1 1854.5 2182.8 1846.2 2187.8 1837.8 2194.8 1829.5 2201.4 1823.8 2201.6 1820.4 2200.8 1787 2199.7 1742.1 2273.7 1738.2 2274.3 1762.4 2263.6 1762.8 2263.8 1816.1 2284.6 1809.3 2290.5 1808.8 2287 1679.1 2338.5 1680 2341.4 1805.3 2322.8 1808 2291.9 1819.4 2291.3 1835.6 2291.6 1864.2 2291.6 1874.5 2365 1871.5 2376.8 1884.8 2387.1 1896.8 2410.7 1919.7 2411.3 1931.2 Z" data-holc_grade="C"/>
<path d="M 439.1 633.2 436.2 591 433.4 528.5 472.2 525 470.2 494.4 471.1 487.8 470.2 464.2 548.8 459.4 547.3 420.1 547.5 389.3 578.9 388.7 581.6 464.7 522.7 468.8 522.7 484.5 548.7 484 550.2 554.7 522.1 556.5 521.8 584.9 541.9 589.6 545.8 701.6 523.2 688.6 519.3 590.7 489.1 591.7 491.3 667.3 439 633.3 439.1 633.2 Z" data-holc_grade="C"/>
<path d="M 2285.6 1594.8 2287 1679.1 2094.6 1682.2 2096.5 1738.8 2094.6 1744 2082.3 1760.7 2075.5 1770.8 2033.2 1773.4 2032.6 1758.4 1985.7 1760.1 1922.9 1760.7 1906.2 1759 1904.9 1727.3 1903.5 1604.2 1902 1546.7 1943 1511.9 1983.9 1558.4 2027.8 1557.1 2026.6 1498 2031 1494.1 2041.3 1491.4 2088.9 1475.6 2104.7 1473.6 2149.7 1459.2 2219.5 1437.8 2244.6 1487.5 2258 1514.1 2285.2 1560.2 2285.6 1594.8 Z" data-holc_grade="C"/>
<path d="M 2026.6 1498 2027.8 1557.1 1983.9 1558.4 1943 1511.9 1902 1546.7 1903.5 1604.2 1904.9 1727.3 1906.2 1759 1908.3 1798.1 1908.4 1799.8 1879 1800.5 1877.6 1766.7 1876.9 1735.5 1875.5 1656 1827.8 1656.6 1824 1643 1821.4 1628.2 1820.9 1611.3 1824.3 1590.5 1832.4 1579.3 1861.9 1540.5 1876.7 1527.6 1900.6 1509 1900.8 1492.1 1966.4 1440.2 2019.1 1504.8 2026.6 1498 Z" data-holc_grade="C"/>
<path d="M 1989.3 1422 1989.1 1422.1 2120.2 1315.2 2157.3 1294 2204.6 1267.4 2242.4 1227.6 2272.6 1196.5 2304.9 1164.2 2346.9 1133.2 2428.9 1075 2480.8 1002 2497.9 979.9 2522.9 953.3 2496.5 928.9 2508.6 913.2 2561.3 907.8 2625.4 961.3 2536.1 1067.2 2476.5 1028.2 2448.9 1064.3 2453 1068.5 2456.7 1074.4 2459.9 1081 2461.5 1086.7 2463.4 1092.5 2463.8 1099.1 2463.4 1109.5 2461.2 1119.2 2442 1139.1 2409.6 1171.9 2277 1318 2279.8 1383.5 2264.8 1386.9 2241.7 1392.2 2219.7 1398.6 2201.7 1404.8 2188 1381.4 2185.2 1382.5 2176.6 1388.2 2166.1 1397.3 2158 1409.1 2154.1 1418.4 2152.1 1427.1 2151.1 1435.7 2132.9 1437.8 2113 1439.7 2098.5 1441.7 2087.5 1445.3 2073.4 1450.9 2068.3 1456.7 2061.9 1460.5 2034.4 1429.7 2009.3 1448.2 1989.3 1422 Z" data-holc_grade="C"/>
<path d="M 2473.4 1548.1 2355.8 1550.8 2332.2 1550.3 2333 1593.6 2285.6 1594.8 2285.2 1560.2 2258 1514.1 2244.6 1487.5 2219.5 1437.8 2254.6 1428.6 2405.5 1421.6 2402.4 1293.3 2353.2 1296.1 2373 1258.1 2380.4 1244.7 2387.5 1234.2 2401 1213.3 2400.8 1198 2411.2 1180.9 2421.1 1168.2 2431.4 1159 2440.6 1152.9 2450.6 1145 2475.7 1132.6 2492.9 1130.1 2525.2 1127.9 2523.8 1162.9 2588.2 1162.1 2588.2 1224.5 2524.4 1227 2524.3 1290.2 2504.4 1290.8 2502.9 1165.6 2432 1166.9 2434.3 1291.7 2466.8 1291.3 2468.2 1332.4 2469.1 1394.7 2471.3 1454.7 2473.4 1548.1 Z" data-holc_grade="C"/>
<path d="M 2533.6 1350.9 2647.5 1346.9 2647.6 1416.5 2534 1419.2 2533.6 1350.9 Z" data-holc_grade="C"/>
<path d="M 2999 727.2 2958.3 727.8 2937.8 728.5 2917.8 728.8 2866.4 725.9 2867.2 702.6 2868.1 689.8 2865.7 673.1 2867.3 662.2 2870.4 654.4 2878.8 650.5 2916.6 642.5 2958.5 630.3 2970.4 628.9 2984.3 634.6 2997.9 634.6 2999 727.2 Z" data-holc_grade="C"/>
<path d="M 682.7 692.9 683.4 757.2 683.2 764.9 681.7 772.6 679.5 784 659.4 770.7 638.2 756.6 618.2 742.8 616.4 666.9 681.7 662.8 682.7 692.9 Z" data-holc_grade="C"/>
<path d="M 1362.7 189.3 1170.5 193.2 1037.6 194.2 1037.3 133.7 1037.1 97.7 1039.9 80.8 1064 82.2 1095.8 82.3 1112.8 80.4 1112.8 125 1127 124.9 1143.5 125.5 1158.6 126.6 1361.2 123.2 1362.7 189.3 Z" data-holc_grade="C"/>
<path d="M 1126.3 825.8 1126.8 858.7 1127.5 905.5 1127.7 933.5 1127.1 949.2 1189.5 950.3 1189.7 970.4 1067.5 971.2 1066.2 952.3 1052.3 952.4 1035.1 953.1 1023.1 954.2 1005.7 956.2 965 959 963.4 924.8 946.5 925.1 945.7 904.6 943.2 864.4 942 847.5 939.9 828.8 999.1 826.9 999.4 792 1062.3 792.3 1061.8 767.5 1124.3 766.1 1126 806.3 1126.3 825.8 Z M 1064.9 904.5 1063.2 848.3 1000 848.6 1002 906.3 1064.9 904.5 Z" data-holc_grade="C"/>
<path d="M 1494.2 413.9 1460.8 412.4 1427.5 410 1396.8 411.7 1364.9 411.2 1351.6 413.2 1338.7 414.4 1325.7 415.7 1301.3 414.6 1300.5 392.9 1298.8 318.9 1361.2 319.6 1390.8 318 1410 316.3 1424.5 314.8 1446.7 314.8 1460.3 314.1 1468.9 313.8 1478.5 313.4 1522.1 311.8 1523.8 334.3 1525 359.2 1525.8 376.6 1493.2 376.2 1494.2 413.9 Z" data-holc_grade="C"/>
<path d="M 1494.2 413.9 1494.8 438.2 1567.1 436.5 1621.6 434.5 1654 433.5 1630.8 490 1622.1 507 1604.1 541.8 1602.8 545.9 1602.8 549.8 1604.7 553.5 1607.4 555.2 1611.3 558.4 1610.6 561.2 1607.4 562.9 1601.4 562.9 1570.2 565.9 1560.9 566.9 1498 566.8 1499.5 649.5 1501.8 688.9 1509.5 690.5 1541.8 690.6 1547.6 690.1 1550.5 689.6 1552.1 687.3 1560.9 668.1 1571 667.1 1602 666.8 1635.9 666.8 1657.1 667.3 1671.4 667.5 1679.3 666.6 1680.4 706.1 1678.3 711.3 1674 717.8 1672.3 721.3 1671.7 732.2 1668.6 744.9 1665.9 751.1 1657.7 760.3 1651.3 764.7 1647.9 766.9 1641 768.7 1624.7 770.3 1609.4 771 1592.1 772 1581.6 772.6 1576.1 773.8 1565 772.3 1548.8 772.7 1538.6 772.8 1533.3 770.7 1527.6 766 1523.9 763 1516.7 762.8 1507.8 766.5 1501.3 770 1497.4 772.3 1491.9 772.8 1487.8 772.2 1480.4 766.7 1473.2 763.4 1467.9 762.3 1455.3 763.5 1445.5 766.4 1432.7 772.2 1423.4 775.8 1417.7 777.7 1413.2 778.2 1410.3 778.4 1408.2 709.4 1380.5 698.9 1379.4 687.9 1376.9 676.1 1376 650.8 1373.9 636.8 1372 624.8 1371.5 570.4 1306.3 571.4 1304.3 508 1301.6 421.7 1301.3 414.6 1325.7 415.7 1338.7 414.4 1351.6 413.2 1364.9 411.2 1396.8 411.7 1427.5 410 1460.8 412.4 1494.2 413.9 Z" data-holc_grade="C"/>
<path d="M 1616.8 293.1 1713.7 290.8 1690.1 350.4 1682.8 346.2 1618.1 348.7 1616.8 293.1 Z" data-holc_grade="C"/>
</g>
<g id="D">
<path d="M 964.5 1490.6 868.9 1409.7 868 1393.5 881.3 1393.5 972.9 1394 973.2 1458.2 964.3 1457.9 964.5 1490.6 Z" data-holc_grade="D"/>
<path d="M 1584.5 1392.2 1751.7 1498.4 1718.8 1547.7 1713.5 1546.6 1705.6 1545 1700.2 1540.2 1696.9 1534.4 1696.6 1525.1 1670.1 1509 1624.8 1579.9 1618.6 1579.5 1581.7 1565.8 1567 1565.7 1554.4 1569.5 1543.3 1572.5 1532 1577.3 1518.1 1583.7 1506.7 1587 1494.1 1587.7 1482.4 1586.5 1474.7 1583.7 1470.3 1584.1 1459.2 1584.4 1448.9 1582.9 1446.3 1581.2 1435.9 1572.5 1428.9 1567.6 1423.4 1564.8 1415.6 1565.5 1414.9 1539.7 1415.1 1520.8 1415.5 1499.9 1414.8 1486.1 1416 1452.3 1351.8 1452 1351.8 1424.3 1352.8 1392.7 1415.9 1392.6 1414.7 1345 1446.4 1343.2 1515.4 1342.4 1516.5 1359.7 1534.4 1360.2 1583.7 1391.7 1584.5 1392.2 Z M 1482.4 1500.5 1450.1 1499.4 1449.9 1524.2 1449.8 1524.4 1482 1525.1 1482.4 1500.5 Z" data-holc_grade="D"/>
<path d="M 1382.7 1696.6 1465.6 1647.8 1478.9 1663.3 1383.1 1749.6 1382.7 1696.6 Z" data-holc_grade="D"/>
<path d="M 1396.2 2034.7 1396.1 2031.9 1420.7 2024.5 1429.8 2022.3 1440.1 2017.1 1448.7 2015.7 1457.3 2012.3 1473.3 2011.1 1472.5 2065.6 1481.1 2075.7 1480.8 2090 1441.2 2090.3 1440.4 2081.8 1396.7 2080.8 1396.2 2034.7 Z" data-holc_grade="D"/>
<path d="M 1908.3 1798.1 1932.6 1798.6 1937 1806.8 1939.9 1817.9 1941 1824.5 1940.6 1829.1 1938.3 1837.1 1935.3 1843.5 1931.2 1849.4 1925.8 1856.5 1920.7 1862.1 1908.9 1874.3 1909.3 1890.6 1911.2 1961.5 1856 1961.1 1856.1 1942.8 1856.5 1881.1 1858.4 1875.8 1858.8 1868.6 1860.3 1860.5 1861 1854.7 1860.7 1839.3 1856.4 1833.2 1844.8 1833.3 1850.3 1813.1 1849.6 1755.3 1845 1736.6 1838.6 1699.7 1834.5 1687.4 1833 1680.1 1830.2 1666.3 1827.8 1656.6 1875.5 1656 1876.9 1735.5 1877.6 1766.7 1879 1800.5 1908.4 1799.8 1908.3 1798.1 Z" data-holc_grade="D"/>
<path d="M 2093.6 1935.5 2036.7 1880.7 2034.8 1844 2098.3 1841.3 2097.8 1798.7 2095 1783.6 2101.6 1776.9 2119.7 1749.8 2139.2 1722.9 2151.1 1707.6 2150.2 1721.3 2152 1730.8 2155.7 1740.8 2161.5 1748.5 2166.6 1934.1 2093.6 1935.5 Z" data-holc_grade="D"/>
<path d="M 2142.3 957.4 2111.1 930.4 2016.6 933.9 2016.6 1025.8 1948.4 1027.3 1947.7 999.7 1891.3 1000.3 1891.4 1062.1 1843.3 1098.1 1838.5 1090.5 1829.1 1073.1 1825.1 935 1872.3 934.2 1903 934 1902.2 899.1 2078.5 892.8 2138.4 891.2 2141.1 891.1 2142.3 957.4 Z" data-holc_grade="D"/>
<path d="M 2322.5 919.3 2195.5 802.4 2218.4 776.4 2299.9 774 2455.8 771.1 2441.7 791.8 2425.1 808.1 2401.9 831.5 2369 868.7 2322.5 919.3 Z" data-holc_grade="D"/>
<path d="M 1658.6 1279.4 1658.5 1222.9 1657.6 1195.8 1721.8 1195.2 1772.6 1265.6 1769.3 1268.9 1765.5 1275 1762.4 1282.1 1742.8 1333.3 1703.9 1307.3 1659.5 1307.7 1659.8 1289.6 1658.6 1279.4 Z" data-holc_grade="D"/>
</g>
</svg>