<?xml version="1.0"?>
<svg xmlns="http://www.w3.org/2000/svg" version="1.2" baseProfile="tiny" width="3000" height="2481" viewBox="0 0 3000 2481" stroke-linecap="round" stroke-linejoin="round">
<g id="A">
<path d="M 2996.8 725.7 2999 725.7 2998.1 1016.1 2689.2 1016.1 2603 1016.1 2595.3 1016.1 2595.3 1012.1 2598.5 724.7 2996.8 725.7 Z" data-holc_grade="A"/>
<path d="M 2193 1339.8 2006.1 1341.2 2005.8 1340.7 1871.3 1168.6 1871.7 1162.7 1875.5 1098.9 1943 1098.7 2196.6 1097.9 2193 1339.8 Z" data-holc_grade="A"/>
<path d="M 1411.4 1096.5 1310.4 1096.5 1306.4 1096.5 1310.6 1092.4 1314.8 1073.9 1316.1 1048.4 1311.5 1030 1305.6 1018.9 1304.6 1017 1409.1 1017 1409.4 1025 1410.8 1073.9 1411.4 1096.5 Z" data-holc_grade="A"/>
<path d="M 1007.5 162 1007.7 246.6 1005.9 246.5 1003.5 246.4 858.8 241.9 833.5 237.7 831 237.3 832 37.1 883.8 36.6 882.8 2.8 1007.2 1 1007.3 37.6 1007.5 158.8 1007.5 162 Z" data-holc_grade="A"/>
<path d="M 1014.5 1177.9 1014.6 1201.1 1008.4 1201.1 956.8 1201.5 930 1177.5 902.7 1161.3 904.9 1114.6 1009.5 1112.3 1013.7 1177.9 1014.5 1177.9 Z" data-holc_grade="A"/>
<path d="M 1108.5 1179.3 1110.8 1256.6 1009.9 1253 1006.3 1252.9 1008.4 1201.1 1014.6 1201.1 1014.5 1177.9 1108.5 1179.3 Z" data-holc_grade="A"/>
<path d="M 1455.5 1906.6 1453.7 1906.6 1453 1741.8 1210.8 1741.7 1210.2 1741.7 1206.5 1731 1205.6 1711.1 1201 1698.7 1201.5 1676.5 1195.4 1663 1197.3 1649.6 1180.2 1601.5 1169.9 1580.3 1167.8 1569.9 1162.2 1549.8 1158.1 1545.7 1148.9 1512.8 1145.3 1498.6 1144.4 1490.3 1138.5 1473.4 1137.6 1458.1 1129.8 1438.8 1123.3 1420.3 1111.3 1401.8 1102 1390.7 1094.6 1379.6 1087.2 1368 1078.9 1356.9 1066 1342.6 1058.1 1333.8 1053.5 1315.7 1039.6 1304.6 1034 1295.9 1026.6 1287.5 1021.1 1282 1012.8 1263.5 1005.4 1260.7 1009.9 1253 1110.8 1256.6 1108.5 1179.3 1112.2 1179.3 1112.2 1175.7 1267.7 1176.5 1224.4 1257.4 1408.6 1257.9 1410 1339.3 1794.1 1340.8 1796.2 1501.9 1994.8 1501.9 1998.7 1911.4 1798 1910.9 1796.2 1988.2 1595.3 1988.2 1592.5 1907.3 1455.5 1906.6 Z" data-holc_grade="A"/>
</g>
<g id="B">
<path d="M 2296.3 717.5 2297.5 1098.7 2397.9 1098.2 2398.8 1017.9 2400.2 1017.9 2595.3 1012.1 2595.3 1016.1 2603 1016.1 2689.2 1016.1 2689.2 1057.7 2710.9 1058.2 2710 1101.6 2401.1 1100.2 2398.7 1179.3 2299.8 1182.1 2293.8 1342.1 2192.9 1342.1 2193 1339.8 2196.6 1097.9 1943 1098.7 1875.5 1098.9 1873.4 1098.9 1873.8 1065.4 1874.3 1016.1 1949.2 1015.6 1946.9 852.8 1995.5 852.8 1996 767.3 1996.1 767.3 1996.2 723.2 2198.7 722 2199.9 569.3 2295.8 567.2 2296.3 717.5 Z" data-holc_grade="B"/>
<path d="M 1871.7 1162.7 1871.3 1168.6 2005.8 1340.7 2002.9 1340.9 1999.2 1341.1 1995 1501.2 1994.9 1501.9 1994.8 1501.9 1796.2 1501.9 1794.1 1340.8 1410 1339.3 1408.6 1257.9 1224.4 1257.4 1267.7 1176.5 1310.4 1096.5 1411.4 1096.5 1411.4 1097 1819 1094.3 1871.7 1162.7 Z" data-holc_grade="B"/>
<path d="M 1005.9 246.5 1005.8 526.8 1004.5 526.8 1002.3 526.8 836.6 525.9 834.2 690.8 833.8 715 763.1 714.6 764.4 675.7 773.7 642.4 774.6 627.2 785.3 627.2 787.1 583.7 775.5 583.2 776.5 501.4 721 501.4 718.7 463.9 510.6 457.9 511.9 382.5 835.2 377.9 833.5 237.7 858.8 241.9 1003.5 246.4 1005.9 246.5 Z" data-holc_grade="B"/>
<path d="M 1455.5 1906.6 1453.1 1909.4 1413.8 1909.1 1412.3 1985.5 1510.9 1985.8 1512.2 2080.2 1406.8 2081.1 1405.4 2072.8 1219.9 2072.8 1218.7 2054.4 1218.4 2035.8 1221.7 2016 1221.1 2001.4 1231.8 1973.9 1236.2 1967.1 1241.8 1950 1250.7 1931.9 1244.6 1904.3 1243.4 1889.2 1237.7 1871.2 1227.7 1849.6 1217.8 1825.2 1215.8 1810.8 1219 1785.6 1212.7 1767.2 1210.5 1742.5 1210.8 1741.7 1453 1741.8 1453.7 1906.6 1455.5 1906.6 Z" data-holc_grade="B"/>
</g>
<g id="C">
<path d="M 2996.8 725.7 2598.5 724.7 2595.3 1012.1 2400.2 1017.9 2401.5 722.9 2296.3 717.5 2295.8 567.2 2199.9 569.3 2198.7 722 1996.2 723.2 1996.1 767.3 1996 767.3 1898.6 768.5 1898.6 850.5 1946.9 852.8 1949.2 1015.6 1874.3 1016.1 1873.8 1065.4 1873.4 1098.9 1875.5 1098.9 1871.7 1162.7 1819 1094.3 1411.4 1097 1411.4 1096.5 1410.8 1073.9 1409.4 1025 1409.1 1017 1409.1 1015.6 1411.6 1015.6 1411.9 1015.6 1412.3 1015.6 1752.7 1012.8 1724 972.7 1712.7 959.3 1695.5 945.4 1670.1 930.3 1641.4 918.5 1594.6 900.4 1593.6 624.4 1693 594.3 2046.4 476.5 2050.2 475.2 2083.1 464.3 2400.4 349.4 2448.8 326.6 2490.5 317.7 2570.7 306.4 2596.5 305 2595.9 364.4 2669.3 364.4 2669.3 445 2697.9 445.4 2697.5 608.7 2998.1 608.7 2996.8 725.7 Z" data-holc_grade="C"/>
<path d="M 1995 1501.2 1999.2 1341.1 2002.9 1340.9 2079.6 1444.3 2080.1 1502.6 1995 1501.2 Z" data-holc_grade="C"/>
<path d="M 1206.1 38.6 1206.1 162.4 1007.5 162 1007.5 158.8 1007.3 37.6 1193.1 38.9 1206.1 36.1 1206.1 38.6 Z" data-holc_grade="C"/>
<path d="M 1004.5 647.1 1004.5 648.3 929.9 648 929.9 698.6 834.2 690.8 836.6 525.9 1002.3 526.8 1004.5 526.8 1004.5 647.1 Z" data-holc_grade="C"/>
<path d="M 711.3 834.8 715 839.8 664.7 853.8 633.5 857.4 599 852.5 544.3 841.5 502.5 830.9 472.3 830 449.5 830.3 422.6 833.9 394.2 838.6 361.9 841 322.8 841.8 283.5 832.7 246.1 824.5 212.2 815.4 182.3 808 145.4 802.3 123.6 801.5 108.5 803.1 106.7 803.2 88.3 806.1 68.5 813.1 39.8 820.9 25.4 826 5.6 832.9 6 722 131.6 723.5 703.7 716.1 704.9 826.2 711.3 834.8 Z" data-holc_grade="C"/>
<path d="M 1112.2 1175.7 1112.2 1179.3 1108.5 1179.3 1014.5 1177.9 1013.7 1177.9 1009.5 1112.3 904.9 1114.6 904.1 1114.6 889.8 1110 876.4 1148.3 792.6 1094.7 801.9 1079 800.5 1015.2 1067.8 1016.5 1090.5 1054.9 1112.2 1056.3 1112.2 1175.7 Z" data-holc_grade="C"/>
</g>
<g id="D">
<path d="M 1 2479.7 6.8 2143.5 113 2143.5 114.1 1903 210.1 1904.1 212.3 1819.4 412.2 1821.7 412.2 1900.7 505.9 1905.2 509.3 1824 621.1 1820.3 620.6 1744 706.4 1744.5 708.5 1819.4 785.1 1818.8 784.8 1826.5 844.3 1826.8 859.4 1831.9 876 1840.4 888.1 1855.8 890.5 1869.4 893.2 1886.6 765 1886.3 765.9 1834.2 710 1832.5 705.2 2148.5 612.3 2148.8 611.4 2184.9 636.9 2182.9 636.9 2191.2 706.1 2191.2 706.7 2231.4 756.7 2230.8 759.7 2312.5 557.2 2311.6 557.8 2148.8 407.9 2146.3 406 2226.8 354.7 2227.2 353.2 2306.1 250.6 2309 251.4 2352.4 106.8 2354.6 105.9 2475.6 1 2479.7 Z M 506.9 1997.9 505.9 2068.6 603.5 2068.6 603 1998.8 506.9 1997.9 Z M 403.7 2146.3 406 2067.2 307.1 2061.2 271.5 2024.7 211.3 2024.2 211.3 2148.6 403.7 2146.3 Z M 105.4 2148.2 103.1 2230 200.7 2230.9 202.1 2147.7 105.4 2148.2 Z" data-holc_grade="D"/>
<path d="M 663.2 1568.7 660.3 1530.8 661.8 1501.2 628.5 1501.2 660.8 1348.2 681 1268.3 669.4 1280.8 656.7 1294.4 645.4 1307.1 632.1 1316.3 620 1319.2 608.7 1318.9 609.6 1214.8 684.8 1217 696.5 1198.7 710.3 1181 748.1 1180.1 762.1 1190.2 780.4 1202 789 1206.5 794 1213.3 802 1223.9 810.3 1229.3 813 1339.1 844.3 1341.1 845.8 1365.4 856.2 1364.8 855.9 1375.5 860.9 1375.8 860.9 1380.8 876.3 1381.7 874.5 1505.8 717.3 1506.7 710.3 1513.7 711.3 1568.2 663.2 1568.7 Z" data-holc_grade="D"/>
<path d="M 108.5 803.1 123.6 801.5 145.4 802.3 182.3 808 212.2 815.4 246.1 824.5 283.5 832.7 322.8 841.8 361.9 841 394.2 838.6 422.6 833.9 449.5 830.3 472.3 830 502.5 830.9 544.3 841.5 599 852.5 633.5 857.4 664.7 853.8 715 839.8 711.3 834.8 848.1 783 878.7 843.6 869 849.1 859.2 862.1 861.1 902.3 794 1020.2 770.5 1057.7 752 1066.9 728.8 1064.2 712.6 1049.8 677.5 1018.4 653.5 1002.7 607.9 985.4 572.3 979.2 527.6 956.4 472.9 945.1 430 936.9 404.8 932.4 383.5 933.3 205.3 958.7 204.4 938.8 104.5 938.8 108.5 803.1 Z" data-holc_grade="D"/>
<path d="M 2046.4 476.5 1693 594.3 1593.6 624.4 1594.6 900.4 1641.4 918.5 1670.1 930.3 1695.5 945.4 1712.7 959.3 1724 972.7 1752.7 1012.8 1412.3 1015.6 1411.9 1015.6 1411.6 1015.6 1408.2 975.4 1279.1 975.8 1262.5 958.7 1261.6 737.2 1100.2 792.7 1026.4 647.4 1004.5 647.1 1004.5 526.8 1005.8 526.8 1005.9 246.5 1007.7 246.6 1007.5 162 1206.1 162.4 1206.1 38.6 1309 37.4 1309.9 76.8 1409.6 76.2 1407.7 198 1501.1 199.4 1501.1 282.6 1546 284 1548.8 315.5 1601.5 279.4 1601 207.7 1793.4 205.4 1793.4 119.8 2096.8 122.2 2095.8 289.6 1910.4 290 1911.8 368.2 1875 368.2 1874.3 444.8 2044.8 446.9 2046.4 476.5 Z" data-holc_grade="D"/>
</g>
</svg>