<?xml version="1.0"?>
<svg xmlns="http://www.w3.org/2000/svg" version="1.2" baseProfile="tiny" width="3000" height="2341" viewBox="0 0 3000 2341" stroke-linecap="round" stroke-linejoin="round">
<g id="A">
<path d="M 2888.4 1137.3 2847 1140.1 2764.5 1143.4 2765 1155.5 2718.9 1157 2479.7 1158 2163.1 1162.7 2162.9 1116.4 2192 1094.4 2191.5 877.3 2277.1 875.9 2278.5 757.6 2307.2 758.5 2333.9 755.2 2337.8 1084.1 2474.9 1080.8 2531.7 1080.8 2526.5 791.7 2524.1 650.4 2519 611.8 2610.6 605.9 2729.8 597.5 2781.9 594.6 2829.8 585.7 2838.8 611.9 2824.3 755.1 2852.9 806 2885.8 836.4 2995.7 838.7 2999 852.8 2999 878 2992.4 894.9 2982.6 914.5 2972.7 959.9 2970.4 986.1 2967.1 1015.6 2954.5 1046.5 2946.5 1063.8 2940.4 1077.8 2938.5 1133.9 2888.4 1137.3 Z" data-holc_grade="A"/>
</g>
<g id="B">
<path d="M 352.3 205.9 601 204.8 603.6 238.9 616.4 288.3 611.5 311.5 605.5 352.3 574.6 462.3 569.7 488.1 555.8 485.8 538.9 485.5 514.5 483.2 477.7 482.5 449.9 479.4 427.4 480.6 415.7 478.7 403 474.6 392.8 471.2 382.3 472.7 354.1 475.7 352.3 205.9 Z" data-holc_grade="B"/>
<path d="M 2163.1 1162.7 2479.7 1158 2718.9 1157 2765 1155.5 2765.9 1415.2 2161.7 1415.9 2163.1 1162.7 Z" data-holc_grade="B"/>
<path d="M 2163.1 1162.7 2161.7 1415.9 2765.9 1415.2 2765 1155.5 2764.5 1143.4 2847 1140.1 2888.4 1137.3 2891.3 1323.1 2895.9 1715.5 2957.4 1715.5 2931.5 1755.4 2796 1951.8 2786.2 1966 2774.9 1959.3 2713.4 1921.1 2645.2 1874.6 2590 1834.1 2416 1716.3 2324.1 1668 2337.1 1648.4 2143.1 1542.3 2160 1506.9 2029.8 1438.4 2028.7 1411.5 1975.2 1411.5 1970.7 1368.2 1898 1369.9 1866.9 1154.3 1894.5 1152.7 1919.3 1153.2 1975.1 1151.5 1974 1118.8 1999.4 1119.2 2015 1117.8 2148.8 1116.9 2162.9 1116.4 2163.1 1162.7 Z" data-holc_grade="B"/>
<path d="M 2519 611.8 2524.1 650.4 2526.5 791.7 2531.7 1080.8 2474.9 1080.8 2337.8 1084.1 2333.9 755.2 2307.2 758.5 2278.5 757.6 2277.1 875.9 2191.5 877.3 2192 1094.4 2162.9 1116.4 2148.8 1116.9 2015 1117.8 2016.8 858.2 1756.6 858.7 1732.6 742.1 1824.7 649.5 1915.6 547.3 1952.6 516.6 2056.6 393.1 2080.7 378.2 2131.7 344.8 2181.7 343.1 2184.5 380.6 2428.7 381.4 2515.1 378.6 2515.1 583 2519 611.8 Z" data-holc_grade="B"/>
<path d="M 1558.8 866.2 1563.4 934.1 1530.7 1017.2 1465.3 1019.4 1463.1 958.3 1327.2 959.4 1325 922.3 1319.4 884.7 1260.2 892 1263.6 929.6 1223.6 933.5 1177.9 931.9 1145.2 956 1198.8 1025 1176.8 1041.3 1188 1055.4 1146.3 1057.6 1136.8 1053.1 1124.9 1048.1 1110.8 1045.2 1088.9 1044.7 1077.6 1044.7 1064.6 1046.4 1041.5 1059.3 1022.9 1042.4 990.2 1003.1 982.9 985.2 981.2 965.5 985.2 950.4 993.1 931.8 1002.1 920 1020.1 905.4 1008.9 888 986.3 807.2 1003.8 801 1000.4 792.6 1033.7 785.3 1057.3 857.2 1063.5 865.6 1146.9 799.9 1255.1 798.3 1257.4 762.3 1287.8 754.5 1288.4 736.5 1316 737.6 1317.7 796 1503.1 793.2 1506.4 835.9 1558.3 835.9 1558.8 866.2 Z" data-holc_grade="B"/>
<path d="M 819.2 302.1 859.1 304.4 882.6 365.2 1036.1 310.5 1070.9 357.8 1069.9 397.1 1034.2 394.7 1001.4 406.4 1013.6 435.4 915.4 471.9 939.8 533.6 948.3 532.7 956.3 555.2 904.6 577.6 894.3 559.8 884.4 545.3 870.8 533.6 853.4 524.7 836.5 511.6 819.2 493.9 809.3 488.2 877.9 464.4 819.2 302.1 Z" data-holc_grade="B"/>
<path d="M 1952.4 1097.7 1869.8 1099.6 1866 1075.8 1858 1057 1840.2 1030.8 1815.3 1004.2 1816.7 905.5 1950.1 907.3 1952.4 1097.7 Z" data-holc_grade="B"/>
</g>
<g id="C">
<path d="M 1673.2 872.9 1602.2 870.7 1558.8 866.2 1558.3 835.9 1506.4 835.9 1503.1 793.2 1317.7 796 1316 737.6 1288.4 736.5 1287.8 754.5 1257.4 762.3 1255.1 798.3 1146.9 799.9 1063.5 865.6 1057.3 857.2 1033.7 785.3 1000.4 792.6 968.9 703.9 1046.6 675.9 1070.3 657.9 1110.9 628.2 1162.2 601.8 1298.5 604.6 1451.2 601.8 1450.1 527.1 1539.7 524.9 1611.2 526.6 1632.1 623.7 1643.9 624.8 1685.1 792.1 1672.1 807.8 1673.2 872.9 Z" data-holc_grade="C"/>
<path d="M 1671.6 1166.9 1670.2 1182.3 1673.4 1225.4 1622.7 1226.3 1623.7 1252.1 1541.9 1248.3 1394.9 1256.3 1391.2 1220.7 1414.7 1220.2 1411.9 1180 1463.5 1180.5 1463 1170.2 1671.6 1166.9 Z M 1866.9 1154.3 1898 1369.9 1867.9 1369.5 1863.2 1449.9 1778.7 1403.2 1748.6 1358.3 1759.4 1325 1717.1 1280.1 1715.7 1161.8 1866.9 1154.3 Z M 1673.2 872.9 1674.4 1114.3 1591 1116.6 1456.3 1119.9 1451.8 1075 1403.9 1076.1 1399.9 1023.9 1327.2 1025.6 1325 995.3 1261.3 1001.5 1263 1048.1 1237.1 1054.2 1188 1055.4 1176.8 1041.3 1198.8 1025 1145.2 956 1177.9 931.9 1223.6 933.5 1263.6 929.6 1260.2 892 1319.4 884.7 1325 922.3 1327.2 959.4 1463.1 958.3 1465.3 1019.4 1530.7 1017.2 1563.4 934.1 1558.8 866.2 1602.2 870.7 1673.2 872.9 Z M 2015 1117.8 1999.4 1119.2 1974 1118.8 1973.1 1097.7 1952.4 1097.7 1950.1 907.3 1816.7 905.5 1815.3 1004.2 1840.2 1030.8 1858 1057 1866 1075.8 1869.8 1099.6 1739.2 1101 1735.9 1048.2 1786.7 1047.7 1785.7 978.9 1736.4 941.5 1756.6 858.7 2016.8 858.2 2015 1117.8 Z" data-holc_grade="C"/>
<path d="M 569.7 488.1 573.5 511.1 583.2 528.3 591.5 536.5 619.3 568 657.6 567.2 682.4 577.7 697.4 578.4 744 574.7 765.8 653.3 786.8 748.4 756.7 760.3 535.8 862.1 492.3 828.4 416.4 878.5 203.8 714.5 1 550.5 62 276.6 60.5 210.8 352.3 205.9 354.1 475.7 382.3 472.7 392.8 471.2 403 474.6 415.7 478.7 427.4 480.6 449.9 479.4 477.7 482.5 514.5 483.2 538.9 485.5 555.8 485.8 569.7 488.1 Z" data-holc_grade="C"/>
<path d="M 797.3 797 820.8 905.9 850.6 900.3 846.7 929 841.1 990.1 847.8 1025.5 850.6 1073.8 858.5 1110.3 869.2 1126.6 886.1 1145.1 913.7 1164.2 936.8 1176 961.1 1180.5 978.5 1181.6 989.2 1177.7 996 1177.1 1002.2 1196.8 918.8 1226.5 756.1 1223.1 743.7 1225.9 690.2 1224.2 689.6 1242.2 658.1 1242.7 636.1 1238.2 291.2 1173.6 284.4 1219.6 137.9 1201 139.1 1144.3 98.5 1139.8 103.6 1110.6 179.1 1067.4 419.7 957.5 492.4 958.1 491.8 931.7 773.1 800.9 797.3 797 Z" data-holc_grade="C"/>
<path d="M 1086.4 1564.6 1065.7 1640.4 1040.3 1714.3 1127.2 1714.8 1201.4 1712.5 1232.4 1711 1217.9 1609.5 1306.6 1565.5 1373.8 1986.8 1000.1 1978.3 1000.7 1963.2 490.7 1952.4 167.4 1946.7 108.2 1944.4 90.8 1942.7 41.2 1946.6 46.8 1939.3 95.3 1897.8 170.9 1823.1 221 1774.9 274.6 1744 371 1689.6 426.8 1657.6 540.1 1625.6 566.6 1618.3 562.1 1554.3 385.7 1553.7 384 1600.3 172.6 1600.8 172.7 1384.6 238.1 1382.4 237.6 1243.1 447.8 1269 592.1 1284.2 592 1497.6 643.9 1500.4 643.3 1300.5 853.3 1306.2 967.1 1305.1 991.9 1303.4 1008.8 1398.9 1016.1 1443.2 1025.7 1541.5 1086.4 1564.6 Z" data-holc_grade="C"/>
<path d="M 904.6 577.6 956.3 555.2 948.3 532.7 939.8 533.6 915.4 471.9 1013.6 435.4 1001.4 406.4 1034.2 394.7 1069.9 397.1 1070.9 357.8 1036.1 310.5 882.6 365.2 859.1 304.4 819.2 302.1 768.7 161.3 1080.1 168.4 1083.4 3.3 1398.9 1.9 1400.3 5.6 1588.1 9.8 1593.2 35.1 1605.9 63.1 1626.6 116.9 1578.2 116.5 1578.2 307.8 1328.2 305.9 1307.5 368.6 1308.9 464.9 1257.7 487.4 1259.6 517.3 1208.9 515.4 1207 562.2 1089.6 613.6 1068.5 571.5 1019.2 594.5 1027.6 610.4 976.4 631.4 985.4 651.5 963.3 659.9 952 624.4 924.3 634.2 915.4 603.3 904.6 577.6 Z" data-holc_grade="C"/>
<path d="M 2131.7 344.8 2080.7 378.2 2056.6 393.1 1952.6 516.6 1915.6 547.3 1824.7 649.5 1732.6 742.1 1698.9 776 1690.2 609.5 1680.1 414.1 1704.7 413 1711.8 416.7 1749.8 451.2 1761 457.1 1872.2 327.7 1873.3 237.5 1870.3 132 1916.9 70.2 1975.4 1 2055.1 7 2090 6.2 2088.9 136.1 2090.4 344.8 2131.7 344.8 Z" data-holc_grade="C"/>
<path d="M 1975.2 1411.5 2028.7 1411.5 2029.8 1438.4 2160 1506.9 2143.1 1542.3 2337.1 1648.4 2324.1 1668 2416 1716.3 2590 1834.1 2645.2 1874.6 2713.4 1921.1 2774.9 1959.3 2786.2 1966 2796 1951.8 2851.4 1991.6 2753 2136 2754.7 2173 2755.9 2337.6 2657.8 2339.8 2427.9 2336.1 2244 2061.6 2258.9 2057.5 2116.8 1844.7 2086.9 1845.8 1936.9 1632.5 1943.7 1494.9 2079.5 1568.4 2091.9 1522.9 1909.8 1423 1907 1411.2 1975.2 1411.5 Z" data-holc_grade="C"/>
</g>
<g id="D">
<path d="M 1306.6 1565.5 1217.9 1609.5 1232.4 1711 1201.4 1712.5 1127.2 1714.8 1040.3 1714.3 1065.7 1640.4 1086.4 1564.6 1154.5 1587 1221.6 1544 1219.3 1500 1220.7 1366.2 1245.6 1367.1 1246.1 1341.9 1351.3 1342.4 1357.4 1453.7 1374.3 1496.3 1307.6 1502.4 1306.6 1565.5 Z M 1502 1444.8 1556.5 1549.6 1440 1546.4 1398.2 1434.5 1396.8 1340.5 1415.6 1340.5 1451.8 1362.5 1502 1444.8 Z" data-holc_grade="D"/>
<path d="M 1598.6 1694.4 1652.1 1652.8 1688.8 1623.1 1701.7 1643.9 1730.5 1674.2 1749.1 1702.8 1777.3 1746.6 1817.8 1797.1 1791.9 1821.9 1731.6 1862.8 1707.4 1833.1 1598.6 1694.4 Z" data-holc_grade="D"/>
<path d="M 2244 2061.6 2427.9 2336.1 2278.5 2331.7 2130.8 2326.1 2103.7 2267.7 2063.7 2191.9 1974 2022.9 1984.2 1977.4 1976.8 1955.5 1972.3 1939.8 1967.2 1933 1956.5 1857.8 2068.1 1852.1 2212.5 2059.3 2244 2061.6 Z" data-holc_grade="D"/>
<path d="M 1578.2 307.8 1577.2 319 1543.8 337.2 1308.9 464.9 1307.5 368.6 1328.2 305.9 1578.2 307.8 Z" data-holc_grade="D"/>
</g>
</svg>