<?xml version="1.0"?>
<svg xmlns="http://www.w3.org/2000/svg" version="1.2" baseProfile="tiny" width="3000" height="3000" viewBox="0 0 3000 3000" stroke-linecap="round" stroke-linejoin="round">
<g id="A">
<path d="M 896 2444.8 893.5 2444.8 850.3 2444.7 769.7 2444.3 765.3 2977 783.3 2977.2 783.3 2982 18.2 2969.9 7.9 2238.3 244 2055.3 246.4 2055.3 794.2 2062 946.4 1943 1062.8 2101.3 1060.7 2104.2 900.5 2224.4 896 2444.8 Z" data-holc_grade="A"/>
<path d="M 2614.1 1299.4 2619.8 1300.1 2618.8 1513.2 2616.1 1513.2 2334.4 1510.1 2334.4 1509.8 2334.3 1496.2 2333.9 1378.3 2333.8 1352.8 2333.8 1348.2 2341.8 1347.6 2342.4 1277.3 2432.2 1276.2 2614.1 1299.4 Z" data-holc_grade="A"/>
</g>
<g id="B">
<path d="M 445 803.3 374.8 839.8 369.4 708.2 392 671.6 397.9 630 423.7 641.6 437.1 679.1 442.9 736.5 445 803.3 Z" data-holc_grade="B"/>
<path d="M 2057 2394.6 2055.9 2394.6 1997.3 2395.1 1816.1 2396.8 1800.8 2397 1712.3 2397.8 1691.6 2398.1 1513.3 2397.7 1513.3 2493.5 1315.9 2496.6 1300.2 2471 1281.5 2454.6 1251.4 2447.1 1226.2 2444.1 896 2444.8 900.5 2224.4 1060.7 2104.2 1062.8 2101.3 946.4 1943 794.2 2062 246.4 2055.3 342.4 1965.6 352 1973.8 434.1 1976.2 446.3 1981.1 467 1975.6 522.4 1974.4 572.8 1974.4 591.7 1971.4 653.8 1973.8 653.1 1982.9 672 1991.4 700 1990.8 713.4 1996.9 744.4 1992.1 805.2 1994.5 805.9 1899.3 774.2 1914.5 745.6 1923.6 714.6 1924.2 681.1 1909.6 665.3 1890.8 627.6 1875.6 565.4 1878.5 661.7 1800.5 698.8 1775.1 782.2 1767.8 786.4 1743 826.6 1738.7 830.8 1730.2 830.1 1666.7 829.7 1638.4 938.5 1636.9 1051 1645.4 1071.7 1656.9 1105.2 1626.6 1560.3 2031.3 1823 2255.2 1969 2337.6 2055.6 2393.7 2057 2394.6 Z" data-holc_grade="B"/>
<path d="M 2333.8 1352.8 2333.9 1378.3 2334.3 1496.2 2334.4 1509.8 2241.5 1544.3 2220.6 1550.1 2149.5 1580.4 2151.4 1379.7 2151.5 1371 2151.5 1370.4 2163.1 1371.1 2215.5 1355.9 2238.3 1349.3 2238.4 1349.3 2280.1 1351.3 2333.8 1352.8 Z" data-holc_grade="B"/>
<path d="M 1450.9 709 1450.9 405.5 1450.9 403.6 1450.9 388 1448.1 388 1451.7 384.7 1457.3 384.8 1604.5 386.4 1603.2 705.2 1584.3 705.7 1461.5 708.7 1450.9 709 Z" data-holc_grade="B"/>
<path d="M 1694.3 2986.7 783.3 2977.2 765.3 2977 769.7 2444.3 850.3 2444.7 893.5 2444.8 896 2444.8 1226.2 2444.1 1251.4 2447.1 1281.5 2454.6 1300.2 2471 1315.9 2496.6 1513.3 2493.5 1513.3 2397.7 1691.6 2398.1 1691.5 2433.3 1691 2630.4 1695.9 2671.1 1689.8 2697.1 1694.3 2986.7 Z" data-holc_grade="B"/>
</g>
<g id="C">
<path d="M 2289.5 2985.3 2292.3 2993.5 1694.3 2988 1694.3 2986.7 1689.8 2697.1 1695.9 2671.1 1691 2630.4 1691.5 2433.3 1691.6 2398.1 1712.3 2397.8 1800.8 2397 1816.1 2396.8 1997.3 2395.1 2055.9 2394.6 2057 2394.6 2059.2 2394.5 2086.5 2430.2 2099.4 2461.6 2103.6 2473.5 2152.2 2607.9 2248.4 2864.4 2289.5 2985.3 Z" data-holc_grade="C"/>
<path d="M 2151.5 1371 2151.4 1379.7 2149.5 1580.4 2220.6 1550.1 2241.5 1544.3 2334.4 1509.8 2334.4 1510.1 2616.1 1513.2 2617.1 1833.3 2999 2166.1 2997.7 2470.4 2980.9 2472.1 2950.5 2469.7 2934.4 2467 2919.3 2469 2906.3 2473.1 2875.9 2463.9 2860.5 2463.9 2797.8 2438.7 2777.2 2437.4 2736.2 2421.9 2713.7 2421.7 2687.8 2413.2 2663.5 2408.2 2650.8 2409.1 2622.3 2399 2605.3 2405.2 2591.7 2405.6 2565.8 2389 2510 2352.8 2481.9 2337.5 2458.5 2315.5 2448 2306.1 2408.5 2284.7 2401.9 2276.6 2374.2 2260 2335 2237.5 2285.4 2203.9 2289.3 2203.8 2303.6 2203.5 2312.6 2199.6 2323 2189.6 2332.6 2176.4 2338.1 2152.6 2341.9 2126.8 2335.6 2073.1 2328.9 2036.9 2321.3 2001.4 2307.3 1964.3 2291.2 1930.5 2269.3 1895.8 2254.9 1865.4 2174.3 1793.5 2133.4 1771.8 2092.4 1747.7 2051.5 1728.6 2022.3 1704.4 1994.7 1682.8 1937.5 1632 1909.3 1609.5 1871.3 1581.5 1865.5 1547.1 1864.4 1514.7 1875.2 1491.1 1884.8 1476 1919.3 1444.9 1944.4 1425.2 1978 1404.5 2041.4 1381.8 2087.4 1372.7 2123.7 1366.3 2141.9 1368.4 2151.5 1371 Z" data-holc_grade="C"/>
<path d="M 2074.7 8.9 2040.4 139.2 2001.2 316.5 1991 350.3 1979.8 380.6 1969.6 393.9 1924.7 400.9 1893.8 397.1 1869.2 397.1 1869.2 422.3 1869.3 444.5 1870.1 753.1 1870.1 754.9 1823.2 755.2 1698.1 755.8 1694 756.8 1669.2 756.7 1613.2 756.6 1602.9 744.6 1603.2 705.2 1604.5 386.4 1457.3 384.8 1453.4 108.5 1493.5 105.2 1492.7 8.1 2075.4 6.1 2074.7 8.9 Z" data-holc_grade="C"/>
<path d="M 1450.9 709 1448.1 709 1444 714.5 1416.8 762.7 1405.3 813 1007.1 815.2 922 838.7 765.3 839.4 768.4 939.9 684.8 933.8 612.6 937 550.1 946 452.3 1000.3 379.3 1046.4 379.4 1043.1 376.1 1043.2 374.2 1040 376.9 921.5 329.4 881 318.1 869.3 374.8 839.8 445 803.3 474.6 787.8 465 773.5 460.9 750.7 461.2 734 467.1 709.1 484.5 688.7 487.9 676.7 487.6 669.6 479.7 674.7 479 668.2 507.1 642.3 528.3 629.4 540.3 608.3 541.5 577.6 363.7 381.2 366.4 1 529.2 1.9 530.4 3 756.6 200.1 806.8 233.6 877.9 262.9 947.9 273.1 1071.8 275.7 1156.8 285.3 1201.7 311.4 1242.8 341.8 1282.9 370.5 1321.4 386.5 1418.1 387.7 1448.1 388 1450.9 388 1450.9 403.6 1450.9 405.5 1450.9 709 Z" data-holc_grade="C"/>
<path d="M 376.1 1043.2 379.4 1043.1 379.3 1046.4 379.2 1048.8 372.8 1238.2 613.6 1413.7 591.6 1439.8 589.2 1494 588.9 1499.4 570.2 1497.3 568.7 1498.7 5.6 1499.1 1 955.9 132.8 1049.5 376.1 1043.2 Z" data-holc_grade="C"/>
<path d="M 447.1 1873.6 471.9 1878.6 558.3 1878.7 560.7 1878.7 565.4 1878.5 627.6 1875.6 665.3 1890.8 681.1 1909.6 714.6 1924.2 745.6 1923.6 774.2 1914.5 805.9 1899.3 805.2 1994.5 744.4 1992.1 713.4 1996.9 700 1990.8 672 1991.4 653.1 1982.9 653.8 1973.8 591.7 1971.4 572.8 1974.4 522.4 1974.4 467 1975.6 446.3 1981.1 434.1 1976.2 352 1973.8 342.4 1965.6 339.9 1963.4 442.1 1872.6 447.1 1873.6 Z" data-holc_grade="C"/>
</g>
<g id="D">
<path d="M 2113.6 666 2113.9 695.7 2083.6 657.1 2007.9 567.4 1957 503.8 1880 427.1 1869.2 422.3 1869.2 397.1 1893.8 397.1 1924.7 400.9 1969.6 393.9 1979.8 380.6 1991 350.3 2001.2 316.5 2040.4 139.2 2074.7 8.9 2235.7 7.3 2240 190 2615.8 189 2619.8 380.1 2111 391.9 2113.6 666 Z" data-holc_grade="D"/>
<path d="M 2614.1 1299.4 2432.2 1276.2 2342.4 1277.3 2341.8 1347.6 2333.8 1348.2 2333.8 1352.8 2280.1 1351.3 2238.4 1349.3 2238.3 1349.3 2241 1270 2234.9 1271.9 2241.8 1055.3 2240.3 1055.2 2242.8 877.9 2249.8 858.7 2218.1 807.9 2148.9 740.3 2113.9 695.7 2113.6 666 2193.1 758.1 2625.2 755.8 2614.1 1299.4 Z" data-holc_grade="D"/>
<path d="M 1603.2 705.2 1602.9 744.6 1613.2 756.6 1669.2 756.7 1694 756.8 1694.9 756.8 1695.6 994.6 2051.6 1330.6 2215.3 1278.2 2234.9 1271.9 2241 1270 2238.3 1349.3 2215.5 1355.9 2163.1 1371.1 2151.5 1370.4 2151.5 1371 2141.9 1368.4 2123.7 1366.3 2087.4 1372.7 2041.4 1381.8 1978 1404.5 1944.4 1425.2 1919.3 1444.9 1884.8 1476 1875.2 1491.1 1864.4 1514.7 1865.5 1547.1 1871.3 1581.5 1909.3 1609.5 1937.5 1632 1994.7 1682.8 2022.3 1704.4 2051.5 1728.6 2092.4 1747.7 2133.4 1771.8 2174.3 1793.5 2254.9 1865.4 2269.3 1895.8 2291.2 1930.5 2307.3 1964.3 2321.3 2001.4 2328.9 2036.9 2335.6 2073.1 2341.9 2126.8 2338.1 2152.6 2332.6 2176.4 2323 2189.6 2312.6 2199.6 2303.6 2203.5 2289.3 2203.8 2240.4 2171.3 2186.1 2120.6 2146.8 2092.3 2125.9 2057.3 2088.3 2035.7 2047.9 2051.4 2034 2065.7 2031.9 2067.9 2035.1 2095.6 2051.7 2130.2 2094 2195.2 2169.9 2288.9 2128.7 2335.8 2109 2398.7 2103.6 2461 2103.6 2473.5 2099.4 2461.6 2086.5 2430.2 2059.2 2394.5 2057 2394.6 2055.6 2393.7 1969 2337.6 1823 2255.2 1560.3 2031.3 1105.2 1626.6 1071.7 1656.9 1051 1645.4 938.5 1636.9 829.7 1638.4 829 1583 767 1626 722.6 1653.2 562.3 1779.7 640.6 1703.5 659 1657.8 658.3 1648.1 648.9 1638.7 637.2 1639.5 625.9 1639.5 623 1630.6 627.4 1621 643.8 1609.7 653.9 1598.1 662.2 1584.6 662.9 1563.8 662.7 1540.7 649.5 1527 641.2 1525.2 630.3 1534 622.6 1543.3 613.2 1537.7 606.4 1525.4 604 1508.9 605.5 1496.6 589.2 1494 591.6 1439.8 613.6 1413.7 372.8 1238.2 379.2 1048.8 379.3 1046.4 452.3 1000.3 550.1 946 612.6 937 684.8 933.8 768.4 939.9 765.3 839.4 922 838.7 1007.1 815.2 1405.3 813 1416.8 762.7 1444 714.5 1448.1 709 1450.9 709 1461.5 708.7 1584.3 705.7 1603.2 705.2 Z" data-holc_grade="D"/>
<path d="M 2240.3 1055.2 2241.8 1055.3 2234.9 1271.9 2215.3 1278.2 2051.6 1330.6 1695.6 994.6 1694.9 756.8 1694 756.8 1698.1 755.8 1823.2 755.2 1870.1 754.9 1870.1 753.1 2101.8 1050.5 2214.7 1054.3 2240.3 1055.2 Z" data-holc_grade="D"/>
<path d="M 2113.9 695.7 2148.9 740.3 2218.1 807.9 2249.8 858.7 2242.8 877.9 2240.3 1055.2 2214.7 1054.3 2101.8 1050.5 1870.1 753.1 1869.3 444.5 1869.2 422.3 1880 427.1 1957 503.8 2007.9 567.4 2083.6 657.1 2113.9 695.7 Z" data-holc_grade="D"/>
<path d="M 1492.7 8.1 1493.5 105.2 1453.4 108.5 1457.3 384.8 1451.7 384.7 1448.1 388 1418.1 387.7 1321.4 386.5 1282.9 370.5 1242.8 341.8 1201.7 311.4 1156.8 285.3 1071.8 275.7 947.9 273.1 877.9 262.9 806.8 233.6 756.6 200.1 530.4 3 1492.6 2 1492.7 8.1 Z" data-holc_grade="D"/>
<path d="M 5.6 1499.1 568.7 1498.7 571.2 1498.7 550.5 1532 109.4 1827.6 4.7 1826.3 1.8 1499.1 5.6 1499.1 Z" data-holc_grade="D"/>
<path d="M 829.7 1638.4 830.1 1666.7 830.8 1730.2 826.6 1738.7 786.4 1743 782.2 1767.8 698.8 1775.1 661.7 1800.5 565.4 1878.5 560.7 1878.7 558.3 1878.7 471.9 1878.6 447.1 1873.6 497.5 1830.8 562.3 1779.7 722.6 1653.2 767 1626 829 1583 829.7 1638.4 Z" data-holc_grade="D"/>
<path d="M 2289.5 2985.3 2248.4 2864.4 2152.2 2607.9 2103.6 2473.5 2103.6 2461 2109 2398.7 2128.7 2335.8 2169.9 2288.9 2094 2195.2 2051.7 2130.2 2035.1 2095.6 2031.9 2067.9 2034 2065.7 2059.6 2094.6 2105.1 2129.7 2139.7 2152.9 2172.5 2188.6 2194.4 2217.6 2220.8 2241.1 2253.6 2262.6 2287.2 2284.1 2320.7 2304.2 2354.9 2334.5 2389.2 2359.8 2414.5 2379.9 2436.1 2388.7 2456.3 2404.1 2471.7 2412.6 2516.2 2439.5 2542.2 2453.1 2571.6 2457.6 2587.7 2458.6 2627.7 2471.5 2661.7 2469.7 2676 2470.8 2715.9 2482.8 2752.7 2493.7 2788.6 2504.6 2808.3 2513.5 2858.5 2532.1 2876.6 2534.9 2892 2540 2924.9 2544.4 2943.3 2547.8 2998.8 2544.9 2996 2812.1 2664.2 2811.4 2671.8 2998.8 2289.5 2985.3 Z" data-holc_grade="D"/>
</g>
</svg>