<?xml version="1.0"?>
<svg xmlns="http://www.w3.org/2000/svg" version="1.2" baseProfile="tiny" width="3000" height="3319" viewBox="0 0 3000 3319" stroke-linecap="round" stroke-linejoin="round">
<g id="A">
<path d="M 1653 2368.5 1549.4 2450.6 1341.5 2292 1344.9 2172.6 1357 2141.6 1383.8 2111.5 1429.5 2145.9 1505.4 2036.8 1584.8 2028.2 1649.5 2036.8 1679.7 2066 1712.5 2010.1 1871.2 1886.4 1980.7 2027.3 2003.2 2013.5 2059.3 2053 1990.3 2111.5 1653 2368.5 Z" data-holc_grade="A"/>
<path d="M 1357 2141.6 1344.9 2172.6 1341.5 2292 1224.8 2208.2 1065.9 2088.8 980.9 2018.7 1013.7 1968.8 998.2 1963.7 984.4 1985.1 924.9 1938.7 996.5 1876.9 1023.2 1895.8 1036.2 1882 1162.9 1972.3 1200.9 1941.4 1244 1975.7 1282.9 1960.3 1276.8 1947.4 1232 1916.4 1250.1 1899.3 1302.7 1939.7 1308.7 1953.4 1326 1950 1432.1 2033.3 1431.2 2082.3 1399.3 2081.5 1355.3 2060.8 1294.9 2102.1 1357 2141.6 Z M 1784.9 1767.8 1442.4 2017 1427.8 2001.5 1435.5 1994.7 1370 1947.4 1367.4 1937.1 1395 1924.2 1296.7 1851.1 1290.6 1861.5 1222.5 1812.5 1271.7 1748.9 1303.6 1721.4 1376.9 1778.1 1393.3 1760.1 1435.5 1778.1 1466.6 1791 1518.4 1798.7 1553.7 1797.9 1564.1 1811.6 1594.3 1791.9 1627 1781.6 1638.3 1798.7 1710.7 1748 1746.9 1720.5 1784.9 1767.8 Z" data-holc_grade="A"/>
<path d="M 2059.3 2053 2003.2 2013.5 2018.7 1998 1915.1 1858.8 1936.7 1841.7 2024.7 1894.9 2090.3 1945.6 2139.5 1982.5 2153.3 2001.4 2069.6 2067.6 2059.3 2053 Z M 2332.8 1690.5 2340 1748.3 2267.2 1775.8 2258.3 1747.2 2241.8 1756 2209.8 1801.7 2191.5 1791.8 2119.8 1849 2093.8 1812.2 2110.4 1792.4 2114.2 1761 2103.7 1742.3 2300.2 1601.5 2332.8 1690.5 Z M 2247.2 1445.3 2195.8 1504.7 2180.4 1493.2 2160.5 1513.5 2177.1 1527.3 2156.7 1553.7 2174.9 1579.5 2205.2 1555.9 2224 1566.3 2217.4 1574 2238.9 1599.3 2165 1651.6 2148.4 1627.4 2004.9 1731.3 1940.9 1651.6 1833.8 1731.4 1797.4 1682.4 1873.5 1627.4 1886.8 1642.8 1976.2 1578.5 1962.4 1562 2014.3 1533.9 2029.2 1515.2 2105.9 1437.7 2113 1422.3 2160.5 1398.6 2193.6 1401.4 2247.2 1445.3 Z" data-holc_grade="A"/>
<path d="M 1437.3 1398.4 1466.6 1376 1485.6 1400.1 1514 1376.9 1589.9 1482.5 1524.4 1523.8 1437.3 1398.4 Z" data-holc_grade="A"/>
<path d="M 1428.2 1161.8 1353.7 1056.5 1351.8 1058.6 1326 1023.8 1359.7 998.9 1391.4 975.4 1483.6 1096.3 1633 914.4 1522.4 774.2 1475.6 703.3 1440.2 716.5 1425.3 703.3 1413.2 682 1388.2 638.2 1444.2 592.7 1408 542.9 1455.4 500.8 1474.4 477.6 1513.2 525.7 1547.6 504.2 1607.4 584.5 1748.5 777.3 1795.7 727.4 2215.4 228.3 2228.5 242.2 2232.8 270.5 2009.7 628.7 2019.2 864.9 1900.3 873.5 1931.3 917.3 1884.8 949.1 1917.5 986.8 1870.1 1019.5 1906.4 1070.2 1816.7 1071 1764.1 984.3 1735.6 1014.4 1720.1 991.2 1691.7 1027.2 1708.9 1049.6 1689.9 1065.9 1719.2 1081.4 1794.3 1184.4 1734.8 1228.2 1751.2 1249.7 1729.6 1262.6 1752 1291 1699.4 1314.2 1720.1 1345.9 1677.9 1376 1670.1 1364.8 1611.5 1374.3 1600.3 1362.3 1617.5 1348.5 1609.8 1339.9 1580.4 1360.6 1562.3 1325.3 1538.2 1344.2 1520.1 1304.7 1489.9 1307.3 1368.3 1307.3 1350.2 1283.2 1405.4 1247.2 1394.2 1230 1416.6 1211.9 1403.7 1196.5 1434.7 1174.1 1428.2 1161.8 Z" data-holc_grade="A"/>
<path d="M 646.1 2223.1 444.3 2064.8 473.6 2051.1 546.1 2034.8 723.8 2175.8 646.1 2223.1 Z" data-holc_grade="A"/>
<path d="M 1065.9 2088.8 1224.8 2208.2 1155.8 2228.6 1122.7 2247.8 1112.2 2272 1143.7 2296.8 1127.1 2318.2 1098.9 2293.5 1034.9 2376.5 1113.8 2439.3 1087.3 2443.1 968.1 2350.1 1027.2 2268.2 1016.7 2261 1026.6 2247.3 1050.9 2246.7 1066.4 2224.2 1006.2 2175.7 1065.9 2088.8 Z M 1058.6 2255.5 1078 2272 1143.7 2176.9 1122.2 2164.2 1058.6 2255.5 Z" data-holc_grade="A"/>
</g>
<g id="B">
<path d="M 550.2 1679.6 591.2 1651.6 599.8 1661.9 593.7 1712.6 675.6 1817.5 607.5 1851.8 565.2 1791.6 571.3 1734.9 587.7 1722.9 575.6 1704 554 1736.6 527.3 1702.3 479.9 1736.6 491.8 1756.4 470.3 1775.7 493.5 1783.9 532.1 1849.4 412.2 1903.2 424.9 1925.8 342.1 1952.7 310.6 1958.7 273.1 1900.9 206.8 1944.9 192 1922.3 171.5 1968 201.8 2010.3 135.5 2061.2 64.8 1972.6 1 1924.5 48.5 1894.4 84.7 1932.3 131.3 1905.7 148.5 1877.3 146 1868.7 121.8 1856.7 89.1 1809.4 171 1768.2 234.8 1858.5 244.3 1851.6 264.1 1882.5 365.1 1839.6 332.3 1792.4 366 1768.3 397.9 1765.8 405.7 1776.1 421.2 1761.5 442.7 1792.4 464.3 1774.4 473 1722.8 410 1650.6 430.8 1636 467.9 1604.3 535.9 1689.4 550.2 1679.6 Z" data-holc_grade="B"/>
<path d="M 2718.5 1315.7 2733.9 1324.1 2669.9 1449 2682.6 1460.5 2618.1 1549.6 2534.7 1509.5 2572.2 1450.1 2523.7 1440.8 2526.4 1380.3 2606.9 1254.9 2718.5 1315.7 Z" data-holc_grade="B"/>
<path d="M 1107.9 1328.7 1147.5 1293.5 1120.8 1247.1 1163.3 1192 1178.4 1162.8 1234.3 1126.9 1256.5 1155.4 1269.9 1146.6 1292.9 1180.1 1366.7 1132.6 1353.3 1114.3 1370.2 1103 1345.9 1065.4 1351.8 1058.6 1353.7 1056.5 1428.2 1161.8 1415.2 1169.2 1411.6 1171.3 1403.1 1172.3 1355 1169.9 1296.1 1212.4 1334.5 1264.9 1275.2 1299.7 1275.2 1243.7 1269.6 1236 1133.9 1357.4 1107.9 1328.7 Z M 1327.7 1043.6 1292.9 1068.3 1286.8 1063.9 1272.5 1072.7 1246 1080.4 1255.9 1094.1 1237.7 1105.7 1230 1096.3 1216.2 1103.5 1194.7 1072.7 1260.3 1028.7 1255.4 1023.4 1292.9 993 1327.7 1043.6 Z M 1015.9 964.4 1068.3 1003.9 1090.4 1001.8 1109.2 1034.7 1118 1041.3 1125.7 1081.5 1096.2 1079.7 1126.2 1122.7 1108.6 1133.7 1071.1 1095.2 1061.7 1099.6 1013.1 1055.6 981.7 1040.2 1015.9 964.4 Z" data-holc_grade="B"/>
<path d="M 163.9 2537.8 300.4 2462.6 360 2549.5 389.2 2523.7 413.5 2555.6 426.8 2541.3 473.7 2603.5 484.2 2597.5 494.7 2610.7 454.3 2634.9 443.9 2620.6 391.9 2655.2 289.2 2604 214.6 2647.9 163.9 2537.8 Z" data-holc_grade="B"/>
<path d="M 412 2394 515.9 2356.1 570 2399.4 505 2432.8 484.1 2447.9 412 2394 Z" data-holc_grade="B"/>
<path d="M 1405.4 2873.4 1416.4 2925.7 1405.9 2942.2 1352.9 2961.4 1327.5 2947.7 1322 2933.4 1306.5 2924.6 1266.2 2973 1221.4 2942.7 1202.1 2915.7 1274.5 2854.1 1365.1 2765 1343 2746.3 1372.2 2721.5 1400.4 2743 1412.6 2760.6 1405.4 2779.9 1407.6 2793.1 1408.7 2809 1414.2 2821.7 1388.3 2862.4 1405.4 2873.4 Z M 1258.6 2739.9 1243.9 2753.6 1209.4 2726.1 1224.1 2710.7 1258.6 2739.9 Z M 1320.6 2673.6 1281 2715.5 1249.9 2688.3 1264.1 2671.1 1256 2663 1300.1 2615.1 1309.7 2623.2 1301.2 2634.1 1321.7 2648.9 1320.6 2673.6 Z" data-holc_grade="B"/>
<path d="M 1549.4 2450.6 1675.4 2542.2 1642.9 2551 1690.4 2585.6 1672.1 2613.7 1623 2581.8 1580.5 2637.9 1518.1 2591.1 1487.7 2591.7 1456.2 2643.4 1476.1 2651.7 1467.8 2667.1 1439.6 2678.1 1421.4 2679.7 1401 2674.8 1335.8 2552.1 1332.5 2521.8 1398.8 2565.8 1416.4 2541.6 1336.4 2485.5 1392.1 2410.1 1454.5 2451.4 1480.5 2418.4 1505.3 2436.5 1514.2 2425 1549.4 2450.6 Z" data-holc_grade="B"/>
</g>
<g id="D">
<path d="M 2247.2 1445.3 2193.6 1401.4 2160.5 1398.6 2113 1422.3 2126.8 1375.5 2231.7 1365.6 2280.8 1389.8 2293.5 1409.6 2264.3 1450.3 2247.2 1445.3 Z" data-holc_grade="D"/>
<path d="M 475.6 3242.9 605.4 3184.1 773.9 3116.5 795.5 3117.6 826.4 3149 890.5 3138 935.8 3123.2 943 3146.8 912.6 3157.8 922 3183.7 828.6 3200.2 832.5 3212.8 801 3218.3 763.4 3232.1 752.4 3202.3 667.8 3247.4 670.6 3258.4 581.6 3299.1 575 3281 503.1 3317.8 475.6 3242.9 Z" data-holc_grade="D"/>
<path d="M 2254.4 2399.5 2181.6 2496.7 2139.2 2466.1 2158.3 2439.3 2180.2 2453 2231.8 2383.6 2254.4 2399.5 Z M 1675.4 2542.2 1549.4 2450.6 1653 2368.5 1818.6 2487.1 1797.9 2504.3 1675.4 2542.2 Z M 2128.2 2414.3 2113 2435.4 2078.8 2419.2 2056.1 2457.6 1977.7 2405.9 2002.1 2371 1946.9 2328.8 1966.3 2299.9 2128.2 2414.3 Z M 1945.8 2284.8 1897.1 2349.6 1871.3 2329.5 1918.3 2266.8 1945.8 2284.8 Z M 2294.4 2225.1 2216.6 2325.8 2199.5 2318.1 2177.4 2349 2102.8 2300 2080.7 2268.7 2043.7 2173.5 2137 2110.2 2294.4 2225.1 Z" data-holc_grade="D"/>
<path d="M 2570.7 753.6 2564.1 759.6 2551.4 754.7 2511.1 735.5 2543.7 675 2590.6 697.5 2570.7 753.6 Z M 2928.1 557.7 2903.9 604.4 2765.9 535.3 2834.3 494 2876.2 516.5 2867.4 533.6 2928.1 557.7 Z" data-holc_grade="D"/>
<path d="M 2733.9 1324.1 2718.5 1315.7 2735.1 1284.3 2748.6 1290.4 2761.7 1263.4 2781.9 1273.5 2751.6 1333.4 2733.9 1324.1 Z M 2750.2 1039.3 2771.8 1040.9 2782.2 1026.6 2827 1047 2803.8 1092.6 2874.5 1131.6 2886.1 1115.6 2926.9 1134.3 2917 1152.4 2877.8 1158 2858.5 1150.8 2793.4 1215.8 2718.9 1178.4 2721.6 1110.2 2674.1 1106.4 2628.4 1187.8 2588.7 1246.7 2563.8 1234 2601.9 1179 2574.3 1157.1 2514.1 1132.9 2564.9 1082.3 2696.7 983.8 2725.4 994.8 2741.9 1003 2739.8 1024.5 2750.2 1039.3 Z M 2434 1056.2 2441.8 1085.4 2384 1061.4 2372.8 1086.3 2351.3 1106.1 2315.9 1105.2 2255.6 1148.2 2245.2 1137.1 2209.9 1159.4 2232.3 1102.7 2251.2 1076.9 2268.5 1097.5 2302.1 1067.5 2327.1 1084.6 2353.8 1048.5 2301.2 1027.9 2286.6 1021.1 2286.6 972.1 2302.1 943.8 2452.1 1013.3 2449.5 1028.7 2434 1056.2 Z M 2897.4 844.6 2999 892.9 2982.5 933.6 2981.4 939.6 2954.3 948.5 2938.4 955.6 2907.4 940.8 2888.1 967.8 2800.4 930.4 2825.7 892.5 2845 848 2888.6 865.5 2897.4 844.6 Z M 2564.1 759.6 2570.7 753.6 2646.4 792 2620.5 842.1 2718.1 889.8 2687.8 917.9 2674.6 921.2 2652 959.1 2669.6 967.9 2684.5 980.5 2655.9 1000.3 2641.5 1016.3 2614.5 1016.3 2583.6 1003.1 2558.8 1028.4 2320.3 913.7 2331.9 892.8 2453.9 949.3 2487.5 920.7 2426.3 903.7 2353.4 870.8 2415.2 759.7 2510.6 808 2564.1 759.6 Z" data-holc_grade="D"/>
<path d="M 675.6 1817.5 593.7 1712.6 599.8 1661.9 591.2 1651.6 615 1615.7 656.4 1587.1 777.8 1746.7 714.3 1790.6 722.6 1801.1 680.6 1821.4 675.6 1817.5 Z M 550.2 1679.6 535.9 1689.4 467.9 1604.3 507.4 1568.4 490.3 1544.7 546.6 1503.5 532.8 1455.1 510.2 1429.8 496.4 1410.6 493.1 1388.6 503.1 1369.3 522.4 1406.7 547.2 1428.7 559.3 1430.4 590.2 1438.1 610.7 1439.2 632.2 1460.7 552.7 1526.1 568.6 1584.9 511.8 1630.5 550.2 1679.6 Z M 862.3 1495.4 808.8 1536.1 702.9 1392.5 750.9 1346.3 862.3 1495.4 Z M 1120.8 1247.1 1147.5 1293.5 1107.9 1328.7 1118.2 1352.8 1108.7 1369.1 1066.5 1319.3 1081.1 1289.2 1120.8 1247.1 Z M 885.6 1059.4 838.7 1088 797.9 1028.1 838.2 1001.1 885.6 1059.4 Z M 906.6 953.3 879.1 975.3 854.8 942.3 881.3 918.7 906.6 953.3 Z" data-holc_grade="D"/>
<path d="M 1522.4 774.2 1501.5 800.1 1492.1 825.9 1491 869.3 1473.9 888 1461.8 875.4 1448.5 887.5 1468.9 911.6 1446.3 934.7 1391.4 975.4 1359.7 998.9 1326 1023.8 1279.1 961.7 1320.5 933.6 1329.3 946.3 1340.4 934.2 1259.8 828.1 1425.3 703.3 1440.2 716.5 1475.6 703.3 1522.4 774.2 Z M 1357.5 852.8 1395.5 903.9 1409.3 893 1435.3 869.9 1406 830.8 1381.8 835.2 1357.5 852.8 Z" data-holc_grade="D"/>
<path d="M 1607.4 584.5 1547.6 504.2 1536.8 489 1553.9 478.5 1567.1 497.2 1603.5 479.1 1619 500.5 1599.7 517 1635 566.5 1607.4 584.5 Z M 1794.2 487 1856.2 563.1 1921.3 489.5 1851.8 421.4 1794.2 487 1785.5 469 1802.8 449.3 1789.9 434.7 1827.8 398.6 1881.2 355.6 1933.8 402.9 1976.9 381.4 1935.5 315.3 1972.5 283.5 1922.5 204.5 1994.1 135.8 2054.4 215.7 2072.5 146.1 2101.8 99.7 2111.2 90.3 2090.5 53.4 2127.6 1 2206.9 112.6 2155.2 149.5 2215.4 228.3 1795.7 727.4 1780.4 707.7 1816.6 642.5 1738.1 533.4 1794.2 487 Z" data-holc_grade="D"/>
</g>
</svg>