<?xml version="1.0"?>
<svg xmlns="http://www.w3.org/2000/svg" version="1.2" baseProfile="tiny" width="3000" height="6561" viewBox="0 0 3000 6561" stroke-linecap="round" stroke-linejoin="round">
<g id="B">
<path d="M 1052.1 4692.5 815.2 4744.1 541.3 4648.2 171.2 4485.9 45.4 4323.6 1 4161.4 45.4 4013.9 23.2 3903.2 67.7 3741 245.3 3711.5 363.8 3608.3 366.8 3377.5 763.5 3330.3 733.9 3566.3 579.9 3666.6 597.7 3731.5 425.9 3766.9 473.3 3943.9 597.6 3932.1 680.5 3867.2 787.1 3837.7 1012.1 4120.9 1024 4238.9 953.4 4294.2 955.9 4500.7 1059.5 4515.5 1052.1 4692.5 Z" data-holc_grade="B"/>
<path d="M 2172.8 4091.4 2236.5 4397.5 1444.4 4404.9 1437 4286.9 1294.3 4303.4 1337.8 4115 1645.8 4032.4 1776 4061.9 1983.3 4097.3 2172.8 4091.4 Z" data-holc_grade="B"/>
<path d="M 2436.7 2588.5 2310.9 2477.9 1911.3 2330.4 1894.4 2197.7 1746.4 2132.8 1669.4 1991.3 1651.6 1796.6 1912.1 1849.7 2143 1938.2 2320.6 1843.8 2521.9 1902.7 2640.4 2209.4 2527.9 2351 2436.7 2588.5 Z" data-holc_grade="B"/>
</g>
<g id="C">
<path d="M 2924.9 4581 2999 4848.5 2944.7 5010.8 2831.3 5251.7 2742.5 5487.8 2717.8 5915.6 2782 6146.7 2836.4 6279.5 2846.3 6495.9 2831.5 6559.8 2560 6471.3 2328 6309.1 2199.6 6146.8 2046.6 5817.3 2095.9 5605.9 2377.3 5777.9 2530.3 5812.4 2599.4 5709.1 2643.7 5448.4 2742.4 5143.6 2742.4 5064.9 2554.8 4976.4 2485.7 4843.6 2569.6 4637.1 2605.1 4480.8 2747.3 4563.3 2924.9 4581 Z" data-holc_grade="C"/>
<path d="M 2436.8 2750.7 2340.6 2971.9 2192.6 3141.5 2155.6 3318.5 2044.5 3266.9 1741.1 3569.3 1733.7 3657.8 1866.9 3856.9 2029.8 3952.8 2131.3 3920.3 2220.2 3997 2172.8 4091.4 1983.3 4097.3 1776 4061.9 1645.8 4032.4 1337.8 4115 1294.3 4303.4 1180.4 4796.3 1052.1 4692.5 1059.5 4515.5 955.9 4500.7 953.4 4294.2 1024 4238.9 1012.1 4120.9 787.1 3837.7 680.5 3867.2 597.6 3932.1 473.3 3943.9 425.9 3766.9 597.7 3731.5 579.9 3666.6 733.9 3566.3 763.5 3330.3 366.8 3377.5 378.6 3230 408.3 3094.3 402.4 2935 331.3 2822.9 386.7 2625.3 971.4 2706.5 1223 2669.6 1422.8 2595.9 1489.4 2824.5 1548.6 2898.2 1630.1 2868.7 1748.5 2942.5 1955.7 2640.1 2066.7 2514.8 1911.3 2426.3 1778.1 2382.1 1911.3 2330.4 2310.9 2477.9 2436.7 2588.5 2436.8 2750.7 Z" data-holc_grade="C"/>
</g>
<g id="D">
<path d="M 2155.6 3318.5 2192.6 3141.5 2340.6 2971.9 2436.8 2750.7 2439.2 3182.8 2486.6 3501.4 2581.3 3749.2 2723.5 4055.9 2836.1 4309.6 2924.9 4581 2747.3 4563.3 2605.1 4480.8 2628.8 4380.4 2551.8 4238.9 2403.7 3997 2267.5 3660.7 2160.9 3412.9 2155.6 3318.5 Z" data-holc_grade="D"/>
<path d="M 772.6 26.8 894.7 41.5 1075.9 34.2 1146.2 1 1272 34.2 1305.3 170.6 1275.7 266.4 1283.1 487.5 1286.8 668.2 1260.9 778.7 1183.2 823 1149.2 774.6 1391.9 1141.3 1433.1 1434.4 1340.9 1717 1038.4 2062.8 953.7 1810.9 1005.6 1637.6 913.1 1364.8 768.8 1320.6 694.8 1280 476.5 1302.1 513.5 1239.5 543.1 1117.8 310 1044.1 306.3 999.8 376.6 859.8 384.1 701.3 484 546.5 487.7 446.9 635.7 170.5 772.6 26.8 Z" data-holc_grade="D"/>
</g>
</svg>