<?xml version="1.0"?>
<svg xmlns="http://www.w3.org/2000/svg" version="1.2" baseProfile="tiny" width="3000" height="2054" viewBox="0 0 3000 2054" stroke-linecap="round" stroke-linejoin="round">
<g id="A">
<path d="M 576.1 165.3 585.1 154.4 917.2 131.1 928.4 172.4 954.9 222 987.7 286.1 1037.4 363.7 1057.1 396.4 1076.1 413.2 1079.8 476.8 1046.9 483 1040.2 493.8 986.1 629.3 894.3 652.6 859.8 653.5 799.9 565.7 674.3 375.8 589.5 236.1 576.1 165.3 Z" data-holc_grade="A"/>
</g>
<g id="B">
<path d="M 676.2 721.7 687.9 670.7 685 648 653.2 596.8 558.2 415.3 501.6 302.4 576.1 165.3 589.5 236.1 674.3 375.8 799.9 565.7 859.8 653.5 894.3 652.6 986.1 629.3 1040.2 493.8 1046.9 483 1079.8 476.8 1076.1 413.2 1057.1 396.4 1037.4 363.7 987.7 286.1 954.9 222 928.4 172.4 917.2 131.1 1016.2 123.3 1281.1 104 1233.4 199.1 1214.9 256.3 1188.2 370.4 1164 437 1139 488.2 1113.3 532.8 1076.5 573.1 1041.8 631.1 998.8 708.5 955.4 737 914.4 755.4 861.2 768.7 790.1 777 684.3 724.3 676.2 721.7 Z" data-holc_grade="B"/>
<path d="M 1400.7 834.7 1478.4 852.8 1575.5 879.3 1648.4 909.8 1711.9 936.3 1771.7 978 1846.1 1044.3 1950.8 1152.4 1820.1 1145.9 1694.8 1139.8 1606.1 1134.3 1526 1126.1 1518.9 1216.2 1515.7 1288.3 1462 1283.7 1371.3 1226.8 1306.7 1330.2 1286.2 1359.6 1294.2 1412.7 1326 1517.2 1335.1 1562.7 1317 1702.5 1314.6 1773.2 1293.6 1861.4 1291.6 1866.4 1253.5 1963.1 1228.5 2014.1 1204.1 2052.5 1046.8 2029.5 910.1 1995.3 964.7 1916 989.1 1882.8 999.3 1793.5 1009.2 1707.1 965.1 1708 935.2 1744.6 896.6 1769.8 844.5 1783.6 808.7 1779.3 768.3 1758.4 714.6 1706.7 667.1 1659.1 579.9 1578.9 535.4 1618.2 469.1 1682.1 421.9 1659.9 379.1 1651.3 341.2 1528.9 313.7 1428.5 310.4 1398.4 292.2 1320.4 276.5 1261.7 248.1 1159.3 211.8 1052 165.1 913.6 124.6 814.3 94.7 737.4 75.3 692 1 428.2 61.5 428.5 138.9 435.4 240 448.5 453.3 459.4 542.4 577.4 596.8 642.4 623.9 678.9 655.7 715.2 630.4 782.9 609.4 835.6 626.4 904.6 644.4 970.6 663.7 1036.7 746.6 1102.2 773.7 1122.9 803 1145.3 852 1184.2 981.2 1208.2 1037.9 1216.3 1123.6 1230.3 1175.5 1147.2 1212.8 1165.1 1271.6 1062.6 1309.3 998.5 1346.2 937.5 1382.7 869.3 1400.7 834.7 Z" data-holc_grade="B"/>
</g>
<g id="C">
<path d="M 2638.3 878.4 2615.5 871.5 2532.4 863.6 2481 856.4 2451 816.5 2412.7 775.8 2364.6 737.3 2311.1 694.8 2272.1 678.2 2109.1 695.9 1925.8 719 1877.8 785.6 1784.5 868.1 1739 903.7 1723.1 911.7 1667.4 909.5 1648.4 909.8 1575.5 879.3 1478.4 852.8 1400.7 834.7 1420.7 792.3 1390.9 734.9 1341.4 642 1315 603.8 1261.1 510.7 1225.7 437.6 1214.9 407.6 1282.9 401.2 1472.1 403.7 1475.8 364.8 1548.6 363.2 1615.9 367.1 1640 268 1670.5 161.8 1689 108.3 1714.7 64.8 1943.2 44 2174 32 2379.1 14.4 2540.6 9.6 2636.3 1 2651.6 77.7 2650.9 93.4 2678.9 165.5 2722 246.6 2766.9 315 2822.2 422.2 2803.3 541.8 2723.9 710.6 2676.2 824 2659.2 853.1 2638.3 878.4 Z M 2147.1 115.3 2050 116.5 1946 121.5 1923.4 116.2 1917.8 176.2 1907.4 473.8 2074.3 468.4 2088.3 382.8 2110.5 385.3 2143.4 381.2 2182.9 384.9 2262.3 500.8 2351.1 505.3 2336.7 314.8 2182 292.3 2119.5 300.5 2123.6 228.8 2147.1 115.3 Z" data-holc_grade="C"/>
</g>
<g id="D">
<path d="M 1214.9 407.6 1225.7 437.6 1261.1 510.7 1315 603.8 1256.3 651 1219 694.1 1201 754.9 1200.5 799.9 1083 908.6 1062.8 939.8 1046.2 983.1 1054.7 1078 1045.3 1078.1 1024.1 1086.9 1002.7 1080.4 965.1 1096.1 944.3 1119.9 852 1184.2 773.7 1122.9 663.7 1036.7 609.4 835.6 655.7 715.2 676.2 721.7 684.3 724.3 790.1 777 861.2 768.7 914.4 755.4 955.4 737 998.8 708.5 1041.8 631.1 1076.5 573.1 1113.3 532.8 1139 488.2 1164 437 1188.2 370.4 1214.9 256.3 1233.4 199.1 1281.1 104 1483.1 89.6 1714.7 64.8 1689 108.3 1670.5 161.8 1651.7 227.2 1383.1 187.5 1344.1 177.6 1319.9 240.6 1279.8 401.5 1214.9 407.6 Z" data-holc_grade="D"/>
<path d="M 2638.3 878.4 2686.3 878 2838.1 889.8 2886.6 930 2923.7 968.5 2966.9 1011.9 2999 1147.9 2734.2 1283.6 2532.3 1404.2 2504.3 1407.9 2411.3 1419 2293.3 1436.6 2155.9 1448.1 2144.4 1366.6 2128.3 1311.7 2088.8 1221.1 2174 1161.7 2143.5 1048.6 2107.7 1017.4 2009.4 955.6 2058.4 890.8 2172.7 881.4 2287.8 864.6 2353.6 866.2 2481 856.4 2532.4 863.6 2615.5 871.5 2638.3 878.4 Z" data-holc_grade="D"/>
<path d="M 2352.4 1973.4 2239.7 1995.9 2275.8 1876.8 2315 1713.2 2563.1 1648.5 2638.7 1628.7 2705.1 1767.4 2741.2 1877 2651.5 1914.8 2592 1931.1 2460.6 1954 2352.4 1973.4 Z" data-holc_grade="D"/>
<path d="M 1950.8 1152.4 1968.6 1178.5 1987.1 1222.5 1991.6 1265.5 2003 1337.6 2028 1457 2044.9 1544.8 2055.1 1636.1 2059.1 1745.7 2051.1 1847.7 1971.9 1857.4 1893.8 1867.1 1781.7 1874.7 1756.2 1800.9 1699.5 1676.4 1700 1647.9 1695.6 1571.8 1675.7 1505.6 1659.5 1479.8 1553.5 1504.9 1587.1 1575.7 1576.1 1624.8 1553.5 1699.6 1537.7 1768.3 1517.4 1833 1430 1847.5 1291.6 1866.4 1293.6 1861.4 1314.6 1773.2 1317 1702.5 1335.1 1562.7 1326 1517.2 1294.2 1412.7 1286.2 1359.6 1306.7 1330.2 1371.3 1226.8 1462 1283.7 1515.7 1288.3 1518.9 1216.2 1526 1126.1 1606.1 1134.3 1694.8 1139.8 1820.1 1145.9 1950.8 1152.4 Z" data-holc_grade="D"/>
</g>
</svg>