<?xml version="1.0"?>
<svg xmlns="http://www.w3.org/2000/svg" version="1.2" baseProfile="tiny" width="3000" height="1708" viewBox="0 0 3000 1708" stroke-linecap="round" stroke-linejoin="round">
<g id="A">
<path d="M 1355.4 1272.9 1352.4 1261.4 1332.6 1236.3 1311.5 1214.5 1297.3 1206 1292.7 1197 1290.7 1181.3 1286.8 1171.3 1261.8 1121.8 1258.8 1115.9 1251 1108.6 1238.3 1082.7 1229.5 1066.9 1226.3 1060.3 1262.3 1046.6 1315.2 1021.9 1316.8 1025.1 1319.7 1030.7 1310.6 1039.6 1312 1045.4 1319.3 1081.1 1321.1 1101.6 1326.8 1143.5 1320.3 1147.4 1323.6 1155.2 1339 1158.9 1346.7 1163 1350 1168 1364.7 1182.2 1372.9 1192.3 1379.3 1205.6 1385.4 1219.7 1395.3 1243.1 1395.6 1252.4 1393.6 1259.4 1379.1 1263.6 1366.4 1266.8 1355.4 1272.9 Z" data-holc_grade="A"/>
<path d="M 2263.6 456.2 2257.3 457.2 2251.4 439.4 2250.1 414.7 2244.8 389.7 2242.6 385.6 2227.2 385 2210.6 389.7 2200.2 393.1 2196.1 383.8 2192.3 372.5 2188.9 350 2184.2 325.3 2170 276.9 2167.9 259.6 2162.3 240.6 2152 197.5 2177.5 194.4 2190.3 191.1 2197.9 188.9 2228.4 188.9 2241.1 186 2291.4 181.6 2309 209.4 2317.2 228.4 2323 227.2 2350.7 211 2372.1 204.6 2388.9 211.9 2403.2 219.2 2411.8 224.6 2424.4 230.7 2436.1 264.4 2469.6 260.5 2479.2 285.6 2485.1 319.5 2396.7 352.1 2308 411 2297.6 423.8 2284.4 442 2270.3 452 2263.6 456.2 Z" data-holc_grade="A"/>
<path d="M 1758.3 1016.6 1731.4 1043.2 1713.6 1053.5 1689.7 1056.6 1647 1055.4 1634.4 1050.4 1623.8 1049.1 1607.8 1045.7 1587 1044.1 1581.1 1016.6 1573.9 994.1 1567.3 969.1 1528.7 986.3 1522.1 958.5 1542.8 955 1596.8 942.5 1621.3 935.9 1632.9 927.8 1652.9 917.3 1684.7 952.5 1730.8 996.3 1758.3 1016.6 Z" data-holc_grade="A"/>
<path d="M 1355.4 1272.9 1363.5 1287 1364.4 1298.1 1370 1309.7 1385.1 1318.4 1394.7 1322.3 1401.6 1326.4 1419.8 1346.4 1427.9 1353.9 1439.7 1366 1451.7 1384.3 1458.8 1394.9 1457.9 1408.1 1442.2 1429 1427.7 1451.5 1428.7 1458.1 1427.9 1465.2 1417.9 1470.2 1401.6 1486.3 1396.1 1491.3 1387.1 1502 1376.5 1510.4 1380.5 1533.4 1382.4 1541.5 1384.6 1547.9 1388.7 1551.9 1394.5 1578.3 1389.8 1584.7 1389 1593 1391.7 1608 1366.6 1618 1348.5 1631.1 1313.9 1647.7 1305.1 1653.8 1279.8 1669.6 1252.2 1688.6 1239.4 1694.7 1231 1698.9 1212.9 1699.6 1199.4 1702.2 1186.3 1704.6 1173.3 1704.6 1165.2 1706.9 1156.7 1687.8 1155.3 1674.2 1158.9 1646.6 1165.5 1624.3 1177.1 1603.3 1183.1 1588.8 1190.8 1578.2 1206.8 1565.7 1221.5 1551.9 1223.7 1548.8 1212.2 1518.3 1205.4 1505.2 1191.9 1503.7 1182.6 1500.8 1174.6 1496 1163.3 1473.2 1155.3 1455.2 1145.3 1436 1131 1412.3 1123.7 1390.7 1109.9 1356.2 1096.9 1318.4 1085.9 1294.9 1084.6 1287.6 1099.2 1283.5 1092.6 1264.6 1089.8 1253.4 1114.7 1238.4 1106.6 1226.2 1128.6 1210.4 1172 1181.7 1216.5 1155.2 1254 1138.5 1249.8 1127.8 1261.8 1121.8 1286.8 1171.3 1290.7 1181.3 1292.7 1197 1297.3 1206 1311.5 1214.5 1332.6 1236.3 1352.4 1261.4 1355.4 1272.9 Z" data-holc_grade="A"/>
</g>
<g id="B">
<path d="M 2835.3 152.7 2891.2 127.4 2936.4 105.2 2954.8 96.5 2968.3 111.7 2979.8 124.9 2988.5 136.6 2989.5 152.2 2987.8 167.4 2987.8 183.3 2988.9 195.1 2992.4 205.8 2993.8 223.5 2999 258.4 2960.8 265 2918.1 273.7 2860.1 282 2846.7 221.2 2835.3 152.7 Z" data-holc_grade="B"/>
<path d="M 1371.7 897.4 1494.2 854.7 1501.1 888.6 1385.5 933.2 1371.7 897.4 Z" data-holc_grade="B"/>
<path d="M 39.2 1230.5 25.8 1239.3 28.3 1212.7 29.2 1200.6 28.8 1189 20.5 1187.9 1 1151.1 49.9 1122.4 89.1 1098.9 132.7 1074.6 152.7 1060.2 162.3 1066.4 168.5 1073.7 177.2 1079.1 189.6 1080.4 197.9 1082.6 221.4 1094.8 234.1 1105 239 1120.1 231.4 1134 220.3 1140.9 197.3 1142 179.4 1142.8 157.1 1151.7 111.3 1171.2 89.7 1184 73.2 1200.6 56.8 1215.9 39.2 1230.5 Z M 359.1 998.1 325.3 1012.2 307.6 983 266.2 1018 217.1 959 251.3 927.8 250.7 919.4 236.5 891 254.7 880.2 304.1 861 323.4 911.2 368.1 891.8 375.4 886.7 492.2 862.6 552.2 855.1 555.8 900.1 532.2 901.8 509.3 906.5 469.5 908.9 411.9 923.5 384.5 930.1 340.3 950 359.1 998.1 Z" data-holc_grade="B"/>
<path d="M 960.5 511.2 951.5 525.3 928.1 556.9 903.2 591.2 868.1 641.1 822.2 705.9 746.2 668.9 741.3 664.5 772.2 624.6 824.1 552.7 858.3 504.6 887.7 463.9 960.5 511.2 Z" data-holc_grade="B"/>
<path d="M 1571.9 751.1 1568.2 738.2 1598.8 727.5 1605.6 732.5 1612.3 750.5 1617.5 755.8 1635 754.7 1642.5 766.5 1645.1 776 1601 805.7 1588.3 767.2 1583.7 760.6 1576.9 761 1571.9 751.1 Z" data-holc_grade="B"/>
<path d="M 2170 276.9 2184.2 325.3 2188.9 350 2192.3 372.5 2196.1 383.8 2200.2 393.1 2210.6 389.7 2227.2 385 2242.6 385.6 2244.8 389.7 2250.1 414.7 2251.4 439.4 2257.3 457.2 2263.6 456.2 2282.5 487.5 2286.5 510.3 2291.6 546.9 2280.3 551.3 2274.6 541 2211.3 585.4 2164.5 572.3 2123.1 564.8 2106.5 566.1 2102.8 562.7 2088.5 564.7 2070.3 564.4 2061.3 563.9 2049.5 565.2 2039.8 567.2 2035.5 570.2 2027.3 459.3 1992.9 400.1 1949.7 327.5 1946.8 310.4 1945 292.1 1941.1 279.1 1940.6 267.4 1940.2 258 1940.6 249.4 1938.7 241.1 1967.9 238.5 1967.9 226.3 1976.4 225 2007.5 220.7 2025 216.6 2095.3 211.6 2097.5 219.7 2106.6 228.1 2111 238.8 2113.5 252.2 2121.7 284.1 2160.9 274.1 2170 276.9 Z" data-holc_grade="B"/>
<path d="M 1528.7 986.3 1506.1 990.7 1502.3 982.2 1449.6 994.7 1442.3 979.7 1391.5 1000.4 1369.8 1002.5 1366.4 989.7 1429.5 964.1 1445.5 961.3 1472.2 951.3 1502.3 944.7 1525.5 939.7 1532.1 940.3 1556.3 932.8 1608.7 920.3 1621.3 916.6 1640.7 901.2 1652.9 917.3 1632.9 927.8 1621.3 935.9 1596.8 942.5 1542.8 955 1522.1 958.5 1528.7 986.3 Z" data-holc_grade="B"/>
</g>
<g id="C">
<path d="M 1141.5 659.7 1168 649.1 1198 733 1177.8 760.3 1164.3 758.2 1137.2 783.8 1141.3 794.9 1130.2 806 1047.5 867.6 1039.2 872.1 1015.5 891.4 986 901.8 875.1 946.4 786.9 980.3 777.5 956.4 770.2 953 759.8 955.7 747.6 968.2 738.6 974.1 733.7 985.1 706.6 1005.9 681.6 1022.8 623.5 1063.6 606 1083.5 595.7 1091.9 587.3 1097.7 574.8 1099.9 565.2 1095.4 559.9 1087.5 560.8 1079.5 568.2 1070.2 547.9 1051.1 585.3 1014.2 634.9 978.1 666.9 954.2 687.6 940.4 711.2 929.4 764.6 905.7 808.6 888.9 856.4 905.9 869.5 910.2 907.3 896.9 886.2 882.5 872.7 870.3 869.6 862.1 913.1 848.8 896.7 808.1 877.6 819.8 852 827.8 842.4 830.4 849.1 816.9 868 797.4 873.1 793 908.7 759.3 920.7 748.7 980.3 725.3 973.4 697.8 1006.6 684.7 1057.7 664.6 1067.3 684.7 1069 688.5 1141.5 659.7 Z" data-holc_grade="C"/>
<path d="M 359.1 998.1 340.3 950 384.5 930.1 411.9 923.5 469.5 908.9 509.3 906.5 532.2 901.8 555.8 900.1 552.2 855.1 492.2 862.6 375.4 886.7 368.1 891.8 323.4 911.2 304.1 861 359 839.9 419.5 825.8 450.6 820.7 445.5 791.7 459.3 789.1 456 764.5 560.7 752.1 666.4 741.3 707.5 737.3 709.5 759.3 707.3 779.6 733.5 799.1 741.9 806.7 749.5 826.8 753.9 839.9 747 839.5 748.1 858.1 743.9 862.7 716.8 862.7 687.2 863.8 688.3 889.7 691.2 896.8 690.1 910.5 686.7 913.4 666.1 913.9 660.5 922.5 652.9 926.2 638 929.8 599.1 932.4 583.8 934.4 561.3 934.8 560.4 951.9 544 955 535.3 954.1 520.4 956.3 501.3 957 482.4 960.9 455.7 966.2 420.3 974.4 401.9 979.5 377.6 991.2 359.1 998.1 Z" data-holc_grade="C"/>
<path d="M 1159.1 513.7 1168 526 1186.9 549.2 1195.4 565.4 1201.6 584 1155.1 604.1 1150.1 606.4 1146.2 593.1 1138.7 593.5 1125.8 601.3 1114.4 617 1095.5 607.5 1086.6 616.3 1070.2 608.3 1063.7 616.3 1037.5 602.8 1028.2 615.2 1002.8 599 974.6 640 996.8 655.5 968.5 695.6 947.2 681.6 921.8 715.7 882.9 770.2 876.7 769.3 853.4 758.4 863.6 738.1 866.7 727.2 848.5 719.7 822.2 705.9 868.1 641.1 903.2 591.2 928.1 556.9 951.5 525.3 960.5 511.2 963.7 506.2 980.6 479.9 1024.6 512 1032.4 516.2 1045.5 524.8 1057.1 511.6 1076 515.1 1089.1 528.4 1100.4 543.9 1114.7 548.3 1139.3 528.2 1159.1 513.7 Z" data-holc_grade="C"/>
<path d="M 980.6 479.9 963.7 506.2 960.5 511.2 887.7 463.9 857.1 441.4 857.7 358 857.7 308.4 863.9 304.2 874.4 305.6 881.1 303.4 890.4 306 891.3 298.1 911.1 291 944 285 942.2 367.2 941.7 424.7 942.2 454.8 980.6 479.9 Z" data-holc_grade="C"/>
<path d="M 1328.3 424.6 1323.2 417 1307.1 383.2 1297.4 353.4 1305.9 353 1301.4 315.8 1294.8 255.2 1286.8 214.2 1254.3 217.5 1230.5 112.8 1197 119 1192.8 88 1217.4 80.3 1209.7 46.4 1209.9 30 1212.8 12.1 1241.7 20.7 1293.2 1 1294.8 4.5 1305.5 34 1311.2 49.7 1373.9 34 1383.9 34.7 1392.2 42.6 1404.8 92.9 1416.6 139.6 1430.1 195.3 1427.3 201 1397.5 208.9 1374.9 215.5 1363.9 220.8 1368.2 238.1 1366.9 258.1 1356.5 292 1342.5 313.5 1347.2 342.7 1349.7 403.6 1328.3 424.6 Z" data-holc_grade="C"/>
<path d="M 1712.5 569.6 1722.3 564.2 1771.8 549.2 1855.8 523 1838.7 474.6 1820.3 431.6 1816.3 427.8 1760.1 463.4 1750.5 467.9 1704.4 493.8 1695.6 498.7 1688.6 500.7 1682.9 500 1679.2 503.4 1680.3 513.9 1665.6 521.7 1654.9 504.2 1654.7 497 1661.3 492.3 1656.9 481.6 1660.3 477.1 1649.1 452.7 1642.6 454.4 1625.5 465.6 1608.8 473.3 1601.9 458.9 1599.5 452.4 1639.3 433.6 1632.8 417.3 1623.9 393.7 1617.3 380.4 1686.6 348.7 1727.5 329.5 1727.8 321.8 1733.8 295.6 1737.7 293 1752.7 315 1756.2 315.5 1782.2 309.8 1795 303.4 1805.2 298.2 1818.5 295.8 1832.5 292.5 1851.9 284.9 1860.8 283 1864.2 251.2 1871.5 252.5 1876.4 253.7 1881.8 261.2 1886.3 268.8 1888.3 269.4 1895.8 264.2 1938.7 241.1 1940.6 249.4 1940.2 258 1940.6 267.4 1941.1 279.1 1945 292.1 1946.8 310.4 1949.7 327.5 1992.9 400.1 2027.3 459.3 1933.5 497.9 1964 584.6 1919.1 595.8 1756.8 614.2 1739.7 609.2 1729.9 600.2 1712.5 569.6 Z" data-holc_grade="C"/>
<path d="M 1316.8 1025.1 1315.2 1021.9 1302.5 995.7 1287.6 964.2 1278.2 922.3 1306.1 866.9 1331.6 847.6 1380.8 831.2 1450.9 803.3 1422.4 737.9 1509.1 704.1 1577.8 677.5 1620.5 658.9 1660.7 654 1669.2 735.4 1679.1 756.4 1682.8 766.3 1705.9 806 1721.5 837.2 1736.5 861.9 1652.9 917.3 1640.7 901.2 1621.3 916.6 1608.7 920.3 1556.3 932.8 1532.1 940.3 1525.5 939.7 1502.3 944.7 1472.2 951.3 1445.5 961.3 1429.5 964.1 1366.4 989.7 1369.8 1002.5 1316.8 1025.1 Z M 1371.7 897.4 1385.5 933.2 1501.1 888.6 1494.2 854.7 1371.7 897.4 Z M 1511.4 766.6 1508.8 757.1 1503 752.1 1488.9 759.4 1493 776.1 1504 803.6 1516.7 829.4 1519.9 845.5 1542.8 841.3 1564.3 834.8 1558.5 821.5 1570.8 815.8 1548.6 759.4 1514.5 771.2 1511.4 766.6 Z M 1571.9 751.1 1576.9 761 1583.7 760.6 1588.3 767.2 1601 805.7 1645.1 776 1642.5 766.5 1635 754.7 1617.5 755.8 1612.3 750.5 1605.6 732.5 1598.8 727.5 1598.5 723.4 1590 705.6 1563.4 714.8 1556.6 716.6 1551.9 708.7 1542.5 713.2 1549.9 729.8 1558.7 752.2 1561.5 755.5 1571.9 751.1 Z" data-holc_grade="C"/>
<path d="M 2106.5 566.1 2107 579.3 2106.8 589.3 2107 595.3 2107.3 605.7 2107.8 614.1 2110.3 616.7 2122 615.9 2136.9 615.9 2159.5 614 2160.3 624.1 2164.2 639.6 2165.4 650.2 2168.2 663 2175.6 676.6 2183.4 698 2187.3 709.3 2176.8 708.9 2157.6 707.4 2144.3 707.4 2127.5 706.2 2110.4 705.8 2097.5 707 2085.7 705.4 2077.2 708.2 2077.2 717.5 2075.2 731.9 2076 742.8 2076 749 2080.3 755.6 2088.9 754.5 2091.6 760.3 2093.6 773.9 2095.9 787.5 2096.7 819 2059.6 821 2063.9 853.3 2056.5 857.6 2042.4 863.8 2036.7 865 2037.1 846.6 2034.3 830.6 2032.8 804 2023.8 705.9 1976.3 697.7 1955.6 686 1958.3 699.7 1937.3 707 1750.2 750.6 1682.8 766.3 1679.1 756.4 1669.2 735.4 1660.7 654 1671.3 653.9 1694.8 651.9 1699 650.9 1785.5 648.1 1796.8 644.9 1799.8 639.4 1802.9 629.6 1838 627.5 1836.7 615.4 1858.3 616 1919.3 614 2000.4 601.7 2015.3 601.5 2027 598.9 2035.2 597.7 2035.2 585.8 2035.5 570.2 2039.8 567.2 2049.5 565.2 2061.3 563.9 2070.3 564.4 2088.5 564.7 2102.8 562.7 2106.5 566.1 Z" data-holc_grade="C"/>
<path d="M 1758.3 1016.6 1730.8 996.3 1684.7 952.5 1652.9 917.3 1736.5 861.9 1747 876.7 1738 884.5 1773.5 927.3 1740.1 955.7 1786.5 1001.7 1758.3 1016.6 Z" data-holc_grade="C"/>
</g>
<g id="D">
<path d="M 681.6 1022.8 706.6 1005.9 733.7 985.1 738.6 974.1 747.6 968.2 759.8 955.7 770.2 953 777.5 956.4 786.9 980.3 875.1 946.4 986 901.8 1015.5 891.4 1039.2 872.1 1047.5 867.6 1130.2 806 1141.3 794.9 1137.2 783.8 1164.3 758.2 1177.8 760.3 1198 733 1256 708.1 1286.9 792.5 1271.3 798.4 1263.6 803.9 1271.3 818.1 1251.8 826.1 1254.9 839.9 1250.8 841 1237.2 842 1183.7 859.3 1181.3 849.6 1188.9 842.3 1184 831.3 1103.4 867.2 1108.6 880.4 1087.1 891.1 1071.1 900.8 1034.9 912.1 1014.8 924.3 997.9 930.9 933.5 960.6 830.9 1003.1 804.3 1011.4 805.7 1022.6 715.5 1074.9 681.6 1022.8 Z" data-holc_grade="D"/>
<path d="M 1864.2 251.2 1860.8 283 1851.9 284.9 1832.5 292.5 1818.5 295.8 1805.2 298.2 1795 303.4 1782.2 309.8 1756.2 315.5 1752.7 315 1737.7 293 1733.8 295.6 1727.8 321.8 1727.5 329.5 1686.6 348.7 1617.3 380.4 1623.9 393.7 1632.8 417.3 1639.3 433.6 1599.5 452.4 1582.7 461.9 1575.9 453 1563.5 458.3 1556.2 453.5 1552.7 443.2 1555.7 440.5 1593.4 421.3 1599.1 421.4 1576.8 371.7 1605 358.3 1596.5 332.1 1584.2 326.5 1564.5 328.1 1552.3 327.5 1525.4 323.1 1524.8 312.5 1530 257.3 1534.2 219.5 1564.9 230.7 1573 229.9 1603.7 236.7 1621.6 170.1 1628.2 149.1 1634.2 124.7 1688.2 146.7 1691.4 185.5 1721.6 193.7 1759.1 208.7 1755.5 228.7 1749.9 241.7 1688.8 225.9 1674.4 271.9 1670.6 279.3 1675 286.9 1687 287.3 1701.1 284.5 1704.7 285.9 1712.7 285.7 1716.6 291.7 1738.7 281.9 1742.7 275.9 1805.7 254.5 1864 238.9 1864.2 251.2 Z" data-holc_grade="D"/>
<path d="M 1712.5 569.6 1697.8 573 1693.7 571.1 1681.5 548.3 1676.2 538 1665.6 521.7 1680.3 513.9 1679.2 503.4 1682.9 500 1688.6 500.7 1695.6 498.7 1704.4 493.8 1750.5 467.9 1760.1 463.4 1816.3 427.8 1820.3 431.6 1838.7 474.6 1855.8 523 1771.8 549.2 1722.3 564.2 1712.5 569.6 Z" data-holc_grade="D"/>
<path d="M 1422.4 737.9 1395.7 748.4 1354.5 764.5 1380.8 831.2 1331.6 847.6 1352.1 818.8 1318.7 730.8 1339.6 720 1325.4 682.3 1366.1 665.5 1370.3 668.4 1377 688.1 1383 703.4 1421.9 693.2 1439.7 707.2 1483.5 689.7 1474.2 673.3 1511.5 657.8 1514.6 654.2 1486.2 582.7 1602.2 535.5 1634.2 524 1647.6 552.1 1642.9 555.7 1654.3 590 1604.2 617.5 1620.5 658.9 1577.8 677.5 1509.1 704.1 1422.4 737.9 Z M 1491.3 445.8 1499.7 462.4 1514.9 458 1528.6 479.5 1534 481.5 1619.6 499.2 1587.6 514.9 1479.9 557.7 1475 549 1563.3 514.3 1553 494.4 1525.7 506 1519 486.6 1458 507.8 1438.6 461.3 1456.6 446.5 1467.9 461.6 1471.3 461.3 1491.3 445.8 Z M 1439.9 381.6 1447.5 390.3 1455 386.9 1467.7 412.6 1380.8 444.7 1375.2 428.1 1375 420.1 1394.6 412.8 1391 402.9 1439.9 381.6 Z" data-holc_grade="D"/>
<path d="M 1511.4 766.6 1514.5 771.2 1548.6 759.4 1570.8 815.8 1558.5 821.5 1564.3 834.8 1542.8 841.3 1519.9 845.5 1516.7 829.4 1504 803.6 1493 776.1 1488.9 759.4 1503 752.1 1508.8 757.1 1511.4 766.6 Z M 1598.8 727.5 1568.2 738.2 1571.9 751.1 1561.5 755.5 1558.7 752.2 1549.9 729.8 1542.5 713.2 1551.9 708.7 1556.6 716.6 1563.4 714.8 1590 705.6 1598.5 723.4 1598.8 727.5 Z" data-holc_grade="D"/>
<path d="M 1168 649.1 1141.5 659.7 1142.4 649.1 1147.8 638.7 1159.3 632.3 1155.6 616.6 1151.1 607.7 1150.1 606.4 1155.1 604.1 1201.6 584 1195.4 565.4 1186.9 549.2 1168 526 1159.1 513.7 1150.9 502.3 1179.1 483 1156.5 449.6 1120.9 399.5 1110.9 392.2 1095.6 395.8 1080.2 398.2 1071.6 396.6 1154.7 345.7 1174.9 336.9 1189.8 333.3 1210.1 334.2 1247 342.9 1262.1 343.5 1286.8 348 1297.4 353.4 1307.1 383.2 1323.2 417 1328.3 424.6 1303 449.8 1295.6 458.7 1290.3 466.9 1274.7 473.3 1246.5 488.1 1235.4 525.4 1231.7 537.4 1224.9 553.9 1215.2 573.6 1230.2 584.8 1234.7 593.4 1245.1 620.6 1198.7 636.2 1191.7 638.8 1168 649.1 Z" data-holc_grade="D"/>
<path d="M 2036.7 865 2026.4 868.5 2030.7 920.2 2031.1 973.9 1979.2 996.1 1961.6 715.1 1958.3 699.7 1955.6 686 1976.3 697.7 2023.8 705.9 2032.8 804 2034.3 830.6 2037.1 846.6 2036.7 865 Z" data-holc_grade="D"/>
</g>
</svg>