<?xml version="1.0"?>
<svg xmlns="http://www.w3.org/2000/svg" version="1.2" baseProfile="tiny" width="3000" height="2418" viewBox="0 0 3000 2418" stroke-linecap="round" stroke-linejoin="round">
<g id="A">
<path d="M 1369.6 292 1369.1 294.1 1201 294.4 1202.7 422.3 1201 441.5 1201.5 465.9 1080.3 464.3 1080.4 299.5 1129.6 299.7 1130 248.4 1367.5 251 1377.5 209.1 1370.5 196.6 1313.8 195.3 1303.4 184.1 1299.9 175 1304.7 164.7 1314.2 156.9 1386.1 156.9 1400.4 208.7 1377.9 258.3 1369.6 292 Z M 1194 419.9 1190.9 416.9 1181.2 410.2 1174.3 406.1 1168.2 405 1148.8 404.1 1141.8 403.9 1136.3 402.2 1129.6 397 1124.6 392 1123 385.6 1123.2 378.7 1119.6 374.8 1090.8 373.5 1088.3 392.5 1142.1 423.2 1154.6 432.1 1165.1 431 1170.7 431.2 1175.1 433.2 1190.1 439.8 1194 439.3 1194 419.9 Z" data-holc_grade="A"/>
<path d="M 1079.8 1661.7 1078.6 1665.3 1079.5 1792.9 1034.2 1793.8 1034.6 1832.7 1032.9 1852.1 1036.3 1940.3 1029.8 1942.9 972.5 1890.6 952.6 1873.7 930.4 1846.5 894 1845.6 892.7 1839.1 881 1828.7 890.5 1828.3 891.4 1823.5 895.7 1820.9 921.3 1826.6 914 1814 860.2 1806.2 859.7 1794.6 863.7 1792.4 866.3 1778.6 855.4 1769.5 851.5 1765.6 852.8 1719.8 863.7 1717.6 863.7 1710.3 873.7 1685.2 888.9 1675.3 874.6 1658.4 1079.8 1661.7 Z" data-holc_grade="A"/>
<path d="M 1272.4 1665.7 1273.1 1797.5 1243.3 1798.5 1216.2 1794.3 1177.3 1797.8 1178 1662.2 1272.4 1665.7 Z" data-holc_grade="A"/>
<path d="M 854.7 1209.3 854.7 1209 841.4 1265.5 815.6 1258 810.8 1309.5 801.7 1346.2 787.4 1347 791.2 1372.1 763.9 1372.5 727 1377.7 722.3 1372.5 713.2 1368.2 690.6 1364.3 675.9 1342.6 675.9 1331.4 679.8 1322.8 686.3 1319.3 695.8 1326.7 703.7 1324.5 708.4 1318 707.6 1312.4 703.7 1306.8 703.7 1303.3 718.9 1289.1 725.4 1287.8 731 1288.2 737.1 1290.4 747 1299.9 755.3 1308.1 763.5 1316.3 784.3 1333.2 787.4 1329.3 788.7 1314.2 795.6 1303.8 792.2 1273.1 790.4 1264.9 802.2 1247.7 803 1242 797.8 1235.1 792.6 1215.7 793.1 1197.5 796.1 1189.3 797.9 1177.2 812.6 1164.3 848.2 1169.5 848.2 1174.7 869.4 1174.7 854.7 1209.3 Z" data-holc_grade="A"/>
<path d="M 1029.8 1942.9 1036.3 1940.3 1037.6 2024.2 1034.9 2063.5 1035.8 2187.6 883.9 2188 883.9 2107.6 888.7 2025.4 887.4 1937.7 1029.8 1942.9 Z" data-holc_grade="A"/>
</g>
<g id="B">
<path d="M 1080.4 299.5 1080.3 464.3 1201.5 465.9 1201 441.5 1215.1 441.8 1224.3 445.1 1246.8 443.6 1258.6 445.7 1261.9 448.4 1260.9 423.1 1252.6 424.6 1240.3 421.4 1221.4 428.1 1202.7 422.3 1201 294.4 1369.1 294.1 1365.2 308 1367.4 325.9 1387.2 430.4 1339.5 430.9 1340 510.7 1351.7 510.7 1345.6 631.3 1279 633.2 1276.5 589.6 1204.1 590.9 1203 620.8 1170 622.2 1169.7 557.5 1114.8 550.8 1086 497.5 1019.3 436 1015.8 412.7 1000.7 312 996.5 253.7 1076.2 253.4 1075.7 300.6 1080.4 299.5 Z" data-holc_grade="B"/>
<path d="M 2073.9 1848.2 2073.5 1933.3 1976.7 1934.7 1976.7 1917.8 1896.5 1915.7 1896.9 1846.5 1936.8 1843.9 1956.7 1849.5 2073.9 1848.2 Z" data-holc_grade="B"/>
<path d="M 322.1 837.2 322.2 765.5 322.2 754.3 456.4 756.5 456.4 756.1 570.2 754.1 570.8 843.6 322.1 837.2 Z" data-holc_grade="B"/>
<path d="M 746.3 1115.9 748.5 979 776.1 971.8 790.1 958.8 796.2 956.9 797 967.7 804.5 973.6 800.9 1009.2 798.1 1020.3 794.8 1030.5 795.9 1066.2 799.5 1069.8 799.7 1103.8 787.5 1105.4 763.4 1103.2 746.3 1115.9 Z" data-holc_grade="B"/>
<path d="M 841.4 1265.5 837.8 1364.4 839.7 1378.5 841.3 1392.7 843.6 1469.4 801.2 1491.8 796.4 1496.6 753.8 1532.6 747.8 1537.6 732.8 1511.5 721.7 1503.5 716.5 1493.3 731.2 1475.9 730.4 1456.2 713.7 1453.4 713.4 1431.6 711.2 1427.7 690.4 1426.3 688.2 1420.8 711 1408.9 723.2 1407.5 735.7 1399.3 727 1377.7 763.9 1372.5 791.2 1372.1 787.4 1347 801.7 1346.2 810.8 1309.5 815.6 1258 841.4 1265.5 Z" data-holc_grade="B"/>
<path d="M 847.6 1616.4 847.2 1625.6 874.6 1658.4 815.8 1678.6 817.9 1686.8 804.1 1704.1 790.6 1729.5 771.5 1760.7 737.6 1781.8 724.2 1780.1 723.7 1793.5 779.3 1795.2 814.4 1820.8 805.7 1834.2 785.8 1827.2 760.2 1826.4 753.2 1831.1 711.6 1828.5 714.3 1658.6 618.9 1656.8 617.7 1586.4 672.3 1583.8 731.3 1561.4 736.8 1553.5 746.1 1555.3 760.4 1561.4 770.4 1546.7 787.7 1542 799 1561.9 799.9 1573.1 798.1 1588.2 804.2 1621.5 803.3 1650.5 805 1655.6 812.4 1661.3 815.9 1665.2 855.4 1657 839.3 1629.7 838.5 1615 847.6 1616.4 Z M 847.8 1611.7 838.5 1608.6 822.4 1590 813.8 1577.9 810.7 1567.5 808.1 1555.8 806 1542.4 807.7 1529.4 811.6 1519.5 819 1502.7 825.1 1496.6 834.2 1491.9 843.9 1491 844.2 1510.7 845.1 1590.5 848.1 1603.1 847.8 1611.7 Z M 753.8 1532.6 796.4 1496.6 801.2 1491.8 843.6 1469.4 843.7 1478.5 833.3 1480.6 823.8 1486.7 814.2 1491 810.3 1497.5 807.7 1505.2 806.4 1508.3 799.9 1510 794.3 1514.7 783 1520.4 776.5 1526 773 1529.4 764.8 1531.6 753.8 1532.6 Z" data-holc_grade="B"/>
<path d="M 1079.8 1661.7 874.6 1658.4 847.2 1625.6 847.6 1616.4 847.8 1611.7 848.1 1603.1 845.1 1590.5 844.2 1510.7 982.4 1510.9 981.8 1449.5 1110.2 1448.6 1108.2 1475.1 1123.4 1536.7 1079.8 1661.7 Z" data-holc_grade="B"/>
<path d="M 1085 2366.7 881.9 2365.9 883.9 2188 1035.8 2187.6 1034.9 2063.5 1037.6 2024.2 1036.3 1940.3 1032.9 1852.1 1034.6 1832.7 1034.2 1793.8 1079.5 1792.9 1079.6 1808.1 1080.6 2063.3 1075.7 2142.8 1076 2158.1 1080.5 2250.4 1081.9 2321.3 1085 2366.7 Z" data-holc_grade="B"/>
<path d="M 1161.7 2367 1135.7 2211.4 1133.7 2126.6 1138.6 1935.7 1136.2 1725.8 1136.2 1630.4 1175.1 1505.2 1274 1502.5 1272.4 1665.7 1178 1662.2 1177.3 1797.8 1216.2 1794.3 1243.3 1798.5 1249.5 1824.8 1254.3 1880.1 1257.8 1941 1257.8 1997.7 1218.9 1997 1218.9 2086.2 1168.9 2086.9 1168.8 2368.5 1161.7 2367 Z" data-holc_grade="B"/>
<path d="M 1806.8 2300.4 1793.8 2318.4 1746.9 2390.6 1737 2398.9 1727.6 2319.5 1728.7 2271.2 1727.1 2155.5 1727.5 2080 1727.6 2068.9 1857.8 2066.2 1879.7 2083.4 1887 2084.9 1895.3 2089.6 1900 2109.3 1871.4 2220.3 1843.3 2275.9 1815.1 2288.8 1806.8 2300.4 Z" data-holc_grade="B"/>
</g>
<g id="C">
<path d="M 811.8 83.4 1001.7 82.1 996.5 253.7 800.6 253 811.8 83.4 Z" data-holc_grade="C"/>
<path d="M 1526.2 1666.7 1446 1668.2 1443.9 1592.9 1441.5 1377.5 1450.2 1362.3 1449.2 1306.3 1487.7 1304.2 1529.3 1343.3 1564 1389.3 1645.9 1410.3 1629.6 1438.7 1618.2 1449.8 1607.1 1470.8 1603.6 1478.8 1588.3 1471.2 1561.2 1477.4 1560.2 1494.4 1547.7 1505.4 1548.1 1513.4 1550.5 1515.1 1555.7 1512 1560.9 1503.7 1564 1503.3 1566.8 1516.5 1565.4 1531.7 1562.6 1535.8 1555.3 1539.7 1552.9 1555.6 1540.1 1571.5 1533.5 1578.7 1531.1 1601.5 1526.5 1604.7 1517.5 1607.1 1514.7 1611.9 1512.7 1627.1 1539.4 1619.2 1527.9 1643 1526.9 1652.7 1526.2 1666.7 Z" data-holc_grade="C"/>
<path d="M 1884.2 1665.8 1718.9 1664.6 1526.2 1666.7 1526.9 1652.7 1527.9 1643 1539.4 1619.2 1546 1606.7 1545.3 1597 1546.7 1588.7 1557.8 1576 1566.5 1565.9 1569.9 1557.3 1569.9 1552.8 1569.9 1547.9 1571.3 1543.5 1574.8 1541.4 1583.1 1540.7 1584.2 1525.8 1590.4 1514.4 1587.6 1495.4 1589 1490.6 1596 1489.9 1599.8 1486.4 1603.6 1478.8 1607.1 1470.8 1618.2 1449.8 1629.6 1438.7 1645.9 1410.3 1694.5 1470.5 1769.5 1519.9 1911.8 1623.9 1883 1651.3 1884.2 1665.8 Z" data-holc_grade="C"/>
<path d="M 1721.3 1870.1 1526.2 1872.8 1528.3 1803.3 1526.2 1666.7 1718.9 1664.6 1718.1 1733.7 1721.1 1789.1 1721.3 1870.1 Z" data-holc_grade="C"/>
<path d="M 2073.9 1848.2 1956.7 1849.5 1936.8 1843.9 1896.9 1846.5 1896.5 1915.7 1976.7 1917.8 1976.7 1934.7 2073.5 1933.3 2073.9 1941.1 2039.3 1993 1966.3 1994.3 1970.2 1950.2 1931.6 1952.4 1794 1952.4 1721.6 1949.9 1721.3 1870.4 1721.3 1870.1 1721.1 1789.1 1718.1 1733.7 1718.9 1664.6 1884.2 1665.8 1884.2 1659.3 1893.8 1658.5 1903.7 1660.2 1930.2 1670.1 1933.7 1697.8 1957.1 1698.7 1958 1713.8 1990.5 1711.2 2085.6 1783.7 2085.6 1786.8 2070.8 1795.4 2077.4 1804.1 2076.9 1811.4 2076.5 1822.7 2074.3 1829.6 2073.9 1848.2 Z" data-holc_grade="C"/>
<path d="M 1727.5 2080 1727.1 2155.5 1728.7 2271.2 1727.6 2319.5 1737 2398.9 1746.9 2390.6 1793.8 2318.4 1806.8 2300.4 1813 2300.7 1817.2 2303.1 1840.8 2291 1855 2302.4 1852.3 2309.7 1850.2 2349.4 1850.5 2359.8 1853.7 2373.7 1829 2415.9 1738.7 2416.9 1684.5 2411.1 1673.4 2410.7 1587.3 2416.6 1583.8 2282.7 1656.4 2285.1 1637.3 2248.1 1634.5 2242.9 1632.8 2224.6 1484.9 2220.5 1484.9 2014.3 1667.5 2014.6 1668.2 2078.6 1727.5 2080 Z" data-holc_grade="C"/>
<path d="M 2196.1 2005.5 2115.9 2007.2 2117.2 2003.3 2124.1 1996.4 2118.9 1992.5 2122.8 1981.3 2121.1 1977 2132.8 1954 2146.3 1951.4 2140.6 1912.5 2129.7 1909.1 2115.8 1892.7 2111.9 1861.5 2107.2 1858.5 2098.5 1841.7 2096.3 1832.6 2101.5 1803.2 2105.8 1795.8 2176.1 1850.3 2186.1 1850.3 2197.4 1961.8 2200.5 1969.6 2212.6 1987.3 2216.5 2004.6 2196.1 2005.5 Z" data-holc_grade="C"/>
<path d="M 2030.7 1082 2193 1081.4 2191.1 1367.9 2039.1 1368.5 2033.3 1190.1 1965.1 1194.3 1932.3 1206.8 1918.8 1173.1 1948.5 1161.1 1951.1 1146.1 1969.8 1147.6 2030.2 1115.5 2030.7 1082 Z" data-holc_grade="C"/>
<path d="M 2193 1081.4 2030.7 1082 1857.7 1082.6 1856.7 1032.1 1790.1 1032.2 1788.3 1074 1715.1 1064 1716.5 1049.1 1757.8 1019.7 1749.1 998.3 1728.6 987.3 1818 852.1 1819.4 845.9 1837.5 819.7 1880.5 766.8 1944.1 764 1968.4 754.3 1979.9 752.2 1995.8 742.2 2011.8 729.4 2026.7 729.8 2040.9 726.3 2049.2 718.7 2057.9 706.9 2060.6 696.6 2089.4 695.5 2117.5 691 2136.2 682 2155.7 681.7 2174.8 658.7 2379.2 651.3 2404 651.4 2407.6 863.9 2410.3 945.5 2418.6 1086.3 2423 1225.9 2283.4 1232.9 2283.6 1081 2193 1081.4 Z" data-holc_grade="C"/>
<path d="M 1638.3 761.3 1620.4 761 1625 577.3 1685.3 577.5 1704.7 580.2 1703.4 635.8 1735.9 626.4 1841.2 629.5 1840.4 700.8 1710.1 701.1 1708.6 762.6 1638.3 761.3 Z" data-holc_grade="C"/>
<path d="M 1038.5 592.3 1037.4 568.6 1018.9 568 1019.3 592.2 1004.8 592.1 1004.4 566.4 976.1 565.8 971.7 558.1 893 481.2 873 493 863.5 464.1 860 412.3 1015.8 412.7 1019.3 436 1086 497.5 1114.8 550.8 1169.7 557.5 1170 622.2 1203 620.8 1204 636.3 1280.8 636.3 1279 633.2 1345.6 631.3 1351.7 510.7 1340 510.7 1339.5 430.9 1387.2 430.4 1367.4 325.9 1365.2 308 1369.1 294.1 1369.6 292 1407.1 291.2 1409.8 330.4 1420.8 381.4 1390.4 388.7 1401.4 476.9 1390.6 564.4 1389.8 600.1 1379.1 600.1 1379.6 648.4 1352.7 648.4 1350 680.1 1204.2 679.9 1147.6 679.8 1144.7 652.5 1115.6 651.8 1115.1 617 1095.7 616.6 1095.7 592.8 1038.5 592.3 Z" data-holc_grade="C"/>
<path d="M 317 246.5 317.4 292.7 319.1 304.4 320.7 473.7 320.9 599.2 206.3 603.8 208.7 772.7 159.9 697 134.4 665.9 10.6 664.2 7.6 549.7 3.5 516 1 408.2 4.1 399.4 2.1 388 18.9 244 221.7 243.7 235.7 246.8 317 246.5 Z" data-holc_grade="C"/>
<path d="M 328.2 1624.7 282.9 1652.7 227.7 1639.6 156.4 1635.4 158.6 1503.7 199.2 1503.7 276.3 1512.6 333.5 1513.2 328.2 1624.7 Z M 328.5 1341 330.5 1381.5 226.9 1375.2 229.2 1225.3 329.6 1227 328.5 1341 Z M 322.2 765.5 322.1 837.2 321.3 850.6 298.5 858.8 282.6 860.5 283.7 810 282 781.7 322.2 765.5 Z M 319.3 952.1 320.2 1063.7 258.5 1058.1 6.2 1054.1 10.9 964.6 7.9 837.4 10.4 798.3 10.6 664.2 134.4 665.9 159.9 697 208.7 772.7 219.9 791.7 222.6 822.8 230.9 835.6 248.9 881.2 297.4 942.1 319.3 952.1 Z" data-holc_grade="C"/>
<path d="M 570.2 754.1 456.4 756.1 456.4 756.5 322.2 754.3 320.9 639.2 346.9 620.9 391.7 629.2 402.1 624 439.6 615.8 524.8 648.7 534.6 646.2 545.3 652.1 550.8 651.1 574.8 657.7 592.5 656.3 606 662.9 620.5 666.7 642.7 666.7 643.4 679.8 736 679.9 738.1 753.1 570.2 754.1 Z" data-holc_grade="C"/>
<path d="M 825.7 867.5 844.8 870.8 843.2 930.9 812.5 944.3 800 955.7 796.2 956.9 790.1 958.8 776.1 971.8 748.5 979 746.3 1115.9 739 1126.3 738.5 1149.1 745.8 1148.6 744.8 1160 732.8 1168.8 728.1 1180.2 718.2 1181.7 710.4 1193.6 694.8 1198.3 652.1 1186.9 580.3 1179 564.2 1169.7 540.7 1174.3 519.4 1146.8 504.8 1159.3 485.1 1159.8 484 1119.3 320.6 1118.2 320.2 1063.7 319.3 952.1 318.8 891.1 321.3 850.6 322.1 837.2 570.8 843.6 570.2 754.1 738.1 753.1 737.2 855.7 825.7 867.5 Z M 646.3 800.9 644.3 764.4 616.2 766.1 616.4 802.6 646.3 800.9 Z M 647.9 952.3 647.1 860.6 591.4 858.3 593.4 952.7 647.9 952.3 Z M 483 981.3 483.8 955.6 428.6 956.4 427.5 982.9 483 981.3 Z" data-holc_grade="C"/>
<path d="M 854.7 1209.3 942.9 1213.9 945 1225.9 1012.8 1227.6 1013.7 1234.1 1050.1 1231.6 1117.6 1234.3 1116.9 1350 1110.2 1448.6 981.8 1449.5 982.4 1510.9 844.2 1510.7 843.9 1491 843.7 1478.5 843.6 1469.4 841.3 1392.7 839.7 1378.5 837.8 1364.4 841.4 1265.5 854.7 1209 854.7 1209.3 Z M 1012.4 1402.3 1012.9 1309.8 900.4 1308.7 899.8 1404.5 1012.4 1402.3 Z" data-holc_grade="C"/>
<path d="M 1182 1329.1 1180.9 1321.1 1175.9 1324.6 1171 1332 1166.3 1343.2 1164.4 1351.2 1164.2 1358.3 1171.5 1358.5 1175.5 1354.8 1175.9 1350 1174.3 1335.1 1175.3 1332.4 1178.3 1329.1 1182 1329.1 1181.8 1330.6 1183.5 1339.3 1275.8 1340.7 1274 1502.5 1175.1 1505.2 1136.2 1630.4 1136.2 1725.8 1138.6 1935.7 1133.7 2126.6 1135.7 2211.4 1161.7 2367 1085 2366.7 1081.9 2321.3 1080.5 2250.4 1076 2158.1 1075.7 2142.8 1080.6 2063.3 1079.6 1808.1 1079.5 1792.9 1078.6 1665.3 1079.8 1661.7 1123.4 1536.7 1108.2 1475.1 1110.2 1448.6 1116.9 1350 1117.6 1234.3 1148.8 1235.6 1150.6 1169.2 1315 1167.5 1278.3 1190 1271.3 1197.2 1237.7 1253.2 1210.6 1294.3 1183.9 1315.4 1182 1329.1 Z M 1261.3 1200.5 1260 1190 1239.9 1191 1239.2 1235.9 1226.4 1249.8 1209 1249.4 1202.4 1252 1180.6 1252.7 1180.6 1261.7 1224.6 1261.8 1261.3 1200.5 Z M 1171.7 1426.4 1171.5 1365.5 1161.5 1365.5 1158.3 1386.6 1160.1 1427.4 1171.7 1426.4 Z" data-holc_grade="C"/>
<path d="M 1272.4 1665.7 1274 1502.5 1275.8 1340.7 1298.6 1339.8 1297.9 1294.9 1401.3 1294.2 1402 1307 1449.2 1306.3 1450.2 1362.3 1441.5 1377.5 1443.9 1592.9 1446 1668.2 1272.4 1665.7 Z" data-holc_grade="C"/>
</g>
<g id="D">
<path d="M 825.7 867.5 737.2 855.7 738.1 753.1 736 679.9 643.4 679.8 642.7 666.7 620.5 666.7 606 662.9 592.5 656.3 574.8 657.7 550.8 651.1 545.3 652.1 534.6 646.2 524.8 648.7 439.6 615.8 402.1 624 391.7 629.2 346.9 620.9 320.9 639.2 320.9 599.2 320.7 473.7 319.1 304.4 317.4 292.7 317 246.5 369 247.9 372.8 294.1 488 403 499.7 428 515.5 449.2 555.8 493.7 558.8 502.8 581.8 443.2 606.6 415.6 611.8 426.8 620 435 757.7 619.9 758.6 634.6 742.1 637.6 768.9 708.9 815.3 755.6 824.4 828.2 825.7 867.5 Z" data-holc_grade="D"/>
<path d="M 811.8 83.4 800.6 253 802.3 318 818.5 353.2 818.9 390.5 845.8 422.7 860 412.3 863.5 464.1 873 493 893 481.2 971.7 558.1 976.1 565.8 1004.4 566.4 1004.8 592.1 1019.3 592.2 1038.5 592.3 1095.7 592.8 1095.7 616.6 1115.1 617 1115.6 651.8 1144.7 652.5 1147.6 679.8 1204.2 679.9 1202.8 750.7 1188.2 777.3 1143.9 750.6 1140.4 749.9 1133.5 856.7 1107.5 826.6 1060.1 800 1033.4 786.9 1010.5 781.7 997.3 780.3 986.9 781.3 917.2 798.9 900.2 798.6 878.4 792.3 871.1 785.4 866.9 776.8 866.9 748.8 902.7 665.2 938.4 632.4 866 553.6 800.3 467.2 784 397.4 797.6 386 731.4 294.4 686.7 248.1 656.9 161.1 602.2 112.7 569.6 100.6 556.8 78.8 579.3 67.4 641.6 68.5 653 48.5 814.9 46.9 811.8 83.4 Z" data-holc_grade="D"/>
<path d="M 1328.2 803 1308.6 837.1 1271.8 818.4 1277.3 807.7 1237.1 785.2 1229.5 799.4 1188.2 777.3 1202.8 750.7 1204.2 679.9 1350 680.1 1349.2 697.1 1320.4 747.6 1332.8 754.2 1344.3 754.2 1345 773.9 1328.2 803 Z" data-holc_grade="D"/>
<path d="M 2374 521.6 2379.2 651.3 2174.8 658.7 2155.7 681.7 2136.2 682 2117.5 691 2089.4 695.5 2060.6 696.6 2057.9 706.9 2049.2 718.7 2040.9 726.3 2026.7 729.8 2011.8 729.4 1995.8 742.2 1979.9 752.2 1968.4 754.3 1944.1 764 1880.5 766.8 1837.5 819.7 1819.4 845.9 1818 852.1 1728.6 987.3 1712.3 998.7 1713 1009.4 1691.8 1010.1 1681.1 1027.7 1658.5 1032.2 1646 1071.3 1645.3 1088.6 1640.8 1104.8 1644.3 1141.1 1651.2 1147.7 1657.1 1140.4 1662.3 1139.4 1662.7 1105.5 1708.8 1104.8 1709.9 1131.1 1759.1 1132.1 1760.5 1150.7 1737.3 1183.2 1763 1200.2 1732.1 1244.8 1600.4 1162.9 1575.4 1135.6 1488.3 1076.1 1474.1 1069.9 1412 1019.4 1381.5 979 1365.5 975.5 1332.2 957.6 1375.3 889.5 1387.1 843.5 1386.4 835.2 1328.2 803 1345 773.9 1344.3 754.2 1332.8 754.2 1320.4 747.6 1349.2 697.1 1350 680.1 1352.7 648.4 1379.6 648.4 1379.1 600.1 1389.8 600.1 1415.3 599.3 1417.8 688.4 1453.5 689.1 1478.5 699.2 1479.6 696 1481 442.5 1517.4 431.1 1586.4 261.1 1723.7 260.4 1982.2 255.2 1979 262.4 1988.4 337 1987.8 393.3 1859.5 393.4 1859.2 636.9 1931 635.5 1982.5 604.7 2076.9 577.4 2130.9 557 2183.7 556.6 2225.3 552.8 2309.9 568.3 2360.9 528.2 2374 521.6 Z M 1620.4 761 1595.5 761.2 1595.7 773.7 1602.2 773.7 1603.1 783.5 1614.6 783.5 1615 799.6 1638.7 799.6 1638.3 761.3 1708.6 762.6 1710.1 701.1 1840.4 700.8 1841.2 629.5 1735.9 626.4 1703.4 635.8 1704.7 580.2 1685.3 577.5 1625 577.3 1620.4 761 Z" data-holc_grade="D"/>
<path d="M 2374 521.6 2360.9 528.2 2309.9 568.3 2225.3 552.8 2183.7 556.6 2130.9 557 2076.9 577.4 1982.5 604.7 1931 635.5 1859.2 636.9 1859.5 393.4 1987.8 393.3 1988.4 337 1979 262.4 1982.2 255.2 2123.1 254.7 2121.4 206.4 2122.5 45 2217.2 43.8 2219.1 1.3 2266 1 2266 21.7 2365.5 19.7 2364.7 70.8 2265.7 72.3 2263.6 253.8 2378.4 251.2 2378 380 2374 521.6 Z" data-holc_grade="D"/>
<path d="M 1911.8 1623.9 1769.5 1519.9 1694.5 1470.5 1645.9 1410.3 1564 1389.3 1529.3 1343.3 1487.7 1304.2 1449.2 1306.3 1402 1307 1401.3 1294.2 1297.9 1294.9 1298.6 1339.8 1275.8 1340.7 1183.5 1339.3 1181.8 1330.6 1182 1329.1 1183.9 1315.4 1210.6 1294.3 1237.7 1253.2 1271.3 1197.2 1278.3 1190 1315 1167.5 1150.6 1169.2 1148.8 1235.6 1117.6 1234.3 1050.1 1231.6 1013.7 1234.1 1012.8 1227.6 945 1225.9 942.9 1213.9 854.7 1209.3 869.4 1174.7 903.4 1113.5 905.1 892.1 905.1 883.3 909.8 865.7 926.9 864.2 929 843.4 983.1 841.9 1067.4 840.4 1100.2 857.5 1108 865.3 1115.3 903.6 1104.9 903.1 1082.5 958 1083 1007.8 1135.5 1007.3 1092.3 1092.3 1093.9 1140.5 1132.9 1141 1132.4 1118.8 1169.9 1021.8 1311.9 1027 1338 1052.4 1365 1088.7 1384.8 1124 1451.4 1216.3 1583.1 1337.6 1594.5 1345.4 1648.1 1377 1662.2 1386.9 1711.1 1443.4 1774.7 1476.5 1880.3 1554.8 1933.5 1599.9 1911.8 1623.9 Z M 1072.6 979.7 1071.4 957.9 1081 936.1 1057.7 927.2 1033.3 937.6 1032.1 950.8 1023.5 952.3 1023.5 980.7 1072.6 979.7 Z" data-holc_grade="D"/>
<path d="M 1012.4 1402.3 899.8 1404.5 900.4 1308.7 1012.9 1309.8 1012.4 1402.3 Z" data-holc_grade="D"/>
<path d="M 2030.7 1082 2030.2 1115.5 1969.8 1147.6 1951.1 1146.1 1948.5 1161.1 1918.8 1173.1 1932.3 1206.8 1965.1 1194.3 2033.3 1190.1 2039.1 1368.5 2191.1 1367.9 2193 1081.4 2283.6 1081 2283.4 1232.9 2423 1225.9 2421.2 1380.7 2414.4 1545.4 2417.5 1587.7 2414 1622.7 2424.9 1644.3 2509.7 1646.4 2517.1 1711.7 2517.2 1757.1 2511.6 1861.7 2600.2 1898.4 2752.5 1952.7 2845.4 1963.8 2972.2 2040.6 2995.2 2056.6 2999 2303.5 2852.2 2207.7 2857.7 2103.9 2756.1 2037 2648.4 1990.8 2664.4 1960.1 2551 1910.9 2430.8 1866.9 2346.6 1822.9 2304 1790.5 2177.2 1672.2 2130.8 1631.6 2113.3 1608.7 1959.7 1459.2 1943.6 1435.9 1923.7 1409.9 1823.4 1302.8 1732.1 1244.8 1763 1200.2 1737.3 1183.2 1760.5 1150.7 1759.1 1132.1 1709.9 1131.1 1708.8 1104.8 1715.1 1064 1788.3 1074 1790.1 1032.2 1856.7 1032.1 1857.7 1082.6 2030.7 1082 Z" data-holc_grade="D"/>
<path d="M 2085.6 1783.7 1990.5 1711.2 1991.2 1683.5 2002.9 1683.9 2055.4 1724.1 2090.5 1688.2 2137.4 1722.3 2156.5 1740.1 2127 1765.6 2130.1 1774.2 2149.2 1782.9 2188.2 1823 2261.2 1856.3 2255.6 2046.9 2248.2 2046.5 2238.3 2044.3 2192.3 2046.5 2189.7 2037.9 2196.1 2005.5 2216.5 2004.6 2212.6 1987.3 2200.5 1969.6 2197.4 1961.8 2186.1 1850.3 2176.1 1850.3 2105.8 1795.8 2117 1779.4 2114.9 1770.8 2085.6 1783.7 Z" data-holc_grade="D"/>
</g>
</svg>