<?xml version="1.0"?>
<svg xmlns="http://www.w3.org/2000/svg" version="1.2" baseProfile="tiny" width="3000" height="3045" viewBox="0 0 3000 3045" stroke-linecap="round" stroke-linejoin="round">
<g id="A">
<path d="M 2465.9 129.6 2466.8 219.8 2458 220.1 2378.9 222.9 2372.9 215.7 2365.1 204.3 2348.2 174.9 2331.9 177.3 2317.5 183.3 2312.1 197.7 2312.7 215.7 2310.3 233.7 2314.5 248.1 2330.8 276.9 2345.3 288.3 2355.5 295.4 2355.5 309.8 2346.5 324.2 2223.7 329 2251.3 227.8 2254.3 217.6 2245.9 209.2 2244.1 190.6 2249.5 170.8 2249.5 152.8 2245.8 132.4 2263.9 115.6 2379.4 86.2 2402.9 83.8 2465.5 87.3 2465.9 129.6 Z M 2320.2 133.9 2309.9 130.6 2307.2 126.7 2308.1 121.3 2300.3 118.9 2298.8 120.7 2286.7 121.3 2277.1 123.7 2270.5 125.5 2260.3 127.9 2251 134.8 2253.7 137.5 2258.2 142 2266.3 140.8 2275 140.5 2282.6 143.8 2288.9 145.9 2294.9 145 2298.5 142.3 2307.2 145.3 2315.7 143.5 2320.2 133.9 Z" data-holc_grade="A"/>
<path d="M 1710.8 2127.6 1717.2 2132.2 1747.9 2132.6 1748.8 2215.9 1743.9 2224.5 1743.9 2296.6 1535.4 2294.4 1534.5 2257.9 1534.9 2236.2 1534.9 2223.6 1532.2 2146.6 1533.6 2120.5 1660.7 2119.1 1662 2097.9 1668.3 2095.2 1680.1 2095.2 1679.2 2105.6 1686 2128.1 1710.8 2127.6 Z M 1622.7 2175 1630.8 2173.6 1630.4 2157.8 1624.5 2155.6 1615.9 2150.6 1605.5 2154.2 1596.9 2157.8 1589.7 2159.2 1588.8 2163.7 1596 2167.8 1604.1 2171.8 1616.3 2177.2 1622.7 2175 Z" data-holc_grade="A"/>
<path d="M 782.8 2701 613.6 2704.4 613.7 2629.6 705 2629.7 704.1 2671.2 757.5 2670.3 756.6 2629.7 772 2629.7 773.8 2660.4 781.9 2661.3 782.8 2701 Z" data-holc_grade="A"/>
<path d="M 1851.2 777.9 1825.9 772.5 1813.3 776.1 1802.5 783.9 1785 789.9 1762.7 785.7 1732.6 783.9 1723 803.7 1656.7 799 1639.3 790 1617.6 790.6 1608.6 796 1611.6 736.6 1609.8 694.6 1644.7 679 1651.3 646.6 1641.7 644.8 1644.7 608.8 1662.1 607 1663.3 591.4 1680.2 597.4 1695.8 599.8 1715.1 591.4 1725.3 587.2 1738.6 581.2 1751.8 573.4 1760.9 565 1792.2 569.2 1812 564.4 1810.2 602.2 1842.2 603.4 1853.6 605.2 1863.2 590.2 1915 593.7 1946.9 591.9 1977.6 592.5 1977 626.7 1958.4 628.5 1957.2 718.5 1921.7 728.1 1888 717.9 1851.2 716.7 1851.2 743.7 1844 743.1 1851.2 777.9 Z" data-holc_grade="A"/>
<path d="M 729.3 779.6 727.7 901.9 729.1 970.1 723.8 1070.6 671.8 1093.1 618.4 1121.5 567.1 1145.5 488.8 1145.4 489 977.4 445.3 975.9 447.8 729.2 471.9 742.7 475.7 719.4 474.2 665.5 476.5 601 612 604.1 613.4 674.6 608.9 721.1 609.6 829 690.8 875.6 690.1 794.6 705.9 793.9 709.7 736.9 728.6 736.1 729.3 779.6 Z" data-holc_grade="A"/>
<path d="M 1077 921.6 1074.1 1111.1 992.1 1060 1004.8 1040.1 1005.9 1010.8 1002.9 1004.4 992.4 996.9 987.1 1001.4 983 1007.4 977 1008.6 972.4 1030.7 978.8 1042.7 977.9 1051.2 969.9 1046.2 955.6 1051.5 957.2 1022.8 866.9 967.2 830 994.2 836 1006.2 723.8 1070.6 729.1 970.1 727.7 901.9 729.3 779.6 856.5 782.7 859.5 795.5 894.8 832.2 909.9 833 912.9 845 952 847.3 960.3 872 997.2 866.8 1000.2 845 1027.3 845 1031.1 922.3 1077 921.6 Z" data-holc_grade="A"/>
<path d="M 1384.1 1120.4 1332.9 1123.4 1305.8 1142.1 1308.8 1151.1 1287 1164.6 1274.9 1159.4 1240.3 1172.1 1226 1172.1 1214.7 1169.9 1224.3 1219.4 1162.6 1170 1140 1152 1074.1 1111.1 1077 921.6 1222.3 923.9 1221.5 905.1 1229.1 867.6 1227.6 830.1 1204.2 768.6 1202.7 752.1 1244.1 757.4 1275.8 763.4 1321.7 765.6 1305.1 814.4 1302.1 838.4 1326.2 939.6 1466.2 938.1 1440.6 1123.4 1412 1115.1 1384.1 1120.4 Z M 1128.9 986.8 1107.1 986.8 1108.5 1056.6 1127.4 1056.6 1131.9 1049.1 1142.4 1033.3 1147.7 1040.1 1146.2 1092.6 1154.5 1131.6 1238 1133.9 1223 1021.4 1192.1 1018.3 1167.3 1014.6 1151.5 1008.6 1140.2 996.6 1136.4 997.3 1128.9 986.8 Z" data-holc_grade="A"/>
<path d="M 1763.4 850.5 1758.9 948.6 1730.9 944.1 1664.5 942.8 1655 959 1638.3 960.1 1638.3 938.3 1663.1 899.2 1663.1 874.9 1672.6 854.6 1696.1 835.7 1725.5 830.7 1765.7 832.5 1763.4 850.5 Z" data-holc_grade="A"/>
<path d="M 1162.6 1170 1138.5 1214.3 1160.3 1236.8 1130.2 1258.6 1127.9 1406.3 1128.6 1467.9 1092.7 1467.9 1089.7 1400.6 1069.8 1402 1070.9 1467.9 959.1 1467.8 957.6 1401 925.3 1401.8 923.8 1365 913.2 1353 906.5 1345.5 908 1320 961.5 1305 959.2 1266.7 955.6 1051.5 969.9 1046.2 977.9 1051.2 992.1 1060 1074.1 1111.1 1140 1152 1162.6 1170 Z M 986.6 1209.6 1005.5 1212.2 1004 1201 1007 1192.3 975.7 1190.8 964.8 1195.3 965.6 1203.6 986.6 1209.6 Z" data-holc_grade="A"/>
<path d="M 1205.4 1569.9 1280 1500.2 1197.9 1500.9 1140.6 1547.4 822.7 1542 822.8 1475.2 877.8 1473.8 877.1 1318.5 889.2 1320.7 908 1320 906.5 1345.5 913.2 1353 923.8 1365 925.3 1401.8 957.6 1401 959.1 1467.8 1070.9 1467.9 1092.7 1467.9 1128.6 1467.9 1127.9 1406.3 1130.2 1258.6 1160.3 1236.8 1138.5 1214.3 1167.8 1216.6 1170 1466.4 1294.4 1467.7 1320.7 1467.9 1327.4 1471.7 1309.3 1500.9 1298.8 1553.5 1280.7 1573.7 1205.4 1569.9 Z" data-holc_grade="A"/>
<path d="M 2376.7 1592.5 2376.7 1601.8 2389 1626.3 2384.7 1657.3 2316 1655.2 2316.7 1605.5 2256 1601.9 2254.5 1568.8 2282.7 1568.8 2300 1560.1 2315.9 1560.1 2331.9 1560.1 2341.3 1562.9 2349.2 1568 2355 1574.5 2376.7 1592.5 Z" data-holc_grade="A"/>
</g>
<g id="B">
<path d="M 2458 220.1 2466.8 219.8 2465.9 129.6 2518.8 131.3 2520 155.9 2588.6 155.8 2592.9 212.2 2604.9 215.8 2590.5 260.2 2574.9 257.2 2515.9 306.4 2517.1 271 2504.4 254.2 2460.5 283.1 2450.9 264.5 2441.2 246.5 2456.9 233.9 2458 220.1 Z" data-holc_grade="B"/>
<path d="M 1176.6 1599.8 1151.9 1625.5 1153.4 1664.5 1158.7 1666.7 1163.9 1718.5 1192.5 1708.8 1213.6 1735 1197.1 1757.6 1201.6 1776.3 1261.8 1783.1 1256.5 1840.9 1198.5 1840.9 1173.1 1840.9 1127.9 1840.8 1039.6 1840.8 1004.1 1832.5 985.3 1783 954.4 1791.2 955.8 1696.7 957.6 1570.6 824.2 1570.5 822.7 1542 1140.6 1547.4 1197.9 1500.9 1280 1500.2 1205.4 1569.9 1176.6 1599.8 Z" data-holc_grade="B"/>
<path d="M 1127.9 1840.8 1173.1 1840.9 1175.3 1942.7 1181.3 1957 1177.5 1973.5 1190.4 1990.8 1207.7 2088.4 1216.7 2095.9 1212.2 2171 1139.8 2172.4 1134.5 2183 1100.6 2182.9 1101.4 2170.9 1084.8 2169.4 1103.6 2158.9 1142.8 2157.4 1142.1 2133.4 1103.6 2132.6 1040.3 2161.1 1038.1 2182.9 1003.4 2184.4 1008 2071.8 999.7 2070.3 1000.4 2019.2 1058.5 1944.2 1127.9 1840.8 Z" data-holc_grade="B"/>
<path d="M 2363 1542.9 2366.6 1568.7 2376.7 1574.4 2376.7 1592.5 2355 1574.5 2349.2 1568 2341.3 1562.9 2331.9 1560.1 2315.9 1560.1 2300 1560.1 2282.7 1568.8 2254.5 1568.8 2256 1601.9 2316.7 1605.5 2316 1655.2 2384.7 1657.3 2389 1626.3 2394.1 1625.6 2397 1598.2 2407.7 1598.7 2411.9 1656.9 2451.1 1659.9 2573.5 1659.3 2574.1 1584.4 2684.8 1585.7 2688.5 1649.1 2700 1661.3 2693.5 1670 2655.9 1666.4 2655.9 1676.5 2561.2 1678 2558.3 1714.1 2424.5 1715.6 2415.2 1748.8 2376.1 1750.2 2358.8 1741.6 2211.9 1743.1 2204.7 1750.4 2183 1750.9 2173.6 1751.1 2153.4 1726.8 2135.9 1707 2134.7 1679.3 2204.6 1677.5 2202.8 1654.7 2213.6 1654.7 2215.4 1621.1 2193.1 1607.9 2196.7 1555.6 2176.2 1553.2 2156.3 1542.5 2147.3 1538.9 2144.3 1528.7 2141.2 1519.1 2138.8 1510 2128.6 1496.8 2111.7 1479.4 2139.4 1456 2292.4 1457.7 2293.1 1544.2 2363 1542.9 Z M 2284.2 1633.6 2258.9 1633.6 2258.2 1650.9 2284.9 1655.2 2284.2 1633.6 Z" data-holc_grade="B"/>
<path d="M 2577.4 1830.5 2617.7 1831.3 2619.3 1850.8 2635.9 1862.8 2643.4 1880.8 2654.7 1903.3 2653.3 1963.4 2672.1 1967.1 2678.9 1993.4 2691 2013.6 2686.5 2019.7 2627 2022.7 2610.3 1964.9 2428.7 1899.8 2424.9 1839.7 2472.3 1837.5 2479.9 1828.4 2577.4 1830.5 Z" data-holc_grade="B"/>
<path d="M 1498.8 2342.8 1490.7 2077 1641.8 2079.3 1644.8 2073.3 1679.5 2074.1 1684 2018.5 1712.6 2022.2 1736.7 2015.5 1770.7 2012.5 1791 2012.5 1785 2095.8 1753.3 2095.8 1751.8 2114.6 1839.3 2116.1 1835.5 2226.4 1953.1 2227.9 1950.1 2249.7 1783.5 2249 1785 2309.8 1783.6 2379.6 1546.9 2378.2 1542.3 2375.9 1543.1 2345.1 1498.8 2342.8 Z M 1710.8 2127.6 1713.1 2096.6 1680.1 2095.2 1668.3 2095.2 1662 2097.9 1660.7 2119.1 1533.6 2120.5 1532.2 2146.6 1534.9 2223.6 1534.9 2236.2 1534.5 2257.9 1535.4 2294.4 1743.9 2296.6 1743.9 2224.5 1748.8 2215.9 1747.9 2132.6 1717.2 2132.2 1710.8 2127.6 Z" data-holc_grade="B"/>
<path d="M 1244.5 2408.3 1247.5 2375.2 1260.4 2327.2 1259.6 2258.8 1310.1 2252.8 1322.9 2306.9 1322.9 2326.4 1302.6 2325.7 1281.5 2415 1244.5 2408.3 Z" data-holc_grade="B"/>
<path d="M 563.8 2441.7 578.9 2439.4 581.1 2404.9 616.8 2403.3 617 2425.3 624.2 2425.3 626 2402.9 646 2401.9 646 2408.6 646.7 2477.8 566 2475.5 563.8 2441.7 Z" data-holc_grade="B"/>
<path d="M 805.4 2701 782.8 2701 781.9 2661.3 773.8 2660.4 772 2629.7 756.6 2629.7 705 2629.7 613.7 2629.6 613.6 2704.4 586.5 2704.4 585.6 2634.1 659.9 2545.8 708.7 2546.8 707.8 2573.8 799.2 2574.8 805.4 2701 Z" data-holc_grade="B"/>
<path d="M 475.8 2660.8 396.8 2661.3 401.7 2579.6 475.9 2580.2 475.8 2660.8 Z M 458.1 2606.1 416.4 2603.3 417.3 2640.3 458.9 2642.1 458.1 2606.1 Z" data-holc_grade="B"/>
<path d="M 1619.1 2818.7 1543.1 2822.3 1534.9 2831.3 1436.3 2833.1 1431.8 2830.4 1427.2 2825 1430 2815.1 1432.7 2804.3 1429.1 2795.2 1425.4 2783.5 1420.9 2774.5 1406.4 2774.5 1386.5 2777.2 1373 2772.7 1360.3 2764.6 1352.1 2757.4 1348.5 2743.8 1350.3 2737.5 1359.4 2726.7 1372.1 2726.7 1383.8 2719.5 1392 2709.6 1399.2 2699.7 1430.9 2700.6 1443.5 2697.9 1619.1 2699.7 1620.9 2757.4 1619.1 2818.7 Z" data-holc_grade="B"/>
<path d="M 2223.7 329 2346.5 324.2 2333.9 419.6 2341.8 438.8 2341.8 480.2 2318.3 476.6 2209.9 476 2177.4 442.5 2135.9 485.1 2107 513.3 2087.2 532.5 2069.7 523.5 2054.1 543.3 2025.7 521.1 2020.3 509.7 1998 431.8 1976.3 341.8 1970.9 310.1 1981.1 306.5 2064.8 310 2067.8 304.6 2213.4 303.3 2205.6 329.7 2223.7 329 Z" data-holc_grade="B"/>
<path d="M 1998 431.8 1973.3 434.2 1969.1 492.4 1987.2 505 2020.3 509.7 2025.7 521.1 2054.1 543.3 2038.4 563.1 2038.4 571.5 2023.4 568.5 2016.1 568.5 2004.7 567.3 1969.2 540.9 1834.9 437.2 1831.2 343.7 1947.4 342.2 1976.3 341.8 1998 431.8 Z" data-holc_grade="B"/>
<path d="M 1834.9 437.2 1969.2 540.9 2004.7 567.3 2016.1 568.5 2023.4 568.5 2038.4 571.5 2038.4 578.7 2030.6 667.5 2015.6 715.5 1981.9 776.1 1948.8 806.7 1922.3 829.5 1913.3 812.7 1914.5 794.1 1872.9 789.9 1869.9 780.9 1851.2 777.9 1844 743.1 1851.2 743.7 1851.2 716.7 1888 717.9 1921.7 728.1 1957.2 718.5 1958.4 628.5 1977 626.7 1977.6 592.5 1946.9 591.9 1915 593.7 1863.2 590.2 1853.6 605.2 1842.2 603.4 1810.2 602.2 1812 564.4 1792.2 569.2 1760.9 565 1751.8 573.4 1738.6 581.2 1725.3 587.2 1715.1 591.4 1695.8 599.8 1680.2 597.4 1663.3 591.4 1666.9 458.9 1726.5 457.7 1728.9 391.1 1761.4 389.3 1833.1 445 1834.9 437.2 Z M 1852.1 588.9 1858.2 589.2 1862.4 585.6 1867.5 585.6 1868.4 566.4 1852.4 565.5 1852.1 588.9 Z" data-holc_grade="B"/>
<path d="M 2258.9 735.7 2248.1 763.9 2187.9 776 2139.1 764 2103.5 755 2115.6 704 2124 705.2 2146.2 596.6 2223.3 598.4 2258.8 652.9 2258.9 735.7 Z M 2154.7 698.6 2170.4 729.8 2233.6 668 2233.5 651.8 2196.8 648.8 2194.4 658.4 2154.7 698.6 Z" data-holc_grade="B"/>
<path d="M 959.2 1266.7 936.6 1262.2 920.8 1254.7 912.5 1247.2 906.5 1236.7 898.2 1226.9 877.9 1221.7 735.6 1215.6 735.6 1211.8 744.7 1134.6 764.3 1084.3 762.8 1069.3 880.3 1076.9 886.3 1010.9 955.6 1051.5 959.2 1266.7 Z" data-holc_grade="B"/>
<path d="M 1224.3 1219.4 1259.1 1247.1 1320.1 1275.7 1393.7 1316.4 1477.3 1361.4 1462.3 1384.7 1467.5 1389.9 1467.5 1437.9 1427 1452 1428.5 1464.7 1421.7 1466.2 1418.8 1488.9 1350.8 1426.7 1310.3 1384.4 1294.5 1395.7 1294.4 1467.7 1170 1466.4 1167.8 1216.6 1138.5 1214.3 1162.6 1170 1224.3 1219.4 Z" data-holc_grade="B"/>
<path d="M 1407.3 1181.3 1340.3 1209.1 1393.7 1316.4 1320.1 1275.7 1259.1 1247.1 1224.3 1219.4 1214.7 1169.9 1226 1172.1 1240.3 1172.1 1274.9 1159.4 1287 1164.6 1308.8 1151.1 1305.8 1142.1 1332.9 1123.4 1384.1 1120.4 1407.3 1181.3 Z" data-holc_grade="B"/>
<path d="M 1750.8 1163.3 1759.9 1163.5 1807.8 1164.6 1809.1 1122.3 1833 1122.8 1836.2 1165.1 1964.8 1164.4 1954.9 1181.5 1935 1187.8 1883.5 1222.1 1864.5 1234.7 1849.2 1240.1 1823 1242.8 1796.8 1250 1795.9 1216.7 1722.7 1213.1 1704.6 1220.3 1697.4 1207.7 1645.8 1198.7 1648.6 1166.3 1606.1 1165.4 1600.7 1163.6 1615.1 1156.4 1611.5 1034.9 1591.4 1034.9 1590.4 976 1636.2 974.9 1638.3 960.1 1655 959 1664.5 942.8 1730.9 944.1 1758.9 948.6 1763.4 850.5 1795.9 849.2 1801.8 839.7 1820.3 833.9 1839.7 830.7 1849.7 829.4 1863.7 830.3 1869.5 837 1885.8 865.4 1903 914.4 1902.1 930.1 1895.3 938.2 1890.8 942.3 1893.1 949.9 1808.2 991.8 1809.1 951.3 1862.8 945.9 1862.3 865.8 1776.5 867.2 1772.9 1024.2 1688.5 1096.7 1687.1 1166.5 1701.1 1163.3 1729.1 1162.8 1750.8 1163.3 Z" data-holc_grade="B"/>
</g>
<g id="C">
<path d="M 2590.5 260.2 2604.9 215.8 2592.9 212.2 2588.6 155.8 2595.1 40.1 2598.7 25.7 2598.7 7.7 2613.1 4.7 2741.3 1 2739.6 74.7 2829.3 75.8 2832.8 6.3 2897.2 7.4 2897.9 92.5 2844.9 90.8 2841.3 93.8 2842.6 159.8 2839.6 197.5 2837.9 220.9 2782.5 209.6 2766.8 209.6 2719.9 210.9 2716.9 220.5 2715.2 318.2 2685.1 318.8 2621.9 317.1 2588.2 312.3 2590.5 260.2 Z" data-holc_grade="C"/>
<path d="M 2001.3 1704.7 2005.7 1701.6 2011.2 1693.8 2043.7 1675.2 2066.6 1655.4 2071.4 1653 2177.5 1652.9 2176.9 1646.3 2173.9 1637.9 2174.4 1617.5 2141.9 1614.5 2138.9 1582.7 2135.3 1578.5 2147.9 1560.5 2116.6 1558.7 2115.9 1510.1 2083.4 1506.5 2077.4 1511.9 2060.5 1538.9 2053.3 1542.5 2041.3 1519.9 2039 1499.7 2035.3 1488.9 2027.4 1474.5 2025.2 1465.2 2028.8 1445.7 2044 1421.2 2066.4 1396.7 2091.7 1371.5 2121.3 1351.3 2143.7 1344.1 2176.2 1337.6 2208.1 1331.8 2263.7 1313.8 2320.1 1297.9 2321.5 1216.5 2397.4 1217.9 2455.2 1220.7 2468.2 1222.2 2468.9 1376.6 2424.9 1377.2 2386.4 1422.8 2390.1 1458.9 2450.9 1460 2448 1564.5 2451.1 1659.9 2411.9 1656.9 2407.7 1598.7 2407.5 1468.4 2390.7 1468.5 2353.9 1466.1 2357.6 1508.7 2366.6 1541.1 2363 1542.9 2293.1 1544.2 2292.4 1457.7 2139.4 1456 2111.7 1479.4 2128.6 1496.8 2138.8 1510 2141.2 1519.1 2144.3 1528.7 2147.3 1538.9 2156.3 1542.5 2176.2 1553.2 2196.7 1555.6 2193.1 1607.9 2215.4 1621.1 2213.6 1654.7 2202.8 1654.7 2204.6 1677.5 2134.7 1679.3 2135.9 1707 2153.4 1726.8 2031.7 1725 2027.5 1730.4 2006.4 1717.2 2001.3 1704.7 Z" data-holc_grade="C"/>
<path d="M 955.8 1696.7 777.4 1698.8 824.2 1570.5 957.6 1570.6 955.8 1696.7 Z" data-holc_grade="C"/>
<path d="M 1256.5 1840.9 1261.8 1783.1 1201.6 1776.3 1197.1 1757.6 1213.6 1735 1192.5 1708.8 1211.4 1701.3 1209.9 1674.3 1184.3 1675 1186.5 1699.8 1191 1699.8 1192.5 1708.8 1163.9 1718.5 1158.7 1666.7 1153.4 1664.5 1151.9 1625.5 1176.6 1599.8 1197.1 1603.7 1197.8 1620.2 1229.5 1621.7 1237 1647.2 1241.5 1689.3 1253.6 1687 1261.1 1693.8 1255.1 1700.5 1251.3 1702.8 1250.6 1709.5 1240 1710.3 1233.2 1720 1227.2 1732.8 1227.2 1739.5 1228.7 1743.3 1263.4 1742.6 1265.6 1717 1292.7 1715.5 1291.2 1810.1 1322.9 1822.9 1332.7 1809.4 1346.2 1801.1 1363.5 1788.4 1406.5 1736.6 1411.8 1696.1 1418.6 1548.2 1393.7 1570 1383.2 1561 1373.4 1561 1367.3 1571.5 1334.2 1568.5 1333.5 1506.9 1337.2 1455.2 1332.7 1440.2 1335.7 1433.4 1347.8 1432.7 1350.8 1426.7 1418.8 1488.9 1452.5 1519.7 1487.9 1496.4 1505.2 1503.2 1513.5 1497.2 1515 1490.4 1515.7 1477.7 1512.7 1464.9 1516.5 1451.4 1493.9 1437.9 1467.5 1437.9 1467.5 1389.9 1462.3 1384.7 1477.3 1361.4 1393.7 1316.4 1340.3 1209.1 1407.3 1181.3 1413.3 1189.6 1379.4 1201.6 1423.9 1261.6 1441.9 1296.9 1451.7 1329.9 1489.4 1335.1 1520.2 1335.1 1542.8 1354.6 1568.4 1371.9 1554.1 1406.4 1600.8 1440.2 1593.3 1462.7 1584.3 1474.7 1583.5 1486.7 1592.6 1506.9 1589.5 1518.2 1581.3 1531.7 1575.2 1535.5 1545.9 1590.2 1532.3 1582.7 1520.3 1597.7 1515 1608.3 1503.7 1616.5 1489.4 1624 1483.3 1630.8 1474.3 1642 1458.5 1653.3 1443.4 1670.5 1431.4 1692.3 1503.7 1706.6 1500.7 1807.9 1470.5 1871.7 1463 1930.2 1433.6 1928.7 1425.3 1943.7 1313.8 1945.2 1313 1922.7 1311.5 1915.2 1319.8 1911.4 1328.1 1844.6 1256.5 1840.9 Z" data-holc_grade="C"/>
<path d="M 1819.3 1438.1 1827.3 1439.4 1842.3 1444.8 1876.7 1468.1 1899 1472.3 1934.5 1479.5 1950.8 1482.5 1987 1486.7 2009.9 1494.5 2036.4 1510.7 2041.3 1519.9 2053.3 1542.5 2060.5 1538.9 2059.3 1552.1 2059.3 1582.1 2062.3 1603.7 2069.6 1613.3 1985.3 1690.2 1975 1681.8 1961.6 1685.3 1945.3 1674.5 1907.4 1652.9 1875.7 1645.7 1853.1 1645.7 1833.2 1647.5 1821.5 1650.2 1815.2 1658.3 1813.4 1676.4 1811.6 1684.5 1788.1 1684.5 1748.3 1687.2 1727.5 1686.3 1715.9 1679 1720.1 1617.1 1715.8 1614.7 1709.9 1614.8 1715.8 1603.9 1711.6 1597.9 1705 1593.1 1706.8 1548 1721.2 1539.6 1686.3 1519.8 1638.7 1550.4 1662.2 1479.6 1671.2 1425 1752 1465.2 1769.4 1451.4 1785.1 1443 1811.6 1437 1819.3 1438.1 Z M 1842.4 1537.8 1814 1537.2 1810.4 1546.2 1840.6 1565.4 1842.4 1537.8 Z" data-holc_grade="C"/>
<path d="M 1715.9 1679 1727.5 1686.3 1748.3 1687.2 1788.1 1684.5 1811.6 1684.5 1813.4 1676.4 1815.2 1658.3 1821.5 1650.2 1833.2 1647.5 1853.1 1645.7 1875.7 1645.7 1907.4 1652.9 1945.3 1674.5 1961.6 1685.3 1957.3 1754.8 1956.2 1772.7 1917.4 1778.1 1915.6 1797 1849.6 1797.9 1850.5 1843 1936.4 1840.2 1938.2 1795.2 1958.1 1796.1 1953.1 2227.9 1835.5 2226.4 1839.3 2116.1 1751.8 2114.6 1753.3 2095.8 1785 2095.8 1791 2012.5 1770.7 2012.5 1736.7 2015.5 1712.6 2022.2 1684 2018.5 1679.5 2074.1 1644.8 2073.3 1641.8 2079.3 1490.7 2077 1490.7 2059 1516.9 2061.9 1515 2045.7 1494.2 2042.1 1487.2 2050.2 1477.1 2024.7 1490.6 2022.3 1508.7 2027.7 1522.3 2025.9 1605.5 2024.1 1608.2 1994.3 1657 1995.2 1659.7 1966.4 1679.6 1965.5 1683.2 1952 1714 1950.2 1833.3 1952.9 1835.1 1967.3 1888.5 1967.2 1893 1906.9 1840.6 1905.1 1838.7 1847.5 1816.1 1843.9 1612 1840.1 1617.2 1627.8 1653.3 1618.8 1656.1 1644.9 1695.8 1666.5 1715.9 1679 Z M 1708.5 1711.5 1711.2 1696.2 1693.1 1695.3 1691.3 1712.4 1708.5 1711.5 Z" data-holc_grade="C"/>
<path d="M 2675.8 1812.3 2624.5 1797.2 2586.8 1790.7 2580.3 1797.2 2577.4 1830.5 2479.9 1828.4 2472.3 1837.5 2424.9 1839.7 2428.7 1899.8 2610.3 1964.9 2627 2022.7 2642.8 2108 2654.9 2114 2675.4 2115.2 2715.2 2123.6 2747.7 2131.9 2746.2 1872.5 2787.3 1907.3 2829.5 1938.4 2858.5 1964.8 2894.7 1981.6 2918.8 1990 2953.7 1991.1 2977.9 1991.1 2989.9 1994.7 2999 2464.4 2832.5 2464.6 2813.2 2440.6 2736 2457.5 2708.2 2389.1 2688.9 2396.3 2673.3 2397.5 2656.4 2392.7 2657.6 2372.3 2657.5 2350.7 2640.6 2343.5 2627.3 2319.5 2616.5 2312.3 2586.3 2300.3 2585.1 2252.2 2529.6 2253.5 2526 2293.1 2497.1 2306.4 2467 2342.4 2417.5 2344.9 2421 2149.1 2213.6 2157.6 2154.5 2185.3 2072.5 2180.5 2054.6 2572.2 1946 2569.9 1941.2 2577.1 1908.6 2574.7 1908.6 2525.4 1940 2520.6 1945.7 2386.6 1850.7 2384 1774.7 2397.5 1772 2461.5 1660.7 2462.4 1643.5 2457 1644.4 2408.3 1497.9 2401.3 1498.8 2342.8 1543.1 2345.1 1542.3 2375.9 1546.9 2378.2 1783.6 2379.6 1785 2309.8 1783.5 2249 1950.1 2249.7 1953.1 2227.9 1958.1 1796.1 1956.2 1772.7 1957.3 1754.8 1973.1 1739.1 2009.6 1753 2067.5 1832.2 1980.7 1833.5 1982 2005.2 1983.2 2072.5 2030.4 2067 2033.4 2032.4 2110.2 2036.1 2111.7 2082.7 2153.2 2067.6 2197.6 2045.8 2196.8 1895.7 2223.2 1894.9 2227.7 1934.7 2311.3 1931.7 2309 1858.9 2255.5 1856.6 2232.2 1852.9 2217.9 1853.7 2169.6 1861.9 2156.1 1860.5 2144.8 1853.7 2128.2 1853.7 2135.7 1811.7 2098 1795.2 2104 1774.2 2125.9 1777.2 2125.1 1789.2 2177.1 1795.9 2183 1750.9 2204.7 1750.4 2211.9 1743.1 2358.8 1741.6 2376.1 1750.2 2415.2 1748.8 2424.5 1715.6 2558.3 1714.1 2561.2 1678 2655.9 1676.5 2655.9 1666.4 2693.5 1670 2700 1661.3 2688.5 1649.1 2684.8 1585.7 2574.1 1584.4 2580.7 1463 2734 1465.7 2738 1756 2677.2 1758.9 2675.8 1812.3 Z" data-holc_grade="C"/>
<path d="M 2675.8 1812.3 2746.2 1872.5 2747.7 2131.9 2715.2 2123.6 2675.4 2115.2 2654.9 2114 2642.8 2108 2627 2022.7 2686.5 2019.7 2691 2013.6 2678.9 1993.4 2672.1 1967.1 2653.3 1963.4 2654.7 1903.3 2643.4 1880.8 2635.9 1862.8 2619.3 1850.8 2617.7 1831.3 2577.4 1830.5 2580.3 1797.2 2586.8 1790.7 2624.5 1797.2 2675.8 1812.3 Z" data-holc_grade="C"/>
<path d="M 2532.8 2560.9 2529.9 2656.3 2407.7 2653.4 2417.4 2545.9 2533.5 2539.1 2532.8 2560.9 Z" data-holc_grade="C"/>
<path d="M 2746.2 2557.6 2881.1 2552.2 2894.7 2542.4 2896.4 2686.7 2743.3 2686.1 2746.2 2557.6 Z" data-holc_grade="C"/>
<path d="M 1127.9 1840.8 1058.5 1944.2 1000.4 2019.2 999.7 2070.3 1008 2071.8 1003.4 2184.4 987.6 2190.4 980 2201.7 977.7 2214.4 971.7 2225.7 956.6 2230.9 873.7 2268.4 859.4 2266.9 888.1 2213.6 874.5 2212.9 848.1 2215.9 824.7 2213.6 805.9 2212.1 791.6 2217.3 709.4 2211.3 709.5 2180.5 869.2 2183.6 878.3 2179.1 879.8 2167.8 880.6 2153.6 871.5 2114.5 873.1 2010.9 922.1 2014 916.1 2002.7 916.8 1982.4 919.8 1960.7 919.9 1938.1 909.3 1899.8 889.8 1870.6 892 1859.3 907.9 1847.3 914.6 1827 914.7 1806.8 954.4 1791.2 985.3 1783 1004.1 1832.5 1039.6 1840.8 1127.9 1840.8 Z" data-holc_grade="C"/>
<path d="M 2213.4 303.3 2067.8 304.6 2064.8 310 1981.1 306.5 1970.9 310.1 1976.3 341.8 1947.4 342.2 1947.4 209.3 2029.8 142.8 2054.5 140.9 2053.9 205.1 2198.9 201.4 2200.8 277.6 2219.4 277.5 2213.4 303.3 Z" data-holc_grade="C"/>
<path d="M 1258.9 2016.9 1254.4 2036.4 1252 2053.5 1264.6 2091.4 1243.8 2113 1247.4 2202.2 1313.4 2209.4 1469.9 2207.6 1467.2 2118.4 1465.4 2052.6 1470.8 2009.4 1477.1 2024.7 1487.2 2050.2 1490.7 2059 1490.7 2077 1498.8 2342.8 1497.9 2401.3 1345.1 2404 1304.3 2477 1242.3 2479.6 1191.7 2476 1158.4 2488.9 1113.5 2521.4 1049.8 2522.1 1008.6 2518.4 987.6 2513.4 967.3 2501.8 952.8 2486 936.9 2469.4 919.6 2447.7 871.8 2410.9 866.1 2378.5 864.6 2346.8 873.7 2268.4 956.6 2230.9 971.7 2225.7 977.7 2214.4 980 2201.7 987.6 2190.4 1003.4 2184.4 1038.1 2182.9 1053.9 2186.5 1059.9 2171.5 1084.8 2169.4 1101.4 2170.9 1100.6 2182.9 1134.5 2183 1139.8 2172.4 1212.2 2171 1216.7 2095.9 1207.7 2088.4 1190.4 1990.8 1177.5 1973.5 1181.3 1957 1175.3 1942.7 1173.1 1840.9 1198.5 1840.9 1204.7 1928.3 1219.7 1928.3 1243.8 1985.4 1245.3 2004.9 1258.9 2016.9 Z M 1247.5 2375.2 1175.2 2367.7 1075.7 2372.9 1075.7 2417.2 1112.6 2418.7 1121.6 2465.3 1224.1 2467.6 1244.5 2408.3 1281.5 2415 1302.6 2325.7 1322.9 2326.4 1322.9 2306.9 1310.1 2252.8 1259.6 2258.8 1260.4 2327.2 1247.5 2375.2 Z M 1034.2 2384.2 1033.5 2337.6 986.7 2340.6 986.7 2385.6 1034.2 2384.2 Z" data-holc_grade="C"/>
<path d="M 709.4 2211.3 791.6 2217.3 805.9 2212.1 824.7 2213.6 848.1 2215.9 874.5 2212.9 888.1 2213.6 859.4 2266.9 873.7 2268.4 864.6 2346.8 866.1 2378.5 871.8 2410.9 868.9 2456.8 840.9 2435.1 838 2700.1 805.4 2701 799.2 2574.8 707.8 2573.8 708.7 2546.8 659.9 2545.8 585.6 2634.1 586.5 2704.4 561.1 2705.3 558.3 2797.2 554.7 2824.3 510.3 2825.1 556.6 2651.2 610.1 2573.7 573 2571.9 590.2 2553 609.2 2536.8 579.4 2512.4 552.2 2527.7 491.6 2532.2 500.7 2473.6 499.8 2439.4 563.8 2441.7 566 2475.5 646.7 2477.8 646 2408.6 646 2401.9 626 2402.9 616.8 2403.3 581.1 2404.9 580.4 2370.1 579.6 2285.3 671.8 2281.8 677.2 2294.4 701.7 2293.6 709.4 2211.3 Z M 821.6 2389.3 851.8 2401.3 850.3 2366 822.4 2367.5 821.6 2389.3 Z" data-holc_grade="C"/>
<path d="M 503.2 2680 466.6 2820 441.3 2819.4 445.6 2740 465.5 2741.3 473.4 2704 388.3 2703.9 388.3 2681.7 358.8 2681.1 360 2633 376.9 2631.8 376.4 2562.7 399.9 2559.7 398.7 2544.7 430.1 2543.5 431 2524 469.9 2525 470.8 2544.8 487.1 2546.6 487.9 2579 517.8 2583.6 487.9 2676.4 503.2 2680 Z M 475.8 2660.8 475.9 2580.2 401.7 2579.6 396.8 2661.3 475.8 2660.8 Z" data-holc_grade="C"/>
<path d="M 297.8 2453.3 303 2510.4 314.4 2510.4 313.4 2683.9 293 2710.9 260.6 2713.9 256 2771.7 172.3 2772.4 161.8 2752.1 139.9 2763.3 151.2 2773.1 159.5 2777.6 237.1 2804.7 325.3 2837.1 327.5 2874.7 258.9 2873.1 257.3 2941.5 167.6 2940.6 166.9 2915.8 158.6 2909.1 156.3 2896.3 157.9 2874.5 1 2871.3 1.1 2822.5 61.4 2782.7 59.4 2601.7 82.8 2605.5 175.5 2608.6 214.8 2584.6 214 2565.1 231.4 2558.4 232.9 2537.3 254.8 2536.6 257.1 2448 297.8 2453.3 Z M 163.2 2686.5 161.9 2725.6 167.3 2725.6 171 2685.9 163.2 2686.5 Z" data-holc_grade="C"/>
<path d="M 1436.3 2833.1 1534.9 2831.3 1543.1 2822.3 1619.1 2818.7 1671.9 2818.9 1670.7 2909.7 1751 2913.2 1755.2 2984.2 1754 3042.5 1671.9 3044.3 1618.8 3043.1 1618.2 3032.9 1621.3 3025.7 1617 3020.9 1611 3017.9 1605 3022.7 1603.8 3029.9 1604.4 3035.9 1600.7 3035.9 1595.3 3033.5 1588.7 3032.9 1585.1 3034.7 1581.4 3040.1 1579.6 3041.3 1530.1 3041.9 1527.1 3038.9 1528.9 3034.7 1535.6 3029.9 1543.4 3038.3 1553.1 3034.1 1559.1 3029.3 1556.7 3022.7 1550.7 3017.3 1550.1 3011.2 1554.9 3004.6 1553.7 2999.8 1549.5 2995.6 1548.2 2987.2 1548.8 2978.8 1545.2 2974.6 1544.6 2965.6 1546.4 2959 1538 2959 1532 2957.8 1523.5 2947.5 1515.7 2942.1 1510.8 2936.7 1509.6 2930.1 1506 2922.3 1506 2915.1 1508.4 2909.7 1508.4 2902.5 1504.8 2901.3 1496.4 2901.3 1491.5 2901.3 1480.7 2882 1471.6 2877.8 1460.8 2874.8 1460.2 2872.4 1462.6 2865.8 1468.6 2867 1478.3 2864.6 1486.1 2862.2 1490.3 2858 1486.1 2854.4 1473.4 2853.2 1460.8 2856.2 1449.9 2857.4 1443.9 2853.8 1436.3 2833.1 Z" data-holc_grade="C"/>
<path d="M 2295.5 640.3 2300.4 736.9 2273.5 736.1 2258.9 735.7 2258.8 652.9 2223.3 598.4 2146.2 596.6 2124 705.2 2115.6 704 2103.5 755 2065.6 747.8 2051.2 789.2 2046.4 817.4 2026.5 903.1 1970.5 900.9 1964.5 864.3 1941.3 881.7 1938.6 869.1 1939.8 858.9 1931.4 848.7 1921.1 845.1 1922.3 829.5 1948.8 806.7 1981.9 776.1 2015.6 715.5 2030.6 667.5 2038.4 578.7 2038.4 571.5 2038.4 563.1 2054.1 543.3 2069.7 523.5 2087.2 532.5 2107 513.3 2135.9 485.1 2177.4 442.5 2209.9 476 2318.3 476.6 2341.8 480.2 2342.4 526.3 2272.6 525.8 2276.3 639.1 2295.5 640.3 Z M 2089.6 655.4 2076.4 651.9 2085.4 582.3 2050.5 584.1 2045.1 647.7 2030.7 705.9 2070.4 720.2 2089.6 655.4 Z" data-holc_grade="C"/>
<path d="M 2273.5 736.1 2272.8 799.9 2237.3 826.3 2241.5 829.9 2275.9 884.5 2246.9 885.1 2245.8 911.5 2162 908.6 2099.3 906 2106.6 884 2041 881 2035.5 903.5 2026.5 903.1 2046.4 817.4 2051.2 789.2 2065.6 747.8 2103.5 755 2139.1 764 2187.9 776 2248.1 763.9 2258.9 735.7 2273.5 736.1 Z" data-holc_grade="C"/>
<path d="M 1808.2 991.8 1809.1 1122.3 1807.8 1164.6 1759.9 1163.5 1759.9 1105.5 1752 1105.5 1750.8 1163.3 1729.1 1162.8 1701.1 1163.3 1687.1 1166.5 1688.5 1096.7 1772.9 1024.2 1776.5 867.2 1862.3 865.8 1862.8 945.9 1809.1 951.3 1808.2 991.8 Z" data-holc_grade="C"/>
<path d="M 1922.3 829.5 1921.1 845.1 1906.1 831.9 1909.7 851.7 1912.7 859.5 1914.5 882.3 1920.5 893.7 1927.8 891.9 1941.3 881.7 1964.5 864.3 1970.5 900.9 2026.5 903.1 2035.5 903.5 2099.3 906 2162 908.6 2162.1 1078.4 2164 1083.2 2180.2 1080.7 2186.3 1120.3 2211 1118.5 2215.9 1170.2 2114.6 1166.6 2115.1 1034 2033.2 1026.8 2033.3 1164.2 1976.6 1167.1 1964.8 1164.4 1836.2 1165.1 1833 1122.8 1809.1 1122.3 1808.2 991.8 1893.1 949.9 1890.8 942.3 1895.3 938.2 1902.1 930.1 1903 914.4 1885.8 865.4 1869.5 837 1876.5 833.7 1872.9 827.1 1886.2 813.3 1913.3 812.7 1922.3 829.5 Z" data-holc_grade="C"/>
<path d="M 2393.8 1174.8 2395.5 1069.9 2481.8 1073.9 2433.8 1010.9 2455.5 996 2505.6 996 2508.3 888.9 2597.7 890.6 2593.8 1025.6 2595.1 1027.9 2672.4 1030 2669.3 1107.9 2636.4 1167.3 2583.1 1211.5 2551.9 1218.3 2537.5 1209.7 2527.1 1206.2 2503.6 1206.2 2499.5 1176 2393.8 1174.8 Z" data-holc_grade="C"/>
<path d="M 1964.8 1164.4 1976.6 1167.1 2031.7 1249 2033.5 1257.1 2032.6 1274.2 2016.4 1343.5 2002.9 1368.8 1990.2 1398.5 1961.3 1410.2 1922.4 1402.1 1883.6 1383.2 1849.8 1377.5 1855.2 1355 1870.6 1355 1861.6 1337.9 1855.2 1320.8 1731.4 1318.1 1730.5 1292.9 1721.5 1284.8 1725.1 1249.7 1692.5 1240.7 1694.3 1232.6 1630.2 1226.3 1612.1 1227.2 1487.4 1274.9 1480.5 1259.9 1491.3 1242.8 1480.5 1223.9 1479.6 1206.8 1471.5 1193.3 1564.5 1192.4 1533.8 1122.2 1532 1086.2 1543.7 1082.6 1545.5 1034.9 1591.4 1034.9 1611.5 1034.9 1615.1 1156.4 1600.7 1163.6 1606.1 1165.4 1648.6 1166.3 1645.8 1198.7 1697.4 1207.7 1704.6 1220.3 1722.7 1213.1 1795.9 1216.7 1796.8 1250 1823 1242.8 1849.2 1240.1 1864.5 1234.7 1883.5 1222.1 1935 1187.8 1954.9 1181.5 1964.8 1164.4 Z" data-holc_grade="C"/>
<path d="M 2215.9 1170.2 2264.6 1171.9 2268.8 1189.9 2265.9 1232.5 2264.1 1267.9 2211.1 1295.6 2182.2 1307 2135.8 1318.4 2049.6 1283.7 2032.6 1274.2 2033.5 1257.1 2074.3 1256.6 2079.1 1168.4 2114.6 1166.6 2215.9 1170.2 Z" data-holc_grade="C"/>
</g>
<g id="D">
<path d="M 1532 1086.2 1533.8 1122.2 1564.5 1192.4 1471.5 1193.3 1462.8 1189.9 1466 1182.3 1467.4 1148.5 1465.1 1102.2 1474.6 1050.9 1482.3 1006.8 1522.5 1007.7 1532 1086.2 Z" data-holc_grade="D"/>
<path d="M 2736 2457.5 2729.5 2466 2728.8 2502.1 2746.9 2505.8 2746.2 2557.6 2713 2559.9 2654.9 2557.7 2623.3 2555.5 2586.3 2554.8 2532.8 2560.9 2533.5 2539.1 2537.2 2449 2546.3 2449.7 2556.9 2488 2581 2494.7 2628.5 2504.4 2649.6 2509.7 2665.4 2511.2 2676.7 2500.6 2684.2 2475.8 2706.8 2456.3 2736 2457.5 Z M 2586.3 2300.3 2575.5 2306.3 2552.5 2294.3 2526 2293.1 2529.6 2253.5 2585.1 2252.2 2586.3 2300.3 Z" data-holc_grade="D"/>
<path d="M 500.7 2473.6 491.6 2532.2 552.2 2527.7 579.4 2512.4 609.2 2536.8 590.2 2553 573 2571.9 541.3 2607.9 503.2 2680 487.9 2676.4 517.8 2583.6 487.9 2579 487.1 2546.6 470.8 2544.8 469.9 2525 431 2524 432 2468.1 500.7 2473.6 Z" data-holc_grade="D"/>
<path d="M 510.3 2825.1 554.7 2824.3 714 2822.6 748.3 2882.1 742.9 2886.6 648.7 2889.3 647.8 2952.4 503 2950.5 510.3 2825.1 Z" data-holc_grade="D"/>
<path d="M 2300.4 736.9 2295.5 640.3 2354.6 644.5 2354.5 628.3 2465.9 631.2 2466 736.8 2300.4 736.9 Z" data-holc_grade="D"/>
<path d="M 1849.8 1377.5 1817.3 1399.1 1819.3 1438.1 1811.6 1437 1785.1 1443 1769.4 1451.4 1752 1465.2 1671.2 1425 1671.8 1401.6 1611.5 1385.1 1600.8 1440.2 1554.1 1406.4 1568.4 1371.9 1542.8 1354.6 1520.2 1335.1 1489.4 1335.1 1451.7 1329.9 1441.9 1296.9 1487.4 1274.9 1612.1 1227.2 1630.2 1226.3 1694.3 1232.6 1692.5 1240.7 1725.1 1249.7 1721.5 1284.8 1730.5 1292.9 1731.4 1318.1 1855.2 1320.8 1861.6 1337.9 1870.6 1355 1855.2 1355 1849.8 1377.5 Z M 1782.9 1324.8 1765.8 1340.1 1762.6 1346.9 1724.7 1346.9 1724.7 1350.9 1717.4 1352.3 1716.1 1355.9 1734.6 1359 1754 1366.2 1782 1373.4 1779.8 1349.6 1785.7 1347.3 1786.6 1325.3 1782.9 1324.8 Z" data-holc_grade="D"/>
<path d="M 720.9 1704 716.3 1834.6 569.4 1832.3 572.5 1699.4 720.9 1704 Z" data-holc_grade="D"/>
<path d="M 1292.7 1715.5 1289.7 1690.9 1274.7 1677.4 1253.6 1687 1241.5 1689.3 1237 1647.2 1229.5 1621.7 1197.8 1620.2 1197.1 1603.7 1330.4 1604.6 1334.2 1568.5 1367.3 1571.5 1373.4 1561 1383.2 1561 1393.7 1570 1418.6 1548.2 1411.8 1696.1 1406.5 1736.6 1363.5 1788.4 1346.2 1801.1 1332.7 1809.4 1322.9 1822.9 1291.2 1810.1 1292.7 1715.5 Z" data-holc_grade="D"/>
<path d="M 1612 1840.1 1609.9 1923.9 1608.2 1994.3 1605.5 2024.1 1522.3 2025.9 1508.7 2027.7 1490.6 2022.3 1477.1 2024.7 1470.8 2009.4 1468 1964.6 1431.9 1967.3 1402.9 1986.2 1383.9 1968.2 1264.6 2091.4 1252 2053.5 1254.4 2036.4 1258.9 2016.9 1275.4 2042.1 1284.5 2013.2 1290.8 1998.8 1285.4 1966.4 1309.8 1966.4 1313.8 1945.2 1425.3 1943.7 1433.6 1928.7 1463 1930.2 1491.5 1929.5 1552.1 1719.6 1600.9 1617 1617.2 1627.8 1612 1840.1 Z" data-holc_grade="D"/>
<path d="M 1709.9 1614.8 1715.8 1614.7 1720.1 1617.1 1715.9 1679 1695.8 1666.5 1656.1 1644.9 1653.3 1618.8 1617.2 1627.8 1600.9 1617 1612.8 1597.3 1638.7 1550.4 1686.3 1519.8 1721.2 1539.6 1706.8 1548 1705 1593.1 1672.4 1596.7 1673.7 1615.3 1709.9 1614.8 Z" data-holc_grade="D"/>
<path d="M 2001.3 1704.7 1996.1 1708.2 1993.7 1718.4 1973.1 1739.1 1957.3 1754.8 1961.6 1685.3 1975 1681.8 1985.3 1690.2 2069.6 1613.3 2062.3 1603.7 2059.3 1582.1 2059.3 1552.1 2060.5 1538.9 2077.4 1511.9 2083.4 1506.5 2115.9 1510.1 2116.6 1558.7 2147.9 1560.5 2135.3 1578.5 2138.9 1582.7 2141.9 1614.5 2174.4 1617.5 2173.9 1637.9 2176.9 1646.3 2177.5 1652.9 2071.4 1653 2066.6 1655.4 2043.7 1675.2 2011.2 1693.8 2005.7 1701.6 2001.3 1704.7 Z" data-holc_grade="D"/>
<path d="M 1609.9 1923.9 1612 1840.1 1816.1 1843.9 1838.7 1847.5 1840.6 1905.1 1893 1906.9 1888.5 1967.2 1835.1 1967.3 1833.3 1952.9 1714 1950.2 1713.1 1912.4 1632.6 1908.8 1630.8 1919.6 1609.9 1923.9 Z" data-holc_grade="D"/>
<path d="M 2033.4 2032.4 2030.4 2067 1983.2 2072.5 1982 2005.2 1980.7 1833.5 2067.5 1832.2 2110.6 1939.9 2069.6 1943.5 2070.8 1918.3 2006.9 1918.3 2008.1 1941.1 2032.2 1944.7 2033.4 2032.4 Z" data-holc_grade="D"/>
</g>
</svg>