<?xml version="1.0"?>
<svg xmlns="http://www.w3.org/2000/svg" version="1.2" baseProfile="tiny" width="3000" height="2475" viewBox="0 0 3000 2475" stroke-linecap="round" stroke-linejoin="round">
<g id="A">
<path d="M 1281.1 1617.3 1314.2 1636.8 1167.1 1773.5 1025.1 1680.8 1023.9 1685.5 549.2 1382.4 660.5 1394.8 728.3 1300.3 941.5 1444.8 987.4 1370.9 1015.8 1336.7 1098.2 1237.7 1127.7 1261.7 1087 1313.4 1107.6 1328.6 1095.2 1365 1036.3 1473 1281.1 1617.3 Z" data-holc_grade="A"/>
<path d="M 868.1 1040.4 1010.5 1148.4 937.4 1294.5 1015.8 1336.7 987.4 1370.9 941.5 1444.8 728.3 1300.3 660.5 1394.8 549.2 1382.4 501.6 1255.6 699.5 1189.4 754.9 1116.7 757.8 1120.2 838 1017.5 868.1 1040.4 Z" data-holc_grade="A"/>
<path d="M 1265.4 773.9 1258.6 780.6 1247.7 771.2 1169.7 868.1 1205.1 897 1109.8 1021.1 1016.4 1141.4 1010.5 1148.4 868.1 1040.4 933.9 952.3 875.2 926.9 1006.7 767.8 1018.7 759.4 1140.3 617.2 1247.7 743.3 1256.1 746.1 1273.1 765.1 1265.4 773.9 Z" data-holc_grade="A"/>
<path d="M 767.2 2098.6 761.5 2048.6 716.1 2052.6 553.5 2134.8 516.4 2080.7 511.9 2037.9 511.9 1994.6 514.8 1961.8 520.9 1932.6 636.4 1926.1 751 1918.2 891 1907.5 971.1 1899 961.2 1929.6 954.1 1964.3 951.3 2004.7 953.2 2043.7 956.4 2084.1 884.3 2093 810.8 2098.1 767.2 2098.6 Z" data-holc_grade="A"/>
<path d="M 567.6 2277.5 597.6 2275.7 598.7 2309.8 594 2346.2 584.6 2381.4 573.9 2410.2 562.1 2432.5 308.7 2429.4 1 2437.4 14.6 2405.7 94.2 2373.4 126 2357.6 164.3 2341.2 361.9 2244.4 472 2283.3 567.6 2277.5 Z" data-holc_grade="A"/>
<path d="M 1444.5 150 1846.4 1 2007.8 622.6 1765.2 508.1 1444.5 150 Z" data-holc_grade="A"/>
</g>
<g id="B">
<path d="M 1196 1261.9 1197.8 1263.5 1219 1291.1 1304.4 1358.6 1322 1336.3 1380.3 1383.3 1355 1416.1 1314.4 1414.9 1307.3 1560.5 1281.1 1617.3 1036.3 1473 1095.2 1365 1107.6 1328.6 1087 1313.4 1127.7 1261.7 1098.2 1237.7 1015.8 1336.7 937.4 1294.5 1010.5 1148.4 1016.4 1141.4 1106.5 1211.8 1121.2 1221.2 1141.2 1226.5 1158.3 1234.7 1183 1249.4 1196 1261.9 Z" data-holc_grade="B"/>
<path d="M 1240.4 1104.2 1289.7 1142.6 1213.1 1240.6 1196 1261.9 1183 1249.4 1158.3 1234.7 1141.2 1226.5 1121.2 1221.2 1106.5 1211.8 1016.4 1141.4 1109.8 1021.1 1161.8 1043 1240.4 1104.2 Z" data-holc_grade="B"/>
<path d="M 1470 1050.1 1446.2 1082.8 1413.4 1061.4 1326.4 992.2 1240.4 1104.2 1161.8 1043 1109.8 1021.1 1205.1 897 1169.7 868.1 1247.7 771.2 1258.6 780.6 1265.4 773.9 1476.4 1041.2 1470 1050.1 Z" data-holc_grade="B"/>
<path d="M 1367.3 1656.7 1395 1701.2 1309 1743.5 1355.7 1768.3 1360.5 1771.4 1483.3 1789.3 1487.1 1802.8 1464.6 1923.5 1382.4 1902 1385 1893.4 1269.6 1857.3 1241 1880.2 1173.1 1827.6 1208.2 1800.6 1167.1 1773.5 1314.2 1636.8 1317.5 1633.8 1367.3 1656.7 Z" data-holc_grade="B"/>
<path d="M 767.2 2098.6 773.8 2157.8 780.9 2208.9 784.4 2230.6 785.6 2262.3 597.6 2275.7 567.6 2277.5 569.3 2264.5 566.9 2242.2 553.5 2134.8 716.1 2052.6 761.5 2048.6 767.2 2098.6 Z" data-holc_grade="B"/>
<path d="M 567.6 2277.5 472 2283.3 361.9 2244.4 164.3 2341.2 126 2357.6 94.2 2373.4 14.6 2405.7 28.8 2368.1 35.9 2327 38.8 2311.1 37.1 2287.1 32.4 2237.7 30.1 2198.4 26 2158.5 19.6 2106.2 155.1 2096.9 273.6 2091.1 419.7 2084.8 516.4 2080.7 553.5 2134.8 566.9 2242.2 569.3 2264.5 567.6 2277.5 Z" data-holc_grade="B"/>
<path d="M 2950.9 1457.5 2808.9 1406 2805.4 1399.5 2604.4 1325.7 2675 1143.7 2999 1217.4 2950.9 1457.5 Z" data-holc_grade="B"/>
</g>
<g id="C">
<path d="M 1464.6 1279.8 1509.3 1314.8 1474.3 1361.4 1425.7 1324.6 1380.3 1383.3 1322 1336.3 1340.3 1311.7 1264.9 1253 1251.9 1270.6 1213.1 1240.6 1289.7 1142.6 1464.6 1279.8 Z" data-holc_grade="C"/>
<path d="M 1464.6 1279.8 1289.7 1142.6 1240.4 1104.2 1326.4 992.2 1413.4 1061.4 1446.2 1082.8 1470 1050.1 1543.1 1150.4 1517.5 1182.7 1591.4 1213.5 1606.8 1226.2 1566.9 1276.9 1505.8 1227.7 1464.6 1279.8 Z" data-holc_grade="C"/>
<path d="M 1658.4 1432.9 1630.9 1515.6 1598.7 1610.4 1631.1 1621.3 1627.5 1633.5 1711.6 1664.7 1663.7 1799.9 1490.9 1788.9 1487.1 1802.8 1483.3 1789.3 1457.7 1698.7 1591.9 1673.2 1505.2 1581.5 1522.2 1480.5 1536.5 1412.5 1474.3 1361.4 1509.3 1314.8 1658.4 1432.9 Z" data-holc_grade="C"/>
<path d="M 1483.3 1789.3 1360.5 1771.4 1355.7 1768.3 1309 1743.5 1395 1701.2 1367.3 1656.7 1505.2 1581.5 1591.9 1673.2 1457.7 1698.7 1483.3 1789.3 Z" data-holc_grade="C"/>
<path d="M 2107.2 901.2 2198.7 711.5 2298.9 751.3 2204.4 945.5 2107.2 901.2 Z" data-holc_grade="C"/>
<path d="M 1140.3 617.2 1018.7 759.4 1006.7 767.8 875.2 926.9 933.9 952.3 868.1 1040.4 838 1017.5 757.8 1120.2 754.9 1116.7 699.5 1189.4 501.6 1255.6 513.3 1137.3 272.4 987.8 393.4 776 490.2 746.5 603.2 793 708.6 660.7 675.4 636.1 839.4 432 1048.5 477.1 1148.1 592.6 1132.5 606.7 1140.3 617.2 Z" data-holc_grade="C"/>
<path d="M 864.2 278.2 972.4 166 1092.1 255.4 1184.8 474.2 1016 456.2 864.2 278.2 Z" data-holc_grade="C"/>
<path d="M 2532.6 1211.6 2581.7 1249.5 2410.6 1413.4 2354.8 1390.5 2329.2 1464.5 2307.3 1454.4 2376.2 1280.4 2532.6 1211.6 Z" data-holc_grade="C"/>
<path d="M 2285.2 2259.1 2315.2 2212.1 2341.1 2173.9 2383.5 2119.3 2425.9 2065.2 2512 2138 2567.5 2185.5 2575.7 2190.8 2621.7 2207.8 2611.1 2240.1 2663.1 2439.7 2565.3 2453.9 2560 2457.4 2537 2455.1 2439.7 2473.9 2379 2392.9 2285.2 2259.1 Z" data-holc_grade="C"/>
</g>
<g id="D">
<path d="M 1881.1 1003.4 1705.4 1245.2 1290 754.7 1295.6 749.8 1304.3 749.8 1370.3 694.2 1550.4 819.7 1649.5 874.1 1909.1 967.2 1881.1 1003.4 Z" data-holc_grade="D"/>
<path d="M 1881.1 1003.4 2118.6 1141.3 2031 1273.8 2021.6 1365.8 1988.6 1364.9 1974.5 1404.3 1946.2 1373.3 1928.3 1397.7 1759.1 1270.5 1742.1 1292.1 1705.4 1245.2 1881.1 1003.4 Z" data-holc_grade="D"/>
<path d="M 2204.4 945.5 2170.2 1016.1 2113.2 989.8 2107.2 901.2 2204.4 945.5 Z" data-holc_grade="D"/>
<path d="M 1841.3 1809.7 1926.1 1608.3 2006.8 1638.7 1912.2 1841.6 1857.9 1822.1 1841.3 1809.7 Z" data-holc_grade="D"/>
<path d="M 1663.7 1799.9 1711.6 1664.7 1627.5 1633.5 1631.1 1621.3 1632.1 1617.8 1753.5 1660.9 1762.5 1638.4 1730.8 1556.9 1692.8 1564 1630.9 1515.6 1658.4 1432.9 1828.2 1564.5 1904.1 1604.8 1822.1 1801.2 1723.2 1911.6 1702 1963.2 1618.5 1927.3 1663.7 1799.9 Z" data-holc_grade="D"/>
<path d="M 2532.6 1211.6 2376.2 1280.4 2307.3 1454.4 2329.2 1464.5 2402.8 1498.3 2298.7 1844.4 2236.8 1988.1 2152.5 1979.4 2234.3 1615.6 2198.4 1600.1 2310.5 1287.3 2402.1 1221.7 2515.7 1198.2 2532.6 1211.6 Z" data-holc_grade="D"/>
</g>
</svg>