<?xml version="1.0"?>
<svg xmlns="http://www.w3.org/2000/svg" version="1.2" baseProfile="tiny" width="3000" height="2105" viewBox="0 0 3000 2105" stroke-linecap="round" stroke-linejoin="round">
<g id="A">
<path d="M 1182.2 1700.4 873.1 1700.1 868.1 1273.1 987 1273.7 1287 1276.9 1284.4 1110.4 1451.6 1135.7 1436.2 1275.8 1496.6 1276.4 1469 1434.9 1473.8 1646.2 1474.9 1693.6 1258.9 1698.8 1182.2 1700.4 Z" data-holc_grade="A"/>
<path d="M 1281.8 922.4 1282.2 949.7 1214.6 947.3 1119.9 950.8 1118.8 1187.3 983.9 1182.6 866.4 1181.3 863.9 1080.9 764.7 1078.4 761.4 1044.7 763.1 1015.9 763.1 939.4 811.9 932 866.4 924.6 984.6 925.4 1036.2 927 1118.8 925.6 1144.2 921.9 1275.4 918.7 1281.8 922.4 Z" data-holc_grade="A"/>
<path d="M 664.7 968 448.1 1056.1 444.9 854.5 661.5 852.9 664.7 968 Z" data-holc_grade="A"/>
</g>
<g id="B">
<path d="M 1687.7 1045.4 1648.3 1278.3 1618.6 1460.9 1617.6 1478.2 1616 1508.5 1436.7 2099.3 1301.2 2104 1287 1817.9 1182.2 1818.4 1182.2 1700.4 1258.9 1698.8 1474.9 1693.6 1473.8 1646.2 1469 1434.9 1496.6 1276.4 1436.2 1275.8 1451.6 1135.7 1284.4 1110.4 1287 1276.9 987 1273.7 983.9 1182.6 1118.8 1187.3 1119.9 950.8 1214.6 947.3 1282.2 949.7 1281.8 922.4 1454.1 950.6 1518.8 961.2 1697.1 990.4 1687.7 1045.4 Z" data-holc_grade="B"/>
<path d="M 947.5 853.7 972.3 854.1 1016.2 854.9 1085.3 852.9 1117.4 859.3 1118.8 925.6 1036.2 927 984.6 925.4 866.4 924.6 811.9 932 763.1 939.4 752.2 937.1 664.7 968 661.5 852.9 444.9 854.5 448.1 1056.1 224 1146.5 220 994.3 4.2 992.5 1 886.3 110 886.4 145.7 886.4 214.8 887.3 345.7 889 440 799.3 439.1 678.9 486.7 681.5 519.5 677.9 769.1 681.2 862.5 682.3 861.5 852.1 947.5 853.7 Z" data-holc_grade="B"/>
</g>
<g id="C">
<path d="M 947.5 853.7 861.5 852.1 862.5 682.3 769.1 681.2 519.5 677.9 486.7 681.5 439.1 678.9 441.7 527 862.4 524.7 867.3 623.4 879.7 633.3 896.3 631.6 944.2 642.4 982.2 652.2 950 827.5 947.5 853.7 Z" data-holc_grade="C"/>
<path d="M 1454.1 950.6 1281.8 922.4 1275.4 918.7 1144.2 921.9 1118.8 925.6 1117.4 859.3 1085.3 852.9 1016.2 854.9 972.3 854.1 982.3 840.7 1143.7 773.4 1194.5 783.9 1243.4 788.9 1475.7 830 1454.1 950.6 Z" data-holc_grade="C"/>
<path d="M 224 1160.5 444.8 1070.1 443.1 1149.1 352.2 1152.3 357.9 1205.8 223.2 1204.1 224 1160.5 Z" data-holc_grade="C"/>
<path d="M 2031.8 424.5 2136.1 426.5 2397.1 431.6 2185.6 685.9 2137.7 686.8 2135.2 529.6 1810.4 476.2 1785.1 632.1 1633.5 605.4 1624.7 656.6 1623.6 663 1537.1 648 1535.9 639.3 1572.2 425.3 1515.1 422.7 1511.4 350 1510.8 215.7 1693 213.8 1692.2 239.3 1710.4 248.3 1716.1 265.6 1756.6 267.2 1760 419.4 1856.6 421.1 2031.8 424.5 Z" data-holc_grade="C"/>
<path d="M 2565.9 434.2 2563 209.5 2561.1 165.6 2987 170.9 2996.6 541.6 2567 643 2565.9 434.2 Z" data-holc_grade="C"/>
<path d="M 1877.2 802.8 2045.9 834.2 2007.3 1073.2 1808 1037.3 1815.2 1004.9 1827.5 1001.8 1844.5 915.2 1855 863.5 1837.5 852.7 1846.5 798.8 1877.2 802.8 Z" data-holc_grade="C"/>
</g>
<g id="D">
<path d="M 1719.6 2081.9 1723.6 1677.8 2144.3 1657.7 2141.2 2067 1719.6 2081.9 Z" data-holc_grade="D"/>
<path d="M 214.8 887.3 145.7 886.4 110 886.4 112 675.9 216.9 680 214.8 887.3 Z" data-holc_grade="D"/>
<path d="M 1510.8 215.7 1511.4 350 1515.1 422.7 1572.2 425.3 1535.9 639.3 1537.1 648 1541.1 677.9 1565.6 688.1 1518.8 961.2 1454.1 950.6 1475.7 830 1243.4 788.9 1194.5 783.9 1143.7 773.4 982.3 840.7 972.3 854.1 947.5 853.7 950 827.5 982.2 652.2 944.2 642.4 896.3 631.6 879.7 633.3 867.3 623.4 862.4 524.7 441.7 527 439.8 434.5 649.7 432 779.9 427.8 779.9 338.8 865 337.3 864.6 50.3 1070.8 48.3 1288.2 47.3 1287.7 10.9 1414.1 10.4 1413 216.3 1510.8 215.7 Z" data-holc_grade="D"/>
<path d="M 2031.8 424.5 1856.6 421.1 1760 419.4 1756.6 267.2 1716.1 265.6 1710.4 248.3 1692.2 239.3 1693 213.8 1892.6 210.7 1889.8 2.9 2026.1 1 2031.8 424.5 Z" data-holc_grade="D"/>
<path d="M 2137.7 686.8 2138.7 736.4 1809 692 1801.7 674.3 1639.9 646 1636 658.6 1624.7 656.6 1633.5 605.4 1785.1 632.1 1810.4 476.2 2135.2 529.6 2137.7 686.8 Z" data-holc_grade="D"/>
<path d="M 2185.6 685.9 2397.1 431.6 2136.1 426.5 2134.3 370.7 2195.4 369.7 2196.3 258.4 2314.8 257.4 2309.1 210.6 2563 209.5 2565.9 434.2 2420.2 434.3 2419.2 465.1 2427.7 480.1 2428.7 665.5 2372.3 685.2 2185.6 685.9 Z" data-holc_grade="D"/>
<path d="M 2569.9 668.5 2999 574.2 2997.9 741.4 2567.6 757.2 2569.9 668.5 Z" data-holc_grade="D"/>
<path d="M 1617.6 1478.2 1618.6 1460.9 1648.3 1278.3 1687.7 1045.4 1752.4 1054.8 1657.6 1345.4 1617.6 1478.2 Z" data-holc_grade="D"/>
<path d="M 1808 1037.3 2007.3 1073.2 2045.9 834.2 1877.2 802.8 1881.4 765.8 1927.5 773.3 1946.3 755.5 2063.9 776.1 2127.8 784.5 2135.4 848.1 2407.2 843.4 2399.7 1059.7 2560.6 1060.5 2566.1 922.9 2720.4 915.3 2768.4 950.9 2993.1 961 2991.4 1122.1 2984.1 1489.2 2977.6 1695.2 2563.6 1668.3 2564.4 1271.2 2136.4 1271.4 2146.3 1542.6 1619.5 1556.9 1698.5 1270.4 1766.5 1269.8 1808 1037.3 Z" data-holc_grade="D"/>
</g>
</svg>