<?xml version="1.0"?>
<svg xmlns="http://www.w3.org/2000/svg" version="1.2" baseProfile="tiny" width="3000" height="2157" viewBox="0 0 3000 2157" stroke-linecap="round" stroke-linejoin="round">
<g id="A">
<path d="M 2158.7 649.3 2158.7 595.4 2118.5 578.5 2061.3 586.2 1970.1 566.2 1897.5 560 1787.7 498.4 1746 429.1 1695 384.5 1699.6 353.7 1810.9 265.9 1868.1 199.6 1906.7 164.2 1956.2 159.6 1984 127.3 2013.3 67.2 2052 56.4 2121.6 325.9 2194.2 304.3 2253 355.1 2198.9 418.3 2211.3 513.8 2231.4 560 2304 632.3 2310.2 697 2294.8 715.5 2194.3 649.3 2158.7 649.3 Z" data-holc_grade="A"/>
<path d="M 2093.8 992.9 2064.5 994.3 1976.4 1003.6 1942.4 1005.1 1803.2 937.4 1747.6 846.5 1719.7 821.8 1705.2 813 1786.2 801.8 1886.7 777.2 1953.1 707.9 1950 633.9 1897.5 560 1970.1 566.2 2061.3 586.2 2118.5 578.5 2158.7 595.4 2158.7 649.3 2090.7 774.1 2081.5 889.6 2100 951.2 2093.8 992.9 Z" data-holc_grade="A"/>
<path d="M 1759.5 1692.5 1727.3 1733.6 1702.8 1763.1 1666.7 1791.4 1644.8 1776 1631.9 1792.7 1580.4 1727.2 1577.8 1700.2 1519.8 1660.4 1409 1661.7 1340.7 1596.2 1343.3 1566.7 1338.1 1539.8 1516 1600.1 1608.7 1515.4 1597.1 1492.3 1607.4 1469.1 1597.1 1439.6 1625.5 1413.9 1696.3 1471.7 1647.4 1521.8 1661.6 1560.3 1666.7 1603.9 1678.3 1634.8 1709.2 1650.2 1733.7 1663 1759.5 1692.5 Z" data-holc_grade="A"/>
</g>
<g id="B">
<path d="M 1705.2 813 1644 775.6 1543.5 761.8 1412.1 701.7 1311.6 607.8 1252.9 567.7 1217.3 501.5 1201.9 373.7 1152.4 230.4 1169.5 139.6 1175.6 76.5 1222 1 1643.9 13.3 1868.1 199.6 1810.9 265.9 1699.6 353.7 1695 384.5 1746 429.1 1787.7 498.4 1897.5 560 1950 633.9 1953.1 707.9 1886.7 777.2 1786.2 801.8 1705.2 813 Z" data-holc_grade="B"/>
<path d="M 1016.1 1191.8 1155.2 1280.4 1238.9 1347.2 1307.2 1410.1 1356.2 1451.2 1380.7 1456.3 1324 1508.9 1338.1 1539.8 1343.3 1566.7 1000.1 1473.5 827.9 1426.7 958.1 1272.7 978.7 1245.7 998 1189.3 1016.1 1191.8 Z" data-holc_grade="B"/>
<path d="M 2294.8 715.5 2271.6 761.7 2271.6 789.4 2198.9 834.1 2192.8 912.7 2180.4 975.8 2127.9 991.2 2093.8 992.9 2100 951.2 2081.5 889.6 2090.7 774.1 2158.7 649.3 2194.3 649.3 2294.8 715.5 Z" data-holc_grade="B"/>
<path d="M 2540.1 1012 2473.2 1103.2 2437.1 1096.8 2399.7 1123.7 2381.5 1107 2349.5 1077.5 2379.1 1039 2389.4 1001.8 2413.9 868.3 2456.4 867 2484.7 861.9 2525.9 847.7 2544 852.9 2555.6 870.8 2558.2 906.8 2546.6 941.4 2553 978.6 2540.1 1012 Z" data-holc_grade="B"/>
<path d="M 2736 1237.9 2581.5 1469 2389.5 1379.2 2369.7 1362.5 2314.8 1316.3 2291.6 1322.7 2226.1 1280.5 2200.1 1263.7 2308.3 1173.8 2340.5 1161 2381.5 1107 2399.7 1123.7 2437.1 1096.8 2473.2 1103.2 2540.1 1012 2568.5 1013.3 2602 1050.5 2608.4 1085.2 2603.3 1114.7 2632.9 1145.5 2651 1135.2 2676.8 1173.7 2693.5 1204.5 2736 1237.9 Z" data-holc_grade="B"/>
<path d="M 2709 1540.2 2557.1 1724.5 2410.2 1571.7 2318.7 1425.4 2369.7 1362.5 2389.5 1379.2 2581.5 1469 2709 1540.2 Z" data-holc_grade="B"/>
<path d="M 2226.1 1280.5 2291.6 1322.7 2314.8 1316.3 2369.7 1362.5 2318.7 1425.4 2410.2 1571.7 2557.1 1724.5 2709 1540.2 2751.6 1563.9 2772.2 1535.7 2801.9 1526.7 2837.9 1557.5 2861.1 1526.7 2982.3 1610.1 2939.8 1691 2867.6 1644.8 2835.4 1633.2 2789 1700 2845.8 1793.7 2735 1929.8 2590.6 1777.1 2430.8 1841.3 2366.4 1737.4 2330.3 1702.7 2301.9 1637.2 2276.2 1542.2 2229.8 1448.5 2191.1 1389.5 2164 1321.5 2160 1305.5 2148.5 1259.8 2198.8 1315 2226.1 1280.5 Z" data-holc_grade="B"/>
<path d="M 2148.5 1259.8 2160 1305.5 2104.8 1367.7 2073.8 1395.9 2095.8 1438.3 2064.8 1457.6 2041.6 1462.7 2019.7 1475.5 1987.5 1485.8 1954 1523 1947.6 1542.3 1956.6 1566.7 1950.2 1600.1 1923.1 1639.9 1887 1659.1 1818.8 1682.2 1759.5 1692.5 1733.7 1663 1709.2 1650.2 1678.3 1634.8 1666.7 1603.9 1661.6 1560.3 1647.4 1521.8 1696.3 1471.7 1625.5 1413.9 1597.1 1439.6 1576.5 1435.8 1540.4 1446 1528.8 1446 1481.2 1348.5 1536.6 1290.7 1499.2 1267.6 1585.5 1170 1604.8 1157.2 1634.5 1148.2 1657.7 1105.9 1789.1 1146.9 1778.8 1172.6 1840.6 1175.2 1911.5 1180.3 1943.7 1193.1 1932.1 1230.4 1993.9 1259.9 2013.3 1285.5 2035.2 1284.3 2093.1 1226.5 2148.5 1259.8 Z" data-holc_grade="B"/>
<path d="M 1657.7 1105.9 1634.5 1148.2 1604.8 1157.2 1585.5 1170 1499.2 1267.6 1536.6 1290.7 1481.2 1348.5 1380.7 1456.3 1356.2 1451.2 1307.2 1410.1 1238.9 1347.2 1155.2 1280.4 1016.1 1191.8 1066.3 1127.7 1306.5 900.1 1330.4 877.4 1657.7 1105.9 Z" data-holc_grade="B"/>
<path d="M 1306.5 900.1 1066.3 1127.7 1016.1 1191.8 998 1189.3 978.7 1245.7 958.1 1272.7 827.9 1426.7 806 1422.9 622.8 1369.7 1 1266.9 118.1 1244.8 198.1 1198 198.1 1134.7 202.3 1101.9 215.5 1044.4 242.7 1022.2 292.2 1021.4 324.3 1015.7 371.3 1013.2 453.7 1050.2 485.1 1080.6 537 1143.9 590.6 939.3 601.4 934.4 585.7 857.2 550.3 862.1 547.8 849.8 575 788.2 538.7 772.6 498.4 737.2 507.4 715.9 500.8 697.8 525.6 645.2 561.9 637.9 641.8 674 693.8 692.9 729.2 697 808.4 711.8 884.2 711 1008.7 722.6 1066.4 739.8 1161.2 773.5 1224.7 818.7 1306.5 900.1 Z" data-holc_grade="B"/>
</g>
<g id="C">
<path d="M 561.9 637.9 525.6 645.2 500.8 697.8 507.4 715.9 498.4 737.2 538.7 772.6 575 788.2 547.8 849.8 550.3 862.1 585.7 857.2 601.4 934.4 590.6 939.3 537 1143.9 485.1 1080.6 453.7 1050.2 371.3 1013.2 324.3 1015.7 292.2 1021.4 242.7 1022.2 215.5 1044.4 202.3 1101.9 198.1 1134.7 198.1 1198 118.1 1244.8 1 1266.9 104.7 1038.4 189.7 932.1 243.9 844.4 414 611.8 560.8 616.5 561.9 637.9 Z" data-holc_grade="C"/>
<path d="M 1705.2 813 1719.7 821.8 1747.6 846.5 1803.2 937.4 1942.4 1005.1 1976.4 1003.6 2064.5 994.3 2093.8 992.9 2127.9 991.2 2180.4 975.8 2195.9 941.9 2236.1 921.9 2267 920.3 2284 945 2287.1 1017.4 2262.4 1040.5 2208.3 1045.1 2209.8 1094.4 2194.4 1149.9 2168.1 1196.1 2109.3 1159.1 2011.9 1133 1814 1106.8 1789.1 1146.9 1657.7 1105.9 1330.4 877.4 1306.5 900.1 1224.7 818.7 1161.2 773.5 1066.4 739.8 1008.7 722.6 884.2 711 808.4 711.8 729.2 697 693.8 692.9 641.8 674 561.9 637.9 560.8 616.5 674.8 633.9 688.7 618.5 665.5 578.4 656.2 523 656.3 447.5 613 350.5 875.8 4 1222 1 1175.6 76.5 1169.5 139.6 1152.4 230.4 1201.9 373.7 1217.3 501.5 1252.9 567.7 1311.6 607.8 1412.1 701.7 1543.5 761.8 1644 775.6 1705.2 813 Z" data-holc_grade="C"/>
<path d="M 2982.3 1610.1 2861.1 1526.7 2837.9 1557.5 2801.9 1526.7 2772.2 1535.7 2751.6 1563.9 2709 1540.2 2581.5 1469 2736 1237.9 2826.2 1264.8 2859.7 1260.9 2948.6 1253.2 2977 1259.6 2988.6 1295.5 2974.5 1458.6 2996.4 1504.8 2999 1558.7 2982.3 1610.1 Z" data-holc_grade="C"/>
<path d="M 2845.8 1793.7 2910.3 1835.6 2914.4 1895.2 2881.5 1993.8 2796.9 2069.8 2710.4 2092.5 2644.4 2137.7 2580.5 2156.2 2541.3 2119.2 2483.5 2059.7 2440.2 2051.5 2368.1 2063.8 2333 2033 2285.6 2012.5 2240.2 1969.3 2180.4 1979.6 2135.1 1985.8 2110.3 2008.4 2027.9 1948.8 2215.5 1905.7 2192.8 1792.7 2300 1761.8 2330.3 1702.7 2366.4 1737.4 2430.8 1841.3 2590.6 1777.1 2735 1929.8 2845.8 1793.7 Z" data-holc_grade="C"/>
</g>
</svg>