<?xml version="1.0"?>
<svg xmlns="http://www.w3.org/2000/svg" version="1.2" baseProfile="tiny" width="3000" height="3459" viewBox="0 0 3000 3459" stroke-linecap="round" stroke-linejoin="round">
<g id="A">
<path d="M 1874.9 435.1 1876.7 468.7 1869 505.3 1847.6 558.7 1753.6 553.3 1633.7 544.6 1628.9 503.4 1615.6 481.9 1582.7 462.3 1555.9 451 1493.2 444.2 1452.1 439.7 1403.7 438.1 1374.3 432.7 1367.5 417.9 1366.2 384.7 1375.6 299.2 1382.7 285.7 1385.6 241.3 1383.6 176.9 1398.5 144.1 1437.3 100.1 1483.5 59.2 1544.9 13.5 1596.2 1 1803.9 4.5 1789.4 44.4 1776.5 83 1768.4 149.6 1769.7 211.7 1772.6 253.8 1784.3 282.4 1781.4 286.9 1623.1 257 1554.2 250.9 1535.2 255.7 1523.2 267.6 1533.9 288.9 1538.7 317.5 1563.9 312.7 1604 320.7 1630.8 332 1667.6 337.8 1707.7 343.9 1733.9 359.6 1784.6 360.3 1805.6 367.7 1819.2 380.8 1850.9 401.1 1874.8 432 1874.9 435.1 Z" data-holc_grade="A"/>
<path d="M 1888.6 780.9 1888 692.9 1885.1 649.5 1924.9 631.5 1938.9 616.5 1943.2 594.8 1947.3 565.6 1952.6 476 1977.2 477.6 1983.3 416.8 2037.3 417.1 2087.4 419 2248.3 421.2 2248.6 426.7 2099 539.7 2094.8 558 2102.9 594 2128.5 613.3 2154.3 656.7 2154.7 678.9 2146.6 695.3 2105.2 707.3 2068.4 713.7 2034.1 687.7 2016.7 679.3 2002.5 684.8 1996.3 695.4 1982.8 770 1966.3 770 1962.1 826.3 1955.6 865.3 1954.4 887.5 2034.5 892 2039.7 865.2 2058.1 855.9 2062 849.2 2073.3 846.6 2104.6 819.9 2124.3 809.6 2151.5 810.8 2189 840.1 2212.6 865.2 2229.4 891.3 2223.2 907 2222 915.4 2200.6 936.3 2193.8 950.8 2195.1 973 2180 983.9 2179 996.5 2185.1 1016.8 2185.5 1028.3 2160.3 1042.5 2141.5 1046.1 2105.6 1040.3 2058.4 1013.3 2015.1 1005.9 2001.9 998.1 1967.3 948.9 1937.9 897.8 1932.1 881.7 1929.8 851.1 1932.7 787.7 1908.8 781.3 1888.6 780.9 Z" data-holc_grade="A"/>
<path d="M 2387.2 2944.2 2408.1 2976.8 2451.8 3048.3 2461.9 3080.8 2451.9 3139.1 2446.7 3149.4 2417.2 3097.5 2397.5 3069.2 2381.3 3054.4 2362.9 3043.5 2341.8 3039 2325 3049.9 2322.8 3067.3 2328.6 3085 2348.3 3111.4 2358 3128.5 2285.9 3114.7 2271.6 3045.7 2252.5 3028.7 2234.4 3025.1 2217.3 3032.2 2204.7 3045.8 2186.2 3084.7 2175.6 3139.5 2165.9 3163.7 2159.7 3170.7 2147.1 3187.5 2134.2 3197.2 2121.6 3222.6 2115.1 3251.6 2129 3267.7 2149.4 3284.8 2170.8 3267 2197.9 3257.7 2222.2 3243.8 2283 3230 2292.7 3213.5 2310.8 3198.1 2334.8 3192.9 2355.5 3192.9 2404 3200.9 2437.3 3211.9 2431.5 3235.1 2409.8 3234.1 2392.1 3238.6 2382.4 3297.9 2349.7 3333.7 2340.7 3365.9 2333.9 3385.5 2313.8 3400.7 2296.3 3408.7 2284.1 3425.2 2246.2 3442.2 2217.7 3454.2 2191.9 3458.4 2171.5 3446.1 2145.6 3438.1 2119.1 3432.9 2066.6 3393.3 2051.7 3353.1 1991.2 3306.4 1955.6 3238.8 1948.5 3212 1958.2 3179.8 1986 3155 2002.8 3129.9 2024.2 3109.9 2044.2 3068.4 2053.3 3057.7 2078.2 3001 2115.4 2968.2 2167.4 2916 2173.6 2902.5 2171.3 2883.8 2052.3 2888.7 2047.1 2797.6 2045.8 2772.8 2054.7 2754 2069.2 2739.7 2103.7 2710.6 2143.9 2671.3 2178.2 2635.5 2198.9 2611.2 2228.4 2579.6 2240.2 2595.6 2266.9 2627.8 2289 2672.6 2304.7 2705.4 2322.2 2767.9 2346 2846 2365.7 2903.4 2370.8 2918.7 2387.2 2944.2 Z" data-holc_grade="A"/>
</g>
<g id="B">
<path d="M 1847.6 558.7 1840.7 586.8 1842.1 646.9 1846.7 779 1831.9 847.1 1828.1 899.7 1833.4 945.1 1839.9 973 1852.9 1047.6 1796.8 1048.1 1786 933.3 1780.1 908.1 1775.3 864.2 1757.5 796.6 1760.7 753.7 1759.1 685.1 1739.7 685.1 1717.6 681.3 1702 665.2 1690.9 651.9 1644.9 596.6 1635.7 577.3 1633.7 544.6 1753.6 553.3 1847.6 558.7 Z" data-holc_grade="B"/>
<path d="M 1879.1 1976.8 1873.8 1988.7 1870.7 2004.6 1882.8 2087.9 1876.8 2108.9 1856.1 2141.1 1819 2184.9 1811.3 2189.2 1797.5 2190.5 1780.7 2183.6 1769 2167.7 1759.5 2133 1759.5 2116.7 1773.3 2101.2 1808.2 2080.2 1827.2 2062.1 1832.4 2048 1828.5 2013.6 1828.1 1970.5 1833.1 1972.2 1879.1 1976.8 Z" data-holc_grade="B"/>
<path d="M 2185.5 1028.3 2185.4 1042.6 2188 1056.4 2191.5 1074.8 2185.4 1083.4 2183.7 1105.7 2176 1122.4 2157.9 1149.5 2157.9 1170.1 2167.8 1189.4 2175.1 1215.5 2176.9 1233.4 2108.5 1231 2047.3 1231.8 2051.6 1124.3 2055.1 1060 1950.1 1038.8 1912.6 1030.5 1895.1 1014.7 1878.9 964.8 1875.2 945 1883 887.3 1888.6 780.9 1908.8 781.3 1932.7 787.7 1929.8 851.1 1932.1 881.7 1937.9 897.8 1967.3 948.9 2001.9 998.1 2015.1 1005.9 2058.4 1013.3 2105.6 1040.3 2141.5 1046.1 2160.3 1042.5 2185.5 1028.3 Z" data-holc_grade="B"/>
<path d="M 1610.7 1199.5 1595.5 1180.2 1550.6 1177.4 1503.2 1190.3 1459.1 1198.8 1401.1 1201.1 1386 1184.5 1372.1 1157.8 1363.7 1130.4 1352.5 1100.1 1343.8 1075.8 1365.3 1059.5 1404.1 1039.9 1424.6 1031.9 1452 1024.9 1504.8 1020.1 1543.1 1024.6 1560.3 1031.3 1578.9 1050.6 1656.5 1172.4 1610.7 1199.5 Z" data-holc_grade="B"/>
<path d="M 2053.2 1768.8 2056 1802 2066 1822.7 2077.3 1836.6 2090 1844.4 2108.3 1842.8 2119.9 1837.9 2130.9 1821 2135.5 1794.5 2130.7 1771.1 2117.3 1745.4 2129.6 1738.9 2161.9 1723 2192.6 1706.7 2210.9 1694.3 2220.6 1678.5 2236.2 1606.1 2242.7 1557.8 2252.9 1532.3 2265 1516.7 2281.5 1504.7 2318.1 1501.2 2352 1507.6 2392.2 1534.4 2405.7 1549.1 2417.3 1582.4 2414 1607.3 2381.4 1642.5 2379.6 1662.3 2366.6 1675.8 2362.3 1691.8 2362.1 1713.8 2354.8 1731.3 2368.3 1798.9 2375.3 1823.5 2381.8 1833.7 2386.1 1866.5 2395.8 1890.9 2411.7 1915 2413.6 1926.5 2406.1 1931.6 2389.2 1935 2334.5 1941.5 2188.8 1990.4 2150.8 2000.8 2128.2 2002.2 2097.7 1992.3 2071.8 1945.1 2050.3 1897.3 2024.1 1870.8 2012.5 1850.4 1985.1 1819.1 2022.4 1799.2 2032.9 1786.4 2053.2 1768.8 Z" data-holc_grade="B"/>
<path d="M 1383.5 1884.8 1425.6 1899.4 1482 1908.9 1483.1 1932.9 1478.8 1967.5 1472.1 1999 1434 1992.4 1402.1 1986.8 1373.6 1984.6 1379.6 1912.7 1383.5 1884.8 Z" data-holc_grade="B"/>
<path d="M 992.8 1683.5 1070.8 1683.9 1072.1 1749.2 1060.9 1794.2 1019.5 1806.7 997.1 1723.4 992.8 1683.5 Z" data-holc_grade="B"/>
<path d="M 714.4 1705.5 703.5 1738.7 696.8 1750 680 1755.2 667.3 1762.5 662.8 1780.1 656.7 1802.2 646.8 1799.8 641.4 1793.4 631.6 1779.5 596.7 1754.7 592.1 1733.8 599.3 1703.2 612.5 1681 626.8 1668.8 642.6 1665 666.2 1669.8 697.9 1694.3 714.4 1705.5 Z" data-holc_grade="B"/>
<path d="M 584.5 2213.8 526 2197.7 499.1 2184.4 482 2169 469.4 2141 469.4 2120.4 477.9 2085.9 475.3 2070.2 466.9 2064.4 464.3 2048.4 469.1 2025.6 489.4 2006.8 518.3 1987.5 535.9 1977.6 558.4 1973.3 560.9 1998.6 570 2032.6 582 2063.5 594.1 2087.1 596.7 2103 584.5 2213.8 Z" data-holc_grade="B"/>
<path d="M 1004.9 2232 963.8 2228.4 919.5 2227.1 869.1 2222.2 865.4 2221.3 855.1 2188 849.3 2151.5 842.7 2099.7 838.5 2066.9 836.2 2046.3 842.4 1990.9 878.9 1917.8 891.2 1886.6 910.6 1864.1 919.7 1863.8 950.1 1881.2 990.8 1895.6 987.2 1962.9 987.9 1984.2 981.4 2074.9 984.9 2112.6 985.3 2132.6 990.1 2164.8 1004.9 2232 Z" data-holc_grade="B"/>
</g>
<g id="C">
<path d="M 1181.8 245 1244.3 272.9 1265.8 284.2 1304 309.4 1326.1 319 1347.1 328.1 1350.3 422 1363.3 439.1 1380.5 469.1 1419.3 491.1 1445.7 514.7 1476.4 587.6 1487.7 622.5 1495.2 662.7 1481.7 678.2 1446.7 695.9 1394.5 704.5 1364.3 705.1 1330.4 605.3 1291.6 560.3 1264.7 541.5 1230.2 523.8 1180.7 508.3 1120.9 513.1 1108 490 1094.5 442.3 1085.4 396.7 1091.3 353.8 1136 293.3 1161.9 258.4 1181.8 245 Z" data-holc_grade="C"/>
<path d="M 1690.9 651.9 1702 665.2 1717.6 681.3 1739.7 685.1 1759.1 685.1 1760.7 753.7 1757.5 796.6 1775.3 864.2 1780.1 908.1 1786 933.3 1796.8 1048.1 1852.9 1047.6 1839.9 973 1833.4 945.1 1828.1 899.7 1831.9 847.1 1846.7 779 1842.1 646.9 1840.7 586.8 1847.6 558.7 1869 505.3 1876.7 468.7 1874.9 435.1 1951 416.3 1953.2 422.7 1947.2 452.2 1947 474.4 1952.6 476 1947.3 565.6 1943.2 594.8 1938.9 616.5 1924.9 631.5 1885.1 649.5 1888 692.9 1888.6 780.9 1883 887.3 1875.2 945 1878.9 964.8 1895.1 1014.7 1912.6 1030.5 1950.1 1038.8 2055.1 1060 2051.6 1124.3 2047.3 1231.8 2108.5 1231 2176.9 1233.4 2168.5 1245.8 2142.1 1247.1 2118.4 1261.1 2056.5 1287.9 2048.4 1304.5 2037.7 1319.5 2022 1329.7 2009.1 1346.4 1995.6 1345.8 1981.1 1338.1 1971.1 1299.2 1958.7 1271.8 1908.6 1286 1890.8 1290.1 1878.2 1284.4 1853.9 1262.7 1843.4 1281.5 1820.8 1301.1 1746.2 1352.6 1747.8 1375.1 1744.9 1395.8 1749.7 1451 1762.9 1462.8 1787.4 1463.1 1816.5 1458.5 1813.6 1571.1 1817.3 1606 1807.4 1610.8 1787.7 1627.2 1769.1 1665.6 1761.1 1688.9 1725.5 1688.1 1725.8 1645.7 1723.3 1624.8 1720.6 1586.2 1715 1536.8 1704.5 1502.8 1687.5 1471.4 1682.6 1442.4 1665.1 1418 1720.9 1356.3 1712 1337.3 1683.2 1310.5 1637.1 1340 1560.3 1373.8 1541.2 1370 1532.9 1355 1535.5 1325 1578.6 1294.9 1589.1 1292 1627.9 1268.6 1629.6 1238.9 1624.4 1219.8 1610.7 1199.5 1656.5 1172.4 1578.9 1050.6 1560.3 1031.3 1543.1 1024.6 1504.8 1020.1 1452 1024.9 1424.6 1031.9 1404.1 1039.9 1365.3 1059.5 1343.8 1075.8 1338.1 1064.3 1340.8 1034 1365.1 971.3 1376.6 925.1 1380.1 914.4 1416.5 868.3 1447.5 854.4 1481.7 853.6 1497 861.3 1515.6 887.1 1533.9 901.3 1569.2 913.9 1586.4 931.9 1599.4 958.9 1611 985.2 1635.7 1009.9 1665.9 1037.5 1723.8 1023.5 1748 1029.2 1740.5 986.8 1717.1 935.1 1698.7 911.7 1688.5 879 1680.2 867.2 1676.9 852.7 1682 771 1685.8 671.2 1690.9 651.9 Z" data-holc_grade="C"/>
<path d="M 1613.3 2018 1594.7 2020.8 1558.5 2018.8 1509.3 2024.3 1469.2 2020.8 1399.1 2021.4 1368.7 2026.9 1339.9 2029.1 1340.2 2088 1345.7 2099.3 1362.8 2118 1385.8 2148.2 1421.4 2188.1 1417.2 2189.2 1324.7 2188.8 1220.3 2176.3 1140.4 2188.2 1107.7 2196.2 1075.4 2212.3 1056.3 2228.1 1040.1 2235.5 1018.5 2233.2 1004.9 2232 990.1 2164.8 985.3 2132.6 984.9 2112.6 981.4 2074.9 987.9 1984.2 987.2 1962.9 990.8 1895.6 950.1 1881.2 919.7 1863.8 910.6 1864.1 891.2 1886.6 878.9 1917.8 842.4 1990.9 836.2 2046.3 838.5 2066.9 842.7 2099.7 849.3 2151.5 855.1 2188 865.4 2221.3 850 2217.4 836.7 2208.1 778.9 2161.1 754 2150.4 738.8 2149.1 710 2166.5 670.9 2197.4 652.7 2206.4 623.6 2209 602.9 2215.1 584.5 2213.8 596.7 2103 594.1 2087.1 582 2063.5 570 2032.6 560.9 1998.6 558.4 1973.3 535.9 1977.6 518.3 1987.5 489.4 2006.8 469.1 2025.6 464.3 2048.4 466.9 2064.4 456.5 2068.9 433.9 2019.6 411.3 2034.7 399.3 2055 351.1 2067.2 320.1 2087.5 294.2 2093.6 267.7 2101.9 232.4 2102.5 215 2095.4 12.3 1960.4 1 1939.5 3 1911.5 9.8 1887.7 23.7 1865.8 45.4 1846.2 71.6 1833.3 98.4 1831.4 195.7 1835.7 259.2 1845.7 289 1839.7 321.5 1840.7 329.6 1857.6 340.9 1890.1 377 1962.9 393.2 1981.9 412.6 1987.4 434.6 1981 524.5 1921.8 540.3 1904.7 555.2 1881.6 598.2 1840 620.6 1809.2 631.6 1779.5 641.4 1793.4 646.8 1799.8 656.7 1802.2 662.8 1780.1 667.3 1762.5 680 1755.2 696.8 1750 703.5 1738.7 714.4 1705.5 761.6 1694.3 781.3 1664 786.8 1644.4 786.5 1626.7 791.3 1597.1 799.4 1566.9 815.9 1557.2 830.5 1563 850.5 1580.7 873.1 1607.4 907.1 1632.5 965.6 1642.5 990.5 1637.4 1023.1 1646.4 1043.5 1644.8 1058 1631.3 1084.2 1621 1110.1 1626.5 1113.2 1626 1116 1656.5 1120.9 1671.7 1114.7 1760.2 1119.9 1770.2 1171 1792.1 1189.1 1804.3 1194.2 1822.6 1203.6 1831.3 1223.7 1837.1 1257 1832 1252.8 1801.7 1239.8 1743.1 1234.4 1697.4 1232.1 1667.8 1246.5 1612 1303.8 1554.1 1365.2 1475.6 1369.1 1449.2 1402 1434 1413.7 1440.8 1421.4 1487.5 1432.4 1514.8 1458.3 1569.9 1472.2 1592.4 1502.9 1628.1 1522.6 1655.8 1532 1747.5 1529.7 1774.6 1521.3 1809.6 1520.3 1836.4 1509.7 1866.6 1505.5 1892.7 1509.7 1908.5 1556.6 1962.5 1610.9 2015.3 1613.3 2018 Z M 992.8 1683.5 997.1 1723.4 1019.5 1806.7 1060.9 1794.2 1072.1 1749.2 1070.8 1683.9 992.8 1683.5 Z M 1383.5 1884.8 1379.6 1912.7 1373.6 1984.6 1402.1 1986.8 1434 1992.4 1472.1 1999 1478.8 1967.5 1483.1 1932.9 1482 1908.9 1425.6 1899.4 1383.5 1884.8 Z" data-holc_grade="C"/>
<path d="M 2387.2 2944.2 2370.8 2918.7 2365.7 2903.4 2346 2846 2322.2 2767.9 2304.7 2705.4 2289 2672.6 2266.9 2627.8 2240.2 2595.6 2228.4 2579.6 2210.8 2555.7 2205.7 2538.5 2213.5 2520.5 2214 2500.9 2208.1 2469.5 2192.4 2412.6 2181.4 2393.6 2146.9 2337.5 2120.2 2289.5 2112.4 2265.6 2102.4 2235.1 2094 2223.5 2081.6 2204.5 2074.6 2186.8 2068.4 2156.5 1986.2 2114.6 1975.4 2101.5 1976.8 2088.3 1985.4 2064.5 1999.1 2061.2 2011.5 2047.6 2018.8 2026.1 2013.4 2001.7 2031.7 1976.5 2033.9 1962 2011.5 1962.8 1929.1 1971.9 1916.7 1975.4 1881.4 1977 1879.1 1976.8 1833.1 1972.2 1828.1 1970.5 1811 1964.6 1805.2 1925.6 1804.5 1903.1 1811 1864.8 1816.5 1840.3 1831.4 1813 1850.8 1802.3 1879.9 1789.5 1907.7 1778.2 1960.4 1768.2 1971.3 1803.7 1983.2 1816.9 1985.1 1819.1 2012.5 1850.4 2024.1 1870.8 2050.3 1897.3 2071.8 1945.1 2097.7 1992.3 2128.2 2002.2 2150.8 2000.8 2188.8 1990.4 2334.5 1941.5 2389.2 1935 2440.5 2019 2562.3 2038 2594.6 2050.6 2629.1 2070.1 2654.4 2078.7 2745 2109.5 2779.2 2114.3 2821 2123.7 2850.6 2133.3 2880 2153.2 2928 2192.8 2955.8 2215.1 2976 2242.4 2986.8 2266 2996.3 2307.6 2999 2351.9 2995.2 2385.2 2987.7 2411.5 2978.6 2425.7 2920.6 2423 2801.8 2422.3 2763.8 2403.8 2733 2391.5 2668.3 2347.5 2650.5 2331.2 2586.7 2315.6 2561.6 2314.3 2534.4 2302.5 2514.1 2285.9 2467.5 2265.8 2441.6 2249.7 2404.2 2232.8 2380 2257 2363 2269.9 2341.4 2287.3 2337.1 2303.7 2342.8 2319.5 2389.7 2395.4 2400 2420.6 2421 2454.2 2467.9 2527.9 2526.5 2644.1 2531.1 2663.9 2535.1 2718.7 2532.2 2751.1 2534.6 2785.5 2535.2 2877.3 2387.2 2944.2 Z" data-holc_grade="C"/>
</g>
<g id="D">
<path d="M 1816.5 1458.5 1830.3 1458.3 1843.9 1458.6 1875.9 1452.2 1893.4 1456 1901.5 1464.7 1948.7 1482.4 1962.2 1484.7 1971.3 1474.7 1982.3 1447.6 1997.1 1422.9 2015.2 1395.2 2015.2 1352.4 2009.1 1346.4 2022 1329.7 2037.7 1319.5 2048.4 1304.5 2056.5 1287.9 2118.4 1261.1 2142.1 1247.1 2168.5 1245.8 2176.2 1253.2 2181.4 1266.7 2170 1303.1 2176.2 1323.7 2178.8 1354.3 2173 1382.3 2157.5 1422.8 2145.2 1462.4 2133.3 1489.8 2109.3 1514.2 2078.3 1539.7 2026.6 1572.5 1994.9 1587 1962.6 1591.5 1950.3 1609.9 1947.1 1636.2 1958.4 1679.7 1955.5 1723.8 1960.4 1768.2 1907.7 1778.2 1879.9 1789.5 1850.8 1802.3 1831.4 1813 1816.5 1840.3 1811 1864.8 1804.5 1903.1 1805.2 1925.6 1811 1964.6 1790.3 1965.2 1762.5 1975.2 1726.6 1983.6 1712.7 1991.3 1679.1 2002.9 1671.3 2001 1656.1 1956.6 1646.1 1950.1 1651.3 1925 1647.4 1880.3 1637.7 1842.3 1640.3 1821.4 1651.9 1810.1 1654.2 1800.1 1642.9 1770.5 1634.8 1731.9 1635.4 1702.9 1635.1 1687.8 1613.1 1651.7 1580.8 1618.6 1564.3 1603.1 1534.2 1546.8 1489.6 1474.4 1482.2 1457.7 1479 1426.8 1474.1 1397.5 1454.7 1355.3 1449.9 1330.5 1447.3 1296.4 1469.6 1299 1494.8 1298.7 1517.1 1287.7 1524.2 1278.1 1534.2 1271.7 1547.8 1272.3 1551 1265.9 1539.1 1228.2 1550.6 1177.4 1595.5 1180.2 1610.7 1199.5 1624.4 1219.8 1629.6 1238.9 1627.9 1268.6 1589.1 1292 1578.6 1294.9 1535.5 1325 1532.9 1355 1541.2 1370 1560.3 1373.8 1637.1 1340 1683.2 1310.5 1712 1337.3 1720.9 1356.3 1665.1 1418 1682.6 1442.4 1687.5 1471.4 1704.5 1502.8 1715 1536.8 1720.6 1586.2 1723.3 1624.8 1725.8 1645.7 1725.5 1688.1 1761.1 1688.9 1769.1 1665.6 1787.7 1627.2 1807.4 1610.8 1817.3 1606 1813.6 1571.1 1816.5 1458.5 Z" data-holc_grade="D"/>
<path d="M 2053.2 1768.8 2067.6 1756.3 2083.2 1750.7 2110.5 1749.1 2117.3 1745.4 2130.7 1771.1 2135.5 1794.5 2130.9 1821 2119.9 1837.9 2108.3 1842.8 2090 1844.4 2077.3 1836.6 2066 1822.7 2056 1802 2053.2 1768.8 Z" data-holc_grade="D"/>
<path d="M 1113.2 1626 1169.9 1617.1 1246.5 1612 1232.1 1667.8 1234.4 1697.4 1239.8 1743.1 1252.8 1801.7 1257 1832 1223.7 1837.1 1203.6 1831.3 1194.2 1822.6 1189.1 1804.3 1171 1792.1 1119.9 1770.2 1114.7 1760.2 1120.9 1671.7 1116 1656.5 1113.2 1626 Z" data-holc_grade="D"/>
<path d="M 1421.4 2188.1 1385.8 2148.2 1362.8 2118 1345.7 2099.3 1340.2 2088 1339.9 2029.1 1368.7 2026.9 1399.1 2021.4 1469.2 2020.8 1509.3 2024.3 1558.5 2018.8 1594.7 2020.8 1613.3 2018 1623.2 2028.9 1635.5 2049.5 1639.7 2072.3 1639 2103.5 1631.6 2125.1 1615.7 2132.8 1551.7 2148.3 1522 2156.7 1497.4 2169.2 1421.4 2188.1 Z" data-holc_grade="D"/>
</g>
</svg>