<?xml version="1.0"?>
<svg xmlns="http://www.w3.org/2000/svg" version="1.2" baseProfile="tiny" width="3000" height="2182" viewBox="0 0 3000 2182" stroke-linecap="round" stroke-linejoin="round">
<g id="A">
<path d="M 1296.3 1833.2 1276 1846.5 1226.7 1885.7 1197.3 1846.5 1182.2 1824.5 1250.6 1773.8 1296.3 1833.2 Z" data-holc_grade="A"/>
<path d="M 1608.7 1641.8 1570.5 1585.7 1589 1574.9 1602.3 1565.8 1619.3 1561.9 1630.2 1557.1 1639.9 1548.1 1667.7 1528.8 1686.5 1561 1703.4 1584.2 1608.7 1641.8 Z" data-holc_grade="A"/>
</g>
<g id="B">
<path d="M 1051.2 2016.9 1057.1 2022.5 1028.6 2047.5 1012.9 2066.5 1005 2057.8 998.3 2065.9 986.2 2076.8 965.9 2093 949.9 2111.1 937.2 2122.3 923.2 2139.8 901.1 2161.8 882.3 2176.2 877.5 2180.8 868.4 2181.1 864.8 2174.4 863.2 2164.8 866 2157.5 876.6 2142.8 890.8 2132.8 897.8 2123.8 916 2109.6 926.3 2097.5 942.3 2083.7 957.8 2071.3 973.5 2048.1 971.4 2044.8 982.9 2029.4 991.4 2007.4 998.1 1985.1 1002.6 1972.7 1009 1942.6 1014.1 1929 1019 1914.6 1024.1 1910 1031.4 1917.6 1029 1920.9 1015 1963.7 1011.7 1979.1 1051.2 2016.9 Z" data-holc_grade="B"/>
<path d="M 1416.5 1674.7 1440.4 1712 1458.9 1736.5 1389.3 1776.6 1319.6 1816.9 1296.3 1833.2 1250.6 1773.8 1182.2 1824.5 1197.3 1846.5 1168.6 1866.7 1126.5 1811.2 1127.1 1801.8 1131 1789.8 1134.1 1768.7 1133.8 1753.6 1125.6 1739.7 1121.4 1729.5 1133.2 1721.9 1175.5 1778.3 1189.5 1769 1201.9 1786.5 1336.9 1686.4 1340.2 1689.1 1358.1 1674.7 1355.7 1671.6 1386.2 1651.4 1395.6 1662 1404.7 1656.3 1416.5 1674.7 Z" data-holc_grade="B"/>
<path d="M 1570.5 1585.7 1608.7 1641.8 1512.5 1700.9 1458.9 1736.5 1440.4 1712 1416.5 1674.7 1449.2 1654.8 1431.3 1626.7 1550.9 1556.8 1570.5 1585.7 Z" data-holc_grade="B"/>
<path d="M 1751.8 1467.9 1791.2 1530.2 1721.9 1573.4 1685.9 1514.6 1690.7 1509.8 1691.6 1504 1720.4 1485 1751.8 1467.9 Z" data-holc_grade="B"/>
<path d="M 1791.2 1530.2 1751.8 1467.9 1776.6 1454.6 1775.4 1443.7 1786 1434.7 1785.7 1429.6 1838.3 1391.9 1848.3 1406 1857.7 1400 1848.9 1385.6 1861 1378.3 1910.7 1457.3 1791.2 1530.2 Z" data-holc_grade="B"/>
<path d="M 1379.9 391.2 1334.5 374.3 1321.8 365.9 1299.4 357.4 1289.8 379.1 1260.7 373.1 1236.6 362.9 1227.6 362.4 1265.6 256.9 1299.5 261.1 1341.8 261.1 1358.1 263.5 1373.8 308.7 1378.6 338.8 1378 358.7 1379.9 391.2 Z" data-holc_grade="B"/>
<path d="M 1358.1 263.5 1341.8 261.1 1299.5 261.1 1265.6 256.9 1277.1 222.6 1234.4 209.8 1211 197 1186.8 172.2 1193.7 101.8 1199 70.6 1232.2 60 1273.4 53.7 1291.2 53.7 1349.3 53.3 1355 18.3 1465.3 8.9 1503.5 1 1501.6 48.8 1408.6 132.7 1457 146.6 1452.9 173 1430.2 171.8 1417 178.2 1415.4 190.3 1409.8 195.9 1400.7 202.7 1403.3 212.9 1399.9 217.8 1393.1 217 1377.3 209.1 1358.1 263.5 Z" data-holc_grade="B"/>
</g>
<g id="C">
<path d="M 1051.2 2016.9 1011.7 1979.1 1015 1963.7 1029 1920.9 1031.4 1917.6 1024.1 1910 1026.3 1902.5 1030.5 1893.1 1034.1 1875.1 1039 1865.7 1043.8 1860.9 1054.1 1861.2 1061.7 1855.8 1131.9 1951.4 1051.2 2016.9 Z" data-holc_grade="C"/>
<path d="M 252 1786.7 293.1 1812.4 388.1 1863.4 380.2 1866.7 381.4 1870.4 383.2 1874 378.1 1878.5 363.6 1876.1 352.1 1876.1 341.2 1877 326.6 1881.5 318.2 1886 311.2 1888.4 302.4 1882 298.2 1882 291.5 1885.9 287.6 1885 287.9 1873.9 293 1867.3 287 1857.3 279.1 1849.5 242.4 1907 192.8 1877.1 252 1786.7 Z" data-holc_grade="C"/>
<path d="M 469.7 1219.5 581.6 1277.6 572.2 1289.7 575.9 1291.2 561.2 1305.9 484.7 1432.8 533.8 1466.3 622.7 1515 616.6 1523.3 599.6 1544.4 587.5 1563.6 563.2 1601.3 551.1 1615.9 530.7 1625.7 524.2 1643.4 479.2 1620 454.6 1609.8 425.9 1594.7 407 1581.5 400.2 1572.1 377.8 1610.5 411.1 1633.2 537 1701.5 529.4 1714.3 517.3 1725.9 503.3 1729.3 488.2 1730.1 459.1 1724 384.2 1692.3 367.5 1716 314.1 1797.4 265.3 1769.4 221.1 1739.2 241.2 1703.1 213.2 1684.9 252.2 1614.2 279.1 1569 250.8 1552.4 277.3 1503.8 313.6 1521.9 356.7 1537.4 368.5 1462.8 309.2 1432.6 319.4 1410.8 328.5 1385.5 334.2 1369.7 341.8 1350.9 351.6 1337.3 400.4 1360.7 403.8 1353.2 437.9 1290.7 447 1271.9 461.8 1237.2 469.7 1219.5 Z" data-holc_grade="C"/>
<path d="M 877.5 964.3 882.9 969 803 1052.6 681.5 1182.8 709.9 1202.4 718.6 1215.2 733.7 1241.6 764.7 1274.4 686.3 1359.1 653.5 1333.5 636.4 1322.1 593.3 1297.2 582 1292.3 575.9 1291.2 572.2 1289.7 581.6 1277.6 469.7 1219.5 491.3 1182.6 564.3 1220 632.8 1134.2 574.2 1091.9 643.5 1003.5 634.1 963.2 721.5 847.3 761.5 872.5 785.7 886.5 849.2 939.2 877.5 964.3 Z" data-holc_grade="C"/>
<path d="M 1012.4 742.9 1044.8 755.9 1101.8 774.4 1073.9 817 1039.8 858 1026.2 882.8 992.9 930.3 936.1 1016.9 882.9 969 877.5 964.3 893.8 945.3 847.3 911.4 886.7 871.5 907.9 887.3 909.7 881.6 950.6 843.6 915.4 826.3 928.3 805.2 944.2 772.5 973.7 727.3 1012.4 742.9 Z" data-holc_grade="C"/>
<path d="M 1227.6 362.4 1236.6 362.9 1260.7 373.1 1289.8 379.1 1299.4 357.4 1321.8 365.9 1334.5 374.3 1379.9 391.2 1294.6 500.8 1274.6 521.9 1209.9 606.2 1177.2 647.1 1166.3 670.6 1117 746.2 1101.8 774.4 1044.8 755.9 1012.4 742.9 1026.6 714.9 1031.2 701.3 997.5 680.2 937.8 643.7 924.6 636.2 909.9 623 896.7 614.3 886.5 608.3 874.7 593.6 866.8 574.8 917.2 496.4 969.2 527.8 998.9 474.2 1002.5 375.4 1064.3 278.5 1080 315.8 1108.4 327.9 1118.1 329.7 1154.3 342.4 1167.6 351.4 1199.7 361 1227.6 362.4 Z" data-holc_grade="C"/>
<path d="M 1073.9 817 1101.8 774.4 1117 746.2 1202.8 794 1192.6 806.1 1202.4 810.6 1228.5 816.6 1305.2 850.9 1373.3 883.7 1495.4 948.8 1490.5 968 1468.2 983.5 1452.3 1000.8 1422.4 1024.5 1416 1026.8 1400.5 1019.6 1396.7 1009.8 1391.8 986.1 1381.2 960.1 1373.6 953.7 1357.4 948.1 1350.2 944.7 1328.7 929.6 1306.3 908.1 1278.4 884.8 1237.2 864.8 1204.7 850.5 1186.1 851.6 1161.9 852 1137.7 843.7 1121.5 837.3 1084.8 821.9 1073.9 817 Z" data-holc_grade="C"/>
<path d="M 1168.6 1866.7 1194.9 1901.3 1171 1920.6 1131.9 1951.4 1061.7 1855.8 1082.3 1841.9 1096.5 1839.8 1103.8 1834.4 1110.1 1825 1114.4 1819.9 1126.5 1811.2 1168.6 1866.7 Z" data-holc_grade="C"/>
<path d="M 1629.3 1483.6 1654.4 1523.6 1611.7 1551.7 1598.1 1550.2 1577.5 1516.4 1629.3 1483.6 Z" data-holc_grade="C"/>
<path d="M 1781.1 1275 1823.2 1248.2 1887 1345.2 1826.2 1382.3 1812.9 1359.4 1821.1 1354.3 1789 1305.5 1800.5 1297.9 1781.1 1275 Z" data-holc_grade="C"/>
<path d="M 1896.1 1362.4 1927.3 1317.8 1940.9 1295.2 1944.8 1292.5 1962.4 1287.6 1982.9 1289.1 1995 1283.7 2008.7 1270.7 2009 1265 2037.4 1238.5 2041.6 1224.6 2062.8 1228.5 2070.1 1218.3 2093.3 1214.4 2116.1 1260.1 1944.8 1350.9 1937.6 1351.5 1903.4 1373.3 1896.1 1362.4 Z" data-holc_grade="C"/>
<path d="M 1975.3 983.3 2049.7 1013.1 2022.5 1087.2 1998.3 1080 1933.6 1093.9 1975.3 983.3 Z" data-holc_grade="C"/>
<path d="M 2303.4 1081.3 2296.9 1068.1 2283.5 1043.7 2277.2 1042.8 2272.6 1032.3 2276.9 1028.9 2274.1 1022.9 2274.4 1016 2286.5 1007.8 2289.9 1001.8 2306.8 992.2 2312.5 1000.9 2301.1 1007.2 2291.4 1015.4 2305.9 1039.2 2318.9 1033.4 2308 1012 2322.8 1004.2 2351.3 1057.2 2303.4 1081.3 Z" data-holc_grade="C"/>
<path d="M 2370.7 1129.5 2347.1 1087 2314.4 1103.6 2303.4 1081.3 2351.3 1057.2 2358.9 1053.9 2369.2 1074.4 2377.3 1069.8 2344.6 1005.1 2379.4 985.5 2392.1 1007.8 2409.9 998.1 2456.3 1085.4 2489 1152.9 2489.9 1162.9 2487.2 1176.7 2479.1 1184.6 2475.8 1195.4 2457 1218.3 2402.2 1114.4 2370.7 1129.5 Z" data-holc_grade="C"/>
<path d="M 2679.4 732.3 2727 704 2751.9 665.6 2782.1 634.7 2814.2 595.9 2825.1 586.8 2844 569.1 2862.5 563.8 2880.6 549.5 2887.1 540.8 2906.7 541.5 2919.6 539.6 2930.5 523.1 2939.2 502.3 2999 588.1 2983.5 610.3 2971.5 623.1 2955.2 636.7 2936 661.6 2921.2 678.6 2886.5 705.7 2856.7 728.3 2829.5 744.2 2807.5 753.2 2785.6 763.1 2742.6 791.7 2681.6 737.2 2679.4 732.3 Z" data-holc_grade="C"/>
</g>
<g id="D">
<path d="M 2296.9 1068.1 2303.4 1081.3 2314.4 1103.6 2347.1 1087 2370.7 1129.5 2212.9 1212.2 2175.3 1229.1 2148.1 1245.4 2127.8 1210.7 2146.6 1208.3 2133 1181.5 2075.5 1171 2063.4 1159.8 2049.7 1119.8 2141.7 1073.9 2244.5 1014.5 2266.6 1048.5 2280.2 1076.5 2296.9 1068.1 Z" data-holc_grade="D"/>
<path d="M 93.8 1902.3 113.5 1912.6 107.7 1925.3 143.4 1941.6 165.8 1955.5 184 1970.9 199.4 1988.1 213 2007.7 213.6 2023.1 214.8 2043 194.2 2044.5 186.6 2045.1 160.2 2055.9 139.9 2066.1 125.4 2077.6 110.5 2092 110.8 2098.4 101.1 2110.4 97.5 2113.7 77.5 2116.1 58.4 2114 36.9 2121.8 26 2125.7 19.7 2124.5 11.5 2108.5 5.5 2077.1 1 2043.3 1 2023.4 4.7 2003.2 12.6 2000.8 23.2 2000.8 38.9 2011.1 76.8 1935.5 93.8 1902.3 Z" data-holc_grade="D"/>
<path d="M 1012.4 742.9 973.7 727.3 944.2 772.5 928.3 805.2 915.4 826.3 950.6 843.6 909.7 881.6 907.9 887.3 886.7 871.5 847.3 911.4 796.7 872.5 788.8 864.3 757.4 842 738.9 814.5 692.4 770.8 738.2 752.8 749.5 740.4 788.1 686.2 843 616.5 866.8 574.8 874.7 593.6 886.5 608.3 896.7 614.3 909.9 623 924.6 636.2 937.8 643.7 997.5 680.2 1031.2 701.3 1026.6 714.9 1012.4 742.9 Z" data-holc_grade="D"/>
</g>
</svg>