<?xml version="1.0"?>
<svg xmlns="http://www.w3.org/2000/svg" version="1.2" baseProfile="tiny" width="2000" height="2289" viewBox="0 0 2000 2289" stroke-linecap="round" stroke-linejoin="round">
<g id="A">
<path d="M 626 443.6 614.3 420.7 598 419.2 597 407.2 597.3 363.5 549.3 360.9 550 345.4 551.7 337.9 551.7 326.8 547.9 320.7 707.3 322.1 695.4 351.3 674.4 352.1 673 357.4 674.4 361.4 683.1 372.8 684.9 377.2 668.8 383.6 669.8 388.5 667.7 395.8 665.3 399.3 665.3 410.6 678.2 410.9 679.3 442.7 667 445.3 651.3 448.2 647.7 449.1 637.2 440.3 626 443.6 Z M 734.7 255.5 728.8 256.2 687.5 309.1 522.4 309.1 523.6 275.6 522.4 257.2 526.5 243.6 530 237.8 500.2 224.2 468.7 234.4 320.3 218.8 297.5 168.4 351.9 142.7 504.9 138.8 527.7 90.3 534.1 88.3 599.5 82 624 74.3 638.7 87.4 699.4 190.7 734.7 255.5 Z" data-holc_grade="A"/>
<path d="M 597 407.2 598 419.2 614.3 420.7 626 443.6 641.4 479.4 638.6 484 643.3 485.6 643 486.1 636.8 497.6 628.8 501.1 619.5 504.6 612.9 510.4 602.7 520.9 554.5 517.4 545.6 514.7 532.6 498 523.2 491.8 516.2 490.2 514.3 468.1 481.6 466.9 487.2 406.4 597 407.2 Z" data-holc_grade="A"/>
<path d="M 878.8 395.5 880.1 405.7 852.1 407.8 811 412.5 811 408.6 808.9 400.8 808.9 394.6 802.1 395 795.3 397 794.9 373.5 818.6 373.2 828.7 374.1 836.9 372.3 852.6 358.5 862.8 357.4 870.6 354.3 878.5 393.1 878.8 395.5 Z" data-holc_grade="A"/>
<path d="M 888.5 309.6 886.2 303.8 887.6 299.1 901.2 294.1 914.2 283.2 928.3 274.7 931.4 269.2 934.9 280.4 933 287 916.2 297.3 908.7 303.1 904.1 302.1 902.7 311.1 888.5 309.6 Z" data-holc_grade="A"/>
<path d="M 1018.5 183.4 1002.2 165.9 1017.6 158.5 1038.6 149.2 1068 138 1072 136.6 1072.2 157.4 1018.5 183.4 Z" data-holc_grade="A"/>
<path d="M 973.5 149.2 968.5 150.8 956.4 162 949.8 169 931.1 182.2 913.9 191.5 879.3 94.5 891.9 98 922.2 103 951.7 105 973.5 149.2 Z" data-holc_grade="A"/>
<path d="M 1131.6 91.4 1119 106.5 1099.3 108.9 1072.7 115.9 1055 122.8 1035.8 131 1019.4 138.4 983.5 146.1 981.1 13.8 990.5 9.9 997.9 11.5 1012.4 25.4 1015.7 35.5 1021.3 37.5 1034.9 37.9 1046.5 49.5 1062.9 71.6 1079.7 73.2 1090.5 78.2 1094.7 83.6 1105 86.4 1114.8 89.1 1131.6 91.4 Z" data-holc_grade="A"/>
<path d="M 1075.2 763.3 1059.1 756.6 1064.4 738.9 1069.7 714 1064.2 711.7 1046.8 704.4 1019.1 705.3 1003.8 707.4 992.1 708.5 977.2 702.9 976.3 694.8 968.8 689.4 965.7 686.2 978.8 688.9 998.3 689.2 1007.3 687.9 1027.5 683.7 1040.5 683.1 1074.1 683.6 1076.2 683.6 1076 666.7 1078.6 664.5 1100.4 652.3 1110.4 648 1116.1 666.9 1120.3 681.4 1122.9 695.4 1121.8 715.1 1119.1 763.3 1084.7 763.1 1075.2 763.3 Z" data-holc_grade="A"/>
<path d="M 1698.1 904.2 1660.8 898.6 1657.8 890.7 1657.6 858.8 1698 873 1698.1 904.2 Z" data-holc_grade="A"/>
</g>
<g id="B">
<path d="M 735.5 322.5 716.9 358.9 695.4 351.3 707.3 322.1 735.5 322.5 Z M 726 308.8 687.5 309.1 728.8 256.2 734.7 255.5 753.4 253.5 752 280.9 726 308.8 Z" data-holc_grade="B"/>
<path d="M 653.5 665.9 648.6 641.6 643.2 613.2 646 601.5 649.8 601.5 690.5 583.3 691.9 622.7 700 628.1 699.7 651.4 675.1 666 653.5 665.9 Z" data-holc_grade="B"/>
<path d="M 849.6 668.4 840.1 672.3 834.8 674.2 822.9 678.7 832.8 693 830.1 693.5 825.1 693.4 829.3 712.5 830.8 721.9 788.7 723.1 787.1 721.4 787.3 718.3 786.9 709.4 786.1 666 823.7 666.5 796.5 621.9 820.3 621.6 849.6 668.4 Z" data-holc_grade="B"/>
<path d="M 830.8 721.9 831 723.6 830.6 726.9 831.6 731.4 829.5 739.3 826.7 745.8 800.7 783.6 794.3 790.9 789.7 794.8 780 798.8 769.3 803 760.7 803.3 755.8 801.6 748.1 798.5 742.7 797.4 741.4 793.5 733.5 776.5 729.6 758.8 723.4 744.3 723.1 723.9 693.2 723.5 693 711.3 786.9 709.4 787.3 718.3 787.1 721.4 788.7 723.1 830.8 721.9 Z" data-holc_grade="B"/>
<path d="M 1075.2 763.3 1073.6 783.7 1073.7 839.4 1073.7 841.3 1074 860.2 1066.3 860.4 1065.4 878 1032.9 878 1021.8 836.9 1016.7 814.1 1015.3 807.8 1012.2 786.3 1013.4 781.5 1015.7 776.4 1021 771.4 1032.2 764.7 1038 763 1042.3 762.7 1046.8 764.8 1051.2 765.1 1055.8 766.1 1051.1 759.8 1048.6 755.2 1047.1 749.3 1050.8 742.3 1036.5 742.4 1036.7 747.2 1033.5 750.1 1022.9 753.1 1009.4 761.5 1002.8 766.7 997.5 773.3 996.7 775.2 997.7 784.7 997.1 792.2 996.8 817.7 986.5 817.6 986.6 861.6 988.1 886.5 977.6 893.3 964 894.3 964.7 889.5 952.9 889.6 948.2 889.1 947.4 872.3 934.5 872.6 928.8 847.4 924.9 846.6 924.4 841.2 911 841.3 901.3 840.9 909.9 827.4 886.7 823.3 876.9 841.3 868.5 839.4 864.4 832.8 862.4 823.1 862 810.8 863.7 803.6 880.8 803.9 896.9 803.9 898 791 920.5 791.5 920.5 785 965.9 750.1 968 747.7 967.9 737.1 895.4 736 888.7 722.7 890.6 711.1 888.1 692.5 891.4 691.3 894.1 678.4 901.3 665.4 915.5 652.9 916.3 659.3 964.7 685.2 965.7 686.2 968.8 689.4 976.3 694.8 977.2 702.9 992.1 708.5 1003.8 707.4 1019.1 705.3 1046.8 704.4 1064.2 711.7 1069.7 714 1064.4 738.9 1059.1 756.6 1075.2 763.3 Z" data-holc_grade="B"/>
<path d="M 1390.1 1026.4 1389.2 1016.9 1383.4 1014.6 1362.3 1004.8 1338 991.1 1322.1 981.5 1259.1 980.7 1258.2 966.7 1208.6 965.9 1164.2 965.2 1086.7 964.3 1088 940 1108.4 915.3 1128.5 888.6 1167.1 833.5 1200.4 788.6 1206.7 780 1175.8 769.2 1172.9 760.8 1183.5 759.1 1189.6 756 1198.9 736.2 1223.2 730.8 1230.3 729.2 1249.9 726.9 1259.7 724.9 1259.2 733.1 1262 746.3 1267.2 756.8 1271.8 764.5 1266.7 768.4 1266.7 775.8 1267.2 785.1 1266.2 809.6 1261.1 818.5 1275.1 827.1 1256 846.9 1255 856.6 1256 865.5 1255.5 872.9 1250.3 879.1 1239.6 883.4 1236.3 888.1 1229.8 924.9 1233.1 939.3 1246.6 941.7 1252.7 933.1 1261.6 927.3 1270.4 921.5 1276 911 1282.6 905.9 1289.6 906.3 1298.9 912.9 1305 913.7 1304.6 906.7 1304.6 898.5 1301.3 893.9 1303.1 886.9 1308.8 886.1 1314.8 884.9 1315.8 879.9 1306.9 875.2 1305 872.1 1308.8 868.6 1312 865.9 1308.8 861.6 1303.6 858.5 1308.8 845.3 1302.2 835.2 1348.5 835.6 1363.9 862.4 1352.7 877.6 1336.8 880.7 1304.6 938.5 1380.7 936.2 1398.9 949.4 1399.4 1001.5 1424.6 1001.9 1432.6 1016 1401.5 1021.7 1390.1 1026.4 Z" data-holc_grade="B"/>
<path d="M 1320.1 813.6 1319 805.4 1344.1 803.4 1384.4 785 1385 782.1 1384.3 778.8 1396.5 771.5 1414.8 763.7 1419.8 761.7 1426.2 762 1430.5 763.1 1430.8 778.9 1431.8 798.2 1402.4 799.8 1401.7 802.9 1384.1 802.4 1385.1 817 1372.9 820.1 1365.2 822.3 1322.6 821.7 1320.1 813.6 Z" data-holc_grade="B"/>
<path d="M 1390.1 1026.4 1370.5 1034.7 1365.8 1030.1 1352.7 1035 1342.8 1037.7 1335.7 1037 1325 1036.9 1293.9 1034.3 1294 1026 1292.4 987.1 1259.7 987.1 1259 993.4 1224.4 993 1224.7 1030.8 1196 1030.6 1196.7 1012.5 1207.9 1012 1208.6 965.9 1258.2 966.7 1259.1 980.7 1322.1 981.5 1338 991.1 1362.3 1004.8 1383.4 1014.6 1389.2 1016.9 1390.1 1026.4 Z" data-holc_grade="B"/>
<path d="M 1547.5 870.3 1529.7 857.7 1478.3 885.8 1503.1 898.6 1510.4 917.3 1494.7 930.5 1451.2 931.6 1450.1 888.9 1498.7 831.4 1501.2 827.6 1541.9 855.5 1561.8 867.6 1569.5 873 1560.8 878.4 1547.5 870.3 Z" data-holc_grade="B"/>
<path d="M 1615.5 840.6 1605.9 856.7 1582.1 865.8 1566 853.8 1566.2 837.5 1557.3 836.9 1557.8 807.9 1547.5 806.8 1546.3 780.8 1559.9 781.1 1559.9 793.6 1615.5 840.6 Z" data-holc_grade="B"/>
<path d="M 1698.1 904.2 1710.6 906 1709 926.2 1673.2 929.5 1667.6 915.5 1660.8 898.6 1698.1 904.2 Z" data-holc_grade="B"/>
<path d="M 643 486.1 643.3 485.6 638.6 484 641.4 479.4 626 443.6 637.2 440.3 647.7 449.1 651.3 448.2 667 445.3 679.3 442.7 678.2 410.9 665.3 410.6 665.3 399.3 667.7 395.8 669.8 388.5 668.8 383.6 684.9 377.2 683.1 372.8 674.4 361.4 673 357.4 674.4 352.1 695.4 351.3 695.8 411.5 699.3 412.7 707.3 413 707.7 462.2 677.9 464.5 670.9 484.9 672.6 486.3 667.7 493.6 643 486.1 Z" data-holc_grade="B"/>
<path d="M 1714.9 1001.4 1742.8 1020 1747.7 1027.8 1739.8 1029.7 1694.5 999.8 1669.2 1013.4 1668.3 1033 1666.9 1064.3 1654.3 1064.7 1646.3 1066.7 1640.4 1066.5 1638.4 1046.1 1637.8 1034.5 1647.4 1034 1647.1 1020.6 1634.6 1020.6 1634.6 1007 1656.2 1007.3 1656.2 999 1690.9 986.6 1714.9 1001.4 Z" data-holc_grade="B"/>
<path d="M 1551 1196.2 1535.6 1204.7 1535.6 1213.7 1522.7 1213.9 1522.1 1205.2 1497.6 1203.7 1497.3 1174.6 1501.4 1169.2 1533.2 1153.2 1550.2 1152.9 1551 1196.2 Z" data-holc_grade="B"/>
<path d="M 500.5 1508.5 500.7 1480.8 536.3 1480.8 545.3 1489.1 545.7 1508.9 500.5 1508.5 Z" data-holc_grade="B"/>
<path d="M 390.5 1539.7 393.4 1539.8 391.4 1615.9 381.6 1615.9 371 1615.8 353.5 1590.2 340.9 1551.2 353.8 1547.8 350.3 1539.4 390.5 1539.7 Z" data-holc_grade="B"/>
<path d="M 302.9 1290.4 300.9 1319.9 292.4 1314.4 280.2 1326 331.7 1356.3 321.9 1366 294.2 1349.6 150.9 1347.3 151.6 1328.9 217.8 1329.2 235.3 1301.3 276 1301 275.6 1289 302.9 1290.4 Z" data-holc_grade="B"/>
<path d="M 150.5 1308.3 112.2 1307.7 111.7 1292.3 110.8 1285.5 112.9 1261.4 159.9 1261.6 160.3 1252.5 172.7 1252.3 172.7 1264.7 182.5 1272.5 183.7 1291.5 170.1 1294.1 170.1 1308.6 150.5 1308.3 Z" data-holc_grade="B"/>
<path d="M 656.2 903.1 656.2 939.9 640.8 939.9 639.3 936.5 638.6 932.9 639 929.5 636.6 926.7 632.1 925.2 626.8 926.1 622 927.8 615.5 931.2 615.5 931.1 594.4 931.3 594.7 902 656.2 903.1 Z" data-holc_grade="B"/>
<path d="M 51.5 2006.1 81.4 2006.4 82.8 2027.4 95.4 2027.4 96.3 2040.3 1 2040.7 1.5 2004.5 51.5 2006.1 Z" data-holc_grade="B"/>
<path d="M 219.4 1812 220.2 1803.2 233.7 1802.2 245.4 1800.8 246.5 1789.4 264.3 1789.8 264.3 1800.8 323.1 1802 323.9 1814.1 299.4 1815.4 298.8 1833.8 247.1 1834.1 248 1826.8 234.6 1830.7 234.3 1813.7 219.4 1812 Z" data-holc_grade="B"/>
<path d="M 739.2 494.8 716.4 495.4 717.5 461.9 707.7 462.2 707.3 413 712.1 413.3 712.1 408.7 724.6 408.2 789.5 408.4 790.3 418.1 790.3 439 787.7 456.9 785.7 485.3 785.4 500.9 775.1 497.7 762 489.9 757 483.1 757.9 474.9 740.7 474.6 739.2 494.8 Z" data-holc_grade="B"/>
<path d="M 818.6 373.2 794.9 373.5 795.3 397 802.1 395 808.9 394.6 808.9 400.8 811 408.6 789.5 408.4 724.6 408.2 723.9 392.1 727.1 385.4 743.2 366.2 753 352.5 769.5 351.9 767.7 365 818.6 367.4 818.6 373.2 Z" data-holc_grade="B"/>
<path d="M 878.8 395.5 878.5 393.1 870.6 354.3 862.8 357.4 852.6 358.5 836.9 372.3 828.7 374.1 829.1 362.4 844.1 354.6 856.1 350.2 855.4 323.2 886.2 323 886.9 349 908.2 340.3 913.8 343.4 914.9 346.3 886.7 376 892 394.6 885 395.4 878.8 395.5 Z M 877.3 218.8 891.1 230.9 932.5 267.3 931.4 269.2 928.3 274.7 914.2 283.2 901.2 294.1 887.6 299.1 886.2 303.8 888.5 309.6 838.2 311.2 820.7 304.5 800.7 297.5 799.6 287 841.7 263.7 857.8 291.7 873.2 285.9 855.7 247.1 814 265.5 794.4 240.7 753 172.6 770.9 160.7 840.9 190.1 869.9 232.4 877.3 218.8 Z" data-holc_grade="B"/>
<path d="M 1072 136.6 1068 138 1038.6 149.2 1017.6 158.5 1002.2 165.9 1018.5 183.4 1044.7 188.4 1030.2 213.6 988.6 196.2 948.9 210.2 942.3 203.9 923.7 211.3 905.4 217.5 891.1 230.9 877.3 218.8 894.7 202.8 899.4 199.3 913.9 191.5 931.1 182.2 949.8 169 956.4 162 968.5 150.8 973.5 149.2 983.5 146.1 1019.4 138.4 1035.8 131 1055 122.8 1072.7 115.9 1099.3 108.9 1119 106.5 1131.6 91.4 1129.3 75.9 1112 56.1 1102.6 44.5 1102.6 35.5 1102.2 27.4 1093.7 23.5 1089.5 22.3 1083.9 16.1 1072.2 11.9 1072.2 2.2 1090.9 1 1113.4 24.7 1124.6 47.2 1143.7 92.6 1110.6 128.3 1099.3 125.9 1080.7 133.7 1072 136.6 Z" data-holc_grade="B"/>
<path d="M 935.8 94.9 881.6 72.8 846.1 54.2 854.5 41 901.2 49.9 904 16.5 946.5 49.9 935.8 94.9 Z" data-holc_grade="B"/>
<path d="M 493.5 597.9 493.4 586.2 478.9 589.7 474 593.3 460.3 592.6 453.7 585.4 450.1 580.9 445.3 575 439.8 571.6 431.3 555.4 427 546.9 422.3 538.7 421.1 531.7 496.4 535.7 495.8 561.2 553.5 560.7 592.2 594.5 579.8 607.3 535 586.8 493.5 597.9 Z" data-holc_grade="B"/>
<path d="M 594.3 608.8 619.6 619.7 626.7 643.4 628.9 649.1 634 671.4 635.8 677.1 639 697 614 711.3 600.7 669.4 590.2 634.6 594.3 608.8 Z" data-holc_grade="B"/>
</g>
<g id="C">
<path d="M 769.2 325.2 796.1 325.2 822.1 326.3 823.5 332.7 825.2 339.7 824.2 344.4 826.3 352.8 844.1 354.6 829.1 362.4 828.7 374.1 818.6 373.2 818.6 367.4 767.7 365 769.5 351.9 753 352.5 743.2 366.2 727.1 385.4 723.9 392.1 724.6 408.2 712.1 408.7 712.1 413.3 707.3 413 699.3 412.7 695.8 411.5 695.4 351.3 716.9 358.9 735.5 322.5 752.3 323.1 739.7 349.3 754.4 350.2 769.2 325.2 Z M 838.2 311.2 784.2 310.3 781.4 306.2 780.4 299.2 779.7 283.2 761.4 283.5 755.5 293.1 753.7 297.8 758.3 310.3 726 308.8 752 280.9 753.4 253.5 754.8 231.7 727.4 191.5 727.8 140.6 741.5 140.3 770.6 140.6 770.9 160.7 753 172.6 794.4 240.7 814 265.5 855.7 247.1 873.2 285.9 857.8 291.7 841.7 263.7 799.6 287 800.7 297.5 820.7 304.5 838.2 311.2 Z" data-holc_grade="C"/>
<path d="M 888.1 692.5 890.6 711.1 888.7 722.7 895.4 736 899.5 744 898 750.7 899 772.5 898.5 784.4 898 791 896.9 803.9 880.8 803.9 880.9 739.4 875.2 730.5 871.7 724.7 881.4 724.1 882.5 716 881.6 711.8 883.1 705.4 857.4 704.8 834.8 674.2 840.1 672.3 849.6 668.4 863.8 691 888.1 692.5 Z" data-holc_grade="C"/>
<path d="M 976.4 933.7 934 935 930.5 908.2 930.1 895.4 928.4 865.5 914.3 864.7 909 859.4 901.3 852.6 887.4 851.6 880.2 850.4 874.7 848.8 868.5 839.4 876.9 841.3 886.7 823.3 909.9 827.4 901.3 840.9 911 841.3 924.4 841.2 924.9 846.6 928.8 847.4 934.5 872.6 947.4 872.3 948.2 889.1 952.9 889.6 964.7 889.5 964 894.3 977.6 893.3 976.4 933.7 Z" data-holc_grade="C"/>
<path d="M 1032.9 878 1027.6 877.8 1029.1 884 1037.5 905.3 1037.1 932.3 976.4 933.7 977.6 893.3 988.1 886.5 986.6 861.6 986.5 817.6 996.8 817.7 997.1 792.2 997.7 784.7 996.7 775.2 997.5 773.3 1002.8 766.7 1009.4 761.5 1022.9 753.1 1033.5 750.1 1036.7 747.2 1036.5 742.4 1050.8 742.3 1047.1 749.3 1048.6 755.2 1051.1 759.8 1055.8 766.1 1051.2 765.1 1046.8 764.8 1042.3 762.7 1038 763 1032.2 764.7 1021 771.4 1015.7 776.4 1013.4 781.5 1012.2 786.3 1015.3 807.8 1016.7 814.1 1021.8 836.9 1032.9 878 Z" data-holc_grade="C"/>
<path d="M 1088 940 1036.6 939.5 1037.1 932.3 1037.5 905.3 1029.1 884 1027.6 877.8 1032.9 878 1065.4 878 1066.3 860.4 1074 860.2 1073.7 841.3 1083.8 840.9 1134.1 842.9 1145.3 831 1156.1 816.8 1162.7 799.8 1168.7 786.2 1140.3 776.1 1143.5 766.5 1172.9 760.8 1175.8 769.2 1206.7 780 1200.4 788.6 1167.1 833.5 1128.5 888.6 1108.4 915.3 1088 940 Z" data-holc_grade="C"/>
<path d="M 934 935 976.4 933.7 1037.1 932.3 1036.6 939.5 1088 940 1086.7 964.3 1071.6 963.9 1071.3 978.1 1070.3 1017.5 1062.3 1017.9 1033.6 1041.2 1045.9 1050.4 1062.8 1038.2 1068 1038.3 1067.1 1073.8 1047.9 1086.2 1025.4 1101.9 1011.4 1113.4 991.2 1110.6 987.5 1099.5 985.9 1087.8 984.4 1063.5 987.8 1061.6 981.2 1051.1 974.6 1036.6 968.2 1010.5 959.9 1006.4 940.1 992.1 931.2 984.1 927.2 985.3 931.5 972.5 934 952.7 934 935 Z" data-holc_grade="C"/>
<path d="M 1086.7 964.3 1164.2 965.2 1163.4 1030.3 1196 1030.6 1224.7 1030.8 1224.4 993 1259 993.4 1259.9 1025 1294 1026 1293.9 1034.3 1325 1036.9 1335.7 1037 1342.8 1037.7 1352.7 1035 1365.8 1030.1 1370.5 1034.7 1390.1 1026.4 1401.5 1021.7 1432.6 1016 1450.1 1012.8 1450.8 1025.7 1429.5 1027.4 1402.4 1030.2 1390.9 1032.8 1346.5 1058.4 1343.7 1056.2 1325.2 1066.6 1312.2 1071.4 1301.5 1073.8 1298.1 1074.5 1286 1072 1266.1 1064.3 1252.2 1059.5 1242.4 1054.3 1237.6 1052.4 1230.9 1051.4 1222.1 1049.4 1208.7 1047.6 1190.6 1047.4 1184.4 1047.9 1141 1055.6 1111.4 1061.3 1095.5 1065.7 1092.2 1066.5 1078.2 1068 1067.1 1073.8 1068 1038.3 1075.6 1038 1075.8 1036.1 1076.6 1017.6 1070.3 1017.5 1071.3 978.1 1071.6 963.9 1086.7 964.3 Z" data-holc_grade="C"/>
<path d="M 1384.3 778.8 1385 782.1 1384.4 785 1344.1 803.4 1319 805.4 1320.1 813.6 1305 814.1 1302 808.8 1299.7 806.8 1298 803.4 1281.3 809.5 1282.2 819.5 1275.1 827.1 1261.1 818.5 1266.2 809.6 1267.2 785.1 1266.7 775.8 1266.7 768.4 1271.8 764.5 1274.3 774.8 1277.8 778.7 1283.9 784.5 1289.2 791.8 1293.3 795.7 1299.4 797.1 1307.6 798.1 1345.3 795.2 1346.7 749.3 1358.7 746.9 1358.4 781.3 1382.6 770.9 1384.3 778.8 Z" data-holc_grade="C"/>
<path d="M 1401.7 802.9 1403.9 840 1388 847.1 1364.9 847 1365.2 822.3 1372.9 820.1 1385.1 817 1384.1 802.4 1401.7 802.9 Z" data-holc_grade="C"/>
<path d="M 1557.3 836.9 1566.2 837.5 1566 853.8 1582.1 865.8 1605.9 856.7 1615.5 840.6 1619.7 844.4 1613.6 876.7 1602.4 879.4 1601.7 906.6 1614.6 907.4 1615.3 917.5 1640 917.7 1639.6 902.5 1648 902.7 1651 915.7 1667.6 915.5 1673.2 929.5 1709 926.2 1710.6 906 1718.8 905.2 1719 890.9 1715 870.7 1723.7 869.5 1733.7 865.8 1739.6 890.5 1753.1 891.2 1751.2 916.1 1750.6 919 1749.4 925 1721.1 936.9 1721.1 935.7 1715 931.3 1707.8 931.6 1673.2 949.7 1613.6 949.5 1613.2 920.4 1586.3 919.2 1556.1 920.8 1555.1 926.4 1523.3 928.4 1519.7 927.8 1517.8 890.9 1534.2 890.9 1547.5 870.3 1560.8 878.4 1569.5 873 1561.8 867.6 1541.9 855.5 1501.2 827.6 1498.7 831.4 1487.5 824.8 1473 803.7 1478.1 795.7 1488.2 780.6 1501.2 780.9 1499.6 797.6 1498.4 810.3 1557.1 846.6 1557.3 836.9 Z" data-holc_grade="C"/>
<path d="M 1920.1 1038.5 1843.9 1036.8 1847.1 970.5 1825.5 969.6 1817.6 932.9 1865.8 928.3 1882.2 913.7 1924.2 912.7 1920.1 1038.5 Z" data-holc_grade="C"/>
<path d="M 1087.2 159.7 1112.9 148.4 1129.7 140.7 1142.3 133.7 1155 124 1175.5 99.2 1186.7 74.7 1203.1 72.4 1220.8 68.1 1241.4 71.2 1242.8 84.4 1230.2 105 1209.2 142.6 1176.9 184.9 1085.3 185.7 1087.2 159.7 Z" data-holc_grade="C"/>
<path d="M 1700.9 966.5 1714.9 1001.4 1690.9 986.6 1656.2 999 1656.2 1007.3 1634.6 1007 1634.6 1020.6 1647.1 1020.6 1647.4 1034 1637.8 1034.5 1638.4 1046.1 1640.4 1066.5 1646.3 1066.7 1650.3 1072.3 1626.7 1073.3 1634.6 1089.8 1550.2 1089.1 1550.2 1072.6 1527.4 1073.5 1534.7 1064.6 1537.9 1054.6 1516.3 1018.9 1512.8 1017.5 1486.8 1027.7 1502.3 1057 1503 1059.9 1476.7 1064.3 1460.9 1064.5 1456.5 1054.3 1454.7 1041.5 1450.8 1025.7 1474.5 1020.9 1474.1 1015.2 1568.6 981.3 1568.6 986.1 1617.9 969.4 1623.1 973.4 1598 982.3 1594.9 982.9 1596.1 998.8 1609 1005.8 1608.7 1011.7 1625.8 1012.4 1627.3 976.7 1637.5 976.7 1654.4 969.9 1662 977.6 1700.9 966.5 Z" data-holc_grade="C"/>
<path d="M 1492.3 975.2 1482.4 976.9 1483 986.6 1471.6 987.1 1473.9 1013.3 1474.1 1015.2 1474.5 1020.9 1450.8 1025.7 1450.1 1012.8 1449.4 967.2 1492.3 967 1492.3 975.2 Z" data-holc_grade="C"/>
<path d="M 1550.2 1089.1 1550.2 1152.9 1533.2 1153.2 1501.4 1169.2 1497.3 1174.6 1497.6 1203.7 1522.1 1205.2 1522.7 1213.9 1535.6 1213.7 1535.6 1204.7 1551 1196.2 1648.3 1196.4 1664.4 1235.5 1598.9 1233.1 1598.6 1228 1450.6 1227 1451.5 1205.4 1415 1205.9 1416.4 1177.6 1431.5 1166.8 1446.5 1145.8 1460.2 1134.8 1505.8 1116.1 1513.5 1110.9 1519.8 1091.9 1530 1091.3 1550.2 1072.6 1550.2 1089.1 Z" data-holc_grade="C"/>
<path d="M 1233.5 1125.6 1254.9 1126.1 1291.8 1144.8 1291.3 1120.9 1292.7 1085.9 1307 1085.9 1324.6 1081.3 1345.6 1071.7 1353.3 1067.3 1351.7 1065.4 1358.6 1063.1 1361.4 1083.5 1371.2 1083.5 1371.5 1071 1395 1066 1393.6 1054.1 1402.4 1036.9 1439.2 1035.4 1439.9 1065.1 1460.9 1064.5 1476.7 1064.3 1503 1059.9 1514.5 1080.3 1515.2 1092.2 1519.8 1091.9 1513.5 1110.9 1505.8 1116.1 1460.2 1134.8 1446.5 1145.8 1431.5 1166.8 1416.4 1177.6 1415 1205.9 1233.8 1203.2 1233.5 1125.6 Z M 1444.4 1124.9 1446.6 1071 1404.4 1071 1402.7 1099.8 1392.4 1102.5 1391.1 1125.7 1444.4 1124.9 Z" data-holc_grade="C"/>
<path d="M 1164.1 1276.5 1072.1 1275.5 1070.4 1271.1 1063.3 1270.9 1060.5 1245.5 1056.6 1212 1072 1206.2 1095.5 1207.7 1096.2 1205 1094.5 1198 1094.8 1188.4 1073.1 1191.3 1067.1 1192.5 1069.2 1182 1065.7 1180.8 1064 1148.5 1048.2 1147.9 1047.9 1136.8 1042.6 1126.4 1042.3 1113.2 1069.9 1091.7 1071.5 1097.5 1078.8 1096.8 1078.5 1106.7 1117.4 1107.2 1116 1097.2 1128.2 1096.2 1127.5 1076.6 1146 1077.4 1146.7 1123.2 1144.8 1126.9 1150.7 1125.5 1154.2 1172 1152.1 1175.4 1138.3 1178.8 1138.8 1185.2 1169.8 1175.6 1173.7 1174.4 1172.9 1195.4 1171.1 1203.9 1169.7 1236.9 1184.5 1237.4 1186.3 1275.3 1184 1276.7 1164.1 1276.5 Z" data-holc_grade="C"/>
<path d="M 1164.1 1276.5 1164.1 1318.5 1139.3 1316.3 1129.3 1316.5 1117.4 1317 1117.7 1351 1077.9 1352.7 1076.2 1486.8 1007.3 1483.4 1020.4 1463.7 1023.9 1453.5 1015.4 1429.7 1025.4 1420 1025.4 1411.3 1019.5 1406.2 999.4 1405.7 989.2 1403.5 966.1 1401.6 965.8 1374.4 988 1374.1 988 1343.3 996.8 1337.2 1031.5 1337.9 1031.5 1312.9 1009.9 1311.2 1011.7 1279.7 1014.9 1279.6 1035.2 1275.9 1063.3 1270.9 1070.4 1271.1 1072.1 1275.5 1164.1 1276.5 Z" data-holc_grade="C"/>
<path d="M 919.6 1256.6 919.9 1296.2 921.3 1299.7 970.4 1301.5 946.2 1363 916.8 1363.6 909.4 1404.1 858.6 1404.1 858.2 1393.9 828.1 1394.2 827.1 1391.2 788.2 1390.7 788.2 1407 774.8 1407 774.5 1385.1 769.9 1384 769.9 1376.4 697.7 1375.5 697.4 1365 812.3 1366.2 814.4 1254 919.6 1256.6 Z M 831.6 1262.6 832.3 1370.2 880 1369.6 882.4 1353.9 880 1335.8 882.8 1318.3 882.4 1304.6 867.7 1304 867.3 1261.2 831.6 1262.6 Z" data-holc_grade="C"/>
<path d="M 742.8 1454.3 795.6 1453.8 794.9 1466.8 831 1469.5 830.8 1482.4 851.7 1483.6 908.2 1483.8 900.6 1506.5 899.1 1524.7 907.7 1525.5 915.2 1527.2 913.1 1546.7 898 1542.1 897.5 1537.5 898.3 1530.5 890.2 1530.6 890.8 1523.7 881.6 1526 843.1 1526.1 810.7 1507.3 776.8 1487.2 770.6 1476.1 743 1458.9 742.8 1454.3 Z" data-holc_grade="C"/>
<path d="M 806.1 1607 803.5 1604.4 799.8 1607.2 782.1 1590.1 785.6 1588.7 783.2 1586.1 799.5 1577.7 813.4 1588 820.5 1592.4 813 1597.9 815.6 1601 806.1 1607 Z" data-holc_grade="C"/>
<path d="M 725.7 1582.9 751.8 1577.3 748.5 1565.7 742.9 1549.2 732.7 1522.2 743.9 1519.9 737.6 1500.5 750 1496.4 752.8 1497.1 761.9 1496.5 772.2 1498.5 781.1 1519.9 780.1 1536.4 780.9 1545.8 783.1 1553.2 788.8 1562.5 769.8 1571 770.7 1592 778.2 1612.6 793.6 1616.1 790.9 1617.9 802.1 1633.3 762.3 1644.4 750.4 1648.7 741.7 1647.3 736.2 1646.9 730.5 1647.3 725.1 1649.3 720.7 1649.5 719.5 1642.1 719.2 1630.4 720.2 1621.8 699.5 1622 699 1603 724.3 1603.1 725.7 1582.9 Z" data-holc_grade="C"/>
<path d="M 672.6 486.3 670.9 484.9 677.9 464.5 707.7 462.2 717.5 461.9 716.4 495.4 739.2 494.8 743.4 495.1 745.5 510.2 751.1 513.4 749.4 552.1 714 563.5 646 553.9 625.3 552.1 656.2 515.2 679.3 519.2 685.9 510.2 690.9 505 702.1 473.2 689.1 473 684.5 487.8 672.6 486.3 Z" data-holc_grade="C"/>
<path d="M 246.5 1789.4 245.4 1800.8 233.7 1802.2 220.2 1803.2 219.4 1812 216.5 1813.7 184.2 1806.9 190.8 1796.6 201.8 1781.3 209.1 1770.4 178.5 1769.9 181.1 1759.5 198.6 1759 198.6 1689 205.1 1690.5 290.3 1691.4 290.9 1698.7 289.2 1706 281.9 1719.6 272.2 1731.3 265.2 1737.1 250.6 1744.4 232.8 1757 220.2 1767.5 217 1771.1 229.6 1782.1 241.6 1789.4 246.5 1789.4 Z M 285.9 1673 285.5 1680.2 195.8 1677.6 195.1 1671.5 285.9 1673 Z" data-holc_grade="C"/>
<path d="M 391.4 1615.9 390.7 1631.6 298.3 1630.7 299.4 1612.9 322.1 1613.4 323.2 1588.4 328.1 1573.8 314.4 1555.4 327 1526.7 390.5 1527.9 390.5 1539.7 350.3 1539.4 353.8 1547.8 340.9 1551.2 353.5 1590.2 371 1615.8 381.6 1615.9 391.4 1615.9 Z" data-holc_grade="C"/>
<path d="M 500.7 1480.8 500.5 1508.5 500.2 1541.1 393.4 1539.8 390.5 1539.7 390.5 1527.9 390.8 1504.6 363.4 1504.1 364.1 1483.7 395.3 1484.7 396.2 1455.4 447 1456.3 447 1471.4 489.1 1472.3 494.1 1472.6 500.8 1472 500.7 1480.8 Z" data-holc_grade="C"/>
<path d="M 524.8 1395.3 519.7 1395.2 497.6 1395.6 497.6 1415.7 524.9 1415.6 525.1 1442.5 525 1452.9 464 1452 439.7 1415.7 438.2 1412.6 437.9 1407.1 422.4 1395.4 431.2 1379.4 439.2 1366.9 469.1 1366.7 467.9 1329.8 491.5 1329.6 492.7 1371.5 524.1 1371.9 524.8 1395.3 Z M 454.7 1425.7 459 1429.5 464 1425.6 462.1 1423.6 457.7 1417.4 452.5 1417.5 454.2 1419.8 451.5 1419.8 453.2 1423.2 454.7 1425.7 Z" data-holc_grade="C"/>
<path d="M 331.7 1356.3 396.7 1397.7 342.7 1442.9 336.4 1442.9 336.1 1444.7 316.1 1500.1 318.9 1502.1 311.9 1526.9 266.3 1525.7 267.7 1510 267 1489.9 297.9 1491.6 298.2 1468.9 241.1 1468.9 242.8 1437.1 291.9 1438 294.2 1349.6 321.9 1366 331.7 1356.3 Z" data-holc_grade="C"/>
<path d="M 423.5 1301 421.8 1347.3 408.5 1347.3 408.1 1358.4 430.2 1358.4 432.3 1358.2 430.2 1361 427.5 1364.9 423.2 1367.5 420.9 1369 416.2 1370.6 394.8 1373.5 364.6 1356 300.9 1319.9 302.9 1290.4 342.2 1292.5 341.7 1226 341.7 1225.2 397.4 1224.4 398.8 1224.3 397.9 1244.1 435.8 1244.7 446.7 1257.5 454 1258.1 420 1286.7 383.9 1286.7 383.6 1301 423.5 1301 Z" data-holc_grade="C"/>
<path d="M 277.4 1203.4 341.5 1207.7 341.7 1225.2 341.7 1226 342.2 1292.5 302.9 1290.4 275.6 1289 276 1301 235.3 1301.3 217.8 1329.2 151.6 1328.9 150.5 1308.3 170.1 1308.6 170.1 1294.1 183.7 1291.5 182.5 1272.5 172.7 1264.7 172.7 1252.3 176.8 1219.9 159.3 1202.7 139.3 1185 128.4 1173 121.8 1171 109.2 1172.2 111.3 1146.2 142.5 1138.6 144.6 1146.8 154.4 1149.4 154 1158.7 163.5 1159.6 167.3 1157.9 172.6 1152 184.5 1148.8 197.1 1147.1 208.7 1145.3 218.2 1142.1 215.7 1202.5 276.7 1203.3 277.4 1203.4 Z" data-holc_grade="C"/>
<path d="M 309.6 950.7 312.4 964.8 290.4 965.8 288.3 1001.4 258.6 1003.7 172.9 1002.8 126.8 1003.9 122.9 1003.7 121 1003 122.6 965.9 110.4 965.4 111.3 931.4 111.1 914.7 111.8 885.4 143 886.2 142.3 910.9 177 907.6 209.2 900.4 208.8 920.5 226 920.4 226.4 950.4 309.6 950.7 Z" data-holc_grade="C"/>
<path d="M 493.5 597.9 493.7 607.5 452.1 607 452.1 606.3 452 595.5 425.2 594.8 426.9 556.5 426.6 552.5 422.3 538.7 427 546.9 431.3 555.4 439.8 571.6 445.3 575 450.1 580.9 453.7 585.4 460.3 592.6 474 593.3 478.9 589.7 493.4 586.2 493.5 597.9 Z" data-holc_grade="C"/>
<path d="M 441 2108.3 482.7 2132.8 455.4 2172.5 409.5 2171.6 408.8 2143.3 409.5 2143.3 427 2122.6 441 2108.3 Z" data-holc_grade="C"/>
<path d="M 646 601.5 643.2 613.2 648.6 641.6 653.5 665.9 641 666.1 640.7 673.6 641.6 681.3 643.8 687.4 646.7 692 639 697 635.8 677.1 634 671.4 628.9 649.1 626.7 643.4 619.6 619.7 594.3 608.8 585.8 605.1 594.2 597.6 606.1 588.1 617.1 581.9 630.5 577 642.7 581.6 650.7 581.8 646 601.5 Z" data-holc_grade="C"/>
<path d="M 411.3 2028.7 412 1990.7 525.2 1990.2 526.9 2013.2 518.5 2013.2 497.1 2061 467.3 2050 455.4 2062.5 430.5 2085.2 378.3 2086.1 375.2 2026.9 415.5 2038.9 411.3 2028.7 Z" data-holc_grade="C"/>
<path d="M 160.1 2137.9 160.8 2170.2 121.6 2169.8 120.6 2191.6 99.1 2192 99.1 2288.1 59.9 2286.9 60.8 2227.8 83.2 2214.9 83.7 2164 54.7 2164.4 53.8 2167.9 51.5 2167.9 11.3 2167.9 11.3 2145.3 63.6 2144.1 62.2 2116.9 85.6 2114.6 85.1 2108.7 87 2100.6 91.7 2090.8 37 2091.6 36 2059 1.9 2059 1 2040.7 96.3 2040.3 95.4 2027.4 82.8 2027.4 81.4 2006.4 51.5 2006.1 51.5 1987.8 131.4 1987.8 126.7 2008.4 140.3 2008 140.7 2023.6 186.5 2024.3 187.4 2104.8 159.4 2104.8 160.1 2137.9 Z" data-holc_grade="C"/>
<path d="M 293 1862.5 269.6 1876.1 191.3 1875.1 210 1853 293 1850.4 293 1862.5 Z M 118.6 1776.8 129.8 1792.4 135.4 1794.7 141.9 1803.6 150.3 1811.8 161.6 1820.4 172.8 1824.6 153.2 1851.5 141 1869.7 134.9 1888.4 121.4 1885.7 117.6 1888.8 113.9 1906.7 131.2 1909 128.4 1922.6 145.2 1924.6 125.6 1975.9 137.3 1977.1 131.4 1987.8 51.5 1987.8 51.3 1928.1 77.5 1927.3 78.4 1911.7 88.7 1907.5 91 1879.9 48.9 1879.5 48.9 1855.4 92.4 1852.2 90.5 1814.5 55 1815.7 53.6 1799 55.5 1775.6 41.9 1776 40.5 1758.5 39.6 1739.9 57.8 1737.5 98.5 1739.5 103.6 1767.9 112.5 1767.1 118.6 1776.8 Z" data-holc_grade="C"/>
<path d="M 882.2 631.7 883.2 576.4 892.7 577.2 901.6 581 908.2 583.1 914.6 585.1 915.5 586.1 913.8 607.4 910.3 613.8 911.4 616.1 913.2 629.9 905.5 635.2 882.2 631.7 Z" data-holc_grade="C"/>
<path d="M 693 711.3 693.2 723.5 723.1 723.9 723.4 744.3 729.6 758.8 733.5 776.5 741.4 793.5 742.7 797.4 748.1 798.5 755.8 801.6 760.7 803.3 769.3 803 780 798.8 789.7 794.8 794.3 790.9 800.7 783.6 826.7 745.8 829.5 739.3 831.6 731.4 830.6 726.9 831 723.6 830.8 721.9 829.3 712.5 825.1 693.4 830.1 693.5 832.8 693 850.9 721.6 854.7 730.8 854.6 734.5 850.4 738.1 852.4 749.3 852.7 753.6 830.5 760.8 820.2 772 807.8 791.6 796.7 800.4 792.3 805 787.2 813.1 786.4 817.9 677.8 814.6 678.5 768.2 679.2 726.3 673.3 723.4 646.7 709.3 641.3 705.7 650.9 695.8 654.8 693.3 692.2 666.9 693 711.3 Z" data-holc_grade="C"/>
<path d="M 678.5 768.2 677.8 814.6 677.4 850.1 677.4 867.9 680.7 885 681.2 902.8 657.4 903.1 656.2 903.1 594.7 902 594.4 931.3 615.5 931.1 615.5 931.2 616 947.6 604.5 953.9 601.2 955.4 578 920.9 577.9 867.3 579.8 847.5 579.6 820.4 570.5 820.3 572.1 783.6 662.7 783.4 662.8 767.8 678.5 768.2 Z" data-holc_grade="C"/>
<path d="M 840 943.3 792.7 954.3 787.7 954 786.3 954 728 952.3 728.1 946.8 709.4 945.4 693.2 943.7 693.2 962.4 675.8 962.1 656.5 963 656.2 939.9 656.2 903.1 657.4 903.1 681.2 902.8 680.7 885 677.4 867.9 677.4 850.1 677.8 814.6 786.4 817.9 785.1 824.9 771.9 848.7 790.4 848.9 790.6 863.8 841.1 863.5 841.2 888.7 895.6 888.7 893.5 901.6 893.5 912.2 896.9 925.4 915 925.7 916.2 938.9 840.2 937.6 840 943.3 Z M 714.9 921.2 715 907.5 697.6 905.7 678.9 905.8 678.6 913.2 673 913.4 673 921.5 714.9 921.2 Z M 734 876.6 734.7 850.8 745.4 837.8 745.5 820.3 732.4 820.3 732.4 837.7 717.6 854.4 718.2 876.6 734 876.6 Z" data-holc_grade="C"/>
<path d="M 919.5 1016.5 917.8 1030 916.9 1042.1 889.5 1042.2 888.7 1036 821.6 1035 830.4 975.1 787.2 975.1 786.7 969.1 786.3 954 787.7 954 792.7 954.3 840 943.3 839.2 955.9 903.4 956.2 903.1 962.1 901.4 970.7 895.8 987.4 895.5 996.4 897.9 996.6 923.8 993.6 921.1 1004.6 919.5 1016.5 Z" data-holc_grade="C"/>
</g>
<g id="D">
<path d="M 855.4 323.2 856.1 350.2 844.1 354.6 826.3 352.8 824.2 344.4 825.2 339.7 823.5 332.7 822.1 326.3 796.1 325.2 769.2 325.2 767.7 322.2 855.4 321.7 855.4 323.2 Z" data-holc_grade="D"/>
<path d="M 1346.5 1058.4 1347.9 1060.8 1339.2 1066.3 1312.6 1077.7 1293.2 1079.7 1275.2 1076 1265.6 1071.7 1242.7 1061.6 1221.9 1054.6 1202.1 1053.3 1186.6 1054.6 1185 1088.4 1210.5 1088 1265.6 1088.6 1265.6 1120.1 1291.3 1120.9 1291.8 1144.8 1254.9 1126.1 1233.5 1125.6 1218.9 1125.3 1212.8 1136.8 1203.7 1163.4 1197.2 1166.9 1173.7 1174.4 1169.8 1175.6 1138.8 1185.2 1138.3 1178.8 1152.1 1175.4 1154.2 1172 1150.7 1125.5 1144.8 1126.9 1146.7 1123.2 1146 1077.4 1127.5 1076.6 1128.2 1096.2 1116 1097.2 1108.4 1097.7 1105.3 1096.8 1105.3 1075.2 1102.8 1074 1076.8 1082.6 1069.6 1087 1067.1 1073.8 1078.2 1068 1092.2 1066.5 1095.5 1065.7 1111.4 1061.3 1141 1055.6 1184.4 1047.9 1190.6 1047.4 1208.7 1047.6 1222.1 1049.4 1230.9 1051.4 1237.6 1052.4 1242.4 1054.3 1252.2 1059.5 1266.1 1064.3 1286 1072 1298.1 1074.5 1301.5 1073.8 1312.2 1071.4 1325.2 1066.6 1343.7 1056.2 1346.5 1058.4 Z" data-holc_grade="D"/>
<path d="M 1069.9 1091.7 1042.3 1113.2 1042.6 1126.4 1047.9 1136.8 1048.2 1147.9 1064 1148.5 1065.7 1180.8 1069.2 1182 1067.1 1192.5 1073.1 1191.3 1094.8 1188.4 1094.5 1198 1096.2 1205 1095.5 1207.7 1072 1206.2 1056.6 1212 1029.6 1212.3 1019.8 1213.2 1022.6 1245.8 1060.5 1245.5 1063.3 1270.9 1035.2 1275.9 1014.9 1279.6 1011.7 1279.7 994.6 1279.9 994.9 1270.9 994.2 1235.1 991.1 1202.7 928 1201.8 925.9 1179.7 926.9 1165.1 923.8 1152.6 943.1 1150 971.8 1151.4 1024.4 1150 1027.2 1123.7 1026.1 1119.7 1022.3 1117.3 1005.5 1126.6 986.5 1133.6 984.8 1131.9 982.7 1126.4 980.2 1126.9 955 1132.2 918.9 1136.8 918.2 1122.6 918.6 1100.9 930.5 1098.1 948.7 1090.8 959.2 1083.8 970.8 1074.8 984.4 1063.5 985.9 1087.8 987.5 1099.5 991.2 1110.6 1011.4 1113.4 1025.4 1101.9 1047.9 1086.2 1067.1 1073.8 1069.6 1087 1069.9 1091.7 Z" data-holc_grade="D"/>
<path d="M 919.6 1256.6 814.4 1254 812.3 1366.2 697.4 1365 697.7 1375.5 769.9 1376.4 769.9 1384 774.5 1385.1 774.8 1407 774.8 1421.8 690.4 1420.7 690 1440.8 641.3 1397.4 628.3 1397.4 612.9 1366.8 596.1 1365.9 596.1 1354.8 586.6 1341.1 585.9 1330 556.5 1330 556.5 1290.7 515.5 1288.4 505 1257.5 534.1 1248.4 603.8 1214.6 614 1210 682.3 1210.8 683 1221.3 705.8 1220.7 706.5 1192.2 730 1203.3 761.2 1211.4 887 1210.5 886.3 1214.6 922.4 1215.2 937.1 1215.2 972.1 1216.7 950.1 1231.2 921 1242.9 919.6 1256.6 Z" data-holc_grade="D"/>
<path d="M 793.6 1616.1 778.2 1612.6 770.7 1592 769.8 1571 788.8 1562.5 795.9 1573.1 799.5 1577.7 783.2 1586.1 785.6 1588.7 782.1 1590.1 799.8 1607.2 803.5 1604.4 806.1 1607 793.6 1616.1 Z" data-holc_grade="D"/>
<path d="M 725.7 1582.9 717 1584.7 686 1583.3 686.4 1503.3 702.1 1503.8 705.4 1495.7 697.2 1482.4 707.2 1473.7 697.9 1466.4 703.5 1458.9 745.7 1472 750 1496.4 737.6 1500.5 743.9 1519.9 732.7 1522.2 742.9 1549.2 748.5 1565.7 751.8 1577.3 725.7 1582.9 Z M 637.3 1532.4 637.2 1576.4 581.5 1575.3 583.9 1531.4 637.3 1532.4 Z M 613.8 1552.5 615.3 1553.1 617.6 1551.6 618.3 1549.7 617.9 1547.2 616.7 1545.5 615.1 1545.1 613.2 1546.1 613.1 1549.7 613.8 1552.5 Z" data-holc_grade="D"/>
<path d="M 525 1452.9 525.1 1442.5 524.9 1415.6 524.8 1395.3 524.1 1371.9 492.7 1371.5 491.5 1329.6 547.2 1330.5 584.7 1373.3 623.2 1417.4 638.8 1428.4 637.7 1451.9 613.9 1452.7 525 1452.9 Z" data-holc_grade="D"/>
<path d="M 432.3 1358.2 430.2 1358.4 408.1 1358.4 408.5 1347.3 421.8 1347.3 423.5 1301 436.8 1300.4 436.1 1342.3 434.5 1353 433.2 1357.2 432.3 1358.2 Z" data-holc_grade="D"/>
<path d="M 398.8 1224.3 397.4 1224.4 341.7 1225.2 341.5 1207.7 277.4 1203.4 307.3 1177 312.8 1165.8 244.8 1164.9 243.6 1140.1 244 1129.1 321.8 1130.2 326 1110.5 334.4 1071.8 334.4 1065.6 331.9 1052 321.6 1008.1 317.6 985.1 314.8 964.4 315.4 964.3 350 953.9 406.9 954.4 405.4 998.2 406.2 1045.6 405.1 1114.5 404.4 1128.2 447.8 1127.5 499 1128.2 500.6 1161.8 404.4 1162.3 404.8 1216.4 403.5 1224.2 398.8 1224.3 Z" data-holc_grade="D"/>
<path d="M 583.3 1020.9 580.2 1085.8 572.2 1085.5 571.6 1080.3 568.2 1072.4 559.6 1060.2 554.1 1055.6 541.6 1043.1 531.9 1031.2 526.8 1023.7 526.4 1015.9 526.2 1000.4 511.6 1000.2 511.4 984.2 511.1 969.9 554 970.2 555.6 1015.3 583.2 1015.4 583.3 1020.9 Z M 454 1258.1 446.7 1257.5 435.8 1244.7 397.9 1244.1 398.8 1224.3 403.5 1224.2 404.8 1216.4 404.4 1162.3 500.6 1161.8 499 1128.2 447.8 1127.5 404.4 1128.2 405.1 1114.5 406.2 1045.6 405.4 998.2 406.9 954.4 350 953.9 315.4 964.3 314.8 964.4 312.4 964.8 309.6 950.7 307.7 941.3 305.3 924.1 398.4 924.1 398.5 907.9 461.9 908.4 464 909 470.6 913 472.9 917.8 471.9 929 470.1 963.7 493.3 991.8 492.6 1028.9 521.7 1029.7 520.7 1065.6 549.7 1066 549.1 1143 582.3 1144.3 581.6 1158.9 549.4 1166.4 519 1223.6 457.6 1254.4 454 1258.1 Z" data-holc_grade="D"/>
<path d="M 604.7 974.4 638.3 974.5 638.1 1013.7 643.7 1013.7 643.7 1022 643.3 1027.8 656.4 1027.9 656 1023.4 657 1022 657 1013.8 672.2 1013.5 671.4 1035.1 671.4 1079.5 650.4 1079.6 647.9 1078.8 603.4 1039.6 604.1 1001.1 604.7 974.4 Z" data-holc_grade="D"/>
<path d="M 825.4 587.8 814.1 606.7 805.3 607 810.4 586.9 795.8 587 796.9 581.7 804 566.1 807.1 561.9 852.5 561 888.1 561.3 875.5 579.4 856.7 587.9 825.4 587.8 Z" data-holc_grade="D"/>
<path d="M 919.5 1016.5 928.3 1013.5 924.5 1033.5 923.2 1058.8 923.8 1065.7 917.3 1065.9 919.1 1090 918.6 1100.9 918.5 1102.9 914.9 1105.2 905.1 1116.6 906.1 1130 893.4 1130.1 860.6 1128.9 841.7 1128.5 781 1128 780.6 1116.2 757.7 1116 757.8 1063.3 738.7 1063.3 739.5 1041.7 763.4 1042.2 763.8 1029.4 740 1029.5 740.3 1024.1 740 969.3 786.7 969.1 787.2 975.1 830.4 975.1 821.6 1035 888.7 1036 889.5 1042.2 916.9 1042.1 917.8 1030 919.5 1016.5 Z" data-holc_grade="D"/>
<path d="M 570.5 820.3 579.6 820.4 579.8 847.5 577.9 867.3 578 920.9 601.2 955.4 584.2 960.9 564.3 956.4 558.6 953.3 548.4 944.3 533.8 944.2 512.7 927.1 491.9 904.9 484 895.7 476.8 886.7 468 867.8 462.9 860 458.5 854 455.6 828.9 511.2 829.6 511 819.7 570.5 820.3 Z" data-holc_grade="D"/>
<path d="M 273.3 823 305.4 822.8 321.7 827.3 373.1 834.6 360.2 847 360.5 884.7 288.6 885.2 290 852.1 272.4 852.4 273 836.4 273.3 823 Z" data-holc_grade="D"/>
<path d="M 111.5 767.2 174.8 767.4 174.4 793.3 192.2 804.7 221.7 804.8 246.2 818.4 246.8 839 209.1 839.6 208.8 868 153.7 868 154.4 839.9 111.8 839.6 111.5 767.2 Z" data-holc_grade="D"/>
<path d="M 110.6 640.1 193.6 640.2 193.7 619 184.2 583.5 216.3 603.4 221.5 608 225 614.1 232 633.3 235.2 640.3 238.1 644.7 250.4 654 258.8 659.6 252 662 240.9 663.3 208.9 663.5 208.4 681.1 161.6 681.2 135.4 674.8 110.9 674.9 110.6 640.1 Z" data-holc_grade="D"/>
<path d="M 452.1 607 453.7 680 462.8 680.3 462.8 712 422 731.1 417.5 733.2 400.8 732.9 398.2 731.7 387.2 718.2 370.3 694.9 362.6 686.1 357.3 681.5 351.6 677.9 375.1 666.8 407.6 667.1 409.7 664.6 418.7 649.7 424.5 638.1 424 622.3 424.2 609.4 425.2 594.8 452 595.5 452.1 606.3 452.1 607 Z" data-holc_grade="D"/>
<path d="M 184.2 1806.9 172.8 1824.6 161.6 1820.4 150.3 1811.8 141.9 1803.6 135.4 1794.7 129.8 1792.4 118.6 1776.8 125.6 1776.2 132.9 1782.1 144.3 1788.9 151.6 1798.3 162.7 1802.2 172.1 1810.5 180.5 1803.7 171.8 1797.1 178.5 1769.9 209.1 1770.4 201.8 1781.3 190.8 1796.6 184.2 1806.9 Z" data-holc_grade="D"/>
<path d="M 191.3 1875.1 269.6 1876.1 293 1862.5 293.4 1961.6 233.8 1961.6 232.6 1935.3 195.8 1935.3 191.3 1875.1 Z" data-holc_grade="D"/>
<path d="M 51.3 1928.1 48.9 1879.5 91 1879.9 88.7 1907.5 78.4 1911.7 77.5 1927.3 51.3 1928.1 Z" data-holc_grade="D"/>
<path d="M 344.3 2018.4 341.9 2060.5 306.8 2061 305.8 2071.5 298.4 2072.4 298.8 2003.9 324.7 2012 344.3 2018.4 Z M 412 1990.7 411.3 2028.7 369.9 2008.5 368.1 1974.4 374.8 1976.2 373.1 1965.4 393 1966.2 396.5 1990.2 412 1990.7 Z" data-holc_grade="D"/>
<path d="M 1639.6 902.5 1640 917.7 1615.3 917.5 1614.6 907.4 1601.7 906.6 1602.4 879.4 1613.6 876.7 1621.6 876.1 1629.3 874.2 1630.9 902.7 1639.6 902.5 Z" data-holc_grade="D"/>
<path d="M 482.7 2132.8 441 2108.3 451.6 2094.3 467 2103.6 470.1 2093.7 484.1 2101.9 503.4 2085 495.7 2078 506.2 2068.6 566.2 2099 607.9 2123.2 660.8 2176 599.4 2175.4 598.7 2138 581.9 2133.4 571.1 2131.9 552.1 2129.3 535.7 2117.6 529.7 2123.8 503.4 2107.4 482.7 2132.8 Z" data-holc_grade="D"/>
<path d="M 11.3 2145.3 10.3 2116.1 62.2 2116.9 63.6 2144.1 11.3 2145.3 Z M 160.1 2137.9 159.4 2104.8 187.4 2104.8 186.5 2024.3 140.7 2023.6 140.3 2008 126.7 2008.4 131.4 1987.8 163.6 1987.4 166.9 2004.5 197.7 2006.4 198.7 2138.7 160.1 2137.9 Z" data-holc_grade="D"/>
<path d="M 59.9 2286.9 3.3 2283.8 5.2 2256.9 51 2217.7 51.5 2167.9 53.8 2167.9 54.7 2164.4 83.7 2164 83.2 2214.9 60.8 2227.8 59.9 2286.9 Z" data-holc_grade="D"/>
<path d="M 1897.9 883.4 1911.7 853.5 1914.3 810.1 1910.5 791.6 1907.9 780.7 1912.3 771.2 1889.2 769.8 1911.1 740.7 1923.7 715.2 1932.1 721.2 1937.4 723.2 1948.2 730.7 1962.8 729.5 1963.1 766.4 1939.7 767.8 1939.7 855.5 1965.4 855.7 1965.4 839.4 1999 838.5 1997 874.2 1961.3 884.3 1929.8 884.8 1897.9 883.4 Z" data-holc_grade="D"/>
<path d="M 1749.4 925 1750.6 919 1786.5 904.1 1791.7 915.1 1874.6 884.8 1884.7 898.2 1870.9 918 1863.6 918 1815 924.1 1816 930.3 1773.9 934 1773.2 968.2 1751 968.3 1752.6 932.4 1749.4 925 Z" data-holc_grade="D"/>
<path d="M 1700.9 966.5 1662 977.6 1654.4 969.9 1670.4 965.2 1668.5 960.2 1696.3 953 1700.9 966.5 Z" data-holc_grade="D"/>
<path d="M 1474.1 1015.2 1473.9 1013.3 1471.6 987.1 1483 986.6 1482.4 976.9 1492.3 975.2 1501.7 976.4 1523.3 928.4 1555.1 926.4 1556.3 937.3 1573.8 936.9 1574.7 973 1593.4 972.1 1593.1 955.8 1606.2 959.4 1615.9 964.5 1617.9 969.4 1568.6 986.1 1568.6 981.3 1474.1 1015.2 Z" data-holc_grade="D"/>
<path d="M 1514.5 1080.3 1503 1059.9 1502.3 1057 1486.8 1027.7 1512.8 1017.5 1516.3 1018.9 1537.9 1054.6 1534.7 1064.6 1527.4 1073.5 1514.5 1080.3 Z" data-holc_grade="D"/>
<path d="M 1460.9 1064.5 1439.9 1065.1 1439.2 1035.4 1402.4 1036.9 1393.6 1054.1 1395 1066 1371.5 1071 1371.2 1083.5 1361.4 1083.5 1358.6 1063.1 1351.7 1065.4 1347.9 1060.8 1346.5 1058.4 1390.9 1032.8 1402.4 1030.2 1429.5 1027.4 1450.8 1025.7 1454.7 1041.5 1456.5 1054.3 1460.9 1064.5 Z" data-holc_grade="D"/>
</g>
</svg>