<?xml version="1.0"?>
<svg xmlns="http://www.w3.org/2000/svg" version="1.2" baseProfile="tiny" width="3000" height="4108" viewBox="0 0 3000 4108" stroke-linecap="round" stroke-linejoin="round">
<g id="A">
<path d="M 940.6 795.8 923.1 754.6 898.6 751.8 897.2 730.2 897.5 651.8 825.6 647.1 826.7 619.4 829.3 605.8 829.3 585.9 823.5 574.9 1062.5 577.6 1044.6 629.9 1013.1 631.5 1011 640.9 1013.1 648.2 1026.2 668.6 1028.8 676.4 1004.7 687.9 1006.2 696.8 1003.1 709.9 999.4 716.1 999.4 736.5 1018.8 737.1 1020.4 794.1 1002 798.8 978.4 804 973.1 805.5 957.4 789.8 940.6 795.8 Z M 1103.5 458 1094.8 459.2 1032.8 554.3 785.4 554.1 787.2 493.9 785.4 460.8 791.6 436.4 796.8 426 752.2 401.6 704.9 419.8 482.7 391.8 448.6 301.2 530 255.1 759.3 248.3 793.5 161.2 803.1 157.7 901.1 146.4 937.9 132.5 959.7 156 1050.7 341.6 1103.5 458 Z" data-holc_grade="A"/>
<path d="M 897.2 730.2 898.6 751.8 923.1 754.6 940.6 795.8 963.6 859.9 959.4 868.3 966.4 871.1 966 872 956.6 892.7 944.7 898.9 930.7 905.2 920.9 915.7 905.5 934.5 833.3 928.2 820 923.3 800.4 893.3 786.4 882.1 775.9 879.4 773.2 839.6 724.1 837.5 732.6 728.8 897.2 730.2 Z" data-holc_grade="A"/>
<path d="M 1319.4 709.5 1321.4 727.7 1279.4 731.5 1217.8 739.9 1217.8 732.9 1214.6 719 1214.6 707.8 1204.5 708.5 1194.3 712 1193.6 669.8 1229.2 669.3 1244.4 670.9 1256.6 667.8 1280.1 643 1295.5 640.9 1307.1 635.4 1319 705.1 1319.4 709.5 Z" data-holc_grade="A"/>
<path d="M 1334 555.2 1330.5 544.7 1332.6 536.4 1352.9 527.3 1372.6 507.8 1393.6 492.5 1398.3 482.6 1403.5 502.7 1400.7 514.6 1375.5 533 1364.3 543.5 1357.3 541.8 1355.2 557.8 1334 555.2 Z" data-holc_grade="A"/>
<path d="M 1528.8 328.5 1504.3 297.1 1527.4 283.9 1558.9 267.2 1603 247 1609 244.5 1609.3 281.8 1528.8 328.5 Z" data-holc_grade="A"/>
<path d="M 1461.3 267.2 1453.9 270 1435.7 290.2 1425.9 302.7 1397.9 326.4 1372 343.1 1320.2 168.9 1339.1 175.2 1384.6 184.3 1428.7 187.7 1461.3 267.2 Z" data-holc_grade="A"/>
<path d="M 1698.2 163.3 1679.3 190.5 1649.9 194.7 1610 207.2 1583.4 219.8 1554.7 234.4 1530.2 247.7 1476.3 261.6 1472.8 24 1486.8 17 1498 19.8 1519.7 44.9 1524.6 63 1533 66.5 1553.3 67.2 1570.8 88.1 1595.3 127.8 1620.5 130.6 1636.6 139.7 1642.9 149.4 1658.3 154.3 1673 159.2 1698.2 163.3 Z" data-holc_grade="A"/>
<path d="M 1613.8 1369.9 1589.7 1357.9 1597.6 1326 1605.6 1281.4 1597.3 1277.2 1571.2 1264.1 1529.7 1265.7 1506.7 1269.5 1489.2 1271.5 1466.9 1261.4 1465.5 1246.9 1454.3 1237.1 1449.6 1231.4 1469.2 1236.3 1498.6 1236.8 1512 1234.4 1542.4 1226.9 1561.8 1225.8 1612.2 1226.8 1615.3 1226.7 1614.9 1196.4 1618.8 1192.4 1651.5 1170.6 1666.5 1162.8 1675.1 1196.8 1681.5 1222.9 1685.3 1248 1683.7 1283.4 1679.6 1369.9 1628 1369.6 1613.8 1369.9 Z" data-holc_grade="A"/>
<path d="M 2547.9 1622.5 2492 1612.6 2487.4 1598.3 2487 1541.1 2547.7 1566.5 2547.9 1622.5 Z" data-holc_grade="A"/>
</g>
<g id="B">
<path d="M 1104.7 578.3 1076.9 643.7 1044.6 629.9 1062.5 577.6 1104.7 578.3 Z M 1090.5 553.8 1032.8 554.3 1094.8 459.2 1103.5 458 1131.5 454.5 1129.4 503.6 1090.5 553.8 Z" data-holc_grade="B"/>
<path d="M 981.6 1195 974.3 1151.2 966.2 1100.2 970.4 1079.3 976.2 1079.2 1037.1 1046.7 1039.2 1117.3 1051.3 1127 1050.8 1168.9 1014 1195.2 981.6 1195 Z" data-holc_grade="B"/>
<path d="M 1275.7 1199.4 1261.3 1206.4 1253.4 1209.9 1235.5 1218 1250.4 1243.7 1246.3 1244.6 1238.9 1244.4 1245.1 1278.6 1247.3 1295.6 1184.3 1297.7 1181.9 1294.5 1182.2 1289.1 1181.7 1273 1180.4 1195.1 1236.8 1196.1 1196 1115.9 1231.7 1115.4 1275.7 1199.4 Z" data-holc_grade="B"/>
<path d="M 1247.3 1295.6 1247.7 1298.5 1247.1 1304.5 1248.6 1312.6 1245.5 1326.8 1241.2 1338.4 1202.2 1406.3 1192.6 1419.5 1185.8 1426.5 1171.2 1433.6 1155.1 1441.2 1142.3 1441.6 1135 1438.6 1123.4 1433 1115.3 1431.2 1113.3 1424.1 1101.5 1393.6 1095.7 1361.8 1086.3 1335.8 1085.9 1299.1 1041 1298.3 1040.7 1276.5 1181.7 1273 1182.2 1289.1 1181.9 1294.5 1184.3 1297.7 1247.3 1295.6 Z" data-holc_grade="B"/>
<path d="M 1613.8 1369.9 1611.4 1406.5 1611.5 1506.5 1611.6 1509.9 1612.1 1543.8 1600.5 1544.3 1599.1 1575.8 1550.4 1575.8 1533.7 1502 1526 1461.1 1523.9 1449.8 1519.3 1411.2 1521.1 1402.6 1524.6 1393.4 1532.5 1384.4 1549.3 1372.4 1558 1369.4 1564.4 1368.8 1571.3 1372.6 1577.9 1373.1 1584.7 1374.9 1577.7 1363.6 1574 1355.4 1571.7 1344.8 1577.2 1332.3 1555.7 1332.4 1556 1340.9 1551.3 1346.2 1535.4 1351.6 1515.1 1366.6 1505.3 1376.1 1497.3 1387.8 1496.1 1391.3 1497.6 1408.3 1496.8 1421.8 1496.3 1467.6 1480.8 1467.4 1480.9 1546.4 1483.2 1591 1467.4 1603.4 1447.1 1605.1 1448.1 1596.5 1430.4 1596.7 1423.5 1595.8 1422.2 1565.6 1402.9 1566.1 1394.3 1521 1388.4 1519.5 1387.6 1509.8 1367.7 1509.9 1353.1 1509.2 1366 1485.1 1331.2 1477.7 1316.4 1509.9 1303.9 1506.5 1297.8 1494.7 1294.8 1477.3 1294.2 1455.2 1296.7 1442.3 1322.4 1442.8 1346.5 1442.8 1348.1 1419.7 1381.9 1420.5 1381.9 1408.8 1450 1346.2 1453.1 1341.9 1452.9 1322.8 1344.3 1320.9 1334.1 1297 1337 1276.2 1333.3 1242.7 1338.3 1240.6 1342.4 1217.5 1353.1 1194.1 1374.4 1171.6 1375.6 1183.2 1448.1 1229.6 1449.6 1231.4 1454.3 1237.1 1465.5 1246.9 1466.9 1261.4 1489.2 1271.5 1506.7 1269.5 1529.7 1265.7 1571.2 1264.1 1597.3 1277.2 1605.6 1281.4 1597.6 1326 1589.7 1357.9 1613.8 1369.9 Z" data-holc_grade="B"/>
<path d="M 2086.2 1842.3 2084.8 1825.2 2076.1 1821 2044.4 1803.5 2007.9 1778.9 1984.1 1761.6 1889.6 1760.3 1888.2 1735.2 1814 1733.7 1747.3 1732.4 1631.1 1730.8 1633.1 1687.2 1663.6 1642.8 1693.8 1594.8 1751.6 1496 1801.5 1415.2 1810.9 1399.9 1764.7 1380.4 1760.3 1365.4 1776.2 1362.3 1785.3 1356.8 1799.3 1321.2 1835.8 1311.4 1846.3 1308.6 1875.7 1304.4 1890.4 1301 1889.7 1315.6 1893.9 1339.3 1901.6 1358.1 1908.6 1372.1 1900.9 1379.1 1900.9 1392.3 1901.6 1409 1900.2 1453 1892.5 1469 1913.6 1484.4 1884.9 1519.9 1883.5 1537.4 1884.9 1553.4 1884.2 1566.7 1876.5 1577.8 1860.3 1585.5 1855.4 1593.9 1845.6 1660.1 1850.6 1685.9 1870.9 1690.1 1880 1674.8 1893.3 1664.3 1906.6 1653.8 1915 1635 1924.8 1625.9 1935.3 1626.6 1949.3 1638.5 1958.5 1639.9 1957.8 1627.3 1957.7 1612.7 1952.8 1604.3 1955.6 1591.7 1964 1590.3 1973.2 1588.3 1974.6 1579.2 1961.2 1570.8 1958.4 1565.2 1964 1559 1968.9 1554.1 1964 1546.4 1956.3 1540.8 1964 1517.1 1954.2 1499 2023.6 1499.7 2046.7 1547.8 2029.9 1575 2006.1 1580.6 1957.8 1684.5 2072 1680.3 2099.3 1704 2100.1 1797.5 2137.9 1798.1 2149.9 1823.5 2103.2 1833.7 2086.2 1842.3 Z" data-holc_grade="B"/>
<path d="M 1981.1 1460.2 1979.3 1445.4 2017 1441.9 2077.4 1408.7 2078.3 1403.5 2077.2 1397.6 2095.5 1384.5 2122.9 1370.5 2130.5 1366.9 2140 1367.4 2146.5 1369.4 2147 1397.8 2148.5 1432.4 2104.5 1435.2 2103.3 1440.8 2077 1440 2078.4 1466.2 2060.2 1471.8 2048.7 1475.7 1984.8 1474.6 1981.1 1460.2 Z" data-holc_grade="B"/>
<path d="M 2086.2 1842.3 2056.8 1857.1 2049.7 1848.9 2030 1857.7 2015.3 1862.6 2004.6 1861.3 1988.4 1861.2 1941.8 1856.5 1942 1841.5 1939.6 1771.7 1890.5 1771.7 1889.4 1783.1 1837.6 1782.4 1838.1 1850.2 1795 1849.8 1796.1 1817.4 1812.9 1816.4 1814 1733.7 1888.2 1735.2 1889.6 1760.3 1984.1 1761.6 2007.9 1778.9 2044.4 1803.5 2076.1 1821 2084.8 1825.2 2086.2 1842.3 Z" data-holc_grade="B"/>
<path d="M 2322 1561.8 2295.4 1539.1 2218.4 1589.7 2255.5 1612.7 2266.4 1646.2 2242.9 1669.9 2177.7 1672 2176 1595.3 2248.8 1492.1 2252.6 1485.1 2313.6 1535.3 2343.4 1556.9 2355 1566.6 2342 1576.4 2322 1561.8 Z" data-holc_grade="B"/>
<path d="M 2424 1508.4 2409.6 1537.3 2373.9 1553.7 2349.7 1532.1 2350 1502.8 2336.7 1501.8 2337.4 1449.8 2322 1447.7 2320.2 1401 2340.5 1401.7 2340.5 1424 2424 1508.4 Z" data-holc_grade="B"/>
<path d="M 2547.9 1622.5 2566.6 1625.8 2564.2 1662 2510.6 1668 2502.2 1642.9 2492 1612.6 2547.9 1622.5 Z" data-holc_grade="B"/>
<path d="M 966 872 966.4 871.1 959.4 868.3 963.6 859.9 940.6 795.8 957.4 789.8 973.1 805.5 978.4 804 1002 798.8 1020.4 794.1 1018.8 737.1 999.4 736.5 999.4 716.1 1003.1 709.9 1006.2 696.8 1004.7 687.9 1028.8 676.4 1026.2 668.6 1013.1 648.2 1011 640.9 1013.1 631.5 1044.6 629.9 1045.1 738.1 1050.4 740.2 1062.4 740.7 1062.9 829.1 1018.3 833.3 1007.8 869.9 1010.4 872.5 1003 885.5 966 872 Z" data-holc_grade="B"/>
<path d="M 2573.2 1797.1 2615.1 1830.5 2622.5 1844.4 2610.6 1847.9 2542.6 1794.2 2504.7 1818.7 2503.4 1853.9 2501.3 1910.1 2482.4 1910.8 2470.3 1914.5 2461.6 1914.1 2458.5 1877.4 2457.6 1856.5 2472.1 1855.6 2471.6 1831.6 2452.8 1831.7 2452.8 1807.2 2485.2 1807.7 2485.2 1792.8 2537.3 1770.6 2573.2 1797.1 Z" data-holc_grade="B"/>
<path d="M 2327.7 2147 2304.5 2162.2 2304.5 2178.4 2285.2 2178.8 2284.3 2163.1 2247.5 2160.5 2247 2108.2 2253.2 2098.6 2300.9 2069.8 2326.3 2069.4 2327.7 2147 Z" data-holc_grade="B"/>
<path d="M 751.5 2707.8 751.9 2658.2 805.3 2658.2 818.8 2673.1 819.4 2708.7 751.5 2707.8 Z" data-holc_grade="B"/>
<path d="M 586.4 2763.8 590.8 2764 587.6 2900.6 573 2900.6 557.1 2900.5 530.8 2854.4 512 2784.4 531.3 2778.2 526.1 2763.2 586.4 2763.8 Z" data-holc_grade="B"/>
<path d="M 455.2 2316.1 452.1 2369 439.5 2359.1 421.1 2380 498.4 2434.5 483.6 2451.7 442.1 2422.4 227.1 2418.1 228.1 2385.1 327.5 2385.7 353.8 2335.5 414.8 2335 414.3 2313.5 455.2 2316.1 Z" data-holc_grade="B"/>
<path d="M 226.6 2348 169.1 2346.8 168.4 2319.3 167 2307 170.2 2263.8 240.7 2264.2 241.4 2247.8 260 2247.5 260 2269.8 274.7 2283.8 276.4 2318 256.1 2322.5 256 2348.6 226.6 2348 Z" data-holc_grade="B"/>
<path d="M 985.6 1620.8 985.5 1687 962.4 1687 960.1 1680.8 959 1674.3 959.7 1668.2 956.1 1663.2 949.3 1660.6 941.4 1662.2 934.2 1665.3 924.4 1671.4 924.4 1671.1 892.9 1671.4 893.3 1618.8 985.6 1620.8 Z" data-holc_grade="B"/>
<path d="M 76.8 3600.8 121.7 3601.6 123.8 3639.3 142.8 3639.3 144.1 3662.4 1 3662.9 1.8 3598 76.8 3600.8 Z" data-holc_grade="B"/>
<path d="M 329.2 3252.5 330.5 3236.8 350.7 3235.1 368.2 3232.5 370 3212 396.8 3212.9 396.7 3232.5 484.9 3234.7 486.2 3256.6 449.3 3258.7 448.4 3291.9 370.8 3292.3 372.2 3279.2 352 3286.1 351.6 3255.6 329.2 3252.5 Z" data-holc_grade="B"/>
<path d="M 1110.2 887.7 1076 888.7 1077.6 828.6 1062.9 829.1 1062.4 740.7 1069.5 741.3 1069.5 733 1088.3 732.1 1185.5 732.6 1186.8 750 1186.8 787.5 1182.9 819.7 1179.8 870.7 1179.4 898.6 1164 892.9 1144.3 879 1136.9 866.8 1138.2 851.9 1112.4 851.5 1110.2 887.7 Z" data-holc_grade="B"/>
<path d="M 1229.2 669.3 1193.6 669.8 1194.3 712 1204.5 708.5 1214.6 707.8 1214.6 719 1217.8 732.9 1185.5 732.6 1088.3 732.1 1087.3 703.3 1092.1 691.3 1116.2 656.8 1131 632.2 1155.6 631.1 1153 654.7 1229.2 658.9 1229.2 669.3 Z" data-holc_grade="B"/>
<path d="M 1319.4 709.5 1319 705.1 1307.1 635.4 1295.5 640.9 1280.1 643 1256.6 667.8 1244.4 670.9 1244.9 650 1267.5 635.9 1285.4 628 1284.4 579.6 1330.5 579.3 1331.6 625.9 1363.4 610.3 1371.8 615.8 1373.6 621.1 1331.2 674.4 1339.3 707.9 1328.8 709.2 1319.4 709.5 Z M 1317.3 392.1 1337.9 413.9 1399.9 479.2 1398.3 482.6 1393.6 492.5 1372.6 507.8 1352.9 527.3 1332.6 536.4 1330.5 544.7 1334 555.2 1258.6 558 1232.3 546 1202.4 533.4 1200.8 514.6 1263.9 472.8 1288 523 1311.1 512.5 1284.9 443 1222.4 475.9 1193 431.5 1131 309.2 1157.8 287.7 1262.6 340.5 1306 416.5 1317.3 392.1 Z" data-holc_grade="B"/>
<path d="M 1609 244.5 1603 247 1558.9 267.2 1527.4 283.9 1504.3 297.1 1528.8 328.5 1568 337.6 1546.3 382.9 1484 351.5 1424.5 376.6 1414.7 365.4 1386.7 378.7 1359.4 389.8 1337.9 413.9 1317.3 392.1 1343.3 363.3 1350.3 357.1 1372 343.1 1397.9 326.4 1425.9 302.7 1435.7 290.2 1453.9 270 1461.3 267.2 1476.3 261.6 1530.2 247.7 1554.7 234.4 1583.4 219.8 1610 207.2 1649.9 194.7 1679.3 190.5 1698.2 163.3 1694.7 135.5 1668.8 99.9 1654.8 79 1654.8 63 1654.1 48.4 1641.5 41.4 1635.2 39.3 1626.8 28.2 1609.3 20.5 1609.3 3.1 1637.3 1 1670.9 43.5 1687.7 83.9 1716.4 165.4 1666.7 229.5 1649.9 225.4 1621.9 239.3 1609 244.5 Z" data-holc_grade="B"/>
<path d="M 1404.9 169.6 1323.7 129.9 1270.5 96.4 1283.1 72.8 1353.1 88.8 1357.3 28.9 1421 88.8 1404.9 169.6 Z" data-holc_grade="B"/>
<path d="M 741.9 1072.8 741.7 1051.6 719.9 1057.9 712.7 1064.4 692.1 1063.2 682.2 1050.2 676.8 1042.2 669.6 1031.5 661.4 1025.3 648.6 996.3 642.2 981.1 635.2 966.3 633.3 953.7 746.2 960.9 745.3 1006.8 831.8 1006 889.7 1066.7 871.2 1089.5 804 1052.8 741.9 1072.8 Z" data-holc_grade="B"/>
<path d="M 892.9 1092.2 930.8 1111.9 941.5 1154.5 944.7 1164.8 952.3 1204.7 955.1 1215.1 959.8 1250.7 922.3 1276.4 902.4 1201.2 886.7 1138.7 892.9 1092.2 Z" data-holc_grade="B"/>
</g>
<g id="C">
<path d="M 1155.1 583.1 1195.6 583.1 1234.4 585.2 1236.5 596.7 1239.1 609.2 1237.6 617.6 1240.7 632.7 1267.5 635.9 1244.9 650 1244.4 670.9 1229.2 669.3 1229.2 658.9 1153 654.7 1155.6 631.1 1131 632.2 1116.2 656.8 1092.1 691.3 1087.3 703.3 1088.3 732.1 1069.5 733 1069.5 741.3 1062.4 740.7 1050.4 740.2 1045.1 738.1 1044.6 629.9 1076.9 643.7 1104.7 578.3 1129.9 579.4 1111 626.4 1133.1 628 1155.1 583.1 Z M 1258.6 558 1177.7 556.4 1173.5 549.1 1171.9 536.5 1170.9 507.8 1143.6 508.3 1134.7 525.5 1132 533.9 1138.9 556.4 1090.5 553.8 1129.4 503.6 1131.5 454.5 1133.6 415.3 1092.7 343.1 1093.2 251.7 1113.7 251.1 1157.3 251.7 1157.8 287.7 1131 309.2 1193 431.5 1222.4 475.9 1284.9 443 1311.1 512.5 1288 523 1263.9 472.8 1200.8 514.6 1202.4 533.4 1232.3 546 1258.6 558 Z" data-holc_grade="C"/>
<path d="M 1333.3 1242.7 1337 1276.2 1334.1 1297 1344.3 1320.9 1350.4 1335.3 1348.1 1347.2 1349.7 1386.4 1348.9 1407.7 1348.1 1419.7 1346.5 1442.8 1322.4 1442.8 1322.6 1327 1314 1311 1308.7 1300.6 1323.3 1299.4 1324.9 1285 1323.5 1277.4 1325.8 1265.9 1287.3 1264.8 1253.4 1209.9 1261.3 1206.4 1275.7 1199.4 1296.9 1240.1 1333.3 1242.7 Z" data-holc_grade="C"/>
<path d="M 1465.6 1675.8 1402.1 1678.2 1396.9 1630.1 1396.2 1607 1393.7 1553.3 1372.5 1551.9 1364.5 1542.4 1353 1530.2 1332.2 1528.4 1321.4 1526.3 1313.2 1523.3 1303.9 1506.5 1316.4 1509.9 1331.2 1477.7 1366 1485.1 1353.1 1509.2 1367.7 1509.9 1387.6 1509.8 1388.4 1519.5 1394.3 1521 1402.9 1566.1 1422.2 1565.6 1423.5 1595.8 1430.4 1596.7 1448.1 1596.5 1447.1 1605.1 1467.4 1603.4 1465.6 1675.8 Z" data-holc_grade="C"/>
<path d="M 1550.4 1575.8 1542.4 1575.4 1544.7 1586.6 1557.3 1624.9 1556.7 1673.4 1465.6 1675.8 1467.4 1603.4 1483.2 1591 1480.9 1546.4 1480.8 1467.4 1496.3 1467.6 1496.8 1421.8 1497.6 1408.3 1496.1 1391.3 1497.3 1387.8 1505.3 1376.1 1515.1 1366.6 1535.4 1351.6 1551.3 1346.2 1556 1340.9 1555.7 1332.4 1577.2 1332.3 1571.7 1344.8 1574 1355.4 1577.7 1363.6 1584.7 1374.9 1577.9 1373.1 1571.3 1372.6 1564.4 1368.8 1558 1369.4 1549.3 1372.4 1532.5 1384.4 1524.6 1393.4 1521.1 1402.6 1519.3 1411.2 1523.9 1449.8 1526 1461.1 1533.7 1502 1550.4 1575.8 Z" data-holc_grade="C"/>
<path d="M 1633.1 1687.2 1556 1686.2 1556.7 1673.4 1557.3 1624.9 1544.7 1586.6 1542.4 1575.4 1550.4 1575.8 1599.1 1575.8 1600.5 1544.3 1612.1 1543.8 1611.6 1509.9 1626.7 1509.2 1702.2 1512.9 1719 1491.4 1735.1 1466 1745.1 1435.5 1754 1411.1 1711.4 1392.9 1716.2 1375.7 1760.3 1365.4 1764.7 1380.4 1810.9 1399.9 1801.5 1415.2 1751.6 1496 1693.8 1594.8 1663.6 1642.8 1633.1 1687.2 Z" data-holc_grade="C"/>
<path d="M 1402.1 1678.2 1465.6 1675.8 1556.7 1673.4 1556 1686.2 1633.1 1687.2 1631.1 1730.8 1608.4 1730.1 1608 1755.5 1606.5 1826.3 1594.5 1827.1 1551.5 1869 1569.9 1885.4 1595.2 1863.5 1603.1 1863.7 1601.7 1927.4 1573 1949.7 1539.2 1977.9 1518.1 1998.5 1487.8 1993.5 1482.2 1973.6 1479.9 1952.6 1477.7 1908.9 1482.8 1905.6 1472.9 1886.7 1462.9 1860.6 1453.3 1813.8 1440.9 1806.5 1411.2 1780.8 1397.8 1766.4 1391.9 1768.6 1398.4 1745.5 1402.1 1709.9 1402.1 1678.2 Z" data-holc_grade="C"/>
<path d="M 1631.1 1730.8 1747.3 1732.4 1746.1 1849.4 1795 1849.8 1838.1 1850.2 1837.6 1782.4 1889.4 1783.1 1890.8 1839.7 1942 1841.5 1941.8 1856.5 1988.4 1861.2 2004.6 1861.3 2015.3 1862.6 2030 1857.7 2049.7 1848.9 2056.8 1857.1 2086.2 1842.3 2103.2 1833.7 2149.9 1823.5 2176.1 1817.8 2177.2 1840.9 2145.2 1844.1 2104.6 1849.1 2087.3 1853.7 2020.7 1899.7 2016.5 1895.7 1988.9 1914.4 1969.3 1923 1953.3 1927.3 1948.2 1928.6 1930 1924.1 1900.1 1910.3 1879.3 1901.7 1864.6 1892.4 1857.4 1889 1847.4 1887.2 1834.2 1883.6 1814 1880.4 1786.9 1879.9 1777.7 1881 1712.5 1894.8 1668.1 1905.1 1644.3 1912.9 1639.3 1914.3 1618.4 1917.1 1601.7 1927.4 1603.1 1863.7 1614.5 1863.2 1614.8 1859.7 1616 1826.5 1606.5 1826.3 1608 1755.5 1608.4 1730.1 1631.1 1730.8 Z" data-holc_grade="C"/>
<path d="M 2077.2 1397.6 2078.3 1403.5 2077.4 1408.7 2017 1441.9 1979.3 1445.4 1981.1 1460.2 1958.3 1461.1 1953.9 1451.5 1950.4 1448 1947.8 1441.9 1922.8 1452.8 1924.2 1470.7 1913.6 1484.4 1892.5 1469 1900.2 1453 1901.6 1409 1900.9 1392.3 1900.9 1379.1 1908.6 1372.1 1912.3 1390.5 1917.6 1397.4 1926.8 1407.9 1934.7 1421 1940.8 1427.9 1950 1430.6 1962.2 1432.3 2018.7 1427 2020.9 1344.7 2038.8 1340.3 2038.4 1402.2 2074.8 1383.4 2077.2 1397.6 Z" data-holc_grade="C"/>
<path d="M 2103.3 1440.8 2106.7 1507.5 2082.9 1520.3 2048.2 1520.1 2048.7 1475.7 2060.2 1471.8 2078.4 1466.2 2077 1440 2103.3 1440.8 Z" data-holc_grade="C"/>
<path d="M 2336.7 1501.8 2350 1502.8 2349.7 1532.1 2373.9 1553.7 2409.6 1537.3 2424 1508.4 2430.3 1515.3 2421.2 1573.2 2404.4 1578.1 2403.4 1626.9 2422.6 1628.3 2423.7 1646.4 2460.8 1646.8 2460.1 1619.6 2472.7 1619.9 2477.3 1643.3 2502.2 1642.9 2510.6 1668 2564.2 1662 2566.6 1625.8 2578.9 1624.4 2579.2 1598.6 2573.2 1562.3 2586.2 1560.2 2601.3 1553.6 2610.1 1597.8 2630.4 1599.2 2627.6 1643.9 2626.7 1649 2624.8 1659.9 2582.5 1681.3 2582.4 1679.1 2573.3 1671.1 2562.5 1671.8 2510.6 1704.3 2421.3 1704 2420.5 1651.7 2380.2 1649.6 2335.1 1652.4 2333.5 1662.6 2285.8 1666.1 2280.4 1665 2277.6 1598.8 2302.1 1598.7 2322 1561.8 2342 1576.4 2355 1566.6 2343.4 1556.9 2313.6 1535.3 2252.6 1485.1 2248.8 1492.1 2232 1480.2 2210.2 1442.2 2217.9 1427.9 2233 1400.7 2252.6 1401.4 2250.2 1431.4 2248.4 1454 2336.4 1519.2 2336.7 1501.8 Z" data-holc_grade="C"/>
<path d="M 2881.1 1863.5 2766.8 1860.5 2771.5 1741.5 2739.1 1739.8 2727.2 1673.9 2799.4 1665.6 2824 1639.4 2887 1637.6 2881.1 1863.5 Z" data-holc_grade="C"/>
<path d="M 1631.7 286 1670.2 265.8 1695.4 251.8 1714.3 239.3 1733.2 221.9 1764 177.3 1780.8 133.4 1805.3 129.2 1831.9 121.5 1862.7 127.1 1864.8 150.8 1845.9 187.7 1814.4 255.3 1766.1 331.3 1628.9 332.7 1631.7 286 Z" data-holc_grade="C"/>
<path d="M 2552.1 1734.4 2573.2 1797.1 2537.3 1770.6 2485.2 1792.8 2485.2 1807.7 2452.8 1807.2 2452.8 1831.7 2471.6 1831.6 2472.1 1855.6 2457.6 1856.5 2458.5 1877.4 2461.6 1914.1 2470.3 1914.5 2476.5 1924.5 2441 1926.3 2452.8 1955.9 2326.2 1954.7 2326.2 1925 2292.1 1926.8 2303 1910.7 2307.8 1892.8 2275.4 1828.7 2270.1 1826.1 2231.1 1844.4 2254.4 1897.2 2255.4 1902.3 2216 1910.1 2192.3 1910.7 2185.7 1892.4 2183 1869.3 2177.2 1840.9 2212.7 1832.2 2212.1 1822.1 2353.7 1761.1 2353.7 1769.8 2427.7 1739.7 2435.5 1746.9 2397.8 1762.9 2393.3 1764 2395 1792.6 2414.3 1805.1 2414 1815.6 2439.6 1817 2441.8 1752.8 2457.1 1752.7 2482.5 1740.5 2493.9 1754.5 2552.1 1734.4 Z" data-holc_grade="C"/>
<path d="M 2239.4 1750.2 2224.5 1753.3 2225.4 1770.7 2208.3 1771.6 2211.9 1818.7 2212.1 1822.1 2212.7 1832.2 2177.2 1840.9 2176.1 1817.8 2175 1735.9 2239.4 1735.4 2239.4 1750.2 Z" data-holc_grade="C"/>
<path d="M 2326.2 1954.7 2326.3 2069.4 2300.9 2069.8 2253.2 2098.6 2247 2108.2 2247.5 2160.5 2284.3 2163.1 2285.2 2178.8 2304.5 2178.4 2304.5 2162.2 2327.7 2147 2473.6 2147.3 2497.7 2217.5 2399.6 2213.2 2399.1 2204.1 2177 2202.4 2178.3 2163.6 2123.6 2164.5 2125.7 2113.7 2148.3 2094.4 2170.9 2056.7 2191.4 2036.8 2259.7 2003.3 2271.2 1993.8 2280.7 1959.8 2296 1958.6 2326.2 1925 2326.2 1954.7 Z" data-holc_grade="C"/>
<path d="M 1851.3 2020.5 1883.4 2021.3 1938.7 2054.8 1938 2011.9 1940 1949.2 1961.6 1949.2 1987.9 1940.8 2019.4 1923.5 2031 1915.7 2028.6 1912.3 2038.9 1908.1 2043.1 1944.7 2057.8 1944.7 2058.3 1922.2 2093.5 1913.3 2091.4 1891.9 2104.5 1861 2159.7 1858.4 2160.8 1911.7 2192.3 1910.7 2216 1910.1 2255.4 1902.3 2272.8 1938.9 2273.8 1960.3 2280.7 1959.8 2271.2 1993.8 2259.7 2003.3 2191.4 2036.8 2170.9 2056.7 2148.3 2094.4 2125.7 2113.7 2123.6 2164.5 1851.8 2159.9 1851.3 2020.5 Z M 2167.6 2019 2170.9 1922.3 2107.6 1922.3 2105.1 1974 2089.6 1978.8 2087.7 2020.5 2167.6 2019 Z" data-holc_grade="C"/>
<path d="M 1747.2 2291.4 1609.2 2289.7 1606.6 2281.8 1596 2281.4 1591.8 2235.9 1586 2175.7 1609.1 2165.2 1644.4 2167.8 1645.4 2163.1 1642.8 2150.6 1643.3 2133.3 1610.7 2138.5 1601.8 2140.6 1604.9 2121.8 1599.7 2119.7 1597 2061.6 1573.4 2060.6 1572.8 2040.7 1565 2021.8 1564.4 1998.3 1606 1959.6 1608.3 1970 1619.3 1968.7 1618.9 1986.6 1677.1 1987.5 1675 1969.4 1693.4 1967.7 1692.3 1932.4 1720 1933.8 1721.1 2016.1 1718.3 2022.8 1727.1 2020.3 1732.3 2103.7 1729.2 2110 1708.5 2115.9 1709.2 2127.4 1755.8 2110.3 1761.7 2108.1 1760.4 2145.7 1757.7 2161 1755.6 2220.3 1777.9 2221.2 1780.5 2289.2 1777 2291.8 1747.2 2291.4 Z" data-holc_grade="C"/>
<path d="M 1747.2 2291.4 1747.3 2366.8 1710 2362.9 1695.1 2363.3 1677.2 2364.2 1677.6 2425.3 1618 2428.3 1615.4 2669.1 1512 2663 1531.7 2627.7 1536.9 2609.4 1524.2 2566.6 1539.1 2549.2 1539.1 2533.5 1530.4 2524.3 1500.1 2523.4 1484.8 2519.5 1450.2 2516 1449.7 2467.2 1483 2466.7 1483 2411.3 1496.2 2400.4 1548.3 2401.7 1548.3 2356.8 1515.9 2353.8 1518.5 2297.2 1523.4 2297.1 1553.9 2290.3 1596 2281.4 1606.6 2281.8 1609.2 2289.7 1747.2 2291.4 Z" data-holc_grade="C"/>
<path d="M 1380.4 2255.7 1380.9 2326.9 1383 2333.1 1456.6 2336.3 1420.4 2446.7 1376.2 2447.8 1365.1 2520.5 1288.9 2520.5 1288.4 2502.2 1243.2 2502.7 1241.6 2497.5 1183.2 2496.4 1183.2 2525.7 1163.2 2525.7 1162.7 2486.5 1155.9 2484.4 1155.9 2470.8 1047.5 2469.2 1047 2450.3 1219.5 2452.5 1222.7 2251 1380.4 2255.7 Z M 1248.4 2266.5 1249.4 2459.7 1320.9 2458.6 1324.6 2430.4 1321 2397.9 1325.2 2366.5 1324.6 2341.9 1302.6 2340.9 1302 2263.9 1248.4 2266.5 Z" data-holc_grade="C"/>
<path d="M 1115.1 2610.6 1194.4 2609.8 1193.3 2633.1 1247.5 2638 1247.2 2661.1 1278.5 2663.3 1363.3 2663.7 1351.9 2704.5 1349.6 2737.1 1362.6 2738.7 1373.8 2741.5 1370.6 2776.6 1348.1 2768.4 1347.2 2760.2 1348.4 2747.5 1336.2 2747.8 1337.2 2735.2 1323.4 2739.4 1265.6 2739.7 1216.9 2705.9 1166.2 2669.7 1156.8 2649.8 1115.4 2619 1115.1 2610.6 Z" data-holc_grade="C"/>
<path d="M 1210.1 2885 1206.1 2880.2 1200.6 2885.3 1174.1 2854.5 1179.3 2852 1175.7 2847.4 1200.2 2832.3 1221.1 2850.8 1231.7 2858.7 1220.4 2868.6 1224.3 2874.1 1210.1 2885 Z" data-holc_grade="C"/>
<path d="M 1089.3 2841.5 1128.6 2831.6 1123.7 2810.8 1115.3 2781 1100 2732.6 1116.7 2728.5 1107.3 2693.6 1125.9 2686.2 1130.1 2687.6 1143.8 2686.5 1159.2 2690 1172.6 2728.5 1171.1 2758.1 1172.3 2775 1175.5 2788.2 1184.1 2805 1155.6 2820.2 1157 2857.9 1168.2 2894.9 1191.3 2901.2 1187.2 2904.4 1204 2932.1 1144.2 2952.1 1126.5 2959.8 1113.3 2957.3 1105.1 2956.6 1096.6 2957.2 1088.5 2960.7 1081.9 2961.3 1080.1 2948 1079.6 2926.8 1081.1 2911.5 1050 2911.7 1049.4 2877.6 1087.4 2877.9 1089.3 2841.5 Z" data-holc_grade="C"/>
<path d="M 1010.4 872.5 1007.8 869.9 1018.3 833.3 1062.9 829.1 1077.6 828.6 1076 888.7 1110.2 887.7 1116.5 888.2 1119.6 915.4 1128 921.1 1125.4 990.7 1072.3 1011.1 970.4 993.8 939.4 990.6 985.7 924.2 1020.4 931.6 1030.3 915.4 1037.7 905.9 1054.5 849 1035.1 848.4 1028.3 875.1 1010.4 872.5 Z" data-holc_grade="C"/>
<path d="M 370 3212 368.2 3232.5 350.7 3235.1 330.5 3236.8 329.2 3252.5 324.8 3255.6 276.4 3243.4 286.3 3225 303 3197.5 313.9 3177.9 267.9 3177 271.9 3158.2 298.2 3157.4 298.3 3031.7 307.9 3034.3 435.9 3036.2 436.8 3049.3 434.1 3062.3 423.2 3086.8 408.7 3107.7 398.1 3118.2 376.2 3131.2 349.5 3153.9 330.6 3172.7 325.8 3179.2 344.6 3198.9 362.6 3212 370 3212 Z M 429.2 3003 428.7 3016.1 294 3011.3 293 3000.3 429.2 3003 Z" data-holc_grade="C"/>
<path d="M 587.6 2900.6 586.5 2928.7 447.9 2927.2 449.6 2895.1 483.7 2896 485.4 2851.2 492.8 2825 472.1 2791.9 491.1 2740.4 586.5 2742.6 586.4 2763.8 526.1 2763.2 531.3 2778.2 512 2784.4 530.8 2854.4 557.1 2900.5 573 2900.6 587.6 2900.6 Z" data-holc_grade="C"/>
<path d="M 751.9 2658.2 751.5 2707.8 751.1 2766.4 590.8 2764 586.4 2763.8 586.5 2742.6 586.8 2700.7 545.8 2699.8 546.8 2663.2 593.7 2665.1 595 2612.3 671.3 2614.1 671.2 2641.3 734.4 2642.8 741.9 2643.4 752 2642.4 751.9 2658.2 Z" data-holc_grade="C"/>
<path d="M 788.1 2504.6 780.4 2504.5 747.3 2505.2 747.3 2541.1 788.3 2541.1 788.5 2589.4 788.4 2608.1 696.8 2606.4 660.4 2541.1 658.1 2535.6 657.7 2525.7 634.4 2504.7 647.6 2475.9 659.7 2453.6 704.4 2453.2 702.8 2387 738.2 2386.6 740 2461.9 787.1 2462.6 788.1 2504.6 Z M 682.8 2559.2 689.3 2566 696.9 2559 694 2555.3 687.4 2544.3 679.5 2544.5 682.2 2548.5 678 2548.5 680.6 2554.7 682.8 2559.2 Z" data-holc_grade="C"/>
<path d="M 498.4 2434.5 595.8 2508.9 514.8 2590 505.3 2590 504.8 2593.1 474.8 2692.6 479 2696.2 468.4 2740.7 400 2738.6 402.2 2710.3 401.1 2674.2 447.4 2677.4 448 2636.5 362.3 2636.5 364.9 2579.4 438.5 2581 442.1 2422.4 483.6 2451.7 498.4 2434.5 Z" data-holc_grade="C"/>
<path d="M 636.2 2335.1 633.5 2418.3 613.5 2418.3 613 2438.2 646.1 2438.2 649.4 2438 646.1 2442.9 642.1 2450 635.6 2454.7 632.2 2457.4 625.1 2460.2 593 2465.4 547.8 2434 452.1 2369 455.2 2316.1 514.2 2319.9 513.5 2200.5 513.5 2199 597 2197.6 599.1 2197.5 597.9 2233.1 654.7 2234.1 670.9 2257.2 682 2258.2 631 2309.5 576.8 2309.4 576.3 2335.1 636.2 2335.1 Z" data-holc_grade="C"/>
<path d="M 417.2 2159.8 513.3 2167.6 513.5 2199 513.5 2200.5 514.2 2319.9 455.2 2316.1 414.3 2313.5 414.8 2335 353.8 2335.5 327.5 2385.7 228.1 2385.1 226.6 2348 256 2348.6 256.1 2322.5 276.4 2318 274.7 2283.8 260 2269.8 260 2247.5 266.2 2189.4 239.9 2158.5 210 2126.5 193.7 2105.1 183.7 2101.4 164.8 2103.5 168 2056.9 214.8 2043.4 217.9 2058 232.6 2062.7 232.1 2079.5 246.3 2081.1 252.1 2077.9 260 2067.5 277.8 2061.7 296.8 2058.6 314.1 2055.5 328.3 2049.7 324.5 2158 416 2159.7 417.2 2159.8 Z" data-holc_grade="C"/>
<path d="M 465.7 1706 469.9 1731.5 436.8 1733.2 433.7 1797.1 389.2 1801.2 260.7 1799.4 191.5 1801.4 185.7 1801 182.8 1799.7 185.2 1733.1 167 1732.2 168.3 1671.1 168 1641.2 169.2 1588.5 216 1590.1 214.9 1634.5 266.9 1628.5 315.2 1615.7 314.6 1651.7 340.4 1651.6 340.9 1705.4 465.7 1706 Z" data-holc_grade="C"/>
<path d="M 741.9 1072.8 742.1 1090 679.8 1088.9 679.8 1087.7 679.6 1068.3 639.4 1067 642.1 998.3 641.6 991 635.2 966.3 642.2 981.1 648.6 996.3 661.4 1025.3 669.6 1031.5 676.8 1042.2 682.2 1050.2 692.1 1063.2 712.7 1064.4 719.9 1057.9 741.7 1051.6 741.9 1072.8 Z" data-holc_grade="C"/>
<path d="M 661.7 3784.9 724.3 3828.9 683.2 3900.1 614.2 3898.5 613.2 3847.7 614.3 3847.7 640.6 3810.5 661.7 3784.9 Z" data-holc_grade="C"/>
<path d="M 970.4 1079.3 966.2 1100.2 974.3 1151.2 981.6 1195 962.8 1195.2 962.5 1208.8 963.8 1222.5 967.1 1233.5 971.4 1241.8 959.8 1250.7 955.1 1215.1 952.3 1204.7 944.7 1164.8 941.5 1154.5 930.8 1111.9 892.9 1092.2 880.1 1085.7 892.7 1072.3 910.6 1055.2 927.1 1044 947.2 1035.3 965.5 1043.6 977.5 1043.8 970.4 1079.3 Z" data-holc_grade="C"/>
<path d="M 617 3641.8 618.1 3573.7 788.1 3572.8 790.7 3614.2 778.1 3614.2 745.9 3700 701.2 3680.1 683.3 3702.6 645.9 3743.5 567.5 3745 562.8 3638.7 623.3 3660.2 617 3641.8 Z" data-holc_grade="C"/>
<path d="M 239.8 3837.8 240.8 3895.7 181.8 3895 180.4 3934.1 148.1 3934.8 148 4107.3 89 4105.2 90.5 3999 124.2 3976 125 3884.5 81.5 3885.1 80.1 3891.4 76.6 3891.4 16.2 3891.3 16.3 3850.8 94.9 3848.8 92.8 3799.9 127.9 3795.7 127.2 3785.3 130 3770.6 137 3753.2 54.9 3754.5 53.6 3695.8 2.4 3695.8 1 3662.9 144.1 3662.4 142.8 3639.3 123.8 3639.3 121.7 3601.6 76.8 3600.8 76.9 3568 196.8 3568.1 189.8 3605.1 210.1 3604.5 210.8 3632.4 279.6 3633.8 280.9 3778.4 238.8 3778.4 239.8 3837.8 Z" data-holc_grade="C"/>
<path d="M 439.6 3343.4 404.5 3367.8 287 3365.9 315.1 3326.3 439.6 3321.5 439.6 3343.4 Z M 178 3189.3 194.8 3217.2 203.2 3221.4 213 3237.5 225.6 3252.2 242.4 3267.5 259.3 3275.2 229.8 3323.4 211.5 3356.2 202.3 3389.7 182 3384.8 176.4 3390.4 170.7 3422.5 196.7 3426.7 192.5 3451.1 217.7 3454.7 188.2 3546.8 205.7 3548.9 196.8 3568.1 76.9 3568 76.7 3460.8 116 3459.5 117.4 3431.5 132.9 3423.9 136.4 3374.3 73.3 3373.5 73.3 3330.2 138.6 3324.7 135.8 3257 82.5 3259 80.4 3229 83.3 3187.1 62.9 3187.8 60.8 3156.4 59.5 3122.9 86.8 3118.7 147.9 3122.2 155.5 3173.2 168.9 3171.8 178 3189.3 Z" data-holc_grade="C"/>
<path d="M 1324.5 1133.5 1326 1034.3 1340.2 1035.7 1353.6 1042.4 1363.4 1046.3 1373.1 1049.8 1374.3 1051.6 1371.8 1089.8 1366.6 1101.4 1368.2 1105.6 1371 1130.3 1359.3 1139.8 1324.5 1133.5 Z" data-holc_grade="C"/>
<path d="M 1040.7 1276.5 1041 1298.3 1085.9 1299.1 1086.3 1335.8 1095.7 1361.8 1101.5 1393.6 1113.3 1424.1 1115.3 1431.2 1123.4 1433 1135 1438.6 1142.3 1441.6 1155.1 1441.2 1171.2 1433.6 1185.8 1426.5 1192.6 1419.5 1202.2 1406.3 1241.2 1338.4 1245.5 1326.8 1248.6 1312.6 1247.1 1304.5 1247.7 1298.5 1247.3 1295.6 1245.1 1278.6 1238.9 1244.4 1246.3 1244.6 1250.4 1243.7 1277.6 1295 1283.2 1311.6 1283.1 1318.2 1276.8 1324.7 1279.8 1344.7 1280.3 1352.4 1246.9 1365.5 1231.5 1385.4 1212.9 1420.7 1196.2 1436.5 1189.7 1444.7 1182 1459.2 1180.9 1468 1018 1462 1019 1378.7 1020.1 1303.3 1011.2 1298.1 971.4 1272.8 963.2 1266.3 977.7 1248.6 983.5 1244.1 1039.6 1196.7 1040.7 1276.5 Z" data-holc_grade="C"/>
<path d="M 1019 1378.7 1018 1462 1017.3 1525.6 1017.3 1557.7 1022.2 1588.3 1023 1620.4 987.3 1620.9 985.6 1620.8 893.3 1618.8 892.9 1671.4 924.4 1671.1 924.4 1671.4 925.3 1700.7 907.9 1712.1 902.9 1714.8 868.2 1652.8 868.1 1556.6 870.9 1521 870.7 1472.2 857.1 1472.1 859.5 1406.2 995.3 1405.8 995.4 1377.8 1019 1378.7 Z" data-holc_grade="C"/>
<path d="M 1261.1 1693.1 1190.1 1712.8 1182.6 1712.3 1180.6 1712.3 1093.1 1709.2 1093.3 1699.3 1065.3 1696.8 1041 1693.7 1040.9 1727.4 1014.9 1726.7 985.9 1728.4 985.5 1687 985.6 1620.8 987.3 1620.9 1023 1620.4 1022.2 1588.3 1017.3 1557.7 1017.3 1525.6 1018 1462 1180.9 1468 1178.8 1480.5 1159.1 1523.2 1186.8 1523.5 1187.1 1550.3 1262.8 1549.7 1263 1595 1344.4 1595.1 1341.3 1618.2 1341.4 1637.2 1346.4 1660.9 1373.7 1661.5 1375.3 1685.2 1261.4 1682.9 1261.1 1693.1 Z M 1073.6 1653.4 1073.7 1628.9 1047.7 1625.5 1019.5 1625.6 1019.1 1639 1010.7 1639.3 1010.7 1653.9 1073.6 1653.4 Z M 1102.3 1573.2 1103.3 1527 1119.3 1503.7 1119.5 1472.3 1099.8 1472.3 1099.8 1503.5 1077.6 1533.5 1078.4 1573.2 1102.3 1573.2 Z" data-holc_grade="C"/>
<path d="M 1380.3 1824.6 1377.7 1848.8 1376.4 1870.5 1335.4 1870.7 1334.1 1859.6 1233.5 1857.7 1246.8 1750.2 1182 1750.2 1181.2 1739.4 1180.6 1712.3 1182.6 1712.3 1190.1 1712.8 1261.1 1693.1 1259.9 1715.7 1356.1 1716.2 1355.8 1726.9 1353.1 1742.4 1344.7 1772.4 1344.4 1788.4 1348 1788.9 1386.8 1783.5 1382.7 1803.2 1380.3 1824.6 Z" data-holc_grade="C"/>
</g>
<g id="D">
<path d="M 1284.4 579.6 1285.4 628 1267.5 635.9 1240.7 632.7 1237.6 617.6 1239.1 609.2 1236.5 596.7 1234.4 585.2 1195.6 583.1 1155.1 583.1 1153 577.8 1284.3 576.8 1284.4 579.6 Z" data-holc_grade="D"/>
<path d="M 2020.7 1899.7 2022.8 1904.1 2009.8 1913.9 1969.9 1934.5 1940.8 1938 1913.8 1931.3 1899.5 1923.7 1865.1 1905.5 1833.9 1893 1804.1 1890.6 1781 1893 1778.6 1953.7 1816.8 1953 1899.5 1954 1899.5 2010.5 1938 2011.9 1938.7 2054.8 1883.4 2021.3 1851.3 2020.5 1829.4 2020 1820.3 2040.5 1806.6 2088.3 1796.8 2094.6 1761.7 2108.1 1755.8 2110.3 1709.2 2127.4 1708.5 2115.9 1729.2 2110 1732.3 2103.7 1727.1 2020.3 1718.3 2022.8 1721.1 2016.1 1720 1933.8 1692.3 1932.4 1693.4 1967.7 1675 1969.4 1663.6 1970.4 1659.1 1968.7 1659.1 1930 1655.2 1927.9 1616.3 1943.2 1605.4 1951.2 1601.7 1927.4 1618.4 1917.1 1639.3 1914.3 1644.3 1912.9 1668.1 1905.1 1712.5 1894.8 1777.7 1881 1786.9 1879.9 1814 1880.4 1834.2 1883.6 1847.4 1887.2 1857.4 1889 1864.6 1892.4 1879.3 1901.7 1900.1 1910.3 1930 1924.1 1948.2 1928.6 1953.3 1927.3 1969.3 1923 1988.9 1914.4 2016.5 1895.7 2020.7 1899.7 Z" data-holc_grade="D"/>
<path d="M 1606 1959.6 1564.4 1998.3 1565 2021.8 1572.8 2040.7 1573.4 2060.6 1597 2061.6 1599.7 2119.7 1604.9 2121.8 1601.8 2140.6 1610.7 2138.5 1643.3 2133.3 1642.8 2150.6 1645.4 2163.1 1644.4 2167.8 1609.1 2165.2 1586 2175.7 1545.5 2176.2 1530.8 2177.8 1535 2236.4 1591.8 2235.9 1596 2281.4 1553.9 2290.3 1523.4 2297.1 1518.5 2297.2 1492.9 2297.6 1493.5 2281.4 1492.4 2217 1487.7 2158.9 1393.1 2157.4 1389.9 2117.6 1391.5 2091.4 1386.8 2068.9 1415.7 2064.2 1458.8 2066.8 1537.6 2064.2 1541.8 2017.1 1540.3 2009.8 1534.5 2005.6 1509.2 2022.4 1480.9 2034.9 1478.2 2031.8 1475.1 2021.8 1471.4 2022.9 1433.5 2032.3 1379.4 2040.7 1378.3 2015 1379 1976.1 1396.7 1971.1 1424.1 1958 1439.9 1945.4 1457.2 1929.2 1477.7 1908.9 1479.9 1952.6 1482.2 1973.6 1487.8 1993.5 1518.1 1998.5 1539.2 1977.9 1573 1949.7 1601.7 1927.4 1605.4 1951.2 1606 1959.6 Z" data-holc_grade="D"/>
<path d="M 1380.4 2255.7 1222.7 2251 1219.5 2452.5 1047 2450.3 1047.5 2469.2 1155.9 2470.8 1155.9 2484.4 1162.7 2486.5 1163.2 2525.7 1163.2 2552.4 1036.5 2550.3 1035.9 2586.4 962.9 2508.4 943.4 2508.4 920.3 2453.4 895.1 2451.8 895.1 2431.9 880.9 2407.3 879.8 2387.5 835.7 2387.4 835.7 2316.8 774.2 2312.6 758.4 2257.1 802.1 2240.9 906.7 2180.2 922 2171.9 1024.5 2173.5 1025.5 2192.3 1059.7 2191.3 1060.8 2140 1096 2159.9 1142.8 2174.5 1331.5 2173 1330.5 2180.3 1384.6 2181.4 1406.7 2181.4 1459.3 2184 1426.2 2210.2 1382.5 2231.1 1380.4 2255.7 Z" data-holc_grade="D"/>
<path d="M 1191.3 2901.2 1168.2 2894.9 1157 2857.9 1155.6 2820.2 1184.1 2805 1194.7 2824.1 1200.2 2832.3 1175.7 2847.4 1179.3 2852 1174.1 2854.5 1200.6 2885.3 1206.1 2880.2 1210.1 2885 1191.3 2901.2 Z" data-holc_grade="D"/>
<path d="M 1089.3 2841.5 1076.4 2844.8 1029.8 2842.3 1030.4 2698.6 1054 2699.6 1058.9 2685 1046.8 2661.1 1061.7 2645.5 1047.8 2632.4 1056.1 2619 1119.5 2642.5 1125.9 2686.2 1107.3 2693.6 1116.7 2728.5 1100 2732.6 1115.3 2781 1123.7 2810.8 1128.6 2831.6 1089.3 2841.5 Z M 956.7 2750.8 956.6 2829.9 873 2827.8 876.7 2749.1 956.7 2750.8 Z M 921.5 2787 923.8 2788 927.2 2785.3 928.2 2781.9 927.7 2777.5 925.8 2774.5 923.5 2773.7 920.7 2775.5 920.4 2781.9 921.5 2787 Z" data-holc_grade="D"/>
<path d="M 788.4 2608.1 788.5 2589.4 788.3 2541.1 788.1 2504.6 787.1 2462.6 740 2461.9 738.2 2386.6 821.7 2388.3 877.9 2465.2 935.6 2544.3 959.1 2564.1 957.5 2606.3 921.7 2607.7 788.4 2608.1 Z" data-holc_grade="D"/>
<path d="M 649.4 2438 646.1 2438.2 613 2438.2 613.5 2418.3 633.5 2418.3 636.2 2335.1 656.2 2334.1 655.1 2409.5 652.6 2428.5 650.6 2436.1 649.4 2438 Z" data-holc_grade="D"/>
<path d="M 599.1 2197.5 597 2197.6 513.5 2199 513.3 2167.6 417.2 2159.8 462 2112.3 470.2 2092.3 368.2 2090.6 366.5 2046 367.1 2026.4 483.7 2028.3 490.2 1993 502.8 1923.5 502.7 1912.4 499.1 1888 483.6 1809.1 477.6 1767.9 473.5 1730.7 474.4 1730.5 526.3 1711.8 611.6 1712.9 609.3 1791.4 610.4 1876.5 608.8 2000.3 607.7 2025 672.8 2023.6 749.7 2025 752 2085.3 607.6 2086.1 608.3 2183.3 606.3 2197.3 599.1 2197.5 Z" data-holc_grade="D"/>
<path d="M 876.1 1832.4 871.5 1948.9 859.4 1948.4 858.5 1939.1 853.4 1924.9 840.6 1903 832.3 1894.6 813.6 1872.2 799 1850.8 791.4 1837.3 790.8 1823.2 790.5 1795.5 768.5 1795.2 768.3 1766.4 767.9 1740.7 832.2 1741.2 834.5 1822.2 875.9 1822.4 876.1 1832.4 Z M 682 2258.2 670.9 2257.2 654.7 2234.1 597.9 2233.1 599.1 2197.5 606.3 2197.3 608.3 2183.3 607.6 2086.1 752 2085.3 749.7 2025 672.8 2023.6 607.7 2025 608.8 2000.3 610.4 1876.5 609.3 1791.4 611.6 1712.9 526.3 1711.8 474.4 1730.5 473.5 1730.7 469.9 1731.5 465.7 1706 462.9 1689.2 459.3 1658.4 598.9 1658.4 599.1 1629.3 694.1 1630.3 697.3 1631.3 707.2 1638.4 710.6 1647.2 709.2 1667.3 706.4 1729.5 741.1 1780 740.1 1846.6 783.7 1848.1 782.2 1912.6 825.7 1913.2 824.7 2051.6 874.6 2054 873.5 2080.2 825.1 2093.6 779.6 2196.3 687.3 2251.5 682 2258.2 Z" data-holc_grade="D"/>
<path d="M 908.3 1748.9 958.6 1749 958.3 1819.5 966.7 1819.5 966.7 1834.4 966.1 1844.7 985.7 1844.9 985.2 1836.9 986.6 1834.3 986.6 1819.6 1009.4 1819.1 1008.3 1857.9 1008.1 1937.7 976.7 1937.8 973 1936.4 906.3 1865.9 907.3 1796.7 908.3 1748.9 Z" data-holc_grade="D"/>
<path d="M 1239.3 1054.7 1222.5 1088.7 1209.1 1089.2 1216.9 1053 1195 1053.3 1196.5 1043.7 1207.2 1015.7 1212 1008.3 1279.9 1006.6 1333.3 1007.2 1314.5 1039.7 1286.2 1054.9 1239.3 1054.7 Z" data-holc_grade="D"/>
<path d="M 1380.3 1824.6 1393.5 1819.3 1387.8 1855.1 1385.9 1900.5 1386.8 1912.9 1377 1913.2 1379.8 1956.5 1379 1976.1 1378.8 1979.7 1373.4 1983.8 1358.7 2004.3 1360.2 2028.4 1341.1 2028.6 1291.9 2026.5 1263.6 2025.7 1172.6 2024.7 1171.9 2003.5 1137.6 2003.2 1137.8 1908.6 1109.2 1908.6 1110.4 1869.8 1146.2 1870.7 1146.9 1847.7 1111.1 1847.9 1111.6 1838.2 1111.1 1739.8 1181.2 1739.4 1182 1750.2 1246.8 1750.2 1233.5 1857.7 1334.1 1859.6 1335.4 1870.7 1376.4 1870.5 1377.7 1848.8 1380.3 1824.6 Z" data-holc_grade="D"/>
<path d="M 857.1 1472.1 870.7 1472.2 870.9 1521 868.1 1556.6 868.2 1652.8 902.9 1714.8 877.6 1724.5 847.7 1716.4 839.2 1711 823.8 1694.7 801.9 1694.5 770.2 1663.8 739.1 1623.9 727.2 1607.4 716.5 1591.3 703.3 1557.4 695.7 1543.4 689.2 1532.5 684.8 1487.5 768.2 1488.8 767.8 1471 857.1 1472.1 Z" data-holc_grade="D"/>
<path d="M 411.5 1476.7 459.5 1476.3 484 1484.5 561.1 1497.6 541.7 1520 542.1 1587.7 434.3 1588.4 436.5 1528.9 410.1 1529.5 410.9 1500.7 411.5 1476.7 Z" data-holc_grade="D"/>
<path d="M 168.9 1376.3 263.8 1376.8 263.2 1423.3 289.9 1443.8 334.1 1444 370.8 1468.4 371.6 1505.3 315.2 1506.4 314.6 1557.5 232.1 1557.4 233.1 1506.9 169.2 1506.3 168.9 1376.3 Z" data-holc_grade="D"/>
<path d="M 167.8 1148 292.2 1148.3 292.4 1110.3 278.2 1046.6 326.3 1082.3 334 1090.6 339.3 1101.5 349.8 1136 354.6 1148.6 358.9 1156.6 377.4 1173.2 389.9 1183.2 379.8 1187.5 363.1 1189.9 315 1190.3 314.3 1221.8 244.1 1222 204.9 1210.4 168.2 1210.5 167.8 1148 Z" data-holc_grade="D"/>
<path d="M 679.8 1088.9 682.1 1220.1 695.7 1220.7 695.6 1277.5 634.5 1311.9 627.8 1315.5 602.7 1315.1 598.8 1312.8 582.3 1288.6 557.1 1246.8 545.5 1230.9 537.6 1222.7 528.9 1216.1 564.3 1196.4 613 1197 616.1 1192.5 629.6 1165.6 638.4 1144.9 637.5 1116.5 637.9 1093.2 639.4 1067 679.6 1068.3 679.8 1087.7 679.8 1088.9 Z" data-holc_grade="D"/>
<path d="M 276.4 3243.4 259.3 3275.2 242.4 3267.5 225.6 3252.2 213 3237.5 203.2 3221.4 194.8 3217.2 178 3189.3 188.5 3188.3 199.5 3198.7 216.6 3211 227.5 3228 244.2 3235 258.2 3249.8 270.9 3237.6 257.8 3225.8 267.9 3177 313.9 3177.9 303 3197.5 286.3 3225 276.4 3243.4 Z" data-holc_grade="D"/>
<path d="M 287 3365.9 404.5 3367.8 439.6 3343.4 440.1 3521.3 350.7 3521.2 349 3474.1 293.7 3474 287 3365.9 Z" data-holc_grade="D"/>
<path d="M 76.7 3460.8 73.3 3373.5 136.4 3374.3 132.9 3423.9 117.4 3431.5 116 3459.5 76.7 3460.8 Z" data-holc_grade="D"/>
<path d="M 516.5 3623.4 512.8 3698.9 460.2 3699.9 458.6 3718.7 447.5 3720.3 448.1 3597.2 487.1 3611.9 516.5 3623.4 Z M 618.1 3573.7 617 3641.8 555 3605.7 552.4 3544.4 562.4 3547.5 559.7 3528.1 589.7 3529.7 595 3572.7 618.1 3573.7 Z" data-holc_grade="D"/>
<path d="M 2460.1 1619.6 2460.8 1646.8 2423.7 1646.4 2422.6 1628.3 2403.4 1626.9 2404.4 1578.1 2421.2 1573.2 2433.1 1572.2 2444.7 1568.7 2447.2 1619.9 2460.1 1619.6 Z" data-holc_grade="D"/>
<path d="M 724.3 3828.9 661.7 3784.9 677.5 3759.7 700.6 3776.5 705.4 3758.7 726.4 3773.4 755.4 3743 743.8 3730.4 759.6 3713.7 849.6 3768.2 912.2 3811.7 991.6 3906.5 899.5 3905.5 898.5 3838.4 873.2 3830 856.9 3827.4 828.5 3822.7 803.8 3801.7 794.8 3812.7 755.4 3783.3 724.3 3828.9 Z" data-holc_grade="D"/>
<path d="M 16.3 3850.8 14.9 3798.4 92.8 3799.9 94.9 3848.8 16.3 3850.8 Z M 239.8 3837.8 238.8 3778.4 280.9 3778.4 279.6 3633.8 210.8 3632.4 210.1 3604.5 189.8 3605.1 196.8 3568.1 245.3 3567.5 250.1 3598.2 296.4 3601.7 297.7 3839.2 239.8 3837.8 Z" data-holc_grade="D"/>
<path d="M 89 4105.2 4.1 4099.5 6.9 4051.3 75.8 3980.8 76.6 3891.4 80.1 3891.4 81.5 3885.1 125 3884.5 124.2 3976 90.5 3999 89 4105.2 Z" data-holc_grade="D"/>
<path d="M 2847.6 1584.9 2868.1 1531.3 2872 1453.3 2866.2 1420.1 2862.3 1400.5 2868.8 1383.5 2834.2 1380.9 2867 1328.6 2885.8 1282.8 2898.5 1293.7 2906.4 1297.2 2922.6 1310.7 2944.5 1308.5 2945 1374.7 2910 1377.4 2910.1 1534.7 2948.7 1535.1 2948.6 1505.9 2999 1504.1 2996 1568.2 2942.6 1586.6 2895.3 1587.5 2847.6 1584.9 Z" data-holc_grade="D"/>
<path d="M 2624.8 1659.9 2626.7 1649 2680.5 1622.2 2688.2 1642.1 2812.5 1587.6 2827.6 1611.6 2807 1647.2 2796.1 1647.2 2723.3 1658.1 2724.7 1669.3 2661.6 1675.9 2660.6 1737.3 2627.3 1737.7 2629.7 1673.2 2624.8 1659.9 Z" data-holc_grade="D"/>
<path d="M 2552.1 1734.4 2493.9 1754.5 2482.5 1740.5 2506.4 1732.2 2503.6 1723.1 2545.3 1710.2 2552.1 1734.4 Z" data-holc_grade="D"/>
<path d="M 2212.1 1822.1 2211.9 1818.7 2208.3 1771.6 2225.4 1770.7 2224.5 1753.3 2239.4 1750.2 2253.4 1752.4 2285.8 1666.1 2333.5 1662.6 2335.3 1682.2 2361.6 1681.3 2362.9 1746.3 2391 1744.5 2390.5 1715.3 2410.2 1721.8 2424.7 1731 2427.7 1739.7 2353.7 1769.8 2353.7 1761.1 2212.1 1822.1 Z" data-holc_grade="D"/>
<path d="M 2272.8 1938.9 2255.4 1902.3 2254.4 1897.2 2231.1 1844.4 2270.1 1826.1 2275.4 1828.7 2307.8 1892.8 2303 1910.7 2292.1 1926.8 2272.8 1938.9 Z" data-holc_grade="D"/>
<path d="M 2192.3 1910.7 2160.8 1911.7 2159.7 1858.4 2104.5 1861 2091.4 1891.9 2093.5 1913.3 2058.3 1922.2 2057.8 1944.7 2043.1 1944.7 2038.9 1908.1 2028.6 1912.3 2022.8 1904.1 2020.7 1899.7 2087.3 1853.7 2104.6 1849.1 2145.2 1844.1 2177.2 1840.9 2183 1869.3 2185.7 1892.4 2192.3 1910.7 Z" data-holc_grade="D"/>
</g>
</svg>