<?xml version="1.0"?>
<svg xmlns="http://www.w3.org/2000/svg" version="1.2" baseProfile="tiny" width="3000" height="2301" viewBox="0 0 3000 2301" stroke-linecap="round" stroke-linejoin="round">
<g id="A">
<path d="M 640.9 1159.1 584 1157.7 581.2 1190.5 495.5 1184.2 492 1192.6 494.1 1202.4 491.3 1208 368.4 1198.9 351.5 1324.7 328.3 1321.9 317 1431.6 275.6 1423.2 133 1414.8 144.9 1460.9 116.8 1458.8 104.2 1427.4 92.9 1401.5 88.7 1371.4 93.7 1366.5 100.7 1355.3 107 1342.8 113.3 1327.4 116.2 1312 109.9 1300.1 96.5 1288.9 74.7 1283.3 54.4 1278.4 31.2 1275.6 13.6 1272.1 1 1263 25.6 1200.8 83.2 1198.7 260.2 1207.2 263.7 1190.4 265.1 1179.2 267.9 1169.5 275.7 1161.1 287.6 1153.4 303.8 1149.9 370.5 1152.7 382.4 1151.3 394.4 1140.1 400 1089.8 434.4 1093.3 433 1115 639.5 1127.6 640.9 1128.3 640.9 1159.1 Z" data-holc_grade="A"/>
</g>
<g id="B">
<path d="M 1393 332.8 1434.8 367.8 1441.1 382.1 1433.7 406.6 1420 426.8 1393.7 447.1 1371.2 469.1 1354.4 496.4 1330.2 514.2 1320 528.9 1304.5 537.3 1300 547.4 1294 553.7 1283.1 567.7 1256.8 585.1 1249.1 597.7 1230.1 630.6 1096.3 564.8 1112.1 461.4 1116.4 424.7 1117.1 401.7 1122.7 380 1135 342.2 1393 332.8 Z" data-holc_grade="B"/>
<path d="M 1005 1633.5 1002.9 1686.4 965.8 1780.3 927.6 1761.9 951.2 1707 956.4 1682.7 957.9 1675.7 962.1 1609.4 964.7 1567.8 965.3 1568.3 986.6 1567.8 1007.4 1572.3 1005 1633.5 Z" data-holc_grade="B"/>
<path d="M 144.9 1460.9 133 1414.8 275.6 1423.2 317 1431.6 315.3 1483.9 314.6 1483.9 300.2 1484.6 281.6 1479.3 144.9 1460.9 Z" data-holc_grade="B"/>
<path d="M 2572.1 208.8 2571.9 208.5 2572.2 208.5 2573.6 208.9 2572.1 208.8 Z M 2572.1 208.8 2582.5 235.3 2488.6 380.8 2445.6 445.4 2406.5 427.4 2428.8 395.9 2346.2 364.9 2347.4 299.1 2349.1 272.7 2383.2 254.6 2417.8 261.8 2423.3 255.9 2475.1 255.9 2503.7 260.9 2507.9 215.2 2520.6 207.2 2572.1 208.8 Z" data-holc_grade="B"/>
<path d="M 640.9 1159.1 636 1216.1 601.9 1218.9 598.4 1255.3 558.4 1254.2 554.1 1318.5 526.4 1321.7 520 1373.1 487 1369.9 487.4 1340.2 351.5 1324.7 368.4 1198.9 491.3 1208 494.1 1202.4 492 1192.6 495.5 1184.2 581.2 1190.5 584 1157.7 640.9 1159.1 Z" data-holc_grade="B"/>
<path d="M 779.3 1111.4 779.9 1147.4 866.3 1155.8 867.5 1168.8 890.7 1173.4 886.1 1198.6 881 1198.6 861.5 1196.9 676.3 1180.6 672.1 1218.4 636 1216.1 640.9 1159.1 640.9 1128.3 639.5 1127.6 433 1115 434.4 1093.3 434.8 1067.3 434.4 1067.2 612.8 1079.8 655.6 1082.8 660.2 1045.5 693.1 1048.4 693.5 1084.1 779 1095.4 779.3 1111.4 Z" data-holc_grade="B"/>
<path d="M 957.9 1409.6 942.3 1402.9 933.4 1423.4 856.3 1394.1 786.8 1412.9 761.9 1332.4 762.3 1333.2 848.3 1311.2 902.7 1297.2 1005.9 1334.1 992.9 1366 980.6 1361 957.9 1409.6 Z" data-holc_grade="B"/>
<path d="M 1240.4 1237.7 1270.7 1249.1 1280.6 1288 1285.8 1308.2 1234.1 1417.6 1286.8 1441.7 1284.3 1501.2 1242.6 1505 1190.6 1480.9 1195.5 1469.3 1195.1 1464.1 1147.4 1443.1 1185.6 1358.7 1225.3 1271.2 1240.4 1237.7 Z M 1240.4 1237.7 1240.1 1237.6 1240.5 1237.6 1240.4 1237.7 Z" data-holc_grade="B"/>
<path d="M 1400 1528.5 1485.8 1538.1 1486.5 1589.1 1478.1 1592.3 1376.3 1576.2 1380.1 1526.2 1379.8 1526.2 1380.1 1526.2 1400 1528.5 Z" data-holc_grade="B"/>
</g>
<g id="C">
<path d="M 1147.4 1634.7 1005 1633.5 1007.4 1572.3 986.6 1567.8 965.3 1568.3 964.7 1567.8 962.1 1609.4 957.9 1675.7 956.4 1682.7 747.5 1650.2 748.9 1597.8 754.5 1536.3 643.6 1520.1 637.2 1524.3 637.2 1549.5 545.9 1656.5 442.6 1790.7 358.1 1728.2 501.3 1537.8 512.9 1447.2 511.9 1444.9 513.1 1444.9 614.5 1443.5 1082.1 1463.7 1112.3 1473.8 1140 1491 1145.3 1504.6 1147.4 1634.7 Z" data-holc_grade="C"/>
<path d="M 672.1 1218.4 668.1 1266.3 635.5 1265.8 632.1 1301.5 667 1303.8 663 1356.9 761.9 1332.4 786.8 1412.9 856.3 1394.1 933.4 1423.4 942.3 1402.9 957.9 1409.6 1082.1 1463.7 614.5 1443.5 513.1 1444.9 520 1373.1 526.4 1321.7 554.1 1318.5 558.4 1254.2 598.4 1255.3 601.9 1218.9 636 1216.1 672.1 1218.4 Z" data-holc_grade="C"/>
<path d="M 1207 1168.2 1191.2 1202.9 1140.3 1182.4 1110.8 1252.4 1123 1282.6 1087.6 1363.8 1123 1381.7 1144.9 1340.9 1185.6 1358.7 1147.4 1443.1 1131.1 1436.1 1112.3 1473.8 1082.1 1463.7 957.9 1409.6 980.6 1361 992.9 1366 1005.9 1334.1 902.7 1297.2 848.3 1311.2 861.5 1196.9 881 1198.6 886.1 1198.6 890.7 1173.4 867.5 1168.8 866.3 1155.8 779.9 1147.4 779.3 1111.4 873.8 1124.5 877.2 1104.3 937.8 1110.6 987.3 1115.5 991.8 1113.2 984.6 1075.2 984 1060.2 1056.4 1082 1065.4 1055.1 1107.5 1068.5 1112.6 1066.8 1136.7 996.4 1152.9 963.5 1183.8 930 1202 905.9 1255.9 927.9 1243.7 965.7 1354.9 1012.7 1240.3 1065.9 1233.1 1088.2 1208.7 1095.3 1176.6 1154.8 1207 1168.2 Z" data-holc_grade="C"/>
<path d="M 1240.4 1237.7 1240.5 1237.6 1240.1 1237.6 1240.4 1237.7 1225.3 1271.2 1167.7 1271.6 1191.2 1202.9 1207 1168.2 1303.6 1209.5 1335.7 1127.9 1340.7 1125.1 1354.8 1131.2 1367.7 1107.2 1411 1126.8 1368.3 1235.3 1321.1 1240.3 1304.8 1271 1300.3 1271.6 1280.6 1288 1270.7 1249.1 1240.4 1237.7 Z" data-holc_grade="C"/>
<path d="M 1408.8 1347.3 1400 1528.5 1380.1 1526.2 1379.8 1526.2 1380.1 1526.2 1376.3 1576.2 1478.1 1592.3 1486.5 1589.1 1485.8 1538.1 1548.6 1545.8 1549.7 1509.1 1603.7 1532.9 1569.4 1615.1 1470.4 1604.2 1465.8 1607 1463.7 1621 1370.3 1611.6 1371.3 1592.3 1327.8 1586.4 1279.3 1553.2 1284.3 1501.2 1286.8 1441.7 1327.1 1460.9 1334.8 1447.6 1338.3 1410.6 1367.8 1415.5 1372.7 1407.8 1373.4 1370 1342.5 1358.1 1304.8 1271 1321.1 1240.3 1368.3 1235.3 1408.8 1347.3 Z" data-holc_grade="C"/>
<path d="M 2831.5 1342.9 2809.7 1403 2987.5 1477.7 2944 1595.2 2887.8 1571.5 2892 1556.1 2847.7 1538.6 2841.4 1551.9 2758.5 1515.6 2759.9 1500.9 2699.5 1473 2722.6 1417 2663.6 1391.2 2707.8 1287.7 2831.5 1342.9 Z" data-holc_grade="C"/>
<path d="M 2445.6 445.4 2381.7 523.1 2319.2 506.3 2271.5 627.3 2398.6 671.3 2383.9 769.8 2260.3 783.8 2194.3 766.4 2228 662.9 2150.7 635 2184.4 513.4 2152.8 502.2 2155.6 481.2 2188.6 418.3 2223 405.7 2219.5 375 2227.2 342.8 2281.1 305.1 2349.1 272.7 2347.4 299.1 2346.2 364.9 2428.8 395.9 2406.5 427.4 2445.6 445.4 Z" data-holc_grade="C"/>
<path d="M 2572.2 208.5 2571.9 208.5 2572.1 208.8 2520.6 207.2 2507.9 215.2 2503.7 260.9 2475.1 255.9 2423.3 255.9 2429.4 229 2464.4 146.9 2504.8 72.6 2513.6 56 2540.8 1 2669.8 49 2667.1 63 2642.6 90.1 2619.8 118 2604 141.6 2572.2 208.5 Z" data-holc_grade="C"/>
</g>
<g id="D">
<path d="M 1238.3 770.5 1237.7 770.1 1238.4 770.3 1238.3 770.5 Z M 1238.3 770.5 1357.6 844.1 1392.5 764.2 1458.8 789.9 1477.9 779.3 1554.8 770.3 1568.9 789.3 1571.1 810 1565.5 825.7 1545.3 839.1 1521.7 834.6 1515.5 839.1 1522.8 870.4 1531.2 876.6 1540.8 872.6 1553.2 856.4 1568.9 845.8 1586.9 844.7 1593.6 850.8 1626.7 953.8 1750.9 1004.6 1755.8 1000.4 1782.1 937.5 1842.7 961.1 1819 1030.3 1938.1 1079.5 1924.1 1109.7 1923.5 1131 1929.7 1146.1 1811.2 1283.7 1821.3 1292.6 2071.9 1401.1 2051.7 1453.7 1961.2 1486.1 1754.1 1403.9 1715.9 1390.5 1699.6 1409.5 1673.2 1471.5 1475.1 1400.2 1471.6 1349.1 1408.8 1347.3 1368.3 1235.3 1411 1126.8 1367.7 1107.2 1354.8 1131.2 1340.7 1125.1 1335.7 1127.9 1303.6 1209.5 1207 1168.2 1176.6 1154.8 1208.7 1095.3 1233.1 1088.2 1240.3 1065.9 1354.9 1012.7 1243.7 965.7 1255.9 927.9 1202 905.9 1185 893.3 1238.3 770.5 Z M 1503.7 1384.6 1522.7 1385.7 1527.9 1381.1 1526.9 1363 1533.2 1361.9 1537.4 1357.7 1537.8 1331.8 1524.1 1330.1 1523 1286.1 1485.8 1285 1485.1 1332.5 1502.3 1337.8 1504.1 1354.6 1501.9 1360.5 1503.7 1384.6 Z" data-holc_grade="D"/>
<path d="M 2137.5 1372.8 2200.1 1403.2 2210.3 1418.9 2455.1 1518.8 2371.5 1638.7 2332.5 1567.4 2216.2 1512.6 2202.9 1445.8 2192.3 1429.7 2125.3 1406.3 2137.5 1372.4 2137.5 1372.8 Z" data-holc_grade="D"/>
<path d="M 1754.1 1403.9 1735.6 1449.1 1786.1 1470.1 1788.3 1476.4 1779.1 1492.4 1781.9 1498.7 1809.3 1511.3 1822.7 1486.8 1954.7 1542.8 1990.6 1512 2031.3 1530.9 2054.5 1482.6 2259.2 1562.3 2321.6 1634.4 2309.2 1667.4 2363.7 1690.3 2388.5 1741.8 2153.6 1927 1969.1 2063.5 1933.1 2042.3 1896.1 2073.6 1883.7 2044 1747.1 2124.5 1783.1 2188.3 1681.9 2300.2 1593.7 2157 1456.5 2216.8 1382.9 2094.9 1396.4 2062.4 1441.9 2079.2 1481.8 1974.2 1360.9 1883.6 1548.1 1723 1580.6 1735 1605.3 1672.2 1640.4 1675 1715.7 1488.8 1673.2 1471.5 1699.6 1409.5 1715.9 1390.5 1754.1 1403.9 Z" data-holc_grade="D"/>
<path d="M 1065.4 1055.1 1056.4 1082 984 1060.2 984.6 1075.2 939.6 1074.2 937.8 1110.6 877.2 1104.3 873.8 1124.5 779.3 1111.4 779 1095.4 693.5 1084.1 693.1 1048.4 660.2 1045.5 655.6 1082.8 612.8 1079.8 616.5 1041.5 453.2 1026.5 455 996.8 456.8 972.4 493.7 825.6 661.3 883.3 694.7 894.7 866.7 935.8 980 968.1 982.6 991.7 1037.9 1021.4 1032.6 1041.5 1065.4 1055.1 Z" data-holc_grade="D"/>
<path d="M 1147.4 1443.1 1195.1 1464.1 1195.5 1469.3 1190.6 1480.9 1242.6 1505 1284.3 1501.2 1279.3 1553.2 1327.8 1586.4 1371.3 1592.3 1370.3 1611.6 1463.7 1621 1465.8 1607 1470.4 1604.2 1569.4 1615.1 1603.7 1532.9 1549.7 1509.1 1550.2 1468.1 1657.9 1511.1 1673.2 1471.5 1715.7 1488.8 1640.4 1675 1605.3 1672.2 1147.4 1634.7 1145.3 1504.6 1140 1491 1112.3 1473.8 1131.1 1436.1 1147.4 1443.1 Z" data-holc_grade="D"/>
<path d="M 2177.1 1216.3 2343.3 1283.5 2336.9 1292.9 2467.6 1346.4 2459.7 1366 2458.2 1369.9 2458 1370.2 2442.3 1409.3 2332.7 1365.3 2325.4 1380 2192.6 1324.4 2153.6 1277.3 2177.1 1216.3 Z M 2177.1 1216.3 2174.7 1215.4 2177.8 1214.3 2177.1 1216.3 Z" data-holc_grade="D"/>
<path d="M 2663.6 1391.2 2722.6 1417 2699.5 1473 2759.9 1500.9 2758.5 1515.6 2841.4 1551.9 2847.7 1538.6 2892 1556.1 2887.8 1571.5 2944 1595.2 2911.3 1680.7 2664.9 1577.6 2637.7 1644.9 2700.9 1672 2683.4 1719.2 2662.3 1754.2 2521.8 1692.2 2542.5 1634.7 2501.4 1615.9 2520.3 1562.4 2556.2 1573.9 2564.6 1573.9 2575.1 1536.2 2505.6 1505.8 2525.6 1440.7 2442.3 1409.3 2458 1370.2 2458.2 1369.9 2459.7 1366 2549.4 1404.6 2563.5 1373.2 2655.7 1407.2 2663.6 1391.2 Z" data-holc_grade="D"/>
<path d="M 2831.5 1342.9 2861.1 1363.4 2891.9 1373 2935.8 1401.9 2989.3 1426.3 2999 1442 2987.5 1477.7 2809.7 1403 2831.5 1342.9 Z" data-holc_grade="D"/>
<path d="M 1990.3 1012.1 2029.1 1007.1 2109.4 1032.8 2107.2 1050.7 2110 1055.7 2150.5 1069.7 2153.8 1074.7 2046 1351 1969.6 1268.8 2006.6 1173.8 1994.3 1166.5 1992 1160.3 2003.8 1131.3 1997.1 1116.2 1955.5 1097.7 1982.5 1019.4 1990.3 1012.1 Z" data-holc_grade="D"/>
<path d="M 2227.2 342.8 2219.5 375 2223 405.7 2188.6 418.3 2155.6 481.2 2152.8 502.2 2081.7 476.4 2067.1 502.7 2012.7 483.1 2091.3 417.1 2132.3 403.7 2214.9 347.2 2227.2 342.8 Z" data-holc_grade="D"/>
<path d="M 2150.7 635 2228 662.9 2194.3 766.4 2155.4 754.8 2122.2 739.2 2150.7 635 Z" data-holc_grade="D"/>
<path d="M 2229.8 1098.6 2352.7 1156.6 2406.8 1171.3 2391 1217.8 2306.3 1188.1 2296.9 1207.7 2202.7 1167.5 2229.8 1098.3 2229.8 1098.6 Z" data-holc_grade="D"/>
</g>
</svg>