<?xml version="1.0"?>
<svg xmlns="http://www.w3.org/2000/svg" version="1.2" baseProfile="tiny" width="3000" height="4113" viewBox="0 0 3000 4113" stroke-linecap="round" stroke-linejoin="round">
<g id="A">
<path d="M 1496.4 1905.5 1333.4 1908.3 1331.8 1780.6 1327.4 1758.4 1491.6 1753.7 1497.4 1805.4 1496.4 1905.5 Z" data-holc_grade="A"/>
<path d="M 563 2270.9 590.5 2274.2 586.1 2316.2 579.4 2373.5 530.3 2363.3 519 2484 520 2511.7 617.8 2507.3 620.8 2402.1 828.5 2432.2 819.8 2511.3 670.4 2489.4 665.5 2582 526.8 2582.5 525.3 2666.8 334 2670.6 206.6 2672.5 205.8 2341.9 204.9 2236.2 336.8 2252.2 563 2270.9 Z" data-holc_grade="A"/>
</g>
<g id="B">
<path d="M 204.9 2236.2 205.8 2341.9 206.6 2672.5 1.6 2677.4 1 2210.4 94.3 2218.5 204.9 2236.2 Z" data-holc_grade="B"/>
<path d="M 1496.4 1905.5 1496.4 1947.1 1445.7 1947.9 1447.4 2069.1 1575.9 2068.7 1584 2098.6 1571 2146.6 1568.8 2150.3 1535 2204.4 1299.8 2180.2 1294.9 1915.1 1272.6 1915.1 1270.6 1777.8 1267.8 1758.8 1327.4 1758.4 1331.8 1780.6 1333.4 1908.3 1496.4 1905.5 Z M 1496.4 1905.5 1497.4 1805.4 1491.6 1753.7 1514.9 1753.2 1522.1 1753 1540.9 1816 1555.5 1907.8 1496.4 1905.5 Z" data-holc_grade="B"/>
<path d="M 334.7 2765.4 334 2670.6 525.3 2666.8 526.8 2582.5 665.5 2582 670.4 2489.4 819.8 2511.3 828.5 2432.2 620.8 2402.1 617.8 2507.3 520 2511.7 519 2484 530.3 2363.3 579.4 2373.5 586.1 2316.2 894.3 2347 888.2 2476.6 843.5 2570.4 820.4 2610 783.1 2688.7 668.3 2694.4 667.9 2662.9 574.2 2665.7 572.1 2758.2 334.7 2765.4 Z" data-holc_grade="B"/>
<path d="M 1875.1 3330.9 1870.6 3381 1782.3 3367.4 1703.5 3359 1695 3429.2 1540.1 3416.3 1330.5 3400.8 1330.8 3242 1305.5 3238.1 1310.4 3169.3 1401.2 3033.5 1465.8 2925.8 1522.3 2838.9 1584.2 2848.2 1655.6 2851.8 1631.9 3043.5 1746.9 3055.1 1869.9 3057.4 1860.5 3138.5 1895.5 3142.7 1875.1 3330.9 Z" data-holc_grade="B"/>
<path d="M 1164.4 89.3 1025.4 98.8 975.3 103.8 974 18.3 1079.6 14 1078.7 42.2 1120 38.5 1118.6 10.5 1145.6 9.1 1164.4 89.3 Z" data-holc_grade="B"/>
</g>
<g id="C">
<path d="M 1588.5 1751.2 1594.6 1811.8 1608 1811.8 1612.5 1903.9 1669.6 1903.9 1669.6 1932.2 1660.7 2063.9 1654.5 2147.8 1568.8 2150.3 1571 2146.6 1584 2098.6 1575.9 2068.7 1447.4 2069.1 1445.7 1947.9 1496.4 1947.1 1496.4 1905.5 1555.5 1907.8 1540.9 1816 1522.1 1753 1588.5 1751.2 Z M 1570.2 2022.4 1562.1 1954.8 1495.6 1953.6 1492.3 2024 1570.2 2022.4 Z" data-holc_grade="C"/>
<path d="M 1342.5 2378.7 1341.5 2380.1 1286.8 2371.7 1284.6 2426.2 1228.2 2420.1 1225 2450 1167.4 2441.1 1167.8 2467.4 1120.7 2458.9 1116.7 2504.6 923.8 2482.7 905.1 2524.7 895.8 2545.3 884 2576.8 822.8 2738.9 615.7 2746.5 614.9 2814.8 424.8 2822.7 335.5 2826.4 334.7 2765.4 572.1 2758.2 574.2 2665.7 667.9 2662.9 668.3 2694.4 783.1 2688.7 820.4 2610 843.5 2570.4 888.2 2476.6 894.3 2347 586.1 2316.2 590.5 2274.2 563 2270.9 565 2206.7 753.6 2228.5 861 2244.7 974.2 2258.9 970.6 2283.9 1020.3 2289.3 1097.4 2297.7 1113.6 2167.2 1157 2171.3 1149.7 2020.6 1176.5 2020.6 1173.3 1782.2 1169.2 1756.4 1267.8 1758.8 1270.6 1777.8 1272.6 1915.1 1294.9 1915.1 1299.8 2180.2 1535 2204.4 1435.4 2368.5 1429.1 2378.9 1367.5 2343.4 1342.5 2378.7 Z" data-holc_grade="C"/>
<path d="M 2075.2 1751.6 2080.4 1783.2 2120 1783.9 2130.4 1852.4 2131.7 1970.7 2177.8 1967.4 2182.3 2027.5 2091.5 2027.5 1962.4 2021.1 1970.2 1972 1976.6 1752.2 2026.6 1754.2 2075.2 1751.6 Z" data-holc_grade="C"/>
<path d="M 2056.8 2628 2153.6 2644 2221.8 2652.2 2217.9 2694.9 2218.4 2758.9 2161.9 2756.5 2043.7 2736.7 2039.3 2807.9 2217.9 2820.5 2217 2893.7 2340.4 2907.3 2341.4 3035.8 2442.2 3032.3 2445.6 3229.7 2235.4 3231.7 2237.8 3387.4 2134.6 3381.1 2052.4 3382.6 2002.7 3384 1917 3381.1 1910.7 3408.8 1912.6 3419 1903.5 3431.3 1888.3 3432.9 1820.6 3430.5 1764.6 3432.1 1689.5 3436.6 1686.7 3520.6 1398 3526.3 1336 3448.7 1323 3414.3 1319.3 3395.3 1272.9 3239.1 1286.6 3243 1292.9 3166.3 1269.5 3160.5 1278.3 3155.2 1234.5 3126.1 1267.6 3079 1343.5 2958.8 1369.3 2910.3 1409.7 2858.4 1434.6 2817.7 1484.2 2734.3 1548.4 2645.1 1594.7 2673.7 1624.9 2629.5 1724.6 2696.4 1821.5 2557.3 1877.9 2591.2 1927.1 2604.8 1920.8 2646.5 1903.7 2647.9 1896 2702.7 1934.2 2711 1934.2 2727.5 2026.1 2742.5 2027.1 2720.7 2046.6 2723.1 2056.8 2628 Z M 1875.1 3330.9 1895.5 3142.7 1860.5 3138.5 1869.9 3057.4 1746.9 3055.1 1631.9 3043.5 1655.6 2851.8 1584.2 2848.2 1522.3 2838.9 1465.8 2925.8 1401.2 3033.5 1310.4 3169.3 1305.5 3238.1 1330.8 3242 1330.5 3400.8 1540.1 3416.3 1695 3429.2 1703.5 3359 1782.3 3367.4 1870.6 3381 1875.1 3330.9 Z M 1885.9 2924.6 1955.5 2926.2 1961.7 2881.1 1896.4 2877.1 1885.9 2924.6 Z" data-holc_grade="C"/>
<path d="M 490.8 3813.8 576.8 3856.9 524.5 3953.9 506.3 3977.5 488.7 4017.6 437.7 4111.7 344.3 4059.2 396.3 3960.9 419.6 3929.6 490.8 3813.8 Z" data-holc_grade="C"/>
<path d="M 1025.4 98.8 1164.4 89.3 1164.5 114.2 1172.1 135.8 1178.9 192.2 1191.7 240.7 1191 252.1 1110.4 269 1116.7 311.2 1187.2 296 1195.2 338.2 1207.3 372.1 1208.6 393.4 1214.9 410.4 1214 424.5 1231 496.1 1241.9 518.9 1242.4 541.7 1251.5 567.2 1256.7 605.9 1271.2 645.3 1281 679.2 1315.9 725.4 1287.8 727.6 1259.9 728.6 1195.7 728.9 1180.6 677 1155.9 576.1 1130 483.4 1119.4 429 1117 389.6 1092 391.2 1084.6 322.1 1056.3 324.4 1028.2 195.6 1025.4 98.8 Z M 1312.7 1 1326.3 178.9 1416.7 150.5 1415.8 298.3 1370.9 305.3 1289.4 310.1 1252.3 2.6 1312.7 1 Z" data-holc_grade="C"/>
</g>
<g id="D">
<path d="M 1588.5 1751.2 1522.1 1753 1514.9 1753.2 1483.1 1611.6 1483.8 1546.3 1479.2 1523.7 1443.6 1399.6 1501.3 1398.3 1533.1 1546.3 1536.3 1596.1 1588.5 1751.2 Z" data-holc_grade="D"/>
<path d="M 2125.8 1538.9 2125.1 1602.9 2203 1597.1 2201.7 1709.5 2409.9 1611.9 2403.6 2008.7 2217.4 2058.5 2199.9 2057.9 2103.8 2062.4 2046.7 2063.7 1953.3 2052.1 1882.6 2048.9 1833.9 2043.1 1848.2 1911.2 1835.2 1897 1778.8 1713.5 1830.6 1622.3 1896.8 1494.4 1959.1 1430.4 2138.7 1429.1 2125.8 1538.9 Z M 2075.2 1751.6 2026.6 1754.2 1976.6 1752.2 1970.2 1972 1962.4 2021.1 2091.5 2027.5 2182.3 2027.5 2177.8 1967.4 2131.7 1970.7 2130.4 1852.4 2120 1783.9 2080.4 1783.2 2075.2 1751.6 Z" data-holc_grade="D"/>
<path d="M 1169.2 1756.4 1173.3 1782.2 1176.5 2020.6 1149.7 2020.6 1157 2171.3 1113.6 2167.2 1097.4 2297.7 1020.3 2289.3 1036.4 2086.4 1027.8 2087.2 1027.9 1848.5 1022.2 1754.3 1169.2 1756.4 Z" data-holc_grade="D"/>
<path d="M 974.2 2258.9 861 2244.7 753.6 2228.5 565 2206.7 566.3 2065.3 833.1 2060.1 834.3 2083.9 888.2 2085.6 889 2143.7 983.5 2153.5 974.2 2258.9 Z" data-holc_grade="D"/>
<path d="M 1062.2 3066.3 1068.3 3071.9 1070.7 3079.2 1072.3 3090.1 1061 3133.4 1045.2 3145.5 1032.6 3158 1017.6 3175.8 1009 3186.3 1005 3198.4 1005.8 3214.2 1000.9 3238 994 3261.9 992 3277.6 989.6 3287.7 985.1 3297.8 977.8 3331.4 965.2 3361.7 957.9 3372.6 947.3 3399.3 842.7 3402.5 843.9 3365.7 739.2 3366.9 825.3 3212.9 886.1 3244.9 985.9 3064.6 1018.8 3068.7 1025.3 3038.4 1034.2 3038.8 1037.1 3046.5 1039.9 3050.9 1048.4 3057 1054.9 3060.2 1062.2 3066.3 Z M 906 3075.3 843.1 3188.8 682.5 3179.5 656.2 3253.2 609 3254.7 598.8 3041.8 732 3031.6 828.4 2909.4 828.9 2879.9 841.5 2874 937.5 2750.9 1007.5 2747.5 1154.5 2587.1 1176.9 2616.1 1036.9 2767.9 883.1 2929.8 794 3013.7 833.4 3032.1 906 3075.3 Z M 1342.5 2378.7 1343.3 2387 1318.1 2471.4 1328.3 2480.3 1232.9 2564 1201.3 2531.6 1252 2488.8 1202.5 2483.2 1069.9 2597.5 1046 2622.1 992.4 2612 990.4 2639.1 903.6 2628.2 906.4 2737.7 842.1 2736.4 839.7 2801.5 674.2 2805.5 675.3 2973.6 607.8 2975.6 608.2 3020.9 557.9 3036.6 429.7 3045 424.8 2822.7 614.9 2814.8 615.7 2746.5 822.8 2738.9 884 2576.8 983.7 2582.9 989.8 2530.8 905.1 2524.7 923.8 2482.7 1116.7 2504.6 1120.7 2458.9 1167.8 2467.4 1167.4 2441.1 1225 2450 1228.2 2420.1 1284.6 2426.2 1286.8 2371.7 1341.5 2380.1 1342.5 2378.7 Z M 1435.4 2368.5 1535 2204.4 1568.8 2150.3 1654.5 2147.8 1646.8 2180.2 1494.4 2402.4 1435.4 2368.5 Z" data-holc_grade="D"/>
<path d="M 2442.2 3032.3 2341.4 3035.8 2340.4 2907.3 2217 2893.7 2217.9 2820.5 2039.3 2807.9 2043.7 2736.7 2161.9 2756.5 2218.4 2758.9 2217.9 2694.9 2221.8 2652.2 2153.6 2644 2056.8 2628 1927.1 2604.8 1877.9 2591.2 1821.5 2557.3 1724.6 2696.4 1624.9 2629.5 1799.1 2389.9 1810.8 2340.6 1863.5 2231.1 1891.5 2238.4 1896.4 2210.5 1912.6 2187.1 1946.6 2194.3 1951.9 2139 2107.9 2111.9 2335.1 2060.5 2632.4 2063.3 2830.4 2061.2 2991.8 2060.7 2994.3 2291.3 2998.1 2616.6 2999 2705.5 2711 2706.8 2712.3 2757.7 2835.6 2758.5 2840.1 2845 2669.3 2837.4 2668.9 2895.1 2438.7 2872.2 2442.2 3032.3 Z M 2075.5 2521.1 2177.7 2536.6 2182.5 2480.4 2080.8 2468.8 2075.5 2521.1 Z M 2812.7 2508.8 2733.6 2506 2670 2497.2 2670 2546.5 2813.1 2549.2 2812.7 2508.8 Z M 2225.6 2816.9 2333.9 2824.2 2333.4 2791.4 2223.9 2784.2 2225.6 2816.9 Z" data-holc_grade="D"/>
<path d="M 1484.2 2734.3 1434.6 2817.7 1409.7 2858.4 1369.3 2910.3 1343.5 2958.8 1267.6 3079 1196.2 3032.7 1163.1 3081.2 1234.5 3126.1 1278.3 3155.2 1269.5 3160.5 1231.7 3214.1 1135.3 3146.6 1092 3204.8 1062.8 3337.7 1044.3 3395 1016.6 3394.9 1023.8 3371.7 1032.6 3359 1039.4 3340.6 1047.7 3327 1054 3227.1 1060.9 3204.3 1071.1 3181.1 1083.3 3165.6 1096.9 3146.2 1103.7 3136.9 1124.6 3079.2 1147.5 3037.1 1154.3 3021.5 1159.7 2995.4 1186 2959.5 1222.5 2912.9 1238.1 2894.5 1242.9 2880 1248.3 2868.3 1255.6 2861.5 1270.2 2840.2 1280.4 2817.4 1320.8 2772.8 1373.1 2800.9 1433 2727.7 1484.2 2734.3 Z" data-holc_grade="D"/>
<path d="M 1044.3 3395 1319.3 3395.3 1323 3414.3 1336 3448.7 1398 3526.3 1686.7 3520.6 1689.5 3436.6 1764.6 3432.1 1820.6 3430.5 1888.3 3432.9 1903.5 3431.3 1903.7 3431.3 1929.7 3428.5 2087.1 3430.9 2094.8 3504.8 2094.8 3546.9 2094.9 3694 2006 3702.5 2008.4 3736.4 2005.6 3782.1 2004 3831 1844.1 3757.5 1848.2 3889.3 1664.6 3890.5 1589.5 3894.1 1363.4 3892.9 1333.4 3785.4 1330.5 3735.3 1246.5 3740.5 1035.6 3742.9 1001.1 3485.4 1001.9 3459.6 1006 3422.8 1016.6 3394.9 1044.3 3395 Z" data-holc_grade="D"/>
<path d="M 677.1 3569.4 730.4 3600.5 705.3 3636.4 761.6 3664.8 734.8 3698.7 664.9 3767.6 659.3 3769.3 618.1 3804.9 524.9 3752.2 579.7 3659.4 613.1 3682.2 677.1 3569.4 Z" data-holc_grade="D"/>
</g>
</svg>