<?xml version="1.0"?>
<svg xmlns="http://www.w3.org/2000/svg" version="1.2" baseProfile="tiny" width="3000" height="4674" viewBox="0 0 3000 4674" stroke-linecap="round" stroke-linejoin="round">
<g id="A">
<path d="M 1425.5 4505.6 1435.8 4507.5 1440.2 4469.4 1454.5 4425.9 1512 4349.6 1516.9 4304.1 1549.8 4238.1 1577.3 4177.4 1608.3 4118.3 1631.4 4065.4 1653.5 4037.6 1671.7 4015.1 1687.4 3995 1691.8 3968.1 1706.6 3959.8 1718.5 3979.6 1767.7 4003.5 1807.3 4023.8 1844.5 4042.9 1928.5 4084.6 1975.3 4102.5 2007.7 4119.3 2050.9 4132.4 2079.7 4147.9 2043.7 4186.1 1990.9 4282.8 1960.9 4333 1798.9 4245.8 1642.2 4535 1586.1 4643.5 1603.8 4653.5 1583.8 4672.6 1421.7 4521.3 1425.5 4505.6 Z" data-holc_grade="A"/>
<path d="M 1927.1 2210.7 1949.1 2180.5 1819.4 2063.7 1796.4 2100.9 1772.4 2147.4 1592.4 2048.8 1734 1799 1907.9 1889.7 2062.5 1622.4 2200.5 1696.3 2210.4 1685.6 2334.2 1761.8 2359.8 1723.2 2414.3 1753.9 2396.6 1782.3 2366.7 1871.3 2222.2 1784.3 2140.7 1935.8 2332.8 2040.4 2330.4 2050.6 2300.9 2089.7 2241.6 2165.9 2180.2 2243.9 2136.4 2337 2130.3 2327.1 2029.7 2316.4 1962.2 2305 1926.9 2279 1910.3 2258.4 1913.9 2226.2 1927.1 2210.7 Z" data-holc_grade="A"/>
<path d="M 1413.3 1950.6 1558.9 2030.5 1539.7 2205.9 1506.1 2604.5 1523.1 2611.3 1430 2911.5 1394.6 2900.5 1359.8 2888.6 1307 2885 1265 2867.1 1273.4 2838.4 1251.8 2770.4 1141.5 2683.3 1059.9 2610.5 1005.9 2599.7 816.4 2487.5 734.9 2442.1 661.7 2388.4 490.3 2270.2 337.9 2217.7 242 2179.5 161.7 2141.3 51.4 2068.4 1 2019.5 64.6 1924.1 153.4 1803.6 191.8 1704.5 226.6 1572.1 236.2 1535.1 242.2 1468.3 254.2 1397.9 255.5 1329.9 263.9 1251.2 271.2 937.4 270 769.2 260.4 702.4 260.5 609.3 226.9 510.3 212.5 469.7 321.8 1 1012.2 77.5 1037.4 252.8 945.1 391.2 1146.5 510.5 1105.7 897 1094.9 981.7 837.1 840.9 587.6 1284.6 926.9 1451.7 801 1703.5 986.8 1800.2 1006 1762 1022.8 1768 1024 1908.8 1025.2 1963.6 1013.2 2007.8 1002.4 2074.6 1015.6 2075.8 1042 1961.3 1067.2 1936.2 1108 1851.5 1221.9 1913.5 1273.5 1932.6 1273.5 1962.5 1287.8 2000.7 1286.6 2054.4 1281.8 2104.5 1256.7 2109.2 1227.9 2155.8 1196.7 2199.9 1136.7 2197.5 1093.5 2190.4 1069.6 2248.9 1088.7 2306.1 1088.7 2355.1 1081.5 2435 1223.7 2494.4 1249.8 2440.2 1286.6 2393.3 1280.6 2376.6 1285.4 2353.9 1411.4 2364.6 1422.2 2204.7 1460.5 2172.5 1472.5 2141.5 1454.5 2116.4 1418.6 2075.8 1391 2056.7 1368.2 2019.8 1363.4 1987.5 1364.6 1950.5 1386.2 1930.3 1413.3 1950.6 Z" data-holc_grade="A"/>
</g>
<g id="B">
<path d="M 1294.3 3726.1 1220.5 3694.8 1144.9 3664 1054 3632.7 977.8 3604.8 900.6 3562.7 833.8 3519.2 771.4 3476.2 710 3441 723.8 3423.4 671.7 3359.3 726.7 3339.8 757.7 3381.3 786.7 3410.7 817.1 3447.3 914.4 3511.4 972.4 3543.7 989.1 3551.5 1055.9 3572 1115.9 3588.2 1320.3 3678.7 1294.3 3726.1 Z" data-holc_grade="B"/>
<path d="M 1265.1 4411.2 1225.1 4389.1 1293.5 4187.3 1341.9 4050.6 1418.7 3799.2 1506.1 3542.7 1543.3 3583.3 1534.9 3628.6 1543.3 3674 1572.1 3737.3 1578.1 3799.3 1597.3 3838.7 1627.3 3856.6 1659.7 3882.9 1698.2 3935.9 1706.6 3959.8 1691.8 3968.1 1687.4 3995 1671.7 4015.1 1653.5 4037.6 1631.4 4065.4 1608.3 4118.3 1577.3 4177.4 1549.8 4238.1 1516.9 4304.1 1512 4349.6 1454.5 4425.9 1440.2 4469.4 1435.8 4507.5 1425.5 4505.6 1403.8 4477.7 1306.9 4433.3 1265.1 4411.2 Z" data-holc_grade="B"/>
<path d="M 1828.2 3543.4 1858.2 3555.8 2024.9 3617.5 2159.2 3674.1 2566.7 3843.4 2668 3883.1 2682.6 3889.2 2648.9 3970.2 2455.3 3885.4 2437.7 3926.7 2082.1 3784.6 2085.2 3767.8 1936.2 3707.5 1929.3 3722.8 1787.2 3667 1828.2 3543.4 Z" data-holc_grade="B"/>
<path d="M 1943.7 2753.6 1941.8 2759.6 1864 3004.6 1761.9 2968.1 1746 2957.8 1750.8 2938.7 1644.1 2905.3 1633.3 2928 1605.3 2919.1 1681.2 2672.4 1751.3 2694.1 1943.7 2753.6 Z" data-holc_grade="B"/>
<path d="M 1592.4 2048.8 1772.4 2147.4 1796.4 2100.9 1927.1 2210.7 1913.9 2226.2 1910.3 2258.4 1912.7 2316.9 1779.6 2309.7 1776 2357.5 1687.2 2352.7 1689.6 2395.7 1639.3 2393.3 1624.8 2650.6 1523.1 2611.3 1506.1 2604.5 1539.7 2205.9 1558.9 2030.5 1592.4 2048.8 Z" data-holc_grade="B"/>
<path d="M 2504.3 2537.9 2194.8 2598.8 2068.2 2803 1982.8 2769.1 1993.1 2727.4 2048.3 2520.9 2087.8 2380.1 2116.6 2357.4 2136.4 2337 2180.2 2243.9 2241.6 2165.9 2300.9 2089.7 2330.4 2050.6 2332.8 2040.4 2342 2000.6 2354 1937.3 2366.7 1871.3 2396.6 1782.3 2414.3 1753.9 2359.8 1723.2 2334.2 1761.8 2210.4 1685.6 2200.5 1696.3 2062.5 1622.4 1907.9 1889.7 1734 1799 1592.4 2048.8 1558.9 2030.5 1413.3 1950.6 1469.6 1847 1546.9 1704.7 1608.3 1739.1 1649 1663.5 1767.2 1736.8 1879.2 1537.5 2021.9 1274 2094.8 1310.7 2099.4 1303 2215.3 1358.8 2370.3 1075.4 2196.8 985.4 2136.2 1086.2 2048 1041.9 2039.5 1057.2 1948.2 1002.2 1788.6 1258.8 1584.5 1632.2 1346.6 1500.1 1279.8 1599.3 1230.7 1692.5 1161.6 1656.6 1075.7 1642.9 1132.5 1536 1041.1 1523.7 1064.8 1344.4 1114 1344.4 1138 1126.1 1257.9 1387.3 1220.7 1504.3 1265.1 1518.6 1513.3 1122.5 1638 1182.1 1738.7 1006.8 1682.3 299.4 1807 369.7 2184.7 589.2 2261.4 642.8 2148.8 857.6 2406.6 993.5 2447.3 914.8 2483.3 933.9 2706.3 1054.3 2627.2 1189.2 2634.5 1238.1 2909.1 1388.3 2792.8 1498.1 2713.7 1658 2481.2 2074.5 2590.3 2136.6 2516 2288.1 2465.6 2260.7 2489.6 2436.1 2504.3 2537.9 Z M 2430.6 1288.2 2350.3 1432.6 2541 1532.8 2611.7 1400.3 2608.1 1377.7 2430.6 1288.2 Z" data-holc_grade="B"/>
<path d="M 1430 2911.5 1414.9 2960.4 1374.9 2946.6 1322.7 3092.5 1303.5 3148.3 1133 3090.2 1070.9 3058.1 984.2 3026.8 888.1 2988.7 831.1 2960.1 792.5 2940.7 763.1 2925.9 729.6 2921.4 695.5 2904.5 675.6 2911.4 652.1 2828.8 664.1 2771.5 696.5 2701.1 712.1 2653.4 955.5 2788.3 999.9 2697.6 745.4 2562.4 732.5 2555.5 720.5 2530.5 690.5 2501.8 540.6 2409.9 522.6 2386 484.2 2364.5 432.7 2338.2 490.3 2270.2 661.7 2388.4 734.9 2442.1 816.4 2487.5 1005.9 2599.7 1059.9 2610.5 1141.5 2683.3 1251.8 2770.4 1273.4 2838.4 1265 2867.1 1307 2885 1359.8 2888.6 1394.6 2900.5 1430 2911.5 Z" data-holc_grade="B"/>
</g>
<g id="C">
<path d="M 1624.8 2650.6 1681.2 2672.4 1605.3 2919.1 1513.9 3189.5 1440.2 3425.6 1583 3464.6 1703.1 3510.9 1864 3004.6 1941.8 2759.6 1943.7 2753.6 1982.8 2769.1 2068.2 2803 2047.4 2871 1966.9 3120.8 1861.7 3442.4 1828.2 3543.4 1787.2 3667 1929.3 3722.8 1936.2 3707.5 2085.2 3767.8 2082.1 3784.6 2437.7 3926.7 2455.3 3885.4 2648.9 3970.2 2682.6 3889.2 2735.6 3908.3 2701.1 4000.7 2638.9 4000.7 2566.7 3997.7 2514.5 3993.1 2486.8 4006.9 2440.8 4062.7 2400.1 4116.9 2355.6 4152.9 2309.5 4161.3 2262.6 4156.7 2220.4 4143 2171.2 4130.7 2134.4 4104.8 2099.8 4095.6 2069.1 4088.7 2015.3 4076.5 1960.8 4057.4 1952.4 4036 1921.7 4024.6 1870.2 4003.9 1731.2 3925.3 1690.5 3887.1 1670.5 3842.7 1657.5 3708.3 1659.8 3588.3 1603.3 3536.7 1566.1 3509.3 1494.1 3489 1438.9 3448.4 1339.4 3418.5 1314.2 3410.2 1328.6 3382.7 1350.9 3391.1 1364.6 3352.9 1328.6 3327.8 1287.8 3309.9 1256.6 3284.8 1201.4 3237.1 1099.4 3196.5 1011 3159.7 932.7 3120 826 3068.8 748.5 3016.8 675.6 2911.4 695.5 2904.5 729.6 2921.4 763.1 2925.9 792.5 2940.7 831.1 2960.1 888.1 2988.7 984.2 3026.8 1070.9 3058.1 1133 3090.2 1303.5 3148.3 1322.7 3092.5 1374.9 2946.6 1414.9 2960.4 1430 2911.5 1523.1 2611.3 1624.8 2650.6 Z" data-holc_grade="C"/>
</g>
<g id="D">
<path d="M 710 3441 771.4 3476.2 833.8 3519.2 900.6 3562.7 977.8 3604.8 1054 3632.7 1144.9 3664 1220.5 3694.8 1294.3 3726.1 1285.4 3743.7 1418.7 3799.2 1341.9 4050.6 1293.5 4187.3 1225.1 4389.1 1265.1 4411.2 1204.4 4489.9 1160.6 4554.9 1028.5 4479.2 1019.3 4493.7 994.7 4483 1008.6 4464.7 962.5 4439.5 1020.9 4306.5 809.7 4227.8 818.1 4202.6 777.2 4181.8 782.8 4166.6 688.4 4136.8 547 4285.8 378.1 4161.2 720.3 3552.2 726.2 3525.1 708.5 3517.7 710 3441 Z" data-holc_grade="D"/>
<path d="M 2735.6 3908.3 2682.6 3889.2 2668 3883.1 2566.7 3843.4 2159.2 3674.1 2024.9 3617.5 1858.2 3555.8 1828.2 3543.4 1861.7 3442.4 1966.9 3120.8 2047.4 2871 2068.2 2803 2194.8 2598.8 2504.3 2537.9 2517.2 2535.3 2655.9 2501.7 2873.2 2464.4 2897.6 2520.3 2886.4 2596.8 2867.7 2723.6 2843.4 2844.8 2790.9 2953 2757.2 3042.5 2732.9 3096.6 2781.6 3109.6 2837.8 3109.6 2912.8 2952.9 2999 3035 2933.4 3178.6 2896 3264.4 2864.1 3346.5 2807.9 3380.1 2873.5 3408 2916.7 3411.7 2875.5 3547.9 2845.5 3646.8 2776.2 3814.7 2735.6 3908.3 Z" data-holc_grade="D"/>
<path d="M 1864 3004.6 1703.1 3510.9 1583 3464.6 1606.4 3380.3 1705.7 3078.1 1722.6 3066.9 1761.9 2968.1 1864 3004.6 Z" data-holc_grade="D"/>
<path d="M 1584.5 1632.2 1649 1663.5 1608.3 1739.1 1546.9 1704.7 1469.6 1847 1230.7 1692.5 1279.8 1599.3 1346.6 1500.1 1584.5 1632.2 Z" data-holc_grade="D"/>
<path d="M 1285.4 2353.9 1279.4 2336 1285.4 2313.3 1285.4 2299 1307 2265.6 1322.6 2246.5 1340.6 2234.6 1368.2 2223.8 1422.2 2204.7 1411.4 2364.6 1285.4 2353.9 Z" data-holc_grade="D"/>
<path d="M 712.1 2653.4 745.4 2562.4 999.9 2697.6 955.5 2788.3 712.1 2653.4 Z" data-holc_grade="D"/>
<path d="M 465 2457.6 575.4 2523.3 517.8 2615.1 477 2587.7 441 2568.6 417 2562.6 412.2 2542.3 421.8 2508.9 465 2457.6 Z" data-holc_grade="D"/>
</g>
</svg>