<?xml version="1.0"?>
<svg xmlns="http://www.w3.org/2000/svg" version="1.2" baseProfile="tiny" width="3000" height="4056" viewBox="0 0 3000 4056" stroke-linecap="round" stroke-linejoin="round">
<g id="A">
<path d="M 1425.7 3910.2 1436 3911.9 1440.4 3878.8 1454.7 3841.1 1512.1 3774.9 1517 3735.4 1550 3678.1 1577.5 3625.5 1608.4 3574.1 1631.5 3528.3 1653.6 3504.1 1671.8 3484.6 1687.5 3467.2 1691.9 3443.8 1706.7 3436.6 1718.6 3453.8 1767.8 3474.5 1807.4 3492.1 1844.5 3508.7 1928.5 3544.9 1975.3 3560.5 2007.7 3575 2050.8 3586.4 2079.6 3599.9 2043.6 3633 1990.9 3716.9 1960.9 3760.5 1799 3684.8 1642.3 3935.8 1586.2 4030 1603.9 4038.6 1583.9 4055.2 1422 3923.9 1425.7 3910.2 Z" data-holc_grade="A"/>
<path d="M 1927.3 1918.6 1949.3 1892.4 1819.6 1791 1796.6 1823.3 1772.6 1863.7 1592.5 1778.1 1734.2 1561.3 1908.1 1640 2062.8 1408 2200.8 1472.2 2210.8 1462.9 2334.6 1529.1 2360.1 1495.5 2414.6 1522.3 2396.9 1546.9 2367 1624.1 2222.5 1548.6 2141 1680.1 2333.1 1770.8 2330.6 1779.7 2301.1 1813.7 2241.8 1879.8 2180.4 1947.4 2136.6 2028.3 2130.5 2019.7 2029.9 2010.4 1962.4 2000.4 1927.1 1977.9 1910.5 1960 1914.1 1932 1927.3 1918.6 Z" data-holc_grade="A"/>
<path d="M 1413.5 1692.9 1559.1 1762.2 1539.9 1914.4 1506.3 2260.4 1523.3 2266.2 1430.2 2526.8 1394.7 2517.2 1360 2506.9 1307.2 2503.8 1265.2 2488.2 1273.6 2463.4 1252 2404.3 1141.7 2328.7 1060.1 2265.5 1006.1 2256.2 816.6 2158.9 735.1 2119.5 661.9 2072.9 490.4 1970.4 338 1924.8 242.1 1891.7 161.7 1858.5 51.4 1795.3 1 1752.9 64.6 1670 153.3 1565.4 191.7 1479.5 226.5 1364.5 236.1 1332.4 242.1 1274.4 254.1 1213.3 255.3 1154.3 263.7 1086 270.9 813.7 269.7 667.7 260.1 609.7 260.1 529 226.5 443 212.1 407.8 321.3 1 1012.1 67.2 1037.3 219.4 945 339.5 1146.5 443 1105.7 778.5 1094.9 852 837 729.8 587.5 1115 927 1259.9 801 1478.4 986.9 1562.3 1006.1 1529.2 1022.9 1534.4 1024.1 1656.6 1025.3 1704.2 1013.3 1742.5 1002.5 1800.5 1015.7 1801.5 1042.1 1702.1 1067.3 1680.4 1108.1 1606.9 1222 1660.7 1273.6 1677.3 1273.6 1703.2 1288 1736.3 1286.8 1782.9 1282 1826.4 1256.8 1830.5 1228 1870.9 1196.8 1909.3 1136.9 1907.2 1093.7 1901 1069.7 1951.7 1088.9 2001.4 1088.9 2043.9 1081.7 2113.3 1223.9 2164.8 1250 2117.8 1286.8 2077 1280.8 2062.5 1285.6 2042.9 1411.5 2052.2 1422.3 1913.4 1460.7 1885.4 1472.7 1858.5 1454.7 1836.8 1418.7 1801.5 1391.2 1785 1368.4 1752.9 1363.6 1724.9 1364.8 1692.8 1386.4 1675.2 1413.5 1692.9 Z" data-holc_grade="A"/>
</g>
<g id="B">
<path d="M 1294.5 3233.8 1220.8 3206.6 1145.1 3179.9 1054.3 3152.7 978.1 3128.5 901 3092 834.2 3054.3 771.8 3016.9 710.3 2986.4 724.1 2971.1 672 2915.5 727.1 2898.5 758 2934.6 787 2960 817.5 2991.9 914.7 3047.5 972.7 3075.5 989.4 3082.3 1056.2 3100.1 1116.2 3114.1 1320.5 3192.6 1294.5 3233.8 Z" data-holc_grade="B"/>
<path d="M 1265.4 3828.4 1225.4 3809.1 1293.8 3634.1 1342.1 3515.4 1418.9 3297.2 1506.3 3074.6 1543.5 3109.8 1535.1 3149.2 1543.5 3188.5 1572.3 3243.4 1578.3 3297.3 1597.5 3331.5 1627.4 3347.1 1659.8 3369.8 1698.3 3415.8 1706.7 3436.6 1691.9 3443.8 1687.5 3467.2 1671.8 3484.6 1653.6 3504.1 1631.5 3528.3 1608.4 3574.1 1577.5 3625.5 1550 3678.1 1517 3735.4 1512.1 3774.9 1454.7 3841.1 1440.4 3878.8 1436 3911.9 1425.7 3910.2 1404.1 3886.1 1307.2 3847.5 1265.4 3828.4 Z" data-holc_grade="B"/>
<path d="M 1828.3 3075.2 1858.3 3086 2025 3139.5 2159.2 3188.7 2566.5 3335.7 2667.8 3370.1 2682.4 3375.4 2648.6 3445.7 2455.2 3372.1 2437.5 3407.9 2082.1 3284.6 2085.2 3270 1936.3 3217.6 1929.4 3230.9 1787.3 3182.5 1828.3 3075.2 Z" data-holc_grade="B"/>
<path d="M 1943.9 2389.8 1942 2394.9 1864.1 2607.6 1762.1 2575.9 1746.2 2567 1751 2550.4 1644.2 2521.4 1633.4 2541.1 1605.4 2533.4 1681.4 2319.3 1751.5 2338.1 1943.9 2389.8 Z" data-holc_grade="B"/>
<path d="M 1592.5 1778.1 1772.6 1863.7 1796.6 1823.3 1927.3 1918.6 1914.1 1932 1910.5 1960 1912.9 2010.8 1779.8 2004.5 1776.2 2046 1687.4 2041.8 1689.8 2079.1 1639.4 2077 1625 2300.3 1523.3 2266.2 1506.3 2260.4 1539.9 1914.4 1559.1 1762.2 1592.5 1778.1 Z" data-holc_grade="B"/>
<path d="M 2504.5 2202.6 2195 2255.4 2068.3 2432.6 1983 2403.2 1993.3 2367.1 2048.4 2187.9 2088 2065.6 2116.8 2046 2136.6 2028.3 2180.4 1947.4 2241.8 1879.8 2301.1 1813.7 2330.6 1779.7 2333.1 1770.8 2342.3 1736.3 2354.3 1681.4 2367 1624.1 2396.9 1546.9 2414.6 1522.3 2360.1 1495.5 2334.6 1529.1 2210.8 1462.9 2200.8 1472.2 2062.8 1408 1908.1 1640 1734.2 1561.3 1592.5 1778.1 1559.1 1762.2 1413.5 1692.9 1469.8 1602.9 1547.1 1479.5 1608.5 1509.3 1649.2 1443.7 1767.4 1507.3 1879.5 1334.3 2022.2 1105.7 2095.2 1137.5 2099.8 1130.9 2215.7 1179.3 2370.8 933.4 2197.3 855.2 2136.6 942.7 2048.3 904.3 2039.9 917.5 1948.6 869.8 1788.9 1092.4 1584.7 1416.5 1346.7 1301.9 1279.9 1388 1230.8 1468.9 1161.7 1437.7 1075.7 1425.8 1132.6 1333 1041.2 1322.4 1064.9 1166.8 1114.1 1166.8 1138.1 977.3 1258 1204 1220.8 1305.5 1265.2 1317.9 1513.5 974.2 1638.2 1025.9 1739 873.7 1682.6 259.8 1807.4 320.9 2185.2 511.4 2261.9 557.9 2149.2 744.3 2407.1 862.3 2447.9 794 2483.8 810.6 2706.9 915.1 2627.8 1032.1 2635 1074.6 2909.6 1205.1 2793.3 1300.3 2714.1 1439.1 2481.4 1800.5 2590.6 1854.4 2516.2 1985.9 2465.8 1962.1 2489.8 2114.3 2504.5 2202.6 Z M 2431.1 1118.1 2350.7 1243.4 2541.4 1330.4 2612.2 1215.4 2608.6 1195.7 2431.1 1118.1 Z" data-holc_grade="B"/>
<path d="M 1430.2 2526.8 1415 2569.2 1375.1 2557.3 1322.9 2683.9 1303.7 2732.3 1133.2 2681.9 1071.1 2654.1 984.4 2626.9 888.4 2593.8 831.4 2569 792.8 2552.2 763.3 2539.4 729.9 2535.5 695.8 2520.8 675.8 2526.8 652.3 2455.1 664.3 2405.4 696.7 2344.3 712.3 2302.8 955.8 2419.9 1000.1 2341.2 745.6 2223.9 732.7 2217.9 720.7 2196.1 690.7 2171.3 540.7 2091.5 522.8 2070.8 484.4 2052.2 432.8 2029.4 490.4 1970.4 661.9 2072.9 735.1 2119.5 816.6 2158.9 1006.1 2256.2 1060.1 2265.5 1141.7 2328.7 1252 2404.3 1273.6 2463.4 1265.2 2488.2 1307.2 2503.8 1360 2506.9 1394.7 2517.2 1430.2 2526.8 Z" data-holc_grade="B"/>
</g>
<g id="C">
<path d="M 1625 2300.3 1681.4 2319.3 1605.4 2533.4 1514.1 2768.1 1440.4 2973 1583.2 3006.8 1703.2 3047 1864.1 2607.6 1942 2394.9 1943.9 2389.8 1983 2403.2 2068.3 2432.6 2047.6 2491.6 1967 2708.4 1861.8 2987.5 1828.3 3075.2 1787.3 3182.5 1929.4 3230.9 1936.3 3217.6 2085.2 3270 2082.1 3284.6 2437.5 3407.9 2455.2 3372.1 2648.6 3445.7 2682.4 3375.4 2735.4 3392 2700.8 3472.3 2638.7 3472.3 2566.5 3469.6 2514.3 3465.6 2486.7 3477.6 2440.6 3526 2399.9 3573 2355.4 3604.2 2309.3 3611.5 2262.5 3607.5 2220.3 3595.6 2171.2 3585 2134.3 3562.4 2099.8 3554.5 2069.1 3548.5 2015.3 3537.9 1960.8 3521.3 1952.4 3502.8 1921.7 3492.8 1870.3 3474.9 1731.3 3406.6 1690.6 3373.4 1670.7 3335 1657.6 3218.3 1659.9 3114.2 1603.5 3069.4 1566.3 3045.6 1494.3 3028 1439.1 2992.7 1339.6 2966.8 1314.4 2959.6 1328.8 2935.8 1351.1 2943 1364.8 2909.9 1328.8 2888.1 1288 2872.6 1256.8 2850.8 1201.6 2809.4 1099.7 2774.1 1011.3 2742.2 933 2707.8 826.3 2663.3 748.7 2618.3 675.8 2526.8 695.8 2520.8 729.9 2535.5 763.3 2539.4 792.8 2552.2 831.4 2569 888.4 2593.8 984.4 2626.9 1071.1 2654.1 1133.2 2681.9 1303.7 2732.3 1322.9 2683.9 1375.1 2557.3 1415 2569.2 1430.2 2526.8 1523.3 2266.2 1625 2300.3 Z" data-holc_grade="C"/>
</g>
<g id="D">
<path d="M 710.3 2986.4 771.8 3016.9 834.2 3054.3 901 3092 978.1 3128.5 1054.3 3152.7 1145.1 3179.9 1220.8 3206.6 1294.5 3233.8 1285.7 3249 1418.9 3297.2 1342.1 3515.4 1293.8 3634.1 1225.4 3809.1 1265.4 3828.4 1204.7 3896.7 1161 3953 1028.9 3887.4 1019.7 3900 995.1 3890.7 1009 3874.8 962.9 3852.9 1021.2 3737.5 810.1 3669.2 818.6 3647.3 777.6 3629.3 783.3 3616.1 688.9 3590.3 547.6 3719.6 378.7 3611.5 720.7 3082.9 726.6 3059.3 708.9 3053 710.3 2986.4 Z" data-holc_grade="D"/>
<path d="M 2735.4 3392 2682.4 3375.4 2667.8 3370.1 2566.5 3335.7 2159.2 3188.7 2025 3139.5 1858.3 3086 1828.3 3075.2 1861.8 2987.5 1967 2708.4 2047.6 2491.6 2068.3 2432.6 2195 2255.4 2504.5 2202.6 2517.3 2200.4 2656 2171.3 2873.4 2138.9 2897.8 2187.5 2886.6 2253.8 2867.8 2363.9 2843.4 2469.1 2791 2563 2757.2 2640.6 2732.9 2687.6 2781.6 2698.9 2837.8 2698.9 2912.8 2563 2999 2634.2 2933.4 2758.8 2895.9 2833.3 2864.1 2904.5 2807.8 2933.6 2873.4 2957.9 2916.5 2961.1 2875.3 3079.3 2845.3 3165.1 2776 3310.8 2735.4 3392 Z" data-holc_grade="D"/>
<path d="M 1864.1 2607.6 1703.2 3047 1583.2 3006.8 1606.5 2933.6 1705.9 2671.4 1722.7 2661.7 1762.1 2575.9 1864.1 2607.6 Z" data-holc_grade="D"/>
<path d="M 1584.7 1416.5 1649.2 1443.7 1608.5 1509.3 1547.1 1479.5 1469.8 1602.9 1230.8 1468.9 1279.9 1388 1346.7 1301.9 1584.7 1416.5 Z" data-holc_grade="D"/>
<path d="M 1285.6 2042.9 1279.6 2027.3 1285.6 2007.6 1285.6 1995.2 1307.2 1966.2 1322.8 1949.6 1340.8 1939.3 1368.4 1930 1422.3 1913.4 1411.5 2052.2 1285.6 2042.9 Z" data-holc_grade="D"/>
<path d="M 712.3 2302.8 745.6 2223.9 1000.1 2341.2 955.8 2419.9 712.3 2302.8 Z" data-holc_grade="D"/>
<path d="M 465.2 2133 575.5 2189.9 518 2269.7 477.2 2245.9 441.2 2229.3 417.2 2224.1 412.4 2206.5 422 2177.5 465.2 2133 Z" data-holc_grade="D"/>
</g>
</svg>