<?xml version="1.0"?>
<svg xmlns="http://www.w3.org/2000/svg" version="1.2" baseProfile="tiny" width="3000" height="2763" viewBox="0 0 3000 2763" stroke-linecap="round" stroke-linejoin="round">
<g id="A">
<path d="M 1775.2 732.6 1777 763.6 1775.7 834.5 1776.3 959.1 1753.6 943 1681.9 895.9 1606.9 846 1590.5 864.7 1593 897.8 1585.9 898.1 1563 898.9 1562.7 894.4 1561.9 879.7 1558.6 819.7 1544.7 816.9 1520.2 815.2 1515.1 810.7 1505.2 800.8 1480.7 786.6 1530.5 784.3 1528.3 752.7 1563.3 749.2 1628.9 742.8 1689.2 745 1685.2 716.7 1711.1 716.9 1731.7 717 1740.5 719 1754.7 729.7 1763.5 733.1 1775.2 732.6 Z M 1767.9 607.7 1769.7 639.6 1692.4 645.6 1621.8 649.4 1626.7 691.9 1618.2 695.4 1606 703 1594.3 716.6 1579.5 715.2 1572.7 704.4 1562.4 685.6 1561.9 658.1 1557 648.1 1586.7 646.3 1614.1 642.8 1608.7 617.1 1600.2 576.7 1549.8 578.1 1542.1 574.7 1546.2 563.9 1562.8 555.9 1557 547.2 1558.8 540.6 1553.8 452.2 1569.6 446 1588 443.9 1611.4 439 1614.6 433.1 1678.1 429.9 1679.8 481.3 1691.9 500 1709.2 519.3 1702.3 527.4 1704.9 545.4 1719.5 577.4 1717 600.1 1720.4 606.8 1728.2 602.8 1743.7 602.8 1767.9 607.7 Z" data-holc_grade="A"/>
<path d="M 2036.7 915.7 2031.6 960.4 2067.8 961.2 2090 968.3 2075.2 988.5 1979.1 988.9 1968.1 983 1969.9 978.2 1968.1 968.6 1957.7 959.3 1942.6 953 1907 954 1905.3 915.7 1862.4 916.2 1862.4 950.2 1834.9 951.1 1835.9 924.5 1823.1 923.6 1832.2 867.8 1836.7 865.3 1848.9 877.1 1922.9 876.3 1923.9 916.6 2036.7 915.7 Z" data-holc_grade="A"/>
<path d="M 1952.3 337.6 1954.2 364.1 1930 363.5 1896.1 359.5 1795.9 342.5 1786.3 377 1749.6 376.3 1739.4 411.9 1732.5 430.6 1678.1 429.9 1614.6 433.1 1609.9 415.3 1638.4 402.6 1676.8 401.3 1663.8 371 1721.8 372.5 1726.2 367.5 1728.7 332.7 1797 338.7 1815.3 254.8 1925.5 244.7 1927.9 263.5 1936.8 292.5 1952.1 316.5 1952.3 337.6 Z" data-holc_grade="A"/>
<path d="M 549.1 419.4 543.3 414.3 535.7 393 530.9 367.2 522.1 352.7 510.1 343 483.8 326.3 497.2 315.9 513.8 317.2 532.8 315.9 551.1 313.1 564.3 315.3 570.5 318.6 583.4 334.6 609 369.2 618.8 394.4 617 402 607.1 403.6 584.1 404.1 563.9 410 549.1 419.4 Z" data-holc_grade="A"/>
<path d="M 762.2 1377.7 688.1 1385 691.6 1396.3 703 1400.4 706.9 1405.4 723.5 1435.1 721.9 1447.2 697.2 1474.1 676 1489.4 641.6 1476.8 625.6 1478.1 610.7 1476.6 602.6 1479.6 591.8 1489.9 542.7 1461.5 603.5 1392 613.9 1382.7 649.1 1341 671.5 1319.8 668.9 1311 667.9 1302.7 679.6 1294.7 693.6 1292.4 730.3 1300.7 748.5 1308.3 753.4 1318.1 760.2 1321.9 762.2 1377.7 Z" data-holc_grade="A"/>
<path d="M 2036.7 915.7 1923.9 916.6 1922.9 876.3 1848.9 877.1 1836.7 865.3 1856.7 862.2 1858.5 847.3 1870.4 844.2 1890.6 820.5 1905.2 813 1910.7 734.5 1922.6 636.9 1941.8 639 2002.2 633.4 2024.6 619.6 2047.4 618.5 2079.9 618.2 2108.3 613.2 2082.2 699.1 2071.7 712.6 2068 725.3 2038.7 834.2 1994.8 829.6 1993.9 887 2036.9 890.1 2036.7 915.7 Z" data-holc_grade="A"/>
</g>
<g id="B">
<path d="M 1608.7 617.1 1614.1 642.8 1586.7 646.3 1557 648.1 1536 650.9 1541.1 664 1543.1 688.2 1547.5 706.8 1562.3 738.3 1563.3 749.2 1528.3 752.7 1475.3 757.9 1450 759.2 1442.9 755 1441.9 746.4 1436.8 734.9 1423 725 1420.3 718 1426 711.7 1434.4 712.5 1439.8 706.2 1435.5 697.1 1435.5 686.1 1444.2 668.9 1427.4 668.7 1422.6 664 1410.2 647.3 1397.3 645.7 1381.5 650.4 1371 650.1 1340.7 553.1 1358.2 547.6 1375.7 545.3 1380.1 549.7 1378.4 554.7 1371.7 556.7 1376.1 561.2 1372.7 564.8 1375.1 568.7 1383.2 568 1387.9 572.4 1385.2 576.8 1396.3 593.3 1405.8 591.2 1415.6 592.5 1446.3 596.9 1471.6 604.5 1529.9 601.9 1533.3 622.2 1541.4 624.1 1563.3 623.8 1589 618.1 1608.7 617.1 Z" data-holc_grade="B"/>
<path d="M 2463.7 288.5 2567.5 328.2 2582.5 300 2638.2 346.4 2627.5 363.8 2691.7 409.3 2644.6 454 2632.8 475.5 2609.3 513.6 2713.1 557.4 2749.5 566.5 2849.1 484.6 2999 588.1 2950.8 632.8 2918.7 646 2896.2 665.9 2880.2 666.7 2843.8 672.5 2845.9 736.3 2835.2 747 2787 764.4 2783.8 775.2 2766.7 780.1 2749.5 781.8 2749.5 842.2 2693.9 853 2641.4 853.8 2644.6 894.7 2629.4 907.5 2616 941.4 2615.2 973.3 2526.4 986.1 2489.7 981.9 2463.9 992.3 2454.4 985.7 2435.3 980.9 2419.5 986.9 2405.3 986.7 2383.4 980.5 2367.3 994.6 2334.1 973.1 2317 964 2304.2 949.9 2272 921.7 2256 901 2234.6 888.6 2227.1 865.4 2181 828.2 2180 818.2 2167.1 811.6 2151.1 785.9 2137.1 775.2 2136.1 760.3 2144.6 747.8 2142.5 728 2135 709.8 2138.2 698.2 2157.5 693.2 2166.1 700.7 2158.6 708.1 2172.5 719.7 2187.5 720.5 2198.2 707.3 2219.6 706.5 2226 691.5 2236.7 673.3 2257.1 667.5 2263.5 652.6 2267.8 633.6 2257.1 628.6 2232.4 630.3 2232.4 599.7 2222.8 586.4 2227.1 565.7 2264.6 565.7 2263.5 530.1 2277.4 526.8 2291.3 509.4 2292.4 485.4 2296.7 454.8 2326.6 460.6 2351.3 480.5 2365.2 478.8 2386.6 478.8 2402.7 483.8 2408 454.8 2409.1 435.8 2397.3 427.5 2380.2 411.8 2384.5 393.6 2395.2 398.5 2411.2 396.9 2421.9 390.2 2426.2 372.9 2423 357.1 2463.7 288.5 Z" data-holc_grade="B"/>
<path d="M 1968.1 983 1979.1 988.9 2075.2 988.5 2045.4 1016.2 2023.1 1029.8 1981.8 1069.7 1918.4 1033.5 1968.1 983 Z M 2147.6 907.2 2278.2 986.5 2286.1 980.7 2304.8 990.7 2326 990.2 2342.9 995.7 2368.8 1014.9 2343.6 1039.1 2327.4 1041.1 2333.5 1077.2 2307.3 1087.5 2250.5 1091.7 2235.7 1088.1 2236.1 1114.3 2124.2 1115.1 2129.6 1109.2 2207.3 1041.6 2174.6 1021.6 2185.4 1011.6 2104.8 963.4 2084.6 942.6 2097.9 936.2 2110.2 929.5 2123.5 916.4 2133.9 913.9 2147.6 907.2 Z" data-holc_grade="B"/>
<path d="M 2840.1 1841.5 2793.6 1733.4 2814.9 1732.2 2840.2 1732.4 2854 1735.8 2876 1747.5 2883.7 1758.1 2940.1 1876.6 2857.8 1878.7 2840.1 1841.5 Z" data-holc_grade="B"/>
<path d="M 603.5 1392 542.7 1461.5 591.8 1489.9 617 1500.1 621.2 1507.6 619.1 1516.6 623.2 1523.5 623.2 1531 600.6 1545.9 564.2 1560.2 591.6 1590 587.5 1598.5 550.4 1628.8 515.4 1622.9 503.7 1624 490 1635.2 472.8 1641 458.4 1639.4 439.2 1642.1 422.7 1650.6 415.1 1662.8 393.8 1684.6 381.5 1684.6 382.8 1678.8 373.9 1661.8 338.2 1671.3 340.3 1678.8 319 1684.1 301.8 1640 278.5 1644.2 319 1745.2 302.5 1760.7 295.6 1782.5 289.4 1785.6 249.6 1757.5 189.9 1816.5 180.9 1816.5 161 1811.7 147.3 1844.1 122.6 1837.8 101.3 1825.5 75.9 1681.4 3.7 1682 1 1622.9 17.5 1585.7 117.8 1538.9 162.4 1585.7 289.4 1562.3 373.9 1519.3 490.7 1519.8 496.2 1512.4 503.7 1503.3 477.6 1478.3 454.3 1453.4 476.9 1431.6 485.9 1418.3 501 1407.6 525 1397 562.1 1390.6 591.6 1387.5 603.5 1392 Z" data-holc_grade="B"/>
<path d="M 460.4 446.4 481.3 464.9 427.1 498.3 416.7 505.7 413.7 516.9 388.5 525 385.1 525 394.1 545.1 361.9 543.9 333.6 545.2 298.3 543.4 274.7 546.6 252.6 549.9 248.5 540.5 240 533.5 220.1 534.4 219.9 526.5 222.5 514.4 229.5 505.3 232.6 497.5 234.6 482.7 247.2 469.3 273.8 455.2 299.3 457.3 329.7 457.1 351.5 438.5 364.4 420.5 390.1 404.8 418 392.9 433.8 409.9 460.4 446.4 Z" data-holc_grade="B"/>
<path d="M 1751.4 981 1707.5 984.1 1709.7 1023.1 1658.8 1025.8 1655 1022.1 1655.1 1012.2 1660.4 1011.2 1665.7 1014.1 1675 1015.1 1684.8 1012 1689.8 1006.5 1681.9 895.9 1753.6 943 1751.4 981 Z" data-holc_grade="B"/>
<path d="M 1972.7 147.1 1948 171.8 1938.5 174.4 1922.7 171 1909.4 173.4 1902.9 179.9 1904.7 202.2 1899.4 208.2 1869.6 198.3 1823.6 237.2 1858.3 112.9 1868 102.8 1908.9 100.2 1938.5 104.5 1956.5 110.9 1971.8 136.6 1972.7 147.1 Z M 1988.7 52.5 2030.8 69.2 2017.3 81.2 1991.1 72.4 1971.6 70.4 1937.3 70.1 1915.2 68.2 1885.8 70.1 1876.1 61.4 1887 52.8 1900.9 49.7 1956.5 47.8 1988.7 52.5 Z M 1844.5 49.1 1834.4 113.8 1769.3 122.9 1726.6 120.8 1718.8 114.2 1728.2 104.8 1735.3 92.8 1736.9 81.6 1740.1 77.6 1757 78 1759.5 60 1722.8 48.3 1702.7 39.1 1733.1 1 1789.3 26.8 1844.5 49.1 Z" data-holc_grade="B"/>
<path d="M 762.2 1377.7 760.2 1321.9 780.5 1303.6 845.5 1306.4 883.8 1306.8 888.5 1317.6 889.2 1326.1 921.3 1325.7 924.2 1337.7 930.9 1341.1 947 1337.7 967.9 1323.9 981.1 1320.6 1002.1 1322.3 1020.5 1331.7 1021.5 1396.6 969 1435.2 923.9 1406.2 917.7 1408.8 858.7 1373.3 762.2 1377.7 Z" data-holc_grade="B"/>
<path d="M 1473 45.6 1474.1 71.9 1461.7 81.5 1455.8 102.8 1430.9 119.3 1427 124 1405.2 130.8 1374.6 134.7 1354.8 135.2 1362.4 146.1 1361.7 149.5 1340.1 149.2 1322.3 152.7 1317.5 139 1299.6 109 1297.8 100.9 1289.7 101.9 1278 100.6 1251.3 87.4 1233.9 80.5 1226.5 69.6 1239.1 65 1271.6 62.7 1276.9 59.1 1277.3 53.5 1269.7 34.2 1269.9 29.1 1273.6 20.8 1279.7 18.5 1318.8 30.6 1341.7 29.8 1351.7 40.2 1393.4 37.9 1411.7 40.2 1427.9 45.3 1473 45.6 Z" data-holc_grade="B"/>
<path d="M 1046.1 605.2 1033.8 561 1038.1 543.4 1030.8 531.9 1015.2 520.3 1036.7 508 1047.2 502.9 1054.9 493.9 1067.1 486 1077.3 485.4 1090.2 483 1130.1 487.3 1147.2 486.4 1181 488 1227.7 484.7 1250.4 480.7 1272.8 474.5 1280.1 482.4 1280.1 489.4 1212.9 520 1218.7 527.9 1227.7 529.4 1230.4 533.8 1225.8 539.4 1231.6 546.8 1236.8 546.4 1256.2 539.8 1264.5 539.6 1265.2 548.3 1246 565.2 1224.3 573.3 1204.6 586.3 1205.4 592.1 1122.8 620.7 1099.7 595.5 1046.1 605.2 Z" data-holc_grade="B"/>
<path d="M 1101.2 376.2 1045.2 380.4 967.1 386.3 966.8 386.3 987.4 339.4 1027.8 324.4 1095.6 321.9 1101.2 376.2 Z" data-holc_grade="B"/>
<path d="M 338.1 612.9 377.3 651.9 311.9 697.3 333.8 719.5 328.2 724.1 313.7 724.8 303.3 731.1 281.5 730.2 271.6 746.5 176.5 712.8 201.2 676.1 198.5 663.8 213.4 655.1 237.2 649.3 338.1 612.9 Z" data-holc_grade="B"/>
<path d="M 502 1094.3 545.3 1118.1 533 1128.1 603.9 1168.9 582 1206.6 628.5 1235.8 625.4 1240.6 545.9 1242.8 537.7 1230.8 511.8 1231.5 493.2 1224 477.2 1235.8 456.3 1233.2 428.7 1231 398 1223.4 376.3 1219 347.6 1214.5 334.6 1211.2 346.2 1182.8 354.1 1168.9 368.1 1156.7 392.4 1147.7 409.8 1146.4 436.6 1147.1 450.4 1145.1 481.4 1110.9 502 1094.3 Z" data-holc_grade="B"/>
<path d="M 1231.3 2509.5 1219.4 2529.3 1157.6 2519.4 1114.4 2512.3 1082.2 2506.1 1089.7 2477.1 1093.5 2455.4 1095.2 2431.2 1125.7 2433.9 1165.3 2436.6 1218.2 2439.2 1260.2 2439.7 1261.7 2452.9 1251.4 2477.1 1231.3 2509.5 Z" data-holc_grade="B"/>
<path d="M 1015.2 520.3 1030.8 531.9 1038.1 543.4 1033.8 561 1046.1 605.2 990.8 622.3 949.5 638.5 997.5 687.5 962.5 713.2 928 734.1 915.7 748.4 879.4 783.2 738.5 708.5 632 651.8 674.5 614.7 715.1 575.2 670.8 535.3 624 499.1 553.9 438.7 578.5 421.6 617.3 453.5 685.6 503.9 712 509.6 740.9 511 765.6 507.7 783.4 502.9 794.5 502.9 802.5 507.7 813.6 515.3 833.9 506.7 850.5 503.9 866.5 500.5 862.8 456.8 964.9 447.3 972.3 465.8 995.1 490.1 1009.8 516.2 1015.2 520.3 Z" data-holc_grade="B"/>
<path d="M 1066.8 1071.2 1049.6 1070.8 1039.9 1073.5 1035 1078.9 1027.8 1077.6 1021.3 1072 1014.9 1074.1 1014.1 1083.7 988.2 1086.4 962.7 1087.2 933.9 1086.6 912.1 1088.9 883.6 1096.6 868.8 1106.6 858.8 1107.2 849.2 1111.8 838.4 1111.8 822.5 1122.4 797.6 1118.7 788.3 1114.7 787 1105.5 793 1089.1 793.6 1080 784.4 1075.9 769.9 1088.1 754.7 1096.3 742.2 1091.7 730.3 1074.3 709.2 1067.7 711.1 1060 738.2 1031.5 719.7 1028.4 706.5 1019.2 743.5 950.8 712.5 949.8 680.1 1013.1 583.2 989.6 562.7 1027.9 520.5 1045.2 506 1045.8 489.5 1032.5 490.1 1024.3 482.9 1015.1 475 1017.2 405 1077.9 376 1093.7 352.2 1096.8 244.7 1067.2 273.7 1042.2 294.2 1024.8 314 1019.7 331.1 1008 369.4 1032 380 1017.2 406.3 997.3 413.6 999.3 422.8 997.3 434.7 984 456.5 976.9 473.6 977.4 495.4 986 507.9 967.2 461.1 920.7 411.6 926.3 426.1 848.3 489.5 891.6 502.7 885 504 897.2 525.8 916.6 539 905.4 575.9 861.5 597.7 847.2 612.8 822.2 628 807.4 645.8 803.4 684.8 829.4 757.3 764.1 821.3 769.7 942.7 818.7 999.5 855.9 1070.7 935 1070 942.7 1110.3 952.4 1116.9 985.5 1113.6 997.8 1097.8 1026.9 1037.7 1007.5 1017.9 1045.8 1058.8 1057 1066.8 1071.2 Z" data-holc_grade="B"/>
<path d="M 1169.8 1167.9 1169.4 1175.7 983.9 1181.6 936.3 1184 935.5 1178 925.8 1168.2 917.5 1169.8 908.3 1167.1 884.4 1153.2 868.5 1147.8 857.5 1145.5 856.2 1139.9 848.1 1132.4 835.7 1134.3 828.2 1132.4 822.5 1122.4 838.4 1111.8 849.2 1111.8 858.8 1107.2 868.8 1106.6 883.6 1096.6 912.1 1088.9 933.9 1086.6 962.7 1087.2 988.2 1086.4 1014.1 1083.7 1014.9 1074.1 1021.3 1072 1027.8 1077.6 1035 1078.9 1039.9 1073.5 1049.6 1070.8 1066.8 1071.2 1075.7 1093.5 1082.1 1117.2 1124.6 1116.6 1127.6 1155.7 1170.6 1154 1169.8 1167.9 Z" data-holc_grade="B"/>
<path d="M 1352.7 1095.2 1318.1 1119.7 1306 1126.6 1309.4 1152.9 1245.5 1154.9 1244.7 1165.6 1207.7 1166.7 1208.2 1156.4 1218.6 1145.6 1233.2 1145.6 1246.9 1140.3 1264.4 1139.6 1277.5 1138 1272.8 1096.1 1250.5 1073.1 1235.3 1067.2 1202.6 1079.1 1184.7 1091.5 1158 1077.5 1168.1 1063.9 1176.4 1045.3 1183 1040.7 1200.8 1038.6 1211.2 1035.6 1184.4 1000 1206.1 988.3 1270.1 1072.4 1286.1 1050.8 1306.4 1056.3 1318 1062.3 1337.9 1080.5 1352.7 1095.2 Z" data-holc_grade="B"/>
<path d="M 1408.4 768 1417.7 798.1 1449.6 839.1 1393.2 863.5 1370.1 848.2 1369.2 836 1351 814.8 1348.1 803.4 1352 792.8 1369.2 762.4 1408.4 768 Z" data-holc_grade="B"/>
<path d="M 1775.2 732.6 1763.5 733.1 1754.7 729.7 1740.5 719 1731.7 717 1711.1 716.9 1709 668.9 1771.2 664.3 1775.2 732.6 Z M 1922.6 636.9 1910.7 734.5 1905.2 813 1890.6 820.5 1870.4 844.2 1858.5 847.3 1856.7 862.2 1836.7 865.3 1832.2 867.8 1823.1 923.6 1835.9 924.5 1834.9 951.1 1862.4 950.2 1860.2 966.6 1904.7 984.4 1896.2 995.5 1824.8 969.7 1799.9 958 1811.7 882.1 1803.9 753 1794.7 744.9 1800.6 597.1 1782.3 597.1 1781 604.2 1767.9 607.7 1743.7 602.8 1728.2 602.8 1720.4 606.8 1717 600.1 1719.5 577.4 1704.9 545.4 1702.3 527.4 1709.2 519.3 1691.9 500 1679.8 481.3 1678.1 429.9 1732.5 430.6 1739.4 411.9 1785.2 421.9 1783.4 434.6 1853.4 414.6 1881 447.9 1887 476 1838.7 528 1818.8 530.7 1823.1 592.1 1861.1 593.4 1850.8 626.1 1922.6 636.9 Z" data-holc_grade="B"/>
<path d="M 1786.3 377 1795.9 342.5 1896.1 359.5 1930 363.5 1954.2 364.1 1958.5 420.9 1871.3 409.1 1780.1 395.7 1786.3 377 Z" data-holc_grade="B"/>
</g>
<g id="C">
<path d="M 2236.3 1347.8 2245.8 1457.2 2224.7 1459.2 2222.1 1414.8 2188.8 1416.1 2186.2 1387.7 2084.9 1390.9 2074 1248.2 2170.7 1247.1 2172.4 1268.8 2230.3 1265.8 2235.9 1343.3 2236.3 1347.8 Z" data-holc_grade="C"/>
<path d="M 1958.5 420.9 1954.2 364.1 1952.3 337.6 1964.3 338.4 1984.5 324.1 1997.4 320.9 2007.4 323.3 2023.1 338.9 2052 349.9 2071.3 367.2 2081.6 384.3 2091.4 409.9 2058.4 410.3 2052.1 411.3 2019.1 409.2 2019.2 416.3 1987.4 414.5 1981.1 421.1 1958.5 420.9 Z" data-holc_grade="C"/>
<path d="M 1466.3 1718.3 1484.7 1716.2 1502.5 1716.7 1518.6 1720.3 1523.6 1733.6 1523.3 1741.1 1504.8 1769.6 1488.4 1763.9 1476.7 1764.2 1471.6 1772.8 1462.9 1774.1 1411.6 1761.3 1399.6 1761.1 1383.5 1768.1 1367.7 1781.8 1341.9 1777.9 1318.8 1763.2 1355 1732.8 1335.2 1715.1 1329.9 1717.2 1324.2 1731.8 1302.4 1751 1287.3 1758 1227.6 1779.8 1178.7 1738 1189.8 1729.2 1196.8 1720.3 1187.1 1714.6 1174.3 1701.1 1127.8 1741.6 1103.6 1725.3 1173 1665.3 1192.1 1678.3 1224.6 1653.9 1260.5 1634.2 1280.9 1644.8 1308.1 1641.7 1317.8 1647.4 1331.5 1648.7 1353 1657.3 1377.8 1658.3 1390.9 1658.8 1398.6 1666.6 1397.2 1672.6 1387.8 1686.6 1397.9 1698 1466.3 1718.3 Z" data-holc_grade="C"/>
<path d="M 2067 2201.4 2074.2 2304 2047 2305.2 2043.6 2254.6 2034.9 2255.4 2028.9 2252.2 2019.5 2253.1 2010.4 2254.9 2007.8 2250.5 2002.1 2189.7 2003.6 2172.1 2008.5 2167.1 2015.7 2166.6 2012.7 2106.3 2060.6 2122.4 2062.5 2178.8 2067 2201.4 Z M 1886.2 2037.6 1853 2109.3 1881.3 2152.5 1785.1 2204.3 1740.2 2194 1739 2224.5 1732.6 2267.7 1707 2262.2 1711.1 2228.5 1714.9 2166.9 1703.2 2166.9 1709.6 2112.5 1668.8 2091.7 1691.1 2061 1714.1 2071.5 1735.3 2078.3 1751.1 2088.2 1761.3 2091.1 1789.2 2020.4 1804 2019.5 1817.2 2016 1886.2 2037.6 Z" data-holc_grade="C"/>
<path d="M 1364.4 898.5 1250.4 932.1 1235.6 907.3 1258.8 900.5 1343.4 875.1 1364.4 898.5 Z M 1475.3 757.9 1480.7 786.6 1502.1 844.4 1502.1 865.6 1520.7 864.5 1520.7 880.4 1561.9 879.7 1562.7 894.4 1563 898.9 1585.9 898.1 1580.6 917.6 1588.4 961.2 1585 966.1 1566.3 967.7 1565.4 1021.5 1561.4 1026.1 1543.3 1015.5 1530 1011.7 1523.2 999.9 1512.4 989.7 1497.7 985.9 1486.9 976.8 1449.6 962.7 1416.2 958.9 1408.4 947.6 1389.3 865.2 1393.2 863.5 1449.6 839.1 1417.7 798.1 1408.4 768 1387.3 700.2 1411.8 694.9 1422.1 697.6 1426 711.7 1420.3 718 1423 725 1436.8 734.9 1441.9 746.4 1442.9 755 1450 759.2 1475.3 757.9 Z" data-holc_grade="C"/>
<path d="M 972.3 1697.6 932.8 1729.8 911.9 1713.3 952.6 1677 938.4 1669.1 927.7 1658.3 945.3 1639.9 967.8 1632.3 974.2 1633.6 992.1 1677.7 972.3 1697.6 Z M 1021.5 1396.6 1024.1 1452.6 1054 1430.3 1075.3 1465.5 1074.2 1529.2 1093.2 1535 1104.1 1534.5 1119 1537.7 1153 1534.1 1146.7 1549.7 1143.8 1567.5 1018.3 1568.8 1012 1563.1 1032.7 1526.1 1015.5 1521.6 1002.8 1522.1 983.8 1517.6 973.4 1518.5 964.2 1515.8 922.8 1514.1 910.7 1517.6 907.8 1546.1 902.7 1555 888.3 1559 875.6 1560.8 864.7 1555.5 832.4 1545.7 807.7 1547.9 807.1 1558.2 777.8 1589.3 774.9 1597.8 776.6 1609.8 787 1629 803.1 1684.2 903.2 1653.5 904.4 1658.4 854.3 1727 843.4 1730.1 839.9 1743.5 831.9 1751.1 821.5 1754.2 809.4 1754.2 795.6 1760 786.4 1769.8 759.4 1748 735.8 1734.1 724.2 1727.5 725.4 1718.5 732.9 1713.6 753 1703.8 767.4 1698.1 753.6 1697.6 748.4 1690.5 732.3 1639.7 736.9 1630.3 750.1 1624.5 759.9 1619.2 754.7 1601.4 749 1592.9 737.5 1588.9 705.8 1589.8 673.6 1588.9 668.4 1583.1 669.6 1564.8 681.7 1550.1 689.1 1535.9 694.3 1517.2 723.1 1516.7 734 1514.5 734.6 1486 740.4 1471.7 761.7 1459.3 776 1447.7 798.5 1440.6 813.5 1431.2 827.8 1440.1 892.3 1471.7 913.6 1481.5 969 1435.2 1021.5 1396.6 Z" data-holc_grade="C"/>
<path d="M 381.9 1330.2 431.6 1371.6 392.7 1401.3 376.7 1393 365.1 1390 342.6 1383.3 324.9 1374.3 307.3 1359.2 295.2 1343.9 281.4 1321.5 254.2 1304.8 230.4 1295.1 209.3 1285.1 189.4 1281.4 171.7 1277.7 160.1 1272.4 148.8 1264.4 129.4 1245.3 107.4 1236 86.3 1230.3 160.1 1161.5 173 1166.5 183.4 1168.5 200.6 1163.8 233.4 1179.9 353.9 1223.6 392.7 1228.6 409.6 1233.3 465.7 1267.7 431.1 1296.8 381.9 1330.2 Z" data-holc_grade="C"/>
<path d="M 311 1435.8 314.3 1462.8 322.1 1491 281.9 1548.9 268.9 1554.9 252.2 1556.8 229.7 1554.7 215 1550.1 210.7 1537.3 216.5 1514.2 222.9 1485.8 225.1 1476.5 230.5 1469.4 253.2 1454.7 279.6 1442.8 311 1435.8 Z" data-holc_grade="C"/>
<path d="M 765.2 1769.5 803.6 1797.1 763.1 1883.4 769 1893.3 772.1 1976.4 733 1977.2 732 1966.5 724.7 1957.9 656.5 1962.2 590.8 1945.3 674.9 1855 765.2 1769.5 Z" data-holc_grade="C"/>
<path d="M 995.1 2056.3 986.1 2060.3 971.9 2071.6 948.7 2113.7 927.6 2123 901.9 2127.3 859.4 2079.1 826.1 2108.3 797.4 2087.9 805 2070.2 805.7 2059 801.2 2034.8 805 1982.6 818.9 1982 831 1986.3 848.3 1994.6 874.6 1993.3 896.1 1990.1 932.8 1995.7 942.1 2007 949.7 2009.4 968.8 2006.1 986.1 2000.8 995.1 2056.3 Z" data-holc_grade="C"/>
<path d="M 1236.7 1959.8 1234.2 1980.1 1238.4 2001.1 1159.8 2002.4 1108.9 2004 1101 1999.2 1107.9 1972.6 1117.2 1934.8 1113.8 1916.3 1122.4 1881.8 1145.3 1859.8 1156.4 1856.3 1165 1852.3 1175 1857.1 1179.2 1879.9 1196.9 1923.3 1218.3 1951.7 1228 1957.9 1236.7 1959.8 Z" data-holc_grade="C"/>
<path d="M 2440.6 1423.9 2442.6 1447.8 2520.7 1445.5 2526 1492.7 2453.6 1497 2451.9 1478.5 2404 1480.4 2400 1426.6 2440.6 1423.9 Z M 2793.6 1733.4 2840.1 1841.5 2743.5 1819.7 2691.3 1762.3 2715.3 1761.8 2712.4 1719.2 2729.4 1724.6 2743.5 1718.6 2757.6 1719.7 2761.8 1717.5 2720.2 1634 2655.3 1634.5 2651.8 1625.2 2652.5 1608.3 2683.5 1607.7 2682.1 1575.5 2705.4 1566.8 2675 1510.5 2624.3 1513.8 2615.1 1442.3 2541 1443.9 2539.6 1426.5 2552.3 1425.9 2552.3 1417.7 2561.5 1417.7 2561.5 1406.3 2665.2 1407.9 2671.5 1476.7 2763.2 1474.5 2749.1 1440.1 2790 1423.7 2811.2 1458.7 2848.6 1455.9 2850 1498.5 2811.2 1502.9 2811.2 1507.8 2734.3 1525.3 2782.3 1568.4 2842.2 1624.1 2881.7 1623 2881.7 1648.7 2793.6 1650.9 2766.7 1650.9 2781.6 1678.7 2779.4 1713.7 2793.6 1733.4 Z" data-holc_grade="C"/>
<path d="M 1281.3 1941.8 1308.3 1934.8 1327 1927.1 1337.7 1927.3 1343.6 1935.1 1344.3 1947.4 1353.7 1950.4 1374.4 1951.2 1404.9 1946.9 1431.9 1944.5 1447.5 1943.2 1467.9 1950.1 1527.8 1993.3 1533 2010.2 1510.8 2066.7 1489 2110.7 1481.7 2137.3 1407.7 2119 1397.3 2118.2 1390.7 2114.2 1390.7 2034 1379.6 2028.7 1367.5 2020.4 1367.8 2013.4 1366.1 1999.4 1356.4 1991.1 1337 1988.2 1306.9 1972.1 1320.8 1964.3 1292 1949.9 1281.3 1941.8 Z" data-holc_grade="C"/>
<path d="M 1454.9 2225.4 1470.2 2274.1 1488.8 2327 1417.1 2346.7 1392.6 2356.5 1379.6 2356.3 1244.7 2320.1 1278.9 2245.8 1300.5 2250.6 1328.2 2248.5 1356.9 2252.6 1369.3 2247.2 1390.2 2245.8 1397.6 2241.2 1403.2 2209.2 1424.8 2221.3 1444 2223.4 1454.9 2225.4 Z" data-holc_grade="C"/>
<path d="M 1231.3 2509.5 1255.3 2543.1 1398.7 2526.3 1397.2 2583.4 1399.5 2606.9 1506.7 2612.4 1563.8 2676.5 1473.6 2762.1 1368.4 2738.2 1325.8 2725.1 1313.6 2726 1258.1 2663.4 1236.4 2549.5 1219.4 2529.3 1231.3 2509.5 Z M 1251.4 2477.1 1261.7 2452.9 1260.2 2439.7 1258.9 2422.7 1261 2412.8 1270.6 2406.4 1287.1 2407.1 1299.1 2409.9 1307.7 2414.1 1386.6 2413.2 1396.4 2469.1 1251.4 2477.1 Z" data-holc_grade="C"/>
<path d="M 2074 1248.2 2071.2 1212.5 1961.1 1216.3 1959.2 1147.9 1847.2 1153.7 1786.5 1156.2 1786.5 1143.4 1786.5 1075.7 1790.2 1075.6 1873.7 1073 1891.9 1077 1916.9 1082.7 1948 1089.7 1979.1 1098.4 1998.9 1105.7 1999.3 1119.4 2116.7 1118.1 2117.6 1176.5 2231.1 1175.9 2231.6 1233.7 2170.7 1236 2170.7 1247.1 2074 1248.2 Z" data-holc_grade="C"/>
<path d="M 1789.6 1055.1 1790.2 1075.6 1786.5 1075.7 1786.5 1143.4 1664.7 1145.8 1660.7 1065.3 1658.8 1025.8 1709.7 1023.1 1707.5 984.1 1751.4 981 1766.1 978.5 1787.2 979.9 1789.6 1055.1 Z" data-holc_grade="C"/>
<path d="M 1630.3 1162 1629.2 1169.1 1636.2 1177.4 1646.1 1183.6 1578.3 1240.1 1487.6 1167.4 1452.2 1168.9 1410.4 1125.7 1365.9 1156.6 1318.1 1119.7 1352.7 1095.2 1363.5 1105.8 1372.6 1100.2 1379.8 1108.3 1393 1119.9 1438.3 1091.5 1469.4 1084.4 1492.2 1085.3 1536.2 1085.5 1558.7 1108.9 1591.4 1147.9 1598.9 1162.7 1630.3 1162 Z" data-holc_grade="C"/>
<path d="M 1365.9 1156.6 1361.9 1170.7 1339.8 1172.3 1348.2 1349.5 1327.9 1350.1 1309.4 1352.7 1291.3 1353 1275.8 1357.3 1269.9 1365.1 1254.7 1375.5 1189.6 1378.8 1176.1 1383.6 1166.4 1383.6 1154.7 1390.1 1121.4 1393.1 1109.7 1389.8 1104.2 1376.2 1106.3 1362.8 1066.8 1363.1 1059.6 1357.9 1060.5 1341.3 1057.9 1331.6 1057.5 1319.5 1060.9 1305.2 1051.6 1292.2 1036.9 1283.7 1029.4 1272.3 1028.9 1257.1 1012.5 1248.3 1009.2 1230.7 1002.9 1218.7 1020.5 1208.2 1019.7 1188.1 984.8 1191 983.9 1181.6 1169.4 1175.7 1169.8 1167.9 1207.7 1166.7 1244.7 1165.6 1245.5 1154.9 1309.4 1152.9 1306 1126.6 1318.1 1119.7 1365.9 1156.6 Z" data-holc_grade="C"/>
<path d="M 1336.4 1530.4 1316.7 1534.2 1299.5 1541.6 1196.5 1576 1170.1 1528.6 1180.5 1523 1171.7 1505.2 1173.6 1486.5 1178.9 1475 1178.9 1460.2 1166.3 1448 1151.4 1446.5 1142.6 1441.8 1226 1399.4 1255.1 1386.1 1254.7 1375.5 1269.9 1365.1 1275.8 1357.3 1291.3 1353 1309.4 1352.7 1327.9 1350.1 1348.2 1349.5 1352.2 1434.7 1330.8 1434.7 1336.4 1530.4 Z" data-holc_grade="C"/>
<path d="M 879.4 783.2 915.7 748.4 928 734.1 962.5 713.2 997.5 687.5 1052.3 655.6 1115.7 645.2 1120.6 658 1129.2 666.6 1132.9 676.6 1180.3 675.6 1187 716.1 1186.4 726.5 1182.7 735.6 1185.2 750.8 1204.3 767.5 1209.8 781.7 1208 790.8 1202.4 798.4 1204.9 823.6 1219.7 844.1 1222.7 869.3 1193.2 876.4 1177.8 887.4 1216 945.9 1205.5 982.6 1126.1 960.7 1104.6 885 1081.2 876 1038.1 857.4 990.8 828.4 956.9 805.5 879.4 783.2 Z" data-holc_grade="C"/>
<path d="M 1862.4 950.2 1862.4 916.2 1905.3 915.7 1907 954 1942.6 953 1957.7 959.3 1968.1 968.6 1969.9 978.2 1968.1 983 1918.4 1033.5 1873.3 1017.8 1842.3 1002.1 1841.3 989.5 1800.2 976.2 1776.3 959.1 1775.7 834.5 1777 763.6 1775.2 732.6 1771.2 664.3 1769.7 639.6 1767.9 607.7 1781 604.2 1782.3 597.1 1800.6 597.1 1794.7 744.9 1803.9 753 1811.7 882.1 1799.9 958 1824.8 969.7 1896.2 995.5 1904.7 984.4 1860.2 966.6 1862.4 950.2 Z" data-holc_grade="C"/>
</g>
<g id="D">
<path d="M 204.8 1473 200 1518 150.8 1525.1 159.4 1500 129 1499 88 1495.5 44.9 1490.4 47.8 1438.6 92.1 1435.1 138.9 1430.9 167.4 1427.3 204.8 1473 Z" data-holc_grade="D"/>
<path d="M 2203.4 2005.8 2221 2044 2113.6 2068.9 2110 2058.5 2106.2 2025.5 2203.4 2005.8 Z" data-holc_grade="D"/>
<path d="M 2074 1248.2 2084.9 1390.9 2090.4 1462.3 2091.5 1476.4 2059.3 1476.7 2057.8 1468.6 1958.1 1472.4 1954 1457.9 1908.6 1457.9 1869.3 1466.3 1857.7 1452.3 1850.2 1448 1837.4 1444.8 1824.3 1401.9 1815.3 1389.7 1802.6 1382.5 1792.1 1376.1 1781.2 1362.7 1806.5 1345.1 1832.2 1327.4 1799.3 1219.6 1848.7 1218.6 1847.2 1153.7 1959.2 1147.9 1961.1 1216.3 2071.2 1212.5 2074 1248.2 Z" data-holc_grade="D"/>
<path d="M 2586.3 1516.4 2587.3 1569.2 2595.9 1568 2609.2 1564.5 2644.1 1565 2646.9 1633.6 2579.8 1633 2579.6 1584.8 2555.2 1584.7 2555.2 1543.2 2453.3 1547 2453.1 1524.6 2586.3 1516.4 Z M 2091.5 1476.4 2090.4 1462.3 2190.8 1458.8 2224.7 1459.2 2245.8 1457.2 2236.3 1347.8 2295.6 1334.2 2298.5 1393.3 2349.9 1391.9 2357.9 1505.4 2324.4 1506.4 2326.8 1531.1 2306.4 1531.5 2305.1 1541.5 2180.6 1543.7 2180.6 1530.9 2165.7 1530.9 2164.2 1508.8 2131 1509.6 2134.6 1484.3 2092.1 1486.3 2091.5 1476.4 Z" data-holc_grade="D"/>
<path d="M 1799.3 1219.6 1786.7 1220.1 1768.9 1217.2 1746.6 1211.3 1726.8 1201.9 1700.5 1186.2 1680.9 1170.7 1788.2 1167.2 1799.3 1219.6 Z M 1646.1 1183.6 1652.7 1192.4 1651.5 1199.9 1658.1 1211.6 1640.6 1227.1 1656.3 1241.2 1659.3 1331.7 1642.4 1332.2 1643 1353.3 1570.8 1357 1577.5 1464.9 1536.9 1466.5 1443.5 1470.1 1444.1 1496.4 1336.4 1530.4 1330.8 1434.7 1352.2 1434.7 1348.2 1349.5 1339.8 1172.3 1361.9 1170.7 1365.9 1156.6 1410.4 1125.7 1452.2 1168.9 1487.6 1167.4 1578.3 1240.1 1646.1 1183.6 Z" data-holc_grade="D"/>
<path d="M 1536.9 1466.5 1577.5 1464.9 1732.1 1458.2 1739.5 1519.4 1757.1 1530.1 1815.8 1530.5 1816.3 1583.1 1879.6 1616.4 1960.1 1642.5 1977.2 1610.6 2038.6 1632.5 2013.7 1679.7 1907.4 1642.5 1901.8 1643.9 1881.9 1638.6 1864.4 1659.7 1706.7 1664.7 1694.2 1598.1 1648.9 1587 1675.3 1520.1 1673.4 1475 1648.9 1474.7 1649.8 1518.3 1622.1 1579.5 1550.4 1561.6 1538.9 1550.2 1487.1 1589.5 1438.1 1551.6 1455.2 1538.4 1431.2 1518.3 1462.1 1495.1 1485.7 1486.5 1503.3 1482.5 1512.1 1477.9 1524.6 1475 1536.9 1466.5 Z" data-holc_grade="D"/>
<path d="M 1660.7 1065.3 1611.3 1089.6 1577.5 1050.4 1594.8 1034.4 1595.1 1027.5 1599.4 1021.4 1594.3 1012.8 1628.7 996.3 1655 1022.1 1658.8 1025.8 1660.7 1065.3 Z M 1842.3 1002.1 1842.8 1009 1834.1 1031.7 1808.7 1053 1789.6 1055.1 1787.2 979.9 1766.1 978.5 1751.4 981 1753.6 943 1776.3 959.1 1800.2 976.2 1841.3 989.5 1842.3 1002.1 Z" data-holc_grade="D"/>
<path d="M 1680.9 1170.7 1700.5 1186.2 1726.8 1201.9 1746.6 1211.3 1768.9 1217.2 1786.7 1220.1 1799.3 1219.6 1832.2 1327.4 1806.5 1345.1 1643 1353.3 1642.4 1332.2 1659.3 1331.7 1656.3 1241.2 1640.6 1227.1 1658.1 1211.6 1651.5 1199.9 1652.7 1192.4 1646.1 1183.6 1636.2 1177.4 1629.2 1169.1 1630.3 1162 1670.9 1159.5 1680.9 1170.7 Z" data-holc_grade="D"/>
<path d="M 1837.4 1444.8 1838.8 1453.7 1732.1 1458.2 1577.5 1464.9 1570.8 1357 1643 1353.3 1806.5 1345.1 1781.2 1362.7 1792.1 1376.1 1802.6 1382.5 1815.3 1389.7 1824.3 1401.9 1837.4 1444.8 Z" data-holc_grade="D"/>
</g>
</svg>