<?xml version="1.0"?>
<svg xmlns="http://www.w3.org/2000/svg" version="1.2" baseProfile="tiny" width="3000" height="3556" viewBox="0 0 3000 3556" stroke-linecap="round" stroke-linejoin="round">
<g id="A">
<path d="M 1776 942.8 1777.8 982.8 1776.5 1074 1777.1 1234.5 1754.5 1213.7 1682.8 1153.1 1607.8 1088.9 1591.4 1112.9 1593.9 1155.5 1586.8 1155.9 1563.9 1157 1563.6 1151.2 1562.8 1132.2 1559.5 1055 1545.6 1051.4 1521.1 1049.2 1516 1043.3 1506.1 1030.6 1481.6 1012.4 1531.4 1009.5 1529.2 968.7 1564.2 964.2 1629.7 955.9 1690.1 958.8 1686 922.4 1711.9 922.6 1732.5 922.8 1741.3 925.3 1755.5 939.2 1764.3 943.5 1776 942.8 Z M 1768.6 782.1 1770.5 823.2 1693.2 830.9 1622.6 835.8 1627.6 890.4 1619 894.9 1606.9 904.8 1595.2 922.2 1580.3 920.4 1573.6 906.6 1563.3 882.4 1562.8 847 1557.9 834 1587.5 831.8 1615 827.3 1609.5 794.1 1601 742.2 1550.7 744 1543 739.5 1547.1 725.6 1563.7 715.3 1557.8 704.2 1559.6 695.6 1554.7 581.9 1570.4 573.9 1588.9 571.2 1612.2 564.9 1615.4 557.3 1678.9 553.2 1680.6 619.3 1692.7 643.4 1710 668.3 1703.1 678.6 1705.6 701.8 1720.3 743 1717.7 772.3 1721.2 780.9 1729 775.7 1744.5 775.7 1768.6 782.1 Z" data-holc_grade="A"/>
<path d="M 2037.5 1178.4 2032.4 1236 2068.6 1237 2090.8 1246.1 2076 1272.1 1979.9 1272.7 1968.9 1265 1970.7 1259 1968.9 1246.6 1958.5 1234.6 1943.4 1226.5 1907.8 1227.8 1906.2 1178.5 1863.2 1179.1 1863.2 1222.9 1835.7 1224.1 1836.7 1189.9 1823.9 1188.6 1833.1 1116.9 1837.5 1113.6 1849.7 1128.8 1923.6 1127.8 1924.7 1179.7 2037.5 1178.4 Z" data-holc_grade="A"/>
<path d="M 1952.8 434.2 1954.7 468.4 1930.6 467.6 1896.7 462.4 1796.5 440.7 1787 485 1750.3 484.1 1740.1 530 1733.2 554 1678.9 553.2 1615.4 557.3 1610.7 534.4 1639.2 518 1677.6 516.3 1664.6 477.4 1722.5 479.2 1726.9 472.8 1729.4 428.1 1797.6 435.7 1815.9 327.7 1926 314.6 1928.4 338.9 1937.3 376.2 1952.6 407.1 1952.8 434.2 Z" data-holc_grade="A"/>
<path d="M 550.7 539.2 545 532.7 537.4 505.2 532.7 472 523.9 453.3 511.9 440.8 485.6 419.3 499 406 515.7 407.7 534.6 406 552.9 402.4 566.1 405.2 572.2 409.5 585.2 430 610.6 474.7 620.5 507.1 618.6 516.9 608.8 519 585.7 519.6 565.5 527.1 550.7 539.2 Z" data-holc_grade="A"/>
<path d="M 762.9 1773.1 688.7 1782.4 692.3 1797 703.7 1802.2 707.6 1808.7 724.1 1846.9 722.5 1862.5 697.7 1897.1 676.6 1916.8 642.1 1900.6 626.2 1902.2 611.2 1900.3 603.1 1904.2 592.3 1917.4 543.3 1880.8 604.1 1791.4 614.6 1779.4 649.7 1725.7 672.2 1698.5 669.6 1687.2 668.6 1676.5 680.3 1666.1 694.3 1663.2 731.1 1673.9 749.3 1683.7 754.1 1696.3 761 1701.2 762.9 1773.1 Z" data-holc_grade="A"/>
<path d="M 2037.5 1178.4 1924.7 1179.7 1923.6 1127.8 1849.7 1128.8 1837.5 1113.6 1857.5 1109.6 1859.3 1090.5 1871.2 1086.4 1891.3 1055.9 1906 1046.3 1911.4 945.2 1923.3 819.6 1942.5 822.3 2002.8 815 2025.2 797.2 2048 795.8 2080.5 795.4 2108.8 789 2082.8 899.6 2072.3 916.9 2068.7 933.3 2039.5 1073.6 1995.6 1067.7 1994.7 1141.4 2037.7 1145.5 2037.5 1178.4 Z" data-holc_grade="A"/>
</g>
<g id="B">
<path d="M 1609.5 794.1 1615 827.3 1587.5 831.8 1557.9 834 1536.9 837.7 1542 854.5 1544 885.7 1548.4 909.6 1563.2 950.2 1564.2 964.2 1529.2 968.7 1476.2 975.4 1450.9 977.1 1443.8 971.7 1442.8 960.6 1437.7 945.9 1423.9 933.1 1421.2 924 1427 916 1435.4 917 1440.8 908.9 1436.4 897.2 1436.4 883 1445.2 860.9 1428.3 860.5 1423.6 854.5 1411.1 833 1398.3 831 1382.4 837 1372 836.7 1341.7 711.8 1359.2 704.7 1376.7 701.7 1381.1 707.4 1379.4 713.8 1372.7 716.5 1377.1 722.2 1373.7 726.9 1376.1 731.9 1384.1 730.9 1388.9 736.6 1386.2 742.3 1397.3 763.5 1406.7 760.8 1416.5 762.5 1447.2 768.2 1472.5 777.9 1530.8 774.6 1534.2 800.8 1542.3 803.1 1564.2 802.8 1589.8 795.4 1609.5 794.1 Z" data-holc_grade="B"/>
<path d="M 2463.7 370.7 2567.5 421.7 2582.4 385.5 2638.1 445.1 2627.4 467.5 2691.7 526 2644.7 583.6 2632.9 611.3 2609.4 660.3 2713.3 716.7 2749.7 728.4 2849 622.8 2999 755.8 2950.9 813.4 2918.8 830.5 2896.4 856.1 2880.4 857.2 2844 864.7 2846.2 946.7 2835.5 960.6 2787.4 983 2784.2 996.9 2767.1 1003.3 2750 1005.5 2750.1 1083.3 2694.4 1097.2 2642 1098.3 2645.3 1150.9 2630 1167.4 2616.7 1211.1 2615.9 1252.2 2527.2 1268.7 2490.5 1263.4 2464.7 1276.8 2455.2 1268.3 2436 1262.1 2420.3 1269.9 2406.1 1269.6 2384.2 1261.7 2368.1 1279.8 2334.9 1252.1 2317.8 1240.4 2304.9 1222.3 2272.8 1186.1 2256.7 1159.4 2235.3 1143.4 2227.8 1113.6 2181.7 1065.7 2180.7 1052.9 2167.8 1044.4 2151.7 1011.3 2137.8 997.5 2136.7 978.3 2145.3 962.3 2143.1 936.7 2135.6 913.3 2138.8 898.3 2158.1 891.9 2166.6 901.5 2159.2 911.1 2173.1 926 2188.1 927.1 2198.8 910 2220.2 909 2226.6 889.8 2237.3 866.3 2257.6 858.8 2264 839.6 2268.2 815.1 2257.5 808.7 2232.9 810.9 2232.9 771.5 2223.3 754.4 2227.5 727.8 2265 727.7 2263.9 681.9 2277.8 677.7 2291.7 655.3 2292.7 624.4 2297 584.9 2326.9 592.4 2351.6 617.9 2365.5 615.8 2386.9 615.8 2402.9 622.2 2408.2 584.9 2409.3 560.3 2397.5 549.7 2380.4 529.5 2384.6 506 2395.3 512.4 2411.4 510.3 2422.1 501.7 2426.3 479.4 2423.1 459.1 2463.7 370.7 Z" data-holc_grade="B"/>
<path d="M 1968.9 1265 1979.9 1272.7 2076 1272.1 2046.2 1307.8 2024 1325.4 1982.7 1376.7 1919.3 1330.1 1968.9 1265 Z M 2148.3 1167.5 2279 1269.5 2286.9 1261.9 2305.6 1274.8 2326.8 1274.1 2343.7 1281.3 2369.6 1305.9 2344.5 1337.1 2328.3 1339.7 2334.4 1386.2 2308.2 1399.5 2251.4 1404.9 2236.6 1400.3 2237 1433.9 2125.1 1435.1 2130.5 1427.5 2208.2 1340.5 2175.4 1314.7 2186.2 1301.8 2105.6 1239.9 2085.4 1213 2098.7 1204.8 2111 1196.2 2124.3 1179.3 2134.7 1176.1 2148.3 1167.5 Z" data-holc_grade="B"/>
<path d="M 2842.2 2369.6 2795.4 2230.4 2816.8 2228.8 2842.1 2229.1 2855.9 2233.4 2877.9 2248.5 2885.6 2262.2 2942.3 2414.6 2860 2417.4 2842.2 2369.6 Z" data-holc_grade="B"/>
<path d="M 604.1 1791.4 543.3 1880.8 592.3 1917.4 617.5 1930.6 621.7 1940.2 619.6 1951.8 623.7 1960.7 623.7 1970.3 601 1989.4 564.6 2007.9 592 2046.2 587.9 2057.2 550.7 2096.2 515.7 2088.6 504 2089.9 490.3 2104.3 473.1 2111.8 458.7 2109.8 439.4 2113.2 422.9 2124.1 415.3 2139.8 394 2167.9 381.6 2167.9 383 2160.3 374.1 2138.4 338.3 2150.7 340.4 2160.3 319.1 2167.1 302 2110.3 278.6 2115.7 319 2245.8 302.5 2265.7 295.6 2293.7 289.4 2297.8 249.6 2261.5 189.7 2337.4 180.7 2337.4 160.8 2331.2 147 2373 122.3 2364.7 101 2348.9 75.8 2163.4 3.6 2164 1 2088 17.6 2040.1 118 1980 162.5 2040.3 289.7 2010.3 374.3 1955 491.1 1955.8 496.6 1946.2 504.2 1934.6 478.1 1902.4 454.8 1870.2 477.5 1842.2 486.4 1825.1 501.5 1811.4 525.6 1797.8 562.7 1789.6 592.2 1785.5 604.1 1791.4 Z" data-holc_grade="B"/>
<path d="M 462.1 574 483 597.7 428.8 640.6 418.3 650.2 415.4 664.7 390.2 675 386.7 675 395.7 700.9 363.6 699.3 335.3 701 300.1 698.7 276.4 702.8 254.4 706.9 250.2 694.8 241.8 685.8 221.9 686.9 221.7 676.8 224.3 661.2 231.3 649.5 234.4 639.4 236.4 620.4 249.1 603.1 275.6 585 301.1 587.7 331.5 587.5 353.3 563.7 366.2 540.5 391.9 520.2 419.8 505.1 435.6 527 462.1 574 Z" data-holc_grade="B"/>
<path d="M 1752.3 1262.6 1708.4 1266.6 1710.6 1316.8 1659.7 1320.3 1655.9 1315.5 1656 1302.8 1661.3 1301.5 1666.6 1305.2 1675.9 1306.5 1685.7 1302.6 1690.7 1295.5 1682.8 1153.1 1754.5 1213.7 1752.3 1262.6 Z" data-holc_grade="B"/>
<path d="M 1973.1 189 1948.5 220.8 1938.9 224.2 1923.2 219.7 1909.8 222.8 1903.4 231.2 1905.2 260 1899.9 267.7 1870.1 254.9 1824.2 305.1 1858.8 145 1868.5 132 1909.4 128.7 1938.9 134.2 1956.9 142.4 1972.2 175.5 1973.1 189 Z M 1989 67.2 2031.1 88.7 2017.6 104.1 1991.4 92.9 1971.9 90.3 1937.7 89.9 1915.6 87.5 1886.2 89.9 1876.5 78.7 1887.4 67.7 1901.3 63.7 1956.8 61.2 1989 67.2 Z M 1844.9 62.9 1834.9 146.2 1769.9 157.9 1727.3 155.3 1719.4 146.7 1728.9 134.6 1735.9 119.2 1737.5 104.8 1740.7 99.6 1757.6 100.2 1760.1 76.9 1723.4 61.9 1703.3 50.1 1733.7 1 1789.8 34.2 1844.9 62.9 Z" data-holc_grade="B"/>
<path d="M 762.9 1773.1 761 1701.2 781.3 1677.7 846.2 1681.4 884.6 1681.9 889.2 1695.8 890 1706.7 922.1 1706.2 924.9 1721.6 931.7 1726 947.7 1721.7 968.7 1703.9 981.9 1699.8 1002.9 1701.8 1021.3 1714 1022.3 1797.5 969.7 1847.3 924.6 1809.9 918.4 1813.2 859.4 1767.5 762.9 1773.1 Z" data-holc_grade="B"/>
<path d="M 1474 58.5 1475.1 92.3 1462.6 104.7 1456.8 132.1 1431.9 153.3 1428 159.4 1406.2 168.1 1375.7 173.1 1355.8 173.7 1363.5 187.8 1362.8 192.2 1341.2 191.7 1323.4 196.3 1318.6 178.7 1300.7 140.1 1299 129.6 1290.9 130.9 1279.1 129.2 1252.5 112.3 1235.1 103.4 1227.7 89.3 1240.3 83.4 1272.8 80.4 1278 75.8 1278.5 68.6 1270.9 43.7 1271.1 37.2 1274.8 26.5 1280.9 23.5 1319.9 39.1 1342.8 38.1 1352.8 51.5 1394.4 48.5 1412.7 51.5 1428.9 58 1474 58.5 Z" data-holc_grade="B"/>
<path d="M 1047.3 778.8 1035 721.8 1039.4 699.1 1032 684.4 1016.5 669.4 1037.9 653.6 1048.4 647.1 1056.2 635.4 1068.3 625.3 1078.5 624.6 1091.4 621.4 1131.3 627 1148.4 625.8 1182.2 628 1228.9 623.6 1251.5 618.6 1273.9 610.6 1281.1 620.7 1281.1 629.7 1214 669.2 1219.8 679.3 1228.8 681.3 1231.5 686.9 1226.9 694.1 1232.7 703.6 1237.8 703.1 1257.3 694.6 1265.6 694.4 1266.3 705.5 1247.1 727.3 1225.4 737.7 1205.7 754.4 1206.4 762 1124 798.8 1100.9 766.3 1047.3 778.8 Z" data-holc_grade="B"/>
<path d="M 1102.5 483.9 1046.5 489.4 968.5 496.9 968.2 496.9 988.8 436.6 1029.1 417.3 1096.8 414.1 1102.5 483.9 Z" data-holc_grade="B"/>
<path d="M 339.7 788.1 378.8 838.4 313.3 896.7 335.3 925.4 329.6 931.2 315.1 932.1 304.7 940.2 283 939.1 273 960 178 916.6 202.7 869.3 200 853.6 215 842.3 238.7 834.9 339.7 788.1 Z" data-holc_grade="B"/>
<path d="M 502.9 1408.1 546.2 1438.7 533.8 1451.6 604.8 1504.1 582.8 1552.7 629.2 1590.3 626.1 1596.5 546.7 1599.2 538.5 1583.8 512.6 1584.6 494 1575 477.9 1590.2 457.1 1586.8 429.5 1584 398.8 1574.1 377.1 1568.5 348.3 1562.6 335.4 1558.3 347 1521.9 354.9 1503.9 369 1488.2 393.2 1476.7 410.7 1475.1 437.5 1475.9 451.3 1473.4 482.3 1429.4 502.9 1408.1 Z" data-holc_grade="B"/>
<path d="M 1231.7 3230.3 1219.9 3255.8 1157.9 3243 1114.7 3233.8 1082.5 3225.8 1090 3188.5 1093.7 3160.6 1095.5 3129.5 1126 3133 1165.7 3136.5 1218.7 3139.7 1260.7 3140.5 1262.2 3157.4 1251.9 3188.5 1231.7 3230.3 Z" data-holc_grade="B"/>
<path d="M 1016.5 669.4 1032 684.4 1039.4 699.1 1035 721.8 1047.3 778.8 992 800.8 950.7 821.6 998.7 884.7 963.6 917.8 929.2 944.7 916.8 963.1 880.5 1007.8 739.8 911.5 633.4 838.5 675.9 790.8 716.5 740 672.3 688.5 625.6 641.9 555.5 564.1 580.2 542.1 618.9 583.1 687.1 648.1 713.5 655.5 742.4 657.3 767 653.1 784.8 646.9 795.9 647 803.9 653.1 814.9 662.9 835.2 651.9 851.8 648.2 867.8 643.9 864.2 587.6 966.2 575.4 973.6 599.3 996.3 630.5 1011.1 664.2 1016.5 669.4 Z" data-holc_grade="B"/>
<path d="M 1067.7 1378.7 1050.5 1378.1 1040.8 1381.6 1036 1388.6 1028.7 1386.9 1022.3 1379.7 1015.8 1382.4 1015 1394.7 989.2 1398.2 963.6 1399.2 934.8 1398.4 913 1401.4 884.5 1411.3 869.7 1424.1 859.8 1424.9 850.1 1430.8 839.3 1430.8 823.4 1444.4 798.5 1439.7 789.2 1434.5 787.9 1422.6 793.9 1401.6 794.5 1389.8 785.3 1384.5 770.8 1400.3 755.6 1410.8 743.1 1404.9 731.2 1382.5 710.1 1374 712.1 1364.1 739.2 1327.3 720.7 1323.4 707.5 1311.5 744.5 1223.5 713.5 1222.2 681.1 1303.6 584.2 1273.3 563.7 1322.6 521.5 1344.9 506.9 1345.5 490.5 1328.4 491.1 1317.9 483.9 1306.1 476 1308.7 406 1386.8 376.9 1407.2 353.2 1411.1 245.7 1372.9 274.7 1340.7 295.2 1318.4 315 1311.8 332.2 1296.8 370.4 1327.7 381 1308.6 407.4 1283 414.6 1285.7 423.9 1283 435.8 1266 457.6 1256.8 474.7 1257.5 496.5 1268.7 509 1244.4 462.2 1184.5 412.8 1191.7 427.4 1091.2 490.6 1147.1 503.8 1138.6 505.1 1154.4 526.9 1179.3 540.1 1164.9 577.1 1108.4 598.9 1090.1 614 1057.9 629.2 1038.9 647 1033.6 685.9 1067.1 758.5 983.1 822.5 990.4 943.8 1053.5 1000.5 1101.5 1071.7 1203.3 1071 1213.2 1111.3 1225.7 1117.8 1268.4 1114.5 1284.2 1098.7 1321.6 1038.7 1296.6 1018.9 1345.9 1059.8 1360.4 1067.7 1378.7 Z" data-holc_grade="B"/>
<path d="M 1170.7 1503.2 1170.3 1513.2 984.8 1520.7 937.2 1523.8 936.4 1516 926.7 1503.4 918.4 1505.6 909.2 1502.1 885.3 1484.1 869.4 1477.2 858.4 1474.2 857 1467 849 1457.3 836.6 1459.7 829.1 1457.3 823.4 1444.4 839.3 1430.8 850.1 1430.8 859.8 1424.9 869.7 1424.1 884.5 1411.3 913 1401.4 934.8 1398.4 963.6 1399.2 989.2 1398.2 1015 1394.7 1015.8 1382.4 1022.3 1379.7 1028.7 1386.9 1036 1388.6 1040.8 1381.6 1050.5 1378.1 1067.7 1378.7 1076.6 1407.3 1083 1437.9 1125.5 1437.1 1128.5 1487.5 1171.5 1485.3 1170.7 1503.2 Z" data-holc_grade="B"/>
<path d="M 1353.6 1409.7 1319 1441.2 1307 1450 1310.3 1484 1246.4 1486.5 1245.5 1500.3 1208.6 1501.7 1209.1 1488.4 1219.5 1474.5 1234.1 1474.5 1247.8 1467.7 1265.3 1466.8 1278.4 1464.7 1273.7 1410.8 1251.4 1381.2 1236.2 1373.5 1203.5 1388.9 1185.7 1404.9 1158.9 1386.8 1169 1369.3 1177.3 1345.4 1183.9 1339.4 1201.7 1336.8 1212.1 1332.9 1185.4 1287 1207.1 1271.9 1271 1380.3 1287.1 1352.5 1307.3 1359.6 1318.9 1367.3 1338.8 1390.7 1353.6 1409.7 Z" data-holc_grade="B"/>
<path d="M 1409.3 988.5 1418.7 1027.2 1450.5 1079.9 1394.1 1111.4 1371.1 1091.6 1370.1 1076 1352 1048.6 1349 1034 1353 1020.3 1370.1 981.3 1409.3 988.5 Z" data-holc_grade="B"/>
<path d="M 1776 942.8 1764.3 943.5 1755.5 939.2 1741.3 925.3 1732.5 922.8 1711.9 922.6 1709.8 860.8 1772 854.8 1776 942.8 Z M 1923.3 819.6 1911.4 945.2 1906 1046.3 1891.3 1055.9 1871.2 1086.4 1859.3 1090.5 1857.5 1109.6 1837.5 1113.6 1833.1 1116.9 1823.9 1188.6 1836.7 1189.9 1835.7 1224.1 1863.2 1222.9 1861 1244.1 1905.5 1266.9 1897 1281.2 1825.7 1248 1800.8 1233 1812.6 1135.3 1804.7 969.1 1795.5 958.6 1801.3 768.4 1783 768.4 1781.7 777.5 1768.6 782.1 1744.5 775.7 1729 775.7 1721.2 780.9 1717.7 772.3 1720.3 743 1705.6 701.8 1703.1 678.6 1710 668.3 1692.7 643.4 1680.6 619.3 1678.9 553.2 1733.2 554 1740.1 530 1785.8 542.8 1784.1 559.2 1854 533.4 1881.6 576.3 1887.6 612.4 1839.4 679.4 1819.5 682.9 1823.9 761.9 1861.8 763.6 1851.5 805.7 1923.3 819.6 Z" data-holc_grade="B"/>
<path d="M 1787 485 1796.5 440.7 1896.7 462.4 1930.6 467.6 1954.7 468.4 1959.1 541.4 1872 526.3 1780.8 509.1 1787 485 Z" data-holc_grade="B"/>
</g>
<g id="C">
<path d="M 2237.4 1734.6 2247 1875.5 2225.9 1878.1 2223.2 1820.9 2190 1822.6 2187.4 1786 2086 1790.1 2075 1606.5 2171.7 1605 2173.5 1633 2231.3 1629.1 2237 1728.8 2237.4 1734.6 Z" data-holc_grade="C"/>
<path d="M 1959.1 541.4 1954.7 468.4 1952.8 434.2 1964.8 435.2 1985 416.8 1997.8 412.8 2007.8 415.8 2023.6 435.9 2052.4 450 2071.7 472.3 2082 494.4 2091.9 527.2 2058.8 527.8 2052.6 529.1 2019.6 526.4 2019.7 535.5 1987.9 533.2 1981.6 541.8 1959.1 541.4 Z" data-holc_grade="C"/>
<path d="M 1467.2 2211.7 1485.6 2209.1 1503.4 2209.7 1519.5 2214.4 1524.5 2231.4 1524.2 2241.1 1505.7 2277.9 1489.3 2270.5 1477.6 2270.9 1472.5 2281.9 1463.8 2283.6 1412.5 2267.2 1400.4 2266.9 1384.3 2275.9 1368.5 2293.6 1342.7 2288.6 1319.6 2269.5 1355.8 2230.4 1336 2207.7 1330.6 2210.4 1324.9 2229.1 1303.1 2253.8 1288 2262.8 1228.3 2290.9 1179.4 2237.1 1190.4 2225.7 1197.5 2214.4 1187.8 2207 1175 2189.6 1128.4 2241.7 1104.2 2220.7 1173.7 2143.5 1192.8 2160.2 1225.4 2128.9 1261.2 2103.5 1281.7 2117.2 1308.9 2113.2 1318.6 2120.5 1332.3 2122.2 1353.8 2133.2 1378.6 2134.6 1391.7 2135.2 1399.4 2145.3 1398.1 2152.9 1388.7 2171 1398.7 2185.7 1467.2 2211.7 Z" data-holc_grade="C"/>
<path d="M 2068.7 2833.5 2075.9 2965.6 2048.7 2967.1 2045.3 2902 2036.6 2903.1 2030.5 2899 2021.1 2900.1 2012 2902.4 2009.4 2896.8 2003.7 2818.5 2005.2 2795.9 2010.1 2789.5 2017.3 2788.7 2014.2 2711.2 2062.2 2731.9 2064.1 2804.5 2068.7 2833.5 Z M 1887.6 2622.8 1854.3 2715 1882.7 2770.7 1786.4 2837.4 1741.4 2824.2 1740.3 2863.3 1733.8 2919.1 1708.1 2911.9 1712.3 2868.6 1716.1 2789.2 1704.3 2789.2 1710.8 2719.2 1669.9 2692.5 1692.2 2653 1715.3 2666.5 1736.4 2675.2 1752.3 2687.9 1762.5 2691.7 1790.5 2600.6 1805.2 2599.5 1818.4 2595 1887.6 2622.8 Z" data-holc_grade="C"/>
<path d="M 1365.4 1156.4 1251.3 1199.6 1236.6 1167.8 1259.8 1158.9 1344.4 1126.3 1365.4 1156.4 Z M 1476.2 975.4 1481.6 1012.4 1503 1086.7 1503 1114.1 1521.6 1112.6 1521.6 1133.1 1562.8 1132.2 1563.6 1151.2 1563.9 1157 1586.8 1155.9 1581.4 1181 1589.3 1237.2 1585.9 1243.5 1567.2 1245.5 1566.3 1314.8 1562.3 1320.7 1544.2 1307 1530.9 1302.1 1524.1 1287 1513.3 1273.8 1498.6 1268.9 1487.8 1257.2 1450.5 1239.1 1417.2 1234.2 1409.3 1219.6 1390.2 1113.6 1394.1 1111.4 1450.5 1079.9 1418.7 1027.2 1409.3 988.5 1388.3 901.2 1412.8 894.3 1423.1 897.8 1427 916 1421.2 924 1423.9 933.1 1437.7 945.9 1442.8 960.6 1443.8 971.7 1450.9 977.1 1476.2 975.4 Z" data-holc_grade="C"/>
<path d="M 972.8 2185.1 933.3 2226.4 912.4 2205.2 953.2 2158.5 939 2148.3 928.2 2134.3 945.9 2110.7 968.3 2100.9 974.7 2102.6 992.7 2159.4 972.8 2185.1 Z M 1022.3 1797.5 1024.8 1869.6 1054.8 1841 1076 1886.3 1074.9 1968.3 1093.9 1975.7 1104.8 1975.2 1119.8 1979.2 1153.7 1974.6 1147.4 1994.7 1144.5 2017.6 1019 2019.3 1012.7 2011.8 1033.4 1964.2 1016.1 1958.5 1003.5 1959.1 984.5 1953.3 974.1 1954.5 964.9 1951 923.4 1948.7 911.3 1953.3 908.4 1990 903.3 2001.4 888.9 2006.6 876.2 2008.9 865.2 2002 833 1989.4 808.2 1992.2 807.7 2005.4 778.3 2045.5 775.4 2056.4 777.1 2071.9 787.4 2096.6 803.5 2167.7 903.8 2128.2 904.9 2134.5 854.8 2222.8 843.8 2226.8 840.3 2244 832.3 2253.8 821.9 2257.8 809.8 2257.8 796 2265.2 786.8 2277.8 759.7 2249.7 736.1 2231.9 724.6 2223.3 725.8 2211.8 733.2 2205.5 753.4 2192.9 767.8 2185.5 754 2184.9 748.8 2175.7 732.7 2110.3 737.3 2098.3 750.6 2090.8 760.4 2083.9 755.2 2061 749.5 2050.1 738 2044.9 706.3 2046.1 674 2044.9 668.9 2037.4 670 2013.9 682.1 1995 689.6 1976.7 694.8 1952.6 723.6 1952 734.6 1949.2 735.2 1912.5 740.9 1894.1 762.3 1878.1 776.7 1863.2 799.1 1854 814.1 1842 828.5 1853.5 892.9 1894.2 914.2 1906.8 969.7 1847.3 1022.3 1797.5 Z" data-holc_grade="C"/>
<path d="M 382.5 1711.6 432.1 1764.9 393.2 1803.2 377.3 1792.4 365.6 1788.5 343.2 1779.9 325.5 1768.3 307.8 1748.9 295.7 1729.1 282 1700.3 254.8 1678.8 231 1666.3 209.9 1653.3 190.1 1648.6 172.4 1643.8 160.7 1636.9 149.5 1626.6 130.1 1602.1 108.1 1590 87 1582.7 160.9 1494.2 173.8 1500.7 184.2 1503.2 201.5 1497.2 234.2 1517.9 354.6 1574.4 393.5 1580.9 410.3 1586.9 466.4 1631.2 431.8 1668.6 382.5 1711.6 Z" data-holc_grade="C"/>
<path d="M 311.5 1847.4 314.7 1882.2 322.5 1918.6 282.2 1993 269.2 2000.7 252.5 2003.2 230 2000.5 215.2 1994.5 211 1978 216.8 1948.3 223.3 1911.7 225.4 1899.7 230.9 1890.7 253.6 1871.7 280 1856.5 311.5 1847.4 Z" data-holc_grade="C"/>
<path d="M 765.6 2277.4 804 2313 763.4 2424 769.3 2436.8 772.3 2543.8 733.2 2544.8 732.1 2531 724.9 2520 656.6 2525.4 590.8 2503.6 675.1 2387.4 765.6 2277.4 Z" data-holc_grade="C"/>
<path d="M 995.4 2646.8 986.4 2651.9 972.2 2666.4 948.9 2720.6 927.8 2732.7 902.1 2738.2 859.5 2676 826.3 2713.6 797.5 2687.4 805.2 2664.6 805.9 2650.1 801.4 2619 805.2 2551.8 819.1 2551.1 831.2 2556.6 848.5 2567.3 874.9 2565.6 896.3 2561.5 933.1 2568.7 942.4 2583.2 950 2586.3 969.1 2582.2 986.4 2575.3 995.4 2646.8 Z" data-holc_grade="C"/>
<path d="M 1237.3 2522.6 1234.9 2548.8 1239 2575.8 1160.4 2577.5 1109.4 2579.5 1101.5 2573.3 1108.4 2539.1 1117.8 2490.5 1114.3 2466.7 1123 2422.2 1145.9 2393.9 1157 2389.4 1165.6 2384.2 1175.7 2390.4 1179.8 2419.8 1197.5 2475.7 1218.9 2512.3 1228.6 2520.2 1237.3 2522.6 Z" data-holc_grade="C"/>
<path d="M 2441.9 1832.4 2443.8 1863.1 2522 1860.1 2527.4 1920.9 2455 1926.5 2453.3 1902.7 2405.3 1905.2 2401.3 1835.9 2441.9 1832.4 Z M 2795.4 2230.4 2842.2 2369.6 2745.4 2341.6 2693.1 2267.8 2717.1 2267.1 2714.2 2212.2 2731.2 2219.2 2745.3 2211.5 2759.4 2212.9 2763.6 2210 2721.9 2102.5 2656.9 2103.3 2653.4 2091.4 2654.1 2069.6 2685.1 2068.8 2683.7 2027.3 2706.9 2016.1 2676.5 1943.7 2625.7 1948 2616.4 1855.9 2542.3 1858.1 2540.9 1835.6 2553.6 1834.9 2553.6 1824.3 2562.8 1824.3 2562.7 1809.6 2666.5 1811.6 2672.9 1900.1 2764.7 1897.2 2750.5 1852.9 2791.4 1831.8 2812.6 1876.8 2850 1873.2 2851.5 1928 2812.7 1933.7 2812.7 1940 2735.8 1962.6 2783.9 2018.1 2844 2089.7 2883.5 2088.3 2883.5 2121.3 2795.3 2124.2 2768.5 2124.3 2783.3 2160.1 2781.3 2205.1 2795.4 2230.4 Z" data-holc_grade="C"/>
<path d="M 1282 2499.5 1309 2490.5 1327.7 2480.5 1338.5 2480.9 1344.4 2490.9 1345.1 2506.8 1354.4 2510.6 1375.2 2511.6 1405.7 2506.1 1432.7 2503 1448.3 2501.2 1468.8 2510.2 1528.7 2565.8 1533.9 2587.5 1511.7 2660.3 1489.9 2716.9 1482.6 2751.1 1408.5 2727.6 1398.1 2726.6 1391.5 2721.4 1391.5 2618.2 1380.4 2611.3 1368.3 2600.6 1368.6 2591.7 1366.9 2573.7 1357.2 2563 1337.8 2559.2 1307.6 2538.5 1321.5 2528.5 1292.7 2509.9 1282 2499.5 Z" data-holc_grade="C"/>
<path d="M 1455.7 2864.6 1471.1 2927.3 1489.7 2995.4 1417.9 3020.7 1393.3 3033.3 1380.3 3033 1245.2 2986.5 1279.5 2890.8 1301.1 2897 1328.9 2894.4 1357.6 2899.7 1370 2892.6 1391 2890.8 1398.4 2884.9 1404 2843.7 1425.6 2859.3 1444.8 2862 1455.7 2864.6 Z" data-holc_grade="C"/>
<path d="M 1231.7 3230.3 1255.8 3273.5 1399.5 3251.9 1397.9 3325.4 1400.2 3355.7 1507.6 3362.8 1564.9 3445.3 1474.5 3555.4 1369 3524.8 1326.4 3507.8 1314.2 3509 1258.5 3428.4 1236.8 3281.8 1219.9 3255.8 1231.7 3230.3 Z M 1251.9 3188.5 1262.2 3157.4 1260.7 3140.5 1259.5 3118.5 1261.5 3105.8 1271.2 3097.6 1287.7 3098.4 1299.7 3102.1 1308.3 3107.5 1387.4 3106.3 1397.2 3178.3 1251.9 3188.5 Z" data-holc_grade="C"/>
<path d="M 2075 1606.5 2072.2 1560.5 1962 1565.4 1960.1 1477.3 1848.1 1484.9 1787.5 1488.1 1787.5 1471.7 1787.4 1384.5 1791.1 1384.3 1874.6 1381 1892.8 1386.2 1917.8 1393.5 1948.9 1402.5 1980 1413.7 1999.8 1423.1 2000.3 1440.7 2117.7 1439 2118.6 1514.2 2232.1 1513.3 2232.6 1587.6 2171.7 1590.7 2171.7 1605 2075 1606.5 Z" data-holc_grade="C"/>
<path d="M 1790.5 1357.9 1791.1 1384.3 1787.4 1384.5 1787.5 1471.7 1665.6 1474.7 1661.6 1371.1 1659.7 1320.3 1710.6 1316.8 1708.4 1266.6 1752.3 1262.6 1766.9 1259.3 1788.1 1261.2 1790.5 1357.9 Z" data-holc_grade="C"/>
<path d="M 1631.2 1495.7 1630.1 1504.8 1637.1 1515.4 1647 1523.4 1579.2 1596.1 1488.5 1502.6 1453.1 1504.5 1411.3 1448.9 1366.8 1488.7 1319 1441.2 1353.6 1409.7 1364.4 1423.3 1373.5 1416.1 1380.7 1426.5 1393.9 1441.4 1439.2 1404.9 1470.3 1395.8 1493.1 1396.8 1537.1 1397.1 1559.6 1427.3 1592.3 1477.5 1599.8 1496.5 1631.2 1495.7 Z" data-holc_grade="C"/>
<path d="M 1366.8 1488.7 1362.8 1506.9 1340.7 1508.9 1349.1 1736.9 1328.8 1737.8 1310.3 1741.2 1292.2 1741.6 1276.6 1747 1270.7 1757.1 1255.6 1770.5 1190.4 1774.6 1176.9 1780.9 1167.2 1780.9 1155.5 1789.3 1122.2 1793.1 1110.4 1788.9 1105 1771.3 1107.1 1754.1 1067.6 1754.5 1060.4 1747.8 1061.3 1726.4 1058.7 1713.8 1058.3 1698.3 1061.7 1679.9 1052.5 1663.2 1037.7 1652.3 1030.2 1637.6 1029.8 1617.9 1013.4 1606.6 1010 1584 1003.7 1568.5 1021.4 1555.1 1020.5 1529.1 985.6 1532.9 984.8 1520.7 1170.3 1513.2 1170.7 1503.2 1208.6 1501.7 1245.5 1500.3 1246.4 1486.5 1310.3 1484 1307 1450 1319 1441.2 1366.8 1488.7 Z" data-holc_grade="C"/>
<path d="M 1337.2 1969.9 1317.5 1974.8 1300.3 1984.4 1197.3 2028.6 1170.9 1967.5 1181.2 1960.3 1172.4 1937.4 1174.3 1913.4 1179.7 1898.5 1179.7 1879.4 1167.1 1863.8 1152.1 1861.9 1143.3 1855.8 1226.8 1801.3 1255.9 1784.1 1255.6 1770.5 1270.7 1757.1 1276.6 1747 1292.2 1741.6 1310.3 1741.2 1328.8 1737.8 1349.1 1736.9 1353.1 1846.7 1331.7 1846.7 1337.2 1969.9 Z" data-holc_grade="C"/>
<path d="M 880.5 1007.8 916.8 963.1 929.2 944.7 963.6 917.8 998.7 884.7 1053.4 843.7 1116.8 830.2 1121.7 846.8 1130.3 857.8 1134 870.7 1181.3 869.5 1188.1 921.5 1187.5 935 1183.8 946.6 1186.2 966.2 1205.3 987.7 1210.8 1006.1 1209 1017.7 1203.4 1027.5 1205.9 1060 1220.7 1086.3 1223.7 1118.8 1194.2 1128 1178.8 1142.1 1216.9 1217.4 1206.5 1264.6 1127.1 1236.4 1105.6 1139 1082.2 1127.3 1039.2 1103.4 991.8 1066 958 1036.6 880.5 1007.8 Z" data-holc_grade="C"/>
<path d="M 1863.2 1222.9 1863.2 1179.1 1906.2 1178.5 1907.8 1227.8 1943.4 1226.5 1958.5 1234.6 1968.9 1246.6 1970.7 1259 1968.9 1265 1919.3 1330.1 1874.1 1309.9 1843.2 1289.7 1842.1 1273.5 1801.1 1256.4 1777.1 1234.5 1776.5 1074 1777.8 982.8 1776 942.8 1772 854.8 1770.5 823.2 1768.6 782.1 1781.7 777.5 1783 768.4 1801.3 768.4 1795.5 958.6 1804.7 969.1 1812.6 1135.3 1800.8 1233 1825.7 1248 1897 1281.2 1905.5 1266.9 1861 1244.1 1863.2 1222.9 Z" data-holc_grade="C"/>
</g>
<g id="D">
<path d="M 205.2 1895.2 200.2 1953.1 151 1962.2 159.7 1930 129.2 1928.6 88.3 1924 45.1 1917.4 48.2 1850.7 92.5 1846.3 139.3 1840.9 167.8 1836.3 205.2 1895.2 Z" data-holc_grade="D"/>
<path d="M 2205.1 2581.7 2222.7 2630.8 2115.2 2663 2111.6 2649.6 2107.8 2607 2205.1 2581.7 Z" data-holc_grade="D"/>
<path d="M 2075 1606.5 2086 1790.1 2091.6 1882 2092.7 1900.2 2060.4 1900.6 2058.9 1890.2 1959.2 1895.1 1955.1 1876.4 1909.7 1876.4 1870.3 1887.3 1858.7 1869.4 1851.2 1863.8 1838.5 1859.7 1825.3 1804.4 1816.3 1788.7 1803.6 1779.4 1793.1 1771.2 1782.2 1754 1807.5 1731.4 1833.2 1708.5 1800.2 1569.8 1849.6 1568.5 1848.1 1484.9 1960.1 1477.3 1962 1565.4 2072.2 1560.5 2075 1606.5 Z" data-holc_grade="D"/>
<path d="M 2587.8 1951.3 2588.8 2019.3 2597.4 2017.8 2610.7 2013.3 2645.6 2013.8 2648.5 2102.1 2581.4 2101.5 2581.1 2039.5 2556.7 2039.3 2556.7 1985.9 2454.7 1990.8 2454.5 1962.1 2587.8 1951.3 Z M 2092.7 1900.2 2091.6 1882 2192 1877.5 2225.9 1878.1 2247 1875.5 2237.4 1734.6 2296.7 1717 2299.6 1793.2 2351.1 1791.3 2359.2 1937.4 2325.7 1938.7 2328.1 1970.5 2307.7 1971 2306.5 1983.9 2181.9 1986.8 2181.9 1970.4 2166.9 1970.4 2165.4 1941.9 2132.2 1943 2135.8 1910.4 2093.3 1913 2092.7 1900.2 Z" data-holc_grade="D"/>
<path d="M 1800.2 1569.8 1787.7 1570.4 1769.8 1566.7 1747.5 1559.1 1727.7 1547 1701.5 1526.8 1681.8 1506.9 1789.2 1502.2 1800.2 1569.8 Z M 1647 1523.4 1653.6 1534.7 1652.4 1544.4 1659.1 1559.5 1641.5 1579.4 1657.3 1597.5 1660.3 1714.1 1643.3 1714.7 1643.9 1741.9 1571.8 1746.7 1578.5 1885.6 1537.9 1887.6 1444.4 1892.3 1445 1926.1 1337.2 1969.9 1331.7 1846.7 1353.1 1846.7 1349.1 1736.9 1340.7 1508.9 1362.8 1506.9 1366.8 1488.7 1411.3 1448.9 1453.1 1504.5 1488.5 1502.6 1579.2 1596.1 1647 1523.4 Z" data-holc_grade="D"/>
<path d="M 1537.9 1887.6 1578.5 1885.6 1733.1 1876.9 1740.6 1955.7 1758.1 1969.5 1816.9 1970 1817.4 2037.7 1880.7 2080.5 1961.3 2114.1 1978.4 2073.1 2039.9 2101.2 2014.9 2162 1908.5 2114.1 1903 2116 1883.1 2109.1 1865.5 2136.3 1707.7 2142.8 1695.2 2057.1 1649.9 2042.8 1676.3 1956.6 1674.4 1898.6 1649.9 1898.1 1650.8 1954.3 1623.1 2033.1 1551.4 2010.1 1539.8 1995.3 1488 2046 1439 1997.2 1456.1 1980.1 1432 1954.3 1463 1924.4 1486.6 1913.3 1504.2 1908.3 1513 1902.3 1525.5 1898.6 1537.9 1887.6 Z" data-holc_grade="D"/>
<path d="M 1661.6 1371.1 1612.3 1402.4 1578.4 1351.9 1595.7 1331.4 1596 1322.5 1600.3 1314.7 1595.2 1303.6 1629.6 1282.3 1655.9 1315.5 1659.7 1320.3 1661.6 1371.1 Z M 1843.2 1289.7 1843.7 1298.6 1835 1327.8 1809.6 1355.3 1790.5 1357.9 1788.1 1261.2 1766.9 1259.3 1752.3 1262.6 1754.5 1213.7 1777.1 1234.5 1801.1 1256.4 1842.1 1273.5 1843.2 1289.7 Z" data-holc_grade="D"/>
<path d="M 1681.8 1506.9 1701.5 1526.8 1727.7 1547 1747.5 1559.1 1769.8 1566.7 1787.7 1570.4 1800.2 1569.8 1833.2 1708.5 1807.5 1731.4 1643.9 1741.9 1643.3 1714.7 1660.3 1714.1 1657.3 1597.5 1641.5 1579.4 1659.1 1559.5 1652.4 1544.4 1653.6 1534.7 1647 1523.4 1637.1 1515.4 1630.1 1504.8 1631.2 1495.7 1671.8 1492.4 1681.8 1506.9 Z" data-holc_grade="D"/>
<path d="M 1838.5 1859.7 1839.9 1871.2 1733.1 1876.9 1578.5 1885.6 1571.8 1746.7 1643.9 1741.9 1807.5 1731.4 1782.2 1754 1793.1 1771.2 1803.6 1779.4 1816.3 1788.7 1825.3 1804.4 1838.5 1859.7 Z" data-holc_grade="D"/>
</g>
</svg>