<?xml version="1.0"?>
<svg xmlns="http://www.w3.org/2000/svg" version="1.2" baseProfile="tiny" width="3000" height="2258" viewBox="0 0 3000 2258" stroke-linecap="round" stroke-linejoin="round">
<g id="A">
<path d="M 2137.4 956.8 2106.2 952.2 2102.7 869.8 2104.5 783.3 2161.2 781.5 2160.7 844.3 2197.9 846.1 2198.8 935.1 2160.8 936.4 2159.4 950.4 2137.4 956.8 Z" data-holc_grade="A"/>
<path d="M 1616.2 2240.5 1614.8 2146.2 1613.4 2054.7 1802.6 2054.7 1803.3 2174.7 1668.6 2177.5 1665.2 2198.5 1640.7 2242.6 1616.2 2240.5 Z" data-holc_grade="A"/>
<path d="M 1253.4 2121.8 1282.7 2119.1 1301.1 2111.7 1310.6 2102.2 1320.8 2089.3 1321.5 2078.5 1339.9 2071 1348 2069.6 1364.4 2073 1369.8 2081.9 1375.2 2098.1 1382.1 2105.6 1389.5 2111 1401.8 2109.7 1405.9 2106.9 1414 2103.6 1422.9 2096.1 1428.3 2093.4 1426.3 2114.4 1407.2 2122.5 1381.4 2119.1 1369.1 2115.1 1354.8 2088 1350.7 2085.2 1345.3 2083.9 1334.4 2093.4 1312 2117.1 1287.4 2134.1 1265.7 2138.8 1252.7 2136.8 1253.4 2121.8 Z" data-holc_grade="A"/>
</g>
<g id="B">
<path d="M 1741.3 850.5 1628.4 851.9 1629.1 811.9 1631.8 800.4 1781.4 799 1782.8 821.4 1745.4 821.4 1741.3 850.5 Z" data-holc_grade="B"/>
<path d="M 2102.7 869.8 2054 865.9 2051.8 894.1 1966.7 898.1 1967.9 841.1 2007 847.1 2007.9 828.5 2055.1 827.2 2054.2 848 2073.2 847.5 2075 828.5 2083.6 827.6 2084.1 782.4 2104.5 783.3 2102.7 869.8 Z" data-holc_grade="B"/>
<path d="M 2211 1012.1 2139.1 1026.2 2137.4 956.8 2159.4 950.4 2160.8 936.4 2198.8 935.1 2197.9 846.1 2216 844.3 2219.7 1008.2 2211 1012.1 Z" data-holc_grade="B"/>
<path d="M 2327 936.3 2281.1 936.3 2279.4 993.9 2268.1 995.1 2266.9 903 2282.2 901.9 2282.2 919.4 2327.6 918.8 2327 936.3 Z" data-holc_grade="B"/>
<path d="M 1242.9 1309.4 1247.4 1400.3 1235.5 1398.5 1234.1 1496.1 1140.2 1498.8 1138.2 1529.3 1023.9 1530.6 1022.5 1461.4 1213.7 1464.2 1217.1 1374.7 1214.4 1307.6 1231.4 1306.3 1242.9 1309.4 Z" data-holc_grade="B"/>
<path d="M 1334.6 1448.7 1414.7 1451.9 1417.4 1493.4 1375.2 1493 1375.4 1496.5 1315.3 1493.9 1311.3 1447.8 1334.6 1448.7 Z" data-holc_grade="B"/>
<path d="M 1377.5 1724.4 1382.9 1735.7 1394.7 1740.2 1415.1 1733 1434.2 1734.3 1439.6 1740.2 1441.9 1747 1446.9 1746.1 1451.4 1744.3 1453.2 1752.4 1446.4 1765.1 1428.3 1769.1 1400.6 1769.6 1390.6 1775 1383.3 1781.8 1377.4 1785.4 1344.8 1784.5 1336.2 1784 1333 1790.4 1333 1797.6 1343.9 1799.9 1355.2 1800.3 1363.8 1807.5 1377.9 1826.5 1386.5 1837.4 1398.3 1846.4 1408.7 1850.5 1409.2 1854.5 1400.6 1856.4 1398.3 1860.9 1394.7 1871.3 1393.3 1873.5 1386.5 1876.7 1379.7 1885.7 1373.4 1895.7 1356.6 1909.2 1341.6 1911.5 1322.5 1912.8 1310.8 1905.2 1369.7 1860 1358.8 1852.7 1343 1841.4 1327.5 1836.5 1314.4 1836 1313 1831.5 1309.4 1825.2 1307.1 1820.6 1306.2 1784 1375.6 1770.5 1377.5 1724.4 Z" data-holc_grade="B"/>
<path d="M 1616.2 2240.5 1619.6 2249.3 1429.7 2256.8 1428.3 2191 1583.5 2189.7 1586.2 2146.3 1614.8 2146.2 1616.2 2240.5 Z" data-holc_grade="B"/>
</g>
<g id="C">
<path d="M 1 1 278.3 15.5 277.5 130.6 176.3 104.1 176.2 207.7 5.6 194.7 1 1 Z" data-holc_grade="C"/>
<path d="M 2212.1 1082.6 2211 1012.1 2219.7 1008.2 2216 844.3 2230.1 844.9 2228.9 757.4 2145.6 756.3 2150.6 673.3 2182.4 672.2 2184.6 599.9 2245.8 601.6 2248.7 676.6 2343.3 678.3 2335.9 652.9 2332.5 509.5 2466.7 508.3 2454.3 604.3 2442.5 752.8 2471.4 750.5 2476 789.4 2478.2 792.8 2480 839.7 2465.8 835.7 2468.7 948.1 2439.8 949.8 2439.2 968.4 2425.1 971.8 2423.4 983.1 2409.2 998.4 2399.6 998.4 2394.5 1009.7 2353.1 1012 2354.3 1022.1 2280.6 1091.1 2212.1 1082.6 Z M 2279.4 993.9 2323.6 979.8 2344.6 962.3 2331 951.6 2327 936.3 2327.6 918.8 2282.2 919.4 2282.2 901.9 2266.9 903 2268.1 995.1 2279.4 993.9 Z" data-holc_grade="C"/>
<path d="M 1224.7 1054.9 1221.2 1115.2 1089.3 1117.9 1088.6 1170.7 1227.4 1165.3 1231.4 1306.3 1214.4 1307.6 1217.1 1374.7 857.9 1383.4 852.5 1311.6 752.5 1314.3 751.9 1218.7 853.2 1217.4 853.3 1132 902.2 1131.4 902.9 1094.1 855.3 1095.4 849.9 1004.6 985.9 1006 1031.5 1016.2 1142.4 1029.1 1221.9 1036.6 1224.7 1054.9 Z M 1177.7 1239.9 1194.7 1248 1213.7 1234.4 1215.1 1189 1178.4 1190.4 1170.2 1217.5 1177.7 1239.9 Z" data-holc_grade="C"/>
<path d="M 1138.2 1529.3 1143.6 1682.5 950.4 1684.4 950.4 1499.4 857.9 1498.7 857.9 1383.4 1217.1 1374.7 1213.7 1464.2 1022.5 1461.4 1023.9 1530.6 1138.2 1529.3 Z" data-holc_grade="C"/>
<path d="M 1695.5 1451.8 1695.3 1466.4 1706.3 1465.4 1704.5 1497.5 1620.1 1495.3 1417.4 1493.4 1414.7 1451.9 1334.6 1448.7 1332.4 1401.5 1247.4 1400.3 1242.9 1309.4 1411.9 1308 1500.8 1307.3 1502 1307.3 1516.7 1307.1 1519 1368.1 1525.8 1403.2 1600.6 1403.7 1604.6 1450.6 1695.5 1451.8 Z" data-holc_grade="C"/>
<path d="M 1417.4 1493.4 1620.1 1495.3 1619.7 1609.6 1707.2 1607.8 1709.9 1636.7 1771.6 1633.5 1768.9 1496.6 1778.1 1496.1 1794.3 1495.2 1797.5 1667.9 1609.2 1667 1604.7 1653.9 1527.1 1653 1524.9 1635.8 1381.5 1637.2 1375.4 1496.5 1375.2 1493 1417.4 1493.4 Z" data-holc_grade="C"/>
<path d="M 1607.9 1799.9 1611.5 1916.5 1535.8 1919.6 1532.6 1927.3 1522.6 1933.6 1500.4 1940.4 1488.1 1942.7 1470.4 1941.8 1481.8 1961.7 1483.1 1970.7 1484.5 2014.6 1463.2 2014.1 1461.8 2002.3 1458.6 1987.4 1451.8 1958.1 1452.3 1943.6 1453.2 1921 1459.5 1917.8 1469.5 1908.3 1475 1894.8 1483.1 1885.7 1489.9 1882.6 1504 1869.5 1521.7 1870.8 1537.6 1867.7 1549.4 1857.3 1556.6 1847.3 1582.5 1830.1 1590.2 1829.7 1598.4 1816.6 1607.9 1799.9 Z" data-holc_grade="C"/>
<path d="M 1794.3 1495.2 1778.1 1496.1 1777.5 1404.9 1791.6 1402 1835.3 1344.9 1813.7 1332 1763.8 1404.4 1705.4 1402.2 1703.1 1433.8 1695.8 1436.5 1695.5 1451.8 1604.6 1450.6 1600.6 1403.7 1525.8 1403.2 1519 1368.1 1516.7 1307.1 1502 1307.3 1500.2 1229.8 1499.7 1201 1506.5 1185.2 1543.9 1130.4 1508.2 1098.8 1525.7 1096.5 1565.4 1128.7 1659.5 1201 1671.4 1205.5 1728.7 1224.1 1761.5 1228.6 1745.7 1285.1 1676.5 1350.6 1661.2 1369.3 1666.3 1381.7 1683.9 1392.4 1775.7 1311.1 1797.3 1229.2 1849.4 1231.4 1859.6 1245.5 1871.5 1253.4 1883.4 1272.1 1884 1294.1 1866.4 1325.2 1860.8 1338.2 1849.4 1348.9 1810.9 1395.2 1802.4 1420.1 1808.1 1440.4 1834.2 1468.6 1871 1495.2 1794.3 1495.2 Z" data-holc_grade="C"/>
<path d="M 2494.7 1318.9 2545.6 1326.3 2543.7 1363.6 2551.9 1400.2 2505.7 1420.5 2502.3 1381.2 2498.2 1358.9 2494.7 1318.9 Z M 2074.4 1399.6 2073.8 1378.1 2131 1373.6 2166.8 1369.6 2369.6 1369.1 2368.2 1311.5 2381.8 1311.7 2442.4 1312.8 2437.6 1369.1 2438.3 1412.4 2444.5 1489 2361.5 1496.5 2358.8 1600.9 2339.8 1598.2 2314.6 1600.3 2282.7 1627.4 2256.1 1634.9 2241.2 1643 2221.4 1656.6 2184 1653.9 2165 1634.9 2154 1540 2074.4 1538.7 2074.4 1399.6 Z" data-holc_grade="C"/>
<path d="M 672.4 257.5 675.1 266.3 637.7 269 627.5 258.1 626.2 171.4 581.3 172.1 579.9 279.1 444.7 209.9 443.5 19.6 561 21.7 561.7 42.1 777.9 44.9 775.8 111.2 718 107.1 718.7 136.3 650 134.9 648.6 233.1 653.4 250 672.4 257.5 Z" data-holc_grade="C"/>
<path d="M 675.1 266.3 672.4 257.5 678.3 215.5 748.9 217.3 749.9 196.5 809.7 193.8 808.8 162.2 973.7 159.6 1022.7 199.3 1021.7 268 788.8 269.7 732.6 272.4 715.4 268.7 709 264.2 675.1 266.3 Z" data-holc_grade="C"/>
<path d="M 925.6 435.9 910.2 528.9 842.2 512.6 862.2 413.3 925.6 435.9 Z M 1021.7 268 1023.5 362.8 1210.3 363.7 1210.2 498.3 1252.8 498.3 1255.5 577.8 1211.1 612.1 1189.4 613 1171.2 599.5 1164.9 584.1 1155.8 557 1139.5 532.6 1121.4 529 1105.1 535.3 1090.6 553.4 1095.1 567.8 1128.6 597.6 1133.2 613 1119.6 628.4 1077 592.2 966.4 533.5 957.3 484.7 951 419.7 955.5 389 975.5 389.9 980 346.5 835.9 340.1 834.1 405.2 802.3 391.6 792.4 407 782.4 490.9 778.7 525.3 769.7 527.1 764.2 537.9 766 548.7 765.1 560.5 758.8 558.7 757 549.6 752.4 526.2 717.1 500.9 718.1 354.5 668.2 331 679.1 285 675.1 266.3 709 264.2 715.4 268.7 732.6 272.4 788.8 269.7 1021.7 268 Z" data-holc_grade="C"/>
<path d="M 1887.5 816.6 1884.8 883 1865.8 916.2 1820.9 889.8 1820.9 839 1788.2 835.6 1782.8 821.4 1781.4 799 1798.4 797.7 1801.8 817.3 1887.5 816.6 Z M 1879.3 762.4 1781.6 765 1782.1 698.1 1710.7 697.1 1710 572.1 1776.6 570 1780.7 647.9 1879.3 645.9 1879.3 762.4 Z" data-holc_grade="C"/>
<path d="M 1710.7 697.1 1782.1 698.1 1781.6 765 1781.4 799 1631.8 800.4 1629.1 811.9 1544.1 812.5 1545.4 778.7 1547.5 757.7 1590.3 756.4 1593.7 695.4 1710.7 697.1 Z" data-holc_grade="C"/>
<path d="M 1544.1 812.5 1629.1 811.9 1628.4 851.9 1741.3 850.5 1746.7 922.3 1746.1 931.1 1756.3 938.6 1732.5 999.6 1714.1 995.5 1661.7 974.5 1630.5 962.3 1575.4 938.6 1516.9 919.6 1510.8 910.8 1499.9 898.6 1482.9 889.2 1463.8 882.4 1408.8 848.5 1407.4 761.8 1542.7 847.8 1544.1 812.5 Z" data-holc_grade="C"/>
<path d="M 1877.9 381.6 1963.1 381.6 1961.3 563.1 1877.9 569.5 1877.9 381.6 Z" data-holc_grade="C"/>
<path d="M 1967.9 841.1 1966.7 898.1 2051.8 894.1 2054 865.9 2102.7 869.8 2106.2 952.2 2137.4 956.8 2139.1 1026.2 2211 1012.1 2212.1 1082.6 2212.2 1090 2202.6 1093.4 2034.3 1100.8 2019.5 1092.3 2036.5 1048.8 1989.5 1063 1968.5 1007.6 1962.8 1015 1920.9 1000.9 1919.1 865.4 1934.4 864.2 1939 840.5 1967.9 841.1 Z" data-holc_grade="C"/>
</g>
<g id="D">
<path d="M 1544.1 812.5 1542.7 847.8 1407.4 761.8 1547.5 757.7 1545.4 778.7 1544.1 812.5 Z" data-holc_grade="D"/>
<path d="M 1763.8 1404.4 1777.5 1404.9 1778.1 1496.1 1768.9 1496.6 1704.5 1497.5 1706.3 1465.4 1719 1463.6 1717.2 1436.1 1703.1 1433.8 1705.4 1402.2 1763.8 1404.4 Z" data-holc_grade="D"/>
<path d="M 1381.5 1637.2 1524.9 1635.8 1527.1 1653 1604.7 1653.9 1609.2 1667 1600.6 1668.3 1592.9 1672.4 1595.6 1679.2 1590.6 1678.7 1577.5 1680.5 1561.2 1687.3 1558.9 1696.4 1545.7 1691.8 1535.8 1690.9 1524 1689.6 1510.4 1693.2 1497.7 1693.7 1494 1686.4 1487.2 1684.6 1475.4 1682.8 1462.7 1687.8 1450.9 1697.3 1433.2 1706.8 1421.9 1714.4 1390.2 1714.4 1378.8 1704.9 1381.5 1637.2 Z" data-holc_grade="D"/>
<path d="M 1710 572.1 1710.7 697.1 1593.7 695.4 1593.7 571.4 1627.7 570.1 1627.7 522 1675.3 521.3 1680.1 568 1710 572.1 Z" data-holc_grade="D"/>
<path d="M 1781.4 799 1781.6 765 1879.3 762.4 1900.4 761.7 1901.1 801.7 1888.2 801 1887.5 816.6 1801.8 817.3 1798.4 797.7 1781.4 799 Z" data-holc_grade="D"/>
<path d="M 2863.7 1305.3 2889.8 1346.5 2918.1 1346.5 2915.9 1421 2860.9 1417.7 2860.3 1392.9 2829.1 1391.7 2824.6 1342.6 2845 1342.6 2840.4 1320 2837 1303.6 2839.3 1285.6 2841.5 1265.8 2846.6 1255.6 2890.8 1242 2895.3 1223.4 2916.9 1221.7 2916.3 1259 2872.7 1270.8 2861.9 1276.5 2863.7 1305.3 Z M 2603.2 815.2 2545.5 824.7 2542 745.4 2581.4 703.4 2596.3 669.5 2607.2 668.8 2650.7 644.4 2653.5 722.3 2603.2 815.2 Z M 2875.1 729.1 2848.6 751.4 2788.8 750.1 2788.8 807 2839.8 806.3 2843.9 842.9 2965 844.2 2966.4 865.8 2999 869.2 2997.1 982.4 2920.2 983.1 2920.9 1021 2878.1 1027.2 2875.4 1089.5 2874.1 1104.4 2855.7 1110.5 2797.9 1112.6 2800 1147.9 2805.4 1158 2802.7 1172.9 2787.1 1192.6 2789.2 1244.8 2629.3 1175.1 2634.7 1154.1 2719.6 1020.5 2714.6 664.8 2754 584.9 2845.8 584.1 2847.8 569.9 2885.2 573.9 2888 708.7 2875.1 729.1 Z" data-holc_grade="D"/>
<path d="M 1797.3 1229.2 1775.7 1311.1 1683.9 1392.4 1666.3 1381.7 1661.2 1369.3 1676.5 1350.6 1745.7 1285.1 1761.5 1228.6 1728.7 1224.1 1671.4 1205.5 1659.5 1201 1565.4 1128.7 1525.7 1096.5 1508.2 1098.8 1406.9 1094.9 1404.9 1044.1 1416.4 1044.1 1435.5 1023.7 1525.9 1057.6 1536.1 1076.6 1610.3 1074.5 1602.1 1101.6 1624.6 1092.8 1641.6 1093.5 1654.5 1095.5 1674.2 1086.7 1694.6 1085.4 1708.9 1087.4 1724.5 1087.4 1737.5 1092.8 1759.2 1094.2 1751.8 1125.3 1793.9 1145.7 1783 1158.5 1817.1 1204.6 1791.9 1218.9 1797.3 1229.2 Z M 1516.9 919.6 1575.4 938.6 1630.5 962.3 1661.7 974.5 1714.1 995.5 1732.5 999.6 1762.7 1015.3 1756.4 1031.5 1782.7 1036.1 1776.3 1046 1832.6 1046.9 1857.1 1097.5 1863.4 1107.4 1872.5 1132.7 1886.1 1143.6 1903.3 1162.5 1904.2 1177 1885.2 1195.1 1866.1 1168 1867.1 1157.1 1842.6 1114.7 1826.2 1125.5 1801.7 1086.7 1744.6 1064.1 1752.8 1044.2 1709.2 1063.2 1687.5 1060.5 1660.3 1061.4 1635.8 1058.7 1489.8 988.2 1344.7 925.9 1285.8 896.9 1284.9 840.9 1277.6 779.5 1335.7 813.8 1376.5 853.6 1397.3 862.6 1416.3 880.7 1434.5 887.9 1463.5 900.6 1492.5 912.3 1511.6 928.6 1516.9 919.6 Z" data-holc_grade="D"/>
<path d="M 1435.5 1023.7 1416.4 1044.1 1404.9 1044.1 1367.5 1050.8 1224.7 1054.9 1221.9 1036.6 1142.4 1029.1 1031.5 1016.2 985.9 1006 849.9 1004.6 847.2 903.7 936.3 911.8 1130.1 949.1 1134.2 943.1 1134.2 932.9 1222.6 964.1 1222.6 926.1 1276.4 944.4 1382.4 993.9 1383.8 1012.2 1406.2 1012.9 1435.5 1023.7 Z" data-holc_grade="D"/>
<path d="M 1502 1307.3 1500.8 1307.3 1411.9 1308 1407.9 1201.8 1499.7 1201 1500.2 1229.8 1502 1307.3 Z" data-holc_grade="D"/>
<path d="M 2212.2 1090 2211.7 1136.3 2206 1136.3 2190.1 1127.8 2170.9 1116.5 2152.7 1119.4 2136.3 1131.8 2121 1138 2108 1143.7 2067.7 1145.9 2028.6 1139.2 2004.8 1123.9 2019.5 1092.3 2034.3 1100.8 2202.6 1093.4 2212.2 1090 Z M 2166.8 1369.6 2131 1373.6 2073.8 1378.1 2074.4 1399.6 1981.4 1402.4 1976.3 1390.6 1898.6 1394.5 1900.9 1462.3 1980.5 1453.5 1985 1494.1 1899.8 1495.1 1889.6 1484.9 1887.3 1474.2 1883.9 1460.6 1883.9 1426.7 1886.7 1411.5 1887.3 1390 1902.6 1380.4 1932.6 1381.5 1940 1379.8 1940.6 1369.1 1942.8 1346 1953 1334.7 1957.6 1321.1 1958.1 1308.7 1950.2 1296.2 1941.7 1292.9 1935.4 1288.9 1924.7 1279.3 1906.5 1280.4 1898 1282.7 1899.7 1267.5 1891.8 1258.4 1881 1250 1875.3 1233 1876.5 1217.8 1903.7 1201.4 1913.9 1186.1 1918.4 1168.1 1913.3 1151.7 1896.9 1135.9 1882.7 1127.4 1867.9 1090.1 1851.5 1061.3 1847.5 1042.7 1909.3 1131.4 1931.4 1121.7 1957.5 1167.5 1976.8 1182.7 1993.8 1192.3 2035.2 1217.2 2124.2 1252.7 2129.3 1291.1 2119.7 1291.7 2105.5 1293.4 2090.8 1288.9 2086.2 1291.1 2078.9 1301.9 2061.9 1303 2060.2 1307.5 2064.1 1313.7 2158.8 1314.2 2166.8 1369.6 Z" data-holc_grade="D"/>
<path d="M 2545.6 1326.3 2494.7 1318.9 2442.4 1312.8 2381.8 1311.7 2546.4 1209.7 2638.2 1211.7 2639.6 1337.1 2613.8 1336.4 2555.3 1327.7 2545.6 1326.3 Z M 2494 1250.4 2494 1266 2515.1 1265.3 2514.4 1240.3 2494 1250.4 Z M 2448.4 1254.5 2348.5 1312.2 2265.5 1308.8 2264.1 1273.6 2313.8 1259.3 2373.6 1230.9 2388.6 1218.6 2446.4 1166.4 2448.4 1254.5 Z M 2353.2 1208.5 2301.5 1235 2296.1 1224.1 2204.2 1229.6 2188.6 1254.7 2164.1 1247.9 2165.5 1229.6 2181.8 1224.2 2196.1 1179.4 2200.1 1174.7 2211 1171.3 2279 1171.3 2281.1 1161.8 2368.1 1159.7 2365.4 1199.7 2353.2 1208.5 Z" data-holc_grade="D"/>
</g>
</svg>