<?xml version="1.0"?>
<svg xmlns="http://www.w3.org/2000/svg" version="1.2" baseProfile="tiny" width="3000" height="4005" viewBox="0 0 3000 4005" stroke-linecap="round" stroke-linejoin="round">
<g id="A">
<path d="M 2447.5 2009.5 2443.6 1883.9 2240.9 1878.7 2234.4 1871 2226.6 1546.1 2346.1 1556.4 2346.1 1509.8 2411 1511.1 2414.3 1485 2420.5 1388.7 2448.7 1388.1 2505.8 1410.1 2573.4 1456.7 2620.2 1520.1 2652.6 1555 2587.7 1676.7 2590.4 1891.6 2589.1 1986.1 2567 1987.4 2521.6 2000.4 2474.8 2013.3 2447.5 2009.5 Z" data-holc_grade="A"/>
</g>
<g id="B">
<path d="M 2414.3 1485 2411 1511.1 2346.1 1509.8 2346.1 1556.4 2226.6 1546.1 2234.4 1871 2240.9 1878.7 2443.6 1883.9 2447.5 2009.5 2373.5 2010.8 2347.5 2025 2277.3 2058.7 2266.9 2038 2251.3 2030.2 2003.6 2028 1914.1 2027.2 1820 2026.4 1816.1 1957.8 1834.3 1959.1 1893.9 1429 2414.3 1485 Z" data-holc_grade="B"/>
<path d="M 103.8 1296.1 103.8 1183.5 246.7 1188.7 251.9 1293.6 103.8 1296.1 Z" data-holc_grade="B"/>
<path d="M 103.8 1296.1 14.2 1297.4 19.4 1169.2 103.8 1171.9 103.8 1183.5 103.8 1296.1 Z" data-holc_grade="B"/>
</g>
<g id="C">
<path d="M 2642.9 1210.6 2635.6 1213.7 2638.7 1313.1 2668.9 1325.5 2652.3 1497.4 2604.5 1426 2557.7 1388.7 2506.8 1354.5 2422.6 1330.7 2420.5 1388.7 2414.3 1485 1893.9 1429 1752.4 1413.7 1765.3 1267.5 1925.9 1296.7 2015.3 1307 2197.1 1332.9 2184.6 1133 2188.8 1095.7 2440.2 1046 2574.2 944.5 2634.4 897.9 2642.9 1210.6 Z" data-holc_grade="C"/>
<path d="M 1043.2 3351.8 1044.9 3287 1047.3 3194.2 1063.9 3192.2 1063.9 2887.6 1049.4 2881.4 1043.2 2647.3 1163.7 2643.1 1182.5 2081.8 1603.6 2079.4 1594.5 2405.7 1769.9 2409.6 1768.6 2302.1 2005 2309.9 2014.1 2610 1791.6 2610 1799.9 2705.3 1627.4 2707.4 1625.3 2883.5 1793.7 2885.5 1793.7 3045.1 1579.6 3047.2 1583.7 3478.1 1375.8 3478.1 1379.9 4004.5 1169.9 3917.4 1161.6 3695.7 1034.7 3683.3 1043.2 3351.8 Z M 1627.4 2589.3 1481.8 2587.2 1481.8 2645.2 1627.4 2647.3 1627.4 2589.3 Z" data-holc_grade="C"/>
<path d="M 2970.4 2597.3 2558.7 2623.4 2568 2237 2640.7 2234.9 2644.9 2193.5 2975.4 2176.8 2970.4 2597.3 Z M 2646.4 881.5 2752.6 893 2994.7 889.8 2999 1209.7 2642.9 1210.6 2634.4 897.9 2646.4 881.5 Z" data-holc_grade="C"/>
<path d="M 519.4 1317 519.4 1496.9 509 1513.7 99.8 1513.6 103.8 1296.1 251.9 1293.6 246.7 1188.7 103.8 1183.5 114.3 1080 158.4 1083.9 509.1 1082.7 945.5 1088 871.5 1235.5 877.9 1278.2 522 1276.8 519.4 1317 Z" data-holc_grade="C"/>
<path d="M 518 1994 516.6 2207.6 530.9 2223.1 578.9 2250.3 591.9 2225.7 689.4 2274.9 682.9 2295.7 666 2313.8 664.7 2343.6 650.4 2359.1 624.4 2418.6 565.9 2528.7 546.4 2571.4 345 2573.9 337.2 2684 79.9 2683.9 86.6 2057.3 302.3 2056 302.3 1988.7 518 1994 Z" data-holc_grade="C"/>
</g>
<g id="D">
<path d="M 1627.9 1402.3 1752.4 1413.7 1893.9 1429 1834.3 1959.1 1816.1 1957.8 1820 2026.4 1267.9 2026.4 1323.8 1565.6 1552.4 1591.5 1560.2 1538.4 1470.6 1534.5 1487.4 1390.7 1627.9 1402.3 Z" data-holc_grade="D"/>
<path d="M 1597.4 1181.2 1647 1182.8 1627.9 1402.3 1487.4 1390.7 1491.6 1346.8 1331.1 1333.6 1332.8 1296.3 1418.4 1301.3 1425.1 1251.6 1381 1249.1 1387.6 1174.5 1597.4 1181.2 Z" data-holc_grade="D"/>
<path d="M 2646.4 881.5 2634.4 897.9 2574.2 944.5 2440.2 1046 2188.8 1095.7 2184.6 1133 2011.1 1206.6 1771.1 1202.5 1765.3 1267.5 1752.4 1413.7 1627.9 1402.3 1647 1182.8 1597.4 1181.2 1569.5 1125.8 1689 1064.7 1697.3 1067.9 1778.3 1043 1980.9 986 2102.5 1010.9 2182.5 1016 2196 1025.3 2196 879.4 2519.1 880.3 2523.3 809.9 2588.7 815.1 2588.7 843 2676 840.9 2646.4 881.5 Z" data-holc_grade="D"/>
<path d="M 2003.6 2028 2005 2309.9 1768.6 2302.1 1769.9 2409.6 1594.5 2405.7 1603.6 2079.4 1899.8 2080.7 1899.8 2067.8 1906.3 2060 1914.1 2027.2 2003.6 2028 Z" data-holc_grade="D"/>
<path d="M 1049.4 2881.4 1023 2881.6 1022.9 3198.9 1047.3 3194.2 1044.9 3287 994.3 3288.2 993 3347.8 1043.2 3351.8 1034.7 3683.3 1027 3859.6 887.3 3799.9 894.8 3849.6 737.5 3862 710.2 3474.1 720.2 3392.1 712.7 3300.1 717.7 3111.1 780.1 2942 944.8 2932.1 942.3 2860 904.9 2852.6 904.9 2830.2 887.5 2830.2 832.6 2830.2 835.1 2792.9 840.1 2755.6 860 2705.9 852.5 2693.4 1127 2099.4 1182.5 2081.8 1163.7 2643.1 1043.2 2647.3 1049.4 2881.4 Z" data-holc_grade="D"/>
<path d="M 983.2 676.4 995 429.3 1008 4.9 1256 1 1889.6 13.9 1884.5 170.5 2105.2 174.3 2105.2 20.4 2332.4 25.5 2305.2 292 1946.8 411.2 1946.8 487.5 1615.7 562.6 1517 572.9 1450.8 632.5 1237.8 667.4 983.2 676.4 Z" data-holc_grade="D"/>
<path d="M 945.5 1088 509.1 1082.7 158.4 1083.9 114.3 1080 113.1 835.4 637.7 838.1 649.5 645.3 779.3 649.2 788.5 430.5 995 429.3 983.2 676.4 981.9 993.5 994.9 1005.1 945.5 1088 Z" data-holc_grade="D"/>
<path d="M 591.9 2225.7 578.9 2250.3 530.9 2223.1 516.6 2207.6 518 1994 518 1860.6 306.2 1854.1 307.6 1738.9 114 1729.8 53 1729.7 1 1736.2 14.2 1297.4 103.8 1296.1 99.8 1513.6 509 1513.7 519.4 1496.9 519.4 1317 572.7 1317 579.2 1346.8 618.1 1342.9 618.2 1320.9 801.3 1322.2 798.6 1729.9 581.6 2203.7 591.9 2225.7 Z" data-holc_grade="D"/>
</g>
</svg>