<?xml version="1.0"?>
<svg xmlns="http://www.w3.org/2000/svg" version="1.2" baseProfile="tiny" width="3000" height="4707" viewBox="0 0 3000 4707" stroke-linecap="round" stroke-linejoin="round">
<g id="A">
<path d="M 589.7 1607.5 606.9 2440 606.9 2440.8 267.2 2443.7 259.5 2149.9 97.9 2150.8 79.6 1616.4 82.1 1616.3 589.6 1605.9 589.7 1607.5 Z" data-holc_grade="A"/>
<path d="M 1471.2 3797.6 1471.1 3796 1466 3679.8 1469.4 3679.6 1458.8 3429.1 1457.1 3429.2 1458.8 3376.2 1641.7 3367.5 1639.8 3402.2 1765.7 3401.2 1770.5 3746.1 1503.3 3801 1471.3 3801.9 1471.2 3797.6 Z" data-holc_grade="A"/>
<path d="M 2469.3 4473.4 2469.1 4455.2 2473.6 4369.4 2473.6 4368.3 2603.3 4372.1 2598.4 4231.5 2469.6 4230.6 2473.3 4362 2468 4230.6 2468 4230.4 2467.6 4218.9 2434.3 4158.7 2440.1 3669.5 2873 4197.7 2830.7 4232.3 2677.8 4229.4 2673.3 4328.7 2759.6 4327.2 2759.6 4370.9 2659.7 4369.4 2659.7 4503.3 2806.5 4500.3 2808 4556 2693 4551.5 2697.6 4671.9 2609.8 4668.9 2605.3 4553 2572 4550 2572 4474.8 2469.3 4473.4 Z" data-holc_grade="A"/>
</g>
<g id="B">
<path d="M 735.4 2429.3 735.5 2433.9 696.2 2441.4 606.9 2440 589.7 1607.5 711.4 1600.2 735.4 2429.3 Z" data-holc_grade="B"/>
<path d="M 1237.8 725.1 1440.3 1159.4 1390.4 1189.5 1410.1 1227.1 1398 1254.2 1286.3 1256.9 1192.6 1070.5 1027 1073.4 1024.3 946.3 1025.2 946.3 1026.2 813.5 1236.2 721.6 1237.8 725.1 Z" data-holc_grade="B"/>
<path d="M 1684.5 1659.1 1694 1659.9 1716.2 1725.3 1782 1803.3 1905 1894.8 1904 2162.6 1691.1 1929.5 1693 1851.5 1623.3 1850.5 1619.4 1944 1579.5 1939.2 1571.2 1649.6 1684.5 1659.1 Z" data-holc_grade="B"/>
<path d="M 1311 3686.1 969.8 3690.6 906.3 3696.6 853.3 3690.6 839.8 3109.6 715.8 3114.1 839.8 2968.1 835.3 2725.8 864 2731.9 853.5 2635.5 855 2634 1016.8 2626.5 985 2725.8 1015.3 2725.8 1006.2 2835.7 1071.2 2837.2 1089.4 3013.3 1119.6 3255.6 1186.2 3449.8 1311.7 3686.1 1311 3686.1 Z" data-holc_grade="B"/>
<path d="M 870.2 460.1 870.4 460.1 869.1 417 864.3 220.6 1004.9 217.6 1112.2 450.8 870.3 464.3 870.2 460.1 Z" data-holc_grade="B"/>
<path d="M 2425.8 3645.8 2440.2 3661.9 2440.1 3669.5 2434.3 4158.7 2467.6 4218.9 2468 4230.4 2468 4230.6 2473.3 4362 2473.5 4368.3 2473.6 4368.3 2473.6 4369.4 2469.1 4455.2 2469.3 4473.4 2471.6 4669.9 2248.9 4671.8 2251.8 4701.7 2084.3 4705.6 2081.4 4650.6 1937.1 4653.6 1933.2 4542.8 1827.7 4553.4 1401.6 3801 1471.2 3797.6 1471.3 3801.9 1503.3 3801 1770.5 3746.1 1765.7 3401.2 1639.8 3402.2 1641.7 3367.5 1458.8 3376.2 1457.1 3429.2 1274.8 3434.9 1276.8 3220.1 1195.4 3133.4 1243.8 3090.1 1162.5 3001.4 1246.8 2914.8 1166.4 2821.3 1299 2701.9 1341.6 2745.2 1389.1 2707.7 1434.6 2752 1527.5 2673 1882.8 3078.5 1938 3059.2 1941.8 3191.2 2003.8 3186.4 2004.8 3268.2 2070.6 3270.2 2074.5 3426.2 2199.4 3425.2 2210.1 3681.5 2425.7 3645.8 2425.8 3645.8 Z M 2079.4 4541.8 2083.3 4644.9 2082.3 4648.7 2242.1 4647.7 2239.2 4559.1 2142.4 4563.9 2137.5 4540.8 2079.4 4541.8 Z" data-holc_grade="B"/>
<path d="M 509.4 14.1 501.5 14.5 498.4 112.3 506 146.9 512 331.9 143.1 333.3 129.5 175.4 1 178.4 7.1 8.4 509 4 509.4 14.1 Z" data-holc_grade="B"/>
</g>
<g id="C">
<path d="M 770.8 1526.5 796.5 2403 796.7 2408.1 740.5 2429.3 735.4 2429.3 711.4 1600.2 589.7 1607.5 589.6 1605.9 82.1 1616.3 76.7 1525.8 342.9 1520.1 510.3 1403.6 548.1 1405.6 770.6 1522.1 770.8 1526.5 Z" data-holc_grade="C"/>
<path d="M 1571.2 1649.6 1579.5 1939.2 1579.8 1946.8 1455.6 1950.1 1455.4 1946.4 1041.5 1950.5 1036.3 1686.8 1024.2 1073.4 1027 1073.4 1192.6 1070.5 1286.3 1256.9 1290.4 1265 1292.3 1458.6 1456.8 1455.7 1458.8 1647.3 1571 1644.5 1571.2 1649.6 Z" data-holc_grade="C"/>
<path d="M 2151.5 2711.3 2163.5 3316.4 2437.3 3611.5 2440.5 3615 2426 3645.8 2425.8 3645.8 2425.7 3645.8 2210.1 3681.5 2199.4 3425.2 2074.5 3426.2 2070.6 3270.2 2004.8 3268.2 2003.8 3186.4 1941.8 3191.2 1938 3059.2 1882.8 3078.5 1527.5 2673 1434.6 2752 1389.1 2707.7 1341.6 2745.2 1299 2701.9 1166.4 2821.3 1246.8 2914.8 1162.5 3001.4 1243.8 3090.1 1195.4 3133.4 1276.8 3220.1 1274.8 3434.9 1457.1 3429.2 1458.8 3429.1 1469.4 3679.6 1466 3679.8 1357.1 3687.3 1205.1 3403.1 1152.8 3249 1135.4 3136.3 1099.6 2786.7 1159.6 2734.6 1132.5 2700 1120 2642.2 1121.2 2617.5 1543.2 2601 1633.9 2674.7 2083.1 2673.2 2083.1 2703.3 2151.2 2697.2 2151.5 2711.3 Z" data-holc_grade="C"/>
<path d="M 857 946.3 745.5 948.2 742.7 704.6 608.3 705.1 601.2 581.6 527.1 583.1 525.6 504.9 515 494.4 519.6 353 512 331.9 506 146.9 498.4 112.3 501.5 14.5 509.4 14.1 558.9 11.5 555.9 88.2 636 92.7 696.5 88.2 695 5.5 917.2 1 977.7 125.9 1068.4 118.3 1068.4 210.1 1325.4 201.1 1364.7 301.9 1361.7 474.9 1317.9 470.4 1292.2 458.3 1305.8 502 1258.9 524.5 1278.5 553.1 1246.8 563.6 1294.2 683 1237.8 725.1 1236.2 721.6 1026.2 813.5 1026.2 812.5 1236.2 718.1 1188.8 621.8 1015.6 699.8 952.7 707.5 949.8 676.7 750.4 679.6 745.6 700.7 748.4 946.3 857 946.3 Z M 869.1 417 865.6 299.3 756.3 299.3 766.9 461 870.2 460.1 870.3 464.3 1112.2 450.8 1004.9 217.6 864.3 220.6 869.1 417 Z" data-holc_grade="C"/>
</g>
<g id="D">
<path d="M 1041.5 1950.5 1455.4 1946.4 1455.6 1950.1 1464.5 2137.5 1156 2251.8 1127.2 2253.3 1072.8 2233.8 1051.6 2202.2 1033.5 2206.7 982 2325.5 824.7 2397.8 796.5 2403 770.8 1526.5 862.6 1589.7 945.8 1693.5 991.2 1804.9 1009.3 1950.9 1041.5 1950.5 Z" data-holc_grade="D"/>
<path d="M 608.3 705.1 742.7 704.6 745.5 948.2 857 946.3 1024.3 946.3 1027 1073.4 1024.2 1073.4 1036.3 1686.8 990.3 1690.7 899.4 1545.2 592.6 1083 268.5 575.5 163.1 399.3 205.7 360.8 280.2 446.5 345.9 536 422.4 658.3 475.6 705.5 608.3 705.1 Z" data-holc_grade="D"/>
<path d="M 1286.3 1256.9 1398 1254.2 1410.1 1227.1 1390.4 1189.5 1440.3 1159.4 1237.8 725.1 1294.2 683 1350.4 641.1 1348.5 559.3 1371.7 580.4 1605.9 569.8 1612.6 691.2 1712.3 685.4 1694.9 757.6 1558.4 761.5 1563.3 865.4 1488.8 863.5 1561.4 1021.4 1583.6 1020.5 1589.4 1000.2 1679.4 1059.9 1696.8 1058 1706.5 1107.1 1770.4 1106.2 1745.2 1160.1 1615.6 1161.1 1627.2 1237.1 1649.4 1235.2 1681.4 1426.8 1682.3 1582.8 1684.5 1659.1 1571.2 1649.6 1571 1644.5 1458.8 1647.3 1456.8 1455.7 1292.3 1458.6 1290.4 1265 1286.3 1256.9 Z M 1451 752.8 1450.1 690.2 1393 695 1427.8 760.5 1451 752.8 Z" data-holc_grade="D"/>
<path d="M 2437.3 3611.5 2163.5 3316.4 2151.5 2711.3 2325.7 2700.4 2505.3 2629.8 2588.4 2611.3 2796.5 2616.1 2790.8 3023.5 2785.1 3213.2 2999 3208.4 2995.2 3415.5 2931.3 3417.4 2931.3 3451.1 2848 3453.1 2851.9 3536.9 2437.3 3611.5 Z" data-holc_grade="D"/>
<path d="M 853.3 3690.6 906.3 3696.6 969.8 3690.6 1311 3686.1 1329.9 3713.2 1472.1 3967.6 1387.3 3969.1 1391.9 4083.5 1537.1 4074.4 1630.9 4238.5 1571.9 4238.5 1576.5 4395.1 1416.1 4399.6 1425.2 4547.1 1260.2 4551.6 1252.7 4471.8 951.6 4474.8 947.1 4261.1 991 4261.1 991 4146.7 906.2 4146.7 904.8 3981.1 752 3975 820 3919.4 820 3824.5 853.3 3818.5 853.3 3690.6 Z" data-holc_grade="D"/>
<path d="M 429.9 2662.6 625.1 2596.4 724.9 2594.9 729.4 2743.9 426.9 2749.9 429.9 2662.6 Z" data-holc_grade="D"/>
</g>
<g id="layer">
<g/>
<g/>
</g>
</svg>