<?xml version="1.0"?>
<svg xmlns="http://www.w3.org/2000/svg" version="1.2" baseProfile="tiny" width="3000" height="3673" viewBox="0 0 3000 3673" stroke-linecap="round" stroke-linejoin="round">
<g id="A">
<path d="M 864.5 89.3 939.4 289.8 1117.1 387.9 1192 291.9 1186.9 173.4 1757.1 328.2 1752.8 377.2 1701.4 571.3 1677.9 699.3 1680 752.6 1705.7 810.2 1690.7 837.9 1615.8 814.4 1513 827.2 1453.1 842.2 1453.1 880.6 1553.7 1211.1 1474.1 1267.9 1322.1 1504.6 1234.3 1517.4 1116.6 1485.4 1060.9 1489.7 1030.9 1508.9 893.9 1726.4 750.5 1681.6 711.9 1572.8 810.4 1404.4 467.9 1269.9 487.2 1203.8 542.9 1084.4 568.6 986.3 615.7 903.1 660.7 866.9 705.6 822.1 727 764.5 716.3 706.9 694.9 642.9 692.8 576.8 690.7 515 662.9 476.6 594.4 367.8 592.2 316.6 600.8 274 611.5 227.1 594.4 188.7 573 141.7 566.6 88.4 575.2 52.2 560.2 1 864.5 89.3 Z" data-holc_grade="A"/>
<path d="M 2236.5 703.5 2056.8 874.1 1913.3 944.5 1553.7 1211.1 1453.1 880.6 1453.1 842.2 1513 827.2 1615.8 814.4 1690.7 837.9 1705.7 810.2 1680 752.6 1677.9 699.3 1701.4 571.3 1752.8 377.2 1866.2 486 2050.3 483.9 2146.6 550 2150.9 594.7 2236.5 703.5 Z" data-holc_grade="A"/>
<path d="M 2018.4 2262.2 2036.3 2297.7 2100.7 2303.2 2210.3 2278.6 2200.7 2390.6 2206.2 2447.9 2154.1 2591.3 2099.7 2578.9 2010.2 2558.5 1878.7 2543.5 1865 2442.5 1825.2 2420.6 1784.1 2415.2 1707.4 2432.9 1684.1 2449.3 1664.9 2497.1 1626.5 2525.8 1585.4 2542.2 1471.7 2535.3 1430.6 2688.2 1423.7 2747 1431.9 2839.8 1426.5 2863 1388.1 2852.1 1249.7 2656.8 1218.2 2607.7 1256.5 2501.2 1238.7 2441.1 1329.2 2367.4 1393.6 2340.1 1459.4 2336 1493.6 2183.1 1536.1 2142.1 1579.9 2133.9 1696.4 2147.6 1762.2 2146.2 1778.6 2151.7 1826.6 2211.7 1912.9 2241.8 2018.4 2262.2 Z" data-holc_grade="A"/>
<path d="M 1866 3241.9 1851 3216.3 1846.7 3035 1947.3 3047.8 1964.5 3092.6 2056.5 3099 2041.6 3160.8 2045.8 3246.2 1866 3241.9 Z" data-holc_grade="A"/>
</g>
<g id="B">
<path d="M 2294.3 701.4 2407.4 792.2 2490.9 815.6 2681.4 958.5 2687.8 1052.4 2653.6 1080.1 2529.4 1122.8 2467.4 1156.9 2428.8 1210.2 2413.9 1299.8 2386 1331.8 2418.2 1378.7 2514.5 1434.2 2319.7 1532.3 2259.8 1434.2 2296.1 1391.5 2304.7 1353.1 2223.3 1176.1 1805.9 1370.3 1968.6 1470.5 1863.7 1621.9 1690.3 1528.1 1681.7 1581.4 1418.4 1600.6 1418.4 1543 1322.1 1504.6 1474.1 1267.9 1553.7 1211.1 1913.3 944.5 2056.8 874.1 2236.5 703.5 2257.9 675.8 2294.3 701.4 Z" data-holc_grade="B"/>
<path d="M 1352.1 1694.1 1397.7 1716.2 1470.3 1789.9 1567.6 1867.7 1509.3 1940 1489.5 1964.6 1438.8 2064.3 1364.9 2084.4 1225.7 2110 1206.5 1888.2 1123 1787.9 1287.8 1659.9 1339.2 1655.7 1352.1 1694.1 Z" data-holc_grade="B"/>
<path d="M 1197.5 2997.9 1165.7 2986.8 1122.9 2967.6 1062.8 2901.1 1060.8 2899.3 1069.4 2639 1093 2513.2 1152.9 2406.5 1223.6 2336.1 1283.5 2331.9 1234.3 2252.9 1232.1 2206 1388.4 2176.1 1364.9 2084.4 1438.8 2064.3 1489.5 1964.6 1509.3 1940 1638.9 1919.6 1706 1925.1 1769 1784.4 2029.4 1895 1956.8 2067 1986.9 2123 2018.4 2262.2 1912.9 2241.8 1826.6 2211.7 1778.6 2151.7 1762.2 2146.2 1696.4 2147.6 1579.9 2133.9 1536.1 2142.1 1493.6 2183.1 1459.4 2336 1393.6 2340.1 1329.2 2367.4 1238.7 2441.1 1256.5 2501.2 1218.2 2607.7 1249.7 2656.8 1227.8 2707.4 1225 2928.6 1197.5 2997.9 Z" data-holc_grade="B"/>
<path d="M 2099.7 2578.9 2073.6 2710.7 2050.1 2729.9 1945.2 2708.5 1925.9 2706.4 1906.6 2768.3 1825.3 2825.9 1842.4 2917.6 1846.7 3035 1851 3216.3 1866 3241.9 1878.8 3431.8 1636.8 3335.8 1412 3252.6 1180.7 3193.8 1197.8 3091.3 1245 3014.5 1197.5 2997.9 1225 2928.6 1227.8 2707.4 1249.7 2656.8 1388.1 2852.1 1426.5 2863 1431.9 2839.8 1423.7 2747 1430.6 2688.2 1471.7 2535.3 1585.4 2542.2 1626.5 2525.8 1664.9 2497.1 1684.1 2449.3 1707.4 2432.9 1784.1 2415.2 1825.2 2420.6 1865 2442.5 1878.7 2543.5 2010.2 2558.5 2099.7 2578.9 Z" data-holc_grade="B"/>
<path d="M 2154.1 2591.3 2206.2 2447.9 2200.7 2390.6 2210.3 2278.6 2100.7 2303.2 2036.3 2297.7 2018.4 2262.2 1986.9 2123 1956.8 2067 2029.4 1895 2300.7 1987.8 2277.4 2054.7 2284.3 2191.2 2352.8 2213.1 2513.1 2222.6 2517.2 2062.9 2729.6 2122.9 2754.3 2206.2 2703.6 2498.3 2687.2 2513.4 2518.6 2538 2724.3 2942.1 2716.1 3009.3 2722.5 3105.3 2615.5 3258.9 2305 3258.9 2315.6 3064.8 2296.3 2928.3 2221.4 2759.7 2161.4 2636 2154.1 2591.3 Z" data-holc_grade="B"/>
<path d="M 2154.1 2591.3 2161.4 2636 2221.4 2759.7 2296.3 2928.3 2315.6 3064.8 2305 3258.9 2270.7 3500.1 1878.8 3431.8 1866 3241.9 2045.8 3246.2 2041.6 3160.8 2056.5 3099 1964.5 3092.6 1947.3 3047.8 1846.7 3035 1842.4 2917.6 1825.3 2825.9 1906.6 2768.3 1925.9 2706.4 1945.2 2708.5 2050.1 2729.9 2073.6 2710.7 2099.7 2578.9 2154.1 2591.3 Z" data-holc_grade="B"/>
<path d="M 2855 3269.6 2878.1 3369.4 2999 3671.5 2951.1 3664 2801.9 3640.8 2465.6 3504.3 2270.7 3500.1 2305 3258.9 2615.5 3258.9 2722.5 3105.3 2844.6 3169.2 2855 3269.6 Z" data-holc_grade="B"/>
</g>
<g id="C">
<path d="M 1364.9 2084.4 1388.4 2176.1 1232.1 2206 1234.3 2252.9 1283.5 2331.9 1223.6 2336.1 1152.9 2406.5 1093 2513.2 1069.4 2639 1060.8 2899.3 853.1 2656.1 506.3 2483.2 514.8 2436.3 596.2 2425.7 782.5 2370.2 754.7 2334 750.4 2265.7 574.8 2316.9 401.4 2436.3 311.4 2478.9 335 2585.6 489.1 2564.3 559.8 2764.9 581.1 2941.9 739.6 2886.5 731.7 3014.4 1007.3 2907.9 1060.8 2899.3 1062.8 2901.1 1122.9 2967.6 1165.7 2986.8 1197.5 2997.9 1245 3014.5 1197.8 3091.3 1180.7 3193.8 1131.5 3174.6 1073.6 3163.9 930.2 3180.9 812.4 3170.3 713.9 3151 621.8 3161.7 431.2 3123.3 112.3 2641 81.2 2599.4 37.3 2540.8 84.5 2513 1 2314.6 33.1 2231.4 217.3 2314.7 454.9 2272 519.2 2218.7 617.7 2156.9 684 2080.1 744 2039.6 893.9 1726.4 1030.9 1508.9 1060.9 1489.7 1116.6 1485.4 1234.3 1517.4 1322.1 1504.6 1418.4 1543 1418.4 1600.6 1418.4 1664.2 1352.1 1694.1 1339.2 1655.7 1287.8 1659.9 1123 1787.9 1206.5 1888.2 1225.7 2110 1364.9 2084.4 Z" data-holc_grade="C"/>
<path d="M 1060.8 2899.3 1007.3 2907.9 731.7 3014.4 739.6 2886.5 581.1 2941.9 559.8 2764.9 489.1 2564.3 335 2585.6 311.4 2478.9 401.4 2436.3 574.8 2316.9 750.4 2265.7 754.7 2334 782.5 2370.2 596.2 2425.7 514.8 2436.3 506.3 2483.2 853.1 2656.1 1060.8 2899.3 Z" data-holc_grade="C"/>
<path d="M 900.9 95.7 1186.9 173.4 1192 291.9 1117.1 387.9 939.4 289.8 864.5 89.3 900.9 95.7 Z" data-holc_grade="C"/>
<path d="M 2373.9 2013.2 2517.2 2062.9 2513.1 2222.6 2352.8 2213.1 2284.3 2191.2 2277.4 2054.7 2300.7 1987.8 2373.9 2013.2 Z" data-holc_grade="C"/>
</g>
<g id="D">
<path d="M 2729.6 2122.9 2517.2 2062.9 2373.9 2013.2 2399 1786.9 2649.4 1667.4 2726.5 1712.2 2822.9 1774.1 2872.1 1902 2786.5 2117.5 2729.6 2122.9 Z" data-holc_grade="D"/>
</g>
</svg>