<?xml version="1.0"?>
<svg xmlns="http://www.w3.org/2000/svg" version="1.2" baseProfile="tiny" width="3000" height="3871" viewBox="0 0 3000 3871" stroke-linecap="round" stroke-linejoin="round">
<g id="A">
<path d="M 504.2 265.5 525.9 272.7 543 279.2 555 291 561.6 305.8 569.6 331.2 570.6 350.9 566.6 372.6 564.6 385.9 559.1 399.9 522.8 393.5 489.6 392.7 482.6 380.2 481.1 371.8 481.6 365.7 463.4 299.3 504.2 265.5 Z" data-holc_grade="A"/>
<path d="M 2380.5 2000.7 2387.2 1966.4 2388.2 1961 2493.4 1958 2508.6 1955.1 2507 1979.9 2508.3 2053 2506.7 2055.4 2498.1 2055.7 2496.5 2056.8 2491.8 2075.2 2445.5 2074.5 2443.1 2064.7 2435.5 2054.1 2424.8 2041.4 2411.5 2026.8 2399.4 2014.2 2387.8 2004 2380.5 2000.7 Z" data-holc_grade="A"/>
<path d="M 627.4 577.4 623.2 566.7 617.3 488.8 630.3 478.7 630.3 467.6 634.6 467.7 643.7 459.6 654.1 456.8 667.2 456 680.3 453 692.3 453.2 700.7 458.8 702.7 463.3 703.1 493.2 705.4 503.3 703.4 518.8 708.8 539.3 726.2 569.7 723.9 574 627.4 577.4 Z" data-holc_grade="A"/>
<path d="M 567.1 614.2 587.9 609.4 595.3 605.8 646 603 675.8 600.1 727 609.2 756 616.1 767.8 620.1 779.1 668.9 712.5 651.7 692.4 693.2 644.6 690.6 658 736 650.3 740.6 638.7 714.1 630.4 697.1 614.6 667.1 606.2 655 567.1 614.2 Z" data-holc_grade="A"/>
<path d="M 2501.6 944.2 2510.5 950.8 2512.9 953.2 2514.8 955.1 2499 962.2 2464.4 975.9 2438.9 988.1 2415 993.4 2411.8 992.7 2407.5 988.1 2401.8 983.4 2395.1 979.8 2387.3 977.1 2377.7 971.5 2373.4 967.4 2368 962.6 2364.8 956.5 2357.5 952.2 2353.5 948 2344.9 945.3 2338.5 942.3 2337.7 937.8 2340.4 937.4 2369.1 937 2404.8 933.4 2408.8 939.9 2412.3 941.3 2490.1 922.2 2506.2 922.2 2510.8 923.9 2518.3 924.9 2520.2 926.7 2515.9 929.5 2506.8 935 2499.5 940.3 2498.2 941.7 2501.6 944.2 Z" data-holc_grade="A"/>
<path d="M 502.5 658.7 519.4 687.1 521.8 696.2 525.3 707.5 522.9 722.1 514.9 743 479.7 739 450.5 734.3 420.5 731.9 398.2 736.4 381 736.3 368.4 731.9 372.4 724.6 374.4 718.7 376.8 710.6 375.6 704.1 375.6 696.6 381 689.3 375.6 673.7 380.2 668.2 379.4 656.7 384.1 653 385.1 646.8 388.9 643.2 414.9 647.3 467 653.6 484.5 656.2 502.5 658.7 Z" data-holc_grade="A"/>
<path d="M 439.1 802.9 517.8 829.9 514.3 839 502.2 853.6 500.3 859.8 500.9 874.2 454.7 867.2 442.3 910.7 428.2 955.1 358.7 922.4 359.7 917.2 394.1 867.1 419.9 832.4 428.2 821.7 434.1 801.9 439.1 802.9 Z" data-holc_grade="A"/>
<path d="M 297.4 1120.7 283.4 1148.9 238.5 1194.5 220.2 1183.4 181 1165.1 154.4 1148.7 185 1109.4 255.2 997.8 301.7 1019.9 278.9 1070.1 285 1085 293.4 1093.9 304.1 1103.2 297.4 1120.7 Z" data-holc_grade="A"/>
<path d="M 1834 975.7 1816.2 972 1791.8 965.2 1767.3 957.9 1741.8 949.2 1726.4 944.8 1718 940.6 1712.2 933.6 1706.8 924.4 1708.9 919.4 1724.1 895.8 1745.3 903.6 1754.5 886.9 1769.4 890.1 1778.7 889.7 1785.1 898 1816.1 943.6 1834 975.7 Z" data-holc_grade="A"/>
<path d="M 2884.6 2221.2 2870.4 2218.3 2821.7 2191.1 2810.8 2191.7 2798.2 2192.3 2789 2193.9 2773.1 2199.6 2763 2200 2757.2 2196.1 2751.7 2189.5 2746.7 2186.3 2740.8 2181.9 2733.2 2178.4 2724 2177.8 2731.2 2165.1 2740.4 2145.7 2746.2 2140.7 2755.5 2133.1 2758 2123.6 2756.7 2115.9 2756.3 2105.8 2754.2 2096.3 2751.3 2088.1 2768.9 2072.5 2782.7 2060.2 2792.4 2052.9 2799.1 2049.1 2802.9 2043.7 2805.4 2035.1 2840.5 2058.2 2896.3 2098.1 2946.2 2121.6 2884.6 2221.2 Z" data-holc_grade="A"/>
</g>
<g id="B">
<path d="M 663.1 776 637.6 771.6 622.4 764.8 621.7 764.5 599.8 712.2 595.7 699.9 595.5 699.1 587 673.5 578.6 656.5 571.9 648.7 558.8 636.3 541.3 620.2 567.1 614.2 606.2 655 614.6 667.1 630.4 697.1 638.7 714.1 650.3 740.6 640.5 751.3 652.3 757.4 669.8 761.2 663.1 776 Z" data-holc_grade="B"/>
<path d="M 474.5 1006.2 478.2 1016.3 444.6 1024.4 447.3 1033.8 430.8 1110.8 410.6 1112.4 315.8 1120.2 346 1091.3 414.8 1017.6 423.5 1010.8 435.6 988.5 474.5 1006.2 Z" data-holc_grade="B"/>
<path d="M 1914.5 810.5 1910 819.6 1903.6 832.5 1901 842.5 1901 844.9 1903.5 848.3 1906.2 851.7 1906.5 854.3 1907 868.2 1907.8 875.9 1913.2 889.1 1917.1 896.3 1920.7 904 1922.3 910 1920.4 914.7 1916.7 917.7 1909.8 919.9 1903.5 920.4 1888.5 922.7 1887.1 927.4 1885.2 933.8 1884.8 941.2 1885.4 947.7 1887.4 955.5 1889.8 959.7 1884.8 963.2 1877.5 967.9 1865.2 971.9 1856.2 974.9 1847.9 975.8 1844.9 975.8 1834 975.7 1816.1 943.6 1785.1 898 1778.7 889.7 1769.4 890.1 1754.5 886.9 1745.3 903.6 1724.1 895.8 1743.2 866.2 1779.3 882.1 1785.1 877.5 1790.8 874.5 1798.6 873.1 1806.5 874.5 1807.3 872 1790.6 845.3 1825.6 830.1 1816.2 805 1813.4 799.8 1820.1 796 1824.9 788.5 1831.4 782.9 1845.3 775.6 1859.1 772.7 1867.2 770.8 1874.6 768 1880.9 762.4 1893 748.3 1902.8 736.4 1917.1 727 1922.5 723.4 1928 721.8 1934.4 721.7 1937.8 726.6 1940.4 733.1 1940.7 738.4 1941.5 747.9 1940.9 755.6 1937.7 765.6 1936 770.1 1934.5 776.9 1934.5 781.5 1933.2 785.3 1928.6 795.8 1919.6 806.3 1914.5 810.5 Z" data-holc_grade="B"/>
<path d="M 1813.4 799.8 1816.2 805 1814.3 805.5 1805.2 807.8 1798.2 811.1 1768.6 823.7 1765.5 826 1760.8 826.3 1755.4 824.3 1749.5 813.1 1743.9 805 1721.9 812.6 1723.2 816.3 1726.7 823.2 1730.6 833.3 1733.7 836.8 1739.5 845.1 1734 851.7 1731 860.2 1743.2 866.2 1724.1 895.8 1708.9 919.4 1706.8 924.4 1704.5 930.1 1694 949.8 1690.6 951.6 1679 953.1 1660.1 954 1646.5 955.4 1640.8 955.5 1639.1 959.1 1634.2 964.5 1629 968.4 1618.8 964.6 1598.5 958.1 1583.8 954.4 1564.3 948.2 1558.3 949.2 1550.9 955 1540.6 958.8 1534.6 958.9 1534.4 952.4 1535.6 941.3 1537.6 933.9 1543.2 919.3 1543 913 1547 894.5 1548.9 889.8 1560.2 887.6 1565.6 871.6 1572.8 851.1 1577.9 837 1585.7 818.3 1591.1 804.3 1596.3 793.6 1666 813.9 1679.1 785.7 1689.9 757.6 1695.2 755.3 1700 754.7 1703.8 751.6 1708 746.2 1712 733.4 1717.6 738.4 1720.9 740 1724.5 739.6 1746.2 731.9 1761.9 727.6 1777.2 724.9 1785.5 725.2 1794.5 728.2 1806.8 734.8 1812.6 739.6 1816.7 745.7 1817.3 749.9 1814 754.1 1805.4 756.6 1801.6 758.3 1795.7 765.6 1796.7 772.4 1813.4 799.8 Z" data-holc_grade="B"/>
<path d="M 346 1247.9 342 1253 345.6 1255.3 339.7 1261.9 420.1 1264 420.9 1282 426.3 1296.8 458 1356.6 426 1364.6 389.5 1376 307.7 1395.3 332.4 1347.8 276.2 1337.6 212.5 1318 195.7 1309.8 238.5 1194.5 283.4 1148.9 349.6 1185.6 374 1162.8 410.6 1112.4 430.8 1110.8 424.6 1127.9 414.7 1149.4 409.6 1159.3 330.4 1238.8 346 1247.9 Z" data-holc_grade="B"/>
<path d="M 636.1 1180.1 644.8 1194.7 657.1 1223.9 659.8 1246 670.8 1281.6 674.6 1295.6 681.8 1316.3 681 1321 674.6 1323.2 663 1322.8 651.5 1319.7 633.8 1311.2 626 1304.9 594.8 1286.9 582.8 1279.2 518.4 1326.6 499.8 1337 458 1356.6 426.3 1296.8 420.9 1282 420.1 1264 433.8 1264.8 440.3 1246.4 424.1 1244.1 426 1226.5 434.1 1211.7 474.9 1169.1 476.5 1178.3 488.8 1196.7 506.3 1216.8 553.2 1164.1 569.4 1141.4 581.9 1137.4 604 1132.6 603.6 1135.5 619.1 1181.7 636.1 1180.1 Z" data-holc_grade="B"/>
<path d="M 1782.2 1319.1 1780.7 1344.8 1755.4 1348 1753.4 1396.1 1766 1399.1 1761.1 1414 1713.6 1400.7 1718.5 1385.2 1724.2 1365.7 1724.9 1358.9 1697.3 1350.2 1672.8 1343.7 1638 1334 1620.5 1329 1608.4 1325.4 1624.9 1292.2 1651 1240.3 1685.3 1248.6 1741.3 1263.6 1782.9 1274.5 1782.2 1319.1 Z" data-holc_grade="B"/>
<path d="M 2003.7 1404.2 1971.1 1405.6 1887.1 1402 1886.3 1455.4 1891.2 1457.2 1899.4 1460.4 1907.1 1464.6 1911.5 1470 1914.7 1478.9 1915.9 1484.6 1918.5 1491.5 1918.5 1494.3 1915.5 1498.7 1912.5 1499.9 1907.9 1499.6 1902.4 1498.8 1895.8 1496.6 1888.5 1494.1 1882.7 1494.3 1877.7 1495 1871.2 1497.5 1867.8 1501.4 1867.6 1505.1 1869.6 1513.4 1873.6 1519.5 1877.3 1526.2 1879.1 1530.2 1880.9 1539.7 1881.1 1547.8 1882.9 1553.1 1887.1 1557.5 1889.3 1563.8 1887.7 1567.6 1852.8 1558.9 1853.1 1527 1849.2 1505.1 1841 1484.1 1826.1 1445.8 1809.9 1413.9 1800.9 1390.8 1797.9 1378.3 1789.2 1377.3 1793 1357.7 1780.7 1344.8 1782.2 1319.1 1787.6 1319.4 1791.4 1321.3 1807.5 1324.1 1817 1325.9 1829.7 1327 1834.7 1324.8 1843.4 1319.4 1853.3 1316.6 1865.9 1314.1 1879.3 1314.1 1890.1 1312.1 1892.2 1311.3 1908.9 1314.3 1926.9 1317 1942.4 1319.8 1952.4 1322.6 1961.2 1326.5 1968.2 1328.5 1967.4 1334.8 1969.3 1343.3 1976.2 1357.9 1978.9 1366.8 1981.9 1377.6 1986.4 1390.1 1988.9 1393.7 1990.9 1396.1 1995.6 1397.3 1998.1 1397.3 2003.7 1404.2 Z" data-holc_grade="B"/>
<path d="M 1797.8 1707.7 1803.7 1721.6 1809.5 1736.4 1808.3 1745 1804.1 1748.5 1798.6 1749.8 1790.3 1751.3 1783.1 1753.9 1780.6 1758.9 1778.9 1766.9 1776.4 1769.4 1773.1 1769.7 1719.8 1749.4 1646.8 1733.6 1686.2 1614.8 1602.8 1590.7 1681.6 1516.3 1731.2 1528.6 1852.8 1558.9 1887.7 1567.6 1882.7 1573.4 1876.1 1579.3 1872.2 1583.5 1866 1592.8 1861 1601.5 1845.3 1622.6 1833.6 1639.8 1829.2 1647.1 1823.4 1655.9 1818.9 1665 1812.9 1673.5 1810.7 1676.9 1810.9 1681.1 1811.1 1685.8 1805 1695.6 1798.6 1705.9 1797.8 1707.7 Z M 1802.9 1605.8 1793.7 1599.3 1778.8 1597.4 1783.5 1634.4 1801.3 1634.5 1802.9 1605.8 Z" data-holc_grade="B"/>
<path d="M 2377.7 1247.2 2370.4 1260.3 2352.3 1303.7 2334.7 1358.1 2322.6 1360.7 2261.4 1360 2201.6 1357.8 2184.5 1358.4 2175.2 1357.5 2169.2 1356.4 2168 1353.2 2165.8 1340 2166.8 1330.1 2168.4 1320.8 2173 1273.7 2173.6 1262.9 2179.5 1261.1 2184.1 1258.8 2192.1 1255.3 2199.2 1251.7 2206.2 1246.3 2211.1 1241.5 2213.7 1240.3 2222.3 1240.1 2251.7 1237.7 2273.7 1238.9 2278.7 1242.4 2298.2 1241.6 2363 1241.6 2367.9 1245.9 2377.7 1247.2 Z" data-holc_grade="B"/>
<path d="M 2951.6 1323 2952.2 1325.5 2950.7 1329.5 2949 1335.2 2951.9 1337.7 2972 1349.9 2975.2 1352 2975.4 1354.2 2970.6 1358.3 2968.9 1360.6 2968.5 1364.2 2967.2 1366.8 2963.4 1370.2 2955.5 1378.7 2953.3 1381.9 2954.9 1382.9 2960.7 1384.9 2961.9 1386.1 2961.7 1389.4 2959.1 1393.8 2955.5 1397.3 2947.6 1405.4 2940.9 1411.8 2934.8 1416.9 2929 1421.3 2914.2 1428.1 2909.4 1424.5 2884.9 1400.5 2861.6 1380.7 2836.9 1361.5 2808.9 1387.6 2785.6 1370.6 2788.4 1367.1 2797.3 1355.2 2810.9 1339.8 2808.6 1338.3 2799.2 1332.1 2785.6 1324.9 2775.2 1317.7 2776.7 1315.8 2788.4 1307.4 2796.3 1298.8 2806 1287.4 2813.1 1283.6 2821.6 1281.5 2829.9 1280 2843.8 1279 2852 1278.8 2863.6 1279.9 2873.1 1282.6 2881.4 1284.8 2892.3 1289.3 2902.9 1293.3 2909.4 1296.3 2913.8 1292 2951.6 1323 Z" data-holc_grade="B"/>
<path d="M 779.1 668.9 792.6 699.9 870.8 714.8 872.1 725.7 884.8 740.9 890.6 750.3 895.2 759.9 894.9 768.5 882.2 766.7 861.7 760.6 799.3 754.1 786.5 795.1 722.5 789.8 719.8 784.2 715.1 777.9 705 770.8 688.2 761.7 692.6 743.4 658 736 644.6 690.6 692.4 693.2 712.5 651.7 779.1 668.9 Z" data-holc_grade="B"/>
<path d="M 595.1 1822.7 518.2 1845.3 497.7 1805 489.6 1790.4 480.4 1782 558.1 1761.2 562.8 1762.9 595.1 1822.7 Z" data-holc_grade="B"/>
<path d="M 510.2 1480.8 546.3 1483.3 570.6 1487.8 593.7 1499.5 626 1526.1 640.7 1542.9 645.7 1552.7 595 1567.9 601.7 1594.8 594.5 1610 586.1 1621.1 579.9 1624.3 568.5 1626.2 557.2 1618 547.1 1596.1 541.7 1573 526.6 1569.2 507.3 1534.3 496.8 1507.4 493.1 1490.7 499.4 1483.3 510.2 1480.8 Z" data-holc_grade="B"/>
<path d="M 518.2 1845.3 478.6 1857 449.1 1861.3 397.5 1870 393 1869.5 396.8 1858.1 394.6 1837.6 385.8 1826.3 378.5 1819.4 358.9 1809 363.8 1805.8 477 1779 480.4 1782 489.6 1790.4 497.7 1805 518.2 1845.3 Z M 498.5 1845.7 510.6 1841.8 502.3 1827 477.6 1830.3 435.8 1844.7 441.1 1857.9 498.5 1845.7 Z" data-holc_grade="B"/>
<path d="M 1418.9 2125 1394.7 2193.1 1390.8 2214.5 1367.2 2201.3 1317.2 2168.3 1325.8 2151.2 1342.2 2130.7 1357.2 2108.6 1369.6 2090.7 1418.9 2125 Z" data-holc_grade="B"/>
<path d="M 1402.3 2002.9 1369.6 2090.7 1274.5 2031.1 1277.2 2026 1303.5 1976.4 1402.3 2002.9 Z" data-holc_grade="B"/>
<path d="M 1499 2009.7 1522.5 2023.7 1523.1 2039.6 1511.3 2090.5 1599.7 2139 1573.7 2162.5 1569.3 2160.8 1540.7 2190.6 1514.9 2177.7 1515.8 2200.4 1515.9 2205.1 1502.9 2231.7 1509.7 2236 1478.5 2291 1426.5 2261.5 1386.7 2237 1390.8 2214.5 1394.7 2193.1 1418.9 2125 1434 2082.8 1488.2 2116 1501.9 2051.3 1465.6 2028.6 1486 2002 1499 2009.7 Z" data-holc_grade="B"/>
<path d="M 1583.7 2232.7 1577.9 2238.5 1515.8 2200.4 1514.9 2177.7 1540.7 2190.6 1569.3 2160.8 1573.7 2162.5 1599.7 2139 1642.7 2163.1 1637.3 2175.3 1629.6 2188 1618.2 2199.2 1601.4 2215.1 1583.7 2232.7 Z" data-holc_grade="B"/>
<path d="M 1478.5 2291 1495.2 2300.4 1441 2392.4 1423 2381.2 1406.1 2400.7 1396.2 2420.6 1389.7 2425.9 1379 2429.5 1329.9 2479.8 1326.6 2472.2 1326.8 2460.7 1328.6 2448.2 1327.8 2443.9 1317.8 2436.5 1314.7 2433.7 1314.5 2427.2 1317.6 2419.7 1328 2404.2 1347.2 2379 1358.6 2363.6 1384.2 2329.6 1426.5 2261.5 1478.5 2291 Z" data-holc_grade="B"/>
<path d="M 2651.9 1949 2628.7 1936.1 2623.9 1947 2616.6 1946 2568.8 1948.9 2527.2 1951.5 2508.6 1955.1 2493.4 1958 2510.1 1906.5 2523.2 1864.3 2526.7 1853.1 2526 1841.3 2527.1 1815.3 2501.6 1813.1 2501.6 1830.2 2495.7 1834 2488 1840.3 2481.9 1835.3 2476.9 1831 2478.6 1821.6 2479.9 1802.1 2479.6 1783.3 2473.5 1779.2 2470 1755.9 2468.6 1732.6 2478.4 1731.8 2480 1707.2 2501.8 1708 2503.2 1670.4 2635.6 1666.8 2755.4 1668.8 2748.9 1673.8 2739.3 1679.3 2735.3 1684.2 2732.8 1693.7 2726.4 1717.6 2718.6 1742.2 2711.6 1762.4 2699.8 1757 2695.7 1755.2 2690 1755.7 2685.5 1757.7 2681.6 1763.7 2672.3 1778.6 2668.8 1782.4 2668.8 1783.9 2683.5 1792.6 2665.9 1832 2664.1 1837.4 2665.3 1843 2669.6 1849.5 2673 1861.1 2671.8 1870.8 2671.8 1885.7 2671.2 1895.9 2670 1902.8 2668.8 1907.8 2660.3 1931.2 2657.9 1942.9 2651.9 1949 Z" data-holc_grade="B"/>
<path d="M 2731.4 1996.2 2749.5 1961.3 2751.5 1955.9 2750.5 1951.7 2745.7 1948.6 2738.2 1945.7 2727.7 1941.2 2718.9 1938.4 2707.2 1928.9 2712.9 1925.1 2720 1917.2 2724.6 1911.3 2727.4 1904.9 2730.6 1895.5 2735.5 1886 2737.9 1879 2743.1 1868.4 2745.3 1862.9 2749.2 1852.6 2756.6 1840 2761.6 1828.4 2762.6 1825.7 2767.9 1829.5 2784.8 1838.9 2799.3 1847.1 2801.3 1846.5 2802.5 1836.3 2800.3 1829.2 2799.1 1826 2798.9 1821.4 2802.5 1817 2808.9 1811.5 2813.2 1807.3 2811.2 1803.6 2810 1800.3 2809.1 1794.9 2809.8 1789.3 2811.5 1778.6 2814.7 1768.2 2819.2 1759.3 2820.6 1753.6 2819.8 1749.4 2819.2 1744.7 2820.6 1739.4 2824.9 1732.5 2831.1 1724.8 2838.3 1714.7 2847.4 1705.4 2854.7 1697.7 2858.7 1690.4 2864.6 1679 2876.1 1657.7 2892.5 1671.7 2960.8 1704.1 2999 1726.3 2994.2 1736 2986.7 1742.7 2980.9 1746.4 2973.8 1750 2964.4 1754.6 2948.7 1758.4 2935.6 1761.7 2925.1 1764.5 2920.3 1769 2914.1 1778.9 2909.6 1786.2 2908.8 1791.9 2904.9 1805.5 2903.6 1813.7 2901.9 1824.3 2901.2 1831.2 2900.5 1837.2 2897.9 1854.5 2895.2 1868.9 2894.2 1882.6 2895.2 1888.2 2895.5 1895.8 2893.8 1900.9 2891.2 1904.9 2884.8 1906.2 2875.4 1901.9 2868.3 1897.6 2862.6 1895.3 2858.9 1895.8 2856.3 1898.1 2856.9 1900.6 2858.9 1903.9 2864.3 1907.2 2843.9 1929.3 2848.2 1933.1 2860.3 1939.7 2866.7 1945 2871.7 1950.3 2874.7 1957.4 2879.7 1966.3 2882.1 1971.6 2871 1978.2 2860 1982.5 2852.9 1989.1 2845.5 1989.9 2835.1 1983.8 2824.1 1976.7 2802.2 1968.3 2794.9 1964.8 2791.8 1964.3 2788.5 1965.3 2788.2 1968.3 2789.2 1974.6 2787.8 1981.7 2784.5 1989.4 2776.1 1999 2766.7 2016 2731.4 1996.2 Z" data-holc_grade="B"/>
<path d="M 1896.4 155.8 1893.6 138.6 1852.5 141.8 1851.9 131.7 1844.3 92 1849.7 83.4 1852.9 78.2 1894.4 74.9 1910 73.1 1922.3 72 1927.1 75.3 1929.3 88.9 1931.7 94.7 1936.2 110.2 1942.6 126.6 1943.7 137.9 1945.8 149.8 1942.2 151.8 1896.4 155.8 Z" data-holc_grade="B"/>
<path d="M 2075.3 2155.3 2027.5 2208.1 1990.7 2191.2 1963.8 2182.5 1930.9 2172.2 1920.6 2168.9 1890.3 2159.6 1878.7 2153.7 1858.6 2143.1 1848.1 2136.7 1843.4 2131.6 1836 2122 1842.8 2107.5 1846.3 2099.2 1853.7 2084.4 1861.2 2073.6 1863.4 2069.2 1866.4 2062.2 1872.6 2051.5 1879.3 2038.6 1883.3 2026.3 1883.9 2019.4 1883.3 2010.9 1882.5 2002.5 1881.7 1998 1879.5 1992.8 1874.4 1984.7 1873.2 1977.4 1869.6 1966.5 1867.5 1956.8 1866.9 1947.2 1869.3 1935.3 1868.8 1924.5 1868 1916.4 1865.9 1906.5 1997.4 1924.6 1994.4 1934.8 1988.4 1950 1983.1 1964.5 1990.8 1968.1 2077.3 1997.8 2085.4 1996.6 2090.8 1989.9 2142.4 2007 2150.6 2000.8 2159.7 1992.1 2171.1 1978.8 2175.6 1967.8 2195.9 1972.4 2201.3 1966.1 2205.2 1960.6 2206.2 1955.8 2225.6 1956.7 2224.5 1967.9 2223.7 1977.2 2221.5 1986.1 2217.8 1996.3 2214.3 2006 2212.1 2011.3 2203.6 2020.2 2189.3 2032.8 2180.7 2042.7 2172.2 2052.3 2164.1 2061.2 2153.6 2072.5 2139.1 2086.7 2128.4 2096.5 2090.6 2136.9 2075.3 2155.3 Z M 2122.2 2094.6 2145.8 2063.2 2087 2042.5 1975.5 1997.3 1943.3 2044.7 1975.1 2055 2102.1 2109.6 2122.2 2094.6 Z" data-holc_grade="B"/>
<path d="M 2071 2460.8 2064.3 2486.2 1920 2434.8 1926.7 2407.2 1867.6 2386.9 1918.1 2335.5 1939.5 2304.7 1946.3 2298.6 1970.3 2308.5 2031.1 2326.1 2044.5 2333.4 2118.4 2358.1 2096.1 2405.3 2072.2 2456.1 2071 2460.8 Z M 1869.8 2252.3 1877 2234.7 1880.5 2224.5 1880.5 2218.6 1880.8 2212.2 1883.7 2205.9 1888.6 2199.6 1895.8 2193.3 1906.5 2181.9 1913 2178.1 1921.6 2175 1930.9 2172.2 1963.8 2182.5 1990.7 2191.2 2027.5 2208.1 2149.6 2253.1 2127.8 2286.5 2111.1 2314.2 2092.6 2315.7 2082.2 2314.9 2025.8 2300.2 1965.5 2281.5 1900 2260.2 1869.8 2252.3 Z" data-holc_grade="B"/>
<path d="M 2251.3 2290.9 2228.6 2330.6 2223.6 2336 2217.3 2337.3 2206.8 2336 2200.1 2335.4 2192.1 2336.3 2182 2337.9 2178.3 2342.3 2169.5 2358.8 2162.7 2371.2 2249.6 2398.8 2258.8 2410.5 2268 2425.1 2271.8 2441.6 2270.1 2458.7 2202.2 2436.8 2096.1 2405.3 2118.4 2358.1 2132.6 2329.7 2153.5 2317.9 2190.2 2266.9 2251.3 2290.9 Z" data-holc_grade="B"/>
<path d="M 2122.2 2094.6 2102.1 2109.6 1975.1 2055 1943.3 2044.7 1975.5 1997.3 2087 2042.5 2145.8 2063.2 2122.2 2094.6 Z" data-holc_grade="B"/>
<path d="M 2194.2 2197.1 2186.4 2215 2170.8 2210.5 2166.2 2223.1 2149.6 2253.1 2027.5 2208.1 2075.3 2155.3 2119 2168.3 2125.2 2168.3 2164.4 2185.3 2174.3 2190.6 2194.2 2197.1 Z" data-holc_grade="B"/>
<path d="M 1867.6 2386.9 1852.6 2381.8 1849.9 2385.2 1769.1 2355.6 1776.6 2321.7 1777.2 2294.9 1776.6 2259 1797.3 2259.4 1820.6 2261.9 1828.2 2265.5 1847.2 2270 1860.9 2273.6 1869.5 2273.8 1892 2277.7 1916.5 2286.6 1946.3 2298.6 1939.5 2304.7 1918.1 2335.5 1867.6 2386.9 Z M 1869.8 2252.3 1855.3 2249.1 1833.8 2242.8 1820.1 2238.5 1803.5 2236.7 1777.4 2236.9 1777.7 2233.5 1778.8 2223.9 1782.3 2217.2 1790.3 2206.1 1801.1 2194.5 1809.7 2183.1 1819.9 2163.5 1831.7 2139.3 1836 2122 1843.4 2131.6 1848.1 2136.7 1858.6 2143.1 1878.7 2153.7 1890.3 2159.6 1920.6 2168.9 1930.9 2172.2 1921.6 2175 1913 2178.1 1906.5 2181.9 1895.8 2193.3 1888.6 2199.6 1883.7 2205.9 1880.8 2212.2 1880.5 2218.6 1880.5 2224.5 1877 2234.7 1869.8 2252.3 Z" data-holc_grade="B"/>
<path d="M 1998.5 2630.5 1931 2619.1 1936.5 2582.6 1925.1 2580.4 1932.1 2524.8 1933.5 2513.8 1897.5 2497.6 1899.7 2491.5 1920 2434.8 2064.3 2486.2 2034.6 2556.9 2024.9 2554.7 2003.1 2610.5 1998.5 2630.5 Z" data-holc_grade="B"/>
<path d="M 2777.8 2344.1 2776.9 2397.6 2732.6 2431.5 2671.8 2397.1 2696.6 2332.6 2688.5 2329.3 2676.8 2322.8 2669.7 2315.4 2668.1 2307.8 2668.7 2297.4 2669.4 2287.7 2672.9 2289.4 2771 2341.7 2777.8 2344.1 Z" data-holc_grade="B"/>
<path d="M 2623.9 1947 2617.4 1964.2 2603.7 1987.9 2595.9 2002.5 2582.2 2009.8 2576.9 2042.5 2572.6 2065.2 2560.5 2097.3 2525.9 2091.2 2515.4 2115.3 2509.5 2127.3 2499.6 2139.7 2488.3 2152.2 2466.7 2140.4 2438.7 2126 2406.4 2109.9 2371.2 2091.3 2370.1 2089.5 2371.6 2086.1 2374.4 2081.8 2376.4 2077 2376.3 2069.9 2371.1 2048.1 2369.6 2041.4 2371.5 2034 2380.5 2000.7 2387.8 2004 2399.4 2014.2 2411.5 2026.8 2424.8 2041.4 2435.5 2054.1 2443.1 2064.7 2445.5 2074.5 2491.8 2075.2 2496.5 2056.8 2498.1 2055.7 2506.7 2055.4 2508.3 2053 2507 1979.9 2508.6 1955.1 2527.2 1951.5 2568.8 1948.9 2616.6 1946 2623.9 1947 Z" data-holc_grade="B"/>
<path d="M 2884.6 2221.2 2848.6 2277.3 2846.7 2279.9 2802.9 2340.1 2794.9 2345.5 2782.7 2345.8 2777.8 2344.1 2771 2341.7 2672.9 2289.4 2669.4 2287.7 2668.7 2297.4 2668.1 2307.8 2669.7 2315.4 2676.8 2322.8 2688.5 2329.3 2696.6 2332.6 2671.8 2397.1 2667.7 2406.7 2659.3 2413.6 2651.6 2416.1 2647.9 2422.2 2647.6 2430.6 2642.9 2437.4 2638.2 2443.2 2603 2517.6 2542.9 2488.9 2512.4 2531.5 2475.2 2512.5 2473.5 2503.9 2471.1 2497.5 2467.8 2493.2 2460.1 2492.2 2449.7 2491.4 2439.3 2489.2 2430.1 2485.3 2435.7 2478.8 2447.5 2461.5 2457.4 2454.6 2470.3 2445.3 2487.5 2430.9 2509.2 2412.6 2523.2 2398.8 2533.7 2383.6 2537.2 2369.8 2539.8 2346.1 2565.1 2350.9 2568.1 2299.9 2606 2264.4 2620.1 2272.3 2624.2 2266.5 2631.8 2249.7 2618.8 2241.8 2671.3 2151.4 2701.8 2077 2711.3 2058 2714.7 2057.2 2717 2059.6 2719 2064.7 2723.7 2066.7 2729.4 2066.2 2739.3 2058.6 2754 2040.4 2762 2023.9 2766.7 2016 2805.4 2035.1 2802.9 2043.7 2799.1 2049.1 2792.4 2052.9 2782.7 2060.2 2768.9 2072.5 2751.3 2088.1 2754.2 2096.3 2756.3 2105.8 2756.7 2115.9 2758 2123.6 2755.5 2133.1 2746.2 2140.7 2740.4 2145.7 2731.2 2165.1 2724 2177.8 2733.2 2178.4 2740.8 2181.9 2746.7 2186.3 2751.7 2189.5 2757.2 2196.1 2763 2200 2773.1 2199.6 2789 2193.9 2798.2 2192.3 2810.8 2191.7 2821.7 2191.1 2870.4 2218.3 2884.6 2221.2 Z" data-holc_grade="B"/>
<path d="M 1724.5 739.6 1722.7 721.5 1717.2 700.6 1679.2 701.8 1674.1 668.1 1668.5 646.3 1661.5 647.9 1646.8 649.4 1646.4 656.4 1642.9 658.9 1632.5 660.8 1619.6 661.5 1614.5 660.5 1606.9 658.9 1585.4 660.6 1585 641.6 1585.8 637.4 1587.6 635.7 1590.4 634.8 1595.8 634.6 1601.8 635.4 1704.6 626.1 1704.9 624.3 1751.4 620.5 1753.7 621.3 1752.5 641.8 1754.7 642.2 1777 640.3 1786.3 639.8 1789.3 640.1 1795.5 651.2 1797.7 657.1 1800.4 667.9 1800.8 671 1831.4 664.9 1854.1 659.9 1848.7 646.9 1847.9 643.2 1848.7 641.5 1866.6 638.3 1885.7 635.9 1921.1 628.6 1941.9 622.5 1945.7 621.7 1949.5 624.2 1949.7 630.8 1949.3 633 1945.5 636.3 1943.5 648.8 1944.3 655.8 1945.1 676.4 1946.9 684.9 1950.7 689.5 1955.8 713.6 1956.8 720 1946.9 724.1 1937.8 726.6 1934.4 721.7 1928 721.8 1922.5 723.4 1917.1 727 1902.8 736.4 1893 748.3 1880.9 762.4 1874.6 768 1867.2 770.8 1859.1 772.7 1845.3 775.6 1831.4 782.9 1824.9 788.5 1820.1 796 1813.4 799.8 1796.7 772.4 1795.7 765.6 1801.6 758.3 1805.4 756.6 1814 754.1 1817.3 749.9 1816.7 745.7 1812.6 739.6 1806.8 734.8 1794.5 728.2 1785.5 725.2 1777.2 724.9 1761.9 727.6 1746.2 731.9 1724.5 739.6 Z" data-holc_grade="B"/>
<path d="M 2802.9 2340.1 2846.7 2279.9 2933.2 2325 2888.3 2391.6 2802.9 2340.1 Z" data-holc_grade="B"/>
<path d="M 2837.6 2649.3 2791.9 2622.7 2819.4 2594.6 2856.6 2614.9 2845.5 2637.4 2837.6 2649.3 Z M 2772.9 2610.9 2691 2566.8 2712.5 2544.2 2714.3 2544.4 2740.5 2557.8 2764.2 2568.3 2767.2 2565.8 2796.4 2581.5 2786.3 2596.4 2772.9 2610.9 Z" data-holc_grade="B"/>
<path d="M 1288.5 2606.4 1246.9 2656.4 1207 2696.9 1207.8 2701 1211.5 2705.5 1215.5 2714.7 1214.5 2721.7 1211.8 2723.4 1207.5 2725.9 1193.6 2737.3 1176.8 2744.7 1165.2 2749.4 1157.2 2758.4 1153 2774.5 1140.9 2804.2 1131.8 2822.7 1119.8 2839.5 1102 2829.4 1058.5 2804.8 1025.8 2787.9 987.7 2768.2 1005 2743.2 1010.4 2728 1015.2 2710.6 1024 2696.9 1033.4 2684.8 1063.4 2657.4 1033.7 2636.3 1101.2 2570.1 1057.7 2543.1 1077 2527.5 1159.4 2574.8 1192.7 2543.3 1213.4 2554.5 1208.6 2564 1159.1 2617.6 1077.4 2697.2 1067.3 2706.4 1065.2 2714.7 1091.8 2728.6 1182.3 2642.7 1252.9 2565 1220.3 2547.3 1234.6 2532.6 1246.9 2515.1 1251.8 2502.9 1261.5 2483.6 1267.4 2476.1 1339 2516.9 1339.3 2522.8 1327 2549.5 1321.6 2562.1 1307.6 2582.9 1288.5 2606.4 Z" data-holc_grade="B"/>
<path d="M 1920 2434.8 1899.7 2491.5 1870.2 2483 1883.9 2446.9 1891.2 2436.7 1862.7 2428.4 1845.3 2467.8 1838.8 2469.2 1791.6 2455 1784.1 2472.2 1797.2 2477.9 1851.7 2496.8 1896.8 2506.3 1932.1 2524.8 1925.1 2580.4 1906.1 2581.3 1899.3 2615.3 1817.8 2590.9 1780.4 2583.8 1762.5 2580.3 1763.5 2571.4 1759.4 2568.4 1750.7 2555.9 1741 2539.4 1736 2527.5 1734.3 2514.6 1733.6 2499.4 1735.6 2486.9 1739.7 2475.3 1747.3 2463.8 1748.3 2459.7 1747.3 2450.9 1750.8 2427.7 1759.4 2401.1 1762.4 2387 1769.1 2355.6 1849.9 2385.2 1852.6 2381.8 1867.6 2386.9 1926.7 2407.2 1920 2434.8 Z" data-holc_grade="B"/>
<path d="M 2512.4 2531.5 2471.7 2587.9 2398.7 2549.8 2405.2 2538.2 2412.6 2524.8 2430.1 2485.3 2439.3 2489.2 2449.7 2491.4 2460.1 2492.2 2467.8 2493.2 2471.1 2497.5 2473.5 2503.9 2475.2 2512.5 2512.4 2531.5 Z" data-holc_grade="B"/>
<path d="M 2529.3 2684.1 2509.9 2714.2 2508.5 2716.4 2503.9 2715.8 2499.7 2711 2475 2734.5 2485.5 2739.9 2451.9 2767.8 2437.1 2785.3 2428.8 2795.1 2380.5 2770.2 2385.1 2759.6 2402.6 2733.5 2410.6 2720.3 2426.7 2699.2 2434.8 2699.5 2446.9 2698.2 2454.9 2696.4 2462.6 2688.8 2487.8 2661.9 2499.4 2670.3 2507.8 2675.9 2522.9 2682 2529.3 2684.1 Z" data-holc_grade="B"/>
<path d="M 2603.8 3035.9 2600.8 3045.2 2600.8 3056.1 2602.1 3070.1 2602.8 3081.7 2601.1 3095.4 2593.8 3103.8 2584 3111.7 2573 3117 2567.3 3121.6 2565.5 3128 2526.5 3112.1 2551.8 3034.9 2558.8 3017.6 2587.5 3029.6 2603.8 3035.9 Z" data-holc_grade="B"/>
<path d="M 2558.8 3017.6 2551.8 3034.9 2526.5 3112.1 2521.4 3131.8 2441.5 3088.7 2473.5 3021 2484.9 2997 2492.7 2980.5 2558.8 3017.6 Z" data-holc_grade="B"/>
<path d="M 987.7 2768.2 1025.8 2787.9 1012.4 2803.5 986.8 2833.7 981.3 2849.5 984.7 2862.5 998.5 2865.7 1009.9 2860.3 1027.9 2843.8 1043 2824.8 1053.5 2807.4 1058.5 2804.8 1102 2829.4 1082 2845.7 1037.1 2888.6 1006.5 2913.6 983.4 2940 975.5 2951.4 911.7 2915.5 935.2 2889.5 885.7 2862.9 882.5 2861.4 869.4 2855.3 873.1 2839.4 876.9 2820.4 885.7 2810.8 899.1 2804.5 916.3 2790.9 934.8 2768 947.8 2749 953.2 2749 973.4 2757.9 987.7 2768.2 Z" data-holc_grade="B"/>
<path d="M 2411 3154.9 2419 3160.6 2401.4 3166.3 2351.9 3232.9 2345.4 3229.6 2328.4 3220.9 2327.2 3217.7 2289.4 3195.8 2318.8 3159.3 2343.9 3118 2411 3154.9 Z" data-holc_grade="B"/>
<path d="M 2512.9 953.2 2530.7 938.3 2522.5 932.7 2501.6 944.2 2498.2 941.7 2499.5 940.3 2506.8 935 2515.9 929.5 2520.2 926.7 2518.3 924.9 2510.8 923.9 2506.2 922.2 2490.1 922.2 2412.3 941.3 2408.8 939.9 2404.8 933.4 2369.1 937 2340.4 937.4 2338.8 935.3 2337.2 927.7 2335.4 919.8 2334.6 915.9 2336 912.3 2340.1 905.8 2344.8 900 2349.7 895.5 2356.7 885.3 2362.7 875.6 2366.8 870 2375.2 861.3 2382.1 854.9 2384.2 854.5 2390.2 854.3 2409 850.8 2422.7 847.9 2426.2 847.6 2448.4 842.8 2474.4 838 2501.8 834.2 2553 825.7 2568.5 823.5 2581.5 823.5 2583.2 824.4 2583 828.1 2582 840.1 2581.9 851 2582.8 856.5 2585.1 860.2 2587.1 865.3 2589.5 869.3 2590.7 870.8 2591.1 872.9 2591.5 876.1 2593.8 884.7 2594.4 888.7 2590.9 892.1 2585.6 896 2580.3 900.3 2573.4 905.7 2573.2 909.8 2573.4 917.9 2573.4 926.8 2573.8 939.8 2570.7 942.3 2569.4 944.3 2554 957.1 2544.3 968.1 2541.1 971.1 2533.7 976.7 2529.5 980 2504.3 993.3 2501.6 995.9 2492.2 999.4 2485.3 1002.9 2480 1004.7 2476.1 1006.7 2472.8 1008.7 2468.7 1008.9 2465.2 1010.2 2460.3 1011.9 2454.1 1012.8 2448.9 1013.4 2442.5 1012.8 2436.8 1010.2 2432.6 1007.4 2426.6 1004.7 2422.8 1001 2420.2 999.6 2418.2 997.1 2413.5 994.4 2411.8 992.7 2415 993.4 2438.9 988.1 2464.4 975.9 2499 962.2 2514.8 955.1 2512.9 953.2 Z" data-holc_grade="B"/>
<path d="M 2432.4 3221.6 2446.8 3209.4 2470.2 3186.6 2487.4 3172.3 2494.5 3164.7 2498.5 3160.4 2538.9 3182.6 2530.7 3196.2 2518.1 3210.9 2516.9 3219.5 2512 3229.1 2504.3 3238.5 2499.5 3246 2494.1 3255.9 2487.1 3272.6 2479.5 3283.2 2467.8 3297.2 2450.5 3315.4 2449.1 3319.7 2419.1 3339.1 2412.4 3341.5 2404.4 3343 2397.5 3340.7 2393.3 3344.7 2388.1 3348.4 2386.5 3352.5 2388.3 3359 2387.5 3361.8 2380.6 3365.9 2377.6 3379.9 2371 3378.2 2373.8 3360.5 2383.6 3306.3 2393.5 3257.6 2383.8 3253.6 2386.5 3243.2 2397.7 3243.4 2419.6 3232 2432.4 3221.6 Z" data-holc_grade="B"/>
<path d="M 751.1 3104.4 697.2 3162.3 691.3 3160.6 655.5 3130.6 606.2 3104.6 658.8 3048.9 715.7 3080.2 751.1 3104.4 Z" data-holc_grade="B"/>
<path d="M 739 2997.4 721.6 3016.7 743.6 3030.3 738.2 3037.8 733.4 3057.3 725.6 3069.9 773.1 3100.4 766.1 3117.5 774.5 3124.8 788.9 3129 774.7 3136.3 757.2 3143 749.1 3145.6 741.9 3149.4 665.2 3177.9 605.8 3202.4 621.5 3221.3 737.8 3178.7 757.6 3172 770 3164.8 777.3 3173.1 774.7 3184.1 762.6 3204 725.3 3267.3 740.8 3271.6 754.8 3282.4 740.1 3312.3 733.7 3326.6 726.4 3342 719.8 3354.8 717.6 3363.5 715.6 3365.6 697.5 3355.2 666.5 3337.3 634.8 3319 621.2 3311.1 611.2 3305 531.2 3256.1 520.1 3250.3 532 3228.7 540.6 3208.4 550.2 3188 557.9 3178.2 560.1 3172.3 553.5 3160.4 554.3 3153.6 567.4 3140.8 578.2 3133.8 588.7 3122.2 594.7 3114.4 597.6 3107.1 596.5 3101.3 579.8 3088.7 566.8 3085.6 555.5 3079.5 543 3072.2 538.2 3063.5 536.4 3055.2 537.6 3046.9 543 3035.8 552.7 3024.5 571 3009.1 549.4 2999.2 577.6 2972.3 533.3 2945.5 573.6 2910.6 596.9 2927.7 615.9 2941.1 632.6 2951.4 642.7 2955 669.6 2965.1 683 2972.5 690.4 2974.8 703.8 2977.6 715.5 2981.9 729.6 2989 739 2997.4 Z M 644.5 3022.2 647.2 3019.4 645.8 3011.4 641.7 3005 632.3 3000.7 627.6 2999 620.2 2999.2 615.4 3001.6 614.2 3005.3 615 3010.3 616.8 3015.3 622.6 3020.9 630.7 3023.8 636.9 3024 644.5 3022.2 Z M 751.1 3104.4 715.7 3080.2 658.8 3048.9 606.2 3104.6 655.5 3130.6 691.3 3160.6 697.2 3162.3 751.1 3104.4 Z" data-holc_grade="B"/>
<path d="M 595.7 699.9 599.8 712.2 621.7 764.5 622.4 764.8 622.6 765.2 632.8 798.1 631.5 810.9 626.8 830.3 626.7 830.8 620 849.3 605.3 874.6 586.4 899.6 585.2 899.3 552.5 939.2 547.2 949.7 546.9 950.3 520.5 946.6 522.9 932.4 540.9 884.6 500.9 874.2 500.3 859.8 502.2 853.6 514.3 839 517.8 829.9 439.1 802.9 447.5 787.9 456.6 780.2 486.4 759.8 514 745.4 514.9 743 522.9 722.1 525.3 707.5 521.8 696.2 519.4 687.1 502.5 658.7 514.6 661.5 527.4 666.2 543.5 676.5 555.1 683.2 562.9 690.3 569.8 696.6 576.8 700.4 595.7 699.9 Z" data-holc_grade="B"/>
<path d="M 474.5 1006.2 435.6 988.5 423.5 1010.8 414.8 1017.6 346 1091.3 315.8 1120.2 297.4 1120.7 304.1 1103.2 293.4 1093.9 285 1085 278.9 1070.1 301.7 1019.9 255.2 997.8 251.7 996.1 254 990.3 269.5 987.4 296.3 979.7 313.6 974.8 327.3 963.3 347.4 945.2 357.5 928.9 358.7 922.4 428.2 955.1 442.3 910.7 454.7 867.2 500.9 874.2 540.9 884.6 522.9 932.4 520.5 946.6 546.9 950.3 543.7 956.5 529.2 988.2 520.5 978.6 512.1 982.2 510.1 987 503.4 994.6 485.9 1001.2 474.5 1006.2 Z" data-holc_grade="B"/>
<path d="M 791.4 925.2 774.9 963.4 767.4 989.6 748.3 1063.4 741.7 1097.4 723.5 1093.4 720.7 1100.7 711.9 1103.3 706.6 1108.8 704 1114 701.6 1126.3 696.6 1139.6 689.3 1175.1 636.1 1180.1 619.1 1181.7 603.6 1135.5 604 1132.6 607 1111.8 624.3 1076.3 657.5 1079.1 671.8 1029 658.7 1024.3 668.6 1008.3 644 998.8 642.4 993 641.6 896.9 656.3 900.9 677.4 902.9 696.2 906.5 704.2 896.2 709.7 885.3 760.9 896.4 797.7 904.7 791.4 925.2 Z" data-holc_grade="B"/>
<path d="M 658.7 1024.3 671.8 1029 657.5 1079.1 624.3 1076.3 607 1111.8 604 1132.6 581.9 1137.4 569.4 1141.4 552.8 1146.8 548.4 1138.9 566.9 1114.6 530.6 1131.1 523.9 1110.7 516.2 1087 542.4 1076.9 537 1062.2 538 1055.1 541 1044.7 553 1028.6 558.5 1021.4 579.9 1025.7 585.6 1018.9 608.8 1022.4 627.2 1022.4 653.7 1031.8 658.7 1024.3 Z M 597.4 1106.7 607.6 1102.6 610.7 1096.2 610.5 1088.1 605 1083.3 593.9 1081.9 583.2 1085.4 578.8 1092.5 579.1 1102.6 588.4 1107.1 597.4 1106.7 Z" data-holc_grade="B"/>
</g>
<g id="C">
<path d="M 504.2 265.5 463.4 299.3 481.6 365.7 481.1 371.8 482.6 380.2 489.6 392.7 522.8 393.5 559.1 399.9 554.4 406.3 543.8 415.4 528.2 425.7 524.2 428.1 520.7 430.2 511.1 440.8 452.2 426.8 421.5 347.2 398.8 353.2 381.2 360.5 382.9 369 380.8 378.2 371.1 383.6 356 385.2 347.2 382.3 339.3 378.2 333.4 377.9 327.9 380.7 313.9 394.7 300.8 405.1 274.3 403.1 276.9 376.5 275.9 357.5 268.6 335 263.5 321.6 234.3 323.8 230.6 314.5 195.4 270.2 239.4 218.3 291.7 243.1 314.5 203.9 304.5 191.7 285.7 93.3 294.1 96.8 315.5 72.8 329.3 79.4 354.1 52.3 404.8 74.8 421.2 55.9 500.7 88.7 461.1 132 470.2 187.9 435 188.2 437 205.4 452.1 251.5 504.2 265.5 Z M 436.7 271.3 416.7 269.8 405.4 289.1 386.5 287.7 370.2 280.9 376.7 294.4 389.3 308.8 415.1 318.8 450.5 321.9 436.7 271.3 Z" data-holc_grade="C"/>
<path d="M 509.9 1023.5 493.8 1060.6 468.1 1083.3 453 1109.3 430.8 1110.8 447.3 1033.8 444.6 1024.4 478.2 1016.3 481.2 1022.9 486.3 1024.8 499.5 1024.4 509.9 1023.5 Z" data-holc_grade="C"/>
<path d="M 800.6 796.4 760.9 896.4 709.7 885.3 706.4 884.6 683.6 880.8 667.3 877 657 873.9 655.2 866.8 654.8 863 654 860.4 650.2 858.6 650.4 851.9 649.6 845.8 646.2 838.7 640.7 834 626.8 830.3 631.5 810.9 632.8 798.1 622.6 765.2 622.4 764.8 637.6 771.6 663.1 776 722.5 789.8 786.5 795.1 800.6 796.4 Z" data-holc_grade="C"/>
<path d="M 760.9 896.4 800.6 796.4 829.9 801.9 908.1 819.8 977.6 841.1 1107.1 878.1 1109.4 880.1 1106 946.7 1112.8 1017.6 1108.7 1017.4 992.3 996.1 931.6 996.1 925.2 998.9 891.3 997.1 899 949.5 802.8 925.2 791.4 925.2 797.7 904.7 760.9 896.4 Z" data-holc_grade="C"/>
<path d="M 891.3 997.1 867.3 1078.2 836.1 1070 830.6 1083 808.5 1163.8 787.6 1160.9 783.9 1171.1 689.3 1175.1 696.6 1139.6 701.6 1126.3 704 1114 706.6 1108.8 711.9 1103.3 720.7 1100.7 723.5 1093.4 741.7 1097.4 748.3 1063.4 767.4 989.6 774.9 963.4 791.4 925.2 802.8 925.2 899 949.5 891.3 997.1 Z" data-holc_grade="C"/>
<path d="M 1566.9 738.2 1568 751.5 1565.3 756.6 1568.3 788.5 1558.8 788.4 1551.4 786.9 1544.1 787.9 1537.1 791.1 1532.4 797.7 1529.2 804.2 1527 811.8 1523.6 822.3 1521.4 839 1517.5 872.4 1516.7 873.2 1501 864.5 1484.1 855.5 1444.9 841.3 1396 822.9 1395.3 820.1 1397.8 810.7 1405.2 792.8 1414.1 769.5 1392.7 766.5 1347.8 759.2 1345.2 758.6 1345 756.9 1346.4 753.1 1351.5 742 1354.3 732.6 1359.3 720.9 1363.1 710.3 1366.1 704.8 1418.7 713.3 1447.4 719.8 1468.1 725 1510.2 731.3 1557.5 735.6 1566.9 738.2 Z" data-holc_grade="C"/>
<path d="M 1712 733.4 1708 746.2 1703.8 751.6 1700 754.7 1695.2 755.3 1689.9 757.6 1679.1 785.7 1666 813.9 1596.3 793.6 1578.6 789.6 1568.3 788.5 1565.3 756.6 1568 751.5 1566.9 738.2 1569.1 738.9 1573.1 741 1597 737.6 1612.1 730.5 1633.5 725.1 1654 722.3 1657.7 722.4 1663.1 727.1 1668.4 730.2 1677.3 731.3 1686 730.2 1691.1 729.1 1699.5 728.4 1705.3 730.1 1712 733.4 Z" data-holc_grade="C"/>
<path d="M 1889.8 959.7 1897.9 985.9 1907.9 988.9 1915 990.6 1931.7 993 1953.2 994.5 1958.5 1002.4 1961.3 1008.8 1964.3 1019.5 1990.9 1025.4 2001.1 1026.6 2004.8 1028.7 2010.8 1041.4 2014.2 1047.5 2014.2 1063.1 2013.1 1070.4 2008.3 1078.7 1995.6 1091.9 1988.1 1099 1987 1102.8 1990.5 1108.5 1995.9 1113.3 2005.3 1117.6 2016 1122.5 2040.7 1129.8 2067 1136.6 2073.2 1138.5 2073.7 1141.7 2072.1 1143.5 2066 1146.4 2059 1151.2 2053.6 1160.4 2045 1164.2 2044.5 1166.2 2038.8 1168.7 2030.8 1170.5 2025.2 1170.7 2019.3 1171.1 2013.9 1172.3 2010.7 1173.1 2006.6 1176.4 1945.2 1163.8 1899.6 1157.3 1894.5 1155.5 1891.5 1156.1 1884.3 1162.4 1855.5 1156.9 1852.8 1157.1 1848.3 1161.8 1844.5 1161.2 1840 1159.5 1835.9 1159.7 1831.4 1158.1 1829.8 1156.5 1828.4 1151.2 1826 1149 1822 1149 1812.6 1153.9 1805.9 1154.7 1800.8 1153.5 1797.3 1149.8 1794.1 1145.8 1759.4 1137.7 1746 1130.6 1695.8 1109.5 1695.8 1106.9 1701.7 1098.8 1702.5 1091.7 1701.5 1088.6 1663.4 1080.5 1661.8 1078.1 1663.1 1073.6 1651 1070 1635.4 1065.5 1631.7 1062.5 1644.3 1035.5 1688.1 1046.9 1761.3 1061.1 1773.7 1016.8 1777.3 998.1 1778.9 996.7 1782.6 997.1 1795.5 999.7 1821.8 1005.4 1828.4 1007.8 1840.7 1009.8 1848 1010.1 1848.1 995.8 1846.4 981.8 1844.9 975.8 1847.9 975.8 1856.2 974.9 1865.2 971.9 1877.5 967.9 1884.8 963.2 1889.8 959.7 Z M 1881.5 1060 1837.9 1051.3 1821.1 1081 1864.5 1086.9 1881.5 1060 Z" data-holc_grade="C"/>
<path d="M 2899.7 1258.4 2895.7 1258.1 2829.9 1221.2 2766.5 1185.5 2750.2 1175.5 2744 1205.3 2732.3 1199.6 2704.4 1188.3 2631.4 1184.9 2586.8 1182.2 2545.6 1179.7 2546.6 1160.7 2549.2 1155.6 2551.7 1115.5 2553.5 1078.7 2553.7 1063.5 2552.3 1047.3 2554.5 1045.5 2573.1 1042.8 2601.7 1037.7 2602 1036 2602.5 1008.2 2604 997.2 2605.5 974.1 2613.2 968.3 2623.5 958 2627.7 957.5 2638.2 969.3 2654.2 986.9 2668.1 1002.4 2680.5 1016.8 2691.6 1017.3 2718.7 1035.9 2717.4 1008.6 2715.1 1006.9 2710.9 1005 2706.2 1001 2702.9 996.2 2701.1 990.9 2701.9 984.6 2702.6 981.6 2704.4 976.3 2707.2 972.3 2711.5 968.7 2715.6 966 2722.9 963.7 2728.2 963.3 2731.8 962.9 2735.5 962.5 2744.2 962.4 2751.5 962.3 2761.2 962.9 2767.7 963.4 2773.5 963.7 2778.5 964.8 2781.9 966.5 2784.2 967.3 2789.9 972.2 2795.2 979 2798.6 984.5 2800.1 986.8 2802 991 2804.2 997.2 2805.2 1003.2 2804.9 1008.4 2804.8 1012.7 2804 1019.2 2802.7 1023.6 2801.4 1027.6 2799 1032.9 2791.4 1060.4 2786.2 1077.9 2786.4 1083.9 2769.7 1101.6 2783.3 1112.3 2819.2 1133.5 2840 1115.5 2887.2 1142.7 2885.7 1144.7 2881.2 1146.9 2877 1148.2 2874.6 1149.9 2872.9 1153.1 2871 1157.2 2870.4 1159.6 2866 1172.8 2864.4 1180.6 2862.6 1185.6 2857.4 1190.9 2847.9 1197.3 2839.9 1204.7 2841.3 1207 2851.9 1214.5 2872.1 1225.9 2896.2 1202.8 2917.4 1211 2926 1216.3 2935.1 1219.4 2938.8 1223.3 2938.9 1228.5 2936.1 1231.9 2933.6 1236.3 2931.1 1240.3 2928.2 1243.3 2927.2 1246.7 2926 1250 2924.5 1252.4 2922.5 1254 2918.8 1255.5 2913.4 1256.1 2909.4 1256.9 2902.9 1257.4 2899.7 1258.4 Z" data-holc_grade="C"/>
<path d="M 569.4 1141.4 553.2 1164.1 506.3 1216.8 488.8 1196.7 476.5 1178.3 474.9 1169.1 482.8 1164.9 483.6 1161.2 486.4 1157.7 486.8 1152.6 516 1141.6 530.6 1131.1 566.9 1114.6 548.4 1138.9 552.8 1146.8 569.4 1141.4 Z" data-holc_grade="C"/>
<path d="M 454.7 1109.8 427.2 1165.2 421.6 1191.2 410.7 1216.6 408.2 1232.5 386.8 1232.5 372.5 1231.3 365.8 1228.2 363.2 1229.9 355.9 1238 346 1247.9 330.4 1238.8 409.6 1159.3 414.7 1149.4 424.6 1127.9 430.8 1110.8 453 1109.3 454.7 1109.8 Z" data-holc_grade="C"/>
<path d="M 452.2 426.8 511.1 440.8 520.7 430.2 524.2 428.1 588.4 440.7 606.8 441.4 600.5 453.1 592.5 460.4 590.5 466.1 630.3 467.6 630.3 478.7 617.3 488.8 623.2 566.7 627.4 577.4 600.1 577.1 559.8 574.3 547.3 570.2 552.7 579.3 587.9 609.4 567.1 614.2 541.3 620.2 533.4 622.1 508.3 624.9 461.3 615.1 453.3 615.4 439.1 616.1 430.7 611.9 427.3 606.2 444.9 553.7 326.2 539.8 270.9 535 280.5 480.9 363.6 480.3 368.6 476.5 371.1 470.5 372.8 462.6 376.6 459.1 382 455.9 389.6 456.9 397.5 458.8 403.8 457.5 411.4 422.7 413.9 413.2 419.3 409.7 426.1 409.4 434.9 414.5 452.2 426.8 Z M 529.9 541.8 505.6 537.7 472.4 530.4 463.7 558.5 473.7 561 509.8 563.4 519.2 565.9 542.5 571.9 529.9 541.8 Z" data-holc_grade="C"/>
<path d="M 1789.2 1377.3 1797.9 1378.3 1800.9 1390.8 1809.9 1413.9 1826.1 1445.8 1841 1484.1 1849.2 1505.1 1853.1 1527 1852.8 1558.9 1731.2 1528.6 1743.6 1497.2 1744.4 1487.8 1745 1473 1727.3 1467.4 1721.9 1463.9 1714.6 1456.4 1711.2 1450.7 1708.7 1438.2 1710.9 1424.8 1711.7 1409.2 1713.6 1400.7 1761.1 1414 1766 1399.1 1774 1375.1 1789.2 1377.3 Z" data-holc_grade="C"/>
<path d="M 1720.4 2016.7 1706.7 2003.7 1699.9 2001.2 1690.2 1999.9 1681.5 1997.9 1675.8 1995.4 1673.1 1992.6 1673.1 1987.7 1672.8 1982.4 1670.4 1977.6 1666.7 1973 1660.7 1969 1637.9 1959.9 1589.9 1945.9 1586.2 1945.3 1592.2 1940.2 1601.9 1934.4 1610.5 1929.7 1621.2 1925.4 1622.6 1924.8 1622 1914.3 1620.4 1902.3 1615.6 1891.4 1609.9 1880.2 1607.3 1869.7 1606.2 1857.5 1608.1 1849.6 1611.3 1846.9 1619.1 1848.8 1647 1853.6 1658.8 1856.7 1667.4 1858.7 1677.3 1862.8 1689.9 1867.4 1758.9 1881.6 1758.4 1895 1756.5 1908 1752.9 1922.1 1745.5 1948.2 1737.4 1970.2 1731.2 1991.4 1720.4 2016.7 Z" data-holc_grade="C"/>
<path d="M 2070.2 1626.1 2069.7 1624 2006 1622.1 2005.6 1632.5 1918.9 1629.3 1918.1 1631.7 1916.3 1635.7 1913.2 1640.1 1910 1645.1 1908 1649.1 2003.6 1652.6 2001.4 1682.1 2058.7 1684.8 2043.2 1745.5 1994.7 1744.5 1986 1743 1940.9 1743.8 1916.2 1744.8 1898.2 1742.7 1885.8 1741.5 1862.6 1738.3 1852.5 1738 1849.7 1734.5 1851.5 1727.2 1854.2 1720.1 1855.6 1716.4 1855 1714 1849.9 1713.1 1840.3 1712 1823.2 1711.1 1811.3 1710 1804.8 1708.8 1797.8 1707.7 1798.6 1705.9 1805 1695.6 1811.1 1685.8 1810.9 1681.1 1810.7 1676.9 1812.9 1673.5 1818.9 1665 1823.4 1655.9 1829.2 1647.1 1833.6 1639.8 1845.3 1622.6 1861 1601.5 1866 1592.8 1872.2 1583.5 1876.1 1579.3 1882.7 1573.4 1887.7 1567.6 1889.3 1563.8 1887.1 1557.5 1882.9 1553.1 1881.1 1547.8 1880.9 1539.7 1879.1 1530.2 1877.3 1526.2 1873.6 1519.5 1869.6 1513.4 1867.6 1505.1 1867.8 1501.4 1871.2 1497.5 1877.7 1495 1882.7 1494.3 1888.5 1494.1 1895.8 1496.6 1902.4 1498.8 1907.9 1499.6 1912.5 1499.9 1915.5 1498.7 1918.5 1494.3 1918.5 1491.5 1915.9 1484.6 1914.7 1478.9 1911.5 1470 1907.1 1464.6 1899.4 1460.4 1891.2 1457.2 1886.3 1455.4 1887.1 1402 1971.1 1405.6 2003.7 1404.2 2010.4 1410 2011.4 1419.1 2015.4 1438.9 2015.1 1458.1 2064.4 1462 2066.1 1453.6 2066.8 1450 2082.9 1449 2138.2 1447 2178.8 1447.3 2185.2 1449.3 2185.5 1475.6 2140.3 1473.1 2081.1 1475.5 2081.4 1504.2 2076.9 1539.6 2075.1 1558 2077.3 1580.8 2082.8 1611.6 2083 1626.4 2070.2 1626.1 Z" data-holc_grade="C"/>
<path d="M 2586.8 1182.2 2581.4 1227.9 2575.8 1289.5 2570.3 1327.5 2567.9 1357.9 2570.9 1361.1 2449.2 1362.9 2445.4 1367.9 2430.3 1367 2419.4 1366.4 2361.6 1363.8 2348.6 1362.9 2344.8 1359.1 2334.7 1358.1 2352.3 1303.7 2370.4 1260.3 2377.7 1247.2 2387.6 1229.5 2433.7 1234.6 2468.5 1234.9 2475.2 1182 2478.6 1179.2 2545.6 1179.7 2586.8 1182.2 Z" data-holc_grade="C"/>
<path d="M 2951.6 1323 2913.8 1292 2909.4 1296.3 2902.9 1293.3 2892.3 1289.3 2881.4 1284.8 2873.1 1282.6 2863.6 1279.9 2852 1278.8 2843.8 1279 2829.9 1280 2821.6 1281.5 2813.1 1283.6 2806 1287.4 2796.3 1298.8 2788.4 1307.4 2776.7 1315.8 2775.2 1317.7 2785.6 1324.9 2799.2 1332.1 2808.6 1338.3 2810.9 1339.8 2797.3 1355.2 2788.4 1367.1 2785.6 1370.6 2808.9 1387.6 2836.9 1361.5 2861.6 1380.7 2884.9 1400.5 2909.4 1424.5 2914.2 1428.1 2900.2 1438.3 2901 1446.1 2900.7 1450.5 2898.8 1455.1 2897.2 1458.9 2897.4 1459.8 2904.2 1466.9 2913.9 1474.1 2924.4 1480.5 2935.4 1486.8 2947.3 1493.5 2959.2 1499.3 2970.3 1505.2 2983 1511.6 2994.1 1517.8 2997.8 1519.7 2998 1521.2 2980.3 1537.6 2969.2 1547.5 2959.4 1557.9 2910.3 1531.4 2879.7 1516 2848 1496.7 2814 1473.1 2777.9 1451.8 2771.5 1450.3 2770.4 1428.6 2770.8 1425.4 2774.7 1392.5 2774.7 1375.9 2772.3 1370.4 2763.2 1366.3 2755.9 1364.7 2750.3 1364.5 2745.2 1365.9 2741.6 1369 2736.4 1374.5 2728.6 1381 2722.1 1386.4 2718.1 1387.7 2705.8 1387.7 2686.1 1387.6 2672.2 1387.3 2629.5 1384.1 2603.8 1382.1 2592.9 1381.7 2570.7 1380.9 2570.9 1361.1 2567.9 1357.9 2570.3 1327.5 2575.8 1289.5 2581.4 1227.9 2586.8 1182.2 2631.4 1184.9 2704.4 1188.3 2732.3 1199.6 2744 1205.3 2750.2 1175.5 2766.5 1185.5 2829.9 1221.2 2895.7 1258.1 2899.7 1258.4 2951.6 1288.3 2967.9 1298.2 2951.6 1323 Z" data-holc_grade="C"/>
<path d="M 2570.7 1380.9 2570.2 1387 2566 1389.6 2565.7 1407.5 2563.3 1438.8 2565.7 1446.9 2563.5 1471 2556.3 1552.3 2522.5 1551.9 2520.3 1613 2483.3 1614 2443.6 1614.4 2399.6 1617.4 2376.5 1615.6 2314.9 1618.1 2323 1588.7 2333.5 1565.8 2338.1 1565.9 2341.5 1554.5 2342.5 1548.5 2320 1551.3 2292 1552.3 2292 1556.1 2258 1556.8 2258.2 1570.7 2304.5 1569.9 2292.6 1618.7 2241.9 1620.7 2181.5 1625.7 2180.8 1598.7 2166.3 1598.8 2165.5 1603 2162.1 1603.1 2161 1609.7 2082.8 1611.6 2077.3 1580.8 2075.1 1558 2076.9 1539.6 2081.4 1504.2 2081.1 1475.5 2140.3 1473.1 2185.5 1475.6 2189.8 1480.3 2193.2 1480.7 2306.4 1480.3 2336.1 1479.9 2337.8 1478.9 2338.3 1476.4 2340.1 1473.8 2343.3 1469.4 2345 1467.1 2349.8 1462.8 2353.7 1458.8 2357.4 1455.2 2362.1 1450.7 2366.4 1447.7 2370.8 1443.9 2379.4 1439.3 2390.4 1432.7 2394.8 1430 2395.5 1426.5 2397.3 1419.1 2399.5 1414.2 2403 1408.3 2405.7 1404.7 2409.9 1399 2414.6 1395.2 2418.3 1391 2422.3 1383.5 2425.2 1376.9 2430.3 1367 2445.4 1367.9 2449.2 1362.9 2570.9 1361.1 2570.7 1380.9 Z" data-holc_grade="C"/>
<path d="M 2848.2 1640.7 2828 1630.8 2791.8 1609.5 2761.5 1593.7 2758 1591.7 2751.2 1587.9 2749.2 1587.7 2748.2 1587.7 2747.2 1589 2746.6 1594.9 2743.6 1598.7 2739.4 1603.3 2736.1 1607.4 2735.5 1609 2733.9 1617.7 2734.3 1626.4 2733.6 1634.4 2731.2 1638.8 2727.1 1640.2 2718.5 1639.6 2689.3 1638.5 2662.5 1638.4 2640.8 1637.6 2620.3 1638.1 2596.1 1638.5 2556.6 1639.7 2519.8 1640.5 2520.3 1613 2522.5 1551.9 2556.3 1552.3 2563.5 1471 2589.1 1470 2610.2 1470 2628.5 1469.4 2639.2 1470 2648.4 1470.8 2648.4 1466.2 2647.8 1459.5 2648.4 1455 2650.2 1448.6 2653.7 1444 2659.7 1439.3 2667.6 1436 2678.6 1434.3 2685.3 1433.7 2701.6 1432.8 2723.3 1431 2757.3 1427.9 2770.8 1425.4 2770.4 1428.6 2771.5 1450.3 2777.9 1451.8 2814 1473.1 2848 1496.7 2879.7 1516 2910.3 1531.4 2959.4 1557.9 2969.2 1563.9 2934 1576 2912 1584.5 2896.7 1589.8 2899.2 1606 2905.3 1625.5 2909.1 1640.1 2907.7 1641.9 2886.3 1628.3 2862.9 1612.9 2848.2 1603 2847.9 1604.6 2853 1627.3 2855.1 1632.4 2854.1 1635.6 2848.2 1640.7 Z M 2825.1 1533.7 2805.6 1527.6 2781.8 1517 2766.7 1510.7 2751.3 1508.6 2741.2 1508.1 2739.5 1539.5 2772.7 1540.3 2797.2 1546.6 2823.7 1555.5 2825.1 1533.7 Z" data-holc_grade="C"/>
<path d="M 294.8 1428.6 294 1452 290.3 1462.3 290.9 1468.9 299 1469.1 315.1 1471.7 325.2 1475.4 331.7 1483.1 341.3 1503.1 363.4 1518.1 373.8 1529.2 383 1540.9 391.2 1556.6 391.4 1561.6 407.7 1588.7 411.7 1598.8 417.1 1610.5 422.8 1613.6 433.7 1614.9 442.2 1618.3 453.8 1623.1 463.5 1627.5 470.4 1632.9 482 1639.7 497.8 1644.4 507.8 1646.8 536.3 1655.8 554 1659.3 556.5 1661.9 566.2 1719.2 515.2 1729.7 479.3 1739.4 460.5 1744.8 415.2 1755.7 405 1758.4 400.8 1760.4 399.1 1771.3 396.9 1775.4 392.4 1777.9 369.8 1783.3 335.6 1790.7 304.4 1797.7 294.5 1797.4 284.7 1796.3 270.6 1793.9 257.6 1789.9 245.8 1783.2 240.1 1776.5 235.1 1767.5 232.9 1758.4 231.5 1747.3 232.1 1738.2 234.3 1728.9 237.8 1721 240.7 1708 243.4 1697.7 249.6 1680 254.4 1662 256 1648.6 256 1638.6 253.2 1629 227.4 1598.5 205.3 1578.7 185.1 1563.6 167 1559.8 142.7 1552.5 143.1 1535.5 145.3 1519.4 164 1440.9 192.6 1441.8 204.9 1440.2 220.4 1435.3 253.8 1415.1 269.7 1410.1 283 1407.3 287 1405.8 289.8 1399.9 301.5 1398.5 304.4 1398.7 294.8 1428.6 Z M 223.3 1538.3 236.4 1533.5 238.4 1512.4 244.6 1493.9 250.5 1477.5 201.7 1473.4 191.3 1500.5 184.4 1535.4 197.5 1538.2 206.6 1547 209.8 1547.1 223.3 1538.3 Z" data-holc_grade="C"/>
<path d="M 628.1 1889.9 621.6 1876.5 605.3 1819.7 579.1 1749 644.1 1730.8 649.7 1742.7 747.4 1715 770.7 1762 765.6 1779.5 797 1840.9 628.1 1889.9 Z" data-holc_grade="C"/>
<path d="M 605.3 1819.7 621.6 1876.5 628.1 1889.9 649 1933.3 597.5 1950.1 413.9 1998.4 377.1 2012.8 365.6 2010.1 368.5 1998.6 357.3 1973.6 359.4 1958.6 359.7 1938.5 365 1913.4 388.7 1884 397.5 1870 449.1 1861.3 478.6 1857 518.2 1845.3 595.1 1822.7 605.3 1819.7 Z M 508.5 1886.7 547.8 1875.8 528.6 1847.4 482.3 1862.3 434.7 1870.2 405.5 1898 425.3 1893.8 443.4 1938.1 524.3 1913.3 508.5 1886.7 Z" data-holc_grade="C"/>
<path d="M 1852.9 78.2 1849.7 83.4 1844.3 92 1851.9 131.7 1846.1 132.4 1834 132.6 1822.6 130.1 1811.1 126.8 1806.9 125.4 1803.6 130.8 1797.4 136.8 1791.6 143.4 1786.7 145.3 1785.7 146.7 1801.8 166.3 1851.3 161.1 1852.5 141.8 1893.6 138.6 1896.4 155.8 1897 159.3 1896 167.5 1894.2 177.4 1894 185 1893.8 191.8 1890 194.7 1861.6 198 1845.3 200.6 1828.4 200.2 1814.1 200.6 1804.8 199 1795.3 194.2 1766 171 1760.5 167.5 1766.6 161.6 1780.7 141 1780.7 137.2 1782 132.2 1789.4 122 1794.8 112.7 1791.1 62.1 1785.2 2.8 1788.7 1 1823 1 1830 2 1889.3 1.6 1890.7 4.6 1886.9 13.8 1879.9 28.3 1868.1 40.1 1866.8 41.3 1865.4 52 1865 56.2 1862.4 60.5 1860 63.2 1857.4 70.9 1852.9 78.2 Z" data-holc_grade="C"/>
<path d="M 640.5 2252.6 607.6 2260.8 457 2298.5 444.6 2299.8 454.3 2228 463.7 2167.1 445.6 2096.1 448 2092.1 484.5 2099.9 553 2105.5 583.5 2105.3 592.2 2139.2 610 2170.9 623.1 2217.3 640.5 2252.6 Z" data-holc_grade="C"/>
<path d="M 365.6 2010.1 377.1 2012.8 413.9 1998.4 597.5 1950.1 649 1933.3 674.9 1990.3 690.7 2006 709.5 2050.4 728.9 2083.3 654.4 2079 577.6 2079 524.6 2074.2 467.6 2069.4 401.5 2067.9 381.3 2070.4 361.5 2066.8 373.6 2043.3 374 2038.2 366.2 2025.5 363.9 2017.6 365.6 2010.1 Z" data-holc_grade="C"/>
<path d="M 1083.7 2112.5 1088.2 2125.3 1093.2 2133.3 1093.2 2144.7 1099.7 2154.6 1100.7 2163.3 1100.7 2182.7 1105.8 2198.7 1107.3 2206.1 1097.4 2227.2 1088.6 2226.8 1065.2 2223.9 1058.2 2223.5 981.5 2246.3 976.9 2246.1 974 2242 976.1 2186.4 978 2176.9 979.6 2163.3 980.4 2160.4 987.6 2160.4 999.7 2161.1 1011.3 2159.6 1019.8 2158.6 1028.2 2156.2 1025.5 2152.7 1021.5 2146.6 1017.2 2137.1 1014.7 2131 1011.8 2126.4 1007 2117.2 1001.3 2110.3 996.5 2107.7 991.1 2105.3 983.6 2102.4 976.4 2101.2 971 2101.2 966.2 2101.4 960.8 2100.2 957 2097.6 953.3 2094.5 951.4 2094.5 945.5 2095.7 937.2 2097.4 929.4 2098.2 923 2098.6 917.1 2097.6 910.1 2095.3 891.8 2090.5 884.6 2089 865.5 2085.4 853.2 2082.9 846.7 2080.3 840.8 2076.1 836.5 2070 833.3 2062.9 832.5 2055.8 833.8 2050.1 837.1 2043 841.2 2040.4 895 2025.9 898.1 2022.9 889.5 2005 853.3 1941.9 859.8 1938.8 874.4 1935 893.5 1930.8 916.7 1927.8 921.2 1928.6 931.3 1952.9 948.4 1985.2 962.5 2008.4 969 2017.9 985.1 2017.6 1009.8 2019.8 1022.4 2024 1038 2036.6 1050 2054.8 1055.6 2067 1066.7 2088.7 1083.7 2112.5 Z" data-holc_grade="C"/>
<path d="M 1066.4 1881.9 1073.9 1882.3 1086.5 1886.2 1098.8 1893.5 1112.3 1906 1118.4 1917.4 1124.1 1924.7 1120.8 1929 1114.7 1934.4 1106.6 1938.9 1098.3 1944.6 1089.2 1949.2 1077.4 1952.3 1060.5 1951.9 1049.7 1951.9 1042.7 1953.5 1034.7 1956.7 1026.1 1959 1016.7 1960 1004.9 1959.4 995 1957.8 986.1 1955.1 977.8 1953.1 969.2 1946.8 962.5 1939.7 959.3 1936.9 957 1931.2 957 1926.3 958.3 1921.9 962.5 1919.4 971.8 1915.1 974.8 1912.7 976.3 1910 976.1 1906.7 974.8 1901.4 974.1 1896.8 976.3 1894.8 980.1 1893.1 989.4 1891.5 993.4 1890.5 998.9 1891.5 1002.5 1893.3 1011.3 1894.3 1020.7 1897.8 1031 1901 1037.3 1902.1 1041.4 1901.6 1050.9 1896.1 1058.1 1888.8 1059.8 1885.4 1062.8 1882.4 1066.4 1881.9 Z" data-holc_grade="C"/>
<path d="M 1198.7 2201.2 1189.8 2240.2 1170.7 2228.4 1178.2 2226.9 1176.2 2221.9 1144 2202.9 1137 2208.6 1105.8 2198.7 1100.7 2182.7 1100.7 2163.3 1099.7 2154.6 1093.2 2144.7 1093.2 2133.3 1088.2 2125.3 1083.7 2112.5 1082.6 2109.3 1070 2082.3 1072.6 2070.2 1079.6 2053 1077.6 2048.5 1069.5 2039.3 1057 2032.5 1058 2022.2 1072.6 2000.6 1093.2 1982.3 1122.9 1965.6 1145.5 1955.7 1163.6 1949.2 1255.3 2009.4 1233.5 2047.1 1223.9 2099.4 1214.7 2129.9 1207.5 2152.4 1203.3 2172.6 1198.7 2201.2 Z M 1136.6 2106.8 1138.9 2086.8 1137.3 2073.6 1131.6 2071.8 1115.8 2078.5 1112.6 2085.5 1110.9 2101.8 1122.8 2113.2 1131.5 2113.3 1136.6 2106.8 Z" data-holc_grade="C"/>
<path d="M 1390.8 2214.5 1386.7 2237 1377 2250 1356.8 2279.5 1333.3 2306.7 1326.2 2316.6 1311.1 2316.3 1257 2283.9 1242.8 2272.8 1231 2256 1202.9 2220.2 1198.7 2201.2 1203.3 2172.6 1207.5 2152.4 1214.7 2129.9 1223.9 2099.4 1233.5 2047.1 1255.3 2009.4 1277.2 2026 1274.5 2031.1 1369.6 2090.7 1357.2 2108.6 1342.2 2130.7 1325.8 2151.2 1317.2 2168.3 1367.2 2201.3 1390.8 2214.5 Z M 1295.5 2196 1300.3 2193.3 1303.7 2185.5 1300.5 2174.1 1295.1 2169.4 1286.4 2168.8 1275.9 2177.9 1270.5 2183.8 1269.7 2191.5 1274.3 2195.9 1283.2 2198.8 1295.5 2196 Z" data-holc_grade="C"/>
<path d="M 1486 2002 1465.6 2028.6 1437.5 2068 1434 2082.8 1418.9 2125 1369.6 2090.7 1402.3 2002.9 1416 1966.2 1423 1965.4 1486 2002 Z" data-holc_grade="C"/>
<path d="M 1605 2350.2 1564.7 2335 1583.9 2306.2 1565.8 2297.9 1596.3 2244.9 1583.7 2232.7 1601.4 2215.1 1618.2 2199.2 1629.6 2188 1637.3 2175.3 1642.7 2163.1 1648.8 2152.7 1655 2171.2 1660.4 2186.4 1663.3 2197.5 1663.7 2208.9 1662.1 2227.9 1658.6 2238.4 1654.2 2252.9 1642.1 2274.6 1633.5 2296.7 1605 2350.2 Z" data-holc_grade="C"/>
<path d="M 1681.2 2085.2 1678.5 2089.9 1670.2 2104.9 1664.5 2125.4 1655.7 2140.5 1642.8 2116.6 1632.1 2121.1 1648.8 2152.7 1642.7 2163.1 1599.7 2139 1511.3 2090.5 1523.1 2039.6 1522.5 2023.7 1499 2009.7 1569.1 1944.4 1574.1 1943.1 1586.2 1945.3 1589.9 1945.9 1637.9 1959.9 1660.7 1969 1666.7 1973 1670.4 1977.6 1672.8 1982.4 1673.1 1987.7 1673.1 1992.6 1675.8 1995.4 1681.5 1997.9 1690.2 1999.9 1699.9 2001.2 1706.7 2003.7 1720.4 2016.7 1708 2038 1681.2 2085.2 Z" data-holc_grade="C"/>
<path d="M 1461.9 2418.9 1449.8 2438.2 1430.6 2449.9 1413.5 2460.8 1404.5 2473 1392.1 2490.2 1362.4 2522.4 1347.9 2520.3 1338.3 2504.1 1329.9 2479.8 1379 2429.5 1389.7 2425.9 1396.2 2420.6 1406.1 2400.7 1423 2381.2 1441 2392.4 1495.2 2300.4 1527.7 2318.3 1547.3 2328.5 1500.7 2404.6 1499.1 2410.9 1463.7 2389.9 1449.4 2409.4 1461.9 2418.9 Z" data-holc_grade="C"/>
<path d="M 1760.5 167.5 1766 171 1795.3 194.2 1804.8 199 1814.1 200.6 1828.4 200.2 1845.3 200.6 1861.6 198 1860.2 221.9 1856.9 242.2 1853.7 253.5 1850.3 265.3 1845.9 273 1845.1 276.4 1837 284 1832.2 291.4 1829.6 303.1 1828.8 310.9 1823.1 320.4 1815.9 327.4 1803 335.6 1793.3 339.7 1776.4 344.7 1763.9 347.5 1757.1 349.3 1750.3 348.2 1744.8 346.7 1737 346.9 1741.2 364.8 1743.4 368.4 1738.8 369.3 1713.8 359.8 1674.6 345.6 1669.5 344.3 1666.1 344.3 1661.7 345.2 1657.5 344.1 1659.9 335.8 1663.3 324.4 1665.9 317.1 1667.9 313.1 1671.5 308.9 1674.6 305.4 1706.6 273.7 1689.1 268.3 1693.3 261.7 1711.2 266.2 1713 263.5 1744.6 275.3 1773.6 239.9 1749.2 231.9 1735.6 249.7 1704.6 243.4 1694.3 260.1 1657.3 251.5 1633.2 294.9 1613.3 322.5 1603.4 343 1568.2 332.8 1565.7 330.4 1559.1 326.6 1552.3 323.4 1543.2 320.5 1540.6 319.3 1536.4 316.3 1533.1 312.3 1526.5 306.1 1526.3 305.1 1524.1 303.2 1522.1 302.2 1507.8 298.8 1454 283.3 1415.6 270.6 1412 270.3 1408.3 269.4 1405.9 241.1 1404.1 224.6 1403.3 218.4 1410.3 146.7 1411.4 142.1 1414 139.6 1422.4 136.5 1428 130.3 1430.1 119.6 1433.4 111.7 1446.9 92.7 1456.9 82.2 1496.8 21.2 1501 19 1522.8 29.7 1568.9 50.6 1621.3 69.9 1653.2 81.9 1704.4 99.3 1715 107.9 1742.4 155.1 1755.9 164.5 1760.5 167.5 Z" data-holc_grade="C"/>
<path d="M 1564.7 2335 1605 2350.2 1568.5 2434.2 1524 2435.9 1493.9 2423.1 1499.1 2410.9 1500.7 2404.6 1547.3 2328.5 1564.7 2335 Z" data-holc_grade="C"/>
<path d="M 1664.4 2378.6 1627.3 2359.1 1616.9 2355.5 1638 2312.6 1650.4 2283.9 1656.9 2270.4 1666.7 2249.8 1669 2243.9 1674.7 2226.7 1677.6 2218.8 1678.2 2209.9 1678.8 2199.3 1676.3 2189.4 1671 2171.5 1665.2 2156.6 1655.7 2140.5 1664.5 2125.4 1670.2 2104.9 1678.5 2089.9 1681.2 2085.2 1695.4 2089.8 1709 2094.8 1718.6 2097.5 1726.3 2100.7 1731 2103.6 1736.2 2107.5 1747.5 2117.3 1752.8 2122.8 1757.7 2127.7 1760.2 2132.7 1761.8 2139.3 1762.4 2148 1761.6 2154.6 1759.8 2171.5 1758.6 2185.6 1756.5 2195.3 1753.1 2203 1746.9 2208.2 1741.3 2212.5 1733.5 2215.7 1726 2217.6 1722.1 2218 1720.1 2218.8 1711.8 2218.9 1711.6 2227.5 1711 2241.2 1707.2 2257.4 1705.2 2271.5 1703 2273.4 1700.8 2279.1 1696.5 2294.3 1709.2 2296.3 1715.7 2298.3 1723.6 2299.3 1727.3 2300.5 1728.3 2302.7 1711.8 2318 1708.3 2317.4 1705.3 2317.5 1692 2332.5 1687.8 2331.8 1683.7 2332.6 1670.2 2350 1669.4 2356.5 1667.4 2366 1664.4 2378.6 Z" data-holc_grade="C"/>
<path d="M 2520.3 1613 2519.8 1640.5 2504.2 1640.8 2503.2 1670.4 2501.8 1708 2480 1707.2 2478.4 1731.8 2468.6 1732.6 2470 1755.9 2473.5 1779.2 2479.6 1783.3 2479.9 1802.1 2478.6 1821.6 2476.9 1831 2481.9 1835.3 2488 1840.3 2487.3 1844.4 2485.3 1860.6 2480.2 1861.9 2474.9 1862.4 2464.8 1862.7 2453.4 1861.4 2446.7 1860.1 2442.7 1858.3 2438.6 1855.8 2433.6 1856.3 2428.9 1855 2424.5 1854 2422.9 1851 2422.9 1843.1 2420.2 1839.1 2418.8 1837 2409.1 1838.3 2384.3 1837 2342.7 1836 2341.3 1836.5 2344.7 1853.3 2345 1885.5 2350.1 1919.2 2353.4 1930.1 2351.4 1932.4 2349.1 1933.1 2326.2 1931.6 2312.5 1930.3 2289.3 1929.6 2273.2 1928.1 2278.9 1903.2 2280.3 1878.4 2281.3 1868.5 2281.9 1844.6 2283 1810.5 2284.8 1767.4 2291.6 1731.3 2300.1 1696 2308.7 1653 2314.9 1618.1 2376.5 1615.6 2399.6 1617.4 2443.6 1614.4 2483.3 1614 2520.3 1613 Z M 2292.6 1618.7 2284.6 1671.5 2273.3 1715.6 2267.4 1765 2262.4 1809.7 2257 1869.9 2252.3 1929.2 2250.7 1957.9 2225.6 1956.7 2206.2 1955.8 2205.2 1960.6 2201.3 1966.1 2195.9 1972.4 2175.6 1967.8 2171.1 1978.8 2159.7 1992.1 2150.6 2000.8 2142.4 2007 2090.8 1989.9 2085.4 1996.6 2077.3 1997.8 1990.8 1968.1 1983.1 1964.5 1988.4 1950 1994.4 1934.8 1997.4 1924.6 1997.8 1914.9 2049.6 1918.7 2075.9 1920.9 2083.6 1921.6 2084.2 1918.1 2084.2 1912.3 2087.6 1904.8 2089.4 1897.8 2090.4 1891.3 2095.3 1881.9 2100.7 1868.9 2105.7 1858.5 2105.9 1855.7 2085.6 1855.5 2055.4 1855.5 2029.9 1855.4 2010.4 1857.5 2014.1 1840.7 2013.5 1834 2026.4 1826.3 2028 1808.8 2030.7 1794.6 2037.2 1766.8 2041.4 1752.2 2043.2 1745.5 2058.7 1684.8 2059.2 1683.1 2058.7 1674.6 2057.5 1673.5 2051.2 1672.9 2054.3 1647.2 2054.9 1644 2059.3 1642.8 2070.4 1643.3 2070.2 1626.1 2083 1626.4 2082.8 1611.6 2161 1609.7 2162.1 1603.1 2165.5 1603 2166.3 1598.8 2180.8 1598.7 2181.5 1625.7 2241.9 1620.7 2292.6 1618.7 Z" data-holc_grade="C"/>
<path d="M 2731.4 1996.2 2717.5 1988.2 2714.9 1986.7 2683.3 1970.8 2658.8 1953.8 2651.9 1949 2657.9 1942.9 2660.3 1931.2 2668.8 1907.8 2670 1902.8 2671.2 1895.9 2671.8 1885.7 2671.8 1870.8 2673 1861.1 2669.6 1849.5 2665.3 1843 2664.1 1837.4 2665.9 1832 2683.5 1792.6 2690.5 1796.1 2703.2 1800.9 2712.6 1803.1 2718.5 1806.5 2728.3 1804 2732.6 1802.1 2735.2 1796.9 2736.6 1792 2736 1784.1 2735.8 1776.5 2730.4 1773 2719.2 1767.9 2711.6 1762.4 2718.6 1742.2 2726.4 1717.6 2732.8 1693.7 2735.3 1684.2 2739.3 1679.3 2748.9 1673.8 2755.4 1668.8 2757.5 1658.4 2759.4 1643 2760.8 1625.4 2758 1591.7 2761.5 1593.7 2791.8 1609.5 2828 1630.8 2848.2 1640.7 2876.1 1657.7 2864.6 1679 2858.7 1690.4 2854.7 1697.7 2847.4 1705.4 2838.3 1714.7 2831.1 1724.8 2824.9 1732.5 2820.6 1739.4 2819.2 1744.7 2819.8 1749.4 2820.6 1753.6 2819.2 1759.3 2814.7 1768.2 2811.5 1778.6 2809.8 1789.3 2809.1 1794.9 2810 1800.3 2811.2 1803.6 2813.2 1807.3 2808.9 1811.5 2802.5 1817 2798.9 1821.4 2799.1 1826 2800.3 1829.2 2802.5 1836.3 2801.3 1846.5 2799.3 1847.1 2784.8 1838.9 2767.9 1829.5 2762.6 1825.7 2761.6 1828.4 2756.6 1840 2749.2 1852.6 2745.3 1862.9 2743.1 1868.4 2737.9 1879 2735.5 1886 2730.6 1895.5 2727.4 1904.9 2724.6 1911.3 2720 1917.2 2712.9 1925.1 2707.2 1928.9 2718.9 1938.4 2727.7 1941.2 2738.2 1945.7 2745.7 1948.6 2750.5 1951.7 2751.5 1955.9 2749.5 1961.3 2731.4 1996.2 Z" data-holc_grade="C"/>
<path d="M 2387.2 1966.4 2380.5 2000.7 2371.5 2034 2369.6 2041.4 2371.1 2048.1 2376.3 2069.9 2376.4 2077 2374.4 2081.8 2371.6 2086.1 2370.1 2089.5 2364.5 2101.3 2359.7 2138.4 2351.1 2163.1 2347.3 2177.5 2343.6 2200.1 2338.6 2216.2 2332.7 2228 2322.8 2247.8 2323.8 2253.9 2323.6 2262 2318.2 2272 2306.4 2291.1 2303 2295.6 2299.9 2299.6 2302.6 2302.8 2298.3 2308.3 2293.5 2307.5 2251.3 2290.9 2190.2 2266.9 2226.1 2197.3 2198.7 2186.6 2194.2 2197.1 2174.3 2190.6 2164.4 2185.3 2125.2 2168.3 2119 2168.3 2075.3 2155.3 2090.6 2136.9 2128.4 2096.5 2139.1 2086.7 2153.6 2072.5 2164.1 2061.2 2172.2 2052.3 2180.7 2042.7 2189.3 2032.8 2203.6 2020.2 2212.1 2011.3 2214.3 2006 2217.8 1996.3 2221.5 1986.1 2223.7 1977.2 2224.5 1967.9 2225.6 1956.7 2250.7 1957.9 2247.3 1991.2 2260.2 1992.4 2273.9 1992.8 2287.8 1991.8 2303.4 1990.2 2311.7 1988.8 2317.4 1985.7 2325.1 1982.3 2331.6 1979 2341.8 1975.8 2368.1 1973 2387.2 1966.4 Z M 2249.9 2145.4 2259.8 2111.7 2262.2 2101.6 2261.6 2093.5 2223.9 2093.6 2218.3 2123.5 2197.8 2158.3 2236.6 2173.5 2249.9 2145.4 Z" data-holc_grade="C"/>
<path d="M 2270.1 2458.7 2264.2 2472.5 2253.7 2496.9 2247.4 2513.4 2236.5 2533.4 2204.2 2564.2 2198.3 2566.4 2115.3 2545.5 2111.5 2542.6 2124.9 2515.3 2124.9 2512.2 2125.3 2508 2129.5 2503.6 2135.4 2497.6 2141.3 2492.2 2145.9 2485.2 2147.1 2479.5 2071 2460.8 2072.2 2456.1 2096.1 2405.3 2202.2 2436.8 2270.1 2458.7 Z" data-holc_grade="C"/>
<path d="M 2523.8 2171.3 2488.3 2152.2 2499.6 2139.7 2509.5 2127.3 2515.4 2115.3 2525.9 2091.2 2560.5 2097.3 2572.6 2065.2 2576.9 2042.5 2582.2 2009.8 2595.9 2002.5 2603.7 1987.9 2617.4 1964.2 2623.9 1947 2628.7 1936.1 2651.9 1949 2658.8 1953.8 2650.8 1979.1 2646.6 2001.4 2670.5 2004.6 2701.8 2007.9 2709.5 2003.5 2717.5 1988.2 2731.4 1996.2 2766.7 2016 2762 2023.9 2754 2040.4 2739.3 2058.6 2729.4 2066.2 2723.7 2066.7 2719 2064.7 2717 2059.6 2714.7 2057.2 2711.3 2058 2701.8 2077 2671.3 2151.4 2666 2148 2648 2138.2 2637.8 2131.7 2634.3 2128.9 2626.8 2127.9 2620.1 2128.5 2611.5 2134.6 2606.7 2141.7 2598.9 2155.1 2589.2 2167 2580.1 2183.9 2567.7 2194.8 2523.8 2171.3 Z M 2745 2034.5 2673.3 2027.5 2665.3 2038.9 2697.3 2046.2 2737.3 2049.7 2745 2034.5 Z" data-holc_grade="C"/>
<path d="M 2488.3 2152.2 2523.8 2171.3 2506.2 2173.5 2487.4 2173.9 2457.1 2175.3 2438.9 2175.9 2430 2177.3 2425.4 2178.7 2429.2 2186.7 2436.7 2192.3 2440.2 2192.3 2441.5 2190.7 2444.5 2188.7 2460.1 2191.1 2486.6 2197.6 2484.5 2202.1 2475.4 2209.8 2464.1 2215.1 2448 2217.7 2432.7 2218.3 2412.8 2217.7 2396.5 2217.5 2373.6 2215.3 2355.1 2207.6 2343.6 2200.1 2347.3 2177.5 2351.1 2163.1 2359.7 2138.4 2364.5 2101.3 2370.1 2089.5 2371.2 2091.3 2406.4 2109.9 2438.7 2126 2466.7 2140.4 2488.3 2152.2 Z" data-holc_grade="C"/>
<path d="M 607.6 2260.8 640.5 2252.6 664.4 2236.6 674.9 2224.3 748.7 2208.8 752.5 2230.6 762.1 2255.1 775 2280.1 784.4 2303.8 797 2335.9 753.8 2347 674.6 2366.3 670.1 2363.1 655.9 2332.4 634.7 2337.5 607.5 2277.4 607.6 2260.8 Z" data-holc_grade="C"/>
<path d="M 783 2636.6 761.2 2639.2 732.8 2638.6 708.3 2632.3 690.6 2625.9 738.3 2612.5 761.6 2606.1 780.5 2599.3 787.2 2604.8 787.2 2615.1 782.6 2620.1 783 2636.6 Z M 716.1 2596.9 685.5 2604 675.9 2579.8 717.1 2569.2 720.8 2571.6 716.1 2596.9 Z M 725.4 2535.5 666 2548.7 646.4 2500 645.6 2490.9 736.9 2471 738.8 2473.6 726.7 2513.6 725.4 2535.5 Z M 739.3 2452.1 635.6 2478.5 633 2407.3 750.3 2379.6 739.3 2452.1 Z" data-holc_grade="C"/>
<path d="M 1704.9 624.3 1704.6 626.1 1601.8 635.4 1602.3 620.2 1606.9 598 1613.1 585.6 1614.7 582.4 1562.1 579.7 1559.1 579.1 1558.8 577.9 1561.5 538 1562.3 536 1565 535.4 1619 541.7 1620.3 539.8 1623.3 524.6 1625.7 523.4 1633.2 523.6 1634.8 512.7 1638 497.9 1646.3 498.5 1692.2 493.9 1694.9 516.5 1700.3 548.3 1704.3 574.9 1709.1 597.3 1708.3 607.5 1704.9 624.3 Z" data-holc_grade="C"/>
<path d="M 612.6 2471.8 605.2 2488.7 585.1 2474.6 570 2466.5 552.7 2457.2 542.4 2451.4 531.9 2440.5 526.1 2429.5 602.2 2411 606.8 2413.4 612.6 2471.8 Z M 534.8 2400.1 513.1 2408.2 503.7 2399.8 488.1 2388.9 465.3 2376.9 438.5 2363.9 421.5 2356.4 401.4 2340.2 430.7 2340 472 2331.1 599.5 2297.6 604.6 2302.9 601.1 2345.5 601.9 2383.8 534.8 2400.1 Z" data-holc_grade="C"/>
<path d="M 1251.8 2502.9 1246.9 2515.1 1234.6 2532.6 1220.3 2547.3 1213.4 2554.5 1192.7 2543.3 1159.4 2574.8 1077 2527.5 1057.7 2543.1 1101.2 2570.1 1033.7 2636.3 989 2680.1 935.2 2652.3 994.9 2594.5 1028.2 2562.8 1061.5 2532.6 1090.4 2500.2 1113.2 2472.3 1115.9 2461.7 1120.1 2454.8 1154.1 2426 1173.1 2436.8 1197.5 2455 1214.7 2467.6 1229 2481.2 1251.8 2502.9 Z" data-holc_grade="C"/>
<path d="M 1299.6 2853.4 1215.7 2802.3 1350.3 2637.7 1375.5 2651.9 1422.5 2675.7 1430.4 2684.3 1461 2706.5 1504.6 2730.3 1487 2759.1 1472.8 2773.4 1377.6 2895.2 1310.9 2855.6 1299.6 2853.4 Z M 1211.8 2723.4 1214.5 2721.7 1215.5 2714.7 1211.5 2705.5 1207.8 2701 1207 2696.9 1246.9 2656.4 1288.5 2606.4 1299.5 2611.9 1311.9 2620 1315.3 2629.9 1314.3 2645.7 1272.3 2698.4 1236.1 2739 1211.8 2723.4 Z" data-holc_grade="C"/>
<path d="M 1899.3 2615.3 1931 2619.1 1998.5 2630.5 2016.7 2632.2 2017.1 2636.2 2013 2648.7 2008 2661.6 2004 2670.5 2001.3 2679.1 2002 2682.1 2009 2683.4 2023.1 2685.7 2028.5 2687.7 2033.5 2697.6 2040.9 2715.4 2043.9 2729.3 2042.9 2741.5 2033.5 2767.7 2028.5 2777.8 2015.4 2797.1 2000 2819.7 1985.5 2842.3 1982.5 2851.1 1979.8 2856.7 1973.8 2859.8 1958.7 2867.4 1907.4 2850.4 1850.1 2826.1 1816.4 2811.8 1819.5 2800.6 1809.7 2764.1 1806 2750.1 1865.4 2760.3 1858.4 2783.4 1874.5 2786.7 1896.6 2718.4 1873.1 2713.6 1867.1 2736.2 1821.1 2726.6 1817.8 2723.8 1805.7 2704.7 1802.7 2692.3 1798 2683.2 1789.9 2663.1 1784.9 2646.1 1780.9 2624 1776.9 2604.8 1777.2 2593.9 1780.4 2583.8 1817.8 2590.9 1899.3 2615.3 Z" data-holc_grade="C"/>
<path d="M 1958.7 2867.4 1944 2946.1 1924.7 2933.9 1904.3 2919.1 1883.1 2899.6 1868.8 2885.4 1855.7 2871 1849 2862.7 1845.8 2852.7 1845.5 2839.9 1850.1 2826.1 1907.4 2850.4 1958.7 2867.4 Z" data-holc_grade="C"/>
<path d="M 2471.7 2587.9 2521.2 2610.1 2528.7 2604.6 2528.2 2600.9 2530.6 2595.7 2534.3 2589.8 2543.7 2581.4 2552.3 2574.9 2566.3 2566 2577.8 2562.8 2582.4 2563.6 2571.1 2594.8 2568.2 2626.1 2564.9 2650.5 2560.8 2658.4 2551 2671.3 2546.7 2679.4 2544.3 2686 2540.3 2687.3 2535.9 2686.3 2529.3 2684.1 2522.9 2682 2507.8 2675.9 2499.4 2670.3 2487.8 2661.9 2462.6 2688.8 2454.9 2696.4 2446.9 2698.2 2434.8 2699.5 2426.7 2699.2 2410.6 2720.3 2402.6 2733.5 2385.1 2759.6 2380.5 2770.2 2376.1 2780.4 2363 2802.5 2326.7 2781.8 2314.3 2774.8 2265.7 2747.2 2272.1 2743.4 2274.4 2738.6 2275.8 2732 2291.2 2698.2 2297.2 2689.8 2299.3 2682.5 2296.9 2679.4 2292.2 2676.4 2312.3 2648 2344.5 2610.4 2374.7 2581 2398.7 2549.8 2471.7 2587.9 Z M 2439.3 2629.9 2421.5 2622.5 2370.9 2695.6 2387 2702.9 2439.3 2629.9 Z" data-holc_grade="C"/>
<path d="M 2473.5 3021 2441.5 3088.7 2432.9 3083.8 2383.9 3055.6 2353.2 3037.9 2404.9 2982.3 2473.5 3021 Z" data-holc_grade="C"/>
<path d="M 2791.9 2622.7 2837.6 2649.3 2831.4 2659 2819.9 2671.2 2804.8 2682.1 2801.9 2682.5 2781.5 2667.9 2760 2654.7 2745 2675.8 2736.9 2687.6 2726.2 2712.2 2716 2733.1 2703.4 2754.2 2715.2 2759.9 2727.3 2762.9 2754.9 2768.2 2782.3 2778.4 2783.9 2776.9 2786.6 2773.3 2790.6 2769.6 2794.9 2766.4 2801.9 2764.8 2807.8 2763.5 2812.9 2764.6 2819.9 2766 2820.1 2781.6 2817.4 2789.3 2819.3 2807 2811.5 2817.7 2805.4 2818.6 2794.1 2829.9 2772.9 2858.5 2760 2874.6 2753.8 2887.8 2742.3 2887 2736.6 2893.3 2730.7 2896.1 2727.3 2896.5 2724 2895.3 2723 2892.3 2721.6 2885.8 2719.7 2882.1 2715.2 2877.6 2712 2873.6 2708.2 2871.5 2704.7 2871.3 2700.4 2872.8 2697.9 2875.1 2696.3 2879.2 2693.6 2879.7 2688.5 2878.6 2683.5 2876.6 2678.8 2876.1 2672.8 2876.6 2668.1 2878.4 2663.7 2880.9 2664 2883 2668.1 2886.3 2665.4 2888.8 2660.7 2892.6 2659.4 2896.4 2660 2901 2641.9 2924.6 2640.2 2922.3 2604.3 2903.8 2539.6 2871.3 2537.9 2869 2532.5 2866.5 2529.2 2864.4 2528.5 2859.9 2528.5 2853.3 2530.4 2847.6 2533.4 2843.8 2533.4 2840.7 2529.9 2837.7 2501.7 2816.8 2437.1 2785.3 2451.9 2767.8 2485.5 2739.9 2475 2734.5 2499.7 2711 2503.9 2715.8 2508.5 2716.4 2509.9 2714.2 2524.1 2712.6 2553.3 2711.8 2563.3 2711.4 2571.6 2709.1 2578.6 2705.9 2592.3 2692.1 2601.1 2682.7 2604.1 2682.3 2629.3 2691.1 2634.9 2684.8 2640 2679.7 2645.7 2675.6 2651.8 2672.2 2659.4 2668.9 2668.2 2665.9 2680 2663.5 2682.4 2627.1 2651 2609.5 2658.5 2602.8 2666.6 2592.2 2669.8 2586.9 2679.7 2577 2691 2566.8 2772.9 2610.9 2747.1 2639.5 2745.8 2643.4 2762.4 2652.1 2791.9 2622.7 Z M 2513.6 2723.4 2504.2 2728.7 2513.8 2738.4 2496.1 2763.4 2532.3 2786.7 2551.1 2763.8 2638.9 2824.5 2649.6 2830.4 2654.5 2831.8 2661.4 2831.4 2667.1 2829.4 2673.5 2824.5 2674.9 2819.2 2669.2 2813.3 2658 2810.1 2652.9 2812.7 2648.8 2813.5 2644.5 2812.5 2598.4 2780.2 2597 2775.8 2616.4 2752 2595.2 2741.3 2574.2 2763.6 2513.6 2723.4 Z" data-holc_grade="C"/>
<path d="M 1167.6 2864.2 1141.6 2897.6 1158.4 2906.8 1124.8 2944.6 1084.1 2972.8 1080.9 2975.1 1059.1 2959.6 1046.7 2955.5 1038 2959.3 1013.1 2942.1 1030.9 2925.1 1105.7 2859.1 1129.9 2844.6 1167.6 2864.2 Z" data-holc_grade="C"/>
<path d="M 1606 2706 1648.7 2703.4 1700.1 2706.8 1708.6 2721.3 1715.2 2750.2 1726.2 2777.2 1743.4 2810 1753.9 2840 1757.4 2861.7 1763.5 2885 1767 2916.9 1760.5 2942.8 1756.9 2958.4 1744.8 2958.7 1694.8 2970.5 1679.3 2977.9 1619.2 2979.1 1612.7 2975.3 1608.5 2961.5 1610.7 2953.4 1609.1 2932.2 1575.7 2930.7 1574.1 2928.4 1572.4 2894 1487.7 2874.7 1486.3 2867.7 1504.6 2852.7 1505.4 2850.2 1505.4 2847.1 1503.6 2844.2 1499 2840.6 1490.9 2827.8 1493.3 2808.4 1498 2794.7 1517.3 2780.3 1548.5 2752 1592.6 2782.1 1593.4 2761.1 1590.4 2726.2 1605.1 2722.6 1606 2706 Z" data-holc_grade="C"/>
<path d="M 1614.5 660.5 1614.3 666.5 1613.4 678.7 1613.5 689.8 1613.4 694.7 1617.7 695 1622.9 695.9 1628.8 697.2 1634.2 700.1 1637.1 702.3 1648.5 701.9 1656.6 701.6 1670.9 701.4 1679.2 701.8 1717.2 700.6 1722.7 721.5 1724.5 739.6 1720.9 740 1717.6 738.4 1712 733.4 1705.3 730.1 1699.5 728.4 1691.1 729.1 1686 730.2 1677.3 731.3 1668.4 730.2 1663.1 727.1 1657.7 722.4 1654 722.3 1633.5 725.1 1612.1 730.5 1597 737.6 1573.1 741 1569.1 738.9 1566.9 738.2 1557.5 735.6 1510.2 731.3 1468.1 725 1447.4 719.8 1418.7 713.3 1366.1 704.8 1377.6 671.8 1380.9 669.3 1464.3 677.2 1492 678.9 1585.3 682.9 1585.4 660.6 1606.9 658.9 1614.5 660.5 Z" data-holc_grade="C"/>
<path d="M 2326.7 2781.8 2363 2802.5 2417.3 2827.9 2385.4 2866.2 2362.4 2889.8 2359.9 2892.4 2330.4 2921.5 2318 2935.2 2297.9 2945.7 2281.1 2952.3 2261 2955.6 2246.9 2955.6 2214.7 2938.8 2268.3 2861.6 2290.1 2830.9 2326.7 2781.8 Z M 2265.7 2747.2 2314.3 2774.8 2248.2 2853.9 2193.9 2932.3 2186.3 2946.4 2175.7 2938.8 2147.6 2937.7 2119.9 2921.7 2123.9 2903.4 2133.5 2880.6 2158.6 2835.3 2184.8 2800.2 2213 2746.2 2261.3 2753.4 2265.7 2747.2 Z" data-holc_grade="C"/>
<path d="M 2186.3 2946.4 2255.2 2986.8 2278.1 2998.7 2240.5 3037.9 2230 3052.5 2209.9 3067.8 2170.9 3098.2 2145.3 3127.1 2131 3152.8 2127.2 3176.6 2119.7 3176.9 2111.7 3146.8 2107.1 3133.4 2102.9 3109.6 2100.4 3102 2104.2 3093.1 2107.5 3087.4 2119.3 3067.4 2162.5 3018.3 2097 2982.4 2119.9 2921.7 2147.6 2937.7 2175.7 2938.8 2186.3 2946.4 Z" data-holc_grade="C"/>
<path d="M 2353.2 3037.9 2383.9 3055.6 2343.9 3118 2318.8 3159.3 2289.4 3195.8 2284.8 3198 2261.8 3225.9 2244.4 3217.1 2215 3202.1 2206.4 3197.7 2205.1 3194.8 2153.1 3164.4 2148.1 3163.7 2143.1 3170.4 2137.6 3174.8 2127.2 3176.6 2131 3152.8 2145.3 3127.1 2170.9 3098.2 2209.9 3067.8 2230 3052.5 2240.5 3037.9 2278.1 2998.7 2353.2 3037.9 Z" data-holc_grade="C"/>
<path d="M 2441.5 3088.7 2521.4 3131.8 2507.5 3150.7 2498.5 3160.4 2494.5 3164.7 2487.4 3172.3 2470.2 3186.6 2457.2 3180.2 2434.1 3199.9 2429.1 3192.6 2422.4 3191 2443.8 3120.9 2451.3 3108.2 2428.7 3097.6 2411 3154.9 2343.9 3118 2383.9 3055.6 2432.9 3083.8 2441.5 3088.7 Z" data-holc_grade="C"/>
<path d="M 2331.3 3352.6 2331.4 3355.9 2327.4 3363 2327 3373.4 2325 3376.7 2315.6 3391.7 2322.7 3392.4 2322 3409.2 2297.9 3442.7 2256.7 3422.8 2272 3393.3 2289.9 3372.6 2316.5 3344.1 2331.3 3352.6 Z" data-holc_grade="C"/>
<path d="M 2386.5 3243.2 2383.8 3253.6 2388.6 3261.7 2385.6 3270.5 2369.8 3312.7 2353.7 3304.1 2326.9 3289.7 2339.2 3272.3 2364.7 3242.4 2384.3 3226 2395 3231.9 2395 3236.7 2386.5 3243.2 Z" data-holc_grade="C"/>
<path d="M 2434.1 3199.9 2436.4 3211.9 2432.4 3221.6 2419.6 3232 2407.9 3233 2396.1 3228.2 2389.1 3220.5 2391.1 3208.9 2400.1 3198.7 2413.9 3192.1 2422.4 3191 2429.1 3192.6 2434.1 3199.9 Z" data-holc_grade="C"/>
<path d="M 2753.8 2887.8 2716.3 2945.9 2700.4 2945.8 2687.4 2965.6 2665 2973.5 2663.2 2983.1 2659 3000.7 2654.7 3020.5 2651.5 3036.2 2646.5 3050.2 2603.8 3035.9 2607.6 3019.6 2612.3 3001.7 2616.5 2984.5 2620.5 2973.5 2623.5 2966.9 2628.8 2957.6 2642.3 2935.7 2643.5 2931 2641.9 2924.6 2660 2901 2659.4 2896.4 2660.7 2892.6 2665.4 2888.8 2668.1 2886.3 2664 2883 2663.7 2880.9 2668.1 2878.4 2672.8 2876.6 2678.8 2876.1 2683.5 2876.6 2688.5 2878.6 2693.6 2879.7 2696.3 2879.2 2697.9 2875.1 2700.4 2872.8 2704.7 2871.3 2708.2 2871.5 2712 2873.6 2715.2 2877.6 2719.7 2882.1 2721.6 2885.8 2723 2892.3 2724 2895.3 2727.3 2896.5 2730.7 2896.1 2736.6 2893.3 2742.3 2887 2753.8 2887.8 Z" data-holc_grade="C"/>
<path d="M 2530.7 3196.2 2538.9 3182.6 2543.4 3175.2 2551.1 3161.2 2561.5 3141.9 2565.5 3128 2567.3 3121.6 2573 3117 2584 3111.7 2593.8 3103.8 2601.1 3095.4 2602.8 3081.7 2602.1 3070.1 2600.8 3056.1 2600.8 3045.2 2603.8 3035.9 2646.5 3050.2 2636.8 3080.3 2632.3 3102 2632.3 3114.5 2631 3133.3 2628.3 3142.7 2623.3 3150.5 2618.9 3156.9 2596.4 3198.3 2581.3 3220.1 2572.6 3219.1 2563.9 3221.4 2530.7 3196.2 Z" data-holc_grade="C"/>
<path d="M 842.2 3228.5 826.5 3244.2 814.1 3251.7 808.2 3258.6 802 3274.7 797.2 3289.9 793.2 3294.4 788.3 3290.9 754.8 3282.4 740.8 3271.6 725.3 3267.3 762.6 3204 774.7 3184.1 777.3 3173.1 770 3164.8 766.3 3160.7 772.2 3155.4 787.5 3157.3 808.9 3150.8 842.2 3228.5 Z" data-holc_grade="C"/>
<path d="M 368.4 731.9 367.7 750.3 354.6 780.3 359 786.3 434.1 801.9 428.2 821.7 419.9 832.4 394.1 867.1 359.7 917.2 358.7 922.4 357.5 928.9 347.4 945.2 327.3 963.3 313.6 974.8 296.3 979.7 269.5 987.4 254 990.3 235.3 991.8 218.8 989.9 208.3 986.4 195.3 978 185.2 961.4 165.5 935.6 161.2 924.7 158.6 914.6 150.8 907.4 129.8 910.2 115.1 906.6 90.8 886.8 88.4 880.6 85.5 873 68.2 853.6 53.5 848.4 52.3 846.4 84.5 827.3 89 820.6 80.9 799.9 73.9 788.7 62.2 773.9 54.3 769.5 35 759.7 1 739 27.3 693.9 102.2 696.5 153.5 696.6 188.9 671.7 203.8 664 229 685.5 194.6 707.6 219.1 727.5 236.4 728.1 250.5 732 268.2 739.2 280.7 740.8 301.8 741.3 310.9 736.9 322.4 733.8 340.1 726.1 347.7 724.7 355.8 726.3 368.4 731.9 Z M 270.6 906.1 248.6 857.1 230.9 862.3 250.6 913.5 270.6 906.1 Z" data-holc_grade="C"/>
<path d="M 520.1 3250.3 470.4 3227.2 488.4 3203.8 498.8 3176.2 505.8 3149 509 3140 516 3116.7 517.9 3097.2 529.2 3094.1 555.5 3079.5 566.8 3085.6 579.8 3088.7 596.5 3101.3 597.6 3107.1 594.7 3114.4 588.7 3122.2 578.2 3133.8 567.4 3140.8 554.3 3153.6 553.5 3160.4 560.1 3172.3 557.9 3178.2 550.2 3188 540.6 3208.4 532 3228.7 520.1 3250.3 Z" data-holc_grade="C"/>
<path d="M 975.5 2951.4 985.4 2956.8 976.7 2964.3 949.2 2993.2 936.1 3018.1 930.9 3017.8 927.4 3019 922.3 3027.9 919.8 3032.5 919 3036.3 915.3 3034.3 826.1 2985.1 791 2965.7 800 2949.2 810.8 2935.5 820.2 2922.5 825.3 2916.4 829.1 2905.2 831.2 2902.6 854.3 2886.5 864.5 2878.4 882.5 2861.4 885.7 2862.9 935.2 2889.5 911.7 2915.5 975.5 2951.4 Z" data-holc_grade="C"/>
<path d="M 984 3075.6 936.1 3046.5 942.5 3033.1 941.1 3023.7 936.1 3018.1 949.2 2993.2 976.7 2964.3 985.4 2956.8 1005.9 2939.1 1013.1 2942.1 1038 2959.3 1046.7 2955.5 1059.1 2959.6 1080.9 2975.1 1084.1 2972.8 1119.3 2995 1034.7 3103.6 999.2 3084.8 984 3075.6 Z" data-holc_grade="C"/>
<path d="M 666.5 3337.3 637.3 3381.1 606.1 3365.5 634.8 3319 666.5 3337.3 Z M 611.2 3305 567.6 3369.8 546.1 3360.6 551.2 3350.2 522.3 3332.7 511.9 3342.8 494.8 3353 473.3 3340.3 485.4 3322 489.8 3315.2 489.1 3308.8 468.6 3298.2 418.3 3357.6 532 3421.1 485.4 3481.5 455.5 3523.1 435.6 3551.7 433 3553.9 426.2 3559.7 379.9 3532.7 407.1 3508 421.8 3517.9 463.2 3476.5 290.1 3374.7 295.7 3362.7 301.8 3355.3 309.6 3346.8 318.1 3339.3 330.8 3326.8 342.2 3314.8 349.5 3303.5 352.7 3294.2 355.3 3286.9 360.2 3277.9 364.4 3272 369.6 3268.8 379.9 3265.6 386.3 3263.8 391 3263.9 405.7 3260.1 437.7 3248.7 451.5 3242.8 459.2 3238 465.6 3232.1 470.4 3227.2 520.1 3250.3 531.2 3256.1 611.2 3305 Z" data-holc_grade="C"/>
<path d="M 526.6 3516.3 531.3 3518.1 551.7 3525 561.9 3526.6 588.2 3528 596 3525.2 599.8 3526 591.2 3559.5 585.8 3569.9 579.6 3582.1 569.7 3585.1 550.6 3579.8 544.7 3579.2 539.4 3580.3 534.5 3585.1 516.6 3612.8 445.2 3594.1 442.7 3599.4 437.6 3605.9 421.5 3620.1 415.1 3611.5 397.8 3598.4 375.9 3581.9 362 3578.6 307.5 3545.1 325.7 3530.7 331.1 3521.3 336.2 3512 378.3 3534.5 379.9 3532.7 426.2 3559.7 433 3553.9 438.7 3557.5 450.5 3558.5 455.4 3560.7 461.8 3561.6 487.8 3526 505.9 3505.3 526.6 3516.3 Z" data-holc_grade="C"/>
<path d="M 352.6 3674.1 338.2 3692.1 288.7 3753.3 279.6 3761 255.3 3782.7 280.2 3796.8 362.4 3699.8 394.4 3715.8 354.7 3764.5 384.9 3777.4 397.6 3784 408.1 3788.1 416.1 3792.7 419.7 3798.6 420.3 3809 414.7 3825.4 405.8 3841.9 386.4 3870.4 167 3749.8 173.4 3742.6 178.4 3728.7 214 3684.2 232.5 3661.9 283.1 3688.3 314.3 3654.2 352.6 3674.1 Z" data-holc_grade="C"/>
<path d="M 514.9 743 514 745.4 486.4 759.8 456.6 780.2 447.5 787.9 439.1 802.9 434.1 801.9 359 786.3 354.6 780.3 367.7 750.3 368.4 731.9 381 736.3 398.2 736.4 420.5 731.9 450.5 734.3 479.7 739 514.9 743 Z" data-holc_grade="C"/>
<path d="M 641.6 896.9 642.4 993 586.4 980.2 587.8 968 543.7 956.5 546.9 950.3 547.2 949.7 552.5 939.2 585.2 899.3 586.4 899.6 628.2 907.1 629.8 893.3 641.6 896.9 Z" data-holc_grade="C"/>
</g>
<g id="D">
<path d="M 553 1028.6 541 1044.7 538 1055.1 537 1062.2 542.4 1076.9 516.2 1087 523.9 1110.7 501.6 1115.9 486 1117 475.8 1115.3 467 1111.5 459.7 1111.5 454.7 1109.8 453 1109.3 468.1 1083.3 493.8 1060.6 509.9 1023.5 539.5 1025.6 553 1028.6 Z" data-holc_grade="D"/>
<path d="M 1410.7 2545.9 1445.9 2496.8 1459.3 2505 1470.7 2510.1 1500 2512.3 1513.9 2510.1 1534.8 2510.1 1541.5 2510.4 1573 2547.8 1605.3 2602.4 1625 2629 1581.4 2641.4 1577.2 2639.5 1561.7 2606.5 1536.1 2602.7 1527.7 2618.3 1524.2 2618.7 1494.9 2611.6 1485.8 2605.9 1478 2599 1476.1 2593 1477.2 2581.2 1479.1 2568.4 1481.2 2556 1481.8 2551.8 1479.9 2548.5 1478.8 2547.9 1474.8 2548.3 1453.3 2551.6 1431.3 2548.3 1410.7 2545.9 Z" data-holc_grade="D"/>
<path d="M 2405.2 2538.2 2398.7 2549.8 2374.7 2581 2344.5 2610.4 2312.3 2648 2292.2 2676.4 2265.6 2662.6 2357.2 2519.1 2405.2 2538.2 Z" data-holc_grade="D"/>
<path d="M 2492.7 2980.5 2484.9 2997 2423 2962.9 2445.8 2938.4 2460.5 2924 2509.4 2950 2492.7 2980.5 Z" data-holc_grade="D"/>
<path d="M 551 2785.7 536.9 2763.2 521.8 2742.3 521.6 2730.3 523.6 2722.2 535.3 2714.6 551.1 2708.7 564.8 2705.4 585 2702.4 600.7 2702.4 615.5 2705.2 625.6 2709.2 631.6 2714.8 635.6 2720.4 636.3 2727 637 2735.6 639.7 2744 640.3 2750.9 650.1 2757.4 658.4 2760 674.5 2762.3 695.3 2751.4 705.7 2742 715.5 2729.8 720.2 2719.1 723.5 2706.4 738 2708.5 789 2722.9 828.9 2739.2 853.4 2750.9 835.6 2813.3 821.2 2884.6 814.1 2895.2 768.8 2930.5 734.6 2908.2 770.5 2873.7 746.3 2862.5 745.7 2858.2 770.5 2834.1 781.9 2829 786.6 2822.7 752.4 2805.2 747.7 2807.4 725.5 2831 706.4 2844.7 693.3 2854.4 680.6 2860 669.5 2860.5 659.1 2870.4 657.4 2872.9 647 2857.4 635.6 2842.5 623.6 2828.8 602.8 2811.2 574.9 2793.2 551 2785.7 Z" data-holc_grade="D"/>
<path d="M 1299.6 2853.4 1254 2902.1 1241 2919.8 1220.4 2944.6 1201.6 2959.2 1177.7 2976.3 1124.8 2944.6 1158.4 2906.8 1141.6 2897.6 1167.6 2864.2 1215.7 2802.3 1299.6 2853.4 Z" data-holc_grade="D"/>
<path d="M 2445.8 2938.4 2423 2962.9 2404.9 2982.3 2353.2 3037.9 2278.1 2998.7 2255.2 2986.8 2301.6 2976 2303.8 2973.8 2296 2961.4 2318 2935.2 2330.4 2921.5 2359.9 2892.4 2362.4 2889.8 2402.5 2914.7 2445.8 2938.4 Z" data-holc_grade="D"/>
<path d="M 2331.3 3352.6 2316.5 3344.1 2293.4 3330.8 2305.9 3315.3 2338.8 3332.3 2331.3 3352.6 Z M 2353.7 3304.1 2343.6 3325.1 2311.8 3309.7 2316.6 3303.6 2306.6 3296.4 2317.7 3284.9 2326.9 3289.7 2353.7 3304.1 Z" data-holc_grade="D"/>
<path d="M 2297.9 3442.7 2322 3409.2 2322.7 3392.4 2326 3386.6 2347.8 3384.6 2346.2 3407.2 2339.1 3418.6 2320.3 3452.6 2297.9 3442.7 Z" data-holc_grade="D"/>
<path d="M 757.8 3027.2 764.8 3053.1 778.3 3082.3 795 3124.7 795.9 3130.5 793 3130.2 788.9 3129 774.5 3124.8 766.1 3117.5 773.1 3100.4 725.6 3069.9 733.4 3057.3 738.2 3037.8 743.6 3030.3 721.6 3016.7 739 2997.4 742 3001.5 750.6 3013.1 757.8 3027.2 Z" data-holc_grade="D"/>
<path d="M 551.4 2798.8 566.7 2804.1 581.6 2813.1 594.9 2825 607.5 2836.5 622.8 2858 639.8 2880.1 656.5 2896.4 683.6 2913.9 676.2 2919.5 671.2 2922.6 654.6 2923.9 648 2922.6 635.9 2910.1 620.8 2893.8 613.2 2888.5 568.7 2870.7 553.2 2896.7 531.7 2879.6 540.3 2863 545.5 2840.7 550 2805 551.4 2798.8 Z" data-holc_grade="D"/>
<path d="M 1887.1 927.4 1888.5 922.7 1903.5 920.4 1909.8 919.9 1916.7 917.7 1920.4 914.7 1922.3 910 1920.7 904 1917.1 896.3 1913.2 889.1 1907.8 875.9 1907 868.2 1906.5 854.3 1906.2 851.7 1903.5 848.3 1901 844.9 1901 842.5 1903.6 832.5 1910 819.6 1914.5 810.5 1922.1 808.2 1928.6 804.4 1938 800.1 1947.2 796.8 1951.4 795.9 1955.7 795.6 1959.3 796 1963.4 797.8 1970.3 801.5 1975.9 806 1980.4 812.9 1983.5 816.9 1987.5 818.6 1989.3 820.5 1990.7 826.6 1991.7 829.3 1993.3 829.3 1995.7 828.4 1999.2 827.7 2001.4 828.3 2002.2 830 2002.4 832.1 2003 833.6 2005 834.5 2005.2 836 2004.2 838.2 2001.2 842.4 2001.6 844.5 2003.8 845.6 2008.4 845 2010.6 845.8 2013.1 847.9 2019.5 848.5 2026.5 846.4 2032.8 844.2 2037.8 843.2 2042.8 844.7 2047.3 847 2052.9 847.6 2057.9 847.7 2064.6 847.7 2073 846.7 2080.7 843.9 2091.2 840 2102.4 834.8 2109.1 835 2114.7 837.9 2115.5 841.3 2115.9 845.6 2118.1 845 2121.8 843.5 2127.8 844.2 2133 846.8 2136.2 848.8 2136.9 855.3 2135.8 888.3 2134.6 905.8 2135 929.6 2136.9 933.7 2140.7 941.3 2145.7 946.3 2132.8 982.1 2128.4 983.6 2119.9 982.8 2102.4 978.7 2070.8 969 2003.4 951.8 1988.1 951.4 1955.3 946 1934.3 940.9 1911 935.9 1896.1 932.1 1887.1 927.4 Z" data-holc_grade="D"/>
<path d="M 884.3 3072.4 853.1 3024.2 826.1 2985.1 915.3 3034.3 910.8 3046 900.7 3059.4 884.3 3072.4 Z M 795 3124.7 778.3 3082.3 764.8 3053.1 757.8 3027.2 760.8 2995.2 773.9 2958.9 814.5 3017 824.5 3034.8 844 3078.7 795 3124.7 Z" data-holc_grade="D"/>
<path d="M 919 3036.3 936.1 3046.5 984 3075.6 842.2 3228.5 808.9 3150.8 862 3098.6 886.4 3076.2 884.3 3072.4 900.7 3059.4 910.8 3046 915.3 3034.3 919 3036.3 Z" data-holc_grade="D"/>
<path d="M 2256.7 3422.8 2222.2 3407.3 2253.1 3368.8 2272.9 3349.5 2293.4 3330.8 2316.5 3344.1 2289.9 3372.6 2272 3393.3 2256.7 3422.8 Z M 2215 3202.1 2172.8 3241.2 2201.7 3258.3 2244.4 3217.1 2261.8 3225.9 2284.8 3198 2289.4 3195.8 2327.2 3217.7 2328.4 3220.9 2345.4 3229.6 2297.5 3289.4 2296.5 3295.8 2289.3 3301.3 2286.3 3303.1 2241.3 3348.3 2220.9 3370.2 2211.5 3384.4 2210.5 3383.7 2193.1 3329.7 2189.8 3314.6 2187.5 3309.5 2187.1 3304.4 2184 3295.5 2178.8 3283.4 2176.6 3272.5 2169.6 3255.1 2164.5 3242.9 2150 3239.3 2130.3 3237.9 2131.7 3259.1 2145.4 3258.8 2166.3 3315.4 2133.1 3313.5 2095.9 3356.1 2031.3 3328.2 2029.1 3326.2 2028.5 3309.5 2028.3 3301.7 2029.5 3297.6 2031.9 3292.7 2040.3 3284.4 2044.8 3276.7 2048.6 3270.2 2051.4 3266.4 2051.6 3260.3 2052 3257.1 2049.6 3253 2047.2 3251.1 2039.3 3244.7 2034.7 3237.9 2029.3 3230.6 2025 3226.5 2022.8 3223 2024.4 3219.5 2027.7 3217.2 2035.3 3216.6 2037.5 3217.2 2040.1 3216.1 2044.2 3213.5 2049.8 3211.5 2054.4 3212.3 2057.6 3215 2060.5 3218.1 2064.1 3217.9 2068.9 3215 2079.6 3210.3 2089.3 3203.8 2095.3 3198.7 2103.3 3192.3 2113 3187 2121.5 3182.9 2120.1 3179.7 2119.7 3176.9 2127.2 3176.6 2137.6 3174.8 2143.1 3170.4 2148.1 3163.7 2153.1 3164.4 2205.1 3194.8 2206.4 3197.7 2215 3202.1 Z" data-holc_grade="D"/>
<path d="M 379.9 3532.7 378.3 3534.5 336.2 3512 329.2 3507.9 318.9 3502.4 300.6 3495.4 287.5 3489.6 278.6 3482.7 273.2 3479.1 266.8 3475.1 264.6 3469.8 265.2 3464.9 266.6 3456.8 270 3448.9 273.8 3435.9 278 3425.3 279.7 3414.9 282.1 3404.4 284.3 3390.2 287.1 3381.3 290.1 3374.7 463.2 3476.5 421.8 3517.9 407.1 3508 379.9 3532.7 Z" data-holc_grade="D"/>
<path d="M 697.5 3355.2 661.9 3409.1 662.2 3413.2 689.6 3428 701.6 3432.5 713.7 3440.2 720.2 3443.7 721.8 3447.1 679.6 3497.3 670.2 3500.9 653.6 3486.3 627 3476.6 611.7 3494.9 603.4 3498.1 600.4 3495.1 596.7 3481.6 597.8 3460.9 597.5 3448.9 597 3439 574.4 3460.3 544.2 3498.8 526.6 3516.3 505.9 3505.3 606.1 3365.5 637.3 3381.1 666.5 3337.3 697.5 3355.2 Z M 494.8 3353 511.9 3342.8 522.3 3332.7 551.2 3350.2 546.1 3360.6 567.6 3369.8 564.9 3379.4 549.8 3397.1 540.4 3404 514.9 3372.7 494.8 3353 Z" data-holc_grade="D"/>
<path d="M 397.8 3598.4 352.6 3674.1 314.3 3654.2 283.1 3688.3 232.5 3661.9 251.2 3624 265 3599.6 288.5 3572.7 292.5 3561 307.5 3545.1 362 3578.6 375.9 3581.9 397.8 3598.4 Z" data-holc_grade="D"/>
<path d="M 523.9 1110.7 530.6 1131.1 516 1141.6 486.8 1152.6 486.4 1157.7 483.6 1161.2 482.8 1164.9 474.9 1169.1 434.1 1211.7 426 1226.5 424.1 1244.1 406.3 1244.8 408.2 1232.5 410.7 1216.6 421.6 1191.2 427.2 1165.2 454.7 1109.8 459.7 1111.5 467 1111.5 475.8 1115.3 486 1117 501.6 1115.9 523.9 1110.7 Z" data-holc_grade="D"/>
<path d="M 1664.4 2378.6 1686.3 2390.2 1680.7 2394.2 1672.4 2399.7 1667.3 2407 1664 2419.2 1661.1 2430.8 1667.3 2435 1661.6 2447.2 1672.4 2447.6 1680.9 2449.8 1695.2 2453.7 1704.3 2457.5 1710.5 2460.8 1713.2 2466.5 1712.9 2478.4 1709.9 2499.1 1708.1 2508.7 1704.3 2521.3 1703.2 2527.8 1704.3 2535.7 1705.1 2547 1703 2552.7 1703.5 2560 1706.1 2565.7 1708.1 2568.6 1708.9 2575.4 1711.3 2586.8 1713.2 2600.5 1714.4 2606 1720.6 2615.4 1730.1 2625.8 1739.3 2634.3 1744.8 2640.4 1747.2 2645.6 1746.6 2655.3 1746 2666 1741.9 2665.7 1734.9 2665.8 1721.8 2668.1 1705.1 2671.6 1663.4 2679.2 1659.2 2674.4 1646.5 2655.5 1635 2642.4 1625 2629 1605.3 2602.4 1573 2547.8 1541.5 2510.4 1534.8 2510.1 1513.9 2510.1 1500 2512.3 1470.7 2510.1 1459.3 2505 1445.9 2496.8 1410.7 2545.9 1392.6 2543.3 1376 2534.6 1362.4 2522.4 1392.1 2490.2 1404.5 2473 1413.5 2460.8 1430.6 2449.9 1449.8 2438.2 1461.9 2418.9 1489.7 2441.5 1500.1 2446.1 1522.9 2445.3 1531 2442 1541.7 2443 1583 2447.9 1598.1 2453.4 1605.4 2469.7 1622.9 2508.2 1634 2522.7 1635.6 2529.3 1648.7 2527.3 1633.6 2481.1 1623.6 2457.2 1614.9 2438.3 1608.2 2428.7 1606.9 2405.6 1612.2 2385.3 1627.3 2359.1 1664.4 2378.6 Z" data-holc_grade="D"/>
<path d="M 1583.7 2232.7 1596.3 2244.9 1565.8 2297.9 1583.9 2306.2 1564.7 2335 1547.3 2328.5 1527.7 2318.3 1495.2 2300.4 1478.5 2291 1509.7 2236 1502.9 2231.7 1515.9 2205.1 1515.8 2200.4 1577.9 2238.5 1583.7 2232.7 Z" data-holc_grade="D"/>
<path d="M 2539.8 2346.1 2537.2 2369.8 2533.7 2383.6 2523.2 2398.8 2509.2 2412.6 2487.5 2430.9 2470.3 2445.3 2457.4 2454.6 2447.5 2461.5 2435.7 2478.8 2430.1 2485.3 2389.8 2473.3 2400.8 2457.3 2397.6 2455.4 2406.7 2444.7 2408.6 2445.9 2410.5 2443.5 2418.8 2446.3 2423.6 2437.8 2388.5 2421.3 2403 2403.1 2425.5 2372.8 2436.2 2353.4 2415.3 2335.3 2303 2295.6 2306.4 2291.1 2318.2 2272 2323.6 2262 2323.8 2253.9 2322.8 2247.8 2332.7 2228 2338.6 2216.2 2343.6 2200.1 2355.1 2207.6 2373.6 2215.3 2396.5 2217.5 2412.8 2217.7 2432.7 2218.3 2448 2217.7 2464.1 2215.1 2475.4 2209.8 2484.5 2202.1 2486.6 2197.6 2500.3 2204.9 2492.8 2213.2 2484.2 2219.7 2471.1 2223.9 2455.5 2228.6 2453.1 2272.2 2515.9 2213.3 2547.9 2230.4 2470.1 2304.9 2539.8 2346.1 Z" data-holc_grade="D"/>
<path d="M 938.1 2318 925.9 2360 899.3 2444 835.7 2512.2 883.8 2538.2 819 2567.7 775.3 2583.5 751.4 2595.1 745.8 2597.5 741.7 2593.4 742.8 2569.1 746.6 2552.8 749.3 2531.9 751.9 2516.7 752.5 2501.3 756 2487.9 759.9 2471.7 762.4 2453.1 764.4 2442.4 769 2425.3 776 2417.3 784.1 2407.4 790.6 2391.8 791.6 2374.3 791.6 2361 798.2 2352.6 938.1 2318 Z" data-holc_grade="D"/>
<path d="M 883.8 2538.2 835.7 2512.2 899.3 2444 925.9 2360 938.1 2318 1025.8 2296.3 1057.5 2283.5 1070.9 2278.4 1083.3 2278.7 1090.1 2281.1 1100.8 2287.2 1149.3 2316.7 1217 2351.5 1220.2 2355.7 1159 2386.7 1116.4 2406.9 1154.1 2426 1120.1 2454.8 1115.9 2461.7 1113.2 2472.3 1090.4 2500.2 1061.5 2532.6 1028.2 2562.8 994.9 2594.5 935.2 2652.3 905.2 2633.2 908.7 2626.3 883.2 2612 856.1 2598.3 848.7 2590.6 855.4 2582.9 863.4 2576.9 871.7 2574.7 883.4 2576.9 898.2 2563.3 906 2553.6 930.7 2539.1 955.2 2526.9 979.5 2515.5 994.6 2508.2 1011.9 2498.1 1025.8 2487.2 1028.6 2483.7 1028 2479.6 1029.2 2475.2 1031.8 2471.8 1032.9 2465.4 1029.8 2463.3 1028.6 2459.6 1029 2455.1 1016.5 2450.7 1029.2 2419.9 1034.3 2404.2 1033.7 2398 1031 2395.4 1027.2 2393.6 993.6 2392.1 975.7 2419.5 962.4 2447.2 958.2 2455.8 947.5 2472 973.9 2483.4 959 2497.2 953.1 2500 949.9 2507.6 941.1 2509.6 914.1 2524.3 883.8 2538.2 Z" data-holc_grade="D"/>
</g>
</svg>