<?xml version="1.0"?>
<svg xmlns="http://www.w3.org/2000/svg" version="1.2" baseProfile="tiny" width="2000" height="2581" viewBox="0 0 2000 2581" stroke-linecap="round" stroke-linejoin="round">
<g id="holc_ad_data">
<path d="M 336.4 177.3 350.8 182.1 362.2 186.4 370.2 194.2 374.6 204.1 380 221.1 380.6 234.2 378 248.6 376.6 257.5 372.9 266.9 348.8 262.6 326.6 262 321.9 253.7 320.9 248.1 321.3 244.1 309.2 199.8 336.4 177.3 Z" data-holc_grade="A"/>
<path d="M 1586.8 1333.7 1591.3 1310.8 1592 1307.2 1662.1 1305.2 1672.2 1303.3 1671.1 1319.8 1672 1368.6 1670.9 1370.2 1665.2 1370.4 1664.1 1371.1 1661 1383.4 1630.1 1382.8 1628.5 1376.4 1623.4 1369.3 1616.3 1360.8 1607.5 1351.1 1599.4 1342.7 1591.6 1335.9 1586.8 1333.7 Z" data-holc_grade="A"/>
<path d="M 418.4 385.2 415.6 378 411.7 326.1 420.4 319.4 420.4 312 423.3 312 429.3 306.6 436.3 304.7 445 304.2 453.7 302.2 461.7 302.4 467.3 306.1 468.7 309.1 468.9 329 470.5 335.8 469.1 346.1 472.7 359.7 484.3 380 482.8 382.9 418.4 385.2 Z" data-holc_grade="A"/>
<path d="M 378.3 409.7 392.2 406.5 397.1 404.1 430.9 402.2 450.7 400.3 484.8 406.3 504.2 410.9 512 413.6 519.5 446.1 475.2 434.7 461.8 462.3 429.9 460.6 438.9 490.8 433.7 493.9 426 476.2 420.5 464.9 409.9 444.9 404.4 436.8 378.3 409.7 Z" data-holc_grade="A"/>
<path d="M 1667.5 629.6 1673.5 634 1675.1 635.6 1676.3 636.8 1665.8 641.6 1642.7 650.7 1625.7 658.8 1609.8 662.4 1607.6 661.9 1604.8 658.8 1601 655.7 1596.5 653.3 1591.4 651.5 1584.9 647.8 1582.1 645.1 1578.5 641.8 1576.3 637.8 1571.5 634.9 1568.8 632.1 1563.1 630.3 1558.8 628.3 1558.3 625.4 1560.1 625.1 1579.2 624.8 1603 622.4 1605.7 626.7 1608 627.6 1659.9 615 1670.6 615 1673.6 616 1678.6 616.7 1679.9 617.9 1677 619.8 1671 623.5 1666.1 627 1665.2 627.9 1667.5 629.6 Z" data-holc_grade="A"/>
<path d="M 335.2 439.3 346.5 458.2 348.1 464.3 350.4 471.9 348.8 481.6 343.5 495.5 320 492.8 300.6 489.7 280.6 488.1 265.7 491.1 254.3 491 245.8 488.1 248.5 483.2 249.9 479.3 251.5 473.9 250.7 469.6 250.7 464.6 254.3 459.7 250.7 449.3 253.7 445.7 253.2 438 256.3 435.5 257 431.4 259.5 429 276.8 431.7 311.6 435.9 323.2 437.7 335.2 439.3 Z" data-holc_grade="A"/>
<path d="M 293 535.4 345.4 553.4 343.1 559.5 335 569.2 333.8 573.4 334.1 583 303.4 578.3 295.1 607.3 285.7 636.8 239.4 615.1 240.1 611.6 263 578.2 280.2 555.1 285.7 547.9 289.6 534.7 293 535.4 Z" data-holc_grade="A"/>
<path d="M 198.5 747.2 189.2 766 159.3 796.4 147.1 789 120.9 776.8 103.3 765.9 123.6 739.7 170.4 665.3 201.4 680 186.2 713.5 190.2 723.4 195.8 729.3 203 735.6 198.5 747.2 Z" data-holc_grade="A"/>
<path d="M 1222.6 650.6 1210.7 648.1 1194.5 643.6 1178.2 638.7 1161.2 632.9 1150.9 630 1145.3 627.2 1141.4 622.5 1137.8 616.4 1139.2 613.1 1149.4 597.3 1163.5 602.6 1169.6 591.4 1179.6 593.6 1185.7 593.2 1190 598.8 1210.7 629.2 1222.6 650.6 Z" data-holc_grade="A"/>
<path d="M 1922.8 1480.6 1913.3 1478.7 1880.9 1460.6 1873.6 1461 1865.2 1461.4 1859.1 1462.5 1848.4 1466.3 1841.7 1466.5 1837.8 1463.9 1834.2 1459.5 1830.8 1457.4 1826.9 1454.4 1821.9 1452.1 1815.7 1451.7 1820.5 1443.2 1826.6 1430.4 1830.6 1427 1836.7 1421.9 1838.4 1415.6 1837.5 1410.5 1837.3 1403.7 1835.9 1397.4 1833.9 1391.9 1845.6 1381.6 1854.9 1373.3 1861.3 1368.5 1865.8 1365.9 1868.3 1362.3 1870 1356.6 1893.4 1372 1930.5 1398.6 1963.8 1414.2 1922.8 1480.6 Z" data-holc_grade="A"/>
<path d="M 442.2 517.5 425.2 514.5 415.1 510 414.7 509.8 400.1 475 397.3 466.8 397.2 466.3 391.6 449.2 386 437.9 381.5 432.6 372.8 424.4 361.1 413.7 378.3 409.7 404.4 436.8 409.9 444.9 420.5 464.9 426 476.2 433.7 493.9 427.2 501 435.1 505.1 446.7 507.7 442.2 517.5 Z" data-holc_grade="B"/>
<path d="M 316.6 670.9 319 677.6 296.6 683 298.4 689.3 287.5 740.6 274 741.7 210.8 746.9 230.9 727.6 276.8 678.5 282.6 674 290.6 659.1 316.6 670.9 Z" data-holc_grade="B"/>
<path d="M 1276.3 540.5 1273.2 546.5 1269 555.1 1267.2 561.8 1267.2 563.4 1268.9 565.7 1270.7 568 1270.9 569.7 1271.2 578.9 1271.8 584.1 1275.4 592.9 1277.9 597.7 1280.4 602.8 1281.4 606.8 1280.2 609.9 1277.7 611.9 1273.1 613.4 1268.9 613.7 1258.9 615.2 1258 618.4 1256.7 622.7 1256.4 627.6 1256.8 631.9 1258.2 637.1 1259.8 639.9 1256.4 642.3 1251.6 645.4 1243.4 648 1237.4 650.1 1231.9 650.7 1229.8 650.6 1222.6 650.6 1210.7 629.2 1190 598.8 1185.7 593.2 1179.6 593.6 1169.6 591.4 1163.5 602.6 1149.4 597.3 1162.1 577.6 1186.1 588.2 1190 585.1 1193.8 583.1 1199 582.2 1204.2 583.1 1204.8 581.5 1193.6 563.7 1217 553.6 1210.7 536.8 1208.9 533.3 1213.3 530.8 1216.5 525.9 1220.8 522.1 1230.1 517.2 1239.3 515.3 1244.7 514 1249.7 512.2 1253.8 508.4 1261.9 499 1268.5 491.1 1278 484.8 1281.6 482.4 1285.2 481.4 1289.5 481.3 1291.8 484.5 1293.5 488.9 1293.7 492.5 1294.3 498.8 1293.8 503.9 1291.7 510.6 1290.6 513.5 1289.6 518.1 1289.6 521.1 1288.7 523.7 1285.7 530.7 1279.6 537.7 1276.3 540.5 Z" data-holc_grade="B"/>
<path d="M 1208.9 533.3 1210.7 536.8 1209.4 537.2 1203.4 538.7 1198.8 540.9 1179 549.3 1176.9 550.8 1173.8 551 1170.2 549.7 1166.3 542.2 1162.5 536.8 1147.9 541.9 1148.8 544.3 1151.1 548.9 1153.7 555.7 1155.7 558 1159.6 563.6 1155.9 568 1154 573.6 1162.1 577.6 1149.4 597.3 1139.2 613.1 1137.8 616.4 1136.3 620.2 1129.3 633.3 1127 634.5 1119.3 635.5 1106.7 636.1 1097.6 637.1 1093.8 637.1 1092.7 639.5 1089.5 643.1 1086 645.7 1079.2 643.2 1065.7 638.8 1055.8 636.4 1042.8 632.2 1038.8 632.9 1033.9 636.8 1027.1 639.3 1023.1 639.4 1022.9 635 1023.7 627.7 1025.1 622.7 1028.8 613 1028.6 608.8 1031.4 596.5 1032.6 593.4 1040.1 591.9 1043.7 581.2 1048.5 567.6 1051.9 558.1 1057.1 545.7 1060.7 536.4 1064.2 529.2 1110.6 542.8 1119.3 523.9 1126.6 505.2 1130.1 503.7 1133.3 503.3 1135.8 501.3 1138.6 497.6 1141.3 489.1 1145 492.4 1147.2 493.5 1149.6 493.2 1164.1 488.1 1174.6 485.2 1184.7 483.4 1190.2 483.6 1196.3 485.7 1204.5 490 1208.4 493.2 1211 497.3 1211.4 500.1 1209.3 502.9 1203.5 504.6 1201 505.7 1197.1 510.6 1197.8 515.1 1208.9 533.3 Z" data-holc_grade="B"/>
<path d="M 230.9 832 228.2 835.4 230.6 836.9 226.8 841.3 280.3 842.7 280.9 854.7 284.4 864.6 305.5 904.4 284.2 909.7 259.9 917.3 205.4 930.2 221.9 898.5 184.4 891.8 142 878.7 130.8 873.2 159.3 796.4 189.2 766 233.3 790.5 249.6 775.3 274 741.7 287.5 740.6 283.3 752 276.7 766.3 273.3 773 220.5 825.9 230.9 832 Z" data-holc_grade="B"/>
<path d="M 424.2 786.8 430 796.5 438.3 816 440.1 830.7 447.4 854.5 449.9 863.8 454.7 877.6 454.2 880.7 449.9 882.2 442.2 881.9 434.5 879.9 422.7 874.2 417.5 870 396.8 858 388.7 852.8 345.8 884.5 333.4 891.3 305.5 904.4 284.4 864.6 280.9 854.7 280.3 842.7 289.4 843.3 293.7 831 283 829.5 284.3 817.7 289.6 807.9 316.8 779.5 317.9 785.6 326.1 797.9 337.7 811.2 369 776.1 379.8 761 388.2 758.3 402.9 755.2 402.6 757.1 412.9 787.9 424.2 786.8 Z" data-holc_grade="B"/>
<path d="M 1188 879.4 1187.1 896.5 1170.2 898.7 1168.9 930.8 1177.3 932.7 1174 942.7 1142.3 933.8 1145.6 923.5 1149.4 910.5 1149.9 905.9 1131.5 900.2 1115.2 895.8 1091.9 889.4 1080.3 886 1072.3 883.6 1083.2 861.5 1100.7 826.9 1123.5 832.5 1160.8 842.4 1188.5 849.7 1188 879.4 Z" data-holc_grade="B"/>
<path d="M 1335.7 936.1 1313.9 937.1 1258 934.7 1257.5 970.3 1260.7 971.5 1266.2 973.6 1271.3 976.4 1274.2 980 1276.4 986 1277.2 989.7 1278.9 994.4 1278.9 996.2 1276.9 999.1 1274.9 999.9 1271.8 999.7 1268.2 999.2 1263.8 997.7 1258.9 996.1 1255.1 996.2 1251.7 996.7 1247.4 998.3 1245.1 1001 1245 1003.4 1246.3 1009 1249 1013 1251.4 1017.5 1252.6 1020.1 1253.8 1026.5 1254 1031.9 1255.2 1035.4 1258 1038.3 1259.5 1042.5 1258.4 1045 1235.1 1039.2 1235.3 1018 1232.7 1003.4 1227.3 989.4 1217.3 963.9 1206.6 942.6 1200.5 927.2 1198.5 918.9 1192.7 918.2 1195.3 905.1 1187.1 896.5 1188 879.4 1191.7 879.6 1194.2 880.9 1204.9 882.8 1211.3 884 1219.7 884.7 1223.1 883.3 1228.8 879.6 1235.5 877.8 1243.9 876.1 1252.8 876.1 1260 874.8 1261.4 874.2 1272.5 876.3 1284.5 878 1294.8 879.9 1301.5 881.8 1307.4 884.4 1312 885.7 1311.5 889.9 1312.7 895.6 1317.4 905.3 1319.2 911.3 1321.1 918.4 1324.2 926.8 1325.8 929.1 1327.2 930.7 1330.3 931.6 1332 931.6 1335.7 936.1 Z" data-holc_grade="B"/>
<path d="M 1198.5 1138.4 1202.4 1147.7 1206.3 1157.6 1205.5 1163.3 1202.7 1165.6 1199 1166.4 1193.4 1167.5 1188.7 1169.2 1187 1172.6 1185.9 1177.9 1184.2 1179.5 1182 1179.8 1146.5 1166.2 1097.9 1155.7 1124.1 1076.5 1068.5 1060.5 1121.1 1010.8 1154.1 1019.1 1235.1 1039.2 1258.4 1045 1255.1 1048.9 1250.6 1052.8 1248.1 1055.7 1243.9 1061.9 1240.6 1067.6 1230.1 1081.7 1222.3 1093.1 1219.4 1098 1215.5 1103.9 1212.5 1110 1208.5 1115.6 1207 1117.9 1207.2 1120.7 1207.3 1123.8 1203.3 1130.3 1199 1137.2 1198.5 1138.4 Z M 1201.9 1070.5 1195.7 1066.2 1185.8 1064.9 1188.9 1089.5 1200.8 1089.6 1201.9 1070.5 Z" data-holc_grade="B"/>
<path d="M 1584.9 831.5 1580.1 840.2 1568 869.1 1556.3 905.4 1548.2 907.1 1507.4 906.7 1467.6 905.2 1456.2 905.6 1450 905 1446 904.3 1445.2 902.2 1443.7 893.4 1444.4 886.8 1445.4 880.6 1448.5 849.2 1448.9 842 1452.8 840.8 1455.9 839.3 1461.3 836.9 1466 834.5 1470.7 830.9 1473.9 827.7 1475.6 826.9 1481.4 826.8 1501 825.2 1515.6 826 1519 828.3 1532 827.8 1575.2 827.8 1578.4 830.6 1584.9 831.5 Z" data-holc_grade="B"/>
<path d="M 1967.4 882 1967.8 883.7 1966.8 886.4 1965.7 890.1 1967.6 891.8 1981 900 1983.1 901.3 1983.3 902.8 1980.1 905.6 1978.9 907.1 1978.6 909.5 1977.8 911.2 1975.3 913.5 1970 919.2 1968.5 921.3 1969.6 922 1973.5 923.3 1974.3 924.1 1974.2 926.3 1972.4 929.2 1970 931.6 1964.8 936.9 1960.3 941.2 1956.2 944.6 1952.4 947.6 1942.5 952.1 1939.3 949.7 1922.9 933.7 1907.4 920.5 1891 907.7 1872.3 925.1 1856.8 913.8 1858.7 911.4 1864.6 903.5 1873.6 893.3 1872.1 892.2 1865.8 888.1 1856.8 883.3 1849.8 878.5 1850.8 877.2 1858.7 871.6 1863.9 865.9 1870.4 858.3 1875.1 855.8 1880.8 854.4 1886.3 853.4 1895.6 852.7 1901 852.6 1908.8 853.3 1915.1 855.1 1920.6 856.6 1927.9 859.6 1935 862.2 1939.3 864.3 1942.2 861.4 1967.4 882 Z" data-holc_grade="B"/>
<path d="M 519.5 446.1 528.5 466.8 580.6 476.7 581.5 484 590 494.1 593.8 500.3 597 506.8 596.7 512.5 588.2 511.3 574.6 507.3 533 502.9 524.5 530.2 481.8 526.7 480 523 476.9 518.7 470.2 514 459 507.9 461.9 495.8 438.9 490.8 429.9 460.6 461.8 462.3 475.2 434.7 519.5 446.1 Z" data-holc_grade="B"/>
<path d="M 396.9 1215 345.7 1230.1 332 1203.2 326.6 1193.5 320.5 1187.9 372.3 1174.1 375.4 1175.2 396.9 1215 Z" data-holc_grade="B"/>
<path d="M 340.4 987.2 364.4 988.9 380.6 991.8 396 999.7 417.5 1017.4 427.3 1028.6 430.7 1035.1 396.8 1045.3 401.3 1063.2 396.6 1073.3 391 1080.7 386.8 1082.8 379.2 1084.1 371.7 1078.6 365 1064 361.3 1048.6 351.3 1046.1 338.4 1022.9 331.4 1004.9 328.9 993.8 333.2 988.9 340.4 987.2 Z" data-holc_grade="B"/>
<path d="M 345.7 1230.1 319.3 1237.9 299.6 1240.8 265.3 1246.6 262.3 1246.2 264.8 1238.7 263.3 1225 257.4 1217.4 252.6 1212.8 239.5 1205.9 242.8 1203.8 318.2 1185.9 320.5 1187.9 326.6 1193.5 332 1203.2 345.7 1230.1 Z M 332.6 1230.4 340.6 1227.8 335.1 1218 318.6 1220.1 290.7 1229.7 294.3 1238.5 332.6 1230.4 Z" data-holc_grade="B"/>
<path d="M 946 1416.5 929.8 1461.9 927.2 1476.2 911.5 1467.4 878.2 1445.4 883.9 1434 894.8 1420.4 904.9 1405.6 913.1 1393.7 946 1416.5 Z" data-holc_grade="B"/>
<path d="M 934.9 1335.2 913.1 1393.7 849.7 1354 851.5 1350.5 869 1317.5 934.9 1335.2 Z" data-holc_grade="B"/>
<path d="M 999.3 1339.7 1015 1349 1015.4 1359.6 1007.5 1393.5 1066.4 1425.9 1049.1 1441.5 1046.2 1440.4 1027.1 1460.3 1010 1451.6 1010.5 1466.8 1010.6 1469.9 1001.9 1487.6 1006.5 1490.5 985.7 1527.2 951 1507.5 924.5 1491.2 927.2 1476.2 929.8 1461.9 946 1416.5 956 1388.4 992.1 1410.6 1001.3 1367.4 977.1 1352.3 990.7 1334.6 999.3 1339.7 Z" data-holc_grade="B"/>
<path d="M 1055.8 1488.3 1051.9 1492.1 1010.5 1466.8 1010 1451.6 1027.1 1460.3 1046.2 1440.4 1049.1 1441.5 1066.4 1425.9 1095.1 1442 1091.5 1450.1 1086.4 1458.5 1078.8 1466 1067.6 1476.6 1055.8 1488.3 Z" data-holc_grade="B"/>
<path d="M 985.7 1527.2 996.8 1533.5 960.7 1594.7 948.7 1587.3 937.4 1600.3 930.8 1613.5 926.5 1617 919.3 1619.5 886.6 1653 884.5 1647.9 884.6 1640.2 885.8 1631.9 885.3 1629.1 878.5 1624.1 876.5 1622.3 876.4 1617.9 878.4 1613 885.4 1602.6 898.1 1585.8 905.8 1575.5 922.8 1552.9 951 1507.5 985.7 1527.2 Z" data-holc_grade="B"/>
<path d="M 1767.6 1299.2 1752.2 1290.6 1749 1297.9 1744.2 1297.3 1712.3 1299.1 1684.6 1300.9 1672.2 1303.3 1662.1 1305.2 1673.1 1270.9 1681.9 1242.8 1684.2 1235.4 1683.8 1227.5 1684.5 1210.2 1667.5 1208.7 1667.5 1220 1663.6 1222.6 1658.4 1226.8 1654.4 1223.4 1651 1220.6 1652.2 1214.3 1653.1 1201.3 1652.8 1188.8 1648.8 1186.1 1646.4 1170.5 1645.5 1155 1652 1154.5 1653.1 1138.1 1667.7 1138.6 1668.6 1113.5 1756.8 1111.2 1836.6 1112.5 1832.4 1115.9 1825.9 1119.5 1823.2 1122.7 1821.6 1129.1 1817.3 1145 1812.1 1161.4 1807.5 1174.9 1799.6 1171.3 1796.9 1170.1 1793.1 1170.4 1790.1 1171.8 1787.5 1175.8 1781.3 1185.7 1779 1188.2 1779 1189.2 1788.7 1195 1777 1221.3 1775.8 1224.8 1776.6 1228.6 1779.5 1232.9 1781.7 1240.6 1780.9 1247.1 1780.9 1257.1 1780.5 1263.9 1779.7 1268.4 1778.9 1271.8 1773.3 1287.4 1771.7 1295.2 1767.6 1299.2 Z" data-holc_grade="B"/>
<path d="M 1820.6 1330.7 1832.7 1307.4 1834.1 1303.8 1833.4 1301.1 1830.2 1298.9 1825.2 1297 1818.2 1294.1 1812.3 1292.1 1804.5 1285.9 1808.3 1283.3 1813 1278.1 1816.1 1274.1 1818 1269.8 1820.2 1263.6 1823.4 1257.3 1825 1252.6 1828.5 1245.5 1829.9 1241.9 1832.5 1235 1837.5 1226.6 1840.8 1218.9 1841.5 1217 1845 1219.6 1856.2 1225.9 1865.9 1231.3 1867.2 1230.9 1868 1224.1 1866.6 1219.4 1865.8 1217.2 1865.6 1214.2 1868 1211.3 1872.3 1207.6 1875.2 1204.8 1873.8 1202.3 1873 1200.1 1872.5 1196.6 1872.9 1192.8 1874 1185.6 1876.2 1178.8 1879.2 1172.8 1880.1 1169 1879.6 1166.2 1879.2 1163.1 1880.1 1159.6 1883 1155 1887.1 1149.8 1891.9 1143.1 1898 1136.9 1902.8 1131.7 1905.5 1126.9 1909.4 1119.3 1917.1 1105.1 1928 1114.4 1973.5 1136 1999 1150.8 1995.8 1157.3 1990.8 1161.8 1986.9 1164.2 1982.2 1166.6 1975.9 1169.7 1965.5 1172.2 1956.7 1174.4 1949.8 1176.3 1946.5 1179.3 1942.4 1185.9 1939.4 1190.8 1938.9 1194.5 1936.3 1203.6 1935.4 1209 1934.3 1216.1 1933.8 1220.7 1933.4 1224.7 1931.6 1236.2 1929.8 1245.9 1929.1 1255 1929.8 1258.7 1930 1263.8 1928.9 1267.2 1927.1 1269.9 1922.9 1270.7 1916.6 1267.8 1911.9 1265 1908.1 1263.4 1905.7 1263.8 1903.9 1265.3 1904.3 1267 1905.7 1269.2 1909.2 1271.4 1895.6 1286.1 1898.5 1288.6 1906.6 1293 1910.8 1296.6 1914.2 1300.1 1916.2 1304.8 1919.5 1310.7 1921.1 1314.3 1913.7 1318.7 1906.3 1321.6 1901.6 1326 1896.7 1326.5 1889.8 1322.4 1882.4 1317.7 1867.9 1312.1 1863 1309.7 1860.9 1309.4 1858.7 1310.1 1858.5 1312.1 1859.2 1316.3 1858.3 1321.1 1856 1326.1 1850.4 1332.5 1844.2 1343.9 1820.6 1330.7 Z" data-holc_grade="B"/>
<path d="M 1264.2 104.1 1262.3 92.7 1235 94.9 1234.5 88.1 1229.5 61.7 1233.1 55.9 1235.2 52.4 1262.9 50.2 1273.3 49.1 1281.4 48.3 1284.7 50.5 1286.1 59.6 1287.7 63.5 1290.7 73.8 1295 84.7 1295.7 92.2 1297.1 100.2 1294.7 101.5 1264.2 104.1 Z" data-holc_grade="B"/>
<path d="M 1383.4 1436.7 1351.5 1471.9 1327 1460.7 1309.1 1454.9 1287.2 1448 1280.3 1445.8 1260.1 1439.6 1252.4 1435.7 1239 1428.6 1232 1424.3 1228.9 1420.9 1223.9 1414.5 1228.5 1404.9 1230.8 1399.3 1235.7 1389.5 1240.7 1382.3 1242.2 1379.3 1244.2 1374.7 1248.3 1367.6 1252.8 1358.9 1255.4 1350.7 1255.9 1346.2 1255.4 1340.5 1254.9 1334.9 1254.4 1331.9 1252.9 1328.4 1249.5 1323.1 1248.7 1318.2 1246.3 1310.9 1244.9 1304.4 1244.5 1298 1246.1 1290.1 1245.8 1282.9 1245.3 1277.5 1243.8 1270.9 1331.5 1283 1329.5 1289.8 1325.5 1299.9 1322 1309.5 1327.1 1312 1384.8 1331.7 1390.1 1330.9 1393.8 1326.5 1428.1 1337.9 1433.6 1333.8 1439.6 1328 1447.3 1319.1 1450.2 1311.8 1463.8 1314.8 1467.4 1310.6 1470 1307 1470.6 1303.8 1483.6 1304.4 1482.8 1311.8 1482.3 1318 1480.9 1324 1478.4 1330.7 1476 1337.2 1474.6 1340.7 1468.9 1346.7 1459.4 1355.1 1453.7 1361.7 1448 1368.1 1442.6 1374 1435.6 1381.6 1426 1391 1418.8 1397.5 1393.6 1424.4 1383.4 1436.7 Z M 1414.7 1396.2 1430.4 1375.4 1391.2 1361.6 1316.9 1331.5 1295.4 1363 1316.6 1369.9 1401.3 1406.3 1414.7 1396.2 Z" data-holc_grade="B"/>
<path d="M 1380.5 1640.3 1376 1657.2 1279.9 1623 1284.4 1604.6 1245 1591 1278.6 1556.8 1292.9 1536.3 1297.4 1532.2 1313.4 1538.8 1354 1550.5 1362.9 1555.4 1412.1 1571.9 1397.3 1603.3 1381.4 1637.2 1380.5 1640.3 Z M 1246.4 1501.4 1251.3 1489.6 1253.6 1482.9 1253.6 1478.9 1253.8 1474.6 1255.7 1470.4 1259 1466.2 1263.8 1462 1270.9 1454.5 1275.2 1451.9 1281 1449.9 1287.2 1448 1309.1 1454.9 1327 1460.7 1351.5 1471.9 1432.9 1501.9 1418.4 1524.2 1407.2 1542.6 1394.9 1543.6 1388 1543.1 1350.4 1533.3 1310.2 1520.8 1266.6 1506.6 1246.4 1501.4 Z" data-holc_grade="B"/>
<path d="M 1500.7 1527.1 1485.6 1553.6 1482.2 1557.1 1478 1558 1471 1557.1 1466.6 1556.7 1461.2 1557.4 1454.5 1558.4 1452 1561.4 1446.2 1572.4 1441.7 1580.6 1499.5 1599 1505.7 1606.8 1511.8 1616.5 1514.4 1627.5 1513.2 1638.9 1468 1624.3 1397.3 1603.3 1412.1 1571.9 1421.6 1552.9 1435.5 1545.1 1460 1511.1 1500.7 1527.1 Z" data-holc_grade="B"/>
<path d="M 1414.7 1396.2 1401.3 1406.3 1316.6 1369.9 1295.4 1363 1316.9 1331.5 1391.2 1361.6 1430.4 1375.4 1414.7 1396.2 Z" data-holc_grade="B"/>
<path d="M 1462.6 1464.6 1457.4 1476.5 1447 1473.5 1444 1481.9 1432.9 1501.9 1351.5 1471.9 1383.4 1436.7 1412.5 1445.4 1416.7 1445.4 1442.8 1456.7 1449.4 1460.3 1462.6 1464.6 Z" data-holc_grade="B"/>
<path d="M 1245 1591 1235 1587.7 1233.2 1590 1179.3 1570.2 1184.4 1547.6 1184.7 1529.8 1184.4 1505.9 1198.1 1506.1 1213.7 1507.7 1218.7 1510.2 1231.4 1513.2 1240.5 1515.6 1246.2 1515.7 1261.3 1518.3 1277.5 1524.2 1297.4 1532.2 1292.9 1536.3 1278.6 1556.8 1245 1591 Z M 1246.4 1501.4 1236.8 1499.2 1222.5 1495 1213.3 1492.2 1202.3 1491 1184.9 1491.1 1185.1 1488.8 1185.8 1482.5 1188.1 1478 1193.5 1470.6 1200.6 1462.8 1206.4 1455.3 1213.2 1442.2 1221 1426.1 1223.9 1414.5 1228.9 1420.9 1232 1424.3 1239 1428.6 1252.4 1435.7 1260.1 1439.6 1280.3 1445.8 1287.2 1448 1281 1449.9 1275.2 1451.9 1270.9 1454.5 1263.8 1462 1259 1466.2 1255.7 1470.4 1253.8 1474.6 1253.6 1478.9 1253.6 1482.9 1251.3 1489.6 1246.4 1501.4 Z" data-holc_grade="B"/>
<path d="M 1332.2 1753.4 1287.2 1745.8 1290.9 1721.5 1283.3 1720 1288 1683 1288.9 1675.7 1264.9 1664.9 1266.3 1660.8 1279.9 1623 1376 1657.2 1356.3 1704.4 1349.8 1702.9 1335.3 1740.1 1332.2 1753.4 Z" data-holc_grade="B"/>
<path d="M 1851.6 1562.5 1851 1598.2 1821.5 1620.8 1780.9 1597.8 1797.5 1554.9 1792.1 1552.7 1784.3 1548.3 1779.6 1543.4 1778.5 1538.3 1778.9 1531.4 1779.3 1525 1781.6 1526.1 1847 1560.9 1851.6 1562.5 Z" data-holc_grade="B"/>
<path d="M 1749 1297.9 1744.7 1309.4 1735.6 1325.2 1730.4 1334.9 1721.3 1339.8 1717.7 1361.5 1714.8 1376.7 1706.8 1398 1683.7 1394 1676.7 1410.1 1672.8 1418 1666.2 1426.3 1658.6 1434.7 1644.3 1426.8 1625.6 1417.2 1604 1406.4 1580.6 1394.1 1579.9 1392.9 1580.9 1390.6 1582.7 1387.7 1584.1 1384.5 1584 1379.8 1580.5 1365.3 1579.6 1360.8 1580.8 1355.9 1586.8 1333.7 1591.6 1335.9 1599.4 1342.7 1607.5 1351.1 1616.3 1360.8 1623.4 1369.3 1628.5 1376.4 1630.1 1382.8 1661 1383.4 1664.1 1371.1 1665.2 1370.4 1670.9 1370.2 1672 1368.6 1671.1 1319.8 1672.2 1303.3 1684.6 1300.9 1712.3 1299.1 1744.2 1297.3 1749 1297.9 Z" data-holc_grade="B"/>
<path d="M 1922.8 1480.6 1898.7 1518 1897.5 1519.8 1868.3 1559.9 1863 1563.5 1854.9 1563.7 1851.6 1562.5 1847 1560.9 1781.6 1526.1 1779.3 1525 1778.9 1531.4 1778.5 1538.3 1779.6 1543.4 1784.3 1548.3 1792.1 1552.7 1797.5 1554.9 1780.9 1597.8 1778.2 1604.3 1772.6 1608.8 1767.5 1610.5 1765 1614.6 1764.8 1620.2 1761.7 1624.7 1758.6 1628.6 1735.1 1678.2 1695.1 1659 1674.7 1687.5 1649.9 1674.8 1648.8 1669 1647.2 1664.8 1645 1661.9 1639.8 1661.2 1632.9 1660.7 1626 1659.2 1619.8 1656.6 1623.6 1652.3 1631.5 1640.8 1638.1 1636.2 1646.7 1630 1658.1 1620.4 1672.6 1608.2 1681.9 1599 1688.9 1588.9 1691.2 1579.7 1693 1563.8 1709.8 1567.1 1711.8 1533.1 1737.1 1509.4 1746.5 1514.7 1749.2 1510.8 1754.3 1499.6 1745.6 1494.4 1780.6 1434.1 1800.9 1384.5 1807.3 1371.9 1809.5 1371.3 1811.1 1373 1812.4 1376.3 1815.6 1377.7 1819.4 1377.3 1825.9 1372.3 1835.7 1360.1 1841.1 1349.2 1844.2 1343.9 1870 1356.6 1868.3 1362.3 1865.8 1365.9 1861.3 1368.5 1854.9 1373.3 1845.6 1381.6 1833.9 1391.9 1835.9 1397.4 1837.3 1403.7 1837.5 1410.5 1838.4 1415.6 1836.7 1421.9 1830.6 1427 1826.6 1430.4 1820.5 1443.2 1815.7 1451.7 1821.9 1452.1 1826.9 1454.4 1830.8 1457.4 1834.2 1459.5 1837.8 1463.9 1841.7 1466.5 1848.4 1466.3 1859.1 1462.5 1865.2 1461.4 1873.6 1461 1880.9 1460.6 1913.3 1478.7 1922.8 1480.6 Z" data-holc_grade="B"/>
<path d="M 1149.6 493.2 1148.4 481.2 1144.8 467.2 1119.4 468 1116.1 445.6 1112.3 431.1 1107.6 432.1 1097.8 433.1 1097.5 437.8 1095.3 439.5 1088.3 440.7 1079.7 441.2 1076.3 440.5 1071.3 439.5 1056.9 440.6 1056.6 427.9 1057.2 425.1 1058.4 424 1060.3 423.4 1063.9 423.3 1067.8 423.8 1136.3 417.6 1136.6 416.4 1167.6 413.9 1169.1 414.4 1168.2 428 1169.7 428.4 1184.6 427 1190.8 426.7 1192.8 426.9 1197 434.3 1198.4 438.3 1200.2 445.5 1200.4 447.5 1220.8 443.4 1236 440.1 1232.4 431.5 1231.8 429 1232.4 427.8 1244.3 425.7 1257.1 424.1 1280.7 419.2 1294.5 415.2 1297 414.7 1299.6 416.3 1299.7 420.8 1299.4 422.2 1296.9 424.4 1295.6 432.7 1296.1 437.4 1296.6 451.1 1297.8 456.8 1300.4 459.8 1303.7 475.9 1304.4 480.2 1297.8 482.9 1291.8 484.5 1289.5 481.3 1285.2 481.4 1281.6 482.4 1278 484.8 1268.5 491.1 1261.9 499 1253.8 508.4 1249.7 512.2 1244.7 514 1239.3 515.3 1230.1 517.2 1220.8 522.1 1216.5 525.9 1213.3 530.8 1208.9 533.3 1197.8 515.1 1197.1 510.6 1201 505.7 1203.5 504.6 1209.3 502.9 1211.4 500.1 1211 497.3 1208.4 493.2 1204.5 490 1196.3 485.7 1190.2 483.6 1184.7 483.4 1174.6 485.2 1164.1 488.1 1149.6 493.2 Z" data-holc_grade="B"/>
<path d="M 1868.3 1559.9 1897.5 1519.8 1955.1 1549.8 1925.2 1594.2 1868.3 1559.9 Z" data-holc_grade="B"/>
<path d="M 1891.4 1765.9 1861 1748.2 1879.3 1729.5 1904.1 1743 1896.7 1758 1891.4 1765.9 Z M 1848.3 1740.3 1793.7 1711 1808 1695.9 1809.3 1696 1826.7 1705 1842.5 1712 1844.5 1710.3 1864 1720.8 1857.3 1730.7 1848.3 1740.3 Z" data-holc_grade="B"/>
<path d="M 859.1 1737.4 831.3 1770.7 804.7 1797.6 805.3 1800.4 807.7 1803.4 810.4 1809.6 809.8 1814.2 807.9 1815.3 805.1 1817 795.8 1824.6 784.6 1829.5 776.9 1832.6 771.5 1838.6 768.7 1849.4 760.7 1869.2 754.6 1881.5 746.6 1892.7 734.7 1886 705.8 1869.6 684 1858.3 658.6 1845.2 670.1 1828.5 673.7 1818.4 676.9 1806.8 682.7 1797.7 689 1789.6 709 1771.4 689.2 1757.3 734.2 1713.2 705.2 1695.2 718.1 1684.8 773 1716.3 795.2 1695.3 809 1702.7 805.8 1709.1 772.8 1744.8 718.3 1797.9 711.6 1804 710.2 1809.5 728 1818.8 788.2 1761.6 835.3 1709.8 813.6 1698 823.1 1688.1 831.3 1676.5 834.6 1668.4 841 1655.5 845 1650.5 892.7 1677.7 892.9 1681.6 884.7 1699.5 881.1 1707.8 871.8 1721.7 859.1 1737.4 Z" data-holc_grade="B"/>
<path d="M 1279.9 1623 1266.3 1660.8 1246.7 1655.1 1255.9 1631 1260.7 1624.3 1241.7 1618.7 1230.1 1645 1225.8 1645.9 1194.3 1636.4 1189.3 1647.9 1198.1 1651.7 1234.4 1664.3 1264.4 1670.7 1288 1683 1283.3 1720 1270.6 1720.6 1266.1 1743.3 1211.8 1727.1 1186.9 1722.3 1174.9 1720 1175.6 1714 1172.9 1712 1167.1 1703.7 1160.6 1692.7 1157.3 1684.8 1156.1 1676.2 1155.7 1666 1157 1657.7 1159.8 1650 1164.8 1642.4 1165.5 1639.6 1164.8 1633.7 1167.1 1618.3 1172.8 1600.5 1174.9 1591.1 1179.3 1570.2 1233.2 1590 1235 1587.7 1245 1591 1284.4 1604.6 1279.9 1623 Z" data-holc_grade="B"/>
<path d="M 1674.7 1687.5 1647.6 1725 1599 1699.7 1603.2 1691.9 1608.2 1683 1619.8 1656.6 1626 1659.2 1632.9 1660.7 1639.8 1661.2 1645 1661.9 1647.2 1664.8 1648.8 1669 1649.9 1674.8 1674.7 1687.5 Z" data-holc_grade="B"/>
<path d="M 1686 1789.1 1673.1 1809.2 1672.1 1810.7 1669.1 1810.3 1666.3 1807.1 1649.8 1822.7 1656.8 1826.3 1634.4 1844.9 1624.5 1856.6 1619 1863.1 1586.8 1846.5 1589.9 1839.5 1601.5 1822 1606.9 1813.3 1617.6 1799.2 1623 1799.4 1631 1798.5 1636.4 1797.4 1641.5 1792.3 1658.3 1774.4 1666 1779.9 1671.6 1783.7 1681.7 1787.7 1686 1789.1 Z" data-holc_grade="B"/>
<path d="M 1735.6 2023.6 1733.6 2029.8 1733.6 2037 1734.5 2046.4 1735 2054.1 1733.8 2063.3 1728.9 2068.9 1722.4 2074.1 1715.1 2077.7 1711.3 2080.7 1710.1 2085 1684.1 2074.3 1700.9 2022.9 1705.6 2011.4 1724.7 2019.4 1735.6 2023.6 Z" data-holc_grade="B"/>
<path d="M 1705.6 2011.4 1700.9 2022.9 1684.1 2074.3 1680.7 2087.5 1627.4 2058.8 1648.8 2013.6 1656.4 1997.6 1661.6 1986.7 1705.6 2011.4 Z" data-holc_grade="B"/>
<path d="M 658.6 1845.2 684 1858.3 675 1868.7 658 1888.8 654.3 1899.4 656.6 1908.1 665.8 1910.2 673.3 1906.6 685.4 1895.6 695.4 1882.9 702.4 1871.3 705.8 1869.6 734.7 1886 721.4 1896.9 691.5 1925.4 671.1 1942.1 655.7 1959.7 650.4 1967.3 607.9 1943.4 623.6 1926 590.6 1908.3 588.5 1907.3 579.7 1903.2 582.2 1892.6 584.7 1879.9 590.6 1873.6 599.6 1869.4 611 1860.3 623.3 1845.1 632 1832.4 635.6 1832.4 649 1838.3 658.6 1845.2 Z" data-holc_grade="B"/>
<path d="M 1607.2 2102.9 1612.5 2106.7 1600.7 2110.5 1567.8 2154.9 1563.4 2152.7 1552.1 2146.9 1551.3 2144.7 1526.1 2130.1 1545.7 2105.8 1562.4 2078.3 1607.2 2102.9 Z" data-holc_grade="B"/>
<path d="M 1675.1 635.6 1686.9 625.7 1681.4 621.9 1667.5 629.6 1665.2 627.9 1666.1 627 1671 623.5 1677 619.8 1679.9 617.9 1678.6 616.7 1673.6 616 1670.6 615 1659.9 615 1608 627.6 1605.7 626.7 1603 622.4 1579.2 624.8 1560.1 625.1 1559 623.6 1558 618.6 1556.7 613.3 1556.2 610.7 1557.2 608.3 1559.9 604 1563 600.1 1566.3 597.2 1570.9 590.3 1575 583.9 1577.6 580.2 1583.3 574.3 1587.8 570.1 1589.3 569.8 1593.3 569.7 1605.8 567.3 1614.9 565.4 1617.3 565.2 1632 562 1649.4 558.8 1667.6 556.3 1701.8 550.6 1712.1 549.2 1720.7 549.2 1721.9 549.8 1721.7 552.2 1721.1 560.2 1721 567.5 1721.6 571.2 1723.2 573.6 1724.5 577 1726.1 579.7 1726.9 580.7 1727.2 582 1727.5 584.2 1729 589.9 1729.3 592.6 1727 594.9 1723.5 597.4 1719.9 600.3 1715.4 603.9 1715.2 606.7 1715.4 612.1 1715.4 618 1715.6 626.7 1713.6 628.4 1712.7 629.6 1702.4 638.2 1696 645.5 1693.8 647.5 1688.9 651.2 1686.1 653.5 1669.3 662.3 1667.5 664 1661.3 666.4 1656.6 668.7 1653.1 669.9 1650.5 671.3 1648.3 672.6 1645.6 672.7 1643.3 673.5 1640 674.7 1635.8 675.3 1632.4 675.7 1628.1 675.3 1624.3 673.6 1621.6 671.7 1617.5 669.9 1615 667.4 1613.2 666.5 1612 664.8 1608.8 663.1 1607.6 661.9 1609.8 662.4 1625.7 658.8 1642.7 650.7 1665.8 641.6 1676.3 636.8 1675.1 635.6 Z" data-holc_grade="B"/>
<path d="M 1621.4 2147.3 1631 2139.2 1646.6 2124 1658 2114.5 1662.8 2109.4 1665.5 2106.5 1692.4 2121.3 1686.9 2130.4 1678.5 2140.2 1677.7 2145.9 1674.5 2152.3 1669.3 2158.6 1666.1 2163.6 1662.5 2170.2 1657.9 2181.4 1652.8 2188.4 1645 2197.7 1633.4 2209.9 1632.5 2212.7 1612.5 2225.6 1608.1 2227.3 1602.7 2228.3 1598.2 2226.7 1595.3 2229.4 1591.8 2231.8 1590.8 2234.6 1592 2238.9 1591.4 2240.8 1586.9 2243.5 1584.9 2252.8 1580.4 2251.7 1582.3 2239.9 1588.9 2203.8 1595.5 2171.3 1589 2168.7 1590.8 2161.8 1598.3 2161.9 1612.9 2154.3 1621.4 2147.3 Z" data-holc_grade="B"/>
<path d="M 500.9 2069.3 465 2107.8 461.1 2106.7 437.2 2086.7 404.3 2069.4 439.4 2032.2 477.3 2053.1 500.9 2069.3 Z" data-holc_grade="B"/>
<path d="M 492.9 1998 481.2 2010.8 495.9 2019.9 492.3 2024.9 489.1 2037.9 483.9 2046.3 515.6 2066.6 510.9 2077.9 516.5 2082.8 526.1 2085.7 516.6 2090.5 504.9 2095 499.6 2096.7 494.7 2099.2 443.6 2118.2 404.1 2134.6 414.5 2147.2 492.1 2118.7 505.2 2114.3 513.5 2109.5 518.4 2115 516.6 2122.3 508.6 2135.6 483.7 2177.8 494.1 2180.7 503.4 2187.9 493.6 2207.8 489.3 2217.4 484.5 2227.6 480 2236.1 478.6 2241.9 477.2 2243.3 465.2 2236.4 444.5 2224.5 423.4 2212.3 414.3 2207 407.7 2203 354.3 2170.3 347 2166.5 354.9 2152.1 360.6 2138.6 367 2125 372.1 2118.5 373.6 2114.5 369.2 2106.6 369.7 2102 378.4 2093.5 385.7 2088.8 392.7 2081.1 396.7 2075.9 398.6 2071 397.9 2067.2 386.8 2058.8 378 2056.7 370.5 2052.7 362.2 2047.8 359 2042 357.8 2036.4 358.6 2031 362.2 2023.5 368.7 2016 380.9 2005.7 366.5 1999.2 385.3 1981.2 355.8 1963.3 382.6 1940.1 398.2 1951.5 410.8 1960.4 421.9 1967.3 428.7 1969.7 446.6 1976.4 455.5 1981.3 460.4 1982.8 469.4 1984.7 477.2 1987.6 486.6 1992.3 492.9 1998 Z M 429.9 2014.4 431.6 2012.6 430.7 2007.2 428 2003 421.7 2000.1 418.6 1999 413.7 1999.1 410.4 2000.7 409.6 2003.2 410.2 2006.5 411.4 2009.9 415.3 2013.6 420.6 2015.6 424.8 2015.7 429.9 2014.4 Z M 500.9 2069.3 477.3 2053.1 439.4 2032.2 404.3 2069.4 437.2 2086.7 461.1 2106.7 465 2107.8 500.9 2069.3 Z" data-holc_grade="B"/>
<path d="M 397.3 466.8 400.1 475 414.7 509.8 415.1 510 415.3 510.3 422 532.2 421.2 540.7 418.1 553.7 418 554 413.6 566.4 403.7 583.2 391.1 599.8 390.3 599.7 368.6 626.2 365 633.2 364.8 633.6 347.2 631.2 348.8 621.7 360.8 589.8 334.1 583 333.8 573.4 335 569.2 343.1 559.5 345.4 553.4 293 535.4 298.5 525.4 304.6 520.3 324.5 506.7 342.9 497.1 343.5 495.5 348.8 481.6 350.4 471.9 348.1 464.3 346.5 458.2 335.2 439.3 343.3 441.2 351.8 444.3 362.6 451.2 370.3 455.7 375.5 460.4 380.1 464.6 384.8 467.1 397.3 466.8 Z" data-holc_grade="B"/>
<path d="M 316.6 670.9 290.6 659.1 282.6 674 276.8 678.5 230.9 727.6 210.8 746.9 198.5 747.2 203 735.6 195.8 729.3 190.2 723.4 186.2 713.5 201.4 680 170.4 665.3 168.1 664.2 169.6 660.3 180 658.4 197.8 653.2 209.3 650 218.5 642.3 231.9 630.2 238.6 619.4 239.4 615.1 285.7 636.8 295.1 607.3 303.4 578.3 334.1 583 360.8 589.8 348.8 621.7 347.2 631.2 364.8 633.6 362.7 637.8 353 658.9 347.2 652.5 341.6 654.9 340.3 658.1 335.8 663.2 324.2 667.6 316.6 670.9 Z" data-holc_grade="B"/>
<path d="M 527.7 616.9 516.7 642.4 511.8 659.9 499 709 494.6 731.7 482.5 729.1 480.7 733.9 474.8 735.6 471.3 739.3 469.5 742.7 467.9 750.9 464.6 759.8 459.7 783.4 424.2 786.8 412.9 787.9 402.6 757.1 402.9 755.2 404.9 741.3 416.4 717.6 438.5 719.5 448.1 686.1 439.3 683 445.9 672.3 429.5 665.9 428.5 662.1 427.9 598.1 437.7 600.7 451.8 602 464.3 604.5 469.7 597.6 473.3 590.3 507.4 597.7 532 603.2 527.7 616.9 Z" data-holc_grade="B"/>
<path d="M 439.3 683 448.1 686.1 438.5 719.5 416.4 717.6 404.9 741.3 402.9 755.2 388.2 758.3 379.8 761 368.7 764.6 365.8 759.4 378.1 743.2 354 754.1 349.5 740.5 344.3 724.8 361.8 718 358.2 708.2 358.9 703.5 360.9 696.6 368.9 685.9 372.5 681 386.8 683.9 390.6 679.3 406.1 681.7 418.4 681.7 436 688 439.3 683 Z M 398.5 737.9 405.3 735.2 407.3 730.9 407.2 725.5 403.5 722.3 396.1 721.3 389 723.7 386.1 728.4 386.3 735.2 392.4 738.1 398.5 737.9 Z" data-holc_grade="B"/>
<path d="M 336.4 177.3 309.2 199.8 321.3 244.1 320.9 248.1 321.9 253.7 326.6 262 348.8 262.6 372.9 266.9 369.8 271.1 362.8 277.2 352.4 284 349.7 285.6 347.3 287 341 294.1 301.7 284.8 281.2 231.7 266.1 235.7 254.4 240.6 255.5 246.3 254.1 252.4 247.7 256 237.6 257 231.7 255.1 226.4 252.4 222.5 252.2 218.9 254.1 209.5 263.4 200.8 270.3 183.1 269 184.9 251.2 184.2 238.6 179.3 223.6 176 214.6 156.5 216.2 154 209.9 130.6 180.4 159.9 145.8 194.7 162.4 209.9 136.2 203.2 128.1 190.7 62.5 196.3 64.9 210.6 48.9 219.8 53.2 236.3 35.2 270.1 50.2 281 37.6 334 59.5 307.7 88.3 313.7 125.6 290.2 125.8 291.6 137.2 301.6 167.9 336.4 177.3 Z M 291.3 181.1 278.1 180.1 270.5 193 257.9 192.1 247.1 187.5 251.4 196.5 259.8 206.1 277 212.8 300.6 214.8 291.3 181.1 Z" data-holc_grade="C"/>
<path d="M 340.2 682.5 329.4 707.2 312.3 722.3 302.3 739.6 287.5 740.6 298.4 689.3 296.6 683 319 677.6 321 682.1 324.4 683.3 333.2 683 340.2 682.5 Z" data-holc_grade="C"/>
<path d="M 533.9 531.1 507.4 597.7 473.3 590.3 471.1 589.8 455.9 587.3 445.1 584.8 438.2 582.8 437 578 436.7 575.5 436.2 573.7 433.7 572.5 433.8 568.1 433.3 564 431 559.3 427.4 556.1 418.1 553.7 421.2 540.7 422 532.2 415.3 510.3 415.1 510 425.2 514.5 442.2 517.5 481.8 526.7 524.5 530.2 533.9 531.1 Z" data-holc_grade="C"/>
<path d="M 507.4 597.7 533.9 531.1 553.4 534.7 605.5 546.7 651.8 560.9 738.1 585.5 739.7 586.9 737.5 631.3 741.9 678.5 739.2 678.4 661.7 664.2 621.2 664.2 616.9 666 594.4 664.9 599.5 633.1 535.3 616.9 527.7 616.9 532 603.2 507.4 597.7 Z" data-holc_grade="C"/>
<path d="M 594.4 664.9 578.3 718.9 557.5 713.5 553.9 722.1 539.2 776 525.2 774 522.8 780.8 459.7 783.4 464.6 759.8 467.9 750.9 469.5 742.7 471.3 739.3 474.8 735.6 480.7 733.9 482.5 729.1 494.6 731.7 499 709 511.8 659.9 516.7 642.4 527.7 616.9 535.3 616.9 599.5 633.1 594.4 664.9 Z" data-holc_grade="C"/>
<path d="M 1044.6 492.3 1045.3 501.1 1043.5 504.6 1045.5 525.8 1039.2 525.7 1034.2 524.7 1029.4 525.4 1024.7 527.6 1021.6 531.9 1019.5 536.3 1018 541.3 1015.7 548.3 1014.2 559.5 1011.7 581.7 1011.1 582.3 1000.7 576.5 989.4 570.5 963.3 561 930.7 548.7 930.3 546.9 931.9 540.6 936.8 528.7 942.7 513.2 928.5 511.2 898.6 506.3 896.9 505.9 896.7 504.8 897.7 502.3 901 494.9 902.9 488.6 906.2 480.8 908.8 473.7 910.8 470 945.8 475.7 965 480 978.7 483.5 1006.8 487.7 1038.3 490.5 1044.6 492.3 Z" data-holc_grade="C"/>
<path d="M 1141.3 489.1 1138.6 497.6 1135.8 501.3 1133.3 503.3 1130.1 503.7 1126.6 505.2 1119.3 523.9 1110.6 542.8 1064.2 529.2 1052.4 526.6 1045.5 525.8 1043.5 504.6 1045.3 501.1 1044.6 492.3 1046.1 492.7 1048.7 494.2 1064.6 491.9 1074.7 487.2 1089 483.5 1102.6 481.7 1105.1 481.8 1108.7 484.9 1112.2 487 1118.2 487.7 1124 487 1127.3 486.2 1132.9 485.7 1136.8 486.9 1141.3 489.1 Z" data-holc_grade="C"/>
<path d="M 1259.8 639.9 1265.2 657.4 1271.9 659.4 1276.6 660.5 1287.7 662.1 1302.1 663.1 1305.5 668.4 1307.4 672.7 1309.4 679.8 1327.1 683.7 1334 684.5 1336.4 685.9 1340.4 694.3 1342.7 698.4 1342.7 708.8 1341.9 713.7 1338.7 719.2 1330.3 728 1325.3 732.7 1324.6 735.3 1326.9 739.1 1330.5 742.3 1336.8 745.1 1343.9 748.4 1360.4 753.3 1377.9 757.8 1382 759.1 1382.4 761.2 1381.3 762.4 1377.2 764.3 1372.5 767.6 1368.9 773.6 1363.2 776.2 1362.9 777.6 1359.1 779.2 1353.7 780.4 1350 780.5 1346.1 780.8 1342.5 781.6 1340.3 782.2 1337.6 784.3 1296.7 775.9 1266.3 771.6 1262.9 770.4 1260.9 770.8 1256.1 775 1236.9 771.4 1235.2 771.5 1232.1 774.6 1229.6 774.2 1226.6 773.1 1223.9 773.2 1220.8 772.2 1219.8 771.1 1218.9 767.6 1217.3 766.1 1214.6 766.1 1208.3 769.3 1203.9 769.9 1200.5 769.1 1198.1 766.6 1196 763.9 1172.9 758.5 1164 753.8 1130.5 739.7 1130.5 738 1134.4 732.6 1135 727.9 1134.3 725.8 1108.9 720.4 1107.8 718.8 1108.7 715.8 1100.6 713.4 1090.3 710.4 1087.8 708.4 1096.2 690.5 1125.3 698 1174.2 707.5 1182.4 678 1184.8 665.5 1185.8 664.6 1188.4 664.9 1197 666.6 1214.5 670.4 1218.9 671.9 1227.1 673.3 1232 673.5 1232 664 1230.8 654.6 1229.8 650.6 1231.9 650.7 1237.4 650.1 1243.4 648 1251.6 645.4 1256.4 642.3 1259.8 639.9 Z M 1254.2 706.7 1225.2 701 1214 720.8 1242.9 724.7 1254.2 706.7 Z" data-holc_grade="C"/>
<path d="M 1932.8 839 1930.2 838.8 1886.3 814.2 1844.1 790.4 1833.2 783.7 1829.1 803.6 1821.2 799.8 1802.7 792.3 1754 790 1724.3 788.2 1696.9 786.5 1697.5 773.9 1699.2 770.5 1700.9 743.7 1702.1 719.2 1702.2 709.1 1701.3 698.3 1702.8 697.1 1715.2 695.3 1734.2 691.9 1734.4 690.8 1734.8 672.2 1735.8 664.9 1736.8 649.5 1741.9 645.6 1748.7 638.8 1751.5 638.5 1758.6 646.3 1769.2 658.1 1778.5 668.3 1786.7 678 1794.1 678.3 1812.2 690.7 1811.3 672.5 1809.8 671.4 1807 670.1 1803.8 667.4 1801.7 664.3 1800.4 660.7 1801 656.5 1801.5 654.5 1802.7 651 1804.5 648.3 1807.4 645.9 1810.2 644.1 1815 642.6 1818.5 642.3 1820.9 642.1 1823.4 641.8 1829.2 641.7 1834.1 641.7 1840.5 642.1 1844.9 642.4 1848.7 642.6 1852 643.3 1854.3 644.4 1855.8 645 1859.6 648.2 1863.2 652.8 1865.4 656.4 1866.4 658 1867.7 660.8 1869.2 664.9 1869.9 668.9 1869.6 672.4 1869.6 675.3 1869.1 679.6 1868.2 682.5 1867.3 685.1 1865.7 688.7 1860.6 707.1 1857.2 718.7 1857.3 722.7 1846.2 734.5 1855.3 741.6 1879.2 755.8 1893.1 743.8 1924.5 761.9 1923.5 763.2 1920.5 764.7 1917.7 765.5 1916.1 766.7 1915 768.8 1913.7 771.5 1913.3 773.1 1910.4 781.9 1909.3 787.1 1908.1 790.5 1904.6 794 1898.3 798.3 1892.9 803.2 1893.9 804.7 1901 809.7 1914.4 817.3 1930.5 801.9 1944.6 807.4 1950.4 810.9 1956.4 813 1958.9 815.6 1959 819.1 1957.1 821.3 1955.4 824.3 1953.7 826.9 1951.8 828.9 1951.1 831.2 1950.4 833.4 1949.4 835 1948 836 1945.6 837 1942 837.5 1939.3 838 1934.9 838.3 1932.8 839 Z" data-holc_grade="C"/>
<path d="M 379.8 761 369 776.1 337.7 811.2 326.1 797.9 317.9 785.6 316.8 779.5 322.1 776.7 322.6 774.2 324.5 771.9 324.7 768.5 344.2 761.2 354 754.1 378.1 743.2 365.8 759.4 368.7 764.6 379.8 761 Z" data-holc_grade="C"/>
<path d="M 303.4 740 285 776.9 281.3 794.2 274 811.1 272.4 821.7 258.1 821.7 248.6 820.9 244.1 818.9 242.4 820 237.5 825.4 230.9 832 220.5 825.9 273.3 773 276.7 766.3 283.3 752 287.5 740.6 302.3 739.6 303.4 740 Z" data-holc_grade="C"/>
<path d="M 301.7 284.8 341 294.1 347.3 287 349.7 285.6 392.4 294.1 404.7 294.5 400.5 302.3 395.2 307.1 393.8 310.9 420.4 312 420.4 319.4 411.7 326.1 415.6 378 418.4 385.2 400.3 385 373.4 383.1 365 380.3 368.7 386.4 392.2 406.5 378.3 409.7 361.1 413.7 355.8 414.9 339.1 416.8 307.8 410.3 302.4 410.5 292.9 410.9 287.4 408.2 285.1 404.4 296.9 369.3 217.8 360.1 180.9 356.9 187.3 320.8 242.6 320.4 246 317.9 247.7 313.9 248.8 308.6 251.3 306.3 254.9 304.2 260 304.8 265.3 306.1 269.5 305.2 274.5 282 276.2 275.7 279.8 273.4 284.3 273.2 290.1 276.6 301.7 284.8 Z M 353.5 361.4 337.3 358.7 315.2 353.8 309.3 372.5 316.1 374.2 340.1 375.8 346.3 377.5 361.9 381.5 353.5 361.4 Z" data-holc_grade="C"/>
<path d="M 1192.7 918.2 1198.5 918.9 1200.5 927.2 1206.6 942.6 1217.3 963.9 1227.3 989.4 1232.7 1003.4 1235.3 1018 1235.1 1039.2 1154.1 1019.1 1162.4 998.1 1162.9 991.9 1163.3 982 1151.5 978.2 1147.9 976 1143 971 1140.7 967.2 1139.1 958.8 1140.5 949.9 1141.1 939.5 1142.3 933.8 1174 942.7 1177.3 932.7 1182.6 916.8 1192.7 918.2 Z" data-holc_grade="C"/>
<path d="M 1146.9 1344.3 1137.7 1335.7 1133.3 1334 1126.8 1333.2 1121 1331.8 1117.2 1330.1 1115.4 1328.3 1115.4 1325.1 1115.1 1321.5 1113.6 1318.3 1111.1 1315.3 1107.1 1312.6 1091.9 1306.5 1059.9 1297.2 1057.5 1296.7 1061.5 1293.4 1067.9 1289.5 1073.6 1286.4 1080.8 1283.5 1081.7 1283.1 1081.3 1276.1 1080.3 1268.1 1077 1260.8 1073.3 1253.4 1071.5 1246.4 1070.8 1238.2 1072 1233 1074.2 1231.2 1079.4 1232.4 1098 1235.7 1105.8 1237.7 1111.6 1239.1 1118.2 1241.8 1126.6 1244.9 1172.5 1254.3 1172.2 1263.3 1170.9 1271.9 1168.6 1281.3 1163.6 1298.7 1158.2 1313.4 1154.1 1327.5 1146.9 1344.3 Z" data-holc_grade="C"/>
<path d="M 1380 1084 1379.6 1082.6 1337.2 1081.4 1337 1088.3 1279.2 1086.2 1278.6 1087.8 1277.4 1090.4 1275.4 1093.4 1273.3 1096.7 1271.9 1099.3 1335.6 1101.7 1334.2 1121.3 1372.4 1123.2 1362 1163.6 1329.7 1163 1323.9 1162 1293.8 1162.5 1277.3 1163.2 1265.4 1161.8 1257.1 1160.9 1241.7 1158.8 1235 1158.6 1233.1 1156.3 1234.3 1151.4 1236 1146.7 1237 1144.2 1236.6 1142.6 1233.2 1142 1226.8 1141.3 1215.4 1140.7 1207.5 1140 1203.2 1139.2 1198.5 1138.4 1199 1137.2 1203.3 1130.3 1207.3 1123.8 1207.2 1120.7 1207 1117.9 1208.5 1115.6 1212.5 1110 1215.5 1103.9 1219.4 1098 1222.3 1093.1 1230.1 1081.7 1240.6 1067.6 1243.9 1061.9 1248.1 1055.7 1250.6 1052.8 1255.1 1048.9 1258.4 1045 1259.5 1042.5 1258 1038.3 1255.2 1035.4 1254 1031.9 1253.8 1026.5 1252.6 1020.1 1251.4 1017.5 1249 1013 1246.3 1009 1245 1003.4 1245.1 1001 1247.4 998.3 1251.7 996.7 1255.1 996.2 1258.9 996.1 1263.8 997.7 1268.2 999.2 1271.8 999.7 1274.9 999.9 1276.9 999.1 1278.9 996.2 1278.9 994.4 1277.2 989.7 1276.4 986 1274.2 980 1271.3 976.4 1266.2 973.6 1260.7 971.5 1257.5 970.3 1258 934.7 1313.9 937.1 1335.7 936.1 1340.2 940 1340.8 946.1 1343.5 959.3 1343.3 972.1 1376.1 974.6 1377.3 969.1 1377.7 966.7 1388.4 966 1425.3 964.7 1452.4 964.8 1456.6 966.2 1456.8 983.8 1426.7 982.1 1387.3 983.7 1387.5 1002.8 1384.5 1026.4 1383.3 1038.7 1384.7 1053.9 1388.4 1074.4 1388.6 1084.2 1380 1084 Z" data-holc_grade="C"/>
<path d="M 1724.3 788.2 1720.7 818.7 1717 859.7 1713.3 885 1711.7 905.3 1713.7 907.5 1632.6 908.6 1630.1 912 1620 911.4 1612.8 910.9 1574.2 909.2 1565.5 908.6 1563 906.1 1556.3 905.4 1568 869.1 1580.1 840.2 1584.9 831.5 1591.5 819.8 1622.3 823.1 1645.5 823.3 1649.9 788.1 1652.2 786.2 1696.9 786.5 1724.3 788.2 Z" data-holc_grade="C"/>
<path d="M 1967.4 882 1942.2 861.4 1939.3 864.3 1935 862.2 1927.9 859.6 1920.6 856.6 1915.1 855.1 1908.8 853.3 1901 852.6 1895.6 852.7 1886.3 853.4 1880.8 854.4 1875.1 855.8 1870.4 858.3 1863.9 865.9 1858.7 871.6 1850.8 877.2 1849.8 878.5 1856.8 883.3 1865.8 888.1 1872.1 892.2 1873.6 893.3 1864.6 903.5 1858.7 911.4 1856.8 913.8 1872.3 925.1 1891 907.7 1907.4 920.5 1922.9 933.7 1939.3 949.7 1942.5 952.1 1933.1 958.9 1933.7 964.1 1933.5 967 1932.2 970.1 1931.2 972.6 1931.3 973.2 1935.8 978 1942.3 982.7 1949.3 987 1956.6 991.2 1964.6 995.6 1972.5 999.5 1979.9 1003.4 1988.3 1007.8 1995.8 1011.9 1998.2 1013.1 1998.3 1014.1 1986.6 1025 1979.1 1031.7 1972.6 1038.6 1939.9 1020.9 1919.5 1010.6 1898.4 997.8 1875.7 982.1 1851.7 967.9 1847.4 966.9 1846.6 952.4 1846.9 950.3 1849.5 928.4 1849.5 917.3 1847.9 913.6 1841.8 910.9 1837 909.8 1833.3 909.7 1829.9 910.6 1827.5 912.7 1824 916.4 1818.8 920.7 1814.5 924.3 1811.8 925.2 1803.6 925.2 1790.5 925.1 1781.2 924.9 1752.8 922.8 1735.6 921.4 1728.3 921.1 1713.6 920.6 1713.7 907.5 1711.7 905.3 1713.3 885 1717 859.7 1720.7 818.7 1724.3 788.2 1754 790 1802.7 792.3 1821.2 799.8 1829.1 803.6 1833.2 783.7 1844.1 790.4 1886.3 814.2 1930.2 838.8 1932.8 839 1967.4 858.9 1978.3 865.5 1967.4 882 Z" data-holc_grade="C"/>
<path d="M 1713.6 920.6 1713.2 924.7 1710.4 926.4 1710.2 938.4 1708.6 959.2 1710.2 964.6 1708.8 980.7 1704 1034.9 1681.4 1034.6 1680 1075.3 1655.3 1076 1628.8 1076.2 1599.5 1078.2 1584.1 1077 1543.1 1078.7 1548.5 1059.1 1555.5 1043.8 1558.5 1043.9 1560.8 1036.3 1561.5 1032.3 1546.5 1034.2 1527.8 1034.8 1527.8 1037.4 1505.2 1037.9 1505.3 1047.1 1536.1 1046.6 1528.2 1079.1 1494.4 1080.4 1454.2 1083.8 1453.7 1065.8 1444.1 1065.9 1443.5 1068.6 1441.3 1068.7 1440.5 1073.1 1388.4 1074.4 1384.7 1053.9 1383.3 1038.7 1384.5 1026.4 1387.5 1002.8 1387.3 983.7 1426.7 982.1 1456.8 983.8 1459.7 986.9 1462 987.1 1537.4 986.9 1557.2 986.6 1558.3 985.9 1558.7 984.3 1559.9 982.6 1562 979.6 1563.1 978.1 1566.4 975.2 1568.9 972.5 1571.4 970.2 1574.5 967.1 1577.4 965.2 1580.3 962.6 1586 959.5 1593.4 955.1 1596.3 953.4 1596.8 951 1598 946.1 1599.5 942.8 1601.8 938.9 1603.6 936.5 1606.4 932.7 1609.5 930.1 1612 927.3 1614.7 922.4 1616.6 918 1620 911.4 1630.1 912 1632.6 908.6 1713.7 907.5 1713.6 920.6 Z" data-holc_grade="C"/>
<path d="M 1898.5 1093.8 1885.1 1087.1 1860.9 1073 1840.7 1062.4 1838.4 1061.1 1833.9 1058.6 1832.5 1058.5 1831.9 1058.5 1831.2 1059.3 1830.8 1063.2 1828.8 1065.8 1826 1068.8 1823.8 1071.6 1823.4 1072.7 1822.3 1078.4 1822.6 1084.2 1822.1 1089.6 1820.5 1092.5 1817.8 1093.4 1812.1 1093 1792.6 1092.3 1774.8 1092.2 1760.3 1091.7 1746.6 1092 1730.5 1092.3 1704.2 1093.1 1679.6 1093.6 1680 1075.3 1681.4 1034.6 1704 1034.9 1708.8 980.7 1725.8 980 1739.9 980 1752.1 979.6 1759.2 980 1765.4 980.5 1765.4 977.5 1765 973 1765.4 970 1766.6 965.7 1768.9 962.7 1772.9 959.6 1778.1 957.3 1785.5 956.2 1789.9 955.8 1800.8 955.2 1815.3 954 1837.9 952 1846.9 950.3 1846.6 952.4 1847.4 966.9 1851.7 967.9 1875.7 982.1 1898.4 997.8 1919.5 1010.6 1939.9 1020.9 1972.6 1038.6 1979.1 1042.6 1955.7 1050.7 1941 1056.3 1930.8 1059.9 1932.5 1070.7 1936.6 1083.6 1939.1 1093.4 1938.2 1094.6 1923.9 1085.5 1908.3 1075.3 1898.5 1068.6 1898.3 1069.7 1901.7 1084.9 1903.1 1088.2 1902.4 1090.4 1898.5 1093.8 Z M 1883.1 1022.5 1870.1 1018.4 1854.2 1011.3 1844.2 1007.1 1833.9 1005.8 1827.2 1005.4 1826.1 1026.4 1848.2 1026.9 1864.5 1031.1 1882.2 1037 1883.1 1022.5 Z" data-holc_grade="C"/>
<path d="M 196.8 952.4 196.2 968 193.8 974.9 194.2 979.3 199.6 979.4 210.3 981.2 217 983.6 221.4 988.8 227.8 1002.1 242.5 1012.1 249.5 1019.5 255.6 1027.3 261.1 1037.7 261.2 1041 272 1059.1 274.7 1065.9 278.3 1073.6 282.1 1075.7 289.4 1076.6 295.1 1078.9 302.8 1082.1 309.3 1084.9 313.8 1088.6 321.6 1093.1 332.1 1096.3 338.8 1097.9 357.8 1103.9 369.5 1106.1 371.2 1107.9 377.7 1146.1 343.7 1153.1 319.8 1159.5 307.2 1163.2 277.1 1170.4 270.2 1172.2 267.4 1173.5 266.3 1180.8 264.9 1183.5 261.9 1185.2 246.8 1188.8 224 1193.7 203.2 1198.4 196.6 1198.2 190.1 1197.4 180.7 1195.8 172 1193.2 164.2 1188.7 160.3 1184.3 157 1178.3 155.5 1172.2 154.6 1164.8 155 1158.8 156.5 1152.5 158.8 1147.3 160.8 1138.6 162.5 1131.7 166.7 1120 169.9 1107.9 170.9 1099.1 170.9 1092.4 169.1 1086 151.9 1065.6 137.1 1052.4 123.7 1042.4 111.6 1039.9 95.4 1035 95.7 1023.7 97.2 1012.9 109.6 960.6 128.7 961.2 136.9 960.1 147.2 956.9 169.5 943.4 180.1 940.1 188.9 938.2 191.6 937.2 193.5 933.3 201.3 932.4 203.2 932.5 196.8 952.4 Z M 149.2 1025.6 157.9 1022.3 159.2 1008.2 163.4 995.9 167.3 985 134.7 982.3 127.8 1000.3 123.2 1023.6 132 1025.5 138 1031.3 140.1 1031.4 149.2 1025.6 Z" data-holc_grade="C"/>
<path d="M 418.9 1259.9 414.6 1250.9 403.7 1213.1 386.3 1166 429.6 1153.8 433.3 1161.8 498.4 1143.3 514 1174.6 510.6 1186.2 531.5 1227.2 418.9 1259.9 Z" data-holc_grade="C"/>
<path d="M 403.7 1213.1 414.6 1250.9 418.9 1259.9 432.9 1288.7 398.5 1300 276.2 1332.1 251.7 1341.7 244 1340 245.9 1332.3 238.4 1315.6 239.9 1305.6 240 1292.3 243.6 1275.5 259.4 1255.9 265.3 1246.6 299.6 1240.8 319.3 1237.9 345.7 1230.1 396.9 1215 403.7 1213.1 Z M 339.2 1257.7 365.4 1250.4 352.6 1231.5 321.8 1241.5 290 1246.7 270.6 1265.2 283.8 1262.4 295.9 1292 349.7 1275.4 339.2 1257.7 Z" data-holc_grade="C"/>
<path d="M 1235.2 52.4 1233.1 55.9 1229.5 61.7 1234.5 88.1 1230.7 88.6 1222.6 88.7 1215 87.1 1207.3 84.8 1204.5 83.9 1202.4 87.5 1198.2 91.5 1194.3 95.9 1191.1 97.2 1190.4 98.1 1201.1 111.1 1234.1 107.7 1235 94.9 1262.3 92.7 1264.2 104.1 1264.6 106.5 1263.9 112 1262.7 118.5 1262.6 123.6 1262.5 128.1 1259.9 130.1 1241 132.3 1230.1 134 1218.8 133.7 1209.3 134 1203.1 132.9 1196.8 129.8 1177.2 114.3 1173.6 111.9 1177.7 108.1 1187.1 94.3 1187.1 91.8 1188 88.4 1192.9 81.7 1196.4 75.4 1194 41.7 1190.1 2.2 1192.4 1 1215.3 1 1219.9 1.7 1259.5 1.4 1260.4 3.4 1257.8 9.5 1253.2 19.2 1245.3 27 1244.4 27.8 1243.5 35 1243.3 37.8 1241.5 40.6 1239.9 42.4 1238.2 47.6 1235.2 52.4 Z" data-holc_grade="C"/>
<path d="M 427.2 1501.6 405.2 1507.1 304.9 1532.2 296.6 1533 303.1 1485.2 309.4 1444.6 297.3 1397.3 298.9 1394.6 323.3 1399.8 368.9 1403.5 389.2 1403.4 395 1426 406.9 1447.1 415.6 1478.1 427.2 1501.6 Z" data-holc_grade="C"/>
<path d="M 244 1340 251.7 1341.7 276.2 1332.1 398.5 1300 432.9 1288.7 450.1 1326.7 460.6 1337.2 473.1 1366.8 486.1 1388.8 436.5 1385.9 385.3 1385.9 349.9 1382.7 311.9 1379.5 267.9 1378.4 254.5 1380.1 241.3 1377.8 249.3 1362.1 249.6 1358.7 244.4 1350.2 242.8 1345 244 1340 Z" data-holc_grade="C"/>
<path d="M 722.6 1408.2 725.5 1416.7 728.9 1422.1 728.9 1429.7 733.2 1436.3 733.9 1442.1 733.9 1455 737.3 1465.7 738.3 1470.6 731.7 1484.6 725.8 1484.4 710.2 1482.5 705.6 1482.2 654.4 1497.3 651.4 1497.2 649.4 1494.5 650.8 1457.5 652.1 1451.1 653.2 1442 653.7 1440.1 658.5 1440.1 666.6 1440.6 674.3 1439.6 680 1438.9 685.6 1437.3 683.8 1435 681.1 1431 678.2 1424.6 676.6 1420.5 674.6 1417.4 671.4 1411.4 667.7 1406.8 664.4 1405 660.9 1403.4 655.9 1401.5 651 1400.7 647.5 1400.7 644.2 1400.8 640.7 1400 638.1 1398.2 635.6 1396.2 634.4 1396.2 630.5 1397 624.9 1398.1 619.7 1398.6 615.4 1398.9 611.5 1398.2 606.8 1396.7 594.7 1393.5 589.9 1392.6 577.2 1390.1 568.9 1388.5 564.6 1386.7 560.7 1383.9 557.8 1379.9 555.7 1375.1 555.2 1370.4 556 1366.6 558.2 1361.9 560.9 1360.1 596.8 1350.5 598.8 1348.5 593.1 1336.6 569 1294.5 573.4 1292.5 583.1 1289.9 595.8 1287.1 611.3 1285.1 614.3 1285.6 621 1301.8 632.4 1323.4 641.8 1338.8 646.1 1345.2 656.9 1344.9 673.3 1346.4 681.7 1349.2 692.1 1357.6 700.1 1369.8 703.8 1377.9 711.2 1392.3 722.6 1408.2 Z" data-holc_grade="C"/>
<path d="M 711 1254.5 716 1254.8 724.4 1257.4 732.6 1262.2 741.6 1270.6 745.7 1278.2 749.5 1283 747.3 1285.9 743.2 1289.5 737.8 1292.5 732.3 1296.3 726.2 1299.4 718.3 1301.4 707.1 1301.2 699.9 1301.2 695.3 1302.2 689.9 1304.4 684.2 1305.9 677.9 1306.6 670 1306.2 663.4 1305.1 657.5 1303.3 652 1302 646.3 1297.8 641.8 1293 639.7 1291.2 638.1 1287.3 638.1 1284.1 639 1281.2 641.8 1279.5 648 1276.6 650 1275 651 1273.2 650.9 1271 650 1267.5 649.5 1264.5 651 1263.1 653.5 1262 659.7 1260.9 662.4 1260.2 666.1 1260.9 668.4 1262.1 674.3 1262.8 680.6 1265.1 687.4 1267.2 691.7 1268 694.3 1267.7 700.7 1263.9 705.5 1259.1 706.6 1256.9 708.7 1254.8 711 1254.5 Z" data-holc_grade="C"/>
<path d="M 799.2 1467.3 793.3 1493.3 780.5 1485.4 785.6 1484.4 784.2 1481.1 762.8 1468.4 758.1 1472.3 737.3 1465.7 733.9 1455 733.9 1442.1 733.2 1436.3 728.9 1429.7 728.9 1422.1 725.5 1416.7 722.6 1408.2 721.8 1406.1 713.5 1388.1 715.1 1380 719.8 1368.6 718.5 1365.5 713.1 1359.4 704.7 1354.9 705.4 1348 715.1 1333.6 728.9 1321.4 748.7 1310.3 763.8 1303.7 775.8 1299.4 836.9 1339.5 822.4 1364.6 816 1399.5 809.8 1419.8 805.1 1434.8 802.3 1448.3 799.2 1467.3 Z M 757.8 1404.4 759.3 1391 758.2 1382.3 754.5 1381 743.9 1385.6 741.8 1390.2 740.7 1401 748.6 1408.7 754.4 1408.8 757.8 1404.4 Z" data-holc_grade="C"/>
<path d="M 927.2 1476.2 924.5 1491.2 918 1499.8 904.6 1519.5 888.9 1537.7 884.2 1544.2 874.1 1544 838.1 1522.4 828.6 1515 820.7 1503.8 802 1480 799.2 1467.3 802.3 1448.3 805.1 1434.8 809.8 1419.8 816 1399.5 822.4 1364.6 836.9 1339.5 851.5 1350.5 849.7 1354 913.1 1393.7 904.9 1405.6 894.8 1420.4 883.9 1434 878.2 1445.4 911.5 1467.4 927.2 1476.2 Z M 863.7 1463.9 866.9 1462 869.2 1456.9 867 1449.3 863.4 1446.1 857.7 1445.7 850.7 1451.8 847 1455.7 846.5 1460.8 849.6 1463.8 855.5 1465.7 863.7 1463.9 Z" data-holc_grade="C"/>
<path d="M 990.7 1334.6 977.1 1352.3 958.3 1378.5 956 1388.4 946 1416.5 913.1 1393.7 934.9 1335.2 944 1310.7 948.7 1310.1 990.7 1334.6 Z" data-holc_grade="C"/>
<path d="M 1070 1566.6 1043.1 1556.5 1055.9 1537.3 1043.9 1531.7 1064.2 1496.4 1055.8 1488.3 1067.6 1476.6 1078.8 1466 1086.4 1458.5 1091.5 1450.1 1095.1 1442 1099.1 1435 1103.3 1447.3 1106.9 1457.4 1108.8 1464.8 1109.1 1472.4 1108 1485.1 1105.7 1492.1 1102.8 1501.7 1094.7 1516.2 1089 1531 1070 1566.6 Z" data-holc_grade="C"/>
<path d="M 1120.7 1390 1118.9 1393.2 1113.4 1403.1 1109.7 1416.8 1103.8 1426.8 1095.2 1410.9 1088.1 1414 1099.1 1435 1095.1 1442 1066.4 1425.9 1007.5 1393.5 1015.4 1359.6 1015 1349 999.3 1339.7 1046.1 1296.2 1049.4 1295.3 1057.5 1296.7 1059.9 1297.2 1091.9 1306.5 1107.1 1312.6 1111.1 1315.3 1113.6 1318.3 1115.1 1321.5 1115.4 1325.1 1115.4 1328.3 1117.2 1330.1 1121 1331.8 1126.8 1333.2 1133.3 1334 1137.7 1335.7 1146.9 1344.3 1138.6 1358.5 1120.7 1390 Z" data-holc_grade="C"/>
<path d="M 974.6 1612.4 966.5 1625.3 953.8 1633 942.4 1640.3 936.3 1648.4 928.1 1659.9 908.3 1681.4 898.6 1679.9 892.2 1669.2 886.6 1653 919.3 1619.5 926.5 1617 930.8 1613.5 937.4 1600.3 948.7 1587.3 960.7 1594.7 996.8 1533.5 1018.4 1545.4 1031.5 1552.1 1000.5 1602.9 999.4 1607 975.8 1593.1 966.3 1606 974.6 1612.4 Z" data-holc_grade="C"/>
<path d="M 1173.6 111.9 1177.2 114.3 1196.8 129.8 1203.1 132.9 1209.3 134 1218.8 133.7 1230.1 134 1241 132.3 1240 148.2 1237.9 161.8 1235.7 169.3 1233.5 177.1 1230.5 182.3 1230 184.5 1224.6 189.6 1221.4 194.6 1219.6 202.3 1219.1 207.5 1215.3 213.9 1210.5 218.5 1201.9 224 1195.5 226.7 1184.2 230.1 1175.9 231.9 1171.3 233.1 1166.8 232.4 1163.2 231.4 1157.9 231.5 1160.7 243.4 1162.2 245.9 1159.1 246.5 1142.5 240.1 1116.3 230.7 1113 229.8 1110.7 229.8 1107.8 230.4 1104.9 229.7 1106.5 224.1 1108.8 216.5 1110.6 211.7 1111.9 209 1114.3 206.2 1116.3 203.9 1137.7 182.7 1126 179.2 1128.8 174.7 1140.8 177.8 1142 175.9 1163 183.8 1182.3 160.2 1166.1 154.9 1157 166.7 1136.3 162.6 1129.5 173.7 1104.9 167.9 1088.8 196.9 1075.5 215.3 1068.9 228.9 1045.4 222.2 1043.8 220.5 1039.4 218 1034.8 215.9 1028.8 214 1027 213.2 1024.2 211.1 1022.1 208.5 1017.7 204.3 1017.5 203.6 1016 202.4 1014.7 201.7 1005.2 199.5 969.4 189.2 943.7 180.7 941.3 180.5 938.9 179.9 937.3 161 936.1 150 935.6 145.9 940.2 98.1 940.9 95.1 942.7 93.3 948.3 91.3 952 87.2 953.4 80 955.6 74.7 964.6 62.1 971.3 55.1 997.8 14.5 1000.6 13 1015.2 20.2 1045.9 34.1 1080.9 46.9 1102.1 54.9 1136.2 66.5 1143.3 72.2 1161.5 103.7 1170.5 110 1173.6 111.9 Z" data-holc_grade="C"/>
<path d="M 1043.1 1556.5 1070 1566.6 1045.7 1622.6 1016 1623.7 995.9 1615.2 999.4 1607 1000.5 1602.9 1031.5 1552.1 1043.1 1556.5 Z" data-holc_grade="C"/>
<path d="M 1109.6 1585.6 1084.8 1572.6 1077.9 1570.1 1091.9 1541.5 1100.3 1522.4 1104.6 1513.4 1111.1 1499.7 1112.6 1495.8 1116.5 1484.3 1118.3 1479 1118.8 1473.1 1119.1 1466 1117.5 1459.5 1113.9 1447.5 1110.1 1437.6 1103.8 1426.8 1109.7 1416.8 1113.4 1403.1 1118.9 1393.2 1120.7 1390 1130.2 1393.1 1139.3 1396.4 1145.7 1398.2 1150.8 1400.3 1153.9 1402.3 1157.4 1404.8 1164.9 1411.4 1168.5 1415.1 1171.7 1418.3 1173.4 1421.7 1174.5 1426.1 1174.9 1431.9 1174.3 1436.3 1173.2 1447.5 1172.3 1456.9 1170.9 1463.4 1168.7 1468.5 1164.6 1472 1160.8 1474.8 1155.6 1477 1150.6 1478.3 1148 1478.5 1146.7 1479 1141.1 1479.1 1141 1484.8 1140.6 1493.9 1138.1 1504.8 1136.8 1514.2 1135.3 1515.4 1133.8 1519.2 1130.9 1529.4 1139.4 1530.7 1143.7 1532 1149 1532.7 1151.5 1533.5 1152.1 1535 1141.1 1545.1 1138.8 1544.7 1136.8 1544.8 1128 1554.8 1125.1 1554.3 1122.4 1554.9 1113.4 1566.5 1112.9 1570.8 1111.5 1577.1 1109.6 1585.6 Z" data-holc_grade="C"/>
<path d="M 1680 1075.3 1679.6 1093.6 1669.2 1093.9 1668.6 1113.5 1667.7 1138.6 1653.1 1138.1 1652 1154.5 1645.5 1155 1646.4 1170.5 1648.8 1186.1 1652.8 1188.8 1653.1 1201.3 1652.2 1214.3 1651 1220.6 1654.4 1223.4 1658.4 1226.8 1658 1229.5 1656.6 1240.3 1653.3 1241.2 1649.7 1241.5 1643 1241.7 1635.4 1240.8 1630.9 1240 1628.2 1238.8 1625.6 1237.1 1622.2 1237.5 1619.1 1236.6 1616.2 1235.9 1615 1233.9 1615 1228.7 1613.3 1226 1612.4 1224.6 1605.9 1225.5 1589.3 1224.6 1561.6 1223.9 1560.7 1224.3 1562.9 1235.4 1563.2 1256.9 1566.5 1279.4 1568.8 1286.6 1567.4 1288.2 1565.9 1288.7 1550.6 1287.6 1541.5 1286.8 1526.1 1286.3 1515.3 1285.3 1519.1 1268.7 1520 1252.2 1520.7 1245.6 1521.1 1229.7 1521.8 1207 1523.1 1178.2 1527.5 1154.1 1533.3 1130.6 1539 1102 1543.1 1078.7 1584.1 1077 1599.5 1078.2 1628.8 1076.2 1655.3 1076 1680 1075.3 Z M 1528.2 1079.1 1522.9 1114.3 1515.4 1143.7 1511.5 1176.6 1508.1 1206.4 1504.5 1246.5 1501.3 1286 1500.3 1305.2 1483.6 1304.4 1470.6 1303.8 1470 1307 1467.4 1310.6 1463.8 1314.8 1450.2 1311.8 1447.3 1319.1 1439.6 1328 1433.6 1333.8 1428.1 1337.9 1393.8 1326.5 1390.1 1330.9 1384.8 1331.7 1327.1 1312 1322 1309.5 1325.5 1299.9 1329.5 1289.8 1331.5 1283 1331.8 1276.5 1366.3 1279 1383.8 1280.5 1388.9 1280.9 1389.3 1278.6 1389.3 1274.8 1391.6 1269.8 1392.8 1265.1 1393.5 1260.8 1396.7 1254.5 1400.3 1245.9 1403.7 1238.9 1403.8 1237.1 1390.3 1236.9 1370.1 1236.9 1353.1 1236.8 1340.2 1238.3 1342.6 1227 1342.2 1222.6 1350.8 1217.4 1351.9 1205.8 1353.7 1196.3 1358 1177.8 1360.8 1168.1 1362 1163.6 1372.4 1123.2 1372.7 1122 1372.3 1116.3 1371.5 1115.6 1367.4 1115.2 1369.4 1098.1 1369.8 1096 1372.7 1095.2 1380.1 1095.5 1380 1084 1388.6 1084.2 1388.4 1074.4 1440.5 1073.1 1441.3 1068.7 1443.5 1068.6 1444.1 1065.9 1453.7 1065.8 1454.2 1083.8 1494.4 1080.4 1528.2 1079.1 Z" data-holc_grade="C"/>
<path d="M 1820.6 1330.7 1811.4 1325.4 1809.6 1324.4 1788.6 1313.7 1772.3 1302.5 1767.6 1299.2 1771.7 1295.2 1773.3 1287.4 1778.9 1271.8 1779.7 1268.4 1780.5 1263.9 1780.9 1257.1 1780.9 1247.1 1781.7 1240.6 1779.5 1232.9 1776.6 1228.6 1775.8 1224.8 1777 1221.3 1788.7 1195 1793.4 1197.4 1801.9 1200.5 1808.2 1202 1812.1 1204.3 1818.6 1202.6 1821.4 1201.3 1823.2 1197.9 1824.1 1194.6 1823.7 1189.4 1823.6 1184.3 1820 1181.9 1812.5 1178.6 1807.5 1174.9 1812.1 1161.4 1817.3 1145 1821.6 1129.1 1823.2 1122.7 1825.9 1119.5 1832.4 1115.9 1836.6 1112.5 1838.1 1105.6 1839.3 1095.3 1840.2 1083.6 1838.4 1061.1 1840.7 1062.4 1860.9 1073 1885.1 1087.1 1898.5 1093.8 1917.1 1105.1 1909.4 1119.3 1905.5 1126.9 1902.8 1131.7 1898 1136.9 1891.9 1143.1 1887.1 1149.8 1883 1155 1880.1 1159.6 1879.2 1163.1 1879.6 1166.2 1880.1 1169 1879.2 1172.8 1876.2 1178.8 1874 1185.6 1872.9 1192.8 1872.5 1196.6 1873 1200.1 1873.8 1202.3 1875.2 1204.8 1872.3 1207.6 1868 1211.3 1865.6 1214.2 1865.8 1217.2 1866.6 1219.4 1868 1224.1 1867.2 1230.9 1865.9 1231.3 1856.2 1225.9 1845 1219.6 1841.5 1217 1840.8 1218.9 1837.5 1226.6 1832.5 1235 1829.9 1241.9 1828.5 1245.5 1825 1252.6 1823.4 1257.3 1820.2 1263.6 1818 1269.8 1816.1 1274.1 1813 1278.1 1808.3 1283.3 1804.5 1285.9 1812.3 1292.1 1818.2 1294.1 1825.2 1297 1830.2 1298.9 1833.4 1301.1 1834.1 1303.8 1832.7 1307.4 1820.6 1330.7 Z" data-holc_grade="C"/>
<path d="M 1591.3 1310.8 1586.8 1333.7 1580.8 1355.9 1579.6 1360.8 1580.5 1365.3 1584 1379.8 1584.1 1384.5 1582.7 1387.7 1580.9 1390.6 1579.9 1392.9 1576.2 1400.7 1572.9 1425.4 1567.2 1441.9 1564.7 1451.5 1562.2 1466.5 1558.9 1477.3 1554.9 1485.1 1548.3 1498.4 1549 1502.5 1548.9 1507.9 1545.3 1514.5 1537.4 1527.2 1535.1 1530.2 1533.1 1532.9 1534.9 1535 1532 1538.7 1528.8 1538.2 1500.7 1527.1 1460 1511.1 1483.9 1464.7 1465.7 1457.6 1462.6 1464.6 1449.4 1460.3 1442.8 1456.7 1416.7 1445.4 1412.5 1445.4 1383.4 1436.7 1393.6 1424.4 1418.8 1397.5 1426 1391 1435.6 1381.6 1442.6 1374 1448 1368.1 1453.7 1361.7 1459.4 1355.1 1468.9 1346.7 1474.6 1340.7 1476 1337.2 1478.4 1330.7 1480.9 1324 1482.3 1318 1482.8 1311.8 1483.6 1304.4 1500.3 1305.2 1498 1327.4 1506.6 1328.2 1515.7 1328.4 1525 1327.8 1535.4 1326.7 1541 1325.7 1544.7 1323.7 1549.9 1321.4 1554.2 1319.3 1561 1317.1 1578.5 1315.2 1591.3 1310.8 Z M 1499.8 1430.1 1506.4 1407.7 1508 1400.9 1507.6 1395.5 1482.4 1395.6 1478.7 1415.5 1465 1438.7 1490.9 1448.9 1499.8 1430.1 Z" data-holc_grade="C"/>
<path d="M 1513.2 1638.9 1509.3 1648.1 1502.3 1664.4 1498.1 1675.4 1490.8 1688.7 1469.3 1709.2 1465.4 1710.7 1410 1696.7 1407.5 1694.8 1416.5 1676.7 1416.5 1674.6 1416.8 1671.8 1419.5 1668.8 1423.5 1664.8 1427.4 1661.2 1430.4 1656.6 1431.3 1652.8 1380.5 1640.3 1381.4 1637.2 1397.3 1603.3 1468 1624.3 1513.2 1638.9 Z" data-holc_grade="C"/>
<path d="M 1682.3 1447.4 1658.6 1434.7 1666.2 1426.3 1672.8 1418 1676.7 1410.1 1683.7 1394 1706.8 1398 1714.8 1376.7 1717.7 1361.5 1721.3 1339.8 1730.4 1334.9 1735.6 1325.2 1744.7 1309.4 1749 1297.9 1752.2 1290.6 1767.6 1299.2 1772.3 1302.5 1766.9 1319.3 1764.1 1334.2 1780.1 1336.3 1800.9 1338.5 1806 1335.5 1811.4 1325.4 1820.6 1330.7 1844.2 1343.9 1841.1 1349.2 1835.7 1360.1 1825.9 1372.3 1819.4 1377.3 1815.6 1377.7 1812.4 1376.3 1811.1 1373 1809.5 1371.3 1807.3 1371.9 1800.9 1384.5 1780.6 1434.1 1777.1 1431.8 1765.1 1425.3 1758.3 1421 1756 1419.1 1750.9 1418.5 1746.5 1418.9 1740.7 1422.9 1737.5 1427.6 1732.3 1436.6 1725.9 1444.5 1719.8 1455.8 1711.6 1463.1 1682.3 1447.4 Z M 1829.7 1356.2 1781.9 1351.5 1776.6 1359.1 1797.9 1364 1824.6 1366.3 1829.7 1356.2 Z" data-holc_grade="C"/>
<path d="M 1658.6 1434.7 1682.3 1447.4 1670.6 1448.8 1658.1 1449.1 1637.9 1450 1625.7 1450.5 1619.8 1451.4 1616.8 1452.3 1619.3 1457.6 1624.3 1461.4 1626.6 1461.4 1627.5 1460.3 1629.5 1459 1639.8 1460.6 1657.5 1464.9 1656.1 1467.9 1650 1473 1642.5 1476.6 1631.8 1478.3 1621.6 1478.7 1608.3 1478.3 1597.4 1478.2 1582.2 1476.7 1569.9 1471.5 1562.2 1466.5 1564.7 1451.5 1567.2 1441.9 1572.9 1425.4 1576.2 1400.7 1579.9 1392.9 1580.6 1394.1 1604 1406.4 1625.6 1417.2 1644.3 1426.8 1658.6 1434.7 Z" data-holc_grade="C"/>
<path d="M 405.2 1507.1 427.2 1501.6 443.2 1490.9 450.1 1482.7 499.3 1472.4 501.8 1486.9 508.3 1503.2 516.8 1519.9 523.1 1535.7 531.5 1557.1 502.7 1564.5 449.9 1577.3 446.9 1575.2 437.4 1554.8 423.3 1558.1 405.2 1518.1 405.2 1507.1 Z" data-holc_grade="C"/>
<path d="M 522.1 1757.5 507.6 1759.2 488.7 1758.8 472.4 1754.6 460.6 1750.4 492.3 1741.4 507.9 1737.2 520.5 1732.6 524.9 1736.3 524.9 1743.2 521.9 1746.5 522.1 1757.5 Z M 477.6 1731 457.2 1735.8 450.8 1719.6 478.3 1712.5 480.7 1714.2 477.6 1731 Z M 483.7 1690.1 444.2 1698.9 431.2 1666.5 430.6 1660.4 491.4 1647.1 492.7 1648.9 484.6 1675.5 483.7 1690.1 Z M 493 1634.5 423.9 1652.1 422.2 1604.7 500.4 1586.2 493 1634.5 Z" data-holc_grade="C"/>
<path d="M 1136.6 416.4 1136.3 417.6 1067.8 423.8 1068.2 413.7 1071.2 398.8 1075.3 390.6 1076.4 388.4 1041.4 386.7 1039.4 386.3 1039.2 385.5 1041 358.9 1041.5 357.5 1043.3 357.1 1079.3 361.3 1080.2 360.1 1082.1 350 1083.8 349.2 1088.8 349.3 1089.8 342 1092 332.2 1097.5 332.6 1128.1 329.5 1129.9 344.6 1133.5 365.8 1136.2 383.5 1139.4 398.4 1138.8 405.2 1136.6 416.4 Z" data-holc_grade="C"/>
<path d="M 408.6 1647.7 403.7 1658.9 390.3 1649.5 380.2 1644.1 368.7 1637.9 361.8 1634.1 354.8 1626.8 350.9 1619.5 401.7 1607.1 404.7 1608.7 408.6 1647.7 Z M 356.8 1599.8 342.3 1605.2 336 1599.7 325.6 1592.4 310.4 1584.4 292.5 1575.8 281.3 1570.8 267.9 1559.9 287.4 1559.8 314.9 1553.9 399.9 1531.5 403.3 1535.1 400.9 1563.5 401.5 1589 356.8 1599.8 Z" data-holc_grade="C"/>
<path d="M 834.6 1668.4 831.3 1676.5 823.1 1688.1 813.6 1698 809 1702.7 795.2 1695.3 773 1716.3 718.1 1684.8 705.2 1695.2 734.2 1713.2 689.2 1757.3 659.5 1786.5 623.6 1768 663.4 1729.4 685.5 1708.3 707.8 1688.2 727 1666.6 742.2 1648 744 1640.9 746.8 1636.3 769.5 1617.2 782.2 1624.3 798.4 1636.5 809.9 1644.9 819.4 1653.9 834.6 1668.4 Z" data-holc_grade="C"/>
<path d="M 866.4 1901.9 810.5 1867.9 900.2 1758.2 917 1767.7 948.3 1783.6 953.6 1789.3 974 1804.1 1003.1 1819.9 991.4 1839.2 981.9 1848.7 918.4 1929.8 874 1903.4 866.4 1901.9 Z M 807.9 1815.3 809.8 1814.2 810.4 1809.6 807.7 1803.4 805.3 1800.4 804.7 1797.6 831.3 1770.7 859.1 1737.4 866.4 1741 874.6 1746.4 876.9 1753 876.2 1763.5 848.3 1798.7 824.1 1825.8 807.9 1815.3 Z" data-holc_grade="C"/>
<path d="M 1266.1 1743.3 1287.2 1745.8 1332.2 1753.4 1344.4 1754.5 1344.6 1757.2 1341.9 1765.5 1338.6 1774.1 1335.9 1780.1 1334.1 1785.8 1334.5 1787.8 1339.2 1788.7 1348.6 1790.2 1352.2 1791.6 1355.6 1798.1 1360.5 1810 1362.5 1819.3 1361.8 1827.4 1355.6 1844.8 1352.2 1851.6 1343.5 1864.4 1333.2 1879.5 1323.6 1894.5 1321.6 1900.5 1319.8 1904.2 1315.8 1906.2 1305.7 1911.3 1271.5 1900 1233.3 1883.8 1210.9 1874.3 1212.9 1866.8 1206.4 1842.5 1204 1833.2 1243.5 1839.9 1238.8 1855.3 1249.6 1857.5 1264.3 1812 1248.7 1808.8 1244.7 1823.9 1214 1817.4 1211.8 1815.6 1203.7 1802.9 1201.7 1794.6 1198.6 1788.5 1193.2 1775.2 1189.9 1763.8 1187.2 1749.1 1184.5 1736.3 1184.7 1729 1186.9 1722.3 1211.8 1727.1 1266.1 1743.3 Z" data-holc_grade="C"/>
<path d="M 1305.7 1911.3 1295.9 1963.8 1283 1955.6 1269.4 1945.8 1255.3 1932.8 1245.8 1923.3 1237 1913.7 1232.6 1908.1 1230.4 1901.5 1230.2 1893 1233.3 1883.8 1271.5 1900 1305.7 1911.3 Z" data-holc_grade="C"/>
<path d="M 1647.6 1725 1680.6 1739.8 1685.6 1736.1 1685.2 1733.7 1686.8 1730.2 1689.3 1726.3 1695.6 1720.7 1701.3 1716.4 1710.6 1710.4 1718.3 1708.3 1721.3 1708.8 1713.8 1729.6 1711.9 1750.5 1709.7 1766.7 1706.9 1772 1700.5 1780.6 1697.6 1786 1696 1790.4 1693.3 1791.3 1690.4 1790.6 1686 1789.1 1681.7 1787.7 1671.6 1783.7 1666 1779.9 1658.3 1774.4 1641.5 1792.3 1636.4 1797.4 1631 1798.5 1623 1799.4 1617.6 1799.2 1606.9 1813.3 1601.5 1822 1589.9 1839.5 1586.8 1846.5 1583.9 1853.3 1575.1 1868 1550.9 1854.3 1542.7 1849.6 1510.3 1831.2 1514.5 1828.6 1516.1 1825.4 1517 1821 1527.3 1798.5 1531.3 1793 1532.7 1788.1 1531.1 1786 1528 1784 1541.4 1765.1 1562.8 1740 1583 1720.4 1599 1699.7 1647.6 1725 Z M 1626 1753 1614.2 1748.1 1580.4 1796.8 1591.1 1801.7 1626 1753 Z" data-holc_grade="C"/>
<path d="M 1648.8 2013.6 1627.4 2058.8 1621.8 2055.5 1589.1 2036.7 1568.6 2024.9 1603.1 1987.9 1648.8 2013.6 Z" data-holc_grade="C"/>
<path d="M 1861 1748.2 1891.4 1765.9 1887.3 1772.4 1879.6 1780.5 1869.6 1787.8 1867.6 1788.1 1854 1778.4 1839.7 1769.6 1829.7 1783.6 1824.3 1791.5 1817.2 1807.8 1810.4 1821.8 1802 1835.9 1809.8 1839.6 1817.9 1841.7 1836.3 1845.2 1854.6 1852 1855.6 1851 1857.4 1848.6 1860.1 1846.1 1863 1844 1867.6 1842.9 1871.6 1842.1 1875 1842.8 1879.6 1843.7 1879.8 1854.1 1878 1859.3 1879.3 1871 1874.1 1878.2 1869.9 1878.7 1862.4 1886.3 1848.3 1905.4 1839.7 1916.1 1835.6 1924.9 1827.9 1924.3 1824.2 1928.5 1820.2 1930.4 1817.9 1930.7 1815.8 1929.9 1815 1927.9 1814.1 1923.5 1812.9 1921.1 1809.8 1918.1 1807.7 1915.4 1805.2 1914.1 1802.9 1913.9 1800 1914.9 1798.4 1916.4 1797.2 1919.1 1795.4 1919.5 1792.1 1918.8 1788.7 1917.4 1785.6 1917.1 1781.6 1917.4 1778.5 1918.6 1775.5 1920.3 1775.8 1921.7 1778.5 1923.9 1776.7 1925.6 1773.5 1928.1 1772.6 1930.6 1773.1 1933.7 1761 1949.4 1759.9 1947.9 1736 1935.5 1692.8 1913.9 1691.7 1912.4 1688.1 1910.7 1685.9 1909.3 1685.4 1906.3 1685.4 1901.9 1686.7 1898.1 1688.7 1895.6 1688.7 1893.5 1686.3 1891.5 1667.6 1877.5 1624.5 1856.6 1634.4 1844.9 1656.8 1826.3 1649.8 1822.7 1666.3 1807.1 1669.1 1810.3 1672.1 1810.7 1673.1 1809.2 1682.5 1808.1 1702 1807.6 1708.6 1807.3 1714.2 1805.8 1718.8 1803.7 1727.9 1794.5 1733.8 1788.2 1735.8 1788 1752.6 1793.8 1756.4 1789.6 1759.8 1786.2 1763.5 1783.5 1767.6 1781.2 1772.6 1779 1778.5 1777 1786.4 1775.4 1788 1751.2 1767.1 1739.4 1772.1 1734.9 1777.5 1727.9 1779.6 1724.4 1786.2 1717.8 1793.7 1711 1848.3 1740.3 1831.1 1759.4 1830.2 1762 1841.3 1767.8 1861 1748.2 Z M 1675.5 1815.3 1669.2 1818.8 1675.7 1825.3 1663.9 1842 1688 1857.5 1700.5 1842.2 1759 1882.7 1766.2 1886.6 1769.4 1887.6 1774 1887.3 1777.8 1885.9 1782.1 1882.7 1783 1879.2 1779.2 1875.3 1771.7 1873.1 1768.3 1874.9 1765.6 1875.4 1762.8 1874.7 1732 1853.2 1731.1 1850.2 1744 1834.4 1729.9 1827.2 1715.9 1842.1 1675.5 1815.3 Z" data-holc_grade="C"/>
<path d="M 778.4 1909.2 761.1 1931.4 772.3 1937.6 750 1962.7 722.8 1981.6 720.7 1983.1 706.2 1972.7 697.9 1970 692.1 1972.6 675.5 1961.1 687.4 1949.7 737.2 1905.8 753.3 1896.1 778.4 1909.2 Z" data-holc_grade="C"/>
<path d="M 1070.6 1803.8 1099.1 1802 1133.3 1804.3 1139 1813.9 1143.4 1833.2 1150.8 1851.2 1162.2 1873 1169.2 1893.1 1171.6 1907.5 1175.6 1923 1177.9 1944.3 1173.6 1961.6 1171.2 1972 1163.1 1972.2 1129.8 1980 1119.5 1985 1079.4 1985.8 1075.1 1983.2 1072.3 1974 1073.8 1968.6 1072.7 1954.5 1050.4 1953.5 1049.4 1952 1048.3 1929 991.8 1916.1 990.9 1911.5 1003.1 1901.5 1003.6 1899.8 1003.6 1897.8 1002.4 1895.8 999.3 1893.4 994 1884.9 995.6 1872 998.6 1862.9 1011.5 1853.2 1032.3 1834.4 1061.7 1854.4 1062.2 1840.4 1060.2 1817.2 1070 1814.8 1070.6 1803.8 Z" data-holc_grade="C"/>
<path d="M 1076.3 440.5 1076.2 444.5 1075.5 452.7 1075.6 460 1075.5 463.3 1078.4 463.5 1081.9 464.1 1085.8 465 1089.4 466.9 1091.4 468.4 1099 468.1 1104.3 467.9 1113.9 467.8 1119.4 468 1144.8 467.2 1148.4 481.2 1149.6 493.2 1147.2 493.5 1145 492.4 1141.3 489.1 1136.8 486.9 1132.9 485.7 1127.3 486.2 1124 487 1118.2 487.7 1112.2 487 1108.7 484.9 1105.1 481.8 1102.6 481.7 1089 483.5 1074.7 487.2 1064.6 491.9 1048.7 494.2 1046.1 492.7 1044.6 492.3 1038.3 490.5 1006.8 487.7 978.7 483.5 965 480 945.8 475.7 910.8 470 918.5 448 920.6 446.4 976.2 451.7 994.7 452.7 1056.9 455.4 1056.9 440.6 1071.3 439.5 1076.3 440.5 Z" data-holc_grade="C"/>
<path d="M 1550.9 1854.3 1575.1 1868 1611.3 1885 1590.1 1910.5 1574.8 1926.2 1573.1 1927.9 1553.4 1947.4 1545.1 1956.5 1531.7 1963.4 1520.5 1967.8 1507.1 1970 1497.7 1970 1476.3 1958.9 1512.1 1907.5 1526.6 1887 1550.9 1854.3 Z M 1510.3 1831.2 1542.7 1849.6 1498.6 1902.3 1462.4 1954.6 1457.4 1964 1450.3 1958.9 1431.6 1958.1 1413.1 1947.5 1415.8 1935.3 1422.2 1920.1 1438.9 1889.9 1456.4 1866.5 1475.2 1830.5 1507.4 1835.3 1510.3 1831.2 Z" data-holc_grade="C"/>
<path d="M 1457.4 1964 1503.3 1990.8 1518.6 1998.8 1493.5 2024.9 1486.5 2034.7 1473.1 2044.8 1447.1 2065.1 1430 2084.4 1420.5 2101.5 1418 2117.4 1413 2117.6 1407.7 2097.5 1404.6 2088.6 1401.8 2072.7 1400.1 2067.7 1402.6 2061.7 1404.9 2057.9 1412.7 2044.6 1441.5 2011.8 1397.9 1987.9 1413.1 1947.5 1431.6 1958.1 1450.3 1958.9 1457.4 1964 Z" data-holc_grade="C"/>
<path d="M 1568.6 2024.9 1589.1 2036.7 1562.4 2078.3 1545.7 2105.8 1526.1 2130.1 1523 2131.6 1507.7 2150.2 1496.1 2144.3 1476.5 2134.3 1470.8 2131.4 1469.9 2129.5 1435.3 2109.2 1431.9 2108.8 1428.6 2113.2 1424.9 2116.2 1418 2117.4 1420.5 2101.5 1430 2084.4 1447.1 2065.1 1473.1 2044.8 1486.5 2034.7 1493.5 2024.9 1518.6 1998.8 1568.6 2024.9 Z" data-holc_grade="C"/>
<path d="M 1627.4 2058.8 1680.7 2087.5 1671.4 2100.1 1665.5 2106.5 1662.8 2109.4 1658 2114.5 1646.6 2124 1637.9 2119.8 1622.5 2132.9 1619.2 2128 1614.7 2127 1629 2080.2 1634 2071.8 1618.9 2064.7 1607.2 2102.9 1562.4 2078.3 1589.1 2036.7 1621.8 2055.5 1627.4 2058.8 Z" data-holc_grade="C"/>
<path d="M 1554 2234.7 1554.1 2236.8 1551.4 2241.6 1551.2 2248.5 1549.8 2250.7 1543.6 2260.7 1548.3 2261.2 1547.8 2272.4 1531.7 2294.7 1504.3 2281.4 1514.5 2261.8 1526.5 2248 1544.2 2229 1554 2234.7 Z" data-holc_grade="C"/>
<path d="M 1590.8 2161.8 1589 2168.7 1592.2 2174.1 1590.2 2179.9 1579.7 2208.1 1568.9 2202.3 1551.1 2192.8 1559.3 2181.1 1576.3 2161.2 1589.3 2150.3 1596.5 2154.2 1596.5 2157.4 1590.8 2161.8 Z" data-holc_grade="C"/>
<path d="M 1622.5 2132.9 1624 2140.9 1621.4 2147.3 1612.9 2154.3 1605 2154.9 1597.2 2151.7 1592.5 2146.6 1593.9 2138.9 1599.9 2132.1 1609.1 2127.7 1614.7 2127 1619.2 2128 1622.5 2132.9 Z" data-holc_grade="C"/>
<path d="M 1835.6 1924.9 1810.6 1963.6 1800 1963.5 1791.3 1976.7 1776.4 1982 1775.2 1988.4 1772.4 2000.2 1769.6 2013.4 1767.4 2023.8 1764.1 2033.2 1735.6 2023.6 1738.2 2012.7 1741.3 2000.8 1744.1 1989.3 1746.8 1982 1748.8 1977.6 1752.3 1971.4 1761.3 1956.8 1762.1 1953.7 1761 1949.4 1773.1 1933.7 1772.6 1930.6 1773.5 1928.1 1776.7 1925.6 1778.5 1923.9 1775.8 1921.7 1775.5 1920.3 1778.5 1918.6 1781.6 1917.4 1785.6 1917.1 1788.7 1917.4 1792.1 1918.8 1795.4 1919.5 1797.2 1919.1 1798.4 1916.4 1800 1914.9 1802.9 1913.9 1805.2 1914.1 1807.7 1915.4 1809.8 1918.1 1812.9 1921.1 1814.1 1923.5 1815 1927.9 1815.8 1929.9 1817.9 1930.7 1820.2 1930.4 1824.2 1928.5 1827.9 1924.3 1835.6 1924.9 Z" data-holc_grade="C"/>
<path d="M 1686.9 2130.4 1692.4 2121.3 1695.4 2116.4 1700.5 2107.1 1707.5 2094.2 1710.1 2085 1711.3 2080.7 1715.1 2077.7 1722.4 2074.1 1728.9 2068.9 1733.8 2063.3 1735 2054.1 1734.5 2046.4 1733.6 2037 1733.6 2029.8 1735.6 2023.6 1764.1 2033.2 1757.6 2053.2 1754.6 2067.7 1754.6 2076 1753.7 2088.5 1752 2094.7 1748.6 2100 1745.7 2104.2 1730.7 2131.8 1720.7 2146.3 1714.8 2145.7 1709 2147.2 1686.9 2130.4 Z" data-holc_grade="C"/>
<path d="M 561.6 2152 551.1 2162.4 542.9 2167.4 539 2172 534.8 2182.7 531.6 2192.9 528.9 2195.8 525.7 2193.5 503.4 2187.9 494.1 2180.7 483.7 2177.8 508.6 2135.6 516.6 2122.3 518.4 2115 513.5 2109.5 511.1 2106.8 515 2103.3 525.2 2104.5 539.4 2100.1 561.6 2152 Z" data-holc_grade="C"/>
<path d="M 245.8 488.1 245.4 500.4 236.6 520.3 239.6 524.4 289.6 534.7 285.7 547.9 280.2 555.1 263 578.2 240.1 611.6 239.4 615.1 238.6 619.4 231.9 630.2 218.5 642.3 209.3 650 197.8 653.2 180 658.4 169.6 660.3 157.2 661.3 146.2 660 139.2 657.7 130.5 652.1 123.8 641.1 110.6 623.9 107.8 616.6 106 609.9 100.8 605 86.9 607 77.1 604.5 60.8 591.4 59.2 587.2 57.3 582.1 45.8 569.2 36 565.7 35.2 564.4 56.7 551.7 59.6 547.2 54.3 533.4 49.6 525.9 41.8 516.1 36.6 513.2 23.7 506.6 1 492.8 18.5 462.8 68.4 464.5 102.6 464.6 126.2 448 136.2 442.8 152.9 457.2 130 471.9 146.4 485.1 157.9 485.6 167.3 488.2 179.1 492.9 187.4 494.1 201.5 494.4 207.5 491.4 215.2 489.4 227 484.2 232.1 483.3 237.5 484.3 245.8 488.1 Z M 180.7 604.2 166 571.6 154.2 575 167.4 609.1 180.7 604.2 Z" data-holc_grade="C"/>
<path d="M 347 2166.5 313.8 2151.1 325.8 2135.5 332.8 2117.1 337.4 2098.9 339.6 2093 344.2 2077.4 345.5 2064.4 353 2062.4 370.5 2052.7 378 2056.7 386.8 2058.8 397.9 2067.2 398.6 2071 396.7 2075.9 392.7 2081.1 385.7 2088.8 378.4 2093.5 369.7 2102 369.2 2106.6 373.6 2114.5 372.1 2118.5 367 2125 360.6 2138.6 354.9 2152.1 347 2166.5 Z" data-holc_grade="C"/>
<path d="M 650.4 1967.3 657 1970.9 651.3 1975.9 632.9 1995.1 624.2 2011.7 620.7 2011.5 618.4 2012.4 615 2018.3 613.3 2021.3 612.8 2023.9 610.3 2022.5 550.9 1989.7 527.5 1976.8 533.5 1965.8 540.7 1956.7 546.9 1948 550.3 1943.9 552.9 1936.5 554.3 1934.7 569.7 1924.1 576.5 1918.6 588.5 1907.3 590.6 1908.3 623.6 1926 607.9 1943.4 650.4 1967.3 Z" data-holc_grade="C"/>
<path d="M 656.1 2050 624.2 2030.7 628.4 2021.7 627.6 2015.4 624.2 2011.7 632.9 1995.1 651.3 1975.9 657 1970.9 670.7 1959.1 675.5 1961.1 692.1 1972.6 697.9 1970 706.2 1972.7 720.7 1983.1 722.8 1981.6 746.3 1996.3 689.9 2068.7 666.2 2056.2 656.1 2050 Z" data-holc_grade="C"/>
<path d="M 444.5 2224.5 425 2253.7 404.3 2243.2 423.4 2212.3 444.5 2224.5 Z M 407.7 2203 378.6 2246.1 364.3 2240 367.6 2233.1 348.4 2221.4 341.5 2228.2 330.1 2234.9 315.8 2226.5 323.8 2214.3 326.7 2209.7 326.3 2205.5 312.6 2198.4 279.1 2238 354.9 2280.3 323.8 2320.6 303.9 2348.3 290.7 2367.4 288.9 2368.8 284.4 2372.7 253.5 2354.7 271.6 2338.2 281.4 2344.8 309 2317.2 193.7 2249.4 197.4 2241.4 201.5 2236.5 206.7 2230.8 212.3 2225.8 220.8 2217.5 228.4 2209.5 233.2 2202 235.4 2195.8 237.1 2190.9 240.4 2184.9 243.2 2180.9 246.7 2178.8 253.5 2176.7 257.8 2175.5 260.9 2175.6 270.7 2173 292 2165.4 301.3 2161.5 306.4 2158.3 310.7 2154.3 313.8 2151.1 347 2166.5 354.3 2170.3 407.7 2203 Z" data-holc_grade="C"/>
<path d="M 351.3 2343.8 354.4 2344.9 368 2349.5 374.8 2350.6 392.3 2351.6 397.5 2349.7 400 2350.2 394.3 2372.6 390.7 2379.5 386.6 2387.6 380 2389.6 367.3 2386.1 363.4 2385.7 359.8 2386.4 356.6 2389.6 344.6 2408 297 2395.6 295.4 2399.1 292 2403.4 281.3 2412.9 277 2407.2 265.4 2398.5 250.9 2387.5 241.6 2385.3 205.2 2362.9 217.4 2353.3 221 2347.1 224.4 2340.9 252.4 2355.9 253.5 2354.7 284.4 2372.7 288.9 2368.8 292.7 2371.2 300.6 2371.9 303.8 2373.4 308.1 2373.9 325.4 2350.2 337.5 2336.4 351.3 2343.8 Z" data-holc_grade="C"/>
<path d="M 235.3 2448.9 225.7 2460.9 192.7 2501.7 186.7 2506.8 170.5 2521.3 187.1 2530.7 241.8 2466.1 263.2 2476.7 236.7 2509.1 256.9 2517.8 265.3 2522.1 272.3 2524.9 277.6 2527.9 280.1 2531.9 280.5 2538.8 276.7 2549.8 270.8 2560.7 257.9 2579.8 111.7 2499.3 115.9 2494.6 119.3 2485.3 143 2455.7 155.3 2440.8 189 2458.4 209.8 2435.7 235.3 2448.9 Z" data-holc_grade="C"/>
<path d="M 343.5 495.5 342.9 497.1 324.5 506.7 304.6 520.3 298.5 525.4 293 535.4 289.6 534.7 239.6 524.4 236.6 520.3 245.4 500.4 245.8 488.1 254.3 491 265.7 491.1 280.6 488.1 300.6 489.7 320 492.8 343.5 495.5 Z" data-holc_grade="C"/>
<path d="M 427.9 598.1 428.5 662.1 391.1 653.6 392.1 645.5 362.7 637.8 364.8 633.6 365 633.2 368.6 626.2 390.3 599.7 391.1 599.8 419 604.9 420.1 595.6 427.9 598.1 Z" data-holc_grade="C"/>
<path d="M 368.9 685.9 360.9 696.6 358.9 703.5 358.2 708.2 361.8 718 344.3 724.8 349.5 740.5 334.6 744 324.3 744.7 317.5 743.6 311.6 741.1 306.7 741.1 303.4 740 302.3 739.6 312.3 722.3 329.4 707.2 340.2 682.5 359.9 683.8 368.9 685.9 Z" data-holc_grade="D"/>
<path d="M 940.5 1697.1 964 1664.3 972.9 1669.8 980.4 1673.2 1000 1674.7 1009.2 1673.2 1023.2 1673.2 1027.7 1673.4 1048.6 1698.3 1070.2 1734.7 1083.3 1752.4 1054.2 1760.7 1051.4 1759.4 1041.1 1737.4 1024 1734.9 1018.5 1745.3 1016.1 1745.6 996.6 1740.8 990.5 1737.1 985.4 1732.5 984.1 1728.4 984.8 1720.5 986.1 1712 987.5 1703.8 987.9 1700.9 986.6 1698.8 985.9 1698.4 983.2 1698.6 968.9 1700.8 954.2 1698.6 940.5 1697.1 Z" data-holc_grade="D"/>
<path d="M 1603.2 1691.9 1599 1699.7 1583 1720.4 1562.8 1740 1541.4 1765.1 1528 1784 1510.2 1774.8 1571.3 1679.2 1603.2 1691.9 Z" data-holc_grade="D"/>
<path d="M 1661.6 1986.7 1656.4 1997.6 1615.1 1974.9 1630.3 1958.6 1640.1 1949 1672.7 1966.4 1661.6 1986.7 Z" data-holc_grade="D"/>
<path d="M 367.5 1856.8 358.2 1841.9 348.1 1827.9 347.9 1819.9 349.3 1814.5 357.1 1809.4 367.6 1805.6 376.8 1803.4 390.2 1801.3 400.7 1801.3 410.5 1803.2 417.2 1805.9 421.3 1809.6 423.9 1813.3 424.4 1817.7 424.8 1823.5 426.6 1829.1 427.1 1833.6 433.6 1838 439.2 1839.7 449.9 1841.2 463.7 1834 470.7 1827.7 477.2 1819.6 480.3 1812.5 482.5 1804 492.1 1805.4 526.1 1815 552.7 1825.8 569.1 1833.6 557.2 1875.2 547.6 1922.8 542.9 1929.9 512.7 1953.4 489.9 1938.5 513.8 1915.5 497.7 1908 497.3 1905.2 513.8 1889.1 521.4 1885.7 524.6 1881.5 501.8 1869.8 498.6 1871.3 483.9 1887.1 471.1 1896.2 462.4 1902.6 453.9 1906.3 446.5 1906.7 439.6 1913.3 438.5 1915 431.5 1904.7 423.9 1894.7 415.9 1885.5 402 1873.9 383.5 1861.9 367.5 1856.8 Z" data-holc_grade="D"/>
<path d="M 866.4 1901.9 836 1934.4 827.4 1946.2 813.7 1962.7 801.1 1972.5 785.2 1983.9 750 1962.7 772.3 1937.6 761.1 1931.4 778.4 1909.2 810.5 1867.9 866.4 1901.9 Z" data-holc_grade="D"/>
<path d="M 1630.3 1958.6 1615.1 1974.9 1603.1 1987.9 1568.6 2024.9 1518.6 1998.8 1503.3 1990.8 1534.2 1983.7 1535.7 1982.2 1530.5 1973.9 1545.1 1956.5 1553.4 1947.4 1573.1 1927.9 1574.8 1926.2 1601.5 1942.8 1630.3 1958.6 Z" data-holc_grade="D"/>
<path d="M 1554 2234.7 1544.2 2229 1528.7 2220.1 1537.1 2209.8 1559 2221.1 1554 2234.7 Z M 1568.9 2202.3 1562.2 2216.3 1541 2206.1 1544.3 2202 1537.5 2197.2 1544.9 2189.5 1551.1 2192.8 1568.9 2202.3 Z" data-holc_grade="D"/>
<path d="M 1531.7 2294.7 1547.8 2272.4 1548.3 2261.2 1550.5 2257.3 1565 2256 1563.9 2271 1559.2 2278.6 1546.7 2301.3 1531.7 2294.7 Z" data-holc_grade="D"/>
<path d="M 505.4 2017.8 510.1 2035 519 2054.5 530.2 2082.8 530.8 2086.6 528.8 2086.5 526.1 2085.7 516.5 2082.8 510.9 2077.9 515.6 2066.6 483.9 2046.3 489.1 2037.9 492.3 2024.9 495.9 2019.9 481.2 2010.8 492.9 1998 494.8 2000.7 500.5 2008.4 505.4 2017.8 Z" data-holc_grade="D"/>
<path d="M 367.8 1865.6 378 1869.1 387.9 1875.1 396.8 1883 405.2 1890.7 415.4 1905 426.7 1919.8 437.8 1930.6 455.9 1942.3 451 1946 447.6 1948.1 436.6 1949 432.2 1948.1 424.1 1939.7 414.1 1928.9 409 1925.3 379.3 1913.5 369 1930.8 354.7 1919.4 360.4 1908.4 363.9 1893.5 366.9 1869.7 367.8 1865.6 Z" data-holc_grade="D"/>
<path d="M 1258 618.4 1258.9 615.2 1268.9 613.7 1273.1 613.4 1277.7 611.9 1280.2 609.9 1281.4 606.8 1280.4 602.8 1277.9 597.7 1275.4 592.9 1271.8 584.1 1271.2 578.9 1270.9 569.7 1270.7 568 1268.9 565.7 1267.2 563.4 1267.2 561.8 1269 555.1 1273.2 546.5 1276.3 540.5 1281.3 539 1285.6 536.4 1291.9 533.5 1298 531.4 1300.8 530.8 1303.7 530.5 1306.1 530.8 1308.8 532 1313.4 534.5 1317.1 537.5 1320.2 542.1 1322.2 544.7 1324.9 545.9 1326.1 547.2 1327 551.2 1327.7 553 1328.8 553 1330.4 552.4 1332.7 551.9 1334.1 552.3 1334.7 553.4 1334.8 554.9 1335.2 555.9 1336.6 556.5 1336.7 557.5 1336 558.9 1334 561.8 1334.3 563.2 1335.7 563.9 1338.8 563.5 1340.3 564 1341.9 565.4 1346.2 565.8 1350.9 564.4 1355.1 563 1358.4 562.3 1361.8 563.3 1364.7 564.8 1368.5 565.2 1371.8 565.3 1376.3 565.3 1381.9 564.6 1387 562.8 1394 560.1 1401.5 556.7 1405.9 556.8 1409.7 558.7 1410.2 561 1410.5 563.9 1411.9 563.5 1414.4 562.5 1418.4 563 1421.9 564.7 1424 566 1424.4 570.4 1423.8 592.3 1422.9 604 1423.2 619.9 1424.4 622.6 1427 627.7 1430.3 631 1421.7 654.8 1418.8 655.8 1413.2 655.3 1401.5 652.6 1380.4 646.1 1335.5 634.7 1325.3 634.4 1303.4 630.8 1289.5 627.4 1273.9 624 1264 621.5 1258 618.4 Z" data-holc_grade="D"/>
<path d="M 589.6 2047.9 568.9 2015.8 550.9 1989.7 610.3 2022.5 607.3 2030.3 600.6 2039.3 589.6 2047.9 Z M 530.2 2082.8 519 2054.5 510.1 2035 505.4 2017.8 507.4 1996.5 516.1 1972.3 543.1 2011 549.8 2022.9 562.8 2052.1 530.2 2082.8 Z" data-holc_grade="D"/>
<path d="M 612.8 2023.9 624.2 2030.7 656.1 2050 561.6 2152 539.4 2100.1 574.8 2065.4 591.1 2050.5 589.6 2047.9 600.6 2039.3 607.3 2030.3 610.3 2022.5 612.8 2023.9 Z" data-holc_grade="D"/>
<path d="M 1504.3 2281.4 1481.3 2271.1 1501.9 2245.4 1515.1 2232.6 1528.7 2220.1 1544.2 2229 1526.5 2248 1514.5 2261.8 1504.3 2281.4 Z M 1476.5 2134.3 1448.4 2160.4 1467.7 2171.8 1496.1 2144.3 1507.7 2150.2 1523 2131.6 1526.1 2130.1 1551.3 2144.7 1552.1 2146.9 1563.4 2152.7 1531.5 2192.5 1530.8 2196.8 1526 2200.5 1524 2201.7 1494.1 2231.8 1480.4 2246.4 1474.2 2255.8 1473.5 2255.4 1461.9 2219.4 1459.7 2209.3 1458.2 2205.9 1457.9 2202.5 1455.8 2196.6 1452.4 2188.5 1450.9 2181.3 1446.2 2169.7 1442.9 2161.6 1433.2 2159.1 1420.1 2158.2 1421 2172.3 1430.1 2172.1 1444.1 2209.9 1421.9 2208.6 1397.1 2237 1354.1 2218.4 1352.6 2217.1 1352.2 2205.9 1352.1 2200.7 1352.9 2198 1354.5 2194.8 1360.1 2189.2 1363.1 2184.1 1365.6 2179.7 1367.5 2177.2 1367.6 2173.1 1367.9 2171 1366.3 2168.3 1364.7 2167 1359.4 2162.8 1356.3 2158.2 1352.7 2153.3 1349.9 2150.6 1348.4 2148.3 1349.5 2145.9 1351.7 2144.4 1356.8 2144 1358.2 2144.4 1360 2143.7 1362.7 2142 1366.4 2140.6 1369.5 2141.2 1371.6 2143 1373.5 2145 1375.9 2144.9 1379.2 2143 1386.3 2139.8 1392.7 2135.5 1396.7 2132.1 1402.1 2127.9 1408.5 2124.3 1414.2 2121.6 1413.2 2119.4 1413 2117.6 1418 2117.4 1424.9 2116.2 1428.6 2113.2 1431.9 2108.8 1435.3 2109.2 1469.9 2129.5 1470.8 2131.4 1476.5 2134.3 Z" data-holc_grade="D"/>
<path d="M 253.5 2354.7 252.4 2355.9 224.4 2340.9 219.7 2338.1 212.9 2334.5 200.7 2329.8 191.9 2325.9 186 2321.4 182.4 2318.9 178.1 2316.3 176.6 2312.7 177 2309.5 178 2304.1 180.3 2298.8 182.8 2290.2 185.6 2283.1 186.7 2276.2 188.3 2269.2 189.8 2259.7 191.7 2253.7 193.7 2249.4 309 2317.2 281.4 2344.8 271.6 2338.2 253.5 2354.7 Z" data-holc_grade="D"/>
<path d="M 465.2 2236.4 441.5 2272.3 441.6 2275 459.9 2284.9 467.9 2287.9 476 2293 480.3 2295.3 481.3 2297.6 453.3 2331.1 447 2333.5 435.9 2323.8 418.2 2317.3 408 2329.5 402.5 2331.6 400.5 2329.6 398 2320.7 398.7 2306.8 398.6 2298.8 398.2 2292.2 383.1 2306.5 363 2332.1 351.3 2343.8 337.5 2336.4 404.3 2243.2 425 2253.7 444.5 2224.5 465.2 2236.4 Z M 330.1 2234.9 341.5 2228.2 348.4 2221.4 367.6 2233.1 364.3 2240 378.6 2246.1 376.8 2252.5 366.8 2264.3 360.5 2268.9 343.5 2248 330.1 2234.9 Z" data-holc_grade="D"/>
<path d="M 265.4 2398.5 235.3 2448.9 209.8 2435.7 189 2458.4 155.3 2440.8 167.8 2415.5 176.9 2399.3 192.6 2381.3 195.3 2373.6 205.2 2362.9 241.6 2385.3 250.9 2387.5 265.4 2398.5 Z" data-holc_grade="D"/>
<path d="M 349.5 740.5 354 754.1 344.2 761.2 324.7 768.5 324.5 771.9 322.6 774.2 322.1 776.7 316.8 779.5 289.6 807.9 284.3 817.7 283 829.5 271.1 830 272.4 821.7 274 811.1 281.3 794.2 285 776.9 303.4 740 306.7 741.1 311.6 741.1 317.5 743.6 324.3 744.7 334.6 744 349.5 740.5 Z" data-holc_grade="D"/>
<path d="M 1109.6 1585.6 1124.2 1593.2 1120.4 1596 1114.9 1599.6 1111.5 1604.5 1109.3 1612.6 1107.4 1620.3 1111.5 1623.1 1107.7 1631.3 1114.9 1631.5 1120.6 1633 1130.1 1635.6 1136.2 1638.1 1140.3 1640.3 1142.1 1644.1 1141.9 1652.1 1139.9 1665.9 1138.7 1672.2 1136.2 1680.6 1135.4 1684.9 1136.2 1690.2 1136.7 1697.8 1135.3 1701.6 1135.6 1706.5 1137.4 1710.2 1138.7 1712.1 1139.2 1716.7 1140.8 1724.3 1142.1 1733.4 1142.9 1737.1 1147 1743.4 1153.3 1750.3 1159.5 1756 1163.1 1760 1164.7 1763.5 1164.3 1770 1163.9 1777.1 1161.2 1776.9 1156.5 1777 1147.8 1778.5 1136.7 1780.8 1108.9 1785.9 1106.1 1782.6 1097.6 1770.1 1090 1761.3 1083.3 1752.4 1070.2 1734.7 1048.6 1698.3 1027.7 1673.4 1023.2 1673.2 1009.2 1673.2 1000 1674.7 980.4 1673.2 972.9 1669.8 964 1664.3 940.5 1697.1 928.4 1695.3 917.3 1689.5 908.3 1681.4 928.1 1659.9 936.3 1648.4 942.4 1640.3 953.8 1633 966.5 1625.3 974.6 1612.4 993.1 1627.5 1000.1 1630.5 1015.3 1630 1020.6 1627.8 1027.8 1628.5 1055.3 1631.7 1065.4 1635.4 1070.3 1646.2 1081.9 1671.9 1089.3 1681.6 1090.4 1686 1099.1 1684.6 1089.1 1653.8 1082.3 1637.9 1076.6 1625.3 1072.1 1618.9 1071.2 1603.5 1074.8 1590 1084.8 1572.6 1109.6 1585.6 Z" data-holc_grade="D"/>
<path d="M 1055.8 1488.3 1064.2 1496.4 1043.9 1531.7 1055.9 1537.3 1043.1 1556.5 1031.5 1552.1 1018.4 1545.4 996.8 1533.5 985.7 1527.2 1006.5 1490.5 1001.9 1487.6 1010.6 1469.9 1010.5 1466.8 1051.9 1492.1 1055.8 1488.3 Z" data-holc_grade="D"/>
<path d="M 1693 1563.8 1691.2 1579.7 1688.9 1588.9 1681.9 1599 1672.6 1608.2 1658.1 1620.4 1646.7 1630 1638.1 1636.2 1631.5 1640.8 1623.6 1652.3 1619.8 1656.6 1593 1648.6 1600.3 1638 1598.2 1636.7 1604.3 1629.6 1605.5 1630.4 1606.8 1628.8 1612.3 1630.7 1615.5 1625 1592.1 1614 1601.8 1601.8 1616.8 1581.7 1624 1568.7 1610 1556.7 1535.1 1530.2 1537.4 1527.2 1545.3 1514.5 1548.9 1507.9 1549 1502.5 1548.3 1498.4 1554.9 1485.1 1558.9 1477.3 1562.2 1466.5 1569.9 1471.5 1582.2 1476.7 1597.4 1478.2 1608.3 1478.3 1621.6 1478.7 1631.8 1478.3 1642.5 1476.6 1650 1473 1656.1 1467.9 1657.5 1464.9 1666.6 1469.8 1661.7 1475.3 1655.9 1479.6 1647.2 1482.5 1636.8 1485.6 1635.2 1514.6 1677 1475.3 1698.4 1486.8 1646.5 1536.4 1693 1563.8 Z" data-holc_grade="D"/>
<path d="M 625.5 1545.2 617.4 1573.1 599.7 1629.1 557.3 1674.6 589.4 1691.9 546.2 1711.5 517 1722.1 501.1 1729.8 497.3 1731.4 494.7 1728.7 495.4 1712.5 497.9 1701.7 499.7 1687.7 501.5 1677.6 501.8 1667.3 504.1 1658.4 506.8 1647.6 508.4 1635.2 509.8 1628.1 512.8 1616.7 517.5 1611.3 522.9 1604.7 527.2 1594.4 527.9 1582.7 527.9 1573.8 532.3 1568.2 625.5 1545.2 Z" data-holc_grade="D"/>
<path d="M 589.4 1691.9 557.3 1674.6 599.7 1629.1 617.4 1573.1 625.5 1545.2 684 1530.7 705.1 1522.2 714.1 1518.8 722.3 1518.9 726.8 1520.5 734 1524.6 766.3 1544.3 811.4 1567.5 813.5 1570.2 772.7 1591 744.3 1604.4 769.5 1617.2 746.8 1636.3 744 1640.9 742.2 1648 727 1666.6 707.8 1688.2 685.5 1708.3 663.4 1729.4 623.6 1768 603.6 1755.2 605.9 1750.6 589 1741.1 570.8 1732 565.9 1726.8 570.4 1721.7 575.8 1717.7 581.2 1716.2 589.1 1717.7 598.9 1708.6 604.2 1702.2 620.6 1692.5 636.9 1684.4 653.1 1676.8 663.2 1671.9 674.7 1665.2 684 1657.9 685.9 1655.6 685.5 1652.8 686.3 1649.9 688 1647.7 688.7 1643.4 686.7 1642 685.9 1639.5 686.1 1636.5 677.8 1633.6 686.3 1613.1 689.6 1602.6 689.2 1598.5 687.5 1596.7 684.9 1595.5 662.5 1594.5 650.6 1612.8 641.7 1631.2 638.9 1637 631.8 1647.8 649.4 1655.4 639.4 1664.6 635.5 1666.4 633.4 1671.5 627.5 1672.8 609.5 1682.7 589.4 1691.9 Z" data-holc_grade="D"/>
</g>
</svg>