<?xml version="1.0"?>
<svg xmlns="http://www.w3.org/2000/svg" version="1.2" baseProfile="tiny" width="3000" height="5106" viewBox="0 0 3000 5106" stroke-linecap="round" stroke-linejoin="round">
<g id="A">
<path d="M 504.5 349.6 526.1 359.1 543.1 367.7 555.2 383.2 561.7 402.7 569.7 436.3 570.7 462.3 566.7 490.9 564.7 508.4 559.1 526.9 522.9 518.4 489.7 517.4 482.7 500.8 481.2 489.8 481.7 481.8 463.7 394.1 504.5 349.6 Z" data-holc_grade="A"/>
<path d="M 2380.5 2638.7 2387.1 2593.5 2388.1 2586.4 2493.4 2582.3 2508.6 2578.5 2507 2611.2 2508.4 2707.6 2506.8 2710.9 2498.2 2711.3 2496.6 2712.7 2491.9 2737 2445.6 2736 2443.2 2723.2 2435.5 2709.1 2424.8 2692.5 2411.5 2673.2 2399.4 2656.6 2387.7 2643.1 2380.5 2638.7 Z" data-holc_grade="A"/>
<path d="M 627.2 761.2 623 747 617.2 644.3 630.2 630.9 630.2 616.3 634.6 616.4 643.6 605.7 654 602 667.1 601 680.2 597 692.2 597.4 700.6 604.7 702.6 610.7 702.9 650.1 705.3 663.5 703.2 683.9 708.6 710.9 726 751 723.6 756.7 627.2 761.2 Z" data-holc_grade="A"/>
<path d="M 567 809.7 587.8 803.3 595.1 798.6 645.8 794.9 675.6 791.1 726.7 803.1 755.7 812.2 767.5 817.6 778.7 882 712.2 859.2 692.1 914 644.3 910.5 657.7 970.3 649.9 976.5 638.4 941.5 630.1 919 614.3 879.5 606 863.4 567 809.7 Z" data-holc_grade="A"/>
<path d="M 2500.5 1244.9 2509.4 1253.6 2511.8 1256.8 2513.7 1259.2 2497.9 1268.6 2463.3 1286.8 2437.8 1302.9 2414 1309.8 2410.7 1309 2406.4 1302.9 2400.8 1296.7 2394.1 1291.9 2386.3 1288.5 2376.6 1281 2372.3 1275.6 2367 1269.2 2363.7 1261.2 2356.5 1255.6 2352.5 1250 2343.9 1246.5 2337.4 1242.5 2336.6 1236.6 2339.3 1236.1 2368 1235.6 2403.7 1230.7 2407.7 1239.3 2411.2 1241.1 2489 1216 2505.1 1215.9 2509.7 1218.1 2517.2 1219.4 2519.1 1221.8 2514.8 1225.6 2505.7 1232.8 2498.4 1239.7 2497.1 1241.6 2500.5 1244.9 Z" data-holc_grade="A"/>
<path d="M 502.3 868.3 519.2 905.7 521.6 917.7 525 932.7 522.6 951.9 514.6 979.5 479.4 974.2 450.3 968 420.3 964.8 398 970.7 380.9 970.5 368.2 964.7 372.2 955.1 374.2 947.3 376.7 936.7 375.5 928 375.5 918.2 380.9 908.6 375.5 888 380.1 880.7 379.3 865.5 384 860.7 385 852.5 388.8 847.7 414.8 853.1 466.9 861.6 484.4 865 502.3 868.3 Z" data-holc_grade="A"/>
<path d="M 438.8 1058.5 517.4 1094.1 513.9 1106.1 501.8 1125.4 499.9 1133.6 500.5 1152.6 454.3 1143.3 441.9 1200.7 427.7 1259.2 358.3 1216.1 359.3 1209.2 393.8 1143.1 419.6 1097.4 427.8 1083.2 433.8 1057.1 438.8 1058.5 Z" data-holc_grade="A"/>
<path d="M 296.7 1477.6 282.7 1514.7 237.8 1574.9 219.5 1560.2 180.3 1536.1 153.8 1514.3 184.4 1462.6 254.8 1315.3 301.2 1344.6 278.3 1410.7 284.4 1430.5 292.7 1442.2 303.5 1454.5 296.7 1477.6 Z" data-holc_grade="A"/>
<path d="M 1833.2 1286.8 1815.3 1281.9 1791 1272.9 1766.5 1263.4 1741 1251.9 1725.6 1246 1717.2 1240.5 1711.3 1231.3 1706 1219.2 1708 1212.6 1723.2 1181.5 1744.4 1191.8 1753.7 1169.7 1768.5 1174 1777.8 1173.3 1784.2 1184.4 1815.2 1244.5 1833.2 1286.8 Z" data-holc_grade="A"/>
<path d="M 2885.3 2929.1 2871 2925.4 2822.3 2889.5 2811.4 2890.3 2798.8 2891.2 2789.6 2893.3 2773.6 2900.8 2763.5 2901.3 2757.7 2896.2 2752.2 2887.5 2747.1 2883.3 2741.3 2877.4 2733.7 2872.9 2724.5 2872 2731.6 2855.3 2740.8 2829.8 2746.7 2823.1 2755.9 2813 2758.4 2800.5 2757.1 2790.4 2756.7 2777.1 2754.6 2764.5 2751.6 2753.7 2769.2 2733.2 2783.1 2716.8 2792.7 2707.2 2799.4 2702.2 2803.2 2695.1 2805.7 2683.8 2840.9 2714.1 2896.8 2766.8 2946.8 2797.7 2885.3 2929.1 Z" data-holc_grade="A"/>
</g>
<g id="B">
<path d="M 662.7 1023.2 637.2 1017.3 622.1 1008.3 621.4 1007.9 599.5 939 595.4 922.7 595.2 921.7 586.8 887.9 578.4 865.5 571.7 855.1 558.7 838.7 541.1 817.6 567 809.7 606 863.4 614.3 879.5 630.1 919 638.4 941.5 649.9 976.5 640.2 990.6 652 998.6 669.4 1003.7 662.7 1023.2 Z" data-holc_grade="B"/>
<path d="M 474 1326.7 477.6 1340 444 1350.6 446.7 1363 430.2 1464.6 409.9 1466.8 315.2 1476.9 345.4 1438.9 414.3 1341.7 423 1332.7 435.1 1303.3 474 1326.7 Z" data-holc_grade="B"/>
<path d="M 1913.6 1068.8 1909 1080.9 1902.7 1097.9 1900 1111.1 1900 1114.3 1902.5 1118.8 1905.2 1123.3 1905.5 1126.6 1906 1145 1906.9 1155.2 1912.3 1172.6 1916.1 1182.1 1919.8 1192.3 1921.3 1200.1 1919.5 1206.3 1915.8 1210.3 1908.9 1213.2 1902.5 1213.8 1887.6 1216.8 1886.2 1223.2 1884.3 1231.5 1883.9 1241.3 1884.5 1249.9 1886.5 1260.1 1888.9 1265.7 1883.9 1270.3 1876.6 1276.6 1864.4 1281.8 1855.3 1285.8 1847.1 1287 1844 1286.9 1833.2 1286.8 1815.2 1244.5 1784.2 1184.4 1777.8 1173.3 1768.5 1174 1753.7 1169.7 1744.4 1191.8 1723.2 1181.5 1742.3 1142.4 1778.4 1163.3 1784.2 1157.3 1789.9 1153.3 1797.7 1151.5 1805.6 1153.3 1806.4 1150.1 1789.7 1114.8 1824.7 1094.8 1815.3 1061.7 1812.5 1054.8 1819.2 1049.8 1824 1039.9 1830.4 1032.5 1844.3 1022.9 1858.2 1019.1 1866.2 1016.5 1873.7 1012.9 1879.9 1005.4 1892 986.8 1901.8 971.2 1916.1 958.7 1921.5 953.9 1927 951.9 1933.4 951.7 1936.8 958.1 1939.3 966.8 1939.7 973.8 1940.5 986.3 1939.9 996.5 1936.7 1009.7 1935 1015.5 1933.5 1024.6 1933.5 1030.6 1932.2 1035.6 1927.6 1049.4 1918.6 1063.3 1913.6 1068.8 Z" data-holc_grade="B"/>
<path d="M 1812.5 1054.8 1815.3 1061.7 1813.3 1062.3 1804.3 1065.3 1797.3 1069.7 1767.7 1086.3 1764.6 1089.4 1759.9 1089.8 1754.5 1087.1 1748.6 1072.4 1743 1061.7 1721 1071.7 1722.3 1076.5 1725.8 1085.6 1729.7 1099 1732.8 1103.7 1738.6 1114.6 1733.1 1123.3 1730.1 1134.5 1742.3 1142.4 1723.2 1181.5 1708 1212.6 1706 1219.2 1703.7 1226.7 1693.1 1252.7 1689.8 1255.1 1678.2 1257.1 1659.2 1258.2 1645.7 1260.1 1640 1260.2 1638.3 1264.9 1633.4 1272.1 1628.2 1277.3 1618 1272.3 1597.7 1263.6 1582.9 1258.8 1563.5 1250.6 1557.4 1251.9 1550.1 1259.6 1539.8 1264.6 1533.8 1264.8 1533.6 1256.1 1534.8 1241.5 1536.8 1231.7 1542.4 1212.5 1542.2 1204.1 1546.2 1179.7 1548.1 1173.6 1559.4 1170.7 1564.8 1149.5 1572 1122.5 1577.1 1103.8 1584.9 1079.2 1590.2 1060.8 1595.5 1046.6 1665.1 1073.5 1678.2 1036.2 1689 999.1 1694.3 996.1 1699.1 995.3 1702.9 991.3 1707.1 984.1 1711.1 967.2 1716.7 973.7 1720 975.9 1723.6 975.4 1745.3 965.2 1761 959.6 1776.3 956 1784.5 956.4 1793.6 960.4 1805.9 969 1811.7 975.4 1815.7 983.4 1816.3 989 1813.1 994.4 1804.5 997.8 1800.6 1000 1794.8 1009.7 1795.8 1018.7 1812.5 1054.8 Z" data-holc_grade="B"/>
<path d="M 345.2 1645.4 341.1 1652.2 344.8 1655.2 338.9 1663.8 419.3 1666.7 420.1 1690.5 425.4 1710 457 1789 425 1799.4 388.5 1814.4 306.7 1839.8 331.5 1777.2 275.3 1763.7 211.6 1737.8 194.8 1726.9 237.8 1574.9 282.7 1514.7 348.9 1563.3 373.3 1533.2 409.9 1466.8 430.2 1464.6 423.9 1487.2 414 1515.5 408.9 1528.6 329.6 1633.4 345.2 1645.4 Z" data-holc_grade="B"/>
<path d="M 635.3 1556.2 644 1575.5 656.3 1614 659 1643.1 670 1690.2 673.7 1708.6 680.9 1735.9 680.1 1742.1 673.7 1745 662.2 1744.5 650.6 1740.4 632.9 1729.2 625.1 1720.9 594 1697.1 581.9 1686.9 517.5 1749.4 498.9 1763 457 1789 425.4 1710 420.1 1690.5 419.3 1666.7 433 1667.8 439.4 1643.5 423.3 1640.5 425.2 1617.3 433.3 1597.8 474.2 1541.6 475.8 1553.7 488.1 1578 505.5 1604.5 552.5 1535 568.7 1505.1 581.3 1499.8 603.3 1493.5 602.9 1497.4 618.3 1558.4 635.3 1556.2 Z" data-holc_grade="B"/>
<path d="M 1781.4 1739.8 1780 1773.7 1754.6 1777.9 1752.6 1841.4 1765.3 1845.3 1760.3 1865.1 1712.8 1847.5 1717.7 1827.1 1723.4 1801.3 1724.1 1792.3 1696.6 1781 1672.1 1772.3 1637.2 1759.6 1619.7 1752.9 1607.7 1748.2 1624.1 1704.4 1650.3 1635.9 1684.5 1646.9 1740.5 1666.6 1782.1 1681 1781.4 1739.8 Z" data-holc_grade="B"/>
<path d="M 2003 1852 1970.4 1854 1886.4 1849.2 1885.6 1919.6 1890.5 1922 1898.7 1926.2 1906.4 1931.8 1910.8 1938.8 1914 1950.7 1915.2 1958.1 1917.9 1967.3 1917.9 1970.9 1914.8 1976.7 1911.8 1978.3 1907.2 1977.9 1901.8 1976.9 1895.1 1973.9 1887.9 1970.7 1882 1970.9 1877 1971.9 1870.5 1975.1 1867.1 1980.4 1866.9 1985.2 1868.9 1996.2 1873 2004.2 1876.6 2013.1 1878.4 2018.3 1880.2 2030.9 1880.4 2041.5 1882.3 2048.6 1886.5 2054.4 1888.7 2062.6 1887.1 2067.6 1852.1 2056.1 1852.4 2014.1 1848.6 1985.2 1840.3 1957.5 1825.4 1907 1809.2 1864.9 1800.1 1834.5 1797.1 1818 1788.5 1816.6 1792.3 1790.7 1780 1773.7 1781.4 1739.8 1786.8 1740.2 1790.7 1742.8 1806.8 1746.4 1816.2 1748.8 1828.9 1750.2 1833.9 1747.4 1842.6 1740.2 1852.6 1736.5 1865.2 1733.3 1878.6 1733.3 1889.3 1730.6 1891.5 1729.5 1908.1 1733.5 1926.1 1737 1941.7 1740.7 1951.6 1744.5 1960.5 1749.6 1967.4 1752.2 1966.6 1760.5 1968.5 1771.8 1975.5 1791 1978.2 1802.8 1981.2 1816.9 1985.7 1833.5 1988.2 1838.1 1990.2 1841.4 1994.9 1843 1997.4 1843 2003 1852 Z" data-holc_grade="B"/>
<path d="M 1797.2 2252.5 1803 2270.8 1808.9 2290.4 1807.7 2301.7 1803.5 2306.3 1798 2308 1789.6 2310.1 1782.5 2313.4 1780 2320.1 1778.3 2330.5 1775.8 2333.9 1772.4 2334.3 1719.1 2307.6 1646.1 2286.7 1685.5 2129.9 1602 2098.2 1680.9 2000 1730.5 2016.2 1852.1 2056.1 1887.1 2067.6 1882.1 2075.2 1875.4 2083.1 1871.6 2088.7 1865.4 2100.9 1860.3 2112.4 1844.7 2140.2 1833 2162.8 1828.6 2172.5 1822.7 2184.1 1818.3 2196.2 1812.2 2207.4 1810 2211.8 1810.2 2217.4 1810.4 2223.6 1804.4 2236.5 1798 2250.1 1797.2 2252.5 Z M 1802.2 2118 1793 2109.5 1778.1 2107 1782.8 2155.8 1800.6 2155.9 1802.2 2118 Z" data-holc_grade="B"/>
<path d="M 2376.9 1644.7 2369.6 1662 2351.6 1719.2 2334.1 1791.1 2321.9 1794.4 2260.7 1793.7 2200.9 1790.7 2183.8 1791.5 2174.5 1790.3 2168.5 1788.9 2167.3 1784.7 2165.1 1767.3 2166.1 1754.2 2167.7 1742 2172.3 1679.8 2172.9 1665.6 2178.7 1663.2 2183.3 1660.2 2191.4 1655.5 2198.4 1650.7 2205.5 1643.7 2210.3 1637.3 2212.9 1635.7 2221.6 1635.5 2250.9 1632.2 2272.9 1633.8 2277.9 1638.4 2297.4 1637.4 2362.3 1637.4 2367.1 1643 2376.9 1644.7 Z" data-holc_grade="B"/>
<path d="M 2951 1744.2 2951.5 1747.5 2950.1 1752.8 2948.4 1760.2 2951.2 1763.5 2971.4 1779.6 2974.6 1782.3 2974.8 1785.3 2970 1790.8 2968.3 1793.8 2967.9 1798.5 2966.6 1801.9 2962.9 1806.4 2954.9 1817.7 2952.7 1821.9 2954.3 1823.2 2960.2 1825.8 2961.4 1827.4 2961.2 1831.8 2958.6 1837.5 2954.9 1842.2 2947.1 1852.9 2940.4 1861.4 2934.3 1868 2928.5 1873.9 2913.7 1882.9 2908.9 1878.1 2884.3 1846.5 2861 1820.5 2836.3 1795.1 2808.3 1829.5 2785 1807.2 2787.8 1802.5 2796.7 1786.8 2810.3 1766.5 2807.9 1764.5 2798.5 1756.3 2784.9 1746.8 2774.5 1737.3 2776 1734.8 2787.7 1723.8 2795.6 1712.4 2805.3 1697.3 2812.4 1692.3 2820.9 1689.6 2829.1 1687.6 2843.1 1686.3 2851.3 1685.9 2862.9 1687.4 2872.4 1690.9 2880.7 1693.9 2891.6 1699.7 2902.2 1705.1 2908.7 1709.1 2913.1 1703.3 2951 1744.2 Z" data-holc_grade="B"/>
<path d="M 778.7 882 792.2 922.8 870.3 942.5 871.7 956.9 884.4 977 890.1 989.3 894.8 1002 894.4 1013.4 881.7 1011 861.2 1003 798.9 994.3 786.1 1048.4 722 1041.3 719.4 1034 714.7 1025.6 704.6 1016.3 687.9 1004.2 692.2 980.2 657.7 970.3 644.3 910.5 692.1 914 712.2 859.2 778.7 882 Z" data-holc_grade="B"/>
<path d="M 593.7 2403.9 516.8 2433.7 496.3 2380.4 488.2 2361.2 479 2350.1 556.8 2322.8 561.5 2325 593.7 2403.9 Z" data-holc_grade="B"/>
<path d="M 509.2 1952.8 545.3 1956.2 569.6 1962 592.6 1977.5 624.9 2012.6 639.6 2034.8 644.6 2047.8 593.8 2067.8 600.5 2103.3 593.4 2123.4 585 2138 578.7 2142.2 567.4 2144.7 556 2133.8 546 2104.9 540.6 2074.4 525.5 2069.4 506.2 2023.4 495.7 1987.9 492 1965.8 498.4 1956.1 509.2 1952.8 Z" data-holc_grade="B"/>
<path d="M 516.8 2433.7 477.1 2449.1 447.6 2454.7 396 2466.1 391.5 2465.4 395.2 2450.4 393.1 2423.4 384.3 2408.4 377 2399.3 357.4 2385.7 362.3 2381.4 475.6 2346.2 479 2350.1 488.2 2361.2 496.3 2380.4 516.8 2433.7 Z M 497.1 2434.2 509.1 2429.1 500.8 2409.6 476.1 2413.8 434.3 2432.7 439.6 2450.2 497.1 2434.2 Z" data-holc_grade="B"/>
<path d="M 1418.1 2803 1393.8 2892.9 1389.9 2921.1 1366.2 2903.7 1316.3 2860.1 1324.9 2837.6 1341.3 2810.6 1356.3 2781.4 1368.7 2757.8 1418.1 2803 Z" data-holc_grade="B"/>
<path d="M 1401.4 2642 1368.7 2757.8 1273.5 2679.2 1276.3 2672.4 1302.6 2606.9 1401.4 2642 Z" data-holc_grade="B"/>
<path d="M 1498.2 2651 1521.8 2669.5 1522.3 2690.3 1510.5 2757.5 1599 2821.5 1573 2852.5 1568.6 2850.3 1540 2889.6 1514.2 2872.5 1515 2902.6 1515.2 2908.7 1502.1 2943.8 1508.9 2949.4 1477.7 3022 1425.6 2983 1385.7 2950.7 1389.9 2921.1 1393.8 2892.9 1418.1 2803 1433.1 2747.4 1487.4 2791.2 1501.1 2705.8 1464.8 2675.9 1485.2 2640.8 1498.2 2651 Z" data-holc_grade="B"/>
<path d="M 1583 2945.2 1577.2 2952.7 1515 2902.6 1514.2 2872.5 1540 2889.6 1568.6 2850.3 1573 2852.5 1599 2821.5 1642 2853.3 1636.7 2869.4 1628.9 2886.1 1617.5 2900.8 1600.7 2921.9 1583 2945.2 Z" data-holc_grade="B"/>
<path d="M 1477.7 3022 1494.4 3034.5 1440.1 3155.7 1422.1 3141 1405.2 3166.7 1395.2 3192.9 1388.8 3199.9 1378 3204.7 1328.9 3271.1 1325.6 3261.1 1325.8 3245.8 1327.6 3229.4 1326.8 3223.8 1316.7 3213.9 1313.7 3210.3 1313.5 3201.7 1316.5 3191.8 1327 3171.3 1346.2 3138 1357.7 3117.7 1383.3 3073 1425.6 2983 1477.7 3022 Z" data-holc_grade="B"/>
<path d="M 2651.9 2570.3 2628.7 2553.3 2623.9 2567.8 2616.7 2566.4 2568.9 2570.2 2527.2 2573.7 2508.6 2578.5 2493.4 2582.3 2510 2514.3 2523.1 2458.7 2526.6 2444 2525.9 2428.4 2526.9 2394.1 2501.4 2391.2 2501.4 2413.7 2495.5 2418.7 2487.8 2427.1 2481.8 2420.4 2476.7 2414.7 2478.4 2402.4 2479.7 2376.6 2479.4 2351.9 2473.3 2346.5 2469.7 2315.7 2468.4 2285 2478.1 2284 2479.7 2251.5 2501.6 2252.5 2502.8 2202.9 2635.4 2198.1 2755.2 2200.5 2748.7 2207.2 2739.1 2214.5 2735.1 2220.9 2732.7 2233.5 2726.2 2265 2718.5 2297.4 2711.5 2324.2 2699.7 2317 2695.6 2314.6 2689.9 2315.3 2685.4 2318 2681.5 2325.9 2672.2 2345.5 2668.7 2350.5 2668.7 2352.5 2683.4 2364 2665.9 2416 2664.1 2423 2665.3 2430.4 2669.5 2439.1 2673 2454.3 2671.8 2467.2 2671.8 2486.8 2671.2 2500.3 2670 2509.3 2668.8 2515.9 2660.4 2546.8 2658 2562.3 2651.9 2570.3 Z" data-holc_grade="B"/>
<path d="M 2731.6 2632.5 2749.7 2586.5 2751.7 2579.3 2750.7 2573.8 2745.8 2569.6 2738.4 2565.8 2727.9 2560 2719 2556.2 2707.3 2543.8 2713 2538.8 2720.1 2528.3 2724.7 2520.5 2727.5 2512.1 2730.7 2499.6 2735.5 2487.2 2738 2477.9 2743.2 2463.9 2745.4 2456.7 2749.2 2443 2756.6 2426.4 2761.7 2411.1 2762.7 2407.5 2767.9 2412.5 2784.8 2424.9 2799.3 2435.7 2801.4 2434.9 2802.6 2421.5 2800.3 2412.1 2799.1 2407.9 2798.9 2401.8 2802.5 2396 2809 2388.8 2813.2 2383.2 2811.2 2378.3 2810 2373.9 2809.1 2366.9 2809.8 2359.5 2811.4 2345.3 2814.6 2331.7 2819.2 2319.9 2820.5 2312.4 2819.7 2306.8 2819.2 2300.6 2820.5 2293.7 2824.8 2284.6 2831 2274.4 2838.2 2261 2847.3 2248.7 2854.6 2238.5 2858.6 2228.9 2864.5 2213.9 2876 2185.8 2892.4 2204.3 2960.7 2246.9 2999 2276.2 2994.2 2289 2986.7 2297.9 2980.9 2302.7 2973.9 2307.5 2964.4 2313.5 2948.7 2318.6 2935.6 2323 2925.1 2326.6 2920.3 2332.6 2914.1 2345.7 2909.7 2355.3 2908.9 2362.7 2905 2380.8 2903.6 2391.5 2902 2405.6 2901.3 2414.6 2900.7 2422.6 2898 2445.4 2895.3 2464.4 2894.4 2482.5 2895.4 2489.8 2895.7 2499.9 2894 2506.6 2891.4 2511.9 2885 2513.6 2875.6 2507.9 2868.5 2502.2 2862.8 2499.2 2859.1 2499.9 2856.4 2502.9 2857.1 2506.3 2859.1 2510.6 2864.5 2515 2844.1 2544.1 2848.4 2549.1 2860.5 2557.8 2866.9 2564.8 2872 2571.8 2875 2581.2 2880 2592.9 2882.4 2599.9 2871.3 2608.6 2860.3 2614.3 2853.2 2623 2845.8 2624 2835.4 2616 2824.3 2606.6 2802.5 2595.6 2795.1 2591 2792.1 2590.3 2788.7 2591.6 2788.4 2595.6 2789.4 2604 2788.1 2613.4 2784.7 2623.4 2776.3 2636.1 2767 2658.6 2731.6 2632.5 Z" data-holc_grade="B"/>
<path d="M 1895.2 205.2 1892.4 182.6 1851.3 186.8 1850.7 173.4 1843.1 121.1 1848.5 109.7 1851.7 102.8 1893.2 98.4 1908.7 96.1 1921 94.6 1925.8 98.9 1928 117 1930.4 124.6 1934.9 145 1941.3 166.7 1942.4 181.5 1944.5 197.2 1940.9 199.9 1895.2 205.2 Z" data-holc_grade="B"/>
<path d="M 2075 2842.9 2027.2 2912.5 1990.4 2890.3 1963.5 2878.8 1930.6 2865.2 1920.2 2860.9 1889.9 2848.6 1878.3 2840.8 1858.2 2826.9 1847.7 2818.4 1843 2811.6 1835.5 2799 1842.4 2779.9 1845.8 2768.9 1853.2 2749.4 1860.7 2735.2 1862.9 2729.3 1865.9 2720.1 1872.2 2706.1 1878.8 2689 1882.8 2672.7 1883.4 2663.7 1882.8 2652.5 1882 2641.4 1881.2 2635.4 1879 2628.6 1874 2617.9 1872.7 2608.3 1869.1 2593.9 1867 2581 1866.4 2568.4 1868.8 2552.7 1868.3 2538.5 1867.5 2527.8 1865.3 2514.7 1997 2538.6 1994 2552 1988 2572.1 1982.7 2591.1 1990.4 2596 2077 2635 2085.1 2633.4 2090.5 2624.6 2142.1 2647.3 2150.4 2639 2159.4 2627.6 2170.9 2609.9 2175.3 2595.5 2195.7 2601.5 2201.1 2593.2 2204.9 2586 2205.9 2579.6 2225.4 2580.8 2224.3 2595.5 2223.5 2607.9 2221.3 2619.6 2217.6 2633 2214.1 2645.9 2211.9 2652.8 2203.4 2664.6 2189.1 2681.2 2180.5 2694.3 2172 2706.9 2163.9 2718.7 2153.4 2733.7 2138.9 2752.4 2128.2 2765.2 2090.3 2818.5 2075 2842.9 Z M 2122 2762.7 2145.6 2721.4 2086.7 2694.1 1975.1 2634.5 1942.9 2697 1974.7 2710.6 2101.9 2782.6 2122 2762.7 Z" data-holc_grade="B"/>
<path d="M 2070.9 3245.9 2064.2 3279.4 1919.7 3211.7 1926.4 3175.3 1867.3 3148.4 1917.8 3080.7 1939.3 3040 1946 3032 1970.1 3045.1 2031 3068.1 2044.4 3077.8 2118.3 3110.4 2096.1 3172.7 2072.2 3239.6 2070.9 3245.9 Z M 1869.4 2970.9 1876.6 2947.7 1880.1 2934.3 1880.1 2926.5 1880.4 2917.9 1883.3 2909.6 1888.2 2901.3 1895.4 2893 1906.2 2878.1 1912.6 2873 1921.2 2869 1930.6 2865.2 1963.5 2878.8 1990.4 2890.3 2027.2 2912.5 2149.5 2971.9 2127.8 3016 2111 3052.4 2092.5 3054.5 2082.1 3053.5 2025.7 3034.1 1965.2 3009.4 1899.7 2981.3 1869.4 2970.9 Z" data-holc_grade="B"/>
<path d="M 2251.4 3021.7 2228.7 3074 2223.6 3081.2 2217.3 3082.8 2206.8 3081.2 2200.1 3080.3 2192.1 3081.6 2182.1 3083.7 2178.3 3089.5 2169.5 3111.3 2162.8 3127.6 2249.7 3164 2258.9 3179.4 2268.2 3198.7 2272 3220.4 2270.3 3243 2202.3 3214.2 2096.1 3172.7 2118.3 3110.4 2132.5 3072.8 2153.5 3057.4 2190.1 2990 2251.4 3021.7 Z" data-holc_grade="B"/>
<path d="M 2122 2762.7 2101.9 2782.6 1974.7 2710.6 1942.9 2697 1975.1 2634.5 2086.7 2694.1 2145.6 2721.4 2122 2762.7 Z" data-holc_grade="B"/>
<path d="M 2194.1 2898 2186.3 2921.6 2170.7 2915.7 2166.1 2932.3 2149.5 2971.9 2027.2 2912.5 2075 2842.9 2118.8 2860 2125 2860 2164.3 2882.5 2174.2 2889.4 2194.1 2898 Z" data-holc_grade="B"/>
<path d="M 1867.3 3148.4 1852.2 3141.7 1849.5 3146.3 1768.6 3107.2 1776.2 3062.5 1776.7 3027.2 1776.1 2979.8 1796.8 2980.3 1820.2 2983.6 1827.7 2988.4 1846.8 2994.2 1860.5 2999.1 1869.1 2999.3 1891.7 3004.4 1916.1 3016.2 1946 3032 1939.3 3040 1917.8 3080.7 1867.3 3148.4 Z M 1869.4 2970.9 1854.9 2966.7 1833.4 2958.4 1819.7 2952.8 1803 2950.3 1777 2950.6 1777.2 2946.1 1778.3 2933.5 1781.8 2924.7 1789.8 2909.9 1800.6 2894.7 1809.2 2879.7 1819.4 2853.7 1831.2 2821.9 1835.5 2799 1843 2811.6 1847.7 2818.4 1858.2 2826.9 1878.3 2840.8 1889.9 2848.6 1920.2 2860.9 1930.6 2865.2 1921.2 2869 1912.6 2873 1906.2 2878.1 1895.4 2893 1888.2 2901.3 1883.3 2909.6 1880.4 2917.9 1880.1 2926.5 1880.1 2934.3 1876.6 2947.7 1869.4 2970.9 Z" data-holc_grade="B"/>
<path d="M 1998.5 3469.8 1930.9 3454.8 1936.3 3406.6 1925 3403.7 1931.9 3330.4 1933.3 3315.9 1897.2 3294.5 1899.4 3286.4 1919.7 3211.7 2064.2 3279.4 2034.6 3372.7 2024.9 3369.8 2003.1 3443.4 1998.5 3469.8 Z" data-holc_grade="B"/>
<path d="M 2778.6 3091.4 2777.7 3162 2733.4 3206.8 2672.4 3161.4 2697.2 3076.4 2689.1 3072 2677.4 3063.3 2670.3 3053.6 2668.6 3043.6 2669.3 3029.9 2669.9 3017.1 2673.4 3019.3 2771.7 3088.2 2778.6 3091.4 Z" data-holc_grade="B"/>
<path d="M 2623.9 2567.8 2617.5 2590.4 2603.8 2621.7 2596 2641 2582.3 2650.6 2577 2693.7 2572.7 2723.7 2560.7 2766 2526 2758 2515.6 2789.8 2509.7 2805.6 2499.7 2822 2488.5 2838.6 2466.9 2823 2438.8 2804 2406.4 2782.7 2371.2 2758.3 2370.1 2755.9 2371.6 2751.4 2374.4 2745.7 2376.4 2739.4 2376.3 2730 2371 2701.3 2369.6 2692.5 2371.4 2682.7 2380.5 2638.7 2387.7 2643.1 2399.4 2656.6 2411.5 2673.2 2424.8 2692.5 2435.5 2709.1 2443.2 2723.2 2445.6 2736 2491.9 2737 2496.6 2712.7 2498.2 2711.3 2506.8 2710.9 2508.4 2707.6 2507 2611.2 2508.6 2578.5 2527.2 2573.7 2568.9 2570.2 2616.7 2566.4 2623.9 2567.8 Z" data-holc_grade="B"/>
<path d="M 2885.3 2929.1 2849.3 3003.2 2847.4 3006.6 2803.6 3086.1 2795.6 3093.2 2783.5 3093.6 2778.6 3091.4 2771.7 3088.2 2673.4 3019.3 2669.9 3017.1 2669.3 3029.9 2668.6 3043.6 2670.3 3053.6 2677.4 3063.3 2689.1 3072 2697.2 3076.4 2672.4 3161.4 2668.4 3174.1 2660 3183.1 2652.3 3186.5 2648.6 3194.5 2648.3 3205.6 2643.6 3214.6 2638.9 3222.3 2603.7 3320.4 2543.5 3282.6 2513 3338.9 2475.7 3313.8 2474 3302.4 2471.7 3294.1 2468.3 3288.4 2460.6 3287.1 2450.1 3286.1 2439.7 3283.1 2430.5 3277.9 2436.2 3269.4 2448 3246.6 2457.9 3237.5 2470.8 3225.2 2488 3206.1 2509.7 3182 2523.7 3163.8 2534.1 3143.7 2537.6 3125.5 2540.3 3094.2 2565.5 3100.6 2568.5 3033.3 2606.4 2986.5 2620.5 2996.8 2624.7 2989.2 2632.2 2967 2619.2 2956.6 2671.7 2837.3 2702.1 2739.1 2711.6 2714 2715 2713 2717.3 2716.2 2719.3 2722.9 2724 2725.5 2729.7 2724.9 2739.6 2714.8 2754.2 2690.8 2762.3 2669 2767 2658.6 2805.7 2683.8 2803.2 2695.1 2799.4 2702.2 2792.7 2707.2 2783.1 2716.8 2769.2 2733.2 2751.6 2753.7 2754.6 2764.5 2756.7 2777.1 2757.1 2790.4 2758.4 2800.5 2755.9 2813 2746.7 2823.1 2740.8 2829.8 2731.6 2855.3 2724.5 2872 2733.7 2872.9 2741.3 2877.4 2747.1 2883.3 2752.2 2887.5 2757.7 2896.2 2763.5 2901.3 2773.6 2900.8 2789.6 2893.3 2798.8 2891.2 2811.4 2890.3 2822.3 2889.5 2871 2925.4 2885.3 2929.1 Z" data-holc_grade="B"/>
<path d="M 1723.6 975.4 1721.8 951.6 1716.3 923.9 1678.3 925.5 1673.3 881 1667.6 852.4 1660.6 854.4 1645.9 856.4 1645.5 865.6 1642.1 869 1631.6 871.4 1618.7 872.4 1613.7 871.1 1606.1 869 1584.5 871.2 1584.1 846.2 1584.9 840.6 1586.7 838.4 1589.6 837.1 1595 836.9 1600.9 838 1703.7 825.7 1704 823.2 1750.5 818.3 1752.7 819.3 1751.5 846.3 1753.7 846.9 1776 844.3 1785.3 843.7 1788.3 844.1 1794.6 858.8 1796.8 866.6 1799.4 880.8 1799.8 884.8 1830.4 876.8 1853.1 870.2 1847.7 853.1 1846.9 848.1 1847.7 845.9 1865.6 841.7 1884.7 838.5 1920.1 828.9 1940.8 820.8 1944.6 819.8 1948.4 823 1948.6 831.9 1948.2 834.7 1944.4 839.1 1942.4 855.5 1943.2 864.7 1944 892 1945.9 903.2 1949.7 909.2 1954.7 941.1 1955.7 949.5 1945.9 954.9 1936.8 958.1 1933.4 951.7 1927 951.9 1921.5 953.9 1916.1 958.7 1901.8 971.2 1892 986.8 1879.9 1005.4 1873.7 1012.9 1866.2 1016.5 1858.2 1019.1 1844.3 1022.9 1830.4 1032.5 1824 1039.9 1819.2 1049.8 1812.5 1054.8 1795.8 1018.7 1794.8 1009.7 1800.6 1000 1804.5 997.8 1813.1 994.4 1816.3 989 1815.7 983.4 1811.7 975.4 1805.9 969 1793.6 960.4 1784.5 956.4 1776.3 956 1761 959.6 1745.3 965.2 1723.6 975.4 Z" data-holc_grade="B"/>
<path d="M 2803.6 3086.1 2847.4 3006.6 2934 3066 2889.2 3153.9 2803.6 3086.1 Z" data-holc_grade="B"/>
<path d="M 2838.8 3493.9 2793.1 3458.9 2820.5 3421.8 2857.8 3448.5 2846.8 3478.2 2838.8 3493.9 Z M 2774 3443.4 2691.9 3385.3 2713.4 3355.5 2715.2 3355.7 2741.4 3373.3 2765.2 3387.2 2768.2 3383.9 2797.5 3404.6 2787.4 3424.3 2774 3443.4 Z" data-holc_grade="B"/>
<path d="M 1287.4 3438.1 1245.7 3504 1205.7 3557.4 1206.6 3562.9 1210.3 3568.8 1214.3 3581 1213.3 3590.2 1210.5 3592.3 1206.2 3595.7 1192.3 3610.8 1175.5 3620.5 1163.9 3626.7 1155.8 3638.5 1151.6 3659.8 1139.5 3699 1130.4 3723.4 1118.3 3745.5 1100.5 3732.2 1057 3699.8 1024.2 3677.4 986.1 3651.4 1003.4 3618.4 1008.8 3598.3 1013.7 3575.4 1022.4 3557.3 1031.8 3541.4 1061.9 3505.3 1032.2 3477.5 1099.8 3390.1 1056.3 3354.5 1075.7 3333.9 1158.2 3396.3 1191.5 3354.8 1212.2 3369.5 1207.4 3382.2 1157.8 3452.9 1075.9 3557.8 1065.8 3570 1063.7 3580.9 1090.4 3599.2 1181 3486 1251.7 3383.4 1219.1 3360.1 1233.4 3340.6 1245.8 3317.6 1250.6 3301.6 1260.4 3276 1266.3 3266.1 1338 3320 1338.3 3327.7 1325.9 3363.1 1320.5 3379.7 1306.6 3407.1 1287.4 3438.1 Z" data-holc_grade="B"/>
<path d="M 1919.7 3211.7 1899.4 3286.4 1869.9 3275.2 1883.6 3227.6 1890.9 3214.2 1862.4 3203.2 1844.9 3255.1 1838.5 3257 1791.2 3238.3 1783.7 3261 1796.8 3268.5 1851.4 3293.4 1896.5 3306 1931.9 3330.4 1925 3403.7 1905.9 3404.9 1899.1 3449.8 1817.5 3417.7 1780.1 3408.2 1762.1 3403.6 1763.1 3391.9 1759 3387.9 1750.3 3371.5 1740.5 3349.7 1735.5 3334 1733.8 3316.9 1733.1 3296.9 1735.2 3280.5 1739.3 3265.1 1746.8 3250 1747.8 3244.5 1746.8 3232.9 1750.3 3202.3 1758.9 3167.2 1761.9 3148.6 1768.6 3107.2 1849.5 3146.3 1852.2 3141.7 1867.3 3148.4 1926.4 3175.3 1919.7 3211.7 Z" data-holc_grade="B"/>
<path d="M 2513 3338.9 2472.3 3413.3 2399.2 3363.1 2405.6 3347.7 2413 3330.1 2430.5 3277.9 2439.7 3283.1 2450.1 3286.1 2460.6 3287.1 2468.3 3288.4 2471.7 3294.1 2474 3302.4 2475.7 3313.8 2513 3338.9 Z" data-holc_grade="B"/>
<path d="M 2530.1 3540.1 2510.7 3579.9 2509.3 3582.8 2504.7 3582 2500.5 3575.7 2475.8 3606.7 2486.3 3613.8 2452.7 3650.6 2437.8 3673.8 2429.6 3686.6 2381.2 3653.9 2385.8 3639.9 2403.2 3605.4 2411.3 3588 2427.4 3560.2 2435.5 3560.5 2447.6 3558.8 2455.6 3556.5 2463.3 3546.4 2488.5 3510.9 2500.1 3522 2508.5 3529.3 2523.7 3537.3 2530.1 3540.1 Z" data-holc_grade="B"/>
<path d="M 2605.2 4004.2 2602.1 4016.4 2602.2 4030.8 2603.5 4049.2 2604.2 4064.6 2602.5 4082.7 2595.1 4093.8 2585.4 4104.2 2574.3 4111.2 2568.6 4117.2 2566.8 4125.7 2527.8 4104.7 2553 4002.9 2560 3980.1 2588.8 3995.9 2605.2 4004.2 Z" data-holc_grade="B"/>
<path d="M 2560 3980.1 2553 4002.9 2527.8 4104.7 2522.7 4130.7 2442.5 4074 2474.6 3984.6 2486 3952.9 2493.8 3931.2 2560 3980.1 Z" data-holc_grade="B"/>
<path d="M 986.1 3651.4 1024.2 3677.4 1010.8 3698.1 985.1 3737.8 979.7 3758.7 983 3775.9 996.9 3780.1 1008.2 3773 1026.3 3751.2 1041.4 3726.1 1051.9 3703.1 1057 3699.8 1100.5 3732.2 1080.5 3753.7 1035.5 3810.2 1004.8 3843.3 981.7 3878 973.7 3893.1 909.9 3845.7 933.4 3811.4 883.9 3776.3 880.7 3774.3 867.5 3766.2 871.3 3745.3 875.1 3720.2 883.9 3707.6 897.3 3699.3 914.6 3681.3 933.1 3651.2 946.1 3626.1 951.6 3626.1 971.7 3637.8 986.1 3651.4 Z" data-holc_grade="B"/>
<path d="M 2412.1 4161.3 2420.1 4168.8 2402.5 4176.3 2352.9 4264.3 2346.4 4259.9 2329.4 4248.4 2328.1 4244.2 2290.3 4215.3 2319.7 4167.2 2344.9 4112.7 2412.1 4161.3 Z" data-holc_grade="B"/>
<path d="M 2511.8 1256.8 2529.6 1237.2 2521.4 1229.7 2500.5 1244.9 2497.1 1241.6 2498.4 1239.7 2505.7 1232.8 2514.8 1225.6 2519.1 1221.8 2517.2 1219.4 2509.7 1218.1 2505.1 1215.9 2489 1216 2411.2 1241.1 2407.7 1239.3 2403.7 1230.7 2368 1235.6 2339.3 1236.1 2337.8 1233.2 2336.2 1223.2 2334.3 1212.8 2333.5 1207.7 2335 1202.9 2339 1194.3 2343.7 1186.7 2348.6 1180.8 2355.6 1167.3 2361.6 1154.5 2365.6 1147.2 2374.1 1135.7 2380.9 1127.2 2383.1 1126.7 2389.1 1126.4 2407.9 1121.7 2421.6 1118 2425 1117.6 2447.2 1111.1 2473.2 1104.8 2500.6 1099.7 2551.8 1088.5 2567.2 1085.7 2580.2 1085.7 2582 1086.9 2581.7 1091.7 2580.8 1107.6 2580.7 1121.9 2581.6 1129.2 2583.9 1134 2585.9 1140.7 2588.3 1146 2589.5 1148 2589.9 1150.7 2590.3 1155 2592.6 1166.4 2593.2 1171.6 2589.7 1176.1 2584.5 1181.2 2579.1 1186.9 2572.3 1194 2572 1199.5 2572.3 1210.2 2572.3 1222 2572.7 1239.1 2569.6 1242.4 2568.3 1245 2552.9 1261.9 2543.2 1276.4 2540 1280.4 2532.6 1287.7 2528.5 1292.2 2503.3 1309.6 2500.6 1313.1 2491.2 1317.8 2484.2 1322.3 2479 1324.7 2475.1 1327.4 2471.8 1330 2467.6 1330.4 2464.2 1332 2459.3 1334.3 2453.1 1335.5 2447.9 1336.2 2441.5 1335.5 2435.8 1332.1 2431.6 1328.4 2425.6 1324.8 2421.8 1319.9 2419.1 1318.1 2417.2 1314.8 2412.5 1311.2 2410.7 1309 2414 1309.8 2437.8 1302.9 2463.3 1286.8 2497.9 1268.6 2513.7 1259.2 2511.8 1256.8 Z" data-holc_grade="B"/>
<path d="M 2433.5 4249.2 2448.1 4233.2 2471.4 4203.1 2488.6 4184.2 2495.8 4174.2 2499.8 4168.5 2540.3 4197.7 2532.1 4215.7 2519.4 4235.2 2518.2 4246.4 2513.4 4259.1 2505.6 4271.5 2500.9 4281.5 2495.5 4294.5 2488.5 4316.6 2480.8 4330.5 2469.1 4348.9 2451.8 4373.1 2450.4 4378.7 2420.3 4404.3 2413.7 4407.5 2405.6 4409.5 2398.8 4406.5 2394.5 4411.7 2389.3 4416.5 2387.7 4422 2389.5 4430.6 2388.7 4434.2 2381.8 4439.7 2378.8 4458.1 2372.2 4455.9 2375 4432.6 2384.8 4361.1 2394.6 4296.8 2385 4291.5 2387.6 4277.9 2398.9 4278.1 2420.8 4263 2433.5 4249.2 Z" data-holc_grade="B"/>
<path d="M 748.8 4094.8 694.7 4171.1 688.9 4168.9 653 4129.3 603.6 4094.9 656.4 4021.5 713.4 4062.9 748.8 4094.8 Z" data-holc_grade="B"/>
<path d="M 736.8 3953.7 719.3 3979.1 741.4 3997.1 736 4007 731.1 4032.7 723.3 4049.3 770.9 4089.5 763.9 4112 772.2 4121.7 786.7 4127.3 772.4 4136.9 754.9 4145.8 746.8 4149.2 739.5 4154.2 662.7 4191.7 603.1 4224 618.8 4249 735.5 4192.8 755.2 4183.9 767.7 4174.5 775.1 4185.4 772.4 4199.9 760.2 4226.2 722.8 4309.7 738.4 4315.4 752.4 4329.6 737.7 4369.1 731.2 4388 723.9 4408.3 717.2 4425.1 715 4436.6 713 4439.4 694.9 4425.6 663.9 4402 632.1 4377.8 618.4 4367.4 608.5 4359.4 528.3 4294.8 517.2 4287.1 529.1 4258.6 537.8 4231.9 547.5 4204.9 555.2 4192.1 557.4 4184.2 550.7 4168.6 551.6 4159.5 564.7 4142.7 575.6 4133.4 586.1 4118.2 592.1 4107.9 595 4098.3 594 4090.6 577.2 4074 564.1 4069.9 552.8 4061.9 540.3 4052.2 535.5 4040.8 533.7 4029.7 534.9 4018.9 540.4 4004.2 550.1 3989.3 568.4 3969 546.9 3955.9 575.1 3920.4 530.8 3885 571.2 3839 594.5 3861.5 613.5 3879.2 630.2 3892.9 640.3 3897.6 667.2 3911 680.7 3920.7 688.1 3923.8 701.5 3927.4 713.3 3933.1 727.4 3942.5 736.8 3953.7 Z M 642.1 3986.3 644.8 3982.6 643.3 3972 639.3 3963.5 629.8 3957.9 625.2 3955.7 617.7 3955.9 612.9 3959.1 611.7 3963.9 612.5 3970.6 614.3 3977.2 620.1 3984.6 628.2 3988.5 634.5 3988.7 642.1 3986.3 Z M 748.8 4094.8 713.4 4062.9 656.4 4021.5 603.6 4094.9 653 4129.3 688.9 4168.9 694.7 4171.1 748.8 4094.8 Z" data-holc_grade="B"/>
<path d="M 595.4 922.7 599.5 939 621.4 1007.9 622.1 1008.3 622.2 1008.9 632.4 1052.3 631.1 1069.1 626.4 1094.7 626.3 1095.4 619.6 1119.8 604.8 1153.2 586 1186.1 584.7 1185.8 552.1 1238.3 546.7 1252.2 546.4 1252.9 520 1248 522.4 1229.3 540.4 1166.3 500.5 1152.6 499.9 1133.6 501.8 1125.4 513.9 1106.1 517.4 1094.1 438.8 1058.5 447.2 1038.7 456.3 1028.6 486.1 1001.6 513.7 982.7 514.6 979.5 522.6 951.9 525 932.7 521.6 917.7 519.2 905.7 502.3 868.3 514.4 872 527.2 878.2 543.3 891.8 554.8 900.7 562.6 910 569.6 918.3 576.6 923.4 595.4 922.7 Z" data-holc_grade="B"/>
<path d="M 474 1326.7 435.1 1303.3 423 1332.7 414.3 1341.7 345.4 1438.9 315.2 1476.9 296.7 1477.6 303.5 1454.5 292.7 1442.2 284.4 1430.5 278.3 1410.7 301.2 1344.6 254.8 1315.3 251.3 1313.2 253.6 1305.5 269.1 1301.7 295.8 1291.5 313.2 1285.1 326.9 1269.9 347 1246.1 357.1 1224.6 358.3 1216.1 427.7 1259.2 441.9 1200.7 454.3 1143.3 500.5 1152.6 540.4 1166.3 522.4 1229.3 520 1248 546.4 1252.9 543.2 1261.1 528.7 1303 520 1290.3 511.6 1295 509.6 1301.4 502.8 1311.4 485.4 1320 474 1326.7 Z" data-holc_grade="B"/>
<path d="M 790.8 1220 774.3 1270.4 766.8 1305.1 747.7 1402.3 741 1447.2 722.9 1442 720.1 1451.6 711.2 1455 706 1462.2 703.3 1469 700.9 1485.3 695.9 1502.9 688.6 1549.6 635.3 1556.2 618.3 1558.4 602.9 1497.4 603.3 1493.5 606.3 1466.1 623.7 1419.2 656.9 1423.1 671.2 1356.9 658.1 1350.7 668 1329.6 643.5 1317 641.9 1309.4 641.1 1182.7 655.8 1187.9 676.9 1190.5 695.7 1195.3 703.7 1181.7 709.2 1167.3 760.4 1182.1 797.2 1193 790.8 1220 Z" data-holc_grade="B"/>
<path d="M 658.1 1350.7 671.2 1356.9 656.9 1423.1 623.7 1419.2 606.3 1466.1 603.3 1493.5 581.3 1499.8 568.7 1505.1 552.1 1512.2 547.7 1501.8 566.2 1469.8 529.9 1491.5 523.3 1464.5 515.6 1433.3 541.7 1420 536.4 1400.6 537.4 1391.2 540.4 1377.5 552.5 1356.3 557.9 1346.8 579.4 1352.5 585.1 1343.5 608.2 1348.2 626.6 1348.2 653.1 1360.6 658.1 1350.7 Z M 596.7 1459.4 607 1454 610 1445.5 609.8 1434.8 604.3 1428.5 593.2 1426.6 582.5 1431.3 578.1 1440.6 578.5 1454 587.7 1459.8 596.7 1459.4 Z" data-holc_grade="B"/>
</g>
<g id="C">
<path d="M 504.5 349.6 463.7 394.1 481.7 481.8 481.2 489.8 482.7 500.8 489.7 517.4 522.9 518.4 559.1 526.9 554.4 535.3 543.9 547.4 528.3 560.9 524.3 564 520.7 566.9 511.2 580.9 452.4 562.3 421.7 457.3 399.1 465.2 381.5 474.8 383.1 486 381 498.1 371.4 505.2 356.3 507.3 347.5 503.5 339.5 498.1 333.7 497.7 328.2 501.4 314.1 519.9 301 533.5 274.6 530.8 277.3 495.8 276.3 470.7 268.9 441 263.9 423.3 234.8 426.3 231.1 413.9 196 355.5 239.9 287.1 292.2 319.8 315 268.1 305 252.1 286.4 122.2 294.7 126.9 316.2 95.2 329.9 103.9 354.8 68.2 405.3 98 421.8 72.9 501.2 116.4 461.6 173.4 470.6 247.2 435.4 247.5 437.4 270.2 452.4 331 504.5 349.6 Z M 437 357.2 417 355.1 405.7 380.6 386.9 378.8 370.6 369.7 377 387.6 389.7 406.6 415.4 419.8 450.8 423.9 437 357.2 Z" data-holc_grade="C"/>
<path d="M 509.4 1349.6 493.2 1398.5 467.4 1428.4 452.4 1462.6 430.2 1464.6 446.7 1363 444 1350.6 477.6 1340 480.7 1348.8 485.8 1351.2 498.9 1350.6 509.4 1349.6 Z" data-holc_grade="C"/>
<path d="M 800.1 1050.2 760.4 1182.1 709.2 1167.3 705.9 1166.4 683.1 1161.4 666.8 1156.3 656.6 1152.3 654.8 1142.9 654.4 1137.9 653.6 1134.5 649.8 1132.1 650 1123.3 649.2 1115.2 645.7 1105.8 640.3 1099.6 626.4 1094.7 631.1 1069.1 632.4 1052.3 622.2 1008.9 622.1 1008.3 637.2 1017.3 662.7 1023.2 722 1041.3 786.1 1048.4 800.1 1050.2 Z" data-holc_grade="C"/>
<path d="M 760.4 1182.1 800.1 1050.2 829.5 1057.4 907.6 1081.1 977 1109.2 1106.4 1158 1108.8 1160.7 1105.4 1248.6 1112.1 1342.1 1108 1341.8 991.7 1313.7 930.9 1313.7 924.6 1317.3 890.7 1315 898.4 1252.2 802.2 1220 790.8 1220 797.2 1193 760.4 1182.1 Z" data-holc_grade="C"/>
<path d="M 890.7 1315 866.6 1422 835.4 1411.1 830 1428.2 807.8 1534.8 786.8 1531 783.2 1544.5 688.6 1549.6 695.9 1502.9 700.9 1485.3 703.3 1469 706 1462.2 711.2 1455 720.1 1451.6 722.9 1442 741 1447.2 747.7 1402.3 766.8 1305.1 774.3 1270.4 790.8 1220 802.2 1220 898.4 1252.2 890.7 1315 Z" data-holc_grade="C"/>
<path d="M 1566.1 973.6 1567.1 991.1 1564.5 997.9 1567.4 1040 1558 1039.8 1550.5 1037.8 1543.3 1039.2 1536.3 1043.4 1531.6 1052 1528.4 1060.6 1526.2 1070.6 1522.8 1084.5 1520.6 1106.5 1516.7 1150.6 1515.9 1151.6 1500.2 1140.2 1483.3 1128.4 1444.1 1109.5 1395.2 1085.3 1394.6 1081.7 1397 1069.2 1404.5 1045.6 1413.3 1014.9 1392 1010.9 1347.1 1001.3 1344.5 1000.5 1344.3 998.3 1345.7 993.3 1350.8 978.6 1353.6 966.2 1358.6 950.8 1362.4 936.7 1365.4 929.5 1418 940.7 1446.7 949.2 1467.3 956.2 1509.4 964.5 1556.7 970.1 1566.1 973.6 Z" data-holc_grade="C"/>
<path d="M 1711.1 967.2 1707.1 984.1 1702.9 991.3 1699.1 995.3 1694.3 996.1 1689 999.1 1678.2 1036.2 1665.1 1073.5 1595.5 1046.6 1577.8 1041.4 1567.4 1040 1564.5 997.9 1567.1 991.1 1566.1 973.6 1568.3 974.4 1572.3 977.3 1596.1 972.8 1611.2 963.4 1632.7 956.2 1653.1 952.5 1656.8 952.7 1662.2 958.9 1667.5 963.1 1676.4 964.4 1685.1 963.1 1690.2 961.6 1698.6 960.6 1704.4 962.9 1711.1 967.2 Z" data-holc_grade="C"/>
<path d="M 1888.9 1265.7 1897 1300.2 1907 1304.3 1914.1 1306.5 1930.8 1309.7 1952.3 1311.7 1957.6 1322.1 1960.4 1330.5 1963.4 1344.5 1990 1352.3 2000.2 1353.9 2003.9 1356.7 2009.9 1373.4 2013.3 1381.5 2013.3 1402 2012.2 1411.7 2007.4 1422.6 1994.8 1440 1987.3 1449.4 1986.2 1454.5 1989.7 1461.9 1995.1 1468.4 2004.4 1474 2015.2 1480.4 2039.9 1490 2066.2 1499.1 2072.4 1501.5 2072.9 1505.7 2071.3 1508.2 2065.1 1511.9 2058.1 1518.3 2052.8 1530.3 2044.2 1535.4 2043.7 1538.1 2038 1541.3 2030 1543.7 2024.3 1544 2018.4 1544.5 2013.1 1546.1 2009.8 1547.2 2005.8 1551.5 1944.4 1534.9 1898.7 1526.4 1893.6 1524 1890.7 1524.8 1883.4 1533.1 1854.7 1525.9 1852 1526.1 1847.5 1532.3 1843.7 1531.5 1839.2 1529.4 1835.1 1529.6 1830.6 1527.5 1829 1525.3 1827.6 1518.4 1825.2 1515.5 1821.2 1515.5 1811.8 1521.9 1805.1 1522.9 1800 1521.3 1796.5 1516.5 1793.3 1511.2 1758.6 1500.5 1745.2 1491.1 1695 1463.4 1695 1459.9 1700.9 1449.2 1701.7 1439.8 1700.7 1435.8 1662.5 1425.1 1660.9 1421.9 1662.3 1416 1650.2 1411.2 1634.6 1405.4 1630.9 1401.3 1643.5 1365.8 1687.2 1380.8 1760.5 1399.5 1772.8 1341.1 1776.5 1316.4 1778 1314.6 1781.8 1315.1 1794.7 1318.5 1820.9 1326 1827.6 1329.1 1839.9 1331.9 1847.2 1332.2 1847.3 1313.3 1845.5 1294.9 1844 1286.9 1847.1 1287 1855.3 1285.8 1864.4 1281.8 1876.6 1276.6 1883.9 1270.3 1888.9 1265.7 Z M 1880.6 1398 1837.1 1386.5 1820.2 1425.8 1863.7 1433.5 1880.6 1398 Z" data-holc_grade="C"/>
<path d="M 2898.9 1659 2895 1658.7 2829.1 1610.1 2765.7 1563 2749.4 1549.8 2743.2 1589.1 2731.4 1581.6 2703.6 1566.7 2630.6 1562.4 2586 1558.8 2544.8 1555.5 2545.8 1530.4 2548.3 1523.8 2550.8 1470.8 2552.6 1422.3 2552.7 1402.3 2551.3 1380.9 2553.5 1378.6 2572.1 1374.9 2600.6 1368.2 2601 1366 2601.4 1329.2 2602.9 1314.7 2604.4 1284.3 2612.1 1276.6 2622.4 1263.1 2626.5 1262.4 2637.1 1277.9 2653.1 1301.1 2667 1321.5 2679.4 1340.5 2690.5 1341.2 2717.7 1365.7 2716.3 1329.6 2714 1327.5 2709.8 1325 2705.1 1319.6 2701.8 1313.4 2700 1306.3 2700.8 1298.1 2701.5 1294.1 2703.3 1287.1 2706.1 1281.9 2710.3 1277.1 2714.5 1273.4 2721.7 1270.4 2727.1 1269.9 2730.7 1269.4 2734.4 1268.9 2743 1268.7 2750.4 1268.6 2760 1269.4 2766.6 1269.9 2772.4 1270.4 2777.3 1271.8 2780.8 1274 2783 1275.2 2788.7 1281.5 2794.1 1290.5 2797.5 1297.8 2799 1300.8 2800.9 1306.3 2803.1 1314.6 2804.1 1322.5 2803.8 1329.4 2803.7 1335.1 2803 1343.6 2801.6 1349.3 2800.3 1354.6 2798 1361.7 2790.4 1398 2785.2 1421 2785.4 1428.9 2768.7 1452.3 2782.4 1466.4 2818.3 1494.4 2839.1 1470.6 2886.3 1506.4 2884.8 1509 2880.2 1511.9 2876.1 1513.7 2873.7 1516 2872 1520.1 2870.1 1525.5 2869.5 1528.7 2865.2 1546.2 2863.6 1556.4 2861.8 1563 2856.5 1570 2847.1 1578.5 2839 1588.3 2840.5 1591.3 2851.1 1601.1 2871.3 1616.1 2895.4 1585.6 2916.5 1596.4 2925.2 1603.4 2934.3 1607.5 2938 1612.7 2938.1 1619.5 2935.3 1624 2932.8 1629.9 2930.3 1635.1 2927.4 1639.1 2926.4 1643.6 2925.3 1647.9 2923.8 1651.1 2921.7 1653.1 2918.1 1655.1 2912.7 1656 2908.7 1657 2902.1 1657.7 2898.9 1659 Z" data-holc_grade="C"/>
<path d="M 568.7 1505.1 552.5 1535 505.5 1604.5 488.1 1578 475.8 1553.7 474.2 1541.6 482 1536 482.8 1531.2 485.7 1526.6 486.1 1519.8 515.3 1505.4 529.9 1491.5 566.2 1469.8 547.7 1501.8 552.1 1512.2 568.7 1505.1 Z" data-holc_grade="C"/>
<path d="M 454.1 1463.4 426.5 1536.4 420.8 1570.7 409.9 1604.1 407.4 1625.2 386 1625.1 371.8 1623.5 365.1 1619.5 362.4 1621.6 355.1 1632.3 345.2 1645.4 329.6 1633.4 408.9 1528.6 414 1515.5 423.9 1487.2 430.2 1464.6 452.4 1462.6 454.1 1463.4 Z" data-holc_grade="C"/>
<path d="M 452.4 562.3 511.2 580.9 520.7 566.9 524.3 564 588.3 580.8 606.8 581.7 600.5 597.1 592.5 606.7 590.4 614.2 630.2 616.3 630.2 630.9 617.2 644.3 623 747 627.2 761.2 599.9 760.7 559.7 757 547.1 751.5 552.6 763.6 587.8 803.3 567 809.7 541.1 817.6 533.3 820 508.1 823.7 461.2 810.7 453.2 811.1 439 812 430.6 806.5 427.2 799 444.9 729.7 326.3 711.3 271 704.9 280.7 633.6 363.7 632.8 368.7 627.8 371.2 619.9 372.9 609.4 376.7 604.9 382.2 600.7 389.7 601.9 397.7 604.5 403.9 602.8 411.5 556.9 414.1 544.4 419.5 539.8 426.2 539.4 435 546.1 452.4 562.3 Z M 529.9 714.1 505.6 708.7 472.4 699 463.6 736 473.7 739.4 509.7 742.6 519.1 745.9 542.4 753.8 529.9 714.1 Z" data-holc_grade="C"/>
<path d="M 1788.5 1816.6 1797.1 1818 1800.1 1834.5 1809.2 1864.9 1825.4 1907 1840.3 1957.5 1848.6 1985.2 1852.4 2014.1 1852.1 2056.1 1730.5 2016.2 1742.9 1974.8 1743.7 1962.5 1744.2 1942.9 1726.5 1935.5 1721.2 1930.9 1713.9 1921 1710.4 1913.5 1708 1896.9 1710.1 1879.3 1710.9 1858.7 1712.8 1847.5 1760.3 1865.1 1765.3 1845.3 1773.2 1813.8 1788.5 1816.6 Z" data-holc_grade="C"/>
<path d="M 1719.8 2660.1 1706 2643 1699.3 2639.7 1689.6 2638 1680.9 2635.3 1675.1 2632 1672.5 2628.3 1672.5 2622 1672.1 2614.9 1669.8 2608.6 1666.1 2602.6 1660 2597.2 1637.2 2585.2 1589.2 2566.8 1585.5 2565.9 1591.5 2559.3 1601.2 2551.5 1609.8 2545.4 1620.5 2539.8 1621.9 2539 1621.3 2525 1619.7 2509.3 1614.9 2494.8 1609.2 2480.1 1606.5 2466.2 1605.5 2450.1 1607.4 2439.7 1610.6 2436.2 1618.4 2438.6 1646.3 2445 1658.1 2449 1666.7 2451.7 1676.6 2457.1 1689.3 2463.2 1758.3 2481.9 1757.8 2499.6 1755.9 2516.7 1752.3 2535.4 1744.9 2569.7 1736.8 2598.8 1730.6 2626.7 1719.8 2660.1 Z" data-holc_grade="C"/>
<path d="M 2069.6 2144.7 2069.1 2141.9 2005.5 2139.6 2005.1 2153.2 1918.3 2149 1917.5 2152.2 1915.7 2157.4 1912.6 2163.3 1909.4 2169.9 1907.4 2175.1 2003.1 2179.7 2000.9 2218.6 2058.2 2222.2 2042.7 2302.3 1994.1 2301 1985.5 2299 1940.4 2300 1915.6 2301.5 1897.7 2298.7 1885.2 2297.1 1862 2292.8 1851.9 2292.4 1849.1 2287.8 1850.9 2278.2 1853.6 2268.8 1855 2264 1854.4 2260.7 1849.3 2259.5 1839.7 2258.1 1822.5 2256.9 1810.6 2255.5 1804.2 2253.9 1797.2 2252.5 1798 2250.1 1804.4 2236.5 1810.4 2223.6 1810.2 2217.4 1810 2211.8 1812.2 2207.4 1818.3 2196.2 1822.7 2184.1 1828.6 2172.5 1833 2162.8 1844.7 2140.2 1860.3 2112.4 1865.4 2100.9 1871.6 2088.7 1875.4 2083.1 1882.1 2075.2 1887.1 2067.6 1888.7 2062.6 1886.5 2054.4 1882.3 2048.6 1880.4 2041.5 1880.2 2030.9 1878.4 2018.3 1876.6 2013.1 1873 2004.2 1868.9 1996.2 1866.9 1985.2 1867.1 1980.4 1870.5 1975.1 1877 1971.9 1882 1970.9 1887.9 1970.7 1895.1 1973.9 1901.8 1976.9 1907.2 1977.9 1911.8 1978.3 1914.8 1976.7 1917.9 1970.9 1917.9 1967.3 1915.2 1958.1 1914 1950.7 1910.8 1938.8 1906.4 1931.8 1898.7 1926.2 1890.5 1922 1885.6 1919.6 1886.4 1849.2 1970.4 1854 2003 1852 2009.7 1859.7 2010.7 1871.7 2014.8 1897.8 2014.4 1923.2 2063.8 1928.2 2065.4 1917.2 2066.1 1912.5 2082.2 1911.1 2137.6 1908.4 2178.2 1908.8 2184.6 1911.4 2184.8 1946.2 2139.7 1942.9 2080.5 1946.1 2080.8 1983.9 2076.3 2030.7 2074.5 2054.9 2076.7 2085 2082.2 2125.6 2082.5 2145.1 2069.6 2144.7 Z" data-holc_grade="C"/>
<path d="M 2586 1558.8 2580.6 1619.2 2575.1 1700.4 2569.6 1750.5 2567.3 1790.7 2570.3 1794.9 2448.6 1797.3 2444.8 1804 2429.6 1802.8 2418.8 1801.9 2360.9 1798.6 2347.9 1797.3 2344.1 1792.3 2334.1 1791.1 2351.6 1719.2 2369.6 1662 2376.9 1644.7 2386.8 1621.4 2432.9 1628.1 2467.7 1628.5 2474.4 1558.7 2477.7 1554.9 2544.8 1555.5 2586 1558.8 Z" data-holc_grade="C"/>
<path d="M 2951 1744.2 2913.1 1703.3 2908.7 1709.1 2902.2 1705.1 2891.6 1699.7 2880.7 1693.9 2872.4 1690.9 2862.9 1687.4 2851.3 1685.9 2843.1 1686.3 2829.1 1687.6 2820.9 1689.6 2812.4 1692.3 2805.3 1697.3 2795.6 1712.4 2787.7 1723.8 2776 1734.8 2774.5 1737.3 2784.9 1746.8 2798.5 1756.3 2807.9 1764.5 2810.3 1766.5 2796.7 1786.8 2787.8 1802.5 2785 1807.2 2808.3 1829.5 2836.3 1795.1 2861 1820.5 2884.3 1846.5 2908.9 1878.1 2913.7 1882.9 2899.7 1896.3 2900.5 1906.7 2900.3 1912.5 2898.4 1918.6 2896.8 1923.5 2897 1924.7 2903.7 1934.1 2913.5 1943.5 2924 1952 2935 1960.2 2946.9 1969.1 2958.8 1976.8 2969.9 1984.5 2982.6 1993 2993.8 2001.1 2997.4 2003.6 2997.6 2005.6 2980 2027.2 2968.9 2040.3 2959.1 2054.1 2910 2019.1 2879.3 1998.8 2847.6 1973.4 2813.5 1942.3 2777.5 1914.3 2771 1912.3 2769.9 1883.7 2770.3 1879.4 2774.1 1836.1 2774.1 1814.1 2771.7 1806.9 2762.6 1801.5 2755.3 1799.4 2749.7 1799.1 2744.6 1801 2741 1805.1 2735.8 1812.4 2728 1821 2721.5 1828 2717.5 1829.8 2705.2 1829.8 2685.5 1829.7 2671.6 1829.3 2628.9 1825.1 2603.1 1822.5 2592.3 1821.9 2570.1 1820.9 2570.3 1794.9 2567.3 1790.7 2569.6 1750.5 2575.1 1700.4 2580.6 1619.2 2586 1558.8 2630.6 1562.4 2703.6 1566.7 2731.4 1581.6 2743.2 1589.1 2749.4 1549.8 2765.7 1563 2829.1 1610.1 2895 1658.7 2898.9 1659 2950.9 1698.4 2967.2 1711.5 2951 1744.2 Z" data-holc_grade="C"/>
<path d="M 2570.1 1820.9 2569.6 1829 2565.4 1832.4 2565.1 1856.1 2562.8 1897.4 2565.1 1908.1 2563 1939.8 2555.9 2047.1 2522 2046.6 2520 2127.1 2482.9 2128.5 2443.2 2129 2399.1 2133.1 2376 2130.7 2314.5 2134.1 2322.5 2095.3 2333 2065 2337.6 2065.2 2341 2050.2 2342 2042.2 2319.5 2046 2291.5 2047.2 2291.5 2052.2 2257.5 2053.2 2257.7 2071.5 2304 2070.5 2292.1 2134.9 2241.4 2137.5 2181 2144.2 2180.2 2108.5 2165.8 2108.7 2165 2114.2 2161.6 2114.4 2160.4 2123.1 2082.2 2125.6 2076.7 2085 2074.5 2054.9 2076.3 2030.7 2080.8 1983.9 2080.5 1946.1 2139.7 1942.9 2184.8 1946.2 2189.2 1952.4 2192.6 1952.9 2305.8 1952.3 2335.5 1951.8 2337.2 1950.4 2337.7 1947.1 2339.5 1943.7 2342.7 1937.9 2344.4 1934.9 2349.3 1929.2 2353.1 1923.8 2356.8 1919.2 2361.5 1913.1 2365.9 1909.3 2370.2 1904.3 2378.8 1898.1 2389.8 1889.4 2394.2 1885.9 2394.9 1881.2 2396.7 1871.5 2398.9 1865 2402.4 1857.3 2405.1 1852.4 2409.3 1844.9 2414 1839.9 2417.6 1834.4 2421.7 1824.5 2424.5 1815.8 2429.6 1802.8 2444.8 1804 2448.6 1797.3 2570.3 1794.9 2570.1 1820.9 Z" data-holc_grade="C"/>
<path d="M 2848 2163.4 2827.8 2150.3 2791.5 2122.3 2761.2 2101.4 2757.7 2098.8 2750.9 2093.9 2748.9 2093.7 2747.9 2093.7 2746.9 2095.3 2746.3 2103.1 2743.3 2108.1 2739.1 2114.1 2735.9 2119.5 2735.3 2121.8 2733.7 2133.2 2734.1 2144.6 2733.3 2155.2 2730.9 2161 2726.9 2162.9 2718.2 2162.1 2689 2160.7 2662.2 2160.5 2640.5 2159.5 2619.9 2160.2 2595.8 2160.8 2556.3 2162.4 2519.5 2163.4 2520 2127.1 2522 2046.6 2555.9 2047.1 2563 1939.8 2588.5 1938.5 2609.7 1938.5 2628 1937.7 2638.7 1938.5 2647.9 1939.5 2647.9 1933.5 2647.3 1924.6 2647.9 1918.6 2649.7 1910.2 2653.1 1904.2 2659.2 1897.9 2667 1893.5 2678.1 1891.3 2684.7 1890.5 2701 1889.3 2722.8 1886.9 2756.8 1882.8 2770.3 1879.4 2769.9 1883.7 2771 1912.3 2777.5 1914.3 2813.5 1942.3 2847.6 1973.4 2879.3 1998.8 2910 2019.1 2959.1 2054.1 2968.9 2061.9 2933.8 2078 2911.8 2089.2 2896.5 2096.2 2898.9 2117.6 2905.1 2143.3 2908.9 2162.5 2907.6 2164.9 2886.1 2147.1 2862.7 2126.7 2847.9 2113.7 2847.6 2115.8 2852.8 2145.8 2854.9 2152.4 2853.9 2156.7 2848 2163.4 Z M 2824.7 2022.3 2805.2 2014.3 2781.4 2000.3 2766.3 1991.9 2750.8 1989.3 2740.8 1988.6 2739.1 2030.1 2772.4 2031 2796.9 2039.4 2823.4 2051.1 2824.7 2022.3 Z" data-holc_grade="C"/>
<path d="M 293.8 1883.8 292.9 1914.6 289.2 1928.3 289.8 1937 297.9 1937.1 314 1940.7 324.1 1945.5 330.6 1955.7 340.1 1982.1 362.3 2001.9 372.7 2016.6 381.9 2032 390.1 2052.7 390.2 2059.2 406.5 2095 410.5 2108.4 415.9 2123.8 421.6 2128 432.5 2129.7 441 2134.2 452.6 2140.5 462.3 2146.2 469.2 2153.4 480.8 2162.5 496.5 2168.7 506.6 2171.8 535.1 2183.7 552.7 2188.3 555.3 2191.8 564.9 2267.4 513.9 2281.2 478 2293.9 459.2 2301 413.8 2315.4 403.6 2318.9 399.4 2321.6 397.7 2335.9 395.5 2341.3 391 2344.6 368.3 2351.8 334.1 2361.5 302.8 2370.6 292.9 2370.3 283.2 2368.8 269.1 2365.6 256 2360.4 244.3 2351.5 238.6 2342.6 233.6 2330.8 231.4 2318.7 230.1 2304.2 230.6 2292.1 232.8 2279.8 236.3 2269.4 239.3 2252.3 242 2238.6 248.2 2215.4 253 2191.6 254.6 2174 254.7 2160.7 251.9 2148.1 226.1 2107.8 204 2081.7 183.9 2061.8 165.8 2056.7 141.4 2047.1 141.8 2024.6 144.1 2003.4 162.9 1899.9 191.5 1901.1 203.8 1898.9 219.3 1892.5 252.7 1865.9 268.7 1859.3 281.9 1855.7 286 1853.7 288.8 1845.9 300.5 1844.1 303.4 1844.4 293.8 1883.8 Z M 222.1 2028.5 235.2 2022.1 237.3 1994.2 243.5 1969.8 249.4 1948.2 200.6 1942.8 190.1 1978.4 183.2 2024.6 196.3 2028.3 205.3 2039.8 208.5 2040 222.1 2028.5 Z" data-holc_grade="C"/>
<path d="M 626.7 2492.6 620.2 2474.9 603.9 2399.9 577.8 2306.7 642.8 2282.7 648.4 2298.5 746.2 2261.9 769.5 2324 764.4 2347 795.8 2428 626.7 2492.6 Z" data-holc_grade="C"/>
<path d="M 603.9 2399.9 620.2 2474.9 626.7 2492.6 647.6 2549.8 596 2572 412.2 2635.5 375.4 2654.5 363.9 2651 366.8 2635.7 355.6 2602.8 357.7 2583 358 2556.5 363.4 2523.3 387.1 2484.6 396 2466.1 447.6 2454.7 477.1 2449.1 516.8 2433.7 593.7 2403.9 603.9 2399.9 Z M 507 2488.2 546.3 2473.9 527.2 2436.4 480.9 2456.1 433.2 2466.4 404 2503.1 423.8 2497.5 441.8 2556.1 522.8 2523.3 507 2488.2 Z" data-holc_grade="C"/>
<path d="M 1851.7 102.8 1848.5 109.7 1843.1 121.1 1850.7 173.4 1844.9 174.4 1832.8 174.6 1821.4 171.4 1809.9 167 1805.7 165.2 1802.5 172.2 1796.3 180.2 1790.4 188.8 1785.6 191.4 1784.6 193.2 1800.7 219 1850.1 212.2 1851.3 186.8 1892.4 182.6 1895.2 205.2 1895.8 209.8 1894.8 220.6 1893 233.6 1892.8 243.7 1892.6 252.7 1888.8 256.5 1860.4 260.9 1844.1 264.3 1827.2 263.7 1812.9 264.3 1803.7 262.1 1794.2 255.9 1764.9 225.3 1759.4 220.6 1765.5 212.9 1779.6 185.7 1779.6 180.7 1780.9 174 1788.3 160.7 1793.6 148.3 1789.9 81.6 1784 3.4 1787.5 1 1821.8 1 1828.8 2.3 1888 1.8 1889.4 5.8 1885.6 17.8 1878.6 37 1866.9 52.5 1865.5 54.1 1864.2 68.3 1863.8 73.8 1861.2 79.4 1858.8 83 1856.1 93.2 1851.7 102.8 Z" data-holc_grade="C"/>
<path d="M 638.8 2971 605.8 2981.9 455.1 3031.5 442.6 3033.1 452.4 2938.5 461.9 2858.2 443.9 2764.5 446.2 2759.1 482.8 2769.5 551.3 2777 581.9 2776.6 590.6 2821.5 608.3 2863.3 621.4 2924.5 638.8 2971 Z" data-holc_grade="C"/>
<path d="M 363.9 2651 375.4 2654.5 412.2 2635.5 596 2572 647.6 2549.8 673.4 2625 689.2 2645.8 708 2704.3 727.4 2747.8 652.9 2742.1 576 2742 522.9 2735.6 465.9 2729.2 399.7 2727.2 379.6 2730.5 359.7 2725.8 371.9 2694.7 372.2 2688 364.5 2671.3 362.2 2660.9 363.9 2651 Z" data-holc_grade="C"/>
<path d="M 1082.5 2786.5 1087 2803.4 1092 2813.9 1092 2829 1098.5 2842 1099.6 2853.5 1099.5 2879.1 1104.6 2900.2 1106.2 2909.9 1096.2 2937.8 1087.3 2937.2 1064 2933.5 1057 2932.9 980.1 2962.9 975.6 2962.6 972.6 2957.3 974.8 2883.9 976.7 2871.4 978.3 2853.4 979.1 2849.7 986.3 2849.7 998.4 2850.5 1010 2848.6 1018.6 2847.3 1026.9 2844.1 1024.2 2839.5 1020.2 2831.5 1015.9 2818.9 1013.5 2810.9 1010.5 2804.7 1005.7 2792.7 1000.1 2783.6 995.2 2780.1 989.9 2776.9 982.3 2773.1 975.1 2771.5 969.7 2771.5 964.9 2771.8 959.5 2770.2 955.8 2766.7 952 2762.7 950.1 2762.7 944.2 2764.3 935.9 2766.4 928.1 2767.5 921.6 2768 915.7 2766.7 908.7 2763.7 890.5 2757.3 883.2 2755.4 864.2 2750.6 851.8 2747.4 845.4 2743.9 839.4 2738.3 835.2 2730.2 831.9 2720.9 831.1 2711.5 832.5 2704 835.7 2694.7 839.8 2691.2 893.7 2672.2 896.8 2668.2 888.2 2644.6 852 2561.3 858.5 2557.3 873.2 2552.3 892.3 2546.7 915.5 2542.7 920 2543.8 930.1 2575.9 947.2 2618.5 961.2 2649.1 967.8 2661.7 983.9 2661.2 1008.6 2664.2 1021.2 2669.7 1036.8 2686.3 1048.9 2710.4 1054.4 2726.4 1065.5 2755 1082.5 2786.5 Z" data-holc_grade="C"/>
<path d="M 1065.3 2482.3 1072.8 2482.8 1085.4 2487.9 1097.8 2497.5 1111.2 2514.1 1117.4 2529.1 1123 2538.7 1119.8 2544.4 1113.6 2551.6 1105.5 2557.5 1097.2 2564.9 1088.1 2571.1 1076.3 2575.1 1059.3 2574.6 1048.6 2574.6 1041.6 2576.7 1033.5 2581 1024.9 2583.9 1015.5 2585.3 1003.7 2584.4 993.8 2582.3 984.9 2578.8 976.6 2576.1 968 2567.8 961.3 2558.5 958.1 2554.7 955.8 2547.2 955.8 2540.8 957.1 2535 961.3 2531.7 970.6 2526 973.6 2522.8 975.1 2519.3 975 2514.9 973.6 2507.9 972.9 2501.9 975.1 2499.2 979 2497 988.2 2494.9 992.2 2493.5 997.8 2494.9 1001.3 2497.2 1010.2 2498.6 1019.6 2503.2 1029.8 2507.4 1036.2 2508.9 1040.3 2508.3 1049.8 2500.9 1057 2491.4 1058.7 2486.9 1061.7 2482.9 1065.3 2482.3 Z" data-holc_grade="C"/>
<path d="M 1197.6 2903.5 1188.7 2954.9 1169.5 2939.4 1177.1 2937.4 1175.1 2930.9 1142.9 2905.8 1135.8 2913.3 1104.6 2900.2 1099.5 2879.1 1099.6 2853.5 1098.5 2842 1092 2829 1092 2813.9 1087 2803.4 1082.5 2786.5 1081.4 2782.3 1068.9 2746.7 1071.4 2730.6 1078.4 2708 1076.4 2702 1068.4 2690 1055.8 2680.9 1056.8 2667.4 1071.4 2638.8 1092.1 2614.7 1121.8 2592.6 1144.5 2579.6 1162.6 2571.1 1254.4 2650.5 1232.5 2700.3 1222.8 2769.3 1213.6 2809.4 1206.5 2839.1 1202.3 2865.8 1197.6 2903.5 Z M 1135.5 2779 1137.7 2752.5 1136.1 2735.1 1130.5 2732.7 1114.6 2741.7 1111.4 2750.9 1109.8 2772.3 1121.6 2787.4 1130.3 2787.6 1135.5 2779 Z" data-holc_grade="C"/>
<path d="M 1389.9 2921.1 1385.7 2950.7 1376 2967.9 1355.9 3006.8 1332.4 3042.8 1325.2 3055.7 1310.1 3055.3 1256 3012.6 1241.7 2998 1229.9 2975.8 1201.8 2928.6 1197.6 2903.5 1202.3 2865.8 1206.5 2839.1 1213.6 2809.4 1222.8 2769.3 1232.5 2700.3 1254.4 2650.5 1276.3 2672.4 1273.5 2679.2 1368.7 2757.8 1356.3 2781.4 1341.3 2810.6 1324.9 2837.6 1316.3 2860.1 1366.2 2903.7 1389.9 2921.1 Z M 1294.5 2896.7 1299.3 2893.1 1302.7 2882.9 1299.5 2867.8 1294.1 2861.6 1285.4 2860.8 1274.9 2872.8 1269.5 2880.6 1268.7 2890.7 1273.3 2896.5 1282.2 2900.3 1294.5 2896.7 Z" data-holc_grade="C"/>
<path d="M 1485.2 2640.8 1464.8 2675.9 1436.6 2727.8 1433.1 2747.4 1418.1 2803 1368.7 2757.8 1401.4 2642 1415.2 2593.5 1422.1 2592.4 1485.2 2640.8 Z" data-holc_grade="C"/>
<path d="M 1604.4 3100.1 1564 3080.1 1583.2 3042.1 1565.1 3031.1 1595.7 2961.1 1583 2945.2 1600.7 2921.9 1617.5 2900.8 1628.9 2886.1 1636.7 2869.4 1642 2853.3 1648.1 2839.6 1654.4 2863.9 1659.8 2884 1662.6 2898.6 1663.1 2913.7 1661.4 2938.8 1658 2952.6 1653.6 2971.7 1641.5 3000.4 1632.8 3029.5 1604.4 3100.1 Z" data-holc_grade="C"/>
<path d="M 1680.5 2750.5 1677.9 2756.8 1669.5 2776.4 1663.9 2803.5 1655 2823.4 1642.1 2791.9 1631.5 2797.9 1648.1 2839.6 1642 2853.3 1599 2821.5 1510.5 2757.5 1522.3 2690.3 1521.8 2669.5 1498.2 2651 1568.4 2564.8 1573.4 2563.1 1585.5 2565.9 1589.2 2566.8 1637.2 2585.2 1660 2597.2 1666.1 2602.6 1669.8 2608.6 1672.1 2614.9 1672.5 2622 1672.5 2628.3 1675.1 2632 1680.9 2635.3 1689.6 2638 1699.3 2639.7 1706 2643 1719.8 2660.1 1707.4 2688.2 1680.5 2750.5 Z" data-holc_grade="C"/>
<path d="M 1461 3190.8 1448.9 3216.2 1429.8 3231.6 1412.6 3246 1403.6 3262.1 1391.1 3284.8 1361.4 3327.3 1346.9 3324.4 1337.2 3303.1 1328.9 3271.1 1378 3204.7 1388.8 3199.9 1395.2 3192.9 1405.2 3166.7 1422.1 3141 1440.1 3155.7 1494.4 3034.5 1526.9 3058 1546.5 3071.4 1499.9 3171.9 1498.3 3180.1 1462.9 3152.4 1448.6 3178.1 1461 3190.8 Z" data-holc_grade="C"/>
<path d="M 1759.4 220.6 1764.9 225.3 1794.2 255.9 1803.7 262.1 1812.9 264.3 1827.2 263.7 1844.1 264.3 1860.4 260.9 1859 292.4 1855.8 319.2 1852.6 334 1849.2 349.7 1844.7 359.9 1843.9 364.3 1835.9 374.3 1831.1 384.1 1828.5 399.6 1827.7 409.8 1822 422.4 1814.8 431.6 1801.9 442.4 1792.3 447.8 1775.4 454.5 1762.9 458.1 1756.1 460.5 1749.2 459.1 1743.8 457.1 1736 457.3 1740.2 480.9 1742.4 485.7 1737.8 486.9 1712.8 474.3 1673.6 455.7 1668.6 453.9 1665.2 453.9 1660.7 455.1 1656.5 453.7 1658.9 442.7 1662.3 427.6 1665 418 1667 412.8 1670.6 407.2 1673.6 402.6 1705.6 360.7 1688.1 353.7 1692.3 344.9 1710.2 350.9 1712 347.3 1743.6 362.9 1772.5 316.2 1748.2 305.6 1734.5 329.1 1703.6 320.9 1693.3 342.9 1656.4 331.4 1632.3 388.7 1612.4 425.2 1602.5 452.2 1567.3 438.8 1564.9 435.6 1558.3 430.6 1551.4 426.4 1542.4 422.6 1539.8 421 1535.5 417 1532.3 411.8 1525.7 403.6 1525.5 402.2 1523.3 399.8 1521.3 398.4 1507 393.9 1453.3 373.5 1414.9 356.7 1411.3 356.3 1407.6 355.1 1405.2 317.8 1403.4 296 1402.6 287.8 1409.7 193.2 1410.7 187.2 1413.3 183.8 1421.7 179.8 1427.3 171.6 1429.4 157.5 1432.7 147 1446.1 122 1456.2 108.2 1496 27.7 1500.2 24.8 1522 39 1568 66.5 1620.4 91.9 1652.2 107.8 1703.3 130.7 1714 142 1741.3 204.3 1754.8 216.7 1759.4 220.6 Z" data-holc_grade="C"/>
<path d="M 1564 3080.1 1604.4 3100.1 1567.8 3211 1523.2 3213.1 1493.1 3196.2 1498.3 3180.1 1499.9 3171.9 1546.5 3071.4 1564 3080.1 Z" data-holc_grade="C"/>
<path d="M 1663.8 3137.6 1626.6 3111.9 1616.2 3107.1 1637.3 3050.5 1649.8 3012.6 1656.3 2994.8 1666.1 2967.6 1668.4 2959.9 1674.1 2937.1 1676.9 2926.7 1677.6 2915 1678.2 2901 1675.7 2888 1670.4 2864.3 1664.6 2844.7 1655 2823.4 1663.9 2803.5 1669.5 2776.4 1677.9 2756.8 1680.5 2750.5 1694.8 2756.6 1708.4 2763.2 1718 2766.8 1725.7 2770.9 1730.4 2774.8 1735.6 2779.9 1746.9 2792.9 1752.3 2800.1 1757.1 2806.5 1759.7 2813.2 1761.3 2821.9 1761.8 2833.4 1761 2842.1 1759.3 2864.3 1758.1 2882.9 1755.9 2895.8 1752.6 2905.9 1746.4 2912.8 1740.8 2918.4 1733 2922.7 1725.4 2925.2 1721.6 2925.7 1719.5 2926.7 1711.2 2926.8 1711.1 2938.2 1710.4 2956.3 1706.6 2977.7 1704.6 2996.3 1702.5 2998.8 1700.2 3006.3 1695.9 3026.4 1708.7 3028.9 1715.1 3031.6 1723 3032.9 1726.8 3034.5 1727.8 3037.5 1711.2 3057.6 1707.7 3056.8 1704.8 3056.9 1691.5 3076.7 1687.2 3075.8 1683.2 3076.8 1669.6 3099.9 1668.8 3108.4 1666.8 3120.9 1663.8 3137.6 Z" data-holc_grade="C"/>
<path d="M 2520 2127.1 2519.5 2163.4 2503.8 2163.9 2502.8 2202.9 2501.6 2252.5 2479.7 2251.5 2478.1 2284 2468.4 2285 2469.7 2315.7 2473.3 2346.5 2479.4 2351.9 2479.7 2376.6 2478.4 2402.4 2476.7 2414.7 2481.8 2420.4 2487.8 2427.1 2487.1 2432.5 2485.1 2453.9 2480.1 2455.5 2474.7 2456.2 2464.7 2456.6 2453.3 2454.9 2446.5 2453.2 2442.5 2450.9 2438.5 2447.6 2433.4 2448.2 2428.7 2446.6 2424.4 2445.2 2422.7 2441.2 2422.7 2430.8 2420 2425.5 2418.6 2422.8 2408.9 2424.5 2384.1 2422.8 2342.4 2421.5 2341.1 2422.2 2344.5 2444.3 2344.8 2486.7 2349.9 2531.2 2353.3 2545.6 2351.3 2548.6 2348.9 2549.6 2326.1 2547.6 2312.3 2546 2289.1 2545 2273 2543 2278.7 2510.2 2280 2477.4 2281 2464.4 2281.6 2432.9 2282.7 2388 2284.5 2331 2291.2 2283.4 2299.8 2236.8 2308.3 2180.1 2314.5 2134.1 2376 2130.7 2399.1 2133.1 2443.2 2129 2482.9 2128.5 2520 2127.1 Z M 2292.1 2134.9 2284.2 2204.6 2272.9 2262.7 2267.1 2327.9 2262.1 2386.8 2256.7 2466.3 2252 2544.4 2250.5 2582.4 2225.4 2580.8 2205.9 2579.6 2204.9 2586 2201.1 2593.2 2195.7 2601.5 2175.3 2595.5 2170.9 2609.9 2159.4 2627.6 2150.4 2639 2142.1 2647.3 2090.5 2624.6 2085.1 2633.4 2077 2635 1990.4 2596 1982.7 2591.1 1988 2572.1 1994 2552 1997 2538.6 1997.4 2525.7 2049.2 2530.7 2075.6 2533.7 2083.2 2534.5 2083.8 2529.9 2083.8 2522.3 2087.2 2512.4 2089.1 2503.2 2090.1 2494.6 2094.9 2482.1 2100.3 2465.1 2105.3 2451.3 2105.5 2447.7 2085.2 2447.3 2055 2447.4 2029.4 2447.2 2010 2450 2013.6 2427.8 2013.1 2419 2026 2408.8 2027.6 2385.8 2030.2 2367.1 2036.7 2330.4 2041 2311.2 2042.7 2302.3 2058.2 2222.2 2058.6 2219.9 2058.2 2208.7 2056.9 2207.3 2050.7 2206.5 2053.7 2172.6 2054.3 2168.4 2058.7 2166.8 2069.8 2167.4 2069.6 2144.7 2082.5 2145.1 2082.2 2125.6 2160.4 2123.1 2161.6 2114.4 2165 2114.2 2165.8 2108.7 2180.2 2108.5 2181 2144.2 2241.4 2137.5 2292.1 2134.9 Z" data-holc_grade="C"/>
<path d="M 2731.6 2632.5 2717.6 2622 2715 2620 2683.4 2599 2658.9 2576.7 2651.9 2570.3 2658 2562.3 2660.4 2546.8 2668.8 2515.9 2670 2509.3 2671.2 2500.3 2671.8 2486.8 2671.8 2467.2 2673 2454.3 2669.5 2439.1 2665.3 2430.4 2664.1 2423 2665.9 2416 2683.4 2364 2690.4 2368.6 2703.1 2374.8 2712.6 2377.8 2718.4 2382.2 2728.3 2379 2732.5 2376.4 2735.1 2369.6 2736.5 2363.2 2735.9 2352.7 2735.7 2342.7 2730.3 2338 2719.1 2331.4 2711.5 2324.2 2718.5 2297.4 2726.2 2265 2732.7 2233.5 2735.1 2220.9 2739.1 2214.5 2748.7 2207.2 2755.2 2200.5 2757.3 2186.9 2759.2 2166.6 2760.5 2143.3 2757.7 2098.8 2761.2 2101.4 2791.5 2122.3 2827.8 2150.3 2848 2163.4 2876 2185.8 2864.5 2213.9 2858.6 2228.9 2854.6 2238.5 2847.3 2248.7 2838.2 2261 2831 2274.4 2824.8 2284.6 2820.5 2293.7 2819.2 2300.6 2819.7 2306.8 2820.5 2312.4 2819.2 2319.9 2814.6 2331.7 2811.4 2345.3 2809.8 2359.5 2809.1 2366.9 2810 2373.9 2811.2 2378.3 2813.2 2383.2 2809 2388.8 2802.5 2396 2798.9 2401.8 2799.1 2407.9 2800.3 2412.1 2802.6 2421.5 2801.4 2434.9 2799.3 2435.7 2784.8 2424.9 2767.9 2412.5 2762.7 2407.5 2761.7 2411.1 2756.6 2426.4 2749.2 2443 2745.4 2456.7 2743.2 2463.9 2738 2477.9 2735.5 2487.2 2730.7 2499.6 2727.5 2512.1 2724.7 2520.5 2720.1 2528.3 2713 2538.8 2707.3 2543.8 2719 2556.2 2727.9 2560 2738.4 2565.8 2745.8 2569.6 2750.7 2573.8 2751.7 2579.3 2749.7 2586.5 2731.6 2632.5 Z" data-holc_grade="C"/>
<path d="M 2387.1 2593.5 2380.5 2638.7 2371.4 2682.7 2369.6 2692.5 2371 2701.3 2376.3 2730 2376.4 2739.4 2374.4 2745.7 2371.6 2751.4 2370.1 2755.9 2364.5 2771.4 2359.7 2820.4 2351.2 2853 2347.4 2872 2343.7 2901.7 2338.7 2923 2332.8 2938.6 2322.9 2964.8 2323.9 2972.8 2323.7 2983.5 2318.3 2996.7 2306.5 3021.8 2303.1 3027.8 2300.1 3033.1 2302.8 3037.4 2298.5 3044.6 2293.6 3043.5 2251.4 3021.7 2190.1 2990 2226.1 2898.2 2198.6 2884 2194.1 2898 2174.2 2889.4 2164.3 2882.5 2125 2860 2118.8 2860 2075 2842.9 2090.3 2818.5 2128.2 2765.2 2138.9 2752.4 2153.4 2733.7 2163.9 2718.7 2172 2706.9 2180.5 2694.3 2189.1 2681.2 2203.4 2664.6 2211.9 2652.8 2214.1 2645.9 2217.6 2633 2221.3 2619.6 2223.5 2607.9 2224.3 2595.5 2225.4 2580.8 2250.5 2582.4 2247.1 2626.3 2260 2627.9 2273.7 2628.4 2287.7 2627.1 2303.3 2624.9 2311.6 2623 2317.2 2619 2325 2614.5 2331.5 2610.2 2341.7 2605.9 2368 2602.1 2387.1 2593.5 Z M 2249.9 2829.7 2259.7 2785.3 2262.1 2771.9 2261.5 2761.2 2223.7 2761.4 2218.2 2800.8 2197.7 2846.8 2236.6 2866.8 2249.9 2829.7 Z" data-holc_grade="C"/>
<path d="M 2270.3 3243 2264.4 3261.2 2253.9 3293.5 2247.6 3315.2 2236.7 3341.6 2204.4 3382.2 2198.5 3385.1 2115.3 3357.5 2111.6 3353.8 2125 3317.8 2125 3313.6 2125.4 3308.2 2129.6 3302.3 2135.5 3294.4 2141.3 3287.2 2146 3278 2147.2 3270.5 2070.9 3245.9 2072.2 3239.6 2096.1 3172.7 2202.3 3214.2 2270.3 3243 Z" data-holc_grade="C"/>
<path d="M 2524 2863.6 2488.5 2838.6 2499.7 2822 2509.7 2805.6 2515.6 2789.8 2526 2758 2560.7 2766 2572.7 2723.7 2577 2693.7 2582.3 2650.6 2596 2641 2603.8 2621.7 2617.5 2590.4 2623.9 2567.8 2628.7 2553.3 2651.9 2570.3 2658.9 2576.7 2650.9 2610 2646.7 2639.5 2670.7 2643.6 2702 2648 2709.7 2642.1 2717.6 2622 2731.6 2632.5 2767 2658.6 2762.3 2669 2754.2 2690.8 2739.6 2714.8 2729.7 2724.9 2724 2725.5 2719.3 2722.9 2717.3 2716.2 2715 2713 2711.6 2714 2702.1 2739.1 2671.7 2837.3 2666.3 2832.8 2648.3 2820 2638.1 2811.4 2634.6 2807.7 2627.1 2806.3 2620.4 2807.1 2611.8 2815.2 2606.9 2824.5 2599.2 2842.2 2589.5 2858 2580.4 2880.2 2568 2894.7 2524 2863.6 Z M 2745.2 2682.9 2673.5 2673.8 2665.5 2688.8 2697.5 2698.4 2737.6 2703 2745.2 2682.9 Z" data-holc_grade="C"/>
<path d="M 2488.5 2838.6 2524 2863.6 2506.5 2866.6 2487.6 2867.1 2457.3 2869 2439 2869.8 2430.2 2871.7 2425.6 2873.6 2429.4 2884 2436.9 2891.5 2440.4 2891.5 2441.7 2889.4 2444.7 2886.7 2460.3 2889.9 2486.9 2898.4 2484.7 2904.3 2475.6 2914.5 2464.3 2921.5 2448.2 2925 2432.9 2925.8 2413 2925 2396.6 2924.7 2373.8 2921.8 2355.2 2911.6 2343.7 2901.7 2347.4 2872 2351.2 2853 2359.7 2820.4 2364.5 2771.4 2370.1 2755.9 2371.2 2758.3 2406.4 2782.7 2438.8 2804 2466.9 2823 2488.5 2838.6 Z" data-holc_grade="C"/>
<path d="M 605.8 2981.9 638.8 2971 662.8 2950 673.3 2933.7 747.2 2913.4 750.9 2942 760.6 2974.4 773.4 3007.4 782.8 3038.7 795.4 3081 752.1 3095.7 672.9 3121.1 668.3 3116.8 654.1 3076.4 632.8 3083 605.8 3003.8 605.8 2981.9 Z" data-holc_grade="C"/>
<path d="M 781.1 3477.7 759.3 3481.1 730.9 3480.3 706.3 3472 688.6 3463.6 736.4 3445.9 759.7 3437.5 778.7 3428.5 785.4 3435.7 785.3 3449.4 780.7 3456 781.1 3477.7 Z M 714.2 3425.2 683.5 3434.7 673.9 3402.7 715.2 3388.7 718.9 3391.9 714.2 3425.2 Z M 723.5 3344.4 664.1 3361.7 644.5 3297.5 643.7 3285.4 735.1 3259.2 737 3262.7 724.9 3315.5 723.5 3344.4 Z M 737.5 3234.2 633.7 3269.1 631.1 3175.1 748.6 3138.7 737.5 3234.2 Z" data-holc_grade="C"/>
<path d="M 1704 823.2 1703.7 825.7 1600.9 838 1601.5 817.9 1606 788.5 1612.2 772.2 1613.8 768 1561.2 764.5 1558.3 763.7 1558 762.1 1560.7 709.5 1561.5 706.8 1564.2 706 1618.1 714.3 1619.4 711.9 1622.4 691.8 1624.8 690.2 1632.3 690.5 1633.9 676.1 1637.1 656.6 1645.4 657.4 1691.3 651.2 1694 681.1 1699.3 723.1 1703.4 758.1 1708.2 787.7 1707.4 801.1 1704 823.2 Z" data-holc_grade="C"/>
<path d="M 610.7 3260.3 603.2 3282.5 583.1 3263.8 568 3253.2 550.6 3240.9 540.4 3233.3 529.9 3218.8 524.1 3204.4 600.3 3179.9 604.9 3183.2 610.7 3260.3 Z M 532.8 3165.5 511 3176.2 501.7 3165.2 486.1 3150.7 463.2 3134.9 436.4 3117.8 419.5 3107.8 399.3 3086.4 428.6 3086.2 470 3074.4 597.7 3030.4 602.8 3037.3 599.3 3093.5 600 3144.1 532.8 3165.5 Z" data-holc_grade="C"/>
<path d="M 1250.6 3301.6 1245.8 3317.6 1233.4 3340.6 1219.1 3360.1 1212.2 3369.5 1191.5 3354.8 1158.2 3396.3 1075.7 3333.9 1056.3 3354.5 1099.8 3390.1 1032.2 3477.5 987.4 3535.2 933.6 3498.6 993.4 3422.3 1026.7 3380.4 1060.1 3340.6 1089.1 3298 1111.9 3261.2 1114.6 3247.1 1118.8 3238.1 1152.9 3200.1 1171.9 3214.3 1196.4 3238.4 1213.6 3255 1227.8 3272.9 1250.6 3301.6 Z" data-holc_grade="C"/>
<path d="M 1298.4 3763.9 1214.4 3696.5 1349.3 3479.3 1374.5 3498.2 1421.5 3529.5 1429.5 3540.8 1460.2 3570.1 1503.9 3601.5 1486.2 3639.6 1471.9 3658.4 1376.6 3819.1 1309.8 3766.8 1298.4 3763.9 Z M 1210.5 3592.3 1213.3 3590.2 1214.3 3581 1210.3 3568.8 1206.6 3562.9 1205.7 3557.4 1245.7 3504 1287.4 3438.1 1298.4 3445.4 1310.8 3456.1 1314.2 3469.1 1313.2 3489.9 1271.2 3559.5 1234.9 3613 1210.5 3592.3 Z" data-holc_grade="C"/>
<path d="M 1899.1 3449.8 1930.9 3454.8 1998.5 3469.8 2016.7 3472 2017.1 3477.3 2013 3493.7 2008 3510.8 2004 3522.5 2001.3 3533.9 2002 3537.9 2009 3539.6 2023.1 3542.6 2028.5 3545.3 2033.6 3558.3 2041 3581.7 2044 3600.1 2043 3616.2 2033.6 3650.7 2028.6 3664.1 2015.5 3689.5 2000 3719.3 1985.6 3749.1 1982.6 3760.9 1979.9 3768.2 1973.8 3772.2 1958.7 3782.3 1907.3 3759.9 1849.9 3727.9 1816.2 3709 1819.2 3694.3 1809.5 3646.1 1805.7 3627.7 1865.2 3641 1858.2 3671.5 1874.3 3675.9 1896.5 3585.8 1872.9 3579.5 1866.9 3609.2 1820.9 3596.5 1817.5 3592.9 1805.4 3567.8 1802.4 3551.4 1797.7 3539.3 1789.6 3512.9 1784.5 3490.4 1780.5 3461.3 1776.5 3435.9 1776.8 3421.5 1780.1 3408.2 1817.5 3417.7 1899.1 3449.8 Z" data-holc_grade="C"/>
<path d="M 1958.7 3782.3 1944 3886.2 1924.6 3870.1 1904.2 3850.5 1883 3824.8 1868.7 3806.1 1855.5 3787.1 1848.8 3776.1 1845.6 3763 1845.3 3746.1 1849.9 3727.9 1907.3 3759.9 1958.7 3782.3 Z" data-holc_grade="C"/>
<path d="M 2472.3 3413.3 2521.9 3442.5 2529.4 3435.3 2528.9 3430.4 2531.3 3423.5 2535 3415.7 2544.4 3404.7 2553 3396.1 2567 3384.4 2578.6 3380.1 2583.1 3381.1 2571.9 3422.4 2569 3463.6 2565.8 3495.7 2561.6 3506.2 2551.9 3523.3 2547.5 3534 2545.2 3542.7 2541.1 3544.4 2536.8 3543 2530.1 3540.1 2523.7 3537.3 2508.5 3529.3 2500.1 3522 2488.5 3510.9 2463.3 3546.4 2455.6 3556.5 2447.6 3558.8 2435.5 3560.5 2427.4 3560.2 2411.3 3588 2403.2 3605.4 2385.8 3639.9 2381.2 3653.9 2376.7 3667.3 2363.7 3696.5 2327.2 3669.2 2314.8 3660 2266.2 3623.6 2272.5 3618.5 2274.9 3612.2 2276.2 3603.5 2291.6 3558.9 2297.7 3547.9 2299.7 3538.2 2297.3 3534.2 2292.6 3530.2 2312.8 3492.7 2345 3443.1 2375.2 3404.2 2399.2 3363.1 2472.3 3413.3 Z M 2439.9 3468.7 2422.1 3459 2371.5 3555.4 2387.6 3565.1 2439.9 3468.7 Z" data-holc_grade="C"/>
<path d="M 2474.6 3984.6 2442.5 4074 2434 4067.5 2384.9 4030.4 2354 4007.1 2405.8 3933.6 2474.6 3984.6 Z" data-holc_grade="C"/>
<path d="M 2793.1 3458.9 2838.8 3493.9 2832.6 3506.7 2821.1 3522.8 2806 3537.3 2803.1 3537.8 2782.6 3518.6 2761.1 3501.2 2746.1 3529.1 2738 3544.6 2727.3 3577 2717.1 3604.6 2704.5 3632.5 2716.4 3640 2728.5 3644 2756.2 3650.9 2783.6 3664.3 2785.2 3662.4 2787.9 3657.6 2791.9 3652.7 2796.2 3648.4 2803.2 3646.3 2809.1 3644.7 2814.2 3646 2821.2 3647.9 2821.5 3668.5 2818.8 3678.7 2820.7 3702 2813 3716.2 2806.8 3717.3 2795.5 3732.3 2774.3 3770.1 2761.4 3791.2 2755.2 3808.6 2743.7 3807.6 2738 3815.9 2732.1 3819.6 2728.6 3820.2 2725.4 3818.6 2724.3 3814.6 2723 3806 2721.1 3801.2 2716.5 3795.3 2713.3 3789.9 2709.5 3787.3 2706 3787 2701.7 3788.9 2699.2 3792 2697.6 3797.3 2694.9 3798 2689.8 3796.7 2684.8 3794 2680.1 3793.3 2674 3794 2669.3 3796.3 2665 3799.7 2665.3 3802.4 2669.3 3806.7 2666.7 3810.1 2662 3815.1 2660.6 3820.1 2661.3 3826.1 2643.2 3857.3 2641.5 3854.3 2605.5 3829.9 2540.6 3787.1 2538.9 3784.1 2533.5 3780.7 2530.2 3778.1 2529.5 3772 2529.5 3763.3 2531.3 3755.8 2534.4 3750.8 2534.4 3746.8 2530.8 3742.8 2502.6 3715.2 2437.8 3673.8 2452.7 3650.6 2486.3 3613.8 2475.8 3606.7 2500.5 3575.7 2504.7 3582 2509.3 3582.8 2510.7 3579.9 2524.9 3577.7 2554.2 3576.6 2564.2 3576.1 2572.5 3573.1 2579.5 3568.9 2593.2 3550.6 2602 3538.3 2605 3537.8 2630.3 3549.3 2635.9 3541 2641 3534.3 2646.6 3528.9 2652.8 3524.3 2660.3 3520 2669.2 3516 2681 3512.8 2683.4 3464.9 2651.9 3441.6 2659.4 3432.8 2667.5 3418.8 2670.7 3411.9 2680.7 3398.7 2691.9 3385.3 2774 3443.4 2748.2 3481.1 2746.9 3486.2 2763.5 3497.7 2793.1 3458.9 Z M 2514.4 3592 2505 3599 2514.7 3611.8 2497 3644.8 2533.3 3675.5 2552.1 3645.3 2640 3725.3 2650.8 3733 2655.6 3734.9 2662.6 3734.3 2668.3 3731.7 2674.7 3725.2 2676.1 3718.3 2670.4 3710.5 2659.1 3706.2 2654 3709.7 2650 3710.8 2645.7 3709.4 2599.5 3666.9 2598.1 3661 2617.4 3629.7 2596.1 3615.5 2575.2 3645 2514.4 3592 Z" data-holc_grade="C"/>
<path d="M 1166.2 3778.2 1140.2 3822.2 1157 3834.4 1123.4 3884.2 1082.6 3921.4 1079.3 3924.4 1057.5 3903.9 1045.1 3898.6 1036.3 3903.6 1011.5 3880.8 1029.3 3858.4 1104.3 3771.4 1128.5 3752.3 1166.2 3778.2 Z" data-holc_grade="C"/>
<path d="M 1605.3 3569.5 1648.2 3566 1699.6 3570.5 1708.2 3589.6 1714.7 3627.8 1725.8 3663.4 1743 3706.6 1753.6 3746.3 1757.1 3774.9 1763.2 3805.5 1766.7 3847.7 1760.1 3881.9 1756.6 3902.4 1744.4 3902.8 1694.4 3918.3 1678.9 3928.2 1618.6 3929.8 1612.1 3924.8 1607.9 3906.5 1610.1 3895.8 1608.5 3867.9 1575 3865.9 1573.4 3862.9 1571.8 3817.5 1486.9 3792 1485.5 3782.7 1503.8 3763.1 1504.6 3759.6 1504.6 3755.6 1502.8 3751.8 1498.2 3747 1490.1 3730.1 1492.5 3704.6 1497.2 3686.5 1516.5 3667.4 1547.8 3630.1 1591.9 3669.9 1592.7 3642.1 1589.7 3596.1 1604.4 3591.3 1605.3 3569.5 Z" data-holc_grade="C"/>
<path d="M 1613.7 871.1 1613.4 878.9 1612.5 895.1 1612.6 909.7 1612.5 916.2 1616.8 916.6 1622 917.8 1627.9 919.4 1633.3 923.3 1636.2 926.2 1647.6 925.7 1655.7 925.3 1670 925 1678.3 925.5 1716.3 923.9 1721.8 951.6 1723.6 975.4 1720 975.9 1716.7 973.7 1711.1 967.2 1704.4 962.9 1698.6 960.6 1690.2 961.6 1685.1 963.1 1676.4 964.4 1667.5 963.1 1662.2 958.9 1656.8 952.7 1653.1 952.5 1632.7 956.2 1611.2 963.4 1596.1 972.8 1572.3 977.3 1568.3 974.4 1566.1 973.6 1556.7 970.1 1509.4 964.5 1467.3 956.2 1446.7 949.2 1418 940.7 1365.4 929.5 1376.9 885.9 1380.2 882.7 1463.6 893.1 1491.2 895.3 1584.5 900.6 1584.5 871.2 1606.1 869 1613.7 871.1 Z" data-holc_grade="C"/>
<path d="M 2327.2 3669.2 2363.7 3696.5 2418.1 3729.9 2386.2 3780.5 2363.2 3811.6 2360.7 3815 2331.1 3853.5 2318.7 3871.6 2298.5 3885.4 2281.7 3894.1 2261.6 3898.4 2247.4 3898.4 2215.2 3876.4 2268.9 3774.6 2290.7 3734 2327.2 3669.2 Z M 2266.2 3623.6 2314.8 3660 2248.7 3764.4 2194.3 3867.8 2186.8 3886.4 2176.2 3876.4 2147.9 3874.9 2120.2 3853.8 2124.2 3829.7 2133.8 3799.6 2159 3739.8 2185.1 3693.6 2213.3 3622.3 2261.7 3631.8 2266.2 3623.6 Z" data-holc_grade="C"/>
<path d="M 2186.8 3886.4 2255.8 3939.6 2278.8 3955.4 2241.1 4007.1 2230.6 4026.4 2210.5 4046.5 2171.4 4086.7 2145.8 4124.8 2131.5 4158.7 2127.8 4190.1 2120.2 4190.5 2112.2 4150.8 2107.6 4133.2 2103.3 4101.8 2100.8 4091.7 2104.6 4080 2107.9 4072.5 2119.7 4046.1 2162.9 3981.2 2097.4 3934 2120.2 3853.8 2147.9 3874.9 2176.2 3876.4 2186.8 3886.4 Z" data-holc_grade="C"/>
<path d="M 2354 4007.1 2384.9 4030.4 2344.9 4112.7 2319.7 4167.2 2290.3 4215.3 2285.7 4218.3 2262.6 4255.1 2245.1 4243.4 2215.7 4223.7 2207.1 4217.9 2205.8 4214.1 2153.7 4174 2148.6 4173.1 2143.6 4181.9 2138.2 4187.8 2127.8 4190.1 2131.5 4158.7 2145.8 4124.8 2171.4 4086.7 2210.5 4046.5 2230.6 4026.4 2241.1 4007.1 2278.8 3955.4 2354 4007.1 Z" data-holc_grade="C"/>
<path d="M 2442.5 4074 2522.7 4130.7 2508.8 4155.7 2499.8 4168.5 2495.8 4174.2 2488.6 4184.2 2471.4 4203.1 2458.4 4194.7 2435.3 4220.7 2430.2 4211.1 2423.5 4209 2444.9 4116.4 2452.4 4099.7 2429.7 4085.7 2412.1 4161.3 2344.9 4112.7 2384.9 4030.4 2434 4067.5 2442.5 4074 Z" data-holc_grade="C"/>
<path d="M 2332.4 4422.2 2332.5 4426.5 2328.5 4435.9 2328.1 4449.6 2326.1 4454 2316.7 4473.7 2323.8 4474.7 2323.1 4496.8 2299 4541.1 2257.6 4514.8 2272.9 4475.9 2291 4448.6 2317.6 4411 2332.4 4422.2 Z" data-holc_grade="C"/>
<path d="M 2387.6 4277.9 2385 4291.5 2389.7 4302.2 2386.8 4313.8 2370.9 4369.5 2354.8 4358.2 2327.9 4339.3 2340.2 4316.2 2365.8 4276.8 2385.4 4255.1 2396.1 4262.9 2396.2 4269.3 2387.6 4277.9 Z" data-holc_grade="C"/>
<path d="M 2435.3 4220.7 2437.6 4236.5 2433.5 4249.2 2420.8 4263 2409 4264.3 2397.2 4258 2390.2 4247.9 2392.2 4232.5 2401.2 4219.1 2415 4210.4 2423.5 4209 2430.2 4211.1 2435.3 4220.7 Z" data-holc_grade="C"/>
<path d="M 2755.2 3808.6 2717.8 3885.4 2701.8 3885.2 2688.8 3911.3 2666.4 3921.8 2664.6 3934.4 2660.4 3957.8 2656.2 3983.9 2653 4004.6 2647.9 4023.1 2605.2 4004.2 2609 3982.7 2613.6 3959 2617.8 3936.3 2621.8 3921.8 2624.8 3913.2 2630.1 3900.9 2643.6 3872 2644.8 3865.8 2643.2 3857.3 2661.3 3826.1 2660.6 3820.1 2662 3815.1 2666.7 3810.1 2669.3 3806.7 2665.3 3802.4 2665 3799.7 2669.3 3796.3 2674 3794 2680.1 3793.3 2684.8 3794 2689.8 3796.7 2694.9 3798 2697.6 3797.3 2699.2 3792 2701.7 3788.9 2706 3787 2709.5 3787.3 2713.3 3789.9 2716.5 3795.3 2721.1 3801.2 2723 3806 2724.3 3814.6 2725.4 3818.6 2728.6 3820.2 2732.1 3819.6 2738 3815.9 2743.7 3807.6 2755.2 3808.6 Z" data-holc_grade="C"/>
<path d="M 2532.1 4215.7 2540.3 4197.7 2544.8 4187.9 2552.5 4169.5 2562.9 4144 2566.8 4125.7 2568.6 4117.2 2574.3 4111.2 2585.4 4104.2 2595.1 4093.8 2602.5 4082.7 2604.2 4064.6 2603.5 4049.2 2602.2 4030.8 2602.1 4016.4 2605.2 4004.2 2647.9 4023.1 2638.3 4062.7 2633.8 4091.4 2633.8 4107.8 2632.5 4132.6 2629.8 4145 2624.8 4155.4 2620.4 4163.7 2597.9 4218.4 2582.8 4247.2 2574.1 4245.8 2565.4 4248.9 2532.1 4215.7 Z" data-holc_grade="C"/>
<path d="M 840 4258.6 824.2 4279.3 811.9 4289.2 805.9 4298.3 799.7 4319.4 794.9 4339.5 790.8 4345.4 786 4340.9 752.4 4329.6 738.4 4315.4 722.8 4309.7 760.2 4226.2 772.4 4199.9 775.1 4185.4 767.7 4174.5 764 4169.1 770 4162.1 785.3 4164.6 806.7 4156 840 4258.6 Z" data-holc_grade="C"/>
<path d="M 368.2 964.7 367.5 989 354.4 1028.5 358.8 1036.5 433.8 1057.1 427.8 1083.2 419.6 1097.4 393.8 1143.1 359.3 1209.2 358.3 1216.1 357.1 1224.6 347 1246.1 326.9 1269.9 313.2 1285.1 295.8 1291.5 269.1 1301.7 253.6 1305.5 234.8 1307.5 218.3 1304.9 207.9 1300.3 194.8 1289.2 184.8 1267.4 165.1 1233.3 160.9 1218.8 158.3 1205.6 150.4 1196 129.5 1199.8 114.8 1194.9 90.5 1168.8 88.1 1160.6 85.3 1150.6 68 1124.9 53.3 1118.1 52.1 1115.5 84.4 1090.3 88.8 1081.5 80.8 1054.2 73.8 1039.3 62.1 1019.9 54.3 1014.1 35 1001 1 973.7 27.3 914.2 102.2 917.7 153.5 918 188.9 885.2 203.8 875 228.9 903.4 194.5 932.5 219 958.7 236.3 959.6 250.4 964.8 268.1 974.2 280.6 976.4 301.7 977.1 310.7 971.3 322.2 967.3 339.9 957.1 347.6 955.3 355.6 957.3 368.2 964.7 Z M 270.2 1194.4 248.3 1129.8 230.6 1136.6 250.3 1204.2 270.2 1194.4 Z" data-holc_grade="C"/>
<path d="M 517.2 4287.1 467.4 4256.5 485.4 4225.7 496 4189.3 503 4153.4 506.2 4141.6 513.2 4110.8 515.1 4085.1 526.4 4081.1 552.8 4061.9 564.1 4069.9 577.2 4074 594 4090.6 595 4098.3 592.1 4107.9 586.1 4118.2 575.6 4133.4 564.7 4142.7 551.6 4159.5 550.7 4168.6 557.4 4184.2 555.2 4192.1 547.5 4204.9 537.8 4231.9 529.1 4258.6 517.2 4287.1 Z" data-holc_grade="C"/>
<path d="M 973.7 3893.1 983.7 3900.2 975 3910.1 947.4 3948.2 934.3 3981 929 3980.6 925.5 3982.3 920.4 3994 917.9 4000 917.1 4005.1 913.4 4002.4 824 3937.5 788.9 3911.9 798 3890.2 808.8 3872 818.2 3854.9 823.3 3846.8 827.1 3832.1 829.2 3828.6 852.4 3807.5 862.6 3796.8 880.7 3774.3 883.9 3776.3 933.4 3811.4 909.9 3845.7 973.7 3893.1 Z" data-holc_grade="C"/>
<path d="M 982.2 4056.9 934.2 4018.5 940.6 4000.8 939.3 3988.4 934.3 3981 947.4 3948.2 975 3910.1 983.7 3900.2 1004.2 3876.9 1011.5 3880.8 1036.3 3903.6 1045.1 3898.6 1057.5 3903.9 1079.3 3924.4 1082.6 3921.4 1117.8 3950.6 1033 4093.9 997.4 4069.1 982.2 4056.9 Z" data-holc_grade="C"/>
<path d="M 663.9 4402 634.5 4459.8 603.3 4439.1 632.1 4377.8 663.9 4402 Z M 608.5 4359.4 564.7 4444.7 543.2 4432.7 548.2 4418.9 519.3 4395.8 508.9 4409.2 491.7 4422.6 470.2 4405.8 482.4 4381.7 486.7 4372.7 486.1 4364.3 465.6 4350.2 415.1 4428.5 529 4512.4 482.2 4592.1 452.2 4647 432.2 4684.7 429.6 4687.6 422.7 4695.1 376.4 4659.5 403.6 4627 418.3 4640.1 460 4585.4 286.6 4451 292.2 4435.1 298.3 4425.5 306.2 4414.2 314.6 4404.4 327.4 4387.9 338.9 4372.1 346.2 4357.2 349.4 4344.9 352 4335.3 356.9 4323.4 361.1 4315.6 366.4 4311.4 376.7 4307.2 383.1 4304.8 387.8 4305 402.5 4300 434.6 4284.9 448.5 4277.1 456.2 4270.9 462.6 4263.1 467.4 4256.5 517.2 4287.1 528.3 4294.8 608.5 4359.4 Z" data-holc_grade="C"/>
<path d="M 523.4 4638.1 528.2 4640.4 548.6 4649.5 558.8 4651.7 585.2 4653.5 593 4649.8 596.8 4650.9 588.1 4695.1 582.7 4708.8 576.5 4724.8 566.6 4728.9 547.5 4721.9 541.6 4721.1 536.2 4722.4 531.3 4728.8 513.3 4765.3 441.7 4740.5 439.3 4747.5 434.2 4756.1 418 4774.8 411.6 4763.6 394.2 4746.2 372.3 4724.4 358.3 4720.1 303.7 4675.8 322.1 4656.8 327.5 4644.5 332.6 4632.2 374.7 4661.9 376.4 4659.5 422.7 4695.1 429.6 4687.6 435.3 4692.3 447.1 4693.6 452 4696.6 458.4 4697.7 484.6 4650.8 502.7 4623.5 523.4 4638.1 Z" data-holc_grade="C"/>
<path d="M 348.8 4846 334.4 4869.7 284.6 4950.5 275.6 4960.5 251.1 4989.3 276.1 5007.8 358.6 4880 390.7 4901.1 350.8 4965.2 381.1 4982.4 393.8 4991 404.3 4996.4 412.4 5002.5 416 5010.3 416.6 5024 410.9 5045.7 402 5067.4 382.5 5105 162.7 4945.6 169.1 4936.3 174.1 4917.8 209.9 4859.2 228.4 4829.8 279.1 4864.7 310.5 4819.8 348.8 4846 Z" data-holc_grade="C"/>
<path d="M 514.6 979.5 513.7 982.7 486.1 1001.6 456.3 1028.6 447.2 1038.7 438.8 1058.5 433.8 1057.1 358.8 1036.5 354.4 1028.5 367.5 989 368.2 964.7 380.9 970.5 398 970.7 420.3 964.8 450.3 968 479.4 974.2 514.6 979.5 Z" data-holc_grade="C"/>
<path d="M 641.1 1182.7 641.9 1309.4 585.8 1292.4 587.2 1276.4 543.2 1261.1 546.4 1252.9 546.7 1252.2 552.1 1238.3 584.7 1185.8 586 1186.1 627.7 1196.1 629.4 1177.8 641.1 1182.7 Z" data-holc_grade="C"/>
</g>
<g id="D">
<path d="M 552.5 1356.3 540.4 1377.5 537.4 1391.2 536.4 1400.6 541.7 1420 515.6 1433.3 523.3 1464.5 501 1471.5 485.4 1472.8 475.2 1470.7 466.3 1465.6 459.1 1465.6 454.1 1463.4 452.4 1462.6 467.4 1428.4 493.2 1398.5 509.4 1349.6 538.9 1352.3 552.5 1356.3 Z" data-holc_grade="D"/>
<path d="M 1409.8 3358.3 1445.1 3293.5 1458.5 3304.4 1469.8 3311.1 1499.2 3314 1513.1 3311.1 1534.1 3311.1 1540.8 3311.5 1572.3 3360.8 1604.6 3432.8 1624.4 3467.9 1580.7 3484.3 1576.5 3481.7 1561 3438.2 1535.3 3433.2 1526.9 3453.7 1523.4 3454.4 1494.1 3445 1485 3437.5 1477.2 3428.4 1475.3 3420.3 1476.4 3404.8 1478.3 3387.9 1480.4 3371.6 1481 3366 1479.1 3361.7 1478 3360.9 1474 3361.4 1452.5 3365.7 1430.4 3361.4 1409.8 3358.3 Z" data-holc_grade="D"/>
<path d="M 2405.6 3347.7 2399.2 3363.1 2375.2 3404.2 2345 3443.1 2312.8 3492.7 2292.6 3530.2 2266 3511.9 2357.6 3322.6 2405.6 3347.7 Z" data-holc_grade="D"/>
<path d="M 2493.8 3931.2 2486 3952.9 2423.9 3908 2446.7 3875.7 2461.5 3856.7 2510.4 3891 2493.8 3931.2 Z" data-holc_grade="D"/>
<path d="M 548.6 3674.2 534.6 3644.6 519.5 3617 519.2 3601.1 521.2 3590.4 533 3580.4 548.8 3572.7 562.6 3568.4 582.8 3564.4 598.5 3564.4 613.3 3568.1 623.4 3573.4 629.4 3580.8 633.5 3588.2 634.1 3596.9 634.8 3608.3 637.5 3619.3 638.1 3628.3 647.9 3637 656.3 3640.4 672.4 3643.4 693.3 3629 703.7 3616.7 713.4 3600.6 718.2 3586.5 721.5 3569.8 736 3572.5 787 3591.6 827 3613.1 851.5 3628.5 833.7 3710.8 819.2 3804.9 812.1 3818.9 766.7 3865.4 732.4 3836 768.4 3790.5 744.2 3775.7 743.6 3770 768.5 3738.2 779.9 3731.5 784.6 3723.2 750.3 3700.1 745.6 3703.1 723.4 3734.2 704.3 3752.2 691.2 3765 678.4 3772.3 667.3 3773 656.9 3786 655.2 3789.4 644.8 3768.9 633.4 3749.2 621.3 3731.1 600.5 3708 572.6 3684.2 548.6 3674.2 Z" data-holc_grade="D"/>
<path d="M 1298.4 3763.9 1252.8 3828.1 1239.7 3851.5 1219.1 3884.2 1200.2 3903.4 1176.3 3926 1123.4 3884.2 1157 3834.4 1140.2 3822.2 1166.2 3778.2 1214.4 3696.5 1298.4 3763.9 Z" data-holc_grade="D"/>
<path d="M 2446.7 3875.7 2423.9 3908 2405.8 3933.6 2354 4007.1 2278.8 3955.4 2255.8 3939.6 2302.3 3925.4 2304.5 3922.4 2296.7 3906.1 2318.7 3871.6 2331.1 3853.5 2360.7 3815 2363.2 3811.6 2403.4 3844.4 2446.7 3875.7 Z" data-holc_grade="D"/>
<path d="M 2332.4 4422.2 2317.6 4411 2294.3 4393.4 2306.9 4373 2339.9 4395.4 2332.4 4422.2 Z M 2354.8 4358.2 2344.7 4385.9 2312.8 4365.6 2317.7 4357.5 2307.6 4348.1 2318.7 4332.8 2327.9 4339.3 2354.8 4358.2 Z" data-holc_grade="D"/>
<path d="M 2299 4541.1 2323.1 4496.8 2323.8 4474.7 2327.1 4467 2349 4464.3 2347.3 4494.1 2340.3 4509.2 2321.5 4554.1 2299 4541.1 Z" data-holc_grade="D"/>
<path d="M 755.6 3993 762.6 4027.1 776 4065.6 792.8 4121.6 793.7 4129.2 790.8 4128.9 786.7 4127.3 772.2 4121.7 763.9 4112 770.9 4089.5 723.3 4049.3 731.1 4032.7 736 4007 741.4 3997.1 719.3 3979.1 736.8 3953.7 739.8 3959.1 748.4 3974.3 755.6 3993 Z" data-holc_grade="D"/>
<path d="M 549 3691.5 564.3 3698.5 579.2 3710.4 592.5 3726.1 605.2 3741.4 620.5 3769.7 637.5 3798.8 654.2 3820.3 681.4 3843.5 673.9 3850.9 668.9 3854.9 652.3 3856.7 645.7 3854.9 633.6 3838.4 618.5 3816.9 610.8 3809.9 566.3 3786.3 550.7 3820.7 529.2 3798.1 537.9 3776.3 543.1 3746.7 547.6 3699.7 549 3691.5 Z" data-holc_grade="D"/>
<path d="M 1886.2 1223.2 1887.6 1216.8 1902.5 1213.8 1908.9 1213.2 1915.8 1210.3 1919.5 1206.3 1921.3 1200.1 1919.8 1192.3 1916.1 1182.1 1912.3 1172.6 1906.9 1155.2 1906 1145 1905.5 1126.6 1905.2 1123.3 1902.5 1118.8 1900 1114.3 1900 1111.1 1902.7 1097.9 1909 1080.9 1913.6 1068.8 1921.1 1065.9 1927.6 1060.8 1937 1055.1 1946.2 1050.8 1950.4 1049.7 1954.7 1049.2 1958.3 1049.7 1962.4 1052.1 1969.3 1056.9 1974.9 1062.9 1979.4 1072.1 1982.5 1077.3 1986.5 1079.5 1988.3 1082.1 1989.7 1090.1 1990.7 1093.7 1992.3 1093.7 1994.7 1092.5 1998.2 1091.5 2000.4 1092.3 2001.2 1094.5 2001.4 1097.3 2002 1099.3 2004 1100.5 2004.2 1102.5 2003.2 1105.3 2000.2 1110.9 2000.6 1113.7 2002.8 1115.1 2007.4 1114.3 2009.6 1115.3 2012.1 1118.1 2018.5 1118.9 2025.5 1116.1 2031.8 1113.3 2036.8 1111.9 2041.8 1113.9 2046.3 1116.9 2051.9 1117.7 2056.9 1117.9 2063.6 1117.9 2072 1116.5 2079.7 1112.9 2090.1 1107.7 2101.4 1100.9 2108 1101.1 2113.7 1104.9 2114.5 1109.5 2114.9 1115.1 2117.1 1114.3 2120.7 1112.3 2126.7 1113.3 2132 1116.7 2135.2 1119.3 2135.8 1127.9 2134.8 1171.4 2133.6 1194.5 2134 1225.9 2135.9 1231.3 2139.7 1241.4 2144.7 1248 2131.9 1295.1 2127.4 1297.1 2119 1296.1 2101.5 1290.7 2069.9 1277.9 2002.5 1255.3 1987.2 1254.7 1954.4 1247.7 1933.4 1240.9 1910.1 1234.2 1895.2 1229.2 1886.2 1223.2 Z" data-holc_grade="D"/>
<path d="M 882.3 4052.6 851 3989 824 3937.5 913.4 4002.4 908.8 4017.8 898.8 4035.6 882.3 4052.6 Z M 792.8 4121.6 776 4065.6 762.6 4027.1 755.6 3993 758.6 3950.8 771.8 3902.9 812.4 3979.6 822.5 4003.1 841.9 4061 792.8 4121.6 Z" data-holc_grade="D"/>
<path d="M 917.1 4005.1 934.2 4018.5 982.2 4056.9 840 4258.6 806.7 4156 860 4087.2 884.5 4057.7 882.3 4052.6 898.8 4035.6 908.8 4017.8 913.4 4002.4 917.1 4005.1 Z" data-holc_grade="D"/>
<path d="M 2257.6 4514.8 2223.1 4494.5 2254 4443.5 2273.9 4418.1 2294.3 4393.4 2317.6 4411 2291 4448.6 2272.9 4475.9 2257.6 4514.8 Z M 2215.7 4223.7 2173.4 4275.3 2202.5 4297.9 2245.1 4243.4 2262.6 4255.1 2285.7 4218.3 2290.3 4215.3 2328.1 4244.2 2329.4 4248.4 2346.4 4259.9 2298.5 4338.8 2297.5 4347.2 2290.3 4354.6 2287.2 4356.9 2242.2 4416.6 2221.7 4445.4 2212.3 4464.2 2211.3 4463.3 2193.9 4392.1 2190.5 4372.1 2188.2 4365.4 2187.8 4358.7 2184.7 4346.9 2179.5 4331 2177.3 4316.6 2170.2 4293.7 2165.2 4277.6 2150.6 4272.8 2130.9 4271 2132.3 4298.9 2146 4298.5 2167 4373.2 2133.8 4370.6 2096.5 4426.9 2031.7 4390.2 2029.5 4387.6 2028.8 4365.5 2028.6 4355.2 2029.8 4349.8 2032.3 4343.4 2040.7 4332.3 2045.2 4322.3 2049 4313.6 2051.8 4308.6 2052 4300.5 2052.4 4296.3 2050 4290.9 2047.6 4288.5 2039.7 4280.1 2035.1 4271 2029.6 4261.4 2025.4 4255.9 2023.1 4251.3 2024.8 4246.7 2028 4243.7 2035.6 4242.9 2037.9 4243.7 2040.5 4242.3 2044.5 4238.9 2050.2 4236.2 2054.8 4237.2 2058 4240.9 2060.9 4244.9 2064.5 4244.7 2069.3 4240.9 2080 4234.6 2089.7 4226 2095.8 4219.3 2103.8 4210.9 2113.5 4203.9 2122 4198.4 2120.5 4194.2 2120.2 4190.5 2127.8 4190.1 2138.2 4187.8 2143.6 4181.9 2148.6 4173.1 2153.7 4174 2205.8 4214.1 2207.1 4217.9 2215.7 4223.7 Z" data-holc_grade="D"/>
<path d="M 376.4 4659.5 374.7 4661.9 332.6 4632.2 325.5 4626.7 315.3 4619.5 296.9 4610.2 283.8 4602.6 274.9 4593.5 269.5 4588.7 263 4583.4 260.8 4576.4 261.4 4570 262.9 4559.3 266.3 4548.9 270.1 4531.8 274.4 4517.7 276 4504.1 278.5 4490.2 280.7 4471.5 283.5 4459.7 286.6 4451 460 4585.4 418.3 4640.1 403.6 4627 376.4 4659.5 Z" data-holc_grade="D"/>
<path d="M 694.9 4425.6 659.2 4496.7 659.4 4502.1 686.9 4521.7 699 4527.6 711.1 4537.8 717.5 4542.3 719.1 4546.9 676.9 4613 667.4 4617.9 650.8 4598.6 624.1 4585.7 608.8 4609.8 600.4 4614.1 597.5 4610 593.7 4592.4 594.8 4565 594.6 4549.2 594.1 4536.1 571.4 4564.2 541.1 4615 523.4 4638.1 502.7 4623.5 603.3 4439.1 634.5 4459.8 663.9 4402 694.9 4425.6 Z M 491.7 4422.6 508.9 4409.2 519.3 4395.8 548.2 4418.9 543.2 4432.7 564.7 4444.7 561.9 4457.4 546.8 4480.8 537.4 4489.9 511.9 4448.6 491.7 4422.6 Z" data-holc_grade="D"/>
<path d="M 394.2 4746.2 348.8 4846 310.5 4819.8 279.1 4864.7 228.4 4829.8 247.3 4779.9 261.1 4747.7 284.7 4712.2 288.7 4696.8 303.7 4675.8 358.3 4720.1 372.3 4724.4 394.2 4746.2 Z" data-holc_grade="D"/>
<path d="M 523.3 1464.5 529.9 1491.5 515.3 1505.4 486.1 1519.8 485.7 1526.6 482.8 1531.2 482 1536 474.2 1541.6 433.3 1597.8 425.2 1617.3 423.3 1640.5 405.5 1641.4 407.4 1625.2 409.9 1604.1 420.8 1570.7 426.5 1536.4 454.1 1463.4 459.1 1465.6 466.3 1465.6 475.2 1470.7 485.4 1472.8 501 1471.5 523.3 1464.5 Z" data-holc_grade="D"/>
<path d="M 1663.8 3137.6 1685.8 3152.8 1680.1 3158.2 1671.8 3165.4 1666.7 3175 1663.5 3191.1 1660.5 3206.4 1666.7 3212 1661 3228 1671.8 3228.6 1680.4 3231.5 1694.6 3236.6 1703.8 3241.7 1710 3246 1712.6 3253.5 1712.4 3269.3 1709.4 3296.6 1707.5 3309.2 1703.8 3325.8 1702.7 3334.3 1703.8 3344.8 1704.6 3359.8 1702.5 3367.3 1703 3376.9 1705.6 3384.3 1707.6 3388.1 1708.4 3397.2 1710.9 3412.2 1712.7 3430.3 1713.9 3437.5 1720.1 3450 1729.6 3463.6 1738.9 3474.9 1744.3 3482.9 1746.8 3489.8 1746.2 3502.6 1745.6 3516.7 1741.5 3516.3 1734.5 3516.5 1721.4 3519.5 1704.6 3524.1 1662.9 3534.1 1658.7 3527.7 1646 3502.8 1634.5 3485.6 1624.4 3467.9 1604.6 3432.8 1572.3 3360.8 1540.8 3311.5 1534.1 3311.1 1513.1 3311.1 1499.2 3314 1469.8 3311.1 1458.5 3304.4 1445.1 3293.5 1409.8 3358.3 1391.6 3354.9 1375 3343.3 1361.4 3327.3 1391.1 3284.8 1403.6 3262.1 1412.6 3246 1429.8 3231.6 1448.9 3216.2 1461 3190.8 1488.9 3220.6 1499.3 3226.6 1522.2 3225.6 1530.2 3221.2 1541 3222.6 1582.3 3228.9 1597.4 3236.3 1604.8 3257.7 1622.3 3308.6 1633.4 3327.6 1635 3336.3 1648.1 3333.7 1633 3272.8 1622.9 3241.3 1614.3 3216.3 1607.6 3203.7 1606.2 3173.2 1611.6 3146.4 1626.6 3111.9 1663.8 3137.6 Z" data-holc_grade="D"/>
<path d="M 1583 2945.2 1595.7 2961.1 1565.1 3031.1 1583.2 3042.1 1564 3080.1 1546.5 3071.4 1526.9 3058 1494.4 3034.5 1477.7 3022 1508.9 2949.4 1502.1 2943.8 1515.2 2908.7 1515 2902.6 1577.2 2952.7 1583 2945.2 Z" data-holc_grade="D"/>
<path d="M 2540.3 3094.2 2537.6 3125.5 2534.1 3143.7 2523.7 3163.8 2509.7 3182 2488 3206.1 2470.8 3225.2 2457.9 3237.5 2448 3246.6 2436.2 3269.4 2430.5 3277.9 2390.2 3262.2 2401.2 3241 2398 3238.6 2407.1 3224.4 2409 3226 2410.9 3222.8 2419.2 3226.5 2424 3215.3 2388.8 3193.6 2403.3 3169.5 2425.8 3129.6 2436.6 3103.9 2415.6 3080.1 2303.1 3027.8 2306.5 3021.8 2318.3 2996.7 2323.7 2983.5 2323.9 2972.8 2322.9 2964.8 2332.8 2938.6 2338.7 2923 2343.7 2901.7 2355.2 2911.6 2373.8 2921.8 2396.6 2924.7 2413 2925 2432.9 2925.8 2448.2 2925 2464.3 2921.5 2475.6 2914.5 2484.7 2904.3 2486.9 2898.4 2500.6 2908.1 2493.1 2919 2484.5 2927.5 2471.3 2933.2 2455.7 2939.3 2453.4 2996.9 2516.1 2919 2548.2 2941.6 2470.4 3039.9 2540.3 3094.2 Z" data-holc_grade="D"/>
<path d="M 936.6 3057.5 924.4 3112.9 897.8 3223.7 834 3313.6 882.2 3348 817.3 3386.8 773.5 3407.6 749.5 3422.9 743.9 3426.1 739.8 3420.7 740.9 3388.6 744.7 3367.2 747.4 3339.6 750.1 3319.5 750.7 3299.2 754.2 3281.5 758.1 3260.2 760.7 3235.6 762.7 3221.6 767.2 3199 774.3 3188.4 782.4 3175.4 788.9 3154.8 790 3131.7 790 3114.2 796.5 3103.1 936.6 3057.5 Z" data-holc_grade="D"/>
<path d="M 882.2 3348 834 3313.6 897.8 3223.7 924.4 3112.9 936.6 3057.5 1024.5 3028.9 1056.2 3012 1069.7 3005.3 1082.1 3005.7 1088.8 3008.9 1099.6 3016.9 1148.1 3055.9 1215.9 3101.7 1219.1 3107.3 1157.8 3148.2 1115.1 3174.8 1152.9 3200.1 1118.8 3238.1 1114.6 3247.1 1111.9 3261.2 1089.1 3298 1060.1 3340.6 1026.7 3380.4 993.4 3422.3 933.6 3498.6 903.5 3473.3 907.1 3464.2 881.5 3445.3 854.3 3427.2 846.9 3417 853.7 3407 861.7 3398.9 870 3396.1 881.7 3399 896.5 3381.1 904.4 3368.3 929.1 3349.1 953.7 3333.1 978 3318.1 993.1 3308.4 1010.5 3295.2 1024.4 3280.7 1027.2 3276.1 1026.6 3270.7 1027.8 3264.9 1030.4 3260.4 1031.5 3252 1028.4 3249.2 1027.2 3244.4 1027.6 3238.4 1015.1 3232.5 1027.8 3192 1032.9 3171.3 1032.3 3163.1 1029.7 3159.7 1025.8 3157.2 992.2 3155.2 974.2 3191.4 960.9 3227.9 956.7 3239.3 946 3260.6 972.4 3275.7 957.5 3294 951.6 3297.6 948.4 3307.6 939.5 3310.2 912.5 3329.7 882.2 3348 Z" data-holc_grade="D"/>
</g>
</svg>