<?xml version="1.0"?>
<svg xmlns="http://www.w3.org/2000/svg" version="1.2" baseProfile="tiny" width="3000" height="2866" viewBox="0 0 3000 2866" stroke-linecap="round" stroke-linejoin="round">
<g id="A">
<path d="M 1935.7 501.8 1946.9 570.3 1909.5 589.9 1886.6 610.8 1856.2 585.5 1779.4 550.1 1829.5 451.6 1935.7 501.8 Z" data-holc_grade="A"/>
<path d="M 663.4 1009.5 665.3 1027.2 633.5 1109.9 605 1113.7 602.4 1145.3 524.4 1130.1 499.7 1104.8 445.7 1101.7 441.3 1153.5 355 1146.5 351.8 1185.7 326.4 1186.9 322 1142.7 333.4 1114.9 245.8 1107.2 399.5 961.3 599.4 831.2 633.6 854.6 637.4 909 640.5 1018.3 663.4 1009.5 Z" data-holc_grade="A"/>
</g>
<g id="B">
<path d="M 1980.5 782 1920.9 788.4 1928.5 852.2 1860 801 1842.2 823.8 1840.3 864.8 1770.6 863 1774.4 1148 1695.7 1153.1 1695.7 1026.7 1653.8 1026.7 1650.7 1147.4 1536.4 1148.6 1535.8 1141.1 1484.4 1140.4 1473 1127.8 1453.3 1127.2 1451.4 1141.1 1374.6 1139.2 1372.1 1127.2 1348 1126.5 1337.2 1088.6 1332.1 1024.8 1272.5 1026 1271.2 969.1 1236.3 965.3 1238.2 929.3 1212.9 925.5 1212.2 881.3 1230.6 822.5 1220.5 816.2 1220.5 805.4 1216.7 708.7 1252.9 698 1290.3 683.5 1355.6 600.7 1422.9 641.8 1369 727.7 1398.1 740.4 1396.9 765 1457.8 768.8 1461.6 700.6 1729.3 672.7 1811.1 706.9 1886.6 610.8 1909.5 589.9 1946.9 570.3 1935.7 501.8 1911.3 353 2044.5 329.6 2067.4 515.3 2014.8 545 2040.8 600.6 2045.9 687.2 1967.2 698.6 1980.5 782 Z M 1358 872 1358.5 838.1 1314.4 832.2 1312.3 874.9 1358 872 Z M 1541.7 856.5 1477.8 848.5 1477.3 865.1 1457.8 862.5 1456.2 929.5 1537.6 931.6 1541.7 856.5 Z M 1671.9 867.9 1566.2 859.9 1565.4 930.5 1670.4 934.4 1671.9 867.9 Z" data-holc_grade="B"/>
<path d="M 1695.7 1153.1 1774.4 1148 1771.2 1272.5 1717.9 1271.9 1716.7 1308.6 1532 1301.6 1532.6 1341.4 1404.5 1340.2 1405.1 1301 1426.7 1297.8 1426.7 1271.3 1443.2 1271.3 1445.1 1229.6 1457.1 1228.3 1456.5 1211.9 1532 1208.7 1531.4 1197.9 1691.3 1200.5 1695.7 1153.1 Z" data-holc_grade="B"/>
<path d="M 787.2 1329.3 647.4 1326 648.7 1290.4 787.2 1292.9 787.2 1329.3 Z M 1247.9 1277.4 1233.1 1278.9 1232.9 1276.2 1232.8 1273.9 1210.8 1274.4 1210.3 1330.7 866.3 1328.7 865.1 1232 712.5 1230.1 712 1250.4 673.5 1251.2 676.3 1157.3 602.4 1145.3 605 1113.7 633.5 1109.9 665.3 1027.2 663.4 1009.5 659 989.9 676.7 960.8 687.5 965.9 785.9 967.1 783.9 1022.1 834.7 1021.5 833.4 1072.7 911.5 1075.3 912.3 1114.5 947.6 1114 947.6 1139.7 985.8 1141.5 987.4 1059.7 911.6 1059.1 912.8 960.2 1101.2 968.5 1099.3 1061.4 1216.7 1063.9 1217.9 1081.6 1262.1 1085.1 1277.2 1104.8 1275.6 1144.9 1055.7 1144.6 1055.6 1187.3 1262.3 1187.8 1263.9 1264.6 1247.9 1277.4 Z" data-holc_grade="B"/>
<path d="M 1647 1739.8 1599.7 1787.2 1552.5 1834.5 1529.7 1786.1 1568.4 1736.7 1582.2 1751.6 1647 1739.8 Z M 1709.2 1629.1 1714.1 1672.5 1647.4 1739.4 1638.8 1727.8 1634.8 1669.6 1378.9 1699.2 1385.9 1895.8 1349.2 1896.8 1343.2 1760.4 1271.8 1794 1278.8 1805.9 1244.1 1898.7 1210.3 1927.4 1182.6 1868.1 1117.1 1897.7 1157.8 1963.9 1120.1 2000.5 1055.6 1891.8 1015 1905.6 1024.9 1923.4 906.5 2073.4 893.9 2089.3 797.7 2120.9 816.5 2174.3 736.2 2139.7 734.3 2035 815.6 1996.5 813.6 1969.8 850.3 1956 881.1 1915.5 842.1 1893.2 957 1737.7 979.3 1710 1005.1 1727.8 1125.1 1567.8 1148.9 1587.6 1269.9 1557.9 1260.9 1621.2 1234.2 1669.6 1200.4 1712 1224.2 1723.9 1348.2 1629.1 1451.3 1628.1 1454.3 1645.9 1709.2 1629.1 Z" data-holc_grade="B"/>
<path d="M 1 983.9 219.9 949.2 230.6 1121.1 124.6 1184.9 131.5 1288.6 6.5 1301.8 4.6 1248.7 36.4 1222.8 33.9 1156.4 20.6 1152 1 983.9 Z" data-holc_grade="B"/>
<path d="M 2523.6 2172 2530.6 2247.2 2578.2 2240.9 2589 2357.9 2610 2355.3 2599.2 2391.4 2624 2393.9 2596.7 2470.4 2637.3 2479.9 2622.8 2554.5 2550.4 2684.2 2563.8 2801.2 2582.9 2801.8 2586.7 2856.2 2441.9 2865.1 2422.7 2619.3 2493 2610.7 2486 2475.5 2429.9 2468.3 2419.4 2423.4 2472.6 2437.1 2504.7 2347.6 2424.6 2340 2401.4 2237.2 2425 2214.5 2422.9 2180.5 2523.6 2172 Z" data-holc_grade="B"/>
</g>
<g id="C">
<path d="M 2152.3 80 2160.6 142.5 2420.6 120.9 2435.2 285.2 2395.9 318.7 2397.2 332 2174 453.4 2158.1 366.8 2143.5 353.5 2130.8 264.5 2100.3 267.6 2091.4 184.9 2078.1 117.3 2078.1 74.3 2102.2 1 2171.9 19.9 2152.3 80 Z" data-holc_grade="C"/>
<path d="M 1774.4 1148 1770.6 863 1840.3 864.8 1862.2 863 1852.8 977.1 1935.2 936.7 1928.5 852.2 1920.9 788.4 1980.5 782 2004.6 781.7 2043 775.7 2062.2 778 2093.2 786.5 2124.4 808.5 2057.1 877.2 2046.4 870.7 2028.7 869.9 2015.7 878.2 1995.2 895.3 1996.5 912.4 1991.3 918.1 1979.9 921.4 1979.9 933.1 2000.9 932.3 1986.9 960.3 1971.1 957.7 1948.9 993.8 1910.8 996.3 1915.9 1139.1 1774.4 1148 Z" data-holc_grade="C"/>
<path d="M 1247.9 1277.4 1246.5 1349.6 1143 1347.1 1109.4 1361.6 1096.1 1361.6 1092.2 1374.9 1058.6 1397 1049.7 1402.7 1014.8 1413.5 910.7 1410.3 909.5 1347.7 788.9 1345.1 787.6 1410.9 730.5 1408.3 729.9 1378 693.7 1378.6 693.7 1406.4 646.1 1405.8 647.4 1326 787.2 1329.3 866.3 1328.7 1210.3 1330.7 1210.8 1274.4 1232.9 1276.2 1247.9 1277.4 Z" data-holc_grade="C"/>
<path d="M 1599.7 1787.2 1647 1739.8 1647.7 1739.7 1647.4 1739.4 1714.1 1672.5 1709.2 1629.1 1843 1621.5 1872.8 1674.6 1877.3 1754.2 1855.1 1754.2 1855.1 1856.6 1724.3 1859.8 1707.8 1806.1 1663.4 1789 1625.3 1787.7 1599.7 1787.2 Z" data-holc_grade="C"/>
<path d="M 1349.2 1896.8 1244.1 1898.7 1278.8 1805.9 1271.8 1794 1343.2 1760.4 1349.2 1896.8 Z" data-holc_grade="C"/>
<path d="M 1014.7 2138 1102.9 2157 1247.6 2120.9 1246.4 2266.4 1163.8 2241.7 1135.3 2206.3 1089.6 2211.3 1063.5 2246.8 1007 2189.8 1014.7 2138 Z" data-holc_grade="C"/>
<path d="M 906.5 2073.4 932.6 2135.8 816.5 2174.3 797.7 2120.9 893.9 2089.3 906.5 2073.4 Z M 906.5 2073.4 1024.9 1923.4 1053.6 2017.3 906.5 2073.4 Z" data-holc_grade="C"/>
<path d="M 957 1737.7 842.1 1893.2 669.4 1904.6 646 1855.3 816.1 1848.4 939.2 1725.7 957 1737.7 Z" data-holc_grade="C"/>
</g>
<g id="D">
<path d="M 2935.7 279.9 2951 390.5 2940.8 391.1 2964.4 581.9 2949.8 583.8 2960.1 701.4 2915.7 703.9 2859.2 707.8 2812.3 721.7 2779.9 721.7 2682.8 752.1 2682.8 684.5 2663.8 662.4 2658.7 627 2721.4 510 2758.2 453.1 2754.4 406.4 2722.6 408.3 2727.7 461.4 2422.6 495.6 2400.4 340.2 2446 333.9 2441.6 306.7 2651.5 290.2 2687.7 309.7 2704.2 300.3 2935.7 279.9 Z" data-holc_grade="D"/>
<path d="M 2534.4 704.1 2454.4 712.4 2438.5 595.5 2561.6 584.7 2567.3 637.8 2534.4 704.1 Z" data-holc_grade="D"/>
<path d="M 2495.3 1122.2 2439.8 1164.7 2380.3 1171.6 2377.3 1128.1 2256.4 1147 2241.5 915.9 2469.5 896 2491.3 1019.5 2495.3 1122.2 Z" data-holc_grade="D"/>
<path d="M 2601.8 1197.1 2563.8 1198.4 2568.2 1170.5 2609.4 1144.6 2601.8 1197.1 Z" data-holc_grade="D"/>
<path d="M 2675.9 858.9 2691.2 1071.2 2692.5 1083.9 2670.3 1155.3 2653.8 1150.3 2648.1 1056.7 2622.7 1058 2620.2 1023.9 2631.6 1023.9 2618.9 964.5 2618.2 906.3 2654.4 903.8 2650.5 859.5 2675.9 858.9 Z" data-holc_grade="D"/>
<path d="M 2999 1103.3 2908.9 1114.1 2868.3 1149.5 2842.3 1112.3 2768.1 1160.3 2744 1160.3 2768.6 986.5 2793.3 929 2829.5 894.2 2842.8 886 2973.5 867.6 2999 1103.3 Z" data-holc_grade="D"/>
<path d="M 2125.8 1574.5 2129.5 1633.1 2240.8 1625 2268.4 1623 2285.8 1632.3 2309 1655.7 2315.1 1707.9 2242 1712.4 2206.3 1684.5 2166.4 1692.2 2150.2 1706.8 2112.4 1680.5 2083.2 1681.3 2084.4 1702.3 2021.9 1708 2019.8 1648.5 1986.5 1653 1982 1582.2 2099.8 1563.6 2125.8 1574.5 Z" data-holc_grade="D"/>
</g>
</svg>