<?xml version="1.0"?>
<svg xmlns="http://www.w3.org/2000/svg" version="1.2" baseProfile="tiny" width="3000" height="2431" viewBox="0 0 3000 2431" stroke-linecap="round" stroke-linejoin="round">
<g id="A">
<path d="M 2111.1 1657.7 2109.5 1681 2052.9 1732.3 2050.1 1772.1 2136.5 1773.3 2142.5 1789.1 2154.4 1798.9 2161.5 1787.1 2161.5 1752 2162.3 1734.6 2163.5 1729.9 2230.4 1669.9 2232 1664.3 2233.2 1622.9 2241.1 1635.4 2251.7 1641.2 2259.6 1642.8 2262.3 1659.1 2261.2 1670.7 2253.9 1680.7 2243.3 1688 2241.7 1703.8 2246 1717 2251.8 1725.4 2265.5 1718.5 2277.7 1717.5 2290.3 1718 2300.4 1722.2 2303.6 1728.5 2304.6 1733.7 2298.8 1738.5 2291.4 1743.8 2287.7 1754.3 2294.6 1764.3 2346.4 1740 2349.5 1728.5 2355.3 1704.3 2450.9 1642.1 2457.3 1644.7 2461.5 1651.6 2466.3 1658.4 2418.8 1720.5 2386 1753.7 2380.2 1763.7 2372.8 1772.1 2339 1797.9 2313.1 1822.1 2297.5 1830.5 2292.2 1817.4 2283.2 1816.3 2270.5 1814.8 2261.6 1816.4 2249.9 1824.8 2240.4 1826.4 2231.4 1822.2 2228.8 1825.3 2217.2 1828.5 2209.8 1830.1 2202.9 1837.4 2200.8 1849 2170.7 1878.5 2137.9 1919.5 2126.8 1919 2115.7 1924.8 2105.7 1932.2 2103.6 1942.2 2099.4 1946.4 2087.2 1953.2 2074.5 1959.6 2065.5 1966.4 2060.3 1975.4 2061.9 1982.2 2061.9 1993.2 2060.3 1998.5 2057.6 2002.7 2046 1996.4 2034.9 1984.3 2030.7 1975.9 2037 1962.7 2039.1 1955.4 2033.8 1942.7 2022.2 1932.8 2007.4 1924.9 1987.3 1912.8 1982.5 1907 1971.4 1889.6 1966.7 1880.7 1952.9 1871.8 1938.1 1863.9 1927.5 1849.7 1930.2 1844.9 1931.2 1840.2 1929.7 1834.9 1937.1 1830.2 1939.7 1824.9 1941.3 1817.1 1945.5 1808.6 1951.8 1798.1 1975.6 1779.2 1993.6 1767.1 2001.5 1757.1 2010 1750.2 2022.1 1746 2038 1735 2053.8 1722.8 2062.8 1708.6 2061.7 1704.4 2054.9 1704.4 2048 1698.1 2048 1692.9 2052.2 1687.6 2059.1 1680.8 2068 1660.8 2070.2 1649.2 2071.7 1645.5 2096 1613.4 2105.9 1601.3 2113.9 1601.7 2111.1 1657.7 Z" data-holc_grade="A"/>
<path d="M 2090 1501.3 2064.9 1518.1 2109.9 1576.9 2103.9 1580.2 2097 1581.9 2081.1 1575.9 2062 1603.6 2047.5 1609.8 2037.6 1615.1 2032.3 1621.7 2017.7 1640.7 2013.5 1648.3 2005.9 1653.6 1995 1654.9 1981.8 1653.6 1973.5 1657.8 1966.9 1664.1 1949.7 1667.7 1926.9 1685.8 1916.4 1686.5 1917.4 1707.5 1870.1 1705.9 1870.5 1709.2 1839.4 1708.8 1837.8 1677.9 1698.2 1752.6 1691.3 1724.3 1690.9 1717.1 1695.9 1707.9 1710.9 1695.1 1735.7 1701.3 1790.2 1666.1 1791.2 1659.9 1799.8 1653.6 1811 1648.7 1822.2 1647.4 1819.9 1629.3 1824.2 1620.8 1831.1 1615.8 1839.1 1612.9 1846.3 1611.5 1854.3 1614.8 1897.8 1588.5 1903.8 1583.9 1922.6 1554.6 1929.2 1549.1 1943.4 1538.5 1958.3 1526.7 1973.4 1520.8 1981.4 1513.5 1985.3 1507.3 1997.5 1497.4 2006.5 1494.5 2021 1488.9 2024.9 1479 2029.9 1471.8 2038.1 1468.2 2054.3 1466.5 2060.3 1460.6 2090 1501.3 Z" data-holc_grade="A"/>
<path d="M 2111.1 1657.7 2164.6 1607.2 2230.4 1613.1 2233.2 1622.9 2232 1664.3 2230.4 1669.9 2163.5 1729.9 2162.3 1734.6 2161.5 1752 2161.5 1787.1 2154.4 1798.9 2142.5 1789.1 2136.5 1773.3 2050.1 1772.1 2052.9 1732.3 2109.5 1681 2111.1 1657.7 Z" data-holc_grade="A"/>
</g>
<g id="B">
<path d="M 1618.3 1881.2 1619.6 1887.4 1624.2 1897.3 1651.6 1905.2 1644.7 1927.5 1623.2 1935.4 1625.2 1961.7 1703.9 1956.1 1716.1 1938.4 1775.5 1939 1775.9 1907.1 1774.5 1862.4 1798.6 1853.2 1807.6 1842.7 1820.8 1843.6 1852.9 1841.8 1854.5 1870.6 1891.8 1848.9 1891.8 1894.6 1872.8 1893.5 1873.2 1940.8 1967.5 1946.3 1969.1 1963.7 1996.9 1975.5 1971.2 1992.1 1951 2003.5 1937.9 2018.1 1835.7 2065.9 1819.4 2035.1 1820.2 2027.2 1832.1 2015.4 1832.9 2006.7 1825.7 1990.9 1812.2 1981.9 1800.7 1976.7 1790.4 1975.6 1777 1977.9 1753.2 1996.1 1763.1 1997.7 1766.3 2000.8 1765.9 2004.8 1754.8 2017 1741.4 2023.7 1734.3 2030.4 1730.7 2042.3 1722 2047.8 1685.9 2054.5 1679.2 2049.8 1576.1 2089.2 1527.4 2092.4 1458.8 2026.9 1487.3 2005.2 1481 1921.1 1553.9 1919.6 1574.5 1884.8 1618.3 1881.2 Z" data-holc_grade="B"/>
<path d="M 2194.8 1182.9 2195.6 1216.3 2143 1239.3 2137.6 1235.2 2133.6 1230.1 2133.6 1223.1 2119 1210.8 2126.2 1200.4 2136.7 1196.1 2150.7 1207.4 2189.3 1183.3 2194.8 1182.9 Z" data-holc_grade="B"/>
<path d="M 1080.8 1437.7 1072.6 1413.3 1069.5 1391.5 1072.1 1384.1 1084.5 1365.7 1111.7 1358.6 1159.3 1359.1 1159 1429.1 1141.3 1438.3 1080.8 1437.7 Z" data-holc_grade="B"/>
<path d="M 563.4 1724.7 562.9 1762.5 511.8 1762.5 512.2 1810.3 453.1 1811 451.6 1794.8 446.8 1785.7 432.2 1769.2 416.7 1771.9 414.7 1805.4 348.9 1802.6 357.6 1791.2 355.3 1779.7 394.1 1763.2 409.6 1761.2 423.8 1758.9 432.6 1753.8 454 1738.8 464.7 1743.2 468.3 1731.3 475.4 1726.6 482.1 1721.1 494 1716.7 495.1 1709.1 508.5 1708.7 515.3 1692.5 542.6 1710.7 542.6 1724.1 563.4 1724.7 Z" data-holc_grade="B"/>
<path d="M 1564.3 1792.4 1542 1806.7 1498.8 1832.8 1479.4 1845.8 1440.5 1883.3 1427.5 1888.8 1428.8 1834.7 1429.8 1792.1 1564.3 1792.4 Z" data-holc_grade="B"/>
<path d="M 2663 667.6 2562.3 614.1 2566.2 607.4 2562.2 590 2579.4 586.8 2588.9 580.9 2598.5 571.3 2606.7 561.5 2617.9 546.4 2622.2 523.7 2637 508.6 2699.1 501.9 2717.9 511.1 2726.5 517.7 2737.3 521 2743.3 526.5 2746.3 530.5 2760.5 530.8 2769 530.8 2773.3 530.8 2776.6 535 2777 541.9 2775 552.8 2772 563.6 2769.7 578.1 2785.9 571.8 2786.9 611.5 2736.5 610.3 2738.5 660.5 2678.4 643.2 2663 667.6 Z" data-holc_grade="B"/>
<path d="M 2109.9 1576.9 2064.9 1518.1 2090 1501.3 2130.3 1558.8 2109.9 1576.9 Z" data-holc_grade="B"/>
<path d="M 2164.6 1607.2 2111.1 1657.7 2113.9 1601.7 2105.9 1601.3 2097 1581.9 2103.9 1580.2 2109.9 1576.9 2140.8 1606 2164.6 1607.2 Z" data-holc_grade="B"/>
<path d="M 2109 1368.7 2172.5 1450.3 2161 1457.6 2152.1 1462.5 2141.2 1470.4 2124.3 1488.5 2117.4 1492.8 2103.5 1498.7 2090 1501.3 2060.3 1460.6 2054.3 1466.5 2038.1 1468.2 2029.9 1471.8 2024.9 1479 2021 1488.9 2006.5 1494.5 1997.5 1497.4 1985.3 1507.3 1981.4 1513.5 1970.1 1503.4 1972.8 1463.6 1915.6 1461.3 1916.9 1428.1 1904.1 1427.1 1860.1 1448.8 1851 1435 1863.7 1428.3 1862.9 1426.3 1906.9 1402.3 1907.7 1413.3 1941.8 1413.3 1965.9 1406.2 1965.9 1392.8 1978.2 1392 1973 1343.5 2011.1 1315.5 2031.7 1315.5 2032.1 1321.8 2059 1369.5 2109 1368.7 Z" data-holc_grade="B"/>
<path d="M 1870.5 1709.2 1870 1750.3 1817.1 1751.5 1786.1 1752.3 1776.1 1738.1 1707.1 1779.6 1698.2 1752.6 1837.8 1677.9 1839.4 1708.8 1870.5 1709.2 Z" data-holc_grade="B"/>
<path d="M 1627.7 2175.2 1607.5 2186.1 1585.4 2195 1564.2 2215.7 1535.5 2232.8 1511 2254.2 1498.8 2265.7 1497.5 2271.3 1498.8 2276.5 1504.4 2288.1 1499.1 2289.7 1495.5 2297.9 1487.6 2304.8 1472.7 2289.4 1464.4 2279.2 1461.8 2267.3 1462.1 2260.8 1466.4 2253.5 1470.1 2242.3 1469.7 2232.8 1466.8 2226.2 1466.4 2218 1470.1 2208.8 1475.4 2203.2 1486.3 2197 1503.4 2203.9 1512.7 2206.2 1522.9 2206.5 1537.5 2206.2 1552 2199.3 1558 2194 1562.9 2187.1 1564.6 2179.5 1571.2 2173.3 1581.4 2168.7 1590.3 2166.4 1601.6 2157.5 1610.5 2157.2 1621.1 2158.5 1627 2165 1627.7 2175.2 Z" data-holc_grade="B"/>
<path d="M 1857.4 1460.7 1873.7 1475.8 1873.4 1511.3 1884.3 1506.3 1891.5 1518.5 1913.3 1522.1 1914 1507.6 1970.1 1503.4 1981.4 1513.5 1973.4 1520.8 1958.3 1526.7 1943.4 1538.5 1929.2 1549.1 1922.6 1554.6 1903.8 1583.9 1897.8 1588.5 1854.3 1614.8 1846.3 1611.5 1839.1 1612.9 1831.1 1615.8 1824.2 1620.8 1819.9 1629.3 1822.2 1647.4 1811 1648.7 1799.8 1653.6 1791.2 1659.9 1790.2 1666.1 1735.7 1701.3 1710.9 1695.1 1714.2 1685.9 1713.9 1678.3 1715.9 1674.7 1746.9 1674 1747.6 1657.3 1735.7 1607 1743.9 1583.6 1771 1590.2 1773.7 1597.1 1779 1599.7 1783.2 1597.8 1785.9 1590.8 1786.2 1580 1790.8 1571.1 1801.4 1562.9 1812 1566.5 1818.9 1566.8 1820.2 1564.9 1820.2 1548.4 1822.5 1544.2 1844 1535.9 1845 1509.6 1820.1 1468 1830.3 1462 1843 1458.9 1857.4 1460.7 Z" data-holc_grade="B"/>
<path d="M 1045.3 1468.2 1043.9 1490 1026.5 1490.3 1019.4 1508.4 1022.5 1515.8 995.6 1516 996.4 1521.3 899.2 1520.7 899.5 1529.1 789.6 1526.5 790.4 1499.9 803.9 1499.6 822.4 1488.6 831.4 1477.8 837.7 1469.2 845.4 1465.7 852.8 1465 897.7 1467.3 898 1420.8 953.9 1422.2 954.4 1450.8 962 1452.9 970.7 1457.9 978.4 1462.9 1037 1462.4 1045.3 1468.2 Z" data-holc_grade="B"/>
<path d="M 1244.1 1639.9 1190 1671.2 1190.2 1604.7 1237.3 1589.1 1246 1606.2 1244.1 1639.9 Z" data-holc_grade="B"/>
<path d="M 562.4 1802.2 562.9 1762.5 563.4 1724.7 657.5 1727.3 657.5 1754.6 647.6 1755 646.4 1763.2 632.1 1764 632.9 1777.4 608.3 1804.6 562.4 1802.2 Z" data-holc_grade="B"/>
<path d="M 2582.3 890.9 2583.6 902.7 2553.2 901.5 2492.9 864.7 2543 859 2549.5 851.9 2578.1 872.7 2593.3 876.4 2591.2 884.2 2582.3 890.9 Z" data-holc_grade="B"/>
</g>
<g id="C">
<path d="M 1537.4 1203 1504.9 1220.8 1488.8 1188.8 1483.8 1147 1501.2 1138.3 1537.4 1203 Z M 1454.2 1207.4 1449.4 1207.7 1443.4 1206.4 1431.5 1197.4 1431.5 1141.2 1466.1 1132.8 1448.9 1181.4 1453.7 1193.8 1455.3 1202.2 1454.2 1207.4 Z M 1702.8 1075.7 1707.6 1098.8 1698.9 1110.4 1707.1 1130.9 1587.5 1198.2 1552.6 1144.1 1555.5 1091.2 1567.1 1084.9 1576.9 1080.7 1597.7 1081.2 1599.6 1071.8 1702.8 1075.7 Z" data-holc_grade="C"/>
<path d="M 2087.6 1330.5 2109 1368.7 2059 1369.5 2032.1 1321.8 2031.7 1315.5 2011.1 1315.5 1973 1343.5 1978.2 1392 1965.9 1392.8 1965.9 1406.2 1941.8 1413.3 1907.7 1413.3 1906.9 1402.3 1862.9 1426.3 1863.7 1428.3 1851 1435 1860.1 1448.8 1857.4 1460.7 1843 1458.9 1820.3 1419.4 1837.2 1411.6 1845.1 1424.2 1903.8 1387.9 1895.8 1374.7 1921.7 1358.4 1915.4 1346.9 1959.2 1322.1 2019.4 1280.6 2029.4 1275.8 2036.3 1271.6 2047.9 1270 2055.3 1265.3 2087.6 1330.5 Z" data-holc_grade="C"/>
<path d="M 1564.3 1792.4 1429.8 1792.1 1430.3 1760.6 1421.7 1747.3 1410.2 1729.8 1441.7 1713.2 1436.9 1702.7 1480.5 1678 1480.5 1653.8 1504.3 1656.2 1504.6 1659.8 1533.1 1659.1 1539.4 1669.8 1651.2 1601.5 1674.2 1646.2 1680 1642.1 1715.9 1674.7 1713.9 1678.3 1714.2 1685.9 1710.9 1695.1 1695.9 1707.9 1690.9 1717.1 1691.3 1724.3 1564.3 1792.4 Z" data-holc_grade="C"/>
<path d="M 1730.7 2042.3 1746.3 2067 1734.4 2062.1 1728.1 2058.5 1719.5 2058.8 1698.7 2069.7 1661 2097.6 1660.7 2105.5 1645.2 2116.4 1637.6 2116.7 1634.9 2118.3 1639.9 2169.6 1627.7 2175.2 1627 2165 1621.1 2158.5 1610.5 2157.2 1601.6 2157.5 1590.3 2166.4 1581.4 2168.7 1571.2 2173.3 1564.6 2179.5 1562.9 2187.1 1558 2194 1552 2199.3 1537.5 2206.2 1522.9 2206.5 1512.7 2206.2 1503.4 2203.9 1486.3 2197 1482.3 2191 1471.4 2178.5 1465.8 2127.2 1464.5 2118 1442.3 2099.9 1439.7 2096.3 1429.8 2077.2 1425.8 2071 1415.6 2064.1 1458.8 2026.9 1527.4 2092.4 1576.1 2089.2 1679.2 2049.8 1685.9 2054.5 1722 2047.8 1730.7 2042.3 Z" data-holc_grade="C"/>
<path d="M 1775.9 1907.1 1775.5 1939 1716.1 1938.4 1703.9 1956.1 1625.2 1961.7 1623.2 1935.4 1644.7 1927.5 1651.6 1905.2 1654.6 1895.6 1689.3 1908.1 1690.3 1903.8 1726 1904.2 1727.6 1923.9 1775.9 1907.1 Z" data-holc_grade="C"/>
<path d="M 898 1420.8 897.7 1467.3 852.8 1465 845.4 1465.7 837.7 1469.2 831.4 1477.8 822.4 1488.6 803.9 1499.6 790.4 1499.9 789.6 1526.5 899.5 1529.1 899.2 1520.7 996.4 1521.3 995.6 1516 1022.5 1515.8 1019.4 1508.4 1026.5 1490.3 1043.9 1490 1045.3 1468.2 1085 1469.6 1115.1 1469.3 1118.5 1502.9 1119.4 1512.1 1085.8 1514.8 1085.8 1551.1 877.8 1550.7 806.9 1621.9 804 1624.8 756.7 1648.4 752.2 1644.9 720 1619 753 1618.5 757.3 1573 705 1571.6 705.2 1596.1 691.1 1596.6 681.6 1586.1 674.4 1572.1 672.9 1553.7 693 1549 735.2 1544.8 746.9 1522.5 781.7 1495.7 779.9 1417.3 898 1420.8 Z" data-holc_grade="C"/>
<path d="M 691.1 1596.6 652.9 1596.3 652.9 1621 658.8 1620.7 658.6 1642.5 717.1 1642.4 718.1 1619.2 720 1619 752.2 1644.9 736.1 1663.9 742.4 1669.8 762.6 1702.2 729.7 1728.2 752.6 1753.8 746.3 1760.9 752.6 1770.8 706.6 1814.2 709 1862.3 683.6 1861.9 682.8 1908.1 619.4 1906.4 621 1871.7 562.7 1872.9 562.6 1853.3 562.4 1802.2 608.3 1804.6 632.9 1777.4 632.1 1764 646.4 1763.2 647.6 1755 657.5 1754.6 657.5 1727.3 563.4 1724.7 542.6 1724.1 542.6 1710.7 515.3 1692.5 508.5 1708.7 495.1 1709.1 493.5 1705.9 506.8 1684.4 515.2 1666.7 527.3 1653.7 540.4 1644 557.1 1635.4 580.8 1613.6 612.6 1587.3 672.9 1553.7 674.4 1572.1 681.6 1586.1 691.1 1596.6 Z" data-holc_grade="C"/>
<path d="M 493.5 1705.9 495.1 1709.1 494 1716.7 482.1 1721.1 475.4 1726.6 468.3 1731.3 464.7 1743.2 454 1738.8 432.6 1753.8 423.8 1758.9 409.6 1761.2 394.1 1763.2 355.3 1779.7 354.1 1743.4 393.4 1687.5 397 1680.8 415.2 1657.9 416.8 1702.5 489.7 1702.1 493.5 1705.9 Z M 596 1497.1 560.6 1548.4 588 1569 573.6 1591.5 563.1 1583.9 556.1 1595.9 533.1 1579.9 519.1 1601.9 536.6 1613.3 580.8 1613.6 557.1 1635.4 540.4 1644 527.3 1653.7 515.2 1666.7 506.8 1684.4 496.4 1669.7 490.1 1662.1 485 1660 478.9 1660 442.3 1633.8 521.9 1506.8 528.1 1511.3 555.3 1469 596 1497.1 Z" data-holc_grade="C"/>
<path d="M 313.8 1955.2 313.8 2015.6 189.7 2011.5 182.2 1960.6 314 1824.6 313.8 1955.2 Z" data-holc_grade="C"/>
<path d="M 280.7 2152.1 395 2085.1 440.1 2146.7 297.7 2207.8 280.7 2152.1 Z" data-holc_grade="C"/>
<path d="M 962.3 1923.4 961.3 1932.1 930.5 1931.8 931.2 2034 885.2 2056.4 884.3 1988.6 879.3 1995.9 852.5 2003.4 850.9 1932.4 960 1881.5 962.3 1923.4 Z" data-holc_grade="C"/>
<path d="M 1237.3 1589.1 1190.2 1604.7 1190 1671.2 1157 1691.2 1090.4 1738.5 1083.8 1743.2 1063.1 1714.5 1024.7 1742.9 1011 1724 951.5 1764.2 934.9 1739.7 900 1746.3 899.5 1803.1 850.3 1803.6 851.4 1742.6 876.8 1742.9 877.2 1720.8 904.2 1722.9 1032.9 1625.6 1092 1624.6 1144.8 1571.3 1182.3 1567.8 1191.8 1580.5 1230.2 1567 1237.3 1589.1 Z" data-holc_grade="C"/>
<path d="M 2109.9 1576.9 2130.3 1558.8 2090 1501.3 2103.5 1498.7 2117.4 1492.8 2124.3 1488.5 2141.2 1470.4 2152.1 1462.5 2161 1457.6 2172.5 1450.3 2180 1459.3 2321.3 1351.1 2340.7 1337.7 2365.7 1338.4 2410.5 1409.4 2399.5 1425.6 2349.2 1474.9 2347.2 1485.6 2318.7 1510.8 2311.2 1509.7 2296.5 1519.9 2292.1 1534.1 2285.8 1538.1 2234.7 1558.2 2221.6 1564.9 2203 1581.5 2190.7 1592.6 2164.6 1607.2 2140.8 1606 2109.9 1576.9 Z" data-holc_grade="C"/>
<path d="M 2562.2 590 2566.2 607.4 2562.3 614.1 2663 667.6 2741.5 709.3 2594.6 946.1 2548.7 945 2547.6 909.8 2473.6 865.7 2398.2 956.2 2363.3 929.4 2326.9 975.7 2278.9 1016.8 2234.5 969.5 2306.2 897.9 2308.4 888.5 2391.7 790.6 2444.6 829 2478.8 764.8 2365.8 704 2431.7 573.6 2442.2 554.6 2442.2 503.2 2487 504.7 2493.4 501 2548.7 500.2 2546.3 515.1 2529.7 532.5 2534.9 542 2538.9 583.3 2547.2 589.2 2562.2 590 Z M 2454.6 727.3 2458.6 724.1 2459.9 719.7 2459.9 711.1 2459.9 703.1 2462.4 697.4 2464.3 690.3 2469.3 682.3 2476.9 675.1 2480.7 671.8 2481.2 666.1 2481.1 662.3 2478.8 661.3 2474.8 661.5 2470.8 661.7 2460.7 669.9 2449.3 678.5 2440.8 684.2 2436.6 689 2435.3 694.5 2434.5 701 2432.2 705.2 2427.8 708.4 2426.3 710.5 2426.1 713.2 2439.4 722.5 2447.4 726.4 2451.6 728.1 2454.6 727.3 Z M 2582.3 890.9 2591.2 884.2 2593.3 876.4 2578.1 872.7 2549.5 851.9 2543 859 2492.9 864.7 2553.2 901.5 2583.6 902.7 2582.3 890.9 Z" data-holc_grade="C"/>
<path d="M 720 1619 718.1 1619.2 717.1 1642.4 658.6 1642.5 658.8 1620.7 652.9 1621 652.9 1596.3 691.1 1596.6 705.2 1596.1 705 1571.6 757.3 1573 753 1618.5 720 1619 Z" data-holc_grade="C"/>
<path d="M 1171.3 1441 1137.8 1455.1 1115.1 1469.3 1085 1469.6 1086.3 1446.7 1080.8 1437.7 1141.3 1438.3 1159 1429.1 1159.3 1359.1 1111.7 1358.6 1084.5 1365.7 1072.1 1384.1 1069.5 1391.5 1072.6 1413.3 1045.1 1412.2 1043.7 1336.6 1211.5 1342.7 1210.9 1423.2 1175.8 1422.1 1176 1438.9 1171.3 1441 Z" data-holc_grade="C"/>
<path d="M 2266.5 1185 2211.2 1181.4 2210.2 1229.8 2163.7 1260.8 2116.1 1260 2112.4 1255.3 2093.3 1240 2099.1 1230.6 2090.2 1223.2 2094.3 1215.1 2158.7 1127.2 2269.1 1082.5 2266.5 1185 Z M 2194.8 1182.9 2189.3 1183.3 2150.7 1207.4 2136.7 1196.1 2126.2 1200.4 2119 1210.8 2133.6 1223.1 2133.6 1230.1 2137.6 1235.2 2143 1239.3 2195.6 1216.3 2194.8 1182.9 Z" data-holc_grade="C"/>
<path d="M 2008.5 539.9 1996.9 568.9 1965.2 589.9 1965.3 662.4 1952.1 663.5 1950 687.1 1911.4 689.8 1882.4 669.3 1880.8 769.1 1891.9 781.7 1889.3 851.6 1839.7 850.1 1841.8 765.5 1824.9 746.5 1834.4 737.1 1806.4 704 1834.9 676.1 1818 654 1864.4 609.9 1927.7 561 1992.5 485.6 2010.1 502.1 2009 507.9 1991.6 523.7 2008.5 539.9 Z" data-holc_grade="C"/>
<path d="M 1348.7 813.3 1303.5 862.2 1291.1 863 1273.4 872.2 1252 893.7 1256.5 900.8 1359 864.3 1368.7 864.6 1374.8 819.9 1373.8 813.7 1437.7 814.8 1447.4 826 1461.2 853 1406.8 872.7 1411.5 886.1 1252 941.3 1239.1 902.9 1270.5 871.9 1276.6 863.3 1285.3 850.9 1286.6 840.4 1322.4 821.1 1341.8 813.2 1348.7 813.3 Z" data-holc_grade="C"/>
<path d="M 1820.1 1468 1845 1509.6 1844 1535.9 1822.5 1544.2 1820.2 1548.4 1820.2 1564.9 1818.9 1566.8 1812 1566.5 1801.4 1562.9 1790.8 1571.1 1786.2 1580 1785.9 1590.8 1783.2 1597.8 1779 1599.7 1773.7 1597.1 1771 1590.2 1743.9 1583.6 1735.7 1607 1747.6 1657.3 1746.9 1674 1715.9 1674.7 1680 1642.1 1707.1 1639.2 1682.7 1597.1 1700.8 1564.6 1738.5 1543.5 1734.5 1533.7 1736.5 1514.6 1750.3 1508 1743.1 1494.5 1773.8 1477.3 1796.5 1466.3 1806 1476.2 1820.1 1468 Z" data-holc_grade="C"/>
</g>
<g id="D">
<path d="M 1464.8 1293.3 1461.6 1295.1 1414.9 1325.5 1380 1347 1314 1376.2 1293.6 1361.5 1280.2 1339.9 1268 1303.4 1256.9 1285.2 1250.1 1279.4 1239.5 1275.5 1227.6 1274.2 1213.4 1278.6 1198.3 1287 1181.4 1296.8 1175.8 1303.3 1170.8 1310.2 1151.7 1313.6 1109.4 1312 1066.4 1310.7 1043.4 1314.6 1041.8 1235.5 1059.5 1237.3 1058.5 1195.5 1091.2 1179.2 1121.1 1232.1 1086.2 1249.4 1090.7 1268.6 1112.6 1277 1167 1271 1242.6 1201.6 1281.2 1185.8 1317.7 1162.7 1304.2 1133 1288.3 1150.1 1236.8 1149.6 1172.5 1187.1 1159.9 1162.9 1247 1114.1 1249.7 1086.5 1253.1 1078.3 1261 1068.6 1279.8 1056.5 1288 1051.8 1270.3 992.6 1145.6 997.6 1151.2 984.5 1157.5 976.8 1178.1 959.2 1213.3 926.1 1239.1 902.9 1252 941.3 1411.5 886.1 1406.8 872.7 1461.2 853 1488.1 931.3 1460.1 941.9 1437.2 876.1 1423.2 881.4 1445.1 947.4 1335 987.1 1296.2 1016.2 1302 1030.2 1447.5 979.7 1472.3 1051.2 1511.2 1027.8 1544 1085.9 1606.6 1051.5 1694.4 1052 1720 1063 1720.8 1149.7 1730.1 1167.4 1592 1244.7 1573.5 1206.8 1554.5 1218.1 1562.6 1237.6 1465.1 1293.2 1464.8 1293.3 Z M 1537.4 1203 1501.2 1138.3 1483.8 1147 1488.8 1188.8 1504.9 1220.8 1537.4 1203 Z M 1454.2 1207.4 1455.3 1202.2 1453.7 1193.8 1448.9 1181.4 1466.1 1132.8 1431.5 1141.2 1431.5 1197.4 1443.4 1206.4 1449.4 1207.7 1454.2 1207.4 Z M 1702.8 1075.7 1599.6 1071.8 1597.7 1081.2 1576.9 1080.7 1567.1 1084.9 1555.5 1091.2 1552.6 1144.1 1587.5 1198.2 1707.1 1130.9 1698.9 1110.4 1707.6 1098.8 1702.8 1075.7 Z" data-holc_grade="D"/>
<path d="M 2634.6 1249.4 2631.7 1024.3 2703.6 949.4 2708 1030.5 2729.4 1042.6 2742 1057.7 2752.9 1074.5 2759.9 1094.9 2762.2 1115.5 2760.6 1142.5 2748.4 1162.9 2735.9 1176.7 2728.9 1181.3 2718.4 1205 2695.6 1218.5 2634.6 1249.4 Z" data-holc_grade="D"/>
<path d="M 2476.9 1290.6 2566.6 1246.5 2568.4 1342.5 2482.9 1346.8 2476.9 1290.6 Z" data-holc_grade="D"/>
<path d="M 2908.4 1096.9 2999 1095.5 2998.7 1220.9 2903.5 1229.2 2908.4 1096.9 Z" data-holc_grade="D"/>
<path d="M 2498 456.5 2483.1 439.8 2484.3 300.9 2480.9 150.2 2589.1 151.4 2634.3 211.8 2644.6 312.9 2613 312.3 2614 327.7 2617.6 352.7 2616.6 361.5 2614 371.4 2608.4 376.3 2601.2 385.2 2594.9 395.4 2594.2 405.2 2592.9 417.7 2592 427.9 2587.7 436.8 2583.1 441 2582.1 443.3 2581.8 457.4 2498 456.5 Z" data-holc_grade="D"/>
<path d="M 2498 456.5 2493.4 501 2487 504.7 2442.2 503.2 2442.2 554.6 2431.7 573.6 2252.3 711.9 2251.7 652.5 2208.9 651 2183.1 662.6 2175.7 671 2122.4 691 2106.5 691 2105.4 546.7 2105.4 540.7 2194.6 543.8 2189.8 487 2345 443.9 2483.1 439.8 2498 456.5 Z" data-holc_grade="D"/>
<path d="M 2029.6 403.1 2076.3 347.5 2107.5 301.4 2246.1 301.7 2389.8 300 2349.4 352 2307.9 403.7 2178.4 406.1 2029.6 403.1 Z" data-holc_grade="D"/>
<path d="M 1960.6 204.9 1908 205.3 1909.1 154.9 1962.2 154.9 1960.6 204.9 Z M 2085.3 207.6 2056.4 208.8 2057.9 141.4 2087.6 139.8 2085.3 207.6 Z M 2205.6 181.5 2152.6 184.7 2154.9 49.6 2238.4 48.7 2235.6 101.5 2270.1 109.4 2239.2 155.9 2205.6 181.5 Z M 2406.2 47.8 2319.9 49.1 2316.3 41.2 2358.7 1 2406.9 6.1 2406.2 47.8 Z" data-holc_grade="D"/>
<path d="M 1437.7 814.8 1373.8 813.7 1348.7 813.3 1341.8 813.2 1322.4 821.1 1324.4 724.5 1160.5 729.6 1161.7 637 1158.1 629.9 1155.8 566 1314.1 557 1407.6 704.8 1553.7 481.7 1688.7 607.1 1537.1 783.3 1537.9 816.4 1437.7 814.8 Z" data-holc_grade="D"/>
<path d="M 1285.3 850.9 1276.6 863.3 1270.5 871.9 1239.1 902.9 1213.3 926.1 1178.1 959.2 1157.5 976.8 1151.2 984.5 1145.6 997.6 1139.7 999.8 1104.1 1038.5 1090.2 1046.7 1087.9 848.8 1285.3 850.9 Z" data-holc_grade="D"/>
<path d="M 595.5 1185.3 515.7 1186.3 514.7 1069 596.6 1068 595.5 1185.3 Z M 712.9 923.6 469.3 1079.5 463.1 947 662.8 835.2 712.9 923.6 Z" data-holc_grade="D"/>
<path d="M 2431.7 573.6 2365.8 704 2478.8 764.8 2444.6 829 2391.7 790.6 2308.4 888.5 2306.2 897.9 2234.5 969.5 2278.9 1016.8 2326.9 975.7 2363.3 929.4 2398.2 956.2 2473.6 865.7 2547.6 909.8 2548.7 945 2594.6 946.1 2504.1 1092.8 2492.5 1090.2 2319.8 1078.8 2322 1188.1 2266.5 1185 2269.1 1082.5 2158.7 1127.2 2094.3 1215.1 2054.1 1141.5 2057.8 1012.7 2077.3 1032.1 2104.3 1032.1 2164.2 985.3 2163.7 973.2 2188.5 953.7 2192.2 937.4 2202.2 929 2177.9 918 2173.2 904.3 2161.6 898.6 2166.8 893.8 2206.4 827 2206.4 810.2 2209 791.8 2248.6 793.4 2252.3 711.9 2431.7 573.6 Z" data-holc_grade="D"/>
<path d="M 512.4 1316.1 339 1451.6 255 1436.8 444.9 1159.9 512.4 1316.1 Z M 304.3 1285.4 159.9 1429.9 1 1349.2 203.6 1131.3 304.3 1285.4 Z" data-holc_grade="D"/>
<path d="M 993.9 2016.3 1147.5 2021.9 1150.1 2067.7 993.8 2066.6 993.9 2016.3 Z" data-holc_grade="D"/>
<path d="M 521.9 1506.8 442.3 1633.8 478.9 1660 485 1660 490.1 1662.1 496.4 1669.7 506.8 1684.4 493.5 1705.9 489.7 1702.1 416.8 1702.5 415.2 1657.9 397 1680.8 380.7 1672.4 337.4 1737.5 331 1792.7 332.9 1823.5 348.9 1802.6 414.7 1805.4 411.4 1851.6 562.6 1853.3 562.7 1872.9 621 1871.7 619.4 1906.4 682.8 1908.1 683.6 1861.9 709 1862.3 706.6 1814.2 752.6 1770.8 746.3 1760.9 752.6 1753.8 729.7 1728.2 762.6 1702.2 742.4 1669.8 736.1 1663.9 752.2 1644.9 756.7 1648.4 804 1624.8 806.9 1621.9 877.8 1550.7 1085.8 1551.1 1085.8 1514.8 1119.4 1512.1 1118.5 1502.9 1189.6 1487.7 1194.5 1500.2 1220.4 1515.2 1220.9 1530.2 1224.5 1544.5 1128.3 1566.8 1086.7 1576.6 1041.9 1590.4 898 1663.7 873 1677.9 874.3 1618.7 845.4 1602.6 781.5 1665.6 785.1 1675.1 782.7 1683 812.4 1730 785.2 1767.8 734 1848.3 691.9 1912.5 659 1960.3 444.6 1959.3 408.8 2009 362.5 1987.6 362.1 1956.5 313.8 1955.2 314 1824.6 317.9 1720.1 348.1 1678.3 360 1661.7 387.4 1624.7 364 1617.6 362.4 1612.8 321.2 1612.4 322 1662.1 264.9 1668.4 236.4 1669.1 123.4 1665.4 122.3 1596.8 175.4 1594.9 168.8 1463.1 227.1 1460.4 228.6 1507.8 378 1500.4 374 1559.2 417.2 1583.3 492.6 1457.9 519.1 1475.3 504 1495.4 521.9 1506.8 Z M 779.9 1417.3 781.7 1495.7 746.9 1522.5 735.2 1544.8 693 1549 672.9 1553.7 612.6 1587.3 588 1569 560.6 1548.4 596 1497.1 600.8 1500.8 675 1500.3 674.5 1473.8 610.8 1473.7 571.7 1446.4 620.4 1374.1 600.9 1363 660.9 1274 597.8 1246.6 642.2 1195.9 663.3 1177 705.6 1133.3 710.1 1178 695 1199.6 689.2 1202.5 678.6 1205.6 709.3 1220.4 755.5 1163.6 755 1146.5 752.1 1138.9 745.5 1124.2 741.8 1119.2 734.2 1117.3 722 1116.5 708 1119.7 681.9 1092.6 683.3 1029 854.4 1033.3 856.2 1138.4 805.5 1139.2 806 1187.3 764.5 1187.5 762.1 1239.3 760.2 1249.3 756.9 1416 779.9 1417.3 Z" data-holc_grade="D"/>
<path d="M 2087.6 1330.5 2055.3 1265.3 2047.9 1270 2036.3 1271.6 2029.4 1275.8 2019.4 1280.6 1959.2 1322.1 1915.4 1346.9 1921.7 1358.4 1895.8 1374.7 1903.8 1387.9 1845.1 1424.2 1837.2 1411.6 1820.3 1419.4 1843 1458.9 1830.3 1462 1820.1 1468 1806 1476.2 1796.5 1466.3 1773.8 1477.3 1765.4 1463.1 1694.6 1500.5 1663.9 1442.6 1821.3 1350 1830.3 1363.2 1877.3 1335.8 1869.4 1323.7 1913.8 1299 1892.6 1251.7 1853 1270.6 1858.3 1261.7 1857.2 1170.7 1769.5 1168.7 1751 1133.4 1816 1095 1796.4 1058.8 1773.7 1068.8 1751 1027.8 1774.8 1015.1 1761.5 997.3 1786.9 984.6 1782.1 975.2 1815.4 928.4 1814.8 780.2 1777.3 778.1 1777.3 712.9 1784.2 705.6 1780.5 580 1841.7 593.1 1905.6 545.8 1937.2 508.4 1961 494.8 1981.6 475.3 1992.5 485.6 1927.7 561 1864.4 609.9 1818 654 1834.9 676.1 1806.4 704 1834.4 737.1 1824.9 746.5 1841.8 765.5 1839.7 850.1 1889.3 851.6 1891.9 781.7 1880.8 769.1 1882.4 669.3 1911.4 689.8 1950 687.1 1952.1 663.5 1965.3 662.4 1965.2 589.9 1996.9 568.9 2008.5 539.9 2105.4 546.7 2106.5 691 2053.5 692.8 2016 687.1 2020.2 806.4 1945.8 859.5 1865.6 893.7 1864 1097.1 1901 1099.7 1901.5 1014.6 1935.8 1016.1 1937.9 980.9 2057.3 984.6 2056.2 934.1 2130.2 936.2 2127.5 970.3 2106.9 983.5 2060.5 984.5 2057.8 987.7 2057.8 1012.7 2054.1 1141.5 2094.3 1215.1 2090.2 1223.2 2099.1 1230.6 2093.3 1240 2112.4 1255.3 2116.1 1260 2139.3 1289.4 2087.6 1330.5 Z" data-holc_grade="D"/>
<path d="M 1651.2 1601.5 1539.4 1669.8 1533.1 1659.1 1504.6 1659.8 1504.3 1656.2 1480.5 1653.8 1484 1643.1 1470.2 1618.7 1531.2 1585.2 1613.3 1540.1 1651.2 1601.5 Z M 1682.7 1597.1 1661.2 1561 1678.4 1556.7 1666.5 1535.3 1743.1 1494.5 1750.3 1508 1736.5 1514.6 1734.5 1533.7 1738.5 1543.5 1700.8 1564.6 1682.7 1597.1 Z" data-holc_grade="D"/>
<path d="M 1230.2 1567 1191.8 1580.5 1182.3 1567.8 1144.8 1571.3 1092 1624.6 1032.9 1625.6 904.2 1722.9 877.2 1720.8 876.8 1742.9 851.4 1742.6 850.3 1803.6 899.5 1803.1 900 1746.3 934.9 1739.7 951.5 1764.2 1011 1724 1024.7 1742.9 1063.1 1714.5 1083.8 1743.2 1090.4 1738.5 1090.9 1869.4 1138.5 1872.1 1139.2 1924.2 1186.4 1925.8 1190 1671.2 1244.1 1639.9 1252.3 1655.9 1246.8 1661.2 1283.8 1724.8 1315.7 1705.9 1332.4 1736.4 1480.5 1653.8 1480.5 1678 1436.9 1702.7 1441.7 1713.2 1410.2 1729.8 1421.7 1747.3 1372.2 1744 1329.4 1811.4 1377.8 1812.6 1377.8 1834.3 1428.8 1834.7 1427.5 1888.8 1361.9 1887.2 1366.7 1875.3 1284.4 1873.7 1269 1888.7 1179 1962.5 1071.1 1958.9 1072.3 1927.7 962.3 1923.4 960 1881.5 850.9 1932.4 818.4 1957.2 778.1 1958.4 753.5 1973 746 1978.9 734.4 2008.5 726.1 2020.3 711 2029 853.8 2030.6 855.7 2106 843 2111.9 843.8 2174.3 815.6 2174.2 810.4 2299 664.5 2295.3 658.5 2386.1 484.4 2375.7 441.1 2430.1 393.2 2361 423.3 2329.1 437.2 2347.2 449.5 2330.7 539.2 2251.8 519 2231.3 686.3 2059.7 686.3 2054.6 674.8 2051.4 610.6 2051 612.2 1981.5 699.8 1987.1 717.7 1965.8 711.7 1947.7 712.1 1915.7 691.9 1912.5 734 1848.3 785.2 1767.8 812.4 1730 826.3 1710.6 833 1702.7 862.4 1683.8 873 1677.9 898 1663.7 1041.9 1590.4 1086.7 1576.6 1128.3 1566.8 1224.5 1544.5 1230.2 1567 Z" data-holc_grade="D"/>
<path d="M 1224.5 1544.5 1220.9 1530.2 1220.4 1515.2 1194.5 1500.2 1189.6 1487.7 1171.3 1441 1176 1438.9 1175.8 1422.1 1210.9 1423.2 1211.5 1342.7 1043.7 1336.6 1043.4 1314.6 1066.4 1310.7 1109.4 1312 1151.7 1313.6 1170.8 1310.2 1175.8 1303.3 1181.4 1296.8 1198.3 1287 1213.4 1278.6 1227.6 1274.2 1239.5 1275.5 1250.1 1279.4 1256.9 1285.2 1268 1303.4 1280.2 1339.9 1293.6 1361.5 1314 1376.2 1380 1347 1414.9 1325.5 1461.6 1295.1 1464.8 1293.3 1507.1 1364.6 1491.6 1374 1500.3 1390.9 1472.3 1406.9 1482 1421.9 1448.5 1440.6 1463 1463.7 1388.3 1504.4 1393.5 1516 1329.3 1547.8 1342 1567.3 1321.1 1573.6 1336.7 1597.5 1339.4 1639.3 1381.1 1639.4 1392.7 1661.4 1423.6 1644.6 1426.6 1577.6 1501.9 1535.2 1531.2 1585.2 1470.2 1618.7 1484 1643.1 1480.5 1653.8 1332.4 1736.4 1315.7 1705.9 1283.8 1724.8 1246.8 1661.2 1252.3 1655.9 1244.1 1639.9 1246 1606.2 1237.3 1589.1 1230.2 1567 1224.5 1544.5 Z M 1281.8 1441.1 1279.7 1405.6 1228.7 1402.9 1228.4 1441.1 1281.8 1441.1 Z" data-holc_grade="D"/>
<path d="M 1817.1 1751.5 1820.8 1843.6 1807.6 1842.7 1798.6 1853.2 1774.5 1862.4 1775.9 1907.1 1727.6 1923.9 1726 1904.2 1690.3 1903.8 1689.3 1908.1 1654.6 1895.6 1651.6 1905.2 1624.2 1897.3 1619.6 1887.4 1618.3 1881.2 1620.3 1852.2 1669.8 1848 1672.1 1789.4 1711.7 1789.1 1707.1 1779.6 1776.1 1738.1 1786.1 1752.3 1817.1 1751.5 Z" data-holc_grade="D"/>
<path d="M 1528 862.5 1557.6 862.5 1556.5 847 1585.3 848 1586.9 808.6 1657.9 786.3 1683.8 738.7 1699.4 732.1 1676.9 703.7 1725.2 667 1748.5 700.6 1721 871.4 1671.7 871.1 1671.7 965.2 1534.1 960.5 1528.3 927.4 1528 862.5 Z" data-holc_grade="D"/>
</g>
</svg>