<?xml version="1.0"?>
<svg xmlns="http://www.w3.org/2000/svg" version="1.2" baseProfile="tiny" width="3000" height="3524" viewBox="0 0 3000 3524" stroke-linecap="round" stroke-linejoin="round">
<g id="A">
<path d="M 880.6 1563.2 879.8 1589.8 860.6 1593.5 848.7 1606.2 831.4 1622.5 805.9 1637 777.6 1656.1 811.3 1697 821.3 1724.3 823.1 1742.5 842.3 1773.4 831.3 1785.2 829.5 1816.1 839.5 1860.6 836.8 1885.1 805.7 1936 805.7 1967.8 792.9 2005 764.6 2042.3 746.4 2065.9 728.1 2096.8 677.9 2114.9 635.1 2077.7 613.2 2103.1 583.1 2105.8 567.6 2086.7 541.1 2114.9 518.4 2117.2 509.8 2088.8 512.7 2084.8 530.9 2075.7 542.9 2061 542.9 2038.3 540.1 2028 561.8 2011 627.9 1915.9 675.4 1818.7 702.8 1755.1 745.6 1675.2 805.5 1565.1 815.2 1567.3 839 1547.3 853.2 1537.1 880.6 1563.2 Z" data-holc_grade="A"/>
</g>
<g id="B">
<path d="M 48.6 1048.3 44 1049.5 1 975.7 19.3 907.7 63.1 846.9 58.3 855.4 79.2 875.3 86.8 885.7 90.5 911.2 94.3 968.9 101.9 979.3 121.8 977.5 162.6 992.6 136 1053.1 113.2 1052.2 88.5 1044.6 48.6 1048.3 Z" data-holc_grade="B"/>
<path d="M 282.1 1201.8 240.3 1188.5 192.8 1184.7 133 1189.4 104.6 1142 132.1 1142.1 173.9 1082.5 181.5 1091 151.1 1138.3 143.5 1172.3 218.5 1171.5 235.6 1126.1 251.7 1130.8 267.9 1146 284 1150.7 299.2 1114.8 339.1 1132.8 345.8 1102.5 355.3 1076 403.7 1090.3 434.1 1097.9 450.2 1110.2 461.6 1126.3 468.2 1149.9 447.3 1157.5 419.8 1155.6 390.3 1169.7 373.2 1183.9 336.2 1176.3 327.7 1164 318.2 1182 301.1 1199 282.1 1201.8 Z" data-holc_grade="B"/>
<path d="M 1741.5 815.9 1672 838.6 1676 851.1 1633.9 867.6 1653.8 918.1 1587.9 944.5 1573.5 896.9 1339.5 984.6 1332 983.1 1329.7 976.5 1307.5 987.3 1294.4 989.6 1147.4 968.6 1149.1 957.8 1282.4 977.1 1309.8 974.8 1621.9 854.5 1642.4 777.3 1651.5 778.5 1643 821.6 1682.3 808 1674.3 789.8 1699.9 787.6 1705.6 805.7 1739.8 801.7 1741.5 815.9 Z" data-holc_grade="B"/>
<path d="M 953.6 2016.8 916.2 2004.6 899.5 1992.5 888.9 1974.3 886.6 1948.5 892.7 1929.6 891.9 1918.2 888.1 1900.8 879.8 1888 868.4 1872 865.4 1847.8 863.8 1825.9 858.5 1782.7 871.5 1773.6 889 1759.2 903.4 1747.1 921.6 1729.7 927 1713.8 929.3 1694.1 935.4 1664.6 930.8 1653.2 922.4 1637.3 930.8 1611.6 932.3 1601 926.3 1574.5 932.4 1567.7 951.4 1560.1 959.7 1548 963.5 1535.2 974.9 1526.1 991.6 1510.9 993.9 1501.9 994.7 1479.1 1004.6 1461 1008.1 1438.6 1024 1434 1021.3 1443.4 1020.1 1459.8 1009.3 1495.6 999 1522.3 996.7 1566.6 976.8 1566.6 968.2 1562 960.3 1565.4 954.6 1573.9 955.1 1582.5 960.2 1602.9 1004.1 1593.3 1011.5 1643.8 1032 1661.4 1025.2 1681.9 996.1 1666.5 988.1 1685.2 977.9 1683.5 963.1 1713.6 958.9 1814.7 952.7 1835.1 942.3 1848.8 929.9 1854.5 916.1 1858.2 909.5 1871 892.9 1870.5 893.3 1889 901.4 1913.1 901.4 1936.3 904.7 1951.9 917.5 1965.7 929.9 1970.9 942.7 1972.3 950.8 1978 954.6 1996.9 953.6 2016.8 Z" data-holc_grade="B"/>
<path d="M 354.7 2169.9 365.2 2179.8 451.9 2119.1 540.1 2028 542.9 2038.3 542.9 2061 530.9 2075.7 512.7 2084.8 509.8 2088.8 518.4 2117.2 471.6 2123.4 467.6 2147.8 461.9 2162.6 461.9 2188.2 470.4 2195 487.5 2184.8 510.4 2162.1 528 2161.5 547.4 2157.5 581.1 2155.3 606.7 2146.8 627.8 2129.2 642.7 2125.8 658.6 2133.2 650.6 2139.4 623.2 2178.6 575.3 2191.7 504.6 2272.8 509.1 2280.8 487.5 2295.5 460.3 2305.8 443.8 2315.5 417.5 2323.4 394.1 2320 365.6 2316.6 346.8 2323.4 328 2343.2 303.5 2356.3 290.9 2367.6 278.9 2393.2 278.3 2406.2 296 2414.8 317.7 2396.1 358.8 2370.5 402.7 2354.7 432.3 2349 450.6 2360.4 450 2379.1 454.5 2399.6 465.3 2419.5 480.7 2438.8 504.1 2457 516.6 2471.2 535.4 2493.4 546.3 2512.7 538.1 2520.5 527.4 2530.9 521.7 2550.2 498.3 2558.7 480.1 2566.6 469.2 2581.4 471.5 2601.4 462.4 2602 447.5 2592.9 421.3 2588.9 384.8 2591.1 361.1 2616.8 266 2554.6 243.8 2534.3 236.2 2531.9 205.8 2498.3 223.9 2476 245.5 2456.1 227.3 2432.8 213.7 2401 181.8 2369.7 158.4 2335.6 121.4 2278.2 180.2 2224.3 208.1 2253.3 228.1 2238.5 190.5 2193 177.4 2186.2 184.2 2166.3 202.5 2151 220.1 2172.1 262.9 2147.1 256.7 2134.6 289.8 2102.2 354.7 2169.9 Z" data-holc_grade="B"/>
<path d="M 993 2299.5 945.1 2301.7 942 2292.6 929.1 2291.9 917.7 2281.3 926.1 2188.9 929.9 2181.3 936.8 2178.3 944.4 2183.6 952.7 2175.2 982.6 2193.2 988.3 2218.2 1002 2237.5 982.6 2253.4 1017.9 2287.5 993 2299.5 Z" data-holc_grade="B"/>
<path d="M 1017.8 2725.7 968.4 2755.9 931.9 2680.8 998.2 2665.2 1030.9 2692.5 1017.8 2725.7 Z" data-holc_grade="B"/>
<path d="M 1510.6 2510 1589.5 2478.9 1659.1 2459.5 1654 2444.8 1757.7 2403.3 1750.9 2443.6 1799.9 2425.4 1784.5 2389.6 1811.3 2378.3 1811.9 2366.9 1876.3 2343.6 1890 2357.4 1895.3 2367.9 1819.8 2391.8 1840.8 2448.8 1744.3 2488.8 1740.9 2504.1 1660.1 2537.3 1643 2574.8 1635 2598.9 1613.4 2586.4 1590.6 2579.1 1536.5 2547.7 1526.9 2527.5 1509.7 2513.9 1510.6 2510 Z" data-holc_grade="B"/>
</g>
<g id="C">
<path d="M 852.4 949.2 813.4 944.7 780.2 975.9 743.1 985.3 640.5 1063.8 580 1121.4 553.5 1153.2 537.2 1182.6 530.4 1200.8 493.3 1194.9 484.2 1196.8 454.1 1228.5 456.8 1248.5 417.6 1262.1 395 1275.7 377 1272.8 352.3 1241.6 331.4 1231.2 282.1 1201.8 301.1 1199 318.2 1182 327.7 1164 336.2 1176.3 373.2 1183.9 390.3 1169.7 419.8 1155.6 447.3 1157.5 468.2 1149.9 461.6 1126.3 450.2 1110.2 434.1 1097.9 403.7 1090.3 355.3 1076 345.8 1102.5 339.1 1132.8 299.2 1114.8 284 1150.7 267.9 1146 251.7 1130.8 235.6 1126.1 218.5 1171.5 143.5 1172.3 151.1 1138.3 181.5 1091 173.9 1082.5 132.1 1142.1 104.6 1142 48.6 1048.3 88.5 1044.6 113.2 1052.2 136 1053.1 162.6 992.6 121.8 977.5 101.9 979.3 94.3 968.9 90.5 911.2 86.8 885.7 79.2 875.3 58.3 855.4 63.1 846.9 92.5 845.9 159 819.5 206.5 818.6 342.2 813.1 488.4 869.9 601.3 900.3 694.4 849.3 864.3 877.7 852.4 949.2 Z" data-holc_grade="C"/>
<path d="M 1649.3 1804.3 1634.6 1841.7 1569.7 1907.6 1551.4 1924.6 1540 1933.1 1524.8 1930.6 1512.5 1938.2 1506.8 1942.9 1528.6 1965.6 1543.8 1991.2 1536.2 2012 1530.5 2073.5 1535.3 2130.3 1569.5 2120.9 1602.7 2248.7 1631.2 2261.9 1649.3 2266.7 1658.8 2296 1654.1 2336.7 1656 2364.2 1648.4 2386 1634.1 2387.9 1566.6 2404.9 1577.1 2420.1 1579 2450.4 1477.3 2479.7 1411 2460.8 1388.2 2441.5 1369.9 2409.7 1330 2397.2 1308.3 2380.1 1292.4 2322.2 1303.8 2316.5 1322 2294.9 1331.2 2257.4 1344.8 2244.9 1352.8 2221.1 1303.8 2188.1 1335.7 2122.2 1407.6 2100.7 1437.2 1963.2 1422.4 1933.7 1395 1918.9 1368.8 1895 1332.3 1863.2 1302.7 1822.3 1295.9 1792.8 1273.7 1774.2 1288.5 1761.1 1294.2 1755.5 1297.6 1744.1 1358.1 1782.7 1403.7 1710.6 1463.5 1735 1473.2 1741.3 1491.4 1747 1524.5 1766.8 1526.8 1760 1590 1801.5 1602.6 1782.7 1649.3 1804.3 Z" data-holc_grade="C"/>
<path d="M 1547.4 2706.8 1457.2 2744.6 1393.9 2721.3 1363.1 2717.9 1357.9 2750.3 1348.8 2777.6 1341.8 2779.9 1331.7 2783.2 1291.8 2762.2 1254.1 2816.8 1242.1 2845.2 1218.2 2848 1168 2911.1 1144.6 2915.1 1108.1 2899.1 1073.8 2907.1 1043.4 2841 1005.1 2757.7 1017.8 2725.7 1030.9 2692.5 998.2 2665.2 1024.9 2593.3 1058.3 2614.5 1082.7 2528.1 1121.5 2556.9 1133.6 2544.8 1144.3 2553.1 1165.7 2526.7 1187.4 2536.9 1205.7 2514.2 1190.8 2501.7 1226.2 2456.3 1202.3 2436.9 1275.3 2332.4 1292.4 2322.2 1308.3 2380.1 1330 2397.2 1369.9 2409.7 1388.2 2441.5 1411 2460.8 1477.3 2479.7 1510.6 2510 1509.7 2513.9 1507.7 2523.3 1495.4 2545.1 1472.5 2566.8 1472.5 2579.2 1483.9 2587.7 1499.5 2610.2 1524.6 2631.8 1541.7 2684.1 1547.4 2706.8 Z" data-holc_grade="C"/>
<path d="M 983.4 2028.1 963.1 2029.1 953.6 2016.8 954.6 1996.9 950.8 1978 942.7 1972.3 929.9 1970.9 917.5 1965.7 904.7 1951.9 901.4 1936.3 901.4 1913.1 893.3 1889 892.9 1870.5 909.5 1871 916.1 1858.2 929.9 1854.5 942.3 1848.8 952.7 1835.1 958.9 1814.7 963.1 1713.6 977.9 1683.5 988.1 1685.2 996.1 1666.5 1025.2 1681.9 1032 1661.4 1011.5 1643.8 1004.1 1593.3 960.2 1602.9 955.1 1582.5 954.6 1573.9 960.3 1565.4 968.2 1562 976.8 1566.6 996.7 1566.6 999 1522.3 1009.3 1495.6 1020.1 1459.8 1021.3 1443.4 1024 1434 1028 1434.6 1070.8 1471.5 1094.1 1487.4 1087.3 1503.3 1078.2 1509.5 1074.2 1522 1069 1530 1074.2 1541.3 1063.9 1562.3 1063.3 1574.3 1090.7 1602.1 1115.7 1640.2 1132.8 1628.8 1152.2 1644.1 1136.8 1672.5 1128.8 1694.7 1104.9 1780 1074.6 1849.2 983.4 2028.1 Z" data-holc_grade="C"/>
<path d="M 1273.7 1774.2 1240.6 1800.6 1233.9 1820.5 1230.1 1851.2 1215.9 1861.6 1200.7 1871.6 1197.8 1882.9 1188.3 1900.9 1181.2 1908 1172.2 1905.2 1167.9 1914.6 1157.9 1915.1 1155.5 1919.4 1151.7 1938.8 1144.6 1956.3 1143.6 1970 1132.2 1992.7 1111.8 2017.8 1088 2033.9 1073.3 2032 1020.6 2029.7 997.6 2028.7 1043.8 1970.2 1049.5 1975.9 1192.1 1777.7 1232.6 1797 1246.8 1780.6 1263.9 1765.1 1273.7 1774.2 Z" data-holc_grade="C"/>
<path d="M 997.6 2028.7 1020.6 2029.7 1027.3 2038.3 1046.3 2050.3 1080.5 2056.4 1111.7 2058.7 1113.2 2076.8 1104.8 2090.5 1085 2098.8 1073.6 2100.3 1069.1 2095.7 1078.2 2084.4 1040.2 2075.3 1036.4 2092.7 1004.4 2143.4 991.5 2134.3 952.7 2175.2 944.4 2183.6 936.8 2178.3 929.9 2181.3 926.1 2188.9 917.7 2281.3 929.1 2291.9 942 2292.6 945.1 2301.7 993 2299.5 1020.3 2322.2 1033.3 2315.4 1041.6 2322.2 1071.3 2305.6 1107.8 2348 1075.8 2379.8 1052.3 2389.6 1042.4 2391.1 1035.5 2405.5 1021.1 2416.1 1001.3 2428.2 986.8 2444.2 980.8 2460.1 981.5 2480.5 982.3 2500.2 977.7 2514.6 954.9 2531.3 962.2 2547.7 598.6 2791.5 591.6 2768.2 565 2746.4 552.7 2719.9 555.6 2669.7 556.6 2590.1 549 2545.6 538.1 2520.5 546.3 2512.7 535.4 2493.4 516.6 2471.2 504.1 2457 480.7 2438.8 465.3 2419.5 454.5 2399.6 450 2379.1 450.6 2360.4 432.3 2349 402.7 2354.7 358.8 2370.5 317.7 2396.1 296 2414.8 278.3 2406.2 278.9 2393.2 290.9 2367.6 303.5 2356.3 328 2343.2 346.8 2323.4 365.6 2316.6 394.1 2320 417.5 2323.4 443.8 2315.5 460.3 2305.8 487.5 2295.5 509.1 2280.8 504.6 2272.8 575.3 2191.7 623.2 2178.6 650.6 2139.4 658.6 2133.2 669.6 2140.6 684.1 2146 709.9 2143.7 731.2 2135.4 726.6 2149 711.4 2171.7 711.4 2199 728.1 2215.7 758.5 2246.7 752.4 2250.5 778.3 2265.7 843.7 2155.1 864.2 2149.1 874.9 2133.2 872.6 2099.9 883.3 2062.8 914.4 2055.2 963.1 2029.1 983.4 2028.1 997.6 2028.7 Z" data-holc_grade="C"/>
<path d="M 177.4 2186.2 190.5 2193 228.1 2238.5 208.1 2253.3 180.2 2224.3 121.4 2278.2 158.4 2335.6 181.8 2369.7 213.7 2401 227.3 2432.8 245.5 2456.1 223.9 2476 205.8 2498.3 178.7 2508.2 156.4 2510.1 143.1 2508.6 113.2 2502 103.2 2476 84.5 2481.7 69.3 2480.9 34.5 2383.5 63 2357.8 39.1 2292.2 44.8 2290.4 51.3 2292.6 78.7 2266.9 51.4 2189.2 82.6 2159 108.4 2185.9 121.7 2184.4 154.1 2156.8 159.7 2168.5 177.4 2186.2 Z" data-holc_grade="C"/>
<path d="M 243.8 2534.3 236.2 2559.9 238.5 2592.1 229.5 2635.2 253.7 2653.7 260.3 2674 257 2692.5 240.8 2714.7 235.1 2730.3 242.7 2753.1 261.7 2771.1 279.7 2764 302.6 2740.4 310.5 2726.3 373.9 2669.5 347.1 2632 361.1 2616.8 384.8 2591.1 421.3 2588.9 447.5 2592.9 462.4 2602 471.5 2601.4 486.3 2622.4 492 2638.9 380.1 2769 388.1 2779.8 393.2 2799.7 401.2 2813.3 413.1 2824.1 409.7 2834.9 388.6 2841.2 353.8 2864.4 350.3 2876.4 353.8 2884.9 364 2887.2 392.6 2879.2 397.7 2880.4 403.9 2893.5 406.2 2905.4 403.9 2924.7 364.4 2955 261.6 3028.4 179 2935.4 55 2809.2 52.8 2788.7 16.3 2776.2 2.6 2750 7.2 2726.1 31.2 2704.6 25.5 2683 57.5 2644.4 80.3 2620.5 61 2587.5 82.7 2562.6 42.8 2556.8 45.7 2510 66.6 2511.4 118.4 2520.5 113.2 2502 143.1 2508.6 156.4 2510.1 178.7 2508.2 205.8 2498.3 236.2 2531.9 243.8 2534.3 Z" data-holc_grade="C"/>
<path d="M 968.4 2755.9 949.2 2766.7 985.7 2859.9 1043.4 2841 1073.8 2907.1 1055 2895.9 1030.3 2894.9 1001.8 2908.2 998.9 2923.3 978.9 2939.4 992.2 2957.4 961.8 2982.1 958 2991.5 953.2 3010.5 939.9 3027.5 945.6 3035.1 917.1 3066.3 900.9 3074.9 997.8 3191.4 953.1 3219.8 967.4 3240.7 940.8 3265.3 919.8 3274.8 824.7 3332.5 785.7 3287 792.4 3277.6 776.2 3251 759.1 3226.4 741.1 3221.6 731.6 3212.2 723 3185.6 660.2 3355.2 686.8 3374.2 733.4 3393.1 722.9 3418.7 744.8 3433.9 758.1 3433 775.2 3434.9 779 3440.5 719 3523 640.1 3499.2 628.7 3470.8 618.2 3459.4 604.9 3461.3 594.5 3469.8 592.5 3489.7 584.9 3501.1 564 3484 610.7 3430 622.5 3392.7 503.6 3347.2 502.5 3341.9 487.5 3270.4 524.6 3271.4 537.9 3266.6 542.7 3256.2 540.8 3242 526.5 3224.9 558.9 3172.8 512.3 3151 548.5 3079 554.2 3077.2 564.7 3081.9 575.1 3103.7 571.3 3124.5 568.4 3142.5 571.3 3158.6 606.4 3196.6 614 3216.5 616.9 3213.6 622.6 3200.4 633.1 3191.8 656.9 3189 691.1 3159.1 650.1 3137.1 618.9 3106.8 666.1 3047.7 652.4 3041.6 677.5 3003 683.6 3004.5 698.8 2987.8 713.3 2973.4 692.8 2959.8 681.4 2945.4 663.1 2932.5 654 2911.2 642.6 2898.4 626.7 2882.4 611.5 2848.3 598.6 2791.5 962.2 2547.7 969 2553.8 934 2608.3 931.9 2680.8 968.4 2755.9 Z" data-holc_grade="C"/>
<path d="M 967.4 3240.7 953.1 3219.8 997.8 3191.4 900.9 3074.9 917.1 3066.3 945.6 3035.1 939.9 3027.5 953.2 3010.5 958 2991.5 961.8 2982.1 992.2 2957.4 1047.4 3020.9 1046.3 3182.9 967.4 3240.7 Z" data-holc_grade="C"/>
<path d="M 2631.3 224 2577.2 277.9 2595.3 312.9 2545 338.5 2529.8 332.8 2420.8 459.6 2344.8 395.3 2363.8 375.5 2368.1 355.9 2378.2 341 2546.8 253.4 2631.3 218.3 2631.3 224 Z" data-holc_grade="C"/>
<path d="M 2684.6 200.9 2786.8 156.7 2786.8 151.1 2692.9 142.6 2630.2 121.9 2595.1 102.1 2583.7 72.3 2551 38.3 2554.4 27.3 2562.8 22.4 2633.8 27.6 2647.1 37.4 2675.1 48.4 2688.8 50.6 2732.1 43.8 2775.3 19.9 2804.5 1 2874.8 44 2894.9 61.4 2960.9 53.8 2992.8 73.4 2994 99.9 2985.7 125.2 2984.5 140.3 2993.3 159.2 2999 169.1 2997.5 178.5 2986.5 179.7 2948.9 167.6 2903.4 191.5 2867.7 215.3 2859 231.2 2857.9 249.4 2857.5 270.3 2851.8 286.6 2829.8 295.7 2803.2 293.5 2781.2 280.7 2772.8 271.6 2737.1 253.5 2701.4 246.7 2690.8 227 2684.6 200.9 Z" data-holc_grade="C"/>
<path d="M 1741.5 815.9 1739.8 801.7 1705.6 805.7 1699.9 787.6 1674.3 789.8 1682.3 808 1643 821.6 1651.5 778.5 1642.4 777.3 1644.4 756 1651.9 744.7 1666.2 739.4 1669.7 775.8 1732.1 773.5 1732.3 780.7 1764.2 780.1 1764.7 800.3 1755.1 802.1 1755.6 812.5 1741.5 815.9 Z" data-holc_grade="C"/>
<path d="M 1398 1026.3 1332.2 1029.8 1332 983.1 1339.5 984.6 1573.5 896.9 1587.9 944.5 1479.3 979.4 1484.6 995.2 1398 1026.3 Z" data-holc_grade="C"/>
<path d="M 1436.9 1140.3 1403.7 1173.5 1270.4 1244.5 1082.8 1340.9 1043.5 1340.9 1022.9 1351.7 1001.8 1369.9 989.3 1371 983.2 1356.2 994.3 1340.8 1010.7 1318.3 1021.2 1304 1025.8 1277.5 1015.1 1254.8 1020.5 1227.5 1028.1 1192.7 1045.5 1162.4 1075.9 1137.5 1104.1 1117.8 1081.3 1048.9 1089.7 1007.3 1201.3 1036.8 1332.2 1029.8 1398 1026.3 1435.2 1035.4 1448.9 1062.6 1472.5 1066.4 1489 1082.1 1436.9 1140.3 Z" data-holc_grade="C"/>
<path d="M 2156.5 1399.8 2155.1 1346.8 2090.5 1348.3 2089.5 1280.1 2262.3 1274.9 2262.3 1288.1 2294.1 1288.1 2296 1275.3 2362.5 1273.9 2360.6 1230.8 2390 1230.8 2395.3 1290.9 2394.4 1341 2262.4 1413.9 2242.9 1420.6 2216.8 1422 2191.6 1412.6 2156.5 1399.8 Z" data-holc_grade="C"/>
<path d="M 1649.3 1804.3 1700.6 1659.5 1677.2 1648.7 1669.2 1637.4 1659.6 1627.1 1649.3 1616.9 1640.7 1598.7 1681.8 1598.2 1709.1 1601 1747.3 1595.3 1788.9 1605.8 1796.3 1609.2 1802.6 1601.3 1808.8 1575.7 1815.7 1559.2 1827.1 1536.5 1856.1 1455.9 1859.5 1456.5 1888.1 1490.9 1885.8 1552.2 1936.5 1550.5 1948.5 1576.6 1964.5 1641.9 1964 1742.6 1974.7 1745.6 1992.2 1751.6 2006.6 1765.3 2013.5 1779.7 2031.7 1784.9 2052.2 1796.3 2062.9 1816.7 2059.8 1822.8 2065.9 1838.7 2062.9 1845.5 2062.9 1866.7 1997.5 1884.2 1989.9 1878.9 1970.9 1877.4 1965.6 1866.8 1939 1851.6 1940.5 1837.2 1950.4 1814.5 1901.7 1779.7 1855.4 1781.2 1837.2 1847.9 1851.6 1865.3 1832.6 1991.7 1840.2 2012.2 1831.1 2056.1 1800.7 2059.9 1791.6 2065.2 1803.8 2088.7 1827.3 2079.6 1820.5 2123.5 1885.9 2099.3 1894.2 2113.7 1972.6 2187.1 1984.7 2203 2053.2 2318.1 2076 2343.1 2119.4 2364.3 2092 2384.7 2055.5 2400.7 1999.2 2415.8 1981 2368.1 2008.3 2359 2001.5 2334.8 2015.2 2331.8 2010.6 2313.6 1924.7 2334.8 1904.2 2287.9 1867.7 2303 1873.8 2327.3 1860.8 2331.8 1847.2 2316.7 1841.1 2316.7 1774.9 2339.4 1770.4 2357.6 1742.2 2193.2 1758.2 2186.4 1795.4 2179 1802.3 2152.9 1798.3 2141 1794.3 2100.7 1735.6 2121.7 1743.5 2100.1 1764.1 2077.9 1755.5 2070.6 1667.2 2104.6 1660.9 2085.9 1651.2 2074 1638.1 2066 1636.4 2037.1 1639.2 2012.1 1644.9 2000.7 1641.5 1979.1 1627.2 1965.5 1608.4 1959.8 1582.8 1958.7 1564 1951.3 1540 1933.1 1551.4 1924.6 1569.7 1907.6 1634.6 1841.7 1649.3 1804.3 Z" data-holc_grade="C"/>
<path d="M 2055.5 2400.7 2038.4 2469.8 1998.5 2499.4 1963.1 2514.1 1934.8 2521.4 1922.4 2486.9 1858 2491.5 1854 2510.6 1838.6 2547 1826.1 2563.7 1862.6 2592.1 1805.7 2646.4 1816.6 2657.9 1810.9 2679.5 1781.2 2700 1767.5 2690.9 1760.7 2687.5 1735.6 2677.3 1712.8 2679.5 1690 2694.3 1631.8 2695.5 1623.7 2696.5 1547.4 2706.8 1541.7 2684.1 1524.6 2631.8 1499.5 2610.2 1483.9 2587.7 1472.5 2579.2 1472.5 2566.8 1495.4 2545.1 1507.7 2523.3 1509.7 2513.9 1526.9 2527.5 1536.5 2547.7 1590.6 2579.1 1613.4 2586.4 1635 2598.9 1643 2574.8 1660.1 2537.3 1740.9 2504.1 1744.3 2488.8 1840.8 2448.8 1819.8 2391.8 1895.3 2367.9 1890 2357.4 1876.3 2343.6 1811.9 2366.9 1811.3 2378.3 1784.5 2389.6 1799.9 2425.4 1750.9 2443.6 1757.7 2403.3 1654 2444.8 1659.1 2459.5 1589.5 2478.9 1510.6 2510 1477.3 2479.7 1579 2450.4 1577.1 2420.1 1566.6 2404.9 1634.1 2387.9 1648.4 2386 1656 2364.2 1654.1 2336.7 1658.8 2296 1649.3 2266.7 1631.2 2261.9 1602.7 2248.7 1569.5 2120.9 1535.3 2130.3 1530.5 2073.5 1536.2 2012 1543.8 1991.2 1528.6 1965.6 1506.8 1942.9 1512.5 1938.2 1524.8 1930.6 1540 1933.1 1564 1951.3 1582.8 1958.7 1608.4 1959.8 1627.2 1965.5 1641.5 1979.1 1644.9 2000.7 1639.2 2012.1 1636.4 2037.1 1638.1 2066 1651.2 2074 1660.9 2085.9 1667.2 2104.6 1755.5 2070.6 1764.1 2077.9 1743.5 2100.1 1735.6 2121.7 1794.3 2100.7 1798.3 2141 1802.3 2152.9 1795.4 2179 1758.2 2186.4 1742.2 2193.2 1770.4 2357.6 1774.9 2339.4 1841.1 2316.7 1847.2 2316.7 1860.8 2331.8 1873.8 2327.3 1867.7 2303 1904.2 2287.9 1924.7 2334.8 2010.6 2313.6 2015.2 2331.8 2001.5 2334.8 2008.3 2359 1981 2368.1 1999.2 2415.8 2055.5 2400.7 Z" data-holc_grade="C"/>
</g>
<g id="D">
<path d="M 694.4 849.3 601.3 900.3 488.4 869.9 342.2 813.1 357.4 779 437.2 787.6 457.1 742.2 481.8 704.4 516 704.4 543.5 697.8 584.4 687.5 621.4 674.3 654.6 649.7 686 620.4 769.5 648.8 762.8 660.2 783.7 664.9 762.8 690.4 768.5 722.6 789.4 716.9 811.2 739.6 831.1 783.1 798.8 796.4 694.4 849.3 Z" data-holc_grade="D"/>
<path d="M 2035.2 1213.7 1959.4 1298.6 2002.6 1336 2021.6 1324.2 2020.7 1386.1 2010.7 1378.6 1989.8 1406 1976.5 1409.3 1964.7 1422.1 1959.5 1446.3 1886.8 1448.2 1884.9 1356.9 1937.1 1381.4 1944.2 1378.6 1923.3 1340.8 1882.5 1243.3 1876.7 1122.7 1946.1 1138.8 2035.2 1213.7 Z" data-holc_grade="D"/>
<path d="M 2360.6 1230.8 2362.5 1273.9 2296 1275.3 2294.1 1288.1 2262.3 1288.1 2262.3 1274.9 2089.5 1280.1 2090.5 1348.3 2155.1 1346.8 2156.5 1399.8 1989.8 1406 2010.7 1378.6 2020.7 1386.1 2021.6 1324.2 2002.6 1336 1959.4 1298.6 2035.2 1213.7 2043.9 1204 2080.9 1239.9 2360.6 1230.8 Z" data-holc_grade="D"/>
<path d="M 1940.5 1837.2 1892.6 1824 1881.8 1890.5 1877.8 1903 1879.5 1916.6 1884.6 1933.6 1906.9 1959.8 1931.4 1973.4 1959.9 1996.1 1989.5 2025.6 2022.6 2046.6 2052.8 2029.6 2076.8 2071 2055.1 2084.1 2055.7 2089.8 2039.7 2098.9 2027.8 2098.3 2012.4 2106.3 2014.1 2127.3 2011.3 2140.4 2004.4 2144.9 1996.4 2144.3 1979.3 2134.1 1971.3 2131.8 1964.5 2135.8 1966.8 2144.3 1979.9 2147.2 1995.3 2158.5 2009.6 2171.6 2019.2 2180.7 2035.8 2179.5 2048.9 2191.5 2128.2 2289.1 2131.6 2235.7 2153.3 2236.9 2168.1 2246.5 2165.3 2284 2182.9 2281.2 2186.4 2286.3 2182.9 2298.2 2170.4 2326 2165.9 2347.6 2159.6 2362.4 2144.2 2379.5 2119.4 2364.3 2076 2343.1 2053.2 2318.1 1984.7 2203 1972.6 2187.1 1894.2 2113.7 1885.9 2099.3 1820.5 2123.5 1827.3 2079.6 1803.8 2088.7 1791.6 2065.2 1800.7 2059.9 1831.1 2056.1 1840.2 2012.2 1832.6 1991.7 1851.6 1865.3 1837.2 1847.9 1855.4 1781.2 1901.7 1779.7 1950.4 1814.5 1940.5 1837.2 Z" data-holc_grade="D"/>
<path d="M 1701.2 255.2 1880.7 350.5 1928.1 348.6 1950 367.7 1900.8 432.1 1853.4 477.5 1882.6 487.5 1878 497.5 1815.2 530.2 1804.2 516.6 1799.7 519.3 1778.7 497.5 1753.2 499.3 1704.9 464 1714.9 442.2 1688.5 423.1 1625.6 276.1 1639.3 263.4 1701.2 255.2 Z" data-holc_grade="D"/>
<path d="M 2684.6 200.9 2631.3 224 2631.3 218.3 2546.8 253.4 2378.2 341 2156.9 455.9 2148.3 284.8 2167.3 276.3 2316.3 279 2318.2 304.6 2383.7 307.4 2438.6 245.9 2441.5 229.8 2436.7 215.6 2459.5 199.5 2478.5 197.6 2555.3 219.3 2617 187.1 2626.5 199.4 2660.6 180.5 2610.3 131.4 2595.1 102.1 2630.2 121.9 2692.9 142.6 2786.8 151.1 2786.8 156.7 2684.6 200.9 Z" data-holc_grade="D"/>
<path d="M 2344.8 395.3 2338.3 391.2 2241.1 497.7 2325.1 565.7 2283.9 611.6 2296.7 620.6 2288.6 635.7 2278.2 631.9 2262.1 649.9 2182.3 602.7 2202.7 571.5 2169 550.7 2155.7 571.5 2093.1 538.9 2108.2 513.8 2120.6 518.5 2156.9 455.9 2378.2 341 2368.1 355.9 2363.8 375.5 2344.8 395.3 Z" data-holc_grade="D"/>
<path d="M 1895.6 592.4 1923.1 609.4 1930.7 594.7 1961.5 612.7 1973.9 623.1 1972.9 632.1 1967.7 650 1966.3 671.3 1967.3 683.1 1959.7 689.8 1935 693.1 1926 699.7 1919.3 711.5 1905.1 737.5 1870 700.7 1870.4 649.1 1875.7 651.5 1875.2 635.4 1881.3 626.9 1889.4 637.8 1890.8 596.2 1895.6 592.4 Z" data-holc_grade="D"/>
<path d="M 1764.2 780.1 1732.3 780.7 1732.1 773.5 1669.7 775.8 1666.2 739.4 1664.6 725.6 1668.5 711.3 1723.4 712 1723.2 685.9 1676.7 671.3 1682.6 649.3 1693.6 635.3 1706.3 625.3 1739.6 650.9 1747.6 643.2 1776 677 1776 680.2 1816.1 698.1 1799.5 728.7 1779.2 713.1 1780.1 737.2 1782.2 742.6 1785.9 778.2 1764.2 780.1 Z" data-holc_grade="D"/>
<path d="M 1594.2 1306 1539.5 1246.9 1532.7 1246.3 1518.8 1231.7 1517.6 1223.9 1487.3 1186.1 1436.9 1140.3 1489 1082.1 1536.2 1029.5 1627 1032.6 1676.2 980.8 1719.9 968.1 1723.6 979.9 1768.2 1035.3 1777.3 984.4 1801.1 998.1 1813.8 953.6 1811.1 932.7 1844.8 929.9 1846.6 959.9 1795.6 1131.6 1770.1 1125.2 1690.8 1203.3 1725.4 1241.5 1653.4 1302.3 1631.5 1276 1594.2 1306 Z" data-holc_grade="D"/>
<path d="M 1263.9 1765.1 1246.8 1780.6 1232.6 1797 1192.1 1777.7 1049.5 1975.9 1043.8 1970.2 997.6 2028.7 983.4 2028.1 1074.6 1849.2 1104.9 1780 1128.8 1694.7 1136.8 1672.5 1152.2 1644.1 1132.8 1628.8 1115.7 1640.2 1090.7 1602.1 1063.3 1574.3 1063.9 1562.3 1074.2 1541.3 1069 1530 1074.2 1522 1078.2 1509.5 1087.3 1503.3 1094.1 1487.4 1070.8 1471.5 1028 1434.6 1024 1434 1008.1 1438.6 1003 1412.4 996.7 1389.2 989.3 1371 1001.8 1369.9 1022.9 1351.7 1043.5 1340.9 1082.8 1340.9 1270.4 1244.5 1360.4 1292.7 1395.1 1318.3 1473.2 1388.1 1470.9 1394.9 1451 1409.1 1444.1 1417.6 1437.3 1434.7 1414.5 1446.6 1407.1 1456.8 1392.8 1503.9 1376.9 1539.7 1360.4 1561.3 1315.9 1598.7 1305.1 1606.1 1261.7 1664 1221.3 1725.4 1263.9 1765.1 Z" data-holc_grade="D"/>
<path d="M 1594.2 1306 1586.6 1314.3 1604.3 1350.1 1651 1360.9 1731.3 1491.4 1716 1552.2 1747.3 1595.3 1709.1 1601 1681.8 1598.2 1640.7 1598.7 1649.3 1616.9 1659.6 1627.1 1669.2 1637.4 1677.2 1648.7 1700.6 1659.5 1649.3 1804.3 1602.6 1782.7 1590 1801.5 1526.8 1760 1524.5 1766.8 1491.4 1747 1473.2 1741.3 1463.5 1735 1403.7 1710.6 1358.1 1782.7 1297.6 1744.1 1294.2 1755.5 1288.5 1761.1 1273.7 1774.2 1263.9 1765.1 1221.3 1725.4 1261.7 1664 1305.1 1606.1 1315.9 1598.7 1360.4 1561.3 1376.9 1539.7 1392.8 1503.9 1407.1 1456.8 1414.5 1446.6 1437.3 1434.7 1444.1 1417.6 1451 1409.1 1470.9 1394.9 1473.2 1388.1 1395.1 1318.3 1360.4 1292.7 1270.4 1244.5 1403.7 1173.5 1436.9 1140.3 1487.3 1186.1 1517.6 1223.9 1518.8 1231.7 1532.7 1246.3 1539.5 1246.9 1594.2 1306 Z" data-holc_grade="D"/>
</g>
</svg>