<?xml version="1.0"?>
<svg xmlns="http://www.w3.org/2000/svg" version="1.2" baseProfile="tiny" width="3000" height="2785" viewBox="0 0 3000 2785" stroke-linecap="round" stroke-linejoin="round">
<g id="A">
<path d="M 475.4 1760.7 927.9 1557.1 941 1609.1 1249.9 1505.1 1332.5 1869.2 1071.5 1951.5 810.4 1968.9 845.2 2294 888.7 2315.7 836.4 2783.9 192.4 2775.1 1 2523.7 279.5 2298.3 405.7 2250.6 492.7 2254.9 475.4 1760.7 Z" data-holc_grade="A"/>
</g>
<g id="B">
<path d="M 2289.7 1045.5 2350.7 1561.4 1872.1 1613.4 1837.2 1561.4 1837.2 1435.7 1785 1396.7 1671.9 1422.7 1524 1362 1263 833.2 1423.9 378.1 1528.3 235.1 1793.7 482.1 2289.7 1045.5 Z" data-holc_grade="B"/>
<path d="M 1176 252.4 1489.2 70.4 2059 1 2581.1 724.8 2489.8 772.4 2568.1 954.5 2581.2 1075.8 2289.7 1045.5 1793.7 482.1 1528.3 235.1 1423.9 378.1 1302.1 282.7 1189 365.1 1176 252.4 Z" data-holc_grade="B"/>
<path d="M 1271.6 1266.6 1249.9 1505.1 941 1609.1 927.9 1557.1 475.4 1760.7 458 1626.4 514.6 1505 884.4 1153.9 1086.9 1007.9 1245.5 1093.3 1271.6 1266.6 Z" data-holc_grade="B"/>
<path d="M 1328.2 2762.2 836.4 2783.9 888.7 2315.7 845.2 2294 810.4 1968.9 1071.5 1951.5 1332.5 1869.2 1397.8 1856.2 1380.4 2038.3 1293.4 2177 1271.6 2398.1 1297.7 2554.1 1328.2 2762.2 Z" data-holc_grade="B"/>
<path d="M 2772.8 2463 2507.3 1973.2 2768.4 1951.5 2999 1921.1 2994.7 2168.2 2772.8 2463 Z" data-holc_grade="B"/>
</g>
<g id="C">
<path d="M 1524 1362 1667.6 1721.8 1689.3 1895.2 1654.5 2194.3 1628.4 2480.4 1580.6 2757.9 1328.2 2762.2 1297.7 2554.1 1271.6 2398.1 1293.4 2177 1380.4 2038.3 1397.8 1856.2 1419.6 1773.8 1397.8 1609.1 1336.9 1409.7 1271.6 1266.6 1245.5 1093.3 1086.9 1007.9 1028 976.2 1263 833.2 1524 1362 Z" data-holc_grade="C"/>
<path d="M 1872.1 1613.4 2350.7 1561.4 2420.3 1860.5 2507.3 1973.2 2772.8 2463 2690.2 2562.7 2490 2658.1 2294.2 2697.2 2181.1 2740.5 2189.8 2497.8 2146.2 2367.7 2041.8 2268 2028.7 2159.6 2033.1 2042.6 2020 1929.9 1985.2 1869.2 1928.6 1830.2 1885.1 1687.1 1872.1 1613.4 Z" data-holc_grade="C"/>
</g>
</svg>