<?xml version="1.0"?>
<svg xmlns="http://www.w3.org/2000/svg" version="1.2" baseProfile="tiny" width="3000" height="3084" viewBox="0 0 3000 3084" stroke-linecap="round" stroke-linejoin="round">
<g id="A">
<path d="M 614.3 1994.7 610.2 1976.5 606.2 1955.3 681.4 1935.3 686.9 1962.7 693.4 1990.5 694.7 2003.1 700 2022.8 693.1 2024.2 624 2041.5 614.3 1994.7 Z M 564.4 1957.6 562.6 1958.2 541.2 1963.6 504.9 1970.8 480.7 1976 440.1 1983.8 439.2 1960.3 436.7 1948.4 431.1 1913.1 424.8 1877.3 422.3 1852.6 419.6 1828.6 417.2 1813 413.8 1801.1 408.7 1795 401.8 1792.4 390.3 1792 376.7 1791.2 357.1 1789.5 347.9 1791.6 321.5 1797.9 296.6 1802.5 280.8 1805.8 267.1 1807.7 258 1743 277.7 1737.1 298.5 1733 351.7 1721.1 369.3 1718.7 382.2 1714.9 376.3 1682.5 368.7 1645.9 366.2 1629.2 365.8 1616.2 360.4 1592.8 356.1 1569 354.5 1555.5 350.5 1536.4 343 1495 337.6 1474.8 326.8 1476.8 309 1480 294.8 1481.5 282.6 1483.3 264.3 1484.9 222.4 1494.6 222 1491.3 217.2 1446 213 1440.3 209.7 1420.3 202.8 1381.9 189.3 1306.1 183.9 1268.9 180.6 1243.8 176.4 1225.8 259.1 1213 258.9 1210.6 267.5 1212.6 305.1 1224.2 375.4 1243.9 429.3 1255.9 431 1262.1 432.5 1277.8 443.4 1340 444.9 1351 446 1361.9 451.6 1388.5 452 1401.4 461.6 1452.2 470.8 1496.7 471.7 1507.6 477.5 1532.7 478.7 1540.9 482.8 1552.6 495 1615.7 502.5 1652.4 506.8 1672.2 507.7 1689.7 513.6 1716.3 515.2 1728.6 517.9 1737.6 522.6 1761.6 525.4 1775.1 526.9 1788.4 530.4 1800.4 531.2 1810.7 536.6 1832.8 543.2 1859.8 547.3 1883 553.3 1905.7 560.7 1938.1 562.5 1947.5 564.4 1957.6 Z" data-holc_grade="A"/>
<path d="M 803.8 1691.7 779.5 1543.8 762.9 1544.7 718.7 1550.4 701.6 1553.4 667.6 1563.8 650.4 1570.4 650.2 1561.1 631.5 1505.4 618.3 1463.8 614.1 1444.9 608.2 1423.9 627.3 1418.7 682.6 1407.3 733.2 1398.1 792.7 1389 799.9 1431.7 804.4 1464.4 819 1536 834.8 1608.3 866.9 1606 907.5 1597.6 967.1 1587.1 1005.9 1582.6 1004 1556.4 1001.2 1543.3 997.6 1522 994.4 1498.9 992.7 1470.3 1016 1464.7 1017.7 1498.6 1020.5 1507.2 1023.5 1528.3 1026.3 1548.4 1029 1573.5 1031.2 1597.8 1033.9 1620.1 1036.5 1650.8 1004.1 1656.4 1012 1709.4 1017.3 1752.7 981.8 1758.1 935.8 1764.8 935.8 1754.9 929.3 1710.4 926.8 1691.5 924.8 1676.5 922 1670.8 860 1683.9 803.8 1691.7 Z" data-holc_grade="A"/>
</g>
<g id="B">
<path d="M 1776.2 2483 1776.1 2511.9 1780.5 2538.9 1790.4 2581.9 1792.2 2596.1 1795.9 2599.6 1791.5 2604.5 1778.3 2606.3 1769.8 2609.3 1756.7 2615.5 1747.7 2573.1 1738.7 2534.2 1725.3 2488.1 1649.2 2507.7 1625.9 2512.4 1625.3 2514.8 1627.1 2524.4 1634.4 2552.4 1646.6 2597.8 1654 2631.1 1658.8 2647.2 1637.7 2672.9 1623.9 2691.3 1575.8 2752.2 1575.5 2761.8 1578.3 2771.5 1581.6 2788.3 1583.6 2794.9 1588.9 2808.2 1588.7 2815.7 1591.6 2821.1 1598.9 2843.2 1612.5 2879.4 1618.1 2888.6 1620 2901.3 1629.5 2916.6 1643 2940.6 1661.2 2974.3 1668 2989 1670 3000.4 1670.8 3016.1 1673.1 3058.5 1675.1 3083.4 1605.4 3082.8 1549.7 3078.6 1530.8 3077.9 1513 3075.6 1509.9 3040.6 1506.1 3025.9 1505.2 3013.7 1502.2 2996.2 1497.5 2973.6 1489 2911.1 1483.8 2879.7 1482 2867.1 1480.8 2854.8 1475.7 2819.6 1474.6 2800.2 1426.8 2753.9 1414.8 2739.5 1407.1 2733.7 1390.6 2717.9 1373.8 2700 1334.4 2661.6 1304.3 2630.6 1300.5 2625 1280.1 2615.4 1278.9 2612.6 1343.8 2487.9 1362.2 2459.1 1385.8 2434.4 1358.3 2389.9 1339.2 2362.7 1309.3 2328.1 1278.6 2290.6 1259.2 2267.6 1248.3 2249.4 1237.7 2234.4 1233 2221.1 1226.3 2214 1198.6 2177.6 1193.8 2173 1183.6 2163.2 1167.4 2153.5 1163.3 2149 1161.2 2139.1 1159 2114.5 1155 2102.5 1150.1 2079.9 1142.8 2031.5 1134.2 1985.3 1129.9 1966.5 1127.6 1943.9 1119.5 1900.2 1114.8 1872.1 1112.2 1851.3 1107.9 1830 1101.3 1770.4 1118.3 1762.2 1144 1756.2 1177.4 1748.1 1202.6 1743 1210.6 1800.8 1219.5 1859.4 1227.6 1892.5 1228.2 1906.6 1233 1931.2 1243.5 2000 1247.4 2013.3 1267.9 2101.7 1273 2140.4 1276.6 2157.5 1285.5 2180.9 1313.6 2245.9 1322.2 2272.4 1349.1 2266.4 1393 2252.9 1473.3 2228.2 1511.2 2216.4 1533.8 2213.1 1549.4 2208.4 1553 2236 1555.3 2249.2 1557.9 2259.7 1559.7 2285.2 1573.1 2348.7 1628.1 2333.7 1675 2319.8 1684.8 2318.7 1707.4 2390.5 1719.1 2391.7 1730.1 2423 1772.4 2410 1776.9 2431.4 1776.3 2467.8 1776.2 2483 Z" data-holc_grade="B"/>
<path d="M 258.9 1210.6 259.1 1213 176.4 1225.8 180.6 1243.8 183.9 1268.9 189.3 1306.1 202.8 1381.9 209.7 1420.3 213 1440.3 217.2 1446 222 1491.3 222.4 1494.6 231.6 1566.5 238.5 1612.9 245.1 1660.6 258 1743 267.1 1807.7 268.2 1814.9 294.3 1972.3 303.6 2018.7 330.7 2011.9 344.5 2008.9 373.3 2001.3 389.8 1996.2 399.5 1995.3 409.9 1992.1 440.1 1983.8 480.7 1976 504.9 1970.8 541.2 1963.6 562.6 1958.2 564.4 1957.6 575.3 1953.7 604.6 1947.2 606.2 1955.3 610.2 1976.5 614.3 1994.7 605 1995.3 597.5 1997.1 587.7 1999.4 563.7 2006.1 536.9 2011.5 524.3 2015.1 462.4 2025.4 450 2028.8 428.1 2033.9 404.7 2036.8 389.6 2038 369.3 2041.5 355.9 2044.9 341.1 2047.2 332.9 2047.6 314.2 2049.6 305.2 2051.9 278.3 2059.7 259.8 2063.3 237.9 2066.7 212.7 2071.6 195.8 2074.3 183.6 2076.3 150 2082.1 127.8 2083.9 117 2083.2 117 2038.5 118.6 2011.8 120.4 2000.8 119.8 1985.2 120.5 1971.5 123.8 1880.1 125.3 1869.9 126.8 1801.1 126.9 1682.6 129.7 1670.2 129.4 1656.1 130.5 1644.4 129.2 1569.8 130.9 1542.1 132.4 1518.1 133 1490.2 135.6 1421 137 1391.7 139.8 1339.4 141.6 1321.1 143.8 1255.2 145.3 1193.9 163.4 1190.6 164.4 1187.1 162.5 1170.3 160.4 1156 244.9 1142.7 250.1 1171.3 252.2 1182.1 257.6 1197.4 258.5 1205.8 258.9 1210.6 Z" data-holc_grade="B"/>
<path d="M 1418 1391.7 1426.1 1395.5 1429.1 1421.7 1443 1427.4 1448.2 1453.2 1456.3 1494.6 1431.3 1497.8 1433.4 1522.9 1430.2 1524.9 1381.5 1530.9 1377.2 1535.8 1380 1580.9 1384.5 1600.8 1385.3 1616.3 1393.1 1638.8 1425.6 1635.7 1428.3 1698 1428.3 1708.3 1422.5 1710.4 1397.4 1711.9 1367.9 1718.4 1341 1725.4 1324.8 1727.2 1268.8 1732.4 1245.6 1735.7 1225.1 1739.8 1202.6 1743 1177.4 1748.1 1144 1756.2 1118.3 1762.2 1101.3 1770.4 1036.3 1805.3 1002.5 1821.4 891.5 1883.7 862 1875.1 843.7 1870.6 837.2 1868.6 827.9 1840.1 819.6 1789.7 803.8 1691.7 860 1683.9 922 1670.8 924.8 1676.5 926.8 1691.5 929.3 1710.4 935.8 1754.9 935.8 1764.8 981.8 1758.1 1017.3 1752.7 1012 1709.4 1004.1 1656.4 1036.5 1650.8 1033.9 1620.1 1031.2 1597.8 1029 1573.5 1026.3 1548.4 1023.5 1528.3 1020.5 1507.2 1017.7 1498.6 1016 1464.7 992.7 1470.3 994.4 1498.9 997.6 1522 1001.2 1543.3 1004 1556.4 1005.9 1582.6 967.1 1587.1 907.5 1597.6 866.9 1606 834.8 1608.3 819 1536 804.4 1464.4 799.9 1431.7 792.7 1389 733.2 1398.1 682.6 1407.3 627.3 1418.7 608.2 1423.9 601.2 1408.1 587.4 1359.3 579 1325.4 572.7 1291.3 567.9 1267 596.8 1263.4 638.7 1254.6 700 1241.8 730.8 1236.2 763.9 1231.6 794.6 1225.4 818.8 1221.3 837.4 1220.4 844.7 1222 854.1 1230.5 864.8 1243.6 870.9 1248.3 879.7 1250.3 889.3 1249.8 898.3 1248.3 903.4 1244 907.7 1246.6 914.6 1245.5 928.7 1237 940.4 1231 950.2 1229.6 964.6 1228.8 1130.6 1224.2 1158.6 1213.1 1180.8 1205.2 1198.6 1201.1 1236.2 1194.4 1287 1186.9 1302.8 1256.9 1302.9 1326.6 1333.4 1330.3 1366.3 1359 1399.3 1386.2 1406.5 1392.1 1415.1 1390.3 1418 1391.7 Z" data-holc_grade="B"/>
</g>
<g id="C">
<path d="M 1036.3 1805.3 1101.3 1770.4 1107.9 1830 1112.2 1851.3 1114.8 1872.1 1119.5 1900.2 1127.6 1943.9 1129.9 1966.5 1134.2 1985.3 1142.8 2031.5 1150.1 2079.9 1155 2102.5 1159 2114.5 1161.2 2139.1 1163.3 2149 1167.4 2153.5 1183.6 2163.2 1193.8 2173 1198.6 2177.6 1226.3 2214 1233 2221.1 1237.7 2234.4 1248.3 2249.4 1259.2 2267.6 1278.6 2290.6 1309.3 2328.1 1339.2 2362.7 1358.3 2389.9 1385.8 2434.4 1362.2 2459.1 1343.8 2487.9 1278.9 2612.6 1280.1 2615.4 1300.5 2625 1304.3 2630.6 1334.4 2661.6 1373.8 2700 1390.6 2717.9 1346.1 2723 1334.7 2724.8 1268.6 2734.4 1206.9 2744.5 1191.1 2746.4 1136.2 2755.2 1089.4 2762.6 1075 2766.6 1050.5 2770.5 1013.9 2775.9 997.4 2778.7 958.7 2783.1 930.1 2789.1 910.1 2790.7 883.3 2795.4 818.2 2802.8 789.3 2807.9 760.2 2809.6 753.3 2811.5 717.5 2818.1 594.6 2844.1 587.4 2847.1 555.5 2851.5 518.6 2859.9 497.1 2862.2 493.5 2837.2 491.5 2812.3 486 2736 483.8 2720.9 482.9 2672.8 523.7 2649.6 570 2624.1 636.2 2590.1 712.5 2551.5 725.6 2546.1 780.5 2520.8 843.2 2492.9 884.6 2471.2 889.7 2467.1 886.1 2451.7 885.1 2433.6 884.2 2408.2 882.1 2384.1 878.6 2323.3 875.6 2262.4 878.6 2210.1 879.7 2206.7 886 2205.6 894 2205.6 899.3 2203.4 903.9 2200.8 909 2194.5 911.4 2189.9 909 2182.7 902.7 2174.5 899 2168 899.7 2161.9 906.9 2148.4 907.5 2140.6 909.2 2131.3 906.6 2123.4 899.9 2120.1 881.8 2111.1 876.9 2111.8 869.5 2105.7 866.2 2100 865.4 2093.2 855.7 2080.6 843.8 2073.4 821.5 2063.4 813.9 2062.9 809.8 2068 806.3 2067.7 803.6 2065 802.6 2059.2 798.8 2056.6 791.7 2061.3 786.5 2061.4 783.5 2062.6 776.4 2072.2 772.5 2072.2 765.1 2070.1 754.7 2058.6 773.3 2042 803.8 2005.1 869.6 2036.2 914.4 2059.9 970.5 2092.9 985.4 2095.1 1003.8 2092.9 1021.8 2090.6 1035.4 2087.6 1043.2 2083.9 1033.4 2034.5 1053.7 1928.5 1054.1 1916.7 1036.3 1805.3 Z" data-holc_grade="C"/>
<path d="M 1684.8 2318.7 1675 2319.8 1628.1 2333.7 1573.1 2348.7 1559.7 2285.2 1557.9 2259.7 1555.3 2249.2 1553 2236 1549.4 2208.4 1533.8 2213.1 1511.2 2216.4 1473.3 2228.2 1393 2252.9 1349.1 2266.4 1322.2 2272.4 1313.6 2245.9 1285.5 2180.9 1276.6 2157.5 1273 2140.4 1267.9 2101.7 1247.4 2013.3 1243.5 2000 1233 1931.2 1228.2 1906.6 1227.6 1892.5 1219.5 1859.4 1210.6 1800.8 1202.6 1743 1225.1 1739.8 1245.6 1735.7 1268.8 1732.4 1324.8 1727.2 1341 1725.4 1367.9 1718.4 1397.4 1711.9 1422.5 1710.4 1428.3 1708.3 1428.3 1698 1425.6 1635.7 1460.4 1631.7 1464.6 1646.5 1470.1 1666.1 1476.8 1696.2 1480.2 1727 1484.9 1770.1 1506.4 1774.9 1526.2 1772.2 1560.1 1766.3 1579.9 1885.9 1584.2 1928.6 1596.2 1924.5 1625.7 1918.9 1661.1 1915.3 1671.7 1970.4 1683.9 2030.4 1698.1 2095.6 1713.5 2161.7 1732.2 2237.6 1738.1 2272.3 1743.3 2281.7 1746.9 2293.6 1750.7 2311.4 1720.3 2320.6 1709.9 2279.7 1708.3 2259 1692.7 2206.4 1686.9 2184.4 1682.4 2157.6 1670.2 2120.3 1661.8 2096.3 1651 2068.8 1620.8 2076 1610.2 2080.5 1619.4 2119.2 1639.3 2190.2 1651.7 2241.7 1658.4 2265.9 1675.5 2303.6 1684.8 2318.7 Z" data-holc_grade="C"/>
<path d="M 117 2083.2 127.8 2083.9 150 2082.1 183.6 2076.3 195.8 2074.3 212.7 2071.6 237.9 2066.7 259.8 2063.3 278.3 2059.7 305.2 2051.9 314.2 2049.6 332.9 2047.6 341.1 2047.2 355.9 2044.9 369.3 2041.5 389.6 2038 404.7 2036.8 428.1 2033.9 450 2028.8 462.4 2025.4 524.3 2015.1 536.9 2011.5 563.7 2006.1 587.7 1999.4 597.5 1997.1 608.4 2058.4 613.5 2101.5 647.2 2113.3 665.8 2122.2 733.1 2152.1 740.2 2176.1 751.9 2208.3 768 2251.8 709.5 2268.1 659.7 2282.1 591.8 2300.3 541 2315.6 489.9 2332.3 432.5 2349.9 389.1 2361.6 310.5 2344.2 295.9 2342.7 226.3 2329.3 200.5 2323.2 151.4 2316 52.9 2300.8 12.1 2220.5 1 2201.6 76.6 2118.3 104.2 2092.3 117 2083.2 Z" data-holc_grade="C"/>
<path d="M 244.9 1142.7 160.4 1156 157.6 1128.7 151.1 1096.1 148.6 1085.8 110.7 1093.1 100.8 1046.8 100 1032.7 85.6 947.4 63.1 852.6 46.6 803.6 43.7 784.9 85.6 764.3 178.3 720 255 679.9 301.4 655.3 344.6 683 348 692 351.6 705.1 367.2 766.5 367.9 774.4 379.9 815.5 381.4 823.8 390.8 857.7 390.2 865.4 386.8 876.2 380.4 899.4 366.1 950.2 354.8 995.3 343.9 1036.5 330.4 1082 324.2 1098.4 323.4 1105.2 315.7 1126.7 312.1 1131.8 270.2 1138.7 244.9 1142.7 Z" data-holc_grade="C"/>
<path d="M 1287 1186.9 1236.2 1194.4 1198.6 1201.1 1180.8 1205.2 1158.6 1213.1 1130.6 1224.2 964.6 1228.8 950.2 1229.6 940.4 1231 928.7 1237 914.6 1245.5 907.7 1246.6 903.4 1244 899.8 1233.2 890.8 1221.8 873.6 1202.7 858.8 1191.9 845.9 1182.7 836.2 1180 828.3 1172.1 825.6 1160.8 825.4 1146.9 825.6 1140.2 831 1135 833.1 1129.6 827 1120.4 819.5 1106.9 815.5 1095.9 814.3 1081.1 815.5 1069.4 809.2 1063.8 806.9 1059.1 808 1054.3 812.1 1052.8 813.7 1047.8 814.4 1042.4 817.7 1040.4 820.2 1038.4 817.3 1034.1 816.4 1029.9 819.6 1025.4 821.4 1021.5 815.5 1015.7 811 1009 805.6 1005.8 806 1002 812.1 1000 817.8 996.6 816.9 991.7 813.7 983.6 809.4 979.3 806.9 978.8 801.5 985.8 799.5 989.4 794.8 988.5 789.8 985.4 789.6 979.5 786.2 974.1 801.5 946.3 802.9 932.3 807.2 923.1 813.5 915 828.2 901.3 833.8 897.3 838.5 880.9 841.9 872.8 846 865.4 853.2 859.6 863.3 854.4 872.4 847.7 882.1 836.9 890.9 825 897.2 810.1 902.1 793.7 905.3 785 907.3 761.8 1056.6 665.5 1074.7 653.1 1112.6 630.7 1132.4 664.4 1149.3 690.7 1165.3 721.4 1173.4 739.6 1188.5 778.7 1201.2 819.2 1211.1 854.7 1221.4 882.5 1224.4 900.7 1232.5 922.1 1240.2 941.4 1247.4 962.5 1256.8 989.9 1269.7 1037.3 1281.4 1080.5 1283.6 1089 1291.8 1120 1296.7 1142.3 1304.4 1169.2 1304.2 1183.8 1287 1186.9 Z" data-holc_grade="C"/>
<path d="M 1418 1391.7 1415.1 1390.3 1406.5 1392.1 1399.3 1386.2 1366.3 1359 1333.4 1330.3 1302.9 1326.6 1302.8 1256.9 1287 1186.9 1304.2 1183.8 1304.4 1169.2 1296.7 1142.3 1291.8 1120 1283.6 1089 1281.4 1080.5 1269.7 1037.3 1256.8 989.9 1247.4 962.5 1240.2 941.4 1232.5 922.1 1224.4 900.7 1221.4 882.5 1211.1 854.7 1201.2 819.2 1188.5 778.7 1173.4 739.6 1165.3 721.4 1149.3 690.7 1132.4 664.4 1112.6 630.7 1104.5 618.8 1086.5 588 1067.3 552.1 1050.6 524.7 1024.7 474.6 1018.2 468.1 983.5 422.4 971.3 402.7 956 375 940 344.7 932.1 331.2 927.1 321.3 1062.6 247.9 1118.1 217.2 1206.3 175.2 1281.6 135.9 1366.3 90.7 1374.9 102.9 1385 112.5 1394.7 125.8 1402 136.1 1429.9 171.4 1462.6 215.4 1457.9 223.7 1454 239.4 1455.2 252.2 1461.2 282.8 1473.6 354 1484.9 409.9 1457.9 428.3 1410.7 457.1 1418.4 471.2 1445.2 517.5 1485.6 583.6 1497.1 578.4 1510.2 599.7 1535.7 587.4 1572.9 657.7 1608.3 729.4 1634.3 780.5 1643.7 808.1 1654.8 846.8 1662.2 881.5 1667.2 927.3 1671.4 1066.4 1587.6 1085.9 1584.4 1150.8 1585.1 1193.5 1585.6 1281.6 1582.2 1329.3 1474.1 1333.5 1481.4 1380 1418 1391.7 Z" data-holc_grade="C"/>
<path d="M 2027.2 929.7 1988.9 920.5 1955.8 917 1930.3 915.5 1923.5 912.8 1923.3 899.4 1926.3 881 1934.2 844.7 1939.6 798.3 1903.5 790.6 1829.3 768.5 1789.5 754.8 1773.7 750.9 1695 718.7 1668.5 717.6 1663.9 711.2 1618.5 627 1587 571 1576.4 547.6 1560.5 517.1 1549.4 493.1 1530.4 458.3 1521.1 433.5 1509.7 406.2 1505.5 398.1 1484.9 409.9 1473.6 354 1461.2 282.8 1455.2 252.2 1454 239.4 1457.9 223.7 1462.6 215.4 1429.9 171.4 1402 136.1 1394.7 125.8 1385 112.5 1374.9 102.9 1366.3 90.7 1391.7 77.2 1418.7 75.1 1458.2 70.8 1491.1 66.7 1520.9 61.9 1616.8 49.3 1644.9 45.2 1715.4 34.2 1791.3 20.7 1866.8 5.9 1905.1 1 1948.9 70.6 1982 118.9 2051.7 222.2 2102.8 299.7 2110.9 310.7 2130.1 337.3 2169 330.6 2215.7 319 2241.1 317.1 2329.4 301.3 2427.3 284.1 2430.1 312.1 2432.6 334.4 2437.3 358 2440.7 376.2 2448.8 432.5 2462.5 519.4 2470.4 561.5 2487 669.1 2498.1 715 2500.4 740.3 2517.5 822.8 2518.2 841 2521.3 854.1 2523.3 875.8 2449.7 887.6 2395.2 896.6 2341.8 905.8 2254 915.8 2190.3 922.9 2179.3 926.1 2118.2 932.5 2083.6 937 2071.2 936.2 2056.4 939.6 2035.3 930.1 2028.7 930.1 2027.2 929.7 Z" data-holc_grade="C"/>
<path d="M 2087.7 1815.5 2096.6 1771.5 2094 1716 2039 1717.3 2025.4 1719.3 1984.2 1720.5 1980 1627.4 1978.7 1606.9 2020 1569.1 2034.4 1554.9 2042.7 1541.4 2044.8 1526.3 2046 1499.5 2069.3 1496.6 2071.1 1445.8 2076.5 1397.4 2081.8 1341.1 2066.6 1301.3 2056.2 1271 2039.2 1222 2066.4 1219.2 2089.9 1217.2 2128.5 1210.5 2176.2 1203.7 2215.6 1199.5 2242.3 1195.3 2292.1 1191.4 2322 1186.6 2343.8 1182.2 2365.3 1177.4 2403.3 1165.9 2424.2 1160.5 2471.6 1147.3 2501.4 1141.3 2531.1 1133 2544.1 1131.5 2567.8 1122.7 2608.7 1112.8 2632.8 1105.4 2695.4 1085.2 2771.8 1056.8 2831.2 1039.1 2876.4 1025 2940 1007.9 2954.6 1005.2 2982.7 1011.5 2983 1039.4 2987.3 1052.2 2997 1062.6 2999 1077.5 2995.1 1087.7 2989.4 1096.6 2985.8 1107.7 2976.5 1114.6 2970.8 1120.3 2970.5 1132.8 2975.6 1138.2 2981.1 1138.8 2986.4 1146.6 2987 1153.9 2981.8 1161.3 2978.9 1170.4 2980.6 1184.8 2983 1200.1 2972.6 1210.7 2970.5 1215.7 2971 1221.7 2974.7 1227.8 2963.5 1237.3 2961.5 1245 2963.5 1254.2 2971.1 1267.8 2984.8 1281 2985.6 1309.9 2992.2 1319 2990.9 1332.4 2971.5 1342.7 2955.5 1346.8 2947.4 1349.5 2942.6 1353.1 2942 1380.8 2947.6 1448.5 2950.5 1521.6 2954.1 1548.3 2957.9 1627.4 2961.9 1694.5 2965.2 1727 2970.1 1806 2943.6 1811.5 2920.2 1819 2907.1 1822.6 2884.7 1831 2859.1 1840.8 2808.1 1858.2 2783 1868.4 2749.3 1876.5 2707.8 1893.4 2645 1913.1 2597.6 1930.6 2565.9 1940 2471.3 1975.4 2420.7 1931.6 2409.5 1919.3 2405.4 1916.5 2400.3 1915 2316.8 1913.1 2314.1 1909.8 2289.7 1899.1 2266.6 1891.8 2248.4 1883.9 2182.3 1852.6 2128.5 1832.2 2087.7 1815.5 Z" data-holc_grade="C"/>
<path d="M 1912.3 2322.5 1933.2 2300.9 1928.8 2267.9 1928.2 2246.4 1926.3 2241.6 1921.6 2219 1917.2 2184.1 1912.4 2146.6 1906.1 2113.8 1958.9 2098.1 2001 2089 2006.6 2122 2019.2 2174.6 2070 2157.2 2113.2 2145.4 2166.2 2129.8 2225.5 2105.6 2295.6 2080.5 2308.4 2078.5 2351.4 2150.9 2346.4 2175.1 2341.7 2207.7 2339.4 2237.1 2337.4 2256.8 2335.9 2292.4 2334.9 2310.3 2331.9 2346.1 2331 2387.7 2329.7 2423.7 2329.5 2459.3 2327.7 2487.4 2326.9 2523.4 2325 2562.1 2323 2595.9 2322.2 2630.5 2320.6 2674 2318.5 2711.1 2315.3 2746.1 2312.9 2784.7 2306.5 2802.7 2299 2832.9 2293 2869.8 2287 2898.4 2275.9 2944.5 2185.4 2948.7 2145.5 2894.4 2131.6 2873.2 2116.8 2850.2 2077.6 2790.8 2037.8 2736.6 2014.2 2700.5 2053.9 2676.9 2023.8 2654.8 1980.6 2625.5 1967.4 2618.8 1947.7 2587.3 1945.4 2576.1 1938.7 2534.6 1928.5 2447.3 1920.6 2385.1 1912.3 2322.5 Z" data-holc_grade="C"/>
<path d="M 1670.8 3016.1 1670 3000.4 1668 2989 1661.2 2974.3 1643 2940.6 1629.5 2916.6 1620 2901.3 1618.1 2888.6 1612.5 2879.4 1598.9 2843.2 1591.6 2821.1 1588.7 2815.7 1588.9 2808.2 1583.6 2794.9 1581.6 2788.3 1578.3 2771.5 1575.5 2761.8 1575.8 2752.2 1623.9 2691.3 1637.7 2672.9 1658.8 2647.2 1654 2631.1 1646.6 2597.8 1634.4 2552.4 1627.1 2524.4 1625.3 2514.8 1625.9 2512.4 1649.2 2507.7 1725.3 2488.1 1738.7 2534.2 1747.7 2573.1 1756.7 2615.5 1769.8 2609.3 1778.3 2606.3 1791.5 2604.5 1795.9 2599.6 1792.2 2596.1 1790.4 2581.9 1780.5 2538.9 1776.1 2511.9 1776.2 2483 1803.5 2503.9 1819.9 2516.9 1836.6 2527.4 1856.4 2539.7 1854.8 2549.3 1855.8 2567.3 1857.1 2574.4 1866.7 2596.1 1896 2640.9 1920.1 2677 1940.4 2706.3 1954.9 2725 1976.9 2752.7 1932.5 2834.1 1890.3 2915.8 1859.6 2975.2 1843.5 2999.3 1797 3004.4 1739.7 3008.8 1679.9 3014.3 1670.8 3016.1 Z" data-holc_grade="C"/>
</g>
<g id="D">
<path d="M 1958.9 2098.1 1906.1 2113.8 1912.4 2146.6 1917.2 2184.1 1921.6 2219 1926.3 2241.6 1928.2 2246.4 1928.8 2267.9 1933.2 2300.9 1912.3 2322.5 1910.3 2324.6 1882.9 2325.3 1838.3 2330.4 1791.4 2340.7 1781.8 2317.7 1766.7 2278.9 1760.9 2256 1757.4 2234 1747.5 2180.7 1735.6 2124.5 1721.1 2064.5 1710.2 2006.8 1701.4 1962.9 1698.4 1937.8 1710.4 1933.8 1745 1929.3 1780 1926.2 1805 1858.9 1741.1 1859.6 1742.2 1767.5 1740.6 1664.3 1763 1670.3 1792.7 1678.1 1815.3 1677.4 1828.8 1678.8 1872.1 1686 1890.5 1687.9 1893.4 1684.4 1883.9 1655.8 1873.2 1624.7 1900.4 1583.2 1912.5 1582.9 1967.4 1583.3 2006.5 1543.1 1989.1 1496.8 1952.6 1495 1885.8 1493.8 1770.5 1490.8 1769.5 1401.6 1771.8 1389.8 1773.4 1360.1 1778.4 1324.9 1830 1291.5 1894.3 1237.1 1890.3 1201.4 1883.9 1188 1848.2 1196.6 1795.8 1203.4 1714.2 1205.7 1712.5 1109 1709.1 1031.8 1707 924.3 1703.9 872.6 1701.5 825.3 1689.7 809.1 1676.4 779.4 1668.9 764 1668.5 717.6 1695 718.7 1773.7 750.9 1789.5 754.8 1829.3 768.5 1903.5 790.6 1939.6 798.3 1934.2 844.7 1926.3 881 1923.3 899.4 1923.5 912.8 1930.3 915.5 1955.8 917 1988.9 920.5 2027.2 929.7 2027.5 941.9 2041.4 1003.3 2047 1025.8 2053.2 1056.8 2030.4 1063.1 1991.3 1073.3 1998.7 1121.8 2011.4 1187.9 2016.6 1218.1 2021.7 1223.1 2039.2 1222 2056.2 1271 2066.6 1301.3 2081.8 1341.1 2076.5 1397.4 2071.1 1445.8 2069.3 1496.6 2046 1499.5 2044.8 1526.3 2042.7 1541.4 2034.4 1554.9 2020 1569.1 1978.7 1606.9 1980 1627.4 1984.2 1720.5 2025.4 1719.3 2039 1717.3 2094 1716 2096.6 1771.5 2087.7 1815.5 2087.3 1817.7 2082.8 1830 2070.6 1878.1 2059.3 1938 2044.1 1994.2 2010 2030.3 1995.7 2046.1 1959.3 2091.3 1958.9 2098.1 Z" data-holc_grade="D"/>
</g>
</svg>