<?xml version="1.0"?>
<svg xmlns="http://www.w3.org/2000/svg" version="1.2" baseProfile="tiny" width="3000" height="3297" viewBox="0 0 3000 3297" stroke-linecap="round" stroke-linejoin="round">
<g id="A">
<path d="M 1295 2528.7 1224.5 2647.5 1180.7 2649.9 1130.1 2701.6 975 2881.9 899 2844 835.2 2794 778.9 2733.4 747 2753.1 718.5 2722.5 652.8 2708 611.4 2734.6 574.9 2768.5 528.7 2780.7 499.5 2768.5 421.7 2717.6 263.6 2528.5 1 2261.8 215.1 2034.1 258.9 2075.3 258.9 2150.4 273.4 2203.8 266.1 2295.8 409.6 2293.5 448.5 2368.6 514.2 2400.1 560.4 2380.8 626.1 2417.1 694.2 2477.7 752.6 2516.5 905.8 2569.9 971.5 2531.1 1076.1 2548.1 1158.8 2569.9 1243.9 2555.4 1295 2528.7 Z" data-holc_grade="A"/>
<path d="M 1433 1449.8 1505.9 1440.7 1639.7 1393.8 1749.1 1343.8 1829.7 1327.1 1838.8 1330.2 1885.9 1404.4 1878.3 1424 1855.5 1425.6 1829.7 1442.2 1813 1480.1 1764.3 1466.5 1662.5 1504.3 1632.1 1560.4 1653.4 1602.8 1656.4 1639.1 1635.1 1675.4 1601.7 1690.6 1611.5 1704.4 1619.9 1716.3 1680.7 1728.4 1724.8 1754.2 1826.7 1767.8 1881.4 1772.4 1911.8 1805.7 1936.1 1875.3 1974.1 1916.2 2044.1 1949.5 1929.9 2162.7 1856.9 2332.4 1730.5 2591.7 1554.3 2845.5 1437.3 2778.9 1224.5 2647.5 1295 2528.7 1355.8 2412.4 1472.6 2368.8 1455.6 2334.8 1540.7 2293.6 1470.2 2233 1509.1 2187 1484.8 2165.2 1450.7 2153.1 1453.2 2126.4 1375.3 2024.6 1321.8 2051.3 1285.3 2051.3 1261 2017.4 1129.7 1944.6 1110.2 1961.6 1034.8 1918 898.6 1988.2 869.4 1971.3 803.7 2068.2 842.6 2121.5 808.6 2150.6 794 2143.3 769.7 2174.8 672.4 2106.9 611.6 2153 548.3 2131.1 531.3 2182 480.2 2194.1 429.1 2194.1 392.6 2184.4 368.3 2157.7 353.8 2099.6 334.3 2055.9 302.7 2026.9 268.7 1973.5 237.1 1944.4 210.3 1912.9 259 1893.6 305.2 1913 353.8 1925.1 443.8 1917.9 456 1886.4 524.1 1869.4 514.9 1760.1 593.9 1769.2 600 1754.1 600 1699.6 663.8 1663.2 645.6 1613.3 628.1 1587.6 755.8 1542.2 737.5 1521 898.7 1336.3 926.1 1330.2 962.5 1303 1018.1 1295.3 1141.2 1384.7 1174.6 1433.1 1186.7 1463.4 1270.3 1522.5 1302.3 1525.5 1323.5 1511.9 1364.6 1525.5 1433 1449.8 Z" data-holc_grade="A"/>
</g>
<g id="B">
<path d="M 1722.8 1054.3 1788.2 1108.6 1851.6 1131.8 1914.9 1153.6 1914.9 1185.1 1982.7 1211.5 2011.6 1231.2 2022.2 1264.5 2049.6 1282.7 2075.4 1281.2 2114.9 1270.6 2124.1 1320.5 2114.9 1352.3 2137.8 1393.2 2124.1 1431.1 2134.7 1475 2166.7 1497.7 2206.2 1555.2 2245.7 1588.5 2292.8 1608.2 2229.5 1661.7 2203.6 1655.7 2044.1 1949.5 1974.1 1916.2 1936.1 1875.3 1911.8 1805.7 1881.4 1772.4 1826.7 1767.8 1724.8 1754.2 1680.7 1728.4 1619.9 1716.3 1611.5 1704.4 1601.7 1690.6 1635.1 1675.4 1656.4 1639.1 1653.4 1602.8 1632.1 1560.4 1662.5 1504.3 1764.3 1466.5 1813 1480.1 1829.7 1442.2 1855.5 1425.6 1878.3 1424 1885.9 1404.4 1838.8 1330.2 1829.7 1327.1 1749.1 1343.8 1639.7 1393.8 1505.9 1440.7 1433 1449.8 1376.7 1419.5 1317.5 1360.5 1261.2 1274.1 1236.9 1222.7 1167 1298.4 1129 1266.6 1116.9 1275.6 1084.9 1281.7 1054.5 1260.5 1018.1 1295.3 962.5 1303 926.1 1330.2 898.7 1336.3 737.5 1521 755.8 1542.2 628.1 1587.6 597.7 1566.4 543 1484.6 801.4 1245.4 1110 976.7 1416.4 906.5 1479.6 904.1 1550.1 930.7 1722.8 1054.3 Z" data-holc_grade="B"/>
<path d="M 1370.2 669.1 1469 684.6 1487.2 636.2 1530.7 557.7 1632.8 618.2 1691.1 673.9 1652.2 700.6 1443.1 773.3 1426.1 734.5 1387.2 739.3 1370.2 669.1 Z" data-holc_grade="B"/>
<path d="M 2892.3 408 2916.4 469.8 2839.1 527.8 2797.4 577.1 2756.9 642.7 2734.1 698.2 2725.2 742.4 2658.1 734.8 2665.7 641.4 2637.8 633.9 2654.3 555.7 2628.9 483.7 2839.1 408 2846.7 424.4 2892.3 408 Z M 2938.1 278.5 2614 401.7 2591.7 359.3 2526.9 355.3 2533 252.4 2464.1 242.3 2468.1 218.1 2405.3 204 2374.9 125.3 2356.7 16.3 2970.5 100.9 2960.4 167.5 2938.1 278.5 Z" data-holc_grade="B"/>
<path d="M 1851.6 1131.8 1788.2 1108.6 1722.8 1054.3 1764.1 1003.4 1691.1 935.6 1717.9 901.6 1747.1 923.4 1795.7 875 1851.6 877.4 1871.1 858 1892.9 875 1936.7 826.5 1939.1 773.2 2038.8 753.8 2080.1 700.5 2148.2 683.6 2177.4 734.4 2162.8 799.8 2126.4 838.6 2192 937.9 2114.2 1013 2089.9 1000.9 2041.3 1056.7 2009.7 1030 1963.5 1085.7 1922.1 1076.1 1863.8 1095.4 1851.6 1131.8 Z" data-holc_grade="B"/>
<path d="M 1496.6 2891 1261.5 3134 1030.3 3296.1 1002.3 3269.7 929.4 2924.3 876.2 2887.9 795.6 2819.7 747 2753.1 778.9 2733.4 835.2 2794 899 2844 975 2881.9 1130.1 2701.6 1183.3 2759.2 1122.5 2819.8 1212.2 2916.7 1254.8 2878.9 1283.7 2907.6 1346 2862.2 1374.9 2895.5 1437.3 2778.9 1554.3 2845.5 1496.6 2891 Z" data-holc_grade="B"/>
</g>
<g id="C">
<path d="M 1455.6 2334.8 1419.1 2262.1 1419.1 2216.1 1450.7 2153.1 1484.8 2165.2 1509.1 2187 1470.2 2233 1540.7 2293.6 1455.6 2334.8 Z M 514.9 1760.1 504.2 1713.2 489 1725.3 466.2 1722.2 423.7 1723.8 400.9 1661.7 628.1 1587.6 645.6 1613.3 663.8 1663.2 600 1699.6 600 1754.1 593.9 1769.2 514.9 1760.1 Z M 1433 1449.8 1364.6 1525.5 1323.5 1511.9 1302.3 1525.5 1270.3 1522.5 1186.7 1463.4 1174.6 1433.1 1141.2 1384.7 1018.1 1295.3 1054.5 1260.5 1084.9 1281.7 1116.9 1275.6 1129 1266.6 1167 1298.4 1236.9 1222.7 1261.2 1274.1 1317.5 1360.5 1376.7 1419.5 1433 1449.8 Z" data-holc_grade="C"/>
<path d="M 2938.1 278.5 2999 462.1 2924.1 514.7 2843 581.3 2796.5 662.1 2776.2 754.9 2762.1 827.6 2790.5 888.2 2778.3 958.8 2750.5 997.1 2683.2 938.8 2647.6 987.4 2637.7 1000.9 2590.6 1023.6 2479.6 1007 2441.6 1017.6 2464.5 1097.9 2487.3 1103.9 2507 1093.3 2526.8 1094.8 2545 1116 2548.1 1156.9 2529.8 1184.2 2494.9 1187.2 2469 1182.7 2425 1205.4 2426.5 1225.1 2376.3 1244.8 2362.7 1216 2262.4 1247.8 2324.7 1403.8 2368.8 1431 2420.5 1484 2423.6 1626.4 2403.8 1650.6 2330.8 1581 2292.8 1608.2 2245.7 1588.5 2206.2 1555.2 2166.7 1497.7 2134.7 1475 2124.1 1431.1 2137.8 1393.2 2114.9 1352.3 2124.1 1320.5 2114.9 1270.6 2075.4 1281.2 2049.6 1282.7 2022.2 1264.5 2011.6 1231.2 1982.7 1211.5 1914.9 1185.1 1914.9 1153.6 1851.6 1131.8 1863.8 1095.4 1922.1 1076.1 1963.5 1085.7 2009.7 1030 2041.3 1056.7 2089.9 1000.9 2114.2 1013 2192 937.9 2126.4 838.6 2162.8 799.8 2177.4 734.4 2148.2 683.6 2080.1 700.5 2038.8 753.8 1939.1 773.2 1936.7 826.5 1892.9 875 1871.1 858 1851.6 877.4 1795.7 875 1747.1 923.4 1717.9 901.6 1691.1 935.6 1764.1 1003.4 1722.8 1054.3 1550.1 930.7 1479.6 904.1 1416.4 906.5 1110 976.7 1093 945.2 1178.1 923.4 1168.4 848.3 1272.9 812 1265.6 758.7 1345.9 673.9 1370.2 669.1 1387.2 739.3 1426.1 734.5 1443.1 773.3 1652.2 700.6 1691.1 673.9 1632.8 618.2 1530.7 557.7 1601.2 472.9 1649.8 509.2 1686.3 535.9 1773.8 644.9 1871 615.8 1973.1 608.5 2033.9 586.7 2038.8 531 2012 480.1 2009.6 446.2 1941.5 400.2 1800.5 351.8 1762.6 319 2036.1 109.5 2134.8 84.3 2223.5 1 2327.4 12.9 2356.7 16.3 2374.9 125.3 2405.3 204 2468.1 218.1 2464.1 242.3 2533 252.4 2526.9 355.3 2591.7 359.3 2614 401.7 2938.1 278.5 Z M 2892.3 408 2846.7 424.4 2839.1 408 2628.9 483.7 2654.3 555.7 2637.8 633.9 2665.7 641.4 2658.1 734.8 2725.2 742.4 2734.1 698.2 2756.9 642.7 2797.4 577.1 2839.1 527.8 2916.4 469.8 2892.3 408 Z" data-holc_grade="C"/>
<path d="M 1601.2 472.9 1762.6 319 1800.5 351.8 1941.5 400.2 2009.6 446.2 2012 480.1 2038.8 531 2033.9 586.7 1973.1 608.5 1871 615.8 1773.8 644.9 1686.3 535.9 1649.8 509.2 1601.2 472.9 Z" data-holc_grade="C"/>
<path d="M 2426.5 1225.1 2440.2 1261.4 2493.4 1258.4 2578.5 1297.7 2575.5 1317.4 2575.5 1349.2 2569.4 1378 2552.7 1414.3 2539 1479.4 2510.2 1497.6 2488.9 1515.8 2420.5 1484 2368.8 1431 2324.7 1403.8 2262.4 1247.8 2362.7 1216 2376.3 1244.8 2426.5 1225.1 Z" data-holc_grade="C"/>
</g>
<g id="D">
<path d="M 2706.8 1057.3 2677.1 1098.2 2652.9 1165.9 2605.8 1261.4 2578.5 1297.7 2493.4 1258.4 2440.2 1261.4 2426.5 1225.1 2425 1205.4 2469 1182.7 2494.9 1187.2 2529.8 1184.2 2548.1 1156.9 2545 1116 2526.8 1094.8 2507 1093.3 2487.3 1103.9 2464.5 1097.9 2441.6 1017.6 2479.6 1007 2590.6 1023.6 2637.7 1000.9 2647.6 987.4 2706.8 1057.3 Z" data-holc_grade="D"/>
</g>
</svg>