<?xml version="1.0"?>
<svg xmlns="http://www.w3.org/2000/svg" version="1.2" baseProfile="tiny" width="3000" height="4259" viewBox="0 0 3000 4259" stroke-linecap="round" stroke-linejoin="round">
<g id="A">
<path d="M 1386.3 226 1350.3 225 1296.7 221.6 1231.9 224 1182.7 225.5 1137.8 219.1 1126.1 219.1 1063.3 223.5 994.6 222.5 936.1 223.9 955.1 175.4 968.3 114.7 969.3 94.8 982.9 16.6 1204.6 12.3 1247 67.7 1305.5 121.1 1386.3 226 Z" data-holc_grade="A"/>
<path d="M 2052.1 392.1 2052.1 338.5 2051 177.3 2079.3 168.5 2131.4 167 2164.6 175.8 2208.9 187.4 2238.7 186.9 2236.2 140.8 2196.2 76.7 2164 33.5 2207.9 39.3 2245.9 36.4 2285.9 29.6 2333.6 27.6 2390.6 24.2 2430.6 26.1 2484.7 33.8 2496.9 92.1 2499.3 130.9 2502.8 202.3 2507.1 268.3 2517.7 369.2 2517.3 420.1 2508.4 507.6 2506.1 562.3 2504.2 595.7 2516 698.7 2465.7 704.6 2442.3 706.1 2355.3 693.5 2257.9 684.7 2153.7 685.3 2111.7 689.6 2066 686.6 2045.8 686.7 2047.3 667.7 2098 669.2 2099 644.4 2106.3 632.2 2111.6 592.4 2144.8 592.9 2144.7 540.4 2222.2 535.6 2233.4 530.7 2232.9 487 2156.9 479.7 2158.3 421.5 2133 419.5 2134.4 362.7 2052.1 409.8 2052.1 392.1 Z" data-holc_grade="A"/>
<path d="M 2950.1 401.6 2860.8 372.1 2833.9 362 2822.6 362.1 2759.4 324.8 2759.1 233.1 2760.2 149.9 2756.5 74.1 2760.2 51 2837.5 45.5 2854 54.6 2866.2 72.2 2889.3 127.4 2906.4 185.6 2924.8 263.9 2950.1 401.6 Z" data-holc_grade="A"/>
<path d="M 2356.1 837.6 2259.8 893.5 2268.9 837.7 2257.9 684.7 2355.3 693.5 2356.1 837.6 Z" data-holc_grade="A"/>
<path d="M 1524.1 934 1436.5 932.8 1425.3 924.8 1377.5 879.4 1342.9 849.3 1303.2 828.1 1301 745.8 1440.4 748.7 1548.9 750.9 1612.2 753.3 1640.3 768.2 1653.2 787.1 1625.2 825.7 1569.1 887.6 1524.3 933.8 1524.5 934 1524.1 934 Z" data-holc_grade="A"/>
<path d="M 937 1292.2 864.3 1291.4 876.5 1439.9 784.8 1442.3 775.3 1371.8 769 1337.6 766.8 1289.7 756.1 1280.5 743.9 1276.8 740 1272.7 732.5 1193.7 732.7 1193.7 813.9 1195.2 816.6 1213.9 824.4 1219.3 861.7 1225.4 931.4 1256.7 937 1292.2 Z M 856.7 1100.5 851.7 1043.7 856.8 925.6 953.9 928.4 1029.2 930.7 1065.5 936.2 1076.8 947.8 1072 985.9 1040.1 1028.6 989.7 1072.1 971.8 1089.2 942.1 1102.8 916.8 1108.6 900.4 1109.8 886.7 1106.7 856.7 1100.5 Z" data-holc_grade="A"/>
<path d="M 912.2 1925.6 776.1 1926.7 771.5 1807.1 835 1809.2 866.6 1710.4 685.2 1708.5 689 1612 743.2 1615.3 792.3 1614.1 823.1 1610.6 887.1 1616.5 991.9 1609.2 958.5 1732.3 912.5 1925.6 912.2 1925.6 Z" data-holc_grade="A"/>
</g>
<g id="B">
<path d="M 241.7 765.5 210.3 789.1 154.2 829.3 132.5 837.1 109.1 843.5 96.7 778.9 91.8 671.7 82.4 610.3 138.6 568.7 182.5 671 127.5 749 114.6 756.8 117.8 765.5 128 793.3 145.5 772.7 189.6 710.2 203.3 693.8 245.4 648.4 268.9 610 306 547.1 338.7 493.9 385.6 426.3 406.6 400.3 428.5 364.9 436.7 371.5 441.7 420.1 434.7 446.5 397.2 513.7 363.3 587.1 356.6 612.7 348 667.1 337.1 698.6 321.4 728.1 294.5 746 287.1 744.4 241.7 765.5 Z M 410.4 335.9 319.5 462.9 245.3 580.5 201.1 644.3 184.5 609.9 139 490.6 108.7 394.6 81.4 408.1 87 434.8 28.7 499.2 1 470.4 29.3 444.4 77.9 393.2 137 331.3 191.2 270.7 259.7 190 269.6 186.3 337.8 245.6 387 299.2 410.4 335.9 Z" data-holc_grade="B"/>
<path d="M 1884.3 1286.9 1710.6 1289.4 1716.7 1202.3 1594.4 1260.6 1528 1296.5 1523.7 1195 1371 1194 1439.3 1105.1 1471.5 1057.5 1529.5 980.3 1586 915.2 1632.8 867.1 1681.6 809.8 1722.5 841.8 1751.3 904.5 1757.2 937.5 1707.4 941.9 1621.6 931.2 1620.7 1031.3 1685 1034.2 1773.3 1031.8 1807.4 1090.5 1832.3 1150.8 1884.3 1286.9 Z M 2257.9 684.7 2268.9 837.7 2259.8 893.5 2356.1 837.6 2355.5 866.8 2352.5 1027.7 2356.2 1039.2 2509.1 1037.3 2515.9 1149.6 2478.7 1153.9 2475.1 1221.9 2491.6 1221.9 2488.6 1271.1 2332 1277.8 2283 1287.3 2155 1289.5 2048.3 1291.7 2052.5 1115.8 2056.8 893.4 2058.1 778.2 2055.6 716.9 2066 686.6 2111.7 689.6 2153.7 685.3 2257.9 684.7 Z M 2021.6 1292.3 1919.4 1289.6 1882.3 1184.3 1863.6 1140 1867.1 1096.1 1865.5 1047.5 1865.9 955.4 1831.2 958.1 1833.1 877.7 1814.8 876.9 1815.2 814.7 1699.3 754.2 1748.6 698.8 1775.4 674 1791 647.8 1812.4 623.5 1894.3 675.2 1978.1 677.9 2045.8 686.7 2035.1 698.5 2034.3 761.1 2035.9 906 2033.6 1024.5 2034.8 1099.9 2030.1 1128.7 2021.6 1292.3 Z" data-holc_grade="B"/>
<path d="M 743.9 1276.8 756.1 1280.5 766.8 1289.7 769 1337.6 775.3 1371.8 784.8 1442.3 876.5 1439.9 864.3 1291.4 937 1292.2 959.5 1434.3 973.8 1438.4 1019.2 1441.9 1140.6 1440.6 1148.8 1441.1 1150 1450.1 1123.6 1450.6 1000.1 1606.9 991.9 1609.2 887.1 1616.5 823.1 1610.6 792.3 1614.1 743.2 1615.3 689 1612 685.2 1708.5 866.6 1710.4 835 1809.2 771.5 1807.1 776.1 1926.7 912.2 1925.6 897.3 1985.9 861 1985.9 858.6 1992.3 790.4 1992.3 668.1 1992.8 609 1993.1 575 1991 523.2 1983.1 568.3 1951.4 649.4 1882.6 648 1794.2 651.5 1679.9 653 1602.9 655.7 1493.6 657.8 1451.9 663.7 1421.3 667.5 1382.5 671.3 1343.5 667.3 1278.5 721.7 1279.7 743.9 1276.8 Z" data-holc_grade="B"/>
<path d="M 1456.8 1448.3 1458.2 1607.2 1464.1 1762.3 1463.8 1863.3 1423.5 1862.9 1422.9 1759.1 1420.6 1660.8 1416.7 1506.4 1410.7 1473 1396.8 1447.2 1456.8 1448.3 Z" data-holc_grade="B"/>
<path d="M 2450 3873.1 2454 3988.9 2479.4 4054.1 2439.3 4050.2 2237.1 4032.8 2239.1 4060 2240.1 4062 2112.1 4054.2 2045.7 4058.2 1983.2 4074.7 1930.5 4100 1902.1 4114.6 1859.2 4120.5 1840.6 4114.7 1833.7 3966.7 1852.3 3970.6 1850.3 3871.4 1855.2 3653.4 1847.3 3477.3 1821.9 3412.1 1779.9 3341.1 1863.9 3320.6 2001.6 3474.3 2098.3 3566.7 2224.3 3710.7 2303.4 3776.8 2370.8 3813.8 2450 3873.1 Z M 1862.3 3098 1862.3 3097 1862.9 3097.5 1953.8 3172.1 2006.5 3214.4 2032.9 3234.8 2053.4 3255.2 2083.4 3291 2116.4 3331.8 2167.7 3395.3 2205.1 3439.1 2253.4 3491.6 2275.4 3509.1 2288.6 3523.7 2304 3544.1 2315 3564.5 2315 3610.5 2294.5 3625.1 2287.9 3607.6 2271 3580.6 2249 3550 2260.8 3536.8 2238 3509.8 2246.1 3499.6 2235.1 3485 2218.3 3478.5 2188.9 3444.9 2155.7 3424.2 2145 3423.3 2127.9 3443.2 2082 3504 2056.7 3479.7 2012.2 3432.1 1960.9 3379.6 1911.6 3323.6 1868.6 3277.9 1831.1 3273.1 1847.2 3228.8 1855.4 3197.7 1858.9 3148.5 1862.3 3098 Z M 2132.4 3140.7 2152.2 3185.2 2214.5 3164 2260.6 3153.8 2290.6 3143.5 2310.4 3140.6 2328.7 3138.4 2328 3185.1 2325.8 3200.4 2325.8 3258.8 2322.2 3295.3 2320 3327.4 2324.4 3370.4 2321.5 3380.6 2317.8 3450 2317.9 3496.7 2321.5 3508.3 2322.3 3525.8 2321.5 3525.8 2227 3418.6 2139.1 3313.6 2056.3 3216.6 2040.9 3210 1990.4 3167.7 1934.7 3117.4 1887.9 3076.6 1903.3 3053.2 1915 3018.2 1931.1 2994.8 1955.2 2989.7 1970.6 2994.8 1995.5 3008.7 2007.9 3016.7 2038 3066.3 2070.2 3086 2108.3 3107.9 2132.4 3140.7 Z" data-holc_grade="B"/>
<path d="M 864.7 417.4 730.2 414 719.4 405.7 721 234.8 720.1 27 833 21.3 833.1 21.7 835.6 70.7 843.3 188.7 853 305.7 864.7 417.4 Z" data-holc_grade="B"/>
<path d="M 1231.9 224 1238.7 296.4 1239.6 349.8 1241.6 428.9 1124.4 423.5 1123.2 499.5 1124.4 534.5 1157.4 538 1231.7 536.8 1293.4 541.5 1351.1 543.4 1426 548.9 1541.7 552.6 1564.3 556.8 1589.3 570.8 1599 584.1 1603.9 611.4 1606.9 654.5 1603.9 695.8 1595.4 721.3 1416.8 719.5 1289.5 717.7 1105.5 713.4 945.9 712.7 932.8 618.9 908.3 449.3 905.7 357.5 880.3 165.2 874.5 82.5 874.2 17.8 982.9 16.6 969.3 94.8 968.3 114.7 955.1 175.4 936.1 223.9 994.6 222.5 1063.3 223.5 1126.1 219.1 1137.8 219.1 1182.7 225.5 1231.9 224 Z" data-holc_grade="B"/>
<path d="M 1498.7 258.3 1567.2 433.1 1430.7 425.5 1314.2 426.5 1241.6 428.9 1239.6 349.8 1238.7 296.4 1231.9 224 1296.7 221.6 1350.3 225 1386.3 226 1421.9 259.5 1483.3 263.8 1498.7 258.3 Z" data-holc_grade="B"/>
<path d="M 1996.4 414.7 2052.1 392.1 2052.1 409.8 1970.7 456.7 1891.3 527.3 1845.5 578.3 1830.9 601.6 1812.4 623.5 1791 647.8 1775.4 674 1748.6 698.8 1699.3 754.2 1674 703.2 1637.9 600.2 1607.2 536.6 1567.2 433.1 1636.4 433.1 1702.7 440.9 1754.4 440.9 1763.1 437 1793.4 438 1806.5 443.3 1826.5 438 1833.8 317.5 1839.1 195.7 1837.6 119 1927.8 112.1 1932.7 185.9 1928.8 251.5 1929.3 330.6 1930.8 430.2 1996.4 414.7 Z" data-holc_grade="B"/>
<path d="M 2164 33.5 2196.2 76.7 2236.2 140.8 2238.7 186.9 2208.9 187.4 2164.6 175.8 2131.4 167 2079.3 168.5 2051 177.3 2052.1 338.5 2052.1 392.1 1996.4 414.7 1994.2 317.8 1994.9 225.3 1990.5 202 1990.4 80.4 1993.4 2.5 2070.1 7.6 2111.7 1 2164 33.5 Z" data-holc_grade="B"/>
<path d="M 2355.5 866.8 2356.1 837.6 2355.3 693.5 2442.3 706.1 2465.7 704.6 2516 698.7 2504.2 595.7 2506.1 562.3 2508.4 507.6 2517.3 420.1 2517.7 369.2 2507.1 268.3 2584.7 279.5 2661.9 287.2 2759.4 324.8 2822.6 362.1 2833.9 362 2860.8 372.1 2950.1 401.6 2989.1 415.5 2995.8 490.5 2999 588 2994.4 673.1 2995.6 732.5 2997.7 883.3 2909.5 866.7 2878 867.9 2763.3 871.1 2735.6 864.1 2688 876.2 2639.3 868.4 2567.9 866.5 2355.5 866.8 Z" data-holc_grade="B"/>
<path d="M 856.7 1100.5 803.9 1090.8 779.4 1083.4 732.5 1084.6 722.4 1064.4 722.7 1050.8 722.8 1046.5 718.2 955.6 720.9 928 856.8 925.6 851.7 1043.7 856.7 1100.5 Z M 1301 745.8 1303.2 828.1 1342.9 849.3 1377.5 879.4 1425.3 924.8 1436.5 932.8 1524.1 934 1458.9 1015.9 1420.1 1072 1356.8 1159.3 1309.6 1217.6 1259.2 1281.7 1232.7 1317.5 1232 1327.9 1205.4 1307.7 1160.9 1310.1 1157 1286.7 1150.8 1255.7 1144.2 1177.1 1185.1 1205.9 1203.9 1195.8 1259.7 1140.2 1276.8 1039.2 1276.5 940.9 1243.7 928.4 1198.8 925.7 1151.3 936.2 1118.5 947.8 1076.8 947.8 1065.5 936.2 1029.2 930.7 953.9 928.4 954.3 831.2 953.6 763.6 949.3 738.4 1045.2 740.7 1140 740.4 1209 742.3 1301 745.8 Z" data-holc_grade="B"/>
<path d="M 1396.8 1447.2 1318.8 1443.3 1163.3 1442 1148.8 1441.1 1140.6 1440.6 1214.7 1349 1232 1327.9 1251.1 1342 1287.1 1298.2 1371.7 1297.5 1444.6 1298.5 1455.8 1301.2 1454.4 1408.3 1471 1448.5 1456.8 1448.3 1396.8 1447.2 Z" data-holc_grade="B"/>
</g>
<g id="C">
<path d="M 864.7 417.4 871.9 477.6 883.5 539.7 899.9 651.3 908 722.1 824.7 724.1 822.1 593 818 553.4 808.4 491.6 717.2 491.9 627.1 499.7 541.4 494.7 544 542.2 544.3 618.5 562.7 671.6 564.7 718.5 547.1 770.1 521.3 823.7 424.8 825.3 449.8 711.4 462.7 594.6 481.8 443.7 492.9 326.9 507.1 182.2 514.4 132.2 522.7 81.7 528.1 29.8 720.1 27 721 234.8 719.4 405.7 730.2 414 864.7 417.4 Z" data-holc_grade="C"/>
<path d="M 1567.2 433.1 1498.7 258.3 1445.6 126.7 1543.1 119.9 1680.5 127.7 1717.5 124.8 1837.6 119 1839.1 195.7 1833.8 317.5 1826.5 438 1806.5 443.3 1793.4 438 1763.1 437 1754.4 440.9 1702.7 440.9 1636.4 433.1 1567.2 433.1 Z" data-holc_grade="C"/>
<path d="M 633.8 2426.7 384.6 2069.9 357 2026.4 344.9 2014.3 327.2 1992.4 308.3 1984.5 289.4 1969.9 276 1934 257.1 1909.1 263.9 1883 266.3 1807 461.3 2079.3 680.7 2393.6 633.8 2426.7 Z M 720.9 928 718.2 955.6 722.8 1046.5 722.7 1050.8 722.4 1064.4 702.2 1034.1 651 1018.1 609.8 1014.4 608.6 1047.3 540.1 1065.3 525.7 1279.9 667.3 1278.5 671.3 1343.5 667.5 1382.5 663.7 1421.3 657.8 1451.9 655.7 1493.6 653 1602.9 651.5 1679.9 648 1794.2 649.4 1882.6 568.3 1951.4 523.2 1983.1 575 1991 609 1993.1 668.1 1992.8 790.4 1992.3 858.6 1992.3 845.1 2012.1 833.1 2061.7 806.2 2158.8 781.8 2271.7 757.2 2398.3 707.7 2389.5 580.7 2212.1 465.5 2047.8 370.2 1913.3 313.8 1832.2 269.6 1783.2 276.7 1655.2 289.1 1561.3 297 1479.1 300.3 1414.4 306.2 1351.1 313.8 1271.3 291.9 1247.7 229.4 1182.9 197.2 1111.5 163.4 1017.6 133.9 927.2 109.1 843.5 132.5 837.1 154.2 829.3 210.3 789.1 241.7 765.5 260.7 765.3 278.2 772.6 300.1 784.8 315 800.3 322.3 813.7 327.3 877.5 325.8 937 360.3 918.3 403.9 903.5 430.2 898.9 480.5 890.4 517.4 887.8 573.3 886.1 596.3 931 638.2 929 720.9 928 Z M 448.5 1546.2 453.6 1635.1 487.2 1633 486.5 1601.6 482.9 1537.5 489.5 1438.4 494 1357.5 498.4 1291.9 469.9 1289.7 469.9 1287.5 455.9 1428.9 448.5 1546.2 Z" data-holc_grade="C"/>
<path d="M 986.3 2368.4 972.7 2329.1 1078.9 2269.6 1187.4 2204.7 1192.8 2208.6 1195.6 2275.1 1119.1 2312.8 986.3 2368.4 Z M 1230.9 2181.9 1331 2125.7 1404.8 2080.1 1488.9 2028.5 1581.6 1982.9 1699.9 1919.1 1810.8 1856.5 1891.3 1820.1 2030.3 1741.1 2025.5 2128.7 1981.6 2139 1932.3 2155.4 1846.3 2160.3 1740.8 2180.4 1680.4 2187.7 1617.6 2209.6 1548.7 2230.2 1512.7 2238.1 1446.2 2253.9 1377.9 2274 1341.3 2284.3 1284.6 2293.4 1256 2301.3 1233.4 2315.9 1228.5 2308.6 1226.1 2195.6 1230.9 2181.9 Z M 1198 1634.3 1198.6 1741.2 1200.7 1824.8 1201.2 1932.7 1199.7 2032.2 1199.4 2084.4 1195.9 2162.5 1065.9 2238.1 988.1 2280 914.6 2319.4 835.8 2359.9 846.7 2300.1 857.5 2235.4 866.3 2198.6 875.7 2162.7 887.4 2125.4 902.7 2066.5 919.1 2008.2 934.6 1947 945.4 1897.4 968 1814.3 990.9 1713.7 1003.5 1650.7 1016.6 1631.6 1073.9 1635.4 1137.4 1636.3 1198 1634.3 Z M 1396.8 1447.2 1410.7 1473 1416.7 1506.4 1420.6 1660.8 1422.9 1759.1 1423.5 1862.9 1427.9 1889.6 1424.8 1910.6 1415.4 1959.2 1535.6 1965.4 1510.2 1978.3 1437.3 2015.6 1388.9 2046.7 1317.5 2092.6 1236.3 2142.7 1229.6 2141.2 1235.9 2053.7 1234.4 1973.2 1236.3 1829.3 1234 1694 1232.5 1592.9 1226.6 1516.8 1236 1455 1201.3 1454.2 1195.8 1535.4 1095.1 1535.4 1122.5 1498.5 1156 1452 1163.3 1442 1318.8 1443.3 1396.8 1447.2 Z M 1919.4 1289.6 2021.6 1292.3 2025.7 1465.7 2025 1524 1975.3 1429.3 1939.9 1346 1919.4 1289.6 Z M 1463.8 1863.3 1464.1 1762.3 1458.2 1607.2 1456.8 1448.3 1471 1448.5 1519 1449.1 1669.6 1449 1668.9 1352.8 1712.8 1350.6 1710.6 1289.4 1884.3 1286.9 1899.1 1325 1913.1 1359.6 1963.1 1478.1 2025.9 1601.2 2030.3 1697.4 2031.1 1697.6 1963.2 1740.8 1808.3 1821.7 1704.2 1879.6 1586.7 1941.1 1585.5 1868.8 1463.8 1863.3 Z M 2048.3 1291.7 2155 1289.5 2283 1287.3 2332 1277.8 2488.6 1271.1 2488.6 1301 2454.9 1306.1 2447 1434.4 2432.3 1436.6 2438.9 1502.2 2546.5 1473.7 2651.8 1440.1 2654.1 1601.9 2640.2 1599.7 2589 1596.1 2548 1603.4 2450.7 1628.3 2349 1645.1 2345.4 1712.2 2461.7 1725.2 2577.3 1724.4 2580.3 1863.7 2529.9 1872.4 2400.4 1881.3 2231.4 1904.7 2115 1926.6 2056.5 1935.4 2055 1721.8 2120.8 1671.4 2178.6 1640.8 2345.3 1552.5 2346.8 1554 2351.2 1552.5 2349.7 1513.2 2125.9 1635.7 2053.5 1678 2048.3 1291.7 Z" data-holc_grade="C"/>
<path d="M 1500.6 2826.4 1623.6 2881.8 1696.8 2919 1787.6 2961.3 1867.4 3005.1 1871.8 3069.3 1880.6 3083.9 1862.9 3097.5 1862.3 3097 1862.3 3098 1832.2 3079.5 1752.4 3078.8 1681.4 3083.9 1646.3 3083.2 1577.4 3066.4 1527.7 3056.2 1466.9 3040.1 1450.1 3078.1 1429.6 3097 1390 3059.8 1299.2 2988.3 1284.6 2969.3 1264.1 2946 1224.6 2918.3 1199.7 2911 1199 2866.5 1186.5 2824.9 1242.9 2815.4 1270 2820.5 1304.4 2835.9 1330.7 2857.7 1360.7 2868.7 1431 2897.1 1459.6 2904.4 1500.6 2826.4 Z M 1325.9 2475.6 1328.9 2430.4 1328.9 2368.4 1326.7 2334.9 1392.5 2318.1 1462.8 2295.5 1502.3 2285.3 1511.8 2291.9 1514 2371.3 1513.3 2431.9 1509.6 2475.6 1461.3 2472.7 1399.1 2474.9 1325.9 2475.6 Z M 1424.9 2784.4 1370.3 2754.2 1230.7 2690.9 1225.7 2689 1304.8 2639.1 1347.8 2617.2 1443.4 2563.2 1529.8 2517 1530.3 2505.6 1530.8 2495.1 1539.1 2392.6 1536.6 2275.9 1612.2 2261.3 1656.6 2244.3 1723 2223.9 1757.1 2220.5 1860.1 2204.9 1925 2198.1 1938.6 2193.2 1944.5 2247.6 1941.6 2254.5 1911.3 2276.3 1867.4 2303.1 1830.8 2325.9 1786.9 2345.9 1763 2350.3 1744.5 2349.8 1726.4 2340.5 1717.6 2356.6 1699.6 2375.1 1639.1 2416.4 1615.7 2437.3 1566.9 2472.3 1541.5 2493.2 1622 2492.7 1732.8 2495.1 1831.3 2491.7 1827 2499.5 1795.2 2565.1 1783.1 2600.1 1777.2 2608.4 1682 2558.3 1656.2 2606.5 1649.4 2628.4 1667.4 2641 1710.8 2664.8 1696.2 2686.2 1671.8 2715.4 1590.8 2682.8 1541 2657.1 1498.6 2697.9 1460 2742.6 1424.9 2784.4 Z" data-holc_grade="C"/>
<path d="M 2066.9 3017.6 2069.7 2949.7 2077.7 2856.4 2068.2 2845.4 2034.5 2835.2 2041.9 2789.3 2060.9 2760.8 2096.7 2717.8 2128.9 2689.3 2166.3 2671.1 2194.1 2666.7 2224.8 2667.4 2250.4 2660.1 2276.8 2647 2288.5 2630.2 2287 2526.6 2313.3 2504 2390.1 2470.4 2475 2444.1 2540.9 2424.4 2580.4 2406.1 2637.5 2383.5 2700.4 2368.9 2773.6 2346.2 2831.4 2327.2 2881.1 2319.1 2925.8 2314.7 2921.5 2454 2927.4 2525.5 2915 2575.8 2913.6 2686.7 2865.3 2693.3 2818.5 2698.4 2753.3 2692.6 2653 2694.9 2523.5 2691.3 2443.7 2689.9 2396.1 2684.8 2387.3 2698 2381.5 2770.2 2380.8 2852.6 2377.9 2942.3 2346.4 2935 2326.7 2938.7 2267.4 2941.6 2269.6 3020.4 2249.9 3027 2207.4 3029.2 2145.2 3030 2089.5 3027.1 2066.9 3017.6 Z M 2648.4 2278.5 2639.6 2285.8 2619.1 2285.1 2594.2 2287.3 2569.3 2291.7 2540.1 2302.6 2519.6 2318.7 2470.6 2342.8 2445 2353 2409.8 2356.6 2361.5 2355.9 2343.2 2344.3 2346.2 2440.5 2298.7 2485.8 2251.1 2502.6 2147.9 2486.6 2124.5 2483.7 2054.2 2478.6 2055.6 2299.2 2055.6 2175.2 2059.9 2161.4 2106.8 2156.3 2151.4 2147.5 2213.6 2140.2 2270.7 2135 2308.7 2131.4 2343.1 2128.5 2345.3 2097.8 2398.7 2092 2490.2 2083.2 2549.5 2078.8 2612.4 2069.2 2640.9 2064.1 2643.9 2151.6 2645.4 2183.7 2652 2218.7 2648.4 2278.5 Z" data-holc_grade="C"/>
<path d="M 1659.8 3371.3 1718.4 3379 1766.2 3362.5 1789.7 3397.5 1806.3 3445.2 1820.9 3469.5 1819 3515.2 1821 3580.4 1831.7 3648.5 1829.8 3716.6 1825.9 3809.1 1826.9 3875.3 1821 3963.8 1760.5 3911.3 1755.6 3830.5 1664.7 3819.8 1663.8 3819.8 1658.9 3551.3 1659.8 3371.3 Z" data-holc_grade="C"/>
<path d="M 2102.4 4235.5 2104.3 4170.1 2089.7 4082.5 2245.9 4084.4 2282.1 4180.7 2285.1 4257.6 2102.4 4235.5 Z" data-holc_grade="C"/>
</g>
<g id="D">
<path d="M 1095.1 1535.4 1195.8 1535.4 1198 1634.3 1137.4 1636.3 1073.9 1635.4 1016.6 1631.6 1095.1 1535.4 Z" data-holc_grade="D"/>
<path d="M 384.6 2069.9 633.8 2426.7 568.6 2470.2 568.2 2471 317.1 2122.4 384.6 2069.9 Z" data-holc_grade="D"/>
<path d="M 1170.7 2699.8 1058.9 2672.4 988.7 2652 1004.9 2591.5 1023.7 2527.7 1031.1 2504 1193.1 2506.4 1194.7 2555.8 1186.1 2626.2 1170.7 2699.8 Z M 1225.7 2689 1220.9 2687.1 1224.1 2657.3 1232.9 2587.3 1237.8 2563.9 1239.7 2501.7 1530.3 2505.6 1529.8 2517 1443.4 2563.2 1347.8 2617.2 1304.8 2639.1 1225.7 2689 Z M 1139.3 2477.1 1057.3 2480.7 1022.9 2479.2 1006.8 2431.8 1033.9 2425.2 1054.4 2418 1085.1 2407.8 1110.8 2398.3 1145.9 2389.5 1175.2 2377.2 1202.3 2372.1 1201.5 2477.1 1139.3 2477.1 Z M 1326.7 2334.9 1328.9 2368.4 1328.9 2430.4 1325.9 2475.6 1231.5 2477.1 1232.3 2356.7 1230.8 2356.7 1326.7 2334.9 Z M 986.3 2368.4 1119.1 2312.8 1195.6 2275.1 1199.1 2326 1110.8 2360.2 995.3 2395.9 986.3 2368.4 Z" data-holc_grade="D"/>
<path d="M 1225.7 2689 1230.7 2690.9 1370.3 2754.2 1424.9 2784.4 1500.6 2826.4 1459.6 2904.4 1431 2897.1 1360.7 2868.7 1330.7 2857.7 1304.4 2835.9 1270 2820.5 1242.9 2815.4 1186.5 2824.9 1199 2866.5 1199.7 2911 1202.4 2949.6 1193.6 2977.8 1177.9 3008 1142.8 3033.3 1127.2 3044.9 1106.7 3067.3 1062.7 3074.1 1020.8 3081.9 976.8 3107.2 954.4 3112 949.5 3102.3 942.7 3059.5 953.4 3030.3 963.2 2996.3 979.8 2926.2 996.4 2866 1008.2 2801.8 1026.7 2717.2 910.6 2689.9 784.7 2659.7 796.4 2604.3 898.9 2630.6 988.7 2652 1058.9 2672.4 1170.7 2699.8 1210.2 2709.4 1220.9 2687.1 1225.7 2689 Z" data-holc_grade="D"/>
<path d="M 1766.2 3362.5 1718.4 3379 1659.8 3371.3 1549.7 3375.4 1508 3377.5 1510.9 3346.2 1516.8 3309 1516.8 3268.8 1516 3215.6 1516.8 3173.3 1527.8 3160.9 1545.3 3172.5 1590 3200.3 1642.7 3220.7 1697.6 3235.3 1726.9 3284.1 1766.2 3362.5 Z" data-holc_grade="D"/>
</g>
</svg>