<?xml version="1.0"?>
<svg xmlns="http://www.w3.org/2000/svg" version="1.2" baseProfile="tiny" width="3000" height="2034" viewBox="0 0 3000 2034" stroke-linecap="round" stroke-linejoin="round">
<g id="A">
<path d="M 1880.6 120 1868.3 455.6 1818.7 454.6 1738.8 451.7 1718.7 521.6 1513.3 506.7 1519.3 347.5 1523 327.5 1523 302.2 1605.9 308.1 1607.4 288.1 1674.6 290.3 1678.3 309.6 1740.3 311.1 1743.3 220.4 1763.4 218.9 1764.2 188.4 1740.3 183.9 1746.2 123 1685 120 1672.3 117 1647 120 1488.7 111.8 1493.9 36.7 1530.5 36 1530.5 6.2 1615.6 6.2 1732 5.5 1776.8 1 1776.8 65.7 1771.6 118.5 1880.6 120 Z" data-holc_grade="A"/>
<path d="M 614.6 1109.1 609.9 1207.2 383.4 1245.2 376.9 1230.9 373.3 1210.1 372.1 1150.6 380 1033.3 617.7 1044.8 614.6 1109.1 Z" data-holc_grade="A"/>
</g>
<g id="B">
<path d="M 1523 302.2 1523 327.5 1519.3 347.5 1513.3 506.7 1718.7 521.6 1738.8 451.7 1818.7 454.6 1868.3 455.6 1865.7 526.8 1995 532.1 1991.8 610.2 1981.3 613.9 1975.4 778.3 1765.6 770.1 1767.8 753.8 1729 753 1729 732.2 1647.6 728.5 1632.7 790.2 1616.2 895.9 1607.7 962.5 1554.3 958.9 1477.2 941.1 1450.9 940.5 1244.2 929.8 1178.5 945.8 1162.1 883.5 1153.9 834.4 1146.4 759.3 1133.7 684.1 1127 651.4 1118.8 580 1113.6 540.6 1096.5 472.2 1086 414.9 1104.7 410.4 1127.1 398.5 1139.8 387.4 1137.5 376.2 1195.8 355.4 1131.6 189.6 1138.3 81 1227.9 86.2 1289.1 88.5 1281.6 176.9 1331.6 293.7 1417.5 301.9 1483.2 301.9 1523 302.2 Z M 1388.9 500.7 1415.6 489.5 1419.2 487.1 1436.9 487.1 1437.1 446.9 1367.1 445.7 1374.3 470.7 1319.1 479.5 1273 482.8 1271.3 505.9 1371.9 508.8 1372.6 523.3 1394.4 524.5 1388.9 500.7 Z" data-holc_grade="B"/>
<path d="M 2011.8 125.3 1995 532.1 1865.7 526.8 1868.3 455.6 1880.6 120 1933.6 119.9 1982.9 124.4 2011.8 125.3 Z" data-holc_grade="B"/>
<path d="M 981.5 1058.2 978.6 1149.5 799.8 1177.5 609.9 1207.2 614.6 1109.1 726.7 1114.4 733.4 940.2 720.1 939.7 726.3 818.8 696.7 819.2 625.5 817.8 627.4 727.3 639.4 729.2 663.3 726.4 680 725 719.2 732.1 743.6 733.1 786.1 732.6 807.1 735.5 804.2 778.6 839.1 789.1 840.1 802 871.1 804.8 906.5 814.4 941.4 835.8 964.3 861 979.1 886.3 986.3 904.8 981.5 1058.2 Z" data-holc_grade="B"/>
<path d="M 251.1 1387.8 75.2 1384.8 45.5 1376.2 2 1373.8 7.4 1151 9.8 1144.4 76.1 1142.1 130.5 1145.1 173.5 1143.9 174.7 1114.8 183.1 1024.3 213.6 1027.3 267.3 1029.7 263.1 1135.6 259.5 1209.4 251.1 1387.8 Z" data-holc_grade="B"/>
<path d="M 2 1373.8 45.5 1376.2 75.2 1384.8 251.1 1387.8 303.7 1391.6 302.2 1455.9 295.9 1513.1 244.3 1511.1 176.9 1509.2 52.6 1502 27.8 1498.1 1 1499.1 2 1373.8 Z" data-holc_grade="B"/>
<path d="M 789.4 1423.1 785.3 1537.8 714.1 1534.4 481.2 1523.4 479.3 1460.5 445.4 1460.5 442.5 1457.1 444.9 1403.3 401 1396.6 406.3 1275.7 392.4 1261.9 383.4 1245.2 609.9 1207.2 799.8 1177.5 789.4 1423.1 Z" data-holc_grade="B"/>
<path d="M 1071.8 1250.8 1062.8 1433.2 789.4 1423.1 799.8 1177.5 978.6 1149.5 1077.7 1132.4 1071.8 1250.8 Z" data-holc_grade="B"/>
<path d="M 714.1 1534.4 712.4 1603.4 654.9 1598.2 651.2 1602.4 649.3 1623.4 646.4 1638.2 648.8 1662.9 655 1660.6 656.9 1670.1 556.5 1701.5 470.4 1731.9 471.9 1701.4 473.8 1641.4 481.2 1523.4 714.1 1534.4 Z" data-holc_grade="B"/>
<path d="M 2187.7 1561.4 2191.3 1532.8 2195.7 1361.5 2197.8 1283.4 2349.5 1289.9 2341.2 1458.4 2334.1 1456.6 2332.3 1542.9 2303.6 1540.5 2298.9 1585.8 2279.7 1584.6 2277.9 1561.4 2187.7 1561.4 Z" data-holc_grade="B"/>
</g>
<g id="C">
<path d="M 2715.6 666.6 2725.9 401.1 2475.8 390 2479.5 326.1 2486.9 216.8 2508.6 220.5 2610.1 225.6 2604.2 323 2709.5 328.9 2723.5 138.6 2843 150.4 2845.9 105 2928.1 107.2 2927.3 148.8 2999 154 2978.3 509.5 2715.6 666.6 Z" data-holc_grade="C"/>
<path d="M 1204 1644.1 1165.2 1641.9 1159.9 1820.5 1082.2 1819.7 1086.7 1670.2 1026.2 1667.2 997.8 1667.2 967.2 1662.7 956 1662.7 927.6 1659.7 914.9 1851 807.3 1847.2 796.8 2033.3 695.9 2028.8 592.8 2025 460.6 2018.2 470.4 1748.8 647.5 1690.9 846.9 1629.9 944.1 1596.5 1074 1551.1 1113.6 1542.9 1220.4 1510.9 1218.2 1535.5 1227.2 1532.5 1248.1 1556.3 1243.6 1618.8 1207.7 1617.3 1204 1644.1 Z" data-holc_grade="C"/>
<path d="M 2478.6 669.9 2476.6 682.4 2217.9 816.2 2186.9 830.5 2155.8 843 2144.5 853.2 2160.1 817.1 2186.9 743.5 2151.1 742 2154.8 673.6 2171.2 615.6 2183.9 544.2 2175.7 529.3 2180.9 512.2 2177.9 503.3 2169.7 489.9 2194.3 372.4 2193.5 346.3 2199.5 327 2259.2 327 2369 333.6 2426.4 332.9 2422.7 385.7 2418.3 439.2 2407.1 439.2 2401.9 544.8 2418.3 547.8 2479.6 550.7 2474.4 654.9 2480.3 659.3 2478.6 669.9 Z" data-holc_grade="C"/>
<path d="M 1995 532.1 2011.8 125.3 2102.2 126 2096.2 236.1 2115.6 236.8 2117.1 258.4 2116.4 285.9 2117.1 317.9 2128.4 369.9 2146.3 424.2 2138.1 497.4 2138.9 513 2133.6 529.4 2115.8 702.7 2100.1 768.1 2071.7 803.8 1930.6 898.4 1927.6 967.1 1984 970 1892.9 1101.7 1884.7 1103.9 1840.6 1134.4 1804.8 1159 1772.6 1176.1 1683.8 1153 1692.6 1111.3 1601.8 1084.5 1631 969.1 1607.7 962.5 1616.2 895.9 1632.7 790.2 1647.6 728.5 1729 732.2 1729 753 1767.8 753.8 1765.6 770.1 1975.4 778.3 1981.3 613.9 1991.8 610.2 1995 532.1 Z" data-holc_grade="C"/>
<path d="M 978.6 1149.5 981.5 1058.2 1044.7 1061 1052.8 948.2 1093.9 953.9 1123.6 954.8 1124.1 987.2 1133.1 989.1 1136 995.3 1133.6 1005.3 1136.5 1023.9 1142.2 1047.2 1145.5 1065.8 1146.5 1116.7 1077.7 1132.4 978.6 1149.5 Z" data-holc_grade="C"/>
<path d="M 1395.3 1152.4 1372 1145.8 1325.4 1132.1 1303.3 1128 1272.3 1124.4 1226.3 1119 1178.5 945.8 1244.2 929.8 1450.9 940.5 1477.2 941.1 1554.3 958.9 1526.8 1060.7 1492.7 1049.4 1464.1 1149.4 1399.5 1135.1 1395.3 1152.4 Z" data-holc_grade="C"/>
<path d="M 1395.3 1152.4 1392.4 1164.9 1455.1 1182.7 1476.6 1186.9 1501.1 1197 1474.8 1292.2 1525.4 1313.3 1518.7 1349.7 1498.6 1399.6 1485.9 1418.5 1482.1 1424.1 1389.1 1454.5 1398.8 1392 1326.3 1371.9 1283.8 1216.4 1257.1 1210.8 1226.3 1119 1272.3 1124.4 1303.3 1128 1325.4 1132.1 1372 1145.8 1395.3 1152.4 Z" data-holc_grade="C"/>
<path d="M 2341.2 1458.4 2349.5 1289.9 2197.8 1283.4 2195.7 1361.5 2118.9 1342.4 2082.5 1329.9 2066.3 1326.9 2042.4 1323.4 2002.4 1311.5 2003 1258.5 2049.6 1271 2049 1244.2 2139.8 1243 2176.9 1246.5 2180.4 1244.8 2181 1163.8 2203.1 1164.4 2207.3 1109 2474.9 1122 2460.8 1485.1 2341.2 1458.4 Z" data-holc_grade="C"/>
<path d="M 785.3 1537.8 789.4 1423.1 1062.8 1433.2 1071.8 1250.8 1144.2 1254.6 1188.3 1381.1 1179.3 1478.5 1085.2 1474.1 1084.4 1514.2 1060.5 1516.5 1061.3 1548.5 957.4 1582.7 955.9 1546.2 785.3 1537.8 Z" data-holc_grade="C"/>
<path d="M 2195.7 1361.5 2191.3 1532.8 2187.7 1561.4 2168 1535.8 2165 1536.4 2156 1541.2 2109.3 1521.9 2030.5 1489.4 2031.1 1471.6 1953.4 1441.8 1981.5 1363.8 2002.4 1311.5 2042.4 1323.4 2066.3 1326.9 2082.5 1329.9 2118.9 1342.4 2195.7 1361.5 Z" data-holc_grade="C"/>
</g>
<g id="D">
<path d="M 2217.4 824.2 2217.9 816.2 2476.6 682.4 2478.6 669.9 2587.8 616.1 2583.4 742.6 2531.9 767.9 2532.7 792.5 2446.1 788 2441.6 827.5 2217.4 824.2 Z" data-holc_grade="D"/>
<path d="M 2217.4 824.2 2207.8 978.1 2203.7 983.5 2163 981.7 2160.7 1006.1 2140.3 1004.9 2133.8 1107.3 2207.3 1109 2203.1 1164.4 2181 1163.8 2180.4 1244.8 2176.9 1246.5 2139.8 1243 2049 1244.2 2049.6 1271 2003 1258.5 1991 1256.7 1977.9 1211.5 1959.9 1153.7 1960.5 1121 1973.1 1095.4 1996.4 1067.4 2015.5 1049.6 2023.3 1030.5 2027.4 971.6 2039.4 912.1 2084.2 923.4 2130.8 929.9 2136.1 925.8 2144.5 853.2 2155.8 843 2186.9 830.5 2217.9 816.2 2217.4 824.2 Z" data-holc_grade="D"/>
<path d="M 2039.4 912.1 2027.4 971.6 2023.3 1030.5 2015.5 1049.6 1996.4 1067.4 1973.1 1095.4 1960.5 1121 1959.9 1153.7 1977.9 1211.5 1991 1256.7 2003 1258.5 2002.4 1311.5 1981.5 1363.8 1953.4 1441.8 2031.1 1471.6 2030.5 1489.4 2109.3 1521.9 2084.2 1577.8 2035.6 1536.9 1996 1498.2 1982.6 1485.5 1962.4 1469.9 1949.7 1470.7 1917.6 1440.9 1935.5 1420.1 1945.2 1408.2 1934 1394 1914.6 1386.6 1891.4 1382.9 1870.5 1378.4 1849.6 1371.7 1841.4 1367.3 1833.9 1352.4 1825.7 1341.2 1794.3 1336 1783.1 1335.3 1774.9 1330.1 1761.5 1324.1 1745 1317.4 1727.8 1314.5 1717.4 1309.2 1712.2 1302.6 1721.1 1290.6 1711.4 1285.4 1653.9 1267.6 1683.8 1153 1772.6 1176.1 1804.8 1159 1840.6 1134.4 1884.7 1103.9 1892.9 1101.7 1984 970 2027.3 907.5 2039.4 912.1 Z" data-holc_grade="D"/>
<path d="M 1893.5 1459.5 1932.7 1488.6 1976.7 1514.7 2036.5 1560 2091.5 1601.9 1931.3 1677.6 1905 1676.7 1788.4 1672.4 1786 1637.2 1688 1626.7 1690.4 1583.8 1701.9 1569.6 1713.3 1559.1 1732 1552.4 1765.9 1544.3 1784.1 1535.7 1802.2 1525.3 1821.4 1508.1 1834.3 1494.8 1859.1 1472.4 1893.5 1459.5 Z" data-holc_grade="D"/>
<path d="M 1653.9 1267.6 1711.4 1285.4 1721.1 1290.6 1712.2 1302.6 1717.4 1309.2 1727.8 1314.5 1745 1317.4 1761.5 1324.1 1774.9 1330.1 1783.1 1335.3 1794.3 1336 1808.9 1354.6 1817.8 1363 1821.4 1372.5 1822 1389.1 1806.5 1413.6 1789.2 1431.4 1761.7 1452.3 1761.7 1471.9 1694.8 1511.2 1692.4 1565.4 1670.9 1562.4 1618.3 1560 1597.4 1593.9 1617.7 1646.3 1602.2 1658.2 1594.4 1679.1 1586 1685.6 1571.7 1702.9 1552.6 1682 1525.1 1655.3 1493.4 1684.4 1462.3 1708.8 1381 1774.9 1333.8 1805.3 1307.3 1814.8 1311.8 1790.2 1329.7 1742.6 1441.9 1508.9 1471.1 1513.3 1493.4 1516.1 1511.6 1516.5 1528.5 1509.4 1536 1505.1 1555.4 1474 1561.1 1449.7 1566.1 1417.6 1573.3 1399.4 1581.9 1389.3 1594.8 1387.2 1639.3 1391.8 1688 1396.8 1712.1 1398.6 1716.4 1397.2 1718.9 1393.6 1723.2 1335.1 1717.4 1333.6 1709.5 1329.7 1703.8 1323.6 1700.2 1315.8 1697 1306.5 1691.6 1308.3 1537.8 1396.9 1494.1 1418.6 1485.9 1418.5 1498.6 1399.6 1518.7 1349.7 1525.4 1313.3 1542.8 1318.1 1565 1243.7 1606.7 1257.6 1653.9 1267.6 Z" data-holc_grade="D"/>
<path d="M 1257.1 1210.8 1283.8 1216.4 1326.3 1371.9 1398.8 1392 1389.1 1454.5 1482.1 1424.1 1443.3 1506 1441.9 1508.9 1329.7 1742.6 1311.8 1790.2 1307.3 1814.8 1285.2 1836.2 1284.4 1825 1280.7 1800.5 1296.4 1696.3 1271.8 1691.8 1280.7 1590.6 1277.7 1582.5 1280 1570.5 1285.2 1552.7 1285.2 1541.5 1280.7 1531.1 1278.5 1518.5 1282.2 1501.3 1283.7 1490.2 1306.9 1481.3 1314.4 1453.7 1282.2 1444.8 1259.8 1351 1256.9 1350.3 1267.3 1304.9 1282.3 1310.1 1269.6 1267 1226.2 1257.3 1241.2 1207.5 1257.1 1210.8 Z" data-holc_grade="D"/>
<path d="M 796.8 2033.3 807.3 1847.2 914.9 1851 927.6 1659.7 956 1662.7 967.2 1662.7 997.8 1667.2 1026.2 1667.2 1086.7 1670.2 1082.2 1819.7 1159.9 1820.5 1165.2 1641.9 1204 1644.1 1196.5 1874.8 1189 1889.7 1174.1 1897.1 1160.6 1900.9 1038.1 1893.4 1038.1 1822.7 1020.9 1820.5 1023.2 1743.1 976.9 1742.3 977.6 1691.7 956.7 1691 947 1928.4 828.2 1926.1 828.1 2032.5 796.8 2033.3 Z" data-holc_grade="D"/>
</g>
</svg>