<?xml version="1.0"?>
<svg xmlns="http://www.w3.org/2000/svg" version="1.2" baseProfile="tiny" width="3000" height="1906" viewBox="0 0 3000 1906" stroke-linecap="round" stroke-linejoin="round">
<g id="A">
<path d="M 1395 186.3 1411.8 189.7 1382.4 281.2 1374.2 277.5 1340.6 395.2 1315.9 386.1 1286.3 372.4 1245.3 352.3 1245.3 342.9 1250.5 328.9 1256.6 311.3 1265.8 290 1279.5 265.7 1288.4 253.2 1297.9 239.2 1314.7 246.5 1318.9 233.4 1318.9 222.5 1316.8 213.7 1312.8 203.3 1306.1 193.6 1300.9 195.7 1292.4 193.3 1285.7 185.4 1279.6 172.3 1258.3 163.8 1258.3 159.1 1258.9 155.1 1261.2 151.2 1266 144.7 1273.6 138 1279.7 133.6 1287.9 139 1290.2 140.1 1297.3 144.4 1302.2 136.8 1305.8 124.6 1315 128.3 1327.8 128.3 1344.9 130.4 1358.6 135.6 1366 140.4 1370.5 146.2 1373.6 149.5 1373.3 157.7 1370.8 166 1360.5 182.1 1347 199.7 1339.1 207 1339.1 211.6 1340.6 217.9 1341.8 222.5 1349.5 232.5 1360.2 226.5 1367.8 218.3 1382.8 199.1 1386.7 190.3 1388.6 187.8 1395 186.3 Z" data-holc_grade="A"/>
<path d="M 536.2 483.7 536.5 490.6 553.7 524.7 558 533.2 566.2 555.9 536.3 604.8 536 605.3 531.1 603.7 525.4 598 519.3 598.4 514 602.1 511.2 608.2 508.7 618.3 491.2 613.4 483.5 613.4 453.3 608.9 417.1 598 382.5 588.6 355.2 596.3 352.3 581.8 322.7 437.8 336.6 433.7 350.8 424.8 361 417.9 369.6 414.3 403 404.1 407.9 398.1 413.2 395.6 419.7 394.4 424.6 396.1 430.2 401.3 449.8 407.4 462 411.1 470.5 411.9 486.8 410.3 500.7 408.7 508.8 405 514.5 402.2 521.4 402.2 535.3 398.5 534.9 435.8 552 440.3 559.7 441.9 550.3 448.8 544.2 454.9 539.7 461.8 536.1 477.6 536.2 483.7 Z" data-holc_grade="A"/>
<path d="M 2810.3 1535.8 2740.8 1630 2711 1606.9 2542.9 1484.9 2440.6 1408.7 2425.9 1405 2381.5 1392.5 2340.8 1385.6 2327.3 1386 2333.4 1294.7 2370.6 1301.2 2384.1 1299.6 2404.8 1303.2 2437.4 1311.3 2478.2 1324.7 2509.9 1333.6 2527.5 1342.1 2543.8 1353.8 2560.1 1360.3 2574.7 1375.7 2591.8 1387.5 2611.8 1400.4 2651.7 1417.9 2694.5 1435.3 2703.1 1446.2 2719.4 1455.6 2751.2 1481.1 2757.3 1490 2770.3 1500.1 2810.3 1535.8 Z" data-holc_grade="A"/>
<path d="M 2115.8 1274.5 2110.7 1281.6 2092.9 1354.3 2056 1339.4 1963.6 1304.9 1982.4 1268.9 2009.6 1269.7 2052.2 1270.7 2068.5 1270.9 2095.4 1269.7 2115.8 1274.5 Z" data-holc_grade="A"/>
<path d="M 1477.4 1058.7 1463.1 1066 1466.4 1074.5 1474.4 1077.5 1481.7 1080.6 1491.2 1087.3 1495.2 1090.3 1500.3 1107 1506.1 1123.8 1504.3 1133.5 1501.3 1145 1493.9 1156.9 1487.2 1166 1477.1 1170.9 1471 1173.3 1468.6 1175.5 1467.4 1181.2 1461.9 1181.2 1459.4 1179.7 1452.4 1191.3 1415.7 1201.6 1368.4 1213.8 1296.6 1229.9 1283.5 1244.2 1268.5 1237.2 1251.7 1225.6 1258.7 1213.5 1245.6 1201 1250.2 1193.7 1252.3 1189.4 1257.8 1186.4 1262.4 1181.2 1266.1 1172.1 1267.9 1161.2 1266.7 1156 1266.4 1148.7 1275.2 1147.5 1280.7 1144.4 1284.4 1138.3 1285.9 1131.3 1286.5 1123.7 1285.3 1115.2 1286.2 1108.5 1290.2 1112.5 1299.7 1115.8 1305.8 1117.4 1311.9 1115.2 1318.6 1117.7 1319.8 1122.5 1320.7 1132.9 1323.8 1138.7 1326.8 1140.8 1330.8 1140.2 1334.8 1139.3 1336.6 1135 1338.8 1126.2 1338.2 1114.9 1341.2 1105.5 1350.1 1101.2 1360.1 1096.4 1368.4 1094.5 1377.9 1096.7 1392.2 1057.1 1394.7 1055 1397.1 1051.4 1397.1 1047.1 1399.2 1039.5 1405 1033.1 1411.8 1030.4 1416.7 1029.8 1423.4 1031.3 1434.4 1041.6 1441.7 1047.7 1454.8 1052.6 1467.7 1056.5 1477.4 1058.7 Z" data-holc_grade="A"/>
</g>
<g id="B">
<path d="M 1290.2 140.1 1295 131.7 1296.1 127.1 1295.5 123.8 1294.4 118.8 1294.4 113.9 1297.7 110.1 1297.7 100.1 1299.1 93.6 1297.3 91 1305.7 81.7 1312.8 66.7 1316.2 67.7 1319.9 60.1 1341.8 70.2 1346.7 56.8 1354.4 44.9 1364.1 41.9 1370.9 41 1377.9 41.9 1384 44.6 1390.1 45.6 1393.1 45 1399.9 44 1398.3 48.9 1406.9 52.6 1404.7 59.9 1397.1 72.9 1393.1 69.3 1387.3 69 1384.9 69.6 1381.2 71.4 1379.1 75 1375.7 83 1370.9 89 1365.7 94.8 1346.1 104.8 1352.5 106.4 1363.2 110.9 1377 119.4 1390.1 131.9 1398.9 142.5 1403.2 154.4 1402.6 164.4 1395 186.3 1388.6 187.8 1386.7 190.3 1382.8 199.1 1367.8 218.3 1360.2 226.5 1349.5 232.5 1341.8 222.5 1340.6 217.9 1339.1 211.6 1339.1 207 1347 199.7 1360.5 182.1 1370.8 166 1373.3 157.7 1373.6 149.5 1370.5 146.2 1366 140.4 1358.6 135.6 1344.9 130.4 1327.8 128.3 1315 128.3 1305.8 124.6 1302.2 136.8 1297.3 144.4 1290.2 140.1 Z" data-holc_grade="B"/>
<path d="M 2241.7 1211 2284.2 1220 2284.3 1226.7 2282.8 1234 2278.8 1240.7 2264.5 1234.3 2243.1 1233.4 2204.6 1228 2182.9 1223.7 2170.1 1221.9 2151.1 1222.2 2130.1 1223.7 2114.8 1222.2 2090 1216.8 2068.7 1215.5 2038.1 1213.4 2011.5 1211.6 2019.2 1200 2034.2 1154.3 2075.2 1169.5 2136.6 1187.9 2181.6 1198.3 2241.7 1211 Z" data-holc_grade="B"/>
<path d="M 2973.8 1742.2 2963.2 1732.1 2946 1721.5 2919.6 1758.5 2740.8 1630 2810.3 1535.8 2865.7 1586.1 2941.1 1657.4 2960.3 1668.8 2973.3 1684.2 2986 1694.3 2999 1708.5 2973.8 1742.2 Z" data-holc_grade="B"/>
<path d="M 1258.3 163.8 1279.6 172.3 1285.7 185.4 1292.4 193.3 1300.9 195.7 1306.1 193.6 1312.8 203.3 1316.8 213.7 1318.9 222.5 1318.9 233.4 1314.7 246.5 1297.9 239.2 1288.4 253.2 1279.5 265.7 1265.8 290 1256.6 311.3 1250.5 328.9 1245.3 342.9 1245.3 352.3 1229.3 345.3 1197.3 330.4 1166.4 314 1126.8 298.7 1127.4 293.9 1167.2 203.5 1198.9 218.1 1202 210.4 1206.8 211.4 1210.9 211.4 1216.6 211.4 1219.8 209.8 1224.1 206.1 1224.7 202.5 1223.9 198.2 1220.6 194.6 1216.6 191.5 1213.3 186.3 1209.5 182.8 1209.5 177.1 1210.1 174.7 1212.5 171.3 1215.2 169 1217.8 167.8 1221.7 167.6 1229.2 149.8 1241.2 156.3 1249.1 162.1 1258.3 163.8 Z" data-holc_grade="B"/>
<path d="M 1188.4 431.9 1191.8 436.5 1280.6 578.9 1369.8 526.9 1378.8 555.7 1386.5 575.9 1377.6 579.6 1362.1 588.9 1344.6 601.1 1336 614.1 1326.7 631.1 1300.6 599.9 1279.8 611.2 1310.8 656.6 1296.5 668 1287.2 670.8 1275.3 669.6 1264.8 662.7 1255.4 655.4 1248.9 640.4 1245.2 630.7 1237.9 620.9 1231.8 613.6 1222.4 607.2 1207.8 597.8 1177.6 583.2 1151.6 573.9 1112.5 556.9 1086.4 546.7 1067.7 535.8 1042.5 521.6 1014.4 499.7 993.2 488.7 970.4 472.5 943.3 448.7 962.3 419.2 975.4 428.3 998.9 387.6 1029.8 338.9 1139.7 404.3 1188.4 431.9 Z" data-holc_grade="B"/>
<path d="M 1972.6 978.1 1930.5 907.1 1917.5 889.4 1909.4 880 1896.4 866.3 1879.6 845.8 1902.4 853.3 1918.3 857.9 1933.9 859.4 1946.1 858.8 1956.8 854.2 1968.7 845.1 1977.3 836.3 1982.8 824.7 1988.2 808.6 1990.4 796.7 1989.2 784.3 1985.2 775.4 1995.3 774.5 2007.5 783.3 2026.1 873.1 2036.8 885.2 2066.5 943.6 2060.1 957.8 2059.4 964.1 2037 968.5 2025 978.6 2016.4 983.4 2007.2 987 1997.8 986 1989.1 989.3 1979.5 992.3 1972.6 978.1 Z" data-holc_grade="B"/>
<path d="M 1903.6 986.7 1916.1 999.4 1940.3 1026.5 1987.9 1073.2 2007 1092.2 1993.7 1113.2 1940.3 1076.2 1901.6 1048.8 1813.4 998.7 1757.8 948 1782.2 919.1 1828.5 914.9 1903.6 986.7 Z" data-holc_grade="B"/>
<path d="M 1986.5 1136.5 1944.1 1193.9 1932.7 1195.6 1920 1185.8 1868.7 1162.7 1828.4 1144.9 1790.1 1121.4 1755.9 1101.9 1707.8 1072.7 1687.5 1061.4 1643.1 1032.6 1623.1 1014.7 1603.6 1005.8 1589.3 990.4 1561.2 967.3 1539.2 938.4 1607.1 874 1630.8 896.5 1659.8 924.4 1705.1 970.3 1721.1 954.6 1791 1015.4 1876.6 1061 1889.8 1070.1 1904.8 1081.3 1957 1114 1986.5 1136.5 Z" data-holc_grade="B"/>
<path d="M 1402.3 885.3 1414.2 884.7 1417.9 886.8 1424.9 892.3 1431.9 899 1438.3 912.1 1444.1 919 1465.8 944.3 1487.5 973.2 1500.7 988.7 1503.7 1000.9 1506.1 1014.6 1506.1 1025.8 1503.7 1033.4 1499.1 1044.7 1489.3 1052.6 1477.4 1058.7 1467.7 1056.5 1454.8 1052.6 1441.7 1047.7 1434.4 1041.6 1423.4 1031.3 1416.7 1029.8 1411.8 1030.4 1405 1033.1 1399.2 1039.5 1397.1 1047.1 1397.1 1051.4 1394.7 1055 1392.2 1057.1 1389.2 1057.4 1387.6 1055 1385.8 1051.7 1380.9 1060.5 1377.3 1055.9 1372.1 1050.7 1361.7 1046.2 1347 1041.6 1307.3 1020.6 1306.7 1017.9 1304 1011.5 1300 1008.2 1294.8 1005.1 1286.2 1004.5 1280.4 1007.2 1276.5 1014.5 1275.5 1017.3 1274 1021.8 1270.7 1026.7 1263 1029.4 1259.7 1029.4 1254.5 1027 1249.9 1037 1242.3 1035.2 1235.5 1033.1 1233.1 1029.4 1233.1 1026.7 1232.5 1020.3 1229.7 1017.3 1226.7 1016.1 1221.2 1015.1 1214.8 1014.8 1208.5 1016.9 1208.7 1011.2 1210.8 996.3 1212.3 983.8 1217.8 973.2 1222.7 961.6 1229.4 953.4 1201.7 895.9 1258.2 809.2 1385.2 889.2 1402.3 885.3 Z" data-holc_grade="B"/>
<path d="M 1851 1280.9 1825.3 1270.7 1782.8 1246.3 1778.6 1243.2 1804.4 1199 1817.4 1209 1834.1 1216.5 1860.8 1227.8 1878.1 1236.3 1851 1280.9 Z" data-holc_grade="B"/>
<path d="M 2112.7 1385.5 2094.9 1379.5 2058.2 1361.6 1954.2 1321.9 1963.6 1304.9 2056 1339.4 2092.9 1354.3 2110.7 1281.6 2115.8 1274.5 2133.6 1277.2 2161.6 1277 2169.3 1279 2183.8 1281.5 2201.1 1280.8 2215.6 1281.8 2261.4 1288.1 2257.1 1346.9 2122.9 1334.5 2112.7 1385.5 Z" data-holc_grade="B"/>
</g>
<g id="C">
<path d="M 1929.1 261.5 1941.3 291.9 1956.7 288.6 1976.3 280.5 2006.4 278.1 2008.4 298 2009.7 321.5 2016.6 344.6 2028.8 369.7 2015.4 401.7 1997.1 432.2 1988.9 442.3 1971 457.3 1947.4 475.5 1940.5 482 1929.1 490.6 1897.8 502.7 1861.5 517.7 1850.7 490.6 1827.9 501.9 1811.6 506.4 1774.6 527.1 1755.8 531.1 1749.3 536.4 1749.3 542.5 1753.4 555.9 1700.9 568.4 1702.5 555.9 1698.8 542.1 1700.9 509.6 1700.9 487.8 1746.9 476.8 1749.3 469.1 1750.5 454.5 1779.8 450 1806.3 441.5 1799.4 413.1 1793.7 402.2 1790.4 395.3 1785.9 388.8 1785.9 378.7 1788.4 371.4 1799.4 365.7 1811.6 354.3 1819.3 345 1820.1 338.9 1816.9 329.6 1810.8 319.9 1803.4 315 1792.4 310.6 1778.6 305.3 1791.9 263.9 1816.7 215.7 1833 216.1 1846 219.7 1855 224.6 1859.4 231.9 1859.8 238.8 1859.4 246.5 1854.6 254.6 1850.1 266.4 1848.9 276.5 1850.1 284.6 1853.8 293.1 1870.8 283.8 1890 275.3 1906.3 270 1918.9 268.8 1929.1 261.5 Z" data-holc_grade="C"/>
<path d="M 1757.8 948 1813.4 998.7 1901.6 1048.8 1940.3 1076.2 1993.7 1113.2 2007 1092.2 1987.9 1073.2 1940.3 1026.5 1916.1 999.4 1903.6 986.7 1915.8 973.3 1949.4 1011.3 1972.6 978.1 1979.5 992.3 1989.1 989.3 1997.8 986 2007.2 987 2016.4 983.4 2025 978.6 2037 968.5 2059.4 964.1 2060.1 957.8 2066.5 943.6 2074.6 961.9 2096 971.2 2085.3 999.9 2036.2 1013.6 2023.2 1029 2047.9 1078.2 2079.8 1101.5 2114.4 1122.6 2135.5 1135 2146.5 1142.1 2181.1 1154.5 2179.6 1169.2 2175 1177.5 2201.7 1186.9 2243 1193.5 2241.7 1211 2181.6 1198.3 2136.6 1187.9 2075.2 1169.5 2034.2 1154.3 2010.8 1147.7 1990.3 1131.5 1986.5 1136.5 1957 1114 1904.8 1081.3 1889.8 1070.1 1876.6 1061 1791 1015.4 1721.1 954.6 1705.1 970.3 1659.8 924.4 1630.8 896.5 1607.1 874 1539.2 938.4 1521.1 918.1 1546.3 892 1556.7 881.1 1611.2 832.4 1713 939.6 1728.7 921.1 1757.8 948 Z" data-holc_grade="C"/>
<path d="M 2257.1 1346.9 2261.4 1288.1 2333.4 1294.7 2327.3 1386 2340.8 1385.6 2381.5 1392.5 2425.9 1405 2440.6 1408.7 2542.9 1484.9 2711 1606.9 2740.8 1630 2919.6 1758.5 2946 1721.5 2963.2 1732.1 2973.8 1742.2 2899.7 1838.4 2830.4 1786.5 2783.1 1754.1 2629.9 1638.6 2494.3 1542.5 2409.2 1480.5 2416.9 1470.3 2377.4 1458.2 2346.8 1449.7 2317.5 1444.4 2296.3 1440.8 2278.8 1443.2 2287.3 1349.5 2257.1 1346.9 Z" data-holc_grade="C"/>
<path d="M 1954.2 1321.9 2058.2 1361.6 2094.9 1379.5 2112.7 1385.5 2229 1424.8 2228.7 1433.9 2225.7 1459.5 2221.1 1470.4 2127.1 1436.7 2088 1422.4 2029 1399.3 1931.1 1358.2 1818.7 1311.4 1783.2 1295 1763.4 1284.7 1710.9 1246.6 1645.2 1197 1643.7 1195.8 1628.1 1177.9 1616.5 1166 1604.6 1158.7 1596.7 1157.8 1588.7 1158.4 1579 1160.6 1573.8 1160.9 1572.6 1156 1573.2 1152 1575.3 1141.4 1559.4 1130.8 1551.5 1138.4 1546 1140.5 1536.8 1142.3 1532.5 1143.8 1528.9 1146.9 1526.7 1153.3 1526.1 1160.9 1524 1170.9 1516.7 1183.1 1509.9 1193.4 1505.7 1201.3 1503.8 1208 1503.8 1213.2 1500.2 1219 1498 1219.9 1494.1 1219.9 1487 1216.5 1481.8 1213.8 1477.9 1212 1468.1 1210.1 1459.5 1210.4 1452.4 1191.3 1459.4 1179.7 1461.9 1181.2 1467.4 1181.2 1468.6 1175.5 1471 1173.3 1477.1 1170.9 1487.2 1166 1493.9 1156.9 1501.3 1145 1504.3 1133.5 1506.1 1123.8 1500.3 1107 1495.2 1090.3 1491.2 1087.3 1481.7 1080.6 1474.4 1077.5 1466.4 1074.5 1463.1 1066 1477.4 1058.7 1489.3 1052.6 1499.1 1044.7 1503.7 1033.4 1506.1 1025.8 1506.1 1014.6 1503.7 1000.9 1500.7 988.7 1513.3 983.5 1543.1 1013.6 1561.5 1026.1 1579.8 1042.5 1627.4 1072.6 1680 1109.5 1684.9 1109.8 1711.3 1130.4 1684.5 1172.1 1778.6 1243.2 1782.8 1246.3 1825.3 1270.7 1851 1280.9 1950.7 1320.5 1954.2 1321.9 Z" data-holc_grade="C"/>
<path d="M 1249.9 1037 1277.4 1049.8 1281 1055.9 1275.8 1061.1 1274.3 1067.2 1282.9 1071.1 1291.7 1078.4 1296.3 1082.7 1306.7 1096.7 1307 1080.2 1309.1 1079.3 1311.9 1083.6 1318.3 1087.2 1323.5 1088.2 1333 1088.5 1340.6 1087.2 1347.6 1083.3 1353.4 1073.9 1356.2 1071.1 1364.7 1068.1 1370.5 1069 1378.8 1064.4 1380.9 1060.5 1385.8 1051.7 1387.6 1055 1389.2 1057.4 1392.2 1057.1 1377.9 1096.7 1368.4 1094.5 1360.1 1096.4 1350.1 1101.2 1341.2 1105.5 1338.2 1114.9 1338.8 1126.2 1336.6 1135 1334.8 1139.3 1330.8 1140.2 1326.8 1140.8 1323.8 1138.7 1320.7 1132.9 1319.8 1122.5 1318.6 1117.7 1311.9 1115.2 1305.8 1117.4 1299.7 1115.8 1290.2 1112.5 1286.2 1108.5 1285.3 1115.2 1286.5 1123.7 1285.9 1131.3 1284.4 1138.3 1280.7 1144.4 1275.2 1147.5 1266.4 1148.7 1266.7 1156 1267.9 1161.2 1266.1 1172.1 1262.4 1181.2 1257.8 1186.4 1252.3 1189.4 1250.2 1193.7 1245.6 1201 1258.7 1213.5 1251.7 1225.6 1268.5 1237.2 1283.5 1244.2 1270 1260.9 1240.4 1247.5 1233.7 1243.3 1227.6 1236 1223.9 1229.6 1216 1232.6 1209.5 1234.8 1205 1235.7 1196.4 1232 1186.6 1225.3 1180.5 1218 1178.7 1210.7 1178.7 1206.2 1178.7 1198.3 1176.3 1190.7 1171.4 1184.9 1166.5 1179.1 1170.1 1172.4 1172.6 1166.9 1173.5 1157.2 1180.2 1153.8 1186.6 1158.1 1190 1165.4 1195.2 1168.1 1199.8 1168.4 1207.4 1166.3 1215.7 1159.6 1219.6 1154.5 1232.2 1137.7 1252 1129.5 1269.7 1102.4 1264.8 1104 1252.9 1106.1 1240.4 1107.3 1225.1 1107 1213.2 1104 1204.1 1097.3 1198.3 1089.1 1194 1077.2 1195.8 1063.8 1201.3 1048.3 1204.4 1037 1208.4 1022.1 1208.5 1016.9 1214.8 1014.8 1221.2 1015.1 1226.7 1016.1 1229.7 1017.3 1232.5 1020.3 1233.1 1026.7 1233.1 1029.4 1235.5 1033.1 1242.3 1035.2 1249.9 1037 Z" data-holc_grade="C"/>
<path d="M 536.2 483.7 536.1 477.6 539.7 461.8 544.2 454.9 550.3 448.8 559.7 441.9 552 440.3 534.9 435.8 535.3 398.5 521.4 402.2 514.5 402.2 508.8 405 500.7 408.7 486.8 410.3 470.5 411.9 462 411.1 449.8 407.4 430.2 401.3 424.6 396.1 419.7 394.4 413.2 395.6 407.9 398.1 403 404.1 369.6 414.3 361 417.9 350.8 424.8 336.6 433.7 322.7 437.8 352.3 581.8 340.7 586.6 335 588.6 329.7 589.4 314.3 591 293.6 512.3 280.2 456.4 261 464.5 234.5 473.8 225.2 476.2 219.9 479 206.9 486.7 187.7 500.1 90.1 331.8 44.9 356.5 9.9 296 1 277.4 29.5 253.1 51.5 238.9 73.5 228 108.5 211 122.4 206.5 137.8 202.5 154.9 201.3 171.6 204.1 184.2 207 206.2 214.3 221.7 220.8 205 279.2 238.3 285.3 298.2 298.3 370.6 314.9 433.5 328.8 467.7 335.3 524.3 371.4 555.6 387.6 613.4 407.5 663.1 421.7 643.5 507.7 536.2 483.7 Z" data-holc_grade="C"/>
<path d="M 1353.3 411 1340.6 395.2 1374.2 277.5 1382.4 281.2 1411.8 189.7 1610.6 256.3 1660.7 264.8 1660.7 276.5 1661.9 296 1666.4 311.4 1672.5 342.2 1680.2 371 1689.6 394.5 1693.7 410.7 1707.5 444.4 1707.5 448 1699.8 454.1 1681 454.1 1670 454.1 1648.5 460.6 1622.8 467.9 1606.9 469.9 1601.2 469.1 1598.8 465.1 1588.2 469.1 1585 454.5 1578.8 437.9 1557.3 440.7 1559.3 458.6 1562.6 490.2 1521.9 486.5 1479.9 479.7 1461.2 477.6 1443.3 471.5 1435.9 466.3 1405.8 453.7 1374.5 439.1 1368.8 441.1 1363.5 428.2 1361 420.9 1353.3 411 Z" data-holc_grade="C"/>
<path d="M 1562.6 490.2 1565.3 501.5 1578.7 502.4 1603.2 502.8 1621.1 503.6 1634.1 504.8 1700.9 487.8 1700.9 509.6 1698.8 542.1 1702.5 555.9 1700.9 568.4 1669.1 572.1 1600.3 572.5 1489.6 573.7 1491.6 541.7 1425.6 542.1 1426.9 556.7 1412.6 557.5 1407.3 539.7 1392.7 498.3 1368.8 441.1 1374.5 439.1 1405.8 453.7 1435.9 466.3 1443.3 471.5 1461.2 477.6 1479.9 479.7 1521.9 486.5 1562.6 490.2 Z" data-holc_grade="C"/>
<path d="M 1126.8 298.7 1166.4 314 1197.3 330.4 1229.3 345.3 1245.3 352.3 1286.3 372.4 1315.9 386.1 1340.6 395.2 1353.3 411 1345.4 418.3 1334.4 420.8 1339.3 426.2 1344.1 433.2 1346.9 439.6 1348.7 445.4 1340.2 449.6 1369.8 526.9 1280.6 578.9 1191.8 436.5 1188.4 431.9 1151.8 380.9 1126.1 339.2 1105.7 303.7 1092.3 284.6 1111.8 296.7 1115.6 298.9 1122.2 304 1124 305.8 1126.6 303.4 1126.8 298.7 Z" data-holc_grade="C"/>
<path d="M 1297.3 91 1299.1 93.6 1297.7 100.1 1297.7 110.1 1294.4 113.9 1294.4 118.8 1295.5 123.8 1296.1 127.1 1295 131.7 1290.2 140.1 1287.9 139 1279.7 133.6 1273.6 138 1266 144.7 1261.2 151.2 1258.9 155.1 1258.3 159.1 1258.3 163.8 1249.1 162.1 1241.2 156.3 1229.2 149.8 1221.7 167.6 1217.8 167.8 1215.2 169 1212.5 171.3 1210.1 174.7 1209.5 177.1 1209.5 182.8 1213.3 186.3 1216.6 191.5 1220.6 194.6 1223.9 198.2 1224.7 202.5 1224.1 206.1 1219.8 209.8 1216.6 211.4 1210.9 211.4 1206.8 211.4 1202 210.4 1198.9 218.1 1167.2 203.5 1127.4 293.9 1126.8 298.7 1126.6 303.4 1124 305.8 1122.2 304 1115.6 298.9 1111.8 296.7 1092.3 284.6 1084.7 279.9 1012.1 234.7 1061.6 155.8 1073.3 153.8 1078 153.8 1084.1 154 1091.9 155.6 1106.3 159.1 1132.2 169 1152.9 176.7 1162.7 182.2 1169.6 183.8 1181.8 185.6 1194 162.1 1176.9 158.7 1182 150.6 1239.1 74.6 1248.1 82.7 1253.8 89.2 1261.9 93.8 1273.5 99.5 1279.8 104.4 1291.4 96.1 1297.3 91 Z" data-holc_grade="C"/>
<path d="M 940.4 184.5 908.8 163.9 867 134.3 834.7 111.8 849.3 99 857.9 92.9 872.1 87.5 877.2 82.6 881.5 80.2 886 71.1 901 67 935.8 93.6 914.9 142.2 949.9 167.8 940.4 184.5 Z" data-holc_grade="C"/>
<path d="M 1084.7 279.9 1092.3 284.6 1105.7 303.7 1126.1 339.2 1151.8 380.9 1188.4 431.9 1139.7 404.3 1029.8 338.9 998.9 387.6 975.4 428.3 962.3 419.2 943.3 448.7 912.8 428.9 953.1 364.4 989.5 301.2 955 289 863.7 262.2 887.8 225.8 899.4 208.4 911.4 191.7 942.5 212.1 976.1 235.5 1031.9 269.9 1075.9 297 1084.7 279.9 Z" data-holc_grade="C"/>
<path d="M 1756.2 755.3 1745 754.3 1741.7 745.4 1724.9 734.3 1708.1 725.4 1692.3 717.3 1685.9 710.7 1681.9 703.2 1681.9 693.5 1686.5 684.9 1693.9 666.4 1702.5 656.5 1717 641.3 1738.4 625.4 1760 613.7 1773.5 608.4 1788.8 605.8 1800.4 681.3 1756.2 755.3 Z" data-holc_grade="C"/>
<path d="M 1919.3 923.6 1909.1 906.4 1890.8 887.4 1877.8 902.1 1864.3 888.1 1867.7 884.1 1839.7 853.1 1861 832.6 1875 835.9 1879.6 845.8 1896.4 866.3 1909.4 880 1917.5 889.4 1930.5 907.1 1919.3 923.6 Z" data-holc_grade="C"/>
</g>
<g id="D">
<path d="M 1929.1 261.5 1918.9 268.8 1906.3 270 1890 275.3 1870.8 283.8 1853.8 293.1 1850.1 284.6 1848.9 276.5 1850.1 266.4 1854.6 254.6 1859.4 246.5 1859.8 238.8 1859.4 231.9 1855 224.6 1846 219.7 1833 216.1 1816.7 215.7 1830.5 192.6 1867.6 168.7 1917.2 197 1929.1 261.5 Z" data-holc_grade="D"/>
<path d="M 2899.7 1838.4 2876.1 1872.1 2878.9 1876.2 2858.6 1905.4 2841.1 1881.5 2825.6 1866.4 2804 1845.8 2786.4 1829.6 2712.8 1775.6 2584 1678.8 2498 1617.5 2386.4 1537.3 2397.4 1499.1 2366.4 1479.7 2278.8 1443.2 2296.3 1440.8 2317.5 1444.4 2346.8 1449.7 2377.4 1458.2 2416.9 1470.3 2409.2 1480.5 2494.3 1542.5 2629.9 1638.6 2783.1 1754.1 2830.4 1786.5 2899.7 1838.4 Z" data-holc_grade="D"/>
<path d="M 1402.3 885.3 1385.2 889.2 1258.2 809.2 1201.7 895.9 1229.4 953.4 1222.7 961.6 1217.8 973.2 1212.3 983.8 1210.8 996.3 1208.7 1011.2 1208.5 1016.9 1208.4 1022.1 1204.4 1037 1201.3 1048.3 1195.8 1063.8 1194 1077.2 1198.3 1089.1 1204.1 1097.3 1213.2 1104 1225.1 1107 1240.4 1107.3 1252.9 1106.1 1264.8 1104 1269.7 1102.4 1252 1129.5 1232.2 1137.7 1219.6 1154.5 1215.7 1159.6 1207.4 1166.3 1199.8 1168.4 1195.2 1168.1 1190 1165.4 1186.6 1158.1 1180.2 1153.8 1173.5 1157.2 1171.1 1093.9 1173.5 1081.4 1177.5 1047.1 1164.1 988.7 1194.3 939.1 1184.5 909.9 1163.2 892.3 1181.2 871 1180.6 847.9 1206.2 821.1 1227.6 792.5 1240.5 770.9 1298.2 812.3 1305.5 820.5 1402.3 885.3 Z" data-holc_grade="D"/>
<path d="M 1380.9 1060.5 1378.8 1064.4 1370.5 1069 1364.7 1068.1 1356.2 1071.1 1353.4 1073.9 1347.6 1083.3 1340.6 1087.2 1333 1088.5 1323.5 1088.2 1318.3 1087.2 1311.9 1083.6 1309.1 1079.3 1307 1080.2 1306.7 1096.7 1296.3 1082.7 1291.7 1078.4 1282.9 1071.1 1274.3 1067.2 1275.8 1061.1 1281 1055.9 1277.4 1049.8 1249.9 1037 1254.5 1027 1259.7 1029.4 1263 1029.4 1270.7 1026.7 1274 1021.8 1275.5 1017.3 1276.5 1014.5 1280.4 1007.2 1286.2 1004.5 1294.8 1005.1 1300 1008.2 1304 1011.5 1306.7 1017.9 1307.3 1020.6 1347 1041.6 1361.7 1046.2 1372.1 1050.7 1377.3 1055.9 1380.9 1060.5 Z" data-holc_grade="D"/>
<path d="M 1645.2 1197 1637.9 1211.1 1626.1 1205.8 1617 1224 1596.6 1215.7 1590.3 1234.9 1601.7 1238.7 1598.1 1248.1 1586.4 1244.6 1572.9 1280.1 1582.6 1283.9 1589.2 1324.7 1566.3 1324.7 1566.3 1327.7 1570.4 1330.3 1566.6 1338.1 1570.4 1352.6 1548.8 1361.4 1534 1377.7 1459.5 1210.4 1468.1 1210.1 1477.9 1212 1481.8 1213.8 1487 1216.5 1494.1 1219.9 1498 1219.9 1500.2 1219 1503.8 1213.2 1503.8 1208 1505.7 1201.3 1509.9 1193.4 1516.7 1183.1 1524 1170.9 1526.1 1160.9 1526.7 1153.3 1528.9 1146.9 1532.5 1143.8 1536.8 1142.3 1546 1140.5 1551.5 1138.4 1559.4 1130.8 1575.3 1141.4 1573.2 1152 1572.6 1156 1573.8 1160.9 1579 1160.6 1588.7 1158.4 1596.7 1157.8 1604.6 1158.7 1616.5 1166 1628.1 1177.9 1643.7 1195.8 1645.2 1197 Z" data-holc_grade="D"/>
<path d="M 1562.6 490.2 1559.3 458.6 1557.3 440.7 1578.8 437.9 1585 454.5 1588.2 469.1 1598.8 465.1 1601.2 469.1 1606.9 469.9 1622.8 467.9 1648.5 460.6 1670 454.1 1681 454.1 1699.8 454.1 1707.5 448 1707.5 444.4 1693.7 410.7 1689.6 394.5 1680.2 371 1672.5 342.2 1666.4 311.4 1661.9 296 1660.7 276.5 1660.7 264.8 1676.4 268.4 1692.7 264 1696.4 280.2 1729.4 337.7 1771.7 324.4 1778.6 305.3 1792.4 310.6 1803.4 315 1810.8 319.9 1816.9 329.6 1820.1 338.9 1819.3 345 1811.6 354.3 1799.4 365.7 1788.4 371.4 1785.9 378.7 1785.9 388.8 1790.4 395.3 1793.7 402.2 1799.4 413.1 1806.3 441.5 1779.8 450 1750.5 454.5 1749.3 469.1 1746.9 476.8 1700.9 487.8 1634.1 504.8 1621.1 503.6 1603.2 502.8 1578.7 502.4 1565.3 501.5 1562.6 490.2 Z" data-holc_grade="D"/>
<path d="M 940.4 184.5 949.9 167.8 914.9 142.2 935.8 93.6 965.1 63.4 970.6 58.9 973.7 57.7 1049 43.1 1063.8 45.4 1103.4 34.4 1117.4 45.4 1128.8 17 1133.9 20 1153.9 12.5 1179.5 17.4 1186.8 1 1219.4 16.2 1230.6 16 1260.1 21.5 1255.8 34.7 1296.7 59.2 1293.1 63.6 1285.1 68.5 1296.7 74.2 1304.5 61.2 1312.8 66.7 1305.7 81.7 1297.3 91 1291.4 96.1 1279.8 104.4 1273.5 99.5 1261.9 93.8 1253.8 89.2 1248.1 82.7 1239.1 74.6 1182 150.6 1176.9 158.7 1194 162.1 1181.8 185.6 1169.6 183.8 1162.7 182.2 1152.9 176.7 1132.2 169 1106.3 159.1 1091.9 155.6 1084.1 154 1078 153.8 1073.3 153.8 1061.6 155.8 1012.1 234.7 992 221.7 967.2 207.1 940.4 184.5 Z" data-holc_grade="D"/>
<path d="M 911.4 191.7 899.4 208.4 887.8 225.8 863.7 262.2 808.2 241.9 754.8 222.4 688.9 197.4 690.7 194.7 704.2 194.1 723.4 191.7 744.8 189.5 752.1 186.8 764.3 178.6 785.4 161.9 785.7 156.7 788.4 150 804 138.2 817.4 127.8 857.1 155.8 911.4 191.7 Z" data-holc_grade="D"/>
<path d="M 863.7 262.2 955 289 989.5 301.2 953.1 364.4 912.8 428.9 899.2 421 883 408.5 874.1 399.4 859.2 389.9 840 376.9 821.3 364.7 800.3 343.1 823.5 297.8 790.8 271.3 808.2 241.9 863.7 262.2 Z" data-holc_grade="D"/>
<path d="M 1340.3 648.2 1346.9 636 1358.7 618.8 1379 603.6 1394.5 597.7 1398.1 610.7 1410.8 624.4 1429.9 641.8 1443.4 652 1465.8 671.7 1456.1 683.7 1498.9 745.2 1476 763.2 1456.6 778.4 1435.2 756.1 1415.7 736.4 1387.9 704.7 1365.8 673 1340.3 648.2 Z" data-holc_grade="D"/>
<path d="M 1788.8 605.8 1773.5 608.4 1760 613.7 1738.4 625.4 1717 641.3 1702.5 656.5 1693.9 666.4 1686.5 684.9 1681.9 693.5 1681.9 703.2 1664.3 714.8 1641.4 725 1682.7 762.7 1722.9 801.2 1750.1 828.6 1719.6 857 1782.2 919.1 1757.8 948 1728.7 921.1 1713 939.6 1611.2 832.4 1627.4 818.5 1626.9 814.9 1616 806.3 1571.7 746 1539.6 696.6 1523.9 678.6 1504.6 659.6 1438.8 607.6 1425.7 590.6 1449.4 588.6 1479.9 589.1 1511.2 592.2 1519.4 591.7 1531.6 593.2 1546.4 593.4 1563.7 595.5 1572.1 593.4 1575.6 627.4 1604.9 625.1 1609 650.2 1648.7 646.9 1670.3 645.4 1685.6 642.1 1698.8 640.8 1720.2 610.4 1725.7 604.8 1733.3 601.5 1745 597.2 1757.5 595.2 1774 591.9 1785.5 590.9 1788.8 605.8 Z" data-holc_grade="D"/>
<path d="M 1664.3 714.8 1681.9 703.2 1685.9 710.7 1692.3 717.3 1708.1 725.4 1724.9 734.3 1741.7 745.4 1745 754.3 1756.2 755.3 1767.6 763.4 1791.8 778.9 1821.1 793.3 1864.1 826.3 1861 832.6 1839.7 853.1 1867.7 884.1 1864.3 888.1 1877.8 902.1 1890.8 887.4 1909.1 906.4 1919.3 923.6 1910.2 935.8 1915.5 943.4 1905.8 962.4 1860 906.9 1818.3 853.1 1795.9 835.4 1773.7 817.7 1713.2 760.4 1664.3 714.8 Z" data-holc_grade="D"/>
<path d="M 2241.7 1211 2243 1193.5 2201.7 1186.9 2175 1177.5 2179.6 1169.2 2181.1 1154.5 2214.2 1163.2 2250 1172.9 2289.4 1183.5 2304 1190.2 2311.7 1189.6 2315.9 1185.9 2337.9 1157.3 2334.8 1094.1 2330.6 1073.4 2322.9 1065.5 2321.4 1036 2341.9 1047.2 2346.4 1039.3 2403.2 1053.3 2413.9 1062.4 2419.4 1062.4 2410 1081.6 2403.3 1097.4 2400.5 1104.4 2401.7 1111.4 2404.8 1115 2418.5 1120.8 2418.9 1130.8 2400.8 1153.7 2402.4 1171 2398.1 1175.9 2384.1 1186.5 2370.3 1197.8 2355.7 1217.9 2374.6 1222.1 2368.8 1232.5 2362.7 1230.3 2346.2 1227 2316 1218.8 2307.7 1215.2 2301 1215.2 2284.2 1220 2241.7 1211 Z" data-holc_grade="D"/>
</g>
</svg>