<?xml version="1.0"?>
<svg xmlns="http://www.w3.org/2000/svg" version="1.2" baseProfile="tiny" width="3000" height="3589" viewBox="0 0 3000 3589" stroke-linecap="round" stroke-linejoin="round">
<g id="C">
<path d="M 751.8 1635.9 663 1551.8 507.5 1534.1 409.8 1538.5 831.8 604.9 851.3 558.8 1116 790.8 1267 897 1235.9 932.4 1355.8 1034.1 1342.5 1069.5 925 1144.7 902.8 1197.8 898.4 1255.4 1360.2 1189 1391.3 1383.7 805.1 1450 751.8 1635.9 Z" data-holc_grade="C"/>
<path d="M 1817.7 2051.9 1413.5 2379.3 1144.6 2311.7 1306.9 2007.6 1586.7 1777.5 1631.1 1799.6 1817.7 2051.9 Z" data-holc_grade="C"/>
<path d="M 1666.6 941.2 1542.3 1162.5 1644.4 1281.9 2013.1 1578.4 1919.8 1666.9 2075.3 1799.6 1817.7 2051.9 1631.1 1799.6 1586.7 1777.5 1306.9 2007.6 1144.6 2311.7 1120.4 2357.2 885 2312.9 782.8 2158 827.2 2118.2 587.4 1795.2 751.8 1635.9 805.1 1450 1391.3 1383.7 1360.2 1189 898.4 1255.4 902.8 1197.8 925 1144.7 1342.5 1069.5 1355.8 1034.1 1235.9 932.4 1267 897 1116 790.8 851.3 558.8 1086.7 1 1457.9 520.9 1542.3 697.9 1648.9 777.5 1666.6 941.2 Z" data-holc_grade="C"/>
<path d="M 1853.2 3038.7 1480.1 2945.8 1151.4 2826.3 1111.4 2901.5 1075.9 2888.3 1013.7 3038.7 929.3 3162.6 871.6 3118.4 938.2 3007.7 1018.2 2742.2 1389.4 2471 1533.4 2565.2 1648.9 2698 1751.1 2870.6 1853.2 3038.7 Z" data-holc_grade="C"/>
</g>
<g id="D">
<path d="M 1389.4 2471 1018.2 2742.2 938.2 3007.7 871.6 3118.4 929.3 3162.6 1013.7 3038.7 1075.9 2888.3 1111.4 2901.5 1151.4 2826.3 1480.1 2945.8 1853.2 3038.7 1955.4 3273.3 1928.8 3348.5 1666.7 3273.3 1613.4 3503.4 1711.1 3525.6 1644.5 3587.5 911.5 3445.9 698.3 3321.9 556.2 3295.4 391.8 3246.7 343 3153.7 63.1 3321.9 1 2750.9 782.8 2158 885 2312.9 1120.4 2357.2 1144.6 2311.7 1413.5 2379.3 1817.7 2051.9 2075.3 1799.6 2381.7 1458.9 2999 1600.4 2252.9 2043 2075.3 2202.3 1893.2 2312.9 1702.2 2392.6 1484.6 2401.5 1389.4 2471 Z" data-holc_grade="D"/>
</g>
</svg>