<?xml version="1.0"?>
<svg xmlns="http://www.w3.org/2000/svg" version="1.2" baseProfile="tiny" width="3000" height="2436" viewBox="0 0 3000 2436" stroke-linecap="round" stroke-linejoin="round">
<g id="A">
<path d="M 1561.9 544.3 1489.6 801 1268 729 1322.4 554.9 1360.1 433.9 1404.5 458.2 1455.6 486.1 1561.9 544.3 Z" data-holc_grade="A"/>
<path d="M 1360.1 433.9 1322.4 554.9 1127.3 439.6 1138.6 183.1 1281.1 151.9 1317.9 379.3 1324.4 419.6 1360.1 433.9 Z" data-holc_grade="A"/>
<path d="M 1809.3 317.4 1892.5 469.6 1829.1 509.5 1739.6 565.8 1726.2 539.6 1706.2 553.9 1698 579.1 1561.9 544.3 1455.6 486.1 1422.4 191.8 1541.3 181.8 1537.5 131.3 1588.6 183.7 1641.7 188.4 1665.1 367.8 1639 368.9 1636 399.9 1662.6 441.9 1706 410.9 1695.3 392.3 1809.3 317.4 Z M 1404.5 458.2 1360.1 433.9 1351.3 375 1317.9 379.3 1281.1 151.9 1268.4 44.9 1348.3 74.6 1373.7 193.6 1404.5 458.2 Z" data-holc_grade="A"/>
<path d="M 2111.3 413 2078.8 360.2 2015.7 395.4 1989 348.7 1938.3 379.7 1932.1 270.2 1914.9 246.5 1897.2 260.3 1882 243.6 1809.3 317.4 1791.7 169.8 1758.8 170.5 1769.3 148.2 1770.8 122.2 1764.8 88 1747.6 56 1736.4 38.2 1741.7 15.1 1761.1 1 1795.4 1.7 1831.2 13.6 1877.5 28.5 1925.3 58.2 1942.5 56 1968.6 100.6 2203.7 56.7 2211.2 90.9 2196.2 116.2 2182.1 150.4 2176.8 176.4 2120.9 206.2 2175.3 304.9 2192 297.3 2210.2 305.4 2258.4 392 2278.5 402 2364 357.7 2382.2 386.3 2162.4 504.3 2111.3 413 Z" data-holc_grade="A"/>
<path d="M 2111.3 413 1983.7 488.7 1938.3 379.7 1989 348.7 2015.7 395.4 2078.8 360.2 2111.3 413 Z" data-holc_grade="A"/>
<path d="M 2408 649.4 2323.9 688.5 2254.2 536.7 2398.4 471 2423.3 493.8 2432.3 508.1 2426.6 527.6 2423.3 548.5 2431.9 571.4 2441 595.6 2451 610.4 2408 649.4 Z" data-holc_grade="A"/>
</g>
<g id="B">
<path d="M 453.6 2028.8 299.7 2153 267.6 2179 318.4 2240 262.4 2285.3 163 2338.8 173.5 2379 41.3 2434.8 32.4 2419.9 19.6 2422.1 1 2263.7 21.2 2181.1 90.7 2150.6 116 2208.7 408.1 1976.7 453.6 2028.8 Z" data-holc_grade="B"/>
<path d="M 1360.2 1659.2 1201.9 1424.9 1231 1418.3 1338.6 1445.8 1300.5 1373.6 1353.5 1349.8 1336.3 1321.6 1388.6 1296.3 1352.7 1227.9 1267.6 1272.5 1240.8 1228.6 1246.7 1214.5 1329.6 1175.1 1269.1 1058.3 1337.8 1079.9 1353.5 1083.6 1405 1108.1 1443.8 1147.6 1474.4 1216.7 1425.9 1244.2 1446.1 1283.7 1500.6 1250.9 1529 1266.5 1558.8 1271.8 1599.9 1277.7 1678.3 1421.2 1751.5 1380.3 1696.9 1279.2 1681.3 1198.9 1691.7 1178 1772.3 1136.4 1797.7 1137.1 1855.2 1181 1885.1 1233.1 1877.6 1265.8 1810.4 1300.7 1770.1 1361.7 1766.4 1395.9 1864.2 1351.3 1891.1 1396.7 1686.5 1500.8 1673.1 1477.8 1654.4 1489.7 1666.3 1514.9 1587.9 1553.6 1576.7 1531.7 1627.4 1510 1598.2 1453.4 1548 1477.6 1565.5 1509.7 1535.7 1523.1 1557.3 1569.2 1360.2 1659.2 Z M 1364.5 1598.1 1377.4 1625.2 1411.8 1606.2 1398.5 1584.3 1364.5 1598.1 Z" data-holc_grade="B"/>
<path d="M 1938.3 379.7 1983.7 488.7 2111.3 413 2162.4 504.3 2009.5 576.7 2013.4 586.7 1996.2 595.7 2002.9 611.9 1921.6 660 1912.1 642.8 1934.1 630.9 1894.4 563.8 1809.4 613.3 1746.3 577.7 1739.6 565.8 1829.1 509.5 1847.6 542 1913 502.5 1892.5 469.6 1809.3 317.4 1882 243.6 1897.2 260.3 1914.9 246.5 1932.1 270.2 1938.3 379.7 Z" data-holc_grade="B"/>
<path d="M 2115.2 637.1 2139.6 625.5 2204 758.4 2320.1 702.7 2333 732.2 2068.9 855.2 2073.1 817 2078.4 784.6 2074.1 750.8 2066.9 721.8 2137.1 685.6 2115.2 637.1 Z" data-holc_grade="B"/>
<path d="M 2512.6 658.9 2549 734.6 2624 700.8 2656.5 744.5 2651.8 936.8 2618.8 916.4 2434.4 1006.3 2393.6 918.5 2409 906.5 2400.2 886.7 2416.8 877.8 2412.9 870.1 2493.5 728.8 2468.8 715.4 2445.7 760.8 2382.2 790.5 2372.5 767.5 2542.7 587.1 2552.3 619.4 2538 628 2512.6 658.9 Z" data-holc_grade="B"/>
<path d="M 2865.3 818.3 2773.5 868.5 2627.1 586.7 2805.4 469.2 2957.1 768.1 2865.3 818.3 Z" data-holc_grade="B"/>
</g>
<g id="C">
<path d="M 299.7 2153 453.6 2028.8 489.5 2062.2 554.4 2041.4 588 2087.5 734.4 1990.9 718 1963.4 809.8 1904.6 828.5 1927.7 888.3 1885.7 948 1843.6 977.1 1888.3 951.7 1904.6 997.3 1970.1 464.7 2333.7 412.5 2278.7 488.7 2216.9 449.9 2170.1 372.9 2234.8 299.7 2153 Z M 807.7 2002.1 836.4 2047.4 941.6 1976.4 913.4 1932.2 807.7 2002.1 Z" data-holc_grade="C"/>
<path d="M 1043.3 1245.6 970.5 1237.5 970.5 1138.6 1012.3 889.5 1010.9 668.6 1226.6 775.7 1205.7 846.4 1266.2 868 1222.1 1034.5 1075 981 1045.2 1050.9 1148.9 1094 1120.6 1122.3 1043.3 1245.6 Z" data-holc_grade="C"/>
<path d="M 1360.2 1659.2 1236.2 1747 1050.9 1476.1 1095.1 1448 1201.9 1424.9 1360.2 1659.2 Z" data-holc_grade="C"/>
<path d="M 2014.9 716.9 2022.5 712.3 2027.2 734.7 2028.2 759.4 2028.7 782.3 2027.3 806.5 2022 832.7 2012 837 2019.1 848.4 1976.6 863.2 1980 874.6 1886.3 905.5 1827.1 798 1789.3 818.9 1806.5 855.1 1669.4 930.3 1695.7 843.2 1829.9 692.8 1866.2 718.5 1902.1 700.9 1892 675.2 1921.6 660 1963.2 748 2014.9 716.9 Z" data-holc_grade="C"/>
<path d="M 2235.1 950.2 2287.2 1058.7 2303.9 1051.6 2309.2 1063 2346.5 1048.2 2345 1061.1 2194.5 1131.6 2190.2 1119.7 2178.8 1125.9 2132.4 1020.7 2070.3 1052.6 2039.2 994 2240.4 895 2262.8 935.9 2235.1 950.2 Z" data-holc_grade="C"/>
<path d="M 2773.5 868.5 2865.3 818.3 2999 1107.1 2917.6 1151.8 2773.5 868.5 Z" data-holc_grade="C"/>
</g>
<g id="D">
<path d="M 948 1843.6 888.3 1885.7 759.1 1653.2 808.4 1616.8 888.3 1738.8 859.9 1754.4 878.6 1784.1 904.7 1770 948 1843.6 Z" data-holc_grade="D"/>
<path d="M 1043.3 1245.6 1098.1 1251.7 1052.6 1312.6 968.2 1301.5 970.5 1237.5 1043.3 1245.6 Z" data-holc_grade="D"/>
<path d="M 2022.5 712.3 2014.9 716.9 2007.2 666.4 2026.4 653.6 2039 699.6 2022.5 712.3 Z M 2115.2 637.1 2062.5 662.1 2023.4 582 2101 545.2 2139.6 625.5 2115.2 637.1 Z" data-holc_grade="D"/>
</g>
</svg>