<?xml version="1.0"?>
<svg xmlns="http://www.w3.org/2000/svg" version="1.2" baseProfile="tiny" width="3000" height="1830" viewBox="0 0 3000 1830" stroke-linecap="round" stroke-linejoin="round">
<g id="A">
<path d="M 282.6 919.2 281.9 953.9 132.3 949.2 134.9 905.2 98.5 890.9 68 877.5 42.3 855.4 33.9 844.8 20.3 831.8 6.7 820.6 2.2 815.7 1 805.2 6.2 806.3 7.4 808.7 11 817.2 15.4 818.9 22.4 821.1 28.4 825.7 33 833.5 38.1 839.5 42.4 841.4 47 842.4 52.1 850.2 56.4 858.4 65.6 866.9 73.8 873.7 80.6 875.8 89.8 880 105.3 885.3 118.4 889.2 124.6 893.7 132.8 895.8 140.6 897.9 150.6 901.3 155.8 900.4 153.8 944.5 240.1 945.3 241.1 923.6 234.5 921.2 234.2 911.2 243.3 912.4 256 914.9 271.1 915.5 278.7 917.7 282.6 919.2 Z" data-holc_grade="A"/>
<path d="M 812.7 893.2 811 895.8 752.6 899.6 752.6 908.1 740.7 910 740.2 916.2 735.9 917.2 735.1 919.9 730.3 919.1 728.1 921.1 729 933.8 723.5 933.1 718.4 937.5 713 938.2 709.2 941.5 705.8 942.7 701.4 943.5 698.5 946.3 692.5 942.9 686.5 931.7 683.8 925.1 682.9 921.3 684.2 921.3 687.3 922.4 687.1 920.3 685.8 916.4 685.1 913.6 683.1 911.7 680.2 912.1 678.9 914.1 676.4 915 662.8 897.4 661.5 894.1 668.4 899.2 674.8 900.1 683.1 901.6 690 900.2 694 900.9 701.1 902.2 708.4 902 721.5 896.1 737.3 889.7 749.8 885.6 760.8 884.4 766 883.5 778 877.5 788.9 874.8 796 875.7 801.5 876.3 814.9 874.6 811.8 882.8 812.7 893.2 Z" data-holc_grade="A"/>
<path d="M 858.9 894.4 837.7 893 836.5 896.1 819.5 896.1 819.7 892.5 812.7 893.2 811.8 882.8 814.9 874.6 825.6 873.4 833.3 873.2 841.6 873 859.8 872.7 858.9 894.4 Z" data-holc_grade="A"/>
<path d="M 982.8 894.5 984.2 913.2 981.5 913 969.8 908.7 953.3 903.9 945.4 902.7 938.7 902.5 931.3 901 922.9 900.1 915.8 898.8 905.5 898.5 895.5 897.5 883.5 895.5 883.9 872.7 889.7 874.5 898.6 874.4 906.6 874 914.2 873.8 922.2 873.5 929.5 872.8 935.8 871.7 943.3 870.6 952.2 871.9 958.7 874.1 962 877.3 966.4 883.5 968.9 889.1 973.3 891.3 978.5 892.4 982.8 894.5 Z" data-holc_grade="A"/>
<path d="M 883.5 895.5 895.5 897.5 905.5 898.5 915.8 898.8 922.9 900.1 931.3 901 938.7 902.5 945.4 902.7 953.3 903.9 969.8 908.7 981.5 913 982.2 917.1 982.1 919.6 944.3 908.3 917.6 905.7 916.3 924.2 893.6 924 892.4 903.5 872.2 902.2 872.6 895.3 883.5 895.5 Z" data-holc_grade="A"/>
<path d="M 1231.3 1207 1229.7 1210.7 1229.8 1253.2 1196.9 1252.6 1189 1252.5 1188.4 1205.4 1203.1 1204.4 1203.6 1200 1228.8 1200.2 1231.6 1206.2 1231.3 1207 Z" data-holc_grade="A"/>
<path d="M 1389.7 1302.3 1419.1 1303.3 1419.6 1344.1 1417.1 1348.9 1417.6 1353.3 1390.2 1350.1 1389.7 1302.3 Z" data-holc_grade="A"/>
<path d="M 1128.5 1491.8 1082.9 1489.9 1077.9 1489.5 1077.7 1486.7 1079.5 1462.6 1082.6 1459.9 1089.3 1457 1096.5 1456.7 1097.2 1446.4 1113.5 1450.4 1127.9 1454 1131.3 1454.3 1138.2 1454.5 1147 1456.6 1152.9 1460.7 1154.9 1463.4 1154.8 1466.6 1128.5 1491.8 Z" data-holc_grade="A"/>
<path d="M 1061.7 1567.2 1060.6 1568.3 1057.1 1570.9 1053.1 1568.5 1051.4 1567.9 1048.8 1566.9 1040.5 1570 1036.5 1570 1036.7 1566.3 1039.3 1558.3 1041.2 1555 1049.1 1551.5 1056.1 1548.2 1056 1544.3 1054.8 1541.3 1061.7 1537.5 1065.7 1543.1 1071.1 1544.5 1079.5 1543.7 1079.8 1548.4 1077.3 1552 1069.1 1559.4 1061.7 1567.2 Z" data-holc_grade="A"/>
<path d="M 1239.6 1594.8 1219.4 1592.7 1213.8 1598.5 1200.5 1605 1193.2 1607.4 1189.1 1610.3 1188.6 1629.6 1134.4 1629.6 1135.1 1585.2 1194.4 1585.4 1194.3 1579.5 1239.8 1580.2 1239.6 1594.8 Z" data-holc_grade="A"/>
<path d="M 2054.5 1136.5 2116.4 1136.2 2116.7 1174.5 2055.8 1175.8 2054.5 1136.5 Z" data-holc_grade="A"/>
<path d="M 664.7 916.7 663.4 920.5 664.6 927.7 669.3 938.8 670.4 942.7 646.3 945.7 639.9 946 632.8 945.2 629.2 941.9 625.2 944 626.4 950.5 625.4 955.3 622.9 957.1 619.4 959.5 609.6 961.9 565.5 974 560.5 976 556.7 977.3 537.8 971.9 527.9 970.3 513.1 971.5 482.2 971.3 483.3 959.7 493 960.9 498.9 959.4 508.3 959.9 514.3 959.9 519.3 957.2 531 955.1 548.1 950.4 564 946.9 590.7 939.5 649.4 911.7 649.1 909 648.6 904.6 651.7 903.9 652.7 906.7 655.3 907.2 659.8 908.7 664.7 916.7 Z" data-holc_grade="A"/>
<path d="M 2147 1086.7 2201.3 1086.7 2218.6 1085.8 2219.3 1092.2 2209.9 1092.5 2209.4 1135.7 2155.2 1136 2116.4 1136.2 2054.5 1136.5 2053.9 1087.3 2063.6 1086.1 2081.8 1085.2 2099 1084.5 2115.7 1085.7 2135.1 1085.7 2147 1086.7 Z" data-holc_grade="A"/>
<path d="M 2126.5 1034 2136.8 1037.1 2142 1041.3 2146.8 1045.2 2150.8 1047.3 2150.8 1049.8 2148.4 1053.4 2147.2 1058.2 2147.2 1062.1 2146.1 1068.5 2147 1086.7 2135.1 1085.7 2115.7 1085.7 2099 1084.5 2081.8 1085.2 2063.6 1086.1 2053.9 1087.3 2054.5 1084.3 2054.8 1074.6 2049 1074.6 2033.9 1073.8 2023.6 1071.4 2014.9 1064.5 2026.2 1051 2011.1 1035.3 2013 1032.5 2124.8 1036.1 2126.5 1034 Z" data-holc_grade="A"/>
<path d="M 1956.8 919.8 1958.3 934.6 1964.4 938.3 1979.6 940.1 1979.8 940.1 1986.2 940.9 1984.5 963.8 1988.6 969.9 1993.3 986.1 1996.2 993.9 2000 1001.2 2013.1 1015.9 2017.5 1020.8 2016 1028.1 2013 1032.5 2011.1 1035.3 2026.2 1051 2014.9 1064.5 2012 1068.1 1993.3 1049.6 1993.6 1037.1 1954.4 1039.7 1951.4 1039.7 1951.7 1033.1 1953.1 994.8 1949 937.8 1916.9 934.1 1907.5 933.2 1906 895.1 1935.6 910.5 1940.8 910.8 1944.6 916 1951.3 919.8 1956.8 919.8 Z" data-holc_grade="A"/>
<path d="M 2200.8 1062.3 2201.3 1086.7 2147 1086.7 2146.1 1068.5 2185.4 1070.5 2190.9 1065.8 2200.8 1062.3 Z M 2126.5 1034 2124.8 1036.1 2013 1032.5 2016 1028.1 2017.5 1020.8 2021.5 1015.9 2026.8 1015.9 2026.2 1009.5 2041.9 1011 2048.9 1017 2055.6 1019.9 2064.9 1017.9 2077.1 1018.2 2080.3 1021.9 2086.4 1026.5 2099.2 1029.1 2116.1 1031.1 2126.5 1034 Z M 1996.2 993.9 1993.3 986.1 1988.6 969.9 1984.5 963.8 1986.2 940.9 1979.8 940.1 1989.7 940.3 1997.3 946.7 2004 957.1 2004 966.1 2003.7 975.9 2005.2 986.4 2005.2 993.6 1996.2 993.9 Z M 2200.8 1062.3 2197.6 1059.4 2196.7 1040.6 2185.3 1041.8 2174.3 1035.1 2169.3 1036.3 2164.4 1036.3 2162.3 1029.6 2156.8 1026.4 2127.4 1025.6 2104.7 1023.6 2083.5 1015.5 2071 1012.4 2064.3 1011.5 2060.8 1011.5 2055.8 1005.7 2048.6 1004 2033.1 1001.1 2019.2 998.2 2016.8 992.2 2015.4 983.2 2018 974.2 2017.7 967.2 2016.8 959.1 2023.2 954.2 2034 957.9 2042.7 957.9 2054 962.8 2068.9 966 2075.6 968.9 2088.4 975 2100.3 978.4 2118.3 980.1 2129.1 983.9 2136.1 982.4 2150.3 981.8 2161.7 986.2 2185.8 991.1 2194.3 991.3 2193.7 988.1 2181.5 985.8 2177.7 983.8 2179.1 968.8 2179.1 961.5 2170.7 960.4 2157 959.8 2143.6 961.6 2133.1 962.7 2128.8 960.7 2116.3 958.1 2116.6 942.4 2135.1 941.8 2135.3 933.9 2147.8 934 2198 933.6 2200.8 1062.3 Z M 1979.6 940.1 1964.4 938.3 1958.3 934.6 1956.8 919.8 1966.7 926.1 1974.9 935.1 1979.6 940.1 Z" data-holc_grade="A"/>
<path d="M 2218.6 1085.8 2201.3 1086.7 2200.8 1062.3 2198 933.6 2247.9 933.2 2247.4 937.5 2294.7 937.8 2298.9 938.7 2349.2 938.9 2349.4 1037.6 2275.5 1036.2 2267.3 1025 2256.3 1023.8 2249.7 1035 2221.2 1037.2 2218.6 1085.8 Z M 2316.4 956.1 2315.3 958.9 2314.5 962.3 2316.6 965.7 2319.6 968.4 2322.6 969.9 2326.9 969.9 2330.3 967.7 2332.7 964.3 2333 961.5 2332.2 959.8 2331.1 957.6 2329.4 955.8 2326.5 954.5 2323.1 953.9 2321.6 953.7 2318.5 954.7 2316.4 956.1 Z M 2235.9 963.4 2231.7 962.5 2228.2 962.7 2220.3 961.6 2216.2 957.9 2214.3 961.7 2210 968.6 2210.8 980.1 2237 979.3 2236.4 969.5 2235.9 963.4 Z" data-holc_grade="A"/>
<path d="M 2201.7 837.3 2202 849 2248.1 848.1 2248.1 839 2263.5 838.4 2264.7 850.5 2261.4 856.5 2257.2 862.2 2251.4 865.9 2247.8 870.7 2247.9 933.2 2198 933.6 2147.8 934 2147.7 890.8 2152.6 890.6 2153.6 888.5 2154.7 885.3 2153.2 864.8 2156.5 854.8 2157.1 847.2 2158.9 839.5 2157.5 837.2 2201.7 837.3 Z M 2233.1 898.4 2231 895.3 2227.5 892.1 2225.7 890.4 2225.1 894.2 2224.9 899.3 2223 903.1 2219.9 907.8 2216.2 911.7 2213.3 915.4 2210.6 920.3 2211.3 923.4 2213.3 926.4 2216.3 927.3 2220 927 2221.3 927 2229.4 920 2235.7 914.9 2242.7 913.7 2243.1 899.3 2239.5 899.5 2233.1 898.4 Z" data-holc_grade="A"/>
<path d="M 2396 739.2 2395.8 758.5 2382.5 759.5 2382.5 755.3 2378.3 753.7 2373 752.4 2372.1 749.5 2366.8 749.5 2362.3 749.7 2361.2 749.7 2359 743.9 2358.1 742.5 2355.4 741.8 2353.2 738 2352.3 735.6 2344.1 734 2341.9 734.2 2340.8 731.7 2339.6 727.7 2335.7 725.3 2330.4 725.7 2330.4 712.9 2347.5 713.2 2372 713.1 2390 712.6 2390.8 720 2396.2 718 2396 739.2 Z" data-holc_grade="A"/>
<path d="M 2166 754 2169.7 758.4 2173.7 760.9 2174.1 779.7 2150.8 778.3 2127.5 778 2101.7 777.3 2101.6 709.2 2099.1 688.2 2093.2 676.7 2104.9 678.1 2114.3 678.8 2119 673.7 2123.8 671.2 2133.2 667.9 2146.3 666.1 2149.2 670.4 2149.2 680.2 2141.6 705.6 2143.4 707.7 2153.6 709.5 2150.8 754.4 2166 754 Z" data-holc_grade="A"/>
<path d="M 2093.2 676.7 2099.1 688.2 2101.6 709.2 2093.3 709.2 2088.9 710.3 2086.4 705.6 2069.7 712.5 2062.5 716.1 2054.4 720.2 2047.5 722.7 2046.8 727.8 2037 730.3 2030.5 730.7 2027.9 725.3 2023.5 708.6 2021.7 703.5 2020.2 690.9 2050.4 691.6 2050.6 644.5 2051.1 640.6 2059.1 641.2 2064.1 648.5 2070.7 642 2079 650.3 2084.1 659.3 2089.2 670.2 2093.2 676.7 Z" data-holc_grade="A"/>
<path d="M 2050.6 644.5 2050.4 691.6 2020.2 690.9 2008.9 648.9 2013.8 644.3 2031.7 643.8 2050.6 644.5 Z" data-holc_grade="A"/>
<path d="M 621.6 1000.3 579.7 1024.8 562.2 1035.1 555.7 1035.4 552.1 1020.8 547.3 997.4 513.3 998.1 513.1 971.5 527.9 970.3 537.8 971.9 556.7 977.3 560.5 976 565.5 974 609.6 961.9 619.4 959.5 617.6 963 617 968.5 617.4 974.3 619.3 979.3 618.2 985.8 616.6 995.3 620.1 998.9 621.6 1000.3 Z" data-holc_grade="A"/>
<path d="M 2147.1 151.6 2163 137.8 2180.3 160.4 2164.5 173.1 2147.1 151.6 Z" data-holc_grade="A"/>
<path d="M 2183.7 116.3 2193.1 107.6 2201.1 101.3 2209.4 90.2 2217.4 86.2 2236.3 109.9 2233.9 116.9 2205.5 140.1 2203.5 138.3 2183.7 116.3 Z" data-holc_grade="A"/>
<path d="M 627.2 1006 634.8 1008.9 641.9 1011.2 652.8 1012.7 670.7 1013.3 712.5 1015.2 713.9 1005.6 714.9 1003.9 717.9 1003.9 722.6 1005.8 729 1010.4 720 1030.9 719.7 1039.8 708.8 1038.9 708.2 1026.3 673.6 1025.2 667.2 1042.7 665.4 1042.9 658.3 1042.5 646.7 1082.4 628.1 1087.3 627.2 1006 Z" data-holc_grade="A"/>
<path d="M 650.5 1158.9 648.7 1132.5 695 1132.6 695.1 1128.8 706.6 1129.3 706.9 1157.2 701.9 1158 696.6 1158.4 692.2 1160.4 687.3 1161.9 680.8 1163.5 674.6 1164.7 652.6 1165.6 650.5 1158.9 Z" data-holc_grade="A"/>
<path d="M 508 1292.8 508.6 1258.6 515.3 1253.7 528.2 1245.9 541.6 1241.6 560.2 1235 567.2 1227.4 568 1239.3 583.8 1239.6 583.7 1251.1 575.1 1252.9 572.8 1253.9 569.6 1260.4 550.2 1260.8 548 1262.8 547.1 1267.5 545.2 1270.4 545.6 1277 547.5 1280 552.4 1279.2 553 1274 554.7 1272.3 557.1 1271.2 566.7 1271 570.1 1268.5 573.5 1265.4 578 1261 582.2 1259.3 583.7 1259.3 583.6 1295.6 508 1292.8 Z" data-holc_grade="A"/>
<path d="M 806.6 1112.3 803.8 1169.9 794.1 1170.8 782.9 1175.6 780.2 1175.6 778.8 1167.4 775.4 1166.4 773.2 1168.6 772.7 1176.1 761.6 1174.6 756.7 1195.2 762.8 1195.6 762 1207 758.1 1220.3 754.2 1218.8 744.7 1258.2 734 1258.9 734 1253.6 732.6 1241 730.9 1226.8 729 1218.1 729 1207.4 730.5 1203.3 731.5 1195.1 739.5 1192 739.5 1190.5 725.2 1188.6 728.1 1184.7 732 1182.8 735.9 1177.5 740.7 1178.9 740.5 1168.1 747.5 1163.5 757.5 1157 763.6 1149 765 1143.2 765.1 1117.9 758.3 1108.4 761.5 1101 773.8 1093.5 775.3 1088.9 787.3 1085.9 786 1102.9 783.7 1109.5 784.3 1111.3 806.6 1112.3 Z" data-holc_grade="A"/>
<path d="M 852.2 1048.4 852.7 1054.7 841.8 1053.8 839.8 1060.5 812.7 1061.2 812.1 1082.9 831 1083.7 835.2 1084.2 835.9 1087.8 836.7 1091.8 838.3 1098.3 840.1 1103.2 845.2 1108.3 851.7 1109.2 851.3 1124.3 853 1127.7 854.2 1130.4 844.8 1136.2 843.7 1135.9 840.1 1129.5 837.9 1125.2 836.6 1120.6 832.2 1120.3 832.5 1109.1 829.4 1105.2 828.1 1106.7 809.4 1107.2 806.6 1112.3 784.3 1111.3 783.7 1109.5 786 1102.9 787.3 1085.9 787.5 1083.1 786.8 1077.4 783.7 1073.1 780.1 1069.2 777.6 1065.8 780.2 1061.3 803.8 1061.2 805.3 1048.7 832.4 1047.8 852.2 1048.4 Z" data-holc_grade="A"/>
<path d="M 822.8 1013.9 834.6 1014.1 832.4 1047.8 805.3 1048.7 803.8 1061.2 780.2 1061.3 777.6 1065.8 767.6 1061.6 744 1061.2 743.1 1051.8 741.6 1045.8 741.5 1036.4 750.8 1005.1 793.7 1006.3 806.2 1008.6 805.5 1035.1 822.2 1035.1 822.8 1013.9 Z" data-holc_grade="A"/>
</g>
<g id="B">
<path d="M 282.6 919.2 289.6 921.5 301.6 924.4 311 925.9 321.9 927.8 329.9 930.7 333.9 933.6 339.4 935 347.4 935.1 354.3 934 362.6 930.8 378.3 935.1 386.2 937 405.1 943.9 413.9 945.4 416.4 944.7 420 947.6 433.1 950.1 439.3 953.4 437.3 1003.4 109.4 997.8 110.2 988.3 109.1 983.3 107.7 952.1 61.2 949.1 61.3 929.2 74.4 929.2 74 921.2 62.1 911.8 62.1 895.1 43.6 895.1 41.7 911 17.4 912 19.7 871.4 32.8 871.5 32.8 864.2 9.2 844.6 20.3 831.8 33.9 844.8 42.3 855.4 68 877.5 98.5 890.9 134.9 905.2 132.3 949.2 281.9 953.9 282.6 919.2 Z" data-holc_grade="B"/>
<path d="M 896.3 1005.2 895.1 1048.4 870.5 1048.4 852.2 1048.4 832.4 1047.8 834.6 1014.1 822.8 1013.9 823.1 1006.3 838.4 1004.3 863.8 1004.6 896.3 1005.2 Z" data-holc_grade="B"/>
<path d="M 823.1 1006.3 822.8 1013.9 822.2 1035.1 805.5 1035.1 806.2 1008.6 793.7 1006.3 750.8 1005.1 752.8 996.6 749.6 988.1 745.6 984.6 740.7 978.8 739.8 960.5 741.5 958.1 744.6 960.3 743.9 973 750.4 980.1 769.6 979.9 770.5 978.2 771.1 956.9 808.6 958.9 807.8 1001.4 812.2 1006 823.1 1006.3 Z" data-holc_grade="B"/>
<path d="M 825 990.1 824.1 960.1 883.7 961.7 884.2 996 830.6 996.4 828.9 986.5 825 990.1 Z" data-holc_grade="B"/>
<path d="M 955.7 962.4 954.5 994.5 902.5 993.6 902.5 958.1 925.1 958.5 927.2 964.7 930.7 962.3 934.5 959.1 939.2 957.8 946.7 958.6 955.7 962.4 Z" data-holc_grade="B"/>
<path d="M 858.9 894.4 872.6 895.3 872.2 902.2 892.4 903.5 893.6 924 916.3 924.2 917.6 905.7 944.3 908.3 982.1 919.6 982 922 958.7 923.3 956.9 926.5 956.7 933 891.2 930.2 845.4 929.9 802.2 928.2 802 911 791.1 911 788.9 926.7 753.3 926.9 700.2 949.2 698.5 946.3 701.4 943.5 705.8 942.7 709.2 941.5 713 938.2 718.4 937.5 723.5 933.1 729 933.8 728.1 921.1 730.3 919.1 735.1 919.9 735.9 917.2 740.2 916.2 740.7 910 752.6 908.1 752.6 899.6 811 895.8 812.7 893.2 819.7 892.5 819.5 896.1 836.5 896.1 837.7 893 858.9 894.4 Z" data-holc_grade="B"/>
<path d="M 1016.7 900.9 1017.1 921.9 1010.5 920.8 1009.4 924.6 982.2 917.1 981.5 913 984.2 913.2 982.8 894.5 990.8 896.7 995.3 897.1 1002.2 899.2 1011.1 901.2 1016.7 900.9 Z" data-holc_grade="B"/>
<path d="M 1104.3 943.2 1101.9 947.7 1017.2 925.6 1017.1 921.9 1016.7 900.9 1022.7 902 1031.5 902.3 1039.6 903.4 1044.9 905.8 1051.3 909.6 1055.1 911.6 1060.5 912 1080.2 912.4 1080 918.9 1107.4 928.1 1106.3 930.7 1104.3 934.5 1104.3 943.2 Z" data-holc_grade="B"/>
<path d="M 1013.6 1142.8 1014.8 1114.8 1015 1110.5 1031.1 1110.2 1031.3 1108.2 1030.1 1104 1047.5 1095.5 1067.6 1085.4 1091.2 1084.2 1090.4 1093.8 1089 1102 1086.1 1107.1 1072.7 1118.9 1071.5 1123.3 1072.2 1130.3 1060.3 1131 1058.9 1142.8 1013.6 1142.8 Z" data-holc_grade="B"/>
<path d="M 1013.6 1142.8 1009.6 1142.8 1008.9 1143.7 1008.9 1177.1 961.8 1175.7 964.6 1134.9 975.3 1134.2 975.5 1129.3 976.7 1128.4 1011.3 1115.1 1014.8 1114.8 1013.6 1142.8 Z" data-holc_grade="B"/>
<path d="M 964.6 1134.9 961.8 1175.7 953.6 1176.2 952.8 1198.5 940.1 1198.9 936.3 1203.6 935.9 1214.1 933.2 1216.8 931.9 1220.6 899.2 1219.6 898.5 1175.6 904.5 1174.9 905.1 1159.9 947.1 1141.4 946.5 1157.2 957.1 1156.7 957.5 1122.8 956.4 1122.1 940.7 1127.7 941.7 1110.6 978.8 1096.4 984.4 1108.9 983.5 1110.7 964.4 1118.6 964.6 1134.9 Z" data-holc_grade="B"/>
<path d="M 692.5 951.2 675.5 957.8 648.5 957.1 627.8 955.9 628.6 990 634.2 1001.4 652.4 1001.5 651.9 993.8 660.7 992.7 661.7 978.9 673.6 979.3 673.2 992.2 680.4 992.5 685.7 1004 693.4 1008.1 708.3 1005.4 713.9 1005.6 712.5 1015.2 670.7 1013.3 652.8 1012.7 641.9 1011.2 634.8 1008.9 627.2 1006 621.6 1000.3 620.1 998.9 616.6 995.3 618.2 985.8 619.3 979.3 617.4 974.3 617 968.5 617.6 963 619.4 959.5 622.9 957.1 625.4 955.3 626.4 950.5 625.2 944 629.2 941.9 632.8 945.2 639.9 946 646.3 945.7 670.4 942.7 669.3 938.8 664.6 927.7 663.4 920.5 664.7 916.7 670.7 923.2 676.7 933.7 682.5 942.4 688.1 944.1 691 947 692.5 951.2 Z" data-holc_grade="B"/>
<path d="M 1272.7 1236.3 1272.8 1270.2 1246.6 1271 1245.7 1277.6 1198.4 1277.3 1197 1277.3 1196.9 1252.6 1229.8 1253.2 1229.7 1210.7 1231.3 1207 1239.1 1209.8 1243.3 1210.1 1246.8 1208.8 1250 1206.4 1253 1204.7 1277.3 1204.7 1278.3 1229 1272.7 1229.2 1272.7 1236.3 Z" data-holc_grade="B"/>
<path d="M 1427.3 1361.5 1385.1 1365.1 1382.4 1360.8 1361.3 1360.3 1359.4 1346.7 1327.6 1345.3 1329.1 1335.4 1377.6 1336.6 1378.3 1314.1 1355.3 1314.1 1352.6 1322.1 1331.3 1321.6 1337.3 1303.7 1372.3 1302.8 1372 1286.8 1362.8 1277.9 1374 1269.2 1378.8 1270.9 1426.8 1269.7 1427.1 1286.1 1430.7 1288.8 1430.7 1353 1427.1 1356.7 1427.3 1361.5 Z M 1389.7 1302.3 1390.2 1350.1 1417.6 1353.3 1417.1 1348.9 1419.6 1344.1 1419.1 1303.3 1389.7 1302.3 Z" data-holc_grade="B"/>
<path d="M 1439.6 1413.9 1393.7 1412.9 1385.2 1413.6 1373.1 1413.4 1349.6 1413.6 1333.6 1412.6 1330.9 1408.3 1312.4 1407.3 1312.5 1395.5 1333.2 1397.2 1348.7 1398.9 1389 1398.6 1439.7 1396.2 1439.6 1413.9 Z" data-holc_grade="B"/>
<path d="M 1196.5 1446.4 1247.7 1446.2 1249.1 1486.6 1195.9 1486.8 1196.5 1446.4 Z" data-holc_grade="B"/>
<path d="M 1131.2 1519.4 1132.8 1491.9 1128.5 1491.8 1154.8 1466.6 1154.9 1463.4 1152.9 1460.7 1147 1456.6 1138.2 1454.5 1131.3 1454.3 1127.9 1454 1113.5 1450.4 1097.2 1446.4 1099 1441.7 1100.6 1440.4 1135.8 1449.2 1152.3 1450.7 1156.6 1451.8 1166.1 1462 1182.4 1471.4 1181.7 1484.9 1151.6 1485.3 1151.6 1496.2 1302.3 1497.9 1303.7 1517.7 1243.9 1518.6 1242.5 1574.1 1242.7 1575.4 1249.6 1575.7 1249.3 1594.5 1239.6 1594.8 1239.8 1580.2 1194.3 1579.5 1194.4 1585.4 1135.1 1585.2 1134.2 1562 1130.6 1561.4 1131.2 1519.4 Z" data-holc_grade="B"/>
<path d="M 1128.5 1491.8 1132.8 1491.9 1131.2 1519.4 1108.4 1546 1096.6 1535.1 1088.3 1542.5 1087.2 1544.6 1090.1 1547.3 1067.2 1572.6 1061.7 1567.2 1069.1 1559.4 1077.3 1552 1079.8 1548.4 1079.5 1543.7 1071.1 1544.5 1065.7 1543.1 1061.7 1537.5 1062.7 1521 1065.1 1520.7 1070.4 1520.7 1083.4 1515.2 1082.9 1489.9 1128.5 1491.8 Z" data-holc_grade="B"/>
<path d="M 592.2 1751.3 593.5 1729.6 576.8 1728.5 567.9 1722.3 559.9 1722.1 558 1720.4 557.5 1715.7 549.3 1714.4 549.7 1708.8 581.9 1709.8 583.1 1687.1 598.4 1687 598.5 1683.3 632.4 1683.4 631.5 1691.6 625.5 1690.8 623.8 1710.4 597.6 1710.9 598.3 1721.6 614.3 1722.7 613.4 1739.8 628.1 1741.1 627.4 1751.2 592.2 1751.3 Z" data-holc_grade="B"/>
<path d="M 540.8 1798.4 526.9 1797.3 528.4 1782.6 535 1782.1 535.2 1764.5 539.4 1764.5 539.8 1758.5 519.9 1757.9 522.2 1713.5 532.8 1707.7 533.5 1715.3 532.2 1721.6 534.5 1725.5 540.7 1729.6 548.4 1732.2 555.3 1731.9 553.4 1743.6 553.8 1747.1 557.8 1750.9 556.7 1752.4 539.7 1782.4 539.5 1782.8 539.9 1792.2 540.2 1792.4 540.4 1795.1 540.8 1798.4 Z" data-holc_grade="B"/>
<path d="M 2223 1559.6 2237.5 1549.3 2246 1543.8 2251.2 1542.5 2251.9 1574.3 2242.6 1575 2237.2 1577.5 2234.8 1577.5 2230.7 1574 2227.4 1571.4 2224.6 1565.9 2223.7 1563.5 2223 1559.6 Z" data-holc_grade="B"/>
<path d="M 2197.5 1529 2188.5 1528.6 2180.7 1529.1 2174.7 1529.8 2171.3 1534.2 2156.2 1523.8 2157.7 1520.9 2148.4 1513.6 2147.5 1512.4 2155.4 1500.8 2146.5 1491.7 2151.5 1488.5 2151.5 1457.8 2196.9 1457.8 2197.5 1529 Z" data-holc_grade="B"/>
<path d="M 719.7 1039.8 721.2 1045.2 718.9 1047.9 713.7 1046.7 707.8 1044.6 698.1 1043.2 695.4 1043.2 688.9 1046.1 686.2 1047.4 681 1047.9 677.5 1048.5 674.2 1050.1 668.9 1054.9 665.5 1059.5 664.9 1064.9 666.3 1067.5 667.3 1071.2 668.7 1075.3 673.1 1079.1 676.9 1081.4 673.5 1083.6 658.7 1079.2 646.7 1082.4 658.3 1042.5 665.4 1042.9 667.2 1042.7 673.6 1025.2 708.2 1026.3 708.8 1038.9 719.7 1039.8 Z" data-holc_grade="B"/>
<path d="M 2227.1 1410 2193.1 1409.6 2168.9 1407.2 2161.8 1415.5 2152.9 1422.5 2145.6 1427.1 2136.9 1431.2 2124.3 1434.4 2110.9 1431.5 2107 1428.1 2090.5 1428.4 2078.9 1428.6 2067.7 1428.9 2062.9 1430.8 2060.2 1428.4 2057.3 1421.2 2057.5 1407.2 2054.1 1405 2055.3 1381.1 2057 1377 2075.4 1376.4 2132.2 1377.8 2226.3 1380.6 2227.1 1410 Z" data-holc_grade="B"/>
<path d="M 1854.6 1361.3 1854.2 1371.3 1823.7 1372.2 1829.7 1385.6 1831.3 1390.5 1835 1397.2 1840.8 1404.3 1844.4 1407.9 1842.8 1408.8 1812.4 1409 1811.3 1389.1 1756.5 1387.5 1756.9 1367.6 1755.3 1363.4 1756.4 1359.4 1816.8 1359 1800.5 1329.8 1791.8 1332.6 1786.7 1327.9 1772.2 1332 1771.2 1305.9 1787.6 1300.7 1813.6 1300.5 1813.8 1316.4 1816.9 1317.5 1818.6 1332.2 1831.5 1333.6 1833.5 1336.5 1845.5 1336.1 1847.8 1338.3 1849.5 1341 1852.8 1342.3 1855.1 1343.4 1854.6 1361.3 Z" data-holc_grade="B"/>
<path d="M 1954.3 1286.7 1955 1291 1946.3 1291.5 1944.1 1292.7 1944.1 1296.4 1944.8 1301.4 1941.9 1303.6 1933.2 1305.8 1926.4 1311.4 1923 1317.2 1913.8 1313.3 1912.1 1289.6 1889.3 1289.7 1886.3 1241.4 1935.1 1240.3 1953.5 1240.3 1954.3 1286.7 Z" data-holc_grade="B"/>
<path d="M 2054.5 1136.5 2055.8 1175.8 2116.7 1174.5 2116.4 1136.2 2155.2 1136 2153.7 1188 2100 1187.9 2018.5 1187.6 2020 1136 2054.5 1136.5 Z" data-holc_grade="B"/>
<path d="M 2014.9 1064.5 2023.6 1071.4 2033.9 1073.8 2049 1074.6 2054.8 1074.6 2054.5 1084.3 2053.9 1087.3 2054.5 1136.5 2020 1136 2016.7 1136 2015.7 1081.9 1993 1081.7 1993.3 1049.6 2012 1068.1 2014.9 1064.5 Z" data-holc_grade="B"/>
<path d="M 1916.3 952.8 1916.9 934.1 1949 937.8 1953.1 994.8 1951.7 1033.1 1925.8 1007.3 1924.6 967.9 1920 966.2 1916.3 952.8 Z" data-holc_grade="B"/>
<path d="M 1925.1 843.6 1961.1 845.6 1977.8 844.7 1978.2 855.3 1976.6 866.7 1974.4 881.6 1999.9 883 2001.5 891.2 2053.3 891.8 2053.8 951.9 2052.1 951.2 2042.3 946.7 2036.3 946.9 2027.8 944.9 2019.2 941.8 2009.7 936.4 2001.9 931.7 1989.2 923.8 1983.4 918.3 1972.1 912.9 1966.1 907.9 1961.7 905.3 1957 905.3 1947 905 1938.8 903 1930.5 901.7 1927.7 897.8 1924.1 892.3 1923 887.6 1921 883.1 1913 884 1909.7 883.3 1901.2 880.6 1898.8 882.2 1890.1 885.1 1885.2 885.1 1878.3 880.2 1873.2 880.1 1867.6 881.7 1865.2 883.3 1860.8 879.3 1861.4 872.1 1860.3 860 1865.2 858.5 1874.9 852.7 1880.6 847.6 1887 842.8 1907 843.9 1921.5 843.6 1925.1 843.6 Z" data-holc_grade="B"/>
<path d="M 1925.1 843.6 1923.6 824.6 1929.4 815 1944.5 804.4 1961.1 798.6 1985.4 796.5 2000.8 792.6 2008.7 791.6 2009 786.8 2014.1 781.1 2029.9 779.2 2031.4 781.4 2035 780.3 2045 775.4 2048.4 779.2 2050.8 787.7 2051.4 802 2052.5 829.2 2053.1 868.1 2053.3 891.8 2001.5 891.2 1999.9 883 1974.4 881.6 1976.6 866.7 1978.2 855.3 1977.8 844.7 1961.1 845.6 1925.1 843.6 Z" data-holc_grade="B"/>
<path d="M 2101.6 709.2 2101.7 777.3 2127.5 778 2150.8 778.3 2174.1 779.7 2173.3 790.6 2150.3 789.4 2150.4 799.5 2150.6 815.8 2150.7 825.3 2099.5 824.2 2098.9 861.9 2118.9 862.8 2120.5 890.2 2135.9 890.2 2136.2 893.5 2135.3 933.9 2135.1 941.8 2116.6 942.4 2116.3 958.1 2101.2 957 2096.3 952.1 2083.9 952.4 2071.2 948.5 2063 951 2053.8 951.9 2053.3 891.8 2053.1 868.1 2052.5 829.2 2051.4 802 2050.8 787.7 2048.4 779.2 2045 775.4 2035 780.3 2031.4 781.4 2034.4 773.8 2024.7 764.5 2028.6 761.1 2023.5 746.7 2020.1 740.3 2030.5 730.7 2037 730.3 2046.8 727.8 2047.5 722.7 2054.4 720.2 2062.5 716.1 2069.7 712.5 2086.4 705.6 2088.9 710.3 2093.3 709.2 2101.6 709.2 Z" data-holc_grade="B"/>
<path d="M 2220.7 626.5 2207.3 634.5 2210.9 640.3 2208.1 688.8 2199 689.5 2198.4 705.8 2197.6 725.4 2168.5 725.1 2166 754 2150.8 754.4 2153.6 709.5 2143.4 707.7 2141.6 705.6 2149.2 680.2 2149.2 670.4 2146.3 666.1 2133.2 667.9 2123.8 671.2 2119 673.7 2114.3 678.8 2104.9 678.1 2093.2 676.7 2089.2 670.2 2084.1 659.3 2079 650.3 2070.7 642 2064.1 648.5 2059.1 641.2 2051.1 640.6 2051.6 592.7 2054.5 592.9 2062.8 592.2 2073.3 591.8 2093.9 591 2099.5 590.1 2101.3 573.3 2099.4 540.9 2116.3 540.7 2148.6 540.2 2149.8 587.6 2197 588.9 2207.5 587.8 2217 597.2 2233 614.9 2220.7 626.5 Z" data-holc_grade="B"/>
<path d="M 627.2 1006 628.1 1087.3 609.1 1095.5 577.6 1109.3 576.8 1109.6 579.7 1024.8 621.6 1000.3 627.2 1006 Z" data-holc_grade="B"/>
<path d="M 2150.7 825.3 2151.2 830 2149.6 833.3 2150.4 835.8 2152.5 838 2157.5 837.2 2158.9 839.5 2157.1 847.2 2156.5 854.8 2153.2 864.8 2154.7 885.3 2153.6 888.5 2152.6 890.6 2147.7 890.8 2147.8 934 2135.3 933.9 2136.2 893.5 2135.9 890.2 2120.5 890.2 2118.9 862.8 2098.9 861.9 2099.5 824.2 2150.7 825.3 Z" data-holc_grade="B"/>
<path d="M 2215.8 706 2217.8 711.1 2214.7 715.2 2213.5 729.2 2213.8 735.1 2217.1 737.9 2235.8 736 2237.8 728.8 2236.9 721.9 2242 715.4 2246 712.3 2246.5 706.1 2261.9 708.5 2262.2 735.6 2270 736.9 2271.1 733.2 2280.7 732.7 2285.4 733.4 2285.9 711.3 2304.3 712.4 2321.9 712.9 2330.4 712.9 2330.4 725.7 2330.4 770.6 2325.3 773.1 2321.8 773.9 2321.1 791.4 2285.2 791 2285.2 801.8 2322.1 803.4 2322.3 836.9 2263.5 838.4 2248.1 839 2244.5 837.5 2241.7 742.2 2222.4 741.6 2219 753.8 2217.9 765.4 2218.3 771.9 2219.4 776.8 2221.2 782.4 2221.9 788.5 2219 796.5 2217 801.9 2218.1 806.5 2220.5 812.6 2223.1 819.1 2225.4 824.5 2226 835.4 2225.3 838.3 2201.7 837.3 2199.6 818.4 2191.8 816.8 2176.2 816.7 2150.6 815.8 2150.4 799.5 2187.2 801.4 2198.5 802.1 2198.5 772.8 2197.2 759.2 2197.1 737.9 2197.6 725.4 2198.4 705.8 2215.8 706 Z" data-holc_grade="B"/>
<path d="M 2268.9 630.2 2267.6 663.4 2255.6 663.4 2254.2 677.5 2228.4 678.3 2229.9 683.3 2232 687 2233.5 690.9 2233.2 704.3 2227 706.1 2215.8 706 2198.4 705.8 2199 689.5 2208.1 688.8 2210.9 640.3 2207.3 634.5 2220.7 626.5 2224.7 631.6 2248.3 631.2 2249.7 625.8 2265.7 625 2269 627.2 2268.9 630.2 Z" data-holc_grade="B"/>
<path d="M 2051.6 592.7 2051.1 640.6 2050.6 644.5 2031.7 643.8 2013.8 644.3 2008.9 648.9 2001.4 646 1998 637.1 2005.8 630.1 2013.1 623.5 2016 618.3 2016.3 616.3 2014.3 612.5 2015.6 609.6 2018 609 2024 603.1 2030.3 597.1 2036.5 590.4 2044.6 592.2 2051.6 592.7 Z" data-holc_grade="B"/>
<path d="M 1858.4 502.2 1840.4 512.5 1837.4 515.2 1818.4 524.5 1816.6 525.7 1785.4 545.4 1758.4 561.7 1735.8 575.2 1734.5 547.8 1744.2 541.2 1753 534.5 1758.4 529.4 1768.7 519.7 1786 503.7 1796.5 494.4 1811.1 483.5 1821.9 475.7 1826.2 481.7 1824.4 485.3 1824.1 490.8 1825.9 496.5 1828.9 494.7 1835.6 493.5 1841 497.4 1846.5 489.8 1829.5 471.2 1836.5 463 1848.9 453.4 1855.2 446.1 1863.1 441.3 1871.8 432.8 1883 424.1 1891.8 415.9 1900 407.2 1914.2 393.9 1926.9 383.4 1933.8 376.4 1944.5 384.7 1949.8 389.4 1948.2 398.3 1932 399.5 1924.5 406.6 1911.2 417.7 1871.9 454.8 1869.1 467.8 1882.2 474.1 1873.1 479.9 1871 479.3 1865.5 481.7 1859.5 479.3 1852.2 486.5 1848 492.5 1858.4 502.2 Z" data-holc_grade="B"/>
<path d="M 1966.6 364.9 1968.5 359.4 1967.4 353.4 1966 348.6 1969.1 345 1974.9 339.8 1982 333.5 1986.7 328.5 1993 320.2 1998.6 313.9 2002.5 312.5 2002.9 313.9 2002 320 2005.4 322.9 2006 344.1 2006 346.8 2002.5 349.5 1992.6 347.4 1969.5 365.5 1966.6 364.9 Z" data-holc_grade="B"/>
<path d="M 2106.2 240.9 2106.3 240.8 2106.9 239.9 2107.9 238.6 2130.4 246.5 2129.8 269.6 2124.8 271.7 2119.5 276.1 2060.8 245.1 2075.1 234.4 2080.9 226.6 2093.1 212.4 2102.3 222.2 2090.6 236.9 2103.6 247.6 2104.9 247 2105.2 242.2 2106.2 240.9 Z" data-holc_grade="B"/>
<path d="M 2129.9 216.4 2118.7 216.5 2110.8 213.5 2101.5 202.8 2129.4 174.7 2129.9 216.4 Z" data-holc_grade="B"/>
<path d="M 2149.5 456.7 2150.4 454 2159.9 445.7 2165.6 439.5 2175.1 436.6 2181.3 436.6 2185.8 438.1 2188.4 442.9 2190.4 451.6 2189.7 457.2 2188 464.1 2187.3 471 2185.5 471.2 2174.1 471.5 2163.9 472.5 2163.7 466.1 2159 462.3 2155.2 460.5 2150.4 460.5 2149.5 456.7 Z" data-holc_grade="B"/>
<path d="M 2185.8 438.1 2182.9 433.7 2181.8 427.4 2180.5 422.1 2178.7 415.6 2182 411.3 2188.1 409.7 2193.8 409.6 2198.8 405.7 2201.9 401.5 2200.1 399.7 2195.6 398.6 2195.4 396.6 2198.6 393.5 2203 396.1 2205 398.4 2205 401.1 2205 403.8 2206.5 406.4 2211 409.1 2212.1 412.1 2212.5 415.2 2213.6 417.2 2217 419 2217 421.4 2215.2 426.2 2213.6 434.6 2210.5 442.5 2210 444.3 2195.1 442.2 2185.8 438.1 Z" data-holc_grade="B"/>
<path d="M 695.1 1128.8 695 1132.6 648.7 1132.5 650.5 1158.9 618 1159.2 608.4 1159.3 608.7 1129.5 609.1 1095.5 628.1 1087.3 646.7 1082.4 658.7 1079.2 656.3 1085.1 663.4 1089.5 666.7 1089.7 664 1094.3 664.1 1098.1 672.3 1096.9 679.1 1095.7 679 1092.8 681.4 1089.1 684.1 1089.5 687.3 1091.7 688.5 1094.8 692 1096 695.9 1096.2 695.1 1128.8 Z" data-holc_grade="B"/>
<path d="M 2312.1 376.5 2313 386.5 2312.6 392.6 2305.4 393.2 2297 393.6 2292.3 395.4 2293.8 399.2 2295.4 402.6 2295.6 407.3 2290.2 410.7 2282 412.8 2273.1 413.7 2266.7 414.2 2258.9 415.7 2251.7 417 2247 418.1 2244.4 417 2240.8 415 2237 415 2236.4 418.6 2235.9 417.2 2234.8 413.6 2230.8 412.7 2225.2 413.8 2225.5 411.8 2224.6 402.9 2220.8 391.7 2225.3 382.6 2228.6 377.8 2234.2 379.2 2244.5 381.2 2247.4 380.4 2248 372.5 2259 372.1 2268.8 371.2 2272.5 372.4 2276.8 372.3 2278.7 370.8 2278.5 383.3 2280.1 385.6 2284.1 385.8 2291.4 383.8 2301 381.8 2310.6 378.5 2312.1 376.5 Z" data-holc_grade="B"/>
<path d="M 2326.2 348.7 2322 346.7 2316.9 345.6 2316.9 342 2322 334 2319.1 328.8 2321.6 325.2 2329.7 318.1 2328.3 313 2328.5 311 2335.2 305.8 2340.8 300.3 2345.1 300.7 2352.6 300.7 2357.7 304.5 2360.6 308.8 2361.7 314 2362.4 318 2359.3 323.5 2356.4 330.9 2356.6 334.3 2358.3 338.1 2356.6 340.6 2327.8 339.8 2326.7 341.6 2326.2 348.7 Z" data-holc_grade="B"/>
<path d="M 2244.2 109.1 2237 115.4 2238.5 128.9 2236.5 136.8 2229.3 144.5 2229.1 166.2 2176.6 169.9 2170.3 176.4 2173.2 178.9 2174 195 2137.2 197.5 2143.7 187.1 2138.4 180.4 2148.8 169 2139.3 160.3 2147.1 151.6 2164.5 173.1 2180.3 160.4 2163 137.8 2171.7 130.6 2180.5 140.1 2183.4 136.9 2191.9 148.3 2199 144.1 2183.3 123.3 2179.2 127.1 2175.4 124.2 2183.7 116.3 2203.5 138.3 2205.5 140.1 2233.9 116.9 2236.3 109.9 2217.4 86.2 2223 83.1 2244.2 109.1 Z" data-holc_grade="B"/>
<path d="M 2368.3 27.9 2341.9 43 2300 64.2 2294 67.3 2284.4 72.3 2259.5 92.4 2247.1 64.1 2251 63.4 2259 57.6 2263 51.6 2274.6 51.2 2282.2 48.5 2291.6 46.3 2304 43 2313.2 40.5 2323.9 35.6 2336.2 28.5 2346.4 22.2 2349.8 21.4 2356.3 14.4 2365.2 9.1 2373.7 3.5 2390.1 2.7 2387.5 17 2368.3 27.9 Z" data-holc_grade="B"/>
<path d="M 2368.3 27.9 2387.5 17 2390.1 2.7 2446.1 1 2445.1 51.4 2416.5 64.9 2416.3 84.5 2377.9 84.3 2375.7 86.3 2368.5 85.7 2368.3 27.9 Z" data-holc_grade="B"/>
<path d="M 1811 1018.6 1809.8 1038.7 1816.2 1040.1 1822.5 1043.5 1827.6 1047.6 1827.9 1050.6 1828.3 1053.4 1826.8 1059.7 1821.7 1059.7 1812 1059.9 1803.3 1054.8 1800.6 1047.6 1798.5 1039.6 1773.5 1032.4 1773.5 1014.8 1808.6 1016.2 1811 1018.6 Z" data-holc_grade="B"/>
<path d="M 618 1159.2 650.5 1158.9 652.6 1165.6 674.6 1164.7 680.8 1163.5 687.3 1161.9 692.2 1160.4 696.6 1158.4 701.9 1158 706.9 1157.2 706.1 1161.3 681.4 1171.4 677.3 1187.9 671.2 1187.6 664.5 1176.3 659.5 1176 651.7 1182.4 635.9 1191 604.2 1203.2 601.6 1207.2 596.3 1211.5 592.5 1216.5 595.7 1220.2 595.4 1225.5 595.1 1229.5 591.6 1230.7 584.4 1231.2 583.8 1239.6 568 1239.3 567.2 1227.4 560.2 1235 541.6 1241.6 528.2 1245.9 515.3 1253.7 508.6 1258.6 508 1292.8 473.3 1293.3 472.2 1271 501.9 1255.1 526.7 1238.4 532 1237.5 546.8 1231.2 548 1201.3 570.5 1201.1 570.1 1211.8 574.5 1214.4 596.9 1201.1 598.7 1184.6 616.7 1185.8 618 1159.2 Z" data-holc_grade="B"/>
<path d="M 815.6 1212.9 813.9 1246.3 802 1246.1 794.2 1252.6 794.2 1272.1 788.6 1279.1 772.1 1279.8 772.1 1293.6 763.6 1294.1 763.4 1308.6 760.9 1310.3 718.2 1308 719.5 1289.4 720.7 1284.8 717.8 1276.1 719.5 1271.8 732.4 1272 734 1258.9 744.7 1258.2 754.2 1218.8 758.1 1220.3 762 1207 768.8 1209.7 780.7 1212.3 815.6 1212.9 Z" data-holc_grade="B"/>
<path d="M 843.5 1166.3 843.5 1185.6 826.5 1186.1 826.3 1190.7 816.4 1191.4 815.6 1212.9 780.7 1212.3 768.8 1209.7 762 1207 762.8 1195.6 756.7 1195.2 761.6 1174.6 772.7 1176.1 773.2 1168.6 775.4 1166.4 778.8 1167.4 780.2 1175.6 782.9 1175.6 794.1 1170.8 803.8 1169.9 806.6 1112.3 809.4 1107.2 828.1 1106.7 829.4 1105.2 832.5 1109.1 832.2 1120.3 831 1127 834.2 1130.9 839.3 1138.2 843.5 1145.3 846.6 1151.1 848.9 1156.7 842.6 1158.9 843.5 1166.3 Z M 783.7 1202.1 795.4 1202.3 795.7 1190.5 783.8 1190.7 783.7 1202.1 Z" data-holc_grade="B"/>
<path d="M 852.2 1048.4 870.5 1048.4 870.5 1059.3 870.2 1062 866.5 1059.6 859.8 1058.5 853.4 1059.4 852 1062.5 854.3 1065.4 864.3 1072.3 864.5 1075.7 883.4 1084.8 883 1099.7 865.7 1115.6 868.1 1120.5 871.7 1125.9 872.6 1134.3 870.2 1151.1 848.9 1156.7 846.6 1151.1 843.5 1145.3 839.3 1138.2 834.2 1130.9 831 1127 832.2 1120.3 836.6 1120.6 837.9 1125.2 840.1 1129.5 843.7 1135.9 844.8 1136.2 854.2 1130.4 853 1127.7 851.3 1124.3 851.7 1109.2 845.2 1108.3 840.1 1103.2 838.3 1098.3 836.7 1091.8 835.9 1087.8 835.2 1084.2 831 1083.7 812.1 1082.9 812.7 1061.2 839.8 1060.5 841.8 1053.8 852.7 1054.7 852.2 1048.4 Z" data-holc_grade="B"/>
</g>
<g id="C">
<path d="M 259.2 1672.5 259.4 1663.1 280.5 1662.4 281.3 1643.9 286.6 1643.9 286.6 1641.4 327.3 1642.8 331.5 1640.6 332 1655.5 343.3 1656.4 350.5 1643.7 360.6 1643.2 349.7 1662.8 349.7 1668.9 352.2 1671.7 362.2 1672 368.4 1665.9 378.4 1665.6 362.2 1680.6 362.7 1709.2 353.9 1709.2 353 1713.6 353.3 1725.5 353.3 1730.1 358.4 1739.5 326.3 1739.8 330.4 1718.4 321.3 1717.8 317.3 1726.7 284.9 1727.5 286.1 1674.4 259.2 1672.5 Z" data-holc_grade="C"/>
<path d="M 946.2 1001.8 943.8 1045.6 913.8 1045.6 908.7 1048.6 895.1 1048.4 896.3 1005.2 897.5 1000.6 946.2 1001.8 Z" data-holc_grade="C"/>
<path d="M 852.4 1164 843.5 1166.3 842.6 1158.9 848.9 1156.7 870.2 1151.1 872.6 1134.3 871.7 1125.9 868.1 1120.5 865.7 1115.6 883 1099.7 883.4 1084.8 864.5 1075.7 864.3 1072.3 854.3 1065.4 852 1062.5 853.4 1059.4 859.8 1058.5 866.5 1059.6 870.2 1062 870.5 1059.3 870.5 1048.4 895.1 1048.4 908.7 1048.6 913.8 1045.6 943.8 1045.6 945.8 1046.7 945.8 1051.6 934.2 1053.2 918.1 1079.6 907 1079.4 906.1 1094.1 903 1093.9 877.7 1114.7 883.1 1143.3 882 1156.4 852.4 1164 Z" data-holc_grade="C"/>
<path d="M 702 1395.8 691.4 1395.8 622.6 1395.9 622.9 1368.7 636 1368.4 636.3 1375.4 649 1376 649 1356.1 663.9 1355.2 666.6 1342.5 682.1 1342.2 682.7 1342.2 684.6 1293.3 687.7 1292.4 687.7 1263.4 692 1263.4 696.2 1261.6 700.8 1260.1 706.2 1257.1 711.1 1254.4 712.6 1253.8 712.9 1274.3 713.5 1278.9 719.5 1289.4 718.2 1308 760.9 1310.3 763.4 1308.6 763.6 1294.1 772.1 1293.6 772.1 1279.8 788.6 1279.1 794.2 1272.1 794.2 1252.6 802 1246.1 813.9 1246.3 815.6 1212.9 816.4 1191.4 826.3 1190.7 826.5 1186.1 843.5 1185.6 843.5 1166.3 852.4 1164 850.9 1193.6 836.4 1193 835.4 1198.4 826.4 1197.2 824.5 1253.7 804.1 1253.6 804.7 1277.5 785.3 1293.5 786.8 1305.3 750 1359.3 748.2 1360.8 739.7 1366.2 733 1373.1 729 1378.3 722.3 1395.8 702 1395.8 Z" data-holc_grade="C"/>
<path d="M 691.4 1395.8 702 1395.8 684.4 1430.1 707.4 1431.1 663.9 1497.5 637.5 1495.6 691.4 1395.8 Z" data-holc_grade="C"/>
<path d="M 773.5 1800.4 751.5 1800.2 743.6 1745.6 758.5 1727.5 790.2 1727.6 785.5 1733.5 833.2 1773.5 803.9 1808 782.5 1791.8 782.5 1792.1 779.3 1795.4 773.5 1800.4 Z" data-holc_grade="C"/>
<path d="M 886.2 1263.9 885.6 1297.2 886.7 1302.9 886.6 1349.1 814.1 1348.4 803.8 1348.7 797.5 1350.8 796.9 1295.2 834.5 1295.6 833.7 1245.7 848.9 1244.8 848.9 1231 861.9 1230.4 861.9 1264.5 886.2 1263.9 Z" data-holc_grade="C"/>
<path d="M 905.1 1159.9 904.5 1174.9 898.5 1175.6 899.2 1219.6 931.9 1220.6 933.2 1216.8 935.9 1214.1 936.3 1203.6 940.1 1198.9 952.8 1198.5 953.6 1176.2 961.8 1175.7 1008.9 1177.1 1013.7 1176.8 1013.5 1195 1019 1202.9 1003.7 1217.2 954.3 1215.9 953.1 1268.3 959.5 1268.6 959.1 1300.5 1012.7 1302 1012.4 1316.2 953.8 1314.1 953.1 1308.3 936.7 1321.9 935.6 1311.6 901.4 1311 901.1 1298.1 885.6 1297.2 886.2 1263.9 888.2 1155.7 905.4 1151.2 905.1 1159.9 Z" data-holc_grade="C"/>
<path d="M 1151.5 1092.2 1148.1 1094.4 1135.3 1094.6 1135.3 1110.8 1125.3 1112.2 1125.3 1118 1113.4 1118 1111.7 1137.8 1086 1138 1078.7 1143.1 1079 1170.9 1052.8 1171.8 1049.9 1171.6 1052.5 1175.9 1019 1202.9 1013.5 1195 1013.7 1176.8 1008.9 1177.1 1008.9 1143.7 1009.6 1142.8 1013.6 1142.8 1058.9 1142.8 1060.3 1131 1072.2 1130.3 1071.5 1123.3 1072.7 1118.9 1086.1 1107.1 1089 1102 1090.4 1093.8 1091.2 1084.2 1092.9 1073.5 1151.5 1092.2 Z" data-holc_grade="C"/>
<path d="M 1047.8 1083.2 1047.5 1095.5 1030.1 1104 1031.3 1108.2 1031.1 1110.2 1015 1110.5 1014.8 1114.8 1011.3 1115.1 976.7 1128.4 975.5 1129.3 975.3 1134.2 964.6 1134.9 964.4 1118.6 983.5 1110.7 984.4 1108.9 978.8 1096.4 941.7 1110.6 940.7 1127.7 956.4 1122.1 957.5 1122.8 957.1 1156.7 946.5 1157.2 947.1 1141.4 905.1 1159.9 905.4 1151.2 920 1144.8 920.2 1119.7 924.6 1119.8 924.2 1103.7 941.1 1103.9 941.9 1102.3 943 1081.5 994.4 1092.2 996.1 1056.7 1015.9 1056.7 1016.1 1048 1048.1 1048.1 1047.8 1083.2 Z" data-holc_grade="C"/>
<path d="M 1017.2 925.6 1101.9 947.7 1104.3 943.2 1126.8 948.8 1136.9 952.4 1134.3 953.7 1105.1 969 1101.9 962.9 1084.6 971.7 1056.7 961.2 1047.9 984.9 1041.7 983.5 1036.6 985.8 1037.2 1002.8 1035.2 1003 1015.9 1003.4 1017.6 958.1 1034.7 962.1 1037.8 952.3 1025.2 948.1 1023.6 939.1 1017.6 938 1016.7 925.5 1017.2 925.6 Z" data-holc_grade="C"/>
<path d="M 522.2 1713.5 519.9 1757.9 539.8 1758.5 539.4 1764.5 535.2 1764.5 535 1782.1 528.4 1782.6 526.9 1797.3 540.8 1798.4 553.8 1827.8 553.3 1828.9 509.2 1828.8 479.5 1765.4 458.2 1764.8 460.7 1712.2 522.2 1713.5 Z" data-holc_grade="C"/>
<path d="M 1211.3 963.1 1211.3 1024.8 1211.2 1051.2 1199.8 1060.6 1180.6 1078.2 1170.9 1086.6 1162.9 1085.4 1152.7 1085.2 1151.5 1092.2 1092.9 1073.5 1091.2 1084.2 1067.6 1085.4 1047.5 1095.5 1047.8 1083.2 1059.9 1076.4 1060.9 1001.1 1050.5 1001.5 1082.8 982 1099.7 993.6 1108.9 997 1114 996 1115.2 1001.8 1169.5 1002.1 1169.5 991.7 1160.3 990.3 1160.8 982.6 1159.1 981.4 1145.8 985.7 1143.4 979.4 1109.9 983.5 1105.1 969 1134.3 953.7 1134.8 955.7 1161.3 965.3 1161.9 974 1171 974.5 1177.3 974.2 1189.5 970.6 1206.1 964.8 1211.3 963.1 Z" data-holc_grade="C"/>
<path d="M 1322.4 995.3 1324.3 1001.3 1322.5 1005.5 1317.7 1008.2 1315.2 1009.9 1310.4 1009.9 1300.4 1009.4 1296.5 1017.1 1287.4 1018.3 1279.9 1018.6 1267.5 1019.2 1255.4 1008.5 1241 1008.8 1231.3 1018.6 1225.7 1024.7 1211.3 1024.8 1211.3 963.1 1221.1 959.9 1222.6 951.6 1257.5 938 1256.8 958.8 1276.2 953.8 1276.4 960.7 1286 960.5 1293.9 956.2 1312.2 958.2 1307.8 972.1 1310.6 977.9 1319.1 988.8 1322.4 995.3 Z" data-holc_grade="C"/>
<path d="M 1315.9 1100.1 1212.1 1101.5 1211.9 1081.5 1219.4 1081.9 1219 1060.7 1254.8 1039 1265.4 1037.6 1278.3 1036.8 1286.8 1035.2 1296.3 1032.7 1309 1027.4 1313 1024.4 1321 1020.2 1333.7 1018.9 1345 1018.2 1345.6 1006.8 1351.9 1001 1353.6 1003.4 1356.1 1006.8 1359.4 1006.1 1362.7 1004.6 1366.3 1005.2 1364.7 1022.2 1358.8 1024.4 1358.3 1050.3 1328.6 1051.7 1328.8 1067.8 1315.9 1100.1 Z" data-holc_grade="C"/>
<path d="M 1312.8 1106.2 1283.1 1167.3 1279.1 1164.7 1274.4 1166.5 1273.5 1173.1 1268.9 1173.1 1262.8 1168.3 1257.9 1164.9 1253.1 1161.1 1251.3 1155.7 1250.6 1151.8 1242.1 1146.4 1235.9 1142.4 1231.7 1140.4 1230.6 1142.1 1229 1157.8 1213.5 1158 1214.6 1139.7 1187.5 1125.9 1194.6 1115.6 1195.9 1112.7 1196.3 1109.1 1197.7 1103.4 1199.5 1101.6 1212.1 1101.5 1315.9 1100.1 1312.8 1106.2 Z" data-holc_grade="C"/>
<path d="M 1360.6 1155.9 1356.2 1187.8 1354.6 1199.4 1351.5 1200.1 1347.1 1200.8 1343.7 1201 1341.7 1203.3 1340 1205.3 1336.6 1205 1335 1202.3 1333.9 1198.6 1332.6 1199.2 1330.6 1199.9 1328.6 1199.2 1323.9 1196.4 1320.2 1196.3 1317 1196.4 1314.9 1196.6 1315.7 1193.4 1315.5 1189.4 1311.5 1189.4 1306 1190.1 1297.5 1186.5 1294 1187.2 1290.6 1187.7 1287.3 1183.2 1285 1178.5 1284.2 1173.4 1285.1 1169.6 1283.1 1167.3 1312.8 1106.2 1357.4 1105.3 1358.3 1107.2 1349.5 1154.8 1359 1154.2 1360.6 1155.9 Z" data-holc_grade="C"/>
<path d="M 1360.6 1155.9 1365.5 1155.2 1383.7 1155.9 1400.8 1157 1411 1156.3 1416.4 1155.2 1426.6 1154.1 1426.8 1162.8 1424.8 1167.1 1425.7 1172.9 1425 1178.5 1419.7 1177.8 1415.2 1175.5 1419.3 1184.7 1420.1 1188.7 1407.2 1183.2 1406.8 1197 1404.2 1199.2 1397.5 1199.4 1392.6 1197.2 1391.5 1193.2 1388.6 1193.4 1386.4 1195.4 1383.1 1195.9 1383.9 1208.8 1382.4 1214.2 1378.2 1213.9 1372.6 1213.3 1371.9 1211.5 1371.3 1186.9 1356.2 1187.8 1360.6 1155.9 Z" data-holc_grade="C"/>
<path d="M 1427.3 1361.5 1427.1 1356.7 1430.7 1353 1430.7 1288.8 1427.1 1286.1 1426.8 1269.7 1378.8 1270.9 1374 1269.2 1362.8 1277.9 1372 1286.8 1372.3 1302.8 1337.3 1303.7 1329.6 1304 1329.3 1301.1 1222.1 1300.8 1221.9 1285.8 1197.4 1286 1198.4 1277.3 1245.7 1277.6 1246.6 1271 1272.8 1270.2 1272.7 1236.3 1317 1237 1319.9 1226.4 1315.3 1224.9 1318.5 1214.8 1339.5 1225.2 1347.8 1230.3 1351.4 1232.2 1354.6 1235.4 1355.1 1240.2 1356.5 1241.4 1379.1 1241.6 1379.8 1233.7 1396.3 1231.3 1395.8 1220.4 1397.3 1212.9 1419.6 1208.6 1425.9 1210.5 1429 1219.4 1435.6 1225 1442.4 1229.6 1452.6 1247 1439 1288.5 1438.2 1346.3 1453.5 1356.9 1445 1369.7 1436 1364.9 1435.8 1381.1 1427.6 1381.1 1427.3 1361.5 Z" data-holc_grade="C"/>
<path d="M 1337.3 1303.7 1331.3 1321.6 1325.2 1321.4 1321.1 1333.9 1329.1 1335.4 1327.6 1345.3 1359.4 1346.7 1361.3 1360.3 1382.4 1360.8 1385.1 1365.1 1427.3 1361.5 1427.6 1381.1 1388.7 1382.5 1384.1 1371.2 1363.5 1371.4 1362.5 1382 1315.5 1381.8 1314.8 1369.9 1192 1371.3 1192 1362.1 1220.6 1360.5 1220.7 1320.3 1220.7 1304.6 1222.1 1300.8 1329.3 1301.1 1329.6 1304 1337.3 1303.7 Z M 1298.3 1310.7 1255.4 1309.7 1254.9 1320.1 1288.1 1320.6 1298.3 1310.7 Z" data-holc_grade="C"/>
<path d="M 1312.5 1395.5 1312.4 1407.3 1312.4 1450.3 1312.4 1469.4 1312.4 1517.3 1303.7 1517.7 1302.3 1497.9 1151.6 1496.2 1151.6 1485.3 1181.7 1484.9 1182.4 1471.4 1166.1 1462 1156.6 1451.8 1152.3 1450.7 1135.8 1449.2 1100.6 1440.4 1098.7 1438.1 1102.3 1429.2 1139 1440.1 1140 1399.2 1191.9 1397.8 1225.4 1400.7 1275.3 1397.1 1312.5 1395.5 Z M 1196.5 1446.4 1195.9 1486.8 1249.1 1486.6 1247.7 1446.2 1196.5 1446.4 Z" data-holc_grade="C"/>
<path d="M 1439.6 1413.9 1439.6 1419.9 1440.8 1426.9 1419.2 1427.2 1419.2 1430.3 1419.7 1441.7 1411.4 1441.4 1418 1467 1440.8 1473.3 1441.7 1550.9 1383.7 1554.1 1362.4 1582.6 1376.9 1582.1 1357.5 1618.1 1339.1 1618.6 1338.3 1619.8 1336.9 1621.7 1321.6 1622.7 1320.6 1626.6 1318.9 1626.8 1316.7 1628 1316.2 1631.4 1314.1 1632.6 1313.8 1636.7 1309.2 1639.9 1305.5 1641.8 1313.1 1590.8 1312.4 1517.3 1312.4 1469.4 1364.6 1468 1361.2 1480.6 1363.1 1487.3 1367.5 1492.4 1366.5 1502.8 1372.3 1502.1 1374.8 1506 1375.7 1523.4 1422.6 1521.7 1398.3 1436.3 1396.4 1438.5 1389.3 1438.3 1384 1440.2 1377 1440.7 1373.8 1449.6 1312.4 1450.3 1312.4 1407.3 1330.9 1408.3 1333.6 1412.6 1349.6 1413.6 1373.1 1413.4 1385.2 1413.6 1393.7 1412.9 1439.6 1413.9 Z" data-holc_grade="C"/>
<path d="M 576.2 1750.6 592.2 1751.3 627.4 1751.2 628.1 1741.1 629 1733.8 635.8 1734.4 633.5 1760.3 634.3 1763.6 655.6 1764.9 654.8 1783.8 636.2 1785 635.6 1795 633.3 1796.1 629.8 1792.6 625.6 1791 626 1796.8 623.8 1799.5 611.4 1809.6 602.7 1804.3 582.6 1803.2 579.5 1802.7 567 1789.4 567.4 1785.9 571.6 1775.1 573.8 1772.2 577.1 1768.9 576.5 1763.5 575.6 1758 574.5 1755.7 576.2 1750.6 Z" data-holc_grade="C"/>
<path d="M 1305.5 1641.8 1303.1 1657.5 1375.9 1657.8 1377.1 1684.9 1283.9 1686.3 1282.5 1685.6 1285.6 1675.2 1243.4 1674.7 1246.1 1629 1247.1 1625.3 1250.7 1623.2 1254.8 1623.2 1269.4 1622.4 1274.3 1622 1277.9 1619.5 1277.9 1616.6 1276.7 1614 1272.3 1612.8 1266.2 1614.9 1261.9 1613.3 1260.9 1610.6 1260.7 1606.7 1260.4 1601.9 1254.8 1601.6 1251 1601.9 1248.8 1601.9 1249.3 1594.5 1249.6 1575.7 1242.7 1575.4 1242.5 1574.1 1243.9 1518.6 1303.7 1517.7 1312.4 1517.3 1313.1 1590.8 1305.5 1641.8 Z" data-holc_grade="C"/>
<path d="M 1051.4 1567.9 1053.1 1568.5 1057.1 1570.9 1060.6 1568.3 1061.7 1567.2 1067.2 1572.6 1090.1 1547.3 1087.2 1544.6 1088.3 1542.5 1096.6 1535.1 1108.4 1546 1109 1556 1117.7 1556.7 1118.1 1599.2 1056.1 1598.5 1054.4 1574.8 1052.1 1573.1 1049.3 1571 1051.4 1567.9 Z" data-holc_grade="C"/>
<path d="M 990.9 1709 990.9 1716.5 958.6 1717.2 957.5 1639.1 1006.1 1618.8 1005.8 1651.9 1062.1 1653.9 1060.4 1709.6 1001.1 1709.5 990.9 1709 Z" data-holc_grade="C"/>
<path d="M 1220.7 1320.3 1220.6 1360.5 1192 1362.1 1191.3 1340.1 1158.8 1340.8 1158.8 1322.2 1187.2 1323 1190.3 1319.6 1220.7 1320.3 Z" data-holc_grade="C"/>
<path d="M 2305.8 1706.9 2303.6 1708.6 2280.3 1709.4 2254.7 1709.2 2250.8 1708.3 2249.5 1703.9 2249.3 1699.8 2249 1693.8 2249.7 1687.5 2248.9 1675 2248.9 1669 2243.7 1668.9 2237.6 1668.3 2229.3 1667.9 2225.3 1667.6 2225.5 1665 2225.8 1661.1 2226 1657.5 2224.9 1656.8 2221.1 1655.4 2219 1653.3 2219 1651.3 2221 1649.8 2222.8 1648 2226 1645.2 2230.5 1643.7 2232.2 1646 2234.1 1648.3 2236.2 1647.9 2237.4 1646.4 2237.6 1644.6 2238.8 1641.1 2244.4 1645.7 2247.8 1644.5 2252.4 1643.6 2258.5 1643.3 2266.6 1642.4 2274.9 1641.1 2281.9 1640.9 2288.5 1639.7 2296.6 1639.2 2302.7 1639.6 2306.7 1640.8 2307.2 1645.5 2303.4 1647.3 2300.1 1647.9 2296.2 1648.8 2294.6 1651.4 2294.4 1658 2293.1 1662.4 2289.9 1663 2300.7 1681 2298.8 1683.2 2293.9 1686.9 2298.7 1693.4 2305.8 1706.9 Z" data-holc_grade="C"/>
<path d="M 2197.5 1529 2213.5 1528.8 2213.9 1508.2 2239.7 1508.4 2240.3 1473.6 2275.5 1474 2275.1 1499.9 2263.2 1500.2 2268.1 1522.6 2270.5 1522.2 2297.7 1506.2 2298.1 1509.1 2297.4 1514.6 2301.3 1515.3 2304.7 1514.1 2314.2 1510.7 2324.1 1511.9 2323.5 1558.8 2316.9 1559.8 2315 1588.1 2313.3 1588.1 2300 1586.9 2288.6 1585.9 2286.4 1576 2264.8 1574.4 2259.2 1575.4 2259 1578 2261.9 1582.9 2270.6 1594.4 2278.7 1601.7 2280.4 1607.2 2269.2 1609 2256.8 1607 2244.7 1604.6 2235.9 1602.2 2222.1 1599.4 2215.5 1592.1 2211.9 1589.2 2204.4 1583.2 2195.4 1576.2 2187.6 1568.2 2181.5 1559.5 2176.9 1553.3 2171.3 1548.4 2166.9 1543.4 2159.6 1539.3 2155.7 1536.4 2149.9 1529.6 2151.8 1525.2 2150.4 1522.3 2145.3 1520.2 2139.7 1518.5 2127.1 1516.1 2121.5 1511 2103.8 1511.1 2104.3 1505.7 2104 1499.7 2106.7 1495.8 2095 1484.5 2111.4 1469.9 2112.4 1457.8 2151.5 1457.8 2151.5 1488.5 2146.5 1491.7 2155.4 1500.8 2147.5 1512.4 2148.4 1513.6 2157.7 1520.9 2156.2 1523.8 2171.3 1534.2 2174.7 1529.8 2180.7 1529.1 2188.5 1528.6 2197.5 1529 Z M 2223 1559.6 2223.7 1563.5 2224.6 1565.9 2227.4 1571.4 2230.7 1574 2234.8 1577.5 2237.2 1577.5 2242.6 1575 2251.9 1574.3 2251.2 1542.5 2246 1543.8 2237.5 1549.3 2223 1559.6 Z" data-holc_grade="C"/>
<path d="M 2054.7 1607.2 2055.1 1561.3 2101.2 1562.4 2103.4 1560.2 2113.1 1559.5 2118.2 1567.5 2120.6 1570.8 2122.8 1568.9 2125.2 1560.9 2132.5 1558.3 2133 1547.4 2146.6 1546.6 2156 1543.2 2166.7 1552.2 2174 1559.9 2179.8 1568.6 2187.4 1580.2 2175.5 1589.4 2167.7 1587 2159.2 1585.8 2150.5 1587 2148.3 1585.6 2148.3 1581.2 2146.6 1578.5 2142.7 1581.2 2139.3 1582.2 2138.8 1579.3 2127 1584.9 2118.5 1590.7 2113.1 1596 2111.2 1605 2054.7 1607.2 Z" data-holc_grade="C"/>
<path d="M 1953.8 1563.4 1951.3 1482.1 1950.6 1431.1 1952.7 1429.5 1953.1 1464.2 2020 1463.2 2051.6 1495.8 2051.2 1549.7 2009.9 1551.9 2010 1561.6 2055.1 1561.3 2054.7 1607.2 2019.2 1607.7 2019.5 1624.2 2004.4 1624.7 2003.7 1609.4 2001.5 1608.2 2000.3 1579.7 1972.6 1573.7 1953.8 1563.4 Z" data-holc_grade="C"/>
<path d="M 1951.5 1413.1 1954.5 1412.9 1953.4 1389.1 1963.9 1389.3 1969.4 1389 1974.2 1390.5 1976.7 1400.2 1981.2 1400.5 1982.1 1402.9 1982.4 1408.3 1987.9 1407.7 2003.1 1427 1999.4 1430.1 1988.2 1429.5 1952.7 1429.5 1951.5 1413.1 Z" data-holc_grade="C"/>
<path d="M 2227.1 1410 2226.3 1380.6 2132.2 1377.8 2075.4 1376.4 2057 1377 2055.3 1381.1 2054.1 1405 2057.5 1407.2 2057.3 1421.2 2060.2 1428.4 2062.9 1430.8 2067.7 1428.9 2078.9 1428.6 2090.5 1428.4 2107 1428.1 2110.9 1431.5 2124.3 1434.4 2136.9 1431.2 2145.6 1427.1 2152.9 1422.5 2161.8 1415.5 2168.9 1407.2 2193.1 1409.6 2227.1 1410 2196.8 1409.9 2196.8 1437.2 2153.6 1438 2151.5 1457.8 2112.4 1457.8 2111.4 1469.9 2095 1484.5 2086.9 1476.5 2062.2 1452.1 2054.4 1458.4 2043.7 1455 2041.9 1453.4 2018 1432.1 2027.7 1419.3 2019.4 1410.1 2001.2 1409.2 2003.6 1393.5 1968.7 1359.2 1992.7 1359.1 2040.7 1359.1 2103 1358.3 2245.2 1360.5 2247 1407.8 2245.8 1410 2227.1 1410 Z" data-holc_grade="C"/>
<path d="M 536.2 1698.3 544.8 1693.6 550.8 1690.3 560.7 1684 566.3 1681.5 589.8 1680.8 590 1674.8 602.9 1673 605.1 1674.1 632.4 1674.2 632.4 1683.4 598.5 1683.3 598.4 1687 583.1 1687.1 581.9 1709.8 549.7 1708.8 549.3 1714.4 557.5 1715.7 558 1720.4 559.9 1722.1 567.9 1722.3 576.8 1728.5 593.5 1729.6 592.2 1751.3 576.2 1750.6 575.1 1748.2 573.5 1740.2 569.9 1733.2 566.4 1730.2 563.7 1727.5 554.6 1727.1 552.8 1725.5 551.9 1721.1 547.3 1718.1 544.6 1716.8 542.8 1711.7 540.8 1706.4 536.2 1698.3 Z" data-holc_grade="C"/>
<path d="M 1953.4 1389.1 1954.5 1412.9 1951.5 1413.1 1936.3 1413.8 1937.3 1435 1937.3 1441.3 1936.7 1448.3 1936.4 1454.3 1932.7 1457 1926.1 1458.9 1920 1458.9 1913.9 1458.6 1911.2 1460.1 1909.1 1465.8 1905.5 1472.2 1901.2 1477.3 1893.3 1480 1891.5 1482.4 1948.8 1481.2 1951.3 1482.1 1953.8 1563.4 1948 1563.1 1932.5 1556.4 1920.4 1550.4 1915.5 1544.1 1907.3 1536.2 1903.7 1529.3 1897.3 1528.7 1891 1531.1 1883.7 1532.6 1876.4 1530.8 1868.8 1530.8 1860.6 1528.7 1855.8 1526.6 1855.5 1521.5 1856.7 1515.7 1858.8 1510.3 1861.5 1502.1 1862.7 1497.9 1866.3 1493.7 1875.7 1491.8 1879.7 1491.5 1879.1 1487 1877.3 1487.6 1873.6 1489.1 1868.8 1487 1865.4 1487 1859.1 1485.2 1855.7 1479.2 1849.3 1474 1838.4 1471.3 1834.2 1470.1 1833.3 1456.8 1833 1454.1 1836.9 1450.5 1842.3 1441.4 1845.1 1432.9 1844.2 1429.9 1842.9 1430.2 1835.7 1431.1 1831.7 1427.8 1822.9 1427.2 1813.8 1428.1 1812.6 1438.1 1804.7 1439.3 1804.8 1471.6 1789.3 1472 1788.4 1463.8 1785 1462.6 1777.2 1462 1772 1454.4 1768 1445.7 1765.3 1433.6 1764.7 1427.3 1772 1428.2 1779.6 1428.1 1779.6 1413.3 1778.3 1411.8 1772 1411.2 1763.5 1412.1 1757.4 1415.2 1754.1 1418.5 1701 1418.8 1697.4 1408.3 1688.6 1408 1689.5 1399.8 1749.2 1400.7 1751.9 1397.7 1751.9 1363.3 1755.3 1363.4 1756.9 1367.6 1756.5 1387.5 1811.3 1389.1 1812.4 1409 1842.8 1408.8 1844.4 1407.9 1840.8 1404.3 1835 1397.2 1831.3 1390.5 1829.7 1385.6 1823.7 1372.2 1854.2 1371.3 1854.6 1361.3 1869.6 1362.5 1874.7 1360.7 1875.3 1321.4 1881.1 1325.4 1887.7 1326.6 1892.6 1329.9 1892.6 1335 1895.9 1337.7 1900.8 1342 1902 1346.8 1902.6 1351.9 1913.8 1352.8 1913.6 1371.9 1923 1372.4 1932 1372.4 1941.4 1371.5 1946.3 1368.2 1952.4 1365.5 1953.4 1389.1 Z" data-holc_grade="C"/>
<path d="M 1813.6 1300.5 1787.6 1300.7 1771.2 1305.9 1772.2 1332 1786.7 1327.9 1791.8 1332.6 1800.5 1329.8 1816.8 1359 1756.4 1359.4 1755.3 1363.4 1751.9 1363.3 1738.9 1363 1738.5 1333.5 1730.5 1333 1730.5 1329.3 1735 1321.4 1730.7 1318.8 1726.3 1324.3 1722.7 1326.1 1718.3 1326.1 1714.7 1329 1710.5 1318.8 1710.7 1316.3 1715.2 1309 1712.8 1306.3 1708.1 1305.2 1703.7 1304.7 1701.4 1300.9 1698.8 1296.7 1697.2 1293.1 1693.7 1293.1 1691.9 1291.1 1691.9 1288.8 1690.6 1286.9 1687.5 1286.9 1686.6 1283.9 1690.1 1278.1 1699.4 1265.7 1703.9 1264.1 1704.5 1293 1719.5 1293.3 1794.7 1293.3 1795.3 1271.8 1799 1271.8 1797.9 1260.4 1820.5 1278.9 1814.7 1286 1813.6 1300.5 Z" data-holc_grade="C"/>
<path d="M 1971.7 1287.9 1971.8 1350.2 1993.9 1350 1994.1 1314.4 2007.2 1314.2 2028 1313.9 2027.3 1323.6 2040.9 1325 2040.7 1359.1 1992.7 1359.1 1968.7 1359.2 1944.4 1336.2 1864.6 1306.6 1864.3 1293.5 1889.8 1294 1889.3 1289.7 1912.1 1289.6 1913.8 1313.3 1923 1317.2 1926.4 1311.4 1933.2 1305.8 1941.9 1303.6 1944.8 1301.4 1944.1 1296.4 1944.1 1292.7 1946.3 1291.5 1955 1291 1954.3 1286.7 1971.7 1287.9 Z" data-holc_grade="C"/>
<path d="M 2040.7 1359.1 2040.9 1325 2027.3 1323.6 2028 1313.9 2007.2 1314.2 2007.1 1282.5 2056.1 1282 2056.1 1264.1 2116.8 1296.2 2118.1 1336.5 2104.2 1337.5 2103 1358.3 2040.7 1359.1 Z" data-holc_grade="C"/>
<path d="M 1922.2 1215.7 1922.3 1217.5 1916.4 1220.5 1984.1 1243.7 1982.4 1266.6 1972 1267.1 1971.8 1283 1971.7 1287.9 1954.3 1286.7 1953.5 1240.3 1935.1 1240.3 1886.3 1241.4 1847 1242.3 1845.8 1229.5 1793.2 1227.9 1793.2 1236.6 1782.5 1236.3 1782 1206.9 1801.4 1207.3 1802.6 1216 1807.5 1215.9 1814 1215.8 1814.3 1194.5 1829.8 1194.8 1862.3 1202.9 1862.3 1208.3 1891.6 1209.4 1892.6 1215.5 1922.2 1215.7 Z" data-holc_grade="C"/>
<path d="M 1766.5 1265.2 1773.4 1278.5 1778.4 1278.5 1778 1277.1 1776.6 1271.6 1795.3 1271.8 1794.7 1293.3 1719.5 1293.3 1732 1270.2 1724.9 1270.7 1724 1268.9 1729.6 1261.5 1716.4 1260.9 1716.4 1244.6 1738.9 1244.7 1739.8 1246.1 1735.8 1254.1 1735.7 1255.6 1741.9 1256.2 1738.6 1264.5 1766.5 1265.2 Z" data-holc_grade="C"/>
<path d="M 1548.3 1152.3 1548.9 1163.6 1559.5 1163.9 1569.2 1167.8 1577.2 1171.2 1578.7 1174.2 1578.7 1179.8 1578.7 1188.2 1580.4 1194 1584.1 1201.4 1583.6 1207.5 1581.9 1208 1579.4 1205.3 1576.2 1208.1 1546.3 1207.4 1534.5 1206.6 1525.5 1204.2 1514.9 1204.7 1510.4 1203.2 1510.7 1152.4 1548.3 1152.3 Z" data-holc_grade="C"/>
<path d="M 1621.6 1168.9 1620.8 1145.2 1634.1 1145.3 1634 1114.5 1646.4 1115.2 1646.5 1126.6 1658 1126.2 1659.1 1149.5 1677.2 1149.3 1678 1189 1660.8 1189.7 1653.4 1196.7 1652.5 1190.9 1639.6 1191 1639.5 1169.3 1621.6 1168.9 Z" data-holc_grade="C"/>
<path d="M 2100 1187.9 2100.8 1203.8 2119.4 1204.4 2119.5 1236.4 2102.5 1238 2102.7 1267.9 2041.7 1247.6 2029.3 1242.9 2016.7 1238 1988 1227.1 1996 1221.8 2004.7 1214.1 2015.1 1208.5 2018 1206.6 2018.5 1187.6 2100 1187.9 Z" data-holc_grade="C"/>
<path d="M 1843.9 1056.7 1841.4 1056.4 1841.4 1069.1 1847.2 1068.8 1848.4 1093.9 1860.9 1093.9 1860.9 1112.9 1921.8 1112.2 1923 1094.1 1932.4 1094.1 1955.4 1088.3 1955.8 1170.2 1977.9 1169.5 1979.1 1134.5 2016.7 1136 2020 1136 2018.5 1187.6 2018 1206.6 2015.1 1208.5 2004.7 1214.1 1996 1221.8 1988 1227.1 1959.6 1218 1922.3 1217.5 1922.2 1215.7 1922 1204.5 1891.7 1205 1890.9 1193.9 1861.6 1192 1861.6 1176 1824 1175.1 1822.3 1159.2 1813.6 1159.4 1812.8 1125.8 1806.8 1124.6 1807.2 1074.4 1809.1 1073.2 1824.2 1071 1832.4 1071 1832.4 1068.3 1831.9 1064.5 1829.5 1061.6 1826.8 1059.7 1828.3 1053.4 1827.9 1050.6 1843.9 1056.7 Z" data-holc_grade="C"/>
<path d="M 511.9 1593.4 582.9 1593.3 583.6 1615.1 557.8 1659.3 555.4 1659.8 545.4 1652.2 544 1651.3 540.2 1644.6 538 1639.5 533.9 1625.5 532.6 1619.5 532.4 1613.2 530.6 1609.7 527.9 1606.3 522.6 1603.7 520.3 1601.7 516.6 1600.1 514.1 1597.7 511.9 1593.4 Z" data-holc_grade="C"/>
<path d="M 1951.7 1033.1 1951.4 1039.7 1954.4 1039.7 1993.6 1037.1 1993.3 1049.6 1993 1081.7 2015.7 1081.9 2016.7 1136 1979.1 1134.5 1977.2 1057.2 1923.5 1056.4 1923.5 1031.9 1916.9 1031.3 1916.5 1025.3 1915.9 1015 1925 1015 1925.8 1007.3 1951.7 1033.1 Z" data-holc_grade="C"/>
<path d="M 1916.5 1025.3 1862 1024.7 1861.5 1018.8 1811 1018.6 1808.6 1016.2 1773.5 1014.8 1773.5 1032.4 1767.7 1036.3 1766 1036 1766 1035.8 1766.4 1012.8 1766.9 1007.5 1773.2 990.6 1781.5 990.9 1786.8 982.5 1793.2 966.6 1796.7 958.3 1830.6 954 1857.6 953.7 1881.5 952.8 1884.2 957 1915.1 956.1 1916.3 952.8 1920 966.2 1924.6 967.9 1925.8 1007.3 1925 1015 1915.9 1015 1916.5 1025.3 Z" data-holc_grade="C"/>
<path d="M 1906 895.1 1907.5 933.2 1916.9 934.1 1916.3 952.8 1915.1 956.1 1884.2 957 1881.5 952.8 1857.6 953.7 1830.6 954 1796.7 958.3 1799.4 951.1 1801.2 946.5 1829.1 944.7 1830 939.3 1855.7 938 1855.4 931.7 1856 921.4 1860.3 915.4 1826.9 890.1 1837.8 875.3 1846.2 876.6 1848.2 879.9 1849 884.6 1854.4 890 1861.7 890.7 1874.2 892.6 1890.8 892.3 1891.8 890.6 1906 895.1 Z M 1865.2 883.3 1863.4 885.3 1858.3 884.9 1852.7 878 1851 872.9 1848.9 869.6 1849.1 865.4 1846.2 861.6 1842.5 857.9 1837.7 861.8 1831.4 865.2 1829.3 863.8 1821.1 854.2 1812.3 843 1811.4 840.6 1810.2 830.3 1809.3 822.8 1808.1 815.9 1812.4 815.1 1815.3 814.6 1818.1 815.9 1820.2 820.7 1822.3 824.6 1829.3 828.8 1831.1 833.3 1832.6 840.3 1835.1 845.1 1838.4 850.8 1843.8 849.6 1848.1 843.9 1853.6 831.5 1861.6 836.9 1860.9 838 1860.3 860 1861.4 872.1 1860.8 879.3 1865.2 883.3 Z" data-holc_grade="C"/>
<path d="M 1866.5 741.4 1871.3 739.9 1876 741.7 1871.3 752.9 1870.3 764.1 1839.4 796.8 1828.1 807.1 1826 803.2 1823.4 792.1 1821.6 785.4 1822.5 781.6 1825.8 777.6 1829.9 773.3 1831.2 766.4 1829.9 762.2 1827.7 759.9 1821.7 758.6 1814.3 758.6 1803.6 764.4 1799 761 1794.5 757.9 1790.7 755.9 1789.8 752 1789 747.4 1789.4 740.6 1788.8 733.9 1788.8 726.1 1791.7 720.8 1793.5 713.8 1792.8 708.7 1788.6 704.9 1783.4 700.7 1775 702.9 1771 703.5 1767.9 698 1764.8 693.2 1762.5 686.6 1758.6 679.4 1751.9 674.3 1749.9 669.8 1748.6 666 1744.3 663.7 1739.9 655.2 1736.5 643 1734.6 632.4 1739.2 631.9 1740.7 638.2 1759.6 638.4 1759.6 643 1752.8 644.7 1752.6 651.9 1755.7 653.1 1755.7 668.8 1768.6 667.1 1769.5 676.3 1768.3 678.9 1769.1 683.3 1771.5 681.6 1774.1 692.9 1785.5 691.2 1794.7 688.6 1796.7 692.7 1796 704.7 1800.8 705.7 1800.8 720.2 1804.2 722.4 1804.7 727.9 1813.4 731 1831.6 732.7 1850.5 731.5 1851.5 739.5 1860.2 738.7 1862.1 742.3 1866.5 741.4 Z" data-holc_grade="C"/>
<path d="M 1770.3 739.2 1687.7 740.4 1674.3 722.6 1673.4 671.9 1679.8 671.3 1680.1 661.7 1706.7 645.1 1708.8 649.6 1717.9 645.6 1719.4 644.9 1723.7 657.4 1727.2 656.2 1733 667.3 1730.1 671.1 1735.7 680.3 1740 678.9 1744 688 1741.8 691 1780.4 715.6 1778.9 726 1770.3 739.2 Z" data-holc_grade="C"/>
<path d="M 1883.1 686.6 1866.2 686.1 1856 685.6 1837.6 687.8 1835.9 685.7 1837.8 653.1 1840.5 654.5 1846.8 654.5 1854.5 652.3 1869.1 650.2 1879.5 647.5 1884.6 647.5 1883.1 686.6 Z" data-holc_grade="C"/>
<path d="M 1837.4 515.2 1840.4 512.5 1858.4 502.2 1864.4 498.3 1879.3 490.6 1883.5 499.9 1872.4 508.2 1866.8 510.4 1870.1 521.6 1898.2 519.6 1914.6 544 1918.2 544.3 1917 579.1 1914.5 635.2 1913.4 640.1 1893.2 641.2 1890.1 639.2 1887.9 635.6 1885.4 633.7 1881.6 628.9 1877 620.7 1873 619.1 1871.9 616.2 1869.6 606.3 1865.9 601 1855.9 596.9 1843 590.2 1841.4 586.7 1841.9 566.7 1837.9 555.6 1836.1 550 1841.4 547.1 1841.4 535 1849.4 533.9 1852.1 531.4 1848.1 527.9 1837.4 515.2 Z" data-holc_grade="C"/>
<path d="M 1974.4 521.6 1975 526.6 1975.2 528.3 1981.3 528.5 1986.1 533.3 1987.2 540.5 1958 541.8 1925.1 542.3 1926.8 538.5 1943.5 520.6 1956.6 507.8 1967 510.2 1971.6 513.3 1974 518.4 1974.4 521.6 Z" data-holc_grade="C"/>
<path d="M 1937.2 634.1 1935.7 638.4 1931.9 638.1 1925 639.4 1925.2 606.2 1925.2 595.6 1925.6 575.1 1925.1 542.3 1958 541.8 1987.2 540.5 1992.4 540.3 2001.4 540.3 1999.9 544.6 2000.2 551.4 1996.3 557.2 1989.5 559.1 1983.2 559.1 1981.3 577 1980.6 580.1 1987.9 582.1 1987.9 585.2 1970 606 1962.7 615.9 1959.1 616.6 1955.5 620 1954 623.8 1949.2 621.2 1944.6 620.2 1940.7 623.4 1937.2 634.1 Z" data-holc_grade="C"/>
<path d="M 2101.3 573.3 2099.5 590.1 2093.9 591 2073.3 591.8 2062.8 592.2 2054.5 592.9 2051.6 592.7 2044.6 592.2 2036.5 590.4 2030.3 597.1 2024 603.1 2018 609 2015.6 609.6 2014.3 612.5 2016.3 616.3 2016 618.3 2013.1 623.5 2005.8 630.1 1998 637.1 1994.6 641.1 1990 648 1965.7 678.4 1955.8 692.4 1951.2 698.3 1955.6 701 1971.8 709.5 1981.4 713.5 1999.2 722.7 2001.9 724.7 2001.8 739.9 1976 739.5 1967.6 739.4 1967.2 735.6 1967.8 723.7 1968 717.7 1962.3 715.9 1954.1 710.6 1949.2 707.7 1944.9 701.1 1920.2 734.9 1916.7 732.6 1911.6 729.5 1904.9 722.1 1901.8 715.9 1895.6 711.1 1889.3 706.2 1883.4 703.7 1883.1 686.6 1884.6 647.5 1886.5 646.3 1886.8 644.1 1890.1 639.2 1893.2 641.2 1913.4 640.1 1913.6 647.4 1912.8 653.5 1916.9 658.4 1915.4 666.3 1914.8 675.2 1913.1 684.2 1909.9 690 1914.3 687.1 1918.3 689.4 1921.2 692.6 1921.8 687.4 1921.2 682.8 1928.5 672.7 1925.2 669.6 1928.7 664.9 1922.7 660 1926.6 653.8 1927.2 650.4 1922.1 646.6 1925 639.4 1931.9 638.1 1935.7 638.4 1937.2 634.1 1944.3 640.8 1946.1 642.2 1949.3 637.4 1959.7 647.7 1968.8 636.4 1959.9 628.3 1966 621 1976.6 608.4 1983.6 599.5 1994.7 589.9 1994.2 586.3 1994.7 584.3 1997.4 582.8 2007.2 568.7 2016.8 576.7 2024.6 566.2 2031.9 557.5 2036.2 551.7 2046 541 2050.8 543 2053.6 545.2 2056.9 547.8 2060.4 550.2 2049.3 565.6 2054.4 570.8 2061.2 575.2 2078.6 584.4 2082.1 585.8 2086.8 574 2090.4 572.2 2101.3 573.3 Z" data-holc_grade="C"/>
<path d="M 608.7 1129.5 608.4 1159.3 618 1159.2 616.7 1185.8 598.7 1184.6 596.9 1201.1 574.5 1214.4 570.1 1211.8 570.5 1201.1 548 1201.3 546.8 1231.2 532 1237.5 526.7 1238.4 501.9 1255.1 472.2 1271 474.2 1189.5 555.3 1190 556 1167.7 573.4 1166.3 576.4 1128.9 608.7 1129.5 Z" data-holc_grade="C"/>
<path d="M 1860.9 838 1877.2 838.4 1886.7 836.2 1887 828.9 1888.1 811.9 1889.5 805.4 1896.8 793.8 1899 788.4 1932.4 789.6 1977.8 767.2 1975.9 762.1 1974.7 758.5 1976 739.5 2001.8 739.9 2001.9 724.7 2015 732.5 2020.1 740.3 2023.5 746.7 2028.6 761.1 2024.7 764.5 2034.4 773.8 2031.4 781.4 2029.9 779.2 2014.1 781.1 2009 786.8 2008.7 791.6 2000.8 792.6 1985.4 796.5 1961.1 798.6 1944.5 804.4 1929.4 815 1923.6 824.6 1925.1 843.6 1921.5 843.6 1907 843.9 1887 842.8 1880.6 847.6 1874.9 852.7 1865.2 858.5 1860.3 860 1860.9 838 Z" data-holc_grade="C"/>
<path d="M 2348.9 637.4 2347.5 713.2 2330.4 712.9 2321.9 712.9 2304.3 712.4 2285.9 711.3 2285.4 733.4 2280.7 732.7 2271.1 733.2 2270 736.9 2262.2 735.6 2261.9 708.5 2246.5 706.1 2246 712.3 2242 715.4 2236.9 721.9 2237.8 728.8 2235.8 736 2217.1 737.9 2213.8 735.1 2213.5 729.2 2214.7 715.2 2217.8 711.1 2215.8 706 2227 706.1 2233.2 704.3 2233.5 690.9 2232 687 2229.9 683.3 2228.4 678.3 2254.2 677.5 2255.6 663.4 2267.6 663.4 2268.9 630.2 2283.8 628.2 2291.7 619.8 2297.8 619.5 2319.8 614 2349.5 607.3 2348.9 637.4 Z" data-holc_grade="C"/>
<path d="M 2521.3 636.1 2518.5 707.7 2527.8 708.8 2527.7 758 2512.6 757.2 2511.7 776 2447.2 775.6 2445.7 739.1 2396 739.2 2396.2 718 2390.8 720 2390 712.6 2372 713.1 2347.5 713.2 2348.9 637.4 2399.2 637.3 2398.6 589.8 2446.8 590.6 2448 634.6 2521.3 636.1 Z M 2439 688.4 2438.6 708.8 2449.9 708 2450.6 689 2439 688.4 Z" data-holc_grade="C"/>
<path d="M 2527.7 758 2527.8 708.8 2518.5 707.7 2521.3 636.1 2621.6 637.3 2622.4 624.3 2629.9 624 2629 703.9 2634.5 705.1 2635.5 749.9 2612.8 749.1 2612.4 715 2594.4 714.4 2594.2 756.4 2575.6 756.2 2575 738.2 2552.3 738.6 2551.7 715.7 2541.5 716 2540.5 768.4 2527.1 770.2 2527.7 758 Z" data-holc_grade="C"/>
<path d="M 2116.3 540.7 2099.4 540.9 2083.4 541 2059.2 541 2055.3 540.5 2053.6 545.2 2050.8 543 2050.2 536.4 2052.6 532.3 2043.2 524.1 2059.1 508.7 2066.2 516.9 2066.6 520 2070.8 516.1 2071.2 513 2065.9 507.5 2057.2 498.3 2067.1 487.4 2071.9 491.3 2077 496.8 2081.6 503.8 2087.9 499.5 2097.1 491.3 2095.4 487.6 2083.3 476.6 2083 473.4 2087.2 470.8 2082.1 465.5 2083.5 462.3 2092.2 449.1 2100.4 440.4 2124.2 462.5 2123 467.1 2131.5 477.7 2130 483.2 2122.3 489.5 2116.2 482.8 2112.1 483.8 2111.9 486.9 2119.4 491.9 2121.6 495.8 2121.1 503.3 2113.8 512.7 2107.6 515.8 2109.3 519 2121.6 521.1 2123.8 522.6 2120.9 529.3 2115.8 535.1 2116.3 540.7 Z" data-holc_grade="C"/>
<path d="M 2271.3 346 2271.4 348.4 2268.3 350.7 2265.6 354.7 2262.5 355.6 2259.2 356.5 2248 362.7 2235.1 368.9 2222 374 2213.7 377.6 2211.5 381.6 2210.4 382.7 2207.7 385.4 2198.6 393.5 2195.4 396.6 2195.6 398.6 2200.1 399.7 2201.9 401.5 2198.8 405.7 2193.8 409.6 2188.1 409.7 2182 411.3 2178.7 415.6 2180.5 422.1 2181.8 427.4 2177.4 428.8 2167.3 437.7 2165.6 439.5 2159.9 445.7 2150.4 454 2149.5 456.7 2147.4 456 2141.7 451.9 2136.4 446.3 2142.2 440.7 2148.4 432.9 2144.8 429.1 2138.4 422.2 2133.5 418.4 2128.6 413.9 2125.1 411.4 2144.7 395.8 2167.3 417.3 2187.2 395.9 2181.4 391 2171.7 381.3 2165.7 376.6 2175.4 369.4 2177.5 368 2183 372 2185.2 374.6 2193.5 376.2 2195.9 379.3 2198.3 382.7 2202.6 384.5 2205.7 380.9 2207.9 376.2 2206.2 373.6 2203.3 368 2203.9 365 2208.4 361.5 2217.6 358.4 2225.4 353.9 2227.1 357.3 2228.9 361.3 2232.5 361.7 2236.7 359.3 2237.2 353.3 2234 346.1 2231.6 338 2230.8 329.7 2231.7 325.1 2242.8 324.6 2250.4 324.4 2250.4 326.9 2262.6 326.9 2271.1 326.3 2270.6 330.7 2270.6 335.2 2271.2 342.2 2271.3 346 Z" data-holc_grade="C"/>
<path d="M 2210.4 382.7 2211.5 381.6 2213.7 377.6 2222 374 2235.1 368.9 2248 362.7 2259.2 356.5 2262.5 355.6 2265.6 354.7 2268.3 350.7 2271.4 348.4 2271.3 346 2277.1 341.9 2285.5 335.2 2295.3 325.7 2304.9 318.1 2319 306 2325.4 302 2332.8 293.1 2336 289.7 2343.9 296.2 2340.8 300.3 2335.2 305.8 2328.5 311 2328.3 313 2329.7 318.1 2321.6 325.2 2319.1 328.8 2322 334 2316.9 342 2316.9 345.6 2322 346.7 2326.2 348.7 2325.8 363.3 2322.4 364.2 2314.8 364.8 2313.1 365.5 2312.1 376.5 2310.6 378.5 2301 381.8 2291.4 383.8 2284.1 385.8 2280.1 385.6 2278.5 383.3 2278.7 370.8 2276.8 372.3 2272.5 372.4 2268.8 371.2 2259 372.1 2248 372.5 2247.4 380.4 2244.5 381.2 2234.2 379.2 2228.6 377.8 2225.3 382.6 2220.8 391.7 2217.9 390.1 2213.9 386.1 2210.4 382.7 Z" data-holc_grade="C"/>
<path d="M 1966.6 364.9 1969.5 365.5 1992.6 347.4 2002.5 349.5 2006 346.8 2006 344.1 2005.4 322.9 2002 320 2002.9 313.9 2002.5 312.5 2001.8 309 2008.7 299.2 2019.3 289.5 2019.9 312.1 2051.7 299.7 2071.5 298.8 2066 289.6 2053.3 278.2 2040.7 267.2 2060.8 245.1 2119.5 276.1 2124.8 271.7 2129.8 269.6 2130.9 271.5 2131.1 284.7 2131.3 294 2129 295.5 2123.5 297.8 2119 302.4 2116.8 310.1 2121.9 316.6 2125.4 321.3 2124.8 325.9 2123.2 329.7 2111.2 335.6 2108.5 330.6 2094.6 338.9 2073.1 349.6 2054.8 358.3 2031.4 358.5 2031.6 364.5 2021.4 364.9 2017.4 368.9 2001.8 377.9 2001.1 384.2 1961.2 385.4 1949.8 389.4 1944.5 384.7 1951.6 377.2 1959.9 368.4 1966.6 364.9 Z" data-holc_grade="C"/>
<path d="M 2180.6 244.9 2180.1 259.1 2180.3 279.7 2179.7 289.5 2157.3 289.2 2157.3 284.6 2131.1 284.7 2130.9 271.5 2129.8 269.6 2130.4 246.5 2130.4 241.9 2179.4 240.3 2180.6 244.9 Z" data-holc_grade="C"/>
<path d="M 2106.3 240.8 2106.4 241.1 2106.2 240.9 2106.3 240.8 Z M 2106.3 240.8 2106 240.1 2102.3 239.4 2102.1 229.2 2102.3 222.2 2093.1 212.4 2101.5 202.8 2110.8 213.5 2118.7 216.5 2129.9 216.4 2130.4 241.9 2130.4 246.5 2107.9 238.6 2106.9 239.9 2106.3 240.8 Z" data-holc_grade="C"/>
<path d="M 697.3 964.2 688.7 962 680.4 992.5 673.2 992.2 673.6 979.3 661.7 978.9 660.7 992.7 651.9 993.8 652.4 1001.5 634.2 1001.4 628.6 990 627.8 955.9 648.5 957.1 648.2 967.8 631.5 974.9 630.8 977.7 636.6 990.6 648.6 984.9 649.4 977.3 663.6 971.9 666.1 973.6 678.7 965.3 675.5 957.8 692.5 951.2 697.3 964.2 Z" data-holc_grade="C"/>
<path d="M 2278.4 148.2 2285.4 158.4 2290.8 166.2 2316 202.7 2261.9 244.8 2259 243.3 2180.6 244.9 2179.4 240.3 2130.4 241.9 2129.9 216.4 2129.4 174.7 2139.3 160.3 2148.8 169 2138.4 180.4 2143.7 187.1 2137.2 197.5 2174 195 2173.2 178.9 2170.3 176.4 2176.6 169.9 2229.1 166.2 2229.3 144.5 2236.5 136.8 2238.5 128.9 2237 115.4 2244.2 109.1 2244.2 106.2 2246.4 105.5 2263.1 125.9 2278.4 148.2 Z M 2229.3 174.8 2202.2 175.9 2179.1 176.6 2178.4 199 2171.6 198.1 2172.8 210.9 2179.3 210.1 2179.9 202.8 2211.5 205 2229.6 203.1 2229.3 174.8 Z" data-holc_grade="C"/>
<path d="M 2171.7 130.6 2175.4 124.2 2179.2 127.1 2183.3 123.3 2199 144.1 2191.9 148.3 2183.4 136.9 2180.5 140.1 2171.7 130.6 Z" data-holc_grade="C"/>
<path d="M 2246.4 105.5 2244.2 106.2 2244.2 109.1 2223 83.1 2224.2 78.4 2230.4 77.4 2231.9 73.3 2236.8 68.6 2247.1 64.1 2259.5 92.4 2246.4 105.5 Z" data-holc_grade="C"/>
<path d="M 2377.9 84.3 2377.8 155.7 2369.1 163.4 2351.6 175.1 2330 193.2 2325.5 194.8 2320.6 192.5 2318 184.3 2315.6 176.6 2314.7 173.5 2308 173.9 2302.6 175 2299.7 172.1 2299.1 168.8 2299.1 163.8 2298.9 161.2 2293.8 162.5 2290.8 166.2 2285.4 158.4 2278.4 148.2 2283.7 141.9 2295.4 127.3 2301.6 124.5 2320.6 124.5 2323.4 125.6 2326.1 150.5 2325.6 157.2 2312 157.4 2308.7 158.7 2308.9 161.8 2310 163.9 2317.1 163.5 2322.9 163.7 2330.9 163 2335.9 163.3 2337 160.6 2336.2 126.1 2330.1 125.2 2328.2 121.2 2328.6 114 2328.6 103.5 2328.7 95 2326.7 92.5 2307.3 96.9 2303 98.7 2302.1 94.7 2302.6 87.8 2301.5 85 2300.6 83.3 2300 64.2 2341.9 43 2368.3 27.9 2368.5 85.7 2375.7 86.3 2377.9 84.3 Z" data-holc_grade="C"/>
<path d="M 2891.2 1290.1 2904.3 1290 2927.8 1283.3 2970.3 1260.6 2999 1310.6 2987.6 1325.1 2958.8 1326.5 2958.9 1327.7 2975.3 1359.6 2938.4 1359 2906.4 1364.2 2906.4 1368.9 2876.8 1392.3 2874.9 1357.7 2906 1355.6 2908 1345.1 2895.4 1337.2 2891.2 1290.1 Z" data-holc_grade="C"/>
<path d="M 2627.1 1542.9 2702.8 1543.2 2704.3 1550.5 2704.9 1556 2706.4 1561.8 2705.2 1567.9 2701.8 1571.4 2687.5 1573.2 2672.1 1573.2 2661.9 1569.2 2654.9 1565.4 2646.4 1562.8 2640.3 1563.4 2639.7 1571.3 2640.3 1579.7 2643.8 1581.1 2652.6 1588.6 2664.3 1597 2670.7 1597.3 2674.4 1596.4 2675.6 1600.5 2678 1605.4 2681.8 1608 2689.1 1612.9 2695.8 1617.2 2696.6 1618.7 2702.5 1617.8 2704.8 1619.5 2706 1624.5 2712.7 1624.4 2719.4 1624.4 2724.6 1631.7 2717.4 1639.8 2707.8 1639.8 2704.7 1702 2641.2 1700.4 2641.7 1676.6 2623.1 1675.5 2627.1 1542.9 Z" data-holc_grade="C"/>
<path d="M 2412 1700.8 2411.9 1715.9 2384 1715.9 2382.9 1768.5 2359.8 1769.4 2367.3 1777.3 2359.8 1784.8 2350.6 1777.4 2350 1785.5 2337.2 1785.2 2339 1762.7 2314.2 1736.5 2313.7 1708.8 2322.1 1708.3 2321.1 1699.5 2412 1700.8 Z M 2341 1755.8 2356.4 1756.3 2357.3 1742.7 2378.7 1741.6 2379.9 1717.1 2341.3 1715.8 2341 1755.8 Z" data-holc_grade="C"/>
<path d="M 956.7 933 955.7 962.4 946.7 958.6 939.2 957.8 934.5 959.1 930.7 962.3 927.2 964.7 925.1 958.5 902.5 958.1 902.5 993.6 954.5 994.5 954.3 1002 946.2 1001.8 897.5 1000.6 896.3 1005.2 863.8 1004.6 838.4 1004.3 823.1 1006.3 812.2 1006 807.8 1001.4 808.6 958.9 771.1 956.9 770.5 978.2 769.6 979.9 750.4 980.1 743.9 973 744.6 960.3 741.5 958.1 739.8 960.5 740.7 978.8 733.5 975.9 725.2 980.5 716.5 985.6 710.2 979 707.3 985.8 705.1 985.8 697.3 964.2 692.5 951.2 700.2 949.2 753.3 926.9 788.9 926.7 791.1 911 802 911 802.2 928.2 845.4 929.9 891.2 930.2 956.7 933 Z M 825 990.1 828.9 986.5 830.6 996.4 884.2 996 883.7 961.7 824.1 960.1 825 990.1 Z" data-holc_grade="C"/>
<path d="M 1017.1 921.9 1017.2 925.6 1016.7 925.5 1017.6 938 1008.5 935.6 1008.7 939.3 999.8 935.3 990.9 932 982 932.3 981.8 927.8 967.5 928.5 967.1 940.3 982 940.5 995.6 943.6 996.3 953.7 1011.6 955.7 1017.6 958.1 1015.9 1003.4 988.4 1002.8 962.5 1002.2 954.3 1002 954.5 994.5 955.7 962.4 956.7 933 956.9 926.5 958.7 923.3 982 922 982.1 919.6 982.2 917.1 1009.4 924.6 1010.5 920.8 1017.1 921.9 Z" data-holc_grade="C"/>
</g>
<g id="D">
<path d="M 536.2 1698.3 531.7 1692.3 555.4 1674 564.3 1674.1 574.4 1661.9 582.2 1660.8 581.3 1654.1 606.3 1634.6 602.9 1673 590 1674.8 589.8 1680.8 566.3 1681.5 560.7 1684 550.8 1690.3 544.8 1693.6 536.2 1698.3 Z" data-holc_grade="D"/>
<path d="M 2007.2 1314.2 1994.1 1314.4 1978.6 1313.2 1978 1288.4 1971.7 1287.9 1971.8 1283 2007.1 1282.5 2007.2 1314.2 Z" data-holc_grade="D"/>
<path d="M 2029.3 1242.9 2026.6 1247 2027.5 1272.6 2003.6 1272.1 2003.7 1259.7 2006.7 1259.2 2007.9 1242.2 2015.8 1245.6 2016.7 1238 2029.3 1242.9 Z" data-holc_grade="D"/>
<path d="M 1916.5 1025.3 1916.9 1031.3 1923.5 1031.9 1923.5 1056.4 1977.2 1057.2 1979.1 1134.5 1977.9 1169.5 1955.8 1170.2 1955.4 1088.3 1932.4 1094.1 1923 1094.1 1921.8 1112.2 1860.9 1112.9 1860.9 1093.9 1848.4 1093.9 1847.2 1068.8 1841.4 1069.1 1841.4 1056.4 1843.9 1056.7 1861.1 1061.9 1862 1024.7 1916.5 1025.3 Z" data-holc_grade="D"/>
<path d="M 1766 1035.8 1766 1036 1767.7 1036.3 1785.1 1041.4 1786.7 1052.1 1789.8 1052.7 1790.2 1056.3 1792.3 1055.6 1791.8 1059.9 1794 1060.1 1795.1 1063.2 1798.9 1062.1 1798.5 1070.4 1807.2 1074.4 1806.8 1124.6 1812.8 1125.8 1813.6 1159.4 1822.3 1159.2 1824 1175.1 1820.1 1176 1818.8 1183.1 1779.7 1170.6 1767.3 1171 1766.1 1167.7 1755.9 1166.6 1755.3 1100 1748.4 1099.8 1747.8 1094.5 1744.4 1093.1 1744.2 1087.8 1743.1 1078.1 1741.3 1068.6 1742.4 1058.1 1743.1 1046.9 1753.3 1045.6 1753.1 1043.8 1753.4 1032.6 1766 1035.8 Z" data-holc_grade="D"/>
<path d="M 1807.5 1215.9 1802.6 1216 1801.4 1207.3 1782 1206.9 1782.5 1236.3 1783.4 1241.5 1771.6 1241.5 1768 1240.3 1764.6 1235.8 1761 1232.8 1758.2 1230.2 1754.6 1225.5 1751.4 1222.5 1749 1224.9 1748.2 1227.3 1766.5 1265.2 1738.6 1264.5 1741.9 1256.2 1735.7 1255.6 1735.8 1254.1 1739.8 1246.1 1738.9 1244.7 1716.4 1244.6 1716.4 1260.9 1729.6 1261.5 1724 1268.9 1724.9 1270.7 1732 1270.2 1719.5 1293.3 1704.5 1293 1703.9 1264.1 1703.5 1244.3 1709.4 1243.1 1710 1233.2 1737.2 1212.1 1741.3 1213 1745.7 1211.8 1750.8 1204.7 1748.4 1199.9 1740.9 1195.6 1735.9 1201.2 1733.5 1207.1 1730 1214.5 1727.9 1216.9 1716.7 1216.9 1707.2 1215.9 1707.2 1204.6 1713.2 1205 1713.2 1193.1 1718.5 1189.8 1721.8 1188.2 1724.4 1186.3 1728.7 1182.8 1735.3 1178.6 1739 1176.8 1742.2 1177.8 1745.6 1179.5 1749.6 1180.1 1751.9 1178.9 1755.5 1179.3 1761.4 1180.1 1766.7 1179.8 1767.3 1183.8 1789 1184.9 1790.2 1193.8 1807 1194.7 1807.5 1215.9 Z" data-holc_grade="D"/>
<path d="M 1678.5 1097.9 1679.8 1069.2 1690.3 1074.7 1693.9 1073 1708.5 1080 1709 1094.5 1724.7 1094.5 1725.7 1124.4 1708.3 1124.2 1714.6 1145.2 1706.8 1162.1 1722.1 1176.8 1701.5 1195 1700.3 1212.6 1692.3 1213.3 1688.2 1216.2 1689.6 1226.9 1686 1231.9 1687 1249.3 1671.7 1250.1 1668.8 1259 1649.2 1259 1648.4 1248.4 1647.7 1247 1663.3 1247.7 1661.6 1230.2 1676.6 1229.6 1675.8 1218 1644.2 1217.7 1644 1198.7 1653.4 1196.7 1660.8 1189.7 1678 1189 1677.2 1149.3 1659.1 1149.5 1658 1126.2 1646.5 1126.6 1646.4 1115.2 1634 1114.5 1634.1 1145.3 1620.8 1145.2 1621.6 1168.9 1624.5 1170.4 1623.2 1180.2 1617.4 1180.4 1617.6 1188.5 1627.1 1188.2 1628.9 1196.7 1630.9 1246.2 1620.2 1246.6 1619.1 1245 1619.3 1235.6 1618.2 1222.9 1617.8 1217.5 1618.1 1204.9 1616.1 1200 1601.2 1200 1600.8 1192.3 1595.9 1191.4 1594.4 1175.5 1589 1174.6 1587.6 1164.5 1589.1 1156.8 1589 1150.6 1586.1 1148.3 1581.1 1148.3 1573.5 1151.1 1572.3 1148.9 1569 1146.1 1562.9 1145.9 1557.9 1143.8 1555 1141.4 1552.3 1144.7 1550 1143.7 1546.7 1142.8 1543.7 1142.9 1543 1139.3 1541.7 1137.8 1537.3 1136.7 1537.1 1123.9 1551.1 1122.7 1551.5 1119.4 1549.3 1115 1551.2 1111.1 1543.2 1098.1 1513.3 1098.7 1512.1 1081.5 1514.6 1081.5 1543 1081.9 1552 1095.7 1557.1 1093.1 1560.3 1093.4 1561.8 1096 1573.3 1096.6 1573.3 1120.3 1593.8 1118.7 1593.7 1128.6 1604.7 1127.3 1605.2 1108 1606.5 1106.2 1616.7 1105.2 1617.6 1100.9 1622.1 1100.9 1626.5 1101.8 1630.6 1104.4 1633.2 1102.3 1637 1100.8 1642.4 1105.7 1648.8 1109.7 1659.1 1114 1665.9 1117.2 1669.7 1120.2 1672.6 1123.6 1677.3 1122.5 1677.9 1118.1 1678.4 1112.8 1678.5 1097.9 Z" data-holc_grade="D"/>
<path d="M 1679.8 1069.2 1678.5 1097.9 1677.6 1096.2 1668.7 1096.7 1650.5 1096.5 1643.7 1096.5 1638.5 1092.6 1634.9 1088.2 1626.7 1081.9 1617.7 1090.5 1613.5 1090.8 1605.5 1092.5 1602.9 1095.2 1599 1098.2 1591.2 1099.9 1585.9 1099 1580.3 1093.2 1580.5 1080.6 1578.6 1077.7 1574.9 1074.7 1571.5 1072 1568.9 1069.2 1572.4 1065.8 1572 1063 1569.7 1062.6 1566.4 1060.3 1562 1056.3 1564.9 1053.1 1549.2 1053.8 1548.2 1045.4 1549.6 1044.6 1563.6 1045.2 1564.9 1043 1564.1 1025.8 1566.5 1025.8 1566.7 1022.1 1564.8 1017 1559.7 1010.2 1565.6 1005.7 1561.2 1002.5 1553.9 996.3 1546.2 987.9 1536.7 982.6 1536.7 967.8 1539.8 967.7 1542.9 965.1 1545.9 967.5 1550.1 972.3 1554.1 969.3 1577.7 991.5 1579.7 990.6 1584.4 986.7 1584.4 980.6 1589.1 980.2 1594.1 980.5 1599.4 982.1 1602.9 982.1 1608 980.8 1614.4 978.5 1620.4 977.5 1633 974.9 1639.5 973.5 1641.8 974.7 1646 977.2 1648.9 979.6 1649.8 982.9 1653 985.9 1655.9 983.9 1660.4 984.4 1661.6 988 1662.1 1001.9 1661.2 1021.4 1663.5 1022.3 1668 1022 1671.7 1023.5 1672.9 1034 1669.7 1034.5 1662.3 1034.6 1661.1 1039.2 1652.9 1039.5 1652 1042.4 1649.2 1046.4 1645.1 1047 1645.7 1027.1 1642.7 1026.7 1630.8 1026.2 1628.9 1007.8 1617.7 1008.7 1613.6 1006.9 1611.8 996.8 1608 995.1 1604.7 993.2 1602.4 991.4 1596.8 992.4 1596.8 998.1 1598.2 1016.3 1597.9 1027.4 1605.4 1026.4 1611 1032 1614.4 1035.3 1613.5 1039 1615.6 1043.3 1625.6 1043.3 1627.8 1048.1 1630.9 1054.4 1637.9 1055.9 1645.2 1057.3 1648.4 1064.1 1659.8 1073.7 1669.2 1063.6 1679.8 1069.2 Z" data-holc_grade="D"/>
<path d="M 1662.1 1001.9 1661.6 988 1660.4 984.4 1655.9 983.9 1653 985.9 1649.8 982.9 1648.9 979.6 1646 977.2 1641.8 974.7 1639.5 973.5 1647.8 965.2 1655.9 969.5 1662.1 961.2 1668.8 956.1 1691.4 955.6 1721.6 955.7 1722.3 962.4 1729.7 962.8 1729.7 973.1 1735.4 974.2 1734.3 1019.3 1715 1007.7 1715.6 1024.4 1726.7 1027.6 1727.4 1046.6 1714.9 1047.7 1714.1 1059.3 1708.9 1059 1708.5 1024.4 1702.3 1023.6 1702.3 1015.1 1677.8 1014.8 1676.1 1001.9 1662.1 1001.9 Z" data-holc_grade="D"/>
<path d="M 1496.9 843 1498.3 843.3 1604.3 827.6 1611.4 827.8 1612.1 835.2 1621.4 835.4 1621.7 843 1630.5 844.6 1634.8 850.7 1641.2 858.7 1645.9 865.9 1645.7 871.6 1654.1 871 1654.5 873 1655 882.8 1662.8 882.8 1663.7 892.7 1651.6 893.1 1651 927 1675.2 926.8 1675.2 904.5 1683.2 904.7 1683.4 912.5 1690.1 913 1689.2 925.3 1690.3 926.2 1695.2 927.1 1695.7 939.1 1690.6 939.4 1688.6 937.3 1675.9 937.1 1675.9 929.9 1668.1 930 1667 946.3 1666.7 948 1658.7 951.8 1652.3 955 1641 954.3 1640.8 957 1638.5 958.3 1636.1 957.2 1632.5 954.5 1617.9 967.9 1611.8 967 1606.3 966.1 1598 966.6 1596 963.4 1585.2 963.7 1583 960.7 1582.1 941.6 1574.7 938.9 1573 945.3 1568.9 944.7 1572.3 925.7 1554.7 920.8 1554 921.7 1550.1 931.7 1548 931 1545.6 931.5 1538.5 929 1534.9 932.2 1518 913.2 1517.4 911.1 1514.3 910 1512 910.5 1474.9 898.7 1480.9 875.6 1471.3 858.2 1468.5 849.9 1469.8 847.9 1487.1 846.4 1490.3 850 1492 852.2 1493.4 854.6 1495.8 854 1498 852 1497.3 849.5 1496.9 843 Z" data-holc_grade="D"/>
<path d="M 1604.3 827.6 1498.3 843.3 1496.9 843 1495.1 836.3 1490.2 836.5 1488.3 822.7 1467.6 824.5 1466.5 816 1457.5 802.1 1437.1 816.2 1430 810.6 1436.2 804.8 1430.8 796.3 1492.3 758.3 1498.2 767.9 1531.8 747.2 1540.9 762.6 1547 761.5 1558.5 779.8 1564.5 778.5 1569.8 789.8 1578.7 789 1581.2 797.9 1584.1 797.9 1587.2 808.6 1590.1 808.2 1593 820.5 1602.3 819.6 1604.3 827.6 Z" data-holc_grade="D"/>
<path d="M 1012.4 1316.2 1013.4 1332.9 1008.2 1332.9 1007.3 1338.4 1005.2 1343.2 1001.8 1344.4 984.5 1343.8 985.1 1355.3 991.8 1356.8 986.3 1363.7 906.3 1361.8 906.3 1348.5 936.7 1321.9 953.1 1308.3 953.8 1314.1 1012.4 1316.2 Z" data-holc_grade="D"/>
<path d="M 1719.4 644.9 1717.9 645.6 1708.8 649.6 1706.7 645.1 1680.1 661.7 1679.8 671.3 1673.4 671.9 1674.3 722.6 1687.7 740.4 1770.3 739.2 1775.8 739.1 1779.4 766.3 1787.9 773.8 1796.1 775.6 1797 800.6 1810.6 799.7 1808.1 815.9 1809.3 822.8 1810.2 830.3 1771 832.5 1742.5 833.1 1725.9 833.6 1703.5 832.5 1681.4 831.6 1657 829 1649.1 827.3 1636.9 827.6 1630 826.4 1630.4 815.2 1611.1 817 1611.1 805 1601.4 806.2 1597.1 784.7 1587.7 785.7 1586.5 779.6 1579.3 780.2 1578.3 772.7 1571.1 773.9 1558.1 752.5 1549.9 755.5 1541.1 741.3 1537.2 743.4 1533.2 736.2 1601.6 695.5 1602.9 690.6 1609.5 690.9 1612.5 687.6 1618.9 684.3 1638 669.8 1637.4 663.5 1650.7 662 1652.2 665.6 1656.1 666.2 1656.7 654.4 1667 654.1 1668.2 646.9 1671.9 643.6 1673.4 636.6 1682.2 637.8 1684.9 631.2 1692.8 631.5 1693.1 645.7 1704.6 638.1 1705.5 607.1 1714.2 601.6 1715.2 633 1720.6 630 1725.5 641.1 1723.6 642.9 1719.4 644.9 Z" data-holc_grade="D"/>
<path d="M 1810.2 830.3 1811.4 840.6 1812.3 843 1821.1 854.2 1829.3 863.8 1831.4 865.2 1837.8 875.3 1826.9 890.1 1860.3 915.4 1856 921.4 1855.4 931.7 1855.7 938 1830 939.3 1829.1 944.7 1801.2 946.5 1799.4 951.1 1796.7 958.3 1793.2 966.6 1786.8 982.5 1781.5 990.9 1773.2 990.6 1757.1 990.1 1755.4 984.3 1756.5 975.9 1758.6 968.3 1772.5 968 1772.2 963.4 1767.6 960.2 1760.9 959.1 1754.2 959.6 1749.8 957.6 1751.9 952.4 1744.3 947.5 1739.1 948.6 1731.2 942.8 1738.2 932.1 1729.2 926 1703.9 925.8 1703.8 904.9 1689.9 903.8 1689.9 899.7 1680.6 899.4 1678.2 886.4 1674.8 885.5 1674.8 881.2 1673 873.9 1664.6 873.9 1660.8 869.6 1657.6 865.2 1648.3 851.9 1643 845.8 1643.6 835.4 1630.8 835.7 1630 826.4 1636.9 827.6 1649.1 827.3 1657 829 1681.4 831.6 1703.5 832.5 1725.9 833.6 1742.5 833.1 1771 832.5 1810.2 830.3 Z M 1807.9 907.7 1817.8 894.4 1825.1 865.2 1809.1 876.2 1798 877.9 1797.5 888.3 1765.8 891.6 1764.9 925.2 1798.7 925.7 1807.9 907.7 Z" data-holc_grade="D"/>
<path d="M 1891.7 740.6 1885.9 748.6 1881.9 755.4 1892.8 774.6 1896.4 781.9 1899 784 1899 788.4 1896.8 793.8 1889.5 805.4 1888.1 811.9 1887 828.9 1886.7 836.2 1877.2 838.4 1860.9 838 1861.6 836.9 1853.6 831.5 1851.4 828.2 1855 817.4 1853.6 813.4 1845.9 806.2 1839.4 796.8 1870.3 764.1 1871.3 752.9 1876 741.7 1871.3 739.9 1866.5 741.4 1866.5 736.8 1869.1 734.6 1876.4 735.6 1878.6 733.9 1883.7 727.4 1891.7 740.6 Z" data-holc_grade="D"/>
<path d="M 1886.8 644.1 1886.5 646.3 1884.6 647.5 1879.5 647.5 1869.1 650.2 1854.5 652.3 1846.8 654.5 1840.5 654.5 1837.8 653.1 1835.9 685.7 1837.6 687.8 1856 685.6 1866.2 686.1 1883.1 686.6 1883.4 703.7 1883.7 727.4 1878.6 733.9 1876.4 735.6 1869.1 734.6 1866.5 736.8 1866.5 741.4 1862.1 742.3 1860.2 738.7 1851.5 739.5 1850.5 731.5 1831.6 732.7 1813.4 731 1804.7 727.9 1804.2 722.4 1800.8 720.2 1800.8 705.7 1796 704.7 1796.7 692.7 1794.7 688.6 1785.5 691.2 1774.1 692.9 1771.5 681.6 1769.1 683.3 1768.3 678.9 1769.5 676.3 1768.6 667.1 1755.7 668.8 1755.7 653.1 1752.6 651.9 1752.8 644.7 1759.6 643 1759.6 638.4 1740.7 638.2 1739.2 631.9 1734.6 632.4 1732.5 630.2 1732.5 623.7 1731 613.6 1733.7 607.3 1733.9 579.3 1735.8 575.2 1758.4 561.7 1785.4 545.4 1816.6 525.7 1818.5 528.4 1817.9 533.7 1816.7 535.3 1816.5 536.1 1816.4 537.8 1813.6 538.3 1812.4 541.1 1814.6 541.9 1818 541.4 1819.8 540 1821.3 539.4 1821.8 540.8 1823.5 540.9 1824.1 538 1821.8 535.8 1829.1 535.4 1829.2 542.3 1829.6 550 1830.8 554.8 1834.1 556.6 1835.6 558.9 1835.6 562.3 1834.8 569.5 1834.8 575.5 1834.5 580.6 1836.1 586.4 1839.2 589.1 1839.2 591.3 1839.3 594.9 1839.3 597.3 1842.6 596.9 1845.3 597.9 1845.7 600.2 1846.8 601.9 1849.2 603.9 1853.4 602.8 1854.5 604.6 1855.9 606.1 1854.7 607.8 1856.7 609.6 1858.2 609.9 1859.8 611.1 1859.6 615.5 1860.1 619.1 1862.5 620.5 1865.1 621.1 1866.9 622.8 1870.8 624 1873.7 625.8 1875.2 627.6 1876.3 628.8 1876.7 632.8 1877.5 635.5 1879.6 636.6 1881.2 636.6 1884.8 637.6 1887.2 641.2 1886.8 644.1 Z" data-holc_grade="D"/>
<path d="M 1891.7 740.6 1883.7 727.4 1883.4 703.7 1889.3 706.2 1895.6 711.1 1901.8 715.9 1904.9 722.1 1911.6 729.5 1916.7 732.6 1920.2 734.9 1910.2 751.4 1897.1 742 1891.7 740.6 Z" data-holc_grade="D"/>
<path d="M 2177.5 368 2175.4 369.4 2165.7 376.6 2161.2 380.1 2148.1 380.1 2127.3 379.6 2126.8 384.9 2128.5 390 2129 395.5 2126.1 398.7 2120.5 400.4 2116.9 385.4 2115.2 382.8 2105.5 389.3 2104.3 392.7 2109.7 405.2 2108 407.9 2103.4 407.4 2102.4 411.5 2101.2 419.2 2099.8 423.5 2093 428.6 2089.8 424.3 2086.2 416.1 2082.8 410.5 2080.4 408.6 2077 412 2074.3 411.8 2062 424.1 2064.7 429.1 2068.8 435.2 2067.6 438.3 2069 442.2 2072.2 445.5 2071.5 450.8 2061.8 459 2064 463.4 2065.9 465.6 2060.8 469.7 2057.9 471.6 2053.4 477.6 2045.4 482.5 2037.6 488.7 2030.4 496.7 2024.1 504 2020.5 508.1 2015.4 502.3 2011.7 500.1 2006.2 501.3 2002.8 498.9 2000.8 497.2 1999.9 501.3 1991.2 505.7 1991.4 509.3 1995.1 521.6 1995.8 525.5 1989.5 527.4 1987.8 524 1986.6 517.5 1982.2 518.5 1974.4 521.6 1974 518.4 1971.6 513.3 1967 510.2 1956.6 507.8 1943.5 520.6 1926.8 538.5 1926.1 526.2 1925.1 491.8 1927.2 491.8 1939.8 499 1948.6 504 1949.5 499 1948.8 491.5 1949.7 483.3 1947.8 481.6 1941.8 482.8 1934.5 479.7 1932.5 477.8 1933.3 473.2 1931.6 471 1930.4 468.6 1924.8 469.6 1925.8 467.2 1952.1 451.2 1966.9 452.6 1987.2 440.8 2006.8 429.2 2039 408.7 2057.6 396.1 2059.8 401.9 2072.4 394.9 2076.5 404.5 2109.6 373.1 2106.9 368.3 2113 360.8 2124.3 350 2135.5 342.2 2141.5 345.6 2145.6 342.7 2154.4 350.9 2162.1 344.4 2168.6 350.1 2162.1 356.7 2162.8 358.8 2172.5 355 2174.5 356.9 2174.9 361.2 2178.6 361.2 2182.7 360 2184.9 362.9 2178.8 367.1 2177.5 368 Z" data-holc_grade="D"/>
<path d="M 1949.8 389.4 1961.2 385.4 2001.1 384.2 2001.8 377.9 2017.4 368.9 2021.4 364.9 2031.6 364.5 2031.4 358.5 2054.8 358.3 2073.1 349.6 2094.6 338.9 2108.5 330.6 2111.2 335.6 2123.2 329.7 2124.8 325.9 2125.4 321.3 2121.9 316.6 2116.8 310.1 2119 302.4 2123.5 297.8 2129 295.5 2131.3 294 2131.1 284.7 2136.1 291.7 2141.9 299.9 2145.1 307.1 2148.7 316.3 2132.7 317 2131.5 322.6 2131.6 331.3 2114.1 343.1 2110 340.9 2109.3 340 2099.4 345.8 2088.3 353 2082.7 355 2076.9 358.8 2067.9 361.5 2058.8 365.6 2053.2 367.1 2047.4 367.1 2034.6 366.1 2035.3 372.4 2032.6 378.4 2019.6 376.5 2019.1 391.2 2001.4 389.3 2000.2 408.6 1975.3 409.3 1974.3 421.6 1951.6 422.4 1950.6 441.2 1916.8 444.6 1915.5 443.9 1915.8 429.4 1932.2 415.9 1932 399.5 1948.2 398.3 1949.8 389.4 Z" data-holc_grade="D"/>
<path d="M 2261.9 244.8 2260.8 251.1 2211.6 285.7 2206.9 279.5 2203.1 271.1 2202.2 266.4 2200.5 263.4 2196.1 263.4 2195.7 258.9 2180.1 259.1 2180.6 244.9 2259 243.3 2261.9 244.8 Z" data-holc_grade="D"/>
<path d="M 2229.3 174.8 2229.6 203.1 2211.5 205 2179.9 202.8 2179.3 210.1 2172.8 210.9 2171.6 198.1 2178.4 199 2179.1 176.6 2202.2 175.9 2229.3 174.8 Z" data-holc_grade="D"/>
<path d="M 1310.4 1009.9 1301.6 1023.3 1291.7 1027.4 1275.6 1030 1264.7 1028.5 1262.3 1026.7 1253.7 1019.1 1245.2 1019.8 1244.1 1032.3 1242.8 1033.7 1230.5 1038.3 1213.2 1053.3 1212.8 1060.7 1163.9 1102.5 1141.3 1103.6 1140.6 1121.2 1131.7 1128.8 1122.2 1129.1 1121.7 1136.7 1113.1 1146.1 1090.9 1146.1 1087.3 1147.6 1087.8 1172.2 1045.9 1215.1 1041.4 1219.4 1038.8 1219.1 1037.6 1213.5 1038.5 1207.3 1043.4 1201.9 1043 1195.9 1040.9 1197.9 1013.2 1218.1 1013.5 1245.7 983.2 1246 975.1 1254.3 995.3 1255.1 995.7 1259.8 990.6 1259.8 988.6 1264.5 982 1265.2 982 1268.8 959.5 1268.6 953.1 1268.3 954.3 1215.9 1003.7 1217.2 1019 1202.9 1052.5 1175.9 1049.9 1171.6 1052.8 1171.8 1079 1170.9 1078.7 1143.1 1086 1138 1111.7 1137.8 1113.4 1118 1125.3 1118 1125.3 1112.2 1135.3 1110.8 1135.3 1094.6 1148.1 1094.4 1151.5 1092.2 1152.7 1085.2 1162.9 1085.4 1170.9 1086.6 1180.6 1078.2 1199.8 1060.6 1211.2 1051.2 1211.3 1024.8 1225.7 1024.7 1231.3 1018.6 1241 1008.8 1255.4 1008.5 1267.5 1019.2 1279.9 1018.6 1287.4 1018.3 1296.5 1017.1 1300.4 1009.4 1310.4 1009.9 Z" data-holc_grade="D"/>
<path d="M 988.4 1002.8 987.7 1020.9 982.2 1024.3 983.7 1030.1 959.7 1042.2 962.5 1002.2 988.4 1002.8 Z" data-holc_grade="D"/>
<path d="M 1211.3 963.1 1206.1 964.8 1189.5 970.6 1177.3 974.2 1171 974.5 1161.9 974 1161.3 965.3 1134.8 955.7 1134.3 953.7 1136.9 952.4 1151.2 945.4 1155.4 952.3 1158.1 952.6 1162.8 954.1 1168.4 954.1 1171.9 954.6 1176.8 953.2 1179.9 953.7 1182.8 953.2 1189.7 950.3 1190.3 934.4 1193.4 931.3 1194.8 931.8 1196.8 952.3 1203 949 1201.7 927.1 1208.6 921.9 1211 923.1 1210.8 933.7 1213.5 935.1 1219 935.6 1232.1 934.6 1231.5 923 1243.9 919 1245 929.1 1257 923.7 1258.6 924.4 1261.5 926.4 1264.4 926.8 1267.9 926.3 1268.6 927.9 1272.1 926.6 1275.9 928.1 1277.7 930.6 1283.1 929 1288.6 929.2 1296.8 924.3 1303.1 922.7 1309.7 916.1 1310.4 913.2 1305.7 909.6 1302.1 901.3 1314.3 860.4 1334.1 867.3 1335.1 869.8 1330.1 885 1331.7 886.1 1335.1 886.5 1337.9 886.6 1340 888.1 1343.5 889.2 1346.4 892.6 1329.1 906.7 1331 909.8 1332.2 913.3 1333.9 924.1 1335.1 929.2 1336.8 928.5 1341.1 926.3 1345.1 921.4 1361.1 930.8 1366.8 930.1 1374.4 925.4 1381.5 919.8 1385.7 923.8 1381.5 932.5 1385.8 933.4 1386.6 935.7 1387.8 942.4 1388.4 947.5 1381.1 949.3 1381.1 965.6 1377.6 970.5 1371.5 974.1 1365.5 976.1 1363.1 974.5 1360.7 972.7 1352.6 977.5 1354.4 981.2 1353.8 983.3 1350.4 984.8 1348 986.4 1345.5 985 1343.3 983.5 1322.4 995.3 1319.1 988.8 1310.6 977.9 1307.8 972.1 1312.2 958.2 1293.9 956.2 1286 960.5 1276.4 960.7 1276.2 953.8 1256.8 958.8 1257.5 938 1222.6 951.6 1221.1 959.9 1211.3 963.1 Z" data-holc_grade="D"/>
<path d="M 1360.6 1155.9 1359 1154.2 1349.5 1154.8 1358.3 1107.2 1357.4 1105.3 1312.8 1106.2 1315.9 1100.1 1328.8 1067.8 1328.6 1051.7 1358.3 1050.3 1358.8 1024.4 1364.7 1022.2 1366.3 1005.2 1368.4 996.9 1370.8 989.6 1373.2 986.5 1377.6 990.8 1379.3 994.7 1382.2 995.2 1388 995.7 1389.4 991.3 1386.5 989.4 1380.5 988.7 1381.2 984.8 1386.3 983.8 1390.2 985.5 1392.8 985.5 1392.4 975.9 1401.8 974.4 1401.8 968.1 1402.8 958 1401.8 951.2 1408.4 949.8 1411.8 950 1415.1 947.4 1421.7 946.7 1429.9 948.1 1432.4 952.2 1440.3 953.9 1446.6 953.9 1446.9 958.5 1448.1 964.8 1454.4 970.8 1460.5 977.8 1465.5 984.3 1472.1 992.5 1464.6 998.8 1462.9 1001.7 1465.5 1008.2 1469.9 1014.3 1471.1 1017.6 1465.1 1018.6 1455.1 1019.3 1453.7 1017.9 1452.7 1009.4 1446.2 1009.4 1441.3 1008.7 1436.2 1006.8 1433.1 1005.1 1428.9 1005.1 1426.3 1008.2 1422.2 1008.7 1421.2 1022.2 1421.7 1034.8 1421.9 1046.6 1425.1 1049.8 1428.7 1055.3 1430.2 1059.9 1436 1064.7 1441.1 1065.7 1439.1 1069.1 1424.8 1070.5 1424.1 1076.3 1413.7 1076.8 1411.2 1078.3 1408.8 1079.7 1401.1 1082.8 1398.4 1086.9 1396.9 1093.5 1395.2 1096.8 1372.7 1095.9 1370 1110.8 1397.4 1112.1 1397.9 1115.9 1398.9 1122.2 1389.2 1123.4 1385.5 1128.5 1379 1133.6 1374.4 1138.4 1367.6 1142.7 1362.3 1144.4 1360.1 1147.6 1360.6 1155.9 Z" data-holc_grade="D"/>
<path d="M 2341 1755.8 2341.3 1715.8 2379.9 1717.1 2378.7 1741.6 2357.3 1742.7 2356.4 1756.3 2341 1755.8 Z" data-holc_grade="D"/>
<path d="M 2086.9 1476.5 2075.5 1488.5 2070.9 1487.3 2051.3 1477.3 2039.2 1463.8 2041.2 1458.7 2041.9 1453.4 2043.7 1455 2054.4 1458.4 2062.2 1452.1 2086.9 1476.5 Z" data-holc_grade="D"/>
<path d="M 1994.1 1314.4 1993.9 1350 1971.8 1350.2 1971.7 1287.9 1978 1288.4 1978.6 1313.2 1994.1 1314.4 Z" data-holc_grade="D"/>
</g>
</svg>