<?xml version="1.0"?>
<svg xmlns="http://www.w3.org/2000/svg" version="1.2" baseProfile="tiny" width="3000" height="1377" viewBox="0 0 3000 1377" stroke-linecap="round" stroke-linejoin="round">
<g id="A">
<path d="M 283.1 692.1 282.5 718.2 132.8 715 135.2 681.9 98.9 671.2 68.3 661.2 42.5 644.7 34 636.7 20.4 627 6.8 618.6 2.2 614.9 1 607 6.2 607.9 7.4 609.7 11.1 616 15.4 617.3 22.5 618.9 28.5 622.4 33.1 628.2 38.2 632.7 42.6 634.2 47.2 634.9 52.3 640.7 56.6 646.9 65.8 653.2 74.1 658.3 80.9 660 90.1 663 105.6 667 118.7 669.9 124.9 673.3 133.1 674.9 141 676.4 151 678.9 156.1 678.3 154.3 711.4 240.7 711.8 241.6 695.5 234.9 693.7 234.6 686.2 243.7 687.1 256.4 688.9 271.6 689.4 279.2 691 283.1 692.1 Z" data-holc_grade="A"/>
<path d="M 813.3 671.7 811.6 673.7 753.2 676.6 753.2 683 741.3 684.4 740.8 689.1 736.5 689.9 735.7 691.8 730.9 691.3 728.7 692.8 729.7 702.4 724.1 701.8 719 705.1 713.7 705.6 709.8 708.2 706.4 709.1 702 709.6 699.1 711.8 693.1 709.2 687.1 700.8 684.4 695.9 683.5 693 684.8 693 687.9 693.8 687.7 692.2 686.4 689.4 685.7 687.2 683.7 685.8 680.8 686.1 679.5 687.6 677 688.3 663.3 675.1 662.1 672.6 669 676.4 675.3 677.1 683.7 678.2 690.6 677.1 694.6 677.6 701.7 678.6 709 678.5 722 674 737.9 669.2 750.4 666.1 761.3 665.1 766.6 664.4 778.6 659.9 789.5 657.9 796.6 658.6 802 659 815.5 657.7 812.3 663.9 813.3 671.7 Z" data-holc_grade="A"/>
<path d="M 859.5 672.6 838.3 671.5 837.1 673.9 820.1 673.9 820.3 671.1 813.3 671.7 812.3 663.9 815.5 657.7 826.2 656.8 833.9 656.6 842.2 656.4 860.3 656.3 859.5 672.6 Z" data-holc_grade="A"/>
<path d="M 983.4 672.5 984.9 686.5 982.2 686.4 970.5 683.2 953.9 679.6 946.1 678.7 939.4 678.5 931.9 677.5 923.6 676.8 916.5 675.8 906.1 675.6 896.1 674.9 884.1 673.4 884.5 656.2 890.3 657.6 899.2 657.4 907.2 657.2 914.8 657 922.8 656.8 930.1 656.2 936.5 655.4 943.9 654.6 952.8 655.5 959.4 657.2 962.6 659.6 967 664.2 969.6 668.5 973.9 670.1 979.2 670.9 983.4 672.5 Z" data-holc_grade="A"/>
<path d="M 884.1 673.4 896.1 674.9 906.1 675.6 916.5 675.8 923.6 676.8 931.9 677.5 939.4 678.5 946.1 678.7 953.9 679.6 970.5 683.2 982.2 686.4 982.9 689.5 982.8 691.4 945 682.9 918.3 681 917 694.9 894.3 694.8 893 679.4 872.8 678.4 873.2 673.2 884.1 673.4 Z" data-holc_grade="A"/>
<path d="M 1232.2 907.4 1230.6 910.2 1230.8 942.1 1197.9 941.7 1190 941.7 1189.4 906.2 1204.1 905.4 1204.6 902.1 1229.7 902.2 1232.6 906.8 1232.2 907.4 Z" data-holc_grade="A"/>
<path d="M 1390.6 979 1420 979.7 1420.5 1010.5 1418 1014.1 1418.5 1017.4 1391.1 1015 1390.6 979 Z" data-holc_grade="A"/>
<path d="M 1129.7 1121.6 1084.1 1120.3 1079.1 1119.9 1079 1117.9 1080.8 1099.7 1083.8 1097.7 1090.5 1095.5 1097.8 1095.3 1098.4 1087.6 1114.7 1090.5 1129.1 1093.2 1132.5 1093.5 1139.4 1093.6 1148.2 1095.2 1154.1 1098.2 1156.1 1100.3 1155.9 1102.7 1129.7 1121.6 Z" data-holc_grade="A"/>
<path d="M 1063 1178.5 1062 1179.3 1058.5 1181.2 1054.4 1179.4 1052.7 1178.9 1050.2 1178.2 1041.8 1180.5 1037.9 1180.5 1038.1 1177.8 1040.6 1171.8 1042.6 1169.3 1050.5 1166.6 1057.5 1164.1 1057.3 1161.2 1056.1 1158.9 1063.1 1156.1 1067 1160.3 1072.5 1161.3 1080.8 1160.7 1081.1 1164.3 1078.7 1167 1070.5 1172.6 1063 1178.5 Z" data-holc_grade="A"/>
<path d="M 1240.8 1199 1220.6 1197.5 1215 1201.8 1201.7 1206.8 1194.4 1208.6 1190.3 1210.8 1189.8 1225.3 1135.8 1225.3 1136.4 1191.9 1195.6 1192 1195.5 1187.6 1240.9 1188.1 1240.8 1199 Z" data-holc_grade="A"/>
<path d="M 2055.3 854.6 2117.1 854.4 2117.4 883.2 2056.5 884.1 2055.3 854.6 Z" data-holc_grade="A"/>
<path d="M 665.3 689.6 664 692.4 665.3 697.9 669.9 706.2 671 709.1 646.9 711.4 640.6 711.6 633.4 711 629.8 708.5 625.9 710.1 627.1 715 626 718.6 623.6 720 620.1 721.8 610.3 723.6 566.2 732.8 561.2 734.3 557.4 735.3 538.4 731.2 528.6 730.1 513.7 731 482.8 730.9 483.9 722.2 493.6 723.1 499.5 721.9 508.9 722.3 515 722.3 520 720.2 531.6 718.6 548.7 715.1 564.6 712.4 591.3 706.8 649.9 685.8 649.6 683.8 649.2 680.5 652.2 679.9 653.3 682.1 655.9 682.4 660.4 683.6 665.3 689.6 Z" data-holc_grade="A"/>
<path d="M 2147.8 817.2 2202.1 817.3 2219.4 816.6 2220.1 821.4 2210.8 821.7 2210.1 854.1 2155.9 854.3 2117.1 854.4 2055.3 854.6 2054.7 817.6 2064.4 816.7 2082.6 816 2099.8 815.5 2116.5 816.4 2135.9 816.4 2147.8 817.2 Z" data-holc_grade="A"/>
<path d="M 2127.4 777.6 2137.7 779.9 2142.9 783.1 2147.7 786 2151.7 787.6 2151.7 789.4 2149.2 792.1 2148 795.8 2148 798.7 2146.9 803.5 2147.8 817.2 2135.9 816.4 2116.5 816.4 2099.8 815.5 2082.6 816 2064.4 816.7 2054.7 817.6 2055.3 815.3 2055.6 808 2049.9 808 2034.7 807.4 2024.4 805.5 2015.8 800.4 2027.1 790.2 2012 778.4 2013.9 776.3 2125.7 779.1 2127.4 777.6 Z" data-holc_grade="A"/>
<path d="M 1957.9 691.5 1959.3 702.6 1965.4 705.4 1980.5 706.8 1980.8 706.8 1987.2 707.4 1985.5 724.6 1989.6 729.2 1994.2 741.4 1997.1 747.3 2000.9 752.7 2014 763.8 2018.4 767.5 2016.9 773 2013.9 776.3 2012 778.4 2027.1 790.2 2015.8 800.4 2012.8 803.1 1994.2 789.1 1994.5 779.7 1955.2 781.7 1952.3 781.7 1952.6 776.7 1954.1 747.9 1950 705 1917.9 702.2 1908.5 701.5 1907 672.9 1936.6 684.5 1941.9 684.7 1945.6 688.6 1952.3 691.5 1957.9 691.5 Z" data-holc_grade="A"/>
<path d="M 2201.6 798.9 2202.1 817.3 2147.8 817.2 2146.9 803.5 2186.2 805 2191.7 801.5 2201.6 798.9 Z M 2127.4 777.6 2125.7 779.1 2013.9 776.3 2016.9 773 2018.4 767.5 2022.4 763.8 2027.7 763.8 2027.1 759 2042.8 760.1 2049.8 764.7 2056.5 766.9 2065.8 765.4 2078 765.6 2081.2 768.4 2087.3 771.9 2100.1 773.9 2117 775.4 2127.4 777.6 Z M 1997.1 747.3 1994.2 741.4 1989.6 729.2 1985.5 724.6 1987.2 707.4 1980.8 706.8 1990.7 706.9 1998.3 711.7 2005 719.6 2005 726.3 2004.7 733.8 2006.1 741.6 2006.1 747 1997.1 747.3 Z M 2201.6 798.9 2198.4 796.7 2197.5 782.6 2186.2 783.4 2175.1 778.4 2170.2 779.3 2165.3 779.3 2163.2 774.3 2157.7 771.9 2128.3 771.2 2105.6 769.7 2084.4 763.6 2071.9 761.2 2065.2 760.6 2061.7 760.6 2056.8 756.2 2049.5 754.9 2034.1 752.7 2020.1 750.5 2017.8 746 2016.3 739.2 2018.9 732.4 2018.6 727.2 2017.8 721.1 2024.2 717.4 2034.9 720.2 2043.7 720.2 2055 723.9 2069.8 726.3 2076.5 728.5 2089.3 733.1 2101.3 735.7 2119.3 737 2130.1 739.9 2137 738.8 2151.3 738.3 2162.6 741.6 2186.8 745.3 2195.2 745.5 2194.6 743.1 2182.4 741.4 2178.6 739.9 2180.1 728.5 2180.1 723.1 2171.7 722.2 2158 721.8 2144.6 723.1 2134.1 723.9 2129.8 722.4 2117.3 720.5 2117.6 708.7 2136.1 708.2 2136.3 702.3 2148.8 702.3 2199.1 702.1 2201.6 798.9 Z M 1980.5 706.8 1965.4 705.4 1959.3 702.6 1957.9 691.5 1967.7 696.3 1975.9 703 1980.5 706.8 Z" data-holc_grade="A"/>
<path d="M 2219.4 816.6 2202.1 817.3 2201.6 798.9 2199.1 702.1 2249 701.8 2248.5 705.1 2295.7 705.4 2300 706 2350.3 706.3 2350.3 780.5 2276.4 779.4 2268.2 771 2257.3 770.1 2250.6 778.5 2222.1 780 2219.4 816.6 Z M 2317.5 719.2 2316.3 721.3 2315.5 723.8 2317.6 726.4 2320.6 728.4 2323.6 729.6 2327.9 729.6 2331.3 728 2333.8 725.4 2334 723.2 2333.2 722 2332.2 720.3 2330.5 719 2327.5 718 2324.1 717.5 2322.6 717.4 2319.6 718.1 2317.5 719.2 Z M 2237 724.6 2232.7 723.9 2229.2 724 2221.4 723.2 2217.3 720.4 2215.3 723.2 2211 728.4 2211.8 737.1 2238 736.5 2237.4 729.1 2237 724.6 Z" data-holc_grade="A"/>
<path d="M 2202.9 629.7 2203.2 638.5 2249.3 637.8 2249.3 631 2264.7 630.6 2265.9 639.6 2262.6 644.2 2258.4 648.5 2252.6 651.2 2249 654.9 2249 701.8 2199.1 702.1 2148.8 702.3 2148.8 669.9 2153.7 669.7 2154.7 668.1 2155.8 665.7 2154.3 650.3 2157.7 642.8 2158.3 637 2160.1 631.3 2158.7 629.6 2202.9 629.7 Z M 2234.2 675.7 2232.1 673.3 2228.6 670.9 2226.8 669.7 2226.2 672.5 2226 676.4 2224.1 679.2 2221 682.7 2217.3 685.7 2214.4 688.4 2211.7 692.1 2212.4 694.4 2214.4 696.7 2217.4 697.4 2221 697.1 2222.4 697.1 2230.4 691.9 2236.8 688.1 2243.8 687.2 2244.2 676.4 2240.6 676.5 2234.2 675.7 Z" data-holc_grade="A"/>
<path d="M 2397.5 556.2 2397.2 570.7 2383.9 571.4 2383.9 568.2 2379.8 567 2374.5 566.1 2373.6 563.9 2368.3 563.9 2363.8 564 2362.7 564 2360.5 559.7 2359.6 558.6 2356.9 558 2354.7 555.2 2353.8 553.4 2345.6 552.2 2343.4 552.3 2342.3 550.4 2341 547.4 2337.2 545.6 2331.9 545.9 2331.9 536.2 2349 536.5 2373.6 536.5 2391.6 536.1 2392.3 541.7 2397.8 540.2 2397.5 556.2 Z" data-holc_grade="A"/>
<path d="M 2167.3 567 2171 570.3 2175 572.2 2175.3 586.3 2152.1 585.2 2128.8 585 2103 584.4 2103 533.2 2100.4 517.4 2094.6 508.7 2106.3 509.8 2115.7 510.4 2120.4 506.6 2125.2 504.7 2134.6 502.2 2147.7 500.8 2150.6 504.1 2150.6 511.5 2143 530.5 2144.8 532.1 2155 533.5 2152.1 567.3 2167.3 567 Z" data-holc_grade="A"/>
<path d="M 2094.6 508.7 2100.4 517.4 2103 533.2 2094.6 533.2 2090.3 534.1 2087.7 530.5 2071 535.7 2063.8 538.4 2055.7 541.4 2048.8 543.3 2048.1 547.1 2038.3 549 2031.7 549.3 2029.2 545.2 2024.8 532.7 2023 528.9 2021.5 519.4 2051.7 519.9 2052 484.5 2052.4 481.6 2060.4 482.1 2065.5 487.5 2072.1 482.6 2080.4 488.9 2085.5 495.7 2090.6 503.8 2094.6 508.7 Z" data-holc_grade="A"/>
<path d="M 2052 484.5 2051.7 519.9 2021.5 519.4 2010.3 487.8 2015.1 484.3 2033 484 2052 484.5 Z" data-holc_grade="A"/>
<path d="M 622.3 752.5 580.5 771 563 778.8 556.5 779 552.8 768 548 750.4 514 751 513.7 731 528.6 730.1 538.4 731.2 557.4 735.3 561.2 734.3 566.2 732.8 610.3 723.6 620.1 721.8 618.3 724.4 617.7 728.6 618.1 732.9 619.9 736.7 618.9 741.6 617.4 748.7 620.9 751.5 622.3 752.5 Z" data-holc_grade="A"/>
<path d="M 2149.3 113.9 2165.3 103.5 2182.6 120.5 2166.7 130 2149.3 113.9 Z" data-holc_grade="A"/>
<path d="M 2186 87.3 2195.5 80.8 2203.5 76.1 2211.8 67.8 2219.8 64.8 2238.7 82.6 2236.4 87.9 2207.8 105.3 2205.8 103.9 2186 87.3 Z" data-holc_grade="A"/>
<path d="M 628 756.8 635.6 758.9 642.7 760.6 653.6 761.8 671.5 762.2 713.3 763.6 714.6 756.3 715.6 755.1 718.7 755.1 723.4 756.5 729.7 759.9 720.8 775.4 720.5 782.1 709.6 781.4 709 772 674.4 771.2 668.1 784.3 666.3 784.5 659.1 784.2 647.6 814.2 629 818 628 756.8 Z" data-holc_grade="A"/>
<path d="M 651.6 871.8 649.7 851.9 695.9 851.9 696 849 707.6 849.4 707.9 870.4 702.9 871 697.6 871.3 693.2 872.8 688.4 873.9 681.9 875.2 675.6 876.1 653.7 876.8 651.6 871.8 Z" data-holc_grade="A"/>
<path d="M 509.4 972.7 509.9 947 516.6 943.3 529.4 937.4 542.8 934.1 561.4 929.1 568.4 923.4 569.3 932.4 585 932.6 585 941.2 576.4 942.6 574.1 943.3 570.9 948.2 551.5 948.6 549.3 950 548.4 953.6 546.5 955.8 546.9 960.8 548.8 963 553.7 962.4 554.3 958.5 556 957.2 558.4 956.4 568 956.2 571.4 954.3 574.8 951.9 579.3 948.7 583.5 947.4 585 947.4 585 974.7 509.4 972.7 Z" data-holc_grade="A"/>
<path d="M 807.5 836.5 804.8 879.8 795.1 880.5 784 884.2 781.3 884.2 779.8 878 776.4 877.3 774.3 878.9 773.8 884.5 762.6 883.4 757.8 898.9 763.8 899.2 763.1 907.8 759.2 917.8 755.4 916.7 745.9 946.3 735.2 946.9 735.2 942.9 733.8 933.4 732.1 922.7 730.1 916.1 730.1 908.2 731.6 905.1 732.6 898.9 740.6 896.5 740.6 895.4 726.3 894 729.2 891.1 733.1 889.6 736.9 885.6 741.8 886.7 741.5 878.5 748.6 875.1 758.5 870.2 764.6 864.2 766 859.8 766 840.7 759.2 833.7 762.4 828 774.7 822.4 776.2 818.9 788.2 816.7 786.9 829.5 784.6 834.4 785.2 835.8 807.5 836.5 Z" data-holc_grade="A"/>
<path d="M 853 788.4 853.6 793.1 842.6 792.5 840.6 797.5 813.6 798 813 814.4 831.9 814.9 836.1 815.4 836.8 818.1 837.6 821.1 839.2 826 841 829.7 846.1 833.5 852.6 834.2 852.3 845.5 853.9 848 855.2 850.1 845.7 854.5 844.6 854.2 841 849.4 838.8 846.1 837.6 842.7 833.2 842.5 833.4 834.1 830.4 831.2 829 832.3 810.4 832.6 807.5 836.5 785.2 835.8 784.6 834.4 786.9 829.5 788.2 816.7 788.4 814.6 787.7 810.3 784.6 807.1 781 804.1 778.5 801.6 781 798.2 804.7 798 806.1 788.6 833.2 788 853 788.4 Z" data-holc_grade="A"/>
<path d="M 823.6 762.5 835.4 762.6 833.2 788 806.1 788.6 804.7 798 781 798.2 778.5 801.6 768.5 798.5 744.8 798.2 743.9 791.1 742.5 786.6 742.3 779.5 751.6 756 794.5 756.8 807 758.5 806.3 778.4 823 778.4 823.6 762.5 Z" data-holc_grade="A"/>
</g>
<g id="B">
<path d="M 283.1 692.1 290.1 693.8 302.1 696 311.5 697.1 322.4 698.5 330.4 700.7 334.4 702.8 339.9 703.9 347.9 703.9 354.8 703.1 363.2 700.7 378.8 703.9 386.8 705.3 405.7 710.5 414.4 711.5 417 711 420.6 713.2 433.7 715.1 439.9 717.5 438.1 755.1 110.1 751.6 110.8 744.5 109.7 740.7 108.3 717.3 61.7 715.1 61.7 700.1 74.8 700.1 74.5 694.1 62.5 687 62.5 674.5 43.9 674.5 42.1 686.5 17.7 687.3 19.9 656.8 33 656.8 33 651.4 9.4 636.6 20.4 627 34 636.7 42.5 644.7 68.3 661.2 98.9 671.2 135.2 681.9 132.8 715 282.5 718.2 283.1 692.1 Z" data-holc_grade="B"/>
<path d="M 897.1 755.8 895.9 788.4 871.4 788.4 853 788.4 833.2 788 835.4 762.6 823.6 762.5 823.9 756.7 839.1 755.3 864.6 755.5 897.1 755.8 Z" data-holc_grade="B"/>
<path d="M 823.9 756.7 823.6 762.5 823 778.4 806.3 778.4 807 758.5 794.5 756.8 751.6 756 753.6 749.6 750.3 743.2 746.3 740.6 741.4 736.2 740.5 722.4 742.2 720.6 745.3 722.2 744.6 731.8 751.1 737.1 770.3 736.9 771.3 735.7 771.7 719.7 809.3 721.1 808.6 753.1 813 756.5 823.9 756.7 Z" data-holc_grade="B"/>
<path d="M 825.8 744.6 824.8 722 884.5 723.1 884.9 748.9 831.4 749.3 829.7 741.8 825.8 744.6 Z" data-holc_grade="B"/>
<path d="M 956.4 723.6 955.3 747.7 903.3 747.1 903.3 720.4 925.8 720.7 928 725.4 931.4 723.6 935.2 721.1 940 720.2 947.4 720.7 956.4 723.6 Z" data-holc_grade="B"/>
<path d="M 859.5 672.6 873.2 673.2 872.8 678.4 893 679.4 894.3 694.8 917 694.9 918.3 681 945 682.9 982.8 691.4 982.7 693.2 959.4 694.2 957.6 696.6 957.4 701.5 891.9 699.5 846 699.3 802.9 698 802.7 685.1 791.7 685.1 789.6 696.9 753.9 697.1 700.8 714 699.1 711.8 702 709.6 706.4 709.1 709.8 708.2 713.7 705.6 719 705.1 724.1 701.8 729.7 702.4 728.7 692.8 730.9 691.3 735.7 691.8 736.5 689.9 740.8 689.1 741.3 684.4 753.2 683 753.2 676.6 811.6 673.7 813.3 671.7 820.3 671.1 820.1 673.9 837.1 673.9 838.3 671.5 859.5 672.6 Z" data-holc_grade="B"/>
<path d="M 1017.4 677.3 1017.8 693.1 1011.2 692.3 1010.2 695.1 982.9 689.5 982.2 686.4 984.9 686.5 983.4 672.5 991.4 674.1 996 674.4 1002.9 676.1 1011.8 677.5 1017.4 677.3 Z" data-holc_grade="B"/>
<path d="M 1105.1 709 1102.7 712.4 1017.9 695.9 1017.8 693.1 1017.4 677.3 1023.4 678.1 1032.2 678.4 1040.3 679.2 1045.6 681 1052 683.8 1055.8 685.3 1061.2 685.6 1080.9 685.9 1080.7 690.8 1108.1 697.7 1107.1 699.6 1105.1 702.5 1105.1 709 Z" data-holc_grade="B"/>
<path d="M 1014.6 859.2 1015.7 838.1 1015.9 835 1032 834.7 1032.2 833.2 1031 830.1 1048.4 823.6 1068.5 816 1092 815.1 1091.3 822.3 1089.9 828.5 1087 832.3 1073.6 841.2 1072.4 844.5 1073.1 849.8 1061.3 850.3 1059.8 859.2 1014.6 859.2 Z" data-holc_grade="B"/>
<path d="M 1014.6 859.2 1010.6 859.2 1009.9 860 1009.9 885 962.8 884 965.5 853.4 976.2 852.8 976.4 849.1 977.7 848.5 1012.2 838.4 1015.7 838.1 1014.6 859.2 Z" data-holc_grade="B"/>
<path d="M 965.5 853.4 962.8 884 954.6 884.4 953.9 901.2 941.1 901.5 937.3 905 937 912.9 934.2 915 933 917.8 900.2 917.1 899.5 884 905.5 883.5 906.1 872.2 948.1 858.3 947.5 870.1 958.1 869.7 958.4 844.2 957.3 843.7 941.7 847.9 942.6 835.1 979.7 824.3 985.3 833.7 984.4 835.1 965.3 841.1 965.5 853.4 Z" data-holc_grade="B"/>
<path d="M 693.2 715.5 676.2 720.4 649.2 720 628.4 719.1 629.3 744.7 634.9 753.4 653.1 753.4 652.7 747.6 661.5 746.8 662.4 736.3 674.3 736.7 673.9 746.3 681.2 746.5 686.5 755.2 694.2 758.3 709 756.2 714.6 756.3 713.3 763.6 671.5 762.2 653.6 761.8 642.7 760.6 635.6 758.9 628 756.8 622.3 752.5 620.9 751.5 617.4 748.7 618.9 741.6 619.9 736.7 618.1 732.9 617.7 728.6 618.3 724.4 620.1 721.8 623.6 720 626 718.6 627.1 715 625.9 710.1 629.8 708.5 633.4 711 640.6 711.6 646.9 711.4 671 709.1 669.9 706.2 665.3 697.9 664 692.4 665.3 689.6 671.3 694.5 677.4 702.3 683.1 708.9 688.7 710.1 691.6 712.3 693.2 715.5 Z" data-holc_grade="B"/>
<path d="M 1273.7 929.4 1273.8 954.9 1247.6 955.5 1246.7 960.5 1199.4 960.3 1198 960.3 1197.9 941.7 1230.8 942.1 1230.6 910.2 1232.2 907.4 1240 909.5 1244.2 909.7 1247.7 908.7 1250.9 906.9 1253.9 905.6 1278.2 905.6 1279.2 923.9 1273.6 924 1273.7 929.4 Z" data-holc_grade="B"/>
<path d="M 1428.2 1023.5 1386 1026.3 1383.4 1023 1362.3 1022.6 1360.3 1012.5 1328.6 1011.4 1330 1003.9 1378.5 1004.8 1379.2 987.9 1356.2 987.9 1353.6 993.9 1332.2 993.6 1338.3 980.1 1373.2 979.4 1372.9 967.4 1363.7 960.7 1374.9 954.1 1379.7 955.4 1427.7 954.5 1428 966.8 1431.6 968.8 1431.6 1017.2 1428 1019.9 1428.2 1023.5 Z M 1390.6 979 1391.1 1015 1418.5 1017.4 1418 1014.1 1420.5 1010.5 1420 979.7 1390.6 979 Z" data-holc_grade="B"/>
<path d="M 1440.5 1062.9 1394.7 1062.2 1386.2 1062.8 1374.1 1062.6 1350.5 1062.8 1334.5 1062 1331.9 1058.8 1313.5 1058 1313.5 1049.1 1334.2 1050.4 1349.7 1051.7 1389.9 1051.5 1440.6 1049.7 1440.5 1062.9 Z" data-holc_grade="B"/>
<path d="M 1197.6 1087.5 1248.7 1087.3 1250.2 1117.7 1197.1 1117.8 1197.6 1087.5 Z" data-holc_grade="B"/>
<path d="M 1132.5 1142.4 1134 1121.8 1129.7 1121.6 1155.9 1102.7 1156.1 1100.3 1154.1 1098.2 1148.2 1095.2 1139.4 1093.6 1132.5 1093.5 1129.1 1093.2 1114.7 1090.5 1098.4 1087.6 1100.2 1084 1101.8 1083 1137 1089.6 1153.5 1090.7 1157.8 1091.5 1167.3 1099.3 1183.5 1106.3 1182.9 1116.4 1152.8 1116.8 1152.8 1124.9 1303.4 1126.2 1304.7 1141.1 1245 1141.8 1243.7 1183.5 1243.8 1184.5 1250.8 1184.7 1250.5 1198.8 1240.8 1199 1240.9 1188.1 1195.5 1187.6 1195.6 1192 1136.4 1191.9 1135.5 1174.5 1131.8 1174 1132.5 1142.4 Z" data-holc_grade="B"/>
<path d="M 1129.7 1121.6 1134 1121.8 1132.5 1142.4 1109.7 1162.4 1097.9 1154.3 1089.6 1159.8 1088.5 1161.4 1091.4 1163.5 1068.5 1182.4 1063 1178.5 1070.5 1172.6 1078.7 1167 1081.1 1164.3 1080.8 1160.7 1072.5 1161.3 1067 1160.3 1063.1 1156.1 1064 1143.7 1066.4 1143.5 1071.7 1143.5 1084.7 1139.3 1084.1 1120.3 1129.7 1121.6 Z" data-holc_grade="B"/>
<path d="M 594.5 1317.5 595.8 1301.1 579 1300.3 570.1 1295.6 562.1 1295.5 560.3 1294.3 559.8 1290.7 551.6 1289.8 551.9 1285.5 584.1 1286.2 585.2 1269.2 600.5 1269 600.7 1266.3 634.5 1266.3 633.6 1272.4 627.6 1271.9 625.9 1286.6 599.8 1287 600.5 1295.1 616.5 1295.9 615.6 1308.7 630.3 1309.7 629.6 1317.3 594.5 1317.5 Z" data-holc_grade="B"/>
<path d="M 543.2 1352.9 529.4 1352.1 530.9 1341.1 537.4 1340.7 537.6 1327.4 541.8 1327.4 542.1 1322.9 522.3 1322.5 524.5 1289.1 535 1284.7 535.8 1290.4 534.5 1295.2 536.9 1298.1 543 1301.2 550.7 1303.1 557.6 1302.9 555.8 1311.7 556.1 1314.3 560.1 1317.2 559 1318.3 542.1 1340.9 541.9 1341.2 542.3 1348.3 542.7 1348.4 542.9 1350.5 543.2 1352.9 Z" data-holc_grade="B"/>
<path d="M 2223 1173 2237.6 1165.2 2246.1 1161.2 2251.3 1160.2 2251.9 1184.1 2242.6 1184.6 2237.2 1186.4 2234.8 1186.4 2230.7 1183.8 2227.4 1181.9 2224.6 1177.7 2223.8 1175.9 2223 1173 Z" data-holc_grade="B"/>
<path d="M 2197.6 1150 2188.6 1149.6 2180.9 1150 2174.8 1150.5 2171.4 1153.8 2156.4 1146 2157.8 1143.8 2148.6 1138.3 2147.7 1137.4 2155.7 1128.7 2146.7 1121.8 2151.8 1119.4 2151.7 1096.3 2197.2 1096.4 2197.6 1150 Z" data-holc_grade="B"/>
<path d="M 720.5 782.1 722 786.2 719.7 788.2 714.6 787.3 708.7 785.7 699 784.7 696.2 784.7 689.7 786.8 687 787.9 681.9 788.2 678.4 788.7 675 789.9 669.7 793.5 666.4 796.9 665.8 801 667.2 803 668.2 805.8 669.6 808.9 674 811.7 677.8 813.4 674.4 815.1 659.6 811.8 647.6 814.2 659.1 784.2 666.3 784.5 668.1 784.3 674.4 771.2 709 772 709.6 781.4 720.5 782.1 Z" data-holc_grade="B"/>
<path d="M 2227.4 1060.4 2193.4 1060.1 2169.2 1058.3 2162.2 1064.5 2153.2 1069.8 2145.9 1073.2 2137.2 1076.3 2124.6 1078.7 2111.3 1076.5 2107.4 1074 2090.9 1074.1 2079.3 1074.3 2068.1 1074.5 2063.3 1076 2060.6 1074.1 2057.7 1068.7 2057.9 1058.1 2054.5 1056.5 2055.7 1038.5 2057.4 1035.4 2075.9 1035.1 2132.6 1036.2 2226.6 1038.3 2227.4 1060.4 Z" data-holc_grade="B"/>
<path d="M 1855.2 1023.5 1854.8 1031 1824.3 1031.7 1830.3 1041.8 1831.9 1045.5 1835.6 1050.5 1841.4 1055.8 1845 1058.6 1843.4 1059.2 1813 1059.4 1811.9 1044.4 1757.2 1043.1 1757.6 1028.2 1755.9 1025 1757 1022 1817.4 1021.7 1801.2 999.8 1792.5 1001.8 1787.4 998.3 1772.8 1001.4 1771.9 981.8 1788.3 977.9 1814.3 977.7 1814.5 989.7 1817.6 990.5 1819.2 1001.6 1832.1 1002.7 1834.1 1004.8 1846.1 1004.6 1848.5 1006.2 1850.1 1008.2 1853.4 1009.2 1855.8 1010 1855.2 1023.5 Z" data-holc_grade="B"/>
<path d="M 1954.9 967.4 1955.6 970.7 1946.9 971.1 1944.7 972 1944.7 974.7 1945.4 978.5 1942.5 980.2 1933.8 981.8 1927 986 1923.6 990.3 1914.4 987.4 1912.7 969.6 1889.9 969.6 1887 933.4 1935.7 932.6 1954.2 932.6 1954.9 967.4 Z" data-holc_grade="B"/>
<path d="M 2055.3 854.6 2056.5 884.1 2117.4 883.2 2117.1 854.4 2155.9 854.3 2154.4 893.4 2100.7 893.2 2019.2 893 2020.8 854.2 2055.3 854.6 Z" data-holc_grade="B"/>
<path d="M 2015.8 800.4 2024.4 805.5 2034.7 807.4 2049.9 808 2055.6 808 2055.3 815.3 2054.7 817.6 2055.3 854.6 2020.8 854.2 2017.4 854.1 2016.5 813.5 1993.8 813.3 1994.2 789.1 2012.8 803.1 2015.8 800.4 Z" data-holc_grade="B"/>
<path d="M 1917.3 716.3 1917.9 702.2 1950 705 1954.1 747.9 1952.6 776.7 1926.7 757.3 1925.6 727.7 1920.9 726.3 1917.3 716.3 Z" data-holc_grade="B"/>
<path d="M 1926.2 634.2 1962.2 635.7 1978.9 635 1979.3 643 1977.7 651.6 1975.5 662.8 2000.9 663.9 2002.6 670 2054.4 670.5 2054.7 715.7 2053.1 715.2 2043.3 711.8 2037.3 711.9 2028.7 710.4 2020.2 708.1 2010.7 704 2002.9 700.5 1990.2 694.5 1984.4 690.4 1973.1 686.3 1967.1 682.5 1962.7 680.6 1958 680.6 1948 680.3 1939.8 678.8 1931.5 677.9 1928.7 674.9 1925.1 670.8 1924 667.3 1922 663.9 1914 664.5 1910.8 664 1902.2 661.9 1899.8 663.2 1891.1 665.4 1886.2 665.4 1879.3 661.7 1874.2 661.5 1868.6 662.8 1866.2 664 1861.8 661 1862.4 655.5 1861.4 646.4 1866.2 645.3 1875.9 641 1881.7 637.1 1888 633.5 1908 634.4 1922.6 634.2 1926.2 634.2 Z" data-holc_grade="B"/>
<path d="M 1926.2 634.2 1924.7 619.9 1930.4 612.6 1945.6 604.7 1962.3 600.4 1986.5 598.8 2002 595.8 2009.8 595.1 2010.1 591.5 2015.3 587.2 2031 585.8 2032.6 587.4 2036.2 586.6 2046.2 583 2049.7 585.8 2052 592.2 2052.6 603 2053.7 623.4 2054.2 652.7 2054.4 670.5 2002.6 670 2000.9 663.9 1975.5 662.8 1977.7 651.6 1979.3 643 1978.9 635 1962.2 635.7 1926.2 634.2 Z" data-holc_grade="B"/>
<path d="M 2103 533.2 2103 584.4 2128.8 585 2152.1 585.2 2175.3 586.3 2174.6 594.5 2151.6 593.6 2151.6 601.2 2151.8 613.4 2151.9 620.6 2100.6 619.7 2100 648.1 2120 648.7 2121.6 669.4 2137 669.4 2137.3 671.9 2136.3 702.3 2136.1 708.2 2117.6 708.7 2117.3 720.5 2102.2 719.6 2097.3 715.9 2084.9 716.2 2072.2 713.2 2064 715 2054.7 715.7 2054.4 670.5 2054.2 652.7 2053.7 623.4 2052.6 603 2052 592.2 2049.7 585.8 2046.2 583 2036.2 586.6 2032.6 587.4 2035.6 581.7 2025.9 574.7 2029.8 572.2 2024.7 561.3 2021.4 556.6 2031.7 549.3 2038.3 549 2048.1 547.1 2048.8 543.3 2055.7 541.4 2063.8 538.4 2071 535.7 2087.7 530.5 2090.3 534.1 2094.6 533.2 2103 533.2 Z" data-holc_grade="B"/>
<path d="M 2222.2 471.2 2208.8 477.2 2212.4 481.5 2209.5 518 2200.4 518.5 2199.8 530.8 2199 545.5 2169.9 545.2 2167.3 567 2152.1 567.3 2155 533.5 2144.8 532.1 2143 530.5 2150.6 511.5 2150.6 504.1 2147.7 500.8 2134.6 502.2 2125.2 504.7 2120.4 506.6 2115.7 510.4 2106.3 509.8 2094.6 508.7 2090.6 503.8 2085.5 495.7 2080.4 488.9 2072.1 482.6 2065.5 487.5 2060.4 482.1 2052.4 481.6 2053 445.5 2055.9 445.7 2064.3 445.1 2074.8 444.9 2095.4 444.3 2101 443.7 2102.8 431 2100.9 406.7 2117.9 406.5 2150.3 406.1 2151.3 441.8 2198.6 442.9 2209.2 442 2218.6 449.1 2234.6 462.5 2222.2 471.2 Z" data-holc_grade="B"/>
<path d="M 628 756.8 629 818 610.1 824.2 578.5 834.5 577.8 834.8 580.5 771 622.3 752.5 628 756.8 Z" data-holc_grade="B"/>
<path d="M 2151.9 620.6 2152.4 624.1 2150.8 626.6 2151.6 628.5 2153.7 630.1 2158.7 629.6 2160.1 631.3 2158.3 637 2157.7 642.8 2154.3 650.3 2155.8 665.7 2154.7 668.1 2153.7 669.7 2148.8 669.9 2148.8 702.3 2136.3 702.3 2137.3 671.9 2137 669.4 2121.6 669.4 2120 648.7 2100 648.1 2100.6 619.7 2151.9 620.6 Z" data-holc_grade="B"/>
<path d="M 2217.2 530.9 2219.2 534.8 2216.1 537.9 2214.9 548.4 2215.2 552.9 2218.5 554.9 2237.2 553.5 2239.2 548.1 2238.3 542.9 2243.4 538 2247.4 535.7 2248 531.1 2263.4 532.8 2263.6 553.3 2271.4 554.2 2272.5 551.5 2282.1 551.1 2286.9 551.6 2287.4 535 2305.8 535.8 2323.4 536.2 2331.9 536.2 2331.9 545.9 2331.8 579.7 2326.7 581.6 2323.2 582.1 2322.5 595.3 2286.5 594.9 2286.5 603.1 2323.4 604.3 2323.6 629.5 2264.7 630.6 2249.3 631 2245.8 629.9 2243 558.2 2223.8 557.8 2220.3 566.9 2219.2 575.6 2219.6 580.5 2220.7 584.2 2222.5 588.4 2223.2 593 2220.3 599 2218.3 603.1 2219.4 606.5 2221.8 611.1 2224.3 616 2226.7 620.1 2227.2 628.3 2226.5 630.5 2202.9 629.7 2200.9 615.5 2193 614.3 2177.4 614.1 2151.8 613.4 2151.6 601.2 2188.5 602.7 2199.8 603.2 2199.8 581.2 2198.5 571 2198.5 554.9 2199 545.5 2199.8 530.8 2217.2 530.9 Z" data-holc_grade="B"/>
<path d="M 2270.5 474 2269.2 498.9 2257.2 498.9 2255.7 509.6 2229.9 510.1 2231.3 513.9 2233.5 516.6 2235 519.6 2234.6 529.7 2228.4 531.1 2217.2 530.9 2199.8 530.8 2200.4 518.5 2209.5 518 2212.4 481.5 2208.8 477.2 2222.2 471.2 2226.2 475 2249.9 474.7 2251.3 470.6 2267.3 470.1 2270.6 471.7 2270.5 474 Z" data-holc_grade="B"/>
<path d="M 2053 445.5 2052.4 481.6 2052 484.5 2033 484 2015.1 484.3 2010.3 487.8 2002.7 485.6 1999.4 478.9 2007.2 473.6 2014.4 468.7 2017.4 464.7 2017.7 463.2 2015.7 460.4 2017 458.2 2019.4 457.8 2025.4 453.3 2031.7 448.8 2037.9 443.8 2046.1 445.1 2053 445.5 Z" data-holc_grade="B"/>
<path d="M 1859.7 377.3 1841.7 385 1838.7 387.1 1819.6 394.1 1817.8 394.9 1786.6 409.7 1759.6 422 1736.9 432.2 1735.7 411.6 1745.4 406.6 1754.1 401.6 1759.6 397.7 1769.9 390.5 1787.2 378.4 1797.8 371.4 1812.3 363.3 1823.2 357.4 1827.5 361.9 1825.7 364.6 1825.4 368.7 1827.2 373 1830.2 371.6 1836.9 370.7 1842.3 373.7 1847.8 368 1830.8 354 1837.8 347.8 1850.2 340.6 1856.6 335.1 1864.4 331.5 1873.2 325.2 1884.4 318.6 1893.2 312.5 1901.4 305.9 1915.6 295.9 1928.4 288 1935.3 282.8 1946 289 1951.3 292.5 1949.7 299.2 1933.5 300.1 1926 305.4 1912.6 313.8 1873.2 341.7 1870.5 351.5 1883.5 356.2 1874.4 360.5 1872.3 360.1 1866.9 361.9 1860.8 360.1 1853.5 365.5 1849.3 370.1 1859.7 377.3 Z" data-holc_grade="B"/>
<path d="M 1968.2 274.1 1970.1 270 1969 265.5 1967.6 261.9 1970.7 259.2 1976.5 255.3 1983.7 250.5 1988.3 246.8 1994.7 240.5 2000.3 235.8 2004.3 234.7 2004.6 235.8 2003.7 240.4 2007.1 242.6 2007.7 258.5 2007.7 260.5 2004.2 262.6 1994.2 261 1971.1 274.6 1968.2 274.1 Z" data-holc_grade="B"/>
<path d="M 2108.1 181 2108.2 180.9 2108.9 180.2 2109.9 179.2 2132.5 185.3 2131.8 202.6 2126.7 204.2 2121.5 207.5 2062.7 184.1 2077.1 176.1 2082.8 170.2 2095.1 159.6 2104.3 166.9 2092.6 177.9 2105.6 186.1 2106.9 185.6 2107.1 182 2108.1 181 Z" data-holc_grade="B"/>
<path d="M 2132 162.6 2120.7 162.6 2112.8 160.4 2103.5 152.3 2131.5 131.2 2132 162.6 Z" data-holc_grade="B"/>
<path d="M 2151.3 343.4 2152.2 341.3 2161.6 335.1 2167.4 330.4 2176.9 328.3 2183.1 328.3 2187.6 329.4 2190.2 333 2192.2 339.6 2191.5 343.8 2189.8 349 2189.1 354.1 2187.3 354.3 2175.8 354.5 2165.6 355.2 2165.5 350.5 2160.7 347.6 2156.9 346.2 2152.2 346.2 2151.3 343.4 Z" data-holc_grade="B"/>
<path d="M 2187.6 329.4 2184.7 326.1 2183.6 321.3 2182.4 317.4 2180.5 312.5 2183.8 309.2 2190 308 2195.6 308 2200.7 305 2203.8 301.9 2202 300.5 2197.5 299.7 2197.3 298.2 2200.5 295.9 2204.9 297.8 2206.9 299.6 2206.9 301.6 2206.9 303.7 2208.4 305.6 2212.9 307.6 2214 309.9 2214.4 312.2 2215.5 313.7 2218.9 315.1 2218.9 316.8 2217.1 320.5 2215.5 326.8 2212.4 332.8 2211.8 334.1 2196.9 332.5 2187.6 329.4 Z" data-holc_grade="B"/>
<path d="M 696 849 695.9 851.9 649.7 851.9 651.6 871.8 619 872 609.4 872.1 609.7 849.7 610.1 824.2 629 818 647.6 814.2 659.6 811.8 657.2 816.2 664.3 819.5 667.6 819.7 664.9 823.2 665 826 673.2 825.1 680 824.2 679.9 822 682.3 819.2 685 819.5 688.2 821.1 689.4 823.5 692.9 824.4 696.9 824.5 696 849 Z" data-holc_grade="B"/>
<path d="M 2314.2 283.2 2315.1 290.7 2314.7 295.4 2307.4 295.8 2299.1 296 2294.4 297.4 2295.8 300.3 2297.4 302.8 2297.6 306.4 2292.2 309 2284 310.5 2275.1 311.1 2268.7 311.5 2260.9 312.6 2253.6 313.6 2248.9 314.4 2246.4 313.6 2242.7 312.1 2238.9 312.1 2238.4 314.8 2237.8 313.7 2236.7 311 2232.7 310.3 2227.1 311.1 2227.5 309.6 2226.5 303 2222.7 294.5 2227.3 287.7 2230.5 284.1 2236.2 285.2 2246.5 286.6 2249.5 286.1 2250 280.1 2261.1 279.8 2270.9 279.2 2274.5 280.1 2278.9 280 2280.7 278.9 2280.5 288.3 2282.2 290.1 2286.2 290.2 2293.4 288.7 2303.1 287.2 2312.7 284.7 2314.2 283.2 Z" data-holc_grade="B"/>
<path d="M 2328.4 262.3 2324.2 260.8 2319.1 260 2319.1 257.3 2324.2 251.3 2321.3 247.3 2323.8 244.6 2332 239.3 2330.5 235.5 2330.7 234 2337.4 230.1 2343.1 226 2347.4 226.3 2354.9 226.3 2360 229.1 2362.9 232.4 2364 236.3 2364.7 239.3 2361.6 243.4 2358.7 249 2358.9 251.6 2360.5 254.4 2358.9 256.3 2330 255.6 2328.9 257 2328.4 262.3 Z" data-holc_grade="B"/>
<path d="M 2246.7 82 2239.4 86.7 2240.9 96.9 2238.9 102.9 2231.7 108.7 2231.4 125 2178.8 127.7 2172.5 132.6 2175.4 134.4 2176.2 146.5 2139.3 148.4 2145.9 140.6 2140.5 135.5 2150.9 127 2141.5 120.4 2149.3 113.9 2166.7 130 2182.6 120.5 2165.3 103.5 2174 98.1 2182.7 105.3 2185.6 102.8 2194.2 111.4 2201.3 108.3 2185.6 92.6 2181.5 95.5 2177.6 93.3 2186 87.3 2205.8 103.9 2207.8 105.3 2236.4 87.9 2238.7 82.6 2219.8 64.8 2225.5 62.5 2246.7 82 Z" data-holc_grade="B"/>
<path d="M 2371.2 21.1 2344.7 32.4 2302.6 48.4 2296.7 50.6 2287 54.4 2262 69.5 2249.6 48.2 2253.6 47.6 2261.6 43.3 2265.6 38.8 2277.2 38.5 2284.9 36.5 2294.3 34.8 2306.7 32.4 2316 30.5 2326.7 26.8 2339 21.5 2349.2 16.8 2352.7 16.2 2359.2 10.9 2368.1 7 2376.7 2.8 2393 2.2 2390.5 13 2371.2 21.1 Z" data-holc_grade="B"/>
<path d="M 2371.2 21.1 2390.5 13 2393 2.2 2449.2 1 2448.1 38.9 2419.4 49 2419.2 63.8 2380.7 63.5 2378.5 65 2371.2 64.6 2371.2 21.1 Z" data-holc_grade="B"/>
<path d="M 1811.9 765.7 1810.7 780.8 1817 781.9 1823.3 784.4 1828.4 787.5 1828.8 789.8 1829.1 791.9 1827.7 796.6 1822.6 796.6 1812.9 796.8 1804.2 793 1801.5 787.5 1799.3 781.5 1774.4 776.1 1774.4 762.8 1809.5 763.9 1811.9 765.7 Z" data-holc_grade="B"/>
<path d="M 619 872 651.6 871.8 653.7 876.8 675.6 876.1 681.9 875.2 688.4 873.9 693.2 872.8 697.6 871.3 702.9 871 707.9 870.4 707.2 873.5 682.4 881.1 678.4 893.6 672.3 893.3 665.6 884.8 660.6 884.6 652.8 889.4 637.1 896 605.4 905.1 602.7 908.2 597.5 911.4 593.7 915.1 596.9 918 596.6 921.9 596.3 925 592.8 925.8 585.6 926.3 585 932.6 569.3 932.4 568.4 923.4 561.4 929.1 542.8 934.1 529.4 937.4 516.6 943.3 509.9 947 509.4 972.7 474.7 973.2 473.6 956.4 503.2 944.4 528 931.7 533.2 931.1 548 926.3 549.2 903.8 571.6 903.6 571.3 911.7 575.7 913.6 598.1 903.6 599.8 891.2 617.9 892 619 872 Z" data-holc_grade="B"/>
<path d="M 816.7 912.2 815 937.3 803.2 937.1 795.4 942 795.4 956.7 789.8 962 773.4 962.6 773.4 972.9 764.9 973.3 764.6 984.2 762.2 985.5 719.5 983.8 720.8 969.8 722 966.4 719.1 959.8 720.8 956.6 733.6 956.7 735.2 946.9 745.9 946.3 755.4 916.7 759.2 917.8 763.1 907.8 769.9 909.8 781.8 911.8 816.7 912.2 Z" data-holc_grade="B"/>
<path d="M 844.5 877.1 844.6 891.6 827.6 892 827.4 895.4 817.4 896 816.7 912.2 781.8 911.8 769.9 909.8 763.1 907.8 763.8 899.2 757.8 898.9 762.6 883.4 773.8 884.5 774.3 878.9 776.4 877.3 779.8 878 781.3 884.2 784 884.2 795.1 880.5 804.8 879.8 807.5 836.5 810.4 832.6 829 832.3 830.4 831.2 833.4 834.1 833.2 842.5 831.9 847.5 835.2 850.5 840.3 856 844.5 861.3 847.6 865.6 849.9 869.9 843.6 871.5 844.5 877.1 Z M 784.7 904 796.5 904.2 796.7 895.3 784.9 895.5 784.7 904 Z" data-holc_grade="B"/>
<path d="M 853 788.4 871.4 788.4 871.4 796.5 871 798.6 867.4 796.8 860.6 796 854.3 796.7 852.8 799 855.2 801.2 865.2 806.4 865.4 808.9 884.3 815.8 883.9 826.9 866.6 838.9 869 842.6 872.6 846.7 873.6 853 871.2 865.6 849.9 869.9 847.6 865.6 844.5 861.3 840.3 856 835.2 850.5 831.9 847.5 833.2 842.5 837.6 842.7 838.8 846.1 841 849.4 844.6 854.2 845.7 854.5 855.2 850.1 853.9 848 852.3 845.5 852.6 834.2 846.1 833.5 841 829.7 839.2 826 837.6 821.1 836.8 818.1 836.1 815.4 831.9 814.9 813 814.4 813.6 798 840.6 797.5 842.6 792.5 853.6 793.1 853 788.4 Z" data-holc_grade="B"/>
</g>
<g id="C">
<path d="M 261.7 1258.8 261.9 1251.7 283 1251.1 283.7 1237.2 289 1237.2 289 1235.3 329.7 1236.2 333.9 1234.6 334.5 1245.8 345.7 1246.5 352.8 1236.9 363 1236.5 352.1 1251.3 352.1 1255.9 354.6 1257.9 364.6 1258.2 370.8 1253.6 380.8 1253.3 364.6 1264.6 365.2 1286.2 356.5 1286.2 355.6 1289.5 355.9 1298.5 355.9 1301.9 361 1309 329 1309.2 333 1293.1 323.9 1292.7 319.9 1299.4 287.6 1300.1 288.6 1260.1 261.7 1258.8 Z" data-holc_grade="C"/>
<path d="M 947 753.3 944.6 786.2 914.6 786.2 909.6 788.5 895.9 788.4 897.1 755.8 898.3 752.4 947 753.3 Z" data-holc_grade="C"/>
<path d="M 853.4 875.3 844.5 877.1 843.6 871.5 849.9 869.9 871.2 865.6 873.6 853 872.6 846.7 869 842.6 866.6 838.9 883.9 826.9 884.3 815.8 865.4 808.9 865.2 806.4 855.2 801.2 852.8 799 854.3 796.7 860.6 796 867.4 796.8 871 798.6 871.4 796.5 871.4 788.4 895.9 788.4 909.6 788.5 914.6 786.2 944.6 786.2 946.6 787 946.6 790.7 935 791.9 919 811.8 907.9 811.7 907 822.7 903.9 822.6 878.6 838.2 884.1 859.8 883 869.6 853.4 875.3 Z" data-holc_grade="C"/>
<path d="M 703.5 1049.9 692.9 1049.9 624.1 1050.1 624.4 1029.6 637.4 1029.4 637.7 1034.6 650.5 1035.1 650.5 1020.1 665.3 1019.4 668 1009.8 683.5 1009.6 684.1 1009.6 685.9 972.8 688.9 972.1 688.9 950.3 693.2 950.3 697.4 949 702 947.8 707.4 945.5 712.3 943.5 713.8 943 714.1 958.5 714.7 961.9 720.8 969.8 719.5 983.8 762.2 985.5 764.6 984.2 764.9 973.3 773.4 972.9 773.4 962.6 789.8 962 795.4 956.7 795.4 942 803.2 937.1 815 937.3 816.7 912.2 817.4 896 827.4 895.4 827.6 892 844.6 891.6 844.5 877.1 853.4 875.3 852 897.6 837.4 897.2 836.5 901.3 827.4 900.3 825.6 942.8 805.3 942.8 805.9 960.8 786.5 972.8 788 981.7 751.4 1022.3 749.5 1023.5 741.1 1027.6 734.4 1032.8 730.5 1036.6 723.8 1049.8 703.5 1049.9 Z" data-holc_grade="C"/>
<path d="M 692.9 1049.9 703.5 1049.9 685.9 1075.7 708.9 1076.4 665.6 1126.4 639.3 1125 692.9 1049.9 Z" data-holc_grade="C"/>
<path d="M 775.6 1354.1 753.6 1354 745.6 1313 760.5 1299.3 792.1 1299.3 787.4 1303.7 835.2 1333.8 805.9 1359.8 784.5 1347.6 784.5 1347.9 781.4 1350.4 775.6 1354.1 Z" data-holc_grade="C"/>
<path d="M 887.3 950.5 886.8 975.5 887.9 979.8 887.9 1014.5 815.4 1014.1 805.1 1014.3 798.8 1015.9 798.2 974.1 835.7 974.3 834.8 936.8 850 936.2 850 925.7 863 925.3 863 950.9 887.3 950.5 Z" data-holc_grade="C"/>
<path d="M 906.1 872.2 905.5 883.5 899.5 884 900.2 917.1 933 917.8 934.2 915 937 912.9 937.3 905 941.1 901.5 953.9 901.2 954.6 884.4 962.8 884 1009.9 885 1014.7 884.8 1014.5 898.5 1020 904.5 1004.8 915.2 955.3 914.3 954.2 953.7 960.6 953.9 960.2 977.9 1013.9 979 1013.5 989.7 955 988.2 954.2 983.8 937.9 994 936.8 986.2 902.6 985.8 902.2 976.2 886.8 975.5 887.3 950.5 889.1 869 906.4 865.6 906.1 872.2 Z" data-holc_grade="C"/>
<path d="M 1152.4 821.1 1149 822.7 1136.2 822.9 1136.2 835.1 1126.2 836.2 1126.2 840.5 1114.3 840.5 1112.6 855.4 1087 855.6 1079.7 859.4 1079.9 880.3 1053.7 881 1050.8 880.8 1053.5 884.1 1020 904.5 1014.5 898.5 1014.7 884.8 1009.9 885 1009.9 860 1010.6 859.2 1014.6 859.2 1059.8 859.2 1061.3 850.3 1073.1 849.8 1072.4 844.5 1073.6 841.2 1087 832.3 1089.9 828.5 1091.3 822.3 1092 815.1 1093.7 807.1 1152.4 821.1 Z" data-holc_grade="C"/>
<path d="M 1048.7 814.4 1048.4 823.6 1031 830.1 1032.2 833.2 1032 834.7 1015.9 835 1015.7 838.1 1012.2 838.4 977.7 848.5 976.4 849.1 976.2 852.8 965.5 853.4 965.3 841.1 984.4 835.1 985.3 833.7 979.7 824.3 942.6 835.1 941.7 847.9 957.3 843.7 958.4 844.2 958.1 869.7 947.5 870.1 948.1 858.3 906.1 872.2 906.4 865.6 921 860.9 921.1 841.9 925.5 842.1 925.1 829.9 942.1 830.1 942.8 828.8 943.9 813.2 995.3 821.2 997 794.5 1016.8 794.5 1017 788 1049 788 1048.7 814.4 Z" data-holc_grade="C"/>
<path d="M 1017.9 695.9 1102.7 712.4 1105.1 709 1127.6 713.2 1137.7 715.9 1135 716.9 1105.9 728.4 1102.7 723.9 1085.4 730.5 1057.4 722.6 1048.7 740.5 1042.5 739.4 1037.4 741.2 1038 754 1036 754.1 1016.7 754.4 1018.3 720.3 1035.4 723.3 1038.5 716 1026 712.8 1024.3 706 1018.3 705.2 1017.4 695.8 1017.9 695.9 Z" data-holc_grade="C"/>
<path d="M 524.5 1289.1 522.3 1322.5 542.1 1322.9 541.8 1327.4 537.6 1327.4 537.4 1340.7 530.9 1341.1 529.4 1352.1 543.2 1352.9 556.3 1375 555.8 1375.9 511.8 1375.9 481.9 1328.2 460.7 1327.8 463 1288.3 524.5 1289.1 Z" data-holc_grade="C"/>
<path d="M 1212.1 723.9 1212.1 770.4 1212 790.2 1200.6 797.3 1181.5 810.5 1171.8 816.9 1163.8 816 1153.6 815.8 1152.4 821.1 1093.7 807.1 1092 815.1 1068.5 816 1048.4 823.6 1048.7 814.4 1060.8 809.3 1061.7 752.6 1051.3 753 1083.6 738.2 1100.5 747 1109.7 749.5 1114.8 748.8 1116 753.1 1170.3 753.3 1170.3 745.5 1161.1 744.4 1161.6 738.6 1159.9 737.7 1146.6 741 1144.2 736.3 1110.7 739.3 1105.9 728.4 1135 716.9 1135.6 718.4 1162.1 725.6 1162.7 732.2 1171.8 732.6 1178.1 732.3 1190.3 729.6 1206.9 725.2 1212.1 723.9 Z" data-holc_grade="C"/>
<path d="M 1323.2 748.1 1325.2 752.6 1323.4 755.8 1318.5 757.9 1316.1 759.1 1311.2 759.1 1301.2 758.8 1297.3 764.6 1288.2 765.5 1280.8 765.7 1268.4 766.2 1256.2 758.1 1241.8 758.3 1232.1 765.7 1226.5 770.2 1212.1 770.4 1212.1 723.9 1221.9 721.5 1223.4 715.3 1258.3 705.1 1257.6 720.7 1277 716.9 1277.2 722.1 1286.8 722 1294.7 718.7 1313 720.2 1308.7 730.7 1311.4 735 1319.9 743.2 1323.2 748.1 Z" data-holc_grade="C"/>
<path d="M 1316.8 826.9 1213 828 1212.8 813 1220.2 813.3 1219.9 797.4 1255.7 781 1266.2 779.9 1279.1 779.4 1287.7 778.2 1297.1 776.2 1309.9 772.3 1313.9 770 1321.9 766.8 1334.6 765.9 1345.9 765.4 1346.4 756.8 1352.8 752.4 1354.4 754.2 1357 756.8 1360.2 756.2 1363.5 755.1 1367.1 755.5 1365.5 768.3 1359.7 770 1359.1 789.5 1329.5 790.6 1329.7 802.7 1316.8 826.9 Z" data-holc_grade="C"/>
<path d="M 1313.7 831.6 1284 877.5 1280 875.6 1275.3 876.9 1274.4 881.8 1269.9 881.8 1263.7 878.3 1258.8 875.7 1254 872.8 1252.2 868.8 1251.5 865.9 1243 861.8 1236.8 858.8 1232.6 857.3 1231.5 858.5 1229.9 870.4 1214.4 870.5 1215.5 856.8 1188.4 846.4 1195.5 838.6 1196.8 836.5 1197.1 833.7 1198.6 829.5 1200.4 828.2 1213 828 1316.8 826.9 1313.7 831.6 Z" data-holc_grade="C"/>
<path d="M 1361.5 868.9 1357.1 892.9 1355.5 901.6 1352.4 902.1 1348 902.7 1344.6 902.8 1342.6 904.6 1341 906.1 1337.5 905.8 1335.9 903.8 1334.8 901.1 1333.5 901.5 1331.5 902 1329.5 901.5 1324.8 899.4 1321.1 899.3 1317.9 899.4 1315.9 899.6 1316.6 897.1 1316.4 894.1 1312.4 894.1 1307 894.6 1298.4 891.9 1295 892.5 1291.5 892.9 1288.2 889.5 1285.9 885.9 1285.1 882.1 1286 879.3 1284 877.5 1313.7 831.6 1358.2 830.9 1359.1 832.2 1350.4 868.1 1359.9 867.7 1361.5 868.9 Z" data-holc_grade="C"/>
<path d="M 1361.5 868.9 1366.4 868.3 1384.6 868.9 1401.7 869.7 1411.9 869.2 1417.3 868.3 1427.5 867.5 1427.7 874.1 1425.7 877.3 1426.6 881.7 1425.9 885.9 1420.6 885.4 1416 883.6 1420.2 890.6 1420.9 893.6 1408 889.5 1407.7 899.8 1405.1 901.5 1398.4 901.6 1393.5 900 1392.4 897 1389.5 897.1 1387.3 898.6 1384 899 1384.8 908.7 1383.3 912.8 1379.1 912.5 1373.5 912.1 1372.8 910.7 1372.2 892.2 1357.1 892.9 1361.5 868.9 Z" data-holc_grade="C"/>
<path d="M 1428.2 1023.5 1428 1019.9 1431.6 1017.2 1431.6 968.8 1428 966.8 1427.7 954.5 1379.7 955.4 1374.9 954.1 1363.7 960.7 1372.9 967.4 1373.2 979.4 1338.3 980.1 1330.5 980.3 1330.3 978.1 1223.1 977.9 1222.9 966.7 1198.4 966.8 1199.4 960.3 1246.7 960.5 1247.6 955.5 1273.8 954.9 1273.7 929.4 1317.9 929.9 1320.8 921.9 1316.2 920.9 1319.4 913.2 1340.5 921 1348.7 924.9 1352.3 926.3 1355.5 928.7 1356 932.3 1357.4 933.2 1380 933.4 1380.7 927.4 1397.2 925.6 1396.7 917.4 1398.2 911.8 1420.5 908.5 1426.8 910 1429.9 916.7 1436.5 920.9 1443.2 924.3 1453.4 937.4 1439.9 968.7 1439.1 1012.1 1454.4 1020.1 1445.9 1029.7 1436.9 1026.1 1436.7 1038.3 1428.5 1038.3 1428.2 1023.5 Z" data-holc_grade="C"/>
<path d="M 1338.3 980.1 1332.2 993.6 1326.2 993.4 1322 1002.8 1330 1003.9 1328.6 1011.4 1360.3 1012.5 1362.3 1022.6 1383.4 1023 1386 1026.3 1428.2 1023.5 1428.5 1038.3 1389.7 1039.4 1385.1 1030.8 1364.5 1031 1363.5 1039 1316.5 1038.8 1315.7 1029.9 1193.1 1031 1193.1 1024.1 1221.7 1022.8 1221.7 992.6 1221.7 980.8 1223.1 977.9 1330.3 978.1 1330.5 980.3 1338.3 980.1 Z M 1299.3 985.4 1256.3 984.6 1255.9 992.5 1289.1 992.8 1299.3 985.4 Z" data-holc_grade="C"/>
<path d="M 1313.5 1049.1 1313.5 1058 1313.5 1090.4 1313.5 1104.7 1313.5 1140.7 1304.7 1141.1 1303.4 1126.2 1152.8 1124.9 1152.8 1116.8 1182.9 1116.4 1183.5 1106.3 1167.3 1099.3 1157.8 1091.5 1153.5 1090.7 1137 1089.6 1101.8 1083 1099.9 1081.3 1103.5 1074.6 1140.1 1082.7 1141.1 1052 1193 1050.9 1226.4 1053.1 1276.4 1050.4 1313.5 1049.1 Z M 1197.6 1087.5 1197.1 1117.8 1250.2 1117.7 1248.7 1087.3 1197.6 1087.5 Z" data-holc_grade="C"/>
<path d="M 1440.5 1062.9 1440.5 1067.5 1441.7 1072.7 1420.1 1072.9 1420.1 1075.3 1420.6 1083.8 1412.4 1083.7 1418.9 1102.9 1441.7 1107.7 1442.7 1166 1384.7 1168.4 1363.4 1189.8 1377.9 1189.5 1358.5 1216.6 1340.1 1216.9 1339.4 1217.9 1337.9 1219.3 1322.7 1220 1321.7 1222.9 1320 1223.1 1317.8 1224 1317.3 1226.6 1315.1 1227.5 1314.9 1230.6 1310.3 1232.9 1306.6 1234.4 1314.2 1196 1313.5 1140.7 1313.5 1104.7 1365.6 1103.7 1362.2 1113.1 1364.1 1118.2 1368.5 1122 1367.5 1129.8 1373.3 1129.3 1375.8 1132.2 1376.7 1145.3 1423.5 1144 1399.3 1079.8 1397.3 1081.5 1390.3 1081.3 1385 1082.7 1377.9 1083.1 1374.8 1089.8 1313.5 1090.4 1313.5 1058 1331.9 1058.8 1334.5 1062 1350.5 1062.8 1374.1 1062.6 1386.2 1062.8 1394.7 1062.2 1440.5 1062.9 Z" data-holc_grade="C"/>
<path d="M 578.5 1316.9 594.5 1317.5 629.6 1317.3 630.3 1309.7 631.2 1304.2 637.9 1304.6 635.8 1324.1 636.5 1326.6 657.8 1327.6 657 1341.8 638.5 1342.7 637.9 1350.2 635.6 1351 632.1 1348.4 627.9 1347.2 628.3 1351.6 626.1 1353.6 613.8 1361.3 605 1357.3 585 1356.5 581.9 1356.1 569.4 1346.1 569.8 1343.5 573.9 1335.3 576.1 1333.2 579.4 1330.7 578.9 1326.6 577.9 1322.5 576.9 1320.7 578.5 1316.9 Z" data-holc_grade="C"/>
<path d="M 1306.6 1234.4 1304.2 1246.2 1377 1246.4 1378.2 1266.8 1285.1 1267.9 1283.6 1267.3 1286.8 1259.5 1244.6 1259.1 1247.3 1224.8 1248.2 1222 1251.9 1220.4 1256 1220.4 1270.5 1219.9 1275.4 1219.5 1279 1217.7 1279 1215.5 1277.8 1213.5 1273.5 1212.6 1267.4 1214.2 1263 1212.9 1262.1 1210.9 1261.8 1208 1261.6 1204.4 1256 1204.2 1252.1 1204.4 1249.9 1204.4 1250.5 1198.8 1250.8 1184.7 1243.8 1184.5 1243.7 1183.5 1245 1141.8 1304.7 1141.1 1313.5 1140.7 1314.2 1196 1306.6 1234.4 Z" data-holc_grade="C"/>
<path d="M 1052.7 1178.9 1054.4 1179.4 1058.5 1181.2 1062 1179.3 1063 1178.5 1068.5 1182.4 1091.4 1163.5 1088.5 1161.4 1089.6 1159.8 1097.9 1154.3 1109.7 1162.4 1110.3 1169.9 1119 1170.5 1119.4 1202.4 1057.5 1202 1055.8 1184.1 1053.5 1182.9 1050.6 1181.3 1052.7 1178.9 Z" data-holc_grade="C"/>
<path d="M 992.5 1285.1 992.5 1290.8 960.3 1291.3 959.1 1232.6 1007.6 1217.3 1007.3 1242.2 1063.6 1243.7 1061.9 1285.5 1002.7 1285.5 992.5 1285.1 Z" data-holc_grade="C"/>
<path d="M 1221.7 992.6 1221.7 1022.8 1193.1 1024.1 1192.4 1007.5 1159.9 1008.1 1159.9 994.1 1188.2 994.6 1191.4 992.1 1221.7 992.6 Z" data-holc_grade="C"/>
<path d="M 2305.5 1283.9 2303.2 1285.2 2280.1 1285.8 2254.5 1285.5 2250.6 1284.9 2249.2 1281.5 2249 1278.5 2248.7 1274 2249.5 1269.2 2248.7 1259.8 2248.7 1255.3 2243.5 1255.2 2237.5 1254.8 2229.1 1254.5 2225.2 1254.3 2225.4 1252.3 2225.7 1249.3 2225.9 1246.6 2224.8 1246.1 2221 1245 2218.9 1243.5 2218.9 1242 2220.9 1240.8 2222.7 1239.5 2225.9 1237.4 2230.4 1236.3 2232.1 1238 2234 1239.7 2236 1239.4 2237.3 1238.3 2237.5 1236.9 2238.7 1234.3 2244.3 1237.7 2247.7 1236.9 2252.2 1236.2 2258.3 1236 2266.5 1235.3 2274.7 1234.3 2281.7 1234.2 2288.3 1233.3 2296.4 1232.9 2302.6 1233.2 2306.5 1234.2 2307 1237.7 2303.2 1239.1 2299.9 1239.5 2296 1240.1 2294.4 1242.1 2294.2 1247.1 2292.9 1250.4 2289.7 1250.8 2300.4 1264.4 2298.6 1266 2293.6 1268.8 2298.4 1273.8 2305.5 1283.9 Z" data-holc_grade="C"/>
<path d="M 2197.6 1150 2213.6 1149.8 2214.1 1134.3 2239.8 1134.5 2240.5 1108.3 2275.6 1108.7 2275.2 1128.2 2263.3 1128.3 2268.1 1145.2 2270.6 1144.9 2297.7 1132.9 2298.2 1135.1 2297.5 1139.2 2301.3 1139.8 2304.7 1138.9 2314.2 1136.3 2324.1 1137.2 2323.4 1172.5 2316.9 1173.2 2314.9 1194.5 2313.2 1194.5 2299.9 1193.6 2288.5 1192.9 2286.3 1185.4 2264.7 1184.2 2259.2 1184.9 2258.9 1186.9 2261.8 1190.5 2270.6 1199.3 2278.6 1204.7 2280.2 1208.9 2269.1 1210.2 2256.7 1208.7 2244.6 1206.9 2235.9 1205.1 2222.1 1202.9 2215.5 1197.4 2211.9 1195.3 2204.4 1190.7 2195.4 1185.4 2187.6 1179.4 2181.6 1172.9 2177 1168.2 2171.4 1164.5 2167 1160.7 2159.8 1157.6 2155.9 1155.4 2150.1 1150.3 2152 1147.1 2150.6 1144.9 2145.5 1143.2 2139.9 1142 2127.3 1140.2 2121.7 1136.3 2104 1136.3 2104.5 1132.3 2104.3 1127.8 2106.9 1124.9 2095.3 1116.3 2111.7 1105.4 2112.7 1096.3 2151.7 1096.3 2151.8 1119.4 2146.7 1121.8 2155.7 1128.7 2147.7 1137.4 2148.6 1138.3 2157.8 1143.8 2156.4 1146 2171.4 1153.8 2174.8 1150.5 2180.9 1150 2188.6 1149.6 2197.6 1150 Z M 2223 1173 2223.8 1175.9 2224.6 1177.7 2227.4 1181.9 2230.7 1183.8 2234.8 1186.4 2237.2 1186.4 2242.6 1184.6 2251.9 1184.1 2251.3 1160.2 2246.1 1161.2 2237.6 1165.2 2223 1173 Z" data-holc_grade="C"/>
<path d="M 2054.8 1208.6 2055.3 1174.1 2101.4 1175 2103.6 1173.3 2113.3 1172.8 2118.3 1178.8 2120.8 1181.3 2123 1179.9 2125.4 1173.9 2132.6 1171.9 2133.1 1163.7 2146.7 1163.1 2156.2 1160.6 2166.8 1167.3 2174.1 1173.1 2179.9 1179.7 2187.4 1188.4 2175.6 1195.3 2167.8 1193.5 2159.3 1192.6 2150.6 1193.5 2148.4 1192.4 2148.4 1189.2 2146.7 1187.1 2142.8 1189.2 2139.4 1189.9 2139 1187.7 2127.1 1191.9 2118.6 1196.2 2113.3 1200.2 2111.3 1207 2054.8 1208.6 Z" data-holc_grade="C"/>
<path d="M 1954.1 1175.6 1951.7 1114.4 1951.1 1076.1 1953.2 1074.9 1953.5 1101 2020.4 1100.2 2051.9 1124.8 2051.4 1165.3 2010.2 1167 2010.2 1174.2 2055.3 1174.1 2054.8 1208.6 2019.4 1209 2019.7 1221.3 2004.7 1221.7 2003.9 1210.2 2001.7 1209.3 2000.5 1187.9 1972.9 1183.3 1954.1 1175.6 Z" data-holc_grade="C"/>
<path d="M 1952 1062.5 1955 1062.4 1954 1044.4 1964.4 1044.6 1969.9 1044.4 1974.7 1045.6 1977.1 1052.8 1981.7 1053.1 1982.6 1054.9 1982.9 1059 1988.4 1058.5 2003.5 1073.1 1999.9 1075.3 1988.7 1074.9 1953.2 1074.9 1952 1062.5 Z" data-holc_grade="C"/>
<path d="M 2227.4 1060.4 2226.6 1038.3 2132.6 1036.2 2075.9 1035.1 2057.4 1035.4 2055.7 1038.5 2054.5 1056.5 2057.9 1058.1 2057.7 1068.7 2060.6 1074.1 2063.3 1076 2068.1 1074.5 2079.3 1074.3 2090.9 1074.1 2107.4 1074 2111.3 1076.5 2124.6 1078.7 2137.2 1076.3 2145.9 1073.2 2153.2 1069.8 2162.2 1064.5 2169.2 1058.3 2193.4 1060.1 2227.4 1060.4 2197.1 1060.3 2197.1 1080.9 2153.9 1081.4 2151.7 1096.3 2112.7 1096.3 2111.7 1105.4 2095.3 1116.3 2087.2 1110.4 2062.5 1092 2054.8 1096.7 2044.1 1094.1 2042.3 1092.9 2018.4 1076.9 2028.1 1067.2 2019.9 1060.3 2001.7 1059.6 2004.1 1047.8 1969.2 1022 1993.2 1022 2041.2 1022 2103.5 1021.4 2245.5 1023.2 2247.2 1058.9 2246 1060.5 2227.4 1060.4 Z" data-holc_grade="C"/>
<path d="M 538.5 1277.6 547 1274.1 553 1271.6 562.9 1266.8 568.5 1264.9 591.9 1264.4 592.1 1259.9 605 1258.5 607.2 1259.3 634.5 1259.3 634.5 1266.3 600.7 1266.3 600.5 1269 585.2 1269.2 584.1 1286.2 551.9 1285.5 551.6 1289.8 559.8 1290.7 560.3 1294.3 562.1 1295.5 570.1 1295.6 579 1300.3 595.8 1301.1 594.5 1317.5 578.5 1316.9 577.4 1315.1 575.8 1309.1 572.1 1303.8 568.7 1301.6 565.9 1299.6 556.9 1299.3 555 1298.1 554.1 1294.8 549.6 1292.5 546.9 1291.5 545 1287.7 543 1283.8 538.5 1277.6 Z" data-holc_grade="C"/>
<path d="M 1954 1044.4 1955 1062.4 1952 1062.5 1936.8 1063.1 1937.8 1079 1937.8 1083.7 1937.1 1089 1936.8 1093.5 1933.2 1095.6 1926.5 1096.9 1920.5 1096.9 1914.4 1096.7 1911.7 1097.8 1909.6 1102.1 1905.9 1106.9 1901.7 1110.8 1893.8 1112.8 1892 1114.6 1949.3 1113.7 1951.7 1114.4 1954.1 1175.6 1948.4 1175.3 1932.9 1170.3 1920.8 1165.8 1915.9 1161 1907.8 1155.1 1904.1 1149.9 1897.8 1149.4 1891.4 1151.2 1884.1 1152.4 1876.8 1151 1869.3 1151 1861.1 1149.4 1856.2 1147.8 1855.9 1144 1857.1 1139.6 1859.3 1135.6 1862 1129.4 1863.2 1126.2 1866.8 1123.1 1876.2 1121.7 1880.2 1121.5 1879.6 1118.1 1877.8 1118.5 1874.1 1119.6 1869.3 1118.1 1865.9 1118.1 1859.6 1116.7 1856.2 1112.1 1849.9 1108.3 1839 1106.2 1834.7 1105.3 1833.8 1095.3 1833.5 1093.3 1837.5 1090.6 1842.9 1083.7 1845.6 1077.4 1844.7 1075.1 1843.5 1075.3 1836.2 1076 1832.3 1073.5 1823.5 1073.1 1814.4 1073.7 1813.2 1081.2 1805.3 1082.1 1805.3 1106.5 1789.9 1106.7 1789 1100.6 1785.6 1099.6 1777.8 1099.2 1772.6 1093.5 1768.7 1086.9 1765.9 1077.8 1765.3 1073.1 1772.6 1073.7 1780.2 1073.7 1780.2 1062.6 1779 1061.5 1772.6 1061 1764.1 1061.7 1758.1 1064 1754.7 1066.5 1701.7 1066.7 1698.1 1058.7 1689.3 1058.5 1690.2 1052.4 1749.9 1053.1 1752.6 1050.8 1752.6 1025 1755.9 1025 1757.6 1028.2 1757.2 1043.1 1811.9 1044.4 1813 1059.4 1843.4 1059.2 1845 1058.6 1841.4 1055.8 1835.6 1050.5 1831.9 1045.5 1830.3 1041.8 1824.3 1031.7 1854.8 1031 1855.2 1023.5 1870.2 1024.4 1875.3 1023.1 1875.9 993.5 1881.7 996.5 1888.4 997.4 1893.2 999.9 1893.2 1003.8 1896.5 1005.8 1901.4 1009 1902.6 1012.6 1903.2 1016.5 1914.4 1017.2 1914.1 1031.5 1923.5 1031.9 1932.6 1031.9 1942 1031.2 1946.8 1028.7 1952.9 1026.7 1954 1044.4 Z" data-holc_grade="C"/>
<path d="M 1814.3 977.7 1788.3 977.9 1771.9 981.8 1772.8 1001.4 1787.4 998.3 1792.5 1001.8 1801.2 999.8 1817.4 1021.7 1757 1022 1755.9 1025 1752.6 1025 1739.6 1024.7 1739.2 1002.5 1731.2 1002.1 1731.2 999.4 1735.8 993.4 1731.4 991.5 1727 995.6 1723.4 996.9 1719 996.9 1715.4 999.1 1711.2 991.5 1711.4 989.6 1715.9 984.1 1713.6 982.1 1708.9 981.3 1704.5 980.9 1702.1 978 1699.6 974.9 1697.9 972.1 1694.5 972.1 1692.7 970.6 1692.7 968.9 1691.4 967.5 1688.3 967.5 1687.4 965.2 1690.9 960.8 1700.1 951.5 1704.7 950.3 1705.2 972.1 1720.2 972.3 1795.4 972.3 1796 956.2 1799.8 956.2 1798.7 947.6 1821.2 961.5 1815.4 966.8 1814.3 977.7 Z" data-holc_grade="C"/>
<path d="M 1972.4 968.4 1972.4 1015.2 1994.4 1015.1 1994.7 988.3 2007.8 988.2 2028.6 988 2027.9 995.3 2041.4 996.3 2041.2 1022 1993.2 1022 1969.2 1022 1945 1004.7 1865.2 982.4 1865 972.5 1890.4 972.9 1889.9 969.6 1912.7 969.6 1914.4 987.4 1923.6 990.3 1927 986 1933.8 981.8 1942.5 980.2 1945.4 978.5 1944.7 974.7 1944.7 972 1946.9 971.1 1955.6 970.7 1954.9 967.4 1972.4 968.4 Z" data-holc_grade="C"/>
<path d="M 2041.2 1022 2041.4 996.3 2027.9 995.3 2028.6 988 2007.8 988.2 2007.7 964.4 2056.7 964 2056.7 950.5 2117.3 974.7 2118.5 1005.1 2104.7 1005.8 2103.5 1021.4 2041.2 1022 Z" data-holc_grade="C"/>
<path d="M 1922.9 914 1923 915.4 1917.1 917.7 1984.7 935.1 1983 952.4 1972.6 952.7 1972.4 964.7 1972.4 968.4 1954.9 967.4 1954.2 932.6 1935.7 932.6 1887 933.4 1847.8 934 1846.5 924.4 1793.9 923.1 1793.9 929.6 1783.3 929.5 1782.8 907.3 1802.2 907.7 1803.4 914.2 1808.3 914.1 1814.8 914 1815 898 1830.5 898.2 1863 904.4 1863 908.4 1892.4 909.3 1893.3 913.8 1922.9 914 Z" data-holc_grade="C"/>
<path d="M 1767.2 951.2 1774.2 961.2 1779.2 961.2 1778.7 960.2 1777.3 956 1796 956.2 1795.4 972.3 1720.2 972.3 1732.8 954.9 1725.7 955.3 1724.8 953.9 1730.4 948.3 1717.2 947.9 1717.2 935.6 1739.6 935.7 1740.5 936.8 1736.6 942.8 1736.4 943.9 1742.6 944.4 1739.3 950.6 1767.2 951.2 Z" data-holc_grade="C"/>
<path d="M 1549.1 866.2 1549.7 874.7 1560.3 874.9 1570 877.9 1578.1 880.4 1579.6 882.6 1579.6 886.8 1579.6 893.2 1581.2 897.5 1584.9 903.1 1584.4 907.7 1582.8 908.1 1580.2 906 1577 908.2 1547.2 907.6 1535.3 907.1 1526.4 905.2 1515.8 905.6 1511.2 904.4 1511.6 866.3 1549.1 866.2 Z" data-holc_grade="C"/>
<path d="M 1622.5 878.7 1621.6 860.8 1634.9 860.9 1634.8 837.8 1647.2 838.3 1647.3 846.9 1658.8 846.6 1659.9 864.1 1678 863.9 1678.8 893.8 1661.6 894.4 1654.3 899.6 1653.3 895.2 1640.4 895.3 1640.3 879 1622.5 878.7 Z" data-holc_grade="C"/>
<path d="M 2100.7 893.2 2101.4 905.3 2120.1 905.7 2120.1 929.8 2103.1 930.9 2103.3 953.4 2042.3 938.1 2030 934.5 2017.3 930.9 1988.7 922.7 1996.6 918.7 2005.4 912.9 2015.8 908.7 2018.7 907.2 2019.2 893 2100.7 893.2 Z" data-holc_grade="C"/>
<path d="M 1844.7 794.4 1842.3 794.2 1842.3 803.7 1848 803.5 1849.3 822.3 1861.7 822.3 1861.7 836.6 1922.6 836.2 1923.8 822.6 1933.2 822.6 1956.2 818.3 1956.5 879.8 1978.6 879.3 1979.9 853 2017.4 854.1 2020.8 854.2 2019.2 893 2018.7 907.2 2015.8 908.7 2005.4 912.9 1996.6 918.7 1988.7 922.7 1960.3 915.8 1923 915.4 1922.9 914 1922.7 905.6 1892.4 906 1891.7 897.6 1862.4 896.1 1862.4 884.2 1824.8 883.4 1823.1 871.4 1814.4 871.6 1813.6 846.4 1807.6 845.5 1808.1 807.7 1810 806.8 1825 805.1 1833.3 805.1 1833.3 803.1 1832.8 800.2 1830.4 798 1827.7 796.6 1829.1 791.9 1828.8 789.8 1844.7 794.4 Z" data-holc_grade="C"/>
<path d="M 513.9 1198.8 584.9 1198.6 585.6 1215 559.9 1248.3 557.6 1248.7 547.6 1243 546.1 1242.3 542.3 1237.2 540.1 1233.4 535.9 1222.9 534.7 1218.4 534.5 1213.6 532.7 1211.1 529.9 1208.5 524.7 1206.5 522.3 1205 518.7 1203.8 516.1 1202 513.9 1198.8 Z" data-holc_grade="C"/>
<path d="M 1952.6 776.7 1952.3 781.7 1955.2 781.7 1994.5 779.7 1994.2 789.1 1993.8 813.3 2016.5 813.5 2017.4 854.1 1979.9 853 1978 794.9 1924.4 794.2 1924.4 775.8 1917.7 775.3 1917.4 770.8 1916.8 763.1 1925.9 763.1 1926.7 757.3 1952.6 776.7 Z" data-holc_grade="C"/>
<path d="M 1917.4 770.8 1862.9 770.3 1862.4 765.9 1811.9 765.7 1809.5 763.9 1774.4 762.8 1774.4 776.1 1768.5 779 1766.8 778.8 1766.8 778.6 1767.3 761.4 1767.8 757.4 1774.1 744.6 1782.4 744.9 1787.7 738.5 1794.1 726.6 1797.6 720.3 1831.5 717.2 1858.5 716.9 1882.4 716.3 1885.2 719.4 1916.1 718.8 1917.3 716.3 1920.9 726.3 1925.6 727.7 1926.7 757.3 1925.9 763.1 1916.8 763.1 1917.4 770.8 Z" data-holc_grade="C"/>
<path d="M 1907 672.9 1908.5 701.5 1917.9 702.2 1917.3 716.3 1916.1 718.8 1885.2 719.4 1882.4 716.3 1858.5 716.9 1831.5 717.2 1797.6 720.3 1800.3 714.9 1802.1 711.5 1830 710.1 1830.9 706 1856.7 705.1 1856.4 700.4 1857 692.6 1861.2 688.1 1827.9 669 1838.8 657.9 1847.2 658.9 1849.2 661.4 1850 664.9 1855.4 669 1862.7 669.5 1875.2 671 1891.8 670.7 1892.8 669.5 1907 672.9 Z M 1866.2 664 1864.4 665.5 1859.3 665.2 1853.7 660 1852 656.1 1850 653.7 1850.1 650.5 1847.2 647.7 1843.5 644.8 1838.7 647.8 1832.4 650.4 1830.3 649.3 1822.1 642 1813.3 633.6 1812.4 631.8 1811.2 624.1 1810.3 618.4 1809.1 613.2 1813.4 612.7 1816.4 612.3 1819.1 613.2 1821.2 616.8 1823.3 619.8 1830.3 623 1832.1 626.4 1833.7 631.6 1836.1 635.2 1839.4 639.5 1844.9 638.6 1849.1 634.3 1854.6 625 1862.6 629.1 1861.9 629.9 1861.4 646.4 1862.4 655.5 1861.8 661 1866.2 664 Z" data-holc_grade="C"/>
<path d="M 1867.6 557.2 1872.4 556.1 1877.2 557.5 1872.4 565.9 1871.4 574.4 1840.5 598.9 1829.2 606.7 1827 603.7 1824.5 595.4 1822.6 590.3 1823.5 587.5 1826.8 584.5 1831 581.2 1832.3 576 1831 572.9 1828.8 571.1 1822.8 570.2 1815.4 570.2 1804.6 574.5 1800.1 571.9 1795.5 569.6 1791.7 568.1 1790.8 565.1 1790.1 561.7 1790.5 556.6 1789.9 551.5 1789.9 545.7 1792.8 541.7 1794.6 536.4 1793.9 532.6 1789.7 529.7 1784.5 526.6 1776.1 528.2 1772.1 528.7 1769 524.6 1765.9 520.9 1763.5 516 1759.7 510.6 1753 506.7 1751 503.3 1749.7 500.5 1745.4 498.7 1741 492.3 1737.5 483.2 1735.7 475.2 1740.3 474.8 1741.8 479.5 1760.7 479.7 1760.7 483.2 1753.9 484.4 1753.7 489.9 1756.8 490.8 1756.8 502.6 1769.7 501.3 1770.6 508.2 1769.4 510.2 1770.1 513.5 1772.6 512.2 1775.2 520.7 1786.6 519.5 1795.8 517.5 1797.8 520.6 1797.1 529.6 1801.9 530.4 1801.9 541.2 1805.3 542.9 1805.8 547.1 1814.5 549.4 1832.7 550.7 1851.6 549.8 1852.6 555.8 1861.3 555.2 1863.2 557.9 1867.6 557.2 Z" data-holc_grade="C"/>
<path d="M 1771.3 555.5 1688.6 556.4 1675.3 543 1674.4 504.9 1680.8 504.4 1681.1 497.2 1707.7 484.7 1709.9 488.1 1718.9 485.1 1720.5 484.6 1724.8 494 1728.3 493.1 1734 501.5 1731.2 504.3 1736.8 511.2 1741 510.2 1745.1 517 1742.8 519.3 1781.5 537.8 1780 545.6 1771.3 555.5 Z" data-holc_grade="C"/>
<path d="M 1884.3 516 1867.4 515.7 1857.2 515.3 1838.7 516.9 1837 515.3 1839 490.8 1841.7 491.9 1848 491.9 1855.7 490.2 1870.3 488.6 1880.7 486.6 1885.8 486.6 1884.3 516 Z" data-holc_grade="C"/>
<path d="M 1838.7 387.1 1841.7 385 1859.7 377.3 1865.7 374.4 1880.6 368.6 1884.8 375.6 1873.7 381.8 1868.1 383.5 1871.4 391.9 1899.5 390.4 1915.9 408.8 1919.5 409.1 1918.3 435.2 1915.7 477.4 1914.6 481 1894.4 481.9 1891.4 480.4 1889.2 477.6 1886.6 476.3 1882.8 472.6 1878.3 466.5 1874.3 465.3 1873.2 463.1 1870.8 455.6 1867.2 451.6 1857.2 448.5 1844.3 443.5 1842.6 440.9 1843.2 425.8 1839.2 417.5 1837.4 413.3 1842.6 411.1 1842.6 402 1850.6 401.2 1853.4 399.3 1849.4 396.7 1838.7 387.1 Z" data-holc_grade="C"/>
<path d="M 1975.8 392 1976.4 395.7 1976.7 397 1982.7 397.2 1987.6 400.8 1988.6 406.3 1959.4 407.2 1926.5 407.5 1928.2 404.6 1944.9 391.2 1958 381.6 1968.4 383.4 1973 385.8 1975.4 389.6 1975.8 392 Z" data-holc_grade="C"/>
<path d="M 1938.4 476.6 1937 479.9 1933.2 479.6 1926.3 480.5 1926.5 455.6 1926.5 447.6 1927 432.2 1926.5 407.5 1959.4 407.2 1988.6 406.3 1993.9 406.1 2002.8 406.1 2001.4 409.4 2001.6 414.4 1997.7 418.8 1991 420.2 1984.7 420.2 1982.7 433.7 1982 436 1989.3 437.5 1989.3 439.8 1971.3 455.4 1964 462.9 1960.4 463.4 1956.8 466 1955.3 468.9 1950.5 466.9 1945.9 466.1 1942 468.5 1938.4 476.6 Z" data-holc_grade="C"/>
<path d="M 2102.8 431 2101 443.7 2095.4 444.3 2074.8 444.9 2064.3 445.1 2055.9 445.7 2053 445.5 2046.1 445.1 2037.9 443.8 2031.7 448.8 2025.4 453.3 2019.4 457.8 2017 458.2 2015.7 460.4 2017.7 463.2 2017.4 464.7 2014.4 468.7 2007.2 473.6 1999.4 478.9 1995.9 481.9 1991.4 487.1 1967 509.9 1957 520.4 1952.4 524.9 1956.8 526.9 1973 533.3 1982.6 536.3 2000.4 543.3 2003.2 544.8 2003 556.2 1977.2 555.9 1968.8 555.8 1968.4 552.9 1969 544 1969.2 539.5 1963.5 538.1 1955.4 534.2 1950.4 532 1946.1 526.9 1921.4 552.4 1917.9 550.6 1912.8 548.3 1906.1 542.7 1903 538.1 1896.8 534.4 1890.5 530.8 1884.5 528.9 1884.3 516 1885.8 486.6 1887.7 485.7 1888 484.1 1891.4 480.4 1894.4 481.9 1914.6 481 1914.9 486.6 1914 491.2 1918.1 494.9 1916.6 500.8 1916.1 507.5 1914.3 514.3 1911.1 518.6 1915.5 516.4 1919.5 518.2 1922.5 520.6 1923 516.7 1922.5 513.2 1929.7 505.6 1926.5 503.3 1929.9 499.7 1923.9 496 1927.8 491.4 1928.5 488.8 1923.4 486 1926.3 480.5 1933.2 479.6 1937 479.9 1938.4 476.6 1945.5 481.6 1947.4 482.7 1950.6 479 1961 486.8 1970.1 478.4 1961.2 472.2 1967.4 466.8 1977.9 457.3 1985 450.6 1996.1 443.4 1995.5 440.7 1996.1 439.2 1998.8 438.1 2008.6 427.5 2018.3 433.4 2026.1 425.6 2033.4 419 2037.7 414.7 2047.5 406.6 2052.3 408.1 2055.1 409.8 2058.4 411.8 2061.9 413.6 2050.8 425.1 2055.9 429.1 2062.6 432.4 2080.1 439.3 2083.5 440.4 2088.3 431.5 2091.9 430.2 2102.8 431 Z" data-holc_grade="C"/>
<path d="M 609.7 849.7 609.4 872.1 619 872 617.9 892 599.8 891.2 598.1 903.6 575.7 913.6 571.3 911.7 571.6 903.6 549.2 903.8 548 926.3 533.2 931.1 528 931.7 503.2 944.4 473.6 956.4 475.3 895.1 556.5 895.3 557.1 878.5 574.5 877.4 577.4 849.3 609.7 849.7 Z" data-holc_grade="C"/>
<path d="M 1861.9 629.9 1878.3 630.2 1887.7 628.5 1888.1 623.1 1889.2 610.3 1890.6 605.4 1897.9 596.7 1900.1 592.6 1933.5 593.5 1978.9 576.8 1977.1 572.9 1975.9 570.2 1977.2 555.9 2003 556.2 2003.2 544.8 2016.2 550.7 2021.4 556.6 2024.7 561.3 2029.8 572.2 2025.9 574.7 2035.6 581.7 2032.6 587.4 2031 585.8 2015.3 587.2 2010.1 591.5 2009.8 595.1 2002 595.8 1986.5 598.8 1962.3 600.4 1945.6 604.7 1930.4 612.6 1924.7 619.9 1926.2 634.2 1922.6 634.2 1908 634.4 1888 633.5 1881.7 637.1 1875.9 641 1866.2 645.3 1861.4 646.4 1861.9 629.9 Z" data-holc_grade="C"/>
<path d="M 2350.6 479.5 2349 536.5 2331.9 536.2 2323.4 536.2 2305.8 535.8 2287.4 535 2286.9 551.6 2282.1 551.1 2272.5 551.5 2271.4 554.2 2263.6 553.3 2263.4 532.8 2248 531.1 2247.4 535.7 2243.4 538 2238.3 542.9 2239.2 548.1 2237.2 553.5 2218.5 554.9 2215.2 552.9 2214.9 548.4 2216.1 537.9 2219.2 534.8 2217.2 530.9 2228.4 531.1 2234.6 529.7 2235 519.6 2233.5 516.6 2231.3 513.9 2229.9 510.1 2255.7 509.6 2257.2 498.9 2269.2 498.9 2270.5 474 2285.5 472.5 2293.3 466.2 2299.4 466 2321.5 461.9 2351.2 456.9 2350.6 479.5 Z" data-holc_grade="C"/>
<path d="M 2523.1 478.8 2520.2 532.6 2529.5 533.5 2529.2 570.5 2514.1 569.9 2513.2 584 2448.7 583.6 2447.2 556.2 2397.5 556.2 2397.8 540.2 2392.3 541.7 2391.6 536.1 2373.6 536.5 2349 536.5 2350.6 479.5 2400.9 479.5 2400.4 443.8 2448.7 444.4 2449.8 477.5 2523.1 478.8 Z M 2440.6 518 2440.2 533.4 2451.5 532.8 2452.3 518.5 2440.6 518 Z" data-holc_grade="C"/>
<path d="M 2529.2 570.5 2529.5 533.5 2520.2 532.6 2523.1 478.8 2623.5 479.9 2624.4 470.1 2631.9 469.9 2630.7 530 2636.3 530.9 2637.1 564.7 2614.5 564 2614.2 538.3 2596.1 537.9 2595.8 569.4 2577.2 569.2 2576.6 555.7 2554 555.9 2553.4 538.7 2543.2 539 2542 578.4 2528.6 579.7 2529.2 570.5 Z" data-holc_grade="C"/>
<path d="M 2117.9 406.5 2100.9 406.7 2084.9 406.7 2060.7 406.7 2056.8 406.3 2055.1 409.8 2052.3 408.1 2051.7 403.2 2054.1 400.1 2044.7 394 2060.7 382.3 2067.7 388.5 2068.2 390.9 2072.3 388 2072.8 385.6 2067.5 381.4 2058.7 374.5 2068.7 366.4 2073.5 369.3 2078.6 373.5 2083.2 378.7 2089.5 375.4 2098.7 369.3 2097 366.6 2084.9 358.2 2084.7 355.9 2088.8 353.9 2083.7 349.9 2085.2 347.5 2093.9 337.5 2102.1 331 2125.9 347.7 2124.7 351.1 2133.2 359.1 2131.7 363.3 2124 368 2117.9 362.9 2113.8 363.7 2113.5 366 2121 369.8 2123.2 372.7 2122.7 378.4 2115.5 385.4 2109.2 387.8 2110.9 390.1 2123.2 391.8 2125.4 392.9 2122.5 397.9 2117.4 402.3 2117.9 406.5 Z" data-holc_grade="C"/>
<path d="M 2273.4 260.3 2273.5 262 2270.4 263.8 2267.6 266.8 2264.5 267.5 2261.3 268.2 2250 272.8 2237.1 277.4 2224 281.2 2215.6 283.9 2213.5 286.9 2212.4 287.7 2209.6 289.8 2200.5 295.9 2197.3 298.2 2197.5 299.7 2202 300.5 2203.8 301.9 2200.7 305 2195.6 308 2190 308 2183.8 309.2 2180.5 312.5 2182.4 317.4 2183.6 321.3 2179.3 322.4 2169.1 329.1 2167.4 330.4 2161.6 335.1 2152.2 341.3 2151.3 343.4 2149.1 342.8 2143.5 339.7 2138.2 335.5 2144 331.3 2150.2 325.4 2146.5 322.6 2140.2 317.4 2135.3 314.5 2130.4 311.1 2126.9 309.2 2146.5 297.5 2169.1 313.7 2189.1 297.7 2183.3 294 2173.6 286.6 2167.6 283.2 2177.4 277.7 2179.4 276.7 2184.9 279.7 2187.1 281.6 2195.5 282.8 2197.8 285.2 2200.2 287.7 2204.5 289.1 2207.6 286.4 2209.8 282.8 2208.2 280.9 2205.3 276.7 2205.8 274.4 2210.4 271.8 2219.6 269.5 2227.5 266.1 2229.1 268.7 2230.9 271.7 2234.5 272 2238.7 270.2 2239.3 265.7 2236 260.3 2233.6 254.1 2232.9 247.9 2233.8 244.5 2244.9 244.1 2252.5 243.9 2252.5 245.8 2264.7 245.8 2273.3 245.4 2272.7 248.7 2272.7 252.1 2273.3 257.4 2273.4 260.3 Z" data-holc_grade="C"/>
<path d="M 2212.4 287.7 2213.5 286.9 2215.6 283.9 2224 281.2 2237.1 277.4 2250 272.8 2261.3 268.2 2264.5 267.5 2267.6 266.8 2270.4 263.8 2273.5 262 2273.4 260.3 2279.3 257.1 2287.6 252.1 2297.4 245 2307.1 239.3 2321.3 230.2 2327.6 227.2 2335.1 220.5 2338.4 218 2346.2 222.9 2343.1 226 2337.4 230.1 2330.7 234 2330.5 235.5 2332 239.3 2323.8 244.6 2321.3 247.3 2324.2 251.3 2319.1 257.3 2319.1 260 2324.2 260.8 2328.4 262.3 2328 273.3 2324.5 274 2316.9 274.4 2315.3 275 2314.2 283.2 2312.7 284.7 2303.1 287.2 2293.4 288.7 2286.2 290.2 2282.2 290.1 2280.5 288.3 2280.7 278.9 2278.9 280 2274.5 280.1 2270.9 279.2 2261.1 279.8 2250 280.1 2249.5 286.1 2246.5 286.6 2236.2 285.2 2230.5 284.1 2227.3 287.7 2222.7 294.5 2219.8 293.3 2215.8 290.3 2212.4 287.7 Z" data-holc_grade="C"/>
<path d="M 1968.2 274.1 1971.1 274.6 1994.2 261 2004.2 262.6 2007.7 260.5 2007.7 258.5 2007.1 242.6 2003.7 240.4 2004.6 235.8 2004.3 234.7 2003.5 232.1 2010.4 224.8 2021.1 217.4 2021.7 234.4 2053.5 225.2 2073.3 224.5 2067.8 217.6 2055.1 209 2042.6 200.7 2062.7 184.1 2121.5 207.5 2126.7 204.2 2131.8 202.6 2132.9 204 2133.1 214 2133.3 221 2130.9 222.1 2125.5 223.8 2120.9 227.2 2118.7 233.1 2123.8 238 2127.3 241.5 2126.7 244.9 2125.1 247.8 2113.1 252.3 2110.4 248.4 2096.4 254.7 2074.9 262.7 2056.6 269.3 2033.1 269.4 2033.3 273.9 2023.1 274.1 2019.1 277.1 2003.5 283.9 2002.8 288.7 1962.8 289.5 1951.3 292.5 1946 289 1953.1 283.4 1961.5 276.7 1968.2 274.1 Z" data-holc_grade="C"/>
<path d="M 2182.7 184.1 2182.2 194.7 2182.3 210.2 2181.7 217.6 2159.3 217.4 2159.3 213.9 2133.1 214 2132.9 204 2131.8 202.6 2132.5 185.3 2132.4 181.7 2181.5 180.6 2182.7 184.1 Z" data-holc_grade="C"/>
<path d="M 2108.2 180.9 2108.4 181.1 2108.1 181 2108.2 180.9 Z M 2108.2 180.9 2108 180.4 2104.3 179.9 2104.1 172.2 2104.3 166.9 2095.1 159.6 2103.5 152.3 2112.8 160.4 2120.7 162.6 2132 162.6 2132.4 181.7 2132.5 185.3 2109.9 179.2 2108.9 180.2 2108.2 180.9 Z" data-holc_grade="C"/>
<path d="M 698 725.3 689.3 723.6 681.2 746.5 673.9 746.3 674.3 736.7 662.4 736.3 661.5 746.8 652.7 747.6 653.1 753.4 634.9 753.4 629.3 744.7 628.4 719.1 649.2 720 648.9 728 632.2 733.4 631.5 735.5 637.4 745.2 649.3 740.9 650.1 735.2 664.3 731.1 666.8 732.4 679.3 726.1 676.2 720.4 693.2 715.5 698 725.3 Z" data-holc_grade="C"/>
<path d="M 2280.9 111.4 2287.9 119.2 2293.3 125.1 2318.5 152.5 2264.2 184.1 2261.2 183 2182.7 184.1 2181.5 180.6 2132.4 181.7 2132 162.6 2131.5 131.2 2141.5 120.4 2150.9 127 2140.5 135.5 2145.9 140.6 2139.3 148.4 2176.2 146.5 2175.4 134.4 2172.5 132.6 2178.8 127.7 2231.4 125 2231.7 108.7 2238.9 102.9 2240.9 96.9 2239.4 86.7 2246.7 82 2246.7 79.8 2248.9 79.3 2265.6 94.7 2280.9 111.4 Z M 2231.6 131.4 2204.5 132.2 2181.3 132.7 2180.6 149.6 2173.7 148.9 2174.9 158.5 2181.5 157.9 2182.1 152.4 2213.7 154.1 2231.9 152.7 2231.6 131.4 Z" data-holc_grade="C"/>
<path d="M 2174 98.1 2177.6 93.3 2181.5 95.5 2185.6 92.6 2201.3 108.3 2194.2 111.4 2185.6 102.8 2182.7 105.3 2174 98.1 Z" data-holc_grade="C"/>
<path d="M 2248.9 79.3 2246.7 79.8 2246.7 82 2225.5 62.5 2226.7 58.9 2232.9 58.1 2234.4 55.1 2239.3 51.6 2249.6 48.2 2262 69.5 2248.9 79.3 Z" data-holc_grade="C"/>
<path d="M 2380.7 63.5 2380.5 117.2 2371.8 123.1 2354.1 131.8 2332.5 145.4 2328 146.6 2323 144.8 2320.5 138.7 2318.1 132.9 2317.2 130.5 2310.5 130.8 2305 131.6 2302.1 129.5 2301.6 127 2301.6 123.2 2301.4 121.3 2296.3 122.2 2293.3 125.1 2287.9 119.2 2280.9 111.4 2286.1 106.8 2298 95.7 2304.1 93.7 2323.2 93.7 2326 94.5 2328.7 113.3 2328.1 118.3 2314.5 118.4 2311.2 119.4 2311.4 121.7 2312.5 123.3 2319.6 123.1 2325.4 123.2 2333.4 122.7 2338.5 122.9 2339.6 120.9 2338.9 94.9 2332.7 94.2 2330.9 91.3 2331.2 85.8 2331.2 77.9 2331.4 71.5 2329.4 69.6 2310 72.9 2305.6 74.3 2304.7 71.3 2305.2 66.1 2304.1 63.9 2303.2 62.7 2302.6 48.4 2344.7 32.4 2371.2 21.1 2371.2 64.6 2378.5 65 2380.7 63.5 Z" data-holc_grade="C"/>
<path d="M 2891.4 971.5 2904.5 971.5 2927.9 966.4 2970.5 949.5 2999 987.1 2987.5 998 2958.8 999 2958.8 1000 2975.2 1023.9 2938.3 1023.4 2906.3 1027.2 2906.3 1030.8 2876.6 1048.3 2874.8 1022.3 2905.9 1020.8 2907.9 1012.9 2895.4 1006.9 2891.4 971.5 Z" data-holc_grade="C"/>
<path d="M 2626.8 1161 2702.4 1161.5 2703.8 1166.9 2704.4 1171.1 2705.9 1175.4 2704.7 1180 2701.2 1182.6 2687 1183.9 2671.6 1183.9 2661.4 1180.9 2654.4 1178 2646 1176.1 2639.8 1176.5 2639.3 1182.4 2639.8 1188.7 2643.3 1189.8 2652.1 1195.5 2663.7 1201.8 2670.1 1202.1 2673.9 1201.4 2675 1204.5 2677.4 1208.2 2681.1 1210.1 2688.4 1213.8 2695.1 1217.1 2696 1218.2 2701.8 1217.5 2704.1 1218.9 2705.3 1222.6 2712 1222.6 2718.7 1222.6 2723.9 1228 2716.6 1234.1 2707 1234.1 2703.8 1280.8 2640.4 1279.5 2641 1261.6 2622.4 1260.8 2626.8 1161 Z" data-holc_grade="C"/>
<path d="M 2411.6 1279.5 2411.4 1290.8 2383.5 1290.7 2382.3 1330.3 2359.3 1331 2366.7 1336.9 2359.3 1342.6 2350 1337 2349.4 1343 2336.7 1342.8 2338.5 1325.9 2313.8 1306.1 2313.3 1285.3 2321.7 1284.9 2320.8 1278.3 2411.6 1279.5 Z M 2340.5 1320.8 2356 1321.1 2356.9 1310.9 2378.2 1310.1 2379.4 1291.6 2341 1290.6 2340.5 1320.8 Z" data-holc_grade="C"/>
<path d="M 957.4 701.5 956.4 723.6 947.4 720.7 940 720.2 935.2 721.1 931.4 723.6 928 725.4 925.8 720.7 903.3 720.4 903.3 747.1 955.3 747.7 955.1 753.4 947 753.3 898.3 752.4 897.1 755.8 864.6 755.5 839.1 755.3 823.9 756.7 813 756.5 808.6 753.1 809.3 721.1 771.7 719.7 771.3 735.7 770.3 736.9 751.1 737.1 744.6 731.8 745.3 722.2 742.2 720.6 740.5 722.4 741.4 736.2 734.2 734 725.9 737.5 717.2 741.3 710.9 736.4 708 741.5 705.8 741.5 698 725.3 693.2 715.5 700.8 714 753.9 697.1 789.6 696.9 791.7 685.1 802.7 685.1 802.9 698 846 699.3 891.9 699.5 957.4 701.5 Z M 825.8 744.6 829.7 741.8 831.4 749.3 884.9 748.9 884.5 723.1 824.8 722 825.8 744.6 Z" data-holc_grade="C"/>
<path d="M 1017.8 693.1 1017.9 695.9 1017.4 695.8 1018.3 705.2 1009.2 703.4 1009.4 706.1 1000.5 703.2 991.6 700.7 982.7 701 982.5 697.6 968.2 698.1 967.8 707 982.7 707.1 996.3 709.4 997.1 717 1012.3 718.5 1018.3 720.3 1016.7 754.4 989.2 753.9 963.3 753.5 955.1 753.4 955.3 747.7 956.4 723.6 957.4 701.5 957.6 696.6 959.4 694.2 982.7 693.2 982.8 691.4 982.9 689.5 1010.2 695.1 1011.2 692.3 1017.8 693.1 Z" data-holc_grade="C"/>
</g>
<g id="D">
<path d="M 538.5 1277.6 533.9 1273.1 557.6 1259.4 566.5 1259.4 576.5 1250.2 584.3 1249.4 583.4 1244.3 608.3 1229.6 605 1258.5 592.1 1259.9 591.9 1264.4 568.5 1264.9 562.9 1266.8 553 1271.6 547 1274.1 538.5 1277.6 Z" data-holc_grade="D"/>
<path d="M 2007.8 988.2 1994.7 988.3 1979.1 987.4 1978.7 968.7 1972.4 968.4 1972.4 964.7 2007.7 964.4 2007.8 988.2 Z" data-holc_grade="D"/>
<path d="M 2030 934.5 2027.2 937.6 2028.1 956.9 2004.2 956.5 2004.3 947.2 2007.3 946.8 2008.6 934 2016.4 936.6 2017.3 930.9 2030 934.5 Z" data-holc_grade="D"/>
<path d="M 1917.4 770.8 1917.7 775.3 1924.4 775.8 1924.4 794.2 1978 794.9 1979.9 853 1978.6 879.3 1956.5 879.8 1956.2 818.3 1933.2 822.6 1923.8 822.6 1922.6 836.2 1861.7 836.6 1861.7 822.3 1849.3 822.3 1848 803.5 1842.3 803.7 1842.3 794.2 1844.7 794.4 1862 798.3 1862.9 770.3 1917.4 770.8 Z" data-holc_grade="D"/>
<path d="M 1766.8 778.6 1766.8 778.8 1768.5 779 1785.9 782.9 1787.6 790.9 1790.7 791.3 1791 794 1793.2 793.5 1792.7 796.8 1794.8 796.9 1795.9 799.2 1799.8 798.4 1799.4 804.7 1808.1 807.7 1807.6 845.5 1813.6 846.4 1814.4 871.6 1823.1 871.4 1824.8 883.4 1820.8 884.1 1819.6 889.4 1780.5 880 1768.1 880.3 1766.8 877.8 1756.7 877 1756.1 826.9 1749.2 826.7 1748.7 822.8 1745.2 821.7 1745 817.8 1743.9 810.4 1742.1 803.3 1743.2 795.4 1743.9 787 1754.1 786 1753.9 784.6 1754.3 776.2 1766.8 778.6 Z" data-holc_grade="D"/>
<path d="M 1808.3 914.1 1803.4 914.2 1802.2 907.7 1782.8 907.3 1783.3 929.5 1784.2 933.4 1772.3 933.4 1768.7 932.4 1765.4 929 1761.7 926.8 1759 924.8 1755.4 921.3 1752.2 919 1749.8 920.9 1749 922.7 1767.2 951.2 1739.3 950.6 1742.6 944.4 1736.4 943.9 1736.6 942.8 1740.5 936.8 1739.6 935.7 1717.2 935.6 1717.2 947.9 1730.4 948.3 1724.8 953.9 1725.7 955.3 1732.8 954.9 1720.2 972.3 1705.2 972.1 1704.7 950.3 1704.3 935.4 1710.2 934.5 1710.8 927.1 1737.9 911.2 1742 911.9 1746.4 911 1751.6 905.6 1749.2 902 1741.7 898.8 1736.7 903 1734.3 907.5 1730.8 913 1728.7 914.8 1717.5 914.8 1707.9 914 1707.9 905.5 1714 905.9 1714 896.9 1719.3 894.4 1722.6 893.3 1725.2 891.8 1729.5 889.2 1736.1 886 1739.8 884.6 1742.9 885.4 1746.4 886.7 1750.4 887.1 1752.6 886.2 1756.3 886.6 1762.2 887.1 1767.5 886.9 1768.1 890 1789.8 890.8 1791 897.5 1807.8 898.1 1808.3 914.1 Z" data-holc_grade="D"/>
<path d="M 1679.3 825.3 1680.6 803.7 1691.2 807.8 1694.8 806.6 1709.3 811.8 1709.8 822.7 1725.6 822.7 1726.5 845.3 1709.1 845.1 1715.4 860.9 1707.6 873.6 1722.9 884.7 1702.3 898.3 1701.1 911.6 1693.1 912.1 1689 914.3 1690.4 922.3 1686.8 926.1 1687.8 939.2 1672.5 939.7 1669.6 946.5 1649.9 946.5 1649.2 938.5 1648.5 937.4 1664.1 938 1662.4 924.8 1677.3 924.4 1676.6 915.6 1645 915.4 1644.8 901.1 1654.3 899.6 1661.6 894.4 1678.8 893.8 1678 863.9 1659.9 864.1 1658.8 846.6 1647.3 846.9 1647.2 838.3 1634.8 837.8 1634.9 860.9 1621.6 860.8 1622.5 878.7 1625.3 879.8 1624.1 887.2 1618.3 887.3 1618.4 893.4 1627.9 893.2 1629.7 899.6 1631.7 936.9 1621 937.1 1620 935.9 1620.1 928.8 1619 919.3 1618.6 915.2 1618.9 905.8 1616.9 902 1602.1 902 1601.6 896.3 1596.8 895.6 1595.3 883.6 1589.8 883 1588.4 875.4 1590 869.6 1589.8 864.9 1586.9 863.2 1581.9 863.2 1574.3 865.3 1573.1 863.7 1569.8 861.5 1563.7 861.4 1558.7 859.8 1555.9 858 1553.1 860.5 1550.9 859.7 1547.5 859 1544.5 859.1 1543.9 856.4 1542.5 855.3 1538.1 854.5 1538 844.8 1551.9 843.9 1552.4 841.4 1550.1 838.1 1552.1 835.2 1544 825.4 1514.2 825.9 1513 812.9 1515.4 812.9 1543.9 813.2 1552.8 823.6 1558 821.7 1561.2 821.9 1562.7 823.8 1574.2 824.3 1574.2 842.1 1594.6 841 1594.5 848.3 1605.6 847.4 1606 832.9 1607.4 831.5 1617.5 830.7 1618.4 827.6 1623 827.6 1627.4 828.2 1631.5 830.2 1634 828.6 1637.8 827.4 1643.3 831.2 1649.6 834.1 1659.9 837.4 1666.8 839.8 1670.6 842.1 1673.4 844.6 1678.1 843.8 1678.7 840.5 1679.2 836.5 1679.3 825.3 Z" data-holc_grade="D"/>
<path d="M 1680.6 803.7 1679.3 825.3 1678.4 824 1669.5 824.4 1651.3 824.3 1644.5 824.3 1639.3 821.3 1635.7 818 1627.5 813.2 1618.6 819.7 1614.3 819.9 1606.3 821.2 1603.7 823.2 1599.8 825.5 1592.1 826.8 1586.8 826.1 1581.2 821.8 1581.3 812.2 1579.5 810.1 1575.7 807.8 1572.4 805.8 1569.8 803.7 1573.3 801.1 1572.8 799.1 1570.6 798.7 1567.2 797 1562.8 793.9 1565.7 791.6 1550.1 792.1 1549 785.8 1550.4 785.2 1564.5 785.7 1565.7 784 1565 771 1567.4 771 1567.5 768.3 1565.7 764.4 1560.6 759.3 1566.5 755.9 1562.1 753.5 1554.8 748.9 1547.1 742.5 1537.5 738.6 1537.5 727.4 1540.7 727.3 1543.7 725.4 1546.8 727.2 1551 730.8 1555 728.6 1578.6 745.3 1580.6 744.6 1585.3 741.6 1585.3 737.1 1590 736.7 1595 737 1600.3 738.2 1603.7 738.2 1608.9 737.2 1615.3 735.5 1621.3 734.7 1633.9 732.8 1640.4 731.7 1642.7 732.7 1646.9 734.5 1649.8 736.3 1650.7 738.8 1653.9 741.1 1656.8 739.6 1661.3 739.9 1662.5 742.6 1663 753.1 1662.1 767.7 1664.3 768.4 1668.9 768.2 1672.5 769.3 1673.7 777.3 1670.6 777.6 1663.1 777.7 1661.9 781.1 1653.7 781.3 1652.8 783.5 1650.1 786.6 1646 787 1646.6 772 1643.6 771.7 1631.6 771.4 1629.8 757.5 1618.6 758.2 1614.5 756.8 1612.7 749.2 1608.9 748 1605.6 746.5 1603.3 745.1 1597.7 745.9 1597.7 750.2 1599 763.9 1598.8 772.2 1606.3 771.5 1611.9 775.7 1615.3 778.2 1614.3 781 1616.5 784.2 1626.4 784.2 1628.6 787.9 1631.8 792.6 1638.8 793.7 1646.1 794.8 1649.2 799.8 1660.6 807.1 1670.1 799.5 1680.6 803.7 Z" data-holc_grade="D"/>
<path d="M 1663 753.1 1662.5 742.6 1661.3 739.9 1656.8 739.6 1653.9 741.1 1650.7 738.8 1649.8 736.3 1646.9 734.5 1642.7 732.7 1640.4 731.7 1648.6 725.5 1656.8 728.7 1663 722.5 1669.7 718.6 1692.3 718.2 1722.5 718.4 1723.2 723.4 1730.6 723.7 1730.6 731.4 1736.3 732.3 1735.2 766.2 1715.9 757.5 1716.5 770 1727.6 772.4 1728.3 786.8 1715.7 787.6 1715 796.3 1709.7 796 1709.4 770 1703.2 769.5 1703.2 763 1678.6 762.8 1677 753.1 1663 753.1 Z" data-holc_grade="D"/>
<path d="M 1497.7 633.5 1499.2 633.8 1605.2 622 1612.3 622.1 1613 627.7 1622.3 627.8 1622.6 633.5 1631.4 634.8 1635.7 639.4 1642.1 645.4 1646.8 650.8 1646.6 655 1655 654.6 1655.4 656.1 1655.9 663.5 1663.7 663.5 1664.6 671 1652.5 671.2 1651.9 696.7 1676.1 696.6 1676.1 679.8 1684.1 680 1684.3 685.8 1691 686.2 1690.1 695.5 1691.2 696.2 1696.1 696.9 1696.6 705.8 1691.6 706.1 1689.6 704.5 1676.8 704.3 1676.8 698.9 1669 699 1667.9 711.3 1667.6 712.5 1659.6 715.4 1653.2 717.8 1641.9 717.3 1641.7 719.3 1639.4 720.3 1637 719.5 1633.4 717.4 1618.8 727.5 1612.6 726.8 1607.2 726.1 1598.8 726.5 1596.8 724.1 1586.1 724.4 1583.9 722 1583 707.7 1575.6 705.7 1573.9 710.5 1569.7 710.1 1573.2 695.8 1555.6 692.1 1554.8 692.8 1551 700.3 1548.8 699.7 1546.5 700.1 1539.4 698.2 1535.7 700.7 1518.8 686.4 1518.3 684.7 1515.2 683.9 1512.8 684.3 1475.7 675.5 1481.7 658 1472.1 645 1469.4 638.7 1470.7 637.2 1487.9 636.1 1491.2 638.8 1492.8 640.5 1494.3 642.2 1496.7 641.8 1498.8 640.3 1498.1 638.4 1497.7 633.5 Z" data-holc_grade="D"/>
<path d="M 1605.2 622 1499.2 633.8 1497.7 633.5 1495.9 628.5 1491 628.6 1489.2 618.3 1468.5 619.6 1467.4 613.2 1458.3 602.8 1437.9 613.4 1430.8 609.2 1437 604.8 1431.6 598.4 1493.2 569.8 1499 577 1532.7 561.5 1541.7 573.1 1547.9 572.3 1559.4 586 1565.4 585.1 1570.7 593.5 1579.6 593 1582.1 599.6 1585 599.6 1588.1 607.7 1591 607.4 1593.9 616.6 1603.2 616 1605.2 622 Z" data-holc_grade="D"/>
<path d="M 1013.5 989.7 1014.5 1002.3 1009.4 1002.3 1008.5 1006.4 1006.3 1010 1003 1010.9 985.7 1010.4 986.3 1019.1 993 1020.2 987.5 1025.4 907.6 1024.1 907.6 1014.1 937.9 994 954.2 983.8 955 988.2 1013.5 989.7 Z" data-holc_grade="D"/>
<path d="M 1720.5 484.6 1718.9 485.1 1709.9 488.1 1707.7 484.7 1681.1 497.2 1680.8 504.4 1674.4 504.9 1675.3 543 1688.6 556.4 1771.3 555.5 1776.8 555.5 1780.5 575.9 1788.9 581.6 1797.1 582.9 1798 601.8 1811.7 601.1 1809.1 613.2 1810.3 618.4 1811.2 624.1 1772 625.7 1743.5 626.1 1726.9 626.5 1704.5 625.7 1682.4 625 1657.9 623.1 1650.1 621.8 1637.9 622 1630.9 621.1 1631.4 612.7 1612 614 1612 604.9 1602.3 605.8 1598 589.7 1588.7 590.4 1587.4 585.9 1580.2 586.3 1579.3 580.7 1572 581.6 1559 565.5 1550.8 567.7 1542 557.1 1538 558.7 1534.1 553.2 1602.6 522.6 1603.8 518.9 1610.5 519.2 1613.5 516.7 1619.9 514.2 1639 503.3 1638.3 498.5 1651.7 497.4 1653.2 500.1 1657.1 500.6 1657.7 491.7 1668 491.5 1669.3 486.1 1672.9 483.6 1674.4 478.3 1683.2 479.2 1685.9 474.3 1693.8 474.5 1694.1 485.1 1705.6 479.5 1706.5 456.1 1715.3 452 1716.2 475.6 1721.7 473.4 1726.5 481.7 1724.7 483.1 1720.5 484.6 Z" data-holc_grade="D"/>
<path d="M 1811.2 624.1 1812.4 631.8 1813.3 633.6 1822.1 642 1830.3 649.3 1832.4 650.4 1838.8 657.9 1827.9 669 1861.2 688.1 1857 692.6 1856.4 700.4 1856.7 705.1 1830.9 706 1830 710.1 1802.1 711.5 1800.3 714.9 1797.6 720.3 1794.1 726.6 1787.7 738.5 1782.4 744.9 1774.1 744.6 1758 744.2 1756.3 739.9 1757.4 733.5 1759.5 727.9 1773.4 727.7 1773.1 724.2 1768.5 721.8 1761.8 720.9 1755.1 721.3 1750.7 719.8 1752.8 715.9 1745.2 712.2 1740 713 1732.1 708.7 1739.1 700.6 1730.1 696.1 1704.8 695.8 1704.8 680.1 1690.8 679.3 1690.8 676.2 1681.5 676 1679.2 666.2 1675.7 665.5 1675.7 662.3 1673.9 656.8 1665.5 656.8 1661.7 653.6 1658.5 650.3 1649.2 640.3 1644 635.7 1644.6 627.9 1631.8 628.1 1630.9 621.1 1637.9 622 1650.1 621.8 1657.9 623.1 1682.4 625 1704.5 625.7 1726.9 626.5 1743.5 626.1 1772 625.7 1811.2 624.1 Z M 1808.9 682.3 1818.8 672.3 1826.1 650.3 1810.1 658.6 1799 659.9 1798.4 667.7 1766.7 670.1 1765.9 695.4 1799.6 695.8 1808.9 682.3 Z" data-holc_grade="D"/>
<path d="M 1892.8 556.7 1887 562.6 1883 567.8 1893.9 582.2 1897.5 587.7 1900.1 589.3 1900.1 592.6 1897.9 596.7 1890.6 605.4 1889.2 610.3 1888.1 623.1 1887.7 628.5 1878.3 630.2 1861.9 629.9 1862.6 629.1 1854.6 625 1852.5 622.5 1856.1 614.4 1854.6 611.4 1847 605.9 1840.5 598.9 1871.4 574.4 1872.4 565.9 1877.2 557.5 1872.4 556.1 1867.6 557.2 1867.6 553.8 1870.3 552.1 1877.5 552.9 1879.7 551.6 1884.8 546.7 1892.8 556.7 Z" data-holc_grade="D"/>
<path d="M 1888 484.1 1887.7 485.7 1885.8 486.6 1880.7 486.6 1870.3 488.6 1855.7 490.2 1848 491.9 1841.7 491.9 1839 490.8 1837 515.3 1838.7 516.9 1857.2 515.3 1867.4 515.7 1884.3 516 1884.5 528.9 1884.8 546.7 1879.7 551.6 1877.5 552.9 1870.3 552.1 1867.6 553.8 1867.6 557.2 1863.2 557.9 1861.3 555.2 1852.6 555.8 1851.6 549.8 1832.7 550.7 1814.5 549.4 1805.8 547.1 1805.3 542.9 1801.9 541.2 1801.9 530.4 1797.1 529.6 1797.8 520.6 1795.8 517.5 1786.6 519.5 1775.2 520.7 1772.6 512.2 1770.1 513.5 1769.4 510.2 1770.6 508.2 1769.7 501.3 1756.8 502.6 1756.8 490.8 1753.7 489.9 1753.9 484.4 1760.7 483.2 1760.7 479.7 1741.8 479.5 1740.3 474.8 1735.7 475.2 1733.5 473.6 1733.5 468.7 1732.1 461 1734.8 456.3 1735 435.3 1736.9 432.2 1759.6 422 1786.6 409.7 1817.8 394.9 1819.8 397 1819.2 401 1818 402.2 1817.7 402.8 1817.6 404.1 1814.8 404.4 1813.6 406.5 1815.8 407.2 1819.2 406.8 1821 405.7 1822.6 405.3 1823.1 406.3 1824.8 406.4 1825.4 404.3 1823.1 402.5 1830.3 402.3 1830.5 407.4 1830.8 413.2 1832 416.9 1835.3 418.2 1836.9 420 1836.9 422.5 1836 427.9 1836 432.5 1835.7 436.3 1837.4 440.6 1840.5 442.7 1840.5 444.3 1840.6 447 1840.6 448.8 1843.8 448.5 1846.6 449.3 1847 451 1848 452.3 1850.4 453.8 1854.6 453 1855.7 454.3 1857.1 455.5 1856 456.7 1857.9 458.1 1859.5 458.3 1861 459.2 1860.8 462.5 1861.3 465.2 1863.7 466.3 1866.3 466.8 1868.1 468.1 1872.1 468.9 1874.9 470.3 1876.4 471.7 1877.5 472.6 1877.9 475.5 1878.8 477.6 1880.8 478.4 1882.4 478.5 1886 479.2 1888.4 481.9 1888 484.1 Z" data-holc_grade="D"/>
<path d="M 1892.8 556.7 1884.8 546.7 1884.5 528.9 1890.5 530.8 1896.8 534.4 1903 538.1 1906.1 542.7 1912.8 548.3 1917.9 550.6 1921.4 552.4 1911.4 564.8 1898.3 557.7 1892.8 556.7 Z" data-holc_grade="D"/>
<path d="M 2179.4 276.7 2177.4 277.7 2167.6 283.2 2163.1 285.7 2150 285.7 2129.1 285.3 2128.6 289.3 2130.3 293.1 2130.8 297.3 2127.9 299.7 2122.3 300.9 2118.7 289.7 2117 287.7 2107.3 292.6 2106.1 295.1 2111.4 304.6 2109.7 306.6 2105.1 306.2 2104.2 309.3 2102.9 315.1 2101.5 318.4 2094.7 322.2 2091.5 318.9 2087.9 312.7 2084.5 308.6 2082.1 307.1 2078.7 309.7 2076 309.5 2063.7 318.7 2066.3 322.5 2070.5 327.1 2069.2 329.4 2070.7 332.3 2073.8 334.9 2073.1 338.9 2063.4 345 2065.6 348.3 2067.5 349.9 2062.5 353 2059.5 354.5 2054.9 359 2046.9 362.6 2039.2 367.3 2031.9 373.3 2025.6 378.8 2022 381.8 2016.9 377.5 2013.2 375.9 2007.7 376.8 2004.3 375 2002.3 373.7 2001.4 376.8 1992.6 380 1992.9 382.8 1996.5 392 1997.2 394.9 1990.9 396.4 1989.2 393.8 1988 388.9 1983.7 389.6 1975.8 392 1975.4 389.6 1973 385.8 1968.4 383.4 1958 381.6 1944.9 391.2 1928.2 404.6 1927.4 395.5 1926.5 369.5 1928.6 369.5 1941.2 375 1950 378.8 1950.9 375 1950.2 369.3 1951.2 363.2 1949.2 361.9 1943.2 362.8 1935.9 360.4 1934 359 1934.7 355.5 1933 353.9 1931.8 352.1 1926.2 352.8 1927.2 351 1953.6 339 1968.4 340.1 1988.8 331.2 2008.4 322.5 2040.6 307.1 2059.3 297.7 2061.5 302 2074.1 296.8 2078.2 304 2111.4 280.5 2108.8 276.8 2114.8 271.2 2126.2 263 2137.4 257.2 2143.4 259.8 2147.5 257.6 2156.3 263.8 2164 258.9 2170.6 263.2 2164 268.1 2164.8 269.8 2174.4 266.8 2176.4 268.3 2176.9 271.6 2180.5 271.6 2184.6 270.7 2186.8 272.8 2180.8 276 2179.4 276.7 Z" data-holc_grade="D"/>
<path d="M 1951.3 292.5 1962.8 289.5 2002.8 288.7 2003.5 283.9 2019.1 277.1 2023.1 274.1 2033.3 273.9 2033.1 269.4 2056.6 269.3 2074.9 262.7 2096.4 254.7 2110.4 248.4 2113.1 252.3 2125.1 247.8 2126.7 244.9 2127.3 241.5 2123.8 238 2118.7 233.1 2120.9 227.2 2125.5 223.8 2130.9 222.1 2133.3 221 2133.1 214 2138.1 219.2 2143.9 225.4 2147 230.9 2150.7 237.7 2134.7 238.3 2133.5 242.5 2133.5 249 2116 257.9 2111.9 256.2 2111.2 255.5 2101.2 259.9 2090.1 265.3 2084.5 266.8 2078.7 269.7 2069.7 271.7 2060.5 274.7 2054.9 275.8 2049.1 275.8 2036.2 275.1 2037 279.8 2034.3 284.4 2021.2 282.9 2020.7 294 2003 292.5 2001.8 307 1976.9 307.6 1975.9 316.8 1953.1 317.4 1952.1 331.5 1918.2 334 1917 333.5 1917.2 322.6 1933.7 312.5 1933.5 300.1 1949.7 299.2 1951.3 292.5 Z" data-holc_grade="D"/>
<path d="M 2264.2 184.1 2263.1 188.8 2213.7 214.8 2209 210.1 2205.2 203.8 2204.3 200.3 2202.6 198 2198.2 198 2197.8 194.6 2182.2 194.7 2182.7 184.1 2261.2 183 2264.2 184.1 Z" data-holc_grade="D"/>
<path d="M 2231.6 131.4 2231.9 152.7 2213.7 154.1 2182.1 152.4 2181.5 157.9 2174.9 158.5 2173.7 148.9 2180.6 149.6 2181.3 132.7 2204.5 132.2 2231.6 131.4 Z" data-holc_grade="D"/>
<path d="M 1311.2 759.1 1302.4 769.2 1292.6 772.3 1276.4 774.2 1265.5 773.1 1263.1 771.8 1254.6 766 1246 766.6 1244.9 776 1243.7 777.1 1231.3 780.5 1214 791.8 1213.7 797.4 1164.8 828.8 1142.2 829.7 1141.5 842.9 1132.6 848.6 1123.1 848.9 1122.6 854.6 1114 861.7 1091.9 861.7 1088.2 862.8 1088.8 881.3 1047 913.6 1042.4 916.9 1039.9 916.6 1038.6 912.4 1039.5 907.7 1044.4 903.6 1044 899.2 1041.9 900.7 1014.2 915.9 1014.6 936.6 984.2 936.9 976.2 943.2 996.4 943.7 996.8 947.3 991.7 947.3 989.7 950.8 983.1 951.3 983.1 954.1 960.6 953.9 954.2 953.7 955.3 914.3 1004.8 915.2 1020 904.5 1053.5 884.1 1050.8 880.8 1053.7 881 1079.9 880.3 1079.7 859.4 1087 855.6 1112.6 855.4 1114.3 840.5 1126.2 840.5 1126.2 836.2 1136.2 835.1 1136.2 822.9 1149 822.7 1152.4 821.1 1153.6 815.8 1163.8 816 1171.8 816.9 1181.5 810.5 1200.6 797.3 1212 790.2 1212.1 770.4 1226.5 770.2 1232.1 765.7 1241.8 758.3 1256.2 758.1 1268.4 766.2 1280.8 765.7 1288.2 765.5 1297.3 764.6 1301.2 758.8 1311.2 759.1 Z" data-holc_grade="D"/>
<path d="M 989.2 753.9 988.5 767.6 983.1 770.2 984.5 774.5 960.5 783.7 963.3 753.5 989.2 753.9 Z" data-holc_grade="D"/>
<path d="M 1212.1 723.9 1206.9 725.2 1190.3 729.6 1178.1 732.3 1171.8 732.6 1162.7 732.2 1162.1 725.6 1135.6 718.4 1135 716.9 1137.7 715.9 1151.9 710.7 1156.1 715.8 1158.9 716.1 1163.6 717.2 1169.2 717.2 1172.7 717.6 1177.6 716.5 1180.7 716.9 1183.6 716.5 1190.5 714.3 1191 702.3 1194.1 700 1195.6 700.4 1197.6 715.8 1203.8 713.4 1202.5 696.9 1209.4 692.9 1211.8 693.9 1211.6 701.8 1214.3 702.9 1219.8 703.3 1232.8 702.5 1232.3 693.8 1244.7 690.8 1245.8 698.4 1257.8 694.3 1259.4 694.9 1262.3 696.3 1265.2 696.6 1268.7 696.2 1269.4 697.4 1272.8 696.5 1276.7 697.6 1278.5 699.5 1283.9 698.3 1289.4 698.4 1297.6 694.7 1303.9 693.5 1310.5 688.6 1311.2 686.4 1306.5 683.7 1302.8 677.4 1315 646.6 1334.8 651.8 1335.9 653.7 1330.8 665.2 1332.5 666 1335.9 666.3 1338.7 666.4 1340.8 667.5 1344.3 668.3 1347.2 670.9 1329.9 681.5 1331.8 683.8 1333 686.4 1334.7 694.6 1335.9 698.4 1337.6 697.8 1341.9 696.2 1345.9 692.5 1361.9 699.6 1367.6 699.1 1375.2 695.5 1382.3 691.3 1386.5 694.3 1382.3 700.8 1386.7 701.5 1387.4 703.3 1388.7 708.3 1389.2 712.1 1381.9 713.5 1381.9 725.8 1378.5 729.4 1372.3 732.2 1366.3 733.7 1363.9 732.4 1361.6 731.1 1353.4 734.8 1355.2 737.5 1354.7 739.1 1351.2 740.2 1348.8 741.4 1346.3 740.3 1344.1 739.3 1323.2 748.1 1319.9 743.2 1311.4 735 1308.7 730.7 1313 720.2 1294.7 718.7 1286.8 722 1277.2 722.1 1277 716.9 1257.6 720.7 1258.3 705.1 1223.4 715.3 1221.9 721.5 1212.1 723.9 Z" data-holc_grade="D"/>
<path d="M 1361.5 868.9 1359.9 867.7 1350.4 868.1 1359.1 832.2 1358.2 830.9 1313.7 831.6 1316.8 826.9 1329.7 802.7 1329.5 790.6 1359.1 789.5 1359.7 770 1365.5 768.3 1367.1 755.5 1369.2 749.3 1371.6 743.8 1374 741.5 1378.4 744.7 1380.1 747.7 1383 748 1388.8 748.4 1390.3 745.1 1387.4 743.7 1381.3 743.1 1382 740.2 1387.1 739.5 1391 740.8 1393.7 740.8 1393.2 733.5 1402.6 732.4 1402.6 727.7 1403.6 720 1402.6 715 1409.2 713.9 1412.6 714.1 1416 712.1 1422.5 711.5 1430.8 712.6 1433.2 715.7 1441.2 717 1447.5 717 1447.7 720.4 1448.9 725.1 1455.2 729.7 1461.3 734.9 1466.4 739.8 1472.9 746 1465.4 750.7 1463.7 752.9 1466.4 757.8 1470.8 762.4 1472 764.9 1465.9 765.6 1456 766.2 1454.5 765.1 1453.6 758.7 1447 758.7 1442.2 758.2 1437.1 756.7 1433.9 755.5 1429.8 755.5 1427.1 757.8 1423 758.2 1422 768.4 1422.5 777.8 1422.8 786.7 1425.9 789.1 1429.6 793.2 1431 796.7 1436.8 800.3 1441.9 801.1 1440 803.6 1425.7 804.7 1424.9 809 1414.5 809.4 1412.1 810.5 1409.7 811.6 1401.9 813.9 1399.3 817 1397.8 821.9 1396.1 824.5 1373.6 823.8 1370.9 835 1398.3 835.9 1398.8 838.8 1399.7 843.6 1390 844.5 1386.4 848.3 1379.9 852.1 1375.3 855.7 1368.5 859 1363.1 860.3 1361 862.6 1361.5 868.9 Z" data-holc_grade="D"/>
<path d="M 2340.5 1320.8 2341 1290.6 2379.4 1291.6 2378.2 1310.1 2356.9 1310.9 2356 1321.1 2340.5 1320.8 Z" data-holc_grade="D"/>
<path d="M 2087.2 1110.4 2075.8 1119.4 2071.2 1118.4 2051.6 1110.9 2039.6 1100.7 2041.6 1096.9 2042.3 1092.9 2044.1 1094.1 2054.8 1096.7 2062.5 1092 2087.2 1110.4 Z" data-holc_grade="D"/>
<path d="M 1994.7 988.3 1994.4 1015.1 1972.4 1015.2 1972.4 968.4 1978.7 968.7 1979.1 987.4 1994.7 988.3 Z" data-holc_grade="D"/>
</g>
</svg>