<?xml version="1.0"?>
<svg xmlns="http://www.w3.org/2000/svg" version="1.2" baseProfile="tiny" width="3000" height="5437" viewBox="0 0 3000 5437" stroke-linecap="round" stroke-linejoin="round">
<g id="A">
<path d="M 2106 2928.7 2048.4 2937.2 2042 2973.4 1881.8 2988.2 1871.1 2924.5 1811.3 2928.7 1836.9 2841.6 1875.4 2701.3 2056.9 2707.7 2093.2 2750.2 2106 2928.7 Z" data-holc_grade="A"/>
<path d="M 1312.4 3417.6 1341.5 3364.5 1339.3 3317.7 1444 3290.1 1463.2 3470.7 1345.7 3438.8 1312.4 3417.6 Z" data-holc_grade="A"/>
<path d="M 2223.4 2571.7 2268.3 2690.7 2191.4 2703.4 2131.6 2584.4 2107.6 2582.3 2114.5 2410.1 2170 2416.5 2223.4 2571.7 Z" data-holc_grade="A"/>
<path d="M 1787.9 3734.3 1785.7 3764.1 1758 3802.3 1734.5 3815.1 1717.4 3798.1 1678.9 3836.3 1653.3 3825.7 1634.1 3793.8 1595.6 3789.6 1567.9 3836.3 1510.2 3806.6 1452.5 3795.9 1429 3727.9 1493.1 3734.3 1531.6 3727.9 1574.3 3721.5 1587.1 3617.4 1636.2 3628 1646.9 3689.7 1691.7 3674.8 1740.9 3702.4 1787.9 3734.3 Z" data-holc_grade="A"/>
</g>
<g id="B">
<path d="M 2042 2973.4 2125.3 3211.4 1988.6 3290 1930.9 3156.1 1826.3 3141.3 1755.8 3188 1715.2 3211.4 1717.4 3251.8 1696 3247.6 1698.1 3217.8 1627.7 3226.3 1627.7 3207.2 1676.8 3198.7 1693.9 3181.7 1721.6 3175.3 1760.1 3158.3 1772.9 3130.6 1811.3 2928.7 1871.1 2924.5 1881.8 2988.2 2042 2973.4 Z" data-holc_grade="B"/>
<path d="M 2051.3 3541.3 2050.5 3540.8 2031.3 3594 2118.9 3613.1 2110.4 3674.8 2046.3 3676.9 1952.3 3679 1948 3608.9 1890.4 3596.1 1787.9 3734.3 1740.9 3702.4 1691.7 3674.8 1646.9 3689.7 1636.2 3628 1587.1 3617.4 1574.3 3721.5 1531.6 3727.9 1493.1 3734.3 1429 3727.9 1452.5 3795.9 1510.2 3806.6 1567.9 3836.3 1595.6 3789.6 1634.1 3793.8 1653.3 3825.7 1678.9 3836.3 1661.8 3864 1595.6 3853.3 1555 3908.6 1476 3893.7 1446.1 3870.3 1426.9 3870.3 1414.1 3834.2 1360.7 3838.5 1309.4 3812.9 1335.1 3789.6 1315.8 3757.7 1305.2 3691.8 1407.7 3668.4 1384.2 3538.7 1484.6 3517.5 1493.1 3549.4 1476 3564.3 1478.2 3625.9 1529.4 3638.6 1548.6 3581.3 1617 3587.6 1653.3 3464.4 1721.6 3445.2 1736.6 3511.1 1785.7 3511.1 1854.1 3511.1 1926.7 3500.5 1969.4 3487.7 1937.3 3387.8 2029.2 3360.2 2071.9 3496.2 2051.3 3541.3 Z" data-holc_grade="B"/>
<path d="M 2599.3 3000.9 2445.6 2998.8 2445.6 3109.3 2259.8 3098.7 2270.4 2922.3 2180.8 2920.2 2106 2928.7 2093.2 2750.2 2056.9 2707.7 2129.5 2667.3 2082.5 2580.2 2107.6 2582.3 2131.6 2584.4 2191.4 2703.4 2268.3 2690.7 2223.4 2571.7 2304.6 2582.3 2377.2 2694.9 2419.9 2716.1 2449.8 2775.6 2449.8 2822.4 2488.3 2807.5 2578 2833 2627.1 2990.3 2599.3 3000.9 Z" data-holc_grade="B"/>
<path d="M 1512.8 3043 1507.1 2993.4 1535.6 2989.2 1542.7 2710 1662.3 2705.8 1710.7 2687.4 1718.8 2676.2 1713.6 3088.3 1660.9 3095.4 1510 3096.8 1512.8 3043 Z" data-holc_grade="B"/>
<path d="M 1754.8 2336 1649.5 2331.7 1649.5 1957.7 1658 1858.6 1823.1 1722.5 1900 1758 1898.6 1892.5 1821.7 1861.4 1776.1 1850 1726.3 1878.4 1705 1915.2 1695 2008.7 1880.1 2017.2 1884.3 2073.9 1870.1 2110.7 1858.7 2181.6 1840.2 2343.1 1754.8 2336 Z" data-holc_grade="B"/>
<path d="M 1919.9 1704.1 1972.6 1602.1 2066.5 1512.9 2069.4 1624.8 2099.3 1733.9 1919.9 1704.1 Z" data-holc_grade="B"/>
<path d="M 1397.7 1283.4 1406.6 1602.1 1449.3 1602.1 1451.1 1635.8 1671.7 1642.9 1702 1685.4 1516.9 1825.3 1500.9 1804 1484.9 1782.8 1460 1758 1429.8 1745.6 1385.3 1740.3 1374.6 1742 1367.5 1630.5 1266.1 1632.2 1253.6 1561.4 1282.1 1566.7 1280.3 1520.7 1237.6 1517.1 1228.7 1465.8 1273.2 1464 1280.3 1279.9 1397.7 1283.4 Z" data-holc_grade="B"/>
</g>
<g id="C">
<path d="M 2599.3 3000.9 2580.1 3020 2447.7 3145.5 2168 3194.4 2189.3 3266.6 2138.1 3309.2 2136 3347.4 2150.9 3523.8 2112.5 3517.5 2089 3538.7 2080.4 3557.9 2051.3 3541.3 2071.9 3496.2 2029.2 3360.2 1937.3 3387.8 1969.4 3487.7 1926.7 3500.5 1854.1 3511.1 1785.7 3511.1 1736.6 3511.1 1721.6 3445.2 1653.3 3464.4 1617 3587.6 1548.6 3581.3 1529.4 3638.6 1478.2 3625.9 1476 3564.3 1493.1 3549.4 1484.6 3517.5 1384.2 3538.7 1407.7 3668.4 1305.2 3691.8 1315.8 3757.7 1335.1 3789.6 1309.4 3812.9 1273.1 3755.6 1243.2 3751.3 1219.7 3613.1 1159.9 3634.4 1183.4 3415.5 1292.4 3404.8 1312.4 3417.6 1345.7 3438.8 1463.2 3470.7 1444 3290.1 1597.8 3243.3 1604.2 3200.8 1627.7 3207.2 1627.7 3226.3 1698.1 3217.8 1696 3247.6 1717.4 3251.8 1715.2 3211.4 1755.8 3188 1826.3 3141.3 1930.9 3156.1 1988.6 3290 2125.3 3211.4 2042 2973.4 2048.4 2937.2 2106 2928.7 2180.8 2920.2 2270.4 2922.3 2259.8 3098.7 2445.6 3109.3 2445.6 2998.8 2599.3 3000.9 Z M 2170 2416.5 2114.5 2410.1 2107.6 2582.3 2082.5 2580.2 2129.5 2667.3 2056.9 2707.7 1954.4 2471.8 2022.7 2452.7 2020.6 2431.4 1992.8 2399.5 1977.8 2393.2 1954.3 2354.9 1950.1 2327.3 1967.2 2301.8 1984.2 2297.5 1984.2 2282.6 2120.9 2278.4 2210.6 2410.1 2170 2416.5 Z" data-holc_grade="C"/>
<path d="M 2676.3 3661.9 2511.9 3651.3 2501.2 3666.2 2345.3 3664.1 2345.3 3723.6 2255.6 3723.6 2259.9 3783.1 2413.7 3880.9 2405.1 3923.4 2215 3938.3 2140.3 3921.3 2044.2 3919.2 2046.3 3676.9 2110.4 3674.8 2118.9 3613.1 2031.3 3594 2050.5 3540.8 2051.3 3541.3 2080.4 3557.9 2089 3538.7 2112.5 3517.5 2150.9 3523.8 2136 3347.4 2326 3253.9 2319.6 3219.9 2447.7 3145.5 2580.1 3020 2599.3 3060.4 2560.9 3105.1 2565.3 3511 2830.1 3513.1 2823.7 3568.4 2672.1 3572.6 2676.3 3661.9 Z" data-holc_grade="C"/>
<path d="M 1718.8 2676.2 1710.7 2687.4 1662.3 2705.8 1542.7 2710 1394.3 2700 1399.1 2367.5 1475.7 2376.4 1481 2293.1 1618 2286 1626.9 1960.2 1649.5 1957.7 1649.5 2331.7 1754.8 2336 1760.5 2389.8 1744.9 2425.2 1737.7 2467.7 1733.5 2504.6 1734.9 2552.8 1739.2 2637.8 1729.2 2661.8 1718.8 2676.2 Z" data-holc_grade="C"/>
<path d="M 1274.6 3048.7 1274.6 2930.7 1505.9 2927.2 1498.8 2741.2 1393.8 2732.3 1394.3 2700 1542.7 2710 1535.6 2989.2 1507.1 2993.4 1512.8 3043 1274.6 3048.7 Z" data-holc_grade="C"/>
<path d="M 860.4 1965.1 815.9 1935 799.9 1926.2 769.5 1913.2 784.4 1874.9 805.8 1830.3 867.7 1681.6 886.9 1675.2 983 1484 1211.5 1190.8 1399.5 1191.3 1397.7 1283.4 1280.3 1279.9 1273.2 1464 1228.7 1465.8 1237.6 1517.1 1280.3 1520.7 1282.1 1566.7 1253.6 1561.4 1266.1 1632.2 1367.5 1630.5 1374.6 1742 1385.3 1740.3 1429.8 1745.6 1460 1758 1484.9 1782.8 1500.9 1804 1461.8 1814.6 1408.4 1816.4 1378.2 1804 1330.1 1804 1271.4 1807.5 1248.3 1819.9 1241.1 1811.1 1175.3 1819.9 1177.1 1933.3 1155.7 1929.7 1081 2108.6 1031.2 2076.7 897.7 1997 860.4 1965.1 Z" data-holc_grade="C"/>
<path d="M 592.2 2491.2 609.3 2085.3 713.9 2070.4 769.5 1913.2 799.9 1926.2 815.9 1935 860.4 1965.1 858.6 1977.5 787.4 2165.2 823 2170.5 846.1 2198.9 888.8 2209.5 920.8 2268 944 2296.3 885.2 2329.9 935 2438 707.3 2514.1 636.1 2515.9 592.2 2491.2 Z" data-holc_grade="C"/>
<path d="M 306.8 3793.7 306.9 3615.1 268.4 3600.2 277 3532.2 381.6 3542.9 390.2 3392 356 3392 356.1 3262.3 272.8 3251.7 275 2858.5 462.9 2852.1 467.1 3285.7 435.1 3287.8 432.9 3670.4 345.3 3683.2 343.2 3795.8 306.8 3793.7 Z" data-holc_grade="C"/>
<path d="M 2649.9 4342.5 2646.6 4316.6 2687.1 4286.9 2717 4223.1 2734.1 4172.1 2757.6 4140.2 2778.9 4097.7 2789.6 4061.5 2789.6 4008.4 2781.1 3987.1 2770.4 3955.2 2890 3946.7 2898.6 4284.7 2911.4 4308.1 2999 4329.3 2964.8 4388.9 2902.9 4388.9 2855.9 4382.5 2655.1 4382.5 2649.9 4342.5 Z" data-holc_grade="C"/>
<path d="M 1871.6 4771.6 1891.8 4752.6 1922 4724.3 1998.6 4713.6 2052 4703 2094.1 4747.3 2143.9 4761.4 2227.6 4761.4 2256.1 4740.2 2288.1 4747.3 2654.9 4947.4 2542.7 5108.6 2526.7 5253.9 2514.3 5340.8 2532.1 5424 2459.1 5436.4 2428.8 5360.3 2377.2 5209.7 2339.8 5172.5 2227.6 4993.5 2181.3 4929.8 2147.5 4887.2 2106.6 4871.3 2053.1 4889 2014 4890.8 1971.3 4874.9 1871.6 4771.6 Z" data-holc_grade="C"/>
</g>
<g id="D">
<path d="M 306.8 3793.7 343.2 3795.8 345.3 3683.2 432.9 3670.4 435.1 3287.8 467.1 3285.7 462.9 2852.1 556.5 2852.5 558.7 2916.3 633.4 2933.3 637.6 3254.2 609.9 3258.5 607.6 3809 742.2 3817.5 750.7 3792 859.7 3770.7 859.7 3945 780.6 4002.4 705.9 4066.2 678.1 4123.6 663.1 4187.4 639.6 4204.4 628.9 4470.1 389.7 4474.3 385.4 4601.8 312.7 4608.2 314.9 4478.5 248.7 4472.1 54.3 4465.7 60.8 4223.4 33 4191.5 11.7 4159.6 1 4085.2 71.5 4085.2 71.5 3868.4 154.8 3864.2 152.7 3800.4 306.8 3793.7 Z" data-holc_grade="D"/>
<path d="M 556.5 2852.5 462.9 2852.1 275 2858.5 169.3 2858.8 135.1 2758.9 141.5 2718.5 182.1 2718.5 177.9 2387 188.6 2359.4 197.2 2021.5 329.6 2019.4 336.2 1641.1 406.5 1641.1 410.8 1432.9 370.3 1432.9 366 1254.4 338.3 1254.4 336.2 1090.8 278.5 1090.8 259.3 1048.3 263.6 874.1 274.3 678.6 447.3 678.6 455.8 954.8 440.8 1262.9 639.3 1271.5 637.2 1422.3 910.4 1428.7 904.1 1273.6 919 1271.5 901.9 1222.6 882.7 1161 882.7 1107.9 867.8 1059 842.2 889 835.8 816.8 844.3 761.5 1040.7 742.4 1164.5 740.3 1162.4 676.6 1098.4 687.2 1096.2 542.7 1113.3 421.6 1128.3 317.5 1222.2 183.7 1311.9 15.9 1717.4 1 1755.9 11.6 1676.9 234.7 1627.8 364.3 1565.9 506.6 1508.3 619.2 1497.6 685.1 1681.2 691.5 1683.3 855.1 1548.8 855.1 1548.8 925.2 1375.9 925.2 1309.7 1035.7 1254.2 1105.8 1211.5 1190.8 983 1484 886.9 1675.2 867.7 1681.6 805.8 1830.3 784.4 1874.9 769.5 1913.2 713.9 2070.4 609.3 2085.3 592.2 2491.2 419.2 2686.7 278.2 2682.4 267.5 2712.2 224.8 2714.3 231.2 2788.7 248.3 2790.8 442.6 2784.5 515.2 2790.9 553.7 2805.7 556.5 2852.5 Z" data-holc_grade="D"/>
<path d="M 1461.8 1814.6 1463.2 1908.8 1395.6 1962 1406.3 2023.9 1489.9 1942.5 1626.9 1960.2 1618 2286 1481 2293.1 1475.7 2376.4 1399.1 2367.5 1394.3 2700 1393.8 2732.3 1498.8 2741.2 1505.9 2927.2 1274.6 2930.7 1274.6 3048.7 1274.5 3120.2 1201.6 3111.4 1208.7 3230 1128.6 3210.5 961.3 3208.8 972 2751.8 945.3 2769.5 922.2 2693.4 521.8 2684.4 550.3 2633.1 578.8 2585.3 636.1 2515.9 707.3 2514.1 935 2438 885.2 2329.9 944 2296.3 920.8 2268 888.8 2209.5 846.1 2198.9 823 2170.5 787.4 2165.2 858.6 1977.5 860.4 1965.1 897.7 1997 1031.2 2076.7 1081 2108.6 1155.7 1929.7 1177.1 1933.3 1175.3 1819.9 1241.1 1811.1 1248.3 1819.9 1271.4 1807.5 1330.1 1804 1378.2 1804 1408.4 1816.4 1461.8 1814.6 Z M 1133.9 2263.4 1177.1 2255.5 1178.3 2149 1259.1 2083.2 1254.6 1941.6 1186.3 1942.7 1182.8 2103.6 1012 2194.3 1105.4 2324.6 1133.9 2263.4 Z" data-holc_grade="D"/>
<path d="M 2052 4703 1998.6 4713.6 1922 4724.3 1891.8 4752.6 1871.6 4771.6 1858 4784.5 1765.4 4834.1 1671 4727.8 1751.1 4543.6 1715.5 4515.2 1542.9 4433.7 1468.1 4407.2 1445 4428.4 1400.5 4389.4 1354.2 4300.9 1295.5 4256.6 1245.6 4215.8 1188.7 4189.3 1135.3 4146.7 1085.4 4106 1046.3 4056.4 1332.8 4051.1 1092.6 3872.2 960.9 3742.9 962.7 3418.7 953.8 3386.8 907.5 3284.1 943.1 3287.6 966.2 3284.1 991.2 3268.1 1030.3 3278.8 1019.6 3399.2 1154.9 3404.5 1167.3 3379.7 1201.2 3321.3 1249.2 3296.5 1372 3246.9 1446.8 3229.2 1503.7 3199.1 1569.6 3190.2 1578.5 3200.9 1550 3222.1 1388 3271.7 1291.9 3310.7 1258.1 3340.8 1292.4 3404.8 1183.4 3415.5 1159.9 3634.4 1219.7 3613.1 1243.2 3751.3 1273.1 3755.6 1309.4 3812.9 1360.7 3838.5 1414.1 3834.2 1426.9 3870.3 1446.1 3870.3 1476 3893.7 1555 3908.6 1679.9 3923.6 1699.5 4058.2 1688.8 4362.9 1806.3 4424.9 1863.3 4453.2 1911.4 4476.2 2011 4517 2066.2 4529.4 2052 4703 Z" data-holc_grade="D"/>
<path d="M 2890 3946.7 2770.4 3955.2 2781.1 3987.1 2789.6 4008.4 2789.6 4061.5 2778.9 4097.7 2757.6 4140.2 2734.1 4172.1 2717 4223.1 2687.1 4286.9 2646.6 4316.6 2649.9 4342.5 2473.5 4344.3 2486.3 4112.6 2524.8 4093.5 2516.2 4021.2 2492.7 4046.7 2405.1 3923.4 2413.7 3880.9 2259.9 3783.1 2255.6 3723.6 2345.3 3723.6 2345.3 3664.1 2501.2 3666.2 2511.9 3651.3 2676.3 3661.9 2678.5 3766.1 2774.6 3768.2 2781 3823.4 2890 3829.8 2890 3946.7 Z" data-holc_grade="D"/>
</g>
</svg>