<?xml version="1.0"?>
<svg xmlns="http://www.w3.org/2000/svg" version="1.2" baseProfile="tiny" width="3000" height="2315" viewBox="0 0 3000 2315" stroke-linecap="round" stroke-linejoin="round">
<g id="A">
<path d="M 2486.1 1293.9 2458.6 1300.9 2464.3 1331.1 2457.1 1375 2446.2 1407.2 2405.9 1402 2393.5 1398.2 2362.7 1386.4 2352.6 1378.9 2350.3 1377.1 2378.3 1203.6 2391 1205.3 2400.7 1139.1 2404.9 1072.1 2541.9 1085 2540.1 1133.6 2526.7 1157.1 2494.4 1193.5 2483.3 1216.5 2481.9 1262.1 2486.1 1293.9 Z" data-holc_grade="A"/>
<path d="M 2650.7 1224.3 2646.5 1266.3 2634.2 1307.3 2610.3 1370.6 2601 1427 2538.3 1419.2 2527.9 1417.9 2463.3 1409.3 2446.2 1407.2 2457.1 1375 2464.3 1331.1 2458.6 1300.9 2486.1 1293.9 2497.2 1294.3 2500 1319.7 2508.3 1348.2 2537.9 1342.7 2559.2 1336.7 2576.7 1321 2586.9 1303.1 2594.7 1215.1 2650.7 1224.3 Z" data-holc_grade="A"/>
<path d="M 1607.5 1719.8 1498.5 1759.8 1482.8 1712.7 1458.9 1719.5 1431.9 1644.3 1451.5 1637 1443.8 1618.7 1421.4 1583.7 1411.9 1567.3 1452.7 1543.1 1487 1519.3 1513.3 1546.8 1554.5 1603.9 1580.9 1644.9 1592.9 1673.4 1607.5 1719.8 Z" data-holc_grade="A"/>
<path d="M 1821.4 671.2 1828 669.3 1890.1 654 1932.1 639.3 1951.4 661.9 2011.2 654.5 2029.8 778.3 1993.7 782.7 1947 791.8 1900.5 803.9 1871.5 814.2 1869.1 787.7 1842.8 794.8 1820.6 710.5 1821.4 671.2 Z" data-holc_grade="A"/>
<path d="M 1607.5 1719.8 1592.9 1673.4 1580.9 1644.9 1554.5 1603.9 1513.3 1546.8 1487 1519.3 1521.3 1495.4 1540.6 1498.4 1566.3 1499.7 1818.2 1519.8 1812 1590.1 1798.1 1735.4 1614.9 1717.1 1607.5 1719.8 Z" data-holc_grade="A"/>
<path d="M 2601 1427 2610.3 1370.6 2634.2 1307.3 2646.5 1266.3 2650.7 1224.3 2652.6 1216.5 2667.8 1204 2687.7 1193 2708.1 1189.3 2726.1 1190.2 2756.2 1196.2 2771.9 1190.7 2775.1 1183.3 2773.3 1151.5 2776 1137.7 2787.6 1117.9 2801.8 1106.5 2811.6 1092.6 2814.9 1076.5 2814.9 1059 2858.8 1027.2 2889.3 1062.2 2917.6 1105.9 2963.4 1156.1 2999 1192.9 2952.3 1297.4 2886.3 1292.5 2812 1288.4 2805.2 1335.6 2714.3 1336.5 2698.7 1418.7 2668.2 1411.9 2664 1433.2 2601 1427 Z" data-holc_grade="A"/>
<path d="M 2538.3 1419.2 2528.7 1485 2476.7 1476.4 2449.2 1690.8 2377.7 1685.1 2403.8 1415.5 2405.9 1402 2463.3 1409.3 2527.9 1417.9 2538.3 1419.2 Z" data-holc_grade="A"/>
</g>
<g id="B">
<path d="M 2801.8 1106.5 2787.6 1117.9 2776 1137.7 2773.3 1151.5 2775.1 1183.3 2771.9 1190.7 2756.2 1196.2 2726.1 1190.2 2708.1 1189.3 2687.7 1193 2667.8 1204 2652.6 1216.5 2650.7 1224.3 2594.7 1215.1 2586.9 1303.1 2576.7 1321 2559.2 1336.7 2537.9 1342.7 2508.3 1348.2 2500 1319.7 2497.2 1294.3 2486.1 1293.9 2481.9 1262.1 2483.3 1216.5 2494.4 1193.5 2526.7 1157.1 2540.1 1133.6 2541.9 1085 2678.9 1098 2801.8 1106.5 Z" data-holc_grade="B"/>
<path d="M 2187.1 1204.9 2246.9 1267.9 2289.2 1317.1 2318 1346 2342.5 1371.4 2350.3 1377.1 2352.6 1378.9 2362.7 1386.4 2393.5 1398.2 2405.9 1402 2403.8 1415.5 2369.8 1411.4 2246.6 1397 2151.9 1390.7 2157.7 1322.7 2168.1 1201.1 2169.6 1188.7 2187.1 1204.9 Z" data-holc_grade="B"/>
<path d="M 1773.6 1479.9 1821.2 1485.8 1818.2 1519.8 1566.3 1499.7 1540.6 1498.4 1521.3 1495.4 1487 1519.3 1452.7 1543.1 1411.9 1567.3 1421.4 1583.7 1443.8 1618.7 1451.5 1637 1431.9 1644.3 1458.9 1719.5 1482.8 1712.7 1498.5 1759.8 1363.2 1809.5 1357.4 1789.4 1393.1 1776.5 1374.9 1723.8 1418.3 1707.7 1385.7 1611.6 1345.5 1494.3 1390.5 1476.9 1388.4 1494 1389.3 1508.8 1394.9 1522.6 1433.1 1508.2 1448.5 1523.8 1496.7 1492.3 1489.9 1473.4 1484.3 1451.3 1482.5 1432.4 1487.3 1412.7 1534.8 1398 1549.4 1433.5 1713.2 1448.7 1711.8 1475.9 1773.6 1479.9 Z" data-holc_grade="B"/>
<path d="M 1821.4 671.2 1820.6 710.5 1842.8 794.8 1869.1 787.7 1871.5 814.2 1900.5 803.9 1947 791.8 1993.7 782.7 2029.8 778.3 2011.2 654.5 1951.4 661.9 1932.1 639.3 1934.8 638.3 2008.8 633 2011 614.9 2055.9 610.9 2089 606.2 2184 585.6 2224.9 849.5 2186.4 835.7 2170.1 833.6 2130.5 830.7 2069.2 789.5 2056.5 790.4 2021.8 797.1 1968.9 807.5 1928.3 815.7 1861.1 834.3 1861.1 820.1 1819.1 834.6 1808.4 799.8 1794.5 746.2 1783 682.3 1821.4 671.2 Z" data-holc_grade="B"/>
<path d="M 1828.8 1899.8 1786.3 1912.6 1761.9 1923.4 1688.2 1951.5 1629.8 1795.5 1612.4 1800.9 1593.4 1751.5 1530.7 1774.7 1548.1 1823.2 1551.8 1833.4 1560.8 1855.3 1589.9 1936.5 1576.7 1941.2 1571.3 1939.2 1475.6 1977.9 1461.8 1963.2 1395.2 1903.2 1368.3 1877.1 1356.5 1863.6 1345.4 1846.5 1341.2 1829.5 1366.2 1819.8 1363.2 1809.5 1498.5 1759.8 1607.5 1719.8 1614.9 1717.1 1798.1 1735.4 1812 1590.1 1881.9 1596 1883.4 1576.2 1950 1580.9 2077 1593.6 2097.1 1597.4 2082.1 1813.4 1907.9 1875.1 1828.8 1899.8 Z" data-holc_grade="B"/>
<path d="M 2616.3 1510.3 2556.6 1506 2550.4 1543.7 2544.8 1545.2 2528.8 1542.5 2501.9 1759.4 2451 1756.2 2442.7 1816.6 2415.8 1814.8 2277.8 1809.9 2282.2 1756.2 2263 1754.2 2279.3 1538.1 2357.2 1543.8 2369.8 1411.4 2403.8 1415.5 2377.7 1685.1 2449.2 1690.8 2476.7 1476.4 2528.7 1485 2538.3 1419.2 2601 1427 2664 1433.2 2668.2 1411.9 2698.7 1418.7 2714.3 1336.5 2805.2 1335.6 2812 1288.4 2886.3 1292.5 2845 1527.1 2616.3 1510.3 Z" data-holc_grade="B"/>
<path d="M 2224.9 849.5 2253.4 862 2302.4 881.2 2290.8 1055.9 2404.9 1072.1 2400.7 1139.1 2391 1205.3 2378.3 1203.6 2350.3 1377.1 2342.5 1371.4 2318 1346 2289.2 1317.1 2246.9 1267.9 2187.1 1204.9 2200.1 1204.6 2212.2 1118 2220.2 1049 2224 996.3 2146.2 988.9 2106.2 987.5 2049.7 985.7 2049.7 967.1 2027.8 968 1996.1 966 1985.2 1065 1942.8 1063.2 1968.9 807.5 2021.8 797.1 2056.5 790.4 2069.2 789.5 2130.5 830.7 2170.1 833.6 2186.4 835.7 2224.9 849.5 Z" data-holc_grade="B"/>
<path d="M 669.3 397.1 665.7 398.2 637.6 411.1 603.5 432.3 582.8 398.4 554.1 413.2 537.2 371.9 527.5 339.5 514.8 301.5 501.5 261.4 492 266.4 489 262 486.7 247.6 486.4 229.6 490.2 196.3 501.8 151.6 521.6 143 602.1 280.9 669.3 397.1 Z" data-holc_grade="B"/>
<path d="M 1550.7 1371.4 1780.4 1392.4 1773.6 1479.9 1711.8 1475.9 1713.2 1448.7 1549.4 1433.5 1534.8 1398 1537.9 1397.1 1528.1 1369.4 1550.7 1371.4 Z" data-holc_grade="B"/>
</g>
<g id="C">
<path d="M 2616.3 1510.3 2586.6 1714.5 2551.2 1710.2 2545.4 1762.6 2501.9 1759.4 2528.8 1542.5 2544.8 1545.2 2550.4 1543.7 2556.6 1506 2616.3 1510.3 Z M 2814.9 1059 2804.2 1059 2786.6 1004.7 2790.8 930.1 2977.6 924 2977.2 930.5 2965.6 944.7 2949 959.5 2924 974.2 2908.3 980.7 2896.2 995.4 2858.8 1027.2 2814.9 1059 Z" data-holc_grade="C"/>
<path d="M 1345.5 1494.3 1344 1487.3 1355.4 1464 1366.8 1440.7 1379.8 1405.6 1389 1376.2 1393.1 1355.8 1218.2 1419.5 1234.7 1466.3 1224.4 1479 1206.3 1494.9 1177.9 1514.9 1159 1526.4 1141.1 1477.8 1138.8 1471.6 1187.4 1453.4 1116.9 1264.5 971.9 1319 938.4 1226.4 974.3 1212.9 1306.8 1089.7 1315.3 1111.5 1351.1 1101.8 1370.3 1136 1379.2 1158.1 1390.5 1183.7 1398.2 1214.7 1404.1 1252.4 1404.6 1263.1 1406.2 1292.2 1401.1 1330.2 1439.6 1348.2 1427.8 1377.3 1468.3 1395.9 1487.3 1412.7 1482.5 1432.4 1484.3 1451.3 1489.9 1473.4 1496.7 1492.3 1448.5 1523.8 1433.1 1508.2 1394.9 1522.6 1389.3 1508.8 1388.4 1494 1390.5 1476.9 1345.5 1494.3 Z" data-holc_grade="C"/>
<path d="M 2082.1 1813.4 2097.1 1597.4 2077 1593.6 1950 1580.9 1883.4 1576.2 1881.9 1596 1812 1590.1 1818.2 1519.8 1821.2 1485.8 1773.6 1479.9 1780.4 1392.4 1877.8 1399.4 2149.4 1421 2151.9 1390.7 2246.6 1397 2369.8 1411.4 2357.2 1543.8 2279.3 1538.1 2263 1754.2 2282.2 1756.2 2277.8 1809.9 2415.8 1814.8 2442.7 1816.6 2439.4 1845.2 2295.9 1838.7 2197.6 1834.6 2147.5 1833.2 2112 1829.9 2082.3 1824.4 2082.1 1813.4 Z" data-holc_grade="C"/>
<path d="M 1306.8 1089.7 974.3 1212.9 942.3 1124.8 965.1 1115.9 920.7 995.4 955.6 981.3 923.7 885.2 821 921.7 784.3 821 767.6 773.2 975.2 694.7 1053.6 902.3 1176.5 857.9 1190.1 893.5 1166.7 903.5 1178.2 933.6 1031.4 988.4 1066.3 1078.2 1093 1070.9 1101.9 1091.2 1160.5 1070 1170.2 1092.4 1291 1048.8 1306.8 1089.7 Z" data-holc_grade="C"/>
<path d="M 1363.2 1809.5 1366.2 1819.8 1341.2 1829.5 1345.4 1846.5 1356.5 1863.6 1368.3 1877.1 1395.2 1903.2 1461.8 1963.2 1475.6 1977.9 1571.3 1939.2 1576.7 1941.2 1589.9 1936.5 1560.8 1855.3 1551.8 1833.4 1548.1 1823.2 1530.7 1774.7 1593.4 1751.5 1612.4 1800.9 1629.8 1795.5 1688.2 1951.5 1761.9 1923.4 1786.3 1912.6 1828.8 1899.8 1830.5 1921.6 1838.7 1982.8 1673.8 2038.6 1643 1953.8 1576.7 1978.2 1572 1966.7 1422.4 2021.3 1235 1848.2 1320.3 1813.8 1298.7 1752.2 1374.9 1723.8 1393.1 1776.5 1357.4 1789.4 1363.2 1809.5 Z" data-holc_grade="C"/>
<path d="M 2034.3 1181.6 2025.4 1312.8 2157.7 1322.7 2151.9 1390.7 2149.4 1421 1877.8 1399.4 1780.4 1392.4 1550.7 1371.4 1553.9 1329.9 1645.1 1225.3 1723.8 1230.9 1729.7 1166.1 1800.8 1135.4 1914.1 1156.9 1913.8 1178.7 2034.3 1181.6 Z" data-holc_grade="C"/>
<path d="M 669.3 397.1 715.4 383.5 760.5 487.4 634.9 533.9 640.7 549.7 542 587.1 504.1 481.4 449 500.4 400.2 521.5 371.8 473.6 335.2 416.5 437.3 198.4 490.2 196.3 486.4 229.6 486.7 247.6 489 262 492 266.4 501.5 261.4 514.8 301.5 527.5 339.5 537.2 371.9 554.1 413.2 582.8 398.4 603.5 432.3 637.6 411.1 665.7 398.2 669.3 397.1 Z" data-holc_grade="C"/>
<path d="M 2011 614.9 2008.8 633 1934.8 638.3 1932.1 639.3 1890.1 654 1828 669.3 1821.4 671.2 1783 682.3 1794.5 746.2 1808.4 799.8 1819.1 834.6 1861.1 820.1 1861.1 834.3 1928.3 815.7 1968.9 807.5 1942.8 1063.2 1985.2 1065 1996.1 966 2027.8 968 2049.7 967.1 2049.7 985.7 2106.2 987.5 2146.2 988.9 2224 996.3 2220.2 1049 2212.2 1118 2200.1 1204.6 2187.1 1204.9 2169.6 1188.7 2168.1 1201.1 2156 1193.1 2145.6 1187.5 2147.7 1163.7 2071.9 1130.7 2009.7 1105.6 1955.3 1083.5 1905 1063.8 1918.6 905.9 1889.5 905 1874.1 840.5 1796 870.8 1786.2 837.2 1770 770.1 1754.1 695.8 1748.6 679.8 1747 670.2 1744.8 662.5 1741 655.7 1852.1 627.7 1885.4 618.3 1898.4 619 1918.5 617.1 2012.1 606.8 2011 614.9 Z" data-holc_grade="C"/>
<path d="M 1 60.7 50.2 5.3 108 1 248.2 108.9 379.5 207.9 368.8 228.6 357.7 255.7 333.2 308.2 277.2 379.5 193.1 319.2 178.3 305.8 154.3 334.1 56.3 260.7 122.1 171.5 1 60.7 Z" data-holc_grade="C"/>
<path d="M 496.9 928 451 944.7 381.4 753.2 339.5 682.1 287.1 595.6 322.4 575.8 332.1 571.4 402.2 524.9 495.4 669.4 580.7 639.4 662.8 865.7 496.9 928 Z" data-holc_grade="C"/>
</g>
<g id="D">
<path d="M 2586.6 1714.5 2650.4 1715.6 2644.9 1774.1 2543.6 1770 2545.4 1762.6 2551.2 1710.2 2586.6 1714.5 Z" data-holc_grade="D"/>
<path d="M 580.7 639.4 495.4 669.4 402.2 524.9 400.2 521.5 449 500.4 504.1 481.4 542 587.1 640.7 549.7 634.9 533.9 760.5 487.4 832.7 679.6 953.2 633.2 975.2 694.7 767.6 773.2 784.3 821 720.3 843.1 631.6 600 574.8 621.5 580.7 639.4 Z" data-holc_grade="D"/>
<path d="M 443.3 1294.6 382.3 1317.4 339.7 1210.3 396.5 1187.3 417.7 1241.8 428.4 1258.7 443.3 1294.6 Z M 195.5 1054.9 217.5 1116.4 280.5 1091.1 327.9 1215.3 217.2 1256.1 149.5 1071.4 195.5 1054.9 Z M 496.9 928 518.5 988.6 474 1004.8 501.8 1077.7 646.7 1026.9 710.7 1198.3 504 1271.9 432.9 1089.5 373.1 1111.9 328 989.4 265.6 1014.4 254.3 1006.5 228.3 993 143.3 953.1 100.4 933.7 75.3 869.6 159.2 841.8 211.1 822.2 262.5 798.9 287.6 787.7 328.9 772.5 288.8 708.1 238.3 628.6 240.3 600.5 335.2 416.5 371.8 473.6 400.2 521.5 402.2 524.9 332.1 571.4 322.4 575.8 287.1 595.6 339.5 682.1 381.4 753.2 451 944.7 496.9 928 Z" data-holc_grade="D"/>
<path d="M 1280.5 924.1 1350.1 896.2 1326.9 833.1 1386.1 812.9 1367.6 756.3 1416.2 738.8 1366.7 609.4 1189.9 672.5 1187.4 667.2 1148.7 560.3 1215.5 534.9 1166.2 405.6 1180.7 377.3 1257.3 349.6 1424.5 288.1 1561 238.9 1582.9 287.5 1621.9 379.7 1687.2 537.1 1699.7 566.1 1741 655.7 1744.8 662.5 1747 670.2 1748.6 679.8 1754.1 695.8 1770 770.1 1786.2 837.2 1796 870.8 1874.1 840.5 1889.5 905 1918.6 905.9 1905 1063.8 1955.3 1083.5 2009.7 1105.6 2071.9 1130.7 2147.7 1163.7 2145.6 1187.5 2112.5 1169.6 2084.9 1157.8 2049.7 1146.9 2038.2 1145.1 2034.3 1181.6 1913.8 1178.7 1914.1 1156.9 1800.8 1135.4 1729.7 1166.1 1723.8 1230.9 1645.1 1225.3 1553.9 1329.9 1508.6 1211.7 1468.9 1104.2 1415.3 1122.2 1429.8 1163.1 1410 1169.9 1439 1251.5 1404.6 1263.1 1404.1 1252.4 1398.2 1214.7 1390.5 1183.7 1379.2 1158.1 1370.3 1136 1351.1 1101.8 1329.5 1054.1 1318 1024.9 1280.5 924.1 Z" data-holc_grade="D"/>
<path d="M 1141.1 1477.8 1159 1526.4 1177 1574.2 1188.3 1569.2 1225.3 1541.2 1257.8 1524.4 1292.5 1508.8 1305.8 1502 1320.3 1488.4 1334.5 1474.6 1346.7 1466.6 1355.4 1464 1344 1487.3 1345.5 1494.3 1385.7 1611.6 1418.3 1707.7 1374.9 1723.8 1298.7 1752.2 1320.3 1813.8 1235 1848.2 1422.4 2021.3 1572 1966.7 1576.7 1978.2 1643 1953.8 1673.8 2038.6 1366.2 2148.6 1099.4 1929.3 1069.8 1854.7 1196.5 1808.2 1145 1671.4 1082 1694.1 1073.7 1671.4 1036.1 1686.1 1022.5 1647.8 999.7 1655.2 977.5 1593.6 849.9 1641.3 832.1 1592.1 771.4 1615.7 682.1 1369 831.6 1314.5 922.3 1559.1 1141.1 1477.8 Z" data-holc_grade="D"/>
<path d="M 495.6 1997 853.2 1865.7 970.6 2182.3 613 2313.7 495.6 1997 Z" data-holc_grade="D"/>
<path d="M 1189.9 672.5 1194.3 682.3 1074.4 729.1 1092.1 777.1 1212.6 732 1265.3 883.2 1280.5 924.1 1318 1024.9 1329.5 1054.1 1351.1 1101.8 1315.3 1111.5 1306.8 1089.7 1291 1048.8 1170.2 1092.4 1160.5 1070 1101.9 1091.2 1093 1070.9 1066.3 1078.2 1031.4 988.4 1178.2 933.6 1166.7 903.5 1190.1 893.5 1176.5 857.9 1053.6 902.3 975.2 694.7 953.2 633.2 1148.7 560.3 1187.4 667.2 1189.9 672.5 Z" data-holc_grade="D"/>
</g>
</svg>