<?xml version="1.0"?>
<svg xmlns="http://www.w3.org/2000/svg" version="1.2" baseProfile="tiny" width="3000" height="3976" viewBox="0 0 3000 3976" stroke-linecap="round" stroke-linejoin="round">
<g id="A">
<path d="M 579.8 2392.6 601.7 2386.9 633.3 2379.3 664.8 2368 689.6 2360.4 714.4 2356.6 726.9 2356.6 726.9 2389.3 718.3 2387.5 701.7 2385.3 693.1 2385.3 700.6 2412.6 680.5 2416.6 679.9 2420 682.8 2433.1 684.5 2445.7 681.6 2457.7 675.9 2469 671.9 2474.7 657 2487.3 646.7 2494.1 635.8 2497.5 622.6 2501.5 608.3 2504.9 596.3 2508.3 582.5 2511.8 580.2 2504.3 579.7 2489.5 579.1 2478.1 578.5 2465 577.4 2453 578.5 2439.4 579.1 2423.4 579.7 2410.3 579.8 2392.6 Z" data-holc_grade="A"/>
<path d="M 1147.8 143.1 1336.3 147.6 1344.6 92.1 1354.6 1 1427.8 5.6 1487.3 6.5 1534.9 7.4 1622.8 8.3 1624.6 26.5 1623.7 45.6 1623.7 63.8 1621.9 111.2 1572.4 110.3 1523 110.3 1462.6 108.5 1428.7 109.4 1428.7 150.4 1426.9 227.8 1463.5 227.8 1504.7 226 1544.1 223.3 1547.7 259.7 1549.6 287.9 1550.5 315.3 1552.3 339.9 1503.8 338 1426.9 340.8 1425.1 429.1 1394 430 1348.2 431 1316.1 430.9 1269.5 429.1 1242 428.2 1208.1 427.3 1182.5 428.2 1158.7 427.3 1133.1 413.6 1137.7 390.8 1140.4 348.9 1145.9 320.7 1145.9 273.3 1147.8 234.2 1147.8 177.7 1144.1 159.5 1147.8 143.1 Z" data-holc_grade="A"/>
<path d="M 1067.8 2340.9 1074.5 2345.9 1082.9 2354.7 1090 2364.7 1092.6 2368.4 1080.2 2376 1072.1 2381.8 1069.7 2383.6 1063.3 2396.3 1060.1 2402.6 1058.9 2408.6 1056.3 2420.7 1055.3 2426.4 1053.2 2438.2 1051.5 2447.3 1027.7 2447.3 1012.4 2450.1 987.6 2459.6 938.9 2462.4 912.1 2462.4 903.6 2468.1 894 2477.6 889.2 2486.2 889.2 2500.4 889.2 2509.9 860.6 2510.9 829.1 2512.7 800.4 2512.7 771.8 2511.8 741.2 2508 740 2493 740.1 2485.6 740.1 2479.9 739.5 2471.4 734.9 2471.9 728.6 2474.2 724.6 2474.2 726.9 2462.8 727.5 2451.4 724 2445.7 724 2438.3 724 2434.9 724.6 2430.9 730.3 2425.7 736.1 2418.9 739.5 2410.4 746.4 2404.1 748.7 2399.5 751 2393.8 755 2387.6 759 2384.7 769.9 2384.2 778.5 2383.6 787.6 2382.4 796.2 2381.3 797.5 2361.4 803.1 2358.9 810.8 2355.7 820.3 2350.4 828 2346.2 835.1 2340.4 841.4 2335.4 848.1 2330 855.6 2324.4 863.3 2318.6 867.8 2316.6 874.1 2313.7 879.9 2311.1 886.2 2308.2 894.6 2305.9 903.4 2303.5 913.1 2302.5 922.5 2301.6 932.1 2302.4 945.4 2303.5 958 2299.7 967.4 2296.8 976.1 2293.6 982.7 2291.1 988.4 2284.5 998.4 2286.2 1012.8 2288.5 1026.5 2297 1034.5 2308.4 1040.8 2326.1 1044.8 2335.8 1051.1 2341.5 1067.8 2340.9 Z" data-holc_grade="A"/>
<path d="M 2882.1 1206.7 2906.2 1227.2 2929.1 1244.3 2946.3 1261.4 2964.6 1278.4 2981.8 1294.4 2999 1312.6 2989.9 1328.5 2984.1 1343.4 2977.3 1358.2 2963.6 1368.4 2951 1386.7 2931.5 1404.9 2924.7 1417.5 2913.2 1436.9 2885.8 1451.7 2866.3 1466.5 2849.2 1480.2 2830.9 1497.3 2805.7 1515.6 2772.5 1545.2 2759.9 1536.1 2734.7 1513.3 2710.6 1491.7 2720.9 1455.2 2728.9 1426.7 2703.7 1399.4 2711.7 1391.4 2734.6 1384.6 2756.3 1367.5 2773.5 1346.9 2792.9 1319.6 2817 1286.5 2838.7 1258 2855.8 1235.2 2882.1 1206.7 Z" data-holc_grade="A"/>
<path d="M 2560.3 1535.9 2549.3 1526.4 2531.6 1511.2 2507.8 1494.1 2481 1482.8 2453.4 1479 2442.2 1481.1 2428.6 1483.7 2422.8 1486.6 2411.1 1475.4 2402.2 1467 2381.8 1447.7 2385.6 1410.6 2392.2 1388.8 2390.3 1365.1 2387.5 1366 2379.8 1370.8 2366.5 1385 2316.9 1386.9 2308.3 1373.6 2302.6 1366.1 2291.1 1366.1 2282.5 1370.8 2275.9 1382.2 2266.3 1395.5 2251.1 1403.1 2251.3 1383.6 2251.6 1359.7 2251.7 1344.9 2252 1319.8 2252.2 1306.2 2252.5 1278.8 2252.9 1247.4 2416 1253 2421.7 1248.3 2467.5 1143.8 2537.1 1179.8 2531.4 1141.9 2577.2 1152.3 2582.9 1184.5 2588.7 1197.8 2589.6 1215.9 2595.4 1236.8 2603 1280.4 2609.7 1305.1 2616.4 1329.8 2626.9 1370.6 2631.7 1397.2 2629.8 1414.3 2625.1 1434.2 2620.3 1453.2 2620.3 1474.1 2603.2 1485.5 2590.8 1496.9 2573.6 1519.7 2560.3 1535.9 Z" data-holc_grade="A"/>
<path d="M 2212.6 1429.3 2211.4 1438.4 2172.5 1480.6 2145 1513.7 2119.9 1533 2094.7 1557 2072.9 1533.1 2054.6 1517.1 2042 1500 2067.2 1476.1 2084.3 1456.7 2106.1 1443 2114.1 1431.6 2115.7 1417.3 2116.4 1406.6 2138.1 1408.8 2156.2 1407.7 2174.8 1406.5 2188.5 1406.5 2209.1 1406.5 2211 1419.2 2212.6 1429.3 Z" data-holc_grade="A"/>
<path d="M 2251.5 1209.2 2204.5 1210 2192 1210.2 2171.3 1210.2 2143.8 1210.2 2129.7 1210.2 2098.6 1210.2 2070.2 1208.4 2048.8 1208.4 2032.7 1208.4 2004.3 1208.4 1979.5 1208.4 1967.4 1208 1950.2 1207.5 1932 1207.5 1916.3 1207.5 1903.8 1208.1 1878.8 1209.3 1847.1 1208.8 1826.6 1208.4 1811.7 1208.2 1794.5 1207.9 1770.7 1207.5 1741.4 1203.9 1757 1169.3 1760.6 1155.6 1768 1141 1777.1 1123.7 1782.6 1106.4 1786.3 1092.7 1791.8 1076.3 1802.8 1068.1 1818.3 1039.8 1822 1024.3 1837.5 998.8 1848.3 981.9 1853.1 974.2 1909 978.8 1955.7 978.7 2006 978.7 2059.1 976.9 2113.1 977.8 2191 979.6 2244.1 980.5 2245.9 997.8 2247.8 1022.4 2247.8 1063.4 2250.6 1110.8 2253.3 1127.2 2254.2 1154.5 2251.5 1209.2 Z" data-holc_grade="A"/>
<path d="M 1484.4 1053.5 1484.4 1088.8 1484.4 1107 1490.1 1140.1 1498.2 1160.6 1506.2 1178.8 1510.7 1177.7 1526.8 1145.8 1533.4 1142.8 1527.9 1149.2 1522.2 1166.3 1516.5 1179.9 1511.9 1192.5 1505 1214.1 1510.7 1221 1514.2 1216.4 1515.3 1206.1 1519.9 1193.6 1523.3 1183.4 1529.1 1173.1 1534.8 1165.1 1538.2 1150.3 1535.1 1142.1 1537.1 1141.2 1542.8 1149.2 1540.5 1164 1535.9 1183.4 1527.9 1198.2 1525.6 1215.3 1523.3 1225.5 1500.4 1238 1491.3 1248.3 1494.7 1262 1501.6 1289.3 1509.6 1308.7 1508.5 1329.2 1511.9 1345.1 1517.6 1357.7 1527.9 1372.5 1539 1394.4 1535.2 1403.4 1528 1419.9 1519.5 1433.4 1510.6 1447.3 1505.4 1450.5 1498.7 1454.6 1491.4 1460.1 1487.7 1471.9 1480.4 1489.2 1474 1502 1465.8 1519.3 1453.5 1508.1 1441.9 1493.8 1442.6 1482.1 1443.8 1460.5 1445.2 1435.6 1446.5 1411.7 1448 1385.3 1449.3 1361.6 1449.3 1332.6 1449.3 1314.2 1449.1 1298.4 1448.8 1276.7 1448.6 1253.9 1448.4 1235.8 1432 1235.3 1419.1 1234.9 1419.1 1229.4 1398.5 1229.6 1374.4 1229.8 1361.9 1229.9 1333.2 1230.2 1310.1 1230.3 1288.5 1249.1 1273.4 1262.2 1265.2 1285 1249.5 1299.4 1231.4 1282.5 1216 1269.8 1218.9 1232.4 1222.1 1191.8 1224 1168.4 1212.6 1158.8 1196.1 1144.8 1182.2 1133.1 1170 1122.8 1174.2 1095.6 1174.2 1066 1176.9 1041.5 1215.3 1042.1 1240.8 1042.5 1260.9 1043.5 1287.2 1044.8 1298 1045.3 1307.7 1045.9 1330.4 1047.2 1353.2 1045.8 1375.3 1044.4 1375.6 1019.3 1375.9 996.5 1376.2 976 1398.6 974.5 1419.1 973.2 1417.5 993.2 1415.7 1015.9 1416.4 1037.4 1416.9 1052.3 1448.9 1053.5 1484.4 1053.5 Z M 1469.5 1210.7 1477.5 1224.4 1481 1221 1478.7 1198.2 1475.3 1174.2 1467.2 1153.7 1459.2 1133.2 1452.4 1101.3 1451.2 1067.2 1445.5 1072.8 1444.4 1091.1 1442.1 1102.5 1440.9 1113.9 1438.6 1123 1439.8 1133.2 1443.2 1143.5 1447.8 1154.9 1448.9 1162.8 1445.5 1176.5 1446.6 1183.4 1460.4 1184.5 1461.5 1191.3 1465 1197 1469.5 1210.7 Z M 1492.4 1232.3 1481 1239.2 1473 1232.3 1469.5 1250.6 1474.1 1269.9 1482.1 1285.9 1489 1297.3 1498.2 1296.2 1489 1277.9 1484.4 1266.5 1481 1254 1486.7 1243.7 1492.4 1232.3 Z M 1507.3 1367.9 1511.9 1378.2 1522.2 1373.6 1519.9 1363.4 1514.2 1352 1509.6 1339.4 1505 1324.6 1500.4 1305.3 1492.4 1305.3 1494.7 1320.1 1499.3 1333.7 1501.6 1350.8 1507.3 1367.9 Z M 1446.6 1496.7 1452.4 1500.1 1460.4 1491 1467.2 1472.8 1474.1 1463.6 1478.7 1452.3 1484.4 1442 1495.9 1428.3 1506.2 1415.8 1517.6 1404.4 1519.9 1383.9 1511.9 1385 1510.7 1403.3 1507.3 1410.1 1499.3 1421.5 1489 1427.2 1481 1436.3 1474.1 1445.4 1461.5 1460.2 1452.4 1477.3 1446.6 1496.7 Z" data-holc_grade="A"/>
<path d="M 1345.7 692.2 1434.4 695.1 1540.3 695.1 1646.1 696 1657.5 695.8 1653.8 724.5 1650.9 753 1650.9 772.9 1650.9 804.2 1649 821.3 1600.4 820.4 1558.4 823.2 1556.5 838.4 1539.5 839 1527.9 839.3 1524.1 848.8 1511.9 848.5 1499.3 848.2 1486.9 847.9 1480.2 858.3 1479.2 875.4 1465.9 876.4 1465.2 894.8 1464.6 909.7 1464 925.7 1448.7 935.2 1434.6 939.7 1422 943.8 1420.3 961.3 1419.1 973.2 1398.6 974.5 1376.2 976 1375.9 996.5 1375.6 1019.3 1375.3 1044.4 1353.2 1045.8 1330.4 1047.2 1307.7 1045.9 1298 1045.3 1287.2 1044.8 1260.9 1043.5 1240.8 1042.5 1215.3 1042.1 1176.9 1041.5 1176.9 1021.6 1177.8 1001.6 1175.9 984.5 1149.2 986.4 1149.2 957 1145.4 913.3 1144.5 885.8 1144.5 869.7 1146.4 843.1 1147.3 814.6 1181.7 812.7 1226.5 809.9 1264.6 807.1 1265.6 781.4 1270.4 735.9 1275.1 720.7 1278 695.1 1312.3 695.1 1345.7 692.2 Z" data-holc_grade="A"/>
<path d="M 1805.4 661.8 1782.5 662.8 1764.8 662.8 1748.2 662.8 1725.9 662.8 1702.4 662.8 1702.8 676.4 1703.3 695.1 1687.1 695.3 1657.5 695.8 1646.1 696 1540.3 695.1 1434.4 695.1 1345.7 692.2 1346.7 609.6 1420.1 610.6 1419.2 543.2 1461.1 523.3 1560.3 519.5 1641.3 519.5 1750 522.3 1753.9 533.7 1758.6 568.8 1777.7 569.8 1804.4 572.6 1807.3 603 1805.4 622.9 1805.4 661.8 Z" data-holc_grade="A"/>
</g>
<g id="B">
<path d="M 958.9 2567.9 958.9 2522.3 949.4 2519.4 949.4 2495.7 920.7 2496.6 924.5 2522.3 920.7 2523.2 912.1 2524.2 915.9 2546 882.5 2547.9 863.4 2549.8 823.3 2551.7 823.3 2563.1 800.4 2589.7 816.6 2607.8 817.6 2637.2 817.5 2676.2 817.5 2701.8 817.5 2736 804.2 2730.3 793.8 2725.2 777.4 2717 759.1 2707.9 743.1 2699.9 722.9 2691.1 705.8 2683.7 706.2 2669.5 706.4 2659.1 706.8 2643.8 698.2 2623.9 699.8 2607.5 701.1 2593.5 701.6 2587.5 703.4 2565.7 704 2558.3 702.7 2533.4 702.1 2521.2 709.7 2516.5 740.3 2515.6 741.2 2508 771.8 2511.8 800.4 2512.7 829.1 2512.7 860.6 2510.9 889.2 2509.9 889.2 2500.4 889.2 2486.2 894 2477.6 903.6 2468.1 912.1 2462.4 938.9 2462.4 987.6 2459.6 1012.4 2450.1 1027.7 2447.3 1051.5 2447.3 1059.2 2447.3 1053.4 2462.5 1045.8 2479.6 1034.3 2500.5 1032.4 2519.5 1031.5 2540.4 1029.5 2578.4 1003.8 2575.5 977 2574.6 958.9 2567.9 Z" data-holc_grade="B"/>
<path d="M 2251.5 1209.2 2252.9 1247.4 2252.5 1278.8 2252.2 1306.2 2252 1319.8 2251.7 1344.9 2251.6 1359.7 2251.3 1383.6 2251.1 1403.1 2250.3 1429.3 2220.6 1425.9 2212.6 1429.3 2211 1419.2 2209.1 1406.5 2188.5 1406.5 2174.8 1406.5 2156.2 1407.7 2138.1 1408.8 2116.4 1406.6 2115.7 1417.3 2114.1 1431.6 2106.1 1443 2084.3 1456.7 2067.2 1476.1 2042 1500 2054.6 1517.1 2072.9 1533.1 2094.7 1557 2117.9 1579.4 2101.5 1594 2076.7 1619.5 2048.3 1641.4 2028.2 1659.6 1999.8 1686.1 1976 1666.9 1943.9 1631.4 1910 1594.9 1867 1551.2 1931.1 1492.8 1895.3 1460 1896.2 1373.4 1851.3 1373.4 1851.3 1328.8 1768 1327.9 1756.1 1319.7 1717.6 1254 1741.4 1203.9 1770.7 1207.5 1794.5 1207.9 1811.7 1208.2 1826.6 1208.4 1847.1 1208.8 1878.8 1209.3 1903.8 1208.1 1916.3 1207.5 1932 1207.5 1950.2 1207.5 1967.4 1208 1979.5 1208.4 2004.3 1208.4 2032.7 1208.4 2048.8 1208.4 2070.2 1208.4 2098.6 1210.2 2129.7 1210.2 2143.8 1210.2 2171.3 1210.2 2192 1210.2 2204.5 1210 2251.5 1209.2 Z M 1981.3 1372.4 1958.4 1373.6 1953.8 1416.9 1955 1447.6 1956.1 1471.6 1967.6 1475 1982.5 1471.6 1982.4 1457.9 1983.6 1418 1983.6 1396.3 1981.3 1372.4 Z" data-holc_grade="B"/>
<path d="M 1441.9 1493.8 1427.3 1476.5 1394.3 1504.7 1423.6 1537.5 1420.9 1554 1359.5 1500.2 1387 1471.9 1411.7 1447.3 1388.8 1423.6 1368.7 1445.5 1331.1 1478.3 1279.8 1428.1 1267.9 1438.2 1210.2 1389.8 1211.2 1363.4 1212.6 1333.2 1249.5 1299.4 1265.2 1285 1273.4 1262.2 1288.5 1249.1 1310.1 1230.3 1333.2 1230.2 1361.9 1229.9 1374.4 1229.8 1398.5 1229.6 1419.1 1229.4 1419.1 1234.9 1432 1235.3 1448.4 1235.8 1448.6 1253.9 1448.8 1276.7 1449.1 1298.4 1449.3 1314.2 1449.3 1332.6 1449.3 1361.6 1448 1385.3 1446.5 1411.7 1445.2 1435.6 1443.8 1460.5 1442.6 1482.1 1441.9 1493.8 Z" data-holc_grade="B"/>
<path d="M 1848.3 981.9 1837.5 998.8 1822 1024.3 1806.4 1041.7 1789 1058.1 1769.8 1082.7 1749.9 1101 1734.1 1115.5 1719.5 1130.4 1695.6 1154.7 1675.5 1177.5 1643.4 1211.2 1619.6 1232.2 1607.7 1244 1601.7 1256 1595.8 1267.7 1582.1 1299.6 1570.2 1330.6 1559.1 1353.7 1550.9 1370.7 1539 1394.4 1527.9 1372.5 1517.6 1357.7 1511.9 1345.1 1508.5 1329.2 1509.6 1308.7 1501.6 1289.3 1494.7 1262 1491.3 1248.3 1500.4 1238 1523.3 1225.5 1525.6 1215.3 1527.9 1198.2 1535.9 1183.4 1540.5 1164 1542.8 1149.2 1537.1 1141.2 1535.1 1142.1 1534.8 1141.2 1533.4 1142.8 1526.8 1145.8 1510.7 1177.7 1506.2 1178.8 1498.2 1160.6 1490.1 1140.1 1484.4 1107 1484.4 1088.8 1484.4 1053.5 1503.9 1053.5 1503.9 1039.8 1503.9 1017 1502.7 992 1502.7 971.5 1483.3 968 1485.6 944.1 1497 932.7 1507.3 916.8 1509.6 907.7 1510.7 898.6 1539.4 899.7 1558.8 898.6 1557.7 879.2 1556.5 861 1556.5 838.4 1558.4 823.2 1600.4 820.4 1649 821.3 1650.9 804.2 1650.9 772.9 1650.9 753 1653.8 724.5 1657.5 695.8 1687.1 695.3 1703.3 695.1 1702.8 676.4 1702.4 662.8 1725.9 662.8 1748.2 662.8 1764.8 662.8 1782.5 662.8 1805.4 661.8 1825.4 666.2 1825.5 692.4 1833.5 694.6 1836.9 699.2 1879.2 695.8 1926.2 693.5 1929.6 764.1 1928.5 802.8 1904.5 856.4 1883.9 897.4 1863.3 947.5 1848.3 981.9 Z M 1699.6 806.3 1698.4 851.8 1695 899.7 1697.3 936.1 1698.5 976 1732.8 976 1788.9 977.1 1785.4 961.2 1785.4 929.3 1780.9 888.3 1783.1 835.9 1766 835.9 1762.5 781.2 1699.6 781.2 1699.6 806.3 Z" data-holc_grade="B"/>
<path d="M 1053.7 1223 1071.1 1239.4 1077.5 1244 1092.1 1253.1 1113.2 1257.7 1164.5 1302.3 1164.5 1312.4 1163.5 1321.5 1142.5 1343.3 1125.1 1362.5 1113.1 1376.2 1101.2 1364.3 1089.3 1352.4 1078.4 1349.7 1063.7 1356.1 1048.1 1362.5 1039 1363.4 1014.2 1339.7 995.9 1320.5 979.5 1299.5 998.7 1283.1 983.1 1264.9 979.5 1255.8 1004.2 1236.7 949.3 1182.9 972.2 1160.1 992.3 1139.1 1002.4 1129.1 1011.6 1123.6 1025.3 1132.8 1051.8 1161 1029.9 1187.5 1044.5 1214.8 1053.7 1223 Z" data-holc_grade="B"/>
<path d="M 472.3 997.6 501.6 965.8 526.3 943.9 581.3 896.5 590.4 901.1 614.2 912.1 638 925.7 646.3 926.7 661.8 936.7 682.9 952.2 698.4 970.4 722.2 994.1 739.6 1013.3 760.7 1038.8 754.3 1045.2 740.5 1050.6 731.4 1059.7 715.8 1075.2 698.4 1092.5 670.9 1114.4 640.7 1078.8 627 1078.8 605 1075.2 580.3 1068.8 544.6 1057.8 530.8 1048.7 472.3 997.6 Z" data-holc_grade="B"/>
<path d="M 849.6 702.6 842.3 601.4 891.8 550.4 902.8 535.9 922 523.1 936.7 497.6 978.8 497.6 1010.8 531.3 1041.9 566.9 1044.7 583.3 1050.2 589.7 1047.4 606.1 1047.4 702.6 849.6 702.6 Z" data-holc_grade="B"/>
<path d="M 550.3 2563 560.3 2556.8 578.7 2554.5 599.3 2552.2 613 2550.3 613.8 2540.5 611.2 2525.6 620.9 2524.1 626.6 2569.7 626.6 2621.9 595.1 2632.4 582.7 2683.7 581.7 2721.7 576 2745.4 577.8 2777.7 516.7 2774.9 461.4 2773.9 427.9 2772.9 397.4 2771 396.4 2747.2 395.5 2725.4 415.6 2714.9 435.6 2701.6 450.9 2694 474.8 2685.5 493.9 2678.9 530.2 2668.4 544.5 2668.4 544.5 2630.4 550.3 2563 Z" data-holc_grade="B"/>
<path d="M 379.1 2927.8 401.1 2922.1 418.3 2921.1 437.4 2921.2 455.5 2918.3 472.7 2918.3 497.6 2918.3 513.8 2918.4 536.7 2920.3 567.3 2919.3 587.3 2918.4 602.6 2919.4 616.9 2921.3 629.3 2921.3 627.4 2966.9 626.4 3000.1 625.5 3023.9 625.4 3043.9 616.9 3045.8 579.6 3046.7 568.1 3050.5 540.5 3053.3 518.5 3054.3 490.8 3054.2 447.8 3052.3 434.4 3053.3 413.4 3053.3 402 3051.3 392.4 3054.2 379.1 3057 379.1 2927.8 Z" data-holc_grade="B"/>
<path d="M 842.2 3074.4 827.8 3074.2 812.5 3073.9 798.2 3073.7 780.1 3073.4 778.7 3064.5 777.3 3056.3 777.7 3048.3 778.2 3036.3 778.3 3017.3 778.3 2997.4 779.2 2973.6 794 2967.6 805 2963.2 822.2 2957.5 842.3 2949.9 842.2 3074.4 Z" data-holc_grade="B"/>
<path d="M 1272.9 3256 1262.4 3257.9 1230.9 3216.1 1208.9 3190.4 1153.5 3190.4 1114.4 3189.5 1080 3187.6 1025.5 3186.6 988.3 3186.6 988.3 3167.6 995.9 3151.4 1005.5 3133.4 1013.1 3119.1 1012.2 3101.1 1015.1 3094.4 1033.2 3074.4 1043.7 3058.3 1049.5 3045 1052.3 3033.6 1056.2 3024.1 1067.6 3004.1 1073.3 2992.7 1086.7 2981.3 1104.9 2974.7 1122.1 2974.7 1122.1 2959.5 1124.9 2941.4 1138.3 2935.7 1145.6 2928.7 1153.4 2921.3 1162.2 2912.9 1172.7 2903.7 1174.6 3002.2 1207 3002.2 1250 3001.3 1274.8 3002.3 1274.8 3027 1277.7 3070.7 1278.6 3110.6 1276.7 3147.7 1274.8 3171.4 1273.9 3218 1272.9 3256 Z" data-holc_grade="B"/>
<path d="M 1648.2 3060.2 1622.4 3072.6 1609.1 3080.2 1596.7 3091.6 1579.5 3098.3 1564.2 3107.8 1545.1 3117.3 1524.1 3126.8 1509.8 3130.6 1490.7 3094.5 1482.1 3076.4 1473.5 3046 1501.2 3029.8 1518.4 3020.3 1531.7 3011.8 1548 3002.3 1564.2 2994.7 1582.3 2989 1590 2983.3 1600.5 2978.5 1606.2 2980.4 1613.8 3013.7 1625.3 3026 1633 3043.1 1648.2 3060.2 Z" data-holc_grade="B"/>
<path d="M 2812.4 2084.5 2829.9 2091.3 2848.2 2099.7 2876.5 2111.8 2901 2121.6 2917 2129.2 2932.3 2139.1 2937.6 2146.7 2932.3 2164.2 2928.5 2177.1 2923.9 2187.7 2924.7 2201.4 2925.5 2215.1 2926.2 2235.6 2917.1 2243.2 2913.3 2253.9 2904.9 2265.3 2900.3 2275.9 2896.5 2291.9 2888.1 2304.1 2875.2 2324.6 2866 2340.6 2854.5 2337.5 2843.8 2330.7 2830.9 2326.1 2814.1 2324.6 2801.1 2323.1 2790.4 2321.6 2778.2 2320.1 2781.2 2304.9 2782.7 2279.1 2778.9 2267.7 2781.2 2256.3 2787.3 2246.4 2791.1 2216 2786.5 2213.7 2772.7 2213.7 2755.2 2214.5 2739.9 2214.5 2726.2 2213.7 2709.4 2211.5 2721.6 2195.5 2733 2181.8 2749.8 2161.3 2759.7 2152.9 2769.6 2134.7 2777.3 2122.5 2784.1 2111.9 2795.6 2096.7 2800.9 2088.3 2812.4 2084.5 Z" data-holc_grade="B"/>
<path d="M 2498.3 1908.3 2498.3 1950.3 2498.3 1956.7 2496.5 1968.5 2453.4 1968.5 2386.5 1968.6 2386.5 1962.2 2386.5 1924.8 2387.4 1862.8 2389.2 1832.7 2389.2 1826.3 2389.2 1808.1 2389.2 1801.7 2450.6 1801.7 2515.6 1800.7 2552.3 1799.8 2577 1799.8 2571.5 1826.2 2568.8 1851.7 2564.2 1904.6 2498.3 1901.9 2498.3 1908.3 Z" data-holc_grade="B"/>
<path d="M 2402.2 1467 2411.1 1475.4 2422.8 1486.6 2428.6 1483.7 2442.2 1481.1 2453.4 1479 2481 1482.8 2507.8 1494.1 2531.6 1511.2 2549.3 1526.4 2560.3 1535.9 2559.5 1551.1 2552.7 1561.3 2535.5 1575 2524.1 1589.8 2505.8 1609.2 2490.9 1626.3 2468 1651.4 2456.9 1665.8 2452.3 1657.6 2434 1645.8 2412 1641.2 2396.4 1623 2383.6 1612.1 2350.6 1577.4 2343.3 1580.2 2326.8 1565.6 2287.4 1533.7 2250.8 1568.4 2216 1603 2174.5 1636 2171 1632.4 2162.8 1624 2154.6 1616.7 2137.2 1601.2 2117.9 1579.4 2094.7 1557 2119.9 1533 2145 1513.7 2172.5 1480.6 2211.4 1438.4 2212.6 1429.3 2220.6 1425.9 2250.3 1429.3 2275.5 1437.3 2291.6 1441.8 2306.5 1441.8 2314.5 1452.1 2325.9 1463.4 2340.8 1476 2372.9 1496.5 2402.2 1467 Z" data-holc_grade="B"/>
</g>
<g id="C">
<path d="M 989.4 2213.2 988.4 2284.5 982.7 2291.1 976.1 2293.6 967.4 2296.8 958 2299.7 945.4 2303.5 932.1 2302.4 922.5 2301.6 913.1 2302.5 903.4 2303.5 894.6 2305.9 886.2 2308.2 879.9 2311.1 874.1 2313.7 867.8 2316.6 863.3 2318.6 855.6 2324.4 848.1 2330 841.4 2335.4 835.1 2340.4 828 2346.2 820.3 2350.4 810.8 2355.7 803.1 2358.9 797.5 2361.4 736.4 2356.6 726.9 2356.6 714.4 2356.6 689.6 2360.4 664.8 2368 633.3 2379.3 601.7 2386.9 579.8 2392.6 580.7 2382.2 596 2380.3 610.3 2369.8 629.4 2364.1 642.8 2355.6 657.1 2350.8 683.9 2338.5 711.6 2330.9 711.6 2271.1 709.7 2224.5 731.6 2223.6 785.1 2220.8 832.8 2219.8 861.5 2221.7 862.4 2278.7 877.7 2270.2 892.9 2258.8 911.1 2246.5 920.6 2238.9 930.2 2230.3 941.6 2219.9 950.2 2210.4 961.7 2199.9 972.2 2197.1 983.6 2191.4 990.3 2187.6 989.4 2213.2 Z" data-holc_grade="C"/>
<path d="M 1572.9 1847.5 1572.6 1847.3 1553.7 1832 1518.9 1799.2 1479.5 1757.3 1457.5 1738.1 1435.5 1716.2 1403.5 1684.3 1398.9 1661.5 1389.7 1639.6 1417.2 1621.4 1429.1 1606.8 1439.2 1593.2 1443.8 1581.3 1447.4 1570.4 1453.9 1554 1460.3 1535.7 1465.8 1519.3 1474 1502 1480.4 1489.2 1487.7 1471.9 1491.4 1460.1 1498.7 1454.6 1505.4 1450.5 1510.6 1447.3 1560.1 1470.1 1555.5 1483.8 1565.6 1492 1583.9 1512 1604.1 1533.9 1628.8 1557.6 1648 1581.3 1673.7 1601.4 1703 1634.2 1745.2 1675.2 1713.1 1707.1 1707.2 1713.1 1689.2 1731.3 1651.7 1769.1 1618.7 1801 1591.4 1828.8 1572.9 1847.5 Z" data-holc_grade="C"/>
<path d="M 1053.7 1223 1083.9 1194.8 1103.1 1177.4 1120.5 1157.4 1133.3 1145.6 1145.3 1135.5 1155.3 1131.9 1165.4 1128.2 1170 1122.8 1182.2 1133.1 1196.1 1144.8 1212.6 1158.8 1224 1168.4 1222.1 1191.8 1218.9 1232.4 1216 1269.8 1214.8 1284.1 1212.6 1333.2 1211.2 1363.4 1210.2 1389.8 1267.9 1438.2 1279.8 1428.1 1331.1 1478.3 1322 1492.9 1346.7 1513.8 1359.5 1500.2 1420.9 1554 1422.7 1569.4 1417.2 1574 1407.1 1585.9 1396.1 1597.7 1383.3 1598.6 1373.2 1610.5 1365.9 1621.4 1357.7 1631.4 1342.1 1640.6 1329.3 1646 1320.1 1646 1313.7 1651.5 1275.2 1615.9 1248.7 1644.2 1234.9 1646 1226.7 1641.5 1223 1644.2 1226.7 1682.5 1210.2 1662.4 1192.8 1641.4 1181.8 1623.2 1169 1604.1 1160.7 1597.7 1146.1 1594 1122.3 1587.6 1103 1586.7 1087.5 1585.8 1073.7 1581.2 1062.7 1571.2 1061.8 1561.2 1055.4 1545.7 1049 1533.8 1042.6 1519.3 1037.1 1498.3 1032.5 1481 1036.2 1467.3 1038.9 1443.6 1044.4 1417.2 1005.1 1410.8 994.1 1394.3 979.4 1378.8 968.4 1368.8 958.4 1357.9 902.5 1302.3 865.9 1264 814.6 1212.9 797.2 1192.8 767 1165.5 735 1133.6 801 1082.6 818.3 1096.2 853.1 1127.2 867.8 1137.3 876.9 1145.5 893.4 1163.7 923.6 1193.8 940.1 1212.9 947.4 1213.9 957.5 1226.6 979.5 1255.8 983.1 1264.9 998.7 1283.1 979.5 1299.5 995.9 1320.5 1014.2 1339.7 1039 1363.4 1048.1 1362.5 1063.7 1356.1 1078.4 1349.7 1089.3 1352.4 1101.2 1364.3 1113.1 1376.2 1125.1 1362.5 1142.5 1343.3 1163.5 1321.5 1164.5 1312.4 1164.5 1302.3 1113.2 1257.7 1092.1 1253.1 1077.5 1244 1071.1 1239.4 1053.7 1223 Z" data-holc_grade="C"/>
<path d="M 760.7 1038.8 739.6 1013.3 722.2 994.1 698.4 970.4 682.9 952.2 661.8 936.7 646.3 926.7 638 925.7 614.2 912.1 590.4 901.1 581.3 896.5 526.3 943.9 501.6 965.8 472.3 997.6 433.8 959.3 450.3 945.7 470.5 922 499.8 895.6 529.1 867.4 511.7 857.3 483.3 839.1 455.9 822.7 430.3 813.5 402.8 803.5 427.5 780.7 453.2 752.5 481.6 722.4 491.7 696 499 682.4 510 674.2 528.3 661.4 543.9 648.7 557.6 624.1 568.6 610.4 580.5 602.2 584.2 595.8 594.3 582.2 608.9 570.4 629 593.1 595.2 631.4 553 682.4 524.6 711.5 507.2 736.1 556.6 789.9 587.7 826.4 619.8 857.4 689.4 784.5 725.1 748.1 756.2 710.7 809.3 706.2 849.6 702.6 853.3 756.3 856.9 799.2 857.8 823.8 825.8 864.8 784.5 912.1 753.4 947.7 774.4 969.5 792.8 988.7 800.1 1005.1 760.7 1038.8 Z" data-holc_grade="C"/>
<path d="M 709.7 2516.5 702.1 2521.2 702.7 2533.4 704 2558.3 703.4 2565.7 701.6 2587.5 701.1 2593.5 699.8 2607.5 698.2 2623.9 706.8 2643.8 706.4 2659.1 706.2 2669.5 705.8 2683.7 722.9 2691.1 743.1 2699.9 759.1 2707.9 777.4 2717 793.8 2725.2 804.2 2730.3 798.4 2794 793.6 2831.1 790.7 2871.9 783.1 2912.8 782.1 2947 779.2 2973.6 778.3 2997.4 778.3 3017.3 778.2 3036.3 777.7 3048.3 777.3 3056.3 778.7 3064.5 780.1 3073.4 798.2 3073.7 812.5 3073.9 827.8 3074.2 842.2 3074.4 842.2 3098.1 869.9 3097.2 906.2 3098.2 906.2 3118.1 903.3 3157.1 903.3 3186.6 847 3186.5 847 3169.4 806.8 3170.4 760 3170.3 760 3202.7 760 3225.5 760 3254 760 3275.9 760.9 3305.3 733.2 3305.3 700.8 3303.4 699.8 3274.9 699.9 3229.3 701.8 3190.3 667.4 3190.3 623.5 3191.2 571.9 3189.3 571.9 3162.6 571 3118.9 575.8 3087.6 579.6 3046.7 616.9 3045.8 625.4 3043.9 625.5 3023.9 626.4 3000.1 627.4 2966.9 629.3 2921.3 616.9 2921.3 602.6 2919.4 587.3 2918.4 567.3 2919.3 536.7 2920.3 513.8 2918.4 497.6 2918.3 472.7 2918.3 455.5 2918.3 437.4 2921.2 418.3 2921.1 401.1 2922.1 379.1 2927.8 370.6 2919.2 299.9 2928.7 300.8 2951.5 298.9 2980.9 298.9 3003.8 299.8 3028.5 302.6 3078.8 260.6 3077.9 226.2 3076.9 169.9 3076.8 166.1 3003.7 157.5 2999.8 116.5 2987.5 44.9 2971.2 1 2923.7 2 2845.8 3 2790.6 6.9 2698.5 24.1 2700.4 73.8 2697.6 68.9 2763.1 192.1 2765.1 199.8 2751.8 205.5 2731.9 210.3 2706.2 211.3 2678.7 214.2 2639.7 214.2 2610.3 282.9 2615.1 283.9 2532.4 351.7 2487.8 447.2 2488.8 446.2 2541.1 430 2541 429 2621.8 486.3 2626.6 486.3 2609.5 550.3 2563 544.5 2630.4 544.5 2668.4 530.2 2668.4 493.9 2678.9 474.8 2685.5 450.9 2694 435.6 2701.6 415.6 2714.9 395.5 2725.4 396.4 2747.2 397.4 2771 427.9 2772.9 461.4 2773.9 516.7 2774.9 577.8 2777.7 576 2745.4 581.7 2721.7 582.7 2683.7 595.1 2632.4 626.6 2621.9 626.6 2569.7 620.9 2524.1 651.5 2523.1 676.3 2507 679.2 2494.6 706.9 2498.4 709.7 2516.5 Z" data-holc_grade="C"/>
<path d="M 1301.6 2593.6 1272 2642.1 1262.5 2656.3 1250.1 2659.2 1234.8 2669.6 1209 2683.9 1184.2 2700 1154.6 2719 1125 2735.2 1093.5 2744.7 1057.2 2746.6 976 2744.6 906.3 2742.7 859.5 2738.9 860.5 2768.4 917.8 2765.5 950.2 2766.5 981.7 2765.6 1006.6 2765.6 1049.5 2766.5 1083 2766.5 1099.2 2765.6 1105.9 2763.7 1118.3 2758.9 1131.7 2756.1 1145 2750.4 1164.1 2741.8 1182.3 2730.4 1192.8 2723.8 1219.5 2703.8 1234.8 2696.2 1246.2 2687.7 1253.9 2680.1 1265.3 2675.3 1278.7 2660.1 1280.6 2690.5 1279.6 2754.2 1271.2 2756.1 1266.6 2757.1 1253.9 2759.9 1243.4 2759.4 1232.9 2759 1218.5 2759 1212.8 2759 1205.2 2759.9 1190.8 2766.6 1190.8 2777 1191.3 2788.4 1191.8 2802.7 1199.1 2814.1 1203.2 2820.6 1209.9 2831.2 1221.1 2819.6 1230.9 2809.5 1242.4 2799.8 1253.9 2797 1260.5 2790.3 1271 2788.4 1283.7 2780.7 1285.4 2796 1276.6 2805.5 1262.8 2820.4 1247.4 2837.1 1240.5 2844.5 1232.3 2851.5 1220.5 2861.5 1207.1 2873 1197.1 2882.1 1185.1 2892.9 1172.7 2903.7 1162.2 2912.9 1153.4 2921.3 1145.6 2928.7 1138.3 2935.7 1124.9 2941.4 1096.3 2940.4 1068.6 2939.5 1031.3 2944.2 1004.6 2933.8 971.2 2925.2 940.6 2924.2 927.3 2928 886.2 2940.4 842.3 2949.9 822.2 2957.5 805 2963.2 794 2967.6 779.2 2973.6 782.1 2947 783.1 2912.8 790.7 2871.9 793.6 2831.1 798.4 2794 804.2 2730.3 817.5 2736 817.5 2701.8 817.5 2676.2 817.6 2637.2 816.6 2607.8 800.4 2589.7 823.3 2563.1 823.3 2551.7 863.4 2549.8 882.5 2547.9 882.5 2583.1 913.2 2582.6 945.5 2582.1 949.3 2572.6 958.9 2567.9 977 2574.6 1003.8 2575.5 1029.5 2578.4 1031.5 2540.4 1032.4 2519.5 1034.3 2500.5 1045.8 2479.6 1053.4 2462.5 1059.2 2447.3 1051.5 2447.3 1053.2 2438.2 1055.3 2426.4 1056.3 2420.7 1058.9 2408.6 1060.1 2402.6 1063.3 2396.3 1069.7 2383.6 1072.1 2381.8 1080.2 2376 1092.6 2368.4 1090 2364.7 1082.9 2354.7 1074.5 2345.9 1067.8 2340.9 1119.3 2340.9 1118.2 2307.3 1136.5 2307.7 1153.7 2308 1167.8 2308.3 1181.4 2325.7 1193.8 2337.1 1209.1 2354.2 1222.4 2368.4 1245.3 2381.7 1266.3 2392.2 1287.3 2403.6 1288.3 2432.1 1291.1 2443.5 1300.7 2459.7 1311.2 2484.4 1316.9 2507.2 1319.8 2520.5 1317.9 2534.7 1316.9 2550.9 1313.1 2577.5 1301.6 2593.6 Z M 1142.2 2501.4 1143.2 2529 1216.7 2528.1 1214.8 2458.7 1202.4 2458.7 1189.9 2460.6 1172.8 2460.6 1169.9 2466.3 1159.4 2472.9 1150.8 2477.7 1144.1 2486.2 1142.2 2501.4 Z M 861.5 2625.8 885.3 2642.9 926.4 2643 958.9 2643 991.3 2645.8 1032.4 2646.8 1060.1 2646.8 1058.2 2627.8 1056.3 2624 1043.8 2624 1014.2 2624 991.3 2623 956 2623 925.5 2623 885.4 2622 870.1 2608.7 871 2618.2 861.5 2625.8 Z" data-holc_grade="C"/>
<path d="M 1648.2 3060.2 1633 3043.1 1625.3 3026 1613.8 3013.7 1606.2 2980.4 1600.5 2978.5 1590 2983.3 1582.3 2989 1564.2 2994.7 1548 3002.3 1531.7 3011.8 1518.4 3020.3 1501.2 3029.8 1473.5 3046 1482.1 3076.4 1490.7 3094.5 1509.8 3130.6 1490.7 3141 1483 3152.4 1481.1 3164.8 1501.2 3176.2 1583.3 3212.3 1563.2 3218 1547 3226.6 1524.1 3237 1514.5 3246.5 1491.6 3253.2 1466.8 3253.2 1426.7 3253.2 1408.5 3257 1389.4 3258 1372.2 3258 1357.9 3257.9 1336.9 3257.9 1335 3257.9 1315.9 3257.9 1295.8 3257.9 1272.9 3256 1273.9 3218 1274.8 3171.4 1276.7 3147.7 1278.6 3110.6 1277.7 3070.7 1274.8 3027 1274.8 3002.3 1250 3001.3 1207 3002.2 1174.6 3002.2 1172.7 2903.7 1185.1 2892.9 1197.1 2882.1 1207.1 2873 1220.5 2861.5 1232.3 2851.5 1240.5 2844.5 1247.4 2837.1 1262.8 2820.4 1276.6 2805.5 1285.4 2796 1283.7 2780.7 1300.6 2785.6 1315.9 2791.3 1331.2 2793.2 1346.5 2794.1 1346.5 2809.3 1348.4 2840.7 1381.8 2841.7 1417.1 2841.7 1444.8 2843.6 1452.5 2817.9 1458.2 2799.8 1466.8 2779.9 1477.3 2766.6 1485.9 2758 1498.3 2752.3 1506.9 2740.9 1521.2 2732.4 1532.7 2723.8 1546 2717.2 1556.5 2714.3 1559.4 2688.7 1554.6 2662.1 1580.4 2668.7 1605.2 2669.7 1631 2675.4 1657.7 2675.4 1687.3 2677.3 1705.5 2679.1 1704.5 2694.4 1701.7 2712.4 1697.9 2731.4 1694 2746.6 1685.4 2766.6 1677.8 2784.6 1674 2798.9 1668.3 2816.9 1668.3 2826.4 1660.6 2841.7 1656.8 2851.2 1656.8 2874.9 1657.8 2886.3 1666.4 2906.3 1675 2920.5 1685.5 2933.8 1694.1 2950.9 1704.6 2975.6 1710.3 2997.5 1721.8 3022.2 1701.7 3030.8 1670.2 3046 1648.2 3060.2 Z M 1317.8 3075.4 1318.8 3027 1319.7 3007 1295.8 3008.9 1297.8 3076.4 1317.8 3075.4 Z" data-holc_grade="C"/>
<path d="M 1272.9 3256 1295.8 3257.9 1315.9 3257.9 1335 3257.9 1336.9 3257.9 1357.9 3257.9 1372.2 3258 1389.4 3258 1408.5 3257 1426.7 3253.2 1420 3320.7 1422.8 3344.5 1483 3455.7 1597.6 3388.2 1624.4 3425.3 1615.8 3475.6 1645.4 3527.9 1587.1 3560.3 1622.5 3623 1626.3 3636.3 1592.9 3643.9 1613.9 3707.6 1628.2 3740.9 1642.6 3775.1 1659.8 3825.5 1670.3 3846.4 1692.3 3884.5 1705.6 3914 1720.9 3941.5 1683.7 3953.9 1619.6 3974.8 1598.6 3946.3 1591.9 3927.3 1580.5 3928.2 1570 3904.5 1553.7 3870.2 1482.1 3890.2 1464.9 3862.6 1457.2 3845.5 1433.3 3807.5 1403.7 3827.4 1403.7 3765.6 1403.7 3749.5 1397 3737.1 1322.5 3746.6 1324.4 3730.4 1319.6 3720.9 1352.1 3719 1344.5 3678.1 1336.9 3637.3 1329.2 3604.9 1270.9 3604.9 1200.2 3604.9 1200.3 3536.5 1200.3 3510.8 1198.4 3434.7 1114.3 3434.7 1100 3430.9 1099 3397.6 1114.3 3396.7 1114.3 3345.4 1115.3 3307.3 1114.3 3286.4 1115.3 3260.8 1074.2 3261.7 1025.5 3260.7 986.4 3260.7 986.4 3240.8 985.4 3214.2 988.3 3186.6 1025.5 3186.6 1080 3187.6 1114.4 3189.5 1153.5 3190.4 1208.9 3190.4 1230.9 3216.1 1262.4 3257.9 1272.9 3256 Z" data-holc_grade="C"/>
<path d="M 2230.7 2068.9 2260 2091.7 2281.1 2113.5 2297.6 2129.9 2325.1 2149.1 2302.2 2168.2 2283 2188.3 2261.9 2210.2 2239.9 2235.8 2227.1 2246.7 2212.4 2258.6 2196.8 2268.6 2181.3 2280.5 2193.2 2288.7 2218.9 2297.8 2243.6 2302.3 2261 2303.2 2278.4 2302.3 2297.7 2301.4 2314.2 2304.1 2327.9 2306.9 2347.2 2310.5 2365.5 2308.7 2384.7 2310.5 2406.7 2310.5 2421.4 2310.5 2443.4 2312.3 2461.7 2313.2 2484.6 2313.2 2481.9 2335 2478.2 2353.3 2473.6 2371.5 2468.2 2386.1 2463.6 2404.4 2456.3 2426.3 2444.4 2453.6 2430.6 2482.8 2409.6 2510.2 2391.3 2538.5 2371.1 2561.3 2351.9 2544 2329.8 2523 2304.2 2496.6 2291.3 2487.5 2279.4 2498.4 2264.8 2510.3 2249.2 2528.5 2236.4 2543.1 2230 2551.3 2219 2561.4 2208 2573.2 2195.1 2581.5 2174.1 2598.8 2164.9 2612.5 2150.3 2623.4 2135.6 2638 2127.3 2647.2 2133.8 2663.6 2140.2 2676.3 2151.2 2691.8 2158.5 2711 2163.1 2728.3 2165 2745.7 2158.6 2756.6 2147.6 2764.8 2138.4 2763 2132 2747.5 2124.6 2735.6 2119.1 2724.7 2110.9 2714.7 2108.1 2709.2 2097.1 2701 2081.5 2689.1 2074.2 2681.8 2064.1 2670 2048.5 2656.3 2032 2641.7 2019.2 2629.9 2012.8 2622.6 2000.8 2612.5 1990.8 2592.5 1979.8 2575.1 1963.6 2585.6 1948.3 2563.8 1921.6 2539.1 1891 2511.5 1865.2 2486.8 1846.2 2467.8 1824.2 2446 1831.3 2436.5 1837.7 2429.2 1852.3 2419.2 1862.4 2410.1 1873.4 2399.1 1882.6 2388.2 1891.7 2380 1899.1 2372.7 1910.1 2362.6 1893.6 2341.7 1878 2358.1 1862.4 2373.6 1843.2 2392.8 1823.9 2408.3 1804.1 2427 1775.5 2400.4 1758.3 2378.5 1744 2365.2 1765.9 2343.4 1755.4 2327.2 1769.8 2300.6 1787.9 2269.3 1807 2244.6 1821.3 2219.8 1837.5 2187.5 1852.8 2176.1 1860.4 2163.8 1875.7 2152.4 1892.9 2129.6 1925.3 2096.3 1949.2 2070.7 1954.9 2049.8 1966.3 2013.7 1970.1 1990.9 1973 1972.8 1976.1 1954.1 1976.1 1960.5 1976.1 1961.4 1988.3 1965.3 2009.6 1972.1 2021.8 1976 2047.5 1984.2 2046.8 1990.4 2044.9 2007 2041.9 2015.1 2038.7 2025 2035.3 2035.4 2030 2051.6 2050.2 2068.9 2063 2081.7 2070.3 2089 2095.9 2114.9 2103.7 2123.1 2114.1 2134 2120.7 2141 2134 2154.2 2142.7 2162.8 2148.5 2155.4 2153.8 2148.5 2161.1 2139.1 2173.4 2126.8 2180.3 2120 2188.6 2108.9 2196.8 2098.1 2206.8 2089.5 2214.6 2082.7 2221.4 2076.9 2230.7 2068.9 Z M 1885.3 2285.1 1919.2 2316.1 1932.9 2304.3 1945.8 2292.4 1965 2269.6 1982.4 2253.2 1996.2 2244.1 2003.5 2233.1 2012.6 2222.2 2025.5 2211.2 2034.6 2202.1 2024.5 2192.1 2013.6 2185.7 1999.8 2170.2 1984.2 2186.6 1973.2 2194.8 1959.5 2212.1 1939.3 2234 1912.8 2256.8 1885.3 2285.1 Z" data-holc_grade="C"/>
<path d="M 1885.3 2285.1 1912.8 2256.8 1939.3 2234 1959.5 2212.1 1973.2 2194.8 1984.2 2186.6 1999.8 2170.2 2013.6 2185.7 2024.5 2192.1 2034.6 2202.1 2025.5 2211.2 2012.6 2222.2 2003.5 2233.1 1996.2 2244.1 1982.4 2253.2 1965 2269.6 1945.8 2292.4 1932.9 2304.3 1919.2 2316.1 1885.3 2285.1 Z" data-holc_grade="C"/>
<path d="M 2456.9 1665.8 2437.7 1688.6 2421.2 1706.9 2405.6 1721.5 2380 1753.4 2363.5 1768 2366.3 1780.7 2369.9 1786.2 2367.2 1810.8 2389.2 1808.1 2389.2 1826.3 2389.2 1832.7 2387.4 1862.8 2386.5 1924.8 2386.5 1962.2 2386.5 1968.6 2453.4 1968.5 2496.5 1968.5 2498.3 1956.7 2498.3 1950.3 2498.3 1908.3 2564.2 1911 2564.3 1964.8 2559.7 2023.2 2557.9 2058.7 2521.3 2058.8 2490.7 2050.7 2490.1 2044.2 2490.1 2041.5 2470 2045.1 2458 2045.1 2444.3 2043.3 2437.2 2039.9 2417.7 2030.4 2408.6 2026 2395.9 2020.9 2374.6 2012.3 2359.1 2006 2346.7 2005 2327.3 2003.5 2301.3 2001.4 2276.1 2000.2 2262.9 1999.6 2245.2 1997 2226.2 1994.2 2199.3 1988.6 2173.1 1983.3 2178.5 1978 2206 1951.3 2248.8 1902.7 2257.3 1892.9 2269.6 1905.1 2280.1 1915.6 2283.9 1919.4 2291.7 1926.7 2307.3 1941.2 2328.6 1962.3 2346.8 1980.7 2362.7 1996.8 2376.5 1995.9 2375.5 1975.8 2374.6 1955.8 2366.3 1947.3 2346 1926.5 2332.5 1912.6 2318.9 1898.7 2307.2 1886.7 2296.8 1876.1 2284.8 1863.8 2293.5 1855.8 2307.2 1843.3 2316.9 1834.4 2330.2 1822.2 2340.6 1812.7 2355.3 1798.1 2346 1790.1 2336.1 1781.7 2326.6 1790.8 2313.2 1803.6 2299.8 1816.1 2291.3 1824 2282.9 1831.8 2274.4 1841.3 2266.5 1850.1 2258.4 1857.2 2248.2 1866.3 2239.5 1874.1 2232.6 1880.2 2227.8 1884.8 2222.9 1889.6 2219 1893.3 2206.5 1905.5 2191 1920.3 2173.7 1936.3 2163.9 1945 2161.5 1948.2 2152.1 1961 2146.3 1968.7 2144.7 1970.9 2141 1976 2127.7 1972.3 2114.3 1968.6 2100.8 1964.9 2081.4 1959.6 2071.1 1969 2056.3 1982.6 2051.8 1986.7 2047.5 1990.6 2046.8 1990.4 2047.5 1984.2 2021.8 1976 2009.6 1972.1 1988.3 1965.3 1976.1 1961.4 1976.1 1960.5 1976.1 1954.1 1984.8 1939.6 1997.9 1918 2011.3 1896 1982.5 1865.7 1985.6 1862.6 1982.5 1859.3 2024.6 1817.4 2087.8 1753.5 2143.6 1699.7 2172 1669.6 2186.4 1654.6 2171 1638.7 2174.5 1636 2216 1603 2250.8 1568.4 2287.4 1533.7 2326.8 1565.6 2343.3 1580.2 2350.6 1577.4 2383.6 1612.1 2396.4 1623 2412 1641.2 2434 1645.8 2452.3 1657.6 2456.9 1665.8 Z" data-holc_grade="C"/>
<path d="M 2117.9 1579.4 2137.2 1601.2 2154.6 1616.7 2162.8 1624 2171 1632.4 2174.5 1636 2171 1638.7 2186.4 1654.6 2172 1669.6 2143.6 1699.7 2087.8 1753.5 2024.6 1817.4 1982.5 1859.3 1962.3 1845.6 1941.2 1868.4 1911.9 1840.2 1871.6 1797.3 1841.4 1768.2 1826.7 1780.9 1806.5 1806.5 1750.7 1753.6 1707.2 1713.1 1713.1 1707.1 1745.2 1675.2 1703 1634.2 1673.7 1601.4 1648 1581.3 1628.8 1557.6 1604.1 1533.9 1583.9 1512 1565.6 1492 1555.5 1483.8 1560.1 1470.1 1510.6 1447.3 1519.5 1433.4 1528 1419.9 1535.2 1403.4 1539 1394.4 1550.9 1370.7 1559.1 1353.7 1570.2 1330.6 1582.1 1299.6 1595.8 1267.7 1601.7 1256 1607.7 1244 1619.6 1232.2 1628.8 1235.8 1661.8 1247.7 1691.1 1257.7 1701.1 1230.3 1681 1222.1 1657 1215.1 1643.4 1211.2 1675.5 1177.5 1695.6 1154.7 1719.5 1130.4 1734.1 1115.5 1749.9 1101 1769.8 1082.7 1789 1058.1 1806.4 1041.7 1822 1024.3 1818.3 1039.8 1802.8 1068.1 1791.8 1076.3 1786.3 1092.7 1782.6 1106.4 1777.1 1123.7 1768 1141 1760.6 1155.6 1757 1169.3 1741.4 1203.9 1717.6 1254 1756.1 1319.7 1768 1327.9 1851.3 1328.8 1851.3 1373.4 1896.2 1373.4 1895.3 1460 1931.1 1492.8 1867 1551.2 1910 1594.9 1943.9 1631.4 1976 1666.9 1999.8 1686.1 2028.2 1659.6 2048.3 1641.4 2076.7 1619.5 2101.5 1594 2117.9 1579.4 Z" data-holc_grade="C"/>
</g>
<g id="D">
<path d="M 1167.8 2308.3 1153.7 2308 1136.5 2307.7 1118.2 2307.3 1121.1 2289.3 1054.3 2283.5 1054.3 2214.2 989.4 2213.2 990.3 2187.6 983.6 2191.4 972.2 2197.1 961.7 2199.9 950.2 2210.4 941.6 2219.9 930.2 2230.3 920.6 2238.9 911.1 2246.5 892.9 2258.8 877.7 2270.2 862.4 2278.7 861.5 2221.7 832.8 2219.8 785.1 2220.8 731.6 2223.6 709.7 2224.5 693.5 2227.4 670.6 2232.1 656.2 2233 640 2235.9 616.1 2237.8 568.4 2237.7 527.4 2238.7 528.3 2196.9 524.6 2138.9 485.4 2129.4 451.1 2123.7 417.7 2119.9 407.2 2119.9 412.1 1932.7 459.8 1939.4 499.9 1943.2 553.3 1949.9 582.9 1953.7 621.1 1956.6 668.8 1959.5 711.7 1962.3 769 1968.1 816.7 1974.7 849.1 1977.6 883.5 1982.4 929.3 1989 980.8 1994.7 1020 2000.5 1044.8 2029.9 1062 2048 1069.6 2062.2 1082.9 2084.1 1091.5 2102.1 1117.3 2137.3 1128.7 2175.3 1133.5 2181 1139.2 2202.8 1132.5 2204.7 1140.2 2227.5 1148.8 2253.2 1149.7 2263.6 1153.5 2276.9 1158.3 2293.1 1167.8 2308.3 Z" data-holc_grade="D"/>
<path d="M 949.4 2519.4 924.5 2522.3 920.7 2496.6 949.4 2495.7 949.4 2519.4 Z" data-holc_grade="D"/>
<path d="M 1283.7 2780.7 1279.6 2768.5 1271.2 2756.1 1279.6 2754.2 1280.6 2690.5 1278.7 2660.1 1296.8 2641.1 1302.4 2633.1 1307.4 2625.6 1315 2614.5 1321.7 2597.4 1301.6 2593.6 1313.1 2577.5 1316.9 2550.9 1317.9 2534.7 1319.8 2520.5 1316.9 2507.2 1311.2 2484.4 1300.7 2459.7 1291.1 2443.5 1288.3 2432.1 1287.3 2403.6 1309.3 2422.6 1335.1 2447.3 1369.4 2476.8 1398.1 2508.1 1429.6 2536.6 1480.2 2579.4 1514.5 2606 1529.8 2619.3 1543.2 2623.1 1549.9 2641.2 1554.6 2662.1 1559.4 2688.7 1556.5 2714.3 1546 2717.2 1532.7 2723.8 1521.2 2732.4 1506.9 2740.9 1498.3 2752.3 1485.9 2758 1477.3 2766.6 1466.8 2779.9 1458.2 2799.8 1452.5 2817.9 1444.8 2843.6 1417.1 2841.7 1381.8 2841.7 1348.4 2840.7 1346.5 2809.3 1346.5 2794.1 1331.2 2793.2 1315.9 2791.3 1300.6 2785.6 1283.7 2780.7 Z" data-holc_grade="D"/>
<path d="M 2371.1 2561.3 2358.1 2575.5 2339 2599 2323.8 2621.1 2298.6 2655.3 2285.6 2677.3 2271.9 2700.2 2257.4 2723 2242.9 2747.3 2229.9 2767.1 2230.7 2786.1 2233 2808.9 2233 2826.4 2236 2850.7 2262.8 2851.5 2288 2846.9 2314.7 2844.6 2317 2861.3 2319.3 2889.4 2320.1 2913 2319.3 2921.4 2299.5 2921.4 2262.8 2926 2239.1 2928.3 2216.2 2932.1 2197.1 2934.4 2182.6 2935.1 2178.8 2916.9 2177.2 2893.3 2174.2 2873.5 2170.4 2850.7 2167.3 2815 2164.2 2776.2 2158.6 2756.6 2165 2745.7 2163.1 2728.3 2158.5 2711 2151.2 2691.8 2140.2 2676.3 2133.8 2663.6 2127.3 2647.2 2135.6 2638 2150.3 2623.4 2164.9 2612.5 2174.1 2598.8 2195.1 2581.5 2208 2573.2 2219 2561.4 2230 2551.3 2236.4 2543.1 2249.2 2528.5 2264.8 2510.3 2279.4 2498.4 2291.3 2487.5 2304.2 2496.6 2329.8 2523 2351.9 2544 2371.1 2561.3 Z" data-holc_grade="D"/>
<path d="M 2144.7 1970.9 2156.4 1975 2173.1 1976.9 2178.5 1978 2173.1 1983.3 2199.3 1988.6 2226.2 1994.2 2245.2 1997 2262.9 1999.6 2276.1 2000.2 2301.3 2001.4 2327.3 2003.5 2346.7 2005 2359.1 2006 2374.6 2012.3 2395.9 2020.9 2408.6 2026 2417.7 2030.4 2437.2 2039.9 2444.3 2043.3 2458 2045.1 2470 2045.1 2490.1 2041.5 2490.1 2044.2 2490.7 2050.7 2493.6 2084.2 2525.7 2094.3 2540.4 2104.3 2548.6 2119.8 2546.8 2138.9 2541.3 2162.6 2529.4 2186.4 2523 2209.2 2515.7 2228.3 2507.5 2250.2 2491.9 2265.7 2486.4 2279.4 2484.6 2313.2 2461.7 2313.2 2443.4 2312.3 2421.4 2310.5 2406.7 2310.5 2384.7 2310.5 2365.5 2308.7 2347.2 2310.5 2327.9 2306.9 2314.2 2304.1 2297.7 2301.4 2278.4 2302.3 2261 2303.2 2243.6 2302.3 2218.9 2297.8 2193.2 2288.7 2181.3 2280.5 2196.8 2268.6 2212.4 2258.6 2227.1 2246.7 2239.9 2235.8 2261.9 2210.2 2283 2188.3 2302.2 2168.2 2325.1 2149.1 2297.6 2129.9 2281.1 2113.5 2260 2091.7 2230.7 2068.9 2240.7 2059.7 2246.2 2050.6 2238.9 2047 2226.1 2039.7 2213.2 2034.2 2195.8 2027.9 2183 2024.2 2164.7 2016 2153.7 2014.2 2140.9 2011.5 2127.1 2008.7 2107 2001.4 2090.5 1999.6 2063 1993.2 2051.8 1986.7 2056.3 1982.6 2071.1 1969 2081.4 1959.6 2100.8 1964.9 2114.3 1968.6 2127.7 1972.3 2141 1976 2144.7 1970.9 Z" data-holc_grade="D"/>
<path d="M 1963.6 2585.6 1929.2 2619.8 1911.1 2599.9 1894.9 2579.9 1876.7 2559 1861.4 2541 1844.3 2522.9 1830.9 2509.6 1815.6 2497.3 1796.5 2478.3 1780.3 2464 1766 2450.7 1750.7 2437.4 1732.5 2427.9 1720.1 2419.4 1718.2 2408.9 1719.2 2393.7 1717.3 2378.5 1712.5 2359.5 1703.9 2344.3 1689.6 2331 1674.3 2326.3 1665.7 2318.7 1651.4 2306.3 1611.3 2279.7 1583.6 2259.8 1560.7 2244.6 1523.5 2217 1537.8 2199 1568.3 2172.4 1597 2144.8 1616.1 2124.9 1634.2 2122 1656.1 2118.2 1678.1 2117.3 1708.6 2115.4 1735.4 2113.5 1750.6 2098.3 1774.5 2074.5 1752.5 2047.9 1738.2 2031.8 1764 2027 1786.9 2024.2 1813.6 2019.4 1827.9 2013.7 1839.4 2003.3 1847 1993.8 1856.6 1986.2 1859.4 1979.5 1867 1970 1883.3 1948.2 1885.6 1930.7 1895.7 1933.9 1933.8 1946.2 1976.1 1954.1 1973 1972.8 1970.1 1990.9 1966.3 2013.7 1954.9 2049.8 1949.2 2070.7 1925.3 2096.3 1892.9 2129.6 1875.7 2152.4 1860.4 2163.8 1852.8 2176.1 1837.5 2187.5 1821.3 2219.8 1807 2244.6 1787.9 2269.3 1769.8 2300.6 1755.4 2327.2 1765.9 2343.4 1744 2365.2 1758.3 2378.5 1775.5 2400.4 1804.1 2427 1824.2 2446 1846.2 2467.8 1865.2 2486.8 1891 2511.5 1921.6 2539.1 1948.3 2563.8 1963.6 2585.6 Z" data-holc_grade="D"/>
<path d="M 1982.5 1859.3 1985.6 1862.6 1982.5 1865.7 2011.3 1896 1997.9 1918 1984.8 1939.6 1976.1 1954.1 1933.8 1946.2 1895.7 1933.9 1885.6 1930.7 1866.1 1924.4 1837.5 1918.7 1818.4 1917.8 1793.6 1924.4 1781.1 1914.9 1764.9 1901.6 1740.1 1877 1716.2 1894.1 1701.9 1907.3 1673.3 1927.3 1667.6 1918.8 1630.4 1880.8 1569.3 1942.5 1523.2 1894.9 1539.5 1878.5 1562.8 1857 1572.9 1847.5 1591.4 1828.8 1618.7 1801 1651.7 1769.1 1689.2 1731.3 1707.2 1713.1 1750.7 1753.6 1806.5 1806.5 1826.7 1780.9 1841.4 1768.2 1871.6 1797.3 1911.9 1840.2 1941.2 1868.4 1962.3 1845.6 1982.5 1859.3 Z" data-holc_grade="D"/>
<path d="M 1572.9 1847.5 1562.8 1857 1539.5 1878.5 1532.8 1885.2 1523.2 1894.9 1485 1935.1 1469.4 1919.6 1435.5 1882.2 1428.2 1874 1413.5 1872.1 1380.5 1902.2 1364.1 1890.4 1351.2 1882.2 1340.2 1870.3 1321 1851.2 1346.7 1832 1360.4 1815.6 1340.2 1795.5 1323.8 1782.8 1301.8 1758.2 1284.4 1742.7 1274.3 1725.3 1292.6 1706.2 1310 1689.8 1330.2 1675.2 1344.8 1665.2 1370.5 1654.2 1389.7 1639.6 1398.9 1661.5 1403.5 1684.3 1435.5 1716.2 1457.5 1738.1 1479.5 1757.3 1518.9 1799.2 1553.7 1832 1572.6 1847.3 1572.9 1847.5 Z" data-holc_grade="D"/>
<path d="M 885.3 844.7 1003.4 840.2 1003.4 939.6 999.7 968.7 983.2 974.2 969.5 981.5 951.2 986.9 920.9 1027 894.4 988.7 871.5 955.9 846.8 924.9 871.5 899.4 899.9 864.8 885.3 844.7 Z" data-holc_grade="D"/>
</g>
</svg>