<?xml version="1.0"?>
<svg xmlns="http://www.w3.org/2000/svg" version="1.2" baseProfile="tiny" width="3000" height="2711" viewBox="0 0 3000 2711" stroke-linecap="round" stroke-linejoin="round">
<g id="A">
<path d="M 2180 2062.6 2174.3 2166 2170.9 2205.2 2167.2 2255.9 2165.9 2276.7 2164.2 2303.6 2063.4 2295.3 2061.4 2320.6 2040.2 2318.1 2032 2312 2027.6 2255.6 2024.4 2241.4 2021.3 2202.4 2012.3 2125.1 2010.7 2111.4 2005.3 2050.9 2080.5 2055.2 2150.1 2059.8 2180 2062.6 Z" data-holc_grade="A"/>
<path d="M 2129 1784.6 2131.8 1789 2137.9 1814.7 2140.4 1833.8 2143.9 1848.3 2147 1880.4 2152 1906 2156.6 1930.5 2163.1 1955.7 2174 1986.4 2183.4 2002.9 2181.5 2016.2 2180 2062.6 2150.1 2059.8 2080.5 2055.2 2005.3 2050.9 2003.8 2038.3 2000.9 2014.6 1999.6 1990.6 2071.4 1994.5 2079.9 1882.6 2042.8 1879.2 2050.2 1771.5 2049.2 1761.2 2043.3 1737.8 2043.5 1724.7 2048.3 1709.1 2068.7 1721.9 2080.5 1727.7 2093.8 1738.4 2113.3 1759.9 2123.9 1776.5 2129 1784.6 Z" data-holc_grade="A"/>
<path d="M 2048.3 1709.1 2043.5 1724.7 2043.3 1737.8 2049.2 1761.2 2050.2 1771.5 2042.8 1879.2 2079.9 1882.6 2071.4 1994.5 1999.6 1990.6 1991.8 1938.3 1987.6 1909.2 1982.8 1890.7 1971.5 1861.6 1965.1 1854.2 1954 1849.4 1934.2 1844.8 1919.3 1837.5 1885.3 1810.9 1863.7 1792.3 1848.4 1774.7 1841.1 1764.6 1838.3 1760.8 1825.1 1736.2 1879.2 1726.7 1887.1 1726.9 1889.1 1738.3 2012.7 1712.3 2013.1 1705 2015.4 1700.2 2019.3 1697.9 2027.7 1696 2048.3 1709.1 Z" data-holc_grade="A"/>
<path d="M 1637.9 2098.8 1638.7 2090.5 1638.1 2083 1631.4 2079.4 1622.8 2077.3 1619.7 2073.8 1625.7 2047.7 1631.4 2019.2 1633 2002.6 1637.9 1983.9 1644.1 1960.4 1622.2 1931.3 1619.5 1925 1617.8 1908 1618.4 1896.8 1627.8 1901.2 1634.3 1899.6 1646.2 1894.5 1655.8 1892.4 1651.3 1879 1654.8 1876.7 1668.4 1856.1 1683.6 1831.8 1700.4 1811.4 1725.4 1803.9 1739.7 1798.4 1760.1 1786.6 1782.9 1775.3 1793.8 1775.3 1818.2 1776.6 1827.2 1774.7 1841.1 1764.6 1848.4 1774.7 1863.7 1792.3 1885.3 1810.9 1919.3 1837.5 1934.2 1844.8 1954 1849.4 1965.1 1854.2 1971.5 1861.6 1982.8 1890.7 1987.6 1909.2 1991.8 1938.3 1999.6 1990.6 2000.9 2014.6 2003.8 2038.3 2005.3 2050.9 2010.7 2111.4 2012.3 2125.1 2003.6 2126.5 1991 2125.9 1975 2123.1 1955.1 2121.6 1930.8 2125.3 1890 2136 1866.7 2143.9 1848.5 2151.5 1845.1 2145.1 1834 2129 1822.1 2121 1812.3 2116.4 1799.8 2106.1 1787.7 2092.5 1775.6 2088.9 1758.2 2069.2 1749.8 2059.7 1737.9 2051.5 1725.6 2056.1 1716 2057.4 1703.7 2058.4 1694.9 2059.9 1694.3 2078.2 1693 2081.1 1687 2083.8 1656.2 2091.2 1650.4 2095 1642.2 2100.6 1637.8 2100 1637.9 2098.8 Z M 1806.5 1882.9 1792.3 1877.4 1787.1 1871.4 1784.3 1865.9 1785 1827.1 1747.2 1829.2 1744.9 1836.1 1740.1 1840.5 1738.2 1843.8 1738 1856.7 1740.5 1876 1738.2 1889.8 1724 1917.5 1716 1931.6 1712.5 1939.6 1710.8 1949.2 1712 1962.4 1714.1 1975.6 1719.3 1986.2 1736.7 1998.9 1758.2 2012.4 1776.2 2025.2 1791 2043.5 1802.9 2060.2 1805.8 2063.8 1813.1 2066.8 1823.4 2063.4 1819.2 2053.5 1816.5 2041.6 1820 2033.6 1824.7 2028.4 1835.5 2023.9 1849.5 2022.1 1850.8 2018.9 1846.6 2016.6 1844.3 2014.3 1837.8 2012 1836.1 2006.9 1836.4 1990.8 1832.4 1977.3 1825.5 1955.1 1825.5 1947.8 1827.6 1942.7 1831.2 1933.5 1832 1922.4 1851.8 1913.1 1873 1900.6 1883.2 1888.2 1888.4 1879.8 1888.6 1871.4 1886.6 1862.8 1882.6 1844.1 1864.6 1853.9 1857.1 1863.8 1843.3 1878.7 1832.8 1883.1 1819.7 1885.2 1806.5 1882.9 Z" data-holc_grade="A"/>
<path d="M 2012.3 2125.1 2021.3 2202.4 2024.4 2241.4 2027.6 2255.6 2032 2312 1994.7 2307.9 1968.9 2304.3 1952.9 2304.9 1940.9 2307.9 1932.4 2312.7 1920.6 2317.1 1911.2 2317.1 1900.6 2320.3 1881.9 2327.4 1871.5 2324.3 1859.6 2313.6 1850.5 2301.9 1851.1 2291.8 1854.9 2280.9 1860.1 2263.3 1858.5 2246.3 1862.8 2229.3 1865.8 2206.6 1862.7 2180.6 1857.4 2167.8 1848.5 2151.5 1866.7 2143.9 1890 2136 1930.8 2125.3 1955.1 2121.6 1975 2123.1 1991 2125.9 2003.6 2126.5 2012.3 2125.1 Z" data-holc_grade="A"/>
<path d="M 2032 2312 2036.7 2350.9 2039.7 2375.4 2040.3 2379.6 2040.4 2380.1 2047.5 2428.1 2052.8 2474 2054.7 2490.3 2056.3 2501.7 2059.8 2527 2060.8 2552.5 2060.9 2555.6 2057.9 2559.1 2058 2620.1 2059.2 2624.8 2061.9 2635 2062.8 2702.2 1968 2702.4 1884.8 2703.4 1754.1 2704.3 1660.1 2705.7 1488.8 2708 1372.8 2710.3 1370.7 2652.5 1372.8 2627 1376 2579.8 1379.2 2528 1386.6 2525.7 1389.4 2498.4 1452.4 2425.7 1488.7 2377.6 1517.7 2343.4 1530.3 2326.6 1534.4 2281.1 1533.4 2259.1 1536.3 2225.5 1564.9 2225.9 1644.6 2244.6 1667.3 2251.3 1704.5 2258.6 1707 2259.1 1767.8 2276.6 1829.2 2294 1850.5 2301.9 1859.6 2313.6 1871.5 2324.3 1881.9 2327.4 1900.6 2320.3 1911.2 2317.1 1920.6 2317.1 1932.4 2312.7 1940.9 2307.9 1952.9 2304.9 1968.9 2304.3 1994.7 2307.9 2032 2312 Z" data-holc_grade="A"/>
<path d="M 1164.8 716 1169.4 720.8 1177.7 726.3 1185.7 737 1185.1 751.3 1188.6 758.4 1206 792.2 1217.3 804.6 1215 806.5 1184 806.8 1183.4 899.4 1186.6 924.8 1163.4 917.3 1147.7 912.2 1117.5 910.8 1042.3 912 1025.1 911.4 1001.7 918.1 1000.6 880.1 1000.4 848.2 998.9 811.6 847.5 814.7 846.4 703.1 849.4 700.7 877 699 898.8 699.9 921.2 700.9 936.7 701.9 940.6 691.6 941.9 678.4 940.8 632.6 954.6 634.1 956.5 625.7 960.5 601.9 963 564.2 980.3 575.8 993.8 580.4 995.3 590.4 1006 597.1 1021.7 607.7 1035.5 615.8 1052.2 626.6 1064.5 634.5 1081.5 645.2 1089.9 650.9 1118.9 676.9 1117.7 699.8 1119 711.8 1146.2 708.4 1160 708.5 1164.8 716 Z M 1260.8 785.5 1252.5 791.2 1230.9 761.4 1210.9 741.5 1185.2 720.2 1182.4 715.2 1196.7 698.4 1215.1 682.6 1228.6 673.9 1239.7 670.7 1254.4 671.4 1265.9 676.5 1277.4 686.1 1285.4 696.2 1282 698.1 1271.9 703.7 1260.8 707.2 1248.6 709.2 1248.9 730.7 1286.6 732.1 1286.5 735.1 1286.3 741.3 1287 750.9 1284.3 759.4 1280.6 762.4 1275.5 764.2 1271.2 765.3 1268.2 768.1 1260.8 785.5 Z" data-holc_grade="A"/>
</g>
<g id="B">
<path d="M 2040.3 2379.6 2039.7 2375.4 2036.7 2350.9 2168.2 2358.4 2162.5 2387.3 2040.3 2379.6 Z M 2056.3 2501.7 2054.7 2490.3 2052.8 2474 2064.1 2471.7 2082.2 2468.9 2127.6 2461 2156.2 2453.6 2158.3 2424.3 2161.1 2394.8 2307.9 2400.3 2301.3 2517.2 2253 2514.7 2178.6 2511.5 2177.9 2473.7 2164.4 2475.5 2095.7 2491.8 2056.3 2501.7 Z M 2059.2 2624.8 2058 2620.1 2057.9 2559.1 2060.9 2555.6 2060.8 2552.5 2152.4 2554.5 2150.1 2558.3 2150 2559.4 2146.3 2627 2059.2 2624.8 Z" data-holc_grade="B"/>
<path d="M 849.4 700.7 847.5 660.6 840.4 660 840.7 622.8 901.5 620.4 900.7 580.9 910.7 579.2 908.6 527.6 919.6 535 963 564.2 960.5 601.9 956.5 625.7 954.6 634.1 940.8 632.6 941.9 678.4 940.6 691.6 936.7 701.9 921.2 700.9 898.8 699.9 877 699 849.4 700.7 Z M 1199.5 383.8 1139.6 384.6 1139 348.9 1198.8 347.9 1199.5 383.8 Z M 1429.2 297.5 1439.8 353.8 1448.1 388 1459.6 444.3 1455.7 507.9 1457 523.3 1466.5 555.6 1470.4 570.4 1473.6 602.3 1481.9 635.5 1495 664.6 1502.3 681.3 1497 687.9 1484.6 692.5 1472.4 700.8 1454.1 719.4 1433.9 699.8 1398.5 630.5 1368.8 571.7 1359.7 576 1395 644.9 1386.4 650.5 1420.6 716.5 1472.2 767.2 1482.5 776.8 1491.4 789.3 1504.6 797.1 1509.8 839.8 1511.8 852.6 1471.8 845.3 1391.3 847.5 1386.7 773.7 1308 772.5 1260.8 785.5 1268.2 768.1 1271.2 765.3 1275.5 764.2 1280.6 762.4 1284.3 759.4 1287 750.9 1286.3 741.3 1286.5 735.1 1290.7 734 1290.9 698.2 1282 698.1 1285.4 696.2 1277.4 686.1 1265.9 676.5 1254.4 671.4 1239.7 670.7 1228.6 673.9 1215.1 682.6 1196.7 698.4 1182.4 715.2 1185.2 720.2 1164.8 716 1160 708.5 1146.2 708.4 1119 711.8 1117.7 699.8 1118.9 676.9 1089.9 650.9 1081.5 645.2 1064.5 634.5 1052.2 626.6 1035.5 615.8 1021.7 607.7 1006 597.1 995.3 590.4 993.8 580.4 1111 576.8 1108.5 517.3 1134.7 515.4 1135 499.4 1043.7 501.7 1043.5 467.8 1029.9 467.6 1026.2 464.1 1022.6 458.4 1021.4 433.2 1026.9 426.3 1034.8 424.3 1140.3 421.8 1139.1 460.7 1236.8 460.5 1235.2 448.6 1235.7 433.7 1241.6 419.5 1248.8 403.3 1248.1 388.6 1241 367.8 1233.2 347.4 1222.8 348.3 1218.7 338.9 1211.3 328.6 1200.1 320.4 1198.7 278.5 1197.8 254.9 1215.7 254.9 1227 256.5 1191.4 191.7 1398.7 188.1 1398.2 251.7 1403 265.2 1412.9 276.9 1429.2 297.5 Z M 1147.7 104.8 1185.1 171.6 1174 177.7 1136.5 179.6 1137.6 151.3 1105.4 155.1 1105.5 151.5 1065.1 149 1064.9 111.6 1107.7 115.2 1107.7 125.7 1147.7 104.8 Z M 1183.3 3.3 1181.6 50.6 1112.8 49.8 1093.9 17 1094.4 1 1183.3 3.3 Z" data-holc_grade="B"/>
<path d="M 1522.3 343.7 1523.7 299.9 1527.1 285.1 1548.7 261.2 1557.7 259.9 1559.6 251.4 1577.7 242.7 1588.3 240.4 1587.4 291.2 1583.5 313 1585.1 321.5 1592 358.5 1591 389.7 1582.5 403.9 1578.9 422.2 1575 436.9 1571.7 445.6 1571.3 455.4 1566.5 493.9 1558.6 521.8 1545.1 556.4 1541.2 557.3 1527.6 497.5 1529 465.7 1521.9 453.1 1534 438.7 1532.2 403.2 1532.9 345 1522.3 343.7 Z" data-holc_grade="B"/>
<path d="M 2215 2158.5 2209.1 2278.6 2165.9 2276.7 2167.2 2255.9 2170.9 2205.2 2174.3 2166 2180 2062.6 2181.5 2016.2 2183.4 2002.9 2174 1986.4 2163.1 1955.7 2156.6 1930.5 2152 1906 2147 1880.4 2143.9 1848.3 2140.4 1833.8 2137.9 1814.7 2131.8 1789 2129 1784.6 2134.8 1746.3 2138 1725.7 2151.4 1725.4 2153 1690.8 2154.8 1682.1 2159.6 1677.3 2175 1666.1 2185.9 1679.1 2206.6 1707.8 2212.6 1701.3 2217.8 1701.5 2223 1708.9 2226 1716.8 2231 1724.8 2251.8 1758.4 2255 1761.3 2256.4 1762.6 2261.4 1771.5 2263.5 1778.8 2264.4 1789.5 2267.2 1798.4 2291.8 1843.6 2295.5 1850.3 2303.4 1856.7 2309.9 1860.1 2322.8 1861.6 2341.8 1862.2 2346.7 1831 2362.3 1820.9 2465.7 1827.6 2459.3 1908.6 2494.9 1910.1 2494.2 1920.8 2491.6 1957.2 2380.2 1950.2 2383.5 1904.1 2326.2 1900.4 2319.4 1923 2316.4 1967.7 2315.5 2002.8 2311.2 2051.4 2203.8 2044.1 2219.5 2066.7 2215 2158.5 Z" data-holc_grade="B"/>
<path d="M 1334.8 2658.4 1321 2676.5 1272.8 2672.5 1263 2665.5 1247 2681.4 1219.1 2679.8 1241.5 2654.8 1261.5 2635.2 1274.7 2621.7 1291.5 2601.9 1308.4 2618.1 1334.2 2622.4 1334.8 2658.4 Z M 1350.8 2544.4 1306.9 2593.6 1225.2 2574.3 1233.8 2563.9 1242.4 2556.9 1250.4 2552 1258.7 2548.7 1267.3 2544.7 1274.7 2537.7 1284.2 2528.5 1292.5 2517.5 1330.2 2479.9 1372.6 2517.8 1350.8 2544.4 Z M 1651.3 1879 1655.8 1892.4 1646.2 1894.5 1634.3 1899.6 1627.8 1901.2 1618.4 1896.8 1617.8 1908 1619.5 1925 1622.2 1931.3 1644.1 1960.4 1637.9 1983.9 1633 2002.6 1631.4 2019.2 1625.7 2047.7 1619.7 2073.8 1622.8 2077.3 1631.4 2079.4 1638.1 2083 1638.7 2090.5 1637.9 2098.8 1626.4 2102.4 1614.9 2103.7 1589.7 2099.7 1570.5 2098.1 1576.8 2073.9 1567.6 2072.7 1570.3 2048.7 1571.1 2028.6 1574.3 1992.2 1575.9 1960.8 1580.4 1933.4 1581.7 1895.1 1581.9 1875.8 1587.4 1877.2 1592.5 1877.3 1595.1 1873.9 1596.4 1865.3 1598.4 1849.7 1601.1 1842 1604.1 1836.7 1625.5 1845.4 1642.6 1829.2 1649.4 1836.8 1646.3 1844 1650.2 1856.1 1650.5 1865.1 1649.3 1877.2 1651.3 1879 Z" data-holc_grade="B"/>
<path d="M 2000.9 1679.2 2005 1682.7 2011.6 1686 2019.3 1690.8 2027.7 1696 2019.3 1697.9 2015.4 1700.2 2013.1 1705 2012.7 1712.3 1889.1 1738.3 1887.1 1726.9 1879.2 1726.7 1825.1 1736.2 1811 1708.1 1793.2 1672.6 1789 1658.7 1786.6 1652.8 1787.3 1645 1784.1 1637.1 1784.6 1631.1 1816.5 1633.4 1842.5 1632.7 1858.5 1630.4 1874.5 1705.4 1996.5 1681.5 2000.9 1679.2 Z" data-holc_grade="B"/>
<path d="M 2424.2 1096.8 2406.8 1095.1 2422.8 932.3 2430.3 932.7 2565.5 939.4 2559.1 1039.4 2567.5 1040.4 2581.1 1037.3 2594.1 1031.4 2608.5 1026.8 2635.2 1023.7 2649.9 1021.6 2647.8 1040.2 2648.9 1053.7 2651 1065.9 2655.9 1073.4 2662.1 1081.4 2663.7 1085.8 2597.4 1079.2 2594.5 1122.7 2554.2 1119.5 2556.1 1100.1 2505.2 1097 2481.5 1095.5 2480.4 1101.5 2424.2 1096.8 Z M 2422.6 1307.7 2419.5 1320 2417.5 1336.9 2417.5 1350.6 2409.6 1352 2406.5 1355.6 2455.1 1388.3 2454 1433.1 2376.7 1429.7 2376.8 1438.3 2359.2 1437 2358.6 1450.6 2357.6 1466.6 2355.6 1491.7 2346.7 1590.2 2339.2 1590.1 2203.7 1580.6 2207.2 1560.6 2198.4 1560 2200.3 1539.8 2151.3 1535.1 2131.7 1533.4 2134.2 1490.4 2136.5 1456.3 2137.8 1420.2 2155.1 1422.1 2156.2 1401.8 2202.3 1404.6 2206.5 1339.1 2151.3 1334.8 2149.8 1313.8 2200.7 1311.6 2278.4 1314.4 2279.7 1297.4 2338.9 1295.7 2356.2 1311.9 2384.5 1284.8 2388.2 1284.9 2415.2 1285.9 2416.2 1299.1 2413.5 1301 2413.7 1305.4 2422.6 1307.7 Z" data-holc_grade="B"/>
<path d="M 2543.5 1277 2538.9 1313.2 2538.4 1317 2537.8 1317.8 2536.1 1317.3 2527.8 1314.3 2354.5 1251.7 2358.6 1209.1 2359.5 1197.9 2360.6 1188.6 2458.4 1195.2 2510.1 1199.6 2513.5 1141.3 2552 1144.2 2548.7 1197.8 2543.8 1274.1 2543.5 1277 Z" data-holc_grade="B"/>
<path d="M 1186.6 924.8 1220.4 924.9 1280.5 925.2 1344.5 923.1 1370.4 962 1313.3 964.5 1313.1 1013.9 1231.1 1016.4 1230.9 1048.2 1129.6 1049.2 1128.3 1040.1 1107.5 1040.9 1105 1019.8 1074 1021.6 1047.3 1023 1006.1 1003.8 1004 1005 1003.3 1009.4 973.3 1007.4 970.1 1006.2 966.4 1004.5 966.9 1001.1 966.9 997.9 965.7 994.6 962.5 991.3 851.5 933.1 847.5 814.7 998.9 811.6 1000.4 848.2 1000.6 880.1 1001.7 918.1 1025.1 911.4 1042.3 912 1117.5 910.8 1147.7 912.2 1163.4 917.3 1186.6 924.8 Z" data-holc_grade="B"/>
<path d="M 1344.5 923.1 1280.5 925.2 1220.4 924.9 1186.6 924.8 1183.4 899.4 1184 806.8 1215 806.5 1217.3 804.6 1206 792.2 1188.6 758.4 1185.1 751.3 1185.7 737 1177.7 726.3 1169.4 720.8 1164.8 716 1185.2 720.2 1210.9 741.5 1230.9 761.4 1252.5 791.2 1295.3 855.8 1336.4 910.3 1344.5 923.1 Z" data-holc_grade="B"/>
<path d="M 1511.8 852.6 1517.5 889.3 1523.6 885.8 1530.8 913.7 1537.4 961.1 1541.5 981.8 1553.7 978.9 1577.9 973 1584.4 975.6 1582 1024 1563.6 1025.8 1552.4 1030.7 1524 1057.4 1512.4 1067.8 1500.4 1082.1 1495.1 1070.9 1474.6 1035.6 1469.8 1027.4 1455.5 1010 1436.7 982 1428.6 966.7 1425.4 951.8 1422 893.4 1411.8 892 1382.2 896.8 1362.9 900.9 1346.8 904.2 1336.4 910.3 1295.3 855.8 1252.5 791.2 1260.8 785.5 1308 772.5 1386.7 773.7 1391.3 847.5 1471.8 845.3 1511.8 852.6 Z" data-holc_grade="B"/>
</g>
<g id="C">
<path d="M 2422.6 1307.7 2492.1 1333.1 2499.1 1318.2 2526.6 1327 2537 1330.3 2533.6 1397.2 2602.7 1402.2 2676 1405 2673.5 1445.3 2674.1 1451.1 2685.8 1459.7 2713.8 1462.3 2712.1 1476.4 2704.2 1505.4 2684.5 1561.9 2674.5 1595 2673.1 1594.9 2545.8 1585.9 2539 1663.2 2529.8 1659.2 2513.7 1656.7 2508.6 1732.8 2506.3 1765.7 2525.2 1780.8 2568.1 1823.7 2648.5 1895.5 2646.3 1932.5 2637.7 2077.3 2600.1 2075 2606.9 1959.8 2591.2 1958.7 2593.3 1926.6 2494.2 1920.8 2494.9 1910.1 2459.3 1908.6 2465.7 1827.6 2362.3 1820.9 2346.7 1831 2341.8 1862.2 2322.8 1861.6 2309.9 1860.1 2303.4 1856.7 2295.5 1850.3 2291.8 1843.6 2267.2 1798.4 2264.4 1789.5 2263.5 1778.8 2261.4 1771.5 2256.4 1762.6 2255 1761.3 2311.1 1764.5 2312.2 1756.7 2348.6 1761.1 2352.9 1716.6 2338.6 1715 2344.4 1655.2 2334 1654.8 2339.2 1590.1 2346.7 1590.2 2355.6 1491.7 2357.6 1466.6 2358.6 1450.6 2359.2 1437 2376.8 1438.3 2376.7 1429.7 2454 1433.1 2455.1 1388.3 2406.5 1355.6 2409.6 1352 2417.5 1350.6 2417.5 1336.9 2419.5 1320 2422.6 1307.7 Z M 2838.9 1165.6 2836 1216 2778.7 1208.8 2811.8 1162.9 2838.9 1165.6 Z M 2543.5 1277 2543.8 1274.1 2548.7 1197.8 2552 1144.2 2591.1 1146.3 2589.5 1192.9 2628.6 1195.2 2632.1 1149.9 2662.7 1152.3 2660.1 1190.9 2656.8 1227.8 2696.5 1230 2691 1305.1 2648.8 1303.4 2649.9 1284.2 2575.9 1278.5 2543.5 1277 Z M 2565.5 939.4 2430.3 932.7 2433.6 925.8 2439.4 914.8 2447.1 905.9 2456.6 896 2463.2 890.5 2472.4 882.8 2486.9 874.4 2500.6 859.9 2505.5 850.9 2508.2 840.4 2528.5 843.3 2582.4 843.7 2583.1 858.8 2580.3 874.2 2587.2 878 2590.3 881.7 2591.8 888.4 2592.3 900.5 2590.1 910.1 2586.3 913.3 2583.9 918.2 2581.9 930.5 2582.2 940.8 2565.5 939.4 Z M 2934.3 739.3 2932 775.2 2849.2 758 2808.2 751.2 2820.9 723.2 2871.8 724.3 2936.3 728.3 2934.3 739.3 Z" data-holc_grade="C"/>
<path d="M 1502.3 681.3 1521.3 741.5 1528.2 754.2 1541.2 769.3 1557.5 784.6 1571.1 795.7 1584.5 804.4 1601.4 817 1613.7 828.7 1620.4 841.8 1622.9 847.9 1618.4 858.3 1600.8 877.7 1597.6 878.9 1592.6 877.9 1589.7 878.1 1557.5 909.2 1541 913.2 1553.7 978.9 1541.5 981.8 1537.4 961.1 1530.8 913.7 1523.6 885.8 1517.5 889.3 1511.8 852.6 1509.8 839.8 1504.6 797.1 1491.4 789.3 1482.5 776.8 1472.2 767.2 1420.6 716.5 1386.4 650.5 1395 644.9 1359.7 576 1368.8 571.7 1398.5 630.5 1433.9 699.8 1454.1 719.4 1472.4 700.8 1484.6 692.5 1497 687.9 1502.3 681.3 Z" data-holc_grade="C"/>
<path d="M 1003.3 1009.4 1004 1005 1006.1 1003.8 1047.3 1023 1074 1021.6 1105 1019.8 1107.5 1040.9 1128.3 1040.1 1129.6 1049.2 1230.9 1048.2 1231.1 1016.4 1313.1 1013.9 1313.3 964.5 1370.4 962 1344.5 923.1 1336.4 910.3 1346.8 904.2 1362.9 900.9 1382.2 896.8 1411.8 892 1422 893.4 1425.4 951.8 1428.6 966.7 1436.7 982 1455.5 1010 1469.8 1027.4 1474.6 1035.6 1495.1 1070.9 1500.4 1082.1 1474.6 1100.7 1465.7 1091.1 1458.8 1079.4 1423.6 1034.7 1313.2 1035.9 1315.5 1117.2 1270.6 1100.7 1258.4 1099.1 1184.6 1086.2 1163.9 1084.4 1147.1 1085.3 1130.1 1083.5 1095.4 1062.2 1086.6 1057.3 1080.2 1050 1062 1041.5 1021.1 1023.4 1010.8 1016.8 1003.3 1009.4 Z" data-holc_grade="C"/>
<path d="M 1120.4 1186.3 1057.4 1186.7 1058.1 1232.8 1062 1250 1045.7 1254.3 1050.7 1272.9 1014.8 1281.1 1018.3 1293.9 1006.6 1296.4 1006.3 1307.2 928.9 1323.6 922.4 1324.9 914.6 1319.2 911.2 1316.5 890.3 1308.3 855.8 1294.6 816.7 1279.5 798.1 1263.4 785.7 1249.1 773.2 1231.9 750.6 1186.8 737.2 1152.1 724.2 1121.1 712.9 1121.5 708.3 1121.8 704.2 1073.9 772 1071.6 772.1 1032 794.6 1031.5 814.2 1029.5 816 1022.2 834.9 977.5 862.5 986.9 914.7 999.1 941.6 1007.1 968.9 1018.3 973.8 1024.7 989.2 1051.3 992.8 1061.2 1000.2 1067.1 1044.3 1101.7 1052.2 1112.5 1066.9 1129.9 1077.2 1134.3 1083.7 1139.8 1096.1 1157.6 1114 1174.6 1120.4 1186.3 Z M 698.3 1185.5 698.3 1193.3 735.7 1191.4 757.7 1238.6 768 1257.9 782.8 1274.5 791.6 1275.8 798.7 1279.1 821.8 1291.9 845.8 1302.8 869.8 1312.7 899 1323.9 909.1 1327.8 894.6 1330.8 701.4 1372.4 690.5 1374.8 688.2 1306.3 658.1 1324.2 640.8 1337 611.9 1339.6 612.4 1390.8 551.2 1407.4 550.2 1261.7 485.3 1260.4 485.2 1190.7 529.1 1191.9 541.3 1189.6 562.4 1189.6 562.1 1160.6 610.2 1161 609.8 1189.5 636.4 1189.7 658.3 1186.5 681.1 1186.8 698.3 1185.5 Z M 698.9 1264.6 700 1312.3 762.1 1315.3 761.7 1264.7 698.9 1264.6 Z" data-holc_grade="C"/>
<path d="M 1446.7 1657.1 1406.6 1657 1407.8 1621.9 1392.8 1619.4 1381.3 1620.9 1380.6 1633.7 1358.9 1632.2 1357.8 1644.8 1357.2 1680.3 1358.9 1698.5 1304.1 1699.6 1306 1665.4 1305 1637.9 1261.3 1640.8 1261.3 1629.1 1263 1623.6 1276.5 1610.4 1288.9 1594 1304.1 1575.3 1346.6 1574.9 1345.1 1532.9 1408.9 1532.2 1432.9 1531.9 1511.2 1531 1492.8 1565 1445.8 1655.9 1446.7 1657.1 Z" data-holc_grade="C"/>
<path d="M 687.7 511.3 687.7 646.3 604 647.1 603.6 703 503.1 704.8 501.9 646.1 467.2 648.3 464.8 642.5 454.7 632.1 443.4 621.4 437.2 612.2 435.4 601.2 467 596 527.1 597.9 550.1 595.5 549.8 544.8 548.9 511.2 687.7 511.3 Z M 993.8 580.4 980.3 575.8 963 564.2 919.6 535 908.6 527.6 910.7 579.2 900.7 580.9 901.5 620.4 840.7 622.8 840.6 548.8 844.8 545.8 845.4 541.6 861.9 528.2 861.9 521.1 863.8 515.4 866.7 511.2 869.3 510.3 887.7 507.4 910.9 507.4 937.8 507.3 992.5 507.1 993.8 580.4 Z M 2289.4 429.7 2274.7 457.9 2147.3 448.3 2170 420 2289.4 429.7 Z M 2552.2 468.1 2439.3 554.5 2439.6 521.5 2401.7 520.8 2407.2 437.2 2385.9 436.5 2390.7 369.9 2542.6 380.8 2590.9 441.3 2587.3 443.5 2552.2 468.1 Z M 2416.8 309.5 2400 331.7 2351.8 327.2 2354.7 303.4 2416.8 309.5 Z M 2310.5 308.8 2309.6 321.4 2259 318.7 2286.1 286.6 2312.8 289.4 2310.5 308.8 Z M 1429.2 297.5 1412.9 276.9 1403 265.2 1398.2 251.7 1398.7 188.1 1456.1 187.9 1457.3 204 1455.4 218.1 1452.1 234.3 1448.2 255.3 1443.1 280.5 1438.7 287.2 1429.2 297.5 Z M 534.2 117.4 655.5 219.8 664 232.8 671.8 250.7 565.4 252 565.2 262.5 507.9 263.4 505 206.2 452.1 206.6 449.8 154.6 499.5 154 499.3 102 502.3 94 534.2 117.4 Z M 2631.5 80.4 2623.1 182.8 2568.2 178 2562.7 249.2 2608 251.2 2599.1 371 2543.7 368 2554.7 253.1 2464.8 250.2 2484.3 221.8 2501.3 199.1 2599.6 76.3 2631.5 80.4 Z M 1664.9 186.1 1659.2 237.4 1757.1 235.8 1755.9 273.4 1690.2 275.9 1688.8 260.1 1637.5 259.6 1618.9 199.2 1616.9 180.4 1568.8 180.2 1566.1 162.6 1613.2 161.4 1597.8 85.2 1737.3 80.6 1739.6 40.5 1888 38.4 1889.9 181.8 1664.9 186.1 Z" data-holc_grade="C"/>
<path d="M 2384.8 2374.3 2423 2376.4 2425.3 2386.9 2425.1 2400.9 2468.3 2404.3 2467.7 2416.5 2466.1 2451.3 2462 2485.5 2378.4 2481 2384.8 2374.3 Z" data-holc_grade="C"/>
<path d="M 2646.3 1932.5 2648.5 1895.5 2568.1 1823.7 2525.2 1780.8 2506.3 1765.7 2508.6 1732.8 2596.1 1739.9 2661.4 1743.3 2657.8 1812.2 2775.1 1820.6 2769.3 1928.1 2679 1920.4 2677.4 1934.4 2646.3 1932.5 Z" data-holc_grade="C"/>
<path d="M 2388.2 1284.9 2384.5 1284.8 2356.2 1311.9 2338.9 1295.7 2279.7 1297.4 2278.4 1314.4 2200.7 1311.6 2149.8 1313.8 2149.1 1304.5 2151.9 1254.9 2156.9 1197.2 2213.6 1216.5 2249.8 1229.3 2281.4 1239.1 2335.6 1293.1 2364.7 1266.4 2388.2 1272 2388.2 1284.9 Z" data-holc_grade="C"/>
<path d="M 2422.8 932.3 2406.8 1095.1 2424.2 1096.8 2421.4 1133.9 2461.1 1137.4 2458.4 1195.2 2360.6 1188.6 2359.5 1197.9 2235.1 1187.7 2235 1192.2 2232.2 1193.7 2214 1175.7 2096.3 1160.8 2068 1044.9 2076.3 1045.4 2069.8 1018.6 2091.5 1013.7 2174.5 995.2 2180.4 1021.3 2161.3 1033.6 2109 1066.9 2105.4 1071.2 2140.8 1065 2159.8 1058.2 2159.3 1048.7 2177 1040.7 2198 1030.5 2212.8 1022.3 2234.1 1006.1 2258.4 991.3 2289.2 968 2302.8 958.9 2315 958 2328.7 955.6 2335.8 953.4 2337.3 953 2347.3 952.9 2355.6 951.3 2362.5 950.2 2381.8 949.5 2401.6 947.4 2411.5 940.8 2419.3 932.5 2422.8 932.3 Z M 2155.5 1579.8 2155.2 1599.3 2130.3 1598.2 2113.8 1596.8 2106.4 1595.5 2094.9 1596.2 2093.8 1623.9 2053.7 1623.2 2056 1582.4 2056.5 1569.8 2061.1 1568.2 2061.1 1528.4 2024.5 1526.5 2025.6 1483.2 2010 1462.4 2023.8 1450.7 2015.7 1442.2 2006.3 1431.9 1997.8 1422.5 1989.7 1428.7 1982.4 1434 1974.8 1434.4 1974.1 1447 1943 1448.7 1937.7 1439.5 1911.3 1450 1911.1 1459.4 1917.7 1459.9 1916.3 1478.2 1902.8 1479.4 1902.8 1488.3 1892.2 1487.4 1889.9 1517.4 1873.8 1516 1871.7 1536.9 1915.2 1540.1 1915 1562.3 1876.6 1559.8 1886.7 1611.4 1887.6 1625.8 1899.6 1624.5 1913.6 1624.7 1922.6 1625.8 1942.1 1629.3 1954.3 1635 1961.9 1641.6 1971.4 1645.5 1984.9 1654.9 1990.2 1661.2 1992.8 1664.3 1993.2 1666.3 2000.9 1679.2 1996.5 1681.5 1874.5 1705.4 1858.5 1630.4 1842.5 1632.7 1816.5 1633.4 1784.6 1631.1 1776.7 1583.7 1759.5 1515.4 1757.7 1506.2 1754.5 1489.7 1744.6 1438.4 1823.7 1422.7 1821.5 1393.3 1836.1 1358.4 1839.2 1354.2 1893.1 1311.4 1908.9 1296.6 1923.8 1316.7 1956.1 1351.4 1979 1383.4 2011.3 1420.5 2036.8 1452 2061.9 1484 2088.5 1516 2141.4 1565.1 2155.5 1579.8 Z" data-holc_grade="C"/>
<path d="M 2149.8 1313.8 2151.3 1334.8 2151.6 1337.6 2153.5 1368.1 2157.3 1379.9 2156.2 1401.8 2155.1 1422.1 2137.8 1420.2 2136.5 1456.3 2134.2 1490.4 2131.7 1533.4 2151.3 1535.1 2150.7 1549.4 2156.4 1553.7 2156.5 1561.6 2159.8 1561.9 2159.2 1577.6 2155.5 1579.8 2141.4 1565.1 2088.5 1516 2061.9 1484 2036.8 1452 2011.3 1420.5 1979 1383.4 1956.1 1351.4 1923.8 1316.7 1908.9 1296.6 1898.8 1281.7 1933 1231.5 1946.8 1192.7 1948.3 1185.7 1977.3 1178.8 1976.9 1176.1 1968.9 1122.6 1966.4 1107.2 1981.6 1119.7 1991 1120.4 2020.2 1133.2 2044.6 1142.4 2063.2 1149.2 2093.5 1162.2 2097 1163.7 2129.3 1183.5 2156.9 1197.2 2151.9 1254.9 2149.1 1304.5 2149.8 1313.8 Z" data-holc_grade="C"/>
<path d="M 2068 1044.9 2096.3 1160.8 2097 1163.7 2093.5 1162.2 2063.2 1149.2 2044.6 1142.4 2020.2 1133.2 1991 1120.4 1981.6 1119.7 1966.4 1107.2 1964.1 1105.2 1991.1 1096.5 1984.6 1068.4 1991.1 1064.2 2065.3 1047.3 2067.4 1042.7 2068 1044.9 Z" data-holc_grade="C"/>
<path d="M 1704.5 2258.6 1667.3 2251.3 1644.6 2244.6 1564.9 2225.9 1536.3 2225.5 1557.2 2151.7 1644.4 2156.5 1645.1 2165 1699.6 2169.6 1696.2 2178.3 1696.4 2188.4 1698.5 2196.8 1701.2 2203 1706.3 2210.1 1707.2 2217.5 1705.8 2237.6 1704.9 2249.3 1704.5 2258.6 Z" data-holc_grade="C"/>
<path d="M 2164.2 2303.6 2165.9 2276.7 2209.1 2278.6 2215 2158.5 2276.8 2161.5 2286.3 2156.9 2292.1 2152.7 2318.5 2188.7 2328.6 2204.3 2345.8 2222.3 2364.9 2249.2 2366.7 2268.5 2364 2293.8 2363.7 2326.6 2162.7 2323.9 2164.2 2303.6 Z" data-holc_grade="C"/>
<path d="M 1975.3 677.2 2018.1 678.5 2041 680.2 2077.5 683 2092.7 684.6 2113.2 686.8 2114.5 697.1 2125.4 698 2134.3 698.6 2153.8 708.9 2170.3 716.6 2175.3 720.1 2166.8 727.5 2170.9 749.5 2133.4 765.3 2124 771.7 2123.4 781.2 2109.2 797.5 2102.5 796.7 2084.6 781.4 2081.4 778.6 2073.2 776.7 2067.5 775.7 2054.6 773.5 2031.5 772.4 1971 769.5 1970.7 761.9 1923.1 759.6 1924.7 727.5 1837.5 720.9 1840.3 671.4 1888.9 675.2 1974.2 682.1 1975.3 677.2 Z" data-holc_grade="C"/>
</g>
<g id="D">
<path d="M 2619.1 2388.4 2612.7 2417.7 2539.7 2413.3 2500.6 2407.7 2492.8 2328.2 2410 2326.8 2405.4 2310.1 2394.6 2281.7 2381.2 2258.3 2372.7 2245.7 2372.7 2198 2377 2139.8 2479.2 2146.8 2474.6 2215.4 2495 2325 2495.2 2329.1 2623.4 2337.2 2619.1 2388.4 Z M 2554 2518.7 2657.7 2634.6 2617.7 2654.6 2452.6 2644.4 2453.3 2598.3 2460.1 2520.6 2499.7 2523.1 2541.4 2529.4 2554 2518.7 Z" data-holc_grade="D"/>
<path d="M 1306.4 1241.4 1305.2 1235.7 1289.7 1221.9 1276.3 1176.4 1257.1 1180.6 1242.1 1154.3 1280.1 1147.8 1292.4 1148.6 1316.9 1153.1 1343 1157.3 1372.1 1164.2 1371.8 1166.4 1362.1 1229.1 1306.4 1241.4 Z M 1286 1245.9 1006.3 1307.2 1006.6 1296.4 1018.3 1293.9 1014.8 1281.1 1050.7 1272.9 1045.7 1254.3 1062 1250 1058.1 1232.8 1057.4 1186.7 1120.4 1186.3 1171.6 1184.8 1173.5 1196.6 1189.2 1194 1188.9 1202.8 1251.3 1190.2 1256.7 1210.4 1268.6 1209.3 1271.6 1224.5 1286 1245.9 Z" data-holc_grade="D"/>
<path d="M 917.1 1744.1 921.4 1845.5 841 1845.2 836.1 1833.6 823.5 1816.2 834.3 1799.7 822.6 1789.6 815.9 1780.1 814 1757.2 813.7 1745.6 917.1 1744.1 Z M 674.7 1782.5 621.7 1783.1 620.8 1758.6 676.3 1740.3 674.7 1782.5 Z M 1528.6 1727.8 1473.8 1730.5 1471.7 1692.9 1516.4 1690.4 1516.2 1666.5 1576.6 1663.8 1577.7 1604 1633.7 1603.7 1631.9 1616.5 1606.5 1658.1 1580 1691.8 1555.8 1710.7 1528.6 1727.8 Z M 1345.1 1532.9 1338.1 1533 1347.8 1518.1 1353.6 1507.8 1363.3 1493.5 1371.9 1483.7 1417.1 1483.6 1419.8 1483.9 1412.4 1507.2 1411.4 1512.8 1410.1 1522.7 1408.9 1532.2 1345.1 1532.9 Z M 701.4 1372.4 894.6 1330.8 909.1 1327.8 911.8 1327.2 911.9 1381.5 851.4 1381.7 850.3 1407.4 836.5 1413.1 819.4 1422.2 803.3 1430.9 910.3 1432.1 911.3 1395.5 965.1 1384.1 965.1 1373.1 993.7 1364.7 991.5 1389.7 1029.1 1382.3 1031.2 1394.8 1049.6 1388 1051.5 1399.3 1078.2 1398.6 1092.1 1403.1 1091.9 1484.8 1133.4 1465.3 1188.7 1463.7 1187.6 1466.9 1119.6 1501.7 1119.8 1585.9 1091.7 1586.6 1091.7 1627.6 1091.1 1648.5 1053.2 1649.6 1036.8 1605.7 965.5 1605.1 965.3 1662.1 1007.9 1661.1 1009.6 1697.4 914.4 1695.2 914.1 1685.1 820.7 1684.2 811.3 1649.5 807.2 1643.1 749.7 1671 704.7 1691.3 705.8 1684.8 705.5 1670.1 703.8 1636.3 702 1621.5 701.6 1565.1 709.4 1562.3 728.6 1569.3 747.4 1554.3 753.2 1560.7 762.5 1563.2 801.6 1563.4 801.7 1581.2 805.2 1607.2 809.8 1641.3 866 1613.7 866.4 1580.8 818.3 1581.9 820.1 1539.1 818.9 1503.5 862.8 1503.1 863.4 1471.9 868 1464.4 871.2 1456.5 844.9 1468.2 804.9 1484.1 787.6 1493.1 763.3 1496.1 746.8 1505.1 721.8 1499.9 701.7 1503.5 701.4 1372.4 Z M 1446.7 1657.1 1445.8 1655.9 1492.8 1565 1511.2 1531 1432.9 1531.9 1433.1 1519.3 1434.3 1500.3 1437.4 1486.3 1436.7 1482.5 1444.2 1482.5 1444.3 1479.1 1443.7 1450 1444.1 1417 1445.8 1403 1461.7 1403.7 1462.1 1367.6 1501.5 1366.8 1502.3 1325.2 1534.5 1310.2 1544.6 1323.8 1561.5 1350.3 1569.7 1355.1 1586.8 1381.5 1597.2 1402.8 1572.1 1404.4 1575.2 1479.8 1585.5 1480.7 1586.1 1501.6 1572.3 1501.6 1566.9 1510.3 1560.6 1521 1585.2 1520.5 1586.7 1540.7 1640.6 1540.7 1640 1555.4 1636.4 1583.5 1635.3 1591.1 1606.4 1589.2 1501.9 1588.9 1479.4 1624 1466.8 1641.8 1458.8 1658.1 1446.7 1657.1 Z M 928.9 1323.6 1006.3 1307.2 1286 1245.9 1298.7 1260.3 1324.6 1295.2 1335.2 1303.4 1359.1 1322.7 1381.8 1335.8 1401.3 1341.3 1425.5 1344.5 1426.4 1385.7 1421.1 1390.3 1416.8 1400.3 1407.9 1412.9 1388.7 1434.6 1374 1443.3 1316.3 1444.7 1316.3 1435.5 1272.9 1437.5 1273.7 1498.9 1297.6 1497.9 1302.8 1496.8 1303 1492.5 1318.2 1490.8 1319.4 1458.9 1335.2 1459.1 1336.3 1512 1319.9 1512.2 1319.5 1521.2 1303.4 1522 1303.9 1553.8 1295.7 1564.3 1250.4 1622.2 1232.2 1641.9 1231.6 1633.5 1199.8 1633.7 1200 1618.2 1159 1618.6 1157.7 1566.4 1197 1564.7 1196.4 1467.1 1196.9 1461.3 1203.8 1458.6 1216.5 1451.9 1230 1441.2 1123.5 1437.7 1125.2 1402.9 1110.7 1399.7 1101.7 1395.1 1093.2 1393.2 1062.4 1378.6 1046.3 1375.8 1047 1353.1 1042.6 1352.9 1022.1 1358.9 1009.2 1360.7 997 1357.7 980.5 1348.1 944.8 1333.6 928.9 1323.6 Z M 1306.4 1241.4 1362.1 1229.1 1371.8 1166.4 1425.9 1182.9 1444.2 1191.1 1462.4 1211.4 1468.5 1237.5 1477.9 1241 1481.9 1256.4 1484.8 1259.9 1490.5 1259.5 1493.2 1270.4 1504 1270.2 1511.4 1280.1 1523.1 1301.3 1528.6 1305 1496.5 1320.5 1457.9 1334.9 1451 1334.7 1438.4 1330.7 1426.4 1330.3 1410.3 1330.7 1397.4 1326.7 1383.2 1321.4 1367.4 1311.8 1349.8 1297.7 1332.5 1279.3 1322.7 1267.8 1313.2 1255 1306.4 1241.4 Z" data-holc_grade="D"/>
<path d="M 1613.2 1157.8 1609.2 1199.6 1606.4 1256.2 1602.9 1266.5 1593.7 1268 1577.6 1272 1566.3 1277.9 1553.3 1270.5 1527.6 1243.2 1519.5 1230.4 1519.1 1224.1 1515.9 1197.5 1503.8 1200.2 1497.9 1168.5 1500.7 1159.4 1507.8 1139.1 1521.4 1136.1 1528.3 1130.7 1536.6 1117.6 1544.6 1104.6 1551.9 1101.1 1565.7 1100.9 1605.2 1115.6 1608.3 1137.6 1613.2 1157.8 Z" data-holc_grade="D"/>
<path d="M 1744.6 1438.4 1709.9 1445.2 1685.5 1399.7 1684.6 1399.3 1661.1 1403.8 1606.6 1293.2 1625.4 1282.4 1647 1279.6 1662.7 1276.9 1701.3 1264.5 1742.3 1242.7 1763.9 1226.3 1779.7 1209.5 1789.6 1199 1812.6 1183.6 1821.6 1177.9 1831.3 1173.1 1846.7 1169.2 1846.7 1162.5 1861.8 1158.9 1865.7 1155.7 1863.9 1145.6 1870.1 1141.7 1877.2 1141 1910.1 1131.6 1968.9 1122.6 1976.9 1176.1 1977.3 1178.8 1948.3 1185.7 1946.8 1192.7 1933 1231.5 1898.8 1281.7 1908.9 1296.6 1893.1 1311.4 1839.2 1354.2 1836.1 1358.4 1821.5 1393.3 1823.7 1422.7 1744.6 1438.4 Z M 2067.4 1042.7 2065.3 1047.3 1991.1 1064.2 1984.6 1068.4 1991.1 1096.5 1964.1 1105.2 1957.7 1106.4 1881.1 1120.9 1882.3 1118.8 1904.8 1094.5 1931.5 1068.6 1940.2 1061.7 1957.3 1049.1 1957.7 1053.9 2038.7 1034 2040.7 1045 2060.1 1040.6 2067.4 1042.7 Z" data-holc_grade="D"/>
<path d="M 328.8 1429.5 328 1429.5 329 1429.5 328.8 1429.5 399.5 1428.6 392.7 1261.3 457.7 1260.8 456.2 1180 390.7 1180.9 390.6 1119.1 698.5 1118.7 698.5 1121.1 698.5 1121.3 698.3 1185.5 681.1 1186.8 658.3 1186.5 636.4 1189.7 609.8 1189.5 610.2 1161 562.1 1160.6 562.4 1189.6 541.3 1189.6 529.1 1191.9 485.2 1190.7 485.3 1260.4 550.2 1261.7 551.2 1407.4 451.8 1428.2 452.7 1477 456.1 1510.7 305.2 1513.6 304.1 1431.6 230.1 1431.5 2.5 1436.3 1 1375.4 68.6 1375.9 68.2 1347 226.7 1344.9 227.1 1353.1 243.9 1353.8 302.6 1353 304.1 1427.7 328.8 1429.5 Z" data-holc_grade="D"/>
<path d="M 2539 1663.2 2545.8 1585.9 2673.1 1594.9 2671 1606.1 2667.6 1623.7 2621.6 1620.7 2620.8 1612.9 2607.4 1618.3 2606.2 1654.6 2608.8 1669.7 2549.7 1665.7 2539 1663.2 Z M 2997.4 1384.9 2990.2 1461.5 2945.8 1456.8 2905.7 1457.8 2834.2 1432.1 2839.1 1354.7 2842 1318.4 2999 1329.8 2997.4 1384.9 Z" data-holc_grade="D"/>
<path d="M 2359.5 1197.9 2358.6 1209.1 2238.2 1199.9 2235 1192.2 2235.1 1187.7 2359.5 1197.9 Z M 2364.7 1266.4 2335.6 1293.1 2281.4 1239.1 2278.5 1236.5 2281.4 1236.7 2287.6 1236.6 2353.2 1260.7 2364.7 1266.4 Z" data-holc_grade="D"/>
<path d="M 2463.2 890.5 2456.6 896 2447.1 905.9 2439.4 914.8 2433.6 925.8 2430.3 932.7 2422.8 932.3 2416.9 926.7 2405.9 919.7 2397.7 911 2392.4 910.7 2335.8 953.4 2328.7 955.6 2315 958 2302.8 958.9 2289.2 968 2258.4 991.3 2234.1 1006.1 2212.8 1022.3 2198 1030.5 2177 1040.7 2159.3 1048.7 2159.8 1058.2 2140.8 1065 2105.4 1071.2 2109 1066.9 2161.3 1033.6 2180.4 1021.3 2174.5 995.2 2165.6 952.5 2220.4 926.3 2234.4 983.2 2255.5 977.9 2324.3 929.7 2314.7 890 2329.9 877 2354.7 860.2 2361 886.7 2362.9 895.2 2382.5 881.7 2373.5 843.2 2391.6 831.8 2421.8 815.6 2421.9 836.9 2413.2 841.2 2414 858 2421.1 853.2 2420.9 848.3 2459.6 818.5 2467.9 821.6 2485 840.6 2482.9 847.5 2479.3 852.8 2463.3 865.5 2459.6 874.3 2463.2 890.5 Z" data-holc_grade="D"/>
<path d="M 2547.3 767.4 2579.8 752.7 2638.7 733.4 2649.9 731.3 2663.9 727.1 2679.2 723.4 2686.5 723.4 2691.3 728.6 2697.1 744.6 2699.2 757 2698.6 770 2700.9 780.5 2705.3 796.3 2708.8 804.3 2715.5 813.1 2725.7 823.4 2722.1 867.7 2651.2 866 2614 826.3 2590.2 799.8 2561 777.3 2547.3 767.4 Z" data-holc_grade="D"/>
<path d="M 2552.2 468.1 2587.3 443.5 2590.9 441.3 2594.2 448.6 2595.1 459.7 2596.1 469.6 2598.8 482.6 2596.1 525.1 2591.9 529.5 2584.3 530.5 2558.6 527.1 2550.9 518.5 2538.1 500.9 2553.8 486.6 2552.2 468.1 Z" data-holc_grade="D"/>
<path d="M 1840.3 671.4 1837.5 720.9 1924.7 727.5 1923.1 759.6 1970.7 761.9 1971 769.5 2031.5 772.4 2054.6 773.5 2067.5 775.7 2073.2 776.7 2081.4 778.6 2084.6 781.4 2102.5 796.7 2100.9 798.3 2069.8 833.7 2055.3 848.4 2046.1 855.1 2057.2 867.3 2015.6 903.2 2006.7 893.7 1962.7 934.3 1929.2 957.9 1903.2 923.7 1893.8 923.8 1882.7 921.4 1880.8 944 1856.9 942.4 1843.6 941.6 1819.1 938.8 1802.3 937.6 1795.7 935.5 1789.2 928.2 1785.6 922.2 1780.3 917.2 1771.3 913 1747.8 903.5 1700.5 857.3 1668.1 818.7 1655.3 801.4 1684.6 801.7 1733.3 806.9 1746.2 809.1 1743.5 863.8 1777.1 867.1 1783.2 752.2 1765.8 724.9 1740 689.9 1735.2 668.5 1737.1 667.7 1781.8 669.8 1783.3 643.5 1792.8 638.9 1801.1 631.3 1806.9 624.3 1844.7 627.9 1840.4 669.8 1840.3 671.4 Z M 2175.3 720.1 2170.3 716.6 2153.8 708.9 2134.3 698.6 2125.4 698 2114.5 697.1 2113.2 686.8 2092.7 684.6 2077.5 683 2041 680.2 2018.1 678.5 1975.3 677.2 1976.8 656.9 1978.4 652.8 1988.3 642.4 2014.7 642.4 2107.4 649.1 2110.7 639.2 2137.6 642.7 2177.6 650.5 2204.4 604.9 2240.3 617.4 2260.3 660.3 2261.2 667.7 2264.6 671.5 2273.5 671.3 2281.1 676 2281.7 690.2 2318.5 691 2319.9 722.3 2281.4 721.4 2279.8 741.4 2239.8 740.3 2182.4 750 2176.3 720.8 2175.3 720.1 Z" data-holc_grade="D"/>
<path d="M 1582 1024 1584.4 975.6 1577.9 973 1553.7 978.9 1541 913.2 1557.5 909.2 1589.7 878.1 1592.6 877.9 1597.6 878.9 1600.8 877.7 1618.4 858.3 1622.9 847.9 1645.5 862.8 1657.7 872.9 1665.5 880.5 1697.7 906.1 1707.2 916.8 1711.4 941.8 1714.5 978.4 1711.2 1006.3 1708.7 1013.8 1703.4 1020.6 1690.7 1026 1659.5 1031.3 1642.6 1028.3 1615.4 1024.7 1582 1024 Z" data-holc_grade="D"/>
<path d="M 1474.6 1100.7 1466.7 1111.6 1462.7 1120.8 1455 1139.4 1449 1158.3 1447.5 1168.3 1429.9 1167.3 1419.1 1163.4 1401.3 1158.4 1364.4 1146.9 1343.9 1141 1321.7 1136.7 1301 1132 1281 1132.5 1254.7 1135.1 1243.3 1137.4 1237.4 1138 1238.1 1132.5 1230.2 1131.3 1229.6 1112.6 1220.5 1112.4 1208 1112.2 1191.5 1112.6 1182.4 1111.2 1175.5 1108.7 1170.4 1105.8 1165.8 1101.6 1162 1097.7 1159.2 1095.6 1150 1093.6 1130.1 1083.5 1147.1 1085.3 1163.9 1084.4 1184.6 1086.2 1258.4 1099.1 1270.6 1100.7 1315.5 1117.2 1313.2 1035.9 1423.6 1034.7 1458.8 1079.4 1465.7 1091.1 1474.6 1100.7 Z" data-holc_grade="D"/>
</g>
</svg>