<?xml version="1.0"?>
<svg xmlns="http://www.w3.org/2000/svg" version="1.2" baseProfile="tiny" width="3000" height="2086" viewBox="0 0 3000 2086" stroke-linecap="round" stroke-linejoin="round">
<g id="A">
<path d="M 573.5 1348.5 501 1348.7 505 1616.7 286.6 1620.2 286.3 1538.6 189.2 1541.4 2.6 1546.6 1 1401 84 1399.7 82.6 1310.9 30.5 1296.5 30.2 1259 112.5 1264 120.4 1262.2 144.8 1236.5 176.8 1236.1 177.2 1213.6 202.7 1212.2 202 1186 280.7 1184.3 282.8 1254.4 569.2 1248.5 573.5 1348.5 Z" data-holc_grade="A"/>
<path d="M 856.4 1619.1 855.3 1521.2 1054.2 1520.3 1056.5 1710.8 999 1712.5 996.7 1670.1 951.3 1670.7 950.1 1614.6 942.1 1622.6 900.7 1623.7 900.1 1618 856.4 1619.1 Z" data-holc_grade="A"/>
</g>
<g id="B">
<path d="M 1391.1 376.4 1395.9 520.5 1257.6 523.2 1254.1 378.3 1164.3 380.9 1163.4 317.4 1207 315.7 1255.9 313.9 1254.5 196.6 1385 194.9 1391.1 376.4 Z" data-holc_grade="B"/>
<path d="M 824.9 576.8 981.5 573.2 985.8 733.5 943.4 732.8 942.7 794.4 829.9 793.6 824.9 576.8 Z" data-holc_grade="B"/>
<path d="M 672.8 1030 669.6 863 776 861.6 778.8 1032.7 672.8 1030 Z" data-holc_grade="B"/>
<path d="M 571.2 1614.4 505 1616.7 501 1348.7 573.5 1348.5 698.4 1348.2 670.2 1387.1 573 1388.3 571.2 1614.4 Z" data-holc_grade="B"/>
<path d="M 1088.2 1465 1088.7 1520.1 1054.2 1520.3 855.3 1521.2 856.4 1619.1 816.7 1619.7 817.3 1606 835.2 1603.1 830 1463.9 714.4 1469.6 711.9 1346.5 708.8 1194.7 919.1 1192.5 922 1258 988.1 1257.3 995.6 1383 989.5 1386.2 992.7 1466 1088.2 1465 Z" data-holc_grade="B"/>
<path d="M 2127.1 1634.8 2059.8 1635.6 1835.1 1648.1 1836 1673.9 1697.5 1679.1 1695.8 1651.1 1556.9 1656.3 1555.9 1580.4 1692.7 1575.3 1689.6 1455.9 1628.4 1456.7 1628 1443 1552.5 1447.3 1550.3 1371.2 1889.7 1357.9 1888.8 1270.7 2187.6 1254.8 2265.7 1327.3 2266.2 1503.9 2215.7 1506.4 2123.9 1521.1 2127.1 1634.8 Z" data-holc_grade="B"/>
<path d="M 1851.1 1997.6 1856 2077.8 1799.1 2084.7 1772.4 2076.9 1732.3 2061.9 1715.9 2042.6 1703.8 2011.7 1671 1979.9 1664.5 1934.3 1717.1 1932.2 1844.8 1930.8 1851.1 1997.6 Z" data-holc_grade="B"/>
<path d="M 2706 1897.5 2739.2 1897.3 2797 1896.6 2902.9 1892.3 2941.5 1919.7 2999 1951.9 2997.3 2043.2 2707 2042.5 2706 1897.5 Z" data-holc_grade="B"/>
<path d="M 2571.4 1474.4 2563.8 1466.2 2567.1 1429.7 2555.9 1413.2 2555.2 1395.7 2551.2 1395 2546.9 1327.7 2551.9 1266.8 2593.3 1266.1 2593 1275.6 2598.4 1286.2 2618.6 1297.1 2633.5 1307.7 2640.4 1319.1 2646.7 1336.6 2660.3 1336.8 2679 1374.3 2631.8 1424.5 2571.4 1474.4 Z" data-holc_grade="B"/>
</g>
<g id="C">
<path d="M 491.1 676.5 491.7 827.6 422.7 829.9 423.8 971.3 213.4 976.4 210.5 910 215.1 901.9 280.7 899.1 279 835 260.6 835 260 802.3 141 807.4 138.7 762.8 261.8 761.1 260.1 683.8 491.1 676.5 Z M 672.8 1030 778.8 1032.7 776 861.6 669.6 863 672.8 1030 569.9 1028.8 568.9 818.2 706.9 816.1 706.2 763.9 566.8 766 567.5 670.1 708.3 668.7 706.2 464 825.4 462 860.7 461.4 885 465.9 985.5 463.2 982.9 341.6 1115.8 338 1115.1 323.5 1114.9 317.9 1163.4 317.4 1164.3 380.9 1254.1 378.3 1257.6 523.2 1395.9 520.5 1404 930.2 1264.8 930.2 1265.5 1054.1 1078.6 1055.8 1076.9 955 843.5 955.6 850.4 1070.7 673.4 1069.5 672.8 1030 Z M 824.9 576.8 829.9 793.6 942.7 794.4 943.4 732.8 985.8 733.5 981.5 573.2 824.9 576.8 Z M 1254.5 196.6 1255.9 313.9 1207 315.7 1205.9 241.9 1111.7 244.3 1105 93.8 1253.2 91.2 1254.5 196.6 Z" data-holc_grade="C"/>
<path d="M 1177.1 1165 1181 1402.8 1132.2 1402.7 1132.1 1464.6 1088.2 1465 992.7 1466 989.5 1386.2 995.6 1383 988.1 1257.3 922 1258 919.1 1192.5 708.8 1194.7 638.5 1195.4 638.1 1177.8 500.5 1176.9 496.7 1106 569.3 1105.7 710.1 1105.2 711.4 1132.3 778.2 1131.9 778.7 1172.7 1177.1 1165 Z" data-holc_grade="C"/>
<path d="M 2179.8 663.4 2181.2 718.2 2254.5 716 2256 774 2110.8 782.2 2113 868.1 1964.6 871.4 1961 747.9 1967.1 744.3 2101.8 739.3 2101.8 667.4 2179.8 663.4 Z M 1815.9 506.4 1814.1 630.2 1954.9 623 1957.1 745.4 1903.2 746.8 1906.1 786.9 1876.6 789.8 1875.9 852 1901 851.3 1900.3 872.3 1821.1 874.2 1823.7 916.3 1731 918 1731.9 938.2 1680.6 939.5 1680.2 919.3 1632.3 921.5 1629.5 512.9 1677.9 511.2 1716.8 509.8 1815.9 506.4 Z M 2396.2 467 2395.8 656.3 2347.1 658.9 2249.3 666.2 2245.3 481.6 2396.2 467 Z" data-holc_grade="C"/>
<path d="M 2732.9 1369.3 2724.3 1373.6 2709.9 1372.2 2702.7 1361.8 2735.7 1333.5 2782.1 1304.8 2807.2 1284.8 2829.8 1254 2839.2 1227.9 2838.1 1200.3 2939.4 1197.7 2921.8 1228.2 2913.2 1246.1 2892.7 1265.1 2879.8 1290.5 2865.4 1307.3 2845.7 1322.7 2829.9 1330.2 2793.9 1337.4 2764.8 1348.5 2732.9 1369.3 Z M 2261.3 1144.4 2260.3 1208.2 2407.6 1203.1 2407.4 1194.6 2442.3 1190.3 2498 1187 2528.9 1178.4 2552.2 1164.5 2551.9 1266.8 2546.9 1327.7 2551.2 1395 2555.2 1395.7 2555.9 1413.2 2567.1 1429.7 2563.8 1466.2 2571.4 1474.4 2515 1533.5 2492.2 1546 2410.4 1473.6 2406.9 1321.2 2351.6 1323.4 2353.1 1402.2 2265.7 1327.3 2187.6 1254.8 1888.8 1270.7 1889.7 1357.9 1550.3 1371.2 1552.5 1447.3 1555.9 1580.4 1556.9 1656.3 1415.4 1660.2 1411.7 1388.6 1427.2 1359 1474.2 1357.7 1485.4 1352.5 1513.9 1349.9 1513.9 1326.3 1510 1240.7 1479.5 1241.9 1506.5 1186.9 1523.2 1175.5 1884.5 1163.2 1964.1 1160.5 1965.3 1179.4 2049.8 1172.5 2115.9 1238.9 2161.9 1234.9 2117.1 1194.3 2117.6 1151.3 2261.3 1144.4 Z" data-holc_grade="C"/>
<path d="M 2127.1 1634.8 2124.5 1725 2104.2 1746.4 2073.6 1784.3 2061.1 1813.9 2057.1 1844.9 2055.5 1862.3 2041.5 1897.4 2033.2 1905.1 1994.4 1915.5 1982 1931.1 1985.6 1985.5 1851.1 1997.6 1844.8 1930.8 1717.1 1932.2 1664.5 1934.3 1645.8 1940.7 1524.2 1944.1 1526.3 1804.8 1526.3 1800.2 1559.1 1798.5 1556.9 1656.3 1695.8 1651.1 1697.5 1679.1 1836 1673.9 1835.1 1648.1 2059.8 1635.6 2127.1 1634.8 Z" data-holc_grade="C"/>
<path d="M 816.7 1619.7 809.3 1621.4 809.3 1656.9 719.6 1664.3 719.6 1678.1 570.6 1678.6 571.2 1614.4 573 1388.3 670.2 1387.1 698.4 1348.2 711.9 1346.5 714.4 1469.6 830 1463.9 835.2 1603.1 817.3 1606 816.7 1619.7 Z M 811.5 1593.1 809.8 1484.9 713.2 1488.3 717.8 1594.8 811.5 1593.1 Z" data-holc_grade="C"/>
</g>
<g id="D">
<path d="M 1115.1 323.5 1115.8 338 982.9 341.6 985.5 463.2 885 465.9 860.7 461.4 825.4 462 823.9 381.7 934.6 381 932.5 240 992.4 241.5 986.7 326.6 1115.1 323.5 Z" data-holc_grade="D"/>
<path d="M 1815.9 506.4 1716.8 509.8 1714.5 440 1806.3 318.9 1815.9 506.4 Z M 1677.9 511.2 1629.5 512.9 1632.3 921.5 1680.2 919.3 1680.6 939.5 1731.9 938.2 1731 918 1823.7 916.3 1821.1 874.2 1900.3 872.3 1907.8 872.1 1909.5 923.6 1905.2 940.4 1906.1 980.3 1878.1 981.2 1877.2 998.3 1855.6 1004.4 1822.4 1004.8 1823.3 1035.7 1775 1049 1774.2 1007.4 1684.5 1011.2 1682.3 1009.1 1407.5 1018 1410 1093.6 1307.6 1096.5 1266.6 1095.9 1265.5 1054.1 1264.8 930.2 1404 930.2 1395.9 520.5 1530.6 517.3 1523.4 312.6 1467.4 316.9 1468.8 374.9 1391.1 376.4 1385 194.9 1383 5.7 1514.5 1 1522.3 227.7 1805.9 219.9 1804.8 276.1 1767 328.4 1669.3 334.1 1677.9 511.2 Z M 1548.7 659.1 1548.7 671.5 1584.5 671.5 1584.9 656.9 1607.3 656.9 1605.6 550.9 1557.3 609.7 1536.6 656.5 1548.7 659.1 Z" data-holc_grade="D"/>
<path d="M 2259.6 1119.2 2261.3 1144.4 2117.6 1151.3 2117.1 1194.3 2161.9 1234.9 2115.9 1238.9 2049.8 1172.5 1965.3 1179.4 1964.1 1160.5 1884.5 1163.2 1523.2 1175.5 1506.5 1186.9 1479.5 1241.9 1510 1240.7 1513.9 1326.3 1310.8 1333.6 1307.6 1096.5 1410 1093.6 1683.1 1085.8 1684.9 1098.3 1908.6 1090.2 1910.4 1122.3 1968.7 1119.8 1969.9 1134.6 2259.6 1119.2 Z M 1265.5 1054.1 1266.6 1095.9 1176.9 1097.1 1177.1 1165 778.7 1172.7 778.2 1131.9 711.4 1132.3 710.1 1105.2 569.3 1105.7 569.9 1028.8 672.8 1030 673.4 1069.5 850.4 1070.7 843.5 955.6 1076.9 955 1078.6 1055.8 1265.5 1054.1 Z" data-holc_grade="D"/>
<path d="M 1132.1 1464.6 1132.2 1402.7 1181 1402.8 1181.4 1413.9 1311.6 1408.8 1310.8 1333.6 1513.9 1326.3 1513.9 1349.9 1485.4 1352.5 1474.2 1357.7 1427.2 1359 1411.7 1388.6 1415.4 1660.2 1556.9 1656.3 1559.1 1798.5 1526.3 1800.2 1526.3 1804.8 1422.9 1806.5 1424.1 1889.4 1305.1 1893.7 1303 1846.5 1267.2 1847.3 1267.2 1904.5 1220.1 1959.9 1211.9 1958.6 1191.7 1964.6 1183.9 1953.9 1184.3 1916.9 1180.9 1902.3 1171 1884.3 1150.7 1866.7 1310.7 1565.1 1311.2 1539.4 1285.3 1540.6 1284.9 1551.4 1240.5 1551.4 1246.1 1587 1245.6 1604.2 1131.8 1606.3 1132.1 1464.6 Z" data-holc_grade="D"/>
<path d="M 811.5 1593.1 717.8 1594.8 713.2 1488.3 809.8 1484.9 811.5 1593.1 Z" data-holc_grade="D"/>
<path d="M 2407.4 1194.6 2407.6 1203.1 2260.3 1208.2 2261.3 1144.4 2259.6 1119.2 2259 925.8 2320.8 923.3 2409.5 899 2407.4 1194.6 Z" data-holc_grade="D"/>
<path d="M 2814.2 1037.1 2715.3 1039.4 2700.4 1038.8 2692.9 1036 2692.3 815 2815.2 765.1 2814.2 1037.1 Z M 2395.8 656.3 2396.2 467 2732.9 465.6 2739 661.8 2601.5 661.4 2601.9 679.4 2549.8 678.6 2549.8 706.5 2396.3 706.1 2395.8 656.3 Z" data-holc_grade="D"/>
</g>
</svg>