<?xml version="1.0"?>
<svg xmlns="http://www.w3.org/2000/svg" version="1.2" baseProfile="tiny" width="3000" height="2607" viewBox="0 0 3000 2607" stroke-linecap="round" stroke-linejoin="round">
<g id="A">
<path d="M 2485.1 703.3 2483.5 809.2 2413.3 810 2414.9 999 2408.7 998.7 2390.9 999 2389.4 848.5 2389.1 812.4 2373.1 812.4 2289.4 813 2219.4 811.5 2218.5 792.8 2180.1 792.8 2179.8 771.6 2159.6 770.1 2144.5 771 2101 771.6 2102.2 749.2 2147.6 748.6 2179.5 749.2 2179.5 711.8 2145.8 711.8 2145.2 692.1 2163.3 692.3 2258.1 693.1 2257.8 687.8 2336.3 688.2 2335.7 646.1 2414.6 646.7 2415.5 704.1 2485.1 703.3 Z" data-holc_grade="A"/>
<path d="M 2258.4 848.8 2257.1 912.3 2218.5 911.1 2189.3 910.8 2124.9 911.1 2070.9 911.7 2070.3 852.2 2164.8 851.3 2165.7 842.4 2213.6 842.4 2257.8 843.9 2258.4 848.8 Z" data-holc_grade="A"/>
<path d="M 2409.9 1060.4 2329.5 1058.2 2331 1133.4 2300.3 1133 2260 1132 2258.6 1058.2 2181.9 1058.2 2181.9 1076.4 2165.1 1076.4 2165.6 1097.5 2127.2 1097.5 2126.2 1130.1 2088.8 1130.6 2089.3 1209.2 2080.7 1209.2 2049.5 1209.2 2049.5 1233.2 2012.1 1232.2 2012.6 1207.8 1960.4 1208.2 1961 1156.5 1961.4 1131.5 1962.3 1057.9 1962.6 1037 1962 1019.1 1961.8 999.2 2212.5 998.7 2390.9 999 2408.7 998.7 2409.9 1060.4 Z M 2069 1182.3 2069.3 1131 2015.9 1131 2014.7 1182.6 2069 1182.3 Z" data-holc_grade="A"/>
<path d="M 1646.6 1000.1 1646.6 1017.5 1675.8 1018.2 1750.9 1017.5 1817.2 1017.2 1885.6 1018.8 1950.4 1019.1 1962 1019.1 1962.6 1037 1909.3 1037.4 1817.2 1035.8 1735.9 1036.6 1619.3 1038.1 1570.4 1037.6 1550.3 1037.4 1549.1 1001.3 1584 1001.3 1584 977.2 1646.2 976.4 1646.6 1000.1 Z" data-holc_grade="A"/>
<path d="M 1656.3 1088.2 1657.8 1136.5 1590.3 1136.5 1592.2 1150.3 1658.6 1150.3 1659.3 1154.9 1659.7 1168 1659.3 1176.4 1594.1 1173.7 1559.2 1174.9 1475.6 1174.1 1466 1167.6 1451.8 1162.2 1442.2 1161.8 1442.6 1141.1 1476.8 1141.5 1478.3 1116.6 1569.6 1117 1570.3 1059.8 1636.7 1059.1 1655.9 1072.5 1656.3 1088.2 Z" data-holc_grade="A"/>
<path d="M 1753.4 1523.2 1733.8 1522.8 1718.9 1524.7 1663.8 1523.7 1664.3 1458.5 1663.3 1411.5 1662.5 1407 1813.3 1407.3 1813 1379 1833.1 1378.8 1835.8 1413.5 1829.8 1446.6 1830.3 1467.4 1811.9 1467.1 1811.9 1526.5 1763.8 1524.7 1753.4 1523.2 Z" data-holc_grade="A"/>
</g>
<g id="B">
<path d="M 2163.3 692.3 2161.7 557.6 2058.2 559.6 1958.5 559.6 1958.6 529.4 1958.9 472.5 2017.5 472.5 2017.5 499 2034.8 499.3 2035.6 517.4 2070.5 517.4 2071.2 528.9 2124.2 528.9 2124.2 548.8 2143.7 548.4 2143 528.5 2188.6 528.5 2189 550 2276.8 550.7 2276 588.7 2257.2 587.9 2257.6 615.6 2334.7 615.9 2335.7 646.1 2336.3 688.2 2257.8 687.8 2258.1 693.1 2163.3 692.3 Z" data-holc_grade="B"/>
<path d="M 371.1 760.6 425.8 760.6 426.9 721.5 458.6 722.6 458.6 820.4 426.9 820.4 427.5 846.9 255.5 849.8 256 820.4 371.7 821 371.1 760.6 Z" data-holc_grade="B"/>
<path d="M 155.8 461.7 296.1 461.7 297.9 479.5 338.7 480.1 336.4 523.8 315.1 526.1 313.4 514.6 188.5 514.6 185.1 508.3 155.2 508.9 155.8 461.7 Z" data-holc_grade="B"/>
<path d="M 596.5 449.2 590.2 443.4 574.6 436.5 566 438.8 555.1 440 544.7 437.1 529.8 431.3 524 425.6 521.1 421.6 521.7 410.6 370.4 409.5 371 350.2 391.3 351.9 389.9 318.8 370.2 318.3 371.7 289.6 445.5 291 446.9 231.6 471.9 232.5 471.4 176 595.1 176 596.5 234 596 292.5 597.5 341.8 445 337.5 444.1 367.2 596 371.6 596.5 449.2 Z" data-holc_grade="B"/>
<path d="M 2163.3 692.3 2145.2 692.1 2145.8 711.8 2179.5 711.8 2179.5 749.2 2147.6 748.6 2102.2 749.2 2101 771.6 2011.8 772.8 1960 771.7 1959.9 761.4 1958.7 589.9 1958.5 559.6 2058.2 559.6 2161.7 557.6 2163.3 692.3 Z" data-holc_grade="B"/>
<path d="M 2389.4 848.5 2358.1 848.8 2284.2 851.3 2258.4 848.8 2257.8 843.9 2213.6 842.4 2165.7 842.4 2164.8 851.3 2070.3 852.2 2070.9 911.7 1987.1 911.7 1961.7 909.9 1960.4 879.2 1973.6 879.2 1973.6 822.7 1958.3 822.1 1960 771.7 2011.8 772.8 2101 771.6 2144.5 771 2159.6 770.1 2179.8 771.6 2180.1 792.8 2218.5 792.8 2219.4 811.5 2289.4 813 2373.1 812.4 2389.1 812.4 2389.4 848.5 Z" data-holc_grade="B"/>
<path d="M 2637.3 896.2 2639.6 1026.3 2561 1027.8 2561.8 1061.9 2409.9 1060.4 2408.7 998.7 2414.9 999 2413.3 810 2483.5 809.2 2485.1 703.3 2524.6 703.3 2521.5 896.6 2637.3 896.2 Z" data-holc_grade="B"/>
<path d="M 1962.6 1037 1962.3 1057.9 1843.4 1057.9 1636.7 1059.1 1570.3 1059.8 1570.4 1037.6 1619.3 1038.1 1735.9 1036.6 1817.2 1035.8 1909.3 1037.4 1962.6 1037 Z M 1961.2 954.7 1961.8 999.2 1962 1019.1 1950.4 1019.1 1885.6 1018.8 1817.2 1017.2 1750.9 1017.5 1675.8 1018.2 1646.6 1017.5 1646.6 1000.1 1744.5 1000.7 1744.5 953.5 1752.1 953.7 1763.2 951.4 1791 953.3 1819.3 952.3 1871 952.8 1961.2 954.7 Z" data-holc_grade="B"/>
<path d="M 1962.3 1057.9 1961.4 1131.5 1938.2 1131.5 1939.3 1089.7 1656.3 1088.2 1655.9 1072.5 1636.7 1059.1 1843.4 1057.9 1962.3 1057.9 Z" data-holc_grade="B"/>
<path d="M 1549.1 1001.3 1550.3 1037.4 1570.4 1037.6 1570.3 1059.8 1569.6 1117 1478.3 1116.6 1476.8 1141.5 1442.6 1141.1 1442.2 1161.8 1436.5 1174.1 1364 1173.7 1364.4 1108.9 1406.2 1109.3 1405.4 1057.8 1404.7 1003.8 1478.7 1004.2 1478.3 914.1 1507.1 915.2 1505.5 1000.8 1549.1 1001.3 Z" data-holc_grade="B"/>
<path d="M 1662.5 1407 1663.3 1411.5 1664.3 1458.5 1663.8 1523.7 1718.9 1524.7 1733.8 1522.8 1753.4 1523.2 1754.9 1554.4 1715.1 1553.4 1716 1634.9 1717 1701.6 1663.8 1700.9 1645.1 1700.6 1646.5 1683.8 1624 1683.4 1623.5 1670.4 1584.7 1669 1581.8 1582.7 1526.7 1583.2 1526.2 1555.8 1507 1554.9 1509.4 1414.4 1510.4 1348.7 1452.8 1348.3 1452.1 1288.9 1451.4 1231.8 1590.4 1231.8 1661.4 1232.2 1660.4 1355.4 1659 1385.6 1662.5 1407 Z" data-holc_grade="B"/>
<path d="M 1511.5 1699.9 1472.9 1700.2 1472.5 1611.5 1401.5 1610.5 1402.9 1348.3 1434.8 1348.3 1433.2 1582.7 1507.6 1583.5 1511.5 1699.9 Z" data-holc_grade="B"/>
</g>
<g id="C">
<path d="M 2860.2 773.5 2859.8 869 2859 900.1 2711.7 901.6 2710.6 895.9 2637.3 896.2 2521.5 896.6 2524.6 703.3 2716 703.7 2715.2 732.9 2860.2 734.4 2860.2 773.5 Z" data-holc_grade="C"/>
<path d="M 1320.3 1787.5 1320 1816.7 1320.5 1874.2 1260.6 1874.2 1259.6 1903.4 1242.3 1903.4 1243.3 1961.5 1262 1961.9 1261.5 1933.6 1318.1 1932.7 1318.6 1993.1 1283.5 1993.4 1145.5 1994.5 1146.1 1961.4 1148.4 1845.4 1186.3 1845.9 1185.3 1816.7 1203 1816.2 1202.1 1786 1215 1786 1216.9 1523.7 1281.2 1525.2 1280.7 1463.8 1219.8 1463.3 1218.9 1389 1217.9 1240.4 1216.5 1139.7 1215.5 1029 1226.5 1029.9 1245.1 1043.2 1258.5 1050.9 1284.6 1068.9 1286.5 1107.3 1290.4 1113.4 1322.6 1131.8 1322.3 1288.9 1322.2 1365.8 1322.6 1574.4 1320.3 1787.5 Z M 1129.9 1231.7 1126.6 1055.2 1141 1054.8 1141 1027.9 1188.5 1029.8 1189 1271.9 1165.9 1273.4 1166.4 1288.7 1130.9 1289.7 1129.9 1231.7 Z" data-holc_grade="C"/>
<path d="M 1452.1 1288.9 1322.3 1288.9 1322.6 1131.8 1290.4 1113.4 1286.5 1107.3 1284.6 1068.9 1258.5 1050.9 1245.1 1043.2 1226.5 1029.9 1290.3 1030.7 1311.9 1030.9 1311.9 1056.3 1405.4 1057.8 1406.2 1109.3 1364.4 1108.9 1364 1173.7 1436.5 1174.1 1435.6 1231.8 1451.4 1231.8 1452.1 1288.9 Z" data-holc_grade="C"/>
<path d="M 1434.8 1348.3 1402.9 1348.3 1401.5 1610.5 1472.5 1611.5 1472.9 1700.2 1511.5 1699.9 1547.3 1699.7 1547.7 1729.4 1585.1 1729.4 1584.9 1787 1320.3 1787.5 1322.6 1574.4 1322.2 1365.8 1322.3 1288.9 1452.1 1288.9 1452.8 1348.3 1434.8 1348.3 Z" data-holc_grade="C"/>
<path d="M 1664 1933.4 1664.2 1992.1 1433.6 1991.7 1434.1 1816.2 1320 1816.7 1320.3 1787.5 1584.9 1787 1584.6 1872.8 1663.8 1874.2 1664 1933.4 Z" data-holc_grade="C"/>
<path d="M 1663.8 1874.2 1663.8 1700.9 1717 1701.6 1716 1634.9 1715.1 1553.4 1754.9 1554.4 1810.5 1556.5 1809.9 1659.9 1808.9 1761 1865.1 1771.4 1866.6 1817.1 1886.9 1818 1888.7 1875.7 1924 1876.3 1925.2 1934 1863.5 1932.2 1839.9 1934.9 1664 1933.4 1663.8 1874.2 Z" data-holc_grade="C"/>
<path d="M 1212.3 2228.5 1212.1 2254.1 1220.7 2253.5 1222.5 2262.2 1264.5 2284.6 1242.6 2284 1242 2343.3 1351.9 2345 1349.6 2602.8 1292.1 2601.6 1201.2 2605.6 1204.6 2514.7 1102.8 2517 1104.5 2372.9 1089 2372.3 1087.3 2345.8 1052.8 2345.8 1054.5 2264.7 1089.6 2264.7 1090.2 2226.2 1212.3 2228.5 Z M 1145.5 1994.5 1283.5 1993.4 1283.5 2105.1 1355.4 2107.4 1354.2 2256.4 1281.7 2252.4 1281.2 2222.5 1241.5 2222.5 1240.9 2187.4 1222.5 2188 1222.8 2174.8 1223 2166.1 1106.3 2164.9 1108.8 2077 1111.4 1988.9 1145.5 1994.5 Z" data-holc_grade="C"/>
<path d="M 603 681.8 602.4 702.3 600.7 760.7 522.2 760.2 522.3 878 313.8 879 313.8 882 144.4 878 144.4 761.8 371.1 760.6 371.7 821 256 820.4 255.5 849.8 427.5 846.9 426.9 820.4 458.6 820.4 458.6 722.6 426.9 721.5 425.8 679.5 603 681.8 Z" data-holc_grade="C"/>
<path d="M 143.1 614.7 143.9 703.9 1 702.8 1 584.8 30.3 584.8 30.9 409.9 144.3 409.4 143.1 614.7 Z" data-holc_grade="C"/>
<path d="M 596.8 470.7 597.6 524 611.5 524 611.5 542.9 613.2 566 610.9 641.9 602.8 643.6 603 681.8 425.8 679.5 426.9 721.5 408.9 721.7 408.3 699.9 341.6 701.6 334.7 699.3 327.2 696.4 313.4 690.1 313.4 687.2 311.7 587.7 254.7 586.6 254.7 614.2 143.1 614.7 144.3 409.4 142 348.5 156.4 350.8 165 352.5 371 350.2 370.4 409.5 521.7 410.6 521.1 421.6 524 425.6 529.8 431.3 544.7 437.1 555.1 440 566 438.8 574.6 436.5 590.2 443.4 596.5 449.2 596.8 470.7 Z M 155.8 461.7 155.2 508.9 185.1 508.3 188.5 514.6 313.4 514.6 315.1 526.1 336.4 523.8 338.7 480.1 297.9 479.5 296.1 461.7 155.8 461.7 Z" data-holc_grade="C"/>
<path d="M 693 88.3 692.5 175.1 774 178 774.5 236.5 825.8 238.9 825.8 256.6 900.1 259 897.7 411.4 822 411.4 822.9 471 596.8 470.7 596.5 449.2 596 371.6 444.1 367.2 445 337.5 597.5 341.8 596 292.5 596.5 234 595.1 176 595.3 89.3 595.4 58.8 595.6 2.6 648.5 2.6 647.8 89.3 693 88.3 Z" data-holc_grade="C"/>
<path d="M 1958.6 529.4 1958.5 559.6 1958.7 589.9 1891.7 590.5 1807 591.4 1733.1 591.4 1654.5 592.3 1655.1 502.4 1655.1 446.6 1653.3 370.8 1798.7 370.2 1888 369.6 1889.5 414.1 1889.2 471.7 1811.3 471.7 1811 451.5 1773.6 450.6 1773.6 531.9 1838 531.6 1958.6 529.4 Z" data-holc_grade="C"/>
<path d="M 595.4 58.8 595.3 89.3 557.8 89.9 559.5 111.7 538.8 111.1 526.8 115.7 515.8 119.8 447.4 117.5 447.4 139.3 353 137.6 351.3 177.3 471.4 176 471.9 232.5 446.9 231.6 371.4 234.8 371.7 289.6 370.2 318.3 389.9 318.8 391.3 351.9 371 350.2 165 352.5 156.4 350.8 142 348.5 143 293.5 13.5 290.6 15.3 203.2 144.7 204.3 144.1 174.4 294.8 177.9 297.1 3 447.9 1.3 446.2 58.2 595.4 58.8 Z" data-holc_grade="C"/>
<path d="M 1654.5 592.3 1655 671.8 1592.6 670.8 1593.4 530.2 1591.9 471 1573.5 470.1 1573.1 431.4 1572.6 371.3 1653.3 370.8 1655.1 446.6 1655.1 502.4 1654.5 592.3 Z" data-holc_grade="C"/>
<path d="M 1654.1 762.1 1653.9 798.1 1586.7 799.3 1475.3 799.3 1432.3 798.4 1433.6 748.4 1434.5 712.8 1511.5 712.8 1511.8 692.5 1592.5 692.8 1592.6 670.8 1655 671.8 1654.1 762.1 Z" data-holc_grade="C"/>
<path d="M 1960 771.7 1958.3 822.1 1973.6 822.7 1973.6 879.2 1960.4 879.2 1961.7 909.9 1961.2 954.7 1871 952.8 1819.3 952.3 1791 953.3 1763.2 951.4 1752.1 953.7 1744.5 953.5 1736.8 953.3 1736.8 939.4 1654.8 940.3 1653.9 798.1 1654.1 762.1 1744 761.7 1959.9 761.4 1960 771.7 Z" data-holc_grade="C"/>
<path d="M 1433.6 748.4 1432.3 798.4 1430.6 824.3 1386.1 824.9 1329.4 824 1269.6 823.7 1270.8 746.3 1342.6 748.4 1433.6 748.4 Z" data-holc_grade="C"/>
<path d="M 1654.8 940.3 1583.8 940.1 1581.9 881.1 1507.1 880.2 1507.1 915.2 1478.3 914.1 1478.7 1004.2 1404.7 1003.8 1405.4 1057.8 1311.9 1056.3 1311.9 1030.9 1290.3 1030.7 1288.4 926.4 1330.1 927.3 1329.4 824 1386.1 824.9 1430.6 824.3 1432.3 798.4 1475.3 799.3 1586.7 799.3 1653.9 798.1 1654.8 940.3 Z" data-holc_grade="C"/>
<path d="M 1329.4 824 1330.1 927.3 1288.4 926.4 1290.3 1030.7 1226.5 1029.9 1227.5 851.1 1268.7 850.2 1269.6 823.7 1329.4 824 Z" data-holc_grade="C"/>
<path d="M 1961.4 1131.5 1961 1156.5 1710 1154.9 1659.3 1154.9 1658.6 1150.3 1592.2 1150.3 1590.3 1136.5 1657.8 1136.5 1656.3 1088.2 1939.3 1089.7 1938.2 1131.5 1961.4 1131.5 Z" data-holc_grade="C"/>
</g>
<g id="D">
<path d="M 2860.2 773.5 2956 773.5 2956 762.4 2998.6 763.2 2999 880.5 2916.5 880.9 2916.5 869.8 2859.8 869 2860.2 773.5 Z" data-holc_grade="D"/>
<path d="M 918.1 471.1 822.9 471 822 411.4 897.7 411.4 900.1 259 825.8 256.6 825.8 238.9 774.5 236.5 774 178 692.5 175.1 693 88.3 769.7 88.3 770.7 117.1 824.9 119 827.7 155.9 900.6 156.4 901.6 148.2 977.8 146.8 976.8 121.4 1041.1 120.4 1035.8 391.8 994.6 391.8 993.6 450.8 972 451.2 971.6 472.3 918.1 471.1 Z" data-holc_grade="D"/>
<path d="M 1082.9 481.3 1082.1 527.3 1011.5 527.3 1011.5 495.8 1049.1 478.6 1082.9 481.3 Z" data-holc_grade="D"/>
<path d="M 1572.6 371.3 1573.1 431.4 1553.4 429.3 1435.3 430.2 1436.5 526.5 1432.8 649.9 1434.5 712.8 1433.6 748.4 1342.6 748.4 1270.8 746.3 1248.4 745.6 1248.4 724.7 1218.7 724.4 1220.8 540 1333.7 454.4 1434.2 378 1436.1 355.7 1472.2 330.4 1514.1 294.7 1571.6 294.7 1572.6 371.3 Z" data-holc_grade="D"/>
<path d="M 1573.1 431.4 1573.5 470.1 1591.9 471 1593.4 530.2 1592.6 670.8 1592.5 692.8 1511.8 692.5 1511.5 712.8 1434.5 712.8 1432.8 649.9 1436.5 526.5 1435.3 430.2 1553.4 429.3 1573.1 431.4 Z" data-holc_grade="D"/>
<path d="M 1436.2 4 1435.8 22.1 1434.3 36.6 1356.4 56.2 1359.1 118.7 1331.9 210 1331.5 237.2 1205.7 235.3 1202.6 121 1172.7 119.5 1174.6 43.1 1171.9 2.5 1436.2 4 Z" data-holc_grade="D"/>
<path d="M 1737.2 120.7 1735.8 173.8 1805.7 174.4 1838.9 177.2 1869.2 177.2 1871.4 295.3 1675.9 294.7 1675.3 238 1593.7 237.6 1592.5 180.3 1469.1 180.3 1469.1 148.4 1467 121.1 1737.2 120.7 Z" data-holc_grade="D"/>
<path d="M 1737.2 120.7 1735.6 1 1812.7 2.2 1814.6 16.3 1811.2 16.7 1814.3 32.8 1796.6 31.3 1797.4 51.2 1799.7 58.5 1798.1 119.5 1737.2 120.7 Z" data-holc_grade="D"/>
<path d="M 1961 1156.5 1960.4 1208.2 1960.8 1286.5 1876 1286.9 1796.6 1232 1795.1 1169.5 1659.7 1168 1659.3 1154.9 1710 1154.9 1961 1156.5 Z" data-holc_grade="D"/>
<path d="M 1032.9 1915.3 1031.2 1932.2 982.7 1932 982.7 1872.2 994.6 1871.8 995.5 1777.8 1011.3 1784.6 1023.5 1792.6 1028.9 1802.8 1028.9 1817.7 1024.9 1842.5 1027.7 1855.1 1027.6 1880.2 1031.8 1898.5 1032.9 1915.3 Z M 1202.1 1786 1203 1816.2 1185.3 1816.7 1186.3 1845.9 1148.4 1845.4 1146.1 1961.4 1127.5 1961.4 1127.5 1931 1044.4 1932.3 1041 1906.5 1041 1885 1037.9 1869.7 1037.3 1833.1 1038.2 1815.4 1037.9 1799.4 1032.4 1785.3 1033.9 1756.4 1140.7 1756.4 1182.1 1611.3 1190.4 1611.3 1188.3 1786.8 1202.1 1786 Z" data-holc_grade="D"/>
<path d="M 1102.8 2517 1049.9 2520.5 1050.5 2418.1 1064.3 2395.6 1064.8 2372.6 1074 2356.5 1087.3 2345.8 1089 2372.3 1104.5 2372.9 1102.8 2517 Z M 1052.8 2345.8 1001.9 2345.1 1001.9 2401.2 930.9 2402.1 995.2 2225.7 1090.2 2226.2 1089.6 2264.7 1054.5 2264.7 1052.8 2345.8 Z M 1222.8 2174.8 1222.5 2188 1240.9 2187.4 1241.5 2222.5 1281.2 2222.5 1281.7 2252.4 1354.2 2256.4 1354.2 2285.2 1264.5 2284.6 1222.5 2262.2 1220.7 2253.5 1212.1 2254.1 1212.3 2228.5 1212.7 2175.3 1222.8 2174.8 Z M 1106.3 2164.9 1051.6 2164.9 1054.5 2075.2 1108.8 2077 1106.3 2164.9 Z" data-holc_grade="D"/>
<path d="M 825.2 1187.1 862.2 1186.2 865.5 1210.1 895.2 1210.1 902.4 1217.3 903.9 1228.8 975.3 1229.8 980.6 1346.8 1018 1349.2 1017.5 1406.7 903.9 1405.8 902.9 1350.1 826.7 1349.7 825.2 1187.1 Z" data-holc_grade="D"/>
<path d="M 1188.5 1029.8 1141 1027.9 1141 1054.8 1126.6 1055.2 1129.9 1231.7 1061 1231.7 1041.3 1202.4 963.6 1200.5 957.9 1169.8 938.2 1169.4 937.7 1104.6 976.6 1105.6 916.2 1011.1 897 926.3 957.9 924.4 958.8 883.1 917.6 881.7 918.1 833.9 886.4 789.4 960.8 755.8 1031.2 848.8 1161.6 849.8 1163.1 916.9 1194.7 951.9 1191.4 958.1 1188.5 1029.8 Z" data-holc_grade="D"/>
<path d="M 598.2 892.7 650 892.1 731.7 953.7 777.1 954.2 780 1174 675.3 1171.7 675.9 1258 752.4 1259.2 753.5 1290.8 604.5 1295.4 598.2 892.7 Z" data-holc_grade="D"/>
<path d="M 600.7 760.7 621.2 760.8 621.7 819.5 598.2 820.1 598.2 892.7 604.5 1295.4 306 1291.9 305.4 1229.2 146.5 1227.5 148.8 1142.4 163.2 1141.7 168.5 1138.3 295.5 1140.3 297 1150.3 481.6 1150.3 481.6 1102.4 316.2 1100.9 313.8 882 313.8 879 522.3 878 522.2 760.2 600.7 760.7 Z" data-holc_grade="D"/>
<path d="M 822.9 471 918.1 471.1 918.1 487.8 933.6 499.3 815.7 589.1 825.5 610.3 749.5 645.4 749.5 658.1 721.9 656.9 717.3 663.9 714.4 669 707.5 670.8 698.3 673.1 698.3 701.8 602.4 702.3 603 681.8 602.8 643.6 610.9 641.9 613.2 566 611.5 542.9 611.5 524 597.6 524 596.8 470.7 822.9 471 Z M 671 646.7 647.3 643.7 623.4 643.7 622.8 663.3 660.2 664.8 673.1 666.4 671 646.7 Z" data-holc_grade="D"/>
</g>
</svg>