<?xml version="1.0"?>
<svg xmlns="http://www.w3.org/2000/svg" version="1.2" baseProfile="tiny" width="3000" height="2069" viewBox="0 0 3000 2069" stroke-linecap="round" stroke-linejoin="round">
<g id="A">
<path d="M 561.3 309.4 559 309.4 559.2 339.7 695.8 338.7 729.6 340.1 744.1 309.2 760.4 287.2 779 278.1 780 325.9 780.9 325.9 780.2 393.8 779.9 424.6 782 424.6 781.9 589.3 781.9 623.1 781.7 757.4 759.5 758.3 758.2 838.3 767.3 840.1 765 926.6 847.6 926.7 846.2 1135.6 845.1 1308.2 845 1323.2 844.9 1325.2 844.9 1329.8 821.6 1339.9 800.7 1351.2 767.1 1375.5 754.6 1391.2 733.7 1409.5 704.7 1435.1 660.5 1465.1 609.5 1495.5 580.4 1512.5 515.1 1534.9 473.2 1548.4 418.6 1562 386.9 1563.3 337.7 1560 335.4 1559.9 336.4 1529.3 375.2 1528.6 377.8 1479 417.5 1477.5 419.9 1222.8 416.3 1203.8 395.2 1198.3 363.5 1203 338.7 1205.2 336.8 1472.3 174.8 1387.1 170.7 1371 170.7 1370.8 170.2 1324.6 129.4 1322.5 130.5 1242.3 13.6 1246.1 9.7 1246.2 9.7 1245.4 9.8 1115.6 92 1115.7 92.5 1079.7 164.6 1081.4 177.1 1081.1 177.4 1031.6 339.5 1031.7 339.8 835.7 361.6 834.9 359.5 636.1 361.1 636.1 361 512.8 360 512.8 360.3 344.9 382.2 343.2 383.1 272.8 502.9 271.7 491.8 243.8 598.3 241.2 608.1 248.4 608.2 258 573 259 572.8 298.8 560.9 298.3 561.3 309.4 Z" data-holc_grade="A"/>
<path d="M 1246.8 509.3 1256.9 516.5 1258.6 520.1 1261.9 526.8 1259.1 594.4 1209.8 593.1 1201 601.8 1198.7 609.7 1112.5 610 1113.1 566.4 1113.6 530.7 1113.9 504.9 1246.8 509.3 Z" data-holc_grade="A"/>
<path d="M 1771.3 675.2 1771.1 674.4 1743.3 674 1638.4 672.4 1603.3 673.3 1603.2 675.7 1601.2 630.7 1666 629.8 1665.2 547 1665.7 547 1729.2 546.3 1771.6 545.7 1773.3 545.7 1783.7 541.4 1871.5 542.2 1843.2 603.1 1770.7 604 1771.3 675.2 Z" data-holc_grade="A"/>
<path d="M 1173.3 2034.7 1173.3 2039 878.8 2035.6 878.8 2033.1 878.8 2032.9 880.2 1949.5 919.9 1948 923.9 1867.7 945.2 1865.1 945.5 1704.4 1257.1 1702.3 1257.1 1703.8 1257.2 1704.5 1257.8 1727 1259.7 1786.8 1176.1 1787.9 1173.3 2034.7 Z" data-holc_grade="A"/>
<path d="M 2449 451.8 2452.9 502.3 2552.8 507.2 2552.1 541.3 2536.9 540.9 2538.7 561.2 2545.4 586.9 2613.4 559.1 2613.4 589.8 2540.3 621.5 2541.3 583.9 2537.2 564.6 2411.7 564.2 2410.5 450.9 2449 451.8 Z" data-holc_grade="A"/>
<path d="M 1298.2 244.6 1247.4 243.8 1246.4 257.7 1237.4 257 1235.7 256.9 1236.7 215.5 1195.2 212.9 1196.4 173.8 1198.1 173.9 1315.3 175.5 1316 242.3 1298.1 242 1298.2 244.6 Z" data-holc_grade="A"/>
<path d="M 1195.7 91.2 1194.6 63.5 1192.4 8.3 1234.1 7.9 1235 91.6 1195.7 91.2 Z" data-holc_grade="A"/>
</g>
<g id="B">
<path d="M 1673.4 961.8 1663.9 845.3 1593.4 842.6 1591.4 842.5 1591.6 812.8 1576.3 811.6 1591.6 774.3 1597.4 744.5 1601 723.7 1602.9 705.6 1603.2 675.7 1603.3 673.3 1638.4 672.4 1743.3 674 1771.1 674.4 1771.3 675.2 1776.9 696.7 1775.2 705 1774.9 731.9 1773.6 822.5 1799.5 925.5 1765.3 935.3 1673.4 961.8 Z M 1605.1 10.1 1603.7 172.4 1659.8 175.1 1661.4 294.7 1812.3 296.1 1815.4 340.2 1773.6 340.3 1771.6 545.7 1729.2 546.3 1665.7 547 1663.6 530.9 1642 530.5 1641.7 512.2 1609.1 511.4 1608.4 516.6 1572.2 517.9 1572.1 517.6 1526.3 419.7 1525.1 355.2 1524.8 343 1512.1 342.9 1441.9 342.2 1441.9 324.3 1329.7 325.6 1301.4 292.7 1300.1 289.7 1299.1 287.4 1298.3 281.6 1299.7 277.1 1303.1 272.4 1305 266.8 1304.7 261 1299.1 260.7 1298.2 244.6 1298.1 242 1316 242.3 1315.3 175.5 1198.1 173.9 1196.4 173.8 1192.3 173.8 1192 105.8 1192 91.1 1195.7 91.2 1235 91.6 1234.1 7.9 1234.1 6.7 1605.1 9.8 1605.1 10.1 Z" data-holc_grade="B"/>
<path d="M 1437 2033.6 1173.3 2034.7 1176.1 1787.9 1259.7 1786.8 1257.8 1727 1257.2 1704.5 1265.7 1703.6 1311.7 1698.7 1340.7 1656.8 1357.1 1629.7 1357.9 1628.5 1374.1 1628 1380.2 1619.6 1387.7 1577.4 1392.6 1547.6 1381 1508.7 1380.7 1490 1412 1462.1 1424.7 1458.3 1426.9 1459.6 1424.8 1460.5 1449 1470.7 1439.2 1477.6 1445 1485.8 1447 1495.8 1457.8 1495.2 1460.6 1503.8 1461 1522.4 1463.9 1538.3 1444.2 1552.8 1436.9 1578.1 1435.4 1591.9 1435.4 1592.3 1435.1 1592.3 1423.6 1595 1423.2 1665.2 1406.8 1665.2 1399.5 1670.6 1398.1 1720.6 1390 1722.8 1389.4 1729.3 1386.7 1810.8 1387 1906.9 1424.9 1908.6 1425.5 1949.9 1438 1950.4 1437 2033.6 Z" data-holc_grade="B"/>
<path d="M 1055 841 1055.6 848.9 1053.7 907.6 1055.6 920.2 1055.6 941.1 1054.3 953.7 1054.3 960.7 912.3 960.6 911.8 1170.7 953.2 1174.8 952.1 1190.5 954.7 1220.4 954.7 1234 953.6 1245.5 936.8 1260.5 916.9 1266.6 903.6 1274.7 893.9 1275.4 890.4 1279.5 887.3 1282.9 885.8 1293.8 891.4 1293.8 898.5 1292.4 899.9 1294.3 902.1 1297.2 901.5 1297.4 900.9 1297.8 844.9 1325.2 845 1323.2 845.1 1308.2 846.2 1135.6 847.6 926.7 765 926.6 767.3 840.1 758.2 838.3 759.5 758.3 781.7 757.4 781.9 623.1 781.9 589.3 884.7 588.2 886.4 587.4 887.2 627.2 958.1 628.1 959.1 637.8 1022.3 638.3 1020.7 643.8 983 646.1 983.5 692.7 984.4 709.7 1053.5 709.1 1052.1 800 1052.1 802.8 1055 841 Z" data-holc_grade="B"/>
<path d="M 463.6 9.7 463.9 27.7 467.8 31.2 465.4 177.4 491.7 243.5 491.8 243.8 502.9 271.7 383.1 272.8 382.2 343.2 360.3 344.9 360 512.8 358.6 512.8 104.7 512.8 105.4 177.6 416.5 174.7 414.6 9.6 463.6 8.1 463.6 9.7 Z" data-holc_grade="B"/>
<path d="M 177.4 1031.6 177.1 1081.1 164.6 1081.4 92.5 1079.7 92 1115.7 9.8 1115.6 5.9 1115.7 8.4 838.2 178.6 835.9 177.4 1031.6 Z" data-holc_grade="B"/>
<path d="M 943.9 347.7 967.3 423.4 965.9 423.4 935.9 423.6 782 424.6 779.9 424.6 780.2 393.8 780.9 325.9 782.6 325.9 860.2 326.3 861.7 337.9 876.9 349.4 914.2 348.4 943.9 347.7 Z" data-holc_grade="B"/>
</g>
<g id="C">
<path d="M 360 512.8 361 512.8 361.1 636.1 359.5 636.1 281.7 636 281.7 597.6 200.7 598.1 202.1 648.5 203.2 835.6 178.6 835.9 8.4 838.2 6.5 838.2 2.4 180.3 22.9 179.5 23 14 414.6 8.9 414.6 9.6 416.5 174.7 105.4 177.6 104.7 512.8 358.6 512.8 360 512.8 Z M 943.9 347.7 914.2 348.4 876.9 349.4 861.7 337.9 860.2 326.3 782.6 325.9 780.9 325.9 780 325.9 779 278.1 732.4 277.5 731.3 301.7 694.6 300.8 695.8 338.7 559.2 339.7 559 309.4 561.3 309.4 608.7 309.7 608.2 258 608.1 248.4 598.3 241.2 491.8 243.8 491.7 243.5 465.4 177.4 467.8 31.2 463.9 27.7 463.6 9.7 889.3 7.8 889.7 10.1 897.5 58.1 905.6 136.9 914.8 198.8 918.3 217.1 923.4 240.9 936.2 258.6 942.3 267.4 943.8 270.4 943 317.2 944.7 347.7 943.9 347.7 Z" data-holc_grade="C"/>
<path d="M 1113.9 504.9 1113.6 530.7 1113.1 566.4 1112.5 610 1198.7 609.7 1201 601.8 1209.8 593.1 1259.1 594.4 1261.9 526.8 1258.6 520.1 1256.9 516.5 1246.8 509.3 1246.4 509 1286.5 507.6 1296.6 517.4 1308.7 527.4 1323.9 533.2 1346.2 539.7 1347.1 539.9 1351.3 540.8 1355 541.6 1355.1 541.6 1355.1 542.1 1355.3 546 1372.8 557.2 1387.2 565.5 1394.6 573 1400.5 589 1382.2 590.6 1383.4 689.6 1384.9 742 1387.5 768.5 1386.4 782.1 1386.9 820.1 1384.5 860.9 1381.6 923.6 1382.6 952.5 1278.9 954.2 1278.3 840.6 1122.6 840.9 1097.7 840.9 1055 841 1052.1 802.8 1052.1 800 1053.5 709.1 984.4 709.7 983.5 692.7 983 646.1 1020.7 643.8 1022.3 638.3 959.1 637.8 958.1 628.1 887.2 627.2 886.4 587.4 884.7 588.2 781.9 589.3 782 424.6 935.9 423.6 965.9 423.4 972 434.8 977.3 443.7 988.1 502.7 1114 502.8 1113.9 504.9 Z" data-holc_grade="C"/>
<path d="M 906.4 1303.8 906.6 1305.3 789.4 1390.3 788.8 1451.9 760.1 1453.8 759.7 1536.3 675.8 1535.6 675 1618.3 661.6 1619.7 644.5 1620 635.6 1623.1 630.5 1631.8 621.8 1657.2 616.3 1666.6 595.3 1679.2 579.8 1684.5 563.8 1684 553.8 1680.9 551.8 1673.8 552.6 1663.2 555.7 1658.4 566 1644.1 570.9 1631.3 572.4 1613.9 575.3 1596.7 582.4 1583.4 583.5 1574.7 579.9 1564.1 570.4 1554.4 558.3 1550.3 541.6 1552.2 530.7 1554.1 515.2 1555.8 504.7 1558.7 482.2 1564.7 463.3 1567.9 448.9 1576.3 442.9 1587.7 440.2 1610.6 438 1645.5 431.2 1658.5 415.2 1673.5 397.1 1686.1 382.9 1694.3 372 1700.3 362.4 1703 356.9 1700.6 348.6 1694.7 341.3 1684.8 335.9 1675.1 337.7 1560 386.9 1563.3 418.6 1562 473.2 1548.4 515.1 1534.9 580.4 1512.5 609.5 1495.5 660.5 1465.1 704.7 1435.1 733.7 1409.5 754.6 1391.2 767.1 1375.5 800.7 1351.2 821.6 1339.9 844.9 1329.8 844.9 1325.2 900.9 1297.8 902.8 1299.9 902.9 1306.2 906.4 1303.8 Z M 1357.9 1628.5 1357.1 1629.7 1340.7 1656.8 1311.7 1698.7 1265.7 1703.6 1257.2 1704.5 1257.1 1703.8 1257.1 1702.3 945.5 1704.4 945.2 1865.1 923.9 1867.7 919.9 1948 880.2 1949.5 878.8 2032.9 878.8 2033.1 196.6 2038 196.3 2015.7 1 2015.9 13.6 1246.1 130.5 1242.3 129.4 1322.5 170.2 1324.6 170.7 1370.8 170.7 1371 170.3 1531.6 212.3 1533.1 211.7 1559.6 210.9 1564.5 195.8 1563.7 196.1 1571.3 144.2 1569.4 149.3 1575.4 155.5 1585.6 155.8 1606 153 1620.3 150.8 1639.7 147 1663.4 144.9 1695.3 147.1 1704 153.1 1711 164.2 1713.5 178.9 1711.8 203.6 1706.2 231 1699.5 247.6 1697.8 249.5 1727.3 247.9 1801.9 302.1 1802.3 302.3 1863.5 411.3 1864 505.5 1799.1 503.7 1862.2 784.3 1864.6 786.4 1695.3 844.8 1673 842.2 1582 927.4 1576.7 1009.8 1575.5 1009 1371.8 1039.6 1371.8 1040.5 1386.6 1045 1396.5 1051.3 1407 1065.7 1419.1 1091.3 1436.9 1112 1443 1139.5 1445.6 1165.9 1445.6 1187.2 1447.1 1206.8 1448.3 1219.5 1454.7 1241.4 1458.9 1251.3 1466.8 1269.2 1477.8 1294.7 1489.5 1310.6 1495.1 1309.5 1520.5 1316.9 1524.2 1316.3 1581.7 1307.5 1583.2 1306.6 1603.2 1283.4 1626.7 1357.9 1628.5 Z" data-holc_grade="C"/>
<path d="M 2178.6 1543.9 2177.2 1540.4 2191 1547.8 2222.3 1553 2245.5 1548.7 2259.2 1542.6 2288.3 1529.9 2329.3 1515.3 2347.2 1506.1 2357.5 1503.4 2373.3 1494.3 2391 1488 2408.5 1484.1 2426.3 1483.2 2441.5 1486.2 2458.8 1493.9 2464.7 1499.6 2478.2 1504.9 2490.5 1514 2501.5 1522.9 2509.4 1531.1 2517.4 1553.2 2525.6 1574.7 2537 1602.7 2548.8 1623.2 2567.3 1638.3 2576.8 1647.2 2600.5 1660.6 2638.3 1675.1 2655.3 1684.8 2662.4 1690.7 2669.3 1706 2674.3 1720.7 2676 1750.2 2675.4 1774.7 2677.1 1793.7 2684.9 1825.7 2696.6 1855.4 2705.8 1873.8 2719.6 1891.1 2732.6 1904.4 2756.1 1916.6 2779.9 1926.4 2811.3 1930 2845.6 1927.6 2870.8 1905.8 2890.7 1885.8 2900.4 1875.5 2908.6 1873.1 2918.7 1873.3 2934.8 1877.6 2952.5 1889.9 2973.4 1907.7 2988.5 1929.8 2998 1942.9 2999 1944.4 2998.3 2068 2538 2045.2 1437 2036.9 1437 2033.6 1438 1950.4 1425.5 1949.9 1424.9 1908.6 1387 1906.9 1386.7 1810.8 1389.4 1729.3 1390 1722.8 1398.1 1720.6 1399.5 1670.6 1406.8 1665.2 1423.2 1665.2 1423.6 1595 1435.1 1592.3 1435.4 1592.3 1435.4 1591.9 1436.9 1578.1 1444.2 1552.8 1463.9 1538.3 1461 1522.4 1460.6 1503.8 1457.8 1495.2 1447 1495.8 1445 1485.8 1439.2 1477.6 1449 1470.7 1424.8 1460.5 1426.9 1459.6 1429.8 1458.3 1431.7 1457.5 1447.8 1459.1 1467.9 1462.8 1482.8 1465.5 1510.5 1480.1 1524.5 1491 1536 1499.5 1544.5 1516.1 1544.6 1526 1545.9 1538.9 1546.7 1545.6 1552.4 1556.2 1553.8 1561.7 1571.2 1589.8 1628.2 1686.6 1666.8 1687.2 1667.2 1708.7 1689.9 1708.5 1692.9 1768.6 1838.8 1767.9 1840.1 1873.7 2343.2 1874.9 2340 1708.7 2202.7 1589.6 2198.2 1583.4 2189.3 1571.3 2178.6 1543.9 Z" data-holc_grade="C"/>
<path d="M 2493.9 878.7 2496.8 995.1 2496.7 995.1 2499.3 1098.5 2491.2 1096.4 2402.4 1077.5 2318.2 1070.7 2221.7 1074.9 2139.1 1073.5 2092.6 1085.1 2054.3 1097.5 2035.3 1099.7 1940.9 1124.8 1880.3 1144.6 1840.3 1148.2 1794.1 1148.5 1751.1 1146.8 1724.1 1138.5 1695.5 1127.9 1677.9 1118.7 1708.9 1110.4 1700.5 1100.6 1687.3 1068.6 1682.9 1044.7 1683.7 1036.7 1814.6 1000.9 1819.6 999.5 2000.7 950.6 2045.1 912.5 2062.5 895.5 2079.8 886.6 2076.8 951.9 2208.5 954.6 2210.2 891.7 2282.5 887.2 2357.7 889.1 2412.1 885.4 2441.7 883.5 2454 878.4 2493.9 878.7 Z" data-holc_grade="C"/>
<path d="M 2985.9 833.5 2629.5 837 2494.8 838.3 2494.8 834.7 2454 835.8 2452.1 835.8 2450.8 733.4 2448.5 654 2449.5 611.2 2446.9 609.6 2346.9 649 2190 720.7 2187.7 571.4 2190.1 507.3 2283.5 505.1 2282 176.6 2105.2 174.5 2105.1 477.2 2104.9 500.8 1940.9 503.1 1930.3 451.7 1924.4 467.4 1849.7 621.4 1833.4 649.7 1816.4 673.6 1788 693.2 1776.9 696.7 1771.3 675.2 1770.7 604 1843.2 603.1 1871.5 542.2 1783.7 541.4 1773.3 545.7 1771.6 545.7 1773.6 340.3 1815.4 340.2 1812.3 296.1 1661.4 294.7 1659.8 175.1 1603.7 172.4 1605.1 10.1 2982.8 1 2987.3 833.5 2985.9 833.5 Z M 2613.4 559.1 2613.3 423.5 2568.7 423 2568.7 340.4 2490.3 340.4 2491.8 422.6 2451 422.1 2451 451.8 2449 451.8 2410.5 450.9 2411.7 564.2 2537.2 564.6 2541.3 583.9 2540.3 621.5 2613.4 589.8 2613.4 559.1 Z" data-holc_grade="C"/>
</g>
<g id="D">
<path d="M 1195.7 91.2 1192 91.1 1192 105.8 1192.3 173.8 1196.4 173.8 1195.2 212.9 1236.7 215.5 1235.7 256.9 1237.4 257 1234.9 282 1251.8 282.2 1252.7 276.7 1281 276.4 1280.8 282.5 1300.1 289.7 1301.4 292.7 1329.7 325.6 1441.9 324.3 1441.9 342.2 1512.1 342.9 1524.8 343 1525.1 355.2 1526.3 419.7 1572.1 517.6 1565.7 525.1 1466.4 524.3 1460.2 501.6 1446.9 502 1446 507.7 1413.7 508.1 1412.6 477.1 1364.6 478.2 1364.1 506.2 1359.5 522.4 1355 541.6 1351.3 540.8 1347.1 539.9 1346.2 539.7 1323.9 533.2 1308.7 527.4 1296.6 517.4 1286.5 507.6 1246.4 509 1246.8 509.3 1113.9 504.9 1114 502.8 988.1 502.7 977.3 443.7 972 434.8 965.9 423.4 967.3 423.4 943.9 347.7 944.7 347.7 943 317.2 943.8 270.4 942.3 267.4 936.2 258.6 923.4 240.9 918.3 217.1 914.8 198.8 905.6 136.9 897.5 58.1 889.7 10.1 1192.4 7.8 1192.4 8.3 1194.6 63.5 1195.7 91.2 Z" data-holc_grade="D"/>
<path d="M 906.4 1303.8 902.9 1306.2 902.8 1299.9 900.9 1297.8 901.5 1297.4 902.1 1297.2 899.9 1294.3 898.5 1292.4 891.4 1293.8 885.8 1293.8 887.3 1282.9 890.4 1279.5 893.9 1275.4 903.6 1274.7 916.9 1266.6 936.8 1260.5 953.6 1245.5 954.7 1234 954.7 1220.4 952.1 1190.5 953.2 1174.8 911.8 1170.7 912.3 960.6 1054.3 960.7 1054.3 953.7 1055.6 941.1 1055.6 920.2 1053.7 907.6 1055.6 848.9 1055 841 1097.7 840.9 1122.6 840.9 1278.3 840.6 1278.9 954.2 1382.6 952.5 1381.6 923.6 1384.5 860.9 1386.9 820.1 1386.4 782.1 1387.5 768.5 1384.9 742 1383.4 689.6 1382.2 590.6 1400.5 589 1394.6 573 1387.2 565.5 1372.8 557.2 1355.3 546 1355.1 542.1 1379.1 550.4 1405.8 556.1 1430.7 558.7 1476.7 577.2 1514.7 599.1 1540.5 614.3 1570.3 646.4 1582.7 662.2 1587.3 681.1 1578.8 721.6 1566.9 769.2 1543.9 819.5 1515.8 864.4 1500.5 898.4 1480.3 954.4 1469.3 969.9 1463.9 985.7 1453.7 1023.5 1454.8 1054.1 1460.5 1083.2 1460.5 1096.1 1470.4 1131.6 1478.6 1170.2 1488 1200.8 1496.5 1235.5 1498.4 1248.4 1476.9 1252.4 1479.8 1268.9 1485.7 1287.1 1484.7 1294.5 1473.3 1313.5 1457.7 1340.6 1445.6 1366.5 1438.8 1384.9 1414.5 1415.6 1393.2 1439.5 1376.5 1459.4 1361.6 1469.8 1345 1484.2 1329.6 1483.1 1313.2 1475.5 1299.3 1467.9 1282.3 1462.3 1264.9 1455.1 1242.8 1443.7 1225.8 1435.8 1205.4 1432.8 1179 1434.7 1143.5 1434.4 1121.9 1433.2 1101.9 1427.2 1086.1 1419.7 1080.3 1412.4 1064.5 1399.6 1054.7 1382.2 1052.2 1365.2 1055.3 1352.4 1070.5 1338.6 1085.6 1323.2 1092.7 1307.9 1097.4 1285.7 1096.2 1270.2 1086.5 1248.4 1070.9 1236.1 1056.6 1234.4 1029.2 1232.9 999.2 1242.1 978.5 1255.9 959.1 1267.7 906.4 1303.8 Z M 1008.3 1034.8 1010 1034.8 1010.2 987.9 959 988.1 958.8 1029 933 1030.5 933.5 1119.2 958 1118.3 1008.2 1118.7 1008.3 1034.8 Z M 1130.8 903.8 1130.4 885.6 1126.2 873.1 1124.4 861.2 1121.2 843.3 1098.6 843.1 1098.1 904.5 1130.8 903.8 Z" data-holc_grade="D"/>
<path d="M 1579.9 1335.7 1597.4 1337.9 1622.9 1349.2 1643.1 1358.8 1692.4 1379.2 1720.2 1390.1 1761.4 1407.9 1790.1 1416.6 1826.4 1421.8 1866.9 1427.9 1900.2 1434 1928.3 1444.8 1956.4 1452.2 1980.9 1460.9 2008 1474.4 2037.1 1484.4 2084.4 1503.6 2122.2 1515.6 2178.6 1543.9 2189.3 1571.3 2198.2 1583.4 2202.7 1589.6 2340 1708.7 2343.2 1874.9 1840.1 1873.7 1838.8 1767.9 1692.9 1768.6 1689.9 1708.5 1667.2 1708.7 1666.8 1687.2 1628.2 1686.6 1571.2 1589.8 1553.8 1561.7 1552.4 1556.2 1546.7 1545.6 1545.9 1538.9 1544.6 1526 1544.5 1516.1 1536 1499.5 1524.5 1491 1510.5 1480.1 1482.8 1465.5 1467.9 1462.8 1447.8 1459.1 1431.7 1457.5 1429.8 1458.3 1426.9 1459.6 1424.7 1458.3 1417.1 1454.2 1432.7 1441.7 1445.1 1422.5 1457.6 1398 1470.8 1381.3 1492.9 1361.8 1519.6 1345.7 1545.8 1338.3 1569 1334.4 1579.9 1335.7 Z M 1986.3 1539.6 1980.3 1542.7 1922.8 1543.8 1922 1625.4 2004.4 1625.9 2004.7 1543.9 2004.7 1530.4 1986.3 1539.6 Z" data-holc_grade="D"/>
<path d="M 2985.9 833.5 2996.5 1902.3 2998 1942.9 2988.5 1929.8 2973.4 1907.7 2952.5 1889.9 2934.8 1877.6 2918.7 1873.3 2908.6 1873.1 2900.4 1875.5 2890.7 1885.8 2870.8 1905.8 2845.6 1927.6 2811.3 1930 2779.9 1926.4 2756.1 1916.6 2732.6 1904.4 2719.6 1891.1 2705.8 1873.8 2696.6 1855.4 2684.9 1825.7 2677.1 1793.7 2675.4 1774.7 2676 1750.2 2674.3 1720.7 2669.3 1706 2662.4 1690.7 2655.3 1684.8 2638.3 1675.1 2600.5 1660.6 2576.8 1647.2 2567.3 1638.3 2548.8 1623.2 2537 1602.7 2525.6 1574.7 2517.4 1553.2 2509.4 1531.1 2501.5 1522.9 2490.5 1514 2478.2 1504.9 2464.7 1499.6 2458.8 1493.9 2441.5 1486.2 2426.3 1483.2 2408.5 1484.1 2391 1488 2373.3 1494.3 2357.5 1503.4 2347.2 1506.1 2329.3 1515.3 2288.3 1529.9 2259.2 1542.6 2245.5 1548.7 2222.3 1553 2191 1547.8 2177.2 1540.4 2178.6 1543.9 2122.2 1515.6 2084.4 1503.6 2037.1 1484.4 2008 1474.4 1980.9 1460.9 1956.4 1452.2 1928.3 1444.8 1900.2 1434 1866.9 1427.9 1826.4 1421.8 1790.1 1416.6 1761.4 1407.9 1720.2 1390.1 1692.4 1379.2 1643.1 1358.8 1622.9 1349.2 1597.4 1337.9 1579.9 1335.7 1572.3 1284.4 1541.9 1252.3 1516.4 1220.3 1504.1 1167.4 1489.6 1121.2 1480.5 1071.8 1470.5 1036.9 1477.4 1013.7 1495.4 978.9 1505.3 951.8 1522.7 931 1528.5 890.7 1545.9 852.9 1557 839.7 1569.7 843.6 1560.1 855.7 1571.4 856 1571.9 846.4 1578.2 845.4 1579.4 856 1592.4 857.4 1593.4 842.6 1663.9 845.3 1673.4 961.8 1671.8 962.3 1672.1 994.8 1682.9 1037 1683.7 1036.7 1682.9 1044.7 1687.3 1068.6 1700.5 1100.6 1708.9 1110.4 1677.9 1118.7 1695.5 1127.9 1724.1 1138.5 1751.1 1146.8 1794.1 1148.5 1840.3 1148.2 1880.3 1144.6 1940.9 1124.8 2035.3 1099.7 2054.3 1097.5 2092.6 1085.1 2139.1 1073.5 2221.7 1074.9 2318.2 1070.7 2402.4 1077.5 2491.2 1096.4 2499.3 1098.5 2496.7 995.1 2496.8 995.1 2539.2 994.4 2539.2 1017.8 2552.5 1020.2 2551.5 1043.3 2633.2 1045.6 2655.7 1046 2655.7 1026.7 2740.5 1029.6 2740.3 1011.7 2780.6 1012.9 2781 990.4 2822.6 991.4 2822.8 995.2 2848.3 995.8 2848.7 977.5 2885.2 977.2 2884.5 881.2 2821.8 881.3 2821.7 886.5 2629.6 886.8 2629.5 837 2985.9 833.5 Z M 2735.9 1091.5 2740.2 1099.1 2739.1 1171 2818.7 1196.9 2816.5 1058.8 2734.7 1058.3 2735.9 1091.5 Z" data-holc_grade="D"/>
<path d="M 2494.8 838.3 2494.8 878.7 2493.9 878.7 2454 878.4 2441.7 883.5 2412.1 885.4 2357.7 889.1 2282.5 887.2 2210.2 891.7 2208.5 954.6 2076.8 951.9 2079.8 886.6 2062.5 895.5 2045.1 912.5 2000.7 950.6 1819.6 999.5 1814.6 1000.9 1683.7 1036.7 1682.9 1037 1672.1 994.8 1671.8 962.3 1673.4 961.8 1765.3 935.3 1799.5 925.5 1773.6 822.5 1774.9 731.9 1775.2 705 1776.9 696.7 1788 693.2 1816.4 673.6 1833.4 649.7 1849.7 621.4 1924.4 467.4 1930.3 451.7 1940.9 503.1 2104.9 500.8 2105.1 477.2 2105.2 174.5 2282 176.6 2283.5 505.1 2190.1 507.3 2187.7 571.4 2190 720.7 2346.9 649 2446.9 609.6 2449.5 611.2 2448.5 654 2450.8 733.4 2452.1 835.8 2454 835.8 2494.8 834.7 2494.8 838.3 Z" data-holc_grade="D"/>
</g>
</svg>