<?xml version="1.0"?>
<svg xmlns="http://www.w3.org/2000/svg" version="1.2" baseProfile="tiny" width="3000" height="3263" viewBox="0 0 3000 3263" stroke-linecap="round" stroke-linejoin="round">
<g id="A">
<path d="M 1521.1 932.5 1521.8 936.6 1568.8 937.4 1587 941.8 1604.1 939.1 1624 982.4 1532.8 983.5 1475.3 985.2 1474.8 929.3 1520.6 928.9 1521.1 932.5 Z" data-holc_grade="A"/>
<path d="M 2778.4 1390.6 2767.1 1368 2790.7 1354.1 2801.4 1348.9 2758.6 1263.7 2791 1248.4 2844.5 1338.8 2831.2 1350.8 2805.6 1374.7 2794.6 1383.5 2778.4 1390.6 Z" data-holc_grade="A"/>
<path d="M 2791.2 1164 2787.2 1174.1 2828.8 1198.9 2820.4 1214.1 2802.1 1204.7 2796.8 1211.1 2810 1237.7 2804.4 1240.8 2791 1248.4 2765.9 1182.6 2763 1178.7 2769.9 1154 2791.2 1164 Z" data-holc_grade="A"/>
<path d="M 2877.9 1070.2 2940 1099.7 2938 1107.8 2934.7 1154.2 2931.1 1173 2919 1220.9 2907 1257.6 2892.9 1278.8 2886.5 1292.3 2883.1 1305.8 2872.7 1318.3 2856.5 1329.4 2844.5 1338.8 2791 1248.4 2804.4 1240.8 2805.6 1247.1 2862.8 1280.6 2870.6 1277.2 2871.6 1271.1 2810 1237.7 2796.8 1211.1 2802.1 1204.7 2820.4 1214.1 2828.8 1198.9 2787.2 1174.1 2791.2 1164 2800 1152.2 2809.8 1157.6 2820.2 1143.1 2856.7 1163.1 2905.4 1189.9 2910.8 1178.5 2894.6 1170.1 2899.9 1157.7 2919.2 1165.7 2920.6 1158.9 2883 1140.9 2886.7 1132.1 2908.3 1141.8 2928.8 1107.8 2860.5 1071.6 2861.2 1066.9 2863.9 1063.6 2877.9 1070.2 Z" data-holc_grade="A"/>
<path d="M 2889.9 989.6 2897.9 954.1 2902.8 923.1 2905 909.3 2924.3 838.6 2926.7 827.3 2943.2 790.1 2952.4 778.4 2954.5 780 2957.3 788.9 2963 794.9 2979.3 810.2 2989.8 813.4 2995.9 824.2 2992.7 832.7 2990.3 849.7 2983.5 858.2 2978.7 876.8 2973.1 905.8 2968.2 915.1 2957.7 925.2 2952.6 969.7 2946.2 985 2942.2 1010.9 2941 1032.3 2943.2 1059.7 2945.7 1089.2 2940 1099.7 2877.9 1070.2 2889.9 989.6 Z" data-holc_grade="A"/>
<path d="M 2811.1 933.8 2852.9 946.9 2875.2 951.7 2897.9 954.1 2889.9 989.6 2832.7 986.1 2798.7 968.9 2799.8 932.6 2803.4 931.3 2811.1 933.8 Z" data-holc_grade="A"/>
<path d="M 833.3 1920 812.3 1929.2 812 1935.9 806.3 1938.3 805.2 1947.2 795.7 1954.5 769.7 1964.4 751.6 1969.2 752.4 1965.7 747 1955.5 731.3 1963.6 731.8 1974.3 722.6 1970.8 715.6 1974.3 696.6 1974.7 679.7 1960.2 679.6 1988.5 656 1982.7 652.4 1914.3 649 1902.2 734.9 1898.6 772.1 1898.7 802.2 1914.9 829.5 1906.1 833.3 1920 Z" data-holc_grade="A"/>
<path d="M 1475.3 985.2 1476.6 1001.3 1478.2 1025.2 1478.5 1046.5 1477.3 1067.4 1477.2 1070.7 1479.3 1100.4 1420.3 1100.4 1368 1101.4 1366.9 1072.1 1365.9 1059.1 1364.1 988.4 1409.9 987 1408.3 960.9 1437.7 961.5 1440.4 986.2 1475.3 985.2 Z" data-holc_grade="A"/>
<path d="M 1510.4 1099.5 1508.2 1068 1477.3 1067.4 1478.5 1046.5 1478.2 1025.2 1476.6 1001.3 1475.3 985.2 1532.8 983.5 1534 1096.8 1510.4 1099.5 Z" data-holc_grade="A"/>
<path d="M 957 1221.2 957.4 1235.8 954.7 1242 929.6 1243.1 929 1223.2 861.6 1224.6 859.5 1140.6 878.1 1139.6 898.4 1148.8 897.9 1112.7 926 1111.1 928.1 1165.8 955.6 1179.5 957 1221.2 Z" data-holc_grade="A"/>
<path d="M 1150.7 1219.2 1038.6 1220.2 1034.1 1108.2 1090.9 1107.8 1131.6 1107.5 1134 1162.1 1148.9 1162.1 1150.7 1219.2 Z" data-holc_grade="A"/>
<path d="M 2638 1099.9 2583.9 1153.6 2531.5 1173.5 2502.9 1184.4 2499.3 1126.4 2479 1115.4 2479.2 1077.5 2523.1 1004.7 2619.6 1055.4 2638 1099.9 Z" data-holc_grade="A"/>
<path d="M 994.9 47.8 987.3 58.2 987.3 65.5 983.8 73.5 983 83.2 984 100.4 996.7 107.9 997.2 136.7 996.4 145.3 990.5 153.6 987.5 165.4 983.2 177.7 979.1 181.5 968.9 189.5 958.6 185.5 938.9 187.4 924.9 187.9 904.4 198.3 889 205 885.3 160.7 884.6 109.7 930.9 107.8 930.4 83.1 922.3 82.9 915.3 77.8 913.5 28.3 938 16.3 937.5 2 962.1 1 994.9 1.8 994.9 47.8 Z" data-holc_grade="A"/>
<path d="M 1408 634.3 1394.9 632.6 1389.5 625.9 1380.4 623.5 1366.9 622.2 1353.7 610.7 1346.3 610.4 1345.3 568.4 1357.8 567.1 1356.1 545.2 1378 544.2 1407 591.9 1408 634.3 Z" data-holc_grade="A"/>
<path d="M 2730.6 1295.4 2767.1 1368 2778.4 1390.6 2762.6 1398.4 2751.2 1404.9 2743.8 1414 2733.1 1431.8 2736.1 1436.6 2729 1456 2724.1 1468.7 2716.4 1474.2 2710.6 1506.2 2705.4 1518.2 2699.3 1525.6 2691.2 1532.4 2683.8 1537.3 2678.9 1546.7 2678.9 1536.3 2671.4 1525.4 2672.3 1513.7 2642.3 1450.8 2654.3 1445.6 2659.2 1452 2669.3 1447.5 2664 1434.9 2675.4 1428.7 2627.8 1326.7 2722.7 1279.6 2730.6 1295.4 Z" data-holc_grade="A"/>
</g>
<g id="B">
<path d="M 963.1 1110.3 926 1111.1 922.9 1041.3 920.8 975.4 959.4 973.3 961 1013.1 963.1 1110.3 Z M 1364.1 988.4 1365.9 1059.1 1328 1059.9 1327.2 1045.9 1310.2 1045.9 1312.1 1101.8 1280.8 1101.6 1216.5 1103.6 1216.5 1089.2 1257 1087.4 1253 988.9 1274.1 988.9 1273.3 970.3 1219.2 971.9 1221.6 1047.8 1172.2 1048.5 1169.5 980.5 1185.5 980.5 1185 965.4 1253.3 964.1 1252.8 937.2 1264.6 937.2 1265.7 948.8 1266.2 960.9 1363.5 960.1 1364.1 988.4 Z M 1142 938.6 1143.8 994.5 1135.2 995.1 1136.2 1038.1 1082.8 1038.9 1083.1 995.6 1075.8 995.8 1075 968.4 1050.1 969.4 1049.6 949 1042.9 948.7 1042.1 943.1 1016.7 942.5 1015.6 915.9 1046.9 913.5 1047.5 935 1052.9 935 1053.1 941.2 1132.8 939.7 1130.4 891.2 1149 913.6 1150.9 938.6 1142 938.6 Z" data-holc_grade="B"/>
<path d="M 1386.5 1599.3 1272 1601.3 1269.9 1546.4 1421.2 1540.7 1429.5 1540.4 1435.2 1598.8 1399.4 1599.3 1386.5 1599.3 Z" data-holc_grade="B"/>
<path d="M 2479.2 1077.5 2479 1115.4 2499.3 1126.4 2502.9 1184.4 2482.2 1192.3 2452.9 1134.5 2428.8 1087.1 2315.8 1139.3 2326.4 1115.7 2316.1 1092.3 2312 1089.4 2307.7 1082.4 2289.6 1065.2 2286.8 1059.3 2314.4 1045.2 2312.5 1003.7 2308.2 908.5 2361.7 906.3 2364.7 960.1 2438.7 959.7 2439.1 1013 2476.9 1012.1 2479.2 1077.5 Z" data-holc_grade="B"/>
<path d="M 2452.9 1134.5 2304.9 1203.9 2292.2 1188.1 2315.8 1139.3 2428.8 1087.1 2452.9 1134.5 Z" data-holc_grade="B"/>
<path d="M 2502.9 1184.4 2531.5 1173.5 2564 1237 2466.8 1285.4 2460.5 1272.4 2431 1212.4 2380.5 1231.9 2337.8 1247.1 2304.9 1203.9 2452.9 1134.5 2482.2 1192.3 2502.9 1184.4 Z" data-holc_grade="B"/>
<path d="M 2639.7 1103.5 2718.8 1266.7 2704.8 1277.4 2667.6 1296.9 2630.3 1312.2 2604.4 1318.4 2564 1237 2531.5 1173.5 2583.9 1153.6 2638 1099.9 2639.7 1103.5 Z" data-holc_grade="B"/>
<path d="M 1112 117.2 1111.8 113.9 1086.7 113.7 1086.3 103.5 1077.8 103.4 1076.7 62.4 1064.5 60.3 1062.3 51.3 1068.2 41.4 1089.2 40.4 1088.2 24.7 1106.8 24.1 1109.4 81.9 1159.5 82 1158.5 57.2 1218.8 54.2 1221.2 97.9 1178.1 100.1 1179.3 115.2 1112 117.2 Z" data-holc_grade="B"/>
<path d="M 1119.4 243 1153.7 242.4 1170.5 264.7 1170.2 281.8 1172.4 295.9 1162.7 306.6 1141 308.5 1121.9 309.1 1119.4 243 Z" data-holc_grade="B"/>
<path d="M 906.1 446 976.3 444.8 1029.7 443.3 1072.5 440.7 1071.8 472 1071.7 542.3 1070.7 596.2 1059 611.3 964.5 613.2 965.2 573.8 908.5 573.4 906.1 446 Z" data-holc_grade="B"/>
<path d="M 1374 431 1380.7 444.7 1376.4 451.1 1375 473.3 1347 472.3 1347 486.1 1333.2 486.4 1297.8 433.3 1261.4 380.2 1370.6 372.9 1397.3 402.4 1356.8 402.1 1374 431 Z" data-holc_grade="B"/>
<path d="M 1356.1 545.2 1357.8 567.1 1345.3 568.4 1346.3 610.4 1292 612.1 1294 657.4 1240.3 658.8 1239 595.9 1310.5 592.6 1307.5 544.2 1356.1 545.2 Z" data-holc_grade="B"/>
<path d="M 1521.1 932.5 1520.6 928.9 1474.8 929.3 1476.8 879.2 1529.1 878 1529.9 902.7 1527 926.1 1521.1 932.5 Z" data-holc_grade="B"/>
<path d="M 1431 627.6 1423.9 633.9 1408 634.3 1407 591.9 1378 544.2 1399.3 543.5 1400.6 558.7 1412.4 571.8 1413.1 585.9 1430 585.9 1431.6 606.1 1417.8 607.7 1431 627.6 Z" data-holc_grade="B"/>
<path d="M 1484.4 710.1 1413.1 710.1 1401 709.5 1392.1 709.1 1389.8 656 1432.7 655.3 1452.9 655 1463 669.5 1484.6 668.1 1488.3 695 1476.5 694.7 1484.4 710.1 Z" data-holc_grade="B"/>
<path d="M 1413.1 710.1 1484.4 710.1 1501.5 743.4 1431.9 742.4 1431.6 729.6 1413 729.3 1413.1 710.1 Z" data-holc_grade="B"/>
<path d="M 2629 1419.5 2625.7 1411.7 2641.6 1406.2 2653 1430.1 2664 1423.9 2652.3 1399.4 2644.8 1402.9 2604.4 1318.4 2630.3 1312.2 2667.6 1296.9 2704.8 1277.4 2718.8 1266.7 2722.7 1279.6 2627.8 1326.7 2675.4 1428.7 2664 1434.9 2669.3 1447.5 2659.2 1452 2654.3 1445.6 2642.3 1450.8 2629 1419.5 Z" data-holc_grade="B"/>
<path d="M 2791 1248.4 2758.6 1263.7 2801.4 1348.9 2790.7 1354.1 2747.3 1270.2 2730.1 1277.3 2736 1292.2 2730.6 1295.4 2722.7 1279.6 2718.8 1266.7 2741.8 1223.1 2747.8 1211.7 2760.5 1184.2 2763 1178.7 2765.9 1182.6 2791 1248.4 Z" data-holc_grade="B"/>
<path d="M 2868.5 1141.9 2856.7 1163.1 2820.2 1143.1 2809.8 1157.6 2800 1152.2 2791.2 1164 2769.9 1154 2776.7 1133.9 2787 1103.5 2787.7 1095.8 2789.6 1072.8 2815 1085.6 2811 1107.8 2868.5 1141.9 Z" data-holc_grade="B"/>
<path d="M 2902.8 923.1 2813.9 896.6 2812.7 907.5 2813.1 917.2 2814.3 922.8 2811.1 933.8 2803.4 931.3 2799.8 932.6 2798.9 918.8 2820.2 838.5 2900 835 2899.5 827.8 2926.7 827.3 2924.3 838.6 2905 909.3 2902.8 923.1 Z" data-holc_grade="B"/>
<path d="M 598.9 1273.7 586.9 1275.3 584.6 1279.1 578.1 1283.3 571 1285.6 561.3 1282.7 547.7 1274.9 537.3 1267.7 533.1 1260.6 527.3 1246.7 528.3 1236.4 596.4 1233 598.9 1273.7 Z" data-holc_grade="B"/>
<path d="M 833.3 1920 829.5 1906.1 802.2 1914.9 772.1 1898.7 734.9 1898.6 649 1902.2 645.5 1790.3 698.9 1791.1 730 1789.4 862.6 1784.6 823.2 1857 831 1858.3 834.7 1879.2 831.3 1880.2 832.6 1890.2 896.3 1878.3 903.3 1897.5 833.3 1920 Z" data-holc_grade="B"/>
<path d="M 873.2 1973 881.3 1998.6 886.7 2003.7 869.1 2031.7 831.9 2008 820.4 2008.7 814 1992.1 873.2 1973 Z" data-holc_grade="B"/>
<path d="M 1368 1101.4 1333.4 1101.9 1330.7 1101.9 1329.1 1071.2 1366.9 1072.1 1368 1101.4 Z" data-holc_grade="B"/>
<path d="M 1272 1601.3 1386.5 1599.3 1388.9 1649.9 1344.6 1651.5 1344.9 1672.8 1312.8 1673.7 1313.5 1689.2 1305.7 1688.2 1306 1701 1288.8 1701.4 1288.8 1715.5 1276.3 1714.5 1272 1601.3 Z" data-holc_grade="B"/>
<path d="M 1157.1 2332.4 1133.2 2399.9 1047.2 2366 1061.4 2328 1106.3 2313.6 1157.1 2332.4 Z" data-holc_grade="B"/>
<path d="M 1250.3 2585.7 1250.4 2601.7 1174.3 2603 1173 2538.2 1203.5 2537.9 1202.9 2511.9 1255.3 2510.3 1258.7 2477.5 1314.6 2483 1312.2 2535.9 1250.6 2539 1250.3 2585.7 Z" data-holc_grade="B"/>
<path d="M 1439 2529.3 1428.5 2531.3 1418.3 2532.2 1420.3 2520.3 1397.4 2524.3 1371.9 2526.5 1348.3 2527.1 1352.2 2506.9 1366.8 2492.8 1385.7 2495.1 1397.4 2493.6 1410.8 2491.8 1425 2489.7 1435.8 2490.4 1444.7 2496.8 1443.3 2505.6 1439 2529.3 Z" data-holc_grade="B"/>
<path d="M 1251.4 2708.8 1250.4 2601.7 1250.3 2585.7 1274.9 2601.7 1283.6 2602.5 1290.9 2600.5 1298.7 2594.8 1298.6 2652.5 1300.3 2656.2 1300.9 2709.5 1251.4 2708.8 Z" data-holc_grade="B"/>
<path d="M 1268.6 3238.4 1277.6 3198.3 1285.9 3152.7 1262.9 3148.4 1268.8 3132.8 1271.7 3122.8 1300 3129.1 1298.7 3148.2 1284.1 3213.3 1275.9 3233.7 1268.6 3238.4 Z" data-holc_grade="B"/>
<path d="M 1211.4 3154.2 1211.4 3194.8 1162.3 3261.9 1156.6 3261.8 1157.1 3154.4 1187.4 3155.4 1211.4 3154.2 Z" data-holc_grade="B"/>
<path d="M 1676.4 1083.4 1680.8 1092.2 1615.7 1093.2 1602.8 1069.6 1596.8 1057.3 1606 1054 1618.7 1065.6 1633.5 1070.7 1654.6 1073.9 1666.5 1077.7 1676.4 1083.4 Z" data-holc_grade="B"/>
<path d="M 2921.6 627.6 2901.4 620.8 2899 485.7 2938.5 440.5 2964.1 332.4 2974.6 332.3 2963.4 375.7 2961.1 403.3 2962.9 429.1 2941.4 471.9 2932.1 501.1 2923.4 536.1 2923.6 596.9 2922.2 606.7 2921.6 627.6 Z" data-holc_grade="B"/>
<path d="M 88.4 2080.7 90 2096.3 94.1 2110.2 81.8 2113.1 68.2 2105.6 56.5 2104.6 38.3 2109.1 37.7 2080 88.4 2080.7 Z" data-holc_grade="B"/>
<path d="M 1510.4 1099.5 1479.3 1100.4 1477.2 1070.7 1477.3 1067.4 1508.2 1068 1510.4 1099.5 Z" data-holc_grade="B"/>
<path d="M 861.6 1224.6 817.7 1225.6 815.6 1142.2 816 1116.4 897.9 1112.7 898.4 1148.8 878.1 1139.6 859.5 1140.6 861.6 1224.6 Z" data-holc_grade="B"/>
<path d="M 957 1221.2 955.6 1179.5 928.1 1165.8 926 1111.1 963.1 1110.3 1034.1 1108.2 1038.6 1220.2 957 1221.2 Z" data-holc_grade="B"/>
<path d="M 1368.8 1123 1369.4 1154.3 1421.3 1152.8 1421.3 1155 1422.9 1212.2 1371.2 1214.1 1340.2 1214.7 1317.7 1214.4 1318.5 1240.3 1288.5 1241.6 1288.3 1269.1 1266.9 1268 1234.5 1269 1210.4 1270.1 1186.9 1271.2 1151.9 1271.9 1150.7 1219.2 1148.9 1162.1 1176 1161 1205.1 1159.7 1203.6 1121.7 1203 1104 1216.5 1103.6 1280.8 1101.6 1312.1 1101.8 1330.7 1101.9 1333.4 1101.9 1368 1101.4 1368.8 1123 Z" data-holc_grade="B"/>
<path d="M 1151.9 1271.9 1153 1326.6 1153.6 1355.4 1120.4 1354.9 1121.2 1385 1107.1 1385.5 1105.8 1346.2 1003.9 1351 947.7 1352 946.6 1332.6 932.7 1332.8 929.6 1243.1 954.7 1242 957.4 1235.8 957 1221.2 1038.6 1220.2 1150.7 1219.2 1151.9 1271.9 Z" data-holc_grade="B"/>
<path d="M 1374.5 1375.5 1320.4 1377.4 1320.8 1319.6 1373.1 1318.6 1374.5 1375.5 Z" data-holc_grade="B"/>
</g>
<g id="C">
<path d="M 695.6 1006.7 646.1 1006.7 641.9 960.5 669.5 959.3 692.8 958.3 695.6 1006.7 Z" data-holc_grade="C"/>
<path d="M 1613.3 1150.3 1587.6 1150.6 1584.6 1093.6 1613 1146.6 1613.3 1150.3 Z" data-holc_grade="C"/>
<path d="M 692.5 1560.3 718.9 1559.4 722.2 1626 695.8 1627.7 692.5 1560.3 Z" data-holc_grade="C"/>
<path d="M 730 1789.4 698.9 1791.1 696.6 1721 725.4 1718.7 730 1789.4 Z" data-holc_grade="C"/>
<path d="M 507.1 1794.1 342.1 1798.5 346 1908.3 320.8 1909.3 151 1913.6 144.6 1804 203.4 1802.8 201.3 1693 285.9 1690.2 286.7 1743.4 368.6 1742.9 367 1688 502.6 1684.3 507.1 1794.1 Z" data-holc_grade="C"/>
<path d="M 37.7 2080 38.3 2109.1 56.5 2104.6 68.2 2105.6 81.8 2113.1 94.1 2110.2 90 2096.3 88.4 2080.7 127.7 2081.2 128.1 2149.5 213.6 2130.6 214.4 2191.5 131.9 2194.8 70.8 2191.1 51.7 2191.7 1.6 2192.2 1 2079.5 37.7 2080 Z" data-holc_grade="C"/>
<path d="M 131.9 2194.8 131.1 2248.9 65.8 2249.7 54.4 2252.2 5 2253.7 1.6 2192.2 51.7 2191.7 70.8 2191.1 131.9 2194.8 Z" data-holc_grade="C"/>
<path d="M 656 1982.7 657.8 2011.9 658.7 2026.3 560.8 2051.4 352.7 2093.7 346 1908.3 397.7 1906.8 464 1906.6 508.2 1905.5 649 1902.2 652.4 1914.3 656 1982.7 Z" data-holc_grade="C"/>
<path d="M 894.2 1959.6 779.1 1996.8 778.8 1982 657.8 2011.9 656 1982.7 679.6 1988.5 686.8 1993 696.3 1990.6 707.4 1997.7 713.9 1988.6 736.2 1986 747.7 1980.9 757.9 1973.9 770 1972.9 794.1 1966.2 806.6 1958.8 809.7 1947.3 812.4 1939.6 818.1 1940.6 839.4 1937.2 846.9 1929.5 856.4 1918.7 877.3 1917.1 887.2 1908.7 899 1902.9 907.8 1900.9 911.5 1913.7 917.6 1923.2 919.3 1931.6 925.7 1933.6 928.7 1948.1 894.2 1959.6 Z" data-holc_grade="C"/>
<path d="M 657.8 2011.9 778.8 1982 779.1 1996.8 894.2 1959.6 902.6 1982.1 905.3 1982.8 913.1 1992.3 878.2 2050.9 955.9 2100.2 962 2099.5 961.4 2081.3 976.6 2058.4 993.9 2057.4 1051 2100.3 1084.2 2081.8 1093 2087.5 1043.2 2167.7 972.5 2129.5 833.1 2130.7 658.8 2134.5 658.7 2026.3 657.8 2011.9 Z M 873.2 1973 814 1992.1 820.4 2008.7 831.9 2008 869.1 2031.7 886.7 2003.7 881.3 1998.6 873.2 1973 Z" data-holc_grade="C"/>
<path d="M 1172.5 2209.6 1129.7 2189.8 1190.9 2088.9 1245.7 2114.8 1209.6 2176.3 1196.6 2180.2 1182 2196.7 1172.5 2209.6 Z" data-holc_grade="C"/>
<path d="M 1339.9 2089.6 1348.1 2101.3 1356.2 2128.5 1350 2140.8 1336 2142.4 1293.4 2203.5 1285 2198.4 1262.1 2233.4 1249.4 2230.1 1240.7 2217.2 1231.2 2213 1223.9 2222.8 1202.9 2228.5 1196 2224.2 1214.5 2193.1 1283.7 2170.8 1297 2147.5 1254.5 2161.1 1301.9 2082.3 1339.9 2089.6 Z" data-holc_grade="C"/>
<path d="M 1567.4 1150.9 1570.1 1207.4 1539.6 1208.4 1482.2 1210.2 1481.3 1132.4 1511.2 1131.7 1511.7 1152 1567.4 1150.9 Z" data-holc_grade="C"/>
<path d="M 1196 2224.2 1202.9 2228.5 1223.9 2222.8 1219.5 2228.5 1157.1 2332.4 1106.3 2313.6 1087.7 2305.7 1133.9 2230.8 1153.5 2240 1172.5 2209.6 1196 2224.2 Z" data-holc_grade="C"/>
<path d="M 1312.1 2267.5 1320.9 2271.6 1338.1 2304.3 1351.4 2319.5 1366.7 2340.6 1360.2 2350.3 1377.7 2352.3 1384.6 2359.1 1382.6 2384.3 1374.5 2393.1 1371.6 2408.3 1379.7 2423.8 1379.7 2435.8 1377.1 2441.3 1369.9 2448.1 1369.3 2461.4 1368 2468.2 1366.7 2477.3 1370.9 2482.1 1376.7 2483.4 1388.4 2483.4 1397.4 2493.6 1385.7 2495.1 1366.8 2492.8 1352.2 2506.9 1348.3 2527.1 1346.6 2536.9 1345.2 2550 1342 2557.3 1334.6 2567.9 1326 2576.9 1320.9 2582.2 1307.9 2584.8 1307.9 2591.1 1301 2591.7 1298.7 2594.8 1290.9 2600.5 1283.6 2602.5 1274.9 2601.7 1250.3 2585.7 1250.6 2539 1312.2 2535.9 1314.6 2483 1258.7 2477.5 1255.3 2510.3 1202.9 2511.9 1203.5 2537.9 1173 2538.2 1174.3 2603 1136.4 2603.1 1131.4 2405.2 1133.2 2399.9 1157.1 2332.4 1219.5 2228.5 1223.9 2222.8 1231.2 2213 1240.7 2217.2 1249.4 2230.1 1262.1 2233.4 1286.5 2254.4 1297.2 2260.6 1312.1 2267.5 Z" data-holc_grade="C"/>
<path d="M 1513 2247.5 1513.9 2233 1517.8 2215.8 1540.7 2225.7 1526.5 2251.2 1513 2247.5 Z" data-holc_grade="C"/>
<path d="M 1513 2247.5 1526.5 2251.2 1540.7 2225.7 1517.8 2215.8 1520.4 2203.8 1516.2 2199.3 1498.7 2192.2 1509.4 2170.8 1528.9 2181.2 1563.6 2194.1 1570.1 2197 1520.4 2291.9 1475.3 2277 1486.3 2236.5 1513 2247.5 Z" data-holc_grade="C"/>
<path d="M 1446.3 2468.4 1434.6 2465.8 1441.1 2448 1446.3 2432.1 1455.1 2428.9 1461.3 2407.8 1451.5 2404.6 1453.5 2394.2 1446.3 2392 1467.8 2306.1 1475.3 2277 1520.4 2291.9 1513.3 2302.9 1495.7 2303.2 1493.1 2319.4 1488.6 2335 1487 2342.7 1516.5 2347.6 1494.8 2388.4 1484.4 2404.3 1478.2 2403.9 1470.1 2437.6 1458.7 2436 1452.8 2460 1446.3 2468.4 Z" data-holc_grade="C"/>
<path d="M 1364.5 2732.9 1376.7 2674 1409.2 2544.4 1398 2533.9 1380 2536.1 1372 2536.3 1346.6 2536.9 1348.3 2527.1 1371.9 2526.5 1397.4 2524.3 1420.3 2520.3 1418.3 2532.2 1428.5 2531.3 1439 2529.3 1437.5 2564.2 1439.9 2617.3 1438.2 2622.4 1431.5 2630.2 1431.9 2646 1438.5 2671.2 1444.8 2670.2 1450.4 2673.5 1451.6 2676.4 1451.7 2682.9 1459.1 2685.1 1459.6 2689.6 1453.8 2693 1458.5 2705.6 1458.7 2712.7 1454.4 2722.6 1454.8 2729.9 1451.4 2738.7 1450.4 2743.5 1449.7 2754.1 1446.7 2760 1443.7 2764.9 1440.4 2773 1427.4 2769.7 1416.4 2772.5 1399.2 2775.4 1382 2778.9 1358.5 2779.6 1359.3 2762.9 1363.3 2739.3 1364.5 2732.9 Z" data-holc_grade="C"/>
<path d="M 1334.6 2567.9 1335.6 2587.3 1341.3 2587.1 1342.1 2621.1 1341.1 2656.1 1326 2655.8 1326.7 2707.8 1334.8 2708.1 1335.1 2733.1 1353.1 2733.1 1354.4 2764.2 1329.6 2873.6 1258.9 2876.9 1253.8 2780.7 1251.4 2708.8 1300.9 2709.5 1300.3 2656.2 1298.6 2652.5 1298.7 2594.8 1301 2591.7 1307.9 2591.1 1307.9 2584.8 1320.9 2582.2 1326 2576.9 1334.6 2567.9 Z" data-holc_grade="C"/>
<path d="M 1162.3 3261.9 1211.4 3194.8 1211.4 3154.2 1228.3 3153.6 1262.9 3148.4 1285.9 3152.7 1277.6 3198.3 1268.6 3238.4 1260.8 3240 1252.5 3245.1 1229.9 3240.6 1209.8 3234.3 1189.2 3261.1 1162.3 3261.9 Z" data-holc_grade="C"/>
<path d="M 1420.6 1695.3 1413.6 1703.2 1399.4 1710.6 1385.5 1712.6 1384.5 1672.1 1363.2 1672.4 1364.9 1698.7 1330.7 1699.7 1331 1769.4 1319.9 1769.8 1319.9 1807.5 1306.3 1811.9 1306.7 1847.2 1311.1 1850.9 1311.4 1856 1282.6 1859 1281.6 1819.3 1278.3 1819.6 1276.3 1714.5 1288.8 1715.5 1288.8 1701.4 1306 1701 1305.7 1688.2 1313.5 1689.2 1312.8 1673.7 1344.9 1672.8 1344.6 1651.5 1388.9 1649.9 1386.5 1599.3 1399.4 1599.3 1401.1 1629.7 1395.7 1630 1397.3 1654.9 1390.2 1655.2 1420.6 1695.3 Z" data-holc_grade="C"/>
<path d="M 1276.3 1714.5 1278.3 1819.6 1281.6 1819.3 1282.6 1859 1282.3 1870.5 1214.3 1884.6 1200.5 1849.2 1132.5 1875.1 1131.8 1820.5 1132.9 1813.1 1141.3 1802.7 1154.5 1797 1165 1795.3 1164.4 1718.8 1164.3 1715.7 1163.3 1688.2 1161.2 1627.6 1160.8 1616.5 1160.4 1603.9 1230.6 1602.3 1272 1601.3 1276.3 1714.5 Z" data-holc_grade="C"/>
<path d="M 1481.8 1229.1 1482.2 1210.2 1539.6 1208.4 1539.3 1239.3 1481.6 1240.3 1481.8 1229.1 Z" data-holc_grade="C"/>
<path d="M 2856.7 1163.1 2868.5 1141.9 2883 1140.9 2920.6 1158.9 2919.2 1165.7 2899.9 1157.7 2894.6 1170.1 2910.8 1178.5 2905.4 1189.9 2856.7 1163.1 Z" data-holc_grade="C"/>
<path d="M 2804.4 1240.8 2810 1237.7 2871.6 1271.1 2870.6 1277.2 2862.8 1280.6 2805.6 1247.1 2804.4 1240.8 Z" data-holc_grade="C"/>
<path d="M 2767.1 1368 2730.6 1295.4 2736 1292.2 2730.1 1277.3 2747.3 1270.2 2790.7 1354.1 2767.1 1368 Z" data-holc_grade="C"/>
<path d="M 2625.7 1411.7 2579.8 1322.3 2604.4 1318.4 2644.8 1402.9 2652.3 1399.4 2664 1423.9 2653 1430.1 2641.6 1406.2 2625.7 1411.7 Z" data-holc_grade="C"/>
<path d="M 1808 892.3 1808.3 977.8 1795.4 977.8 1795.8 1037.2 1743.5 1038 1744.7 979.1 1697.3 980.7 1656.4 979.9 1624 982.4 1604.1 939.1 1601.3 933.1 1617.9 928.3 1649.9 926.3 1671.4 927.1 1643.8 872.2 1647.1 868.5 1714.7 868.1 1731.1 867.2 1798.1 863.2 1798.1 867.3 1807.9 867.7 1808 892.3 Z" data-holc_grade="C"/>
<path d="M 1697.3 980.7 1699 1092.9 1680.8 1092.2 1676.4 1083.4 1654.4 1038.5 1624 982.4 1656.4 979.9 1697.3 980.7 Z" data-holc_grade="C"/>
<path d="M 1921.3 992.7 1920.7 975 1894.4 976.2 1859.1 976.3 1841.7 976.5 1808.3 977.8 1808 892.3 1852.7 890.6 1853.1 921.6 1872.3 920.9 1872 901 1884.8 901 1885.5 920.2 1973.6 918.8 1970.5 862.6 2043.1 860.9 2042.7 875 2028.6 875.7 2028.9 887.8 1998.9 888.1 1999.9 917.7 2049.2 916 2049.9 945.7 2051.9 975.8 2052.6 1014.8 1989.7 1016.8 1922.6 1020.4 1921.3 992.7 Z" data-holc_grade="C"/>
<path d="M 2143 1048 2145 1079.3 2176.2 1079.3 2183.9 1090.6 2179.7 1092.8 2208.6 1137 2147.1 1167.8 2147.4 1184.3 2109.8 1185 2109.5 1158.5 2146.1 1159.7 2144.8 1133.9 2127.9 1131.6 2127.5 1070.6 2143 1048 Z M 2143 1048 2109 1050 2108 1024.1 2123.9 1024.8 2124.5 997.6 2107.3 998.6 2107.9 970.2 2086.9 971.2 2085.8 896 2086.6 859.8 2139.6 858 2140.3 915.5 2168.7 915.2 2169.4 943.1 2141.4 943.5 2141.4 969.4 2178.2 967 2177.6 990.2 2143 1048 Z" data-holc_grade="C"/>
<path d="M 2226.6 1006.4 2226.8 1021.9 2199.7 1022.6 2199.3 993.8 2213.3 993.2 2212.3 965.7 2229.1 965.4 2229.4 921.5 2251.4 921.4 2252.2 978.6 2225.9 979.9 2226.6 1006.4 Z" data-holc_grade="C"/>
<path d="M 2315.8 1139.3 2292.2 1188.1 2262.8 1160.4 2234.9 1129.1 2199.1 1077.1 2227.3 1078.4 2226.8 1021.9 2226.6 1006.4 2312.5 1003.7 2314.4 1045.2 2286.8 1059.3 2289.6 1065.2 2307.7 1082.4 2312 1089.4 2316.1 1092.3 2326.4 1115.7 2315.8 1139.3 Z" data-holc_grade="C"/>
<path d="M 2475.4 957.5 2438.7 959.7 2364.7 960.1 2361.7 906.3 2360.2 849.6 2542.9 843.4 2541 860.9 2543.4 953.8 2530.5 954.5 2529.4 901.2 2487.9 903.6 2489 957.2 2475.4 957.5 Z" data-holc_grade="C"/>
<path d="M 704.8 1116.6 706.9 1172.1 650 1173.8 647.4 1064.9 646.1 1006.7 695.6 1006.7 736.2 1006.8 736.2 1010.7 739.4 1014.9 747.5 1018.1 749.7 1033.6 746.8 1039.1 747.1 1046.9 746.1 1062.4 702.7 1039.4 704.8 1116.6 Z" data-holc_grade="C"/>
<path d="M 2476.9 1012.1 2439.1 1013 2438.7 959.7 2475.4 957.5 2476.4 981.4 2505.9 980.1 2500.4 969.4 2514.6 968.7 2515.3 997.8 2477.4 998.8 2476.9 1012.1 Z" data-holc_grade="C"/>
<path d="M 1374.5 1375.5 1375.2 1406.5 1420.3 1431.1 1415.5 1445 1415.5 1458.9 1417.4 1476.7 1420.3 1491.5 1421.2 1540.7 1269.9 1546.4 1265.3 1382.6 1224.2 1384.1 1210.3 1384.1 1169.6 1385.1 1169.6 1354.4 1153.6 1355.4 1153 1326.6 1184.4 1326.9 1237.9 1324.8 1241.7 1320.4 1263.6 1320.7 1320.8 1319.6 1320.4 1377.4 1374.5 1375.5 Z" data-holc_grade="C"/>
<path d="M 1481.8 1229.1 1373.2 1230.2 1371.2 1214.1 1422.9 1212.2 1482.2 1210.2 1481.8 1229.1 Z" data-holc_grade="C"/>
<path d="M 1481.8 1229.1 1481.6 1240.3 1476.3 1242.7 1476.3 1266.7 1372.3 1268.3 1372.5 1283.4 1373.1 1318.6 1320.8 1319.6 1263.6 1320.7 1241.7 1320.4 1237.9 1324.8 1184.4 1326.9 1153 1326.6 1151.9 1271.9 1186.9 1271.2 1210.4 1270.1 1234.5 1269 1266.9 1268 1288.3 1269.1 1288.5 1241.6 1318.5 1240.3 1317.7 1214.4 1340.2 1214.7 1371.2 1214.1 1373.2 1230.2 1481.8 1229.1 Z" data-holc_grade="C"/>
<path d="M 1438.1 1315.7 1451.5 1315.4 1453.4 1393.3 1456 1397.8 1457.3 1453.1 1420.3 1431.1 1375.2 1406.5 1374.5 1375.5 1373.1 1318.6 1372.5 1283.4 1431.7 1282.1 1432.4 1294.1 1421 1293.4 1422 1316 1438.1 1315.7 Z" data-holc_grade="C"/>
<path d="M 1457.3 1453.1 1507.6 1480 1487.8 1508.7 1491.1 1521 1482.6 1527.1 1485.4 1575.6 1528.8 1653.7 1496 1651 1458.5 1652.4 1454.8 1599.1 1435.2 1598.8 1429.5 1540.4 1421.2 1540.7 1420.3 1491.5 1417.4 1476.7 1415.5 1458.9 1415.5 1445 1420.3 1431.1 1457.3 1453.1 Z" data-holc_grade="C"/>
<path d="M 1491.1 1521 1487.8 1508.7 1507.6 1480 1457.3 1453.1 1456 1397.8 1453.4 1393.3 1451.5 1315.4 1438.1 1315.7 1439.9 1306.7 1457.4 1303.4 1485.2 1284.7 1486.3 1333.7 1487.4 1390 1502 1384.6 1553.1 1486.4 1589.6 1469.7 1602.2 1495.2 1590.9 1523.9 1559.6 1508.9 1548.7 1529.9 1532.9 1539.2 1523.1 1521.5 1506.1 1529.1 1491.1 1521 Z" data-holc_grade="C"/>
<path d="M 1560.4 1356.8 1502 1384.6 1487.4 1390 1486.3 1333.7 1537.1 1308.6 1560.4 1356.8 Z" data-holc_grade="C"/>
<path d="M 1613.1 1458.9 1589.6 1469.7 1553.1 1486.4 1502 1384.6 1560.4 1356.8 1613.1 1458.9 Z" data-holc_grade="C"/>
<path d="M 1633.3 1257.2 1606 1273.9 1642 1274.4 1675 1336.8 1651.7 1349 1658.2 1364.1 1657.1 1373.5 1636.1 1382.1 1661.8 1433 1631.2 1449.3 1613.1 1458.9 1560.4 1356.8 1537.1 1308.6 1486.3 1333.7 1485.2 1284.7 1559.6 1244.3 1562 1248.9 1613.9 1220.3 1633.3 1257.2 Z" data-holc_grade="C"/>
<path d="M 813.5 1043.6 816 1116.4 815.6 1142.2 761.1 1143.5 760.8 1132.2 766.7 1126.7 763.1 1116.3 757.8 1106.5 759.9 1098.7 756.2 1083.6 757.3 1075.3 761.9 1069.9 762.2 1061.3 787 1060.5 786.2 1035.2 813.1 1033.9 813.5 1043.6 Z" data-holc_grade="C"/>
<path d="M 1710.4 1403.6 1713.6 1411.5 1697.7 1419.6 1666.4 1435.7 1661.8 1433 1636.1 1382.1 1657.1 1373.5 1658.2 1364.1 1651.7 1349 1675 1336.8 1710.4 1403.6 Z" data-holc_grade="C"/>
<path d="M 1775.3 1280.9 1826.8 1254.9 1853.3 1309.3 1802.3 1335.5 1814.3 1359.6 1762.8 1384.8 1759.6 1379.1 1710.4 1403.6 1675 1336.8 1642 1274.4 1606 1273.9 1633.3 1257.2 1660.1 1242.4 1700.1 1318.8 1775.3 1280.9 Z" data-holc_grade="C"/>
<path d="M 1590.9 1523.9 1657.5 1560.7 1581.5 1600.5 1540.6 1596.8 1506.1 1529.1 1523.1 1521.5 1532.9 1539.2 1548.7 1529.9 1559.6 1508.9 1590.9 1523.9 Z" data-holc_grade="C"/>
<path d="M 1657.5 1560.7 1590.9 1523.9 1602.2 1495.2 1589.6 1469.7 1613.1 1458.9 1631.2 1449.3 1679.6 1552.5 1657.5 1560.7 Z" data-holc_grade="C"/>
<path d="M 1666.4 1435.7 1713.3 1533.8 1679.6 1552.5 1631.2 1449.3 1661.8 1433 1666.4 1435.7 Z" data-holc_grade="C"/>
<path d="M 1742.5 1519.1 1713.3 1533.8 1666.4 1435.7 1697.7 1419.6 1742.5 1519.1 Z" data-holc_grade="C"/>
<path d="M 1779.9 1419 1765.8 1393.1 1762.8 1384.8 1814.3 1359.6 1869.1 1470.1 1818.1 1498 1809.9 1485.2 1800.9 1465.8 1785 1473.3 1795.1 1492.7 1742.5 1519.1 1697.7 1419.6 1713.6 1411.5 1736.6 1456.2 1786.6 1432.7 1779.9 1419 Z" data-holc_grade="C"/>
<path d="M 1980.9 1139.8 1979.8 1113.5 1931.1 1114.3 1944.1 1140.9 1953.9 1160.9 1930.4 1172.7 1905.2 1122.7 1928.2 1110.5 1982.3 1082.4 2061 1080.8 2061.9 1136.5 1997.9 1138.2 1980.9 1139.8 Z" data-holc_grade="C"/>
<path d="M 2148.4 1227.6 2151.2 1308.6 2155.7 1318 2133.4 1330.6 2116.2 1346.9 2108.1 1338.3 2106.4 1299.5 2127.5 1300.1 2121 1268.8 2133.9 1218.7 2148.1 1218.5 2148.4 1227.6 Z" data-holc_grade="C"/>
<path d="M 2155.7 1318 2151.2 1308.6 2148.4 1227.6 2179 1227.5 2179.7 1278.6 2166.4 1278.6 2166.1 1312.5 2155.7 1318 Z" data-holc_grade="C"/>
<path d="M 926 1111.1 897.9 1112.7 816 1116.4 813.5 1043.6 831.1 1045 855.4 1044 922.9 1041.3 926 1111.1 Z" data-holc_grade="C"/>
<path d="M 1045.8 1443.8 1045 1415.3 1044.2 1388.8 1072.1 1388.5 1072.4 1403.4 1099.4 1402.8 1099.4 1407 1124.7 1406 1124.3 1398.9 1154.2 1398.3 1155.5 1415.1 1156.1 1439.3 1158.5 1532.7 1122.9 1533 1123 1497.1 1088.2 1498.4 1087.6 1533.6 1080.4 1534.3 1079.8 1511.3 1067.1 1512 1064.9 1479.6 1073 1479.3 1071.7 1443.8 1045.8 1443.8 Z" data-holc_grade="C"/>
<path d="M 1230.6 1602.3 1160.4 1603.9 1158.5 1532.7 1156.1 1439.3 1155.5 1415.1 1210.6 1414.1 1210.3 1384.1 1224.2 1384.1 1227.8 1436.7 1233.3 1436.5 1235.2 1492.1 1214.1 1493 1213.8 1507.6 1188.5 1508.5 1189.1 1532.8 1214.8 1531.8 1215.7 1548.9 1236.2 1548.6 1236.8 1569 1230.3 1569 1230.6 1602.3 Z" data-holc_grade="C"/>
<path d="M 1051 1662 1052.1 1702.7 1054.2 1746.1 1033.4 1746.9 1029.9 1689.5 964.5 1692.9 961.2 1665.9 941.8 1665.9 939.4 1609.3 1027.3 1608.1 1026.2 1581.4 1047.6 1580.9 1051 1662 Z" data-holc_grade="C"/>
<path d="M 1163.3 1688.2 1136.5 1689.3 1137 1716 1122.1 1716.2 1121.3 1702.7 1107 1703 1107.5 1716.2 1080.2 1716.7 1079.9 1702.7 1052.1 1702.7 1051 1662 1102.4 1662 1100.8 1628.4 1108.1 1628.1 1161.2 1627.6 1163.3 1688.2 Z" data-holc_grade="C"/>
<path d="M 1476.6 2151.7 1409.3 2270.8 1366.7 2340.6 1351.4 2319.5 1338.1 2304.3 1320.9 2271.6 1312.1 2267.5 1379.7 2159.4 1383.3 2153.7 1396.3 2129.9 1416.6 2140.8 1430 2121 1469.4 2145.2 1476.6 2151.7 Z" data-holc_grade="C"/>
<path d="M 1491.1 1802.8 1476.7 1810.7 1450.9 1764 1424.7 1714.7 1438.9 1707.9 1468.6 1759.3 1491.1 1802.8 Z" data-holc_grade="C"/>
<path d="M 1603.6 1881.4 1613.3 1900.2 1600.3 1907 1603.6 1914.1 1586.1 1922.9 1592.6 1939 1573.1 1950.4 1561.4 1925.1 1544.8 1934.2 1554.2 1960.4 1561.4 1973 1542.6 1985.6 1531.5 1967.2 1512.4 1976.6 1513 1985 1525 2002.5 1510.1 2011.2 1505.2 2009.9 1489 1968.5 1490.6 1957.2 1501 1955.5 1500.7 1947.5 1485.4 1912.2 1506.2 1902.8 1523.7 1867.5 1545.5 1862.7 1573.1 1865.3 1589.9 1868.8 1596.1 1883.7 1603.6 1881.4 Z" data-holc_grade="C"/>
<path d="M 1680.5 1949.3 1665.9 1957.1 1644.5 1913.8 1658.5 1908 1680.5 1949.3 Z" data-holc_grade="C"/>
<path d="M 1801.5 1878.8 1767.1 1899.4 1757.7 1887.8 1770.8 1880.7 1736 1841.9 1766.5 1825.7 1793.2 1856.8 1801.5 1878.8 Z" data-holc_grade="C"/>
<path d="M 1900 1692.4 1776.9 1626.4 1772.2 1623.8 1791.1 1584.6 1800.2 1581.9 1802.9 1591.3 1814.7 1586.3 1803.9 1555.6 1837.5 1540.3 1900 1692.4 Z" data-holc_grade="C"/>
<path d="M 1203.6 1121.7 1175.9 1123.4 1176 1161 1148.9 1162.1 1134 1162.1 1131.6 1107.5 1155.1 1106.3 1203 1104 1203.6 1121.7 Z" data-holc_grade="C"/>
<path d="M 1920.9 1540.8 1913.6 1529.2 1902 1534.6 1902.8 1538.1 1892.5 1542.7 1898.5 1558.2 1873.3 1569.9 1855.9 1532 1851.9 1522.8 1912.2 1488.3 1933.6 1535.1 1920.9 1540.8 Z" data-holc_grade="C"/>
<path d="M 2101.6 1415.5 2101.3 1415.6 2129.5 1472.1 2068.7 1502.1 2013.7 1394.7 2053.2 1374.5 2056.7 1375.5 2072.6 1368.3 2079.7 1380.6 2084.5 1381.7 2101.6 1415.5 Z" data-holc_grade="C"/>
<path d="M 2214.9 1347.3 2257.3 1437.6 2273.2 1465.5 2251.6 1478.7 2289.5 1539.6 2285.1 1542.3 2314.6 1594.7 2290.6 1613.5 2261.4 1554.6 2217.6 1576.3 2150.9 1436.8 2136.5 1408.7 2141 1406.1 2132.9 1389 2127.3 1390.8 2109.2 1355.6 2116.2 1346.9 2133.4 1330.6 2155.7 1318 2194.7 1389.4 2214.9 1347.3 Z" data-holc_grade="C"/>
<path d="M 2314.6 1594.7 2285.1 1542.3 2289.5 1539.6 2251.6 1478.7 2273.2 1465.5 2278.6 1460.8 2316.5 1524.4 2339.9 1568.8 2314.6 1594.7 Z" data-holc_grade="C"/>
<path d="M 2316.5 1524.4 2278.6 1460.8 2273.2 1465.5 2257.3 1437.6 2214.9 1347.3 2248.1 1278.1 2278.9 1271.3 2304.4 1260.6 2313.1 1281 2324.2 1276.6 2342.9 1308.2 2339.5 1312.9 2351.4 1336.5 2363.9 1329.4 2395.4 1391.2 2328.9 1430.4 2369.9 1499.4 2316.5 1524.4 Z" data-holc_grade="C"/>
<path d="M 2423.7 1494.1 2402.7 1507.7 2398.8 1511 2382.8 1524.2 2369.9 1499.4 2328.9 1430.4 2395.4 1391.2 2441.2 1482.7 2423.7 1494.1 Z" data-holc_grade="C"/>
<path d="M 2361.1 1546.8 2376.5 1530.8 2399.5 1581.5 2379.2 1590.6 2361.1 1546.8 Z" data-holc_grade="C"/>
<path d="M 2442.9 1535.5 2444 1537.9 2420 1547.8 2398.8 1511 2402.7 1507.7 2423.7 1494.1 2430.4 1507.3 2442.9 1535.5 Z" data-holc_grade="C"/>
<path d="M 2331.7 1249.2 2337.8 1247.1 2380.5 1231.9 2394.5 1261.6 2366 1275.9 2339.3 1250.7 2331.7 1249.2 Z" data-holc_grade="C"/>
<path d="M 2604.4 1318.4 2579.8 1322.3 2625.7 1411.7 2629 1419.5 2605.3 1431.6 2583 1443 2568.1 1450.6 2541.5 1454.2 2514.2 1456.9 2451.7 1338.7 2441 1324.5 2399.7 1301.7 2460.5 1272.4 2466.8 1285.4 2564 1237 2604.4 1318.4 Z" data-holc_grade="C"/>
<path d="M 1421.3 1152.8 1369.4 1154.3 1368.8 1123 1420.7 1120.8 1421.3 1152.8 Z" data-holc_grade="C"/>
<path d="M 2572.4 1521.7 2541.5 1454.2 2568.1 1450.6 2583 1443 2606.4 1497.1 2587.6 1506.5 2589.9 1512.9 2572.4 1521.7 Z" data-holc_grade="C"/>
<path d="M 2555.3 1529.7 2572.4 1521.7 2589.9 1512.9 2587.6 1506.5 2606.4 1497.1 2583 1443 2605.3 1431.6 2622.6 1468.6 2646.7 1523.5 2609.1 1540.7 2615.7 1556.5 2587.5 1566 2578 1564.4 2566.3 1540.2 2559.8 1543.1 2555.3 1529.7 Z" data-holc_grade="C"/>
<path d="M 2642.3 1450.8 2672.3 1513.7 2671.4 1525.4 2678.9 1536.3 2678.9 1546.7 2668.2 1539.9 2657.5 1544.1 2657.8 1539.3 2657.5 1530.6 2662 1526.4 2657.4 1519.3 2646.7 1523.5 2622.6 1468.6 2605.3 1431.6 2629 1419.5 2642.3 1450.8 Z" data-holc_grade="C"/>
<path d="M 2715.8 1113.1 2736.8 1153.7 2715.6 1163.2 2741.8 1223.1 2718.8 1266.7 2639.7 1103.5 2643.8 1098.1 2664.4 1081.2 2673.2 1077.8 2693.9 1124.2 2715.8 1113.1 Z" data-holc_grade="C"/>
<path d="M 2741.8 1223.1 2715.6 1163.2 2736.8 1153.7 2715.8 1113.1 2696.1 1066.4 2703.2 1063.6 2760.5 1184.2 2747.8 1211.7 2741.8 1223.1 Z" data-holc_grade="C"/>
<path d="M 2787.7 1095.8 2787 1103.5 2776.7 1133.9 2760.1 1140.2 2724.4 1063.6 2787.7 1095.8 Z" data-holc_grade="C"/>
<path d="M 1693.5 1115.4 1615.7 1154.6 1613.3 1150.3 1613 1146.6 1584.6 1093.6 1615.7 1093.2 1680.8 1092.2 1693.5 1115.4 Z" data-holc_grade="C"/>
<path d="M 1700.4 1130.3 1703.2 1136.4 1652.4 1163.3 1619 1160.5 1615.7 1154.6 1693.5 1115.4 1700.4 1130.3 Z" data-holc_grade="C"/>
<path d="M 1775.3 1280.9 1700.1 1318.8 1660.1 1242.4 1737 1202.2 1775.3 1280.9 Z" data-holc_grade="C"/>
<path d="M 1481.3 1132.4 1482.2 1210.2 1422.9 1212.2 1421.3 1155 1421.3 1152.8 1420.7 1120.8 1420.3 1100.4 1479.3 1100.4 1481.3 1132.4 Z" data-holc_grade="C"/>
<path d="M 1775.3 1280.9 1737 1202.2 1787.6 1175.8 1820.3 1242.6 1826.8 1254.9 1775.3 1280.9 Z" data-holc_grade="C"/>
<path d="M 1968.5 1192.3 1977.3 1210.4 1954.6 1221.7 1938.1 1190.2 1920.8 1197.3 1959.5 1278.3 1984.6 1266.1 1971.9 1239.5 1989.5 1231.1 2002.7 1255.7 2006 1261.8 1964.4 1282.3 1964.9 1285 1949 1291.2 1941.9 1274.8 1923.3 1282.1 1909.5 1249.8 1924.3 1243.3 1919.2 1233.9 1909.2 1238.2 1886.8 1192.7 1930.4 1172.7 1953.9 1160.9 1968.5 1192.3 Z" data-holc_grade="C"/>
<path d="M 1062.3 51.3 1064.5 60.3 1076.7 62.4 1077.8 103.4 1032 104.7 1020.3 130.7 1010.1 153.1 990.5 153.6 996.4 145.3 997.2 136.7 996.7 107.9 984 100.4 983 83.2 983.8 73.5 987.3 65.5 987.3 58.2 994.9 47.8 1001.4 48.3 1001.9 57.4 1018.6 58 1018.9 47.2 1031 47.5 1037.2 62.3 1049.3 56.7 1062.3 51.3 Z" data-holc_grade="C"/>
<path d="M 1089.8 213.5 1087.1 162 1091.5 158.3 1074.7 135.8 1068.3 137.5 1066.3 130.1 1020.3 130.7 1032 104.7 1077.8 103.4 1086.3 103.5 1086.7 113.7 1111.8 113.9 1112 117.2 1114.5 143.5 1139.6 142.7 1141.7 211.7 1089.8 213.5 Z" data-holc_grade="C"/>
<path d="M 1089.8 213.5 1038.7 215.1 977.7 217.5 976.1 195.2 968.9 189.5 979.1 181.5 983.2 177.7 987.5 165.4 990.5 153.6 1010.1 153.1 1020.3 130.7 1066.3 130.1 1068.3 137.5 1074.7 135.8 1091.5 158.3 1087.1 162 1089.8 213.5 Z" data-holc_grade="C"/>
<path d="M 1495.4 261.4 1449.9 263 1449.2 265.4 1422.6 264.7 1341 266 1336.3 205.6 1324.9 195.8 1327.9 182.4 1336.3 182.8 1336.3 154.2 1358.6 155.2 1358.6 145.8 1383.8 145.2 1383.5 133.4 1395 120.3 1393.3 92.5 1444.5 90.8 1446.5 151.2 1554 148.2 1555.7 201.2 1505.8 202.3 1495.4 261.4 Z" data-holc_grade="C"/>
<path d="M 1261.4 380.2 1234.5 381.1 1235.7 436.6 1236.3 472.1 1196.9 474 1196 382.4 1125.4 383 1121.9 328.1 1221.6 326.3 1261.4 380.2 Z" data-holc_grade="C"/>
<path d="M 1236.3 472.1 1237.4 546.5 1189.1 549.1 1129.2 551.3 1128.6 490.4 1125.4 383 1196 382.4 1196.9 474 1236.3 472.1 Z" data-holc_grade="C"/>
<path d="M 1333.2 486.4 1378 544.2 1356.1 545.2 1307.5 544.2 1237.4 546.5 1236.3 472.1 1235.7 436.6 1297.8 433.3 1333.2 486.4 Z" data-holc_grade="C"/>
<path d="M 1455.3 428.6 1374 431 1356.8 402.1 1397.3 402.4 1402 409.8 1428 408.8 1422.6 264.7 1449.2 265.4 1449.9 263 1495.4 261.4 1478.2 357.8 1512.9 357.8 1519 365.1 1513.9 365.8 1512.6 389 1471.5 391.7 1466.1 429 1455.3 428.6 Z" data-holc_grade="C"/>
<path d="M 1476.8 879.2 1474.8 929.3 1422.8 933.4 1426.9 883.3 1434.3 876.6 1476.8 879.2 Z" data-holc_grade="C"/>
<path d="M 1457.6 485.6 1450.5 519.6 1446.8 541.4 1449.8 557.5 1457.6 621.1 1482.6 628.8 1484.9 653.7 1452.9 655 1432.7 655.3 1431 627.6 1417.8 607.7 1431.6 606.1 1430 585.9 1413.1 585.9 1412.4 571.8 1400.6 558.7 1399.3 543.5 1378 544.2 1333.2 486.4 1347 486.1 1347 472.3 1375 473.3 1376.4 451.1 1380.7 444.7 1374 431 1455.3 428.6 1457.6 458.5 1457.6 485.6 Z" data-holc_grade="C"/>
<path d="M 1525.1 511.2 1483.2 511.8 1482.9 519.2 1450.5 519.6 1457.6 485.6 1511.2 484.3 1511.2 462.1 1527.8 461.8 1529.1 482.3 1524.7 482.6 1525.1 511.2 Z" data-holc_grade="C"/>
<path d="M 1525.4 540.6 1505.2 541.1 1480.2 540.4 1481.5 614.3 1493.7 614.7 1494.7 623.7 1532.5 623.1 1532.1 612.3 1546.7 611 1547.7 622.1 1563.7 622 1565.1 650.9 1513.8 652.5 1484.9 653.7 1482.6 628.8 1457.6 621.1 1449.8 557.5 1446.8 541.4 1450.5 519.6 1482.9 519.2 1483.2 511.8 1525.1 511.2 1525.4 540.6 Z" data-holc_grade="C"/>
<path d="M 1562.4 596.1 1563.7 622 1547.7 622.1 1546.7 611 1532.1 612.3 1532.5 623.1 1494.7 623.7 1493.7 614.7 1481.5 614.3 1480.2 540.4 1505.2 541.1 1525.4 540.6 1561.8 539.7 1562.4 596.1 Z" data-holc_grade="C"/>
<path d="M 1239 595.9 1237.4 546.5 1307.5 544.2 1310.5 592.6 1239 595.9 Z" data-holc_grade="C"/>
<path d="M 1548.5 763.3 1548.5 766.3 1534.1 765.5 1511.4 766.3 1501.5 743.4 1484.4 710.1 1476.5 694.7 1488.3 695 1484.6 668.1 1463 669.5 1452.9 655 1484.9 653.7 1513.8 652.5 1514.9 678.3 1543.5 723 1546.7 763.3 1548.5 763.3 Z" data-holc_grade="C"/>
<path d="M 1389.8 656 1392.1 709.1 1401 709.5 1400.9 767.9 1382.7 768.6 1383 826.8 1357.7 826.4 1357.2 811.6 1351.7 655.7 1389.8 656 Z" data-holc_grade="C"/>
<path d="M 1476.8 879.2 1434.3 876.6 1437 829.8 1383 826.8 1382.7 768.6 1400.9 767.9 1401 709.5 1413.1 710.1 1413 729.3 1431.6 729.6 1431.9 742.4 1501.5 743.4 1511.4 766.3 1534.9 813.7 1549.1 814.1 1549.9 803.6 1574 804 1577.1 876.2 1529.1 878 1476.8 879.2 Z" data-holc_grade="C"/>
<path d="M 1629.9 870.4 1612.3 871.8 1612.3 887.7 1586 889.7 1577.1 876.2 1574 804 1549.9 803.6 1549.1 814.1 1534.9 813.7 1511.4 766.3 1534.1 765.5 1548.5 766.3 1548.5 763.3 1562.4 763.3 1629.9 870.4 Z" data-holc_grade="C"/>
<path d="M 1731.1 867.2 1714.7 868.1 1711.8 821.7 1681.1 822.1 1679 759.6 1723.6 758.8 1731.1 867.2 Z M 1618.5 594.3 1676.2 592.5 1676.8 649.3 1631.5 650.9 1618.5 594.3 Z" data-holc_grade="C"/>
<path d="M 1587.6 1150.6 1567.4 1150.9 1511.7 1152 1511.2 1131.7 1510.4 1099.5 1534 1096.8 1582 1096 1582 1093.8 1584.6 1093.6 1587.6 1150.6 Z" data-holc_grade="C"/>
<path d="M 2168.1 687.5 2102.3 690 2104.3 664.8 2080.6 659.1 2081.9 592.9 2101.1 593.2 2100.4 521 2183 518.5 2186.2 633.1 2168.6 633.1 2168.1 687.5 Z" data-holc_grade="C"/>
<path d="M 2102.3 690 2168.1 687.5 2174.8 687.2 2175.6 781.3 2179.4 857.3 2139.6 858 2086.6 859.8 2080.9 860.1 2079.7 727.3 2102.3 703.1 2102.3 690 Z" data-holc_grade="C"/>
<path d="M 2605.4 615.2 2605.1 609.6 2530.8 612.3 2529.4 562.3 2541.1 561.3 2545.4 447.1 2592.3 444.1 2589.9 390 2655.3 385.9 2653.9 330.2 2740.6 326.4 2710 391.6 2668.5 482.7 2646.6 529.5 2613.9 531.8 2599.1 559.9 2621.4 559.6 2622.4 579.6 2627 580.2 2628.9 589.9 2629 614.4 2605.4 615.2 Z" data-holc_grade="C"/>
<path d="M 2952.4 778.4 2943.2 790.1 2926.7 827.3 2899.5 827.8 2900 835 2820.2 838.5 2763.9 839 2800 715.9 2849 571.8 2863.5 540.3 2858.2 378.2 2908.4 376.9 2904.9 295.8 2950 223.6 2999 250 2993.8 258.9 2991.8 274.2 2984.9 283.1 2974.6 332.3 2964.1 332.4 2938.5 440.5 2899 485.7 2901.4 620.8 2921.6 627.6 2924.9 636.5 2921.3 650.6 2921.8 668.8 2899.9 662.4 2901.2 713.6 2905.3 727.3 2943.4 740.1 2952.4 778.4 Z" data-holc_grade="C"/>
<path d="M 2429.6 736.8 2458.8 736.1 2459.4 711.6 2471 710.3 2471.3 693.5 2489.1 682.2 2522.5 681.1 2537 687.2 2516.4 732.8 2480.5 734.1 2480.5 748 2501.6 757 2484.5 790.6 2428.7 793 2429.6 736.8 Z" data-holc_grade="C"/>
<path d="M 254.1 765.4 256.9 799.3 85.2 807.7 80.2 695.6 249.1 689.6 254.1 765.4 Z" data-holc_grade="C"/>
<path d="M 630.1 899.4 515.8 902.4 429.2 907.9 368.8 907.7 368.9 870.2 309.8 838.2 310.3 826.9 256.9 799.3 254.1 765.4 280.5 765.1 364.2 804 424.5 827.2 562.1 875.5 630.1 899.4 Z" data-holc_grade="C"/>
<path d="M 641.9 960.5 646.1 1006.7 647.4 1064.9 582.8 1066.4 581.3 1008.7 504.4 955.7 429.2 907.9 515.8 902.4 630.1 899.4 638.5 899.1 641.9 960.5 Z" data-holc_grade="C"/>
<path d="M 709 1227.3 691.7 1227.6 640.8 1228.9 643.3 1255.3 634.6 1257.9 628.1 1264.4 613.5 1272.1 598.9 1273.7 596.4 1233 528.3 1236.4 526.1 1179.5 595.2 1178.4 646.7 1173.9 650 1173.8 706.9 1172.1 709 1227.3 Z" data-holc_grade="C"/>
<path d="M 565.3 1452.7 638.3 1449.8 640.6 1505 589.5 1506.6 588.6 1472.3 566.3 1472.6 565.3 1452.7 Z" data-holc_grade="C"/>
</g>
<g id="D">
<path d="M 669.5 959.3 641.9 960.5 638.5 899.1 667.6 899.2 669.5 959.3 Z" data-holc_grade="D"/>
<path d="M 1164.3 1715.7 1137 1716 1136.5 1689.3 1163.3 1688.2 1164.3 1715.7 Z" data-holc_grade="D"/>
<path d="M 1615.7 1154.6 1619 1160.5 1636.3 1191.8 1660.1 1242.4 1633.3 1257.2 1613.9 1220.3 1606 1205.2 1570.1 1207.4 1567.4 1150.9 1587.6 1150.6 1613.3 1150.3 1615.7 1154.6 Z" data-holc_grade="D"/>
<path d="M 1787.6 1175.8 1737 1202.2 1660.1 1242.4 1636.3 1191.8 1660.3 1182.3 1671.7 1204.7 1774.1 1149.5 1787.6 1175.8 Z" data-holc_grade="D"/>
<path d="M 1795.8 1037.2 1797.5 1088.4 1742.5 1091 1748 1104.1 1700.4 1130.3 1693.5 1115.4 1680.8 1092.2 1699 1092.9 1697.3 980.7 1744.7 979.1 1743.5 1038 1795.8 1037.2 Z" data-holc_grade="D"/>
<path d="M 1839.9 1086.3 1797.5 1088.4 1795.8 1037.2 1795.4 977.8 1808.3 977.8 1841.7 976.5 1839.9 1086.3 Z" data-holc_grade="D"/>
<path d="M 1902.9 1060.5 1856 1086.2 1839.9 1086.3 1841.7 976.5 1859.1 976.3 1902.9 1060.5 Z" data-holc_grade="D"/>
<path d="M 1922.6 1020.4 1923.3 1031.1 1923.3 1051.1 1902.9 1060.5 1859.1 976.3 1894.4 976.2 1894.1 993 1921.3 992.7 1922.6 1020.4 Z" data-holc_grade="D"/>
<path d="M 2143 1048 2127.5 1070.6 2127.9 1131.6 2103.3 1133.9 2095.8 1131 2120.4 1080 2103.9 1080.6 2103.9 1099.4 2084.1 1098.4 2084.4 1080.3 2061 1080.8 1982.3 1082.4 1928.2 1110.5 1902.9 1060.5 1923.3 1051.1 1924.6 1062.1 1972.6 1060.8 2032.5 1057.5 2033.8 1027.1 1999.4 1027.2 1923.3 1031.1 1922.6 1020.4 1989.7 1016.8 2052.6 1014.8 2051.9 975.8 2049.9 945.7 2049.2 916 2057.7 916.7 2057.6 896.7 2085.8 896 2086.9 971.2 2107.9 970.2 2107.3 998.6 2124.5 997.6 2123.9 1024.8 2108 1024.1 2109 1050 2143 1048 Z" data-holc_grade="D"/>
<path d="M 1851.3 1177.9 1839.7 1182.5 1827.5 1160.2 1822.1 1162.1 1804.6 1122.3 1817.8 1115 1813.7 1108.2 1839.9 1095 1875.4 1166.9 1851.3 1177.9 Z" data-holc_grade="D"/>
<path d="M 1928.2 1110.5 1905.2 1122.7 1930.4 1172.7 1886.8 1192.7 1864.3 1203 1851.3 1177.9 1875.4 1166.9 1839.9 1095 1856 1086.2 1902.9 1060.5 1928.2 1110.5 Z" data-holc_grade="D"/>
<path d="M 815.6 1142.2 817.7 1225.6 861.6 1224.6 929 1223.2 929.6 1243.1 932.7 1332.8 933.9 1391.6 990.7 1441.4 992.3 1416.2 1045 1415.3 1045.8 1443.8 1045.8 1487.1 1029.5 1496.4 883.5 1500.5 877.2 1391.5 768.2 1392.7 768.2 1389.8 715 1390 712.5 1335.7 748.8 1334.8 750.1 1355.8 762.1 1354.2 763.4 1372.3 795.5 1371.7 794.6 1336.8 793 1284 761.5 1285.3 759.7 1247.5 734.4 1227.7 724 1227.4 723.7 1238.4 717.8 1240.6 718.1 1279.1 711 1279.1 709 1227.3 706.9 1172.1 704.8 1116.6 763.1 1116.3 766.7 1126.7 760.8 1132.2 761.1 1143.5 815.6 1142.2 Z" data-holc_grade="D"/>
<path d="M 2030.5 1194.3 1968.5 1192.3 1953.9 1160.9 1944.1 1140.9 1980.9 1139.8 1997.9 1138.2 2061.9 1136.5 2061.7 1161.3 2036 1163.2 2035.8 1194.4 2030.5 1194.3 Z" data-holc_grade="D"/>
<path d="M 1762.8 1384.8 1765.8 1393.1 1752 1400.1 1766.4 1426.5 1779.9 1419 1786.6 1432.7 1736.6 1456.2 1713.6 1411.5 1710.4 1403.6 1759.6 1379.1 1762.8 1384.8 Z" data-holc_grade="D"/>
<path d="M 1926.9 1393.8 1944 1427.7 1975.3 1413.7 1980.2 1424.2 1936.1 1445.5 1931 1436.6 1925.1 1443.6 1869.1 1470.1 1814.3 1359.6 1802.3 1335.5 1853.3 1309.3 1900.7 1406.5 1926.9 1393.8 Z" data-holc_grade="D"/>
<path d="M 1926.9 1393.8 1900.7 1406.5 1853.3 1309.3 1826.8 1254.9 1820.3 1242.6 1830.8 1237.7 1824.3 1223.4 1846.2 1211.1 1862.6 1237.2 1899.6 1296.1 1885.2 1303.6 1898.7 1334.6 1911.7 1329.2 1922.5 1335.9 1934.2 1355.3 1948.8 1349.6 1962.8 1376.3 1926.9 1393.8 Z" data-holc_grade="D"/>
<path d="M 1886.8 1192.7 1909.2 1238.2 1919.2 1233.9 1924.3 1243.3 1909.5 1249.8 1923.3 1282.1 1941.9 1274.8 1949 1291.2 1964.9 1285 1964.4 1282.3 2006 1261.8 2030.1 1309.7 2023.6 1321.5 1992.8 1335 1987.4 1327.5 1956.6 1342.3 1937.9 1304.1 1943.6 1301.2 1938.7 1290.1 1922.8 1297.1 1920.6 1293.1 1902.5 1300.7 1899.6 1296.1 1862.6 1237.2 1846.2 1211.1 1864.3 1203 1886.8 1192.7 Z M 1968.5 1192.3 2030.5 1194.3 2028.3 1218.4 2010.8 1227.1 2011.9 1249.9 2002.7 1255.7 1989.5 1231.1 1971.9 1239.5 1984.6 1266.1 1959.5 1278.3 1920.8 1197.3 1938.1 1190.2 1954.6 1221.7 1977.3 1210.4 1968.5 1192.3 Z" data-holc_grade="D"/>
<path d="M 2109.2 1355.6 2084.5 1381.7 2079.7 1380.6 2072.6 1368.3 2056.7 1375.5 2053.2 1374.5 2013.7 1394.7 1981.3 1409.8 1967.6 1384.8 2051.3 1343.2 2030.7 1302.9 2035.6 1295.9 2033.9 1252.8 2062 1202.7 2063.1 1245.2 2117.7 1243 2118.2 1218.8 2133.9 1218.7 2121 1268.8 2127.5 1300.1 2106.4 1299.5 2108.1 1338.3 2116.2 1346.9 2109.2 1355.6 Z" data-holc_grade="D"/>
<path d="M 2214.9 1347.3 2194.7 1389.4 2155.7 1318 2166.1 1312.5 2166.4 1278.6 2179.7 1278.6 2179 1227.5 2148.4 1227.6 2148.1 1218.5 2147.4 1184.3 2147.1 1167.8 2208.6 1137 2229.1 1162.5 2228.8 1169.6 2193.8 1187.1 2175 1187.1 2176 1206.2 2257.1 1203.5 2273.6 1225.4 2248.1 1278.1 2214.9 1347.3 Z" data-holc_grade="D"/>
<path d="M 2304.4 1260.6 2278.9 1271.3 2248.1 1278.1 2273.6 1225.4 2279.1 1219.6 2297 1240.6 2322 1238.9 2331.7 1249.2 2304.4 1260.6 Z" data-holc_grade="D"/>
<path d="M 1695 1582.3 1733.6 1602.5 1718.7 1608.5 1733 1639.8 1697.5 1655.7 1709.3 1676.9 1713.5 1686.8 1690.4 1695.8 1665.7 1655 1571.7 1653.4 1540.6 1596.8 1581.5 1600.5 1657.5 1560.7 1684.6 1576.9 1695 1582.3 Z" data-holc_grade="D"/>
<path d="M 1818.1 1498 1830.9 1515.5 1849.8 1517.9 1851.9 1522.8 1855.9 1532 1837.5 1540.3 1803.9 1555.6 1814.7 1586.3 1802.9 1591.3 1800.2 1581.9 1791.1 1584.6 1772.2 1623.8 1733.6 1602.5 1695 1582.3 1705.2 1561.1 1722.1 1549.9 1713.3 1533.8 1742.5 1519.1 1795.1 1492.7 1809.9 1485.2 1818.1 1498 Z" data-holc_grade="D"/>
<path d="M 855.4 1044 831.1 1045 813.5 1043.6 813.1 1033.9 811.9 1005.7 854.6 1004.9 855.4 1044 Z" data-holc_grade="D"/>
<path d="M 1954.8 1467.8 1936.5 1476.1 1912.2 1488.3 1851.9 1522.8 1849.8 1517.9 1865.2 1507.4 1855.2 1488.6 1925.4 1454.3 1958.9 1457.5 1962.2 1464.5 1954.8 1467.8 Z" data-holc_grade="D"/>
<path d="M 1998.8 1557.8 2003.9 1568.2 1948.3 1597.6 1923.1 1545.5 1920.9 1540.8 1933.6 1535.1 1912.2 1488.3 1936.5 1476.1 1954.8 1467.8 1998.8 1557.8 Z" data-holc_grade="D"/>
<path d="M 2101.6 1415.5 2115.9 1409.4 2149.5 1470.8 2138.7 1486.4 2030.7 1542 1998.8 1557.8 1954.8 1467.8 1962.2 1464.5 1974.4 1487.4 2011.4 1470.1 1981.3 1409.8 2013.7 1394.7 2068.7 1502.1 2129.5 1472.1 2101.3 1415.6 2101.6 1415.5 Z" data-holc_grade="D"/>
<path d="M 1571.7 1653.4 1665.7 1655 1690.4 1695.8 1707.8 1732.1 1690.8 1756.7 1667.8 1794.8 1659.7 1781.4 1634.3 1792.8 1637.4 1801.2 1623.5 1809 1585 1816.1 1577.9 1805 1562.3 1813 1547.8 1791.8 1521.4 1807 1512.3 1791.1 1491.1 1802.8 1468.6 1759.3 1438.9 1707.9 1424.7 1714.7 1450.9 1764 1476.7 1810.7 1456.5 1821.8 1440.9 1793.5 1418.9 1806 1409.8 1789.5 1392 1798.5 1390.8 1784.9 1385.8 1786.7 1385.5 1712.6 1399.4 1710.6 1413.6 1703.2 1420.6 1695.3 1425 1690.4 1429.8 1676.3 1432.5 1630.5 1435.2 1598.8 1454.8 1599.1 1458.5 1652.4 1496 1651 1528.8 1653.7 1571.7 1653.4 Z" data-holc_grade="D"/>
<path d="M 1772.2 1623.8 1776.9 1626.4 1779.6 1633.1 1788.7 1655.4 1730.3 1680.3 1713.5 1686.8 1709.3 1676.9 1697.5 1655.7 1733 1639.8 1718.7 1608.5 1733.6 1602.5 1772.2 1623.8 Z" data-holc_grade="D"/>
<path d="M 1826.7 1748.3 1796.9 1749.6 1801.7 1762.1 1772.6 1776.6 1766.5 1767.8 1756.4 1776.3 1761.1 1783.3 1748.6 1787.7 1735.7 1761.4 1737.7 1758.4 1727.9 1734.8 1713.1 1742.9 1707.8 1732.1 1690.4 1695.8 1713.5 1686.8 1730.3 1680.3 1788.7 1655.4 1826.7 1748.3 Z" data-holc_grade="D"/>
<path d="M 1900 1692.4 1931.8 1709.4 1943.8 1713.1 1891.1 1733.8 1843.6 1753.6 1828.7 1753.3 1826.7 1748.3 1788.7 1655.4 1779.6 1633.1 1776.9 1626.4 1900 1692.4 Z" data-holc_grade="D"/>
<path d="M 1898.5 1558.2 1923.1 1545.5 1948.3 1597.6 2007.6 1704.2 1980 1720.7 1942.1 1702.2 1938.6 1703.2 1943.8 1713.1 1931.8 1709.4 1900 1692.4 1837.5 1540.3 1855.9 1532 1873.3 1569.9 1898.5 1558.2 Z" data-holc_grade="D"/>
<path d="M 2007.6 1704.2 1948.3 1597.6 2003.9 1568.2 1998.8 1557.8 2030.7 1542 2068.1 1617.7 2081 1611.5 2085.9 1621.4 2106.5 1612 2134.7 1670.4 2116.8 1680.9 2126.6 1702.2 2057.1 1743.3 2031.6 1691 2007.6 1704.2 Z" data-holc_grade="D"/>
<path d="M 2290.6 1613.5 2299.4 1631.1 2228.6 1694.8 2171.3 1731.5 2112.4 1762.9 2074 1778 2057.1 1743.3 2126.6 1702.2 2116.8 1680.9 2134.7 1670.4 2106.5 1612 2085.9 1621.4 2081 1611.5 2068.1 1617.7 2030.7 1542 2138.7 1486.4 2149.5 1470.8 2115.9 1409.4 2101.6 1415.5 2084.5 1381.7 2109.2 1355.6 2127.3 1390.8 2132.9 1389 2141 1406.1 2136.5 1408.7 2150.9 1436.8 2217.6 1576.3 2261.4 1554.6 2290.6 1613.5 Z" data-holc_grade="D"/>
<path d="M 1090.9 1107.8 1034.1 1108.2 1034.1 1093.4 1065.5 1093.1 1064.2 1052.5 1087.4 1052.3 1090.9 1107.8 Z" data-holc_grade="D"/>
<path d="M 1597 2068.9 1582.7 2079.6 1583 2101.3 1590.2 2142.7 1589.2 2147.6 1528.1 2140.8 1489.1 2124.3 1476.6 2151.7 1469.4 2145.2 1430 2121 1416.6 2140.8 1396.3 2129.9 1383.3 2153.7 1379.7 2159.4 1356.2 2128.5 1348.1 2101.3 1339.9 2089.6 1334.1 2081.5 1327 2074.7 1324.8 2067 1358.9 2048.2 1375.5 2046.6 1382.9 2040.8 1380 2028.5 1399.2 2019.1 1418.3 2019.7 1435.5 2043.4 1449.8 2039.2 1460.1 2041.8 1461.7 2042.2 1496.9 2051.1 1522.9 2037.6 1560.3 2018.1 1597 2068.9 Z" data-holc_grade="D"/>
<path d="M 1757.7 1887.8 1767.1 1899.4 1713 1931.8 1680.5 1949.3 1658.5 1908 1644.5 1913.8 1665.9 1957.1 1634.7 1973.9 1560.3 2018.1 1522.9 2037.6 1510.1 2011.2 1525 2002.5 1513 1985 1512.4 1976.6 1531.5 1967.2 1542.6 1985.6 1561.4 1973 1554.2 1960.4 1544.8 1934.2 1561.4 1925.1 1573.1 1950.4 1592.6 1939 1586.1 1922.9 1603.6 1914.1 1600.3 1907 1613.3 1900.2 1603.6 1881.4 1614.9 1872.4 1640.8 1873.5 1659.1 1874.3 1670.5 1871.7 1726.6 1845.5 1740.6 1866.5 1757.7 1887.8 Z" data-holc_grade="D"/>
<path d="M 1597 2068.9 1560.3 2018.1 1634.7 1973.9 1665.9 1957.1 1680.5 1949.3 1713 1931.8 1767.1 1899.4 1801.5 1878.8 1809.2 1898.6 1815.4 1909.9 1795.1 1933.9 1780 1962 1773.5 1972.5 1760.2 1989 1753.7 2000.6 1745.1 2005.4 1734.7 1977.8 1715.5 1988 1709 2004.2 1701.3 2014.7 1685.1 2022.8 1699.7 2061.2 1684.3 2083.5 1656.7 2073.4 1629 2070.2 1606.3 2067.3 1597 2068.9 Z" data-holc_grade="D"/>
<path d="M 1736 1841.9 1726.6 1845.5 1670.5 1871.7 1659.1 1874.3 1640.8 1873.5 1673.7 1813.6 1687 1805.9 1692.7 1809.9 1709.4 1802.2 1717.5 1820.4 1726.8 1816.8 1723.6 1809.9 1735.3 1803 1739 1809.9 1777.9 1789.7 1784 1799 1797.4 1792.9 1794.6 1784.8 1824.2 1785.6 1843.3 1791.2 1858.7 1785.6 1843.6 1753.6 1891.1 1733.8 1943.8 1713.1 1994.2 1807.3 1972.3 1814.2 1943.9 1823.9 1919.2 1834.8 1890 1852.2 1870.5 1868.8 1831.6 1896.8 1815.4 1909.9 1809.2 1898.6 1801.5 1878.8 1793.2 1856.8 1766.5 1825.7 1736 1841.9 Z" data-holc_grade="D"/>
<path d="M 2382.8 1524.2 2376.5 1530.8 2361.1 1546.8 2339.9 1568.8 2316.5 1524.4 2369.9 1499.4 2382.8 1524.2 Z" data-holc_grade="D"/>
<path d="M 2442.9 1535.5 2430.4 1507.3 2423.7 1494.1 2441.2 1482.7 2395.4 1391.2 2363.9 1329.4 2378.4 1322.9 2406.5 1381.1 2421.7 1364.9 2473.9 1468.2 2471.2 1469.2 2479.4 1485.3 2455.7 1494.8 2469.3 1525.1 2442.9 1535.5 Z" data-holc_grade="D"/>
<path d="M 2572.4 1521.7 2555.3 1529.7 2543.9 1535 2512 1462.7 2514.2 1456.9 2541.5 1454.2 2572.4 1521.7 Z" data-holc_grade="D"/>
<path d="M 1429 881.3 1318.9 881.3 1318.9 881.2 1301.6 881.6 1299.6 815.3 1357.2 811.6 1357.7 826.4 1383 826.8 1437 829.8 1434.3 876.6 1429 881.3 Z" data-holc_grade="D"/>
<path d="M 1647.1 868.5 1643.8 872.2 1629.9 870.4 1562.4 763.3 1548.5 763.3 1546.7 763.3 1543.5 723 1514.9 678.3 1513.8 652.5 1565.1 650.9 1614.7 649.8 1614.7 707.4 1627.7 707.4 1626.1 760.6 1632.6 761.1 1647.1 868.5 Z" data-holc_grade="D"/>
<path d="M 1731.1 867.2 1723.6 758.8 1679 759.6 1681.1 822.1 1711.8 821.7 1714.7 868.1 1647.1 868.5 1632.6 761.1 1626.1 760.6 1627.7 707.4 1614.7 707.4 1614.7 649.8 1565.1 650.9 1563.7 622 1562.4 596.1 1618.5 594.3 1631.5 650.9 1676.8 649.3 1676.2 592.5 1791.2 589 1798.1 863.2 1731.1 867.2 Z" data-holc_grade="D"/>
<path d="M 1155.1 1106.3 1131.6 1107.5 1130.1 1051.5 1153.3 1051.2 1155.1 1106.3 Z" data-holc_grade="D"/>
<path d="M 2605.4 615.2 2609.6 692.7 2611.7 786.8 2523.9 788.1 2484.5 790.6 2501.6 757 2480.5 748 2480.5 734.1 2516.4 732.8 2537 687.2 2522.5 681.1 2489.1 682.2 2471.3 693.5 2471 710.3 2459.4 711.6 2458.8 736.1 2429.6 736.8 2431.9 668 2464 666.6 2461.5 614.7 2530.8 612.3 2605.1 609.6 2605.4 615.2 Z" data-holc_grade="D"/>
<path d="M 508.2 1905.5 464 1906.6 397.7 1906.8 346 1908.3 342.1 1798.5 507.1 1794.1 508.2 1905.5 Z" data-holc_grade="D"/>
<path d="M 156.3 2248.1 131.1 2248.9 131.9 2194.8 214.4 2191.5 213.6 2130.6 296.5 2109.8 298.5 2243.8 156.3 2248.1 Z" data-holc_grade="D"/>
<path d="M 131.1 2248.9 156.3 2248.1 156.9 2306.6 77.6 2307.3 76.9 2334.5 60.7 2333.8 57.4 2337.4 48.6 2337.4 45.4 2336.7 5.1 2336.6 5 2253.7 54.4 2252.2 65.8 2249.7 131.1 2248.9 Z" data-holc_grade="D"/>
<path d="M 658.8 2134.5 658.4 2177 620.5 2177.2 490.5 2183.1 354.5 2184.8 352.7 2093.7 560.8 2051.4 658.7 2026.3 658.8 2134.5 Z" data-holc_grade="D"/>
<path d="M 1392 1798.5 1392.7 1806.9 1388.2 1820.8 1378.4 1850.5 1389.8 1869.6 1445.3 1857.7 1474.5 1916.2 1449.2 1957.3 1468.4 1952.8 1465.8 1970.6 1475.5 2013 1474.2 2021.4 1461.7 2042.2 1460.1 2041.8 1433.9 1971.2 1412.8 1932.7 1372.3 1856.7 1367.4 1844.4 1364.5 1818.8 1364.2 1794.9 1385.8 1786.7 1390.8 1784.9 1392 1798.5 Z" data-holc_grade="D"/>
<path d="M 1339.9 2089.6 1301.9 2082.3 1267.8 2075.7 1245.7 2114.8 1190.9 2088.9 1220.4 2039.4 1263.6 2034.6 1266.2 2042.7 1264.9 2051.7 1305.8 2077 1327 2074.7 1334.1 2081.5 1339.9 2089.6 Z" data-holc_grade="D"/>
<path d="M 1461 2302 1409.3 2270.8 1476.6 2151.7 1498.3 2163.4 1501.9 2156.9 1509.1 2148.5 1519.1 2148.5 1534.7 2152.4 1566.9 2186.4 1563.6 2194.1 1528.9 2181.2 1509.4 2170.8 1498.7 2192.2 1485.3 2189 1476.9 2211.9 1461 2302 Z" data-holc_grade="D"/>
<path d="M 1461 2302 1467.8 2306.1 1446.3 2392 1453.5 2394.2 1451.5 2404.6 1461.3 2407.8 1455.1 2428.9 1446.3 2432.1 1441.1 2448 1434.6 2465.8 1446.3 2468.4 1443.1 2475.2 1436.2 2481.3 1435.8 2490.4 1425 2489.7 1410.8 2491.8 1397.4 2493.6 1388.4 2483.4 1376.7 2483.4 1370.9 2482.1 1366.7 2477.3 1368 2468.2 1369.3 2461.4 1369.9 2448.1 1377.1 2441.3 1379.7 2435.8 1379.7 2423.8 1371.6 2408.3 1374.5 2393.1 1382.6 2384.3 1384.6 2359.1 1377.7 2352.3 1360.2 2350.3 1366.7 2340.6 1409.3 2270.8 1461 2302 Z" data-holc_grade="D"/>
<path d="M 1353.1 2733.1 1335.1 2733.1 1334.8 2708.1 1326.7 2707.8 1326 2655.8 1341.1 2656.1 1342.1 2621.1 1341.3 2587.1 1335.6 2587.3 1334.6 2567.9 1342 2557.3 1345.2 2550 1346.6 2536.9 1372 2536.3 1380 2536.1 1398 2533.9 1409.2 2544.4 1376.7 2674 1364.5 2732.9 1353.1 2733.1 Z" data-holc_grade="D"/>
<path d="M 1176 1161 1175.9 1123.4 1203.6 1121.7 1205.1 1159.7 1176 1161 Z" data-holc_grade="D"/>
<path d="M 1358.5 2779.6 1382 2778.9 1399.2 2775.4 1416.4 2772.5 1427.4 2769.7 1426.7 2779.7 1420 2794.3 1410.2 2818.6 1398.5 2839.1 1379 2870.7 1354.6 2871.2 1364.4 2816.7 1353.5 2811.3 1355.4 2799.7 1358.5 2779.6 Z" data-holc_grade="D"/>
<path d="M 1300.8 2989.7 1237.7 2992.1 1209.6 2993.4 1209.9 2988.7 1204.2 2988.7 1202.6 2879.6 1258.9 2876.9 1329.6 2873.6 1309.6 2962.7 1300.8 2989.7 Z" data-holc_grade="D"/>
<path d="M 1237.7 2992.1 1300.8 2989.7 1290.6 3029.9 1279.4 3030.6 1273.3 3029.6 1262.5 3014.4 1246.2 3015 1238.8 3010.6 1237.7 2992.1 Z" data-holc_grade="D"/>
<path d="M 1318.9 881.3 1429 881.3 1426.9 883.3 1422.8 933.4 1337.7 931.3 1319.8 932 1318.9 881.3 Z" data-holc_grade="D"/>
<path d="M 941.8 1665.9 961.2 1665.9 964.5 1692.9 1029.9 1689.5 1033.4 1746.9 944.6 1752.2 943.9 1720.4 929.3 1720.6 926.6 1665.6 941.8 1665.9 Z" data-holc_grade="D"/>
<path d="M 1160.8 1616.5 1161.2 1627.6 1108.1 1628.1 1104.4 1558.3 1131.7 1585.5 1131.9 1603.9 1149 1603.9 1160.8 1616.5 Z" data-holc_grade="D"/>
</g>
</svg>