<?xml version="1.0"?>
<svg xmlns="http://www.w3.org/2000/svg" version="1.2" baseProfile="tiny" width="3000" height="5010" viewBox="0 0 3000 5010" stroke-linecap="round" stroke-linejoin="round">
<g id="A">
<path d="M 1261.1 3710.4 1257.6 3714.3 1191.6 3786.8 1193.2 3996.2 1243.6 4022.8 1244.2 4028.6 1188.5 4166.5 1189.9 4179.8 1193.4 4205.2 1197.8 4225 1211.7 4249.9 1226.9 4264.7 1239.9 4277.4 1268.6 4314.7 1289.9 4337.6 1333.2 4375.5 1367.6 4401.1 1378 4404.4 1392.4 4408.9 1393.4 4411.2 1414.9 4422.9 1439.6 4429.7 1515.6 4430.4 1615 4422.3 1658.5 4418.6 1704.3 4407.5 1729.5 4404.4 1784.9 4380.3 1878.3 4343.7 1909.9 4331.4 1939.2 4322.7 1975.8 4345 2010.1 4352.4 2031.7 4355.5 2059.1 4362.9 2084.8 4380.2 2104.5 4393.2 2105.2 4393.5 2112.8 4396.8 2133.6 4405.6 2193 4433.9 2213 4443.3 2255.5 4496.2 2228.5 4526.5 2149.3 4615.5 2087.8 4579.3 1976 4546.1 1883.2 4556.6 1811.7 4582.3 1739 4588.4 1616.2 4600.5 1421.6 4595.7 1349.4 4577.3 1249.9 4538.6 1141.2 4499 1059.6 4458.4 1001.9 4415.5 993.9 4409.7 907.6 4347.4 873.2 4346.9 864.1 4346.8 750.6 4240.9 717 4205.1 673.4 4171.3 628.3 4169.4 564.6 4149.1 540.3 4132.6 508.1 4107.5 508.9 4051.4 511.7 3903.6 385.8 3940.3 441.8 3807.5 467.8 3748.2 499.5 3668.6 520.9 3659.9 560.2 3621.5 600.6 3547.6 616.6 3514.8 632.2 3474.6 632.2 3433.8 615.3 3366.2 605.9 3318.3 599.5 3268.8 596.9 3227.2 600.7 3182.9 609.9 3163.2 647.1 3184.5 683.6 3203.9 707.9 3206.8 735.1 3195.2 755.1 3182.6 866 3061.8 1246.4 3009.7 1338.7 3240.6 1350.9 3243.5 1348.7 3249.4 1262.9 3359.5 1191.3 3482.3 1129.4 3641 1261.1 3710.4 Z" data-holc_grade="A"/>
</g>
<g id="B">
<path d="M 1615.1 1269 1645.1 1391.8 2050.1 1384.7 2048.6 1206.6 2149.3 1278.8 2159.9 1263.9 2164.6 1268.9 2055.8 1434.4 2046.4 1435.5 1726.6 1902.9 1708 1930 1656.5 1848.6 1631.9 1783.8 1630.9 1770.7 1519.8 1532.9 1606.9 1786.1 1576.8 1803.5 1714.1 2117.6 1733.4 2153.3 1860 2457.8 1695.7 2530 1663.5 2451.6 1614.7 2333.1 1616.9 2290.6 1616.9 2279 1593.3 2227.8 1521.8 2062.5 1453.9 1909.1 1442 1865.2 1436.8 1864 1438.4 1863.3 1348.3 1681 1111.5 1331.9 879.4 987.3 829.8 896.8 1113.4 896 1295.3 1170.8 1437.9 1375.6 1439 1374.8 1442.9 1371.9 1532.1 1306.6 1550.3 1294.6 1562.3 1282.7 1608.6 1275.6 1615.1 1269 Z M 1755.5 1975.8 1763.9 1953.7 1769.3 1939.6 1772.5 1934.4 1934 1674 2062.1 1475.5 2110 1413.5 2166.7 1322.7 2231.3 1250.2 2368.6 1048.9 2435.3 942 2456.1 951.1 2614 824.7 2616.2 827.7 2686.6 921.2 2554.1 1027.9 2452 1174.2 2307.8 1382.5 2180.3 1588.8 1897.8 2030.2 1867.1 2048.1 1802.6 2006.3 1755.5 1975.8 Z" data-holc_grade="B"/>
<path d="M 1695.7 2530 1697 2533.2 1596.1 2572.5 1621.9 2633.5 1568.9 2655.3 1539 2587.2 1493.7 2483.8 1506.9 2620.5 1554.5 2735.5 1595.2 2850.6 1483.9 2903.9 1402.8 2953 1407.5 2981.1 1504.7 3006.8 1632.6 2956.6 1651.6 3010.2 1784.1 3325.3 1798.7 3360.1 1770.2 3517.1 1766.6 3518.7 1766 3514.3 1740.5 3525.7 1339.9 3703 1263.4 3707.9 1261.1 3710.4 1129.4 3641 1191.3 3482.3 1262.9 3359.5 1348.7 3249.4 1350.9 3243.5 1338.7 3240.6 1246.4 3009.7 866 3061.8 755.1 3182.6 735.1 3195.2 707.9 3206.8 683.6 3203.9 647.1 3184.5 609.9 3163.2 600.7 3182.9 596.9 3227.2 599.5 3268.8 605.9 3318.3 615.3 3366.2 632.2 3433.8 632.2 3474.6 616.6 3514.8 600.6 3547.6 560.2 3621.5 520.9 3659.9 499.5 3668.6 467.8 3748.2 441.8 3807.5 385.8 3940.3 511.7 3903.6 508.9 4051.4 508.1 4107.5 540.3 4132.6 564.6 4149.1 628.3 4169.4 673.4 4171.3 717 4205.1 750.6 4240.9 864.1 4346.8 873.2 4346.9 873.5 4347.2 854.5 4355.9 822.6 4374.5 788.6 4393.5 774.2 4408.1 754.9 4431.9 738.1 4454.8 735.2 4467.5 741.7 4499.2 753.1 4518.2 766.6 4535.6 789.4 4547.1 819.3 4551.8 841 4550.7 873.2 4537.6 908.7 4524.1 931.5 4506.7 965.2 4475.8 983.1 4450.7 993.9 4409.7 1001.9 4415.5 1059.6 4458.4 1141.2 4499 1249.9 4538.6 1349.4 4577.3 1421.6 4595.7 1616.2 4600.5 1739 4588.4 1811.7 4582.3 1883.2 4556.6 1976 4546.1 2087.8 4579.3 2149.3 4615.5 2228.5 4526.5 2255.5 4496.2 2213 4443.3 2193 4433.9 2133.6 4405.6 2112.8 4396.8 2105.2 4393.5 2137 4393.5 2177.3 4392.7 2209.6 4392 2214.4 4397.5 2234.2 4420.7 2254.3 4472 2284.5 4515.8 2314.7 4589.8 2339.4 4663.5 2378.8 4771.7 2392.5 4827.4 2422.1 4937.1 2423.2 4941.2 5.1 5009.4 4 2191.2 819.8 2175 816.7 2104.6 838.6 2027.9 841.8 1963 941.8 1918.4 944.1 1923.4 993.1 1918.4 1078.7 1924.7 1083.1 1917.1 1102.7 1920.7 1152.7 1897.7 1197 1920.7 1237 1965.7 1265 1980.1 1303 1930.2 1336.3 1909 1415.2 1873.7 1436.8 1864 1442 1865.2 1453.9 1909.1 1521.8 2062.5 1593.3 2227.8 1616.9 2279 1616.9 2290.6 1614.7 2333.1 1663.5 2451.6 1695.7 2530 Z" data-holc_grade="B"/>
</g>
<g id="C">
<path d="M 2472.3 4943.1 2422.1 4937.1 2392.5 4827.4 2378.8 4771.7 2339.4 4663.5 2314.7 4589.8 2284.5 4515.8 2254.3 4472 2234.2 4420.7 2214.4 4397.5 2295.8 4397.5 2309.1 4431.4 2343.3 4520.5 2377.5 4595.2 2418.2 4714 2456.5 4823.9 2473.6 4926.2 2472.3 4943.1 Z M 1392.4 4408.9 1378 4404.4 1367.6 4401.1 1333.2 4375.5 1289.9 4337.6 1268.6 4314.7 1239.9 4277.4 1226.9 4264.7 1211.7 4249.9 1197.8 4225 1193.4 4205.2 1189.9 4179.8 1188.5 4166.5 1244.2 4028.6 1243.6 4022.8 1193.2 3996.2 1191.6 3786.8 1257.6 3714.3 1261.1 3710.4 1263.4 3707.9 1339.9 3703 1740.5 3525.7 1766 3514.3 1766.6 3518.7 1772.6 3562.9 1784 3713.4 1819.8 3793.7 1702.3 3843.1 1729 3885.2 1688.5 3878 1672.9 3884.9 1658.2 3935.7 1649.3 4017.8 1641.3 4031.3 1583.3 4032.7 1577.3 4092.6 1556.3 4130.9 1536.6 4152.1 1511.3 4181.8 1493.9 4193.9 1460.9 4246.6 1418.2 4320.1 1394.9 4409.7 1392.4 4408.9 Z" data-holc_grade="C"/>
<path d="M 2614 824.7 2456.1 951.1 2435.3 942 2368.6 1048.9 2231.3 1250.2 2166.7 1322.7 2110 1413.5 2062.1 1475.5 1934 1674 1772.5 1934.4 1769.3 1939.6 1763.9 1953.7 1755.5 1975.8 1754.6 1978.1 1733 1967.8 1727 1964.9 1705.9 1933.1 1708 1930 1726.6 1902.9 2046.4 1435.5 2055.8 1434.4 2164.6 1268.9 2159.9 1263.9 2149.3 1278.8 2048.6 1206.6 2046.3 1204.9 2039.1 359.3 2099.9 358.6 2100.5 469.8 2168.7 611.9 2535.8 609.1 2538.5 623.2 2617.9 821.6 2614 824.7 Z" data-holc_grade="C"/>
<path d="M 4 2191.2 2.2 2191.2 1 913.4 828.2 893.8 829.8 896.8 879.4 987.3 1111.5 1331.9 1348.3 1681 1438.4 1863.3 1436.8 1864 1415.2 1873.7 1336.3 1909 1303 1930.2 1265 1980.1 1237 1965.7 1197 1920.7 1152.7 1897.7 1102.7 1920.7 1083.1 1917.1 1078.7 1924.7 993.1 1918.4 944.1 1923.4 941.8 1918.4 841.8 1963 838.6 2027.9 816.7 2104.6 819.8 2175 4 2191.2 Z M 1113.4 896 1108.9 889.3 1653.9 883.6 1657.6 1235.5 1630.5 1253.1 1615.1 1269 1608.6 1275.6 1562.3 1282.7 1550.3 1294.6 1532.1 1306.6 1442.9 1371.9 1439 1374.8 1437.9 1375.6 1295.3 1170.8 1113.4 896 Z" data-holc_grade="C"/>
<path d="M 1568.9 2655.3 1618.3 2768 1846.5 3339.2 1799.3 3361.5 1798.7 3360.1 1784.1 3325.3 1651.6 3010.2 1632.6 2956.6 1631.6 2953.6 1597.1 2856 1595.2 2850.6 1554.5 2735.5 1506.9 2620.5 1493.7 2483.8 1539 2587.2 1568.9 2655.3 Z" data-holc_grade="C"/>
</g>
<g id="D">
<path d="M 2472.3 4943.1 2473.6 4926.2 2456.5 4823.9 2418.2 4714 2377.5 4595.2 2343.3 4520.5 2309.1 4431.4 2295.8 4397.5 2293.6 4391.8 2285 4365.8 2275.4 4337.1 2262.4 4281.3 2251.7 4191.2 2255.1 4172.5 2233.4 4055.7 2182.5 3840.9 2088.4 3605.5 2007.1 3417.9 1971.2 3318.7 1969.6 3226.5 1974.3 3208.9 1994.1 3144.1 2002.4 3076.6 2015.4 2992.1 2049.8 2912.6 2075.8 2822.5 2090.8 2730.1 2091.5 2681 2059.8 2594.9 2000.5 2502.4 1956 2397.6 1893.7 2243 1842.8 2150.2 1787.3 2054.7 1733 1967.8 1754.6 1978.1 1755.5 1975.8 1802.6 2006.3 1867.1 2048.1 1897.8 2030.2 2180.3 1588.8 2307.8 1382.5 2452 1174.2 2554.1 1027.9 2686.6 921.2 2616.2 827.7 2713.7 743.7 2822.1 655.5 2846.4 658.8 2847.8 604.4 2861.5 540.1 2861.5 481.9 2865.8 419.9 2898.3 416 2917 222.4 2932.5 146.7 2946.4 96.3 2967.5 48.9 2977.1 24 2991.9 19.7 2999 31.1 2994.3 50.1 2987.6 68.1 2988.9 78 2986.1 106.1 2970.5 140.4 2965.7 150.3 2960.1 165.2 2958.7 182.7 2947.1 210.9 2944.7 219.5 2942.1 228.3 2935.1 245.1 2934.2 257.9 2931.5 275 2928.9 300.4 2929 318 2927 335.4 2930.2 347.4 2930.5 402.3 2929.6 412 2926.7 434.2 2926.1 478.9 2926.1 502.3 2929.4 523.2 2925.7 544.5 2932.2 563.1 2936.4 581.1 2929.6 601.2 2930.4 630.9 2927.5 645 2928.7 657.5 2924.6 669.9 2924.6 687.4 2924.1 711.9 2915.1 747.4 2911 774.6 2909.8 807.1 2900.8 829.3 2876.5 852.6 2853.4 864.5 2829.1 887.5 2808 903.3 2779.6 924.7 2761.4 937 2738.3 942.5 2726.6 952.8 2707 976.2 2695.9 993.2 2668.8 1013.5 2656 1023.4 2638.2 1039.9 2622.3 1048.5 2612.4 1061.4 2600.9 1071.3 2596.4 1073.3 2588.4 1080.7 2563.3 1126.8 2554.9 1137.4 2529.2 1179 2515 1196.5 2500 1217.8 2486.1 1241.3 2476.9 1248.2 2470.9 1257 2460.3 1273.5 2455.4 1291.2 2442.3 1310.5 2435.3 1325.5 2426 1349 2413.4 1362.7 2398.1 1378.4 2386.2 1390.3 2380.4 1402.5 2372.8 1413.1 2362.5 1424 2359.5 1429.9 2350.6 1446.8 2337.5 1459.3 2329.7 1478.3 2318.4 1496.3 2311.6 1501.3 2309.1 1508.9 2299.4 1524.2 2293.5 1542.3 2282.5 1554 2275.1 1566 2262 1583.4 2253 1599.6 2245.1 1612.4 2236.5 1626.8 2235.5 1698.6 2237.1 1712.6 2244.4 1753.4 2262.1 1805.5 2268.8 1839.3 2268.8 1864.6 2255.8 1890 2250.6 1915.3 2245.4 1949.8 2246.5 2008.2 2249.6 2040.6 2256.9 2065.2 2260 2096.9 2263.6 2126.7 2271.5 2179.2 2270.2 2219.6 2267.2 2260.2 2272.5 2297.6 2271.2 2341.8 2272.6 2388.9 2271 2407.5 2265.1 2425.6 2256.2 2442.4 2252.1 2460.3 2249.8 2478.2 2247.4 2493.9 2245.5 2528.4 2238.8 2548.3 2235.9 2565.8 2237.7 2581.9 2237.4 2596.6 2237.7 2617.7 2239.4 2637.6 2244.7 2658.6 2248.3 2679.4 2257.1 2699.8 2267.3 2714.2 2281.2 2721.4 2292.1 2730.1 2311.3 2748.2 2321.5 2755.4 2331.5 2760.9 2339.4 2760.9 2342.4 2768.7 2350.5 2769.9 2352.9 2773 2359.9 2777.9 2372.5 2784.3 2379.3 2792.6 2409.6 2809.3 2428.4 2822.9 2430.1 2826 2435.9 2826 2445 2828.9 2458.9 2838.7 2470 2841.3 2476.2 2848.8 2486 2853.7 2491.7 2856.3 2503.5 2863.8 2507.5 2874.5 2518.8 2880.2 2523.3 2888.6 2523.5 2903 2524 2923.7 2518 2939.6 2508.6 2948.8 2504.6 2953.4 2486.6 2975.9 2465.6 2997.1 2457.8 3002.8 2452.5 3012.9 2442.2 3020.1 2435.5 3037.6 2418.9 3055.2 2411.9 3071.4 2392.5 3100.7 2389.5 3116 2386.9 3116.9 2378.5 3122.8 2361.5 3150.7 2348.9 3173.7 2342.3 3187.5 2332.5 3206 2323.3 3229.4 2316.1 3236.6 2309 3248.4 2303.7 3261.9 2294.9 3274 2289.2 3285.3 2280.4 3299.1 2270.6 3315 2261.2 3325.1 2249.5 3334.6 2241.6 3334 2232 3331.7 2212.6 3323.9 2195.1 3312.4 2177 3302.6 2164.6 3295.1 2150.7 3285.9 2132.2 3275.8 2120.2 3267.7 2108.9 3265.4 2103.2 3260.4 2097 3254.5 2086.7 3245.5 2076.4 3242 2066.6 3237.8 2056.2 3232.2 2043.7 3224.3 2037.4 3220.8 2027.6 3215.6 2020.9 3208.6 2009.4 3208.8 2000.5 3210.3 1990.7 3216.4 1985.5 3229.6 1984.4 3248.3 1985.6 3270.2 1986.5 3285.4 1985.2 3295.7 1983.2 3306.2 1988.9 3323.2 1993.2 3331.5 2014 3337 2025.6 3340.8 2039.6 3344.9 2044.9 3352.1 2053.6 3354.8 2072.6 3365.1 2099.9 3374.6 2115.9 3380.5 2129.3 3387.7 2143.6 3395.3 2160.3 3397.6 2182.3 3402.5 2200.6 3408.4 2209.9 3419.2 2214.3 3437.2 2219 3456.2 2221.8 3478.7 2221.8 3491.4 2221.8 3508.1 2220.7 3515 2216.5 3533.8 2217.8 3558 2215.4 3570.1 2215.3 3580.3 2214.4 3592.9 2219.8 3613.4 2223.1 3627.4 2225.7 3640.8 2227.8 3653.6 2228.2 3663.3 2229.1 3674.2 2233.9 3694.5 2236.1 3715.6 2243.1 3731.2 2243.4 3750.1 2246.9 3761.7 2246.9 3772 2250.9 3792.1 2255.7 3811 2256.3 3825.4 2258.3 3841.7 2260.3 3849.8 2270 3869.6 2280 3897.1 2281.3 3916.4 2287 3922.3 2291 3958.7 2288.5 3971.1 2291.9 3999 2290.4 4019.5 2289.3 4039.1 2281.2 4061.3 2278.2 4080.6 2273.3 4097.9 2268 4116.4 2267.4 4140 2267.4 4153.5 2263.9 4159.9 2260.8 4172.6 2258 4194.8 2262 4216.4 2269.7 4240.6 2269.9 4257.9 2269.3 4271.2 2286.2 4288.4 2296.6 4300 2306.9 4320.7 2315.4 4343.2 2326.1 4367.7 2331 4392.5 2343.2 4416.2 2343 4434.1 2349.9 4452.8 2352 4466.4 2356.6 4482.5 2360.1 4497.8 2368.8 4513.9 2372.8 4541.5 2385.2 4562.3 2387.6 4580.2 2394.4 4596 2400 4611 2404.2 4631.5 2411.7 4641.8 2412.1 4653.7 2417.3 4675.9 2426.6 4686.2 2431.3 4709 2445.6 4720 2448.6 4742.7 2455.5 4762.6 2466.4 4778.2 2482.5 4809.6 2486.6 4838.2 2498.8 4841.5 2506.2 4859.1 2514.3 4886.6 2529 4915.2 2561.5 4950.4 2472 4947.1 2472.3 4943.1 Z" data-holc_grade="D"/>
<path d="M 1632.6 2956.6 1504.7 3006.8 1407.5 2981.1 1402.8 2953 1483.9 2903.9 1595.2 2850.6 1597.1 2856 1631.6 2953.6 1632.6 2956.6 Z M 2295.8 4397.5 2214.4 4397.5 2209.6 4392 2177.3 4392.7 2137 4393.5 2105.2 4393.5 2104.5 4393.2 2084.8 4380.2 2059.1 4362.9 2031.7 4355.5 2010.1 4352.4 1975.8 4345 1939.2 4322.7 1909.9 4331.4 1878.3 4343.7 1784.9 4380.3 1729.5 4404.4 1704.3 4407.5 1658.5 4418.6 1615 4422.3 1515.6 4430.4 1439.6 4429.7 1414.9 4422.9 1393.4 4411.2 1392.4 4408.9 1394.9 4409.7 1418.2 4320.1 1460.9 4246.6 1493.9 4193.9 1511.3 4181.8 1536.6 4152.1 1556.3 4130.9 1577.3 4092.6 1583.3 4032.7 1641.3 4031.3 1649.3 4017.8 1658.2 3935.7 1672.9 3884.9 1688.5 3878 1729 3885.2 1702.3 3843.1 1819.8 3793.7 1784 3713.4 1772.6 3562.9 1766.6 3518.7 1770.2 3517.1 1798.7 3360.1 1799.3 3361.5 1846.5 3339.2 1618.3 2768 1568.9 2655.3 1621.9 2633.5 1596.1 2572.5 1697 2533.2 1695.7 2530 1860 2457.8 1733.4 2153.3 1714.1 2117.6 1576.8 1803.5 1606.9 1786.1 1519.8 1532.9 1630.9 1770.7 1631.9 1783.8 1656.5 1848.6 1708 1930 1705.9 1933.1 1727 1964.9 1733 1967.8 1787.3 2054.7 1842.8 2150.2 1893.7 2243 1956 2397.6 2000.5 2502.4 2059.8 2594.9 2091.5 2681 2090.8 2730.1 2075.8 2822.5 2049.8 2912.6 2015.4 2992.1 2002.4 3076.6 1994.1 3144.1 1974.3 3208.9 1969.6 3226.5 1971.2 3318.7 2007.1 3417.9 2088.4 3605.5 2182.5 3840.9 2233.4 4055.7 2255.1 4172.5 2251.7 4191.2 2262.4 4281.3 2275.4 4337.1 2285 4365.8 2293.6 4391.8 2295.8 4397.5 Z" data-holc_grade="D"/>
<path d="M 2535.8 609.1 2168.7 611.9 2100.5 469.8 2099.9 358.6 2039.1 359.3 2035.9 359.3 2032.2 11.6 2430.4 1 2422.6 39 2516.3 313.5 2539.3 609 2535.8 609.1 Z" data-holc_grade="D"/>
</g>
</svg>