<?xml version="1.0"?>
<svg xmlns="http://www.w3.org/2000/svg" version="1.2" baseProfile="tiny" width="3000" height="3043" viewBox="0 0 3000 3043" stroke-linecap="round" stroke-linejoin="round">
<g id="A">
<path d="M 2562.9 335.5 2561.5 395.8 2542.5 407.1 2468.9 410.2 2469.1 337.1 2562.9 335.5 Z" data-holc_grade="A"/>
<path d="M 2526.4 479.9 2525.1 480.5 2523.7 481.3 2522.4 482.1 2521.2 483 2520 483.9 2518.8 484.8 2517.7 485.8 2516.6 486.9 2515.6 488 2514.6 489.2 2513.6 490.3 2512.7 491.6 2512.1 492.5 2511.4 493.5 2510.7 494.3 2509.9 495.2 2509.1 496 2508.2 496.7 2507.3 497.4 2506.4 498 2505.4 498.6 2504.3 499.1 2503.3 499.6 2502.2 499.9 2501.1 500.3 2500 500.5 2498.9 500.7 2497.7 500.9 2496.6 501 2495.2 500.4 2493.8 499.9 2492.3 499.5 2490.8 499.1 2489.3 498.8 2487.8 498.6 2486.3 498.4 2485.7 498.4 2485 498.4 2484.2 498.4 2483.5 498.5 2482.6 498.6 2481.7 498.7 2480.8 499 2479.8 499.2 2478.8 499.5 2477.8 499.8 2476.7 500.2 2475.6 500.6 2474.4 501 2473.3 501.5 2472.1 502 2470.9 502.6 2469.6 503.1 2468.4 503.7 2467.2 504.4 2465.9 505.1 2464.7 505.7 2463.4 506.5 2462.1 507.2 2460.9 508 2459.6 508.8 2458.3 509.6 2457.1 510.4 2455.9 511.3 2454.6 512.1 2453.4 513 2452.2 513.9 2451 514.8 2448.8 516.6 2446.7 518.4 2444.6 520.2 2443.6 521.1 2442.6 522.1 2441.7 523 2440.7 523.9 2439.8 524.9 2438.9 525.8 2438 526.8 2437.2 527.8 2436.3 528.7 2435.5 529.7 2434.7 530.7 2434 531.6 2433.3 532.6 2432.5 533.6 2431.9 534.6 2431.2 535.5 2430.6 536.5 2430 537.5 2429.4 538.5 2428.8 539.4 2428.3 540.4 2427.8 541.4 2427.3 542.4 2426.8 543.4 2426.4 544.3 2426 545.3 2412.6 557.3 2384.5 592.4 2378.4 592.1 2378.1 591.5 2377.8 591 2377.5 590.4 2377.1 590 2376.7 589.5 2376.2 589.1 2375.7 588.8 2371.8 583.9 2371.5 583.2 2371.2 582.6 2370.8 582.1 2370.4 581.5 2369.9 581 2369.4 580.6 2368.8 580.2 2368.2 579.9 2367.6 579.6 2362 576.6 2416.4 516.3 2459.4 469.9 2467.3 469.8 2525.7 468.4 2526.4 479.9 Z" data-holc_grade="A"/>
<path d="M 2342.7 553.1 2238.2 665.3 2158.8 724.4 2149.7 716 2063.1 635.7 2004.7 698.9 2001.7 697.9 2001.7 694.1 2001.7 690.5 2001.5 687.1 2001.4 684 2001.1 681.2 2001 679.8 2000.9 678.5 2000.7 677.3 2000.5 676 2000.3 674.9 2000.1 673.7 1999.8 672 1999.1 669.1 1998.9 668 1998.6 666.7 1998.5 665.6 1998.5 664.9 1998.5 664.1 1998.5 663.4 1998.5 662.6 1998.6 661.8 1998.6 660.9 1998.8 660 1998.9 659 1998.6 651.9 1997.8 650 1997 648.3 1996.1 646.3 1994.5 643.1 1993.8 641.9 1993.2 640.5 1992.6 639.1 1991.9 637.3 1991.2 635.4 1990.5 633.1 1989.8 630.8 1989.1 628.5 1988.5 626.2 1988 623.8 1989.9 616 1996.8 615.6 1997.5 615.9 1998.2 616.2 1998.9 616.5 1999.6 616.6 2000.4 616.7 2001.1 616.8 2001.9 616.8 2002.6 616.7 2003.4 616.5 2004.1 616.3 2004.8 616.1 2029 595.5 2038.1 594.7 2039.5 595.1 2040.9 595.4 2042.2 595.6 2043.7 595.8 2045.1 595.9 2046.5 596 2047.9 595.9 2049.3 595.8 2050.7 595.7 2052.1 595.5 2053.5 595.2 2054.9 594.8 2055.7 590.9 2055.8 589.8 2055.8 588.7 2055.8 587.9 2055.8 586 2055.8 585.3 2055.8 584.7 2055.9 584.2 2056 583.9 2056.1 583.6 2056.2 583.2 2056.4 583 2056.6 582.7 2056.9 582.4 2057.2 582.1 2057.5 581.9 2080 581.4 2082 534.6 2104.1 508.3 2158.3 506.5 2163.8 520 2165.3 518.5 2166.9 517 2168.5 515.6 2170.2 514.3 2172 513 2173.7 511.8 2175.6 510.6 2177.4 509.5 2179.3 508.4 2181.2 507.4 2183.2 506.5 2185.2 505.7 2187.2 504.9 2189.2 504.1 2191.3 503.5 2193.4 502.9 2195.5 502.4 2197.6 502 2199.7 502.2 2204 502.7 2205.9 502.9 2207 503 2208 503.2 2209 503.4 2209.9 503.6 2211.1 503.9 2212.2 504.2 2213.3 504.5 2214.5 504.9 2215.6 505.3 2216.8 505.8 2218 506.3 2219.2 506.8 2220.5 507.5 2221.9 508.2 2223.3 508.9 2224.7 509.7 2226.2 510.6 2227.7 511.5 2229.3 512.5 2230.9 513.5 2232.6 514.7 2234.3 515.8 2236 517.1 2237.8 518.4 2239.6 519.7 2241.5 521.1 2243.4 522.6 2245.4 524.2 2306 456.4 2305.1 366.7 2361.9 365.9 2362.7 471.7 2418.7 471.4 2342.7 553.1 Z" data-holc_grade="A"/>
<path d="M 1192.9 1659.8 1194.1 1581.6 1314.2 1457.4 1321.7 1449.6 1373 1497.5 1213.5 1660 1192.9 1659.8 Z" data-holc_grade="A"/>
</g>
<g id="B">
<path d="M 2733.3 303.6 2723.6 309.1 2705.3 331.2 2703.6 331.7 2701.9 332.2 2700.2 332.8 2698.6 333.4 2697 334.1 2695.4 334.8 2693.8 335.6 2692.2 336.5 2690.7 337.4 2689.3 338.4 2687.8 339.4 2686.4 340.5 2685.1 341.7 2663.7 359.8 2647.1 375.6 2644.2 379.5 2641.4 383.4 2638.5 387.3 2635.8 391.3 2633 395.4 2630.4 399.4 2616.6 418.9 2616.1 420.4 2615.6 421.9 2615 423.4 2614.4 424.8 2613.6 426.2 2612.9 427.5 2612 428.8 2611.1 430.1 2610.2 431.4 2609.1 432.6 2608.1 433.7 2607 434.8 2602.4 437.5 2595.2 444.7 2593.7 445.2 2592.3 445.8 2590.8 446.4 2589.4 447.1 2588.1 447.8 2586.7 448.6 2585.4 449.5 2584.1 450.4 2582.9 451.4 2581.7 452.4 2580.6 453.5 2579.5 454.7 2578.5 455.8 2577.5 457.1 2576.6 458.3 2576.4 458.9 2576.2 459.5 2575.9 460 2575.5 460.5 2575.1 460.9 2574.6 461.3 2574.1 461.6 2573.6 461.9 2573 462.1 2570.9 463.7 2568.7 465.1 2566.6 466.5 2564.3 467.9 2562.1 469.2 2559.8 470.4 2557.4 471.6 2555.1 472.7 2552.7 473.7 2550.3 474.7 2547.8 475.6 2538.3 478.3 2529.8 479.3 2526.4 479.9 2525.7 468.4 2467.3 469.8 2468.9 410.2 2542.5 407.1 2561.5 395.8 2562.9 335.5 2564.3 208.7 2630.6 169 2701.8 126.4 2737.6 126 2739.5 127.7 2739.2 196 2735.9 198.9 2644.4 202.7 2640.7 206.6 2639.5 338 2734 259.5 2735.8 259.6 2733.3 303.6 Z" data-holc_grade="B"/>
<path d="M 2135.9 256 2085.6 256.5 2086.5 148.3 1877.5 151.9 1876.7 141.6 1875.9 131.3 1875.2 121 1874.6 110.6 1874 100.3 1873.5 90 1873 79.7 1872.6 69.3 1872.3 59 1872 48.7 1871.8 38.4 1884.9 38.4 1897.9 38.4 1910.9 38.3 1923.9 38.1 1936.9 37.8 1949.9 37.5 1963 37.1 1976 36.7 1989 36.2 2002 35.5 2015 34.9 2028 34.1 2027.5 1 2143.3 1.2 2138.8 132.7 2135.9 256 Z" data-holc_grade="B"/>
<path d="M 2194.8 284.8 2195.2 313.8 2249.4 313.4 2249.4 336 2249.7 410.4 2232.4 410.2 2232 411.1 2231.6 412 2231.1 412.9 2230.6 413.8 2230 414.6 2229.3 415.3 2228.6 416.1 2227.8 416.7 2227 417.3 2226.2 417.9 2225.3 418.4 2224.4 418.8 2223.4 419.2 2222.5 419.4 2221.5 419.7 2213 459.3 2212.4 460.7 2211.8 461.9 2211.2 463.1 2210.5 464.2 2209.9 465.2 2209.2 466 2208.9 466.4 2208.6 466.8 2208.3 467.1 2207.9 467.4 2207.5 467.7 2207.1 468 2206.7 468.3 2206.3 468.5 2205.9 468.7 2205.4 468.8 2205 469 2204.6 469 2204.1 469.1 2203.7 469.1 2203.3 469.1 2202.9 469.1 2202 469 2200.3 468.7 2200 468.6 2199.6 468.6 2199.3 468.6 2199 468.6 2198.7 468.7 2198.4 468.8 2198.2 469 2198.1 469.1 2197.9 469.2 2197.8 469.4 2197.6 469.6 2197.5 469.9 2197.2 470.4 2197 471 2196.9 471.8 2196.7 472.6 2196.6 473.6 2197.6 502 2195.5 502.4 2193.4 502.9 2191.3 503.5 2189.2 504.1 2187.2 504.9 2185.2 505.7 2183.2 506.5 2181.2 507.4 2179.3 508.4 2177.4 509.5 2175.6 510.6 2173.7 511.8 2172 513 2170.2 514.3 2168.5 515.6 2166.9 517 2165.3 518.5 2163.8 520 2158.3 506.5 2104.1 508.3 2104.2 508.2 2132.2 470.7 2109.3 470.2 2073.3 474.2 2027 475.3 2026.8 475.3 2028.6 418.7 2084.6 417.2 2086.6 367 2110.5 366.2 2111.5 324.1 2139.9 319.8 2141 319.7 2142.1 319.5 2143.1 319.2 2144.1 318.9 2145.1 318.5 2146.1 318.1 2147 317.5 2147.9 317 2148.8 316.3 2149.6 315.6 2150.3 314.8 2151 314 2151.6 313.2 2152.2 312.3 2152.7 311.3 2153.2 310.4 2153.6 309.4 2153.9 308.4 2154.1 307.3 2154.3 306.3 2154.4 305.2 2154.4 304.1 2154.4 303.1 2154.2 302 2152.8 300.4 2151.4 298.7 2150 296.9 2148.7 295.1 2147.5 293.3 2146.3 291.5 2145.2 289.6 2144.1 287.6 2143.1 285.7 2142.2 283.7 2141.3 281.7 2140.5 279.6 2139.7 277.6 2139 275.5 2138.4 273.4 2137.9 271.2 2137.4 269.1 2137 266.9 2136.6 264.8 2136.3 262.6 2136.1 260.4 2136 258.2 2135.9 256 2137.8 256.7 2139.6 257.5 2141.4 258.4 2143.1 259.3 2144.9 260.3 2146.5 261.3 2148.2 262.4 2149.8 263.6 2151.4 264.9 2174.8 267.2 2177.2 269 2179.6 270.8 2181.9 272.6 2184.2 274.5 2186.4 276.5 2188.6 278.5 2190.7 280.5 2192.8 282.6 2194.8 284.8 Z" data-holc_grade="B"/>
<path d="M 1988 623.8 1988.5 626.2 1989.1 628.5 1989.8 630.8 1990.5 633.1 1991.2 635.4 1991.9 637.3 1992.6 639.1 1993.2 640.5 1993.8 641.9 1994.5 643.1 1996.1 646.3 1997 648.3 1997.8 650 1998.6 651.9 1998.9 659 1998.8 660 1998.6 660.9 1998.6 661.8 1998.5 662.6 1998.5 663.4 1998.5 664.1 1998.5 664.9 1998.5 665.6 1998.6 666.7 1998.9 668 1999.1 669.1 1999.8 672 2000.1 673.7 2000.3 674.9 2000.5 676 2000.7 677.3 2000.9 678.5 2001 679.8 2001.1 681.2 2001.4 684 2001.5 687.1 2001.7 690.5 2001.7 694.1 2001.7 697.9 2004.7 698.9 2063.1 635.7 2149.7 716 2075.7 796.7 2075.4 797.2 2011.5 736.8 1998.8 725 1983.8 711.1 1981.5 708.3 1981 706.8 1980.5 705.2 1980.2 703.6 1979.9 701.9 1979.7 700.3 1979.5 698.7 1979.4 697 1979.4 695.4 1979.5 693.7 1979.6 692.1 1979.8 690.4 1980 688.8 1980.4 687.2 1980.7 685.6 1981.2 684 1981.7 682.4 1982.3 680.9 1983 679.4 1983.7 677.9 1984.4 676.4 1985.3 675 1988.1 662.3 1966.3 633.5 1966.8 632.9 1967.1 632.3 1967.5 631.7 1967.7 631.1 1967.9 630.4 1968.1 629.8 1968.1 629.1 1968.1 628.4 1968.1 627.7 1968 627 1967.8 626.4 1967.5 625.7 1967.2 625.1 1966.8 624.5 1966.4 624 1965.9 623.5 1965.2 623.1 1964.5 622.7 1963.9 622.2 1963.3 621.6 1962.7 621 1962.2 620.4 1961.8 619.7 1961.4 619 1961.1 618.3 1960.8 617.5 1960.6 616.7 1960.5 615.9 1960.4 615.1 1960.4 614.3 1960.5 613.5 1960.6 612.7 1960.8 611.9 1961.1 611.1 1961.4 610.4 1961.8 609.7 1962.2 609 1962.7 608.4 1963.3 607.8 1964.6 607.2 1965.9 606.6 1967.2 606.2 1968.6 605.8 1970 605.4 1971.4 605.2 1972.8 605 1974.2 604.9 1975.6 604.8 1977 604.9 1978.5 605 1979.9 605.1 1981.3 605.4 1981.8 605.6 1982.3 605.9 1982.7 606.2 1983.1 606.6 1983.5 607 1983.8 607.5 1984 608 1984.2 608.6 1984.3 609.1 1984.4 609.7 1984.4 610.2 1986.1 624.7 1988 623.8 Z" data-holc_grade="B"/>
<path d="M 2011.5 736.8 1969.2 784.2 1946.1 763 1895.7 818.9 1863.5 787.9 1863.2 786.9 1863 785.9 1862.9 784.9 1862.8 783.9 1862.8 782.9 1862.9 781.8 1863 780.8 1863.3 779.8 1863.5 778.8 1863.9 777.8 1864.3 776.9 1864.7 776 1865.3 775.1 1865.8 774.3 1866.5 773.5 1867.2 772.7 1867.8 771.8 1868.5 770.8 1869 769.9 1869.5 768.8 1869.9 767.8 1870.3 766.7 1870.6 765.6 1870.8 764.5 1871 763.4 1871.1 762.3 1871.1 761.1 1871 760 1870.9 758.9 1870.7 757.8 1870.4 756.7 1870.1 755.6 1869.7 754.6 1929.8 686.1 1937.4 677.4 1966.3 633.5 1988.1 662.3 1985.3 675 1984.4 676.4 1983.7 677.9 1983 679.4 1982.3 680.9 1981.7 682.4 1981.2 684 1980.7 685.6 1980.4 687.2 1980 688.8 1979.8 690.4 1979.6 692.1 1979.5 693.7 1979.4 695.4 1979.4 697 1979.5 698.7 1979.7 700.3 1979.9 701.9 1980.2 703.6 1980.5 705.2 1981 706.8 1981.5 708.3 1983.8 711.1 1998.8 725 2011.5 736.8 Z" data-holc_grade="B"/>
<path d="M 1580.7 1194.1 1552.5 1227.9 1563.7 1236.1 1580.3 1235.3 1626.2 1241.9 1644.9 1241.5 1655.6 1241.2 1560.9 1343.1 1539.4 1324.3 1480.6 1273 1489.2 1262.5 1482.4 1256.1 1485.8 1250.5 1439 1203.4 1441.7 1201.6 1454.2 1201.2 1474 1187.4 1474 1186.2 1474.1 1185 1474.3 1183.8 1474.5 1182.6 1474.9 1181.4 1475.3 1180.3 1475.7 1179.2 1476.2 1178.1 1476.8 1177 1477.5 1176 1478.2 1175 1479 1174.1 1479.8 1173.2 1480.7 1172.4 1481.6 1171.6 1482.5 1170.9 1483.5 1170.2 1484.6 1169.6 1485.7 1169 1486.8 1168.5 1487.9 1168.1 1489.1 1167.8 1490.3 1167.5 1491.5 1167.3 1492.7 1167.2 1493.9 1167.1 1495.1 1167.1 1496.3 1167.2 1497.5 1167.3 1498.7 1167.5 1499.9 1167.8 1501 1168.2 1502.2 1168.6 1528.8 1162.4 1544 1163.4 1544.6 1163.4 1545.2 1163.4 1545.8 1163.5 1546.4 1163.7 1546.9 1163.9 1547.5 1164.2 1547.9 1164.6 1548.4 1165 1548.7 1165.5 1549 1166 1549.3 1166.5 1549.5 1167.1 1549.6 1167.6 1549.7 1168.2 1549.6 1168.8 1549.5 1169.4 1550.5 1178.8 1564.6 1176.8 1576.7 1186.8 1580.7 1194.1 Z" data-holc_grade="B"/>
<path d="M 1194.1 1581.6 1192.9 1659.8 1190.6 1690.1 1106.5 1775.7 1105.9 1704 1105.6 1674.4 1135 1642.2 1133.7 1579.8 1188.8 1578.4 1194.1 1581.6 Z" data-holc_grade="B"/>
</g>
<g id="C">
<path d="M 2852.3 171.2 2859.5 176 2863.3 175.7 2973 57.4 2999 87.9 2901.5 189.3 2845 214.3 2844.5 213.3 2844 212.3 2843.6 211.2 2843.3 210.1 2842.9 208.9 2842.7 207.6 2842.5 206.3 2842.3 204.9 2842.2 203.5 2842.1 202.1 2842.1 200.6 2842.2 199 2842.3 197.5 2842.4 195.9 2842.6 194.4 2842.8 192.8 2843.1 191.2 2843.5 189.6 2843.8 188.1 2844.3 186.6 2844.7 185 2845.3 183.6 2845.8 182.1 2846.4 180.7 2847 179.3 2847.7 178 2848.4 176.7 2849.1 175.5 2849.8 174.3 2850.6 173.2 2851.4 172.2 2852.3 171.2 Z" data-holc_grade="C"/>
<path d="M 1314.2 1457.4 1194.1 1581.6 1188.8 1578.4 1133.7 1579.8 1133.5 1567.8 1139.7 1564.4 1145.8 1560.9 1152 1557.3 1158.1 1553.7 1164.2 1550 1170.2 1546.3 1176.2 1542.5 1182.2 1538.6 1188.1 1534.7 1194 1530.8 1199.8 1526.8 1205.6 1522.7 1211.4 1518.6 1217.1 1514.4 1222.8 1510.1 1228.5 1505.9 1263.4 1475.7 1265.7 1474 1268.1 1472.3 1270.6 1470.7 1273 1469.1 1275.6 1467.6 1278.1 1466.1 1280.7 1464.7 1283.3 1463.4 1286 1462.1 1288.7 1460.9 1291.4 1459.8 1294.1 1458.7 1296.9 1457.7 1299.7 1456.8 1302.5 1455.9 1305.3 1455.1 1308.1 1454.4 1311 1453.7 1313.9 1453.1 1314.2 1457.4 Z" data-holc_grade="C"/>
<path d="M 1106.5 1775.7 985.6 1903.6 985.3 1907.5 978.1 1916.9 971.7 1915.7 964.6 1923.7 963 1913.2 948.6 1911.6 948.3 1884.2 945.7 1881.7 925.2 1882.7 924.2 1879 943.5 1848.9 963.1 1825.7 1014.5 1776.9 1018.8 1772.3 1023.1 1767.7 1027.4 1763.2 1031.8 1758.7 1036.3 1754.3 1040.8 1749.9 1045.3 1745.6 1049.9 1741.3 1054.6 1737.1 1059.3 1733 1064 1728.9 1067.3 1726.5 1070.6 1724.2 1074 1721.9 1077.4 1719.7 1080.8 1717.5 1084.3 1715.4 1087.8 1713.4 1091.4 1711.4 1094.9 1709.4 1098.6 1707.6 1102.2 1705.7 1105.9 1704 1106.5 1775.7 Z" data-holc_grade="C"/>
<path d="M 938.3 1945.4 850.3 2036.1 837.3 2024.7 836.3 1972.2 837.8 1970.2 839.3 1968.3 840.9 1966.4 842.6 1964.5 844.2 1962.7 846 1961 847.8 1959.3 849.6 1957.6 851.5 1956.1 853.4 1954.5 855.3 1953 857.3 1951.6 859.4 1950.2 861.4 1948.9 863.5 1947.6 870.2 1945.8 890.5 1928.7 892.5 1938 929.4 1937.3 938.3 1945.4 Z" data-holc_grade="C"/>
<path d="M 568.1 2527.7 548 2527 558.7 2505.5 562.2 2485.4 562.6 2480.2 563.2 2475 563.8 2469.8 564.4 2464.6 565.2 2459.4 566 2454.2 566.9 2449.1 567.9 2443.9 568.9 2438.8 570 2433.7 571.2 2428.6 572.5 2423.5 573.8 2418.4 575.2 2413.3 576.6 2408.3 575.2 2394.4 574.5 2359.5 574.4 2357.5 574.4 2355.4 574.5 2353.4 574.7 2351.4 574.9 2349.3 575.2 2347.3 575.6 2345.3 576 2343.3 576.5 2341.3 577.1 2339.4 577.7 2337.4 578.4 2335.5 579.2 2333.6 580.1 2331.8 581 2330 582 2328.2 583 2326.4 584.1 2324.7 585.2 2323 622.9 2281.3 673.4 2222 675.8 2240.8 712.4 2204.7 809.7 2091.3 872.6 2025.5 877 2030.4 829 2084 843 2109.4 821.2 2140.8 811.7 2157.5 780.6 2197.4 771.6 2210.4 764 2227.1 759.5 2319.8 750.8 2319.7 747.9 2317.6 673.7 2316.6 672.3 2344.7 617.5 2344.4 617.5 2529.4 568.1 2527.7 Z" data-holc_grade="C"/>
<path d="M 2733.3 303.6 2735.8 259.6 2734 259.5 2639.5 338 2640.7 206.6 2644.4 202.7 2735.9 198.9 2739.2 196 2739.5 127.7 2737.6 126 2701.8 126.4 2630.6 169 2630.9 109.1 2778.6 107.2 2778 108.3 2777.6 109.5 2777.2 110.7 2776.8 111.9 2776.6 113.1 2776.4 114.3 2776.2 115.6 2776.2 116.8 2776.2 118.1 2776.3 119.3 2776.5 120.6 2776.7 121.8 2777 123 2777.4 124.2 2777.9 125.3 2778.4 126.5 2779 127.6 2779.6 128.6 2780.4 129.7 2781.1 130.6 2781.9 131.6 2782.8 132.5 2783.8 133.3 2784.7 134.1 2785.8 134.8 2786.8 135.5 2787.9 136.1 2789.1 136.6 2790.2 137.1 2791.4 137.5 2792.6 137.8 2793.8 138 2795.1 138.2 2796.3 138.3 2797.6 138.4 2808.8 195 2806.5 196.6 2813.2 207.5 2812.7 210.7 2835.8 231.1 2836.4 231.5 2836.8 232 2837.3 232.5 2837.6 233.1 2837.9 233.7 2838.2 234.3 2838.3 234.9 2838.4 235.6 2838.4 236.2 2838.4 236.9 2838.3 237.6 2838.1 238.2 2837.8 238.8 2837.5 239.4 2837.2 239.9 2836.7 240.4 2836.2 240.9 2833.3 243.4 2832.2 253.1 2832.9 258.6 2838.7 254.1 2840.9 257.6 2841 258.6 2841 259.5 2841 260.5 2840.8 261.5 2840.7 262.5 2840.4 263.5 2840.1 264.4 2839.7 265.3 2839.2 266.2 2838.7 267.1 2838.1 267.9 2837.5 268.7 2836.8 269.4 2836.1 270.1 2835.3 270.7 2834.4 271.2 2834.3 271.5 2834 271.7 2833.8 272 2833.4 272.3 2833 272.5 2832.6 272.8 2832.2 273 2831.7 273.2 2831.1 273.5 2830.6 273.7 2830 273.9 2829.4 274.1 2828.7 274.2 2828.1 274.4 2826.7 274.7 2825.3 274.9 2823.8 275.1 2822.3 275.2 2820.8 275.2 2819.2 275.2 2817.6 275.2 2815.9 275.1 2814.3 274.9 2805.1 275.7 2790.2 278.8 2787.4 279.7 2784.6 280.7 2781.9 281.7 2779.2 282.8 2776.5 284 2773.9 285.2 2764.7 292.9 2758 297.4 2756.5 298.1 2755 298.7 2753.4 299.2 2751.9 299.7 2750.3 300.1 2748.7 300.4 2747.1 300.7 2745.5 300.9 2739.4 302.7 2733.3 303.6 Z" data-holc_grade="C"/>
<path d="M 2249.4 336 2249.4 313.4 2195.2 313.8 2194.8 284.8 2195.4 273.3 2198 267.9 2209.3 253 2213.1 253 2216.9 253 2220.6 253 2224.4 252.8 2228.2 252.7 2232 252.4 2235.8 252.1 2239.5 251.7 2243.3 251.3 2247.1 250.8 2248.2 146.8 2339.9 145.8 2339.1 201.7 2303.3 203.4 2301.4 277.6 2276.2 304 2273.5 313.4 2265.8 328.7 2265 329.5 2264.1 330.4 2263.1 331.2 2262.2 331.9 2261.1 332.6 2260.1 333.2 2259 333.8 2257.8 334.3 2256.7 334.7 2255.5 335.1 2254.3 335.4 2253.1 335.7 2251.9 335.8 2250.7 335.9 2249.4 336 Z" data-holc_grade="C"/>
<path d="M 2090.8 811.7 2075.4 797.2 2075.7 796.7 2149.7 716 2158.8 724.4 2238.2 665.3 2342.7 553.1 2351.5 560.8 2352.6 574.9 2359.5 582.3 2335.2 610.8 2329.3 611.4 2273.9 671.3 2272.4 672.9 2090.8 811.7 Z" data-holc_grade="C"/>
<path d="M 2027 475.3 2073.3 474.2 2109.3 470.2 2132.2 470.7 2104.2 508.2 2104.1 508.3 2082 534.6 2080 581.4 2057.5 581.9 2057.2 582.1 2056.9 582.4 2056.6 582.7 2056.4 583 2056.2 583.2 2056.1 583.6 2056 583.9 2055.9 584.2 2055.8 584.7 2055.8 585.3 2055.8 586 2055.8 587.9 2055.8 588.7 2055.8 589.8 2055.7 590.9 2054.9 594.8 2053.5 595.2 2052.1 595.5 2050.7 595.7 2049.3 595.8 2047.9 595.9 2046.5 596 2045.1 595.9 2043.7 595.8 2042.2 595.6 2040.9 595.4 2039.5 595.1 2038.1 594.7 2029 595.5 2004.8 616.1 2004.1 616.3 2003.4 616.5 2002.6 616.7 2001.9 616.8 2001.1 616.8 2000.4 616.7 1999.6 616.6 1998.9 616.5 1998.2 616.2 1997.5 615.9 1996.8 615.6 1996.1 615.2 1995.5 614.7 1994.9 614.2 1994.4 613.6 1993.9 613 1993.4 612.4 1993.1 611.7 1992.7 611 1992.5 610.2 1992.3 609.5 1992.2 608.7 1992.1 607.9 1992.1 607.2 1981.3 596.1 1979.6 595.4 1977.8 594.9 1976 594.4 1974.1 594 1972.3 593.7 1970.4 593.4 1968.6 593.2 1966.7 593.1 1964.8 593 1963 593 1961.1 593.1 1959.2 593.2 1957.4 593.4 1955.5 593.7 1944.4 587.1 1943.2 587 1942.1 586.9 1941.1 586.9 1940 586.8 1939 586.9 1938.1 586.9 1937.1 587 1936.2 587.2 1935.4 587.3 1934.6 587.4 1933.9 587.6 1933.1 587.9 1931.7 588.3 1928.6 589.4 1927.7 589.7 1927 589.9 1926.2 590.1 1925.4 590.3 1924.5 590.4 1923.7 590.5 1922.9 590.5 1922.1 590.4 1921.2 590.3 1920.4 590.1 1919.6 589.8 1918.9 589.4 1918.2 589.1 1917.5 588.6 1916.8 588.1 1916.2 587.5 1915.6 586.9 1915.1 586.3 1914.6 585.6 1914.2 584.9 1913.9 583.8 1913.5 582.5 1913.2 581.2 1912.4 577.7 1911.9 575.7 1911.6 574.8 1911.3 573.9 1911.1 573.1 1910.8 572.3 1910.4 571.4 1910 570.5 1909.6 569.6 1909.1 568.8 1908.6 568.1 1908.1 567.4 1907.6 566.7 1907 566.1 1899.4 559.6 1898.9 554.6 1870.4 553.5 1869.8 528.8 1764.6 530.6 1763.6 472.9 1773.7 472.3 1783.9 471.8 1794 471.3 1804.2 471 1814.4 470.7 1824.5 470.4 1834.7 470.3 1844.8 470.2 1855 470.2 1865.2 470.2 1875.3 470.3 1885.5 470.5 1895.6 470.8 1905.8 471.1 1916 471.5 1938.2 472.2 1960.4 472.9 1982.6 473.6 2004.8 474.4 2027 475.3 Z" data-holc_grade="C"/>
<path d="M 2075.4 797.2 2090.8 811.7 2034.8 855.9 2025.8 859.4 2000.9 837 1951.4 890.8 1924.6 870.6 1834.8 969.3 1839.5 973.4 1800.6 1017.5 1811.6 1028.3 1789.5 1050.7 1791.2 1094.4 1705.2 1186.6 1658 1149.2 1656.4 1140.5 1648.3 1136.3 1647.6 1136.4 1646.9 1136.3 1646.2 1136.2 1645.5 1136.1 1644.9 1135.8 1644.2 1135.5 1643.6 1135.2 1643.1 1134.7 1642.6 1134.3 1642.1 1133.7 1641.7 1133.2 1641.4 1132.5 1641.1 1131.9 1640.9 1131.2 1640.7 1130.5 1640.7 1129.9 1640.7 1129.2 1640.8 1128.5 1640.9 1127.8 1641.1 1127.1 1641.4 1126.5 1641.8 1125.9 1642.2 1125.3 1642.6 1124.8 1643.1 1124.3 1643.7 1123.9 1644.3 1123.5 1645 1123.2 1645.6 1123 1646.3 1122.9 1647 1122.8 1647.7 1122.8 1648.4 1122.8 1649.1 1122.9 1649.8 1123.1 1650.4 1123.4 1651 1123.7 1649.9 1069.8 1758.7 945.1 1758.8 903.8 1765.7 895.5 1772.6 887.3 1779.5 879.2 1798.7 856.2 1812.3 841.9 1863.5 787.9 1895.7 818.9 1946.1 763 1969.2 784.2 2011.5 736.8 2075.4 797.2 Z" data-holc_grade="C"/>
<path d="M 1929.8 686.1 1869.7 754.6 1870.1 755.6 1870.4 756.7 1870.7 757.8 1870.9 758.9 1871 760 1871.1 761.1 1871.1 762.3 1871 763.4 1870.8 764.5 1870.6 765.6 1870.3 766.7 1869.9 767.8 1869.5 768.8 1869 769.9 1868.5 770.8 1867.8 771.8 1867.2 772.7 1866.5 773.5 1865.8 774.3 1865.3 775.1 1864.7 776 1864.3 776.9 1863.9 777.8 1863.5 778.8 1863.3 779.8 1863 780.8 1862.9 781.8 1862.8 782.9 1862.8 783.9 1862.9 784.9 1863 785.9 1863.2 786.9 1863.5 787.9 1812.3 841.9 1798.7 856.2 1779.5 879.2 1772.6 887.3 1765.7 895.5 1758.8 903.8 1766 648.5 1869 648 1869.2 685.5 1929.8 686.1 Z" data-holc_grade="C"/>
<path d="M 1546.4 692.8 1651.8 690.3 1651.4 799.2 1548.9 795.9 1546.4 692.8 Z" data-holc_grade="C"/>
<path d="M 1539.4 1324.3 1560.9 1343.1 1458.2 1455.2 1430.8 1431.8 1429.2 1430.3 1427.5 1428.9 1425.7 1427.6 1423.9 1426.3 1422.1 1425 1420.2 1423.9 1418.3 1422.7 1416.3 1421.7 1414.4 1420.7 1412.4 1419.8 1410.3 1418.9 1408.3 1418.1 1406.2 1417.4 1404.1 1416.8 1401.9 1416.2 1399.8 1415.6 1397.6 1415.2 1395.4 1414.8 1393.3 1414.5 1391.1 1414.2 1388.9 1414.1 1386.6 1414 1384.4 1413.9 1384.6 1394.1 1406.5 1393.9 1405.3 1340.9 1324.7 1340.4 1350.9 1309.4 1365.2 1273.4 1427.4 1209.6 1434.3 1228.2 1457.7 1251.8 1455.8 1257.2 1455 1265.2 1453.2 1268.9 1472.4 1286.7 1471.8 1297.4 1484.9 1308.7 1496.2 1309.6 1526.6 1338 1539.4 1324.3 Z" data-holc_grade="C"/>
</g>
<g id="D">
<path d="M 2090.8 811.7 2272.4 672.9 2273.9 671.3 2284.1 682.6 2277.3 705.7 2275.9 716.8 2275.4 717.5 2274.9 718.2 2274.5 719 2274.2 719.8 2273.9 720.6 2273.6 721.5 2273.5 724.5 2270.6 727 2269.4 732.7 2267.1 735.2 2265.6 741.4 2263.5 742 2261.4 742.6 2259.3 743.3 2257.2 744.1 2255.1 744.9 2253.1 745.8 2251.1 746.7 2249.2 747.7 2247.2 748.8 2245.3 750 2243.5 751.2 2241.7 752.4 2230.3 761.6 2211.7 771 2210.9 771 2210 771.1 2209.1 771 2208.3 770.9 2207.4 770.7 2206.6 770.5 2202.9 772.3 2187.7 773.7 2186.4 775.1 2185.1 776.5 2183.8 777.9 2182.6 779.4 2181.5 781 2180.4 782.6 2179.4 784.2 2178.4 785.9 2177.5 787.5 2176.6 789.3 2175.8 791 2175.1 792.8 2174.4 794.6 2173.8 796.4 2173.2 798.3 2172.7 800.1 2172.3 802 2168.8 802.1 2168.2 802 2167.6 801.9 2167.1 801.8 2166.5 801.6 2166 801.3 2165.5 801 2165.1 800.7 2153.4 801.4 2152.1 801.9 2150.8 802.5 2149.7 803.1 2148.6 803.7 2147.5 804.3 2146.5 804.9 2145.6 805.5 2144.7 806.1 2143.8 806.7 2143 807.4 2142.1 808.1 2141.3 808.8 2140.7 809.5 2139.9 810.3 2137.6 812.9 2136.6 814 2136.1 814.5 2135.5 815 2134.9 815.5 2134.3 816 2133.5 816.6 2132.7 817.2 2131.8 817.7 2130.9 818.3 2129.9 818.8 2128.8 819.3 2127.7 819.8 2126.4 820.3 2125.3 820.8 2124.1 821.4 2123 822 2122 822.7 2120.9 823.5 2120 824.3 2119 825.1 2118.1 826 2117.3 827 2116.5 828 2115.8 829 2115.2 830.1 2114.6 831.2 2114.2 831.4 2113.7 831.5 2113.3 831.6 2112.8 831.6 2112.4 831.5 2112 831.4 2111.6 831.3 2111.2 831 2110.8 830.8 2110.5 830.4 2108.8 830.8 2107.3 831.8 2105.8 832.9 2104.4 834.1 2103 835.3 2101.7 836.5 2095.6 846.2 2095.2 845.9 2094.9 845.6 2094.6 845.3 2094.4 844.9 2094.3 844.4 2094.2 844 2094.2 843.5 2093.6 842.7 2092.9 841.8 2092.2 841 2091.4 840.3 2090.6 839.6 2089.7 838.9 2088.8 838.4 2087.9 837.8 2087.4 837.2 2087 836.6 2086.7 836 2086.4 835.3 2086.2 834.5 2086 833.8 2086 833.1 2085.9 832.3 2086 831.6 2086.1 830.9 2086.3 830.1 2086.5 829.4 2086.8 828.7 2087.2 828.1 2087.6 827.5 2088.1 826.9 2088.6 826.4 2088.2 825.8 2088 825.2 2087.8 824.5 2087.6 823.9 2087.6 823.2 2087.6 822.6 2087.6 821.9 2087.8 821.2 2088 820.6 2088.3 820 2090.8 811.7 Z" data-holc_grade="D"/>
<path d="M 1968.8 1142.3 1975.3 1155.2 1980 1162 1982.6 1171.4 2002.1 1221.1 2011.9 1241.9 2013.9 1247.4 2019.7 1255.7 2025.9 1264.3 2032.7 1273.1 2037.2 1280.5 2040.2 1285.5 2043.6 1292.9 2048 1297.5 2055.3 1304.6 2059.1 1310.7 2060.6 1313.9 2061.8 1320.6 2065.6 1330.2 2069.3 1336.2 2073.2 1345.4 2083.6 1363.9 2090.9 1383.4 2096.3 1392.8 2101.2 1402.9 2106.3 1410.9 2114.9 1425.8 2122 1441.2 2128.2 1453.2 2136.5 1463.4 2140.5 1469.2 2143.3 1475 2147.5 1480.7 2151.5 1487.3 2155.6 1495.1 2159 1499.7 2165.8 1510.5 2171.7 1520.1 2180.7 1533.3 2184.7 1541.1 2190.2 1548.9 2197.1 1560.4 2208 1574.4 2213.8 1581.8 2221.4 1593.8 2231.3 1607.8 2236 1617.1 2239.9 1622.6 2248.6 1633.3 2260.4 1649.7 2265 1656.6 2271.5 1667.2 2273.8 1673 2281.4 1684.5 2288.6 1696.3 2295.9 1706.5 2308.7 1724.7 2315.7 1734.4 2318.4 1738.5 2319.6 1744.6 2323.3 1747.1 2327.7 1752.8 2332.8 1761.8 2339.5 1771.1 2345.8 1775.2 2347.5 1779.5 2355.5 1792.1 2365.2 1804.8 2352.7 1815.2 2347.5 1806.2 2340.7 1793.9 2335.7 1785.7 2329.5 1778.1 2323.5 1769.4 2319.8 1765.4 2314.5 1756.5 2308.9 1749.9 2300.3 1738.3 2295 1730.3 2293.8 1727.3 2288.4 1717.8 2282.4 1710.2 2274.6 1701 2267.3 1692.1 2262.7 1686.4 2259.4 1682.2 2253.9 1675.3 2248.1 1668.6 2246.4 1665.9 2243 1665.4 2242.7 1662.2 2239.2 1658 2238.6 1656.7 2236.3 1656.6 2234 1654.4 2231.8 1652.9 2231.5 1649.2 2231.5 1646.5 2229 1642.7 2226.3 1639.9 2223.7 1638.7 2223 1632.8 2221.6 1631.7 2220.5 1631.1 2219.3 1627.4 2218.3 1624.5 2216.8 1623.2 2216.1 1620.3 2210.2 1615.3 2207.4 1612.4 2204.1 1610 2202.7 1607.7 2201.2 1604.9 2200.9 1601.8 2197.4 1599.3 2195.7 1594.8 2191.8 1590.8 2191.8 1586.4 2188.8 1586 2188.6 1582 2188.6 1580.4 2182.3 1572.8 2178.8 1570.4 2177 1566.2 2175.4 1563.9 2172.8 1558.7 2171.2 1554.3 2166.5 1548.2 2162.3 1541.9 2160.1 1538.2 2158.2 1536 2152.9 1529 2149 1523 2146.4 1520.5 2145 1516.2 2140.5 1512 2137.7 1507.9 2137.1 1506.6 2135.3 1505.7 2134.6 1500.2 2131.4 1495.4 2130 1492.2 2129.6 1490.2 2124.2 1484.2 2119.9 1478.8 2115.8 1473.5 2114.6 1472.7 2112.8 1471.8 2112.2 1469 2109.7 1468 2107.5 1465.6 2107.1 1459.5 2106 1458.5 2102.5 1453.7 2100.9 1449.1 2100.9 1445.5 2098.3 1440.6 2094.3 1440.2 2093.6 1437.5 2088.3 1432.5 2088 1425.5 2084.2 1419.8 2081.9 1417.3 2081.5 1412 2077.6 1407.9 2074.1 1401.4 2071.1 1397.5 2058.5 1380.9 2053.9 1373.9 2047.2 1363.3 2042.2 1353.9 2040.6 1349.4 2038.1 1348.4 2036.9 1338.5 2030.7 1333.7 2026.9 1324.9 2017.1 1317.6 2015.5 1315.3 2014 1308.4 2009.3 1299.1 2007.3 1294.9 2007.4 1289.1 2005.2 1284.3 2003.4 1278.5 2001 1278.3 2001.1 1281.5 1986.5 1286.3 1979.9 1271.7 1994.6 1266.9 1994.5 1265.1 1991.6 1262.5 1989.2 1261.8 1989 1259.5 1986.7 1258.5 1986.9 1243.9 1984 1238.7 1983.5 1232.7 1981.5 1230.3 1981 1225.3 1976.1 1223 1973.5 1223.9 1970.8 1229.6 1973 1221.7 1968.9 1219.4 1976.6 1219 1967.9 1200.4 1965.8 1196.5 1963.8 1196.1 1958.9 1183.6 1960.2 1180.3 1952.2 1166.8 1951.2 1163.9 1952.4 1161.4 1954.2 1160.7 1954.9 1153.7 1952.4 1148.6 1947.9 1148.6 1946.4 1147.1 1945.4 1143.8 1944.9 1139.9 1942.5 1138.2 1940.9 1135.3 1940.9 1135.2 1941.6 1132.4 1947.2 1128.9 1959.2 1125.1 1965.3 1123.8 1966.5 1128.2 1964.5 1131.4 1965.5 1134.8 1968.8 1142.3 Z M 1940.4 1114.2 1933.6 1114.5 1930.5 1111.7 1927.5 1107.2 1920.5 1091.2 1949.4 1082.2 1955.4 1104.9 1956.2 1109.2 1951.7 1111.3 1940.4 1114.2 Z" data-holc_grade="D"/>
<path d="M 1546.4 692.8 1548.9 795.9 1549 798 1548.7 910.9 1491.6 911.5 1491.2 855.6 1384.2 854.1 1384.2 823 1429.9 823.5 1432.1 822.2 1435.6 696.5 1435.1 580.8 1489.6 580.4 1491.8 577.2 1491.9 529.7 1544.1 529.7 1546.4 692.8 Z" data-holc_grade="D"/>
<path d="M 1644.9 1241.5 1626.2 1241.9 1580.3 1235.3 1563.7 1236.1 1552.5 1227.9 1580.7 1194.1 1599.3 1210.2 1607.4 1203.5 1612.7 1202.9 1616.8 1199.3 1620.9 1201.2 1629.7 1193.3 1645.7 1204.4 1668.4 1224.5 1667.5 1225.9 1666.5 1227.2 1665.5 1228.5 1664.4 1229.7 1663.3 1230.9 1662.1 1232.1 1660.9 1233.2 1659.6 1234.2 1658.3 1235.2 1656.9 1236.1 1655.5 1237 1654.1 1237.8 1652.6 1238.6 1651.1 1239.3 1649.6 1239.9 1648.1 1240.5 1646.5 1241 1644.9 1241.5 Z" data-holc_grade="D"/>
<path d="M 1532.7 1418.3 1569.2 1379.3 1588.4 1398.6 1588.4 1404.2 1544.6 1449 1536.8 1442.9 1543.6 1435.4 1544.2 1430.4 1532.7 1418.3 Z" data-holc_grade="D"/>
<path d="M 1447.4 1508.8 1455 1508.7 1454.4 1525.7 1451.3 1531.9 1403.5 1582.8 1317.6 1673.5 1267.1 1721.2 1247.8 1721.4 1248.1 1800.8 1234.5 1801.2 1233.4 1817.8 1222.8 1817.5 1222.1 1832.5 1220.4 1832 1218.6 1831.7 1216.9 1831.3 1215.1 1831.1 1213.4 1830.9 1211.6 1830.8 1209.8 1830.7 1208 1830.7 1206.3 1830.8 1204.5 1830.9 1202.7 1831.1 1201 1831.4 1199.2 1831.7 1197.5 1832.1 1196.1 1838.7 1194.2 1874 1191.3 1876 1138.4 1876.1 1137.7 1911.3 1102.5 1911.5 1101.7 1897.7 1082.5 1897.1 1083.9 1931.4 1083.8 1971 1081.6 1973.4 1061.7 1972.5 1061 1970.7 1060.2 1968.9 1059.3 1967.1 1058.4 1965.3 1057.4 1963.6 1056.3 1961.9 1055.2 1960.3 1054 1958.7 1052.8 1957.1 1051.5 1955.6 1050.1 1954.1 1048.7 1952.7 1047.3 1951.4 1045.8 1950.1 1044.2 1948.8 1042.6 1947.6 1041 1946.5 1039.3 1945.4 1037.6 1944.4 1035.8 1943.5 1034 1942.6 1029.1 1938.8 1028.7 1934.9 980.2 1933.2 966.1 1946.7 970 1951.3 968.7 1968.6 995.6 1968.7 996.3 2006.4 989.4 2009.3 980.7 2017.2 980 2018 979.2 2018.8 978.5 2019.5 977.7 2020.1 976.9 2020.7 976.2 2021.2 975.4 2021.7 974.6 2022.1 973.9 2022.5 973.1 2022.8 972.3 2023.1 971.5 2023.3 970.7 2023.4 969.9 2023.5 969.1 2023.6 968.3 2023.6 967.6 2023.5 966.9 2023.4 966.2 2023.3 965.4 2023.2 964.7 2023 963.9 2022.7 963.2 2022.4 962.4 2022.1 961.7 2021.8 961 2021.5 959.5 2020.7 958.1 2019.9 955.1 2018.2 953.8 2017.5 952.6 2016.9 952 2016.6 951.5 2016.4 951 2016.2 950.5 2016.1 950 2016 949.5 2015.9 949.1 2015.9 948.6 2015.9 948.2 2015.9 947.8 2016 943.7 2010.9 944 1968.1 1074.4 1831.8 1219.1 1683.5 1358.9 1545.9 1447.4 1508.8 Z" data-holc_grade="D"/>
<path d="M 568.1 2527.7 568.1 2634.8 594.7 2635 596.9 2635.4 599 2635.8 601.1 2636.3 603.2 2636.9 605.2 2637.5 607.3 2638.2 609.3 2639 611.3 2639.8 613.2 2640.7 615.2 2641.7 617.1 2642.7 618.9 2643.8 620.8 2645 622.6 2646.2 624.3 2647.4 626 2648.8 627.7 2650.1 629.3 2651.6 630.9 2653 632.4 2654.6 633.9 2656.1 635.3 2657.8 636.7 2659.4 638 2661.2 639.2 2662.9 640.4 2664.7 641.6 2666.5 642.6 2668.4 643.7 2670.3 644.6 2672.2 645.5 2674.2 646.3 2676.2 647.1 2678.2 647.8 2680.3 648.4 2682.3 649 2684.4 649.5 2686.5 654.2 2965.7 620.4 2963.7 546.3 2963.1 545.5 2958.3 545.1 2956.2 544.8 2954.3 544.4 2952.7 544.1 2951.2 543.7 2949.8 543.4 2948.5 543.1 2947.4 542.7 2946.4 542.4 2945.5 542 2944.7 541.6 2944 541.2 2943.4 540.8 2942.8 540.4 2942.3 540.1 2942 539.8 2941.8 539.5 2941.6 539.2 2941.4 538.9 2941.2 538.6 2941 538.2 2940.9 537.8 2940.7 537.2 2940.5 536.5 2940.3 532.2 2939.2 530.9 2938.9 529.7 2938.5 528.3 2938 527 2937.4 525.6 2936.8 524.2 2936.2 522.7 2935.4 521.3 2934.6 519.8 2933.8 518.3 2932.8 516.8 2931.8 515.2 2930.7 513.6 2929.6 512 2928.3 484.3 2927.8 484.6 2907.8 462 2906.5 470.1 2770.4 465.1 2649.2 459.8 2565.6 461.1 2566.6 462.5 2567.6 463.9 2568.5 465.3 2569.3 466.8 2570.1 468.3 2570.8 469.9 2571.5 471.5 2572.1 473 2572.6 474.7 2573.1 476.3 2573.5 477.9 2573.8 479.6 2574.1 481.3 2574.3 482.9 2574.4 484.6 2574.4 486.3 2574.4 488 2574.3 489.7 2574.2 491.3 2573.9 493 2573.6 494.6 2573.3 496.2 2572.8 497.8 2572.4 499.4 2571.8 501 2571.2 502.5 2570.5 504 2569.7 505.5 2568.9 506.9 2568 508.3 2567.1 509.7 2566.1 511 2565 512.2 2563.9 512.6 2563.1 513 2562.3 513.4 2561.6 513.7 2560.9 514.1 2560.4 514.4 2559.9 514.8 2559.4 515.2 2559 515.5 2558.7 515.8 2558.4 516.1 2558.2 516.5 2557.9 517.2 2557.4 519.3 2556.1 520.6 2555.3 521.9 2554.3 523.3 2553.3 524.8 2552.1 526.4 2550.7 528 2549.2 529.7 2547.6 531.7 2545.6 533.7 2543.5 535.9 2541.2 538.1 2538.7 540.5 2536 542.9 2533.2 545.4 2530.2 548 2527 568.1 2527.7 Z" data-holc_grade="D"/>
<path d="M 241.7 2745.8 243.7 2851.3 247.1 2855.3 289.3 2854.4 283.7 2881.6 280.7 2910.7 193.5 2900.1 175.6 3013.9 175.1 3015.5 174.5 3017.1 173.8 3018.7 173 3020.2 172.2 3021.8 171.3 3023.2 170.4 3024.7 169.4 3026.1 168.3 3027.4 167.2 3028.7 166 3030 164.8 3031.2 163.5 3032.3 162.2 3033.4 160.8 3034.4 159.4 3035.4 157.9 3036.3 156.4 3037.2 154.9 3038 153.3 3038.7 151.8 3039.4 150.1 3040 148.5 3040.5 146.8 3040.9 145.2 3041.3 143.5 3041.6 141.8 3041.9 140.1 3042 138.3 3042.1 136.6 3042.1 134.9 3042.1 133.2 3042 131.5 3041.8 129.8 3041.5 128.1 3041.2 126.4 3040.7 124.8 3040.3 123.1 3039.7 121.5 3039.1 119.9 3038.4 118.4 3037.6 116.9 3036.8 115.4 3035.9 114 3035 112.6 3034 111.2 3032.9 109.9 3031.8 108.7 3030.6 107.5 3029.4 106.3 3028.1 105.2 3026.8 104.2 3025.4 103.2 3024 102.3 3022.6 101.4 3021.1 100.6 3019.6 99.9 3018 99.3 3016.4 98.7 3014.8 91.2 2996.6 86.5 2962.4 77.8 2936.1 77.2 2934.6 76.6 2933.1 76 2931.7 75.2 2930.3 74.5 2928.9 73.6 2927.5 72.7 2926.2 71.7 2924.9 70.7 2923.7 69.7 2922.5 68.5 2921.3 67.4 2920.2 66.1 2919.2 64.9 2918.2 63.6 2917.3 62.2 2916.4 60.8 2915.6 59.4 2914.8 58 2914.1 56.5 2913.5 55 2913 53.5 2912.5 51.9 2912 50.4 2911.7 48.8 2911.4 47.2 2911.2 45.6 2911 44.6 2911.8 43.8 2912.4 43 2912.9 42.3 2913.3 41.9 2913.5 41.6 2913.6 41.3 2913.7 41 2913.8 40.7 2913.8 40.4 2913.8 40.2 2913.8 39.9 2913.8 39.6 2913.7 39.2 2913.5 38.9 2913.4 38.6 2913.1 38.3 2912.9 38 2912.6 36.3 2910.8 35.8 2910.4 35.3 2910 34.7 2909.5 34.2 2909.1 33.6 2908.8 33 2908.5 32.2 2908.1 31.5 2907.9 30.7 2907.6 29.9 2907.5 29 2907.3 28.1 2907.2 27.2 2907.2 26.2 2907.2 16.6 2905.1 1 2910.9 10.1 2854 43.6 2860.1 51.5 2812.2 186.7 2830.6 187.2 2804.9 170.7 2789.6 147.5 2787.7 133.5 2774.5 133.7 2746.8 241.7 2745.8 Z" data-holc_grade="D"/>
</g>
</svg>