<?xml version="1.0"?>
<svg xmlns="http://www.w3.org/2000/svg" version="1.2" baseProfile="tiny" width="3000" height="2937" viewBox="0 0 3000 2937" stroke-linecap="round" stroke-linejoin="round">
<g id="A">
<path d="M 908.1 506.4 908 607 859.1 604.5 859.6 553.1 768.4 550.1 352.9 529.9 183.3 523.7 186.3 437.6 355.2 445.7 357.7 292.7 450.5 249.3 444.2 450 798.1 466.4 796.8 502.8 908.1 506.4 Z" data-holc_grade="A"/>
<path d="M 1217.5 1274.7 1223.9 1246 1224.3 1209.5 1228.9 1127.3 1236.7 1050.5 1235.1 1005.8 1224.3 956.5 1226.8 914.6 1213.6 913.8 1212.8 807.9 1223.1 801.7 1236.3 802.9 1252.4 796.4 1259 769.3 1259.8 718.4 1266 674.8 1275.1 665 1322.1 660.5 1320.4 600 1322.9 508.9 1546.6 507.9 1546.6 559.7 1534.3 572.6 1516.2 573.8 1499 580.3 1493.5 591.6 1479.1 1149.4 1373.1 1170 1375.5 1219.2 1368.1 1245.5 1355.7 1261.5 1223.3 1270.6 1217.5 1274.7 Z" data-holc_grade="A"/>
<path d="M 2169.1 647.9 2210.9 652.7 2250.5 667.5 2261.7 684.8 2257.7 783.9 2224 868 2208.5 886.2 2184.7 899.1 2128.7 918.2 2083.2 925.6 2028.2 922.6 1989.5 911.2 1979.3 898.2 1977.1 825.2 1987 784.3 2002.8 754.4 2051.3 733.2 2098.1 734.1 2114.8 721.7 2124.3 693.1 2141.3 665.1 2154.3 655.2 2169.1 647.9 Z M 2169.1 647.9 2168.9 647.8 2169.2 647.8 2169.1 647.9 Z" data-holc_grade="A"/>
<path d="M 488.9 1277.7 488.8 1443.4 423.2 1444 427 1276.4 488.9 1277.7 Z" data-holc_grade="A"/>
<path d="M 1180.5 2113.1 1181 2182.7 1196.4 2263 1207.5 2278.7 1234.3 2295.4 1328.5 2311.6 1338.5 2318.8 1377.2 2323.1 1383.2 2330.9 1382.3 2377.7 1384 2393.3 1383.2 2466.5 1372.4 2537.1 1331.2 2597.9 1270.1 2689.1 1228 2748.3 1190.9 2786.9 860.8 2644.7 883.3 2455 908.1 2392.6 973.5 2317.4 1023 2291.3 1065.8 2286.1 1078.7 2247.6 1087 2124.4 1105.5 2110 1139 2108.5 1138.5 2111.8 1180.5 2113.1 Z" data-holc_grade="A"/>
</g>
<g id="B">
<path d="M 798.1 466.4 444.2 450 450.5 249.3 476.8 235.9 801.9 243.7 798.1 466.4 Z" data-holc_grade="B"/>
<path d="M 768.4 550.1 764.7 625 352.8 601.3 352.9 529.9 768.4 550.1 Z" data-holc_grade="B"/>
<path d="M 2018.2 1255 1977.7 1251 1964.7 1239.6 1962.5 1201.1 1951.4 1162.9 1758 1158.3 1734.5 1150.3 1715.7 1138 1704.5 1125.7 1793 997.9 1793.3 997.9 1880.5 996.3 1900 988.6 1903.7 929.2 1909.9 920.9 1957.8 919.9 1978.6 978.4 1995.6 997.5 2015.7 1008.9 2056.5 1012 2068.3 1021.6 2069.8 1043.4 2018.2 1255 Z" data-holc_grade="B"/>
<path d="M 2120.3 1737.4 2104 1740.2 2072.7 1739 2026.5 1783.7 2009.6 1817.8 1998.8 1821.5 1888.1 1740.5 1917.2 1710 1933 1707.2 1947.8 1710.6 2005.4 1733.7 2021.5 1738.7 2030.1 1731.3 2032.3 1719.9 2025.5 1709.7 1974.7 1679.8 1962.7 1672.7 1961.7 1655.8 1972.9 1640.4 1989.9 1628.7 2019.6 1625.3 2056.7 1629.9 2063.2 1640.7 2063.8 1672.4 2070 1686.6 2088.6 1693.1 2121.4 1699.5 2131.6 1710.3 2127.6 1728.2 2120.3 1737.4 Z" data-holc_grade="B"/>
<path d="M 2531.6 1979.3 2528.2 1946.2 2528.5 1842.8 2547.7 1837 2567.5 1841.6 2573.4 1869 2570.6 1968.2 2562.3 1977.5 2546.5 1982.4 2531.6 1979.3 Z" data-holc_grade="B"/>
<path d="M 1180.5 2113.1 1138.5 2111.8 1139 2108.5 1136 1828.2 1297.7 1829.1 1317.1 1619.6 1375.7 1593.3 1432.4 1592.2 1433.4 1662.7 1429.9 1674.7 1404.9 1703.4 1388.8 2000 1376.4 2007.7 1347.6 2017.9 1337.1 2030.8 1317.9 2117.4 1180.5 2113.1 Z" data-holc_grade="B"/>
</g>
<g id="C">
<path d="M 1322.9 508.9 1320.4 600 1322.1 660.5 1275.1 665 1266 674.8 1259.8 718.4 1259 769.3 1252.4 796.4 1236.3 802.9 1223.1 801.7 1212.8 807.9 1213.6 913.8 917.3 900.8 905.4 1086.6 795.1 1049.1 801.8 954.1 757.5 944.9 765.2 888.4 710.6 886.9 711.6 870.4 629.6 867.9 589.9 1023.8 567.7 1017.6 531.1 1003.7 500.2 986.3 460 951.9 426 918 404.8 878.5 347.6 791.2 321.4 748.6 313.6 730.1 278.6 665.4 239.9 619.7 232.2 617.2 181.2 578.7 183.3 523.7 352.9 529.9 352.8 601.3 764.7 625 768.4 550.1 859.6 553.1 859.1 604.5 908 607 908.1 506.4 932.8 507.5 939.5 365.3 1072.5 373.5 1062.7 617.3 1006.5 615.3 1001.9 753.3 1198.3 759.5 1202.4 681 1207.6 628.6 1205 600.4 1208.1 509.6 1171 497.8 1168.4 468 1128.2 374.1 1148.8 359.2 1225.1 429.5 1329.2 435.1 1328.7 460.3 1322.9 508.9 Z" data-holc_grade="C"/>
<path d="M 2018.2 1255 2069.8 1043.4 2068.3 1021.6 2056.5 1012 2015.7 1008.9 1995.6 997.5 1978.6 978.4 1957.8 919.9 1909.9 920.9 1903.7 929.2 1900 988.6 1880.5 996.3 1793.3 997.9 1793 997.9 1704.5 1125.7 1516.6 1123.6 1517 1190.5 1404.4 1190.9 1404.8 1308.4 1271.6 1312.5 1244.4 1303.4 1220.8 1287 1217.5 1274.7 1223.3 1270.6 1355.7 1261.5 1368.1 1245.5 1375.5 1219.2 1373.1 1170 1479.1 1149.4 1493.5 591.6 1499 580.3 1516.2 573.8 1534.3 572.6 1546.6 559.7 1546.6 507.9 1665.5 506.9 1666.3 765.8 1933.6 765.9 1936.6 556.5 1943.8 545.7 2008.8 533 2028.7 523.4 2052.2 494.8 2070.3 456.9 2083 436.4 2092.2 424.9 2102.3 395.6 2116.1 219.8 2113.2 198.9 2112.7 10.5 2232.7 1 2234.4 113.5 2250.1 268.9 2258.2 332.9 2269.3 419.8 2286 488.7 2313.9 538 2384.5 652 2398.4 684.4 2422.7 760.3 2459.3 842.4 2495.4 909.2 2518.1 983.1 2505.5 1010.9 2421 1059.4 2357.1 1098.4 2312.1 1131.3 2268 1169.5 2239.5 1202.7 2227.2 1241.3 2224.7 1277.1 2151.7 1283.2 2082 1276.3 2018.2 1255 Z M 2169.1 647.9 2169.2 647.8 2168.9 647.8 2169.1 647.9 2154.3 655.2 2141.3 665.1 2124.3 693.1 2114.8 721.7 2098.1 734.1 2051.3 733.2 2002.8 754.4 1987 784.3 1977.1 825.2 1979.3 898.2 1989.5 911.2 2028.2 922.6 2083.2 925.6 2128.7 918.2 2184.7 899.1 2208.5 886.2 2224 868 2257.7 783.9 2261.7 684.8 2250.5 667.5 2210.9 652.7 2169.1 647.9 Z" data-holc_grade="C"/>
<path d="M 2978.3 2452.1 2945.5 2433.9 2912.7 2420.3 2839.6 2406.8 2828.2 2401.3 2814.9 2394.8 2790.7 2383.1 2659.5 2338.5 2586.2 2305.8 2546.9 2272.9 2539.4 2249.5 2540.3 2211.9 2541 2180.5 2539.9 2158.7 2537.2 2104.7 2523.6 2015.4 2531 1997.8 2531.6 1979.3 2546.5 1982.4 2562.3 1977.5 2570.6 1968.2 2573.4 1869 2567.5 1841.6 2547.7 1837 2528.5 1842.8 2528.5 1825.8 2528.5 1817.3 2528.8 1773.5 2530.2 1750.8 2525.9 1742.5 2383.6 1739.8 2324.5 1745.3 2222.4 1745.4 2120.3 1737.4 2127.6 1728.2 2131.6 1710.3 2121.4 1699.5 2088.6 1693.1 2070 1686.6 2063.8 1672.4 2063.2 1640.7 2056.7 1629.9 2019.6 1625.3 1989.9 1628.7 1972.9 1640.4 1961.7 1655.8 1962.7 1672.7 1974.7 1679.8 2025.5 1709.7 2032.3 1719.9 2030.1 1731.3 2021.5 1738.7 2005.4 1733.7 1947.8 1710.6 1933 1707.2 1917.2 1710 1888.1 1740.5 1865.2 1721.4 1837.7 1703.9 1841.1 1680.5 1841.1 1635.5 1836.4 1585.9 1825.6 1548.6 1804.9 1525.8 1755.1 1495 1697.2 1486.4 1660.4 1478.1 1641.5 1470.7 1613.4 1461.8 1595.7 1439.9 1588.6 1409.4 1586.4 1382 1590.5 1359.8 1605.3 1324.4 1704.5 1125.7 1715.7 1138 1734.5 1150.3 1758 1158.3 1951.4 1162.9 1962.5 1201.1 1964.7 1239.6 1977.7 1251 2018.2 1255 2082 1276.3 2063 1417.1 2072 1427.6 2090 1433.1 2199.2 1439 2211.5 1453.7 2214.6 1475.3 2242.5 1557.8 2250.5 1568 2262.9 1568.9 2285.5 1564.6 2304.4 1536 2331 1531.3 2376.5 1509.2 2412.7 1501.8 2484.1 1512.8 2510.1 1526.1 2533.9 1527.6 2567 1517.4 2606.6 1497.1 2680.9 1481.7 2755.7 1458.2 2773.1 1449 2837.1 1466.8 2845.8 1488.1 2847 1508.4 2841.5 1562 2839 1674.1 2846.5 1724.3 2861.7 1875.9 2862 1950.4 2854 2135.4 2856.5 2171 2861.6 2311 2886.6 2329.2 2929.7 2347.3 2977.6 2370.7 2997.8 2387.7 2999 2413.8 2990 2439.7 2978.3 2452.1 Z" data-holc_grade="C"/>
<path d="M 1136 1828.2 1131.2 1641.3 1031.9 1659 974.7 1618.7 945.6 1605.1 916.4 1605.4 885 1618.7 828 1680.8 772.4 1674.5 750.5 1731.2 704.2 1728.1 749.7 1600.9 745.4 1593.2 611.7 1548.2 452.1 1509.4 457.7 1461 713.5 1524.5 758.1 1526.4 885.5 1512.8 920.5 1494.3 999.7 1373.3 996.3 1356.7 986.1 1348.1 769 1245.8 668.1 1236.2 550.9 1205.1 489.6 1171.8 458.4 1141.3 425.3 1071.7 404.3 1040.6 370.3 1013.1 397.8 933.7 467.5 999 533 1039.7 599 1065.9 688.1 1086.1 786.3 1105.8 924 1157.2 1077.1 1254.5 1084.1 1271.8 1081.2 1313.6 1149.2 1360.1 1143.9 1431.1 1151.7 1449.2 1172.7 1460.7 1275.9 1461.9 1356.3 1518.2 1369.5 1538.7 1375.3 1569.9 1375.7 1593.3 1317.1 1619.6 1297.7 1829.1 1136 1828.2 Z" data-holc_grade="C"/>
<path d="M 883.3 2455 883 2455.9 732.7 2450.9 435.6 2429.9 379.3 2417.5 304.4 2377.5 292 2357.8 306.3 2247.5 329.9 2096.5 344.1 1947.4 374.5 1891.4 401.1 1869.8 460.5 1862.4 623.9 1850.8 818.3 1855.3 800.8 1901.5 786.3 2025.8 766.7 2116.6 937.4 2118.7 995.2 2101.3 1024 2078.7 1042.6 2041.7 1090.1 1985.3 1107.6 1884.6 1122 1842.5 1136 1828.2 1139 2108.5 1105.5 2110 1087 2124.4 1078.7 2247.6 1065.8 2286.1 1023 2291.3 973.5 2317.4 908.1 2392.6 883.3 2455 Z" data-holc_grade="C"/>
<path d="M 1180.5 2113.1 1317.9 2117.4 1337.1 2030.8 1347.6 2017.9 1376.4 2007.7 1388.8 2000 1404.9 1703.4 1429.9 1674.7 1433.4 1662.7 1432.4 1592.2 1454.1 1598.2 1464.9 1609.6 1480.4 1644.7 1503.9 1665 1532.1 1698.9 1537.9 1733.1 1527.1 1759.9 1477.9 1859.1 1466.2 1902.8 1462.4 1960.4 1453.5 2005.1 1443.3 2034.7 1426.9 2065.8 1365.6 2203.2 1355.8 2249.2 1361 2289.5 1377.2 2323.1 1338.5 2318.8 1328.5 2311.6 1234.3 2295.4 1207.5 2278.7 1196.4 2263 1181 2182.7 1180.5 2113.1 Z" data-holc_grade="C"/>
<path d="M 1909 2698.3 1896.5 2793.8 1896.1 2876.4 1752.5 2873.9 1692.6 2862 1632 2847.2 1556.1 2814.2 1555.8 2813.8 1619.8 2717.7 1646.6 2705.3 1668.1 2686 1690.3 2677 1693.2 2656 1736.1 2516.8 1773.7 2366.8 1768.3 2362.3 1637.5 2377.9 1621.8 2375.5 1607 2363.6 1609.1 2331.5 1642.1 2331.5 1680.4 2324.1 1862 2322.5 1867.7 2339.3 1867.3 2353.3 1862.4 2374.2 1872.7 2400.5 1886.7 2412 1944.9 2440.8 1965.5 2454.7 1961 2502.8 1931.3 2603.9 1909 2698.3 Z" data-holc_grade="C"/>
</g>
<g id="D">
<path d="M 1128.2 374.1 1168.4 468 1171 497.8 1208.1 509.6 1205 600.4 1207.6 628.6 1202.4 681 1198.3 759.5 1001.9 753.3 1006.5 615.3 1062.7 617.3 1072.5 373.5 1128.2 374.1 Z" data-holc_grade="D"/>
<path d="M 2773.1 1449 2755.7 1458.2 2680.9 1481.7 2606.6 1497.1 2567 1517.4 2533.9 1527.6 2510.1 1526.1 2484.1 1512.8 2412.7 1501.8 2376.5 1509.2 2331 1531.3 2304.4 1536 2285.5 1564.6 2262.9 1568.9 2250.5 1568 2242.5 1557.8 2214.6 1475.3 2211.5 1453.7 2199.2 1439 2090 1433.1 2072 1427.6 2063 1417.1 2082 1276.3 2151.7 1283.2 2224.7 1277.1 2336.6 1256.9 2429.9 1245 2548 1239.4 2643.4 1244 2698.6 1247 2793.4 1232.6 2800.1 1294.2 2794.5 1409.2 2787.8 1436.4 2773.1 1449 Z" data-holc_grade="D"/>
<path d="M 2528.5 1825.8 2519.2 1836.5 2497.8 1846.3 2411.2 1849.1 2372.5 1851.9 2363.6 1859 2357.4 1883.3 2358 1933.5 2363.3 1941.2 2523.6 2015.4 2537.2 2104.7 2539.9 2158.7 2541 2180.5 2540.3 2211.9 2539.4 2249.5 2546.9 2272.9 2586.2 2305.8 2659.5 2338.5 2790.7 2383.1 2814.9 2394.8 2828.2 2401.3 2839.6 2406.8 2912.7 2420.3 2945.5 2433.9 2978.3 2452.1 2975.5 2485.1 2960 2526.1 2945.8 2578.5 2945.2 2593 2881.4 2576.7 2824.5 2557 2767.5 2530.2 2714.9 2499.4 2697 2487.7 2649.6 2468.9 2640.3 2461.2 2511.6 2393.4 2477.2 2372.2 2446 2359.6 2096 2165.9 2046.5 2136.6 2014.3 2097.5 2005.6 2071.3 1983.9 2034.9 1962.6 1994.3 1949.9 1964.1 1936 1929.9 1932.9 1901.9 1941.2 1890.5 1957.9 1880.3 2025.1 1929.3 2066.5 1952.1 2079.5 1953.3 2090.4 1945.9 2099.6 1930.5 2103 1915.4 2096.2 1896.6 2037.1 1855 1998.8 1821.5 2009.6 1817.8 2026.5 1783.7 2072.7 1739 2104 1740.2 2120.3 1737.4 2222.4 1745.4 2324.5 1745.3 2383.6 1739.8 2525.9 1742.5 2530.2 1750.8 2528.8 1773.5 2528.5 1817.3 2528.5 1825.8 Z" data-holc_grade="D"/>
<path d="M 397.8 933.7 370.3 1013.1 298.4 1011.9 237.5 1000.6 170.5 976 125.2 957.5 77.2 928.2 44.2 895.9 22.6 860.9 1 730 9.3 690.5 42.8 632.5 66 608.9 104.7 596.6 132 600.2 178.9 620.3 221.2 650.6 268 717.3 330.9 834.9 397.8 933.7 Z" data-holc_grade="D"/>
<path d="M 1136 1828.2 1122 1842.5 1107.6 1884.6 1090.1 1985.3 1042.6 2041.7 1024 2078.7 995.2 2101.3 937.4 2118.7 766.7 2116.6 786.3 2025.8 800.8 1901.5 818.3 1855.3 1073.1 1867.2 1071 1744.4 948.1 1713.6 934.9 1779.3 818.6 1738.6 750.5 1731.2 772.4 1674.5 828 1680.8 885 1618.7 916.4 1605.4 945.6 1605.1 974.7 1618.7 1031.9 1659 1131.2 1641.3 1136 1828.2 Z" data-holc_grade="D"/>
<path d="M 1556.1 2814.2 1404.7 2723 1406 2507.3 1415.9 2456.5 1418.4 2407.2 1407.5 2334.2 1382.2 2266.4 1379.4 2226 1480.5 2017.7 1517.9 1910.2 1593.7 1780.5 1609.5 1768.2 1620.9 1764.5 1745.3 1845.2 1798.1 1889.1 1814.2 1922 1856.7 1984.4 1871.1 2008.6 1899.9 2059.8 1919.9 2102.1 1992.7 2178.5 2154 2264.2 2334.1 2346.4 2534.9 2454.6 2493.7 2544.2 2480.5 2553.6 2449.9 2543.8 2386.4 2540.1 2346 2542.2 2289.9 2565.2 2189.2 2632.2 2218.1 2714.7 2220.2 2737.7 2243.3 2808.4 2237.9 2871.7 2223.5 2910.3 2210.3 2936.2 2181 2935.3 2009.3 2895.5 2047.3 2751.3 1909 2698.3 1931.3 2603.9 1961 2502.8 1965.5 2454.7 1944.9 2440.8 1886.7 2412 1872.7 2400.5 1862.4 2374.2 1867.3 2353.3 1867.7 2339.3 1862 2322.5 1680.4 2324.1 1642.1 2331.5 1609.1 2331.5 1607 2363.6 1621.8 2375.5 1637.5 2377.9 1768.3 2362.3 1773.7 2366.8 1736.1 2516.8 1693.2 2656 1690.3 2677 1668.1 2686 1646.6 2705.3 1619.8 2717.7 1555.8 2813.8 1556.1 2814.2 Z" data-holc_grade="D"/>
</g>
</svg>