<?xml version="1.0"?>
<svg xmlns="http://www.w3.org/2000/svg" version="1.2" baseProfile="tiny" width="3000" height="4172" viewBox="0 0 3000 4172" stroke-linecap="round" stroke-linejoin="round">
<g id="A">
<path d="M 140.3 2779.6 53.7 2681.7 49.1 2542.6 1 2349.2 819.9 2371.1 773.3 2502.5 736 2513.4 737.5 2623.1 628.7 2621.6 600.8 2660.2 577.4 2782.4 603.8 2862.8 521.4 2921.6 485.7 3020.6 432.2 2984.4 357.6 2877.4 384.4 2855.7 465.5 2803.3 445.3 2773.1 516.8 2720.5 495.1 2694.2 579 2633.9 285.3 2613.8 238.7 2660.1 263.1 2686.8 264.1 2688.4 140.3 2779.6 Z" data-holc_grade="A"/>
<path d="M 2095.3 2038.3 2092.5 2081.9 1992.5 2080.5 1987.5 2167.9 1916.8 2164.8 1916.8 2183.1 1875.4 2183.8 1894.2 2290.7 1799.1 2354.1 1799.1 2346.6 1774 2365 1772.6 2366 1768.9 2357 1670.5 2362.9 1670.5 2028.4 1615.8 2028.4 1613.8 1944.3 1554.6 1943.2 1551.8 1896.4 1673 1898 1674.6 1864 1679.2 1863.9 1977.5 1860.8 1979.1 2035.6 2095.6 2032.5 2095.3 2038.3 Z" data-holc_grade="A"/>
<path d="M 2457.9 1855.5 2389.4 2036.2 2394.4 2096.6 2293 2263.9 2264.2 2272.8 2269.1 2066 2265.3 2067.7 2268.1 2048.1 2290 2049.1 2429.2 1853.2 2457.9 1855.5 Z" data-holc_grade="A"/>
<path d="M 2986.5 1854.9 2990 1869.8 2984.2 2259.7 2750.6 2257.9 2753.4 1961.9 2753.4 1853.2 2986.5 1854.9 Z" data-holc_grade="A"/>
</g>
<g id="B">
<path d="M 2609.3 1124.8 2467.7 1124 2467.8 1122.3 1802.2 1120.5 1797.7 1022.1 2032.3 1023 2032.3 697.5 2701.3 687.5 2624.9 1028.9 2611 1124.8 2609.3 1124.8 Z" data-holc_grade="B"/>
<path d="M 1802.2 1120.5 2467.8 1122.3 2467.7 1124 2457.1 1756.3 2457.1 1760 2397.3 1841.1 2275.7 1842.3 2277.1 2010.5 2252.2 2038.2 2118 2040.2 2095.3 2038.3 2095.6 2032.5 1979.1 2035.6 1977.5 1860.8 1679.2 1863.9 1678.1 1124.9 1800.9 1120.5 1802.2 1120.5 Z" data-holc_grade="B"/>
<path d="M 2986.5 1854.9 2753.4 1853.2 2753.3 1768 2695.7 1771.9 2693.7 1735.3 2633 1738.3 2631.1 1674.5 2787.1 1616.6 2994 1855 2986.5 1854.9 Z" data-holc_grade="B"/>
<path d="M 2742.2 2479.5 2284.1 2476.7 2264.2 2482.5 2264.2 2477.7 2093.2 2478.7 2094.2 2520.2 1975.8 2519.3 1981 2306.4 2095.1 2250.1 2075.2 2212.5 2179.6 2157 2159.7 2117.4 2265.3 2067.7 2269.1 2066 2264.2 2272.8 2293 2263.9 2394.4 2096.6 2389.4 2036.2 2457.9 1855.5 2474.9 1810.6 2567.4 1712.6 2631 1671 2631.1 1674.5 2633 1738.3 2693.7 1735.3 2695.7 1771.9 2753.3 1768 2753.4 1853.2 2753.4 1961.9 2750.6 2257.9 2748.6 2479.5 2742.2 2479.5 Z" data-holc_grade="B"/>
<path d="M 1673.1 2468.6 1400 2783 1399 2783.7 1387.8 2792.1 1343.3 2739 1395 2704.4 1596.9 2470.8 1592.9 2463.9 1645.6 2424.3 1669.5 2462.9 1673.1 2468.6 Z" data-holc_grade="B"/>
<path d="M 844.5 2935.8 845.5 2937 925.5 3033 1094.6 2909.2 1085.6 2894.4 1128.4 2792.5 1130.4 2744 1315.4 2749.9 1314.4 2818.2 1312.2 2819.9 715.4 3271.5 566.3 3384.3 545 3398 355.5 3148.7 352.3 3151.2 305.8 3080.3 339.6 3057.6 133.8 2784.3 140.3 2779.6 264.1 2688.4 263.1 2686.8 238.7 2660.1 285.3 2613.8 488.2 2627.7 313.9 2752.7 384.4 2855.7 357.6 2877.4 432.2 2984.4 397.3 3009.1 453 3077.4 641 2919.1 708.7 2981.4 814.1 2899.3 844.5 2935.8 Z" data-holc_grade="B"/>
</g>
<g id="C">
<path d="M 2019.3 17.8 2665.3 1 2679.4 496.6 2114.8 505.6 2031.3 512.5 2019.3 17.8 Z" data-holc_grade="C"/>
<path d="M 2609.3 1124.8 2609.7 1135.5 2579.2 1379.3 2554.4 1573.8 2519.4 1680.2 2463.4 1755.5 2457.1 1756.3 2467.7 1124 2609.3 1124.8 Z" data-holc_grade="C"/>
<path d="M 1981 2306.4 1975.8 2519.3 2094.2 2520.2 2093.2 2478.7 2264.2 2477.7 2264.2 2482.5 2262.3 2664.7 2032.7 2661.4 1852.2 2658.8 1851.5 2658.8 1853.5 2426.2 1799 2427.1 1799.1 2427 1799.1 2380.7 1981.7 2273.8 1981 2306.4 Z" data-holc_grade="C"/>
<path d="M 1554.6 1943.2 1613.8 1944.3 1615.8 2028.4 1670.5 2028.4 1670.5 2362.9 1768.9 2357 1772.6 2366 1661 2447.9 1675.6 2465.6 1673.1 2468.6 1669.5 2462.9 1645.6 2424.3 1592.9 2463.9 1596.9 2470.8 1395 2704.4 1343.3 2739 1387.8 2792.1 1386.1 2793.4 1322.4 2841 1312.2 2819.9 1314.4 2818.2 1315.4 2749.9 1130.4 2744 1128.4 2792.5 1085.6 2894.4 1094.6 2909.2 925.5 3033 845.5 2937 844.5 2935.8 1216.1 2668.1 1213 2255 1391 2258 1391 1940.3 1554.6 1943.2 Z" data-holc_grade="C"/>
<path d="M 1723.8 2643.8 774.8 3358.2 773.7 3356.5 715.4 3271.5 1312.2 2819.9 1322.4 2841 1386.1 2793.4 1387.8 2792.1 1399 2783.7 1400 2783 1673.1 2468.6 1675.6 2465.6 1661 2447.9 1772.6 2366 1774 2365 1799.1 2346.6 1799.1 2354.1 1799.1 2380.7 1799.1 2427 1799 2427.1 1655.2 2541.7 1729.1 2639.8 1723.8 2643.8 Z" data-holc_grade="C"/>
<path d="M 545 3398 584.2 3449.6 516.6 3503.1 555.4 3562.5 552.7 3562.7 550.6 3562.9 428.8 3574.2 395.2 3577.3 354.4 3568.4 348.4 3575.3 348.4 3602 172.4 3541.6 115.7 3463.4 114.8 3463.9 91.8 3476.2 89.5 3475.9 88.8 3475.8 69.9 3473.3 52 3450.5 55 3423.8 85.9 3385.2 99.8 3284.2 195.4 3215.9 224.2 3251.6 352.3 3151.2 355.5 3148.7 545 3398 Z" data-holc_grade="C"/>
</g>
<g id="D">
<path d="M 2743.8 2905 2743.8 2910.7 2446.6 2884.7 2443.3 2884.4 2229.5 2868.6 2034.4 2837.3 2032.7 2661.4 2262.3 2664.7 2264.2 2482.5 2284.1 2476.7 2742.2 2479.5 2743.8 2905 Z" data-holc_grade="D"/>
<path d="M 2032.7 2661.4 2034.4 2837.3 2034.5 2845.9 1939 2828.1 1847.5 2841 1852.2 2658.8 2032.7 2661.4 Z" data-holc_grade="D"/>
<path d="M 2743.8 2905 2991 2947.7 2999 3744.3 2854.4 3733.5 2848 3179.8 2658.4 3207.7 2437.8 3333 2437.8 3433.6 2263.7 3428.9 2265.2 3142.8 2077.1 3144.4 1721.2 3350.1 1642 3238.8 1453.9 3379.5 1486.5 3425.9 1070 3622.3 1052.9 3580.6 833.7 3639.3 967.4 3543.4 947.2 3518.7 1388.6 3193.9 1391.8 3198 1475.7 3305.3 1618.7 3206.3 1537.7 3085.5 1534.7 3081 1713.5 2948 1878.2 2949.5 1850.2 2972.7 1851.8 2995.9 2614.9 2995.8 2563.6 2947.9 2445.5 2944.8 2446.6 2884.7 2743.8 2910.7 2743.8 2905 Z" data-holc_grade="D"/>
<path d="M 1391.8 3198 1537.7 3085.5 1618.7 3206.3 1475.7 3305.3 1391.8 3198 Z" data-holc_grade="D"/>
<path d="M 841.5 3730.6 1301.6 3600.7 1307.8 3821.9 1268.9 3832.7 1320.2 3998.3 945.6 4097.2 964.2 4171.5 783.9 4169.9 497.9 3940.9 771.5 3970.4 804.1 3961.1 810.3 3941 771.5 3789.4 853.9 3769.3 841.5 3730.6 Z" data-holc_grade="D"/>
<path d="M 773.7 3356.5 774.8 3358.2 1723.8 2643.8 1762 2691.5 779.2 3432.8 793.1 3454.6 757.3 3482.3 707.6 3411.1 773.7 3356.5 Z" data-holc_grade="D"/>
<path d="M 550.6 3562.9 559.3 3569.4 587.2 3606.1 522.5 3653.6 385.2 3651.5 299.7 3632.7 146.5 3573.3 88.8 3513.9 88.8 3475.8 89.5 3475.9 91.8 3476.2 114.8 3463.9 115.7 3463.4 172.4 3541.6 348.4 3602 348.4 3575.3 354.4 3568.4 395.2 3577.3 428.8 3574.2 550.6 3562.9 Z" data-holc_grade="D"/>
</g>
</svg>