<?xml version="1.0"?>
<svg xmlns="http://www.w3.org/2000/svg" version="1.2" baseProfile="tiny" width="3000" height="2343" viewBox="0 0 3000 2343" stroke-linecap="round" stroke-linejoin="round">
<g id="A">
<path d="M 977.3 1173.9 949.7 1195 938.6 1189.5 876.9 1063.7 634.5 1181.1 622.5 1189.5 607.8 1158.6 975 978.2 1028 1083.9 986.6 1101.4 965.3 1148.2 977.3 1173.9 Z" data-holc_grade="A"/>
<path d="M 938.6 1189.5 745.9 1275.7 749.7 1284.6 699.8 1319.7 634.5 1181.1 876.9 1063.7 938.6 1189.5 Z" data-holc_grade="A"/>
<path d="M 1705.7 1441 1682.4 1389.7 1751.5 1383.5 1779.8 1372.1 1809.9 1429.4 1796.6 1434.7 1860.3 1561.6 1786.9 1602.2 1735.6 1596 1761.2 1562.5 1757.7 1552.8 1715.2 1577.5 1668.3 1490.2 1720.5 1463.8 1705.7 1441 Z" data-holc_grade="A"/>
<path d="M 1660 1756.9 1637.3 1713.1 1623 1685.5 1603.3 1647.6 1634.9 1630.6 1699.8 1595.6 1722.8 1632.6 1749.4 1623.8 1765.3 1643.2 1791 1659 1787.4 1724.3 1701.6 1796.6 1686.6 1748.1 1660 1756.9 Z" data-holc_grade="A"/>
</g>
<g id="B">
<path d="M 276.7 1744 163.1 1744.8 66.5 1800.5 13.3 1691.4 18.8 1676.3 55.7 1655.2 1 1532.1 73 1484.9 87.7 1482.1 93.2 1469.3 263.7 1351.9 284.3 1360 369.7 1548.9 411.8 1524.7 358.7 1427.6 379.4 1415.9 424.4 1414.5 445.7 1464.5 487.8 1446.9 549 1441 569.6 1485.1 463.4 1535.7 486.2 1580.6 250.1 1692.8 276.7 1744 Z" data-holc_grade="B"/>
<path d="M 1870.9 1298.2 1881.5 1391.4 1857.8 1404 1809.9 1429.4 1779.8 1372.1 1751.5 1383.5 1682.4 1389.7 1697.5 1337.7 1846.1 1268 1852.3 1307.7 1870.9 1298.2 Z" data-holc_grade="B"/>
<path d="M 2195.3 518 2102.5 566.5 2093.6 571.8 2031.7 445.8 2058.2 429.1 2090 400 2133.3 389.4 2183.7 365.6 2206.7 436 2243 491.5 2195.3 518 Z" data-holc_grade="B"/>
<path d="M 2102.5 566.5 2195.3 518 2213 553.2 2227.1 550.6 2235.1 571.7 2234.2 605.2 2142.3 651 2102.5 566.5 Z" data-holc_grade="B"/>
<path d="M 2640.8 389 2496.6 371.5 2475.5 368.9 2569.1 276.4 2600.1 345.9 2616.9 345 2638.2 356.5 2640.8 389 Z" data-holc_grade="B"/>
<path d="M 2661.9 735.6 2675.4 754.2 2562.7 809.4 2550.5 779.8 2516.9 698.5 2562.6 682.3 2595.8 757.2 2654 724.9 2661.9 735.6 Z" data-holc_grade="B"/>
<path d="M 2228.8 354.1 2327.8 275.6 2365.9 372.5 2293.4 416.6 2312.9 451 2275.7 473.9 2246.5 419.3 2228.8 354.1 Z" data-holc_grade="B"/>
<path d="M 1527.4 1600.3 1477.7 1587.5 1299.6 1683.4 1168.3 1754.2 1112 1642.6 1256.6 1574.2 1608.9 1398.9 1527.4 1600.3 Z" data-holc_grade="B"/>
<path d="M 1857.8 1404 1881.5 1391.4 1870.9 1298.2 1957.9 1253.8 1996.5 1341.2 1939.9 1368.5 2007.2 1507.8 1892.2 1566 1857.8 1404 Z" data-holc_grade="B"/>
<path d="M 161.8 1956.1 278.6 1907.7 388.7 1891.8 498.1 2087 539.5 2181.9 495.7 2293.7 460.9 2310.8 447.1 2284.9 338.5 2341.6 161.8 1956.1 Z" data-holc_grade="B"/>
<path d="M 1112 1642.6 975.4 1707.3 905.7 1749 843.5 1786.2 715.3 1838.5 532.7 1935.8 472.9 1827.3 663.8 1727.3 685.9 1729.2 719.1 1705.3 674.9 1608.9 765.3 1551.1 779.1 1586.9 818.7 1653 906.6 1609.7 1147.8 1490.8 1196.7 1466.7 1256.6 1574.2 1112 1642.6 Z" data-holc_grade="B"/>
<path d="M 999.4 1280.4 875.9 1340 840.9 1262.9 755.2 1297.7 749.7 1284.6 745.9 1275.7 938.6 1189.5 949.7 1195 977.3 1173.9 986.5 1190.4 968.1 1211.5 999.4 1280.4 Z" data-holc_grade="B"/>
<path d="M 1058.3 1072.2 1391 912 1410.6 954 1321.4 995.9 1328.8 1016.4 1421 970.9 1442.3 1012.8 1080.3 1185.3 1056 1133.1 1078.1 1122.1 1058.3 1072.2 Z" data-holc_grade="B"/>
<path d="M 1215.9 1457.4 1157.7 1354.8 1432 1218.2 1481.7 1328.4 1215.9 1457.4 Z" data-holc_grade="B"/>
<path d="M 1627.7 1357.1 1608.9 1398.9 1256.6 1574.2 1196.7 1466.7 1215.9 1457.4 1481.7 1328.4 1552.4 1290.1 1581.3 1274.4 1627.7 1357.1 Z" data-holc_grade="B"/>
<path d="M 1623 1685.5 1592 1701.2 1606.4 1727.9 1637.3 1713.1 1660 1756.9 1579.5 1801.9 1591 1830.1 1552.9 1849.5 1540.5 1822.2 1432.7 1869.1 1477.7 1754 1574.1 1707.6 1580.3 1695 1597.7 1659.3 1603.3 1647.6 1623 1685.5 Z" data-holc_grade="B"/>
<path d="M 1597.7 1659.3 1592.7 1657.1 1527.2 1627.3 1527.4 1600.3 1608.9 1398.9 1627.7 1357.1 1664.8 1231.3 1705.4 1211.4 2029.2 1052 2046 1089 2038.9 1092.6 2084.1 1189.5 1957.9 1253.8 1870.9 1298.2 1852.3 1307.7 1846.1 1268 1697.5 1337.7 1682.4 1389.7 1705.7 1441 1653.7 1469.1 1648.7 1492.2 1623.3 1488.9 1620 1495.5 1619.4 1523.1 1588.4 1534.7 1634.9 1630.6 1603.3 1647.6 1597.7 1659.3 Z" data-holc_grade="B"/>
</g>
<g id="C">
<path d="M 549.3 1394.3 619 1365.1 708.5 1556.4 637.1 1593.8 549.3 1394.3 Z" data-holc_grade="C"/>
<path d="M 1932.4 641.4 1935.4 647.6 1877.9 675.8 1944.3 813.2 1914.2 828.2 1899.2 795.6 1576.3 955.2 1510 830.1 1880.5 644.1 1850.3 586.9 1875.2 576.2 1865.5 556 1884 541 1932.4 641.4 Z" data-holc_grade="C"/>
<path d="M 1944.3 813.2 1877.9 675.8 1935.4 647.6 1932.4 641.4 2007.9 605.3 2048.6 689.8 2089.3 669.6 2117.6 728.6 1944.3 813.2 Z" data-holc_grade="C"/>
<path d="M 2170.3 1031.7 2038.9 1092.6 2046 1089 2029.2 1052 1705.4 1211.4 1662.2 1129.7 1984.1 967.4 2003.6 999.2 2034.5 986.8 2157.5 1004.4 2170.3 1031.7 Z" data-holc_grade="C"/>
<path d="M 2196.6 841.1 2206.1 864.2 2143.9 892.8 2106.2 910.1 2135.4 974.4 2011.5 950.7 1977 922.5 2031 896.9 2023.9 882.8 2176 791.1 2196.6 841.1 Z" data-holc_grade="C"/>
<path d="M 2335.3 1154.1 2407.9 1309.2 2323 1350.7 2358.4 1380.6 2298.3 1423 2228.4 1421.3 2188.6 1444.2 2156.7 1380.8 2100.1 1407.2 2048.7 1295.3 2118.6 1259.1 2084.1 1189.5 2038.9 1092.6 2170.3 1031.7 2225.5 1006.1 2303.5 1170.9 2335.3 1154.1 Z" data-holc_grade="C"/>
<path d="M 2143.9 892.8 2206.1 864.2 2196.6 841.1 2283 798.1 2279.5 781.4 2408.5 717.8 2467 838.5 2407.8 868.5 2416.6 884.4 2307 942.6 2334.4 1001.6 2178.7 981.5 2143.9 892.8 Z" data-holc_grade="C"/>
<path d="M 2661.9 735.6 2654 724.9 2595.8 757.2 2562.6 682.3 2516.9 698.5 2550.5 779.8 2479.4 815.3 2443.2 725 2667.9 583.9 2693 627.2 2678.3 641.9 2690.1 662.4 2686.4 690.3 2696 712.3 2661.9 735.6 Z" data-holc_grade="C"/>
<path d="M 2690.1 662.4 2693.2 659.2 2694.2 651.3 2693 627.2 2667.9 583.9 2705.5 559.6 2784.5 724.7 2992.3 713.5 2999 779.6 2937.2 859 2875.2 826 2862.7 831.9 2884.1 881.8 2829.6 903.1 2792.7 829.7 2790.4 789.3 2700.5 759.3 2762.5 839.3 2680 888.6 2706.5 933.4 2639.5 969.4 2562.7 809.4 2675.4 754.2 2661.9 735.6 2696 712.3 2686.4 690.3 2690.1 662.4 Z" data-holc_grade="C"/>
<path d="M 2640.8 389 2683.4 478 2601.2 513.3 2583.5 507.1 2563.1 479 2512.7 449.1 2522.4 407.6 2500.3 391.8 2496.6 371.5 2640.8 389 Z" data-holc_grade="C"/>
<path d="M 2730 1 2765.4 75.1 2748.5 99.3 2800.2 198.4 2850.2 177.8 2896 251.1 2801.8 306.3 2841.6 389.2 2733.4 448.7 2653.6 276.3 2741.3 227 2699.9 136.1 2716.1 119.2 2674.8 38.5 2730 1 Z" data-holc_grade="C"/>
<path d="M 875.9 1340 999.4 1280.4 1024.3 1332.8 906.3 1397 875.9 1340 Z" data-holc_grade="C"/>
<path d="M 1147.8 1490.8 906.6 1609.7 852.8 1514.1 1094.7 1382.7 1147.8 1490.8 Z" data-holc_grade="C"/>
<path d="M 905.7 1749 975.4 1707.3 1112 1642.6 1168.3 1754.2 959.4 1859.1 905.7 1749 Z" data-holc_grade="C"/>
<path d="M 1597.7 1659.3 1580.3 1695 1578.6 1694.3 1513.1 1663.5 1477.7 1754 1432.7 1869.1 1427.2 1883 1569.7 2192.6 1385.6 2159.1 1355.5 2020.6 1302.4 2037.4 1215.7 1881.2 1364.4 1809 1299.6 1683.4 1477.7 1587.5 1527.4 1600.3 1527.2 1627.3 1592.7 1657.1 1597.7 1659.3 Z" data-holc_grade="C"/>
<path d="M 1627.7 1357.1 1581.3 1274.4 1552.4 1290.1 1507.7 1198 1619.4 1149 1664.8 1231.3 1627.7 1357.1 Z" data-holc_grade="C"/>
<path d="M 1391 912 1058.3 1072.2 1095.9 1001.7 1460 826.2 1480.7 868.8 1391 912 Z" data-holc_grade="C"/>
<path d="M 1532.4 971.3 1442.3 1012.8 1421 970.9 1328.8 1016.4 1321.4 995.9 1410.6 954 1391 912 1480.7 868.8 1532.4 971.3 Z" data-holc_grade="C"/>
<path d="M 1080.3 1185.3 1442.3 1012.8 1532.4 971.3 1532.8 972.1 1532.9 972.3 1545.5 997.3 1095.1 1216.9 1080.3 1185.3 Z" data-holc_grade="C"/>
</g>
<g id="D">
<path d="M 66.5 1800.5 163.1 1744.8 276.7 1744 304.6 1798.7 114.8 1897.3 66.5 1800.5 Z" data-holc_grade="D"/>
<path d="M 1460 826.2 1095.9 1001.7 1131.3 926.1 1181.4 914.3 1206.5 905.5 1259.5 863.7 1289 856.3 1320 835.8 1361.3 806.4 1401.1 794.7 1444.6 791 1460 826.2 Z" data-holc_grade="D"/>
<path d="M 1619.4 1149 1507.7 1198 1491.7 1171 1193.1 1318.6 1166.6 1270.2 1235.7 1236 1244 1249.2 1282.1 1232.2 1275.5 1210.1 1305.9 1194.2 1294.3 1169.4 1337.4 1149 1352.4 1151.8 1459.1 1104.9 1468.5 1116.5 1494.5 1103.3 1488.9 1092.8 1573 1050.4 1619.4 1149 Z" data-holc_grade="D"/>
<path d="M 1850.3 586.9 1880.5 644.1 1510 830.1 1482.6 771 1514.4 755.2 1508.2 740.2 1641.8 678.5 1651.5 682.9 1663 682 1674.5 699.6 1719.6 685.5 1724.9 700.5 1747.9 684.6 1737.3 653.8 1770.9 633.5 1758.5 603.6 1799.2 584.2 1812.4 599.2 1846 578.9 1850.3 586.9 Z" data-holc_grade="D"/>
<path d="M 1914.2 828.2 1851.4 857.3 1869.1 901.4 1729.4 967.5 1737.3 983.4 1773.6 967.5 1787.8 993.1 1923.1 933.1 1984.1 967.4 1662.2 1129.7 1576.3 955.2 1899.2 795.6 1914.2 828.2 Z" data-holc_grade="D"/>
<path d="M 2408.5 717.8 2279.5 781.4 2252.9 732.9 2379.3 668.5 2408.5 717.8 Z" data-holc_grade="D"/>
<path d="M 2407.9 1309.2 2335.3 1154.1 2357.4 1142.6 2341.5 1102.1 2317.6 1110.1 2301.6 1077.5 2382.1 1039.5 2407.8 1080 2429.9 1083.5 2440.5 1101.2 2467.1 1087.9 2539.7 1240.4 2407.9 1309.2 Z" data-holc_grade="D"/>
</g>
</svg>