<?xml version="1.0"?>
<svg xmlns="http://www.w3.org/2000/svg" version="1.2" baseProfile="tiny" width="3000" height="3338" viewBox="0 0 3000 3338" stroke-linecap="round" stroke-linejoin="round">
<g id="A">
<path d="M 1501 2722.3 1486.1 2735.3 1481.4 2745.4 1486.1 2750.7 1492.1 2759 1494.5 2772 1508.1 2774.4 1468.3 2882.8 1480.2 2885.8 1484.3 2904.7 1491.5 2914.2 1464.7 2954.5 1454.2 2968.4 1267.6 3003.2 1207 3019.9 1122.2 2991.7 1125.9 2967.3 1129.6 2950.2 1160.1 2963.6 1204 2949.5 1211.9 2942.8 1256 2905.1 1276.9 2850.3 1261.3 2835.5 1296.2 2805.1 1301.4 2808.1 1304.2 2804.5 1348.5 2746.7 1371.4 2716.9 1412.4 2750.1 1457.6 2738.3 1501 2722.3 Z" data-holc_grade="A"/>
<path d="M 1838.5 2301.8 1853.4 2316 1839.8 2333.8 1805.6 2372.3 1778.1 2410 1767.7 2422.6 1729.7 2478.6 1697.8 2465.8 1686.5 2475.9 1656.7 2460.5 1575.2 2416.7 1598.4 2375.8 1611.5 2351.6 1644.2 2314.8 1686.4 2349.8 1736.9 2271 1774.3 2326.7 1812.4 2337.9 1838.5 2301.8 Z" data-holc_grade="A"/>
<path d="M 1467.6 2368.7 1483.2 2376.1 1468.3 2400.1 1442.1 2445.7 1436.2 2481.8 1433.2 2493.7 1433.2 2511.4 1407.7 2551.7 1401.7 2544.6 1341.7 2506.7 1296.5 2580.7 1305.4 2585.4 1313.1 2615.7 1280.4 2625.7 1216.8 2574.8 1184.1 2578.3 1170.5 2566.5 1173.4 2523.2 1178.2 2500.7 1235.9 2333.8 1338.7 2312.5 1467.6 2368.7 Z" data-holc_grade="A"/>
<path d="M 1575.2 2416.7 1656.7 2460.5 1686.5 2475.9 1697.8 2465.8 1729.7 2478.6 1722.4 2489.2 1710.5 2501.8 1669.7 2585.5 1628.8 2601.4 1612.2 2609.7 1587.8 2609.7 1522.4 2605.6 1483.8 2613.9 1462.5 2598.7 1476.6 2582.5 1483.2 2551.1 1495.6 2524.5 1522.4 2481.8 1537.3 2470 1553.9 2450.4 1565.2 2412.4 1575.2 2416.7 Z" data-holc_grade="A"/>
<path d="M 1724.7 2589.5 1712.8 2598.8 1709.1 2630.6 1685.3 2668.4 1657.1 2655.8 1637.7 2651.4 1630 2651.2 1646.1 2629.9 1657.4 2615.7 1666.3 2596.1 1669.7 2585.5 1689 2589.2 1724.7 2589.5 Z" data-holc_grade="A"/>
<path d="M 2089.7 2107 2042.6 2172.8 2031 2185.3 2013.6 2175.1 1990.4 2160.4 1931.1 2124.5 1921.8 2085.4 1979.3 2079.2 1999.3 2050.8 2039 2064.5 2076.9 2099.1 2089.7 2107 Z" data-holc_grade="A"/>
<path d="M 2236 2105.4 2232.4 2116.8 2206.8 2148.1 2188.9 2170.1 2173.3 2193.5 2122.6 2153.8 2136.9 2130.3 2126.9 2124.7 2094.8 2099.8 2131.8 2046.5 2236 2105.4 Z" data-holc_grade="A"/>
<path d="M 2783.3 1657.6 2776 1675 2767.1 1701.7 2759.6 1723.4 2740.9 1794.9 2684.3 1762.1 2695.4 1715.1 2702 1682.2 2719.2 1636.6 2783.3 1657.6 Z" data-holc_grade="A"/>
<path d="M 2799.1 1430 2804.4 1382.1 2808.5 1350.1 2809.7 1331.2 2818 1312.8 2831.6 1279.1 2850 1286.8 2866 1298 2873.8 1313.9 2911.7 1273.7 2919.5 1283.1 2919.5 1295 2905.9 1321.6 2900.5 1345.3 2881 1366 2866.2 1396.2 2855.5 1413.9 2848.4 1428.1 2846.6 1448.3 2799.1 1430 Z" data-holc_grade="A"/>
<path d="M 2660.5 1182.7 2671.2 1196 2632 1245.8 2621.3 1243.1 2608 1244.9 2572.3 1217.4 2602.6 1172.1 2632 1196.1 2653.3 1171.2 2660.5 1182.7 Z" data-holc_grade="A"/>
<path d="M 2303.1 1704.9 2295 1772.3 2225.9 1767.1 2233.4 1729.4 2231.9 1725 2231.9 1714.6 2234.1 1702.8 2294.2 1699 2303.1 1704.9 Z" data-holc_grade="A"/>
<path d="M 1280.4 2625.7 1275.7 2635.2 1330.1 2671.8 1326.2 2677.2 1371.4 2716.9 1348.5 2746.7 1332.6 2733.3 1288.8 2791.8 1275.4 2782.9 1253.8 2814 1234.5 2814 1215.2 2814 1192.1 2802.1 1117 2891 1107.4 2905.8 1098.4 2899.9 1102.2 2893.9 1099.2 2883.6 1102.2 2844.3 1097.7 2824.3 1090.3 2787.3 1094 2763.6 1092.6 2749.5 1087.4 2736.2 1120.8 2691.1 1151.3 2643 1184.1 2578.3 1216.8 2574.8 1280.4 2625.7 Z" data-holc_grade="A"/>
<path d="M 2667.5 1068.3 2647.3 1094.7 2619.4 1131.3 2528.6 1147.4 2529.5 1125.2 2456.5 1141.2 2372.8 1214.9 2352.3 1230 2345.2 1246.9 2349.4 1252.1 2272.3 1436 2272.3 1453.9 2272.4 1483.9 2250.3 1486.2 2250.4 1485 2227.2 1488.6 2229.6 1455.4 2252.7 1379.7 2303.6 1211.7 2275.7 1212.9 2278.7 1198.7 2269.5 1198.6 2347.8 1185.7 2360.3 1151.1 2359.4 1138.6 2355.8 1122.7 2402.1 1074.7 2442.2 1105.8 2462.6 1073.8 2476.9 1046.3 2519.6 1009.9 2547.2 986.8 2578.3 1010.7 2566.8 1024 2552.6 1048.9 2545.8 1061.3 2542.8 1072.8 2563.3 1070.2 2595.3 1060.4 2615.8 1059.5 2638.9 1052.3 2667.5 1068.3 Z" data-holc_grade="A"/>
<path d="M 2136.2 1690.3 2159.7 1724.1 2122.3 1775.6 2065.9 1840.8 2023.7 1814.1 2008.2 1834.9 1991.1 1825.2 2016.6 1756 2059.9 1767.4 2131.7 1683.9 2136.2 1690.3 Z" data-holc_grade="A"/>
<path d="M 2136.2 1690.3 2131.7 1683.9 2128.1 1679.3 2152.5 1642.5 2162.6 1605.8 2170.3 1595.7 2170.8 1557.8 2176.1 1480.3 2142.9 1481.5 2151.8 1462 2202.2 1346 2240.7 1262.6 2269.5 1198.6 2278.7 1198.7 2275.7 1212.9 2303.6 1211.7 2252.7 1379.7 2229.6 1455.4 2227.2 1488.6 2219.5 1557.2 2200.5 1562.6 2176.8 1649.5 2148.3 1682.7 2140 1695.7 2136.2 1690.3 Z" data-holc_grade="A"/>
<path d="M 1886.3 1399.8 1871.5 1451.3 1897.1 1459 1898.9 1509.9 1926.8 1534.7 1952.4 1634.1 1928 1634.1 1907.2 1629.4 1892.4 1635.9 1873.4 1640 1840.7 1766.7 1819.3 1744.2 1787.8 1719.9 1761.7 1688.6 1747.1 1664.5 1732.1 1651 1802.6 1442.2 1835.3 1359.2 1826.1 1332.2 1842.9 1299.5 1867.3 1343.2 1876.2 1394.7 1886.3 1399.8 Z" data-holc_grade="A"/>
<path d="M 2155.5 699.1 2137.7 730.4 2137.7 790.1 2124.7 842.8 2124.1 857 2126.5 872.3 2051.2 966.4 2063 990.6 2019.2 1122.5 2108.9 1177.5 2110.1 1198.2 2107.7 1228.4 2045.4 1326.6 1960.5 1273.4 1922.5 1339.7 1838.7 1265.7 1855.3 1246.2 1872 1256.9 1872.6 1245 1905.8 1197.7 1941.5 1141 1958 1114.9 1994.2 1022 2003.7 974.7 2098 783.7 2101.8 752.9 2105 727.5 2133.5 681.4 2155.5 699.1 Z" data-holc_grade="A"/>
<path d="M 2269.5 1198.6 2240.7 1262.6 2192 1256.1 2155.3 1339 2202.2 1346 2151.8 1462 2148.8 1451.4 2110.2 1427.7 2144.6 1389.8 2158.8 1365 2106 1335.4 2095.9 1357.9 2085.8 1352 2107.7 1228.4 2110.1 1198.2 2108.9 1177.5 2116.6 1180.5 2149.8 1103 2196.6 949.8 2173.4 952.7 2133.1 949.2 2203 814.9 2233.9 816.7 2251.7 822 2261.2 830.9 2267.1 838.5 2274.9 818.4 2287.3 793 2406.7 884.6 2399 898.8 2378.8 931.9 2366.4 960.9 2331.4 1060.8 2269.5 1198.6 Z" data-holc_grade="A"/>
<path d="M 1842.9 1299.5 1826.1 1332.2 1835.3 1359.2 1802.6 1442.2 1700.7 1385.5 1744.1 1307.4 1738.4 1298.9 1744.8 1298.9 1776.2 1290.3 1830.3 1286.8 1842.9 1299.5 Z" data-holc_grade="A"/>
<path d="M 1695.7 1276.9 1670.7 1318.8 1664.3 1328 1651.5 1355.7 1584.5 1317.3 1595.9 1296.8 1617.3 1282.6 1615.1 1278.3 1620.1 1269.8 1617.3 1262 1631.5 1247.8 1650.8 1238.5 1660.7 1240.7 1677.8 1240 1695.7 1276.9 Z" data-holc_grade="A"/>
<path d="M 1523.9 1137.5 1515.7 1168 1505.8 1192.8 1494.4 1220.5 1488 1243.2 1474.4 1249.6 1446.6 1264.5 1433.8 1280.1 1409.6 1307.1 1389.6 1312.1 1391.4 1306.8 1450.9 1131.1 1458 1130.4 1484.4 1131.8 1515 1136 1523.9 1137.5 Z" data-holc_grade="A"/>
<path d="M 1831.7 1136.3 1823.9 1133.5 1790.4 1125 1786.5 1090.6 1782.9 1066.4 1785 1029.5 1838.5 1054.4 1837 1061.5 1836.3 1074.2 1831.7 1136.3 Z" data-holc_grade="A"/>
<path d="M 1099.2 2883.6 1091.8 2885 1079.9 2877.6 1053.1 2904.3 1013.7 2876.9 976 2927.5 963.1 2918.3 955 2894.6 979.5 2864.3 1022.7 2811 1087.4 2736.2 1092.6 2749.5 1094 2763.6 1090.3 2787.3 1097.7 2824.3 1102.2 2844.3 1099.2 2883.6 Z" data-holc_grade="A"/>
<path d="M 1450.9 1131.1 1391.4 1306.8 1367.4 1299.5 1314.8 1283.6 1219.3 1454.7 1205 1446.2 1173.7 1420.6 1166.6 1401.5 1155.9 1395.8 1148 1403.6 1130.9 1400.7 1105.3 1398.6 1101.7 1390.8 1101 1385.8 1103.1 1379.4 1082.5 1361.7 1085.3 1355.3 1068.9 1339.7 1057.5 1351 1054 1340.4 1064 1326.2 1069.7 1315.5 1054 1299.2 1068.9 1281.8 1130.3 1210.5 1155.9 1202 1195.1 1138.8 1233.6 1177.2 1255 1160.1 1297 1183.6 1320.5 1190 1341.2 1199.2 1346.2 1187.8 1357.6 1182.2 1371.8 1178.6 1376.8 1168 1379.7 1158.7 1361.8 1152.3 1373.3 1111.2 1404.3 1114.1 1455.2 1119 1450.9 1131.1 Z" data-holc_grade="A"/>
<path d="M 1393.2 858.6 1361.2 885.5 1329.8 932.3 1277.1 903.9 1296.4 869.9 1304.2 833.7 1334.1 769.1 1343.4 819.5 1393.2 858.6 Z" data-holc_grade="A"/>
<path d="M 990.2 2390.5 966.4 2406.7 945.6 2428.9 932.9 2439.3 921 2456.3 907.6 2488.1 891.3 2482.9 860.8 2585.1 867.4 2594.7 860.7 2599.9 863 2608 871.9 2607.3 872.6 2641.4 824.2 2744.2 839.8 2828.6 866.5 2850.1 876.9 2869.4 914.1 2877.6 908.9 2907.2 903.7 2919.8 871.7 2913.8 847.9 2922 809.3 2930.8 790.7 2935.2 750.5 2933.7 742 2928.3 711.1 2931.5 687.4 2925.5 676.9 2924.8 672.5 2935.2 645.7 2935.1 605.6 2924.7 592.9 2919.5 549.8 2909.1 544.3 2896.2 518 2903.2 495.1 2916.6 470.3 2938.7 464.3 2958.7 413.8 2929 389.3 2900.1 335.2 2841.7 321.7 2830.4 299.2 2816.6 330.2 2795.1 339.5 2780.4 346.3 2767.5 367.2 2783.3 440.3 2825.7 495.7 2735.1 496.3 2734.3 561.2 2637.4 808.9 2382.2 990.2 2390.5 Z" data-holc_grade="A"/>
<path d="M 676.9 2924.8 680.2 2938.5 693.3 2950 706.6 2965.5 716.4 2974.4 719.3 3006.3 673.9 3032.9 626.9 3064.5 538.6 3002.2 590 2944 605.6 2924.7 645.7 2935.1 672.5 2935.2 676.9 2924.8 Z" data-holc_grade="A"/>
<path d="M 1415.8 2033.4 1430 2042.9 1437.2 2086.7 1420.5 2154.2 1407.4 2177.8 1379.1 2163.2 1351.6 2152.1 1327.8 2172.8 1272.8 2192.8 1162.1 2201.6 1177 2165.4 1178.2 2162.7 1195.6 2123.2 1215.6 2092.1 1279.6 1953 1331.5 1975.2 1327.1 1983.4 1364.2 1994.5 1359.8 2014.4 1409.5 2038.1 1415.8 2033.4 Z" data-holc_grade="A"/>
<path d="M 1682.7 2004.6 1670.9 2030.7 1683.9 2035.4 1667.3 2073.3 1675.6 2088.7 1645.9 2093.4 1613.2 2105.3 1599.6 2141.4 1582.9 2167.4 1576.4 2182.8 1576.4 2197 1572.2 2213 1566.3 2223.7 1558.6 2236.7 1547.9 2248.5 1534.8 2275.2 1529.5 2282.3 1511 2319 1492 2338.5 1467.6 2368.7 1338.7 2312.5 1235.9 2333.8 1271.9 2240.6 1373 2253.6 1400.3 2222.8 1400.3 2194.4 1407.4 2177.8 1420.5 2154.2 1437.2 2086.7 1430 2042.9 1415.8 2033.4 1483.5 1891.3 1515.6 1903.2 1539.4 1906.7 1577.4 1892.5 1579.8 1909.1 1584.5 1930.4 1605.9 1952.9 1623.7 1970.6 1636.8 1989.6 1651.1 1996.7 1664.1 2005 1682.7 2004.6 Z" data-holc_grade="A"/>
<path d="M 1762.3 1790.4 1765.9 1798.1 1749.8 1811.1 1747.5 1824.7 1750.4 1840.7 1751.6 1866.7 1748.7 1886.2 1742.7 1899.9 1734.4 1910.5 1726.7 1925.3 1727.9 1932.4 1723.1 1938.3 1717.2 1951.4 1720.2 1966.2 1718.4 1977.4 1716 1986.9 1700.6 1997.5 1682.7 2004.6 1664.1 2005 1651.1 1996.7 1636.8 1989.6 1623.7 1970.6 1605.9 1952.9 1584.5 1930.4 1579.8 1909.1 1577.4 1892.5 1539.4 1906.7 1515.6 1903.2 1483.5 1891.3 1506.1 1848.4 1501.8 1827.9 1544.6 1717.8 1557.4 1696.5 1608.1 1690.8 1689.3 1670.2 1707.1 1705 1710.7 1715.6 1715 1744 1732.8 1766 1762.3 1790.4 Z" data-holc_grade="A"/>
<path d="M 1761.7 1688.6 1761.1 1731.2 1764.7 1752.5 1762.3 1790.4 1732.8 1766 1715 1744 1710.7 1715.6 1707.1 1705 1689.3 1670.2 1732.1 1651 1747.1 1664.5 1761.7 1688.6 Z" data-holc_grade="A"/>
</g>
<g id="B">
<path d="M 1979.8 3292.6 2012.5 3248.6 2055.6 3194.5 2069 3174.5 2101.7 3195.9 2148.9 3123.7 2169 3131.8 2162.3 3142.6 2220.3 3181.4 2217.3 3185.5 2201.7 3188.8 2185 3190.3 2176.8 3200.3 2166.8 3208.5 2157.5 3218.9 2144.8 3224 2124.4 3232.6 2109.9 3255.2 2068.7 3297.4 2054.2 3305.9 2041.5 3318.5 2026.7 3336.7 2024.8 3329.3 1979.8 3292.6 Z" data-holc_grade="B"/>
<path d="M 1288.8 2791.8 1304.2 2804.5 1301.4 2808.1 1296.2 2805.1 1261.3 2835.5 1276.9 2850.3 1256 2905.1 1211.9 2942.8 1180.2 2929.5 1145.3 2904.3 1117 2891 1192.1 2802.1 1215.2 2814 1234.5 2814 1253.8 2814 1275.4 2782.9 1288.8 2791.8 Z" data-holc_grade="B"/>
<path d="M 1348.5 2746.7 1304.2 2804.5 1288.8 2791.8 1332.6 2733.3 1348.5 2746.7 Z" data-holc_grade="B"/>
<path d="M 1099.2 2883.6 1102.2 2893.9 1098.4 2899.9 1107.4 2905.8 1129.6 2950.2 1111.8 2957.6 1087.3 2965 1057.5 2970.2 1054.6 2975.4 1027.8 2975.4 990.6 2963.5 960.2 2948.7 976 2927.5 1013.7 2876.9 1053.1 2904.3 1079.9 2877.6 1091.8 2885 1099.2 2883.6 Z" data-holc_grade="B"/>
<path d="M 960.2 2948.7 990.6 2963.5 1027.8 2975.4 1054.6 2975.4 1028.5 3012.4 1001.7 3043.5 995 3062 974.9 3111.6 874.6 3051.6 873.1 3040.5 854.6 3024.9 859 2978.2 859.8 2948.6 904.5 2931.7 960.2 2948.7 Z" data-holc_grade="B"/>
<path d="M 1192 1557.6 1188.8 1569.6 1132.7 1727.7 1264.5 1907.6 1256 1928.9 1256 1942.2 1279.6 1953 1215.6 2092.1 1195.6 2123.2 1178.2 2162.7 1081.4 2064.2 1068 2063 1055 2058 1032.1 2110.1 1032.1 2143.5 1055.2 2168.1 1075.7 2182.9 990.2 2390.5 808.9 2382.2 561.2 2637.4 496.3 2734.3 383.6 2562.3 362.5 2530.8 333.1 2489.7 323.6 2472.8 318 2457.4 317.7 2447.3 321.3 2437.8 326.1 2427.5 326.4 2418.6 321 2413 306.8 2399 298.5 2391.9 289.8 2385.4 281.8 2385.1 274.4 2389.2 266.1 2391.3 255.4 2386.5 246.8 2383.9 240.5 2389.2 234.3 2398.4 232.8 2406.1 235.7 2413.2 227.1 2417 217.6 2422 213.4 2417.9 204.5 2417.6 188.5 2419.9 180.1 2419 165.9 2410.7 155.8 2401.5 149.6 2392.3 143.3 2383.4 134.4 2378.4 126.4 2376 123.4 2369.5 124.3 2360.6 127.6 2348.2 130.6 2336.4 129.7 2330.1 125.6 2328.1 114.3 2334 104.7 2342.5 93.4 2352.3 78.3 2362 73.2 2365.3 63.4 2375.3 55.9 2383.6 48.2 2391.6 38.4 2395.2 31.9 2394 27.4 2388.6 26.8 2378.6 25.9 2372.3 23 2364.6 15.9 2363.7 6 2363.4 1 2358.1 4.9 2351.3 12.6 2345.1 23.3 2338.6 31.3 2335.9 40.6 2332.4 45.6 2329.1 53.1 2323.2 56.6 2315.5 61.1 2312.3 70.3 2311.4 77.7 2309.1 81.9 2302 83.7 2293.1 85.8 2282.4 87.3 2267 86.7 2259.3 82.9 2253.7 70.4 2239.5 64.5 2229.1 62.4 2216.4 62.7 2202.2 63.3 2184.4 62.5 2169 61 2152.4 57.8 2139.1 52.4 2128.2 47.1 2114.8 47.4 2105.7 50.7 2096.2 58.4 2084.4 71.8 2064.5 81.4 2044.7 92.7 2018.4 99.5 1995.3 100.5 1974.3 98.7 1941.8 98.7 1919.9 102.6 1890 104.1 1874 107.1 1859.5 108.9 1849.1 108.6 1838.5 104.8 1809.2 105.7 1797.1 109 1787 119.1 1762.2 130.2 1725.5 132.9 1719.3 137.6 1714.6 152.5 1708.4 167 1704.2 181.6 1698.6 192.6 1690.1 212.5 1656.9 229.2 1631.5 234.5 1625 246.1 1616.5 254.5 1607 259.8 1596.4 265.5 1580.4 272.3 1558.2 277.1 1544.6 284.9 1518.9 290.2 1498.2 295 1487.8 300 1481.9 309.5 1479.6 326.5 1479.3 333.3 1476.9 345.5 1471.6 355.3 1470.1 366 1470.7 375.8 1474.3 385 1478.2 396.3 1484.7 403.1 1485.3 409.6 1483.8 416.2 1484.1 424.8 1484.4 430.7 1481.2 434.9 1481.2 439.6 1478.2 444.1 1470.2 452.4 1449.8 456.6 1445.1 461.3 1438.3 470 1426.8 480.4 1421.7 490.2 1412.9 496.7 1401.4 498.4 1397.2 529.9 1417.8 529.9 1429.3 547.3 1437.8 605.6 1453.4 641.5 1513.7 699.5 1515.9 706.9 1532.6 741.8 1527.4 740.3 1514.8 768.5 1506 765.9 1488.2 808.6 1481.6 817.9 1504.2 928.9 1519.8 1011.3 1540.1 1022.4 1510.2 1065.8 1524.3 1076.2 1497.6 1099.6 1513.6 1095.5 1525.4 1112.2 1534.6 1114.5 1529.5 1121.9 1533.2 1130.4 1516.9 1141.6 1525 1135.2 1536.1 1157.5 1549.1 1172.4 1546.1 1192 1557.6 Z" data-holc_grade="B"/>
<path d="M 1386.2 1688.3 1406.7 1698 1387.1 1753.9 1435.2 1776.1 1435.2 1799.2 1431.6 1848.9 1400.4 1839.2 1358.5 1826.7 1312.2 1816.1 1317.5 1801 1369.2 1683.8 1386.2 1688.3 Z" data-holc_grade="B"/>
<path d="M 1507.5 2387.7 1565.2 2412.4 1553.9 2450.4 1537.3 2470 1522.4 2481.8 1495.6 2524.5 1483.2 2551.1 1476.6 2582.5 1462.5 2598.7 1408.3 2560 1407.7 2551.7 1433.2 2511.4 1433.2 2493.7 1436.2 2481.8 1442.1 2445.7 1468.3 2400.1 1483.2 2376.1 1507.5 2387.7 Z" data-holc_grade="B"/>
<path d="M 1453.4 2657.1 1470.1 2682 1489.1 2667.8 1496.8 2676.1 1524.2 2661.9 1530.7 2669 1552.7 2637 1568 2641.8 1564 2648.2 1583 2663 1608 2678.8 1607.3 2690.6 1598.4 2695.1 1588.7 2695.1 1584.2 2707.6 1561 2724.1 1549.2 2706.9 1501 2722.3 1457.6 2738.3 1412.4 2750.1 1371.4 2716.9 1326.2 2677.2 1330.1 2671.8 1275.7 2635.2 1280.4 2625.7 1313.1 2615.7 1305.4 2585.4 1296.5 2580.7 1341.7 2506.7 1401.7 2544.6 1407.7 2551.7 1408.3 2560 1370.8 2613.9 1453.4 2657.1 Z" data-holc_grade="B"/>
<path d="M 2045.2 1928.5 2069.2 1941.2 2087.8 1947.1 2119 1960.4 2093 1987.8 2065.6 1988.5 2012.8 1988.6 2017.3 1939.7 2023.2 1930.8 2029.9 1920.5 2045.2 1928.5 Z" data-holc_grade="B"/>
<path d="M 1888.2 2334.4 1855.4 2363.4 1839.8 2404.1 1819 2447 1799.7 2487 1779.6 2482.6 1755.1 2512.2 1757.4 2484.8 1722.4 2489.2 1729.7 2478.6 1767.7 2422.6 1778.1 2410 1805.6 2372.3 1839.8 2333.8 1853.4 2316 1861.8 2310.1 1888.2 2334.4 Z" data-holc_grade="B"/>
<path d="M 2148.9 3123.7 2101.7 3195.9 2069 3174.5 2055.6 3194.5 2012.5 3248.6 1979.8 3292.6 1894.3 3223.8 1835.5 3214.2 1836.6 3200.1 1920.6 3079 1960.4 3102.7 2001.7 3128.9 2035.5 3091.2 2041.8 3099.3 2051.8 3076.7 2073 3081.9 2096.8 3090 2123.6 3104.4 2111.3 3126.3 2122.5 3132.2 2134 3117.8 2148.9 3123.7 Z" data-holc_grade="B"/>
<path d="M 2866 1684.7 2854.5 1724.2 2810 1835.2 2804.7 1845.9 2789.6 1887.6 2757.5 1880.1 2747.7 1904.5 2725.4 1896.6 2736.1 1857.5 2712 1846 2718.2 1822.5 2664.3 1786.1 2684.3 1762.1 2740.9 1794.9 2759.6 1723.4 2767.1 1701.7 2776 1675 2783.3 1657.6 2866 1684.7 Z" data-holc_grade="B"/>
<path d="M 2645.4 1725.5 2623.7 1768.4 2605 1753.8 2627.7 1716 2645.4 1725.5 Z" data-holc_grade="B"/>
<path d="M 2629.6 1815.9 2620.2 1856.7 2596.2 1837.2 2562.3 1840.4 2563.6 1818.2 2563.6 1807.5 2560.8 1803 2560 1801.8 2560.5 1795.1 2583.6 1791.1 2629.6 1815.9 Z" data-holc_grade="B"/>
<path d="M 2525.6 1705.5 2535.9 1780.9 2554.2 1788 2560.5 1795.1 2560 1801.8 2560.8 1803 2563.6 1807.5 2563.6 1818.2 2562.3 1840.4 2565.9 1865.2 2564.6 1874.1 2560.1 1879 2541.4 1855.5 2535.6 1846.1 2526.6 1831.5 2521.3 1818.7 2509.7 1809.8 2498.1 1799.6 2485.6 1794.2 2469.1 1787.2 2450.4 1781 2455.5 1756.3 2470.4 1685.1 2518.5 1678.4 2525.6 1705.5 Z" data-holc_grade="B"/>
<path d="M 2866.2 1396.2 2881 1366 2900.5 1345.3 2905.9 1321.6 2919.5 1295 2919.5 1283.1 2931.4 1295 2920.8 1337.2 2913.7 1362 2894.1 1403.8 2866.2 1396.2 Z" data-holc_grade="B"/>
<path d="M 2695.7 1461.8 2700.5 1455.5 2716.5 1430.1 2726 1408.2 2725.4 1385.1 2764.6 1390.4 2809.7 1331.2 2808.5 1350.1 2804.4 1382.1 2799.1 1430 2773 1422.3 2769.4 1454.3 2746.9 1473.2 2695.7 1461.8 Z" data-holc_grade="B"/>
<path d="M 2608 1244.9 2621.3 1243.1 2632 1245.8 2671.2 1196 2716.3 1223 2729.9 1195.8 2745.4 1214.1 2760.3 1237.8 2777.5 1287.4 2736.6 1338.4 2717.7 1359.7 2685.6 1410 2636.3 1384 2623.9 1412.4 2594.8 1398.9 2601.9 1381.1 2594.7 1376.4 2587.6 1372.2 2594.7 1353.9 2604.2 1339.1 2600 1333.2 2579.3 1326.7 2570.9 1321.4 2579.8 1304.2 2585.2 1297.1 2567.9 1289.4 2567.9 1281.7 2588.7 1242.1 2599.4 1251.6 2605.3 1254.5 2608 1244.9 Z" data-holc_grade="B"/>
<path d="M 2840.4 1204.6 2816.1 1233 2800.2 1223.3 2745 1200.9 2761 1173.7 2778.2 1154.7 2840.4 1204.6 Z" data-holc_grade="B"/>
<path d="M 2619.4 1131.3 2647.3 1094.7 2660.4 1099.3 2678.2 1149.9 2660.5 1182.7 2653.3 1171.2 2632 1196.1 2602.6 1172.1 2619.4 1131.3 Z" data-holc_grade="B"/>
<path d="M 2388 1962.3 2367.2 1990.4 2318.9 1991.2 2286.3 1987.5 2264.7 1923.2 2281.7 1911.3 2292.9 1890.6 2327 1901.7 2354.5 1909.8 2362.7 1917.2 2367.2 1932.7 2379.8 1946 2387.2 1954.2 2388 1962.3 Z" data-holc_grade="B"/>
<path d="M 2144 2983.7 2122 2977.8 2109.8 3013.4 2073.7 3004.5 2055.1 2999.7 2047 3002.3 2038.4 3007.5 2027.6 3015.6 2017.6 3011.2 2044.7 2963 2065.5 2958.2 2068.1 2943.4 2082.6 2901.9 2157.3 2923.4 2144 2983.7 Z" data-holc_grade="B"/>
<path d="M 2418.3 1743.3 2417.5 1761.1 2383.4 1764.8 2385.6 1818.1 2350 1818.8 2293.6 1831.4 2248.3 1838.1 2229.7 1842.6 2190.3 1762 2194 1753.8 2179.3 1721.1 2198.7 1681.1 2234.1 1702.8 2231.9 1714.6 2231.9 1725 2233.4 1729.4 2225.9 1767.1 2295 1772.3 2303.1 1704.9 2392.3 1731.5 2418.3 1743.3 Z" data-holc_grade="B"/>
<path d="M 2471.6 1519.2 2426.9 1567.3 2386.5 1626.5 2364 1623.5 2326.5 1603.4 2302.8 1595.2 2282.6 1597.6 2291.5 1575.7 2292.4 1542.7 2299.8 1540.1 2308 1540.5 2318 1537.9 2326.2 1530.5 2334.4 1521.6 2349.9 1519.8 2357 1522.7 2362.2 1517.9 2375.2 1505.7 2390 1492.4 2398.9 1489.4 2411.9 1495.7 2446.5 1509.7 2471.6 1519.2 Z" data-holc_grade="B"/>
<path d="M 2439.8 1241.7 2435.2 1261.9 2412.9 1290.3 2345.2 1246.9 2352.3 1230 2372.8 1214.9 2445.8 1215.8 2439.8 1241.7 Z" data-holc_grade="B"/>
<path d="M 2292.4 1542.7 2291.5 1575.7 2282.6 1597.6 2270.1 1626.6 2291.5 1637.2 2296.9 1658.5 2304 1686.9 2303.1 1704.9 2294.2 1699 2234.1 1702.8 2198.7 1681.1 2238.6 1599.2 2250.3 1486.2 2272.4 1483.9 2284.2 1521.7 2292.4 1542.7 Z" data-holc_grade="B"/>
<path d="M 2190.3 1762 2171 1768.6 2137.6 1787.2 2089.4 1870.8 2045.2 1928.5 2029.9 1920.5 2003.1 1910.9 1962.3 1887.2 1979.8 1860.7 1985.7 1844.7 1988.7 1837 1991.1 1825.2 2008.2 1834.9 2023.7 1814.1 2065.9 1840.8 2122.3 1775.6 2159.7 1724.1 2179.3 1721.1 2194 1753.8 2190.3 1762 Z" data-holc_grade="B"/>
<path d="M 2128.1 1679.3 2131.7 1683.9 2059.9 1767.4 2016.6 1756 2048 1697.9 2089.4 1621.7 2102.6 1631.8 2105.6 1645.4 2110.9 1657.3 2128.1 1679.3 Z" data-holc_grade="B"/>
<path d="M 2170.8 1557.8 2142.9 1554.3 2142.9 1481.5 2176.1 1480.3 2170.8 1557.8 Z" data-holc_grade="B"/>
<path d="M 2240.7 1262.6 2202.2 1346 2155.3 1339 2192 1256.1 2240.7 1262.6 Z" data-holc_grade="B"/>
<path d="M 2108.9 1177.5 2019.2 1122.5 2063 990.6 2051.2 966.4 2126.5 872.3 2124.1 857 2124.7 842.8 2137.7 790.1 2137.7 730.4 2155.5 699.1 2170.3 710.3 2176.8 679 2227.9 707.9 2224.3 728 2232.7 735.7 2224.9 750.5 2227.9 754 2197.7 810.8 2203 814.9 2133.1 949.2 2173.4 952.7 2196.6 949.8 2149.8 1103 2116.6 1180.5 2108.9 1177.5 Z" data-holc_grade="B"/>
<path d="M 1790.4 1125 1823.9 1133.5 1831.7 1136.3 1851 1149.8 1863.1 1098.7 1941.5 1141 1905.8 1197.7 1872.6 1245 1872 1256.9 1855.3 1246.2 1838.7 1265.7 1836.4 1270.5 1851.2 1288.2 1842.9 1299.5 1830.3 1286.8 1776.2 1290.3 1744.8 1298.9 1738.4 1298.9 1713.5 1283.3 1702.8 1275.5 1695.7 1276.9 1677.8 1240 1660.7 1240.7 1650.8 1238.5 1631.5 1247.8 1650 1205.2 1666.4 1215.1 1667.9 1201.6 1666.4 1193.8 1690.6 1143.4 1690.6 1137 1714.5 1077.7 1714.9 1076.7 1734.1 1080.3 1729.8 1103 1790.4 1125 Z M 1882.3 1188.8 1872.3 1179.6 1860.9 1172.5 1840.3 1160.4 1837.4 1176.8 1827.5 1203.7 1820.3 1218.6 1804 1233.5 1819.6 1247 1832.5 1261.2 1882.3 1188.8 Z" data-holc_grade="B"/>
<path d="M 2641.2 2043.4 2546.8 2279.8 2517.9 2270.9 2511.2 2279.1 2479.2 2261.4 2545.4 2105.9 2525.4 2096.3 2533.3 2064.5 2530.3 2058.5 2534.7 2033.4 2520.6 2006.8 2533.9 1983.1 2561.4 1972.7 2618.6 1994.1 2604.5 2027.4 2640.2 2042.9 2641.2 2043.4 Z" data-holc_grade="B"/>
<path d="M 1625 1189.9 1614.8 1208.4 1604.1 1234.7 1589.9 1258.1 1578.5 1277.3 1561.4 1286.5 1556.4 1299.3 1409.6 1307.1 1433.8 1280.1 1446.6 1264.5 1474.4 1249.6 1488 1243.2 1494.4 1220.5 1505.8 1192.8 1515.7 1168 1523.9 1137.5 1554.2 1142.4 1577 1157.3 1599.1 1172.9 1616.9 1185 1625 1189.9 Z" data-holc_grade="B"/>
<path d="M 1592.8 790.1 1658.3 679.8 1664.2 443.4 1561.9 431.6 1606 354 1684.8 358.4 2133.5 681.4 2105 727.5 2101.8 752.9 2098 783.7 2003.7 974.7 1994.2 1022 1958 1114.9 1941.5 1141 1863.1 1098.7 1851 1149.8 1831.7 1136.3 1836.3 1074.2 1837 1061.5 1838.5 1054.4 1785 1029.5 1782.9 1066.4 1763.1 1057.7 1742.6 1052.5 1763.3 995.5 1775.6 975.1 1756.9 969.7 1763.7 955.8 1769.4 954.8 1775.6 927.8 1783.9 929.7 1786.3 913.9 1774.4 908 1781.8 886 1765.9 879.4 1773.2 857.6 1730.5 842 1664.2 815.3 1592.8 790.1 Z" data-holc_grade="B"/>
<path d="M 1184.4 1125.3 1195.1 1138.8 1155.9 1202 1130.3 1210.5 1068.9 1281.8 1028.4 1246.7 969 1164.7 963.6 1157.2 952.2 1162.9 947.9 1159.3 954.3 1145.1 964.3 1150.1 977.8 1142.3 1046.2 1135.9 1055.5 1136.6 1064.8 1131 1086.8 1131.7 1095.4 1136.5 1103.2 1140.9 1115.3 1136.7 1122.5 1143.1 1132.4 1137.4 1140.3 1131 1158.8 1118.9 1167.3 1124.6 1184.4 1125.3 Z" data-holc_grade="B"/>
<path d="M 1160.2 1107.6 1147.4 1114 1138.9 1120.4 1132.4 1137.4 1122.5 1143.1 1115.3 1136.7 1103.2 1140.9 1095.4 1136.5 1091.8 1123.2 1081.9 1111.8 1076.2 1098.3 1067.6 1111.1 1046.2 1120.3 1025.6 1108.2 1036.3 1076.3 1032 1072.8 1044.8 1058.6 1074 1060 1086.9 1058.6 1087.6 1047.9 1122.5 1032.3 1152.4 1038.7 1180.2 1048.7 1201.6 1064.3 1190.2 1073.5 1160.2 1107.6 Z" data-holc_grade="B"/>
<path d="M 1407.5 1071.4 1348.3 1061.5 1332.6 1075 1271.4 1007.6 1262.1 1000.5 1247.2 990.5 1247.2 984.8 1214.4 969.9 1167.4 922.4 1166 915.3 1168.4 911.3 1200.2 908.2 1235.1 931.6 1252.2 907.5 1259.3 932.3 1271.4 921 1275.7 929.5 1266.4 955 1313.4 975.6 1329.1 996.9 1356.9 999.1 1376.1 1026.7 1382.5 1031 1386.1 1043.8 1385.4 1050.1 1407.5 1056.5 1407.5 1071.4 Z" data-holc_grade="B"/>
<path d="M 1304.2 833.7 1296.4 869.9 1277.1 903.9 1329.8 932.3 1361.2 885.5 1393.2 858.6 1403.9 870.6 1405.3 885.5 1437.4 900.4 1436.4 907.9 1431.7 944.4 1416 998.3 1398.2 1013.2 1388.9 999.8 1376.1 1026.7 1356.9 999.1 1329.1 996.9 1313.4 975.6 1266.4 955 1275.7 929.5 1271.4 921 1259.3 932.3 1252.2 907.5 1235.1 931.6 1200.2 908.2 1168.4 911.3 1176.7 897.5 1197.3 881.9 1201.6 861.4 1205.2 842.9 1205.9 821.6 1227.3 832.3 1238.7 804.6 1304.2 833.7 Z" data-holc_grade="B"/>
<path d="M 1606 354 1561.9 431.6 1664.2 443.4 1658.3 679.8 1592.8 790.1 1566.9 781 1540.3 829.2 1485.2 895.2 1474.1 919.1 1436.4 907.9 1437.4 900.4 1405.3 885.5 1403.9 870.6 1393.2 858.6 1343.4 819.5 1334.1 769.1 1304.2 833.7 1238.7 804.6 1227.3 832.3 1205.9 821.6 1205.2 842.9 1201.6 861.4 1197.3 881.9 1176.7 897.5 1160.3 877 1094.8 831.5 1066.3 816.6 1035.7 796 1019.3 832.9 1012.2 847.8 989.4 871.9 1053.4 898.9 1057 906 1079.1 943.6 1101.2 947.9 1066.2 996.8 1092.6 1016.7 1074.8 1040.8 1087.6 1047.9 1086.9 1058.6 1074 1060 1044.8 1058.6 1032 1072.8 1036.3 1076.3 1025.6 1108.2 1046.2 1120.3 1067.6 1111.1 1076.2 1098.3 1081.9 1111.8 1091.8 1123.2 1095.4 1136.5 1086.8 1131.7 1064.8 1131 1055.5 1136.6 1046.2 1135.9 977.8 1142.3 964.3 1150.1 954.3 1145.1 947.9 1159.3 952.2 1162.9 963.6 1157.2 969 1164.7 1028.4 1246.7 1068.9 1281.8 1054 1299.2 1069.7 1315.5 1064 1326.2 1054 1340.4 1057.5 1351 1068.9 1339.7 1085.3 1355.3 1082.5 1361.7 1103.1 1379.4 1101 1385.8 1101.7 1390.8 1105.3 1398.6 1130.9 1400.7 1148 1403.6 1155.9 1395.8 1166.6 1401.5 1173.7 1420.6 1205 1446.2 1219.3 1454.7 1192 1557.6 1172.4 1546.1 1157.5 1549.1 1135.2 1536.1 1141.6 1525 1130.4 1516.9 1121.9 1533.2 1114.5 1529.5 1112.2 1534.6 1095.5 1525.4 1099.6 1513.6 1076.2 1497.6 1065.8 1524.3 1022.4 1510.2 1011.3 1540.1 928.9 1519.8 817.9 1504.2 808.6 1481.6 765.9 1488.2 768.5 1506 740.3 1514.8 741.8 1527.4 706.9 1532.6 699.5 1515.9 641.5 1513.7 605.6 1453.4 547.3 1437.8 529.9 1429.3 529.9 1417.8 498.4 1397.2 503.3 1385.7 510.7 1373.3 516 1362.9 517.2 1355.5 519.6 1347.5 525.3 1334.2 526.2 1322.7 520 1292.5 512 1269.4 507.5 1246.4 511.4 1231 520.3 1215.9 534 1201.4 547.1 1194.7 554.2 1189.3 556.9 1184 562.2 1172.2 565.2 1161.3 559.6 1140.8 557.5 1128.4 558.4 1119.3 562 1108.6 570.3 1092.7 573.9 1082.6 576 1072.5 577.5 1066 577.5 1060.4 578.1 1050.4 580.7 1043.6 581 1035.9 579 1027.3 579.3 1020.5 582.5 1017.3 592.3 1017 598 1015.5 602.1 1010.5 607.2 995.1 610.8 983.3 608.4 973.5 597.4 970 592.1 966.4 591.8 959 595.7 943.6 594.8 936 592.1 927.7 592.1 921.2 588.9 917 582.3 916.4 574.9 915.2 569.9 909.3 569.3 900.8 573.1 892.8 586.5 883.9 595.1 873.9 608.8 842.2 618.6 827.5 624.6 817.1 626.9 807.4 624.6 796.3 623.4 782.8 626 769.8 630.5 759.6 639.6 750.4 649.5 744.7 660.5 741.2 674.5 739.5 681.1 740.3 690.9 743.3 700.1 743.3 704.9 739.1 706.5 731.5 706.5 721.6 704.4 707.2 699.9 699.1 693 690.1 692.6 682.1 696.1 674 703.2 669.1 712.7 666.3 718.4 662.7 722 658.2 723.4 653.3 723.2 647.1 722 634.3 728.9 641.7 743.8 660.1 764.5 686.2 805.1 725.2 1140.4 448.9 977.4 276.3 960.3 196.6 1036.1 76.4 1057.2 39 1071.4 46.6 1090.2 53.7 1099 52.5 1101.8 49.2 1104.7 42.8 1108.2 35.3 1112.5 25.8 1117 19.7 1122.5 12.8 1129.4 6.9 1137.7 2.7 1145 1 1153.1 1 1161.9 4.3 1169.2 10.5 1170.2 19 1167.1 26.1 1163 30.5 1149.3 35.3 1138.8 39 1130.5 45.2 1125.8 49.9 1121.7 56.5 1121.3 63.4 1125.8 66.5 1134.8 66.5 1144 64.1 1152.3 61.7 1155.9 64.3 1155.2 72.1 1152.8 84 1150.2 94.6 1148.3 105.9 1150.4 114.2 1158 114.4 1165.1 109.3 1171.8 99.3 1176.3 88 1180.6 77.1 1184.8 69.3 1190.5 65.1 1200.3 67.7 1208.6 76.9 1220 88 1236.6 95.6 1247.7 97.5 1261 94.6 1273.6 88.5 1287.6 80 1317.9 92 1329.6 99.6 1341.7 110.5 1355.2 125.4 1363 137.4 1369.7 151.8 1374.6 171.5 1380.1 217.1 1385.6 238.4 1395 260.8 1419 286.3 1454.4 315.7 1471.5 323.2 1486.4 324.6 1499.2 322.3 1511.8 348.8 1606 354 Z" data-holc_grade="B"/>
<path d="M 1799.7 2487 1827.9 2495.9 1792.3 2595.1 1836.2 2598.8 1813.9 2687.6 1784.6 2751.7 1771.9 2748.8 1763 2765.6 1747.4 2762.6 1739.6 2782.2 1728.9 2778.5 1724.8 2785.9 1718.8 2783.3 1712.1 2797.4 1705.4 2794.4 1699.1 2807 1685.8 2803.7 1680.9 2814.8 1670.9 2811.1 1667.9 2820 1657.9 2817.7 1653.4 2809.1 1643.7 2803.9 1643 2792.8 1632.6 2781.7 1654.8 2741.7 1632.5 2732.1 1634.8 2726.1 1591.7 2715.8 1584.2 2707.6 1588.7 2695.1 1598.4 2695.1 1607.3 2690.6 1608 2678.8 1618.4 2676.5 1628.1 2672.1 1637.7 2651.4 1657.1 2655.8 1685.3 2668.4 1709.1 2630.6 1712.8 2598.8 1724.7 2589.5 1732.9 2583.2 1755.1 2512.2 1779.6 2482.6 1799.7 2487 Z" data-holc_grade="B"/>
<path d="M 1696.1 3055.7 1628.7 3008.4 1632.3 3004.9 1606.4 2986.5 1631.7 2956 1632.9 2951.3 1645.4 2950.7 1686.7 2940 1699.5 2933.5 1710.5 2930.5 1738.4 2929 1747.1 2926.4 1761.6 2924.3 1791.8 2921 1760.6 2963.9 1743.3 2989.4 1721.3 3020.2 1696.1 3055.7 Z" data-holc_grade="B"/>
<path d="M 1628.7 3008.4 1696.1 3055.7 1661.8 3104 1616.1 3072.3 1621.4 3062.2 1601.2 3044.5 1610.1 3029.7 1628.5 3008.3 1628.7 3008.4 Z" data-holc_grade="B"/>
<path d="M 1763 2765.6 1746.1 2797.7 1728.2 2859.4 1722.4 2877.6 1718.4 2911.4 1642.6 2926.5 1646.4 2912.5 1653.8 2878.8 1669 2882.5 1666.1 2846.6 1680.9 2814.8 1685.8 2803.7 1699.1 2807 1705.4 2794.4 1712.1 2797.4 1718.8 2783.3 1724.8 2785.9 1728.9 2778.5 1739.6 2782.2 1747.4 2762.6 1763 2765.6 Z" data-holc_grade="B"/>
<path d="M 1561 2724.1 1577.1 2766.7 1632.6 2781.7 1643 2792.8 1643.7 2803.9 1653.4 2809.1 1657.9 2817.7 1648.2 2836.6 1631.9 2852.9 1594.3 2904.4 1575.4 2943.6 1464.2 2964.4 1454.2 2968.4 1464.7 2954.5 1491.5 2914.2 1484.3 2904.7 1480.2 2885.8 1468.3 2882.8 1508.1 2774.4 1494.5 2772 1492.1 2759 1486.1 2750.7 1481.4 2745.4 1486.1 2735.3 1501 2722.3 1549.2 2706.9 1561 2724.1 Z" data-holc_grade="B"/>
</g>
<g id="C">
<path d="M 2068.1 2943.4 2065.5 2958.2 2044.7 2963 2017.6 3011.2 2027.6 3015.6 2038.4 3007.5 2047 3002.3 2055.1 2999.7 2073.7 3004.5 2109.8 3013.4 2122 2977.8 2144 2983.7 2143.6 2989.6 2232.8 3012.9 2247.3 3005.1 2342.4 2971.7 2280.5 3119.2 2263 3137.3 2220.3 3181.4 2162.3 3142.6 2169 3131.8 2148.9 3123.7 2134 3117.8 2122.5 3132.2 2111.3 3126.3 2123.6 3104.4 2096.8 3090 2073 3081.9 2051.8 3076.7 2041.8 3099.3 2035.5 3091.2 2001.7 3128.9 1960.4 3102.7 1920.6 3079 1910.6 3070.5 1942.1 3025.3 1977.8 2974.2 1975.2 2970.8 1978.2 2960.5 1979.7 2953 1982.6 2938.6 2068.1 2943.4 Z" data-holc_grade="C"/>
<path d="M 1680.9 2814.8 1666.1 2846.6 1669 2882.5 1653.8 2878.8 1646.4 2912.5 1642.6 2926.5 1632.9 2951.3 1631.7 2956 1606.4 2986.5 1632.3 3004.9 1628.7 3008.4 1628.5 3008.3 1610.1 3029.7 1601.2 3044.5 1576.2 3069.4 1573.8 3081.2 1566.1 3096 1560.7 3104.3 1551.6 3125.8 1545.3 3142.8 1480.2 3132.5 1501.4 3111.4 1530.8 3084.7 1564.2 2985.1 1575.4 2943.6 1594.3 2904.4 1631.9 2852.9 1648.2 2836.6 1657.9 2817.7 1667.9 2820 1670.9 2811.1 1680.9 2814.8 Z" data-holc_grade="C"/>
<path d="M 1480.2 3132.5 1207 3019.9 1267.6 3003.2 1454.2 2968.4 1464.2 2964.4 1575.4 2943.6 1564.2 2985.1 1530.8 3084.7 1501.4 3111.4 1480.2 3132.5 Z" data-holc_grade="C"/>
<path d="M 1557.4 1696.5 1544.6 1717.8 1532.3 1695.4 1398.7 1657.2 1386.2 1688.3 1369.2 1683.8 1317.5 1801 1255.2 1777.9 1273 1730.8 1216.9 1708.6 1250.7 1633.2 1281 1630.5 1306.9 1640.3 1318.5 1609.3 1378.2 1639.4 1394.2 1610.1 1367.5 1598.6 1356.8 1573.8 1339.9 1531.2 1323.8 1496.5 1347.9 1442.4 1354.1 1421.1 1526.1 1419.3 1585.7 1462.8 1575.1 1486.8 1620.5 1516.1 1616 1530.3 1616.9 1546.2 1590.2 1525.8 1568.8 1565.8 1554.6 1590.6 1595.6 1631.5 1569.7 1667 1557.4 1696.5 Z" data-holc_grade="C"/>
<path d="M 1941.2 1866.7 1902 1894.5 1886.5 1907.5 1868.1 1927.6 1840.8 1955.5 1795 1995.7 1776 2015.3 1738 2044.9 1707.1 2111.2 1703 2121.2 1689.3 2147.9 1663.8 2185.8 1626.9 2237.3 1587.1 2218.3 1569.9 2243.8 1562.7 2269.3 1551.4 2288.8 1544.3 2311.9 1534.2 2336.2 1512.2 2359.9 1507.5 2387.7 1483.2 2376.1 1467.6 2368.7 1492 2338.5 1511 2319 1529.5 2282.3 1534.8 2275.2 1547.9 2248.5 1558.6 2236.7 1566.3 2223.7 1572.2 2213 1576.4 2197 1576.4 2182.8 1582.9 2167.4 1599.6 2141.4 1613.2 2105.3 1645.9 2093.4 1675.6 2088.7 1667.3 2073.3 1683.9 2035.4 1670.9 2030.7 1682.7 2004.6 1700.6 1997.5 1716 1986.9 1718.4 1977.4 1720.2 1966.2 1717.2 1951.4 1723.1 1938.3 1727.9 1932.4 1726.7 1925.3 1734.4 1910.5 1742.7 1899.9 1748.7 1886.2 1751.6 1866.7 1750.4 1840.7 1747.5 1824.7 1749.8 1811.1 1765.9 1798.1 1762.3 1790.4 1764.7 1752.5 1761.1 1731.2 1761.7 1688.6 1787.8 1719.9 1819.3 1744.2 1840.7 1766.7 1884.1 1801 1894.8 1810.5 1902.5 1829.4 1922.7 1851.9 1941.2 1866.7 Z" data-holc_grade="C"/>
<path d="M 1814.1 2277.5 1837.9 2295.3 1838.5 2301.8 1812.4 2337.9 1774.3 2326.7 1736.9 2271 1686.4 2349.8 1644.2 2314.8 1611.5 2351.6 1598.4 2375.8 1575.2 2416.7 1565.2 2412.4 1507.5 2387.7 1512.2 2359.9 1534.2 2336.2 1544.3 2311.9 1551.4 2288.8 1562.7 2269.3 1569.9 2243.8 1587.1 2218.3 1626.9 2237.3 1663.8 2185.8 1706.6 2211.8 1748.8 2242.6 1793.3 2268 1814.1 2277.5 Z" data-holc_grade="C"/>
<path d="M 1955.3 1880.4 1962.3 1887.2 1956.3 1909.4 1946 1953.1 1935.6 1976.7 1922.9 1972.3 1914 1977.5 1905.9 1984.2 1897 1999.7 1887.3 2005.6 1889.5 2018.2 1891 2038.2 1898.5 2057.4 1907.8 2077.1 1898.8 2105.7 1849.7 2078.6 1834.9 2104 1817.7 2134.8 1792.1 2118.9 1755.9 2181.6 1789.2 2198.8 1783.2 2215.4 1810.6 2231.3 1806.4 2240.2 1830.2 2250.9 1814.1 2277.5 1793.3 2268 1748.8 2242.6 1706.6 2211.8 1663.8 2185.8 1689.3 2147.9 1703 2121.2 1707.1 2111.2 1738 2044.9 1776 2015.3 1795 1995.7 1840.8 1955.5 1868.1 1927.6 1886.5 1907.5 1902 1894.5 1941.2 1866.7 1955.3 1880.4 Z" data-holc_grade="C"/>
<path d="M 1587.8 2609.7 1568 2641.8 1552.7 2637 1530.7 2669 1524.2 2661.9 1496.8 2676.1 1489.1 2667.8 1470.1 2682 1453.4 2657.1 1483.8 2613.9 1522.4 2605.6 1587.8 2609.7 Z" data-holc_grade="C"/>
<path d="M 1755.1 2512.2 1732.9 2583.2 1724.7 2589.5 1689 2589.2 1669.7 2585.5 1710.5 2501.8 1722.4 2489.2 1757.4 2484.8 1755.1 2512.2 Z" data-holc_grade="C"/>
<path d="M 2029.9 1920.5 2023.2 1930.8 2017.3 1939.7 2012.8 1988.6 2065.6 1988.5 2093 1987.8 2119 1960.4 2168.8 1985.5 2180.9 2003.8 2233.8 2083.4 2231 2092.6 2236 2105.4 2131.8 2046.5 2094.8 2099.8 2089.7 2107 2076.9 2099.1 2039 2064.5 1999.3 2050.8 1979.3 2079.2 1921.8 2085.4 1931.1 2124.5 1990.4 2160.4 2013.6 2175.1 2031 2185.3 2042.6 2172.8 2088.1 2203 2122.6 2153.8 2173.3 2193.5 2140.5 2266 2131.1 2302 2126.9 2336.9 2148.3 2339.9 2147.2 2371 2075.7 2343.4 1925.2 2238.3 1940.1 2212 1943.1 2195.8 1934.2 2174.3 1897 2111.4 1898.8 2105.7 1907.8 2077.1 1908.9 2073.7 1923.7 2064.8 1953.4 2009.3 1959.3 1981.2 1935.6 1976.7 1946 1953.1 1956.3 1909.4 1962.3 1887.2 2003.1 1910.9 2029.9 1920.5 Z" data-holc_grade="C"/>
<path d="M 2147.2 2371 2146 2403.8 2131.8 2441.1 2113.4 2489.1 2040.2 2466 2029.4 2464.2 1953.6 2394.6 1888.2 2334.4 1861.8 2310.1 1925.2 2238.3 2075.7 2343.4 2147.2 2371 Z" data-holc_grade="C"/>
<path d="M 2358.5 2480.9 2318.1 2551.4 2278.3 2538.9 2222.5 2692.4 2165.4 2675.8 2079.7 2636.2 2082.7 2627.3 2074.2 2625.3 2111.6 2530 2118.1 2515.7 2147.9 2527 2163.9 2505.5 2175.2 2490.2 2182.9 2495 2201.3 2451.1 2212 2451.7 2232.2 2399.6 2275 2431.5 2300.6 2448.1 2358.5 2480.9 Z" data-holc_grade="C"/>
<path d="M 2326.8 2198.8 2302 2264.5 2246.9 2230.9 2212.5 2299.6 2201.2 2334.5 2172.1 2316.7 2131.1 2302 2140.5 2266 2173.3 2193.5 2188.9 2170.1 2206.8 2148.1 2232.4 2116.8 2236 2105.4 2231 2092.6 2233.8 2083.4 2248.8 2101.1 2263.1 2126.7 2288.1 2148.7 2310.9 2177.1 2326.8 2198.8 Z" data-holc_grade="C"/>
<path d="M 2302 2264.5 2299.3 2271.7 2261.9 2359.9 2257.1 2358.1 2241.1 2397.2 2232.2 2399.6 2212 2451.7 2201.3 2451.1 2182.9 2495 2175.2 2490.2 2163.9 2505.5 2113.4 2489.1 2131.8 2441.1 2146 2403.8 2147.2 2371 2148.3 2339.9 2126.9 2336.9 2131.1 2302 2172.1 2316.7 2201.2 2334.5 2212.5 2299.6 2246.9 2230.9 2302 2264.5 Z" data-holc_grade="C"/>
<path d="M 2040.2 2466 2008.2 2535.3 1943.9 2538.8 1934.2 2566.9 1930.5 2596.5 1871.1 2578 1906.7 2506.9 1923.8 2468.4 1946.1 2415.9 1953.6 2394.6 2029.4 2464.2 2040.2 2466 Z" data-holc_grade="C"/>
<path d="M 2113.4 2489.1 2163.9 2505.5 2147.9 2527 2118.1 2515.7 2111.6 2530 2051 2534.7 2008.2 2535.3 2040.2 2466 2113.4 2489.1 Z" data-holc_grade="C"/>
<path d="M 2684.3 1762.1 2664.3 1786.1 2718.2 1822.5 2712 1846 2736.1 1857.5 2725.4 1896.6 2747.7 1904.5 2757.5 1880.1 2789.6 1887.6 2787.8 1899.6 2780.3 1938.2 2771.4 1976.4 2772.8 2006.2 2741.6 1992 2702.4 1974.7 2685 1957.4 2674.3 1949 2648.4 1931.3 2664 1904.2 2679.5 1890.9 2620.2 1856.7 2629.6 1815.9 2636.2 1779.5 2623.7 1768.4 2645.4 1725.5 2645.9 1724.4 2657.5 1717.8 2684.3 1762.1 Z" data-holc_grade="C"/>
<path d="M 2591.4 1555.4 2586.1 1582.9 2636 1601.1 2676.6 1617.5 2703.3 1624.5 2712.7 1629 2710.9 1633.8 2719.2 1636.6 2702 1682.2 2695.4 1715.1 2684.3 1762.1 2657.5 1717.8 2649 1696.5 2637.5 1700.5 2627.6 1690.3 2612 1691.6 2605.4 1706.3 2564.4 1707.2 2564.4 1698.3 2525.6 1705.5 2518.5 1678.4 2529.2 1675.7 2529.2 1659.3 2537.6 1643.8 2541.2 1634.5 2530 1621.2 2529.1 1608.7 2513.9 1587 2497.4 1544.9 2501 1530.4 2548.2 1541.3 2591.4 1555.4 Z" data-holc_grade="C"/>
<path d="M 2874.8 1591.5 2872.6 1631.9 2869.1 1659.4 2866 1684.7 2783.3 1657.6 2719.2 1636.6 2710.9 1633.8 2712.7 1629 2731.1 1568.7 2764.3 1573.9 2783.4 1573.8 2810.2 1580.5 2874.8 1591.5 Z" data-holc_grade="C"/>
<path d="M 2870.3 1548 2844 1535.6 2836.4 1548.9 2805.2 1541.9 2786.1 1542.3 2714.4 1546 2729.9 1521.5 2705.9 1514.5 2662.5 1470.7 2670.8 1448.5 2690.2 1460.5 2694.6 1463.2 2695.7 1461.8 2746.9 1473.2 2769.4 1454.3 2773 1422.3 2799.1 1430 2846.6 1448.3 2848.4 1428.1 2855.5 1413.9 2866.2 1396.2 2894.1 1403.8 2913.7 1362 2920.8 1337.2 2931.4 1295 2919.5 1283.1 2911.7 1273.7 2918 1265.3 2922.4 1250.2 2985.7 1295.4 2960.1 1402.3 2971.7 1410.3 2963.7 1455.1 2953 1449.4 2906.7 1438.4 2870.3 1548 Z" data-holc_grade="C"/>
<path d="M 2809.7 1331.2 2764.6 1390.4 2725.4 1385.1 2726 1408.2 2716.5 1430.1 2700.5 1455.5 2695.7 1461.8 2694.6 1463.2 2690.2 1460.5 2670.8 1448.5 2685.6 1410 2717.7 1359.7 2736.6 1338.4 2777.5 1287.4 2774.5 1258.5 2816.1 1233 2840.4 1204.6 2912.3 1247.6 2873.1 1287.3 2850 1286.8 2831.6 1279.1 2818 1312.8 2809.7 1331.2 Z" data-holc_grade="C"/>
<path d="M 2685.6 1410 2670.8 1448.5 2662.5 1470.7 2660.8 1475 2623 1556.7 2591.4 1555.4 2548.2 1541.3 2501 1530.4 2504 1510 2515.1 1496.3 2533.6 1465.6 2552.2 1439.3 2575.1 1389 2594.8 1398.9 2623.9 1412.4 2636.3 1384 2685.6 1410 Z" data-holc_grade="C"/>
<path d="M 2329.6 2288.2 2354.6 2304.8 2355.2 2315.4 2376.6 2324.9 2325 2448.1 2313.7 2431.5 2302.3 2416.1 2301.2 2407.3 2290.4 2387.7 2329.6 2288.2 Z" data-holc_grade="C"/>
<path d="M 2671.2 1196 2660.5 1182.7 2678.2 1149.9 2660.4 1099.3 2647.3 1094.7 2667.5 1068.3 2712 1104.2 2709.1 1120.7 2713.3 1140.8 2722.2 1159.7 2725.8 1177.5 2729.9 1195.8 2716.3 1223 2671.2 1196 Z" data-holc_grade="C"/>
<path d="M 2361 2108.2 2326.8 2198.8 2310.9 2177.1 2288.1 2148.7 2263.1 2126.7 2248.8 2101.1 2263 2082.7 2281.6 2067 2297.3 2047.8 2329.3 2053.5 2361 2108.2 Z" data-holc_grade="C"/>
<path d="M 2455.5 1756.3 2450.4 1781 2404.3 1970.4 2399.1 1956.4 2388 1962.3 2387.2 1954.2 2379.8 1946 2367.2 1932.7 2362.7 1917.2 2354.5 1909.8 2327 1901.7 2292.9 1890.6 2281.7 1911.3 2264.7 1923.2 2229.7 1842.6 2248.3 1838.1 2293.6 1831.4 2350 1818.8 2385.6 1818.1 2383.4 1764.8 2417.5 1761.1 2418.3 1743.3 2455.5 1756.3 Z" data-holc_grade="C"/>
<path d="M 2229.7 1842.6 2264.7 1923.2 2286.3 1987.5 2180.9 2003.8 2168.8 1985.5 2119 1960.4 2087.8 1947.1 2069.2 1941.2 2045.2 1928.5 2089.4 1870.8 2137.6 1787.2 2171 1768.6 2190.3 1762 2229.7 1842.6 Z" data-holc_grade="C"/>
<path d="M 2392.3 1731.5 2303.1 1704.9 2304 1686.9 2296.9 1658.5 2291.5 1637.2 2270.1 1626.6 2282.6 1597.6 2302.8 1595.2 2326.5 1603.4 2364 1623.5 2386.5 1626.5 2384.8 1637.7 2384.8 1653.7 2387.2 1671.4 2390.1 1687.4 2387.2 1702.2 2393.7 1718.2 2392.3 1731.5 Z" data-holc_grade="C"/>
<path d="M 2272.4 1483.9 2277.5 1476.6 2277.5 1469.5 2277.1 1461.8 2282.3 1445.1 2287.2 1438.8 2291.6 1440.7 2312.4 1431 2330.6 1420.7 2343.6 1408.1 2357.3 1398.8 2367.3 1388.9 2377.7 1374.1 2397 1350.4 2405.1 1338.2 2407.3 1328.6 2406.6 1320.1 2419.6 1308.6 2427.4 1306.7 2428.1 1301.9 2434.4 1302.7 2448.1 1288.6 2452.2 1276 2454.4 1261.6 2454.4 1252.7 2439.8 1241.7 2445.8 1215.8 2468.1 1218.7 2477.8 1224.2 2480.7 1233.1 2485.2 1245.3 2491.5 1254.9 2496.3 1268.6 2495.6 1282.3 2490.1 1301.9 2486.7 1312.6 2490.8 1325.5 2473.4 1371.4 2457.5 1369.6 2450.1 1398 2448.2 1407.6 2419.7 1440.6 2404.1 1466.1 2389.3 1484.2 2398.9 1489.4 2390 1492.4 2375.2 1505.7 2362.2 1517.9 2357 1522.7 2349.9 1519.8 2334.4 1521.6 2326.2 1530.5 2318 1537.9 2308 1540.5 2299.8 1540.1 2292.4 1542.7 2284.2 1521.7 2272.4 1483.9 Z" data-holc_grade="C"/>
<path d="M 2198.7 1681.1 2179.3 1721.1 2159.7 1724.1 2136.2 1690.3 2140 1695.7 2148.3 1682.7 2176.8 1649.5 2200.5 1562.6 2219.5 1557.2 2227.2 1488.6 2250.4 1485 2250.3 1486.2 2238.6 1599.2 2198.7 1681.1 Z" data-holc_grade="C"/>
<path d="M 2170.8 1557.8 2170.3 1595.7 2162.6 1605.8 2152.5 1642.5 2128.1 1679.3 2110.9 1657.3 2105.6 1645.4 2102.6 1631.8 2089.4 1621.7 2091.3 1618.2 2126 1526.3 2142.9 1481.5 2142.9 1554.3 2170.8 1557.8 Z" data-holc_grade="C"/>
<path d="M 2016.6 1756 1958.9 1740 1964.3 1791.5 1959 1819.3 1957.2 1844.8 1955.4 1863.7 1955.3 1880.4 1941.2 1866.7 1922.7 1851.9 1902.5 1829.4 1894.8 1810.5 1884.1 1801 1840.7 1766.7 1873.4 1640 1892.4 1635.9 1907.2 1629.4 1928 1634.1 1952.4 1634.1 1926.8 1534.7 1898.9 1509.9 1897.1 1459 1871.5 1451.3 1886.3 1399.8 1990.3 1499.8 2022.4 1534.1 2003.4 1556 1958.3 1625.2 1984.4 1654.2 2000.5 1673.1 2048 1697.9 2016.6 1756 Z" data-holc_grade="C"/>
<path d="M 2045.4 1326.6 2062 1337.2 2026.4 1393.4 2044.3 1410.6 2043.7 1420.1 1990.3 1499.8 1886.3 1399.8 1876.2 1394.7 1867.3 1343.2 1842.9 1299.5 1851.2 1288.2 1836.4 1270.5 1838.7 1265.7 1922.5 1339.7 1960.5 1273.4 2045.4 1326.6 Z" data-holc_grade="C"/>
<path d="M 2383.4 2493.9 2358.5 2480.9 2300.6 2448.1 2275 2431.5 2232.2 2399.6 2241.1 2397.2 2257.1 2358.1 2261.9 2359.9 2299.3 2271.7 2302 2264.5 2326.8 2198.8 2361 2108.2 2361.6 2118.9 2437.2 2272.1 2435.4 2282.2 2412.2 2310.7 2395.6 2334.4 2385.5 2358.6 2381.4 2375.8 2381.4 2391.8 2381.4 2412.5 2383.8 2430.9 2387.4 2445.7 2391 2458.7 2391.6 2470.5 2383.4 2493.9 Z M 2329.6 2288.2 2290.4 2387.7 2301.2 2407.3 2302.3 2416.1 2313.7 2431.5 2325 2448.1 2376.6 2324.9 2355.2 2315.4 2354.6 2304.8 2329.6 2288.2 Z" data-holc_grade="C"/>
<path d="M 2142.9 1481.5 2126 1526.3 2113.8 1511.7 2101.3 1493.4 2088.8 1463.8 2079.9 1438.4 2071 1411.2 2085.8 1352 2095.9 1357.9 2106 1335.4 2158.8 1365 2144.6 1389.8 2110.2 1427.7 2148.8 1451.4 2151.8 1462 2142.9 1481.5 Z" data-holc_grade="C"/>
<path d="M 1714.5 1077.7 1690.6 1137 1690.6 1143.4 1666.4 1193.8 1667.9 1201.6 1666.4 1215.1 1650 1205.2 1625 1189.9 1616.9 1185 1599.1 1172.9 1577 1157.3 1554.2 1142.4 1523.9 1137.5 1515 1136 1484.4 1131.8 1458 1130.4 1475.8 1122.5 1510 1104.8 1522.9 1087.8 1533.6 1070.7 1545 1061.5 1564.9 1048 1582 1031.7 1601.2 1037.4 1675.3 1067.2 1714.5 1077.7 Z" data-holc_grade="C"/>
<path d="M 1404.3 1114.1 1373.3 1111.2 1361.8 1152.3 1379.7 1158.7 1376.8 1168 1371.8 1178.6 1357.6 1182.2 1346.2 1187.8 1341.2 1199.2 1320.5 1190 1297 1183.6 1255 1160.1 1233.6 1177.2 1195.1 1138.8 1184.4 1125.3 1171.6 1117.5 1160.2 1107.6 1190.2 1073.5 1201.6 1064.3 1180.2 1048.7 1152.4 1038.7 1122.5 1032.3 1087.6 1047.9 1074.8 1040.8 1092.6 1016.7 1066.2 996.8 1101.2 947.9 1104.7 938.7 1114 939.4 1124.7 922.4 1166 915.3 1167.4 922.4 1214.4 969.9 1247.2 984.8 1247.2 990.5 1262.1 1000.5 1271.4 1007.6 1332.6 1075 1348.3 1061.5 1407.5 1071.4 1404.3 1114.1 Z" data-holc_grade="C"/>
<path d="M 1168.4 911.3 1166 915.3 1124.7 922.4 1114 939.4 1104.7 938.7 1101.2 947.9 1079.1 943.6 1057 906 1053.4 898.9 989.4 871.9 1012.2 847.8 1019.3 832.9 1035.7 796 1066.3 816.6 1094.8 831.5 1160.3 877 1176.7 897.5 1168.4 911.3 Z" data-holc_grade="C"/>
<path d="M 2468.8 2287.3 2479.2 2261.4 2511.2 2279.1 2517.9 2270.9 2546.8 2279.8 2641.2 2043.4 2663.3 2054 2647.7 2092.5 2658.1 2097.6 2627.7 2177.6 2607 2228.7 2599.6 2251.6 2555.1 2356 2494.9 2325.7 2468.8 2287.3 Z" data-holc_grade="C"/>
<path d="M 2575.2 2448.5 2512.2 2440.2 2450.4 2412.5 2448.9 2405 2423.6 2397.6 2468.8 2287.3 2494.9 2325.7 2555.1 2356 2599.6 2251.6 2607 2228.7 2627.7 2177.6 2658.1 2097.6 2647.7 2092.5 2663.3 2054 2641.2 2043.4 2640.2 2042.9 2604.5 2027.4 2618.6 1994.1 2561.4 1972.7 2612.6 1950.4 2649 1969.6 2655 1976.3 2679.5 1994 2760.5 2041.3 2709.4 2158.3 2699 2157.5 2659.8 2259 2628.6 2270.8 2614.5 2299.7 2645.7 2314.5 2616.1 2391.5 2613.9 2452.9 2575.2 2448.5 Z" data-holc_grade="C"/>
<path d="M 1871.1 2578 1930.5 2596.5 1934.2 2566.9 1943.9 2538.8 2008.2 2535.3 2051 2534.7 2111.6 2530 2074.2 2625.3 2065.5 2623.2 2059.5 2628.5 2051.2 2630.3 2044.1 2640.9 2031.6 2639.2 2013.8 2659.9 2005.4 2654 2001.3 2658.1 1995.9 2669.4 1984 2663.5 1976.3 2675.9 1966.3 2675 1968.5 2666.1 1958.3 2664.3 1947.6 2683.9 1939.6 2683.9 1934.2 2696.3 1926.2 2691.9 1924.4 2699.9 1911.9 2696.8 1909.2 2702.1 1900.8 2701.2 1894.1 2714.1 1886.1 2710.1 1877.6 2720.3 1866.4 2715.9 1862.9 2722.1 1854 2727 1835.2 2736.8 1831.2 2731.9 1804.9 2756.3 1784.6 2751.7 1813.9 2687.6 1836.2 2598.8 1792.3 2595.1 1827.9 2495.9 1867.3 2507.7 1842.1 2572.9 1871.1 2578 Z" data-holc_grade="C"/>
<path d="M 1745.1 3194.4 1616.1 3158.2 1650 3103.7 1658.3 3109 1661.8 3104 1696.1 3055.7 1721.3 3020.2 1743.3 2989.4 1760.6 2963.9 1791.8 2921 1795 2916.5 1837.9 2910.5 1871.1 2905.1 1859.9 2928.3 1840.8 2964.4 1812.9 3011.3 1781.4 3046.2 1777.8 3057.5 1780.2 3085.9 1786.2 3129.2 1784.4 3151.1 1774.9 3165.9 1753.5 3175.4 1748.1 3184.3 1745.1 3194.4 Z" data-holc_grade="C"/>
<path d="M 1976.3 2675.9 1987.6 2684.2 1988.2 2688.9 1959.1 2747.6 1991.8 2760.6 1931.2 2865.5 1892.5 2868.5 1876.5 2893.9 1871.1 2905.1 1837.9 2910.5 1795 2916.5 1791.8 2921 1761.6 2924.3 1747.1 2926.4 1738.4 2929 1710.5 2930.5 1699.5 2933.5 1686.7 2940 1645.4 2950.7 1632.9 2951.3 1642.6 2926.5 1718.4 2911.4 1722.4 2877.6 1728.2 2859.4 1746.1 2797.7 1763 2765.6 1771.9 2748.8 1784.6 2751.7 1804.9 2756.3 1831.2 2731.9 1835.2 2736.8 1854 2727 1862.9 2722.1 1866.4 2715.9 1877.6 2720.3 1886.1 2710.1 1894.1 2714.1 1900.8 2701.2 1909.2 2702.1 1911.9 2696.8 1924.4 2699.9 1926.2 2691.9 1934.2 2696.3 1939.6 2683.9 1947.6 2683.9 1958.3 2664.3 1968.5 2666.1 1966.3 2675 1976.3 2675.9 Z" data-holc_grade="C"/>
<path d="M 2921.8 1758.7 2903.6 1800.5 2888.9 1805.8 2880.4 1819.6 2872 1847.6 2872 1865.8 2852 1898.6 2838.2 1926.6 2829.4 1974.6 2827.6 2009.7 2797.8 2017.2 2772.8 2006.2 2771.4 1976.4 2780.3 1938.2 2787.8 1899.6 2789.6 1887.6 2804.7 1845.9 2810 1835.2 2854.5 1724.2 2899 1739.2 2921.8 1758.7 Z" data-holc_grade="C"/>
</g>
<g id="D">
<path d="M 2769 2905 2774.6 2917.3 2735.2 2940.3 2731.2 2946.9 2716.7 2985.8 2697.4 2976.2 2664.3 2962.5 2663.9 2954 2652 2947 2673.5 2883.7 2708.8 2892.9 2723.6 2867 2752.3 2882.1 2769 2905 Z" data-holc_grade="D"/>
<path d="M 1935.6 1976.7 1959.3 1981.2 1953.4 2009.3 1923.7 2064.8 1908.9 2073.7 1907.8 2077.1 1898.5 2057.4 1891 2038.2 1889.5 2018.2 1887.3 2005.6 1897 1999.7 1905.9 1984.2 1914 1977.5 1922.9 1972.3 1935.6 1976.7 Z" data-holc_grade="D"/>
<path d="M 1462.5 2598.7 1483.8 2613.9 1453.4 2657.1 1370.8 2613.9 1408.3 2560 1462.5 2598.7 Z" data-holc_grade="D"/>
<path d="M 2122.6 2153.8 2088.1 2203 2042.6 2172.8 2089.7 2107 2094.8 2099.8 2126.9 2124.7 2136.9 2130.3 2122.6 2153.8 Z" data-holc_grade="D"/>
<path d="M 1953.6 2394.6 1946.1 2415.9 1923.8 2468.4 1906.7 2506.9 1871.1 2578 1842.1 2572.9 1867.3 2507.7 1827.9 2495.9 1799.7 2487 1819 2447 1839.8 2404.1 1855.4 2363.4 1888.2 2334.4 1953.6 2394.6 Z" data-holc_grade="D"/>
<path d="M 2560.1 1879 2577.3 1905.2 2566.2 1905.2 2546.9 1889.7 2522.4 1887.5 2509.7 1910.4 2514.2 1931.1 2507.5 1936.3 2507.6 1951.9 2495 1972.6 2480.9 1988.9 2478.6 1994.8 2481.6 1999.2 2477.9 2018.5 2486.8 2025.1 2476.5 2057.7 2469.8 2058.4 2456.4 2074.7 2440.8 2072.5 2442.3 2062.9 2437.1 2058.5 2426.7 2069.6 2423 2084.4 2407.4 2078.5 2400.7 2091 2384.4 2106.6 2361 2108.2 2376.9 2072.6 2426.7 2007.4 2404.3 1970.4 2450.4 1781 2469.1 1787.2 2485.6 1794.2 2498.1 1799.6 2509.7 1809.8 2521.3 1818.7 2526.6 1831.5 2535.6 1846.1 2541.4 1855.5 2560.1 1879 Z" data-holc_grade="D"/>
<path d="M 2866 1684.7 2869.1 1659.4 2900.3 1674.4 2930.1 1689.1 2951.1 1701 2936.5 1740.5 2921.8 1758.7 2899 1739.2 2854.5 1724.2 2866 1684.7 Z" data-holc_grade="D"/>
<path d="M 2623 1556.7 2652.5 1559.3 2689.4 1564.2 2731.3 1568.1 2731.1 1568.7 2712.7 1629 2703.3 1624.5 2676.6 1617.5 2636 1601.1 2586.1 1582.9 2591.4 1555.4 2623 1556.7 Z" data-holc_grade="D"/>
<path d="M 2731.1 1568.7 2731.3 1568.1 2689.4 1564.2 2652.5 1559.3 2623 1556.7 2660.8 1475 2662.5 1470.7 2705.9 1514.5 2729.9 1521.5 2714.4 1546 2786.1 1542.3 2805.2 1541.9 2836.4 1548.9 2844 1535.6 2870.3 1548 2868.5 1560 2874.8 1591.5 2810.2 1580.5 2783.4 1573.8 2764.3 1573.9 2731.1 1568.7 Z" data-holc_grade="D"/>
<path d="M 2575.1 1389 2552.2 1439.3 2533.6 1465.6 2515.1 1496.3 2504 1510 2501 1530.4 2471.6 1519.2 2446.5 1509.7 2411.9 1495.7 2398.9 1489.4 2389.3 1484.2 2404.1 1466.1 2419.7 1440.6 2448.2 1407.6 2450.1 1398 2457.5 1369.6 2473.4 1371.4 2490.8 1325.5 2511.3 1338.1 2528.3 1350.3 2542.8 1363.9 2557.3 1375 2575.1 1389 Z" data-holc_grade="D"/>
<path d="M 2882.8 2924.2 2886.9 2934.1 2834.5 2976.4 2794.8 3005.4 2784.8 3011.3 2763.9 3016.1 2745.7 3021.7 2731.6 2998 2724.1 2988 2716.7 2985.8 2731.2 2946.9 2735.2 2940.3 2774.6 2917.3 2769 2905 2780.9 2901.7 2805.4 2886.1 2825.5 2913.5 2858.6 2893.5 2882.8 2924.2 Z M 2689 2837 2660.8 2880.7 2639.6 2869.3 2672.3 2819.3 2677.9 2827.8 2683.5 2830.7 2689 2837 Z M 2936.6 2871.1 2912 2826.4 2949.5 2806.7 2959.9 2800.4 2984.8 2802.2 2999 2837.7 2936.6 2871.1 Z" data-holc_grade="D"/>
<path d="M 1962.3 1887.2 1955.3 1880.4 1955.4 1863.7 1957.2 1844.8 1959 1819.3 1964.3 1791.5 1958.9 1740 2016.6 1756 1991.1 1825.2 1988.7 1837 1985.7 1844.7 1979.8 1860.7 1962.3 1887.2 Z" data-holc_grade="D"/>
<path d="M 2089.4 1621.7 2048 1697.9 2000.5 1673.1 1984.4 1654.2 1958.3 1625.2 2003.4 1556 2022.4 1534.1 2042.5 1565.6 2091.3 1618.2 2089.4 1621.7 Z" data-holc_grade="D"/>
<path d="M 2126 1526.3 2091.3 1618.2 2042.5 1565.6 2022.4 1534.1 1990.3 1499.8 2043.7 1420.1 2044.3 1410.6 2026.4 1393.4 2062 1337.2 2045.4 1326.6 2107.7 1228.4 2085.8 1352 2071 1411.2 2079.9 1438.4 2088.8 1463.8 2101.3 1493.4 2113.8 1511.7 2126 1526.3 Z" data-holc_grade="D"/>
<path d="M 1882.3 1188.8 1832.5 1261.2 1819.6 1247 1804 1233.5 1820.3 1218.6 1827.5 1203.7 1837.4 1176.8 1840.3 1160.4 1860.9 1172.5 1872.3 1179.6 1882.3 1188.8 Z" data-holc_grade="D"/>
<path d="M 2936.6 2871.1 2895.7 2889.3 2903.6 2903.8 2882.8 2924.2 2858.6 2893.5 2825.5 2913.5 2805.4 2886.1 2780.9 2901.7 2769 2905 2752.3 2882.1 2723.6 2867 2708.8 2892.9 2673.5 2883.7 2652 2947 2634.9 2941.5 2636.4 2928.9 2602.5 2904.9 2621 2858.6 2671.5 2785.6 2807.6 2824.3 2814.6 2796.1 2835 2792 2877 2773.9 2950.2 2774.9 2951.4 2800 2959.9 2800.4 2949.5 2806.7 2912 2826.4 2936.6 2871.1 Z M 2689 2837 2683.5 2830.7 2677.9 2827.8 2672.3 2819.3 2639.6 2869.3 2660.8 2880.7 2689 2837 Z" data-holc_grade="D"/>
<path d="M 2575.2 2448.5 2571.1 2509.5 2550.9 2555.1 2542.6 2553.9 2489.2 2606.7 2470.2 2650.5 2462.1 2678 2385.6 2936.3 2349.3 2951.7 2342.4 2971.7 2247.3 3005.1 2232.8 3012.9 2143.6 2989.6 2144 2983.7 2157.3 2923.4 2082.6 2901.9 2068.1 2943.4 1982.6 2938.6 1995.4 2896.9 2006.1 2878.5 2000.2 2874.3 2035.8 2748.7 2041.8 2751.7 2066.1 2664 2070.2 2657.5 2079.7 2636.2 2165.4 2675.8 2222.5 2692.4 2278.3 2538.9 2318.1 2551.4 2358.5 2480.9 2383.4 2493.9 2399.5 2505.7 2414.2 2501.9 2439.1 2506 2459.9 2452.7 2437.9 2443.3 2450.4 2412.5 2512.2 2440.2 2575.2 2448.5 Z M 2089.3 2733.9 2075.7 2781.9 2106.6 2792.5 2123.2 2744 2089.3 2733.9 Z" data-holc_grade="D"/>
<path d="M 2437.2 2272.1 2361.6 2118.9 2361 2108.2 2384.4 2106.6 2400.7 2091 2407.4 2078.5 2423 2084.4 2426.7 2069.6 2437.1 2058.5 2442.3 2062.9 2440.8 2072.5 2456.4 2074.7 2469.8 2058.4 2476.5 2057.7 2486.8 2025.1 2477.9 2018.5 2481.6 1999.2 2478.6 1994.8 2480.9 1988.9 2495 1972.6 2507.6 1951.9 2507.5 1936.3 2514.2 1931.1 2520.2 1938.5 2519.4 1950.4 2509.1 1983.7 2504.6 2006.6 2512.1 2024.4 2512.1 2036.2 2501.7 2064.3 2483.9 2082.8 2470.6 2114.7 2475.8 2142 2477.3 2163.5 2472.9 2202 2461 2237.5 2437.2 2272.1 Z" data-holc_grade="D"/>
<path d="M 2074.2 2625.3 2082.7 2627.3 2079.7 2636.2 2070.2 2657.5 2066.1 2664 2041.8 2751.7 2035.8 2748.7 2000.2 2874.3 2006.1 2878.5 1995.4 2896.9 1982.6 2938.6 1979.7 2953 1917.6 2940.1 1827.8 3100.7 1789.2 3175.4 1777.3 3181.3 1770.7 3184.9 1768.9 3200.3 1745.1 3194.4 1748.1 3184.3 1753.5 3175.4 1774.9 3165.9 1784.4 3151.1 1786.2 3129.2 1780.2 3085.9 1777.8 3057.5 1781.4 3046.2 1812.9 3011.3 1840.8 2964.4 1859.9 2928.3 1871.1 2905.1 1876.5 2893.9 1892.5 2868.5 1931.2 2865.5 1991.8 2760.6 1959.1 2747.6 1988.2 2688.9 1987.6 2684.2 1976.3 2675.9 1984 2663.5 1995.9 2669.4 2001.3 2658.1 2005.4 2654 2013.8 2659.9 2031.6 2639.2 2044.1 2640.9 2051.2 2630.3 2059.5 2628.5 2065.5 2623.2 2074.2 2625.3 Z" data-holc_grade="D"/>
<path d="M 1661.8 3104 1658.3 3109 1650 3103.7 1616.1 3158.2 1600 3152.9 1605.9 3142.8 1560.7 3104.3 1566.1 3096 1573.8 3081.2 1576.2 3069.4 1601.2 3044.5 1621.4 3062.2 1616.1 3072.3 1661.8 3104 Z" data-holc_grade="D"/>
<path d="M 904.5 2931.7 859.8 2948.6 859 2978.2 854.6 3024.9 853.8 3039.7 841.9 3058.2 844.1 3084.1 847.8 3115.2 850 3130.1 835.9 3131.5 789.8 3107.1 788.4 3070 788.4 3049.3 794.3 3038.2 784.7 2974.5 770.6 2981.9 750.5 2933.7 790.7 2935.2 809.3 2930.8 847.9 2922 871.7 2913.8 903.7 2919.8 904.5 2931.7 Z" data-holc_grade="D"/>
<path d="M 1898.8 2105.7 1897 2111.4 1934.2 2174.3 1943.1 2195.8 1940.1 2212 1925.2 2238.3 1861.8 2310.1 1853.4 2316 1838.5 2301.8 1837.9 2295.3 1814.1 2277.5 1830.2 2250.9 1806.4 2240.2 1810.6 2231.3 1783.2 2215.4 1789.2 2198.8 1755.9 2181.6 1792.1 2118.9 1817.7 2134.8 1834.9 2104 1849.7 2078.6 1898.8 2105.7 Z" data-holc_grade="D"/>
</g>
</svg>