<?xml version="1.0"?>
<svg xmlns="http://www.w3.org/2000/svg" version="1.2" baseProfile="tiny" width="3000" height="2096" viewBox="0 0 3000 2096" stroke-linecap="round" stroke-linejoin="round">
<g id="A">
<path d="M 2383 1138.7 2381.9 1242.7 2488.4 1244.7 2484.8 1325.7 2483.8 1349 2419.2 1348.3 2416.5 1380.5 2410.3 1393 2400.7 1389.8 2390.8 1388.8 2378.7 1388.3 2357.6 1390.5 2343.4 1395.8 2329.2 1403.7 2316.3 1413.8 2305.4 1430.2 2299.1 1446.5 2276.3 1446.7 2277.1 1398.2 2202.3 1394.8 2202.3 1382.5 2202.2 1312.7 2202.2 1240.9 2213.7 1241.2 2300.5 1242.2 2350.8 1242.7 2352.6 1224.8 2352.8 1180.9 2352.9 1138.3 2383 1138.7 Z" data-holc_grade="A"/>
<path d="M 2821.7 1348.2 2763.8 1348 2689.6 1352.4 2483.8 1349 2484.8 1325.7 2488.4 1244.7 2488.5 1242.3 2488.8 1228.1 2491.1 1123.4 2490.4 1034.3 2701.5 1037 2808.4 1038.5 2808.3 1140.7 2905.4 1140 2904.6 1244.5 2998.1 1247 2999 1255.2 2994.6 1407.3 2903.7 1408 2900.4 1348.6 2821.7 1348.2 Z" data-holc_grade="A"/>
</g>
<g id="B">
<path d="M 799.4 1010.9 798.8 1109.4 755.1 1107.8 756.1 1040.4 741.2 1039.4 724.3 1045.9 721.2 1052.4 721.3 1058.3 723.9 1072.7 732.9 1089.9 750.8 1123.1 741.4 1135.4 737.5 1144.1 736.2 1153.6 738 1195.3 650.7 1196.4 650.5 1177.7 655.5 1125.3 660.1 1009.9 799.4 1010.9 Z" data-holc_grade="B"/>
<path d="M 1970.2 1238.3 2187.7 1240.6 2202.2 1240.9 2202.2 1312.7 2202.3 1382.5 2202.3 1394.8 2202.3 1416.6 2122.1 1416.5 1898.2 1416.2 1902.1 1374.6 1901.9 1328.5 1903.5 1296.4 1903.2 1284.1 1959.9 1283.9 1960.6 1238.1 1970.2 1238.3 Z M 2069.5 1338.9 2017.5 1335.9 2015.6 1392.5 2068.4 1394.7 2069.5 1338.9 Z" data-holc_grade="B"/>
<path d="M 2202.3 1416.6 2201.1 1447.7 2160 1447.6 2160.5 1517.2 2155.9 1643 2064 1642.7 2062.9 1654.8 2042.2 1653.1 1992.3 1653.2 1921.9 1650.4 1924.7 1568.1 1924.3 1546.3 2016.1 1546.9 2016 1515.3 2066.9 1515.9 2067.6 1493.9 2116.9 1494.3 2116.4 1447.8 2123.2 1446.7 2122.1 1416.5 2202.3 1416.6 Z M 2097.5 1517.5 2093.8 1601.4 2118.2 1601.6 2120.7 1518.6 2097.5 1517.5 Z" data-holc_grade="B"/>
</g>
<g id="C">
<path d="M 444.7 1199.4 443.7 1315 417.6 1314.8 415.2 1361.5 351.5 1360.4 340.9 1487.1 338.2 1515.8 334.1 1579.4 337.9 1672.5 340.3 1724 337.9 1746.2 265.6 1736 178.4 1737.7 182.9 1469.4 183.2 1378 190.7 1363.6 190.7 1348.7 186.7 1325 173.7 1306.4 1 1291.2 12.6 1110.7 17.4 1044.5 229.2 1047.5 231.2 987.6 394.8 988.3 381.2 1005.1 378.3 1092.6 449.5 1093.3 444.9 1169.3 444.7 1199.4 Z M 975.6 738.3 867.4 734.9 869.2 723.9 867.1 713.8 861.8 702.5 830.5 658.1 814.6 629.8 810.7 612 800.3 591 790.1 572.8 780 538.4 778.4 529.1 823.8 505.7 839.4 502.2 852.9 496 868.8 477.6 877.6 472.5 1043.2 485.4 1033.5 498.7 1017.4 518.4 1014.5 527.8 1015.8 557.3 1009.9 569.3 984.1 578.3 980.6 582.8 976.3 713.6 975.6 738.3 Z M 870.8 680.3 915.4 683.5 917.4 637.8 873.7 635.8 870.8 680.3 Z M 792.9 783.6 791.2 867.1 734.7 867.6 735 881.6 709.6 864.6 662.9 856.4 555.6 822.6 556.7 778 431.2 608.2 436.3 446.5 475.2 449.1 475.6 458.9 662.6 458.7 664 559.5 566.1 563.8 565.6 589.7 549 590.5 556.9 604.7 537.5 605.8 528.9 612.8 574.9 669.2 582.4 661.9 596.3 677.4 666.4 679.7 667.7 716.1 681.8 716.6 682.5 730 693.8 730.1 694.2 713.3 730.2 713.6 730.7 729.7 767.5 729.5 771.3 783.9 792.9 783.6 Z M 1518.1 227 1462.5 226.5 1461.9 203.5 1383.8 200.4 1296.3 197.2 1276.6 194.3 1277.3 210.6 1239.3 215.5 1219.6 215.1 1183.3 222.7 1184.4 146.4 1183.8 103.9 1187 69.9 1187.7 48.8 1185.3 1 1239 1.9 1268.4 45.4 1288.7 79.8 1320.1 79.2 1315.3 90 1309.5 108.5 1306.6 122.1 1307.5 126.1 1378.7 127 1383.9 75.8 1389.7 58.1 1525.1 63.7 1518.1 227 Z" data-holc_grade="C"/>
<path d="M 1903.5 1296.4 1901.9 1328.5 1902.1 1374.6 1898.2 1416.2 2122.1 1416.5 2123.2 1446.7 2116.4 1447.8 2116.9 1494.3 2067.6 1493.9 2066.9 1515.9 2016 1515.3 2016.1 1546.9 1924.3 1546.3 1924.7 1568.1 1921.9 1650.4 1992.3 1653.2 2042.2 1653.1 2062.9 1654.8 2061.2 1764.6 2023.1 1760.1 1854.5 1758.2 1853.2 1705 1795.2 1704.5 1792.9 1679 1765.3 1679 1764.5 1650.7 1727.4 1650.2 1727.2 1594 1730 1584.4 1725.6 1516.4 1671.7 1516.5 1649.1 1478.6 1645.7 1470 1631.7 1452.5 1580.8 1368.7 1630.3 1337.4 1652 1366.1 1669.7 1355.5 1862.3 1357.4 1863.6 1295.9 1903.5 1296.4 Z" data-holc_grade="C"/>
<path d="M 2651.7 1452.7 2601.4 1453.3 2523.3 1451 2481.2 1450.6 2444.3 1450.2 2331.6 1448.9 2335.3 1499.2 2338.3 1520.3 2370.5 1520.7 2376.6 1552.6 2375.8 1587.9 2375.8 1590.3 2376.7 1654.3 2371.3 1679.5 2169.8 1683.7 2168.3 1775.1 2146.4 1771.9 2128.2 1771.7 2066.3 1769.5 2061.2 1764.6 2062.9 1654.8 2064 1642.7 2155.9 1643 2160.5 1517.2 2160 1447.6 2201.1 1447.7 2276.3 1446.7 2299.1 1446.5 2305.4 1430.2 2316.3 1413.8 2329.2 1403.7 2343.4 1395.8 2357.6 1390.5 2378.7 1388.3 2390.8 1388.8 2400.7 1389.8 2410.3 1393 2416.5 1380.5 2419.2 1348.3 2483.8 1349 2689.6 1352.4 2763.8 1348 2821.7 1348.2 2821.9 1390.9 2823 1426.3 2820.9 1456.9 2766.8 1455.2 2691.9 1452.2 2651.7 1452.7 Z" data-holc_grade="C"/>
<path d="M 2444.3 1450.2 2449.4 1469.9 2455.2 1480.7 2468.4 1486.5 2480.9 1490.2 2481.2 1450.6 2523.3 1451 2601.4 1453.3 2651.7 1452.7 2652.2 1476.5 2652.8 1517.7 2650.7 1634.6 2677.2 1635.7 2901.5 1639.9 2903.2 1717.5 2901.9 1843 2903.6 1923.6 2901.7 1983.1 2901.8 2090.7 2807.9 2094.5 2654.2 2094.8 2476.9 2087.7 2476.3 1871 2481.1 1768.1 2479.7 1666.2 2481.9 1633.4 2482.1 1590 2375.8 1590.3 2375.8 1587.9 2376.6 1552.6 2370.5 1520.7 2338.3 1520.3 2335.3 1499.2 2331.6 1448.9 2444.3 1450.2 Z" data-holc_grade="C"/>
<path d="M 556.7 778 555.6 822.6 662.9 856.4 662 948.6 661.8 965.9 660.8 991.4 660.1 1009.9 655.5 1125.3 650.5 1177.7 650.7 1196.4 650.7 1198.6 444.7 1199.4 444.9 1169.3 449.5 1093.3 378.3 1092.6 381.2 1005.1 394.8 988.3 397.6 984.9 398.3 977.2 398.1 897 400.9 850.1 461.7 880 503.3 855.5 502 829.6 511.7 821.2 517.6 820.4 515.2 777.7 556.7 778 Z" data-holc_grade="C"/>
<path d="M 1019.6 1043.5 865.7 1045.5 865.6 1011.4 799.4 1010.9 660.1 1009.9 660.8 991.4 765.2 988.9 767.8 958.8 756.5 958.8 759.8 947.1 662 948.6 662.9 856.4 709.6 864.6 735 881.6 734.7 867.6 791.2 867.1 792.9 783.6 983.1 789.7 981.2 830.3 1059.6 832.9 1060.4 855.7 1049.2 855.5 1049.3 883.6 1060.4 883.8 1060.8 924.5 978.4 926 909.6 923.8 876.5 920.4 855.6 919.8 854.4 948.4 886.1 949.5 915.6 952.6 981.2 954.2 981.3 964.6 1015.7 964.3 1015.4 954.4 1058.9 952.5 1059.2 989.8 1022.5 990 1019.4 1009.5 1019.6 1043.5 Z M 929.7 880.6 958.6 881.8 958.4 854.9 930.8 854.7 929.7 880.6 Z M 926.3 1012.9 954.6 1013.6 955.1 1002.8 953.6 989.7 927.2 989.4 926.3 1012.9 Z" data-holc_grade="C"/>
<path d="M 1315.1 598 1315.2 614.3 1388.4 613.7 1388.1 599.5 1612.1 604.8 1612.5 655.5 1609.5 707.7 1658.2 710.6 1661 606.2 1738.9 606.2 1739.5 632.2 1766 631.6 1766.6 617.1 1786.2 614.5 1870 617 1869.1 637.6 1867.7 655 1971 657.6 1970.1 705.1 1973.5 818.7 1998.5 819 1995.3 885.1 1995.4 909.2 1943.7 952.5 1893.2 954.1 1893.1 979.6 1710.5 974.5 1713.2 817.6 1715.8 710.8 1690.3 711.4 1687.4 813.7 1683.9 1024.6 1486.9 1018.9 1488.5 981.8 1451.8 981.1 1451.5 993.5 1324.1 991.8 1324.7 966.4 1326.4 939.4 1344 938.3 1346.1 915.5 1309.8 915.3 1308.7 927.1 1245.5 925.4 1245.1 886.6 1258.3 886.6 1259.8 862.7 1231 862.9 1231 774.4 1232.4 729.1 1273 731.3 1275.5 661.2 1275.3 661.2 1276.6 622.9 1220.6 622.1 1221.4 596.2 1315.1 598 Z M 1448.5 811.5 1447.9 838.2 1489.9 837.5 1489.9 812.5 1448.5 811.5 Z M 1522.3 840.1 1521.7 864 1546.5 865.7 1548 841.9 1522.3 840.1 Z" data-holc_grade="C"/>
<path d="M 2083.3 260.2 2083.2 268 2082.7 329.8 2081.9 335.9 2035.9 339.4 1972.5 337.9 1938.6 341.6 1940.9 359.6 1928.6 389.6 1916.4 446.2 1909.8 467.1 1895.6 498.7 1872.4 553.6 1864.1 573.2 1869.2 579.4 1869 589 1800.2 587.4 1790.4 585.9 1794.1 554.4 1766.7 553.3 1769.7 475 1749.2 473.7 1737.7 472.3 1728.4 460.7 1725 448.3 1723.5 397.6 1724 283.7 1781 273.2 1787.9 253.1 1873 240.7 1894.7 238.2 1921.1 230.8 1929.3 261 2083.3 260.2 Z" data-holc_grade="C"/>
<path d="M 1872.4 553.6 1895.6 498.7 1909.8 467.1 1916.4 446.2 1928.6 389.6 1940.9 359.6 1938.6 341.6 1972.5 337.9 2035.9 339.4 2081.9 335.9 2082.7 329.8 2083.2 268 2290.2 269.7 2387.6 400.4 2389.6 464.2 2583.2 464.1 2580.8 499 2577 542.9 2566.8 617.7 2698.6 616.5 2699.9 719.5 2698.5 809.8 2670.6 825.3 2633.6 845.4 2618.4 855.3 2591 865 2560.7 867.4 2495.3 877.1 2465.7 878.9 2428.7 883 2409 890.9 2379.2 906.9 2354.1 922.6 2335.3 935.8 2323.6 940.7 2297.6 948.5 2281.4 949.6 2280.9 905.2 2303 900.7 2326.4 891.4 2346.1 880 2370.3 856.5 2383.7 833 2396.6 806.9 2412 778.3 2428.4 758 2454.4 732.4 2471.7 710.8 2491.1 688.4 2493.5 617.9 2386.4 614.5 2285.6 612.4 2284.1 682 2282 727.5 2279.8 819.9 2244.1 820.8 2211 818.6 2209.3 909.8 2175.4 908.9 2105.7 902.5 2107.2 818 2125.3 815.6 2127.5 761.8 2129.4 710.9 2177.7 712.6 2181.7 604.5 2184.5 554.5 1956.1 554.6 1933.6 553.3 1872.4 553.6 Z" data-holc_grade="C"/>
<path d="M 2701.5 1037 2490.4 1034.3 2382.6 1032.9 2383 1138.7 2352.9 1138.3 2302.3 1137.4 2301 1212.6 2300.8 1224.7 2300.5 1242.2 2213.7 1241.2 2214.7 1163.9 2215.8 1137.5 2174.4 1136.4 2174.1 1150.4 2190.1 1150.4 2187.7 1240.6 1970.2 1238.3 1973.4 1117.1 2073 1043.5 2067 1081.5 2131.4 1083.3 2136.3 1076.1 2138.1 1029.5 2074.3 1031.4 2108.6 1005.5 2174.6 950 2175.4 908.9 2209.3 909.8 2261.7 908.8 2280.9 905.2 2281.4 949.6 2297.6 948.5 2323.6 940.7 2335.3 935.8 2354.1 922.6 2379.2 906.9 2409 890.9 2428.7 883 2465.7 878.9 2495.3 877.1 2560.7 867.4 2591 865 2618.4 855.3 2633.6 845.4 2670.6 825.3 2698.5 809.8 2700.6 816.2 2701.5 1037 Z" data-holc_grade="C"/>
<path d="M 2905.4 1140 2808.3 1140.7 2808.4 1038.5 2910.9 1040.7 2912 1140.4 2905.4 1140 Z" data-holc_grade="C"/>
<path d="M 1580.8 1368.7 1631.7 1452.5 1645.7 1470 1649.1 1478.6 1671.7 1516.5 1725.6 1516.4 1730 1584.4 1727.2 1594 1727.4 1650.2 1697.3 1650.4 1686.5 1648.3 1510.2 1651.8 1511.5 1515.7 1563.4 1495.2 1511.3 1419.9 1533.4 1404 1483.7 1327.6 1470.3 1305.1 1519.3 1275.1 1580.8 1368.7 Z" data-holc_grade="C"/>
</g>
<g id="D">
<path d="M 538.7 1678.8 647.1 1590.1 647 1577.5 787.6 1509.2 785.6 1519.8 784.9 1540.3 782.8 1583.8 779.7 1596.6 762.8 1646.3 755.6 1679.9 755.1 1706.9 747.9 1743.5 738.6 1772.8 706.1 1841.6 683 1879.6 643.7 1938.9 631.7 1963.8 579 2031.7 563.7 2050.5 319.3 2046 326.7 2014.1 335.7 1981.9 356.1 1924.8 379.1 1867.2 401 1821.1 422.6 1787.2 439.1 1769.2 482.4 1725.4 538.7 1678.8 Z" data-holc_grade="D"/>
<path d="M 647 1577.5 647.1 1590.1 538.7 1678.8 542.7 1663.3 542.9 1633.5 433.1 1709.9 433.1 1510 451.3 1511.4 477.7 1515.8 485.3 1515.5 506.6 1510.3 509.9 1502.4 510 1483.2 513.1 1474 519.5 1428.7 532.1 1429.7 546.3 1421.8 546.9 1412.6 617 1410.2 617 1387.2 646.9 1386.7 646.4 1388.3 647.6 1481.4 647 1577.5 Z" data-holc_grade="D"/>
<path d="M 647 1577.5 647.6 1481.4 646.4 1388.3 646.9 1386.7 647.7 1384 650.7 1198.6 650.7 1196.4 738 1195.3 753.2 1195.5 763.5 1208.8 772 1218.9 793.5 1209.4 811.7 1193.9 821.3 1177.6 844.7 1138.3 856.2 1131.2 863.1 1122.8 865.7 1045.5 1019.6 1043.5 1019 1079.7 1005.2 1082.3 985.4 1087.6 938.7 1105 895.8 1131.4 869.1 1152.9 843.3 1182.4 832.4 1198.4 818.5 1228.4 816.9 1239 819 1245.3 795.7 1299.9 783.5 1328.6 780.9 1345.3 777.1 1381.7 776.7 1406.4 788.8 1443.5 791 1466.9 789.3 1481.4 787.6 1509.2 647 1577.5 Z" data-holc_grade="D"/>
<path d="M 1293.8 387.9 1314.1 386.8 1315.3 404.6 1353.8 404.3 1354.4 489.2 1376.8 488.9 1376.5 530.8 1377.9 557.9 1355.3 561.6 1316.9 563 1317.3 582 1255.5 579.4 1256.7 556.4 1223.3 555.7 1223.2 578.7 1152 578.3 1154 477.6 1190.3 478.3 1256.5 478.5 1257.5 424.3 1228.2 424.5 1229.9 386.6 1293.8 387.9 Z" data-holc_grade="D"/>
<path d="M 1183.3 222.7 1219.6 215.1 1239.3 215.5 1277.3 210.6 1276.6 194.3 1296.3 197.2 1383.8 200.4 1461.9 203.5 1462.5 226.5 1518.1 227 1569.7 233.8 1567.6 290.4 1644.8 301.9 1645.4 293.9 1650.9 280.1 1667.5 261.2 1685.8 239.5 1696.7 219.3 1699.9 195.3 1705.3 183.3 1724.7 169 1758.1 165.4 1779.2 172 1813.4 186.3 1834.9 189.5 1856.4 184.4 1878 171.9 1892.2 160.1 1880 159.2 1881.5 118.7 1897.9 111.4 1917.9 90.7 1946.6 62.1 1954.8 42.7 1956.9 15 2016.2 15.9 2032.8 52.4 2044.3 81.1 2076.9 82.2 2076.7 121.1 2079.8 147.3 2083.8 163 2083.3 260.2 1929.3 261 1921.1 230.8 1894.7 238.2 1873 240.7 1787.9 253.1 1781 273.2 1724 283.7 1723.5 397.6 1698.6 421.7 1674 452.6 1667.5 456.7 1630.3 506.7 1610 521 1599.3 527.2 1597.9 583.2 1485.9 579 1485.7 568.1 1459.9 568 1461.5 539.9 1439.4 539.1 1439.1 577 1378.9 576.1 1377.9 557.9 1376.5 530.8 1376.8 488.9 1354.4 489.2 1353.8 404.3 1368 401.9 1365.1 375.9 1354.8 364.6 1291.6 368.9 1293.8 387.9 1229.9 386.6 1228.2 424.5 1209.1 424.7 1208.8 461.7 1190.6 462 1190.3 478.3 1154 477.6 1152 578.3 1150.3 664.5 1079.7 662.9 1079.3 691.8 1155.9 692.7 1156.5 676.8 1215.6 676 1214.7 760.8 1186.1 760.2 1185.9 790.5 1202.8 790.8 1204.9 861.2 1176 861.3 1176 834.8 1177.2 795.8 1145.3 795.3 1147.1 744.2 975.6 738.3 976.3 713.6 980.6 582.8 984.1 578.3 1009.9 569.3 1015.8 557.3 1014.5 527.8 1017.4 518.4 1033.5 498.7 1043.2 485.4 1064.5 487.2 1069.2 417 1070.5 402.5 1075.1 395.1 1080.4 386 1079.4 376.9 1068.4 359.7 1068.5 340 1074.2 331.5 1084.6 324.3 1090.9 316 1119.6 283.8 1153.6 245.7 1175.7 224.3 1183.3 222.7 Z" data-holc_grade="D"/>
<path d="M 1970.2 1238.3 1960.6 1238.1 1864.7 1235.9 1863.7 1283.1 1903.2 1284.1 1903.5 1296.4 1863.6 1295.9 1862.3 1357.4 1669.7 1355.5 1652 1366.1 1630.3 1337.4 1580.8 1368.7 1519.3 1275.1 1565.4 1248.4 1581.2 1270.6 1712.4 1189.4 1695.9 1164.1 1741.6 1135.7 1751.1 1132.7 1761 1133.3 1763.6 1095.6 1854.3 1033.1 2019.4 1033.3 2074.3 1031.4 2138.1 1029.5 2136.3 1076.1 2131.4 1083.3 2067 1081.5 2073 1043.5 1973.4 1117.1 1970.2 1238.3 Z" data-holc_grade="D"/>
<path d="M 2476.9 2087.7 2364.4 2080.8 2204.7 2076.1 2010.3 2069 1799.9 2065.2 1528.2 2060.5 1528 2008.1 1526.4 2004.2 1504.6 1909.6 1472.5 1757.4 1508.3 1758.2 1510.2 1651.8 1686.5 1648.3 1697.3 1650.4 1727.4 1650.2 1764.5 1650.7 1765.3 1679 1792.9 1679 1795.2 1704.5 1853.2 1705 1854.5 1758.2 2023.1 1760.1 2061.2 1764.6 2066.3 1769.5 2128.2 1771.7 2146.4 1771.9 2168.3 1775.1 2169.8 1683.7 2371.3 1679.5 2376.7 1654.3 2375.8 1590.3 2482.1 1590 2481.9 1633.4 2479.7 1666.2 2481.1 1768.1 2476.3 1871 2476.9 2087.7 Z" data-holc_grade="D"/>
</g>
</svg>