<?xml version="1.0"?>
<svg xmlns="http://www.w3.org/2000/svg" version="1.2" baseProfile="tiny" width="3000" height="3221" viewBox="0 0 3000 3221" stroke-linecap="round" stroke-linejoin="round">
<g id="C">
<path d="M 2945.1 135 2199.1 202.4 2057.8 364.3 2018.9 336.2 1934.2 420.6 2001.3 480.4 2008.4 557.9 1792.9 769 1856.5 850 1658.7 1040 1701.1 1117.5 1711.7 1180.8 1902.4 1170.2 1948.4 1078.7 2280.4 666.9 2467.6 899.2 2644.2 835.8 2686.6 853.4 2628 992.4 2440.8 1436.2 2425.3 1472.9 2089.8 2215.6 1993.3 2218.8 1980 2126.4 2035.2 1968 1584.7 1794.3 1662 1567.7 1675.3 1490.7 1692.9 1391.7 1571.5 1323.5 1390.4 1523.7 1445.6 1587.5 1408.1 1822.9 1212.5 1767 1007.6 2020.4 855.6 1876.1 793.8 1847.9 762 1759.9 756.8 1659.6 691.4 1666.6 491.1 1719.9 464.3 1496 431.8 1284.9 345.7 982.2 294.2 881.2 518.9 833.4 613.5 782.7 638.7 759.4 830.4 947.8 1208.3 595.9 1332 712 1392 733.1 1483.8 602.9 1582.7 529 1614.5 483.3 1607.5 416.4 1335.5 170.1 1872.4 127.8 2059.5 68 2751.8 25.7 2999 1 2945.1 135 Z" data-holc_grade="C"/>
</g>
<g id="D">
<path d="M 638.7 759.4 986.2 437.6 1032.6 413.4 1176.6 286.2 1335.5 170.1 1607.5 416.4 1614.5 483.3 1582.7 529 1483.8 602.9 1392 733.1 1332 712 1208.3 595.9 830.4 947.8 638.7 759.4 Z" data-holc_grade="D"/>
<path d="M 1 887 294.2 881.2 345.7 982.2 431.8 1284.9 464.3 1496 491.1 1719.9 310.2 1731.1 19.2 1165.1 1 887 Z" data-holc_grade="D"/>
<path d="M 310.2 1731.1 491.1 1719.9 691.4 1666.6 756.8 1659.6 762 1759.9 793.8 1847.9 855.6 1876.1 1007.6 2020.4 1212.5 1767 1408.1 1822.9 1445.6 1587.5 1390.4 1523.7 1571.5 1323.5 1692.9 1391.7 1675.3 1490.7 1662 1567.7 1584.7 1794.3 2035.2 1968 1980 2126.4 1993.3 2218.8 1635.5 2163.9 1531.8 2174.9 1072.5 2108.8 1074.7 2172.6 1015 2201.2 973.1 2311.2 807.5 2247.4 688.2 2229.8 641.9 2287 675 2370.6 745.6 2467.4 745.6 2526.8 703.6 2597.2 566.7 2645.6 522.5 2716 692.6 2828.3 352.4 3219.9 111.7 3057 102.9 2905.2 383.5 2515.8 334.9 2458.6 467.4 2251.8 474.1 2150.6 96.5 2126.3 89.9 1783.1 215.8 1778.7 226.8 1723.7 310.2 1731.1 Z" data-holc_grade="D"/>
</g>
</svg>