<?xml version="1.0"?>
<svg xmlns="http://www.w3.org/2000/svg" version="1.2" baseProfile="tiny" width="3000" height="5446" viewBox="0 0 3000 5446" stroke-linecap="round" stroke-linejoin="round">
<g id="A">
<path d="M 633.2 3445.8 881.4 3293 958.7 3243.4 996.1 3222.3 1013.6 3237.2 1027.3 3269.5 1026 3295.6 1011.1 3299.3 969.9 3295.6 947.5 3365.1 951.2 3394.9 948.7 3424.8 932.5 3450.8 898.8 3467 867.6 3476.9 830.2 3496.8 796.5 3521.6 765.3 3529.1 721.7 3542.7 688 3550.2 669.3 3550.1 635.6 3563.8 633.2 3445.8 Z" data-holc_grade="A"/>
<path d="M 2035.8 2851.4 2013.4 2878.7 2007.5 2878.1 1976.6 2875 1952.9 2871.9 1945.4 2855.1 1948.6 2826.5 1929.2 2789.9 1923.6 2758.9 1885 2700.5 1962.9 2699.4 1978.4 2699.2 1986 2828.4 2002.2 2828.4 2030.2 2839.6 2035.8 2851.4 Z" data-holc_grade="A"/>
</g>
<g id="B">
<path d="M 1421.4 1592 1232.5 1593.1 1231.3 1525.2 1423.8 1521.7 1421.4 1592 Z" data-holc_grade="B"/>
<path d="M 1353.7 1963.4 1397.2 1964.6 1392.2 1977 1401 1999.4 1399.7 2013.1 1277.6 2014.3 1287.5 2225.3 1312.5 2225.3 1326.2 2212.9 1348.6 2201.8 1367.3 2208 1387.2 2219.1 1430.8 2222.9 1427.1 2348.3 1342.4 2347 1311.2 2349.5 1281.3 2363.2 1260.1 2332.1 1230.2 2352 1246.4 2390.5 1175.4 2432.7 1157.9 2412.8 1136.7 2422.8 1096.8 2416.5 1059.5 2396.7 1065.6 2672.3 1083.1 2677.3 1041.9 2750.6 1061.9 2754.3 1085.5 2809 1093 2830.1 942.2 2918.2 925.9 2918.2 928.4 2894.6 908.5 2851.2 887.3 2840 867.4 2806.4 877.4 2785.3 861.2 2714.5 857.5 2695.9 840 2692.1 823.8 2708.3 813.8 2748 803.8 2769.1 792.6 2764.2 740.3 2744.3 711.6 2716.9 811.4 2582.8 773.6 2568.1 814 2483.1 878.3 2512.2 872.8 2525.7 901.7 2537.6 942.6 2480 905.2 2463.1 734.8 2388.5 773.7 2295.4 764.7 2293.9 764.7 2273 731.8 2253.6 705.7 2223.8 673.5 2207.4 665.3 2183.6 658.6 2176.9 652.6 2124.1 763.2 2121.9 780.2 2155.1 789.1 2222.7 843 2209.8 898.8 2204.9 894.8 2182 835 2179 833.1 2107.5 811.1 2105.5 781.2 2110.7 780.4 2032.5 758 2028.7 755.8 1977.4 1055.6 1973.7 1052.7 1891.5 1144.3 1893.8 1143.1 1794.5 1186.7 1794.5 1192.9 1897.6 1267.6 1902.5 1270.1 1960.9 1353.7 1963.4 Z M 887.9 2092.6 887.9 2075.7 882.9 2042 866 2043.9 860 2076.7 869.9 2098.6 887.9 2092.6 Z M 1148 2338 1164.9 2331.1 1170.9 2310.2 1123.1 2314.2 1121.1 2344 1148 2338 Z" data-holc_grade="B"/>
<path d="M 825.6 3026.8 784.4 3026.8 637.9 2880.6 689.5 2789.7 720.9 2807.6 741.9 2827.8 848.8 2883 833.8 2923.9 823.3 2981.3 825.6 3026.8 Z" data-holc_grade="B"/>
<path d="M 1123.1 3029.9 1237.2 3030.7 1211.2 3087.4 1163.3 3122.1 1135.4 3137 1148.4 3158.9 1156.4 3185.7 1158.3 3206.6 1146.4 3233.4 1163.3 3263.3 1172.3 3291.1 1169.3 3300 1132.4 3314.9 1118.4 3314.9 1087.5 3283.1 1066.6 3281.1 1051.6 3269.2 1027.3 3269.5 1013.6 3237.2 996.1 3222.3 958.7 3243.4 881.4 3293 827.8 3223.5 989.9 3161.4 1095.9 3114.2 1115.9 3100.6 1099.7 3058.3 1086.6 3029.7 1123.1 3029.9 Z" data-holc_grade="B"/>
<path d="M 1957.8 2385.3 1918.9 2359.5 1896 2338.6 1875 2337.7 1837.1 2315.8 1875 2300.9 1921.9 2298.9 1961.8 2295.9 1957.8 2385.3 Z" data-holc_grade="B"/>
<path d="M 1749.4 2603.3 1825.1 2721.6 1847 2765.7 1866.3 2784.3 1878.1 2793.6 1876.3 2829.7 1914.3 2825.9 1921.8 2860.1 1945.4 2855.1 1952.9 2871.9 1976.6 2875 2007.5 2878.1 2013.4 2878.7 2009 2906 1989.1 2921.6 1977.3 2937.7 1983.3 2956.3 1947.4 2960.8 1880 2922.1 1843.4 2893.8 1802.3 2862.5 1708 2789.5 1785.9 2734 1728.5 2644 1613.9 2719.2 1595.8 2687.5 1661.8 2654 1678.7 2614.8 1735.4 2581.3 1749.4 2603.3 Z" data-holc_grade="B"/>
<path d="M 2073.5 2493.1 2222 2494.2 2226.4 2530.9 2243.9 2551.4 2252.6 2574.9 2257.6 2695.4 2252.7 2729.6 2233.4 2759.4 2167.9 2779.3 2155.4 2744.5 2144.9 2745.1 2123.1 2801.6 2108.7 2803.5 2085.7 2807.9 2067.6 2824.6 2042.1 2852 2035.8 2851.4 2030.2 2839.6 2002.2 2828.4 1986 2828.4 1978.4 2699.2 1962.9 2699.4 1961.6 2653.9 1959.1 2639.6 1960.3 2624.7 1971.6 2614.8 1977.2 2596.8 2042 2595.5 2043.2 2583.1 2046.3 2565.7 2039.5 2526.6 2041.9 2508.6 2050.9 2502.4 2064.4 2493.1 2073.5 2493.1 Z" data-holc_grade="B"/>
</g>
<g id="C">
<path d="M 1423.8 1521.7 1231.3 1525.2 1232.5 1593.1 1231.3 1593.1 1234.9 1679.3 1045.2 1680.9 1036.4 1626.5 950.3 1625.3 950.3 1544.2 922.8 1512.1 903.7 1538.3 903.6 1582.3 835.5 1587.1 833.1 1483.4 1038.8 1477.5 1031.7 1376.3 1190.7 1372.7 1202.6 1377.5 1197.9 1304.8 1128.5 1310.8 1129.7 1263.1 1089.1 1263.1 1085.5 1250 1028.1 1245.2 1029.3 1065.3 1151.3 1066.6 1150.1 1107.1 1415.5 1109.5 1423.8 1521.7 Z M 1258.8 1370.3 1258.8 1468 1299.5 1464.5 1300.7 1370.4 1258.8 1370.3 Z" data-holc_grade="C"/>
<path d="M 2057.5 2268.1 2073.5 2493.1 2064.4 2493.1 2050.9 2502.4 1994.7 2500.5 1979.7 2453.9 1998.7 2447.9 2002.7 2401.2 1962.8 2397.2 1957.8 2385.3 1961.8 2295.9 1921.9 2298.9 1875 2300.9 1837.1 2315.8 1796.3 2311.8 1784.3 2303.9 1756.4 2304.9 1704.5 2241.3 1701.6 2227.4 1738.4 2200.6 1762.4 2171.8 1847.1 2177.7 1856.1 2148.9 1846.1 2085.4 1862 2046.6 1886.9 1992 1889.9 1949.3 1896.9 1916.5 1913.8 1876.8 2038.4 1872.8 2047.5 2264.1 2057.5 2268.1 Z" data-holc_grade="C"/>
<path d="M 2262.8 2251.1 2264.4 2284.4 2285.9 2726 2279 2746.8 2227.1 2783.6 2176.3 2802.5 2167.9 2779.3 2233.4 2759.4 2252.7 2729.6 2257.6 2695.4 2252.6 2574.9 2243.9 2551.4 2226.4 2530.9 2222 2494.2 2073.5 2493.1 2057.5 2268.1 2075.4 2266.1 2065.3 1969.1 2117.2 1972.1 2117.2 2017.8 2163 2021.7 2161.1 2063.4 2209.9 2067.4 2212.9 2156.8 2197 2149.8 2196 2236.2 2202 2243.2 2262.8 2251.1 Z" data-holc_grade="C"/>
<path d="M 1749.4 2603.3 1735.4 2581.3 1678.7 2614.8 1673.1 2591.2 1790.2 2346.6 1805.1 2359 1823.2 2373.9 1858.7 2380.7 1875.5 2385.1 1878.7 2404.3 1878 2425.4 1891.1 2444 1908.6 2450.9 1906.1 2470.1 1904.9 2494.3 1904.2 2498.7 1799.6 2562 1780.2 2534.1 1750.9 2557.1 1764.7 2586.3 1749.4 2603.3 Z" data-holc_grade="C"/>
<path d="M 1708 2789.5 1639.1 2842.8 1580.8 2742.8 1613.9 2719.2 1728.5 2644 1785.9 2734 1708 2789.5 Z" data-holc_grade="C"/>
<path d="M 1469.9 3191.6 1466.9 3259.2 1423.1 3286.3 1377.6 3154.6 1458.6 3132.9 1469.9 3191.6 Z" data-holc_grade="C"/>
<path d="M 1730.3 3754.5 1683.3 3755.3 1685.4 3697.6 1587.6 3697.6 1582.2 3757.2 1472.4 3763.4 1352.7 3763.4 1352.1 3736.3 1354.1 3665.7 1352.1 3563.4 1344.2 3559.4 1260.4 3556.4 1260.4 3487.8 1313.2 3485.8 1317.2 3446.1 1401 3442.1 1404 3311.9 1446.9 3309.9 1452.9 3716.5 1495.8 3712.5 1495.8 3448.1 1575.6 3446.1 1570.6 3414.3 1492.8 3408.3 1490.8 3251.3 1466.9 3259.2 1469.9 3191.6 1509.8 3173.7 1578.6 3268.2 1583.6 3337.7 1641.4 3334.7 1680.3 3348.7 1687.3 3490.8 1721.2 3488.8 1730.3 3754.5 Z" data-holc_grade="C"/>
<path d="M 2060.1 3538.1 2035.1 3538.4 2030.1 3519.5 2040.7 3497.8 2079.4 3471.7 2108 3444.9 2119.9 3410.1 2109.3 3361.7 2096.2 3335 2074.3 3319.5 2037.5 3307.7 2007.6 3316.4 1984.6 3327.6 1968.3 3305.2 1952.1 3275.4 1940.9 3256.8 1940.9 3221.3 1958.3 3210.8 1971.4 3231.9 2008.2 3254.9 2044.4 3250.5 2077.4 3231.2 2098.6 3203.3 2115.4 3198.9 2119.2 3197.7 2127.9 3201.4 2139.8 3230 2146.6 3254.2 2152.2 3272.2 2138.5 3327.5 2138.5 3344.3 2146 3367.9 2152.3 3395.2 2155.4 3413.9 2154.2 3436.2 2137.3 3473.5 2119.9 3492.8 2108.7 3499.6 2083.1 3507.1 2063.8 3514.5 2060.1 3538.1 Z" data-holc_grade="C"/>
<path d="M 2046.3 3693 1892.7 3539.7 2035.1 3538.4 2060.1 3538.1 2315.4 3535.8 2308 3668.7 2150.9 3677.5 2133.4 3691.2 2046.3 3693 Z M 2255.6 3589.2 2157.1 3583.1 2152.1 3614.1 2256.8 3617.8 2255.6 3589.2 Z" data-holc_grade="C"/>
<path d="M 2640.9 5445.2 2627 5237.5 2659.5 5233.7 2651.8 5014.8 2765.4 5014.8 2759.3 5229.9 2781.8 5253.5 2879.1 5163.9 2999 5263.3 2818.1 5428.9 2640.9 5445.2 Z" data-holc_grade="C"/>
<path d="M 1052.7 1891.5 1055.6 1973.7 755.8 1977.4 758 2028.7 780.4 2032.5 781.2 2110.7 763.2 2121.9 652.6 2124.1 658.6 2176.9 646.7 2164.2 630.2 2152.3 623.6 1736.7 631.1 1681.6 1034 1681 1045.2 1681 1052.7 1891.5 Z" data-holc_grade="C"/>
<path d="M 1428.5 1882 1350.8 1886 1267.6 1902.5 1192.9 1897.6 1186.7 1794.5 1239.6 1794.5 1234.9 1679.3 1231.3 1593.1 1232.5 1593.1 1421.4 1592 1428.5 1882 Z" data-holc_grade="C"/>
<path d="M 1367.3 2208 1348.6 2201.8 1326.2 2212.9 1312.5 2225.3 1287.5 2225.3 1277.6 2014.3 1399.7 2013.1 1401 1999.4 1392.2 1977 1397.2 1964.6 1353.7 1963.4 1350.8 1886 1428.5 1882 1435.5 2199.9 1406.6 2199.9 1367.3 2208 Z" data-holc_grade="C"/>
<path d="M 905.2 2463.1 878.3 2512.2 814 2483.1 773.6 2568.1 725.7 2546.4 603.1 2499.4 425.9 2433.8 618.8 2168 630.2 2152.3 646.7 2164.2 658.6 2176.9 665.3 2183.6 673.5 2207.4 705.7 2223.8 731.8 2253.6 764.7 2273 764.7 2293.9 773.7 2295.4 734.8 2388.5 905.2 2463.1 Z M 523.2 2401.8 557.6 2413.7 568.8 2386.2 548.6 2368.3 523.2 2401.8 Z" data-holc_grade="C"/>
<path d="M 1083.1 2677.3 1065.6 2672.3 1059.5 2396.7 1096.8 2416.5 1136.7 2422.8 1157.9 2412.8 1175.4 2432.7 1246.4 2390.5 1412.6 2622.8 1249.9 2709.1 1207.5 2732.7 1142.7 2774.9 1083.1 2677.3 Z M 1287.3 2599.8 1270.5 2576.8 1228.1 2599.2 1242.5 2627.1 1287.3 2599.8 Z" data-holc_grade="C"/>
<path d="M 1427.1 2348.3 1436.4 2548.5 1418.5 2557.5 1281.3 2363.2 1311.2 2349.5 1342.4 2347 1427.1 2348.3 Z" data-holc_grade="C"/>
<path d="M 825.6 3026.8 969.2 3026.8 973.7 2967.2 1008.8 2966.5 1051.5 2973.2 1058.9 3030.6 825.5 3126.7 447.8 3139.1 440.3 3157.8 390.1 3165.2 391 3019.1 504.7 3016.9 524.2 2916.3 596 2963.3 608.7 2958.1 629.6 2996.1 644.6 2958.9 614.7 2931.3 637.9 2880.6 784.4 3026.8 825.6 3026.8 Z" data-holc_grade="C"/>
<path d="M 520 3368.4 530.6 3186.6 807.9 3175 857.8 3156.4 908.9 3134 1021.1 3091.8 1067.2 3073.2 1099.7 3058.3 1115.9 3100.6 1095.9 3114.2 989.9 3161.4 827.8 3223.5 881.4 3293 633.2 3445.8 632 3361.3 520 3368.4 Z" data-holc_grade="C"/>
</g>
<g id="D">
<path d="M 1654.2 1058.5 1481 1060.1 1460.1 1060.3 1151.3 1066.6 1029.3 1065.3 1030.5 973.4 1448.9 968.5 1448.9 896.6 1039.2 896.5 1031.8 773.7 1343 776.2 1341.8 675.7 1243.4 668.3 1242.2 645.9 1432.7 644.7 1431.4 442.5 1249.7 442.5 1242.3 235.4 1324.4 224.2 1331.9 7.2 1467.6 1 1473.8 117.6 1512.4 115.1 1513.6 230.4 1446.4 230.4 1452.6 318.5 1616.9 312.3 1621.9 437.6 1724 432.6 1725.3 641 1828.6 641 1832.3 756.3 1724 757.6 1729 851.9 1842.3 851.9 1847.3 1056.6 1654.2 1058.5 Z" data-holc_grade="D"/>
<path d="M 1652.6 1358.1 1651.7 1631.2 1599.4 1628.7 1588.2 1677.1 1533.4 1680.8 1529.6 1884.2 1492.1 1887 1483.5 1366.8 1652.6 1358.1 Z M 1527.1 1441.3 1525.9 1456.2 1567 1447.5 1608.1 1428.9 1588.2 1406.5 1564.5 1422.6 1527.1 1441.3 Z M 1501 2420.7 1492.7 1920.5 1529 1916.4 1526.1 2071.9 1525.3 2112.7 1519.7 2418.3 1501 2420.7 Z" data-holc_grade="D"/>
<path d="M 1526.1 2071.9 1529 1916.4 1529.6 1884.2 1533.4 1680.8 1588.2 1677.1 1599.4 1628.7 1651.7 1631.2 1652.6 1358.1 1652.9 1266.3 1654.2 1058.5 1847.3 1056.6 1803.6 1155.8 1733.9 1163.3 1731.4 1255.1 1757.5 1292.3 1765 1320.9 1768.8 1363.1 1778.7 1365.5 1797.4 1366.8 1799.9 1473.5 1771.3 1540.5 1741.4 1620 1722.7 1626.2 1715.2 1680.8 1643 1684.5 1651.7 1862 1595.7 1864.5 1596.7 2071.8 1526.1 2071.9 Z M 1501 2420.7 1519.7 2418.3 1525.3 2112.7 1596.9 2109.1 1596.9 2393.4 1696.6 2313.9 1729 2354.9 1705.4 2372.3 1676.7 2394.7 1659.2 2388.5 1603.2 2510.2 1590.7 2525.1 1563.3 2522.6 1547.1 2546.2 1547.1 2580.9 1498.5 2584.7 1501 2420.7 Z" data-holc_grade="D"/>
<path d="M 1913.8 1876.8 1896.9 1916.5 1889.9 1949.3 1886.9 1992 1862 2046.6 1846.1 2085.4 1856.1 2148.9 1847.1 2177.7 1762.4 2171.8 1748.5 2151.5 1740.5 2134.6 1686.7 2103.8 1789.3 1590.4 1853 1588.4 1855.1 1656.9 1871 1659.8 1907.9 1656.9 1918.8 1669.8 1949.7 1699.5 1968.7 1710.5 1941.8 1785 1923.9 1811.8 1912.9 1845.5 1913.8 1876.8 Z" data-holc_grade="D"/>
<path d="M 2470 1768.9 2263.7 1773.9 2263.8 1781.6 2158.1 1782.4 2157.3 1762.3 2149.1 1752.6 2131.1 1719.1 2113.9 1693 2107.9 1671.5 2123.6 1675.2 2147.5 1678.9 2170 1677.4 2184.9 1651.3 2195.4 1633.4 2211.8 1626 2225.3 1637.1 2251.4 1638.6 2258.9 1606.6 2251.4 1502.3 2362.7 1499.3 2368 1591.7 2344.8 1593.2 2300 1605.8 2279.1 1629.7 2264.1 1660.2 2282.8 1690 2320.2 1701.9 2356.1 1678 2383 1661.7 2416.6 1669.1 2440.5 1654.2 2462.2 1632.6 2495.8 1622.1 2530.2 1622.8 2563.8 1623.6 2593 1625.8 2635.6 1593.7 2687.9 1560.9 2714 1555 2750.6 1556.4 2766.3 1570.6 2770.9 1604.1 2780.6 1627.2 2802.3 1659.2 2797.9 1764.9 2470 1768.9 Z" data-holc_grade="D"/>
<path d="M 2264.4 2284.4 2262.8 2251.1 2265.8 2152.3 2356.6 2143.3 2265.8 1995.4 2263.8 1781.6 2263.7 1773.9 2470 1768.9 2470.1 1976.4 2577.7 1970.4 2576.9 2163.1 2675.6 2162 2675.4 1960.4 2891.7 1956.3 2892.8 2030.8 2686.4 2024.9 2686.5 2110.4 2890.8 2110.2 2888.9 2175.8 2799.2 2181.8 2798.2 2270.2 2688.6 2272.3 2691.7 2386.5 2478.3 2398.6 2479.2 2283.3 2264.4 2284.4 Z M 2519.1 2160.1 2519 2132.3 2480.2 2132.3 2479.2 2165.1 2519.1 2160.1 Z" data-holc_grade="D"/>
<path d="M 1668.4 3232.2 1675.1 3209.8 1690.8 3180.7 1702.8 3154.6 1702.8 3131.5 1684.9 3116.6 1672.9 3111.4 1654.2 3117.4 1635.5 3124.1 1617.5 3121.9 1594.3 3135.3 1579.4 3145.7 1574.9 3130.1 1546.5 3116.6 1519.5 3110.7 1476.9 3091.3 1481.4 3039.1 1453.7 2987.7 1570.4 2911.7 1660.9 3009.3 1750.7 3109.2 1749.9 3165.1 1775.4 3165.1 1763.4 3302.2 1678.9 3302.2 1668.4 3232.2 Z" data-holc_grade="D"/>
<path d="M 1668.4 3232.2 1657.9 3229.2 1614.5 3223.2 1594.3 3196.4 1582.4 3166.6 1579.4 3145.7 1594.3 3135.3 1617.5 3121.9 1635.5 3124.1 1654.2 3117.4 1672.9 3111.4 1684.9 3116.6 1702.8 3131.5 1702.8 3154.6 1690.8 3180.7 1675.1 3209.8 1668.4 3232.2 Z" data-holc_grade="D"/>
<path d="M 1802.3 2862.5 1691.6 2943.7 1669.9 2921.4 1711.8 2887.1 1686.3 2845.3 1664.6 2856.5 1675.9 2878.1 1658.7 2899.8 1620.5 2857.3 1639.1 2842.8 1708 2789.5 1802.3 2862.5 Z" data-holc_grade="D"/>
<path d="M 1892.9 3475.9 1861.5 3479.6 1843.5 3470.7 1833 3384.2 1817.3 3282.1 1818 3216.5 1828.5 3156.1 1836 3158.4 1853.2 3168 1863.6 3174.7 1873.4 3184.4 1875.6 3197.9 1872.6 3237.4 1866.7 3253 1877.9 3264.2 1876.4 3320.1 1889.1 3323.1 1889.1 3383.5 1893.6 3410.3 1895.9 3460.2 1892.9 3475.9 Z M 1983.3 2956.3 1993.8 3042.8 2087.3 3036.1 2088.7 2954.1 2292.2 2947.3 2295.3 3018.3 2299.7 3117.2 2179.3 3116.5 2171.1 3064.3 2135.9 3062.1 2137.4 3118.8 2090.3 3119.5 2090.3 3144.9 2090.3 3159.8 2082.8 3169.5 2068.6 3175.4 2059.6 3194.1 2043.9 3211.2 2026.7 3209 2014 3199.3 2008 3189.6 1976.6 3185.9 1951.9 3185.9 1942.2 3176.2 1938.4 3163.5 1915.3 3158.3 1905.5 3151.6 1902.5 3141.2 1889.1 3132.3 1862.1 3126.3 1834.5 3079.3 1811.3 3095 1747.7 3016.8 1764.1 2995.1 1747.7 2975.8 1725.2 2990.7 1691.6 2943.7 1802.3 2862.5 1843.4 2893.8 1880 2922.1 1947.4 2960.8 1983.3 2956.3 Z" data-holc_grade="D"/>
<path d="M 1352.7 3763.4 1472.4 3763.4 1477.4 3862.8 1478.6 3970.9 1481.1 4181 1363.9 4187.2 1356.4 3953.5 1352.7 3763.4 Z" data-holc_grade="D"/>
<path d="M 209.5 1265.8 529.5 1271 528.2 1383.9 634.1 1392.7 624.1 1488.2 216.8 1481.8 209.5 1265.8 Z" data-holc_grade="D"/>
<path d="M 1889 3865.2 1907 3963.2 1478.6 3970.9 1477.4 3862.8 1584.7 3860.3 1582.2 3757.2 1683.3 3755.3 1730.3 3754.5 1857.8 3752.2 1885.2 3737.2 1861.5 3558.3 1946.3 3619.2 2013.7 3693.7 2046.3 3693 2133.4 3691.2 2150.9 3677.5 2308 3668.7 2315.4 3535.8 2381.5 3535.8 2387.8 3744.5 2316.8 3744.5 2318 3822.8 2233.2 3815.4 2235.7 3748.3 2159.6 3745.9 2164.6 3829.1 2103.5 3750.8 1896.5 3753.4 1874 3757.1 1889 3865.2 Z" data-holc_grade="D"/>
<path d="M 2295.3 3018.3 2292.2 2947.3 2483 2941.9 2467.9 2700.9 2693.4 2557.9 2698.5 2687.1 2530.3 2699.6 2539.1 2933.1 2608.9 2936.8 2610.2 2989 2701.2 2987.7 2722.8 3519.4 2618 3526.9 2621.8 3549.3 2643 3561.7 2650.5 3580.3 2630.6 3602.7 2644.3 3617.6 2659.3 3631.3 2649.3 3644.9 2648.1 3661.1 2656.8 3681 2658.1 3703.3 2645.6 3715.8 2643.1 3729.4 2625.6 3729.5 2577 3736.9 2579.6 3822.7 2442.4 3827.7 2441.1 3735.8 2503.4 3732 2495.8 3539.4 2408.5 3535.7 2409.7 3334.5 2399.7 3308.4 2397.2 3288.5 2419.6 3300.9 2435.8 3283.5 2454.5 3276 2469.5 3282.2 2475.8 3299.6 2485.7 3312 2508.2 3324.5 2515.7 3338.1 2515.7 3356.8 2500.7 3369.2 2482 3366.7 2485.8 3395.3 2488.3 3406.5 2504.5 3416.4 2500.8 3442.5 2524.5 3433.8 2527 3472.3 2543.2 3481 2539.2 3118.2 2489.9 3118.2 2488.3 3012.4 2295.3 3018.3 Z" data-holc_grade="D"/>
<path d="M 1907 3963.2 1889 3865.2 2170.9 3862.7 2316.9 4055.2 2138.5 4064 2138.5 4044.1 2149.7 4040.4 2149.7 3962.1 2121 3954.7 2137.4 4361.1 2208.5 4364.8 2219.8 4507.8 2133.7 4507.8 2189.9 4574.9 1982.7 4589.9 1971.5 4512.8 1884.2 4531.5 1881.6 4376.1 1694.5 4379.9 1687 4151.1 1799.2 4156.1 1800.5 4005.7 1912.7 3994.5 1907 3963.2 Z" data-holc_grade="D"/>
<path d="M 2105.1 4808.7 2238.6 4799.9 2218.6 4657 2291 4653.2 2284.7 4558.7 2448.1 4556.1 2465.7 4695.4 2358.4 4811.1 2264.8 4807.4 2237.4 4823.6 2244.9 4944.2 2105.1 4945.5 2105.1 4808.7 Z" data-holc_grade="D"/>
<path d="M 630.2 2152.3 618.8 2168 557.6 2116.6 439.4 2259.5 349 2218.5 497.1 2038.3 497.3 1738.1 623.6 1736.7 630.2 2152.3 Z" data-holc_grade="D"/>
<path d="M 425.9 2433.8 603.1 2499.4 725.7 2546.4 673.3 2632.1 654.6 2644 612.7 2704.4 603 2711.8 579.8 2714 569.4 2694.6 555.9 2667.1 549.2 2611.2 530.5 2592.5 504.4 2587.3 435.6 2591.7 381.7 2581.3 361.5 2562.6 351.8 2545.5 425.9 2433.8 Z" data-holc_grade="D"/>
<path d="M 530.6 3186.6 520 3368.4 449.7 3375.9 454.1 3545.8 415.2 3572.6 308.9 3578.5 309.1 3369.8 177.4 3369.7 3.8 3369.6 1 3163.8 98.3 3159.4 104.3 3025.3 207.6 3020.9 220.9 3158 333.1 3168.6 337.6 3247.6 530.6 3186.6 Z" data-holc_grade="D"/>
<path d="M 1289.2 2769.6 1238.4 2803.1 1173.3 2847.1 1129.2 2870.9 1114.2 2838.1 1272 2740.5 1289.2 2769.6 Z" data-holc_grade="D"/>
<path d="M 1302.7 2722.6 1425.4 2657.8 1452.3 2696.6 1346.8 2759.2 1320.7 2743.5 1302.7 2722.6 Z" data-holc_grade="D"/>
<path d="M 1237.2 3030.7 1123.1 3029.9 1169.5 2998.4 1218.2 2964.1 1238.4 2938 1256.3 2926.8 1264.5 2912.7 1266 2895.5 1294.5 2876.9 1238.4 2803.1 1289.2 2769.6 1323.6 2777.8 1339.4 2780.8 1337.1 2800.9 1372.3 2826.2 1382 2852.3 1366.3 2884.4 1359.5 2911.9 1376.7 2928.3 1506.1 2854.6 1500.2 2838.2 1503.9 2824 1515.1 2819.5 1532.3 2853.1 1540.5 2867.2 1351.3 2973 1373 2993.2 1315.4 3031.2 1237.2 3030.7 Z" data-holc_grade="D"/>
<path d="M 1481 1060.1 1654.2 1058.5 1652.9 1266.3 1487.3 1263.8 1486 1215.4 1519.7 1206.7 1522.1 1174.5 1484.8 1179.4 1481 1060.1 Z" data-holc_grade="D"/>
</g>
</svg>