<?xml version="1.0"?>
<svg xmlns="http://www.w3.org/2000/svg" version="1.2" baseProfile="tiny" width="3000" height="2360" viewBox="0 0 3000 2360" stroke-linecap="round" stroke-linejoin="round">
<g id="A">
<path d="M 882.9 602.5 941.3 671.3 928.7 687 871.9 655.1 849 639.6 829.6 620.6 823.9 612.6 846 605.8 867.3 586.9 882.9 602.5 Z" data-holc_grade="A"/>
<path d="M 763.8 1049.5 764.2 1102.4 762.9 1102.3 761 1102.2 755.8 1102 735.2 1102 711.6 1103.1 687.5 1102.7 666.6 1102.7 651.3 1106.9 649 1221.5 544.1 1220.3 549.1 1102 549.2 1101.1 591.1 1100.4 611.7 1099.3 610.2 1064 606 1035.1 615.2 979.7 622.2 980.7 632 982 640.7 961.5 643 946.4 644.6 924.7 645.7 902 649.6 875.4 664.1 862.9 672.1 852.3 683.1 850.4 694.6 848.5 717.8 850 730.8 855 746.6 857.3 754.4 858.4 775.9 863.9 777.3 878.5 780.3 885.4 786 896.4 793.6 907.4 799 915.7 804.7 924.5 805.1 935.8 803.5 949.5 796.7 952.5 784.8 951.4 775.3 948.3 772.6 952.1 769.2 988.9 764.4 1029.7 764.2 1031.4 764.3 1033.2 763.8 1049.5 Z" data-holc_grade="A"/>
<path d="M 484 1102.5 454.2 1126.8 455.4 1186 423.8 1188.4 407.1 1187.2 386.9 1187.2 380.3 1175.3 356.5 1191.3 353.5 1204.9 338 1206.1 314.2 1204.3 295.7 1209 275.4 1207.2 256.4 1204.9 249 1205 233.3 1205.4 233.1 1205.4 231.6 1205.4 230.8 1205.4 189.1 1203.6 188 1088 301.7 1094 304.7 1167.5 323.1 1176.5 329.7 1168.8 336.2 1158.1 342.2 1159.9 351.1 1168.2 358.3 1172.3 362.5 1160.5 371.4 1161.1 382.1 1162.3 386.9 1157.5 392.2 1157.5 392.3 1149.2 396.4 1138 407.7 1138.6 420.3 1139.2 416.7 1061.5 533 940.7 538.3 943.6 625.2 889.9 612.6 974.7 609 974.7 606.7 978.7 600 980.1 599.1 988.6 596.6 997.9 591.3 1006.8 572 1020.9 556.9 1033.1 546 1053.2 545.3 1070.8 506.7 1080.5 496.8 1073.9 486.5 1074.5 483.8 1077.8 482.3 1093.3 484 1102.5 Z" data-holc_grade="A"/>
<path d="M 182.6 1266.9 179.3 1267.1 179.2 1361.5 182.1 1360 177.6 1570.3 160.5 1578.8 151.2 1617.2 141.2 1615.6 119.6 1614.8 102.6 1607.9 95.7 1595.6 49.4 1596.3 47.9 1561.8 20.9 1557.9 21 1441.2 1 1419.7 4.2 1266.9 14.3 1265.4 30.5 1257.8 45.9 1258.5 91.4 1257.8 131.5 1251.7 153.1 1251.7 165.5 1247.1 179.3 1251 182.6 1266.9 Z" data-holc_grade="A"/>
<path d="M 880.6 920.7 832.8 921.4 832.5 921 791 862.2 799.6 858.5 882.1 860.8 885.2 920.7 880.6 920.7 Z" data-holc_grade="A"/>
<path d="M 1209.9 1652.1 1202.6 1652.1 1196.2 1650.7 1189.8 1652.1 1185.9 1661 1182.9 1676.7 1176.5 1688.5 1167.1 1695.4 1153.3 1691.4 1144.1 1687.2 1144.1 1584.7 1129.4 1578.6 1135.6 1514.9 1231.3 1517.2 1231.3 1584 1215.8 1590.1 1212 1634.7 1209.9 1652.1 Z" data-holc_grade="A"/>
<path d="M 1056 1343.4 1055.1 1349.4 1059.1 1358.3 1065.5 1371.5 1075.8 1392.7 1085.2 1410.9 1098 1433 1095.6 1466.4 1096 1524.8 1094.5 1542 1091.6 1552.4 1086.6 1554.3 1077.3 1552.4 1069.9 1549.4 1053.6 1549.4 1029.4 1550.9 1017.5 1551.4 1006.7 1550.9 1004.2 1560.7 1001.2 1572 1001.7 1584.3 1001.7 1592.6 1003.2 1610.8 1007.6 1624.1 1003.7 1635.9 1001.7 1645.7 994.8 1645.2 976.5 1649.6 967.6 1647.6 947.4 1653.5 945.9 1664.3 945.9 1673.2 947.4 1682 943.9 1700.7 942.9 1704.6 921.2 1709.1 921.2 1710.5 922.2 1722.3 922.2 1732.6 920.7 1742.5 920.2 1757.7 932.5 1757.2 941.4 1755.3 949.8 1755.3 959.7 1755.3 970.5 1756.7 978 1759.2 984.4 1770.5 984.4 1780.3 982.4 1790.7 976.5 1799.5 968.1 1806.9 955.2 1825 942.4 1840.8 919.6 1860.9 915.7 1862.4 895 1860.9 873.7 1859.4 853.5 1856 834.2 1855 814 1854 794.2 1855 760.6 1853 740.4 1845.1 724.6 1841.2 712.3 1830.8 693 1823.9 678.2 1818 666.8 1809.2 666.4 1796.4 668.8 1781.7 669.3 1760 667.9 1729.6 670.9 1707 670.4 1687.3 669.9 1671.1 669.4 1651.4 672.9 1625.4 668.9 1602.8 669.9 1583.1 665 1563.5 664.5 1549.7 668 1528.1 671 1515.3 676.4 1497.6 683.3 1482.9 689.3 1480 700.1 1481.4 707.5 1481.4 714.4 1476.5 724.8 1471.1 731.2 1466.7 743.6 1460.3 751 1458.4 763.8 1453.5 779.1 1448.1 787.5 1447.6 792.9 1445.1 802.3 1442.2 815.2 1437.8 823.1 1435.3 838.4 1428 839.4 1431.9 839.8 1444.7 838.8 1459.4 840.3 1470.2 842.8 1475.6 852.2 1477.1 865 1480 870.4 1482 879.3 1488.9 884.7 1488.9 886.7 1483 890.2 1480.1 892.6 1476.1 897.6 1468.3 903 1461.9 908 1459.4 913.4 1458 916.3 1463.4 916.3 1466.3 912.4 1473.2 913.4 1478.6 917.8 1477.1 922.3 1472.2 926.7 1470.2 935.1 1469.8 941 1478.1 946 1478.1 954.4 1487.5 959.8 1491.9 963.7 1498.3 971.6 1505.1 972.6 1509.6 972.1 1519.9 970.6 1527.3 966.7 1536.6 967.7 1539.5 973.1 1543 977 1546.9 980.5 1546.4 986.4 1542 992.4 1532.7 996.3 1528.3 998.8 1522.4 1000.3 1515 1002.2 1502.7 1003.2 1468.3 1000.3 1462.9 994.8 1454.1 988.4 1445.2 983.5 1438.3 971.2 1438.3 970.7 1432.9 966.7 1425.1 973.1 1413.3 978.1 1404.4 984 1397.1 978.6 1390.7 972.7 1383.8 967.7 1378.9 961.8 1373.5 954.9 1369 950 1364.1 945 1361.2 939.6 1359.7 946 1352.8 946 1347.9 943.5 1343 940.1 1336.1 934.7 1332.7 926.8 1328.3 919.9 1327.3 914.9 1319.4 914.9 1311.1 917.9 1304.7 914.9 1295.8 911 1286.5 906.1 1273.7 909.5 1266.4 925.8 1255.5 946.1 1243.8 965.3 1236.4 973.7 1232 987.5 1227.6 993.7 1224.1 1001.3 1219.7 1008.3 1214.8 1018.6 1204.5 1024 1201.7 1025 1204.4 1029.4 1214.1 1035.9 1239.4 1036.6 1242.6 1036.1 1246.9 1034.2 1248.4 1031 1248.8 1027.5 1250.1 1027.5 1252.4 1027.5 1254.5 1027.5 1269.3 1028.5 1280.6 1029.5 1292.9 1030.4 1311.6 1030.9 1327.3 1030.4 1336.6 1033.4 1343 1040.8 1344.5 1047.7 1345 1056 1343.4 Z" data-holc_grade="A"/>
<path d="M 1589 400.5 1585.9 455.1 1584.8 507 1582.1 517.4 1524.9 520 1512 528.2 1512 532.5 1510.2 532.5 1482.5 530.3 1468.7 530.3 1450.6 529.3 1450.6 516.6 1446.3 495.4 1458 489 1482.5 483.7 1497.5 486.9 1514.5 477.3 1510.2 454 1515.6 428.6 1503.8 415.9 1503.8 385.1 1539 383 1581.6 383 1585.9 394.7 1589 400.5 Z" data-holc_grade="A"/>
</g>
<g id="B">
<path d="M 1358.6 225.2 1359.6 225.2 1360.2 225.2 1361.7 292.5 1361.7 292.7 1360.3 292.6 1272.5 290 1274.8 224 1358.6 225.2 Z" data-holc_grade="B"/>
<path d="M 832.8 921.4 851.2 944.6 872.5 984 874.8 989 866.9 988.7 845.4 987.8 808.8 985.5 800.3 986.7 791.7 987.8 793.5 1010.9 794.9 1028 795.1 1030.3 763.8 1049.5 764.3 1033.2 764.2 1031.4 764.4 1029.7 769.2 988.9 772.6 952.1 775.3 948.3 784.8 951.4 796.7 952.5 803.5 949.5 805.1 935.8 804.7 924.5 799 915.7 793.6 907.4 786 896.4 780.3 885.4 777.3 878.5 775.9 863.9 775.8 862.6 791 862.2 832.5 921 832.8 921.4 Z" data-holc_grade="B"/>
<path d="M 549.1 1102 544.1 1220.3 649 1221.5 651.3 1106.9 666.6 1102.7 687.5 1102.7 711.6 1103.1 735.2 1102 755.8 1102 761 1102.2 761.1 1106.3 762.9 1190 763.9 1243 758.9 1242.9 676 1241.4 676 1258.3 670.6 1280.5 654.4 1278.2 649 1297.4 600.4 1297.4 500.1 1296.5 403.7 1295.7 375.2 1291.9 376.8 1234.3 298.9 1278 295.5 1295.1 295 1297.9 182.1 1360 179.2 1361.5 179.3 1267.1 182.6 1266.9 226.4 1263.3 233.3 1205.4 249 1205 256.4 1204.9 275.4 1207.2 295.7 1209 314.2 1204.3 338 1206.1 353.5 1204.9 356.5 1191.3 380.3 1175.3 386.9 1187.2 407.1 1187.2 423.8 1188.4 455.4 1186 454.2 1126.8 484 1102.5 504.9 1098.9 548.4 1100.7 549.1 1102 Z" data-holc_grade="B"/>
<path d="M 1300.9 1795.9 1292.9 1817.4 1292.9 1928.8 1309.1 1935.7 1313 1959.5 1312.5 1984.7 1312.2 1998.7 1328.4 2056.3 1328 2060.3 1321.5 2122.3 1106.1 2126.1 1105 2114.7 1100.8 2070 1102.2 2069.7 1130.9 2063.1 1161.7 2062.4 1166.3 2054.7 1164.8 2033.2 1155.6 2009.4 1152.7 1992.4 1152.7 1992 1151.7 1986.3 1146.3 1967.9 1154 1869.6 1150.2 1820.5 1137.7 1818.7 1135.5 1818.4 1134 1818.2 1134.8 1816.5 1209.6 1654.6 1209.9 1652.1 1212 1634.7 1215.8 1590.1 1231.3 1584 1231.3 1517.2 1135.6 1514.9 1129.4 1578.6 1144.1 1584.7 1144.1 1687.2 1144.1 1689.2 1133.3 1691.5 1126.3 1657.7 1117.7 1647.7 1116.3 1646.2 1116.3 1623.9 1115.6 1549.4 1117.1 1495.7 1121.8 1451.9 1112.5 1424.3 1094.8 1395.1 1069.3 1344.4 1072.1 1324.9 1075.8 1325.4 1087.2 1321.4 1097.1 1321.9 1109.9 1322.4 1118.3 1323.9 1127.2 1329.3 1130.6 1339.6 1165.7 1337.2 1199.7 1336.2 1236.3 1338.2 1263.9 1338.2 1280.7 1343.1 1289.6 1349.5 1290.1 1421.2 1294.5 1506.2 1300.1 1592.7 1300 1795.5 1300.9 1795.9 Z" data-holc_grade="B"/>
<path d="M 1608 1336.7 1610 1349 1609 1362.8 1609 1374.1 1608 1389.8 1609.5 1409.4 1608.5 1433 1604.5 1447.3 1603.1 1460.5 1603.1 1470.8 1583.3 1470.9 1576.9 1473.8 1575.9 1484.1 1574.4 1499.3 1576.4 1509.7 1573.9 1532.3 1573.9 1543.1 1572 1554.4 1572 1571.1 1572 1584.8 1572.9 1597.1 1570.9 1605.6 1570 1609.4 1560.1 1609.9 1542.8 1608.4 1530 1609.4 1507.8 1608.9 1493.9 1607.4 1476.7 1608.9 1460.9 1607.9 1454.5 1605.4 1456.9 1534.7 1456.9 1446.3 1456.9 1378.5 1469.3 1377 1486.5 1374.6 1515.7 1371.1 1529 1373.6 1548.2 1372.6 1559.1 1372.1 1562.6 1366.2 1564 1353.9 1564 1348 1561.6 1336.7 1571.9 1335.2 1580.8 1335.2 1597.6 1335.7 1608 1336.2 1608 1336.7 Z" data-holc_grade="B"/>
<path d="M 1769.8 598.1 1770.1 598.2 1766.9 620.4 1761.6 642.7 1702 638.4 1704.1 693.6 1707.3 704.2 1711.6 718 1729.7 718 1732.4 722 1738.2 730.7 1738.2 744.5 1736.1 750.8 1736.6 761.6 1713.7 762.5 1709.4 779.5 1684.9 779.5 1677.5 798.5 1660 794 1662 761.6 1596.5 762.9 1601.3 726.3 1599.9 702.5 1599.9 673.4 1582.2 672.7 1580.8 618.4 1583.6 517.3 1582.1 517.4 1584.8 507 1585.9 455.1 1589 400.5 1589 400 1630.6 401 1670 397.8 1704.1 397.8 1730.7 398.9 1750.9 404.2 1786.1 404.2 1812.7 406.3 1832.9 406.3 1837.2 451.9 1834 472 1837.2 497.4 1836.2 519.7 1847.9 515.5 1856.4 503.8 1878.8 503.8 1880.9 557.8 1843.6 560 1834 532.4 1825.5 526.1 1813.8 542 1796.8 556.8 1776.5 577 1759.5 597.1 1769.8 598.1 Z" data-holc_grade="B"/>
<path d="M 2464.3 1045.7 2459.9 1057.1 2459.2 1063.2 2457.8 1070 2463.3 1080.2 2441.5 1080.2 2440.1 1112.8 2451 1114.8 2466.7 1113.5 2481.7 1114.8 2480.4 1151.4 2441.5 1154.9 2440.9 1188.1 2405.4 1188.8 2404 1201.7 2402.7 1209.2 2402.7 1220.7 2402.7 1226.8 2398.6 1233.6 2382.2 1235 2372.7 1235.7 2352.9 1237.1 2336.5 1237.7 2312 1237.1 2301.1 1237.1 2292.2 1237.8 2271.7 1239.1 2254 1235.8 2239.7 1239.8 2231.5 1243.9 2215.1 1239.8 2196.7 1239.9 2166 1239.9 2151 1237.2 2119 1239.2 2106.7 1234.5 2095 1237 2091 1237.9 2090.3 1231.8 2089 1214.8 2089 1201.9 2088.3 1188.3 2090.3 1175.4 2091.7 1160.5 2084.7 1151.1 2086.2 1151 2090.3 1134.7 2091 1129.3 2089.6 1122.5 2089.6 1116.4 2088.9 1106.9 2091 1096 2087.5 1083.8 2087.1 1083.7 2090.9 1077 2095 1068.2 2104.6 1070.2 2108.7 1077.7 2106.6 1087.9 2109.4 1100.8 2113.5 1103.5 2120.3 1106.2 2123.7 1107.5 2127.8 1106.2 2127.1 1098 2125 1087.2 2129.8 1083.8 2133.9 1084.5 2136.6 1091.2 2138.7 1094 2141.4 1094 2144.1 1090.6 2146.9 1085.1 2148.2 1081.1 2150.3 1074.3 2156.4 1074.3 2160.5 1074.9 2164.6 1079 2168.7 1084.4 2174.2 1093.3 2177.6 1093.3 2183 1091.9 2186.4 1086.5 2186.4 1077 2185.1 1072.2 2179.6 1064.8 2172.8 1057.3 2163.9 1052.5 2153.7 1052.5 2143.4 1053.2 2133.9 1055.9 2127.1 1064.1 2120.3 1060 2112.8 1051.9 2105.3 1038.3 2112.1 1032.2 2120.9 1032.9 2122.3 1036.3 2127.8 1042.4 2129.8 1043.7 2142.1 1043.7 2147.5 1043.7 2153 1039 2160.5 1039 2164.6 1041.7 2170.7 1042.4 2176.2 1045.1 2179.6 1052.5 2185 1049.1 2187.8 1043 2191.2 1043.7 2191.2 1054.6 2190.5 1064.7 2193.9 1083.1 2215 1058.6 2218.3 1058.9 2230.1 1060 2237.6 1061.3 2252.6 1062 2267.6 1062 2277.8 1062 2303 1062.7 2314.6 1062.6 2335.1 1064 2351.4 1066 2364.4 1066.7 2378 1066.7 2402.6 1068 2410.8 1069.4 2410.1 1042.6 2410.1 1041.5 2435.3 1040.9 2440 981.8 2450.3 979.8 2461.9 985.9 2466 996 2477.5 995.4 2473.5 1042.2 2464.6 1044.9 2464.3 1045.7 Z" data-holc_grade="B"/>
<path d="M 2118.9 1373.2 2120.4 1422.5 2146.3 1428.6 2146.3 1441.5 2147.7 1461.2 2146.4 1490.4 2147.1 1521.6 2118.4 1519.6 2117 1468.7 2019.5 1454.4 2018.8 1419.1 1975.8 1413.7 1977.2 1405.6 1975.8 1402.9 1964.2 1400.1 1959.4 1398.8 1951.3 1398.8 1943.1 1398.8 1941 1369.6 1898 1368.3 1898.7 1354.7 1895.3 1349.9 1886.4 1344.5 1874.8 1341.1 1861.2 1340.4 1843.5 1339.1 1841.4 1313.4 1838 1269.9 1841.4 1255.6 1841.4 1244.1 1840 1238.6 1836.6 1233.9 1827.1 1233.2 1819.6 1232.5 1812.8 1233.2 1802.5 1226.4 1796.5 1223.8 1800.5 1187 1822.3 1177.5 1842.7 1175.5 1861.2 1175.5 1880.3 1175.5 1880.9 1171.9 1888.4 1174.8 1902.8 1175.5 1908.2 1173.4 1919.1 1178.2 1927.3 1184.3 1934.1 1190.4 1941 1200.6 1947.8 1207.4 1950.5 1212.8 1951.2 1229.1 1952.6 1237.2 1954.6 1247.4 1958 1251.5 1967.6 1250.1 1981.2 1250.8 1991.4 1252.8 2007.1 1252.8 2018 1252.8 2022.2 1296.9 2044.7 1299 2063.1 1299 2086.3 1300.3 2094.5 1302.3 2114.9 1309.8 2117 1313.2 2118.9 1373.2 Z" data-holc_grade="B"/>
<path d="M 2081.7 1797.9 2062.6 1797.3 2041.4 1797.3 2017.6 1797.3 2001.2 1798.7 1967.8 1796 1967.8 1810.9 1961.6 1811.6 1950 1812.9 1938.4 1816.3 1925.5 1814.3 1917.3 1813 1910.4 1813 1902.9 1813.6 1895 1813.2 1890.7 1813 1890.7 1806.9 1887.2 1792.6 1885.2 1779.7 1881.8 1772.2 1877 1767.5 1871.5 1762 1864.7 1760 1856.5 1752.5 1851.8 1749.1 1842.9 1742.4 1851.1 1741 1857.9 1734.9 1853.8 1725.4 1864 1726.7 1870.2 1726.7 1881.8 1729.4 1892 1726.7 1905 1726.7 1918.6 1728.8 1924.1 1728.8 1937 1728.8 1943.2 1738.3 1954.8 1747.8 1956.1 1755.9 1963.7 1765.4 1965 1774.2 1972.5 1770.8 1972.5 1757.9 1971.1 1743 1968.4 1730.8 1969.8 1711.1 1970.4 1696.2 1971.8 1686.6 1977.9 1681.8 2028.1 1680.6 2044.1 1690.7 2052.3 1693.4 2085.8 1710.4 2087.1 1742.3 2086.5 1781 2085.1 1798 2081.7 1797.9 Z" data-holc_grade="B"/>
</g>
<g id="C">
<path d="M 758.9 1242.9 760.7 1278.7 760.8 1282.1 738.5 1285.2 705.3 1285.2 672.9 1286.7 664.4 1295.1 645.9 1300.5 643.6 1342.7 388.3 1338.7 380.6 1319.5 372.9 1319.5 360.5 1312.6 333.5 1309.5 325.8 1291.8 295.5 1295.1 298.9 1278 376.8 1234.3 375.2 1291.9 403.7 1295.7 500.1 1296.5 600.4 1297.4 649 1297.4 654.4 1278.2 670.6 1280.5 676 1258.3 676 1241.4 758.9 1242.9 Z" data-holc_grade="C"/>
<path d="M 1243.3 974.2 1242.3 987.9 1246.7 1022.8 1281.2 1026.2 1283.2 1054.2 1268.9 1057.2 1265.9 1061.6 1251.1 1061.6 1189.4 1104.7 1188.4 1105.3 1145 1106.2 1143 1106.3 1143.5 1060.6 1114.9 1059.1 1114.4 1025.2 1115.2 1025.2 1147 1022.8 1143.6 1008 1115.4 1005.3 1113 1005.1 1112.5 994.8 1117.4 986.9 1131.7 968.3 1140.6 953 1148 953 1152.9 947.1 1157.9 941.7 1165.8 938.3 1171.7 932.4 1177.1 935.9 1180.6 945.7 1186 953.5 1192.9 961.4 1225.5 948.1 1243.3 974.2 Z" data-holc_grade="C"/>
<path d="M 1330.5 1115.9 1332 1162.3 1311.8 1179.9 1315.4 1245.5 1314.9 1406 1314.3 1442.8 1316.2 1478 1324.7 1472.6 1345.8 1443.8 1348.8 1493.1 1348.8 1493.4 1350.8 1535.7 1347.8 1561.7 1352.7 1588.8 1377.9 1586.3 1378.4 1532.8 1371 1526.9 1389.8 1478.7 1392.3 1465 1392.3 1420.2 1405.1 1377.5 1419.9 1375 1437.2 1374.6 1456.9 1377.5 1456.9 1378.5 1456.9 1446.3 1456.9 1534.7 1454.5 1605.4 1454.5 1607.9 1424.3 1608.9 1424.2 1614.3 1403.7 1626.3 1343.5 1620.3 1331.4 1647.9 1307.3 1799.1 1300.9 1795.9 1300 1795.5 1300.1 1592.7 1294.5 1506.2 1290.1 1421.2 1289.6 1349.5 1280.7 1343.1 1263.9 1338.2 1236.3 1338.2 1199.7 1336.2 1165.7 1337.2 1130.6 1339.6 1127.2 1329.3 1118.3 1323.9 1109.9 1322.4 1097.1 1321.9 1087.2 1321.4 1075.8 1325.4 1072.1 1324.9 1062.5 1323.9 1062.5 1323.8 1061 1320.4 1058.6 1305.7 1063 1294.4 1072.9 1285.1 1085.7 1278.2 1096.6 1276.2 1118.3 1278.2 1118.8 1204.5 1119.8 1160.8 1119.8 1154.4 1118.8 1131.8 1116.7 1125.9 1115.9 1123.5 1124.8 1105.3 1139.6 1106.3 1144.4 1108.2 1139.6 1125 1139.6 1146.6 1169.7 1127.4 1193.9 1110.7 1193.5 1110.2 1212.6 1110.4 1236.3 1112.3 1330.4 1112.6 1330.5 1115.9 Z" data-holc_grade="C"/>
<path d="M 1144.1 1687.2 1153.3 1691.4 1167.1 1695.4 1176.5 1688.5 1182.9 1676.7 1185.9 1661 1189.8 1652.1 1196.2 1650.7 1202.6 1652.1 1209.9 1652.1 1209.6 1654.6 1134.8 1816.5 1124.1 1819.7 1075.7 1820.7 1073.7 1871.8 1042.6 1870.3 1036.2 1815.7 1016.4 1819.2 986.9 1816.3 986.3 1816.2 985.3 1795.6 1076.2 1693.9 1096.5 1679.1 1105.4 1657.5 1117.7 1647.7 1126.3 1657.7 1133.3 1691.5 1144.1 1689.2 1144.1 1687.2 Z" data-holc_grade="C"/>
<path d="M 1152.7 1992 1142.8 1991.7 1127.5 1991.7 1105.8 1987.3 1080.6 1986.3 1057.9 1989.7 1064.3 1969.1 1078.1 1936.2 1091.5 1905.2 1098.9 1889.5 1113.7 1862.4 1131.5 1822.6 1135.5 1818.4 1137.7 1818.7 1150.2 1820.5 1154 1869.6 1146.3 1967.9 1151.7 1986.3 1152.7 1992 Z" data-holc_grade="C"/>
<path d="M 1102.2 2069.7 1100.8 2070 1105 2114.7 1103.3 2115.1 1093.4 2113.6 1084 2113.1 1068.7 2114.1 1056.4 2116 1042.5 2120.5 1030.2 2123.4 1031.2 2115.5 1032.6 2106.7 1034.6 2101.8 1036.1 2092 1035.1 2083.6 1033.6 2072.8 1034.6 2060.5 1046.5 2060 1058.3 2062 1069.7 2063.5 1087.5 2062 1099.3 2064 1102.2 2069.7 Z" data-holc_grade="C"/>
<path d="M 1570.9 1605.6 1572.9 1597.1 1572 1584.8 1572 1571.1 1572 1554.4 1573.9 1543.1 1573.9 1532.3 1576.4 1509.7 1574.4 1499.3 1575.9 1484.1 1576.9 1473.8 1583.3 1470.9 1603.1 1470.8 1603.1 1460.5 1604.5 1447.3 1608.5 1433 1609.5 1409.4 1608 1389.8 1609 1374.1 1609 1362.8 1610 1349 1608 1336.7 1612.9 1332.8 1622.3 1332.8 1630.7 1332.8 1638.6 1336.7 1645 1348 1649.9 1356.9 1651.4 1365.2 1652.9 1379 1653.4 1388.3 1652.9 1401.1 1648.5 1412.9 1643.5 1423.7 1640.1 1431.5 1635.1 1443.8 1630.7 1457.1 1623.8 1474.8 1615.4 1497.4 1611 1510.2 1606 1521.9 1600.6 1532.3 1597.6 1542.6 1596.6 1552.4 1594.2 1561.3 1590.2 1575 1587.3 1587.3 1584.8 1599.1 1580.8 1609.4 1578.4 1615.3 1575.4 1607.9 1570.9 1605.6 Z" data-holc_grade="C"/>
<path d="M 1662.7 1269.2 1662.3 1256.9 1662.7 1250.4 1667.5 1251.7 1676.2 1253.4 1679.7 1239.5 1678.4 1230.8 1679.2 1225.5 1687.3 1225.8 1706.4 1227.8 1724.1 1229.1 1744.8 1228.6 1744.6 1233.9 1743.9 1243.4 1742.5 1257.7 1742.5 1275.3 1745.9 1297 1743.9 1303.8 1737.1 1306.5 1736.4 1320.8 1737.1 1335.7 1737.8 1359.5 1737.8 1375.4 1708.4 1374.4 1666.8 1371.7 1664.8 1312 1663.4 1294.3 1662.7 1277.3 1662.7 1269.2 Z" data-holc_grade="C"/>
<path d="M 1260.3 603.6 1267.3 613 1274.7 627.2 1279.5 637.4 1280.2 652.3 1282.9 663.8 1291.1 689.6 1298.6 710.7 1301.3 728.3 1306.1 750 1306.1 767.7 1308.8 781.9 1322.4 784 1334 779.9 1342.9 772.4 1353.8 785.3 1361.3 796.2 1366.8 805 1371.5 815.2 1376.3 828.7 1385.9 840.3 1387.9 848.4 1334 881 1351.1 913.6 1351.6 915.3 1353.8 923.1 1351.8 934.6 1343.6 945.5 1333.3 940 1323.8 925.1 1309.5 903.4 1302 890.5 1293.1 876.2 1284.3 856.6 1298.6 844.3 1305.4 838.2 1304 826.7 1300.6 810.4 1292.4 799.6 1299.9 790.1 1300.6 775.8 1291.8 740.5 1278.8 703.9 1272 691 1264.5 683.5 1262.5 677.4 1267.2 672.7 1267.2 659.1 1261.1 637.4 1252.9 617.7 1247.6 605.2 1259.8 602.8 1260.3 603.6 Z" data-holc_grade="C"/>
<path d="M 1660 794 1659.9 794.8 1595.8 794.8 1590.4 847.7 1588.7 848 1584.9 848.4 1569.9 851.1 1557.7 853.2 1548.5 852.8 1541.3 839.6 1536.5 828.7 1537.9 816.5 1537.9 803.6 1540.6 785.3 1540.1 769.3 1544.7 760.9 1546.8 749.4 1547.4 734.4 1546.1 724.9 1544 709.3 1557 709.3 1565.8 706.6 1564.5 700.5 1558.3 692.4 1552.9 687.6 1552.2 680.8 1575.4 682.2 1573.3 670.6 1556.3 670.6 1548.8 653 1528.3 655 1530.4 623.8 1539.9 624.5 1541.3 581.8 1524.3 581.8 1526.3 561.4 1512 563.5 1512 532.5 1512 528.2 1524.9 520 1582.1 517.4 1583.6 517.3 1580.8 618.4 1582.2 672.7 1599.9 673.4 1599.9 702.5 1601.3 726.3 1596.5 762.9 1662 761.6 1660 794 Z" data-holc_grade="C"/>
<path d="M 1732.4 722 1729.7 718 1711.6 718 1707.3 704.2 1704.1 693.6 1702 638.4 1761.6 642.7 1766.9 620.4 1770.1 598.2 1769.8 598.1 1771.2 597.6 1778.7 598 1788.3 596.7 1798.7 595.8 1808.3 595.8 1821.4 596.7 1821.4 608.4 1821.9 614.1 1822.7 624.9 1824.5 636.6 1824.1 655.7 1822.7 664.9 1821.4 674.8 1821 686.1 1820.1 697.9 1813.8 698.9 1778.7 696.7 1738.2 697.8 1736.1 711.6 1732.4 722 Z" data-holc_grade="C"/>
<path d="M 2087.1 1083.7 2087.5 1083.8 2091 1096 2088.9 1106.9 2089.6 1116.4 2089.6 1122.5 2091 1129.3 2090.3 1134.7 2086.2 1151 2084.7 1151.1 2064.4 1152.4 2049.4 1159.8 2031 1164.6 2016 1169.3 2001 1172.7 1990.1 1174.1 1975.1 1174.8 1949.8 1170.7 1930.7 1158.5 1923.9 1155.8 1906.2 1146.3 1891.8 1136.8 1890.5 1136.1 1878.9 1128.7 1869.3 1123.9 1859.1 1119.8 1850.9 1111.7 1838 1105.6 1827 1102.2 1819.5 1094.7 1809.3 1091.3 1805.5 1084.2 1807.3 1083.9 1820.9 1071.7 1839.3 1047.9 1843.7 1041.8 1850.2 1042.5 1861.1 1043.8 1874.1 1042.5 1885.7 1043.8 1896.6 1043.8 1908.2 1044.5 1923.2 1048.6 1920.5 1064.9 1923.2 1064.8 1932.7 1064.8 1941.6 1065.5 1953.2 1065.5 1955.9 1077.7 1958.7 1081.1 1970.2 1081.1 1985.2 1081.1 2002.3 1081.8 2018 1082.5 2042.5 1083.8 2070.5 1081.8 2087.1 1083.7 Z" data-holc_grade="C"/>
<path d="M 2410.1 1042.6 2410.8 1069.4 2402.6 1068 2378 1066.7 2364.4 1066.7 2351.4 1066 2335.1 1064 2314.6 1062.6 2303 1062.7 2277.8 1062 2267.6 1062 2252.6 1062 2237.6 1061.3 2230.1 1060 2218.3 1058.9 2219.1 1047.8 2221.9 1032.8 2221.8 1018.6 2204.1 1015.9 2193.2 1015.9 2192.5 1013.8 2188.4 988.1 2188.4 974.5 2191.1 936.5 2189.7 914.1 2223.8 914.7 2225.2 877.4 2253.8 876.7 2266.1 876.7 2279.7 877.4 2290.6 877.4 2301.6 878.1 2308.4 876.7 2321.3 877.4 2323.5 1030.7 2386.9 1030.7 2393.7 1039.5 2404.6 1039.5 2410.1 1042.6 Z" data-holc_grade="C"/>
<path d="M 2095 1237 2106.7 1234.5 2119 1239.2 2151 1237.2 2166 1239.9 2196.7 1239.9 2215.1 1239.8 2231.5 1243.9 2239.7 1239.8 2254 1235.8 2271.7 1239.1 2292.2 1237.8 2301.1 1237.1 2312 1237.1 2336.5 1237.7 2352.9 1237.1 2372.7 1235.7 2382.2 1235 2398.6 1233.6 2402.7 1226.8 2402.7 1220.7 2402.7 1209.2 2404 1201.7 2405.4 1188.8 2440.9 1188.1 2441.5 1154.9 2480.4 1151.4 2481.7 1114.8 2466.7 1113.5 2451 1114.8 2440.1 1112.8 2441.5 1080.2 2463.3 1080.2 2457.8 1070 2459.2 1063.2 2459.9 1057.1 2464.3 1045.7 2522.5 1048.4 2521.4 1074.9 2582.2 1082.3 2583.3 1147 2609.9 1149.1 2608.9 1197.9 2634.5 1201.1 2640.8 1073.8 2707.9 1070.6 2702.6 1168.1 2651.5 1167.1 2648.3 1202.1 2705.9 1205.2 2710.1 1202.1 2718.6 1202 2736.8 1202 2764.5 1207.3 2775.1 1207.3 2786.8 1210.5 2793.3 1221.1 2793.3 1234.9 2794.3 1247.6 2797.5 1255 2803.9 1258.2 2824.2 1268.8 2834.9 1271.9 2875.4 1279.3 2896.7 1279.3 2896.7 1261.3 2897.7 1244.3 2895.6 1230.5 2884.9 1226.3 2867.8 1223.1 2846.5 1217.8 2821 1213.6 2793.2 1206.2 2794.3 1173.3 2966.9 1178.5 2981.8 1183.8 2981.8 1203.9 2981.9 1229.4 2998.9 1236.8 2999 1299.4 2993.7 1368.3 2937.3 1367.3 2890.4 1366.3 2830.7 1365.3 2787 1362.1 2713.4 1356.9 2711.3 1347.4 2710.2 1329.3 2703.8 1310.2 2717.7 1310.2 2740 1306 2749.6 1296.4 2746.4 1283.7 2735.8 1268.8 2724 1260.4 2702.7 1248.7 2675 1237.1 2654.7 1225.4 2628.1 1219.1 2607.8 1210.6 2588.6 1204.3 2588.7 1232.9 2588.7 1245.6 2594 1296.5 2574.9 1302.9 2556.8 1312.5 2518.4 1311.4 2505.6 1310.4 2479 1306.2 2452.3 1294.5 2433.1 1288.2 2409.7 1279.7 2393.7 1274.4 2377.7 1270.2 2353.2 1263.8 2334 1256.4 2311.6 1259.6 2286 1263.9 2269 1263.9 2233.8 1269.2 2218.9 1269.2 2188 1267.1 2169.9 1266 2147.5 1265 2125.1 1267.1 2094.2 1264 2095 1237 Z" data-holc_grade="C"/>
<path d="M 2028.1 1680.6 1977.9 1681.8 1974.5 1681.9 1995 1632.3 1971.1 1580.9 1970.4 1579.4 1968.4 1562.4 1968.4 1547.5 1971.1 1523 1971.1 1499.9 1969.7 1480.3 1967.6 1465.3 1965.6 1457.2 1958.8 1447.7 1958.8 1445 1962.9 1439.5 1960.8 1432.1 1949.9 1431.4 1936.9 1430 1925.3 1434.8 1924 1426.6 1913.7 1425.3 1901.5 1426.6 1891.9 1424.6 1883.7 1423.9 1874.9 1419.2 1868.8 1417 1867.4 1416.5 1868 1407.6 1868 1398.1 1866.7 1389.3 1866.7 1378.5 1866 1369.6 1865.3 1360.8 1848.9 1359.5 1832.6 1356.7 1813.5 1356.1 1811.4 1350.6 1811.4 1341.1 1805.3 1340.5 1790.3 1339.8 1790.3 1331.6 1793 1316.7 1806 1314 1822.3 1314.7 1841.4 1313.4 1843.5 1339.1 1861.2 1340.4 1874.8 1341.1 1886.4 1344.5 1895.3 1349.9 1898.7 1354.7 1898 1368.3 1941 1369.6 1943.1 1398.8 1951.3 1398.8 1959.4 1398.8 1964.2 1400.1 1975.8 1402.9 1977.2 1405.6 1975.8 1413.7 2018.8 1419.1 2019.5 1454.4 2117 1468.7 2118.4 1519.6 2147.1 1521.6 2146.4 1490.4 2147.7 1461.2 2146.3 1441.5 2146.3 1428.6 2120.4 1422.5 2118.9 1373.2 2125.2 1373.6 2138.1 1376.3 2145.6 1377 2147 1366.1 2149.7 1353.9 2150.4 1334.2 2159.3 1335.6 2176.3 1341.7 2187.9 1346.4 2202.2 1353.9 2212.5 1357.3 2205 1332.2 2214.5 1336.2 2220.6 1337.6 2228.8 1337.6 2243.8 1337.6 2274.5 1335.5 2272.5 1368.8 2275.9 1417.7 2276.6 1476.7 2257.6 1482.8 2221.4 1485.6 2202.3 1487.6 2199.6 1501.2 2199.6 1516.8 2198.9 1538.5 2202.3 1552.8 2201.7 1560.3 2196.9 1590.1 2189.4 1594.9 2171.7 1593.5 2163.5 1594.9 2154.6 1594.9 2141.6 1595.6 2129.4 1594.2 2117.8 1593.6 2110.3 1592.2 2099.3 1590.9 2089.8 1589.5 2076.8 1588.2 2061.1 1587.5 2046.8 1587.5 2019.5 1585.5 2018.9 1631 2001.8 1629.6 1999.8 1638.4 2033.2 1680.5 2028.1 1680.6 Z" data-holc_grade="C"/>
<path d="M 2081.7 1797.9 2086.5 1808.1 2087.2 1819 2088.5 1840.1 2089.9 1863.8 2089.2 1897.1 2088.6 1925.6 2072.2 1929 2061.3 1929 2044.2 1931.1 2025.8 1929.7 2008.1 1928.4 1973.3 1926.3 1973.9 1944 1974 1967.1 1970.6 2011.2 1970.6 2044.5 1969.9 2095.5 2006.1 2113.8 2075.7 2141.6 2043.6 2134.8 2044.3 2145.7 2045 2157.2 2049.1 2178.3 2051.8 2193.2 2053.2 2209.5 2059.3 2223.8 2065.5 2234 2076.4 2244.8 2091.4 2265.9 2103.7 2276.1 2111.9 2295.1 2118.1 2313.4 2122.9 2337.2 2098.3 2335.2 2084.6 2333.8 2063.5 2331.8 2047.8 2332.5 2023.9 2332.5 1988.4 2333.2 1986.4 2359 1980.9 2357 1978.9 2340 1976.1 2302.6 1974.1 2285 1972.7 2263.2 1972.7 2241.5 1968.6 2210.2 1968.6 2184.4 1967.9 2143 1929.6 2139.6 1929.6 2118.6 1929.6 2100.2 1929 2082.6 1913.3 2067.6 1897.6 2052.7 1869.6 2027.6 1857.3 2020.1 1835.4 2008.6 1821.1 1993.6 1803.4 1981.4 1800.6 1965.8 1795.2 1953.6 1789.7 1940.7 1780.8 1929.8 1775.4 1918.2 1769.2 1908.1 1765.1 1899.9 1759.7 1891.8 1755.6 1884.3 1755.6 1874.1 1755.6 1859.9 1754.2 1845.6 1810.8 1846.3 1825.2 1884.3 1845 1886.3 1845 1878.2 1847 1853.7 1846.3 1843.5 1845 1830 1844.9 1817.1 1868.1 1817 1893.4 1817 1895 1813.2 1902.9 1813.6 1910.4 1813 1917.3 1813 1925.5 1814.3 1938.4 1816.3 1950 1812.9 1961.6 1811.6 1967.8 1810.9 1967.8 1796 2001.2 1798.7 2017.6 1797.3 2041.4 1797.3 2062.6 1797.3 2081.7 1797.9 Z" data-holc_grade="C"/>
</g>
<g id="D">
<path d="M 941.3 671.3 882.9 602.5 867.5 584.3 867.9 583.9 908.6 628.4 946 669.2 1047.5 584.9 999.1 514.5 1026.1 511.8 1026.1 431.2 948.9 430.3 951.7 365.4 942.4 361.7 940.6 368.2 921.9 371.9 895 369.1 879.2 366.3 851.2 361.7 828 361.7 810.3 360.8 806.6 344.1 780.6 343.1 773.1 291.3 741.5 286.6 741.5 263.5 736.9 260.7 722 265.3 686.7 229.2 620.6 174.6 614.1 180.1 528.6 105.1 509.1 126.3 590.9 204.2 562 238.4 600.1 275.5 608.5 271.8 672.6 330.1 680.1 319 738.7 373.7 737.9 427.2 705.9 457.5 705.4 447.6 611.9 444 609.6 395.4 511.3 391.2 509.1 211.1 447.8 208.1 450.8 157.7 293.6 155.2 285.4 36.1 496.6 100.3 496.7 75.4 567 12.6 647.3 79.6 642.5 80.2 640.1 107.5 805 111.7 806.8 93.3 886.6 91.6 884.2 24.1 953.3 22.9 953.3 13.4 965.8 11.6 967 3.4 1010.4 1 1011.6 10.5 1174.1 14.7 1178.3 78.1 1203.8 178.3 1206.8 140.3 1247.3 139.7 1250.3 81.6 1310.4 82.8 1313.4 141.5 1303.9 146.2 1303.9 201.9 1358 203.7 1358.6 225.2 1274.8 224 1272.5 290 1360.3 292.6 1362.2 297.3 1387.8 296.1 1387.2 366.1 1353.8 360.7 1334.2 358.4 1307.4 356 1280.6 356.6 1252 366 1240.7 420 1224.6 424.7 1205 434.8 1199.6 429.4 1209.8 328.1 1206.8 238.6 1198.9 218.5 1192.7 251.6 1105.3 251.6 1087.6 228.5 1071.8 174.8 1048.5 168.3 1061.5 226.6 1050.4 226.6 1070.8 289.6 1048.5 291.4 1044.7 437.7 1122.9 439.6 1122.9 507.2 1135 532.2 1164.7 538.7 1155.4 620.2 1125.6 642.4 1116.3 641.4 1081.7 641.6 1054.9 652.8 1041.2 677.1 1019.7 698.5 1001.2 702.6 973.3 696.7 941.7 671.8 941.3 671.3 Z" data-holc_grade="D"/>
<path d="M 867.5 584.3 866.7 583.4 857.9 593.1 844.6 605.2 824.2 610.8 803.7 594.1 793 577.4 788.4 566.6 784.2 526.5 710.7 462.6 710.1 463.1 706 459.5 705.9 457.5 737.9 427.2 738.7 373.7 680.1 319 672.6 330.1 608.5 271.8 600.1 275.5 562 238.4 590.9 204.2 509.1 126.3 528.6 105.1 614.1 180.1 620.6 174.6 686.7 229.2 722 265.3 736.9 260.7 741.5 263.5 741.5 286.6 773.1 291.3 780.6 343.1 806.6 344.1 810.3 360.8 828 361.7 851.2 361.7 879.2 366.3 895 369.1 921.9 371.9 940.6 368.2 942.4 361.7 951.7 365.4 948.9 430.3 1026.1 431.2 1026.1 511.8 999.1 514.5 1047.5 584.9 946 669.2 908.6 628.4 867.9 583.9 867.5 584.3 Z" data-holc_grade="D"/>
<path d="M 866.9 988.7 843.5 1001.5 795.1 1030.3 794.9 1028 793.5 1010.9 791.7 987.8 800.3 986.7 808.8 985.5 845.4 987.8 866.9 988.7 Z" data-holc_grade="D"/>
<path d="M 177.6 1570.3 182.1 1360 295 1297.9 295.5 1295.1 325.8 1291.8 333.5 1309.5 360.5 1312.6 372.9 1319.5 380.6 1319.5 388.3 1338.7 643.6 1342.7 645.9 1300.5 664.4 1295.1 672.9 1286.7 705.3 1285.2 738.5 1285.2 760.8 1282.1 760.7 1278.7 818.7 1284.5 821 1275.2 869.6 1276 868.8 1282.2 807.1 1330.5 724.6 1327.4 577.2 1449.4 537.8 1448.6 535.5 1427.1 433.7 1432.4 435.2 1559.1 369.6 1556.7 295.5 1561.2 177.5 1574.2 177.6 1570.3 Z" data-holc_grade="D"/>
<path d="M 866.9 988.7 874.8 989 872.5 984 851.2 944.6 832.8 921.4 880.6 920.7 882.9 933 892.9 933.7 899.8 958.3 971.5 961.4 976.9 989.8 947.6 992.1 950.7 1049.6 877.4 1048.1 866.9 988.7 Z" data-holc_grade="D"/>
<path d="M 764.2 1102.4 824.8 1103.3 824.6 1131.7 787.9 1130.9 787.9 1190 762.9 1190 761.1 1106.3 761 1102.2 762.9 1102.3 764.2 1102.4 Z" data-holc_grade="D"/>
<path d="M 1004.9 985.9 1005.9 983.4 1004.4 984.9 1050.8 867.1 1058.7 863.1 1072 862.6 1087.3 863.1 1102.1 862.7 1114.5 864.6 1122.4 859.7 1123.9 789.5 1129.8 789.5 1141.6 795.9 1150.5 806.7 1158.9 809.6 1164.8 816 1172.2 825.3 1177.6 833.7 1179.1 843.5 1178.1 852.4 1174.7 855.3 1164.3 859.2 1155.9 861.2 1144.1 865.6 1133.7 864.6 1121.4 863.2 1119.9 903.4 1117.4 908.3 1110 909.3 1103.1 913.2 1097.2 916.2 1090.8 919.6 1083.4 923.1 1081.4 929 1083.9 939.3 1091.8 941.7 1105.6 934.4 1119.9 940.3 1113 949.1 1093.2 955 1080.9 961.9 1076.9 977.6 1083.8 988.4 1068.5 989.9 1030.1 984.4 1004.9 985.9 Z" data-holc_grade="D"/>
<path d="M 1243.3 974.2 1225.5 948.1 1192.9 961.4 1186 953.5 1180.6 945.7 1177.1 935.9 1171.7 932.4 1165.8 938.3 1157.9 941.7 1152.9 947.1 1148 953 1140.6 953 1138.1 953 1127.3 953 1122.3 949.1 1120.4 941.7 1119.9 937.3 1117.4 918.6 1129.8 910.3 1140.1 899.5 1143.6 888.7 1153 881.3 1162.3 877.9 1168.8 870 1183.1 874 1192.4 877.9 1201.8 882.3 1208.2 884.8 1215.6 887.7 1218.6 896.1 1220.6 902 1224 906.9 1231.9 903.5 1234.4 903 1268.4 957.5 1243.3 974.2 Z" data-holc_grade="D"/>
<path d="M 1115.2 1025.2 1113.9 1016.4 1115.4 1005.3 1143.6 1008 1147 1022.8 1115.2 1025.2 Z" data-holc_grade="D"/>
<path d="M 1193.5 1110.2 1193.9 1110.7 1169.7 1127.4 1139.6 1146.6 1139.6 1125 1144.4 1108.2 1145 1106.2 1188.4 1105.3 1189.4 1104.7 1193.5 1110.2 Z" data-holc_grade="D"/>
<path d="M 1116.7 1125.9 1118.8 1131.8 1119.8 1154.4 1119.8 1160.8 1118.8 1204.5 1118.3 1278.2 1096.6 1276.2 1085.7 1278.2 1072.9 1285.1 1063 1294.4 1058.6 1305.7 1061 1320.4 1062.5 1323.8 1060.1 1326.8 1061 1341.1 1058.1 1343 1056 1343.4 1047.7 1345 1040.8 1344.5 1033.4 1343 1030.4 1336.6 1030.9 1327.3 1030.4 1311.6 1029.5 1292.9 1028.5 1280.6 1027.5 1269.3 1027.5 1254.5 1027.5 1252.4 1027.5 1250.1 1031 1248.8 1034.2 1248.4 1036.1 1246.9 1036.6 1242.6 1035.9 1239.4 1029.4 1214.1 1025 1204.4 1024 1201.7 1016.1 1178.6 999.4 1123.3 1027.2 1105.3 1033.5 1106.9 1048.4 1107.9 1060.1 1106.3 1074.9 1108.8 1077.1 1130.2 1085.6 1129.9 1109.6 1129.3 1116.7 1125.9 Z" data-holc_grade="D"/>
<path d="M 1394.2 1116.3 1401.7 1128.4 1397.7 1168.7 1398.2 1199.2 1395.2 1226.7 1397.7 1242.4 1394.7 1265.5 1396.2 1279.7 1392.3 1306.3 1387.3 1330.8 1382.4 1340.7 1358.2 1340.6 1354.7 1367.7 1358.2 1375 1366.1 1379 1370.5 1379 1373.5 1440.9 1370 1441.9 1358.2 1491 1348.8 1493.1 1345.8 1443.8 1324.7 1472.6 1316.2 1478 1314.3 1442.8 1314.9 1406 1315.4 1245.5 1311.8 1179.9 1332 1162.3 1330.5 1115.9 1343.9 1113.7 1356.2 1110.7 1372 1106.8 1390.8 1110.7 1394.2 1116.3 Z" data-holc_grade="D"/>
<path d="M 1134.8 1816.5 1134 1818.2 1135.5 1818.4 1131.5 1822.6 1113.7 1862.4 1098.9 1889.5 1091.5 1905.2 1078.1 1936.2 1064.3 1969.1 1057.9 1989.7 1080.6 1986.3 1105.8 1987.3 1127.5 1991.7 1142.8 1991.7 1152.7 1992 1152.7 1992.4 1155.6 2009.4 1164.8 2033.2 1166.3 2054.7 1161.7 2062.4 1130.9 2063.1 1102.2 2069.7 1099.3 2064 1087.5 2062 1069.7 2063.5 1058.3 2062 1046.5 2060 1034.6 2060.5 1033.6 2072.8 1035.1 2083.6 1036.1 2092 1034.6 2101.8 1032.6 2106.7 1031.2 2115.5 1030.2 2123.4 1042.5 2120.5 1056.4 2116 1068.7 2114.1 1084 2113.1 1093.4 2113.6 1103.3 2115.1 1105 2114.7 1106.1 2126.1 1321.5 2122.3 1328 2060.3 1334.4 2067.4 1340.3 2086.6 1347.8 2097.4 1353.2 2114.1 1359.1 2133.3 1362.1 2145.6 1364 2154.9 1369 2158.4 1382.8 2157.9 1393.7 2157.4 1408 2159.4 1420.8 2158.4 1437.1 2158.4 1446.5 2158.4 1448.5 2169.2 1450 2178.5 1451 2188.9 1451.5 2198.2 1452 2213.9 1451.5 2225.2 1442.1 2222.3 1431.2 2222.3 1420.3 2223.8 1407 2227.2 1224.7 2227.2 1223.8 2202.6 1220.8 2191.3 1224.8 2187.4 1187.2 2183.9 1162 2186.4 1131.9 2185.4 1111.6 2191.8 1107.2 2187.3 1104.7 2204.5 1105.2 2219.3 1106.2 2239 1107.7 2252.2 1106.7 2262.6 1072.6 2264 1045.9 2265 1023.2 2268.4 1003.9 2269.4 986.7 2269.9 971.8 2269.4 961.5 2268.9 948.1 2267.4 942.7 2265.4 940.2 2238.4 939.8 2196.6 937.8 2165.7 936.8 2138.6 937.8 2115 937.3 2096.3 931.9 2091.9 916.6 2091.4 916.1 2073.7 936.4 2070.3 956.1 2069.8 974.4 2069.3 986.2 2068.3 991.2 2063.4 994.1 2039.8 992.2 2016.7 990.7 1995.1 990.2 1976.9 990.2 1959.2 990.2 1947.9 971.5 1949.9 970.5 1923.8 985.8 1922.9 981.4 1901.7 981.9 1887.5 981.4 1868.8 982.4 1851.6 980.9 1839.3 979.9 1822.1 984.3 1818.2 986.9 1816.3 1016.4 1819.2 1036.2 1815.7 1042.6 1870.3 1073.7 1871.8 1075.7 1820.7 1124.1 1819.7 1134.8 1816.5 Z" data-holc_grade="D"/>
<path d="M 1880.9 1171.9 1880.3 1175.5 1861.2 1175.5 1842.7 1175.5 1822.3 1177.5 1800.5 1187 1796.5 1223.8 1796.4 1225.1 1779.3 1225.1 1749.3 1228.5 1744.8 1228.6 1724.1 1229.1 1706.4 1227.8 1687.3 1225.8 1679.2 1225.5 1667.5 1225.1 1646.3 1224.4 1609.5 1226.4 1608.8 1243.4 1596.6 1261.1 1591.8 1279.4 1585.7 1301.8 1601.3 1302.5 1611.6 1295.7 1636.1 1268.5 1662.7 1269.2 1662.7 1277.3 1663.4 1294.3 1664.8 1312 1666.8 1371.7 1708.4 1374.4 1737.8 1375.4 1767.8 1376.4 1770.5 1401.6 1771.2 1415.1 1776 1448.4 1773.2 1460.6 1719.4 1464 1716.6 1510.2 1673 1515.6 1671.6 1574.7 1643.7 1582.8 1643.7 1603.2 1644.3 1624.3 1651.8 1629.7 1688.7 1625.6 1700.3 1641.2 1699.6 1667.7 1694.1 1684 1678.5 1701.7 1675 1717.3 1671 1728.8 1664.1 1738.3 1660.7 1748.5 1658 1760 1647.1 1764.1 1636.2 1768.9 1619.8 1769.6 1589.1 1772.3 1588.4 1758 1586.4 1744.4 1584.3 1721.4 1582.3 1675.9 1563.2 1676.5 1544.7 1676.5 1525.6 1678.6 1501.8 1677.2 1472.4 1676.5 1419.2 1677.2 1419.2 1697.6 1419.2 1712.5 1419.2 1728.8 1421.3 1750.5 1430.1 1760.1 1439.7 1769.6 1456 1788.6 1477.2 1812.3 1493.6 1829.3 1508.6 1853.1 1514 1867.3 1510.6 1891.8 1505.2 1914.9 1426.7 1917.6 1431.5 1927.1 1434.2 1942 1433.5 1961.1 1428.7 1981.4 1312.5 1984.7 1313 1959.5 1309.1 1935.7 1292.9 1928.8 1292.9 1817.4 1300.9 1795.9 1307.3 1799.1 1331.4 1647.9 1343.5 1620.3 1403.7 1626.3 1424.2 1614.3 1424.3 1608.9 1454.5 1607.9 1454.5 1605.4 1460.9 1607.9 1476.7 1608.9 1493.9 1607.4 1507.8 1608.9 1530 1609.4 1542.8 1608.4 1560.1 1609.9 1570 1609.4 1570.9 1605.6 1575.4 1607.9 1578.4 1615.3 1580.8 1609.4 1584.8 1599.1 1587.3 1587.3 1590.2 1575 1594.2 1561.3 1596.6 1552.4 1597.6 1542.6 1600.6 1532.3 1606 1521.9 1611 1510.2 1615.4 1497.4 1623.8 1474.8 1630.7 1457.1 1635.1 1443.8 1640.1 1431.5 1643.5 1423.7 1648.5 1412.9 1652.9 1401.1 1653.4 1388.3 1652.9 1379 1651.4 1365.2 1649.9 1356.9 1645 1348 1638.6 1336.7 1630.7 1332.8 1622.3 1332.8 1612.9 1332.8 1608 1336.7 1608 1336.2 1597.6 1335.7 1580.8 1335.2 1571.9 1335.2 1561.6 1336.7 1564 1348 1564 1353.9 1562.6 1366.2 1559.1 1372.1 1548.2 1372.6 1529 1373.6 1515.7 1371.1 1486.5 1374.6 1469.3 1377 1456.9 1378.5 1456.9 1377.5 1437.2 1374.6 1419.9 1375 1405.1 1377.5 1401.7 1373.3 1399 1368.1 1398.6 1355.5 1391.6 1353.8 1387.3 1352.5 1386.4 1345.1 1382.4 1340.7 1387.3 1330.8 1392.3 1306.3 1396.2 1279.7 1394.7 1265.5 1397.7 1242.4 1395.2 1226.7 1398.2 1199.2 1397.7 1168.7 1401.7 1128.4 1394.2 1116.3 1402.2 1113.8 1406.3 1114.5 1418.6 1115.1 1428.8 1115.8 1447.2 1117.9 1466.3 1117.9 1477.2 1117.9 1501.8 1118.5 1518.8 1121.2 1531.8 1122.6 1542.7 1124 1547.5 1126.7 1559.7 1129.4 1567.2 1136.2 1580.2 1158.6 1593.1 1158.6 1598.6 1130.7 1609.5 1130.1 1621.1 1128.7 1631.3 1124 1639.5 1117.8 1647.7 1114.5 1659.3 1109.7 1675.7 1104.9 1687.9 1103.6 1699.5 1102.2 1720.7 1100.9 1746.6 1102.9 1747.3 1115.8 1743.9 1136.2 1731.6 1142.9 1737.7 1151.1 1741.1 1155.8 1758.9 1155.8 1781.4 1155.2 1819.6 1157.9 1844.8 1156.5 1883.7 1155.8 1880.9 1171.9 Z" data-holc_grade="D"/>
<path d="M 1540.1 769.3 1540.6 785.3 1537.9 803.6 1537.9 816.5 1536.5 828.7 1541.3 839.6 1548.5 852.8 1550.2 855.9 1532.4 857.9 1507.9 857.9 1479.3 860.6 1469.7 866.1 1457.4 866.7 1445.8 862.7 1426.1 859.3 1409 862 1392.7 873.5 1387.2 884.4 1374.9 887.8 1366.1 894.6 1357.9 904.1 1355.8 911.5 1351.6 915.3 1351.1 913.6 1334 881 1387.9 848.4 1385.9 840.3 1376.3 828.7 1371.5 815.2 1366.8 805 1361.3 796.2 1353.8 785.3 1342.9 772.4 1334 779.9 1322.4 784 1308.8 781.9 1306.1 767.7 1306.1 750 1301.3 728.3 1298.6 710.7 1291.1 689.6 1282.9 663.8 1280.2 652.3 1279.5 637.4 1274.7 627.2 1267.3 613 1260.3 603.6 1264.5 599.4 1270.7 598 1280.2 594.6 1288.4 609.6 1295.9 621.8 1297.9 634 1300.7 643.5 1309.5 644.9 1318.4 642.1 1325.2 638.8 1324.5 629.3 1338.8 629.3 1349.7 625.2 1362 624.5 1364 676.8 1336.8 706.6 1372.2 760.2 1369.5 743.9 1367.5 733.1 1367.5 720.9 1367.5 708 1368.1 701.9 1370.2 695.1 1382.5 714.1 1390 727 1398.8 745.3 1402.9 752.1 1409.7 766.3 1418.6 785.3 1452.7 771.1 1467.7 762.3 1476.5 766.3 1482 771.7 1482.7 776.5 1487.4 787.4 1539.9 765.6 1540.1 769.3 Z" data-holc_grade="D"/>
<path d="M 1843.7 1041.8 1839.3 1047.9 1820.9 1071.7 1807.3 1083.9 1805.5 1084.2 1793.6 1086.6 1775.9 1080.5 1760.9 1080.5 1728.8 1070.3 1705 1072.4 1678.4 1069 1657.9 1066.3 1655.2 1051.3 1652.5 1038.4 1651.8 1026.2 1657.9 1010.6 1651.8 1009.9 1633.4 1015.4 1623.8 1016.7 1617.7 1016.7 1602 1014 1596.5 1012 1589 1012 1582.2 1019.4 1582.2 1026.2 1585.6 1038.4 1584.3 1052 1575.4 1052.7 1566.5 1044.6 1560.4 1030.3 1556.3 1009.3 1546.1 1001.8 1530.4 989.6 1519.5 986.2 1507.9 989.6 1509.9 1000.4 1520.9 1009.9 1531.1 1023.5 1547.4 1052.7 1546.8 1060.8 1548.8 1069.7 1582.9 1075.1 1581.5 1119.2 1567.9 1117.8 1558.4 1108.3 1537.2 1106.3 1524.3 1102.9 1517.4 1102.9 1512 1101.6 1502.4 1098.2 1493.6 1098.2 1487.4 1097.5 1479.9 1096.1 1475.8 1094.8 1454 1092.7 1457.4 1072.4 1416.5 1066.9 1405.6 941.4 1417.2 934.6 1420.6 930.5 1420.6 924.4 1415.8 919 1411.8 906.1 1415.8 898 1421.3 886.4 1428.8 886.4 1441.8 887.1 1453.3 893.9 1460.8 906.8 1477.2 927.8 1502.4 913.6 1531.8 898.6 1548.8 893.2 1552.2 881 1552.2 869.5 1550.2 860.6 1557.7 860 1568.6 855.9 1589 850.5 1588.7 848 1590.4 847.7 1595.8 794.8 1659.9 794.8 1660 794 1677.5 798.5 1684.9 779.5 1709.4 779.5 1713.7 762.5 1736.6 761.6 1740.3 761.4 1777.6 764.6 1819.2 767.8 1879.9 767.8 1952.3 772 1941.7 816.5 1946 828.2 1948.1 850.4 1952.5 891.8 1934.7 891.1 1921.8 893.8 1911.5 895.9 1891.8 895.9 1883.6 895.9 1869.3 895.2 1856.3 895.2 1846.8 894.5 1834.5 893.9 1825.6 893.2 1816.1 894.5 1816.8 900.6 1821.5 907.4 1825 910.1 1831.1 912.9 1840.6 916.9 1852.2 923 1863.8 929.8 1872.7 937.3 1892.5 969.2 1902.7 982.7 1914.3 990.2 1931.4 994.9 1947 994.9 1953.2 1009.2 1846.8 1013.3 1846.1 1038.4 1843.7 1041.8 Z" data-holc_grade="D"/>
<path d="M 1868.8 1417 1874.9 1419.2 1883.7 1423.9 1891.9 1424.6 1901.5 1426.6 1913.7 1425.3 1924 1426.6 1925.3 1434.8 1936.9 1430 1949.9 1431.4 1960.8 1432.1 1962.9 1439.5 1958.8 1445 1958.8 1447.7 1965.6 1457.2 1967.6 1465.3 1969.7 1480.3 1971.1 1499.9 1971.1 1523 1968.4 1547.5 1968.4 1562.4 1970.4 1579.4 1971.1 1580.9 1968.4 1585.5 1967 1597 1961.5 1598.4 1947.2 1597.7 1929.5 1597.7 1913.8 1597 1894 1593.7 1894.7 1576 1897.4 1548.2 1898.1 1517.6 1898.8 1495.2 1897.4 1479.6 1893.3 1464 1883.1 1464 1870.1 1464.7 1857.8 1465.3 1846.2 1462 1837.4 1457.2 1829.9 1451.8 1824.4 1442.3 1814.8 1437.5 1814.8 1430.7 1814.2 1409.7 1814.2 1402.9 1825.1 1402.9 1833.9 1404.3 1843.5 1412.4 1855.8 1415.8 1864 1423.3 1868.8 1417 Z" data-holc_grade="D"/>
<path d="M 993.7 1224.1 987.5 1227.6 973.7 1232 965.3 1236.4 946.1 1243.8 939.4 1233.3 934.6 1225.1 933.8 1216.4 929 1212.9 926.4 1200.7 925.9 1192 927.2 1187.3 930.3 1182.5 936.4 1180.8 942.9 1177.7 950.4 1177.7 960 1180.3 963.9 1176 969.1 1169 973.5 1162.1 973.9 1170.8 974.4 1176.4 975.7 1183.4 977 1193.4 976.5 1201.6 978.7 1210.3 982.7 1215.5 993.7 1224.1 Z" data-holc_grade="D"/>
</g>
<g id="layer">
<g/>
</g>
</svg>