<?xml version="1.0"?>
<svg xmlns="http://www.w3.org/2000/svg" version="1.2" baseProfile="tiny" width="3000" height="3826" viewBox="0 0 3000 3826" stroke-linecap="round" stroke-linejoin="round">
<g id="A">
<path d="M 2337.8 471.3 2322.1 472.6 2160.9 475.8 2162.6 471.4 2162 438.8 2162.2 404.2 2185.2 377.6 2198.5 377.8 2334 373.7 2337.2 466.1 2337.8 471.3 Z" data-holc_grade="A"/>
<path d="M 1266.3 2388 1193.3 2388.3 1038.6 2389 1052.9 2350.1 1061.6 2308.8 1194.8 2308.4 1198.3 2319.9 1197.9 2341.6 1265.1 2341.7 1266.3 2388 Z" data-holc_grade="A"/>
<path d="M 1167.2 2508.1 1178.1 2549.1 1175.9 2563.5 1176.3 2587.1 1178.5 2606.5 1169.4 2614 1088.6 2501.2 1059.8 2500.2 1038.6 2389 1193.3 2388.3 1193.3 2421.4 1167.8 2422.2 1163.8 2502.1 1167.2 2508.1 Z" data-holc_grade="A"/>
<path d="M 1059.8 2500.2 1088.6 2501.2 1169.4 2614 1168.4 2622 1101.3 2675.9 1096.8 2679.6 1075.1 2703.8 1072.9 2711.7 1070.1 2728.1 1031.9 2731.9 1031 2695.7 1022.6 2643.8 1027.6 2500.1 1059.8 2500.2 Z" data-holc_grade="A"/>
<path d="M 1403.5 2765.9 1324.6 2768.9 1326.9 2853.3 1169.3 2857.6 1167 2798.1 1142.9 2746.9 1129.9 2743.2 1114.8 2744 1093.1 2741.6 1070.1 2728.1 1072.9 2711.7 1075.1 2703.8 1096.8 2679.6 1101.3 2675.9 1168.4 2622 1169.4 2614 1178.5 2606.5 1185.9 2621.2 1201.2 2640.8 1281.5 2639.5 1334.9 2638.6 1336.7 2671.3 1399.5 2648.9 1402.3 2732.6 1403.5 2765.9 Z" data-holc_grade="A"/>
</g>
<g id="B">
<path d="M 977.1 943.2 755.4 946.2 749.5 886.3 747.9 808.3 787.6 810.7 854.3 824.6 870.6 832.5 881.7 823.8 887.3 811.9 925.8 839.2 913.9 857 939.7 885.9 959.6 906.5 977.1 943.2 Z" data-holc_grade="B"/>
<path d="M 1390.7 2073.3 1390.9 2043.1 1318.3 2043.4 1318.2 2021.2 1314.3 1867.2 1407.2 1867.2 1411.9 2072.3 1390.7 2073.3 Z" data-holc_grade="B"/>
<path d="M 1311.9 2104.1 1312.9 2116.2 1323.1 2118.5 1327.7 2279.5 1263.1 2278.1 1262.7 2262.6 1197.2 2261.9 1193.9 2270.8 1187.2 2273.8 1133.9 2270.5 1069.7 2269.5 1076.3 2227.3 1091.8 2196.2 1097.1 2185.9 1191.4 2184.3 1191.7 2098 1311.9 2104.1 Z" data-holc_grade="B"/>
<path d="M 1605.3 2503.2 1608.2 2548.2 1609.9 2610.2 1610.6 2632.7 1485.9 2636.2 1479.8 2618.4 1479.4 2539.2 1465.7 2534.1 1435.5 2534.3 1435.9 2613.9 1422.6 2617.8 1423.1 2766.7 1403.5 2765.9 1402.3 2732.6 1399.5 2648.9 1336.7 2671.3 1334.9 2638.6 1281.5 2639.5 1201.2 2640.8 1185.9 2621.2 1178.5 2606.5 1176.3 2587.1 1175.9 2563.5 1178.1 2549.1 1167.2 2508.1 1201.4 2509.5 1268.3 2507.3 1267.9 2391.1 1266.3 2388 1265.1 2341.7 1197.9 2341.6 1198.3 2319.9 1194.8 2308.4 1061.6 2308.8 1069.7 2269.5 1133.9 2270.5 1187.2 2273.8 1193.9 2270.8 1197.2 2261.9 1262.7 2262.6 1263.1 2278.1 1327.7 2279.5 1393 2279.2 1395.3 2250.2 1520.8 2248.8 1523.1 2337.6 1602.6 2335.3 1605.3 2503.2 Z M 1525.7 2494 1579.5 2491.1 1576.9 2371.7 1522.7 2371.7 1413.6 2371.9 1417.2 2495.4 1525.7 2494 Z" data-holc_grade="B"/>
<path d="M 1525.7 2494 1417.2 2495.4 1413.6 2371.9 1522.7 2371.7 1525.7 2494 Z" data-holc_grade="B"/>
<path d="M 1522.7 2371.7 1576.9 2371.7 1579.5 2491.1 1525.7 2494 1522.7 2371.7 Z" data-holc_grade="B"/>
<path d="M 1635.1 2502.9 1638.4 2512.7 1647.7 2522.6 1658.7 2528.7 1677.1 2530.8 1690 2526.2 1702.7 2516.7 1709.2 2501.9 1724.7 2501.7 1739.4 2501.6 1746.6 2785.1 1610.8 2782.4 1610.6 2632.7 1609.9 2610.2 1608.2 2548.2 1605.3 2503.2 1635.1 2502.9 Z" data-holc_grade="B"/>
<path d="M 1361.1 833.6 1363.7 925.2 1154.8 929.6 1013.6 933.2 1014.3 844.1 968 812.4 975.7 797.2 969.6 756.8 983.6 753.5 1002.2 749.1 1013 749.2 1015.4 796.1 1072.3 796.4 1072.3 773.4 1034.2 773.7 1033.2 746 1012.5 746 1011.2 696.1 1249.8 689 1251.9 655.8 1307.2 655.6 1311.4 698.3 1339.2 697.5 1347.2 703.6 1350.4 720.7 1357.5 737.3 1358.3 787.1 1361.1 833.6 Z" data-holc_grade="B"/>
<path d="M 1511.1 704 1495.1 680.1 1480.8 664.8 1471 651.4 1468.6 596.5 1470.4 573.3 1479.4 562.8 1515.4 537.7 1532.9 523.2 1543.2 506.9 1550.8 469.3 1573.3 486.1 1568.4 552.4 1563.1 564.6 1551.2 581.4 1511.1 704 Z" data-holc_grade="B"/>
<path d="M 2081.4 538 2083.6 718.5 2063.7 719.6 2064.5 761.2 2086 761.5 2090.5 873.1 2020.1 875.7 2020.6 961.5 2007.5 972.7 1981 946.1 1980.2 919.4 1964.8 920.5 1964 805.7 1961.4 781.2 1957 780.2 1946.6 777.8 1862.1 806.8 1859.2 741.1 1791.1 740.6 1790.1 678.9 1939.4 678.2 1977.7 674.2 1990.4 672.9 2072.4 670.5 2070.4 614.9 2000.1 617.1 2042.7 565.6 2062.3 538.2 2081.4 538 Z" data-holc_grade="B"/>
<path d="M 2341.1 497.2 2332.3 497 2331.2 511.4 2334.8 527.9 2372.1 528 2372.9 554.9 2376.6 567.8 2380.1 589.7 2368.5 597.1 2348.3 599.8 2307.3 602.9 2300.4 611.6 2299.9 626.7 2303.6 635.9 2323.5 637.8 2326.3 637.6 2333.1 907.2 2301.2 908.5 2275.1 909.6 2265.8 636.3 2182.9 639 2179.2 567.8 2127.8 569.1 2140.6 871.7 2090.5 873.1 2086 761.5 2092.8 761.1 2090.4 718.6 2083.6 718.5 2081.4 538 2095.1 537.9 2093.3 506.5 2094.9 495.2 2105.5 481.7 2159.2 479.9 2160.9 475.8 2322.1 472.6 2337.8 471.3 2341.1 497.2 Z" data-holc_grade="B"/>
<path d="M 2182.9 639 2191.9 870.2 2163.5 871 2140.6 871.7 2127.8 569.1 2179.2 567.8 2182.9 639 Z" data-holc_grade="B"/>
<path d="M 2301.2 908.5 2306.9 1015.9 2199.2 1019.1 2191.9 870.2 2182.9 639 2265.8 636.3 2275.1 909.6 2301.2 908.5 Z" data-holc_grade="B"/>
<path d="M 128.7 1750.5 128.3 1530.2 138.6 1517.5 225.5 1457.7 297 1473.8 383.1 1488.6 389.2 1503.4 335.1 1556.4 241.8 1644.7 218.8 1671.9 175.3 1712.8 128.7 1750.5 Z" data-holc_grade="B"/>
<path d="M 660.3 2263 691.8 2263.7 705.8 2290.4 738.4 2313.9 762.3 2330.3 779.2 2347.7 805.4 2365.6 783.4 2390.4 772.3 2404.7 759.9 2426.6 727.3 2469.6 718.2 2488.3 717.7 2512.9 548.1 2528.1 545.8 2404.9 540.8 2292.2 572.3 2261 660.3 2263 Z" data-holc_grade="B"/>
</g>
<g id="C">
<path d="M 747.9 808.3 749.5 886.3 755.4 946.2 678.7 948.6 633.1 768.4 598.1 651.3 697.7 648.4 698.7 673.8 741.7 672.8 739.3 752.6 740.3 809.3 747.9 808.3 Z" data-holc_grade="C"/>
<path d="M 1498.8 1415 1382 1446.1 1381.2 1436.3 1337.7 1445.2 1338 1453.2 1217 1477.8 1203.7 1432.3 1164.4 1440.1 1175.4 1486.2 1095.9 1502.3 1077.6 1507.3 1064.1 1515.5 1048.7 1516.1 1041.4 1513.9 1035.8 1460.3 1039.8 1426.7 1044.8 1414.2 1057.1 1399 1097 1361.4 1129.6 1314.9 1171.3 1324.8 1188 1323.6 1236.7 1314.7 1244.2 1352.5 1284.7 1344.2 1276.6 1306.8 1462.9 1267.8 1469.9 1301.4 1425.4 1310.1 1436.5 1359.3 1446.6 1403.8 1458.2 1402 1494.5 1394.6 1498.8 1415 Z M 1803.1 1227.1 1825.9 1347.1 1670.7 1380.4 1668.7 1381.1 1655.6 1320.7 1633.2 1218.1 1656.5 1214.2 1660.9 1234.6 1715.9 1222.3 1721.4 1212 1757.4 1230.8 1765.1 1220.7 1777.1 1225.5 1803.1 1227.1 Z" data-holc_grade="C"/>
<path d="M 2178.4 1784.7 2248.9 1786.3 2273.5 1781.3 2322.3 1801.8 2325.1 1954.9 2325.3 1961.8 2306.7 1962.4 2250.3 1964.2 2245 1865.5 2200.1 1865.4 2122 1865.2 2119.6 1815.9 2070.4 1814.8 2074.6 1943.6 2123.9 1944.7 2123.4 1979 2003.8 1979.3 1963.3 1979.4 1882.6 1979.6 1721.8 1979.8 1719.8 1922.7 1716.7 1834.6 1714.9 1780.9 1594.9 1780.1 1591.4 1678.8 1709.3 1677.4 1712 1724.9 1660.3 1725.2 1660.8 1748.9 1713.5 1749.5 1713.9 1749.5 1714.1 1749.5 1843.1 1751 1847.9 1834.4 1981.6 1827.3 1981.1 1796.1 2177.9 1793.4 2178.4 1784.7 Z M 1252.3 1713.5 1382.5 1715.1 1380.9 1687.3 1438.8 1688 1558 1692.3 1562.3 1781.7 1379.9 1784 1379.2 1839.7 1313.6 1840.4 1314.3 1867.2 1318.2 2021.2 1189.4 2018.5 1188.2 1975.4 1184.9 1929.8 1065.7 1927.8 1061.4 1848 1052.2 1844.4 1028.3 1845 1026.7 1809.7 935.3 1811 936 1797.8 931 1784.3 929.7 1753.6 930.8 1718.3 991.8 1718.6 991.2 1657.9 984.9 1611.8 1148.8 1608.8 1150.1 1643.1 1222.9 1643.8 1209.7 1658.6 1239.1 1679.1 1212 1713.1 1252.3 1713.5 Z M 1440.7 1724.8 1440 1771.8 1508 1771.5 1508.5 1725.8 1440.7 1724.8 Z M 1173 1807.9 1170.8 1849.3 1228.9 1850.7 1226.6 1808.8 1173 1807.9 Z M 1064.1 1515.5 1077.6 1507.3 1095.9 1502.3 1175.4 1486.2 1217 1477.8 1338 1453.2 1339.6 1513.9 1381.7 1514.4 1382 1446.1 1498.8 1415 1498.5 1443.2 1518.1 1442.7 1517.8 1472.5 1475.7 1472 1474.4 1517.6 1533.5 1516 1533.5 1484.6 1575.1 1482.5 1575.3 1447.4 1605.8 1447.2 1606 1481.5 1663.8 1479.1 1662.5 1512.6 1622.7 1512.9 1623.3 1556.1 1482.6 1555.6 1482.1 1568.5 1379.3 1568.8 1378.3 1583.1 1037.1 1580.4 1035.5 1544.8 1067.8 1541.4 1064.1 1515.5 Z M 2227.3 1260.7 2228.6 1291.9 2089.2 1295.2 2088.9 1298 2091.3 1368.9 2154.1 1389.5 2152.6 1460.2 1662 1453.2 1650.6 1388.3 1668.7 1381.1 1670.7 1380.4 1825.9 1347.1 1803.1 1227.1 1814.5 1226.5 1877.3 1189.3 1915.4 1160.3 1926.5 1152.6 1958.3 1140 1966.8 1129.7 1976.3 1129.9 1999.4 1109.9 2030.1 1111.7 2030.1 1145.8 1991.9 1147.1 1992.7 1166.4 2033.5 1167.7 2111.7 1183.7 2177.3 1211.7 2198.5 1217.5 2225.5 1219.8 2227.3 1260.7 Z M 1869.6 1233 1871.2 1283.4 1912 1282.9 1909.3 1231.7 1869.6 1233 Z M 1866.4 1312.7 1867 1349.4 1968.7 1345.9 1969.5 1334.8 1910.9 1312.2 1866.4 1312.7 Z" data-holc_grade="C"/>
<path d="M 824.9 2255.8 822.3 2190.7 846.2 2190.9 947.2 2188.9 947.2 2125.9 883.6 2127.2 765.4 2087.6 762.5 1991.6 749.9 1993.9 746.6 1990.6 751.6 1926 808.5 1926.6 812.1 2046.7 885 2091.3 992.3 2087.7 1026 2243 1033 2266.1 1031 2272.4 1010.4 2272.1 1008.5 2251.3 969.4 2255.6 824.9 2255.8 Z M 664.6 1717.4 691.3 1718.2 930.8 1718.3 929.7 1753.6 827.7 1756.3 823.8 1763.1 820.6 1849.7 699.8 1922.5 697.6 2098.5 659.4 2097.4 654.7 1921.1 654.5 1837.7 649.8 1718.6 649.8 1716.9 664.6 1717.4 Z" data-holc_grade="C"/>
<path d="M 2398 2228.5 2390.5 1954.5 2457.1 1951 2455 1878.6 2474.7 1879.6 2488.6 1888.9 2502.9 1889.7 2504.1 1903.7 2528.6 1902.7 2531.2 1917.8 2543.5 1918.3 2543.9 1928.2 2572.3 1928.4 2572.9 1945.1 2613.8 1943.4 2675.8 1977.5 2713.2 2059.4 2736.5 2148.4 2737.1 2184.3 2729.4 2214.6 2717.5 2219.1 2630.8 2216 2520.2 2222.2 2398 2228.5 Z M 2508 1421 2729.1 1412.8 2729.1 1404.3 2749.7 1403.8 2749.8 1579.8 2994.5 1582.6 2999 1944.3 2930.7 1944.4 2929.8 1816.9 2920.5 1807.9 2868.9 1808.5 2866.5 1864.5 2871 1870.8 2886.6 1870 2895.1 1873.7 2904.1 1888.7 2902 1917.5 2896.2 1944.9 2665.2 1948.5 2651.4 1944.3 2639.5 1937.1 2446 1720 2428.3 1710 2426.4 1685.5 2370.8 1685.2 2368.7 1620.9 2416.1 1619.5 2416.3 1582.1 2304.8 1582.6 2306.2 1637.2 2249.5 1602.7 2249.2 1575.8 2152.3 1577.4 2152.6 1460.2 2154.1 1389.5 2262.4 1426.2 2302.9 1426.6 2303.9 1465.5 2344.5 1465.1 2343.1 1422 2311.5 1424 2307.1 1290 2228.6 1291.9 2227.3 1260.7 2366.2 1257.1 2367.3 1288.3 2334.1 1288.5 2334.9 1339.9 2370.7 1340.1 2374 1398.4 2377.1 1425.9 2508 1421 Z M 2635.1 1672.5 2637 1747.5 2683.2 1746.1 2683.4 1670.7 2635.1 1672.5 Z" data-holc_grade="C"/>
<path d="M 2123.9 1944.7 2122 1865.2 2200.1 1865.4 2245 1865.5 2250.3 1964.2 2306.7 1962.4 2325.3 1961.8 2325.1 1954.9 2390.5 1954.5 2398 2228.5 2303.1 2233.1 2302.3 2225.4 2250.2 2226.6 2250.2 2239.7 2241.1 2239.7 2155.1 2239.8 1859.8 2240.2 1858.4 2199.5 2016.2 2196.8 2016.4 2122.2 2006.4 2122.2 2003.4 2039.5 2003.8 1979.3 2123.4 1979 2123.9 1944.7 Z" data-holc_grade="C"/>
<path d="M 2003.4 2039.5 2006.4 2122.2 1855.6 2122 1858.4 2199.5 1859.8 2240.2 1832 2240.6 1831.2 2153.3 1787.5 2154.3 1786.5 2116.1 1714.9 2117.7 1717.5 2247.2 1672.8 2248 1670.2 2180.8 1665.1 2163.8 1600.1 2083.5 1585.2 2070.6 1584.6 2048.8 1605.7 2048.2 1604.6 1982.4 1721.8 1979.8 1882.6 1979.6 1963.3 1979.4 1964.3 2040.1 2003.4 2039.5 Z" data-holc_grade="C"/>
<path d="M 1562.3 1781.7 1570 2048.9 1584.6 2048.8 1585.2 2070.6 1600.1 2083.5 1665.1 2163.8 1670.2 2180.8 1672.8 2248 1675.2 2335.6 1679.8 2388.7 1693 2425.7 1708.3 2460.6 1738.8 2497.9 1739.4 2501.6 1724.7 2501.7 1709.2 2501.9 1635.1 2502.9 1605.3 2503.2 1602.6 2335.3 1523.1 2337.6 1520.8 2248.8 1395.3 2250.2 1393 2279.2 1327.7 2279.5 1323.1 2118.5 1392.3 2115.2 1390.7 2073.3 1411.9 2072.3 1407.2 1867.2 1314.3 1867.2 1313.6 1840.4 1379.2 1839.7 1379.9 1784 1562.3 1781.7 Z M 1639.2 2225.6 1618.2 2238.2 1609.4 2238.2 1602.9 2233.5 1593.5 2239.4 1593.5 2282.4 1597.1 2306.9 1642.4 2306.5 1639.2 2225.6 Z M 1719.8 1922.7 1721.8 1979.8 1604.6 1982.4 1594.9 1780.1 1714.9 1780.9 1716.7 1834.6 1617.5 1837 1620.1 1925.7 1719.8 1922.7 Z" data-holc_grade="C"/>
<path d="M 1318.2 2021.2 1318.3 2043.4 1254.7 2040.8 1255 2081.9 1311.4 2083.8 1311.9 2104.1 1191.7 2098 1191.4 2184.3 1097.1 2185.9 1091.8 2196.2 1056.8 2177.5 1055.5 2160.8 1070.6 2138.7 1071.4 2122 1069.3 2095.4 1071.1 2080.6 1065 2055.8 1065.7 1927.8 1184.9 1929.8 1188.2 1975.4 1189.4 2018.5 1318.2 2021.2 Z" data-holc_grade="C"/>
<path d="M 756.1 2646.7 726 2692.9 683.9 2749.6 649.1 2796.5 573.2 2799.4 567.3 2790.5 569.6 2778.3 574.9 2753.5 584.2 2742.3 592.8 2729.8 409.6 2730.4 422.8 2986.1 427.7 3148.5 464.8 3150.5 461.8 3213.2 456.1 3225.1 609.5 3222.2 621.4 3258.1 665.8 3254.9 717.8 3331.1 767.8 3417.3 768.5 3458.5 799.6 3461.2 797.3 3489.2 799.6 3501.1 843 3567.2 837 3573.1 718.4 3576 720 3769.8 716.4 3784.3 718.3 3809.7 717.7 3820.6 569.9 3824.5 563.3 3769.1 533.1 3739 441.6 3808 402.5 3789.2 403.5 3773.3 397.9 3745.9 358.1 3748.2 360.5 3757.1 305.1 3758.7 304.8 3721.4 293.5 3710.9 297.6 3556.7 366.9 3530.7 365.2 3482.5 361.3 3383.1 359.4 3221.7 272.6 3223.3 264.7 3009.5 265.7 2992.3 349.2 2973.5 342.7 2825 349.6 2797.3 345.7 2656.1 483.9 2653.8 704.8 2651 709.1 2660.5 738.9 2650 756.1 2646.7 Z" data-holc_grade="C"/>
<path d="M 1859.8 2240.2 2155.1 2239.8 2241.1 2239.7 2250.2 2239.7 2252 2267.2 2262.7 2267.2 2272.3 2509.3 1893.5 2508.4 1894.8 2780.4 1860 2779.1 1853.2 2509.8 1807.3 2511.2 1809.5 2637.5 1777.1 2635.7 1783.1 2787.6 1746.6 2785.1 1739.4 2501.6 1738.8 2497.9 1708.3 2460.6 1693 2425.7 1679.8 2388.7 1675.2 2335.6 1672.8 2248 1717.5 2247.2 1788.8 2245.6 1791.6 2281.5 1830.4 2281.5 1832 2240.6 1859.8 2240.2 Z" data-holc_grade="C"/>
<path d="M 874 613.5 874.8 623.6 874.8 672.4 865.5 672.8 865.4 687.1 865.2 717.3 796.7 716.6 799 672.7 741.7 672.8 698.7 673.8 697.7 648.4 705.6 648.6 697.9 530.7 702.2 394.4 867.4 400.8 871.8 582.4 874 613.5 Z" data-holc_grade="C"/>
<path d="M 1511.1 704 1551.2 581.4 1563.1 564.6 1568.4 552.4 1573.3 486.1 1550.8 469.3 1551.5 440.3 1546.9 421.8 1523.4 428.1 1521 447.2 1514.4 486.8 1505.5 519.4 1486 539.9 1463.5 561 1451.2 574.5 1444.9 593.6 1445.3 617.7 1452.5 646 1465.4 665.1 1470.1 677.7 1484 685.9 1504.8 717.9 1508.8 736.4 1487 740 1461.5 738.7 1445.3 701.4 1419.1 662.2 1378.1 664.1 1385.3 736.4 1357.5 737.3 1350.4 720.7 1347.2 703.6 1339.2 697.5 1311.4 698.3 1307.2 655.6 1251.9 655.8 1249.8 689 1011.2 696.1 1006.7 670.3 874.8 672.4 874.8 623.6 874 613.5 916.8 611.1 912.9 433.4 985.3 478.3 987.6 611.8 1021.7 610.2 1020.7 501.7 1005.5 491.1 1003.9 401.5 1131.3 401.8 1131.9 455.2 1259.3 451.3 1275.9 454.6 1323.5 460.9 1324.2 472.7 1397 467.5 1405.3 468.8 1405.9 387.3 1540.6 391 1540 379.1 1535.7 365.6 1532.7 362.3 1501.2 355 1487.7 343.5 1473.8 326 1473.5 319.1 1460.5 314.8 1435.4 316.1 1425.5 303.9 1417.9 284.2 1403 276.9 1403 251.9 1426.8 248.9 1463.9 246.3 1510.2 247.6 1542.9 227.1 1572.1 226.8 1590.9 229.4 1656.8 141.8 1748.7 4.6 1798.7 1 1801.4 153.6 1786.5 169.4 1760.3 196.8 1746.4 214.3 1734.5 237.7 1674 236.4 1644.9 235.7 1594.2 244.3 1590.2 265.9 1582.6 330.5 1633.9 327.5 1701.4 328.2 1678.2 376 1646.8 425.5 1593.5 531 1586.6 547.4 1582.3 564.9 1587.6 604.8 1592.5 634.8 1624.3 703.1 1545.5 706.4 1535.3 730.7 1511.1 704 Z M 2196.2 336.8 2198.2 344.4 2198.5 377.8 2185.2 377.6 2162.2 404.2 2162 438.8 1928.4 442.5 1928.2 512.2 1764.6 517.2 1763.8 490.8 1662.4 493.5 1710.6 446.5 1717.2 430.4 1722.5 410.4 1730.4 398.2 1765.1 390.3 1765.6 359.7 1839.5 242.9 1868 199.4 1909.6 224.7 1932.9 217.3 2005.7 206.5 2077.7 176.4 2080.1 154.2 2096 150.6 2128.8 124.2 2184.4 155.8 2194.7 331.4 2196.2 336.8 Z" data-holc_grade="C"/>
<path d="M 2326.3 637.6 2323.5 637.8 2303.6 635.9 2299.9 626.7 2300.4 611.6 2307.3 602.9 2348.3 599.8 2368.5 597.1 2380.1 589.7 2376.6 567.8 2372.9 554.9 2372.1 528 2379.8 527.2 2382.7 519 2382.2 495.8 2341.1 497.2 2337.8 471.3 2337.2 466.1 2334 373.7 2198.5 377.8 2198.2 344.4 2196.2 336.8 2234.9 287.5 2287.9 321.8 2302.7 311 2463.1 307.5 2463.4 357.9 2538.6 355.2 2550.6 628.4 2326.3 637.6 Z" data-holc_grade="C"/>
<path d="M 2000.1 617.1 1936.6 619.7 1933.9 519.2 1928.2 512.2 1928.4 442.5 2162 438.8 2162.6 471.4 2160.9 475.8 2159.2 479.9 2105.5 481.7 2094.9 495.2 2093.3 506.5 2095.1 537.9 2081.4 538 2062.3 538.2 2042.7 565.6 2000.1 617.1 Z M 1764.6 517.2 1770.2 679.8 1790.1 678.9 1791.1 740.6 1859.2 741.1 1862.1 806.8 1946.6 777.8 1957 780.2 1961.4 781.2 1964 805.7 1964.8 920.5 1980.2 919.4 1981 946.1 2007.5 972.7 2000.1 978.5 1998.2 985.6 2002.7 998.6 2009.6 1010.4 2012 1025.5 2011.2 1055.3 2005.4 1067.7 1825.1 1188 1778.5 1193.3 1771.8 1157.7 1794.1 1134.7 1802 1121 1815.3 1092.2 1820.6 1074.8 1826.6 1069.3 1857.9 997 1854.2 967.7 1835.9 884.1 1815.2 816.3 1812.3 795.5 1815.5 765.9 1786.9 765.7 1773.6 742.2 1752.2 743 1749.5 735.9 1741.1 737.2 1740 725.8 1707.7 727.2 1706.7 695.8 1701.9 686 1674.9 678.6 1669.8 672.8 1663.8 660.4 1700 658.9 1697.3 538.1 1644.9 538.6 1637.5 531.7 1662.4 493.5 1763.8 490.8 1764.6 517.2 Z" data-holc_grade="C"/>
<path d="M 2306.9 1015.9 2312.1 1153.2 2295.9 1161.5 2277.1 1164.1 2234.7 1163.5 2225.4 1134.8 2209.5 1120.6 2209.5 1109.4 2200.6 1084.7 2185.7 1054.4 2185 1033.2 2180.4 1018.1 2062.5 1022.4 2109.8 941.6 2165.8 918.8 2163.5 871 2191.9 870.2 2199.2 1019.1 2306.9 1015.9 Z" data-holc_grade="C"/>
<path d="M 1568.1 784.7 1703.4 785.3 1726.2 794.6 1736.5 794.2 1737.3 804.3 1760 804.4 1773.5 846.2 1780.8 860.2 1784.6 883 1786.8 906.3 1809.8 909.3 1811 931.1 1815.2 933.2 1825.9 933 1831.7 965.7 1829.3 997.5 1810.5 1031 1654.5 1033.8 1649.4 1043.1 1664.7 1049.6 1660.1 1068.2 1656.5 1095.5 1646.2 1097.9 1638.5 1096.1 1639.9 1083.4 1602.5 1076.1 1623.4 1001.9 1641.8 991.8 1654.5 972.6 1656.3 966.3 1655.7 929.7 1670.4 929.7 1679.2 916.4 1677.2 864.8 1636.3 863.8 1630.3 847.6 1618 837.1 1612.6 837.1 1582 804.7 1568.1 784.7 Z" data-holc_grade="C"/>
<path d="M 1656.5 1214.2 1633.2 1218.1 1474.3 1244.2 1459.8 1246.6 1462.9 1267.8 1276.6 1306.8 1276.3 1299.3 1236.2 1310.8 1236.7 1314.7 1188 1323.6 1171.3 1324.8 1129.6 1314.9 1198.2 1230.4 1217.8 1245.9 1262.8 1209.6 1288 1191.5 1302.5 1199.1 1319.7 1203.4 1354.8 1198.4 1376 1192.8 1389.6 1177.3 1399.8 1171.4 1416.1 1166.1 1456.1 1135.8 1463.7 1183.2 1516.7 1171.4 1510.4 1130.8 1590.5 1115.3 1592.5 1089.9 1608.4 1113.7 1618.7 1126.2 1627.3 1128.5 1635.5 1140.7 1638.2 1153.9 1713.7 1139 1718.3 1167.4 1649.8 1181.6 1656.5 1214.2 Z M 728.1 1105.2 872.7 1104.3 1072.3 1099.7 1157.3 1095.7 1154.8 929.6 1363.7 925.2 1361.1 833.6 1388.6 828.6 1465.7 829.2 1469.7 1004.1 1466.4 1021.6 1430.5 1099.9 1417.3 1118.1 1399.2 1129.1 1393.3 1110.8 1386.5 955.2 1348.6 955.3 1349.7 1065.8 1354.5 1092.3 1361.3 1132.2 1319.6 1129.7 1289.4 1128.9 1284.2 1071.4 1227.8 1071.1 1229.8 1124 1161.9 1124.1 1162.7 1216.3 1150.7 1228.1 1117.6 1227.7 1115.6 1260 1112.4 1270.6 1094.4 1255.5 1022 1232.9 1020.9 1185.6 904.5 1186.5 903.7 1197.2 872.3 1187.6 879 1191.4 836.7 1177.8 836.6 1270.3 838.8 1289.6 843.8 1302.8 867.7 1270.2 911.4 1272.8 911.5 1305.4 950.2 1304.6 949.9 1237 1001 1254 1002.8 1254.6 1048 1268.3 1096 1285 1090.4 1290.9 1081.8 1307.3 1108.4 1322.4 1095.6 1344.3 1044.8 1394.2 1024.4 1396 1023.9 1412.9 1018.3 1418.7 998.4 1422.1 998.7 1451.4 997.9 1461.4 971.7 1464.9 964.3 1459 956.8 1441.1 956.6 1421.8 960 1406.5 972.2 1380.2 972.2 1344.3 957.7 1332.9 936.5 1332.1 921.1 1339.5 902 1362.7 887.7 1390.7 876.6 1440 870.8 1448.5 859.6 1450.6 860.2 1424.7 845.6 1422.6 821.5 1424.2 814.4 1410.2 803.8 1396.7 795.8 1397 781.3 1388.3 780.7 1376.2 817.8 1316.5 750.3 1320.5 739.2 1313.1 739.7 1273.5 734.2 1166.9 736 1157.7 751.4 1163.8 751.7 1141.9 745.3 1137.9 750.1 1126.8 728.1 1105.2 Z" data-holc_grade="C"/>
<path d="M 728.1 1105.2 714.8 1093.4 678.7 948.6 755.4 946.2 977.1 943.2 1013.2 942.7 1013.6 933.2 1154.8 929.6 1157.3 1095.7 1072.3 1099.7 872.7 1104.3 728.1 1105.2 Z" data-holc_grade="C"/>
<path d="M 122.3 1248.6 135.5 1250 200.4 1269.8 223.6 1273.4 260.6 1291.6 274.2 1307.1 279.2 1327.5 283.1 1360.5 282.1 1402.1 181.1 1376.3 178.8 1364.4 166.3 1363.4 123.6 1350.6 122.3 1248.6 Z" data-holc_grade="C"/>
</g>
<g id="D">
<path d="M 664.6 1717.4 649.8 1716.9 649.8 1718.6 583.2 1719.9 545.1 1744 532.9 1763.2 532.1 1782.6 388.9 1783.5 390.1 1843.7 486.8 1846.5 560.9 1841.2 563.1 1921.3 563.8 1995.6 488.3 1997.1 433.1 1997.7 255.7 2000.2 253.4 1863 137.1 1869.9 137.3 2001.3 74.5 2010 69.3 2005.8 1.8 2007.5 1 1948.4 76.1 1882.7 93.2 1861.5 107.6 1844.5 158.2 1796.8 220.6 1747.2 240.7 1726.9 234 1717 257 1693.3 394.9 1588.9 499.4 1583.8 513.7 1579.8 515.7 1572.3 570.6 1573.5 571.8 1547.4 613.1 1547 612.7 1573.1 663.1 1571.5 666.3 1673.7 664.6 1717.4 Z M 503.1 1656.2 503.2 1679.3 552.1 1679.1 550.9 1656.4 503.1 1656.2 Z" data-holc_grade="D"/>
<path d="M 691.8 2263.7 660.3 2263 659.6 2195.3 822.3 2190.7 824.9 2255.8 803.8 2257.9 691.8 2263.7 Z" data-holc_grade="D"/>
<path d="M 2178.4 1784.7 2177.9 1793.4 1981.1 1796.1 1981.6 1827.3 1847.9 1834.4 1843.1 1751 1714.1 1749.5 1713.9 1749.5 1713.5 1749.5 1712 1724.9 1709.3 1677.4 1591.4 1678.8 1588.8 1630.8 1705.6 1630.4 1714.8 1652.2 2014.4 1638.7 2110.5 1688.6 2112.9 1740 2176.5 1740.8 2178.4 1784.7 Z M 1558 1692.3 1438.8 1688 1380.9 1687.3 1382.5 1715.1 1252.3 1713.5 1352.8 1638.8 1436.7 1637.6 1436.7 1617 1555.9 1617 1558 1692.3 Z" data-holc_grade="D"/>
<path d="M 1662.5 1512.6 1663.8 1479.1 1662 1453.2 2152.6 1460.2 2152.3 1577.4 2010.8 1577.8 2011.2 1560.8 1872.2 1559.2 1873.7 1541.8 1764.1 1548.9 1763.7 1511.3 1662.5 1512.6 Z" data-holc_grade="D"/>
<path d="M 2729.1 1404.3 2729.1 1412.8 2508 1421 2496.8 1299.5 2456.9 1289 2466 1270.2 2475.5 1259.3 2477.1 1244.3 2484.9 1241.5 2486.6 1221.5 2496.6 1207.8 2590 1238.1 2569 1315.5 2546.8 1318.3 2548.4 1377 2659.2 1372.3 2658.2 1339 2672.1 1345.9 2694 1349.9 2712.2 1351.5 2726.1 1356.4 2729.1 1404.3 Z M 2487.4 1197 2482.7 1205 2425.7 1202.4 2412.4 1232.3 2396.5 1227.6 2386.9 1223.4 2378.6 1239.6 2332.1 1222.2 2368.3 1164.8 2391.3 1157.5 2411.5 1155.9 2427 1161.1 2415.5 1180.5 2461 1182 2466.8 1187.2 2466.4 1193.5 2487.4 1197 Z" data-holc_grade="D"/>
<path d="M 1787.5 2154.3 1788.8 2245.6 1717.5 2247.2 1714.9 2117.7 1786.5 2116.1 1787.5 2154.3 Z" data-holc_grade="D"/>
<path d="M 1869.6 1233 1909.3 1231.7 1912 1282.9 1871.2 1283.4 1869.6 1233 Z" data-holc_grade="D"/>
</g>
</svg>