<?xml version="1.0"?>
<svg xmlns="http://www.w3.org/2000/svg" version="1.2" baseProfile="tiny" width="3000" height="2770" viewBox="0 0 3000 2770" stroke-linecap="round" stroke-linejoin="round">
<g id="A">
<path d="M 511.4 320 696.6 318.1 743.4 379.1 744.3 426.2 731.8 425.4 713.2 423.9 647.2 425.4 646.8 463.8 647.5 508.9 646 560.4 644.6 580.7 589.2 579.6 587 534.6 514.4 537.1 512.6 557.1 443.7 559.6 445.5 485.2 513 484.5 511.4 320 Z" data-holc_grade="A"/>
<path d="M 640.1 864.3 743.9 863.5 744.5 960.7 673 960.5 671.4 1013.6 645.4 1014.9 637.7 1008.8 638.3 934.6 640.1 864.3 Z" data-holc_grade="A"/>
</g>
<g id="B">
<path d="M 788 57.4 790.9 205.2 669.3 207.2 567.2 54.7 557.3 46.6 549.7 41.9 509.2 4.5 589.5 2.8 635.1 1 669.7 2.5 728.8 2.8 774 2.5 788.2 2.5 788 57.4 Z" data-holc_grade="B"/>
<path d="M 744.3 426.2 745.1 500.8 814 500.4 849.9 557.9 849.9 689.7 798 690.8 794.7 692.1 795.6 757 878.5 757.7 878.1 897.7 896.4 897.7 901.7 902.8 903 979.9 907.1 1106.7 926.8 1106.2 927.7 1186.3 766.6 1188.9 766.6 1189.4 766.4 1115.4 760.7 1106.6 732.9 1106.2 609.1 1106.6 506.5 1104.8 506.7 968 510.9 858.2 512.7 822.3 443.7 822.8 444.2 752.6 446.8 748 513.5 747.2 513.6 805.5 520.8 802.9 642.7 801 642.3 684.6 516.7 684.6 515.6 631.7 510.6 627.5 450.2 629.9 444.7 625.1 443.7 559.6 512.6 557.1 514.4 537.1 587 534.6 589.2 579.6 644.6 580.7 646 560.4 647.5 508.9 646.8 463.8 647.2 425.4 713.2 423.9 731.8 425.4 744.3 426.2 Z M 640.1 864.3 638.3 934.6 637.7 1008.8 645.4 1014.9 671.4 1013.6 673 960.5 744.5 960.7 743.9 863.5 640.1 864.3 Z" data-holc_grade="B"/>
<path d="M 2498.3 1664.3 2436.9 1664.1 2305.9 1664.6 2295.5 1664.6 2179.9 1665 2174.9 1663.7 2176 1596.2 2177.9 1596.4 2179.8 1596.6 2181.6 1596.7 2183.5 1596.8 2185.4 1596.8 2187.2 1596.7 2189.1 1596.5 2191 1596.3 2192.9 1596 2194.8 1595.6 2196.7 1595.1 2198.6 1594.6 2200.6 1594.1 2202.6 1593.4 2204.6 1592.7 2206.6 1591.9 2209.8 1590.5 2213.1 1588.9 2216.6 1587.1 2220.4 1585 2224 1582.9 2228 1580.5 2245.9 1569.4 2250.4 1566.6 2254.6 1564.1 2259.5 1561.3 2264.2 1558.8 2268.8 1556.4 2273.3 1554.1 2278.6 1551.6 2283.8 1549.3 2289.1 1547.1 2294.4 1545.1 2299.8 1543.2 2305.2 1541.5 2310.6 1539.9 2316.1 1538.5 2407.1 1539.8 2547.8 1540.3 2642.6 1538.9 2736.6 1539.1 2736.3 1664.6 2619.2 1664.6 2508.7 1664.3 2498.3 1664.3 Z M 2738.6 1380.5 2736.5 1495.1 2684.4 1496.2 2481.9 1497.3 2481.7 1416.4 2591.8 1415.4 2592.2 1383.4 2738.6 1380.5 Z M 2423.2 1414.8 2421.7 1498.4 2317.6 1497.3 2298 1499.3 2291.2 1500.6 2284.4 1502.1 2277.7 1503.8 2271 1505.7 2264.4 1507.7 2257.9 1510 2251.4 1512.5 2245 1515.2 2238.7 1518 2232.4 1521.1 2226.3 1524.3 2220.3 1527.7 2214.4 1531.3 2208.5 1535.1 2202.8 1539.1 2180.3 1552.9 2180.3 1552.2 2181.1 1548.8 2181.9 1445.2 2181.9 1443.9 2183 1380.5 2309.4 1379.2 2312.7 1386.6 2313.6 1414.5 2313.6 1415.1 2423.2 1414.8 Z M 2738.6 1380.5 2740.4 1250.3 2797.3 1252.8 2795.2 1377.4 2790.4 1380.6 2738.6 1380.5 Z" data-holc_grade="B"/>
<path d="M 2179 1716.4 2180.6 1860.1 1964.4 1861.9 1883.6 1861.9 1880.3 1867.1 1880.1 1904 1645.1 1904.2 1615.8 1904.4 1613.7 1738 1613.6 1736 1626.7 1736 1626.7 1763.3 1873 1762.9 1971.1 1761.8 1970.7 1715.7 2179 1716.4 Z" data-holc_grade="B"/>
<path d="M 1672.2 1985.8 1819.3 1985.3 1818.9 2125.2 1728.7 2126.1 1670.5 2054.6 1672.2 1985.8 Z" data-holc_grade="B"/>
</g>
<g id="C">
<path d="M 998.4 406.4 793.4 408.8 791.9 278.5 997.8 275 998.4 406.4 Z" data-holc_grade="C"/>
<path d="M 443.7 822.8 512.7 822.3 510.9 858.2 506.7 968 506.5 1104.8 609.1 1106.6 732.9 1106.2 760.7 1106.6 766.4 1115.4 766.6 1189.4 767.7 1376.6 767.7 1377.2 437.6 1381.1 422 1381.5 419.4 1378.5 387.1 1378.1 386.6 1378.1 362.5 1377.8 160.9 1161.7 146.6 1144.4 145.6 1143.2 144.7 1142.1 144.1 1141.2 143.6 1140.3 143.1 1139.4 142.7 1138.4 142.4 1137.5 142.1 1136.6 142 1135.7 141.9 1134.8 141.8 1133.9 141.9 1132.9 142 1132 142.2 1131.1 142.5 1130.2 142.8 1129.3 143.3 1128.4 143.7 1127.5 144.3 1126.6 145 1125.7 145.7 1124.8 146.4 1123.9 147.3 1123 148.2 1122.2 150.3 1120.5 152.6 1118.9 155.1 1117.3 157.9 1115.8 160.9 1114.4 164.2 1113 167.6 1111.8 171.2 1110.6 174.9 1109.6 178.8 1108.7 182.8 1107.8 186.9 1107.1 191.1 1106.6 195.3 1106.1 199.5 1105.8 203.8 1105.6 208.1 1105.5 212.4 1105.6 216.7 1105.7 220.9 1106.1 225.1 1106.5 231 1099.2 231.4 903.9 229.7 738 228.3 566.6 231.9 563 375.2 561.2 379.5 822.6 417.1 823 443.7 822.8 Z" data-holc_grade="C"/>
<path d="M 998.4 406.4 997.8 275 791.9 278.5 719.9 278.7 738.9 316.6 727.1 317.9 769.3 392.7 782.5 415.3 829.5 496.6 925.5 652.3 937.5 674.6 1037.9 824.5 1073.8 823.6 1076.6 1024.5 1071.2 1035 1070.9 1035 1070.9 1035.5 1070.9 1035.6 1072 1104 926.8 1105.7 926.8 1106.2 907.1 1106.7 903 979.9 901.7 902.8 896.4 897.7 878.1 897.7 878.5 757.7 905.2 757.5 910.9 751.9 911.4 693.9 907.4 690 849.9 689.7 849.9 557.9 814 500.4 745.1 500.8 744.3 426.2 743.4 379.1 696.6 318.1 511.4 320 509.7 243.5 509.2 4.5 549.7 41.9 557.3 46.6 567.2 54.7 669.3 207.2 790.9 205.2 788 57.4 847.2 56.2 965.3 57.4 1068.3 58 1074.7 63.5 1075.8 250.1 1075.4 405.6 1017 406.2 998.4 406.4 Z" data-holc_grade="C"/>
<path d="M 2179.9 1665 2179 1716.4 1970.7 1715.7 1971.1 1761.8 1873 1762.9 1626.7 1763.3 1626.7 1736 1626.7 1717.9 1653 1716.1 1863.8 1717.9 1863.8 1665.2 2088.2 1664.8 2174.9 1663.7 2179.9 1665 Z M 1892.1 1381.2 2183 1380.5 2181.9 1443.9 2181.9 1445.2 2181.1 1548.8 2180.3 1552.2 2177.8 1562.7 2171.9 1575.8 2158.6 1593.7 2040.8 1595 2039.7 1652.7 1880.8 1652.8 1619.1 1653 1612.7 1661.5 1471.8 1661.5 1474.7 1784.6 1476.4 1947.4 1467 1951.1 1310.3 1776.1 1223 1854.1 1139.6 1761.1 1074.8 1811.8 1010 1741.4 1001.5 1744.3 951.8 1788.3 826.2 1651.2 817.4 1627.4 730.6 1626.7 630.1 1626.9 600.8 1628.5 512.4 1521.9 434.3 1435.8 387.1 1378.1 419.4 1378.5 422 1381.5 437.6 1381.1 767.7 1377.2 767.7 1376.6 766.6 1189.4 766.6 1188.9 927.7 1186.3 926.8 1106.2 926.8 1105.7 1072 1104 1070.9 1035.6 1070.9 1035.5 1070.9 1035 1071.2 1035 1125.6 1033.3 1211.1 1030.9 1211.1 977.1 1338.5 977.3 1341.1 987.6 1343.7 1015.2 1344.6 1062.5 1342.6 1102.2 1477.8 1103.5 1478.5 969.7 1614.4 967.3 1614.8 979.7 1615.7 1124.2 1616.1 1260.8 1617.7 1379.7 1686.6 1382.6 1892.1 1381.2 Z" data-holc_grade="C"/>
<path d="M 2481.7 1416.4 2481.7 1377.8 2515.2 1376.9 2515.4 1246.4 2482.1 1244.7 2480.5 1095.4 2539.8 1095.4 2734.5 1097.5 2739.8 1102.7 2741.2 1198.8 2740.4 1250.3 2738.6 1380.5 2592.2 1383.4 2591.8 1415.4 2481.7 1416.4 Z M 2423.2 1414.8 2313.6 1415.1 2313.6 1414.5 2312.7 1386.6 2309.4 1379.2 2183 1380.5 1892.1 1381.2 1892.5 1365.9 1892.5 1365.8 1889 1099.5 1764.7 1099.3 1763.8 1043.7 1762.5 966.1 1762.5 965.5 1880.2 965.3 2167.7 966.1 2167.3 1097.1 2424.6 1098.5 2424.7 1244.1 2392.5 1244.7 2390.6 1370.2 2394.7 1377.6 2416.8 1379.2 2423 1382.9 2423.2 1414.2 2423.2 1414.8 Z" data-holc_grade="C"/>
<path d="M 335.2 1456.2 243.7 1457.3 238.9 1461 240.2 1521.3 146.2 1523 74.3 1523.1 71.9 1388.9 169.2 1386.4 334.8 1383.9 335.1 1454.8 335.2 1456.2 Z" data-holc_grade="C"/>
<path d="M 1180.6 2482.2 1279.6 2482.5 1534.3 2766.3 1161 2767.7 1126.8 2767.8 1123.1 2633.7 1083.4 2632.6 913.3 2636.6 916.2 2482.2 552.1 2485.3 433.9 2486.3 222.6 2486.2 221.6 2468.4 230.1 2206.2 385.1 2204.8 384.8 2142.7 653.3 2138.5 878.3 2385.9 962.6 2481.8 1180.6 2482.2 Z" data-holc_grade="C"/>
<path d="M 1653.3 2223.4 1838.9 2220.1 1901.5 2220.1 1902.8 2344.1 1901 2489.1 1707.2 2488.8 1705.7 2357.2 1650.3 2356.3 1653.3 2223.4 Z" data-holc_grade="C"/>
<path d="M 1901.5 2220.1 1838.9 2220.1 1653.3 2223.4 1627.9 2195.5 1628.8 2181.3 1616.9 2104.8 1617.4 2060.6 1616 1927.3 1615.8 1904.4 1645.1 1904.2 1880.1 1904 1880.3 1867.1 1883.6 1861.9 1964.4 1861.9 2180.6 1860.1 2179.7 1926 2180.7 1935.4 2284.7 1936.9 2283.2 2083.8 2173.8 2084 2175.6 2216.5 1973.7 2214.6 1972.4 2120.2 1966.3 2112.8 1900.4 2113.3 1901.5 2220.1 Z M 1672.2 1985.8 1670.5 2054.6 1728.7 2126.1 1818.9 2125.2 1819.3 1985.3 1672.2 1985.8 Z M 2295.5 1664.6 2305.9 1664.6 2436.9 1664.1 2498.3 1664.3 2499.1 1785.4 2563.3 1786.8 2724.5 1787.4 2724.9 1926.9 2622.4 1927.3 2439.1 1928.6 2294.1 1929.6 2295.5 1664.6 Z" data-holc_grade="C"/>
</g>
<g id="D">
<path d="M 1073.8 823.6 1037.9 824.5 937.5 674.6 925.5 652.3 829.5 496.6 782.5 415.3 786.5 411.1 793.4 408.8 998.4 406.4 1017 406.2 1075.4 405.6 1073.5 646.7 1073.8 823.6 Z" data-holc_grade="D"/>
<path d="M 1892.1 1381.2 1686.6 1382.6 1617.7 1379.7 1616.1 1260.8 1615.7 1124.2 1614.8 979.7 1614.4 967.3 1614.5 890.4 1759.5 890.1 1762.5 965.5 1762.5 966.1 1763.8 1043.7 1764.7 1099.3 1889 1099.5 1892.5 1365.8 1892.5 1365.9 1892.1 1381.2 Z" data-holc_grade="D"/>
<path d="M 240.2 1521.3 238.9 1461 243.7 1457.3 335.2 1456.2 379.3 1455.2 382.5 1518.7 240.2 1521.3 Z M 74.3 1523.1 1 1523.2 1.1 1392.5 13.1 1390.7 56.9 1389.3 71.9 1388.9 74.3 1523.1 Z" data-holc_grade="D"/>
<path d="M 1180.6 2482.2 962.6 2481.8 878.3 2385.9 653.3 2138.5 384.8 2142.7 383 1997.4 382.5 1874.6 376.4 1671.7 382.3 1650.8 574.7 1647.5 600.8 1675.4 687.7 1773 811.2 1916.1 740.2 1978.9 806.4 2055.4 778.7 2074.8 792.3 2092.5 944.6 2268.3 976 2243.1 1038.4 2311.2 1112.9 2397.5 1181 2479 1180.6 2482.2 Z" data-holc_grade="D"/>
<path d="M 1126.8 2767.8 706.4 2769.4 461.2 2769 460.5 2636 436 2633.8 433.9 2486.3 552.1 2485.3 916.2 2482.2 913.3 2636.6 1083.4 2632.6 1123.1 2633.7 1126.8 2767.8 Z" data-holc_grade="D"/>
<path d="M 1319.8 2276.6 1215.6 2165.3 1278.8 2108.2 1248 2069.8 1367.1 1965.6 1467.5 2073.7 1409.9 2125.8 1440.6 2167 1319.8 2276.6 Z" data-holc_grade="D"/>
<path d="M 1615.8 1904.4 1616 1927.3 1532.1 1926.9 1530.5 1738.6 1613.7 1738 1615.8 1904.4 Z" data-holc_grade="D"/>
<path d="M 2449.5 1936.2 2632.8 1935 2735.3 1934.6 2998.6 1935.4 2999 2077.1 2750.9 2078.3 2456.5 2082.4 2448.9 2076.2 2449.5 1936.2 Z" data-holc_grade="D"/>
</g>
</svg>