<?xml version="1.0"?>
<svg xmlns="http://www.w3.org/2000/svg" version="1.2" baseProfile="tiny" width="3000" height="3496" viewBox="0 0 3000 3496" stroke-linecap="round" stroke-linejoin="round">
<g id="A">
<path d="M 1809 2335.7 1819.6 2488.9 1722.5 2487.6 1718.1 2331.9 1809 2335.7 Z" data-holc_grade="A"/>
<path d="M 2199.5 1887.7 2246.2 1889.3 2249.6 1919.3 2250.7 1933.8 2256.3 1960.4 2254.7 2042.7 2172.6 2042.2 2167.5 1886.5 2199.5 1887.7 Z" data-holc_grade="A"/>
<path d="M 2410.2 1849.6 2473.3 1879.1 2468.8 1895.8 2461 1906.4 2463.3 1962 2381.3 1965.4 2351.2 1982.6 2330 1980.4 2332.8 1997.1 2334.3 2022.8 2335.6 2045.5 2254.7 2042.7 2256.3 1960.4 2250.7 1933.8 2249.6 1919.3 2246.2 1889.3 2249.5 1809.2 2333.2 1813.6 2410.2 1849.6 Z" data-holc_grade="A"/>
<path d="M 2869.5 2211.2 2763.1 2215 2726.6 2215.8 2716.6 2136.3 2719.6 2118.5 2709.1 2042.9 2629.8 2037.9 2628.2 1975.6 2668.4 1930.4 2725.4 1937.6 2751.4 1945 2776.7 1951.6 2810.2 1949.4 2834.7 1950.1 2896.5 1987.1 2904 1998.2 2904 2012.3 2895.1 2033.8 2875 2042 2871.3 2074.6 2864.7 2111.7 2869.5 2211.2 Z" data-holc_grade="A"/>
<path d="M 2384 1580.6 2459.7 1582.1 2559.1 1584 2559.1 1631.4 2463.5 1663.4 2471.4 1705.6 2491.5 1741.5 2451.7 1743.8 2452.1 1769.7 2410.2 1849.6 2333.2 1813.6 2249.5 1809.2 2246.9 1732.6 2248.6 1683.2 2247.4 1577.9 2384 1580.6 Z M 2410.4 1752.3 2416.4 1745.7 2422.7 1744.5 2427.5 1741.2 2432.7 1734.5 2435 1727.5 2440.5 1723.4 2448 1718.6 2449.1 1709.7 2443.5 1702.3 2434.6 1697.1 2426 1692.3 2414.8 1689.7 2403.7 1683.8 2393.3 1684.2 2383.6 1687.5 2379.9 1695.3 2373.2 1703.8 2365 1709 2359.1 1714.6 2358.7 1723.1 2363.2 1732 2371.4 1738.6 2380.7 1746 2392.2 1750.9 2401.1 1754.2 2410.4 1752.3 Z" data-holc_grade="A"/>
<path d="M 2635.6 1615.4 2795.3 1580.6 2872.1 1580.5 2996.1 1575 2999 1768 2926.7 1736.9 2688.3 1740.7 2631.2 1713.2 2635.6 1615.4 Z" data-holc_grade="A"/>
</g>
<g id="B">
<path d="M 1673.6 2792.1 1655.9 2788.4 1600.6 2793.2 1595.4 2628.6 1671.7 2630.8 1673.6 2711.5 1681 2775.4 1673.6 2792.1 Z M 1696.8 2640.1 1757.3 2643.8 1824.3 2642.8 1831.8 2792.1 1756.4 2796.8 1704.3 2794 1696.8 2640.1 Z" data-holc_grade="B"/>
<path d="M 2726.6 2215.8 2723 2261 2567.4 2262.6 2506.4 2264.1 2504.9 2189.3 2561.4 2187 2559.1 2106.9 2517.5 2106.9 2513 2091.4 2513 2044.7 2629.8 2037.9 2709.1 2042.9 2719.6 2118.5 2716.6 2136.3 2726.6 2215.8 Z" data-holc_grade="B"/>
<path d="M 2559.1 1584 2459.7 1582.1 2464.9 1555.7 2468.6 1513.6 2468.6 1476.5 2467.1 1455.2 2465.7 1426.1 2561 1422.7 2559.1 1584 Z" data-holc_grade="B"/>
<path d="M 2384 1580.6 2247.4 1577.9 2196.2 1577.7 2197.1 1495.7 2267.3 1492 2307.7 1492.9 2304.9 1425.7 2383.5 1430.3 2410.9 1427.5 2417.4 1496.9 2386.3 1498.8 2384 1580.6 Z" data-holc_grade="B"/>
<path d="M 2248.6 1683.2 2246.9 1732.6 2095.7 1734.9 2084 1729.4 2074 1724.4 2074.4 1719.8 2075.6 1707.7 2070.6 1703.3 2055.6 1702.7 2056.1 1659.9 2074.5 1656.6 2077.8 1580.4 2095.3 1580.3 2154.8 1579.8 2153.7 1614.3 2197.2 1617 2198.9 1649.8 2230.1 1649.8 2231.3 1682.1 2248.6 1683.2 Z" data-holc_grade="B"/>
<path d="M 2249.5 1809.2 2198.4 1812.1 2199.5 1887.7 2167.5 1886.5 2136.9 1887.1 2098.9 1888.2 2096.5 1861.9 2095.7 1734.9 2246.9 1732.6 2249.5 1809.2 Z" data-holc_grade="B"/>
<path d="M 1872 729.7 1995.7 500.6 2097.6 501.2 2090.5 712.8 2045.9 712.3 2043.1 760.6 2053.7 763.4 2053.7 813.2 1970.2 812 1968.5 733.7 1878.2 729.8 1872 729.7 Z" data-holc_grade="B"/>
<path d="M 1995.7 500.6 1872 729.7 1704.3 727.6 1702.6 643.2 1647.4 640.4 1655.1 618.5 1660.7 584.1 1713.6 492.4 1826.8 496.3 1805.6 558.5 1852.4 596.3 1870.8 599 1888.1 605.1 1907.6 608.5 1957.2 517.9 1936 500.2 1995.7 500.6 Z" data-holc_grade="B"/>
<path d="M 1259.4 947.4 1330.6 951.2 1331.9 1027.1 1106.1 1018.7 1103.4 939.1 1259.4 947.4 Z" data-holc_grade="B"/>
<path d="M 1157.6 1417.1 1163.4 1414.3 1163.5 1443.8 1163.7 1542.7 1163.7 1553.3 1121.9 1552.2 1126.3 1523.3 1131.4 1494.4 1128 1483.2 1114.6 1477.7 1087.9 1474.3 993.6 1473.7 989.8 1241.5 1092.9 1236.5 1093.5 1396.5 1105.2 1396.5 1124.7 1402.7 1157.6 1417.1 Z" data-holc_grade="B"/>
<path d="M 871.7 929.7 905.1 930.5 963.1 990.5 1025.5 1091.3 1027.7 1157.9 894.6 1160.9 893.9 1208.3 838.8 1209 836.7 1101.6 872.4 1080.1 871.7 929.7 Z" data-holc_grade="B"/>
<path d="M 1966.4 2389.1 1972.1 2487.5 1895 2492 1895 2545.4 1823.6 2547.6 1819.6 2488.9 1809 2335.7 1961.4 2331.8 1966.4 2389.1 Z" data-holc_grade="B"/>
<path d="M 887.7 2471.1 895.5 2627.3 759.2 2619.9 749.1 2478.5 772.3 2467.8 772.3 2457.2 861.2 2416.4 870 2469.7 887.7 2471.1 Z" data-holc_grade="B"/>
<path d="M 1956.4 2241.2 1961.4 2331.8 1809 2335.7 1718.1 2331.9 1722.5 2487.6 1694.6 2486.5 1689 2420.9 1683.4 2178.9 1722.5 2181.2 1723.1 2194.5 1777.7 2196.2 1777.2 2217.9 1955.2 2219.5 1956.4 2241.2 Z" data-holc_grade="B"/>
<path d="M 1665.9 2486.2 1597.3 2485.1 1595 2420.1 1562.1 2419.5 1559.3 2326.1 1662 2330.5 1665.9 2486.2 Z" data-holc_grade="B"/>
<path d="M 1961.4 2331.8 1956.4 2241.2 2034.5 2243.9 2039.5 2329.6 1961.4 2331.8 Z" data-holc_grade="B"/>
<path d="M 2119.1 2494 2127.6 2646.4 2002.9 2645.6 1957.4 2643.7 1824.3 2642.8 1823.6 2547.6 1895 2545.4 1895 2492 1972.1 2487.5 1966.4 2389.1 2042.9 2388.5 2050.8 2489.2 2118.9 2489.1 2119.1 2494 Z" data-holc_grade="B"/>
<path d="M 2237.1 2337.2 2188 2337.3 2178.5 2322.3 2119.9 2320.1 2116.5 2292.8 2098.7 2292.8 2098.1 2255 2082.5 2250.6 2080.8 2224.2 2121 2223.3 2104.8 2192.2 2184 2194.4 2189.6 2184.9 2257.7 2183.7 2263.3 2337.2 2237.1 2337.2 Z" data-holc_grade="B"/>
<path d="M 2249.1 2076.6 2196.1 2106.1 2107.9 2104.5 2087.9 2105.1 2086.7 2050.6 2057.7 2046.2 2048.1 1888.8 2098.9 1888.2 2098.4 1965 2134.1 1964.9 2136.9 1887.1 2167.5 1886.5 2172.6 2042.2 2254.7 2042.7 2249.1 2076.6 Z" data-holc_grade="B"/>
<path d="M 2514.5 1903.7 2565.4 1934.1 2563.2 1981.3 2473.9 1983.1 2445.5 1992.6 2393 2008.7 2357.3 2019.9 2334.3 2022.8 2332.8 1997.1 2330 1980.4 2351.2 1982.6 2381.3 1965.4 2463.3 1962 2461 1906.4 2468.8 1895.8 2473.3 1879.1 2514.5 1903.7 Z" data-holc_grade="B"/>
</g>
<g id="C">
<path d="M 1549 3256.2 1549.9 3092.4 1619.6 3093.3 1613.3 2942 1565.1 2936.6 1564.2 2859.2 1602.6 2855.6 1600.6 2793.2 1655.9 2788.4 1673.6 2792.1 1679.2 2825.5 1680.1 2859.8 1682.9 2930.3 1681.1 2973.9 1685.7 3067.5 1686.7 3258.6 1691.3 3331.9 1690.4 3414.4 1692.3 3495.1 1545.2 3492.4 1544.3 3385.7 1548 3369 1549 3256.2 Z M 1790.5 3424.6 1790.1 3481.2 1724.9 3477.5 1723.9 3355.1 1718.3 3259.5 1717.4 3147.3 1709.9 2934.9 1704.3 2794 1756.4 2796.8 1763 2944.2 1861.6 2951.6 1860.7 3078.6 1862.6 3162.1 1861.7 3242.8 1870.1 3364.3 1791 3363.4 1790.5 3424.6 Z" data-holc_grade="C"/>
<path d="M 1864.8 1884.8 1732.6 1883 1733.7 1737.3 1777.7 1737.8 1777.2 1726.1 1861.4 1728.3 1864.8 1884.8 Z" data-holc_grade="C"/>
<path d="M 2077.8 1580.4 2074.5 1656.6 2056.1 1659.9 2055.6 1702.7 2070.6 1703.3 2075.6 1707.7 2074.4 1719.8 1886 1718.9 1883.2 1728.3 1861.4 1728.3 1862.5 1577.2 2077.8 1580.4 Z" data-holc_grade="C"/>
<path d="M 2094.4 1435.3 2095.3 1580.3 2077.8 1580.4 1862.5 1577.2 1861.7 1428.2 2094.4 1435.3 Z" data-holc_grade="C"/>
<path d="M 1862.5 1577.2 1861.4 1728.3 1777.2 1726.1 1776.9 1714.4 1773.6 1573.8 1736.8 1574.4 1734 1428.2 1861.7 1428.2 1862.5 1577.2 Z" data-holc_grade="C"/>
<path d="M 1705.5 1267.1 1708.9 1403.2 1639.7 1403.8 1633.6 1192.6 1649.2 1193.2 1653.7 1268.2 1705.5 1267.1 Z" data-holc_grade="C"/>
<path d="M 1825.2 1301 1817.6 1116.5 2090.2 1116.4 2093.1 1365.3 1977.7 1372.6 1977.1 1392 1933.1 1386.5 1898.5 1371.5 1896.8 1299.3 1825.2 1301 Z" data-holc_grade="C"/>
<path d="M 1937.4 962.2 2090.2 963.6 2090.2 1116.4 1817.6 1116.5 1681 1114.8 1672.6 1107.6 1757.3 962.6 1745.6 960.9 1779.6 908.7 1862.7 961.5 1937.4 962.2 Z" data-holc_grade="C"/>
<path d="M 2053.7 813.2 2087.3 813.6 2090.2 963.6 1937.4 962.2 1936.8 812.6 1834.2 808.7 1878.2 729.8 1968.5 733.7 1970.2 812 2053.7 813.2 Z" data-holc_grade="C"/>
<path d="M 1872 729.7 1878.2 729.8 1834.2 808.7 1779.6 908.7 1745.6 960.9 1628 960.4 1629.1 802.6 1616.8 802.6 1612.3 776 1647.4 640.4 1702.6 643.2 1704.3 727.6 1872 729.7 Z" data-holc_grade="C"/>
<path d="M 1244.1 1226 1159.3 1155.9 1158.2 1131.5 1170.5 1128.7 1171 1105.9 1335 1112.1 1337.2 1233.8 1287.6 1232.1 1261.9 1223.2 1244.1 1226 Z M 1331.9 1027.1 1331.9 1083.1 1110.3 1074.7 1106.1 1018.7 1331.9 1027.1 Z" data-holc_grade="C"/>
<path d="M 1722.5 2487.6 1819.6 2488.9 1823.6 2547.6 1824.3 2642.8 1757.3 2643.8 1696.8 2640.1 1694.6 2486.5 1722.5 2487.6 Z" data-holc_grade="C"/>
<path d="M 1167.3 1631.7 1169 1566.1 1265.1 1568.7 1269.4 1568.9 1271.1 1635 1167.3 1631.7 Z M 1321.6 1424.4 1323.8 1548.9 1163.7 1542.7 1163.5 1443.8 1193.8 1428.2 1193.3 1456 1202.2 1458.8 1222.8 1460.5 1226.7 1421 1321.6 1424.4 Z M 1159.3 1155.9 1244.1 1226 1241.2 1242.9 1238.5 1259.3 1241.3 1284.3 1202.2 1284.9 1202.8 1395.5 1163.4 1414.3 1157.6 1417.1 1154.8 1413.8 1145.9 1378.8 1159.3 1371 1137 1311 1140.9 1224.8 1110.2 1224.8 1108 1147.6 1159.3 1155.9 Z" data-holc_grade="C"/>
<path d="M 1302.9 2030.6 1276.8 2027.6 1276.8 1983.1 1296.9 1980.9 1304.3 1969.8 1310.3 1952.7 1266.4 1939.4 1277.6 1897.1 1304.4 1863.8 1381.7 1877.9 1354.9 1987.6 1313.3 1998 1302.9 2030.6 Z" data-holc_grade="C"/>
<path d="M 1059.7 2398.3 1056.6 2317.6 1011.9 2318.7 1007.5 2166.3 1048.3 2163 1043.8 2100.1 1208.4 2098.5 1211.8 2133.5 1240.8 2136.3 1249.7 2263.7 1361.9 2267 1367.5 2325.4 1401 2326.5 1471.3 2493.4 1296 2493.4 1292.1 2399.4 1059.7 2398.3 Z" data-holc_grade="C"/>
<path d="M 1059.7 2398.3 1062.7 2473.8 887.7 2471.1 870 2469.7 861.2 2416.4 772.3 2457.2 770.9 2260.7 987.4 2167.9 1007.5 2166.3 1011.9 2318.7 1056.6 2317.6 1059.7 2398.3 Z" data-holc_grade="C"/>
<path d="M 1600.6 2793.2 1602.6 2855.6 1564.2 2859.2 1565.1 2936.6 1613.3 2942 1619.6 3093.3 1549.9 3092.4 1549 3256.2 1387.3 3253.6 1381 3104.9 1074.5 3101.2 1063.1 2625.9 895.5 2627.3 887.7 2471.1 1062.7 2473.8 1059.7 2398.3 1292.1 2399.4 1296 2493.4 1471.3 2493.4 1524.9 2628.6 1595.4 2628.6 1600.6 2793.2 Z" data-holc_grade="C"/>
<path d="M 1790.5 3424.6 1791 3363.4 1870.1 3364.3 1861.7 3242.8 1862.6 3162.1 1860.7 3078.6 1861.6 2951.6 1893.9 2946.9 1885 2834.7 1831.8 2792.1 1824.3 2642.8 1957.4 2643.7 2002.9 2645.6 2127.6 2646.4 2278.4 2647.3 2284.9 2775.2 2267.3 2779.9 2261.7 2789.1 2235.6 2778 2233.8 2767.8 2172.4 2777.1 2170.5 2744.7 2142.6 2740.1 2132.3 2722.5 2124.9 2719.7 2112.8 2695.6 2104.4 2691.9 2070.9 2691 2068.1 2686.3 2068.1 2678.9 2060.6 2673.4 2032.7 2674.3 2038.3 2712.3 2085.8 2717.8 2090.5 2797.6 2082.1 2797.6 2082.1 2830 2134.2 2833.7 2142.6 2842.1 2209.6 2844.8 2207.7 2803.1 2287.8 2803 2294.4 2952.3 2307.6 3297.3 2021.8 3291.9 2026.5 3434.7 1931.6 3429.2 1833.8 3424.6 1790.5 3424.6 Z" data-holc_grade="C"/>
<path d="M 2097.6 501.2 1995.7 500.6 1936 500.2 1826.8 496.3 1713.6 492.4 1767.6 326.1 1769.4 312.8 1751.5 288.8 1767.6 243.5 1773.8 221.3 1776.5 193.8 1775.6 169.8 1780.9 128.9 1780.9 104 1785.4 82.7 1784.5 66.7 1798.7 33.9 1825.5 1 1988.6 6.3 2196.3 15.1 2357.7 21.2 2575.2 23.7 2572.6 125 2580.6 134.7 2578 238.7 2566.5 251.1 2559.5 501.7 2287.5 503.6 2142.2 501.9 2097.6 501.2 Z" data-holc_grade="C"/>
<path d="M 1517.7 956.2 1351.2 951.7 1330.6 951.2 1259.4 947.4 1253.5 815.1 1176.8 792.4 1177.7 860 1105.3 855.3 1105.3 859.5 1103.4 939.1 1016.7 932 1015.9 644.9 1304.9 234.5 1312.9 332.2 1466.3 331.4 1472.5 394.5 1534.9 400.7 1559.9 341.1 1526 323.4 1524.2 271 1533.2 265.6 1529.6 202.6 1523.3 195.4 1522.5 169.7 1461.8 170.6 1461.8 130.6 1452.9 129.7 1422.6 170.6 1418.1 207.9 1312.9 229.2 1460.9 16 1583.1 16.9 1660.6 135.9 1664.2 142.1 1667.8 257.6 1717.7 278 1724.9 288.7 1710.6 324.2 1706.1 349.1 1692.8 382 1680.3 399.8 1658 410.4 1639.3 420.2 1621.4 459.3 1619.7 510 1603.6 582.8 1568.8 703.7 1556.4 764.1 1548.3 820.1 1552.8 870.8 1546.6 886.8 1547.4 957 1517.7 956.2 Z" data-holc_grade="C"/>
<path d="M 149.1 2497.9 449.6 2489.8 453.3 2523.2 601.3 2506.6 610.5 2594.7 465.4 2607.5 469.8 2853.2 295.8 2853.1 84.6 2859.4 6.4 2865.8 1 2693.3 42.9 2664.6 62.5 2646.1 109.9 2620.2 128.6 2607.2 142.6 2574.8 146.3 2533.1 149.1 2497.9 Z" data-holc_grade="C"/>
<path d="M 1665.9 2486.2 1670.4 2613.6 1596.1 2539.6 1597.3 2485.1 1665.9 2486.2 Z" data-holc_grade="C"/>
<path d="M 1662 2330.5 1559.3 2326.1 1562.1 2419.5 1488.4 2417.8 1485.1 2245.4 1514.6 2247.1 1511.8 2173.7 1660.3 2175.4 1662 2330.5 Z" data-holc_grade="C"/>
<path d="M 2080.8 2224.2 2082.5 2250.6 2098.1 2255 2098.7 2292.8 2116.5 2292.8 2119.9 2320.1 2178.5 2322.3 2188 2337.3 2237.1 2337.2 2237.7 2416.8 2192 2417.9 2193.1 2494.1 2119.1 2494 2118.9 2489.1 2050.8 2489.2 2042.9 2388.5 1966.4 2389.1 1961.4 2331.8 2039.5 2329.6 2034.5 2243.9 2080.8 2223.9 2080.8 2224.2 Z" data-holc_grade="C"/>
<path d="M 2668.4 1930.4 2628.2 1975.6 2629.8 2037.9 2513 2044.7 2513 2091.4 2517.5 2106.9 2559.1 2106.9 2561.4 2187 2504.9 2189.3 2506.4 2264.1 2567.4 2262.6 2723 2261 2726.6 2215.8 2763.1 2215 2869.5 2211.2 2871.1 2343.9 2887.1 2647.2 2587.9 2643.7 2454.6 2643.9 2391.3 2578.6 2298.9 2487.5 2266.2 2475.6 2264.7 2418.5 2237.7 2416.8 2237.1 2337.2 2263.3 2337.2 2257.7 2183.7 2249.1 2076.6 2254.7 2042.7 2335.6 2045.5 2334.3 2022.8 2357.3 2019.9 2393 2008.7 2445.5 1992.6 2473.9 1983.1 2563.2 1981.3 2565.4 1934.1 2514.5 1903.7 2546 1881.9 2555.2 1891.9 2566.4 1895.6 2572.4 1894.1 2582.8 1896.4 2596.9 1899.3 2624.4 1887.4 2646.7 1896.3 2668.4 1930.4 Z M 2581.8 2480.6 2690.6 2497.2 2685.8 2349.4 2581.2 2342.5 2581.8 2480.6 Z" data-holc_grade="C"/>
<path d="M 2514.5 1903.7 2473.3 1879.1 2410.2 1849.6 2452.1 1769.7 2451.7 1743.8 2491.5 1741.5 2538 1760.1 2550.6 1779.1 2551.1 1795.3 2546.9 1824.5 2546 1839.8 2545.1 1868 2546 1881.9 2514.5 1903.7 Z" data-holc_grade="C"/>
<path d="M 2304.9 1425.7 2307.7 1492.9 2267.3 1492 2197.1 1495.7 2196.2 1577.7 2154.8 1579.8 2095.3 1580.3 2094.4 1435.3 2094.4 1424.9 2304.9 1425.7 Z" data-holc_grade="C"/>
<path d="M 1705.8 2120.9 1704.2 2053.6 1786.2 2057.5 1786.8 2125.3 1705.8 2120.9 Z M 2096.5 1861.9 2098.9 1888.2 2048.1 1888.8 2057.7 2046.2 2086.7 2050.6 2087.9 2105.1 2033 2038.7 1998.4 2038.2 2049.7 2099.3 2076 2158.8 2031.9 2176 1979.4 2180.5 1903 2139.9 1881.2 2128.3 1805.9 2126.6 1809.2 2056 1855 2054.9 1858.9 2097.7 1944.8 2099.9 1940.9 2017.6 1940.3 1974.8 1867.8 1969.8 1866.7 2024.3 1703.7 2018.2 1697 1882.6 1732.6 1883 1864.8 1884.8 1942.5 1885.8 1944.7 1859.7 2096.5 1861.9 Z" data-holc_grade="C"/>
</g>
<g id="D">
<path d="M 1487.4 1877.9 1525.3 1879.4 1482.9 2015 1487.4 2020.9 1456.1 2144.7 1437.5 2236.7 1360.1 2236.7 1360.1 2151.4 1382.4 2138.1 1487.4 1877.9 Z" data-holc_grade="D"/>
<path d="M 1705.8 2120.9 1678.5 2122 1679.6 2051.9 1704.2 2053.6 1705.8 2120.9 Z M 1652.8 1810.1 1652.3 2028 1589.2 2029.1 1588.1 1892.4 1624.9 1895.2 1624.3 1809.5 1652.8 1810.1 Z M 1733.7 1737.3 1732.6 1883 1697 1882.6 1703.7 2018.2 1675.1 2021.4 1666.2 1733.9 1733.7 1737.3 Z" data-holc_grade="D"/>
<path d="M 2257.7 2183.7 2189.6 2184.9 2184 2194.4 2104.8 2192.2 2121 2223.3 2080.8 2224.2 2080.8 2223.9 2034.5 2243.9 1956.4 2241.2 1955.2 2219.5 2014.8 2221.3 2014.8 2208.5 2089.6 2182.4 2108.5 2180.1 2107.9 2104.5 2196.1 2106.1 2249.1 2076.6 2257.7 2183.7 Z" data-holc_grade="D"/>
<path d="M 2096.5 1861.9 1944.7 1859.7 1942.5 1885.8 1864.8 1884.8 1861.4 1728.3 1883.2 1728.3 1888.2 1740.6 2095.7 1734.9 2096.5 1861.9 Z" data-holc_grade="D"/>
<path d="M 1734 1428.2 1736.8 1574.4 1773.6 1573.8 1776.9 1714.4 1714.5 1712.8 1710.6 1502.7 1692.2 1502.7 1691 1466.6 1674.9 1466.6 1672.6 1427.7 1734 1428.2 Z" data-holc_grade="D"/>
<path d="M 1708.9 1403.2 1705.5 1267.1 1707.2 1206 1730 1251.5 1749 1287.1 1771.3 1325.4 1785.8 1339.3 1875.6 1384.3 1877.9 1406 1708.9 1403.2 Z M 1825.2 1301 1826.5 1332.6 1805.9 1317.6 1712.7 1168.2 1681 1114.8 1817.6 1116.5 1825.2 1301 Z" data-holc_grade="D"/>
<path d="M 1167.3 1631.7 1271.1 1635 1269.4 1568.9 1265.1 1568.7 1398.8 1571.1 1401.1 1635.6 1203.6 1697.3 1179 1687.2 1155 1681.1 1117.1 1678.9 1118.2 1632.8 1167.3 1631.7 Z M 1323.8 1548.9 1321.6 1424.4 1393.5 1427.2 1397.4 1547.8 1323.8 1548.9 Z M 1202.8 1395.5 1202.2 1284.9 1241.3 1284.3 1238.5 1259.3 1241.2 1242.9 1303.7 1281.6 1380.7 1404.4 1202.8 1395.5 Z M 1539.1 1121 1517.9 1411 1458.8 1409.9 1478.8 1183.8 1434.8 1178.8 1438.7 1117.1 1539.1 1121 Z M 1401.3 1114.9 1401.3 1339.4 1376.2 1338.8 1374.6 1321 1362.3 1307.7 1357.8 1110.4 1401.3 1114.9 Z M 1517.7 956.2 1522.2 998.8 1535.5 998 1537.8 1091.4 1357.9 1083.2 1358.6 1024.7 1389.1 1026.2 1387.6 969.9 1349.7 972.8 1351.2 951.7 1517.7 956.2 Z" data-holc_grade="D"/>
</g>
</svg>