<?xml version="1.0"?>
<svg xmlns="http://www.w3.org/2000/svg" version="1.2" baseProfile="tiny" width="3000" height="2496" viewBox="0 0 3000 2496" stroke-linecap="round" stroke-linejoin="round">
<g id="A">
<path d="M 786.9 1586.9 787.4 1604.3 787.6 1612.8 743.1 1613.8 743 1643.3 743.8 1662.4 720.7 1662.6 686.5 1663.8 686.2 1654 685.2 1640.3 685 1570.1 686.7 1569.6 691.2 1570.4 735.3 1571.5 736.7 1571.4 737.5 1577.1 737.3 1589.5 745 1589.7 786.9 1586.9 Z" data-holc_grade="A"/>
<path d="M 1161.4 1956.8 1159.2 1996.8 1150.9 2006 1148.7 2008.4 1136.4 2017.7 1135.1 2020.3 1134.1 2064.9 1133.7 2094.9 1131.5 2120.1 1132 2122.3 1148 2138.7 1144.5 2229.7 1123.2 2229.4 1075.7 2227.7 1080.6 2126.2 1081.9 2097.7 1082.1 2082.5 1081.7 2065.5 1083.3 2037.9 1084.3 2019.8 1085.4 1991.4 1087 1978.8 1086 1970.1 1087.2 1953.8 1120.3 1954.4 1161.4 1956.8 Z" data-holc_grade="A"/>
<path d="M 720.7 1662.6 743.8 1662.4 747 1775.7 741.6 1780.3 737.5 1780 727.9 1771.9 716.9 1763 697.3 1755.1 662.5 1728.7 641.6 1712 652.3 1703.4 717.5 1664.4 720.7 1662.6 Z" data-holc_grade="A"/>
<path d="M 641.6 1712 642 1730.8 632.4 1737.7 629.1 1738.2 626 1740.2 621.4 1746.5 621.1 1760.5 590.8 1760.7 591.3 1787.6 547 1787.6 517.8 1756.1 567.2 1709.5 567.2 1683.1 582.8 1677.5 592.2 1674.5 640.3 1659.6 641.6 1712 Z" data-holc_grade="A"/>
<path d="M 392.7 1606.8 429.2 1605.6 432.3 1606.6 433.3 1648.2 433.4 1714.3 433.8 1781.7 436.2 1786.8 436.8 1789.9 435.8 1795 392.7 1810.4 392.3 1707.7 394.7 1664 392.7 1606.8 Z" data-holc_grade="A"/>
<path d="M 832.8 1948.2 830.1 1949.1 822.6 1952.2 796 1955 780.5 1955.2 779.5 1954 776.4 1933.1 774 1930.9 736.9 1951.3 736.1 1909.5 733.9 1907.5 718 1905.2 680.1 1905 674.8 1904.2 684.4 1893.9 693.5 1886.4 700.9 1878.7 703.9 1868.3 708.2 1852.1 713.7 1845 719.5 1843.2 723.7 1844 727.2 1844.4 733.3 1837.3 732.9 1831.8 733.3 1827.5 730.9 1823.3 730.1 1819.2 730.3 1815.6 730.9 1811.7 732.3 1808.5 734.4 1805.8 736.2 1800.4 737.2 1795.9 739.1 1791.4 741.5 1789.4 745 1789 749 1784.9 750.1 1779.3 752.1 1776.4 757.6 1773 761.5 1772.8 765.3 1771.6 771.7 1769.3 775.1 1765.9 779.6 1762.2 783.1 1758 788.6 1750.7 792.3 1739.5 795.9 1734.1 805.5 1725.7 810 1722.1 813.5 1717.6 814.3 1709.7 815.9 1703.6 816.3 1701.2 818.6 1698 822 1695.3 827.3 1693.3 832.4 1691.7 838.3 1690.8 837 1712.3 836.1 1731.7 835.7 1754.2 835.7 1775.1 833.8 1800.2 836.3 1828.4 836 1836.6 835 1869.6 835.6 1925.4 832.8 1948.2 Z" data-holc_grade="A"/>
<path d="M 736.9 1951.3 737.1 2056.8 623 2054.9 588.1 2057.2 587.4 2054.6 587.7 1911.6 589.3 1908 608.9 1907.8 674.8 1904.2 680.1 1905 718 1905.2 733.9 1907.5 736.1 1909.5 736.9 1951.3 Z" data-holc_grade="A"/>
<path d="M 806.2 2324.1 805.8 2362.5 807.1 2369.1 806.4 2413.9 773 2412.9 761.2 2412.9 763.5 2385.6 763.5 2356.1 767.3 2345 772.4 2337.4 794.2 2328 803.5 2322.8 806.2 2324.1 Z" data-holc_grade="A"/>
<path d="M 1001 1612.1 1000 1633.8 998.4 1634.2 972.5 1633.6 965 1645.5 955.2 1654.9 954.2 1657.7 950.9 1728.5 986.1 1730.8 995.5 1731.2 990.5 1801.6 988.9 1828.1 988.5 1853.7 963.8 1854.3 941.6 1853.1 940 1875 953.2 1878 959.3 1880.3 964 1884.7 963.2 1889.4 960.5 1897.3 956.3 1905.6 950.6 1911.7 940.6 1928.8 935.3 1938.9 933.4 1945.2 934.6 1946.6 956.6 1945.4 955.2 1976.7 954.2 1999 983.1 1999 982.7 2047.1 976.6 2047.7 969.6 2046.9 953.5 2041.8 944.6 2038.4 937.6 2036.1 922.2 2033.9 912.8 2033.7 907.5 2033.5 903.8 2034.1 891.8 2038.7 886.7 2038.3 879.8 2037.9 884.1 1947.2 883.3 1945.2 880.8 1943.8 875.1 1944.8 871.5 1946.2 865.6 1946.2 857.8 1948.6 853.3 1949.4 845.4 1950 832.8 1948.2 835.6 1925.4 835 1869.6 836 1836.6 836.3 1828.4 833.8 1800.2 835.7 1775.1 835.7 1754.2 836.1 1731.7 837 1712.3 838.3 1690.8 843.4 1689.8 851 1684.5 852 1680.7 853.6 1671.1 853.6 1666.1 857.1 1661 862.8 1659.1 869.5 1654.4 878.8 1645.8 882.6 1641 889.6 1636 896.5 1632 898.1 1625.2 910.2 1602.7 917.3 1593.3 926.5 1581.4 934.9 1576.1 936.8 1575.6 966.6 1567 998.4 1559.7 1003.3 1561.2 1001 1612.1 Z" data-holc_grade="A"/>
<path d="M 945.1 2120.9 943.9 2146 906.3 2144.7 906 2167.3 830 2165.7 831.1 2113.6 861.7 2112.7 874.8 2112.3 897.2 2113.6 945.2 2116.2 945.1 2120.9 Z" data-holc_grade="A"/>
</g>
<g id="B">
<path d="M 546.4 202.5 542.3 262.7 499.6 251.5 501.3 207 526.6 207.5 527.5 196 547 195.8 546.4 202.5 Z" data-holc_grade="B"/>
<path d="M 1056.5 1492.3 1054.8 1533.8 1099.5 1533.8 1106.6 1524.2 1136.4 1525.5 1142.5 1537.2 1144.8 1548.1 1107.4 1545.4 1106.9 1546 1100.2 1550.3 1086.9 1551.9 1066 1553.6 1065.4 1554.2 1069.2 1559.4 1072.6 1565.5 1072.9 1568.3 1073.3 1572 1078.8 1588.7 1034.1 1588.1 1033.3 1588.9 1032.7 1613.1 1001 1612.1 1003.3 1561.2 998.4 1559.7 966.6 1567 936.8 1575.6 938.9 1525.7 937.4 1522.6 928.1 1511.8 927.8 1508.5 928.1 1505.9 929.6 1504.7 985.8 1508.1 983.7 1544.9 985.2 1552 996.5 1551.9 1003.2 1553.7 1010.1 1555.4 1010.1 1561.6 1024.7 1561 1040.9 1561.5 1042.3 1535.6 1038.6 1510.8 1035.8 1491.7 1056.5 1492.3 Z" data-holc_grade="B"/>
<path d="M 852.8 1568.4 864.4 1571.3 869.3 1571.1 887.6 1568.9 906.9 1568.7 915.6 1570.6 926.5 1581.4 917.3 1593.3 910.2 1602.7 898.1 1625.2 896.5 1632 875.4 1633.2 865.9 1634.8 854 1630.1 832.7 1621 832.9 1614.2 834.1 1608.4 837.8 1602 835.4 1589.5 834.6 1566 848.3 1567.3 852.8 1568.4 Z" data-holc_grade="B"/>
<path d="M 1149 1665.1 1148 1694.9 1145.3 1727.6 1146.3 1738.2 1145.3 1763.6 1143 1765.2 1116.3 1764.8 1070.3 1762 1071.1 1756.3 1074.2 1751 1078.9 1738.8 1084.3 1722.5 1085.8 1711.7 1086.8 1697.7 1088.2 1679.3 1088.8 1664.9 1087.8 1654.6 1086.5 1637.3 1149.8 1639.5 1149 1665.1 Z" data-holc_grade="B"/>
<path d="M 1257.3 1853 1261 1767.4 1263.9 1699 1264.4 1664 1264.4 1645 1266.2 1640.3 1266.1 1637 1266.6 1627 1266.5 1617.6 1265.6 1610.3 1263.7 1603.8 1263.3 1598.9 1260.9 1591.8 1326.3 1596.6 1325.8 1650.2 1347.3 1651.1 1346 1704.2 1342.4 1774.9 1319.8 1774.1 1318.4 1799.3 1329.8 1800.3 1326.3 1857.3 1257.3 1853 Z" data-holc_grade="B"/>
<path d="M 1078.9 1738.8 1074.2 1751 1071.1 1756.3 1070.3 1762 1116.3 1764.8 1143 1765.2 1145.3 1763.6 1146.3 1738.2 1170.7 1739.5 1168.9 1782.1 1166.8 1796.1 1162.3 1931.1 1161.4 1956.8 1120.3 1954.4 1087.2 1953.8 1065.6 1952.8 1036.5 1950.4 988.9 1948 987.5 1976.5 955.2 1976.7 956.6 1945.4 934.6 1946.6 933.4 1945.2 935.3 1938.9 940.6 1928.8 950.6 1911.7 956.3 1905.6 960.5 1897.3 963.2 1889.4 964 1884.7 959.3 1880.3 953.2 1878 940 1875 941.6 1853.1 963.8 1854.3 988.5 1853.7 988.9 1828.1 990.5 1801.6 995.5 1731.2 996.6 1669.4 1021.7 1661.5 1049.2 1664.6 1049.8 1667 1049.8 1688.1 1047.5 1736.2 1078.9 1738.8 Z" data-holc_grade="B"/>
<path d="M 1080.6 2126.2 1032.8 2123 980.2 2120.8 982.7 2047.1 983.1 1999 954.2 1999 955.2 1976.7 987.5 1976.5 988.9 1948 1036.5 1950.4 1065.6 1952.8 1087.2 1953.8 1086 1970.1 1087 1978.8 1085.4 1991.4 1084.3 2019.8 1083.3 2037.9 1081.7 2065.5 1082.1 2082.5 1081.9 2097.7 1080.6 2126.2 Z" data-holc_grade="B"/>
<path d="M 967.7 2120.9 945.1 2120.9 945.2 2116.2 897.2 2113.6 874.8 2112.3 878.1 2076.4 879.8 2037.9 886.7 2038.3 891.8 2038.7 903.8 2034.1 907.5 2033.5 912.8 2033.7 922.2 2033.9 937.6 2036.1 944.6 2038.4 953.5 2041.8 969.6 2046.9 976.6 2047.7 982.7 2047.1 980.2 2120.8 967.7 2120.9 Z" data-holc_grade="B"/>
<path d="M 962.5 2220.6 897.7 2217 896.3 2225.7 895 2269.7 916.3 2270.6 914.6 2318.6 870.1 2315.4 870.5 2312.8 871.3 2307.9 872.2 2266.7 872.1 2249.3 871 2234.1 829.5 2233.1 829.3 2210.9 830.9 2210.8 829.7 2185.4 830 2165.7 906 2167.3 906.3 2144.7 943.9 2146 945.1 2120.9 967.7 2120.9 964.8 2181.5 964.5 2195.8 963.2 2203.7 962.5 2220.6 Z" data-holc_grade="B"/>
<path d="M 1068.6 2286.1 1026.4 2283.3 1026.4 2274.6 979.9 2272.1 980.5 2222.1 1028 2226.2 1032.8 2123 1080.6 2126.2 1075.7 2227.7 1123.2 2229.4 1121.3 2289.7 1068.6 2286.1 Z" data-holc_grade="B"/>
<path d="M 1437.2 1949 1433.7 2007.1 1379.3 2011.7 1383.8 1947.8 1437.2 1949 Z" data-holc_grade="B"/>
<path d="M 74.4 398.9 77.7 353.5 130.4 352.1 119.3 385.4 116.1 403.7 109.7 396.4 74.4 398.9 Z" data-holc_grade="B"/>
<path d="M 1274.9 2237.8 1268.2 2335.8 1169.2 2331 1170.1 2310.1 1145.9 2308.8 1146.5 2291.5 1147.5 2258.4 1159 2230.1 1144.5 2229.7 1148 2138.7 1179.7 2132.2 1178.1 2185.1 1252.3 2188 1253.6 2161.3 1274.9 2162.3 1274.9 2237.8 Z" data-holc_grade="B"/>
<path d="M 1803.9 1570.1 2002.7 1583.4 1998.4 1663.8 1988.2 1667.1 1980.9 1667.4 1973.2 1665.6 1966.3 1662 1934 1644.1 1928.9 1643.6 1921.8 1642.5 1917.7 1642.3 1913.6 1643.8 1910.6 1646.1 1907.3 1648.4 1904 1650.7 1901.1 1651.7 1899.4 1652.2 1895.5 1652.7 1892.5 1650.9 1889.2 1646.4 1886.4 1641.8 1885.1 1636.5 1883.8 1629.4 1881.3 1624 1880.5 1622.5 1877.5 1620.5 1871.3 1619.5 1866.5 1618.7 1862.7 1618.7 1860.7 1620 1860.7 1623 1858.7 1628.8 1856.1 1632.2 1851.8 1636 1848 1639.2 1844.7 1640.4 1840.2 1640.3 1836.4 1638.6 1831.4 1636.5 1826.3 1634.3 1820.7 1633.7 1815.6 1633.4 1811.8 1634.2 1808.3 1635.7 1804.5 1637.5 1801.4 1637.8 1798.2 1637.4 1795.6 1634.6 1793.2 1630.1 1790.3 1626.1 1787.4 1622.6 1785.8 1620.8 1786.4 1618.2 1788 1616.4 1790.9 1615 1794.5 1614.4 1797.4 1614.6 1799.1 1615 1800.3 1614.4 1803.9 1570.1 Z" data-holc_grade="B"/>
<path d="M 2367.7 1296.8 2458 1302.8 2453.5 1352.7 2400.9 1346.9 2367.3 1346.9 2367.7 1296.8 Z" data-holc_grade="B"/>
<path d="M 2275 2033.8 2276 2040.3 2274.6 2090.1 2279.1 2093.7 2303.1 2095.7 2313.3 2097.8 2324.9 2102 2328.8 2104.2 2329.6 2107.5 2330.2 2116.8 2349.4 2123.9 2352.9 2126.8 2353.5 2129.8 2351.6 2134.1 2330.7 2139.6 2316.8 2140 2305.2 2141 2277.9 2134.7 2277.5 2148.1 2274.4 2185.1 2273.6 2200.1 2221.6 2146.5 2223.5 2138.8 2221.2 2123.8 2224.6 2058.1 2226.7 2049.9 2227.3 2033.5 2275 2033.8 Z" data-holc_grade="B"/>
<path d="M 300.2 570.3 286.3 569.6 287 514.4 294.9 514.3 305.9 500.3 318.4 491.2 318.6 483.1 319.2 479.8 322.4 476.8 326.3 475.6 341.2 475 342 434.3 367.5 433.7 369.3 421.9 389 422 387.7 483.2 381 484.6 376.5 486 373.5 489 371 492.5 371.2 513.7 330.1 511.9 330.1 533.3 301 534.1 300.2 570.3 Z" data-holc_grade="B"/>
<path d="M 389.3 550.6 389 612.7 337.1 611.1 336.8 578.7 331.3 572.9 330.3 549.3 389.3 550.6 Z" data-holc_grade="B"/>
<path d="M 51.1 1719.2 145.3 1719.3 143.6 1814.1 48.9 1813 51.1 1719.2 Z" data-holc_grade="B"/>
<path d="M 392.7 1606.8 394.7 1664 392.3 1707.7 392.7 1810.4 394.2 1879.9 393.4 1884.2 336.4 1884.2 335.1 1881.9 335.8 1749.2 336.6 1731.7 338.3 1716.6 338.6 1714.2 350.8 1714.3 351.2 1658.7 352.4 1651.9 352 1606.5 392.7 1606.8 Z" data-holc_grade="B"/>
<path d="M 504.6 1805.1 583.2 1805.5 591.5 1805.2 593.7 1866.7 592.4 1888.6 506.1 1888.8 504.2 1884.7 504.6 1805.1 Z" data-holc_grade="B"/>
<path d="M 834.6 1566 835.4 1589.5 837.8 1602 822.4 1603.7 787.4 1604.3 786.9 1586.9 786.2 1555.2 794.4 1553.9 836.1 1552.1 834.5 1562.8 834.6 1566 Z" data-holc_grade="B"/>
<path d="M 151.6 2106 149.5 2102.4 149.6 2094.3 146 2087.7 141.7 2083.4 137.6 2080.1 136.6 2044.1 134.7 1966.7 135.8 1905.3 192.6 1905.4 194.1 1908.4 193.8 2000.5 298.7 2001.2 297.3 2106.4 296.5 2108.5 192.6 2108.1 162.3 2108.8 155.4 2108.8 151.6 2106 Z" data-holc_grade="B"/>
</g>
<g id="C">
<path d="M 184.4 261.8 182.6 315.7 172.1 315.9 132.4 316 130.4 352.1 77.7 353.5 78.7 301.6 83.3 287.6 88.9 102.6 181.5 104.3 183.8 143.8 153.7 143 153.6 182 154.5 260.5 184.4 261.8 Z" data-holc_grade="C"/>
<path d="M 95.2 660.2 148.4 660.8 153.6 713.9 151 716.3 149.7 720 151 721.5 142.8 726.3 137.3 728.2 128.7 727.9 96 719.4 93.9 716.1 95.2 660.2 Z" data-holc_grade="C"/>
<path d="M 88.5 1057.6 88.7 1083.1 149.1 1081.3 151.3 1092.1 259.2 1092.5 260.7 1137.8 253.7 1137.8 230.2 1132.1 225.4 1133 227.3 1158.6 215.1 1159.4 215.9 1182.5 197.3 1182.7 196.5 1184.3 204.4 1212.9 189.2 1213.7 182.5 1185.4 177.7 1153.8 178.7 1112.4 150 1112 145.9 1134.5 132.9 1134.9 84.4 1134.2 83.7 1112.1 68.6 1115.7 60.9 1114.3 48.2 1113.5 27.9 1112.6 31.4 1053.2 59.1 1054.3 69.7 1055.9 88.5 1057.6 Z" data-holc_grade="C"/>
<path d="M 523.7 1119.3 522.3 1159.6 488.4 1185.7 489.4 1212.2 442.2 1211.3 443.4 1258.9 390.7 1263.7 389.8 1218.7 429.2 1220.7 427 1187.3 403.8 1156.3 402.9 1111.2 414.6 1111.7 434.4 1115 443.1 1117.6 462.9 1120.6 488.1 1120.9 523.7 1119.3 Z" data-holc_grade="C"/>
<path d="M 589.7 1279.6 536.3 1242.9 538.1 1278.7 535.6 1278.8 522.9 1264 516.1 1251.1 510 1231.2 508.3 1222.8 503.9 1212.5 489.4 1212.2 488.4 1185.7 522.3 1159.6 538.9 1157.8 565.3 1153.3 610.9 1140.9 621.1 1141.4 621.8 1169.3 620.8 1202.5 590.2 1200.7 589.2 1197.4 589.2 1195.4 589.7 1192.3 589.7 1187.5 588.7 1180.9 586.9 1176.4 583.9 1174.3 580.3 1173.6 574.5 1175.6 568.6 1179.4 561.5 1184 556.7 1187.2 554.9 1190.8 555.1 1193.1 557.7 1197.1 563.8 1200.2 574.5 1200.1 581.7 1200.4 588.6 1203.9 591.6 1209.6 589.7 1279.6 Z" data-holc_grade="C"/>
<path d="M 389.8 1218.7 390.7 1263.7 388.4 1313.9 390.5 1424.1 343.9 1423.4 341.4 1421.4 342.9 1394.3 341 1351.2 321.4 1332.9 315.3 1333.1 316 1341.3 306.8 1351.1 292.6 1351.4 285.7 1339.7 281.2 1334.9 280.9 1331.6 284 1326.8 282.7 1324 285.3 1316.4 284.2 1314.6 280.2 1308.5 279.4 1284.7 244.8 1283.6 192.1 1284.8 187.8 1282.8 186.5 1277.7 185.3 1271.6 185 1265.8 187.6 1257.9 189.4 1253.6 189.4 1248.3 193.2 1239.4 193 1234.4 192 1228.8 270.1 1226.9 269.6 1210.7 295.3 1210.9 291.8 1177.2 314.2 1178 314.9 1187.6 358.5 1185.9 365.1 1192.8 369.4 1195.3 372.2 1200.1 374.5 1209 389.5 1209.5 389.8 1218.7 Z" data-holc_grade="C"/>
<path d="M 180.2 1405.9 180.1 1416 157.1 1415.3 135.4 1415.7 114.7 1416 113.7 1396.1 114.7 1372 163.8 1371.1 180.2 1370.2 180.2 1405.9 Z" data-holc_grade="C"/>
<path d="M 149.1 1463.1 152.2 1466.9 151.6 1512.3 127.7 1509.8 91 1513 86.7 1512.6 84.9 1510.2 86 1465.4 89.2 1464.6 104.9 1467.2 120.4 1467.6 120.4 1466.8 118.8 1464.4 118.6 1462.6 119.8 1460.3 141.8 1461.8 144 1463.2 149.1 1463.1 Z" data-holc_grade="C"/>
<path d="M 839.7 1514.5 796.9 1514.8 775 1510.7 760.6 1511 730.7 1511.9 689 1512.2 683 1508.2 686.6 1426.3 687.4 1426 689.7 1426.4 695.8 1426.3 702.8 1425.2 718.4 1422 727.3 1422.2 733.2 1423.3 746.2 1424.9 763.8 1424.8 764.1 1376.6 764.9 1331.5 840.1 1330.6 840.6 1361.1 841.3 1398.2 840.4 1439.1 840.1 1472.1 839.7 1514.5 Z" data-holc_grade="C"/>
<path d="M 142.6 1704 35.1 1704.1 35.1 1711.2 1 1709.3 1.4 1640.9 148.4 1564.8 151 1565.7 147.7 1570.5 146.5 1574.7 147.7 1577.5 148.4 1580.1 150.7 1583.7 153.2 1589.8 154.9 1595.6 153.9 1603.7 151.4 1608.3 148 1615.7 143.6 1620.2 143.4 1625.2 142.6 1704 Z" data-holc_grade="C"/>
<path d="M 352 1606.5 352.4 1651.9 351.2 1658.7 350.8 1714.3 338.6 1714.2 338.3 1716.6 296 1715.7 296.7 1765.9 295.6 1767.9 237.1 1766.4 235.4 1764.6 234.6 1616.9 250.4 1605.8 253.5 1605.3 286.8 1605.6 288.9 1556.9 311.6 1526 320 1522.5 327.2 1519.2 332 1519.2 338.6 1520.7 344.5 1524.5 344.6 1606.2 352 1606.5 Z" data-holc_grade="C"/>
<path d="M 547 195.8 527.5 196 526.6 207.5 501.3 207 499.6 251.5 480.4 246.4 481.1 230 484.7 192.8 494.5 190.1 496 168.5 504.7 168.7 506.3 144.4 550.4 142.8 549.7 151.7 548.7 169.2 547.6 187.6 547 195.8 Z" data-holc_grade="C"/>
<path d="M 683 1508.2 683.5 1555.1 638.2 1552.6 637.6 1560.8 593.7 1559.4 592.9 1619.8 593.5 1638.8 589.6 1667.4 573.1 1667.6 562.1 1669.1 486.2 1671.1 484.9 1613.2 483.4 1606.5 487.7 1600.2 499.3 1576.1 483.6 1506.7 484.7 1505.6 586.1 1505.4 587.2 1508.6 626.2 1509.4 631.5 1511 636.6 1511.7 641.7 1511.2 651.1 1509 683 1508.2 Z" data-holc_grade="C"/>
<path d="M 295.9 2406.9 296.4 2464.6 224.8 2461.6 161.7 2453.6 105.3 2449.4 36.9 2446.8 33.4 2443.9 33.7 2441.1 59.7 2419.3 60.7 2362.3 60.6 2356.6 62 2355.7 85.7 2356 85.1 2281.5 86.7 2280.6 124.6 2280.8 147.4 2282.1 147.3 2206.5 148.5 2205.7 186.8 2205.9 186.5 2183.3 187.4 2156.2 230.2 2157.1 259.9 2157.3 291.5 2157 293.3 2181.5 291.3 2206.2 292.8 2263.9 292.3 2264.8 267.3 2263.7 267.5 2285.3 266 2286.7 191.8 2284.2 192.2 2304.7 245.5 2306.2 246 2316.1 244.9 2357.2 255.1 2357.6 255.8 2358.9 256.8 2405.7 295.9 2406.9 Z" data-holc_grade="C"/>
<path d="M 831.1 2113.6 830 2165.7 829.7 2185.4 830.9 2210.8 829.3 2210.9 785.5 2212.8 740.1 2212.5 736.7 2211.8 733.5 2210.3 733.5 2206.8 734.3 2105.4 747.9 2105.9 782 2103.9 832.2 2103.1 832.8 2104 831.1 2113.6 Z" data-holc_grade="C"/>
<path d="M 1224.6 82.3 1226.6 93.4 1248.5 89.1 1251 101.5 1229.9 106.1 1234.7 130.9 1208.5 137.2 1207.5 133.4 1170.4 141 1174.7 80.7 1224.6 82.3 Z" data-holc_grade="C"/>
<path d="M 1735.4 647.5 1636.7 642.2 1637 565.7 1515.9 562.4 1512.6 570.2 1510.6 607.7 1483.4 608.5 1483.7 591.8 1481.4 591.6 1482 579.3 1482.5 572.3 1484.3 565.9 1486.4 559.8 1489.4 556.1 1492.6 555.3 1494.6 555.2 1496.8 554.8 1499.4 554 1500.7 552 1501.5 549 1502 538.8 1503.8 531 1504.4 527.9 1503 527.2 1499 528.2 1494.8 526.1 1492 523.5 1490.6 518.2 1491.6 509.7 1492.6 505.7 1496.3 501.5 1504.6 498.7 1509.4 498.1 1524 494.1 1529.3 493.2 1533.2 491.7 1536.3 491.6 1540.4 490.5 1544.9 489.2 1548.5 488.2 1551.8 487.2 1555.6 487.5 1559.2 488.4 1563.3 491.2 1564.5 493.5 1565.1 494.8 1567.6 495.2 1572.8 494.8 1579.3 494 1585.8 491.9 1593.5 488.6 1595.7 485 1599.8 483 1606.9 481.3 1613.5 479.8 1618.5 478.1 1625 478.3 1636.9 478.5 1649.9 479.6 1669.6 482.3 1686.1 486.7 1690.5 486.7 1696 486.7 1707.2 484.9 1743.6 482.7 1752.9 481.9 1760.3 482.9 1767.6 483.4 1772 482.3 1783.6 482.1 1792.4 481 1805.1 480.3 1817.2 479 1826.6 477.2 1823.5 574.7 1787.3 572.7 1786.2 605.7 1736.9 602.8 1735.4 647.5 Z" data-holc_grade="C"/>
<path d="M 1760.1 920.9 1773.9 921.5 1772.7 935.6 1776.9 936.3 1776.6 950.4 1798.7 950.8 1793.8 1082.7 1770.4 1082.3 1770.7 1071.5 1741.8 1069.6 1747.2 920.1 1760.1 920.9 Z" data-holc_grade="C"/>
<path d="M 1555.1 1136.4 1421.1 1131.1 1426.1 1059.2 1559.1 1062.8 1559.1 1090.1 1555.1 1136.4 Z" data-holc_grade="C"/>
<path d="M 1283.7 1051.6 1285.2 1066.4 1278 1081.6 1269.2 1099.9 1265.8 1109.4 1266.6 1125 1180.4 1122.1 1182 1073.4 1185.8 1065.4 1182.6 1060.1 1183.2 1046.8 1283.7 1051.6 Z" data-holc_grade="C"/>
<path d="M 973.1 1135.2 984 1134.1 1021.6 1133.8 1011 1322.1 903.4 1318.2 896.3 1296.2 902.2 1292.7 909.9 1285.3 914.5 1276 915.2 1266.3 916.5 1251.9 916.5 1243.8 914.2 1234.4 909.6 1224.8 905.1 1219.4 899 1209.8 898.5 1200.7 898.5 1194.8 894.9 1187 891.6 1177.1 887.3 1163.9 884.7 1155.8 882.2 1148.5 882.2 1142.6 882.2 1132.5 906.4 1131.5 926.8 1134.8 969.5 1135.6 973.1 1135.2 Z" data-holc_grade="C"/>
<path d="M 1011.3 1346.1 980.2 1344.8 936.9 1343.2 935.8 1344.4 971.5 1433.4 970.3 1455.6 994.1 1457.9 1020.7 1459.8 1021.5 1458.1 1018.4 1439.1 1036.2 1439.9 1035.8 1491.7 1038.6 1510.8 985.8 1508.1 929.6 1504.7 928.1 1505.9 927.8 1508.5 928.1 1511.8 937.4 1522.6 938.9 1525.7 936.8 1575.6 934.9 1576.1 926.5 1581.4 915.6 1570.6 906.9 1568.7 887.6 1568.9 869.3 1571.1 864.4 1571.3 852.8 1568.4 854.5 1558.7 855.3 1547.1 856.1 1527.6 839.6 1526.4 839.7 1514.5 840.1 1472.1 840.4 1439.1 841.3 1398.2 840.6 1361.1 840.1 1330.6 840.1 1327.3 840.4 1292.2 840.4 1263.3 839.3 1250.8 837.2 1225.6 837.4 1202.9 840.2 1160 853.6 1160 876.5 1187.1 877.7 1190.4 878.8 1195.3 880.5 1203.8 883.7 1214.9 890.2 1238.2 880.1 1263 883.6 1268.9 880.1 1277.7 878 1281.9 876.7 1286.4 876.3 1291.1 881.2 1296.8 885.1 1298.6 892.2 1297.8 896.3 1296.2 903.4 1318.2 1011 1322.1 1011.3 1346.1 Z" data-holc_grade="C"/>
<path d="M 481.1 230 480.4 246.4 499.6 251.5 542.3 262.7 554.7 266 554.1 327.6 489.2 326.1 447.1 328.1 420.4 329 415.1 329 405.6 327.4 378 315.2 350.6 279.2 321.3 278.4 321.8 260.2 316.1 254.7 283 254.7 276.2 254.7 262.7 241.1 266.3 150.9 319.4 151 328 154.2 339.7 155.4 339.1 188.4 364.5 189.6 368.3 193.1 481.1 230 Z" data-holc_grade="C"/>
<path d="M 1263.4 1348.2 1162.1 1343.4 1157.7 1459 1188 1493.7 1195.1 1494 1194.1 1521.1 1168.4 1521.1 1167.1 1522.6 1141.1 1522.9 1136.4 1525.5 1106.6 1524.2 1099.5 1533.8 1054.8 1533.8 1056.5 1492.3 1061.9 1368.6 1070 1236.7 1156.7 1244.3 1159 1224.2 1168.5 1223.4 1169.6 1211.3 1216.6 1227.2 1268.5 1225 1269.3 1247 1280.7 1247.8 1276.5 1349.3 1263.4 1348.2 Z" data-holc_grade="C"/>
<path d="M 1263.4 1348.2 1257.7 1469.7 1256.7 1498.2 1255.2 1539.1 1253.6 1547.2 1250.6 1552.1 1246.8 1562.2 1242.7 1567.8 1238.1 1571.1 1232.2 1571.6 1224.1 1571.8 1219.8 1573.9 1213.7 1572.8 1209.6 1571.3 1209.3 1587.8 1192 1594.1 1176.5 1592.4 1163.5 1590.8 1151.8 1582.7 1143.9 1580.4 1136.5 1580.7 1128.6 1577.9 1117.7 1577.9 1100.1 1574.6 1092 1572.3 1072.9 1568.3 1072.6 1565.5 1069.2 1559.4 1065.4 1554.2 1066 1553.6 1086.9 1551.9 1100.2 1550.3 1106.9 1546 1107.4 1545.4 1144.8 1548.1 1142.5 1537.2 1136.4 1525.5 1141.1 1522.9 1167.1 1522.6 1168.4 1521.1 1194.1 1521.1 1195.1 1494 1188 1493.7 1157.7 1459 1162.1 1343.4 1263.4 1348.2 Z" data-holc_grade="C"/>
<path d="M 1519.5 1188.8 1518.4 1207.9 1555.3 1209.2 1553.1 1263.7 1540 1262.4 1540.3 1285.6 1538.7 1308.7 1538.7 1345.8 1533.7 1412.3 1508.2 1411 1502.5 1560.6 1498.3 1552.7 1492 1548.3 1486.6 1541.6 1483.1 1534 1478.3 1524.8 1473.5 1519.4 1466.2 1514 1466.2 1506.8 1395.2 1502.2 1399.8 1353.5 1329.5 1352 1324.6 1348.5 1327.2 1301.8 1336 1300.6 1339.5 1297.6 1339.8 1253.1 1290.6 1249.7 1280.7 1247.8 1269.3 1247 1268.5 1225 1269.4 1174 1519.7 1185.1 1519.5 1188.8 Z" data-holc_grade="C"/>
<path d="M 1861.7 1274 1917.2 1277.5 1913.9 1379.7 1899.3 1377.9 1898.7 1393.3 1878.3 1392.3 1878.8 1347.1 1865.2 1346.8 1867.3 1305.8 1861.7 1274 Z" data-holc_grade="C"/>
<path d="M 1086.5 1637.3 1087.8 1654.6 1088.8 1664.9 1088.2 1679.3 1086.8 1697.7 1085.8 1711.7 1084.3 1722.5 1078.9 1738.8 1047.5 1736.2 1049.8 1688.1 1049.8 1667 1049.2 1664.6 1021.7 1661.5 996.6 1669.4 998.4 1634.2 1000 1633.8 1001 1612.1 1032.7 1613.1 1033.3 1588.9 1034.1 1588.1 1078.8 1588.7 1084.5 1608.2 1085.2 1618.7 1086.3 1635 1086.5 1637.3 Z" data-holc_grade="C"/>
<path d="M 1244.3 1936.5 1162.3 1931.1 1166.8 1796.1 1168.9 1782.1 1170.7 1739.5 1146.3 1738.2 1145.3 1727.6 1148 1694.9 1149 1665.1 1173.7 1665.2 1173.8 1644.3 1175.7 1643 1201.1 1643.3 1202.4 1617.3 1201.3 1598.4 1204.3 1596.4 1219.5 1590.8 1260.9 1591.8 1263.3 1598.9 1263.7 1603.8 1265.6 1610.3 1266.5 1617.6 1266.6 1627 1266.1 1637 1266.2 1640.3 1264.4 1645 1264.4 1664 1263.9 1699 1261 1767.4 1257.3 1853 1255.1 1853 1253.3 1854.6 1250 1906.9 1249.1 1936.8 1244.3 1936.5 Z" data-holc_grade="C"/>
<path d="M 1510.9 1614.9 1513.6 1619.3 1520.9 1659.6 1484.3 1657.4 1483.7 1684.6 1396.2 1681.4 1398.1 1654.2 1347.3 1651.1 1325.8 1650.2 1326.3 1596.6 1260.9 1591.8 1257.1 1580.9 1257.1 1548.3 1352.6 1552.7 1396.8 1579.4 1460.8 1588.3 1501.5 1605.1 1508.8 1611.4 1510.9 1614.9 Z" data-holc_grade="C"/>
<path d="M 1388.4 1850.2 1384 1919.3 1383.8 1947.8 1354.7 1946 1336.1 1977.1 1284.4 1975.2 1286.2 1936.7 1332.3 1937.9 1332.7 1914.8 1345.3 1915.4 1348.4 1874.8 1333.4 1873.6 1333.7 1857.4 1326.3 1857.3 1329.8 1800.3 1318.4 1799.3 1319.8 1774.1 1342.4 1774.9 1346 1704.2 1347.3 1651.1 1398.1 1654.2 1396.2 1681.4 1392.3 1789.1 1388.4 1850.2 Z" data-holc_grade="C"/>
<path d="M 1437.2 1949 1383.8 1947.8 1384 1919.3 1388.4 1850.2 1535.4 1855.7 1535.1 1882 1586.4 1884.1 1586.2 1912.9 1608.2 1913.7 1607 1956.7 1602.7 1960 1439.9 1949 1437.2 1949 Z" data-holc_grade="C"/>
<path d="M 1244.3 1936.5 1257.4 2001.8 1268 2003.2 1274.3 2005.8 1280.2 2010.3 1290 2018.6 1296.5 2026.9 1302.6 2036.7 1320.2 2036.9 1320.8 2032 1321.6 2028 1323.2 2024.9 1326.1 2023.3 1331.4 2022.9 1337.9 2023.3 1343.2 2023.7 1347.1 2025.3 1352.8 2025.5 1357.5 2024.9 1363.8 2023.1 1369.5 2020.1 1375 2016.2 1379.3 2011.7 1433.7 2007.1 1442.3 2013.4 1438.8 2072.7 1439.6 2098 1380.3 2094.7 1372.4 2243.6 1274.9 2237.8 1274.9 2162.3 1253.6 2161.3 1252.3 2188 1178.1 2185.1 1179.7 2132.2 1180.3 2127.8 1276.7 2133.5 1281.2 2124.6 1282.2 2110.4 1283.3 2080.3 1279 2058.6 1260.3 2035.3 1185.5 2032.2 1185.3 2010.7 1156.1 2009 1150.9 2006 1159.2 1996.8 1161.4 1956.8 1162.3 1931.1 1244.3 1936.5 Z" data-holc_grade="C"/>
<path d="M 281.9 294.4 281.2 380.1 257.6 380.2 258.1 414.3 233.1 414.4 233.1 409.7 210.9 409.7 197.4 409.4 198.8 351.7 171.8 352.6 172.1 315.9 182.6 315.7 184.4 261.8 224.6 263.1 282.8 260.6 281.9 294.4 Z" data-holc_grade="C"/>
<path d="M 1032.8 2123 1028 2226.2 980.5 2222.1 962.5 2220.6 963.2 2203.7 964.5 2195.8 964.8 2181.5 967.7 2120.9 980.2 2120.8 1032.8 2123 Z" data-holc_grade="C"/>
<path d="M 962.5 2220.6 980.5 2222.1 979.9 2272.1 1026.4 2274.6 1026.4 2283.3 1068.6 2286.1 1067.2 2326.9 1063.3 2403.3 1063.2 2429.4 1061.1 2430.6 1011.8 2426.6 972.5 2426.2 969.6 2465.4 968 2470.2 964.6 2471.7 851.6 2466.7 823.4 2465.4 822.7 2464.6 821.8 2411.4 822.1 2403.4 823.4 2360.5 824.8 2350.5 826.2 2310.1 827.7 2308.9 870.5 2312.8 870.1 2315.4 914.6 2318.6 916.3 2270.6 895 2269.7 896.3 2225.7 897.7 2217 962.5 2220.6 Z" data-holc_grade="C"/>
<path d="M 1368.8 2290.2 1365 2389.8 1319.1 2387.5 1317.7 2372.8 1317.5 2371 1319.5 2339.3 1268.2 2335.8 1274.9 2237.8 1372.4 2243.6 1368.8 2290.2 Z M 1146.5 2291.5 1121.3 2289.7 1123.2 2229.4 1144.5 2229.7 1159 2230.1 1147.5 2258.4 1146.5 2291.5 Z" data-holc_grade="C"/>
<path d="M 1268.2 2335.8 1319.5 2339.3 1317.5 2371 1317.7 2372.8 1291.1 2371.3 1285.7 2490.8 1260.5 2487.8 1195.5 2486.6 1163.4 2482.8 1169.2 2331 1268.2 2335.8 Z" data-holc_grade="C"/>
<path d="M 2665.5 911.2 2690.3 911.9 2688.1 954.5 2630.4 948.1 2630.4 942.4 2462.5 933.1 2462.1 939.9 2419 937.7 2419.4 931.2 2345.6 927.2 2315.5 926.9 2315.5 901.1 2318.6 901.1 2321.6 827.3 2332.6 811.4 2316.6 792.7 2321.8 698.9 2325.6 644.1 2324.8 616 2342 628.6 2377.1 630 2393.9 635 2412.6 645.2 2424.4 660.8 2428.3 673.7 2428.3 687.8 2423.7 703.3 2424.9 723.5 2426.8 740.6 2434.8 758.4 2445.9 771 2459.3 779.7 2485.6 793.3 2525.4 856 2523.5 896.7 2578.9 899.7 2618.9 907.6 2635.7 910.6 2665.5 911.2 Z" data-holc_grade="C"/>
<path d="M 2911.9 922.5 2912.3 947.6 2915.4 949.8 2914.9 973.3 2918.3 972.9 2917.4 1003.3 2913 1049.2 2914.3 1072.7 2880 1070.5 2880.9 1050.9 2886.9 1004 2871.3 1005.3 2873.1 942.9 2877.2 915.3 2877.5 884.3 2792.9 880.6 2797.9 846 2787.4 843.8 2787.7 830.5 2747.6 825.2 2668.1 822.1 2669.3 772.6 2714.3 779 2716.2 747.4 2802 750 2799 793.3 2836.1 797.4 2874.6 796.6 2873.5 821 2899.8 818.3 2917.4 818.6 2914.3 850.3 2911.9 922.5 Z" data-holc_grade="C"/>
<path d="M 2349.3 1296.1 2345.3 1405.8 2303.5 1403.4 2262.2 1398.1 2262.4 1390.5 2269.2 1363.1 2269.7 1347.8 2265.2 1345 2223.1 1342.8 2223.9 1290.3 2349.3 1296.1 Z" data-holc_grade="C"/>
<path d="M 2276 2040.3 2275 2033.8 2276.4 2016.2 2274.3 1995.1 2376.8 1997 2377.8 1894.4 2429.5 1896.9 2432.9 1978.3 2433.2 2022.4 2430.9 2050.1 2379 2042.5 2372.6 2045.3 2367.3 2047 2362.2 2046.6 2353 2044.9 2347.3 2042.9 2342.2 2039.3 2339.6 2035.4 2334.3 2029.7 2276 2040.3 Z" data-holc_grade="C"/>
<path d="M 438 526.3 389.4 524.8 389.3 550.6 330.3 549.3 330.1 533.3 330.1 511.9 371.2 513.7 371 492.5 373.5 489 376.5 486 381 484.6 387.7 483.2 389 422 369.3 421.9 367.5 433.7 342 434.3 341.2 475 326.3 475.6 322.4 476.8 319.2 479.8 318.6 483.1 318.4 491.2 305.9 500.3 294.9 514.3 287 514.4 286.3 569.6 280.7 569.3 273.3 561.4 253 538.5 255.4 490.4 257.5 490.3 257.5 477.2 272.7 477.1 273.1 446.4 316.4 447.6 318.3 415.5 258.1 414.3 257.6 380.2 281.2 380.1 281.9 294.4 321 295.1 321.3 278.4 350.6 279.2 378 315.2 377.9 333.5 396.8 349.2 444.5 348.9 441.9 459.9 430.6 459.4 428.9 467.8 437.4 473.7 438 526.3 Z" data-holc_grade="C"/>
<path d="M 210.9 409.7 209.7 429.5 218.4 453.3 213.1 455.5 212.3 489.3 215.9 489.4 216.5 510.7 211.2 513.5 196.2 512.7 176.6 512.7 132.9 514.8 131.5 513.2 131.9 479.8 130.1 477.6 116.7 477.9 101.8 481 101 468.8 71.1 471 74.4 398.9 109.7 396.4 116.1 403.7 119.3 385.4 130.4 352.1 171.8 352.6 198.8 351.7 197.4 409.4 210.9 409.7 Z" data-holc_grade="C"/>
<path d="M 438.3 529.6 437.8 564.8 442.6 572.4 444.1 631.5 388.7 631.4 389 612.7 389.3 550.6 389.4 524.8 438 526.3 438.3 529.6 Z" data-holc_grade="C"/>
<path d="M 628.6 592.2 628.5 605.3 537.7 606.5 537.2 578.6 538.7 570 539 537.3 601.2 538.2 601.7 556.8 615.5 556.5 615.2 590.9 628.6 592.2 Z" data-holc_grade="C"/>
<path d="M 286.3 569.6 300.2 570.3 300.2 572.8 331.3 572.9 336.8 578.7 337.1 611.1 389 612.7 388.7 631.4 444.1 631.5 443.8 661.1 474.9 663.2 487.1 662.2 488 708.3 449.9 687.5 450.9 760 384.9 757.6 384.7 713.5 351.1 713.7 351.9 659.3 345.2 659 326.3 682.8 286.6 682 286.1 670.8 213.6 669.2 213.4 623.1 215.2 607.9 213.3 567.9 206.9 567.6 206.8 566 206.7 560.3 208.4 558.3 273.3 561.4 280.7 569.3 286.3 569.6 Z" data-holc_grade="C"/>
</g>
<g id="D">
<path d="M 496 168.5 494.5 190.1 484.7 192.8 481.1 230 368.3 193.1 364.5 189.6 339.1 188.4 339.7 155.4 328 154.2 319.4 151 266.3 150.9 262.7 241.1 276.2 254.7 283 254.7 282.8 260.6 224.6 263.1 184.4 261.8 154.5 260.5 153.6 182 153.7 143 183.8 143.8 181.5 104.3 179.8 61.2 196.1 62.2 195.9 10.2 214 10.5 214.3 2.9 229.9 3.7 229.8 60.2 281 62.3 283.1 3.8 359.1 1 355.3 63.3 338.5 64.3 336.9 87.8 344.1 87.6 344.8 75.4 348.3 69.9 393.1 68 388.5 123.8 491.2 119.8 487.1 168.4 496 168.5 Z" data-holc_grade="D"/>
<path d="M 389.8 1218.7 389.5 1209.5 374.5 1209 372.2 1200.1 369.4 1195.3 365.1 1192.8 358.5 1185.9 314.9 1187.6 314.2 1178 291.8 1177.2 295.3 1210.9 269.6 1210.7 270.1 1226.9 192 1228.8 189.7 1216.5 189.2 1213.7 204.4 1212.9 196.5 1184.3 197.3 1182.7 215.9 1182.5 215.1 1159.4 227.3 1158.6 225.4 1133 230.2 1132.1 253.7 1137.8 260.7 1137.8 259.2 1092.5 151.3 1092.1 149.1 1081.3 88.7 1083.1 88.5 1057.6 88.4 1044.1 106.5 1042 186.4 1043 186 1055 253.2 1050.7 254.1 1057.4 319.3 1077.1 318.9 1110 344.7 1109.1 363.8 1109.4 402.9 1111.2 403.8 1156.3 427 1187.3 429.2 1220.7 389.8 1218.7 Z" data-holc_grade="D"/>
<path d="M 189.2 1213.7 189.7 1216.5 159.2 1215.4 136.6 1213.6 138.3 1175 153.6 1164 153.4 1162.5 86.4 1163.5 85.3 1162.1 84.4 1134.2 132.9 1134.9 145.9 1134.5 150 1112 178.7 1112.4 177.7 1153.8 182.5 1185.4 189.2 1213.7 Z" data-holc_grade="D"/>
<path d="M 489.4 1212.2 503.9 1212.5 508.3 1222.8 510 1231.2 516.1 1251.1 522.9 1264 535.6 1278.8 538.1 1278.7 536.3 1242.9 589.7 1279.6 618.2 1279.3 617.7 1307.4 617.7 1314.7 555.8 1363.1 534.1 1364.3 534 1327.6 532.7 1326.9 531.4 1326.6 502.1 1345.4 483.1 1359.4 467.1 1372.6 457.2 1382.2 393.9 1425.7 390.5 1424.1 388.4 1313.9 390.7 1263.7 443.4 1258.9 442.2 1211.3 489.4 1212.2 Z" data-holc_grade="D"/>
<path d="M 620.8 1202.5 621.8 1169.3 621.1 1141.4 610.9 1140.9 565.3 1153.3 538.9 1157.8 522.3 1159.6 523.7 1119.3 565.5 1116.6 584.3 1113.3 634.5 1104 657.4 1093.6 670.3 1090.1 679 1087.3 719.5 1067.6 730.2 1060.2 753.1 1045 767.1 1034.9 815.2 1034.2 817 1036.7 817.2 1042 846 1042.1 845.9 1104.1 841.8 1111.5 780.5 1112 751.5 1126.9 741.8 1136.5 722.2 1156.3 716.1 1164.9 694.7 1202.6 688.3 1201.6 620.8 1202.5 Z" data-holc_grade="D"/>
<path d="M 840.1 1330.6 764.9 1331.5 764.1 1376.6 763.8 1424.8 746.2 1424.9 733.2 1423.3 727.3 1422.2 718.4 1422 702.8 1425.2 695.8 1426.3 689.7 1426.4 687.4 1426 686.6 1426.3 683 1508.2 651.1 1509 641.7 1511.2 636.6 1511.7 631.5 1511 626.2 1509.4 587.2 1508.6 586.1 1505.4 585.5 1503.3 583.7 1497 587.1 1362.9 555.8 1363.1 617.7 1314.7 617.7 1307.4 645.7 1307.1 703.5 1237 750.2 1175.9 769.2 1189.6 842.1 1122 840.2 1160 837.4 1202.9 837.2 1225.6 839.3 1250.8 840.4 1263.3 840.4 1292.2 840.1 1327.3 840.1 1330.6 Z" data-holc_grade="D"/>
<path d="M 151.6 1512.3 152.2 1466.9 149.1 1463.1 135.9 1455 135.4 1415.7 157.1 1415.3 180.1 1416 180.2 1405.9 221.6 1407.2 273.3 1405 276.8 1406.5 275.5 1445.8 275.5 1456.2 279.3 1477 202 1504.5 195.9 1508.6 153.1 1520.9 151.6 1518.1 151.6 1512.3 Z" data-holc_grade="D"/>
<path d="M 740.7 637 779.5 617.1 821.1 691.9 778.8 714.3 740.7 637 Z" data-holc_grade="D"/>
<path d="M 1170.4 141 1134.2 149.5 1141.1 79 1174.7 80.7 1170.4 141 Z M 1234.7 130.9 1229.9 106.1 1251 101.5 1248.5 89.1 1226.6 93.4 1224.6 82.3 1303 64 1305.3 74.2 1307.5 73.8 1310.5 98.7 1307.9 100.1 1309.5 112.3 1234.7 130.9 Z" data-holc_grade="D"/>
<path d="M 1432.1 402.5 1505.6 406.5 1504.3 456.4 1455.5 467.3 1410.7 465.6 1412.7 423.5 1432.1 402.5 Z" data-holc_grade="D"/>
<path d="M 1334.3 559.4 1330.4 564.1 1326.8 570.2 1321.5 579.6 1317.6 589.7 1313.1 598.6 1310.8 605.2 1309 609.5 1307 617.1 1304.7 627.2 1303.5 635.3 1303.1 650.5 1236.4 647.5 1236.3 649.4 1161.8 645.8 1150.8 602.1 1156.2 599.2 1151.7 578.8 1207.2 564.6 1210.6 576.5 1239.1 569.5 1242 570.4 1241.3 580.5 1261.6 581.8 1264.1 592.1 1280.7 592.7 1276.6 557.9 1278.6 555.3 1334.3 559.4 Z" data-holc_grade="D"/>
<path d="M 683.7 501.8 684 411.2 741.7 413.5 741.5 302.4 722.9 302.4 723.2 271.7 704.7 274.5 659.9 274 659.7 292.2 624.3 292.8 623.9 281.6 605.6 281.4 606 257.7 571.2 258.1 575 202.8 546.4 202.5 547 195.8 547.6 187.6 548.7 169.2 549.7 151.7 550.4 142.8 550.6 140.1 552.3 132.2 555.2 124.6 558.9 116.6 562.3 111.3 565.9 105.1 573.7 97 582.5 101.9 593 107.9 605.5 115.2 652 142.1 663.6 148.3 674.9 154.7 686.7 160.8 695.5 167.7 702.1 175.8 711.2 184 719.4 192.8 725.5 201.9 732.4 212.1 737.5 220.3 744.2 234 747.9 241.3 752.1 249.3 755.3 256.4 758.6 262.7 764.3 273.6 768.4 281.7 771.3 288 773.8 295.6 777.6 305.5 779.4 312.6 781.4 321.4 784 329.3 786.3 337.1 787.3 345.2 786.5 353.5 771.1 353.8 773.2 437 763.1 436.8 763.1 448.1 754.3 454.2 753.9 476.5 742.1 476.5 741 502.6 683.7 501.8 Z" data-holc_grade="D"/>
<path d="M 1020.6 781.9 1038.3 782.6 1034.8 909.7 962.7 969.3 919.1 980.8 910.6 979 905.1 976 897.2 971.3 890.4 965.8 888.8 963 884.9 955.7 882.9 948.8 880.5 939.3 879.9 932.6 880.9 924 884 916.5 890.3 901.6 900.7 883.9 912.1 864.7 917.4 856.2 930.2 843.2 933.1 838.9 968.9 750.8 970.6 748 977.3 742.1 978.3 739 977.5 737.2 975.9 730.3 976.9 713.9 980.3 710.9 982.8 705.2 986.9 689.8 986.7 680.9 989.5 673.4 990.3 670.3 992.6 666.8 995.4 665.1 998.9 664.5 1003.2 664.5 1008.5 664.6 1015.2 666 1024.5 667.1 1020.6 781.9 Z" data-holc_grade="D"/>
<path d="M 973.1 1135.2 969.5 1135.6 926.8 1134.8 906.4 1131.5 882.2 1132.5 882.8 1111.1 885.8 1105.7 887.1 1078.9 951.1 982.6 978.8 983.6 973.1 1135.2 Z" data-holc_grade="D"/>
<path d="M 1011.3 1346.1 1027.6 1347.7 1026.8 1366.7 1061.9 1368.6 1056.5 1492.3 1035.8 1491.7 1036.2 1439.9 1018.4 1439.1 1021.5 1458.1 1020.7 1459.8 994.1 1457.9 970.3 1455.6 971.5 1433.4 935.8 1344.4 936.9 1343.2 980.2 1344.8 1011.3 1346.1 Z" data-holc_grade="D"/>
<path d="M 1269.4 1174 1268.5 1225 1216.6 1227.2 1169.6 1211.3 1168.5 1223.4 1159 1224.2 1156.7 1244.3 1070 1236.7 1061.9 1368.6 1026.8 1366.7 1027.6 1347.7 1011.3 1346.1 1011 1322.1 1021.6 1133.8 1044.8 1136.4 1045.2 1118.6 1048.7 1106.3 1048.7 1086.9 1082.4 1088.5 1087.5 1073 1091.3 1075.5 1095.4 1074 1103.1 1075.2 1102.1 1088.2 1106.9 1092 1107.5 1110.1 1128.5 1110.7 1129.5 1092.4 1134.2 1091.1 1133.9 1074 1126.6 1067.6 1124.4 1059.4 1121.2 1053.7 1122.2 1030.9 1123.4 1025.8 1175.6 1028.4 1174.3 1046.1 1183.2 1046.8 1182.6 1060.1 1185.8 1065.4 1182 1073.4 1180.4 1122.1 1266.6 1125 1266.9 1142.8 1269.7 1153.5 1269.4 1174 Z" data-holc_grade="D"/>
<path d="M 1424.2 1059.1 1426.1 1059.2 1421.1 1131.1 1555.1 1136.4 1556.5 1163.5 1554.6 1189.2 1519.5 1188.8 1519.7 1185.1 1269.4 1174 1269.7 1153.5 1266.9 1142.8 1266.6 1125 1265.8 1109.4 1269.2 1099.9 1278 1081.6 1285.2 1066.4 1283.7 1051.6 1424.2 1059.1 Z" data-holc_grade="D"/>
<path d="M 1481.4 591.6 1483.7 591.8 1483.4 608.5 1482.4 655.3 1469.8 654.6 1467.5 710.4 1712.9 721.6 1712.2 748.9 1688.9 748.9 1675.5 752.4 1624.8 773.6 1619.1 777.4 1610.3 779.7 1588.2 804.8 1557.6 804.1 1557.3 820 1456.1 871.7 1409.6 868.7 1408.4 880.8 1347.4 880.4 1335.9 885.4 1177.5 880.4 1181.4 729.9 1209.3 731 1210.4 714.7 1235.2 716.2 1236.3 649.4 1236.4 647.5 1303.1 650.5 1303.5 635.3 1304.7 627.2 1307 617.1 1309 609.5 1310.8 605.2 1313.1 598.6 1317.6 589.7 1321.5 579.6 1326.8 570.2 1330.4 564.1 1334.3 559.4 1336.2 557 1343.9 550.5 1350 547.4 1354.5 544.6 1364.7 541.6 1370.6 540.8 1373.1 540.8 1373.6 548.9 1430.8 553.3 1429.3 588.2 1481.4 591.6 Z" data-holc_grade="D"/>
<path d="M 1712.9 721.6 1467.5 710.4 1469.8 654.6 1482.4 655.3 1483.4 608.5 1510.6 607.7 1512.6 570.2 1515.9 562.4 1637 565.7 1636.7 642.2 1735.4 647.5 1734.4 683.2 1732.4 687.7 1731.6 715.6 1733.6 717.6 1733.6 722.4 1712.9 721.6 Z" data-holc_grade="D"/>
<path d="M 1733.6 722.4 1733.6 717.6 1731.6 715.6 1732.4 687.7 1734.4 683.2 1735.4 647.5 1736.9 602.8 1786.2 605.7 1787.3 572.7 1823.5 574.7 1826.6 477.2 1852.8 476.2 1867.3 476.1 1872.1 477.8 1875.4 478.8 1881 481 1885.2 484.2 1888.6 487.1 1891.8 490.5 1893.9 495.5 1894.3 502.4 1888.9 584.1 1887.1 637 1825 673.7 1785.7 671.3 1783.1 724.2 1758.5 723.2 1757.7 737 1734.1 736.8 1733.6 722.4 Z" data-holc_grade="D"/>
<path d="M 1975 880.1 1829.3 873.3 1825.7 952.3 1798.7 950.8 1776.6 950.4 1776.9 936.3 1772.7 935.6 1773.9 921.5 1760.1 920.9 1765.9 910.8 1769 901.9 1769.2 893.1 1768.5 885.7 1766.2 878.6 1760.3 870 1752.7 864.2 1745.6 859.6 1741.5 855.6 1737.2 850.7 1735.6 838.8 1737.2 821.9 1737.4 773.3 1778.6 774.8 1778.3 755.6 1779.2 753.1 1806.3 737.9 1829.8 738.2 1831.7 735.4 1833 721.4 1927.4 650.8 1928.3 626.4 1970 627.9 1972.2 628.6 1970.3 679.9 1981.7 681.5 1980.5 685.3 1975 880.1 Z M 1681.4 819.3 1668 826.2 1629.8 824.9 1626.4 919 1580.6 917.4 1577.8 964.1 1562.2 963.6 1543.9 960.6 1466 958 1463.4 1005.7 1458.4 1015.8 1458.4 1035.1 1423.8 1034.1 1424.2 1059.1 1283.7 1051.6 1183.2 1046.8 1174.3 1046.1 1175.6 1028.4 1181.9 910 1327.9 917.6 1329.7 935.8 1376.9 937.2 1379.2 901.1 1428.8 903.2 1429.4 893.4 1476.3 877.6 1477.9 870.7 1479.1 868.5 1529 869.9 1528.8 863.9 1579.2 865.3 1581.7 825.3 1612.2 827 1614.2 797.6 1644.6 779.5 1654.5 778.7 1654.3 775.5 1684 765.7 1681.4 819.3 Z M 1354 1028 1375 1028.7 1375.7 1007.5 1354.7 1006.8 1354 1028 Z" data-holc_grade="D"/>
<path d="M 1737.2 821.9 1735.6 838.8 1737.2 850.7 1741.5 855.6 1745.6 859.6 1752.7 864.2 1760.3 870 1766.2 878.6 1768.5 885.7 1769.2 893.1 1769 901.9 1765.9 910.8 1760.1 920.9 1747.2 920.1 1741.8 1069.6 1770.7 1071.5 1770.4 1082.3 1768.2 1142.5 1766 1146.9 1765.6 1172.2 1737.5 1171.1 1637 1167 1556.5 1163.5 1555.1 1136.4 1559.1 1090.1 1559.1 1062.8 1426.1 1059.2 1424.2 1059.1 1423.8 1034.1 1458.4 1035.1 1458.4 1015.8 1463.4 1005.7 1466 958 1543.9 960.6 1562.2 963.6 1577.8 964.1 1624.8 965.6 1626.4 919 1629.8 824.9 1668 826.2 1681.4 819.3 1737.2 821.9 Z" data-holc_grade="D"/>
<path d="M 496.6 530.2 438.3 529.6 438 526.3 437.4 473.7 428.9 467.8 430.6 459.4 441.9 459.9 444.5 348.9 396.8 349.2 377.9 333.5 378 315.2 405.6 327.4 415.1 329 420.4 329 447.1 328.1 489.2 326.1 554.1 327.6 554.7 266 571.4 271.3 571.2 258.1 606 257.7 605.6 281.4 623.9 281.6 624.3 292.8 659.7 292.2 659.9 274 704.7 274.5 723.2 271.7 722.9 302.4 741.5 302.4 741.7 413.5 684 411.2 683.7 501.8 603.3 502.3 602.8 515.7 496.7 515.1 496.6 530.2 Z" data-holc_grade="D"/>
<path d="M 1975 880.1 2012.5 881.8 2012.5 917.3 2007.9 920.8 1999.8 918.8 1989.6 921.9 1980.9 925.9 1970.8 938.6 1966.2 955.3 1952.5 982.7 1875.6 977.2 1871.1 1078.5 1820.2 1076 1820.2 1143.4 1860.9 1146.5 1860.9 1203.2 1811.6 1200.2 1811.9 1174.7 1765.6 1172.2 1766 1146.9 1768.2 1142.5 1770.4 1082.3 1793.8 1082.7 1798.7 950.8 1825.7 952.3 1829.3 873.3 1975 880.1 Z" data-holc_grade="D"/>
<path d="M 1715.3 1317.2 1716.2 1309.9 1714 1297.6 1709.5 1285.8 1707.6 1279.5 1711.4 1246.9 1713 1218.3 1712.6 1215.2 1798.5 1218.4 1808.7 1247.5 1820.8 1269.4 1850.1 1302.3 1846 1309.3 1846 1313.4 1846 1318.5 1836.4 1318.8 1833.3 1369.9 1805.6 1368.9 1804 1367 1805.9 1321.7 1715.3 1317.2 Z" data-holc_grade="D"/>
<path d="M 1712.6 1215.2 1713 1218.3 1711.4 1246.9 1707.6 1279.5 1709.5 1285.8 1714 1297.6 1716.2 1309.9 1715.3 1317.2 1705.2 1327.8 1696.6 1329.7 1696 1331 1699.2 1332.3 1707.7 1342.4 1713.8 1352.2 1720.2 1356 1739.3 1356.6 1740.8 1358.9 1754.2 1362.7 1760.6 1363.3 1761.5 1364.9 1760.3 1395.6 1713.8 1393.1 1704.3 1388.3 1650.5 1389.9 1649.5 1430.8 1659.7 1434.9 1668 1438.7 1677.2 1444.8 1685.8 1451.7 1689.3 1458.4 1690 1468.5 1665.8 1469.8 1658.5 1467.6 1657.5 1516.1 1626.3 1515.1 1556.3 1511 1554.4 1563.9 1502.5 1560.6 1508.2 1411 1533.7 1412.3 1538.7 1345.8 1538.7 1308.7 1540.3 1285.6 1540 1262.4 1553.1 1263.7 1555.3 1209.2 1564.1 1208.5 1564.8 1190.5 1554.6 1189.2 1556.5 1163.5 1637 1167 1737.5 1171.1 1724.8 1178.4 1711.4 1189.5 1710.1 1197.4 1712.6 1215.2 Z" data-holc_grade="D"/>
<path d="M 1466.2 1514 1466.2 1558.9 1406.6 1555.4 1374.5 1545.5 1322.2 1517.8 1303.1 1522.3 1302.8 1502.2 1256.7 1498.2 1257.7 1469.7 1263.4 1348.2 1276.5 1349.3 1280.7 1247.8 1290.6 1249.7 1339.8 1253.1 1339.5 1297.6 1336 1300.6 1327.2 1301.8 1324.6 1348.5 1329.5 1352 1399.8 1353.5 1395.2 1502.2 1466.2 1506.8 1466.2 1514 Z" data-holc_grade="D"/>
<path d="M 1607 1956.7 1608.2 1913.7 1586.2 1912.9 1586.4 1884.1 1535.1 1882 1535.4 1855.7 1388.4 1850.2 1392.3 1789.1 1396.2 1681.4 1483.7 1684.6 1484.3 1657.4 1520.9 1659.6 1513.6 1619.3 1510.9 1614.9 1548.9 1613.4 1599.1 1638.1 1599.3 1609.3 1685.3 1612.1 1684.5 1636.1 1714.2 1638.1 1717.4 1657.2 1720.4 1663.8 1723.5 1666.1 1728.6 1665.4 1736.4 1665.5 1740.9 1667.8 1733.6 1714.2 1732.3 1726.1 1729.4 1730.1 1724.3 1733 1717.5 1733.7 1703.8 1734.9 1690 1739.5 1679.1 1749.1 1675.4 1748.9 1673.6 1746.9 1677.2 1730.2 1688.5 1730.4 1692.9 1667.3 1651.4 1666.1 1647.7 1713.9 1642.3 1832.2 1666.7 1833.2 1676.8 1863.5 1676.3 1899.9 1641.9 1903.7 1640.4 1949.1 1615.7 1950.7 1607 1956.7 Z" data-holc_grade="D"/>
<path d="M 1372.4 2243.6 1380.3 2094.7 1439.6 2098 1438.8 2072.7 1442.3 2013.4 1533.8 2020 1531.6 2046.4 1582.9 2050.9 1581.7 2102.6 1593.9 2103.2 1598 2107.9 1595.2 2158.2 1557.9 2155 1552.2 2256.5 1512.8 2252 1372.4 2243.6 Z" data-holc_grade="D"/>
<path d="M 1285.7 2490.8 1291.1 2371.3 1317.7 2372.8 1319.1 2387.5 1365 2389.8 1368.8 2290.2 1473.1 2296.2 1468.3 2449.5 1412.6 2446.3 1412.9 2424.4 1367.1 2422.2 1363.5 2459.6 1363.2 2494.8 1330.7 2493.5 1285.7 2490.8 Z" data-holc_grade="D"/>
<path d="M 2262.9 850.5 2260.7 911.3 2258.1 912.9 2216.9 910.4 2215.4 926.1 2169.9 922 2166.1 992 2122.3 989.5 2126.8 883.8 2125 838.2 2146.1 839.7 2156.1 834.6 2166.7 833.4 2179.2 830.8 2184.8 830.1 2194.5 832.1 2200.8 834.9 2209.7 840.7 2220.7 845.2 2243.3 846.5 2262.9 850.5 Z" data-holc_grade="D"/>
<path d="M 2717.6 709.9 2717.1 715.4 2671.3 711.9 2669.3 772.6 2668.1 822.1 2668.5 873.6 2665.5 911.2 2635.7 910.6 2618.9 907.6 2578.9 899.7 2523.5 896.7 2525.4 856 2485.6 793.3 2459.3 779.7 2445.9 771 2434.8 758.4 2426.8 740.6 2424.9 723.5 2423.7 703.3 2428.3 687.8 2428.3 673.7 2424.4 660.8 2412.6 645.2 2393.9 635 2377.1 630 2342 628.6 2324.8 616 2325.6 644.1 2321.8 698.9 2313.1 694.1 2296.8 674.3 2274.9 652 2272.9 698.2 2223.1 695.7 2220.1 738.7 2142.7 734.7 2151.2 560.4 2188.4 561.9 2251.5 594.3 2295.7 551.7 2332.8 532.4 2399.4 493.4 2494.5 498.3 2492.6 551.5 2571.4 555.5 2571.3 500.3 2604.4 500.8 2646.7 552.4 2677.2 572.6 2701.1 573.6 2720.5 561.9 2724.5 579.6 2721.5 596.4 2722.1 635.4 2717.6 709.9 Z" data-holc_grade="D"/>
<path d="M 2993.5 857.2 2914.3 850.3 2917.4 818.6 2899.8 818.3 2873.5 821 2874.6 796.6 2836.1 797.4 2799 793.3 2802 750 2716.2 747.4 2714.3 779 2669.3 772.6 2671.3 711.9 2717.1 715.4 2717.6 709.9 2763.4 712.8 2766.9 662.2 2820.3 665.7 2821.3 637.3 2839.6 637.8 2840.6 620 2881.8 623 2881.8 597.2 2916.9 598.1 2918.3 570.8 2976.8 573.7 2976 680.6 2919.5 676.2 2915.5 723.3 2946 723.2 2940 766.3 2964.9 764.8 2999 759.6 2993.5 857.2 Z" data-holc_grade="D"/>
<path d="M 258.1 414.3 318.3 415.5 316.4 447.6 273.1 446.4 272.7 477.1 257.5 477.2 257.5 490.3 255.4 490.4 215.9 489.4 212.3 489.3 213.1 455.5 218.4 453.3 209.7 429.5 210.9 409.7 233.1 409.7 233.1 414.4 258.1 414.3 Z" data-holc_grade="D"/>
<path d="M 2345.6 927.2 2419.4 931.2 2419 937.7 2462.1 939.9 2462.5 933.1 2630.4 942.4 2630.4 948.1 2688.1 954.5 2690.3 911.9 2665.5 911.2 2668.5 873.6 2668.1 822.1 2747.6 825.2 2787.7 830.5 2787.4 843.8 2797.9 846 2792.9 880.6 2877.5 884.3 2877.2 915.3 2873.1 942.9 2871.3 1005.3 2886.9 1004 2880.9 1050.9 2880 1070.5 2914.3 1072.7 2913 1049.2 2917.4 1003.3 2918.3 972.9 2959.7 973.5 2960.6 951 2970.8 950.3 2970.7 940.2 2960.2 939.3 2960.2 932.6 2952.3 932.6 2952.3 924.1 2911.9 922.5 2914.3 850.3 2993.5 857.2 2987.4 1000.7 2983.7 1076.7 2998.9 1076.7 2995.9 1150.8 2902 1144.3 2802.8 1136.5 2800.7 1096 2777.8 1091.4 2777.3 1075.7 2758 1072.2 2758.4 1021.5 2712.6 1018 2712.2 1087.5 2711.7 1126 2642.5 1121 2505.6 1110.5 2504 1060.3 2507.5 1029.9 2455.6 1025.4 2393 1060.9 2306.5 1054.9 2305.9 993.1 2345.6 996.6 2345.6 927.2 Z" data-holc_grade="D"/>
<path d="M 213.6 669.2 185.6 668.7 160.1 637.8 161.3 567.5 206.8 566 206.9 567.6 213.3 567.9 215.2 607.9 213.4 623.1 213.6 669.2 Z" data-holc_grade="D"/>
<path d="M 693.4 650.5 640.4 651 629.7 648.2 629.8 688.2 640.3 703.1 657.4 703.7 658 729.3 633.5 729.5 635.2 808.5 502.4 812.5 500.9 761.8 450.9 760 449.9 687.5 488 708.3 487.1 662.2 474.9 663.2 443.8 661.1 444.1 631.5 442.6 572.4 437.8 564.8 438.3 529.6 496.6 530.2 497.1 535 539 537.3 538.7 570 537.2 578.6 537.7 606.5 628.5 605.3 628.6 592.2 645.3 579.2 658.3 579 658.5 555.2 685.8 554.2 689.3 542.3 733.8 543.6 745 555 693.4 650.5 Z" data-holc_grade="D"/>
<path d="M 286.6 682 326.3 682.8 345.2 659 351.9 659.3 351.1 713.7 384.7 713.5 384.9 757.6 450.9 760 500.9 761.8 502.4 812.5 635.2 808.5 633.5 729.5 658 729.3 657.4 703.7 640.3 703.1 629.8 688.2 629.7 648.2 640.4 651 693.4 650.5 690.3 707.5 689.1 747.4 678.8 780.9 658.9 815.4 641.7 845.8 611.2 859.5 586 863.3 563.9 860.2 520.8 855.6 486.4 850.6 324.7 812.4 284.2 802.5 286.6 682 Z" data-holc_grade="D"/>
<path d="M 435 897.8 511.6 897.9 635.7 893.5 693.5 895 695.8 898.3 696 914.3 724.3 904.2 723.4 955.7 671.4 1029.4 615.9 1029 486.6 1030.9 484.8 989.9 457.3 1007.9 434.9 1008.1 435 897.8 Z" data-holc_grade="D"/>
<path d="M 274.5 958.7 283.9 956.9 292.4 957.3 322.1 1004.1 329.8 1004.8 347.3 1030.7 327.9 1040.9 273.8 1041 274.6 1008.8 274.5 958.7 Z" data-holc_grade="D"/>
</g>
</svg>