<?xml version="1.0"?>
<svg xmlns="http://www.w3.org/2000/svg" version="1.2" baseProfile="tiny" width="3000" height="2145" viewBox="0 0 3000 2145" stroke-linecap="round" stroke-linejoin="round">
<g id="A">
<path d="M 1763.5 831.9 1761.5 831.5 1727.3 829.3 1699.5 827.7 1671.3 826 1641.4 823.7 1609 820.2 1609.1 800.9 1609.3 773.5 1609.8 763.2 1610.6 748.6 1610.1 731.8 1609.3 717.1 1605.3 710.7 1552.6 708.2 1553.8 665.6 1564.3 646.3 1547.5 628.6 1536.8 615.4 1541.3 583.1 1544.1 567.1 1550.2 539 1554.3 521.7 1558.6 512.5 1567.9 503 1571.9 518.5 1574.9 529.8 1581.1 542.6 1585.4 551.7 1593.5 561.2 1602.5 569.2 1608.5 572.3 1622.6 562.3 1623.6 553.5 1621.5 537.6 1619.7 518.5 1673.2 518.9 1705.4 517.1 1721.3 515.9 1719.9 553.5 1764.6 593.9 1771.5 598 1785.3 598.7 1807.1 600.7 1822.5 603.9 1838.7 606.6 1849.4 604.3 1858.3 601.3 1872.4 594.8 1911.8 576.5 1932.5 568.5 1949.2 565.4 1968.4 564.2 1968.3 554.6 1966.3 535.4 1935.3 537.7 1851.8 548.5 1846.6 528.2 1842.9 506.5 1840.3 474.1 1792.7 474.7 1755.3 474.1 1692.6 473.6 1555.3 472.5 1532.9 473 1523.5 474.3 1518.7 476.6 1512.3 481 1506.8 486.7 1502.2 523.1 1500.4 567.9 1500.8 587.6 1500.8 608.4 1500.3 627.4 1495.7 628.2 1482.3 628.4 1470.1 628.4 1455 625.8 1443.8 621.2 1429 616.1 1415.8 612.2 1410.7 620.8 1404.3 628.2 1391.7 639.5 1383.3 646.7 1372.6 654.6 1359.3 662.3 1364.8 679.2 1368.4 703.6 1373.1 723.6 1372.7 735.6 1360 726.2 1342.3 713.9 1325.9 704.1 1307.2 697.9 1294.5 669.3 1277.9 619.8 1288.2 610.6 1301.1 604.7 1315.6 598.8 1329.4 595.8 1342.9 596.5 1363.6 596.5 1385.4 595.8 1402.2 594.5 1411.1 594.2 1424.6 596.8 1436.8 599.8 1446.6 600.2 1454.7 597 1462.1 590.1 1466.4 577.3 1472.1 558.1 1475.5 540.5 1495.7 479 1483 466.6 1472.9 453.6 1450.6 465.2 1396.5 341.1 1404.4 338.1 1412.7 337.9 1429.7 340.3 1446.6 342 1462.3 342.6 1475.3 343.6 1490.7 343 1508.5 339.5 1540.1 328.5 1549 348.1 1554.5 363.3 1558.1 379.4 1561.8 395 1563.8 403 1588.7 397.7 1604.3 394.6 1671.1 356.4 1689.1 346 1700.4 341.8 1817.9 347.5 1896.8 350.7 2018.5 356 2018.9 394.7 2017.9 411 2016.7 421.1 2014.6 441.5 2014 457.3 2012.2 485.6 2011.4 517.3 2011.5 551.5 2032.5 562.7 2031.9 571 2030.1 580.1 2026.7 585.6 2021.2 582.2 2016.9 582.6 2012.3 589.9 2010.7 629 2004.4 634.2 1992.2 638.3 1973.2 646.8 1957 656.4 1944.4 665.3 1935.9 673.3 1931.7 682.2 1928.9 694 1920.8 708.6 1914.3 718 1885.7 748.3 1869.9 758.5 1852.3 762.3 1825.8 762.7 1808.2 763.7 1796.5 766.2 1786.9 769.2 1779.2 774.7 1773.4 781.6 1768.5 792.2 1767.3 804.8 1764.7 819.7 1763.5 831.9 Z" data-holc_grade="A"/>
<path d="M 1919.4 876 1918.9 883.1 2008.7 885.7 2009.3 890.2 2012.4 893.3 2019 896.2 2028.8 899.9 2039.7 901.3 2038.2 1033.5 2042.2 1041.4 2048.2 1045.9 2056.9 1049.5 2061.9 1055 2061.4 1067.4 2060.1 1077.3 2056.2 1088.4 2052.2 1103.6 2050.4 1115.9 2045.9 1119.6 1992.9 1088.6 1973.4 1079.5 1961.5 1075 1950.5 1073.2 1944.4 1075 1931.5 1074.7 1915.9 1072.9 1900.7 1067.4 1891.7 1062.9 1888.5 1034.9 1885.9 1024.9 1878.8 1017.6 1866.9 1015.5 1860.1 1011.5 1858.2 999.5 1858.5 980.6 1858.2 952 1855.1 935.2 1863 929 1869.6 922.7 1875.1 916.9 1882.3 903.6 1889.6 888.3 1898.9 875.5 1919.4 876 Z" data-holc_grade="A"/>
<path d="M 1563.4 1132.3 1560 1220.1 1558.1 1247.7 1556.7 1264.4 1468.7 1262.2 1465.5 1266.8 1464.8 1273.3 1464.8 1281.1 1466.3 1290.8 1469.7 1303.6 1488.7 1340 1497 1359.8 1490.9 1365 1421.1 1360.3 1393.7 1358.6 1373 1356.9 1342.9 1355.4 1312.3 1353.8 1277.3 1353.3 1276 1363.7 1272.8 1425.7 1272 1476.6 1270.4 1508.6 1049.9 1501.2 927.4 1497.4 926.2 1484.5 927.4 1439.2 928.5 1406.4 932.2 1378.5 932.8 1368 932.4 1346 926.8 1280.3 868.1 1238.1 880.1 1209.3 884 1194.5 890.2 1166.5 884.9 1149.3 884 1136.2 892.8 1115.4 910.6 1087.3 924.3 1066.7 928.4 1043.2 948 1019.1 959 1000.6 969.1 995.9 987.3 994.7 1004 980.3 1018.7 978.3 1029.6 984.5 1059.3 991.4 1073.1 1001.3 1083.4 1019.1 1085.9 1034.5 1095.2 1048.4 1120.1 1070 1135.7 1076.1 1154.1 1077.5 1162.9 1084.1 1177.7 1113.2 1198.5 1122.3 1213.8 1133.9 1234.6 1153.1 1249.4 1163.1 1271 1164 1284.3 1171.6 1298.9 1175.1 1308.3 1178.6 1326.7 1185.6 1329.5 1176.1 1330.5 1156.4 1327.8 1101 1322.7 1031.3 1427.3 1029.4 1425 1066.9 1422.7 1120.5 1458.4 1147.6 1452.3 1159.2 1448.4 1176.6 1443.9 1226.6 1441.5 1256.5 1455.3 1246.3 1468.1 1240.9 1473.1 1223.7 1482.7 1202.5 1489.6 1188.3 1499.6 1176 1515.9 1169.1 1535.8 1163.8 1563.4 1132.3 Z" data-holc_grade="A"/>
</g>
<g id="B">
<path d="M 1540.1 328.5 1508.5 339.5 1490.7 343 1475.3 343.6 1462.3 342.6 1446.6 342 1429.7 340.3 1412.7 337.9 1404.4 338.1 1396.5 341.1 1307.7 377.3 1304.5 441.6 1333.8 476 1357.2 508.1 1318.9 519.6 1286.6 527.3 1271.8 529.6 1204.9 543.2 1153.2 450.4 1155.8 439.9 1158.5 418.1 1161.1 403.9 1167.7 385.8 1175.8 353.2 1213.6 356.3 1240.2 354.5 1279 354.5 1280.7 347.1 1284.3 282.7 1286.6 257.6 1290.2 247 1464.8 248 1477.1 249.8 1486.8 254.2 1500.8 262.1 1512.5 275.5 1519.9 287.6 1527.5 301.4 1532.3 311.2 1540.1 328.5 Z" data-holc_grade="B"/>
<path d="M 2010.2 849.6 2010.1 854.9 2008.7 885.7 1918.9 883.1 1919.4 876 1919.8 866.2 1924.6 864.6 1934 863.1 1943.7 862.4 1952.2 863.4 1959.3 863.3 1961.4 814.1 1961.5 778.3 1962.6 750.5 1965.5 712.8 2016.4 713.3 2011.2 795.9 2010.2 849.6 Z" data-holc_grade="B"/>
<path d="M 2052.3 1197.2 1981.3 1169.5 1973.4 1167.4 1963.4 1167.5 1934.2 1167.3 1881.9 1165.7 1883.2 1133.7 1882.8 1126.3 1879.9 1121.5 1874.9 1117.7 1870.1 1117.5 1862.9 1117.3 1858.7 1115.4 1856.1 1111.5 1854.6 1106.8 1855 1088 1856.3 1079.6 1857.3 1070.8 1856.2 1050.4 1854 1046.8 1837.4 1046.4 1839.8 981.1 1840 944.6 1847.9 939.1 1855.1 935.2 1858.2 952 1858.5 980.6 1858.2 999.5 1860.1 1011.5 1866.9 1015.5 1878.8 1017.6 1885.9 1024.9 1888.5 1034.9 1891.7 1062.9 1900.7 1067.4 1915.9 1072.9 1931.5 1074.7 1944.4 1075 1950.5 1073.2 1961.5 1075 1973.4 1079.5 1992.9 1088.6 2045.9 1119.6 2050.4 1115.9 2052.2 1103.6 2056.2 1088.4 2060.1 1077.3 2061.4 1067.4 2061.9 1055 2056.9 1049.5 2048.2 1045.9 2042.2 1041.4 2038.2 1033.5 2039.7 901.3 2059.8 903.2 2057 939.5 2072 940.8 2108.2 941.6 2087.8 1035.1 2083.1 1054.8 2072.4 1118.5 2066.6 1144.9 2060.5 1172.3 2052.3 1197.2 Z" data-holc_grade="B"/>
<path d="M 2371.2 927.4 2333.8 1001.6 2303.8 1073.4 2301.3 1074.6 2293.2 1072 2271.4 1062.2 2254.2 1078.5 2239.4 1090.7 2212.1 1113.8 2135.3 1167.5 2132.9 1162.8 2132.5 1142.5 2132.9 1124.2 2136.6 1064.8 2138.4 1044.7 2141.1 1005.8 2142.9 996.1 2142.9 973.7 2145.9 944 2146.7 914.1 2296 923.1 2337.7 926.2 2371.2 927.4 Z" data-holc_grade="B"/>
<path d="M 1764.8 1417.9 1764.6 1423.5 1733 1422.5 1733.8 1372.3 1733 1366.6 1727.9 1365.2 1722.9 1363.5 1719.2 1359.3 1718.4 1347.1 1715.6 1337.5 1713.6 1325.7 1704.7 1294.8 1702.2 1282.8 1700.6 1263.9 1699.4 1192.1 1698.2 1175.7 1696.2 1161.9 1691.1 1147 1709.9 1154.3 1721.1 1154.7 1733.6 1156.2 1754.1 1160 1770.2 1162.9 1810.9 1175.5 1821.7 1179.5 1834 1183.2 1840.1 1188.9 1842.5 1209.4 1841.5 1231.2 1838.2 1288.6 1837 1308.7 1833.2 1368.4 1808.5 1368.4 1766.4 1366.8 1764.8 1417.9 Z M 1631.6 1103.2 1640.7 1114.5 1649 1124.4 1660.8 1131.8 1672.5 1140.7 1674.7 1168.7 1677.2 1180.8 1679.2 1191.6 1682.6 1204.4 1683.4 1220.7 1684.4 1296.3 1687.5 1326 1688.7 1347 1693.1 1365.3 1694.1 1373.6 1694.1 1381.7 1664.8 1380.9 1663.6 1402.9 1661.6 1407.3 1657.3 1409.6 1650.4 1410.6 1645.2 1414.2 1642.1 1420.7 1639.5 1441.1 1639.9 1451.4 1660.3 1458.2 1659.9 1503.1 1661.6 1507.6 1663.8 1509.2 1678.2 1509.8 1674.9 1528 1655.7 1526.9 1596.6 1523.6 1597.4 1499.4 1600 1462.4 1602.5 1434 1603.5 1426 1602.3 1419.5 1599 1417.1 1549.2 1416.9 1547.8 1437.2 1545.8 1464.3 1542 1505.5 1539.9 1514.1 1533.7 1517.5 1529.6 1522.4 1525.4 1527.9 1525 1534.2 1524.8 1546.4 1477.8 1544.3 1485.7 1369.5 1490.9 1365 1497 1359.8 1488.7 1340 1469.7 1303.6 1466.3 1290.8 1464.8 1281.1 1464.8 1273.3 1465.5 1266.8 1468.7 1262.2 1556.7 1264.4 1558.1 1247.7 1560 1220.1 1563.4 1132.3 1573.9 1123.7 1582.6 1119.4 1590.7 1116.2 1602.9 1111.9 1614.2 1110.9 1621.3 1111.1 1627.6 1108.7 1631.6 1103.2 Z M 1598.8 1272.6 1594.2 1273.6 1591.5 1274.4 1587.9 1274.4 1586.1 1273.6 1581.4 1273 1577.4 1273.6 1573.3 1276.2 1570.7 1283.1 1520.9 1280.9 1520.5 1330.1 1543.8 1332.3 1562 1334.6 1591.1 1335.8 1603.9 1335 1604.7 1328.7 1608.1 1322.8 1619.9 1322.8 1620.9 1286 1603.7 1285 1603.9 1277.2 1601.2 1274.6 1598.8 1272.6 Z" data-holc_grade="B"/>
<path d="M 1409.1 1592.1 1399.4 1593.1 1387.7 1596 1340.7 1605.1 1189.6 1653.6 1187.4 1619.4 1185.9 1596.3 1184.8 1562.4 1183.8 1547.9 1176.2 1546.6 1140.8 1544.6 888.9 1540.7 887.1 1584 883 1623.3 881.3 1656.5 715.9 1650 669.5 1648.4 656.3 1650.8 629.1 1657.4 636.8 1677.4 637.2 1679 631.8 1679.1 601.8 1680.7 586.6 1681.7 577.6 1679.4 567.9 1674.3 559.6 1668.6 553.4 1657.7 550.6 1648.7 547.8 1639.2 545.1 1630.2 539.5 1617.7 552.7 1602.1 557.7 1595.2 560.2 1589.5 561.5 1582.4 562.5 1573.3 563 1541.1 563.5 1535 566.3 1526.4 570.4 1521.8 578.5 1519 585.1 1515.5 589.3 1511.4 594.6 1502.3 600.7 1494.2 612.1 1482.2 627.2 1469.1 659.9 1442.7 701.9 1406.2 721.3 1392.4 726.1 1391.9 731.9 1391.8 740.9 1389.9 752 1388 763.5 1380.6 780 1366.7 796 1347 816.1 1321.4 835.7 1296 850.2 1276.3 858.7 1258.6 868.1 1238.1 926.8 1280.3 932.4 1346 932.8 1368 932.2 1378.5 928.5 1406.4 927.4 1439.2 926.2 1484.5 927.4 1497.4 1049.9 1501.2 1270.4 1508.6 1268.9 1531.6 1409.1 1541.8 1409.1 1592.1 Z" data-holc_grade="B"/>
</g>
<g id="C">
<path d="M 2864 773.4 2825.8 771.1 2706 764.4 2623.2 762.9 2601.9 796.6 2565 844.4 2478 837.5 2315 830.1 2316.5 820.5 2318.3 791.5 2318.5 768.1 2312 764.4 2286.7 761.1 2264.7 763.4 2248.3 758.5 2231.9 749.9 2223 739.6 2215.5 726.2 2212.2 715.2 2208 704.6 2207 695.2 2209.6 649.5 2212.9 617.8 2214.7 599.7 2217.5 573.4 2222 529.9 2214.1 527.3 2200.5 522.6 2182.7 522 2166.1 521.6 2154.2 521 2137.8 515 2124 507.1 2110.9 493.5 2095.3 479.2 2079.3 467.6 2069.6 465 2061.9 465.2 2053.4 462.6 2054.2 446.5 2054.8 422.1 2055 404.4 2056.8 378.2 2058.1 359 2068 364.3 2077.1 370.6 2112.5 395.7 2118.2 373.9 2124.9 346.2 2125.9 333 2127.9 322.9 2130.8 313.1 2134 303.1 2143.5 286.7 2203.3 214.3 2211.8 202.9 2222.3 187.4 2225.1 179.3 2225.9 168.9 2226.4 156.3 2284.5 142.7 2339.8 144.1 2328.2 82.1 2404.4 87 2411.8 88.8 2418.1 93.5 2425.4 95.4 2430.7 94.7 2434.9 90.3 2467.1 91.9 2469.9 129.9 2472.4 197.9 2476 258.7 2477.6 277 2481 352.5 2484.8 379.9 2490.5 407.8 2505.5 453.5 2521.4 489.1 2533.6 509.3 2558.1 537.8 2582.1 558.7 2594.1 562.8 2643.9 486.7 2718.8 486.4 2722.3 458.1 2724.1 436.4 2725.8 391.6 2726.4 364.2 2727.2 338.9 2714.3 326.1 2679.4 300.9 2670.9 294.8 2662.4 287.6 2653.9 277.3 2646.9 270.8 2636.9 265.9 2623.8 261.6 2613.2 259.4 2596 257.7 2587.5 255.5 2588.8 245.5 2596 233.9 2600.5 220.9 2603.1 208.9 2605.2 193.1 2609 165.2 2609.9 145.3 2607.6 131.8 2596.9 125.3 2574.6 112.1 2553.4 100.1 2539.4 90.5 2511.7 73.2 2498.5 62.2 2493.5 55.1 2492.5 41.9 2492.5 25.4 2494.5 12.8 2497.3 1 2662.6 12.5 2661.1 50.5 2659.3 103.4 2659.5 132.3 2673.6 134.3 2752 141 2751 159.4 2749.3 194.5 2747.7 232 2745.2 275.7 2746.3 284 2747.5 291.6 2748.3 297.5 2752.1 303.8 2755.6 307.4 2762.8 312.1 2771.5 316.6 2784.7 322.9 2793 326.2 2802.9 334.9 2810.2 347.9 2823.1 422.8 2820.3 428.5 2792.1 446.3 2770.1 463.8 2740.1 489.4 2769.4 490.9 2795.1 500.9 2880.2 526.3 2887.5 526.3 2895.5 527.7 2985.6 564 2985 660.8 2925.2 661.2 2921.6 664.2 2920.2 687.4 2920.7 740.1 2920.5 791.5 2918.5 838.7 2919.9 883 2999 884.7 2997.4 926.6 2997.1 963.4 2888 961.1 2858.7 974.1 2858.9 968.6 2860.5 925.5 2861.5 894.8 2863.3 866.8 2864.3 825.4 2864.8 798.1 2864 773.4 Z" data-holc_grade="C"/>
<path d="M 1372.7 735.6 1381.2 741.8 1405.9 756.3 1449.3 781.2 1472.4 789.8 1478.4 793.1 1489 794 1523.1 805.8 1567.9 814.4 1603.9 819.6 1609 820.2 1641.4 823.7 1671.3 826 1699.5 827.7 1727.3 829.3 1761.5 831.5 1763.5 831.9 1776.1 834 1818.5 837 1860.5 839.7 1894.9 841.4 1905.1 818.9 1915.5 791.9 1922.8 776.3 1932.9 760.2 1939.2 749.7 1950.5 734.1 1965.5 712.8 1962.6 750.5 1961.5 778.3 1961.4 814.1 1959.3 863.3 1952.2 863.4 1943.7 862.4 1934 863.1 1924.6 864.6 1919.8 866.2 1919.4 876 1898.9 875.5 1871 874.8 1806.1 872.7 1764.7 869.8 1706.9 866.4 1651 863.4 1576.7 859.6 1587.1 877.5 1601.6 901.1 1615 923.1 1624.3 940.4 1628.5 951.3 1629.9 958.1 1629.9 967.2 1627.6 975.6 1623.7 982.9 1603.8 1006.3 1599.4 1016.8 1596.9 1025.7 1599.4 1036.9 1609 1056 1643 1089.9 1669.1 1113.9 1685.8 1123.8 1713.2 1123 1751 1124.9 1769.9 1129.7 1785 1137.3 1832.8 1154.9 1832.9 1134 1835 1119.6 1837.1 1089.1 1837.4 1046.4 1854 1046.8 1856.2 1050.4 1857.3 1070.8 1856.3 1079.6 1855 1088 1854.6 1106.8 1856.1 1111.5 1858.7 1115.4 1862.9 1117.3 1870.1 1117.5 1874.9 1117.7 1879.9 1121.5 1882.8 1126.3 1883.2 1133.7 1881.9 1165.7 1934.2 1167.3 1963.4 1167.5 1973.4 1167.4 1981.3 1169.5 2052.3 1197.2 2033.7 1249.8 1991.8 1231.7 1985.4 1228.4 1975.4 1228.4 1964.2 1232.3 1935.8 1240.1 1902.9 1246 1899.7 1262.9 1897.6 1295.3 1838.2 1288.6 1841.5 1231.2 1842.5 1209.4 1840.1 1188.9 1834 1183.2 1821.7 1179.5 1810.9 1175.5 1770.2 1162.9 1754.1 1160 1733.6 1156.2 1721.1 1154.7 1709.9 1154.3 1691.1 1147 1674.2 1141.9 1672.5 1140.7 1660.8 1131.8 1649 1124.4 1640.7 1114.5 1631.6 1103.2 1628.4 1099.1 1607.3 1072.7 1574.7 1041.4 1564.1 1029.6 1552.3 1021.9 1519.5 998.4 1483.9 974.3 1449.3 952.2 1416.6 922.7 1388.4 895.8 1375.5 882 1343.8 844.5 1310.9 800.9 1302.8 786.2 1286.2 758.2 1248.9 689 1243.8 680 1243.1 671.9 1248 659.8 1256.1 647 1277.9 619.8 1294.5 669.3 1307.2 697.9 1325.9 704.1 1342.3 713.9 1360 726.2 1372.7 735.6 Z" data-holc_grade="C"/>
<path d="M 2146.7 914.1 2145.9 944 2142.9 973.7 2142.9 996.1 2141.1 1005.8 2138.4 1044.7 2136.6 1064.8 2132.9 1124.2 2132.5 1142.5 2132.9 1162.8 2135.3 1167.5 2212.1 1113.8 2239.4 1090.7 2254.2 1078.5 2271.4 1062.2 2293.2 1072 2301.3 1074.6 2303.8 1073.4 2333.8 1001.6 2371.2 927.4 2483 931.9 2494.7 935 2509.1 944.1 2517.4 953.1 2524 962.4 2528.5 971.4 2533.3 982.2 2536.8 992.1 2538.6 1002.3 2539.6 1008.2 2538.6 1008.5 2526 1012.1 2513.5 1017.8 2505.8 1020.4 2492.6 1026.5 2482.5 1032.2 2471 1040.9 2461.3 1047.4 2454.7 1053.4 2448.6 1059.9 2441.9 1066.4 2436.1 1071.8 2431.1 1077.3 2425.1 1085.2 2418.3 1093.6 2412.5 1102 2406.2 1111.3 2404.2 1115 2374.2 1108 2350.6 1100 2333.2 1094 2324.9 1104.1 2318.7 1111.6 2313.8 1118.4 2308.4 1123.7 2298.5 1132.3 2286.8 1142.9 2271.9 1155.9 2278.5 1166 2287.9 1180.2 2280.5 1186.6 2266 1196.9 2248 1208.3 2235.6 1215.9 2232.5 1219.2 2172.7 1216.2 2148.6 1186.7 2106.6 1217.4 2072.8 1241.9 2038.7 1265.4 2027.5 1277.1 2033.7 1249.8 2052.3 1197.2 2060.5 1172.3 2066.6 1144.9 2072.4 1118.5 2083.1 1054.8 2087.8 1035.1 2108.2 941.6 2072 940.8 2057 939.5 2059.8 903.2 2039.7 901.3 2028.8 899.9 2019 896.2 2012.4 893.3 2009.3 890.2 2008.7 885.7 2010.1 854.9 2010.2 849.6 2121.7 856.2 2115.6 911.9 2146.7 914.1 Z" data-holc_grade="C"/>
<path d="M 2416.1 1314.3 2416.7 1297.6 2285.7 1291.2 2283.3 1314.2 2279.6 1355.8 2273.2 1381 2236.5 1380.6 2240.9 1289 2244.5 1252.4 2246.1 1238.5 2248 1228.9 2248.2 1228.7 2286.4 1230.4 2374.6 1233 2468.6 1235.3 2475.9 1237.9 2535.8 1240.8 2549.3 1241.8 2545 1319.9 2416.1 1314.3 Z" data-holc_grade="C"/>
<path d="M 2541.6 1796.5 2540.9 1819.4 2453.1 1845 2454.9 1806.3 2456 1782 2458.7 1754.6 2460.1 1732.3 2462.1 1702.8 2466.4 1629.8 2442.6 1627.6 2421.9 1626.2 2409.9 1624.7 2288.4 1622.3 2289.3 1609.5 2291.7 1604.4 2294.2 1600.3 2312.5 1600 2314.4 1563.9 2316.1 1551.5 2316.9 1539 2317.2 1510.6 2317.6 1499.4 2319.2 1494.2 2324.3 1491.7 2501.4 1499.3 2549 1502 2565.2 1503.7 2563.9 1528.6 2560.3 1561.1 2557.4 1582.7 2556.1 1602.2 2554.4 1638.1 2552.7 1661.2 2549.3 1689.4 2547 1712 2545.6 1731.5 2544.6 1741.7 2543.9 1749.1 2542 1774.9 2541.6 1796.5 Z" data-holc_grade="C"/>
<path d="M 2063 1595.3 2218.6 1598.6 2250.3 1599.6 2249 1620.9 2249.1 1642.4 2248.9 1668.1 2246.5 1681.5 2244.9 1698.8 2244.9 1723 2245.2 1738.7 2244.9 1757.3 2243.1 1770.2 2241.2 1825.4 2239.5 1848.6 2238 1859.7 2236.2 1872.8 2235.7 1908.2 2252.9 1909.7 2284.6 1912 2310.1 1913.7 2315.6 1920.4 2320.2 1935 2320.8 1943.9 2321.5 1953.9 2325.5 1964.7 2329.1 1974.3 2335.6 1985 2342.6 1992.8 2350.2 1997.7 2359.1 2000.3 2367.7 2004 2364.7 2007.9 2341.2 2041.6 2329.2 2058.3 2309.8 2086.3 2284.9 2117.8 2263.7 2144.4 2214.7 2106.2 2204.4 2093 2194.7 2080.8 2181.1 2063.9 2156.2 2030.1 2147 2035.4 2137.9 2039.5 2122.3 2039.5 2108.5 2037.9 2096.6 2036.5 2083.7 2036.1 2062.8 2035.6 2018.3 2040.7 2011.2 2036.2 2004.6 2028.4 2001.2 2022 1997.2 2018.5 1977 2008.2 1952.7 1993.6 1927.9 1980 1930.6 1868.8 1931.1 1852.9 1932.3 1840.9 1933.6 1800.7 1951.4 1800.5 1953.4 1781 1954.2 1764.9 1955.8 1749.7 1957 1738.7 1959.8 1725.4 1967.8 1689.8 1971.6 1665 1972.6 1653.6 1973.1 1637.5 1975.2 1627.6 1979.7 1621.6 1986.8 1616.3 1993.9 1614.2 1999.8 1612.4 2006.5 1608.8 2011 1605.2 2015.4 1600.4 2021.5 1596.3 2028.5 1595.3 2063 1595.3 Z" data-holc_grade="C"/>
<path d="M 1916.4 1540.6 1887.3 1540.4 1881.4 1537.9 1851.7 1536.3 1842.6 1537.3 1799.3 1534.3 1765.5 1532.8 1738.4 1531.2 1706.1 1528.8 1674.9 1528 1678.2 1509.8 1693.9 1510 1709.5 1507.8 1732.3 1505.9 1751.5 1506.5 1759.4 1503.2 1760.5 1481.2 1763.1 1453 1763.8 1440.4 1764.6 1423.5 1764.8 1417.9 1875.8 1421.3 1920.9 1423.6 1918.6 1462.6 1918 1478.9 1918.1 1503.5 1916.4 1540.6 Z" data-holc_grade="C"/>
<path d="M 637.2 1679 636.8 1677.4 629.1 1657.4 656.3 1650.8 669.5 1648.4 715.9 1650 881.3 1656.5 883 1623.3 887.1 1584 888.9 1540.7 1140.8 1544.6 1176.2 1546.6 1183.8 1547.9 1184.8 1562.4 1185.9 1596.3 1187.4 1619.4 1189.6 1653.6 1340.7 1605.1 1387.7 1596 1399.4 1593.1 1409.1 1592.1 1408.9 1620.7 1407.9 1635 1407.4 1653.9 1406.8 1685.2 1428 1684.4 1465.4 1678.3 1492.4 1674.4 1491.9 1655.7 1489.1 1628.5 1486.7 1608.9 1534.6 1600.7 1538.1 1547.8 1524.8 1546.4 1525 1534.2 1525.4 1527.9 1529.6 1522.4 1533.7 1517.5 1539.9 1514.1 1542 1505.5 1545.8 1464.3 1547.8 1437.2 1549.2 1416.9 1599 1417.1 1602.3 1419.5 1603.5 1426 1602.5 1434 1600 1462.4 1597.4 1499.4 1596.6 1523.6 1655.7 1526.9 1674.9 1528 1672.3 1559.1 1670.8 1612 1668.6 1640 1657.3 1650.8 1654.6 1685 1587.6 1695.5 1587.4 1740.2 1585.4 1843.2 1586.3 1869.5 1583.3 1944.3 1575.6 1997.1 1569.6 2017 1560.9 2038 1551.7 2051.9 1543.8 2064.5 1538.8 2071.1 1536.2 2077.2 1533.9 2086.2 1533.9 2090.2 1498.6 2088.3 1485.8 2086.1 1458.3 2085.5 1427.1 2084.3 1407.2 2083.3 1383.6 2082.7 1346.4 2081 1293.3 2079.6 1248.7 2085.5 1226.1 2087.1 1202 2088.4 1129.7 2087.6 1072.7 2090.7 1042.7 2094.6 1015 2096.6 989 2099.4 970.2 2100.3 936.1 2098.9 905.8 2092.5 878.1 2087.4 861.8 2084.6 845.8 2082.9 819.9 2081.1 803.3 2077.8 779.9 2073.9 756.8 2070.6 762.3 2017.3 766.4 1945.9 767.4 1925.4 770.6 1900.5 773.7 1860.5 776.5 1822.1 742.1 1818 704.8 1813.9 680.8 1810.4 660.9 1808.6 653.1 1797.5 640.8 1693.3 637.2 1679 Z M 1031.9 1938.7 1044.5 1936 1044.9 1936 1049.2 1933.6 1045.9 1903.7 1043.4 1877 1041.3 1854.8 1038.5 1829.7 1035.2 1816.8 1034.5 1806.5 1032.7 1799.4 1029.2 1796.9 1025.8 1795.1 964 1799.2 955.6 1805 951.8 1810.9 947.5 1820.7 944.4 1830.7 940.6 1843.8 936.1 1855 932 1866 926.6 1876.1 921.8 1884.5 915.2 1894.4 910.9 1898.3 904.5 1905.7 893 1915.5 882.7 1926 881.4 1928.8 893.3 1932.1 907 1934.5 969.7 1949.3 1031.9 1938.7 Z" data-holc_grade="C"/>
<path d="M 340.1 1510.3 340.9 1520.5 339.6 1533.1 339.1 1547.8 334.7 1604 332.1 1639.9 331.2 1667.3 323.7 1669.1 314.3 1673.2 306.4 1678.5 299.4 1686.4 296.5 1690.8 292.2 1698.5 289.2 1706.9 280.5 1751.1 266.8 1805.8 159.2 1804.1 154.9 1824.6 153.4 1840.8 151.9 1856.9 148.6 1873.1 143.5 1899.4 141.7 1917.1 139.8 1935.1 137.5 1953.6 41.9 2037.9 12.9 2065.1 6 2069.7 3.7 2045.3 1.7 2008.2 1 1893.8 2.7 1855.4 5.7 1825.5 7.6 1800.1 10.6 1777 19.2 1738.4 25.8 1708.6 43.1 1645.3 80.6 1563.1 97.4 1543.1 122.6 1518.9 213.6 1515.8 290.3 1512.7 340.1 1510.3 Z" data-holc_grade="C"/>
</g>
<g id="D">
<path d="M 2541.6 1796.5 2542 1774.9 2543.9 1749.1 2544.6 1741.7 2545.6 1731.5 2547 1712 2549.3 1689.4 2552.7 1661.2 2554.4 1638.1 2556.1 1602.2 2557.4 1582.7 2560.3 1561.1 2563.9 1528.6 2565.2 1503.7 2549 1502 2501.4 1499.3 2324.3 1491.7 2319.2 1494.2 2317.6 1499.4 2317.2 1510.6 2270.7 1509.2 2225.9 1509 2221.1 1514.5 2219.9 1519.6 2220.9 1527.3 2221.9 1534.8 2221.9 1559.3 2220.7 1577.6 2218.6 1598.6 2063 1595.3 2099.2 1566.3 2125.5 1543.6 2142.1 1525.9 2143.6 1496.6 2146.5 1416.5 2137.6 1407 2142.7 1283.1 2129.3 1281.6 2076 1278.9 2027.5 1277.1 2038.7 1265.4 2072.8 1241.9 2106.6 1217.4 2148.6 1186.7 2172.7 1216.2 2232.5 1219.2 2235.6 1215.9 2248 1208.3 2266 1196.9 2280.5 1186.6 2287.9 1180.2 2301.2 1193.7 2322.5 1178.1 2353.3 1159.3 2370.9 1146.2 2374.2 1108 2404.2 1115 2406.2 1111.3 2412.5 1102 2418.3 1093.6 2425.1 1085.2 2431.1 1077.3 2436.1 1071.8 2441.9 1066.4 2448.6 1059.9 2454.7 1053.4 2461.3 1047.4 2471 1040.9 2482.5 1032.2 2492.6 1026.5 2505.8 1020.4 2513.5 1017.8 2526 1012.1 2538.6 1008.5 2553.1 1004.4 2571.5 1005.8 2614.5 1007.7 2643.3 1010.1 2675.6 1012.2 2694.7 1013.4 2761.9 1016.9 2836.5 1017.3 2867.5 1018.7 2883.4 1020 2881 1044.5 2876.2 1107.1 2869.4 1192.4 2864.7 1241.7 2863.9 1297.2 2864.7 1308.4 2789.2 1339.1 2785.5 1349.7 2781.9 1373.5 2780.1 1394.4 2778 1415.3 2776.6 1423.4 2773.8 1429.5 2765 1434.6 2764.2 1449.1 2763.8 1480.3 2761.8 1533 2760.3 1564.8 2758.4 1588.9 2756.8 1616.2 2756.5 1629.1 2757.3 1638.5 2760.1 1649.6 2761.6 1655.2 2767.4 1659.7 2780.5 1663.3 2797.7 1667.3 2814.7 1672.5 2830.5 1678.1 2845.8 1683.8 2858.8 1690.9 2859.4 1724.2 2857.8 1740.1 2854.1 1746 2847.1 1747.5 2829.2 1746.2 2788.7 1743.9 2761.1 1741.9 2698.5 1739.6 2673 1737.9 2621.9 1734.8 2611.5 1734.7 2600.1 1737.2 2590.5 1742.4 2570.2 1760 2556.6 1775.7 2541.6 1796.5 Z M 2279.6 1355.8 2303.6 1358.2 2359.2 1362.4 2412.7 1364.7 2416.1 1314.3 2545 1319.9 2549.3 1241.8 2535.8 1240.8 2475.9 1237.9 2468.6 1235.3 2374.6 1233 2286.4 1230.4 2248.2 1228.7 2248 1228.9 2246.1 1238.5 2244.5 1252.4 2240.9 1289 2236.5 1380.6 2273.2 1381 2279.6 1355.8 Z" data-holc_grade="D"/>
<path d="M 2294.2 1600.3 2291.7 1604.4 2289.3 1609.5 2288.4 1622.3 2409.9 1624.7 2421.9 1626.2 2442.6 1627.6 2466.4 1629.8 2462.1 1702.8 2460.1 1732.3 2458.7 1754.6 2456 1782 2454.9 1806.3 2453.1 1845 2451 1858.1 2451.4 1877 2449.6 1884.3 2445.4 1891.4 2426.5 1915.8 2408 1938.2 2391.7 1957.8 2377.5 1973.4 2359.1 2000.3 2350.2 1997.7 2342.6 1992.8 2335.6 1985 2329.1 1974.3 2325.5 1964.7 2321.5 1953.9 2320.8 1943.9 2320.2 1935 2315.6 1920.4 2310.1 1913.7 2284.6 1912 2252.9 1909.7 2235.7 1908.2 2236.2 1872.8 2238 1859.7 2239.5 1848.6 2241.2 1825.4 2243.1 1770.2 2244.9 1757.3 2245.2 1738.7 2244.9 1723 2244.9 1698.8 2246.5 1681.5 2248.9 1668.1 2249.1 1642.4 2249 1620.9 2250.3 1599.6 2294.2 1600.3 Z" data-holc_grade="D"/>
<path d="M 1933.6 1800.7 1932.3 1840.9 1931.1 1852.9 1930.6 1868.8 1927.9 1980 1926.9 1990.2 1926.9 2004.1 1926.3 2014 1925.5 2022.6 1923.1 2032.7 1919.2 2043.3 1909.1 2056.5 1897 2066.9 1879.6 2080.1 1867.4 2088.2 1851.2 2093.7 1835.1 2098.8 1804.9 2105.1 1777.6 2105.9 1767.7 2103.4 1724.8 2100.8 1639.6 2096.3 1533.9 2090.2 1533.9 2086.2 1536.2 2077.2 1538.8 2071.1 1543.8 2064.5 1551.7 2051.9 1560.9 2038 1569.6 2017 1575.6 1997.1 1583.3 1944.3 1586.3 1869.5 1585.4 1843.2 1587.4 1740.2 1587.6 1695.5 1654.6 1685 1657.3 1650.8 1668.6 1640 1670.8 1612 1672.3 1559.1 1674.9 1528 1706.1 1528.8 1738.4 1531.2 1765.5 1532.8 1799.3 1534.3 1842.6 1537.3 1851.7 1536.3 1881.4 1537.9 1887.3 1540.4 1916.4 1540.6 1916 1564.8 1913.2 1581.9 1908.7 1608.5 1906.1 1626 1902.3 1643.5 1901.7 1658.9 1903.1 1669.1 1904.9 1680.9 1907.3 1723.3 1908.5 1735.5 1908.1 1745.1 1906.9 1797.7 1911.9 1799.8 1933.6 1800.7 Z" data-holc_grade="D"/>
</g>
</svg>