<?xml version="1.0"?>
<svg xmlns="http://www.w3.org/2000/svg" version="1.2" baseProfile="tiny" width="3000" height="3976" viewBox="0 0 3000 3976" stroke-linecap="round" stroke-linejoin="round">
<g id="A">
<path d="M 1010 138.9 1048.4 289.2 1012.7 293.4 1021.8 543.9 976.4 545.3 815.4 402.6 787.5 388.7 671.5 283.6 640.4 175.7 641.6 77.5 974.8 1 1010 138.9 Z" data-holc_grade="A"/>
<path d="M 543.5 1020 649.8 1027 662.3 1029.1 731.5 1068.8 947.1 1260.1 967.7 1278.3 839.8 1418.9 816.7 1420.3 822.3 1697.3 588.8 1701.5 586.8 1514.2 586.1 1514.2 547.6 1514.9 546.9 1407 408.6 1411.9 407.9 1352.7 572.1 1348.6 602.2 1182.9 393.3 984.5 433.1 929.5 543.5 1020 Z" data-holc_grade="A"/>
</g>
<g id="B">
<path d="M 1178.3 113.9 1178.3 289.2 1469.7 293.4 1473.9 582.9 1493.4 604.5 1470.4 743 1344.6 884.3 1180.4 735.3 1073.4 738.4 1039.4 739.4 833.9 739.4 824.6 730.7 792.3 697 756 695.6 679.8 612.1 643.9 282.2 640.4 175.7 671.5 283.6 787.5 388.7 815.4 402.6 976.4 545.3 1021.8 543.9 1012.7 293.4 1048.4 289.2 1010 138.9 1150.4 111.8 1178.3 113.9 Z" data-holc_grade="B"/>
<path d="M 1021.6 759.1 930.7 864.1 845.7 792.1 774.1 805.5 691.6 907.5 655 875 543.5 1020 433.1 929.5 239.8 941.1 235.7 770.5 87.8 794.3 4.5 793.1 2.8 733.9 76.8 735.1 245.6 728.8 547.4 706.8 621.3 768.3 783.2 767.2 824.6 730.7 833.9 739.4 1039.4 739.4 1021.6 759.1 Z" data-holc_grade="B"/>
<path d="M 839.8 1418.9 967.7 1278.3 947.1 1260.1 1174.1 1002.1 1216.6 1041 1025 1256.8 1029.6 1308.4 907.9 1449.9 839.8 1418.9 Z" data-holc_grade="B"/>
<path d="M 2158.4 3709.5 2158.8 3709.5 2145.8 3975.1 2037.2 3970.9 1784.4 3950 1807.2 3575.8 1717.7 3495 1555.9 3488.5 1515.4 3259.2 1538.2 3220.2 1564.3 3122.7 1662.9 3093.5 1668 2993.2 1930.4 3021.5 1928.5 3094.4 2007.3 3098.5 2003.6 3159.8 2078.2 3166.3 2074 3248.9 2186.3 3259.6 2169.6 3542.8 1931.4 3521.9 1919.7 3695.6 2158.4 3709.5 Z" data-holc_grade="B"/>
</g>
<g id="C">
<path d="M 824.6 730.7 783.2 767.2 621.3 768.3 547.4 706.8 245.6 728.8 76.8 735.1 2.8 733.9 1 580.6 238.6 587.6 237.3 282.8 553.1 290.5 571.2 243.2 601.3 186.9 640.4 175.7 643.9 282.2 679.8 612.1 756 695.6 792.3 697 824.6 730.7 Z" data-holc_grade="C"/>
<path d="M 2236.7 2639.3 2158.8 2634.7 2085.1 2481.7 2010 2310.4 2090.2 2316 2111.6 1999.9 2225.7 2008.2 2233.2 2145.6 2208.6 2467.3 2236.7 2639.3 Z" data-holc_grade="C"/>
<path d="M 2158.8 2634.7 2236.7 2639.3 2251.3 2720.5 2263 2785.5 2277.6 2889.9 2281.1 2914.9 2326.9 3070.4 2425.4 3270 2546.6 3568.8 2213.3 3545.7 2169.6 3542.8 2186.3 3259.6 2074 3248.9 2078.2 3166.3 2003.6 3159.8 2007.3 3098.5 1928.5 3094.4 1930.4 3021.5 1668 2993.2 1668.7 2972.4 1533.6 2961.9 1504.7 2840.1 1449.4 2670.7 1665 2686.9 1742.4 2620.2 1781.5 2563.9 1805.9 2500.6 1804.2 2429.3 1891.5 2435.7 1857.2 2566.8 1854.3 2616.7 2158.8 2634.7 Z M 2132 2881 1845.9 2859 1840.1 2917 2109.8 2940.2 2101.7 3161.8 2213 3173.4 2132 2881 Z" data-holc_grade="C"/>
<path d="M 2169.6 3542.8 2213.3 3545.7 2211 3626.4 2164.8 3618.6 2158.4 3709.5 1919.7 3695.6 1931.4 3521.9 2169.6 3542.8 Z" data-holc_grade="C"/>
<path d="M 1073.4 738.4 1180.4 735.3 1344.6 884.3 1470.4 743 1493.4 604.5 1473.9 582.9 1469.7 293.4 1178.3 289.2 1178.3 113.9 1179 58.2 1246.7 84.7 1311.7 97.9 1343.2 100.7 1361.3 102.1 1373.9 102.1 1473.8 96.5 1472.4 175.8 1578.2 192.5 1583.1 233.6 1631.3 286.5 1717.9 297.6 1759.2 260 1738.2 245.4 1731.2 235.7 1718.6 215.5 1714.4 200.2 1713.7 188.3 1715.1 179.3 1710.2 152.9 1682.3 107.6 2020.5 112.5 1832.5 342.1 1735.9 489 1515.8 489 1521.4 624.7 1495.5 778.5 1409.6 873.8 1481.6 940 1415.2 1040.9 1073.4 738.4 Z" data-holc_grade="C"/>
<path d="M 1029.6 1308.4 1025 1256.8 1216.6 1041 1174.1 1002.1 947.1 1260.1 731.5 1068.8 662.3 1029.1 649.8 1027 543.5 1020 655 875 691.6 907.5 774.1 805.5 845.7 792.1 930.7 864.1 1021.6 759.1 1380.2 1077 1165.9 1325.2 1083.8 1533.4 1094.3 1362.9 1029.6 1308.4 Z" data-holc_grade="C"/>
<path d="M 1834.4 619.1 1888.2 530.7 1947.6 503.6 1960.8 481.3 1982.5 494.5 1913.3 660.2 1834.4 619.1 Z" data-holc_grade="C"/>
<path d="M 1703.2 807 1813.9 850.5 1826.1 817.5 1916.4 853.4 1791.8 1181.7 1753.9 1166.1 1781.9 1084.8 1716.6 1058.8 1684.6 1139.4 1525 1076.7 1703.2 807 Z" data-holc_grade="C"/>
<path d="M 2810.4 861.5 2774.2 662.6 2773 661.4 2764.9 643.4 2763.7 573.2 2850.4 489.7 2895.3 476.9 2920.9 492.6 2931.4 564.5 2959.4 613.8 2973.3 631.2 2996 649.7 2999 773.8 2903.5 855.6 2810.4 861.5 Z" data-holc_grade="C"/>
<path d="M 2495.7 1699.9 2343.3 1684.6 2311.9 1655.5 2306.8 1641.4 2299.2 1599.6 2284.6 1562.5 2277.9 1540.3 2256.9 1511.8 2245.8 1502.7 2213.6 1479.1 1959.2 1380.3 1914.1 1362.6 1900.1 1353.9 1882.6 1340.6 1871 1327.2 1862.8 1316.8 1857.6 1301.7 1853.5 1283.7 1852.3 1268.1 2023.8 815.7 2190.4 881.8 2230.6 869 2379.6 710 2446.6 693.2 2474 770.9 2508.3 756.4 2548.5 853.8 2317.4 956.6 2330.8 993.7 2323.8 1130 2356.4 1142.1 2642.6 1067.8 2880.8 906 2897.1 1001.6 2705.8 1053.9 2662.1 1080 2648.2 1265.6 2547 1620.1 2495.7 1699.9 Z" data-holc_grade="C"/>
<path d="M 2158.8 1779 1819.2 1747.7 1656.8 1729.5 1468.8 1704.5 1480 1570.1 1483 1547.5 1745.9 1564.3 1798.3 1653.6 1936.3 1664.6 1967.8 1579.9 2042.9 1485.4 2240.4 1560.2 2284.6 1562.5 2299.2 1599.6 2306.8 1641.4 2245.7 1617 2239.3 1706.9 2167.1 1701.7 2158.8 1779 Z" data-holc_grade="C"/>
<path d="M 2683 2353.9 2367.9 2331.7 2321 1796 2346.1 1716.6 2343.3 1684.6 2495.7 1699.9 2454.5 1807.8 2645.3 2018.7 2602 2057.7 2591.6 2183.7 2700.6 2192 2707.6 2108.5 2809 2247 2885.9 2357 2893.6 2370.2 2683 2353.9 Z" data-holc_grade="C"/>
</g>
<g id="D">
<path d="M 1389.8 1563.2 1235.4 1987.1 1218.6 2025.9 1213.7 2022.4 1171.8 1737 1199 1567.1 1294.1 1593.6 1307.4 1556 1299 1553.9 1258.5 1551.1 1263.3 1523.3 1294.8 1440.4 1345.8 1305.4 1401.7 1240.7 1498.2 1288.7 1389.8 1563.2 Z" data-holc_grade="D"/>
<path d="M 2284.6 1562.5 2240.4 1560.2 2042.9 1485.4 1967.8 1579.9 1936.3 1664.6 1798.3 1653.6 1745.9 1564.3 1483 1547.5 1480 1570.1 1389.8 1563.2 1498.2 1288.7 1927.8 1457.5 1959.2 1380.3 2213.6 1479.1 2245.8 1502.7 2256.9 1511.8 2277.9 1540.3 2284.6 1562.5 Z" data-holc_grade="D"/>
<path d="M 1819.2 1747.7 1864 1918.3 1876.3 1971.1 1824.6 1994.1 1913.4 2129.1 1941.3 2243.3 1891.5 2435.7 1804.2 2429.3 1721.9 2424.3 1728.1 2134.7 1739.3 2052.6 1437.4 2031.7 1438.8 2003.1 1235.4 1987.1 1389.8 1563.2 1480 1570.1 1468.8 1704.5 1656.8 1729.5 1819.2 1747.7 Z" data-holc_grade="D"/>
<path d="M 2225.7 2008.2 2111.6 1999.9 2090.2 2316 2010 2310.4 2032.4 1928.7 1864 1918.3 1819.2 1747.7 2158.8 1779 2296.5 1795 2246.2 1900.1 2224.6 1995.5 2225.7 2008.2 Z" data-holc_grade="D"/>
<path d="M 2367.9 2331.7 2683 2353.9 2660.7 2669.6 2399.7 2650.1 2367.9 2331.7 Z" data-holc_grade="D"/>
</g>
</svg>