<?xml version="1.0"?>
<svg xmlns="http://www.w3.org/2000/svg" version="1.2" baseProfile="tiny" width="3000" height="1799" viewBox="0 0 3000 1799" stroke-linecap="round" stroke-linejoin="round">
<g id="A">
<path d="M 271.6 1085.5 270.7 1092.3 268.6 1101.9 268.6 1127.6 205.3 1152.8 179 1163.2 176 1165.1 168.6 1171.2 123 1217.3 108.3 1229.6 98.3 1213.7 96.3 1210.3 93.3 1207.4 83.8 1207.1 78.9 1207.7 73.2 1207 67.3 1204.4 63.4 1204 57.7 1200.5 52.4 1193.7 51.5 1181.9 50.3 1173.6 48 1165.7 44 1159.9 38.5 1157 32.3 1150.2 27.7 1147.2 21.9 1145.1 11.3 1144.6 8 1142.6 4.5 1136.5 2 1128.6 1 1116.6 1 1107.5 3.3 1101.1 7.1 1094.4 15.2 1086.7 19.3 1077.9 22.3 1071.7 24 1065.2 25.2 1058.7 24.5 1051.9 19.8 1043.2 18.4 1038 18.3 1029.8 21.2 1016.5 29.6 991 30.8 986.4 34.3 983 38.9 980.3 44.6 979 53.5 973.9 57.5 968 58.7 955.1 60.5 942.8 65.3 926 67.5 916.7 68.4 908.1 71.8 896.9 87.5 833.8 90.9 829.2 98.5 819.1 101.9 812.7 102.8 803.3 102.7 785.9 103 779.9 110.1 744.5 110.5 740.4 111.6 709.4 111.6 703 113.2 692 113.8 667.1 111.8 634.3 112.6 621.1 113.6 609.4 112.5 590.8 104.2 565.9 99.3 554 93.9 542.6 87.6 522.1 81 503.8 78.6 493.8 76.5 475 71.3 457.2 75.4 434.8 236.1 443.9 242.8 572.4 254.7 799.1 252.9 807 252.2 815.2 249.8 830.2 248.7 837.8 248.9 849.1 249.8 857.7 253.4 872.9 254.3 881 255.1 903.3 255.9 910.2 257.3 919.6 256.5 926.5 248.4 950.8 246.5 958.2 245.3 966.5 245.4 977.3 247 984.7 267.1 1030.6 269.2 1036.2 269.9 1042.5 273.9 1050.5 274.8 1058.5 274.8 1062.6 272.3 1080 271.6 1085.5 Z" data-holc_grade="A"/>
<path d="M 698.2 1197.1 611.4 1223.2 600.9 1226 612.4 1257.1 619.6 1257.6 628.3 1260.6 631.6 1263 634 1279.4 639.2 1303.5 644.2 1337.3 644.7 1343.5 572.6 1366.5 584.4 1435.5 587 1448 588.8 1462.1 590.6 1467.4 596.4 1496.5 599.9 1517.2 603.4 1536.6 533.7 1559.4 525.9 1534.1 517.9 1509.5 547.5 1499 556.8 1493.5 541.3 1434.7 566.3 1428.3 561.7 1379.3 559 1363 556.8 1341.1 554.9 1335.5 546.7 1337.7 537 1341 534.2 1328.1 533.5 1316.9 533.3 1297.4 534.6 1277 535.9 1267.3 538.5 1255.4 540.6 1248.1 542.6 1237 532 1227.8 524.1 1241.6 517.9 1250.8 511.3 1256.7 494.6 1272.2 484.8 1273.6 475.6 1273.6 461.5 1275.5 447.3 1275.6 444.3 1274.7 438.2 1273.8 431.6 1269.6 420.3 1258.6 415.6 1252 411.7 1245.1 372.5 1285.4 360.5 1296.1 340.9 1312.2 343.2 1319.7 344.2 1328 346.6 1340.3 350.8 1361 353.5 1381.4 355.7 1385 356.5 1392.6 324.9 1393.2 306.9 1313 323.2 1302.2 323.7 1300.1 318.8 1274.3 314.9 1244.4 290.4 1245.7 269.8 1225.1 270.4 1161.4 302.8 1160.8 309.5 1159.7 388.9 1142.8 406.4 1140.5 423.5 1137.3 440.2 1134.4 444.6 1161.1 568.9 1136 568.6 1121.6 569.1 1117.2 571.6 1111.2 580.5 1113.3 593.3 1111.9 633.1 1105.8 653 1103.3 654.1 1103.1 666.8 1099.6 667.8 1133.2 669.5 1135.9 675.4 1135.9 681.3 1132.9 684.7 1132.9 688.8 1139 689.7 1145.6 689.4 1155.2 691.2 1169.9 694.4 1186.7 698.2 1197.1 Z" data-holc_grade="A"/>
<path d="M 593.4 877.3 476.2 903.6 428.3 914.3 425.6 913.8 423.7 891.3 395.7 894.9 389.3 842.9 475.6 829.2 477.1 827.6 479.4 818.8 485.4 807 485.9 802 485.5 797 460 688.3 458.3 682.2 455.7 668.8 453.8 661.8 452.8 655.1 449.4 644.8 450 641.9 457 612.9 459.9 602.9 462.4 584.4 464 574.8 466.5 573.6 471.8 575.2 481.4 577.5 487.3 578.6 496.8 581.2 502.8 584.7 507.3 588.8 524.6 602.2 526.7 603.4 531 604.5 535.4 604.8 539.7 637.2 542.2 650.5 554.4 702.8 555.1 707.9 555.7 734.1 555.7 770.6 562.9 767.9 566.2 767.5 571.7 767.3 575.1 766.2 578.5 764.3 582.1 761.7 584.8 757.8 586.3 755.5 589.9 747.1 590.9 743.6 592 737.8 592.8 730.6 594.2 724.6 598.7 712.5 602.8 704.9 608.1 700.1 615.1 695.3 621.2 693 628.1 691.8 633.7 691.9 644 692.7 646.9 695.1 646.5 699.7 642.3 704.4 641.6 706.6 658.2 716.8 669.2 726.2 675.2 732.6 675.9 735.5 676.3 750.7 704.5 754.4 713.1 700.3 730.7 702.5 736.2 653.6 748 653.9 777.5 655.7 795.3 656.3 868.1 655.9 865.7 706.5 887.4 709 887.2 720.7 926.2 723.1 925.6 782.2 934.6 782.4 933.6 826.8 921.6 922.2 919.7 927.1 886.6 929.4 867.2 931.6 854.5 832.8 706.9 842.2 680.1 844.2 588.4 848.2 591.8 864.3 593.4 877.3 Z" data-holc_grade="A"/>
<path d="M 999.9 387.6 1006.3 430.1 1014.5 438.5 1019.3 443.5 1020.8 448.4 1020.2 454.3 1015.8 465.1 1011.3 472.1 1028.6 686.6 986.8 675.1 922.7 663.8 928 638.7 968.5 646.5 970.9 602.8 975.6 559.8 972 556.8 979.8 501.9 963.8 501.1 962.5 488.5 975.9 485.4 968.8 422.6 977.6 421.9 980.4 418.5 980.6 410.2 970.6 395.7 962.6 395.8 959 394.5 953.4 359.2 970.1 347.8 974.6 346.4 985.9 355.9 999.9 387.6 Z M 868.1 655.9 872.4 588.2 875 533.6 875.4 511.3 786.8 502.9 784.7 474.8 784.3 458.3 780.8 437.7 776.2 410 775.6 385 676.6 392.1 669.9 314.3 819.2 304.5 821.1 326.4 829.6 327.5 829.8 344.6 844.5 359.1 865.5 375.8 875.8 384.8 879.2 390.5 880.1 419.6 882.2 423.2 899.5 425.2 905.4 427.8 922.5 463.1 936.7 463.8 937 471.7 939.7 483.4 940.3 490.9 929.3 494.8 896.2 660.6 868.1 655.9 Z" data-holc_grade="A"/>
<path d="M 999.9 387.6 985.9 355.9 974.6 346.4 970.1 347.8 967.6 344 920.6 302.9 827 264.1 826.8 277.6 817.3 278.3 819.2 304.5 669.9 314.3 676.6 392.1 775.6 385 776.2 410 780.8 437.7 784.3 458.3 784.7 474.8 786.8 502.9 875.4 511.3 875 533.6 872.4 588.2 868.1 655.9 795.3 656.3 777.5 655.7 748 653.9 736.2 653.6 602.3 650.1 590.1 647.8 573.7 649.3 542.2 650.5 539.7 637.2 535.4 604.8 532.4 581.9 528.1 554 525.8 536.3 524.4 516.1 511.7 521.9 497.8 526.8 483 530.5 462.2 534.1 434 536.5 400.2 538.3 375 542.5 317.2 555 242.8 572.4 236.1 443.9 227.9 254.6 221.3 228.1 226.5 201.5 223.7 114.6 968.9 87.5 971.3 142.9 974.6 179.6 977.4 205.7 979.5 225 982.2 248.5 982.9 253.4 999.9 387.6 Z" data-holc_grade="A"/>
<path d="M 1108.3 525.1 1101.4 524.4 1095.9 523.6 1091 519.8 1039 485.1 1036.3 481 1020.8 448.4 1019.3 443.5 1014.5 438.5 1006.3 430.1 999.9 387.6 982.9 253.4 989.7 253.2 993.8 249.9 999.9 245 1006.9 243.4 1012.3 243.4 1017.9 245.6 1022.8 249.2 1031.9 262.3 1037 265.8 1042.2 270.6 1042.7 274.4 1045.6 281.1 1049.7 287.1 1062 301.4 1066.6 304.9 1074 308.1 1074.2 311.7 1072.2 314.9 1071.1 321.4 1071.1 326.3 1071.6 334.3 1075.8 342.3 1076 348.8 1077.8 354.2 1080.8 359.5 1085.6 368.7 1087.8 375.6 1089 383.3 1088.5 389 1086.3 397.5 1085.7 403.9 1086.1 421.8 1088.2 431.5 1091.9 437.5 1095.9 443 1097.8 448.6 1099.6 459.5 1103.3 465.7 1107.6 473.2 1111.6 479.2 1116.7 482 1119.3 486.4 1118.9 490 1113.9 493.1 1104.1 497 1101.9 500.3 1106.1 507.1 1107.1 511.9 1108.3 525.1 Z" data-holc_grade="A"/>
<path d="M 1028.6 686.6 1011.3 472.1 1015.8 465.1 1020.2 454.3 1020.8 448.4 1036.3 481 1039 485.1 1091 519.8 1095.9 523.6 1101.4 524.4 1108.3 525.1 1145.9 582 1145.2 587.7 1141.7 591.8 1136.9 594.3 1132.4 595.4 1129.3 598.7 1123.8 605.1 1121.9 611.3 1122.5 613.6 1132.5 639.4 1138.9 668.8 1141.4 672.8 1144.9 677.1 1148.4 679.1 1152.1 678.6 1154.9 676 1155.2 672.5 1154.4 661.7 1155 651.8 1156.5 643.7 1159.9 638.2 1164.2 631.9 1174.1 622 1183.9 618.7 1187 620.1 1187.6 622.8 1186.7 627.1 1182.8 636.5 1182 641.7 1184.1 645.8 1186.6 647.2 1191.8 646.9 1195.6 640.9 1199.9 640.7 1200.5 644.6 1199.3 650.4 1200.2 656.9 1207.7 664.2 1207.5 672.4 1205.6 678.2 1206.3 685.5 1215.5 696.5 1215.2 701.9 1201 734.2 1198.5 748.6 1195.6 755.7 1189.3 761 1185.5 760.9 1180.4 765.8 1174.8 768.4 1155 767 1139 772.9 1124.4 772.9 1015.8 738.6 1028.6 686.6 Z" data-holc_grade="A"/>
<path d="M 2858.7 835.4 2892.4 830.7 2896.5 857.8 2896.2 865 2903.5 939.5 2907.9 997.6 2860 1002 2850.1 911.3 2854.1 865.3 2858.7 835.4 Z" data-holc_grade="A"/>
</g>
<g id="B">
<path d="M 571.6 1111.2 569.1 1117.2 568.6 1121.6 568.9 1136 444.6 1161.1 440.2 1134.4 423.5 1137.3 406.4 1140.5 388.9 1142.8 309.5 1159.7 302.8 1160.8 270.4 1161.4 268.6 1127.6 268.6 1101.9 270.7 1092.3 271.6 1085.5 289.9 1076.8 430.9 1015.2 422 977.6 446.1 958.5 460.5 951.6 486.7 944.4 480.4 924.2 476.2 903.6 593.4 877.3 594.7 896.5 598.7 919.5 598.8 929 600.8 937 606.3 966.6 606.6 979 607.2 987.2 600.3 1015.1 599 1022.1 593.5 1046.9 589.1 1059 587.5 1071.8 578.4 1094.8 572.8 1108.3 571.6 1111.2 Z" data-holc_grade="B"/>
<path d="M 1015.8 738.6 992.1 823.6 998.7 929.6 976.5 932 952.7 933.5 934.9 935.5 941.1 1038.3 828.8 1055.6 798.4 1063.9 719.8 1087.7 705.1 1091 690.6 1095 666.8 1099.6 654.1 1103.1 653 1103.3 633.1 1105.8 593.3 1111.9 580.5 1113.3 571.6 1111.2 572.8 1108.3 578.4 1094.8 587.5 1071.8 589.1 1059 593.5 1046.9 599 1022.1 600.3 1015.1 607.2 987.2 606.6 979 606.3 966.6 600.8 937 598.8 929 598.7 919.5 594.7 896.5 593.4 877.3 591.8 864.3 588.4 848.2 680.1 844.2 706.9 842.2 854.5 832.8 867.2 931.6 886.6 929.4 919.7 927.1 921.6 922.2 933.6 826.8 934.6 782.4 969 784.2 979.8 727.6 1015.8 738.6 Z" data-holc_grade="B"/>
<path d="M 1168.7 529.7 1175 556.9 1180.2 576.5 1188 592.4 1194.2 602.5 1207.7 620.9 1215.1 629.2 1225.5 637.5 1233.5 644.8 1260.8 667.7 1262.6 672.2 1258.5 689 1245 744.1 1295.6 754.4 1283.1 804.9 1261.3 797 1249.1 876.7 1242.3 876.7 1240.1 887.4 1148.9 901.3 1136.1 904.7 1099.2 914.6 1067.1 917.7 1052.3 920.3 1044.5 921.7 998.7 929.6 992.1 823.6 1015.8 738.6 1124.4 772.9 1139 772.9 1155 767 1174.8 768.4 1180.4 765.8 1185.5 760.9 1189.3 761 1195.6 755.7 1198.5 748.6 1201 734.2 1215.2 701.9 1215.5 696.5 1206.3 685.5 1205.6 678.2 1207.5 672.4 1207.7 664.2 1200.2 656.9 1199.3 650.4 1200.5 644.6 1199.9 640.7 1195.6 640.9 1191.8 646.9 1186.6 647.2 1184.1 645.8 1182 641.7 1182.8 636.5 1186.7 627.1 1187.6 622.8 1187 620.1 1183.9 618.7 1174.1 622 1164.2 631.9 1159.9 638.2 1156.5 643.7 1155 651.8 1154.4 661.7 1155.2 672.5 1154.9 676 1152.1 678.6 1148.4 679.1 1144.9 677.1 1141.4 672.8 1138.9 668.8 1132.5 639.4 1122.5 613.6 1121.9 611.3 1123.8 605.1 1129.3 598.7 1132.4 595.4 1136.9 594.3 1141.7 591.8 1145.2 587.7 1145.9 582 1108.3 525.1 1168.7 529.7 Z" data-holc_grade="B"/>
<path d="M 1102.6 1664.2 1096.6 1662.5 1083.6 1663.2 1067 1663.3 1062.1 1662.5 1061.1 1597.2 1119.1 1579.3 1138.3 1578.1 1120.1 1617.6 1115.9 1626.1 1102.6 1664.2 Z M 1226.3 1674 1211 1671.8 1179.9 1666.7 1164.2 1664.1 1161.4 1634.7 1154.9 1577.2 1156 1577.1 1197.3 1567.1 1205.7 1564.5 1216.8 1563.4 1220.3 1614 1221.8 1634.9 1224.3 1650.8 1225.9 1660.4 1226.3 1674 Z M 1347 1696.8 1341.2 1572.8 1343 1528 1342.4 1502.8 1341.2 1487.9 1339.5 1482.7 1352.5 1482.2 1346.9 1402.5 1364.9 1389 1377.9 1406.1 1379.5 1430 1380.8 1462.7 1383.1 1472 1384 1497.3 1386.9 1505.6 1391.4 1533.5 1393.6 1540.6 1403.6 1636 1378.4 1692.9 1366.5 1693.7 1347 1696.8 Z" data-holc_grade="B"/>
<path d="M 1801.2 303.2 1537.4 259.4 1542 240 1610.4 258.2 1618.9 258.5 1620.7 255.6 1622.7 226 1646.8 228.9 1676.4 232.7 1719 237.4 1741.8 240.1 1746.8 239.8 1753.9 231.3 1757.9 217.3 1800.2 188.8 1837.8 187.3 1815 238.8 1801.2 303.2 Z M 1304.6 491.6 1271.2 478.3 1261 477.7 1244.6 478.9 1224.4 480.3 1214.7 484.8 1206 489.5 1194.5 498.3 1191.3 502.9 1190.4 508.9 1186.5 519.4 1180 529.9 1173.8 529.8 1160.5 472.9 1160.4 469.9 1163 460.9 1162.5 458.3 1161.3 438.9 1159.1 425.5 1158.5 403.5 1156.7 391.7 1154.3 371.6 1152.9 360.9 1152.2 350.2 1151.1 342.1 1149.8 338.1 1146.7 309.3 1143.4 247 1142.4 241.1 1139.9 209.9 1138 185.1 1137.1 174.5 1137.4 166.8 1137 156.4 1136.3 144.9 1137 104.2 1136.8 82.1 1210 80.3 1209.3 19.2 1301.4 19.4 1302.2 18.7 1300.6 1.6 1304.1 1.1 1404.6 1 1410.6 125.5 1367.6 127 1390 209.4 1390.7 215.3 1392.3 303.5 1329 301.7 1328.8 304.3 1328.5 330.5 1312.5 386 1304.6 491.6 Z" data-holc_grade="B"/>
<path d="M 1990.7 929 1984.2 905.8 1980.1 889.8 2062.7 877.2 2042.9 924.7 2024.7 925.7 1990.7 929 Z M 2011.3 808.3 2026.1 782.4 2040.5 757.6 2043.4 747.9 2105.7 763.7 2098.1 785.1 2089.1 783.1 2078.8 813.1 2034.8 815.8 2011.3 808.3 Z M 2555.9 689.5 2552.2 688.7 2549.4 690.9 2548.1 698.4 2513 702.7 2512 662.5 2553.5 651.3 2555.9 689.5 Z" data-holc_grade="B"/>
</g>
<g id="C">
<path d="M 108.3 1229.6 123 1217.3 168.6 1171.2 176 1165.1 179 1163.2 205.3 1152.8 206.7 1163.2 195.8 1243.5 192.8 1253.3 118.9 1270.8 96.7 1277.3 57.3 1289.7 42.8 1291.8 108.3 1229.6 Z" data-holc_grade="C"/>
<path d="M 2062.7 877.2 1980.1 889.8 1977.4 883.9 1978.3 877.7 1984.2 870.9 1989.8 857.6 2073.2 852.3 2062.7 877.2 Z M 2011.3 808.3 2034.8 815.8 2078.8 813.1 2089.1 783.1 2098.1 785.1 2105.7 763.7 2043.4 747.9 2046.7 735.3 2106 728.3 2146.8 722.3 2139.4 736 2094.3 812.1 2083 831.7 2006.1 833.5 2008.6 815.2 2011.3 808.3 Z M 2555.9 689.5 2553.5 651.3 2512 662.5 2513 702.7 2453.7 708.2 2386.8 712.9 2379.6 728.8 2376.2 744.5 2376.9 755.9 2291.6 772.5 2199 790.7 2203.7 858.1 2195.2 863.9 2155.2 872.6 2156.8 899.2 2075 913.9 2060.4 957.6 2073.4 992.8 2083.3 1017.7 2161.5 1001.3 2277 977.3 2374.2 958.3 2419 968 2419.3 991.2 2374.8 984.2 2287.3 999.9 2298.4 1075 2297.7 1089.1 2299.2 1100.8 2294.4 1104.5 2287.9 1114.5 2279.5 1125.7 2293.7 1178.8 2233.4 1189.5 2165.9 1200.3 2185 1258.1 2225.2 1308.1 2242.1 1305.5 2258.9 1333.5 2281.6 1395.5 2312.7 1480.2 2322.8 1490.5 2330.5 1502.6 2339.3 1517.3 2364.2 1544.5 2375.5 1558.1 2396.6 1564.7 2401.5 1568.8 2419.8 1595.8 2429.4 1603.7 2464.2 1627.7 2505.1 1650.6 2510.8 1655.4 2521.9 1670.6 2530.5 1683.7 2501.3 1688.5 2489.6 1672.8 2478.7 1664.2 2465.3 1656.5 2451.7 1655.1 2432.3 1656.3 2397.6 1624.6 2381 1607.8 2361.3 1612.6 2335.9 1616.6 2346 1656.8 2359.1 1712.2 2334.1 1715.4 2324.1 1678.2 2315.1 1632.2 2311.5 1618.2 2306 1609.4 2282.4 1579.5 2273.3 1566.4 2265.8 1550.3 2263.6 1540.8 2252.2 1495.7 2246.7 1479.9 2233.2 1435.6 2231.6 1419 2234.1 1391.7 2234.5 1363.3 2232.2 1357 2202.2 1310.7 2168.7 1258 2158.4 1241.7 2154.8 1231.8 2151.6 1218.5 2143.6 1205.8 2127.4 1179.9 2115.3 1160.8 2100.6 1137.6 2080.9 1105.6 2059.6 1069.6 2038.3 1034 2027.1 1013.4 2012.8 987.5 2016.8 974.1 2011.5 972.7 2002.2 973.1 1984.6 974 1985.7 955.4 1988.5 941.6 1990.7 929 2024.7 925.7 2042.9 924.7 2041 930.7 2059.5 934.4 2085 883.2 2133.9 789.5 2171.6 717.7 2176.3 719.6 2242.2 709.8 2253.9 706.2 2370.4 656.9 2437.9 626.9 2484.7 606.8 2496.2 602.3 2582.1 568.9 2585 567.9 2642.3 547.7 2669.1 539.1 2735.4 519.4 2857.1 483.2 2870.7 479.8 2886.5 476.9 2903.4 477.6 2921.2 479.9 2930.9 482.9 2937.4 490.5 2940 500.6 2987.7 491.1 2993.8 521.5 2999 553.2 2986.3 582.6 2945.9 672.1 2935 689.2 2894.7 669.4 2889.5 619.3 2886.7 612.2 2882.8 607.3 2876.3 603.6 2869.8 600.2 2866.3 595 2865 588.7 2866.5 579.7 2864.7 575.3 2859.3 571.5 2849.2 571.7 2832.5 571.7 2823.6 577.8 2816.2 586.4 2808.9 600.4 2807.4 609.2 2808.6 619 2810.6 626.8 2811.1 634.9 2811 639.9 2808.9 642.9 2803.4 645.7 2795 645.3 2786.6 643.1 2779 635.1 2775.2 635.2 2775.4 628.1 2772.3 623.8 2754.5 619.8 2749.7 622.7 2743 619.1 2739 622.4 2734.3 620.3 2726.9 623.9 2720.4 629.2 2721.8 637.6 2727.3 647.2 2663.1 657.4 2669.6 702 2661 710.6 2658.2 716.3 2660.6 735.8 2702 729.6 2705.2 741.5 2708.6 748.5 2713.1 756 2719.4 762.2 2729.2 766 2734.8 769.9 2739.3 783.3 2746.9 807.2 2753.4 822.8 2757.5 837.4 2761.5 858.1 2766.7 886.7 2770.2 911.8 2776.1 933.8 2743.1 938.2 2738.8 920.6 2735.5 898 2732.8 872.9 2730.3 848.8 2726.4 832 2722.9 818.9 2718.4 810 2713.7 804.3 2706.4 798.9 2700.6 793.1 2697.6 786.7 2694.8 776 2636.4 787.2 2629 744.6 2625.4 718.7 2621.7 703.1 2605.2 700.2 2594 696.2 2579.2 691.4 2575.5 690.3 2570.1 691.4 2565.7 691.3 2558.4 690 2555.9 689.5 Z M 2201.9 1017.8 2213.2 1073.2 2238.3 1069.1 2225.8 1013.5 2201.9 1017.8 Z M 2171.8 1062.4 2164.4 1025.9 2097.1 1039.3 2108.1 1068.1 2118.6 1088.6 2176 1079.5 2171.8 1062.4 Z M 2359 539.2 2313.1 628.1 2297.6 650.4 2282.5 668.1 2263.6 684.3 2253 690.8 2241.1 698.6 2193.9 705.5 2056.4 721.9 2052.9 720.4 2120.2 658.5 2156.8 652.6 2154.2 626.3 2170.2 573.9 2213.5 571.5 2247.1 485.4 2237.1 455 2297.9 428.4 2325 436.3 2297.7 467.4 2289.1 491.2 2270.5 538.9 2365.3 521.8 2365.8 526.3 2359 539.2 Z" data-holc_grade="C"/>
<path d="M 818.9 1675.7 804.9 1707.5 793.8 1722.7 753.6 1708.5 743.2 1705.2 739.6 1717 590.9 1714.2 559.9 1714.5 563.1 1576.3 667.4 1567.8 757.6 1567.3 763.4 1568.7 852.7 1613.4 818.9 1675.7 Z M 1014.9 1094.9 998.7 1088.3 952.2 1075.2 932.2 1068.7 930.8 1092.2 964.7 1104.3 957.6 1132 904.8 1128.8 906.7 1161.6 912.1 1247.1 963.9 1251.2 1017.1 1255.4 1017.7 1332.4 997.4 1364.5 984.8 1383.8 939.8 1471.5 927.5 1389.4 815.7 1380.5 795.3 1379.6 782.5 1380.3 780.4 1395.5 779.7 1409.9 781.1 1421.8 785.1 1433.4 789.6 1460.4 791.4 1488.2 799.2 1488.4 821.9 1493.8 861.6 1496.5 919.1 1503.3 869.1 1590.3 863.5 1578.3 854.6 1569.5 843.4 1562 832.7 1556.9 835 1554.1 839.6 1552.6 841.3 1545.5 837.6 1543 826.1 1541.3 818.5 1540.9 806.6 1533.4 800.3 1527.4 795.2 1526.1 790.7 1521.6 788.2 1518.4 782.8 1519 776 1508.1 771.5 1501.5 767.8 1488 761.9 1470.5 758.3 1458 756.2 1441.4 752.9 1438.1 744.5 1431.9 737.8 1423.6 734.1 1413.1 733.7 1397.9 732.2 1377.4 732.3 1360.7 731.9 1354 729.2 1345.2 728 1333.9 726.7 1326.9 723.2 1318.5 719 1307.1 717.2 1298.8 717.8 1289.4 720.3 1281.5 720 1273.8 715.9 1268.2 709.8 1262 704.1 1256.7 701.1 1252.2 701.5 1248.5 708.2 1237.8 710.8 1232.7 711.6 1223.7 711.1 1216.8 708.9 1211.1 703.2 1199.9 698.2 1197.1 694.4 1186.7 691.2 1169.9 689.4 1155.2 689.7 1145.6 688.8 1139 684.7 1132.9 681.3 1132.9 675.4 1135.9 669.5 1135.9 667.8 1133.2 666.8 1099.6 690.6 1095 705.1 1091 719.8 1087.7 798.4 1063.9 828.8 1055.6 941.1 1038.3 960.6 1035.5 970.5 1034 993.3 1030.8 1009.6 1032.5 1010.6 1044.6 1014.9 1094.9 Z" data-holc_grade="C"/>
<path d="M 1009.6 1032.5 993.3 1030.8 970.5 1034 960.6 1035.5 941.1 1038.3 934.9 935.5 952.7 933.5 976.5 932 998.7 929.6 1000.1 953.1 1001.9 972.7 1004.3 988 1007.6 1008.5 1009.6 1032.5 Z" data-holc_grade="C"/>
<path d="M 1009.7 1520.3 1011.4 1617.5 1017.3 1715.5 1016 1732.4 1016.6 1769.2 910.1 1781.1 865.2 1786.9 774 1797.9 820.3 1725.5 826.9 1717.9 993.4 1423.1 1005.2 1404.4 1009.7 1520.3 Z" data-holc_grade="C"/>
<path d="M 1200.6 1013.6 1189.7 1013.6 1170.5 1013.9 1148.6 1014.7 1135.8 1016.8 1111.2 1020.8 1098.9 1023 1079.3 1025.3 1067.1 1027.8 1058.1 1029.4 1048.4 1030.2 1030.6 1034 1026.6 1033.2 1023.7 1032.6 1009.6 1032.5 1007.6 1008.5 1004.3 988 1001.9 972.7 1000.1 953.1 998.7 929.6 1044.5 921.7 1052.3 920.3 1067.1 917.7 1099.2 914.6 1136.1 904.7 1148.9 901.3 1240.1 887.4 1242.3 876.7 1249.1 876.7 1335.1 875.6 1334.7 929.2 1324.5 935.4 1315.9 938.3 1307 941.3 1282.3 952.4 1277.4 956.4 1266.2 959.9 1258.9 962.1 1233.6 961.8 1229.7 978.5 1227.9 984.3 1221.6 995.7 1217.1 1002.4 1206.6 1010.3 1200.6 1013.6 Z" data-holc_grade="C"/>
<path d="M 1440.8 734.6 1467.7 750.3 1479.6 765.4 1483.7 772.4 1489.9 784.2 1496.4 791.2 1492.1 801.4 1492.1 804 1489.8 869.5 1483.8 869.8 1455.6 823.6 1457.1 817 1481.4 805.2 1466.6 768.2 1465.3 768.3 1432.2 784.1 1429.7 784 1400.2 777.5 1387.8 839.1 1386.2 846.8 1483.8 869.8 1478.6 905.1 1405.8 906.3 1405.2 873.3 1335.1 875.6 1249.1 876.7 1261.3 797 1283.1 804.9 1295.6 754.4 1245 744.1 1258.5 689 1439.2 741.3 1440.8 734.6 Z" data-holc_grade="C"/>
<path d="M 1640.6 492.6 1640.3 494 1622 541.6 1589 531.7 1504.1 506.2 1491 556.4 1487.9 568 1487.2 570.8 1482.7 584.6 1470.8 621.1 1462.1 650.9 1456.3 675.4 1451 691.3 1440.8 734.6 1439.2 741.3 1258.5 689 1262.6 672.2 1260.8 667.7 1233.5 644.8 1225.5 637.5 1215.1 629.2 1207.7 620.9 1194.2 602.5 1188 592.4 1180.2 576.5 1175 556.9 1168.7 529.7 1173.8 529.8 1180 529.9 1186.5 519.4 1190.4 508.9 1191.3 502.9 1194.5 498.3 1206 489.5 1214.7 484.8 1224.4 480.3 1244.6 478.9 1261 477.7 1271.2 478.3 1304.6 491.6 1301.5 541.2 1306.6 541.2 1323.8 545.5 1331.6 546.8 1358.3 552.5 1380.8 555.6 1379.4 517.1 1382.3 506.6 1383.2 495.6 1390.5 452.4 1394.5 445.4 1434.7 453.7 1439.1 439.5 1440.6 428.1 1442.3 374.3 1494.3 389.7 1493.7 373.7 1493.9 355.3 1496.5 315.7 1523.3 313.7 1537.4 259.4 1801.2 303.2 1801.4 308 1799 315 1787.4 333.5 1780.9 337.3 1711.5 386.4 1646.4 475.3 1641.8 487.6 1640.6 492.6 Z" data-holc_grade="C"/>
<path d="M 1017.7 1332.4 1017.1 1255.4 1019.2 1151.1 1019 1120.5 1032.6 1119.7 1049.7 1119.8 1083.3 1117.3 1103.3 1111.5 1140.1 1103.2 1137.8 1117.3 1134.6 1128.8 1126.3 1143.4 1063.3 1258 1058.9 1267 1017.7 1332.4 Z M 1447 1210.8 1446.5 1087.8 1611.5 1094.9 1617.2 1119.8 1613.2 1122.9 1608.5 1126.5 1608.2 1126.6 1596.8 1133.3 1588.1 1143 1581.2 1149.3 1543.2 1188 1538.7 1191 1538.1 1191.4 1508.2 1207.7 1497 1207.9 1496.1 1207.9 1494.7 1207.9 1471.4 1209.3 1447 1210.8 Z M 1333.5 1220.1 1320.1 1219.4 1277.9 1215.4 1268.3 1214.3 1226.5 1209 1218.1 1220.1 1213.7 1225.3 1207.3 1231.5 1201.9 1235.5 1197.9 1237.2 1189.5 1237.5 1187.2 1236.1 1180 1231.3 1123.1 1205 1145.4 1162.6 1189 1078.9 1213.4 1071.2 1212.6 1079.1 1208.3 1101.4 1202.4 1116.3 1202.5 1136.4 1205.9 1143.8 1211.5 1149.6 1219 1151 1230 1156.1 1236.1 1162.5 1231.4 1171.4 1233.9 1174.8 1240.3 1178.3 1250.2 1180.7 1269.1 1180.6 1274 1179.7 1277.5 1174.4 1279.6 1159.8 1288.2 1156.6 1302.9 1149.2 1314.2 1141.2 1321.1 1132.3 1323.7 1126.1 1325.2 1114.5 1325 1109.2 1321.9 1095.7 1320.8 1088.1 1321.7 1078.6 1419.5 1082 1421 1213.5 1414.7 1214.4 1398 1215.7 1367.5 1218.8 1344 1220.2 1343.1 1193.5 1344.8 1176.1 1341.7 1171.1 1338.9 1174.1 1336.6 1184.3 1333.5 1220.1 Z M 1014.9 1094.9 1010.6 1044.6 1009.6 1032.5 1023.7 1032.6 1026.6 1033.2 1030.6 1034 1048.4 1030.2 1058.1 1029.4 1067.1 1027.8 1079.3 1025.3 1098.9 1023 1111.2 1020.8 1135.8 1016.8 1148.6 1014.7 1170.5 1013.9 1189.7 1013.6 1200.6 1013.6 1195.2 1033.3 1189.4 1047.5 1184.9 1052.1 1182.1 1055 1178.3 1060.3 1174.7 1071.1 1152.2 1079.4 1140.3 1083.8 1109.3 1092.1 1100.6 1093.5 1084.5 1095 1075.4 1097 1048 1098.5 1014.9 1094.9 Z M 1425.6 955.8 1420.1 1059.7 1334.4 1058.4 1341.7 1043 1342.5 1037.6 1343.5 1028.4 1344.3 1005.8 1364.5 999.6 1372.1 998.4 1384.3 998.1 1385 995.1 1385.1 985.4 1384.5 976.6 1376.2 976.9 1365.5 978.9 1347.5 979.2 1348 970 1349.5 964.1 1425.6 955.8 Z M 1599 976.3 1611.5 987 1600.5 1031.6 1605.1 1034.7 1591.8 1072.3 1444.9 1065 1452.1 978.2 1452.3 960.1 1527.6 980.3 1535.9 952.5 1592.4 974.4 1599 976.3 Z" data-holc_grade="C"/>
<path d="M 1333.5 1220.1 1331.5 1253.1 1329.4 1404.5 1331.2 1416.3 1333.8 1446.7 1336.5 1469.1 1338.8 1480.7 1339.5 1482.7 1341.2 1487.9 1342.4 1502.8 1343 1528 1341.2 1572.8 1347 1696.8 1336 1698 1290.2 1725.8 1236.7 1729.5 1233.7 1719.2 1232.5 1691.8 1231.1 1675.9 1228.3 1674.6 1226.3 1674 1225.9 1660.4 1224.3 1650.8 1221.8 1634.9 1220.3 1614 1216.8 1563.4 1205.7 1564.5 1197.3 1567.1 1156 1577.1 1154.9 1577.2 1138.3 1578.1 1119.1 1579.3 1061.1 1597.2 1062.1 1662.5 1067 1663.3 1083.6 1663.2 1096.6 1662.5 1102.6 1664.2 1085.7 1723.6 1082.5 1742.2 1080.8 1763.7 1016.6 1769.2 1016 1732.4 1017.3 1715.5 1011.4 1617.5 1009.7 1520.3 1031 1519.8 1068.6 1519.5 1111 1521.7 1140.3 1523.9 1155.3 1523.1 1196 1513.3 1190.1 1446.9 1187.7 1425.4 1205.6 1421.6 1234.1 1411 1252.4 1407.3 1270.6 1405.3 1265.9 1364 1231.5 1368.6 1214.5 1376.8 1204.8 1340.3 1195.9 1303.8 1192.9 1271.6 1187.2 1236.1 1189.5 1237.5 1197.9 1237.2 1201.9 1235.5 1207.3 1231.5 1213.7 1225.3 1218.1 1220.1 1226.5 1209 1268.3 1214.3 1277.9 1215.4 1320.1 1219.4 1333.5 1220.1 Z M 1717.2 1147.1 1649.4 1146.6 1653.7 1164.4 1650.4 1166.2 1632.9 1168.6 1640.9 1207.9 1655.1 1207 1656.2 1244.3 1645 1246.7 1647 1299.4 1648.3 1321.3 1657.1 1357.9 1670.8 1356.3 1684.6 1355.8 1730.3 1571.2 1697.7 1576.6 1697.2 1579.4 1706.9 1641.1 1730 1680.8 1509.7 1718.2 1508.7 1709.5 1512 1686.5 1509.9 1642.2 1507.7 1608.5 1522.6 1608.1 1522.1 1552.1 1498.5 1559.8 1466.4 1571.1 1442.3 1577.6 1429.5 1580.1 1403.6 1636 1393.6 1540.6 1391.4 1533.5 1386.9 1505.6 1384 1497.3 1383.1 1472 1380.8 1462.7 1379.5 1430 1377.9 1406.1 1364.9 1389 1374.3 1381.9 1369.7 1362.7 1377.9 1361.3 1384.3 1361.1 1380.5 1328.4 1386.7 1298.2 1436 1287.7 1434.1 1211.2 1447 1210.8 1471.4 1209.3 1494.7 1207.9 1496.1 1207.9 1497 1207.9 1494.1 1269.9 1494 1274.1 1507.7 1272.2 1542.4 1268.8 1561.2 1219.1 1538.7 1191 1543.2 1188 1581.2 1149.3 1588.1 1143 1596.8 1133.3 1608.2 1126.6 1608.5 1126.5 1613.2 1122.9 1617.2 1119.8 1643.7 1107.2 1658.3 1097.1 1700.4 1083.5 1717.2 1147.1 Z" data-holc_grade="C"/>
</g>
<g id="D">
<path d="M 1496.4 791.2 1489.9 784.2 1483.7 772.4 1479.6 765.4 1467.7 750.3 1440.8 734.6 1451 691.3 1456.3 675.4 1462.1 650.9 1470.8 621.1 1482.7 584.6 1510.3 596 1510.3 600.5 1551.3 614.1 1549.5 628.1 1546.9 645 1597.5 660.4 1599.1 653.9 1599.1 640.3 1599.6 615.7 1589.5 614.5 1586.2 607.4 1555.2 598.6 1553.4 591.6 1487.9 568 1491 556.4 1575.5 582.2 1585 584.7 1587.8 582.7 1590.7 583 1593.9 578 1604.3 581.6 1608.1 571.6 1591.3 566.7 1594.1 556.3 1587.5 554.6 1585.6 543.2 1589 531.7 1622 541.6 1640.3 494 1640.6 492.6 1665.2 490.3 1707.8 484.2 1684.9 557.9 1675.7 599.2 1659.3 666.3 1658.3 670.7 1660.9 704.6 1664 707.6 1670.4 709.5 1678.4 711.8 1685.8 717.2 1691.8 725.9 1694.8 733.4 1700.9 749.6 1705.4 769.4 1709.7 781.7 1712.1 798.3 1712.4 811.7 1709.4 814.1 1685.8 811.7 1643.2 807.1 1638.9 803.6 1625.3 767.4 1618.6 745.3 1610.5 745.6 1605 747.4 1593.1 751.5 1588.4 751.8 1541.5 697.2 1529.2 704.7 1573.2 758.7 1549.5 767.8 1539.8 774.2 1527.2 784.6 1524.9 783.6 1506.5 768.1 1496.4 791.2 Z" data-holc_grade="D"/>
<path d="M 1717.2 1147.1 1700.4 1083.5 1658.3 1097.1 1643.7 1107.2 1617.2 1119.8 1611.5 1094.9 1627 1039.9 1642 1042.3 1652.2 986.6 1689.8 996.2 1692.6 995.5 1697.3 960.9 1728.1 969.9 1733.2 933.1 1704.2 927.4 1706.2 901.4 1708.9 881.6 1708 866.6 1707.2 847.8 1724.3 848.5 1725.9 849.4 1726.9 854.7 1731 856.4 1734.9 859.7 1744.6 880.4 1745.4 887.2 1744.3 922.4 1745.3 928.8 1748.7 938.2 1748.7 952.2 1750.4 960.4 1752.9 982.6 1759.1 999.6 1761.1 1010 1764.4 1015.1 1772.5 1027 1792.2 1054.7 1796.7 1068.8 1800.8 1074.1 1810.1 1078.8 1815.6 1084.8 1827.3 1100.2 1837.1 1119 1842.9 1129.6 1861.5 1154 1879.5 1176.3 1881.6 1179.6 1828.6 1221.7 1790.6 1226.5 1791.2 1215.7 1808.6 1199.2 1766.2 1146.4 1717.2 1147.1 Z" data-holc_grade="D"/>
<path d="M 2202.2 1310.7 2180.2 1317.5 2129.4 1334.5 2120.4 1315.8 2114.6 1305.8 2112 1295.4 2108 1285.6 2103.9 1281.3 2094.7 1264 2088.6 1258 2077.3 1246.2 2075 1246.8 2071.8 1245.1 2071.5 1240.4 2069.5 1236.7 2060.6 1226.6 2082.5 1219.7 2123.2 1211.1 2143.6 1205.8 2151.6 1218.5 2154.8 1231.8 2158.4 1241.7 2168.7 1258 2202.2 1310.7 Z M 1988.5 941.6 1985.7 955.4 1984.6 974 1926.5 975.7 1928.1 1002.1 1815.6 1010.7 1809.1 998 1803.7 987.8 1797.6 980.5 1794.4 972.3 1791.1 959.8 1783.5 941.7 1777 923.3 1775.3 913.8 1774.4 898.9 1778.5 881 1785.7 862.2 1814.9 861.2 1852.8 857.5 1859.6 856.6 1883.8 857.3 1889.2 871.1 1892.1 881.6 1920.4 881.8 1922 944.4 1988.5 941.6 Z M 1942.7 739.6 1957 741.3 1967.4 740.7 1965 752.1 1961.1 781.3 1955.3 819.9 1862.8 826 1839.6 830.1 1798.2 834.6 1806.3 818.6 1811.9 806.1 1819 796.6 1827.5 784.3 1836.1 774.4 1849.8 755 1853.5 754.1 1861.3 747.2 1880.1 726.5 1889 719.8 1892.7 718.3 1900.7 718.9 1915.6 729.5 1929.7 735.5 1942.7 739.6 Z M 2496.2 602.3 2487 591.2 2479.4 595.5 2313.1 628.1 2359 539.2 2561.1 503.1 2585 567.9 2582.1 568.9 2496.2 602.3 Z" data-holc_grade="D"/>
</g>
</svg>