<?xml version="1.0"?>
<svg xmlns="http://www.w3.org/2000/svg" version="1.2" baseProfile="tiny" width="3000" height="2685" viewBox="0 0 3000 2685" stroke-linecap="round" stroke-linejoin="round">
<g id="A">
<path d="M 1483.5 1527.9 1478.8 1527.6 1476.9 1518.1 1473.4 1509.6 1472.5 1499.4 1475.8 1492.5 1479.4 1482.6 1476.4 1474.7 1472 1466.7 1467.6 1465.9 1456.5 1468.3 1438.3 1476.3 1414.8 1480.2 1387.8 1481.3 1369.8 1474.1 1355.5 1471.4 1347.8 1472.7 1335.6 1474.7 1314.6 1482.6 1303.8 1487.9 1299.7 1479.6 1296 1467.7 1293.7 1420.5 1292.7 1403.2 1294.4 1395.8 1306 1368.8 1311.8 1354.4 1313.2 1351 1320.6 1341 1324.8 1335.3 1327.4 1320.9 1330.1 1306.4 1330.9 1302.2 1335.9 1301.1 1348.6 1303.9 1361.8 1309.9 1370.1 1318.2 1379.8 1328.9 1387.5 1340.4 1392.2 1346.8 1397.2 1352.3 1403.5 1353.9 1410.7 1351.7 1414.8 1337.1 1420.9 1329.7 1430.3 1328.3 1442.4 1331.6 1450.7 1338.8 1456 1350.9 1457.1 1358 1459.8 1370.4 1465.1 1379.2 1476.1 1388.8 1486.9 1397.6 1491.3 1403.1 1493 1413.9 1496.3 1419.7 1505.4 1424.9 1512.8 1425.7 1520.6 1419.4 1524.2 1420.2 1546.2 1437 1567.5 1452.1 1583.5 1465.6 1572.2 1475.2 1547.3 1488.7 1519.2 1506.6 1498.2 1515.9 1483.5 1527.9 Z" data-holc_grade="A"/>
<path d="M 1225.8 1260.5 1224.3 1274.7 1219.2 1284.6 1205.5 1296.3 1197.8 1300.7 1190.2 1313.2 1184.1 1311.7 1174.6 1309.4 1164.3 1306.9 1128.6 1299.4 1104.5 1294.3 1070.6 1273 1068.9 1263.6 1066.5 1249.6 1065.7 1236.3 1064.8 1221.8 1063.9 1207.2 1063.2 1195.5 1062.5 1183.4 1061.7 1171.4 1061.1 1161 1060.8 1156.2 1073.5 1156.2 1082.8 1162.8 1098.3 1173.8 1108.2 1180.7 1122.9 1191.1 1140 1202.5 1149.2 1208.6 1157.4 1214 1165.3 1219.3 1176.4 1226.7 1185.4 1232.8 1199.4 1242.4 1208.5 1248.6 1219.1 1255.9 1225.8 1260.5 Z" data-holc_grade="A"/>
</g>
<g id="B">
<path d="M 1252.6 1348.4 1254 1369 1251.9 1375.9 1239.5 1386.2 1225.7 1388.9 1220.2 1378.6 1211.9 1368.3 1202.6 1352.4 1193.8 1363.4 1172.7 1383.6 1147.4 1407.9 1126.7 1435.8 1117.1 1416.1 1108.8 1399 1103.2 1387.6 1098.2 1377.2 1092.3 1365.1 1088.6 1357.3 1085.3 1350.6 1083 1340.2 1080.2 1327.6 1079.8 1323 1079 1313.5 1077.9 1300.9 1077.5 1296 1074 1284.6 1070.6 1273 1104.5 1294.3 1128.6 1299.4 1164.3 1306.9 1174.6 1309.4 1184.1 1311.7 1190.2 1313.2 1190.5 1320.8 1196.7 1324.3 1207.1 1324.3 1210.1 1326.1 1214 1328.4 1218.8 1336 1223.8 1338.6 1225.6 1339.6 1226.7 1340.2 1227.2 1340.5 1227.8 1340.8 1228.5 1341.1 1229.1 1341.3 1229.9 1341.7 1230.7 1342 1231.9 1342.5 1236.8 1344.5 1239.5 1345.6 1252.6 1348.4 Z" data-holc_grade="B"/>
<path d="M 1405 1582.3 1407.3 1605.3 1397.7 1627.7 1392.1 1671.3 1370.5 1660.3 1328.6 1645.1 1290.9 1631.8 1297.8 1615.3 1283.5 1568.1 1267.9 1568.1 1248.6 1563.1 1250.9 1522.7 1255 1488.3 1261.8 1479.1 1270.4 1467.3 1275.7 1459.9 1278.5 1453.5 1285.9 1436.6 1286.9 1434.4 1293.7 1420.5 1296 1467.7 1299.7 1479.6 1303.8 1487.9 1306.6 1492.2 1308.2 1494.9 1309.3 1496.6 1311.9 1497.3 1315.7 1498.3 1317.4 1498.8 1319.9 1499.4 1321.3 1499.8 1324 1500.4 1325.6 1500.8 1335.5 1503 1340.1 1505.1 1355.3 1512.2 1362 1516.7 1372.9 1524.3 1386.6 1534.7 1401.3 1545.2 1406.4 1559 1400.4 1569.1 1399 1577.8 1405 1582.3 Z" data-holc_grade="B"/>
<path d="M 1386.3 1046 1389.2 1058.1 1393.3 1076 1398.8 1094.9 1404.9 1117.8 1409.8 1163.7 1397.4 1183.8 1377.3 1211.3 1357.1 1237.4 1335.9 1267.9 1331.5 1299 1330.9 1302.2 1330.1 1306.4 1327.4 1320.9 1324.8 1335.3 1320.6 1341 1313.2 1351 1309.9 1349.5 1304.7 1347.1 1299.5 1344.6 1293.4 1341.6 1295.8 1331.4 1294.5 1318.8 1292.3 1313 1291.6 1305.6 1290.9 1296.8 1288.8 1291.3 1288.6 1290.8 1288.4 1290.3 1288 1289 1287.8 1288.7 1287.6 1288 1287.3 1287.4 1287.1 1286.9 1286.6 1285.9 1286.4 1285.4 1285.8 1284 1285.2 1282.7 1284.3 1280.7 1283.2 1278.2 1283.1 1278 1283 1277.9 1283 1277.7 1282.9 1277.7 1282.9 1277.6 1282.9 1277.5 1282.8 1277.5 1282.8 1277.4 1282.7 1277.3 1282.6 1277.1 1282.3 1276.6 1281.2 1275 1280.9 1274.4 1276.9 1268.3 1273.2 1262.7 1267.7 1255.6 1264.9 1252 1264.7 1242.6 1264.1 1236.9 1263.4 1230.3 1263.4 1230.1 1263.4 1229.8 1263.3 1229.1 1263.3 1228.6 1263 1228.2 1262.6 1227.8 1262.3 1227.5 1262.1 1227.3 1261.9 1227 1261.6 1226.6 1261.3 1226.3 1261.1 1226 1258 1222.5 1252 1221.4 1246.6 1221.1 1244 1220.9 1240.7 1223.6 1237 1227.1 1234.3 1229.7 1232.1 1234.7 1230.5 1238.5 1229.8 1240.1 1229.6 1240.5 1229.2 1241.4 1229.1 1241.8 1229 1242.3 1228.8 1243.3 1228.7 1244 1228.6 1244.3 1228.5 1244.9 1228.5 1245 1228.5 1245.2 1227.6 1250.5 1226.9 1254.3 1225.8 1260.5 1219.1 1255.9 1208.5 1248.6 1199.4 1242.4 1185.4 1232.8 1176.4 1226.7 1165.3 1219.3 1157.4 1214 1149.2 1208.6 1140 1202.5 1122.9 1191.1 1108.2 1180.7 1098.3 1173.8 1082.8 1162.8 1073.5 1156.2 1060.8 1156.2 1061.1 1161 1061.7 1171.4 1062.5 1183.4 1063.2 1195.5 1063.9 1207.2 1064.8 1221.8 1065.7 1236.3 1066.5 1249.6 1068.9 1263.6 1063.6 1253.3 1054.2 1239.3 1044.3 1219.5 1034.1 1204.6 1012.3 1180.1 993.5 1158.4 985.5 1147.7 969.3 1140.5 957.7 1136.7 941.9 1122.4 908.6 1083.9 889.8 1060.8 905.3 1021.7 911.9 1023.4 932.6 1015.7 951.9 1002.2 961.6 985.7 964.9 973.1 971 971.4 975.9 976.9 988.4 999.2 1003 1024.8 1014.6 1044.8 1020.1 1052 1032.5 1062.5 1053.2 1085.3 1049.7 1101 1054.8 1110.1 1077.8 1127.3 1106 1146.3 1148 1172 1181.3 1126.8 1191.7 1123.9 1213.5 1115.3 1236 1107.9 1250.9 1101.6 1261.8 1094.1 1279.7 1091.3 1296.9 1083.8 1325.1 1075.8 1338.9 1067.8 1365.3 1059.8 1382 1050.6 1386.3 1046 Z" data-holc_grade="B"/>
<path d="M 910.1 2111.8 926 2105.5 937.4 2097.1 944.4 2089 951.8 2081.3 958.1 2073.3 965.1 2065.2 972.8 2054.2 990.5 2036.6 1015.5 2019.4 1042 2003.2 1052.7 1992.2 1072.2 1973.9 1089.2 1957.4 1111.9 1950 1116.8 1973.5 1119.7 1992.6 1123 2012.8 1126 2037.7 1130 2060.1 1120.8 2097.2 1121.5 2104.1 1138.1 2107.8 1141.4 2105.2 1145.8 2092.8 1150.6 2085.1 1163.5 2055 1169.8 2033.7 1167.6 2020.5 1162.1 1991.9 1158.8 1958.5 1154 1937.2 1180.5 1930.6 1209.6 1926.2 1219.5 1927.3 1234.2 1943.1 1242.7 1958.1 1254.9 1977.2 1260 1990.1 1262.2 1992.4 1264.1 1994.4 1267.1 1997.6 1271.8 2002.5 1272.8 2004.7 1273.7 2006.6 1275.9 2011.5 1278.4 2016.8 1286.8 2020.4 1296.5 2024.5 1305.4 2026 1310.7 2026.8 1312.7 2027.1 1334 2033 1319.3 2056.5 1302 2086.2 1283.9 2118.8 1272.9 2136.4 1223.2 2154 1195.2 2165 1141.4 2177.9 1122.6 2181.9 1111.2 2186.7 1093.2 2184.1 1064.8 2180.1 1053.4 2179 1022.5 2172.7 1004.1 2168.7 985.3 2161.3 964.7 2154 951.4 2150.7 937.4 2140.4 917.2 2118.7 910.1 2111.8 Z" data-holc_grade="B"/>
<path d="M 837.2 1075.3 795.2 1047.2 762.4 1019.7 794.7 975 787.2 961.9 813.1 926.4 836.1 906.3 838.4 914.3 835.1 922.9 831.5 932.7 832.3 938.1 833.2 944.2 833.8 948.4 834.6 953.8 835.5 959.6 837.1 963.4 839.7 969.3 842.5 976 844.1 979.6 848.2 988.2 851.6 995.4 855 1002.6 857.4 1009.5 859.8 1016.4 860.8 1019.2 864.5 1026.7 866.1 1029.9 868.2 1034.1 864.2 1039.4 859 1046.3 852.4 1055 845.3 1064.5 841.9 1069.1 837.2 1075.3 Z" data-holc_grade="B"/>
</g>
<g id="C">
<path d="M 1313.2 1351 1311.8 1354.4 1306 1368.8 1294.4 1395.8 1292.7 1403.2 1293.7 1420.5 1286.9 1434.4 1285.9 1436.6 1278.5 1453.5 1275.7 1459.9 1270.4 1467.3 1261.8 1479.1 1255 1488.3 1240.3 1503.1 1233.9 1510.8 1225.4 1503.6 1218.2 1508.6 1192.5 1526.2 1179 1535.8 1166 1539.6 1159.9 1543.2 1156.3 1561.1 1154.1 1566.3 1122.3 1580.5 1120.6 1572.8 1119.4 1567.3 1115.9 1559.3 1111.3 1549 1104.9 1534.6 1102.1 1528.4 1099.6 1523.2 1095.2 1514 1092 1505.9 1087.6 1494.5 1086 1490.5 1082.3 1482.7 1077.4 1472.5 1074 1465.3 1088.7 1459.6 1097.6 1456.2 1111.2 1448.8 1124 1441.8 1126.7 1435.8 1147.4 1407.9 1172.7 1383.6 1193.8 1363.4 1202.6 1352.4 1211.9 1368.3 1220.2 1378.6 1225.7 1388.9 1239.5 1386.2 1251.9 1375.9 1254 1369 1252.6 1348.4 1265.8 1350.7 1283.7 1350.9 1291.8 1344 1293.4 1341.6 1299.5 1344.6 1304.7 1347.1 1309.9 1349.5 1313.2 1351 Z" data-holc_grade="C"/>
<path d="M 1529.9 851.9 1542.1 845.3 1593.9 830.2 1631.7 825 1667.1 809.3 1676.7 813.1 1707.3 837.1 1723.6 855.5 1755.4 868.1 1765.3 875 1752.1 889.3 1728.9 905.8 1712.3 920.1 1698.2 947.6 1680.6 978.4 1658.2 1005.3 1642 981.7 1635.1 952.5 1617.7 933.3 1597 911.6 1584.8 902.5 1562.7 887.1 1546.2 874.5 1532.9 864.6 1529.9 851.9 Z" data-holc_grade="C"/>
<path d="M 1334 2033 1312.7 2027.1 1310.7 2026.8 1318.5 2007.3 1329.2 2005.5 1334.9 2003.3 1337.3 1984.2 1341.5 1982.2 1352.2 1964.2 1356.2 1949.2 1337.1 1931 1332.7 1934.9 1332.5 1944.9 1315.9 1962.9 1304.9 1968.8 1292.9 1958.9 1276.1 1970.6 1270.3 1980.2 1262.2 1992.4 1260 1990.1 1254.9 1977.2 1242.7 1958.1 1234.2 1943.1 1219.5 1927.3 1209.6 1926.2 1180.5 1930.6 1154 1937.2 1148.7 1938.7 1144 1940.1 1138 1941.8 1128.6 1944.5 1119.6 1947.5 1111.9 1950 1089.2 1957.4 1072.2 1973.9 1052.7 1992.2 1042 2003.2 1015.5 2019.4 990.5 2036.6 972.8 2054.2 965.1 2065.2 958.1 2073.3 951.8 2081.3 944.4 2089 937.4 2097.1 926 2105.5 910.1 2111.8 906.5 2113.2 899.5 2110.7 895.1 2065.9 898.4 2003.2 913.5 1987 950.4 1962.1 965.5 1950 971 1944.9 986.8 1911.1 1010.4 1884 1026.6 1865.6 1038.8 1857.2 1066 1845.9 1090.7 1831.9 1105 1823.9 1138.9 1812.1 1161 1808.1 1173.9 1809.6 1184.2 1814.7 1187.1 1823.1 1187.5 1853.6 1205.2 1852.5 1216.2 1852.5 1231.3 1858.4 1244.2 1865.3 1253.8 1865.3 1260.8 1862.4 1276.2 1837.5 1291.7 1845.2 1308.3 1855.1 1318.9 1862.4 1331.8 1870.8 1344.7 1878.9 1351 1885.5 1358 1894 1369.4 1909 1380.4 1922.6 1395.9 1950.1 1409.1 1972.1 1421.6 1996.7 1440.8 2031.2 1458.1 2058.3 1472.1 2075.2 1484.2 2086.6 1492.3 2095.7 1502.3 2103.8 1515.5 2112.2 1532.1 2121 1545.7 2135 1536.9 2151.9 1522.9 2172.8 1514.1 2185.3 1503.4 2205.1 1499.3 2215.3 1483.9 2224.5 1450.7 2240.3 1438.2 2245.8 1428.3 2247.6 1422.7 2250.2 1408.7 2235.9 1402.5 2195.9 1399.9 2175.7 1410.2 2156.3 1433.8 2151.5 1437.8 2148.2 1437.8 2138.7 1421.6 2109.3 1413.5 2104.2 1402.5 2096.8 1390.3 2083.3 1372.7 2067.8 1362.7 2055.4 1346.9 2038.9 1334 2033 Z" data-holc_grade="C"/>
<path d="M 1410.7 1836.6 1430 1812.3 1462.2 1774.7 1476 1761.8 1480.4 1757.8 1491.2 1771.3 1508.9 1784.5 1522.2 1791.4 1537.3 1768.8 1549.8 1751.5 1559.7 1746.5 1569.1 1743 1577.6 1744.9 1593.7 1751.2 1612.7 1754 1638.7 1754.2 1667.4 1757.5 1689.7 1758.1 1716.3 1770.5 1743.3 1781.5 1754.1 1787.2 1774.5 1798 1809.9 1813.4 1835.8 1825.5 1861.5 1836.7 1889.7 1850.8 1897.7 1862 1910.9 1889 1917 1899.5 1934.7 1910.5 1944.4 1927.2 1955.7 1945.4 1980 1969.6 1983 1974 1979.2 1983.4 1966.5 1983.6 1931.7 2000.4 1915.7 2006.5 1895 2019.4 1870.7 2031.5 1852.2 2040.6 1834.8 2042.8 1793.3 2045.6 1771.8 2047.2 1774 2059.9 1778.4 2088.2 1785.6 2089.3 1793.1 2113.8 1797.8 2123.2 1798 2144.6 1790.3 2146.8 1775.7 2140.8 1758.8 2133.6 1737.3 2117.7 1717.1 2103.7 1690.3 2075 1667.1 2052.5 1654.7 2039.5 1648.9 2029.9 1638.4 2024.1 1623.2 2015.1 1595.3 1985.9 1563.3 1947.1 1556.1 1940.2 1543.7 1932.3 1531.5 1917.7 1519.7 1909.1 1498.4 1902.8 1474.7 1886.9 1460.9 1874.2 1448.2 1865.9 1440.7 1858.2 1429.4 1850.3 1410.7 1836.6 Z" data-holc_grade="C"/>
<path d="M 906.9 1562.2 902.3 1565.3 892.6 1568.6 888.7 1571.1 892.9 1579.9 896.7 1590.1 899.8 1601.9 901.4 1613.7 900.8 1625.3 907.5 1625.8 913 1628.6 917.7 1632.4 921.3 1638.5 926 1643.4 932 1652.2 937.3 1660.8 939.5 1667.6 939.8 1677 936.2 1686.6 935.6 1690.7 932.6 1698.2 930.1 1710.3 926.2 1718 919 1728.2 899.7 1748.5 893.3 1759 886.2 1770.5 880.4 1780.1 874.6 1796.4 870.7 1801.6 846.4 1825.5 840 1832.7 824.8 1850 798.9 1870.3 805.8 1879.8 800.6 1885.5 794.6 1892 788.2 1898.9 777.1 1905.3 766.6 1911.2 754.6 1918.1 747.9 1922 741.7 1925.6 740.3 1926.4 736.8 1927.3 729 1929.4 718.9 1932.1 708.9 1934.8 704.9 1935.9 696.5 1935 685.5 1933.7 681.7 1933.3 678.4 1946.4 675.4 1958.1 674 1963.8 659.4 1959.7 647.8 1956.1 634.5 1951.1 623.5 1944.8 611.9 1936.6 597 1924.7 574.4 1907.9 556.4 1894.7 536.6 1879 524.1 1871 500.7 1860 483.3 1853.1 468.1 1848.7 456.2 1845.4 446.8 1844.3 432.2 1841 418.7 1839.3 398 1839.9 377 1840.9 365.9 1841.8 341.2 1837.3 336.4 1807.1 340.6 1774.8 341.3 1757.6 353.1 1701.9 353.6 1694.8 368.9 1700.5 389.6 1703.9 420.7 1706 453.1 1710.2 478 1717.1 501.4 1729.5 505.6 1715.7 509.1 1677.9 509.8 1653.8 507.7 1617.4 511.2 1569.9 513.3 1527.3 494.7 1519 491.2 1519 492.6 1502.5 494.7 1494.3 513.3 1470.9 537.5 1440 548.5 1428.3 538.9 1410.4 530.6 1399.4 513.4 1389.8 490.6 1374.6 478.2 1358.1 461.7 1332 456.1 1323 448.6 1308.6 445.1 1285.9 445.1 1262.5 450 1257 485.2 1239.2 521.8 1215.8 552.8 1199.3 620.5 1156.7 655 1134.8 686 1155.4 708.8 1171.9 724 1187.7 733.6 1199.4 750.9 1208.4 766 1226.3 779.1 1235.9 795 1247.6 815.7 1271 827.9 1287.1 816.5 1291.4 808.3 1294.4 797 1298.7 786.9 1302.5 777.8 1305.9 773.2 1307.6 768.7 1307.8 762.9 1308 753.5 1308.3 748.2 1308.5 754.2 1314.2 757.2 1317.1 762.7 1322.3 766 1325.4 770.8 1330 775.1 1334 779.3 1338 781.3 1339.9 784 1342.9 791.3 1351.2 797.6 1358.3 804 1365.5 808.3 1370.3 812.1 1377 815.4 1382.9 819.7 1390.7 824 1398.4 829.2 1407.7 833 1414.3 837.2 1421.7 841.7 1429.7 846.6 1438.3 850.6 1445.3 854.4 1451.9 858.1 1458.4 861.8 1465 864.1 1471.2 867.2 1479.3 870.6 1488.5 874 1497.4 876.3 1503.7 877.5 1506.8 880.5 1512.6 882.4 1516.2 884.4 1519.8 886.3 1523.4 889.2 1528.8 893.4 1536.7 897.8 1545 903.3 1555.4 906.9 1562.2 Z" data-holc_grade="C"/>
<path d="M 1386.3 1046 1382 1050.6 1365.3 1059.8 1338.9 1067.8 1325.1 1075.8 1296.9 1083.8 1279.7 1091.3 1261.8 1094.1 1250.9 1101.6 1236 1107.9 1213.5 1115.3 1191.7 1123.9 1181.3 1126.8 1148 1172 1106 1146.3 1077.8 1127.3 1054.8 1110.1 1049.7 1101 1053.2 1085.3 1032.5 1062.5 1020.1 1052 1014.6 1044.8 1003 1024.8 988.4 999.2 975.9 976.9 971 971.4 964.9 973.1 961.6 985.7 951.9 1002.2 932.6 1015.7 911.9 1023.4 905.3 1021.7 889.8 1060.8 908.6 1083.9 941.9 1122.4 957.7 1136.7 969.3 1140.5 985.5 1147.7 993.5 1158.4 1012.3 1180.1 1034.1 1204.6 1044.3 1219.5 1054.2 1239.3 1063.6 1253.3 1068.9 1263.6 1070.6 1273 1074 1284.6 1077.5 1296 1077.9 1300.9 1079 1313.5 1079.8 1323 1080.2 1327.6 1083 1340.2 1085.3 1350.6 1088.6 1357.3 1092.3 1365.1 1098.2 1377.2 1103.2 1387.6 1108.8 1399 1117.1 1416.1 1126.7 1435.8 1124 1441.8 1111.2 1448.8 1097.6 1456.2 1088.7 1459.6 1074 1465.3 1068.2 1449.3 1057.3 1425.2 1048.7 1405.7 1041.2 1388 1028 1359.3 1021.7 1343.8 1013 1329.5 1007.3 1316.3 994.7 1293.4 983.7 1298 979.7 1272.6 977.2 1259.6 968.9 1241.5 954.5 1220.1 937.9 1200.7 932.4 1199.5 928.9 1200.7 919 1208.7 898.6 1229.1 854.2 1222.4 835.5 1223.1 802.6 1224.7 773.7 1177.4 775.8 1166 781.1 1155.4 791.6 1140.3 802.9 1125.2 814.4 1101.8 819 1091.3 825 1086.3 837.2 1075.3 841.9 1069.1 845.3 1064.5 852.4 1055 859 1046.3 864.2 1039.4 868.2 1034.1 866.1 1029.9 864.5 1026.7 860.8 1019.2 859.8 1016.4 857.4 1009.5 855 1002.6 851.6 995.4 848.2 988.2 844.1 979.6 842.5 976 839.7 969.3 837.1 963.4 835.5 959.6 834.6 953.8 833.8 948.4 833.2 944.2 832.3 938.1 831.5 932.7 835.1 922.9 838.4 914.3 836.1 906.3 841.6 901.8 856.5 897.7 871.7 900.2 888.5 906.2 911.1 917.5 936.8 932.9 958.8 943.9 961.9 938.7 985.4 886.5 990.9 878.2 1002.2 854 1007.2 857.6 1015.2 879 1034.7 918.6 1046 940.9 1064.7 980.7 1091.7 957.2 1137.7 913.7 1161.8 891.3 1197.5 899.4 1243.5 937.2 1292.3 975 1332 1006.5 1350.4 1016.8 1388.9 1043.2 1386.3 1046 Z" data-holc_grade="C"/>
<path d="M 1480.4 1757.8 1476 1761.8 1462.2 1774.7 1430 1812.3 1410.7 1836.6 1400.1 1828.8 1390 1810.9 1378.9 1802.6 1372.5 1791.6 1360.1 1773.8 1359.6 1765 1364.7 1757.7 1368.2 1752.2 1376.9 1742.3 1387.4 1730.6 1396.7 1720.1 1395.4 1716.7 1392.3 1708.4 1391.2 1705.3 1388 1696.7 1380.3 1693.4 1371.4 1689.4 1360.2 1684.5 1347 1678.8 1334.6 1673.3 1328.1 1671.9 1315.7 1669.2 1298.8 1663.4 1283.5 1658.2 1278.7 1657 1268.6 1654.6 1255.8 1651.5 1242.1 1648.1 1237.6 1648.3 1220.6 1649.2 1196.1 1650.4 1179.2 1649 1136.4 1644.9 1104.2 1638.9 1109.8 1617.8 1117.1 1610.5 1145.2 1600 1189.8 1585.3 1189.4 1572 1207.3 1555.5 1209.2 1550 1214.2 1545 1229.9 1534.4 1242.8 1522 1233.9 1510.8 1240.3 1503.1 1255 1488.3 1250.9 1522.7 1248.6 1563.1 1267.9 1568.1 1283.5 1568.1 1297.8 1615.3 1290.9 1631.8 1328.6 1645.1 1370.5 1660.3 1392.1 1671.3 1397.7 1627.7 1407.3 1605.3 1405 1582.3 1413.5 1581.5 1417.1 1581.2 1418.7 1581 1420.9 1580.8 1422.6 1580.6 1424.5 1580.4 1433.2 1579.4 1434.3 1573.9 1435.1 1570.2 1432.8 1565.7 1429.1 1558.7 1426.5 1554 1423.1 1547.7 1426.3 1540.9 1429.8 1540.3 1433.5 1539.8 1435.5 1539.5 1443.3 1539.6 1450.5 1539.8 1457.2 1539.9 1469.6 1539 1471.2 1537 1474.6 1532.6 1478.8 1527.6 1483.5 1527.9 1490.3 1528.5 1523.4 1528.5 1570.8 1528.5 1586.9 1530.8 1599.8 1534.9 1603 1545.4 1604.9 1561.9 1599.8 1578.9 1587.8 1605.5 1573.1 1635.8 1551 1674.7 1522.5 1716.9 1508.2 1730.2 1491.7 1744.4 1483.8 1754.5 1480.4 1757.8 Z" data-holc_grade="C"/>
<path d="M 610.1 2317.4 626.7 2334 639.2 2340.9 652.4 2343.9 682.6 2345.7 689.3 2358.9 694.4 2382.1 694.8 2397.1 677.1 2414 658.3 2432.3 652.8 2445.2 650.5 2458.7 649.1 2465 630.3 2473.4 605.2 2484.4 585.3 2501.6 566.2 2517.8 553.3 2524.4 531.9 2486.2 536 2474.8 543.7 2438.9 562.5 2412.1 580.6 2391.2 594.6 2374.7 607.1 2327.3 610.1 2317.4 Z" data-holc_grade="C"/>
<path d="M 1877 2682.1 1748.3 2684.4 1741.6 2670.3 1747.2 2597.7 1761.9 2546.9 1785.2 2475.6 1822.8 2372.8 1865 2381.8 1898.8 2403.4 1889.9 2426.8 1874.6 2490.4 1868.7 2530 1861.9 2611.3 1863.2 2642.2 1877 2682.1 Z M 2300.6 1817.8 2311.4 1828.9 2337.8 1823.5 2382.9 1864.3 2348.1 1938.6 2335.9 1968.6 2311.8 2028.1 2263.7 2085.8 2207.3 2150.2 2250.8 2202.2 2178.2 2251.1 2103.3 2293.8 2085.6 2311.8 2070.6 2301.1 2055.3 2275.7 2047.2 2268 2028.6 2254.9 2002.9 2246.1 1966.9 2240.7 1936.5 2212.5 1939.8 2206.6 1949.1 2196.5 1952.5 2162 1962.6 2144.8 2012.3 2102.9 2024.8 2074.6 2048.9 2036.3 2070 2009.7 2113.6 1947 2147.8 1890.3 2255.1 1740 2280.1 1763 2300.6 1817.8 Z" data-holc_grade="C"/>
<path d="M 2945.9 419.2 2916.2 430.8 2890.6 364.4 2867.4 314 2921.7 282.1 2960.2 328.9 2999 370.8 2945.9 419.2 Z M 2746.4 286 2554 398 2525.1 352.6 2508.3 335.9 2472.9 320.8 2458 163.4 2452.4 76.4 2525.6 32.2 2607.9 3.7 2644.1 1 2658 18.3 2660.9 38.8 2687.6 102 2737 212.5 2743.5 232.6 2738.2 263.6 2746.4 286 Z" data-holc_grade="C"/>
</g>
<g id="D">
<path d="M 353.6 1694.8 353.1 1701.9 341.3 1757.6 340.6 1774.8 336.4 1807.1 341.2 1837.3 330.2 1833.9 306.7 1818.7 284.7 1786.4 272.9 1765.1 255 1733.4 237.8 1715.5 229.5 1701.8 219.2 1696.9 190.2 1697.6 168.8 1700.3 152.2 1707.9 133.5 1718.2 119 1732.6 110.1 1747.7 103.8 1756 94.9 1767.7 87.2 1789 85.1 1816.5 87.9 1838.5 89.9 1862.6 95.4 1904.6 100.2 1932.1 116.1 1968.5 126.4 1990.6 119.5 2013.3 109.1 2030.4 96.7 2055.9 71.2 2032.5 44.9 2011.1 2.9 1976.7 16 1958.1 22.2 1945.8 29.1 1929.9 36 1912.8 42.3 1894.9 57.5 1858.4 67.9 1839.2 58.2 1830.2 49.9 1817.8 41 1803.4 1 1742.2 8 1680.9 30.1 1675.5 34.2 1691.3 40.4 1716.7 45.2 1739.4 60.4 1718.8 77.7 1699.6 90.1 1685.8 111.5 1674.9 127.4 1671.4 148.8 1663.9 168.1 1663.2 188.8 1664.6 205.4 1666.7 219.2 1668.1 240.6 1668.1 266.1 1670.8 286.8 1675.7 313 1677.8 339.3 1681.2 354.4 1684.7 353.6 1694.8 Z" data-holc_grade="D"/>
<path d="M 906.9 1562.2 903.3 1555.4 897.8 1545 893.4 1536.7 889.2 1528.8 886.3 1523.4 884.4 1519.8 882.4 1516.2 880.5 1512.6 877.5 1506.8 876.3 1503.7 874 1497.4 870.6 1488.5 867.2 1479.3 864.1 1471.2 861.8 1465 858.1 1458.4 854.4 1451.9 850.6 1445.3 846.6 1438.3 841.7 1429.7 837.2 1421.7 833 1414.3 829.2 1407.7 824 1398.4 819.7 1390.7 815.4 1382.9 812.1 1377 808.3 1370.3 804 1365.5 797.6 1358.3 791.3 1351.2 784 1342.9 781.3 1339.9 779.3 1338 775.1 1334 770.8 1330 766 1325.4 762.7 1322.3 757.2 1317.1 754.2 1314.2 748.2 1308.5 753.5 1308.3 762.9 1308 768.7 1307.8 773.2 1307.6 777.8 1305.9 786.9 1302.5 797 1298.7 808.3 1294.4 816.5 1291.4 827.9 1287.1 843.3 1311.7 863.3 1354.9 890.7 1418.4 905.4 1451.4 909.5 1461.7 893.3 1468.1 893.3 1472.3 910.8 1494.9 904.3 1516.1 906.2 1532.1 924.9 1551.3 922.7 1555.9 906.9 1562.2 Z" data-holc_grade="D"/>
<path d="M 1074 1465.3 1077.4 1472.5 1082.3 1482.7 1086 1490.5 1087.6 1494.5 1092 1505.9 1095.2 1514 1099.6 1523.2 1102.1 1528.4 1104.9 1534.6 1111.3 1549 1115.9 1559.3 1119.4 1567.3 1120.6 1572.8 1122.3 1580.5 1110.2 1588.5 1088.9 1592 1068.2 1594.8 1042.3 1597.1 1033.1 1551.8 1009.6 1458.4 1000.4 1430.3 982.5 1436.6 973.9 1417.7 973.9 1398.3 977.4 1375.3 979.7 1350.7 983.7 1298 994.7 1293.4 1007.3 1316.3 1013 1329.5 1021.7 1343.8 1028 1359.3 1041.2 1388 1048.7 1405.7 1057.3 1425.2 1068.2 1449.3 1074 1465.3 Z" data-holc_grade="D"/>
<path d="M 674 1963.8 675.4 1958.1 678.4 1946.4 681.7 1933.3 685.5 1933.7 696.5 1935 704.9 1935.9 708.9 1934.8 718.9 1932.1 729 1929.4 736.8 1927.3 740.3 1926.4 741.7 1925.6 747.9 1922 754.6 1918.1 766.6 1911.2 777.1 1905.3 788.2 1898.9 794.6 1892 800.6 1885.5 805.8 1879.8 817.3 1885 837.9 1867 860.3 1846.8 877.3 1835.8 898.6 1831.4 917.8 1824.5 944.3 1817.5 946.5 1821.2 928.1 1835.8 913.4 1845 888.7 1870.3 873.6 1885.3 854.1 1902.2 837.1 1914.7 822.4 1926.8 810.6 1938.9 786.3 1951.3 753.2 1958.3 731.4 1963.4 709.3 1969.3 674 1963.8 Z" data-holc_grade="D"/>
<path d="M 958 1703.1 976.4 1712.2 988.1 1732.1 995.1 1755.9 987.4 1767.6 979.6 1776.8 970.1 1783.8 952 1791.1 936.6 1795.5 915.2 1799.5 899.4 1806.1 895 1805.7 902.3 1777.5 915.2 1761.7 929.6 1747.1 942.1 1726.9 958 1703.1 Z" data-holc_grade="D"/>
<path d="M 1368.2 1752.2 1356.2 1732 1334.1 1717.4 1299.2 1706.8 1206.7 1699 1203.9 1687.5 1196.1 1650.4 1220.6 1649.2 1237.6 1648.3 1242.1 1648.1 1255.8 1651.5 1268.6 1654.6 1278.7 1657 1283.5 1658.2 1298.8 1663.4 1315.7 1669.2 1328.1 1671.9 1334.6 1673.3 1347 1678.8 1360.2 1684.5 1371.4 1689.4 1380.3 1693.4 1388 1696.7 1391.2 1705.3 1392.3 1708.4 1395.4 1716.7 1396.7 1720.1 1387.4 1730.6 1376.9 1742.3 1368.2 1752.2 Z" data-holc_grade="D"/>
<path d="M 790.1 2179.7 788 2203.1 783.5 2232.1 782.1 2254.1 783.1 2274.3 781.2 2283.7 772.7 2290.9 763.5 2295.2 754.2 2296.5 743.9 2295.8 736.2 2292.6 730 2288.6 721.7 2278.3 715.7 2264.4 711.6 2252.6 704 2240.7 693.9 2226.7 684.2 2213.4 703 2186.4 716.6 2164.5 730.8 2152.3 762.7 2133.5 791.8 2110.5 819.2 2089.6 816.6 2150.5 807.4 2156.2 798.3 2161.9 792.7 2172.3 790.1 2179.7 Z" data-holc_grade="D"/>
<path d="M 1441.8 2323.8 1466.9 2315.4 1493.4 2311.7 1556.6 2339.8 1543.9 2361.6 1525.6 2373.9 1491.2 2382.7 1463.2 2374.3 1449.2 2359.8 1441.8 2323.8 Z" data-holc_grade="D"/>
</g>
</svg>