<?xml version="1.0"?>
<svg xmlns="http://www.w3.org/2000/svg" version="1.2" baseProfile="tiny" width="3000" height="3132" viewBox="0 0 3000 3132" stroke-linecap="round" stroke-linejoin="round">
<g id="C">
<path d="M 2339.1 2754.7 2431 2878.1 2321.9 2886.2 2323.1 2969.6 2076 2975.4 1950.8 2984.6 1777.3 2981.2 1761.2 2959.5 1739.4 2824.6 1764.6 2713.7 1799.1 2716 1885.3 2744.5 1953 2563.9 1978.3 2569.6 1920.9 2748 2096.7 2817.6 2093.2 2825.6 2150.7 2845.1 2248.3 2806.2 2309.2 2760.4 2339.1 2754.7 Z" data-holc_grade="C"/>
<path d="M 2521.3 2582.5 2506.5 2583.1 2454.8 2601.4 2430.1 2574.1 2422.9 2562.1 2394.2 2558.6 2391.7 2383.6 2391.7 2308.6 2400.1 2282.4 2397.7 2244.3 2298.4 2245.5 2299.5 2092 2312.7 2092 2321 2100.3 2333 2112.2 2352.1 2106.2 2365.3 2105 2383.3 2112.2 2397.6 2100.3 2402.4 2078.8 2420.3 2066.9 2420.3 2050.3 2415.5 2032.4 2426.3 2001.5 2440.6 1991.9 2461 2002.6 2486.1 2003.8 2500.5 1996.7 2516 2001.4 2531.6 2028.8 2530.4 2044.3 2525.6 2069.3 2535.2 2109.7 2555.6 2140.7 2584.3 2145.4 2627.3 2109.7 2633.4 2284.7 2694.4 2285.8 2696.8 2337 2684.9 2358.5 2610.7 2359.7 2609.5 2440.6 2548.5 2450.2 2517.4 2424 2521.3 2582.5 Z" data-holc_grade="C"/>
<path d="M 2741.1 2131.3 2825.4 2102.1 2893 2102.1 2942.7 2095.5 2991.7 2137.7 2995.4 2243.1 2969.1 2270.5 2955.3 2270.5 2954.7 2283 2892.5 2285.4 2744.7 2226.5 2741.1 2131.3 Z" data-holc_grade="C"/>
<path d="M 2109.3 2170.1 2037.2 2159.2 2015.7 2150.7 2002.2 2135.8 1993.5 2118.4 1994.4 2108.1 1987.8 2096.7 1985.5 2088.1 1990.7 2066.7 1996.1 2044.4 2001.3 2028.4 2009.3 2016.7 2012.8 2011.8 2022.2 2012.1 2027.4 2003.2 2040.9 1992.7 2051.8 1990.1 2075.9 1992.4 2086.3 2000.4 2101.8 2030.7 2102.9 2046.9 2118.7 2045.5 2145.1 2053.8 2109.3 2170.1 Z" data-holc_grade="C"/>
<path d="M 2440.6 1991.9 2426.3 2001.5 2415.5 2032.4 2407.1 2038 2387.4 2092.7 2333.5 2075.5 2331.6 2069.1 2301.8 1970.2 2272.4 1907.7 2252.7 1888 2242.4 1884.2 2112.7 1835.7 2129.5 1795.8 2103.1 1806 2064.9 1800 1638.4 1654.3 1497.8 1596.6 1485.9 1622.2 1420.1 1612 1377.6 1597.8 1301.7 1559.1 1267 1536.5 1217.4 1502.5 1314.2 1356.2 1329.8 1367.5 1337.6 1358 1363.9 1380 1377 1360.4 1441.6 1399 1453 1398.4 1480.5 1405 1518.8 1430 1668.3 1486.5 1661.7 1503.2 1670.1 1506.1 1661.1 1532.3 1674.3 1536.5 1661.1 1567.4 1862.7 1648.9 1993 1410.9 2096.5 1445.4 2121.6 1490.6 2111.4 1520.9 2124.6 1525.7 2113.8 1557.2 2174.8 1579.8 2182.6 1587 2219.7 1610.7 2328.6 1647.6 2352.5 1657.7 2371.6 1671.4 2477.6 1874.3 2475.8 1898.1 2487.2 1905.8 2467.5 1967.1 2448.3 1968.3 2440.6 1991.9 Z" data-holc_grade="C"/>
<path d="M 1650.7 2225.5 1626.9 2284.5 1596.3 2277.3 1652.5 2114.2 1684.2 2126.7 1675.2 2155.9 1702.1 2166.6 1683.6 2223.7 1657.9 2216 1650.7 2225.5 Z" data-holc_grade="C"/>
<path d="M 891.2 1574.6 727.5 1807.8 753.4 1832.6 738.6 1855.3 663.9 1810.9 678.2 1787.4 653.1 1769.5 617.2 1811.6 517.5 1743.7 722.1 1451.1 891.2 1574.6 Z" data-holc_grade="C"/>
<path d="M 699.3 2496.3 646 2655.4 750.4 2693.6 705.3 2836.4 574.2 2791.6 607.7 2682.1 564.6 2665.9 581.9 2609.7 510.1 2585.9 552.2 2439.1 699.3 2496.3 Z" data-holc_grade="C"/>
<path d="M 897.3 2896.7 1017.9 2937.9 1039.8 2879.6 1066.2 2830.5 1074.3 2799.6 951.3 2753.9 1003.1 2573.3 1038.7 2569.9 1132.9 2609.9 1095 2735.6 1227.1 2783.6 1204.1 2877.4 1190.3 2875.1 1166.2 2913.9 1122.5 3020.3 1016.8 3067.1 980 3053.4 983.5 3039.7 866.3 3005.3 897.3 2896.7 Z" data-holc_grade="C"/>
<path d="M 2319.7 1105.6 2443.1 1104.1 2454.8 1488.2 2513.6 1495.3 2516.5 1566.7 2331.3 1432.6 2319.7 1105.6 Z" data-holc_grade="C"/>
<path d="M 2639.7 1260.4 2616.8 1259.7 2608.2 1228.3 2555.1 1225.4 2555.1 1151.2 2580.9 1145.5 2611.1 1158.3 2602.4 991.3 2833.4 1035.4 2833.5 1112.5 2767.5 1112.5 2771.8 1176.8 2635.5 1182.6 2639.7 1260.4 Z" data-holc_grade="C"/>
<path d="M 1788.3 950.2 1793.9 614.6 2037.8 611.7 2036.5 820.1 2423.9 814.3 2428.2 974.2 2314.9 957.1 2314.8 864.3 2230.2 861.5 2233.2 1315.5 2184.4 1318.4 2188.7 1416.9 2145.7 1415.5 2121.3 1377 2105.4 1081.4 1914.5 1082.9 1914.5 1125.7 1785.4 1122.9 1788.3 950.2 Z" data-holc_grade="C"/>
<path d="M 1484.3 651.8 1475.4 656.6 1476.6 714.8 1270 720.5 1273.4 550.4 1264.7 404.4 1252.7 366.3 1246.8 337.8 1261.1 312.8 1338.8 314 1342.4 473.4 1337.6 493.6 1342.4 524.5 1348.4 562.6 1482.3 566.2 1488.2 631.6 1484.3 651.8 Z" data-holc_grade="C"/>
<path d="M 1173.5 703.3 1173.5 887.3 1018.5 953.5 1020.6 918.1 974.7 915.2 865.6 966.6 831.2 900.9 815.4 906.6 770.9 949.5 749.4 928 723.5 942.3 725 1019.4 555.6 1012.2 555.7 949.4 491.1 947.9 491.1 960.8 361.9 959.3 362 895 395 893.6 399.3 850.8 420.8 853.7 418 825.1 418 809.4 443.8 812.3 462.4 812.3 469.6 803.7 472.5 788 482.5 780.9 491.2 772.3 504.1 763.8 517 758.1 532.8 746.6 551.4 746.7 581.6 748.1 597.3 759.5 618.9 761 614.6 732.4 611.7 681 616.1 565.4 629 566.8 680.2 610.4 727.9 651.1 755.2 709.6 837 681.1 868.6 576.9 854.8 554.3 848.5 544 822.7 502.6 781.1 472.7 769.6 515.5 733.7 495.5 713.7 491.2 682.1 471.2 682.2 454.8 674.3 446.2 671.4 417.7 682.9 421.9 695.1 403.4 693.7 361.3 654.2 361.3 657.1 382.7 657.8 389.8 652.1 400.5 646.3 409.8 643.5 416.9 643.4 424.1 649.9 431.2 653.5 442.6 650.6 450.5 648.5 460.5 650.6 464 656.3 465.5 664.2 465.5 667.1 467.6 668.5 475.5 672.1 481.2 680 484 686.5 488.3 686.5 507.6 658.5 506.9 656.3 529.7 619 529.7 617.6 540.4 607.9 540.3 476.3 539.6 475.6 435.4 495 433.3 491.4 292.7 467.8 292 465.6 211.3 486.4 211.3 490 197.1 490.1 135 472.9 120 467.2 58.6 514.5 57.9 523 191.4 574.7 190 577.5 205 581.8 217.1 581.8 229.2 581.8 249.2 581.8 256.3 583.3 267.8 586.8 279.2 598.3 298.4 611.9 319.9 693.7 317 702.3 322 703.7 395.5 789.1 467.7 790.5 443.4 745.3 372 837.9 364.2 908.4 319.7 920.4 312.1 909.7 3.8 1028.7 1 1039.5 30.3 1045.2 66.7 1055.9 354.2 1050.2 360 1045.8 726.8 1084.5 729.7 1098.9 709 1120.4 685.4 1137.6 650.5 1157.7 703.3 1173.5 703.3 Z" data-holc_grade="C"/>
<path d="M 370.8 345.3 294.4 245.3 295.2 516.5 213.9 515.5 218.5 782.9 222.1 889.9 210.6 887 190.6 887 179.1 892.7 172.4 895.5 169.5 906 164.7 910.8 154.2 916.5 129.3 906.9 117.8 899.3 98.7 898.3 81.5 892.6 75.8 879.3 53.8 862.2 45.2 862.1 48 892.6 9.7 893.5 10.7 967.8 1.1 958.2 3.3 536.6 168.8 532 172.8 190.4 62.8 194.1 61.8 280.7 2.5 280.7 2.7 24.7 312.5 24.9 346.9 46.8 409.1 45.9 414.7 221.9 362.1 221.9 370.8 345.3 Z" data-holc_grade="C"/>
</g>
<g id="B">
<path d="M 2323.1 2969.6 2321.9 2886.2 2431 2878.1 2339.1 2754.7 2366.4 2735.1 2384.8 2731.7 2398.6 2730.6 2413.5 2723.7 2435.3 2731.7 2449.1 2734 2454.8 2601.4 2506.5 2583.1 2521.3 2582.5 2651.2 2577.3 2652.4 2596.7 2767.4 2739.5 2771.9 2745.2 2786.9 2751 2792.6 2777.2 2770.8 2804.7 2765.1 2821.8 2765.1 2837.8 2724.9 2873.3 2705.4 2872.2 2693.9 2865.3 2679 2866.5 2647.9 2893.9 2626.1 2913.4 2631.9 2924.8 2639.9 2938.5 2680.2 2964.8 2689.3 2951.1 2693.9 2961.3 2708.9 2976.2 2714.6 2988.8 2703.2 3001.3 2695.1 3010.5 2700.9 3024.2 2697.4 3036.8 2683.6 3049.4 2677.9 3063.1 2672.2 3082.5 2656.1 3083.7 2635.4 3090.5 2623.9 3099.7 2615.9 3111.1 2597.5 3115.7 2575.7 3098.6 2550.4 3096.3 2541.2 3103.2 2527.4 3118 2506.7 3130.6 2486 3126.1 2471.1 3111.2 2464.2 3099.8 2450.4 3099.8 2438.9 3099.8 2426.3 3105.5 2422.8 3070.1 2433.2 3044.9 2428.5 2972.9 2323.1 2969.6 Z" data-holc_grade="B"/>
<path d="M 2391.7 2383.6 2259 2384.3 2256 2350.4 2296.1 2316.5 2298.4 2245.5 2397.7 2244.3 2400.1 2282.4 2391.7 2308.6 2391.7 2383.6 Z" data-holc_grade="B"/>
<path d="M 2331.6 2069.1 2302.4 2078.5 2259.3 1991.6 2227 1941.6 2242.4 1884.2 2252.7 1888 2272.4 1907.7 2301.8 1970.2 2331.6 2069.1 Z" data-holc_grade="B"/>
<path d="M 1569.9 2358.8 1665.1 2386.2 1665.7 2397.5 1650.1 2391 1642.3 2411.8 1689.6 2423.7 1668.1 2477.9 1592.1 2458.2 1541.2 2432.1 1569.9 2358.8 Z" data-holc_grade="B"/>
<path d="M 1626.9 2284.5 1650.7 2225.5 1669.2 2270.7 1647.1 2335.6 1605.2 2338 1626.9 2284.5 Z" data-holc_grade="B"/>
<path d="M 1263.5 1768.9 1302.7 1656.6 1408 1695.6 1426.1 1645.2 1627.1 1715.6 1567.8 1803.2 1754.4 1871.8 1743.9 1909.8 1704.6 1899.4 1678.8 1940.3 1667.3 1933.7 1621.4 1987.9 1634.8 1991.7 1613.7 2057.5 1563 2037.5 1497 2102.2 1395.5 2031.7 1437.6 1910.8 1277.8 1850.8 1299.8 1784.2 1263.5 1768.9 Z" data-holc_grade="B"/>
<path d="M 951.3 2753.9 1074.3 2799.6 1066.2 2830.5 1039.8 2879.6 1017.9 2937.9 897.3 2896.7 951.3 2753.9 Z" data-holc_grade="B"/>
<path d="M 908.4 319.7 837.9 364.2 745.3 372 662.2 250.1 690.9 249.4 690.9 230.8 904.6 230.9 908.4 319.7 Z" data-holc_grade="B"/>
<path d="M 476.3 539.6 607.9 540.3 616.1 565.4 611.7 681 614.6 732.4 618.9 761 597.3 759.5 581.6 748.1 551.4 746.7 532.8 746.6 517 758.1 504.1 763.8 469.2 747.8 429 773.5 352.4 768.7 350.5 787.8 218.5 782.9 213.9 515.5 295.2 516.5 294.4 245.3 370.8 345.3 373.6 537.5 476.3 539.6 Z" data-holc_grade="B"/>
<path d="M 3.3 536.6 2.5 280.7 61.8 280.7 62.8 194.1 172.8 190.4 168.8 532 3.3 536.6 Z" data-holc_grade="B"/>
<path d="M 413.7 1691.6 417 1598.8 194.5 1598.7 155.1 1521.4 31.8 1583.2 62.9 1637.9 3.1 1639.1 3.2 1402.3 59.5 1397.7 64.1 1321.2 3.3 1322.3 1 1265.2 13.6 1261.8 24 1250.4 30.9 1224.1 43.5 1224.1 46.9 1310.9 269.6 1299.6 353.5 1300.8 356.8 1436.8 480.8 1426.5 492.3 1411.7 569.2 1468.8 413.7 1691.6 Z" data-holc_grade="B"/>
</g>
<g id="D">
<path d="M 738.6 1855.3 753.4 1832.6 727.5 1807.8 891.2 1574.6 973.5 1627 909.4 1706 906.5 1789.8 917 1763.2 970.6 1776.5 980.2 1741.3 1014.6 1751.8 1049.1 1770.8 1072.1 1736.5 1051 1716.5 1074 1690.8 1106.5 1715.6 1263.5 1768.9 1170.6 2045.1 1067.2 2012.7 1047.1 2063.1 961 2038.3 914.1 2173.6 890.1 2164 931.3 2040.2 846.1 2010.7 838.5 2019.3 695.9 1921.1 738.6 1855.3 Z" data-holc_grade="D"/>
<path d="M 2924 1256.7 2979.9 1255.2 2999 1889.3 2937.3 1893.6 2924 1256.7 Z" data-holc_grade="D"/>
<path d="M 2639.7 1260.4 2743.1 1263.9 2752 1735.1 2627.1 1633.8 2616.8 1259.7 2639.7 1260.4 Z" data-holc_grade="D"/>
<path d="M 1018.5 953.5 1173.5 887.3 1173.5 703.3 1173.6 550.4 1273.4 550.4 1270 720.5 1476.6 714.8 1475.4 656.6 1484.3 651.8 1528.2 628 1523.6 517.3 1489.2 516.1 1484.6 399.6 1524.8 399.6 1529.4 505.8 1530.1 515.3 1540.4 515 1559.5 518.8 1638.7 518 1640.7 641.3 1597.4 661.9 1598.6 680.5 1709.5 676.7 1708.8 640.6 1788 600.2 1793.9 614.6 1788.3 950.2 1566.1 954.7 1570.7 1100.9 1182.7 1111.1 1149.4 1102 1117.2 1082.6 1085.1 1080.3 1064.4 1078 1016.2 1095.1 1018.5 953.5 Z" data-holc_grade="D"/>
<path d="M 680.2 610.4 727.3 555.6 782.6 599.1 786.1 596.3 786.1 587 791.9 583.4 804.1 582 812.7 572 819.9 556.3 854.8 554.3 868.6 576.9 837 681.1 755.2 709.6 727.9 651.1 680.2 610.4 Z" data-holc_grade="D"/>
<path d="M 555.6 1012.2 492.4 1014.8 491.1 960.8 491.1 947.9 555.7 949.4 555.6 1012.2 Z" data-holc_grade="D"/>
<path d="M 569.2 1468.8 492.3 1411.7 480.8 1426.5 356.8 1436.8 353.5 1300.8 423.4 1298.2 430.5 1261.3 434.1 1230.4 453.3 1199.4 472.4 1185.2 496.4 1194.7 513.1 1237.6 588.4 1240 605.2 1274.5 614.7 1274.5 673.3 1317.3 569.2 1468.8 Z" data-holc_grade="D"/>
<path d="M 608.8 1082.9 613.6 1173.3 472.4 1173.3 459.3 1157.8 443.7 1156.6 443.8 1140 425.8 1141.1 418.6 1132.8 409.1 1132.8 403.1 1061.4 608.8 1082.9 Z" data-holc_grade="D"/>
<path d="M 14.4 1211.1 12 1162.3 4.9 1154 4.9 1014.8 230.9 1041.1 226.1 1136.3 148.4 1144.6 128 1133.8 126.9 1110 114.9 1102.9 94.6 1121.9 79 1146.9 71.8 1170.7 87.3 1210 14.4 1211.1 Z" data-holc_grade="D"/>
<path d="M 1243.5 235.7 1241.1 25.8 1477.8 23.4 1478.4 148.9 1331.3 151.3 1334.9 239.9 1243.5 235.7 Z" data-holc_grade="D"/>
</g>
<g id="A">
<path d="M 738.6 1855.3 695.9 1921.1 838.5 2019.3 748.4 2147 779.4 2168.3 762.5 2220.9 854.4 2258.6 822.6 2346.2 810.7 2356.1 721.1 2335.5 651.5 2286.4 633.8 2310.8 635.4 2316.5 644.6 2333.2 646.5 2345 648.8 2360.3 646.5 2383.1 657.9 2411.7 668.3 2422 674 2410.6 688.9 2402.6 695.8 2398 701.6 2386.6 720 2387.7 730.3 2404.9 699.3 2496.3 552.2 2439.1 629.2 2315.7 615.5 2305.4 595.9 2299.7 579.9 2299.7 575.3 2302 578.7 2312.3 569.5 2319.1 559.2 2315.7 544.2 2314.5 530.5 2324.8 508.6 2343.1 486.8 2348.8 470.7 2344.2 453.5 2333.9 438.6 2322.5 414.4 2315.6 445.5 2207.1 353.6 2163.6 314.6 2141.9 268.7 2111 517.5 1743.7 617.2 1811.6 653.1 1769.5 678.2 1787.4 663.9 1810.9 738.6 1855.3 Z" data-holc_grade="A"/>
<path d="M 182.9 2767.5 111.1 2749.4 123.6 2709.4 132.2 2677.9 135.1 2642.7 137 2627.5 175.4 2530.3 201.3 2440.8 263.5 2459.9 220.4 2595.1 203.1 2695.1 182.9 2767.5 Z" data-holc_grade="A"/>
<path d="M 413.7 1691.6 409.7 1804.7 176.2 2148.6 109.2 2109.3 74.6 2109.3 2.7 2144.9 3.1 1639.1 62.9 1637.9 31.8 1583.2 155.1 1521.4 194.5 1598.7 417 1598.8 413.7 1691.6 Z" data-holc_grade="A"/>
<path d="M 353.5 1300.8 269.6 1299.6 262.8 1225.4 276.6 1220.8 305.3 1209.4 346.6 1208.3 353.5 1300.8 Z" data-holc_grade="A"/>
</g>
</svg>