<?xml version="1.0"?>
<svg xmlns="http://www.w3.org/2000/svg" version="1.2" baseProfile="tiny" width="3000" height="3863" viewBox="0 0 3000 3863" stroke-linecap="round" stroke-linejoin="round">
<g id="B">
<path d="M 287.8 1115.2 181.3 1043.3 216.6 962.1 282.2 870.4 297 850.1 311.9 837.2 317.5 816.9 318.7 780 320 751.6 322.5 720.9 328.7 688.3 331.2 669.2 342.3 660.6 457.8 731.4 393.4 845.3 350.1 944.9 306.8 1062.5 287.8 1115.2 Z" data-holc_grade="B"/>
<path d="M 565.6 910.3 532.7 882.3 503.8 919.2 489 911 404.1 1025.1 337.3 1125.1 314.1 1174.4 302.6 1169.4 310.9 1152.2 285.3 1137.4 291.1 1119.4 287.8 1115.2 306.8 1062.5 350.1 944.9 393.4 845.3 457.8 731.4 601 832.5 618.3 863.9 613.4 903.9 605.3 927.9 576.9 907.5 565.6 910.3 Z" data-holc_grade="B"/>
<path d="M 2798.3 195.3 2745.9 293.2 2669.9 249.6 2718 154.8 2798.3 195.3 Z" data-holc_grade="B"/>
<path d="M 2828.4 482.9 2714.5 415 2705.8 422.4 2696.5 417.6 2761.9 302.4 2799 322.7 2818.2 333.7 2842.9 346 2871.3 359.5 2893.6 371.8 2883.7 395.8 2879.4 422.3 2881.9 440.7 2873.9 453 2852.9 450.6 2832.5 471.5 2828.4 482.9 Z" data-holc_grade="B"/>
<path d="M 2617.2 920.3 2611.1 931.4 2597.5 955.4 2586.4 971.5 2575.9 985.6 2562.9 1016.4 2552.4 1028.7 2543.2 1023.8 2537 1031.8 2535.1 1046.6 2522.2 1063.8 2511.1 1079.2 2501.8 1097.7 2496.9 1094 2501.8 1066.9 2504.8 1005.4 2512.2 990 2527.1 983.8 2530.8 970.9 2530.7 946.3 2536.9 927.8 2543.1 915.5 2554.8 910.5 2571.5 892.7 2617.2 920.3 Z" data-holc_grade="B"/>
<path d="M 1914.8 1481.5 1963.1 1509.2 1931.6 1562.8 1906.8 1610.8 1862.9 1586.2 1893.8 1517.9 1914.8 1481.5 Z" data-holc_grade="B"/>
<path d="M 1547.2 2154.8 1538.5 2170.9 1474.8 2140.1 1498.3 2096.9 1534.8 2034.7 1596.6 2071.1 1547.2 2154.8 Z" data-holc_grade="B"/>
</g>
<g id="C">
<path d="M 287.8 1115.2 258.1 1177.6 222.6 1259.7 188 1298.2 149 1358.9 103.7 1336.8 97 1328.6 97.5 1319.4 54.8 1305.5 66.8 1264.2 96.5 1275.3 103.3 1245.1 109.5 1246.4 141 1197.8 150.3 1207.6 172.6 1168.9 134.3 1142.3 181.3 1043.3 287.8 1115.2 Z M 189.6 1178.3 181 1176.3 167.8 1206.8 172.8 1208.8 189.6 1178.3 Z" data-holc_grade="C"/>
<path d="M 2602.9 790.5 2563.4 831.1 2531.9 861.9 2513.4 885.3 2501.7 918 2481.9 966 2470.2 967.8 2417.1 1057.1 2381.9 1007.9 2355.9 978.4 2507.1 732.7 2602.9 790.5 Z" data-holc_grade="C"/>
<path d="M 2381.9 1007.9 2320.1 1140.3 2323.2 1149.5 2368.4 1184.6 2380.7 1198.1 2364.3 1223.7 2361 1228.9 2325.8 1226.5 2287.4 1219.1 2271.4 1246.2 2130.4 1176.7 2131.1 1166.2 2126.7 1131.8 2122.4 1116.4 2151.4 1049.9 2154.6 1046.1 2211.4 1076.9 2193.4 1112.7 2232.4 1133.6 2245.4 1102.2 2283.7 1121.8 2355.9 978.4 2381.9 1007.9 Z" data-holc_grade="C"/>
<path d="M 2177.7 1438.2 2125 1409.4 2104.5 1318.9 2066.8 1300.5 2081.7 1275.2 2094.6 1243.2 2122.4 1189.6 2130.4 1176.7 2271.4 1246.2 2177.7 1438.2 Z" data-holc_grade="C"/>
<path d="M 2066.8 1300.5 2104.5 1318.9 2125 1409.4 2177.7 1438.2 2188 1443.9 2184.3 1451.3 2178.8 1467.9 2168.9 1489.4 2159 1512.9 2143.6 1535.6 2019.3 1483.4 1990.3 1548.6 1953.8 1621.9 1932.2 1613.3 1913 1650.3 1903.1 1656.4 1879.7 1656.4 1862.3 1650.9 1860.5 1638.6 1838.2 1626.9 1811.6 1612.1 1833.9 1567.1 1862.9 1505.6 1992 1246.9 2002.5 1255.6 2007.5 1267.2 2018 1272.8 2028.5 1275.9 2066.8 1300.5 Z M 1914.8 1481.5 1893.8 1517.9 1862.9 1586.2 1906.8 1610.8 1931.6 1562.8 1963.1 1509.2 1914.8 1481.5 Z" data-holc_grade="C"/>
<path d="M 1878.3 1877.3 1853 1903.5 1825.2 1929.7 1800.5 1902.5 1812.9 1881.9 1781.4 1875.8 1793.3 1798.3 1833.4 1805 1878.3 1877.3 Z" data-holc_grade="C"/>
<path d="M 1595.3 2184.5 1547.2 2154.8 1596.6 2071.1 1534.8 2034.7 1498.3 2096.9 1474.8 2140.1 1439 2115.4 1402.5 2092.6 1383.3 2083.4 1370.9 2078.5 1387 2060 1460 2100 1483.5 2069.2 1486 2051.4 1487.2 2042.1 1474.2 2032.3 1477.9 2019.9 1429.1 1995.9 1448.2 1957.1 1526.1 2000.2 1542.2 1967.6 1582.4 1893.1 1605.9 1853.6 1625.1 1816.7 1641.8 1772.3 1698 1791.4 1703.6 1777.3 1756.1 1790.2 1742.5 1859.2 1688.7 1849.3 1668.4 1894.9 1649.2 1930 1641.2 1933.7 1633.1 1946 1623.8 1962 1654.8 1979.3 1645.5 1995.3 1617.7 1986.1 1611.5 2003.9 1633.1 2016.9 1627.6 2030.4 1663.4 2045.8 1659.7 2076 1648.6 2094.5 1595.3 2184.5 Z" data-holc_grade="C"/>
<path d="M 1538.5 2170.9 1528.6 2185.6 1520 2196.1 1462.5 2247.9 1436.1 2296.5 1365.6 2275 1376.5 2264.5 1389.5 2252.2 1434.6 2195.5 1474.8 2140.1 1538.5 2170.9 Z" data-holc_grade="C"/>
<path d="M 1453.4 2632.3 1417.5 2592.3 1287.6 2474.6 1258.5 2506 1235.7 2475.8 1180.6 2424.7 1227 2358.1 1248 2332.9 1335.3 2266.4 1365.6 2275 1436.1 2296.5 1411.3 2347.7 1454 2381 1439.1 2408.7 1548 2498.6 1580.2 2515.3 1531.9 2592.9 1473.8 2655.8 1453.4 2632.3 Z" data-holc_grade="C"/>
<path d="M 1180.6 2424.7 1235.7 2475.8 1258.5 2506 1287.6 2474.6 1417.5 2592.3 1453.4 2632.3 1410.1 2672.4 1384.1 2632.3 1312.9 2695.2 1329 2729.1 1336.4 2719.8 1345.7 2729.1 1363 2716.1 1388.4 2737.1 1235 2891.1 1190.4 2823.3 1170 2848.6 1105.1 2806.1 1108.2 2796.8 1078.5 2714.2 1083.4 2692.7 1093.3 2675.4 1097.7 2661.9 1103.9 2645.2 1111.9 2627.4 1119.3 2604.6 1122.4 2586.1 1130.5 2563.3 1130.5 2459.8 1157.1 2493.7 1159 2466.6 1155.2 2457.3 1180.6 2424.7 Z" data-holc_grade="C"/>
<path d="M 1038.7 3170.9 948.4 3111.1 968.2 3080.9 934.8 3058.1 901.4 3037.1 947.2 2957 917.6 2939.7 976.4 2844.2 1006.1 2861.5 1031.4 2812.8 1103.2 2858.5 1152 2997.1 1038.7 3170.9 Z M 985.6 3052.6 955.3 3034.1 950.3 3047 976.9 3064.9 985.6 3052.6 Z" data-holc_grade="C"/>
<path d="M 359.1 1436.6 335.4 1438.1 333.8 1422.7 192.2 1371.8 182.4 1367.7 149 1358.9 188 1298.2 222.6 1259.7 258.1 1177.6 287.8 1115.2 291.1 1119.4 285.3 1137.4 310.9 1152.2 302.6 1169.4 314.1 1174.4 337.3 1125.1 404.1 1025.1 489 911 503.8 919.2 532.7 882.3 565.6 910.3 540.1 951.3 475.7 1061.2 412.3 1180.1 383.9 1227.3 365.9 1265.7 360.7 1317 351.4 1343.2 347.3 1362.2 346.2 1380.1 369.9 1389.9 376.6 1436.6 359.1 1436.6 Z" data-holc_grade="C"/>
<path d="M 959.8 3289.4 924.9 3273.2 903.8 3303.4 830.2 3255.9 856.2 3210.3 829 3194.3 785.7 3163.4 790 3154.2 801.8 3137.5 821.6 3124.6 832.1 3109.8 839.5 3093.2 847 3088.3 863.7 3099.4 901.4 3037.1 934.8 3058.1 968.2 3080.9 948.4 3111.1 1038.7 3170.9 1012.7 3218.4 1001.6 3232.6 959.8 3289.4 Z" data-holc_grade="C"/>
<path d="M 959.8 3289.4 970 3294.2 924.8 3357.1 885.2 3337.9 853.6 3381.1 828.9 3368.1 721.9 3299 731.8 3277.4 763.4 3231.8 735.5 3214.6 741.7 3207.2 755.3 3201 756.6 3189.3 760.3 3175.1 769.6 3170.8 785.7 3163.4 829 3194.3 856.2 3210.3 830.2 3255.9 903.8 3303.4 924.9 3273.2 959.8 3289.4 Z" data-holc_grade="C"/>
<path d="M 629.6 3859.6 600.7 3861.7 599.7 3826.7 600.8 3817.5 601.8 3798.5 602.9 3783.1 558 3785.6 521.9 3786.6 483.2 3778.9 457.9 3766.5 482.7 3718.2 463.6 3707.4 525.1 3613.9 513.7 3608.3 497.2 3589.8 506 3575.4 516.3 3564.1 521.5 3551.8 530.8 3545.1 539 3533.3 548.8 3523 555 3510.7 564.9 3494.3 572.6 3474.2 561.8 3466.5 567.5 3455.2 615.9 3487.6 622.6 3476.3 632.4 3465 641.2 3452.7 650 3434.2 656.2 3422.4 632.5 3407.5 646.9 3376.1 719.1 3426 699 3466.6 744.3 3494.4 746.9 3498 616.3 3689 629.7 3736.3 628.6 3803.6 629.6 3859.6 Z" data-holc_grade="C"/>
<path d="M 1633.4 493.4 1660.6 459 1687.8 429.4 1728.1 369.5 1778.4 400.7 1804.7 351.5 1838.5 349.8 1842.6 291.6 1879.7 310.4 1887.1 302.2 1910.1 301.4 1929.9 317 1926.6 331.8 1922.5 340 1932.4 390 1900.3 426.9 1857.4 394.1 1851.7 438.4 1875.6 431.9 1901.1 444.2 1900.3 476.2 1929.9 503.2 1945.6 524.5 1958.8 523.7 1979.4 541.8 1942.3 632.9 1916 609.9 1897 649.3 1870.7 638.6 1829.5 627.1 1805.6 611.6 1633.4 493.4 Z" data-holc_grade="C"/>
<path d="M 2798.3 195.3 2718 154.8 2669.9 249.6 2745.9 293.2 2761.9 302.4 2696.5 417.6 2679.9 408.9 2676.1 391.1 2618.1 354.2 2614.4 358.5 2606.3 351.7 2609.4 324.7 2577.2 295.1 2593.9 258.2 2525.3 227.5 2574.1 158.6 2646.9 49.6 2664.1 26.2 2671.5 18.9 2688.2 1 2778.4 60 2842.7 100.5 2837.1 112.8 2836.5 123.9 2798.3 195.3 Z" data-holc_grade="C"/>
<path d="M 2842.7 100.5 2876.6 121.4 2898.9 137.4 2936 157 2999 197 2986.1 248.7 2965.7 243.1 2955.2 221.6 2948.4 218.6 2947.1 226.5 2926.8 242.6 2918.1 226 2907 212.4 2884.7 183.5 2863.1 158.3 2854.4 129.4 2854.4 119.6 2854.4 112.8 2842.7 100.5 Z" data-holc_grade="C"/>
<path d="M 2696.5 417.6 2705.8 422.4 2714.5 415 2828.4 482.9 2864 504.1 2867.1 516.4 2856 525 2833.8 560.8 2673.1 464.9 2651.5 453.2 2620 437.2 2586.6 412 2606.3 351.7 2614.4 358.5 2618.1 354.2 2676.1 391.1 2679.9 408.9 2696.5 417.6 Z" data-holc_grade="C"/>
<path d="M 2715.9 674.7 2590.4 598.5 2617 564.6 2642.3 518.5 2673.1 464.9 2833.8 560.8 2835.7 572.5 2825.2 582.3 2819 592.2 2811.6 609.4 2799.3 622.9 2788.8 636.5 2766.6 661.1 2744.3 664.8 2730.1 661.8 2715.9 674.7 Z" data-holc_grade="C"/>
<path d="M 2664.8 793.7 2620.8 764 2602.9 790.5 2507.1 732.7 2497.9 725.3 2485.5 734 2459.5 716.1 2465.1 697.7 2463.8 678 2460.7 658.3 2451.5 640.4 2449.6 632.4 2450.8 602.3 2556.5 658.8 2590.4 598.5 2715.9 674.7 2701.7 692.6 2695.5 703 2687.5 721.5 2682 737.5 2674.6 764 2664.8 793.7 Z" data-holc_grade="C"/>
<path d="M 2664.8 793.7 2664.9 793.8 2674.6 800.3 2672.8 810.8 2664.1 820 2649.9 829.8 2629.5 831.1 2644.4 840.9 2641.3 869.2 2632.7 888.3 2617.2 920.3 2571.5 892.7 2554.8 910.5 2543.1 915.5 2536.9 927.8 2530.7 946.3 2530.8 970.9 2527.1 983.8 2512.2 990 2504.8 1005.4 2501.8 1066.9 2479.5 1076.8 2472.8 1087.3 2467.2 1065.1 2464.7 1055.3 2454.8 1055.3 2444.3 1054 2436.9 1073.1 2437.5 1098.4 2431.4 1115.6 2422.1 1147 2412.9 1169.8 2404.8 1190.1 2375.2 1235.7 2364.3 1223.7 2380.7 1198.1 2368.4 1184.6 2384.4 1144.6 2336.2 1121.8 2323.2 1149.5 2320.1 1140.3 2381.9 1007.9 2417.1 1057.1 2470.2 967.8 2481.9 966 2501.7 918 2513.4 885.3 2531.9 861.9 2563.4 831.1 2602.9 790.5 2620.8 764 2664.8 793.7 Z" data-holc_grade="C"/>
</g>
<g id="D">
<path d="M 328.1 1506.3 344.6 1498.1 335.4 1438.1 359.1 1436.6 364.7 1481.2 398.1 1549.5 383.2 1566.4 328.1 1506.3 Z M 182.4 1367.7 158.2 1422.6 134 1410.7 132.4 1418.7 106.7 1413.3 82 1409.1 68.1 1404.5 49 1398.9 35.6 1390.6 35.6 1377.3 32.1 1365.5 39.3 1346.5 54.8 1305.5 97.5 1319.4 97 1328.6 103.7 1336.8 149 1358.9 182.4 1367.7 Z" data-holc_grade="D"/>
<path d="M 2355.9 978.4 2283.7 1121.8 2245.4 1102.2 2211.4 1076.9 2154.6 1046.1 2169.3 1028.9 2197.7 1003.7 2232.9 969.8 2251.5 944 2255.8 924.3 2271.2 904.6 2298.4 890.4 2355.9 978.4 Z" data-holc_grade="D"/>
<path d="M 2300.6 1553.5 2319.7 1478.4 2308 1475.3 2319.1 1425.4 2329.6 1426.7 2346.3 1384.8 2428.5 1404.4 2413.7 1477.1 2427.3 1502.3 2452.7 1539.9 2459.5 1564.5 2457.6 1595.9 2441.6 1613.2 2412.5 1637.2 2400.8 1646.4 2392.2 1682.8 2382.3 1683.4 2371.8 1727.7 2343.4 1723.4 2376 1572.6 2300.6 1553.5 Z" data-holc_grade="D"/>
<path d="M 2296.3 1566.4 2253.1 1743.8 2327.3 1763.5 2318.7 1800.4 2180.2 1770.3 2127.6 1784.5 2121.4 1771 2112.8 1764.2 2101 1755.6 2101 1739.6 2104.1 1720.5 2101.6 1706.3 2108.4 1697.7 2111.5 1684.1 2131.9 1665.7 2133.8 1655.8 2133.1 1645.3 2131.3 1618.2 2144.9 1594.8 2152.9 1572.7 2179.4 1536.9 2239.4 1551.1 2296.3 1566.4 Z" data-holc_grade="D"/>
<path d="M 2343.4 1723.4 2337.2 1722.8 2327.3 1763.5 2253.1 1743.8 2296.3 1566.4 2300.6 1553.5 2376 1572.6 2343.4 1723.4 Z" data-holc_grade="D"/>
<path d="M 1992 1246.9 1862.9 1505.6 1833.9 1567.1 1782.6 1537 1795.5 1486.5 1780.7 1455.1 1856.1 1365.2 1775.7 1331.3 1796.7 1288.8 1898.7 1333.2 1958.7 1216.2 1968.5 1233.4 1982.1 1238.9 1992 1246.9 Z" data-holc_grade="D"/>
<path d="M 1909.2 1923 1878.3 1877.3 1833.4 1805 1842.6 1730.3 1854.3 1711.9 1861.7 1716.8 1877.8 1700.1 1914.3 1721.1 1961.2 1626.8 1953.8 1621.9 1990.3 1548.6 2019.3 1483.4 2143.6 1535.6 2104 1620.6 2065.1 1700.7 2054 1694.6 2022.5 1761.7 1994.1 1822.7 1974.9 1857.2 1909.2 1923 Z" data-holc_grade="D"/>
<path d="M 1838.2 1626.9 1816 1663.8 1798.7 1697.7 1854.3 1711.9 1842.6 1730.3 1833.4 1805 1793.3 1798.3 1756.1 1790.2 1703.6 1777.3 1749.2 1665.7 1782.6 1537 1833.9 1567.1 1811.6 1612.1 1838.2 1626.9 Z" data-holc_grade="D"/>
<path d="M 1542.2 1967.6 1526.1 2000.2 1448.2 1957.1 1443.9 1948.5 1405 1928.2 1422.9 1897.4 1542.2 1967.6 Z M 1641.8 1772.3 1625.1 1816.7 1605.9 1853.6 1582.4 1893.1 1570 1883.2 1540.4 1872.1 1476.1 1841.9 1481 1835.2 1474.2 1830.2 1462.5 1827.8 1456.3 1818.5 1466.8 1803.8 1490.3 1771.1 1515.6 1758.2 1537.9 1750.2 1559.5 1753.9 1568.8 1749 1578.1 1746.5 1641.8 1772.3 Z" data-holc_grade="D"/>
<path d="M 1788.2 2070.3 1692.8 2019 1699 1987.2 1718.6 1952.8 1751.5 1914.8 1787.1 1926.1 1800.5 1902.5 1825.2 1929.7 1853 1903.5 1878.3 1877.3 1909.2 1923 1910.8 1956.9 1850.5 2014.9 1834.5 2008.2 1824.7 1999.5 1823.2 2031.3 1826.3 2044.7 1837.6 2087.8 1788.2 2070.3 Z" data-holc_grade="D"/>
<path d="M 2075.3 2117.5 2065.9 2112.3 2002 2056.9 1975.2 2023.6 1959.2 2007.1 1949.9 1987.6 1947.8 1960.9 1944.8 1946.6 1955.1 1922.4 2092.6 1931.1 2097.8 1936.8 2075.3 2117.5 Z" data-holc_grade="D"/>
<path d="M 132.4 1418.7 122.1 1471.3 98.9 1473.3 61.3 1476.3 70.6 1451.2 82 1409.1 106.7 1413.3 132.4 1418.7 Z" data-holc_grade="D"/>
<path d="M 2146.3 2152.3 2132.4 2146.7 2110.2 2136.9 2075.3 2117.5 2097.8 1936.8 2092.6 1931.1 2113.7 1800.7 2178.6 1808.4 2163.2 1938.3 2146.3 2152.3 Z" data-holc_grade="D"/>
<path d="M 1692.5 2230 1651.7 2217.1 1610.3 2193.7 1595.3 2184.5 1648.6 2094.5 1659.7 2076 1663.4 2045.8 1670.7 2045.2 1682 2041.6 1692.8 2019 1788.2 2070.3 1779.9 2082.6 1753.1 2120.1 1692.5 2230 Z" data-holc_grade="D"/>
<path d="M 1799.5 2377.3 1815 2362.4 1749 2288 1731.9 2303 1724.8 2292.6 1773.2 2245.4 1757.2 2230.5 1722.8 2245.4 1692.5 2230 1753.1 2120.1 1779.9 2082.6 1788.2 2070.3 1837.6 2087.8 1826.3 2044.7 1921.6 2081.6 1920.6 2070.8 1926.7 2051.8 1939.6 2036.9 1959.7 2027.1 1975.2 2023.6 2002 2056.9 1993.2 2108.8 1943.3 2223.8 1911.9 2221.2 1885.1 2245.8 1910.8 2316.7 1887.7 2340.3 1876.3 2324.9 1843.9 2359.3 1807.3 2389.6 1799.5 2377.3 Z" data-holc_grade="D"/>
<path d="M 2075.3 2117.5 2110.2 2136.9 2132.4 2146.7 2111.3 2202.1 2102 2243.7 1943.3 2223.8 1993.2 2108.8 2002 2056.9 2065.9 2112.3 2075.3 2117.5 Z" data-holc_grade="D"/>
<path d="M 2102 2243.7 2111.3 2202.1 2132.4 2146.7 2146.3 2152.3 2141.7 2165.7 2185 2208.3 2204.6 2210.8 2202 2238.5 2199.9 2256 2198.9 2300.2 2151 2289.9 2150.5 2250.4 2102 2243.7 Z" data-holc_grade="D"/>
<path d="M 1474.8 2140.1 1434.6 2195.5 1389.5 2252.2 1376.5 2264.5 1331.3 2230.6 1218.2 2159.1 1223.1 2143.7 1236.1 2123.4 1244.2 2104.9 1249.7 2084 1267.1 2076 1289.3 2066.1 1299.2 2055.7 1367.2 2087.1 1370.9 2078.5 1383.3 2083.4 1402.5 2092.6 1439 2115.4 1474.8 2140.1 Z" data-holc_grade="D"/>
<path d="M 1595.3 2184.5 1610.3 2193.7 1651.7 2217.1 1692.5 2230 1722.8 2245.4 1703 2279.9 1664.1 2352.6 1622.6 2386.5 1585.5 2440.7 1614.6 2456.7 1599.8 2480.1 1580.2 2515.3 1548 2498.6 1439.1 2408.7 1454 2381 1411.3 2347.7 1436.1 2296.5 1462.5 2247.9 1520 2196.1 1528.6 2185.6 1538.5 2170.9 1547.2 2154.8 1595.3 2184.5 Z" data-holc_grade="D"/>
<path d="M 1599.8 2480.1 1614.6 2456.7 1652.1 2385 1692.3 2348 1734.6 2307 1731.9 2303 1749 2288 1815 2362.4 1799.5 2377.3 1678.9 2477.9 1664 2459.5 1620.2 2499 1599.8 2480.1 Z" data-holc_grade="D"/>
<path d="M 744.3 3494.4 699 3466.6 719.1 3426 646.9 3376.1 651.9 3363.7 661.8 3348.9 668.6 3340.9 671.1 3329.2 671.1 3316.9 680.4 3297.8 686 3300.2 694 3296.5 712.6 3305.8 721.9 3299 828.9 3368.1 744.3 3494.4 Z" data-holc_grade="D"/>
<path d="M 629.6 3859.6 628.6 3803.6 629.7 3736.3 616.3 3689 746.9 3498 744.3 3494.4 828.9 3368.1 853.6 3381.1 885.2 3337.9 924.8 3357.1 970 3294.2 988 3305.3 971.2 3365.1 914.3 3454.5 930.3 3464.9 906.8 3507.5 917.3 3516.7 909.9 3532.1 883.9 3531.5 867.2 3526 854.8 3545.7 814.6 3519.2 757.6 3607.3 753.9 3620.9 740.9 3635.7 729.7 3641.8 779.9 3670.2 777.4 3716.4 715.5 3714.6 718.5 3783.6 688.8 3785.5 691.9 3852.7 648.5 3861.9 629.6 3859.6 Z" data-holc_grade="D"/>
<path d="M 335.4 1438.1 344.6 1498.1 328.1 1506.3 263.2 1511.4 278.1 1573 265.2 1575.6 262.6 1582.2 167.3 1583.2 165.2 1633.5 42.1 1639.5 31.3 1607.7 25.2 1554.8 9.2 1561 4.6 1519.9 1 1515.3 4.6 1497.3 43.8 1499.9 61.3 1476.3 98.9 1473.3 122.1 1471.3 132.4 1418.7 134 1410.7 158.2 1422.6 182.4 1367.7 192.2 1371.8 182.4 1390.8 191.2 1396.4 184.5 1405.6 194.3 1412.3 190.1 1421.6 296.2 1429.9 335.4 1438.1 Z" data-holc_grade="D"/>
<path d="M 1695.9 835.2 1772 895.5 1765.2 915.2 1823.3 960.7 1790.5 1029.1 1728.7 984.1 1696.6 1038.9 1662.6 1018.6 1671.3 1002 1627.4 976.8 1627.4 970 1627.4 954.6 1639.7 949.7 1655.2 936.8 1659.5 920.8 1665.1 890.6 1676.8 862.3 1684.8 845.7 1695.9 835.2 Z" data-holc_grade="D"/>
<path d="M 2586.6 412 2573 423.1 2540.9 446.5 2501.4 482.9 2478.6 520.4 2463.1 547.5 2450.8 602.3 2438.5 593.7 2439.1 562.3 2443.4 549.4 2429.8 542 2442.1 521.1 2436.6 516.1 2467.4 468.1 2481 446 2498.9 458.3 2511.3 436.1 2464.9 407.2 2432.8 383.8 2525.3 227.5 2593.9 258.2 2577.2 295.1 2609.4 324.7 2606.3 351.7 2586.6 412 Z" data-holc_grade="D"/>
<path d="M 2459.5 716.1 2426.2 761.1 2403.4 797.4 2372.5 835 2313.8 802.4 2313.2 814.7 2308.9 830.7 2298.4 851 2296.6 857 2261.3 838.1 2251.4 852.9 2189 809.2 2187.7 799.4 2282.2 608.5 2313.7 628.2 2308.1 641.1 2372.4 671.2 2374.9 660.2 2384.8 664.5 2391.5 649.1 2324.2 609.1 2349.5 558 2361.2 567.3 2378.5 572.2 2374.2 588.8 2392.8 595.5 2394.6 602.3 2397.7 604.8 2393.4 614.6 2407 615.2 2400.8 633.7 2428.6 639.8 2437.3 629.4 2449.6 632.4 2451.5 640.4 2460.7 658.3 2463.8 678 2465.1 697.7 2459.5 716.1 Z" data-holc_grade="D"/>
<path d="M 2154.6 1046.1 2151.4 1049.9 2122.4 1116.4 2126.7 1131.8 2131.1 1166.2 2130.4 1176.7 2122.4 1189.6 2094.6 1243.2 2081.7 1275.2 2066.8 1300.5 2028.5 1275.9 2018 1272.8 2007.5 1267.2 2002.5 1255.6 1992 1246.9 1982.1 1238.9 1968.5 1233.4 1958.7 1216.2 2010.5 1118.9 2071.7 1143.5 2147.7 977.2 2161.2 912.6 2144.5 904 2189 809.2 2251.4 852.9 2222.4 919.4 2251.5 944 2232.9 969.8 2197.7 1003.7 2169.3 1028.9 2154.6 1046.1 Z" data-holc_grade="D"/>
<path d="M 2673.1 464.9 2642.3 518.5 2617 564.6 2590.4 598.5 2556.5 658.8 2450.8 602.3 2463.1 547.5 2478.6 520.4 2501.4 482.9 2540.9 446.5 2573 423.1 2586.6 412 2620 437.2 2651.5 453.2 2673.1 464.9 Z" data-holc_grade="D"/>
<path d="M 2507.1 732.7 2355.9 978.4 2298.4 890.4 2292.8 869.5 2296.6 857 2298.4 851 2308.9 830.7 2313.2 814.7 2313.8 802.4 2372.5 835 2403.4 797.4 2426.2 761.1 2459.5 716.1 2485.5 734 2497.9 725.3 2507.1 732.7 Z" data-holc_grade="D"/>
<path d="M 985.6 3052.6 976.9 3064.9 950.3 3047 955.3 3034.1 985.6 3052.6 Z" data-holc_grade="D"/>
<path d="M 189.6 1178.3 172.8 1208.8 167.8 1206.8 181 1176.3 189.6 1178.3 Z" data-holc_grade="D"/>
</g>
</svg>