<?xml version="1.0"?>
<svg xmlns="http://www.w3.org/2000/svg" version="1.2" baseProfile="tiny" width="3000" height="1252" viewBox="0 0 3000 1252" stroke-linecap="round" stroke-linejoin="round">
<g id="A">
<path d="M 958.6 469.9 1071.9 431.1 1091.9 483.7 976 523.5 958.6 469.9 Z" data-holc_grade="A"/>
<path d="M 1349.5 524.6 1368.7 615.3 1358.2 616.9 1335 614.9 1311.7 604.5 1296.6 604.8 1285.7 602.2 1281.5 610.3 1271 609 1258.8 609.7 1237.5 613.9 1215.5 609.7 1205.8 611.7 1193.2 620.7 1195.3 625.5 1208.7 621.8 1210 626.6 1189.8 632.9 1172.2 637 1167.4 642.7 1168.1 654.6 1172.3 665.8 1168.7 676.1 1158.5 688.2 1146.1 691.9 1131 694.5 1114.2 699.7 1113.5 685.8 1119 678.5 1120.7 669 1119.1 659.8 1115 656.2 1098.2 658.2 1074.8 662.6 1074.1 652.8 1075.3 634.9 1046.6 643.9 1036.5 649.3 1022.3 654 1015.9 654.2 1012.3 640.2 1017.2 638.8 1019.8 632.3 1050.6 630.9 1064.7 623.3 1077.5 623.1 1071.6 609 1124.8 595 1111.9 553.6 1213.9 516.4 1202.1 492.9 1336.8 462.1 1342.8 492.9 1349.5 524.6 Z" data-holc_grade="A"/>
<path d="M 1581.3 495.3 1588.3 529.2 1620.6 522.1 1627.2 542.3 1633.2 553.8 1640.6 553 1643.3 581.7 1641.9 587.5 1636.8 608 1630.1 615.7 1631.6 642.9 1627.2 652.5 1613.7 660.1 1593.4 662.8 1575.9 661.1 1570.1 655 1568 626.2 1567.5 616.8 1565.2 609.5 1536.7 590.7 1529.7 549.9 1421 574.1 1427.6 606.1 1414.3 604 1394.1 607.6 1368.7 615.3 1349.5 524.6 1336.8 462.1 1362.5 456.2 1384.5 453.2 1481.6 430.2 1530.6 418.6 1549.3 501.4 1581 493.8 1581.3 495.3 Z" data-holc_grade="A"/>
<path d="M 1427.6 606.1 1434.2 607.2 1448.5 616.8 1465.1 621.4 1475.8 627.5 1486.3 636.9 1495.5 639.8 1504.8 640 1508.1 642.9 1485.4 651.1 1457.3 649 1455.2 652.5 1471.6 658.6 1488 663.4 1492.6 672.8 1477.7 685.6 1471.8 699.4 1464.9 709.8 1456.5 704.2 1442 701.3 1423.3 704.4 1408 692.9 1396.2 694.6 1393.5 702.5 1402.1 711.7 1402.9 728.2 1397.5 741.4 1389.7 743.3 1384.7 735.3 1383.2 722.4 1377.5 719.4 1371.2 748.3 1374.2 767.5 1358 770.9 1335.5 783 1319.4 781.3 1309.5 782.6 1318.1 765 1309.7 747.9 1310.3 730.1 1330.1 688.5 1337.2 644.8 1341.2 618.9 1335 614.9 1358.2 616.9 1368.7 615.3 1394.1 607.6 1414.3 604 1427.6 606.1 Z" data-holc_grade="A"/>
<path d="M 1744.1 678.7 1738.2 640.8 1736.1 613 1837.5 611.1 1919 612.3 1911.4 558.6 1912.3 538.5 1962.8 573.5 1972.8 584.4 1982.7 595.9 1991.1 657.3 1999.9 723.1 2002.3 734.3 2025.7 739.2 2035.8 738.1 2059.1 747.2 2075.7 750.4 2085.4 744.1 2097.1 733.1 2112.6 718.3 2126.4 711.4 2137.8 714.3 2119.3 741.4 2119 754.4 2121.4 774.3 2111.7 776.9 2115.4 789.8 2088.9 798.3 2076.9 806.3 2062.1 812.2 2062.6 815.2 2045.5 829.4 2035.1 839 2023.3 833.7 2016.5 841.3 1997.7 838.4 1990.6 836 1979.7 829.9 1973.6 821 1973 795.6 1976.5 765.6 1982.1 748.8 1988.8 740.4 1992.2 731.6 1870.8 703.5 1846.2 697.9 1838.5 700.5 1814.4 697.5 1786.5 693.9 1765.4 688.7 1744.1 678.7 Z" data-holc_grade="A"/>
<path d="M 2113.7 647.5 2081.3 642 2061.7 632.3 2048.8 623.2 2041.5 611.6 2049.5 611.4 2063 585.7 2073.5 574.7 2081.3 572.9 2083.5 583.9 2101.3 583.6 2117.1 579.1 2130.1 576.4 2152.2 577.9 2160.4 564.9 2169.4 549.2 2195 527.2 2198.7 540.7 2205.7 539.4 2181.2 576.6 2175.9 573.1 2170.4 596.1 2164.2 602.3 2147.2 602.6 2129.6 598.8 2111.3 613.3 2107.6 617.1 2109.6 633 2113.7 647.5 Z" data-holc_grade="A"/>
<path d="M 1935.6 129.8 2043.5 104.8 2055.1 153.4 1945.9 179.7 1935.6 129.8 Z" data-holc_grade="A"/>
<path d="M 2075 84 2101.8 21.4 2134.6 29.5 2185.7 55.1 2207.5 67.6 2221.8 84 2226.3 104.7 2202.8 97.3 2199.3 104 2132.4 110.3 2106.9 116 2101.6 95.3 2106.6 93.1 2104.6 87.6 2093.8 87.1 2075 84 Z" data-holc_grade="A"/>
</g>
<g id="B">
<path d="M 457.1 621.1 447.3 624.4 462.6 670.8 363.5 713.2 369.5 734.5 265.5 773.2 259.8 757.4 349 723.2 342.4 710.5 337.3 700.7 334.2 693.1 322.9 696.1 311.1 692 311.7 685.4 348.6 668.1 337.8 622.6 360.4 612.5 354.3 600.2 397.1 581.5 411.5 577.9 438.4 567.5 445.3 579.9 474.2 602.8 471.9 616.9 457.1 621.1 Z" data-holc_grade="B"/>
<path d="M 2137.8 714.3 2126.4 711.4 2112.6 718.3 2097.1 733.1 2085.4 744.1 2075.7 750.4 2059.1 747.2 2035.8 738.1 2025.7 739.2 2002.3 734.3 1999.9 723.1 1991.1 657.3 1982.7 595.9 2002.4 605.5 2026.8 610.4 2041.5 611.6 2048.8 623.2 2061.7 632.3 2081.3 642 2113.7 647.5 2114.3 657.9 2139.4 673.7 2152.2 681.6 2137.8 714.3 Z" data-holc_grade="B"/>
<path d="M 225.7 1081 233.3 1113.3 242.4 1113.9 248.9 1126.6 253.6 1135.9 262.5 1129 267.4 1127.7 274 1132.7 275.3 1140.5 274.9 1148.3 279.3 1152.1 290 1149.3 301.7 1144.8 307.8 1133.7 322.7 1146.9 331.6 1146.9 337.2 1139.3 343.8 1135.6 351.8 1138.3 357.4 1134.7 373.9 1123 379 1111.3 391.8 1104.1 397 1094.4 416.4 1114.9 395.4 1136.3 383.1 1157.7 380 1174.1 364.1 1197.6 360.4 1251.2 327.6 1233.8 321 1239.4 262 1225.1 254.3 1201 202.1 1151.5 215.4 1098.9 225.7 1081 Z" data-holc_grade="B"/>
<path d="M 1329.1 428.7 1191.3 462.7 1171.6 375.1 1225.1 363.4 1333 338.6 1338.9 356.9 1351.1 352.6 1367.4 423.2 1329.1 428.7 Z" data-holc_grade="B"/>
<path d="M 1336.8 462.1 1202.1 492.9 1213.9 516.4 1111.9 553.6 1099.8 514.6 1148.3 498.9 1154.2 490.8 1198.8 479.7 1334.6 450 1360.3 444.1 1362.5 456.2 1336.8 462.1 Z" data-holc_grade="B"/>
<path d="M 1586.8 275.5 1647.8 262 1650.2 274.2 1675.2 270.5 1683 307.4 1669 309.1 1666.2 319.9 1607.1 331.8 1481.4 362.8 1457.6 367.3 1455.3 353 1451.8 322.2 1458.8 317.9 1454.9 305 1502.9 292.7 1586.8 275.5 Z" data-holc_grade="B"/>
<path d="M 1722.1 679.1 1708.5 663 1691.1 657.5 1662.4 649.9 1649.3 648 1631.6 642.9 1630.1 615.7 1636.8 608 1641.9 587.5 1660.3 586.8 1709.5 581.9 1716.4 644 1722.1 679.1 Z" data-holc_grade="B"/>
<path d="M 1722.1 679.1 1741.4 695.5 1806 772.8 1779 804.5 1757.4 791.5 1739.2 785.8 1721.1 795.5 1698.1 815 1692.6 820 1694.1 838.7 1689.1 870.1 1630.4 898.6 1622.9 882.9 1607.9 879.9 1595.1 867.7 1586.6 829.7 1596.4 826.2 1588.6 803.8 1599.6 799.3 1611.1 789.6 1623.4 774.1 1626.2 766.1 1650 747.4 1648.2 736.9 1639.7 727.4 1633.7 713.7 1622.4 706.7 1603.6 685.8 1595.9 685.5 1589.1 696.5 1586.6 705 1579.6 705.5 1578.1 698.5 1583.3 687.3 1575.9 661.1 1593.4 662.8 1613.7 660.1 1627.2 652.5 1631.6 642.9 1649.3 648 1662.4 649.9 1691.1 657.5 1708.5 663 1722.1 679.1 Z" data-holc_grade="B"/>
<path d="M 1777.4 465 1756.7 369.4 1768.1 367.3 1893.5 344.3 1904.1 401.9 1848.8 411.1 1850.8 417.4 1841.5 419.9 1844.8 440.1 1845.3 446 1853.6 451.8 1871.9 504.9 1840 491.4 1819.8 499.2 1807 494.2 1803.7 482.2 1791.2 469.7 1777.4 465 Z" data-holc_grade="B"/>
<path d="M 2226.3 104.7 2230.8 124.2 2167.2 128.7 2108.6 139.2 2120.4 193.8 2009.5 221.3 1904.5 246.8 1894 192.2 1878.6 128.5 1999.1 102.7 2075 84 2093.8 87.1 2104.6 87.6 2106.6 93.1 2101.6 95.3 2106.9 116 2132.4 110.3 2199.3 104 2202.8 97.3 2226.3 104.7 Z M 1935.6 129.8 1945.9 179.7 2055.1 153.4 2043.5 104.8 1935.6 129.8 Z" data-holc_grade="B"/>
</g>
<g id="C">
<path d="M 251.6 810.9 193.6 815.5 31.1 821 1 708.6 157.9 667.9 205.6 658.3 246.1 648.6 354.3 600.2 360.4 612.5 337.8 622.6 348.6 668.1 311.7 685.4 311.1 692 322.9 696.1 334.2 693.1 337.3 700.7 342.4 710.5 349 723.2 259.8 757.4 265.5 773.2 369.5 734.5 363.5 713.2 462.6 670.8 447.3 624.4 457.1 621.1 473.5 662.6 504.6 644 509.9 650.9 514.8 661.7 512.8 669.8 512.8 679.6 516.4 687.5 523 696 531.8 702.2 548.9 706.1 550.9 699.9 565.3 692.1 582.4 690.4 593.5 677.4 602.1 669.5 611.3 662.4 621.4 658.1 624.7 642.4 634.2 664.3 649 670.6 663.7 667.6 673.3 671.2 686.4 672.5 694.2 697 664 702.9 667 714 635.2 721.5 442.2 768.4 312.6 800.7 251.6 810.9 Z" data-holc_grade="C"/>
<path d="M 2101.8 21.4 2075 84 1999.1 102.7 1878.6 128.5 1894 192.2 1904.5 246.8 1895.3 249.5 1893.8 236.4 1849.1 246.3 1853.4 264.7 1796.2 276.5 1807.2 329.1 1887.3 313.9 1893.5 344.3 1768.1 367.3 1751.3 283.4 1740.6 223.8 1809.7 212.1 1806.2 192.7 1829.7 189.9 1828.9 186.1 1812.9 104.7 1875 93 1927.1 83.2 1924.4 67.3 1974.4 59.1 1968.6 20.1 2046 4.5 2102.4 20.1 2101.8 21.4 Z" data-holc_grade="C"/>
<path d="M 2230.8 124.2 2232.1 297.3 2164.9 254.1 2216.9 367.3 2226.1 411.2 2235.3 443.4 2253 470.8 2214.5 488.5 2207.8 500.7 2180.3 512.9 2162.5 528.1 2136.9 535.4 2119.7 540.9 2093.5 542.8 2076.3 553.1 2052.5 579.9 2038.4 601.2 2026.8 610.4 2002.4 605.5 1982.7 595.9 1972.8 584.4 1962.8 573.5 1912.3 538.5 1899.9 527.2 1896.6 483.7 1902.9 477 1901.4 456.8 1903.6 449.3 1912.2 442.5 1908.3 426.5 1904.1 401.9 1893.5 344.3 1887.3 313.9 2078.1 268.1 2066.3 207.2 2120.4 193.8 2108.6 139.2 2167.2 128.7 2230.8 124.2 Z M 2146.4 289 2152.5 295.3 2158 305.5 2152.5 320.5 2145 338.7 2132.1 356.3 2121.1 371.3 2114.5 380.4 2107 388.6 2106.5 401.1 2113.3 408.3 2172.4 405.5 2176.6 392.3 2184.1 401.3 2191.1 407.3 2196.4 401.8 2195.9 386.1 2193.6 377.3 2192.4 351.6 2182.9 343.4 2179.1 320.2 2174.3 311 2172.3 302.5 2167.6 291 2158.3 285.8 2148 284.3 2146.4 289 Z M 2037.6 324.8 2058.4 313.5 2076.4 314 2076.1 292.3 2060.9 291.1 2046.9 296.4 2033.9 304.6 2023.3 313.8 2037.6 324.8 Z" data-holc_grade="C"/>
<path d="M 2411.7 393.2 2396.4 392.4 2388.6 392 2350.2 375.3 2330.8 362.1 2268.9 320 2261.4 314.9 2242.6 302.1 2242.1 248.7 2242.1 171.9 2241.3 94.8 2246.4 91.7 2262 92.8 2290.2 96.3 2330.1 99 2346.1 96.7 2362.2 100.6 2379.4 103.3 2406 98.6 2465.9 89.2 2482.7 85.7 2508.5 78.7 2516.7 77.5 2536.3 75.5 2555.5 163.6 2531.3 180.3 2516.8 181.1 2494.2 191.1 2470.9 203.6 2450.1 202.7 2434.5 213.4 2429.2 190.4 2402.3 192.8 2404.6 227.5 2414.7 290.7 2386.9 300.1 2385.4 309.8 2388.9 316.4 2396.3 317.2 2400.7 322.3 2395.2 334.7 2395.2 351.5 2399.9 365.5 2416.7 376.4 2416.7 388.5 2411.7 393.2 Z" data-holc_grade="C"/>
<path d="M 2247.4 610 2249 622.8 2254.9 636.1 2260.3 639.2 2259.6 665.7 2272.9 708.2 2279.6 716 2290.5 703.9 2288.5 683.2 2288.5 675 2307.7 668.4 2315.2 698.8 2317.5 661 2319 611.9 2322.2 600.2 2315.9 588.9 2306.5 588.1 2299.8 599 2290.1 599.4 2276 598.7 2259.5 595.9 2251.7 595.5 2247.8 597.5 2244 579.2 2247.8 558.9 2256.9 548.7 2262 532.1 2267.5 513.7 2271.2 501.6 2264.2 488.8 2284.5 500 2303.3 504.7 2339.7 516.8 2340.9 503.9 2419.2 512.8 2420.8 675 2400.1 689.4 2395 698.4 2391.5 708.5 2377.8 710.1 2370.4 697.2 2359.4 692.9 2343.7 698.4 2309.3 706.2 2305.8 732.3 2302.3 743.2 2285.9 793.2 2279.2 771.7 2281.5 730.4 2259.2 724.9 2260.4 710.5 2244.7 705.9 2233.4 690.7 2238.4 609.6 2247.4 610 Z" data-holc_grade="C"/>
<path d="M 2552.7 508.4 2615.6 499.1 2660 484.6 2694.8 476.8 2767.5 464 2796.3 461.2 2822.1 459.2 2835.9 504.1 2818.9 511.1 2807.1 505.1 2792.1 505.9 2771.8 507.6 2779.8 535.8 2752.3 537.3 2746.7 516.1 2735.9 497.7 2724.4 495.5 2705.4 501.5 2693.1 512.2 2681.9 526.9 2663.3 541.9 2684.2 603 2703 591 2715 591.5 2730 635.9 2748.6 629.4 2747.3 635.6 2747.9 643.4 2755.1 648.3 2762.9 644.1 2761.1 633.4 2770.1 634.9 2775.3 631.6 2779.4 633.9 2778.5 650.7 2785.4 655.1 2789.4 663.8 2789.4 672.8 2772.7 681.5 2766.2 688.7 2758.1 687.3 2756.9 719.2 2737.1 709.7 2727.6 713.5 2717.1 703 2708.8 701.3 2696.5 697.5 2676 700 2651.6 628.5 2643.9 637.2 2631.9 640 2624.9 649.7 2614.6 662.4 2612.1 674.6 2601.1 664.9 2592.5 643.6 2585.8 625.3 2586.4 605.8 2581.5 586.9 2571.7 577.2 2552.7 508.4 Z" data-holc_grade="C"/>
<path d="M 2396.4 392.4 2411.7 393.2 2418.3 396.3 2602.6 384.1 2603.4 371.2 2599.1 358.8 2604.5 292.1 2618.6 294.8 2626.8 299.9 2635 305 2645.6 301.8 2651.9 303.8 2641.7 369.6 2612.4 371.2 2612.4 381.4 2691.8 372.7 2771.3 364.1 2843.2 356.6 2905.8 348 2996.6 337.8 2999 372.1 2952.8 392.4 2929.8 404.1 2901.6 417.7 2873.8 437.7 2850.4 446.6 2749.8 455.7 2703.6 466.6 2681.7 468.6 2660.2 478 2641.4 483.4 2627.3 484.2 2596.8 490.9 2546.3 498.7 2517 500.7 2480.6 500.7 2459.1 500.3 2431.7 501.9 2387.1 500.8 2396.4 392.4 Z" data-holc_grade="C"/>
<path d="M 2633 42.6 2715.5 21.2 2718.6 44.9 2724.7 53.4 2835.3 1 2895.9 98.3 2896.6 138.5 2913.7 166.5 2673.5 221.5 2650.8 122.3 2664.9 112.5 2650.2 86.4 2643.5 93.7 2633 42.6 Z" data-holc_grade="C"/>
<path d="M 193.6 815.5 251.6 810.9 309.9 915.7 316.1 955 319.1 978.5 311.4 997.9 302 983.3 289.9 1006.5 275.5 1016.7 255 1014.2 255 988.6 261.2 970.8 219.7 963.6 218.6 983.5 193 973.3 175.6 976.8 164.8 968.6 160.7 941.1 199.8 840 193.6 815.5 Z" data-holc_grade="C"/>
<path d="M 401.2 841.7 449.4 821.8 459.8 796.7 481.8 779.8 495.5 769.2 514.1 755 535.6 759.1 518.2 769.3 529.8 825 541.7 823.4 547.3 860.2 546.8 874.5 555.5 914.3 547.8 924 550.2 948 572.4 963.8 561.6 987.3 543.2 989.3 532.9 1005.7 497.5 1015.4 491.9 1004.6 493.4 992.9 504.2 976.6 497 959.7 490.9 945.9 486.8 923.4 481.2 904.6 470.4 890.2 455.6 883.6 437.6 881.5 425.3 868.8 416.6 860.6 401.2 841.7 Z" data-holc_grade="C"/>
<path d="M 770.1 463 782.6 493.5 790.6 491.8 840.3 628.1 787.1 654.5 775 627.7 725.4 643.1 716.8 621 670.2 635.4 659.9 615.5 631.4 623.4 621.9 598.3 563.6 615 559.6 600.6 531 615.2 524.1 598.1 512.1 605 478.8 589.7 474.4 576.3 534 550.8 527.3 536.6 615.9 503.6 618.2 508 691.5 479 688.6 472.5 763.1 446 770.1 463 Z" data-holc_grade="C"/>
<path d="M 1329.1 428.7 1334.6 450 1198.8 479.7 1154.2 490.8 1148.3 498.9 1099.8 514.6 1096.5 506.1 1026 528.6 1030.2 542.3 867.6 616.2 844.3 550.4 820 482 831.7 477.4 827.1 465.5 804 473 796.9 453.9 936.1 406.6 941.7 418.3 1165.2 351 1157.1 312.1 1211.3 299.5 1225.1 363.4 1171.6 375.1 1191.3 462.7 1329.1 428.7 Z M 958.6 469.9 976 523.5 1091.9 483.7 1071.9 431.1 958.6 469.9 Z" data-holc_grade="C"/>
<path d="M 1015.9 654.2 1022.3 654 1036.5 649.3 1046.6 643.9 1075.3 634.9 1074.1 652.8 1074.8 662.6 1098.2 658.2 1115 656.2 1119.1 659.8 1120.7 669 1119 678.5 1113.5 685.8 1114.2 699.7 1086.2 709.8 1059.7 703.7 1053.8 712.5 1055.1 727.6 1065.3 727.6 1063.3 740.7 998.7 745.2 989.8 762.2 947.1 766.1 929.8 746.2 923.9 739 916 741.9 891.4 702 838.3 685 839.2 671.3 835 660.5 920.3 634.1 932.7 662.8 942.9 667.4 956.7 667.4 974.7 670.7 992.1 665.5 1011.2 660.6 1015.9 654.2 Z" data-holc_grade="C"/>
<path d="M 1111.9 553.6 1124.8 595 1071.6 609 1057.8 571.6 1111.9 553.6 Z" data-holc_grade="C"/>
<path d="M 1455.3 353 1457.6 367.3 1481.4 362.8 1607.1 331.8 1666.2 319.9 1669 309.1 1683 307.4 1675.2 270.5 1650.2 274.2 1647.8 262 1643.2 238.1 1637.4 237.6 1635.4 229.3 1581.3 238.6 1586.8 275.5 1502.9 292.7 1497.4 269.3 1452.8 280.7 1450.1 266.3 1464.6 263.3 1462.4 236.1 1500.9 227.9 1606.3 205.4 1649.9 198.7 1800.9 172.2 1803.2 187.9 1691 205.1 1692.5 215.6 1666.9 219.6 1669 232.1 1708.5 226.6 1731.3 344.1 1720.3 345.8 1662.3 356 1466.6 401.7 1461.4 382.2 1436.6 386.7 1429.5 358 1455.3 353 Z" data-holc_grade="C"/>
<path d="M 1756.7 369.4 1777.4 465 1783.8 494.4 1811 592.4 1905.8 590.9 1899.9 527.2 1912.3 538.5 1911.4 558.6 1919 612.3 1837.5 611.1 1736.1 613 1738.2 640.8 1744.1 678.7 1722.1 679.1 1716.4 644 1709.5 581.9 1660.3 586.8 1641.9 587.5 1643.3 581.7 1640.6 553 1633.2 553.8 1627.2 542.3 1620.6 522.1 1611.7 488.1 1581.3 495.3 1581 493.8 1549.3 501.4 1530.6 418.6 1481.6 430.2 1384.5 453.2 1362.5 456.2 1360.3 444.1 1444.6 424.4 1543.3 401.3 1555.4 454.9 1566.2 452.6 1573.4 463.4 1604.9 455.8 1608.2 473.1 1623.3 469.6 1633.9 519.3 1650.6 516.7 1645.7 488.7 1633.4 434.6 1673.9 425.5 1734.7 415 1720.3 345.8 1731.3 344.1 1736.7 372.4 1756.7 369.4 Z M 1663.1 524 1642.2 528.3 1653.8 581.7 1706.2 573 1704.7 539.2 1674.4 545.6 1672.4 539.4 1666 542 1663.1 524 Z" data-holc_grade="C"/>
</g>
<g id="D">
<path d="M 1157.1 312.1 1165.2 351 941.7 418.3 936.1 406.6 796.9 453.9 770.1 463 763.1 446 967.4 374.9 962.8 353 1035 338.2 1056.1 333.6 1075 328.5 1154.5 299.5 1157.1 312.1 Z" data-holc_grade="D"/>
<path d="M 1633.4 434.6 1620.8 384.5 1589.9 391.1 1604.9 455.8 1573.4 463.4 1566.2 452.6 1555.4 454.9 1543.3 401.3 1444.6 424.4 1441.6 407.5 1466.6 401.7 1662.3 356 1720.3 345.8 1734.7 415 1673.9 425.5 1633.4 434.6 Z" data-holc_grade="D"/>
<path d="M 1875 93 1812.9 104.7 1808.2 82.1 1866.9 45.5 1875 93 Z" data-holc_grade="D"/>
<path d="M 2330.8 362.1 2319.1 376.3 2311.3 382 2304.6 380.3 2294.1 374.5 2283.8 372.5 2271.8 376.3 2260.3 385.5 2261.4 314.9 2268.9 320 2330.8 362.1 Z" data-holc_grade="D"/>
</g>
</svg>