<?xml version="1.0"?>
<svg xmlns="http://www.w3.org/2000/svg" version="1.2" baseProfile="tiny" width="3000" height="3824" viewBox="0 0 3000 3824" stroke-linecap="round" stroke-linejoin="round">
<g id="A">
<path d="M 1728.3 840.4 1713.3 842.1 1721.7 1274.1 1509.8 1280.7 1509.8 1251.7 1491.9 1251.7 1492 1217.9 1457.1 1217.4 1456.6 1198.1 1315.3 1199.1 1319.5 1159 1356.9 1059.7 1369.4 1040.5 1385.2 1015.9 1445 935.6 1490.7 890.1 1501.5 878.5 1527.3 840.5 1566.3 757.7 1598.7 701.5 1669.3 648.5 1668.5 770.1 1728.3 770.1 1728.3 840.4 Z" data-holc_grade="A"/>
<path d="M 1680.1 13.3 1681 252.4 1680.5 505.6 1657.8 513.3 1637.8 527.6 1621.8 542.5 1572.5 613.1 1552.6 632.4 1535.4 646.2 1513.3 673.8 1493.9 710.2 1479.5 763.7 1446 711.4 1444.4 4.3 1680.1 1 1680.1 13.3 Z" data-holc_grade="A"/>
<path d="M 1290.6 938.5 1290.1 865.2 1394.8 863.5 1394.8 834.3 1411.4 829.3 1414.7 756.5 1472.8 757.6 1479.5 763.7 1459.6 890 1445.7 903.8 1413 918.1 1373.2 925.3 1352.7 927 1321.6 928.6 1290.6 938.5 Z" data-holc_grade="A"/>
<path d="M 1260.8 1443.7 1173.1 1444.1 1156.5 1444.2 1155.8 1405.1 1163.4 1380.1 1163.7 1379 1287.8 1378.1 1269.4 1390.5 1262.9 1411.5 1265.3 1424.3 1260.8 1443.7 Z" data-holc_grade="A"/>
<path d="M 2701.5 1984.3 2731.5 1984.2 2734.2 2063.1 2734.2 2063.5 2734.2 2063.7 2680.8 2069.7 2680.8 2069 2626.5 2075.1 2626.5 2075.8 2626.5 2107.6 2626.5 2108.3 2544 2109.7 2542.7 2085.8 2482.1 2087.9 2483.5 2108.4 2483.4 2108.4 2483.5 2109.1 2452.2 2109.1 2446.2 2119.7 2438.2 2127.7 2424.9 2136.3 2409 2135 2409 2134.3 2408.9 2087.9 2408.9 2087.3 2445.5 2084.6 2444.8 2041.5 2444.8 2040.8 2518.7 2038.1 2519.3 1983.1 2406.8 1985.2 2406.8 1984.5 2406.6 1958.7 2625.7 1953.2 2626.4 1984.3 2701.5 1984.3 Z" data-holc_grade="A"/>
</g>
<g id="B">
<path d="M 1776.6 1407.3 1773.3 1419.8 1769.2 1452 1746.7 1470.3 1721.8 1481.9 1706 1501.7 1711.8 1539.8 1573.8 1546.5 1568.8 1542.3 1553.9 1547.3 1555.6 1659.1 1538.1 1659.1 1540.3 1498.3 1540.3 1494.4 1539.1 1336.6 1491.5 1336 1491.9 1251.7 1509.8 1251.7 1509.8 1280.7 1721.7 1274.1 1713.3 842.1 1728.3 840.4 1731.9 986.3 1737.8 1220.9 1739.2 1274.9 1740.9 1303 1745 1330.4 1776.6 1407.3 Z M 1728.3 770.1 1668.5 770.1 1669.3 648.5 1722 648.4 1728.3 770.1 Z" data-holc_grade="B"/>
<path d="M 1857 3071.6 1859.9 3183.6 1749.2 3185 1749.2 3070.9 1857 3071.6 Z" data-holc_grade="B"/>
<path d="M 1522.1 3110.1 1516.7 2838.2 1522 2768.8 1569.3 2768 1568 2823.6 1632.6 2985.4 1634.6 3057 1634.6 3103.5 1522.1 3110.1 Z" data-holc_grade="B"/>
<path d="M 1584.6 2767.7 1569.3 2768 1522 2768.8 1519.3 2715.2 1520.9 2715.2 1548.7 2715.2 1603.9 2681 1604.4 2658.2 1747 2657 1809.7 2655.7 1810.5 2723.2 1810.5 2761.2 1735.6 2764.6 1736.3 2871 1685.7 2871.7 1642 2766.7 1584.6 2767.7 Z" data-holc_grade="B"/>
<path d="M 1709.1 2438.9 1713.7 2560.9 1630.5 2560.3 1629.2 2437.6 1709.1 2438.9 Z" data-holc_grade="B"/>
<path d="M 2664.2 771 2681.5 774.9 2704 771.6 2722.6 768.2 2724.1 876.8 2644.3 876.2 2612.4 873.6 2597.2 875 2498.1 875.7 2501.4 845.3 2515.4 816.1 2532.6 796.9 2577.1 761.8 2612.3 741.9 2629.6 742.5 2652.9 755.8 2664.2 771 Z" data-holc_grade="B"/>
<path d="M 569.5 1985.5 455 1949.2 444.7 1946.9 445.6 1911.4 444.8 1884 443.7 1859.5 442.4 1836.3 572 1899.9 570.1 1909.8 569.5 1985.5 Z" data-holc_grade="B"/>
<path d="M 1566.3 757.7 1543.2 746 1554.8 720.7 1558.7 689.8 1553.7 676 1552.6 632.4 1572.5 613.1 1621.8 542.5 1643.9 555.8 1667.2 556.3 1669.3 648.5 1598.7 701.5 1566.3 757.7 Z M 1780.6 262.6 1779.7 168.8 1896.8 171.3 1896 235.8 1848.7 241.6 1780.6 262.6 Z" data-holc_grade="B"/>
<path d="M 1181.8 1339.8 1197.9 1286.9 1226.1 1231.1 1293.7 1183.1 1295.4 1232.8 1248.3 1268.7 1272.1 1339.3 1181.8 1339.8 Z" data-holc_grade="B"/>
<path d="M 1156.6 1113.7 1122 1038.2 1156.6 1038.9 1120.8 943.6 1155.3 942.3 1154.7 884 1173.9 883.3 1172.6 838.3 1210.9 832 1241.9 836.5 1287.3 834.3 1316.1 826 1340.5 810.6 1373.2 788 1385.9 768.1 1403.1 756 1414.7 756.5 1411.4 829.3 1394.8 834.3 1394.8 863.5 1290.1 865.2 1290.6 938.5 1276.8 960 1270.1 989.8 1268.5 1022.9 1271.8 1043.3 1276.8 1081.4 1156.6 1113.7 Z" data-holc_grade="B"/>
<path d="M 1769.1 658.5 1811.2 669.9 1891.4 667.7 1893.1 770.8 1767.4 770.8 1769.1 658.5 Z" data-holc_grade="B"/>
<path d="M 2287.1 1985.3 2281.1 1985.4 2282.4 1915.1 2338.1 1914.4 2406.1 1913.6 2406.6 1958.7 2406.8 1984.5 2406.8 1985.2 2287.1 1985.3 Z" data-holc_grade="B"/>
<path d="M 2734.2 2063.7 2733.6 2099.5 2733.6 2100.2 2794.2 2097.5 2795.5 2131.9 2682.4 2141.3 2680.8 2069.7 2734.2 2063.7 Z" data-holc_grade="B"/>
<path d="M 2680.8 2069.7 2682.4 2141.3 2795.5 2131.9 2795.5 2132.6 2682.4 2142 2667.8 2142.7 2667.1 2108.2 2649.8 2108.2 2651.1 2143.4 2651.2 2144 2625.2 2146 2625.9 2168.6 2625.9 2169.2 2607.9 2173.2 2587.3 2170.6 2552.7 2177.9 2541.4 2175.3 2520.1 2174 2512.1 2172 2484.2 2182 2468.2 2183.3 2454.2 2178.7 2423.6 2185.3 2417 2176.1 2406.3 2174.1 2383.1 2180.1 2341.1 2200 2292.6 2212.6 2287.1 1985.3 2406.8 1985.2 2519.3 1983.1 2518.7 2038.1 2444.8 2040.8 2444.8 2041.5 2445.5 2084.6 2408.9 2087.3 2408.9 2087.9 2409 2134.3 2409 2135 2424.9 2136.3 2438.2 2127.7 2446.2 2119.7 2452.2 2109.1 2483.5 2109.1 2483.4 2108.4 2483.5 2108.4 2482.1 2087.9 2542.7 2085.8 2544 2109.7 2626.5 2108.3 2626.5 2107.6 2626.5 2075.8 2626.5 2075.1 2680.8 2069 2680.8 2069.7 Z" data-holc_grade="B"/>
<path d="M 2090.3 2130.6 2041 2132.6 2040.3 2069 1985.1 2072.3 1985.1 2053.1 1996.4 2043.8 1995.7 1990.1 2092.2 1988.7 2090.3 2130.6 Z" data-holc_grade="B"/>
<path d="M 2325.1 2977.8 2239.9 2980.5 2237.2 2908.9 2195.9 2909.4 2175.3 2909.6 2171.8 2751.8 2171.8 2687.4 2201.1 2686.8 2204.5 2854.5 2323 2850.5 2325.1 2977.8 Z" data-holc_grade="B"/>
<path d="M 1633.3 3190.4 1749.2 3185 1859.9 3183.6 1860.8 3201.9 1963.2 3206.8 1970.8 3527.8 1966.7 3686.2 2080.8 3687 2082.5 3762.5 2090.1 3820.6 1902.6 3823.1 1866.8 3697.9 1636 3700.4 1633.3 3190.4 Z" data-holc_grade="B"/>
</g>
<g id="C">
<path d="M 1490.7 890.1 1459.6 890 1479.5 763.7 1493.9 710.2 1513.3 673.8 1535.4 646.2 1552.6 632.4 1553.7 676 1558.7 689.8 1554.8 720.7 1543.2 746 1566.3 757.7 1527.3 840.5 1501.5 878.5 1490.7 890.1 Z M 1156.6 1113.7 1173.2 1163.4 1143.9 1186.5 1155.9 1221.6 1120.7 1221.6 1105.4 1232.2 1104.7 1254.1 1140.6 1296.5 1159.8 1324.9 1168.5 1363.4 1163.7 1379 1163.4 1380.1 1155.8 1405.1 1156.5 1444.2 1173.1 1444.1 1166.2 1475.1 1161.3 1513.1 1162.7 1531.7 1171.8 1552.6 1143.8 1553.4 1144.5 1595.2 996.4 1598.6 999.8 1804.2 926.3 1804.9 859.5 1805.5 859.2 1777.2 858.8 1777.2 855.1 1642.1 722.8 1637.3 721.7 1447.9 714.8 1318.9 720.6 990.6 554.7 692.6 551.8 240.4 618.9 233.2 1178.1 224.3 1168.7 641.8 1177.3 788.7 1172.6 838.3 1173.9 883.3 1154.7 884 1155.3 942.3 1120.8 943.6 1156.6 1038.9 1122 1038.2 1156.6 1113.7 Z" data-holc_grade="C"/>
<path d="M 2287.1 1985.3 2292.6 2212.6 2235.4 2213.3 2178.8 2218.7 2178.8 2205.4 2151.5 2205.4 2134.9 2174.9 2134.8 2090.8 2181.4 2088.1 2179.3 1986.7 2179.9 1876.7 2338.9 1877.7 2338.1 1914.4 2282.4 1915.1 2281.1 1985.4 2287.1 1985.3 Z" data-holc_grade="C"/>
<path d="M 2124.7 1799.2 2125.3 1821.8 2179.2 1820.4 2179.9 1876.7 2179.3 1986.7 2092.2 1988.7 1995.7 1990.1 1844.7 1986.5 1846.3 1941.8 1850.2 1935.7 1943.1 1868.2 1982.3 1841.7 2022.9 1823.8 2050.2 1819.2 2049.5 1799.9 2124.7 1799.2 Z" data-holc_grade="C"/>
<path d="M 2090.3 2130.6 2090.3 2153.8 1906.6 2177 1906.6 2202.9 1854.1 2206.2 1852.7 2179 1832.1 2178.4 1829.4 2151.2 1827.4 2130.7 1815.5 2128 1813.4 2092.2 1800.1 2091.6 1799.4 1987 1844.7 1986.5 1995.7 1990.1 1996.4 2043.8 1985.1 2053.1 1985.1 2072.3 2040.3 2069 2041 2132.6 2090.3 2130.6 Z" data-holc_grade="C"/>
<path d="M 2413.7 2240.3 2463 2250.2 2461 2286 2501.6 2301.2 2407.1 2306 2406.5 2363.6 2180.9 2367.8 2178.8 2218.7 2235.4 2213.3 2292.6 2212.6 2413.7 2240.3 Z" data-holc_grade="C"/>
<path d="M 2967.4 2839.5 2846.1 2840.4 2969 2930 2973.3 3060.6 2808.9 3069.1 2348 2693.1 2346.5 2537 2349.9 2505.2 2373.5 2530.8 2408.9 2526.6 2494.1 2525.1 2592 2625.9 2963.7 2615 2967.4 2839.5 Z" data-holc_grade="C"/>
<path d="M 2019.4 2871.2 1964.2 2869.9 1961.4 2652.4 2109.1 2649.2 2110.6 2753.8 2171.8 2751.8 2175.3 2909.6 2072.7 2911 2069.4 2873.8 2019.4 2871.2 Z" data-holc_grade="C"/>
<path d="M 1757 2529.7 1755 2395.8 1747.7 2395.2 1747 2367.3 1849.5 2366.6 1901.4 2365.9 1902.1 2393.8 1934.7 2393.8 1935.3 2426.9 1902.7 2428.3 1906.7 2465.4 1915.4 2464.7 1917.4 2535 1857.5 2537 1856.2 2499.2 1844.9 2500.5 1844.8 2474 1833.5 2474.7 1818.2 2482 1802.9 2497.2 1781 2517.8 1757 2529.7 Z" data-holc_grade="C"/>
<path d="M 1810.5 2723.2 1809.7 2655.7 1858.2 2654.6 1858.2 2721.4 1810.5 2723.2 Z" data-holc_grade="C"/>
<path d="M 1604.4 2658.2 1603.9 2681 1548.7 2715.2 1520.9 2715.2 1519.3 2715.2 1518.7 2614.4 1581.9 2613.3 1582 2613.9 1582.6 2658.4 1604.4 2658.2 Z" data-holc_grade="C"/>
<path d="M 1584.6 2767.7 1673.9 2986.1 1748.5 2983.4 1749.2 3070.9 1749.2 3185 1633.3 3190.4 1634.6 3103.5 1634.6 3057 1632.6 2985.4 1568 2823.6 1569.3 2768 1584.6 2767.7 Z M 2625.9 2169.2 2628.6 2191.8 2684.5 2189 2685.2 2208.3 2625.3 2211.6 2626 2295.2 2463 2250.2 2413.7 2240.3 2411 2201.2 2341.1 2200 2383.1 2180.1 2406.3 2174.1 2417 2176.1 2423.6 2185.3 2454.2 2178.7 2468.2 2183.3 2484.2 2182 2512.1 2172 2520.1 2174 2541.4 2175.3 2552.7 2177.9 2587.3 2170.6 2607.9 2173.2 2625.9 2169.2 Z" data-holc_grade="C"/>
<path d="M 1491.9 1251.7 1491.5 1336 1539.1 1336.6 1540.3 1494.4 1540.3 1498.3 1492.1 1501 1455 1503.2 1453.3 1340.4 1373.5 1341.5 1370.7 1230.1 1315.3 1230 1315.3 1199.1 1456.6 1198.1 1457.1 1217.4 1492 1217.9 1491.9 1251.7 Z" data-holc_grade="C"/>
<path d="M 997.9 2104.8 851.6 2033 851.9 2131.5 783.1 2133 781.8 2106.2 746.5 2106.6 744.8 2012.1 741.5 2012 740.5 1964.4 741.4 1928.5 742.5 1900.6 785.5 1898.5 861.4 1894.1 859.5 1805.5 926.3 1804.9 999.8 1804.2 1037.7 1848.9 1029.1 1880.7 1031.6 1887.8 1035.1 1999.1 1023.5 1998.5 1024.6 2092.7 998.2 2093.2 997.9 2104.8 Z" data-holc_grade="C"/>
<path d="M 1002.7 2266.2 1002.3 2235.7 969.9 2241.5 969.1 2124.4 998.8 2123.3 1081 2166.8 1083.6 2262.2 1002.7 2266.2 Z" data-holc_grade="C"/>
<path d="M 851.9 2131.5 852 2200.8 944.7 2346 883.7 2365.7 642.1 2446.8 606.9 2455.6 460.4 2495.5 461.4 2514.8 337.9 2551.2 309.1 2559.6 308.6 2582.6 307.6 2678.1 130.8 2686.2 131.2 2611.4 3.2 2648.7 1 2463 337 2445.2 334.7 2273.9 329.1 2078.2 326.5 1920.4 444.7 1946.9 455 1949.2 569.5 1985.5 573.1 1986.6 665.6 2008.1 682.9 2010.5 741.5 2012 744.8 2012.1 746.5 2106.6 781.8 2106.2 783.1 2133 851.9 2131.5 Z M 572 1899.9 442.4 1836.3 441.7 1672 589.1 1671.4 590.3 1892.5 572 1899.9 Z" data-holc_grade="C"/>
<path d="M 1947.6 3031.1 2195.5 3210.8 2197.3 3524.3 1970.8 3527.8 1963.2 3206.8 1860.8 3201.9 1859.9 3183.6 1857 3071.6 1863 2986 1947.6 3031.1 Z" data-holc_grade="C"/>
<path d="M 1516.7 2838.2 1522.1 3110.1 1521.4 3213.6 1526.7 3341.6 1526.1 3428.6 1428.8 3434.5 1326.2 3434.5 1187.7 3110.7 1187.2 2838.1 1318.3 2817.6 1484.1 2813.6 1485.4 2839.5 1516.7 2838.2 Z" data-holc_grade="C"/>
<path d="M 1240.2 1844.9 1051.5 1848.6 1051.1 1848 1037.7 1848.9 999.8 1804.2 996.4 1598.6 1144.5 1595.2 1184.4 1595.2 1187.6 1776 1238.8 1778 1240.2 1844.9 Z M 1310.7 1443.5 1331.3 1505.8 1455 1503.2 1456.4 1538.9 1349.3 1540.9 1349.3 1547.5 1182.4 1552.3 1171.8 1552.6 1162.7 1531.7 1161.3 1513.1 1166.2 1475.1 1173.1 1444.1 1260.8 1443.7 1310.7 1443.5 Z" data-holc_grade="C"/>
<path d="M 1540.3 1498.3 1538.1 1659.1 1527.3 1846.2 1502.3 1846.2 1499 1675.6 1505.7 1671.5 1508.2 1581.2 1492.4 1581.2 1492.1 1501 1540.3 1498.3 Z M 1769.2 1452 1737 1574.7 1704.3 1575.8 1710.5 1771.8 1680 1771.8 1682.8 1894.4 1680.6 1975.5 1548.6 1978.3 1547 1787.1 1555.6 1659.1 1553.9 1547.3 1568.8 1542.3 1573.8 1546.5 1711.8 1539.8 1706 1501.7 1721.8 1481.9 1746.7 1470.3 1769.2 1452 Z" data-holc_grade="C"/>
<path d="M 1896.8 171.3 1779.7 168.8 1780.6 262.6 1757.6 289.5 1732 334.3 1726.6 253.8 1681 252.4 1680.1 13.3 2138.7 23.4 2126.9 46.8 2101.4 77.9 2046.1 121.3 2005.2 126.8 1966.5 173 1896.8 171.3 Z M 2948.9 1094.1 2246.8 1090.7 2237.2 1099 2203.9 1076.9 2189 1093.3 2133.8 1097.9 2113.9 1117.2 2093.3 1156.9 2074 1174.8 2067.4 1186.7 1997.6 1242.9 1895.4 1273.5 1801.3 1429 1791.3 1457.1 1776.6 1407.3 1745 1330.4 1740.9 1303 1739.2 1274.9 1737.8 1220.9 1902.7 1216.3 1903.5 1175.7 1955.8 1172.4 1952.4 984.9 1731.9 986.3 1728.3 840.4 1728.3 770.1 1722 648.4 1669.3 648.5 1706.5 626.9 1726.4 623.6 1745.8 626.9 1775.7 645 1794.8 650.8 1809.8 643.4 1829.7 616.1 1835.2 594.2 1894.7 592.8 1891.9 394.9 1956.9 390.1 1956.2 324.6 1973.5 316.3 1988.7 307.4 1997 299.1 2003.2 283.9 2006 269.5 2012.2 247.4 2017 222.6 2020.5 204 2026 182.6 2033.6 164.7 2042.6 150.2 2063.4 139.2 2089.6 130.2 2116.6 124.7 2137.4 113.7 2151.9 99.9 2163.6 74.4 2167.1 46.8 2172.6 22.7 2251.2 29.5 2373.2 12.1 2556.6 9.4 2999 11.4 2995.3 295.8 2993.9 509.2 2943.3 560.5 2948.9 975 2948.9 1094.1 Z M 1769.1 658.5 1767.4 770.8 1893.1 770.8 1891.4 667.7 1811.2 669.9 1769.1 658.5 Z M 2664.2 771 2652.9 755.8 2629.6 742.5 2612.3 741.9 2577.1 761.8 2532.6 796.9 2515.4 816.1 2501.4 845.3 2498.1 875.7 2597.2 875 2612.4 873.6 2644.3 876.2 2724.1 876.8 2722.6 768.2 2704 771.6 2681.5 774.9 2664.2 771 Z" data-holc_grade="C"/>
<path d="M 2624.4 1430.3 2399.2 1430.5 2394.9 1321.2 2063.3 1321.5 2004.3 1321.5 1997.6 1242.9 2067.4 1186.7 2074 1174.8 2093.3 1156.9 2113.9 1117.2 2133.8 1097.9 2189 1093.3 2203.9 1076.9 2237.2 1099 2246.8 1090.7 2948.9 1094.1 2948 1430.7 2624.4 1430.3 Z" data-holc_grade="C"/>
<path d="M 1737.8 1220.9 1731.9 986.3 1952.4 984.9 1955.8 1172.4 1903.5 1175.7 1902.7 1216.3 1737.8 1220.9 Z" data-holc_grade="C"/>
<path d="M 2399.2 1430.5 2370.9 1430.5 2371 1490.1 2234.7 1491.9 2233.9 1527.5 2159 1528.4 2159 1487.8 2141.6 1487.8 2142.4 1431.5 2069.2 1431.6 2067.3 1539.3 1957 1541 1954.2 1431.1 1801.3 1429 1895.4 1273.5 1997.6 1242.9 2004.3 1321.5 2063.3 1321.5 2394.9 1321.2 2399.2 1430.5 Z" data-holc_grade="C"/>
<path d="M 2690 2352.8 2685.2 2208.3 2684.5 2189 2682.4 2142 2795.5 2132.6 2795.5 2131.9 2794.2 2097.5 2733.6 2100.2 2733.6 2099.5 2734.2 2063.7 2734.2 2063.5 2734.2 2063.1 2731.5 1984.2 2701.5 1984.3 2700.6 1942.8 2699.7 1867.4 2838.6 1864.7 2836.8 1757.1 2905.8 1758.6 2908.5 1927.6 2851.9 1913.6 2852 1979 2961 1978.9 2966.4 2282.1 2964.9 2445.3 2691.1 2366.9 2690 2352.8 Z" data-holc_grade="C"/>
</g>
<g id="D">
<path d="M 1490.7 890.1 1445 935.6 1385.2 1015.9 1369.4 1040.5 1271.8 1043.3 1268.5 1022.9 1270.1 989.8 1276.8 960 1290.6 938.5 1321.6 928.6 1352.7 927 1373.2 925.3 1413 918.1 1445.7 903.8 1459.6 890 1490.7 890.1 Z" data-holc_grade="D"/>
<path d="M 1675.1 2206.3 1701 2176.4 1719.7 2164.5 1736.9 2139.3 1741 1987.7 1799.4 1987 1800.1 2091.6 1813.4 2092.2 1815.5 2128 1827.4 2130.7 1829.4 2151.2 1832.1 2178.4 1852.7 2179 1854.1 2206.2 1665.8 2216.2 1675.1 2206.3 Z" data-holc_grade="D"/>
<path d="M 1850.8 2244 1849.5 2366.6 1747 2367.3 1747.7 2395.2 1737.7 2395.2 1639.2 2273.9 1639.1 2236.1 1850.8 2244 Z" data-holc_grade="D"/>
<path d="M 2109.1 2649.2 1961.4 2652.4 1858.2 2654.6 1809.7 2655.7 1747 2657 1747 2595.4 1752.4 2593.4 1751.7 2535.7 1757 2529.7 1781 2517.8 1802.9 2497.2 1818.2 2482 1833.5 2474.7 1844.8 2474 1844.9 2500.5 1856.2 2499.2 1857.5 2537 1917.4 2535 1915.4 2464.7 1906.7 2465.4 1902.7 2428.3 1935.3 2426.9 1934.7 2393.8 1902.1 2393.8 1901.4 2365.9 1849.5 2366.6 1850.8 2244 1921.3 2248 1971.9 2244.6 2031.8 2238.6 2093 2226 2124.2 2222.7 2122.9 2175.6 2134.9 2174.9 2151.5 2205.4 2178.8 2205.4 2178.8 2218.7 2180.9 2367.8 2185.1 2647.6 2109.1 2649.2 Z" data-holc_grade="D"/>
<path d="M 2967.4 2839.5 2969 2930 2846.1 2840.4 2967.4 2839.5 Z M 2349.9 2505.2 2347.8 2413.4 2410.8 2413.3 2492.6 2409.1 2494.1 2525.1 2408.9 2526.6 2373.5 2530.8 2349.9 2505.2 Z M 2685.2 2208.3 2690 2352.8 2406.5 2363.6 2407.1 2306 2501.6 2301.2 2461 2286 2463 2250.2 2626 2295.2 2625.3 2211.6 2685.2 2208.3 Z M 2413.7 2240.3 2292.6 2212.6 2341.1 2200 2411 2201.2 2413.7 2240.3 Z M 2682.4 2142 2684.5 2189 2628.6 2191.8 2625.9 2169.2 2625.9 2168.6 2625.2 2146 2651.2 2144 2651.1 2143.4 2649.8 2108.2 2667.1 2108.2 2667.8 2142.7 2682.4 2142 Z" data-holc_grade="D"/>
<path d="M 2093 2226 2090.3 2153.8 2090.3 2130.6 2092.2 1988.7 2179.3 1986.7 2181.4 2088.1 2134.8 2090.8 2134.9 2174.9 2122.9 2175.6 2124.2 2222.7 2093 2226 Z" data-holc_grade="D"/>
<path d="M 2195.9 2909.4 2200.7 3095.3 2141.4 3094 2078.1 3094 2072.7 2911 2175.3 2909.6 2195.9 2909.4 Z M 2201.1 2686.8 2417.6 2853.7 2418.3 2924 2475.6 2969.7 2325.1 2977.8 2323 2850.5 2204.5 2854.5 2201.1 2686.8 Z" data-holc_grade="D"/>
<path d="M 1749.2 3070.9 1748.5 2983.4 1673.9 2986.1 1584.6 2767.7 1642 2766.7 1685.7 2871.7 1736.3 2871 1735.6 2764.6 1810.5 2761.2 1810.5 2723.2 1858.2 2721.4 1858.2 2654.6 1961.4 2652.4 1964.2 2869.9 2019.4 2871.2 2020.8 3027.7 1947.6 3031.1 1863 2986 1857 3071.6 1749.2 3070.9 Z" data-holc_grade="D"/>
<path d="M 1709.1 2438.9 1629.2 2437.6 1630.5 2560.3 1713.7 2560.9 1713.7 2594.7 1747 2595.4 1747 2657 1604.4 2658.2 1582.6 2658.4 1582 2613.9 1581.9 2613.3 1580.6 2523.8 1548.7 2523.1 1550 2365.4 1617.2 2364.7 1616.5 2335.5 1645.2 2335.5 1709.1 2438.9 Z M 1310.7 1443.5 1260.8 1443.7 1265.3 1424.3 1262.9 1411.5 1269.4 1390.5 1287.8 1378.1 1310.7 1443.5 Z" data-holc_grade="D"/>
<path d="M 1518.7 2614.4 1519.3 2715.2 1522 2768.8 1516.7 2838.2 1485.4 2839.5 1484.1 2813.6 1318.3 2817.6 1325.6 2797.7 1342.3 2775.8 1347.6 2755.9 1409.5 2640.6 1418.9 2610.7 1417.5 2584.2 1404.9 2556.4 1379.6 2523.2 1345.7 2441 1394.3 2440.4 1395.6 2315.1 1418.9 2293.2 1498.8 2295.9 1498.8 2598.8 1518.3 2599.5 1518.7 2614.4 Z" data-holc_grade="D"/>
<path d="M 1080.2 2673.6 1079.9 2668.9 1073 2659.2 1067.2 2659.2 1056.9 2661.9 1030 2664.7 1025.6 2658.6 1026.1 2646.5 1029.7 2635.1 1030 2616.9 1023.6 2595.3 1019.2 2575.4 1021.7 2563.8 1022.5 2553.6 1017 2549.5 1007.6 2539.5 996.8 2521.6 987.4 2499.2 973.5 2476.8 954.7 2452.8 939.1 2418.2 923.1 2401.9 902.8 2389.8 892.6 2381.5 883.7 2365.7 944.7 2346 1001.8 2327.1 1003.4 2330.4 1187.3 2326.7 1186.9 2272 1250.9 2270.4 1251.4 2299 1321.2 2297.7 1327.8 2554.2 1245.1 2504.1 1080.2 2673.6 Z" data-holc_grade="D"/>
<path d="M 1669.3 648.5 1667.2 556.3 1643.9 555.8 1621.8 542.5 1637.8 527.6 1657.8 513.3 1680.5 505.6 1712 507.2 1747.4 520.5 1764.6 537 1766.8 562.4 1756.3 582.8 1743.6 597.7 1740.8 608.1 1745.8 626.9 1726.4 623.6 1706.5 626.9 1669.3 648.5 Z" data-holc_grade="D"/>
<path d="M 130.8 2686.2 3.9 2692.9 3.2 2648.7 131.2 2611.4 130.8 2686.2 Z M 1080.2 2673.6 1080.7 2680.7 1084.3 2694.3 1080.7 2701.2 1082.1 2710.6 1080.2 2739.9 1075.2 2753.1 1073.5 2762 1075.4 2779.6 1077.6 2810.3 1084 2841.5 1082.3 2874.4 1088.4 2898.7 1097.6 2926.9 1080.1 2936.3 1071.2 2949.3 1064.3 2975.3 1060.4 2999.6 1059.8 3011.2 797 3032.1 721.3 3036.4 572.5 3040.7 334.7 3052.4 335 2850.4 337.5 2585.4 337.5 2579.8 308.6 2582.6 309.1 2559.6 337.9 2551.2 461.4 2514.8 460.4 2495.5 606.9 2455.6 642.1 2446.8 883.7 2365.7 892.6 2381.5 902.8 2389.8 923.1 2401.9 939.1 2418.2 954.7 2452.8 973.5 2476.8 987.4 2499.2 996.8 2521.6 1007.6 2539.5 1017 2549.5 1022.5 2553.6 1021.7 2563.8 1019.2 2575.4 1023.6 2595.3 1030 2616.9 1029.7 2635.1 1026.1 2646.5 1025.6 2658.6 1030 2664.7 1056.9 2661.9 1067.2 2659.2 1073 2659.2 1079.9 2668.9 1080.2 2673.6 Z" data-holc_grade="D"/>
<path d="M 1203.5 1996.3 1214.3 1999.3 1237.2 2000.4 1269.6 2005.1 1298 2006 1311.7 1999.8 1348.4 2030.8 1416.1 2088 1417.2 2181.2 1313.4 2181.3 1261.3 2179.7 1231.4 2167.1 1216.6 2156.1 1193.1 2120.3 1172.4 2092.7 1155.7 2061.5 1150.4 2043 1151.3 2003.4 1160.9 2000.6 1177.5 1994.5 1188.7 1994.1 1203.5 1996.3 Z" data-holc_grade="D"/>
<path d="M 1083.6 2262.2 1081 2166.8 998.8 2123.3 997.9 2104.8 998.2 2093.2 1024.6 2092.7 1023.5 1998.5 1035.1 1999.1 1128.5 1997.9 1144.9 1998.9 1151.3 2003.4 1150.4 2043 1155.7 2061.5 1172.4 2092.7 1193.1 2120.3 1216.6 2156.1 1231.4 2167.1 1261.3 2179.7 1261.8 2203.5 1138.2 2215.8 1138 2260.3 1083.6 2262.2 Z" data-holc_grade="D"/>
<path d="M 997.9 2104.8 998.8 2123.3 969.1 2124.4 969.9 2241.5 1002.3 2235.7 1002.7 2266.2 1003.4 2330.4 1001.8 2327.1 944.7 2346 852 2200.8 851.9 2131.5 851.6 2033 997.9 2104.8 Z" data-holc_grade="D"/>
<path d="M 1203.5 1996.3 1188.7 1994.1 1177.5 1994.5 1160.9 2000.6 1151.3 2003.4 1144.9 1998.9 1128.5 1997.9 1035.1 1999.1 1031.6 1887.8 1029.1 1880.7 1037.7 1848.9 1051.1 1848 1051.5 1848.6 1072.5 1880.1 1104.5 1901 1128.8 1909.1 1166.1 1921.9 1192.9 1936.7 1206 1950.5 1205.7 1960.5 1200 1973.5 1198.7 1981.4 1201.2 1992.4 1203.5 1996.3 Z M 742.5 1900.6 740.6 1784.8 858.8 1777.2 859.2 1777.2 859.5 1805.5 861.4 1894.1 785.5 1898.5 742.5 1900.6 Z" data-holc_grade="D"/>
<path d="M 1348.4 2030.8 1311.7 1999.8 1322 1991.3 1327.9 1978.9 1329.5 1957.7 1331.2 1949.9 1347.4 1941.2 1355.3 1930.8 1353.8 1921.5 1442.2 1843 1452.6 1857.5 1459.7 1875.3 1464.2 1898.9 1460.9 1982.6 1462.6 1999.6 1458.8 2074.5 1455.9 2082 1368.6 2009.1 1348.4 2030.8 Z M 1499 1675.6 1502.3 1846.2 1527.3 1846.2 1525.4 1881.8 1476.3 1882.1 1474.9 1850.4 1453 1832.4 1452.2 1789.9 1416.7 1789.3 1403.7 1750.4 1433.1 1756.5 1451.4 1750.7 1474.1 1746.8 1482.7 1731.9 1477.4 1710.7 1479.1 1689.7 1488.2 1678.9 1499 1675.6 Z" data-holc_grade="D"/>
<path d="M 1324.6 1718 1311.7 1738.7 1293.4 1750.7 1289.2 1762.3 1303.4 1815.7 1300 1858.3 1300.4 1869.9 1313.7 1884.4 1340.8 1899.8 1352.4 1912.2 1353.8 1921.5 1355.3 1930.8 1347.4 1941.2 1331.2 1949.9 1329.5 1957.7 1327.9 1978.9 1322 1991.3 1311.7 1999.8 1301.2 1995.8 1266.7 1943.2 1240.6 1913.4 1240.2 1844.9 1238.8 1778 1187.6 1776 1184.4 1595.2 1144.5 1595.2 1143.8 1553.4 1171.8 1552.6 1182.4 1552.3 1324.6 1718 Z" data-holc_grade="D"/>
<path d="M 1499 1675.6 1488.2 1678.9 1479.1 1689.7 1477.4 1710.7 1482.7 1731.9 1474.1 1746.8 1451.4 1750.7 1433.1 1756.5 1403.7 1750.4 1384.8 1740.3 1367.8 1735 1351.2 1718 1338.7 1712.6 1324.6 1718 1182.4 1552.3 1349.3 1547.5 1349.3 1540.9 1456.4 1538.9 1455 1503.2 1492.1 1501 1492.4 1581.2 1508.2 1581.2 1505.7 1671.5 1499 1675.6 Z" data-holc_grade="D"/>
<path d="M 1835.2 594.2 1834.5 581.1 1832.4 566.6 1822.1 539 1814.4 502.5 1809.6 468.7 1809.6 451.5 1752.1 451.5 1744.5 386.7 1732 334.3 1757.6 289.5 1780.6 262.6 1848.7 241.6 1896 235.8 1896.8 171.3 1966.5 173 2005.2 126.8 2046.1 121.3 2101.4 77.9 2126.9 46.8 2138.7 23.4 2172.6 22.7 2167.1 46.8 2163.6 74.4 2151.9 99.9 2137.4 113.7 2116.6 124.7 2089.6 130.2 2063.4 139.2 2042.6 150.2 2033.6 164.7 2026 182.6 2020.5 204 2017 222.6 2012.2 247.4 2006 269.5 2003.2 283.9 1997 299.1 1988.7 307.4 1973.5 316.3 1956.2 324.6 1956.9 390.1 1891.9 394.9 1894.7 592.8 1835.2 594.2 Z" data-holc_grade="D"/>
<path d="M 2623.8 1661.3 2185.8 1761.8 2186.6 1674.9 2234.8 1643.4 2233.9 1527.5 2234.7 1491.9 2371 1490.1 2370.9 1430.5 2399.2 1430.5 2624.4 1430.3 2623.8 1661.3 Z" data-holc_grade="D"/>
<path d="M 2406.1 1913.6 2338.1 1914.4 2338.9 1877.7 2179.9 1876.7 2179.2 1820.4 2125.3 1821.8 2124.7 1799.2 2125.1 1766 2185.8 1761.8 2623.8 1661.3 2629.1 1873.3 2406.2 1877.6 2406.1 1913.6 Z" data-holc_grade="D"/>
<path d="M 2233.9 1527.5 2234.8 1643.4 2186.6 1674.9 2185.8 1761.8 2125.1 1766 2124.7 1799.2 2049.5 1799.9 2050.2 1819.2 2022.9 1823.8 1982.3 1841.7 1943.1 1868.2 1850.2 1935.7 1840.2 1920.3 1834.7 1903.7 1837.4 1872.2 1845.7 1844.1 1877.9 1791.1 1887.8 1761.3 1930.5 1764.6 1964.9 1765.1 1989.3 1771.1 2016.4 1774.4 2038.6 1758.4 2038 1657.4 2067.4 1657.4 2067.3 1539.3 2069.2 1431.6 2142.4 1431.5 2141.6 1487.8 2159 1487.8 2159 1528.4 2233.9 1527.5 Z" data-holc_grade="D"/>
<path d="M 1799.4 1987 1741 1987.7 1739.3 1977.2 1741.5 1880.6 1737.6 1695.1 1791.3 1457.1 1801.3 1429 1954.2 1431.1 1957 1541 2067.3 1539.3 2067.4 1657.4 2038 1657.4 2038.6 1758.4 2016.4 1774.4 1989.3 1771.1 1964.9 1765.1 1930.5 1764.6 1887.8 1761.3 1877.9 1791.1 1845.7 1844.1 1837.4 1872.2 1834.7 1903.7 1840.2 1920.3 1850.2 1935.7 1846.3 1941.8 1844.7 1986.5 1799.4 1987 Z" data-holc_grade="D"/>
<path d="M 1680.6 1975.5 1682.8 1894.4 1680 1771.8 1710.5 1771.8 1704.3 1575.8 1737 1574.7 1769.2 1452 1773.3 1419.8 1776.6 1407.3 1791.3 1457.1 1737.6 1695.1 1741.5 1880.6 1739.3 1977.2 1680.6 1975.5 Z" data-holc_grade="D"/>
<path d="M 1675.1 2206.3 1664.4 2204.3 1642.5 2204.3 1639.1 2106.9 1741 1987.7 1736.9 2139.3 1719.7 2164.5 1701 2176.4 1675.1 2206.3 Z M 1548.6 1978.3 1680.6 1975.5 1739.3 1977.2 1591.9 2076.4 1550.6 2076.4 1548.6 1978.3 Z" data-holc_grade="D"/>
</g>
</svg>