<?xml version="1.0"?>
<svg xmlns="http://www.w3.org/2000/svg" version="1.2" baseProfile="tiny" width="3000" height="3787" viewBox="0 0 3000 3787" stroke-linecap="round" stroke-linejoin="round">
<g id="A">
<path d="M 862.1 2479.5 814.2 2500.4 797.6 2503.4 765.3 2491.4 735.2 2467.4 708.9 2434.4 680.4 2388.7 665.3 2324.3 627.9 2322.9 628.5 2301.1 623.5 2198.3 620.3 2132.6 621.8 2024.7 625.7 1737.7 582.9 1738.6 584.5 1509.5 773.8 1508 771.4 1780.6 740.2 1782.3 743.6 2153.6 1048 2155.7 1047.2 2302.6 1047 2345.1 1041.6 2348.8 852.1 2479.8 862.1 2479.5 Z" data-holc_grade="A"/>
</g>
<g id="B">
<path d="M 1304 1589.5 1317.2 1589.8 1319.1 1598.8 1313.8 1598.8 1314.4 1623.8 1383.1 1626.5 1391.1 1762 1432.7 1761.4 1440.4 2086.6 1144.6 2090.5 1151.6 2350.7 1154.4 2350.9 1149.9 2531.6 1008 2535.4 1009.4 2475 862.1 2479.5 852.1 2479.8 1041.6 2348.8 1047 2345.1 1047.2 2302.6 1048 2155.7 743.6 2153.6 740.2 1782.3 771.4 1780.6 773.8 1508 584.5 1509.5 582.9 1738.6 625.7 1737.7 621.8 2024.7 620.3 2132.6 623.5 2198.3 628.5 2301.1 627.9 2322.9 618.6 2641.2 569 2639.7 569 2638.2 569.2 2633.9 579.7 2270.4 567.3 2147.9 569.7 1801 300.6 2020.9 296.1 1678 542.7 1684 547.5 1500.3 571.3 1501.1 581.1 1501.4 581.5 1492.3 592.1 1486.1 593.8 1439.5 596.5 1366.7 621 1347.6 645.1 1329.9 663.8 1324.1 706.2 1324.1 732.6 1332.3 754.7 1352.4 760 1367.3 757.2 1274.8 785.5 1267.6 815.4 1267.1 851 1269.5 904.3 1273.4 924.6 1279.3 925.5 1279.6 926.7 1279.2 958.7 1268.6 965.2 1270.4 1023.3 1286.4 1045.7 1292.6 1056.2 1300.6 1085.6 1323.3 1117.4 1330.9 1180.9 1356.3 1206.4 1369.8 1207.8 1407.1 1151 1411 1146.9 1586.2 1304 1589.5 Z" data-holc_grade="B"/>
<path d="M 871.7 651 869.9 645.7 1079.5 650.6 1056.4 752.6 908.8 756.9 871.7 651 Z" data-holc_grade="B"/>
<path d="M 1504.4 2361.7 1504.7 2361.7 1508.7 2438.1 1619 2619.8 1613.6 2647.2 1419.1 2657.4 1416.8 2656.7 1292.6 2665.9 1291.3 2361.5 1291.3 2357.8 1504.4 2361.7 Z" data-holc_grade="B"/>
<path d="M 1731.3 1355.8 1725 1341.2 1725.3 1260.3 1725.3 1209.2 1924.9 1211.5 1934.3 1310.9 1919 1334.3 1920.5 1351 1748.1 1394.8 1748 1394.5 1745.8 1389.3 1732.9 1359.4 1731.3 1355.8 Z" data-holc_grade="B"/>
<path d="M 1372.9 3117.8 1373.8 3119.6 1316.7 3122.2 1301.1 3122.9 1253.9 3018.2 989.1 3014.9 986.5 2913.4 1055.9 2909.5 1055.3 2956.9 1295.8 2957.6 1372.9 3117.8 Z" data-holc_grade="B"/>
</g>
<g id="C">
<path d="M 1162.2 500.3 1131.5 500.2 1123.8 525.5 1189.2 528.9 1183.9 560 1119 559.6 1114.1 588.3 1183.9 588.8 1177.2 707.3 1175.6 882.5 1177.5 1216.1 1305.8 1215.2 1303.9 1309 1259.3 1309.3 1258.5 1370 1258 1369.8 1015.1 1276.7 960.3 1257.3 889.6 1252 817.5 1243.7 725.1 1252 655.7 1270.9 587.1 1297.5 546.4 1315.5 478.1 1339.4 385.1 1356.3 261.1 1352.8 186 1346.3 109 1324.5 35.5 1296.6 3.6 1278.4 3.1 858.4 412.6 866.3 414.9 798.9 571.2 802 570.1 601.5 792 600.8 692.3 416 576.1 295.5 603.1 271 668.8 337.6 593.8 11.4 634.9 13.7 733.4 390.3 839 573.9 1076.1 578.7 1104.8 446.4 973.4 439.8 972.5 470.5 929.5 473 928 368.9 879.2 367.9 873.4 11.7 918.5 10.2 922.2 316.3 969.3 317.3 973.7 390.5 1115.5 391.4 1129.5 314.1 1110 7.3 1168.6 8 1174.6 317.8 1143.5 461.8 1181.5 466.6 1183.9 493 1162.7 499.7 1162.2 500.3 Z M 871.7 651 908.8 756.9 1056.4 752.6 1079.5 650.6 869.9 645.7 871.7 651 Z" data-holc_grade="C"/>
<path d="M 1729.5 1351.6 1729 1351.9 1637.3 1381 1599 1207.9 1448 1208.7 1448.7 1121.1 1663.7 1117.3 1667.4 722 1709.5 716 1716.2 604.6 1850.3 604.6 1856.6 880.1 2305.7 880 2308.1 1020.3 2541.9 1021.7 2541.8 866.4 2596.1 865 2600 884.6 2649.5 885.1 2658.7 891.8 2658.7 933.5 2601.5 937.3 2610.7 1119.9 2734.3 1075.3 2734.7 1567.7 2583.5 1563.1 2589.3 1737.1 2595.1 1738.3 2672.2 1742 2997.1 1955.7 2999 2005.1 2641.6 1778.2 2596.5 1778.2 2592 1935.5 2703.3 2017.1 2696.6 2051.5 2371.4 1870.9 2372.8 1500 2400.7 1500.9 2392.6 1237.7 2252.8 1278.9 2248.4 1414.4 2212.3 1414.4 2213.8 1576.2 2163.5 1576.2 2159.8 1685.5 1962.8 1607.7 1917 1565.8 1916.2 1521.6 2075.5 1514.1 2082.3 1438.4 2010.1 1437 2009.4 1395 1904.2 1422 1901.9 1380.1 1749.4 1422.8 1748 1394.9 1748.1 1394.8 1920.5 1351 1919 1334.3 1934.3 1310.9 1924.9 1211.5 1725.3 1209.2 1725.3 1260.3 1725 1341.2 1729.5 1351.6 Z" data-holc_grade="C"/>
<path d="M 880.3 2928.8 586.2 3208.8 579.1 2951.9 581.7 2876.9 630.7 2889.1 850.7 2893.8 880.3 2928.8 Z M 1258.5 1370 1265.4 1372.6 1261.6 1419.8 1212 1420.5 1218 1553.8 1302.9 1550.1 1304 1589.5 1146.9 1586.2 1151 1411 1207.8 1407.1 1206.4 1369.8 1180.9 1356.3 1117.4 1330.9 1085.6 1323.3 1056.2 1300.6 1045.7 1292.6 1023.3 1286.4 965.2 1270.4 958.7 1268.6 926.7 1279.2 925.5 1279.6 924.6 1279.3 904.3 1273.4 851 1269.5 815.4 1267.1 785.5 1267.6 757.2 1274.8 760 1367.3 754.7 1352.4 732.6 1332.3 706.2 1324.1 663.8 1324.1 645.1 1329.9 621 1347.6 596.5 1366.7 593.8 1439.5 592.1 1486.1 581.5 1492.3 581.1 1501.4 571.3 1501.1 547.5 1500.3 542.7 1684 296.1 1678 300.6 2020.9 569.7 1801 567.3 2147.9 579.7 2270.4 569.2 2633.9 569 2638.2 544.4 2642.6 554 2331.8 258.6 2333.9 254.4 1661.8 2.3 1663.1 1 1276.9 2.3 1277.7 3.6 1278.4 35.5 1296.6 109 1324.5 186 1346.3 261.1 1352.8 385.1 1356.3 478.1 1339.4 546.4 1315.5 587.1 1297.5 655.7 1270.9 725.1 1252 817.5 1243.7 889.6 1252 960.3 1257.3 1015.1 1276.7 1258 1369.8 1258.5 1370 Z" data-holc_grade="C"/>
<path d="M 1973.9 2341.1 2123.3 2339.9 2120.7 2153.6 2122.9 2153.9 2130.6 2159.5 2137.1 2157.3 2149.1 2154.9 2155.9 2160.1 2163.6 2157 2165.7 2157 2166 2111.3 2163.9 2105.8 2161.1 2101.8 2158 2099.9 2155.6 2096.3 2155.3 2092.3 2152.4 1930.6 2297.7 1927.9 2300.5 1927.8 2307.5 2032 2303.8 2329.7 2156.1 2337.9 2363 2480.7 2364.5 2515.7 2097.5 2520.9 1973 2451 1973.9 2346.2 1973.9 2341.1 Z M 1831.7 2340.2 1831.8 2341.3 1505.4 2347.2 1504.4 2361.7 1291.3 2357.8 1285.3 2356.5 1154.4 2350.9 1151.6 2350.7 1144.6 2090.5 1440.4 2086.6 1432.7 1761.4 1391.1 1762 1383.1 1626.5 1314.4 1623.8 1313.8 1598.8 1319.1 1598.8 1436 1598.3 1438 1598.2 1443.7 1741.1 1529.2 1741.1 1529.6 1811.1 1629.4 1807.7 1629.1 1923.3 1599.8 1924.7 1600.4 2012.2 1600.5 2029.9 1601.6 2029.9 1630.2 2028.6 1631.8 2041.4 1632.2 2045.1 1634.7 2045.1 1677.8 2045.7 1682.4 2196.5 1759.1 2197.1 1758.4 2235.3 1827.8 2230.7 1831.6 2336.8 1831.7 2340.2 Z" data-holc_grade="C"/>
<path d="M 1316.7 3122.2 1373.8 3119.6 1372.9 3117.8 1495.1 3119.8 1509.6 3135.2 1576.7 2890.3 1568.5 2774 1420.8 2781.2 1412.5 2657.8 1419.1 2657.4 1613.6 2647.2 1823.5 2636.2 1829.9 2889 1636.1 2895.5 1619.3 2947.3 1738.7 2958.6 1832.4 3017.4 1887 3150.1 2047.9 3151.3 2048.9 3778.3 1579.5 3785.8 1588.8 3753 1598.2 3735.7 1604.1 3734.8 1617.2 3717.1 1624.8 3713.7 1636.7 3706.2 1646.5 3694.7 1650.7 3686.6 1648.1 3668.3 1646.3 3650 1637.1 3637.5 1636.6 3628.6 1627.1 3622.3 1616.5 3607.1 1609.1 3594.4 1598.8 3577.4 1589.8 3572 1576.3 3567.5 1559.2 3571 1544.3 3579.1 1529.5 3590.7 1521.3 3592 1502.6 3603.1 1492.1 3602.8 1482.9 3605.8 1468.8 3608.5 1449.6 3620.6 1431.2 3626.8 1413.6 3640.6 1405.2 3656.2 1395.4 3664.8 1380 3695.1 1372 3587.6 1383.1 3546.2 1393.6 3538.8 1409.8 3542.6 1417 3532.9 1422.1 3532.2 1443.9 3515.6 1444.2 3501.9 1434.9 3487.6 1431.7 3469.5 1419.2 3453.1 1413 3453.3 1399.2 3438.8 1399.2 3433.1 1391.4 3426.9 1386.2 3415.8 1388.7 3400.2 1387.3 3387 1386.8 3375.1 1390.8 3364.8 1496.7 3401 1507.2 3195.7 1483.4 3193.6 1452.8 3166.3 1329.9 3165.2 1316.7 3122.2 Z" data-holc_grade="C"/>
</g>
<g id="D">
<path d="M 1716.2 604.6 1709.5 716 1667.4 722 1663.7 1117.3 1448.7 1121.1 1448 1208.7 1599 1207.9 1637.3 1381 1729 1351.9 1729.5 1351.6 1731.3 1355.8 1732.9 1359.4 1745.8 1389.3 1748 1394.5 1748.1 1394.8 1748 1394.9 1749.4 1422.8 1901.9 1380.1 1904.2 1422 2009.4 1395 2010.1 1437 2082.3 1438.4 2075.5 1514.1 1916.2 1521.6 1917 1565.8 1962.8 1607.7 2159.8 1685.5 2163.5 1576.2 2213.8 1576.2 2212.3 1414.4 2248.4 1414.4 2252.8 1278.9 2392.6 1237.7 2400.7 1500.9 2372.8 1500 2371.5 1865.7 2371.4 1870.9 2294 1824 2290.7 1824.5 1532.9 1468.5 1533.1 1474.4 1384.1 1411.6 1378.1 1214.6 1305.8 1215.2 1177.5 1216.1 1175.6 882.5 1177.2 707.3 1183.9 588.8 1114.1 588.3 1119 559.6 1183.9 560 1189.2 528.9 1123.8 525.5 1131.5 500.2 1162.2 500.3 1181.7 500.3 1212.3 464.1 1206.4 419.6 1239.3 342.5 1229.9 1 1501 1 1423.3 172.5 1424.3 292.8 1431 600.8 1439.7 598.5 1716.2 603.8 1716.2 604.6 Z" data-holc_grade="D"/>
<path d="M 2290.7 1824.5 2291.3 1824.8 2297.7 1927.9 2152.4 1930.6 2155.3 2092.3 2155.6 2096.3 2158 2099.9 2161.1 2101.8 2163.9 2105.8 2166 2111.3 2165.7 2157 2163.6 2157 2155.9 2160.1 2149.1 2154.9 2137.1 2157.3 2130.6 2159.5 2122.9 2153.9 2120.7 2153.6 2123.3 2339.9 1973.9 2341.1 1908.6 2338.8 1831.7 2340.2 1831.6 2336.8 1827.8 2230.7 1758.4 2235.3 1759.1 2197.1 1682.4 2196.5 1677.8 2045.7 1634.7 2045.1 1632.2 2045.1 1631.8 2041.4 1630.2 2028.6 1601.6 2029.9 1600.5 2029.9 1600.4 2012.2 1599.8 1924.7 1629.1 1923.3 1629.4 1807.7 1529.6 1811.1 1529.2 1741.1 1443.7 1741.1 1438 1598.2 1436 1598.3 1436 1596.5 1537.4 1595.8 1533.1 1474.4 1532.9 1468.5 2290.7 1824.5 Z" data-holc_grade="D"/>
</g>
</svg>