<?xml version="1.0"?>
<svg xmlns="http://www.w3.org/2000/svg" version="1.2" baseProfile="tiny" width="3000" height="4286" viewBox="0 0 3000 4286" stroke-linecap="round" stroke-linejoin="round">
<g id="A">
<path d="M 1131.4 4267.6 1137.9 4285.2 985.7 4283.3 985.2 4268.1 982.8 4250.3 976.6 4240 965.2 4221.2 923.7 4165.2 900.7 4138.1 762.5 4000.8 893.7 3868.3 902.3 3846.1 913.9 3819 945.8 3764.6 1003.1 3676.6 1012.2 3658.1 1000.3 3649.8 897.7 3582.2 918.9 3552.6 929 3532.7 935 3511.6 930.3 3496.6 928.3 3483.2 930.9 3472.9 940.2 3463.6 952.4 3461.8 958.6 3461.3 974.4 3469.5 1017.4 3517.5 1030.6 3533.2 1040.7 3551.6 1045.9 3562.9 1051.6 3597 1054.2 3632 1049.5 3650.6 1027.5 3687 993.8 3728.5 945.8 3798.1 935.7 3817.7 926.9 3838.9 922.5 3853.3 920.4 3869 922.2 3890.7 931 3915 947.1 3935.9 980.8 3974.8 1009.8 4002.9 1024.6 4019.4 1040.9 4042.1 1049 4059.7 1049.2 4075.7 1057.3 4104.1 1067.1 4134.8 1076.2 4157.7 1085.8 4179.9 1096.7 4196.7 1114 4218.3 1124.9 4236.7 1137.1 4261.7 1131.4 4267.6 Z M 1220.6 2750.2 1240.1 2775.4 1213.2 2809.8 1192.5 2800.8 1071.3 2924.2 928.4 3149.5 830.2 3307.8 812.7 3301.7 812.4 3317.1 806.2 3324.2 794.6 3321 790 3304.2 781 3294.9 783.2 3270.7 763.8 3241.4 746.7 3225.2 726.5 3199.4 737.8 3185.1 723.8 3173.9 744.8 3171.6 755.7 3169.3 767.3 3156.1 767 3137.2 788.7 3124.5 818.2 3119.6 827.6 3139.9 915.7 3052.6 892.5 3033.5 873.5 3013.5 863.4 3009.6 702 2846.6 818.9 2735.7 892.8 2785.5 922.8 2810.8 949.5 2847.7 985.8 2892 1007.6 2874.7 991.5 2852.3 1049 2799.2 1078.3 2839.4 1089.2 2827.3 1118 2852.1 1220.6 2750.2 Z M 1270.9 2706.4 1277.6 2701 1361.6 2623.1 1487.5 2596.8 1500.8 2640.6 1404 2660.6 1377.8 2670.6 1358.3 2672.5 1343.4 2676.4 1319.1 2686.1 1290 2712.5 1281.9 2729.6 1270.9 2706.4 Z" data-holc_grade="A"/>
<path d="M 2224 2726.4 2231.7 2760.9 2282 2840.5 2384.3 3031.3 2371.9 3062.8 2348.7 3121.7 2331.7 3164.9 2308.1 3184 2286.6 3208.8 2258.9 3232.3 2228.7 3253.8 2216.7 3262.4 2193.3 3300.7 2160.2 3354.8 2155 3408.9 2147.7 3431.4 2114.3 3512.1 2079.3 3589.5 2081.4 3606.8 2089.2 3617.9 2106.8 3627.1 2169 3666.8 2321 3758.6 2360.4 3832.4 2367.7 3932.5 2270.2 3934 2236.8 3868.3 2206.7 3831.9 2114.9 3749.1 2082 3735.7 2065.6 3726.7 2026.7 3700.9 2005.5 3684.2 1974.1 3652.7 1937.8 3617.9 1950.5 3600.9 1958.8 3583.1 1961.7 3552.9 1950.2 3523.2 1944 3490.2 1945.3 3472.9 1964.5 3433.7 1990.4 3372.3 2010.1 3345.8 2028.8 3336.5 2043.8 3337.3 2044.3 3323.9 2049.7 3314.8 2065 3305.5 2096.7 3281.5 2113.2 3261.9 2126.2 3242.1 2161.7 3210.6 2174.1 3202.4 2174.9 3193.3 2181.6 3168.1 2180.9 3150.5 2180.3 3133 2183.2 3109.8 2187.1 3074.2 2195.1 3068.3 2201.8 3062.8 2194.1 3048.9 2195.1 3036 2197.4 3011.8 2198.7 2986 2190.4 2963 2178.7 2950.4 2146.1 2938 2134.7 2923.9 2012.3 2724.8 1998.8 2695.5 2028.6 2716.8 2107.6 2682.9 2111.8 2693.6 2111.1 2749 2111.1 2751.4 2124.3 2760.6 2202 2763.5 2216 2754.7 2215.2 2739.2 2224 2726.4 Z" data-holc_grade="A"/>
</g>
<g id="B">
<path d="M 889.5 3814.6 784.1 3743.4 788.2 3728.2 787.2 3716.3 782 3695.2 785.1 3692.3 802.5 3692.9 815.2 3691.8 837.2 3672.7 880.8 3601.3 895.6 3608.3 980.1 3663.5 889.5 3814.6 Z" data-holc_grade="B"/>
<path d="M 818.2 3119.6 892.5 3033.5 915.7 3052.6 827.6 3139.9 818.2 3119.6 Z M 1535.8 2459.7 1564.7 2387.5 1651.5 2423 1639.5 2432.1 1631.7 2445.3 1637.5 2457.3 1619.4 2467.2 1616.8 2487.5 1611.9 2503.3 1610 2549.4 1597 2590.4 1588 2608.2 1579.7 2617 1550.7 2625.2 1538.3 2576.2 1501 2553.6 1535.8 2459.7 Z M 1431.9 2379.5 1487.5 2596.8 1361.6 2623.1 1277.6 2701 1270.9 2706.4 1236.9 2734 1220.6 2750.2 1118 2852.1 1089.2 2827.3 1078.3 2839.4 1049 2799.2 991.5 2852.3 1007.6 2874.7 985.8 2892 949.5 2847.7 922.8 2810.8 892.8 2785.5 818.9 2735.7 702 2846.6 863.4 3009.6 782.9 3093.8 650 2965.8 616.9 2989 767 3137.2 767.3 3156.1 755.7 3169.3 744.8 3171.6 723.8 3173.9 737.8 3185.1 726.5 3199.4 746.7 3225.2 732.5 3246.9 715.1 3261.8 701.4 3267 692.8 3266.7 675.7 3251.8 660.4 3240.9 639.2 3226.7 620 3221.3 609.6 3226.7 597.4 3238.9 582.7 3245.6 571.5 3246.6 574.6 3280.6 612.2 3282.4 614.8 3256.7 647.7 3262.1 664.6 3262.9 686.6 3277.3 700.3 3299 698.8 3317.5 705.2 3335.3 722.3 3348.8 736.1 3357 737.4 3396.7 742 3467.6 747.7 3494.5 743 3513.8 725.1 3520.3 703.1 3530.8 678.2 3546.6 655.9 3570 645.8 3573.9 639.6 3583.9 638 3600.2 636.2 3605.6 626.4 3605.1 610 3587 499.3 3590.3 489.5 3568.7 481.5 3535.9 485.2 3389.2 493.2 3241.1 495.6 3229.5 553.7 3157.1 594.9 3114.3 520.7 3045.8 514.5 3039.1 490.2 3041.1 490.9 3027.3 545.5 2870.6 534.3 2867.7 478.5 2865.6 483.4 2740.7 450.2 2737.5 373.4 2731.3 261.4 2728.8 258.4 2626.9 253.4 2449 323.2 2451.7 382 2456.5 416.6 2473 429.8 2474.4 518.8 2477 579.9 2478.9 583.3 2593.5 597.9 2593.1 609 2604.2 602.6 2617.9 631.3 2660.1 646.3 2667.6 657.2 2658.7 688.7 2640.5 704.6 2653.3 814.6 2559 814.7 2560.9 828.1 2580.4 871.3 2581.4 966.9 2491.3 1016.3 2487.3 1180.2 2332.9 1233.8 2335.4 1316.7 2315.4 1408.6 2296.8 1431.9 2379.5 Z M 994.5 2666.1 954.6 2714.5 996.7 2737 1025.3 2692.9 994.5 2666.1 Z" data-holc_grade="B"/>
<path d="M 2254.2 1262.4 2249.7 1132.9 2344.6 1129.2 2430.3 1125.8 2433.6 1262.7 2254.2 1262.4 Z M 2204.9 860.6 2257 897 2250.8 949.2 2240 1086.1 2198.4 1086.3 2205.4 1274.3 2027.1 1221.4 2026 1140.3 2053.7 996 2011.5 974.4 1998.1 963.8 1998 963.8 2034.8 900.1 2028.1 884.2 2065.9 811 2113.8 848.8 2124.7 854.5 2163.3 860.4 2186.1 861.7 2204.9 860.6 Z M 2424.6 263.7 2433 288.9 2443.6 323.7 2447.5 444.8 2440.3 453 2375.5 458.4 2328.7 457.2 2311.3 470.8 2229.8 479.9 2205.7 481.7 2185.6 486 2130.5 501.8 2109.9 465.5 2109.1 432.6 2104.4 388.2 2104.8 368.1 2106 351.9 2102.8 329.1 2087.7 302.4 2095.1 291.6 2108.7 292 2109.8 236.3 2138.9 226.6 2327.8 390.1 2357.6 274.9 2421.3 267.9 2424.6 263.7 Z" data-holc_grade="B"/>
<path d="M 2169.8 3441.4 2176.5 3367.9 2206 3314.7 2235.4 3326.8 2311.6 3358.2 2310.4 3374.6 2307.1 3386.2 2299.7 3452.3 2296.8 3455.9 2286.7 3456.5 2272.8 3452.3 2244.3 3445.9 2211.2 3442.3 2169.8 3441.4 Z M 2499.6 3061.4 2484.6 3061.2 2398 3060.5 2398.9 3015.7 2378 2975.2 2455.4 2936.8 2458.6 2943.4 2563.2 3106.3 2554 3114.4 2541.3 3115.7 2524.5 3113.8 2512.8 3107 2503.4 3061.4 2499.6 3061.4 Z M 2292.8 2639.6 2311 2663.2 2325 2646.6 2400.8 2658.2 2453.3 2753.5 2382.2 2791.1 2282 2840.5 2231.7 2760.9 2224 2726.4 2216.9 2694.1 2213.6 2679.4 2210.3 2662.3 2246.1 2651.5 2259.7 2647.4 2292.8 2639.6 Z M 2774.6 2590.7 2818.8 2600.2 2838.2 2599.7 2864.4 2603.1 2882.2 2606.1 2918.8 2601.7 2928.6 2637.6 2917.8 2638.6 2894.2 2636.6 2872.4 2634.3 2850.9 2629.9 2822.4 2627.6 2805.8 2624.5 2774.7 2620.6 2774.6 2590.7 Z M 2107.6 2682.9 2028.6 2716.8 1998.8 2695.5 1985.8 2681 1965.8 2649.8 1947 2618.5 1932.4 2584.7 1922.7 2559.2 1916.5 2521.2 1919.1 2498.9 1926.2 2471.2 2004.4 2473.6 2006.3 2609.9 2053.7 2608 2057.2 2663.3 2085.6 2663.3 2106.6 2663.3 2107.6 2682.9 Z" data-holc_grade="B"/>
</g>
<g id="C">
<path d="M 813 2528.5 814.6 2559 704.6 2653.3 688.7 2640.5 657.2 2658.7 646.3 2667.6 631.3 2660.1 602.6 2617.9 609 2604.2 597.9 2593.1 583.3 2593.5 579.9 2478.9 518.8 2477 429.8 2474.4 416.6 2473 382 2456.5 323.2 2451.7 253.4 2449 252.9 2441.5 176.7 2442.5 119.7 2477.5 120.2 2441.9 112.5 2247 129.1 2239.8 125 2158.9 128.6 2134.1 148.9 2135.7 189.8 2136.2 199.1 2253.8 304.3 2252.3 408.9 2255.9 409 2202.3 439 2199.7 441.6 2183.7 499.1 2179.6 496.6 2090.4 810.2 2083.8 810.1 2138.7 809.9 2268.3 809.8 2282.9 813 2528.5 Z M 702.1 2249.1 767.2 2249.8 766.9 2160.9 701.8 2158.9 702.1 2249.1 Z M 699.5 2331 698.2 2379.3 659 2378.3 659 2481.8 756.2 2480.5 758.5 2332 699.5 2331 Z" data-holc_grade="C"/>
<path d="M 784.1 3743.4 889.5 3814.6 875.1 3864.1 841.2 3900.1 803.1 3863.7 768.9 3827.4 743.2 3799.1 744.8 3792.5 737.4 3782.1 716 3763.9 732.8 3762 766.6 3761.4 777.7 3756.8 784.1 3743.4 Z M 514.1 3629.8 499.3 3590.3 610 3587 626.4 3605.1 636.2 3605.6 626.6 3612.8 609 3615.9 586.7 3619.8 570.6 3624.4 554 3628.3 541.3 3627.2 527.6 3621.8 514.1 3629.8 Z M 481.5 3535.9 418.4 3535 417.4 3636.1 253 3639.9 253.6 3706 108.9 3802.8 98.2 3800.1 80.7 3758 64.5 3740.3 45.9 3732 30 3731.4 27.2 3452.7 139.5 3445.8 368.9 3446.5 370.8 3279.8 378.1 3230.3 378.6 3187.5 455.3 3187 467.2 3216.4 480.7 3231.9 493.2 3241.1 485.2 3389.2 481.5 3535.9 Z M 1687.9 2294.8 1693.1 2314.4 1683.7 2331.2 1674.9 2357.7 1673.1 2368.3 1662 2385.9 1657.8 2402.4 1651.5 2423 1564.7 2387.5 1535.8 2459.7 1501.1 2441.1 1526.4 2371.8 1490.2 2355 1472 2396 1431.9 2379.5 1408.6 2296.8 1316.7 2315.4 1233.8 2335.4 1180.2 2332.9 1016.3 2487.3 966.9 2491.3 871.3 2581.4 828.1 2580.4 814.7 2560.9 814.6 2559 813 2528.5 925.7 2448.9 1123 2298.5 1352.7 2127.3 1457 2165.6 1583.3 2210.5 1614.8 2225 1628.4 2223.2 1687.9 2294.8 Z M 2230.8 2035.7 2279.1 2047.5 2293.5 1988.8 2346.3 2002.2 2330.6 2057.5 2299.8 2049.3 2286.5 2101.8 2145.6 2067.2 2164.6 1976.1 2171.2 1943.3 2246.8 1965 2230.8 2035.7 Z M 2001.7 1949.5 2023.2 1867.3 2124.8 1891.3 2141 1897.9 2129.8 1943.5 2122.4 1980.3 2001.7 1949.5 Z M 2138.5 1829.1 2109 1819.9 2113.7 1790.1 2093.8 1790.9 2096.6 1766.9 2101.1 1752 2142.1 1811.1 2138.5 1829.1 Z M 2053.2 1760.1 2023.1 1755.3 2006.7 1713.5 2038.7 1710.3 2065.4 1711.1 2053.2 1760.1 Z M 2221.6 1829.1 2247.2 1808.9 2252.7 1754.8 2257.6 1708.4 2263.4 1652 2277.6 1501.2 2284.4 1424.2 2285.6 1331.2 2402.7 1332.3 2430.2 1358.1 2452.3 1397.9 2453.5 1457.6 2458 1671.9 2460.2 1777.6 2409.6 1851.9 2412.5 1861.4 2355.9 1866.7 2354.8 1967.2 2319.1 1968.7 2316 1878 2246.5 1866.7 2221.6 1829.1 Z M 2151 1777.7 2131.3 1773.8 2137.4 1703 2086.6 1691.7 2051.9 1643.4 2054.8 1607 2024.7 1605 2039.6 1435.2 2042.9 1400.4 2041.1 1328.9 2178.5 1330.2 2178.8 1396.2 2168.5 1534.4 2154.9 1701.3 2151 1777.7 Z" data-holc_grade="C"/>
<path d="M 2366.1 65.1 2429.1 257.9 2424.6 263.7 2421.3 267.9 2357.6 274.9 2327.8 390.1 2138.9 226.6 2109.8 236.3 2108.7 292 2095.1 291.6 2087.7 302.4 2102.8 329.1 2106 351.9 2104.8 368.1 2104.4 388.2 2109.1 432.6 2109.9 465.5 2130.5 501.8 2185.6 486 2187.2 542 2433.8 551.2 2436.2 647.8 2261.8 811 2256.8 889.5 2291 916.1 2304.6 915 2317 909.2 2337.6 938.9 2337.7 941.3 2344.6 1129.2 2249.7 1132.9 2237.2 1132.8 2240 1086.1 2250.8 949.2 2257 897 2204.9 860.6 2179.3 827.8 2179.3 815.5 2184.3 806.2 2225.8 742.8 2227.8 692.9 2183.9 692.2 2181.9 647.3 2014 649.9 2001.9 637.1 1976.3 616.6 1943.6 592.7 1923.8 588 1745.9 661.9 1716.4 606.2 1673.3 629.4 1658.9 632.9 1658.9 583 1655.4 560.2 1641.4 528.2 1668.6 509.2 1677.9 486 1680.3 432.7 1691.1 413 1705.5 400.6 1741.6 389 1761.1 372 1778.1 368.5 1797.2 368.9 1810 396 1823.2 414.1 1831.7 421.5 1845.7 418.4 1854.3 406.8 1923.8 508.8 1938.2 501.5 1969.3 478.3 1985.2 474 1993.7 469.4 1984.4 459.3 1966.1 442.3 1959.5 428.8 1948.3 396.7 1947.5 377.4 1944 355.8 1940.1 336.4 1951.8 321 1954.1 303.2 1921.1 260.3 1916.8 239.4 1918 220.1 1924.2 190.7 1931.5 173 1942 162.1 1955.2 154 1970.8 152.9 1983.2 144.4 1997.9 115.4 2003.4 99.9 2012.7 88.3 2017.7 77.1 2025.1 55.1 2029.4 31.9 2044.5 31.5 2091.1 54.3 2132.3 79 2170.4 106.8 2211.6 132.7 2235.2 131.2 2244.6 134.3 2255.8 145.8 2267.1 142.8 2310.6 135.8 2330 130.8 2347.1 114.9 2341.3 104.1 2366.1 65.1 Z" data-holc_grade="C"/>
<path d="M 2114.8 2419.9 2132.2 2421.1 2133.5 2469.4 2189.5 2470 2193.1 2524.2 2236.6 2524.7 2287 2522.2 2287.9 2379.8 2344.6 2395.9 2344.6 2442.9 2508.5 2511.5 2538.4 2502.2 2544.6 2503.2 2556.5 2559.6 2561 2576.3 2572.8 2571.2 2561.1 2504.3 2572.8 2495.6 2574.3 2486.4 2576.5 2477.1 2580.5 2474.6 2588.5 2475.5 2591.2 2479.4 2582.7 2494.9 2581.1 2512.8 2587.9 2519.2 2597.5 2551.5 2601.8 2588.8 2620.8 2583.3 2612 2533.8 2615.9 2525.3 2632 2527.6 2672.1 2544.8 2723.8 2576.1 2747.3 2584.4 2774.6 2590.7 2774.7 2620.6 2805.8 2624.5 2822.4 2627.6 2850.9 2629.9 2872.4 2634.3 2894.2 2636.6 2917.8 2638.6 2928.6 2637.6 2947.3 2723.9 2976.3 2831.9 2976.6 2841.4 2983.9 2869.8 2962.3 2868.8 2951.6 2866.3 2861.9 2822.8 2857 2809.6 2851.2 2809.6 2754.6 2776.1 2705.2 2754 2661.7 2738.8 2657.2 2746.6 2621.1 2793.6 2590.3 2791.7 2534.1 2788.2 2494 2790.5 2477.5 2798.1 2403.4 2832.3 2382.2 2791.1 2453.3 2753.5 2480.5 2662.9 2448.1 2658.1 2397.7 2646.9 2356.7 2637.5 2330.8 2604 2319 2604.2 2296.3 2619.1 2292.8 2639.6 2259.7 2647.4 2246.1 2651.5 2210.3 2662.3 2213.6 2679.4 2216.9 2694.1 2111.1 2749 2111.8 2693.6 2107.6 2682.9 2106.6 2663.3 2085.6 2663.3 2057.2 2663.3 2053.7 2608 2006.3 2609.9 2004.4 2473.6 1926.2 2471.2 1953.9 2420.3 1986.9 2349.6 2006.7 2375.5 2031.6 2420.3 2114.8 2419.9 Z" data-holc_grade="C"/>
<path d="M 2563.2 3106.3 2566.5 3111.6 2646.1 3245.6 2607.9 3356.6 2504.5 3362.7 2510.4 3568.4 2648.1 3566.4 2661.5 3737 2384.5 3860.2 2379.3 3843.2 2332.6 3744.5 2128.4 3613 2106.1 3599.8 2103.8 3578.8 2161.8 3450.2 2169.8 3441.4 2211.2 3442.3 2244.3 3445.9 2272.8 3452.3 2286.7 3456.5 2296.8 3455.9 2299.7 3452.3 2307.1 3386.2 2310.4 3374.6 2311.6 3358.2 2330.2 3359.5 2337 3341.4 2374.9 3246 2376.2 3208.6 2322.7 3201.2 2340.2 3179.9 2358 3157.7 2485.7 3180.5 2499.6 3061.4 2503.4 3061.4 2512.8 3107 2524.5 3113.8 2541.3 3115.7 2554 3114.4 2563.2 3106.3 Z" data-holc_grade="C"/>
</g>
<g id="D">
<path d="M 827.1 3912.2 748.8 3989 595.6 3824.6 571.5 3802.7 560.4 3793 583.9 3775.4 610.6 3764.6 645.8 3761.7 685 3762.9 721.6 3792.3 726 3802.7 744.5 3825.6 772.1 3856.9 827.1 3912.2 Z M 417.4 3636.1 418.4 3535 481.5 3535.9 489.5 3568.7 499.3 3590.3 514.1 3629.8 516.2 3656 516.5 3675 508.4 3692.4 506.5 3704.6 506.5 3722.7 489.6 3742 483.5 3742 439.4 3691.1 425.2 3671.4 417.4 3636.1 Z M 2836.1 3540.2 2686.7 3543.2 2681.5 3384.3 2861.6 3381.3 2965 3536.6 2836.1 3540.2 Z M 2657.2 2746.6 2655.6 2827.8 2656.6 2929.3 2676.1 2918.1 2679.6 2920.6 2680.2 2991.2 2566.5 3111.6 2563.2 3106.3 2458.6 2943.4 2455.4 2936.8 2403.4 2832.3 2477.5 2798.1 2494 2790.5 2534.1 2788.2 2590.3 2791.7 2621.1 2793.6 2657.2 2746.6 Z M 2114.8 2419.9 2031.6 2420.3 2006.7 2375.5 1986.9 2349.6 2004.8 2328.3 2033.9 2320.2 2085.6 2331.4 2096.5 2334.1 2101.6 2312.4 2120.2 2317.1 2114.8 2419.9 Z M 1687.9 2294.8 1628.4 2223.2 1614.8 2225 1583.3 2210.5 1457 2165.6 1485.7 2057.4 1296.8 2000.9 1281.6 2047.3 1404.8 2057.2 1352.7 2127.3 1123 2298.5 925.7 2448.9 813 2528.5 809.8 2282.9 809.9 2268.3 810.1 2138.7 810.2 2083.8 826 2081.3 827.1 2008.3 919.1 1994.2 922.7 2058.3 985.6 2059.1 997.3 2089.8 1054.5 2082.6 1213.6 2052.5 1188.8 1998.3 1186.9 1938 1232.5 1924.3 1339.3 1959.9 1449.6 1990.3 1495 2004.8 1552 2021 1608.7 2040.1 1689.6 2064.3 1742.9 2080.3 1808.4 2101.6 1833.8 2147.5 1771.9 2200.1 1786.1 2227.7 1752.7 2253.2 1687.9 2294.8 Z M 2301.1 1938.2 2296.5 1957.3 2181.9 1921.8 2188.7 1886.7 2229.3 1894.8 2227.9 1916.8 2301.1 1938.2 Z M 1158.9 1745.9 1197.5 1792.3 1247 1779.7 1297.8 1842.1 800.1 1942.2 589.9 1991.2 578.6 1992.4 577.5 1916.6 543.3 1913.1 507.1 1915.8 507.9 2006.7 464 2019 462.8 1912.7 387.8 1911.5 387.9 1786.6 758.6 1781.9 757.9 1841.1 809.4 1841.2 825.3 1856.3 881.3 1854.1 879.7 1735.5 821.7 1732.3 822.1 1663.9 937.1 1554.1 995.7 1555.9 1057.3 1638.4 1100.6 1683.5 1134.5 1716.8 1158.9 1745.9 Z M 2221.6 1829.1 2218 1822.1 2226 1743 2238.7 1615.9 2243.8 1560.8 2247.7 1518.5 2249.3 1472.3 2250 1451.7 2253.1 1411.8 2252.1 1331.4 2285.6 1331.2 2284.4 1424.2 2277.6 1501.2 2263.4 1652 2257.6 1708.4 2252.7 1754.8 2247.2 1808.9 2221.6 1829.1 Z M 2151 1777.7 2154.9 1701.3 2168.5 1534.4 2178.8 1396.2 2178.5 1330.2 2204.7 1330.6 2210.7 1424.9 2200.6 1549.9 2195.4 1582.4 2189.7 1663.1 2185.3 1694.8 2180.2 1743 2178.4 1783 2151 1777.7 Z M 999.9 1129.5 1001.7 1185 1100.2 1193.3 1101.9 1313.9 1113.6 1328.1 1112.6 1437.4 934.2 1436 808.8 1310 758.3 1264.3 725.4 1253.3 708.4 1193.4 685.8 1142.7 753.2 1143.1 765.5 1133.5 999.9 1129.5 Z M 74.5 1190.9 1 1226 4.3 1037.5 45.8 1015.3 62 1009.5 98.6 1007.3 99.5 1031.8 126.4 1033.1 142.9 1036.6 175.3 1039.2 207 1053.4 300.2 1098.2 202.4 1124.9 163.2 1140 113.7 1162.9 74.5 1190.9 Z M 2430.3 1125.8 2344.6 1129.2 2337.7 941.3 2362.7 916.8 2369.3 909 2382.1 903.6 2394.1 905.2 2439.2 920.2 2451.3 922.2 2473.4 919.5 2491.3 912.5 2505.6 900.5 2518.5 1004.9 2430.7 1059.8 2430.3 1125.8 Z M 2011.5 974.4 2053.7 996 2026 1140.3 2027.1 1221.4 2023.7 1259.5 1930.8 1264.5 1927.9 1331.7 2041.1 1328.9 2042.9 1400.4 1993.5 1400.4 1995 1481.3 1995.5 1510.6 1984.2 1531.1 1987.4 1631 1988.5 1667.2 2006.7 1713.5 2023.1 1755.3 2053.2 1760.1 2096.6 1766.9 2093.8 1790.9 2113.7 1790.1 2109 1819.9 2138.5 1829.1 2124.8 1891.3 2023.2 1867.3 2001.7 1949.5 1888.2 1923.8 1865.1 2016.3 1786.2 1991.6 1758.7 1986.5 1733.3 1978.2 1701.7 1968.2 1673.7 1962.2 1649.9 1959.1 1580.5 1941.6 1560.7 1796.4 1354.5 1829.4 1190.8 1698.2 1051.7 1591 1053.5 1536.8 1291.3 1535.1 1292.6 1440.2 1258.9 1439.2 1257.4 1324.2 1341.3 1321.1 1341.8 1201.3 1304 1200.8 1303 954.2 1381.7 953.1 1380.1 816.3 1470.5 817.3 1507.3 864.7 1618.4 860.9 1636.5 884.6 1820.1 880.2 1905.4 915.5 1862.8 1020.7 1865.7 1109.4 1913.6 1108.7 1914.6 1142.9 1980.2 1141.9 2011.5 974.4 Z M 1637.7 1533.8 1806.4 1535.8 1808.3 1497.1 1743.8 1496.7 1741.8 1390.4 1786.5 1341.7 1735.6 1253.9 1689 1245.4 1689 1317.7 1633 1319.3 1637.7 1533.8 Z M 2412.5 1861.4 2409.6 1851.9 2460.2 1777.6 2458 1671.9 2453.5 1457.6 2452.3 1397.9 2481.8 1301.1 2493.7 1262.1 2490.8 1143.8 2521.9 1128.7 2521.7 1074.4 2545.5 1066.5 2588.4 969.4 2603 918 2617 905.3 2633.7 902.4 2658 902.9 2694.9 913.9 2766.7 932.6 2775.1 898.1 2745.5 884.9 2719.3 875.8 2673.7 843.8 2690.4 786.1 2782.1 805.3 2787 801.7 2852.2 811.4 2935.9 817.6 2925.3 896.2 2862.9 893.4 2852.8 945.7 2934.4 952.6 2956 1074.5 2961.2 1112.4 2999 1175 2996.7 1202.3 2923.1 1209.8 2921.1 1269.8 2984.3 1270.8 2982.5 1317.2 2980.5 1397.9 2844.5 1403.4 2845.8 1462.1 2954.3 1458.5 2927.1 1506.4 2926.5 1564.2 2699.5 1570.1 2700.1 1657.7 2701.2 1838.7 2701.5 1944.6 2833.1 1959.5 2829.5 2009 2880.3 2022.1 2853.7 2253.1 2792.4 2242 2703.3 2227.9 2699.9 2185.6 2661.5 2173.7 2617.2 2169.1 2614.1 2186.1 2572.4 2178.7 2565.7 2205 2483.5 2181.8 2485.6 2159.6 2384 2131 2428.5 1957.8 2415.8 1935.1 2414.3 1867.1 2412.5 1861.4 Z M 2179.3 827.8 2204.9 860.6 2186.1 861.7 2163.3 860.4 2124.7 854.5 2113.8 848.8 2065.9 811 2028.1 884.2 2034.8 900.1 1998 963.8 1998.1 963.8 1998 963.8 1985.6 970.5 1923.5 939.9 2025.5 721.3 2095.9 726.5 2179.3 827.8 Z M 2596.1 640.3 2515.3 643.4 2506.5 585.2 2587.3 582.6 2596.1 640.3 Z M 2447.5 444.8 2443.6 323.7 2433 288.9 2424.6 263.7 2429.1 257.9 2366.1 65.1 2370.3 52.9 2381.6 36.4 2397.1 11.6 2410.1 1 2419.8 29.7 2435 44.8 2451.8 55.1 2469.3 60.2 2495.9 80.2 2509.8 84.1 2520.2 100.5 2538.3 111.1 2555.8 121.1 2571.3 137.8 2584.6 159.7 2600.8 178.4 2613.7 194.2 2629.6 204.5 2640.6 208.6 2642.6 259.2 2665.2 279.5 2664.6 426.7 2564.9 431.2 2565.3 442.2 2515.1 438.9 2447.5 444.8 Z" data-holc_grade="D"/>
</g>
</svg>