<?xml version="1.0"?>
<svg xmlns="http://www.w3.org/2000/svg" version="1.2" baseProfile="tiny" width="3000" height="1459" viewBox="0 0 3000 1459" stroke-linecap="round" stroke-linejoin="round">
<g id="A">
<path d="M 445.7 858.4 446.8 814.6 463.7 814.1 480.1 816.1 482.6 857.9 448.1 877.8 445.7 858.4 Z" data-holc_grade="A"/>
<path d="M 2058.3 945 2059.6 973 1980.9 939.5 1977.4 883.3 1977.8 847.5 1975.8 813.7 2050.2 807.2 2058.3 945 Z" data-holc_grade="A"/>
<path d="M 1905.4 1154.4 1917.4 1126.5 1950.8 1075.3 1966.3 1060.9 1997.2 1034 2032.7 1055.9 2084.6 1081.7 2130.6 1091.1 2129.1 1140.9 1905.4 1154.4 Z" data-holc_grade="A"/>
<path d="M 2327.3 895.1 2317.2 937.3 2316.7 958.7 2281.3 997 2218.4 1024.9 2166.5 1036.9 2137.5 1040.4 2099.1 1042.4 2091.2 959.9 2253.9 947.3 2267.9 897.6 2290.3 902.1 2296.3 885.6 2327.3 895.1 Z" data-holc_grade="A"/>
</g>
<g id="B">
<path d="M 61.2 891.5 47.9 837.7 51.3 823.8 57.9 819.8 92.5 809.9 102.5 794.7 115.2 776.8 124.5 771.5 253.6 757.1 246.4 716.6 302.8 716.2 304.7 810.7 61.2 891.5 Z" data-holc_grade="B"/>
<path d="M 2649.4 331.5 2624.8 333.7 2630.3 379.4 2626.9 414.2 2619.4 453.5 2611.9 466 2603.5 487.8 2569.1 575.9 2561.7 626.1 2561.7 656.9 2566.7 687.8 2561.2 693.2 2511.3 684.8 2524.4 670.6 2527.7 626.7 2493.6 623.4 2500.2 602.7 2501.9 586.1 2510.2 558.8 2513.4 509.9 2498.5 500 2515.1 484.2 2536.7 464.3 2561.6 430.3 2577.4 398 2579.9 372.3 2581.5 327.5 2584 307.7 2573.9 272 2563.1 244.7 2560.6 222.4 2575.5 186.7 2600.5 166 2597.9 149.4 2592.9 122.1 2601.2 88.9 2622 44.2 2648.5 8.6 2750.8 1 2740.8 13.4 2740.8 23.4 2741.7 35 2738.4 44.1 2724.2 62.3 2705.1 86.4 2691 104.6 2681.9 119.5 2671.1 136.9 2664.5 156 2657.8 176.7 2652.9 194.9 2650.4 212.3 2650.4 242.1 2654.6 284.4 2651.3 301.8 2649.4 331.5 Z" data-holc_grade="B"/>
<path d="M 2947.3 649.1 2980.4 644.1 2999 736 2963.1 741 2960.1 750.5 2905.2 740.6 2903.7 721.2 2827.3 721.8 2827.8 740.2 2680.6 745.8 2675 690.6 2671.5 646.9 2674 632.5 2686.9 612.6 2713.9 589.7 2749.3 575.7 2765.7 571.2 2765.2 559.3 2821.6 556.2 2834.7 659.1 2865.1 655.6 2868.6 651.6 2899.1 647.1 2901.6 656.1 2947.3 649.1 Z" data-holc_grade="B"/>
<path d="M 272 862.7 290.5 862.2 293.9 917.4 369.3 919 433.7 882.7 453.6 920 379.7 959.8 323.8 992.5 302.3 997 255.4 1007.9 218.4 1027.7 184.9 1057 151.5 1072.4 121 1078.4 111.1 988.8 118.6 985.8 116.7 916.2 157.6 911.8 159.1 901.3 187.1 897.4 187.1 883 252.5 859.2 253.5 903.4 211.6 906.9 212.5 940.2 274.4 936.8 272 862.7 Z" data-holc_grade="B"/>
<path d="M 438.2 1136.5 509.2 1093.3 543.6 1145.5 566.5 1132.6 588 1165 468.1 1242.5 438.2 1136.5 Z" data-holc_grade="B"/>
<path d="M 610.3 854.3 598.3 865.9 546.7 870.4 531.7 862.1 519.2 865.4 497.2 874.1 489.3 872.4 598.7 805.4 686.9 759.4 701.5 798.8 661.5 819.1 650.7 831.5 610.3 854.3 Z M 445.7 858.4 432.2 858.8 428.8 815.6 397.3 815.5 395.9 780.2 461.3 749.5 463.7 814.1 446.8 814.6 445.7 858.4 Z M 940 709.9 899.2 727.6 893.1 726.3 857.2 746.9 853.7 753 791.7 752.5 775.2 757.2 765.6 747.7 736.6 757.5 730.5 739.2 803.4 716.9 809.5 718 818.1 716.7 834.3 714.3 846 715.1 869.7 710.4 884.6 705.1 902.7 704.3 941.3 694.7 940 709.9 Z M 661.6 688.5 660.4 711.3 672.8 707.2 687.4 736.6 599.6 778.4 514.3 829.3 511 755.6 578 737.8 579.2 714.6 620.4 704.3 620.4 695.1 661.6 688.5 Z M 887.5 659.4 889.2 617.3 925.2 611.3 952.1 611.3 948.8 654.8 917.8 659.4 887.5 659.4 Z" data-holc_grade="B"/>
<path d="M 795 841 899.8 854 900.5 881.2 941.4 892.5 922.7 925.7 910.1 927 867.5 916 867.5 936.6 865.5 952.5 805.9 942.5 779.3 944.5 782.3 928.6 789 851.7 795 841 Z" data-holc_grade="B"/>
<path d="M 1739.5 541.4 1699.1 543.9 1698.1 556.8 1666.2 559.3 1608.8 565.8 1605.8 533 1572.9 533 1549.9 531 1522.9 531 1525.4 584.2 1498 585.2 1480.5 591.1 1436.6 561.8 1418.7 492.7 1423.6 477.3 1470.4 472 1489.5 469.8 1507 475.4 1513 477.3 1556.9 486.2 1600.8 487.2 1665.7 497.7 1671.7 525 1738.5 527.5 1739.5 541.4 Z M 1299.4 468.8 1255.5 491.7 1241.5 462.3 1244.5 378.8 1299.9 377.8 1299.4 468.8 Z" data-holc_grade="B"/>
<path d="M 1580.8 677.1 1617.8 670.2 1693.1 662.7 1695.1 689.6 1767 678.1 1766 651.3 1863.3 645.8 1877.5 760 1885.5 826.2 1887 866 1862.5 848.1 1835.1 846.1 1811.6 839.1 1756.7 827.2 1708.8 779 1687.8 791.4 1668.9 767 1643.9 781 1620.4 750.6 1615.4 722.8 1648.4 720.3 1638.9 683.5 1592 693 1580.8 677.1 Z" data-holc_grade="B"/>
<path d="M 1887 866 1885.5 826.2 1877.5 760 1863.3 645.8 1860.8 623.4 1896.4 620.3 1901.4 643.2 1917.4 649.6 2159.5 829.5 2197.5 839 2277.8 859.3 2284.8 836.9 2327.7 849.3 2327.3 895.1 2296.3 885.6 2290.3 902.1 2267.9 897.6 2253.9 947.3 2091.2 959.9 2058.3 945 2050.2 807.2 1975.8 813.7 1977.8 847.5 1977.4 883.3 1980.9 939.5 1940.9 917.7 1892 879.4 1887 883.9 1887 866 Z M 2085.7 910.6 2082.2 872.8 2066.2 873.8 2068.7 912.1 2085.7 910.6 Z" data-holc_grade="B"/>
<path d="M 2330.9 1187 2304.8 1188.2 2304.1 1215.4 2298.8 1220.7 2270.2 1224.1 2260.2 1216.1 2265.4 1034.4 2291.3 1019.1 2312.6 999.2 2345.9 980.6 2354.6 986.6 2360.6 1011.1 2353.3 1031.7 2351.3 1045.6 2352.3 1053.1 2337.3 1060.2 2338.6 1072.8 2314 1082.1 2312.7 1064.2 2299.4 1072.2 2302 1102 2326.7 1103.3 2328 1133.8 2334.7 1152.4 2330.9 1187 Z M 2553.6 1015.6 2545.6 1023.6 2535 1047.4 2537 1097.2 2545.7 1152.9 2413.9 1160.3 2414 1190.8 2392 1194.8 2393.3 1238.6 2384 1231.9 2373.4 1216 2371.4 1202.8 2364.7 1163 2364.6 1133.1 2365.9 1072.1 2409.2 1058.2 2405.2 1034.3 2399.2 1003.8 2399.2 989.2 2459.7 974.6 2491.7 969.9 2524.3 960.6 2542.2 950 2597.5 941.9 2658 920 2651 901.5 2630.7 847.8 2649.3 845.7 2669.2 840.4 2699.9 839.7 2739.8 835.7 2771.1 823.1 2781.7 849.6 2789.7 854.9 2797.8 898 2802.5 931.1 2733.3 969 2742 999.5 2723.3 1004.2 2708.6 965 2700.7 963.7 2690 935.9 2608.1 959.2 2606.8 967.1 2551.6 973.8 2553.6 1015.6 Z" data-holc_grade="B"/>
</g>
<g id="C">
<path d="M 246.4 716.6 253.6 757.1 124.5 771.5 115.2 776.8 102.5 794.7 92.5 809.9 57.9 819.8 51.3 823.8 47.9 837.7 61.2 891.5 63.1 937.2 67.7 947.8 70.4 963.8 26.5 968.3 9.4 727.6 1 563.2 126.1 554.1 143.4 545.5 262.5 546.9 264.5 560.8 263.1 574.8 261.1 588.7 258.5 600 254.5 607.2 244.5 630.4 237.1 653 237.8 671.5 246.4 716.6 Z" data-holc_grade="C"/>
<path d="M 2553.6 1015.6 2551.6 973.8 2606.8 967.1 2608.1 959.2 2690 935.9 2700.7 963.7 2708.6 965 2723.3 1004.2 2742 999.5 2733.3 969 2802.5 931.1 2797.8 898 2789.7 854.9 2781.7 849.6 2771.1 823.1 2739.8 835.7 2699.9 839.7 2669.2 840.4 2649.3 845.7 2630 798.2 2665.4 784.7 2697.3 780.7 2759.2 787.1 2801.7 795.5 2862.6 791.5 2893 803.9 2910 813.8 2927 819.7 2957 832.1 2965.9 831.1 2981.9 836.1 2710.6 1058.7 2696.6 1061.2 2697.6 1036.8 2686 956.8 2609.2 977.7 2608.2 988.7 2553.6 1015.6 Z" data-holc_grade="C"/>
<path d="M 537.2 931.2 606.2 908.8 614.1 946.1 615.6 984.4 540.7 1008.3 541.7 973.9 537.2 931.2 Z" data-holc_grade="C"/>
<path d="M 290.5 862.2 272 862.7 272 849.7 310 835.9 395.9 780.2 397.3 815.5 385.9 817.5 385.3 825.5 351.4 837.9 326.4 838.4 326.9 860.7 290.5 862.2 Z M 736.6 757.5 765.6 747.7 775.2 757.2 791.7 752.5 853.7 753 857.2 746.9 893.1 726.3 899.2 727.6 940 709.9 942.1 721.3 903.8 753.6 903.2 761 865.9 773.2 863.3 769.2 805.8 789.3 755.7 798.6 736.6 757.5 Z M 687.4 736.6 672.8 707.2 660.4 711.3 661.6 688.5 701 682.8 756 680.7 792.1 681.6 798.4 696.9 687.4 736.6 Z M 948.8 654.8 952.1 611.3 925.2 611.3 889.2 617.3 887.5 659.4 810.7 663.6 762.1 654.3 712.2 655.6 682.3 656.9 681.3 641.6 619.7 643.6 618.4 665.5 485.3 672 482 621 453.3 621 454.7 673.3 398.1 675.9 390.9 549.3 406.9 550 400.4 369 403.7 342.5 425 300.8 463 298.1 463.6 343.9 526.1 342.9 524.6 409.1 626.9 401.7 627.9 419.1 799 410.7 799.5 436.1 628.8 444.4 625.8 536.9 731.6 531.5 725.5 606.1 923.7 595.3 929.2 573.4 920.2 519.2 1065.9 513.3 1061.9 519.2 1060.9 561 1025.5 584.4 1025 626.6 993.5 643 948.8 654.8 Z" data-holc_grade="C"/>
<path d="M 1863.3 645.8 1766 651.3 1767 678.1 1695.1 689.6 1693.1 662.7 1617.8 670.2 1580.8 677.1 1560.9 654.8 1609.3 644.3 1631.2 640.8 1717.6 633.4 1719.6 646.3 1749 642.3 1750.5 629.4 1860.8 623.4 1863.3 645.8 Z M 1608.8 565.8 1666.2 559.3 1698.1 556.8 1699.1 543.9 1739.5 541.4 1741.5 571.2 1717.6 584.6 1709.1 593.6 1610.8 601.1 1608.8 565.8 Z M 1507 475.4 1489.5 469.8 1470.4 472 1469.1 321.7 1461.1 326.2 1408.2 327.6 1406.7 296.3 1401.2 250.6 1408.2 252.1 1474.5 282.4 1486.5 269 1511 269.5 1494.5 315.2 1518.5 367.4 1541.4 368.4 1554.4 381.8 1557.4 446.5 1507 446.5 1507 475.4 Z M 1998 528.4 1937.6 535.4 1936.6 504.5 1932.6 494.1 1929.1 481.7 1914.2 486.7 1907.2 485.7 1905.2 472.7 1862.3 494.1 1834.3 503.6 1799.4 507.1 1798.4 478.2 1782.4 478.7 1781.4 470.8 1731.5 471.3 1731.5 482.7 1667.7 487.7 1665.7 497.7 1600.8 487.2 1601.3 452.4 1674.1 450.4 1669.1 327.1 1670.1 291.8 1676.6 262 1924.6 250 1919.6 271.9 1922.6 407.6 2045.4 398.6 2034.9 419.5 2012.5 451.8 1998 528.4 Z" data-holc_grade="C"/>
<path d="M 1937.6 535.4 1998 528.4 2265.6 497.9 2279 508.6 2294.8 522.3 2315.2 546.3 2331.4 557.5 2325.6 564.5 2285.6 569.5 2284.4 581.5 2283.2 591.9 2260.3 589.8 2162.6 573.3 2167.2 636.3 2178.8 706.7 2156 702.6 2033.7 620.6 2027.4 602 2000.8 603.7 1983.3 588.7 1984.6 578.8 1939 558.9 1937.6 535.4 Z" data-holc_grade="C"/>
<path d="M 2085.7 910.6 2068.7 912.1 2066.2 873.8 2082.2 872.8 2085.7 910.6 Z M 2284.8 836.9 2277.8 859.3 2197.5 839 2159.5 829.5 1917.4 649.6 1901.4 643.2 1920.4 640.2 1944.3 602.4 2093.1 702.8 2139.5 731.6 2151.5 730.6 2158 732.6 2158.5 748.5 2169 748.5 2198.9 756.4 2195.4 769.3 2214.9 777.8 2219.9 758.4 2256.3 767.8 2260.8 755.9 2328.2 772.7 2312.3 822.5 2288.8 816.5 2284.8 836.9 Z" data-holc_grade="C"/>
<path d="M 2330.9 1187 2334.7 1152.4 2328 1133.8 2326.7 1103.3 2302 1102 2299.4 1072.2 2312.7 1064.2 2314 1082.1 2338.6 1072.8 2337.3 1060.2 2352.3 1053.1 2366.6 1046.3 2405.2 1034.3 2409.2 1058.2 2365.9 1072.1 2364.6 1133.1 2364.7 1163 2371.4 1202.8 2373.4 1216 2384 1231.9 2393.3 1238.6 2392 1194.8 2414 1190.8 2413.9 1160.3 2545.7 1152.9 2551.1 1195.3 2553.1 1217.2 2558.5 1311.4 2525.2 1296.8 2501.2 1281.6 2472.6 1270.3 2404.7 1259.8 2382 1258.5 2392 1273.1 2383.4 1336.7 2444 1327.4 2502.6 1322.7 2526.7 1442.8 2312.9 1457.5 2300.9 1378.6 2287.6 1325.5 2302.8 1291.7 2318.2 1287.7 2327.5 1269.8 2331.4 1251.2 2326.1 1231.3 2330.9 1187 Z" data-holc_grade="C"/>
<path d="M 2555.8 866.1 2522.3 873.6 2511.3 848.8 2483.9 858.2 2473.9 836.9 2488.8 829.4 2584.1 792 2585.2 817.4 2555.8 866.1 Z" data-holc_grade="C"/>
<path d="M 2947.3 649.1 2901.6 656.1 2899.1 647.1 2868.6 651.6 2865.1 655.6 2834.7 659.1 2821.6 556.2 2765.2 559.3 2765.7 571.2 2749.3 575.7 2713.9 589.7 2686.9 612.6 2674 632.5 2671.5 646.9 2675 690.6 2680.6 745.8 2665.6 748.8 2661.6 731.4 2661.5 642.4 2667.5 602.1 2685.4 578.8 2716.8 574.2 2705.7 459.9 2642.4 466.4 2643.4 513.7 2620.5 563.9 2592.1 564.9 2592.7 714.6 2477.4 724.6 2511.3 684.8 2561.2 693.2 2566.7 687.8 2561.7 656.9 2561.7 626.1 2569.1 575.9 2603.5 487.8 2611.9 466 2619.4 453.5 2626.9 414.2 2630.3 379.4 2624.8 333.7 2649.4 331.5 2675.2 329.2 2723.6 396.3 2781.1 472.3 2826.6 540.3 2899.9 530.8 2911.4 533.3 2923.4 528.8 2934.4 585.9 2940.4 605.8 2943 618.2 2947.3 649.1 Z" data-holc_grade="C"/>
</g>
<g id="D">
<path d="M 2283.2 591.9 2365.6 610.9 2381 608 2396.4 608.4 2404.3 607.1 2419.7 612.1 2415.1 627 2409.3 630.3 2397.7 648.6 2376 659.8 2362.3 669.3 2347.4 743.5 2332.4 743.1 2195.2 710.5 2193.1 686 2192.6 674.8 2261.3 667.3 2264.2 661.9 2260.3 589.8 2283.2 591.9 Z" data-holc_grade="D"/>
<path d="M 2555.8 866.1 2544.3 882.1 2489.4 909 2478.9 892.6 2447 904 2435.5 874.7 2483.9 858.2 2511.3 848.8 2522.3 873.6 2555.8 866.1 Z" data-holc_grade="D"/>
<path d="M 2649.3 845.7 2630.7 847.8 2651 901.5 2603.7 914.3 2579.3 916.3 2562.3 920.3 2573.7 879.6 2583.7 852.7 2599.2 832.8 2613.1 810.4 2630 798.2 2649.3 845.7 Z" data-holc_grade="D"/>
</g>
</svg>