<?xml version="1.0"?>
<svg xmlns="http://www.w3.org/2000/svg" version="1.2" baseProfile="tiny" width="3000" height="3856" viewBox="0 0 3000 3856" stroke-linecap="round" stroke-linejoin="round">
<g id="B">
<path d="M 1131.9 1970.8 941.9 2050 918 2049.3 891.3 2079.4 875.8 2089.2 806.8 2117.9 819.5 2079.4 892.7 2008.6 948.3 1993.2 937.7 1958.9 939.1 1937.8 953.9 1926.6 959.5 1893 979.2 1883.9 925.1 1754.9 863.9 1694 911 1669.4 906.1 1649.8 996.9 1632.3 1029.9 1608.5 1051 1646.3 1074.9 1683.5 1084.1 1703.1 1089.7 1808.9 1098.8 1884.6 1109.4 1921 1131.9 1970.8 Z" data-holc_grade="B"/>
<path d="M 806.8 2117.9 875.8 2089.2 891.3 2079.4 918 2049.3 941.9 2050 1131.9 1970.8 1140.3 1989 1160 2014.3 1172 2032.5 1195.9 2102.6 1221.2 2120.1 1235.3 2135.5 1244.5 2155.8 1231.8 2191.6 1234.6 2208.4 1227.6 2237.1 1046 2267.3 1017.9 2195.1 775.8 2292.4 758.9 2250.4 663.2 2288.9 629.5 2200.6 641.5 2190.1 806.8 2117.9 Z" data-holc_grade="B"/>
<path d="M 641.5 2190.1 629.5 2200.6 663.2 2288.9 678 2313.4 931.3 2574.2 912.3 2596.7 891.2 2610.7 894.7 2649.9 903.8 2652.7 941.1 2698.3 927 2720.7 863 2707.4 621.6 2715.8 470.5 2223 547.2 2063.9 657.7 2093.4 668.2 2145.9 641.5 2190.1 Z" data-holc_grade="B"/>
<path d="M 1498.8 2795.5 1513.9 2813 1582.6 2894.5 1624.8 2868.2 1645 2844.5 1704.8 2870.8 1716.3 2956.7 1680.2 2961.1 1634.5 2946.2 1608.1 2938.3 1590.5 2924.3 1557.9 2947 1551.8 2976.8 1518.3 3023.3 1500.7 3046.9 1484.9 3071.5 1461.2 3091.6 1446.2 3076.7 1418.9 3007.5 1399.6 3035.5 1337.1 2961.1 1318.6 2954 1304.6 2960.2 1275.5 3003.1 1252.7 3080.2 1249.1 3099.5 1275.5 3110.9 1334.5 3089.9 1355.6 3097.8 1395.2 3139 1355.6 3263.4 1385.5 3287.1 1365.3 3429 1291.5 3406.6 1275.7 3396.6 1270.2 3403.6 1249.1 3354.5 1263 3347.7 1210.2 3197.8 1153.2 3206.4 1143.6 3133.7 1163.8 3085.5 1205.2 2996.1 1214.8 2964.6 1279.1 2900.6 1245.6 2876.9 1367 2806 1424.2 2758.6 1451.5 2741.1 1498.8 2795.5 Z" data-holc_grade="B"/>
<path d="M 2000.2 3091.9 2014.3 3101.7 1834.2 3457.9 1825 3455.1 1768 3569.4 1620.9 3492.3 1633.6 3460 1608.9 3446 1796.1 3068.8 1882 3109.5 1917.2 3055.5 2000.2 3091.9 Z" data-holc_grade="B"/>
<path d="M 1441.4 3534.6 1616.9 3664.4 1633.8 3650.2 1654.4 3666.5 1666.6 3683.3 1673.4 3708.1 1677.1 3733.8 1667.1 3781.7 1628 3854.8 1610.6 3853.7 1595.3 3828.5 1568.9 3826.4 1546.2 3813.8 1268 3605.5 1276.4 3585 1334.5 3483.4 1366.7 3498.8 1356.7 3524 1392.6 3540.8 1412.1 3513 1441.4 3534.6 Z" data-holc_grade="B"/>
</g>
<g id="C">
<path d="M 775.6 264.8 900.8 293.2 897.7 345.8 931.6 364.6 903.8 513.5 858.6 506.4 841.8 608 776.3 677.2 699 651.8 733.3 569 726.7 560.3 732 506 709.2 402.2 745.2 334.4 775.6 264.8 Z" data-holc_grade="C"/>
<path d="M 1834.2 3457.9 2014.3 3101.7 2040.6 3111.3 2032.2 3137.9 2103.9 3174.4 2104 3183.5 2134.2 3227.7 2158.1 3154 2206 3172.3 2194.8 3226.3 2204.6 3229.8 2207.4 3248 2215.9 3259.2 2209.5 3271.1 2239.1 3262.7 2301 3205.9 2355.9 3255 2281.3 3314.6 2248.3 3330 2256.7 3344 2334.9 3391.7 2300.4 3444.3 2204.6 3393.8 2191.3 3374.2 2173.7 3351.8 2140.6 3332.8 2118.1 3311.8 2098.4 3357.4 1980.8 3431 2014.6 3479.4 2068.1 3445 2096.3 3439.4 2120.9 3509.5 2153.3 3508.1 2166 3513 2242 3540.3 2213.1 3581 2207.5 3637.8 2151.2 3623.1 2109.7 3607.7 2029.4 3572.6 1968.2 3598.6 1967.5 3608.4 1944.2 3633 1930.2 3640.7 1869.4 3632.5 1810.3 3546.3 1862.3 3473.3 1834.2 3457.9 Z" data-holc_grade="C"/>
<path d="M 1910.1 2888.6 1962.2 2873.2 2000.2 3091.9 1917.2 3055.5 1882 3109.5 1796.1 3068.8 1608.9 3446 1633.6 3460 1620.9 3492.3 1537.8 3448.8 1504.8 3424.3 1480.8 3390.6 1466.7 3361.2 1511.1 3336.6 1511.1 3322.6 1497 3296 1568.8 3258.1 1627.9 3285.4 1746.9 3047.1 1846.1 3014.1 1881.3 3030.9 1924.9 2944 1910.1 2888.6 Z" data-holc_grade="C"/>
<path d="M 1628 3854.8 1667.1 3781.7 1677.1 3733.8 1673.4 3708.1 1666.6 3683.3 1654.4 3666.5 1633.8 3650.2 1616.9 3664.4 1441.4 3534.6 1481.3 3483.8 1511.2 3507.5 1502.4 3524.1 1509.5 3534.7 1587.8 3591.6 1603.6 3572.3 1705.7 3646.8 1718.9 3675.8 1730.3 3729.2 1722.4 3781.8 1703.9 3812.5 1674 3837 1628 3854.8 Z" data-holc_grade="C"/>
<path d="M 1716.3 2956.7 1704.8 2870.8 1645 2844.5 1624.8 2868.2 1582.6 2894.5 1513.9 2813 1498.8 2795.5 1516 2780.1 1519.1 2755.2 1513.8 2744.2 1488.8 2741.1 1491.8 2585.2 1500.2 2578.2 1538 2566.8 1535.4 2611.9 1527.5 2685.9 1550.3 2702.6 1558.3 2724.1 1587.7 2768.7 1611.9 2791.5 1628.6 2803.8 1669.5 2821.3 1704.3 2838.4 1786.5 2831.4 1797.5 2909.8 1742.1 2918.6 1749.2 2978.6 1719.3 2977.7 1716.3 2956.7 Z" data-holc_grade="C"/>
<path d="M 927 2720.7 991.4 2736.7 1013.4 2744.6 1021.3 2751.6 1016.9 2763.9 1015.2 2778.8 1052.1 2803.3 1080.3 2813.8 1089.9 2815.6 1131.3 2769.1 1159.4 2793.7 1170 2813 1232.4 2794.6 1262.4 2818.2 1406.6 2741.1 1424.2 2758.6 1367 2806 1245.6 2876.9 1279.1 2900.6 1214.8 2964.6 1205.2 2996.1 1163.8 3085.5 1143.6 3133.7 1153.2 3206.4 1146.2 3215.2 1117.1 3400.1 1183.1 3423.8 1195.4 3388.7 1232.4 3372.1 1229.8 3363.3 1249.1 3354.5 1270.2 3403.6 1257.9 3454.4 1334.5 3483.4 1276.4 3585 1232.4 3577.1 1191.9 3562.2 1150.6 3521.9 1000.1 3479 885.7 3393 897.2 3372 891.9 3365 810.1 3325.5 621.6 2715.8 863 2707.4 927 2720.7 Z" data-holc_grade="C"/>
<path d="M 1399.6 3035.5 1355.6 3097.8 1334.5 3089.9 1275.5 3110.9 1249.1 3099.5 1252.7 3080.2 1275.5 3003.1 1304.6 2960.2 1318.6 2954 1337.1 2961.1 1399.6 3035.5 Z" data-holc_grade="C"/>
<path d="M 666.4 916.5 626 969 530 975.5 339.4 988.2 343.8 970.7 338.5 950.5 329.7 936.5 298.9 975.9 276.1 979.4 218.9 944.4 182 890.9 155.6 880.4 98.5 886.5 67.7 902.3 1 685.9 92.5 628.2 177.7 641.4 192.7 544.2 217.3 545.9 234.9 428.6 176.1 335.8 258 248.9 307.9 303.5 308.6 302.8 350.8 265.7 437.2 347 464 320.4 511.8 290.3 565.2 370.2 406.2 535.4 437.2 562.8 480.7 634.9 449.1 623 422.4 667.8 467.4 696.6 444.8 740 496.2 775.1 515.2 768.8 541.9 760.4 556.7 745 565.1 729.5 578.6 776.4 615.5 842.9 666.4 916.5 Z" data-holc_grade="C"/>
<path d="M 784.2 1470.6 806.6 1451.7 837.8 1411.9 852.8 1382.6 879.8 1384.8 965.5 1324.3 1051.7 1293.3 1079.4 1295.5 1090.8 1341 1060.5 1391.4 1029.3 1464.9 1104.5 1429.9 1115.9 1464.1 1124.2 1498.7 1126.4 1523.6 1098.3 1542.9 1035 1573.1 982.2 1597.2 967.7 1604.6 941.8 1608.1 931.6 1599.8 915.8 1566.9 889.9 1580.1 859.5 1592.3 807.2 1609 795.8 1609 787 1612 720.6 1530.1 801.1 1506.1 784.2 1470.6 Z" data-holc_grade="C"/>
<path d="M 1379.1 1693.6 1379.1 1706.9 1314.3 1816.2 1522.6 1930.5 1505.7 1951.5 1443.1 1922.8 1424.8 1920 1412.1 1924.9 1344.6 1979.5 1269.3 1931.9 1255.9 1927 1217.9 1819 1208.1 1762.3 1264.4 1651.6 1282 1670.5 1327 1692.2 1379.1 1693.6 Z" data-holc_grade="C"/>
<path d="M 1477.7 2348.3 1351.8 2121.9 1344.2 2123.9 1334.2 2070.1 1405.2 1976.8 1434.8 1966.3 1478.4 1973.3 1518.5 1995.8 1559.3 2078.5 1545.2 2091.1 1613.5 2217.9 1600.8 2280.3 1591 2295.7 1586.1 2363 1564.3 2384.7 1542.4 2400.9 1527.7 2400.2 1505.1 2386.9 1477.7 2348.3 Z" data-holc_grade="C"/>
<path d="M 1917.4 2609.2 1951.8 2781.3 1962.2 2873.2 1910.1 2888.6 1874.4 2744.2 1766.7 2773.6 1733 2762.4 1696.4 2627.1 1697.7 2318.7 1772.3 2318 1881.4 2481.3 1906 2482 1917.3 2608.9 1917.4 2609.2 Z" data-holc_grade="C"/>
<path d="M 2157.8 2671.7 2094 2781.3 2069.4 2794.6 2058.8 2791.1 2048.9 2775.7 1994 2791.8 1984.9 2772.2 1951.8 2781.3 1917.4 2609.2 1995.4 2592.7 2172.8 2646 2157.8 2671.7 Z" data-holc_grade="C"/>
<path d="M 2157.8 2671.7 2172.8 2646 1995.4 2592.7 1917.4 2609.2 1917.3 2608.9 1906 2482 1918.7 2479.2 1966.5 2363.5 2117.1 2423.1 2120.7 2439.9 2201.6 2439.2 2195.3 2467.2 2491.5 2469.3 2485.9 2565.3 2450.7 2576.5 2450 2686.6 2460.6 2701.3 2543.6 2622.8 2576 2626.2 2606.3 2655.7 2431.8 2821.9 2395.2 2753.9 2366.3 2772.1 2324.1 2756.7 2299.5 2758.8 2274.1 2779.1 2248.8 2779.9 2239 2784.8 2157.8 2671.7 Z" data-holc_grade="C"/>
<path d="M 2472.5 3138 2725.8 2915 2771.6 2950 2747.7 2980.9 2772.3 2997 2837.1 3032 2806.8 3093.7 2809 3176.4 2816 3184.9 2831.5 3191.2 2861 3191.9 2890.6 3191.1 2936.4 3178.5 2950.4 3175.7 2968.7 3181.3 2999 3196 2983.5 3232.5 2933.6 3322.2 2921.6 3334.8 2916 3349.6 2868.9 3472.3 2605.6 3285.9 2472.5 3138 Z" data-holc_grade="C"/>
</g>
<g id="D">
<path d="M 927.8 34.3 973.5 1 1036.8 4.5 1038.5 64 1101.8 131.5 1093 273.3 1117.6 313.6 1124.6 336.4 1138.7 361.8 1141.3 401.2 1160.7 403.8 1141.3 437.9 1148.4 480.8 1125.5 530.7 1116.7 551.8 1113.2 568.4 1075.4 641.1 939.1 714.6 907.5 667.3 947 648.9 939.1 634.9 976 552.6 1036.7 502.7 1028.8 206.8 956.8 191.9 927.8 34.3 Z" data-holc_grade="D"/>
<path d="M 2671 1038 2695.3 998.6 2722.7 983.9 2780.2 927.1 2788.1 924.5 2821.3 875.1 2850.8 835.1 2872.5 846.7 2915.7 894.5 2962.7 906 2972.2 964.3 2947.9 998 2890.5 1053.2 2848.4 1277.1 2825.7 1265.5 2796.1 1229.3 2769.2 1175.1 2733.8 1142.6 2685.3 1092.7 2671 1038 Z" data-holc_grade="D"/>
<path d="M 1639.9 1966 1601.2 1945 1650.3 1848.8 1677.8 1852.1 1710.8 1840 1740.4 1823.6 1838.3 1703.1 1910.8 1629.8 1902 1592.5 1798.7 1459 2124 1206 2133.9 1207.1 2163.5 1183 2193.2 1166.6 2219.6 1192.9 2246 1174.2 2270.1 1198.3 2298.7 1172 2321.8 1192.8 2343.8 1222.4 2295.4 1267.3 2304.2 1277.1 2268 1310 2282.3 1331.9 2249.3 1360.4 2250.4 1373.5 2242.7 1388.8 2227.3 1402 2199.8 1369.1 2143.8 1410.7 2130.6 1398.7 2019.6 1481.9 2041.6 1510.4 1998.7 1544.3 2037.2 1595.8 1961.4 1677.9 1989.9 1693.2 1954.8 1738.1 2009.8 1807.1 1879 1924.3 1795.4 1958.3 1639.9 1966 Z" data-holc_grade="D"/>
<path d="M 1923.5 2081.7 2033.4 2011.2 2063.8 2021.7 2080.1 1979.2 2179.9 2012.4 2318.9 2064.5 2274.5 2151.7 2258.2 2149.1 2227.9 2239.3 2221.7 2241.1 2193.6 2259.5 2041.4 2288 1978.5 2257.3 1990.8 2222.3 1934.5 2195.6 1926.2 2184.2 1923.1 2173.2 1925.7 2155.3 1935 2129.4 1913.9 2120.7 1911.2 2114.1 1923.5 2081.7 Z" data-holc_grade="D"/>
<path d="M 1966.5 2363.5 1918.7 2479.2 1906 2482 1881.4 2481.3 1772.3 2318 1697.7 2318.7 1696.4 2627.1 1633.8 2640.6 1633.8 2611.7 1673.4 2426.8 1669.8 2377.8 1655.8 2326.1 1660.2 2252.5 1656.6 2194.7 1647.8 2165.7 1587.2 2043.1 1576.6 1995.8 1601.2 1945 1639.9 1966 1627.6 1988.8 1653.1 2020.3 1686.5 2033.5 1694.5 2041.3 1681.3 2097.4 1893.2 2328.7 1966.5 2363.5 Z" data-holc_grade="D"/>
<path d="M 1477.7 2348.3 1399.6 2391.1 1341.9 2391.1 1318 2344.1 1322.9 2311.1 1329.2 2278.2 1355.3 2262.8 1365.1 2224.9 1353.9 2190.6 1340.5 2167.5 1339.8 2168.2 1327.8 2128.2 1344.2 2123.9 1351.8 2121.9 1477.7 2348.3 Z" data-holc_grade="D"/>
<path d="M 480.7 634.9 505.6 649.4 514.4 644.1 512.7 584.6 525.9 540.8 532.9 517.1 505.7 525.9 482.8 522.4 437.2 562.8 406.2 535.4 565.2 370.2 511.8 290.3 464 320.4 437.2 347 350.8 265.7 308.6 302.8 307.9 303.5 258 248.9 298.8 210.4 470.3 183.1 498.5 208.3 509.7 195 688.3 237.1 677 338.7 590.5 489.3 581.4 510.3 574.3 552.3 563.7 602 558.8 656 565.1 729.5 556.7 745 541.9 760.4 515.2 768.8 496.2 775.1 444.8 740 467.4 696.6 422.4 667.8 449.1 623 480.7 634.9 Z" data-holc_grade="D"/>
<path d="M 943.4 921.4 958.9 889.8 977.9 873 1006 872.7 1021.8 887.7 1049.3 905.6 1074.2 925.6 1098.5 948.7 1111.5 957.1 1169.9 980.2 1182.9 976.7 1306.7 920 1338.3 965.2 1290.2 1002 1278.2 1037 1270.1 1061.9 1236 1095.2 1187.8 1055.9 1191 1046.1 948.7 936.4 943.4 921.4 Z" data-holc_grade="D"/>
<path d="M 530 975.5 626 969 666.4 916.5 841.7 1051.2 908.2 954 969.4 982.4 1030.5 1015 1045.3 1023.9 1062.7 1027.1 1121.8 1055.5 1175.1 1089.1 1201.4 1113.3 1216.2 1151.1 1219.4 1233.6 1203.5 1344 1144.5 1309.3 1122.8 1265.1 1091.2 1231.5 1028.4 1176.8 1011 1194.2 969.3 1222.6 935 1256.7 911.8 1285.1 576.9 1053.3 516.2 1049.6 514.6 1041.7 530 975.5 Z" data-holc_grade="D"/>
<path d="M 852.8 1382.6 837.8 1411.9 806.6 1451.7 784.2 1470.6 762.2 1484.1 720.4 1397 698.9 1410.6 649.2 1332.6 611 1349.7 581.1 1284 700.2 1273.5 760.4 1377.3 799.1 1352.8 852.8 1382.6 Z" data-holc_grade="D"/>
<path d="M 1264.4 1651.6 1268.6 1622.1 1301 1615.1 1379.8 1669.1 1379.1 1693.6 1327 1692.2 1282 1670.5 1264.4 1651.6 Z" data-holc_grade="D"/>
<path d="M 1395.1 1289.6 1460.6 1187.6 1540.8 1239.6 1618.8 1191.3 1807.7 1316.4 1747.6 1393.6 1788.7 1422 1767.1 1448.8 1725.9 1427.8 1685.8 1477.2 1683.7 1492.4 1693.8 1506.6 1707 1520.8 1671.1 1572.3 1653.1 1572.8 1646.3 1558.1 1643.6 1541.8 1663.2 1520.8 1662.6 1505.6 1654.2 1501.3 1627.3 1540.2 1598.3 1561.8 1593 1592.3 1703.3 1608.6 1701.7 1623.8 1690.6 1640.6 1650.5 1664.8 1595.6 1662.2 1545 1665.3 1486.9 1661.1 1480.1 1658.5 1457.9 1655.9 1423.6 1621.7 1434.7 1603.3 1417.8 1587.5 1412.5 1572.8 1412 1562.8 1405.2 1553.4 1438.4 1510.8 1494.3 1532.4 1507.5 1517.6 1488.5 1508.2 1508 1416.2 1536 1417.8 1567.1 1405.2 1393 1289.6 1395.1 1289.6 Z" data-holc_grade="D"/>
<path d="M 2049.5 643.4 2059.5 601.9 2183 654.4 2134.5 674.9 2117.1 690.2 2101.8 708.5 2089.6 728 2073.3 754.8 2082.8 759.5 2160.9 793.7 2175.6 769 2183.5 763.7 2195.7 766.9 2245.3 790 2243.1 806.2 2237.4 827.8 2236.8 839.9 2241.1 855.1 2250 864.6 2278.5 879.3 2322.8 898.2 2308.6 930.8 2275.9 1009.6 2273.3 1017.5 2248.5 1028.5 2154.6 986 2104.5 1102.1 2096.6 1106.3 2081.8 1104.7 2037.5 1080.1 2027.4 1063.8 2022.2 1043.3 2025.9 993.9 2006.3 952.4 2007.4 937.7 2030.6 876.2 2032.2 802.1 1990.5 773.7 1973.6 680.2 2049.5 643.4 Z" data-holc_grade="D"/>
<path d="M 2498.5 885.2 2551.7 832.1 2539.6 812.6 2560.7 788.5 2558 586.2 2579.1 567.8 2594.9 561.5 2614.9 559.9 2640.3 561.5 2668.2 565.7 2679.8 583.5 2735.2 556.2 2746.3 546.7 2793.2 542.5 2795.3 567.2 2815.9 600.3 2820.1 618.7 2818.6 643.4 2808 663.9 2808.6 676.5 2817.5 694.9 2815.4 712.7 2786.4 731.6 2788 745.3 2792.8 751.6 2793.8 776.3 2782.2 802.1 2779.6 815.2 2771.2 828.9 2734.8 842.5 2711 859.9 2684.2 898.2 2668.9 914.5 2569.7 987.6 2498.5 885.2 Z" data-holc_grade="D"/>
</g>
</svg>