<?xml version="1.0"?>
<svg xmlns="http://www.w3.org/2000/svg" version="1.2" baseProfile="tiny" width="3000" height="2927" viewBox="0 0 3000 2927" stroke-linecap="round" stroke-linejoin="round">
<g id="A">
<path d="M 1020 1491.2 1029.9 1545.4 1039.8 1583.8 1052.5 1637.6 1063.4 1664.5 1065.8 1682.4 1034.8 1696.7 1006.9 1705.3 985.1 1707.2 965.9 1701.6 951 1692.3 938.3 1675.9 931.1 1657.4 929.6 1647.8 936.4 1628.6 959.7 1599.5 931.2 1527.5 924.7 1505.2 926.1 1493.8 1012.6 1491.1 1020 1491.2 Z" data-holc_grade="A"/>
<path d="M 598.1 1781.4 705.4 1907.1 631.3 2056.3 635 2060.2 737 2059.6 735.8 2231.4 557.2 2230 564 2103.6 464.8 2101.7 465.3 2046 503.5 1877.9 598.1 1781.4 Z" data-holc_grade="A"/>
<path d="M 832.4 2431 885.2 2428.3 957.4 2429.9 1002.4 2433.4 1017.5 2697.1 989.9 2757.8 951.8 2809.2 902.9 2855.6 873 2880 830.3 2906.2 810.5 2921.3 788.8 2926.3 772.5 2925.2 752.3 2916.7 723.2 2905.8 703.8 2884.6 688.7 2849.4 688.3 2824.2 706.6 2779.8 727.9 2748.8 754.7 2726.8 795.8 2696.6 826.9 2659.9 828.3 2479 832.4 2431 Z" data-holc_grade="A"/>
</g>
<g id="B">
<path d="M 477.6 758.6 479.8 877.2 376.5 873.9 349.4 873.5 318.2 870 321.2 896.4 320.9 1050.8 210.6 967.8 216.9 864.6 173.9 861.8 135.5 856.9 138.8 815.6 135.9 560.6 136.7 426.3 55.8 421.2 57.8 335.4 159.4 335.3 377.4 334.8 453.7 382.6 452.6 428.3 445.9 487.5 451.9 571.7 451.9 656.3 470.9 668.3 473.8 730.1 477.6 758.6 Z" data-holc_grade="B"/>
<path d="M 655.6 905.2 655.6 906.1 733.5 914.7 913.7 985.1 907.6 984.4 790.7 991.9 791 1069.4 792.6 1138.1 793.6 1182.9 696.8 1185.2 695 1159.2 620.5 1158.9 619.2 1140.2 456.9 1136.2 456.9 1051.4 620.2 1051.3 619.5 900 655.6 905.2 Z" data-holc_grade="B"/>
<path d="M 2232.7 720.2 2123.1 721.8 2116.9 501.4 2216.5 503.2 2223.6 577.4 2222.4 655.3 2233 655.3 2232.7 720.2 Z" data-holc_grade="B"/>
<path d="M 2773.4 670.7 2710.3 671 2709.6 559.7 2707.7 498.5 2490.8 501.7 2496 342.5 2559.3 350.5 2555.9 412.7 2596.9 416.1 2689.4 415.4 2691.2 350.5 2775.3 350.8 2773.5 416.5 2815.4 416.9 2816.8 498.5 2773.5 499.5 2773.4 670.7 Z" data-holc_grade="B"/>
<path d="M 2832.1 825.7 2831.6 749 2775.8 746.9 2773.4 670.7 2773.5 499.5 2816.8 498.5 2860.9 500 2866.2 825.9 2832.1 825.7 Z" data-holc_grade="B"/>
<path d="M 942.1 1768.5 946.7 1860.1 951.7 1865.8 956.1 1870.9 957.3 1934.2 761.9 1934.2 762.9 1879 718.2 1846.9 756.3 1768.1 942.1 1768.5 Z" data-holc_grade="B"/>
<path d="M 1260.6 1962.4 1345.8 1961.8 1350.5 1979.4 1421.5 1981.8 1425 2039.8 1462 2040.2 1466 2094.3 1506.2 2093.5 1507.6 2110.9 1507.6 2129.6 1496.2 2132.7 1484.1 2145.7 1485 2199.5 1431.3 2201.4 1430.7 2263.2 1296.4 2264.2 1255.9 2264.5 1004.3 2257.1 1005.5 2176.9 1014.8 2104.5 1015 2074.2 1021 2055.3 1041 2015.4 1061 1998.7 1070.1 1995.9 1095.7 2005.6 1120.4 2004.9 1136.2 2005.6 1150.4 2000.8 1169.1 1989.9 1175.3 1977.8 1175.8 1964.6 1198.2 1953.9 1205.4 1954.2 1223.1 1972.7 1228.2 1984.5 1227.5 2006.8 1224.7 2016.3 1228.2 2021 1252.4 2019.7 1262.9 2019.1 1260.3 1970.2 1260.6 1962.4 Z" data-holc_grade="B"/>
<path d="M 1897 2103.3 1972.8 2103.8 2225.5 2100.2 2227.8 2261.5 2149.4 2263.4 2149.9 2375.2 2144.4 2413.8 2088.2 2410.7 2024.9 2412.3 1984.5 2343.5 1954.4 2301.7 1930.9 2219.4 1892.7 2197.5 1889.6 2206.6 1884.6 2212.6 1866.5 2220.6 1823.6 2187.5 1819.2 2176.7 1816.3 2162 1819 2142.7 1827.3 2137.4 1840.9 2134.3 1859.5 2141.1 1870.8 2151 1886.3 2151.5 1911.7 2157.3 1897 2103.3 Z" data-holc_grade="B"/>
<path d="M 2195.3 2717.2 2049.8 2718.4 1916.6 2717.7 1909.4 2738.8 1825.3 2737.7 1840 2719.1 1889.6 2639.4 1897.5 2623.9 1914.8 2589.9 2006.4 2585.1 2115.1 2575.5 2186.9 2697.4 2195.3 2717.2 Z" data-holc_grade="B"/>
</g>
<g id="C">
<path d="M 655.6 905.2 619.5 900 620.2 1051.3 456.9 1051.4 454.4 991.5 383.4 988.7 380.9 935.8 376.5 873.9 479.8 877.2 477.6 758.6 477.5 756.1 619.8 755.6 622.3 835.1 654.9 837.5 656 865.8 655.6 905.2 Z" data-holc_grade="C"/>
<path d="M 2710.3 671 2377.4 670.1 2377.7 742.8 2384.5 748 2385.8 821.3 2181.3 829.4 2158.8 796.4 2233.3 738.2 2232.7 720.2 2233 655.3 2222.4 655.3 2223.6 577.4 2216.5 503.2 2255.7 504.8 2300.7 506.3 2408 502.9 2490.8 501.7 2707.7 498.5 2709.6 559.7 2710.3 671 Z" data-holc_grade="C"/>
<path d="M 2710.3 671 2773.4 670.7 2775.8 746.9 2831.6 749 2832.1 825.7 2610.3 827.7 2612.9 878.2 2541.2 880.4 2544.3 922.6 2450.8 915.6 2451.6 1003.4 2382.6 1025 2381.8 944.3 2358.9 941.6 2231.7 933.5 2075.7 843.3 2084.7 837.4 2134 815.8 2158.8 796.4 2181.3 829.4 2385.8 821.3 2384.5 748 2377.7 742.8 2377.4 670.1 2710.3 671 Z" data-holc_grade="C"/>
<path d="M 262.4 1446.1 218 1462.5 38.2 1525.5 38.3 1520.3 1 1533.2 3.2 1447 9.2 1338.8 40.5 1340.6 139.8 1339.1 143 1265.9 413.9 1265.4 415.4 1389.7 262.4 1446.1 Z" data-holc_grade="C"/>
<path d="M 38.2 1525.5 218 1462.5 262.4 1446.1 265.1 1667 165.7 1665.1 164.2 1585 38.2 1583.7 38.2 1525.5 Z" data-holc_grade="C"/>
<path d="M 878.1 1201.8 746.2 1257 697.2 1277.6 696.8 1185.2 793.6 1182.9 792.6 1138.1 949.4 1135.4 886.1 1198.4 878.1 1201.8 Z" data-holc_grade="C"/>
<path d="M 1453.2 1449.4 1342.2 1448.9 1266.9 1447.6 1180 1445.5 1177.3 1352 1077.8 1352.5 1076.6 1317.9 1078.5 1291.7 1077.5 1192.2 1075.6 1144.5 1046.1 1144.7 1044.9 1173.5 990.3 1173.4 1005.4 1129.8 1079.1 1066 1139.4 1064.1 1147.6 1046.9 1228.8 1045.6 1229.8 1132.1 1229.4 1168.6 1397.4 1169.4 1398.3 1220.4 1453.4 1219.7 1457.3 1325.2 1458.3 1449.4 1453.2 1449.4 Z M 1615.6 1325.6 1506.2 1326.9 1503.8 1168.1 1575.8 1163.6 1576.8 1248.9 1605.5 1251 1610.7 1253.7 1615.6 1262.2 1615.6 1325.6 Z" data-holc_grade="C"/>
<path d="M 1345 1490.2 1345.7 1532.4 1344.6 1532.9 1346.8 1536.5 1346.1 1574.6 1264 1573.9 1263.7 1665.9 1160.5 1662.8 1115.5 1661.5 1118.6 1693.7 1118.8 1695.3 1120.1 1735 1119.7 1770.7 1076.5 1770.1 1078.5 1722.6 1077.5 1664.8 1070.6 1618.1 1069.2 1574.4 1067.5 1491.9 1020 1491.2 1012.6 1491.1 926.1 1493.8 938.5 1468.7 985.1 1367.2 991.1 1332.6 1045.4 1330.1 1047.9 1318.3 1076.6 1317.9 1077.8 1352.5 1177.3 1352 1180 1445.5 1266.9 1447.6 1267.5 1489.5 1345 1490.2 Z" data-holc_grade="C"/>
<path d="M 1506.2 2093.5 1466 2094.3 1462 2040.2 1425 2039.8 1421.5 1981.8 1462.2 1976.1 1465.9 1956.9 1492.7 1952.5 1502.8 1957.4 1503.1 2008.2 1506.2 2093.5 Z M 1263.4 1880.8 1265 1833.6 1264.6 1801.6 1332.7 1800.9 1413.2 1802.8 1415.3 1832.6 1464.1 1833.5 1465.2 1880.8 1465.3 1883.7 1263.4 1880.8 Z M 1263.7 1665.9 1264 1573.9 1346.1 1574.6 1347.7 1678.5 1460.4 1679.9 1465.5 1772.5 1465.4 1774.2 1408.3 1770.9 1349.9 1770.7 1349.2 1737.8 1345.3 1711.6 1263.5 1711 1263.7 1665.9 Z M 1346.8 1536.5 1344.6 1532.9 1345.7 1532.4 1345 1490.2 1342.2 1448.9 1453.2 1449.4 1454.6 1475.6 1409.5 1476.3 1408.3 1535.6 1346.8 1536.5 Z" data-holc_grade="C"/>
<path d="M 1265 1833.6 1263.4 1880.8 1260.6 1962.4 1260.3 1970.2 1262.9 2019.1 1252.4 2019.7 1228.2 2021 1224.7 2016.3 1227.5 2006.8 1228.2 1984.5 1223.1 1972.7 1205.4 1954.2 1198.2 1953.9 1175.8 1964.6 1175.3 1977.8 1169.1 1989.9 1150.4 2000.8 1136.2 2005.6 1120.4 2004.9 1095.7 2005.6 1070.1 1995.9 1061 1998.7 1041 2015.4 1021 2055.3 1016.8 2012.4 1016.3 1959.5 1171.9 1960 1169.8 1921 1014.5 1917.5 1012.6 1865.5 951.7 1865.8 946.7 1860.1 942.1 1768.5 1076.5 1770.1 1119.7 1770.7 1119 1831.7 1265 1833.6 Z" data-holc_grade="C"/>
<path d="M 1692.4 1613.6 1692.4 1654.9 1676.8 1654.6 1509.5 1651.6 1507.9 1374.3 1758.1 1367.8 1816.7 1493.6 1712.8 1492.7 1642.3 1556.4 1541.1 1561.7 1540.1 1609.9 1692.4 1613.6 Z M 1593.5 2100.7 1562.2 2100.7 1557.3 1949.5 1510.7 1883.3 1509.8 1717.9 1574.9 1720 1577 1751 1647.1 1754 1632.3 1805.1 1595.4 1804.2 1593.5 2100.7 Z" data-holc_grade="C"/>
<path d="M 772.2 757.5 775.1 847.8 705.6 847.2 704.4 878.8 732.4 878.8 733.5 914.7 655.6 906.1 655.6 905.2 656 865.8 654.9 837.5 622.3 835.1 619.8 755.6 772.2 757.5 Z M 770 648.4 711.6 647.4 709.1 540.5 768.8 570.8 770 648.4 Z" data-holc_grade="C"/>
<path d="M 2076.4 1391.5 2174.4 1498.1 2218.9 1546.4 2220.5 1613.5 2209.4 1613.8 1992.7 1610.8 1937.8 1608.8 1939.6 1582 1929.3 1562.2 1883.4 1483.4 1837.4 1403.3 1830.6 1385.1 1885.9 1388.5 1937.1 1387.2 2076.4 1391.5 Z" data-holc_grade="C"/>
<path d="M 1972.8 2103.8 1897 2103.3 1865.7 2103.1 1804 2100.4 1703.7 2101.7 1703.7 2086.5 1715.9 2063.7 1737.6 2037 1768.7 2037.6 1709.5 1941.7 1784.4 1931.2 1819.9 1930.7 1863.9 1991.7 1944.7 1992.4 1976.5 1965.4 1977.5 1919.1 2257.2 1920.1 2384.3 1920.5 2385.8 1985.1 2009.1 1986.1 1973.8 2019.8 1972.8 2103.8 Z M 2220.5 1613.5 2275.3 1612.2 2300.4 1642.4 2298.6 1690.9 2302.5 1733.6 2306.4 1852.5 2283.9 1873.6 2258.5 1888.6 2241 1897.7 1821.1 1894.3 1819.5 1869.8 1722.1 1868.2 1721.3 1784.9 1682.9 1783.8 1692.4 1654.9 1692.4 1613.6 1736.3 1613.7 1824.1 1613.8 1877 1613.9 1871.6 1629.3 1936.3 1628 1937.8 1608.8 1992.7 1610.8 2209.4 1613.8 2220.5 1613.5 Z" data-holc_grade="C"/>
<path d="M 544.6 2346.9 502.7 2398.8 491.5 2410.7 491.8 2425.7 491.7 2638.3 554.3 2639.9 631.2 2644.6 633.5 2683.1 591.8 2681.2 552 2680.3 553.1 2708.3 550.8 2719 548.5 2749.2 213.1 2734.9 213.4 2692.2 217.6 2634.7 33.6 2629.2 33 2502.3 31.9 2411.8 15.1 2407.2 12.3 2399.8 17.2 2377.3 27.3 2356.9 28.2 2334.1 10.8 2309.5 4.3 2288.4 4.7 2274.5 4.3 2262.4 120.2 2264.1 156.5 2266.9 187.3 2265.1 223.1 2264.4 246.6 2265.3 289 2267 297.4 2281.1 289.2 2299.5 287.1 2315 279.9 2325.7 282.5 2338 293.9 2357.2 304.1 2372.1 313.7 2377.6 327.2 2381.4 339.7 2381.8 348.8 2385.3 362.5 2390.7 371.4 2385.3 396.1 2395.1 418.4 2400.2 448.2 2397.2 454.8 2390 459.2 2374.7 519.3 2304.4 554.7 2262.9 614.1 2262.9 544.6 2346.9 Z" data-holc_grade="C"/>
<path d="M 1507.6 2129.6 1515.4 2127.5 1521.9 2127.8 1522.6 2141.4 1516.7 2148.2 1507 2153.7 1508.6 2200.4 1541.2 2199.2 1542.4 2100.9 1562.2 2100.7 1593.5 2100.7 1592.3 2250.6 1538.7 2252.4 1541 2290.9 1540.3 2335.6 1535 2400.6 1531.6 2425.9 1529.4 2483.5 1528.2 2578.7 1529.4 2669.1 1535.6 2732.8 1530.9 2738.4 1248.7 2739.3 1248.1 2714.5 1067.1 2713.3 1069.2 2671.5 1069.6 2400.5 993.5 2396.5 931.1 2394.9 869 2397.1 707.9 2396.4 502.7 2398.8 544.6 2346.9 846.4 2348.8 876.8 2349.5 940.1 2347.9 1017.1 2349.8 1103.8 2354.1 1255.3 2356.3 1255.9 2264.5 1296.4 2264.2 1430.7 2263.2 1431.3 2201.4 1485 2199.5 1484.1 2145.7 1496.2 2132.7 1507.6 2129.6 Z M 1240.8 2402.6 1132.1 2402.6 1130.6 2656.2 1239.2 2660.5 1240.8 2402.6 Z M 1391.4 2525.9 1402.6 2440.1 1364.2 2442 1362.7 2480.3 1285.4 2486.5 1285.4 2534.4 1391.4 2525.9 Z" data-holc_grade="C"/>
<path d="M 1914.8 2589.9 1897.5 2623.9 1889.6 2639.4 1782.7 2638.3 1782.3 2632.3 1787.1 2619.5 1790.1 2603.4 1796.8 2579.9 1796.3 2559.2 1817.1 2559.3 1875.2 2564.5 1927.8 2564.4 1914.8 2589.9 Z M 1954.4 2301.7 1984.5 2343.5 2024.9 2412.3 2088.2 2410.7 2144.4 2413.8 2186.1 2414.3 2181.9 2493 2300.9 2494.3 2304.2 2580.2 2441.5 2589.2 2538 2588 2536.5 2719.3 2269.9 2719 2195.3 2717.2 2186.9 2697.4 2115.1 2575.5 2022.8 2429.2 1985 2499.9 1874.3 2503.5 1861.6 2500.2 1859.1 2413.4 1912.1 2413.2 1890.1 2329.7 1883 2290.6 1914.4 2301.8 1938.7 2303.8 1954.4 2301.7 Z" data-holc_grade="C"/>
<path d="M 955.1 622.2 956.9 756.7 939.5 756.3 947.8 922.1 951.4 988.9 913.7 985.1 909.6 923.4 904 849.5 775.1 847.8 772.2 757.5 770 648.4 768.8 570.8 709.1 540.5 601.4 485.9 606.6 454 795.3 549.7 793.1 420.1 795.8 392.7 798.8 360.5 800.8 322.1 852.5 363.6 852.5 478.2 922.5 621.5 955.1 622.2 Z" data-holc_grade="C"/>
<path d="M 1123.2 751.1 1110.5 751.6 956.9 756.7 955.1 622.2 1017 626.2 1017.8 602.6 1027.3 617 1065.7 669.2 1123.2 751.1 Z" data-holc_grade="C"/>
<path d="M 913.7 985.1 951.4 988.9 947.8 922.1 939.5 756.3 956.9 756.7 1110.5 751.6 1114.2 845.7 1192.7 846.1 1198.7 904.9 1215 891.4 1236.2 881.7 1238.5 975 1123.1 979.6 1030.9 1063.5 996.8 1061.9 935.3 1067.5 873.5 1070 791 1069.4 790.7 991.9 907.6 984.4 913.7 985.1 Z" data-holc_grade="C"/>
<path d="M 1123.2 751.1 1065.7 669.2 1027.3 617 1017.8 602.6 939.7 484.1 987.7 481.4 987.6 332 1096.9 328.5 1095 497.5 1227.2 497.1 1234.4 782 1217.2 786.9 1193.9 783.2 1180.4 771.8 1166 749.3 1123.2 751.1 Z" data-holc_grade="C"/>
<path d="M 1274.6 232.6 1343.6 231.1 1346.7 166.2 1424.2 165 1428.9 317.6 1432.8 490.4 1437.4 779.9 1281.6 785.2 1277 310 1274.6 232.6 Z" data-holc_grade="C"/>
<path d="M 2748.5 33.5 2748.2 108.1 2251.6 409.6 2248.4 175.5 2343.8 168.1 2382.9 153.4 2442.7 205.5 2447.3 219.8 2576 140.2 2748.5 33.5 Z" data-holc_grade="C"/>
<path d="M 2232.7 720.2 2233.3 738.2 2158.8 796.4 2134 815.8 2084.7 837.4 2075.7 843.3 2036.4 821.9 2032.1 804.7 2027.4 654.3 2068.8 656 2072.9 572.2 2076.2 502.6 2116.9 501.4 2123.1 721.8 2232.7 720.2 Z" data-holc_grade="C"/>
</g>
<g id="D">
<path d="M 1577.7 1 1574.6 170.2 1537.7 167.1 1533.5 279.2 1532.7 349.9 1535.4 498.6 1525.7 499.8 1525.7 562.4 1528.4 597.5 1558.7 594.4 1560.7 640.5 1561.1 647.9 1566.4 769.1 1485 774.5 1483.4 697.6 1468.3 695.3 1466.4 596.8 1481.5 594.1 1468.3 234.7 1464.6 165.5 1448.3 165.5 1448.9 1 1577.7 1 Z M 2036.4 821.9 1959 832.7 1953.9 761.8 1915.7 761 1908.7 723.9 1903.5 691.7 1900.3 649.7 1928.2 630.9 1936.2 650.8 2027.4 654.3 2032.1 804.7 2036.4 821.9 Z" data-holc_grade="D"/>
<path d="M 1615.6 1325.6 1615.6 1262.2 1610.7 1253.7 1605.5 1251 1576.8 1248.9 1575.8 1163.6 1635.8 1162.4 1724.3 1307.7 1697.9 1325.3 1615.6 1325.6 Z" data-holc_grade="D"/>
<path d="M 1824.1 1613.8 1736.3 1613.7 1737.2 1530.3 1831 1511.3 1855.2 1553.3 1824.8 1560.5 1824.1 1613.8 Z" data-holc_grade="D"/>
<path d="M 2174.4 1498.1 2076.4 1391.5 2039.8 1351.3 2057.3 1350.7 2057.1 1294.3 2203.9 1295.8 2203.5 1349.7 2185.5 1350.3 2188.4 1485.8 2174.4 1498.1 Z" data-holc_grade="D"/>
<path d="M 2525.2 1518.4 2523.7 1546.6 2523.4 1551.5 2520.8 1772.4 2451.9 1770.5 2452.5 1687.5 2381.5 1686 2382.1 1610.2 2382.4 1500.7 2525.2 1518.4 Z" data-holc_grade="D"/>
<path d="M 2856 1452.3 2857.5 1581.8 2523.7 1546.6 2525.2 1518.4 2530.4 1398.5 2617.4 1439.7 2629.5 1434.8 2644.9 1427.4 2661.7 1426.7 2683.3 1421.1 2705.7 1433.2 2716.1 1451.7 2731.7 1467.3 2746.9 1475.4 2757.8 1479.3 2782.5 1494.8 2813.2 1495.5 2829.5 1485.3 2840.9 1464.7 2852.5 1454.2 2856 1452.3 Z" data-holc_grade="D"/>
<path d="M 2857.5 1581.8 2856 1452.3 2862.6 1448.6 2875.8 1454.4 2949.8 1453.9 2997.1 1458.1 2999 1535.8 2996.5 1645.2 2974.4 1644.6 2872.2 1627.4 2857.5 1581.8 Z" data-holc_grade="D"/>
<path d="M 746.2 1257 878.1 1201.8 868.7 1210.4 772.1 1299.6 760 1286.5 746.2 1257 Z" data-holc_grade="D"/>
<path d="M 1016.3 1959.5 1014.5 1917.5 1169.8 1921 1171.9 1960 1016.3 1959.5 Z" data-holc_grade="D"/>
<path d="M 1160.5 1662.8 1162.7 1692.7 1118.6 1693.7 1115.5 1661.5 1160.5 1662.8 Z" data-holc_grade="D"/>
</g>
</svg>