<?xml version="1.0"?>
<svg xmlns="http://www.w3.org/2000/svg" version="1.2" baseProfile="tiny" width="3000" height="4177" viewBox="0 0 3000 4177" stroke-linecap="round" stroke-linejoin="round">
<g id="A">
<path d="M 2861.2 3166.6 2866.4 3297.3 2901.5 3306.4 2923.5 3306.4 2928.8 3415.1 2972.9 3411.2 2983.3 3426.7 2999 3663.6 2883.4 3657.1 2695 3655.9 2717.5 3159.4 2861.2 3166.6 Z" data-holc_grade="A"/>
</g>
<g id="B">
<path d="M 2717.5 3159.4 2719.8 2908.6 2714.2 2626.8 2792.2 2626.8 2779.7 2532 2888 2531.2 2844.1 2616.7 2848 2721.5 2880.5 2722.8 2881.8 2836.6 2852 2837.9 2855.9 3028.2 2949.4 3023 2943 3101.9 2943 3167.9 2861.2 3166.6 2717.5 3159.4 Z" data-holc_grade="B"/>
<path d="M 2717.5 3159.4 2695 3655.9 2883.4 3657.1 2867.8 3728.3 2867.9 3921.2 2771.7 3926.4 2679.5 3922.5 2578.9 3918 2586.7 3642.9 2621 3645.6 2673.1 3158.7 2717.5 3159.4 Z" data-holc_grade="B"/>
<path d="M 2006.5 3541.6 2107 3543.7 2108.6 3639.1 2011.2 3639.1 2012.9 3800.9 1759.5 3802.6 1579.3 4006.4 1402.3 4174.7 1257.8 4176.3 1259.4 3695.8 1265.9 3621.4 1481.9 3621.4 1479.5 3394.9 1748.1 3391.6 1869.9 3407.8 1869.9 3538.8 2006.5 3541.6 Z" data-holc_grade="B"/>
<path d="M 644.8 2523.5 650.2 2911.1 651.7 3023 1 3019 411 2638 535.7 2636.3 538.9 2519.6 644.8 2523.5 Z" data-holc_grade="B"/>
</g>
<g id="C">
<path d="M 2466.4 3198.4 2416.4 3198.4 2406 3223 2387.8 3223.3 2373.6 2539.8 2440.2 2539.8 2430.4 2465.4 2492.1 2454.1 2877 2384.5 2888 2531.2 2779.7 2532 2792.2 2626.8 2714.2 2626.8 2719.8 2908.6 2717.5 3159.4 2673.1 3158.7 2671.5 3052.3 2599 3050.7 2545.2 3031.3 2498.5 3012.7 2459.5 3013.5 2442.4 3079.5 2465 3120.7 2466.4 3198.4 Z" data-holc_grade="C"/>
<path d="M 2057.4 654.9 2055.4 767.7 1934.9 770.8 1934.9 1102 1714.9 1010.9 1713.9 933.3 1666.1 933.3 1666.1 698.4 1719 702.6 1718 599.1 1894.5 598 1895.6 618.7 2054.5 621.8 2057.4 654.9 Z" data-holc_grade="C"/>
<path d="M 2012.9 3800.9 2011.2 3639.1 2108.6 3639.1 2107 3543.7 2006.5 3541.6 1998.2 3228.2 2212.5 3231.4 2217.4 3543.6 2366.8 3542 2296.9 3221.7 2387.8 3223.3 2406 3223 2416.4 3198.4 2466.4 3198.4 2467.1 3232 2486.6 3289.6 2469.7 3486.3 2552.2 3487.6 2554.8 3642.3 2586.7 3642.9 2578.9 3918 2435.4 3916.7 2382.7 3648.1 2281.4 3647.5 2289.9 4076.6 2013.9 4078.6 2012.9 3800.9 Z" data-holc_grade="C"/>
<path d="M 1479.5 3394.9 1481.9 3621.4 1265.9 3621.4 850.2 3614.8 840.5 3385.1 661.9 3391.6 655.7 3089 870.7 3083.2 870.7 3046.3 943.4 3046.3 942.8 2993.9 1037.6 2993.9 1035.6 2893.6 1292.2 2894.3 1296.7 3129.2 1470.1 3000.4 1464.9 2772.7 1596.7 2770.7 1598.8 2804.4 1662.1 2804.4 1660.4 2846.5 1826 2840 1824.4 3019.5 1993.3 3017.9 1993.3 3103.6 1861.8 3100.4 1861.8 3259 1740 3257.4 1740 3297.8 1478.6 3305.9 1479.5 3394.9 Z" data-holc_grade="C"/>
<path d="M 850.2 3614.8 734.9 3615.3 528.7 3616.2 134.1 3617.9 130.9 3553.2 400.5 3548.4 398.9 3389.9 661.9 3391.6 840.5 3385.1 850.2 3614.8 Z" data-holc_grade="C"/>
<path d="M 733.3 3800.9 736.5 4153.6 140.5 4148.6 140.5 3938.3 462.1 3933.5 463.7 3881.7 533.5 3881.7 530.3 3797.6 733.3 3800.9 Z" data-holc_grade="C"/>
<path d="M 650.2 2911.1 644.8 2523.5 635 2470.4 633.9 2440.2 874 2440.1 870.8 2331.4 873.4 2079.7 820.8 2073.9 819.5 1976.9 1116.2 1989.8 1117.5 2492.5 1047.4 2492.5 1047.3 2779.8 783 2775.9 784.3 2907.2 650.2 2911.1 Z" data-holc_grade="C"/>
<path d="M 633.9 2440.2 633.7 2434.9 631.2 2238.8 724.7 2240.1 723.4 1974.3 819.5 1976.9 820.8 2073.9 873.4 2079.7 870.8 2331.4 874 2440.1 633.9 2440.2 Z" data-holc_grade="C"/>
<path d="M 2459.6 1916.4 2460.5 1468.2 2484.4 1465.1 2482.3 1330.6 2350.4 1329.6 2348.3 1166.1 2299.5 1159.9 2297.4 826.6 2466.5 822.9 2469.1 926.4 2553.5 930.3 2554.2 916.7 2684.6 921.8 2691.8 1192.8 2740.5 1193.5 2789.9 1465.1 2677 1470.3 2666 1514.3 2716 1533.1 2672.5 1697.4 2620.6 1769.8 2648.5 1826.1 2612.2 1859.8 2499.8 1861.7 2499.2 1911.5 2459.6 1916.4 Z" data-holc_grade="C"/>
<path d="M 2044 1619.4 2044.1 2100.7 1591.1 2103.8 1590.1 2005.5 1461.3 1997.2 1181.2 1990.5 1179.9 1641.9 1376 1645.1 1376.6 1458.2 1723.3 1469.2 1723.3 1208.5 2007.6 1212.4 2040.8 1335.3 2044 1619.4 Z" data-holc_grade="C"/>
</g>
<g id="D">
<path d="M 1998.2 3228.2 1993.3 3103.6 1993.3 3017.9 1824.4 3019.5 1826 2840 1856.3 2839.5 1859.4 2942 2198.2 2933.7 2208.6 3160.4 2278.2 3159.4 2296.9 3221.7 2366.8 3542 2217.4 3543.6 2212.5 3231.4 1998.2 3228.2 Z" data-holc_grade="D"/>
<path d="M 2492.1 2454.1 2430.4 2465.4 2440.2 2539.8 2373.6 2539.8 2387.8 3223.3 2296.9 3221.7 2278.2 3159.4 2269.8 2932.9 2198.2 2933.7 2200 2766.3 1857.4 2771.2 1854.2 2734 1777.9 2735.6 1769.7 2543.1 1823.3 2543.1 1816.8 2407.3 2010 2404 2266.5 2363.6 2407.5 2335.6 2471 2323.1 2492.1 2454.1 Z" data-holc_grade="D"/>
<path d="M 1934.9 1102 1934.9 770.8 2055.4 767.7 2057.4 654.9 2177 653.7 2266.2 652.8 2268.3 828.7 2297.4 826.6 2299.5 1159.9 2348.3 1166.1 2350.4 1329.6 2482.3 1330.6 2484.4 1465.1 2460.5 1468.2 2459.6 1916.4 2424.3 1916.4 2421.2 2009.5 2450.3 2189.6 2389 2201 2407.5 2335.6 2266.5 2363.6 2010 2404 1816.8 2407.3 1823.3 2543.1 1769.7 2543.1 1693.5 2544.9 1657.7 2544.3 1654.5 2411.3 1525.7 2411.3 1524.7 2336.7 1462.3 2335.7 1461.3 1997.2 1590.1 2005.5 1591.1 2103.8 2044.1 2100.7 2044 1619.4 2264.3 1651.5 2266.3 1325.4 2219.5 1325.5 2219.5 1265.4 2173.8 1266.5 2170.7 1205.4 2144.7 1205.4 2118.8 1195.1 2079.3 1167.1 2031.5 1141.3 1934.9 1102 Z M 2259.1 1797.7 2147.9 1796.7 2148 1996.5 2261.2 2002.7 2259.1 1797.7 Z M 1915.3 2319.5 1916.3 2237.7 1911.6 2146.7 1734 2145.7 1734.5 2243.9 1735.6 2321.5 1915.3 2319.5 Z" data-holc_grade="D"/>
<path d="M 2177 653.7 2057.4 654.9 2054.5 621.8 1895.6 618.7 1894.5 598 1895.6 408.7 1679.6 410.8 1416.8 395.3 1412.7 17.6 1715.9 15.5 1715.9 2.1 2151 1 2132.3 119 2036.8 122.1 2037.8 254.5 2017.1 255.5 2018.1 402.5 2173.9 400.4 2177 653.7 Z" data-holc_grade="D"/>
<path d="M 1376.6 1458.2 1376 1645.1 1179.9 1641.9 1173.7 1457 1147.8 1455.9 1139 915.7 1372.2 920.9 1376.6 1458.2 Z" data-holc_grade="D"/>
<path d="M 655.7 3089 651.7 3023 650.2 2911.1 784.3 2907.2 783 2775.9 1047.3 2779.8 1047.4 2492.5 1117.5 2492.5 1116.2 1989.8 1181.2 1990.5 1186.3 2529.4 1378.5 2539.7 1657.7 2544.3 1693.5 2544.9 1694.8 2736.4 1595.4 2737.1 1596.7 2770.7 1464.9 2772.7 1470.1 3000.4 1296.7 3129.2 1292.2 2894.3 1035.6 2893.6 1037.6 2993.9 942.8 2993.9 943.4 3046.3 870.7 3046.3 870.7 3083.2 655.7 3089 Z" data-holc_grade="D"/>
<path d="M 734.9 3615.3 733.3 3800.9 530.3 3797.6 528.7 3616.2 734.9 3615.3 Z M 655.7 3089 661.9 3391.6 398.9 3389.9 400.5 3548.4 130.9 3553.2 129.3 3467.5 655.7 3089 Z" data-holc_grade="D"/>
<path d="M 631.2 2238.8 633.7 2434.9 633.9 2440.2 635 2470.4 644.8 2523.5 538.9 2519.6 274 2506.6 279.2 2390.1 274.7 2237.5 461.7 2236.2 457.2 1979.4 542.9 1981.3 551.3 2238.2 631.2 2238.8 Z" data-holc_grade="D"/>
</g>
</svg>