<?xml version="1.0"?>
<svg xmlns="http://www.w3.org/2000/svg" version="1.2" baseProfile="tiny" width="3000" height="2984" viewBox="0 0 3000 2984" stroke-linecap="round" stroke-linejoin="round">
<g id="A">
<path d="M 739.6 2291.3 778.2 2279.6 817.3 2264.2 847.3 2251.5 861 2247.5 919.2 2237.1 923.3 2274.8 931.9 2322.2 925.5 2330.7 912 2321.5 876.4 2308.1 840.9 2302.4 807.4 2304.5 780.4 2317.9 744.9 2358.3 720 2409.2 710 2446.7 711.4 2477.9 723.5 2529.6 744.8 2587.6 762.5 2632.9 768.9 2686.8 763.2 2737 754.6 2782.3 734 2821.3 705.5 2853.8 657.9 2880.7 606.7 2898.4 565.4 2905.4 499.3 2906.8 460.2 2901.9 436 2887.7 416.1 2862.2 349.3 2760.9 322.3 2734 280.3 2715.5 252.6 2716.9 229.9 2663.1 277.6 2538.5 411.3 2484.1 416.3 2467.8 410.6 2433.8 460.4 2417.6 480.3 2432.5 498.1 2428.9 656 2346.2 739.6 2291.3 Z" data-holc_grade="A"/>
<path d="M 1401.8 412.2 1408.8 278.8 1469.4 264.8 1489.9 259.7 1512 272.1 1531.3 298.1 1523.4 319 1464.3 390.3 1401.8 412.2 Z" data-holc_grade="A"/>
<path d="M 1414.6 183 1421.8 135.3 1417.9 116.6 1415.6 83.3 1411 59 1471.6 14.6 1491.2 1 1549.8 84.6 1414.6 183 Z" data-holc_grade="A"/>
<path d="M 2701.5 1019.5 2714.2 1010.4 2736.9 1005.6 2759.1 987.5 2785.9 980.7 2811.6 971.4 2820.2 962.8 2842.7 948.8 2871.3 932.5 2909 915.3 2925.8 912.6 2951.7 917.1 2984 928.3 2994 938.7 2999 950.5 2996.3 958.6 2986.3 968.6 2949.5 988.5 2901.8 1010.3 2867.3 1027.9 2836.4 1042 2820.5 1056 2811.9 1083.2 2817.8 1107.6 2831.5 1132.5 2855.6 1165 2866.5 1186.3 2863.3 1197.1 2816.5 1219.3 2797.5 1221.2 2762.5 1204 2753.4 1182.3 2750.1 1107.6 2743.8 1079.2 2713.7 1056.1 2699.6 1030.3 2701.5 1019.5 Z" data-holc_grade="A"/>
</g>
<g id="B">
<path d="M 59.6 2619.1 34.5 2641.7 8.4 2663.2 1 2649 48.7 2601.4 59.6 2619.1 Z" data-holc_grade="B"/>
<path d="M 2018.8 1438.4 1942.7 1514.8 1876.2 1453.7 1947.8 1380.7 1948.9 1359.2 1942.1 1335.5 1936.2 1326.7 2031.4 1212.8 2021.5 1192.5 2047.7 1143.3 2056.1 1140.4 2061.9 1145.1 2076.1 1174 2084.1 1202.6 2060.1 1227.2 2052.8 1238.5 2073.9 1261.6 2087 1281.5 2096.8 1306.8 2077.9 1329.7 2062.3 1353.5 2050.7 1372 2048.9 1390.5 2018.8 1438.4 Z" data-holc_grade="B"/>
<path d="M 1836.1 2466.3 1773.6 2514.7 1732.4 2541.6 1715.5 2558.2 1686.6 2560.9 1670.2 2543 1648.4 2510.6 1631.4 2468.3 1624.3 2438.9 1622.4 2418.3 1646.7 2415.8 1726.9 2414.7 1779.8 2426.7 1824.3 2432.1 1842.6 2440.8 1847.2 2454.4 1846.4 2459.8 1836.1 2466.3 Z" data-holc_grade="B"/>
<path d="M 2158.6 2179.4 2152.7 2169.4 2140.4 2161.7 2132.3 2146.8 2116.3 2135.9 2102.2 2135 2087.2 2135 2072.2 2130.1 2064.9 2121.6 2055.8 2099.5 2055.8 2086.5 2067.5 2056.1 2080.5 2049.9 2154.7 2032.2 2173.3 2031.8 2224.6 2043.7 2240.9 2058.6 2237.3 2083.5 2220.6 2145.1 2215.5 2158.5 2216.2 2167.2 2340.6 2166.4 2343.9 2171.1 2340.3 2191.8 2322.5 2200.1 2311.9 2205.9 2287.2 2199.8 2249.7 2186.7 2205.3 2190 2193 2190.4 2174.4 2183.1 2158.6 2179.4 Z" data-holc_grade="B"/>
<path d="M 236.4 2418.7 255.6 2459.1 113 2565.7 107.5 2543 118.9 2498.2 130.8 2459.3 137.2 2426.2 141.7 2389.6 144.9 2362.4 149.5 2345.2 168.6 2324.4 194.5 2313.1 204.5 2316.3 215 2335.3 216.3 2353.9 218.6 2372 225.8 2391 236.4 2418.7 Z" data-holc_grade="B"/>
<path d="M 1199.7 2142.5 1072.9 2198.3 1046.6 2140.8 1174.7 2089.7 1199.7 2142.5 Z" data-holc_grade="B"/>
<path d="M 1249.1 2220.1 1285.8 2260 1233.8 2306.7 1187.2 2258.9 1176.7 2260 1152.3 2273 1132.7 2273 1116.7 2234.6 1114.9 2225.2 1212.3 2183.6 1249.1 2185 1249.1 2220.1 Z" data-holc_grade="B"/>
<path d="M 1055.6 361.8 1063 372 1137.4 357.9 1158.4 351.1 1139.1 318.3 1148.7 294 1168 298 1199.8 320.6 1213.5 340.4 1223.7 367 1245.8 427.5 1089.7 515.6 963.6 584 912 461.3 900.6 452.8 976.1 403.7 1055.6 361.8 Z" data-holc_grade="B"/>
<path d="M 1408.8 278.8 1401.8 412.2 1398.4 476.7 1391.1 496.5 1378.4 560.7 1375.7 574.5 1361.5 577.9 1344 575.6 1337.8 549.6 1325.3 516.8 1293.5 425.8 1255.5 329.1 1314 294.1 1353.1 264.7 1405.4 243.8 1410.4 249.5 1408.8 278.8 Z" data-holc_grade="B"/>
<path d="M 1630 836.4 1550.4 888.9 1524.3 912.4 1509.6 926.1 1460.2 969.1 1377.8 1028.9 1338.2 1055.3 1320.4 1011.2 1388.7 956.2 1445.4 908.8 1475.9 875.1 1499.2 841.8 1515.2 833.5 1542.1 810.3 1588.6 770.2 1600.5 773.4 1631.1 758.7 1667.5 758.7 1683.4 765.5 1686.2 782.5 1642.5 822.6 1630 836.4 Z" data-holc_grade="B"/>
<path d="M 1338.1 1252.4 1290.6 1297.5 1245.7 1255.2 1235.9 1213.1 1304.8 1184.3 1324.7 1191.4 1344.6 1213.6 1363.5 1229.9 1338.1 1252.4 Z" data-holc_grade="B"/>
<path d="M 1759.8 1085.3 1748.9 1081 1712.6 1057.9 1695.8 1051.7 1668.9 1035.8 1640.2 1008.3 1642.4 1000.7 1656.9 984.8 1691.8 960.1 1706 947.5 1718 946.1 1739.4 933.4 1897.2 940.6 1896.8 957.2 1889.9 978.6 1885.9 998.5 1871 1028.5 1844.9 1058.6 1822 1074.9 1776.5 1086.1 1759.8 1085.3 Z" data-holc_grade="B"/>
</g>
<g id="C">
<path d="M 255.6 2459.1 236.4 2418.7 262.9 2401.2 348.8 2354.1 370.5 2425.8 267.6 2484.1 255.6 2459.1 Z" data-holc_grade="C"/>
<path d="M 1422.9 1374.6 1429.7 1375.6 1460.6 1386.4 1463.8 1396.4 1495.1 1408.6 1515.6 1411.8 1544.7 1405.9 1559.2 1399.1 1574.7 1386 1586.5 1385.1 1592.8 1394.1 1587.8 1410.4 1575.6 1437.6 1577.7 1477.6 1578.3 1488.7 1575.1 1511.8 1563.3 1537.6 1549.9 1556.3 1546.5 1561.1 1538.3 1578.3 1535.1 1621.3 1536 1648 1538.3 1653.3 1547 1673.3 1441.1 1752.5 1374.1 1682.2 1380.5 1623.3 1355 1621.5 1339.6 1609.7 1339.6 1571.7 1355 1564.5 1373.2 1566.3 1398.7 1476.7 1381.4 1466.7 1355.9 1464.9 1324.1 1482.1 1312.3 1503.8 1257.8 1563.5 1209.4 1512 1313.1 1398.5 1342.9 1362.9 1422.9 1374.6 Z" data-holc_grade="C"/>
<path d="M 1936.2 1326.7 1942.1 1335.5 1948.9 1359.2 1947.8 1380.7 1876.2 1453.7 1942.7 1514.8 2018.8 1438.4 2066.8 1502.8 2053.2 1511.6 1956.4 1608.7 1908 1594.4 1764.9 1652.2 1655.8 1697.7 1625.1 1622.3 1607 1576.5 1607 1561.7 1549.9 1556.3 1563.3 1537.6 1575.1 1511.8 1578.3 1488.7 1577.7 1477.6 1611.9 1476.9 1665.5 1475.8 1692.2 1462.8 1843.2 1341.1 1908 1292.5 1933 1321.9 1936.2 1326.7 Z" data-holc_grade="C"/>
<path d="M 2143.2 1554.3 2096.2 1529.9 2066.8 1502.8 2018.8 1438.4 2048.9 1390.5 2050.7 1372 2062.3 1353.5 2077.9 1329.7 2096.8 1306.8 2087 1281.5 2073.9 1261.6 2052.8 1238.5 2060.1 1227.2 2084.1 1202.6 2095.8 1201.4 2112.2 1209.3 2135.1 1249.9 2151.8 1241.9 2166 1262.5 2204.9 1236.5 2176.2 1192.7 2212.2 1168.8 2187.8 1135.9 2190.3 1127.2 2214.3 1099.3 2240.1 1022.2 2334.6 1037.7 2373.9 1042.8 2456 1046 2545.8 1047 2570.5 1047.7 2595.2 1079.2 2597.4 1113.2 2583.3 1145.1 2548 1180.6 2501.2 1211.7 2453.9 1243.6 2360.5 1292.5 2311.5 1335.2 2253.3 1289.6 2187.9 1351.6 2264.2 1428.3 2260.6 1436.2 2154.1 1549.2 2143.2 1554.3 Z" data-holc_grade="C"/>
<path d="M 1900.6 1946.7 1876 1892.4 1848.1 1841.5 1839.2 1823.2 1833.1 1779.1 1834.4 1757.4 1848.7 1741.7 1884.2 1727.5 1913.5 1730.9 1946.2 1761.4 1959.2 1764.8 1987.8 1758.7 2113.3 1690.8 2200.2 1642.6 2212 1644 2223.8 1655.7 2221.1 1664.3 2122.1 1719.6 2006.6 1785.2 2005.7 1797.4 2012.1 1814.6 2029.4 1851.7 2055.3 1893.4 2018.5 1917.4 1977.6 1936.8 1900.6 1946.7 Z" data-holc_grade="C"/>
<path d="M 1618.3 2841.7 1603.3 2814.9 1580.8 2783.4 1572.4 2767.8 1566.2 2737.8 1567.7 2678.7 1625.9 2648.3 1658.3 2624.4 1648.1 2591.1 1638.2 2562.1 1629.9 2541.4 1619.7 2519 1604.4 2496.5 1592.8 2476.3 1590.8 2460.4 1591.3 2427 1596.5 2418.6 1622.4 2418.3 1624.3 2438.9 1631.4 2468.3 1648.4 2510.6 1670.2 2543 1686.6 2560.9 1715.5 2558.2 1732.4 2541.6 1773.6 2514.7 1836.1 2466.3 1844.8 2481.3 1841 2501.6 1829 2518.8 1811 2536.7 1812.1 2549.5 1816.2 2564.4 1815.6 2584.5 1818.1 2603.2 1811.3 2609.5 1790.8 2624.4 1775.5 2641.5 1643.7 2727.4 1631.5 2834.2 1618.3 2841.7 Z" data-holc_grade="C"/>
<path d="M 2072.2 2130.1 2087.2 2135 2102.2 2135 2116.3 2135.9 2132.3 2146.8 2140.4 2161.7 2152.7 2169.4 2158.6 2179.4 2157.3 2191.1 2148.6 2201.6 2140.5 2200.7 2130.4 2190.3 2103.2 2181.2 2088.6 2180.8 2075 2188 2065.4 2202.5 2063.6 2223.3 2072.3 2232.4 2115.5 2250 2157.8 2264.9 2169.1 2275.3 2176.4 2292.1 2173.2 2315.2 2164.6 2360.9 2154.2 2368.1 2142.3 2367.2 2116.4 2364.1 2099.6 2370 2087.3 2386.3 2080 2398.9 2078.2 2427.9 2064.2 2468.7 2060.1 2498.1 2031.9 2563.3 2026.4 2567.8 1980.5 2571 1951 2561.5 1930 2544.8 1904.6 2507.2 1899.6 2464.6 1895.9 2418.9 1899.1 2371.8 1908.2 2324.3 1911.8 2284.5 1904.5 2264.1 1883.1 2240.6 1881.3 2213.9 1874.5 2189.4 1877.7 2173.6 1896.8 2162.7 1963.1 2132.4 1975.9 2138.2 1988.1 2158.2 2004.5 2179.9 2015.4 2180.3 2030 2171.7 2020 2150.9 2022.2 2141.9 2041.8 2132.8 2072.2 2130.1 Z" data-holc_grade="C"/>
<path d="M 2340.3 2191.8 2341.4 2222.2 2351.6 2241.4 2354.1 2260.9 2343.2 2282.7 2332 2295.3 2304 2306.6 2276.3 2316 2237.8 2330.5 2212.7 2322.9 2204.3 2313.1 2204.6 2282.4 2207.9 2219.7 2170.8 2206 2148.6 2201.6 2157.3 2191.1 2158.6 2179.4 2174.4 2183.1 2193 2190.4 2205.3 2190 2249.7 2186.7 2287.2 2199.8 2311.9 2205.9 2322.5 2200.1 2340.3 2191.8 Z" data-holc_grade="C"/>
<path d="M 348.2 1728.8 504.4 1709.1 514.1 1715.3 529.4 1829.6 523.1 1831.8 357.8 1849.3 348.7 1780.3 348.2 1728.8 Z" data-holc_grade="C"/>
<path d="M 1325.6 2074.5 1212 2128.8 1211.5 2143.7 1217.9 2162.3 1051.9 2232 962.1 2131.4 1290.1 1995.7 1325.6 2074.5 Z M 1199.7 2142.5 1174.7 2089.7 1046.6 2140.8 1072.9 2198.3 1199.7 2142.5 Z" data-holc_grade="C"/>
<path d="M 1303.3 2221.2 1304.7 2226.7 1314.5 2226.3 1324 2233.9 1326.9 2250.9 1320.7 2260 1194.9 2383.4 1170.5 2358.5 1141.4 2379.1 1110.5 2344.3 1051.9 2232 1217.9 2162.3 1231.3 2157.1 1234.5 2163.6 1252 2156 1270.2 2191.2 1303.3 2221.2 Z M 1249.1 2220.1 1249.1 2185 1212.3 2183.6 1114.9 2225.2 1116.7 2234.6 1132.7 2273 1152.3 2273 1176.7 2260 1187.2 2258.9 1233.8 2306.7 1285.8 2260 1249.1 2220.1 Z" data-holc_grade="C"/>
<path d="M 1209.4 1512 1154.2 1453.1 1028.8 1335.5 1009.7 1309.2 1007.9 1302 1046.1 1242.3 1078.8 1211.5 1116.5 1188.3 1136.5 1259.9 1163.2 1260.5 1313.1 1398.5 1209.4 1512 Z" data-holc_grade="C"/>
<path d="M 1377.8 1028.9 1407.2 1079.2 1429.8 1108.5 1449.4 1131.3 1573 1053.5 1559.2 1019.9 1524.3 912.4 1550.4 888.9 1630 836.4 1662.4 888.1 1706 947.5 1691.8 960.1 1656.9 984.8 1642.4 1000.7 1640.2 1008.3 1668.9 1035.8 1695.8 1051.7 1712.6 1057.9 1748.9 1081 1759.8 1085.3 1763.1 1104.5 1650.8 1174.4 1656.6 1202.6 1598.4 1218.2 1603.2 1245.3 1461.8 1327.1 1460.7 1341.6 1466.5 1355.7 1460.6 1386.4 1429.7 1375.6 1422.9 1374.6 1429.8 1369.1 1436.3 1352.8 1433 1330 1415.2 1281.5 1373.1 1330.7 1342.9 1362.9 1313.1 1398.5 1163.2 1260.5 1136.5 1259.9 1116.5 1188.3 1128.8 1180.8 1160.6 1145.5 1159.7 1136.4 1067 1160.8 1060.6 1115.6 1190.6 1084.9 1213.3 1020.6 1256.9 955.5 1314.2 953.7 1330.5 929.3 1360.5 857.8 1375.1 786.3 1411.6 748.1 1425.8 728.6 1449.8 699.6 1495.9 662.4 1555.9 726 1583.9 760.1 1588.6 770.2 1542.1 810.3 1515.2 833.5 1499.2 841.8 1475.9 875.1 1445.4 908.8 1388.7 956.2 1320.4 1011.2 1338.2 1055.3 1377.8 1028.9 Z M 1338.1 1252.4 1363.5 1229.9 1344.6 1213.6 1324.7 1191.4 1304.8 1184.3 1235.9 1213.1 1245.7 1255.2 1290.6 1297.5 1338.1 1252.4 Z" data-holc_grade="C"/>
<path d="M 1411 59 1415.6 83.3 1417.9 116.6 1421.8 135.3 1414.6 183 1405.4 243.8 1353.1 264.7 1314 294.1 1255.5 329.1 1293.5 425.8 1325.3 516.8 1337.8 549.6 1344 575.6 1308.2 594.2 1292.4 544.5 1245.8 427.5 1223.7 367 1213.5 340.4 1199.8 320.6 1168 298 1148.7 294 1139.1 318.3 1158.4 351.1 1137.4 357.9 1063 372 1055.6 361.8 1033.5 326.8 1019.3 315.5 999.4 289.5 1095.4 234.7 1137.4 151 1138.6 142 1171.5 137.5 1260 112.1 1377.6 49.9 1409.9 33.5 1411 59 Z M 1234.1 262.1 1206.2 254.5 1191.6 297.5 1219.2 304.7 1234.1 262.1 Z" data-holc_grade="C"/>
<path d="M 1378.4 560.7 1391.1 496.5 1398.4 476.7 1401.8 412.2 1464.3 390.3 1523.4 319 1531.3 298.1 1543.2 308.9 1547.8 320.7 1505.2 371.6 1531.3 416.3 1529.6 431 1507.5 454.7 1467.1 489.7 1435.9 511.8 1416.6 554.2 1408.7 571.1 1396.7 574 1378.4 560.7 Z" data-holc_grade="C"/>
<path d="M 1377.8 1028.9 1460.2 969.1 1509.6 926.1 1524.3 912.4 1559.2 1019.9 1573 1053.5 1449.4 1131.3 1429.8 1108.5 1407.2 1079.2 1377.8 1028.9 Z" data-holc_grade="C"/>
</g>
<g id="D">
<path d="M 113 2565.7 92.3 2581.8 59.6 2619.1 48.7 2601.4 107.5 2543 113 2565.7 Z" data-holc_grade="D"/>
<path d="M 1536.5 2165.3 1555.4 2201.2 1528.5 2212.4 1519.8 2218.9 1554.7 2304.4 1543.4 2317.8 1533.3 2322.8 1514 2344.9 1459.4 2422.1 1396.5 2363 1396.6 2362.7 1409.2 2313.4 1423.8 2282.3 1438 2246.4 1452.1 2220.4 1484.5 2186.3 1506.3 2172.6 1536.5 2165.3 Z" data-holc_grade="D"/>
<path d="M 1555.4 2201.2 1536.5 2165.3 1550 2170.4 1568.9 2168.6 1595.1 2146.9 1626.7 2121.5 1654.4 2087.8 1690.4 2062.8 1745.6 2042.6 1801.6 2041.8 1860.6 2054.5 1899.8 2082.7 1900.6 2094.3 1882.4 2121.1 1867.5 2139.6 1841.3 2192.5 1832.2 2228.3 1825.7 2233 1822.4 2248.6 1807.9 2270 1789.7 2284.4 1775.5 2294.6 1729.3 2309.1 1711.8 2309.1 1700.6 2303.6 1680.2 2297.9 1649.3 2277.9 1634.7 2268.5 1627.5 2258.7 1621.3 2232 1608.2 2225.8 1599.1 2210.2 1581.3 2199.4 1555.4 2201.2 Z" data-holc_grade="D"/>
<path d="M 1618.3 2841.7 1607.7 2877.9 1593.2 2897.1 1574.2 2917.4 1529.5 2955.8 1491.6 2983.4 1477.1 2974.3 1454.2 2949.7 1453.8 2932.3 1449.1 2914.2 1415.6 2874.7 1399.2 2849 1384.3 2836.3 1394.9 2783.8 1406.1 2766.7 1416.7 2743.6 1447.6 2694.3 1468 2662.4 1502.6 2607 1507.6 2592.9 1503.3 2554.1 1504 2537.5 1515.7 2504.1 1529.5 2486.4 1551.3 2474.4 1572 2469.4 1592.8 2476.3 1604.4 2496.5 1619.7 2519 1629.9 2541.4 1638.2 2562.1 1648.1 2591.1 1658.3 2624.4 1625.9 2648.3 1567.7 2678.7 1566.2 2737.8 1572.4 2767.8 1580.8 2783.4 1603.3 2814.9 1618.3 2841.7 Z" data-holc_grade="D"/>
<path d="M 919.2 2237.1 861 2247.5 847.3 2251.5 817.3 2264.2 778.2 2279.6 739.6 2291.3 691.4 2296.7 645.4 2301.3 596.3 2297.2 560.9 2289 535 2277.2 506.3 2270 480.9 2268.1 457.2 2269.9 439 2265.8 433.6 2237.8 473.6 2211.5 498.6 2194.4 523.7 2188 547.3 2184 580.9 2180.4 663.7 2188.6 738.2 2192.2 835.5 2140.2 855.1 2161.9 874.2 2180 895.1 2195 917.4 2217.2 919.2 2237.1 Z" data-holc_grade="D"/>
<path d="M 883.4 1307.4 908.8 1342.7 908.8 1383.4 900.6 1407.8 988.7 1492 1046 1486.6 1069.6 1489.3 999.7 1421.4 959.7 1383.4 972.4 1352.6 1007.9 1302 1009.7 1309.2 1028.8 1335.5 1154.2 1453.1 1209.4 1512 1257.8 1563.5 1312.3 1503.8 1324.1 1482.1 1355.9 1464.9 1381.4 1466.7 1398.7 1476.7 1373.2 1566.3 1355 1564.5 1339.6 1571.7 1339.6 1609.7 1355 1621.5 1380.5 1623.3 1374.1 1682.2 1364.1 1775.3 1285.9 1774.4 1193.2 1764.4 1012.3 1749.9 961.4 1749.9 954.5 1753.3 857.8 1800.6 852.3 1803.3 806.8 1851.2 825 1880.2 836.8 1924.6 842.2 1974.3 832.2 2013.3 714 2004.2 614.9 2034 584 1974.2 575.9 1930.8 673.2 1899.1 677.7 1889.2 662.3 1861.1 638.7 1808.6 647.8 1760.7 664.2 1723.6 675.1 1678.3 676.9 1648.4 663.3 1607.7 643.3 1591.4 616.9 1585.1 538.8 1507.2 627 1384.2 685.2 1320.9 735.2 1272 806.1 1218.8 883.4 1307.4 Z M 909.6 1657.6 837.3 1730.4 936.4 1711.4 957.3 1690.6 913.7 1655.8 909.6 1657.6 Z" data-holc_grade="D"/>
<path d="M 857.8 1800.6 901.2 1847.9 944.5 1874.5 962.8 1866.1 992 1868.5 1003.5 1875.6 978.4 1894.6 985.2 1897.9 1063.2 1906.3 1084.7 1886.8 954.5 1753.3 961.4 1749.9 1012.3 1749.9 1193.2 1764.4 1285.9 1774.4 1364.1 1775.3 1322.9 1970.6 1361.1 2055.5 1387.6 2060.2 1428.6 2141.7 1412.2 2170.2 1400.6 2173.6 1362.4 2094.2 1340.6 2096.2 1328.3 2073.1 1325.6 2074.5 1290.1 1995.7 962.1 2131.4 893.3 2051.3 864 2028.9 832.2 2013.3 842.2 1974.3 836.8 1924.6 825 1880.2 806.8 1851.2 852.3 1803.3 857.8 1800.6 Z" data-holc_grade="D"/>
<path d="M 1194.9 2383.4 1320.7 2260 1326.9 2250.9 1324 2233.9 1314.5 2226.3 1304.7 2226.7 1303.3 2221.2 1320.7 2207.8 1337.8 2229.9 1365.5 2240.8 1328 2311.4 1260.3 2378.4 1235.2 2386.7 1206.1 2387.1 1194.9 2383.4 Z" data-holc_grade="D"/>
<path d="M 883.4 1307.4 806.1 1218.8 813.4 1213.2 958.9 1112.9 1034.3 1051.4 1114.3 978.1 1177.9 922 1306 799.9 1359.6 774.6 1372.4 777.3 1375.1 786.3 1360.5 857.8 1330.5 929.3 1314.2 953.7 1256.9 955.5 1213.3 1020.6 1190.6 1084.9 1060.6 1115.6 1067 1160.8 1159.7 1136.4 1160.6 1145.5 1128.8 1180.8 1116.5 1188.3 1078.8 1211.5 1046.1 1242.3 976.1 1303.8 951.5 1310.1 883.4 1307.4 Z" data-holc_grade="D"/>
<path d="M 1422.9 1374.6 1342.9 1362.9 1373.1 1330.7 1415.2 1281.5 1433 1330 1436.3 1352.8 1429.8 1369.1 1422.9 1374.6 Z" data-holc_grade="D"/>
<path d="M 1611.9 1476.9 1577.7 1477.6 1575.6 1437.6 1587.8 1410.4 1592.8 1394.1 1586.5 1385.1 1574.7 1386 1559.2 1399.1 1544.7 1405.9 1515.6 1411.8 1495.1 1408.6 1463.8 1396.4 1460.6 1386.4 1466.5 1355.7 1460.7 1341.6 1461.8 1327.1 1603.2 1245.3 1598.4 1218.2 1656.6 1202.6 1650.8 1174.4 1763.1 1104.5 1792.2 1160.2 1793 1180.1 1783.9 1193.8 1776.6 1198.2 1770.8 1208.7 1760.6 1217.7 1759.5 1238 1769 1252.8 1785.7 1266.9 1806.1 1287.9 1824.3 1310.7 1697 1417.1 1635.2 1466.4 1611.9 1476.9 Z" data-holc_grade="D"/>
<path d="M 2113.3 1690.8 1987.8 1758.7 1959.2 1764.8 1946.2 1761.4 1913.5 1730.9 1884.2 1727.5 1848.7 1741.7 1834.4 1757.4 1833.1 1779.1 1839.2 1823.2 1848.1 1841.5 1876 1892.4 1900.6 1946.7 1782 1963.7 1751.3 1967.8 1698.8 1999 1609.5 2053.4 1534.4 1945.4 1524.2 1946.1 1501.7 1899.9 1520.8 1872.8 1466.3 1779.8 1441.1 1752.5 1547 1673.3 1538.3 1653.3 1625.1 1622.3 1655.8 1697.7 1764.9 1652.2 1908 1594.4 1956.4 1608.7 2053.2 1511.6 2066.8 1502.8 2096.2 1529.9 2143.2 1554.3 2124.8 1586.9 2123.5 1648.7 2119.4 1666.3 2113.3 1690.8 Z M 1706.3 1825.9 1709.9 1806 1682.1 1764.8 1650.4 1777.3 1677.2 1827.2 1706.3 1825.9 Z" data-holc_grade="D"/>
</g>
</svg>