<?xml version="1.0"?>
<svg xmlns="http://www.w3.org/2000/svg" version="1.2" baseProfile="tiny" width="3000" height="2693" viewBox="0 0 3000 2693" stroke-linecap="round" stroke-linejoin="round">
<g id="A">
<path d="M 912.8 950.3 851.4 1157.1 710.1 1137.5 687.9 1168.1 685.5 1199.9 668.3 1256.2 652.3 1313.7 636.3 1341.9 590.8 1363.9 577.3 1365.1 554 1398.1 675.6 1493.6 641.2 1527.9 599.4 1651.5 82.2 1541.5 57.5 1536.3 10.8 1481.2 1 1437.1 33 1367.4 72.3 1316 126.4 1281.7 125.2 1216.9 137.5 1188.7 170.7 1163 158.4 1100.6 151 1060.2 159.7 1013.7 165.8 952.5 157.3 858.3 174.5 854.6 654.8 1023.7 758 1028.6 802.3 881.7 912.8 950.3 Z" data-holc_grade="A"/>
<path d="M 2358.9 1013.4 2102.2 1265.9 2007 1169.3 1990.8 1170.2 1978.5 1105 2125.6 957.2 2358.9 1013.4 Z" data-holc_grade="A"/>
<path d="M 877.1 1351.7 850.1 1441 822.9 1541.8 809.5 1591.6 675.6 1493.6 708.8 1409.2 777.6 1427.6 805.9 1335.8 877.1 1351.7 Z" data-holc_grade="A"/>
<path d="M 877.1 1351.7 805.9 1335.8 777.6 1427.6 708.8 1409.2 675.6 1493.6 554 1398.1 577.3 1365.1 590.8 1363.9 636.3 1341.9 652.3 1313.7 668.3 1256.2 685.5 1199.9 687.9 1168.1 710.1 1137.5 851.4 1157.1 912.8 950.3 976.7 990.7 877.1 1351.7 Z" data-holc_grade="A"/>
<path d="M 822.9 1541.8 850.1 1441 1045.7 1490.7 1002.7 1653.6 968.5 1651 963.1 1678.5 908.9 1647.9 930.3 1569 822.9 1541.8 Z" data-holc_grade="A"/>
<path d="M 809.5 1591.6 908.9 1647.9 963.1 1678.5 955.7 1706.7 923.8 1698.1 923.8 1715.2 875.9 1690.7 874.6 1668.7 802.1 1643 807 1684.6 780 1685.8 759.1 1762.9 807.1 1759.9 806.9 1761 780.7 1876.2 772.2 1913.5 748.3 1906 724.9 1898.7 703.6 1899.2 690.6 1899.6 690.5 1899.6 702.6 1751.9 574.8 1733.5 433.4 1740.8 335.3 1749.4 266.3 1755.5 83.2 1806.8 67.3 1600 82.2 1541.5 599.4 1651.5 641.2 1527.9 675.6 1493.6 809.5 1591.6 Z" data-holc_grade="A"/>
<path d="M 664.4 2017.7 605.3 2161.4 452.2 2124.5 410.1 2123.8 355.7 2012.4 350.6 1966.9 456.9 1966.2 472.4 1966.1 472.5 1966.2 477.6 1972.6 500.5 2001 500.6 2001.1 664.4 2017.7 Z" data-holc_grade="A"/>
<path d="M 1660.1 424.6 1675 545 1693.6 729.8 1661.9 735.4 1614.6 720.8 1593.5 338.9 1503.2 351.7 1460.5 188.5 1552.7 146.3 1568.1 90.9 1583.4 39.2 1614.1 1 1646.7 33.5 1670 365 1660.1 424.6 Z" data-holc_grade="A"/>
<path d="M 1675 545 1660.1 424.6 1677.8 424.1 1692.7 387 1812.9 394.4 1797.5 460.5 1831.3 460 1834.1 521.6 1675 545 Z M 1998.6 439.1 1870.4 453.4 1893.6 325.8 2013.4 326.2 1998.6 439.1 Z" data-holc_grade="A"/>
<path d="M 1903.7 775.4 1945.6 709.9 2069.2 547.3 2093 599.2 2128.1 624 2617.7 517.8 2773 640.8 2469.3 889.3 2238.1 709.8 2102.1 858.9 2057.9 822.8 2010.3 874.7 1903.7 775.4 Z" data-holc_grade="A"/>
</g>
<g id="B">
<path d="M 335.3 1749.4 433.4 1740.8 574.8 1733.5 559 1887.9 477.9 1879.3 345 1889.4 335.3 1749.4 Z" data-holc_grade="B"/>
<path d="M 1755.4 1042 1733.7 1047.1 1742.4 1102.7 1799.7 1094.8 1795.3 1071.6 1855.5 1065.1 1863.5 1120 1789 1129.6 1767.8 1132.3 1775.8 1197.4 1775.5 1197.4 1631.4 1217.6 1603.8 990.7 1692.2 979.9 1692.3 979.9 1698.1 1017.1 1698.1 1017.4 1728.7 1013.3 1751.1 1010.2 1751.1 1010.4 1755.4 1042 Z" data-holc_grade="B"/>
<path d="M 1940.1 1113.5 1863.5 1120 1855.5 1065.1 1795.3 1071.6 1791.2 1039.4 1755.4 1042 1751.1 1010.4 1751.1 1010.2 1728.7 1013.3 1698.1 1017.4 1698.1 1017.1 1692.3 979.9 2068.4 933.3 2077.5 935.6 2085.5 940.7 2095.8 936.7 2119.3 944.1 2125.6 957.2 1978.5 1105 1975.6 1082.2 1933.2 1087.3 1940.1 1113.5 Z" data-holc_grade="B"/>
<path d="M 1793.9 1311 1808.3 1401 1812.6 1425.7 1823.2 1487 1823.3 1487 1898.6 1479.2 1911.9 1477.8 1923.6 1550.4 1926.2 1566.6 1926.3 1567.1 1949.1 1563.4 2022.4 1551.8 2028.3 1599.7 2119 1585.8 2124.7 1631 2035 1642.3 2043.1 1687.8 1973.7 1696.8 1954.9 1609.5 1864.5 1619.3 1851.1 1533.7 1680.2 1554.3 1631.4 1217.6 1775.5 1197.4 1775.8 1197.4 1793.9 1311 Z" data-holc_grade="B"/>
<path d="M 1940.1 1113.5 1954.4 1203.1 1922.9 1206.5 1904.6 1195.1 1878.3 1227.6 1869.1 1187.1 1821.6 1192.8 1827.3 1257.3 1841.1 1268.7 1810.7 1309.8 1793.9 1311 1775.8 1197.4 1767.8 1132.3 1789 1129.6 1863.5 1120 1940.1 1113.5 Z M 2022.4 1551.8 1949.1 1563.4 1926.3 1567.1 1926.2 1566.6 1923.6 1550.4 1911.9 1477.8 1898.6 1479.2 1823.3 1487 1823.2 1487 1812.6 1425.7 1808.3 1401 1844.1 1397.8 1908.6 1454.7 2051.6 1313.1 1975 1236.8 1970.8 1204 1994.5 1198 1990.8 1170.2 2007 1169.3 2102.2 1265.9 2358.9 1013.4 2396.5 1021.7 2342.7 1069.8 2300.9 1113.7 1999.6 1401 2022.4 1551.8 Z" data-holc_grade="B"/>
<path d="M 2043.1 1687.8 2035 1642.3 2124.7 1631 2119 1585.8 2108.6 1503.2 2189.7 1491 2171.5 1343.9 2244.6 1258.7 2258.9 1351.3 2428.6 1324 2434.8 1362.2 2403.6 1367 2411.9 1406.6 2352.2 1413.8 2364.6 1506.4 2280.1 1517 2294.5 1607.7 2203.6 1620.7 2211.1 1666 2043.1 1687.8 Z" data-holc_grade="B"/>
<path d="M 2294.5 1607.7 2280.1 1517 2364.6 1506.4 2425.3 1499.2 2441.1 1590.8 2294.5 1607.7 Z" data-holc_grade="B"/>
<path d="M 2157.1 1798.2 2107.9 1805.2 2067.5 1857.1 2096.3 1883.9 2020.1 1970.9 1988 1944.5 2039.1 1887.1 1989.9 1844.6 1937 1901.5 1892.4 1859.9 1969 1773.3 1982.5 1784.4 2010.3 1754.4 2044.2 1782.1 2059.1 1766.4 2076.7 1779.8 2227.7 1750.2 2220.7 1703.5 2372.5 1678.9 2388.4 1785.8 2321.9 1793.2 2319.2 1775.1 2157.1 1798.2 Z" data-holc_grade="B"/>
<path d="M 1888.6 2239.2 1972.3 2147.6 1986.1 2158.9 2020.9 2118.2 2007.6 2105.5 2078.7 2023.7 2020.1 1970.9 2096.3 1883.9 2067.5 1857.1 2107.9 1805.2 2157.1 1798.2 2211.2 2138.3 2145.6 2149.3 2087.9 2222.4 2031.9 2182.2 1968.6 2251.6 1888.6 2239.2 Z" data-holc_grade="B"/>
<path d="M 1768.9 2142.7 1781.7 2232.2 1732.3 2237.2 1755.2 2386.3 1789.6 2383.5 1800.4 2469.1 1773.1 2484.1 1776 2515.5 1790.3 2515.5 1830.5 2604 1782.5 2607.6 1776 2563.3 1737.3 2570.5 1749.5 2524.1 1722.3 2527.7 1677.1 2180.1 1750.2 2172.2 1739.2 2118.5 1768.9 2142.7 Z" data-holc_grade="B"/>
<path d="M 2655.8 1605.8 2985 1563.1 2999 1707.9 2983.2 1763.8 2660.5 1690.9 2663.7 1654.3 2655.8 1605.8 Z" data-holc_grade="B"/>
<path d="M 690.5 1899.6 682.7 1972.3 682.6 1973.6 664.4 2017.7 500.6 2001.1 500.5 2001 477.6 1972.6 472.5 1966.2 472.4 1966.1 456.9 1966.2 350.6 1966.9 345 1889.4 477.9 1879.3 559 1887.9 574.8 1733.5 702.6 1751.9 690.5 1899.6 Z" data-holc_grade="B"/>
<path d="M 534.8 2583.5 646.6 2466.5 770.7 2573.5 643.6 2692 534.8 2583.5 Z" data-holc_grade="B"/>
<path d="M 1032.5 500.6 1192.2 556.5 1298.9 664.3 1283.2 678.2 1218.2 667.5 1209.3 674.9 1238.1 699.4 1214 725.3 1117.9 701.7 994.4 586.1 1032.5 500.6 Z" data-holc_grade="B"/>
<path d="M 1460.5 188.5 1503.2 351.7 1478.6 352.6 1474.9 358.2 1459.1 376.7 1437.8 411.8 1427.1 452 1428 499.2 1414.6 565.3 1427.5 569.5 1455.9 594.9 1466.5 626.4 1464.2 655.5 1448.4 648.1 1438.7 688.3 1427.5 704.1 1373.7 561.2 1302.7 238.9 1460.5 188.5 Z" data-holc_grade="B"/>
<path d="M 1158.2 1386.4 1103.6 1392.8 1143 1703.5 1146.9 1718.6 1092 1722.4 1041.9 1696 1031.4 1657.3 1002.7 1653.6 1045.7 1490.7 1146 1109.7 1190.5 1129.5 1146 1298.2 1158.2 1386.4 Z" data-holc_grade="B"/>
<path d="M 1260.4 1374.4 1158.2 1386.4 1146 1298.2 1190.5 1129.5 1208.7 1293.7 1248.6 1288.3 1260.4 1374.4 Z" data-holc_grade="B"/>
<path d="M 1143 1703.5 1103.6 1392.8 1158.2 1386.4 1260.4 1374.4 1352.5 1363.6 1373.5 1521.1 1466.3 1511.3 1476.6 1599.8 1308.3 1618 1314.2 1679.5 1199.7 1692.7 1200.2 1698.6 1143 1703.5 Z M 1246.3 1484.6 1241.3 1448.3 1142.4 1458.9 1150 1496.6 1246.3 1484.6 Z" data-holc_grade="B"/>
<path d="M 1001.8 2186.9 1037.9 2158.7 1056.4 2173.1 1141.2 2098.4 1260.5 2191.4 1285 2165.7 1173.2 2076.4 1276.4 1972.3 1367.4 1858.5 1566.5 2017.6 1453.4 2149.8 1470.6 2167 1508.7 2468.1 1473.1 2473 1427.6 2537.9 1001.8 2186.9 Z" data-holc_grade="B"/>
<path d="M 1037.9 2158.7 1001.8 2186.9 985.8 2199.4 945.4 2234.1 898 2260.9 867.9 2226.7 844.6 2194.7 829.3 2157.3 828.9 2114.7 729 2098.5 756.4 1987.9 682.6 1973.6 682.7 1972.3 690.5 1899.6 690.6 1899.6 703.6 1899.2 724.9 1898.7 748.3 1906 772.2 1913.5 780.7 1876.2 806.9 1761 807.1 1759.9 817.3 1765.4 846.5 1954.2 867.4 1956.5 890.2 1875.6 1136.3 1901 1132.6 2052.8 1063.4 2111.5 1032.7 2152.7 1037.9 2158.7 Z" data-holc_grade="B"/>
</g>
<g id="C">
<path d="M 1305 815.5 1331.9 784.5 1451.2 875.2 1457.3 902 1678.3 867.3 1710.3 938.5 1328.6 993.1 1305 815.5 Z" data-holc_grade="C"/>
</g>
<g id="D">
<path d="M 1972.3 2147.6 1888.6 2239.2 1888.2 2239.6 1768.9 2142.7 1739.2 2118.5 1725.7 2043.5 1780.9 1985.7 1970.4 2146 1972.3 2147.6 Z" data-holc_grade="D"/>
<path d="M 2724.1 2462.8 2593.1 2481.7 2581.9 2461.7 2575.2 2419.3 2565.1 2380.3 2562.9 2346.8 2556.1 2315.6 2538.2 2287.7 2536 2230.8 2525.9 2192.9 2514.7 2143.9 2519.1 2117.1 2524.7 2084.8 2533.7 2045.7 2550.4 1992.2 2653.4 1973.2 2724.1 2462.8 Z M 2007.6 2105.5 1946.6 2055.2 1940.6 2063.4 1910.8 2038.8 1940.6 1997.7 1988 1944.5 2020.1 1970.9 2078.7 2023.7 2007.6 2105.5 Z" data-holc_grade="D"/>
</g>
</svg>