<?xml version="1.0"?>
<svg xmlns="http://www.w3.org/2000/svg" version="1.2" baseProfile="tiny" width="3000" height="3524" viewBox="0 0 3000 3524" stroke-linecap="round" stroke-linejoin="round">
<g id="A">
<path d="M 850.6 3122.8 814.4 3333.3 814.4 3376.3 849.2 3391.5 818.6 3456.6 800.5 3523.1 626.7 3456.6 461.2 3342.9 338.8 3268.1 368 3154.6 668.4 3282 671.2 3237.7 713 3104.8 471 2989.8 501.6 2919.2 740.8 3035.5 732.4 3061.8 850.6 3122.8 Z" data-holc_grade="A"/>
<path d="M 1555.2 2785.5 1673.1 2865.3 1748.8 2905.1 1662 3058 1464 2960.5 1555.2 2785.5 Z" data-holc_grade="A"/>
<path d="M 2475.5 2465.6 2454 2481.8 2451.8 2546.1 2460.7 2583.8 2467.4 2621.4 2424.9 2621.4 2405.4 2669.9 2394.3 2693.4 2287.2 2906.7 2265 2933.1 2220.5 2992.6 2144 2942.8 1772.7 2838.9 1801.9 2765.5 1804.7 2735.1 1804.7 2697.7 1831.1 2553.7 1856.1 2397.2 2116.4 2166.9 2181.4 2246.2 2207.9 2239.3 2234.3 2225.4 2244 2208.8 2475.5 2465.6 Z" data-holc_grade="A"/>
<path d="M 2475.5 2465.6 2565.3 2397.6 2623.7 2348.4 2680.9 2300.1 2910 2078.5 2945.6 2078.5 2999 2133.9 2698.7 2397.6 2738.8 2437.5 2792.2 2486.2 2583.1 2683.4 2498.6 2656.9 2467.4 2621.4 2460.7 2583.8 2451.8 2546.1 2454 2481.8 2475.5 2465.6 Z" data-holc_grade="A"/>
</g>
<g id="B">
<path d="M 784 2303 940.8 2351.3 800.6 2863.8 927.2 2945.5 861.8 3086.8 850.6 3122.8 732.4 3061.8 740.8 3035.5 501.6 2919.2 471 2989.8 713 3104.8 671.2 3237.7 668.4 3282 368 3154.6 359.7 3106.1 305.5 3054.8 147 2975.8 1 2812.4 83.1 2741.8 166.5 2844.3 185.9 2913.5 388.9 3011.9 444.6 2894.2 472.4 2880.4 671.4 2415.1 700.6 2341.7 740.9 2265.6 784 2303 Z" data-holc_grade="B"/>
<path d="M 1575.2 1715.3 1618.7 1762.9 1583.5 1793.5 1632.2 1847.5 1569.6 1902.9 1660 2005.3 1461.2 2179.8 1335.2 2045.8 1516.8 1879.3 1452.8 1799 1568.2 1707.7 1575.2 1715.3 Z" data-holc_grade="B"/>
<path d="M 2116.4 2166.9 1856.1 2397.2 1831.1 2553.7 1804.7 2697.7 1804.7 2735.1 1564.1 2586.9 1546 2568.9 1522.4 2427.7 1404.2 2386.1 1473.7 2325.2 1587.7 2220 1616.9 2202 1640.6 2211.6 1664.2 2226.9 1683.7 2225.5 1707.3 2221.3 1722.6 2211.6 1739.3 2217.2 1775.4 2219.9 1794.9 2214.4 1845 2233.8 1934.7 2155.7 2035.4 2068.1 2116.4 2166.9 Z" data-holc_grade="B"/>
<path d="M 2213.6 1861.6 2162.5 1908.1 2349.4 2131.8 2427.3 2171.7 2469.5 2173.9 2623.7 2348.4 2565.3 2397.6 2475.5 2465.6 2244 2208.8 2234.3 2225.4 2207.9 2239.3 2181.4 2246.2 2116.4 2166.9 2035.4 2068.1 1890.8 1891.8 1923.9 1863 2022.9 1776.9 2072.9 1760.2 2129.9 1761.6 2213.6 1861.6 Z" data-holc_grade="B"/>
<path d="M 2604.3 1133.1 2593.2 1153.9 2455.5 1009.9 2413.8 950.4 2380.4 911.7 2397.1 874.3 2399.9 841.1 2310.9 756.6 2367.9 698.5 2320.6 627.9 2241.4 532.4 2284.4 490.9 2366.4 424.4 2433.1 364.9 2474.8 346.9 2524.9 394 2538.8 418.9 2591.6 453.5 2627.7 477 2627.7 488 2606.9 519.9 2555.5 549 2526.3 583.6 2499.9 597.4 2434.6 662.5 2519.4 745.5 2597.3 849.3 2441.6 897.8 2481.9 950.4 2526.4 1015.5 2583.4 1065.3 2647.3 1012.7 2694.6 1065.2 2630.7 1116.5 2604.3 1133.1 Z" data-holc_grade="B"/>
</g>
<g id="C">
<path d="M 491.5 473.4 618.7 583.2 617.8 590.3 628.5 608.9 637.4 697.5 611.5 868.5 465.7 764.8 335.8 683.3 395.4 599.1 491.5 473.4 Z" data-holc_grade="C"/>
<path d="M 2306.5 1622.8 2305.5 1610.8 2147 1491.8 2241.5 1400.4 2213.7 1360.2 2194.2 1320.1 2156.7 1286.9 2128.9 1286.9 2099.7 1291 2059.4 1279.9 2035.7 1271.6 2016.3 1273 1963.5 1325.6 1950.9 1325.6 1830 1190 2002.3 1046 1988.4 1010 2096.9 913.1 2336 1203.8 2431.9 1293.7 2455.6 1281.3 2626.6 1447.4 2596 1559.5 2559.9 1592.7 2482.1 1617.7 2395.9 1631.5 2334.7 1626 2306.5 1622.8 Z" data-holc_grade="C"/>
<path d="M 2626.6 1447.4 2455.6 1281.3 2529.2 1227.3 2550.1 1191.3 2548.7 1177.4 2532 1166.3 2513.9 1163.6 2431.9 1073.6 2336 958.7 2276.2 895.1 2226.1 828.6 2258.1 794 2213.6 741.4 2128.8 650.1 2158 616.9 2241.4 532.4 2320.6 627.9 2367.9 698.5 2310.9 756.6 2399.9 841.1 2397.1 874.3 2380.4 911.7 2413.8 950.4 2455.5 1009.9 2593.2 1153.9 2604.3 1133.1 2629.3 1149.7 2654.3 1184.3 2683.5 1232.8 2662.7 1295.1 2626.6 1447.4 Z" data-holc_grade="C"/>
<path d="M 2597.3 849.3 2519.4 745.5 2434.6 662.5 2499.9 597.4 2526.3 583.6 2555.5 549 2606.9 519.9 2627.7 488 2627.7 477 2660 450.1 2727.9 524.3 2715.7 544.2 2811.3 679.3 2939.3 863 2823.7 961.6 2713.5 801.1 2597.3 849.3 Z" data-holc_grade="C"/>
<path d="M 447.8 1227.1 614.9 1214.3 656.3 1488.8 567.3 1517.9 507.5 1455.6 474.1 1433.4 431 1427.9 411.6 1445.9 413 1289.4 426.9 1231.3 447.8 1227.1 Z" data-holc_grade="C"/>
<path d="M 777.1 2044 663.1 1911.1 567.2 1987.2 708.9 2210.2 633.8 2416.5 503.1 2307.1 561.6 2230.9 447.6 2075.8 412.8 2052.3 323.9 1988.6 624.2 1727 725.7 1839.1 770.2 1815.6 848 1900.1 777.1 2044 Z" data-holc_grade="C"/>
<path d="M 1165 2174.3 959.2 2357 940.8 2351.3 784 2303 841.1 2085.6 802.1 2059.3 832.7 1983.1 867.5 1918.1 925.9 1941.6 978.7 1948.5 1044.1 1963.8 1026 2026.1 1067.7 2055.2 1145.6 2152.1 1165 2174.3 Z" data-holc_grade="C"/>
<path d="M 1575.2 1715.3 1568.2 1707.7 1452.8 1799 1516.8 1879.3 1335.2 2045.8 1318 2027.5 1376.4 1979 1387.3 1967.6 1404.2 1950 1425 1930.6 1432 1911.2 1408.4 1882.1 1323.5 1786.6 1302.7 1796.3 1276.3 1764.4 1276.3 1740.9 1272.1 1702.1 1254 1677.2 1276.3 1657.8 1233.2 1598.3 1280.5 1549.8 1216.1 1474.3 1194.4 1448.8 1124.8 1367.1 1226.3 1264.6 1594.7 1674.4 1575.2 1715.3 Z" data-holc_grade="C"/>
<path d="M 1923.9 1863 1890.8 1891.8 2035.4 2068.1 1934.7 2155.7 1826.9 2020.6 1750.4 2081.5 1794.9 2214.4 1775.4 2219.9 1739.3 2217.2 1722.6 2211.6 1707.3 2221.3 1683.7 2225.5 1664.2 2226.9 1640.6 2211.6 1616.9 2202 1587.7 2220 1473.7 2325.2 1404.2 2386.1 1319.4 2364 1165 2174.3 1318 2027.5 1335.2 2045.8 1461.2 2179.8 1660 2005.3 1569.6 1902.9 1632.2 1847.5 1583.5 1793.5 1618.7 1762.9 1650.3 1735.3 1743.4 1853 1786.5 1893.2 1804.6 1907 1890.8 1829.5 1923.9 1863 Z" data-holc_grade="C"/>
<path d="M 2910 2078.5 2680.9 2300.1 2623.7 2348.4 2469.5 2173.9 2427.3 2171.7 2349.4 2131.8 2162.5 1908.1 2213.6 1861.6 2282.6 1775.2 2316 1786.2 2476.2 1978.9 2608.2 1904.1 2777.9 1980.2 2910 2078.5 Z" data-holc_grade="C"/>
<path d="M 2708.6 1731.8 2787.4 1726.3 2859.7 1788.3 2754.1 1919 2567.2 1741.8 2708.6 1731.8 Z" data-holc_grade="C"/>
<path d="M 1830 1190 1950.9 1325.6 1743.8 1504.3 1678.5 1429.5 1661.8 1403.2 1650.7 1379.7 1639.5 1371.4 1624.3 1365.8 1613.1 1367.2 1469.9 1190 1262.8 961.6 1285.1 878.5 1344.8 946.4 1386.5 913.1 1312.9 823.2 1333.7 780.3 1419.9 864.7 1493.6 794.1 1510.2 811.9 1620.1 929.8 1818.8 759.5 1731.3 651.5 1853.6 551.9 1923.1 546.3 1980.1 582.3 2077.4 680.6 1985.6 762.2 2042.6 835.6 1945.3 924.2 1942.6 957.4 1945.3 976.8 1779.9 1124.9 1830 1190 Z" data-holc_grade="C"/>
</g>
<g id="D">
<path d="M 1226.3 1264.6 1124.8 1367.1 1194.4 1448.8 1133.1 1505.5 1078.9 1547 1013.5 1598.3 938.4 1646.7 939.8 1736.7 995.4 1819.8 1067.7 1859.9 1044.1 1963.8 978.7 1948.5 925.9 1941.6 867.5 1918.1 895.3 1875.1 907.8 1822.5 906.5 1779.6 895.3 1704.9 842.5 1512.4 860.6 1502.7 818.9 1344.9 806.4 1342.1 770.3 1202.3 614.9 1214.3 447.8 1227.1 453.4 1031.9 677.2 940.6 1152.6 1198.2 1226.3 1264.6 Z" data-holc_grade="D"/>
<path d="M 1254 1677.2 1194.3 1731.2 1159.5 1695.2 1128.9 1707.6 1055.2 1616.3 1216.1 1474.3 1280.5 1549.8 1233.2 1598.3 1276.3 1657.8 1254 1677.2 Z" data-holc_grade="D"/>
<path d="M 1387.3 1967.6 1247.1 1803.2 1255.4 1793.5 1276.3 1764.4 1302.7 1796.3 1323.5 1786.6 1408.4 1882.1 1432 1911.2 1425 1930.6 1404.2 1950 1387.3 1967.6 Z" data-holc_grade="D"/>
<path d="M 1493.6 794.1 1419.9 864.7 1333.7 780.3 1312.9 823.2 1386.5 913.1 1344.8 946.4 1285.1 878.5 1262.8 961.6 1469.9 1190 1378.2 1277.2 1265.6 1152.6 1139.1 1007.3 1032.1 909 1069.6 886.8 1093.3 848.1 1107.2 817.6 1262.8 712.4 1061.3 479.9 1040.5 428.7 1018.2 356.7 926.5 200.3 1157.3 9.3 1167 1 1219.8 174 1318.5 149.1 1329.6 182.3 1340.7 197.5 1470 196.2 1443.5 295.8 1422.7 392.7 1397.7 452.2 1332.3 607.2 1440.8 724.9 1493.6 794.1 Z" data-holc_grade="D"/>
<path d="M 1510.2 811.9 1545 807.9 1581.1 784.4 1731.3 651.5 1818.8 759.5 1620.1 929.8 1510.2 811.9 Z" data-holc_grade="D"/>
<path d="M 2306.5 1622.8 2308.3 1645.4 2295.8 1685.6 2247.1 1720.2 2354.2 1763.1 2430.7 1800.4 2511.3 1833.7 2608.2 1904.1 2476.2 1978.9 2316 1786.2 2282.6 1775.2 2213.6 1861.6 2129.9 1761.6 2072.9 1760.2 2022.9 1776.9 1923.9 1863 1890.8 1829.5 1917.6 1790.8 1931.5 1767.3 1921.8 1738.2 1853.7 1731.3 1739.7 1599.8 1770.2 1569.3 1770.2 1554.1 1743.8 1504.3 1950.9 1325.6 1963.5 1325.6 2016.3 1273 2035.7 1271.6 2059.4 1279.9 2099.7 1291 2128.9 1286.9 2156.7 1286.9 2194.2 1320.1 2213.7 1360.2 2241.5 1400.4 2147 1491.8 2305.5 1610.8 2306.5 1622.8 Z" data-holc_grade="D"/>
<path d="M 2455.6 1281.3 2431.9 1293.7 2336 1203.8 2096.9 913.1 1988.4 1010 2002.3 1046 1830 1190 1779.9 1124.9 1945.3 976.8 1942.6 957.4 1945.3 924.2 2042.6 835.6 1985.6 762.2 2077.4 680.6 2128.8 650.1 2213.6 741.4 2258.1 794 2226.1 828.6 2276.2 895.1 2336 958.7 2431.9 1073.6 2513.9 1163.6 2532 1166.3 2548.7 1177.4 2550.1 1191.3 2529.2 1227.3 2455.6 1281.3 Z" data-holc_grade="D"/>
<path d="M 2787.4 1726.3 2708.6 1731.8 2692.9 1589 2796.3 1525.8 2928.6 1431.6 2929.7 1450.4 2948.6 1502.5 2952 1587.8 2957.6 1707.4 2787.4 1726.3 Z" data-holc_grade="D"/>
</g>
</svg>