<?xml version="1.0"?>
<svg xmlns="http://www.w3.org/2000/svg" version="1.2" baseProfile="tiny" width="3000" height="3199" viewBox="0 0 3000 3199" stroke-linecap="round" stroke-linejoin="round">
<g id="A">
<path d="M 1808 1430.4 1614.7 1555.4 1536.7 1597.7 1459.7 1559.4 1418.2 1513.1 1362.9 1393 1356 1264.1 1412.3 1287.8 1441.9 1184.4 1435 1135.2 1430.1 1098.8 1383.6 1038.8 1367.8 1006.3 1360.9 947.3 1370 938.1 1389.7 951.6 1428 954.1 1423.8 921.5 1515.6 925.8 1568.7 960.2 1620.6 1020.5 1763.8 891.3 1926.7 901.1 2040.3 915.9 2021.8 986 1977.3 1051.2 1928 1086.9 1898.3 1148.4 1879.4 1270 1863.6 1383.2 1839.9 1409.8 1808 1430.4 Z" data-holc_grade="A"/>
<path d="M 1352.5 1482.9 1267.2 1523.1 1241.3 1521.9 1238.8 1567.4 1268.5 1595.7 1247.5 1627.7 1215.4 1599.4 1189.5 1546.5 1189.5 1533 1120.3 1545.3 1103 1540.3 1036.4 1600.6 1066 1638.8 1078.3 1673.2 1015.3 1712.6 920.3 1786.4 753.6 1612.9 835.1 1610.4 964.7 1564.9 977.1 1501 1072.2 1446.9 1099.3 1462.9 1120.3 1503.4 1247.5 1492.4 1337.6 1454.3 1352.5 1482.9 Z" data-holc_grade="A"/>
<path d="M 1743.9 2251.4 1598.1 1870.1 1611.7 1843 1631.5 1781.5 1664.8 1759.3 1705.5 1720 1790.7 1804.8 1822.8 1779 1875.9 1827 1855 1860.2 1919.2 1922.9 1946.3 1900.8 2005.6 1957.4 2052.5 1998 2087.1 2068.1 1743.9 2251.4 Z" data-holc_grade="A"/>
<path d="M 2180.9 2323.4 2222.4 2352 2248.1 2401.2 2219.5 2420.9 2292.6 2592.1 2275.8 2628.6 2257 2610.8 2233.3 2639.4 2225.4 2698.5 2202.7 2737.8 2179 2748.7 2161.2 2742.8 2149.4 2729 2132.6 2684.7 2097 2692.6 2060.4 2694.6 2042.7 2678.8 1979.4 2507.5 1991.3 2460.3 1993.2 2434.7 1939.9 2338.2 1993.2 2293.9 2053.5 2283.1 2106.8 2286 2180.9 2323.4 Z" data-holc_grade="A"/>
</g>
<g id="B">
<path d="M 1423.8 921.5 1428 954.1 1389.7 951.6 1370 938.1 1360.9 947.3 1310.7 998.3 1261.4 936.8 1216.9 902.4 1149 876.6 1050.3 866.7 978.7 851.9 873.8 623.2 889.8 608.4 878.7 582.6 887.4 571.5 845.4 496.5 822 427.6 909.6 408 997.3 392 1003.4 430.1 1055.3 408 1131.8 361.3 1163.9 382.2 1203.4 392 1250.3 448.6 1304.6 468.3 1319.4 548.2 1336.7 642.9 1318.1 713 1319.4 738.8 1394.7 832.3 1419.4 886.4 1423.8 921.5 Z" data-holc_grade="B"/>
<path d="M 873.8 623.2 978.7 851.9 1050.3 866.7 1075.5 946.3 1086.4 982.7 1108.1 1007.3 1164.4 996.5 1218.7 1009.3 1269.1 1081.1 1203.9 1132.3 1251.3 1206.1 1170.3 1269 1111.1 1191.3 1063.6 1232.6 1020.2 1235.6 971.8 1210 945.1 1217.8 893.8 1275.9 860.2 1353.6 851.3 1395.9 854.2 1427.4 836.4 1456.9 795 1491.4 765.3 1454 813.7 1413.6 807.8 1377.2 881.9 1222.8 933.3 1182.4 988.6 1171.6 1005.4 1192.3 1026.1 1176.5 998.5 1121.4 1021.2 1111.6 1047.9 1084 954.1 1000.4 935.3 994.5 847.4 991.5 806.9 948.2 861.2 912.8 797.1 854.7 881 786.9 816.8 723.9 748.7 627.5 778.3 605.8 805 610.7 836.6 622.6 853.4 630.4 873.8 623.2 Z" data-holc_grade="B"/>
<path d="M 1120.3 1545.3 1189.5 1533 1189.5 1546.5 1215.4 1599.4 1247.5 1627.7 1268.5 1595.7 1238.8 1567.4 1241.3 1521.9 1267.2 1523.1 1352.5 1482.9 1382.1 1469 1412.9 1530.5 1372.2 1585.9 1477.1 1651.1 1490.7 1667.1 1572.2 1704 1561.1 1761.8 1389.5 1770.4 1320.3 1764.3 1293.2 1745.8 1249.9 1739.6 1208 1734.7 1120.3 1545.3 Z" data-holc_grade="B"/>
<path d="M 1377.1 2295.7 1349.9 2357.3 1408 2388 1415.4 2470.5 1396.8 2518.5 1364.7 2554.1 1257.3 2560.3 1188.1 2564 963.4 2480.3 873.2 2421.2 895.5 2380.6 931.3 2362.1 860.9 2305.5 822.6 2236.6 883.2 2132.1 961 2059.5 1041.2 2042.3 1088.2 2049.7 1101.7 2069.3 1121.5 2117.3 1188.2 2171.5 1191.9 2229.3 1225.2 2215.8 1270.9 2226.8 1377.1 2295.7 Z" data-holc_grade="B"/>
</g>
<g id="C">
<path d="M 778.3 605.8 748.7 627.5 816.8 723.9 881 786.9 797.1 854.7 515.8 1073.3 383.5 920.8 464.5 860.8 313.4 723.9 285.8 747.6 189 660.9 274 574.4 171.3 468.1 313.5 342.2 284.9 322.5 398.5 166.2 440 86.5 467.7 6.8 774.7 1 818.2 49.2 926.7 187.9 768.7 306.9 669 425 804.2 582.4 778.3 605.8 Z" data-holc_grade="C"/>
<path d="M 765.3 1454 795 1491.4 787.3 1506.3 753.7 1503.4 720.1 1526 670.7 1540.8 691.4 1799.6 521.4 2046.6 439.4 1957 377.2 1936.3 377.3 1810.3 461.2 1793.6 490.9 1671.6 423.7 1667.6 360.5 1650.9 267.7 1625.3 250.9 1595.7 224.2 1555.4 180.8 1544.5 127.4 1564.2 92.9 1584.9 46.4 1594.7 20.8 1610.4 1 1603.5 132.5 1350.7 150.2 1354.6 184.8 1388.1 241.1 1415.7 298.4 1435.4 331.9 1600.7 369.4 1603.7 374.4 1593.8 419.8 1548.6 472.2 1515.1 452.5 1312.4 601.6 1180.6 666.8 1239.6 695.4 1419.7 765.3 1454 Z" data-holc_grade="C"/>
<path d="M 2179 2748.7 2202.7 2737.8 2225.4 2698.5 2233.3 2639.4 2257 2610.8 2275.8 2628.6 2292.6 2592.1 2219.5 2420.9 2248.1 2401.2 2222.4 2352 2180.9 2323.4 2154.2 2298.8 2106.8 2237.8 2102.8 2188.6 2162.1 2156.1 2360.8 2471 2377.6 2569.5 2329.2 2581.3 2338.1 2631.5 2380.6 2694.5 2359.8 2815.6 2317.4 2821.5 2278.8 2844.2 2244.3 2857 2216.6 2858.9 2194.9 2886.5 2148.4 2900.3 2148.4 2948.5 2015 3041.1 1962.7 2957.4 1814.5 3009.6 1867.8 3135.6 1797.7 3197.7 1731.5 3085.4 1630.7 3077.6 1649.4 2942.7 1771 2957.4 2103 2838.3 2160.3 2825.5 2179 2748.7 Z M 1536.7 1597.7 1614.7 1555.4 1808 1430.4 1844.5 1508.6 1830.3 1593.7 1811.3 1640.9 1972.5 1546.4 2031.8 1586.5 2057.9 1626.7 2102.9 1626.7 2126.6 1546.4 2188.2 1567.6 2166.9 1633.8 2297.3 1603 2261.7 1496.8 2479.8 1378.6 2505.9 1414 2515.3 1456.5 2408.7 1529.8 2437.2 1655 2185.9 1699.9 2121.9 1692.8 1854 1735.4 1536.7 1597.7 Z" data-holc_grade="C"/>
<path d="M 2885.5 2829.2 2865.4 2822.8 2808.9 2805.9 2736.6 2777.2 2663.1 2736.9 2599.9 2713.1 2612.8 2682.6 2641.4 2677.7 2700.7 2703.3 2729.3 2693.4 2804.4 2688.5 2826.1 2623.5 2816.2 2580.2 2827.1 2542.8 2868.6 2522.1 2883.4 2493.5 2999 2515.1 2996.1 2691.3 2961.5 2675.6 2885.5 2829.2 Z" data-holc_grade="C"/>
<path d="M 2885.5 2829.2 2665.3 3134.5 2489.3 3038 2560.5 2912 2525.9 2875.6 2472.5 2742.7 2589.1 2738.7 2599.9 2713.1 2663.1 2736.9 2736.6 2777.2 2808.9 2805.9 2865.4 2822.8 2885.5 2829.2 Z" data-holc_grade="C"/>
</g>
</svg>