<?xml version="1.0"?>
<svg xmlns="http://www.w3.org/2000/svg" version="1.2" baseProfile="tiny" width="3000" height="3600" viewBox="0 0 3000 3600" stroke-linecap="round" stroke-linejoin="round">
<g id="A">
<path d="M 711.4 1885 712.7 1893 713.8 1978.4 711.9 2031.4 562.8 2030.2 563.9 2114.1 615.5 2114.8 617 2258.8 603.4 2260 569.9 2257 537 2260.3 480.8 2258.8 477.2 2199.2 476.9 2134.5 415 2136.6 275.8 2139 220.8 2134.4 143.8 2133.5 3.6 2135.8 1 1976.1 264.1 1961.4 260.7 1924.4 261 1886.5 314.4 1873.8 330.3 1876.1 350.2 1874.3 359.3 1876.6 378.3 1873.9 396 1867.1 405.9 1868 444.4 1874.8 469.8 1875.7 501.9 1882.9 525.1 1879.8 558.1 1884.8 611.1 1885.7 711.4 1885 Z" data-holc_grade="A"/>
</g>
<g id="B">
<path d="M 1179.5 1602.5 1180 1549.3 1102.1 1548.3 1099.9 1468 1101.2 1411.2 1099.9 1271.8 1495.4 1261.5 1497.1 1294.5 1499.2 1439.2 1495.3 1539.9 1436.4 1540.9 1436.7 1593.8 1401.4 1596.2 1308.1 1599.2 1179.5 1602.5 Z" data-holc_grade="B"/>
<path d="M 1345.5 1860.3 1344.8 1833.2 1192.7 1835.8 1027.7 1834.3 908 1837.3 841.6 1836.2 708.9 1789.9 605.3 1753.7 608.7 1744.3 606.1 1648.5 630.3 1650 658.6 1647 717.1 1641.4 724.6 1651.9 726.9 1664.3 725.8 1697.8 814.8 1697.1 814.1 1614.7 992.6 1615.5 1060.6 1611 1100.6 1634.7 1178.5 1689.1 1236.2 1724.9 1327.6 1776.9 1378.8 1797 1398.2 1805.4 1401 1861.1 1345.5 1860.3 Z" data-holc_grade="B"/>
<path d="M 1345.5 1860.3 1345.7 1958.1 1211.6 1960.4 889.5 1954.9 890 1856.1 841.6 1836.2 908 1837.3 1027.7 1834.3 1192.7 1835.8 1344.8 1833.2 1345.5 1860.3 Z" data-holc_grade="B"/>
<path d="M 1345.7 1958.1 1345.4 2083.7 1345.2 2163.9 1159.9 2163.9 1160.8 2108.9 1060.7 2110.2 987.8 2112.4 925 2113.9 890.4 2114.7 890.4 2087.5 890.4 2033 788 2034.8 787.6 1978.8 890.4 1978.8 889.5 1954.9 1211.6 1960.4 1345.7 1958.1 Z" data-holc_grade="B"/>
<path d="M 890.4 2087.5 890.4 2114.7 925 2113.9 987.8 2112.4 1060.7 2110.2 1160.8 2108.9 1159.9 2163.9 1159.2 2218.4 1153.5 2223.5 1123 2220.8 1117.8 2202.8 1078.3 2197.9 1045 2200.9 1042.3 2277.4 1005.8 2283.1 946.3 2282.8 928.7 2281.3 914.8 2278.8 892.8 2279.4 751.3 2289.8 732.7 2290.7 733.8 2304.1 569.6 2304.1 569.9 2257 603.4 2260 617 2258.8 615.5 2114.8 747.7 2116.6 765.9 2116.8 766.6 2091.2 890.4 2087.5 Z" data-holc_grade="B"/>
<path d="M 569.6 2304.1 569.6 2308.2 572.9 2413.5 567 2415.4 549.1 2421.4 449.8 2419.8 428.6 2416.9 425.3 2416.4 387.5 2415.8 333.1 2411 333 2403.8 332.5 2376.1 332 2260.5 480.8 2258.8 537 2260.3 569.9 2257 569.6 2304.1 Z" data-holc_grade="B"/>
<path d="M 2517.3 2407.5 2523.7 2400.6 2512.5 2392.8 2520.9 2369 2545.4 2339.2 2566.8 2324.7 2590.1 2310.9 2622.1 2282.2 2660.8 2235.2 2675.7 2225.3 2693.9 2225.1 2714.2 2229.3 2725.8 2236.8 2752.1 2253.9 2780.4 2262.5 2804.6 2265.2 2860.8 2268.8 2880.5 2273 2896.6 2282.7 2914.1 2293.6 2959.4 2311.4 2973.9 2311.1 2991.8 2310 2996.7 2318.1 2999 2405 2986.2 2409.9 2981.3 2408 2926.5 2405.8 2880.4 2405.8 2859.3 2407.7 2798.1 2411.9 2573.9 2410.5 2517.3 2407.5 Z" data-holc_grade="B"/>
</g>
<g id="C">
<path d="M 1752.6 1197.6 1636.6 1205.2 1576.8 1205.2 1492.3 1202.8 1387 1204.9 1281 1203.8 1279.5 1148.9 1245.2 1147 1207.8 1148.2 1203.6 1058.3 1474.2 1051.2 1472.3 706.5 1364.8 568.1 1295.8 469.7 1246.7 412.9 1127.1 275.7 1044.2 166.3 1157 157.7 1284.1 153.6 1364.2 151.3 1362 70.5 1363.1 2.9 1488.7 1 1491.7 167.5 1494.8 235.1 1493.2 333.6 1492.1 406.5 1491.4 491.4 1492.8 570.8 1491.7 653.8 1492.8 701.2 1557.3 786.7 1639.5 782.2 1689 780 1718.4 781.1 1671.6 848 1640.7 889 1719.5 968.7 1728.6 990.8 1745.2 1028.1 1754.7 1058.9 1763.7 1104.7 1768.2 1137.4 1765.2 1154.7 1756.4 1181.7 1752.6 1197.6 Z" data-holc_grade="C"/>
<path d="M 2090.5 2674.4 2084.4 2674.6 1847.4 2680.8 1843.2 2590.5 1843.5 2443 1845 2401.5 1882.7 2399.4 1882.1 2207.2 2002.3 2207.4 2000.2 2397.9 2082.1 2396.4 2082.8 2625.6 2084.4 2674.5 2090.5 2674.4 Z" data-holc_grade="C"/>
<path d="M 1773.6 2986.8 1766.9 2986.9 1694.4 2988.7 1693.5 2751.6 1690.8 2681.5 1711.5 2681 1711.5 2681.1 1713.9 2680.9 1785.2 2676.6 1847.4 2680.8 2084.4 2674.6 2086.5 2787.4 2085.3 2876.4 2123.4 2874.3 2121 2964.6 2227.9 2964.8 2224.9 3006.4 2232.5 3159 2232.8 3194.8 2231 3282.4 2205.1 3282.7 2174.2 3280.6 2061.5 3286.6 2040.4 3174.4 2008 3107.8 1993.2 3073.2 1945.2 2984.8 1773.6 2986.8 Z" data-holc_grade="C"/>
<path d="M 2317.1 2983.6 2316.2 2960.3 2306.5 2914.8 2304.9 2862.2 2306 2801.9 2388.4 2805.5 2390.1 2983.6 2317.1 2983.6 Z" data-holc_grade="C"/>
<path d="M 1173.2 3333.5 1023.1 3330.5 1024.3 3167.9 1148.8 3073.4 1223.7 3032.2 1268.1 3019.6 1280.8 3022.3 1274.5 3050 1243 3152.3 1191.7 3276.6 1173.2 3333.5 Z" data-holc_grade="C"/>
<path d="M 1102.1 1548.3 1180 1549.3 1179.5 1602.5 1178.5 1689.1 1100.6 1634.7 1060.6 1611 992.6 1615.5 814.1 1614.7 814.8 1697.1 725.8 1697.8 726.9 1664.3 724.6 1651.9 717.1 1641.4 721.6 1623.7 720.5 1549.6 719 1523.7 871.1 1520.3 871.1 1485.8 793 1437.6 676.8 1383.1 464.3 1233 475.7 1217.2 571.5 1219.1 760.6 1216.2 856.8 1212 1030.1 1211.3 1031.6 1326.4 1037.2 1411.7 1037.2 1487.3 1041 1551.6 1102.1 1548.3 Z" data-holc_grade="C"/>
<path d="M 1179.5 1602.5 1308.1 1599.2 1401.4 1596.2 1436.7 1593.8 1436.4 1540.9 1495.3 1539.9 1499.2 1439.2 1497.1 1294.5 1495.4 1261.5 1492.3 1202.8 1576.8 1205.2 1636.6 1205.2 1752.6 1197.6 1743.7 1235.3 1730.2 1287 1720.2 1316.2 1715.1 1338.1 1712.6 1354.4 1711.1 1375.4 1710.8 1408.2 1708.1 1478.3 1705.7 1514.1 1704.5 1541.5 1650.2 1541.8 1649.6 1570.7 1651.4 1598.6 1651.4 1632.3 1652 1663.9 1651.4 1696.4 1625.4 1695.2 1624.5 1657.3 1626.6 1604.3 1624.5 1525.5 1560.2 1524.3 1559 1555 1560.2 1610.7 1559.9 1637.7 1559 1676.5 1560.9 1737.5 1560.2 1777.4 1545.2 1779.4 1490.9 1780.3 1399.6 1780.5 1398.2 1805.4 1378.8 1797 1327.6 1776.9 1236.2 1724.9 1178.5 1689.1 1179.5 1602.5 Z" data-holc_grade="C"/>
<path d="M 605.3 1753.7 708.9 1789.9 709 1870.5 711.4 1885 611.1 1885.7 558.1 1884.8 525.1 1879.8 501.9 1882.9 469.8 1875.7 444.4 1874.8 405.9 1868 396 1867.1 378.3 1873.9 359.3 1876.6 350.2 1874.3 330.3 1876.1 314.4 1873.8 261 1886.5 261.9 1827.3 261 1703.7 239.3 1700.5 48.1 1708.6 47.3 1595.3 45 1581.8 41.4 1569.1 337.1 1668.1 518.8 1726.4 605.3 1753.7 Z" data-holc_grade="C"/>
<path d="M 428.6 2416.9 419.2 2501.9 420 2574.9 419.1 2619.8 411.2 2644.8 392.5 2678.5 378.3 2700.5 281.5 2896.3 268 2896.3 261.3 2899.3 230.2 2915.9 210.8 2918.3 115.4 2923.6 109.3 2907.4 100.8 2685.2 103.1 2672.6 333 2403.8 333.1 2411 387.5 2415.8 425.3 2416.4 428.6 2416.9 Z" data-holc_grade="C"/>
<path d="M 579.2 2418.3 567 2415.4 572.9 2413.5 569.6 2308.2 569.6 2304.1 733.8 2304.1 730.4 2415.8 587.6 2420.3 579.2 2418.3 Z" data-holc_grade="C"/>
<path d="M 1123 2220.8 1153.5 2223.5 1159.2 2218.4 1159.9 2163.9 1345.2 2163.9 1345.4 2083.7 1486.7 2088.9 1486.7 2148.7 1488.9 2190.5 1508.2 2175.8 1520.3 2175 1520.7 2254.4 1573.9 2253.3 1570.5 2409.7 1572 2568.4 1456.5 2571.4 1327.3 2570.3 1185.4 2571.8 1179 2402.9 1123.1 2399.9 1144.2 2362.3 1138.2 2272.8 1127.6 2271.7 1127.3 2251.4 1123 2220.8 Z" data-holc_grade="C"/>
<path d="M 2090.5 2674.4 2084.4 2674.5 2082.8 2625.6 2082.1 2396.4 2000.2 2397.9 2002.3 2207.4 1882.1 2207.2 1882.7 2399.4 1845 2401.5 1843.5 2443 1843.2 2590.5 1847.4 2680.8 1785.2 2676.6 1713.9 2680.9 1711.5 2681.1 1711.5 2681 1712.8 2567.6 1626.7 2566.4 1621.3 2441.8 1797.1 2431.6 1797.4 2398.5 1795 2381.3 1670.2 2388.2 1638.5 2386.1 1620.1 2385.2 1618.3 2338.3 1618.3 2314.8 1622.8 2291.1 1623.4 2243.2 1668.4 2241.1 1762.3 2238.1 1795.6 2237.5 1810.7 2235.4 1810.7 2097.4 1862.8 2065.4 1936.1 2005.6 1958.3 2030.4 1995.7 2059.4 2041.8 2105.6 2090.1 2135.3 2095 2118.8 2095 2050 2096.5 2006.4 2099.9 1993.2 2110.5 1987.5 2306.1 1986.3 2310 2205.8 2309.2 2245.8 2306.4 2269.7 2299.4 2291.2 2285.8 2310.1 2285.6 2310.3 2219.8 2401.4 2199.1 2404.8 2196.8 2494 2199.5 2562 2199.5 2672.2 2090.5 2674.4 Z" data-holc_grade="C"/>
<path d="M 2285.8 2310.1 2299.4 2291.2 2306.4 2269.7 2309.2 2245.8 2310 2205.8 2306.1 1986.3 2468.7 1985.2 2470.7 2083.5 2551 2079.2 2646.5 2079.2 2642 2129.7 2655.3 2152.6 2620.8 2195.3 2578.6 2232.4 2578.6 2272.7 2573.2 2310 2566.8 2324.7 2545.4 2339.2 2520.9 2369 2512.5 2392.8 2523.7 2400.6 2517.3 2407.5 2414.3 2406.3 2413.1 2496.3 2415 2683.2 2314.4 2679 2312.5 2395.4 2315.7 2373.5 2312.7 2348.2 2304.5 2326.2 2285.8 2310.1 Z" data-holc_grade="C"/>
</g>
<g id="D">
<path d="M 2114.1 1034.7 2114.1 1034.3 2114.2 1034.7 2114.1 1034.7 Z M 2114.1 1034.7 2113.2 1157.4 2113.2 1217.1 2113.3 1254.1 2163.5 1250.5 2216.1 1250 2216.1 1337.6 2218.4 1436.4 2108.8 1459.8 2107.9 1664.2 2098.8 1665.1 2092.1 1663.8 2087.1 1657 2082.1 1634.5 2076.2 1620.5 2068.5 1615.1 2061.7 1612.4 2041.3 1620.5 2030 1623.6 2022.7 1621.4 2014.1 1613.7 2004.6 1597.9 1993.7 1588.9 1938 1573.6 1924.9 1573.6 1914.9 1581.7 1909.5 1600.2 1908.6 1624.1 1919 1647.6 1937.1 1677.8 1954.4 1708.5 1963.9 1734.2 1967.5 1770.8 1965.2 1788.4 1773.8 1800.3 1776.5 1730 1776.9 1695.4 1731.6 1692 1732.3 1530.3 1734.9 1497.6 1753.1 1493.5 1780.2 1493.1 1796.5 1496.8 1808.9 1496.1 1808.5 1355.9 1807 1272.8 1807.4 1211.9 1837.2 1209.2 1836.4 1149.8 1833.8 1099.8 1835.3 1039.3 1841.3 990.1 1854.5 895.3 1900.2 892.7 1945.1 892.3 1949.6 1040 2038.3 1034 2114.1 1034.7 Z" data-holc_grade="D"/>
<path d="M 2306.1 1986.3 2110.5 1987.5 2099.9 1993.2 2096.5 2006.4 2095 2050 2095 2118.8 2090.1 2135.3 2041.8 2105.6 1995.7 2059.4 1958.3 2030.4 1936.1 2005.6 1862.8 2065.4 1810.7 2097.4 1810.7 1978.2 1772.6 1976.3 1774.9 1916.9 1775.2 1874.8 1772.6 1832.3 1773.8 1800.3 1965.2 1788.4 2008.5 1788.3 2142.1 1773.2 2171.2 1820.6 2181.8 1847.3 2188.2 1863.4 2201.8 1877.7 2220.3 1888.2 2243.7 1890.5 2249 1901.8 2261.1 1904.4 2468.7 1895.3 2468.7 1985.2 2306.1 1986.3 Z" data-holc_grade="D"/>
<path d="M 889.5 1954.9 890.4 1978.8 787.6 1978.8 788 2034.8 890.4 2033 890.4 2087.5 766.6 2091.2 765.9 2116.8 747.7 2116.6 615.5 2114.8 563.9 2114.1 562.8 2030.2 711.9 2031.4 713.8 1978.4 712.7 1893 711.4 1885 709 1870.5 708.9 1789.9 841.6 1836.2 890 1856.1 889.5 1954.9 Z" data-holc_grade="D"/>
<path d="M 579.2 2418.3 581.2 2475.6 580.8 2516.6 574 2615.5 452.1 2596.3 420 2574.9 419.2 2501.9 428.6 2416.9 449.8 2419.8 549.1 2421.4 567 2415.4 579.2 2418.3 Z" data-holc_grade="D"/>
<path d="M 1185.4 2571.8 1327.3 2570.3 1456.5 2571.4 1572 2568.4 1569.6 2642.1 1568.4 2683.6 1392.4 2675.7 1389.3 2710 1390.6 2735.3 1385.5 2821 1346.2 2821.9 1326.9 2820.7 1325.7 2676.8 1030.5 2645.2 949.3 2646.4 946.6 2635.3 946.6 2607.9 952.3 2548 966.5 2506.2 988.3 2477.6 1062.9 2512.5 1154.7 2570 1185.4 2571.8 Z" data-holc_grade="D"/>
<path d="M 1690.8 2681.5 1693.5 2751.6 1694.4 2988.7 1766.9 2986.9 1773.6 2986.8 1768 3015.5 1765.8 3242.3 1763.6 3417.3 1763.1 3476 1762.7 3526.5 1767.7 3599.2 1538.8 3597.9 1486.2 3594.7 1486.2 3534.2 1488.1 3387.3 1487.6 3118.7 1482.2 3016.7 1501.2 2981.9 1625.8 2681.3 1690.8 2681.5 Z" data-holc_grade="D"/>
</g>
</svg>