<?xml version="1.0"?>
<svg xmlns="http://www.w3.org/2000/svg" version="1.2" baseProfile="tiny" width="3000" height="2560" viewBox="0 0 3000 2560" stroke-linecap="round" stroke-linejoin="round">
<g id="A">
<path d="M 436.8 780.7 243.3 770.9 1 758.6 1.3 667.7 2 667.8 252.4 686.2 253.5 653.4 243.6 652.1 243.6 651.6 247.2 529.6 366.6 537.1 365.7 530.7 367.5 479.7 428.2 484.7 427.6 513.2 485.6 515.5 486.3 547.3 602.9 550 601.4 559.5 598.1 602.5 618.9 594.2 636.1 595.7 643.3 598.2 655.9 606.7 654.7 616.2 596.7 660.8 568.1 662.4 568.5 680.1 576 698.8 594.7 724 608.8 719 675.1 678.6 691.7 671.6 710 677.1 731.3 688.2 763.3 726.6 755.2 753.3 697.9 779.7 658.6 791.2 629.8 796.1 597.2 815.1 562.9 814.8 528 801.2 498.1 794.6 441.9 781 436.8 780.7 Z" data-holc_grade="A"/>
<path d="M 436.8 780.7 448.2 791.2 478.7 802.5 503.2 808.1 506.5 825 495.9 839.5 457.4 839.4 405 857.1 382.5 857.9 366.6 874 375.4 916 393.7 900.1 411.1 892.9 429.7 888.8 460.3 900.1 512.1 908.4 543.1 902.2 605.5 894 639 856 671.7 843.1 788 815.4 871.3 816.4 867 972.8 867.2 972.8 867.2 972.9 957.2 984.4 952.2 1114.8 1075.7 1117.9 1073.6 1152.3 1086.3 1153.9 1081.7 1279.9 1202.2 1287.1 1202.2 1287.2 1198.5 1408.6 1198.4 1411 1075.7 1405.9 1075.7 1405.3 1076.1 1346.2 990.1 1341.3 958.5 1339.5 958.1 1324.1 958 1324.1 859.5 1318.6 838.4 1317.4 838.1 1288 838.1 1287.5 838 1275.2 809.1 1273.1 809.9 1249.9 809.9 1249.1 813.4 1145.1 813.3 1145.1 319.7 1130.5 322.8 956 231.1 952.1 226.9 951.9 243.3 770.9 436.8 780.7 Z" data-holc_grade="A"/>
<path d="M 1444.6 2030.6 1439.5 2138.5 1439.5 2139.9 1437.8 2139.9 1318.3 2134.4 1318.3 2133.9 1319.4 2058.7 1326.9 1895.7 1326.9 1895.6 1342.9 1896 1342.9 1895.5 1351.7 1721.6 1384.9 1722 1384.9 1722.1 1415.6 1722.3 1408.3 1901.4 1450 1902.7 1443.2 2029.1 1443.1 2030.5 1444.6 2030.6 Z" data-holc_grade="A"/>
<path d="M 1840.1 2112.1 1840 2112.1 1839.9 2112.1 1796.7 2112 1796.6 2119.6 1795.9 2180.6 1793.8 2208.2 1790.8 2247.8 1595.4 2243 1600.5 2147.2 1600.7 2144.5 1600 2144.5 1599.1 2144.4 1602.6 2069.7 1603.3 2069.8 1604 2069.8 1701.2 2075.1 1705 1977.1 1771.4 1980.3 1773 1915 1785.9 1833.8 1852.7 1844.3 1841.4 1908.6 1830.9 2087.8 1840.1 2112.1 Z" data-holc_grade="A"/>
<path d="M 2158.8 280.7 2152 280.7 2125.8 300.5 2115.1 301.2 2106.1 310.2 2108.1 231.6 2121.1 217.2 2123.6 181.5 2123.8 150.4 2114.4 137.7 2108.6 135.9 2098.9 121.4 2098.9 108.2 2102 93.1 2116.5 72.8 2115.9 60.1 2123.8 40.7 2134.5 21.9 2152 1 2524.4 6.1 2519.1 246.2 2415.9 244.8 2426.6 258.3 2441.7 265 2459.6 267 2468.3 267.9 2481.4 275.1 2488.6 293.4 2490.1 299.7 2495.7 304.5 2496.6 310 2497.2 315.8 2495.3 320.2 2489.2 323.6 2472.7 321.6 2461.9 320.1 2450.3 317 2433.7 317.3 2420 313.3 2408.9 308.9 2400.1 308.5 2380.5 309.7 2372.5 309.3 2367 308.2 2359 301.8 2356.8 296.8 2356 283 2356.2 277.5 2346.8 273.3 2338 270.5 2329.4 270 2323.7 278.4 2319.9 282.3 2313.9 283.6 2306.2 282 2298 281.8 2291.6 283.5 2285.2 283 2270.8 275.2 2257.3 268.5 2252.9 276.8 2238.6 286.4 2227.5 290.4 2209.1 286.2 2189.9 276.8 2176.6 275.4 2163.4 279.5 2158.8 280.7 Z" data-holc_grade="A"/>
</g>
<g id="B">
<path d="M 126.2 524.2 125.9 524.5 128.1 407.9 246.6 412.5 244.4 530.7 126.2 524.2 Z" data-holc_grade="B"/>
<path d="M 2212.3 581.3 2209.7 686.5 2143.9 684.6 2143 755.2 2112.8 754.6 2108.6 754.5 2108.3 754.5 2108.3 752.5 2108.3 751.5 2108.3 747.4 2078.2 746.6 2079.1 683.8 2079.8 683.9 2080.8 683.9 2081 681.8 2087.9 590.6 2087.2 539.8 2087.7 443.1 2126.2 444.5 2125.9 471.2 2126.2 471.2 2126.2 471.7 2152 472.6 2153.2 523.8 2213.7 524.1 2212.3 581.3 Z" data-holc_grade="B"/>
<path d="M 1987.1 1017.2 2065.6 1020.3 2065.5 1021.7 2062.6 1084.6 1999.5 1080.9 1927.6 1066.8 1930.1 1045.8 1948.7 1046.5 1949.5 1031.1 1985.3 1030.1 1986 1017.2 1987.1 1017.2 Z" data-holc_grade="B"/>
<path d="M 2925 1201.9 2924.9 1204.7 2732.1 1198.7 2735.1 1137.2 2926.2 1143.1 2923.1 1201.7 2925 1201.9 Z" data-holc_grade="B"/>
<path d="M 243.6 651.6 243.6 652.1 253.5 653.4 252.4 686.2 2 667.8 4.7 523.8 120.3 530.3 118.4 645.9 243.6 651.6 Z" data-holc_grade="B"/>
<path d="M 1075.7 1405.3 825.2 1392.4 719.1 1387.1 721.7 1265.8 362.6 1250.7 288.1 1248.9 247.7 1252.5 252.4 1125.7 226.4 1126.1 231.1 952.1 322.8 956 319.7 1130.5 813.3 1145.1 813.4 1145.1 809.9 1249.1 809.9 1249.9 809.1 1273.1 838 1275.2 838.1 1287.5 838.1 1288 838.4 1317.4 859.5 1318.6 958 1324.1 958.1 1324.1 958.5 1339.5 990.1 1341.3 1076.1 1346.2 1075.7 1405.3 Z" data-holc_grade="B"/>
<path d="M 338 1965 333 2057.8 332.5 2057.8 332.2 2082 332.2 2082.6 222 2080 216.9 2059.5 233.3 1603.1 354.1 1608.2 354.2 1608.2 354.2 1608.5 344.2 1847.4 344.1 1849.3 338 1965 Z" data-holc_grade="B"/>
<path d="M 1198.4 1411 1198.5 1408.6 1202.2 1287.2 1320.7 1293.2 1322.1 1238.3 1322.9 1238.3 1369.6 1238.3 1369.7 1238.3 1369.5 1245.2 1369.2 1257.3 1373.9 1257.5 1377.3 1257.7 1375.4 1294.6 1375.3 1298.1 1379.7 1298.5 1382.5 1298.8 1382.6 1328.9 1321.9 1328.6 1319.8 1411.7 1198.4 1411 Z" data-holc_grade="B"/>
<path d="M 1384.9 1722 1351.7 1721.6 1342.9 1895.5 1342.9 1896 1326.9 1895.6 1301.9 1895 1145.4 1891.1 1145.4 1890.6 1148.9 1836.6 1152.5 1779.7 1150.9 1757 1150.2 1746 1156 1712.5 1159.1 1648.9 1352.3 1654 1359 1491.5 1393.8 1492.1 1393.2 1507.6 1384.9 1721.7 1384.9 1722 Z" data-holc_grade="B"/>
<path d="M 1769.4 1732.8 1834.9 1743.5 1931.8 1759.2 1932.7 1759.4 1928.1 1795.4 1910.7 1886.9 1941.3 1891.6 1941.2 1892.1 1937.1 1918 1932.4 2112.5 1930.8 2112.5 1840.1 2112.1 1830.9 2087.8 1841.4 1908.6 1852.7 1844.3 1785.9 1833.8 1773 1915 1771.4 1980.3 1705 1977.1 1701.2 2075.1 1604 2069.8 1603.3 2069.8 1608 1941.6 1609 1941.6 1636.3 1942.8 1707.5 1946 1707.3 1915.3 1733.4 1757.1 1763.7 1763.4 1769 1732.7 1769.4 1732.8 Z" data-holc_grade="B"/>
<path d="M 2051.3 1647.4 2111.6 1659.9 2111.7 1660.6 2115.1 1723.6 2115.1 1798.9 2213.4 1802.3 2214.3 1662 2214.3 1661.9 2214.3 1658.7 2312 1662.1 2349.4 1660.1 2349.4 1660.8 2349.4 1661.2 2343.9 1840.7 2216.7 1835.6 2212.4 1822.9 2115.4 1822.5 2088.3 1817 2088.3 1816.6 1993.5 1801.7 2018.6 1640.7 2051.3 1647.4 Z" data-holc_grade="B"/>
<path d="M 1690.7 467.9 1937.1 470.1 1945.7 492.6 2016.7 677.5 2017.1 678.6 2018.4 682 1982.7 679.4 1980.6 710.9 1953 710.2 1952.7 710.2 1791.1 706.1 1778.1 741 1771.1 916.3 1766.6 934 1766.2 934 1766.3 933.8 1742.3 933 1686.2 930.6 1661.1 929.6 1660.9 929.6 1661.2 913.1 1626.2 913.1 1626.8 814.3 1656.2 809.8 1656.8 583.6 1689.4 584.7 1690.3 467.9 1690.7 467.9 Z" data-holc_grade="B"/>
</g>
<g id="C">
<path d="M 1428.3 1352 1428 1352.7 1399.4 1378.4 1360 1403.8 1332.8 1417.6 1293.6 1433.1 1260 1446.1 1235.9 1455.6 1225.9 1463.2 1215.6 1471.7 1204.6 1482 1195.3 1492.2 1186.1 1505.6 1165.9 1541.7 1150.6 1573.4 1136.9 1613.2 1160.7 1615.7 1160.7 1615.8 1159.4 1643.3 1159.1 1648.9 1156 1712.5 1150.2 1746 1150.9 1757 1152.5 1779.7 1148.9 1836.6 1145.4 1890.6 1145.4 1891.1 1144.5 1905.6 1136.8 1909.5 1056 1950.7 1059.2 1884.7 966.6 1879.2 962.9 1945.7 983.4 1986.4 1051.4 1953.5 1051.4 2118.9 991.5 2117.3 995.6 1981.5 497.2 2224.3 470 2212.2 448.2 2205.6 331.1 2185.8 332.2 2082 332.5 2057.8 333 2057.8 455.6 2059.2 460.6 1968.8 338 1965 344.1 1849.3 344.2 1847.4 461.2 1854.8 539.6 1854.5 580.9 1852.8 594 1617.8 354.2 1608.5 354.1 1608.5 354.1 1608.2 352.4 1549.1 356.2 1487.9 714.1 1506.2 719.1 1387.1 825.2 1392.4 1075.7 1405.3 1075.7 1405.9 1198.4 1411 1319.8 1411.7 1321.9 1328.6 1382.6 1328.9 1382.5 1298.8 1379.7 1298.5 1375.3 1298.1 1375.4 1294.6 1377.3 1257.7 1373.9 1257.5 1369.2 1257.3 1369.5 1245.2 1369.7 1238.3 1369.6 1238.3 1322.9 1238.3 1325.4 1172.6 1409.6 1176.6 1424.6 1199.6 1442.1 1238.1 1447.5 1281.6 1444.7 1312.2 1428.3 1352 Z" data-holc_grade="C"/>
<path d="M 2265.3 1044.9 2263.7 1083.2 2263.6 1086 2167.6 1084.8 2166.6 1084.8 2169.1 991 2131.8 956.1 2264 959.6 2264.6 1044.9 2265.3 1044.9 Z" data-holc_grade="C"/>
<path d="M 1634.2 1279.5 1653.7 1260.9 1674.9 1239.8 1696.3 1221.3 1724.3 1212.3 1739.6 1208.1 1847.5 1249.6 1869.6 1268 1886.1 1276 1912.8 1284.6 1905.4 1322.3 1634.2 1279.5 Z" data-holc_grade="C"/>
<path d="M 1833.8 1545.1 1551.4 1500.3 1553.3 1396.6 1525.9 1391.7 1481.1 1393.9 1484.9 1333.3 1527.5 1331.4 1574.1 1334 1604 1340 1611.4 1311.4 1734.3 1329.5 1866.8 1352.4 1833.8 1545.1 Z" data-holc_grade="C"/>
<path d="M 1823.8 1607.7 1954.1 1628.8 1931.8 1759.2 1834.9 1743.5 1837.1 1715.8 1844.5 1679.3 1780.6 1670.1 1769.4 1732.8 1769 1732.7 1763.7 1763.4 1733.4 1757.1 1707.3 1915.3 1707.5 1946 1636.3 1942.8 1609 1941.6 1608 1941.6 1603.3 2069.8 1602.6 2069.7 1599.1 2144.4 1439.5 2138.5 1444.6 2030.6 1540.7 2037.1 1545.7 1662.5 1566.4 1567.2 1823.1 1612 1823.8 1607.7 Z" data-holc_grade="C"/>
<path d="M 1993.5 1801.7 2088.3 1816.6 2088.3 1817 2087.1 1816.8 2073.2 1910.4 2063.5 2113 1932.4 2112.5 1937.1 1918 1941.2 1892.1 1975.5 1897.2 1992.8 1801.6 1993.5 1801.7 Z" data-holc_grade="C"/>
<path d="M 2351.8 1659.8 2349.4 1659.8 2349.4 1660.1 2312 1662.1 2214.3 1658.7 2214.3 1661.9 2214.3 1662 2111.7 1660.6 2111.6 1659.9 2051.3 1647.4 2079.2 1481.2 2177 1490.3 2245.8 1497.3 2340.4 1499.2 2353.6 1539.4 2351.8 1659.8 Z" data-holc_grade="C"/>
<path d="M 1686.2 930.6 1742.3 933 1766.3 933.8 1766.2 934 1745.2 998 1700.9 1113.8 1657.5 1073.9 1673.9 1005.6 1686.2 930.6 Z" data-holc_grade="C"/>
<path d="M 2018.4 682 2079.1 683.8 2078.2 746.6 2108.3 747.4 2108.3 751.5 2108.3 752.5 2108.3 754.5 2108.6 754.5 2108.2 856.7 2105.3 856.8 2041.8 858.4 2028 862.3 2003.2 864.6 1974 860.7 1947.9 847.9 1952.7 710.2 1953 710.2 1980.6 710.9 1982.7 679.4 2018.4 682 Z" data-holc_grade="C"/>
<path d="M 2065.5 1021.7 2065.6 1020.3 1987.1 1017.2 1990.4 957.5 1989.6 944.8 1989.8 938.4 1978.7 938.4 1974.8 929.4 1975.1 924.5 1992.1 914.4 2006.1 905.7 2017 908.8 2023.9 910.7 2023.6 915.9 2070.9 917.7 2067.4 1021.8 2065.5 1021.7 Z" data-holc_grade="C"/>
</g>
<g id="D">
<path d="M 957.2 984.4 867.2 972.9 867.2 972.8 867 972.8 871.3 816.4 961 817.2 957.2 984.4 Z" data-holc_grade="D"/>
<path d="M 1551.4 1500.3 1833.8 1545.1 1835 1545.3 1823.8 1607.7 1823.1 1612 1566.4 1567.2 1545.7 1662.5 1540.7 2037.1 1444.6 2030.6 1443.1 2030.5 1443.2 2029.1 1450 1902.7 1408.3 1901.4 1415.6 1722.3 1384.9 1722.1 1384.9 1722 1384.9 1721.7 1393.2 1507.6 1393.8 1492.1 1359 1491.5 1352.3 1654 1159.1 1648.9 1159.4 1643.3 1160.7 1615.8 1160.7 1615.7 1136.9 1613.2 1150.6 1573.4 1165.9 1541.7 1186.1 1505.6 1195.3 1492.2 1204.6 1482 1215.6 1471.7 1225.9 1463.2 1235.9 1455.6 1260 1446.1 1293.6 1433.1 1332.8 1417.6 1360 1403.8 1399.4 1378.4 1428 1352.7 1428.3 1352 1431.5 1360.4 1424.3 1493.9 1550.1 1500 1551.4 1500.3 Z" data-holc_grade="D"/>
<path d="M 1136.8 1909.5 1144.5 1905.6 1145.4 1891.1 1301.9 1895 1326.9 1895.6 1326.9 1895.7 1319.4 2058.7 1318.3 2133.9 1318.3 2134.4 1437.8 2139.9 1439.5 2139.9 1439.5 2138.5 1599.1 2144.4 1600 2144.5 1600.7 2144.5 1600.5 2147.2 1595.4 2243 1790.8 2247.8 1793.8 2208.2 1795.9 2180.6 1796.6 2119.6 1796.7 2112 1839.9 2112.1 1840 2112.1 1840.1 2112.1 1930.8 2112.5 1932.4 2112.5 2063.5 2113 2073.2 1910.4 2087.1 1816.8 2088.3 1817 2115.4 1822.5 2212.4 1822.9 2216.7 1835.6 2343.9 1840.7 2349.4 1661.2 2349.4 1660.8 2349.4 1660.1 2349.4 1659.8 2351.8 1659.8 2433.6 1659.8 2451.5 1711.2 2450.2 1735 2438.8 1947.6 2342.4 1936.4 2285.5 1934.6 2227.9 1931.8 2215.3 2180.7 2272.1 2175.8 2339.1 2190.7 2438.7 2195.9 2439.4 2242.8 2420.9 2275.5 2401.9 2299.4 2374.2 2310.6 2282 2329.2 2103.1 2359.8 1818.9 2429 1700.4 2487.1 1561.5 2559.4 1305.8 2544.6 1292.8 2480.4 1180.9 2473 1178.5 2156.6 1136.8 1909.5 Z" data-holc_grade="D"/>
<path d="M 2488.9 1402.7 2571.4 1415.4 2614.2 1423.7 2654 1430.4 2706.1 1440.9 2741.5 1449.2 2716.1 1592 2714.3 1602.5 2708.6 1636.4 2702.5 1643.8 2698.7 1648.4 2574 1641.7 2485.8 1472.6 2488.9 1402.7 Z M 2488.9 1402.7 2488.3 1402.6 2488.9 1402.6 2488.9 1402.7 Z" data-holc_grade="D"/>
<path d="M 2702.5 1643.8 2708.6 1636.4 2714.3 1602.5 2834.6 1601.7 2860.6 1477.7 2920.2 1476.1 2950 1482.1 2972.9 1485.9 2999 1488.9 2961.2 1680.6 2938.3 1681.4 2932.1 1722.7 2829.1 1725 2822.3 1858.8 2804.3 1860.3 2651 1843.9 2614.4 1784.5 2683.3 1739.4 2683.9 1715.3 2696.3 1715.3 2702.5 1643.8 Z" data-holc_grade="D"/>
<path d="M 2152 472.6 2126.2 471.7 2126.2 471.2 2125.9 471.2 2126.2 444.5 2087.7 443.1 2087.2 539.8 2087.9 590.6 2081 681.8 2080.8 683.9 2079.8 683.9 2079.1 683.8 2018.4 682 2017.1 678.6 2016.7 677.5 1945.7 492.6 1937.1 470.1 1690.7 467.9 1690.1 350.3 2100.2 358.9 2104.6 311.8 2106.1 310.2 2115.1 301.2 2125.8 300.5 2152 280.7 2158.8 280.7 2161.9 280.7 2160.5 361.1 2159.4 472.9 2152 472.6 Z" data-holc_grade="D"/>
<path d="M 2265.3 1044.9 2264.6 1044.9 2264 959.6 2131.8 956.1 2103.6 955.3 2105.3 856.8 2108.2 856.7 2108.6 754.5 2112.8 754.6 2143 755.2 2143.9 684.6 2209.7 686.5 2212.3 581.3 2277.9 581.3 2276.8 659.2 2506.9 662.3 2506 717.6 2332.4 793.2 2329.9 860.6 2508.6 873.8 2503.2 1054.2 2265.3 1044.9 Z" data-holc_grade="D"/>
<path d="M 2925 1201.9 2923.1 1201.7 2926.2 1143.1 2735.1 1137.2 2732.1 1198.7 2732 1199.6 2581.3 1192.1 2579.4 1239.5 2440.4 1233.5 2434.2 1298.9 2408.2 1289.9 2396.4 1280.9 2384 1287.7 2318.8 1277.9 2290.3 1266.6 2265.3 1256.4 2240.9 1264.6 2217.4 1261.9 2178.9 1258.8 2153.5 1245.9 2129.7 1246.3 2131.9 1218.7 2287.2 1219 2287.8 1187.9 2160.8 1183.6 2167.6 1084.8 2263.6 1086 2263.7 1083.2 2971.5 1110.7 2969 1170.9 2970.3 1207 2925 1201.9 Z" data-holc_grade="D"/>
</g>
</svg>