<?xml version="1.0"?>
<svg xmlns="http://www.w3.org/2000/svg" version="1.2" baseProfile="tiny" width="3000" height="2006" viewBox="0 0 3000 2006" stroke-linecap="round" stroke-linejoin="round">
<g id="B">
<path d="M 1929.4 374.4 1928.7 357.4 1926.5 339.8 1924.1 321.1 1919.3 289 1916.3 276.6 1913.7 264 1911.1 251.6 1907.4 236.8 1903.1 221 1847.6 244.4 1833.6 249.9 1760 279.2 1721.7 294.4 1703.6 300.7 1695 304.1 1677 312.1 1651.8 320.8 1628.6 330 1596.4 340.5 1582.7 345.6 1528.3 371.1 1484 392.2 1466.4 401.1 1370.9 439 1235.1 497 1233 492.4 1230.2 486.3 1225.2 478.9 1217 467.8 1210.7 459.9 1205.5 448.8 1198.7 435.7 1209.3 428.8 1215.1 425.5 1224.5 423.7 1234.2 423.1 1243.2 420.7 1264.7 409.3 1274.2 406.2 1283.6 404.5 1290.9 401.9 1307.1 393.3 1319.2 390.3 1329.1 385.7 1335.9 381.9 1340.6 377.9 1345.8 374.2 1418.9 354 1427.9 352.2 1438.2 349.7 1453.7 344.9 1504.6 319.8 1515.7 318.2 1564.6 306.8 1579.4 301.1 1589.1 296.3 1608.6 287.9 1617.8 284.8 1629.9 279.4 1647.1 273.4 1662.3 268 1678.3 264.2 1691.6 259.5 1712.9 249 1727.6 243.3 1751.4 233.8 1766.9 225.7 1781.1 220.3 1793.1 216.3 1808.4 209.3 1823.6 203.5 1834 198.8 1847.6 190.4 1860.5 185.1 1875.4 177.8 1890.8 170.4 1905.5 160.3 1911 157.8 1923.3 154.3 1937 147.4 1948.4 143.1 1964.9 135.6 1979.6 129.3 1989.8 127 2000.5 123.9 2010.5 120.6 2023.8 115.8 2032.2 110.9 2049.6 99.1 2068.2 89 2084 80.4 2112 68.2 2158.4 49.8 2184.3 36.8 2199.7 32 2219.2 23.5 2248 11.4 2258.4 6.5 2264 1.1 2276.2 1 2278.4 61.4 2195.6 96.6 2137.6 118.9 2100 135.7 2064 151.8 2047.5 159.4 2064.3 210.7 2091.2 296.5 2029.6 321.3 1929.4 374.4 Z" data-holc_grade="B"/>
<path d="M 452.3 1187.7 343.9 1190.2 301.7 1191.8 244.6 1194.6 181.7 1196.7 160.3 1197.9 126.8 1199 57.2 1199.3 57 1199.5 58.2 1098.5 55.3 1097.5 4.5 1132 1 1015.7 9.9 1015.3 30.5 1009.7 64.3 998.4 79.1 990.6 90.3 980.6 97.1 975.2 106.7 969.6 126.3 961.8 164.3 942.2 198.9 925.9 200.3 964.9 201.5 980.2 203.4 985.3 206.3 991 209.8 995.2 240.1 976.6 245.9 974.5 250.3 973.5 254.4 974.4 259.3 980.7 260.7 985 260.9 1008.1 264 1017.1 263.7 1024.2 262.8 1044.3 263.4 1066.6 264.6 1071.3 266.8 1074.4 341.8 1073.5 340.7 918.9 339.8 905 340.1 841.2 392.9 804 401.4 798.2 409.7 794 418.1 788.1 432.3 778.9 470.5 825.9 476.3 831.2 477.6 835.6 477.8 887.3 476.7 925.1 475.3 982 472.3 1097.3 469.8 1183.1 468.2 1186.2 459.4 1187.5 452.3 1187.7 Z" data-holc_grade="B"/>
<path d="M 925.9 1798.5 926.3 1751 906.9 1745 890.5 1742.8 891.5 1725.3 861.4 1724.6 726.6 1721.1 632.8 1717.3 585.1 1715.3 585.1 1644.8 667.7 1643.1 667.3 1616.8 719.2 1616.6 797.5 1619 892.9 1621.5 929.2 1623.4 926.5 1740.2 1010.5 1740.8 1011.2 1736.7 993.8 1609.4 1002.7 1608 1002.9 1599.2 1017.4 1597.7 1041 1593.7 1064.3 1593.5 1066 1615.4 1068.4 1633.8 1074.1 1667.8 1077.4 1695.6 1080.1 1730.6 1084.9 1767.4 1086.9 1777.9 1092.2 1790.9 1095.2 1802.7 1080.3 1803.6 1064.7 1802.7 1033.7 1801.6 970.8 1802.2 925.9 1798.5 Z" data-holc_grade="B"/>
</g>
<g id="C">
<path d="M 1592.8 548.3 1565.1 563.1 1562.5 564.3 1552.5 549 1551.2 542.6 1543.3 528.2 1533.4 506.1 1519.1 473.2 1499.6 431.3 1484 392.2 1528.3 371.1 1582.7 345.6 1596.4 340.5 1628.6 330 1651.8 320.8 1677 312.1 1695 304.1 1703.6 300.7 1721.7 294.4 1760 279.2 1833.6 249.9 1847.6 244.4 1903.1 221 1907.4 236.8 1911.1 251.6 1913.7 264 1916.3 276.6 1919.3 289 1924.1 321.1 1926.5 339.8 1928.7 357.4 1929.4 374.4 1897.2 386.3 1868.7 399.6 1791.4 439.9 1747.8 463.9 1678.5 501.4 1592.8 548.3 Z" data-holc_grade="C"/>
<path d="M 1562.5 564.3 1539.7 575.5 1479.1 601.2 1393.4 647.3 1393.3 647.3 1389.3 823.9 1385.1 824.1 1315.8 798.4 1245.6 769.4 1241.6 765.6 1236.1 756.1 1211.5 716.2 1117.5 660 1112.6 655.5 1109.8 651.6 1100.9 629.4 1077.4 572.3 1072.3 563.6 1026.7 580.5 942.6 614.2 931.9 614.6 919.3 613.6 912.6 611.5 905.1 606.6 900 601.9 891.8 594.5 831.5 550.8 839.2 547.3 850.9 543.1 861 541.6 871.2 537.5 884.2 531.4 894 527.6 906.9 524.1 919.1 521.2 928.3 519.6 934.9 516.8 945.3 511.7 951.4 509.5 960.7 507.4 970.5 505.2 978.7 503.6 986.3 501.5 1008.7 501.1 1023.2 495 1037.1 484.7 1051.4 479.1 1070.7 472.5 1083.3 469.4 1101.3 464.8 1109.4 462 1123 455.6 1134.4 452.4 1147.8 449.6 1162.1 446.7 1170 444.5 1180.3 442.2 1186.9 440.9 1198.7 435.7 1205.5 448.8 1210.7 459.9 1217 467.8 1225.2 478.9 1230.2 486.3 1233 492.4 1235.1 497 1370.9 439 1466.4 401.1 1484 392.2 1499.6 431.3 1519.1 473.2 1533.4 506.1 1543.3 528.2 1551.2 542.6 1552.5 549 1562.5 564.3 Z" data-holc_grade="C"/>
<path d="M 602.5 758.2 602.8 825.1 599.7 950.2 599 973.7 599.5 1000.9 599.6 1010.2 599.2 1047.2 598.3 1061.5 598.5 1090.4 599.2 1102.6 598.7 1139.9 597.1 1181.8 482.3 1218.1 452.3 1187.7 459.4 1187.5 468.2 1186.2 469.8 1183.1 472.3 1097.3 475.3 982 476.7 925.1 477.8 887.3 477.6 835.6 476.3 831.2 470.5 825.9 432.3 778.9 465.3 753.3 471.5 746.5 479.4 740.8 495.4 730.3 512.3 752 556.3 724.6 564.7 720.7 586.6 752.7 593.6 755.7 602.5 758.2 Z" data-holc_grade="C"/>
<path d="M 745.9 741.5 755.5 777.2 762 807.8 769.1 834.1 771.9 846.1 772.1 852.5 776.1 867.6 776.1 874.2 778.1 880.3 778.7 886.4 781.1 902.4 782.4 912.9 783.5 918.2 784.4 934.8 784.2 952.1 786.2 967.9 786.4 992 787.3 997 786.8 999 599.5 1000.9 599 973.7 599.7 950.2 602.8 825.1 602.5 758.2 628.8 749.5 737.8 720.4 741.4 722.1 745.4 739.5 745.9 741.5 Z" data-holc_grade="C"/>
<path d="M 597.1 1181.8 598.7 1139.9 599.2 1102.6 598.5 1090.4 598.3 1061.5 599.2 1047.2 599.6 1010.2 599.5 1000.9 786.8 999 787.3 997 786.4 992 786.2 967.9 784.2 952.1 784.4 934.8 783.5 918.2 782.4 912.9 781.1 902.4 778.7 886.4 778.1 880.3 776.1 874.2 776.1 867.6 772.1 852.5 771.9 846.1 769.1 834.1 762 807.8 755.5 777.2 745.9 741.5 809.9 723.5 826.5 747 842.1 770.1 922 885.5 985.7 978.7 931.8 1013.7 938.8 1024.5 918.3 1038.4 851.1 1079.5 790.4 1118.2 776.3 1127.2 734 1141.2 708.6 1150 676.4 1159.9 658.9 1164.6 629.6 1173 597.1 1181.8 Z" data-holc_grade="C"/>
<path d="M 776.3 1197.6 775.2 1265 775.2 1290 773.8 1360.7 772.9 1421.2 772.5 1444.2 771.6 1496.1 594.6 1494.2 594.4 1531 540.3 1531.9 476.6 1530.8 477.5 1453 340.9 1455.1 340.9 1287.9 605.7 1196.9 683.1 1198.9 729.3 1198.4 776.3 1197.6 Z" data-holc_grade="C"/>
<path d="M 1170.6 1467.6 1131.5 1473.4 1101.3 1476.5 1072.9 1479.9 1057.7 1483.2 1034.6 1485.2 1022.4 1488 986.8 1492.7 930.3 1499.8 930.3 1497.4 798.7 1496.3 771.6 1496.1 772.5 1444.2 772.9 1421.2 773.8 1360.7 775.2 1290 775.2 1265 776.3 1197.6 776.5 1160.3 914.1 1160.6 914.8 1111.1 900.1 1089.2 1012.4 1014.7 1037.7 1049.8 1115.9 1160.4 1133.9 1186.2 1136.6 1211.6 1139 1224.3 1144.3 1268.1 1147.5 1293.3 1152.8 1333.4 1160.5 1390.5 1165.3 1425.3 1170.6 1467.6 Z" data-holc_grade="C"/>
<path d="M 993.8 1609.4 991.2 1609.8 964.2 1613 929.2 1620.7 930.3 1499.8 986.8 1492.7 1022.4 1488 1034.6 1485.2 1057.7 1483.2 1072.9 1479.9 1101.3 1476.5 1131.5 1473.4 1170.6 1467.6 1176.8 1531.3 1185.1 1606.7 1186.4 1617.2 1188 1625.3 1189.1 1636 1190.6 1652.2 1240.3 1650.3 1246.9 1699.8 1248.2 1712.3 1249.5 1724.3 1255.9 1756.3 1260.3 1780.8 1265.5 1811.5 1269.1 1834.2 1271.9 1857.5 1278.1 1901.5 1280.7 1920.3 1282.7 1942 1284.2 1964.4 1286 1982.3 1289 2004.4 922.8 2005.5 923.4 1982.7 924.5 1953.1 925.9 1798.5 970.8 1802.2 1033.7 1801.6 1064.7 1802.7 1080.3 1803.6 1095.2 1802.7 1092.2 1790.9 1086.9 1777.9 1084.9 1767.4 1080.1 1730.6 1077.4 1695.6 1074.1 1667.8 1068.4 1633.8 1066 1615.4 1064.3 1593.5 1041 1593.7 1017.4 1597.7 1002.9 1599.2 1002.7 1608 993.8 1609.4 Z" data-holc_grade="C"/>
<path d="M 2584.9 1747.2 2584.8 1757.2 2531.1 1758.2 2479.2 1759.5 2428.7 1761.2 2365.8 1764.1 2367.6 1871.7 2368.5 1911.3 2369.5 1935.5 2418.2 1932.7 2480 1931.3 2605.2 1930.8 2605.3 1936.1 2606 1978.2 2516.5 1977.9 2435.3 1978.9 2358.9 1978.6 2315.2 1980.2 2253.2 1981.7 2198.6 1983.4 2160.7 1985.8 2103.7 1987.8 2092.8 1987.9 2094.8 1970.8 2093.9 1944.8 2092.3 1915.8 2088.8 1818.5 2129 1817.8 2129.9 1814.5 2125.2 1633.6 2578.5 1622.3 2579.9 1658 2580.8 1690.8 2582.8 1722.1 2584.9 1747.2 Z" data-holc_grade="C"/>
</g>
<g id="D">
<path d="M 602.5 758.2 593.6 755.7 586.6 752.7 564.7 720.7 596 707.2 603.4 705.9 605.7 703.7 607.2 662.7 631.8 654.8 643.9 651.6 653 650.3 699.9 637.3 737.2 713.8 737.8 720.4 628.8 749.5 602.5 758.2 Z" data-holc_grade="D"/>
<path d="M 1389.3 823.9 1393.3 647.3 1393.4 647.3 1393.9 647.6 1393.9 647.5 1393.4 647.3 1479.1 601.2 1539.7 575.5 1562.5 564.3 1565.1 563.1 1592.8 548.3 1594.1 559.4 1595.7 593.5 1597 630 1595.9 640 1594.2 692 1592.4 740.6 1591.3 792.8 1591.1 817.7 1591.7 835.6 1537.8 834 1483.1 831.8 1430.2 829.2 1414 828.4 1395.4 828.5 1389.3 823.9 Z" data-holc_grade="D"/>
<path d="M 2081.3 847.5 2081.5 847.5 2081.3 847.7 2081.3 847.5 Z M 2081.3 847.5 1865.4 842.9 1775.3 840.6 1775.1 832.5 1778.6 816.5 1781.9 714.7 1783.3 684.6 1779.1 663.4 1866.7 663.4 1936.1 667 1937.5 619.2 1936 591.7 1933.7 566.7 1929.4 538.4 1928 526.7 1949.6 525.1 1972.1 526.7 2007.3 529.1 2032.2 531.1 2051.4 531.6 2078.2 531.9 2081.2 453.3 2231.8 452.8 2231.3 541.3 2151.6 540.9 2092 537.8 2089.5 577.1 2087.7 621.7 2084.5 701.1 2081.4 805.6 2081.3 847.5 Z" data-holc_grade="D"/>
<path d="M 1289 2004.4 1286 1982.3 1284.2 1964.4 1282.7 1942 1280.7 1920.3 1278.1 1901.5 1271.9 1857.5 1269.1 1834.2 1265.5 1811.5 1260.3 1780.8 1255.9 1756.3 1249.5 1724.3 1248.2 1712.3 1246.9 1699.8 1240.3 1650.3 1331 1651.3 1352.9 1648.7 1390.8 1646.4 1408.7 1645.6 1429.1 1645.8 1449.2 1673.4 1482.2 1714.4 1508.2 1745.5 1522.1 1766.6 1532.8 1781.4 1540.8 1796.8 1554 1817.9 1571.4 1843.1 1584.8 1861.7 1595.3 1875.8 1612.1 1894.6 1622.6 1907.4 1641.4 1927.4 1649.9 1936.4 1660.5 1950.6 1669.3 1965 1677.5 1977.6 1686.1 1989.9 1686.3 1996.1 1289 2004.4 Z" data-holc_grade="D"/>
<path d="M 1617.1 1643.2 1617 1643.2 1616.9 1642.9 1617.1 1643.2 Z M 2088.8 1818.5 2092.3 1915.8 2093.9 1944.8 2094.8 1970.8 2092.8 1987.9 1842.6 1992.4 1835.7 1980.2 1814.3 1944.2 1793.4 1908.8 1771.8 1878 1746.4 1840.4 1734.1 1821.4 1721.2 1800.6 1709.9 1781.9 1698.5 1764.5 1678 1734.7 1617.1 1643.2 1771.7 1641.1 1772.9 1673.2 1774 1686 1775.7 1719 1776.4 1734.9 1778.3 1796.7 1778.3 1816.1 1780.1 1844.7 1781.9 1867.9 1840.2 1866.8 1840.4 1853 1839.3 1835.2 1838.5 1807.5 1838.8 1734.1 1837.8 1705.4 1836.9 1637.3 2055.9 1634.7 2055.6 1705 2055.2 1744.8 2056.1 1818.6 2088.8 1818.5 Z" data-holc_grade="D"/>
<path d="M 2605.3 1936.1 2605.2 1930.8 2602 1908.5 2601.3 1893 2602.4 1853.7 2603 1801.2 2601.7 1757.4 2584.8 1757.2 2584.9 1747.2 2624.9 1745.7 2620.6 1618 2623.1 1609.4 2624.6 1602.6 2624.7 1585.8 2685.7 1584.9 2781.8 1583.1 2905.6 1580 2907 1625.4 2906.1 1659.1 2906.3 1696.5 2906.3 1717.9 2907.2 1740.9 2938.6 1737.5 2957.3 1735.3 2976.1 1735.7 2997.2 1735.7 2997.8 1784.3 2998 1819.7 2999 1839.1 2980.4 1845.9 2970 1850.5 2963.2 1856.5 2958.6 1865.1 2955.9 1875.5 2953.1 1885.2 2952.4 1893.6 2951.7 1900.4 2950.8 1927.3 2821.1 1930.8 2797.6 1931.8 2767.5 1932.8 2739.7 1933.8 2605.3 1936.1 Z" data-holc_grade="D"/>
</g>
</svg>