<?xml version="1.0"?>
<svg xmlns="http://www.w3.org/2000/svg" version="1.2" baseProfile="tiny" width="3000" height="2512" viewBox="0 0 3000 2512" stroke-linecap="round" stroke-linejoin="round">
<g id="A">
<path d="M 1279.5 1066.5 1256.6 1060 1241.3 1061.7 1223.1 1059.6 1207.4 1057.4 1209.1 969.6 1208.7 960.4 1204 949.4 1193.4 927.8 1190.5 918.1 1170.6 876.8 1164.2 859.5 1201.1 889.4 1235.4 915.2 1265.9 932.1 1301.1 944.3 1321 948.1 1329.5 947.7 1339 947.7 1338 951.9 1334.8 974 1332.9 990.5 1324.7 1004.4 1313.2 1020.3 1301.2 1034.2 1286.5 1047.5 1279.5 1066.5 Z M 1120.6 843.2 1093 844 1096.9 826.7 1113 802.7 1117.2 795.1 1124.8 779.5 1129.9 769.8 1133.7 761.3 1143.5 765.1 1166.4 770.2 1172.3 773.6 1172.3 782.4 1168.1 791.7 1156.6 822.1 1148.1 842.8 1120.6 843.2 Z M 1177 441.4 1192.3 449.9 1209.2 461.7 1207.1 471 1210.9 476 1227.4 487.9 1240.1 498 1246.5 509 1246.9 519.5 1245.2 528.8 1254.1 531.3 1238.4 572.3 1224.4 573.1 1200.3 577.3 1196.1 576.9 1191.8 560 1177.4 557.5 1154.1 538.5 1140.6 522.4 1129.1 503.9 1124.5 495.9 1120.7 487.4 1140.6 466.7 1150.3 446.9 1155.8 449.4 1168.1 429.2 1177 441.4 Z M 1458.8 810.7 1446.1 818.3 1437.2 831 1432.7 849.3 1430.2 865.1 1423.8 878.4 1414.9 892.4 1402.9 902.5 1387 891.7 1377.4 884.1 1366 878.4 1351.4 904.4 1345.4 918.8 1315.8 916.2 1293.6 912 1270.8 905.1 1255.4 899.3 1236.4 889.8 1225.2 882.4 1211.6 869.6 1194.3 856.4 1178 842.3 1198.4 806.8 1205.5 790.6 1211.6 762.2 1208.6 743 1212.6 717.7 1210.6 702.5 1217.7 685.2 1240.1 640.7 1255.4 591 1282.8 510 1315.4 444.2 1334.7 391.5 1357.1 404.7 1369.3 389.5 1408.9 425 1405.9 450.3 1397.7 469.5 1384.5 479.7 1409.9 496.9 1426.2 490.8 1440.4 493.8 1458.7 506 1466.9 520.2 1476 539.4 1490.2 517.1 1507.5 480.7 1515.8 470.4 1509.7 448.1 1516.7 432.1 1516.7 410.8 1516.7 391.5 1515.7 381.4 1516.7 354.1 1530.9 340.9 1546.2 321.7 1561.4 307.5 1572.6 288.2 1585.8 272 1585.8 262.9 1581.7 253.8 1575.6 244.7 1596 180.9 1557.3 176.9 1554.3 166.7 1554.3 152.6 1557.3 139.4 1560.4 126.2 1515.7 107 1525.8 72.6 1516.7 63.4 1499.4 54.3 1755.5 12.8 1757.8 37.5 1755.7 44.6 1753.6 52.7 1742.6 61.1 1737.9 69.1 1733.7 76.3 1729.4 86.4 1720.1 97 1709.5 112.2 1693.9 128.2 1692.6 145.5 1695.6 156.5 1699 166.2 1698.5 191.1 1696 211.3 1696 226.5 1693.5 237.1 1693.5 251 1696 263.2 1700.7 280.5 1701.5 296.5 1697.3 308.8 1685 328.9 1677.9 367.4 1677.9 399.8 1666.8 407.9 1660.7 448.4 1646.4 479.8 1630.2 500.1 1619 541.6 1608.8 581.1 1570.2 606.4 1565.1 632.8 1559 653 1558 672.3 1560 692.5 1557.6 706.9 1552.3 718.5 1530.6 730.2 1518.4 744.4 1507.2 758.6 1490.8 775.5 1479.7 791.9 1458.8 810.7 Z" data-holc_grade="A"/>
<path d="M 2357.7 125.9 2299.5 169.7 2298.4 180.8 2296.8 187.1 2287.3 194 2260.3 210.8 2244.4 170.8 2202.6 179.2 2161.8 182.9 2160.2 156 2154.9 149.2 2144.9 145.5 2149.6 127.6 2158.6 80.2 2162.8 57 2166 16.4 2314.7 1 2340.7 76.9 2357.7 125.9 Z" data-holc_grade="A"/>
<path d="M 2260.3 210.8 2287.3 194 2296.8 187.1 2303.7 210.3 2268.8 231.9 2260.3 210.8 Z" data-holc_grade="A"/>
<path d="M 2245.4 450.5 2250.5 451.7 2254.9 449.8 2257.5 448.6 2267 441 2278.4 430.8 2286 416.3 2293 409.9 2305.7 404.2 2310.2 408.7 2317.8 415 2325.4 396.6 2328 391.6 2338.1 396 2341.9 393.4 2355.3 391.5 2361.6 398.5 2368 416.8 2364.8 432 2356.6 437.1 2334.3 442.2 2307.7 488.4 2299.4 498.5 2270.2 517.5 2258.7 493.5 2249.8 477.7 2245.4 450.5 Z" data-holc_grade="A"/>
<path d="M 2491.6 1109.2 2480.6 1119.3 2468.8 1154.8 2446.7 1164.1 2413.7 1186.1 2378.9 1200.4 2351.8 1218.2 2320.5 1230.9 2335.7 1200.5 2336.5 1185.3 2336.5 1163.3 2332.3 1147.3 2330.6 1129.5 2332.3 1114.3 2336.5 1100 2342.4 1078.9 2346.6 1056.9 2350.9 1040 2350 1025.7 2355.9 1018.9 2361 1006.2 2360.2 993.6 2319.5 1018.1 2307.6 1029.9 2306 1035.8 2292.4 1062.9 2291.6 1057.8 2289.9 1043.4 2280.5 1035 2271.2 1035 2272.9 1028.2 2272 1009.7 2266.9 1002.9 2250.8 1002.1 2240.7 1008 2238.1 898.3 2206.8 916.9 2198.3 879.7 2187.3 885.6 2170.3 891.5 2162.7 896.6 2142.4 919.4 2114.3 868.8 2122 856.9 2127.9 846.8 2130.4 830.8 2131.3 813.9 2133 800.4 2132.1 776.7 2133.8 768.3 2135.5 753.9 2138 744.6 2140.6 736.2 2132.9 727.8 2067.7 769.2 2038.9 782.7 2038.9 775.9 2035.5 773.4 2028.7 778.5 2011.8 791.1 1983.8 806.3 1964.8 781.4 1964.8 772.1 1960.5 756.9 1963.1 740 1963.9 722.3 1962.2 707.1 1958.8 669.9 1965.6 639.5 1975.7 621 1985.9 595.6 1996.1 566.9 2009.6 536.6 2029 520.8 2056.5 492.3 2064 462.2 2066.1 440.1 2061.8 423.2 2057 406.8 2056 386.3 2058.1 373.1 2062.3 358.3 2066.6 345.1 2079.8 325.4 2101 289 2106.8 263.7 2104.7 230.4 2105.7 208.3 2125.3 174.5 2144.9 145.5 2154.9 149.2 2160.2 156 2161.8 182.9 2202.6 179.2 2244.4 170.8 2260.3 210.8 2268.8 231.9 2303.7 210.3 2296.8 187.1 2298.4 180.8 2299.5 169.7 2357.7 125.9 2387.4 331.6 2412.4 463.9 2390.7 465.5 2378.5 475 2360 483 2353.6 487.7 2353.1 496.7 2352.6 512.5 2344.1 522 2333 528.9 2321.9 533.1 2317.7 537.3 2305 617.5 2299.7 657.6 2335.2 641.8 2372.3 627.5 2383.9 620.1 2396.1 613.8 2414.6 615.9 2436.9 619.6 2459.2 800 2446 814.2 2448.1 838.5 2471.5 991.5 2491.6 1109.2 Z M 2245.4 450.5 2249.8 477.7 2258.7 493.5 2270.2 517.5 2299.4 498.5 2307.7 488.4 2334.3 442.2 2356.6 437.1 2364.8 432 2368 416.8 2361.6 398.5 2355.3 391.5 2341.9 393.4 2338.1 396 2328 391.6 2325.4 396.6 2317.8 415 2310.2 408.7 2305.7 404.2 2293 409.9 2286 416.3 2278.4 430.8 2267 441 2257.5 448.6 2254.9 449.8 2250.5 451.7 2245.4 450.5 Z" data-holc_grade="A"/>
<path d="M 2142.4 919.4 2097.5 961.6 2095.8 1035.1 2065.3 1041 2025.4 1038.5 2052.6 1126.3 2102.6 1091.7 2170.4 1068.8 2240.7 1008 2250.8 1002.1 2266.9 1002.9 2272 1009.7 2272.9 1028.2 2271.2 1035 2280.5 1035 2289.9 1043.4 2291.6 1057.8 2292.4 1062.9 2306 1035.8 2307.6 1029.9 2319.5 1018.1 2360.2 993.6 2361 1006.2 2355.9 1018.9 2350 1025.7 2350.9 1040 2346.6 1056.9 2342.4 1078.9 2336.5 1100 2332.3 1114.3 2330.6 1129.5 2332.3 1147.3 2336.5 1163.3 2336.5 1185.3 2335.7 1200.5 2320.5 1230.9 2351.8 1218.2 2378.9 1200.4 2413.7 1186.1 2446.7 1164.1 2468.8 1154.8 2480.6 1119.3 2491.6 1109.2 2498.4 1114.2 2505.2 1142.1 2517.1 1235 2446.1 1276.4 2453 1295.9 2445 1304.4 2426 1317 2413.8 1339.7 2403.7 1351.4 2386.3 1366.2 2359.8 1380.9 2338.6 1384.7 2334.2 1386 2294.6 1398.4 2267.1 1406.3 2251.7 1418 2235.8 1426.4 2217.8 1435.9 2205.1 1441.2 2166.4 1468.1 2147.4 1479.8 2133 1440.7 2116.8 1447.7 2098.6 1451.1 2066.8 1457 2014.9 1466.5 1977.8 1477.1 1982 1458.1 1984.7 1443.8 1983.6 1434.8 1979.9 1429 1978.5 1410.4 1974.3 1396 1974.3 1374.1 1942.9 1378.3 1939.5 1369.9 1942.1 1343.7 1941.2 1319.2 1937 1305.7 1936.1 1293 1974.2 1281.2 1973.4 1248.3 1908.1 1264.3 1893.7 1268.5 1886.9 1274.5 1849.6 1286.3 1853.9 1267.7 1873.4 1223.8 1891.1 1186.6 1905.6 1166.4 1925 1147.8 1928.4 1134.3 1924.2 1128.4 1918.3 1125.8 1915.7 1118.2 1915.7 1108.9 1915.7 1105.6 1911.5 1100.5 1914.9 1087 1918.2 1074.3 1914 1058.3 1907.2 1045.6 1925 1002.6 1938.6 978.1 1962.3 926.6 1963.1 895.3 1958.9 869.2 1953.8 840.5 1953.8 820.2 1961.4 801.6 1964.8 781.4 1983.8 806.3 2011.8 791.1 2028.7 778.5 2035.5 773.4 2038.9 775.9 2038.9 782.7 2067.7 769.2 2132.9 727.8 2140.6 736.2 2138 744.6 2135.5 753.9 2133.8 768.3 2132.1 776.7 2133 800.4 2131.3 813.9 2130.4 830.8 2127.9 846.8 2122 856.9 2114.3 868.8 2142.4 919.4 Z" data-holc_grade="A"/>
<path d="M 1901.1 1756.3 1896.9 1730.7 1894.5 1715.6 1890.5 1690.4 1893.2 1685.7 1899.6 1681.3 1907.8 1679.6 1927.4 1674.2 1925.7 1660.7 1930.5 1648.2 1945.4 1626.9 1937.9 1627.3 1929.1 1630 1921.3 1632.3 1909.4 1636.4 1896.2 1640.1 1887.7 1638.1 1877.6 1630.6 1875.5 1623.9 1873.2 1613.4 1869.4 1596.5 1874.5 1585.3 2001.7 1562.6 2011.2 1615.9 2011.8 1634.9 2015 1649.1 2015.5 1658.6 2009.1 1667.6 2011.3 1681.3 2026.6 1717.8 1901.1 1756.3 Z" data-holc_grade="A"/>
<path d="M 2559.3 1602.2 2544.6 1618.1 2517.3 1576.9 2488.6 1531.3 2547 1462.7 2547.7 1476.8 2553.5 1549.7 2559.3 1602.2 Z" data-holc_grade="A"/>
<path d="M 2740.8 1646.2 2738.4 1660.7 2738.1 1673.9 2743.2 1684 2742.9 1690.3 2742.8 1692.8 2737.7 1700.9 2732 1698.5 2727.6 1688.7 2710.6 1700.9 2706.2 1705 2695.7 1713.4 2683.2 1721.2 2674 1731.4 2663.2 1743.2 2660.1 1755.4 2661.8 1763.1 2657.8 1769.5 2656.4 1783.7 2657.8 1796.9 2649.6 1805.4 2641.2 1814.5 2633.4 1820.3 2630 1817.6 2632.3 1801 2638.8 1790.9 2641.5 1784.1 2638.1 1780.4 2634 1777.7 2629.9 1773.6 2627.6 1767.5 2624.8 1760.1 2623.5 1752.3 2620.4 1747.3 2618.1 1747.3 2614.3 1749 2608.6 1748.6 2602.5 1747.6 2600.8 1745.3 2597.4 1738.2 2593.3 1735.1 2588.9 1728.7 2588.2 1723.3 2599 1705.1 2602.1 1699 2599.3 1691.3 2609.8 1682.1 2629.3 1670.7 2646.2 1655.5 2655.1 1633.5 2691.9 1634 2740.8 1646.2 Z" data-holc_grade="A"/>
<path d="M 2471.5 991.5 2448.1 838.5 2446 814.2 2459.2 800 2465.4 799.1 2467.9 805 2467.5 810 2473.4 822.3 2478.5 835.8 2487.9 847.2 2497.2 859.4 2505.2 869.5 2522.6 891.9 2534.5 907.1 2541.3 915.9 2546.4 918.5 2559.1 921 2564.6 926.9 2571.8 923.5 2581.5 911.7 2611.2 891.4 2633.2 873.7 2642.5 862.3 2648.9 847.5 2638.7 834.4 2635.3 823.4 2634.4 810.8 2629.8 797.7 2623.8 779.5 2621.7 760.5 2618.7 748.3 2622.5 741.1 2697.5 776.9 2712.4 787.9 2774.3 814 2875.2 861.2 2870.1 876.8 2821.9 971.4 2831.6 1001.8 2827 1007.3 2820.2 1012.4 2809.2 1023 2797.7 1014.5 2782.5 998.5 2774 966.4 2764.6 952.1 2740 946.6 2717.6 940.7 2685.8 929.8 2637.5 934.9 2616.3 958.1 2596.8 983 2589.2 984.7 2575.2 979.6 2545.6 980.1 2503.6 981.4 2471.5 991.5 Z" data-holc_grade="A"/>
<path d="M 406.1 712.6 396.7 751.7 363.3 839.8 334.2 826 333.1 818.1 291.8 798 296.1 773.8 290.2 767.4 282.8 772.2 264.3 763.2 276.5 737.3 293.5 707.8 302.5 692 311 671.9 335.3 679.9 345.4 682 384 706.8 406.1 712.6 Z" data-holc_grade="A"/>
<path d="M 1303 1249.4 1307 1256.9 1308 1270.1 1305.9 1294.9 1285.2 1348.2 1283.7 1357.4 1273 1363.5 1255.6 1369.4 1232.2 1375.7 1211.6 1377.8 1179.8 1377.3 1156 1372 1136.9 1367.2 1119.4 1362.5 1123.6 1353.5 1133.7 1338.2 1148.5 1316 1157.6 1313.4 1164.4 1304.4 1171.3 1300.7 1153.8 1302.3 1142.7 1294.9 1134.2 1291.2 1125.8 1283.8 1126.8 1278 1129 1268.5 1124.2 1265.4 1113.1 1263.2 1102.5 1259.5 1086 1250 1077.6 1243.2 1069.6 1235.8 1053.7 1252.1 1043.7 1268 1039.9 1287 1018.2 1278 1001.8 1269 985.9 1270.6 990.2 1244.2 1001.8 1217.8 1020.9 1180.9 1035.2 1159.3 1046.3 1148.2 1056.4 1135 1063.3 1125.5 1072.8 1102.8 1074.4 1084.9 1051.7 1056.4 1057.5 1043.2 1061.2 1028.4 1061.2 1012 1057.5 1000.4 1061.2 987.8 1077.6 969.8 1164.2 859.5 1170.6 876.8 1190.5 918.1 1193.4 927.8 1204 949.4 1208.7 960.4 1209.1 969.6 1207.4 1057.4 1223.1 1059.6 1241.3 1061.7 1256.6 1060 1279.5 1066.5 1278.9 1090.3 1276.2 1095.7 1273.5 1102.8 1266.4 1108.9 1260.6 1116 1257.6 1123.1 1261.3 1194.7 1263 1213.6 1271.8 1229.5 1282.6 1239.3 1293.8 1245.4 1303 1249.4 Z M 1303 1249.4 1311.5 1252.1 1321.8 1261.7 1303 1249.4 Z M 1324.5 1335.1 1332.8 1322.9 1329 1331.4 1324.5 1335.1 Z M 1324.5 1335.1 1317.5 1341.1 1305.3 1346.3 1324.5 1335.1 Z" data-holc_grade="A"/>
<path d="M 99.9 1540.5 93.7 1623.2 73 1648.2 61.8 1665.8 51.6 1686.4 43.8 1696.5 43.6 1701.1 37.3 1698.3 26.1 1686.5 15.6 1672.9 1 1661.4 10.2 1648.6 15.9 1642.5 39.1 1590.2 47.6 1562.5 64.2 1530.1 99.9 1540.5 Z" data-holc_grade="A"/>
<path d="M 133.3 1729.7 163.5 1724 185.2 1729.7 200.4 1738.2 203.1 1827.7 124.4 1796.9 133.3 1729.7 Z" data-holc_grade="A"/>
<path d="M 1605.7 1238.9 1612.9 1259.2 1618 1270.6 1619.3 1275.7 1594.7 1281.6 1566.7 1288.3 1535.4 1297.2 1526.1 1295.5 1512.5 1282.4 1496 1288.3 1480.7 1293.8 1461.6 1295.5 1429.4 1291.3 1414.6 1286.2 1407 1285.4 1401.9 1282.4 1398.9 1282 1397.4 1287.9 1380.7 1282.4 1321.8 1261.7 1337.6 1253.6 1358 1244.8 1364.1 1242.2 1375.8 1237.2 1386.6 1230.8 1384.7 1226.4 1380.2 1215 1372.6 1184 1370 1143.4 1357.3 1112.4 1370.7 1099.7 1373.9 1081.4 1384 1067.5 1385.3 1052.9 1386.6 1037.1 1396.1 1030.1 1400.6 1025.7 1404.4 1013 1410.7 1004.1 1424.7 992.1 1431.1 980.1 1451.4 982.6 1458.6 986.8 1509.9 1016.8 1525.2 986.4 1536.6 964.2 1551.2 953.5 1567.1 987.7 1578.6 1011.1 1580.5 1032.6 1579.2 1054.2 1577.3 1075.1 1577.3 1109.3 1574.1 1133.3 1577.9 1161.2 1585.6 1181.4 1593.8 1202.3 1602.7 1223.9 1605.7 1238.9 Z" data-holc_grade="A"/>
<path d="M 1676.9 1261.7 1687.5 1288.8 1693.5 1300.6 1699.8 1309.9 1702.4 1315.4 1707 1325.1 1717.2 1339.8 1735 1369 1734.6 1386.7 1733.3 1405.3 1727.5 1415.8 1715.9 1411.6 1621 1375.3 1579.5 1353.8 1562.9 1346.6 1516.7 1326.8 1397.4 1287.9 1398.9 1282 1401.9 1282.4 1407 1285.4 1414.6 1286.2 1429.4 1291.3 1461.6 1295.5 1480.7 1293.8 1496 1288.3 1512.5 1282.4 1526.1 1295.5 1535.4 1297.2 1566.7 1288.3 1594.7 1281.6 1619.3 1275.7 1618 1270.6 1612.9 1259.2 1605.7 1238.9 1644.3 1225.9 1667.2 1214.5 1668 1241.5 1672.3 1247.4 1676.9 1261.7 Z" data-holc_grade="A"/>
<path d="M 1727.5 1415.8 1761.7 1428.1 1787.2 1439.9 1843.9 1465.4 1838.7 1466.6 1830.2 1484.3 1818.8 1495.3 1802.7 1513 1789.1 1527.8 1785.7 1547.2 1770.5 1596.6 1752.7 1606.8 1745.9 1622.4 1744.8 1624.5 1729.1 1617.6 1714.7 1611.4 1698.6 1603.8 1687.6 1601.6 1668.1 1599.5 1649.4 1597.8 1632 1595.7 1626.9 1630.8 1629.1 1632.1 1637.5 1635.4 1623.6 1684 1642.6 1693.7 1631.2 1718.6 1596.9 1708.5 1583.3 1706.8 1563.4 1706 1540.9 1702.2 1510.4 1697.5 1491.7 1697.5 1485.4 1673.9 1484.9 1659.1 1488.3 1635.9 1489.6 1607.1 1459.9 1593.2 1441.3 1584.8 1425.6 1574.2 1412 1573.4 1405.2 1485.5 1387.9 1487.6 1376 1488.5 1369.2 1485.1 1357.3 1480.9 1348 1479.2 1349.3 1470.7 1353.5 1455.1 1368.4 1415.4 1351 1405.7 1328.9 1400.2 1324.3 1409.9 1316.7 1423 1313.3 1434.4 1310.3 1442.4 1256.5 1414.1 1275.1 1372.3 1273 1363.5 1283.7 1357.4 1305.3 1346.3 1317.5 1341.1 1324.5 1335.1 1329 1331.4 1332.8 1322.9 1331.5 1311.5 1321.8 1287.5 1321.8 1261.7 1380.7 1282.4 1397.4 1287.9 1516.7 1326.8 1562.9 1346.6 1579.5 1353.8 1621 1375.3 1715.9 1411.6 1727.5 1415.8 Z" data-holc_grade="A"/>
<path d="M 2109.5 2382.7 2123.2 2402 2119.5 2407.8 2113.1 2412.8 2112.1 2418.9 2110.7 2426.7 2084.3 2482.8 2069 2511.2 1887.8 2453.1 1891.2 2440.3 1894.9 2430.1 1901 2422.4 1913.2 2407.5 1917.3 2405.5 1918.6 2394.3 1916.9 2385.9 1921.3 2378.1 1922.7 2370.3 1925.4 2362.2 1927.1 2356.4 1933.9 2342.9 1938.6 2328.7 1943.4 2316.6 1946.4 2311.8 1993.9 2331.4 2005.8 2339.5 2036.3 2280 2109.5 2382.7 Z" data-holc_grade="A"/>
</g>
<g id="B">
<path d="M 2704.2 1616.7 2707.5 1616.5 2719.4 1619.8 2735 1625.2 2741.1 1630.6 2740.8 1646.2 2691.9 1634 2655.1 1633.5 2658.4 1618 2673.2 1616.1 2684.8 1617.8 2704.2 1616.7 Z" data-holc_grade="B"/>
<path d="M 363.3 839.8 340.5 892.5 324.6 925.7 295.9 1003.3 231.8 975.3 238.2 899.8 254.7 793.8 264.3 763.2 282.8 772.2 290.2 767.4 296.1 773.8 291.8 798 333.1 818.1 334.2 826 363.3 839.8 Z" data-holc_grade="B"/>
<path d="M 1894.5 1715.6 1896.9 1730.7 1882.7 1736.1 1862 1742.5 1856.6 1743.2 1851.8 1744.2 1844 1746.2 1816.9 1732 1832.8 1696.5 1843.7 1703 1851.5 1706.3 1862.3 1711.4 1869.4 1713.1 1878.6 1716.5 1882.7 1717.8 1894.5 1715.6 Z M 1357.3 1112.4 1344 1099.7 1324.3 1099.1 1319.8 1085.2 1324.3 1064.9 1330.6 1042.1 1337 1023.8 1352.3 999.7 1368.2 983.9 1396.1 951.6 1431.1 980.1 1424.7 992.1 1410.7 1004.1 1404.4 1013 1400.6 1025.7 1396.1 1030.1 1386.6 1037.1 1385.3 1052.9 1384 1067.5 1373.9 1081.4 1370.7 1099.7 1357.3 1112.4 Z" data-holc_grade="B"/>
<path d="M 1726.5 963.5 1726.7 963.6 1729.8 977.5 1733 989.6 1735.6 998.4 1739.4 1007.3 1742.6 1013 1750.8 1018.7 1762.3 1021.8 1771.8 1022.5 1775 1026.9 1779.4 1043.4 1778.8 1061.7 1777.5 1078.2 1778.2 1089 1787.1 1104.2 1793.4 1121.9 1775 1127.6 1750.2 1133.3 1721.6 1137.7 1705.1 1141.5 1699.3 1142.2 1698.1 1146 1698.1 1154.2 1693 1161.2 1691.7 1167.5 1694.9 1178.3 1692.4 1184 1689.2 1182.1 1684.7 1177 1677.7 1178.3 1670.1 1178.9 1666.3 1183.3 1667.2 1214.5 1644.3 1225.9 1605.7 1238.9 1602.7 1223.9 1593.8 1202.3 1585.6 1181.4 1577.9 1161.2 1574.1 1133.3 1577.3 1109.3 1577.3 1075.1 1579.2 1054.2 1580.5 1032.6 1578.6 1011.1 1567.1 987.7 1551.2 953.5 1568.4 947.1 1588.1 937.6 1598.9 925.6 1604.6 925 1642.1 940.2 1663.7 948.4 1685.3 953.5 1705 954.7 1724.1 962.3 1726.5 963.5 Z" data-holc_grade="B"/>
<path d="M 1839.3 1308.6 1818.5 1366 1800.7 1417.9 1787.2 1439.9 1761.7 1428.1 1727.5 1415.8 1733.3 1405.3 1734.6 1386.7 1735 1369 1717.2 1339.8 1707 1325.1 1702.4 1315.4 1699.8 1309.9 1693.5 1300.6 1687.5 1288.8 1676.9 1261.7 1689.2 1254.6 1711.7 1238.1 1733.7 1213.6 1760.4 1225.8 1773.6 1240.6 1789.7 1261.7 1815.1 1275.2 1821.9 1287.9 1828.7 1301.4 1839.3 1308.6 Z" data-holc_grade="B"/>
<path d="M 1843.9 1465.4 1787.2 1439.9 1800.7 1417.9 1818.5 1366 1839.3 1308.6 1867.3 1317.4 1887.6 1319.5 1902 1321.7 1909.2 1326.3 1913.9 1331.8 1917.3 1341.5 1917.3 1350.4 1913 1366.4 1904.6 1377.8 1858 1427.2 1848.2 1447.5 1844.8 1457.6 1843.9 1465.4 Z" data-holc_grade="B"/>
<path d="M 1631.2 1718.6 1636.5 1723.7 1617.4 1779.1 1594.1 1803.6 1575.7 1795.3 1531.7 1794.8 1510 1798.5 1489.8 1758.9 1458 1763.1 1453.3 1758.9 1445.8 1732 1436.3 1701.3 1428.3 1669.1 1378.5 1677 1350.4 1680.2 1274.7 1683.4 1260.9 1679.1 1256.6 1683.9 1219 1686.5 1207.9 1642.2 1245 1639.5 1263 1639.5 1265.7 1608.4 1271 1593.1 1273.1 1577.3 1267.8 1571.5 1245 1561.9 1223.8 1552.4 1215.9 1546.1 1243.4 1490.7 1227 1476.4 1256.5 1414.1 1310.3 1442.4 1313.3 1434.4 1316.7 1423 1324.3 1409.9 1328.9 1400.2 1351 1405.7 1368.4 1415.4 1353.5 1455.1 1349.3 1470.7 1348 1479.2 1357.3 1480.9 1369.2 1485.1 1376 1488.5 1387.9 1487.6 1405.2 1485.5 1412 1573.4 1425.6 1574.2 1441.3 1584.8 1459.9 1593.2 1489.6 1607.1 1488.3 1635.9 1484.9 1659.1 1485.4 1673.9 1491.7 1697.5 1510.4 1697.5 1540.9 1702.2 1563.4 1706 1583.3 1706.8 1596.9 1708.5 1631.2 1718.6 Z M 1316.6 1489.6 1275.2 1474.3 1268.9 1499.1 1265.2 1520.3 1266.7 1539.8 1274.2 1553.5 1280 1559.8 1290.6 1571.5 1316.6 1489.6 Z" data-holc_grade="B"/>
<path d="M 1744.8 1624.5 1735.3 1643.5 1728.5 1665.1 1734.9 1676 1732.7 1698 1732.7 1708.1 1730.9 1721.6 1729.8 1729.6 1722.1 1749.1 1704.8 1766.8 1701.8 1777.4 1700.9 1801 1700.1 1829.3 1698.4 1841.1 1692 1856.3 1687 1874.1 1692.5 1893.5 1698.4 1909.6 1699.3 1922.2 1699.3 1934.1 1696.7 1945.5 1611.9 1872 1601.7 1863.5 1575.4 1850.9 1561.9 1849.6 1554.2 1827.2 1594.1 1803.6 1617.4 1779.1 1636.5 1723.7 1631.2 1718.6 1642.6 1693.7 1623.6 1684 1637.5 1635.4 1648.3 1641.2 1676.1 1649.9 1693.8 1657.7 1702.3 1664.1 1709.4 1671.2 1729.1 1617.6 1744.8 1624.5 Z" data-holc_grade="B"/>
<path d="M 1458.7 2094.7 1452.9 2067.9 1443.4 2036.5 1440.3 2017.2 1436.3 2004 1437.3 1983.1 1438.6 1958.1 1441.4 1943.2 1443.7 1931 1449.8 1914.1 1451.5 1907.4 1566.9 1874.9 1577.7 1877.3 1592.3 1883 1605.9 1892.8 1646.3 1923.9 1668.3 1946.6 1694.7 1969.6 1689.3 1997.6 1682.8 2014.8 1678.8 2027 1673.7 2044.2 1661.2 2045.6 1649.3 2048.3 1639.1 2051.3 1629 2055.7 1617.8 2060.1 1607.3 2061.1 1593.7 2065.5 1581.8 2068.6 1568.9 2069.6 1557.7 2069.9 1540.8 2073.3 1523.8 2077.4 1525.8 2099 1521.8 2106.8 1514.6 2115.2 1498 2120.3 1479.4 2126.4 1466.1 2129.4 1458.7 2094.7 Z" data-holc_grade="B"/>
<path d="M 1467.1 2195 1464.8 2210.5 1455.3 2240.9 1447.8 2273.7 1440 2294 1429.1 2310.6 1328 2268.3 1330.4 2245 1339.6 2234.2 1350.1 2215.9 1340.9 2182.1 1348.7 2180.8 1362.3 2179.1 1368.1 2174 1388.8 2167.6 1408.1 2161.8 1421 2182.8 1431.9 2210.5 1433.9 2206.5 1438 2206.1 1445.8 2204.8 1467.1 2195 Z" data-holc_grade="B"/>
<path d="M 1744.8 1624.5 1745.9 1622.4 1752.7 1606.8 1770.5 1596.6 1785.7 1547.2 1789.1 1527.8 1802.7 1513 1818.8 1495.3 1830.2 1484.3 1838.7 1466.6 1843.9 1465.4 1854.9 1462.8 1874.5 1585.3 1869.4 1596.5 1861.2 1602.9 1838.3 1639.3 1826.9 1655.7 1823 1670.1 1817.1 1689.1 1800.6 1725 1774.7 1716.1 1754.4 1704.7 1732.7 1698 1734.9 1676 1728.5 1665.1 1735.3 1643.5 1744.8 1624.5 Z" data-holc_grade="B"/>
<path d="M 1901.1 1756.3 1905.8 1801.7 1910.1 1828.7 1917.5 1853.5 1919.6 1876.3 1926.4 1909.6 1897.2 1898.6 1860.6 1889.8 1837.8 1886.4 1794.8 1872.9 1766.3 1863.4 1769.3 1854 1771.7 1849.2 1772 1845.2 1771.3 1841.8 1782.9 1805.7 1806.3 1755.6 1842.2 1771.9 1862.9 1766.4 1901.1 1756.3 Z" data-holc_grade="B"/>
<path d="M 317.8 1092.5 317 1102 317 1110.4 313.8 1117.3 304.8 1117.8 302.6 1117.9 287.9 1118.8 269.3 1109.9 252.9 1096.1 242.3 1078.7 233.9 1056 232.8 1011.7 229.2 994.8 231.8 975.3 295.9 1003.3 324.6 925.7 340.5 892.5 363.3 839.8 396.7 751.7 406.1 712.6 414.7 677.2 467.2 686.9 473.1 695.4 457 728.3 431.5 786.9 420.5 822.8 415.8 844.8 377.2 920.7 368.3 946 358.1 963.8 353.4 986.5 350.5 996.7 342 1022 329.2 1054.1 317.8 1092.5 Z" data-holc_grade="B"/>
<path d="M 1926.4 1909.6 1930.8 1911.1 1935.2 1931.3 1938.3 1943.1 1940 1976.6 1948.5 2025.3 1947.6 2038.4 1943 2043.8 1862.3 2045.6 1831.4 2050 1803.3 2058.8 1782.9 2056.1 1770 2053 1762.2 2051.3 1744.6 2052.7 1730.3 2051.7 1713 2044.9 1689.3 2042.9 1673.7 2044.2 1678.8 2027 1682.8 2014.8 1689.3 1997.6 1694.7 1969.6 1701.5 1975.6 1725.9 1994.2 1735.1 1977.3 1748.6 1947.2 1753.4 1934.4 1754.7 1926.6 1754.7 1896.2 1766.3 1863.4 1794.8 1872.9 1837.8 1886.4 1860.6 1889.8 1897.2 1898.6 1926.4 1909.6 Z" data-holc_grade="B"/>
<path d="M 1887.8 2453.1 1677.5 2383.6 1687.6 2365.5 1681.3 2300 1695.3 2290.7 1714.4 2282.2 1732.2 2267.9 1750.4 2257.3 1765.2 2248.4 1811 2229 1900.1 2187.6 1923 2177.4 1930.2 2168.5 1928.5 2178.7 1928.5 2195.2 1931.5 2209.1 1937 2218 1945.1 2229 1949.7 2236.1 1954.4 2243.7 1954.8 2250.5 1953.6 2261.1 1951.9 2272 1943.8 2285.6 1938.3 2297.8 1936.6 2305 1946.4 2311.8 1943.4 2316.6 1938.6 2328.7 1933.9 2342.9 1927.1 2356.4 1925.4 2362.2 1922.7 2370.3 1921.3 2378.1 1916.9 2385.9 1918.6 2394.3 1917.3 2405.5 1913.2 2407.5 1901 2422.4 1894.9 2430.1 1891.2 2440.3 1887.8 2453.1 Z M 1947.6 2038.4 1954.8 2120.8 1934 2139.8 1910.6 2151.3 1884.8 2161.5 1856.3 2174 1814.9 2190.9 1788.8 2204.8 1750.5 2224 1725.7 2237.5 1715.9 2248 1659.9 2280.8 1659.5 2271 1656.1 2263.2 1655.8 2253.8 1655.5 2235.5 1652.7 2225.4 1646.6 2220.7 1641.9 2216.3 1648.3 2174.7 1651.7 2165.2 1659.5 2156.8 1663.6 2149 1663.6 2144.3 1663.6 2134.1 1668 2125.3 1669.7 2119.9 1669.7 2109.8 1667.7 2101 1667.3 2092.6 1668.7 2087.2 1672.4 2084.5 1674.8 2082.1 1673.4 2073 1670.7 2059.1 1671 2046.9 1673.7 2044.2 1689.3 2042.9 1713 2044.9 1730.3 2051.7 1744.6 2052.7 1762.2 2051.3 1770 2053 1782.9 2056.1 1803.3 2058.8 1831.4 2050 1862.3 2045.6 1943 2043.8 1947.6 2038.4 Z" data-holc_grade="B"/>
<path d="M 2143.8 1592.4 2133.2 1592 2122.2 1590.7 2114.6 1585.6 2050.1 1604.2 2028.1 1609.3 2033.2 1634.2 2037 1660.4 2040.8 1676 2044.2 1695.5 2043.4 1721.2 2038.7 1741.1 2033.7 1757.1 1999.7 1766.4 1982.4 1767.7 1954.8 1771.5 1954.8 1795.6 1960.7 1815.9 1967.5 1837 1968 1849.7 1972.2 1865.7 1919.6 1876.3 1917.5 1853.5 1910.1 1828.7 1905.8 1801.7 1901.1 1756.3 2026.6 1717.8 2011.3 1681.3 2009.1 1667.6 2015.5 1658.6 2015 1649.1 2011.8 1634.9 2011.2 1615.9 2001.7 1562.6 1874.5 1585.3 1854.9 1462.8 1870.8 1454.4 1885.1 1442.2 1902.6 1432.2 1912.6 1432.7 1933.8 1431.1 1954 1431.1 1979.9 1429 1983.6 1434.8 1984.7 1443.8 1982 1458.1 1977.8 1477.1 2014.9 1466.5 2066.8 1457 2098.6 1451.1 2099.1 1455.9 2102.3 1468 2105.5 1480.7 2113.5 1495 2119.3 1507.1 2129.4 1513.9 2140.5 1518.7 2144.2 1530.3 2144.8 1549.8 2142.6 1563.6 2141.1 1571.5 2141.1 1584.2 2143.8 1592.4 Z" data-holc_grade="B"/>
<path d="M 2147.4 1479.8 2166.4 1468.1 2205.1 1441.2 2217.8 1435.9 2235.8 1426.4 2251.7 1418 2267.1 1406.3 2294.6 1398.4 2334.2 1386 2339.8 1392.3 2348.7 1402.5 2346.6 1404.6 2337.2 1408 2305.9 1421.9 2273.7 1436.7 2288.9 1465 2277.5 1475.6 2262.3 1497.9 2258 1515.7 2259.7 1534.7 2242.4 1542.3 2218.2 1553.7 2192.8 1571 2162.3 1588.4 2160.5 1569.8 2162.2 1531.8 2161.8 1518.7 2155 1506 2152.9 1500.1 2150.8 1490.4 2147.4 1479.8 Z" data-holc_grade="B"/>
<path d="M 2409.8 1555.7 2362.4 1602.2 2340.3 1627.6 2309.8 1665.2 2296.3 1671.5 2282.3 1684.2 2275.5 1671.9 2237.8 1695.2 2230.1 1694.8 2223.8 1700.3 2216.1 1706.2 2206.4 1688.9 2198.7 1678.3 2188.6 1656.3 2180.9 1633.5 2174.1 1617.5 2167.3 1605.3 2162.3 1588.4 2192.8 1571 2218.2 1553.7 2242.4 1542.3 2259.7 1534.7 2258 1515.7 2262.3 1497.9 2277.5 1475.6 2288.9 1465 2311 1459.5 2323.7 1454 2331.7 1446.8 2341.1 1440.5 2359.3 1457.8 2374.6 1470.9 2381.4 1484.4 2387.3 1498.7 2395.8 1508 2401.3 1525.3 2405.6 1544.3 2409.8 1555.7 Z" data-holc_grade="B"/>
<path d="M 2547 1462.7 2488.6 1531.3 2517.3 1576.9 2544.6 1618.1 2505.4 1656.1 2497.5 1663.7 2479.2 1673.1 2464.2 1688 2456.3 1699.9 2451.7 1706 2424.8 1741.8 2403.2 1761.3 2370.4 1771.7 2345.4 1726.1 2364.5 1708.3 2394.5 1693.6 2391.4 1687.3 2389.1 1677.9 2389.4 1667.5 2389.4 1657.1 2393.7 1643.7 2393.7 1628.5 2395.2 1611.8 2390.5 1590.6 2390.1 1589 2406.4 1572.3 2425.9 1557 2430.5 1551.2 2438.9 1543.4 2473.7 1506.8 2485.4 1490.8 2528.6 1451.5 2545.8 1436.9 2547 1462.7 Z" data-holc_grade="B"/>
<path d="M 2123.2 2402 2109.5 2382.7 2145.5 2344.5 2167.1 2319.7 2159.4 2305.2 2148 2298.8 2123.8 2266.5 2110.5 2238.6 2138.9 2228.9 2165.6 2219.6 2151.2 2187.9 2183.4 2168 2206.7 2153.7 2173.2 2095.4 2175.3 2086.5 2137.7 2033.9 2148.1 2022.3 2155.3 2009.2 2159.1 1999 2175.2 1980.9 2210.4 1957.2 2257.4 1916.2 2302.8 1882.4 2311.3 1897.6 2315.9 1909.8 2324 1923.8 2332.9 1939 2342.3 1947 2358 1966 2369.8 1976.6 2386.4 1991.3 2398.7 1968.5 2405 1947.4 2414.6 1948.5 2430.5 1939.7 2440.7 1923.5 2455.2 1916.4 2461.7 1910 2472.9 1898.5 2481.3 1887.3 2488.5 1876.2 2507.5 1883.9 2518 1895.1 2518.7 1900.8 2513.2 1903.5 2506.1 1902.2 2501.4 1904.6 2508.5 1910.3 2512.9 1913.7 2512.9 1919.4 2514.9 1926.5 2519 1929.9 2518.7 1938 2510.5 1939.7 2502.7 1942.4 2496.3 1942.4 2495.3 1946.8 2494.9 1954.2 2491.6 1960.7 2487.8 1965.7 2490.2 1971.8 2503.4 1981.3 2512.9 1986.3 2527.9 1988.3 2535.3 1988.3 2537.4 1992.1 2535 1997.1 2534.3 2001.9 2541.8 2003.9 2551.3 2004.9 2564.2 2007.6 2579.5 2009.6 2583.5 2014.7 2581.8 2021.4 2575.7 2028.5 2567.9 2038 2560.8 2046.5 2561.2 2055.6 2569.7 2062 2573.7 2070.4 2566.9 2075.5 2568 2080.6 2574.1 2083.6 2572.4 2090.4 2560.5 2102.6 2550.3 2106.3 2534.7 2104.6 2531.7 2112.4 2530.7 2121.5 2529.3 2134.3 2530.7 2142.1 2524.6 2147.9 2509.3 2145.8 2498.8 2142.1 2485.6 2141.1 2478.8 2146.9 2482.2 2159 2484.9 2178.6 2484.6 2199.3 2478.1 2209.1 2471 2215.2 2458.8 2215.8 2449 2215.5 2442.2 2214.8 2435.7 2218.2 2426.6 2223.3 2419.8 2224.3 2412.7 2227.7 2408.6 2237.8 2405.2 2247.3 2403.9 2256.8 2402.9 2268.9 2399.1 2274 2395.1 2281.4 2385.6 2287.2 2383.5 2292.9 2378.5 2297.3 2360.1 2306.1 2350.6 2310.2 2349.6 2303.8 2355 2298.7 2363.2 2292.6 2367.9 2285.5 2364.5 2282.5 2354 2284.5 2345.9 2290.6 2327.9 2306.5 2321.8 2313.6 2314.7 2327.8 2305.9 2333.2 2296 2333.9 2290.2 2329.2 2290.6 2320.7 2294.3 2312.6 2301.4 2304.5 2307.5 2295.7 2318.4 2277.8 2330.6 2253.4 2340.8 2231.8 2349.2 2221.6 2358.4 2200.7 2361.8 2181.8 2369.9 2162.5 2377.4 2153.4 2385.5 2142.9 2377.3 2137.8 2376.3 2130 2383.8 2117.9 2390.6 2105 2401.1 2091.8 2408.2 2080 2414.6 2064.1 2420 2051.3 2428.2 2033.7 2436.3 2019.2 2444.1 2010 2443.1 2003.6 2435.6 2002.6 2427.5 2005 2418 2014.4 2399 2034 2390.5 2044.2 2386.5 2057.7 2383.7 2068.5 2379 2075.3 2369.8 2079.4 2362 2083.1 2357.3 2089.2 2356.3 2099.6 2361.7 2113.1 2361.7 2126.3 2362.1 2139.5 2360.7 2156.4 2355.3 2169.6 2340.4 2189.2 2310.9 2219 2304.4 2230.5 2296.3 2239.9 2291.6 2238.6 2287.8 2235.5 2284.1 2232.2 2282.4 2226.7 2283.1 2221.3 2273.6 2223 2265.4 2229.1 2261 2232.8 2261.7 2240.6 2259 2245 2243.1 2270.7 2231.5 2286.6 2225.1 2296.1 2216.3 2302.5 2208.8 2308.6 2201.3 2306.2 2194.2 2303.5 2191.2 2303.9 2189.8 2307.2 2193.2 2310.3 2195.6 2312.6 2196.6 2317 2191.8 2321.8 2191.2 2331.9 2182 2343.4 2169.8 2355.9 2149.1 2376.2 2142.3 2385.3 2134.9 2389.1 2123.2 2402 Z M 2434 1883.1 2428.6 1872.3 2419.1 1857.1 2409.9 1845.3 2400.7 1833.3 2411.3 1829.7 2422.8 1831.4 2430.3 1830.1 2436.7 1826 2442.8 1820.9 2447.6 1817.2 2456.4 1821.9 2461.8 1829.4 2465.6 1836.5 2468.6 1849.3 2466.9 1860.5 2462.5 1873 2452.7 1878.7 2445.9 1886.8 2441.5 1891.6 2434 1883.1 Z M 2658.4 1618 2655.1 1633.5 2646.2 1655.5 2629.3 1670.7 2609.8 1682.1 2599.3 1691.3 2593.3 1696.5 2581.4 1708.3 2572.5 1718 2563.6 1721.4 2554.3 1729 2550 1740.9 2541.2 1749.3 2536.5 1756.1 2530.1 1767.9 2526.8 1772.6 2531 1778 2539 1777.2 2550.9 1771.3 2562.8 1775.1 2564.1 1786.5 2571.3 1796.2 2581 1789.8 2598.4 1792.8 2597.6 1800.4 2592.9 1811.4 2587.4 1819 2576 1824.5 2564.5 1826.2 2556.9 1824.1 2548 1815.2 2545.9 1807.2 2539.5 1800.8 2528.9 1789.9 2510.7 1799.2 2492.9 1812.3 2485.2 1821.6 2478.4 1820.3 2472.1 1808.1 2470.4 1797.5 2472.9 1784 2480.1 1765.8 2486.5 1755.3 2496.2 1749.8 2496.2 1743.9 2484.3 1743.9 2471.2 1745.6 2459.7 1745.1 2485.6 1727 2505.9 1706.3 2524.6 1675.4 2539.8 1661.5 2551.7 1653.4 2566.5 1642 2581.3 1626.8 2600.7 1605.2 2609.9 1595.7 2632.6 1599.8 2657.7 1606.5 2658.4 1618 Z" data-holc_grade="B"/>
<path d="M 2831.6 1001.8 2861.6 1078.5 2813.5 1136.6 2808.7 1148.8 2796 1161.4 2773.8 1182.6 2759 1198.9 2725.6 1226.9 2705 1249.1 2694.9 1241.7 2683.2 1246.5 2659.4 1246.5 2658.9 1256 2657.8 1264.5 2655.2 1274 2648.3 1282.9 2640.4 1296.7 2634.5 1299.8 2630.3 1314.1 2621.8 1322.6 2608.1 1314.6 2580.5 1289.3 2565.1 1271.9 2558.8 1256.6 2547.1 1260.3 2538.1 1262.4 2527 1259.3 2523.3 1254.5 2519.5 1246.6 2517.1 1235 2505.2 1142.1 2498.4 1114.2 2491.6 1109.2 2471.5 991.5 2503.6 981.4 2545.6 980.1 2575.2 979.6 2589.2 984.7 2596.8 983 2616.3 958.1 2637.5 934.9 2685.8 929.8 2717.6 940.7 2740 946.6 2764.6 952.1 2774 966.4 2782.5 998.5 2797.7 1014.5 2809.2 1023 2820.2 1012.4 2827 1007.3 2831.6 1001.8 Z M 2645.5 1009.6 2666.7 986.4 2683.2 967.8 2656.9 941.6 2626 969.9 2614.1 986 2605.3 1010.1 2609.9 1016.4 2610.8 1026.1 2615.4 1036.7 2626.9 1041.7 2645.5 1009.6 Z" data-holc_grade="B"/>
<path d="M 2976.9 1346.2 2999 1398.9 2992.2 1401.3 2984.4 1405.3 2977.3 1411.1 2981 1415.8 2983.4 1419.9 2979.7 1426.3 2975.6 1425.6 2971.2 1428 2967.2 1430.7 2963.4 1427.3 2959.3 1421.9 2949.9 1423.3 2944.8 1428 2938.3 1428 2936.3 1422.3 2934.2 1413.5 2935.3 1401 2946.4 1382.1 2955.6 1368.9 2965.7 1348.9 2968.4 1347.2 2972.2 1348.9 2976.9 1346.2 Z M 2918.8 1215.2 2968.4 1326 2962.3 1327.7 2958.2 1328.7 2949.8 1318.2 2933.8 1303.4 2921.3 1298.3 2909.7 1296.3 2900.9 1299 2889.7 1301 2878.5 1312.2 2867.7 1320.3 2860.6 1326.4 2854.8 1333.5 2850.8 1341.9 2845 1345 2850.1 1334.9 2853.5 1326.1 2862.6 1316.3 2868 1313.2 2876.5 1303.8 2883.6 1297.7 2880.2 1276.7 2908.3 1225.4 2918.8 1215.2 Z M 2559.3 1602.2 2553.5 1549.7 2547.7 1476.8 2547 1462.7 2545.8 1436.9 2597.9 1391.9 2637.3 1334.9 2656.4 1341.8 2662.1 1329.8 2671 1312.7 2686.2 1300.6 2695.7 1294.9 2700.8 1286.7 2704 1266.4 2710.3 1256.3 2705 1249.1 2725.6 1226.9 2759 1198.9 2773.8 1182.6 2796 1161.4 2808.7 1148.8 2813.5 1136.6 2861.6 1078.5 2904.2 1185.8 2882.6 1222.6 2857.2 1265 2854 1278.3 2852.1 1296.1 2843.3 1306.2 2838.8 1315.1 2828 1313.2 2824.8 1330.3 2818.5 1367 2809.6 1388.6 2805.2 1403.2 2797.6 1419.6 2779.8 1455.7 2755 1471.6 2734 1488.7 2704.2 1500.1 2667.9 1517.9 2640 1531.9 2628.5 1538.2 2617.7 1544.5 2604.4 1558.5 2559.3 1602.2 Z" data-holc_grade="B"/>
<path d="M 2742.9 1690.3 2743.2 1684 2738.1 1673.9 2738.4 1660.7 2740.8 1646.2 2741.1 1630.6 2735 1625.2 2719.4 1619.8 2707.5 1616.5 2704.2 1616.7 2701.8 1611.4 2699.1 1605 2698.4 1599.2 2700.1 1591.5 2704.1 1587.1 2708.2 1577.9 2709.2 1572.2 2710.9 1567.5 2713.3 1562.7 2716.3 1556.3 2721.1 1549.6 2725.1 1540.4 2727.8 1532.7 2727.8 1525.9 2722.7 1515.1 2739.7 1505.3 2753.6 1501.2 2774.2 1486.3 2794.2 1473.1 2800.3 1468.8 2813.2 1448.8 2823.7 1428.5 2831.8 1409.6 2835.9 1395.4 2839.3 1385.3 2841 1376.2 2841.3 1367.4 2845 1363.3 2845.3 1353.5 2848.4 1351.8 2857.6 1353.2 2861.6 1349.8 2870.1 1351.5 2879.6 1351.8 2887.4 1355.5 2895.9 1359.2 2903 1364.3 2914.5 1366.3 2924 1370.7 2932.9 1373 2936.6 1376.7 2936.6 1381.1 2930.5 1385.2 2926.4 1387.9 2924.1 1393.7 2920.7 1400.4 2913.9 1403.5 2908.1 1400.4 2905.1 1394 2901.7 1388.6 2895.6 1390.3 2894.2 1396.4 2899.3 1402.8 2904.7 1409.9 2911.5 1413.6 2911.2 1421 2905.1 1423.4 2901 1419.7 2897.3 1419 2894.2 1421.7 2894.6 1427.5 2898 1433.5 2898 1439.6 2897 1444 2893.2 1450.4 2890.5 1457.2 2891.6 1463.3 2895.6 1470.7 2895 1476.1 2891.9 1481.8 2893.6 1488.3 2901.4 1497.4 2902.5 1509.2 2908.2 1509.5 2918.1 1508.9 2927.2 1506.8 2936.4 1508.5 2939.1 1515.9 2936 1522 2934 1527.8 2934.4 1533.5 2934.4 1540.3 2930.3 1541.9 2924.9 1545 2920.5 1548 2917.1 1551.8 2918.1 1556.5 2922.5 1561.9 2932.7 1566.6 2938.1 1570.7 2942.2 1575.7 2944.9 1583.5 2947 1590.9 2948 1596.7 2951.7 1601.4 2957.1 1608.5 2956.1 1616.6 2953.1 1625.7 2943.3 1630.1 2936.1 1630.1 2929.7 1632.2 2927.3 1637.2 2933.8 1645.7 2938.5 1655.8 2938.9 1664.9 2933.5 1670 2922.3 1670.7 2918.2 1674.1 2916.5 1683.5 2909.4 1691.6 2901.9 1697.7 2893.5 1698.7 2886.7 1696 2876.8 1690.3 2870.7 1687.3 2862.6 1686.6 2853.8 1687.6 2850.7 1695.4 2856.2 1699.5 2871.1 1698.4 2877.9 1702.5 2874.1 1707.5 2868.7 1711.6 2859.6 1714 2849.7 1713.6 2838.5 1714.3 2830.1 1716 2822.3 1718.7 2822.3 1724.1 2825.3 1731.2 2826.7 1736 2826.7 1740.7 2823 1744.1 2817.2 1744.1 2809.7 1740.7 2804 1742.1 2797.5 1745.8 2790.1 1755.3 2786.3 1759.7 2781.3 1769.1 2776.5 1774.5 2772.1 1779.9 2767 1783.3 2759.9 1782 2757.9 1777.9 2759.9 1768.5 2762.3 1758.3 2762.2 1741.1 2761.6 1732.6 2759.2 1718.5 2758.8 1708 2757.5 1696.8 2742.9 1690.3 Z" data-holc_grade="B"/>
<path d="M 883.9 1192.9 878.6 1205.6 858 1204.5 852.1 1205.5 832 1215.6 805 1193.9 781.1 1173.9 757.8 1161.2 730.8 1184.4 708.4 1168.7 723.2 1141.8 743.9 1124.9 764 1118.6 794.2 1108.6 847.7 1104.9 849.9 1089.6 806.4 1090.6 755.1 1056.3 798 1016.8 810.7 997.8 804.4 960.8 802.2 940.3 808.1 922.8 821.9 894.9 833.5 874.3 833 862.2 844.1 845.3 857.4 855.9 864.3 862.7 870.6 873.8 901.8 901.8 918.8 921.3 942.1 949.3 950 963.5 952.1 988.9 980.7 992.6 992.4 979.9 1006.7 983.6 1022.6 997.9 1024.7 1006.3 1025.8 1017.9 1025.8 1029 1022.6 1043.8 1022.6 1050.1 990.8 1057.5 978.6 1059 957.9 1052.2 947.9 1082.3 926.7 1116 908.1 1151.9 894.9 1177.2 883.9 1192.9 Z" data-holc_grade="B"/>
<path d="M 435.5 1509.3 437.6 1522 430.7 1537.8 425.9 1553.1 414.3 1578.5 398.9 1599 385.1 1620.7 375.5 1628.1 361.2 1655 356.4 1679.8 338.4 1710.4 323 1697.7 310.8 1689.8 298.7 1679.7 282.8 1667.1 271.1 1657.5 260 1649.6 266.9 1625.9 270.6 1602.1 275.4 1585.8 274.4 1576.8 273.9 1565.2 278.6 1558.3 298.8 1556.7 308.8 1559.4 309.4 1554.6 309.9 1539.3 311 1526.7 315.2 1517.7 330.1 1516.6 333.8 1490.3 340.2 1438.5 366.1 1443.3 379.4 1444.4 390 1442.8 397.9 1447.5 407.5 1458.1 408 1469.7 402.7 1509.3 435.5 1509.3 Z" data-holc_grade="B"/>
<path d="M 200.4 1738.2 185.2 1729.7 163.5 1724 133.3 1729.7 137.4 1703.3 141.8 1676.3 143.9 1656.1 145.4 1656.1 156.7 1656.4 159.8 1639.5 146.7 1637.5 144.2 1637.1 148.3 1606.7 153.8 1550 177.2 1555.1 204.3 1556.4 222.3 1557.1 220.2 1584.2 215.1 1625.4 211.3 1654.8 205.6 1684.5 200.4 1738.2 Z M 123.2 1635.1 98.4 1633.7 95.4 1639.8 91 1646.2 121.1 1654 118.7 1682 115.7 1705 111.6 1726.6 106.1 1726.6 78.7 1717.1 62.4 1715.1 43.4 1704.6 43.6 1701.1 43.8 1696.5 51.6 1686.4 61.8 1665.8 73 1648.2 93.7 1623.2 99.9 1540.5 134.5 1547.3 123.2 1635.1 Z" data-holc_grade="B"/>
<path d="M 338.4 1710.4 356.4 1679.8 361.2 1655 375.5 1628.1 385.1 1620.7 398.9 1599 414.3 1578.5 425.9 1553.1 430.7 1537.8 437.6 1522 435.5 1509.3 476.8 1520.4 478.9 1556.3 439.1 1647.6 455 1652.4 452.9 1706.8 443.8 1754.8 436.4 1824 437.9 1843.5 426.8 1855.6 406.6 1866.2 391.3 1866.7 374.9 1856.7 365.9 1838.7 360 1816 350.5 1797.5 348.4 1769 353.7 1735.2 346.3 1721.5 338.4 1710.4 Z" data-holc_grade="B"/>
<path d="M 1861.6 151.1 1820.9 259.7 1810.3 275 1800.2 289.8 1793.9 304.1 1787.5 331.5 1779.6 358.9 1771.8 361.9 1716.8 317.2 1711.7 322.3 1697.3 308.8 1701.5 296.5 1700.7 280.5 1696 263.2 1693.5 251 1693.5 237.1 1696 226.5 1696 211.3 1698.5 191.1 1699 166.2 1695.6 156.5 1692.6 145.5 1693.9 128.2 1709.5 112.2 1720.1 97 1729.4 86.4 1733.7 76.3 1737.9 69.1 1742.6 61.1 1753.6 52.7 1755.7 44.6 1757.8 37.5 1763.7 38.7 1774.8 44.6 1786.2 57.7 1798.5 62.8 1802.7 88.1 1816.7 108.8 1861.6 151.1 Z" data-holc_grade="B"/>
<path d="M 1657.1 885.1 1643.1 875.4 1625.7 861.1 1605.4 845.4 1579.6 831.5 1583.2 816.3 1590.6 807.3 1598 800 1605.9 791.5 1607 783.1 1612.8 769.9 1592.2 750.9 1575.7 781 1572 802.6 1568.9 819 1564.1 826.9 1550.5 818 1524.7 806.2 1512.8 802.4 1523.8 778.9 1545.6 747.2 1560.4 718.2 1575.2 694.4 1585.3 671.2 1614.4 607.4 1682.7 642.2 1692.8 625.8 1716.6 572.6 1742.5 583.6 1781.7 591.5 1773.3 615.3 1786 648 1741.5 660.1 1708.7 734 1736.2 733.5 1736.8 775.7 1709.2 781.5 1696.5 782 1688.6 804.7 1675.8 825.8 1676.9 846.4 1657.1 885.1 Z" data-holc_grade="B"/>
<path d="M 1497.6 826.5 1472.8 858.2 1465.2 873.4 1455.6 886 1446.7 898.1 1439.3 906 1435.1 911.7 1410.5 924.7 1387 948.1 1358.4 970.9 1341.2 937.3 1341.8 927.2 1345.4 918.8 1351.4 904.4 1366 878.4 1377.4 884.1 1387 891.7 1402.9 902.5 1414.9 892.4 1423.8 878.4 1430.2 865.1 1432.7 849.3 1437.2 831 1446.1 818.3 1458.8 810.7 1467.7 818.9 1480.4 823.4 1491.2 825.3 1497.6 826.5 Z" data-holc_grade="B"/>
</g>
<g id="C">
<path d="M 238.2 899.8 229.3 899.6 229.2 899.6 226.6 875.5 236.2 806.4 238.9 791.1 222.4 787.9 206 783.7 233.1 734.1 266.5 680.4 296.7 629.2 313.7 579.6 344.9 583.3 340.7 591.8 330.6 615.5 326.4 642.4 311 671.9 302.5 692 293.5 707.8 276.5 737.3 264.3 763.2 254.7 793.8 238.2 899.8 Z M 413.6 369.2 407.5 378 399.8 386.9 396 397 396 403.6 392.2 407.9 376.9 405.1 369.3 430.9 349.2 422.5 331.4 417.5 343.4 371.9 356.6 374.7 392 265.6 432.7 256.5 425.6 287.4 416.4 322.3 411.8 363.8 413.6 369.2 Z" data-holc_grade="C"/>
<path d="M 1132.7 1431.9 1167.7 1438.9 1191.2 1437.6 1182.9 1445.2 1172.7 1471.8 1147.3 1509.2 1125.7 1547.2 1119.9 1562.4 1114.2 1581.4 1111.7 1594.7 1094.5 1673.9 1035.9 1757.5 1030.9 1749.9 1022 1741 1013.7 1735.9 1000.3 1739.7 985.1 1756.2 962.2 1769.5 943.1 1779 918.3 1770.8 903 1760.6 893.5 1749.8 890.3 1735.3 889.1 1721.3 891 1703.6 892.9 1692.8 892.2 1681.4 885.3 1665.6 868.1 1640.9 844.6 1602.2 861.8 1589.6 878.9 1576.3 894.8 1559.8 898.7 1544.6 905 1515.5 913.9 1500.9 920.3 1466.1 924.1 1431.9 936.2 1428.7 949.6 1426.8 960.4 1419.8 959.7 1454 957.2 1481.3 989.6 1492.7 982 1519.3 993.4 1516.8 1025.8 1506 1068.5 1415.4 1099.6 1424.9 1132.7 1431.9 Z M 1000.1 1370.5 988.2 1385.4 961.8 1380 944.1 1371.5 930.9 1366.4 934.3 1296.2 962.1 1297.2 996 1299.9 1011.3 1308 1030.3 1316.8 1020.1 1327.3 1008.6 1339.8 1004.5 1349.6 998.4 1360.4 1000.1 1370.5 Z" data-holc_grade="C"/>
<path d="M 757.7 2029.8 785.8 2047.3 654.9 1998.1 599.8 1978.5 562.1 1962.2 562.7 1908.3 628.9 1924.7 640.6 1932.1 655.4 1946.4 669.2 1969.1 689.3 1989.2 710 2001.8 738.1 2016.6 757.7 2029.8 Z M 868.6 1758 873.3 1768 881.8 1779.6 897.7 1791.3 917.3 1799.2 935.9 1800.8 958.1 1800.8 974.6 1791.8 987.8 1780.7 996.3 1771.8 1010.6 1769.1 1021.2 1783.9 976.7 1854.1 964.5 1884.2 952.3 1897.9 941.1 1915.3 919.4 1949.7 904 1978.2 895 2004 876.4 2031.5 867.9 2040.5 861.6 2045.2 855.2 2058.4 849.9 2073.2 839.3 2058.9 829.2 2047.8 812.3 2038.3 784.2 2024.6 754.5 2003.4 728.6 1990.8 711.1 1976.5 698.9 1963.8 680.9 1943.7 661.3 1914.7 639.6 1899.4 603 1885.1 600.9 1876.1 604.6 1864 617.3 1853.9 628.5 1848.7 643.3 1842.9 665.5 1866.6 721.2 1951.2 739.7 1952.7 747.7 1921.6 757.2 1905.8 771.5 1885.2 791.7 1868.8 733.4 1773.2 753 1767.4 766.8 1768.5 785.4 1757.4 814.5 1758.5 824.6 1759.5 835.2 1755.9 845.8 1753.2 854.3 1746.4 857.5 1737.9 868.6 1758 Z" data-holc_grade="C"/>
<path d="M 43.4 1704.6 62.4 1715.1 78.7 1717.1 106.1 1726.6 105.1 1755.4 103 1788.8 36.9 1766.4 34.6 1725.6 43.4 1704.6 Z M 339.3 1844.2 340 1872.6 226.7 1833 223.7 1808 227.1 1774.5 227.5 1729.3 232.3 1661 256.7 1672.2 288.5 1698.2 305.8 1710.4 327.9 1734.7 332.6 1805.7 339.3 1844.2 Z" data-holc_grade="C"/>
<path d="M 1781.7 591.5 1742.5 583.6 1753.7 556.2 1759 538.8 1738.3 520.3 1759.5 470.7 1772.7 439.6 1787 415.9 1788.6 401.6 1797.1 385.8 1799.7 372.1 1779.6 358.9 1787.5 331.5 1793.9 304.1 1800.2 289.8 1810.3 275 1820.9 259.7 1861.6 151.1 2001.4 326.7 2066.6 345.1 2062.3 358.3 2058.1 373.1 2056 386.3 2057 406.8 2061.8 423.2 2066.1 440.1 2064 462.2 2056.5 492.3 2029 520.8 2025.3 485.4 2006.8 486 1993.5 481.8 1979.2 471.7 1964.9 452.2 1954.9 428.5 1947.4 417.4 1930.5 403.7 1908.8 390 1874.4 384.2 1837.8 442.2 1804 490.3 1785.4 545.1 1785.4 559.4 1786 572 1781.7 591.5 Z" data-holc_grade="C"/>
<path d="M 1485.7 946.5 1458.6 986.8 1451.4 982.6 1431.1 980.1 1396.1 951.6 1420.9 926.2 1431.7 916.1 1435.1 911.7 1439.3 906 1444.4 915.5 1455.2 923.7 1473.7 933.8 1485.7 946.5 Z M 1497.6 826.5 1512.8 802.4 1524.7 806.2 1550.5 818 1564.1 826.9 1556 835.7 1551.4 844.2 1552.7 853.5 1553.9 859.8 1556.5 864.4 1556.5 872.9 1550.1 889.3 1545.9 899.5 1546.7 906.2 1538.2 925.2 1493.3 917.2 1467.9 905 1481.9 887.2 1489.5 875 1502.7 848.4 1513.2 830.7 1507.3 830.2 1497.6 826.5 Z" data-holc_grade="C"/>
<path d="M 1726.5 963.5 1724.1 962.3 1705 954.7 1685.3 953.5 1663.7 948.4 1642.1 940.2 1604.6 925 1598.9 925.6 1585.1 914.2 1580.4 901.6 1576.6 889.8 1576.6 882.2 1565.2 878.4 1579.6 831.5 1605.4 845.4 1625.7 861.1 1643.1 875.4 1657.1 885.1 1650.3 899.5 1673.6 908.7 1712.2 925.6 1725.3 929 1749.1 936.2 1772.8 948 1758 975 1726.5 963.5 Z" data-holc_grade="C"/>
<path d="M 1364.1 1242.2 1358 1244.8 1337.6 1253.6 1321.8 1261.7 1311.5 1252.1 1303 1249.4 1293.8 1245.4 1282.6 1239.3 1271.8 1229.5 1263 1213.6 1261.3 1194.7 1257.6 1123.1 1260.6 1116 1266.4 1108.9 1273.5 1102.8 1276.2 1095.7 1278.9 1090.3 1280 1095.4 1284 1107.2 1293.2 1113 1304 1114.7 1308.8 1121.4 1304.4 1203.2 1341.6 1186.3 1358.3 1226.8 1364.1 1242.2 Z" data-holc_grade="C"/>
<path d="M 1071.5 1905.4 1059.8 1926.7 1037.7 1919.1 1026.7 1943.9 1007.4 1937.3 1028.5 1896.5 1070.8 1826.8 1107.7 1849.9 1106.7 1860.3 1103.6 1865.9 1071.5 1905.4 Z M 1256.6 1683.9 1259.9 1727.1 1226.5 1728 1227.3 1760.1 1259.5 1760.9 1261.2 1774.8 1246.4 1792.2 1229.4 1804 1215.8 1809.9 1201.4 1816.6 1188.7 1821.7 1175.6 1828 1161.1 1830.6 1148 1835.2 1143.3 1831.4 1133.2 1825.9 1120.4 1818.7 1106.9 1813.2 1096.3 1808.2 1087.8 1796.3 1102.6 1772.7 1096.7 1770.6 1087.8 1760.9 1146.8 1639.3 1150.2 1637.6 1227 1476.4 1243.4 1490.7 1215.9 1546.1 1223.8 1552.4 1245 1561.9 1267.8 1571.5 1273.1 1577.3 1271 1593.1 1265.7 1608.4 1263 1639.5 1245 1639.5 1207.9 1642.2 1219 1686.5 1256.6 1683.9 Z" data-holc_grade="C"/>
<path d="M 1458 1763.1 1459 1779.7 1436.9 1783 1435.6 1767 1306.4 1775.9 1303.9 1760.9 1304.4 1739.1 1302.3 1722.9 1298 1719.4 1275.9 1719.1 1274.7 1683.4 1350.4 1680.2 1378.5 1677 1428.3 1669.1 1436.3 1701.3 1445.8 1732 1453.3 1758.9 1458 1763.1 Z" data-holc_grade="C"/>
<path d="M 1259.5 1964.1 1168.3 1991.5 1143.2 1994.1 1136.4 1994.1 1136.2 1986.1 1139.3 1978.3 1140 1969.8 1140 1962.2 1087.6 1938.5 1087.2 1932.8 1091.4 1922.1 1109.7 1903.9 1126.6 1892.3 1143.8 1882.8 1161.6 1876.7 1172.9 1898.9 1191.3 1892.7 1228.8 1883.5 1236 1897 1258.5 1957.4 1259.5 1964.1 Z" data-holc_grade="C"/>
<path d="M 667.9 466 664.5 485.4 656.5 536.8 649.2 575.7 631 570.2 603.1 565.9 580.6 567.6 547.6 554.9 568.4 504.7 589.2 443.1 596.4 403.5 614.2 317.8 658.7 320.4 668.4 322.5 678.6 281.6 698.1 248.2 706.6 235.6 700.3 227.6 689.7 227.1 677 222.9 666 213.6 659.6 211.1 718.9 201 710.8 258.8 698.9 316.2 696.4 358.4 687.9 403.9 667.9 466 Z" data-holc_grade="C"/>
<path d="M 1343.9 1830.8 1378.4 1842.2 1403.6 1845.4 1433.3 1850.6 1459.2 1850.4 1459 1866.9 1364.6 1892.9 1346 1840.3 1343.9 1830.8 Z" data-holc_grade="C"/>
<path d="M 1466.1 2129.4 1469.2 2179.4 1467.1 2195 1445.8 2204.8 1438 2206.1 1433.9 2206.5 1431.9 2210.5 1421 2182.8 1408.1 2161.8 1388.8 2167.6 1368.1 2174 1362.3 2179.1 1348.7 2180.8 1340.9 2182.1 1350.1 2215.9 1339.6 2234.2 1330.4 2245 1328 2268.3 1227.6 2230.8 1229.3 2184.1 1288 2163.5 1280.2 2140.9 1320.6 2129.4 1327.4 2136.5 1401.3 2114.2 1458.7 2094.7 1466.1 2129.4 Z M 1341.6 2101.7 1298.2 1963.8 1356.6 1942.2 1398.3 1934.1 1408.8 1920.9 1436.3 1911.8 1451.5 1907.4 1449.8 1914.1 1443.7 1931 1441.4 1943.2 1438.6 1958.1 1437.3 1983.1 1436.3 2004 1440.3 2017.2 1443.4 2036.5 1452.9 2067.9 1426.4 2075.7 1407.8 2081.4 1386.1 2091.5 1341.6 2101.7 Z" data-holc_grade="C"/>
<path d="M 1889.3 1685.3 1890.5 1690.4 1894.5 1715.6 1882.7 1717.8 1878.6 1716.5 1869.4 1713.1 1862.3 1711.4 1851.5 1706.3 1843.7 1703 1832.8 1696.5 1845.3 1661.1 1889.3 1685.3 Z" data-holc_grade="C"/>
<path d="M 1696.7 1945.5 1699.3 1934.1 1699.3 1922.2 1698.4 1909.6 1692.5 1893.5 1687 1874.1 1692 1856.3 1698.4 1841.1 1700.1 1829.3 1700.9 1801 1701.8 1777.4 1704.8 1766.8 1722.1 1749.1 1729.8 1729.6 1730.9 1721.6 1766.5 1734.1 1791.9 1749 1762.1 1821.7 1750.6 1853.1 1736.7 1886.9 1737 1905.8 1737.7 1924 1737.3 1933.2 1732.3 1943.3 1719.7 1959.5 1696.7 1945.5 Z" data-holc_grade="C"/>
<path d="M 2288.9 1465 2273.7 1436.7 2305.9 1421.9 2337.2 1408 2346.6 1404.6 2348.7 1402.5 2358.4 1397.8 2372.4 1394.4 2400.4 1379.2 2421.6 1426.5 2417.8 1437.1 2417.8 1448 2419.9 1459.9 2420.8 1475.1 2425.5 1493.6 2433.1 1514.7 2435.2 1531.6 2409.8 1555.7 2405.6 1544.3 2401.3 1525.3 2395.8 1508 2387.3 1498.7 2381.4 1484.4 2374.6 1470.9 2359.3 1457.8 2341.1 1440.5 2331.7 1446.8 2323.7 1454 2311 1459.5 2288.9 1465 Z" data-holc_grade="C"/>
<path d="M 2078.6 1856.4 2073.1 1835.7 2065.5 1822.2 2054.4 1810.3 2050.6 1804.4 2050.2 1798.9 2042.6 1779.9 2038.7 1764.7 2033.7 1757.1 2038.7 1741.1 2043.4 1721.2 2044.2 1695.5 2040.8 1676 2037 1660.4 2033.2 1634.2 2028.1 1609.3 2050.1 1604.2 2114.6 1585.6 2122.2 1590.7 2133.2 1592 2143.8 1592.4 2146.4 1605.1 2140.4 1608 2130.7 1612.7 2118.4 1619.8 2109.5 1619.8 2103.1 1619 2099.3 1615.6 2094.7 1616.9 2071.8 1628.7 2055.7 1630.8 2058.2 1648.6 2061.6 1664.6 2063.3 1674.3 2073.9 1702.6 2095.5 1697.1 2103.2 1708.1 2107.4 1730.5 2140.5 1721.6 2148.1 1741 2193.5 1731.3 2196.9 1744 2210 1768.9 2215.5 1780.7 2219.4 1790.8 2217.7 1797.6 2205.8 1806.5 2199.5 1818.7 2195.2 1823.4 2159.2 1834.4 2162.6 1849.6 2134.2 1850 2099 1853 2078.6 1856.4 Z" data-holc_grade="C"/>
<path d="M 2302.8 1882.4 2321.4 1865.9 2338.4 1849 2354 1836.2 2365.8 1823.3 2382.4 1809.5 2400.7 1833.3 2409.9 1845.3 2419.1 1857.1 2428.6 1872.3 2434 1883.1 2431 1888.9 2422.2 1906.4 2421.2 1912.2 2413 1919.3 2406.9 1926.7 2404.6 1938.6 2405 1947.4 2398.7 1968.5 2386.4 1991.3 2369.8 1976.6 2358 1966 2342.3 1947 2332.9 1939 2324 1923.8 2315.9 1909.8 2311.3 1897.6 2302.8 1882.4 Z M 2390.5 1590.6 2395.2 1611.8 2393.7 1628.5 2393.7 1643.7 2389.4 1657.1 2389.4 1667.5 2389.1 1677.9 2391.4 1687.3 2394.5 1693.6 2364.5 1708.3 2345.4 1726.1 2370.4 1771.7 2358.4 1773.8 2367.5 1787.3 2361.4 1793.1 2353 1799.1 2300 1711.3 2305.1 1698.5 2321 1674.2 2335.2 1652.9 2362 1618.7 2379.6 1598.1 2390.5 1590.6 Z" data-holc_grade="C"/>
<path d="M 2034.9 2103.5 2009.1 2156.3 1990 2209.1 1960.7 2162.2 1956.9 2139 1999.7 2116.1 2003.6 2122.5 2034.9 2103.5 Z M 2143.9 2082.3 2154.9 2104.3 2173.2 2095.4 2206.7 2153.7 2183.4 2168 2151.2 2187.9 2165.6 2219.6 2138.9 2228.9 2110.5 2238.6 2104.1 2228.5 2101.6 2223 2094.8 2216.2 2090.1 2203.1 2082.5 2191.7 2076.9 2185 2077.8 2171.9 2078.6 2163 2112.1 2148.6 2127 2136.8 2118.9 2124.1 2115.5 2114 2113.8 2109.8 2112.1 2101.7 2143.9 2082.3 Z M 2021.8 2037.1 2028.1 2036.3 2035.8 2040.1 2048.1 2043 2059.5 2046.8 2068.8 2052.3 2034.9 2077.7 1986.6 2107.3 1954.8 2120.8 1947.6 2038.4 1955.2 2040.1 1970.9 2041 1986.1 2040.1 2003.9 2034.6 2015.8 2032.5 2021.8 2037.1 Z" data-holc_grade="C"/>
<path d="M 2645.5 1009.6 2626.9 1041.7 2615.4 1036.7 2610.8 1026.1 2609.9 1016.4 2605.3 1010.1 2614.1 986 2626 969.9 2656.9 941.6 2683.2 967.8 2666.7 986.4 2645.5 1009.6 Z" data-holc_grade="C"/>
<path d="M 847.1 666.1 825.4 667.8 811.5 662.7 770.4 649.2 753.4 649.2 738.2 646.6 716.2 633.1 698.4 638.2 688.6 610.3 693.3 573.2 695 542.3 696.3 531.8 701 530.5 713.7 480.7 722.2 466 738.7 419.1 745.1 414.5 770.1 428 806.5 441.1 826.4 452.9 853.5 458.9 856.9 499 869.6 558.5 872.5 593.5 861.9 626.4 847.1 666.1 Z" data-holc_grade="C"/>
<path d="M 649.2 575.7 648.1 651.2 634.1 728.8 615.9 782.8 601 778.2 590.9 767.2 582.4 757.1 571.4 730.9 566.7 721.2 552.3 715.7 548.1 740.6 541.3 775.2 537.9 797.1 548.5 804.3 542.1 814 519.2 791.2 509.5 800.1 523.9 822.5 530.7 826.7 527.7 832.6 501.4 825 493 793.7 476.9 789.1 473.1 792.9 476 832.6 451.8 827.5 447.2 845.6 442.5 866.3 435.3 885.3 429.3 906 420.8 930.9 414.5 952.4 407.3 980.7 400 1008.1 387.3 1040.6 376.3 1068.9 364.8 1109 317.8 1092.5 329.2 1054.1 342 1022 350.5 996.7 353.4 986.5 358.1 963.8 368.3 946 377.2 920.7 415.8 844.8 420.5 822.8 431.5 786.9 457 728.3 473.1 695.4 467.2 686.9 414.7 677.2 399.8 672.1 388.4 657.3 381.7 632.9 379.6 607.1 410.1 610.1 441.4 629.9 463 636.7 468.9 625.3 504.1 635.5 520.2 609.3 570.6 625.4 575.7 612.7 577.4 599.2 582.1 581.1 580.6 567.6 603.1 565.9 631 570.2 649.2 575.7 Z" data-holc_grade="C"/>
<path d="M 844.1 845.3 833 862.2 833.5 874.3 821.9 894.9 808.1 922.8 802.2 940.3 804.4 960.8 810.7 997.8 798 1016.8 755.1 1056.3 731.7 1077.9 720.1 1084.8 699.9 1082.2 703.7 1063.2 720.1 1033.6 695.2 1020.4 692.1 982.9 741.3 976.6 781 974.5 776.8 951.3 761.5 956.6 736 957.1 685.7 958.1 682.6 885.8 681 831 679.4 791.9 725.5 798.3 760.5 805.2 775.8 811 816.1 816.3 846.8 805.7 847.9 817.9 848.4 831 844.1 845.3 Z" data-holc_grade="C"/>
<path d="M 985.9 1270.6 957.6 1263.3 934.7 1259.9 938.1 1232.5 940.2 1214.7 950.8 1202.1 979.2 1174.6 1010.6 1137.9 1017.8 1119.3 1021.6 1106.7 1031 1086.8 1039.9 1068.3 1051.7 1056.4 1074.4 1084.9 1072.8 1102.8 1063.3 1125.5 1056.4 1135 1046.3 1148.2 1035.2 1159.3 1020.9 1180.9 1001.8 1217.8 990.2 1244.2 985.9 1270.6 Z" data-holc_grade="C"/>
<path d="M 229.2 899.6 229.3 899.6 238.2 899.8 231.8 975.3 229.2 994.8 232.8 1011.7 233.9 1056 242.3 1078.7 252.9 1096.1 269.3 1109.9 287.9 1118.8 302.6 1117.9 301.1 1153.7 280.4 1156.3 244.9 1146.8 254.5 1117.2 236.5 1090.3 216.4 1087.7 221.7 1037.5 180.9 1032.7 167.1 1031.7 178.3 992.6 156.6 990 174.1 901.9 185.3 890.8 205.9 895.6 199.5 921.4 212.3 920.9 218.6 899.3 226 899.5 229.2 899.6 Z" data-holc_grade="C"/>
<path d="M 214.8 1453.9 222.2 1529.2 196.4 1527.8 169.3 1524.8 171.7 1512.9 168.7 1502.8 161.2 1480.5 160.9 1468.3 163 1451.4 214.8 1453.9 Z M 137.9 1516 125.2 1516.3 112.6 1519.3 98.7 1519 85.5 1516.2 73.6 1514.2 82.1 1490.2 85.2 1470.3 84.2 1446 86.3 1424.4 93.5 1419.6 106.4 1424 120.3 1423.7 122.3 1467.3 132.8 1469.7 137.9 1516 Z M 86 1405.1 86.3 1372.7 93.5 1333.8 98.9 1333.8 101.9 1329.4 107.7 1327.1 113.8 1290.3 135.2 1291 134.6 1308.2 126.4 1351.1 125.4 1402.8 108.1 1401.1 97.2 1400.4 86 1405.1 Z M 228 1289 220.9 1289.2 209.2 1269.2 204.9 1254.5 208.2 1242.9 213.3 1227.9 219.4 1217.3 203.6 1214.2 217.9 1193.5 225.5 1175 258.6 1179.3 245.6 1234 228 1289 Z" data-holc_grade="C"/>
<path d="M 538.3 1903 536.7 1952.6 444.5 1915.1 442.9 1913 453.5 1868.1 480.1 1859.1 504.9 1890.8 538.3 1903 Z M 639.4 1738.6 628.8 1758.1 616.6 1775.5 603.3 1798.7 589.5 1812.4 571 1826.2 556.1 1844.6 544.4 1864.7 537.5 1878.4 532.8 1873.7 514.2 1862.6 502.1 1849.3 487.8 1840.4 467.1 1837.2 451.2 1829.8 445.4 1815 447.5 1785.4 450.2 1769.1 455 1747.4 458.7 1729.5 459.2 1708.4 496.3 1714.7 509.6 1721.6 511.1 1730 512.7 1747.5 523.3 1749.1 523.3 1729 531.3 1708.9 538.7 1666.7 553.1 1613.9 561 1594.4 571.1 1552.2 618.9 1446.1 668.2 1357.5 671.9 1373.8 668.7 1402.9 669.8 1418.2 667.1 1432.4 668.7 1451.4 680.9 1465.7 689.9 1482.6 706.3 1497.9 731.2 1523.8 750.8 1540.1 776.2 1562.3 800 1585.5 787.8 1592.4 764 1605.1 747 1612.4 723.7 1621.4 702.5 1644.6 685.5 1661.5 673.3 1673.6 665.4 1695.3 658 1707.4 639.4 1738.6 Z M 730.8 1184.4 757.8 1161.2 781.1 1173.9 805 1193.9 832 1215.6 819.3 1228.8 798.1 1253.5 786.4 1269.4 776.9 1280.5 771.6 1301.6 751.9 1304.7 736.6 1313.2 722.3 1319 726 1324.2 737.1 1332.7 747.7 1344.8 758.3 1358.6 766.2 1377 778.9 1390.8 791.6 1397.1 802.2 1405 808.1 1397.1 819.2 1386.6 826.1 1368.1 834 1357.5 836.7 1351.2 816 1351.2 826.6 1340.1 840.4 1330.1 866.4 1317.4 910.9 1303.2 910.9 1349.7 904.5 1377.6 900.3 1418.8 901.3 1443.1 901.3 1464.2 894.4 1480.5 875.8 1538.6 822.3 1570.8 808.5 1561.3 800.6 1547 793.2 1540.1 781.5 1526.9 770.9 1512.7 755 1504.8 745.5 1499.5 711.1 1460.4 696.8 1446.1 693.6 1430.3 693.6 1412.4 694.7 1354.8 695.2 1330.6 678.8 1327.4 674.6 1305.7 678.3 1281.5 688.4 1254 695.3 1238.2 700.1 1230.8 716 1217.6 727.6 1203.9 730.8 1184.4 Z" data-holc_grade="C"/>
</g>
<g id="D">
<path d="M 745.1 414.5 738.7 419.1 722.2 466 713.7 480.7 701 530.5 696.3 531.8 683.6 528.4 683.2 518.7 685.7 501.4 697.2 472.3 667.9 466 687.9 403.9 696.4 358.4 698.9 316.2 710.8 258.8 718.9 201 804.9 183.7 801.5 229.3 792.6 267.7 778.2 315.4 763.7 356.3 760.8 387.9 750.6 402.7 745.1 414.5 Z" data-holc_grade="D"/>
<path d="M 1877.6 1630.6 1889.3 1685.3 1845.3 1661.1 1873.2 1613.4 1875.5 1623.9 1877.6 1630.6 Z" data-holc_grade="D"/>
<path d="M 2435.2 1531.6 2433.1 1514.7 2425.5 1493.6 2420.8 1475.1 2419.9 1459.9 2417.8 1448 2417.8 1437.1 2421.6 1426.5 2434.9 1416.6 2460.3 1403.9 2479.8 1392.5 2466.7 1371.8 2447.1 1340.1 2455.6 1331.7 2488.7 1310.6 2495.4 1306.3 2498 1299.6 2523.4 1283.1 2542.1 1382.3 2546.4 1420.7 2469.7 1496.8 2435.2 1531.6 Z" data-holc_grade="D"/>
<path d="M 2193.5 1731.3 2148.1 1741 2140.5 1721.6 2107.4 1730.5 2103.2 1708.1 2095.5 1697.1 2073.9 1702.6 2063.3 1674.3 2061.6 1664.6 2058.2 1648.6 2055.7 1630.8 2071.8 1628.7 2094.7 1616.9 2099.3 1615.6 2103.1 1619 2109.5 1619.8 2118.4 1619.8 2130.7 1612.7 2140.4 1608 2146.4 1605.1 2151.5 1610.5 2154 1617.7 2193.5 1731.3 Z M 2140.5 1518.7 2129.4 1513.9 2119.3 1507.1 2113.5 1495 2105.5 1480.7 2102.3 1468 2099.1 1455.9 2098.6 1451.1 2116.8 1447.7 2123.6 1461.4 2127.7 1470.8 2131.3 1484.7 2135.9 1493.6 2138.4 1509.8 2140.5 1518.7 Z" data-holc_grade="D"/>
<path d="M 2078.6 2163 2062.9 2141.9 2084.6 2134.7 2097.7 2125.4 2089.6 2108.5 2073.9 2078.9 2119.3 2047.7 2134.6 2063.7 2136.3 2073 2143.9 2082.3 2112.1 2101.7 2113.8 2109.8 2115.5 2114 2118.9 2124.1 2127 2136.8 2112.1 2148.6 2078.6 2163 Z M 2068.8 2052.3 2059.5 2046.8 2048.1 2043 2035.8 2040.1 2028.1 2036.3 2021.8 2037.1 2023.1 2026.2 2019.7 2014.8 2015.5 2000 2012.5 1986.9 2015.5 1949.7 2018.4 1934.5 1987.9 1926.5 1950.6 1917.7 1930.8 1911.1 1926.4 1909.6 1919.6 1876.3 1972.2 1865.7 1968 1849.7 1967.5 1837 1960.7 1815.9 1954.8 1795.6 1954.8 1771.5 1982.4 1767.7 1999.7 1766.4 2033.7 1757.1 2038.7 1764.7 2042.6 1779.9 2050.2 1798.9 2050.6 1804.4 2054.4 1810.3 2065.5 1822.2 2073.1 1835.7 2078.6 1856.4 2025.2 1869.1 1987.1 1880.9 1993 1900.3 2015 1894 2040.5 1884.7 2056.2 1883.4 2088 1875.8 2102 1874.5 2129.5 1872.4 2154.5 1869.4 2171.9 1866.9 2189.3 1864.8 2196.1 1891.8 2196.1 1907 2178.3 1901.9 2151.2 1922.2 2131.2 1945.5 2109.6 1972.1 2133.8 1997.4 2130 2009.3 2107.1 2027.9 2091.8 2041.8 2068.8 2052.3 Z M 2067.6 1937.5 2072.7 1988.6 2080.8 1975.1 2103.7 1942.5 2093.9 1934.5 2067.6 1937.5 Z" data-holc_grade="D"/>
<path d="M 2546.4 1420.7 2542.1 1382.3 2523.4 1283.1 2533.6 1283.1 2546.7 1286.4 2558.2 1292.8 2565 1300.8 2578.1 1316 2594.2 1333.3 2605.3 1346.4 2601 1361.6 2580.3 1388.6 2567.1 1400 2554 1412.3 2546.4 1420.7 Z" data-holc_grade="D"/>
<path d="M 698.4 638.2 716.2 633.1 738.2 646.6 753.4 649.2 770.4 649.2 811.5 662.7 825.4 667.8 847.1 666.1 834.8 699.4 831.8 739.1 831.8 760.2 836 770.7 839.4 783.8 815.6 792.3 789 788 763.1 775.8 723.7 772 705.9 774.9 660.6 769 663.6 744.1 669.1 738.2 669.9 727.2 674.2 698.9 680.1 663.5 708.1 674 698.4 638.2 Z" data-holc_grade="D"/>
<path d="M 703.7 1063.2 654.9 1043.1 624.7 1069.4 609.9 1065.7 595.1 1083.1 587.1 1095.3 582.9 1112.2 577 1138.5 575.9 1148.6 550 1143.3 520.3 1133.2 504.4 1121.1 487.5 1113.2 480.1 1108.9 489.1 1093.6 497.6 1073.6 499.2 1055.6 504.5 1039.3 520.4 1030.3 541.1 1016.1 558.6 1003.4 563.3 986.6 569.2 954.4 571.8 918 578.2 892.1 583 876.3 605.3 851.5 623.3 830.4 634.4 816.7 652.4 789.3 679.4 791.9 681 831 682.6 885.8 685.7 958.1 692.1 982.9 695.2 1020.4 720.1 1033.6 703.7 1063.2 Z M 364.8 1109 376.3 1068.9 387.3 1040.6 400 1008.1 407.3 980.7 414.5 952.4 420.8 930.9 429.3 906 435.3 885.3 442.5 866.3 447.2 845.6 451.8 827.5 476 832.6 473.1 792.9 476.9 789.1 493 793.7 501.4 825 527.7 832.6 530.7 826.7 523.9 822.5 509.5 800.1 519.2 791.2 542.1 814 548.5 804.3 537.9 797.1 541.3 775.2 548.1 740.6 552.3 715.7 566.7 721.2 571.4 730.9 582.4 757.1 590.9 767.2 601 778.2 615.9 782.8 603.1 796.8 595.5 805.2 579.8 818.7 579.8 822.5 573.9 841.1 556.9 862.6 545 884.5 524.7 950.8 510.2 943.6 507.7 953.3 495 954.1 467.4 965.1 447.5 978.6 433.9 1026.3 420.3 1065.1 397.4 1120.4 364.8 1109 Z" data-holc_grade="D"/>
<path d="M 771.6 1301.6 776.9 1280.5 786.4 1269.4 798.1 1253.5 819.3 1228.8 832 1215.6 852.1 1205.5 858 1204.5 878.6 1205.6 883.9 1192.9 910.4 1197.7 926.3 1205 903 1248.3 883.4 1262 870.1 1269.4 856.9 1266.2 836.7 1268.3 814.5 1278.4 800.7 1290 792.2 1307.4 771.6 1301.6 Z" data-holc_grade="D"/>
<path d="M 228 1289 245.6 1234 258.6 1179.3 276.1 1178.1 270.3 1213.3 253.7 1271.3 243.8 1279.1 228 1289 Z M 244.9 1146.8 215.3 1136.7 192.5 1128.8 193 1109.8 199.4 1083.9 171.3 1083.4 180.9 1032.7 221.7 1037.5 216.4 1087.7 236.5 1090.3 254.5 1117.2 244.9 1146.8 Z" data-holc_grade="D"/>
<path d="M 447.7 1273.2 466.3 1277.8 481.2 1281.2 487.5 1288.4 499.4 1305.3 491.7 1323.4 491.7 1336.1 496.8 1348.8 501.5 1361 501.5 1371.2 498.1 1397.3 495.9 1423.9 490.8 1437.9 483.6 1442.5 470.5 1451 456.5 1456.4 453.5 1464.9 447.6 1471.2 436.6 1455.2 404.8 1415.4 368.8 1370.7 352.7 1405.3 323.4 1397.2 321.3 1410.7 323.4 1428 318.3 1434.8 304.7 1444.9 285.6 1457.6 278.9 1466 279.7 1488.4 272.9 1494.7 258.9 1498.9 266.2 1438.1 278.9 1439 291.2 1432.7 298 1415.8 299.7 1389.6 300.6 1357.1 313.3 1316.1 321 1300.5 332 1285.3 342.2 1278.6 355.7 1274.4 387.1 1277.4 405.3 1276.1 433.7 1274.9 447.7 1273.2 Z M 481.1 1259.7 452.2 1261.7 406.8 1248.9 425.5 1210.4 440.4 1171.6 451.6 1171.2 467.2 1190.8 500.1 1198.3 498.4 1220.9 497.4 1241.2 507.5 1258.4 481.1 1259.7 Z" data-holc_grade="D"/>
<path d="M 145.4 1656.1 146.7 1637.5 159.8 1639.5 156.7 1656.4 145.4 1656.1 Z M 123.2 1635.1 121.1 1654 91 1646.2 95.4 1639.8 98.4 1633.7 123.2 1635.1 Z M 214.8 1453.9 163 1451.4 160.9 1468.3 161.2 1480.5 168.7 1502.8 171.7 1512.9 169.3 1524.8 138.1 1518.3 137.9 1516 132.8 1469.7 122.3 1467.3 120.3 1423.7 106.4 1424 93.5 1419.6 86.3 1424.4 86 1405.1 97.2 1400.4 108.1 1401.1 125.4 1402.8 126.4 1351.1 134.6 1308.2 166.1 1314 164.7 1349.1 169.1 1367.3 174.6 1378.5 189.8 1389.3 205 1410.6 210.1 1424.8 214.8 1453.9 Z" data-holc_grade="D"/>
<path d="M 1525.2 986.4 1509.9 1016.8 1458.6 986.8 1485.7 946.5 1492.7 942.7 1501.6 943.3 1513.7 947.1 1529.6 954.1 1525.2 986.4 Z" data-holc_grade="D"/>
<path d="M 1298.2 1963.8 1341.6 2101.7 1313.8 2111.1 1320.6 2129.4 1280.2 2140.9 1288 2163.5 1229.3 2184.1 1229.3 2173.7 1230.7 2160.5 1236.8 2141.2 1242.2 2126.3 1240.9 2116.2 1235.8 2102.3 1220.2 2075.3 1215.1 2066.9 1208.6 2030 1202.5 1995.5 1168.3 1991.5 1259.5 1964.1 1263.6 1974.3 1298.2 1963.8 Z M 1259.9 1727.1 1259.5 1760.9 1227.3 1760.1 1226.5 1728 1259.9 1727.1 Z" data-holc_grade="D"/>
</g>
</svg>