<?xml version="1.0"?>
<svg xmlns="http://www.w3.org/2000/svg" version="1.2" baseProfile="tiny" width="3000" height="3378" viewBox="0 0 3000 3378" stroke-linecap="round" stroke-linejoin="round">
<g id="A">
<path d="M 1417.1 2834.2 1291.2 2991.7 1304.5 3001.1 1243.6 3075 1178.7 3092.1 1154.9 3125.2 1243 3141.2 1233 3189.2 1220.3 3208 1213.1 3243.3 1087.3 3219.5 1081.7 3196.9 1096.1 3173.2 1024.1 3116.3 978.7 3084.3 1021.4 3042.4 1049.1 3006.6 1095.1 2956.9 881.8 2841 772.2 2744.4 781.6 2720.2 795.5 2737.8 829.8 2715.2 849.2 2712.5 855.3 2706.4 881.9 2696.5 911.8 2664.5 945.6 2688.2 962.6 2656.6 1179.8 2641.9 1219.7 2652.9 1221.9 2671.3 1204.9 2685.3 1247 2725 1261 2695.6 1300.2 2726.5 1276.6 2754.4 1338.6 2805.2 1354.9 2781.7 1417.1 2834.2 Z M 1289.2 2965 1286.4 2947.5 1289.2 2941.1 1228.7 2884.1 1201 2915.8 1275.5 2978.2 1289.2 2965 Z" data-holc_grade="A"/>
<path d="M 370.3 180.8 394.9 221.3 404.7 241.9 406.6 268.4 405.4 298.5 397.7 326.5 389.9 342.6 378.5 356.2 358.5 396.3 341.5 420.9 353.1 426.1 386.6 450.4 393.6 483.4 368.4 537.8 371.8 555.5 377.7 560.2 414.2 583.8 494.7 673.1 462.2 700 454 682.3 423.4 644.8 394.3 619.4 371.4 607.3 348.5 647.7 278.3 709.8 256.2 722.3 229.6 799.5 177.9 851.7 156.4 885.1 154.2 899.1 134.6 935.1 112.5 915.6 95.9 904.6 92.6 896.9 136.5 818.6 176.8 771.2 177.2 721.6 275.8 636.7 324.1 589.3 337.1 533.4 244.2 488.5 207 524.5 164.1 486.7 86.6 554.6 88.4 583.3 46.7 605.3 30.1 571.9 29 563.1 25.7 538.8 28.7 521.5 41.2 501.7 50.8 469.7 1 454.2 196.1 72.1 237.3 94.1 261.9 56.9 300.4 34.1 315.7 23 319 15.9 320.6 4.3 343.9 1 350.3 5.1 348 72.1 352.7 74.9 350.5 145.7 370.3 180.8 Z" data-holc_grade="A"/>
<path d="M 688.8 312.1 617.1 310.7 604.9 307.4 594 296.9 619.8 186.7 724.9 217 688.8 312.1 Z" data-holc_grade="A"/>
<path d="M 823.4 329.5 826 401.7 836.6 425.2 856.9 451.4 861.9 605.8 898.4 624.6 894.2 664.1 901.1 808.4 851.3 804.7 849.9 691.2 853.6 655.4 816.2 633.3 814.8 600.2 706.9 598.8 675.9 606.6 659.8 612.6 641.8 616.3 641.8 569.9 663 563.9 696.7 551 722.1 550.1 821.8 556.1 817.6 469.3 786.3 410 789.7 326.4 823.4 329.5 Z" data-holc_grade="A"/>
</g>
<g id="B">
<path d="M 1081.7 3196.9 1035.2 3254.6 977.2 3244.3 974.9 3263.8 968.7 3283 965 3316.4 945.7 3377.1 826.4 3315.7 978.7 3084.3 1024.1 3116.3 1096.1 3173.2 1081.7 3196.9 Z" data-holc_grade="B"/>
<path d="M 1443.4 2557.1 1519.6 2633.1 1489.3 2673.5 1472.3 2661 1445 2697.8 1421.4 2678.7 1368.9 2740.5 1446.5 2805.2 1422.8 2839 1417.1 2834.2 1354.9 2781.7 1338.6 2805.2 1276.6 2754.4 1300.2 2726.5 1261 2695.6 1247 2725 1204.9 2685.3 1221.9 2671.3 1219.7 2652.9 1179.8 2641.9 962.6 2656.6 1024.7 2511.7 1075.7 2407 1110.9 2411 1112.4 2394.5 1235.7 2225 1245.7 2231.6 1260.1 2266.5 1241.6 2273.1 1203.2 2328.7 1213.2 2347 1291.5 2330.1 1351.8 2407 1339.3 2438.6 1326 2537.6 1379.5 2542.3 1365.9 2558.2 1410.3 2596.8 1443.4 2557.1 Z" data-holc_grade="B"/>
<path d="M 1327.4 888.7 1329.6 912.9 1288.6 923.4 1279.3 903.3 1280 903.5 1327.4 888.7 Z M 1485.8 347.6 1491 340.7 1511.3 342.9 1519 344.4 1535.9 440.9 1490.4 464.5 1429.5 513.9 1475.7 539.2 1469.9 552.3 1514 579.2 1504.7 593.9 1552 616.4 1579.7 726 1554.1 754 1570 776.5 1521.6 811.4 1483.5 923.6 1374.4 880.4 1402.1 822.7 1383.4 799 1426.3 771 1434.6 751.5 1423.8 733.1 1355.2 778.6 1333.5 808.4 1302.2 782.7 1328.2 745.7 1239.1 673.3 1139.1 796.8 1119.7 751.6 1041.4 714.1 1076 630.3 1095.4 573.2 1192.3 443.1 1135.8 427.4 1117 419.7 1072.4 382.2 1039.5 368.6 987.2 366.4 971.4 362.6 890.7 337.7 863.3 332.5 823.4 329.5 789.7 326.4 782.5 320.1 698.6 341.8 676.2 338.5 664.4 436.9 608.5 424.5 616.8 339.1 565 323.3 528.2 321.7 518.5 317.5 444.6 343.4 386.6 450.4 353.1 426.1 405.7 341.8 460.3 300.7 512 288.3 452.8 232.6 441.7 226.8 425.1 221 409.3 217.4 394.9 221.3 370.3 180.8 382.8 173.9 426.2 173.6 450.9 180 465 190.7 477.4 205.9 494.1 227.7 508.2 242.8 559.9 272.6 594 296.9 604.9 307.4 617.1 310.7 688.8 312.1 694 309.6 713.1 310.7 731.4 302.2 744.4 287.8 755.2 234.1 760.5 226.6 769.3 223.3 768.5 207.9 777.9 199.6 787.3 196.3 797.3 199.9 803.7 211.2 804.8 219.2 801.2 231.3 785.7 256.4 775.7 291.1 891.8 297.8 920.9 211.5 913.4 202.7 936.7 155.5 901.5 138.4 929.2 87.7 990.9 120.8 988.7 124.1 1011.4 136 989.3 181.2 1038 209.6 1046 192.5 1060.1 201.3 1117.6 87.7 1125.9 85.8 1164.7 100.4 1187.6 116.4 1194.3 64.9 1208.8 67.4 1234 79.2 1260 106.2 1269.2 144.5 1309.6 209.1 1265.8 237.4 1252.8 434.8 1352.5 528.3 1413.1 450.3 1405.1 442.6 1439.8 395.4 1485.8 347.6 Z M 1199.2 174.5 1176.7 220.8 1154.6 214.9 1146.1 251.3 1108.1 267.5 1073.4 242.1 1025 235.9 988.1 257.2 962.6 283.3 952.3 315.6 992.2 328.1 1077.4 330.7 1086.7 335.5 1112.9 353.1 1140.9 382.2 1156 390.3 1193 397.2 1209.6 214.9 1233.6 196.6 1210.3 158.7 1199.2 174.5 Z" data-holc_grade="B"/>
</g>
<g id="C">
<path d="M 1443.4 2557.1 1410.3 2596.8 1365.9 2558.2 1379.5 2542.3 1326 2537.6 1339.3 2438.6 1351.8 2407 1291.5 2330.1 1213.2 2347 1203.2 2328.7 1241.6 2273.1 1260.1 2266.5 1245.7 2231.6 1235.7 2225 1112.4 2394.5 1110.9 2411 1075.7 2407 1027.4 2401.5 980.5 2420.6 949.9 2341.5 979.8 2338.9 995.3 2311 1034.8 2336.7 1007.9 2209.9 944.4 2160.6 927.7 2119.7 828.4 2077.4 880.1 1987.4 997.2 1959.1 1278 2152.5 1253.2 2198.8 1264.7 2211.3 1314.6 2134.9 1395.1 2210.3 1409.5 2212.5 1412.4 2198.5 1394.3 2194.8 1382.9 2179 1386.6 2158.4 1332.3 2112.1 1415.9 2068.3 1492.7 2080.8 1546.2 1932.2 1613.8 1877.8 1646 1855 1721.3 1810.9 1740.5 1793.6 1781.5 1851.3 1794.4 1909.4 1787 1913.5 1796.3 1952.1 1857.9 1938.1 1867.9 1988.5 1852 1994.7 1882.3 2035.6 1860.5 2060.6 1864.6 2087 1894.9 2109.8 1832.1 2152.5 1813.6 2119.4 1780 2156.6 1776 2153.2 1730.9 2204.7 1697.7 2187.8 1620.1 2330.5 1526.3 2275.3 1465.7 2374.6 1552.9 2425.4 1443.4 2557.1 Z M 1837.5 2067.2 1787.2 2007.8 1721.7 2011.5 1707.3 2013.7 1567.2 2031.4 1562.2 2060.1 1726.2 2156.6 1757.8 2132.3 1771.6 2149.4 1837.5 2067.2 Z" data-holc_grade="C"/>
<path d="M 2391.7 1691.6 2298.4 1565.2 2204.7 1630.1 2153.9 1557.5 2169.6 1546 2161.3 1533.6 2325.4 1417.5 2398.8 1509.8 2499.9 1652.3 2445.9 1688.1 2433.4 1666.6 2391.7 1691.6 Z" data-holc_grade="C"/>
<path d="M 1885.2 1814.2 1984.9 1737.9 2007.6 1768.2 1973.4 1793.5 1998.8 1830.3 1967.9 1851 1974.8 1858.8 1954.9 1873.5 1961.9 1884.5 1943.4 1897.8 1885.2 1814.2 Z" data-holc_grade="C"/>
<path d="M 2142.8 1482.5 2102.7 1420 2071.3 1439.4 2004.8 1337.3 2090.2 1270.2 2158.1 1368.1 2211.6 1330.4 2258.7 1401.6 2142.8 1482.5 Z" data-holc_grade="C"/>
<path d="M 2224.3 930 2314.6 1085.5 2369.9 1156.6 2396 1202.4 2367.2 1219.5 2356.7 1194.6 2338.4 1205.1 2309.6 1172 2257 1212.9 2250.7 1194.8 2237.9 1208.6 2221.9 1213 2239.6 1227.3 2221.3 1243.9 2168.7 1210.8 2158.2 1200.3 2066.8 1124.2 1962.1 1057 2026.3 994.7 2012.5 946.1 2039.6 939 2041.3 930.7 2057.3 929 2094.4 972 2074.5 980.3 2155.9 1076.8 2185.3 1047 2194.1 1048.1 2235.1 1146.8 2260.1 1129.7 2272.2 1143 2297.2 1124.8 2278.9 1103.3 2265 1075.7 2188 947.8 2183 935.1 2145.4 950 2136 937.3 2116.6 943.4 2114.4 934.5 2098.9 924.6 2086.7 920.2 2061.2 925.2 2108.3 803.9 2122.1 756.4 2128.7 754.8 2147 716.2 2253.3 771.8 2221.8 845.7 2215.7 844.1 2194.1 910.3 2208 921.8 2215.2 939.5 2224.3 930 Z" data-holc_grade="C"/>
<path d="M 2147 716.2 2128.7 754.8 2122.1 756.4 2108.3 803.9 2061.2 925.2 2057.3 929 2041.3 930.7 2039.6 939 2012.5 946.1 1983.5 953.9 1954.9 964 1943.4 917.2 1954 890.5 1988.6 899.2 1983.1 874 1933.7 858.3 1926.3 878.1 1903.7 914.9 1913.4 920.4 1888 955.8 1900 964.9 1891.2 985.2 1878.3 1014.1 1804 951.6 1773.1 964.5 1768 953.9 1751.6 937.8 1693.9 897 1590.9 655.7 1596 649.3 1592.3 625.9 1728.5 726 1689.7 784.8 1668.5 770.1 1659.7 784.8 1667.1 793.6 1696.6 814.2 1705.4 842.3 1757.5 868.5 1774.6 841.8 1778.3 841.3 1788.5 848.7 1800.9 831.7 1838.3 861.6 1865.5 868 1883.1 839 1868.8 837.7 1878.4 816.5 1838.8 794 1861.4 744.8 1827.7 730.6 1860 653.9 1824.9 632.7 1821.2 650.7 1661.5 571.6 1674.5 539.5 1578.9 494.4 1564.6 482 1553.1 460.9 1553.1 432.9 1600.2 439.8 1602 430.1 1815.7 528.4 1806.4 541.3 1883.5 589.1 1909.8 550 1918.1 552.8 1937.5 518.3 2003 568.4 1977.2 610.7 2003.9 623.1 2003.9 635.5 1986.9 675 2001.5 689.2 2009.8 703 2013.5 714 2057.8 697 2062 685.1 2070.3 681.9 2084.1 652.5 2120.1 669.9 2107.6 695.2 2147 716.2 Z" data-holc_grade="C"/>
<path d="M 1511.3 342.9 1491 340.7 1485.8 347.6 1447.1 316.4 1422 279.6 1413.5 266.4 1409.4 245.1 1388.7 216.1 1390.6 195.8 1399.1 178.6 1419.8 134.5 1453.7 116.5 1489.1 146.2 1468.8 222.3 1454.8 238.5 1465.9 252.8 1467 268.6 1467.4 268.6 1472.5 273.4 1515 222.3 1510.2 237 1504.3 318.2 1510.2 328.5 1511.3 342.9 Z" data-holc_grade="C"/>
<path d="M 1608.7 2565.4 1776.3 2403.6 1776.3 2403.1 1692.7 2350.7 1635 2390.3 1616.5 2371.4 1641.9 2342 1694.1 2309.8 1764.7 2357.2 1812.3 2298.3 1833.5 2315.8 1901.8 2304.7 1937.8 2336.5 1974.8 2350.2 1983.5 2404 1978.5 2421.5 1969.7 2433.5 1958.6 2442.6 1942.5 2445.9 1924.9 2473 1926.8 2502 1911.5 2543.8 1859.8 2531.8 1840.4 2531.8 1833.5 2527.7 1773 2577.8 1786 2585.2 1699.6 2660.1 1608.7 2565.4 Z" data-holc_grade="C"/>
<path d="M 1838.6 2171.4 1908.7 2122.7 2043.5 2308.9 2013.5 2330.5 1980.3 2314.4 1935.5 2257.9 1906.4 2274.4 1838.6 2171.4 Z" data-holc_grade="C"/>
<path d="M 2085.2 2504.9 2111.8 2546.8 2142.3 2588.7 2157.3 2578.2 2179.4 2611.3 2194.4 2600.3 2247 2661 2223.8 2685.8 2340.7 2795 2359 2823.1 2375.1 2839.1 2360.1 2857.9 2343.5 2881.1 2267.1 2990.9 2205 2942.9 2257.6 2881.7 2264.3 2867.3 2125.2 2733.8 2096.9 2700.7 2067 2715.6 2037.6 2645 2038.2 2578.3 2030.9 2540.7 2032.1 2530.3 2040.9 2531.4 2085.2 2504.9 Z" data-holc_grade="C"/>
<path d="M 2424.4 2823.5 2313.6 2713.2 2312.1 2697 2298.8 2667.2 2316.5 2645.9 2359.7 2666.5 2382.3 2635.2 2398.9 2640.7 2405.9 2689.6 2414 2685.2 2424.4 2702.9 2534.5 2758 2424.4 2823.5 Z" data-holc_grade="C"/>
<path d="M 1740.5 1793.6 1721.3 1810.9 1646 1855 1460.2 1719.9 1342.8 1664 1392.3 1568.4 1490.5 1614 1596.9 1707.4 1631.6 1653 1545.2 1618.4 1472.8 1542.7 1466.9 1472.8 1469.8 1297.1 1485.3 1319.9 1592.4 1250.7 1673.7 1358.8 1701 1402.9 1791.1 1519.9 1755.6 1547.8 1781.5 1581.6 1785.2 1604.4 1801.4 1622.1 1769.7 1652.2 1796.3 1695.6 1732 1743.4 1756.4 1780.9 1740.5 1793.6 Z M 1546.6 1335 1515.5 1355.6 1589.1 1452.2 1601.1 1443 1642.2 1500.5 1689.3 1466 1665.7 1430.6 1650 1439.4 1617.3 1396.6 1602.5 1407.2 1546.6 1335 Z" data-holc_grade="C"/>
<path d="M 2731.9 1910.7 2697.7 1931.9 2688.8 1918.1 2659.8 1934.4 2669.2 1947.9 2629 1981.6 2643.5 2003.1 2648.7 2014.4 2650.9 2030.7 2664.2 2036.7 2645.4 2074 2663.7 2078.1 2695.8 2089.7 2702.7 2068.2 2690.8 2044.2 2704.7 2025.4 2715.2 2040.3 2752.6 2008.6 2760.9 2019.1 2772 2012.7 2798.9 2054.9 2814.9 2046.9 2779.4 1993.7 2784.4 1989.6 2802.9 1977.8 2795 1966.4 2834.4 1938.3 2925.8 2067.9 2934.6 2061.9 2960.9 2099.4 2972.4 2089.9 2981.7 2167.2 2875.5 2171.8 2878.1 2202.6 2929.1 2198.7 2948 2245.1 2999 2289 2991.6 2306 2971.5 2322.5 2885 2318 2883.1 2245.3 2816.2 2228.8 2808.1 2186.3 2816.6 2152.1 2795.4 2138.3 2773.9 2135.5 2766.8 2206.3 2707.8 2193.9 2675.7 2181.8 2665.6 2187.3 2621.9 2163.2 2634.2 2149.6 2598.4 2119.3 2576.8 2170.4 2561.1 2172.7 2548.2 2178.3 2533.4 2199.4 2520 2195.3 2487.2 2278 2459.1 2265.2 2457.7 2235.8 2415.7 2273 2416.6 2223.4 2327.2 2202.7 2278.3 2218.3 2266.7 2198.6 2194.3 2245.9 2113.6 2133.1 2174 2087.8 2181.3 2082.9 2205.8 2066.5 2287 2012.2 2312.4 2047.5 2285.3 2066.3 2317.4 2107.1 2344 2087.2 2352.3 2095.5 2375.1 2078.4 2302.5 1983 2354 1942.2 2350.1 1935 2385.5 1908 2376.7 1897.5 2403.3 1879.8 2393.8 1864.9 2419.9 1847.3 2391 1804.3 2481.3 1750 2495.4 1768.1 2582.7 1705.6 2703.4 1867.8 2731.9 1910.7 Z M 2500.1 2018.3 2559.9 2036.5 2566.8 2015.5 2527 2003.1 2547.9 1948.9 2586.2 1960.9 2602.8 1930.9 2586.5 1899.4 2609.2 1882 2598.9 1859.2 2502.3 1901.9 2500.1 2018.3 Z" data-holc_grade="C"/>
<path d="M 2263.3 2551.6 2158.3 2411.6 2157.8 2411 2197 2386.1 2237.7 2441.2 2280.5 2409.6 2317.4 2458.5 2351.8 2431.6 2373.6 2468.8 2388 2458.8 2432.7 2459.9 2431.9 2436.8 2474.8 2409.9 2487.3 2428.7 2489.2 2436 2591.5 2417.2 2622.9 2437.8 2611.1 2473.9 2572.3 2515.1 2532 2521 2461.5 2567 2454.9 2563.6 2426 2566.2 2410.9 2542.7 2380.6 2556.7 2372.5 2545.3 2338.5 2570.7 2334.1 2565.1 2307.1 2582.4 2292.3 2562.2 2278.7 2571.4 2263.3 2551.6 Z" data-holc_grade="C"/>
<path d="M 2383.4 1697.4 2398.5 1719.9 2122.1 1907.9 2008 1990.2 1968.3 1931.4 2042.2 1874.8 2017.3 1838.5 2016.8 1825.7 2019.6 1820.6 2045.9 1806.4 2033.9 1784.8 2044 1777.9 2028.8 1753 2051 1736.7 2065.8 1729.4 2110.1 1790 2166 1754.6 2183.1 1779.4 2254.1 1730.7 2214.4 1673.3 2284.6 1625.4 2304.4 1629.6 2362.6 1711.8 2383.4 1697.4 Z" data-holc_grade="C"/>
</g>
<g id="D">
<path d="M 2263.3 2551.6 2232.2 2572.5 2211.2 2543.8 2180.2 2568.1 2200.5 2595 2194.4 2600.3 2179.4 2611.3 2157.3 2578.2 2142.3 2588.7 2111.8 2546.8 2085.2 2504.9 2115.9 2483.9 2091.5 2449.3 2153.2 2404.8 2157.8 2411 2158.3 2411.6 2263.3 2551.6 Z M 2120.5 2463.1 2113.1 2454.6 2105 2460.9 2111.6 2470.4 2120.5 2463.1 Z" data-holc_grade="D"/>
<path d="M 2391 1804.3 2419.9 1847.3 2393.8 1864.9 2403.3 1879.8 2376.7 1897.5 2385.5 1908 2350.1 1935 2354 1942.2 2302.5 1983 2375.1 2078.4 2352.3 2095.5 2344 2087.2 2317.4 2107.1 2285.3 2066.3 2312.4 2047.5 2287 2012.2 2205.8 2066.5 2181.3 2082.9 2174 2087.8 2113.6 2133.1 2040.5 2029.9 2107.5 1983 2116.9 1996.3 2159.5 1965.9 2146.2 1950.5 2169 1937.2 2203.3 1913 2267 1865 2275.3 1879.3 2294.1 1867.7 2286.4 1855 2366.1 1799.9 2374.4 1814.7 2391 1804.3 Z" data-holc_grade="D"/>
<path d="M 2816.2 2228.8 2817.1 2313.4 2722.2 2305 2714.5 2323.3 2700.1 2340.3 2673.5 2356.8 2595.5 2321.9 2549 2306.1 2564.1 2257.6 2587.4 2236.2 2597 2220.8 2602.2 2206.1 2601.8 2184 2621.9 2163.2 2665.6 2187.3 2675.7 2181.8 2707.8 2193.9 2766.8 2206.3 2773.9 2135.5 2795.4 2138.3 2816.6 2152.1 2808.1 2186.3 2816.2 2228.8 Z" data-holc_grade="D"/>
<path d="M 2784.4 1989.6 2779.4 1993.7 2814.9 2046.9 2798.9 2054.9 2772 2012.7 2760.9 2019.1 2752.6 2008.6 2715.2 2040.3 2704.7 2025.4 2690.8 2044.2 2702.7 2068.2 2695.8 2089.7 2663.7 2078.1 2645.4 2074 2664.2 2036.7 2650.9 2030.7 2648.7 2014.4 2643.5 2003.1 2629 1981.6 2669.2 1947.9 2659.8 1934.4 2688.8 1918.1 2697.7 1931.9 2731.9 1910.7 2784.4 1989.6 Z" data-holc_grade="D"/>
<path d="M 2500.1 2018.3 2502.3 1901.9 2598.9 1859.2 2609.2 1882 2586.5 1899.4 2602.8 1930.9 2586.2 1960.9 2547.9 1948.9 2527 2003.1 2566.8 2015.5 2559.9 2036.5 2500.1 2018.3 Z" data-holc_grade="D"/>
<path d="M 2391.7 1691.6 2383.4 1697.4 2362.6 1711.8 2304.4 1629.6 2284.6 1625.4 2214.4 1673.3 2254.1 1730.7 2183.1 1779.4 2166 1754.6 2110.1 1790 2065.8 1729.4 2051 1736.7 2040 1719.7 2056.6 1711 2043.6 1692.6 2056.6 1682.5 2043.6 1660.4 2064.9 1647.6 2048.7 1626 2073.6 1611.7 2063 1599.8 2062.5 1599.8 2161.3 1533.6 2169.6 1546 2153.9 1557.5 2204.7 1630.1 2298.4 1565.2 2391.7 1691.6 Z" data-holc_grade="D"/>
<path d="M 2090.2 1270.2 2004.8 1337.3 2071.3 1439.4 2102.7 1420 2142.8 1482.5 2079.2 1527.1 1963.8 1602.1 1929.2 1631 1915.3 1610.3 1940.7 1589.7 2017.3 1540 1903.3 1376.4 1848.4 1413.6 1819.7 1382.4 1818.4 1367.2 1988.7 1257.8 1979 1229.8 1963.7 1220.1 1919 1155.4 1955.4 1131 1995.6 1190.3 2011.3 1188.4 2036.6 1194.4 2090.2 1270.2 Z" data-holc_grade="D"/>
<path d="M 2224.3 930 2263 907.9 2311.8 934.9 2429.8 1128.4 2414.8 1139.5 2412.6 1146.1 2399.9 1149.4 2458 1256.9 2448.6 1258.6 2425.9 1273.5 2421.5 1285.1 2292.4 1263 2260.9 1233.8 2257 1212.9 2309.6 1172 2338.4 1205.1 2356.7 1194.6 2367.2 1219.5 2396 1202.4 2369.9 1156.6 2314.6 1085.5 2224.3 930 Z" data-holc_grade="D"/>
<path d="M 2185.3 1047 2184.6 1042.2 2123.6 974.2 2144.7 965.1 2137.7 954.4 2145.4 950 2183 935.1 2188 947.8 2265 1075.7 2278.9 1103.3 2297.2 1124.8 2272.2 1143 2260.1 1129.7 2235.1 1146.8 2194.1 1048.1 2185.3 1047 Z" data-holc_grade="D"/>
<path d="M 1592.3 625.9 1569.5 527.7 1572.1 502.7 1578.9 494.4 1674.5 539.5 1661.5 571.6 1821.2 650.7 1824.9 632.7 1860 653.9 1827.7 730.6 1861.4 744.8 1838.8 794 1878.4 816.5 1868.8 837.7 1883.1 839 1865.5 868 1838.3 861.6 1800.9 831.7 1788.5 848.7 1778.3 841.3 1774.6 841.8 1757.5 868.5 1705.4 842.3 1696.6 814.2 1667.1 793.6 1659.7 784.8 1668.5 770.1 1689.7 784.8 1728.5 726 1592.3 625.9 Z" data-holc_grade="D"/>
</g>
</svg>