<?xml version="1.0"?>
<svg xmlns="http://www.w3.org/2000/svg" version="1.2" baseProfile="tiny" width="3000" height="3216" viewBox="0 0 3000 3216" stroke-linecap="round" stroke-linejoin="round">
<g id="A">
<path d="M 2210 323.7 2147 391.7 2152.8 403.2 2094.7 446 2045.9 390.8 1923.9 252.9 2062.1 77.1 2365.4 155.7 2210 323.7 Z" data-holc_grade="A"/>
<path d="M 962.6 817.2 1010.3 824.1 1068.4 827.6 1081.7 924.8 1089.3 980.3 1000.9 952.5 957.9 927.1 902.2 892.4 890.5 880.8 946.3 811.4 962.6 817.2 Z" data-holc_grade="A"/>
</g>
<g id="B">
<path d="M 850.4 517 663.1 458.3 584.3 433.7 549.4 445.2 518 423.2 498.3 438.3 420.4 366.5 384.4 400.1 315 356.7 197.3 283.2 281 219.6 234.6 181.4 231.1 1 289.2 6.8 286.9 25.3 291.6 35.7 312.5 47.3 338 77.4 361.3 92.4 364.7 102.8 383.3 120.2 407.7 137.5 457.7 160.7 479.8 174.6 497.2 193.1 537.8 238.2 590.1 311.1 614.5 315.7 860.9 347 850.4 517 Z" data-holc_grade="B"/>
<path d="M 945.9 709.2 954.5 744.3 956.8 765 962.6 817.2 946.3 811.4 890.5 880.8 882.4 872.7 852.2 854.2 826.6 827.6 789.4 792.9 825.5 755.9 862.7 761.7 932.4 654.1 945.9 709.2 Z" data-holc_grade="B"/>
<path d="M 1444.9 1001.2 1406.6 1052.1 1324.1 1034.7 1345 997.7 1406.6 930.6 1463.5 976.9 1444.9 1001.2 Z" data-holc_grade="B"/>
<path d="M 1272.9 653 1272.9 791.8 1297.3 824.2 1286.6 840.7 1274.1 860 1245 840.4 1227.6 867 1157.9 872.7 1161.4 842.7 1102.1 847.3 1112.5 920.2 1081.7 924.8 1068.4 827.6 1010.3 824.1 962.6 817.2 956.8 765 982.4 774.4 1060.2 779 1090.5 780.2 1130 777.9 1156.7 774.4 1142.8 621.7 1092.8 622.9 1076.5 525.7 1073.1 525 1161.4 529.2 1174.2 618.3 1272.9 610.2 1272.9 653 Z" data-holc_grade="B"/>
<path d="M 2207.3 373.8 2205.1 413.6 2309.8 531.6 2329.5 520 2350.4 540.8 2374.8 531.6 2406.2 559.3 2396.9 579 2386.5 609.1 2372.5 602.1 2315.6 650.7 2165.6 498.1 2039 601 1982 468 2045.9 390.8 2094.7 446 2152.8 403.2 2147 391.7 2210 323.7 2207.3 373.8 Z" data-holc_grade="B"/>
<path d="M 1094.7 1080.8 1091.6 1130.7 1100.9 1144.6 1110.2 1159.6 1097.4 1175.8 1096.2 1197.8 1189.2 1199 1184.4 1281.3 1183.4 1298.5 1110.2 1297.3 1113.7 1244.1 1071.1 1242.8 1071.8 1220.9 1045.1 1219.8 1041.6 1241.8 947.4 1242.9 948.6 1186.2 918.4 1182.7 891.7 1160.8 887 1075.1 1094.7 1080.8 Z" data-holc_grade="B"/>
</g>
<g id="C">
<path d="M 1342.7 655.3 1333.4 773.3 1370.6 791.8 1364.7 820.7 1420.5 867 1482.1 914.4 1533.3 961.8 1646 1009.3 1635.4 1027.6 1615.8 1061.3 1542.6 1025.5 1526.3 1049.8 1444.9 1001.2 1463.5 976.9 1406.6 930.6 1345 997.7 1324.1 1034.7 1241.5 1012.7 1277.6 965.3 1312.4 907.5 1343.8 884.3 1286.6 840.7 1297.3 824.2 1272.9 791.8 1272.9 653 1342.7 655.3 Z" data-holc_grade="C"/>
<path d="M 1682.3 1290.2 1663.9 1322.9 1599.9 1398.1 1588.8 1389.4 1577.7 1380.8 1635.8 1295 1579.6 1255.5 1524.4 1336.4 1498.2 1325.8 1579.6 1214 1682.3 1290.2 Z" data-holc_grade="C"/>
<path d="M 663.1 458.3 648.2 520.8 640.4 541.6 647.4 565.5 579.2 497.7 564.7 505.5 545.1 516.2 384.4 400.1 420.4 366.5 498.3 438.3 518 423.2 549.4 445.2 584.3 433.7 663.1 458.3 Z" data-holc_grade="C"/>
<path d="M 234.6 181.4 281 219.6 197.3 283.2 70.7 225.3 32.4 204.5 1 173.2 65 77.3 224.1 191.8 234.6 181.4 Z" data-holc_grade="C"/>
<path d="M 2386.5 609.1 2396.9 579 2406.2 559.3 2374.8 531.6 2350.4 540.8 2329.5 520 2309.8 531.6 2205.1 413.6 2207.3 373.8 2262.1 381.2 2409.7 362.7 2412 322.2 2418.9 249.3 2420.1 225 2407.3 188 2393.3 133.7 2448 162.6 2466.6 255.1 2471.2 316.4 2516.6 318.7 2572.3 300.2 2530.5 441.3 2492.2 441.3 2451.5 457.5 2429.5 517.7 2414.4 579 2403.9 620.6 2386.5 609.1 Z" data-holc_grade="C"/>
<path d="M 662.7 1104 612.7 1210.4 531.3 1217.4 470.9 1217.3 413.9 1230.1 308.1 1230 208.2 1184.9 205.9 1047.2 204.8 909.5 287.3 922.3 415.2 937.4 497.6 1051.9 579 1084.3 662.7 1104 Z" data-holc_grade="C"/>
<path d="M 1639.3 2425.7 1605.6 2828.5 1497.4 2827.3 1485.8 2778.7 1488.1 2724.3 1362.5 2718.5 1402.1 2614.3 1459.1 2484.7 1507.9 2489.4 1520.7 2467.4 1576.5 2460.4 1578.8 2424.5 1639.3 2425.7 Z" data-holc_grade="C"/>
<path d="M 1497.4 2827.3 1461.4 2826.1 1461.4 2851.6 1400.9 2843.5 1388.1 3110.9 1266 3110.9 1248.5 3157.2 1168.3 3154.8 1195.1 3053 1252.1 2928 1283.5 2921 1307.8 2858.6 1362.5 2718.5 1488.1 2724.3 1485.8 2778.7 1497.4 2827.3 Z" data-holc_grade="C"/>
<path d="M 1168.5 996.7 1089.3 980.3 1081.7 924.8 1112.5 920.2 1102.1 847.3 1161.4 842.7 1157.9 872.7 1227.6 867 1224.1 932.9 1189.2 928.3 1185.7 951.4 1168.5 996.7 Z" data-holc_grade="C"/>
<path d="M 1073.1 525 1076.5 525.7 1092.8 622.9 1142.8 621.7 1156.7 774.4 1130 777.9 1090.5 780.2 1060.2 779 982.4 774.4 956.8 765 954.5 744.3 945.9 709.2 1071.9 710.8 1054.5 521.1 1073.1 525 Z" data-holc_grade="C"/>
<path d="M 1094.7 1080.8 887 1075.1 891.7 1160.8 918.4 1182.7 948.6 1186.2 947.4 1242.9 1041.6 1241.8 1045.1 1219.8 1071.8 1220.9 1071.1 1242.8 1070.6 1256.8 1068.3 1278.8 1074.1 1304.2 1068.3 1336.6 1027.6 1347 1000.9 1348.2 989.3 1358.6 907.9 1372.5 833.5 1381.7 838.2 1223.2 827.7 1037 858 1040.4 883.5 1031.2 963.7 1030 1075.3 1039.3 1097.4 1038.2 1094.7 1080.8 Z" data-holc_grade="C"/>
<path d="M 1322 1188 1349.6 1208.2 1354.3 1238.3 1214.8 1233.7 1207.8 1281.1 1184.4 1281.3 1189.2 1199 1096.2 1197.8 1097.4 1175.8 1110.2 1159.6 1170.6 1153.9 1283.4 1159.6 1322 1188 Z" data-holc_grade="C"/>
<path d="M 1915.7 865.8 1947 914.4 1956.3 915.5 1992.4 946.8 2021.4 974.5 2071.4 1032.4 2129.6 1076.3 2107.5 1105.2 2049.3 1062.4 2031.9 1082.1 1978.4 1056.7 1866.9 1043.9 1873.8 1023.1 1815.7 1012.7 1783.2 1022 1727.4 1019.7 1749.5 978 1799.4 1002.3 1840.1 909.8 1868 927.1 1899.4 843.8 1915.7 865.8 Z" data-holc_grade="C"/>
<path d="M 1843.1 1189.9 1784 1170.6 1784 1163.9 1810.1 1092.5 1844 1104.1 1839.2 1120.5 1859.5 1127.2 1843.1 1189.9 Z" data-holc_grade="C"/>
<path d="M 2000.5 1155 1998.2 1168.9 1956.4 1164.2 1908.7 1222.1 1880.8 1201.3 1878.5 1172.4 1900.6 1136.5 2000.5 1155 Z" data-holc_grade="C"/>
<path d="M 1821.8 1219.8 1811.1 1245.8 1788.8 1273.8 1711.3 1283.4 1701.6 1239.1 1753 1215.9 1784.9 1209.2 1821.8 1219.8 Z" data-holc_grade="C"/>
</g>
<g id="D">
<path d="M 850.4 517 858.1 618 795.3 728.3 765.9 716.7 746.5 694.3 564.7 505.5 579.2 497.7 647.4 565.5 640.4 541.6 648.2 520.8 663.1 458.3 850.4 517 Z" data-holc_grade="D"/>
<path d="M 2403.9 620.6 2414.4 579 2429.5 517.7 2451.5 457.5 2492.2 441.3 2530.5 441.3 2600.3 445.9 2737.4 433.1 2865.2 431.9 2862.9 511.7 2813 508.3 2815.3 629.7 2873.4 625.1 2885 578.8 2998.9 584.5 2999 736.1 2973.4 732.6 2884 775.5 2877.1 979 2679.5 979.1 2564.4 885.5 2480.7 1013.9 2486.5 1026.6 2449.4 1078.7 2420.3 1059 2434.2 1018.5 2315.7 934.1 2313.3 745.6 2340 708.5 2407.4 636.8 2403.9 620.6 Z" data-holc_grade="D"/>
<path d="M 1403.2 3172.2 1404.4 3123.6 1425.3 3059.9 1449.8 2997.4 1481.2 2962.7 1564.9 2904.8 1667.2 2873.6 1656.8 2931.5 1623 2981.2 1624.2 3056.5 1624.2 3174.5 1477.7 3207 1454.4 3215.1 1385.8 3202.3 1397.4 3187.3 1403.2 3172.2 Z" data-holc_grade="D"/>
<path d="M 2129.6 1076.3 2071.4 1032.4 2021.4 974.5 1992.4 946.8 1956.3 915.5 1947 914.4 1915.7 865.8 1961 721.2 2019.1 744.3 2034.2 869.3 2076.1 919 2148.1 817.2 2187.6 873.9 2243.4 956 2219 995.3 2385.3 1119 2362 1161.9 2210.9 1062.4 2195.8 1093.6 2141.2 1055.5 2129.6 1076.3 Z" data-holc_grade="D"/>
<path d="M 1646 1009.3 1533.3 961.8 1482.1 914.4 1420.5 867 1364.7 820.7 1370.6 791.8 1333.4 773.3 1342.7 655.3 1348.5 563.9 1465.9 590.5 1599.5 617.1 1741.3 655.3 1961 721.2 1915.7 865.8 1899.4 843.8 1868 927.1 1840.1 909.8 1799.4 1002.3 1749.5 978 1727.4 1019.7 1646 1009.3 Z" data-holc_grade="D"/>
<path d="M 890.5 880.8 902.2 892.4 957.9 927.1 1000.9 952.5 1089.3 980.3 1168.5 996.7 1178.8 998.8 1170.6 1153.9 1110.2 1159.6 1100.9 1144.6 1091.6 1130.7 1094.7 1080.8 1097.4 1038.2 1075.3 1039.3 963.7 1030 883.5 1031.2 858 1040.4 827.7 1037 838.2 1223.2 797.5 1227.8 749.8 1230.1 666.1 1234.7 612.7 1210.4 662.7 1104 776.6 1093.6 780.1 980.3 845.2 978 852.2 854.2 882.4 872.7 890.5 880.8 Z" data-holc_grade="D"/>
<path d="M 1081.7 1388.5 1081.7 1504.2 1194 1505.2 1192.1 1558.2 1157.2 1830.1 673.7 1827.2 681.5 1744.2 688.3 1568.8 701.9 1495.5 697.1 1402 731 1393.3 833.5 1381.7 907.9 1372.5 989.3 1358.6 1000.9 1348.2 1027.6 1347 1025.5 1380.8 1081.7 1388.5 Z" data-holc_grade="D"/>
<path d="M 2143.4 1650.1 2199.6 1688.7 2217 1662.7 2320.7 1729.2 2267.4 1816.9 2161.8 1750.4 2085.3 1865.2 2025.2 1817 2143.4 1650.1 Z" data-holc_grade="D"/>
<path d="M 1635.4 1027.6 1656.1 1034.7 1694.8 1045.3 1706.5 1059.7 1778.2 1081.9 1810.1 1092.5 1784 1163.9 1784 1170.6 1843.1 1189.9 1839.2 1217.8 1821.8 1219.8 1784.9 1209.2 1753 1215.9 1701.6 1239.1 1690 1217.8 1671.6 1182.2 1641.6 1150.4 1593.1 1123.4 1516.6 1089.6 1499.2 1084.8 1526.3 1049.8 1542.6 1025.5 1615.8 1061.3 1635.4 1027.6 Z" data-holc_grade="D"/>
<path d="M 1701.6 1239.1 1711.3 1283.4 1682.3 1290.2 1579.6 1214 1498.2 1325.8 1482.7 1324.9 1422.7 1407.8 1457.5 1439.7 1413.9 1492.7 1386.8 1472.4 1358.7 1524.5 1314.2 1561.1 1192.1 1558.2 1194 1505.2 1081.7 1504.2 1081.7 1388.5 1109.8 1381.8 1112.7 1355.8 1150.5 1342.3 1252.2 1341.3 1252.2 1307.6 1243.5 1283.5 1207.8 1281.1 1214.8 1233.7 1354.3 1238.3 1349.6 1208.2 1322 1188 1398.4 1112.8 1448.8 1148.5 1499.2 1084.8 1516.6 1089.6 1593.1 1123.4 1641.6 1150.4 1671.6 1182.2 1690 1217.8 1701.6 1239.1 Z" data-holc_grade="D"/>
<path d="M 2107.5 1105.2 2062.2 1180.4 2012.2 1149.2 2000.5 1155 1900.6 1136.5 1901.7 1111 1880.8 1106.4 1893.6 1083.3 1858.7 1069.4 1866.9 1043.9 1978.4 1056.7 2031.9 1082.1 2049.3 1062.4 2107.5 1105.2 Z" data-holc_grade="D"/>
<path d="M 1711.3 1283.4 1788.8 1273.8 1811.1 1245.8 1821.8 1219.8 1839.2 1217.8 1834.3 1252.5 1857.6 1250.6 1893.4 1263.1 1920.6 1282.4 1946.7 1298.8 1987.4 1248.7 2037.8 1286.3 2071.7 1233.2 2111.4 1257.3 2052.3 1341.2 2093 1373 2036.8 1457.9 1962.2 1462.7 1808.2 1420.3 1663.9 1322.9 1682.3 1290.2 1711.3 1283.4 Z" data-holc_grade="D"/>
<path d="M 1632.3 2062.3 1604.4 2070.4 1560.2 2107.5 1552.1 2207 1591.6 2211.6 1640.4 2091.3 1718.3 2097 1723 2186.1 1719.5 2344.7 1642.8 2342.4 1639.3 2425.7 1578.8 2424.5 1576.5 2460.4 1520.7 2467.4 1507.9 2489.4 1459.1 2484.7 1402.1 2614.3 1345.1 2607.4 1454.4 2322.7 1483.5 2256.7 1503.3 1970.9 1671.8 1982.5 1632.3 2062.3 Z" data-holc_grade="D"/>
<path d="M 1168.3 3154.8 1116 3139.8 1148.5 3043.7 1181.1 2934.9 1213.7 2859.7 1307.8 2858.6 1283.5 2921 1252.1 2928 1195.1 3053 1168.3 3154.8 Z M 1497.4 2827.3 1491.6 2921.1 1462.5 2915.3 1449.8 2997.4 1425.3 3059.9 1404.4 3123.6 1403.2 3172.2 1347.4 3159.5 1248.5 3157.2 1266 3110.9 1388.1 3110.9 1400.9 2843.5 1461.4 2851.6 1461.4 2826.1 1497.4 2827.3 Z" data-holc_grade="D"/>
<path d="M 197.3 283.2 315 356.7 311.9 653 186.4 655.2 189.8 856.5 131.7 853 112 471.3 21.4 471.2 7.5 317.4 70.7 225.3 197.3 283.2 Z" data-holc_grade="D"/>
<path d="M 1808.2 1420.3 1775.3 1461.8 1826.4 1496.5 1859 1497.7 1961.3 1527.7 2010.1 1568.2 1911.3 1712.9 1970.6 1756.8 1903.2 1863.3 1945 1899.2 1826.5 2075.1 1932.3 2071.6 1921.8 2191.9 1831.1 2191.9 1723 2186.1 1718.3 2097 1640.4 2091.3 1647.4 2068.1 1632.3 2062.3 1671.8 1982.5 1503.3 1970.9 1514.9 1734.9 1267.3 1743 1277.7 1618 1432.3 1615.7 1588.8 1389.4 1599.9 1398.1 1663.9 1322.9 1808.2 1420.3 Z" data-holc_grade="D"/>
</g>
</svg>