<?xml version="1.0"?>
<svg xmlns="http://www.w3.org/2000/svg" version="1.2" baseProfile="tiny" width="3000" height="2488" viewBox="0 0 3000 2488" stroke-linecap="round" stroke-linejoin="round">
<g id="A">
<path d="M 415.2 1295.3 277.6 1246.6 218.8 1225.9 172.9 1218 94.8 1204.3 6.6 1202.1 1 1097.1 14.6 1090 81.3 1030.8 106.4 1009.4 132.3 1005.8 156.6 1013.7 168.1 1025.1 173.1 1043 173.1 1069.4 188.1 1080.8 226.1 1073 251.2 1072.3 282 1079.5 304.2 1068.1 335.8 1065.9 365.9 1077.4 363 1112.4 365.1 1145.3 378.7 1189.5 394.5 1223.1 414.5 1251.7 415.2 1295.3 Z" data-holc_grade="A"/>
<path d="M 207.5 1957.5 357.4 1944 428.1 1878.9 434.2 1873.3 435.5 2077.7 315 2082.6 286.2 2169.8 293.4 2180.5 292.6 2241.3 230.2 2243.4 230.9 2276.2 241 2287 240.2 2299.1 230.2 2316.3 114.7 2315.5 112.6 2239 13 2096 73.3 2068.1 181 1980.3 193.9 1974.6 207.5 1957.5 Z" data-holc_grade="A"/>
<path d="M 630.9 1380.4 743.5 1354 803.7 1352.6 803.7 1472.7 636.6 1470.4 630.9 1380.4 Z" data-holc_grade="A"/>
<path d="M 1737.8 677.1 1707 680.7 1702.7 673.5 1689.8 669.3 1686.2 662.8 1686.9 609.3 1707 561.4 1698.4 546.4 1701.2 537.9 1718.4 527.9 1732.1 498.6 1737.8 505.7 1749.3 492.2 1752.8 480.8 1755.7 463.6 1748.5 455 1740.6 457.2 1734.9 470 1729.2 472.9 1722.7 471.5 1717.7 452.2 1703.4 377.9 1685.5 319.4 1666.1 283 1638.9 265.9 1618.1 258.7 1603.8 252.3 1574.4 241.6 1550 240.2 1530.7 246.6 1515.6 245.2 1471.9 229.5 1451.2 210.2 1439.7 183.8 1442.6 163.1 1450.5 137.4 1464.1 121 1465.5 100.3 1487.7 98.1 1499.2 88.1 1582.3 89.5 1578 117.4 1580.8 130.9 1578.7 162.4 1565.1 163.1 1540.7 173.1 1537.1 184.5 1538.6 194.5 1565.8 212.3 1674 217.3 1672.6 258 1676.9 270.9 1689 273 1704.1 273 1715.5 271.6 1727.7 262.3 1729.2 244.4 1776.4 236.6 1782.9 269.4 1792.9 291.5 1812.3 315.8 1823 346.5 1821.6 509.3 1737.8 677.1 Z" data-holc_grade="A"/>
<path d="M 1650 805.1 1621.4 841.9 1585.2 963.5 1590.9 970.6 1568.7 992.1 1557.2 980.2 1543.8 991.2 1511.7 1032 1493.8 1051 1477.7 1067.4 1441.4 1101.4 1434.7 1092.8 1490.3 1028.2 1507.1 993.5 1524 973.7 1566 938.3 1606.1 840.8 1615.7 825.9 1621 806.5 1634.8 785.5 1652.8 801.5 1650 805.1 Z" data-holc_grade="A"/>
</g>
<g id="B">
<path d="M 417.3 1334.6 416.6 1352.4 383.6 1353.1 381.4 1411 411.5 1411.7 411.5 1483.2 377.8 1483.9 368.5 1479.6 368.6 1315.3 279 1281.6 211.6 1258 122 1236.5 79.7 1222.9 21 1229.3 8.8 1232.1 6.6 1202.1 94.8 1204.3 172.9 1218 218.8 1225.9 277.6 1246.6 415.2 1295.3 417.3 1334.6 Z" data-holc_grade="B"/>
<path d="M 308.1 1671 326 1687.6 340.4 1701 336.7 1807.5 336 1824.6 325.2 1825.4 262.1 1884.6 170.3 1886.7 172.5 1806.7 171.9 1668 308.1 1671 Z" data-holc_grade="B"/>
<path d="M 419 1872 428.1 1878.9 357.4 1944 207.5 1957.5 224.7 1936.8 341.6 1926.8 411.2 1866.1 419 1872 Z" data-holc_grade="B"/>
<path d="M 669.5 1640.5 666 1631.9 827.3 1486.2 886.8 1550.6 885.4 1566.3 901.9 1567.7 900.4 1635.6 849.5 1635.6 849.5 1652 825.8 1657 807.9 1665.6 785 1690.6 772 1704.1 734.8 1714.8 669.5 1640.5 Z" data-holc_grade="B"/>
<path d="M 559.7 1733.5 556.2 1749 533.2 1766.9 518.9 1751.9 417 1839 383.3 1799 426.4 1764.7 411.3 1748.2 519 1665.5 524.7 1661.1 590.7 1599 559.7 1733.5 Z" data-holc_grade="B"/>
<path d="M 827.3 1486.2 666 1631.9 669.5 1640.5 559.7 1733.5 590.7 1599 524.7 1661.1 519 1665.5 520.5 1485.4 411.5 1483.2 411.5 1411.7 381.4 1411 383.6 1353.1 416.6 1352.4 417.3 1334.6 519.1 1371.8 620.2 1361.8 765.8 1334.1 825.3 1334.8 827.3 1486.2 Z M 630.9 1380.4 636.6 1470.4 803.7 1472.7 803.7 1352.6 743.5 1354 630.9 1380.4 Z" data-holc_grade="B"/>
<path d="M 1104.1 1705 1136 1760 1148 1771.9 1161.9 1775.2 1182.9 1772.4 1211.6 1772.4 1224 1778.6 1236 1777.6 1309.1 1779.1 1306.7 1813.4 1137.9 1809.9 1099.7 1747.1 1081.1 1717.1 1082.5 1704.2 1104.1 1705 Z" data-holc_grade="B"/>
<path d="M 1441.4 1101.4 1477.7 1067.4 1493.8 1051 1511.7 1032 1543.8 991.2 1557.2 980.2 1568.7 992.1 1574.4 996.4 1452.6 1115.6 1441.4 1101.4 Z M 1705 856.9 1661.9 899.2 1654.7 894.2 1585.2 963.5 1621.4 841.9 1650 805.1 1705 856.9 Z" data-holc_grade="B"/>
<path d="M 2359.9 812.6 2372.8 819.7 2416.6 840.4 2389.3 835.4 2367.1 844.7 2350.6 861.9 2306.9 872.6 2250.3 882.6 2203.7 881.9 2167.9 894.1 2153.6 894.8 2099.8 915.5 2090.5 929.1 2061.1 963.4 2046.1 978.4 2022.4 999.8 1963.6 943.4 2050.3 877 2050.9 876.7 2068.3 892 2099.1 884.8 2098.4 857.7 2120.6 854.1 2117.7 827 2172.9 809.8 2359.9 812.6 Z" data-holc_grade="B"/>
</g>
<g id="C">
<path d="M 122 1236.5 122 1284.4 20.9 1282.1 21 1229.3 79.7 1222.9 122 1236.5 Z" data-holc_grade="C"/>
<path d="M 1998.6 342.2 2067.4 402.1 2218.6 402.1 2268.7 402.1 2265.9 477.7 2253.7 493.5 2156.3 547 1907.8 796.2 1861.1 749.2 1883.3 730.6 1939.8 410.7 1997.9 411.4 1998.6 342.2 Z M 1962.8 580 1994.4 612.8 2086 516.4 2073.9 474.2 2073.1 421.4 2032.3 422.1 2029.4 432.8 2038 445.7 1957.8 529.3 1980.7 555 1962.8 580 Z" data-holc_grade="C"/>
<path d="M 2050.9 876.7 2050.3 877 1963.6 943.4 1953 935.9 1929.2 919.2 1954.3 900.6 2006.6 864.2 2013.1 871.3 2031 859.1 2050.9 876.7 Z M 2050.9 876.7 2075.4 864.8 2078.3 857.7 2083.3 820.6 2112.7 787.7 2109.1 762.7 2068.9 764.9 2043.1 749.2 2070.3 692.7 2036.7 711.3 1949.1 837.6 1907.8 796.2 2156.3 547 2131.2 597 2340.5 609.8 2341.9 624.1 2271 672 2344.1 718.3 2293.3 768.3 2359.9 812.6 2172.9 809.8 2117.7 827 2120.6 854.1 2098.4 857.7 2099.1 884.8 2068.3 892 2050.9 876.7 Z" data-holc_grade="C"/>
<path d="M 1935.5 299.4 1820.9 284.4 1820.1 178 1761.4 173 1717.7 68.1 1822.3 71 1822.2 1 1911.1 2.4 1909.7 58.1 1984.2 59.5 1935.5 299.4 Z" data-holc_grade="C"/>
<path d="M 2397 339.9 2357.5 299.9 2490.7 170.6 2449.9 125 2288.7 114.3 2294.3 10.8 2487.8 16.4 2606 144.1 2397 339.9 Z" data-holc_grade="C"/>
<path d="M 2698.5 1228.1 2628.2 1151 2612.4 1076.7 2671.9 1074.5 2682 1133.8 2735.8 1192.3 2698.5 1228.1 Z" data-holc_grade="C"/>
<path d="M 2440.8 677.6 2468.6 608.1 2515.4 635.4 2525.4 646.1 2556.9 644.7 2554.9 837.5 2658.1 908.8 2569.3 958.9 2514.8 883.9 2517.6 874.6 2529.1 856.8 2542.7 841.1 2450.9 785.4 2465.3 751.1 2464.5 728.3 2451.6 700.4 2440.8 677.6 Z M 2852.2 641.6 2773.3 644.5 2779 551 2853.5 548.8 2852.2 641.6 Z" data-holc_grade="C"/>
<path d="M 326 1687.6 308.1 1671 312.5 1573.8 314.8 1385.2 230.9 1395.2 151.3 1394.4 153.5 1280.1 279 1281.6 368.6 1315.3 368.5 1479.6 377.8 1483.9 376.3 1566.7 421.5 1566.1 438.7 1570.3 326 1687.6 Z" data-holc_grade="C"/>
<path d="M 419 1872 411.2 1866.1 341.6 1926.8 224.7 1936.8 262.1 1884.6 325.2 1825.4 336 1824.6 336.7 1807.5 411.3 1748.2 426.4 1764.7 383.3 1799 417 1839 518.9 1751.9 533.2 1766.9 419 1872 Z" data-holc_grade="C"/>
<path d="M 230.2 2316.3 231.5 2410.6 195.6 2487.1 115.3 2481.3 114.7 2315.5 230.2 2316.3 Z" data-holc_grade="C"/>
<path d="M 1099.7 1747.1 1081.6 1757.2 1022.3 1790 1016.6 1705.7 937 1702.1 936.3 1707.1 929.8 1714.9 913.3 1713.5 909.7 1700.6 910.4 1690.6 899 1673.5 879.6 1661.3 849.5 1652 849.5 1635.6 900.4 1635.6 901.9 1567.7 885.4 1566.3 886.8 1550.6 827.3 1486.2 913.4 1489.8 913.4 1504.1 1076.1 1505.6 1081.1 1609.9 1101.2 1597.1 1106.2 1622.8 1109.1 1674.2 1104.1 1690.7 1104.1 1705 1082.5 1704.2 1081.1 1717.1 1099.7 1747.1 Z" data-holc_grade="C"/>
<path d="M 1315.2 1855.8 1165.5 1855.3 1137.9 1809.9 1306.7 1813.4 1309.1 1779.1 1324.4 1763.8 1333 1728.6 1341.1 1729 1340.2 1743.8 1354 1745.7 1370.8 1740.5 1382.7 1742.9 1394.2 1741 1399.9 1742.9 1412.8 1740 1439.1 1748.6 1459.7 1745.2 1472.1 1746.2 1486 1752.4 1532.8 1804.3 1431 1808.1 1425.7 1815.3 1426.2 1894.3 1341.1 1859.6 1315.2 1855.8 Z" data-holc_grade="C"/>
<path d="M 1187.3 1559.2 1224.6 1526.4 1274 1577.1 1354.3 1504.2 1314.9 1514.9 1289.1 1489.2 1317.8 1462.8 1389.5 1394.2 1431.1 1361.4 1466.9 1396.4 1434.6 1431.4 1409.5 1462.8 1385.2 1484.2 1365.8 1507.8 1352.2 1526.4 1347.2 1541.4 1336.4 1555.7 1320.6 1580.7 1314.9 1591.4 1305.6 1592.8 1287.6 1605.7 1269.7 1613.5 1244.6 1609.2 1235.3 1600 1210.2 1584.9 1182.2 1585.7 1180.1 1570.7 1187.3 1559.2 Z" data-holc_grade="C"/>
<path d="M 1780.1 902.1 1661.9 1014.9 1654.7 1006.3 1606 1054.9 1595.9 1044.2 1483.4 1147.8 1502.5 1169.3 1522.8 1192.1 1503.5 1207.8 1545.6 1256.9 1554.4 1267.1 1522.8 1297.1 1421.7 1194.9 1304.9 1301.3 1389.5 1394.2 1317.8 1462.8 1301.3 1447.1 1278.3 1467.1 1231 1421.3 1116.3 1419.9 1117 1444.9 1021 1401.3 1020.5 1424.9 910.5 1424.1 910.6 1323.4 1080.5 1326.3 1083.4 1222.7 1127.8 1226.3 1160.1 1221.3 1178.7 1219.9 1249.7 1184.9 1312.8 1142.1 1349.3 1127.8 1410.3 1114.2 1434.7 1092.8 1441.4 1101.4 1452.6 1115.6 1574.4 996.4 1568.7 992.1 1590.9 970.6 1585.2 963.5 1654.7 894.2 1661.9 899.2 1705 856.9 1707.7 854.2 1730 878.5 1790.9 822.1 1805.9 837.1 1761.5 882.8 1780.1 902.1 Z" data-holc_grade="C"/>
<path d="M 1963.6 943.4 2022.4 999.8 2003.5 1032.7 1991.1 1043.1 1966.2 1071.2 1941.4 1094.1 1895.5 1112.2 1876.9 1131.3 1830.1 1166 1799.5 1187.5 1777 1197 1727.8 1216 1706.8 1221.8 1691 1221.8 1684.3 1212.7 1757.9 1141.3 1751.7 1130.8 1953 935.9 1963.6 943.4 Z" data-holc_grade="C"/>
</g>
<g id="D">
<path d="M 1242.1 2003.3 1316.3 1992 1318 2204.5 1217.1 2204.5 1216.2 2189.3 1101.9 2187.8 1102.4 2155.9 1013.4 2154.4 1013.9 2100.6 1230 2105.4 1242.1 2003.3 Z" data-holc_grade="D"/>
<path d="M 1137.9 1809.9 1165.5 1855.3 1315.2 1855.8 1316.3 1992 1242.1 2003.3 1244.4 1983.9 1242.5 1973.4 1203.3 1917.2 1191.8 1910.5 1111 1896.2 1113 1803.8 1081.6 1757.2 1099.7 1747.1 1137.9 1809.9 Z" data-holc_grade="D"/>
<path d="M 1317.8 1462.8 1289.1 1489.2 1314.9 1514.9 1354.3 1504.2 1274 1577.1 1224.6 1526.4 1187.3 1559.2 1142.8 1560.6 1101.2 1597.1 1081.1 1609.9 1076.1 1505.6 1075.4 1442 1020.2 1442.7 1020.5 1424.9 1021 1401.3 1117 1444.9 1116.3 1419.9 1231 1421.3 1278.3 1467.1 1301.3 1447.1 1317.8 1462.8 Z" data-holc_grade="D"/>
<path d="M 1545.6 1256.9 1503.5 1207.8 1522.8 1192.1 1568 1237.1 1545.6 1256.9 Z M 1502.5 1169.3 1483.4 1147.8 1595.9 1044.2 1606 1054.9 1617.4 1064.9 1502.5 1169.3 Z M 1661.9 1014.9 1780.1 902.1 1790.2 911.3 1658.3 1041.3 1648.3 1028.5 1661.9 1014.9 Z" data-holc_grade="D"/>
<path d="M 1949.1 837.6 1923.5 839.9 1901.2 838.5 1881.2 832.1 1861.1 817.8 1848.9 799.9 1846.8 779.2 1849.6 764.2 1861.1 749.2 1907.8 796.2 1949.1 837.6 Z M 1949.1 837.6 2036.7 711.3 2070.3 692.7 2043.1 749.2 2068.9 764.9 2109.1 762.7 2112.7 787.7 2000.1 822 1954.3 900.6 1929.2 919.2 1902 900.6 1950 838.5 1949.1 837.6 Z" data-holc_grade="D"/>
<path d="M 1962.8 580 1980.7 555 1957.8 529.3 2038 445.7 2029.4 432.8 2032.3 422.1 2073.1 421.4 2073.9 474.2 2086 516.4 1994.4 612.8 1962.8 580 Z M 2218.6 402.1 2067.4 402.1 1998.6 342.2 1998.6 295.1 2075.2 300 2073.8 342.2 2221.4 347.8 2218.6 402.1 Z" data-holc_grade="D"/>
<path d="M 2468.6 608.1 2440.8 677.6 2412.2 674.7 2388.5 676.9 2364.2 671.9 2351.3 655.5 2341.9 624.1 2340.5 609.8 2131.2 597 2156.3 547 2253.7 493.5 2265.9 477.7 2276.7 502.7 2322.5 557.7 2384.2 557.7 2389.1 409.1 2488 408.4 2490.1 342 2599 344.8 2596.9 438.3 2492.3 515.5 2491.7 550.5 2468.6 608.1 Z" data-holc_grade="D"/>
<path d="M 2359.9 812.6 2293.3 768.3 2344.1 718.3 2414.4 760.4 2372.8 819.7 2359.9 812.6 Z" data-holc_grade="D"/>
<path d="M 2612.4 1076.7 2607.3 1040.3 2860.4 1032.9 2894.1 1073.6 2921.4 1127.9 2932.9 1182.2 2943 1242.9 2955.2 1288.6 2971.7 1328.6 2987.5 1345.7 2999 1355 2984.7 1388.6 2794.7 1380.9 2776.7 1318.7 2698.5 1228.1 2735.8 1192.3 2682 1133.8 2671.9 1074.5 2612.4 1076.7 Z" data-holc_grade="D"/>
<path d="M 619.4 2074.2 678.2 2083.8 693.5 2081.4 721.3 2070.5 730.4 2070 748.5 2073.8 760 2080 772.9 2094.3 811.7 2090 830.8 2096.2 841.3 2104.3 974.7 2100.6 972.8 2165.4 815 2166.3 809.2 2169.1 806.4 2174.9 805.4 2270.1 613.6 2272.9 619.4 2074.2 Z" data-holc_grade="D"/>
</g>
</svg>