<?xml version="1.0"?>
<svg xmlns="http://www.w3.org/2000/svg" version="1.2" baseProfile="tiny" width="3000" height="1837" viewBox="0 0 3000 1837" stroke-linecap="round" stroke-linejoin="round">
<g id="B">
<path d="M 50 911.7 82.1 844.6 143.3 808.1 212.1 803.5 224.4 763.9 215.2 658.8 189.3 555.2 215.3 480.5 213.8 425.7 259.7 399.8 268.8 457.7 267.3 486.6 302.5 506.5 330 536.9 354.4 663.4 404.8 936.2 313 945.3 228.9 1000.1 198.3 1042.8 178.4 1073.2 141.7 1100.6 127.9 1100.6 137.1 1074.7 179.9 1041.2 210.5 994 264.1 949.8 274.8 919.4 267.2 829.5 149.4 840.1 102 869 83.6 907.1 76 951.3 56.1 939.1 50 911.7 Z" data-holc_grade="B"/>
</g>
<g id="C">
<path d="M 1032.9 503.1 1084.3 527.5 1069.6 586 1079.4 625 1072 688.4 1108.7 939.5 954.6 983.3 927.6 1000.4 797.9 971.1 802.8 1002.8 709.8 990.7 649.9 998.3 567.1 1009.7 550.5 1118.9 435.8 1120.2 263.7 1169.6 258.6 1184.9 300.6 1220.4 304.5 1242 295.5 1294.1 180.8 1289 185.9 1372.8 233 1383 230.4 1515 342.6 1512.5 337.5 1564.6 236.8 1564.6 157.4 1551.5 153.5 1539.2 33.9 1159.4 1 1050 13.3 934.2 11.8 913.2 50 911.7 56.1 939.1 76 951.3 83.6 907.1 102 869 149.4 840.1 267.2 829.5 274.8 919.4 264.1 949.8 210.5 994 179.9 1041.2 137.1 1074.7 127.9 1100.6 141.7 1100.6 178.4 1073.2 198.3 1042.8 228.9 1000.1 313 945.3 404.8 936.2 354.4 663.4 330 536.9 302.5 506.5 267.3 486.6 268.8 457.7 259.7 399.8 306.3 383.5 365 390.8 431.1 442 519.1 454.2 538.7 383.5 577.9 334.8 646.4 293.4 662.3 290.9 930.2 249.6 947.3 298.3 966.9 395.8 949.7 432.4 984 432.4 986.4 466.5 1006 469 1010.9 508 1032.9 503.1 Z" data-holc_grade="C"/>
<path d="M 1122.7 931.7 1108.7 939.5 1072 688.4 1079.4 625 1069.6 586 1084.3 527.5 1032.9 503.1 1113.7 495.8 1155.2 527.5 1184.6 520.2 1204.2 471.4 1245.8 444.6 1363.2 317.9 1429.3 276.4 1419.5 239.9 1453.7 213 1463.5 164.3 1747.3 120.4 1850.1 122.8 2506.1 33.9 2605.9 20.3 2393.2 376.3 2212.2 471.4 2116.8 805.4 1960.2 822.4 1879.5 827.3 1722.9 844.4 1722.9 790.8 1703.3 742 1578.5 790.8 1373 793.2 1122.7 931.7 Z" data-holc_grade="C"/>
<path d="M 1494.9 1437.8 1468.1 1451.8 1267.5 1637.6 1252.9 1651.1 1198.3 1680.3 1068.5 1707.9 899.3 1711.3 783.8 1713.6 760.2 1649.4 764.3 1630.7 800.2 1625.8 799.4 1559.2 809.1 1455.3 931.5 1443.2 964.1 1380.2 950.6 1337.4 943 1253.6 931.5 1197.7 1027.1 1134.3 1085.7 1220.6 1126.5 1239.7 1333 1336.2 1354.7 1368 1494.9 1437.8 Z" data-holc_grade="C"/>
</g>
<g id="D">
<path d="M 164.5 1573.7 157.4 1551.5 236.8 1564.6 337.5 1564.6 342.6 1512.5 230.4 1515 233 1383 185.9 1372.8 180.8 1289 295.5 1294.1 304.5 1242 300.6 1220.4 258.6 1184.9 263.7 1169.6 435.8 1120.2 550.5 1118.9 567.1 1009.7 649.9 998.3 709.8 990.7 711.1 1030.1 722.5 1077.1 773.5 1078.4 824.5 1060.6 897.1 1082.2 892 1098.7 903.5 1171.1 931.5 1197.7 943 1253.6 950.6 1337.4 964.1 1380.2 931.5 1443.2 809.1 1455.3 796.9 1207.5 695 1246 537.9 1250.1 533.8 1339.5 495.1 1396.3 501.1 1808.8 479.3 1835.8 468.5 1804.8 446 1760.1 415.5 1693 340 1709.2 242.1 1664.5 164.5 1573.7 Z" data-holc_grade="D"/>
<path d="M 1669.8 1297.3 1578 1364.3 1494.9 1437.8 1354.7 1368 1333 1336.2 1126.5 1239.7 1085.7 1220.6 1027.1 1134.3 1011.1 1120.5 1035.6 1094.1 1145.7 1047.4 1122.7 931.7 1373 793.2 1578.5 790.8 1703.3 742 1722.9 790.8 1722.9 844.4 1879.5 827.3 1960.2 822.4 2116.8 805.4 2212.2 471.4 2393.2 376.3 2605.9 20.3 2739.9 1 2872.5 204.1 2999 376.7 2958.3 449.8 2805.5 766.8 2630.2 1199.6 2487.5 1213.9 2087.8 1238.3 1979.7 1272.9 1669.8 1297.3 Z" data-holc_grade="D"/>
</g>
</svg>