<?xml version="1.0"?>
<svg xmlns="http://www.w3.org/2000/svg" version="1.2" baseProfile="tiny" width="3000" height="4058" viewBox="0 0 3000 4058" stroke-linecap="round" stroke-linejoin="round">
<g id="A">
<path d="M 1339.5 657.2 1343.3 694.2 1345.1 781.3 1364.9 875.6 1383.4 1000.4 1394 1075.2 1336.3 1084.1 1334.1 1069.6 1231.9 1085.6 1245 1186.7 1225.1 1190.8 1174.6 1197.5 1173.8 1241.9 1166.3 1244.9 1054.3 1263 1050.1 1255.3 1036.6 1228.4 1024.6 1207.9 1005.5 1162.3 996.9 1132.9 991.3 1112.3 987.9 1105.2 943.4 957.1 978.2 951.5 1082.7 930.5 1080.9 779.5 1070.1 707.9 1065.9 691.1 1061.7 642.2 1048.6 559.8 1045 527 1039.6 480.4 1091.1 472.7 1121.1 470.3 1142.6 466.7 1172.6 463.7 1219.3 460.1 1276.8 456 1315.8 452.4 1315.8 475.1 1339.1 653.6 1339.5 657.2 Z" data-holc_grade="A"/>
</g>
<g id="B">
<path d="M 1339.5 657.2 1339.1 653.6 1315.8 475.1 1315.8 452.4 1337.2 449.9 1353.1 444.8 1386 442.4 1445.9 434.1 1469.6 431.4 1490.9 427.5 1502.8 424.8 1516 424.5 1536.1 421.3 1578 415 1649.9 410.2 1653.8 452.6 1673.9 592.6 1665.8 596.7 1625.9 604.8 1553.2 619.1 1526.8 626 1458.2 638.8 1442.3 641.8 1410.9 646.9 1339.5 657.2 Z" data-holc_grade="B"/>
<path d="M 1844 1594.9 1746.3 1605.4 1739.2 1607.6 1680.7 1613.2 1611.8 1623.3 1587.5 1630 1569.1 1490.7 1507.1 1497 1437.9 1510.4 1417.7 1513.5 1400.6 1517.6 1379.5 1520.3 1340.4 1522.9 1327.8 1399.8 1228.5 1417.7 1124.7 1433.5 1119.3 1426.7 1111.8 1391.7 1089.4 1381 1090.6 1364.6 1088.5 1350.2 1083.4 1328.7 1063.6 1286.3 1054.3 1263 1166.3 1244.9 1173.8 1241.9 1174.6 1197.5 1225.1 1190.8 1245 1186.7 1231.9 1085.6 1334.1 1069.6 1336.3 1084.1 1394 1075.2 1405.6 1127.4 1414.6 1194.2 1518 1183 1517.6 1203.9 1535.2 1336.7 1656.2 1317.7 1725.8 1309.9 1806.4 1302.8 1807.1 1322.6 1829.6 1463.6 1836.7 1506.9 1842 1557.7 1844 1594.9 Z" data-holc_grade="B"/>
<path d="M 2191.5 1945.2 2170.2 1986.3 2047.7 1947.5 2022.2 1953.8 1878.3 1906.4 1879.8 1870.6 1833.4 1872.1 1832.5 1702.3 1848.5 1700.9 2006.7 1700.3 2133.3 1702.8 2149 1759.2 2029.5 1782 2034.4 1852.5 2038.2 1857 2076.4 1861.9 2101.1 1869.3 2185 1903.3 2189.9 1913.3 2192.9 1925.3 2193.7 1938.4 2191.5 1945.2 Z" data-holc_grade="B"/>
</g>
<g id="C">
<path d="M 1854.5 18.3 1977.9 1 1999.4 17.1 2041.4 42.2 2093.5 72.6 2106.1 85.1 2122.2 94.1 2156.4 116.1 2173.8 127.5 2182.7 136.4 2283.4 209.8 2345.1 261.7 2379.3 286.8 2424.8 316 2426.6 351.8 2436.2 412.1 2441 430 2467.7 574.2 2494.7 744.9 2321.6 779 1971.4 685.2 1890.4 212.2 1854.5 18.3 Z" data-holc_grade="C"/>
<path d="M 605.6 2148.9 597.5 2153.8 596.2 2158.3 579.6 2152.9 587.2 2170.8 606.1 2170.8 613.7 2173.5 646.5 2172.2 675.7 2218.3 679.8 2230.9 681.6 2262.2 687 2277.5 678 2297.2 670.3 2325.9 671.3 2345.4 726.4 2344.7 785.6 2337.2 792.3 2379.1 805.8 2416.4 805.8 2429.8 890.8 2472 905.8 2487.7 862.3 2584.8 944.7 2623.6 929 2664.3 902.8 2713.6 899.4 2727.4 851.4 2819.6 842 2839.8 825.1 2921.9 815.8 2949.2 813.9 2965.6 653.5 2989.9 595.4 2997.3 541 3004.4 507.7 3008.8 480.7 3011.5 420.4 3021.5 381 3029 369 2973.2 358.8 2903.1 347.7 2815.6 324.7 2666.2 432.4 2576.9 414 2473.8 300 2486.1 289.7 2429 285.7 2387.1 278.3 2332.7 272.9 2288.5 270.7 2261.4 264 2234.8 198.1 2247 185.3 2175.8 179.5 2127.7 172.1 2084.2 157.8 1992.6 132.9 1862.2 102.4 1694 90.1 1613 140.8 1658.4 170.1 1665 194.8 1674.8 217.5 1698.3 229.6 1718.3 226.4 1746 220.8 1754.1 215.4 1777.6 215.6 1809.4 218.3 1827.6 222.6 1851.3 227.1 1863.2 236.9 1886.7 248.6 1903.7 271.1 1913.1 321.2 1930.4 350.2 1939.4 378.1 1955.1 429.1 2009.7 456.2 2032.4 487 2046.7 540.1 2058.6 563.4 2072.7 581 2095.3 605.6 2148.9 Z M 788.6 2655.7 738 2630 692.4 2719.3 746.3 2743.8 788.6 2655.7 Z" data-holc_grade="C"/>
<path d="M 1389.2 2652 1453.4 2769.1 1480.7 2823.8 1512.5 2890.4 1567.6 2995.3 1618.9 3089 1687.7 3230.6 1621.1 3241.4 1594.6 3247.7 1555.9 3253 1504.7 3258 1503.3 3410.8 1577.1 3398.3 1686.8 3380.8 1715.6 3375.4 1761.9 3363.3 1869 3521.5 1810.1 3553.8 1800.6 3556.4 1764.2 3575.3 1723.7 3597.2 1687.3 3614.3 1626.6 3643.4 1558.6 3678.8 1534.3 3641.6 1534.8 3633.6 1531.6 3630 1502 3634 1479.5 3611.1 1455.2 3589.6 1433.6 3571.7 1409.3 3559.1 1379.6 3534.5 1359.8 3522.4 1331 3480.3 1326.1 3474.9 1320.3 3232 1304.5 3120.4 1303.6 3092.6 1314.4 3064.4 1326.6 3028.1 1336.9 3010.6 1248.3 3014.2 1250.1 2962.7 1250.6 2937.6 1250.6 2893.7 1251.9 2858.7 1249.7 2774.5 1248.8 2752.5 1250.1 2687.1 1249.7 2637.4 1333.8 2623.5 1357.6 2658 1389.2 2652 Z" data-holc_grade="C"/>
<path d="M 2611.8 2100.2 2611.3 2100.3 2507.9 2122.4 2502.3 2067.9 2497.8 2059 2361.8 2045.6 2342.3 2042.6 2301.8 2044.5 2301.5 2018.7 2328.4 2021.3 2347.2 2026.2 2406.4 2027.6 2403 1983.6 2400.7 1971.6 2397.3 1946.3 2383.1 1857.8 2378.2 1831.3 2363.6 1760.8 2357 1712.4 2345.6 1633 2340.2 1595.4 2413.3 1547 2448.7 1520.4 2470.8 1501 2499.6 1469 2549.6 1421.5 2615.2 1373.7 2672.7 1325.3 2750.9 1274.8 2852.7 1256 2881.8 1436.2 2959.6 1810.1 2999 2000.5 2955 2008.8 2954.5 2008.9 2872.4 2024.5 2713.9 2067.8 2611.8 2100.2 Z" data-holc_grade="C"/>
<path d="M 1587.5 1630 1590.5 1651.3 1552.7 1656.4 1554.8 1687.4 1535.3 1692.5 1545.2 1772.2 1574.6 1775.8 1584.5 1780 1587.8 1819.4 1589 1852 1588.2 1873.7 1499.1 1874.9 1499 1861.5 1439.2 1860.2 1440.6 1799.7 1439.7 1776.9 1437 1754.1 1432.1 1726.3 1424.9 1661.8 1417.7 1617.9 1318.8 1627.3 1312.9 1586.5 1254.5 1594.1 1241.5 1521.1 1228.5 1417.7 1327.8 1399.8 1340.4 1522.9 1379.5 1520.3 1400.6 1517.6 1417.7 1513.5 1437.9 1510.4 1507.1 1497 1569.1 1490.7 1587.5 1630 Z" data-holc_grade="C"/>
<path d="M 2301.5 2018.7 2301.8 2044.5 2219.5 2057.7 2216.1 2065.2 2216.9 2101.4 2219.1 2119 2221 2158.2 2227.4 2205.9 2221 2210.4 2223.6 2239.1 2177.2 2260 2149.1 2264.5 2128.1 2160.4 2128.8 2140.6 1991.7 2145.1 1989.5 2067.1 1798.8 2070.1 1780.8 2055.1 1780 2037.6 1500.9 2035.7 1502.1 1992.4 1502.4 1940.2 1499.1 1874.9 1588.2 1873.7 1588.6 1879 1715.2 1880.1 1714.5 1773 1697.2 1772.6 1659.4 1697.2 1662.4 1672.6 1635.4 1672.6 1635.8 1644.6 1590.5 1651.3 1587.5 1630 1611.8 1623.3 1680.7 1613.2 1739.2 1607.6 1746.3 1605.4 1844 1594.9 1844 1639.7 1848.5 1700.9 1832.5 1702.3 1833.4 1872.1 1879.8 1870.6 1878.3 1906.4 2022.2 1953.8 2047.7 1947.5 2170.2 1986.3 2191.5 1945.2 2286.7 1955.6 2301.5 2018.7 Z" data-holc_grade="C"/>
<path d="M 2059.7 2288.5 2057.4 2316.9 2059.7 2338.2 2063.4 2417.3 2062.3 2428.1 2061.2 2539.4 2059.3 2557.7 2057.9 2662.2 2056.8 2768.3 2060.5 2783.2 2062 2803.4 2026.9 2807 1985.8 2810.6 1920.5 2816.3 1838.3 2826.8 1816.7 2830.9 1788.3 2834.2 1707.9 2845 1662.7 2847.7 1662.4 2905.6 1627.6 2940.9 1567.6 2995.3 1512.5 2890.4 1480.7 2823.8 1453.4 2769.1 1389.2 2652 1425.5 2645.2 1470.8 2631.7 1514.6 2609.3 1526.8 2603.4 1547.2 2583.9 1573 2545.1 1591.9 2524.5 1610.2 2500.3 1648.2 2499.7 1697.1 2435.2 1698 2400.5 1738.2 2361.4 1764.8 2342.9 1817 2317.5 1851.2 2302.5 1860.7 2297.4 1872.4 2295 1888.6 2287.9 1903.6 2286.4 1924.3 2281.3 1947.4 2276.2 1970.4 2273.5 2001.9 2273.5 2025.6 2278.3 2059.7 2288.5 Z" data-holc_grade="C"/>
<path d="M 2144.3 2291 2278.8 2370.7 2368.3 2338 2485.8 2290.9 2513.7 2281.5 2532.6 2275 2558.6 2264.7 2595 2250.1 2729.2 2190 2753.7 2183.7 2782.7 2180.6 2815.3 2163.1 2833.7 2150.1 2852.8 2139.8 2877.8 2130.1 2880.2 2142.3 2885.4 2159.4 2888.4 2184.1 2893.7 2211 2898.2 2255 2904.7 2298.2 2910.5 2322.3 2736.9 2405.5 2701.9 2428.8 2652.7 2455.4 2572.7 2507.7 2548.5 2527.1 2484.6 2569.2 2421.7 2610.4 2379.4 2626.5 2160.6 2741.4 2136.6 2756.3 2107 2773.1 2084.5 2791 2062 2803.4 2060.5 2783.2 2056.8 2768.3 2057.9 2662.2 2059.3 2557.7 2061.2 2539.4 2062.3 2428.1 2063.4 2417.3 2059.7 2338.2 2057.4 2316.9 2059.7 2288.5 2144.3 2291 Z" data-holc_grade="C"/>
<path d="M 1967.4 2195.9 1945 2212.2 1911.8 2237.7 1886.3 2248.9 1730.4 2248.9 1728.2 2264.6 1728.2 2304.9 1369.2 2304.9 1370 2237.7 1368.9 2164 1577.5 2162.6 1578.8 2131.3 1644 2130.8 1749.1 2133.5 1784.6 2130.9 1788 2135.7 1789.1 2144.7 1902.7 2138.3 1935.2 2110.3 1946.1 2108.1 1951.4 2111.1 1954 2124.9 1964.1 2163.3 1967.4 2195.9 Z" data-holc_grade="C"/>
<path d="M 417 1305.3 474.1 1238.2 525.4 1279.3 778.9 1194.6 784.9 1208.9 789.7 1229.8 796.3 1258.5 810 1337.3 811.2 1358.8 825.6 1495.5 831.5 1562.4 853.1 1666.3 862.1 1715.9 884.2 1770.9 888.4 1786.4 718.8 1795.3 691.2 1770.8 664.9 1764.2 542.6 1784.5 463.1 1800.7 398.5 1817.5 370.4 1824.9 244.9 1851.9 236.4 1835.1 232.7 1809 242.1 1757.7 253.2 1721.3 248.5 1696.2 202.9 1625.1 253.3 1614.4 393.5 1596.5 411.5 1593.6 422.9 1591.2 456.5 1586.4 499.6 1581.7 538 1578.1 568.6 1563.2 601.5 1541.7 618.3 1526.8 623.1 1498.7 621.9 1439.6 619.5 1421.1 614.2 1410.9 606.4 1408.5 566.8 1408.5 523.1 1375.7 502.7 1363.1 472.2 1342.2 417 1305.3 Z" data-holc_grade="C"/>
<path d="M 888.4 1786.4 893.8 1910.9 907.6 1910.5 914 2024.8 913.6 2054.3 913.6 2081.5 915.8 2120.3 847.6 2133.4 819.2 2136 761.5 2144.9 724 2151.6 699.6 2158 660.7 2165.4 640.8 2153.1 619.9 2128.8 591.4 2077.3 581.7 2066.9 538.6 2033.2 519.1 2024.3 484.3 2017.2 453.2 1995.9 428.5 1970.1 391 1940.2 373.4 1929 317.2 1901.4 291 1894.3 256.2 1869.6 244.9 1851.9 370.4 1824.9 398.5 1817.5 463.1 1800.7 542.6 1784.5 664.9 1764.2 691.2 1770.8 718.8 1795.3 888.4 1786.4 Z" data-holc_grade="C"/>
</g>
<g id="D">
<path d="M 2144.3 2291 2167.3 2289.9 2225.7 2269.3 2280.6 2238.8 2329.6 2212.8 2358.1 2206.3 2419.2 2192.4 2447.1 2188.3 2620.6 2144.4 2611.8 2100.2 2713.9 2067.8 2872.4 2024.5 2954.5 2008.9 2955 2008.8 2956.4 2025.1 2961.1 2045.7 2970.1 2101 2954.4 2109.7 2928.8 2113.3 2911.5 2118.7 2877.8 2130.1 2852.8 2139.8 2833.7 2150.1 2815.3 2163.1 2782.7 2180.6 2753.7 2183.7 2729.2 2190 2595 2250.1 2558.6 2264.7 2532.6 2275 2513.7 2281.5 2485.8 2290.9 2368.3 2338 2278.8 2370.7 2144.3 2291 Z M 2227.4 2205.9 2221 2158.2 2219.1 2119 2216.9 2101.4 2216.1 2065.2 2219.5 2057.7 2301.8 2044.5 2342.3 2042.6 2361.8 2045.6 2497.8 2059 2502.3 2067.9 2507.9 2122.4 2428.9 2135.3 2373.5 2145 2331.5 2155.5 2310.9 2163.7 2285.8 2175.7 2227.4 2205.9 Z" data-holc_grade="D"/>
<path d="M 1287.5 2338.2 1570.3 2336.7 1571.1 2369.9 1638.1 2369.6 1623.5 2393.5 1588.3 2437.9 1540.7 2490.5 1461.7 2560 1433.6 2561.1 1383.7 2572.7 1340.6 2512.2 1326 2476.7 1284.5 2405.8 1287.5 2338.2 Z" data-holc_grade="D"/>
<path d="M 853.7 132.7 901.4 138.1 918 141.3 935 143.5 1097.7 162.8 1099 175.8 1080.6 232.6 1061.7 266.6 1046.4 296.6 1040.1 311.4 1037 330.2 1038.3 348.5 1050 424.2 981.7 438.5 882.4 453.7 849.2 460.4 764.2 473.4 764.7 434.9 768.3 407.1 777.3 332.4 790.8 289.8 807.4 235.2 819.1 200.8 853.7 132.7 Z" data-holc_grade="D"/>
<path d="M 1588.2 1873.7 1589 1852 1587.8 1819.4 1584.5 1780 1574.6 1775.8 1545.2 1772.2 1535.3 1692.5 1554.8 1687.4 1552.7 1656.4 1590.5 1651.3 1635.8 1644.6 1635.4 1672.6 1662.4 1672.6 1659.4 1697.2 1697.2 1772.6 1714.5 1773 1715.2 1880.1 1588.6 1879 1588.2 1873.7 Z" data-holc_grade="D"/>
<path d="M 1499.1 1874.9 1502.4 1940.2 1502.1 1992.4 1500.9 2035.7 1780 2037.6 1780.8 2055.1 1798.8 2070.1 1989.5 2067.1 1991.7 2145.1 1994.8 2241 1969.4 2226 1967.9 2200.7 1967.4 2195.9 1964.1 2163.3 1954 2124.9 1951.4 2111.1 1946.1 2108.1 1935.2 2110.3 1902.7 2138.3 1789.1 2144.7 1788 2135.7 1784.6 2130.9 1749.1 2133.5 1644 2130.8 1578.8 2131.3 1577.5 2162.6 1368.9 2164 1369.3 2153.2 1366.2 2150.5 1294.7 2151.4 1293.8 2068.5 1332 2064.5 1337.4 2059.6 1337.9 2026.9 1336.5 1913.1 1338.3 1818.6 1334.3 1764.9 1329.3 1722.3 1321.2 1665.4 1318.1 1653.3 1314.9 1648 1263.7 1654.2 1254.5 1594.1 1312.9 1586.5 1318.8 1627.3 1417.7 1617.9 1424.9 1661.8 1432.1 1726.3 1437 1754.1 1439.7 1776.9 1440.6 1799.7 1439.2 1860.2 1499 1861.5 1499.1 1874.9 Z" data-holc_grade="D"/>
<path d="M 888.4 1786.4 884.2 1770.9 862.1 1715.9 853.1 1666.3 831.5 1562.4 825.6 1495.5 811.2 1358.8 810 1337.3 796.3 1258.5 789.7 1229.8 784.9 1208.9 778.9 1194.6 822.9 1179.5 827.4 1173.7 761 908.6 751.1 873.2 707.6 686.5 697.7 625.2 728.7 615.3 735.9 655.6 757 708.5 807.7 875.9 814.5 899.7 829.7 934.2 839.2 960.6 852.2 1016.6 858.5 1038.5 873.3 1113.7 915.9 1201.4 961.8 1240.3 1010.1 1326.3 1013.9 1348.7 1011 1369.1 1000.4 1387.7 920.2 1380.5 898.6 1397.5 881.1 1407.6 866.2 1420.1 852.3 1441.4 846 1458.4 845.3 1476.3 850.7 1497.1 853.6 1523.5 866 1554.5 884.4 1630.8 890.9 1660.8 958.5 1763.2 960.1 1776.6 949.3 1785.1 888.4 1786.4 Z" data-holc_grade="D"/>
<path d="M 1157.6 1686.8 1222.3 1678.7 1226.8 1723.9 1189.9 1732 1193.5 1788 1229.5 1790.7 1229.5 1811.3 1217.8 1813.1 1220.5 1984.6 1180.9 1986.9 1179.1 2021.8 1146.7 2026.3 1157.1 2076 1117.1 2098.4 1095.9 2046.4 1090.6 2008.4 1091.9 1983.3 1125.2 1983.3 1125.6 1942.5 1136.4 1902.2 1154.9 1860.1 1163 1831 1164.8 1809.5 1164.8 1766 1158.5 1719.9 1159.4 1719.5 1157.6 1686.8 Z" data-holc_grade="D"/>
<path d="M 660.7 2165.4 699.6 2158 724 2151.6 761.5 2144.9 819.2 2136 847.6 2133.4 915.8 2120.3 917.3 2157.4 904.6 2158.9 899.7 2165.2 894.8 2201.4 892.6 2213 882.5 2229.8 871.2 2254 834.9 2304.4 718 2243.9 703.4 2260.7 695.1 2209.2 687.3 2194.3 674.9 2181.2 660.7 2165.4 Z" data-holc_grade="D"/>
<path d="M 1558.6 3678.8 1527.9 3690.8 1360 3766.1 1357.6 3753.5 1346.8 3729 1330 3703.3 1300 3665.1 1288.6 3655.5 1244.8 3599.9 1215.5 3571.8 1185.5 3550.9 1166.3 3540.1 1156.7 3538.3 1133.9 3522.2 1064.9 3479.8 1024.2 3446.3 1004.4 3420 995.4 3387.7 997.2 3340.5 986.4 3314.2 989.4 3298.7 988.8 3274.2 982.8 3247.3 976.2 3230 969 3214.4 959.4 3191.7 927.1 3105.7 920.5 3071 913.9 3041.8 906.1 3018 894.7 2976.2 892.3 2955.9 911.5 2921.2 923.5 2878.8 933.1 2861.5 952.3 2862.1 1010.5 2858.5 1014.1 2845.4 1077 2728.3 1139.4 2697.8 1165.8 2645.8 1249.7 2637.4 1250.1 2687.1 1248.8 2752.5 1249.7 2774.5 1251.9 2858.7 1250.6 2893.7 1250.6 2937.6 1250.1 2962.7 1248.3 3014.2 1336.9 3010.6 1326.6 3028.1 1314.4 3064.4 1303.6 3092.6 1304.5 3120.4 1320.3 3232 1326.1 3474.9 1331 3480.3 1359.8 3522.4 1379.6 3534.5 1409.3 3559.1 1433.6 3571.7 1455.2 3589.6 1479.5 3611.1 1502 3634 1531.6 3630 1534.8 3633.6 1534.3 3641.6 1558.6 3678.8 Z" data-holc_grade="D"/>
<path d="M 474.1 1238.2 417 1305.3 303.8 1212.1 189.2 1236.2 176.2 1237.1 160.9 1241.2 124 1247.9 89.9 1255 57.5 1258.6 29.6 1267.1 12.6 1164.5 1 1062 290.9 1020.9 366.8 1086.8 393.3 1127.1 425.6 1194.7 431.5 1205.9 474.1 1238.2 Z" data-holc_grade="D"/>
<path d="M 573.6 3666.1 637.9 3654.9 660.8 3653.5 722.9 3641 720.2 3681.8 707.6 3748.1 692.7 3829.7 707.1 3863.3 766 3865.6 777.3 3879 798.9 3891.6 800.2 3900.1 798 3910.9 799.8 3927.9 775 3931 766.5 3939.1 764.2 3960.6 777.3 3974.5 765.5 3992.4 748.9 4003.2 725.5 4014.4 732.7 4040.4 671.1 4056.5 663.4 4026.9 635.1 4011.2 621.1 3960.6 643.2 3963.3 659.4 3928.3 655.8 3906.8 637.8 3880.3 634.7 3862.9 608.1 3828.3 605 3795.6 590.6 3745.9 573.6 3666.1 Z" data-holc_grade="D"/>
</g>
</svg>