<?xml version="1.0"?>
<svg xmlns="http://www.w3.org/2000/svg" version="1.2" baseProfile="tiny" width="3000" height="3032" viewBox="0 0 3000 3032" stroke-linecap="round" stroke-linejoin="round">
<g id="A">
<path d="M 1971.3 554.2 1829.3 637.7 1629.1 677.6 1498 735.6 1436.1 568.7 1377.6 236 1377.6 199 1432.2 183.8 1432.2 153.3 1537 127.2 1565.4 153.3 1641.9 149 1707.4 120.7 1971.3 554.2 Z" data-holc_grade="A"/>
<path d="M 2023.8 1413.2 1683 1485 1613.1 1184.6 1430.6 1222.9 1399.7 1105.6 1377.9 1076.6 1341.5 848.1 1385.1 790 1498 735.6 1629.1 677.6 1829.3 637.7 1971.3 554.2 2462.9 1297.8 2023.8 1413.2 Z" data-holc_grade="A"/>
<path d="M 1 1944.5 1.1 1755.1 215.2 1837.9 162.7 1957.6 1 1944.5 Z" data-holc_grade="A"/>
</g>
<g id="B">
<path d="M 770.3 355.7 1019.4 323.1 1025.9 370.9 1010.6 423.2 1030.3 501.5 1034.6 566.8 1015 592.9 1019.3 621.2 918.8 629.9 792.1 590.7 776.9 629.9 700.4 610.3 770.3 355.7 Z" data-holc_grade="B"/>
<path d="M 12.6 1554.9 22.1 1463.2 99 1477.1 144.4 1464.4 203.9 1395.9 207.4 1341.3 212.1 1195.1 173.6 1159.1 187.6 1094.1 171.3 1074.3 184.1 1010.5 350.7 1109.2 329.8 1052.3 375.2 990.8 385.7 915.3 368.3 860.8 425.4 791.1 399.7 756.3 300.7 673.9 240.1 697.1 220.3 786.5 198.2 822.4 144.6 866.5 107.3 799.2 128.1 477.4 298.5 514.5 512.5 627.7 510.3 712.6 652.3 767 637 832.3 536.5 806.2 481.9 862.7 595.5 969.4 508 1352.5 512.4 1402.6 545.1 1467.9 536.4 1548.4 505.8 1618.1 422.8 1557.1 272 1500.5 143.1 1596.2 213 1659.4 175.9 1696.4 84.1 1631 62.3 1561.4 12.6 1554.9 Z" data-holc_grade="B"/>
<path d="M 22.1 1463.2 107.3 799.2 144.6 866.5 198.2 822.4 220.3 786.5 240.1 697.1 300.7 673.9 399.7 756.3 425.4 791.1 368.3 860.8 385.7 915.3 375.2 990.8 329.8 1052.3 350.7 1109.2 184.1 1010.5 171.3 1074.3 187.6 1094.1 173.6 1159.1 212.1 1195.1 207.4 1341.3 203.9 1395.9 144.4 1464.4 99 1477.1 22.1 1463.2 Z" data-holc_grade="B"/>
<path d="M 1377.6 236 1436.1 568.7 1498 735.6 1385.1 790 1341.5 848.1 1377.9 1076.6 1399.7 1105.6 1430.6 1222.9 1613.1 1184.6 1683 1485 2023.8 1413.2 2073.8 1643.2 1719.8 1723.7 1728.6 1806.5 1829.1 1943.6 1586.6 1995.9 1265.4 2030.7 1241.3 1887 1243.5 1830.4 1151.8 1597.5 1193.3 1595.3 1191.1 1390.7 1206.4 1362.4 1191.1 1273.1 1097.2 1290.5 1095 1196.9 1134.3 1099 1282.9 942.3 1276.3 874.8 1306.9 826.9 1265.4 755.1 1219.6 766 1204.3 744.2 1252.3 720.3 1254.5 678.9 1223.9 591.9 1200.6 584.2 1202.8 299.1 1233.4 301.3 1222.5 262.1 1377.6 236 Z" data-holc_grade="B"/>
</g>
<g id="C">
<path d="M 1707.4 120.7 1641.9 149 1565.4 153.3 1537 127.2 1432.2 153.3 1432.2 183.8 1377.6 199 1377.6 236 1222.5 262.1 1233.4 301.3 1202.8 299.1 1200.6 584.2 1223.9 591.9 1254.5 678.9 1252.3 720.3 1204.3 744.2 1219.6 766 1265.4 755.1 1306.9 826.9 1276.3 874.8 1282.9 942.3 1134.3 1099 1095 1196.9 1097.2 1290.5 1191.1 1273.1 1206.4 1362.4 1191.1 1390.7 1193.3 1595.3 1151.8 1597.5 1243.5 1830.4 1241.3 1887 1265.4 2030.7 1586.6 1995.9 1829.1 1943.6 1728.6 1806.5 1719.8 1723.7 2073.8 1643.2 2148.1 1691 2215.8 1719.3 2261.7 1780.3 2333.8 1852.1 2329.5 1891.3 2344.8 1928.3 2266.1 1947.9 2215.8 1930.5 2239.9 2021.9 2211.5 2100.3 2148.1 2139.5 2117.5 2213.5 2078.2 2209.2 2049.8 2246.2 2102.3 2346.3 2141.6 2363.7 2207.2 2339.8 2248.7 2370.3 2257.4 2413.8 2298.9 2400.7 2329.1 2421.2 2463.9 2435.7 2565.8 2399.4 2605.9 2413.9 2700.6 2530 2773.4 2526.3 2842.7 2562.6 2930.1 2602.5 2999 2663.3 2061.4 2790.5 1914.5 2787 1508.9 2849.7 1423 2876.2 1457.9 2730.3 1532.2 2734.6 1420.8 2612.7 1348.7 2368.9 1200.1 2414.6 1112.7 2408 1051.5 2458.1 983.8 2484.2 898.5 2553.9 721.5 2577.8 725.8 2897.9 746.7 2971.6 363.7 3030.8 301.9 2965.3 308.4 2915.2 321.6 2852.1 343.4 2749.8 347.8 2658.3 308.5 2569 315.1 2486.3 306.4 2390.5 271.9 2231.9 66.5 2227.5 84 2197 81.8 2157.9 22.8 2133.9 7.5 2090.3 25 2055.5 25 1992.4 1 1944.5 162.7 1957.6 215.2 1837.9 1.1 1755.1 11.4 1567.3 12 1554.8 12.6 1554.9 62.3 1561.4 84.1 1631 175.9 1696.4 213 1659.4 143.1 1596.2 272 1500.5 422.8 1557.1 505.8 1618.1 536.4 1548.4 545.1 1467.9 512.4 1402.6 508 1352.5 595.5 969.4 481.9 862.7 536.5 806.2 637 832.3 652.3 767 510.3 712.6 512.5 627.7 298.5 514.5 128.1 477.4 134.7 201 652.4 377.4 770.3 355.7 700.4 610.3 776.9 629.9 792.1 590.7 918.8 629.9 1019.3 621.2 1015 592.9 1034.6 566.8 1030.3 501.5 1010.6 423.2 1025.9 370.9 1019.4 323.1 1152.6 312.2 1132.9 172.9 1220.3 153.3 1628.8 1 1707.4 120.7 Z" data-holc_grade="C"/>
</g>
</svg>