<?xml version="1.0"?>
<svg xmlns="http://www.w3.org/2000/svg" version="1.2" baseProfile="tiny" width="3000" height="2465" viewBox="0 0 3000 2465" stroke-linecap="round" stroke-linejoin="round">
<g id="A">
<path d="M 1166.2 1275.6 1314.8 1274.2 1327.6 1210.6 1565.5 1228.7 1542 1421 1281.8 1413.5 1281.3 1481 1157.7 1468 1166.2 1275.6 Z" data-holc_grade="A"/>
<path d="M 1972.3 1130.8 1965.4 1311.5 1883.7 1352.9 1865.3 1342.7 1832.4 1337.4 1845.7 1209.4 1802.3 1200.6 1806.4 1141.6 1613.9 1120.1 1625.9 951.2 1623 936.5 1597.5 935.4 1602.6 894.7 1650.8 900.9 1644.6 1042.7 1801.8 1056.3 1851.7 1071.5 1905.8 1092.2 1918.2 979 1987.5 987.3 1972.3 1130.8 Z" data-holc_grade="A"/>
<path d="M 1864.7 646.7 1886.8 658.4 1892 685.5 1919.3 721.7 1941.4 729.5 1930.4 840 1817.3 822.7 1829.7 644.2 1864.7 646.7 Z" data-holc_grade="A"/>
<path d="M 2367.3 1490.9 2327.5 1491.1 2324.9 1624.3 2298.9 1624.3 2297.6 1675.9 2266.3 1676.1 2269.8 1503.3 2134.9 1504.2 2132.3 1483.9 2119 1483.9 2070.2 1436.3 2089.7 1436.2 2118 1388.6 2118.1 1408.9 2192.6 1407.1 2197 1324.1 2223.6 1283.4 2245.7 1289.6 2279.4 1287 2300.7 1285.2 2329.1 1290.5 2346.8 1286 2372.6 1297.5 2367.3 1490.9 Z" data-holc_grade="A"/>
<path d="M 2500.3 1119.5 2625.4 1095.4 2630.5 1094.4 2624.9 1218.1 2615.3 1220.2 2487.8 1216.1 2482.3 1191.3 2498.9 1165.1 2500.3 1119.5 Z" data-holc_grade="A"/>
<path d="M 2636.5 958.4 2627.8 1066.7 2600.4 1064.3 2602.1 958.4 2636.5 958.4 Z" data-holc_grade="A"/>
<path d="M 2787.2 1298.9 2786.8 1292 2795.5 1069.5 2963.1 1036.7 2947.9 1294.8 2999 1296.4 2996.3 1505.5 2559.8 1491.7 2562.5 1466.9 2573.1 1430.7 2587.3 1422.8 2613 1421 2614.5 1288.8 2635.1 1289.9 2694.7 1290.7 2676.1 1347 2675.9 1357.6 2687.9 1363 2905.3 1413.2 2906.6 1407.6 2906.3 1391.5 2910.3 1372.8 2912.6 1353.5 2909.1 1336.4 2905.3 1333.8 2842.3 1332.9 2831.9 1329.6 2823.8 1318.9 2820.7 1299.6 2801.7 1299 2787.2 1298.9 Z" data-holc_grade="A"/>
</g>
<g id="B">
<path d="M 1484.8 438.7 1481.5 529.7 1807.3 571.9 1808.1 596.7 1813.1 626.5 1829.7 644.2 1817.3 822.7 1619.7 799.1 1616 852.6 1656.4 857.9 1650.8 900.9 1602.6 894.7 1597.5 935.4 1623 936.5 1625.9 951.2 1613.9 1120.1 1806.4 1141.6 1802.3 1200.6 1845.7 1209.4 1832.4 1337.4 1865.3 1342.7 1883.7 1352.9 1882.1 1437.2 1992.1 1436.7 1989.5 1588.2 1993 1603.2 1920 1683.9 1896.2 1666.1 1856.4 1666.6 1860 1534.3 1698.5 1529.9 1693.2 1628.8 1535.3 1625.3 1538.9 1484.9 1400.5 1489.1 1298.9 1494.2 1157 1485.7 1157.5 1474.2 1157.7 1468 1166.2 1275.6 1168.1 1231.5 1166.4 1159.1 1184.1 1162.6 1205.4 863.3 1216.6 805.8 1129.6 794.1 1138.7 690.7 1216.6 661 1334.8 667.5 1349.1 518.8 1419.2 525.2 1421.8 438.6 1484.8 438.7 Z M 1703.1 1408.9 1704.1 1424.8 1711.9 1424.8 1719.1 1422.4 1742.6 1410.6 1703.1 1408.9 Z" data-holc_grade="B"/>
<path d="M 1856.4 1666.6 1896.2 1666.1 1920 1683.9 1863.6 1746.3 1852 1737.4 1758 1737.5 1754.4 1859.3 1409.7 1864.9 1354.2 1797.2 1357 1717.2 1293.2 1713.1 1262.7 1677.2 1287.7 1642.7 1329.3 1649.6 1333.4 1579.2 1365.3 1577.8 1365.3 1514.4 1492.8 1615.1 1401.4 1612.3 1401.4 1699.3 1521.9 1706.2 1523.3 1681.3 1578.8 1681.3 1660.6 1743.4 1659.2 1668.9 1856.4 1666.6 Z" data-holc_grade="B"/>
<path d="M 1069.5 2180.8 1070 2211.2 988.1 2223.6 914.7 2249.8 878.6 2283 852.2 2328.5 845.3 2463.8 655.3 2425.1 545.8 2423.6 583.7 2360.5 635.8 2280.7 709.5 2203.1 785.3 2170.8 949.9 2177.3 1069.5 2180.8 Z" data-holc_grade="B"/>
<path d="M 2070.3 675.6 2056.5 796.9 2050.1 853.2 1930.4 840 1941.4 729.5 1919.3 721.7 1892 685.5 1886.8 658.4 1864.7 646.7 1871.2 597.6 1967.3 558.8 2005 561.4 2002.4 676.4 2070.3 675.6 Z" data-holc_grade="B"/>
<path d="M 1987.5 987.3 1918.2 979 1915 972.6 1922.3 919.8 1990.9 928.8 1987.5 987.3 Z" data-holc_grade="B"/>
<path d="M 2963.1 1036.7 2795.5 1069.5 2787.2 1298.9 2635.1 1289.9 2614.5 1288.8 2613 1421 2587.3 1422.8 2573.1 1430.7 2562.5 1466.9 2559.8 1491.7 2996.3 1505.5 2995.5 1656.5 2685.9 1654.1 2646.3 1670.6 2641.7 1747.7 2639.4 1843.2 2624.1 1842.6 2590.6 1844.3 2593.7 1739.8 2214 1734.7 2212.2 1676.4 2266.3 1676.1 2359.4 1675.5 2355.9 1649.8 2441 1648 2445.4 1491.7 2367.3 1490.9 2372.6 1297.5 2346.8 1286 2329.1 1290.5 2300.7 1285.2 2279.4 1287 2245.7 1289.6 2223.6 1283.4 2197 1324.1 2192.6 1407.1 2118.1 1408.9 2118 1388.6 2089.7 1436.2 2070.2 1436.3 1992.1 1436.7 1882.1 1437.2 1883.7 1352.9 1965.4 1311.5 1972.3 1130.8 2144.2 1205.7 2162.2 1213.5 2231.5 1184.5 2332.6 1145.8 2416.5 1132.7 2500.3 1119.5 2498.9 1165.1 2482.3 1191.3 2487.8 1216.1 2615.3 1220.2 2624.9 1218.1 2630.5 1094.4 2625.4 1095.4 2627.8 1066.7 2636.5 958.4 2639.3 923.9 2960.3 933.4 2963.1 1036.7 Z" data-holc_grade="B"/>
<path d="M 2818.4 821.9 2892.9 824.5 2891.3 878 2815.8 876.5 2818.4 821.9 Z" data-holc_grade="B"/>
<path d="M 2961.9 819.2 2891.3 816.1 2891.8 780 2962.4 782.6 2961.9 819.2 Z" data-holc_grade="B"/>
</g>
<g id="C">
<path d="M 1205.4 863.3 1184.1 1162.6 1166.4 1159.1 1168.1 1231.5 1166.2 1275.6 1157.7 1468 1157.5 1474.2 1157 1485.7 1298.9 1494.2 1400.5 1489.1 1538.9 1484.9 1535.3 1625.3 1693.2 1628.8 1698.5 1529.9 1860 1534.3 1856.4 1666.6 1659.2 1668.9 1660.6 1743.4 1578.8 1681.3 1523.3 1681.3 1521.9 1706.2 1401.4 1699.3 1401.4 1612.3 1492.8 1615.1 1365.3 1514.4 1365.3 1577.8 1333.4 1579.2 1329.3 1649.6 1287.7 1642.7 1262.7 1677.2 1293.2 1713.1 1357 1717.2 1354.2 1797.2 1409.7 1864.9 1754.4 1859.3 1670.2 1924.7 1668.5 2036.9 1140.5 2024.5 1145.8 1889.3 1027.8 1887.6 1025.1 2022.7 1009.2 2020.9 1069.5 2180.8 949.9 2177.3 785.3 2170.8 709.5 2203.1 635.8 2280.7 583.7 2360.5 293.4 2356 289.1 2284.8 267.5 2218 375.9 2071.4 402 2000.2 601 2005.8 609.1 1858.3 560.3 1859.1 555.9 1765.5 547.9 1724 504.5 1723.1 500.9 1708.1 503.6 1573.8 616.3 1582.7 729 1587.2 727.7 1626.9 970.7 1636 973 1593.1 1058.2 1595.9 1067.3 1471.6 1106.2 1481.2 890 1246.6 858.2 1202.5 869.3 1122.5 876.3 1123.4 913.7 1128.5 1103.4 1154.2 1124.3 853.5 1205.4 863.3 Z M 1287.2 1719.2 1283.1 1819.2 1321.9 1818.9 1322.9 1768.3 1287.2 1719.2 Z M 1204.3 1750.5 1152.2 1749.2 1149.2 1815.8 1202.3 1815.8 1204.3 1750.5 Z" data-holc_grade="C"/>
<path d="M 1138.7 690.7 1129.6 794.1 1010.1 789.1 1013.2 699.3 1111.9 691.5 1138.7 690.7 Z" data-holc_grade="C"/>
<path d="M 1079.3 289.5 1148.1 291.6 1147.7 411.2 1076.6 444.8 1079.3 289.5 Z" data-holc_grade="C"/>
<path d="M 1871.2 597.6 1864.7 646.7 1829.7 644.2 1813.1 626.5 1808.1 596.7 1807.3 571.9 1481.5 529.7 1484.8 438.7 1550.5 443.7 1553 465.2 1639.4 471.8 1689.3 489.2 1705.1 492.5 1730 498.3 1777.4 501.6 1873.8 512.3 1871.2 597.6 Z" data-holc_grade="C"/>
<path d="M 2891.8 780 2891.3 816.1 2961.9 819.2 2960.3 933.4 2639.3 923.9 2510.7 922.6 2500.3 1119.5 2416.5 1132.7 2415.6 1095.3 2419.4 817.2 2294.6 625.9 2220.6 651.8 2184.3 879.4 2144.2 1205.7 1972.3 1130.8 1987.5 987.3 1990.9 928.8 1922.3 919.8 1930.4 840 2050.1 853.2 2056.5 796.9 2070.3 675.6 2178.3 653.3 2185.7 638.5 2186.8 545.3 2172.9 504 2142 445.7 2083 391.2 2027.7 361.6 1972.3 348.3 1910.6 343.1 1914.4 120.2 1950.2 121.8 1961 93.7 1976.7 64.7 2001.7 41.5 2009.1 7.6 2029.1 1 2048.2 20.8 2047.4 122.6 2630.7 131.9 2627.1 602.5 2964.8 602.3 2962.4 782.6 2891.8 780 Z M 2494.1 278.8 2523.9 280.4 2524.9 231.1 2495.1 230.6 2494.1 278.8 Z M 2818.4 821.9 2815.8 876.5 2891.3 878 2892.9 824.5 2818.4 821.9 Z" data-holc_grade="C"/>
<path d="M 2266.3 1676.1 2212.2 1676.4 2103.1 1674.7 2103.9 1580.2 2064.9 1576.7 2069.3 1487.5 1993 1603.2 1989.5 1588.2 1992.1 1436.7 2070.2 1436.3 2119 1483.9 2132.3 1483.9 2134.9 1504.2 2269.8 1503.3 2266.3 1676.1 Z" data-holc_grade="C"/>
<path d="M 2590.6 1844.3 2529.9 1862.6 2209.6 1854.8 2214 1734.7 2593.7 1739.8 2590.6 1844.3 Z" data-holc_grade="C"/>
<path d="M 2995.5 1656.5 2988.5 1851.7 2639.4 1843.2 2641.7 1747.7 2646.3 1670.6 2685.9 1654.1 2995.5 1656.5 Z" data-holc_grade="C"/>
</g>
<g id="D">
<path d="M 1914.4 120.2 1910.6 343.1 1972.3 348.3 2027.7 361.6 2083 391.2 2142 445.7 2172.9 504 2186.8 545.3 2185.7 638.5 2178.3 653.3 2070.3 675.6 2002.4 676.4 2005 561.4 1967.3 558.8 1871.2 597.6 1873.8 512.3 1777.4 501.6 1730 498.3 1705.1 492.5 1689.3 489.2 1639.4 471.8 1553 465.2 1550.5 443.7 1484.8 438.7 1421.8 438.6 1419.2 525.2 1349.1 518.8 1334.8 667.5 1216.6 661 1138.7 690.7 1111.9 691.5 1013.2 699.3 1010.1 789.1 1129.6 794.1 1216.6 805.8 1205.4 863.3 1124.3 853.5 1103.4 1154.2 913.7 1128.5 917.9 1089.3 882.2 1085.5 876.3 1123.4 869.3 1122.5 858.2 1202.5 890 1246.6 1106.2 1481.2 1067.3 1471.6 1058.2 1595.9 973 1593.1 970.7 1636 727.7 1626.9 729 1587.2 616.3 1582.7 503.6 1573.8 500.9 1708.1 504.5 1723.1 547.9 1724 555.9 1765.5 560.3 1859.1 609.1 1858.3 601 2005.8 402 2000.2 375.9 2071.4 267.5 2218 289.1 2284.8 293.4 2356 224.8 2356.4 125.2 2354.2 86.9 2335.7 99.8 1981.9 101.6 1850.3 5.1 1841.1 1 1803 8.5 1793.9 9.3 1780.7 4.4 1760 11 1742.6 23.5 1719.4 21 1702 17.7 1667.2 9.4 1644.9 12 1623.4 22.8 1600.2 41.1 1582 27 1579.5 56.1 1517.4 105.6 1442.9 171.9 1366.6 259 1294.3 287.6 1274.9 454 1077.1 472.2 1033.1 490.4 996.9 506 937.5 511.3 911.6 515.2 874.1 534.7 818.5 548.8 761.2 557.9 729.8 578.8 671 614.5 623.9 642 546.9 637.9 446 645.4 434.4 672 373.2 686.1 296.2 684.6 127.5 676.3 108.4 652.2 97.7 622.3 29 636.4 5 692.1 9.2 725.3 20.8 753.6 8.4 790.1 10 894.8 13.4 889 87 883.9 282.2 972.9 283.9 982.1 113.5 1081.8 117.7 1082.6 141.7 1287.9 137.6 1489 138.4 1657.7 127.6 1710.8 121 1914.4 120.2 Z M 1079.3 289.5 1076.6 444.8 1147.7 411.2 1148.1 291.6 1079.3 289.5 Z M 857.6 819.9 904.5 824.3 908.6 799.2 904.2 792.8 849.7 775.5 857.6 819.9 Z" data-holc_grade="D"/>
<path d="M 2416.5 1132.7 2332.6 1145.8 2231.5 1184.5 2162.2 1213.5 2144.2 1205.7 2184.3 879.4 2220.6 651.8 2294.6 625.9 2419.4 817.2 2415.6 1095.3 2416.5 1132.7 Z" data-holc_grade="D"/>
<path d="M 2212.2 1676.4 2214 1734.7 2209.6 1854.8 2152.8 1851.9 2137 2346 1970.2 2334.5 1667.4 2112.6 1668.5 2036.9 1670.2 1924.7 1754.4 1859.3 1758 1737.5 1852 1737.4 1863.6 1746.3 1920 1683.9 1993 1603.2 2069.3 1487.5 2064.9 1576.7 2103.9 1580.2 2103.1 1674.7 2212.2 1676.4 Z" data-holc_grade="D"/>
</g>
</svg>