<?xml version="1.0"?>
<svg xmlns="http://www.w3.org/2000/svg" version="1.2" baseProfile="tiny" width="3000" height="3823" viewBox="0 0 3000 3823" stroke-linecap="round" stroke-linejoin="round">
<g id="A">
<path d="M 2124.1 931.1 2048.7 935.8 1918.4 936.5 1949.4 857.5 2018.4 854.6 2019.8 867.8 2127.1 866.6 2124.1 931.1 Z M 1864.9 963.4 1682.3 972.9 1675.9 830.7 1677.1 815.7 1674.9 741.9 1741.9 737.2 1740.7 712.6 1808.5 714.2 1808.1 690.4 1841.2 692.8 1878.2 690.8 1882.6 805.4 1928.9 802.6 1864.9 963.4 Z" data-holc_grade="A"/>
<path d="M 1792.1 2870.6 1780.7 2877.2 1759.7 2883.3 1745.3 2885.2 1737.6 2889.3 1695.2 2918.2 1689.1 2924.6 1680.2 2929 1647.6 2947.7 1630 2971.6 1624.6 2983.9 1620.1 2992.5 1612.8 3008.7 1609 3013.2 1594.3 3020.8 1586 3028.1 1572.6 3033.2 1558.8 3044 1546.1 3050.3 1539.7 3056.7 1528.2 3063 1502.7 3074.1 1487 3083.7 1467.5 3037.9 1434.3 2994.1 1468.8 2981.7 1532.4 2937.9 1629.8 2863.3 1699.9 2809.7 1727.7 2827 1741.2 2836.9 1759 2850 1792.1 2870.6 Z" data-holc_grade="A"/>
<path d="M 1330.3 3143.8 1321 3151.3 1299.3 3163.7 1266.7 3185.6 1272.8 3155.8 1269.6 3073.5 1281.9 3070.5 1306.6 3055.7 1354.2 3124.3 1330.5 3143.6 1330.3 3143.8 Z" data-holc_grade="A"/>
<path d="M 1532.4 2937.9 1468.8 2981.7 1434.3 2994.1 1307.7 3041.9 1306.5 3047.9 1281.8 3057.8 1276.9 2970.8 1275 2935.9 1365.6 2935.2 1365.6 2842.7 1399.9 2837.9 1415.3 2828.4 1442.1 2866.1 1522.9 2805.2 1572.7 2874.1 1516.2 2916.3 1532.4 2937.9 Z" data-holc_grade="A"/>
<path d="M 1275 2935.9 1276.9 2970.8 1246.4 2972.1 1233.3 2971.7 1201.3 2974 1165.4 2973.2 1163.4 2885.1 1161.4 2851.8 1145.1 2851.8 1141.9 2808.1 1230.5 2808.1 1260 2808.9 1263.2 2871.2 1229.7 2870 1232.5 2939.5 1248.8 2940.3 1275 2935.9 Z" data-holc_grade="A"/>
<path d="M 485.4 3691.3 495.6 3687.5 554 3690.3 609 3687.2 613.7 3770.4 602.2 3802.8 608.3 3804.1 607.6 3821.2 604.1 3821.9 591.4 3813 587.8 3810.1 580.5 3810.4 578.3 3798.4 572.5 3789.5 564.5 3781.2 554 3771 544.7 3761.8 539.3 3759.3 510.6 3752 507.7 3747.5 485.4 3691.3 Z" data-holc_grade="A"/>
<path d="M 498.3 3215.5 442.7 3218.6 390 3203.1 385.3 3149.1 306.6 3151.2 293.9 3146.2 280 3137.8 276.1 3134.5 263 3100.2 259.9 3093.7 255.1 3091.1 226.6 3090.6 228.5 3155.2 233.3 3178 237.1 3220.4 277 3272.6 253.3 3275 211.4 3225.2 202.8 3168.5 195.5 3037.3 200.5 3029.4 201 2969.4 199.1 2938.9 207.3 2932.5 217.4 2918.9 220.7 2914.4 240.1 2906.8 243.9 2908.7 387.9 2904.5 396.5 2912.1 402.7 2913.1 409.9 2918.1 421.6 2924.5 514.7 2965.7 517.6 3011 500.8 3012.7 499.4 3002.9 488.4 2990.3 480.7 2985.5 400.5 2946.2 385.9 2940.4 377.8 2938.8 372.5 2935 360.8 2935.7 344 2937.3 331.1 2937.5 321.5 2936.8 304.5 2939.2 293.5 2938.2 282.5 2938.7 260.2 2941.8 255.2 2940.8 250.4 2939.6 246.8 2939.9 239.9 2942.3 235.3 2947.7 234.1 2952.7 231.9 2954.6 228.6 2957.7 227.2 2961.8 227.4 2971.8 264.5 2969.2 295.9 2968.5 302.8 2967.8 377.3 2966.6 399.4 2980.2 425.3 2992.1 437.3 2999.3 439.2 3004.8 445.6 3014.1 443.2 3034.5 447.1 3047.4 448.5 3061.2 452 3153.9 493.7 3152.5 497 3177.5 498.3 3215.5 Z" data-holc_grade="A"/>
<path d="M 2034.1 1314.2 1911.4 1318.3 1908.2 1206 1975 1207.4 1979 1292.4 2043.8 1290.1 2048 1294 2052.9 1298.4 2062.1 1299.6 2058.7 1305.3 2055.7 1305.1 2045 1311.7 2034.1 1314.2 Z M 1906.1 1114.2 1997 1111.8 2060.6 1109.9 2078.8 1113.2 2077.7 1116.9 2078.5 1123.8 2091.9 1162.1 2077.3 1159.7 1996.6 1164.1 1922.4 1165.3 1906.8 1166.7 1906.1 1114.2 Z" data-holc_grade="A"/>
<path d="M 1878.5 1527 1899.9 1487.4 1965 1486.1 1966.6 1492.7 1973 1512.1 1975.9 1543.5 1984.8 1566 1851.1 1570.8 1871.5 1540 1878.5 1527 Z" data-holc_grade="A"/>
<path d="M 2934.7 713.3 2826.9 718.5 2821.3 638.8 2825.6 627.1 2828.5 615 2878.9 610.5 2925.3 609.6 2934.7 713.3 Z" data-holc_grade="A"/>
<path d="M 2645.6 1119.8 2659.7 1120 2682.9 1115.9 2671.9 1082.9 2682.8 1084.5 2708.6 1072.8 2758 1045 2785.5 1033.1 2805.2 1026.4 2821.4 1023.2 2821.4 1038.6 2803.8 1042.8 2767.8 1055.1 2781.9 1092 2768.4 1098.2 2758.4 1103.3 2747.5 1110.9 2732.5 1120.6 2697.2 1136.1 2698.6 1146.4 2679.9 1151.9 2652.8 1153.5 2637 1157.1 2642.8 1139.3 2645.2 1132.3 2645.6 1119.8 Z" data-holc_grade="A"/>
<path d="M 2920 1251 2910.2 1251.4 2907.4 1250.6 2893.4 1154.6 2892.6 1148.8 2895 1141.7 2897.2 1137.1 2901 1135.2 2905.8 1135.2 2911.9 1137.3 2915.3 1141.9 2918.3 1152.6 2919.9 1168.9 2922.5 1193.3 2925.9 1201.2 2930.5 1209.7 2939.1 1242.2 2934.9 1242.2 2930.8 1243 2926.2 1246.4 2920 1251 Z M 2878.3 1200.4 2874.7 1203.2 2866.5 1202.8 2860.1 1202.6 2849.6 1205.2 2834 1210.2 2826.2 1212.3 2816.9 1215.9 2812.3 1218.1 2802.9 1216.5 2792.6 1217.3 2788 1215.7 2777 1216.1 2770 1212.8 2763.2 1206.8 2760.6 1200.5 2759 1191.4 2758.6 1186.4 2759.6 1180.5 2765.6 1170.5 2768.8 1164 2775.4 1155.3 2780.2 1149.7 2786.3 1142.6 2795.1 1136.2 2800.1 1136 2809.1 1135.6 2819.6 1131.6 2826.2 1130.4 2832.2 1130.4 2842.2 1132.2 2851.3 1135 2860.5 1141.9 2869.3 1148.7 2872.5 1157.4 2876.1 1169.3 2878.7 1178.6 2879.9 1190.9 2878.3 1200.4 Z" data-holc_grade="A"/>
<path d="M 2960.2 1263.5 2975.5 1265.4 2989.2 1263.8 2987.3 1349.8 2982.6 1408.9 2984.5 1416.5 2984.5 1440 2985.8 1449.8 2984.2 1458 2981 1475.5 2981.7 1493 2983.9 1516.8 2982 1550.7 2975.1 1600.5 2971.9 1627.2 2968.4 1642.7 2967.4 1664.3 2959.2 1712.6 2955 1727.8 2953.8 1742.4 2953.2 1776.7 2929.2 1771.3 2930.2 1747.2 2934.3 1721.2 2940.3 1697.4 2941.3 1675.8 2949.9 1600.9 2956.2 1577.1 2957.5 1552.9 2954 1524.1 2956.2 1494.9 2955.5 1468.5 2958.7 1447 2959.3 1380 2957.7 1366.4 2955.4 1349.9 2955.4 1338.8 2957.3 1324.5 2958.3 1276.2 2960.2 1263.5 Z" data-holc_grade="A"/>
<path d="M 2553.8 2096.3 2556.8 2097.2 2562.9 2097.2 2567.7 2095.7 2575.5 2097.6 2583.3 2096.4 2597.9 2097.2 2606.2 2099 2614.2 2098.2 2617.2 2098.8 2620 2103 2621.8 2108.5 2621.8 2115.3 2622.6 2121 2617.8 2128.6 2611.8 2131.3 2607.4 2132.3 2603.1 2132.5 2596.7 2130.4 2586.9 2132.1 2579.9 2129.6 2574.3 2130.4 2569.3 2129.8 2566.6 2129.4 2559.8 2130 2556 2129.6 2551 2127.4 2544.2 2117.7 2543.8 2113.5 2536.2 2107.6 2534 2104 2534.6 2100 2538.6 2096.3 2541.4 2095.3 2545 2095.9 2553.8 2096.3 Z M 2532.8 2061.3 2537 2062.9 2547 2062.9 2556.9 2062.9 2569.9 2062.1 2577.3 2063.9 2616.2 2063.1 2619.6 2063.1 2620.4 2063.9 2622.4 2069.4 2624.4 2076 2624.2 2083.1 2619.2 2090.7 2611 2090.1 2604.4 2088.1 2599.4 2087.9 2585.9 2087.7 2569.3 2088.5 2555.6 2087.1 2543.4 2088.3 2534 2085.9 2525.8 2086 2520.5 2082.6 2520.3 2079 2519.9 2075.8 2514.1 2066.3 2517.3 2063.9 2532.8 2061.3 Z M 2560.5 2013.1 2565.9 2013.9 2575.3 2011.3 2585.4 2012.1 2592.8 2012.1 2599.4 2009.7 2617.4 2009.7 2618.4 2011.1 2618.2 2026.8 2620.6 2041.9 2620.6 2047 2619.4 2050.2 2617.6 2053.8 2612 2054.2 2603.4 2053.2 2591.7 2054.4 2581.3 2053.2 2570.5 2053.6 2555.1 2054.6 2542 2055 2531.4 2054 2522.6 2053 2518.6 2052 2516.3 2052.8 2512.5 2050.8 2508.7 2045.7 2505.5 2039.5 2506.5 2020.5 2507.9 2016.7 2510.1 2013.3 2510.8 2010 2514 2008.6 2533 2008.8 2552.1 2010 2560.5 2013.1 Z M 2617.2 1993.7 2615.6 1995.2 2575.5 1994.7 2535 1991.9 2532.2 1990.1 2530.8 1988.3 2529.4 1984.2 2529.4 1980.2 2533.8 1974.3 2545.5 1964.9 2560.5 1958.2 2579 1952.6 2591.4 1950.6 2602.4 1950.6 2612.5 1953.2 2615.3 1956.4 2617.1 1961.9 2619.9 1967.3 2618.3 1975.4 2618.5 1983.5 2617.9 1991.3 2617.2 1993.7 Z M 2649.8 2132.8 2620.8 2168.4 2617.2 2139.5 2624.6 2128 2628.4 2118.8 2628.4 2106.1 2630.9 2097.9 2635.1 2096 2642.7 2093.7 2644.6 2089 2646.6 2065.8 2643.3 2043.6 2645.3 2029.3 2642 1994.1 2641.1 1987.7 2638.2 1983.9 2630.2 1983.3 2627 1974.7 2624.8 1969 2626.1 1963.3 2632.8 1948.4 2640.7 1935.7 2665.6 1916.9 2672.3 1910.9 2682.2 1898.5 2697.8 1903.9 2704.2 1908.7 2703.3 1917.2 2687.3 1935.3 2675.9 1954.4 2668.5 1979.8 2672.4 1991.2 2675.3 2037.9 2675.9 2086.7 2649.8 2132.8 Z M 2891 1879.8 2890.7 1893.3 2887.4 1910 2878.3 1932.6 2868.5 1953.3 2864.7 1965.2 2862.8 1973.6 2861.8 1984.5 2861.8 2008.3 2860.4 2015.7 2861.1 2026.2 2859.9 2037.1 2853.5 2047.1 2842.7 2055 2815 2070.5 2823.1 2030.7 2830 1986 2777.8 1999.1 2727.1 2122.9 2707.8 2131.5 2736.7 2063.4 2745.3 1997 2769.9 1996.2 2788.3 1924.3 2792.6 1892.4 2776.1 1892.4 2767.5 1890.5 2764.8 1886 2763.4 1876.7 2765.5 1857.7 2772.2 1821.3 2840.2 1822.4 2868.4 1823.6 2890.4 1824.5 2892.1 1867.1 2891 1879.8 Z M 2771.3 1767.9 2768.5 1777.8 2761.1 1827.9 2757.7 1851.7 2752.6 1883.4 2745.2 1892.7 2735 1895.2 2716.8 1896.8 2684.9 1889.2 2684.3 1885.4 2684.3 1880 2695.1 1846 2694.5 1839.7 2693.8 1834.3 2692.9 1831.7 2688.7 1827.9 2676.9 1820.6 2667.6 1810.2 2660.6 1802.6 2657.7 1794.6 2657.4 1788 2655.8 1783.5 2653.6 1782.6 2652.3 1784.2 2649.4 1786.7 2645.3 1788.3 2642.4 1788.3 2639.2 1785.1 2637.3 1780.7 2637.6 1774 2640.2 1771.5 2641.8 1769.9 2644.6 1769.3 2649.7 1771.8 2654.2 1773.7 2656.1 1772.7 2654.9 1767.3 2655.2 1763.9 2658 1760.7 2663.8 1758.5 2671.1 1740.4 2674 1722.9 2678.8 1715.6 2681.9 1712.1 2683.2 1705.1 2681 1697.2 2680 1689.3 2680 1680.7 2678.7 1673.7 2677.5 1664.2 2678.7 1656.9 2684.1 1649.6 2689.9 1645.1 2695 1638.8 2695.9 1626.1 2699.8 1618.2 2705.2 1610.2 2710.6 1604.2 2718.3 1602 2726.9 1596.6 2732.6 1590.2 2737.1 1589.3 2745.4 1590.2 2750.5 1594 2774.7 1615.3 2788.8 1622.6 2793.9 1624.5 2796.1 1626.7 2803.5 1649.2 2805.7 1658.4 2804.5 1664.4 2799.7 1674 2800 1680 2799.7 1685.1 2797.5 1694.6 2771.3 1767.9 Z M 2904.7 1642.5 2900.6 1658 2900.6 1670.4 2906.6 1705.6 2911.1 1742.4 2895.2 1806.6 2841.6 1798.7 2773.3 1798.7 2777.1 1770.8 2788.3 1740.3 2801.3 1711.4 2806.4 1702.8 2808 1686 2809.9 1672.4 2812.8 1656.8 2818.5 1652.7 2840.6 1654.9 2849.8 1653.3 2854.3 1650.1 2863.5 1641.5 2883 1619 2888.1 1607.6 2892.8 1586 2898.3 1583.5 2903.7 1582.5 2919.6 1580.6 2928.3 1580.6 2930.8 1582.8 2933.4 1587.6 2919.7 1615.8 2904.7 1642.5 Z M 2888.5 1237.1 2896.8 1248.8 2903.8 1263.8 2904.8 1270.1 2909 1279.3 2910.6 1286 2916.6 1306.3 2920.2 1320.2 2922.7 1333.5 2924.3 1348.8 2925.3 1354.5 2924 1367.8 2922.7 1383.4 2922.1 1397 2923.4 1403.4 2929.8 1432.9 2930.4 1442.7 2927.9 1450 2922.8 1469.4 2920.6 1505.2 2923.8 1519.5 2925.1 1530 2923.2 1538.2 2925.4 1547.7 2927.3 1555 2928.3 1567.7 2928 1571.5 2904.4 1574.1 2891.6 1573.8 2887.8 1582 2881.7 1595.1 2878.9 1604.9 2878.2 1610.9 2875.4 1617.3 2873.4 1623 2867.4 1627.1 2863.6 1630.3 2859.4 1633.1 2856.5 1632.2 2853 1630.9 2848.9 1627.4 2844.7 1624 2840.9 1621.1 2837.7 1620.1 2833.6 1620.2 2827.8 1621.7 2823 1621.7 2813.5 1621.1 2797.8 1618.6 2786.3 1613.2 2779.3 1608.4 2778 1605.3 2768.1 1600.8 2764.3 1596.7 2758.2 1589.1 2753.4 1580.2 2752.8 1568.2 2755.3 1555.8 2761.7 1542.1 2768.7 1532.9 2782.4 1517.7 2789.5 1510.1 2796.8 1494.5 2801.9 1482.8 2805.1 1469.4 2805.4 1456.1 2800.3 1444 2796.8 1432.6 2794.5 1425.3 2790.4 1422.5 2783.3 1416.8 2780.5 1407.3 2776 1402.2 2771.5 1396.1 2769.6 1391.1 2763.2 1378.7 2755.9 1365.4 2754.3 1357.1 2760.3 1317.1 2759 1292.7 2780.7 1280.6 2788 1276.2 2796 1275.6 2802.4 1274.3 2816.8 1265.1 2825 1253.6 2845.4 1221.6 2848.6 1216.5 2854 1214.6 2860.4 1211.4 2873.5 1211.7 2879.9 1212 2881.8 1223.5 2888.5 1237.1 Z M 2796 1558.9 2828.3 1559.6 2830.3 1548.5 2835.8 1543 2858.6 1544.2 2878.1 1544.5 2886.1 1544.6 2885.7 1552.1 2884.9 1560.4 2896.1 1562.8 2902.5 1558 2904.1 1548.9 2900.1 1541 2893.7 1531.8 2894.9 1508.8 2892.8 1468.8 2896.4 1458.5 2896.4 1442.2 2898.4 1415.6 2902 1397.8 2900.7 1368.4 2898.7 1343.4 2893.9 1318.8 2887.5 1306.9 2883.5 1287.5 2870.8 1260.9 2866 1254.2 2859.6 1243.5 2843.7 1272.5 2835.7 1284 2828.5 1289.5 2811 1295.5 2802.6 1308.6 2796.2 1320.9 2793 1332 2791.5 1345.9 2792.3 1365.7 2796.3 1380 2803.5 1391.9 2810.2 1397.8 2818.2 1416.9 2826.6 1439.1 2829 1454.5 2831.4 1482.3 2823.5 1504.9 2812.3 1526.3 2804.7 1538.6 2798 1552.1 2796 1558.9 Z" data-holc_grade="A"/>
<path d="M 2471.6 2549.4 2464.2 2549.4 2459.1 2546.2 2453.1 2542.7 2447.3 2536 2438.7 2431.9 2443.4 2419.8 2448.2 2415.7 2457.5 2414.4 2465.1 2414.4 2473.4 2418.6 2481.1 2427.1 2484.9 2430.6 2493.6 2534.7 2491.4 2541.4 2485.9 2547.1 2479.6 2549 2471.6 2549.4 Z M 2357.3 2494.1 2348.1 2496.1 2178.7 2414.2 2174.7 2407 2171.5 2399.9 2171.1 2395.3 2172.1 2391.6 2173.3 2389.8 2175.1 2388 2177.7 2386.8 2181.3 2384.2 2185.3 2382 2187.7 2381.4 2191.1 2381.2 2364.7 2464.7 2369 2471.7 2369.8 2475.6 2369 2481.4 2368.5 2484.9 2362.7 2490.3 2357.3 2494.1 Z M 2375 2429.2 2369.6 2429.4 2361.4 2428.4 2215 2357.2 2212 2350.9 2212 2342.9 2213.1 2337.8 2215.5 2334 2219.9 2330.8 2225.3 2329.4 2230.7 2329.4 2374.2 2396.8 2378.8 2399.6 2383.5 2403.4 2387.7 2411.3 2388.7 2414.5 2388.1 2416.7 2385.9 2423.2 2380.2 2427.6 2375 2429.2 Z M 2201.9 2260 2127.7 2261.7 2121.7 2255.5 2117.4 2246.9 2117.4 2240.5 2119 2235.7 2126.2 2227.9 2199.7 2224.8 2205.2 2228.3 2210.5 2232.6 2213.6 2239.3 2213.8 2245.2 2211.4 2253.3 2201.9 2260 Z M 2266.4 2290 2258.3 2290.7 2253.2 2288.5 2247 2285 2241 2276.6 2239.1 2191.9 2244.8 2184.7 2253.7 2181.2 2264.2 2182.1 2270.4 2185 2276.2 2191.9 2281 2276.2 2276.7 2284.5 2272.6 2288.1 2266.4 2290 Z M 2394.7 2292.8 2387.5 2292.8 2382.5 2289 2377 2283.5 2374.8 2270.4 2371.4 2182.3 2374.6 2175.9 2381.7 2171.4 2388.9 2169.2 2395.9 2171.1 2402.1 2175.4 2405.9 2181.8 2407.6 2186.8 2413.4 2278 2410.3 2284.2 2407.2 2288.2 2402.6 2292.3 2394.7 2292.8 Z M 2337.7 2320.9 2329.1 2323.3 2319.8 2319.9 2312.1 2313 2309.7 2303.8 2304.7 2159.2 2310.6 2152.8 2320 2149 2327.1 2149.5 2334.8 2156.1 2339.1 2166.1 2347.8 2311.4 2345.2 2316.4 2337.7 2320.9 Z" data-holc_grade="A"/>
</g>
<g id="B">
<path d="M 1758.6 329.5 1827.8 327.3 1832.6 423.4 1833.6 445.3 1833.3 491 1857.5 493.2 1946.2 491.6 1946.8 518.6 1948.1 548.4 1950 559.2 1950.7 587.7 1912.4 586.4 1862 589 1788.9 479.3 1763.4 423.7 1758.6 329.5 Z" data-holc_grade="B"/>
<path d="M 2989.2 1263.8 2975.5 1265.4 2960.2 1263.5 2962.1 1247.2 2962.9 1235.3 2962.9 1227.9 2959.5 1207.9 2959.5 1201 2959.5 1193.2 2955.4 1168.8 2948.3 1153.2 2942.9 1142.9 2938.3 1136.9 2931.3 1133.6 2919.5 1116.7 2911.1 1105.2 2905.9 1091.9 2904.7 1085.2 2896 1064.6 2891.2 1057 2886.6 1053.9 2881.6 1047.7 2877.2 1042.4 2872 1033.1 2867 1024.5 2899.9 1021.1 2912.7 1024.5 2924.3 1029.5 2929.2 1033.8 2942.6 1050.5 2947.4 1052.2 2959.8 1059.4 2960.2 1082.2 2986.5 1081.4 2986.3 1095.4 2987.7 1103.8 2990.3 1117.9 2991.3 1127.4 2993.1 1140.1 2994.3 1152.6 2995.9 1175.4 2996.7 1202.9 2996.2 1214.4 2994.8 1228.3 2994 1237.8 2993.4 1247.7 2992.2 1252.7 2989.2 1263.8 Z" data-holc_grade="B"/>
<path d="M 2741.9 2470.7 2733.3 2468.5 2721.5 2469 2625.5 2473.1 2619.6 2474.8 2619.6 2453.6 2610.2 2453.6 2609.5 2411.2 2586.5 2412.7 2580.7 2368.1 2579.5 2363.1 2552.9 2318.6 2550.1 2302 2549.8 2290.1 2551.2 2282 2551.7 2270.1 2560.3 2251.2 2558.4 2242.7 2563.2 2231.5 2604.3 2204.3 2604.6 2231.5 2597.7 2231.5 2598.4 2256.2 2604.8 2257.4 2605.8 2321 2635 2321.2 2633.1 2255.5 2769.3 2253.8 2772.2 2313.5 2741.9 2470.7 Z M 2648 2366.4 2649.9 2408.1 2705.5 2405.2 2701.6 2320 2685.3 2319.8 2684.3 2299.5 2664 2299.8 2665 2364.8 2648 2366.4 Z M 2714.2 2230.9 2632.8 2233.1 2632.2 2191.7 2684.7 2163.7 2695.4 2154.9 2713 2146.8 2714.2 2230.9 Z M 2812.2 2174.5 2824.9 2175.2 2830 2173.1 2845.3 2163.3 2853.9 2158.5 2851.7 2166.4 2857.2 2165.9 2837.7 2281.9 2820.7 2282.3 2822.6 2274 2792.9 2289 2793.9 2241.6 2780.2 2240.7 2778.5 2185 2780.4 2102.1 2796.4 2090.5 2803.1 2085.7 2834.9 2099 2814.9 2146.9 2812.2 2174.5 Z" data-holc_grade="B"/>
<path d="M 2475.6 2205.7 2479.6 2201.1 2489.2 2196.1 2495.9 2196.4 2501.4 2198 2509.1 2199.2 2516.7 2204.9 2523.7 2210.2 2530.1 2213.2 2536.8 2226.6 2541.9 2230.6 2544.3 2234.7 2544.3 2243.5 2535.2 2254 2526.6 2259.9 2522.3 2266.1 2508.4 2267.8 2499 2263 2485.6 2255.2 2473.2 2244.7 2470.1 2233.5 2468.9 2223.7 2471.3 2214.5 2475.6 2205.7 Z" data-holc_grade="B"/>
<path d="M 1818 2821.1 1817.8 2831.9 1817.6 2839.3 1816.5 2848.4 1810.5 2858.1 1799.9 2866.7 1792.1 2870.6 1759 2850 1741.2 2836.9 1727.7 2827 1699.9 2809.7 1706.7 2800.7 1744.5 2799.9 1818 2821.1 Z" data-holc_grade="B"/>
<path d="M 1562.3 2774.7 1629.8 2863.3 1532.4 2937.9 1516.2 2916.3 1572.7 2874.1 1522.9 2805.2 1442.1 2866.1 1415.3 2828.4 1399.9 2837.9 1398.4 2819.9 1398.4 2791.8 1445.3 2791.1 1446.2 2771.8 1557.8 2769 1562.3 2774.7 Z" data-holc_grade="B"/>
<path d="M 1322 2371.6 1323.4 2435.9 1298.5 2435.4 1272.6 2438.5 1213.8 2440.2 1213.8 2370.7 1223.7 2370.5 1244.4 2370.2 1252.8 2362.8 1251.8 2338.8 1322 2371.6 Z" data-holc_grade="B"/>
<path d="M 1100.4 2582.2 1103.6 2636.9 1105.6 2647.2 1105.7 2701.2 986.9 2706 983.1 2615.2 980.2 2585 1100.4 2582.2 Z M 1059.3 2611.9 1051.1 2611.3 1051.9 2594.8 1018 2596.4 1018 2632.7 1048.3 2630.1 1050.9 2630.3 1058.5 2634.5 1059.3 2611.9 Z" data-holc_grade="B"/>
<path d="M 1398.4 2819.9 1399.9 2837.9 1365.6 2842.7 1365.6 2935.2 1275 2935.9 1248.8 2940.3 1232.5 2939.5 1229.7 2870 1263.2 2871.2 1260 2808.9 1230.5 2808.1 1141.9 2808.1 1145.1 2851.8 1161.4 2851.8 1163.4 2885.1 1165.4 2973.2 1201.3 2974 1233.3 2971.7 1246.4 2972.1 1276.9 2970.8 1281.8 3057.8 1281.9 3070.5 1269.6 3073.5 1257.2 3076.5 1257.6 3059.4 1197.7 3062.6 1064.4 3065.3 1064.8 3097.5 999 3098.6 998.2 3062.5 1031.3 3062.5 1030.5 2975.2 1096.8 2973.6 1096.8 2936.3 1129.9 2935.1 1129.1 2878.8 1058.9 2881.1 1058.9 2863.3 1128.3 2862.9 1125.5 2776.4 1054.5 2777.5 1053.7 2721.6 1089.2 2719.6 1125.9 2721.6 1165.1 2720 1213.3 2716.4 1258.5 2715.6 1258.8 2724.2 1308.8 2723.5 1309 2735.9 1325.8 2736.3 1329.9 2825.4 1364.8 2823.7 1398.4 2819.9 Z" data-holc_grade="B"/>
<path d="M 1330.3 3143.8 1333.7 3150.7 1333.7 3159.3 1341.4 3180.5 1352.6 3195.8 1332.8 3195.2 1306.6 3198.3 1297.3 3211.7 1290 3216.7 1288.1 3226.9 1283 3233.6 1276.6 3240.2 1270.5 3248.2 1265.1 3251 1256.8 3252 1252.3 3263.1 1246.2 3266.3 1231.2 3266.9 1220.4 3270.1 1212.7 3270.1 1205.4 3267.9 1200.6 3261.5 1191.6 3260.2 1183.7 3262.5 1174.4 3241.8 1157.8 3205 1159.7 3184.7 1157.2 3117.6 1236 3084.6 1257.2 3076.5 1269.6 3073.5 1272.8 3155.8 1266.7 3185.6 1299.3 3163.7 1321 3151.3 1330.3 3143.8 Z" data-holc_grade="B"/>
<path d="M 746.2 3557.6 749.2 3586.1 812.3 3539.2 881.8 3456.1 884.9 3444.3 889.3 3436.4 916.2 3411.3 966.3 3468.8 957.3 3477 945.8 3491.3 938.8 3494.8 910.7 3526.9 901.1 3534.5 895.1 3541.8 893.5 3545.6 897.9 3558.3 895 3562.1 898.9 3569.1 896.3 3570.4 893.1 3573.6 892.5 3578 894.4 3581.2 891.5 3588.8 870.4 3611.4 832.4 3644.7 820.6 3661.9 813.6 3676.8 811.7 3696.5 812.6 3708.5 819.3 3726.3 773.6 3731.1 750.3 3730.8 748.1 3665.3 639.8 3669.7 635.7 3614.8 606 3615.7 603.5 3557.9 706.9 3556 746.2 3557.6 Z" data-holc_grade="B"/>
<path d="M 1845.7 1010.3 1752.6 1014.9 1753.2 1048.6 1733.8 1048.4 1713.9 1051.2 1684 1050.8 1683.2 1001.8 1665.9 1001.2 1664.3 948.6 1611.7 949.8 1611.3 928 1613.1 910.8 1611.9 895.1 1610.9 860.8 1608.4 855.4 1609.1 816.6 1606.5 744.3 1674.9 741.9 1677.1 815.7 1675.9 830.7 1682.3 972.9 1864.9 963.4 1845.7 1010.3 Z" data-holc_grade="B"/>
<path d="M 390 3203.1 442.7 3218.6 498.3 3215.5 552.1 3212.5 589.7 3143.7 623.3 3123.2 624 3151.1 653.9 3149.4 656.5 3184 626.8 3184.9 626.1 3253 557.6 3252.5 560.4 3342.1 491.2 3342 463.7 3346.8 460.4 3271.3 394.7 3254.6 390 3203.1 Z" data-holc_grade="B"/>
<path d="M 253.3 3275 260.5 3511.3 200.2 3514 193.6 3275.8 253.3 3275 Z" data-holc_grade="B"/>
<path d="M 517.6 3011 514.7 2965.7 421.6 2924.5 409.9 2918.1 402.7 2913.1 396.5 2912.1 387.9 2904.5 243.9 2908.7 240.1 2906.8 220.7 2914.4 217.4 2918.9 207.3 2932.5 199.1 2938.9 201 2969.4 200.5 3029.4 195.5 3037.3 202.8 3168.5 211.4 3225.2 253.3 3275 193.6 3275.8 195.2 3252.4 189.6 3224.2 184.1 3136.1 182.9 3078.9 178.1 3035.3 178.1 3024.2 178.2 2985.6 177 2940 172.3 2866.6 173.9 2834.4 174.7 2823.7 168.3 2747.9 380.8 2738.9 385.6 2817.5 438.7 2813.9 435.9 2786.9 473.8 2783.4 476.2 2846.9 441.4 2848.1 442.2 2871.1 581.9 2863.6 579.9 2826.3 606.7 2827.9 601.1 2720.3 632.3 2719.2 636.2 2926.3 580.3 2930.3 583.5 3003.3 517.6 3011 Z" data-holc_grade="B"/>
<path d="M 924 2983.5 871.9 2984.7 870.3 2929.5 980.8 2925.7 980.8 2940.3 923.3 2942.8 924 2983.5 Z" data-holc_grade="B"/>
<path d="M 837.9 2670.4 776.9 2673.3 774.8 2587.1 834.4 2585.4 838.2 2651.4 837.9 2670.4 Z" data-holc_grade="B"/>
<path d="M 337.1 1698.9 363 1717.7 366.8 1756.3 366.1 1773.6 367.7 1896.9 251.1 1898.5 248.7 1844.5 242.8 1835.7 125.3 1731.8 75.8 1731.3 75.5 1752.5 2.2 1751.8 1 1709.6 59.9 1709.2 58.9 1681.1 103.2 1679.7 163.8 1681.9 163.3 1700.2 200.5 1697.4 337.1 1698.9 Z" data-holc_grade="B"/>
<path d="M 1905 1096.7 1904.4 1086.3 1956.1 1083.2 1973.1 1062.8 1913.2 1064 1915.4 999 1958.2 998.5 1957.7 955 1911.3 955.5 1918.4 936.5 2048.7 935.8 2124.1 931.1 2126.4 996.6 2124.5 1001.1 2123.3 1023 2122.3 1033.2 2107.3 1064.6 2095.3 1075.4 2089.8 1082.5 2082.4 1099.4 2078.8 1113.2 2060.6 1109.9 1997 1111.8 1906.1 1114.2 1905 1096.7 Z" data-holc_grade="B"/>
<path d="M 1969.4 1386.9 1915.6 1388.8 1913.1 1327.8 1911.4 1318.3 2034.1 1314.2 2019.1 1328.3 2007.1 1339 1994.9 1347.1 1985.6 1354 1979.8 1360.4 1972.6 1372.5 1969.4 1386.9 Z M 1893 1454.1 1847.6 1454.9 1843.2 1333.2 1836 1221 1881.8 1220.6 1893 1454.1 Z" data-holc_grade="B"/>
<path d="M 1965 1486.1 1899.9 1487.4 1878.5 1527 1851.7 1528 1849.5 1478.8 1892.6 1476.6 1898.3 1475.9 1923.5 1475.9 1931.8 1473.1 1939.1 1473.4 1939.5 1463.2 1958.6 1463.5 1958.9 1471.2 1960.8 1478.1 1965 1486.1 Z" data-holc_grade="B"/>
<path d="M 1506.3 1838.4 1439.4 1840 1436.1 1756.6 1421.3 1756.6 1418.9 1731.3 1461.7 1728.9 1460.5 1693.2 1572.3 1688.5 1577.6 1836.3 1506.3 1838.4 Z" data-holc_grade="B"/>
<path d="M 1778 1713.9 1779.9 1781.3 1744.7 1781.1 1745.2 1767.3 1726 1767 1725.1 1743.2 1641.8 1743.5 1640.3 1687.1 1708.5 1685.4 1709.3 1699.2 1778 1713.9 Z" data-holc_grade="B"/>
<path d="M 2973.7 724.5 2956.1 722.9 2953.3 715.7 2940.2 714.5 2934.7 713.3 2925.3 609.6 2878.9 610.5 2871.2 523 2901.4 520.8 2896.5 454.9 2902.5 453.5 2915.4 465.4 2956.1 464.2 2955.9 482.7 2958.5 495.8 2961.7 546.7 2965.5 565.3 2965 593.1 2969.4 630.5 2973.7 724.5 Z" data-holc_grade="B"/>
<path d="M 2940.2 714.5 2953.3 715.7 2956.1 722.9 2973.7 724.5 2991.9 788.6 2991.6 820.3 2993.5 852.3 2997.1 922.5 2999 943.1 2965.8 943.4 2967.5 988.5 2912.9 987.2 2912.7 859.3 2910.7 833.5 2939.8 831.5 2940.2 714.5 Z" data-holc_grade="B"/>
</g>
<g id="C">
<path d="M 1862.1 331.4 1964.5 327.8 1968.6 422.5 1898.5 425.2 1897.3 390.7 1862.8 392.1 1862.1 331.4 Z" data-holc_grade="C"/>
<path d="M 2725.7 2544.7 2705.6 2640.2 2685.7 2639 2635.6 2546.4 2707 2543.1 2725.7 2544.7 Z M 2741.9 2470.7 2729.7 2523.3 2716.8 2520.5 2705.8 2520.7 2631.6 2524.8 2630.6 2505.7 2619.6 2505.7 2619.6 2474.8 2625.5 2473.1 2721.5 2469 2733.3 2468.5 2741.9 2470.7 Z" data-holc_grade="C"/>
<path d="M 972.3 2228.5 980 2233.6 986.7 2233.2 1002.3 2238.6 1017.6 2237.7 1026.6 2238 1033.6 2238.6 1043.5 2242.8 1075.4 2262.8 1114.7 2277.7 1123.3 2279.3 1153.3 2299 1173.1 2303.8 1179.1 2308.8 1176.3 2320.3 1170.2 2329.5 1161.9 2338 1150.7 2343.1 1130.9 2346.3 1118.8 2345 1116.9 2347.2 1112.4 2346.9 1110.5 2312.9 1109.2 2305.3 1027.5 2310.4 970.4 2310.7 968.8 2228.8 972.3 2228.5 Z M 1466.1 2361.6 1470.9 2365.5 1475.7 2375.4 1497.3 2399.6 1514.4 2423.5 1514.8 2460.4 1501.3 2456.8 1484.5 2443.7 1459.4 2419.1 1449.8 2414.3 1445.8 2407.2 1427.4 2401.6 1417.1 2391.7 1405.1 2387.3 1400.7 2380.6 1390.7 2381.4 1360.4 2373.8 1325.3 2360.8 1309.7 2350 1279.4 2341.3 1263.5 2333 1262.2 2163.9 1314.9 2161.9 1315.3 2258.8 1316.9 2311.1 1318.1 2345.3 1360 2369.1 1403.5 2364.7 1412.7 2364.3 1436.2 2364.7 1466.1 2361.6 Z M 1230.2 2147.8 1234 2316.1 1224.8 2313.3 1215.8 2310.4 1206.3 2305.7 1198.3 2304.7 1189.7 2302.5 1183.3 2296.1 1182 2290.1 1176.3 2286.9 1170.8 2289.1 1170.2 2294.5 1146.3 2283.4 1127.1 2271 1109.6 2266.6 1100 2261.2 1089.5 2258 1037.8 2230.4 1039 2224 1037.8 2217.4 1031.7 2212.3 997.2 2212 988.9 2207.2 984.5 2201.8 986.5 2154.5 1230.2 2147.8 Z" data-holc_grade="C"/>
<path d="M 1598.4 2541.2 1521.3 2544.3 1517.5 2492.9 1528.3 2480.8 1538.6 2485.8 1544.1 2492 1558.2 2498.1 1573.3 2519.3 1579.3 2522.7 1586.2 2525 1590 2529.6 1593.1 2535 1598.4 2541.2 Z M 1322 2371.6 1372.7 2391 1373.4 2409.3 1486.4 2468.4 1489.7 2514.3 1490.5 2545.3 1338.2 2549.1 1251 2552.2 1242.9 2556.9 1111.3 2560 1111.6 2581.9 1100.4 2582.2 980.2 2585 983.1 2615.2 986.9 2706 935.1 2709 866.8 2710.5 844.1 2713.1 762.9 2715.9 762 2687.4 758.9 2588 708.9 2589.4 706.9 2564.9 843.9 2560.4 842.7 2523.8 890.8 2523.3 904.5 2523.3 981.8 2513.3 1063.6 2510 1059 2376.7 1190.8 2372.9 1190.4 2356.9 1193.2 2353.8 1200.7 2352.2 1221.2 2351.9 1223.4 2355.5 1223.7 2370.5 1213.8 2370.7 1213.8 2440.2 1272.6 2438.5 1298.5 2435.4 1323.4 2435.9 1322 2371.6 Z M 1276.6 2473.8 1279 2507.9 1332.2 2506.2 1331 2471.2 1276.6 2473.8 Z M 837.9 2670.4 838.2 2651.4 834.4 2585.4 774.8 2587.1 776.9 2673.3 837.9 2670.4 Z" data-holc_grade="C"/>
<path d="M 1500.5 2706.8 1502.1 2753.2 1583.1 2751.2 1583.5 2738.5 1597.9 2738.1 1598.2 2749.5 1562.3 2774.7 1557.8 2769 1446.2 2771.8 1445.3 2791.1 1398.4 2791.8 1398.4 2819.9 1364.8 2823.7 1329.9 2825.4 1325.8 2736.3 1309 2735.9 1308.8 2723.5 1258.8 2724.2 1258.5 2715.6 1299 2713.2 1345.9 2713.5 1399.1 2709.7 1500.5 2706.8 Z M 1111.6 2581.9 1111.7 2591.4 1192.1 2590 1240.2 2586.5 1240.7 2604.1 1240.5 2632.9 1244.5 2697.4 1191.1 2697.9 1138.9 2701.2 1105.7 2701.2 1105.6 2647.2 1103.6 2636.9 1100.4 2582.2 1111.6 2581.9 Z M 1596.4 2570.6 1640.2 2634.7 1640.8 2681.7 1458.3 2687.4 1408.2 2692.2 1273.1 2697.6 1271.5 2645.5 1270.9 2615 1270.9 2584.2 1521.1 2574.1 1532.3 2574.4 1596.4 2570.6 Z" data-holc_grade="C"/>
<path d="M 1597.9 2738.1 1612.3 2737.7 1608.7 2703.2 1785.7 2695.9 1793.3 2657.3 1833.3 2667.1 1826.1 2745.9 1818 2821.1 1744.5 2799.9 1706.7 2800.7 1699.9 2809.7 1629.8 2863.3 1562.3 2774.7 1598.2 2749.5 1597.9 2738.1 Z" data-holc_grade="C"/>
<path d="M 1174.4 3241.8 1143.2 3263.1 1051.6 3349.8 1028.2 3376.5 1005.3 3375.8 1004.6 3306.9 1001.5 3235.1 1002.7 3225.6 1001.1 3209.1 1013.6 3207.5 1011 3186.8 1079.7 3153.5 1079.4 3148.1 1157.2 3117.6 1159.7 3184.7 1157.8 3205 1174.4 3241.8 Z" data-holc_grade="C"/>
<path d="M 1005.3 3375.8 977.2 3374.2 873 3377.4 872.4 3374.5 862.8 3375.5 859.6 3336.1 808.2 3338.6 808.2 3289.4 955.5 3285.9 954.5 3235.7 1001.5 3235.1 1004.6 3306.9 1005.3 3375.8 Z" data-holc_grade="C"/>
<path d="M 881.8 3456.1 812.3 3539.2 749.2 3586.1 746.2 3557.6 743.3 3529.7 663.6 3536 659 3464.6 738.8 3455.3 804.9 3453.1 805.6 3449 880.6 3447.4 881.8 3456.1 Z" data-holc_grade="C"/>
<path d="M 1257.2 3076.5 1236 3084.6 1157.2 3117.6 1079.4 3148.1 1078.6 3110.4 956.9 3113.3 954.9 3069.2 912 3070.2 914 3120.8 858.6 3121.7 818.2 3124.7 767.9 3124.7 725.9 3124.7 724.9 3082 766.3 3079.5 806.4 3077.7 860.1 3077.1 859.8 3060 912.4 3059.4 912.1 3008.2 858.5 3009.8 859.1 2992.7 859.5 2961.2 856.3 2923.4 890.8 2922.8 890.8 2906.3 923 2903.8 980.8 2903.1 978.9 2877.1 900 2879.9 896.9 2772.9 895 2729.1 954.4 2728.5 1009.3 2723.1 1053.7 2721.6 1054.5 2777.5 1125.5 2776.4 1128.3 2862.9 1058.9 2863.3 1058.9 2881.1 1129.1 2878.8 1129.9 2935.1 1096.8 2936.3 1096.8 2973.6 1030.5 2975.2 1031.3 3062.5 998.2 3062.5 999 3098.6 1064.8 3097.5 1064.4 3065.3 1197.7 3062.6 1257.6 3059.4 1257.2 3076.5 Z M 924 2983.5 923.3 2942.8 980.8 2940.3 980.8 2925.7 870.3 2929.5 871.9 2984.7 924 2983.5 Z" data-holc_grade="C"/>
<path d="M 601.1 2720.3 606.7 2827.9 579.9 2826.3 581.9 2863.6 442.2 2871.1 441.4 2848.1 476.2 2846.9 543.8 2844.4 542.2 2795.2 500.3 2796.3 498.4 2758.2 452.9 2759.8 433.7 2762.2 433.7 2732 401.8 2732.4 401.4 2689.1 453.7 2690.7 452.9 2729.6 538.7 2726.5 537.1 2690.8 596.9 2688.4 601.1 2720.3 Z" data-holc_grade="C"/>
<path d="M 1714.7 1177.3 1710.4 1085.9 1700.1 1085 1690.8 1085.5 1669.5 1082.8 1652 1080.1 1648.8 985.3 1597.5 986.7 1595.1 874.3 1593.7 857.4 1602.5 857.2 1610.9 860.8 1611.9 895.1 1613.1 910.8 1611.3 928 1611.7 949.8 1664.3 948.6 1665.9 1001.2 1683.2 1001.8 1684 1050.8 1713.9 1051.2 1733.8 1048.4 1753.2 1048.6 1752.6 1014.9 1845.7 1010.3 1821.2 1067.2 1838.1 1086.6 1820 1141 1821.6 1172.5 1769.1 1174.1 1767.1 1132.2 1766.9 1073.8 1748.2 1073.2 1738.8 1075.5 1742.4 1176.1 1714.7 1177.3 Z" data-holc_grade="C"/>
<path d="M 303.1 1562.4 404.8 1557.4 411.2 1743.9 306.4 1658.4 303.1 1562.4 Z" data-holc_grade="C"/>
<path d="M 801 6.7 868 5 896.6 1 900.2 87.6 862.4 86.4 773.5 90.2 762.2 51.9 772 47.1 778.7 43.3 783.5 39 786.9 33.8 792.4 24.8 797.2 17.4 801 6.7 Z" data-holc_grade="C"/>
<path d="M 1905 1096.7 1875.7 1098.5 1874.7 1038.5 1911.3 955.5 1957.7 955 1958.2 998.5 1915.4 999 1913.2 1064 1973.1 1062.8 1956.1 1083.2 1904.4 1086.3 1905 1096.7 Z" data-holc_grade="C"/>
<path d="M 1696.8 1379.4 1629.1 1381.3 1630.8 1405.3 1577.9 1406 1495.6 1407 1497.5 1459.1 1459 1458.4 1459.5 1470 1392.4 1470.3 1388.9 1402.4 1492 1398.9 1488.7 1332.7 1592.8 1328.3 1623.1 1327 1644.4 1325.3 1684.9 1326.3 1695.9 1323.2 1697.8 1357.2 1696.1 1367 1696.8 1379.4 Z" data-holc_grade="C"/>
<path d="M 1958.6 1463.5 1939.5 1463.2 1939.1 1473.4 1931.8 1473.1 1923.5 1475.9 1898.3 1475.9 1892.6 1476.6 1849.5 1478.8 1847.6 1454.9 1893 1454.1 1918.3 1453.7 1915.6 1388.8 1969.4 1386.9 1966.2 1428.2 1959.1 1455.6 1958.6 1463.5 Z" data-holc_grade="C"/>
<path d="M 1506.3 1838.4 1577.6 1836.3 1572.3 1688.5 1460.5 1693.2 1461.7 1728.9 1418.9 1731.3 1421.3 1756.6 1436.1 1756.6 1439.4 1840 1440.4 1866.1 1255.9 1874.6 1254 1833.7 1345.7 1828.9 1395 1828 1389.9 1744.7 1366.7 1745.6 1366.1 1712.3 1364.8 1644.7 1465.8 1640.7 1501.6 1639.4 1501.7 1658.1 1640.2 1654.6 1709.7 1650.5 1705.6 1599.1 1773.4 1598.3 1776.3 1630.2 1778 1713.9 1709.3 1699.2 1708.5 1685.4 1640.3 1687.1 1641.8 1743.5 1725.1 1743.2 1726 1767 1745.2 1767.3 1744.7 1781.1 1779.9 1781.3 1780.1 1814.1 1714.8 1815.6 1715.7 1860.6 1506.8 1867 1506.3 1838.4 Z" data-holc_grade="C"/>
<path d="M 1207.3 1545.5 1215.6 1763.8 1160.4 1766.7 1129.8 1767.6 1125.6 1686.1 1157.5 1685.7 1154 1575.3 1189.5 1574.4 1188.5 1546.1 1207.3 1545.5 Z M 1564.6 1505.9 1634.1 1505 1632.9 1471.8 1732.4 1467.4 1732.7 1489.3 1735.3 1518.5 1727 1515 1700.2 1517.2 1700.8 1529.6 1616.6 1533.7 1566.1 1533.4 1564.6 1505.9 Z" data-holc_grade="C"/>
<path d="M 1153 1962.5 1151.3 1927.9 1152.9 1916.8 1151.7 1900.6 1222.4 1899.1 1226.8 1991.5 1206.4 1992.5 1204.4 1961.8 1153 1962.5 Z M 1449.6 2082.8 1260.3 2087.2 1256.2 1898.3 1358.3 1893 1494.2 1889.8 1495.5 1932.9 1444.8 1934.9 1447 2020.9 1449.6 2082.8 Z" data-holc_grade="C"/>
<path d="M 1803.8 1813.8 1820.7 1812.8 1863.6 1807.8 1859.6 1831.6 1862.6 1843 1863.1 1850.5 1882.5 1849.5 1885.5 1854.4 1884.5 1866.8 1866.1 1866.3 1861.1 1867.8 1858.6 1873.8 1860.6 1879.2 1858.1 1886.2 1861.6 1896.6 1879.1 1896.6 1884.5 1900.5 1886 1907 1884 1912.9 1869.6 1913.4 1864.6 1913.4 1862.6 1915.9 1862.6 1922.4 1865.6 1924.4 1877.6 1925.8 1883.6 1929.8 1883.1 1949.1 1867.1 1951.1 1866.1 1954.1 1868.1 1958.6 1877.6 1956.6 1882.6 1961.1 1884.6 1976.4 1882.6 1985.4 1882.1 2018.6 1879.6 2032 1880.6 2061.7 1880.1 2067.7 1880.6 2076.6 1879.1 2095.5 1882.1 2118.8 1858.2 2122.2 1852.7 2154.5 1858.7 2165.4 1863.6 2184.7 1863.1 2197.6 1864.6 2206.1 1870.6 2211.5 1877.6 2207 1881.6 2208 1885.1 2249.2 1828.7 2251.7 1825.8 2240.8 1828.2 2212.5 1827.7 2081.6 1810.8 2083.6 1813.3 2196.6 1809.3 2251.7 1800.8 2252.7 1790.3 1892.1 1794.8 1860.9 1803.8 1813.8 Z" data-holc_grade="C"/>
</g>
<g id="D">
<path d="M 1593.7 857.4 1595.1 874.3 1597.5 986.7 1580.8 985.7 1573.8 988.6 1513.2 993 1510 937.8 1473.9 938.8 1472.7 926.7 1440.4 924.5 1438.5 852.8 1473.3 850.3 1471.7 784.6 1540.6 782.7 1541.2 856.3 1593.7 857.4 Z" data-holc_grade="D"/>
<path d="M 767.9 3124.7 818.2 3124.7 858.6 3121.7 914 3120.8 912 3070.2 954.9 3069.2 956.9 3113.3 959.7 3182.9 841.9 3226.4 829.4 3233 792.1 3243.8 736.8 3266.7 733.3 3200.3 768.5 3198.7 767.9 3124.7 Z M 859.1 2992.7 858.5 3009.8 912.1 3008.2 912.4 3059.4 859.8 3060 860.1 3077.1 806.4 3077.7 766.3 3079.5 724.9 3082 722.2 3030.4 733.1 3030.1 732.8 2994.2 859.1 2992.7 Z M 856.3 2923.4 848 2732.6 895 2729.1 896.9 2772.9 900 2879.9 978.9 2877.1 980.8 2903.1 923 2903.8 890.8 2906.3 890.8 2922.8 856.3 2923.4 Z" data-holc_grade="D"/>
<path d="M 762 2687.4 715.4 2689 709.5 2623.7 708.9 2589.4 758.9 2588 762 2687.4 Z" data-holc_grade="D"/>
<path d="M 202.9 2558.9 203.2 2605.9 227.1 2604.3 230.3 2671.9 160.7 2673.8 159.1 2691.6 71.9 2694.1 69.7 2646.1 144.7 2644.3 142.5 2561.1 202.9 2558.9 Z M 566.2 2521.6 568.1 2595.9 476.4 2596.1 433.5 2599.4 434.5 2638.4 335.8 2643.4 334.5 2526.9 367 2523.4 392.2 2524.1 475 2521.3 566.2 2521.6 Z M 842.7 2523.8 843.9 2560.4 706.9 2564.9 702.4 2445 777.9 2442.7 781.4 2506.5 841.4 2506.3 842.7 2523.8 Z" data-holc_grade="D"/>
<path d="M 404.8 1557.4 303.1 1562.4 301.9 1544.5 283.6 1544.5 278 1444.9 253.3 1446.1 256.8 1546.5 256.8 1581 236.9 1581.8 234.9 1548 219.7 1548 218.2 1496.5 197.8 1498 197.4 1498.8 192.7 1326.7 207.9 1327.9 415.3 1322.8 418.8 1374.8 418.4 1387.9 420.8 1429.9 420 1443.8 423.9 1556.5 404.8 1557.4 Z M 400 939.5 405.9 1131.5 320.6 1135.4 318.6 1117.2 254.4 1117.9 258.7 1271.4 225.2 1273 214.6 1017.5 362.1 1014.1 361.8 941.1 400 939.5 Z" data-holc_grade="D"/>
<path d="M 1497.5 1459.1 1495.6 1407 1577.9 1406 1577.9 1456.7 1497.5 1459.1 Z M 1827.2 1249.8 1771.2 1250.5 1770 1195.1 1824.3 1194.6 1827.2 1249.8 Z M 1669.5 1082.8 1690.8 1085.5 1700.1 1085 1710.4 1085.9 1714.7 1177.3 1687.4 1178.7 1689.1 1198.5 1742.5 1196.3 1746.5 1288.2 1734.6 1288 1737.5 1369.1 1736.3 1377.9 1738.7 1449.8 1630 1455.5 1628.6 1418.6 1698 1416.2 1696.8 1379.4 1696.1 1367 1697.8 1357.2 1695.9 1323.2 1684.9 1326.3 1644.4 1325.3 1623.1 1327 1592.8 1328.3 1590 1275.1 1488.5 1276.8 1484.7 1212.1 1500.6 1211.3 1498 1158.8 1609.9 1154 1610.2 1189.9 1671.4 1189.2 1669.5 1082.8 Z M 1202.4 1014.5 1209.9 1139 1344.9 1132 1345.4 1162.8 1411.2 1161.8 1412.2 1186.6 1278.6 1190.5 1279.1 1219.3 1415.2 1216.3 1417.7 1235.7 1418.2 1281.8 1281.6 1290.2 1281.6 1297.6 1007.5 1308.5 1003.5 1162.7 996.5 1022.9 1202.4 1014.5 Z" data-holc_grade="D"/>
<path d="M 1293.8 1475.8 1238.9 1477.8 1136.2 1481.5 1130.8 1362.5 1226.1 1359.3 1283.9 1354.2 1293.8 1475.8 Z" data-holc_grade="D"/>
<path d="M 1366.1 1712.3 1366.7 1745.6 1389.9 1744.7 1395 1828 1345.7 1828.9 1254 1833.7 1251.4 1749.7 1298.9 1748.9 1298.2 1715.1 1366.1 1712.3 Z M 1773.4 1598.3 1705.6 1599.1 1709.7 1650.5 1640.2 1654.6 1501.7 1658.1 1501.6 1639.4 1465.8 1640.7 1463.6 1606.7 1363.1 1608.9 1361.8 1544.5 1360.9 1540.1 1240.9 1544.2 1238.9 1477.8 1293.8 1475.8 1392.4 1470.3 1397.8 1567.1 1462.8 1566.4 1460.9 1475.7 1512.5 1476.3 1563 1475 1564.6 1505.9 1566.1 1533.4 1616.6 1533.7 1700.8 1529.6 1700.2 1517.2 1727 1515 1735.3 1518.5 1732.7 1489.3 1732.4 1467.4 1767.5 1466.1 1767.2 1450.6 1835.4 1449.6 1838.9 1512.5 1838 1597.5 1773.4 1598.3 Z" data-holc_grade="D"/>
<path d="M 898 1976.7 898.7 2012.8 947 2011.2 947.8 2076.3 838.9 2081 776.3 2029.8 776.7 1977 897.2 1973.1 898 1976.7 Z M 1207.3 1545.5 1188.5 1546.1 1189.5 1574.4 1154 1575.3 1157.5 1685.7 1125.6 1686.1 1129.8 1767.6 1160.4 1766.7 1215.6 1763.8 1219.1 1877.5 1047.1 1879.7 1048 1895.2 980.1 1896.5 976.5 1784.6 939.6 1786.5 943.2 1884.3 773 1890.7 771.6 1836.2 808 1835 803.7 1700 751.1 1701 748.2 1629.1 851.3 1625.8 850.1 1559.6 915.4 1557.7 911.9 1422.1 978.1 1422.3 980.3 1471.6 1083.8 1466.8 1082.6 1426.4 1117.1 1425.4 1120.4 1531.3 1207 1527.8 1207.3 1545.5 Z" data-holc_grade="D"/>
<path d="M 1514.4 2423.5 1497.3 2399.6 1475.7 2375.4 1470.9 2365.5 1466.1 2361.6 1462.5 2355.4 1456.1 2350.9 1449.7 2225.2 1502.7 2224.6 1505.2 2292.2 1505.6 2310.6 1510 2363.3 1514.4 2423.5 Z M 1314.9 2161.9 1262.2 2163.9 1260.3 2087.2 1449.6 2082.8 1450.6 2156.8 1314.9 2161.9 Z M 1447 2020.9 1444.8 1934.9 1495.5 1932.9 1499 2017.7 1447 2020.9 Z M 1048 1895.2 1048.8 1904.1 1151.7 1900.6 1152.9 1916.8 1151.3 1927.9 1153 1962.5 1157.2 2047 1191.2 2047.4 1227.5 2044.2 1229 2094.6 1230.6 2108.5 1230.2 2147.8 986.5 2154.5 985.7 2062.4 984.5 2041.8 984.9 2029.1 980.1 1896.5 1048 1895.2 Z M 1637.4 2117.8 1533 2118.4 1534.3 2088.6 1533.7 2074.6 1525.4 1903.2 1524.7 1896.8 1524.1 1888.6 1716.2 1883.5 1720.7 1994 1706.3 1994 1708.5 2067.9 1668.7 2069.5 1668.6 1995.9 1637.7 1997.1 1637.4 2117.8 Z" data-holc_grade="D"/>
<path d="M 1533 2118.4 1637.4 2117.8 1638.3 2128.5 1722.2 2126 1722.5 2177.1 1696.1 2290.8 1698 2337.4 1671.5 2340 1675.3 2448.8 1596.2 2453.6 1543.5 2453.3 1540.6 2377.4 1534.5 2306.6 1532 2249.5 1532 2179.3 1533 2118.4 Z" data-holc_grade="D"/>
<path d="M 1597.9 2738.1 1583.5 2738.5 1583.1 2751.2 1502.1 2753.2 1500.5 2706.8 1608.7 2703.2 1612.3 2737.7 1597.9 2738.1 Z" data-holc_grade="D"/>
<path d="M 880.6 3447.4 805.6 3449 804.9 3453.1 738.8 3455.3 659 3464.6 634.7 3467.4 598.3 3468.9 597 3441.6 595.8 3434.6 698.6 3344.8 733.3 3343.2 733.3 3299.1 751.8 3289.2 756.9 3282.6 765.2 3283.2 771 3278.8 778 3276.2 781.5 3269.2 871.3 3233.1 935.1 3209.6 1001.1 3209.1 1002.7 3225.6 1001.5 3235.1 954.5 3235.7 955.5 3285.9 808.2 3289.4 808.2 3338.6 859.6 3336.1 862.8 3375.5 872.4 3374.5 873 3377.4 876.8 3405.8 880.6 3447.4 Z" data-holc_grade="D"/>
</g>
</svg>