<?xml version="1.0"?>
<svg xmlns="http://www.w3.org/2000/svg" version="1.2" baseProfile="tiny" width="3000" height="1587" viewBox="0 0 3000 1587" stroke-linecap="round" stroke-linejoin="round">
<g id="A">
<path d="M 1857.2 127.9 1839.7 161.2 1814.8 248.6 1801.8 463.6 1791.1 635 1786.4 789.7 1790.6 804.1 1797.1 826.4 1850.4 829.9 1975 1001.2 1922.8 1046.1 1989.2 1141.8 1970.3 1154.8 1922.8 1127.7 1845.7 1118.2 1781.7 1119.4 1782.9 1163.1 1771 1215.1 1769.8 1262.4 1696.3 1256.5 1557.5 1360.5 1300.1 1022.5 1160.2 1124.1 1073.6 981.1 987.2 889.1 998.6 863.6 1039.8 829.6 1059.8 798.4 1076.8 745.9 1092.5 727.5 1138 716.2 1186.4 659.5 1118.1 601.3 1096.8 575.8 1048.4 541.8 984.4 485.1 941.7 470.9 1002.9 366 938.9 334.8 926.1 316.3 910.4 310.7 906.2 257 923.7 251.2 946.5 183.1 959.3 102.3 1036.2 110.8 1194.1 169 1419.1 74.7 1609.5 49.1 1622.4 99.5 1609.6 140.6 1619.5 197.3 1652.3 272.5 1666.5 292.3 1702.1 303.7 1767.5 207.3 1830.1 140.6 1857.2 127.9 Z" data-holc_grade="A"/>
<path d="M 2686.4 482 2726.7 444.5 2759.9 435.1 2884.5 716.2 2851.3 738.7 2932.1 940.7 2696.1 1114.5 2697.3 997.5 2643.9 982.2 2586.9 871.1 2400.8 1033 2307.1 1075.6 2209.8 1083.9 2145.8 1091 2017.7 1126.5 1976.2 1060.3 2111.4 1023.7 2094.8 996.5 2124.4 983.5 2048.5 877.1 1947.7 750.7 1858.7 767.3 1840.9 787.4 1790.6 804.1 1786.4 789.7 1791.1 635 1801.8 463.6 1814.8 248.6 1839.7 161.2 1857.2 127.9 1925.4 105.2 1974.9 149.4 2053.1 188.3 2125.4 158.8 2148 182.4 2149.2 206 2213.2 206 2330.6 241.4 2406.5 243.8 2455.1 246.1 2523.9 307.5 2584.4 383.1 2617.6 415 2646.1 451.6 2656.8 509.5 2686.4 482 Z" data-holc_grade="A"/>
</g>
<g id="B">
<path d="M 906.2 257 910.4 310.7 926.1 316.3 938.9 334.8 1002.9 366 941.7 470.9 984.4 485.1 1048.4 541.8 1096.8 575.8 1118.1 601.3 1186.4 659.5 1138 716.2 1092.5 727.5 1076.8 745.9 1059.8 798.4 1039.8 829.6 998.6 863.6 987.2 889.1 968.7 904.7 908.9 924.6 881.8 955.8 843.4 977 799.3 994 790.8 900.5 647 977 591.5 1134.4 571.5 1145.7 551.6 1134.4 517.5 1072 504.6 1074.8 470.5 1154.2 424.9 1243.5 392.1 1332.9 357.9 1436.4 242.7 1349.8 169.2 1262.3 171.7 858.2 34.2 699.8 1 654.9 50.8 614.8 58 576.9 129.1 543.9 190.8 546.3 237.8 574.2 323.2 554.4 414.2 594.1 472.6 584.2 597.8 426.9 657.6 419.8 687.5 348.9 781.5 212.9 881 265.3 906.2 257 Z" data-holc_grade="B"/>
<path d="M 2884.5 716.2 2759.9 435.1 2726.7 444.5 2686.4 482 2668.1 432.7 2656.3 406.7 2650.3 347.7 2668.1 342.9 2662.2 324 2695.4 324 2719.1 276.8 2828.2 285 2846 305.1 2875.6 318 2904.1 348.8 2999 479.9 2997.8 509.4 2884.5 716.2 Z" data-holc_grade="B"/>
<path d="M 1769.8 1262.4 1771 1215.1 1782.9 1163.1 1781.7 1119.4 1845.7 1118.2 1922.8 1127.7 1970.3 1154.8 1989.2 1141.8 2017.7 1126.5 2145.8 1091 2209.8 1083.9 2307.1 1075.6 2400.8 1033 2471.9 1087.4 2498.1 1137 2495.7 1179.5 2467.2 1249.3 2411.5 1283.6 2308.3 1159.5 2270.3 1120.5 2237.1 1121.7 2196.8 1130 2120.9 1140.6 2027.2 1173.7 1909.8 1242.3 1894.4 1273 1888.4 1313.2 1863.5 1345.1 1831.5 1306.1 1792.4 1269.5 1769.8 1262.4 Z" data-holc_grade="B"/>
</g>
<g id="C">
<path d="M 1951.2 26.5 1925.4 75.4 1925.4 105.2 1857.2 127.9 1830.1 140.6 1767.5 207.3 1702.1 303.7 1666.5 292.3 1652.3 272.5 1619.5 197.3 1609.6 140.6 1622.4 99.5 1609.5 49.1 1629.7 46.4 1774.8 43.5 1831.7 6.7 1888.6 1 1951.2 26.5 Z" data-holc_grade="C"/>
<path d="M 2411.5 1283.6 2106.4 1500.6 2150.1 1585.7 1766.7 1578.2 1769.8 1262.4 1792.4 1269.5 1831.5 1306.1 1863.5 1345.1 1888.4 1313.2 1894.4 1273 1909.8 1242.3 2027.2 1173.7 2120.9 1140.6 2196.8 1130 2237.1 1121.7 2270.3 1120.5 2308.3 1159.5 2411.5 1283.6 Z" data-holc_grade="C"/>
</g>
</svg>