<?xml version="1.0"?>
<svg xmlns="http://www.w3.org/2000/svg" version="1.2" baseProfile="tiny" width="3000" height="5253" viewBox="0 0 3000 5253" stroke-linecap="round" stroke-linejoin="round">
<g id="A">
<path d="M 2496.9 1459.1 2477.2 1459.1 2477.1 1417.6 2375.2 1415.1 2374 1529 2366.9 1540.5 2337.7 1559.9 2288.9 1462.4 2299.9 1456.6 2338 1458.8 2339.7 1359 2447 1360.7 2447.8 1300.7 2422.5 1300.3 2401.3 1271.1 2402.6 1243.3 2314.4 1240.3 2301.5 1210.3 2285.1 1210.3 2270.5 1205 2268.8 1235.5 2220.3 1235.2 2208.5 1235.1 2209.3 1121.2 2269.1 1122 2293.1 1164 2307.2 1164.4 2304.6 1152.9 2297.5 1140.1 2297.5 1124.2 2291.3 1120.3 2284.6 1120.3 2255.8 1057.6 2258 997.6 2164.1 995.9 2164.5 927.1 2227.3 928.3 2228.6 870.5 2257.4 870.5 2278.2 787.1 2291.4 729.3 2298.3 520.2 2300 435 2349.6 435.9 2349.2 411.2 2350 393.5 2356.2 379.9 2363.7 369.7 2365.7 298.2 2366.6 285.4 2366.5 256.7 2366.5 251.9 2491.6 257.6 2491.1 296.8 2527.9 298.5 2522.1 318 2518.6 335.6 2501 374.4 2482.4 404.9 2466.5 435.8 2455.9 466.2 2446.6 497.5 2431.2 542.6 2416.6 579.2 2403.3 602.1 2400.2 619.8 2386.1 654.6 2370.6 693.9 2360.9 715.6 2352.5 735.9 2335.7 761.9 2320.2 786.2 2307.4 808.3 2297.2 834.3 2292 866.9 2289.3 881.1 2292 918.6 2299.6 957 2305.3 992.3 2313.8 1032.9 2321.8 1052.7 2322.7 1061.1 2336 1081 2353.3 1119.8 2376.8 1159 2397.6 1188.6 2416.3 1213.3 2435.8 1245.5 2464.6 1287 2485.9 1311.2 2503.2 1325.8 2521.8 1341.7 2544.4 1371.7 2559.5 1388.4 2563.1 1395.5 2581.3 1405.6 2595.5 1431.6 2600.8 1452.4 2514 1453.4 2512.6 1459.1 2496.9 1459.1 Z" data-holc_grade="A"/>
<path d="M 2662.2 1851.3 2626.2 1850.7 2624.9 1735.9 2587.6 1735.9 2587.5 1613.5 2588.6 1505.7 2497.6 1506.4 2496.9 1459.1 2512.6 1459.1 2514 1453.4 2600.8 1452.4 2607.6 1481.6 2619.4 1507.5 2620.6 1529.2 2629 1559.3 2643.2 1595.7 2674 1651.6 2677.5 1668.1 2678.7 1696.4 2674.6 1722.9 2678.8 1744.7 2688.3 1767 2699.5 1797.1 2710.2 1823 2717.3 1850.6 2662.2 1851.3 Z" data-holc_grade="A"/>
<path d="M 1353.2 1599.1 1353.2 1615 1353.5 1642.9 1353.2 1666.8 1351.7 1698.1 1350.9 1723.5 1353.1 1725.4 1369.4 1725.7 1392.3 1726.1 1427.8 1725.7 1432.2 1729 1431.8 1760.3 1431.4 1799.7 1430.7 1814.4 1428.1 1816.6 1396.3 1815.5 1355 1815.5 1352.8 1816.3 1353.1 1838.3 1350.2 1846.4 1322.5 1846.8 1291.1 1846.8 1255.6 1846.4 1257.1 1838 1258.2 1829.1 1253.8 1824.3 1249 1818.5 1246 1811.8 1245.6 1800.8 1246.4 1782.4 1246.8 1725 1244.2 1723.9 1225.7 1723.5 1226.1 1663.9 1227.6 1599.5 1233.1 1598.4 1279.7 1598 1314.8 1598.4 1353.2 1599.1 Z" data-holc_grade="A"/>
<path d="M 1155.5 1968.2 997.2 1970.8 979.8 1972.2 980.7 1911.9 980.7 1909.3 992.9 1909.6 1035.8 1910 1084.6 1910.4 1122.6 1910.1 1143.3 1910.1 1157.3 1919.3 1173.6 1931.4 1169.5 1936.6 1163.6 1945.8 1156.6 1954.2 1155.5 1968.2 Z" data-holc_grade="A"/>
<path d="M 892.7 1971.5 893 2098.8 770.7 2100.2 771.7 2184.5 761.4 2179 753.2 2174.6 740.3 2171.3 729.6 2168.7 718.5 2165.4 706.3 2159.5 697.1 2151.7 689 2141 683.4 2118.9 677.9 2107.5 660.9 2101.3 652.1 2094.3 639.9 2087.6 628.1 2079.1 622.5 2063.7 621.1 2032.7 617.4 2018 614.5 1978.3 882.7 1971.5 892.7 1971.5 Z" data-holc_grade="A"/>
<path d="M 1223.4 2276.4 1215.9 2277.5 1211.9 2279.3 1208.8 2281.9 1208.8 2286.3 1209.2 2290.3 1210.1 2294.7 1211.4 2299.6 1211.4 2307.6 1211.4 2316 1210.6 2323 1212.8 2324.8 1189.7 2324.8 1179.1 2311.8 1177.9 2266.1 1168.1 2262.3 1112 2252.9 1099.4 2251.4 1099.6 2160.9 1224.4 2160.1 1224.1 2193.2 1223.7 2224.1 1223.4 2245.1 1223.7 2273.1 1223.4 2276.4 Z" data-holc_grade="A"/>
<path d="M 1038.3 2465.3 1038.3 2467.1 1038.3 2470.1 1038.3 2473.4 1038.3 2477.1 1038.8 2480.7 1039.2 2484.3 1039.8 2488.3 1040.1 2490.6 1040.1 2492.5 1040.1 2496.8 1040 2500.3 1039.9 2503.8 1039.9 2508.5 1039.8 2513.7 1039.7 2517.2 1025.1 2518.6 1017 2520.2 1010.9 2521.4 1001.9 2523.3 993.4 2524.9 984.4 2525.6 974.2 2529.9 964.5 2531.3 956.2 2532.2 946.1 2531.7 938.5 2530.5 926.2 2527.7 921.2 2527.2 914.8 2523.8 903.6 2520.7 889.2 2515.1 880 2513.7 867 2513.6 870.5 2499.7 873.6 2486.1 876.9 2468.6 891.6 2467.9 915.5 2466.8 919.1 2466.7 933.2 2466.5 949.6 2465.8 963.7 2465.4 980.8 2464.9 1001.4 2464.5 1009.9 2464.5 1021.9 2464.9 1034.7 2464.9 1038.3 2465.3 Z" data-holc_grade="A"/>
<path d="M 1590 3413.8 1589.1 3446.1 1520.7 3446.1 1520.7 3378.8 1530.1 3376.6 1539.4 3366 1546 3365.6 1550.5 3373.5 1555.4 3375.3 1566.9 3370 1574.5 3360.7 1581.1 3356.7 1584.7 3353.6 1589.7 3352.7 1590 3413.8 Z" data-holc_grade="A"/>
<path d="M 2367.1 132.4 2366.9 124.8 2367.3 106.3 2367.3 91.3 2367.7 74.1 2368.2 60 2369 39.3 2369.9 22.1 2370.3 4.5 2395.5 5.3 2416.8 5.3 2433.6 6.2 2433.6 19.4 2433.6 40.1 2433.6 58.2 2433.2 76.7 2415.5 76.3 2396.5 74.6 2395.6 85.1 2395.6 100.6 2395.6 114.2 2394.3 132.3 2381.9 132.3 2367.1 132.4 Z" data-holc_grade="A"/>
<path d="M 2936 3768.7 2935.2 3757.3 2933.4 3743.3 2927 3734.4 2927 3721.5 2963.3 3723.3 2967.8 3734.4 2974.1 3743.6 2977.4 3753.9 2970.8 3769.4 2942.6 3769.1 2936 3768.7 Z" data-holc_grade="A"/>
</g>
<g id="B">
<path d="M 2220.3 1235.2 2219.7 1276.5 2219.2 1304.7 2161.9 1302.4 2162.4 1187 2164.1 995.9 2258 997.6 2255.8 1057.6 2284.6 1120.3 2291.3 1120.3 2297.5 1124.2 2297.5 1140.1 2304.6 1152.9 2307.2 1164.4 2293.1 1164 2269.1 1122 2209.3 1121.2 2208.5 1235.1 2220.3 1235.2 Z" data-holc_grade="B"/>
<path d="M 1224.4 2160.1 1099.6 2160.9 1099.4 2251.4 1017.1 2242.2 968.9 2236.9 926.6 2241.9 868.5 2242.8 860.7 2236.9 822.3 2237.6 817.5 2230.6 820.5 2221.8 823 2215.1 818.2 2210.3 811.2 2195.6 817.9 2192.7 813.8 2188.6 800.9 2188.2 797.2 2191.2 786.5 2181.6 776.5 2185.7 771.7 2184.5 770.7 2100.2 893 2098.8 1009.3 2097.4 1009 2034.1 996.1 2034.1 997.2 1970.8 1155.5 1968.2 1159.9 1968.6 1222.7 1969.4 1224.9 1971.2 1225.3 2015.7 1224.5 2079.1 1224.5 2154.2 1224.4 2160.1 Z" data-holc_grade="B"/>
<path d="M 867 2513.6 857.8 2543.7 851.4 2564.5 850.5 2583.3 866.1 2582.9 866.1 2592.3 855.9 2593 722.2 2596.9 676.8 2596.2 672.9 2477.1 706.2 2476.9 753.1 2475.3 809.4 2472.5 849.9 2470.2 876.9 2468.6 873.6 2486.1 870.5 2499.7 867 2513.6 Z" data-holc_grade="B"/>
<path d="M 1223.3 2416.8 1222.7 2421.4 1222.4 2427.9 1220.3 2435.5 1218.8 2442.3 1218.5 2448.3 1218.3 2456.6 1218.1 2465.2 1218.1 2477.8 1218.1 2481 1219.7 2484.5 1219.7 2490.5 1219.5 2503.6 1198.2 2505.1 1177.3 2507.5 1152.1 2508.4 1116.6 2510.4 1105.7 2511.3 1086.8 2513.1 1058.4 2515.4 1039.7 2517.2 1039.8 2513.7 1039.9 2508.5 1039.9 2503.8 1040 2500.3 1040.1 2496.8 1040.1 2492.5 1040.1 2490.6 1039.8 2488.3 1039.2 2484.3 1038.8 2480.7 1038.3 2477.1 1038.3 2473.4 1038.3 2470.1 1038.3 2467.1 1038.3 2465.3 1038.4 2447.7 1038.2 2435.3 1037.7 2427.9 1058.1 2428.8 1067.7 2429.1 1080.5 2429.5 1095.9 2429.3 1098.6 2429.3 1099.3 2433.9 1099.8 2436.2 1101.7 2437.3 1107.2 2437.4 1134.1 2437.5 1137.6 2437.5 1148.8 2437.6 1163.7 2437.8 1174.5 2437.8 1188.1 2437.5 1190.6 2436.1 1190.8 2427.9 1190.8 2420.7 1190.1 2411.3 1192.6 2409.5 1196.1 2409.5 1200.2 2410.8 1206.6 2412.7 1216.7 2415.6 1223.3 2416.8 Z" data-holc_grade="B"/>
<path d="M 1405.2 2499.6 1404.3 2501.3 1402.9 2505 1402.9 2510.4 1401.2 2517.3 1399.5 2522.9 1398.1 2530.5 1397.2 2535.9 1394.8 2539.9 1392.2 2544.9 1390.3 2549.1 1388.4 2553.6 1386.8 2558.3 1383 2565.8 1380 2570.1 1374.7 2575 1368.6 2578.7 1362.4 2581.3 1356.3 2582.2 1351.3 2582.9 1347.6 2582.9 1347.6 2568 1348.5 2547 1348.8 2529.7 1347.8 2503.1 1347.7 2501.3 1347 2466.4 1357.7 2466.4 1370.7 2466.4 1380.2 2465.9 1392.5 2466.4 1401.2 2466.4 1409.7 2466.6 1419.9 2466.6 1429.4 2466.6 1437.4 2465.9 1440.2 2468.3 1435 2473 1430.3 2477.9 1426.8 2481.7 1424.2 2483.6 1420.8 2484.8 1417.5 2486.6 1415.9 2488.5 1414.2 2489.9 1411.9 2491.8 1407.8 2494.2 1406.2 2498 1405.2 2499.6 Z" data-holc_grade="B"/>
<path d="M 1344.7 2839.1 1344.1 2955.5 1296.7 2955.1 1295.8 2839 1344.7 2839.1 Z" data-holc_grade="B"/>
<path d="M 1219.9 3138.7 1222.1 3077.3 1308.7 3076.4 1343.7 3076.4 1344.2 3137.9 1219.9 3138.7 Z" data-holc_grade="B"/>
<path d="M 1560 3294.8 1560.3 3320.4 1524.3 3321.3 1524.3 3366.5 1464.8 3366 1455 3366.5 1453.7 3337.3 1431.5 3337.7 1431.5 3329.3 1369.3 3326 1373.4 3192.6 1471 3192.6 1468.8 3299.2 1551.8 3233.8 1559.4 3242.2 1560 3294.8 Z" data-holc_grade="B"/>
<path d="M 2566 3452.5 2570.2 3308.6 2581.7 3288.6 2561.8 3274.1 2568 3264.8 2577.1 3256.6 2621.2 3286 2701.9 3350.1 2684.5 3367.4 2668.6 3354.2 2633.9 3381.5 2632.8 3454.5 2566 3452.5 Z" data-holc_grade="B"/>
<path d="M 2936 3768.7 2765 3770 2765.3 3729.8 2810.5 3728.3 2814.6 3745.6 2844.5 3743.4 2845.6 3725.7 2876.3 3725.3 2876.4 3737.1 2927 3734.4 2933.4 3743.3 2935.2 3757.3 2936 3768.7 Z" data-holc_grade="B"/>
<path d="M 2918.8 4577.7 2858.7 4532 2861.9 4391.8 2861.6 4346.7 2861.4 4314.6 2891.8 4315 2919.9 4312.4 2922.2 4386.5 2920.2 4517.1 2918.8 4577.7 Z" data-holc_grade="B"/>
<path d="M 2288.9 1462.4 2279.5 1453 2258.8 1425.4 2238.1 1401.2 2226.9 1391.8 2227.5 1357.7 2218 1357.1 2219.2 1304.7 2219.7 1276.5 2220.3 1235.2 2268.8 1235.5 2270.5 1205 2285.1 1210.3 2301.5 1210.3 2314.4 1240.3 2402.6 1243.3 2401.3 1271.1 2422.5 1300.3 2447.8 1300.7 2447 1360.7 2339.7 1359 2338 1458.8 2299.9 1456.6 2288.9 1462.4 Z" data-holc_grade="B"/>
<path d="M 465.6 4140.6 464.3 4183.1 448.9 4185.5 448.4 4155.4 424.7 4157.1 374.9 4160.6 341.8 4162.3 343.6 4116.3 415.3 4114 418.2 4110.5 418.9 4066.8 362.6 4069.7 343.6 4069.7 344.3 4033.7 399.3 4032.6 438.4 4027.3 465.7 4027.3 465.6 4140.6 Z" data-holc_grade="B"/>
<path d="M 2496.9 1459.1 2497.6 1506.4 2588.6 1505.7 2587.5 1613.5 2363.6 1613.7 2337.7 1559.9 2366.9 1540.5 2374 1529 2375.2 1415.1 2477.1 1417.6 2477.2 1459.1 2496.9 1459.1 Z" data-holc_grade="B"/>
<path d="M 2587.6 1735.9 2580.5 1735.9 2530.9 1736 2529.2 1812 2481.3 1812 2481.4 1853.2 2542.2 1854.3 2542.3 1954.5 2470.8 1953.9 2463.7 1934.5 2463.5 1735.9 2463.5 1703.7 2417.4 1702.5 2410.9 1686.6 2384.3 1646.6 2363.6 1613.7 2587.5 1613.5 2587.6 1735.9 Z" data-holc_grade="B"/>
<path d="M 2542.2 1854.3 2581.2 1852.5 2580.5 1735.9 2587.6 1735.9 2624.9 1735.9 2626.2 1850.7 2662.2 1851.3 2664 1865.4 2661.7 1880.7 2656.4 1904.9 2659.3 1920.2 2655.8 1938.4 2648.7 1940.8 2641.6 1947.3 2642.2 1953.8 2542.3 1954.5 2542.2 1854.3 Z" data-holc_grade="B"/>
<path d="M 2343.8 1924.2 2344.3 1890.9 2344.3 1857.4 2343.7 1832.6 2343.7 1817.6 2343.6 1791.1 2343.6 1766.4 2344.2 1749.9 2343.6 1736.4 2358.7 1736.4 2376.4 1736 2392.7 1735.7 2395.9 1735.7 2396.8 1741 2396.2 1749.3 2392.7 1764 2390.6 1773.7 2389.7 1780.2 2389.4 1783.4 2388.6 1787.9 2388.3 1793.4 2388 1800.5 2388.9 1807.6 2390.9 1814.3 2393 1822 2394.8 1827.6 2396.9 1834.4 2397.8 1841.7 2399 1851.1 2399.9 1861.7 2400.2 1869.7 2398.7 1877.9 2397.2 1888 2395.7 1895.6 2394.9 1901.8 2392.8 1907.7 2389.3 1912.1 2386.9 1918.9 2385.1 1923.6 2359.7 1923.3 2343.8 1924.2 Z" data-holc_grade="B"/>
<path d="M 1980.8 1533.2 1980.8 1569.4 1972.8 1569 1972.4 1588.4 2003.9 1589.7 2002.1 1622 1894.4 1620.3 1889.5 1619.4 1887.3 1616.3 1888.2 1593.8 1893.1 1593.3 1912.1 1592.9 1913 1577.4 1909.5 1575.7 1882.4 1576.1 1881.1 1573.9 1881.2 1568.6 1891.3 1569.9 1908.6 1570.4 1909 1551.8 1909.5 1533.3 1903.7 1532.4 1888.6 1530.6 1882 1529.7 1879.3 1527.5 1851 1525.8 1849.6 1527.6 1849.6 1579.2 1848.3 1580.1 1816 1559.4 1815.5 1524.9 1810.2 1521.4 1801.8 1503.3 1792.9 1506.4 1783.2 1481.6 1837.2 1482.1 1865.6 1483.4 1900.6 1484.3 1902.3 1486.5 1901.9 1510.3 1904.1 1513 1941.8 1512.9 1960 1513.4 1958.6 1530.6 1980.8 1533.2 Z" data-holc_grade="B"/>
<path d="M 1603.3 1604.9 1595.4 1608.7 1584.7 1615.3 1574 1622 1573.3 1630.8 1573.3 1645.1 1573.3 1666.1 1573.3 1694.8 1573.3 1718 1574 1733.8 1573.6 1747.4 1557 1748.2 1525.3 1747.4 1494.6 1747.1 1485 1747.1 1479.5 1750 1478.7 1762.9 1478.4 1786.8 1478 1804.9 1478 1821.8 1477.6 1842 1475 1848.3 1466.9 1848.2 1458.1 1848 1447.7 1847.9 1438.5 1847.8 1432.6 1847.7 1424.8 1847.6 1415.6 1847.6 1408.9 1847.6 1400.4 1847.6 1391.6 1847.5 1383.4 1847.4 1377.5 1847.4 1366.8 1847.3 1358.7 1847.2 1353.7 1846.7 1350.2 1846.4 1353.1 1838.3 1352.8 1816.3 1355 1815.5 1396.3 1815.5 1428.1 1816.6 1430.7 1814.4 1431.4 1799.7 1431.8 1760.3 1432.2 1729 1427.8 1725.7 1392.3 1726.1 1369.4 1725.7 1353.1 1725.4 1350.9 1723.5 1351.7 1698.1 1353.2 1666.8 1353.5 1642.9 1353.2 1615 1353.2 1599.1 1384.9 1599.5 1420.7 1600.2 1454.7 1600.2 1474.7 1599.9 1476.1 1598 1477.6 1571.9 1479.8 1568.6 1498.3 1568.6 1497.9 1543.6 1498.3 1538.4 1509.4 1538.4 1529.5 1538.7 1536.3 1539.3 1541.5 1539.7 1546.3 1540.2 1550.7 1540.2 1557.8 1540.2 1567.6 1540.2 1570.9 1540.3 1574.6 1540.6 1579 1540.8 1583.1 1541.1 1587.4 1541.3 1591.4 1541.3 1596.2 1541.3 1603.6 1541.3 1606.3 1538.7 1610.2 1536.6 1616.8 1546.9 1627.6 1562 1636 1573.7 1642 1581.5 1642.3 1594 1621.3 1593.6 1607.6 1602.8 1603.3 1604.9 Z" data-holc_grade="B"/>
<path d="M 1350.2 1846.4 1353.7 1846.7 1358.7 1847.2 1366.8 1847.3 1377.5 1847.4 1383.4 1847.4 1391.6 1847.5 1400.4 1847.6 1408.9 1847.6 1415.6 1847.6 1424.8 1847.6 1432.6 1847.7 1438.5 1847.8 1447.7 1847.9 1458.1 1848 1466.9 1848.2 1475 1848.3 1477.6 1849.8 1477.7 1855.3 1477.7 1858.2 1477.7 1861.9 1477.8 1867.4 1477.8 1872.6 1477.9 1880.3 1477.9 1881.4 1478 1890.6 1477.9 1896.6 1477.8 1899.9 1477.7 1901.8 1477.6 1905.7 1481.8 1906 1485.2 1906.2 1490.4 1906.5 1496.6 1906.8 1505.1 1907.3 1509 1907.6 1512.5 1907.9 1517.1 1908.3 1517.1 1916.4 1517.1 1925.2 1517.1 1928.6 1517 1942.9 1516.9 1953.6 1516.9 1961.7 1516.8 1977.9 1516.8 1990 1516.8 2002.5 1516.8 2041.2 1517.1 2093.1 1516.4 2095.3 1483.1 2095.3 1455.1 2094.9 1427 2094.9 1399.3 2095.3 1384.5 2096 1383.4 2115.5 1383 2143.9 1382.3 2189.2 1381.9 2224.2 1373 2224.5 1354.6 2225.3 1334.6 2227.5 1315.8 2228.9 1299.5 2229.3 1288.4 2230 1282.9 2249.2 1274.7 2282.3 1271.4 2284.2 1251.4 2280.8 1223.4 2276.4 1223.7 2273.1 1223.4 2245.1 1223.7 2224.1 1224.1 2193.2 1224.4 2160.1 1224.5 2154.2 1224.5 2079.1 1225.3 2015.7 1224.9 1971.2 1222.7 1969.4 1159.9 1968.6 1155.5 1968.2 1156.6 1954.2 1163.6 1945.8 1169.5 1936.6 1173.6 1931.4 1157.3 1919.3 1143.3 1910.1 1122.6 1910.1 1084.6 1910.4 1035.8 1910 992.9 1909.6 980.7 1909.3 981.1 1896 980.8 1866.6 980.4 1848.2 1026.6 1847.8 1067.3 1848.1 1081.3 1848.2 1138.5 1847.5 1177.7 1847.5 1224.6 1847.5 1225 1815.1 1225.7 1779.4 1226.1 1745.6 1225.7 1723.5 1244.2 1723.9 1246.8 1725 1246.4 1782.4 1245.6 1800.8 1246 1811.8 1249 1818.5 1253.8 1824.3 1258.2 1829.1 1257.1 1838 1255.6 1846.4 1291.1 1846.8 1322.5 1846.8 1350.2 1846.4 Z" data-holc_grade="B"/>
<path d="M 2370.3 4.5 2369.9 22.1 2369 39.3 2368.2 60 2367.7 74.1 2367.3 91.3 2367.3 106.3 2366.9 124.8 2367.1 132.4 2367.3 139 2367.4 165 2367.4 185.7 2366.5 206.9 2366.5 226.7 2366.5 246.1 2366.5 251.9 2366.5 256.7 2366.6 285.4 2365.7 298.2 2355.1 297.3 2342.7 298.2 2329 298.2 2323.2 298.2 2323.7 312.3 2323.2 330.4 2323.2 348.9 2323.3 364.3 2322.8 376.3 2302.5 375.8 2274.6 375 2233.8 374.1 2199.8 371.5 2171.4 371.1 2155.5 368.9 2155.9 357.4 2156.8 342 2156.8 322.6 2157.2 306.7 2156.8 289.9 2157.2 273.6 2158.1 258.2 2158.1 242.7 2173.6 242.7 2197 244 2224 245.3 2241.7 245.3 2259 245.8 2279.8 247.1 2301 247.5 2301.5 231.6 2301.4 211.8 2301.4 181.8 2301.4 158 2301.4 121.4 2302.2 91.4 2301.3 68 2302.2 39.4 2303.1 18.2 2303.1 1 2323.4 1.9 2345.5 2.3 2370.3 4.5 Z" data-holc_grade="B"/>
<path d="M 2155 492.4 2182.3 493.1 2217 495.3 2217 507.8 2216.2 524.7 2216.3 539.4 2216.3 551.9 2216.3 562.9 2215.5 573.9 2215.5 585.7 2214.8 593.8 2198.6 594.5 2177.9 592.4 2157.3 592.4 2138.1 593.1 2130.7 593.9 2132.2 587.2 2135.1 568.9 2135.1 559.3 2142.5 546.1 2147.6 539.4 2149.8 529.1 2152.8 513 2155 492.4 Z" data-holc_grade="B"/>
<path d="M 861.4 1347.7 675.9 1346.4 674.8 1276.9 800 1278.2 861.4 1347.7 Z" data-holc_grade="B"/>
<path d="M 597.7 1607.8 725.4 1607.9 726.9 1852.6 468 1855 472.4 1607.1 597.7 1607.8 Z" data-holc_grade="B"/>
<path d="M 980.7 1911.9 979.8 1972.2 892.7 1971.5 882.7 1971.5 883.8 1911.5 980.7 1911.9 Z" data-holc_grade="B"/>
<path d="M 417.3 3266.4 409.4 3269 395.6 3267.2 398.8 3211.5 463.6 3208.5 465.3 3229.3 460 3237.6 417.3 3266.4 Z M 523.7 2956.9 526.3 3082 515.2 3082 513.8 3151.5 450.3 3152.7 452.2 3080.2 477.5 3079.3 477 3063 428.2 3064.3 428.3 3018.7 476.6 3015.2 476.2 2958.6 523.7 2956.9 Z" data-holc_grade="B"/>
<path d="M 1278.8 3568.1 1278.3 3637.2 1215.7 3636.3 1215.7 3569 1278.8 3568.1 Z M 1376 3567.7 1297.4 3568.6 1297 3478.3 1373.4 3477.9 1376 3567.7 Z" data-holc_grade="B"/>
<path d="M 1590 3413.8 1589.7 3352.7 1589.5 3320.3 1652.6 3320 1779.1 3324.4 1777.8 3386.8 1700.1 3385 1699.6 3362.5 1641.5 3361.6 1641.1 3413.8 1590 3413.8 Z" data-holc_grade="B"/>
<path d="M 1958.1 3445 1957.9 3467.6 1956.9 3572.6 1821.3 3570.9 1823.7 3444.1 1958.1 3445 Z" data-holc_grade="B"/>
</g>
<g id="C">
<path d="M 1668.5 1045.7 1670.6 1050 1673.4 1055.9 1674.8 1064.3 1677.9 1083.2 1676.5 1106.6 1625.4 1106 1587.3 1106.6 1555.7 1106.3 1522.1 1105.8 1503.2 1104.9 1485.5 1104.3 1485.2 1091.2 1486.1 1042.2 1486.5 1001.2 1475.9 983.9 1475.9 971.6 1545 972.9 1545 944.2 1545 923 1545 908.5 1545.8 883.8 1571.5 882.9 1596.8 883.3 1614.5 882.9 1614 898.8 1613.2 916.4 1612.3 955.3 1611.8 976 1611.4 1000.7 1611 1024.5 1610.5 1046.2 1630.9 1046.2 1668.5 1045.7 Z" data-holc_grade="C"/>
<path d="M 1603.2 1785 1598 1785 1598 1800.1 1597.7 1823.6 1596.9 1841.3 1596.6 1850.9 1599.9 1852.7 1600.3 1858.6 1600.3 1868 1600.3 1877.7 1600.3 1884.7 1600.3 1888.8 1600.3 1901.1 1600.3 1907.6 1603.2 1908.7 1610.2 1908.8 1619.5 1909 1628.9 1909.7 1635.4 1910.1 1640.2 1913.8 1639.9 1919.2 1639.6 1926.8 1639.4 1932.2 1639.4 1941.8 1639.4 1950.2 1639.4 1955.5 1639.4 1964.6 1639.3 1971 1639.3 1976.3 1639.2 1981.6 1639.1 1991.1 1639 1994.4 1638.9 1997.5 1638.8 2002.4 1638.7 2006.2 1633.7 2006.3 1628.8 2006.4 1622.8 2006.6 1614 2006.1 1608.2 2005.8 1601.4 2005.5 1596.8 2005.2 1589.2 2004.6 1579.4 2004 1574 2003.6 1566.2 2003.4 1557.7 2003.2 1550.6 2003.1 1544.9 2002.9 1540.4 2002.8 1536 2002.7 1526.7 2002.5 1516.8 2002.5 1516.8 1990 1516.8 1977.9 1516.9 1961.7 1516.9 1953.6 1517 1942.9 1517.1 1928.6 1517.1 1925.2 1517.1 1916.4 1517.1 1908.3 1512.5 1907.9 1509 1907.6 1505.1 1907.3 1506.1 1903.1 1506.8 1894.3 1506.8 1886.2 1507.2 1871.5 1507.5 1856 1504.9 1853.4 1496.5 1853.4 1483.2 1852 1477.6 1849.8 1475 1848.3 1477.6 1842 1478 1821.8 1478 1804.9 1478.4 1786.8 1478.7 1762.9 1479.5 1750 1485 1747.1 1494.6 1747.1 1525.3 1747.4 1557 1748.2 1573.6 1747.4 1574 1733.8 1573.3 1718 1573.3 1694.8 1573.3 1666.1 1573.3 1645.1 1573.3 1630.8 1574 1622 1584.7 1615.3 1595.4 1608.7 1603.3 1604.9 1603.6 1613.5 1603.6 1633.4 1603.6 1657.6 1603.6 1680.8 1603.6 1702.2 1603.2 1724.6 1603.6 1747.1 1603.6 1763.3 1603.2 1785 Z" data-holc_grade="C"/>
<path d="M 1713 2475.1 1710.2 2475.2 1708.6 2475.3 1706.1 2475.4 1704.6 2475.5 1702.1 2475.7 1700.7 2475.7 1699.4 2475.8 1697.1 2475.9 1694.6 2475.9 1692.4 2475.9 1690.9 2475.9 1689.2 2475.9 1686.8 2475.9 1685 2475.9 1682.8 2475.9 1680.9 2475.9 1679.1 2475.9 1676.7 2475.9 1675.4 2475.9 1674.1 2475.9 1672.4 2475.9 1670.2 2476 1667.8 2476 1665.6 2476 1664.3 2476 1662.2 2476 1660.5 2476 1658.7 2476 1656.6 2476 1654.6 2476 1652.3 2476 1650.1 2476 1648.4 2476 1646.6 2476.1 1644.7 2476.2 1642.3 2476.3 1640 2476.4 1638.2 2476.5 1636.8 2476.6 1635.4 2476.6 1632.6 2476.8 1631 2476.8 1630 2476.8 1626.4 2476.7 1624.1 2476.6 1621.6 2476.6 1619.9 2476.5 1617.7 2476.5 1615 2476.4 1611.8 2476.4 1609.6 2476.4 1606.7 2476.4 1604.8 2476.4 1602 2476.2 1600.7 2476.1 1599.7 2476 1597.7 2475.9 1595.2 2475.7 1592.4 2475.5 1592.4 2471.4 1592.4 2467 1592.4 2463.2 1592.4 2460.5 1592.4 2456.1 1592.3 2451.8 1592.1 2448.8 1592.1 2447.3 1591.5 2430.4 1591.1 2407 1591.5 2383.2 1591.9 2370.3 1592.2 2361.6 1592.7 2344.8 1592.8 2341.2 1592.8 2334.5 1592.8 2326.6 1592.8 2317.8 1597.1 2315.5 1599.9 2313.9 1603.5 2312 1609.7 2306.3 1615.1 2303 1640.6 2304.4 1666.4 2304.4 1708.9 2304 1719.2 2304.1 1717.4 2323.9 1717 2339.8 1716.6 2354.4 1716.6 2366.3 1716.1 2375.6 1715.2 2383.6 1715.2 2396 1715.2 2407.9 1714.8 2419.4 1714.4 2437.5 1713.9 2450.3 1713.9 2467.5 1713 2475.1 Z" data-holc_grade="C"/>
<path d="M 997.2 1970.8 996.1 2034.1 1009 2034.1 1009.3 2097.4 893 2098.8 892.7 1971.5 979.8 1972.2 997.2 1970.8 Z M 916.3 2033.7 916.5 2063.5 973 2063.2 972.8 2033.4 916.3 2033.7 Z" data-holc_grade="C"/>
<path d="M 1596.8 2005.2 1597.2 2021.3 1597.2 2041.6 1596.8 2061.9 1596.4 2090.2 1596.8 2116.7 1596.8 2152.1 1596.8 2174.6 1595.9 2201.1 1595 2223.6 1594.6 2244.8 1594.2 2275.8 1594.2 2295.7 1592.8 2317.8 1592.8 2326.6 1592.8 2334.5 1592.8 2341.2 1592.7 2344.8 1592.2 2361.6 1591.9 2370.3 1578.6 2370.8 1564.9 2370.8 1553.8 2370.8 1550.7 2368.6 1550.7 2365.5 1550.7 2357.5 1551.1 2347.8 1551.6 2339.4 1552 2328.4 1549.8 2325.7 1545.4 2325.7 1537 2326.2 1526.3 2326.2 1520.1 2326.2 1517.9 2324.8 1517.9 2316.4 1518.8 2305.4 1519.2 2293 1519.7 2274.5 1520.1 2255.9 1520.1 2235.6 1520.5 2212.6 1520.5 2191.8 1521.4 2179.9 1511.7 2173.3 1501.5 2165.3 1489.9 2156.9 1481.5 2150.7 1474.4 2148.5 1465.6 2153.4 1459.4 2154.3 1450.9 2155.2 1437.2 2154.7 1417.2 2154.7 1413.2 2158.3 1413.2 2167.5 1412.8 2184.3 1412.8 2198.5 1412.8 2213 1412.3 2223.2 1405.7 2223.2 1399.9 2223 1393.3 2222.8 1390.2 2223.1 1386.1 2223.6 1381.9 2224.2 1382.3 2189.2 1383 2143.9 1383.4 2115.5 1384.5 2096 1399.3 2095.3 1427 2094.9 1455.1 2094.9 1483.1 2095.3 1516.4 2095.3 1517.1 2093.1 1516.8 2041.2 1516.8 2002.5 1526.7 2002.5 1536 2002.7 1540.4 2002.8 1544.9 2002.9 1550.6 2003.1 1557.7 2003.2 1566.2 2003.4 1574 2003.6 1579.4 2004 1589.2 2004.6 1596.8 2005.2 Z" data-holc_grade="C"/>
<path d="M 1662.5 2065.4 1662.9 2072.5 1663.1 2077.6 1663.5 2084.9 1664.2 2097.1 1664.5 2103.5 1664.9 2112.6 1665.4 2117.8 1665.9 2123.6 1666.4 2129.2 1666.4 2139.2 1666.4 2145.4 1666.7 2153.5 1666.8 2157.9 1667.4 2165.1 1668.2 2176.1 1668.6 2185.5 1669.1 2192.9 1669.4 2198.4 1669.7 2204.4 1670.1 2210.5 1669.3 2218.3 1667.7 2228.8 1666.4 2235.6 1664.2 2241.6 1659.6 2253.5 1655.1 2262.5 1651.7 2268.3 1643.5 2278.6 1636.9 2285.6 1628.7 2292.3 1615.1 2303 1609.7 2306.3 1603.5 2312 1599.9 2313.9 1597.1 2315.5 1592.8 2317.8 1594.2 2295.7 1594.2 2275.8 1594.6 2244.8 1595 2223.6 1595.9 2201.1 1596.8 2174.6 1596.8 2152.1 1596.8 2116.7 1596.4 2090.2 1596.8 2061.9 1597.2 2041.6 1597.2 2021.3 1596.8 2005.2 1601.4 2005.5 1608.2 2005.8 1614 2006.1 1622.8 2006.6 1628.8 2006.4 1633.7 2006.3 1638.7 2006.2 1638.5 2015.1 1638.5 2021.3 1638.5 2028.4 1638.5 2032.3 1638.5 2034.1 1638.5 2038.1 1638.3 2044 1638 2051.3 1638 2059.3 1638 2062.8 1641.1 2064.6 1643.8 2064.6 1652.7 2064.6 1657.1 2065 1662.5 2065.4 Z" data-holc_grade="C"/>
<path d="M 1839.8 2304.9 1839.8 2311.1 1839.8 2318.1 1839.8 2324.3 1839 2336.3 1838.5 2349.5 1838.5 2361 1837.6 2374.7 1836.8 2391.9 1836.3 2413.6 1835.9 2444.5 1835.9 2461.8 1835.9 2477.7 1835.9 2489.6 1818.6 2489.6 1798.7 2489.2 1780.5 2488.7 1765.4 2489.2 1748.5 2489.2 1733.9 2488.8 1713.5 2488.8 1713 2475.1 1713.9 2467.5 1713.9 2450.3 1714.4 2437.5 1714.8 2419.4 1715.2 2407.9 1715.2 2396 1715.2 2383.6 1716.1 2375.6 1716.6 2366.3 1716.6 2354.4 1717 2339.8 1717.4 2323.9 1719.2 2304.1 1726.3 2304.2 1733.9 2304.3 1738.7 2304.3 1744.5 2304.3 1750.3 2304.4 1756 2304.4 1760.5 2304.3 1766.2 2304.3 1772.4 2304.3 1778.2 2304.2 1782.2 2304.2 1786.6 2304.2 1791.1 2304.1 1796.4 2304.1 1799.5 2304.1 1802.6 2304 1807.2 2304 1812.7 2304.2 1818.1 2304.3 1823.4 2304.4 1827.4 2304.5 1830.9 2304.6 1834.9 2304.7 1838.4 2304.8 1839.8 2304.9 Z" data-holc_grade="C"/>
<path d="M 1412.3 2223.2 1412.3 2242.6 1412.8 2255 1412.8 2269.2 1411.9 2274.5 1411.9 2282.4 1411.9 2288.6 1411.9 2294.8 1416.3 2297 1429.6 2297 1448.7 2296.1 1461.6 2296.5 1477.5 2296.5 1486 2296.5 1493.5 2297 1499.7 2297.4 1498.4 2303.2 1497.9 2309.4 1497.9 2316 1497 2331 1495.7 2337.6 1497 2345.2 1493.9 2346.9 1487.3 2346.9 1483.3 2350 1479.3 2352.2 1475.3 2356.6 1471.8 2360.6 1469.1 2363.7 1465.6 2368.6 1462.9 2372.1 1457.6 2375.6 1451.4 2377.9 1444.3 2379.2 1436.7 2379.2 1431.8 2379.6 1431.8 2384 1431.8 2388.9 1431.8 2393.8 1431.4 2399.1 1431.4 2401.7 1429.6 2404.8 1425.2 2405.7 1417.7 2403 1409.7 2396.9 1403 2392.9 1396.4 2388.9 1385.7 2383.6 1378.2 2380.1 1368.4 2377 1361.3 2374.3 1356 2373 1350.2 2372.5 1348.9 2369.9 1348.5 2350 1348.5 2344.3 1350.7 2342.9 1365.3 2342.9 1394.2 2342.1 1400.4 2341.6 1400.4 2335.4 1399.9 2323.1 1399.9 2315.5 1400.4 2303.2 1395 2301.4 1383.5 2301.4 1367.1 2300.5 1356 2300.5 1348.9 2300.5 1343.6 2300.5 1332.5 2298.3 1319.7 2296.1 1305.9 2293.4 1305 2294.8 1305.5 2298.7 1306.4 2303.2 1306.8 2307.6 1307.2 2312 1307.2 2317.3 1305.9 2322.6 1303.2 2326.1 1300.1 2332.3 1297.5 2337.2 1301 2340.7 1304.1 2343.8 1305.9 2349.6 1306.3 2355.7 1307.2 2365.9 1305.9 2376.5 1303.2 2380.5 1294.8 2381.4 1287.7 2384.9 1282.8 2387.1 1279.3 2387.6 1274.8 2388.4 1269.1 2388.4 1264.6 2385.3 1260.7 2380.5 1261.5 2370.3 1262 2358.8 1262.4 2350.9 1262.4 2343.4 1263.8 2335.4 1264.7 2329.2 1263.8 2325.2 1260.7 2324.8 1251.8 2324.8 1244.3 2323.9 1236.3 2324.4 1225.2 2324.4 1212.8 2324.8 1210.6 2323 1211.4 2316 1211.4 2307.6 1211.4 2299.6 1210.1 2294.7 1209.2 2290.3 1208.8 2286.3 1208.8 2281.9 1211.9 2279.3 1215.9 2277.5 1223.4 2276.4 1251.4 2280.8 1271.4 2284.2 1274.7 2282.3 1282.9 2249.2 1288.4 2230 1299.5 2229.3 1315.8 2228.9 1334.6 2227.5 1354.6 2225.3 1373 2224.5 1381.9 2224.2 1386.1 2223.6 1390.2 2223.1 1393.3 2222.8 1399.9 2223 1405.7 2223.2 1412.3 2223.2 Z" data-holc_grade="C"/>
<path d="M 1099.4 2251.4 1112 2252.9 1168.1 2262.3 1177.9 2266.1 1179.1 2311.8 1189.7 2324.8 1162.8 2327.1 1161.6 2313.8 1121.4 2313.2 1121.1 2300.9 1110.8 2301.5 1111.9 2323.8 1100.4 2348.3 1044.8 2317.9 1025.3 2309.1 986.3 2297.9 968.6 2289 947 2279 934 2273.7 926.6 2273.1 926.6 2241.9 968.9 2236.9 1017.1 2242.2 1099.4 2251.4 Z" data-holc_grade="C"/>
<path d="M 1100.4 2373.3 1133.5 2393.7 1134.1 2437.5 1107.2 2437.4 1101.7 2437.3 1099.8 2436.2 1099.3 2433.9 1098.6 2429.3 1095.9 2429.3 1080.5 2429.5 1067.7 2429.1 1058.1 2428.8 1037.7 2427.9 1038.6 2363.6 1045.1 2361.8 1054 2356.5 1061.4 2350 1067.9 2350.6 1096.6 2373.6 1100.4 2373.3 Z M 919.1 2466.7 915.5 2466.8 891.6 2467.9 876.9 2468.6 849.9 2470.2 847.6 2394.4 848 2290.4 856.5 2291.9 874 2290.7 887 2290.2 893.8 2290.8 911.5 2288.7 939 2290.5 957.3 2295.5 977.1 2311.1 987.2 2314.4 995.8 2331.8 996.9 2344.1 996.6 2351.8 1006.1 2361.8 1018.2 2372.4 1009.6 2377.1 998.1 2375.9 977.1 2368.9 955.2 2357.7 954.9 2378 953.2 2388.9 949.6 2399.8 946.3 2415.1 940.7 2421.9 934.5 2422.8 927.7 2422.2 922.1 2427.5 919.1 2466.7 Z" data-holc_grade="C"/>
<path d="M 1264.7 2502.2 1262.8 2502.2 1259.8 2502.2 1257 2502.2 1251.2 2502.5 1246.3 2502.8 1242.2 2503.1 1237.1 2503.5 1234 2503.7 1230.5 2503.9 1225.5 2503.8 1222.6 2503.7 1219.5 2503.6 1219.7 2490.5 1219.7 2484.5 1218.1 2481 1218.1 2477.8 1218.1 2465.2 1218.3 2456.6 1218.5 2448.3 1218.8 2442.3 1220.3 2435.5 1222.4 2427.9 1222.7 2421.4 1223.3 2416.8 1230 2416.8 1234.8 2415 1237.3 2413.8 1242.1 2411.1 1247.9 2409.6 1256.3 2408.1 1262.1 2408.1 1273.5 2409.2 1279 2410.4 1281.8 2412.7 1282.7 2417 1281.3 2426.5 1279.7 2434.7 1277.9 2442.8 1274.7 2451.8 1275.6 2453.6 1285.2 2454.1 1301.7 2454.5 1311.3 2454.3 1337.5 2454.5 1352.1 2454.3 1366.8 2455.2 1386.5 2455 1408 2455.7 1420.2 2455.5 1432.4 2455.5 1445.9 2455.5 1459.4 2455.2 1467.9 2455.2 1472.1 2457 1472.1 2459.8 1472.1 2460.8 1472.1 2461.9 1472.1 2463.5 1472.1 2466.1 1472.2 2468.3 1472.3 2469.7 1472.4 2471.8 1472.6 2474.5 1472.7 2477.3 1473 2480.9 1473.3 2483.5 1473 2486.2 1472.7 2490 1472.8 2495.5 1464.2 2497.3 1452.7 2498 1439 2499 1425.5 2499.7 1413.1 2499.7 1405.2 2499.6 1406.2 2498 1407.8 2494.2 1411.9 2491.8 1414.2 2489.9 1415.9 2488.5 1417.5 2486.6 1420.8 2484.8 1424.2 2483.6 1426.8 2481.7 1430.3 2477.9 1435 2473 1440.2 2468.3 1437.4 2465.9 1429.4 2466.6 1419.9 2466.6 1409.7 2466.6 1401.2 2466.4 1392.5 2466.4 1380.2 2465.9 1370.7 2466.4 1357.7 2466.4 1347 2466.4 1347.7 2501.3 1327 2501.7 1311.4 2502.7 1293.3 2502.5 1268.5 2502.2 1264.7 2502.2 Z" data-holc_grade="C"/>
<path d="M 1606.3 1538.7 1603.6 1541.3 1596.2 1541.3 1591.4 1541.3 1587.4 1541.3 1583.1 1541.1 1579 1540.8 1574.6 1540.6 1570.9 1540.3 1567.6 1540.2 1557.8 1540.2 1550.7 1540.2 1546.3 1540.2 1541.5 1539.7 1536.3 1539.3 1529.5 1538.7 1530.7 1493.9 1529.8 1478.6 1526.5 1474.2 1513.5 1472.7 1480.6 1470.3 1481.7 1433.8 1481.7 1385.6 1482.9 1337.3 1482.9 1300.8 1485.2 1252.5 1485.2 1223.1 1485.2 1181.9 1485.2 1164.3 1485.2 1152.5 1484.9 1131.9 1485.5 1104.3 1503.2 1104.9 1522.1 1105.8 1555.7 1106.3 1587.3 1106.6 1625.4 1106 1676.5 1106.6 1678.9 1138.1 1656.2 1137.5 1615.4 1137.5 1615.1 1166.4 1645.5 1166.7 1645.5 1186.7 1645.8 1206.7 1646.7 1230.5 1632 1230.2 1603.9 1230.2 1559 1229.6 1556.6 1230.5 1563.4 1239.1 1572.6 1249.4 1589.4 1270 1609.8 1295.9 1609.8 1303.9 1609.8 1314.4 1609.4 1327.6 1609.2 1335.7 1608.8 1349 1608.7 1353.4 1608.6 1354.7 1621.9 1354.5 1632 1354.4 1634.6 1417.1 1619.6 1417.4 1613.7 1417.4 1609.5 1418.3 1608.6 1422.4 1608.6 1427.4 1616.3 1427.1 1622.2 1428.3 1620.8 1433.3 1620.2 1437.4 1620.2 1443.3 1621.1 1451.5 1616 1458.3 1612.8 1466.6 1610.1 1473.9 1607.8 1478.6 1606.9 1491.3 1606.9 1502.8 1606.9 1518.7 1606.6 1530.1 1606.3 1538.7 Z" data-holc_grade="C"/>
<path d="M 1039.7 2517.2 1058.4 2515.4 1086.8 2513.1 1105.7 2511.3 1116.6 2510.4 1152.1 2508.4 1177.3 2507.5 1198.2 2505.1 1219.5 2503.6 1222.6 2503.7 1225.5 2503.8 1230.5 2503.9 1234 2503.7 1237.1 2503.5 1242.2 2503.1 1246.3 2502.8 1251.2 2502.5 1257 2502.2 1259.8 2502.2 1262.8 2502.2 1264.7 2502.2 1264 2510.2 1263.5 2518.4 1263.8 2526.7 1262.8 2537.3 1262.3 2546.7 1261.4 2562.5 1260 2570.7 1258.3 2580.9 1257.6 2588.9 1256.4 2594.8 1244.1 2594.5 1225.9 2595.2 1204.8 2595.9 1188.3 2595.5 1177.2 2595.7 1159.4 2596.4 1145.9 2595.5 1137.4 2594.5 1137 2583.7 1126.1 2582.7 1111.4 2582.7 1096.5 2582.7 1078 2582 1050.4 2582.2 1019.1 2582.4 994.1 2582.9 982.9 2582.9 978.4 2582.4 975.4 2580.3 955.3 2581 932.8 2581.5 923.3 2581 920.5 2580.3 921.2 2563.3 921 2546.3 921.2 2527.2 926.2 2527.7 938.5 2530.5 946.1 2531.7 956.2 2532.2 964.5 2531.3 974.2 2529.9 984.4 2525.6 993.4 2524.9 1001.9 2523.3 1010.9 2521.4 1017 2520.2 1025.1 2518.6 1039.7 2517.2 Z" data-holc_grade="C"/>
<path d="M 727.9 2844 727 2930.7 662.6 2932.4 664.9 2842.6 727.9 2844 Z" data-holc_grade="C"/>
<path d="M 727 2930.7 727.9 2844 728.4 2839.1 801.6 2837.4 806.9 2843.2 832.6 2843.2 833.9 2908.6 778.5 2908.6 761.6 2910.8 742.5 2920.1 727 2930.7 Z" data-holc_grade="C"/>
<path d="M 977.8 2722.7 978.5 2749.1 1035.3 2749.1 1036.5 2840.4 977.9 2842.2 976.9 2933.5 901.8 2950.7 890.7 2956 850.3 2955.9 851.7 2840.1 952.4 2841.1 952.9 2722.1 977.8 2722.7 Z" data-holc_grade="C"/>
<path d="M 727 2930.7 742.5 2920.1 761.6 2910.8 778.5 2908.6 833.9 2908.6 832.6 2843.2 806.9 2843.2 801.6 2837.4 802.1 2781.7 851.3 2780.4 851.7 2840.1 850.3 2955.9 890.7 2956 901.8 2950.7 976.9 2933.5 976.7 2954.8 974.5 3141.7 847.5 3143 847.1 3111.1 683.8 3111 682.9 3077.4 599 3143.7 600.4 3076.9 641.7 3075.2 640 2958 728.7 2957.2 727 2930.7 Z" data-holc_grade="C"/>
<path d="M 1111.7 2955.5 1221.6 3005 1310.3 3046.9 1340.2 3060.9 1308.7 3076.4 1222.1 3077.3 1219.9 3138.7 1139.1 3139.6 1136.9 3199.3 1100.5 3200.2 1100.4 3323.6 1064.5 3324 1064.1 3266.9 1033 3267.8 1034.8 3141.3 974.5 3141.7 976.7 2954.8 1111.7 2955.5 Z" data-holc_grade="C"/>
<path d="M 1469.2 2839.3 1447.6 2839.3 1344.7 2839.1 1295.8 2839 1296.7 2955.1 1221.3 2956 1221.6 2810.4 1220.3 2757.4 1220.1 2749.4 1229.6 2715.6 1256.5 2715.6 1285.6 2715.6 1286.4 2809.2 1468.9 2767.7 1469.2 2839.3 Z" data-holc_grade="C"/>
<path d="M 1677.4 3259 1674.3 3224 1611.3 3223.6 1610 3197.9 1588.6 3197.1 1587.3 3080.7 1555.4 3079.9 1558.5 2958.7 1546.5 2958.3 1554.5 2931.7 1539.8 2903.4 1542 2766.4 1748.8 2746.5 1750.1 2840.2 1745.7 2946.7 1742.2 3085.1 1707.1 3113.9 1706.3 3258.1 1677.4 3259 Z" data-holc_grade="C"/>
<path d="M 1652.6 3320 1589.5 3320.3 1560.3 3320.4 1560 3294.8 1590.9 3293.5 1614.8 3298.8 1652.9 3296.6 1652.6 3320 Z M 1677.4 3259 1653.5 3258.5 1653.1 3283.3 1615.3 3282.4 1590.5 3276.2 1588.6 3197.1 1610 3197.9 1611.3 3223.6 1674.3 3224 1677.4 3259 Z" data-holc_grade="C"/>
<path d="M 2022.4 3194.6 2023.6 3218.7 2078.1 3214.6 2076.4 3323.1 1870.4 3319.6 1869.2 3304.3 1875.7 3302 1875.7 3296.1 1871 3293.1 1871 3287.2 1892.3 3286.6 1894 3132.1 1856.7 3174.6 1854.4 3197.6 1828.3 3197 1830.7 3135.1 1878 3133.9 1912.3 3099.7 2033.6 3102 2033.6 3135.6 2018.9 3135.6 2019.5 3162.7 2002.9 3163.3 2003.5 3194.6 2022.4 3194.6 Z" data-holc_grade="C"/>
<path d="M 1771.9 1452.5 1732.8 1451.1 1675.9 1449.6 1675.2 1439.3 1651.5 1417.2 1634.6 1417.1 1632 1354.4 1645.7 1354.5 1662.6 1354.6 1673.7 1354.7 1685.5 1354.5 1695.8 1354.3 1709 1354.1 1717.4 1354 1724.4 1356.9 1730.2 1356 1715.6 1316.3 1711.1 1307 1707.1 1295.5 1702.3 1281.9 1692.5 1261.1 1707.6 1258.3 1715.7 1259 1727.6 1255.3 1738.6 1253.1 1746.8 1247.2 1746.8 1241.4 1754.1 1236.9 1758.6 1241.4 1769.6 1240.6 1774.1 1240.6 1777.8 1236.9 1785.9 1236.9 1797 1234 1797 1254.6 1797 1291.4 1796.3 1328.9 1795.5 1348.8 1813.2 1351 1825.8 1350.2 1825.8 1315.6 1825.8 1310.5 1854.6 1310.5 1854.6 1272.2 1876.7 1271.5 1899.6 1272.2 1903.3 1289.1 1909.2 1310.5 1913.7 1335.5 1917.4 1352.4 1918.8 1360.5 1928.5 1385.5 1944.7 1423.8 1942.5 1427.4 1879 1422.3 1873.1 1415.7 1835.4 1398.8 1776.3 1373.8 1776.3 1356.9 1738 1356.2 1744.6 1380.4 1756.4 1409.1 1771.9 1452.5 Z" data-holc_grade="C"/>
<path d="M 2076.4 3323.1 2075.4 3423.9 2075.2 3445.8 1958.1 3445 1823.7 3444.1 1824.8 3320.8 1870.4 3319.6 2076.4 3323.1 Z" data-holc_grade="C"/>
<path d="M 2397.9 3231.4 2400.3 3239.2 2391 3239.5 2386.5 3241.1 2386.1 3271.7 2410.7 3272.6 2411 3291.3 2441.9 3291.3 2454.4 3325 2472.6 3325.5 2474.7 3227.3 2458.3 3205.6 2503.5 3168.4 2519.9 3185.7 2516 3196.3 2527.1 3216.6 2514.7 3226.3 2568 3264.8 2561.8 3274.1 2581.7 3288.6 2570.2 3308.6 2566 3452.5 2542.3 3452.5 2531.6 3449.5 2515.6 3431.3 2511.4 3429.1 2479.7 3386.9 2465.1 3356 2382.4 3356.5 2251 3356 2260.8 3319 2345.6 3318.9 2346.5 3282.2 2316.7 3280.9 2316.7 3236.2 2260.3 3234.5 2260.3 3202.2 2351.3 3203 2352.2 3229.1 2395.7 3230 2397.9 3231.4 Z" data-holc_grade="C"/>
<path d="M 2382.4 3356.5 2382.4 3415.5 2486.6 3416.6 2511.4 3429.1 2515.6 3431.3 2531.6 3449.5 2542.3 3452.5 2566 3452.5 2568.4 3572.8 2317.4 3570.7 2308.6 3570.5 2309.1 3512 2266.5 3510.5 2267.1 3522.6 2277.5 3569.9 2227.5 3568.9 2228 3489.3 2241 3488.7 2242.7 3387.9 2251 3356 2382.4 3356.5 Z" data-holc_grade="C"/>
<path d="M 1957.9 3467.6 1958.1 3445 2075.2 3445.8 2075.4 3423.9 2123.7 3359 2140.3 3360.2 2140.3 3416.2 2190.1 3416.2 2188.9 3389.1 2242.7 3387.9 2241 3488.7 2228 3489.3 2227.5 3568.9 2075.3 3569 2075.9 3481.7 2046.8 3480.6 2045.1 3467 1957.9 3467.6 Z" data-holc_grade="C"/>
<path d="M 2277.5 3569.9 2308.6 3570.5 2317.4 3570.7 2318.1 3657.4 2371.4 3689.2 2371.5 3823.1 2186.2 3822.1 2185.5 3698.8 2074.8 3697.1 2075.3 3569 2227.5 3568.9 2277.5 3569.9 Z" data-holc_grade="C"/>
<path d="M 2843.4 4068.8 2807.9 4069.4 2806.3 3966.9 2805.8 3858.1 2784 3858.9 2766.6 3830.9 2726.9 3770.4 2692 3715.2 2687.2 3714.1 2687.2 3708.2 2683.1 3698.6 2875.6 3695.4 2876.3 3725.3 2845.6 3725.7 2844.5 3743.4 2814.6 3745.6 2810.5 3728.3 2765.3 3729.8 2765 3770 2936 3768.7 2936.5 3868.6 2939.2 3952.7 2939.3 4002.1 2929.3 4007.7 2917.8 4010.3 2877.5 4010.3 2877.5 4068.2 2843.4 4068.8 Z" data-holc_grade="C"/>
<path d="M 2861.6 4346.7 2861.9 4391.8 2858.7 4532 2918.8 4577.7 2917.3 4585.4 2912.9 4594.3 2878.4 4570 2827.3 4534.2 2816.9 4543.5 2813.2 4542.7 2812.8 4537.2 2817.6 4534.6 2817.6 4529.8 2810.2 4526.5 2808.4 4517.3 2800.6 4496.6 2794.6 4450.9 2805.3 4448.6 2807.9 4429.1 2782.7 4428.8 2780.8 4360.5 2804.5 4361.2 2800.4 4346.8 2861.6 4346.7 Z" data-holc_grade="C"/>
<path d="M 2777.1 4687.8 2773.7 4653.1 2828.9 4653.1 2831.8 4581.5 2837.3 4583.3 2878.1 4610.2 2876.7 4634.5 2918.1 4637.1 2917.1 4668.4 2966.7 4669.5 2966.4 4701.2 2998.6 4701.5 2999 4719.6 2989.8 4756.2 2910.5 4757 2908.7 4787.3 2823.9 4784.4 2826.3 4688.1 2777.1 4687.8 Z" data-holc_grade="C"/>
<path d="M 2777.1 4687.8 2789 4764.2 2744.2 4763.9 2744.6 4803.4 2795 4804.8 2803.2 4862.7 2753.2 4863.2 2748.4 4842.9 2661.7 4844.8 2661.3 4811.2 2537.6 4809.5 2536.8 4767.4 2540.4 4685.5 2777.1 4687.8 Z" data-holc_grade="C"/>
<path d="M 2100.5 1271.4 2118.7 1287.7 2130.7 1300.5 2144 1312.4 2159.5 1326.6 2187.9 1352.6 2199.8 1365.8 2183.4 1366.3 2161.7 1365.8 2141.4 1364.5 2126.3 1364.1 2107.7 1363.2 2097.9 1363.2 2096.6 1345.1 2097.5 1311.1 2097.9 1290.8 2100.5 1271.4 Z" data-holc_grade="C"/>
<path d="M 1293.8 1471.5 1278.6 1472.7 1263.1 1472.2 1246.7 1472.2 1231.6 1473.5 1230.7 1481.9 1230 1492.7 1222.1 1492.1 1214.9 1491.5 1207.4 1490.9 1203.4 1490.6 1199.3 1490.3 1199.2 1486.7 1199.1 1481.8 1198.9 1475.7 1198.8 1468.7 1198.6 1460.7 1198.4 1454.1 1198.3 1447.5 1198.1 1440.9 1204.6 1440.6 1210.8 1440.4 1216.6 1440.2 1220.1 1440.1 1227.2 1439.9 1233.5 1439.7 1233.7 1432.9 1233.8 1425.9 1233.9 1415.3 1234.1 1408.7 1234.1 1402.9 1234.3 1396 1277.3 1397.3 1295 1398.5 1293.8 1442.1 1293.8 1471.5 Z" data-holc_grade="C"/>
<path d="M 2271.3 1606.1 2314.1 1606 2322.2 1616.3 2327.4 1621.5 2335.5 1636.2 2344.4 1641.3 2351.8 1644.3 2357.7 1649.4 2361.4 1653.8 2371 1659 2377.7 1666.3 2382.1 1673.7 2385.8 1681.1 2389.5 1688.4 2391 1701.7 2374.7 1700.9 2357.8 1701.7 2333.4 1702.4 2333.4 1675.2 2316.4 1673.7 2294.2 1673.8 2272.8 1673.8 2272 1651.7 2271.3 1606.1 Z" data-holc_grade="C"/>
<path d="M 2218.1 1734.4 2212.9 1734.3 2208.5 1734.2 2203.7 1734.1 2200 1734.1 2193 1734 2187.5 1733.9 2181.6 1733.8 2175.6 1733.7 2168.6 1733.6 2161.6 1733.4 2156.1 1733.4 2149.1 1733.2 2142 1733.1 2136.5 1733 2130.2 1732.9 2124.3 1732.8 2120.1 1732.8 2112.1 1732.7 2106.6 1732.6 2099.9 1732.6 2093.7 1732.5 2088.9 1732.5 2083.3 1732.4 2078.5 1732.4 2072.2 1732.4 2065.2 1732.2 2058.2 1732 2051.5 1731.8 2046.3 1731.7 2042.3 1731.6 2034.2 1731.4 2027.9 1731.2 2024.2 1731.1 2020.5 1731 2014.9 1730.8 2007.5 1730.7 2001.3 1730.5 1996.8 1730.4 1991 1730.2 1983.2 1730 1977.7 1729.9 1973.4 1729.8 1966.6 1729.6 1963.6 1729.6 1960.3 1729.5 1953.3 1729.4 1945.2 1729.2 1937.4 1729.1 1930.8 1729 1926 1728.9 1921.5 1728.8 1916 1728.7 1911.2 1728.6 1907.5 1728.6 1901.9 1728.5 1895.3 1728.4 1890.1 1728.3 1885.7 1728.2 1880.1 1728.1 1876.7 1728 1871.6 1727.9 1866.8 1727.7 1858.3 1727.5 1847.3 1727.1 1838.4 1726.8 1829.2 1726.6 1822.5 1726.3 1814.8 1726.1 1807.8 1725.9 1801.9 1725.7 1796.3 1725.5 1792.1 1725.4 1786 1725.4 1780.5 1725.3 1770.5 1725.2 1762 1725.2 1754.2 1725.1 1746.1 1725 1738.4 1725 1733.1 1724.7 1728.3 1724.4 1722.9 1724.1 1722.5 1715.3 1678.2 1652 1661.9 1628.4 1661.9 1615.2 1663.4 1597.5 1675.2 1598.2 1701 1599 1720.3 1598.2 1721 1569.5 1721 1553.3 1721.7 1540.1 1707.7 1539.4 1690 1538.6 1674.4 1539.4 1675.2 1509.2 1675.9 1483.4 1675.9 1466.5 1675.9 1449.6 1732.8 1451.1 1771.9 1452.5 1783.2 1481.6 1792.9 1506.4 1801.8 1503.3 1810.2 1521.4 1815.5 1524.9 1816 1559.4 1848.3 1580.1 1849.6 1579.2 1849.6 1527.6 1851 1525.8 1879.3 1527.5 1882 1529.7 1881.2 1568.6 1881.1 1573.9 1882.4 1576.1 1909.5 1575.7 1913 1577.4 1912.1 1592.9 1893.1 1593.3 1888.2 1593.8 1887.3 1616.3 1889.5 1619.4 1894.4 1620.3 2002.1 1622 2003.9 1589.7 1972.4 1588.4 1972.8 1569 1980.8 1569.4 1980.8 1533.2 1999 1533.2 2007 1544.3 2096.5 1546 2094.7 1606.9 2139.5 1608.2 2144.4 1609.5 2143.1 1675.3 2183.4 1676.6 2224.7 1734.5 2218.1 1734.4 Z" data-holc_grade="C"/>
<path d="M 2218.1 1734.4 2219.3 1739.1 2220 1753.1 2219.7 1769.7 2219.3 1793.6 2219.7 1819.3 2219 1841.8 2218.6 1871.2 2218.7 1901.1 2218.3 1929.8 2218.3 1952.2 2218.3 1969.1 2218.3 1983.1 2210.6 1982.8 2202.1 1983.5 2201.7 2003.8 2202.1 2015.5 2201.7 2025.9 2201.8 2047.2 2201.8 2070 2201.4 2087.3 2201.1 2102.8 2198.1 2106.8 2177.8 2105.8 2155.2 2105.4 2134.9 2105 2131.6 2104.2 2126.4 2102.8 2126.4 2076.3 2126.8 2046.9 2127.1 2013.4 2127.5 1982.8 2111.2 1982.8 2066.5 1982.5 1984.1 1981.1 1930.5 1980.7 1882.1 1980.7 1820.5 1981.5 1782.4 1980.8 1751.4 1980.8 1725.5 1980 1725.1 1963.1 1725.1 1949.9 1721.8 1946.6 1696.3 1945.5 1689.7 1945.5 1688.6 1941.4 1688.9 1917.1 1687.1 1915.6 1673 1914.9 1674.1 1904.2 1653.8 1903.9 1653.5 1897.2 1653.1 1888.8 1652.7 1881 1652.5 1873.8 1652.3 1867.1 1652.1 1860.1 1652 1853.8 1652 1845 1651.4 1837 1651.2 1833.9 1650.6 1825.7 1650.1 1819.2 1649.1 1807.8 1648.6 1803 1648.9 1793.8 1649 1788.7 1643.5 1786.5 1649.7 1783.5 1668.9 1784.6 1670.1 1782.8 1670.1 1757.4 1670.4 1749.3 1687.8 1749.6 1706.2 1750 1723.2 1749.6 1722.9 1733.8 1722.9 1724.1 1728.3 1724.4 1733.1 1724.7 1738.4 1725 1746.1 1725 1754.2 1725.1 1762 1725.2 1770.5 1725.2 1780.5 1725.3 1786 1725.4 1792.1 1725.4 1796.3 1725.5 1801.9 1725.7 1807.8 1725.9 1814.8 1726.1 1822.5 1726.3 1829.2 1726.6 1838.4 1726.8 1847.3 1727.1 1858.3 1727.5 1866.8 1727.7 1871.6 1727.9 1876.7 1728 1880.1 1728.1 1885.7 1728.2 1890.1 1728.3 1895.3 1728.4 1901.9 1728.5 1907.5 1728.6 1911.2 1728.6 1916 1728.7 1921.5 1728.8 1926 1728.9 1930.8 1729 1937.4 1729.1 1945.2 1729.2 1953.3 1729.4 1960.3 1729.5 1963.6 1729.6 1966.6 1729.6 1973.4 1729.8 1977.7 1729.9 1983.2 1730 1991 1730.2 1996.8 1730.4 2001.3 1730.5 2007.5 1730.7 2014.9 1730.8 2020.5 1731 2024.2 1731.1 2027.9 1731.2 2034.2 1731.4 2042.3 1731.6 2046.3 1731.7 2051.5 1731.8 2058.2 1732 2065.2 1732.2 2072.2 1732.4 2078.5 1732.4 2083.3 1732.4 2088.9 1732.5 2093.7 1732.5 2099.9 1732.6 2106.6 1732.6 2112.1 1732.7 2120.1 1732.8 2124.3 1732.8 2130.2 1732.9 2136.5 1733 2142 1733.1 2149.1 1733.2 2156.1 1733.4 2161.6 1733.4 2168.6 1733.6 2175.6 1733.7 2181.6 1733.8 2187.5 1733.9 2193 1734 2200 1734.1 2203.7 1734.1 2208.5 1734.2 2212.9 1734.3 2218.1 1734.4 Z M 1852.9 1738.9 1850.7 1836.5 1854.8 1842 1861 1848.2 1869.5 1858.5 1879.5 1869.2 1886.5 1876.6 1919.1 1877.7 1915 1858.5 1912.8 1850.4 1911.3 1843.1 1909.1 1833.9 1905.7 1819.9 1902.8 1811.4 1902.4 1805.9 1900.2 1796.3 1898 1789 1893.5 1779.4 1886.1 1765.8 1879.8 1750.3 1874.7 1739.3 1852.9 1738.9 Z" data-holc_grade="C"/>
<path d="M 2347.3 2347.1 2336.5 2346.1 2454.8 2175.9 2415.7 2148.9 2386.9 2146.8 2394.4 2133.1 2398.8 2095.9 2406.8 2045.1 2429.8 2045.1 2424 1998.7 2421.8 1967.4 2459.9 1960.3 2459 1939.1 2443.9 1938.6 2443 1922.3 2414.6 1922.8 2412.4 1908.2 2415.9 1859.2 2415 1792 2415.8 1767.7 2422 1735.5 2463.5 1735.9 2463.7 1934.5 2470.8 1953.9 2542.3 1954.5 2642.2 1953.8 2641.7 1958.8 2637.7 1976.4 2644.8 1987.9 2650.6 2002 2650.6 2028.1 2640.4 2046.2 2610.3 2089.1 2597.9 2099.7 2581.5 2102.4 2557.6 2138.2 2570 2147.5 2545.7 2173.6 2537.7 2169.2 2525.7 2184.2 2529.3 2186.8 2516.4 2196.6 2509.3 2196.1 2496.9 2185.5 2482.3 2183.8 2474.3 2196.6 2458.8 2212.1 2448.6 2205 2350.3 2347.4 2347.3 2347.1 Z M 2581.9 2063.5 2580.1 2051.2 2554.9 2050.3 2520.8 2100.2 2554.9 2100.7 2581.9 2063.5 Z" data-holc_grade="C"/>
<path d="M 1670.6 1050 1668.5 1045.7 1665.9 1022.3 1664.1 1009.1 1663.7 1001.1 1677 999.4 1687.6 999.8 1701.8 1000.3 1715.5 1000.7 1725.7 1000.3 1739.8 1000.7 1741.6 1008.2 1741.6 1014.8 1743.4 1025.4 1756.2 1025.8 1771.3 1026.3 1788.1 1027.6 1811.6 1027.6 1819.6 1034.7 1832.4 1048.3 1847.5 1061.1 1861.2 1075.2 1866.5 1080.5 1865.7 1086.3 1865.2 1091.1 1866.1 1099.1 1872.8 1112.3 1852.4 1111.4 1818.7 1111 1793.9 1109.2 1762.9 1109.3 1732.3 1108.4 1731 1088.5 1731.9 1064.2 1731.4 1047.9 1718.2 1046.2 1706.6 1046.2 1689.4 1046.6 1679.6 1046.6 1670.6 1050 Z" data-holc_grade="C"/>
<path d="M 1369.3 3326 1431.5 3329.3 1431.5 3337.7 1453.7 3337.3 1455 3366.5 1464.8 3366 1463.9 3458.5 1341.8 3458 1340.9 3450.5 1247.7 3450 1247.3 3481 1215.3 3480.1 1215.3 3408.4 1340.1 3407.1 1339.6 3320.4 1364.9 3321.8 1364.9 3325.8 1369.3 3326 Z" data-holc_grade="C"/>
<path d="M 2807.9 4069.4 2843.4 4068.8 2844.7 4140.9 2933.9 4139.7 2934 4196.2 2903.6 4198.4 2799.2 4198.2 2806.9 4133.2 2807.9 4069.4 Z" data-holc_grade="C"/>
<path d="M 1982.6 1017.7 1983.9 1011.5 1992.3 1011.9 2001.6 1014.1 2010.5 1018.5 2019.8 1022.1 2038.8 1022.1 2045 1020.7 2057.4 1020.7 2065.8 1019 2073.8 1018.9 2088.4 1017.6 2094.2 1017.6 2093.8 1026 2089.3 1039.2 2082.3 1052.9 2071.2 1070.6 2063.2 1083 2057.9 1094.9 2052.2 1103.7 2043.3 1111.6 2034 1116.5 2029.6 1119.2 2027.4 1126.2 2027.4 1133.7 2026 1140.3 2020.3 1149.2 2011.9 1161.1 2006.6 1174.3 1999.9 1182.7 1980.9 1166.4 1981.3 1144.8 1981.3 1134.6 1981.3 1124.9 1981.3 1115.7 1982.2 1105.1 1982.2 1094.5 1982.2 1081.2 1981.7 1061.8 1982.1 1036.6 1982.6 1017.7 Z" data-holc_grade="C"/>
<path d="M 1237.1 1219.5 1234.3 1396 1234.1 1402.9 1234.1 1408.7 1233.9 1415.3 1233.8 1425.9 1233.7 1432.9 1233.5 1439.7 1227.2 1439.9 1220.1 1440.1 1216.6 1440.2 1210.8 1440.4 1204.6 1440.6 1198.1 1440.9 1198.3 1447.5 1198.4 1454.1 1198.6 1460.7 1198.8 1468.7 1198.9 1475.7 1199.1 1481.8 1199.2 1486.7 1199.3 1490.3 1203.4 1490.6 1207.4 1490.9 1214.9 1491.5 1222.1 1492.1 1230 1492.7 1230 1536.2 1071.6 1538.5 1020.8 1537.3 981.8 1536.1 983 1479.6 979.5 1474.9 952.3 1473.7 895.6 1473.7 853 1473.7 853.1 1439.5 898 1438.4 915.7 1439.6 905.1 1424.2 882.6 1388.9 861.4 1347.7 987.8 1351.3 990.2 1218.3 1237.1 1219.5 Z" data-holc_grade="C"/>
<path d="M 1225.7 1723.5 1145.9 1723.3 1132.3 1731.5 1135.9 1738.6 1110.5 1753.9 1075 1695 984.6 1693.8 985.8 1722.6 1009.4 1723.2 1009.4 1783.9 1012.9 1788 1012.9 1813.3 1067.3 1848.1 1026.6 1847.8 980.4 1848.2 726.9 1852.6 725.4 1607.9 597.7 1607.8 598.7 1477.1 853 1473.7 895.6 1473.7 952.3 1473.7 979.5 1474.9 983 1479.6 981.8 1536.1 1020.8 1537.3 1071.6 1538.5 1230 1536.2 1230 1492.7 1230.7 1481.9 1231.6 1473.5 1246.7 1472.2 1263.1 1472.2 1278.6 1472.7 1293.8 1471.5 1317.4 1471.5 1370.6 1470.3 1416 1470.3 1414.8 1534.3 1474.5 1534.3 1474.6 1472.4 1480.5 1472.7 1480.6 1470.3 1513.5 1472.7 1526.5 1474.2 1529.8 1478.6 1530.7 1493.9 1529.5 1538.7 1509.4 1538.4 1498.3 1538.4 1497.9 1543.6 1498.3 1568.6 1479.8 1568.6 1477.6 1571.9 1476.1 1598 1474.7 1599.9 1454.7 1600.2 1420.7 1600.2 1384.9 1599.5 1353.2 1599.1 1314.8 1598.4 1279.7 1598 1233.1 1598.4 1227.6 1599.5 1226.1 1663.9 1225.7 1723.5 Z" data-holc_grade="C"/>
<path d="M 273.1 1978.2 408.8 1976.5 413 2177.6 354.9 2177.1 357.8 2362.6 237.6 2364.7 236 2229.9 294.6 2226.9 294.7 2115.1 272.5 2116.4 273.1 1978.2 Z" data-holc_grade="C"/>
<path d="M 471 2103.5 577.1 2104 577 2134.6 556 2133.8 537.9 2138.2 521.6 2146.3 506.8 2156.6 496.8 2168 489.4 2182.4 485.4 2191.6 479.4 2194.5 472 2194.1 471 2103.5 Z" data-holc_grade="C"/>
<path d="M 642.6 2478.8 647.4 2530.6 607.5 2535.8 606.1 2599 536.5 2600.3 536.1 2538.4 503.7 2536.2 448.2 2530.4 448.2 2585.6 356.8 2587.7 356.8 2600.1 225 2604.4 115.9 2608.7 113.4 2522.9 238.5 2503.6 238.1 2483.3 319.7 2480.3 455.4 2479.6 642.6 2478.8 Z" data-holc_grade="C"/>
<path d="M 604.6 2843.2 515.1 2845.2 425.9 2844.6 328.3 2848.5 225.8 2852.8 88.7 2860.2 1.3 2863.6 1 2741.6 218.4 2729.9 352.4 2723 461.1 2721.8 474 2721.7 603.6 2721.3 606.1 2721.3 604.6 2843.2 Z" data-holc_grade="C"/>
<path d="M 716.9 3839.3 718.1 3884.7 659.5 3884.1 651.8 3885.9 638.2 3873.5 624.5 3865.2 613.9 3856.3 613.9 3847.5 617.5 3841.6 716.9 3839.3 Z M 471.9 3771.2 471.8 3822 401.3 3820.1 402.6 3771.2 471.9 3771.2 Z M 787.5 3696.6 636.5 3697.1 638.9 3644 714.1 3644 716.5 3627.5 715.9 3613.3 788.2 3612.8 782.8 3652.9 787.5 3678.3 787.5 3696.6 Z M 725.4 3260 726.2 3328.1 660.5 3327.6 664.6 3259.9 725.4 3260 Z" data-holc_grade="C"/>
</g>
<g id="D">
<path d="M 1646.7 1230.5 1685.9 1229.8 1689 1245.2 1692.5 1261.1 1702.3 1281.9 1707.1 1295.5 1711.1 1307 1715.6 1316.3 1730.2 1356 1724.4 1356.9 1717.4 1354 1700.9 1347.2 1683.3 1340.2 1666.4 1333.5 1654.1 1327.6 1650.2 1325.8 1639.3 1319.8 1636.7 1315.9 1634.5 1312.5 1631.4 1307.9 1621.7 1302.5 1617.9 1300.4 1609.8 1295.9 1589.4 1270 1572.6 1249.4 1563.4 1239.1 1556.6 1230.5 1559 1229.6 1603.9 1230.2 1632 1230.2 1646.7 1230.5 Z" data-holc_grade="D"/>
<path d="M 1221.3 2956 1296.7 2955.1 1344.1 2955.5 1344.1 2989.1 1310.9 2987.3 1310.3 3046.9 1221.6 3005 1221.3 2956 Z M 1447.6 2839.3 1469.2 2839.3 1471.9 2848.8 1467.7 2953.7 1447 2953.7 1447.6 2839.3 Z M 1221.3 2956 1111.7 2955.5 976.7 2954.8 976.9 2933.5 977.9 2842.2 1036.5 2840.4 1035.3 2749.1 978.5 2749.1 977.8 2722.7 977.4 2709.6 988.9 2709.4 1015 2710.6 1031.5 2711.2 1067.9 2711.8 1066.6 2835.7 1146.5 2834.6 1146.5 2781.5 1160.1 2781 1159.6 2760.9 1220.3 2757.4 1221.6 2810.4 1221.3 2956 Z" data-holc_grade="D"/>
<path d="M 1835.6 2738.3 1834.7 2835.6 2083.8 2834.9 2079.8 3194.5 2022.4 3194.6 2003.5 3194.6 2002.9 3163.3 2019.5 3162.7 2018.9 3135.6 2033.6 3135.6 2033.6 3102 1912.3 3099.7 1878 3133.9 1830.7 3135.1 1831.8 3079.7 1750.8 3077.9 1742.2 3085.1 1745.7 2946.7 1750.1 2840.2 1748.8 2746.5 1542 2766.4 1501.1 2769.6 1501.1 2747.2 1530.6 2743.1 1530.6 2723.1 1579.1 2718.4 1835.9 2711.8 1835.6 2738.3 Z M 2063.2 3013.5 2047.8 3012.4 2044.2 3004.1 2028.8 2966.4 1999.9 3001.8 2005.2 3011.8 2006.4 3075.5 2065 3076.6 2063.2 3013.5 Z" data-holc_grade="D"/>
<path d="M 2079.8 3194.5 2083.8 2834.9 1834.7 2835.6 1835.6 2738.3 1953.6 2726.5 2156.5 2727.6 2155.9 2830.1 2189.1 2831.3 2191.5 2883.2 2173.7 2883.8 2174.9 2895.6 2189.1 2936.2 2173.8 2935.1 2173.2 2975.1 2136.5 2982.2 2137.7 3036.5 2169.1 3089.5 2168 3135.5 2159.7 3157.9 2149.1 3180.3 2135.5 3195.1 2079.8 3194.5 Z" data-holc_grade="D"/>
<path d="M 2260.3 3234.5 2260.8 3319 2251 3356 2242.7 3387.9 2188.9 3389.1 2191.4 3283.5 2171.4 3221.1 2179.8 3205.6 2189.1 3177.3 2198.4 3139.3 2199.2 3025.2 2199.7 3011 2212.1 3000.4 2309.4 3146.7 2307.2 3149.8 2324.1 3176.8 2378.2 3215.2 2395.7 3230 2352.2 3229.1 2351.3 3203 2260.3 3202.2 2260.3 3234.5 Z" data-holc_grade="D"/>
<path d="M 2441.9 3291.3 2425.8 3249.2 2397.9 3231.4 2395.7 3230 2378.2 3215.2 2324.1 3176.8 2307.2 3149.8 2309.4 3146.7 2212.1 3000.4 2221 2994.2 2239.6 2989.4 2256.9 2989.8 2266.7 2993.8 2266.2 3022.9 2332.4 3030 2366.6 3053.8 2380.8 3112.6 2421.6 3113.9 2442.5 3133.8 2461.1 3122.3 2503.5 3168.4 2458.3 3205.6 2474.7 3227.3 2472.6 3325.5 2454.4 3325 2441.9 3291.3 Z" data-holc_grade="D"/>
<path d="M 1100.4 2373.3 1096.6 2373.6 1067.9 2350.6 1061.4 2350 1054 2356.5 1045.1 2361.8 1038.6 2363.6 1035.7 2340 1038.6 2326.2 1044.8 2317.9 1100.4 2348.3 1100.4 2373.3 Z" data-holc_grade="D"/>
<path d="M 2831.8 4581.5 2828.9 4653.1 2773.7 4653.1 2777.1 4687.8 2540.4 4685.5 2545.5 4557.1 2589.5 4556.6 2594.6 4429.3 2647.2 4431.1 2703.1 4431.4 2699.9 4556.9 2758.4 4558.3 2770 4625.8 2805.5 4626.5 2808.4 4577.1 2821.4 4577 2831.8 4581.5 Z" data-holc_grade="D"/>
<path d="M 2765.7 5187.8 2851.5 5196.9 2845 5139.7 2895.8 5145.5 2890.2 5216.9 2856.5 5216.3 2861.6 5251.9 2834.3 5251.5 2794.9 5245.6 2762.2 5240 2765.7 5187.8 Z" data-holc_grade="D"/>
<path d="M 448.9 4185.5 464.3 4183.1 465.6 4140.6 503.5 4140.7 505.2 4169 451.3 4218.5 448.9 4185.5 Z" data-holc_grade="D"/>
<path d="M 331.6 4731.8 407.7 4769.5 363.5 4814.1 326.5 4819.7 331.6 4731.8 Z" data-holc_grade="D"/>
<path d="M 2095.3 1493.5 2114 1493.5 2137 1493.9 2154.7 1495.2 2168.9 1496.5 2182.2 1497 2182.7 1510.6 2182.2 1522.1 2181.3 1533.6 2181.3 1538.5 2167.2 1538.9 2148.1 1538.5 2133 1538 2119.3 1538.1 2107.3 1536.7 2094.9 1535.9 2095.3 1493.5 Z" data-holc_grade="D"/>
<path d="M 2244.1 2192.2 2239.3 2192.1 2236.1 2192.1 2231.6 2192 2227.2 2192 2222.8 2192 2218.3 2192 2211.2 2192 2205.7 2192.2 2201.8 2192.3 2196.8 2192.4 2191.2 2192.6 2185.6 2192.8 2180.6 2192.9 2176.1 2193 2171.1 2193.2 2169 2193.2 2166.6 2193.2 2161.6 2193.2 2156 2193.2 2150.9 2193.2 2145 2193.3 2138.8 2193.3 2134.1 2193.3 2134.2 2188.2 2134.2 2185.3 2134.3 2182 2134.4 2177.9 2134.5 2174.1 2134.6 2168.5 2134.7 2163.2 2134.9 2159.2 2135.1 2155.2 2135.3 2151.7 2135.5 2147.8 2135.7 2143.7 2135.9 2139.8 2136.1 2135.5 2136.1 2131.1 2136.1 2126.7 2136.1 2121.1 2136.1 2116.4 2135.9 2114.3 2135.6 2111.6 2135.2 2108 2134.9 2105 2155.2 2105.4 2177.8 2105.8 2198.1 2106.8 2201.1 2102.8 2201.4 2087.3 2201.8 2070 2201.8 2047.2 2201.7 2025.9 2202.1 2015.5 2201.7 2003.8 2202.1 1983.5 2210.6 1982.8 2218.3 1983.1 2218.3 1969.1 2218.3 1952.2 2218.3 1929.8 2218.7 1901.1 2218.6 1871.2 2219 1841.8 2219.7 1819.3 2219.3 1793.6 2219.7 1769.7 2220 1753.1 2219.3 1739.1 2218.1 1734.4 2224.7 1734.5 2238.1 1733.5 2275.3 1734.4 2304.3 1734.9 2329.4 1735.5 2337.7 1735.8 2343.6 1736.4 2344.2 1749.9 2343.6 1766.4 2343.6 1791.1 2343.7 1817.6 2343.7 1832.6 2344.3 1857.4 2344.3 1890.9 2343.8 1924.2 2343.5 1957.8 2343.8 1976.3 2344.1 1992.8 2343.2 2007.9 2350.9 2009 2356.8 2008.7 2360.7 2009.6 2364.5 2010.8 2368.9 2012.5 2369 2017.6 2369.3 2022.3 2373.4 2028.4 2377.2 2038.2 2377.6 2047 2377.6 2052.9 2376.1 2060.8 2375.5 2067.6 2375.5 2074.1 2373.4 2081.5 2367.8 2092.1 2357.2 2105.9 2348 2114.5 2340.4 2118.9 2327.7 2127.4 2321.2 2132.5 2315.8 2136 2309.3 2138.9 2302.8 2145.7 2298.1 2152.5 2292.2 2157.5 2283.9 2164.9 2276.6 2170.8 2267.1 2180.2 2259.1 2185.8 2252.3 2190.2 2248.2 2192.3 2244.1 2192.2 Z" data-holc_grade="D"/>
<path d="M 2347.3 2347.1 2345 2353.1 2340.9 2359.5 2337.9 2369.3 2335.3 2379.9 2332 2389.3 2328.5 2396.1 2324 2405.8 2322.9 2414.7 2323.2 2427.6 2323.2 2435.3 2321.1 2443.2 2319.9 2451.2 2317.9 2454.4 2314 2459.4 2309.6 2460.6 2301.9 2461.2 2296.6 2461.2 2296.6 2456.8 2294.8 2445.3 2292.1 2426.5 2291.2 2416.2 2289.7 2403.2 2289.4 2395.5 2288.2 2388.2 2287.4 2384.3 2283.5 2384.6 2270.2 2385.8 2257.8 2387.3 2240.9 2388.2 2217.3 2390.3 2208.4 2390.9 2206.3 2389.4 2205.5 2383.2 2204.3 2376.4 2203.4 2366.4 2202.8 2358.2 2201.3 2350.2 2200.7 2342.3 2199.8 2332.8 2198 2331.7 2189.8 2332 2178.8 2332 2165.8 2331.7 2154.3 2332 2153.4 2329.9 2156.3 2322.6 2162.5 2312 2167.9 2306.4 2174.1 2301.6 2179.7 2295.2 2189.4 2289.3 2194.7 2283.1 2202.1 2277.5 2205.7 2273 2209.5 2266 2214.2 2258.9 2219.9 2250.1 2222.5 2245.3 2227.8 2239.1 2232 2233.3 2235.5 2228.5 2240.5 2224.1 2245 2220 2252.1 2212.3 2257.4 2209.1 2262.4 2203.8 2268.6 2197.6 2273.9 2192.3 2282.5 2184.6 2288.4 2177.5 2295.8 2171.4 2302.6 2169 2314.1 2165.4 2321.2 2164.9 2330.1 2164.3 2341.6 2164.8 2348.4 2163.7 2354.6 2162.2 2361.7 2160.4 2368.8 2159.8 2373.5 2157.2 2380.6 2152.4 2386.9 2146.8 2415.7 2148.9 2454.8 2175.9 2336.5 2346.1 2347.3 2347.1 Z" data-holc_grade="D"/>
<path d="M 2126.4 2102.8 2131.6 2104.2 2134.9 2105 2135.2 2108 2135.6 2111.6 2135.9 2114.3 2136.1 2116.4 2136.1 2121.1 2136.1 2126.7 2136.1 2131.1 2136.1 2135.5 2135.9 2139.8 2135.7 2143.7 2135.5 2147.8 2135.3 2151.7 2135.1 2155.2 2134.9 2159.2 2134.7 2163.2 2134.6 2168.5 2134.5 2174.1 2134.4 2177.9 2134.3 2182 2134.2 2185.3 2134.2 2188.2 2134.1 2193.3 2138.8 2193.3 2145 2193.3 2150.9 2193.2 2156 2193.2 2161.6 2193.2 2166.6 2193.2 2169 2193.2 2171.1 2193.2 2176.1 2193 2180.6 2192.9 2185.6 2192.8 2191.2 2192.6 2196.8 2192.4 2201.8 2192.3 2205.7 2192.2 2211.2 2192 2218.3 2192 2222.8 2192 2227.2 2192 2231.6 2192 2236.1 2192.1 2239.3 2192.1 2244.1 2192.2 2242.9 2195.2 2237.6 2198.8 2231.1 2202 2226 2206.2 2219.8 2211.5 2215.4 2216.5 2209.2 2221.5 2207.4 2225.3 2205.1 2228.3 2198.3 2232.4 2191.5 2236.2 2182.6 2237.4 2179.6 2242.1 2176.1 2245.4 2168.7 2252.1 2158.7 2266.9 2154.2 2276 2149.5 2282.8 2142.1 2294.9 2138.6 2304 2125.3 2303.4 2084.8 2302.9 2058.8 2302.9 2040.1 2302.3 2017.1 2302.6 1995.2 2302.3 1992.2 2304.1 1991.7 2320.9 1991.7 2348 1988.7 2351.5 1985.2 2351.2 1973.3 2351.2 1963.3 2351.5 1963.3 2349.3 1963.3 2348.1 1963.2 2347.3 1963.2 2346.3 1963.2 2345.2 1963.2 2343.9 1963.2 2343.1 1963.2 2342.3 1963.2 2341.6 1963.2 2340.8 1963.1 2339.2 1963.1 2337.8 1963.1 2336.2 1963.1 2335.1 1963.1 2334.1 1963.1 2333.2 1963.1 2332 1963 2330.8 1963 2329.7 1963 2328.2 1963 2326.8 1963 2326 1963.1 2325.1 1963.1 2324.1 1963.1 2323.3 1963.2 2322.4 1963.2 2321.3 1963.2 2320.3 1963.3 2319.4 1963.3 2318.7 1963.4 2317.3 1963.4 2316.3 1963.5 2314.8 1963.5 2313.7 1963.5 2313.1 1963.5 2312.5 1963.6 2311.8 1963.7 2310.6 1963.7 2309.5 1963.8 2308.7 1963.9 2307.5 1964 2306.5 1964 2305.5 1964.1 2304.4 1964.2 2303.7 1964.2 2302.9 1964.3 2302.1 1973.5 2301.4 1973.2 2274.5 1973.5 2248.4 1974.6 2221.5 1975 2184.3 1975.3 2151.2 1976.1 2133.5 1976.4 2110.3 1976.8 2102.6 1990.8 2102.2 2023 2102.2 2037.7 2103.3 2052.9 2103.6 2070.3 2103.2 2091 2102.9 2114.6 2103.2 2126.4 2102.8 Z" data-holc_grade="D"/>
<path d="M 2126.4 2102.8 2114.6 2103.2 2091 2102.9 2070.3 2103.2 2052.9 2103.6 2037.7 2103.3 2023 2102.2 1990.8 2102.2 1976.8 2102.6 1976.4 2110.3 1976.1 2133.5 1975.3 2151.2 1975 2184.3 1974.6 2221.5 1973.5 2248.4 1973.2 2274.5 1973.5 2301.4 1964.3 2302.1 1963.5 2302.4 1962.9 2302.6 1962.2 2302.9 1961.7 2303.1 1961 2303.4 1960.3 2303.7 1959.5 2304 1958.8 2304 1957.9 2304.2 1956.6 2304.3 1955.5 2304.5 1954.2 2304.7 1952.9 2304.9 1951.4 2305.1 1948.8 2305.1 1946.9 2305.2 1944.7 2305.2 1943.4 2305.2 1940.3 2305.3 1937.2 2305.3 1932.9 2305.4 1930.7 2305.4 1924.5 2305.4 1920.6 2305.4 1913.5 2305.5 1905.9 2305.5 1900 2305.5 1893.9 2305.5 1886.4 2305.5 1881.5 2305.5 1876.6 2305.5 1868.7 2305.5 1863 2305.5 1857.1 2305.3 1850.9 2305.2 1846.1 2305 1839.8 2304.9 1838.4 2304.8 1834.9 2304.7 1830.9 2304.6 1827.4 2304.5 1823.4 2304.4 1818.1 2304.3 1812.7 2304.2 1807.2 2304 1802.6 2304 1799.5 2304.1 1796.4 2304.1 1791.1 2304.1 1786.6 2304.2 1782.2 2304.2 1778.2 2304.2 1772.4 2304.3 1766.2 2304.3 1760.5 2304.3 1756 2304.4 1750.3 2304.4 1744.5 2304.3 1738.7 2304.3 1733.9 2304.3 1726.3 2304.2 1719.2 2304.1 1708.9 2304 1666.4 2304.4 1640.6 2304.4 1615.1 2303 1628.7 2292.3 1636.9 2285.6 1643.5 2278.6 1651.7 2268.3 1655.1 2262.5 1659.6 2253.5 1664.2 2241.6 1666.4 2235.6 1667.7 2228.8 1669.3 2218.3 1670.1 2210.5 1669.7 2204.4 1669.4 2198.4 1669.1 2192.9 1668.6 2185.5 1668.2 2176.1 1667.4 2165.1 1666.8 2157.9 1666.7 2153.5 1666.4 2145.4 1666.4 2139.2 1666.4 2129.2 1665.9 2123.6 1665.4 2117.8 1664.9 2112.6 1664.5 2103.5 1664.2 2097.1 1663.5 2084.9 1663.1 2077.6 1662.9 2072.5 1662.5 2065.4 1662.3 2061 1661.9 2054 1661.2 2043.4 1660.8 2031.9 1660.5 2025.7 1659.7 2015.2 1658.6 2001.4 1658.6 1994.3 1658.6 1984.5 1658 1974.1 1657.5 1967.2 1657 1957.7 1656.4 1947.3 1656.2 1942.2 1655.9 1933.4 1655.7 1925.2 1654.6 1912.7 1653.8 1903.9 1674.1 1904.2 1673 1914.9 1687.1 1915.6 1688.9 1917.1 1688.6 1941.4 1689.7 1945.5 1696.3 1945.5 1721.8 1946.6 1725.1 1949.9 1725.1 1963.1 1725.5 1980 1751.4 1980.8 1782.4 1980.8 1820.5 1981.5 1882.1 1980.7 1930.5 1980.7 1984.1 1981.1 2066.5 1982.5 2111.2 1982.8 2127.5 1982.8 2127.1 2013.4 2126.8 2046.9 2126.4 2076.3 2126.4 2102.8 Z M 1652 1853.8 1644.6 1853.6 1637.6 1853.4 1630.1 1853.6 1621.7 1853.8 1613.2 1853.8 1607.4 1853.3 1599.9 1852.7 1596.6 1850.9 1596.9 1841.3 1597.7 1823.6 1598 1800.1 1598 1785 1603.2 1785 1613.5 1785.7 1630.2 1786.1 1643.5 1786.5 1649 1788.7 1648.9 1793.8 1648.6 1803 1649.1 1807.8 1650.1 1819.2 1650.6 1825.7 1651.2 1833.9 1651.4 1837 1652 1845 1652 1853.8 Z" data-holc_grade="D"/>
<path d="M 1963.3 2349.3 1960.5 2350 1957.2 2351.2 1955.9 2353.2 1955.4 2361.8 1955.7 2373.4 1955.7 2385.6 1955.7 2399 1955.7 2408.4 1956.2 2420 1956.2 2434.6 1956.5 2446.9 1957 2458.2 1957 2471.4 1958.4 2489.3 1958.6 2495.6 1958.9 2513.6 1958.9 2526.1 1958.4 2531 1945.4 2531.7 1905.7 2532.2 1889.8 2532.2 1858.3 2532.5 1843.2 2532.2 1803.7 2532.9 1773.6 2532.2 1755.2 2532.5 1739.8 2533 1727.3 2533 1713.6 2533.2 1713.8 2549.5 1714 2568.1 1709.8 2570.9 1704.1 2573.3 1698.2 2577.1 1694.2 2579.6 1687.8 2583.2 1681.4 2586.5 1673.8 2590 1666.5 2593.3 1660.8 2595.2 1647.6 2597.1 1636.4 2596.9 1624.9 2597.1 1609.2 2596.9 1593.6 2595.9 1594.3 2584.6 1594.6 2562.9 1594.6 2539.6 1595.3 2517.3 1595.9 2498.7 1595.6 2487.5 1592.3 2486 1592.4 2475.5 1595.2 2475.7 1597.7 2475.9 1599.7 2476 1600.7 2476.1 1602 2476.2 1604.8 2476.4 1606.7 2476.4 1609.6 2476.4 1611.8 2476.4 1615 2476.4 1617.7 2476.5 1619.9 2476.5 1621.6 2476.6 1624.1 2476.6 1626.4 2476.7 1630 2476.8 1631 2476.8 1632.6 2476.8 1635.4 2476.6 1636.8 2476.6 1638.2 2476.5 1640 2476.4 1642.3 2476.3 1644.7 2476.2 1646.6 2476.1 1648.4 2476 1650.1 2476 1652.3 2476 1654.6 2476 1656.6 2476 1658.7 2476 1660.5 2476 1662.2 2476 1664.3 2476 1665.6 2476 1667.8 2476 1670.2 2476 1672.4 2475.9 1674.1 2475.9 1675.4 2475.9 1676.7 2475.9 1679.1 2475.9 1680.9 2475.9 1682.8 2475.9 1685 2475.9 1686.8 2475.9 1689.2 2475.9 1690.9 2475.9 1692.4 2475.9 1694.6 2475.9 1697.1 2475.9 1699.4 2475.8 1700.7 2475.7 1702.1 2475.7 1704.6 2475.5 1706.1 2475.4 1708.6 2475.3 1710.2 2475.2 1713 2475.1 1713.5 2488.8 1733.9 2488.8 1748.5 2489.2 1765.4 2489.2 1780.5 2488.7 1798.7 2489.2 1818.6 2489.6 1835.9 2489.6 1835.9 2477.7 1835.9 2461.8 1835.9 2444.5 1836.3 2413.6 1836.8 2391.9 1837.6 2374.7 1838.5 2361 1838.5 2349.5 1839 2336.3 1839.8 2324.3 1839.8 2318.1 1839.8 2311.1 1839.8 2304.9 1846.1 2305 1850.9 2305.2 1857.1 2305.3 1863 2305.5 1868.7 2305.5 1876.6 2305.5 1881.5 2305.5 1886.4 2305.5 1893.9 2305.5 1900 2305.5 1905.9 2305.5 1913.5 2305.5 1920.6 2305.4 1924.5 2305.4 1930.7 2305.4 1932.9 2305.4 1937.2 2305.3 1940.3 2305.3 1943.4 2305.2 1944.7 2305.2 1946.9 2305.2 1948.8 2305.1 1951.4 2305.1 1952.9 2304.9 1954.2 2304.7 1955.5 2304.5 1956.6 2304.3 1957.9 2304.2 1958.8 2304 1959.5 2304 1960.3 2303.7 1961 2303.4 1961.7 2303.1 1962.2 2302.9 1962.9 2302.6 1963.5 2302.4 1964.3 2302.1 1964.2 2302.9 1964.2 2303.7 1964.1 2304.4 1964 2305.5 1964 2306.5 1963.9 2307.5 1963.8 2308.7 1963.7 2309.5 1963.7 2310.6 1963.6 2311.8 1963.5 2312.5 1963.5 2313.1 1963.5 2313.7 1963.5 2314.8 1963.4 2316.3 1963.4 2317.3 1963.3 2318.7 1963.3 2319.4 1963.2 2320.3 1963.2 2321.3 1963.2 2322.4 1963.1 2323.3 1963.1 2324.1 1963.1 2325.1 1963 2326 1963 2326.8 1963 2328.2 1963 2329.7 1963 2330.8 1963.1 2332 1963.1 2333.2 1963.1 2334.1 1963.1 2335.1 1963.1 2336.2 1963.1 2337.8 1963.1 2339.2 1963.2 2340.8 1963.2 2341.6 1963.2 2342.3 1963.2 2343.1 1963.2 2343.9 1963.2 2345.2 1963.2 2346.3 1963.2 2347.3 1963.3 2348.1 1963.3 2349.3 Z" data-holc_grade="D"/>
<path d="M 1472.8 2495.5 1472.7 2490 1473 2486.2 1473.3 2483.5 1473 2480.9 1472.7 2477.3 1472.6 2474.5 1472.4 2471.8 1472.3 2469.7 1472.2 2468.3 1472.1 2466.1 1472.1 2463.5 1472.1 2461.9 1472.1 2460.8 1472.1 2459.8 1472.1 2457 1473.6 2452.9 1482.5 2451.7 1492.5 2451.1 1501.7 2450.2 1510.3 2449.6 1517.9 2449.6 1531.3 2448.5 1539.8 2448.5 1553.7 2448.2 1560.8 2447.6 1567 2447.9 1572.9 2447.6 1578.9 2447.3 1584.8 2447.3 1592.1 2447.3 1592.1 2448.8 1592.3 2451.8 1592.4 2456.1 1592.4 2460.5 1592.4 2463.2 1592.4 2467 1592.4 2471.4 1592.4 2475.5 1592.3 2486 1595.6 2487.5 1595.9 2498.7 1595.3 2517.3 1594.6 2539.6 1594.6 2562.9 1594.3 2584.6 1593.6 2595.9 1584.2 2596.8 1576.6 2597.5 1568.9 2597.8 1559 2597.8 1549.8 2597.7 1535 2597.1 1524.4 2596.8 1518.7 2595.4 1513.2 2592.4 1507.7 2590.1 1499.7 2586.2 1492.3 2579.8 1483.6 2571.7 1480 2568.3 1475.4 2561.4 1472.2 2555.1 1469.7 2548.2 1468 2542.7 1467.8 2536 1467.8 2526.2 1469.4 2516 1471.3 2507.9 1472.8 2501.7 1472.8 2495.5 Z M 1589.7 2498 1589.7 2493.9 1589.5 2489.3 1587.6 2488.8 1581.7 2488.8 1581.5 2492.7 1580.3 2494.1 1575.5 2494.2 1570.3 2494.4 1570 2497.1 1569.1 2499.9 1566.4 2500.3 1560.2 2500.1 1556 2499.7 1549.4 2499.4 1544.1 2499.2 1540.5 2499.5 1540.4 2511.6 1539.8 2518.8 1539.7 2525 1539.1 2531.7 1541.1 2533 1544.1 2534 1547.5 2534.4 1552.2 2534.7 1557 2534.9 1561.1 2534.2 1565.2 2534 1568.8 2533 1572.5 2532.3 1576.2 2531.4 1581.5 2530.3 1585.6 2530.8 1588.4 2531.2 1589.9 2530.5 1589.5 2522.5 1589.3 2516.9 1589.5 2509.8 1589.9 2504.7 1589.7 2498 Z" data-holc_grade="D"/>
<path d="M 1285.6 2715.6 1256.5 2715.6 1229.6 2715.6 1223.6 2715.6 1193.8 2715.6 1155 2715.1 1134 2714.7 1112.3 2713 1092.8 2712.4 1071.3 2711.8 1067.9 2711.8 1031.5 2711.2 1015 2710.6 988.9 2709.4 977.4 2709.6 976.7 2686.6 976.2 2673.5 976.2 2658 967.7 2657.9 951.7 2657.8 933.8 2657.7 920.7 2657.2 920.7 2647.4 919.8 2632.3 919.9 2621 919.8 2603.8 919.8 2588.7 920.5 2580.3 923.3 2581 932.8 2581.5 955.3 2581 975.4 2580.3 978.4 2582.4 982.9 2582.9 994.1 2582.9 1019.1 2582.4 1050.4 2582.2 1078 2582 1096.5 2582.7 1111.4 2582.7 1126.1 2582.7 1137 2583.7 1137.4 2594.5 1145.9 2595.5 1159.4 2596.4 1177.2 2595.7 1188.3 2595.5 1204.8 2595.9 1225.9 2595.2 1244.1 2594.5 1256.4 2594.8 1256.3 2615.8 1256 2631.7 1255.7 2652.1 1280.9 2651.9 1285 2653.8 1285 2668.1 1285.1 2695.2 1285.6 2715.6 Z" data-holc_grade="D"/>
<path d="M 727.9 2844 664.9 2842.6 604.6 2843.2 606.1 2721.3 852.4 2720.8 851.3 2780.4 802.1 2781.7 801.6 2837.4 728.4 2839.1 727.9 2844 Z M 603.6 2721.3 474 2721.7 474.9 2652.8 609.8 2655.2 765 2656.2 851.5 2656.7 851.5 2675.2 722.9 2674.3 722.4 2699 646.1 2696.7 603.5 2694.5 603.6 2721.3 Z" data-holc_grade="D"/>
<path d="M 1485.2 1164.3 1485.2 1181.9 1485.2 1223.1 1485.2 1252.5 1482.9 1300.8 1482.9 1337.3 1481.7 1385.6 1481.7 1433.8 1480.6 1470.3 1480.5 1472.7 1474.6 1472.4 1429.7 1470.3 1416 1470.3 1370.6 1470.3 1317.4 1471.5 1293.8 1471.5 1293.8 1442.1 1295 1398.5 1277.3 1397.3 1234.3 1396 1237.1 1219.5 1354.1 1219.6 1382.5 1219.6 1383.6 1190.1 1384.8 1160.7 1413.2 1160.7 1451 1161.9 1485.2 1164.3 Z" data-holc_grade="D"/>
<path d="M 844.7 3445.4 914.8 3445.9 916.1 3485.7 848.2 3484.3 848.2 3549.4 722.5 3548.4 723.5 3474.1 844.2 3472.8 844.7 3445.4 Z" data-holc_grade="D"/>
<path d="M 2688.6 3902.1 2689.7 3976.6 2734.5 3977.3 2776.5 4063.9 2690.2 4064 2689 3979.6 2662.4 3977.8 2671.6 3935.7 2600.9 3937.3 2601.2 3901.9 2688.6 3902.1 Z M 2687.2 3714.1 2687.7 3816.2 2560.4 3816 2560 3810.8 2562.1 3708.3 2687.2 3708.2 2687.2 3714.1 Z" data-holc_grade="D"/>
<path d="M 2803.2 4862.7 2795 4804.8 2911.7 4806.8 2908.9 4905.8 2812.5 4905.2 2803.2 4862.7 Z" data-holc_grade="D"/>
</g>
</svg>