<?xml version="1.0"?>
<svg xmlns="http://www.w3.org/2000/svg" version="1.2" baseProfile="tiny" width="3000" height="5041" viewBox="0 0 3000 5041" stroke-linecap="round" stroke-linejoin="round">
<g id="A">
<path d="M 1800.3 4328.9 1800.3 4329.8 1775 4343 1755.5 4355.9 1743.7 4373.1 1745.6 4437 1745.7 4440.1 1728.2 4439.8 1725.6 4588.3 1757.4 4589.1 1762.8 4446.8 1769.2 4440.5 1769.1 4437.7 1768.4 4379.7 1798.6 4380.4 1799.4 4440.3 1828.7 4441.5 1826.7 4555.1 1844.3 4555.1 1845.4 4564.9 1807.2 4584.3 1792.9 4611.6 1772.5 4655.8 1760 4680.9 1756.1 4714.6 1763.6 4740.7 1773.9 4757.5 1794 4765.8 1821 4779.9 1841.2 4792.5 1847.5 4814 1846.4 4814 1846.4 4814.5 1811.3 4807.9 1794.2 4839.9 1767.6 4887.7 1785 4908.8 1506.2 4908.8 1509.2 4672.7 1407.8 4672.7 1403.3 4701.3 1397.5 4701.1 1393 4437.4 1362.7 4439.5 1360.4 4439.7 1367.9 4271 1381.8 4269.7 1383.6 4153.4 1398 4154.7 1399.3 4040.3 1399.3 4039.9 1399.3 4039 1399.3 4038 1400 4038 1457.6 4038 1452.2 4324.4 1540.1 4326.1 1540.6 4269.8 1627.1 4270 1629.1 4325.6 1686.3 4327 1687.7 4268 1798.8 4268.3 1800.3 4328.9 Z M 1872 4311.9 1871.8 4207.3 1858.7 4209.9 1856.9 4174.1 1871 4174.1 1872 4039.3 1886.3 4040.6 1884 4089.7 1902.5 4090.2 1902 4014 1971 4014.2 1969.8 4039.1 1918.8 4040.4 1916.9 4098 1889.9 4097.9 1889.7 4312.9 1872 4311.9 Z" data-holc_grade="A"/>
<path d="M 432 2603.3 428.6 2619.4 411.2 2624 387.2 2633.1 380.1 2633.6 366.8 2615.8 361.2 2632.6 344.9 2641.2 319.9 2651.4 310.2 2647.8 295.9 2666.1 279.6 2664.6 256.6 2657.9 243.9 2663.5 242.8 2675.2 130.6 2715.7 124 2718.1 121.9 2718.9 126 2702.1 132.6 2688.4 152.5 2671.1 160.7 2649.2 168.4 2629.9 196.4 2624.3 237.2 2620.8 261.7 2620.3 265.3 2616.3 302.6 2607.6 321.9 2600.5 324 2599.9 323.5 2602.1 432 2603.3 Z" data-holc_grade="A"/>
<path d="M 355.2 1913.9 355.3 1915 357 1935.2 448.3 1937.3 446.9 1914.4 446.9 1913.3 446.8 1912.3 475.2 1911.9 475.2 1912.7 475.2 1913.5 475.2 1914.6 477.8 1914.6 475.8 1968.8 458.5 1974.9 460 2025.7 400.3 2030.7 331.5 1994.6 329.5 2028.2 301.4 2028.6 301.4 2087.2 301.4 2088.6 299.7 2088.6 271.3 2087.6 268.1 1912.7 290.8 1912.8 301 1912.8 301 1910.6 301.1 1909.4 355 1912.3 355.2 1913.9 Z" data-holc_grade="A"/>
<path d="M 300.9 1590.6 299.8 1622.8 297.2 1622.8 296.1 1622.8 288.9 1622.9 249 1623.6 245.9 1623.7 249.7 1304.4 278.5 1303.5 279.3 1329.3 303.9 1331.8 300.9 1506.6 299.5 1590.6 300.4 1590.6 300.9 1590.6 Z" data-holc_grade="A"/>
<path d="M 243.6 759.9 239.5 759.9 233.6 502.9 241.8 503 293.2 503 295.1 759 243.6 759.9 Z" data-holc_grade="A"/>
<path d="M 2114.9 891 2115 886.2 2137.4 895.9 2155.8 909.6 2176.1 929.4 2261.3 934.4 2265.9 987.8 2286.3 987.2 2248.6 1046.7 2114 1043.2 2114.9 891 Z" data-holc_grade="A"/>
<path d="M 811 3927 868.5 3929.2 868.5 4042.8 925 4041.5 927.2 4155.5 1156.5 4154.7 1159.8 4326.1 1248.8 4325.6 1250.3 4386 1305.9 4383.3 1306.8 4441.9 1274.5 4443.2 1275 4495.5 1297.9 4488.8 1319.8 4481.2 1335.6 4466.9 1341.8 4454.8 1341.8 4441 1360.4 4439.7 1362.7 4439.5 1393 4437.4 1397.5 4701.1 1397.5 4702.6 1380.6 4713.8 1376.4 4732 1370.1 4738.3 1344.9 4741.1 1331.5 4746.7 1321.2 4767.1 1314.9 4787.2 1312.6 4812.2 1314.4 4863.2 1318 4912.5 1184.2 4909.9 1184.4 4909.9 1184.1 4851.2 1184.7 4814.5 1184.1 4769 1184.7 4673.4 1156.9 4676.8 1154.3 4648.2 1128.1 4669.6 1126.4 4793.9 1076.1 4793.6 1078.4 4701.1 1011.5 4674.8 989.7 4675.9 986.4 4628.7 959.6 4630 960.6 4606 943.3 4598.4 924.8 4594.9 926.2 4677.4 723.5 4680.1 723.5 4682.9 462.5 4681.5 462.5 4675.4 265.5 4672.2 262.8 4613.4 290.8 4613.5 293 4497.4 320.3 4499.6 319.1 4386.5 260.8 4385.3 264 4153.4 316.5 4155.7 314.8 4096.7 329.6 4062.2 366.4 4070.7 377.2 4055.1 401.4 4062.7 404.1 4057.4 403.6 4056.8 403.8 4056.6 409.8 4051.9 447.1 3964.6 448.7 3965 465.5 3969.5 482.7 3956.1 512.6 3941.5 550.5 3930.6 581.5 3936.9 606.2 3940.7 632.6 3949.3 657.6 3958.7 687.5 3972.5 704.1 3989.1 718.2 4009.7 721.3 4032.6 721.6 4040.9 732.3 4038.3 741.2 4025.7 745.2 4001.1 749.8 3985.7 759.3 3981.4 784.3 3984.5 806.9 3984.8 810.2 3927 811 3927 Z M 568.6 4328.9 601.8 4317.7 635.9 4297.2 649.9 4287.4 663.8 4263 685.4 4224.1 699.2 4186 721.3 4128.2 727.3 4102.7 722.2 4053.5 715.9 4029.4 706.1 4001.1 695.2 3985.4 684.9 3974.5 654.2 3962.2 625.8 3952.1 600.2 3942.4 570.1 3937.8 544.8 3934.4 514.9 3943.5 484.2 3960.1 467.2 3972.1 456 3986.1 443.4 4019.9 429.7 4050.2 419.8 4085.1 401.3 4122.6 388.3 4149 374.8 4169.1 369.4 4191.1 362.3 4210.3 360 4217.9 354.2 4232.2 355.5 4256.8 361.3 4273.3 383.7 4291.2 402.6 4304.7 435.3 4318.1 460 4328.4 483.3 4332 510.7 4333.4 541.7 4333.8 568.6 4328.9 Z" data-holc_grade="A"/>
<path d="M 266.1 3721.2 263.7 3750.4 368.2 3754.2 366.5 3799.3 373.6 3800.1 378.4 3794.5 394.8 3779.9 407.9 3772.6 423 3763.7 423.3 3764.1 428 3771 418.2 3775.1 409.2 3785.7 400.2 3794.9 385.9 3810.8 381 3826.4 383.6 3840.4 399.6 3858 410.4 3859.3 425.1 3853.5 435.5 3848.9 442.1 3838.9 448.3 3829.4 459.1 3840.2 455.1 3846 450.9 3871.7 449.2 3884.8 453.1 3910.8 445 3926.8 445 3942.7 448.7 3965 447.1 3964.6 409.8 4051.9 403.8 4056.6 403.6 4056.8 399.5 4052.6 374.5 4026.9 342.6 4009.5 356.1 3981.3 298.7 3982.2 295.5 4050.1 230.9 4038 232.2 4091.2 173 4090.3 174.9 3921.6 117.2 3920.9 116.2 3861.3 7 3862.5 4.2 3744.1 142.6 3746.2 143.7 3644 139.6 3630.5 171.8 3629.9 164.3 3607.4 166.6 3581 174.5 3560.1 181.3 3542.7 156.1 3540.1 157.4 3519.6 168.9 3518 159.1 3508.5 146.7 3490.6 141.1 3473.7 141.8 3455.1 143.1 3434.6 153.6 3419.7 168.6 3403.9 209.9 3408.1 205.2 3423.9 194.7 3463.3 190.4 3496.8 192 3521.6 192.7 3538.9 198 3556 207.8 3579.7 212.6 3596.8 210.9 3610.4 205.2 3624.5 200.4 3641.4 191.8 3657.7 188.3 3671.6 194.5 3690.6 204.7 3707.5 218.3 3716.2 233.4 3721.2 253.7 3722.3 266.2 3720.4 266.1 3721.2 Z" data-holc_grade="A"/>
<path d="M 653.6 3636.3 653.6 3637.7 578.7 3634.5 578.1 3619.8 577.4 3606.5 580.4 3590.2 582.7 3575.5 590.5 3560.9 591.1 3551.6 594.1 3552.8 612.3 3556.1 615.3 3520.2 652.8 3522.4 651.3 3636.5 653.6 3636.3 Z" data-holc_grade="A"/>
<path d="M 2352.8 4311.2 2230.9 4311.1 2230 4283.8 2200.3 4282.1 2200.4 4495 2173 4495.4 2172.6 4553.1 2148.8 4553.1 2143 4609.5 2143.1 4727.6 2056.9 4721.8 2048.3 4726.7 2039.8 4755.8 2018.7 4784 1990.5 4783.1 1968.5 4798.8 1947.4 4809.5 1923.6 4812.2 1889.5 4814.5 1854.5 4814.1 1855.1 4796.2 1900.3 4796.4 1924.6 4792.8 1950.5 4787 1975.5 4777.2 2006.9 4765.6 2010.5 4748.2 2026.1 4722.7 2046.8 4683.2 2060.5 4657 2099.3 4603 2115.2 4580.2 2118.7 4559.7 2112.3 4555.3 2110.5 4531.6 2155.4 4450.5 2173.4 4439.2 2173.6 4407.5 2173.1 4264.2 2198.4 4263.7 2196.3 4099.3 2171.9 4099.3 2173 4037.9 2173.1 4036.3 2218 4035.5 2216.8 4097.4 2203.6 4098.2 2205.2 4249.2 2223.3 4264.8 2243.7 4268 2263.8 4259.2 2282.6 4234 2295.8 4222.4 2314.7 4223.2 2340.7 4230.4 2344.4 4239.6 2349.6 4252.4 2352.8 4258.8 2344.8 4265.6 2346 4272.8 2353.6 4281.9 2351.6 4304.7 2352.8 4311.2 Z" data-holc_grade="A"/>
<path d="M 2785.9 3627.8 2782.5 3630.8 2755.9 3629.3 2759.9 3398.3 2788.8 3398.2 2846.6 3397.8 2850.7 3425.2 2851.3 3447.1 2845.1 3466.4 2836 3487.3 2828.3 3508.2 2827.8 3523.4 2834 3547.3 2837.1 3567.7 2833.5 3590.1 2825.9 3606.3 2810 3611.9 2794.7 3620.1 2785.9 3627.8 Z" data-holc_grade="A"/>
<path d="M 2760 3253.1 2612.7 3120.9 2631.3 3100.7 2632.7 3099.2 2642.2 3117.6 2676.6 3149.8 2708.6 3176.6 2736.1 3190.9 2760.5 3208 2758.2 3215.1 2760.8 3253.7 2760 3253.1 Z M 2604.4 3078.6 2602.3 3080.6 2565.8 3041 2486.8 2966.4 2343.3 2830.7 2344.1 2830.7 2389 2827.1 2407 2844.3 2430.7 2873 2500.8 2947.2 2537.3 2992.3 2567 3020.7 2594.6 3038.6 2622.7 3061.8 2604.4 3078.6 Z M 2530.3 2798 2661.2 2932.4 2662.3 2933.6 2644.1 2950.4 2492 2797.9 2530.2 2797.9 2530.3 2798 Z" data-holc_grade="A"/>
<path d="M 93 3131.5 92.4 3239.6 12.3 3239 10.8 3239 10.3 3120 93 3130.2 93 3131.5 Z" data-holc_grade="A"/>
<path d="M 553.3 2921.6 558.4 2942 551.4 2967.5 539.8 2984.8 531.7 3005.1 519.5 3015.5 510.2 2998.7 500.9 2978.5 471.9 2927.5 456.8 2934.5 440.6 2944.3 423.1 2983.6 401.1 2986.5 386.5 2991.1 377.2 3018.3 383.6 3048.4 383.6 3087.2 377.2 3097.6 387 3127.1 388.2 3169.3 426.5 3180.3 267.1 3181.9 262.9 3166.4 266.5 3145.1 260.9 3137.5 247.6 3128.3 237.4 3125.7 232.4 3125.3 284.3 3056.4 286.6 3056.7 307 3059.3 326.7 3035.1 345.3 3006.7 346.5 2991.1 362.2 2971.4 367.4 2947.7 398.2 2943.7 411.5 2914.2 429 2903.2 458 2917.1 506.2 2922.9 553.2 2921.2 553.3 2921.6 Z M 926.7 2691.5 925.8 2694.6 918.7 2717.1 917.5 2720.7 615.5 2714.7 617.9 2778.4 672.9 2778.5 674 2828.8 663.1 2893.2 662.7 3052.8 633.1 3155.2 630.8 3154.5 602 3144.9 611.4 3108.7 628.1 3079.8 623.7 3064.7 599.9 3050.2 581 3033.2 576.5 3013.9 591 2982.1 603 2961.7 617 2934.2 628.9 2901.7 629.9 2895.3 618 2876.1 600.2 2855 581.7 2814.5 580 2798.9 579.3 2713.6 553.7 2712.4 553.7 2711.5 553.2 2669.9 578.4 2661.4 681.4 2666.9 679.9 2653.4 670.4 2643.9 673.1 2635.4 710.4 2644.7 740.3 2642.8 760.6 2634.8 779.3 2614.1 789.8 2615.3 804.1 2616.3 842.2 2617.4 863.7 2617.2 873.5 2622 878 2640.4 879.4 2662.1 891.9 2677.3 909.7 2693 926.7 2691.5 Z" data-holc_grade="A"/>
</g>
<g id="B">
<path d="M 1606.8 598.3 1636.2 585.8 1680.9 567.7 1708.7 566.1 1716.8 561.1 1728.9 561.1 1750.2 555.9 1781.5 558.2 1793.4 560.7 1825.8 561.1 1826.2 584.2 1817.8 584.6 1793.6 600.8 1773.4 603.9 1754.2 602.5 1733.9 602.5 1721.4 608.3 1705.3 615.4 1693.4 627.4 1685.9 637.8 1656.9 634.9 1629.8 640.3 1606.8 598.3 Z" data-holc_grade="B"/>
<path d="M 1071.6 2673.8 1071.5 2678.3 1097.9 2677.5 1098.6 2721.2 1130.6 2720.1 1130.8 2789.5 1101.2 2789.5 1100 2834 1158.7 2833.5 1159.2 3065.5 1088.4 3064.9 1089.5 3121 960.7 3119.6 960.3 3181.1 929.1 3181.1 937 2836.3 919.5 2836.3 921 2753.7 907.9 2753 907.3 2753 917.5 2720.7 918.7 2717.1 925.8 2694.6 926.7 2691.5 944.2 2636.3 944.9 2636.3 970.5 2637.2 976.4 2648.1 1002.8 2659 1036.8 2669.2 1071.6 2673.8 Z" data-holc_grade="B"/>
<path d="M 179.1 3140.7 190 3166.1 170.1 3182.1 146.2 3234.4 113.2 3267.6 112.2 3277.7 102.1 3283.9 96.5 3299.2 11.8 3297.5 11.3 3297.5 12.3 3239 92.4 3239.6 93 3131.5 107.1 3132.2 137.8 3140.4 162.9 3142 178.9 3140.4 179.1 3140.7 Z" data-holc_grade="B"/>
<path d="M 209.9 3408.1 168.6 3403.9 139.8 3400.9 153.9 3376.4 165.3 3361.9 176.4 3345.7 187.8 3333.7 195.8 3323.9 206.1 3318.1 238.3 3303.3 259 3290.6 257 3290.7 291.8 3282.4 286.3 3303.2 272.5 3319.2 257.5 3342.6 241.8 3356.6 233.6 3371.5 220.6 3386.2 211.7 3408.3 209.9 3408.1 Z" data-holc_grade="B"/>
<path d="M 1120.8 3410.7 1160.5 3408.5 1159 3348.5 1304.2 3348.9 1306.2 3348.9 1306.6 3579.4 1279.9 3578.2 1278.1 3810.3 1291.5 3809.7 1293.2 3922.2 1290.2 3922.2 1250.7 3922.2 1252.7 4153.7 1309 4155.6 1307.1 4267 1365.3 4270.2 1368.5 4044.2 1372.3 4038.9 1399.3 4040.3 1398 4154.7 1383.6 4153.4 1381.8 4269.7 1367.9 4271 1360.4 4439.7 1341.8 4441 1341.8 4454.8 1335.6 4466.9 1319.8 4481.2 1297.9 4488.8 1275 4495.5 1274.5 4443.2 1306.8 4441.9 1305.9 4383.3 1250.3 4386 1248.8 4325.6 1159.8 4326.1 1156.5 4154.7 927.2 4155.5 925 4041.5 868.5 4042.8 868.5 3929.2 811 3927 811.4 3865.4 870 3866.6 872.8 3749.2 813.3 3747.3 813 3637.7 711.4 3636.9 713.4 3520.6 694.1 3520.9 693.4 3576.2 672.5 3575.6 670.6 3635.3 653.6 3636.3 651.3 3636.5 652.8 3522.4 615.3 3520.2 612.3 3556.1 594.1 3552.8 591.1 3551.6 581.1 3547.6 584.1 3487.9 568.1 3429.4 546.6 3385.3 542.5 3366.2 532.1 3328 526.9 3297.9 525.1 3279.4 536.2 3265.5 543.7 3243.5 543.7 3225.5 530.4 3203.5 543.2 3196.7 567.9 3180.6 594.6 3153.4 600.5 3144.4 602 3144.9 630.8 3154.5 633.1 3155.2 661.4 3164.6 661.7 3164.8 700.4 3177.6 698.7 3245.4 697.5 3294.3 756.3 3294.4 1050.2 3294.8 1051.6 3411.4 1119.6 3410.7 1120.8 3410.7 Z M 904.7 3348.5 962.1 3350.8 961 3327.2 903.8 3328 903.5 3348.5 904.7 3348.5 Z M 1124.9 3823.8 1125.1 3864.5 1161.2 3864.5 1159 3808.6 1124.8 3809.7 1124.9 3823.8 Z" data-holc_grade="B"/>
<path d="M 403.6 4056.8 404.1 4057.4 401.4 4062.7 377.2 4055.1 366.4 4070.7 329.6 4062.2 314.8 4096.7 316.5 4155.7 264 4153.4 260.8 4385.3 319.1 4386.5 320.3 4499.6 293 4497.4 290.8 4613.5 262.8 4613.4 265.5 4672.2 462.5 4675.4 462.5 4681.5 461 4794.2 232.3 4796.1 233 4674.4 1 4670.5 2.9 4149.2 5.1 4149.2 231.5 4151.5 230.9 4095.6 143.5 4095.2 86.4 4108.4 87.2 4093.2 5.2 4085.4 2.5 4085.1 4.4 3862.6 7 3862.5 116.2 3861.3 117.2 3920.9 174.9 3921.6 173 4090.3 232.2 4091.2 230.9 4038 295.5 4050.1 298.7 3982.2 356.1 3981.3 342.6 4009.5 374.5 4026.9 399.5 4052.6 403.6 4056.8 Z M 423.3 3764.1 423 3763.7 407.9 3772.6 394.8 3779.9 378.4 3794.5 373.6 3800.1 366.5 3799.3 368.2 3754.2 263.7 3750.4 266.1 3721.2 274.9 3717.6 299.7 3719.3 334.3 3719.3 351.3 3729.1 367 3739.2 385.6 3745.4 425.5 3750.6 425.5 3760.4 423.3 3764.1 Z" data-holc_grade="B"/>
<path d="M 1184.2 4909.9 1153.5 4912 1153.4 4943.5 1154.2 4988.3 1145.6 5019.2 1050.8 5017.8 1051.1 5039.6 926.6 5036.7 926.7 4967.6 923.8 4907.8 755 4912.2 753.6 4793.3 722.7 4791.9 723.5 4682.9 723.5 4680.1 926.2 4677.4 924.8 4594.9 943.3 4598.4 960.6 4606 959.6 4630 986.4 4628.7 989.7 4675.9 1011.5 4674.8 1078.4 4701.1 1076.1 4793.6 1126.4 4793.9 1128.1 4669.6 1154.3 4648.2 1156.9 4676.8 1184.7 4673.4 1184.1 4769 1184.7 4814.5 1184.1 4851.2 1184.4 4909.9 1184.2 4909.9 Z" data-holc_grade="B"/>
<path d="M 2427.4 4038.1 2427.6 4038.6 2445.7 4076.9 2465.3 4115.3 2486.4 4150.9 2503.2 4192.2 2514 4211.7 2540 4250.6 2582.9 4311.4 2352.8 4311.2 2351.6 4304.7 2353.6 4281.9 2346 4272.8 2344.8 4265.6 2352.8 4258.8 2349.6 4252.4 2344.4 4239.6 2340.7 4230.4 2314.7 4223.2 2295.8 4222.4 2282.6 4234 2263.8 4259.2 2243.7 4268 2223.3 4264.8 2205.2 4249.2 2203.6 4098.2 2216.8 4097.4 2218 4035.5 2173.1 4036.3 2173 4037.9 1969.7 4040.8 1969.8 4039.1 1971 4014.2 1902 4014 1902.5 4090.2 1884 4089.7 1886.3 4040.6 1872 4039.3 1871 4174.1 1856.9 4174.1 1858.7 4209.9 1871.8 4207.3 1872 4311.9 1872 4312.4 1848.9 4314.5 1828.7 4318.6 1800.3 4328.9 1798.8 4268.3 1687.7 4268 1686.3 4327 1629.1 4325.6 1627.1 4270 1540.6 4269.8 1540.1 4326.1 1452.2 4324.4 1457.6 4038 1400 4038 1397.1 3320.6 1395.4 3320.5 1395.4 3319.6 1799.3 3321.4 1801.8 3350.1 1854.3 3350.1 2048.7 3349.7 2050.5 3407.1 2089.2 3407.4 2090 3408.7 2092.4 3464 2118.3 3464.8 2120.3 3515.6 2149.3 3516.9 2148.8 3572.9 2177.1 3573.4 2177.5 3630.9 2203.4 3631.3 2207.4 3689.8 2232.7 3687.9 2233.7 3746.9 2261.4 3746.7 2261.1 3804.4 2291.1 3805.1 2290.7 3864.2 2322.5 3865 2323 3923 2353.9 3923.7 2354 3931.3 2355.3 3977.2 2385 3981 2384.6 4035 2427.4 4038.1 Z M 1614.6 3572.2 1711.8 3572.9 1708.7 3498 1680.8 3499.1 1682.3 3383.5 1586.6 3383.3 1586.6 3384.5 1574.1 3384.8 1574.8 3544.6 1613.8 3544.8 1614.6 3572.2 Z M 1515.6 4206.8 1680.6 4207.6 1682.4 4097.1 1517.1 4098.1 1515.6 4206.8 Z" data-holc_grade="B"/>
<path d="M 1769.1 4437.7 1769.2 4440.5 1762.8 4446.8 1757.4 4589.1 1725.6 4588.3 1728.2 4439.8 1745.7 4440.1 1745.6 4437 1769.1 4437.7 Z" data-holc_grade="B"/>
<path d="M 2352.8 4311.2 2582.9 4311.4 2583.5 4311.4 2585.8 4311.4 2604.7 4330.2 2626.3 4358.3 2646.9 4383.4 2667.6 4407.5 2698.6 4441 2741.7 4488 2782.1 4537.6 2811.3 4556.8 2835.9 4581.9 2866 4601.5 2891.3 4618.2 2920.1 4633.6 2947.5 4665.5 2948.8 4667.1 2762.2 4670.9 2762.3 4665.8 2202.9 4669.9 2197.1 4901.5 1847.7 4906.6 1846.4 4814.5 1846.4 4814 1847.5 4814 1854.5 4814.1 1889.5 4814.5 1923.6 4812.2 1947.4 4809.5 1968.5 4798.8 1990.5 4783.1 2018.7 4784 2039.8 4755.8 2048.3 4726.7 2056.9 4721.8 2143.1 4727.6 2143 4609.5 2148.8 4553.1 2172.6 4553.1 2173 4495.4 2200.4 4495 2200.3 4282.1 2230 4283.8 2230.9 4311.1 2352.8 4311.2 Z" data-holc_grade="B"/>
<path d="M 2785.9 3627.8 2791.2 3628.4 2842.8 3691.8 2851.5 3743.2 2847.4 3770.6 2768.3 3773.2 2763.4 4091.2 2802.7 4092.2 2815.5 4102.9 2826.2 4132.9 2827.8 4155.8 2816.6 4193.5 2654.3 4264.3 2652.7 4264.7 2644.9 4248.5 2646.9 4147.5 2616.7 4147.8 2616.4 4094.5 2585.1 4094 2587.1 4033.6 2555.8 4032.7 2556.9 3975.8 2528.5 3975.8 2528.4 3921.1 2500.9 3918.3 2498.8 3864.2 2471 3861.9 2469.9 3803.1 2442.9 3803.9 2442 3749.9 2413.5 3749.8 2411.7 3696 2381.3 3696.9 2379.6 3632.8 2346 3632.5 2343.6 3573.3 2317.5 3572.1 2318.9 3517.5 2286.8 3516.6 2289.6 3457.4 2256.2 3458.2 2252.3 3458.3 2252.2 3450.5 2250.7 3340.4 2786.5 3340.5 2788.8 3397.9 2788.8 3398.2 2759.9 3398.3 2755.9 3629.3 2782.5 3630.8 2785.9 3627.8 Z" data-holc_grade="B"/>
<path d="M 2332 1215.5 2329.9 1215.5 2331.9 1389.8 2331.9 1391.3 2114.5 1392 2116.4 1454.2 2087.8 1454.2 2087.5 1220.2 1971.3 1222.5 1970.6 873.3 1911.6 873 1919.3 697.8 1940.2 698.4 1940.2 644 1940.2 642.2 2116.4 638.9 2114.9 753.1 2320.8 759.7 2319.4 1038.8 2334 1039 2332 1215.5 Z M 2114.9 891 2114 1043.2 2248.6 1046.7 2286.3 987.2 2265.9 987.8 2261.3 934.4 2176.1 929.4 2155.8 909.6 2137.4 895.9 2115 886.2 2114.9 891 Z" data-holc_grade="B"/>
<path d="M 2180.9 2710.4 2182.4 2710.4 2182.2 2750.8 2258.1 2752.1 2296.3 2778.1 2329.2 2816.7 2344.1 2830.7 2343.3 2830.7 2486.8 2966.4 2565.8 3041 2602.3 3080.6 2604.4 3078.6 2631.3 3100.7 2612.7 3120.9 2760 3253.1 2760 3263.6 2254.5 3262 2254.5 3210 2441.1 3209.3 2442.2 3233.6 2500.9 3234.3 2500 3181.1 2476.2 3180.2 2475.3 3138 2493.1 3137.7 2514.8 3133.3 2531.7 3123.2 2528.6 3061.8 2388.9 3061 2388.2 2944.7 2291.3 2943.4 2290.8 2888.5 2273.4 2887.1 2274.2 2830.8 2259 2833.5 2059.8 2710.2 2180.9 2711.1 2180.9 2710.4 Z" data-holc_grade="B"/>
<path d="M 2661.2 2932.4 2530.3 2798 2550.4 2796.1 2675.7 2921.3 2661.2 2932.4 Z M 2726.8 2913.8 2726.8 2915.1 2702.1 2907.5 2653.6 2876.7 2625.3 2852.1 2638.3 2836.4 2586.3 2777 2558.9 2775.3 2517.2 2733.3 2519.4 2696.6 2513.1 2683.2 2509.1 2661.8 2513.1 2647.9 2518.5 2633.2 2539.1 2625.6 2548.5 2612.2 2549 2598.8 2541.3 2584 2526.9 2571.8 2526.1 2571.1 2538.6 2547.4 2717.1 2649.6 2721 2656 2721.1 2656.8 2721.5 2659.1 2724.5 2677.7 2721.7 2696.5 2725.2 2718.2 2735 2738.4 2733 2753.1 2727.4 2773.3 2726.8 2913.8 Z" data-holc_grade="B"/>
<path d="M 2353.3 2664 2353.3 2664.8 2352.1 2663.9 2353.3 2664 Z M 2347.3 2660.2 2331.9 2648.5 2271.6 2608.4 2230.8 2590.6 2209.4 2574.8 2209.9 2502.9 2319.8 2504 2320.1 2521.3 2348 2522.9 2347.3 2660.2 Z" data-holc_grade="B"/>
<path d="M 573.8 407.3 684.7 440.9 685 473.7 714.7 474.4 715 484.4 737.5 486.1 756.1 507.2 756.4 507.5 756.4 508.7 757.7 577.1 642.2 581.3 643.8 644.3 622.5 644.2 475.9 643.6 476 817.5 474.4 817.5 441.8 817.5 441.3 931.2 587.5 931.8 586.6 872.3 586.5 870.9 619.7 871.4 618.1 989.2 705.7 989.8 701.2 871.9 819.4 869.4 820.9 1109.2 444.7 1102.4 446.7 1453 334.1 1449.8 333.4 1562.6 357.9 1562.3 357.9 1591.6 300.9 1590.6 300.4 1590.6 299.5 1590.6 300.9 1506.6 303.9 1331.8 279.3 1329.3 278.5 1303.5 249.7 1304.4 248.6 1304.5 243.6 759.9 295.1 759 293.2 503 241.8 503 243.5 492.9 249.6 480.6 263.2 467.5 281.7 464.2 334.3 466.5 418.9 466.1 360.2 406.6 573.8 407.3 Z" data-holc_grade="B"/>
<path d="M 301.1 1909.4 301 1910.6 301 1912.8 290.8 1912.8 268.1 1912.7 245.4 1912.7 249 1623.6 288.9 1622.9 296.1 1622.8 297.2 1622.8 301.6 1735.9 476.5 1737.5 475.5 1719.2 502.5 1717.2 503 1700 564.7 1698 563.6 1794.5 475.9 1792.9 475.9 1855.4 303 1856.9 301.1 1909.4 Z" data-holc_grade="B"/>
<path d="M 647.4 1762.8 646.8 1703.3 648.3 1703.2 648.3 1704.5 707 1705.4 708.8 1794.7 647.8 1794.3 647.4 1762.8 Z" data-holc_grade="B"/>
<path d="M 502.4 1914.7 500.8 2028.3 476.3 2027.7 476.8 2091.3 301.4 2087.2 301.4 2028.6 329.5 2028.2 331.5 1994.6 400.3 2030.7 460 2025.7 458.5 1974.9 475.8 1968.8 477.8 1914.6 499.8 1914.7 502.4 1914.7 Z M 355.2 1913.9 446.9 1913.3 446.9 1914.4 448.3 1937.3 357 1935.2 355.3 1915 355.2 1913.9 Z" data-holc_grade="B"/>
<path d="M 533.3 2437.5 538.8 2448.1 549.5 2463.9 554.6 2476.6 551 2490.3 536.2 2506.1 523 2527.4 509.7 2547.8 505.6 2575.7 328.7 2579.1 325.5 2579.2 325.6 2431.2 327.2 2431.2 471 2431.3 473.5 2544.7 502 2545.2 502.1 2380.4 502.1 2377 530.2 2397.3 529.7 2417.1 531.2 2433.4 533.3 2437.5 Z" data-holc_grade="B"/>
<path d="M 124 2718.1 130.6 2715.7 122.4 2750.9 120.8 2757 127.5 2771.2 130.5 2787 127.4 2809.9 115.7 2831.2 108.5 2860.2 105.4 2886.1 94.2 2900.9 77.9 2908 58 2918.6 51.8 2935.4 51.3 2941.5 38 2941.5 29.4 2928.8 12.5 2922.7 11.1 2791.5 36.6 2772.7 51.5 2761.5 68.8 2754.4 94.8 2754.4 113.7 2743.3 124 2718.1 Z" data-holc_grade="B"/>
<path d="M 553.3 2921.6 553.2 2921.2 506.2 2922.9 458 2917.1 429 2903.2 411.5 2914.2 398.2 2943.7 367.4 2947.7 362.2 2971.4 346.5 2991.1 345.3 3006.7 326.7 3035.1 307 3059.3 286.6 3056.7 318.8 3021.9 346.5 2902.5 342.9 2895.4 331.3 2884.5 320.3 2880.5 321.1 2826.7 346.8 2828.6 355.3 2800.6 373.2 2782.2 397.6 2772 429.5 2746.1 446.6 2740.6 459.3 2728 455.5 2772.4 462.9 2810.9 473.7 2824.3 545 2823.6 543.9 2854.3 546.9 2874.3 552.8 2896.1 555.8 2919.1 553.3 2921.6 Z M 917.5 2720.7 907.3 2753 729.6 3065.4 695.3 3064.8 661.7 3163.9 661.4 3164.6 633.1 3155.2 662.7 3052.8 663.1 2893.2 674 2828.8 672.9 2778.5 617.9 2778.4 615.5 2714.7 917.5 2720.7 Z M 944.9 2636.3 944.2 2636.3 926.7 2691.5 909.7 2693 891.9 2677.3 879.4 2662.1 878 2640.4 873.5 2622 863.7 2617.2 842.2 2617.4 804.1 2616.3 789.8 2615.3 779.3 2614.1 760.6 2634.8 740.3 2642.8 710.4 2644.7 673.1 2635.4 670.4 2643.9 679.9 2653.4 681.4 2666.9 578.4 2661.4 553.2 2669.9 553.7 2711.5 504.5 2706 531.5 2667.8 542.9 2656.8 559.7 2647.8 573.7 2638.9 597 2633 617.9 2629 646 2628.5 664.3 2624 693.3 2629 707.8 2631.6 727.7 2628.1 741.1 2621.9 758.9 2611.3 767.2 2600.4 956.2 2600.2 944.9 2636.3 Z" data-holc_grade="B"/>
</g>
<g id="C">
<path d="M 573.8 407.3 360.2 406.6 358.6 406.6 301.6 349 405.3 350.4 574.8 407.4 573.8 407.3 Z" data-holc_grade="C"/>
<path d="M 1940.2 644 1940.2 698.4 1919.3 697.8 1911.6 873 1970.6 873.3 1971.3 1222.5 2087.5 1220.2 2087.8 1454.2 2116.4 1454.2 2114.5 1392 2331.9 1391.3 2332.5 1440 2156.1 1677 2154 1679.8 2114.7 1680.3 2114.7 1678.8 2114.7 1629 2087.7 1628 2085.1 1535 2028 1536 2029 1511.6 1972.4 1513.2 1970.4 1495.4 1856.2 1496.4 1858.5 1390.3 1745.6 1385.4 1746.3 1402.3 1715.9 1401.1 1714.3 1401 1716.6 1323.3 1699.3 1322.3 1698.6 1290.2 1669.6 1289.2 1670.2 1253.7 1645.1 1253.1 1646.4 1166.4 1646.4 1164 1648.2 1163.9 1674.5 1162.7 1674.8 1136 1894.7 1136.7 1897.9 991.9 1887.2 990.9 1884.2 874.1 1884.1 871 1884.1 870.1 1883.5 643.8 1883.5 643 1940.2 644 Z" data-holc_grade="C"/>
<path d="M 1715.2 1434.5 1715 1475.8 1744.9 1475.7 1744.9 1476.3 1743.9 1546.6 1765.6 1545.7 1764.4 1684.1 1627.5 1683.3 1626 1805 1656.9 1861.9 1743.6 1859.5 1745.3 1859.5 1673.8 1896.9 1635 1916.6 1634.4 1915.6 1573.7 1941.8 1553.7 1906.2 1521.8 1918.1 1403.8 1680.1 1496.7 1681.7 1495.5 1612.6 1466.3 1611.8 1464.8 1253.4 1616.8 1253.4 1616.4 1290.2 1642.5 1289.8 1643.7 1366 1672.1 1366.8 1671.7 1402.7 1684.9 1403.5 1685.4 1434.8 1715.2 1434.5 Z" data-holc_grade="C"/>
<path d="M 1733.8 2133.6 1729.3 2131.2 1786 2035.4 1850.5 2067.2 1884 2012.3 1919.8 2032.2 1958.9 1966.3 2075.1 2028.2 2088.7 2035.5 2088.8 1974.4 2089.2 1974.4 2146.6 1973.9 2145.6 1916.1 2090.1 1916.5 2089.8 1916.5 2089.4 1860.7 2088.4 1729.8 2088.1 1679.6 2114.7 1678.8 2114.7 1680.3 2154 1679.8 2156.1 1677 2206.6 1680.3 2204.2 1805 2321.4 1911.4 2527.8 1908.1 2524.4 1678.6 2762.7 1681.6 2760.9 1914.3 2642.1 1913.3 2641.7 2128.8 2524.9 2137.5 2281.5 2143.7 2279.6 2143.7 2232.2 2129 2135.3 2314.3 2134.8 2315.1 2007.8 2243 1990.5 2275.5 1733.8 2133.6 Z" data-holc_grade="C"/>
<path d="M 2380.2 2450.8 2383.4 2590 2412.4 2592 2414.5 2662.2 2460.9 2664.7 2462.1 2770.7 2445.3 2762.8 2377.5 2699.2 2379.1 2665.9 2353.3 2664 2352.1 2663.9 2347.2 2663.5 2347.3 2660.2 2348 2522.9 2320.1 2521.3 2319.8 2504 2209.9 2502.9 2208 2502.9 2205.7 2448.3 2314.8 2449.2 2313.9 2416.2 2195.7 2350.6 2167.5 2334.4 2168 2333.5 2187.9 2301.4 2322.6 2378.1 2323.2 2418.2 2323.6 2447.2 2380.1 2450.7 2380.2 2450.7 2380.2 2450.8 Z" data-holc_grade="C"/>
<path d="M 2726.8 2913.8 2727.4 2773.3 2733 2753.1 2735 2738.4 2725.2 2718.2 2721.7 2696.5 2724.5 2677.7 2721.5 2659.1 2721.1 2656.8 2736.6 2664.2 2759.3 2675.2 2758.3 2927.6 2726.8 2913.8 Z" data-holc_grade="C"/>
<path d="M 2180.9 2710.4 2180.9 2711.1 2059.8 2710.2 2259 2833.5 2274.2 2830.8 2273.4 2887.1 2290.8 2888.5 2291.3 2943.4 2388.2 2944.7 2388.9 3061 2528.6 3061.8 2531.7 3123.2 2514.8 3133.3 2493.1 3137.7 2475.3 3138 2476.2 3180.2 2500 3181.1 2500.9 3234.3 2442.2 3233.6 2441.1 3209.3 2254.5 3210 2254.5 3262 2760 3263.6 2761.9 3263.6 2763.8 3288.7 2801 3290.4 2810.9 3298.5 2810.4 3340.5 2786.5 3340.5 2250.7 3340.4 2252.2 3450.5 2252.3 3458.3 2256.2 3458.2 2289.6 3457.4 2286.8 3516.6 2318.9 3517.5 2317.5 3572.1 2343.6 3573.3 2346 3632.5 2379.6 3632.8 2381.3 3696.9 2411.7 3696 2413.5 3749.8 2442 3749.9 2442.9 3803.9 2469.9 3803.1 2471 3861.9 2498.8 3864.2 2500.9 3918.3 2528.4 3921.1 2528.5 3975.8 2556.9 3975.8 2555.8 4032.7 2587.1 4033.6 2585.1 4094 2616.4 4094.5 2616.7 4147.8 2646.9 4147.5 2644.9 4248.5 2652.7 4264.7 2653.6 4266.5 2606.4 4290.8 2576.9 4251.5 2536.9 4204.7 2420.4 3973.5 2397.2 3917.6 2415.5 3919 2392.3 3860.3 2451.2 3860.3 2274.8 3523.5 2213.8 3409.4 2204.4 3409.1 2144.8 3292.6 2145.1 3125.6 2146.6 3125.6 2182.1 3126.2 2182.1 3151.9 2252.2 3152.2 2252.2 3128.4 2463.1 3135.2 2491.3 3134.6 2513.4 3129.7 2526.3 3122.9 2525.1 3114.9 2385.3 3112.6 2383.6 3062.9 2317.6 3061.8 2319.8 3006.3 2355.4 3007.7 2357.7 2949.3 2255 2949.4 2254.9 2891.3 2039.4 2888.2 2038.8 2829.9 1891.5 2830.8 1890.4 2830.8 1890.4 2830.6 1893 2753 1856.3 2752.7 1857.1 2592.3 2045 2701.3 2042.3 2668.2 2043.7 2668.4 2181.4 2687.4 2180.9 2710.4 Z" data-holc_grade="C"/>
<path d="M 1884.9 2952.4 1942.2 3062.5 1899.4 3061 1900.9 3178.5 1922.3 3177 1912.2 3192.6 1902.4 3202.1 1891.5 3208 1878.3 3213.6 1852.5 3223.6 1858.1 3292.9 2065.3 3295.4 2385.5 3946.9 2404 3978.2 2399.2 3978.5 2427.4 4038.1 2384.6 4035 2385 3981 2355.3 3977.2 2354 3931.3 2353.9 3923.7 2323 3923 2322.5 3865 2290.7 3864.2 2291.1 3805.1 2261.1 3804.4 2261.4 3746.7 2233.7 3746.9 2232.7 3687.9 2207.4 3689.8 2203.4 3631.3 2177.5 3630.9 2177.1 3573.4 2148.8 3572.9 2149.3 3516.9 2120.3 3515.6 2118.3 3464.8 2092.4 3464 2090 3408.7 2089.2 3407.4 2050.5 3407.1 2048.7 3349.7 1854.3 3350.1 1801.8 3350.1 1799.3 3321.4 1395.4 3319.6 1395.4 3291.6 1394 3291.5 1382.5 3290.4 1381 3290.3 1381.1 3177.3 1353 3177.7 1353.4 2840.7 1353.4 2834.4 1353.4 2832.8 1851.9 2830.2 1851.8 2831.2 1851.6 2844.9 1850.8 2893.7 1826.4 2892.7 1823.8 2951.2 1884.5 2951.7 1884.9 2952.4 Z" data-holc_grade="C"/>
<path d="M 2762.2 4670.9 2758.2 4907.7 2197.1 4903.1 2197.1 4901.5 2202.9 4669.9 2762.3 4665.8 2762.2 4670.9 Z" data-holc_grade="C"/>
<path d="M 5.1 4149.2 5.2 4085.4 87.2 4093.2 86.4 4108.4 143.5 4095.2 230.9 4095.6 231.5 4151.5 5.1 4149.2 Z" data-holc_grade="C"/>
<path d="M 711.4 3636.9 711.4 3638.1 670.5 3636.8 670.6 3635.3 672.5 3575.6 693.4 3576.2 694.1 3520.9 713.4 3520.6 711.4 3636.9 Z" data-holc_grade="C"/>
<path d="M 1124.9 3823.8 1124.8 3809.7 1159 3808.6 1161.2 3864.5 1125.1 3864.5 1124.9 3823.8 Z" data-holc_grade="C"/>
<path d="M 586.6 872.3 587.5 931.8 441.3 931.2 441.8 817.5 474.4 817.5 474.9 869.2 586.6 872.3 Z" data-holc_grade="C"/>
<path d="M 1038.1 836.6 1038 838.8 1036.6 870.5 1037 1207.8 1038.4 1451.7 1043 1452.7 1043.4 1669.3 865 1670.8 867 1863.2 475.5 1863.2 475.2 1911.9 446.8 1912.3 446.9 1913.3 355.2 1913.9 355 1912.3 301.1 1909.4 303 1856.9 475.9 1855.4 475.9 1792.9 563.6 1794.5 644.8 1794.1 643.2 1685.4 565.5 1685.2 564.7 1698 503 1700 502.5 1717.2 475.5 1719.2 476.5 1737.5 301.6 1735.9 297.2 1622.8 299.8 1622.8 300.9 1590.6 357.9 1591.6 357.9 1562.3 333.4 1562.6 334.1 1449.8 446.7 1453 444.7 1102.4 820.9 1109.2 819.4 869.4 701.2 871.9 699.5 871.4 695.2 702.5 623.1 699.6 622.5 644.2 643.8 644.3 642.2 581.3 757.7 577.1 756.4 508.7 776.9 508.7 828.5 545.8 882.5 584.5 923.3 614.8 930.5 629.2 969 689.9 992.1 728.6 1005.2 761 1038.1 836.6 Z M 647.4 1762.8 647.8 1794.3 708.8 1794.7 707 1705.4 648.3 1704.5 648.3 1703.2 646.8 1703.3 647.4 1762.8 Z" data-holc_grade="C"/>
<path d="M 703 1915.3 702.8 1915.5 700.7 2083.2 621.6 2081.2 588.5 2088.8 588.5 2146.2 699.1 2148.3 703.7 2258.6 704.8 2258.8 702.8 2376 558.8 2372 558.2 2351.5 543.1 2351.5 541.8 2329.1 427.3 2332.3 427.6 2277.9 383.5 2299 350.6 2256.7 396.3 2256.1 396.7 2202.4 382.6 2202.8 382 2189.7 358.8 2188.7 358.8 2147.4 300.7 2147 299.7 2088.6 301.4 2088.6 301.4 2087.2 476.8 2091.3 476.3 2027.7 500.8 2028.3 502.4 1914.7 703 1915.3 Z" data-holc_grade="C"/>
<path d="M 432 2603.3 323.5 2602.1 324 2599.9 328.7 2579.1 505.6 2575.7 509.7 2547.8 523 2527.4 536.2 2506.1 551 2490.3 554.6 2476.6 549.5 2463.9 538.8 2448.1 533.3 2437.5 560.8 2422.2 576.6 2427.8 593.9 2443.1 599.5 2457.3 595.4 2472.6 582.2 2496 567.4 2517.8 552 2538.1 530.6 2551.8 512.2 2560.5 503.5 2604.2 432 2603.3 Z M 502.1 2380.4 502 2545.2 473.5 2544.7 471 2431.3 327.2 2431.2 327.2 2369.7 478.7 2367.3 502.1 2380.4 Z" data-holc_grade="C"/>
<path d="M 904.7 3348.5 903.5 3348.5 903.8 3328 961 3327.2 962.1 3350.8 904.7 3348.5 Z M 1324.8 2834.5 1324.8 2838.4 1321.3 3171.4 1321.4 3178.6 1161.9 3177 1161.5 3222.4 1123.4 3221.1 1120.8 3410.7 1119.6 3410.7 1051.6 3411.4 1050.2 3294.8 756.3 3294.4 757.4 3243.6 698.7 3245.4 700.4 3177.6 661.7 3164.8 661.4 3164.6 661.7 3163.9 695.3 3064.8 729.6 3065.4 907.3 2753 907.9 2753 921 2753.7 919.5 2836.3 937 2836.3 929.1 3181.1 960.3 3181.1 960.7 3119.6 1089.5 3121 1088.4 3064.9 1159.2 3065.5 1158.7 2833.5 1100 2834 1101.2 2789.5 1130.8 2789.5 1130.6 2720.1 1098.6 2721.2 1097.9 2677.5 1071.5 2678.3 1071.6 2673.8 1074.1 2595 1029.1 2518.3 1028.1 2516.5 1087.2 2480.2 1139.5 2448 1157.4 2472.1 1214.9 2505 1165.5 2590.2 1165.4 2610.4 1165.4 2611.4 1164 2688.2 1309.5 2689.6 1312.2 2834.2 1324.8 2834.5 Z" data-holc_grade="C"/>
<path d="M 232.4 3125.3 237.4 3125.7 247.6 3128.3 260.9 3137.5 266.5 3145.1 262.9 3166.4 267.1 3181.9 268.5 3187.3 278.2 3209.2 274.1 3212.7 251.6 3214.7 212.2 3230.8 178.5 3245.1 149.5 3266.2 128.3 3286.3 123.7 3294.5 257 3290.7 259 3290.6 238.3 3303.3 206.1 3318.1 195.8 3323.9 187.8 3333.7 176.4 3345.7 165.3 3361.9 153.9 3376.4 139.8 3400.9 139.2 3401.8 7.6 3400.3 11.8 3297.5 96.5 3299.2 102.1 3283.9 112.2 3277.7 113.2 3267.6 146.2 3234.4 170.1 3182.1 190 3166.1 179.1 3140.7 200.4 3126 198.2 3087.1 203.8 3058.6 214.5 3041.8 230.9 3015.4 232.9 3006.2 241.6 2988.4 252.8 2978.3 266.6 2979.8 257.9 2993.5 255.9 3004.2 259.9 3024.6 260.4 3034.7 245.6 3049.5 232.9 3071.3 227.2 3087.6 230.3 3105.9 224.1 3124.7 232.4 3125.3 Z" data-holc_grade="C"/>
<path d="M 1293.2 3922.2 1291.5 3809.7 1278.1 3810.3 1279.9 3578.2 1306.6 3579.4 1306.2 3348.9 1304.2 3348.9 1306 3296.7 1322.3 3296.9 1324.2 3558.8 1324.7 3864.6 1309.1 3863.4 1307.9 3922.2 1293.2 3922.2 Z M 1400 4038 1400 4039 1400 4040.1 1400 4040.3 1399.3 4040.3 1372.3 4038.9 1368.6 4038.7 1368.5 4044.2 1365.3 4270.2 1307.1 4267 1309 4155.6 1309 4153.4 1309 4152.4 1351.7 4152.6 1352.5 4066.7 1352.6 4057.6 1352.7 3923.2 1368.4 3924.2 1368.2 3826.1 1368.9 3691 1355.7 3691 1354.9 3485.7 1351.3 3291.9 1382.5 3290.4 1394 3291.5 1395.4 3291.6 1395.4 3319.6 1395.4 3320.5 1397.1 3320.6 1400 4038 Z" data-holc_grade="C"/>
<path d="M 1884.1 870.1 1853.9 871 1856.1 643.8 1883.5 643.8 1884.1 870.1 Z" data-holc_grade="C"/>
</g>
<g id="D">
<path d="M 1031.4 1 1032.4 119.3 963.4 299.4 927.6 506 799.8 509.8 798.8 414 683.1 410 675.2 238.2 227 234.7 225.6 3.1 1031.4 1 Z" data-holc_grade="D"/>
<path d="M 2281.5 2143.7 2289.9 2170.5 2320.7 2183 2323.9 2370.8 2666.1 2572.2 2669.7 2585 2688.9 2600.1 2720.2 2612.5 2739.4 2614.5 2749.9 2650 2736.6 2664.2 2721.1 2656.8 2721 2656 2717.1 2649.6 2538.6 2547.4 2526.1 2571.1 2526.9 2571.8 2521.5 2573.5 2505 2581.1 2502.7 2600.3 2500.3 2619.4 2498.3 2634.2 2494.3 2643 2480.6 2647.8 2466.2 2639.8 2459 2617.4 2460.6 2600.3 2465.8 2586.3 2442.1 2571.5 2479 2507.2 2380.2 2450.8 2380.2 2450.7 2380.1 2450.7 2323.6 2447.2 2323.2 2418.2 2322.6 2378.1 2187.9 2301.4 2168 2333.5 2135.3 2314.3 2232.2 2129 2279.6 2143.7 2281.5 2143.7 Z" data-holc_grade="D"/>
<path d="M 1715.2 1434.5 1685.4 1434.8 1684.9 1403.5 1671.7 1402.7 1672.1 1366.8 1643.7 1366 1642.5 1289.8 1616.4 1290.2 1616.8 1253.4 1464.8 1253.4 1466.3 1611.8 1495.5 1612.6 1496.7 1681.7 1403.8 1680.1 1521.8 1918.1 1553.7 1906.2 1573.7 1941.8 1634.4 1915.6 1635 1916.6 1652.5 1948.6 1529.9 1999.8 1546.2 2054.7 1479.2 2082.1 1460.4 2053.4 1443.6 2028.5 1427.5 1992.2 1423.1 1977 1423.1 1961.8 1431.1 1949.5 1441.9 1945.5 1459.1 1943.1 1465.9 1926.7 1448.7 1911.9 1433.1 1896.4 1423 1892.5 1324.3 1679.8 1389.2 1647 1375.6 1621.5 1344.3 1638 1327 1603.7 1312.5 1499.2 1305.1 1449.7 1305.3 1419.1 1325.9 1419.1 1324.8 1323 1285.3 1324.5 1283 1284.3 1282 1256.4 1279.4 1240.5 1277.8 1219.6 1301.6 1219.1 1287.6 1106.4 1281.5 999.2 1277.8 930.2 1274.5 876.4 1393.6 874.9 1395.3 948.7 1395.4 1105.6 1619.3 1105.7 1618 1164.3 1646.4 1166.4 1645.1 1253.1 1670.2 1253.7 1669.6 1289.2 1698.6 1290.2 1699.3 1322.3 1716.6 1323.3 1714.3 1401 1715.9 1401.1 1715.7 1434.5 1715.2 1434.5 Z" data-holc_grade="D"/>
<path d="M 2089.2 1974.4 2090.1 1916.5 2145.6 1916.1 2146.6 1973.9 2089.2 1974.4 Z M 2075.1 2028.2 1958.9 1966.3 1919.8 2032.2 1884 2012.3 1850.5 2067.2 1786 2035.4 1729.3 2131.2 1733.8 2133.6 1716.5 2166.6 1676.5 2145.9 1734.2 2051.6 1765.2 2012.8 1785.4 1957.4 1822.6 1895.8 1854.6 1915.2 1981.5 1914.7 2075.1 2028.2 Z M 2088.4 1729.8 2089.4 1860.7 2050.2 1862.4 2040.5 1869.2 2022.1 1882.3 1990.9 1891.9 1958.9 1891.9 1954.9 1883.9 1853.1 1691.6 1855.9 1770.4 1834.4 1809 1812.8 1826.3 1743.6 1859.5 1656.9 1861.9 1626 1805 1627.5 1683.3 1764.4 1684.1 1765.6 1545.7 1743.9 1546.6 1744.9 1476.3 1749 1479.8 1847.5 1679.6 1918 1680 1917.1 1586.3 2088.4 1729.8 Z" data-holc_grade="D"/>
<path d="M 2332.5 1440 2331.9 1391.3 2331.9 1389.8 2329.9 1215.5 2332 1215.5 2484.2 1215.4 2366.2 1389.5 2382.2 1390.1 2373.7 1407 2393.3 1417.7 2404.7 1424.2 2416.8 1438.2 2422.6 1450.9 2421 1470.1 2406.4 1504.6 2333.3 1503.3 2332.5 1440 Z" data-holc_grade="D"/>
<path d="M 1646.4 1166.4 1618 1164.3 1619.3 1105.7 1619.3 1105.2 1854.5 1104.8 1853 871.1 1853.9 871 1884.1 870.1 1884.1 871 1884.2 874.1 1887.2 990.9 1897.9 991.9 1894.7 1136.7 1674.8 1136 1674.5 1162.7 1648.2 1163.9 1646.4 1164 1646.4 1166.4 Z" data-holc_grade="D"/>
<path d="M 1081.4 1903.4 721.2 1898.8 705.3 1913.2 703 1915.3 502.4 1914.7 499.8 1914.7 477.8 1914.6 475.2 1914.6 475.2 1913.5 475.2 1912.7 475.2 1911.9 475.5 1863.2 867 1863.2 865 1670.8 1043.4 1669.3 1043 1452.7 1038.4 1451.7 1037 1207.8 1036.6 870.5 1038 838.8 1038.1 836.6 1038.1 836.5 1054.4 872.6 1094.6 1108.8 1096.1 1169.2 1098.7 1244.4 1105.8 1342 1104.5 1452.7 1079.7 1453 1080.3 1524.9 1113.9 1524.6 1113.9 1672.5 1080.6 1672.9 1081.4 1903.4 Z" data-holc_grade="D"/>
<path d="M 1081.4 1903.4 1082.2 1903.5 1104.4 1952.2 932 1997.1 932.3 2047.8 1051 2164.2 1049.5 2197.7 1031.6 2196.7 1032.6 2258.2 1047.4 2259.2 1047.9 2284.1 1076 2318.7 943.4 2303.9 704.8 2258.8 703.7 2258.6 699.1 2148.3 588.5 2146.2 588.5 2088.8 621.6 2081.2 700.7 2083.2 702.8 1915.5 703 1915.3 705.3 1913.2 721.2 1898.8 1081.4 1903.4 Z" data-holc_grade="D"/>
<path d="M 1087.2 2480.2 1028.1 2516.5 1029.1 2518.3 1016.8 2525.6 1005 2510.9 960.1 2537.3 801 2536.7 763.2 2539.8 750 2543.8 721.9 2557.5 702.5 2577.3 671 2597.6 643.9 2598.4 634.3 2596 638.3 2584.1 661.4 2574.5 702.1 2553.9 726 2536.4 794.6 2475.3 828 2458.6 855.1 2433.2 900.6 2411.8 898.2 2396.7 931.7 2379.2 1105.5 2381.2 1116.3 2401.1 1063.2 2436.6 1087.2 2480.2 Z" data-holc_grade="D"/>
<path d="M 2043.7 2668.4 2042.3 2668.2 2045 2701.3 1857.1 2592.3 1856.3 2752.7 1893 2753 1890.4 2830.6 1851.8 2831.2 1851.9 2830.2 1353.4 2832.8 1353.4 2834.4 1324.8 2833.3 1324.8 2834.5 1312.2 2834.2 1309.5 2689.6 1164 2688.2 1165.4 2611.4 1165.4 2610.4 1402 2612.1 1375.5 2591.5 1427.5 2505 1462.7 2525.2 1480.4 2493.1 1509.5 2509.9 1529.4 2479.4 1557.5 2496.7 1576.8 2467.2 1736 2561.7 1758.4 2527.2 1693.7 2489.1 1751.9 2381.4 1844.6 2378.4 1872.7 2386.9 1916.1 2394 1954.7 2440.2 1972.3 2450.3 1994.8 2490 2023.9 2540.7 2031.1 2571.3 2050.4 2617.2 2043.2 2660.8 2043.7 2668.4 Z" data-holc_grade="D"/>
<path d="M 1372.3 4038.9 1368.5 4044.2 1368.6 4038.7 1372.3 4038.9 Z M 1382.5 3290.4 1351.3 3291.9 1354.9 3485.7 1355.7 3691 1368.9 3691 1368.2 3826.1 1368.4 3924.2 1352.7 3923.2 1352.6 4057.6 1352.5 4066.7 1351.7 4152.6 1309 4152.4 1309 4153.4 1309 4155.6 1252.7 4153.7 1250.7 3922.2 1290.2 3922.2 1293.2 3922.2 1307.9 3922.2 1309.1 3863.4 1324.7 3864.6 1324.2 3558.8 1322.3 3296.9 1321.4 3180.8 1321.4 3178.6 1321.3 3171.4 1324.8 2838.4 1324.8 2834.5 1324.8 2833.3 1353.4 2834.4 1353.4 2840.7 1353 3177.7 1381.1 3177.3 1381 3290.3 1382.5 3290.4 Z" data-holc_grade="D"/>
<path d="M 1321.4 3178.6 1321.4 3180.8 1322.3 3296.9 1306 3296.7 1160.9 3294.5 1161.5 3222.4 1161.9 3177 1321.4 3178.6 Z" data-holc_grade="D"/>
<path d="M 2204.4 3409.1 2213.8 3409.4 2274.8 3523.5 2451.2 3860.3 2392.3 3860.3 2415.5 3919 2397.2 3917.6 2420.4 3973.5 2536.9 4204.7 2576.9 4251.5 2606.4 4290.8 2641.5 4337.4 2769.5 4486.6 2790.6 4511.6 2832.8 4550.1 2865.2 4572.4 2893.9 4588.5 2937.9 4612.2 2956.3 4624.7 2984.2 4646.6 2999 4667.6 2947.5 4665.5 2920.1 4633.6 2891.3 4618.2 2866 4601.5 2835.9 4581.9 2811.3 4556.8 2782.1 4537.6 2741.7 4488 2698.6 4441 2667.6 4407.5 2646.9 4383.4 2626.3 4358.3 2604.7 4330.2 2585.8 4311.4 2583.5 4311.4 2582.9 4311.4 2540 4250.6 2514 4211.7 2503.2 4192.2 2486.4 4150.9 2465.3 4115.3 2445.7 4076.9 2427.6 4038.6 2427.4 4038.1 2399.2 3978.5 2404 3978.2 2419.6 3977.3 2393.1 3915.3 2300.3 3721.8 2256.2 3635.6 2177.7 3466 2207.5 3467.8 2178.2 3408.3 2204.4 3409.1 Z" data-holc_grade="D"/>
<path d="M 2146.6 3125.6 2141.7 3063 2058.6 3065.1 2027.4 3056.4 1994.3 3033 1958 2992.9 1936.6 2951.7 1884.9 2952.4 1884.5 2951.7 1823.8 2951.2 1826.4 2892.7 1850.8 2893.7 1851.6 2844.9 1851.8 2831.2 1890.4 2830.6 1890.4 2830.8 1891.5 2830.8 2038.8 2829.9 2039.4 2888.2 2254.9 2891.3 2255 2949.4 2357.7 2949.3 2355.4 3007.7 2319.8 3006.3 2317.6 3061.8 2383.6 3062.9 2385.3 3112.6 2525.1 3114.9 2526.3 3122.9 2513.4 3129.7 2491.3 3134.6 2463.1 3135.2 2252.2 3128.4 2252.2 3152.2 2182.1 3151.9 2182.1 3126.2 2146.6 3125.6 Z" data-holc_grade="D"/>
</g>
</svg>