<?xml version="1.0"?>
<svg xmlns="http://www.w3.org/2000/svg" version="1.2" baseProfile="tiny" width="3000" height="3091" viewBox="0 0 3000 3091" stroke-linecap="round" stroke-linejoin="round">
<g id="A">
<path d="M 422 923.9 402 989.2 340.6 957.2 360.1 896.3 360.6 894.8 422 923.9 Z" data-holc_grade="A"/>
<path d="M 803.1 913.2 738.5 920.4 738.6 800.6 814.6 799 814.7 802 817.2 911.6 803.1 913.2 Z" data-holc_grade="A"/>
<path d="M 1199.1 968.2 1116 966.3 1115.3 1013.7 1115.2 1016.7 1059.6 1018.1 1059.8 1015.1 1059.6 1015.1 1065.5 938.2 1104.1 942.6 1108.6 830.2 1166 833.5 1167.9 833.6 1182.8 880.9 1190.2 907.6 1187.3 920.9 1187.3 941.6 1199.1 968.2 Z" data-holc_grade="A"/>
<path d="M 508.5 1489.3 511.6 1374.8 541.3 1374.8 541.5 1485.4 508.5 1489.3 Z" data-holc_grade="A"/>
<path d="M 722.9 1592.5 722 1656.4 706.5 1649.3 593.6 1645.7 509.1 1646.9 509.1 1615 494.9 1596 574.6 1587.8 722.9 1592.5 Z" data-holc_grade="A"/>
<path d="M 1043.2 1586 1039.5 1609.1 927.7 1648.2 943.2 1554.7 1046.1 1540.1 1043.2 1586 Z" data-holc_grade="A"/>
</g>
<g id="B">
<path d="M 360.6 894.8 360.1 896.3 340.6 957.2 402 989.2 394.8 1165.9 274.2 1147.5 208.6 1119.8 138.7 1080.7 168 987.7 197.3 823.8 360.6 894.8 Z" data-holc_grade="B"/>
<path d="M 1103.7 1716.8 1107.8 1678.9 1239.3 1636.3 1252.3 1660 1263 1656.5 1279.7 1705 1252.3 1716.8 1258.3 1809.1 1216.7 1809.1 1214.3 1838.7 1129.8 1836.3 1131 1708.5 1103.7 1716.8 Z" data-holc_grade="B"/>
<path d="M 1107.8 1678.9 1103.7 1716.8 1093 1720.3 1083.5 1721.5 1078.7 1828 1041.3 1830.8 1031.1 1831.6 1037.1 1751.1 999 1751.1 987.2 1728.6 882.5 1762.9 874.2 1830.4 826.6 1829.2 827.8 1765.3 879.6 1741.2 879.7 1674.7 863.3 1670.2 869.3 1541.6 940.6 1526.8 943.6 1492.8 1047.6 1495.7 1046.1 1540.1 943.2 1554.7 927.7 1648.2 1039.5 1609.1 1043.2 1586 1086.3 1577.1 1096.7 1525.3 1162.1 1528.3 1160.6 1556.4 1117.5 1557.9 1116 1602.2 1107.8 1678.9 Z" data-holc_grade="B"/>
<path d="M 508.5 1489.3 541.5 1485.4 541.3 1374.8 541.3 1301.4 555.4 1296.5 549.4 1179.4 645.8 1177 645.7 1352.1 762.3 1350.9 761.1 1257.5 828.4 1250.4 832.1 1257.6 827.7 1435.1 850 1438 824.7 1575.6 768.2 1572.6 760.7 1692.4 741 1689.5 741 1706.1 705.3 1696.6 706.5 1649.3 722 1656.4 722.9 1592.5 725.6 1403.2 704.2 1394.9 703 1377.2 597.2 1376 593.6 1412.7 572.2 1417.4 574.6 1587.8 494.9 1596 498.5 1555.8 498.5 1555.1 506.8 1554.6 508.5 1489.3 Z" data-holc_grade="B"/>
<path d="M 855.9 1179.2 814.4 1189.6 807 1161.5 781.7 1157 768.4 988.4 799.6 982.5 803.1 913.2 817.2 911.6 817.3 914.5 858.9 913 869.3 1171.8 855.9 1179.2 Z" data-holc_grade="B"/>
<path d="M 1115.2 1016.7 1115.3 1013.7 1116 966.3 1199.1 968.2 1215.5 1040.7 1248.2 1046.6 1251.2 1064.3 1309.1 1070.2 1301.8 1171.9 1288.4 1171.9 1285.5 1195.5 1206.7 1201.4 1202.2 1170.4 1169.5 1167.4 1168 1072.8 1114.5 1060.9 1114.5 1058 1115.2 1016.7 Z M 1182.8 880.9 1167.9 833.6 1242.3 838.1 1251.2 882.4 1182.8 880.9 Z" data-holc_grade="B"/>
<path d="M 1447.3 1144.2 1448.9 1050.6 1419.2 1049.1 1420.6 1000.7 1521.7 1008.1 1517.2 1064.3 1567.7 1068.8 1572.2 1107.2 1563.3 1122 1557.3 1151.6 1447.3 1144.2 Z" data-holc_grade="B"/>
<path d="M 243.3 1494.3 246.1 1439.3 247.6 1270.7 336.8 1282.6 411.1 1300.4 466.1 1315.2 466.6 1380.6 461.9 1380.5 354.8 1382 353.3 1418.9 366.7 1418.9 360.8 1464.8 340 1469.2 340 1438.2 310.2 1438.1 310.2 1466.2 287.9 1473.6 285 1495.8 243.3 1494.3 Z" data-holc_grade="B"/>
<path d="M 1827.8 1185.6 1887.3 1184.1 1884.3 1250.7 1824.9 1252.1 1827.8 1185.6 Z" data-holc_grade="B"/>
<path d="M 1536.5 1385.3 1555.8 1275.8 1622.7 1275.8 1609.3 1395.6 1536.5 1385.3 Z" data-holc_grade="B"/>
<path d="M 1679.2 1506.5 1741.6 1496.2 1771.4 1556.8 1695.6 1559.8 1686.6 1601.2 1616.8 1593.8 1625.7 1537.6 1677.7 1527.2 1679.2 1506.5 Z" data-holc_grade="B"/>
<path d="M 1522.7 1570.5 1477.2 1577.1 1463.8 1553.4 1337.5 1594.9 1342.2 1482.5 1342.3 1479.5 1344.9 1417.4 1402.9 1421.8 1402.7 1424.8 1396.8 1509.5 1441.4 1503.6 1450.3 1515.4 1497.9 1496.2 1503.8 1527.2 1522.7 1570.5 Z" data-holc_grade="B"/>
<path d="M 649.9 1886.6 646.4 1867.7 606 1845.2 608.3 1823.9 585.7 1827.5 588.1 1813.3 671.4 1774.2 610.7 1774.2 611.9 1741.1 704.7 1742.3 704.7 1771.9 735.6 1793.2 742.7 1845.2 649.9 1886.6 Z" data-holc_grade="B"/>
<path d="M 691.3 805.4 693 927.8 614.6 931.4 612.8 569.4 685.2 599 691.3 805.4 Z" data-holc_grade="B"/>
</g>
<g id="C">
<path d="M 1522.7 1570.5 1567.7 1673.7 1598.9 1676.6 1642.1 1697.3 1628.7 1820.1 1597.1 2119.7 1542.4 2117.3 1534 2131.5 1392.5 2116.2 1390.1 2137.5 1290.2 2129.2 1293.8 1941 1325.9 1945.8 1329.5 1898.4 1299.8 1898.4 1296.2 1839.3 1214.3 1838.7 1216.7 1809.1 1258.3 1809.1 1252.3 1716.8 1279.7 1705 1263 1656.5 1252.3 1660 1239.3 1636.3 1337.5 1594.9 1463.8 1553.4 1477.2 1577.1 1522.7 1570.5 Z" data-holc_grade="C"/>
<path d="M 1142.2 795.5 1144.2 799.6 1166 833.5 1108.6 830.2 1104.1 942.6 1065.5 938.2 1059.6 1015.1 1059.8 1015.1 1059.6 1018.1 1115.2 1016.7 1114.5 1058 1114.5 1060.9 1168 1072.8 1169.5 1167.4 1202.2 1170.4 1206.7 1201.4 1285.5 1195.5 1288.4 1171.9 1301.8 1171.9 1325.6 1171.9 1325.6 1195.5 1418.8 1193.4 1402.9 1421.8 1344.9 1417.4 1342.3 1479.5 1342.2 1482.5 1324.1 1483.9 1313.7 1537.2 1116 1602.2 1117.5 1557.9 1160.6 1556.4 1162.1 1528.3 1096.7 1525.3 1086.3 1577.1 1043.2 1586 1046.1 1540.1 1047.6 1495.7 943.6 1492.8 940.6 1526.8 869.3 1541.6 863.3 1670.2 879.7 1674.7 879.6 1741.2 821.7 1727.9 827.6 1693.9 760.7 1692.4 768.2 1572.6 824.7 1575.6 850 1438 827.7 1435.1 832.1 1257.6 858.9 1245.8 855.9 1179.2 869.3 1171.8 858.9 913 817.3 914.5 817.2 911.6 814.7 802 814.6 799 812.9 726.7 1096.7 700.1 1142.2 795.5 Z M 895.1 1076.7 895.6 1079.4 881.2 1087.5 884.2 1140.8 967.4 1097.9 967.4 1038.8 952.2 1047.4 952.2 1044.4 952.6 988.5 952.5 988.5 884.7 1013.4 884.2 1013.6 895.1 1076.7 Z M 1322.7 1294.6 1342 1297.6 1342 1318.3 1377.7 1316.8 1388.1 1251.7 1321.2 1254.7 1322.7 1294.6 Z M 974.8 1448.4 1110.1 1460.3 1107.1 1383.3 976.3 1384.8 974.8 1448.4 Z" data-holc_grade="C"/>
<path d="M 1543.9 793.7 1532.1 826.2 1625.7 872.1 1622.7 910.5 1758 913.5 1911 978.5 1908.1 1019.9 2169.6 1052.5 2222.4 1191.3 2098.7 1224.4 2089.2 1223.2 1915.6 1229.2 1912 1283.6 2030.9 1290.7 2032.1 1307.2 2239.7 1231.7 2279.7 1324.6 2300.5 1318.6 2296 1281.7 2316.8 1274.3 2343.6 1343.8 2336.2 1472.4 2355.5 1479.8 2348.1 1544.9 2307.9 1536 2300.5 1595.6 2248.5 1589.3 2252.9 1561.2 2195 1544.9 2200.9 1519.8 2163.3 1516 2167.7 1456.3 2108.2 1453.9 2047.8 1482.8 2037.4 1553.8 2058.2 1559.7 2053.8 1620.4 2095.4 1626.3 2093.9 1664.7 2104.3 1669.2 2101.4 1722.4 2009.2 1701.7 1998.9 1683.5 2013.1 1617.2 1926.3 1604.2 1916.8 1670.5 1816 1657.4 1802.6 1676.6 1763.9 1676.6 1763.9 1701.7 1762.5 1723.9 1769.9 1765.3 1688.1 1755 1682.2 1784.6 1653.9 1792 1648 1815.6 1628.7 1820.1 1642.1 1697.3 1598.9 1676.6 1567.7 1673.7 1522.7 1570.5 1503.8 1527.2 1497.9 1496.2 1450.3 1515.4 1441.4 1503.6 1396.8 1509.5 1402.7 1424.8 1402.9 1421.8 1418.8 1193.4 1419 1190.4 1419.1 1188.6 1436.9 1190 1447.3 1144.2 1557.3 1151.6 1563.3 1122 1572.2 1107.2 1567.7 1068.8 1517.2 1064.3 1521.7 1008.1 1420.6 1000.7 1420.6 962.3 1380.5 959.3 1381.9 1000.7 1324 997.8 1309.1 1070.2 1251.2 1064.3 1248.2 1046.6 1215.5 1040.7 1199.1 968.2 1187.3 941.6 1187.3 920.9 1190.2 907.6 1182.8 880.9 1251.2 882.4 1242.3 838.1 1167.9 833.6 1166 833.5 1144.2 799.6 1142.2 795.5 1144.2 796.7 1197.7 798.1 1193.2 702 1255.6 728.6 1269 879.5 1384.9 873.6 1382 740.5 1389.4 668 1215.5 548.2 1221.5 461 1340.3 466.9 1341.8 498 1484.5 502.4 1478.6 570.4 1493.4 567.5 1487.5 688.7 1462.2 682.8 1462.2 767.1 1543.9 793.7 Z M 1679.2 1122 1670.3 1170.8 1637.6 1170.8 1634.6 1213.7 1703 1216.7 1711.9 1111.7 1679.2 1122 Z M 1856.1 1133.8 1853.1 1163.4 1948.2 1163.4 1946.7 1127.9 1856.1 1133.8 Z M 1827.8 1185.6 1824.9 1252.1 1884.3 1250.7 1887.3 1184.1 1827.8 1185.6 Z M 1536.5 1385.3 1609.3 1395.6 1622.7 1275.8 1555.8 1275.8 1536.5 1385.3 Z M 1621.2 1444.4 1619.8 1513.9 1674.7 1490.3 1671.8 1437 1621.2 1444.4 Z M 1679.2 1506.5 1677.7 1527.2 1625.7 1537.6 1616.8 1593.8 1686.6 1601.2 1695.6 1559.8 1771.4 1556.8 1741.6 1496.2 1679.2 1506.5 Z" data-holc_grade="C"/>
<path d="M 129.2 1201.6 138.7 1080.7 208.6 1119.8 274.2 1147.5 394.8 1165.9 402 989.2 422 923.9 464.8 942 541.4 931.4 541.5 558.7 548.6 555.2 584.3 549.9 612.8 569.4 614.6 931.4 693 927.8 691.3 805.4 738.6 800.6 738.5 920.4 803.1 913.2 799.6 982.5 768.4 988.4 781.7 1157 807 1161.5 814.4 1189.6 855.9 1179.2 858.9 1245.8 832.1 1257.6 828.4 1250.4 761.1 1257.5 762.3 1350.9 645.7 1352.1 645.8 1177 549.4 1179.4 555.4 1296.5 541.3 1301.4 466.1 1315.2 411.1 1300.4 336.8 1282.6 247.6 1270.7 193.6 1254.3 202.5 1215.2 141.9 1204.6 129.2 1201.6 Z M 462.6 1163.8 462.6 1036.1 434.1 1038.2 429.8 1101.4 418.4 1103.5 417.6 1163.8 462.6 1163.8 Z M 602.4 1007 598.8 1157.5 714.4 1157.5 710.2 1009.8 602.4 1007 Z" data-holc_grade="C"/>
<path d="M 138.7 1080.7 129.2 1201.6 81.3 1190.4 29.5 1193.9 1 1188.6 3 500 11.9 489.4 63.6 533.8 168.8 574.6 129.5 723.7 224 759.2 197.3 823.8 168 987.7 138.7 1080.7 Z" data-holc_grade="C"/>
<path d="M 466.6 1380.6 468 1550.6 468 1557 495.6 1555.3 498.5 1555.1 498.5 1555.8 494.9 1596 509.1 1615 509.1 1646.9 593.6 1645.7 706.5 1649.3 705.3 1696.6 741 1706.1 739.5 1739.3 770.9 1725.1 780.4 1747.8 787.1 1764.8 790.9 1884.1 862.2 1883.2 863.2 1989.2 774.7 1993 774.7 2068.7 733.8 2074.4 737.6 2152 749.9 2153.9 749.9 2225.9 794.5 2227.9 792.1 2388.8 654.9 2528.3 607.3 2574.2 555.3 2596.3 576.1 2507.6 521.1 2479.5 558.3 2442.5 562.8 2364.1 585.1 2359.7 586.6 2081.6 420.1 2078.6 380 2056.4 371.1 2052 366.6 1976.5 344.3 1918.8 366.6 1905.5 360.7 1831.6 202.6 1830.7 67.9 1830 75.3 1796 75.3 1751.6 119.9 1757.6 173.4 1754.6 170.5 1654 237.4 1652.6 243.3 1494.3 285 1495.8 287.9 1473.6 310.2 1466.2 310.2 1438.1 340 1438.2 340 1469.2 360.8 1464.8 366.7 1418.9 353.3 1418.9 354.8 1382 461.9 1380.5 466.6 1380.6 Z M 588.1 1813.3 582.2 1788.4 382.4 1786 380 1829.8 416.9 1825.1 415.7 1859.4 472.8 1858.2 496.5 1925.7 494.2 1945.8 601.2 1941.1 607.1 1921 647.6 1913.9 649.9 1886.6 742.7 1845.2 735.6 1793.2 704.7 1771.9 704.7 1742.3 611.9 1741.1 610.7 1774.2 671.4 1774.2 588.1 1813.3 Z" data-holc_grade="C"/>
<path d="M 2046.1 2678 2003 2777.3 1747.5 2746.7 1676.2 2730.1 1679.7 2685.2 1757 2691.1 1760.6 2671 1902.1 2681.6 1909.3 2656.7 2046.1 2678 Z M 2422.3 2466.8 2243.9 2438.4 2260.6 2408.8 2221.3 2400.5 2243.9 2354.4 2324.8 2367.4 2342.6 2340.2 2517.4 2360.3 2516.3 2392.2 2422.3 2466.8 Z M 2300.5 1595.6 2256 1950.2 2267.9 1951.7 2257.5 2059.6 2424 2084.8 2410.6 2185.3 2467.1 2192.7 2467.1 2217.9 2489.8 2222.1 2522.1 2228.2 2511.7 2294.8 2284.3 2256.4 2209.9 2253.4 2205.5 2288.9 2000.3 2252 2037.5 1953.2 2134.1 1968 2144.5 1910.3 2113.3 1901.4 2120.7 1843.7 2151.9 1846.7 2162.3 1812.6 2220.3 1815.6 2230.7 1740.2 2171.2 1726.9 2171.2 1676.6 2154.9 1669.2 2159.3 1611.5 2209.8 1620.4 2208.4 1666.2 2238.1 1678 2248.5 1589.3 2300.5 1595.6 Z" data-holc_grade="C"/>
<path d="M 1129.8 1836.3 1078.7 1828 1083.5 1721.5 1093 1720.3 1103.7 1716.8 1131 1708.5 1129.8 1836.3 Z" data-holc_grade="C"/>
<path d="M 1031.1 1831.6 1013.4 1838.6 990.8 1778.2 920.6 1787.7 933.7 1893 932.5 1941.5 894.4 1927.3 886.1 1833.8 874.2 1830.4 882.5 1762.9 987.2 1728.6 999 1751.1 1037.1 1751.1 1031.1 1831.6 Z" data-holc_grade="C"/>
</g>
<g id="D">
<path d="M 202.6 1830.7 201.9 1952.3 180.1 1965.5 174.3 2038.4 243.8 2014.8 371.1 2052 380 2056.4 420.1 2078.6 586.6 2081.6 585.1 2359.7 562.8 2364.1 558.3 2442.5 521.1 2479.5 576.1 2507.6 555.3 2596.3 431.1 2629.2 319.8 2628.3 311.2 2559.1 309.3 2505.2 339.8 2489.1 341.7 2438 336 2254.3 173.4 2154.9 152.4 2164.3 78.2 2141.6 67.9 1830 202.6 1830.7 Z" data-holc_grade="D"/>
<path d="M 1747.5 2746.7 2003 2777.3 2034.2 2781 2027 2791.6 1881.9 2897 1956.9 2914.7 1879.6 3089.9 1708.3 3076.9 1849.8 2945.5 1613.1 2914.7 1673.8 2789.3 1720.2 2795.2 1747.5 2746.7 Z M 2422.3 2466.8 2210.7 2630.1 2435.5 2723.6 2428.3 2728.3 2405.7 2737.8 2373.6 2774.5 2285.6 2863.2 2085.8 2762.7 2122.7 2728.4 2079.8 2708.2 2135.7 2588.7 2169 2602.9 2243.9 2438.4 2422.3 2466.8 Z M 2046.1 2678 1909.3 2656.7 1902.1 2681.6 1760.6 2671 1757 2691.1 1679.7 2685.2 1681.9 2675.5 1647.6 2668.4 1651.9 2644.2 1616.9 2640.7 1624.1 2559 1563.4 2547.6 1565.6 2287.1 1619.1 2290.6 1627.4 2252.8 1809.1 2270.7 1790.1 2440.2 1886.2 2454.4 1887.1 2432.6 1992.8 2446.8 2018.4 2284 2128.8 2298.2 2130.7 2311.4 2166.8 2317.1 2162.1 2397.6 2116.4 2544.3 2058.4 2536.7 2081.3 2611.5 2046.1 2678 Z M 1597.1 2119.7 1588.7 2198.5 1386.6 2173 1390.1 2137.5 1392.5 2116.2 1534 2131.5 1542.4 2117.3 1597.1 2119.7 Z" data-holc_grade="D"/>
<path d="M 2163.3 1516 2200.9 1519.8 2195 1544.9 2252.9 1561.2 2248.5 1589.3 2238.1 1678 2208.4 1666.2 2209.8 1620.4 2159.3 1611.5 2154.9 1669.2 2171.2 1676.6 2171.2 1726.9 2230.7 1740.2 2220.3 1815.6 2162.3 1812.6 2151.9 1846.7 2120.7 1843.7 2113.3 1901.4 2144.5 1910.3 2134.1 1968 2037.5 1953.2 2056.8 1803.8 2049.3 1799.3 1769.9 1765.3 1762.5 1723.9 1763.9 1701.7 1763.9 1676.6 1802.6 1676.6 1816 1657.4 1916.8 1670.5 1998.9 1683.5 2009.2 1701.7 2101.4 1722.4 2104.3 1669.2 2093.9 1664.7 2095.4 1626.3 2053.8 1620.4 2058.2 1559.7 2037.4 1553.8 2047.8 1482.8 2108.2 1453.9 2104.7 1510.7 2163.3 1516 Z" data-holc_grade="D"/>
<path d="M 1031.1 1831.6 1041.3 1830.8 1069.2 1906 1091.8 1913.1 1100.2 2063.4 995.5 2098.9 989.6 2070.5 937.2 2062.2 933.7 2113.1 1049 2149.8 1054.9 2236.2 1150.1 2237.4 1153.6 2495.3 1343.9 2489.4 1360.6 2497.7 1359.4 2533.2 1543.7 2536.8 1563.4 2547.6 1556.8 2727.3 1315.4 2687.1 1222.6 2974.6 972.8 2941.5 974 2658.6 931.2 2653.9 928.9 2296.5 792.1 2388.8 794.5 2227.9 827.8 2225.5 831.4 2239.7 894.4 2239.7 894.4 1927.3 932.5 1941.5 933.7 1893 920.6 1787.7 990.8 1778.2 1013.4 1838.6 1031.1 1831.6 Z" data-holc_grade="D"/>
<path d="M 2511.7 2294.8 2522.1 2228.2 2489.8 2222.1 2467.1 2217.9 2467.1 2192.7 2410.6 2185.3 2424 2084.8 2257.5 2059.6 2267.9 1951.7 2256 1950.2 2300.5 1595.6 2307.9 1536 2348.1 1544.9 2355.5 1479.8 2336.2 1472.4 2343.6 1343.8 2316.8 1274.3 2386.7 1252.1 2414.9 1336.4 2505.6 1302.3 2481.8 1231.4 2886 1078.9 2884.6 1179.5 2999 1188.4 2961.9 1568.5 2912.9 1553.7 2853.5 2007.8 2581.6 2291.8 2511.7 2294.8 Z M 2868.2 1349.6 2738.9 1395.5 2856.4 1416.1 2868.2 1349.6 Z" data-holc_grade="D"/>
<path d="M 1322.7 1294.6 1321.2 1254.7 1388.1 1251.7 1377.7 1316.8 1342 1318.3 1342 1297.6 1322.7 1294.6 Z M 2222.4 1191.3 2240.2 1231.5 2239.7 1231.7 2032.1 1307.2 2030.9 1290.7 1912 1283.6 1915.6 1229.2 2089.2 1223.2 2098.7 1224.4 2222.4 1191.3 Z M 2674.2 1074.1 2285.4 1225.3 2213.3 1046.5 2271.1 1069.2 2291.1 1108.2 2319.6 1096.1 2343.9 1147.9 2650.6 1018.7 2674.2 1074.1 Z M 952.2 1044.4 895.1 1076.7 884.2 1013.6 884.7 1013.4 952.5 988.5 952.6 988.5 952.2 1044.4 Z M 2631.5 981.3 2446 1062.2 2436 1035.3 2356.9 1065.8 2334.7 1011.9 2646.5 879.1 2670.7 935.8 2630.1 953.6 2631.5 981.3 Z M 1382 740.5 1255.6 728.6 1193.2 702 1197.7 798.1 1144.2 796.7 1142.2 795.5 1096.7 700.1 1042.1 398.5 1073.3 392.6 1215.5 548.2 1389.4 668 1382 740.5 Z M 1565.2 393.8 1586.6 453 1699.5 503.8 1720.9 460.1 1565.2 393.8 1572.3 371.3 1573.5 93.3 1682.9 24.7 1953.9 115.8 2118 229.3 2161.9 64.9 2247.5 28.2 2360.5 77.9 2476.9 1 2522.1 37.7 2677.9 429.2 2547.2 481.3 2573.3 532.1 2719.6 478.9 2829 729.6 2628.1 800.6 2612.6 756.9 2562.7 769.9 2445 732.1 2439 765.2 2550.8 814.9 2573.4 848 2275 968.7 2227.4 846.9 2134.7 888.3 2156.1 964 2021.7 911.9 1995.6 972.3 2064.5 1000.7 2071.7 1022 2169.6 1052.5 1908.1 1019.9 1911 978.5 1758 913.5 1759 859.9 1696 823.2 1671 850.4 1562.8 774.7 1559.2 799.6 1543.9 793.7 1462.2 767.1 1462.2 682.8 1487.5 688.7 1493.4 567.5 1478.6 570.4 1484.5 502.4 1341.8 498 1340.3 466.9 1341.7 453 1333.3 400.9 1339.3 264.9 1350 255.4 1364.3 249.5 1373.8 236.5 1458.2 347.7 1565.2 393.8 Z M 2246.4 410.3 2227.4 629.2 2028.8 555.9 2011 602 2241.7 695.4 2320.1 504.9 2282 398.5 2246.4 410.3 Z" data-holc_grade="D"/>
</g>
</svg>