<?xml version="1.0"?>
<svg xmlns="http://www.w3.org/2000/svg" version="1.2" baseProfile="tiny" width="3000" height="3292" viewBox="0 0 3000 3292" stroke-linecap="round" stroke-linejoin="round">
<g id="A">
<path d="M 2035.3 2398.6 2045.4 2674 1851.5 2668 1829.3 2678 1908.1 2734.3 1996.9 2792.6 2061.6 2826.8 2100 2834.8 2136.3 2873 2332.3 2870.9 2370.7 2915.2 2380.8 2947.3 2342.4 3043.8 2338.4 3094.1 2310.1 3059.9 2231.3 2999.6 2184.8 2943.4 2142.4 2949.4 2144.5 3055.9 2063.6 3051.9 2059.6 2951.4 2011.1 2977.6 1944.4 2979.6 1862 2975 1849.5 2899.2 1833.3 2834.8 1801 2730.3 1625.2 2738.3 1639.4 2859 1631.3 2965.5 1548.5 2965.5 1542.4 2712.2 1405 2716.2 1409.1 2760.5 1257.6 2750.4 1260 2588.6 1261.6 2477 1405.1 2469 1560.6 2469 1609.1 2466.9 1653.5 2440.8 1762.6 2436.8 1835.3 2426.7 1841.4 2420.7 1856.9 2418 1875.7 2414.7 1966.6 2420.7 2019.1 2386.5 2035.3 2398.6 Z" data-holc_grade="A"/>
<path d="M 1862 2975 1835.3 2973.6 1805 2969.5 1631.3 2965.5 1639.4 2859 1625.2 2738.3 1801 2730.3 1833.3 2834.8 1849.5 2899.2 1862 2975 Z" data-holc_grade="A"/>
<path d="M 2063.6 3051.9 1817.2 3056 1807.1 2999.7 1835.3 2973.6 1862 2975 1944.4 2979.6 2011.1 2977.6 2059.6 2951.4 2063.6 3051.9 Z M 2310.1 3059.9 2144.5 3055.9 2142.4 2949.4 2184.8 2943.4 2231.3 2999.6 2310.1 3059.9 Z" data-holc_grade="A"/>
</g>
<g id="B">
<path d="M 2045.4 2674 2035.3 2398.6 2134.2 2428.7 2142.4 2667.9 2045.4 2674 Z" data-holc_grade="B"/>
<path d="M 1856.9 2418 1841.4 2420.7 1835.3 2426.7 1762.6 2436.8 1653.5 2440.8 1609.1 2466.9 1560.6 2469 1405.1 2469 1261.6 2477 1260.8 2319.5 1429.3 2317.1 1429.3 2379.9 1532.3 2383.5 1542 2397.9 1582 2391.9 1589.3 2407.6 1800.2 2412.4 1856.9 2418 Z" data-holc_grade="B"/>
<path d="M 2859.7 2861 2872.4 3242.8 2476.4 3251 2421.9 3174.6 2338.4 3094.1 2342.4 3043.8 2380.8 2947.3 2370.7 2915.2 2332.3 2870.9 2437.5 2875.2 2859.7 2861 Z M 1631.3 2965.5 1805 2969.5 1835.3 2973.6 1807.1 2999.7 1817.2 3056 1814.8 3091.5 1458.4 3094 1457.2 2946.8 1296 2949.2 1291.1 2843 927.5 2847.8 928.7 2677.7 985.7 2670.5 1114.2 2671.3 1112.9 2756.2 1186.9 2755 1195.4 2674.2 1179.6 2671.7 1183.2 2586.2 1260 2588.6 1257.6 2750.4 1409.1 2760.5 1405 2716.2 1542.4 2712.2 1548.5 2965.5 1631.3 2965.5 Z" data-holc_grade="B"/>
</g>
<g id="C">
<path d="M 2426.5 2574.3 2510.6 2616.3 2504.5 2262.9 2504.4 2059.1 2504.4 2048.2 2523.8 1973.4 2527.4 1866.1 2537.2 1793.7 2511.9 1722.3 2458.4 1574.6 2434.1 1520.4 2325.1 1610.8 2239.3 1651.1 2136.3 1691.3 2056 1726.3 1950.9 1767.5 1933.9 1754.2 1866.1 1634.9 1797 1544.4 1726.3 1446.1 1762.6 1435.1 1818.6 1420.2 1996.9 1372.8 2284.6 1224 2295.7 1210.9 2681.4 1201.8 2689.6 1786.6 2695.8 2068 2988.7 2065.9 2999 2657.9 2776.8 2653 2810.1 2669 2838.4 2697.2 2852.6 2729.3 2859.7 2831.9 2859.7 2861 2437.5 2875.2 2426.5 2574.3 Z" data-holc_grade="C"/>
<path d="M 1458.7 2163.8 1516.5 2165.9 1534.3 2179.5 1534.3 2225.7 1605 2248.4 1686.2 2285.8 1832.9 2340 1995.7 2380.7 2019.1 2386.5 1966.6 2420.7 1875.7 2414.7 1856.9 2418 1800.2 2412.4 1589.3 2407.6 1582 2391.9 1542 2397.9 1532.3 2383.5 1429.3 2379.9 1429.3 2317.1 1260.8 2319.5 1257.6 2253.4 1377.2 2242.4 1434.1 2267.7 1430.5 2162.8 1458.7 2163.8 Z" data-holc_grade="C"/>
<path d="M 2527.4 1866.1 2523.8 1973.4 2504.4 2048.2 2504.4 2059.1 2504.5 2262.9 2510.6 2616.3 2426.5 2574.3 2134.2 2428.7 2035.3 2398.6 2019.1 2386.5 1995.7 2380.7 1989.7 2100.3 2003.9 2096.6 1997.8 1934.9 1896.4 1933.9 1892.7 1802.5 1943.6 1803.7 1950.9 1767.5 2056 1726.3 2074.2 1796.2 2047.5 1798.7 2048.7 1871 2241.4 1874.6 2527.4 1866.1 Z" data-holc_grade="C"/>
<path d="M 1183.2 2586.2 1179.6 2671.7 1114.2 2671.3 985.7 2670.5 985.7 2645.2 1100.8 2640.4 1099.6 2583.7 1183.2 2586.2 Z M 1098.4 2522.2 1100.9 2412.4 1074.2 2407.6 1073 2097.6 1249.9 2095.2 1257.6 2253.4 1260.8 2319.5 1261.6 2477 1178.4 2484.8 1173.6 2516.1 1098.4 2522.2 Z" data-holc_grade="C"/>
<path d="M 2527.4 1866.1 2241.4 1874.6 2048.7 1871 2047.5 1798.7 2074.2 1796.2 2056 1726.3 2136.3 1691.3 2239.3 1651.1 2325.1 1610.8 2434.1 1520.4 2458.4 1574.6 2511.9 1722.3 2537.2 1793.7 2527.4 1866.1 Z" data-holc_grade="C"/>
<path d="M 992.9 2985.6 998.9 3261.1 980.7 3287.2 740.3 3291.2 625.2 2993.6 992.9 2985.6 Z" data-holc_grade="C"/>
</g>
<g id="D">
<path d="M 1445.8 1847 1458.7 2163.8 1430.5 2162.8 1434.1 2267.7 1377.2 2242.4 1257.6 2253.4 1249.9 2095.2 1073 2097.6 1004.3 2096.8 994.7 1918.3 1038.3 1915.1 1030.2 1863.6 1039.9 1810.6 1144.9 1812.2 1214.4 1759.1 1241.9 1709.3 1547.2 1706.1 1550.5 1789.7 1443.8 1797.7 1445.8 1847 Z" data-holc_grade="D"/>
<path d="M 1754.6 1631.3 1759.4 1714.5 1809.1 1735 1811.6 1792.8 1823.7 1829 1824.6 1836 1601.9 1844.7 1445.8 1847 1443.8 1797.7 1550.5 1789.7 1547.2 1706.1 1545 1589.1 1460.1 1585.4 1452.9 1520.3 1604.3 1509.5 1612.8 1546.8 1742.5 1544.4 1754.6 1631.3 Z" data-holc_grade="D"/>
<path d="M 2372.7 1023.2 2274.1 1013.6 2261.2 952.5 2169.1 917.1 1909 787 1860.6 759.6 1862.2 722.7 1876.7 603.7 1888 494.4 1839.6 491.2 1842.8 356.2 1836.3 78.1 1841.1 1 2141.5 5.8 2416 10.5 2414.4 37.9 2419.3 156.8 2425.8 179.3 2429 422 2430.7 618.1 2422.7 733.8 2417.9 870.5 2372.7 1023.2 Z" data-holc_grade="D"/>
<path d="M 155.5 1718.2 171.7 1581.5 411 1581.6 417.1 1282.1 477.7 1340.4 507 1360.5 520.1 1393.7 560.5 1420.8 583.7 1482.1 630.1 1505.3 663.4 1545.5 730.1 1588.7 730 1651 609.9 1726.3 538.2 1773.6 480.6 1810.7 242.3 1822.7 235.2 1765.4 137.3 1771.4 135.3 1720.2 155.5 1718.2 Z" data-holc_grade="D"/>
<path d="M 1950.9 1767.5 1943.6 1803.7 1892.7 1802.5 1896.4 1933.9 1997.8 1934.9 1827.8 1933.6 1832.9 2098.4 1989.7 2100.3 1995.7 2380.7 1832.9 2340 1686.2 2285.8 1605 2248.4 1603.6 2213.3 1704.5 2248.3 1699.9 2220.6 1705.5 2205 1694.4 2171.8 1611.9 2171.8 1598 2131.2 1583.2 2103.6 1539.7 2112.8 1498 2111.9 1516.5 2165.9 1458.7 2163.8 1445.8 1847 1601.9 1844.7 1606.8 1896.6 1832.2 1895.3 1824.6 1836 1823.7 1829 1811.6 1792.8 1809.1 1735 1759.4 1714.5 1754.6 1631.3 1764.3 1638.5 1798.2 1637.3 1797 1544.4 1866.1 1634.9 1933.9 1754.2 1950.9 1767.5 Z" data-holc_grade="D"/>
<path d="M 1030.2 1863.6 1038.3 1915.1 994.7 1918.3 1004.3 2096.8 1073 2097.6 1074.2 2407.6 1100.9 2412.4 1098.4 2522.2 1099.6 2583.7 1100.8 2640.4 985.7 2645.2 985.7 2670.5 928.7 2677.7 842.7 2675.7 841 2704.7 511.4 2711 492 2667.6 490.4 2571.1 451.6 2571.1 443.5 2524.4 430.6 2498.7 403.2 2453.7 406.4 2415.1 387 2350.7 374.1 2292.8 372.5 2251 366.1 2236.6 359.6 2152.9 369.4 2056.4 374.2 2009.8 78.5 2014.5 88.2 2072.4 9 2072.4 1 1953.4 88.3 1948.6 86.7 1865 303.2 1855.4 330.6 1863.5 455 1855.5 550.4 1850.7 771.8 1653 1009.3 1648.2 1012.5 1651.4 1017.3 1770.4 957.5 1770.4 959.1 1858.8 1030.2 1863.6 Z M 601.6 1943.3 601.1 1984.3 658.8 1980.5 660.7 2114.6 697.5 2110.7 698.5 1984.8 713 1983.4 714.5 1943.8 601.6 1943.3 Z M 1114.2 2671.3 1179.6 2671.7 1195.4 2674.2 1186.9 2755 1112.9 2756.2 1114.2 2671.3 Z" data-holc_grade="D"/>
<path d="M 2295.7 1210.9 2284.6 1224 1996.9 1372.8 1818.6 1420.2 1817 1227.5 1605.4 1225.9 1595.7 1449.3 1610.3 1455.8 1726.3 1446.1 1797 1544.4 1742.5 1544.4 1612.8 1546.8 1604.3 1509.5 1452.9 1520.3 1358.2 1529.7 1229 1526.5 1217.7 1327.1 1230.6 1172.8 1285.6 1166.4 1293.6 1102.1 1296.9 1058.7 1295.3 1015.3 1293.6 965.4 1301.7 888.3 1301.7 851.3 1308.2 730.7 1306.6 629.5 1317.9 502.5 1313.1 354.6 1842.8 356.2 1839.6 491.2 1888 494.4 1876.7 603.7 1862.2 722.7 1860.6 759.6 1909 787 2169.1 917.1 2261.2 952.5 2274.1 1013.6 2372.7 1023.2 2295.7 1210.9 Z" data-holc_grade="D"/>
</g>
</svg>