<?xml version="1.0"?>
<svg xmlns="http://www.w3.org/2000/svg" version="1.2" baseProfile="tiny" width="3000" height="2478" viewBox="0 0 3000 2478" stroke-linecap="round" stroke-linejoin="round">
<g id="B">
<path d="M 204 1094.7 176.7 1094.7 176 997.3 173.9 897.6 175 836.4 172.8 750.3 174.8 674.7 206.5 670.1 206.2 754.3 206.7 792.9 355.2 792.7 351.7 888.5 348.4 1027 490.7 1027.9 492 897.5 495 892.9 516.4 893.7 515.9 793 628.4 792.8 631.7 665.1 811.6 666.5 813.5 735.1 814.6 793.4 969.9 794.2 970.7 668.9 1149.6 670.6 1176.1 662.2 1177.8 629.6 1218.7 630.9 1289.1 766.4 1291 773.7 1321.4 804 1184.8 857.7 1236.5 918.7 1226.2 923.8 1190.7 926.5 1151.4 883.6 1148.7 933.3 1138.4 938.4 1104.5 934.3 1079.6 931.1 1068.2 928.9 1046.5 937.6 1037.1 949.2 1020 969.1 974.7 1001.5 976.1 913 926.8 911.4 924.6 1035.8 757.3 1034.4 757.1 1094.4 722.4 1101.1 686.6 1118.1 586 1181.3 584.9 1195.3 539.7 1194.2 538.9 1166.4 445.1 1164.2 445.9 1148.5 326.1 1143.6 326.9 1097.2 204 1094.7 Z M 1049.2 718.3 1049.7 764.6 1097.2 763.9 1097 718.7 1049.2 718.3 Z M 595.2 943.1 595.9 980 630.9 979.8 631.6 943.4 595.2 943.1 Z" data-holc_grade="B"/>
<path d="M 1089.9 311.7 1156.8 319.5 1155 450 1140.1 450.4 1150.5 470.2 1148.2 595.8 892.1 589.4 899.1 315.3 899.5 306.3 951.1 307.4 994.1 312 1056.6 312.8 1079.7 311 1089.9 311.7 Z" data-holc_grade="B"/>
<path d="M 1451.2 243.3 1592.4 247.6 1670.8 250 1600.3 532.9 1588.2 529.1 1575 521.6 1553.8 506.2 1490.9 476.9 1469.7 471.5 1446.9 471.9 1422 464.4 1387.4 460.8 1341.2 463 1331.1 466.5 1297.7 471.2 1253 495.7 1231.7 519.3 1218.7 547.8 1215.3 571.2 1212.8 575.7 1197.2 556.4 1196.4 549.5 1205.3 529.8 1224 497.8 1241 483.4 1295.8 454 1312.8 452.2 1331.3 445.2 1370.1 443.6 1435 444.8 1449.8 449.2 1461.9 449.6 1543.9 323.1 1498 314.7 1495.2 324.2 1436 326.7 1446.9 403 1310.1 397 1310.9 327.4 1435.8 325.2 1426.9 242.3 1451.2 243.3 Z" data-holc_grade="B"/>
</g>
<g id="C">
<path d="M 432.9 304 562.7 308.4 563.7 397.2 565.3 484.9 566.4 667.9 356.1 668.1 355 439.8 441 438.7 432.9 304 Z" data-holc_grade="C"/>
<path d="M 1210.7 1761.8 1166.4 1762.2 1056.6 1759.9 909.7 1759.4 909 1707 882.3 1706.3 881.5 1759.3 655.5 1758.4 656.6 1578 659.5 1575.5 661.3 1475.7 724.9 1475.4 725.3 1468.9 879.6 1470.4 880.7 1512.1 918.3 1511.8 918.3 1566.2 1065.8 1565.5 1066.1 1551.1 1085.3 1551.1 1087.5 1416.8 1122.5 1417.9 1122.9 1412.5 1209.6 1415.7 1198.1 1435.1 1266.7 1489.5 1220.5 1551.1 1237.8 1550.7 1238.9 1571.6 1259.1 1571.2 1259.8 1762.1 1210.7 1761.8 Z M 947 1658.1 998.3 1658.4 998.7 1607.7 951.7 1606.9 945.5 1615.2 944.5 1651.9 947 1658.1 Z" data-holc_grade="C"/>
<path d="M 1802.6 1399.1 1802 1608.7 1631.7 1611.3 1632.6 1748.8 1295.3 1749.4 1295.1 1706.7 1317.4 1706.5 1314.7 1522.8 1343.4 1523.3 1342.7 1484.4 1314.1 1483.9 1313.4 1439.8 1421.8 1440.7 1421.3 1395.1 1657.3 1397 1802.6 1399.1 Z M 1478.6 1416.6 1478 1463.6 1514.5 1463.4 1515.4 1417.5 1478.6 1416.6 Z" data-holc_grade="C"/>
<path d="M 2164.5 1950.4 2201.7 1951.1 2349.2 1950.7 2352.8 2057.6 2166.7 2058.8 2164.5 1950.4 Z M 2307.2 1802.7 2160.1 1805.3 2159.4 1733.6 2339 1730.7 2340.8 1798.4 2307.2 1802.7 Z M 1802 1608.7 1802.6 1399.1 1808.2 1399.1 1967.1 1397.5 1967.6 1295.7 2156 1295.7 2155.2 1257.1 1968.7 1254.4 1967.9 1227.4 2026.7 1226.1 2027.8 1171 2049.2 1171.3 2049.4 1158.1 2073 1153.2 2113.1 1191.3 2170.6 1205.3 2177.7 1164.5 2259.8 1176.6 2256.3 1198 2309.4 1224.7 2283.9 1287.3 2330.8 1309.7 2333 1316.5 2331.4 1335.9 2254.9 1299.2 2236.2 1390.5 2309.7 1390.5 2311.6 1436.4 2268.5 1437.7 2268.3 1578.4 2184.2 1579.8 2183.7 1524.1 2124.9 1525.5 2125.7 1586 2025.1 1584.7 2024.9 1609.8 1802 1608.7 Z M 2211.2 1447.5 2209 1534.6 2241.8 1535.2 2242.9 1449.5 2211.2 1447.5 Z" data-holc_grade="C"/>
<path d="M 1669.5 1806.5 1670.7 1904.4 1632.2 1903.3 1631.6 2082.1 1449.5 2084.8 1447.6 1978.4 1407.2 1978.1 1407.4 1927.9 1273.8 1924.6 1273.5 1843.6 1412.3 1842.8 1411.2 1794.7 1318 1793.1 1317.7 1778 1271.1 1777.4 1271.1 1763.7 1295.5 1763.9 1295.3 1749.4 1632.6 1748.8 1668.8 1748.6 1669.5 1806.5 Z" data-holc_grade="C"/>
<path d="M 1669.5 1806.5 1668.8 1748.6 1853.2 1746.2 1895.2 1747.3 1935.6 1748.1 1981.1 1746.5 1986.6 2027.6 1985.5 2036 1979.8 2046.2 1971.4 2053.8 1796.5 2054.1 1796.3 1806.7 1669.5 1806.5 Z" data-holc_grade="C"/>
<path d="M 2825.6 1562 2824.6 1638.1 2823.8 1668.9 2815.4 1723.7 2815.9 1744 2940.1 1746.9 2999 1928.9 2677.5 1935.2 2678.5 1854.2 2613.7 1853.1 2611.8 1782.9 2611 1751.6 2643.3 1752.9 2706.4 1754.5 2703.7 1628.2 2764.9 1629.8 2767.4 1614.1 2768.1 1536.9 2825.6 1562 Z M 2705.4 1527 2706 1542.9 2631.2 1540.8 2628.4 1490.5 2638.5 1474.6 2691.1 1499.2 2682.9 1517.5 2705.4 1527 Z M 2552 1587.3 2554.6 1748.2 2437.5 1751.1 2377.4 1631.6 2415 1633 2411.7 1373.1 2560.6 1439.3 2553.4 1454.4 2552 1587.3 Z" data-holc_grade="C"/>
<path d="M 658.1 162.6 660.5 194 565.9 152.2 566 113.7 656.3 161.2 658.1 162.6 Z M 1451.2 243.3 1426.9 242.3 1315.3 237.6 1223.9 234.7 1114.1 225.7 1051.6 225 1089.9 311.7 1079.7 311 1056.6 312.8 994.1 312 951.1 307.4 899.5 306.3 899.1 315.3 715.6 222.7 717.8 192.2 758.9 216.6 821.4 245.4 895.1 277.8 954.7 280 1030.6 287.9 1037.8 286.1 970.7 122 914.3 108.7 892.6 100.1 889 52.9 925.2 57.2 975.7 68.4 1080.9 74.5 1084.5 174.2 1249.2 181.1 1248.1 20.2 1450.1 27.4 1451.5 111.3 1453.3 152.3 1451.2 178.2 1451.2 243.3 Z M 1369.5 171.5 1370.2 221.2 1426.2 221.5 1424.4 172.6 1369.5 171.5 Z" data-holc_grade="C"/>
<path d="M 1600.3 532.9 1670.8 250 1592.4 247.6 1577 217.3 1635.2 115.8 1695.1 119.1 1694.4 161.5 1755.5 165.1 1756.5 197.9 1754.4 252.6 1721.1 252.2 1678.2 425.3 1659.7 419.9 1664.1 402.7 1644.9 396.2 1644.2 418.1 1647.8 424.3 1650.7 491.2 1647.8 574.7 1642.8 585.1 1609.5 540.9 1600.3 532.9 Z" data-holc_grade="C"/>
<path d="M 1631.1 832.7 1526.9 829.1 1490.1 827.8 1491.2 804.9 1535.9 806.5 1536.2 762.5 1440.8 756.6 1446 488.3 1474.7 487.4 1500.2 493.1 1514.3 502 1528.1 513.6 1546 522.5 1557.9 527.7 1571.7 541.4 1583.9 555.5 1596.6 567.6 1622.1 588.9 1635.1 604.6 1631.1 832.7 Z" data-holc_grade="C"/>
<path d="M 176.7 1094.7 204 1094.7 204.9 1145.6 272.1 1146.2 272.8 1175.7 344.2 1176.8 345.6 1289 422.8 1266.5 423.8 1379.9 152.4 1380.9 151.3 1293.6 135.8 1287.8 120.4 1286.4 116.5 1158.2 115.5 1084.9 176 1104.4 176.7 1094.7 Z" data-holc_grade="C"/>
<path d="M 1361.6 909 1358.9 1120.7 1378.8 1120.4 1378.3 1213.1 1337 1212.9 1337.2 1237.2 1323.7 1240.8 1295.4 1245.3 1243.9 1250 1223.1 1253.4 1126.2 1316.6 1073.8 1328.8 1052.8 1324.3 927 1324.5 927.9 1237.8 910.9 1233.8 1102.9 1063.4 1119.2 1038 973 1034.6 974.9 1023.9 1008.4 1001.9 1025 992 1031.8 983.1 1195 982.4 1197 958.2 1225.2 955.5 1246.7 948.3 1271.7 933 1286.9 927.6 1312.8 906.7 1361.6 909 Z M 1153.4 1034.6 1152.3 1068 1183.6 1067.9 1184.7 1035.3 1153.4 1034.6 Z" data-holc_grade="C"/>
<path d="M 1794.8 1150.3 1625.5 1148.9 1624.5 1167.3 1603.5 1167.3 1588.5 1184.4 1570.8 1194.1 1557.8 1200.6 1533 1213.3 1521.5 1218.6 1526.9 829.1 1631.1 832.7 1765.5 835.3 1795.4 845 1790.2 1006.7 1798.4 1007.8 1794.8 1150.3 Z M 1711.3 1122.7 1745.8 1125.2 1746.9 1089 1714.5 1087.6 1711.3 1122.7 Z" data-holc_grade="C"/>
<path d="M 1794.8 1150.3 1798.4 1007.8 1790.2 1006.7 1795.4 845 1817.2 850.7 1815.2 924.2 1840.2 924.2 1840 953.5 2040.7 957.2 2041.1 901.8 2121.5 904.3 2120.1 961.2 2154.6 962.3 2155.5 1055.9 2113 1070.4 1942.5 1068.8 1940.8 1111 1882.7 1109.5 1881.2 1147.7 1795.4 1167.1 1794.8 1150.3 Z M 2106.4 818.6 2105.5 833.2 1988.1 831.6 1989 778.1 2071.4 727 2090.6 718.2 2089.9 751.3 2129.2 753.1 2145 817.9 2106.4 818.6 Z" data-holc_grade="C"/>
<path d="M 656.6 1578 655.5 1758.4 646.8 1758.3 621.1 1759.7 306.7 1757.7 139.4 1752.5 138.9 1717.7 142.2 1567.3 4.5 1596.4 1 1449.8 33.3 1442.8 88.3 1423.3 134.9 1405 150.9 1404.5 162.8 1407.2 175.3 1414.5 186.7 1425.8 195.9 1431.5 204.8 1433.4 214.9 1437.7 238.7 1442.6 258.2 1445.6 260.4 1495.2 270.1 1515 270.1 1559.5 372.3 1559.5 371.8 1512.6 518.2 1509.1 517.1 1576.3 656.6 1578 Z M 292 1577.4 291.9 1628.9 369.7 1628.1 370.1 1577.2 292 1577.4 Z" data-holc_grade="C"/>
</g>
<g id="D">
<path d="M 892.6 100.1 892.5 136.2 895.1 277.8 821.4 245.4 758.9 216.6 717.8 192.2 717.2 108.3 659.2 104.9 656.9 148.1 658.1 162.6 656.3 161.2 566 113.7 568 6.4 571.9 1 729 1.9 731.2 51.9 889 52.9 892.6 100.1 Z" data-holc_grade="D"/>
<path d="M 2328.2 305.8 2336.9 675 2141.9 674.6 2138.2 683.7 2087.6 683.1 1865.4 794.8 1846.3 766.2 1900.9 728.1 1905.2 536.6 1955.4 539.1 1956.5 493.8 1906.3 490.9 1909.1 307 2328.2 305.8 Z" data-holc_grade="D"/>
<path d="M 2336.9 675 2328.2 305.8 2358.5 305.5 2362.5 444.8 2520.7 445.5 2562.3 448.4 2561.6 502.3 2562.3 598.1 2555.5 676.9 2501.7 672.6 2336.9 675 Z" data-holc_grade="D"/>
<path d="M 2506.9 893.9 2506 836.3 2655.9 837.5 2686.6 843.6 2701.5 842.9 2701.8 939.9 2695 941.7 2672.6 938.8 2617.6 939.5 2612.6 941.5 2611.7 1032.1 2455.6 1030.5 2459.5 894.1 2506.9 893.9 Z" data-holc_grade="D"/>
<path d="M 1802.6 1399.1 1657.3 1397 1421.3 1395.1 1420.3 1335.9 1446.6 1336.5 1450.2 1298.7 1497.9 1299.2 1499.8 1278.5 1590 1278.2 1591.1 1250.6 1725.6 1250.6 1725.8 1230.9 1967.9 1227.4 1968.7 1254.4 2155.2 1257.1 2156 1295.7 1967.6 1295.7 1967.1 1397.5 1808.2 1399.1 1802.6 1399.1 Z" data-holc_grade="D"/>
<path d="M 646.8 1758.3 655.5 1758.4 881.5 1759.3 909.7 1759.4 1056.6 1759.9 1057.5 1773 1069.7 1774.3 1072.9 1781.5 1073.3 1804.9 1100.4 1809 1100.9 1958.4 1092.7 1958.9 1090.9 1995.8 1010.5 2020.1 838.8 2023.2 767.4 1942.2 733.5 1955.7 733.5 2052.4 710.9 2072.7 697.3 2059.6 621 2056.9 617 1926.8 652.2 1926.8 648.6 1798.1 646.8 1758.3 Z M 1166.4 1762.2 1210.7 1761.8 1211.1 1904 1204.3 1919.3 1177.2 1920.2 1174.5 1956.2 1171.8 1954.8 1166.4 1762.2 Z" data-holc_grade="D"/>
<path d="M 1673 2146.3 1674.8 2161.8 1805.3 2160.7 1803.9 2472.9 1620.3 2477.2 1620.6 2407 1600.7 2408.1 1601.1 2349 1460.1 2348.3 1460.1 2299.7 1294.2 2299 1293.5 2198.5 1478.9 2198.9 1478.5 2157.4 1498.8 2154.9 1499.2 2108.8 1622.4 2107.8 1626.8 2103.8 1649.5 2100.9 1649.9 2145.9 1673 2146.3 Z M 1539.7 2197.5 1573.1 2197.9 1571.7 2156.6 1539.7 2156.6 1539.7 2197.5 Z" data-holc_grade="D"/>
</g>
</svg>