<?xml version="1.0"?>
<svg xmlns="http://www.w3.org/2000/svg" version="1.2" baseProfile="tiny" width="3000" height="2395" viewBox="0 0 3000 2395" stroke-linecap="round" stroke-linejoin="round">
<g id="A">
<path d="M 1161.5 762 1145.9 769 1133.6 778 1145.4 794.1 1151.8 801.5 1150.2 806.3 1150.2 807.4 1146.5 813.3 1142.2 811.7 1132.5 798.3 1126.1 791.4 1105.7 782.3 1091.8 771.6 1054.8 764.7 1029.1 762.5 992.1 762.5 932.7 661.6 943.4 648.8 953.6 624.2 973.4 608.7 1004 593.8 1032.4 573 1056 558.5 1081.1 550.5 1091.3 536.1 1099.4 529.7 1195.8 675 1197.9 685.1 1193.1 711.3 1182.4 738 1161.5 762 Z M 1519.2 316.5 1305.4 513 1227.7 436.1 1268.9 420.6 1307 403.5 1323 394.5 1343.9 382.7 1360.6 365.6 1379.3 341.6 1397.5 324.5 1415.7 316 1431.8 306.9 1451.1 286.1 1454.3 290.9 1462.4 300 1479 278.1 1519.2 316.5 Z" data-holc_grade="A"/>
</g>
<g id="B">
<path d="M 1410.1 1240.6 1566.6 1243.4 1616.5 1244.3 1615.4 1455 1458.9 1452.1 1338.9 1447.5 1243.8 1448.1 1294.8 1377.8 1390.8 1263 1434.8 1322.3 1433.7 1361.8 1475 1361.8 1478.2 1305.7 1443.3 1307.3 1442.3 1268.3 1404.2 1247 1409.6 1240.6 1410.1 1240.6 Z" data-holc_grade="B"/>
<path d="M 2118.2 1233.5 2169.1 1235.9 2247.5 1239.6 2246.8 1294.4 2308.5 1295.7 2305.8 1344.9 2295.9 1527.4 2301.2 1576.1 2210.8 1565.5 2187.3 1565.7 2075.4 1566.9 2074 1512.8 2122.3 1513.4 2124.9 1423.3 2151.1 1421.3 2153.1 1356.5 2097.4 1356.5 2093.4 1414.6 2068.6 1415.9 2067.3 1494.1 2039.2 1497.4 2035.2 1571.6 2011.6 1571.6 1983.6 1571.6 1982.9 1532.2 1929.9 1530.2 1929.6 1500.1 1933.8 1251.2 1986.2 1252.4 1986.8 1311.1 2045.8 1311.8 2052.5 1249 2075.3 1251 2078.6 1231.6 2118.2 1233.5 Z M 2239.6 1511.4 2223.5 1460.6 2179.2 1458.6 2182.6 1511.4 2239.6 1511.4 Z" data-holc_grade="B"/>
<path d="M 2154.5 1707.8 2153.7 1743.1 2151.2 1855.4 2062.7 1854.7 2003.1 1850.7 2006.4 1785.3 2010.8 1628.6 2156.4 1623.1 2154.5 1707.8 Z" data-holc_grade="B"/>
<path d="M 1193.5 1721.9 1245.1 1723.3 1297.4 1728.6 1314.1 1741.3 1349.6 1770.7 1362.4 1777.4 1363 1893.6 1194.8 1888.2 1193.5 1721.9 Z" data-holc_grade="B"/>
<path d="M 1645.3 2028.6 1640.2 2129.9 1488.4 2128.2 1465.9 2112.1 1444.2 2095.3 1350 2193.9 1305.8 2144.2 1300.2 2018.4 1645.3 2028.6 Z" data-holc_grade="B"/>
</g>
<g id="C">
<path d="M 1305.4 513 1519.2 316.5 1532.6 338.4 1449 415.3 1435 405.7 1412.5 427.6 1426.5 445.2 1331.1 541.3 1305.4 513 Z M 1621.5 258.3 1572.2 305.8 1550.8 293.6 1555.6 282.9 1548.6 267.4 1535.8 260.5 1518.6 267.4 1485.9 232.2 1534.7 186.8 1621.5 258.3 Z M 1790.2 5.3 1792.4 57.6 1825.6 59.7 1827.2 102.4 1724.4 216.7 1680.4 271.7 1588.8 146.8 1683.1 41 1705.6 53.9 1745.8 1 1790.2 5.3 Z" data-holc_grade="C"/>
<path d="M 2057.3 990.7 2074 1007.3 2075.3 1251 2052.5 1249 2047.3 1167.6 2021.1 1162.2 2014.5 1247.7 1986.2 1252.4 1933.8 1251.2 1811.1 1248 1811.4 1208.4 1780.6 1231.7 1770.6 1220.4 1950.1 1069.5 1932 1048.8 1961.5 1020.1 1940 997.4 2023.1 937.9 2056.6 990 2057.3 990.7 Z M 2050.6 994.7 2033.2 1004.7 2047.9 1010 2050.6 994.7 Z M 1928.7 1119.5 1922 1113.5 1901.9 1126.2 1906.6 1136.2 1928.7 1119.5 Z" data-holc_grade="C"/>
<path d="M 2523.6 951.6 2522.3 1011.5 2310.6 1010.5 2302.8 1010.5 2302.7 1012 2285.1 1015.3 2214.1 1013.3 2164.5 1009.3 2166.1 1011.9 2160.7 1011.7 2125 1010.7 2102.8 996 2086.1 974 2251.5 863.7 2271 883.8 2301.1 862.4 2392.2 861 2399.6 892.4 2522.2 899.7 2523.6 951.6 Z M 2263.6 1005.3 2263.6 988.6 2245.5 983.2 2245.6 1007.3 2263.6 1005.3 Z" data-holc_grade="C"/>
<path d="M 2125 1010.7 2137 1026.7 2160.7 1011.7 2166.1 1011.9 2181.2 1036 2214.7 1019.3 2214.1 1013.3 2285.1 1015.3 2283.1 1038.6 2302.2 1034.7 2297.5 1215.6 2293.2 1238 2247.5 1239.6 2169.1 1235.9 2143.1 1193.6 2111 1217.6 2118.2 1233.5 2078.6 1231.6 2075.3 1251 2074 1007.3 2102.8 996 2125 1010.7 Z M 2220.2 1202.9 2214.8 1190.9 2192 1195.6 2200.7 1212.3 2220.2 1202.9 Z" data-holc_grade="C"/>
<path d="M 2517.6 1389.7 2520.4 1573.4 2301.2 1576.1 2295.9 1527.4 2305.8 1344.9 2490.1 1345.7 2490.8 1361.7 2486.8 1369.7 2463.3 1366.4 2464 1389.7 2517.6 1389.7 Z M 2522.3 1011.5 2516.3 1286 2464.8 1232.6 2475.5 1210.1 2414.3 1169.6 2360.8 1242.2 2336.1 1213.4 2297.5 1215.6 2302.2 1034.7 2302.7 1012 2302.8 1010.5 2310.6 1010.5 2522.3 1011.5 Z" data-holc_grade="C"/>
<path d="M 1844.8 1574.9 1844.8 1524.8 1879 1528.2 1907.2 1552.2 1935.3 1573.1 1936 1573.6 1844.8 1574.9 Z M 1811.1 1248 1933.8 1251.2 1929.6 1500.1 1894.8 1496.4 1893.7 1457.9 1845.4 1454.7 1844.9 1450.5 1890.5 1445.6 1888.3 1428 1844.9 1422.7 1846.5 1354.3 1884.6 1354.3 1885.1 1321.7 1845.4 1316.9 1844.3 1348.4 1770.9 1349.5 1768.2 1389.6 1736.6 1388 1735 1462.1 1641.2 1455.5 1615.4 1455 1616.5 1244.3 1736.2 1247 1780 1248 1781.6 1279.5 1807.9 1274.2 1811.1 1248 Z" data-holc_grade="C"/>
<path d="M 1319.3 1469.9 1243.8 1556.3 1178.1 1560.3 1178.1 1530.2 1174.7 1521.6 1151.3 1558.3 1139.2 1556.3 1139.2 1719.9 1076.8 1717.2 1045.3 1713.9 1019.9 1707.9 968.9 1728.5 918 1609 1196.8 1493.5 1243.8 1448.1 1338.9 1447.5 1319.3 1469.9 Z" data-holc_grade="C"/>
<path d="M 2210.8 1565.5 2209.5 1691 2289.9 1691.7 2288 1856 2151.2 1855.4 2153.7 1743.1 2177.3 1742.5 2178.6 1707.7 2154.5 1707.8 2156.4 1623.1 2157.2 1587.5 2188 1588.2 2187.3 1565.7 2210.8 1565.5 Z M 2010.8 1628.6 2006.4 1785.3 1952.1 1784.6 1953.8 1729.6 1954.6 1704.9 1956.9 1627.8 2010.8 1628.6 Z M 2052.3 2353.1 1946.2 2353.1 1948.2 2136.6 1952.9 2129.3 1951.5 2027.7 2054.7 2031.1 2063.5 2031.1 2052.3 2353.1 Z M 1995.1 2171.4 2019.2 2172.7 2017.9 2148.6 1991.8 2148.6 1995.1 2171.4 Z" data-holc_grade="C"/>
</g>
<g id="D">
<path d="M 1566.6 1243.4 1410.1 1240.6 1444.4 1206.4 1443.9 1169 1523.8 1169.5 1524.8 1202.1 1546.8 1201.6 1548.9 1221.9 1567.7 1220.8 1566.6 1243.4 Z M 1932 1048.8 1950.1 1069.5 1770.6 1220.4 1746.4 1199.9 1721.6 1221.9 1736.2 1247 1616.5 1244.3 1611.7 1179.2 1640.5 1179.2 1649.9 1191.2 1682.7 1169.2 1682 1154.5 1728.9 1118.4 1739 1126.4 1761.1 1108.4 1747.7 1089.7 1765.1 1073.7 1779.8 1096.4 1858.9 1032.3 1893.7 1078.3 1932 1048.8 Z M 2532.1 664.2 2528.4 786.7 2527.4 820.8 2473.5 816 2474.2 707.1 2442.9 715.9 2442.9 766.3 2357.7 764 2351.3 712.7 2316.7 708.7 2301.1 862.4 2283.8 841.7 2251.5 863.7 2086.1 974 2057.3 990.7 2056.6 990 2023.1 937.9 2007.2 914.7 2041.8 892.3 2027.3 868.2 2086 827.4 2102.1 849 2135.1 827.4 2094.9 821 2134.2 775.3 2134.2 764.9 2165.6 713.6 2172.8 697.6 2168 688.8 2218.6 603.8 2205.7 584.6 2241 514.1 2319 550.9 2312.6 608.6 2413.1 606.2 2416.3 581.3 2441.2 581.3 2443.7 608.5 2481.4 610.1 2485.5 636.6 2532.9 638.1 2532.1 664.2 Z M 2281.3 662.3 2305.4 677.5 2306.2 638.2 2292.5 636.6 2281.3 662.3 Z" data-holc_grade="D"/>
<path d="M 2528.4 786.7 2532.1 664.2 2643 667.4 2640.5 557.6 2999 557.4 2981.6 910.6 2751.7 904.4 2754 786.6 2528.4 786.7 Z M 2719.5 751.8 2723.4 679.7 2707.4 678.1 2701.8 751.8 2719.5 751.8 Z M 2799 674 2777.3 675.6 2778.9 700.5 2799 701.2 2799 674 Z" data-holc_grade="D"/>
<path d="M 2520.4 1573.4 2517.6 1389.7 2516.3 1286 2522.3 1011.5 2523.6 951.6 2861.3 948.2 2862.4 1015.5 2832.4 1016.6 2828.1 1112.7 2871 1111.6 2872.2 1313.5 2822.9 1292.2 2820.8 1355.2 2801.5 1364.9 2800.5 1456.7 2638.6 1455.8 2765.2 1573.2 2520.4 1573.4 Z M 2727.4 1133.1 2703.8 1134.2 2703.9 1235.6 2726.4 1242 2727.4 1133.1 Z M 2633 1106.4 2588 1107.5 2592.4 1235.7 2632 1240 2633 1106.4 Z M 2684.5 1086.1 2680.1 1043.4 2645.8 1044.5 2645.9 1095.7 2684.5 1086.1 Z" data-holc_grade="D"/>
<path d="M 460.2 1622.8 420 1699.6 395.9 1671.5 334.9 1718.9 294.7 1675.5 324.2 1644.8 304.8 1630.1 321.5 1618.1 339.6 1634.1 361.1 1622.1 369.8 1620.8 403.9 1655.5 452.2 1616.1 460.2 1622.8 Z M 290.3 1461.7 220.6 1491 175.7 1472.3 177.8 1458.9 199.9 1455.6 205.9 1470.3 218.6 1464.3 214 1452.3 271.6 1418.9 290.3 1461.7 Z M 92.9 1133.7 82.8 1147.7 104.2 1185.1 74.1 1205.1 78.7 1265.2 132.9 1366.7 84 1400.1 1 1248.4 11.8 1155 38.6 1142.3 55.4 1145 84.2 1121.7 92.9 1133.7 Z" data-holc_grade="D"/>
<path d="M 968.9 1728.5 964.9 1893.5 627 1881.4 631.2 1628.9 853.7 1632.3 918 1609 968.9 1728.5 Z M 783.9 1689.7 768.5 1689.7 769.2 1738.5 783.9 1739.8 783.9 1689.7 Z M 949.5 1726.5 928 1722.5 921.3 1708.5 894.5 1715.8 905.2 1734.5 930 1728.5 940.1 1747.9 948.1 1743.9 949.5 1726.5 Z M 852.9 1829.4 905.9 1827.4 909.3 1780 811.4 1779.3 808 1868.7 846.9 1871.4 852.9 1829.4 Z" data-holc_grade="D"/>
<path d="M 1727.7 2026.8 1722.9 2247.6 1634.8 2237.2 1640.2 2129.9 1645.3 2028.6 1651.7 1901.3 1731.8 1900.4 1727.7 2026.8 Z M 1735 1462.1 1727 1678.5 1729.7 1798.7 1647.2 1799.4 1519.2 1794.7 1519.9 1677.9 1542.7 1676.5 1542.7 1567 1483.7 1568.3 1485.7 1677.2 1440.1 1677.9 1416.7 1685.2 1357.7 1711.9 1292 1667.8 1291.3 1557 1316.8 1556.3 1319.3 1469.9 1338.9 1447.5 1458.9 1452.1 1615.4 1455 1641.2 1455.5 1735 1462.1 Z M 1652.6 1645.1 1651.9 1674.5 1688.8 1673.2 1690.8 1647.8 1652.6 1645.1 Z" data-holc_grade="D"/>
<path d="M 2301.2 1576.1 2520.4 1573.4 2514.5 1920.9 2400.2 1918.6 2400.3 1976.3 2418.8 2031.6 2379.9 2041 2368.5 2127.1 2294.1 2129.8 2282.1 2171.9 2280.1 2241.4 2180.8 2241.4 2182.9 2257.5 2172.8 2343.7 2157.4 2346.3 2160.8 2389.8 2050.8 2394.5 2052.3 2353.1 2063.5 2031.1 2054.7 2031.1 2066.8 1954.9 2116.4 1960.1 2115 1912.7 2069.5 1912 2066.8 1954.9 2058.2 1954.1 2046 1952.9 2040.6 1914.2 1951.5 1916.9 1951.5 2027.7 1952.9 2129.3 1948.2 2136.6 1946.2 2353.1 1720.6 2353.3 1722.9 2247.6 1727.7 2026.8 1866.5 2027.4 1863.1 1981.3 1830.9 1977.3 1832.3 1906.5 1785.3 1904.5 1782.7 1971.3 1731.7 1972.7 1727.7 2026.8 1731.8 1900.4 1729.7 1798.7 1727 1678.5 1843.5 1678.3 1844.8 1574.9 1936 1573.6 1935.3 1573.1 2011.6 1571.6 2010.8 1628.6 1956.9 1627.8 1954.6 1704.9 1926.1 1704.2 1926.1 1726.9 1953.8 1729.6 1952.1 1784.6 1955.5 1850.1 2003.1 1850.7 2062.7 1854.7 2151.2 1855.4 2288 1856 2289.9 1691.7 2209.5 1691 2210.8 1565.5 2301.2 1576.1 Z M 2434.7 1689.5 2399.2 1684.8 2401.2 1713.5 2432.7 1714.8 2434.7 1689.5 Z M 2397.2 1861.8 2373.8 1857.1 2373.8 1885.8 2396.6 1887.8 2397.2 1861.8 Z M 1833 2121.6 1833.6 2099.6 1808.8 2098.9 1807.5 2121.6 1833 2121.6 Z M 2318.2 1979.4 2288 1982.1 2288.7 1996.8 2264.6 1998.1 2259.9 2032.2 2316.2 2034.8 2317.5 2016.1 2343.7 2016.8 2339.6 1990.7 2320.9 1991.4 2318.2 1979.4 Z M 2204.9 1983.4 2175.4 1980.1 2173.4 2001.5 2119.1 2001.5 2119.8 2031.3 2202.9 2031.7 2204.9 1983.4 Z M 2243.2 2154.6 2247.2 2134.5 2225.1 2129.2 2225.1 2164.6 2232.4 2168.6 2243.2 2154.6 Z" data-holc_grade="D"/>
</g>
</svg>