<?xml version="1.0"?>
<svg xmlns="http://www.w3.org/2000/svg" version="1.2" baseProfile="tiny" width="3000" height="3904" viewBox="0 0 3000 3904" stroke-linecap="round" stroke-linejoin="round">
<g id="B">
<path d="M 2060.6 3220.7 2027.4 3211.5 1947.7 3161.9 1848.1 3147 1868 2819.4 1613.9 2829.4 1584 2546.4 1838.1 2541.5 1638.8 2333 1599 2223.9 1354.9 2228.8 1307.6 2031.5 1496.8 1981.9 1671.2 1892.6 1805.6 1843 1937.6 1833 2045.7 1768.8 2326.1 1602.2 2371 1773.4 2415.8 1870.2 2525.4 1947.1 2652.4 2071.1 2749.6 2284.5 2819.4 2458.2 2652.5 2418.5 2396 2450.8 2443.3 2565 2485.7 2634.5 2535.5 2676.6 2577.8 2723.8 2607.7 2783.3 2570.4 2820.6 2523.1 2840.4 2493.2 2872.7 2470.8 2919.9 2428.4 2954.6 2458.3 3019.1 2433.4 3133.3 2525.6 3190.4 2540.6 3254.9 2577.9 3339.3 2652.7 3438.5 2804.7 3527.8 2999 3602.3 2884.5 3870.3 2727.5 3902.6 2617.9 3882.8 2461 3897.7 2401.2 3886.6 2485.8 3558.9 2565.5 3494.4 2515.7 3429.9 2460.9 3290.9 2251.6 3147 2181.9 3201.6 2117.1 3236.3 2060.6 3220.7 Z" data-holc_grade="B"/>
<path d="M 2060.6 3220.7 2020 3309.6 1733.5 3354.2 1643.8 3312.1 1529.2 3279.8 1409.7 3267.4 1348.8 3211 1232.8 3103.6 1063.4 3066.3 1115.7 2795.8 1113.3 2359.1 1384.8 2369 1354.9 2228.8 1599 2223.9 1638.8 2333 1838.1 2541.5 1584 2546.4 1613.9 2829.4 1868 2819.4 1848.1 3147 1947.7 3161.9 2027.4 3211.5 2060.6 3220.7 Z" data-holc_grade="B"/>
<path d="M 661.2 2522.4 816.9 2555.5 854.2 2592.7 839.7 2656.8 818.9 2822.3 696.5 2836.7 528.3 2832.6 289.6 2813.9 318.7 2669.2 335.3 2607.1 564.4 2511.7 620.8 2548.1 661.2 2522.4 Z" data-holc_grade="B"/>
<path d="M 1321.9 3605 1371.3 3663.3 1387.9 3716.3 1324.8 3795.7 1208.6 3808.9 1118.9 3789.1 1075.7 3792.4 932.9 3805.6 896.3 3759.3 859.8 3666.6 876.4 3570.6 951.3 3488.2 1006.1 3500.7 1093.3 3567.7 1282.6 3602.4 1321.9 3605 Z" data-holc_grade="B"/>
</g>
<g id="C">
<path d="M 1630.4 1353.9 1703.4 1420 1776.5 1545.7 1846.2 1641.7 1922.6 1707.8 2045.7 1768.8 1937.6 1833 1805.6 1843 1671.2 1892.6 1496.8 1981.9 1307.6 2031.5 1354.9 2228.8 1384.8 2369 1113.3 2359.1 1115.7 2795.8 1063.4 3066.3 1232.8 3103.6 1348.8 3211 1334.9 3279.8 1339.9 3356.7 1352.4 3428.7 1334.9 3483.3 1434.6 3612.4 1321.9 3605 1282.6 3602.4 1093.3 3567.7 1006.1 3500.7 951.3 3488.2 884 3500.7 784.4 3485.7 732.1 3401.4 617.5 3411.7 445.2 3395.1 98.5 3455 48.7 3397.1 9.3 3281.3 1 3221.3 98.6 3179.9 165 3128.3 210.7 3051.7 131.8 3004.2 102.8 2915.2 104.9 2820.1 140.2 2714.6 179.7 2631.9 298 2615.4 335.3 2607.1 318.7 2669.2 289.6 2813.9 528.3 2832.6 696.5 2836.7 818.9 2822.3 839.7 2656.8 854.2 2592.7 816.9 2555.5 661.2 2522.4 694.4 2423.1 742.2 2373.5 806.5 2348.7 839.7 2253.6 862.6 2133.7 800.3 2048.9 802.4 1962 846 1807 783.6 1783.9 743.8 1740.9 743.8 1615.1 966.3 1608.6 973 1340.6 1036.1 1135.5 1135.7 1009.8 1158.9 1099.1 1258.5 1201.7 1378 1274.5 1461 1350.5 1481 1390.2 1573.9 1390.2 1630.4 1353.9 Z" data-holc_grade="C"/>
</g>
<g id="D">
<path d="M 1630.4 1353.9 1573.9 1390.2 1481 1390.2 1461 1350.5 1378 1274.5 1258.5 1201.7 1158.9 1099.1 1135.7 1009.8 1036.1 1135.5 973 1340.6 966.3 1608.6 743.8 1615.1 697.3 1615.1 707.3 1281 737.2 1228.1 790.4 1155.3 800.3 1075.9 793.7 1009.8 807 960.2 886.7 897.3 876.7 761.7 840.2 655.9 790.4 593 747.3 526.8 704.1 563.2 651 556.6 591.2 540.1 587.9 480.5 617.8 424.3 667.6 371.4 753.9 364.8 853.5 351.6 936.5 301.9 939.9 252.3 923.3 196.1 956.5 159.7 1046.1 103.5 1095.9 126.7 1132.4 113.4 1238.6 57.2 1364.8 1 1398 67.1 1364.8 110.1 1431.2 239.1 1490.9 262.3 1600.5 262.3 1623.7 318.5 1686.8 354.9 1739.9 338.4 1776.4 328.4 1952.4 427.6 2005.5 427.6 2038.7 447.5 2081.8 490.5 2138.3 457.4 2125 430.9 2134.9 391.2 2208 378 2300.9 447.5 2460.3 520.2 2384 616.1 2218 510.3 1700.1 784.9 1524.1 937 1560.6 986.7 1411.2 1178.5 1461 1201.7 1500.9 1251.3 1560.6 1334 1630.4 1353.9 Z" data-holc_grade="D"/>
</g>
</svg>