<?xml version="1.0"?>
<svg xmlns="http://www.w3.org/2000/svg" version="1.2" baseProfile="tiny" width="3000" height="2227" viewBox="0 0 3000 2227" stroke-linecap="round" stroke-linejoin="round">
<g id="A">
<path d="M 1882.4 627.6 1862.6 629 1861.4 612.6 1880.8 611.7 1882.4 627.6 Z" data-holc_grade="A"/>
<path d="M 593.6 724.1 589.1 810.4 574.3 817.1 552 824.6 532.8 832.5 515 841.8 508.2 846.4 497.6 851.7 497.8 846.4 462.6 855.1 461.8 839.9 444.2 839.3 461.1 821.6 469.7 805.5 481.9 786.5 493.2 771.8 505.8 761.6 526.5 746.5 537.6 739.4 550.8 733.1 563.3 730 578.8 727.5 593.6 724.1 Z" data-holc_grade="A"/>
<path d="M 739.5 676.5 735.9 730.8 717.8 737.1 722 674.8 739.8 672.2 739.5 676.5 Z" data-holc_grade="A"/>
<path d="M 786.7 797 794.1 797.4 793.5 808.7 844.4 812.7 847.6 813.4 853.4 817 855.9 819.2 857.3 821.9 857.9 829.6 859.8 874.4 868.2 886.9 860.4 900.4 856.6 902 853.6 905.7 848 910.8 844.8 913.9 841.2 915.8 836.1 916.7 832.1 917.5 829.2 918.4 825 919.8 794.1 918.5 789.9 915 786.6 912.9 781.9 911.3 777.1 909.4 772.2 908.1 769.2 906.3 765.9 903.5 761.3 898.9 759.8 895.2 760 890.6 761.5 883.1 762.8 878.2 762.5 874.1 761.4 870 759.7 867.9 756.8 864.5 756.8 859.3 762.9 819.5 763 815.8 759.8 808.6 756.4 800 754.6 793.1 786.7 797 Z" data-holc_grade="A"/>
<path d="M 914.2 696.6 957.6 691.3 943.8 856.3 942.4 885.8 898.2 885.1 897.6 862.2 914.2 696.6 Z" data-holc_grade="A"/>
<path d="M 1201.1 496.7 1190.5 575.6 1129.8 568.2 1131.2 565.4 1132.9 561.2 1132.9 557.9 1132.9 554.3 1132.1 552.2 1150.3 411.3 1151.3 410.1 1210.1 415.7 1201.1 496.7 Z M 1209.3 390.7 1154.9 385.4 1169.1 239.3 1225.3 245 1209.3 390.7 Z" data-holc_grade="A"/>
<path d="M 1602.7 127 1589.8 131.5 1582 133.2 1576.2 133.7 1494.5 168.1 1457.1 170.1 1387.7 160.6 1384.5 146.9 1380.6 128.7 1378 118.1 1370.3 99.9 1367 89.6 1365.8 82 1365.1 74.8 1367 65.6 1373.8 54.4 1382.9 44.6 1386.7 38.2 1388.3 32.3 1389 25.9 1387.7 16.1 1385.8 7.7 1443.5 2.1 1456.1 1 1473.6 4.4 1491 9.7 1501.3 16.4 1515.2 25.6 1528.4 36.2 1539.1 43.2 1560.4 47.7 1573 48.5 1591 48.5 1601.4 48.5 1600.4 68.6 1598.8 91.8 1598.8 100.2 1600.4 113.9 1602.7 127 Z" data-holc_grade="A"/>
<path d="M 2064.6 453 2055.4 456 2054 427.7 2007.7 430.2 2000.5 342.5 2070.4 338.1 2077.2 440.7 2072.9 441.9 2066.8 445.3 2064.9 448.6 2063.9 450.1 2064.6 453 Z" data-holc_grade="A"/>
<path d="M 2104.1 526.3 2059.1 547.2 2024.7 488.9 2044.8 478.8 2064.1 464.8 2104.1 526.3 Z" data-holc_grade="A"/>
<path d="M 1126.7 1460.6 1096.7 1441.6 1098 1438 1099.6 1439.1 1170.6 1245.6 1189.1 1252.2 1206.6 1253.8 1197.5 1306.2 1183.8 1366.7 1157.6 1478.1 1126.7 1460.6 Z" data-holc_grade="A"/>
</g>
<g id="B">
<path d="M 2178 766 2143.5 767.7 2142.5 751.5 2177 749 2178 766 Z" data-holc_grade="B"/>
<path d="M 515.1 657.7 509.9 739.4 508.7 741.9 504.9 744.1 498.2 747.7 492.6 752.1 485.8 757.9 488.8 677.6 489.5 657.4 515.1 657.7 Z" data-holc_grade="B"/>
<path d="M 1777.5 722.9 1777.2 722.3 1774.7 722.3 1766.9 722.4 1744.3 689 1761.3 688.1 1792.9 686.5 1795.6 720.9 1777.5 722.9 Z" data-holc_grade="B"/>
<path d="M 2089.6 595.4 2059.1 547.2 2104.1 526.3 2134.6 573.2 2089.6 595.4 Z" data-holc_grade="B"/>
<path d="M 2240.9 441.5 2221 439.2 2212.5 439.2 2205.3 439.8 2192.9 440.9 2175 439.8 2158.3 439 2119.1 441.5 2096.6 445.3 2066.1 456.8 2064.6 453 2063.9 450.1 2064.9 448.6 2066.8 445.3 2072.9 441.9 2077.2 440.7 2070.4 338.1 2144.5 334.2 2143.1 304 2168.7 302.9 2171.4 331.4 2231.9 328.9 2240.9 441.5 Z" data-holc_grade="B"/>
<path d="M 2474.4 872.8 2464.1 908.3 2442.2 902.5 2444.7 891.6 2429.9 888.2 2437.3 863.6 2474.4 872.8 Z" data-holc_grade="B"/>
<path d="M 2215.6 1565.9 2222.9 1506.1 2187.8 1506.5 2187.8 1489.3 2243.4 1486.9 2238.6 1563.8 2215.6 1565.9 Z" data-holc_grade="B"/>
<path d="M 1578.8 1660.9 1648.4 1616.3 1686.7 1662.2 1609.7 1708.3 1578.8 1660.9 Z" data-holc_grade="B"/>
<path d="M 1279.5 1538.3 1292.3 1676.9 1266.9 1678.3 1258.2 1587.1 1256.5 1571.8 1251.3 1516.3 1277.3 1514.9 1279.5 1538.3 Z" data-holc_grade="B"/>
<path d="M 1160.9 1479.9 1157.6 1478.1 1183.8 1366.7 1197.5 1306.2 1235.7 1325.9 1272 1274.9 1278.8 1279.6 1283.3 1287.1 1287.7 1296.9 1287.9 1304.3 1286.7 1315.3 1285.7 1324 1280.9 1330.3 1275.8 1335.6 1258.1 1345.2 1274.6 1482.9 1202.4 1488.7 1201.4 1504.6 1160.9 1479.9 Z" data-holc_grade="B"/>
<path d="M 1066.6 1364.9 1063.8 1363.6 1000.2 1462.6 976.4 1448.6 1093.6 1286.6 1055.4 1260.6 1002.2 1216.2 1018.3 1201.4 1129.6 1287 1083.8 1373.1 1066.6 1364.9 Z" data-holc_grade="B"/>
<path d="M 1170.6 1245.6 1099.6 1439.1 1098 1438 1096.7 1441.6 1075.1 1503.7 1095.1 1508.5 1100.6 1492.5 1119.9 1497.8 1126.7 1460.6 1157.6 1478.1 1160.9 1479.9 1148.7 1573.9 1084.1 1563 1041.5 1552.7 1023.4 1546.5 999.2 1536.2 1075.4 1388.5 1066.6 1364.9 1083.8 1373.1 1129.6 1287 1018.3 1201.4 1022 1198.1 1030.2 1203.1 1042.5 1192.2 1088.6 1228.8 1093.8 1223.5 1140.3 1259.3 1148.7 1245.8 1153.8 1235.6 1157.1 1237.5 1170.6 1245.6 Z M 1141.2 1306 1132.5 1303.2 1093.5 1370.3 1104.1 1374.5 1141.2 1306 Z" data-holc_grade="B"/>
<path d="M 589.1 810.4 593.6 724.1 606.2 722.9 614.2 720.5 618.4 718.7 623.4 716.2 629.1 714.1 654.9 714.6 651.3 783 589.1 810.4 Z" data-holc_grade="B"/>
<path d="M 976.4 1448.6 965.3 1463.8 944.8 1449.4 922.2 1476.1 909.4 1491.3 918 1496.2 873.4 1549.4 866.9 1546.1 827.2 1596.4 818.1 1591.2 813.7 1588.1 860.2 1526.6 856.6 1523.7 903.2 1465.1 892.1 1460.3 920.4 1425 929.9 1430.9 940.5 1417.9 857.3 1350.6 870.8 1338.1 950.7 1406.2 1022.5 1307.2 959.3 1255.5 1002.2 1216.2 1055.4 1260.6 1093.6 1286.6 976.4 1448.6 Z" data-holc_grade="B"/>
<path d="M 801.9 1687.3 777.7 1671 803.6 1639.1 786.9 1630.1 818.1 1591.2 827.2 1596.4 866.9 1546.1 873.4 1549.4 918 1496.2 958.7 1521.1 917.7 1582.4 890.6 1566.6 801.9 1687.3 Z" data-holc_grade="B"/>
<path d="M 1074 1575.7 1048.6 1645.8 1076.4 1654.4 1078.1 1646.7 1115.4 1653.6 1108.3 1678.5 1132.8 1682.9 1165.7 1683.8 1164 1711.9 1192.8 1716.1 1191.6 1723 1190.7 1740.8 1160.2 1740.8 1161.6 1755.1 1116.1 1753.9 1068.2 1744 1056.6 1724.9 1060 1711.5 1036 1706.7 1025.1 1744.2 991.5 1739.2 989 1751.3 975.2 1748.4 930.7 1733.5 934.1 1727 903.6 1714.8 920.3 1682.7 994.6 1543.9 1074 1575.7 Z" data-holc_grade="B"/>
<path d="M 686.4 651.5 653.2 668.2 658.3 581 689.3 581.5 686.4 651.5 Z" data-holc_grade="B"/>
<path d="M 735.9 730.8 739.5 676.5 745.7 673 751.4 670.1 759 667.5 762.9 667.1 767.5 667.3 770.5 668.5 773.8 671.4 775.3 678.8 774.1 708.8 773.5 713 772 715.7 768.9 718.4 735.9 730.8 Z" data-holc_grade="B"/>
<path d="M 824.1 722.9 828 723.9 830.7 724.1 834.7 722.9 836.7 721.7 838.5 719.5 838.9 717 838.6 715.1 838.5 712.1 838 708.1 837.7 704.8 866.4 699.9 864.3 731.4 830.6 730.2 827.5 727.4 824.1 722.9 Z" data-holc_grade="B"/>
<path d="M 868.2 886.9 859.8 874.4 857.9 829.6 857.3 821.9 855.9 819.2 853.4 817 847.6 813.4 844.4 812.7 793.5 808.7 794.1 797.4 786.7 797 792.7 729.9 808.2 726.3 807.4 742.3 808.7 744.8 815.3 753.1 820.6 760.7 826.7 769.7 833.7 783.1 848.4 799.8 880 830.9 887.2 835.2 891.7 836.3 889.3 855.6 889.5 859.8 890.6 886.6 868.2 886.9 Z" data-holc_grade="B"/>
<path d="M 1150.3 411.3 1132.1 552.2 1118.8 550.8 1127.3 471.3 1109.4 470.5 1116.9 408 1150.3 411.3 Z M 1169.1 239.3 1154.9 385.4 1137.7 383.7 1152 237.6 1169.1 239.3 Z" data-holc_grade="B"/>
<path d="M 1199.7 703.2 1143.8 697.7 1140.8 696 1139.6 693.5 1144.5 645.3 1230.1 601.1 1260.7 664 1205.5 658.5 1199.7 703.2 Z" data-holc_grade="B"/>
<path d="M 1506.1 856.4 1361.1 757.4 1469.9 767.5 1475 772.3 1480.6 782.2 1483.7 786.8 1488.6 790.6 1497.8 797.1 1509.9 804.2 1516.9 808.6 1523.4 813.8 1527.3 817.6 1527.8 821.2 1528 824.9 1526.6 832.3 1522 839.2 1511.6 848.2 1507.9 852.6 1506.1 856.4 Z" data-holc_grade="B"/>
</g>
<g id="C">
<path d="M 28.4 1220.8 68.5 1197.4 69.1 1204.6 91.7 1190.9 90.7 1182.5 115.9 1167.4 116.2 1175.5 146.6 1217.2 124 1229.2 144 1253.8 78.1 1292.2 32 1230.6 28.4 1220.8 Z" data-holc_grade="C"/>
<path d="M 1107 865.2 1131.4 932.9 1156.3 1005.9 1179.1 1023.7 1157.5 1040.5 1068.5 967.9 1080.8 955.5 1066.7 943.3 1079.8 931.9 1093.1 943.5 1114.3 924.6 1079.8 897.3 1049.8 896.8 1052.4 860.8 1107 865.2 Z" data-holc_grade="C"/>
<path d="M 1463.2 948.7 1589.1 1033.9 1559.1 1066.1 1520.7 1039.9 1536.1 1022.3 1508.2 1003.4 1492.4 1021.1 1328.5 909.2 1353.3 883.2 1406.1 922.9 1413.6 915.7 1463.2 948.7 Z M 1160.7 825.8 1386.1 977.8 1617.1 1135.1 1634.1 1116.8 1703.9 1164 1663.3 1209.5 1468.5 1121.3 1283.6 1035.5 1131.4 932.9 1107 865.2 1115.5 865 1117.6 852.2 1148.4 875.5 1158.6 866.3 1160.7 825.8 Z M 1222.6 767.1 1285.5 809.4 1276.6 820.1 1338.1 864.4 1308.2 895.4 1161.6 795.3 1162.3 787.4 1189.4 803.6 1222.6 767.1 Z" data-holc_grade="C"/>
<path d="M 1308.2 895.4 1310.1 896.6 1328.5 909.2 1492.4 1021.1 1483.4 1029.9 1513.6 1049.5 1520.7 1039.9 1559.1 1066.1 1634.1 1116.8 1617.1 1135.1 1386.1 977.8 1160.7 825.8 1161.6 795.3 1308.2 895.4 Z" data-holc_grade="C"/>
<path d="M 1361.1 757.4 1506.1 856.4 1497.7 864.8 1492.8 869.8 1489.4 874.4 1487.2 881.3 1483.1 895.2 1422.1 853.2 1405.6 871.9 1358.4 839.8 1354.3 843.4 1291.1 800.8 1285.5 809.4 1222.6 767.1 1213.9 760.6 1231.1 756.1 1262.5 748 1361.1 757.4 Z" data-holc_grade="C"/>
<path d="M 1707 789.8 1717 788.7 1774.7 722.3 1777.2 722.3 1777.5 722.9 1797.3 754.8 1788 761.5 1799.3 779.3 1805 773.7 1816.7 793.3 1769.5 842.5 1827.6 881 1814.3 895.7 1830.4 904.7 1791.9 945.7 1777.9 961.8 1765 953.5 1735.3 985.7 1666.4 939.7 1631.7 976.9 1516.9 902.3 1545.9 869.3 1530.4 859.7 1489.2 906 1482.2 900.6 1483.1 895.2 1487.2 881.3 1489.4 874.4 1492.8 869.8 1497.7 864.8 1510.1 857.6 1524.6 845 1533.5 831.7 1533.9 823.3 1533.1 815.6 1530.2 810.7 1517.3 804.1 1511.3 796.4 1498 783.8 1495.9 781 1496.4 773.7 1500 768.5 1506.8 760.1 1514.5 746.4 1514.1 732.8 1516.5 729.3 1531.9 710.8 1535.9 701 1536.3 691.2 1537.5 678.6 1555.7 683.9 1523.4 769.2 1541.9 781.7 1554.4 745.7 1575.4 752 1569.4 769.9 1577.4 771.9 1572.2 785.6 1707 789.8 Z M 1617.8 844.9 1560.7 825.3 1551.2 846.8 1603.1 882.2 1617.8 844.9 Z" data-holc_grade="C"/>
<path d="M 1617.8 844.9 1603.1 882.2 1551.2 846.8 1560.7 825.3 1617.8 844.9 Z" data-holc_grade="C"/>
<path d="M 2021.7 1102.5 2010.9 1117.1 2000.6 1110.2 1942.1 1071.3 1953.6 1058.2 1956 1059.9 2021.7 1102.5 Z M 1936 1044.4 1922.5 1058.4 1857.6 1015.6 1871.3 1000.5 1936 1044.4 Z M 1846.2 981.2 1833.4 997.6 1777.9 961.8 1791.9 945.7 1846.2 981.2 Z" data-holc_grade="C"/>
<path d="M 1744.3 689 1766.9 722.4 1774.7 722.3 1717 788.7 1707 789.8 1721.1 727.6 1588.4 722.3 1603.8 679.4 1740 682.7 1744.3 689 Z M 1885.4 679 1811.6 766.3 1802.1 751 1797.3 754.8 1777.5 722.9 1795.6 720.9 1792.9 686.5 1761.3 688.1 1759.7 677.4 1799.7 647.4 1817.7 654 1885.4 679 Z" data-holc_grade="C"/>
<path d="M 2003.5 644.9 1884.6 650.3 1885.4 679 1817.7 654 1851.8 630.9 1842.1 620.4 1880.8 595.4 1886.9 600 1963.1 553.5 1985.3 523.3 1992.8 523.1 2003.5 644.9 Z M 1882.4 627.6 1880.8 611.7 1861.4 612.6 1862.6 629 1882.4 627.6 Z" data-holc_grade="C"/>
<path d="M 2231.9 328.9 2171.4 331.4 2168.7 302.9 2143.1 304 2144.5 334.2 2070.4 338.1 2000.5 342.5 1996.4 272.3 2226.3 258.1 2231.9 328.9 Z" data-holc_grade="C"/>
<path d="M 1 1060.3 125.6 1028.5 137.9 1121.6 35.2 1181.1 1 1060.3 Z" data-holc_grade="C"/>
<path d="M 2089.6 595.4 2134.6 573.2 2104.1 526.3 2064.1 464.8 2044.8 478.8 2024.7 488.9 2018.1 479.6 2038.2 461.2 2046.5 457.6 2055.4 456 2064.6 453 2066.1 456.8 2096.6 445.3 2119.1 441.5 2158.3 439 2175 439.8 2192.9 440.9 2205.3 439.8 2212.5 439.2 2221 439.2 2240.9 441.5 2247.9 550.1 2195.1 612.8 2196.1 633.1 2198.7 667.1 2201.9 718.2 2158.3 720.1 2146.2 714.9 2140.4 707.8 2138.2 702.5 2136.5 695 2136.5 688.3 2138.2 682.4 2174.3 679.9 2168.5 620.1 2092.2 624.5 2089.6 595.4 Z" data-holc_grade="C"/>
<path d="M 2175.4 1000.1 2161.5 997.5 2153.1 997.8 2186 897.7 2178 766 2177 749 2181.2 748.4 2179.6 737.2 2210.9 735.6 2209.3 729.4 2262.5 724.4 2175.4 1000.1 Z" data-holc_grade="C"/>
<path d="M 2531.6 884.3 2533.8 886 2535.4 889.6 2535.1 895.5 2528 922.6 2569 933.2 2549.3 998.1 2552.6 1026.3 2535.8 1079.7 2389.6 1045.6 2410.5 976 2344 961.2 2381.2 842.4 2509.3 870.9 2506.7 878.7 2531.6 884.3 Z M 2474.4 872.8 2437.3 863.6 2429.9 888.2 2444.7 891.6 2442.2 902.5 2464.1 908.3 2474.4 872.8 Z" data-holc_grade="C"/>
<path d="M 2389.6 1045.6 2535.8 1079.7 2526.2 1098.8 2236.3 1033.5 2211.5 1027.9 2168.6 1018.2 2175.4 1000.1 2389.6 1045.6 Z" data-holc_grade="C"/>
<path d="M 2882.1 1178.6 2875.8 1190.5 2851.6 1182 2812.7 1260.8 2794.1 1254 2833.1 1174.6 2807.7 1163.6 2566.9 1109.8 2576 1083.4 2595.4 1087.8 2624 1094.4 2645.5 1099.3 2659.2 1102.4 2667.7 1074.3 2692.5 1079.7 2682.2 1112.9 2806.5 1142.5 2886.1 1171 2882.1 1178.6 Z" data-holc_grade="C"/>
<path d="M 2914.7 1324.2 2967.7 1215.5 2999 1226.5 2947.2 1334.4 2914.7 1324.2 Z M 2905.6 1211.7 2927.9 1220.1 2910.6 1259.4 2904.6 1272.3 2883.2 1313 2860.8 1304.7 2905.6 1211.7 Z" data-holc_grade="C"/>
<path d="M 2386.2 1405.1 2389.6 1342.4 2401 1341.4 2394.7 1411.6 2459.3 1415.8 2464.7 1417.5 2458.6 1528.1 2363.2 1521.1 2365.2 1477.5 2373.4 1471.4 2376.1 1423.8 2386.2 1424 2386.2 1405.1 Z" data-holc_grade="C"/>
<path d="M 2136.5 1354.4 2121.2 1336.2 2113.5 1340.4 2083.3 1306.8 2123.9 1279.5 2112.1 1268 2134.1 1256.2 2146 1253.3 2191.4 1252 2191.4 1254.8 2226.5 1254.8 2223.3 1286.6 2195 1284.5 2190.6 1339.7 2220 1340.8 2216 1379.9 2158.7 1376.4 2155.1 1353.3 2136.5 1354.4 Z" data-holc_grade="C"/>
<path d="M 2202.3 1730.4 2134.4 1734.4 2129.3 1673.2 2180.9 1668.7 2171.6 1514.9 2138.6 1516.6 2137.3 1498.1 2165.2 1496.7 2164 1479.2 2185.4 1477.4 2243.9 1480.2 2243.4 1486.9 2187.8 1489.3 2187.8 1506.5 2222.9 1506.1 2215.6 1565.9 2215.2 1586.2 2195.4 1587.6 2196.2 1611.3 2201.5 1611.7 2208.8 1715.2 2202.3 1730.4 Z" data-holc_grade="C"/>
<path d="M 2059.8 1947 2094.7 1991.2 2023.7 2033.2 2010.5 2016.1 2001.5 2019.5 1993.4 2006.6 1925.3 1927.8 1946.3 1916.3 1986 1968 2010.5 1952.9 1986 1918.8 1999.8 1912.3 1980.2 1887.4 1999.8 1875.1 2027.9 1906.7 2059.8 1947 Z" data-holc_grade="C"/>
<path d="M 226.8 849 305.4 851.1 304.4 888.1 296.7 902.6 226.1 901.5 226.8 849 Z" data-holc_grade="C"/>
<path d="M 1749.3 2079.2 1713.7 2016.5 1783.5 1995.9 1816.9 1978.3 1852.7 2028.2 1749.3 2079.2 Z" data-holc_grade="C"/>
<path d="M 1749.3 2079.2 1783.5 2139.6 1735.2 2152.7 1706.7 2080.1 1684.8 2025.1 1713.7 2016.5 1749.3 2079.2 Z" data-holc_grade="C"/>
<path d="M 1511.4 2072.5 1597.8 2049.6 1619.1 2108.8 1587.3 2115.6 1597.4 2148.6 1532.9 2163.8 1511.4 2072.5 Z" data-holc_grade="C"/>
<path d="M 1390.4 2104.6 1429 2094.8 1446.4 2173.8 1401 2179 1390.4 2104.6 Z" data-holc_grade="C"/>
<path d="M 1543 1823.5 1521.4 1830 1507.4 1797.7 1527.4 1791.5 1543 1823.5 Z M 1797.3 1536 1764.6 1634.2 1660.1 1702.7 1575 1746.8 1526.6 1773.4 1461.2 1795.7 1412.4 1807.1 1396.3 1757 1388.3 1758.7 1392.3 1807.8 1307.1 1813.2 1309.4 1830.2 1313 1864.4 1284.2 1866.7 1278.9 1817.4 1255.1 1819.7 1249.9 1768.5 1247.4 1744.2 1296.5 1744 1346.8 1744.3 1385.9 1742.9 1419.5 1733.2 1429.7 1761.8 1489.8 1743.6 1477.1 1715.3 1559.8 1674.1 1571.9 1665.3 1578.8 1660.9 1609.7 1708.3 1686.7 1662.2 1648.4 1616.3 1658.7 1609.7 1705.3 1580.4 1719 1592.9 1760.6 1548.2 1767 1542.6 1773.1 1539.1 1779.1 1535.6 1785.2 1534.6 1794 1535.3 1797.3 1536 Z M 1642.9 1592.2 1498.5 1676.5 1408.9 1708.3 1402.1 1681.8 1462 1663.9 1480.2 1654.8 1487.4 1669.9 1498.3 1665.7 1490.2 1650.3 1602.8 1588.1 1604.8 1587 1596.8 1576.5 1641.5 1549.2 1635.1 1539.5 1646 1531.1 1679.5 1567.4 1675.4 1574.1 1642.9 1592.2 Z" data-holc_grade="C"/>
<path d="M 1658.7 1609.7 1648.4 1616.3 1578.8 1660.9 1571.9 1665.3 1559.8 1674.1 1477.1 1715.3 1469.5 1718.8 1419.5 1733.2 1385.9 1742.9 1346.8 1744.3 1296.5 1744 1295.7 1715.9 1342.4 1712.5 1408.9 1708.3 1498.5 1676.5 1642.9 1592.2 1658.7 1609.7 Z" data-holc_grade="C"/>
<path d="M 1342.4 1712.5 1323 1534.2 1279.5 1538.3 1277.3 1514.9 1276.4 1498.3 1314.9 1495.1 1320.2 1523.7 1325 1525.1 1327.9 1528.3 1331.1 1531.4 1332.7 1534.9 1334.7 1541.9 1340.4 1543.3 1343.6 1547.8 1345.6 1550.6 1349.2 1567.1 1351.7 1570.9 1354.9 1571.6 1360.5 1571.6 1389.6 1668.5 1360.9 1671.6 1361.3 1688.4 1377.9 1686.7 1402.1 1681.8 1408.9 1708.3 1342.4 1712.5 Z" data-holc_grade="C"/>
<path d="M 1295.7 1715.9 1292.3 1676.9 1279.5 1538.3 1323 1534.2 1342.4 1712.5 1295.7 1715.9 Z" data-holc_grade="C"/>
<path d="M 1285.6 1259.1 1299.2 1288.7 1322.1 1338.6 1331.5 1359.1 1329.5 1360.9 1385.5 1474.9 1341.6 1492.9 1314.9 1495.1 1276.4 1498.3 1201.4 1504.6 1202.4 1488.7 1274.6 1482.9 1258.1 1345.2 1275.8 1335.6 1280.9 1330.3 1285.7 1324 1286.7 1315.3 1287.9 1304.3 1287.7 1296.9 1283.3 1287.1 1278.8 1279.6 1272 1274.9 1235.7 1325.9 1197.5 1306.2 1206.6 1253.8 1217 1254.3 1232.2 1230.2 1285.6 1259.1 Z M 1325.3 1423 1307.2 1364.3 1294.3 1326.2 1287 1331.4 1312 1425.3 1325.3 1423 Z" data-holc_grade="C"/>
<path d="M 1235.5 1150.6 1219.4 1110.9 1214.3 1106.8 1241.2 1075.6 1296.9 1114.1 1261.2 1163.2 1235.5 1150.6 Z" data-holc_grade="C"/>
<path d="M 595.2 1126 615.1 1128.8 592.2 1190 574.6 1182.1 595.2 1126 Z" data-holc_grade="C"/>
<path d="M 1061.1 1162.2 1078.8 1146.7 1119.3 1179 1111.9 1189.1 1125.8 1199.7 1111.9 1216.2 1148.7 1245.8 1140.3 1259.3 1093.8 1223.5 1110.6 1203.9 1061.1 1162.2 Z" data-holc_grade="C"/>
<path d="M 1029 1052.9 1051.5 1061.1 1075 1069.7 1108.6 1087.1 1055.5 1135.5 1042 1147.7 980.5 1095.7 991.7 1085 965.5 1063.8 978.4 1051.9 991.7 1062.2 1006.9 1046.4 1029 1052.9 Z" data-holc_grade="C"/>
<path d="M 980.5 1095.7 1042 1147.7 959.5 1224.1 955.3 1220.7 898.7 1174.4 827.8 1117.5 845.7 1101.6 832.9 1089.8 846 1078.9 860 1090.3 872.1 1078.1 886.1 1088.6 898.5 1077.7 925.1 1098 929.7 1096.6 932.9 1098.7 945.7 1086.9 969.2 1106.4 980.5 1095.7 Z" data-holc_grade="C"/>
<path d="M 955.3 1220.7 931.2 1243.6 935.3 1247.6 883 1294.8 841.7 1260.7 867.1 1237.2 846.8 1221.1 898.7 1174.4 955.3 1220.7 Z" data-holc_grade="C"/>
<path d="M 883 1294.8 811.7 1361.5 777.5 1334 764.7 1343.4 800.5 1373.2 768.8 1403.7 739.7 1381.3 756.3 1365.1 741.7 1353.4 841.7 1260.7 883 1294.8 Z" data-holc_grade="C"/>
<path d="M 1077 1145.8 1078.8 1146.7 1061.1 1162.2 1055.3 1158 1016.7 1193 1022 1198.1 1018.3 1201.4 1002.2 1216.2 959.3 1255.5 870.8 1338.1 857.3 1350.6 757.4 1443.9 734.4 1465.3 731 1438.7 768.8 1403.7 800.5 1373.2 808 1378.4 819.2 1369 811.7 1361.5 883 1294.8 935.3 1247.6 942.5 1253 967 1230.8 959.5 1224.1 1042 1147.7 1055.5 1135.5 1077 1145.8 Z" data-holc_grade="C"/>
<path d="M 870.8 1338.1 959.3 1255.5 1022.5 1307.2 950.7 1406.2 870.8 1338.1 Z M 970.2 1366 981.4 1351.4 991.8 1338 984.7 1332.1 990.2 1325.4 945.2 1289.1 906.8 1325.3 943.4 1354.4 925.6 1372.3 949.8 1392.2 970.2 1366 Z" data-holc_grade="C"/>
<path d="M 856.6 1523.7 757.4 1443.9 857.3 1350.6 940.5 1417.9 929.9 1430.9 920.4 1425 892.1 1460.3 903.2 1465.1 856.6 1523.7 Z M 845.6 1474.2 891.1 1434.1 887.1 1429.7 892.6 1424.3 852.9 1393.2 832.8 1411.1 845.9 1422.5 839.1 1427.5 847 1434.8 822.5 1455.9 807.2 1469.2 830.7 1487.3 845.6 1474.2 Z" data-holc_grade="C"/>
<path d="M 856.6 1523.7 860.2 1526.6 813.7 1588.1 818.1 1591.2 786.9 1630.1 803.6 1639.1 777.7 1671 801.9 1687.3 775.7 1723.2 748.9 1706 746.9 1691.9 753.9 1686.1 784.2 1648.1 771.1 1639.9 781.1 1627.1 769.4 1620.2 779.4 1607.4 762.4 1592.3 810.1 1548.7 763.9 1510.7 776.5 1500.2 734.4 1465.3 757.4 1443.9 856.6 1523.7 Z" data-holc_grade="C"/>
<path d="M 999.2 1536.2 1023.4 1546.5 1041.5 1552.7 1084.1 1563 1148.7 1573.9 1160.9 1479.9 1201.4 1504.6 1276.4 1498.3 1277.3 1514.9 1251.3 1516.3 1189.2 1519.5 1186.5 1575.1 1162.8 1573.4 1155.3 1573.9 1151.2 1577.6 1147.5 1582.7 1136.4 1650.2 1161.1 1651.7 1163.5 1592.5 1177.3 1592.1 1179.7 1584.8 1197.9 1585.4 1197.1 1594 1196.4 1600.7 1187.5 1601.3 1183.4 1651.9 1194.8 1652.3 1194.8 1658 1230.1 1656.1 1227.2 1623.8 1247 1621.9 1242.4 1588.5 1258.2 1587.1 1266.9 1678.3 1292.3 1676.9 1295.7 1715.9 1191.6 1723 1192.8 1716.1 1164 1711.9 1165.7 1683.8 1132.8 1682.9 1108.3 1678.5 1115.4 1653.6 1078.1 1646.7 1097.4 1574.7 1076.1 1569.5 1074 1575.7 994.6 1543.9 958.7 1521.1 918 1496.2 909.4 1491.3 922.2 1476.1 947.2 1492 939.7 1501.9 999.2 1536.2 Z" data-holc_grade="C"/>
<path d="M 488.8 677.6 485.8 757.9 483.6 760.7 478.9 764.2 473.7 769.4 469.5 774.4 464.8 781 457.4 791.6 455 796.7 450.6 801.4 445 805.6 437.2 811.8 427.2 818.2 431.1 676.6 488.8 677.6 Z" data-holc_grade="C"/>
<path d="M 1247.4 1744.2 1189.6 1744.2 1190.7 1740.8 1191.6 1723 1295.7 1715.9 1296.5 1744 1247.4 1744.2 Z" data-holc_grade="C"/>
<path d="M 1190.7 1740.8 1189.6 1744.2 1247.4 1744.2 1249.9 1768.5 1191 1773.4 1116.6 1770.4 1106.7 1821.2 1034.5 1808.8 1010.1 1900.5 980.6 1894 973.5 1914.8 912.5 1913.7 925.1 1882.5 881.8 1868.6 828.5 1847.8 903.6 1714.8 934.1 1727 930.7 1733.5 975.2 1748.4 989 1751.3 991.5 1739.2 1025.1 1744.2 1036 1706.7 1060 1711.5 1056.6 1724.9 1068.2 1744 1116.1 1753.9 1161.6 1755.1 1160.2 1740.8 1190.7 1740.8 Z" data-holc_grade="C"/>
<path d="M 512.3 2065.4 543 2010.2 615.2 2052 598.5 2078.2 587.3 2104.5 512.3 2065.4 Z M 576.1 1955.3 594.3 1928.4 608 1934 624.9 1943.8 581.8 2016.9 552.7 1996.2 562.8 1974.2 576.1 1955.3 Z" data-holc_grade="C"/>
<path d="M 509.9 739.4 515.1 657.7 534.1 658.4 543.4 486.1 682.6 492.4 906.5 646.8 904.9 689.1 823.4 700.3 790.7 665 779.4 657.7 771.7 655.9 754.8 653.5 751.2 652.8 740.7 652.4 718.9 657 700.3 663.2 679.4 674.4 660 686 648.7 692.2 632.1 698.9 622.5 703.4 599.9 707.6 584.9 709.7 565.6 712.5 552.7 714.6 547 722 537.7 723.7 526.8 729.3 509.9 739.4 Z M 686.4 651.5 689.3 581.5 658.3 581 653.2 668.2 686.4 651.5 Z" data-holc_grade="C"/>
<path d="M 891.7 836.3 887.2 835.2 880 830.9 848.4 799.8 833.7 783.1 826.7 769.7 820.6 760.7 815.3 753.1 808.7 744.8 807.4 742.3 808.2 726.3 792.7 729.9 793.6 720.6 818.6 711.2 822.4 720.6 824.1 722.9 827.5 727.4 830.6 730.2 864.3 731.4 866.4 699.9 905 698.2 891.7 836.3 Z" data-holc_grade="C"/>
<path d="M 1152 237.6 1137.7 383.7 1154.9 385.4 1209.3 390.7 1233.8 393.1 1224.4 468.4 1232.4 469.2 1228.7 499.4 1201.1 496.7 1210.1 415.7 1151.3 410.1 1150.3 411.3 1116.9 408 1109.4 470.5 1127.3 471.3 1118.8 550.8 1132.1 552.2 1132.9 554.3 1132.9 557.9 1132.9 561.2 1131.2 565.4 1129.8 568.2 1061 559.8 1079.1 347.6 1084.4 240.1 1094.6 139 1142.5 143.7 1139.4 173.2 1158 175.3 1154.4 208.4 1152 237.6 Z" data-holc_grade="C"/>
<path d="M 1129.8 568.2 1190.5 575.6 1237.9 581.4 1239.9 586 1240.1 590.6 1238.9 595 1236.2 597.9 1230.1 601.1 1144.5 645.3 1139.6 693.5 1140.8 696 1143.8 697.7 1199.7 703.2 1195.6 739.4 1215.4 742 1231.1 756.1 1213.9 760.6 1163.1 775.7 1166.5 741.8 1184.7 743.9 1174.7 733.6 1130.9 705.5 1122.4 697.7 1118.1 691.6 1116.4 686 1115.7 678.2 1116.2 670.9 1117.1 664.2 1119.8 655.8 1122.9 650.8 1099.2 662.9 1053.2 659.4 1061 559.8 1129.8 568.2 Z" data-holc_grade="C"/>
</g>
<g id="D">
<path d="M 1141.2 1306 1104.1 1374.5 1093.5 1370.3 1132.5 1303.2 1141.2 1306 Z" data-holc_grade="D"/>
<path d="M 1325.3 1423 1312 1425.3 1287 1331.4 1294.3 1326.2 1307.2 1364.3 1325.3 1423 Z" data-holc_grade="D"/>
<path d="M 615.3 1204 667.5 1071.2 685.5 1077.3 633.5 1211.6 615.3 1204 Z" data-holc_grade="D"/>
<path d="M 2000.6 1110.2 1942.1 1178.3 1927.6 1169.2 1880.6 1221.6 1835.8 1190.3 1942.1 1071.3 2000.6 1110.2 Z" data-holc_grade="D"/>
<path d="M 1880.8 595.4 1842.1 620.4 1809.2 640.3 1705.1 605.6 1602.5 608.9 1594.4 524 1655.3 521.2 1626.1 470.2 1745.1 463.5 1731.4 476.1 1880.8 595.4 Z" data-holc_grade="D"/>
<path d="M 1972.4 397.3 1842.4 404.8 1839.5 360.2 1968 353.2 1972.4 397.3 Z" data-holc_grade="D"/>
<path d="M 2150.9 134 2215 130.5 2218.2 172.4 2153.5 175.7 2150.9 134 Z" data-holc_grade="D"/>
<path d="M 2247.9 550.1 2240.9 441.5 2324.1 437.5 2329.2 480.9 2316.1 487.4 2294.6 506.1 2252 546.7 2247.9 550.1 Z" data-holc_grade="D"/>
<path d="M 2196.1 633.1 2255.1 630.4 2257.6 663.9 2198.7 667.1 2196.1 633.1 Z" data-holc_grade="D"/>
<path d="M 2048.2 653.4 2086 650.7 2092.4 713.8 2052.9 716.5 2048.2 653.4 Z" data-holc_grade="D"/>
<path d="M 1947 700.6 1885.4 679 1884.6 650.3 2003.5 644.9 2005.3 672.3 1943.9 675.3 1947 700.6 Z" data-holc_grade="D"/>
<path d="M 1947 700.6 2035.5 731.6 2041 801.9 2056.7 1002.4 1964.9 1009.4 1960.3 1013.3 1950.8 1027.8 1936 1044.4 1871.3 1000.5 1846.2 981.2 1791.9 945.7 1830.4 904.7 1814.3 895.7 1827.6 881 1769.5 842.5 1816.7 793.3 1805 773.7 1811.6 766.3 1885.4 679 1947 700.6 Z" data-holc_grade="D"/>
<path d="M 2142.5 751.5 2143.5 767.7 2178 766 2186 897.7 2153.1 997.8 2056.7 1002.4 2041 801.9 2047.3 790.6 2052.2 782.2 2060.6 771.3 2116.1 768.8 2112.9 734.1 2130.9 733.6 2131.6 751.5 2142.5 751.5 Z M 2146.4 958.9 2137.1 854.6 2105.1 856.6 2113.5 961.7 2146.4 958.9 Z" data-holc_grade="D"/>
<path d="M 980.5 1095.7 969.2 1106.4 945.7 1086.9 932.9 1098.7 929.7 1096.6 925.1 1098 898.5 1077.7 886.1 1088.6 872.1 1078.1 860 1090.3 846 1078.9 832.9 1089.8 845.7 1101.6 827.8 1117.5 803.4 1097.2 900.2 924 933.8 950.2 961.9 926.3 1000.2 958.1 976.9 981 1043.7 1039.5 1029 1052.9 1006.9 1046.4 991.7 1062.2 978.4 1051.9 965.5 1063.8 991.7 1085 980.5 1095.7 Z" data-holc_grade="D"/>
<path d="M 2146.4 958.9 2113.5 961.7 2105.1 856.6 2137.1 854.6 2146.4 958.9 Z" data-holc_grade="D"/>
<path d="M 2236.3 1033.5 2526.2 1098.8 2521.9 1106 2516.4 1112.2 2422.9 1157.5 2315.8 1135.4 2269.6 1134.3 2209.9 1122.2 2236.3 1033.5 Z M 2021.7 1102.5 1956 1059.9 1971.4 1041.7 1980.2 1033 1984.4 1028.6 1998.2 1026.1 2155.7 1015.2 2168.6 1018.2 2211.5 1027.9 2183.5 1119.2 2064.1 1130.1 2021.7 1102.5 Z" data-holc_grade="D"/>
<path d="M 2531.6 884.3 2506.7 878.7 2509.3 870.9 2381.2 842.4 2344 961.2 2410.5 976 2389.6 1045.6 2175.4 1000.1 2262.5 724.4 2278.7 728.6 2284.5 808.3 2284.1 823.6 2279.3 847.1 2308 853.3 2340 742.3 2535.9 787.8 2517.2 853.5 2517.5 859.1 2518.8 866.1 2522 873.1 2527.2 879.3 2531.6 884.3 Z" data-holc_grade="D"/>
<path d="M 2882.1 1178.6 2886.1 1171 2806.5 1142.5 2682.2 1112.9 2692.5 1079.7 2667.7 1074.3 2659.2 1102.4 2645.5 1099.3 2699.6 942.4 2849.4 975.7 2995.2 1023.5 2916.1 1190.4 2882.1 1178.6 Z M 2624 1094.4 2595.4 1087.8 2649.8 931.2 2675.8 937.6 2624 1094.4 Z" data-holc_grade="D"/>
<path d="M 2566.9 1109.8 2807.7 1163.6 2833.1 1174.6 2794.1 1254 2812.7 1260.8 2851.6 1182 2875.8 1190.5 2827.7 1290.5 2763.2 1267.4 2729.8 1243.7 2606.9 1213.9 2627.5 1154.2 2604.5 1148.2 2586.4 1204.7 2584.2 1198.9 2580 1198.6 2581.2 1191.8 2581 1187.9 2578 1186.7 2574.5 1185.8 2573.7 1181.3 2565.1 1176.7 2571.1 1158.4 2551.7 1152.8 2566.9 1109.8 Z" data-holc_grade="D"/>
<path d="M 2967.7 1215.5 2914.7 1324.2 2895.5 1316.2 2907 1292.9 2934.6 1228.5 2932.6 1222.5 2929.8 1220.8 2927.9 1220.1 2905.6 1211.7 2913.3 1197 2967.7 1215.5 Z" data-holc_grade="D"/>
<path d="M 2633.9 1376.8 2666.3 1390 2674.5 1396.8 2681.8 1403.5 2678.9 1473.1 2627.3 1471.2 2633.9 1376.8 Z" data-holc_grade="D"/>
<path d="M 2543.3 1456.3 2565.6 1461.4 2575.8 1465.8 2579.2 1468.5 2579.9 1471.8 2578.4 1513 2539.7 1512.3 2543.3 1456.3 Z" data-holc_grade="D"/>
<path d="M 2318 1548.2 2312.2 1664.2 2292.1 1661.3 2272 1664.2 2278.3 1553.9 2283.1 1546.9 2318 1548.2 Z M 2365.2 1477.5 2279.2 1538.6 2286.3 1418.6 2376.1 1423.8 2373.4 1471.4 2365.2 1477.5 Z M 2389.6 1342.4 2386.2 1405.1 2287.5 1401.2 2297.4 1254.5 2367.8 1273.4 2364.2 1342 2389.6 1342.4 Z" data-holc_grade="D"/>
<path d="M 2083.3 1306.8 2113.5 1340.4 2121.2 1336.2 2136.5 1354.4 2121.2 1355.4 2125.2 1426.7 2143 1425.4 2136.5 1354.4 2155.1 1353.3 2158.7 1376.4 2216 1379.9 2220 1340.8 2190.6 1339.7 2195 1284.5 2223.3 1286.6 2226.5 1254.8 2191.4 1254.8 2191.4 1252 2191.4 1242.9 2262 1248.5 2243.9 1480.2 2185.4 1477.4 2164 1479.2 2165.2 1496.7 2137.3 1498.1 2138.6 1516.6 2171.6 1514.9 2180.9 1668.7 2129.3 1673.2 2108.7 1358.2 2106.7 1353.7 2074.8 1313.8 2083.3 1306.8 Z M 2175.7 1460.7 2170.8 1424 2152.7 1425 2155.9 1461.7 2175.7 1460.7 Z" data-holc_grade="D"/>
<path d="M 1214.3 1106.8 1219.4 1110.9 1235.5 1150.6 1212.7 1182.9 1204.1 1213.9 1172 1199.4 1153.8 1235.6 1148.7 1245.8 1111.9 1216.2 1125.8 1199.7 1111.9 1189.1 1119.3 1179 1078.8 1146.7 1077 1145.8 1163.7 1066 1214.3 1106.8 Z" data-holc_grade="D"/>
<path d="M 2134.4 1734.4 2202.3 1730.4 2234.6 1728.5 2241.4 1839.5 2217.1 1841.6 2209.2 1841.6 2206.8 1809 2138.7 1808.1 2134.4 1734.4 Z" data-holc_grade="D"/>
<path d="M 2023.7 2033.2 1955.6 2070.4 1895.9 1980 1866.5 1937.2 1878.8 1918.2 1904.3 1903.4 1925.3 1927.8 1993.4 2006.6 2001.5 2019.5 2010.5 2016.1 2023.7 2033.2 Z M 2059.8 1947 2027.9 1906.7 1999.8 1875.1 1980.2 1887.4 1999.8 1912.3 1986 1918.8 2010.5 1952.9 1986 1968 1946.3 1916.3 1924.3 1891.6 1991.8 1851.4 1996.3 1852.8 2000.8 1857 2004.4 1861.4 2007.6 1862 2016.3 1857.2 2024.4 1853.6 2033.4 1850 2039.9 1851.6 2099.9 1925.5 2059.8 1947 Z" data-holc_grade="D"/>
<path d="M 1684.8 2025.1 1706.7 2080.1 1647.5 2098.6 1626.5 2042.1 1684.8 2025.1 Z" data-holc_grade="D"/>
<path d="M 1825.9 1452.4 1797.3 1536 1794 1535.3 1785.2 1534.6 1779.1 1535.6 1773.1 1539.1 1767 1542.6 1760.6 1548.2 1719 1592.9 1705.3 1580.4 1713.4 1576.5 1793.2 1469.2 1800.9 1458.7 1809 1453.4 1817.4 1450 1825.9 1452.4 Z M 1679.5 1567.4 1646 1531.1 1680.7 1483.2 1663.3 1474.1 1705.3 1423 1767 1457.3 1679.5 1567.4 Z" data-holc_grade="D"/>
<path d="M 1523.3 1322.4 1705.3 1423 1663.3 1474.1 1623 1527.2 1635.1 1539.5 1641.5 1549.2 1596.8 1576.5 1604.8 1587 1602.8 1588.1 1490.2 1650.3 1498.3 1665.7 1487.4 1669.9 1480.2 1654.8 1462 1663.9 1402.1 1681.8 1377.9 1686.7 1361.3 1688.4 1360.9 1671.6 1389.6 1668.5 1360.5 1571.6 1354.9 1571.6 1351.7 1570.9 1349.2 1567.1 1345.6 1550.6 1343.6 1547.8 1340.4 1543.3 1334.7 1541.9 1332.7 1534.9 1331.1 1531.4 1327.9 1528.3 1325 1525.1 1320.2 1523.7 1314.9 1495.1 1341.6 1492.9 1385.5 1474.9 1329.5 1360.9 1331.5 1359.1 1322.1 1338.6 1367.2 1314.7 1351.5 1292.3 1327.6 1281.5 1299.2 1288.7 1285.6 1259.1 1264.7 1212.9 1283.7 1205.6 1291.7 1204.5 1310.7 1203.5 1317.2 1204.5 1320 1205.2 1389.4 1245.1 1378.1 1260.5 1398.3 1282.5 1393.8 1287.4 1502.7 1348.9 1523.3 1322.4 Z M 1476.5 1542.2 1447.1 1500.3 1422.5 1512.2 1440.2 1537 1425.3 1544 1407.9 1519.5 1384.1 1529.7 1399.1 1561.5 1420.9 1556.1 1427.3 1567.8 1476.5 1542.2 Z" data-holc_grade="D"/>
<path d="M 1565.2 1873.4 1543 1823.5 1527.4 1791.5 1534.6 1789.5 1526.6 1773.4 1575 1746.8 1660.1 1702.7 1764.6 1634.2 1797.3 1536 1825.9 1452.4 1871.9 1462.5 1837.2 1587.4 1940.5 1609 1945.7 1630 1932 1677.9 1903 1716 1826.3 1778.3 1803.7 1789.5 1709.3 1831.8 1565.2 1873.4 Z M 1800.1 1676.5 1815.4 1665.3 1817.4 1654.1 1795.3 1649.6 1748.1 1681.8 1792.4 1733.9 1846.9 1694.7 1819.9 1670.2 1804.5 1682.1 1800.1 1676.5 Z" data-holc_grade="D"/>
<path d="M 1412.4 1807.1 1417.6 1823.3 1470.8 1810.9 1507.4 1797.7 1521.4 1830 1543 1823.5 1565.2 1873.4 1430.1 1889.8 1287.9 1904.5 1247.2 1910.2 1223 1911.8 1214 1912.1 1206.8 1911.2 1195.9 1910 1186 1908.3 1155 1909.7 1096.6 1911.6 973.5 1914.8 980.6 1894 1010.1 1900.5 1034.5 1808.8 1106.7 1821.2 1116.6 1770.4 1191 1773.4 1249.9 1768.5 1255.1 1819.7 1278.9 1817.4 1284.2 1866.7 1313 1864.4 1309.4 1830.2 1393.6 1824.6 1392.3 1807.8 1388.3 1758.7 1396.3 1757 1412.4 1807.1 Z" data-holc_grade="D"/>
<path d="M 1197.1 1594 1242.4 1588.5 1247 1621.9 1227.2 1623.8 1230.1 1656.1 1194.8 1658 1194.8 1652.3 1183.4 1651.9 1187.5 1601.3 1196.4 1600.7 1197.1 1594 Z M 1163.5 1592.5 1161.1 1651.7 1136.4 1650.2 1147.5 1582.7 1151.2 1577.6 1155.3 1573.9 1162.8 1573.4 1163.5 1592.5 Z M 1256.5 1571.8 1186.5 1575.1 1189.2 1519.5 1251.3 1516.3 1256.5 1571.8 Z" data-holc_grade="D"/>
<path d="M 984.7 1332.1 977.6 1326.2 963.7 1338 981.4 1351.4 970.2 1366 950 1349.2 943.4 1354.4 906.8 1325.3 945.2 1289.1 990.2 1325.4 984.7 1332.1 Z" data-holc_grade="D"/>
<path d="M 846.8 1221.1 867.1 1237.2 841.7 1260.7 741.7 1353.4 756.3 1365.1 739.7 1381.3 768.8 1403.7 731 1438.7 708.6 1261.1 708.4 1260.9 759.3 1171.2 793.5 1198.8 805.7 1188.5 846.8 1221.1 Z" data-holc_grade="D"/>
<path d="M 1049.8 896.8 1079.8 897.3 1114.3 924.6 1093.1 943.5 1079.8 931.9 1066.7 943.3 1080.8 955.5 1068.5 967.9 975.3 892.1 1049.8 896.8 Z" data-holc_grade="D"/>
<path d="M 845.6 1474.2 822.5 1455.9 847 1434.8 839.1 1427.5 845.9 1422.5 832.8 1411.1 852.9 1393.2 892.6 1424.3 887.1 1429.7 891.1 1434.1 845.6 1474.2 Z" data-holc_grade="D"/>
<path d="M 775.7 1723.2 755.2 1748.4 747.9 1743 748.9 1706 775.7 1723.2 Z M 771.1 1639.9 766 1637 755.9 1649.8 748.6 1646 746.9 1581 734.4 1465.3 776.5 1500.2 763.9 1510.7 810.1 1548.7 762.4 1592.3 779.4 1607.4 769.4 1620.2 781.1 1627.1 771.1 1639.9 Z" data-holc_grade="D"/>
<path d="M 543 2010.2 512.3 2065.4 502.9 2083.3 502.6 2083.3 481.8 2073.8 522.5 1999.1 543 2010.2 Z M 608 1934 594.3 1928.4 576.1 1955.3 559.6 1945.5 599.1 1868.6 624.9 1905 608 1934 Z" data-holc_grade="D"/>
<path d="M 1210.3 2224.5 1172.4 2226.3 1170.7 2163.7 1209.1 2164.7 1210.3 2224.5 Z M 1136.1 2191.7 1135.2 2222.1 978.7 2205.7 860.1 2186.1 782.6 2163 792.3 2133.3 784.6 2130.5 804 2092 826.6 2096.2 818.5 2113 805.2 2136.4 825.8 2140.6 856.1 2148.6 1136.1 2191.7 Z" data-holc_grade="D"/>
<path d="M 1283.6 1035.5 1468.5 1121.3 1663.3 1209.5 1643.7 1231.1 1671.9 1243.8 1744.5 1270.9 1729.9 1316.3 1686.5 1300.6 1526.7 1227.6 1540.8 1211.9 1310.3 1106.2 1327 1086.5 1227.6 1040.6 1246.8 1021.4 1283.6 1035.5 Z" data-holc_grade="D"/>
<path d="M 1616.7 1020.3 1609.1 1027.8 1776.3 1139.9 1765.3 1152.2 1753.1 1143.8 1728.9 1170.9 1723.4 1177.1 1703.9 1164 1634.1 1116.8 1559.1 1066.1 1589.1 1033.9 1463.2 948.7 1469.1 940.2 1616.7 1020.3 Z" data-holc_grade="D"/>
<path d="M 1631.7 976.9 1663.3 999.3 1657.1 1006.1 1636.9 1031.3 1616.7 1020.3 1469.1 940.2 1482.2 900.6 1489.2 906 1530.4 859.7 1545.9 869.3 1516.9 902.3 1631.7 976.9 Z" data-holc_grade="D"/>
<path d="M 1777.9 961.8 1833.4 997.6 1760.8 1077.9 1657.1 1006.1 1663.3 999.3 1631.7 976.9 1666.4 939.7 1735.3 985.7 1765 953.5 1777.9 961.8 Z" data-holc_grade="D"/>
<path d="M 1857.6 1015.6 1922.5 1058.4 1860.4 1130.7 1839.2 1116.2 1821.9 1136.1 1763.4 1104 1776.5 1088.4 1760.8 1077.9 1833.4 997.6 1857.6 1015.6 Z" data-holc_grade="D"/>
<path d="M 1728.9 1170.9 1753.1 1143.8 1765.3 1152.2 1776.3 1139.9 1803.6 1159.4 1792.4 1171 1810.5 1183.5 1785.7 1210.4 1728.9 1170.9 Z" data-holc_grade="D"/>
<path d="M 1760.8 1077.9 1776.5 1088.4 1763.4 1104 1636.9 1031.3 1657.1 1006.1 1760.8 1077.9 Z" data-holc_grade="D"/>
<path d="M 1523.3 1322.4 1502.7 1348.9 1393.8 1287.4 1398.3 1282.5 1378.1 1260.5 1389.4 1245.1 1523.3 1322.4 Z" data-holc_grade="D"/>
<path d="M 2340 742.3 2308 853.3 2279.3 847.1 2284.1 823.6 2284.5 808.3 2278.7 728.6 2340 742.3 Z" data-holc_grade="D"/>
</g>
</svg>