<?xml version="1.0"?>
<svg xmlns="http://www.w3.org/2000/svg" version="1.2" baseProfile="tiny" width="3000" height="3348" viewBox="0 0 3000 3348" stroke-linecap="round" stroke-linejoin="round">
<g id="A">
<path d="M 2556.4 634 2541.9 637 2361.6 663.1 2174 686.8 2076.4 701.6 2073.1 686.7 2027.2 480.3 2013.3 454.2 1993.6 429.7 1972.3 412.6 1959.2 404.4 1947.7 315.4 1933.8 278.7 1939.5 256.6 1926.4 188.9 1912.5 116.2 2034.6 87.6 2355.7 28 2554.8 1 2637.8 617.3 2556.4 634 Z" data-holc_grade="A"/>
<path d="M 1336.3 2159.2 1341.1 2199.1 1342.7 2237.5 1331.3 2267.7 1323.9 2314.3 1293.5 2410.7 1289.4 2466.2 1300.1 2556.1 1212.3 2563.4 1081.2 2581.4 1042.6 2594.4 995.9 2629.5 984.4 2670.4 965.5 2730.8 944.2 2772.5 1141 3077.2 1249.2 3246.4 864.6 3280.6 520.1 3311.6 238 3337.7 3.4 3347.4 1 3318 83 3256.7 106.8 3205.3 332.4 3117.9 347.1 3106.5 403 2962.7 462.8 2952.9 500.5 2948.9 544.8 2947.2 580.9 2930.9 624.4 2904 578.5 2601.7 606.4 2596.8 648.2 2581.3 710.6 2529.8 742.5 2500.4 694.2 2429.4 658.9 2398.3 636 2369.7 599.9 2382.8 570.4 2390.1 537.6 2375.4 483.5 2329.7 368.7 2249.6 330.2 2232.4 313 2219.3 345 2145 349.5 2118.4 394.3 2136.3 462.2 2159.3 500.6 2183.5 580 2223.1 645.3 2241 709.4 2248.6 772.2 2242.3 829.8 2224.4 888.7 2196.4 936.1 2214.2 998.9 2219.3 1098.8 2207.9 1242.3 2181.1 1328.1 2163.2 1336.3 2159.2 Z" data-holc_grade="A"/>
</g>
<g id="B">
<path d="M 1337.2 1044.2 1223.2 1100.3 1171.9 1160.2 1145 1173 1107.9 1165.3 1098.9 1253.4 1098.9 1289.1 1115.6 1375.9 1120.7 1434.6 1104 1583.8 1066.9 1657.9 1020.7 1735.7 978.5 1791.8 956.7 1839 931 2114.7 906.7 2137.7 815.7 2178.5 681.2 2169.5 467.3 2129.9 428.9 2122.2 361 2091.6 389.3 2036.5 400.1 1995.1 395.6 1754.7 361.8 1571 372.6 1515.8 386.4 1459.2 421.8 1261.7 434.2 1168.3 458.8 1123.9 492.6 1047.4 532.5 1062.7 663.2 1096.4 758.4 1114.8 756.9 1044.4 770.8 1001.5 796.9 917.3 832.2 876 910.6 781.1 1058.1 848.4 1185.7 900.5 1307.1 888.3 1337.2 1044.2 Z" data-holc_grade="B"/>
<path d="M 2073.1 686.7 2076.4 701.6 2174 686.8 2361.6 663.1 2541.9 637 2556.4 634 2561 696.6 2572.6 791 2581.5 810.2 2431.7 835.7 2440.7 861.2 2445.8 889.3 2444.6 919.9 2430.5 959.5 2420.2 995.2 2430.5 1079.4 2294.8 1099.8 2234.6 1102.4 2242.3 1156 1580.2 1251.8 1513.6 1250.5 1362.5 1260.7 1344.5 1119.1 1362.5 1073.1 1388.1 1036.1 1435.5 1011.9 1485.4 999.1 1522.5 978.7 1550.7 955.8 1571.2 921.3 1599.4 855 1641.6 775.9 1663.4 746.5 2073.1 686.7 Z" data-holc_grade="B"/>
<path d="M 2907.5 2500.9 2855.3 2509 2608.3 2549 2377.7 2588.8 2348.9 2372.4 2339.7 2314.2 2336.6 2255 2325.3 2195.8 2325.3 2175.3 2328.4 2088.5 2336.6 2039.5 2338.6 1992.6 2344.8 1968.1 2363.2 1926.2 2386.7 1879.2 2452.3 1751.6 2460.5 1720 2477.9 1665.9 2473.8 1633.2 2483 1557.7 2482 1514.8 2480.9 1478 2476.8 1422.9 2468.6 1381.1 2478.8 1334.1 2482.9 1298.4 2505.4 1229 2510.6 1204.5 2515.7 1138.1 2521.8 1109.5 2526.9 1060.5 2698 980.9 2816 1850.3 2907.5 2500.9 Z" data-holc_grade="B"/>
<path d="M 1708.4 2269.3 1718.7 2328.6 1722.8 2447 1783.2 2537.9 1793.5 2588.9 1822.2 2663.5 1879.6 2822.8 1915.5 2906.5 2066.2 3105.6 2081.6 3141.3 2088.8 3173 1249.2 3246.4 1141 3077.2 944.2 2772.5 965.5 2730.8 984.4 2670.4 995.9 2629.5 1042.6 2594.4 1081.2 2581.4 1212.3 2563.4 1300.1 2556.1 1289.4 2466.2 1293.5 2410.7 1323.9 2314.3 1331.3 2267.7 1342.7 2237.5 1341.1 2199.1 1336.3 2159.2 1439.6 2108.3 1463.1 2101.8 1474.8 2136.6 1584.6 2107.2 1586.3 2193 1579.7 2245.3 1572.4 2273.8 1571.5 2327.8 1560.9 2376.8 1531.4 2479.7 1519.9 2528.7 1508.4 2585.9 1478.1 2651.2 1454.3 2693.7 1482.2 2706.8 1547.8 2713.3 1579.7 2648 1593.7 2564.6 1607.6 2453.5 1624.8 2371 1640.4 2302.4 1659.3 2250.2 1674.8 2239.5 1708.4 2269.3 Z" data-holc_grade="B"/>
</g>
<g id="C">
<path d="M 1344.5 1119.1 1362.5 1260.7 1513.6 1250.5 1580.2 1251.8 2242.3 1156 2227.2 1222.7 2201.6 1329.9 2187.6 1391.1 2137.6 1380.9 2094.1 1378.4 2047.9 1373.3 1982.6 1352.9 1864.8 1373.3 1627.9 1410.3 1634.3 1503.5 1648.4 1540.5 1649.6 1595.4 1663.7 1671.9 1670.1 1743.4 1621.5 1747.2 1607.4 1891.4 1588.2 2039.4 1471.6 2052.2 1471.6 2099.4 1463.1 2101.8 1439.6 2108.3 1336.3 2159.2 1328.1 2163.2 1242.3 2181.1 1098.8 2207.9 998.9 2219.3 936.1 2214.2 888.7 2196.4 829.8 2224.4 772.2 2242.3 709.4 2248.6 645.3 2241 580 2223.1 500.6 2183.5 462.2 2159.3 394.3 2136.3 349.5 2118.4 361 2091.6 428.9 2122.2 467.3 2129.9 681.2 2169.5 815.7 2178.5 906.7 2137.7 931 2114.7 956.7 1839 978.5 1791.8 1020.7 1735.7 1066.9 1657.9 1104 1583.8 1120.7 1434.6 1115.6 1375.9 1098.9 1289.1 1098.9 1253.4 1107.9 1165.3 1145 1173 1171.9 1160.2 1223.2 1100.3 1337.2 1044.2 1344.5 1119.1 Z" data-holc_grade="C"/>
<path d="M 1670.5 2025.3 1727.9 2045.8 1771.9 2057 1851.9 2063.1 1916.4 2057 1991.2 2036.5 2053.7 1999.8 2167.5 1936.5 2281.2 1864 2338.6 1806.8 2362.1 1752.7 2368.1 1705.2 2374.4 1655.7 2399 1513.8 2416.3 1357.6 2435.8 1284.1 2442.9 1221.8 2462.4 1183 2462.4 1157.5 2453.2 1138.1 2435.7 1132 2415.3 1130 2325.1 1142.3 2267.7 1151.4 2242.3 1156 2234.6 1102.4 2294.8 1099.8 2430.5 1079.4 2420.2 995.2 2430.5 959.5 2444.6 919.9 2445.8 889.3 2440.7 861.2 2431.7 835.7 2581.5 810.2 2572.6 791 2561 696.6 2556.4 634 2637.8 617.3 2698 980.9 2526.9 1060.5 2521.8 1109.5 2515.7 1138.1 2510.6 1204.5 2505.4 1229 2482.9 1298.4 2478.8 1334.1 2468.6 1381.1 2476.8 1422.9 2480.9 1478 2482 1514.8 2483 1557.7 2473.8 1633.2 2477.9 1665.9 2460.5 1720 2452.3 1751.6 2386.7 1879.2 2363.2 1926.2 2344.8 1968.1 2338.6 1992.6 2336.6 2039.5 2328.4 2088.5 2325.3 2175.3 2325.3 2195.8 2336.6 2255 2339.7 2314.2 2348.9 2372.4 2377.7 2588.8 2608.3 2549 2855.3 2509 2907.5 2500.9 2949.7 2786.8 2999 3087 2514.2 3132.1 2088.8 3173 2081.6 3141.3 2066.2 3105.6 1915.5 2906.5 1879.6 2822.8 1822.2 2663.5 1793.5 2588.9 1783.2 2537.9 1722.8 2447 1718.7 2328.6 1708.4 2269.3 1734 2207.1 1708.4 2179.5 1680.7 2142.7 1658.2 2096.8 1670.5 2025.3 Z" data-holc_grade="C"/>
</g>
<g id="D">
<path d="M 2368.1 1705.2 2362.1 1752.7 2338.6 1806.8 2281.2 1864 2167.5 1936.5 2053.7 1999.8 1991.2 2036.5 1916.4 2057 1851.9 2063.1 1771.9 2057 1727.9 2045.8 1670.5 2025.3 1676.9 1993 1684.3 1956.1 1686.8 1913.7 1694.9 1860.6 1698.2 1819.7 1694.9 1764.2 1686.7 1740.5 1670.1 1743.4 1663.7 1671.9 1649.6 1595.4 1648.4 1540.5 1634.3 1503.5 1627.9 1410.3 1864.8 1373.3 1982.6 1352.9 2047.9 1373.3 2094.1 1378.4 2137.6 1380.9 2187.6 1391.1 2175.3 1509.4 2162.2 1561.6 2186.8 1586.9 2214.6 1647.4 2234.3 1721.7 2279.4 1722.5 2345 1708.6 2368.1 1705.2 Z" data-holc_grade="D"/>
</g>
</svg>