<?xml version="1.0"?>
<svg xmlns="http://www.w3.org/2000/svg" version="1.2" baseProfile="tiny" width="3000" height="2558" viewBox="0 0 3000 2558" stroke-linecap="round" stroke-linejoin="round">
<g id="A">
<path d="M 1882.2 720.6 1862.5 722.2 1861.3 703.3 1880.6 702.3 1882.2 720.6 Z" data-holc_grade="A"/>
<path d="M 593.8 831.3 589.2 930.3 574.4 938 552.1 946.7 532.9 955.6 515.1 966.4 508.3 971.7 497.7 977.8 497.9 971.7 462.7 981.6 461.9 964.1 444.3 963.5 461.2 943.1 469.8 924.6 482.1 902.8 493.4 885.9 506 874.2 526.6 856.9 537.8 848.7 551 841.5 563.4 838 578.9 835.1 593.8 831.3 Z" data-holc_grade="A"/>
<path d="M 739.7 776.6 736 839 717.9 846.2 722.1 774.7 740 771.7 739.7 776.6 Z" data-holc_grade="A"/>
<path d="M 786.8 915 794.1 915.4 793.6 928.5 844.4 933.1 847.7 933.9 853.4 938 855.9 940.5 857.3 943.7 857.9 952.5 859.8 1004 868.2 1018.3 860.4 1033.9 856.6 1035.7 853.6 1039.9 848 1045.7 844.8 1049.3 841.2 1051.5 836.1 1052.5 832.1 1053.4 829.2 1054.5 825 1056.1 794.1 1054.6 789.9 1050.6 786.7 1048.2 781.9 1046.3 777.1 1044.1 772.2 1042.7 769.2 1040.5 765.9 1037.3 761.4 1032 759.8 1027.8 760 1022.5 761.6 1013.9 762.9 1008.2 762.6 1003.5 761.5 998.9 759.8 996.4 756.8 992.6 756.8 986.6 763 940.9 763.1 936.6 759.9 928.4 756.5 918.4 754.6 910.5 786.8 915 Z" data-holc_grade="A"/>
<path d="M 914.3 799.8 957.6 793.7 943.9 983.2 942.4 1017.1 898.3 1016.3 897.7 990 914.3 799.8 Z" data-holc_grade="A"/>
<path d="M 1201.2 570.2 1190.5 660.8 1129.9 652.3 1131.2 649.2 1132.9 644.4 1132.9 640.5 1132.9 636.4 1132.2 634 1150.4 472.2 1151.3 470.8 1210.1 477.3 1201.2 570.2 Z M 1209.3 448.5 1155 442.4 1169.2 274.7 1225.3 281.2 1209.3 448.5 Z" data-holc_grade="A"/>
<path d="M 1602.5 145.7 1589.6 150.9 1581.9 152.8 1576.1 153.4 1494.5 192.9 1457 195.2 1387.7 184.3 1384.5 168.5 1380.6 147.7 1378 135.5 1370.3 114.6 1367.1 102.7 1365.8 94.1 1365.1 85.7 1367.1 75.1 1373.8 62.3 1382.9 51.1 1386.7 43.7 1388.3 36.9 1389 29.6 1387.7 18.3 1385.8 8.7 1443.5 2.3 1456.1 1 1473.5 4.9 1490.9 10.9 1501.2 18.7 1515.1 29.2 1528.3 41.4 1539 49.5 1560.3 54.6 1572.8 55.6 1590.9 55.6 1601.2 55.6 1600.3 78.7 1598.7 105.3 1598.7 114.9 1600.3 130.7 1602.5 145.7 Z" data-holc_grade="A"/>
<path d="M 2064.3 520 2055.1 523.4 2053.7 490.9 2007.4 493.8 2000.2 393.2 2070.1 388.1 2076.9 505.8 2072.5 507.3 2066.5 511.1 2064.6 515 2063.6 516.7 2064.3 520 Z" data-holc_grade="A"/>
<path d="M 2103.8 604.2 2058.8 628.1 2024.4 561.2 2044.5 549.7 2063.8 533.5 2103.8 604.2 Z" data-holc_grade="A"/>
<path d="M 1126.6 1677.3 1096.6 1655.4 1097.9 1651.3 1099.5 1652.5 1170.5 1430.3 1189 1437.9 1206.5 1439.7 1197.4 1499.9 1183.7 1569.4 1157.4 1697.3 1126.6 1677.3 Z" data-holc_grade="A"/>
</g>
<g id="B">
<path d="M 2177.8 879.4 2143.3 881.4 2142.3 862.7 2176.8 859.9 2177.8 879.4 Z" data-holc_grade="B"/>
<path d="M 515.4 754.9 510.1 848.8 508.9 851.6 505 854.2 498.4 858.3 492.7 863.3 486 870 489 777.7 489.7 754.6 515.4 754.9 Z" data-holc_grade="B"/>
<path d="M 1777.4 830 1777 829.4 1774.6 829.4 1766.8 829.5 1744.1 791.2 1761.2 790.1 1792.7 788.2 1795.5 827.7 1777.4 830 Z" data-holc_grade="B"/>
<path d="M 2089.3 683.5 2058.8 628.1 2103.8 604.2 2134.3 658 2089.3 683.5 Z" data-holc_grade="B"/>
<path d="M 2240.5 506.7 2220.6 504.1 2212.2 504.1 2204.9 504.8 2192.6 506 2174.7 504.8 2158 503.9 2118.8 506.8 2096.3 511.1 2065.8 524.4 2064.3 520 2063.6 516.7 2064.6 515 2066.5 511.1 2072.5 507.3 2076.9 505.8 2070.1 388.1 2144.1 383.5 2142.7 348.8 2168.3 347.6 2171 380.4 2231.5 377.5 2240.5 506.7 Z" data-holc_grade="B"/>
<path d="M 2474.2 1002 2463.9 1042.8 2442 1036.1 2444.5 1023.5 2429.7 1019.7 2437.1 991.4 2474.2 1002 Z" data-holc_grade="B"/>
<path d="M 2215.7 1798.1 2223 1729.4 2187.8 1729.8 2187.8 1710.1 2243.5 1707.3 2238.7 1795.6 2215.7 1798.1 Z" data-holc_grade="B"/>
<path d="M 1578.7 1907.3 1648.4 1856.1 1686.7 1908.7 1609.6 1961.8 1578.7 1907.3 Z" data-holc_grade="B"/>
<path d="M 1279.3 1766.5 1292.2 1925.6 1266.7 1927.3 1258 1822.5 1256.4 1804.9 1251.2 1741.2 1277.2 1739.6 1279.3 1766.5 Z" data-holc_grade="B"/>
<path d="M 1160.8 1699.5 1157.4 1697.3 1183.7 1569.4 1197.4 1499.9 1235.6 1522.6 1271.9 1464 1278.7 1469.4 1283.2 1478 1287.6 1489.3 1287.8 1497.7 1286.6 1510.4 1285.6 1520.4 1280.8 1527.6 1275.7 1533.7 1258 1544.7 1274.5 1702.9 1202.3 1709.5 1201.2 1727.8 1160.8 1699.5 Z" data-holc_grade="B"/>
<path d="M 1066.5 1567.3 1063.7 1565.8 1000 1679.5 976.2 1663.4 1093.5 1477.4 1055.3 1447.5 1002.1 1396.5 1018.3 1379.6 1129.5 1477.8 1083.7 1576.7 1066.5 1567.3 Z" data-holc_grade="B"/>
<path d="M 1170.5 1430.3 1099.5 1652.5 1097.9 1651.3 1096.6 1655.4 1074.9 1726.7 1094.9 1732.2 1100.4 1713.9 1119.8 1720 1126.6 1677.3 1157.4 1697.3 1160.8 1699.5 1148.5 1807.4 1083.9 1794.8 1041.3 1782.9 1023.3 1775.9 999 1764 1075.3 1594.4 1066.5 1567.3 1083.7 1576.7 1129.5 1477.8 1018.3 1379.6 1021.9 1375.7 1030.1 1381.5 1042.4 1368.9 1088.5 1411 1093.7 1404.9 1140.2 1446 1148.6 1430.6 1153.7 1418.8 1157 1421 1170.5 1430.3 Z M 1141.1 1499.7 1132.4 1496.5 1093.3 1573.5 1104 1578.4 1141.1 1499.7 Z" data-holc_grade="B"/>
<path d="M 589.2 930.3 593.8 831.3 606.3 829.8 614.4 827.1 618.6 825 623.6 822.1 629.2 819.7 655 820.4 651.4 898.9 589.2 930.3 Z" data-holc_grade="B"/>
<path d="M 976.2 1663.4 965.2 1680.9 944.6 1664.3 922 1695 909.2 1712.5 917.8 1718 873.2 1779.2 866.7 1775.3 827 1833.1 817.8 1827.2 813.5 1823.6 860 1753 856.4 1749.7 903 1682.3 891.9 1676.8 920.2 1636.3 929.7 1643.1 940.3 1628.2 857.2 1550.9 870.7 1536.5 950.5 1614.7 1022.3 1501 959.2 1441.7 1002.1 1396.5 1055.3 1447.5 1093.5 1477.4 976.2 1663.4 Z" data-holc_grade="B"/>
<path d="M 801.6 1937.5 777.4 1918.7 803.3 1882.1 786.6 1871.7 817.8 1827.2 827 1833.1 866.7 1775.3 873.2 1779.2 917.8 1718 958.5 1746.7 917.5 1817 890.4 1798.9 801.6 1937.5 Z" data-holc_grade="B"/>
<path d="M 1073.8 1809.5 1048.4 1889.9 1076.2 1899.8 1077.9 1890.9 1115.2 1898.8 1108.1 1927.5 1132.6 1932.6 1165.5 1933.5 1163.8 1965.8 1192.6 1970.7 1191.4 1978.6 1190.5 1999.1 1160 1999.1 1161.4 2015.5 1115.9 2014 1068 2002.7 1056.4 1980.7 1059.7 1965.3 1035.8 1959.8 1024.9 2002.9 991.2 1997.1 988.8 2011.1 975 2007.7 930.4 1990.6 933.8 1983.1 903.3 1969.1 920 1932.3 994.4 1772.8 1073.8 1809.5 Z" data-holc_grade="B"/>
<path d="M 686.6 747.9 653.3 767 658.5 666.9 689.5 667.5 686.6 747.9 Z" data-holc_grade="B"/>
<path d="M 736 839 739.7 776.6 745.8 772.7 751.5 769.3 759.1 766.2 763 765.8 767.7 766.1 770.6 767.5 773.9 770.8 775.4 779.3 774.2 813.7 773.6 818.5 772.1 821.6 769 824.7 736 839 Z" data-holc_grade="B"/>
<path d="M 824.2 830 828.1 831.1 830.8 831.3 834.8 830 836.8 828.6 838.6 826.1 839 823.1 838.7 821 838.6 817.5 838.1 812.9 837.8 809.2 866.5 803.5 864.4 839.7 830.7 838.3 827.6 835.1 824.2 830 Z" data-holc_grade="B"/>
<path d="M 868.2 1018.3 859.8 1004 857.9 952.5 857.3 943.7 855.9 940.5 853.4 938 847.7 933.9 844.4 933.1 793.6 928.5 794.1 915.4 786.8 915 792.8 838 808.3 833.9 807.5 852.2 808.8 855 815.4 864.6 820.7 873.3 826.8 883.6 833.7 899.1 848.4 918.3 880 954 887.3 958.9 891.7 960.2 889.4 982.4 889.6 987.2 890.7 1018 868.2 1018.3 Z" data-holc_grade="B"/>
<path d="M 1150.4 472.2 1132.2 634 1118.9 632.3 1127.4 541.1 1109.5 540.1 1117 468.4 1150.4 472.2 Z M 1169.2 274.7 1155 442.4 1137.8 440.4 1152.1 272.6 1169.2 274.7 Z" data-holc_grade="B"/>
<path d="M 1199.7 807.4 1143.8 801.1 1140.9 799.2 1139.7 796.3 1144.5 740.9 1230.1 690.2 1260.7 762.4 1205.5 756.1 1199.7 807.4 Z" data-holc_grade="B"/>
<path d="M 1506 983.4 1361 869.7 1469.9 881.3 1474.9 886.8 1480.5 898.1 1483.7 903.4 1488.5 907.8 1497.7 915.2 1509.8 923.4 1516.8 928.5 1523.3 934.5 1527.2 938.8 1527.7 942.9 1527.9 947.3 1526.5 955.7 1521.9 963.6 1511.5 974 1507.9 979 1506 983.4 Z" data-holc_grade="B"/>
</g>
<g id="C">
<path d="M 28.3 1401.4 68.3 1374.4 69 1382.8 91.6 1367 90.6 1357.4 115.8 1340.1 116.1 1349.4 146.4 1397.3 123.8 1411.1 143.8 1439.3 77.9 1483.3 31.8 1412.6 28.3 1401.4 Z" data-holc_grade="C"/>
<path d="M 1107 993.4 1131.4 1071.2 1156.2 1155 1179 1175.5 1157.4 1194.7 1068.5 1111.4 1080.8 1097.2 1066.7 1083.1 1079.8 1070.1 1093.1 1083.3 1114.3 1061.7 1079.8 1030.3 1049.8 1029.7 1052.4 988.4 1107 993.4 Z" data-holc_grade="C"/>
<path d="M 1463.1 1089.3 1589 1187.3 1559 1224.2 1520.6 1194.1 1536 1173.9 1508.2 1152.2 1492.4 1172.5 1328.4 1044 1353.3 1014.2 1406 1059.7 1413.5 1051.5 1463.1 1089.3 Z M 1160.7 948.2 1386 1122.8 1617.1 1303.4 1634 1282.4 1703.9 1336.6 1663.3 1388.9 1468.4 1287.5 1283.6 1189 1131.4 1071.2 1107 993.4 1115.5 993.2 1117.6 978.5 1148.4 1005.3 1158.5 994.7 1160.7 948.2 Z M 1222.6 880.8 1285.5 929.4 1276.6 941.7 1338 992.5 1308.2 1028.1 1161.6 913.1 1162.3 904.1 1189.4 922.7 1222.6 880.8 Z" data-holc_grade="C"/>
<path d="M 1308.2 1028.1 1310 1029.6 1328.4 1044 1492.4 1172.5 1483.3 1182.6 1513.5 1205.2 1520.6 1194.1 1559 1224.2 1634 1282.4 1617.1 1303.4 1386 1122.8 1160.7 948.2 1161.6 913.1 1308.2 1028.1 Z" data-holc_grade="C"/>
<path d="M 1361 869.7 1506 983.4 1497.6 993 1492.7 998.8 1489.3 1004.1 1487.1 1012 1483 1027.9 1422 979.8 1405.6 1001.2 1358.4 964.3 1354.2 968.4 1291.1 919.5 1285.5 929.4 1222.6 880.8 1213.9 873.3 1231.1 868.2 1262.5 858.9 1361 869.7 Z" data-holc_grade="C"/>
<path d="M 1706.8 906.8 1716.9 905.6 1774.6 829.4 1777 829.4 1777.4 830 1797.2 866.7 1787.9 874.3 1799.2 894.8 1804.9 888.4 1816.6 910.8 1769.4 967.4 1827.5 1011.6 1814.2 1028.4 1830.3 1038.9 1791.8 1085.9 1777.8 1104.4 1764.9 1094.9 1735.2 1131.8 1666.3 1079.1 1631.6 1121.8 1516.8 1036.1 1545.8 998.2 1530.3 987.1 1489.2 1040.3 1482.1 1034.1 1483 1027.9 1487.1 1012 1489.3 1004.1 1492.7 998.8 1497.6 993 1510 984.7 1524.5 970.3 1533.4 955 1533.8 945.4 1533 936.6 1530.2 930.9 1517.3 923.3 1511.2 914.5 1497.9 900 1495.9 896.8 1496.3 888.4 1499.9 882.4 1506.8 872.7 1514.4 857.1 1514 841.4 1516.4 837.4 1531.8 816.2 1535.8 804.9 1536.2 793.7 1537.4 779.2 1555.6 785.3 1523.3 883.2 1541.9 897.6 1554.4 856.3 1575.3 863.5 1569.3 884 1577.4 886.4 1572.1 902 1706.8 906.8 Z M 1617.7 970.2 1560.6 947.7 1551.1 972.4 1603 1013 1617.7 970.2 Z" data-holc_grade="C"/>
<path d="M 1617.7 970.2 1603 1013 1551.1 972.4 1560.6 947.7 1617.7 970.2 Z" data-holc_grade="C"/>
<path d="M 2021.6 1266 2010.8 1282.7 2000.5 1274.8 1942 1230.1 1953.5 1215.1 1955.9 1217 2021.6 1266 Z M 1935.9 1199.2 1922.4 1215.3 1857.5 1166.1 1871.2 1148.9 1935.9 1199.2 Z M 1846.1 1126.7 1833.3 1145.5 1777.8 1104.4 1791.8 1085.9 1846.1 1126.7 Z" data-holc_grade="C"/>
<path d="M 1744.1 791.2 1766.8 829.5 1774.6 829.4 1716.9 905.6 1706.8 906.8 1720.9 835.4 1588.3 829.3 1603.6 780.1 1739.8 783.9 1744.1 791.2 Z M 1885.2 779.6 1811.4 879.9 1801.9 862.3 1797.2 866.7 1777.4 830 1795.5 827.7 1792.7 788.2 1761.2 790.1 1759.6 777.8 1799.5 743.3 1817.6 750.9 1885.2 779.6 Z" data-holc_grade="C"/>
<path d="M 2003.2 740.4 1884.5 746.7 1885.2 779.6 1817.6 750.9 1851.6 724.4 1841.9 712.3 1880.6 683.6 1886.7 688.9 1962.9 635.5 1985 600.8 1992.5 600.6 2003.2 740.4 Z M 1882.2 720.6 1880.6 702.3 1861.3 703.3 1862.5 722.2 1882.2 720.6 Z" data-holc_grade="C"/>
<path d="M 2231.5 377.5 2171 380.4 2168.3 347.6 2142.7 348.8 2144.1 383.5 2070.1 388.1 2000.2 393.2 1996 312.5 2225.9 296.1 2231.5 377.5 Z" data-holc_grade="C"/>
<path d="M 1 1217 125.6 1180.5 137.8 1287.4 35.1 1355.8 1 1217 Z" data-holc_grade="C"/>
<path d="M 2089.3 683.5 2134.3 658 2103.8 604.2 2063.8 533.5 2044.5 549.7 2024.4 561.2 2017.9 550.6 2037.9 529.4 2046.2 525.3 2055.1 523.4 2064.3 520 2065.8 524.4 2096.3 511.1 2118.8 506.8 2158 503.9 2174.7 504.8 2192.6 506 2204.9 504.8 2212.2 504.1 2220.6 504.1 2240.5 506.7 2247.5 631.5 2194.8 703.5 2195.8 726.8 2198.5 765.8 2201.6 824.6 2158.1 826.8 2146 820.7 2140.2 812.6 2138 806.5 2136.3 797.9 2136.3 790.2 2138 783.4 2174 780.5 2168.2 711.9 2092 717 2089.3 683.5 Z" data-holc_grade="C"/>
<path d="M 2175.2 1148.2 2161.4 1145.4 2153 1145.7 2185.8 1030.7 2177.8 879.4 2176.8 859.9 2180.9 859.3 2179.3 846.4 2210.6 844.5 2209 837.4 2262.3 831.6 2175.2 1148.2 Z" data-holc_grade="C"/>
<path d="M 2531.3 1015.1 2533.6 1017.1 2535.2 1021.2 2534.9 1028 2527.8 1059.1 2568.8 1071.3 2549.2 1145.8 2552.4 1178.3 2535.7 1239.6 2389.4 1200.5 2410.4 1120.5 2343.9 1103.5 2380.9 967.1 2509.1 999.7 2506.5 1008.7 2531.3 1015.1 Z M 2474.2 1002 2437.1 991.4 2429.7 1019.7 2444.5 1023.5 2442 1036.1 2463.9 1042.8 2474.2 1002 Z" data-holc_grade="C"/>
<path d="M 2389.4 1200.5 2535.7 1239.6 2526.1 1261.4 2236.1 1186.6 2211.3 1180.2 2168.5 1169.1 2175.2 1148.2 2389.4 1200.5 Z" data-holc_grade="C"/>
<path d="M 2882.1 1352.9 2875.8 1366.6 2851.6 1356.8 2812.7 1447.4 2794.2 1439.5 2833 1348.4 2807.6 1335.8 2566.8 1274.1 2575.9 1243.8 2595.3 1248.9 2623.9 1256.4 2645.4 1262 2659.1 1265.6 2667.5 1233.3 2692.4 1239.5 2682.1 1277.6 2806.4 1311.5 2886.1 1344.1 2882.1 1352.9 Z" data-holc_grade="C"/>
<path d="M 2914.8 1520.1 2967.7 1395.3 2999 1407.9 2947.2 1531.8 2914.8 1520.1 Z M 2905.6 1390.9 2927.9 1400.5 2910.7 1445.7 2904.6 1460.5 2883.3 1507.3 2860.9 1497.7 2905.6 1390.9 Z" data-holc_grade="C"/>
<path d="M 2386.3 1613.4 2389.7 1541.3 2401 1540.1 2394.8 1620.8 2459.4 1625.6 2464.7 1627.6 2458.8 1754.5 2363.4 1746.6 2365.3 1696.5 2373.5 1689.5 2376.1 1634.8 2386.3 1635.1 2386.3 1613.4 Z" data-holc_grade="C"/>
<path d="M 2136.5 1555.2 2121.2 1534.3 2113.5 1539.1 2083.3 1500.6 2123.9 1469.2 2112.1 1455.9 2134.1 1442.4 2145.9 1439.1 2191.4 1437.6 2191.4 1440.7 2226.5 1440.7 2223.3 1477.3 2195 1474.9 2190.6 1538.3 2220.1 1539.5 2216 1584.5 2158.7 1580.5 2155.1 1554 2136.5 1555.2 Z" data-holc_grade="C"/>
<path d="M 2202.5 1987 2134.5 1991.6 2129.4 1921.4 2181.1 1916.1 2171.7 1739.5 2138.6 1741.5 2137.4 1720.2 2165.2 1718.6 2164 1698.5 2185.4 1696.5 2243.9 1699.7 2243.5 1707.3 2187.8 1710.1 2187.8 1729.8 2223 1729.4 2215.7 1798.1 2215.3 1821.3 2195.5 1823 2196.4 1850.3 2201.6 1850.7 2208.9 1969.5 2202.5 1987 Z" data-holc_grade="C"/>
<path d="M 2060 2235.8 2095 2286.6 2023.9 2334.8 2010.7 2315.2 2001.6 2319 1993.6 2304.3 1925.5 2213.7 1946.4 2200.5 1986.1 2259.9 2010.7 2242.6 1986.1 2203.4 2000 2196 1980.3 2167.4 2000 2153.3 2028.1 2189.6 2060 2235.8 Z" data-holc_grade="C"/>
<path d="M 226.9 974.4 305.5 976.9 304.5 1019.4 296.7 1036.1 226.2 1034.8 226.9 974.4 Z" data-holc_grade="C"/>
<path d="M 1749.4 2387.7 1713.8 2315.6 1783.5 2292 1816.9 2271.7 1852.8 2329.1 1749.4 2387.7 Z" data-holc_grade="C"/>
<path d="M 1749.4 2387.7 1783.5 2457 1735.3 2472.1 1706.7 2388.7 1684.8 2325.6 1713.8 2315.6 1749.4 2387.7 Z" data-holc_grade="C"/>
<path d="M 1511.4 2380 1597.7 2353.7 1619.1 2421.6 1587.3 2429.5 1597.4 2467.4 1532.8 2484.8 1511.4 2380 Z" data-holc_grade="C"/>
<path d="M 1390.3 2416.8 1428.8 2405.6 1446.3 2496.4 1400.9 2502.3 1390.3 2416.8 Z" data-holc_grade="C"/>
<path d="M 1542.9 2094 1521.4 2101.5 1507.3 2064.4 1527.3 2057.3 1542.9 2094 Z M 1797.3 1763.8 1764.6 1876.6 1660.1 1955.3 1574.9 2005.9 1526.5 2036.5 1461.1 2062.2 1412.3 2075.2 1396.2 2017.7 1388.2 2019.6 1392.1 2076 1306.9 2082.2 1309.2 2101.7 1312.9 2141 1284 2143.7 1278.7 2087 1255 2089.7 1249.7 2030.9 1247.3 2002.9 1296.4 2002.7 1346.7 2003.1 1385.8 2001.5 1419.4 1990.4 1429.6 2023.2 1489.8 2002.3 1477 1969.8 1559.8 1922.4 1571.9 1912.4 1578.7 1907.3 1609.6 1961.8 1686.7 1908.7 1648.4 1856.1 1658.7 1848.5 1705.3 1814.8 1719 1829.2 1760.5 1777.8 1767 1771.4 1773.1 1767.4 1779.1 1763.4 1785.2 1762.2 1794 1763 1797.3 1763.8 Z M 1642.9 1828.4 1498.4 1925.2 1408.8 1961.8 1402 1931.2 1461.9 1910.8 1480.1 1900.3 1487.3 1917.6 1498.2 1912.8 1490.2 1895.1 1602.8 1823.6 1604.8 1822.4 1596.7 1810.4 1641.5 1779.1 1635 1767.8 1645.9 1758.2 1679.4 1799.9 1675.4 1807.6 1642.9 1828.4 Z" data-holc_grade="C"/>
<path d="M 1658.7 1848.5 1648.4 1856.1 1578.7 1907.3 1571.9 1912.4 1559.8 1922.4 1477 1969.8 1469.4 1973.8 1419.4 1990.4 1385.8 2001.5 1346.7 2003.1 1296.4 2002.7 1295.6 1970.4 1342.2 1966.6 1408.8 1961.8 1498.4 1925.2 1642.9 1828.4 1658.7 1848.5 Z" data-holc_grade="C"/>
<path d="M 1342.2 1966.6 1322.9 1761.8 1279.3 1766.5 1277.2 1739.6 1276.3 1720.6 1314.8 1716.9 1320.1 1749.7 1324.9 1751.4 1327.7 1755 1331 1758.6 1332.6 1762.6 1334.6 1770.6 1340.2 1772.2 1343.5 1777.5 1345.5 1780.7 1349.1 1799.5 1351.5 1804 1354.8 1804.8 1360.4 1804.8 1389.5 1916 1360.8 1919.6 1361.2 1938.9 1377.8 1936.9 1402 1931.2 1408.8 1961.8 1342.2 1966.6 Z" data-holc_grade="C"/>
<path d="M 1295.6 1970.4 1292.2 1925.6 1279.3 1766.5 1322.9 1761.8 1342.2 1966.6 1295.6 1970.4 Z" data-holc_grade="C"/>
<path d="M 1285.5 1445.8 1299.1 1479.8 1322 1537.1 1331.4 1560.7 1329.4 1562.7 1385.4 1693.7 1341.5 1714.3 1314.8 1716.9 1276.3 1720.6 1201.2 1727.8 1202.3 1709.5 1274.5 1702.9 1258 1544.7 1275.7 1533.7 1280.8 1527.6 1285.6 1520.4 1286.6 1510.4 1287.8 1497.7 1287.6 1489.3 1283.2 1478 1278.7 1469.4 1271.9 1464 1235.6 1522.6 1197.4 1499.9 1206.5 1439.7 1216.9 1440.3 1232.1 1412.7 1285.5 1445.8 Z M 1325.2 1634.1 1307.1 1566.7 1294.2 1522.9 1286.9 1528.9 1311.9 1636.7 1325.2 1634.1 Z" data-holc_grade="C"/>
<path d="M 1235.5 1321.2 1219.3 1275.7 1214.2 1270.9 1241.1 1235.1 1296.8 1279.3 1261.1 1335.7 1235.5 1321.2 Z" data-holc_grade="C"/>
<path d="M 595.2 1292.8 615 1296 592.1 1366.3 574.5 1357.2 595.2 1292.8 Z" data-holc_grade="C"/>
<path d="M 1061.1 1334.5 1078.7 1316.7 1119.2 1353.8 1111.8 1365.4 1125.7 1377.6 1111.8 1396.6 1148.6 1430.6 1140.2 1446 1093.7 1404.9 1110.5 1382.4 1061.1 1334.5 Z" data-holc_grade="C"/>
<path d="M 1028.9 1209 1051.4 1218.4 1074.9 1228.3 1108.5 1248.3 1055.4 1303.8 1042 1317.9 980.4 1258.1 991.6 1245.9 965.5 1221.5 978.3 1207.8 991.6 1219.6 1006.9 1201.6 1028.9 1209 Z" data-holc_grade="C"/>
<path d="M 980.4 1258.1 1042 1317.9 959.4 1405.5 955.2 1401.7 898.6 1348.4 827.7 1283.2 845.7 1264.9 832.8 1251.4 845.9 1238.8 859.9 1251.9 872.1 1237.9 886.1 1249.9 898.4 1237.4 925.1 1260.8 929.7 1259.1 932.8 1261.5 945.6 1248 969.1 1270.4 980.4 1258.1 Z" data-holc_grade="C"/>
<path d="M 955.2 1401.7 931.1 1427.9 935.2 1432.5 882.9 1486.7 841.6 1447.5 866.9 1420.6 846.7 1402.1 898.6 1348.4 955.2 1401.7 Z" data-holc_grade="C"/>
<path d="M 882.9 1486.7 811.5 1563.3 777.4 1531.7 764.5 1542.5 800.4 1576.8 768.6 1611.8 739.5 1586.1 756.2 1567.5 741.5 1554 841.6 1447.5 882.9 1486.7 Z" data-holc_grade="C"/>
<path d="M 1076.9 1315.7 1078.7 1316.7 1061.1 1334.5 1055.2 1329.7 1016.6 1369.9 1021.9 1375.7 1018.3 1379.6 1002.1 1396.5 959.2 1441.7 870.7 1536.5 857.2 1550.9 757.2 1657.9 734.2 1682.5 730.8 1651.9 768.6 1611.8 800.4 1576.8 807.9 1582.8 819 1572 811.5 1563.3 882.9 1486.7 935.2 1432.5 942.4 1438.8 966.9 1413.3 959.4 1405.5 1042 1317.9 1055.4 1303.8 1076.9 1315.7 Z" data-holc_grade="C"/>
<path d="M 870.7 1536.5 959.2 1441.7 1022.3 1501 950.5 1614.7 870.7 1536.5 Z M 970 1568.5 981.3 1551.8 991.7 1536.4 984.6 1529.6 990.1 1521.9 945 1480.2 906.6 1521.8 943.2 1555.2 925.5 1575.7 949.7 1598.7 970 1568.5 Z" data-holc_grade="C"/>
<path d="M 856.4 1749.7 757.2 1657.9 857.2 1550.9 940.3 1628.2 929.7 1643.1 920.2 1636.3 891.9 1676.8 903 1682.3 856.4 1749.7 Z M 845.4 1692.8 890.9 1646.7 886.9 1641.7 892.4 1635.4 852.8 1599.7 832.7 1620.3 845.7 1633.3 839 1639.1 846.9 1647.5 822.4 1671.8 807 1687 830.5 1707.9 845.4 1692.8 Z" data-holc_grade="C"/>
<path d="M 856.4 1749.7 860 1753 813.5 1823.6 817.8 1827.2 786.6 1871.7 803.3 1882.1 777.4 1918.7 801.6 1937.5 775.4 1978.7 748.5 1958.9 746.6 1942.8 753.6 1936.1 783.9 1892.5 770.8 1883.1 780.8 1868.4 769.2 1860.4 779.1 1845.7 762.1 1828.4 809.9 1778.3 763.6 1734.7 776.2 1722.6 734.2 1682.5 757.2 1657.9 856.4 1749.7 Z" data-holc_grade="C"/>
<path d="M 999 1764 1023.3 1775.9 1041.3 1782.9 1083.9 1794.8 1148.5 1807.4 1160.8 1699.5 1201.2 1727.8 1276.3 1720.6 1277.2 1739.6 1251.2 1741.2 1189 1744.9 1186.4 1808.8 1162.6 1806.8 1155.1 1807.3 1151 1811.6 1147.4 1817.4 1136.2 1895 1160.9 1896.7 1163.4 1828.7 1177.2 1828.3 1179.6 1819.8 1197.7 1820.6 1196.9 1830.4 1196.3 1838.1 1187.3 1838.9 1183.2 1896.9 1194.6 1897.4 1194.6 1903.9 1229.9 1901.8 1227 1864.7 1246.9 1862.5 1242.3 1824.2 1258 1822.5 1266.7 1927.3 1292.2 1925.6 1295.6 1970.4 1191.4 1978.6 1192.6 1970.7 1163.8 1965.8 1165.5 1933.5 1132.6 1932.6 1108.1 1927.5 1115.2 1898.8 1077.9 1890.9 1097.3 1808.3 1076 1802.2 1073.8 1809.5 994.4 1772.8 958.5 1746.7 917.8 1718 909.2 1712.5 922 1695 947 1713.3 939.5 1724.6 999 1764 Z" data-holc_grade="C"/>
<path d="M 489 777.7 486 870 483.7 873.3 479 877.3 473.9 883.2 469.7 889 465 896.5 457.6 908.7 455.1 914.5 450.8 920 445.1 924.8 437.4 931.8 427.4 939.2 431.3 776.6 489 777.7 Z" data-holc_grade="C"/>
<path d="M 1247.3 2002.9 1189.4 2002.9 1190.5 1999.1 1191.4 1978.6 1295.6 1970.4 1296.4 2002.7 1247.3 2002.9 Z" data-holc_grade="C"/>
<path d="M 1190.5 1999.1 1189.4 2002.9 1247.3 2002.9 1249.7 2030.9 1190.9 2036.4 1116.4 2033 1106.5 2091.4 1034.3 2077.1 1009.8 2182.4 980.3 2174.9 973.2 2198.8 912.2 2197.6 924.8 2161.7 881.5 2145.7 828.2 2121.9 903.3 1969.1 933.8 1983.1 930.4 1990.6 975 2007.7 988.8 2011.1 991.2 1997.1 1024.9 2002.9 1035.8 1959.8 1059.7 1965.3 1056.4 1980.7 1068 2002.7 1115.9 2014 1161.4 2015.5 1160 1999.1 1190.5 1999.1 Z" data-holc_grade="C"/>
<path d="M 511.7 2371.6 542.5 2308.2 614.6 2356.2 597.9 2386.4 586.7 2416.5 511.7 2371.6 Z M 575.6 2245.2 593.8 2214.3 607.5 2220.7 624.5 2232 581.2 2315.9 552.2 2292.2 562.3 2266.9 575.6 2245.2 Z" data-holc_grade="C"/>
<path d="M 510.1 848.8 515.4 754.9 534.3 755.7 543.7 557.9 682.8 565.1 906.6 742.6 905 791.2 823.5 804 790.8 763.4 779.5 755 771.9 753 754.9 750.2 751.3 749.4 740.8 749 719 754.2 700.5 761.4 679.5 774.2 660.1 787.5 648.8 794.7 632.3 802.3 622.6 807.5 600 812.3 585.1 814.7 565.7 817.9 552.8 820.3 547.2 828.7 537.9 830.7 527 837.2 510.1 848.8 Z M 686.6 747.9 689.5 667.5 658.5 666.9 653.3 767 686.6 747.9 Z" data-holc_grade="C"/>
<path d="M 891.7 960.2 887.3 958.9 880 954 848.4 918.3 833.7 899.1 826.8 883.6 820.7 873.3 815.4 864.6 808.8 855 807.5 852.2 808.3 833.9 792.8 838 793.7 827.3 818.7 816.5 822.5 827.4 824.2 830 827.6 835.1 830.7 838.3 864.4 839.7 866.5 803.5 905.1 801.6 891.7 960.2 Z" data-holc_grade="C"/>
<path d="M 1152.1 272.6 1137.8 440.4 1155 442.4 1209.3 448.5 1233.8 451.3 1224.4 537.7 1232.4 538.7 1228.7 573.4 1201.2 570.2 1210.1 477.3 1151.3 470.8 1150.4 472.2 1117 468.4 1109.5 540.1 1127.4 541.1 1118.9 632.3 1132.2 634 1132.9 636.4 1132.9 640.5 1132.9 644.4 1131.2 649.2 1129.9 652.3 1061 642.7 1079.2 399 1084.6 275.5 1094.8 159.5 1142.7 164.8 1139.5 198.7 1158.2 201.2 1154.5 239.2 1152.1 272.6 Z" data-holc_grade="C"/>
<path d="M 1129.9 652.3 1190.5 660.8 1237.9 667.5 1239.9 672.8 1240.1 678.1 1238.9 683.1 1236.2 686.5 1230.1 690.2 1144.5 740.9 1139.7 796.3 1140.9 799.2 1143.8 801.1 1199.7 807.4 1195.6 849 1215.4 851.9 1231.1 868.2 1213.9 873.3 1163.1 890.7 1166.5 851.7 1184.7 854.1 1174.7 842.3 1130.9 810 1122.5 801.1 1118.1 794.1 1116.4 787.6 1115.7 778.7 1116.2 770.3 1117.2 762.6 1119.8 753 1123 747.2 1099.3 761.1 1053.3 757 1061 642.7 1129.9 652.3 Z" data-holc_grade="C"/>
</g>
<g id="D">
<path d="M 1141.1 1499.7 1104 1578.4 1093.3 1573.5 1132.4 1496.5 1141.1 1499.7 Z" data-holc_grade="D"/>
<path d="M 1325.2 1634.1 1311.9 1636.7 1286.9 1528.9 1294.2 1522.9 1307.1 1566.7 1325.2 1634.1 Z" data-holc_grade="D"/>
<path d="M 615.1 1382.4 667.5 1229.9 685.4 1237 633.4 1391.1 615.1 1382.4 Z" data-holc_grade="D"/>
<path d="M 2000.5 1274.8 1942.1 1353 1927.5 1342.5 1880.5 1402.8 1835.7 1366.8 1942 1230.1 2000.5 1274.8 Z" data-holc_grade="D"/>
<path d="M 1880.6 683.6 1841.9 712.3 1809 735.2 1705 695.3 1602.4 699.1 1594.3 601.6 1655.2 598.4 1625.9 539.8 1744.9 532.2 1731.2 546.6 1880.6 683.6 Z" data-holc_grade="D"/>
<path d="M 1972.1 456 1842.2 464.7 1839.3 413.4 1967.7 405.5 1972.1 456 Z" data-holc_grade="D"/>
<path d="M 2150.4 153.6 2214.5 149.6 2217.7 197.7 2153 201.6 2150.4 153.6 Z" data-holc_grade="D"/>
<path d="M 2247.5 631.5 2240.5 506.7 2323.7 502.1 2328.8 552 2315.7 559.4 2294.2 580.9 2251.6 627.6 2247.5 631.5 Z" data-holc_grade="D"/>
<path d="M 2195.8 726.8 2254.8 723.7 2257.3 762.2 2198.5 765.8 2195.8 726.8 Z" data-holc_grade="D"/>
<path d="M 2048 750.2 2085.7 747 2092.2 819.6 2052.7 822.6 2048 750.2 Z" data-holc_grade="D"/>
<path d="M 1946.8 804.4 1885.2 779.6 1884.5 746.7 2003.2 740.4 2005.1 771.9 1943.7 775.3 1946.8 804.4 Z" data-holc_grade="D"/>
<path d="M 1946.8 804.4 2035.3 839.9 2040.8 920.7 2056.6 1151 1964.8 1159 1960.2 1163.6 1950.7 1180.1 1935.9 1199.2 1871.2 1148.9 1846.1 1126.7 1791.8 1085.9 1830.3 1038.9 1814.2 1028.4 1827.5 1011.6 1769.4 967.4 1816.6 910.8 1804.9 888.4 1811.4 879.9 1885.2 779.6 1946.8 804.4 Z" data-holc_grade="D"/>
<path d="M 2142.3 862.7 2143.3 881.4 2177.8 879.4 2185.8 1030.7 2153 1145.7 2056.6 1151 2040.8 920.7 2047.1 907.7 2052 898.1 2060.4 885.6 2115.9 882.7 2112.6 842.9 2130.7 842.2 2131.4 862.8 2142.3 862.7 Z M 2146.3 1101 2136.9 981.2 2105 983.5 2113.4 1104.2 2146.3 1101 Z" data-holc_grade="D"/>
<path d="M 980.4 1258.1 969.1 1270.4 945.6 1248 932.8 1261.5 929.7 1259.1 925.1 1260.8 898.4 1237.4 886.1 1249.9 872.1 1237.9 859.9 1251.9 845.9 1238.8 832.8 1251.4 845.7 1264.9 827.7 1283.2 803.3 1259.8 900.2 1060.9 933.8 1091 961.9 1063.5 1000.1 1100.2 976.9 1126.4 1043.7 1193.6 1028.9 1209 1006.9 1201.6 991.6 1219.6 978.3 1207.8 965.5 1221.5 991.6 1245.9 980.4 1258.1 Z" data-holc_grade="D"/>
<path d="M 2146.3 1101 2113.4 1104.2 2105 983.5 2136.9 981.2 2146.3 1101 Z" data-holc_grade="D"/>
<path d="M 2236.1 1186.6 2526.1 1261.4 2521.8 1269.8 2516.3 1276.9 2422.9 1328.9 2315.7 1303.6 2269.5 1302.3 2209.8 1288.6 2236.1 1186.6 Z M 2021.6 1266 1955.9 1217 1971.3 1196.1 1980.1 1186.2 1984.3 1181.1 1998.1 1178.2 2155.6 1165.6 2168.5 1169.1 2211.3 1180.2 2183.4 1285 2064 1297.6 2021.6 1266 Z" data-holc_grade="D"/>
<path d="M 2531.3 1015.1 2506.5 1008.7 2509.1 999.7 2380.9 967.1 2343.9 1103.5 2410.4 1120.5 2389.4 1200.5 2175.2 1148.2 2262.3 831.6 2278.4 836.4 2284.2 927.9 2283.9 945.6 2279.1 972.6 2307.8 979.6 2339.7 852.1 2535.6 904.4 2516.9 979.8 2517.3 986.3 2518.6 994.3 2521.8 1002.3 2526.9 1009.4 2531.3 1015.1 Z" data-holc_grade="D"/>
<path d="M 2882.1 1352.9 2886.1 1344.1 2806.4 1311.5 2682.1 1277.6 2692.4 1239.5 2667.5 1233.3 2659.1 1265.6 2645.4 1262 2699.4 1081.7 2849.2 1120 2995 1174.7 2916.1 1366.4 2882.1 1352.9 Z M 2623.9 1256.4 2595.3 1248.9 2649.6 1068.9 2675.6 1076.3 2623.9 1256.4 Z" data-holc_grade="D"/>
<path d="M 2566.8 1274.1 2807.6 1335.8 2833 1348.4 2794.2 1439.5 2812.7 1447.4 2851.6 1356.8 2875.8 1366.6 2827.8 1481.5 2763.2 1455 2729.8 1427.7 2606.9 1393.7 2627.5 1325 2604.5 1318.2 2586.4 1383.1 2584.2 1376.4 2580 1376 2581.2 1368.2 2581 1363.8 2577.9 1362.4 2574.5 1361.4 2573.7 1356.2 2565 1351 2571.1 1329.9 2551.7 1323.5 2566.8 1274.1 Z" data-holc_grade="D"/>
<path d="M 2967.7 1395.3 2914.8 1520.1 2895.6 1510.9 2907.1 1484.2 2934.6 1410.1 2932.6 1403.3 2929.8 1401.3 2927.9 1400.5 2905.6 1390.9 2913.2 1374 2967.7 1395.3 Z" data-holc_grade="D"/>
<path d="M 2634 1580.7 2666.4 1595.9 2674.6 1603.6 2681.9 1611.3 2679.1 1691.3 2627.5 1689.1 2634 1580.7 Z" data-holc_grade="D"/>
<path d="M 2543.5 1672.1 2565.7 1677.8 2575.9 1682.9 2579.3 1686 2580 1689.9 2578.6 1737.1 2539.9 1736.4 2543.5 1672.1 Z" data-holc_grade="D"/>
<path d="M 2318.1 1777.7 2312.3 1910.9 2292.2 1907.6 2272.1 1910.9 2278.4 1784.2 2283.2 1776.3 2318.1 1777.7 Z M 2365.3 1696.5 2279.3 1766.6 2286.3 1628.8 2376.1 1634.8 2373.5 1689.5 2365.3 1696.5 Z M 2389.7 1541.3 2386.3 1613.4 2287.5 1608.8 2297.4 1440.5 2367.8 1462.1 2364.2 1540.9 2389.7 1541.3 Z" data-holc_grade="D"/>
<path d="M 2083.3 1500.6 2113.5 1539.1 2121.2 1534.3 2136.5 1555.2 2121.2 1556.4 2125.3 1638.3 2143 1636.7 2136.5 1555.2 2155.1 1554 2158.7 1580.5 2216 1584.5 2220.1 1539.5 2190.6 1538.3 2195 1474.9 2223.3 1477.3 2226.5 1440.7 2191.4 1440.7 2191.4 1437.6 2191.4 1427.1 2262 1433.5 2243.9 1699.7 2185.4 1696.5 2164 1698.5 2165.2 1718.6 2137.4 1720.2 2138.6 1741.5 2171.7 1739.5 2181.1 1916.1 2129.4 1921.4 2108.7 1559.6 2106.7 1554.4 2074.8 1508.6 2083.3 1500.6 Z M 2175.7 1677.2 2170.9 1635.1 2152.7 1636.3 2155.9 1678.4 2175.7 1677.2 Z" data-holc_grade="D"/>
<path d="M 1214.2 1270.9 1219.3 1275.7 1235.5 1321.2 1212.7 1358.4 1204 1393.9 1171.9 1377.2 1153.7 1418.8 1148.6 1430.6 1111.8 1396.6 1125.7 1377.6 1111.8 1365.4 1119.2 1353.8 1078.7 1316.7 1076.9 1315.7 1163.7 1224.1 1214.2 1270.9 Z" data-holc_grade="D"/>
<path d="M 2134.5 1991.6 2202.5 1987 2234.8 1984.8 2241.6 2112.2 2217.4 2114.6 2209.5 2114.6 2207 2077.2 2138.9 2076.3 2134.5 1991.6 Z" data-holc_grade="D"/>
<path d="M 2023.9 2334.8 1955.8 2377.5 1896 2273.8 1866.6 2224.6 1878.9 2202.8 1904.4 2185.7 1925.5 2213.7 1993.6 2304.3 2001.6 2319 2010.7 2315.2 2023.9 2334.8 Z M 2060 2235.8 2028.1 2189.6 2000 2153.3 1980.3 2167.4 2000 2196 1986.1 2203.4 2010.7 2242.6 1986.1 2259.9 1946.4 2200.5 1924.4 2172.2 1991.9 2126 1996.4 2127.6 2001 2132.4 2004.5 2137.5 2007.7 2138.2 2016.5 2132.7 2024.5 2128.5 2033.6 2124.3 2040 2126.3 2100.1 2211.1 2060 2235.8 Z" data-holc_grade="D"/>
<path d="M 1684.8 2325.6 1706.7 2388.7 1647.5 2409.9 1626.5 2345 1684.8 2325.6 Z" data-holc_grade="D"/>
<path d="M 1825.9 1667.8 1797.3 1763.8 1794 1763 1785.2 1762.2 1779.1 1763.4 1773.1 1767.4 1767 1771.4 1760.5 1777.8 1719 1829.2 1705.3 1814.8 1713.3 1810.4 1793.2 1687.1 1800.9 1675 1809 1669 1817.4 1665 1825.9 1667.8 Z M 1679.4 1799.9 1645.9 1758.2 1680.6 1703.2 1663.3 1692.7 1705.2 1634.1 1767 1673.4 1679.4 1799.9 Z" data-holc_grade="D"/>
<path d="M 1523.3 1518.5 1705.2 1634.1 1663.3 1692.7 1622.9 1753.8 1635 1767.8 1641.5 1779.1 1596.7 1810.4 1604.8 1822.4 1602.8 1823.6 1490.2 1895.1 1498.2 1912.8 1487.3 1917.6 1480.1 1900.3 1461.9 1910.8 1402 1931.2 1377.8 1936.9 1361.2 1938.9 1360.8 1919.6 1389.5 1916 1360.4 1804.8 1354.8 1804.8 1351.5 1804 1349.1 1799.5 1345.5 1780.7 1343.5 1777.5 1340.2 1772.2 1334.6 1770.6 1332.6 1762.6 1331 1758.6 1327.7 1755 1324.9 1751.4 1320.1 1749.7 1314.8 1716.9 1341.5 1714.3 1385.4 1693.7 1329.4 1562.7 1331.4 1560.7 1322 1537.1 1367.1 1509.7 1351.4 1484 1327.6 1471.5 1299.1 1479.8 1285.5 1445.8 1264.6 1392.8 1283.6 1384.4 1291.7 1383.2 1310.6 1382 1317.1 1383.2 1319.9 1384 1389.3 1429.8 1378 1447.4 1398.2 1472.7 1393.7 1478.3 1502.7 1549 1523.3 1518.5 Z M 1476.4 1771 1447 1722.9 1422.4 1736.5 1440.1 1765 1425.2 1773 1407.8 1744.9 1384 1756.6 1399 1793.1 1420.9 1786.9 1427.2 1800.3 1476.4 1771 Z" data-holc_grade="D"/>
<path d="M 1565.2 2151.4 1542.9 2094 1527.3 2057.3 1534.6 2054.9 1526.5 2036.5 1574.9 2005.9 1660.1 1955.3 1764.6 1876.6 1797.3 1763.8 1825.9 1667.8 1871.9 1679.5 1837.2 1822.8 1940.5 1847.7 1945.8 1871.8 1932.1 1926.8 1903 1970.6 1826.4 2042 1803.8 2054.9 1709.3 2103.5 1565.2 2151.4 Z M 1800.1 1925.2 1815.5 1912.3 1817.5 1899.5 1795.3 1894.3 1748.1 1931.3 1792.5 1991.1 1846.9 1946.1 1819.9 1918 1804.6 1931.6 1800.1 1925.2 Z" data-holc_grade="D"/>
<path d="M 1412.3 2075.2 1417.5 2093.8 1470.8 2079.6 1507.3 2064.4 1521.4 2101.5 1542.9 2094 1565.2 2151.4 1430 2170.2 1287.7 2187 1247 2193.5 1222.8 2195.5 1213.8 2195.7 1206.6 2194.7 1195.7 2193.3 1185.7 2191.4 1154.7 2193 1096.4 2195.2 973.2 2198.8 980.3 2174.9 1009.8 2182.4 1034.3 2077.1 1106.5 2091.4 1116.4 2033 1190.9 2036.4 1249.7 2030.9 1255 2089.7 1278.7 2087 1284 2143.7 1312.9 2141 1309.2 2101.7 1393.5 2095.2 1392.1 2076 1388.2 2019.6 1396.2 2017.7 1412.3 2075.2 Z" data-holc_grade="D"/>
<path d="M 1196.9 1830.4 1242.3 1824.2 1246.9 1862.5 1227 1864.7 1229.9 1901.8 1194.6 1903.9 1194.6 1897.4 1183.2 1896.9 1187.3 1838.9 1196.3 1838.1 1196.9 1830.4 Z M 1163.4 1828.7 1160.9 1896.7 1136.2 1895 1147.4 1817.4 1151 1811.6 1155.1 1807.3 1162.6 1806.8 1163.4 1828.7 Z M 1256.4 1804.9 1186.4 1808.8 1189 1744.9 1251.2 1741.2 1256.4 1804.9 Z" data-holc_grade="D"/>
<path d="M 984.6 1529.6 977.5 1522.9 963.6 1536.4 981.3 1551.8 970 1568.5 949.9 1549.2 943.2 1555.2 906.6 1521.8 945 1480.2 990.1 1521.9 984.6 1529.6 Z" data-holc_grade="D"/>
<path d="M 846.7 1402.1 866.9 1420.6 841.6 1447.5 741.5 1554 756.2 1567.5 739.5 1586.1 768.6 1611.8 730.8 1651.9 708.5 1448 708.3 1447.8 759.2 1344.7 793.4 1376.5 805.6 1364.7 846.7 1402.1 Z" data-holc_grade="D"/>
<path d="M 1049.8 1029.7 1079.8 1030.3 1114.3 1061.7 1093.1 1083.3 1079.8 1070.1 1066.7 1083.1 1080.8 1097.2 1068.5 1111.4 975.3 1024.3 1049.8 1029.7 Z" data-holc_grade="D"/>
<path d="M 845.4 1692.8 822.4 1671.8 846.9 1647.5 839 1639.1 845.7 1633.3 832.7 1620.3 852.8 1599.7 892.4 1635.4 886.9 1641.7 890.9 1646.7 845.4 1692.8 Z" data-holc_grade="D"/>
<path d="M 775.4 1978.7 754.9 2007.6 747.5 2001.4 748.5 1958.9 775.4 1978.7 Z M 770.8 1883.1 765.8 1879.7 755.6 1894.4 748.3 1890 746.7 1815.4 734.2 1682.5 776.2 1722.6 763.6 1734.7 809.9 1778.3 762.1 1828.4 779.1 1845.7 769.2 1860.4 780.8 1868.4 770.8 1883.1 Z" data-holc_grade="D"/>
<path d="M 542.5 2308.2 511.7 2371.6 502.2 2392.1 502 2392.1 481.2 2381.2 521.9 2295.5 542.5 2308.2 Z M 607.5 2220.7 593.8 2214.3 575.6 2245.2 559.1 2233.9 598.7 2145.6 624.5 2187.4 607.5 2220.7 Z" data-holc_grade="D"/>
<path d="M 1210 2554.6 1172.1 2556.6 1170.5 2484.7 1208.8 2485.9 1210 2554.6 Z M 1135.8 2516.8 1134.9 2551.8 978.3 2532.8 859.6 2510.3 782.1 2483.8 791.8 2449.6 784.2 2446.4 803.5 2402.2 826.2 2407.1 818.1 2426.4 804.7 2453.3 825.3 2458.1 855.6 2467.3 1135.8 2516.8 Z" data-holc_grade="D"/>
<path d="M 1283.6 1189 1468.4 1287.5 1663.3 1388.9 1643.6 1413.7 1671.9 1428.3 1744.5 1459.4 1729.9 1511.6 1686.5 1493.5 1526.6 1409.7 1540.7 1391.6 1310.3 1270.2 1326.9 1247.6 1227.6 1194.9 1246.7 1172.8 1283.6 1189 Z" data-holc_grade="D"/>
<path d="M 1616.7 1171.7 1609 1180.2 1776.2 1309 1765.2 1323.1 1753 1313.5 1728.9 1344.5 1723.3 1351.7 1703.9 1336.6 1634 1282.4 1559 1224.2 1589 1187.3 1463.1 1089.3 1469 1079.7 1616.7 1171.7 Z" data-holc_grade="D"/>
<path d="M 1631.6 1121.8 1663.2 1147.5 1657 1155.3 1636.8 1184.2 1616.7 1171.7 1469 1079.7 1482.1 1034.1 1489.2 1040.3 1530.3 987.1 1545.8 998.2 1516.8 1036.1 1631.6 1121.8 Z" data-holc_grade="D"/>
<path d="M 1777.8 1104.4 1833.3 1145.5 1760.7 1237.8 1657 1155.3 1663.2 1147.5 1631.6 1121.8 1666.3 1079.1 1735.2 1131.8 1764.9 1094.9 1777.8 1104.4 Z" data-holc_grade="D"/>
<path d="M 1857.5 1166.1 1922.4 1215.3 1860.3 1298.4 1839.2 1281.7 1821.8 1304.6 1763.3 1267.7 1776.4 1249.8 1760.7 1237.8 1833.3 1145.5 1857.5 1166.1 Z" data-holc_grade="D"/>
<path d="M 1728.9 1344.5 1753 1313.5 1765.2 1323.1 1776.2 1309 1803.5 1331.3 1792.4 1344.6 1810.4 1359.1 1785.6 1389.9 1728.9 1344.5 Z" data-holc_grade="D"/>
<path d="M 1760.7 1237.8 1776.4 1249.8 1763.3 1267.7 1636.8 1184.2 1657 1155.3 1760.7 1237.8 Z" data-holc_grade="D"/>
<path d="M 1523.3 1518.5 1502.7 1549 1393.7 1478.3 1398.2 1472.7 1378 1447.4 1389.3 1429.8 1523.3 1518.5 Z" data-holc_grade="D"/>
<path d="M 2339.7 852.1 2307.8 979.6 2279.1 972.6 2283.9 945.6 2284.2 927.9 2278.4 836.4 2339.7 852.1 Z" data-holc_grade="D"/>
</g>
</svg>