<?xml version="1.0"?>
<svg xmlns="http://www.w3.org/2000/svg" version="1.2" baseProfile="tiny" width="3000" height="3352" viewBox="0 0 3000 3352" stroke-linecap="round" stroke-linejoin="round">
<g id="A">
<path d="M 2039.1 134.3 2040.3 156.9 1671.8 169.7 1668.2 11.8 2032 1 2039.1 134.3 Z" data-holc_grade="A"/>
<path d="M 1932.3 1024.4 1841.7 1018.8 1837.4 911.6 1824.8 594.5 1818.6 438.5 2012.6 434 2019.8 690.1 1862.3 695.2 1867.9 860.3 2007.5 857.2 1932.3 1024.4 Z" data-holc_grade="A"/>
<path d="M 1837.4 911.6 1696.9 915 1696.9 890.5 1518.8 895.1 1526 924.8 1457.7 926.3 1444.4 871.1 1501.8 868.5 1462.3 792.9 1320.2 803.6 1318.1 687.5 1435.9 689.6 1465.2 763.7 1689.4 753.5 1685.8 655.3 1777.7 653.3 1773.6 595 1824.8 594.5 1837.4 911.6 Z" data-holc_grade="A"/>
</g>
<g id="B">
<path d="M 1932.3 1024.4 2007.5 857.2 1867.9 860.3 1862.3 695.2 2019.8 690.1 2012.6 434 1818.6 438.5 1682.1 441.6 1671.8 169.7 2040.3 156.9 2039.1 134.3 2171.4 129.3 2179.2 401.2 2252.6 398.1 2258.3 707.4 2270.6 757.5 2277.3 803 2281.4 854.1 2292.2 876.6 2304.5 965.1 2261.9 1007.5 2199 1089.8 2067.6 1091.4 2068.1 1122.6 1886.9 1125.1 1932.3 1024.4 Z" data-holc_grade="B"/>
<path d="M 1932.3 1024.4 1886.9 1125.1 1636.6 1132.4 1622.7 1132.8 1526 924.8 1518.8 895.1 1696.9 890.5 1696.9 915 1837.4 911.6 1841.7 1018.8 1932.3 1024.4 Z" data-holc_grade="B"/>
<path d="M 2315.5 2035.1 2376 2116.4 2339.1 2146.1 2298 2166 2302.5 2208 2288.7 2218.2 2278.4 2229.4 2261.5 2239.2 2270.2 2376.2 1991.8 2379.8 1988.2 2179.4 2096 2176.8 2092.9 2036.7 2258.6 1978.8 2261.6 1982.9 2315.5 2035.1 Z" data-holc_grade="B"/>
<path d="M 2550.2 2100.5 2711.9 2151.6 2763.3 2115.8 2862.9 2186.3 2837.3 2535.2 2808.6 2716.2 2787.3 2717.2 2675.4 2573 2548 2643.6 2485.1 2508.7 2488.2 2435 2447.9 2433 2302.5 2208 2298 2166 2339.1 2146.1 2376 2116.4 2315.5 2035.1 2550.2 2100.5 Z" data-holc_grade="B"/>
<path d="M 184.9 2845.6 176.7 2830 253.9 2798.1 483.9 2971.7 437.9 3029 184.9 2845.6 Z" data-holc_grade="B"/>
<path d="M 357.6 1077.7 408.1 1085.6 510.3 1084.4 536.8 1086.3 576.2 1082 746.8 1085.1 794.8 1085.1 795.4 1309.1 783.1 1305.4 776.9 1363 773.8 1565.5 781.2 1748.4 479.3 1760.6 502.2 1395.5 500.4 1270.3 359.4 1239 360.6 1200.3 355.7 1185 357.6 1077.7 Z" data-holc_grade="B"/>
</g>
<g id="C">
<path d="M 1518.7 1444.6 1459.1 1446.3 1459.7 1420.2 1407.3 1420.2 1404.2 1357.8 1438.3 1356.8 1579.3 1352.7 1572.6 1212.6 1637.8 1210 1636.6 1132.4 1886.9 1125.1 2068.1 1122.6 2069.7 1197.7 2118.5 1194.7 2161.1 1199.2 2158 1229.4 2143.1 1258.6 2122.6 1284.1 2070.8 1329.6 2012.8 1384.4 1982 1384.4 1980.9 1264.2 1902.4 1267.3 1902.9 1384.9 1896.8 1384.4 1895.2 1406.9 1829 1405.3 1830.6 1436 1518.7 1444.6 Z" data-holc_grade="C"/>
<path d="M 1830.6 1436 1829 1405.3 1895.2 1406.9 1896.8 1384.4 1902.9 1384.9 1902.4 1267.3 1980.9 1264.2 1982 1384.4 2012.8 1384.4 2070.8 1329.6 2122.6 1284.1 2143.1 1258.6 2158 1229.4 2161.1 1199.2 2179.9 1162.9 2228.1 1199.7 2199.9 1241.7 2158.4 1332.2 2138.4 1356.2 2121.9 1384.9 2105.5 1407.9 2021.3 1486.1 1957.7 1514.2 1945.4 1495.8 1830.4 1499.4 1830.6 1436 Z" data-holc_grade="C"/>
<path d="M 2392.1 1347.8 2327.4 1347.3 2288.4 1339.7 2230.9 1344.3 2230 1317.2 2229.4 1299.8 2241.7 1281.4 2259.7 1260.4 2278.1 1245.1 2282.3 1237.4 2289.9 1138.7 2326.4 1067.6 2382.8 1020.1 2391.5 1033.4 2426.4 1039 2450.5 993.5 2480.3 994 2479.8 1017 2701 1012.3 2713.6 1105.9 2907.1 1036.8 2908.6 1068 2910.2 1099.2 2766.2 1149.3 2767.8 1259.8 2737.5 1259.3 2755.5 1386.6 2607.7 1386.6 2608.7 1331.9 2392.6 1334 2392.1 1347.8 Z" data-holc_grade="C"/>
<path d="M 2258.6 1978.8 2079.9 1738.5 2071.6 1735.5 2000.3 1707.4 1945.9 1670 1958.2 1644.5 1944.8 1634.2 1924.8 1604.1 1900.7 1573.4 1912 1560.1 2002.8 1512 2063.4 1482.9 2127 1422.5 2155.2 1372.9 2170.1 1355 2205.5 1327.9 2230 1317.2 2230.9 1344.3 2288.4 1339.7 2327.4 1347.3 2392.1 1347.8 2392.9 1452.1 2503.3 1452.6 2505.9 1545.7 2453 1547.2 2453 1615.2 2485.9 1616.2 2479.7 1736.4 2532.1 1735.9 2535.7 1951.7 2523.9 1981.3 2514.2 2014.6 2559.9 2034.5 2550.2 2083.6 2550.2 2100.5 2315.5 2035.1 2261.6 1982.9 2258.6 1978.8 Z" data-holc_grade="C"/>
<path d="M 2258.6 1978.8 2092.9 2036.7 2096 2176.8 1988.2 2179.4 1991.8 2379.8 2270.2 2376.2 2261.5 2239.2 2278.4 2229.4 2288.7 2218.2 2302.5 2208 2447.9 2433 2419.6 2434 2420.2 2688.2 2562.4 2682 2548 2643.6 2675.4 2573 2787.3 2717.2 2673.9 2721.4 2220.7 2729.7 2216 2443.2 2107.7 2444.3 2109.2 2565.5 1911.1 2569.6 1924.4 2529.7 1914.6 2385 1804.8 2388.6 1804.2 2302.1 1790.9 1818.3 1790.3 1798.4 1821.7 1792.8 1824.7 1780.5 1830.9 1759 1841.2 1736 1861.7 1710.4 1915.1 1706.9 1918.7 1700.2 1922.8 1690 1928.4 1680.3 1936.6 1673.6 1945.9 1670 2000.3 1707.4 2071.6 1735.5 2079.9 1738.5 2258.6 1978.8 Z M 2001.5 1904.7 2006.1 1892 1930.2 1862.5 1916.3 1885.3 1916.8 1917 1973.8 1940 2001.5 1904.7 Z" data-holc_grade="C"/>
<path d="M 1512.4 2523.4 1629 2522.6 1631.5 2505.4 1722.7 2505.4 1723.5 2532.4 1783.5 2534 1797.4 2573.3 1802.4 2609.3 1804.8 2663.3 1940.4 3062.7 1947 3203.5 1786.8 3211.7 1742.4 3265.7 1505.8 3307.5 1482.8 2750.1 1512.4 2523.4 Z" data-holc_grade="C"/>
<path d="M 184.9 2845.6 437.9 3029 483.9 2971.7 253.9 2798.1 176.7 2830 170.1 2805.5 158.6 2771.9 138.1 2739.2 127.4 2718.7 100.3 2701.5 75.7 2675.3 53.5 2643.4 28.1 2609.8 1 2542.7 44.5 2546 93 2538.6 164.4 2637.7 240.8 2734.3 488 2913.6 576.8 2868.6 541.5 2802.3 614.6 2768.8 621.2 2781.9 705.8 2735.2 709.1 2763.9 877.5 2567.5 852.1 2538.8 937.5 2537.2 972.8 2493.9 1063.2 2568.3 1017.2 2622.3 1062.4 2619.9 949 2759 916.1 2754.9 902.1 2759.8 838.9 2831.8 801.1 2880.1 748.5 2917.7 779.7 2956.2 644.1 3069.1 610.4 3094.5 560.3 3147.7 537.3 3136.2 483 3207.4 384.5 3120.6 340.1 3084.6 345 3074 212 2929.9 205.4 2893 184.9 2845.6 Z" data-holc_grade="C"/>
<path d="M 1053.9 1563.5 1407.4 1553.4 1415.9 1570.1 1422.6 1587 1422.6 1610 1419 1630.4 1409.7 1650.9 1371.7 1710.7 1308.6 1844.2 1218.8 1830.9 956.4 1838 940.5 1812.4 845.6 1804.8 840.4 1735.7 845.6 1713.7 849.2 1657.5 845.6 1561.3 875.9 1531.7 881 1519.9 978.1 1445.8 1006.3 1589 1053.9 1563.5 Z M 1325 1718.4 1331.7 1700 1331.7 1677.5 1328.6 1629.4 1136.6 1640.1 1136.6 1731.7 1210.6 1725 1234.2 1744.5 1242.4 1751.6 1252.6 1755.2 1267.5 1759.8 1278.3 1758.8 1294.7 1761.3 1308.6 1737.8 1325 1718.4 Z" data-holc_grade="C"/>
</g>
<g id="D">
<path d="M 1407.4 1553.4 1053.9 1563.5 1060.7 1556.4 1097 1431.9 1037.3 1413.5 1037.9 1390.5 997.5 1382.8 959.2 1389.2 938.6 1392.3 925.9 1393.5 916.7 1393.2 905.3 1383.7 896.1 1375.1 891.2 1285.5 1023.6 1290.8 994.7 1079.4 988.5 1053.6 987 1043.8 987 1032.1 994.1 1013.4 1029.5 899.3 1044.5 853.6 1121.8 866.8 1142.4 1038.6 1163.3 1034.9 1236.9 1042 1228 1117.1 1231.7 1208.6 1151 1211 1158.7 1398.5 1162.1 1408 1168.2 1414.7 1185.5 1422.1 1266.5 1468.4 1316.8 1493 1321.7 1500 1324.8 1503.7 1331.9 1508.9 1339 1508.9 1347.9 1508.3 1351.9 1507.1 1374.7 1516.9 1389.2 1527.3 1403.3 1544.8 1407.4 1553.4 Z" data-holc_grade="D"/>
<path d="M 1438.3 1356.8 1404.2 1357.8 1407.3 1420.2 1459.7 1420.2 1459.1 1446.3 1518.7 1444.6 1519.2 1545.9 1508.9 1525.5 1501.1 1510.8 1485.1 1492.3 1467.9 1477.6 1435.8 1468.2 1382.5 1461.3 1343 1451.8 1315.9 1440.8 1309.4 1430.2 1305.3 1417.5 1302.8 1410.1 1297.5 1280.9 1288.9 1098.4 1297.5 1035.9 1392.7 1038.7 1487.2 1033 1497.8 1152.8 1505.2 1214.6 1402.6 1219.9 1409.2 1278.8 1444.9 1276 1468.3 1276.8 1468.7 1339.8 1438.7 1341 1438.3 1356.8 Z" data-holc_grade="D"/>
<path d="M 1532.6 1660.3 1651.5 1656.5 1655.1 1747.2 1597.8 1748 1594.2 1777.4 1511.9 1781 1532.6 1660.3 Z" data-holc_grade="D"/>
<path d="M 1660.2 1913.7 1492.4 1922.4 1491.8 1904 1499.3 1888.6 1510.1 1878.9 1517.5 1864.1 1532.9 1848.2 1554.7 1836 1660.2 1823.9 1660.2 1913.7 Z" data-holc_grade="D"/>
<path d="M 2767.8 1259.8 2766.2 1149.3 2910.2 1099.2 2908.6 1068 2939.4 1058.8 2999 1203.4 2995.4 1264.8 2939 1266.4 2767.8 1259.8 Z" data-holc_grade="D"/>
<path d="M 2109.2 2565.5 2110.6 2720.5 1878.3 2726 1829.6 2598.4 1846.8 2532.7 1847.4 2469.5 1832 2452.9 1818.5 2446.2 1804.3 2444.3 1767.3 2442.5 1764.3 2449.2 1703.9 2450.5 1689.7 2445.6 1670.6 2445 1620.1 2446.2 1619.5 2473.2 1581.9 2470.7 1578.8 2500.8 1515.4 2500.2 1629.9 2044.8 1700.2 2041.1 1698.3 2025.8 1728.5 2025.2 1719.9 1832.5 1726.6 1827.6 1738.3 1821.4 1753.1 1820.2 1790.9 1818.3 1804.2 2302.1 1804.8 2388.6 1914.6 2385 1924.4 2529.7 1911.1 2569.6 2109.2 2565.5 Z" data-holc_grade="D"/>
<path d="M 1099.6 2615.5 1187.4 2611.5 1187.1 2610.9 1186.4 2610.9 1261 2524 1331.2 2521.3 1333.4 2529.6 1314.9 2632.4 1322 2669.5 1047.5 2680.5 1099.6 2615.5 Z" data-holc_grade="D"/>
<path d="M 685.6 3068.1 729 3124 559.8 3287.5 555.5 3279.9 553.7 3273.1 584.8 3168.5 685.6 3068.1 Z" data-holc_grade="D"/>
<path d="M 197.8 3026.7 229.1 3032.8 390.9 3148.7 435.2 3187.2 477.9 3235.1 432.7 3280.5 404 3315.7 389.6 3328.4 375.6 3334.9 353.8 3343.5 315.2 3348.4 293.9 3350.8 273.7 3346.3 247 3334.9 222 3318.1 192 3285.7 139 3214.9 178.1 3211.3 165.7 3159.7 197.8 3026.7 Z" data-holc_grade="D"/>
</g>
</svg>