<?xml version="1.0"?>
<svg xmlns="http://www.w3.org/2000/svg" version="1.2" baseProfile="tiny" width="3000" height="4058" viewBox="0 0 3000 4058" stroke-linecap="round" stroke-linejoin="round">
<g id="A">
<path d="M 1983.1 174.9 2003.5 184.4 1961.6 285.3 1812.4 242.9 1846.3 111.9 1914.2 142.6 1983.1 174.9 Z" data-holc_grade="A"/>
<path d="M 2110.5 330.8 1961.6 285.3 2003.5 184.4 2141.2 262.4 2110.5 330.8 Z" data-holc_grade="A"/>
<path d="M 1774.8 438.6 1779.3 433 1785.3 357.4 1746.8 345.5 1689.6 338.1 1592.7 305.9 1594.2 293.9 1597.3 278.1 1611 267.2 1651.8 246.1 1655.4 234.6 1717.8 217.7 1742.4 211.1 1784.6 187.5 1798.9 169.2 1804.3 146.5 1803.9 130 1814.5 119.5 1820.1 97.8 1846.3 111.9 1812.4 242.9 1961.6 285.3 1967.7 312.6 1966.6 330.3 1970.1 338.4 1968.6 349.2 1955.2 375.8 1945.4 402.7 1922.9 481.9 1774.8 438.6 Z" data-holc_grade="A"/>
<path d="M 1922.9 481.9 1945.4 402.7 1955.2 375.8 1968.6 349.2 1970.1 338.4 1966.6 330.3 1967.7 312.6 1961.6 285.3 2110.5 330.8 2075.8 404.8 2028.1 382.7 1985.4 505.4 1922.9 481.9 Z" data-holc_grade="A"/>
<path d="M 2025.5 725.9 2034.8 731.1 2040.4 747.2 2039.6 777.8 2036.8 811.6 2027.6 882.4 2009.8 885.2 1979.9 888.1 1957.7 886.9 1933.1 880.8 1937.9 927.9 2017.9 945.2 1999.5 983.2 1942.7 1031.5 1930.5 997.5 1862.9 981.2 1830.3 1022.2 1801.3 1014.4 1794 1015.4 1786.9 1025.2 1780.3 1007.1 1776 981.2 1862.5 826 1925.9 702.5 2008.2 723.8 2025.5 725.9 Z" data-holc_grade="A"/>
<path d="M 1721.8 1175.7 1694.2 1172.3 1680 1171.1 1536.3 1159.3 1549.6 1110.5 1555.6 980.8 1583.8 972.4 1609.1 967.9 1698.1 983.2 1724.1 987.7 1722.4 1002.3 1726.6 1015 1730 1023.7 1728.2 1038.5 1726.8 1048.3 1734.7 1062 1741 1069 1760.4 1077.5 1758.8 1114.3 1755.3 1131 1747.3 1145.9 1737.2 1155.4 1731.1 1153.9 1721.8 1175.7 Z" data-holc_grade="A"/>
<path d="M 495.6 1497.3 329.4 1444.9 370 1329.5 428.3 1352.3 447.8 1353 525.3 1345 535.4 1358.9 532.1 1371.9 526 1416.2 517.2 1437.1 502 1465.2 495.4 1485.6 495.6 1497.3 Z" data-holc_grade="A"/>
<path d="M 1694.2 1172.3 1668.4 1237.7 1629.1 1356.1 1559.1 1558.3 1462.7 1540.8 1465.6 1519.7 1478.5 1425.4 1494.6 1377.3 1497.4 1362 1504.5 1277.2 1513.1 1236.5 1536.3 1159.3 1680 1171.1 1694.2 1172.3 Z M 1537.9 1445.7 1578.2 1322.9 1523.1 1319 1520.3 1356.4 1494.3 1434.6 1495.2 1501.9 1546.1 1508.2 1537.9 1445.7 Z" data-holc_grade="A"/>
</g>
<g id="B">
<path d="M 1983.1 174.9 1914.2 142.6 1846.3 111.9 1875 3.1 2049.4 1 1983.1 174.9 Z" data-holc_grade="B"/>
<path d="M 2685.8 2636.5 2683.7 2722.8 2678.5 2734.8 2614.7 2900.8 2582.4 2980.2 2507.6 2979 2471.2 2971.8 2434.4 2959.3 2413.8 2931.1 2400.4 2923.9 2383.4 2920.7 2362 2918.3 2371.7 2895.7 2425.8 2798.3 2460.4 2728.3 2490.4 2659.1 2513.4 2568.9 2627.9 2616.2 2685.8 2636.5 Z" data-holc_grade="B"/>
<path d="M 1592.7 305.9 1689.6 338.1 1746.8 345.5 1785.3 357.4 1779.3 433 1774.8 438.6 1766.8 509 1822.1 525.9 1807.6 628.9 1767 624.1 1753.7 620.7 1751 616.2 1751 609 1755.1 603 1754.5 595.1 1749.6 589.1 1735.1 588.5 1712.3 554.7 1662.6 508.6 1647.6 492.3 1639.6 473.4 1623 459 1617.6 449.1 1640.4 420.5 1646.4 390.8 1635.3 388.4 1635.3 380.1 1631.9 362 1621.4 357.6 1608.5 355.2 1596.6 340.5 1593.3 325.2 1592.7 305.9 Z" data-holc_grade="B"/>
<path d="M 1555.6 980.8 1497.1 975 1418.5 970.4 1403.1 965 1404.3 944.4 1428.6 938.7 1421.9 882.9 1643.6 831.3 1613 748.6 1531 651.5 1500.1 626.4 1508.8 601.4 1526.1 582.7 1537 563.7 1538.2 554.3 1533.4 527.5 1553.4 519.9 1571.8 503.9 1583 505.6 1590.6 523 1591.9 540.8 1585.8 553.7 1585.8 575.8 1597.2 585.1 1602 581.8 1615.3 532 1629 534.3 1646.1 553.1 1658.5 560.4 1667.6 561.9 1677.4 568.5 1687.5 577.8 1699.1 595.9 1706.7 615.2 1714 626.1 1719.1 656.5 1712.5 671.3 1711.5 685.4 1713.3 714.3 1711.3 747 1721.6 762.8 1728.7 792.8 1749.4 861.4 1769.7 936.1 1738.6 927.8 1730 934.2 1735.6 949.7 1747.1 961.5 1731.3 978.4 1724.1 987.7 1698.1 983.2 1609.1 967.9 1583.8 972.4 1555.6 980.8 Z" data-holc_grade="B"/>
<path d="M 737.6 1387.2 727.5 1403.2 714.9 1446.2 724.5 1455.3 731.3 1481 732.8 1505.6 710.8 1570.7 704.7 1593.9 705.7 1622.1 709.5 1649.2 715.8 1678.9 725.4 1700.3 632.5 1677.9 624.1 1715.9 544.1 1697 523.4 1689.1 513 1710 478.1 1700.2 474.6 1632.8 479.2 1602.1 486.8 1579.4 496.2 1553.8 495.6 1497.3 495.4 1485.6 502 1465.2 517.2 1437.1 526 1416.2 532.1 1371.9 535.4 1358.9 525.3 1345 447.8 1353 428.3 1352.3 370 1329.5 283.2 1295.6 284.5 1288 304.7 1258.1 345.4 1211.1 372 1180.4 407.7 1223.4 463.2 1268.6 522.8 1302.1 543.1 1312.2 582.5 1324.9 617.6 1331.6 670.2 1349.7 710.5 1367.6 720.3 1368.8 737.6 1387.2 Z" data-holc_grade="B"/>
<path d="M 1104.3 1533.5 1053 1507.1 1007.1 1609.3 943.9 1579.7 939.3 1555.2 934.2 1521 936.7 1491.6 946 1468.9 1039.1 1259.8 1083 1302.9 1103.6 1332.5 1110.9 1361.2 1114.5 1422.1 1129 1469.2 1122.4 1496.7 1104.3 1533.5 Z" data-holc_grade="B"/>
<path d="M 1716.5 1400.7 1683.2 1389.6 1659.4 1468.1 1623.1 1570.2 1581.6 1562.5 1559.1 1558.3 1629.1 1356.1 1668.4 1237.7 1694.2 1172.3 1721.8 1175.7 1737.2 1219.1 1727.1 1253.8 1761.4 1257.8 1716.5 1400.7 Z" data-holc_grade="B"/>
<path d="M 2138.7 3014.6 2129.6 3025.1 2050.7 3010.4 1958.5 2993.1 1956.7 2986.2 1951.2 2886.2 1967.3 2888.6 2013.7 2730.9 2026.7 2671.7 2000 2665.1 2015.6 2616.1 2128.4 2630.6 2195.8 2641.8 2195.3 2659.9 2191 2689.2 2178.9 2743.6 2108 2735.7 2084.6 2828.5 2115.3 2841.5 2196.8 2851.4 2223.2 2856.2 2196 2925.1 2162.3 2987.3 2138.7 3014.6 Z" data-holc_grade="B"/>
<path d="M 936.3 3002.9 913.8 2923.3 909.6 2908.8 859.3 2830.2 846.1 2812.3 825.5 2774.6 912.5 2675 983.3 2586.1 984.9 2584.2 1010.8 2556 1123.7 2643.4 1130.8 2689.7 1158.7 2678 1164.1 2683.7 1162.9 2692.9 1154.4 2700 1152.8 2703.8 1156.7 2708.8 1171.6 2712.9 1176.3 2724.4 1173.6 2736.8 1186.6 2738.9 1205.2 2767.7 1194.5 2786.8 1196.1 2808.5 1197.3 2822.2 1204.8 2834.7 1207.8 2845.2 1206 2869.8 1213.9 2886.2 1129.6 2909.3 1123.3 2917.8 1039.4 2962.9 936.3 3002.9 Z" data-holc_grade="B"/>
<path d="M 936.3 3002.9 966.8 3169.5 904.7 3178.3 902.6 3188.3 865.9 3177.8 841.2 3175 844.4 3197.2 745.7 3217.3 739.7 3181.9 730.8 3088 722.8 3026 717.9 2989.3 708.2 2942.6 709.1 2927.3 703.4 2916.8 690.5 2910.8 758 2854.4 825.5 2774.6 846.1 2812.3 859.3 2830.2 909.6 2908.8 913.8 2923.3 936.3 3002.9 Z" data-holc_grade="B"/>
</g>
<g id="C">
<path d="M 2580.9 844.7 2722.5 616.5 2795.5 501.8 2957.2 238.2 2972.5 250.2 2985.1 294.5 2983.1 339.9 2959.7 386.6 2834.7 585.8 2838.4 628.1 2846.1 665.1 2847.3 699.3 2827.9 750.4 2816.7 763.2 2787.2 784.6 2767 807.1 2727.9 830.5 2684.2 844.2 2641 853.9 2601.5 854.7 2580.9 844.7 Z" data-holc_grade="C"/>
<path d="M 2006.7 1341.3 2091.4 1316.3 2090.2 1422.9 2062.2 1434.5 2050.3 1406 2037.7 1407.1 2006.7 1341.3 Z" data-holc_grade="C"/>
<path d="M 2102.4 1990.1 2081.1 1869.6 2182 1862.1 2223.9 1860.8 2217.6 1874.9 2205 1890.5 2206.3 1904.9 2191.1 1921 2186.6 1926 2187.6 1935.1 2179.5 1940.6 2177.5 1963.7 2171.9 1989.7 2156.3 1984.9 2102.4 1990.1 Z M 2079.8 1841.6 2072.2 1814.7 2028.8 1584.4 2092.8 1558.4 2169.5 1535.1 2246.7 1598.1 2257.1 1675.8 2255.3 1686.3 2243.5 1746 2235.2 1758.8 2223.3 1771.1 2218.3 1779.6 2219.5 1799.3 2224.4 1830.3 2079.8 1841.6 Z" data-holc_grade="C"/>
<path d="M 2558.3 1531 2554.7 1539.3 2549 1551.4 2530.8 1554.2 2476.6 1529.9 2469 1526.5 2283.6 1435.9 2554 1143.7 2702.3 1125.1 2692.6 1148.9 2686.6 1205.6 2693.8 1225.3 2558.3 1531 Z" data-holc_grade="C"/>
<path d="M 2244.3 2515.2 2247.7 2698.6 2225 2659.1 2198.7 2642.2 2195.8 2641.8 2128.4 2630.6 2015.6 2616.1 2053.2 2506.6 2070.4 2448.3 2080.6 2413.9 2104.8 2347.9 2120.6 2305.2 2116.5 2280.3 2106.8 2251.3 2112.8 2229.7 2114.5 2223.5 2109.6 2173.2 2111.6 2145.8 2118.9 2131.7 2147.2 2088.6 2166.2 2104.7 2184.8 2110.7 2219.1 2116.7 2243.8 2018.5 2218.3 2007.2 2265.9 1895.7 2284.1 1872.8 2307.1 1850.6 2400 1771.3 2476.6 1529.9 2530.8 1554.2 2549 1551.4 2554.7 1539.3 2558.3 1531 2582.9 1544.3 2583.6 1586.6 2576.9 1604.1 2565.4 1647.9 2563 1681.7 2543.6 1704.9 2516.7 1718.2 2510.7 1826.9 2501.9 1853.8 2465 1946.2 2450.4 1978.2 2431.1 2000.6 2414.1 2006 2342.9 2005.4 2292.8 1997.3 2252.9 2194.2 2298.7 2239.5 2295.4 2265.7 2293.3 2327.3 2291.5 2351.5 2287.6 2379 2282.7 2391.4 2268.2 2419.2 2256.4 2437.9 2249.7 2454.8 2235.4 2476 2220 2488 2244.3 2515.2 Z" data-holc_grade="C"/>
<path d="M 2138.7 3014.6 2166.7 3058.2 2179.5 3072.1 2189.9 3083.7 2193.7 3124.9 2190.7 3152.6 2196 3187.4 2198 3208.3 2193.5 3215.3 2197.3 3244 2208.7 3262.7 2216.8 3279.8 2239.5 3304.9 2247.9 3314.8 2259.3 3344.2 2242 3365.3 2202.8 3431.2 2194.3 3442.1 2169.3 3450.7 2158.9 3465.5 2103.1 3501.2 2051.9 3512.7 2047.6 3498.4 2039.4 3476.1 2027 3465.8 2006.4 3454.9 1992.1 3452.8 1960.8 3409.3 1984.5 3389.4 2023.9 3365.5 2067.6 3346.5 2108.5 3341.9 2120.4 3327.7 2127.9 3311.4 2125.2 3273.3 2118.8 3247.3 2116.1 3222.9 2101.5 3190.5 2092.1 3173.3 2089.4 3156.1 2064.2 3121.1 2041.1 3085.1 2028.4 3062.2 2013.2 3028 2019 3016.5 2050.2 3020.8 2050.7 3010.4 2129.6 3025.1 2138.7 3014.6 Z" data-holc_grade="C"/>
<path d="M 983.3 2586.1 912.5 2675 825.5 2774.6 761 2670.7 752.1 2655 749.7 2630.4 746.1 2603 716.2 2482.6 708.5 2447.2 705.8 2322.7 704.6 2282.9 661.7 2302.6 638.7 2236.1 713.4 2197.8 720.6 2194.1 728.1 2210 738 2208.2 750.6 2232.9 748.8 2356.5 750.3 2411.3 756.6 2421.9 983.3 2586.1 Z" data-holc_grade="C"/>
<path d="M 1187.3 3201.7 1080.2 3237.1 1023.5 3242.4 1010.2 3243.9 992.8 3165.8 966.8 3169.5 936.3 3002.9 1039.4 2962.9 1123.3 2917.8 1129.6 2909.3 1213.9 2886.2 1221.5 2902.9 1243.6 2921 1264 2944.6 1292.1 2965.9 1327.5 2996.8 1340.8 3037.9 1343 3056 1355.8 3056.2 1333.9 3086.4 1326.6 3092.6 1326.8 3114.2 1303 3128.5 1268 3093.4 1230 3046.5 1199.9 3072.1 1164.5 3110.7 1187.3 3201.7 Z" data-holc_grade="C"/>
<path d="M 1010.2 3243.9 903 3256.4 899.4 3268.5 827 3332.5 844.3 3382.5 825.7 3405 791 3415.1 780 3428 780 3448.9 782.4 3471.5 752.5 3463.8 736.7 3475.1 716.5 3472.7 689.4 3472.3 692.3 3456.2 659.1 3477.9 648.2 3502.9 637.2 3585.1 614.5 3615.3 558.7 3654.3 515.4 3693 491.1 3729.7 483.4 3785.3 474.1 3819.9 464.7 3861.8 462.7 3890.8 412.9 3956.5 394.7 3980.7 385.4 3997.2 353.8 4005.2 329.9 4006.8 308.5 3997.5 289.5 3966.5 269.7 3965.7 255.9 3960.4 202.6 3931.4 184.8 3927.3 173.4 3933.8 155.2 3929.7 136.6 3934.1 129.3 3955.1 130.5 3977.3 139 3995 122.8 4022 124.8 4057 1 4054.1 100.7 3874.5 114 3856.7 141.9 3856.8 181.6 3864.5 255.6 3883.4 348.6 3904.9 376.1 3913.3 406.9 3893.6 425.9 3857.8 442.9 3819.1 318.4 3739.2 248.8 3700.9 306.7 3608.3 318.5 3582.9 340.7 3547.4 382.8 3488.2 413.2 3452.4 443.6 3407.3 497.8 3336.4 526.5 3359.8 547.9 3377.5 557.2 3350.5 568.1 3367.5 585.5 3378.4 610.2 3399.3 608.2 3333.2 578.3 3297.8 621.2 3258.3 628 3263.6 642.2 3270 665.2 3284.1 681 3306.3 680.6 3330.9 674.1 3358.7 662.7 3431.2 672 3435.6 764.3 3368.4 745.7 3217.3 844.4 3197.2 841.2 3175 865.9 3177.8 902.6 3188.3 904.7 3178.3 966.8 3169.5 992.8 3165.8 1010.2 3243.9 Z" data-holc_grade="C"/>
<path d="M 2756.3 1278.7 2932.4 1335.9 2914.6 1408.7 2887.3 1402.4 2880.9 1405.4 2861.9 1470 2849.2 1501.4 2910.1 1495 2944.9 1487.2 2935 1532.4 2928.3 1562.3 2923.5 1598 2920.8 1630.9 2919.6 1665.9 2920.9 1714.8 2849.7 1829.9 2836.7 1819.3 2825.2 1812.7 2777.3 1798.2 2783 1761.4 2766 1756.9 2780.5 1713.1 2777.5 1703.4 2635.1 1654 2735.1 1337.6 2756.3 1278.7 Z" data-holc_grade="C"/>
<path d="M 2247.7 2698.6 2244.3 2515.2 2501.8 2491.6 2683.7 2572.9 2685.8 2636.5 2627.9 2616.2 2513.4 2568.9 2490.4 2659.1 2460.4 2728.3 2425.8 2798.3 2346.5 2749 2358.6 2727.1 2359.6 2714 2325.2 2699.4 2304 2708.7 2287.1 2709.8 2262.5 2705 2247.7 2698.6 Z" data-holc_grade="C"/>
<path d="M 1245.4 903 1117.4 901 1120.1 880.9 1108 832.2 1050.7 831.9 1008.5 808.2 1029.5 757.5 1034.3 741.6 1080.5 635 1103.5 651.9 1221.9 636.1 1200.7 521.7 1236.8 514.6 1264.5 504.8 1291.5 482.2 1302.1 464.8 1308.9 441.5 1308.7 405.8 1373.1 297.2 1400.3 305 1446.2 224.8 1485.1 248.2 1501 221 1576.9 257 1532.8 354.5 1448.2 528 1367.7 692.9 1315.5 673.8 1260.7 822.1 1245.4 903 Z" data-holc_grade="C"/>
<path d="M 2574.6 3046.7 2628 3063 2700.8 3080.5 2743 3090.1 2794.2 3097.3 2857 3102.1 2872.5 3104.2 2881.9 3118.4 2897.3 3124.7 2915.8 3131.4 2941.6 3134.4 2963.2 3128 2977.7 3135.3 2989.6 3167.9 2999 3204.4 2995.4 3262.4 2975.1 3300.8 2916 3290.6 2912.6 3282.8 2913.8 3269.8 2920.8 3247.4 2883.8 3245 2848.3 3239.9 2827.7 3288.9 2780.1 3282.8 2758.2 3275.6 2772.8 3215.8 2742.1 3219.1 2703.6 3224 2661.5 3226.4 2662.7 3278.4 2657 3379.3 2671.6 3375.4 2687.6 3382.3 2701.3 3403.2 2706.5 3445.5 2708.6 3496.2 2711.4 3529.2 2715.7 3545.5 2765.4 3538.5 2770.6 3541.2 2770.3 3551.2 2762.1 3563.6 2752.4 3572.9 2753.9 3608.6 2762.1 3612.2 2771.2 3614 2773.6 3629.7 2771.5 3640.3 2763.7 3648.2 2744.5 3662.4 2700.3 3663.6 2664.5 3667 2617.1 3661.9 2607.1 3671.6 2595 3669.8 2585.3 3680.3 2564.7 3678.5 2550.4 3674.9 2501 3674.3 2486.4 3686.4 2460.6 3699.4 2439.1 3705.2 2406.6 3720.9 2403.6 3733.9 2403.6 3741.2 2391.8 3742.4 2376.3 3732.7 2349.3 3712.5 2316.5 3701 2291.6 3684.7 2265.9 3676.9 2239.2 3673.6 2191.2 3674.2 2163 3689 2139.7 3705.3 2131.8 3705.3 2120.3 3720.1 2123 3745.8 2117.5 3751.3 2098.1 3747.7 2089.3 3738.3 2085.4 3724.4 2073.5 3686.6 2053.2 3666.4 2031.7 3649.5 2042 3620.1 2051.1 3606.5 2067.7 3594.4 2084.1 3591.4 2095.3 3592.6 2210.3 3558.1 2222.7 3553 2429.9 3524.2 2446.9 3517.8 2457.5 3505.7 2463.5 3481.6 2464.1 3464.3 2477.8 3426.6 2489 3381.8 2490.5 3351 2487.7 3294.5 2559.9 3217.7 2561.6 3162.4 2574.6 3046.7 Z" data-holc_grade="C"/>
<path d="M 1536.3 1159.3 1312.9 1135.4 1149.2 1112.2 1081.3 1101.9 1081.5 1083.1 1091.6 1073.3 1099.5 1041.8 1114.4 1031.5 1106.8 1001.6 1101.7 974.2 1103.5 933.9 1110.8 920.9 1117.4 901 1245.4 903 1240.3 939.7 1238.8 1017.7 1238.8 1038.1 1422.3 1071.3 1418.5 970.4 1497.1 975 1555.6 980.8 1549.6 1110.5 1536.3 1159.3 Z" data-holc_grade="C"/>
<path d="M 2091.4 1316.3 2006.7 1341.3 1998.5 1324.1 1996.8 1294.1 1977.1 1269.2 1967.7 1255.2 1953.1 1232.5 1946 1212.9 1942.7 1187 1940.2 1166.9 1939.4 1050.4 1945.7 1049.7 1974 1075.6 2059.5 954.1 2074.9 952.1 2088 942 2095.5 939 2091.4 1316.3 Z" data-holc_grade="C"/>
<path d="M 1536.3 1159.3 1513.1 1236.5 1504.5 1277.2 1497.4 1362 1494.6 1377.3 1478.5 1425.4 1465.6 1519.7 1462.7 1540.8 1455.8 1592.2 1449.9 1615.3 1448.2 1655.3 1453.2 1722.7 1424.6 1685.5 1410.4 1660.7 1358.3 1509.8 1430.6 1509.7 1433.4 1479.2 1454.9 1405.9 1423.4 1397.1 1382.8 1394.7 1277 1363.3 1244.7 1473.3 1177.7 1467.2 1193.1 1444.5 1201.3 1421.3 1201 1380.9 1199.2 1363.7 1187.3 1326.8 1179.2 1278.5 1175.5 1263.1 1154.6 1234.2 1146.5 1219.4 1149.2 1112.2 1312.9 1135.4 1536.3 1159.3 Z" data-holc_grade="C"/>
<path d="M 737.6 1387.2 720.3 1368.8 710.5 1367.6 670.2 1349.7 617.6 1331.6 582.5 1324.9 543.1 1312.2 522.8 1302.1 463.2 1268.6 407.7 1223.4 372 1180.4 533.8 1114.6 562.1 1212.8 574.5 1237 568.9 1244.4 587.7 1257.2 595.7 1246 653.6 1249.2 671 1255.4 695.5 1291.9 708.8 1328.6 759 1310.2 714.8 1248.9 748.9 1220.1 783.9 1227.1 781.3 1239.5 785.2 1254.6 808.1 1277.2 804.9 1293.8 807 1306.5 822.2 1316.3 911.1 1172.7 923.4 1176.1 936 1173 952.8 1163.3 984.6 1203.9 1039.1 1259.8 946 1468.9 936.7 1491.6 934.2 1521 939.3 1555.2 943.9 1579.7 1007.1 1609.3 1053 1507.1 1104.3 1533.5 1069.9 1616 1045.3 1603.9 1029.1 1645.4 1247.5 1750.9 1210.3 1820.7 1058.8 1777 1052.4 1801 877.4 1748.4 897.8 1685.9 841.4 1665.1 813.3 1628.1 800.7 1607.9 799.8 1584.5 804.2 1566.8 828.9 1465.1 802.3 1432.9 781.4 1413 747.1 1391.3 740 1389.8 737.6 1387.2 Z" data-holc_grade="C"/>
<path d="M 1236.4 2095.5 1295.5 2359.8 1321.9 2354.9 1375.8 2594.7 1310.3 2610.1 1147 2419.8 1038.2 2299.3 1036 2277 1047.3 2259.8 1083 2228.7 1050.6 2186.1 1015.2 2185.2 1014.5 2168.6 1236.4 2095.5 Z M 1020.8 2019.7 1143.8 1997.3 1146.3 1902 1033.2 1872 1013.7 1928.1 919.5 1937.4 865 1940.1 849.1 1824.1 877.4 1748.4 1052.4 1801 1047.9 1816.6 1219.6 1868 1194.8 1914.8 1266.3 1957.3 1255.2 1979.7 1283.7 1995.3 1271.1 2055.7 1023.3 2137.2 1056.9 2104.7 1051.1 2079.8 1036.4 2040.1 1020.8 2019.7 Z" data-holc_grade="C"/>
<path d="M 1716.5 1400.7 1761.5 1416.6 1802.7 1436.5 1591.3 1796.6 1555.5 1780.3 1519.1 1767.1 1581.6 1562.5 1623.1 1570.2 1659.4 1468.1 1683.2 1389.6 1716.5 1400.7 Z" data-holc_grade="C"/>
<path d="M 1591.3 1796.6 1802.7 1436.5 1824.2 1452.1 1844.2 1469.6 1859.3 1497.9 1866.9 1528.1 1853.3 1554.4 1837.5 1593.9 1597.5 1798.6 1591.3 1796.6 Z" data-holc_grade="C"/>
</g>
<g id="D">
<path d="M 482.1 940.6 347.5 996.8 206.9 1061.4 202.3 1085 171 1041.7 163 1025.6 159.4 1008 160.2 995.2 171.6 940.6 450.4 829.9 459.9 847 471 864.1 488.7 881.7 497 897.3 502.3 932.5 482.1 940.6 Z" data-holc_grade="D"/>
<path d="M 533.8 1114.6 372 1180.4 345.4 1211.1 343.9 1200 337.6 1187.9 311.1 1165.5 285.3 1152.2 254.8 1137.6 231.6 1120 202.3 1085 206.9 1061.4 347.5 996.8 482.1 940.6 533.8 1114.6 Z" data-holc_grade="D"/>
<path d="M 1020.8 2019.7 990.7 1980.4 974.9 1954.6 926 1960.6 939.3 2046.4 900.9 2057.2 867.4 1961.8 865 1940.1 919.5 1937.4 1013.7 1928.1 1033.2 1872 1146.3 1902 1143.8 1997.3 1020.8 2019.7 Z" data-holc_grade="D"/>
<path d="M 1358.3 1509.8 1410.4 1660.7 1424.6 1685.5 1368 1673.1 1369.5 1689.1 1331.3 1693.6 1276.1 1723.2 1240.1 1675.8 1231.6 1699.1 1069.9 1616 1104.3 1533.5 1136.6 1567.9 1163.8 1595.9 1189.1 1525.4 1192.3 1508.9 1190.9 1501.1 1177.7 1484.1 1177.7 1467.2 1244.7 1473.3 1318.1 1496.9 1358.3 1509.8 Z" data-holc_grade="D"/>
<path d="M 1760.1 2016.8 1754.9 2090.8 1571.3 2089.6 1543.7 2076.9 1548.8 2000.5 1557.6 1988.4 1574.6 1913.9 1764.6 1879.1 1795.2 1874.3 1803.1 1878.5 1810.4 1878.8 1802.5 1932.9 1804.6 1954.6 1822.8 1970.3 1846.2 1986.9 1845.9 2015.6 1760.1 2016.8 Z M 2102.4 1990.1 1876.6 2016 1876.3 2004.2 1868.7 1967.7 1861.9 1942.1 1861.2 1931 1866.7 1918.9 1871.8 1910.6 1859.6 1908.6 1862.9 1891.2 1973.5 1880.4 2081.1 1869.6 2102.4 1990.1 Z M 2028.8 1584.4 2072.2 1814.7 2079.8 1841.6 2021.3 1845.9 1885.8 1860.7 1869.2 1857.1 1871.9 1832.6 1869.2 1809.7 1860.1 1815.7 1848.2 1811.8 1841.6 1807 1830.1 1812.1 1832.2 1778.3 1832.8 1754.1 1852.2 1720.3 1863.7 1714.9 1862.5 1705.5 1864 1688.6 1858.8 1681.1 1843.7 1677.4 1834.9 1682.6 1834 1694 1833.1 1705.8 1831 1717.6 1836.1 1730.6 1832.5 1737.8 1824 1745.1 1820.1 1755.3 1821 1781.3 1815.5 1844.1 1584 1883.7 1592.2 1844.1 1810.9 1656.3 1912.5 1662 2028.8 1584.4 Z M 2057.7 1487.2 2042.2 1528 2026.5 1549.4 1967.1 1607.1 1952.9 1619.8 1906.2 1641.5 1890.2 1636.4 1929.8 1541.9 1925.6 1523.5 1919.5 1499.6 1937.4 1502.4 1942.5 1489.1 1954.1 1500.8 1965 1482.4 1971.6 1491.2 1984.4 1484.5 1992.8 1486.6 2005.9 1498.4 2030.7 1498.7 2043.7 1480.3 2057.7 1487.2 Z" data-holc_grade="D"/>
<path d="M 2112.8 2229.7 2106.8 2251.3 2116.5 2280.3 2120.6 2305.2 2104.8 2347.9 2080.6 2413.9 2070.4 2448.3 1970.2 2427 1973.2 2382 1924.7 2372.5 1939.8 2264.3 1969.1 2236.1 2041.8 2176.1 2112.8 2229.7 Z" data-holc_grade="D"/>
<path d="M 624.6 2047.7 649.9 2090.7 713.4 2197.8 638.7 2236.1 661.7 2302.6 704.6 2282.9 705.8 2322.7 708.5 2447.2 716.2 2482.6 746.1 2603 749.7 2630.4 752.1 2655 761 2670.7 825.5 2774.6 758 2854.4 749 2845.6 733.1 2816.3 723.2 2788.4 723.4 2774.7 715.3 2765.2 712.3 2764 699.5 2733.4 691.3 2700.9 685.2 2664.3 679 2639.9 669.9 2622.2 721.2 2593 699.2 2555.4 553.8 2632 535.7 2614.1 520.3 2589.5 663.3 2498.2 633.2 2458.3 439.1 2580.4 438.5 2593.5 463.3 2621.9 399.6 2677.8 360 2640.8 295.3 2698.9 271.6 2676.7 218.7 2642.9 201.5 2647.5 179.5 2655.7 152.8 2657.3 141.3 2650.3 132.2 2634.4 140.7 2563.5 272 2456.5 270.4 2367.1 276.3 2336.9 278.9 2331.8 331.1 2305.9 358.8 2277.3 358.8 2223 283.5 2225.2 277.6 2164.8 296.2 2150.1 310.8 2134 322.3 2109 354.7 2013.2 354.1 2001.1 432.8 1959.7 512.2 1898.4 588.3 1971.7 601.9 1992.8 624.6 2047.7 Z" data-holc_grade="D"/>
<path d="M 1010.8 2556 984.9 2584.2 983.3 2586.1 756.6 2421.9 750.3 2411.3 748.8 2356.5 750.6 2232.9 738 2208.2 728.1 2210 720.6 2194.1 713.4 2197.8 649.9 2090.7 624.6 2047.7 687.3 2023.5 709.2 2085.2 769.6 2064.6 824.7 2121.5 842.8 2132.1 850.2 2147.9 850.1 2168 841.3 2187.2 836.5 2199.2 813 2216.1 895 2419 920.3 2419.2 930.6 2420.2 970 2466.3 1001.4 2504.3 1027.6 2540 1010.8 2556 Z" data-holc_grade="D"/>
<path d="M 844.3 3382.5 827 3332.5 899.4 3268.5 903 3256.4 1010.2 3243.9 1023.5 3242.4 1080.2 3237.1 1187.3 3201.7 1198.2 3198.1 1213.6 3246 1180.8 3258.5 1137.2 3277.8 1001.7 3324.1 977 3326.5 940.6 3339 911.5 3350.3 883.6 3364 871 3363.6 844.3 3382.5 Z" data-holc_grade="D"/>
</g>
</svg>