<?xml version="1.0"?>
<svg xmlns="http://www.w3.org/2000/svg" version="1.2" baseProfile="tiny" width="3000" height="3056" viewBox="0 0 3000 3056" stroke-linecap="round" stroke-linejoin="round">
<g id="B">
<path d="M 624.9 1057.7 507.9 1120.3 503 1109.9 253.9 591.1 238.3 558.6 234.8 551.3 169.7 415.6 177.5 411 1 59.5 40 39.9 117.5 1 622.7 1053 624.9 1057.7 Z" data-holc_grade="B"/>
<path d="M 2733.4 1860.4 2655.6 1711.7 2820.2 1629.7 2824.5 1635.3 2828.6 1641.1 2832.4 1647.1 2835.9 1653.2 2839.2 1659.5 2842.5 1666.5 2845.4 1673.7 2848.1 1681 2850.4 1688.5 2852.3 1696 2853.9 1703.6 2855.2 1711.3 2856.1 1719 2856.6 1726.7 2856.8 1734.5 2856.6 1742.2 2855.5 1749.8 2853.9 1757.2 2851.9 1764.5 2849.5 1771.8 2846.8 1778.9 2843.6 1785.8 2840.1 1792.5 2836.2 1799.1 2833.9 1802.7 2831.4 1806.2 2826.3 1810.6 2820.9 1814.7 2815.3 1818.4 2809.5 1821.8 2803.5 1824.9 2797.4 1827.6 2733.4 1860.4 Z" data-holc_grade="B"/>
</g>
<g id="C">
<path d="M 878.1 2413.4 875.8 2414.6 788.2 2232.4 709.9 2270.7 707.3 2271.9 673.9 2194.8 617.1 2063.9 690.2 2029.6 644 1936.9 717.9 1899.1 956.2 2372.9 878.1 2413.4 Z" data-holc_grade="C"/>
<path d="M 789.5 1438.9 795.9 1453 696.8 1501.1 624.1 1360.7 600.4 1314.9 572.6 1329.7 678.3 1540.9 653.5 1554.2 597 1584.6 516.3 1417.4 400.1 1176.7 507.9 1120.3 624.9 1057.7 692.2 1026.9 784.4 1217.9 726.7 1250.1 795.9 1388.1 772.8 1402.3 789.5 1438.9 Z" data-holc_grade="C"/>
<path d="M 1882.7 1557.6 1983.3 1754.5 2012.4 1739.8 2069.9 1712.8 2100.8 1774.2 2120.8 1813.9 2233.7 2038.1 2147.9 2082.2 2145.8 2083.3 2083.8 1959.8 2032.8 1858.2 2024.9 1842.5 1867.8 1917.3 1856 1895.3 1820.7 1829.8 1517.4 1973.7 1516.7 1974 1491.1 1922.5 1402.1 1743.9 1401.9 1743.6 1376.2 1692 1513.5 1625.9 1518.4 1623.5 1563.4 1712.3 1882.7 1557.6 Z" data-holc_grade="C"/>
<path d="M 2905.7 1491.2 2910.5 1495.1 2915.8 1499.1 2921.7 1503.3 2928.1 1507.8 2928.8 1509.1 2929.2 1510.5 2929.5 1512 2929.4 1513.5 2929.2 1514.9 2928.6 1516.3 2927.9 1517.6 2926.9 1518.7 2925.8 1519.7 2924.5 1520.5 2923.1 1521 2921.6 1521.3 2920.1 1521.3 2914.8 1519.6 2906.1 1516.6 2897.4 1513.2 2888.9 1509.6 2880.5 1505.6 2872.3 1501.3 2864.2 1496.8 2861.1 1501.9 2858.2 1506.8 2855.5 1511.5 2853.2 1516.2 2851.1 1520.7 2849.3 1525 2847.7 1529.3 2846.4 1533.5 2845.3 1537.7 2844.4 1542 2843.8 1546.1 2843.5 1550.4 2843.3 1554.3 2843.4 1558.5 2844.2 1573.1 2844.3 1579 2844.2 1582.4 2844 1585.6 2843.6 1588.7 2843 1591.9 2842 1595.9 2840.7 1599.9 2839.2 1604 2837.3 1608.2 2835.2 1612.6 2832.7 1617 2829.9 1621.7 2826.8 1626.4 2820.2 1629.7 2655.6 1711.7 2733.4 1860.4 2409.1 2016.4 2265.3 1724.3 2265.1 1723.9 2263.5 1720.5 2420.9 1642.2 2423.3 1646.9 2446 1693 2774.1 1533.1 2706.6 1401.2 2728.9 1389.9 2740.8 1410.7 2803 1381.8 2828.6 1369.3 2845.8 1360.8 2859.9 1367.5 2860.9 1372.3 2862.2 1376.7 2863.8 1381.1 2865.7 1385.3 2867.9 1389.4 2870.3 1393.4 2873.1 1397.2 2876 1400.7 2878.4 1420 2879.1 1425.5 2879.6 1431.1 2879.9 1436.4 2880.1 1447.5 2880.4 1452.8 2880.8 1455.7 2881.4 1458.4 2882.1 1461.1 2882.9 1463.6 2884.4 1466.9 2886.2 1470.2 2888.4 1473.5 2891 1476.8 2894 1480.2 2897.4 1483.8 2901.3 1487.4 2905.7 1491.2 Z" data-holc_grade="C"/>
<path d="M 2658 1345.5 2689.1 1410 2706.6 1401.2 2774.1 1533.1 2446 1693 2423.3 1646.9 2420.9 1642.2 2263.5 1720.5 2265.1 1723.9 2265.3 1724.3 2409.1 2016.4 2174 2132.9 2170.4 2134.7 2145.8 2083.3 2147.9 2082.2 2233.7 2038.1 2120.8 1813.9 2100.8 1774.2 2069.9 1712.8 2012.4 1739.8 1983.5 1681.9 2044 1652.1 2319.1 1517.1 2365.8 1606.6 2416.5 1581.5 2497.9 1541.2 2561.1 1510 2513.9 1415.3 2655.8 1340.9 2658 1345.5 Z" data-holc_grade="C"/>
<path d="M 760.4 1810.1 770.5 1805.1 827.5 1776.5 853.8 1823 857.7 1829.8 831.5 1844.6 923.5 2032 882.6 2052.7 760.4 1810.1 Z" data-holc_grade="C"/>
</g>
<g id="D">
<path d="M 1706 2357.5 1711.7 2354.7 1844.9 2286.3 1893.9 2387.1 1889.1 2387.5 1884.4 2388.3 1879.7 2389.6 1875.2 2391.2 1870.8 2393.1 1866.6 2395.4 1862.5 2398.1 1858.8 2401 1855.2 2404.3 1852 2407.8 1849 2411.6 1846.4 2415.6 1844.1 2419.9 1842.2 2424.3 2197.8 2819.3 2332.9 2969.4 2235.6 3055.1 2165.3 2970.9 2211.9 2931.5 2149 2858.8 2007.8 2695.3 1958.8 2723.8 1918.9 2673.6 1854.1 2706.1 1868.5 2734.1 1881.3 2758.8 1716.5 2843.3 1649.7 2709.9 1375 2161.6 1500.3 2097.7 1505.1 2095.3 1673.6 2432.8 1728.9 2404.8 1706 2357.5 Z" data-holc_grade="D"/>
<path d="M 1856 1895.3 1867.8 1917.3 2024.9 1842.5 2032.8 1858.2 2083.8 1959.8 2145.8 2083.3 2170.4 2134.7 2046.8 2194.9 2014.2 2210.7 2011.4 2212.1 2104.9 2401.2 1938.4 2478.6 1893.9 2387.1 1844.9 2286.3 1711.7 2354.7 1706 2357.5 1560.3 2067.1 1505.1 2095.3 1500.3 2097.7 1375 2161.6 1327.7 2068 1271.2 2096.2 1269.4 2097.1 1222 2000 1223.5 1999.2 1280.7 1971.5 1413.1 1907.2 1435.3 1952.2 1460.1 2002.2 1516.7 1974 1517.4 1973.7 1820.7 1829.8 1856 1895.3 Z" data-holc_grade="D"/>
<path d="M 2825.9 1311.8 2799.5 1325.5 2819.8 1056.7 2904.7 1011.8 2973.4 1165.3 2999 1222.3 2825.9 1311.8 Z M 2391.1 863.2 2306.2 957 2246.7 899.5 2342.7 825.1 2391.1 863.2 Z M 2242 1191 2246.9 1193.8 2287.9 1147.3 2332.8 1168.1 2385 1183.9 2424.3 1184.5 2430.8 1184.6 2453.4 1192.2 2499.1 1188.3 2544.7 1197.9 2593.6 1207.1 2607 1216.2 2607.6 1218.9 2608.5 1221.5 2609.4 1224.1 2610.6 1226.5 2611.9 1228.9 2613.4 1231.3 2615 1233.6 2616.8 1235.8 2618.6 1237.7 2620.5 1239.6 2622.5 1241.4 2624.8 1243.3 2629.1 1246.6 2637.7 1252.8 2640.5 1255 2642.7 1257 2643.6 1258 2644.2 1259 2644.9 1260.3 2645.3 1261.7 2645.4 1263 2645.1 1264.4 2644.6 1265.8 2643.7 1267.3 2642.5 1268.8 2641 1270.4 2638.2 1272.8 2634.6 1275.4 2633.5 1276.6 2632.5 1277.9 2631.8 1279.3 2631.3 1280.9 2631.1 1282.5 2631.1 1284.1 2631.4 1285.7 2631.9 1287.2 2632.7 1288.6 2633.7 1289.9 2634.9 1291 2647.8 1304.1 2670.7 1308.5 2661.5 1321.9 2661.3 1323.6 2661.3 1325.4 2661.7 1327.1 2662.3 1328.7 2663.2 1330.2 2664.3 1331.6 2665.6 1332.7 2667.1 1333.6 2668.8 1334.2 2670.5 1334.6 2672.2 1334.6 2674 1334.4 2675.7 1333.9 2680.5 1331.6 2707.5 1319.1 2709.9 1318 2712.5 1317.3 2715.2 1317.1 2717.9 1317.2 2720.5 1317.6 2723 1318.5 2725.4 1319.8 2727.6 1321.3 2729.5 1323.2 2731.1 1325.3 2732.3 1327.7 2733.3 1330.2 2733.8 1332.8 2733.9 1335.4 2733.7 1338.1 2735.5 1344.3 2737.9 1352.2 2775.6 1375.7 2803 1381.8 2740.8 1410.7 2728.9 1389.9 2706.6 1401.2 2689.1 1410 2658 1345.5 2655.8 1340.9 2513.9 1415.3 2561.1 1510 2497.9 1541.2 2416.5 1581.5 2365.8 1606.6 2319.1 1517.1 2044 1652.1 1827.8 1223.1 1662.1 894.3 1974.5 741.5 2183.9 1158.5 2242 1191 Z" data-holc_grade="D"/>
<path d="M 1142.7 1497.6 1140.5 1498.6 1093.8 1398.5 1071.1 1349.7 1034.2 1270.8 1274.7 1153.3 1313.6 1232.9 1345.2 1297.4 1187.2 1372.7 1225.4 1457.6 1142.7 1497.6 Z" data-holc_grade="D"/>
<path d="M 1513.5 1625.9 1376.2 1692 1373.1 1686.1 1348.9 1640.6 1292.7 1666.3 1197.3 1711.5 1163.8 1727.3 1157.4 1713.9 1119.8 1635.3 1302.5 1545.4 1438.3 1478.6 1513.5 1625.9 Z" data-holc_grade="D"/>
<path d="M 1029 1920 959.3 1954.5 864.9 1757.7 827.5 1776.5 770.5 1805.1 760.4 1810.1 720 1830.4 652.6 1692.5 705.3 1665.3 806 1613.3 888.7 1570.6 912.5 1617.9 966.8 1591.4 1016.6 1682.8 953.2 1713.8 1051.7 1908.8 1029 1920 Z" data-holc_grade="D"/>
<path d="M 1223.5 1999.2 1222 2000 1159.6 1869.5 1121.7 1790.4 1104.9 1755.3 1163.8 1727.3 1197.3 1711.5 1292.7 1666.3 1413.1 1907.2 1280.7 1971.5 1223.5 1999.2 Z" data-holc_grade="D"/>
<path d="M 1882.7 1557.6 1563.4 1712.3 1518.4 1623.5 1679 1541.1 1702.3 1586 1859.1 1508.8 1882.7 1557.6 Z" data-holc_grade="D"/>
</g>
</svg>