<?xml version="1.0"?>
<svg xmlns="http://www.w3.org/2000/svg" version="1.2" baseProfile="tiny" width="3000" height="2772" viewBox="0 0 3000 2772" stroke-linecap="round" stroke-linejoin="round">
<g id="A">
<path d="M 1381.7 1324.5 1279.7 1358.2 1262.4 1360.8 1222.5 1347 1196.5 1343.5 1180 1363.4 1154.9 1396.2 1126.2 1413.5 1091.6 1428.2 1098.5 1447.2 1099.4 1477.4 1137.5 1463.6 1193.9 1481.7 1205.1 1484.3 1172.2 1511.1 1246.7 1534.4 1252.4 1607.2 1210.9 1611.5 1111 1640.5 1095.7 1635 1101.3 1596.3 1104 1549.3 1055.5 1527.2 1047.2 1557.6 1047.2 1611.5 919.5 1612.8 909.8 1633.6 884.8 1651.5 886.2 1734.5 893.1 1751.1 850.1 1793.9 893.1 1832.6 1119.2 1973.6 1067.9 2017.9 961.1 2033.1 941.6 2045.5 903.3 2031.3 860.6 2000.2 796.1 1996 720.2 1995 641.1 1960.7 604.7 1978.3 577.6 1993.9 514.1 1994.9 478.7 1975.2 449.6 1976.2 424.6 1991.7 393.4 1977.2 358.1 1926.4 344.6 1887 315.4 1855.9 286.3 1821.7 285.3 1782.3 278.2 1756.4 292.8 1745 292.8 1724.3 273 1704.6 295.9 1681.8 333.4 1656.9 353.2 1642.4 376.1 1626.9 386.8 1610.9 405.7 1617.1 417 1607.6 515 1621.5 533.2 1604.2 559.2 1593.9 600.8 1590.4 795 1733.9 803.7 1714 808.9 1666.5 796.7 1630.2 776.8 1601.7 743 1577.5 718.7 1565.4 732.6 1533.5 771.6 1540.4 776.8 1528.3 902.5 1557.7 919.9 1550.8 972.8 1547.4 982.3 1526.6 1037.8 1512.8 1039.5 1474 1044.7 1454.1 959.8 1418.7 938.1 1437.7 819.3 1390.1 835 1334 736.1 1300.3 705.8 1285.6 707.5 1279.5 688.3 1260.1 671.3 1232.2 721.3 1203.2 758.7 1188.7 781.6 1203.2 792 1242.6 873.2 1226 952.2 1221.9 983.4 1197 977.2 1132.8 1047.9 1116.2 1060.4 1095.5 1087.5 1085.1 1110.4 1095.5 1129.1 1120.4 1272.6 1089.3 1270.6 1020.9 1289.3 1008.5 1314.2 1014.7 1347.5 1018.8 1360 1037.5 1362.1 1076.9 1395.4 1076.9 1399.5 1108 1385 1168.1 1391.2 1236.5 1330.9 1300.7 1360 1317.3 1381.7 1324.5 Z" data-holc_grade="A"/>
<path d="M 2513 983.6 2448 988.2 2382.9 1003.4 2395.3 1029.7 2395.4 1060.1 2377.3 1076.7 2387.1 1129.2 2389.9 1196.9 2470.3 1203.7 2471.7 1243.8 2466.2 1275.6 2466.2 1295 2484.2 1297.7 2480.1 1341.9 2496.7 1355.8 2456.5 1456.7 2491.2 1455.3 2535.6 1357.1 2578.6 1353 2589.7 1394.4 2599.4 1427.6 2581.4 1487 2562 1525.7 2486.5 1544.3 2466.3 1549.3 2438.5 1564.5 2395.5 1557.6 2365 1543.8 2319.2 1557.6 2269.3 1568.7 2188.6 1578.4 2127.6 1592.2 2120.6 1523.1 2135.9 1480.3 2198.3 1398.7 2158 1376.6 2173.3 1350.4 2202.4 1329.6 2212.1 1277.1 2206.6 1238.4 2159.4 1224.6 2117.8 1210.8 2085.7 1213.5 1986 1187.6 1977.3 1213.5 1928.8 1206.6 1891.5 1216.1 1867.2 1231.7 1878.5 1125.5 1940.9 1071 1953.9 1071.9 1970.4 1046.8 1992 1033.9 2027.6 999.3 2066.6 1010.6 2072.6 992.4 2207 1025.2 2215.7 1021.7 2232.1 996.7 2247.7 961.3 2250.3 925.9 2321.4 938.8 2316.2 984.6 2342.2 975.9 2373.4 975.9 2375.1 956.9 2382.1 925.8 2408 902.5 2444.4 893 2467.9 899.9 2503.4 894.7 2524.2 918 2513 983.6 Z" data-holc_grade="A"/>
<path d="M 1522.4 2172.6 1552.1 2179.7 1611.8 2199 1628.4 2163.1 1657.6 2135.4 1678.4 2124.3 1715.8 2136.8 1713.1 2306.8 1751.9 2315.1 1767.2 2316.5 1771.4 2241.8 1803.3 2218.3 1835.2 2168.6 1905.9 2175.5 1930.9 2066.3 2030.8 2073.1 1907.4 2370.4 1935.1 2395.3 1958.7 2432.6 1964.3 2463 2185 2590.2 2229.4 2677.3 2222.5 2695.3 2185 2714.6 2140.6 2752 2101.7 2771.3 2072.6 2770 2049 2720.2 1999 2695.3 1906 2555.7 1685.3 2432.6 1629.8 2475.5 1517.4 2282 1522.4 2172.6 Z" data-holc_grade="A"/>
</g>
<g id="B">
<path d="M 209.8 963.9 136.4 983.3 129.2 973.7 136.1 951.2 158.7 915 144 902 118.8 892.5 98.9 875.2 71.2 875.2 71.2 846.7 79.9 827.7 77.3 809.6 75.5 792.3 79.9 776.7 94.6 760.3 112 761.2 122.4 756 127.6 740.5 149.3 732.7 170 743.1 178.7 777.7 170 804.4 173.5 844.1 193.4 891.7 215.9 925.3 210.7 941.8 209.8 963.9 Z" data-holc_grade="B"/>
<path d="M 1579.6 325.1 1486 397.6 1572.6 494.3 1515.4 556.5 1392.4 485.7 1322.7 469.4 1266.5 466.2 1206.2 599.9 1203.1 633.1 1229.4 667 1272.8 730.9 1236.4 753.4 1210.4 746.5 1071.7 710.2 991.9 793.1 943.4 763.7 960.7 711.9 946.9 710.1 971.2 615.2 992 620.4 1005.9 525.4 1063 528.8 1070 470.1 1104.7 447.7 1139.3 451.1 1142.2 438.3 1311.2 393.7 1342.4 361.6 1367.4 330.5 1446.4 365.7 1465.2 320.2 1498.4 313.9 1579.6 325.1 Z" data-holc_grade="B"/>
<path d="M 713 1105.8 640.1 1209.4 671.3 1232.2 688.3 1260.1 674.8 1267.3 661.2 1300.5 645.6 1342 618.6 1354.4 594.6 1367.8 596.7 1418.6 588.4 1461.1 568.6 1492.2 531.1 1476.7 491.6 1478.7 456.2 1506.7 406.3 1565.7 396.9 1595.8 386.8 1610.9 376.1 1626.9 353.2 1642.4 333.4 1656.9 295.9 1681.8 273 1704.6 292.8 1724.3 292.8 1745 278.2 1756.4 249.1 1740.9 226.2 1735.7 212.7 1728.4 212.7 1704.6 247 1671.4 260.6 1638.2 261.6 1608.2 274.1 1588.5 312.6 1555.3 337.6 1555.4 376.1 1578.2 394.8 1541.9 437.5 1504.6 534.3 1412.4 505.2 1384.4 525 1331.5 408.5 1285.9 361.6 1302.5 317.9 1350.1 288.8 1378.1 239.9 1345.9 197.3 1303.4 161.9 1249.5 146.4 1195.6 150 1178.4 153.7 1161.4 171.4 1121 202.6 1071.2 257.2 1028.3 325.9 1009.6 400.8 1001.4 552.6 1051.2 631.7 1084.4 713 1105.8 Z" data-holc_grade="B"/>
<path d="M 1628.4 2163.1 1595.1 2129.9 1618.7 2103.6 1660.3 2087 1699.2 2089.8 1700.6 2082.9 1650.6 2006.8 1682.5 1979.2 1642.3 1900.4 1745 1820.2 1692.2 1817.5 1674.2 1811.9 1667.3 1791.2 1667.3 1758 1603.4 1723.5 1579.9 1719.3 1554.9 1647.5 1545.2 1568.2 1524.4 1501.8 1536.8 1454.1 1439.1 1435.5 1409.9 1476.9 1378.7 1454.1 1391.2 1327.7 1381.7 1324.5 1360 1317.3 1330.9 1300.7 1391.2 1236.5 1385 1168.1 1399.5 1108 1395.4 1076.9 1362.1 1076.9 1360 1037.5 1347.5 1018.8 1314.2 1014.7 1289.3 1008.5 1270.6 1020.9 1272.6 1089.3 1129.1 1120.4 1110.4 1095.5 1087.5 1085.1 1060.4 1095.5 1047.9 1116.2 977.2 1132.8 983.4 1197 952.2 1221.9 873.2 1226 792 1242.6 781.6 1203.2 758.7 1188.7 721.3 1203.2 671.3 1232.2 640.1 1209.4 713 1105.8 754.6 1068.5 781.7 1095.4 817 1062.3 810.8 1050.9 815 1040.5 831.6 1037.4 858.6 1069.5 956.4 1015.7 942.9 990.8 1181.1 935.9 1234.2 907.9 1372.5 875.8 1417.2 884.1 1559.7 856.1 1568 942.1 1726.1 923.5 1813.5 920.4 1831.2 852 1837.4 813.6 1824.9 781.5 1942.8 731.7 1992.7 740 2040.6 767 2155 845.7 2165.4 833.2 2171.6 777.3 2194.5 791.8 2238.2 754.5 2223.6 735.8 2242.3 665.4 2277.7 677.8 2273.5 576.2 2392 538.9 2429.5 540.9 2504.4 561.6 2607.1 610.1 2527.3 721.2 2494.1 845.6 2572.8 980.2 2513 983.6 2524.2 918 2503.4 894.7 2467.9 899.9 2444.4 893 2408 902.5 2382.1 925.8 2375.1 956.9 2373.4 975.9 2342.2 975.9 2316.2 984.6 2321.4 938.8 2250.3 925.9 2247.7 961.3 2232.1 996.7 2215.7 1021.7 2207 1025.2 2072.6 992.4 2066.6 1010.6 2027.6 999.3 1992 1033.9 1970.4 1046.8 1953.9 1071.9 1940.9 1071 1878.5 1125.5 1867.2 1231.7 1891.5 1216.1 1928.8 1206.6 1977.3 1213.5 1986 1187.6 2085.7 1213.5 2117.8 1210.8 2159.4 1224.6 2206.6 1238.4 2212.1 1277.1 2202.4 1329.6 2173.3 1350.4 2158 1376.6 2198.3 1398.7 2135.9 1480.3 2120.6 1523.1 2127.6 1592.2 2188.6 1578.4 2183.1 1625.4 2172 1651.6 2185.9 1669.6 2285.8 1705.5 2251.1 1740.1 2245.5 1762.2 2253.9 1792.6 2240 1820.3 2198.4 1820.3 2158.2 1816.1 2144.3 1831.3 2116.5 1773.3 2084.6 1778.8 2069.4 1773.3 2036.1 1799.6 1977.8 1747.1 1952.8 1769.2 1950.1 1841.1 2130.5 2033.2 2170.7 2056.7 2241.5 2049.7 2267.8 2066.3 2197.1 2073.2 2137.4 2088.5 2030.8 2073.1 1930.9 2066.3 1905.9 2175.5 1835.2 2168.6 1803.3 2218.3 1771.4 2241.8 1767.2 2316.5 1751.9 2315.1 1713.1 2306.8 1715.8 2136.8 1678.4 2124.3 1657.6 2135.4 1628.4 2163.1 Z" data-holc_grade="B"/>
<path d="M 2578.6 1353 2535.6 1357.1 2491.2 1455.3 2456.5 1456.7 2496.7 1355.8 2480.1 1341.9 2484.2 1297.7 2466.2 1295 2466.2 1275.6 2471.7 1243.8 2470.3 1203.7 2492.5 1177.5 2529.9 1171.9 2570.2 1166.4 2609 1185.7 2634 1205.1 2653.4 1247.9 2654.8 1276.9 2607.7 1304.6 2578.6 1353 Z" data-holc_grade="B"/>
<path d="M 2486.5 1544.3 2562 1525.7 2617.5 1511.9 2704.9 1500.8 2717.3 1511.8 2790.9 1498 2869.9 1495.2 2919.9 1510.3 2957.3 1553.2 2999 1613.9 2982.4 1627.8 2936.6 1643 2907.5 1674.8 2878.4 1702.5 2845.1 1716.3 2811.8 1745.4 2774.3 1766.1 2754.9 1745.4 2718.8 1719.1 2674.4 1727.5 2630 1724.7 2596.7 1706.8 2567.6 1690.2 2531.5 1686.1 2467.7 1684.7 2444.1 1659.8 2426.1 1630.8 2438.6 1619.7 2469.1 1601.8 2470.4 1571.4 2486.5 1544.3 Z" data-holc_grade="B"/>
<path d="M 1252.4 1607.2 1291.3 1603.2 1308 1709.7 1355.1 1730.4 1349.6 1785.7 1356.5 1827.1 1352.3 1841 1332.9 1854.8 1323.2 1871.4 1323.2 1890.7 1381.5 1882.4 1410.6 1874.1 1452.2 1824.4 1486.9 1756.7 1507.7 1713.8 1543.8 1673.7 1536.9 1655.8 1554.9 1647.5 1579.9 1719.3 1603.4 1723.5 1667.3 1758 1667.3 1791.2 1674.2 1811.9 1692.2 1817.5 1745 1820.2 1642.3 1900.4 1514.7 2053.9 977.7 2154.7 980.5 2096.7 961.1 2067.6 941.6 2045.5 961.1 2033.1 1067.9 2017.9 1119.2 1973.6 893.1 1832.6 850.1 1793.9 893.1 1751.1 886.2 1734.5 884.8 1651.5 909.8 1633.6 919.5 1612.8 1047.2 1611.5 1047.2 1557.6 1055.5 1527.2 1104 1549.3 1101.3 1596.3 1095.7 1635 1111 1640.5 1210.9 1611.5 1252.4 1607.2 Z" data-holc_grade="B"/>
</g>
<g id="C">
<path d="M 700.3 50.7 746.9 57.4 761.9 29.2 808.5 47.5 805.1 80.6 871.7 93.9 871.7 117.1 994.8 155.2 1011.4 123.7 1068 153.6 1044.7 214.9 973.2 181.8 948.2 251.4 995.5 314.7 1108.2 269.8 1156.7 373.4 1146.3 420.1 1142.2 438.3 1139.3 451.1 1104.7 447.7 1070 470.1 1063 528.8 1005.9 525.4 992 620.4 971.2 615.2 946.9 710.1 960.7 711.9 943.4 763.7 991.9 793.1 1071.7 710.2 1210.4 746.5 1236.4 753.4 1272.8 730.9 1229.4 667 1272.8 610 1305.7 604.9 1323 627.3 1350.8 694.7 1388.9 677.4 1380.2 658.4 1371.6 611.8 1378.5 577.2 1402.8 561.7 1392.4 485.7 1515.4 556.5 1572.6 494.3 1486 397.6 1579.6 325.1 1635 247.4 1697.4 395.9 1652.4 418.3 1690.5 463.2 1648.9 511.6 1723.4 594.5 1685.3 627.3 1716.5 656.7 1747.7 661.8 1888.1 527.1 1881.1 497.8 1811.8 414.9 1792.7 413.2 1778.9 340.6 1813.5 338.9 1820.5 271.6 1903.6 273.3 1895 321.6 1862.1 345.8 1836.1 345.8 1832.6 370 1839.5 404.5 1877.7 394.1 2238.2 506.3 2269.4 464.9 2309.3 461.4 2395.9 492.4 2473.9 506.2 2510.3 525.2 2429.5 540.9 2392 538.9 2273.5 576.2 2277.7 677.8 2242.3 665.4 2223.6 735.8 2238.2 754.5 2194.5 791.8 2171.6 777.3 2165.4 833.2 2155 845.7 2040.6 767 1992.7 740 1942.8 731.7 1824.9 781.5 1837.4 813.6 1831.2 852 1813.5 920.4 1726.1 923.5 1568 942.1 1559.7 856.1 1417.2 884.1 1372.5 875.8 1234.2 907.9 1181.1 935.9 942.9 990.8 956.4 1015.7 858.6 1069.5 831.6 1037.4 815 1040.5 810.8 1050.9 817 1062.3 781.7 1095.4 754.6 1068.5 713 1105.8 631.7 1084.4 552.6 1051.2 400.8 1001.4 325.9 1009.6 257.2 1028.3 202.6 1071.2 171.4 1121 153.7 1161.4 150 1178.4 102.4 1229.2 62.5 1201 7.6 1209.3 1 1084.9 45.9 1066.7 99.2 1018.6 136.4 983.3 209.8 963.9 219.6 961.2 272.4 936.4 247.4 925.3 261.3 894.9 230.8 856.2 236.4 731.9 269.7 723.6 322.4 762.3 333.5 707.1 444.4 707.1 480.5 732 511 773.5 580.3 721 669.1 679.6 674.6 646.4 599.8 577.3 605.4 475.1 618.7 425.3 590.4 422 570.4 445.2 517.2 385.5 495.6 407.1 459 363.9 465.7 332.4 490.6 310.9 487.3 277.7 512.3 165 534 125.3 630.5 19.2 673.7 1 645.4 196.6 675.3 198.2 700.3 50.7 Z" data-holc_grade="C"/>
<path d="M 1628.4 2163.1 1611.8 2199 1552.1 2179.7 1522.4 2172.6 1499.4 2167.2 1484.1 2266.7 1492.5 2283.3 1511.9 2360.8 1581.3 2515.6 1609 2599.9 1450.8 2698.1 1438.2 2653.5 1406.1 2593 1390.5 2574 1350.6 2560.2 1304.6 2561.1 1265.6 2555.9 1214.4 2546.4 1194.4 2555.9 1181.4 2557.6 1182.3 2536 1171 2527.3 1149.3 2505.7 1150.2 2488.5 1165.8 2467.7 1159.8 2458.2 1112.6 2468.5 1076.1 2452.9 1064 2409.7 1273.9 2375.2 1350.2 2280.2 1343.3 2264.6 1289.5 2266.3 1261.8 2154 972.1 2195.4 973.5 2178.2 977.7 2154.7 1514.7 2053.9 1642.3 1900.4 1682.5 1979.2 1650.6 2006.8 1700.6 2082.9 1699.2 2089.8 1660.3 2087 1618.7 2103.6 1595.1 2129.9 1628.4 2163.1 Z" data-holc_grade="C"/>
<path d="M 2240 1820.3 2236.6 1845.5 2229.6 1877.3 2251.8 1929.8 2268.5 1945 2304.6 1932.5 2326.8 1974 2319.9 2004.4 2314.3 2040.4 2333.7 2068 2361.5 2090.1 2442 2095.6 2473.9 2099.8 2489.2 2097 2505.8 2079 2534.9 2081.8 2537.7 2090 2485 2150.9 2444.8 2134.3 2414.2 2139.9 2372.6 2144 2340.7 2130.2 2300.5 2105.3 2292.1 2146.8 2281 2153.7 2247.7 2148.2 2267.8 2066.3 2241.5 2049.7 2229.7 1992 2185.3 1945 2144.3 1831.3 2158.2 1816.1 2198.4 1820.3 2240 1820.3 Z" data-holc_grade="C"/>
</g>
<g id="D">
<path d="M 1820.5 271.6 1813.5 338.9 1778.9 340.6 1792.7 413.2 1811.8 414.9 1881.1 497.8 1888.1 527.1 1747.7 661.8 1716.5 656.7 1685.3 627.3 1723.4 594.5 1648.9 511.6 1690.5 463.2 1652.4 418.3 1697.4 395.9 1706.2 391.1 1731.8 435.4 1766.8 428.8 1711.8 259.7 1820.5 271.6 Z" data-holc_grade="D"/>
<path d="M 972.1 2195.4 1261.8 2154 1289.5 2266.3 1343.3 2264.6 1350.2 2280.2 1273.9 2375.2 1064 2409.7 1008.5 2411.4 987.7 2351 998.1 2319.9 1017.2 2283.6 1017.2 2255.9 994.7 2233.4 972.1 2195.4 Z" data-holc_grade="D"/>
</g>
</svg>