<?xml version="1.0"?>
<svg xmlns="http://www.w3.org/2000/svg" version="1.2" baseProfile="tiny" width="3000" height="2038" viewBox="0 0 3000 2038" stroke-linecap="round" stroke-linejoin="round">
<g id="A">
<path d="M 475.6 4 447.7 53.8 382.9 190 378.4 367.3 293 493.3 237.1 493.3 222.5 373.1 249 321.8 57.8 318.8 122.6 255.8 165.2 229.4 199 216.3 240.2 185.5 280 150.4 313.8 107.9 325.6 72.8 337.4 52.3 384.5 1 475.6 4 Z" data-holc_grade="A"/>
</g>
<g id="B">
<path d="M 237.1 493.3 293 493.3 378.4 367.3 382.9 190 447.7 53.8 475.6 4 518.3 1.1 496.1 147.6 503.4 275.1 310.6 554.9 295.9 592.9 242.9 590 170.8 633.9 159.1 617.8 103.2 538.6 216.5 525.5 243 529.9 237.1 493.3 Z" data-holc_grade="B"/>
<path d="M 257.5 850.9 282.5 850.9 322.1 1018 279.4 1123.5 208.7 1286.2 108.6 1371.2 107.1 1314 157.2 1312.6 151.4 1166 208.8 1044.3 241.2 998.9 254.5 959.3 253.1 890.4 257.5 850.9 Z M 378 1138.2 411.9 1003.4 414.8 947.7 412 815.8 391.4 801.1 634.1 798.3 626.6 1078.3 645.7 1081.2 648.7 1135.4 613.3 1136.9 378 1138.2 Z M 391.4 801.1 394.2 940.4 345.6 1147 378 1138.2 392.6 1198.4 427.9 1265.8 529.3 1438.9 260.1 1453.4 249.9 1297.7 356 1000.4 332.5 889 354.6 889 350.2 793.8 295.8 790.8 294.3 758.6 350.2 761.5 391.4 801.1 Z" data-holc_grade="B"/>
<path d="M 667.9 798 1096 794 1094.2 807.5 1085.1 808.1 1081.3 817.8 1068 819 1065.1 833.6 1063.3 841.2 1055.1 842.4 1053.3 851.5 1050.9 855 1049.5 862.6 1045.3 868.5 1045.1 873.8 1042.7 878.8 1042.7 885.5 1037.4 892.2 1038 896.9 1037.4 903.1 1036.8 909.2 1033.3 916 1032.1 935.9 1038.3 940.3 1036.8 946.5 1029.4 950.6 1028.3 956.1 1031.2 963.5 1028.3 968.5 935.6 964 981.1 1125.3 695.7 1122.3 691.4 1041.6 666.4 1040.2 667.9 798 Z" data-holc_grade="B"/>
<path d="M 334.1 1640.1 357.7 1670.6 351.7 1715.2 258.7 1719.8 236.4 1726.9 185.7 1716.3 170.4 1718.6 161 1716.3 137.5 1708 111.6 1698.6 78.7 1650.5 109.3 1602.4 178.7 1638.8 334.1 1640.1 Z" data-holc_grade="B"/>
<path d="M 1759.4 1731.7 1763.8 1904.2 1747 1898 1650.8 1907.7 1622.5 1897.2 1624.3 1847 1627.8 1718.6 1759.4 1731.7 Z" data-holc_grade="B"/>
<path d="M 2528.8 1782.3 2523.5 1696.6 2519.3 1653.2 2512.9 1638.6 2497 1609.9 2524 1590.5 2494 1519 2474.5 1481.4 2455.7 1443.3 2432.7 1409.9 2486.8 1387.6 2531.6 1372.3 2531 1366.5 2588.1 1352.9 2648.7 1351.1 2741.7 1357.5 2799.4 1372.2 2853.5 1380.3 2939.5 1419 2990.7 1437.1 2999 1549.1 2922.5 1534.5 2854.8 1520.5 2824.2 1505.3 2788.8 1499.4 2750.6 1491.2 2728.8 1492.4 2730.6 1559.3 2731.2 1593.3 2731.9 1710.6 2736 1728.2 2735.5 1823.2 2682.5 1807.4 2623 1788.7 2623.6 1775.8 2630.1 1748.8 2609.4 1697.8 2583.5 1710.1 2590.6 1733.6 2593.6 1765.2 2593.6 1785.8 2528.8 1782.3 Z M 2135.7 1844.3 2136.4 1773 2433.1 1800.2 2513.5 1808.1 2561.1 1808.9 2571.7 1814.2 2485.2 1874.1 2512.6 1902.2 2621.2 1817.7 2659.2 1818.5 2692.7 1834.4 2696.3 1842.3 2662.7 1836.1 2635.3 1841.4 2608 1856.4 2579.7 1875.8 2572.7 1883.7 2552.3 1893.4 2525 1920.7 2412 1950.6 2358.1 1958.6 2290.1 1978.9 2282.2 1935.7 2197.4 1941.9 2192.9 1844.3 2135.7 1844.3 Z" data-holc_grade="B"/>
<path d="M 2198.9 2007 2234.2 2000 2252.4 1995.9 2274.2 1998.8 2354.9 1987 2361.9 1983.5 2383.1 1981.7 2405.5 1973.5 2446.7 1970 2502.6 1954.7 2523.8 1944.1 2558.5 1912.4 2586.2 1895.4 2636.2 1866.7 2662.7 1860.8 2698.6 1862.5 2731 1876.6 2765.2 1898.8 2807 1948.7 2832.9 1973.9 2854.7 2005.5 2850.6 2015.5 2814.7 2025.5 2791.1 2030.8 2767.6 2034.3 2728.7 2037.3 2689.9 2033.8 2664 2030.3 2644.6 2032.1 2612.2 2035.6 2580.4 2031.5 2551.5 2024.5 2530.9 2019.8 2510.3 2019.2 2484.4 2006.9 2462.6 2001.7 2437.9 1998.1 2418.5 1995.8 2397.3 1994.6 2384.9 2000.5 2366.7 2008.2 2354.9 2013.4 2337.8 2015.8 2320.2 2021.1 2286 2022.3 2265.4 2019.3 2248.3 2019.9 2230.1 2022.9 2217.7 2022.9 2207.1 2020.5 2201.8 2015.8 2198.9 2007 Z" data-holc_grade="B"/>
</g>
<g id="C">
<path d="M 1096 794 667.9 798 634.1 798.3 391.4 801.1 413.5 739.6 479.7 723.5 572.3 722.1 700.3 729.4 694.4 684 820.9 663.5 819.5 685.5 1143.1 695.9 1143 766.2 1137.2 783.8 1125.4 782.3 1116.6 798.4 1098.9 795.5 1096 794 Z M 282.5 850.9 257.5 850.9 248.7 823 225.2 798.1 170.8 633.9 242.9 590 295.9 592.9 273.8 679.4 279.6 720.4 256.1 716 282.5 850.9 Z" data-holc_grade="C"/>
<path d="M 334.1 1640.1 178.7 1638.8 109.3 1602.4 78.7 1650.5 70.4 1652.9 48.1 1641.1 22.2 1605.9 1 1598.8 8.1 1588.3 57.5 1584.8 55.2 1568.4 182.3 1562.6 334.1 1640.1 Z M 241.2 1484.1 241.2 1520.4 257.7 1552.1 182.3 1519.2 74 1522.7 71.7 1491 241.2 1484.1 Z M 249.9 1297.7 260.1 1453.4 74.7 1459.1 249.9 1297.8 249.9 1298 249.9 1297.7 Z" data-holc_grade="C"/>
<path d="M 1030 1262.7 1102.9 1478.5 812.1 1470.2 809.7 1589.9 610.8 1581.6 587.3 1537 572 1503 241.2 1520.4 241.2 1484.1 507.3 1473.6 549.6 1476 529.3 1438.9 427.9 1265.8 392.6 1198.4 378 1138.2 613.3 1136.9 614.5 1223.9 507.4 1229.7 506.2 1276.6 648.6 1270.8 649.7 1470.2 698 1467.9 692.2 1265 1030 1262.7 Z M 695.7 1122.3 981.1 1125.3 1017 1226.4 695.7 1229.8 695.7 1122.3 Z" data-holc_grade="C"/>
<path d="M 2135.7 1844.3 2134.7 1950.7 2057 1949 1997.8 1913 1895.4 1893.6 1838 1882.2 1837.1 1907.7 1989.9 1935 2041.1 1971 2131.2 1980.7 2138.2 1992.1 2119.7 1998.3 2075.5 1997.4 2028.7 1988.6 1994.3 1971.9 1976.6 1963.1 1933.4 1952.6 1882.1 1939.4 1840.6 1924.4 1815.9 1917.4 1799.1 1914.7 1790.3 1910.4 1763.8 1904.2 1759.4 1731.7 2136.4 1773 2135.7 1844.3 Z M 2528.8 1782.3 2471.7 1780.5 2434.6 1773.5 2371.1 1770.6 2299.2 1766 2195.1 1755.4 2191.5 1644.6 2343.9 1641 2512.9 1638.6 2519.3 1653.2 2523.5 1696.6 2528.8 1782.3 Z" data-holc_grade="C"/>
</g>
<g id="D">
<path d="M 985.7 603.5 850.4 629.8 850.4 640.1 781.2 656.2 484.1 654.6 482.6 703 413.5 723.4 309.1 720.5 338.5 626.7 417.9 628.2 431.2 597.4 762.1 597.6 760.7 490.6 785.7 490.6 778.4 461.3 985.7 465.7 985.7 603.5 Z M 699 201.9 744.6 347 535.7 342.5 599 228.2 538.7 222.3 543.2 197.4 699 201.9 Z" data-holc_grade="D"/>
<path d="M 1775.2 1592.7 1781.4 1717.7 1702 1707.1 1627.8 1701 1626 1576.9 1631.3 1394.8 1702.8 1409.8 1702.8 1589.2 1775.2 1592.7 Z M 357.7 1670.6 334.1 1640.1 318.9 1593.2 257.7 1552.1 587.3 1537 610.8 1581.6 809.7 1589.9 812.1 1470.2 1102.9 1478.5 1030 1262.7 1029.3 1262.7 1024.1 1245.1 1214.8 1247.5 1238.3 1255.7 1246.5 1524.3 1234.7 1531.3 1226.5 1649.8 1018.1 1631 1046.4 1587.6 1055.8 1555.9 1069.9 1534.8 914.5 1536 914.5 1636.8 795.6 1632.1 633.2 1618 626.1 1661.4 357.7 1670.6 Z" data-holc_grade="D"/>
</g>
</svg>