<?xml version="1.0"?>
<svg xmlns="http://www.w3.org/2000/svg" version="1.2" baseProfile="tiny" width="3000" height="2992" viewBox="0 0 3000 2992" stroke-linecap="round" stroke-linejoin="round">
<g id="A">
<path d="M 1667.1 1478.2 1670.5 1476.8 1677.1 1468 1673.4 1457.5 1658.3 1447.6 1645 1442 1628.7 1436.8 1626.5 1433 1627.2 1423.9 1636.5 1421.6 1642.4 1417.2 1641.7 1413.7 1636.1 1409.3 1625.8 1404.7 1607.3 1396.2 1594.7 1395.3 1584.4 1397.9 1574 1404.1 1560 1411.4 1559.6 1422.2 1561.5 1432.1 1554.8 1442.3 1557.4 1451.4 1561.5 1461.6 1573.7 1482.3 1565.9 1484.3 1557.4 1482.6 1547.1 1476.2 1538.9 1471.2 1535.6 1470.9 1521.9 1473.3 1506.7 1466.9 1480.6 1456 1481.3 1453.7 1485.4 1443.2 1492 1435.9 1498.3 1425.4 1501.6 1406.7 1507.9 1395 1516 1384.5 1532.3 1372 1543.7 1357.4 1544.8 1355.9 1555.6 1346 1579.6 1322.1 1584.4 1309.8 1583.3 1299.3 1571.1 1287 1558.9 1270.1 1544.1 1251.4 1530.8 1233.6 1514.9 1211.2 1497.9 1189.8 1485.4 1175.3 1463.8 1152.7 1473.5 1146.8 1478.3 1145.7 1484.9 1148.3 1497.5 1159.4 1510.8 1167.5 1523.3 1174.3 1531.5 1185.9 1543.7 1190.3 1558.1 1190.3 1562.1 1183 1573.2 1180.7 1575.8 1176 1578.8 1165.5 1586.5 1160.2 1597.2 1155 1599.4 1150.3 1595 1146.8 1591.3 1144.5 1590.9 1139.5 1594.6 1132.8 1602 1131.1 1614.2 1124.4 1618.7 1118.2 1629.4 1113.8 1640.8 1114.1 1654.5 1112.4 1663 1109.5 1671.1 1103.9 1675.2 1093.7 1672.6 1087.6 1670 1080.6 1668.9 1075.3 1671.5 1072.1 1678.5 1067.7 1690 1063.9 1690 1057.8 1691.4 1055.2 1694 1053.4 1700.3 1053.4 1710.7 1055.5 1720.3 1052.9 1726.2 1046.1 1727.8 1036.3 1733.4 1028.6 1738.9 1022.4 1735.7 1014.8 1728.3 1010.8 1728.3 1007.9 1729.2 1004.9 1735.2 1001.3 1737.1 997.3 1734.8 990.3 1735.7 982.7 1776.3 982 1776.8 979 1787.6 988.8 1792.8 994.9 1796.8 1006.9 1800.9 1011 1812.4 1012.1 1814.6 1013.3 1828.2 1019.1 1836.7 1024.4 1848.2 1034.9 1862.2 1044.8 1874.8 1052.7 1912.5 1057.9 1922.8 1060.9 1938 1067 1950.9 1095.6 1952 1100.8 1960.2 1110.2 1959.4 1116.3 1959.4 1122.1 1953.1 1133.5 1941.7 1147.8 1933.9 1161.2 1936.5 1172 1929.5 1181.4 1926.2 1192.2 1925.8 1201.8 1922.5 1213.8 1927.3 1226.9 1932.1 1241.2 1936.9 1247 1938.7 1254.6 1936.1 1260.8 1928.4 1272.7 1923.9 1283.2 1919.1 1295.8 1917.7 1303.7 1925.8 1312.7 1932.4 1316.5 1936.1 1318 1939.1 1321.2 1957.9 1326.7 1938.4 1341.9 1889.9 1397.7 1874.4 1411.1 1865.6 1423.6 1858.2 1426.6 1845.2 1427.1 1821.6 1424.2 1789.4 1420.1 1764.7 1419.8 1726.6 1420.1 1727 1432.4 1724.8 1434.7 1723.3 1441.4 1724.4 1445.5 1741 1459 1747.7 1464.8 1752.5 1469.5 1759.5 1472.7 1765.8 1476.5 1767.6 1476.8 1774.3 1477.6 1790.6 1478.8 1820.9 1478.8 1837.1 1477.9 1852.3 1477.9 1862.2 1478.8 1868.5 1481.7 1875.9 1483.5 1879.2 1483.5 1909.2 1474.1 1917.3 1471.8 1922.8 1469.5 1927.6 1470 1930.2 1471.5 1933.2 1475.6 1942 1482 1953.5 1485.8 1968.3 1487.8 1979 1489 1991.9 1494.3 2002.3 1499.2 2010 1506.5 2016.3 1521.7 2018.5 1531.1 2023.7 1535.1 2032.2 1539.8 2041.1 1548.6 2044.4 1551.8 2047 1555.9 2051 1573.4 2054.4 1584.8 2054 1594.1 2056.2 1601.4 2061.8 1609.3 2061 1614 2045.5 1625.3 2032.2 1629.4 2021.9 1631.5 2003.7 1631.5 1990.1 1628.6 1976 1622.1 1956.8 1614.5 1939.1 1607.8 1924.3 1601.7 1919.5 1595.9 1914 1585.6 1904.4 1574.8 1897.7 1565.2 1888.5 1558.2 1863.7 1555 1852.3 1552.7 1849.3 1550.6 1845.2 1545.6 1822.7 1531.6 1800.2 1518.5 1775 1505.1 1765.8 1502.7 1751.8 1499.8 1735.1 1492.8 1720 1488.1 1704.1 1486.7 1681.2 1485.2 1672.7 1482.3 1667.1 1478.2 Z" data-holc_grade="A"/>
<path d="M 815 178 805.8 184.1 800.1 187.1 796.2 199.3 794.9 204.7 785.3 196.2 780.7 189.6 773.5 186 764.4 186.8 732.5 194.4 742.3 200 752.5 203.3 757.4 205.4 759.1 207.8 760.2 216 739 220.7 731.9 223.5 724.8 228.6 718.8 233.5 710.4 240.3 697.5 246.4 690.4 249.6 681.8 249.8 672 248.9 660.5 243.6 653 237.3 637 224.6 626.6 218.8 614.2 226.5 612.8 221.1 608.2 216.9 601.3 214.9 588.9 214.6 581.4 215.5 584.5 227 581.1 238 579.2 234.8 568.1 225.8 560 220.1 551.7 213.8 548.5 208.5 545.1 202.6 544.5 192.2 531 172.9 519.8 162.4 516.3 158.8 513.9 157 497.2 152.6 493.6 153.1 488.2 153.1 484.9 151.8 484.3 149.6 489.9 148.1 493.3 143.8 493.7 140.1 486.5 139.5 487 136.7 488.2 132.2 492.8 127.9 489.1 128 482.6 127.3 475.2 125.9 470.1 124.5 466.2 121.6 462.8 118.4 459.9 114.7 459.2 112 460.5 108.2 461.9 106.3 468.4 103.3 477.1 99.6 472.4 90.8 473.5 90.2 477.2 88.9 481.4 88.5 487.1 89.2 490.5 91 492.3 93.9 495.4 96.5 501.8 98.5 507.8 98.4 512.1 97.2 512.7 94.4 512.6 90.9 512.3 83 514 78 515.2 72.1 513.4 66.3 508.9 61.4 503.4 56.3 499.6 50.5 507.5 44.9 513 42.3 527.4 36.7 538.9 33.5 547.4 30.4 557.2 24 563.6 18.2 568.6 15 580.2 10.9 591.1 7.9 600.2 5.4 605.4 2.7 606.1 1.1 614.4 1 614.8 6.5 613.5 10 612.9 13.1 620.9 18.8 643.6 33.1 649.7 38.2 655.8 43.6 663.9 49.4 670.8 54.1 680.9 61.9 687.6 67.2 702.4 74.2 713.4 81 724 88.3 745.2 106.7 757.2 113.4 772.7 128.8 784.9 138.9 798.4 151 804 159.3 815 178 Z M 547.6 174 554.8 176 565.2 174.3 572.7 172.9 577.9 171.6 577.2 167.4 574.6 164.9 571.4 162.7 566.8 162.4 556.8 163.8 548.7 163 544.1 160 543 166.1 544.3 170.6 547.6 174 Z M 719.1 215.1 718.2 211.8 713.8 209.6 707.8 210.7 708.6 216.8 719.1 215.1 Z" data-holc_grade="A"/>
<path d="M 1177.3 1544.7 1172.2 1554 1171.5 1561.1 1173.3 1568.9 1149 1575.4 1127.9 1566.6 1123.1 1566.3 1057.3 1544.4 1011.9 1575.4 991.6 1568.9 1024.3 1526.5 1025.1 1530 1034.4 1533.8 1049.1 1532 1052.8 1525.3 1059.5 1523 1070.2 1525 1085 1530.2 1099.8 1538.7 1110.1 1543.4 1130.8 1543.4 1142.3 1545.4 1161.8 1545.4 1177.3 1544.7 Z" data-holc_grade="A"/>
<path d="M 1667.1 1478.2 1653.9 1473.3 1647.3 1470.7 1641 1471 1635.5 1472.7 1633.6 1478.3 1632.5 1487 1629.2 1494.3 1627.7 1498.7 1624.4 1502.5 1616.9 1504.6 1612.9 1505.7 1597 1497.6 1608.9 1486.2 1609.2 1482.1 1608.5 1480.3 1607 1480 1601.8 1481.5 1594.1 1485 1584.5 1485.9 1573.7 1482.3 1561.5 1461.6 1557.4 1451.4 1554.8 1442.3 1561.5 1432.1 1559.6 1422.2 1560 1411.4 1574 1404.1 1584.4 1397.9 1594.7 1395.3 1607.3 1396.2 1625.8 1404.7 1636.1 1409.3 1641.7 1413.7 1642.4 1417.2 1636.5 1421.6 1627.2 1423.9 1626.5 1433 1628.7 1436.8 1645 1442 1658.3 1447.6 1673.4 1457.5 1677.1 1468 1670.5 1476.8 1667.1 1478.2 Z" data-holc_grade="A"/>
<path d="M 486.5 139.5 485.8 143.1 484.3 149.6 484.9 151.8 488.2 153.1 493.6 153.1 497.2 152.6 513.9 157 516.3 158.8 519.8 162.4 531 172.9 544.5 192.2 545.1 202.6 548.5 208.5 551.7 213.8 560 220.1 568.1 225.8 579.2 234.8 581.1 238 580.8 245.2 564.7 241.9 544.8 240.6 525.4 241 510.4 244.9 506.5 232.7 503.9 225.9 489.5 227.4 483.2 216 471 219.8 460.6 222.4 454.2 221.6 453.3 217.4 447.1 205.5 442.1 196.2 432.7 189.2 412.3 174.3 400.1 164.5 387.7 156.3 380 147 376.8 133.2 375.9 127.8 376.2 120.8 373.8 112.7 370.6 108 379.8 104.3 387.8 101.6 393.7 102.9 397.1 101.3 403.9 94.5 410 91.4 415.9 88.6 422.8 86.8 429.4 86.2 436.4 84 453.9 79.4 459.4 79.4 464.4 79.4 468.4 79.5 473.1 78.9 479.6 77.5 484 74.7 486.7 70.8 499.6 50.5 503.4 56.3 508.9 61.4 513.4 66.3 515.2 72.1 514 78 512.3 83 512.6 90.9 512.7 94.4 512.1 97.2 507.8 98.4 501.8 98.5 495.4 96.5 492.3 93.9 490.5 91 487.1 89.2 481.4 88.5 477.2 88.9 473.5 90.2 472.4 90.8 477.1 99.6 468.4 103.3 461.9 106.3 460.5 108.2 459.2 112 459.9 114.7 462.8 118.4 466.2 121.6 470.1 124.5 475.2 125.9 482.6 127.3 489.1 128 492.8 127.9 488.2 132.2 487 136.7 486.5 139.5 Z" data-holc_grade="A"/>
<path d="M 725.3 319.1 730.8 309.4 733.2 300.7 733.2 295.7 733.9 291.1 736.9 288.7 740.8 287 746.1 285.2 749.8 283.8 751.3 280.7 751.1 277.8 748.7 273.6 741.3 267.6 737.8 263.9 736.2 255.1 744.5 250.8 759.6 247 765.5 247.5 770.5 247.8 775.3 247.5 784.4 245 792.9 240.2 791.2 239.5 786.2 239.5 782.5 239 777.3 237.3 776.2 235.8 774.9 233.8 778.5 228.1 777.3 224.1 770.9 218.5 765.7 216 760.2 216 759.1 207.8 757.4 205.4 752.5 203.3 742.3 200 732.5 194.4 764.4 186.8 773.5 186 780.7 189.6 785.3 196.2 794.9 204.7 796.2 199.3 800.1 187.1 805.8 184.1 815 178 819.4 184.9 823.5 193.2 829 199.2 838.6 205.1 850.2 210 874.8 223.3 899.9 235.9 906.4 239.1 924.1 248.2 928.6 252 933.6 255.7 937.1 260.6 938.3 265.5 939.5 277.6 942.4 293.7 943.3 297.4 952.5 302.6 961.4 307.2 967.3 312.1 980 320.6 983.7 326.8 983.1 346.4 988.3 384 919.4 391.4 919.2 387.4 917 385.2 906.7 384.3 897.8 383.3 894.1 380.8 891.5 373.2 888.4 363.4 880.1 351.9 875.6 349.3 874.7 349.4 875.4 352.9 875.6 356.7 874.9 358 871.9 357.2 866.6 351 864.2 345.5 859.5 340.5 852.3 337.3 839.2 337.5 832.6 338.4 823.9 344.6 812.6 349.1 801.4 352.9 779.2 355 773.5 356.9 749.1 359.9 746.9 355.6 743.7 351.3 735.4 346.1 729.5 340.3 727.3 333.8 726 327 725.3 319.1 Z" data-holc_grade="A"/>
<path d="M 1051.4 843.5 974.7 853 972.4 826.8 968.3 818 989.5 793.6 1027.8 791 1022.3 747.3 972.4 749.1 968.7 719.2 978.9 717.7 972.9 674.4 1039.8 669.2 1157.3 664.7 1162.5 665.3 1175.3 661.1 1184.5 655 1200.7 640.6 1215.5 626.8 1224.1 618.8 1231.2 614.2 1236 606.6 1257.8 591.5 1268.7 591.5 1276.1 594.3 1279.9 599 1283.5 607.4 1291.2 627.5 1297.7 640.8 1302.1 647.3 1311.3 652.9 1317.2 655.5 1329 658.5 1337.3 658.3 1347.9 657.4 1351.5 656.7 1357.1 659.5 1364.2 662.5 1378.4 665.5 1383.1 670.7 1387.2 676 1389.6 685.1 1394.6 683 1401.1 683.5 1405.8 687.2 1418.6 701 1428.6 713.8 1436.6 725.5 1441.3 732.7 1445.8 737.4 1446.3 741.1 1444.3 748.1 1439.5 755.8 1424.9 771.1 1419.9 779.5 1394.9 786.8 1381.5 791.5 1339 801.7 1309.5 811.6 1297.5 812.3 1288.7 811.6 1285.2 808.5 1284.6 801.8 1284 798 1275.1 794.8 1258.6 792.7 1242.6 794.3 1229.6 796.4 1214.5 796.9 1207.1 793.8 1199.2 792.2 1189.7 794.5 1185 798.5 1163.1 804.1 1167.8 836.5 1064.1 841.9 1051.4 843.5 Z" data-holc_grade="A"/>
<path d="M 1114 1004.1 1101.7 1007.4 1093.8 1009.5 1084.3 1015.1 1074.8 1021.8 1067.4 1026.5 1055.9 1030 1045 1031.4 1039.4 1029.5 1036.1 1023.9 1035.3 1016.9 1041.2 1011.7 1040.5 995.3 1035 981 1015.7 978.1 1013.5 975.2 1023.9 963.2 1030.9 961.2 1044.6 963.5 1056 961.5 1064.9 956.2 1065.3 948.1 1061.6 940.2 1056 934.9 1053.1 930.8 1053.8 926.8 1058.2 918.9 1056.4 912.5 1071.2 913 1081.9 917.4 1087.8 923 1094.1 929.1 1101.5 930.8 1107 928.8 1104.1 919.5 1105.2 913.3 1111.4 906.9 1111.4 903.1 1088.5 885.6 1103.7 883.9 1117.4 885 1129.5 889.1 1144.7 899.3 1154.3 908.1 1155.4 915.1 1151.3 921.2 1139.5 921.5 1153.6 937.6 1161.7 937.8 1166.1 935.2 1170.2 946.6 1176.1 946.6 1180.5 949.2 1184.2 955.1 1184.2 962.4 1182 967.9 1163.9 978.7 1165.8 983.1 1114 1004.1 Z" data-holc_grade="A"/>
<path d="M 1463.8 1152.7 1485.4 1175.3 1497.9 1189.8 1514.9 1211.2 1530.8 1233.6 1544.1 1251.4 1558.9 1270.1 1571.1 1287 1583.3 1299.3 1584.4 1309.8 1579.6 1322.1 1555.6 1346 1544.8 1355.9 1543.7 1357.4 1521.4 1344.1 1471.7 1310.3 1433.6 1286.4 1414.4 1272 1380.3 1253.2 1323.8 1175.3 1334 1173.1 1343.7 1167.6 1360.8 1149.8 1368.2 1141.7 1376.5 1137.4 1389.4 1134.8 1411.1 1131.2 1422.7 1131.2 1439.3 1134.8 1451.8 1142.5 1461.5 1150.9 1463.8 1152.7 Z" data-holc_grade="A"/>
<path d="M 1323.8 1175.3 1380.3 1253.2 1331.7 1259.2 1333.2 1265.6 1339.8 1273.2 1349.4 1279 1351.7 1285.4 1348 1290.1 1339.8 1292.4 1334.7 1291.9 1342 1306.4 1341.3 1315.2 1307.3 1318.1 1313.2 1414.4 1262.3 1402.3 1216.1 1393.3 1208.4 1381 1202.1 1369 1201 1360 1192.8 1350.9 1179.9 1345.1 1181 1335.2 1174.7 1332.5 1121.5 1356.2 1137.8 1331.1 1148.5 1330.5 1149.2 1308.9 1145.9 1304.5 1143.3 1292.6 1134.5 1286.7 1122.3 1275.3 1118.2 1267.7 1111.9 1251.4 1104.2 1243.8 1127.8 1238.6 1138.2 1229.5 1155.9 1228.1 1167.3 1224 1211.7 1217.8 1230.2 1215.8 1233.1 1208.8 1226.8 1198.6 1209.5 1173.8 1208.4 1161.2 1213.9 1157.1 1232 1156.3 1250.5 1159.8 1271.5 1167.6 1287.1 1174.4 1305.2 1174.6 1323.8 1175.3 Z" data-holc_grade="A"/>
<path d="M 1543.7 1357.4 1532.3 1372 1516 1384.5 1507.9 1395 1501.6 1406.7 1498.3 1425.4 1492 1435.9 1485.4 1443.2 1481.3 1453.7 1480.6 1456 1437.7 1445.4 1365.3 1427.4 1313.2 1414.4 1307.3 1318.1 1341.3 1315.2 1342 1306.4 1334.7 1291.9 1339.8 1292.4 1348 1290.1 1351.7 1285.4 1349.4 1279 1339.8 1273.2 1333.2 1265.6 1331.7 1259.2 1380.3 1253.2 1414.4 1272 1433.6 1286.4 1471.7 1310.3 1521.4 1344.1 1543.7 1357.4 Z" data-holc_grade="A"/>
<path d="M 1216.1 1393.3 1262.3 1402.3 1313.2 1414.4 1365.3 1427.4 1345 1445.1 1338.4 1453 1323.2 1460.8 1311.4 1466.4 1297.7 1477.2 1281.1 1481 1263.4 1485.7 1251.5 1493.5 1236 1499.4 1213.5 1503.5 1201.3 1503.2 1195.7 1507.6 1182.8 1516.3 1167.3 1523.9 1145.9 1522.4 1134 1519.2 1119.6 1511.3 1108.2 1509.6 1098.9 1504.9 1083 1494.7 1063.8 1484.5 1049.1 1475.7 1045.7 1472.2 1046.3 1468.8 1059.9 1468.6 1074.6 1479.1 1090.6 1484.7 1109.8 1486.8 1125.2 1486.6 1146.8 1482.4 1160.9 1481.4 1171.6 1474 1190.5 1466.7 1209.7 1463 1228.9 1461.3 1234.8 1458.5 1222.1 1452 1215.9 1444.5 1212.1 1435.2 1212.1 1429.4 1217.7 1425.1 1219.5 1422.3 1217.1 1414.6 1211.2 1411.1 1207.4 1406 1205.6 1399.9 1207 1391.3 1216.1 1393.3 Z" data-holc_grade="A"/>
</g>
<g id="B">
<path d="M 351.4 227.2 356.4 113.8 363.2 110.1 370.6 108 373.8 112.7 376.2 120.8 375.9 127.8 376.8 133.2 380 147 387.7 156.3 400.1 164.5 412.3 174.3 432.7 189.2 442.1 196.2 447.1 205.5 453.3 217.4 454.2 221.6 398.4 225.1 351.4 227.2 Z" data-holc_grade="B"/>
<path d="M 701.9 971.2 749.7 964.5 740 1026.1 706.3 1026.8 697.4 971.8 701.9 971.2 Z" data-holc_grade="B"/>
<path d="M 1088.5 885.6 1111.4 903.1 1111.4 906.9 1105.2 913.3 1104.1 919.5 1107 928.8 1101.5 930.8 1094.1 929.1 1087.8 923 1081.9 917.4 1071.2 913 1056.4 912.5 1058.2 918.9 1053.8 926.8 1053.1 930.8 1056 934.9 1061.6 940.2 1065.3 948.1 1064.9 956.2 1056 961.5 1044.6 963.5 1030.9 961.2 1023.9 963.2 1013.5 975.2 1015.7 978.1 1035 981 1040.5 995.3 1041.2 1011.7 1035.3 1016.9 1036.1 1023.9 1039.4 1029.5 1035.7 1030.3 990.3 1056.3 981.8 1058.1 972.1 1060.1 946.3 1070.9 927.4 1073.5 914.5 1075.3 923.2 1061.8 973.6 983.1 979.9 969.7 1031.6 897.6 955.2 929.1 937.8 902.5 908.2 911.6 926 893.5 916.7 877.2 892.7 884.7 889.2 877.7 887.5 874.2 902.7 856 974.7 853 1051.4 843.5 1049.7 856.4 1066 857.9 1084.8 858.8 1089.3 876.3 1088.5 885.6 Z" data-holc_grade="B"/>
<path d="M 1169 882 1169.3 921.9 1174.1 922.8 1193.7 935.6 1198.9 940.9 1204.4 952 1219.9 961.6 1229.9 970.4 1240.3 972.7 1245.8 973.3 1257.3 975.3 1266.1 980.6 1272 979.4 1279.8 980.9 1289.4 984.4 1302.3 993.7 1321.2 999.2 1393.6 1073.9 1473.5 1146.8 1463.8 1152.7 1461.5 1150.9 1451.8 1142.5 1439.3 1134.8 1422.7 1131.2 1411.1 1131.2 1389.4 1134.8 1376.5 1137.4 1368.2 1141.7 1360.8 1149.8 1343.7 1167.6 1334 1173.1 1323.8 1175.3 1314.1 1160.7 1300.3 1147.9 1272.6 1131.5 1261.5 1122.6 1114 1004.1 1165.8 983.1 1163.9 978.7 1182 967.9 1184.2 962.4 1184.2 955.1 1180.5 949.2 1176.1 946.6 1170.2 946.6 1166.1 935.2 1161.7 937.8 1153.6 937.6 1139.5 921.5 1151.3 921.2 1155.4 915.1 1154.3 908.1 1144.7 899.3 1129.5 889.1 1117.4 885 1103.7 883.9 1088.5 885.6 1089.3 876.3 1084.8 858.8 1094.4 853.5 1109.2 851.8 1124.4 855 1130.7 857.9 1138.8 866.1 1151 874.8 1169 882 Z" data-holc_grade="B"/>
<path d="M 1321.2 999.2 1320.4 994.6 1326.4 986.4 1335.2 977.9 1341.9 973.6 1356.7 972.7 1367.7 973.3 1373.3 975.3 1375.9 980 1378.1 989.9 1376.2 997.5 1392.2 1008.6 1397.2 1019.5 1399.4 1026.1 1399.4 1037.5 1412.7 1050.2 1426 1058.5 1436 1073.8 1440.5 1071.6 1449.9 1073.8 1455.4 1089.6 1462.1 1096.6 1469.8 1106.2 1489.8 1122.8 1518.6 1105.7 1528.6 1079.9 1533 1065.5 1536.9 1045.8 1543.5 1028.7 1551.9 1022.6 1559.6 1008.6 1567.4 1002 1565.2 981.9 1565.7 968.3 1570.7 947.7 1580.1 929.8 1599 907.6 1611.9 887.5 1628.5 863.8 1645.2 852.8 1658.6 843 1672.4 853.6 1680.7 870.7 1684.9 885.3 1685.4 892.2 1696.4 897.3 1715.4 901 1733.8 906.5 1744 915.2 1749.1 921.8 1751.4 935.6 1753.2 950.2 1775.9 973.2 1776.8 979 1776.3 982 1735.7 982.7 1734.8 990.3 1737.1 997.3 1735.2 1001.3 1729.2 1004.9 1728.3 1007.9 1728.3 1010.8 1735.7 1014.8 1738.9 1022.4 1733.4 1028.6 1727.8 1036.3 1726.2 1046.1 1720.3 1052.9 1710.7 1055.5 1700.3 1053.4 1694 1053.4 1691.4 1055.2 1690 1057.8 1690 1063.9 1678.5 1067.7 1671.5 1072.1 1668.9 1075.3 1670 1080.6 1672.6 1087.6 1675.2 1093.7 1671.1 1103.9 1663 1109.5 1654.5 1112.4 1640.8 1114.1 1629.4 1113.8 1618.7 1118.2 1614.2 1124.4 1602 1131.1 1594.6 1132.8 1590.9 1139.5 1591.3 1144.5 1595 1146.8 1599.4 1150.3 1597.2 1155 1586.5 1160.2 1578.8 1165.5 1575.8 1176 1573.2 1180.7 1562.1 1183 1558.1 1190.3 1543.7 1190.3 1531.5 1185.9 1523.3 1174.3 1510.8 1167.5 1497.5 1159.4 1484.9 1148.3 1478.3 1145.7 1473.5 1146.8 1393.6 1073.9 1321.2 999.2 Z" data-holc_grade="B"/>
<path d="M 1323.8 1175.3 1305.2 1174.6 1287.1 1174.4 1271.5 1167.6 1250.5 1159.8 1232 1156.3 1213.9 1157.1 1208.4 1161.2 1173.3 1173.4 1149.3 1175.6 1112.8 1186.5 1083.7 1188 1069.4 1187.6 1046.8 1191.2 1054.1 1205.1 1046.8 1208 1053.2 1222.3 1059.7 1242.3 1040.8 1247.4 1039.8 1268.2 1024.6 1310.2 1015.3 1348.1 1002.5 1344.7 966.4 1313.6 941.6 1292.1 949.9 1284.5 945.3 1276.1 959.6 1262.2 962.1 1256.2 964.2 1250.9 965.1 1236.3 1000.2 1222.8 1008.5 1217.3 1022.4 1196.9 1030.7 1185.2 1034.9 1183 1039 1180.9 1069.5 1172.5 1108.3 1165.2 1147.1 1153.9 1173.4 1150.6 1182.7 1150.2 1187.3 1149.1 1189.1 1144.8 1191 1141.8 1206.7 1136.7 1261.5 1122.6 1272.6 1131.5 1300.3 1147.9 1314.1 1160.7 1323.8 1175.3 Z" data-holc_grade="B"/>
<path d="M 1216.1 1393.3 1207 1391.3 1097.7 1367.3 1050 1356.9 1015.3 1348.1 1024.6 1310.2 1039.8 1268.2 1040.8 1247.4 1059.7 1242.3 1053.2 1222.3 1046.8 1208 1054.1 1205.1 1046.8 1191.2 1069.4 1187.6 1083.7 1188 1112.8 1186.5 1149.3 1175.6 1173.3 1173.4 1208.4 1161.2 1209.5 1173.8 1226.8 1198.6 1233.1 1208.8 1230.2 1215.8 1211.7 1217.8 1167.3 1224 1155.9 1228.1 1138.2 1229.5 1127.8 1238.6 1126.2 1233.6 1119.4 1225.2 1113.6 1214.9 1112.2 1201.4 1102.4 1201.4 1088 1221.8 1101.7 1242 1104.2 1243.8 1111.9 1251.4 1118.2 1267.7 1122.3 1275.3 1134.5 1286.7 1143.3 1292.6 1145.9 1304.5 1149.2 1308.9 1148.5 1330.5 1137.8 1331.1 1121.5 1356.2 1174.7 1332.5 1181 1335.2 1179.9 1345.1 1192.8 1350.9 1201 1360 1202.1 1369 1208.4 1381 1216.1 1393.3 Z" data-holc_grade="B"/>
<path d="M 962.1 1256.2 959.6 1262.2 945.3 1276.1 949.9 1284.5 941.6 1292.1 966.4 1313.6 956.4 1315.6 953.7 1318.9 955.5 1322.2 973.1 1339.3 946.3 1363 901.5 1330.2 886.3 1306.4 882.1 1299.9 887.6 1298.4 907.5 1289.7 916.7 1282.8 920.4 1274 931 1270.7 939.8 1263.1 942.1 1253.9 942.1 1243.7 962.1 1256.2 Z" data-holc_grade="B"/>
<path d="M 886.3 1306.4 901.5 1330.2 946.3 1363 973.1 1339.3 955.5 1322.2 953.7 1318.9 956.4 1315.6 966.4 1313.6 1002.5 1344.7 1015.3 1348.1 1050 1356.9 1097.7 1367.3 1075.5 1382.3 1069.6 1387.2 1064.8 1393.1 1065.2 1397.5 1065.9 1402.4 1064 1407.4 1056.3 1413.2 1046.7 1419.1 1039.3 1419.9 1034.1 1416.4 1031.2 1412.3 1032.3 1406.8 1037.1 1396.9 1028.2 1398.9 1012.9 1398.9 1006.8 1398.9 992.4 1396.3 985.7 1400.7 982.8 1401.3 979.4 1410.6 976.8 1425.2 970.6 1431.6 953.9 1438.9 941.7 1415.9 939.5 1402.7 937.7 1392.2 933.6 1384.3 928.8 1377.9 922.5 1373.5 912.2 1368.3 892.2 1359.8 881.2 1352.2 871.9 1344 854.2 1331.8 841.6 1324.2 841.2 1338.8 837.9 1345.5 830.2 1351.3 818.7 1354.8 805 1361.9 785.1 1372.4 771 1361.9 775.5 1358.9 785.5 1351.6 791.4 1342.6 795.1 1333.5 815.8 1322.2 822 1313.7 832.7 1302.6 848.6 1299.7 855.7 1305.2 865.3 1307.6 886.3 1306.4 Z" data-holc_grade="B"/>
<path d="M 953.9 1438.9 952.4 1448.7 949.1 1459.2 940.2 1464.3 928 1467.8 923.2 1468.2 918.1 1473.4 912.3 1477.4 900.5 1482.2 882.8 1485.2 869.5 1485.9 851.8 1484.3 848.2 1482 848.7 1468.7 842 1458.2 833.1 1448.4 818.3 1440.1 807.9 1432.4 801.7 1428.8 794.6 1432.3 788.6 1425.1 783 1418.4 788.8 1417.7 798.8 1417.4 805.9 1414.6 819.2 1408.1 825.8 1406.9 832.7 1407.2 838.5 1407.7 883.9 1380.4 887.9 1383.6 890.1 1387.8 891.7 1393.4 897.2 1394.8 905 1393 911 1390.1 913 1383.2 914.9 1378.1 922.5 1373.5 928.8 1377.9 933.6 1384.3 937.7 1392.2 939.5 1402.7 941.7 1415.9 953.9 1438.9 Z" data-holc_grade="B"/>
<path d="M 1207 1391.3 1205.6 1399.9 1207.4 1406 1211.2 1411.1 1217.1 1414.6 1219.5 1422.3 1217.7 1425.1 1212.1 1429.4 1212.1 1435.2 1215.9 1444.5 1222.1 1452 1234.8 1458.5 1228.9 1461.3 1209.7 1463 1190.5 1466.7 1171.6 1474 1160.9 1481.4 1146.8 1482.4 1125.2 1486.6 1109.8 1486.8 1090.6 1484.7 1074.6 1479.1 1059.9 1468.6 1046.3 1468.8 1038.3 1462 1007.8 1470.2 986.5 1478.6 974.1 1472.3 985.4 1458.8 996.9 1440.3 1003.4 1424 1007.2 1409.7 1012.9 1398.9 1028.2 1398.9 1037.1 1396.9 1032.3 1406.8 1031.2 1412.3 1034.1 1416.4 1039.3 1419.9 1046.7 1419.1 1056.3 1413.2 1064 1407.4 1065.9 1402.4 1065.2 1397.5 1064.8 1393.1 1069.6 1387.2 1075.5 1382.3 1097.7 1367.3 1207 1391.3 Z" data-holc_grade="B"/>
<path d="M 356.4 113.8 351.4 227.2 234.4 234.6 219.2 188.5 216.9 178.6 208.6 150.9 201.2 131.6 196.6 113 210.4 112.2 223.1 112 235.2 113.6 245.3 116.2 258.3 118.5 273.9 120.8 286.3 124.1 296.1 127.4 303.8 130.4 311.2 131.1 320.3 132 328.9 131.1 335.4 129.5 343.1 125 347.8 120.4 356.4 113.8 Z M 306.4 149.3 280.9 147.5 279.1 174.6 304.6 176.1 306.4 149.3 Z" data-holc_grade="B"/>
<path d="M 1024.3 1526.5 991.6 1568.9 1011.9 1575.4 1057.3 1544.4 1123.1 1566.3 1115 1571.5 1111.4 1575.9 1113.5 1582.2 1109.4 1591.1 1109.4 1593.7 1111.1 1599 1111.1 1604.2 1107.3 1607.7 1044.6 1614.2 1018.6 1619.4 1007.1 1620.8 991.1 1625.4 982 1605.4 973.4 1606.8 979.3 1587.6 946.6 1574.6 957 1570.1 970.3 1560.7 993.9 1535.3 1023.3 1522.1 1024.3 1526.5 Z" data-holc_grade="B"/>
<path d="M 1437.7 1445.4 1414.6 1461.1 1385 1479.7 1364.7 1488.2 1354.7 1487.6 1348.1 1491.4 1330.3 1503.1 1318.1 1512.4 1310 1524.7 1301.9 1530 1291.5 1533.5 1283 1538.4 1274.5 1546.3 1267.9 1551.6 1255.7 1554.2 1241.6 1552.4 1226.9 1546.6 1222.8 1546.6 1219.1 1549.2 1211.3 1551.6 1203.6 1549.5 1186.6 1544.3 1177.3 1544.7 1161.8 1545.4 1142.3 1545.4 1130.8 1543.4 1110.1 1543.4 1099.8 1538.7 1085 1530.2 1070.2 1525 1059.5 1523 1052.8 1525.3 1049.1 1532 1034.4 1533.8 1025.1 1530 1024.3 1526.5 1023.3 1522.1 1035.1 1506.6 1029.9 1504.3 1006.3 1496.7 994.1 1491.1 1045.7 1472.2 1049.1 1475.7 1063.8 1484.5 1083 1494.7 1098.9 1504.9 1108.2 1509.6 1119.6 1511.3 1134 1519.2 1145.9 1522.4 1167.3 1523.9 1182.8 1516.3 1195.7 1507.6 1201.3 1503.2 1213.5 1503.5 1236 1499.4 1251.5 1493.5 1263.4 1485.7 1281.1 1481 1297.7 1477.2 1311.4 1466.4 1323.2 1460.8 1338.4 1453 1345 1445.1 1365.3 1427.4 1437.7 1445.4 Z" data-holc_grade="B"/>
<path d="M 1573.7 1482.3 1584.5 1485.9 1594.1 1485 1601.8 1481.5 1607 1480 1608.5 1480.3 1609.2 1482.1 1608.9 1486.2 1597 1497.6 1612.9 1505.7 1616.9 1504.6 1650.5 1517.6 1612.3 1535.1 1591.1 1547.5 1575.4 1538.6 1567.7 1538.6 1558.8 1540.2 1558.8 1538.1 1558 1532.8 1555.3 1528.1 1552 1522.9 1547.3 1518.7 1535.8 1533.7 1525.7 1543.7 1512.1 1550 1499.7 1551.9 1494.2 1551.1 1490.6 1550.5 1466.3 1544.2 1462.8 1528.8 1465.4 1513.8 1470.5 1501.5 1475.8 1495.2 1482 1489.8 1497.1 1482.5 1501.5 1480.9 1500.9 1471.3 1506.7 1466.9 1521.9 1473.3 1535.6 1470.9 1538.9 1471.2 1547.1 1476.2 1557.4 1482.6 1565.9 1484.3 1573.7 1482.3 Z" data-holc_grade="B"/>
<path d="M 1466.3 1544.2 1462.4 1548 1461 1550.2 1460.3 1560.6 1456.6 1572.5 1449.8 1584.2 1449.1 1588.3 1451.9 1592.2 1454.4 1594.8 1444.5 1617.3 1436.9 1638.3 1451.1 1641.3 1438.1 1671.8 1412.2 1734.4 1393 1729.8 1396.3 1725 1401.8 1705.3 1404 1689.5 1400.2 1683 1379.1 1678.6 1385.2 1650.1 1325.3 1640.5 1312 1674.2 1288.8 1670.3 1300.4 1636.1 1229.5 1620.8 1225 1637.8 1187.3 1631.3 1163.5 1648.4 1146.9 1639.6 1135.2 1645.7 1114.7 1624.7 1114.7 1622.1 1128.6 1616 1137.5 1616 1149.1 1617.3 1159.6 1619.9 1167.9 1614.2 1179.6 1620.3 1200.6 1605 1209.5 1610.7 1248.3 1579.2 1246.1 1572.2 1241.7 1567.3 1233.3 1564.7 1219.5 1563.4 1209.5 1565.6 1202.9 1570.4 1188.4 1581.4 1173.3 1568.9 1171.5 1561.1 1172.2 1554 1177.3 1544.7 1186.6 1544.3 1203.6 1549.5 1211.3 1551.6 1219.1 1549.2 1222.8 1546.6 1226.9 1546.6 1241.6 1552.4 1255.7 1554.2 1267.9 1551.6 1274.5 1546.3 1283 1538.4 1291.5 1533.5 1301.9 1530 1310 1524.7 1318.1 1512.4 1330.3 1503.1 1348.1 1491.4 1354.7 1487.6 1364.7 1488.2 1385 1479.7 1414.6 1461.1 1437.7 1445.4 1480.6 1456 1506.7 1466.9 1500.9 1471.3 1501.5 1480.9 1497.1 1482.5 1482 1489.8 1475.8 1495.2 1470.5 1501.5 1465.4 1513.8 1462.8 1528.8 1466.3 1544.2 Z M 1358.7 1530.9 1348 1520 1309.5 1539.3 1319.4 1551.2 1358.7 1530.9 Z" data-holc_grade="B"/>
<path d="M 1379.1 1678.6 1374.9 1680.7 1378.9 1693.5 1378.9 1701.7 1374.7 1713.3 1368.9 1723.1 1352.7 1722.1 1347.6 1727.5 1329.7 1716.1 1323 1707.3 1317.9 1692.8 1312 1674.2 1325.3 1640.5 1385.2 1650.1 1379.1 1678.6 Z" data-holc_grade="B"/>
<path d="M 1412.2 1734.4 1369.3 1835.1 1348.9 1827.2 1358.9 1806.9 1361.9 1797.5 1356.9 1780.3 1362.2 1775.8 1369.6 1756.9 1371.1 1739.6 1377.6 1733.9 1382.9 1733.8 1393 1729.8 1412.2 1734.4 Z" data-holc_grade="B"/>
<path d="M 1513.5 1628.9 1508 1626.9 1490.6 1624.1 1473.2 1619.9 1464.9 1615.6 1469.6 1603.7 1477.6 1588.2 1496.8 1591.4 1514.5 1565.2 1527.8 1571 1513.1 1588.5 1510.5 1595.2 1519 1598.5 1532.3 1607.8 1562.2 1579.8 1595.1 1602 1629.1 1613.6 1602.1 1640.2 1579.6 1624.1 1554.4 1650.1 1518.2 1624.4 1513.5 1628.9 Z" data-holc_grade="B"/>
<path d="M 1622.9 1696.5 1571.4 1746.6 1517.1 1725.8 1519.3 1707.5 1510.4 1701.9 1523.3 1659.5 1570 1670 1576.5 1674.2 1580.3 1679.6 1604 1690.1 1622.9 1696.5 Z" data-holc_grade="B"/>
<path d="M 1714.9 1671 1685.5 1721.8 1677.8 1728.5 1641.7 1696.2 1631.3 1687.2 1689.9 1629.8 1704.2 1641 1699.4 1656.2 1714.9 1671 Z" data-holc_grade="B"/>
<path d="M 1885.6 1632.6 1878.6 1634 1862.7 1634 1852 1637.5 1840.5 1641 1829.4 1645.9 1826.1 1652.7 1816.1 1639.5 1807.6 1629.9 1800.6 1622.9 1795.4 1621.7 1790.6 1622.6 1779.2 1632.5 1779.2 1636 1775.1 1642.7 1763.7 1654.7 1763.7 1657.3 1763.3 1667 1759.2 1674.6 1752.2 1680.4 1745.9 1671.9 1745.2 1660.2 1742.2 1652.9 1729.7 1648 1714.9 1671 1699.4 1656.2 1704.2 1641 1689.9 1629.8 1710.4 1609.8 1710.4 1607.2 1707.4 1605.5 1698.9 1604.6 1693.7 1601.4 1694.1 1596.1 1701.9 1590.9 1720.3 1578.3 1725.1 1572.2 1725.1 1567.5 1722.9 1563.1 1717.4 1558.7 1695.4 1542.8 1698.6 1538.5 1705.7 1536.5 1714.2 1534.7 1727.8 1535.3 1733.4 1537.9 1740 1540.8 1756.3 1543.8 1768.8 1546.7 1778.8 1545.8 1784.7 1546.1 1789.5 1548.1 1800.6 1552.5 1813.9 1554.3 1821.7 1555.4 1826.1 1557.8 1829.8 1567.4 1840.9 1572.4 1858.6 1579.4 1869 1586.1 1875.3 1591.6 1877.5 1597.2 1879.7 1602.7 1884.5 1608 1891.5 1611.2 1900.4 1613.2 1906.3 1616.7 1909.2 1621.4 1908.9 1626.1 1903.7 1628.7 1893.4 1631.1 1885.6 1632.6 Z" data-holc_grade="B"/>
<path d="M 386.6 368.4 375.5 370.8 366.3 371.6 356.3 370.5 346.3 366.4 337.1 366.7 329.3 365.8 314.4 360.5 321.8 339 309.3 335.7 303.8 322.2 283.4 326.3 273.3 292.7 232.2 302.2 216 304.7 210 283.6 262.2 271.2 253.9 246.8 364.9 239.1 376.4 237.3 390.3 238 423.5 236.2 436.9 274.1 425.4 298.6 426.7 324.4 425.8 338.3 420.7 346.3 415.7 352.1 412.4 366.4 386.6 368.4 Z" data-holc_grade="B"/>
<path d="M 1826.1 1652.7 1829.4 1645.9 1840.5 1641 1852 1637.5 1862.7 1634 1878.6 1634 1885.6 1632.6 1893.7 1636.9 1900.7 1643.6 1905.2 1652.9 1905.6 1658.8 1904.1 1664.6 1901.9 1665.8 1914.4 1667.3 1925.5 1669 1922.2 1675.7 1914.4 1685.4 1908.5 1690.9 1896.7 1697.3 1885.2 1702.6 1865.6 1708.4 1846.8 1710.5 1836.1 1708.7 1827.6 1703.2 1823.5 1695.3 1821.7 1686.2 1815 1676.6 1822.4 1670.2 1826.1 1652.7 Z" data-holc_grade="B"/>
<path d="M 1849.5 1905.5 1855.9 1908.5 1867.2 1912.7 1884.1 1916.9 1883.2 1923.4 1884.7 1935.1 1889.6 1945.8 1893.4 1951.9 1901.6 1955.5 1912 1957.6 1912.8 1966.4 1914.4 1972.1 1915.5 1977.1 1914.9 1979.5 1911.9 1982.5 1906.9 1986 1897.3 1991.5 1896.4 1992.8 1897.9 1996.3 1905.6 2004.7 1913.1 2014 1919 2020 1924.6 2025 1934.6 2028.6 1931.6 2032.9 1922.5 2043.9 1905.4 2058.1 1886.4 2072.7 1874.8 2070.8 1867.3 2070.1 1857.6 2071.1 1841.6 2071.1 1825.7 2070.2 1805.5 2068.8 1780.8 2067.9 1767.9 2067.8 1754.6 2068.5 1736.6 2067 1723 2065.4 1699.7 2063.1 1688.3 2061.1 1685.6 2035.1 1681.9 2018.3 1670.8 2000.1 1693.9 1987.3 1679.1 1971.6 1679.1 1968.7 1692.5 1959.9 1677.7 1948.6 1687.4 1944.6 1701.3 1937.3 1713.7 1928.2 1723.4 1919.8 1746.1 1939.5 1768.7 1927.1 1780.7 1916.9 1783.9 1908.5 1782.1 1903.4 1777 1896.1 1766.9 1888 1776.1 1880 1785.8 1876 1795.5 1874.5 1805.6 1874.6 1811.1 1876.2 1815.1 1878.5 1819.1 1883.7 1824.2 1889 1828.2 1891.8 1838.2 1895.1 1843.7 1898.1 1848.4 1901.8 1849.5 1905.5 Z" data-holc_grade="B"/>
<path d="M 1886.4 2072.7 1905.4 2058.1 1922.5 2043.9 1931.6 2032.9 1934.6 2028.6 1941.1 2019.2 1952.2 2008.9 1959.5 2001.5 1971.5 1993.8 1983.7 1988.9 1986.1 1985.6 1991.2 1978.9 1996.8 1971.2 2001.4 1964.4 2006.1 1961 2020.5 1975.4 2029.8 1969.5 2054.1 1991.2 2042.9 1996.5 2049.8 2002.3 2038.4 2009.4 2047.9 2019.2 2052.1 2025.5 2062.3 2035 2084.1 2054.3 2103.1 2073 2093.1 2078.5 2081.2 2067.9 2076.1 2063 2022.9 2039.2 1956.4 2083.9 1948.9 2078.3 1941.3 2084.4 1931.6 2084 1922.5 2081.2 1906.8 2077.4 1895.9 2075.5 1886.4 2072.7 Z" data-holc_grade="B"/>
<path d="M 2184.6 2148.9 2136.1 2116.5 2132.7 2114.3 2138.6 2108.2 2133.3 2104.2 2116.7 2097.5 2106.1 2090.9 2097.8 2084.1 2093.1 2078.5 2103.1 2073 2115.6 2061.4 2116.4 2066.1 2116.9 2071.5 2118.1 2075 2122.2 2078.4 2129.8 2081.7 2135.9 2083.7 2143.4 2086 2150.3 2088.5 2159.9 2094.5 2167.8 2100.8 2181.9 2088.2 2189.2 2075.8 2191.4 2077.1 2193.8 2079.9 2196.9 2084.3 2199.1 2088.1 2201.9 2094.5 2206 2096.8 2212.9 2098.7 2219.7 2100.8 2225.4 2104.9 2226.9 2109.4 2226.3 2112.6 2222.8 2116.8 2218.3 2119.1 2214.5 2121.3 2207.1 2124.4 2199.4 2131.9 2184.6 2148.9 Z" data-holc_grade="B"/>
<path d="M 1971.2 2120.7 1979.7 2121.4 1996.1 2123.5 2008.4 2128.3 2016.7 2135.3 2028.5 2144.6 2025.3 2147.7 1976.9 2175.5 1875.5 2241.8 1855.5 2222.5 1863.7 2208.4 1838.3 2180.8 1937.6 2117.6 1971.2 2120.7 Z" data-holc_grade="B"/>
<path d="M 2067.6 2275.1 2033.4 2291.1 2025.7 2288.1 2004.4 2268.4 1978.1 2240.9 1989.3 2233.1 1997.1 2227.8 2032.4 2265.2 2048.8 2254.1 2064.7 2251 2084.5 2269 2067.6 2275.1 Z" data-holc_grade="B"/>
<path d="M 2238.4 2273.6 2226 2269.6 2216.8 2263.8 2212.4 2255.8 2208.3 2248.8 2164.4 2268.6 2138.6 2280.2 2114.2 2250.1 2135.8 2238.4 2129.4 2231.4 2151.1 2219.8 2178.6 2201.6 2212.3 2187.3 2234.3 2215.9 2236.9 2222.2 2230.7 2225.5 2228.4 2228.3 2236.6 2243 2242.5 2242.8 2245.5 2243.7 2251.1 2250.2 2258.2 2262.4 2262.9 2273.4 2253.5 2274.1 2238.4 2273.6 Z" data-holc_grade="B"/>
<path d="M 2353.2 2177.6 2361.3 2184.5 2363.8 2189.7 2365.1 2196.6 2364.2 2205.7 2362 2213.9 2357.3 2221.3 2351.6 2228.1 2345.8 2231.6 2335.4 2237.4 2326.7 2240.4 2321.4 2242 2314.3 2241.8 2309.9 2240.4 2302.6 2240.4 2291.9 2242.7 2280 2246.2 2267.5 2250.9 2261.1 2243.5 2258.7 2236.4 2253.8 2226.9 2268.9 2219 2267.3 2215.7 2263.1 2207.3 2254.6 2193.7 2262.8 2191.3 2268.3 2190.2 2277.5 2190.8 2287 2191.5 2292.1 2189.2 2294.5 2187.2 2298.6 2185.8 2305.6 2186.5 2310.6 2185.3 2313.1 2183.2 2316.9 2179.4 2318.9 2177.2 2322.4 2175 2327.6 2174.5 2332.1 2174.8 2336.3 2175.8 2341.3 2177 2348.1 2177.7 2353.2 2177.6 Z" data-holc_grade="B"/>
<path d="M 2432.4 2395.8 2416.5 2400.2 2388.8 2379.7 2384.4 2373 2384 2366.3 2368.1 2365.7 2368.1 2359.9 2365.6 2355.8 2386.6 2335.6 2381.3 2329.9 2393.2 2310.2 2399.2 2300.3 2408.5 2297.8 2417.1 2291.9 2421.5 2290.5 2426.6 2290.5 2430 2291.3 2432.6 2292.9 2435.1 2294.1 2440 2293.7 2444.2 2291.5 2450.8 2289.2 2454.9 2289 2458.2 2289.9 2459.5 2290.4 2465.4 2287.9 2470.2 2284.3 2475.9 2279.5 2479.5 2275.3 2483 2275.1 2494.3 2280.8 2495.4 2265.6 2498.9 2265.3 2504.2 2266.3 2509.8 2264.2 2515.3 2260.7 2521.7 2259.5 2525.7 2259.7 2527.5 2261.4 2530.6 2263.2 2537.5 2263 2542.6 2260.5 2548.6 2258.8 2552.8 2258.8 2554.1 2255.6 2553.9 2250.2 2552.6 2244.9 2549.2 2235.8 2544.6 2225.5 2544.4 2219.5 2551.5 2215.5 2546.6 2204.6 2542.8 2196.6 2542.8 2191.3 2552.4 2184.9 2558.9 2180.6 2571.7 2172.6 2584 2166.3 2591.8 2162.5 2604 2156.7 2614.5 2150.7 2626.2 2143.7 2643.9 2131.3 2658.9 2127.8 2673.8 2124.1 2690.6 2122.2 2706.3 2120.3 2723.7 2117.1 2741.6 2114.3 2758.1 2111.6 2761.9 2111 2766 2113.2 2772.7 2117.1 2777.8 2121.3 2782.8 2126.3 2787.6 2132 2795.6 2140.5 2802.8 2148.9 2809.8 2158.6 2815.7 2165.4 2821.1 2173.8 2820.3 2178 2816.1 2182.2 2807.9 2186.3 2804.1 2187.6 2798.7 2187.6 2788.2 2188.8 2780.2 2190.9 2764.7 2193.2 2754.4 2193 2724.6 2193.2 2713.4 2193.6 2711.7 2195.1 2708.2 2196.7 2701.7 2197.7 2687.9 2200.1 2682.1 2202.1 2676.6 2202.1 2673.1 2204.1 2669.4 2209.1 2667.4 2215.8 2665.3 2222 2665.7 2227.9 2662.4 2228.8 2660.5 2231.6 2652.8 2231.7 2636 2234.4 2631.9 2235.4 2611.9 2237.4 2602.7 2238.8 2594.9 2240.9 2588.7 2245 2584.8 2249.1 2580.9 2255.4 2577.4 2260.9 2574.6 2267 2573.4 2270.6 2573.7 2273.5 2577.5 2281.9 2579 2284.2 2587.3 2283.9 2596.9 2283.2 2614.4 2281.4 2620 2279.3 2626.6 2273.5 2635.3 2267.7 2646.4 2261.1 2648.6 2258.6 2657.9 2258.1 2673.9 2257.1 2685.8 2256.5 2690.9 2254.1 2703.6 2252.3 2706.4 2251.3 2716.6 2250.7 2720 2249.2 2723.3 2249.2 2737.3 2240.6 2741.5 2236.5 2764.5 2232.2 2768.1 2233.7 2768.1 2235.3 2769.8 2238.8 2776.5 2248.8 2783.1 2257.1 2787.4 2263.5 2790 2269.5 2791.6 2273.2 2792.5 2277.7 2792.9 2282.3 2791.1 2287.7 2787.8 2291.9 2784 2294.7 2777.4 2301.9 2771.4 2310 2766.3 2318.4 2762.3 2324.2 2757.2 2329.6 2755.2 2332.1 2748.1 2334.5 2735.2 2336.3 2718.1 2339.4 2702.6 2342.1 2692 2344.3 2670.9 2348.1 2630.3 2354.7 2610.2 2357.8 2593.2 2361 2588.4 2361.2 2582.1 2358.7 2574.6 2356.5 2566 2352.4 2558 2348.8 2553.6 2343 2551.6 2345.4 2545.4 2348.9 2533.6 2354.4 2524.1 2359.4 2516.1 2363.7 2510.4 2364.9 2507.5 2364.9 2504.6 2367 2502.6 2371.5 2499.3 2375.9 2496.6 2378.4 2490.8 2380 2482.2 2380 2474.4 2379.2 2470.8 2378.3 2464.8 2375.5 2458 2373.1 2451.6 2372.5 2445.1 2374.9 2440.5 2377.9 2438.3 2379.4 2437.9 2382.7 2436.8 2386 2435.2 2389.4 2432.4 2395.8 Z" data-holc_grade="B"/>
<path d="M 2373.9 2606.7 2315.9 2623.1 2280.7 2573.5 2322.2 2562.4 2336.6 2551.9 2371.2 2598.5 2373.9 2606.7 Z" data-holc_grade="B"/>
<path d="M 580.8 245.2 588 246.7 595.2 255 594.1 260.2 580.8 269 577.5 279.5 578.6 286.1 587.4 293.1 600.7 301.4 615.7 308.8 617.1 319 620.7 345.6 624.7 375.3 609.9 376.6 572 380 568.8 374.9 536.4 377.1 536.4 384.4 498.1 389.9 482.4 398.6 490.3 417.6 490.7 433.3 453.8 440.2 452.9 448.9 418.4 453 357.4 457.7 350.6 443.7 388.9 429.6 412.4 366.4 415.7 352.1 420.7 346.3 425.8 338.3 426.7 324.4 425.4 298.6 436.9 274.1 423.5 236.2 455 235.3 506.5 232.7 510.4 244.9 525.4 241 544.8 240.6 564.7 241.9 580.8 245.2 Z" data-holc_grade="B"/>
<path d="M 2469.1 2682.3 2423.3 2691.2 2436.7 2746.3 2448.7 2745.2 2457.1 2748.2 2465.8 2751.8 2474.6 2751.1 2485.2 2747.4 2497.9 2748.7 2501 2753.7 2491 2760.4 2482.6 2764.7 2466.7 2764.9 2444.9 2764.9 2422.8 2767.7 2410.6 2769.1 2401.3 2768.3 2387.5 2766.8 2375.5 2773.5 2369.6 2772.3 2276.6 2638.1 2315.9 2623.1 2373.9 2606.7 2406.3 2596.6 2469.1 2682.3 Z" data-holc_grade="B"/>
<path d="M 2216.2 2680.1 2238.9 2668.2 2263.4 2660 2285.6 2700 2319.9 2742.5 2356.9 2789 2352.7 2795.6 2346.5 2797.9 2335.6 2797.9 2323.7 2793.5 2312.8 2791.4 2300.7 2788.3 2291.8 2789 2248.7 2729.6 2216.2 2680.1 Z" data-holc_grade="B"/>
<path d="M 2661.7 2759.9 2555.9 2786.8 2555.1 2785.1 2550.8 2774.9 2537.8 2757.1 2527.8 2727.9 2526.6 2716.2 2524.8 2712.5 2520.4 2711.8 2515.7 2711.3 2508.9 2713.4 2505.3 2716.9 2508.3 2727.9 2505.3 2736.1 2497.9 2748.7 2485.2 2747.4 2474.6 2751.1 2465.8 2751.8 2457.1 2748.2 2448.7 2745.2 2436.7 2746.3 2423.3 2691.2 2469.1 2682.3 2514.9 2674.1 2524.9 2672.2 2652.3 2669.2 2651.6 2673.2 2648.1 2678.6 2647.8 2687 2649 2692.8 2652.2 2701 2655.8 2715.8 2655.5 2734.5 2658.4 2748.3 2661.7 2759.9 Z" data-holc_grade="B"/>
<path d="M 717.5 2127.3 732.8 2127.4 765.1 2139.8 739.3 2176.4 788.1 2198.4 786.9 2203.1 776.3 2209.2 765.4 2210.6 751.5 2207.5 746.7 2201 740.8 2195.1 730.8 2189.8 712.2 2182.8 695.6 2176.9 679.9 2168 671.1 2161.7 648 2153.9 649.5 2126.4 717.5 2127.3 Z" data-holc_grade="B"/>
<path d="M 1016.8 2333.8 1052.5 2350.8 1083.5 2373.4 1093.2 2365.7 1127.2 2389.1 1106.8 2407.3 1094.1 2399.9 1083.5 2397.9 1073 2397.6 1061.2 2395.4 1052.5 2389.3 1043.6 2386.1 1030.9 2389.6 1020.5 2387.5 1013.1 2382.1 1001.6 2367.6 974.7 2350.5 961.4 2337.9 976.1 2332.4 985 2330.9 1010.9 2342.3 1016.8 2333.8 Z" data-holc_grade="B"/>
<path d="M 1284.7 2233.1 1246.6 2267.8 1206.7 2241.8 1184.9 2259.9 1170.1 2250 1156.1 2260.2 1139.5 2248.3 1196.4 2179 1242.5 2202.1 1251.4 2213.8 1284.7 2233.1 Z" data-holc_grade="B"/>
<path d="M 1228.3 2285.7 1246.6 2267.8 1284.7 2233.1 1314.6 2205 1319.4 2216 1323.7 2222.9 1329.9 2235.8 1332.7 2251.4 1330.3 2265.4 1321.7 2289.3 1310.4 2306.3 1287.7 2325.2 1228.3 2285.7 Z" data-holc_grade="B"/>
<path d="M 681.8 249.8 685.7 281.6 690.7 322.9 725.3 319.1 726 327 727.3 333.8 729.5 340.3 735.4 346.1 743.7 351.3 746.9 355.6 749.1 359.9 773.5 356.9 779.2 355 801.4 352.9 812.6 349.1 823.9 344.6 832.6 338.4 839.2 337.5 852.3 337.3 859.5 340.5 864.2 345.5 866.6 351 871.9 357.2 874.9 358 875.6 356.7 875.4 352.9 874.7 349.4 875.6 349.3 880.1 351.9 888.4 363.4 891.5 373.2 894.1 380.8 897.8 383.3 906.7 384.3 917 385.2 919.2 387.4 919.4 391.4 881.1 397.1 832.9 406.7 765.2 413.3 700.9 421.6 703.7 435.1 707 470.1 695.4 469.2 673.2 472.3 666.6 425.1 681 422.9 677.1 368.2 642.8 372.8 624.7 375.3 620.7 345.6 639.4 344.1 636.7 316.6 617.1 319 615.7 308.8 600.7 301.4 587.4 293.1 578.6 286.1 577.5 279.5 580.8 269 594.1 260.2 595.2 255 588 246.7 580.8 245.2 581.1 238 584.5 227 581.4 215.5 588.9 214.6 601.3 214.9 608.2 216.9 612.8 221.1 614.2 226.5 626.6 218.8 637 224.6 653 237.3 660.5 243.6 672 248.9 681.8 249.8 Z" data-holc_grade="B"/>
<path d="M 350.6 443.7 343.4 428.8 367.4 414.2 386.6 368.4 412.4 366.4 388.9 429.6 350.6 443.7 Z" data-holc_grade="B"/>
<path d="M 947.4 620.1 936 620.9 930.1 595.6 926.4 569.3 937.7 552.9 944.9 551.2 954.8 550.8 973.1 544.6 982.5 541.6 1002.5 528.9 996.1 464 1009 460.4 1022.7 456.3 1036.7 452.3 1059.3 448.8 1072.6 449.9 1088.8 452.8 1105.1 457.5 1116.9 462.5 1126.5 469.2 1138 477.9 1144.6 486.7 1149.8 492.2 1154.6 500.1 1154.2 505 1150.2 512 1137.6 515.3 1125.1 517.6 1113.6 519.6 1104.4 523.7 1089.6 529.5 1079.6 532.2 1064.5 534.8 1057.4 538 1052.6 541.5 1048.9 545.9 1048.9 549.7 1053 553.5 1065.2 554.9 1076.7 557.3 1102.1 557.8 1122.5 558.7 1145.4 558.4 1163.5 557 1186.8 555.5 1211.1 552.6 1232.9 548.2 1257 541.8 1271.7 542.7 1284.7 546.8 1291.1 553 1291.4 560 1283.3 565.5 1265.9 577.5 1257.8 591.5 1236 606.6 1207.9 622.7 1193.5 631.7 1187.2 640.8 1178.7 649.5 1168.8 656.8 1162.5 665.3 1157.3 664.7 1154.4 604.6 947.4 620.1 Z" data-holc_grade="B"/>
<path d="M 972.9 674.4 978.9 717.7 968.7 719.2 972.4 749.1 1022.3 747.3 1027.8 791 989.5 793.6 968.3 818 972.4 826.8 974.7 853 902.7 856 886.5 856.7 877.7 812.2 813.8 819.8 803.4 772 826.3 769.3 821.1 748.6 823.3 745.7 818.2 692 813 690.3 807.3 635.5 867.4 628.1 874.1 683.2 875.7 718.2 894.8 717.4 891.4 681.2 949.5 676.6 972.9 674.4 Z" data-holc_grade="B"/>
<path d="M 902.7 856 887.5 874.2 889.2 877.7 864.1 906.3 880.4 920.3 898.1 913.7 899 930.3 890 933.5 877.4 938 867.1 942.2 856.1 949.2 848.2 958.1 833.4 951.8 821.8 872.4 817.7 862.4 809.7 862.2 796 822.2 813.8 819.8 877.7 812.2 886.5 856.7 902.7 856 Z" data-holc_grade="B"/>
</g>
<g id="C">
<path d="M 314.4 360.5 303.3 363.1 289.4 364.2 276.5 364.9 262.2 364.2 245.6 361.2 237.7 359.8 220.6 358.3 211.8 358 206.8 358 179.2 269.4 174.7 253.6 206.9 251.5 235.1 249.6 253.9 246.8 262.2 271.2 210 283.6 216 304.7 232.2 302.2 273.3 292.7 283.4 326.3 303.8 322.2 309.3 335.7 321.8 339 314.4 360.5 Z M 122.9 288.2 96 210 88.1 210.3 66.1 144.1 99.2 138.9 120.5 134.3 171.6 286.8 122.9 288.2 Z M 196.6 113 201.2 131.6 208.6 150.9 216.9 178.6 219.2 188.5 234.4 234.6 170.1 237.6 149.5 174.2 141.3 153.1 134.2 122.9 147.2 125.1 159.2 124 173.5 119.2 185.1 114.9 196.6 113 Z" data-holc_grade="C"/>
<path d="M 890 933.5 893.1 984.9 898.7 1031.6 904.6 1074.2 874.6 1129.4 842.9 1131.7 795.6 1131.1 795.9 1148 805.5 1148.6 804.4 1164.4 725 1168.2 737.2 1062.3 743.3 1057.1 767.7 1036.4 798 1003.4 833.4 951.8 848.2 958.1 856.1 949.2 867.1 942.2 877.4 938 890 933.5 Z M 923.2 1061.8 920.1 1040 911.8 958.7 908.2 911.6 937.8 902.5 955.2 929.1 1031.6 897.6 979.9 969.7 973.6 983.1 923.2 1061.8 Z" data-holc_grade="C"/>
<path d="M 751.5 1343.5 705 1336 703.9 1341.3 677.8 1336 725 1168.2 804.4 1164.4 849.1 1162.7 788.7 1269 777.6 1264.2 747.1 1257.2 742.7 1277.4 749.9 1282.6 753.2 1286.1 753.2 1290.9 760.4 1294.9 782.6 1297.5 751.5 1343.5 Z M 700.4 1166.2 654.5 1331.2 611.3 1324.6 654.4 1158.4 700.4 1166.2 Z" data-holc_grade="C"/>
<path d="M 751.5 1343.5 738.3 1360.1 727.4 1360.5 685.7 1429.2 657.9 1424 677.8 1336 703.9 1341.3 705 1336 751.5 1343.5 Z M 654.5 1331.2 626.6 1452.1 580.8 1443.9 611.3 1324.6 654.5 1331.2 Z" data-holc_grade="C"/>
<path d="M 962.1 1256.2 942.1 1243.7 942.1 1253.9 939.8 1263.1 931 1270.7 920.4 1274 916.7 1282.8 907.5 1289.7 887.6 1298.4 882.1 1299.9 886.3 1306.4 865.3 1307.6 855.7 1305.2 848.6 1299.7 832.7 1302.6 822 1313.7 815.8 1322.2 795.1 1333.5 791.4 1342.6 785.5 1351.6 775.5 1358.9 771 1361.9 753.3 1359.9 786 1311 827.6 1288 830.8 1289.1 943.5 1207 953.7 1200.1 1009.1 1158.9 1034.9 1183 1030.7 1185.2 1022.4 1196.9 1008.5 1217.3 1000.2 1222.8 965.1 1236.3 964.2 1250.9 962.1 1256.2 Z M 904.2 1111.3 919.5 1114.8 930.2 1113.4 942.6 1111.6 976.3 1124.2 1000.8 1145.9 816.4 1284.3 804.6 1275.9 904.2 1111.3 Z" data-holc_grade="C"/>
<path d="M 922.5 1373.5 914.9 1378.1 913 1383.2 911 1390.1 905 1393 897.2 1394.8 891.7 1393.4 890.1 1387.8 887.9 1383.6 883.9 1380.4 838.5 1407.7 832.7 1407.2 825.8 1406.9 819.2 1408.1 805.9 1414.6 798.8 1417.4 788.8 1417.7 783 1418.4 788.6 1425.1 759.7 1457.4 744.1 1435.2 740.9 1426.8 734.4 1422.8 719.2 1419.2 739.5 1380.9 753.3 1359.9 771 1361.9 785.1 1372.4 805 1361.9 818.7 1354.8 830.2 1351.3 837.9 1345.5 841.2 1338.8 841.6 1324.2 854.2 1331.8 871.9 1344 881.2 1352.2 892.2 1359.8 912.2 1368.3 922.5 1373.5 Z" data-holc_grade="C"/>
<path d="M 890 1656.6 872 1667.6 852.4 1648.6 858.7 1644.5 861.3 1638.4 860.6 1632.9 856.5 1629.9 865.4 1605.7 871.6 1590.2 879.4 1586.4 900.1 1580.9 911.2 1576.5 918.6 1566.6 926.7 1549.4 938.9 1523.4 945.5 1515.5 959.2 1508.5 976.9 1501.2 980.3 1496.2 982.9 1488.3 994.1 1491.1 1006.3 1496.7 1029.9 1504.3 1035.1 1506.6 1023.3 1522.1 993.9 1535.3 970.3 1560.7 957 1570.1 946.6 1574.6 933.7 1580.3 913 1584.4 894.9 1609.2 883.8 1616.5 890.8 1628.2 901.6 1629.3 897.9 1651.8 890 1656.6 Z M 788.6 1425.1 794.6 1432.3 801.7 1428.8 807.9 1432.4 818.3 1440.1 833.1 1448.4 842 1458.2 848.7 1468.7 848.2 1482 851.8 1484.3 869.5 1485.9 882.8 1485.2 900.5 1482.2 912.3 1477.4 918.1 1473.4 923.2 1468.2 928 1467.8 937.4 1477.3 942.2 1486.9 945.2 1493.6 943.7 1500 937.8 1506.4 925.6 1513.2 912.6 1516.7 893.4 1516.7 889 1515.2 888.6 1525.1 883.1 1530.4 874.6 1532.1 862.4 1533 853.9 1533.9 837.6 1535.9 833.6 1532.1 828.4 1524.5 828 1516.4 827.3 1511.1 813.3 1509.7 791.5 1502.7 772.6 1494.2 759.7 1483.7 753 1481.9 761.5 1475.5 763 1468.5 759.7 1457.4 788.6 1425.1 Z" data-holc_grade="C"/>
<path d="M 1580.1 929.8 1570.7 947.7 1565.7 968.3 1565.2 981.9 1567.4 1002 1559.6 1008.6 1551.9 1022.6 1543.5 1028.7 1536.9 1045.8 1533 1065.5 1528.6 1079.9 1518.6 1105.7 1489.8 1122.8 1469.8 1106.2 1462.1 1096.6 1455.4 1089.6 1449.9 1073.8 1440.5 1071.6 1436 1073.8 1426 1058.5 1412.7 1050.2 1399.4 1037.5 1399.4 1026.1 1397.2 1019.5 1392.2 1008.6 1376.2 997.5 1378.1 989.9 1375.9 980 1373.3 975.3 1367.7 973.3 1356.7 972.7 1341.9 973.6 1335.2 977.9 1326.4 986.4 1320.4 994.6 1321.2 999.2 1302.3 993.7 1289.4 984.4 1279.8 980.9 1272 979.4 1266.1 980.6 1257.3 975.3 1245.8 973.3 1240.3 972.7 1229.9 970.4 1219.9 961.6 1204.4 952 1198.9 940.9 1193.7 935.6 1174.1 922.8 1169.3 921.9 1169 882 1171.5 871.4 1157.8 850.2 1173.3 848.8 1199.4 852.8 1211.6 860.7 1228.2 868.1 1240.9 877.7 1285.3 900.5 1334.6 926.7 1365.6 939.4 1395.6 952.1 1429.4 960.4 1436 965.3 1442.1 961.3 1457.6 956.9 1472.6 949.1 1487 935.1 1496.4 917.5 1508.1 902.7 1515.3 884.3 1520.3 876.8 1525.8 876.8 1528.6 876.8 1541.9 875.5 1551.3 877.7 1565.2 894.4 1564 907.9 1580.1 929.8 Z" data-holc_grade="C"/>
<path d="M 1114.7 1624.7 1094 1623.8 1087.2 1627.1 1081.3 1625.9 1050.3 1625.2 1026.9 1627.6 1005.3 1633.4 990.6 1641.8 981.1 1633.4 914.6 1678.9 890 1656.6 897.9 1651.8 901.6 1629.3 890.8 1628.2 883.8 1616.5 894.9 1609.2 913 1584.4 933.7 1580.3 946.6 1574.6 979.3 1587.6 973.4 1606.8 982 1605.4 991.1 1625.4 1007.1 1620.8 1018.6 1619.4 1044.6 1614.2 1107.3 1607.7 1167.6 1598.8 1188.4 1581.4 1202.9 1570.4 1209.5 1565.6 1219.5 1563.4 1233.3 1564.7 1241.7 1567.3 1246.1 1572.2 1248.3 1579.2 1209.5 1610.7 1200.6 1605 1179.6 1620.3 1167.9 1614.2 1159.6 1619.9 1149.1 1617.3 1137.5 1616 1128.6 1616 1114.7 1622.1 1114.7 1624.7 Z" data-holc_grade="C"/>
<path d="M 990.6 1641.8 1085.3 1724.3 1000.2 1787.1 988.4 1777.3 986.3 1776.6 973.9 1785 882 1703 830.5 1660 852.4 1648.6 872 1667.6 890 1656.6 914.6 1678.9 981.1 1633.4 990.6 1641.8 Z" data-holc_grade="C"/>
<path d="M 1312 1674.2 1317.9 1692.8 1323 1707.3 1329.7 1716.1 1347.6 1727.5 1370.7 1734 1377.6 1733.9 1371.1 1739.6 1369.6 1756.9 1362.2 1775.8 1356.9 1780.3 1361.9 1797.5 1358.9 1806.9 1348.9 1827.2 1369.3 1835.1 1349.1 1889.6 1237.4 1883.3 1206.7 1881 1256.6 1830.8 1235.5 1818.2 1264 1794.6 1304.2 1750.5 1276.9 1745.5 1269.9 1746.7 1245.5 1733.2 1238.5 1780.8 1210.8 1764.2 1196.7 1777 1163.1 1757.5 1153.5 1769.2 1122.5 1751.1 1085.1 1789.6 1069.6 1780.3 1046 1803 1023.4 1789.6 1010.9 1795.7 1007.1 1792.7 1000.2 1787.1 1085.3 1724.3 990.6 1641.8 1005.3 1633.4 1026.9 1627.6 1050.3 1625.2 1081.3 1625.9 1087.2 1627.1 1094 1623.8 1114.7 1624.7 1135.2 1645.7 1146.9 1639.6 1163.5 1648.4 1187.3 1631.3 1225 1637.8 1229.5 1620.8 1300.4 1636.1 1288.8 1670.3 1312 1674.2 Z M 1232.9 1687.7 1251 1666.4 1192.7 1655.7 1194.1 1667.4 1190.9 1680.7 1194.1 1700 1232.9 1687.7 Z" data-holc_grade="C"/>
<path d="M 122.9 288.2 42.4 291.3 20.3 213.3 88.1 210.3 96 210 122.9 288.2 Z" data-holc_grade="C"/>
<path d="M 1356.4 2015.2 1335.1 2005.3 1320.1 1998.6 1326.3 1989.8 1338.3 1962 1352.4 1928.7 1364.5 1902.9 1383.4 1909.4 1396.8 1916.7 1407.9 1925.9 1412.1 1934.3 1406.8 1938.8 1400.8 1951.5 1393.7 1961.8 1384 1974.1 1379.9 1979.3 1356.4 2015.2 Z M 1173.2 1909.7 1187.7 1893.2 1189.4 1891.1 1207.7 1893.6 1219 1895 1321.4 1901 1342.9 1902.9 1343.8 1904.7 1334.5 1926.2 1312.5 1974.1 1305.4 1990.4 1285.3 1979.3 1268.4 1969.3 1240.7 1952.2 1220.8 1939.5 1195.7 1925 1184 1917.3 1173.2 1909.7 Z" data-holc_grade="C"/>
<path d="M 1695.4 1542.8 1717.4 1558.7 1722.9 1563.1 1725.1 1567.5 1725.1 1572.2 1720.3 1578.3 1701.9 1590.9 1694.1 1596.1 1693.7 1601.4 1698.9 1604.6 1707.4 1605.5 1710.4 1607.2 1710.4 1609.8 1689.9 1629.8 1631.3 1687.2 1587.7 1669.1 1579.6 1669.1 1570 1670 1523.3 1659.5 1489 1651.9 1513.5 1628.9 1518.2 1624.4 1554.4 1650.1 1579.6 1624.1 1602.1 1640.2 1629.1 1613.6 1595.1 1602 1562.2 1579.8 1532.3 1607.8 1519 1598.5 1510.5 1595.2 1513.1 1588.5 1527.8 1571 1514.5 1565.2 1496.8 1591.4 1477.6 1588.2 1494.2 1551.1 1499.7 1551.9 1512.1 1550 1525.7 1543.7 1535.8 1533.7 1547.3 1518.7 1552 1522.9 1555.3 1528.1 1558 1532.8 1558.8 1538.1 1558.8 1540.2 1567.7 1538.6 1575.4 1538.6 1591.1 1547.5 1612.3 1535.1 1650.5 1517.6 1659.4 1522 1666.8 1522.8 1675.6 1524 1682.3 1533.4 1695.4 1542.8 Z" data-holc_grade="C"/>
<path d="M 1523.3 1659.5 1510.4 1701.9 1519.3 1707.5 1517.1 1725.8 1571.4 1746.6 1622.9 1696.5 1626 1693.4 1670.8 1734.6 1687.8 1749.9 1658.7 1766 1649.9 1758 1577.4 1799.2 1568.6 1795.6 1541.4 1809.4 1527.7 1816.3 1521.1 1819.6 1501.7 1827.7 1491.5 1836.4 1509.1 1856.5 1442.1 1892.6 1456.4 1901 1420.8 1927.7 1412.1 1934.3 1407.9 1925.9 1396.8 1916.7 1383.4 1909.4 1364.5 1902.9 1379.7 1858 1407 1785.7 1425 1740.8 1426.2 1737.7 1462.4 1646.7 1489 1651.9 1523.3 1659.5 Z" data-holc_grade="C"/>
<path d="M 1586.5 1867.5 1604.7 1883.4 1616.7 1893.8 1645.5 1877.6 1654.4 1882.4 1708.1 1847.4 1730.8 1870.1 1777.2 1849.7 1789.5 1857.7 1795.5 1867.2 1795.5 1874.5 1785.8 1876 1776.1 1880 1766.9 1888 1777 1896.1 1782.1 1903.4 1783.9 1908.5 1780.7 1916.9 1768.7 1927.1 1746.1 1939.5 1723.4 1919.8 1713.7 1928.2 1701.3 1937.3 1687.4 1944.6 1677.7 1948.6 1692.5 1959.9 1679.1 1968.7 1679.1 1971.6 1693.9 1987.3 1670.8 2000.1 1681.9 2018.3 1685.6 2035.1 1688.3 2061.1 1598.7 2061.4 1578 2050.8 1560.4 2043.9 1538.7 2033.7 1530.4 2027.8 1517 2027.5 1510.1 2021.6 1493.4 2005.9 1476.8 1991.7 1461.6 1977.8 1447.2 1965 1438.5 1955.9 1432.5 1949.3 1420.8 1927.7 1456.4 1901 1442.1 1892.6 1509.1 1856.5 1491.5 1836.4 1501.7 1827.7 1521.1 1819.6 1527.7 1816.3 1586.5 1867.5 Z M 1546.5 1905 1518.4 1876.6 1492 1895 1476.9 1903.1 1505.1 1933.1 1546.5 1905 Z" data-holc_grade="C"/>
<path d="M 1687.8 1749.9 1778.1 1845.7 1777.2 1849.7 1730.8 1870.1 1708.1 1847.4 1654.4 1882.4 1645.5 1877.6 1616.7 1893.8 1604.7 1883.4 1653.6 1854.8 1666.9 1846.2 1681.1 1842.9 1678.5 1825.6 1666.9 1826.3 1657.2 1830.1 1647.7 1835 1586.5 1867.5 1527.7 1816.3 1541.4 1809.4 1568.6 1795.6 1577.4 1799.2 1649.9 1758 1658.7 1766 1687.8 1749.9 Z M 1809 1842.1 1803.4 1838.2 1800.8 1839.3 1685.5 1721.8 1714.9 1671 1729.7 1648 1742.2 1652.9 1745.2 1660.2 1745.9 1671.9 1752.2 1680.4 1810.1 1738.3 1795.1 1747.1 1856.1 1807.5 1818.4 1828.1 1824.5 1836 1809 1842.1 Z" data-holc_grade="C"/>
<path d="M 1826.1 1652.7 1822.4 1670.2 1815 1676.6 1821.7 1686.2 1823.5 1695.3 1827.6 1703.2 1836.1 1708.7 1846.8 1710.5 1865.6 1708.4 1885.2 1702.6 1896.7 1697.3 1908.5 1690.9 1914.4 1685.4 1922.2 1675.7 1925.5 1669 1930.3 1672.6 1941.9 1685.3 1948.6 1691 1961.9 1689.7 1971.8 1686.6 1990.1 1687.1 2003.4 1687.5 2016.2 1685.3 2028.4 1686.6 2045.6 1691.9 2061.6 1696.7 2075.5 1705.5 2083.8 1712 2089.9 1722.6 2092.7 1728.7 2103.8 1733.5 2112.6 1735.7 2116.5 1741.8 2117.6 1750.1 2114.3 1757.6 2106.5 1766.8 2102.6 1775.1 2101.5 1781.7 2092.7 1790.9 2084.4 1798.8 2081 1802.3 2081.9 1805.3 2088.1 1807.2 2097 1808.3 2102.5 1808.8 2108.3 1807.2 2113.2 1806.7 2118.7 1807 2124.5 1808.6 2129.4 1812.1 2140.2 1818.4 2152.7 1824.7 2159.5 1826.6 2164.2 1828 2175 1832.8 2179.3 1836.8 2183.2 1840.1 2187.9 1843.5 2198.8 1847.1 2206.3 1851.7 2212.5 1857.3 2218.7 1862.9 2228.9 1869.4 2241.1 1876.4 2249.1 1881.7 2255.5 1889 2259.5 1893.9 2261.1 1898.8 2261.3 1903.9 2259.3 1907.9 2253.5 1913.7 2244.2 1921.4 2237.3 1926 2228.7 1930.5 2217.8 1934.4 2205 1936.7 2193 1939.3 2169.9 1945.4 2156.2 1949.3 2147.8 1945.4 2145.1 1944.9 2141.8 1946 2139.8 1948.9 2137.4 1952.6 2133.4 1960 2121.6 1959.3 2109.6 1959.8 2092.4 1961.1 2089.6 1945.1 2086.4 1935.2 2082.6 1930.3 2079.2 1927 2074.3 1924 2071.1 1921.9 2063.9 1918.4 2059.3 1917.3 2050.8 1917.8 2044.5 1920.8 2039.9 1922.1 2034.5 1921.2 2031.4 1919.9 2028.4 1916.4 2026.2 1913 2024.2 1908.9 2021.6 1905.1 2015.1 1901.8 2009 1899.4 2004.6 1898 1994.8 1898 1987.1 1899.2 1977.8 1900.9 1968.4 1900.2 1955.5 1898.9 1948.1 1898 1939.4 1896.4 1921.8 1895 1904.9 1894.7 1906.5 1905.3 1908.7 1919.2 1911.3 1952.3 1912 1957.6 1901.6 1955.5 1893.4 1951.9 1889.6 1945.8 1884.7 1935.1 1883.2 1923.4 1884.1 1916.9 1867.2 1912.7 1855.9 1908.5 1849.5 1905.5 1856.8 1897.8 1863.9 1893.1 1865.2 1891.6 1864.5 1887.8 1861.7 1883.9 1857.5 1880.5 1852.2 1879 1844.8 1878 1839.1 1876.3 1827 1874.7 1818.5 1873.8 1813.9 1872.1 1808.7 1869.8 1803.7 1867.1 1801.2 1863.1 1800.1 1861.3 1813.1 1852.2 1809 1842.1 1824.5 1836 1818.4 1828.1 1856.1 1807.5 1795.1 1747.1 1810.1 1738.3 1752.2 1680.4 1759.2 1674.6 1763.3 1667 1763.7 1657.3 1763.7 1654.7 1775.1 1642.7 1779.2 1636 1779.2 1632.5 1790.6 1622.6 1795.4 1621.7 1800.6 1622.9 1807.6 1629.9 1816.1 1639.5 1826.1 1652.7 Z" data-holc_grade="C"/>
<path d="M 1971.2 2120.7 1937.6 2117.6 1838.3 2180.8 1863.7 2208.4 1855.5 2222.5 1875.5 2241.8 1863.2 2249.8 1788.9 2218.7 1786.3 2214.7 1789.3 2212.8 1820.2 2193.8 1800.9 2175.7 1810.9 2168.9 1784.3 2144.9 1764.1 2157 1715.8 2116.2 1656.1 2156.6 1629.5 2146.3 1610.9 2137.4 1597.8 2128.6 1576.3 2117.6 1483.7 2073.9 1496.1 2065 1472.6 2054.7 1496.1 2027.3 1506.5 2037 1496.1 2044.5 1507.8 2052.4 1511.6 2049.8 1527.8 2057.6 1558.6 2071.5 1570.3 2077.4 1576.8 2081.3 1600.3 2081.3 1636.6 2082 1681.6 2083.4 1691.4 2085.1 1703.8 2086.5 1720.9 2086.1 1742.9 2086.5 1754.8 2086.9 1766.9 2088.8 1777.7 2088.9 1791.4 2089.9 1801 2091.3 1813.4 2095.7 1819.8 2098.6 1825.7 2101.6 1837.1 2105.2 1842.6 2107.8 1845.5 2111.3 1850.2 2108.5 1858.5 2101.5 1865.9 2096.6 1872.7 2096.4 1886.3 2097.3 1904.3 2101.5 1924.7 2105.5 1943.6 2107.8 1971.1 2110.4 1971.2 2120.7 Z" data-holc_grade="C"/>
<path d="M 2061.4 1963.6 2068.3 1967.3 2084 1971.3 2094.2 1974.2 2107.5 1976.8 2122.9 1980.6 2127.2 1984.8 2128.3 1988.2 2128.3 1991.9 2126.6 1995.5 2119.8 1998 2111.3 1997.7 2100.4 1997 2114 2014.6 2122.5 2017.8 2134 2024.3 2146.2 2029.8 2153 2035.1 2158.4 2041.1 2164.5 2041.2 2169.1 2039.6 2173 2036.7 2176.1 2039.2 2178.9 2042.1 2179.1 2045.2 2178.5 2048.8 2186.5 2047.6 2190.5 2049.2 2194 2052.7 2199.9 2055.8 2203.6 2056 2204.9 2063.7 2211.4 2072.5 2219.3 2078.7 2242.9 2094.1 2256.5 2104.2 2267.1 2110.3 2290.9 2120.3 2311.3 2129.7 2324.3 2136.2 2342.2 2150.2 2346.1 2154.7 2333 2155.2 2330.5 2156.4 2331.2 2158.7 2334.1 2161 2337.5 2164.1 2344.4 2165.7 2349.8 2166.7 2354.5 2169.4 2356.2 2172.2 2356.3 2174.5 2353.2 2177.6 2348.1 2177.7 2341.3 2177 2336.3 2175.8 2332.1 2174.8 2327.6 2174.5 2322.4 2175 2318.9 2177.2 2316.9 2179.4 2313.1 2183.2 2310.6 2185.3 2305.6 2186.5 2298.6 2185.8 2294.5 2187.2 2292.1 2189.2 2287 2191.5 2277.5 2190.8 2268.3 2190.2 2262.8 2191.3 2254.6 2193.7 2249.7 2194.8 2235.4 2176.2 2228.8 2169.8 2223.8 2171.9 2206.9 2162.1 2184.6 2148.9 2199.4 2131.9 2207.1 2124.4 2214.5 2121.3 2218.3 2119.1 2222.8 2116.8 2226.3 2112.6 2226.9 2109.4 2225.4 2104.9 2219.7 2100.8 2212.9 2098.7 2206 2096.8 2201.9 2094.5 2199.1 2088.1 2196.9 2084.3 2193.8 2079.9 2191.4 2077.1 2189.2 2075.8 2181.9 2088.2 2167.8 2100.8 2159.9 2094.5 2150.3 2088.5 2143.4 2086 2135.9 2083.7 2129.8 2081.7 2122.2 2078.4 2118.1 2075 2116.9 2071.5 2116.4 2066.1 2115.6 2061.4 2130.3 2052.9 2139.5 2049.3 2126.2 2035.3 2120.9 2029.4 2116.3 2025.6 2111.8 2023 2108.8 2022.3 2105.1 2022.1 2101.6 2021.9 2097.4 2021.1 2095.6 2019.2 2092.9 2015.5 2091.4 2012.5 2088.2 2010.4 2083.6 2009.6 2079.3 2009.6 2075.6 2011.3 2071.9 2013.8 2067.3 2017.1 2049.8 2002.3 2042.9 1996.5 2054.1 1991.2 2029.8 1969.5 2020.5 1975.4 2006.1 1961 2009.1 1957.3 2011.5 1955.2 2017 1955.8 2022.4 1954.5 2024.1 1954.7 2029.8 1958.5 2034.1 1960.3 2037.1 1960.8 2040.8 1960.4 2046 1958.4 2061.4 1963.6 Z" data-holc_grade="C"/>
<path d="M 2064 2120.2 2035.9 2140 2004.8 2117.4 2008.1 2116 2061.3 2117.6 2064 2120.2 Z M 2093.1 2078.5 2097.8 2084.1 2106.1 2090.9 2116.7 2097.5 2133.3 2104.2 2138.6 2108.2 2132.7 2114.3 2136.1 2116.5 2129.4 2124.4 2129.4 2126.4 2137 2131.4 2152.8 2141.8 2173.6 2155.3 2187.2 2164.6 2199.9 2172.4 2204.6 2176.1 2212.3 2187.3 2178.6 2201.6 2151.1 2219.8 2129.4 2231.4 2135.8 2238.4 2114.2 2250.1 2138.6 2280.2 2084.8 2304.8 2069.1 2284.3 2067.6 2275.1 2084.5 2269 2064.7 2251 2048.8 2254.1 2032.4 2265.2 1997.1 2227.8 2016.1 2213.9 1976.9 2175.5 2025.3 2147.7 2037.9 2156.9 2050.3 2166.7 2058.2 2173.9 2062.7 2178.3 2073.4 2170.7 2083 2163.2 2090 2158.8 2101.3 2152.3 2116 2142.9 2106.8 2132 2096.8 2121 2095.4 2115.9 2095.9 2108.9 2071.9 2098 2064.5 2094.6 2052.5 2080.3 2048.6 2076.5 2036.1 2066.1 2022.8 2054.3 2020.9 2053.6 2003 2066.7 1984.3 2081.3 1970.3 2091.8 1956.4 2083.9 2022.9 2039.2 2076.1 2063 2081.2 2067.9 2093.1 2078.5 Z" data-holc_grade="C"/>
<path d="M 2550.8 2557.3 2535 2560.7 2501 2569.6 2489.7 2572.8 2451.5 2583.4 2406.3 2596.6 2377.7 2556.4 2348.8 2514.5 2313.3 2472.9 2283.1 2429.2 2236.1 2364.5 2164.4 2268.6 2208.3 2248.8 2212.4 2255.8 2216.8 2263.8 2226 2269.6 2238.4 2273.6 2211 2283.2 2239.9 2318.8 2280 2304.6 2292.6 2327.4 2306.4 2367 2314.8 2384.9 2335.2 2375.3 2324.5 2341.3 2311.7 2336.4 2300.6 2308.5 2277.6 2264.8 2287.2 2266.1 2301.6 2273.7 2315.7 2282.1 2329.3 2290.6 2343.4 2299.7 2361.9 2313.1 2374.8 2323 2381.3 2329.9 2386.6 2335.6 2365.6 2355.8 2368.1 2359.9 2368.1 2365.7 2384 2366.3 2384.4 2373 2388.8 2379.7 2416.5 2400.2 2432.4 2395.8 2445 2410.4 2447.2 2413.3 2454.6 2430.5 2478.2 2466.8 2493 2486.6 2512.6 2485.2 2523.7 2481.1 2530 2475.2 2534 2462.4 2541.4 2444.9 2548.1 2435.8 2554.4 2430.5 2562.1 2429.1 2587.6 2424.4 2623.1 2415.6 2637.5 2410.1 2663.4 2395.8 2688.1 2382.1 2704 2373.6 2715.8 2364.5 2722.5 2359.9 2733.9 2356.3 2746.9 2351.7 2757.2 2347.6 2771.2 2337.9 2787.1 2332.1 2800.1 2324.5 2807.1 2320.4 2824.5 2314.6 2837 2307.9 2871.7 2298.5 2896.1 2293 2905.7 2290 2911.4 2286.6 2914.3 2287.5 2921.4 2296.8 2925.6 2299.9 2930.3 2301.3 2936.5 2302.2 2944.5 2302.4 2948.5 2303.2 2953.1 2305.7 2960.4 2313.1 2966 2318 2972.2 2323.4 2978.2 2327.1 2986.1 2332.5 2990.1 2335.7 2994.3 2341.3 2996.6 2347.2 2998.6 2353.4 2999 2359.3 2998.3 2365.3 2993.5 2370.9 2987.5 2375.5 2981.5 2378.4 2980.2 2379.7 2978.8 2382.3 2970.6 2387.5 2965.5 2392.1 2953.3 2397.9 2946.3 2401.6 2942.7 2404 2937.8 2407 2931.2 2411.8 2922 2418 2915.3 2423.4 2911.9 2427.2 2910.3 2430.2 2908.2 2434 2905.9 2441.5 2902.7 2451.9 2896.4 2454.7 2890.4 2456.3 2887.7 2457.1 2884.8 2458.4 2880.3 2460.8 2872.9 2464.4 2861.6 2469.8 2856.7 2473.3 2849.8 2476 2845.1 2477.9 2839.9 2479.5 2828.2 2484.7 2818.4 2487.7 2812.1 2490 2802.8 2491.6 2792.3 2492.8 2780 2494.6 2773 2496.3 2764.5 2497.5 2758.5 2498.9 2751.3 2499.6 2744.2 2500.7 2732.9 2501.2 2717.1 2503.8 2692.3 2508.1 2671.3 2512.7 2645 2520.9 2632.8 2524.7 2622.6 2526.7 2619.2 2526.3 2613.1 2523.4 2605 2520.6 2596.4 2516.8 2593.5 2512.5 2591.1 2508.8 2589.2 2505.6 2587.6 2503.8 2585 2503.3 2581.3 2503.4 2574.8 2504.6 2567.6 2507 2561.1 2508.3 2556.2 2507.6 2550.8 2506.4 2546.6 2508.2 2531.2 2517.8 2519.1 2525.5 2492 2509.1 2447.5 2538.4 2451.3 2542.7 2456.4 2546 2463.7 2550.2 2470 2553.6 2484.9 2550.6 2494.4 2547.8 2504.3 2544.4 2511 2540.9 2527.7 2529.2 2534.4 2535.6 2539.9 2543.2 2546.1 2550.8 2550.8 2557.3 Z" data-holc_grade="C"/>
<path d="M 314.4 360.5 329.3 365.8 337.1 366.7 346.3 366.4 356.3 370.5 366.3 371.6 375.5 370.8 386.6 368.4 367.4 414.2 343.4 428.8 350.6 443.7 357.4 457.7 418.4 453 420.9 472.4 426.2 514 263.6 535.5 248.4 492.4 228.1 427.3 206.8 358 211.8 358 220.6 358.3 237.7 359.8 245.6 361.2 262.2 364.2 276.5 364.9 289.4 364.2 303.3 363.1 314.4 360.5 Z M 344.3 382.3 309.1 373.7 296.2 404.8 332.7 412.5 344.3 382.3 Z" data-holc_grade="C"/>
<path d="M 1989.3 2233.1 1978.1 2240.9 2004.4 2268.4 2025.7 2288.1 2033.4 2291.1 2067.6 2275.1 2069.1 2284.3 2084.8 2304.8 2138.6 2280.2 2164.4 2268.6 2236.1 2364.5 2283.1 2429.2 2313.3 2472.9 2348.8 2514.5 2377.7 2556.4 2406.3 2596.6 2373.9 2606.7 2371.2 2598.5 2336.6 2551.9 2322.2 2562.4 2280.7 2573.5 2278.5 2574.1 2265.9 2581.2 2256.7 2553.2 2233.4 2558.7 2221.2 2527.7 2209.2 2509 2186.7 2480.6 2160.2 2440.1 2176.5 2432.1 2168.9 2422.7 2182.6 2415.7 2170.9 2398.5 2219 2377.3 2189.8 2338.4 2101.9 2377 2043.5 2299.6 2013.7 2291.7 1935.4 2258.5 1905.5 2249.3 1904.5 2246 1963.1 2207.6 1989.3 2233.1 Z" data-holc_grade="C"/>
<path d="M 2489.7 2572.8 2501 2569.6 2535 2560.7 2550.8 2557.3 2566.3 2575.2 2577 2587.2 2584.9 2598.4 2595.6 2615 2579 2607.3 2563.4 2599.8 2550.4 2595.3 2531.2 2595.1 2519.3 2597.2 2495.7 2604.7 2488.9 2583.2 2489.7 2572.8 Z" data-holc_grade="C"/>
<path d="M 2595.6 2615 2607.4 2616.1 2617.8 2619.2 2634.9 2624.6 2642 2628.8 2647.3 2635.8 2648.8 2643.3 2648.5 2655.4 2649.7 2658 2651.8 2662.9 2652.3 2669.2 2524.9 2672.2 2514.9 2674.1 2469.1 2682.3 2406.3 2596.6 2451.5 2583.4 2489.7 2572.8 2488.9 2583.2 2495.7 2604.7 2519.3 2597.2 2531.2 2595.1 2550.4 2595.3 2563.4 2599.8 2579 2607.3 2595.6 2615 Z" data-holc_grade="C"/>
<path d="M 2521.9 2908.5 2459 2932.6 2378.7 2804 2521.9 2908.5 Z M 2555.1 2785.1 2555.9 2786.8 2661.7 2759.9 2655 2763.8 2650.8 2770.2 2649.5 2775 2648.4 2781.4 2649.3 2792.4 2651.1 2799.4 2653.7 2803.9 2657.8 2809.8 2666.7 2816.6 2680 2824 2693.1 2831 2679.8 2835.4 2618.6 2850.5 2579.7 2862.1 2557.3 2870.3 2580 2919.2 2564.7 2928 2389.1 2800.3 2368.9 2785.6 2372.9 2782.8 2375.1 2779.8 2375.5 2773.5 2387.5 2766.8 2401.3 2768.3 2410.6 2769.1 2422.8 2767.7 2444.9 2764.9 2466.7 2764.9 2482.6 2764.7 2491 2760.4 2501 2753.7 2509.5 2755.3 2527.5 2791.8 2555.1 2785.1 Z" data-holc_grade="C"/>
<path d="M 393.9 2073.4 391.8 2092.3 391 2099.2 381.8 2097.7 369.3 2094.1 350.9 2090.8 338.4 2086.4 324.1 2079.1 317.1 2075.8 300.5 2067.1 283 2054.3 274.2 2045.2 259.4 2035.4 312.3 2037.5 312.3 2045.3 320 2051.8 328.1 2057 338.9 2059.1 340 2071 393.9 2073.4 Z" data-holc_grade="C"/>
<path d="M 505.1 2051.2 395 2048.8 393.9 2073.4 340 2071 338.9 2059.1 328.1 2057 320 2051.8 312.3 2045.3 312.3 2037.5 259.4 2035.4 258.3 1968.5 363.2 1971.2 363.6 1993.1 374.6 1993.4 374.4 2006.4 426.8 2007.5 427.1 1995.1 507.3 1997.7 505.1 2051.2 Z" data-holc_grade="C"/>
<path d="M 523.9 2068 522.4 2051.4 607.8 2053.7 607.4 2068 523.9 2068 Z M 505.1 2051.2 505.5 2095 391.8 2092.3 393.9 2073.4 395 2048.8 505.1 2051.2 Z" data-holc_grade="C"/>
<path d="M 718.9 2097.8 717.5 2127.3 649.5 2126.4 648 2153.9 576.3 2127 576.3 2096.3 533.9 2095.5 535.7 2122.3 522.8 2117.9 523.9 2068 607.4 2068 607.8 2053.7 522.4 2051.4 521.7 2015.7 565.3 2016.9 565.6 2004.3 625.5 2005.2 625.5 2033.3 663.9 2035 661 2069.2 720.1 2072.1 718.9 2097.8 Z" data-holc_grade="C"/>
<path d="M 1085.3 2173.5 1082.7 2176.7 1077.2 2176.3 1073.9 2174.1 1068.4 2178.1 1057.8 2179.2 1043.9 2173.4 1021.3 2164.6 1006.1 2184.7 1027.3 2193.8 1025.9 2197.8 1015.3 2210.3 994 2240.2 963.6 2284 954.3 2281.1 959.4 2270.1 922.9 2255.2 914.1 2266.8 901.7 2255.9 890.1 2245.3 871.7 2233.6 856.4 2224.1 838.4 2215.3 863.5 2178.2 901.9 2194 927 2155.4 797.4 2100.5 718.9 2097.8 720.1 2072.1 661 2069.2 663.9 2035 721.5 2037.9 721.5 2033.6 765.9 2033.2 780.2 2035.4 796.8 2042.3 885.5 2080.6 889.7 2074.8 949.7 2099.6 945.5 2106.6 993.6 2127.4 998.2 2120.4 1092.4 2164.6 1085.3 2173.5 Z" data-holc_grade="C"/>
<path d="M 786.9 2203.1 788.1 2198.4 739.3 2176.4 765.1 2139.8 732.8 2127.4 717.5 2127.3 718.9 2097.8 797.4 2100.5 927 2155.4 901.9 2194 863.5 2178.2 838.4 2215.3 825.1 2210 806.6 2203.6 792.6 2201.3 786.9 2203.1 Z" data-holc_grade="C"/>
<path d="M 568.4 521.9 543.8 524.3 536.4 459.8 420.9 472.4 418.4 453 452.9 448.9 453.8 440.2 490.7 433.3 490.3 417.6 482.4 398.6 498.1 389.9 536.4 384.4 536.2 388.5 571.9 385.8 572 380 609.9 376.6 624.7 516.4 568.4 521.9 Z" data-holc_grade="C"/>
<path d="M 1314.6 2205 1284.7 2233.1 1251.4 2213.8 1242.5 2202.1 1196.4 2179 1139.5 2248.3 1156.1 2260.2 1170.1 2250 1184.9 2259.9 1206.7 2241.8 1246.6 2267.8 1228.3 2285.7 1215.9 2297.6 1273.6 2336.2 1251 2357.2 1193.4 2318.4 1178.2 2331.2 1197.5 2344.9 1186.7 2356 1175.7 2349.3 1147.2 2374.7 1100.3 2342 1139.8 2307.3 1119.5 2293.5 1084 2328.9 1036.7 2304.9 1016.8 2333.8 1010.9 2342.3 985 2330.9 976.1 2332.4 961.4 2337.9 956.2 2329.5 953.2 2318.9 948.8 2300.8 929.6 2286.5 914.1 2266.8 922.9 2255.2 959.4 2270.1 954.3 2281.1 963.6 2284 1005 2305.5 1065.2 2233.9 1072.9 2230.7 1088.8 2237.7 1107.3 2216.4 1098.8 2210 1106.2 2200.4 1091 2191.6 1100.1 2180.3 1113.1 2186.3 1128.2 2169.1 1154.8 2182.4 1166.8 2167.2 1176.6 2170.8 1215.2 2125.7 1239.2 2135.5 1258.4 2146.3 1279.1 2160.9 1298 2175.5 1310.9 2192.8 1314.6 2205 Z" data-holc_grade="C"/>
<path d="M 1251 2357.2 1215.3 2379.8 1198.2 2393.1 1173.1 2403.6 1154.4 2412 1146.4 2416.2 1140.5 2423.2 1139.1 2427.9 1132.3 2431.9 1126.3 2432.3 1119 2428.8 1115.7 2420.9 1106.8 2407.3 1127.2 2389.1 1093.2 2365.7 1083.5 2373.4 1052.5 2350.8 1016.8 2333.8 1036.7 2304.9 1084 2328.9 1119.5 2293.5 1139.8 2307.3 1100.3 2342 1147.2 2374.7 1175.7 2349.3 1186.7 2356 1197.5 2344.9 1178.2 2331.2 1193.4 2318.4 1251 2357.2 Z" data-holc_grade="C"/>
<path d="M 919.4 391.4 988.3 384 996.1 464 1002.5 528.9 982.5 541.6 973.1 544.6 954.8 550.8 944.9 551.2 937.7 552.9 932.7 548.6 929.9 542 917.1 536.3 908.3 531.9 902.2 526.7 901.6 512.7 901.6 496.9 900.5 488.6 898.9 485.1 890.5 482.5 882.2 482.5 868.4 482.9 860.1 480.3 855.6 475.1 850.1 472.4 842.9 472.4 706 491.7 680.5 496.9 671.1 497.4 656.1 499.1 642.8 372.8 677.1 368.2 681 422.9 666.6 425.1 673.2 472.3 695.4 469.2 707 470.1 703.7 435.1 700.9 421.6 765.2 413.3 832.9 406.7 881.1 397.1 919.4 391.4 Z" data-holc_grade="C"/>
<path d="M 785.9 638.1 696.2 649.1 689 605.8 779.5 594.6 785.9 638.1 Z M 926.4 569.3 930.1 595.6 936 620.9 947.4 620.1 949.5 676.6 891.4 681.2 894.8 717.4 875.7 718.2 874.1 683.2 867.4 628.1 807.3 635.5 799.4 590.8 824.8 587.4 821.4 575.2 891.3 567.3 896.8 573 926.4 569.3 Z" data-holc_grade="C"/>
<path d="M 592.5 777.7 588.6 748 577.5 748 575.3 722.6 586.9 720.4 584.7 694.1 643.4 685.4 649.4 719.7 627.5 774.5 592.5 777.7 Z M 596.8 930.2 589 931.4 603.5 898.3 631.2 827.7 637.9 810.5 643.8 791.2 651.2 768.2 655.3 757.4 659.3 747.5 666 731.1 679.3 697.6 676.7 680.5 700 677.1 696.2 649.1 785.9 638.1 777 724.7 768.9 779.8 760.2 826.9 685.6 836.8 669.9 838.8 633.9 843.6 642.3 893.2 629.3 895 633.9 924.9 608.7 928.5 596.8 930.2 Z M 796 822.2 779.6 824.3 788 762.2 802.5 641.3 807.3 635.5 813 690.3 818.2 692 823.3 745.7 821.1 748.6 826.3 769.3 803.4 772 813.8 819.8 796 822.2 Z" data-holc_grade="C"/>
<path d="M 511.9 1069.5 532.5 1081.9 523.7 1124.5 501.5 1159.5 497.6 1172.2 477.6 1176.5 443.9 1067.1 466 1065.7 484.7 1069.9 511.9 1069.5 Z" data-holc_grade="C"/>
<path d="M 749.7 964.5 701.9 971.2 699.6 952.4 749.7 945.9 754.2 963.4 749.7 964.5 Z M 700.4 1166.2 654.4 1158.4 667.7 1098.8 637.8 1055.5 618.4 985.5 619 979.3 615.1 951.8 608.7 928.5 633.9 924.9 629.3 895 642.3 893.2 633.9 843.6 669.9 838.8 674.4 855.3 676.6 873.9 678.1 901.4 679.6 936.1 684 969.3 689.9 985 694.3 1024.4 709.3 1127.7 709.3 1133.9 700.4 1166.2 Z M 754.7 871.8 694.2 877.6 685.6 836.8 760.2 826.9 754.7 871.8 Z M 833.4 951.8 798 1003.4 767.7 1036.4 743.3 1057.1 762.1 930.8 802.8 923.8 794.7 864.5 773.6 867.7 779.6 824.3 796 822.2 809.7 862.2 817.7 862.4 821.8 872.4 833.4 951.8 Z" data-holc_grade="C"/>
</g>
<g id="D">
<path d="M 681.8 249.8 690.4 249.6 697.5 246.4 710.4 240.3 718.8 233.5 724.8 228.6 731.9 223.5 739 220.7 760.2 216 765.7 216 770.9 218.5 777.3 224.1 778.5 228.1 774.9 233.8 776.2 235.8 777.3 237.3 782.5 239 786.2 239.5 791.2 239.5 792.9 240.2 784.4 245 775.3 247.5 770.5 247.8 765.5 247.5 759.6 247 744.5 250.8 736.2 255.1 737.8 263.9 741.3 267.6 748.7 273.6 751.1 277.8 751.3 280.7 749.8 283.8 746.1 285.2 740.8 287 736.9 288.7 733.9 291.1 733.2 295.7 733.2 300.7 730.8 309.4 725.3 319.1 690.7 322.9 685.7 281.6 681.8 249.8 Z" data-holc_grade="D"/>
<path d="M 1206.7 1881 1198.1 1880.1 1189.4 1891.1 1187.7 1893.2 1173.2 1909.7 1137.5 1890.8 1070.7 1851.1 1003.3 1810.7 996.5 1806 997.4 1801.8 1002.1 1796.7 1007.1 1792.7 1010.9 1795.7 1023.4 1789.6 1046 1803 1076.9 1822.4 1099.6 1799.9 1085.1 1789.6 1122.5 1751.1 1153.5 1769.2 1163.1 1757.5 1196.7 1777 1210.8 1764.2 1238.5 1780.8 1245.5 1733.2 1269.9 1746.7 1276.9 1745.5 1304.2 1750.5 1264 1794.6 1235.5 1818.2 1256.6 1830.8 1206.7 1881 Z" data-holc_grade="D"/>
<path d="M 1140.3 1917.9 1114.6 1944.9 1095.8 1947.2 1095.5 1964.9 1067.9 1967.5 1048.8 1969.3 1033 1896.9 1030.6 1881.3 1026.6 1876.4 1017.9 1871.2 1008.2 1865.6 984.9 1853.1 953.9 1840.7 945.7 1837.9 925.5 1833.5 910.2 1830.7 899.3 1827.2 891.6 1825.6 873.8 1819.5 857.9 1814 844.4 1810.9 823.7 1807.7 793.4 1802.8 771.6 1798.8 738.6 1793.5 654.8 1780.6 565.7 1746.4 600.7 1687.6 618.2 1695.4 623 1686.1 606.3 1678.2 625.8 1645.5 720.9 1682 716.2 1692.8 728.6 1697.2 726.6 1709.8 773.9 1727.7 778.3 1707.5 778.1 1682 781.4 1674.6 799.7 1678.1 944.9 1802.9 959.6 1793.5 973.2 1805.5 988.2 1813 988 1821.1 1129.9 1905.2 1125.9 1909.2 1140.3 1917.9 Z M 691.9 1688.2 677.3 1681.2 672.3 1688.5 686.7 1694.8 691.9 1688.2 Z" data-holc_grade="D"/>
<path d="M 1393 1729.8 1382.9 1733.8 1377.6 1733.9 1370.7 1734 1347.6 1727.5 1352.7 1722.1 1368.9 1723.1 1374.7 1713.3 1378.9 1701.7 1378.9 1693.5 1374.9 1680.7 1379.1 1678.6 1400.2 1683 1404 1689.5 1401.8 1705.3 1396.3 1725 1393 1729.8 Z" data-holc_grade="D"/>
<path d="M 1546.5 1905 1505.1 1933.1 1476.9 1903.1 1492 1895 1518.4 1876.6 1546.5 1905 Z" data-holc_grade="D"/>
<path d="M 1496.1 2027.3 1472.6 2054.7 1496.1 2065 1483.7 2073.9 1356.4 2015.2 1379.9 1979.3 1384 1974.1 1404.1 1980.3 1423.4 1956.6 1455.5 1991.7 1496.1 2027.3 Z" data-holc_grade="D"/>
<path d="M 1067.9 1967.5 1095.5 1964.9 1095.8 1947.2 1114.6 1944.9 1140.3 1917.9 1189.9 1946.9 1197.1 1953.9 1213.8 1973 1228.5 1982 1245.5 1991.2 1287.3 2015.8 1297.1 2015 1442.3 2086.5 1459.3 2094.6 1476.5 2098 1600.6 2172.5 1535.2 2217.2 1530.4 2216.1 1529.3 2213.1 1501.6 2192.8 1500.1 2194.1 1478.1 2234.4 1475 2236.1 1470.5 2237.3 1464.6 2236.9 1459.3 2233.2 1405 2197.4 1360.8 2158.7 1342.5 2143.4 1291.3 2143.3 1266.7 2131.7 1256.1 2125.9 1246.1 2118.3 1237.9 2111.3 1228 2105.7 1200.2 2092.4 1154.3 2070.5 1148.6 2070.7 1138.4 2071.2 1127.7 2070 1118.9 2067.2 1107.8 2060.3 1099.6 2049.8 1093.8 2039.3 1086.1 2021.4 1078.8 2008.7 1070.1 1990.8 1068.1 1984.3 1067.9 1967.5 Z" data-holc_grade="D"/>
<path d="M 2156.2 1949.3 2168.1 1953.8 2177.1 1958.7 2187.8 1964.4 2197.2 1969.5 2211.9 1976.4 2233.3 1986.4 2242 1990 2253.8 1995.4 2268.5 2001.3 2284.4 2008.5 2295.8 2013.8 2304.8 2017.8 2314 2021.9 2320.5 2025.4 2327.1 2027.5 2337.3 2030.6 2348.6 2034.1 2355.8 2037.4 2364.7 2042.9 2371.6 2047.4 2377.1 2051.5 2386 2057.4 2393.4 2062.4 2399.7 2066.5 2406.8 2071.3 2412.4 2076 2420.4 2083.1 2425.4 2087.7 2431 2092.5 2435.8 2097.6 2437 2101.3 2437 2104.6 2435.8 2107 2426.6 2114.3 2420.6 2119 2416.1 2121.8 2412.1 2122.4 2409.3 2122.4 2408 2122.6 2399.3 2129.2 2387.9 2136.9 2377.5 2143.4 2373.8 2146.6 2372.5 2147.5 2371.8 2149.1 2372.7 2152.2 2373.1 2159.6 2372.5 2166.1 2371.3 2169.5 2369 2171.7 2367.1 2171.3 2365 2169.9 2362 2166.7 2354.8 2159.6 2347.2 2156 2346.1 2154.7 2342.2 2150.2 2324.3 2136.2 2311.3 2129.7 2290.9 2120.3 2267.1 2110.3 2256.5 2104.2 2242.9 2094.1 2219.3 2078.7 2211.4 2072.5 2204.9 2063.7 2203.6 2056 2199.9 2055.8 2194 2052.7 2190.5 2049.2 2186.5 2047.6 2178.5 2048.8 2179.1 2045.2 2178.9 2042.1 2176.1 2039.2 2173 2036.7 2169.1 2039.6 2164.5 2041.2 2158.4 2041.1 2153 2035.1 2146.2 2029.8 2134 2024.3 2122.5 2017.8 2114 2014.6 2100.4 1997 2111.3 1997.7 2119.8 1998 2126.6 1995.5 2128.3 1991.9 2128.3 1988.2 2127.2 1984.8 2122.9 1980.6 2107.5 1976.8 2094.2 1974.2 2084 1971.3 2068.3 1967.3 2061.4 1963.6 2092.4 1961.1 2109.6 1959.8 2121.6 1959.3 2133.4 1960 2137.4 1952.6 2139.8 1948.9 2141.8 1946 2145.1 1944.9 2147.8 1945.4 2156.2 1949.3 Z" data-holc_grade="D"/>
<path d="M 2115.6 2061.4 2103.1 2073 2084.1 2054.3 2062.3 2035 2052.1 2025.5 2047.9 2019.2 2038.4 2009.4 2049.8 2002.3 2067.3 2017.1 2071.9 2013.8 2075.6 2011.3 2079.3 2009.6 2083.6 2009.6 2088.2 2010.4 2091.4 2012.5 2092.9 2015.5 2095.6 2019.2 2097.4 2021.1 2101.6 2021.9 2105.1 2022.1 2108.8 2022.3 2111.8 2023 2116.3 2025.6 2120.9 2029.4 2126.2 2035.3 2139.5 2049.3 2130.3 2052.9 2115.6 2061.4 Z" data-holc_grade="D"/>
<path d="M 2075.9 2404.3 2109 2449.7 2129.8 2474.4 2183.7 2547 2223.6 2597.6 2232 2593.9 2249.1 2618 2193 2648.8 2161.3 2663 2184.3 2703.3 2172.8 2711.2 2099 2711.5 2060.2 2679.7 2024.2 2649.1 1987.7 2622.4 1935.5 2576.4 1878.2 2524.9 1768.3 2432.8 1723.5 2459.5 1655.2 2389 1695.3 2362.4 1645 2314.5 1586.3 2264.1 1693.5 2190.4 1730.8 2207.1 1922.1 2297 1966.6 2320.1 2038.5 2354.8 2075.9 2404.3 Z M 1976.9 2175.5 2016.1 2213.9 1997.1 2227.8 1989.3 2233.1 1963.1 2207.6 1904.5 2246 1905.5 2249.3 1935.4 2258.5 2013.7 2291.7 2043.5 2299.6 2101.9 2377 2189.8 2338.4 2219 2377.3 2170.9 2398.5 2182.6 2415.7 2168.9 2422.7 2176.5 2432.1 2160.2 2440.1 2186.7 2480.6 2209.2 2509 2221.2 2527.7 2233.4 2558.7 2256.7 2553.2 2265.9 2581.2 2241.7 2592.2 2208.8 2551.6 2182.2 2513.7 2139.5 2458.6 2089.7 2393.1 2050.3 2338.6 1991.4 2310.7 1926 2277.4 1863.2 2249.8 1875.5 2241.8 1976.9 2175.5 Z M 1789.3 2212.8 1751 2194.7 1703.7 2173.8 1663 2158.1 1656.1 2156.6 1715.8 2116.2 1764.1 2157 1784.3 2144.9 1810.9 2168.9 1800.9 2175.7 1820.2 2193.8 1789.3 2212.8 Z" data-holc_grade="D"/>
<path d="M 2363.7 2794.3 2486 2987.7 2479.7 2990.7 2405.4 2945.1 2298.6 2871.7 2292 2875.5 2250.6 2837.5 2206.3 2796.6 2218.1 2789.9 2233.6 2788.7 2255.8 2792.8 2273.1 2797.8 2292.3 2795.1 2304.5 2795.1 2319.7 2798.6 2338.9 2805.1 2348.5 2806.2 2357 2798.1 2363.7 2794.3 Z" data-holc_grade="D"/>
<path d="M 581 666.3 323.3 699.1 286.7 590.1 283.6 577.1 571 542.3 572.1 551.2 557.2 556.9 560.5 580.1 576.6 579.6 578.8 608.1 571 608.1 566.6 613.3 567.1 625.6 575.5 626 576 633.9 581.6 634.7 581 666.3 Z M 373.9 610.7 374.1 619.6 392.9 617.5 392 608.2 373.9 610.7 Z M 568.4 521.9 569.3 529.4 276.1 565 263.6 535.5 426.2 514 420.9 472.4 536.4 459.8 543.8 524.3 568.4 521.9 Z" data-holc_grade="D"/>
<path d="M 1215.2 2125.7 1176.6 2170.8 1166.8 2167.2 1154.8 2182.4 1128.2 2169.1 1113.1 2186.3 1100.1 2180.3 1085.3 2173.5 1092.4 2164.6 998.2 2120.4 993.6 2127.4 945.5 2106.6 949.7 2099.6 889.7 2074.8 885.5 2080.6 796.8 2042.3 780.2 2035.4 765.9 2033.2 721.5 2033.6 721.5 2037.9 663.9 2035 625.5 2033.3 625.5 2005.2 565.6 2004.3 565.3 2016.9 521.7 2015.7 523.4 1959.1 671.9 1962.6 679 1965.2 686.4 1967.5 695.6 1969 704.8 1970.5 715.9 1974.6 725.3 1980 729.8 1985.7 731.1 1992.1 731.8 1995.1 736.8 1998.1 744.5 2001 758.2 2001.9 766.3 2003.5 780 2005.5 804.6 2013.4 822.7 2024.1 851 2038.4 869.4 2011.9 1005.8 2070.9 1029.8 2080.9 1009.1 2109.2 1019.5 2113.5 1040.9 2085.4 1081.7 2101.6 1088.1 2094.6 1098.7 2079 1138.4 2092 1166.8 2105 1215.2 2125.7 Z" data-holc_grade="D"/>
<path d="M 321 875.7 220.4 896.3 213.8 877.9 213.8 871.4 205.5 843.5 187.6 794.5 177.6 763.8 168.4 737.7 159.9 716.6 152.9 703.5 145.5 690.5 143.1 686.4 143.3 675.3 133.1 659.7 113.1 630.5 107.1 615.4 160.1 602.7 268.5 577.5 289.8 646.9 309.3 707.1 315.5 728.8 359.4 867.9 321 875.7 Z M 197.8 356.8 263.2 565.9 113.9 598.3 104.3 602.7 105.4 610.8 77.3 617.5 43.3 514.3 2.7 374.9 22.6 371.1 25.6 372.5 30 376.3 36.7 378.1 44.4 377.2 56.6 374.3 66.2 372.8 97.6 371.1 104.3 368.2 118.3 366.7 133.9 363.2 145.3 362.3 159.7 363.2 168.2 361.8 182.3 358.5 197.8 356.8 Z M 184.9 523.6 190.4 541.3 206 538.4 199.7 519.7 184.9 523.6 Z" data-holc_grade="D"/>
<path d="M 592.5 777.7 585.2 781.2 591.9 811.4 605.8 812.3 612.4 854.3 595.4 892 533.4 899.7 538.7 927.9 582.1 921.6 576.9 933.1 569.4 933.9 521 939.2 513.2 911.2 433.9 921.3 420.6 891.1 414 892.4 403.5 863.9 375.7 869.6 323.3 699.1 581 666.3 638.5 658.7 643.4 685.4 584.7 694.1 586.9 720.4 575.3 722.6 577.5 748 588.6 748 592.5 777.7 Z M 383.1 760.3 390.6 806.9 416.1 803 407.9 757.7 383.1 760.3 Z M 676.7 680.5 666.7 608.1 689 605.8 696.2 649.1 700 677.1 676.7 680.5 Z" data-holc_grade="D"/>
<path d="M 762.1 930.8 741.8 933 737 911.7 699 915.5 694.2 877.6 754.7 871.8 773.6 867.7 794.7 864.5 802.8 923.8 762.1 930.8 Z" data-holc_grade="D"/>
<path d="M 422 1079.1 454.7 1182.4 428.1 1188.5 409.8 1179.3 342.7 1192.4 326.7 1188.9 304.5 1184.1 292.3 1186.8 261.8 1036.6 257.4 1024.4 243 985 238 964 229.7 936.4 225.2 921.5 225.2 912.8 220.4 896.3 321 875.7 398.2 1084.3 422 1079.1 Z" data-holc_grade="D"/>
<path d="M 497.6 1172.2 501.5 1159.5 523.7 1124.5 532.5 1081.9 589 931.4 596.8 930.2 605.2 997.4 621.1 1060.1 647.1 1096.5 565 1411.7 559.1 1423.9 488.2 1202.7 497.6 1172.2 Z M 422 1079.1 398.2 1084.3 321 875.7 359.4 867.9 370.3 911.6 388.9 962.8 390.7 981.7 422 1079.1 Z M 569.4 933.9 511.9 1069.5 484.7 1069.9 466 1065.7 443.9 1067.1 427.9 1026.5 416.4 999.9 397.8 946.6 375.7 869.6 403.5 863.9 414 892.4 420.6 891.1 433.9 921.3 513.2 911.2 521 939.2 569.4 933.9 Z" data-holc_grade="D"/>
<path d="M 550.5 1466.3 541.7 1468.9 476.6 1443 478.4 1435.7 398.5 1418.5 381.9 1457.9 335.7 1445.2 327.9 1465.2 310.3 1510.5 296.9 1508.6 274.3 1567.4 187.2 1547.3 178.9 1559.6 268.7 1579.7 418.3 1612.2 398.4 1678.3 227.1 1639.7 217.7 1638.4 168.9 1610.4 136.2 1592.4 91.9 1568.8 33.7 1536.4 1 1519.8 19.3 1507.5 38.7 1497 76.9 1470.3 90.8 1458 99.7 1451.5 108.5 1445.8 120.7 1439.2 135.7 1431.3 163.4 1411.6 193.9 1379.6 214.9 1354.7 231 1338.9 241.5 1323.6 246 1316.2 254.8 1300 259.8 1289 262 1277.6 305.8 1263.6 308 1261.4 301.9 1243.5 439.4 1214.6 469.3 1222 550.5 1466.3 Z M 414.8 1262.3 388.8 1294.7 402.7 1298.3 414.8 1262.3 Z M 223.5 1398.7 260.3 1417.4 274.9 1400.4 237.7 1380.3 223.5 1398.7 Z" data-holc_grade="D"/>
<path d="M 274.3 1567.4 296.9 1508.6 310.3 1510.5 327.9 1465.2 374.3 1477.1 381.9 1457.9 398.5 1418.5 478.4 1435.7 476.6 1443 541.7 1468.9 550.5 1466.3 555.5 1485.7 472.9 1620.3 431.8 1602.4 274.3 1567.4 Z" data-holc_grade="D"/>
</g>
</svg>