<?xml version="1.0"?>
<svg xmlns="http://www.w3.org/2000/svg" version="1.2" baseProfile="tiny" width="3000" height="3830" viewBox="0 0 3000 3830" stroke-linecap="round" stroke-linejoin="round">
<g id="A">
<path d="M 2632.4 2553.6 2625.7 2961.5 2523.7 2962.9 2510.2 3004.9 2505.8 3061.3 2282.8 3057.2 2295.4 2545.1 2632.4 2553.6 Z" data-holc_grade="A"/>
<path d="M 2635.1 2390.6 2632.4 2553.6 2295.4 2545.1 2282.8 3057.2 2165.9 3055.1 1938.6 3055.1 1944.9 2720.5 1951.3 2376 2635.1 2390.6 Z" data-holc_grade="A"/>
<path d="M 2482.6 3768.1 2505.8 3061.3 2510.2 3004.9 2523.7 2962.9 2625.7 2961.5 2632.4 2553.6 2635.1 2390.6 2970.6 2394.7 2896.9 3829.4 2482.6 3768.1 Z" data-holc_grade="A"/>
</g>
<g id="B">
<path d="M 1343.9 2708.1 1944.9 2720.5 1938.6 3055.1 1936.5 3105.9 1715.6 3089 1715.6 3048.8 1605.2 3044.6 1609.4 2938.8 1483.7 2937.7 1477.7 3340.8 1473.5 3419.1 1248.3 3408.5 1263.2 2701.8 1343.9 2708.1 Z" data-holc_grade="B"/>
<path d="M 1951.3 2376 1944.9 2720.5 1343.9 2708.1 1352.4 2248.9 1617.9 2255.4 1617.9 2371.8 1951.3 2376 Z" data-holc_grade="B"/>
<path d="M 2191.9 2213.5 2636.3 2219.5 2635.1 2390.6 1951.3 2376 1952.7 2210.2 2191.9 2213.5 Z" data-holc_grade="B"/>
<path d="M 1980.9 1170.5 2152.8 1172.4 2632.7 1394.3 2626.3 1464.1 2560.5 1531.8 2486.2 1559.3 2390.7 1550.9 2259.1 1572.1 2210.2 1650.4 2148.7 1711.7 2074.4 1688.5 1995.8 1677.9 1936.4 1703.3 1809 1671.6 1806.8 1542.5 1496.9 1542.6 1479.9 1677.9 1341.9 1680 1312.1 1739.3 1274.6 1752.6 1288.8 1267.6 1286.7 1164 1401.3 1164 1980.9 1170.5 Z" data-holc_grade="B"/>
<path d="M 1274.6 1752.6 1163.2 1786.5 1165.2 1273.9 1288.8 1267.6 1274.6 1752.6 Z" data-holc_grade="B"/>
<path d="M 1409.8 595.1 1401.3 1164 1286.7 1164 1288.2 671.3 1288.9 451.4 1412 453.5 1409.8 595.1 Z" data-holc_grade="B"/>
</g>
<g id="C">
<path d="M 2191.9 2213.5 1952.7 2210.2 1951.3 2376 1617.9 2371.8 1617.9 2255.4 1352.4 2248.9 1271.8 2246.9 1274.6 2015.5 1276 1904.2 1622.1 1912.7 1626.4 1735 2204.1 1735 2191.9 2213.5 Z" data-holc_grade="C"/>
<path d="M 1263.2 2701.8 1248.3 3408.5 1254.7 3721.7 1012.5 3723.8 1035.2 2807.7 1038.1 2689.1 1142.2 2691.2 1146.4 2587.5 1199.5 2587.5 1208 2701.8 1263.2 2701.8 Z" data-holc_grade="C"/>
<path d="M 1980.9 1170.5 1401.3 1164 1409.8 595.1 1704.9 593 1668.8 5.2 1921.3 1 1965.9 633.2 1980.9 1170.5 Z" data-holc_grade="C"/>
<path d="M 1409.8 595.1 1412 453.5 1288.9 451.4 1288.2 671.3 1167.9 667 1165.7 616.3 1099.9 614.2 1098.4 592.2 964.1 595.1 942.8 1153.9 263.5 1142.6 289.1 592.4 299.3 7.7 1668.8 5.2 1704.9 593 1409.8 595.1 Z" data-holc_grade="C"/>
<path d="M 1288.2 671.3 1286.7 1164 1288.8 1267.6 1165.2 1273.9 1165.7 1157.6 942.8 1153.9 964.1 595.1 1098.4 592.2 1099.9 614.2 1165.7 616.3 1167.9 667 1288.2 671.3 Z" data-holc_grade="C"/>
</g>
<g id="D">
<path d="M 1146.4 2587.5 1142.2 2691.2 1038.1 2689.1 1035.2 2807.7 745 2807.5 842.7 2576.9 929.8 2581.2 923.5 2524 1095.5 2530.4 1097.6 2581.2 1146.4 2587.5 Z" data-holc_grade="D"/>
<path d="M 1035.2 2807.7 1012.5 3723.8 953 3725.9 948.8 3689.9 955.2 3416.9 691.8 3427.5 713.1 2917.5 745 2807.5 1035.2 2807.7 Z" data-holc_grade="D"/>
<path d="M 2282.8 3057.2 2505.8 3061.3 2482.6 3768.1 1254.7 3721.7 1248.3 3408.5 1473.5 3419.1 1477.7 3340.8 2159.6 3353.4 2165.9 3055.1 2282.8 3057.2 Z" data-holc_grade="D"/>
<path d="M 1938.6 3055.1 2165.9 3055.1 2159.6 3353.4 1477.7 3340.8 1483.7 2937.7 1609.4 2938.8 1605.2 3044.6 1715.6 3048.8 1715.6 3089 1936.5 3105.9 1938.6 3055.1 Z" data-holc_grade="D"/>
<path d="M 2970.6 2394.7 2635.1 2390.6 2636.3 2219.5 2191.9 2213.5 2204.1 1735 2999 1765.9 2970.6 2394.7 Z" data-holc_grade="D"/>
<path d="M 1276 1904.2 1274.6 2015.5 1162.6 2018.1 1155.6 2134.2 1093.9 2132.4 1091.3 2246.8 1038.2 2244.2 1047.7 1735 1097.9 1722.8 1126.5 1732.3 1163.2 1786.5 1274.6 1752.6 1276 1904.2 Z" data-holc_grade="D"/>
<path d="M 1047.7 1735 1038.2 2244.2 983 2249 982.9 2304 927.7 2306.1 925.6 2132.7 779.1 2130.5 590.2 1916.8 664.3 1890.6 694.7 1881.1 754.7 1825.7 771.3 1823.9 802.6 1778.9 817.4 1735.6 836.5 1741.6 872.2 1722.6 874.8 1684.5 900 1711.3 923.5 1746 955.6 1746 995.6 1758.1 1022.6 1749.5 1047.7 1735 Z" data-holc_grade="D"/>
<path d="M 942.8 1153.9 1165.7 1157.6 1165.2 1273.9 1163.2 1786.5 1126.5 1732.3 1097.9 1722.8 1047.7 1735 1022.6 1749.5 995.6 1758.1 955.6 1746 923.5 1746 900 1711.3 874.8 1684.5 872.2 1722.6 836.5 1741.6 817.4 1735.6 802.6 1778.9 771.3 1823.9 754.7 1825.7 694.7 1881.1 664.3 1890.6 590.2 1916.8 218.6 2007.7 263.5 1142.6 942.8 1153.9 Z" data-holc_grade="D"/>
<path d="M 586.7 2769.3 171.2 2774.3 172.2 2757.9 138.2 2757 166.7 2534 1 2545.7 24.2 2319.6 127.5 2279 206.3 2268.2 217.3 2117.9 421.1 2126.1 595 2249.4 586.7 2769.3 Z" data-holc_grade="D"/>
</g>
</svg>