<?xml version="1.0"?>
<svg xmlns="http://www.w3.org/2000/svg" version="1.2" baseProfile="tiny" width="3000" height="4144" viewBox="0 0 3000 4144" stroke-linecap="round" stroke-linejoin="round">
<g id="A">
<path d="M 1376.4 1304.5 1378.6 1304.7 1379.1 1376.5 1382.4 1376.5 1388.5 1574.4 1382.4 1574.4 1328.2 1573.7 1322.5 1609.3 1161.4 1609.3 1156.9 1609.3 1155.6 1399.3 1155.1 1388.2 1109.6 1309.1 1072.7 1310.8 1072.7 1270.3 1072.7 1268.3 1119.7 1266.5 1123.3 1260.5 1268.5 1264.8 1273.5 1306.5 1376.4 1307.4 1376.4 1304.5 Z" data-holc_grade="A"/>
<path d="M 1616.6 1153.2 1615.3 1371.5 1615.3 1373.7 1382.4 1376.5 1379.1 1376.5 1378.6 1304.7 1378.6 1304.3 1398.6 1306.5 1396.9 1152.6 1616.6 1153.2 Z" data-holc_grade="A"/>
<path d="M 1752.9 1376.3 1752 1611.4 1560.4 1609.9 1561.7 1576.5 1388.5 1574.4 1382.4 1376.5 1615.3 1373.7 1615.3 1371.5 1752.9 1376.3 Z" data-holc_grade="A"/>
<path d="M 1381.4 6.3 1381.4 469.8 933.7 469.7 933.8 1 1381.4 6.3 Z" data-holc_grade="A"/>
<path d="M 2332.8 2220.5 2132.9 2235.8 2129.6 2236.1 2129.6 2234.4 2127.4 1908.8 2121.8 1900.1 2119.8 1886.9 2113.9 1846.3 2309.4 1836.9 2309.9 1844.5 2310.8 1844.6 2310 1996.9 2435.4 1998 2435.9 2159.1 2334.1 2159.1 2332.8 2220.5 Z" data-holc_grade="A"/>
<path d="M 2129.6 2234.4 1933 2237 1933 2239.6 1875.2 2233.6 1873.6 2193.4 1875.5 2193.6 1879.7 2092.9 1869.4 2081.7 1869.1 2079 2034.5 2092 2039.4 1916.7 2114.7 1912.3 2119.8 1886.9 2121.8 1900.1 2127.4 1908.8 2129.6 2234.4 Z" data-holc_grade="A"/>
<path d="M 1748.3 1840.3 1743.4 2183.2 1745.1 2183.3 1745.1 2183.8 1572.6 2190.2 1572.6 2189.2 1549.9 2188.7 1530.3 2185.9 1512.6 2177 1501.7 2154.8 1500.8 2085.3 1500.8 2039.8 1498.3 2039.8 1493.1 2029.2 1493.1 1847.1 1543.1 1841.5 1543.1 1839.8 1748.3 1840.3 Z" data-holc_grade="A"/>
<path d="M 1752 1611.4 1751.9 1628 1751.2 1834.8 1751.1 1840.3 1748.3 1840.3 1543.1 1839.8 1543.1 1838.4 1544.9 1612.6 1551.7 1612.6 1560.3 1612.6 1560.4 1609.9 1752 1611.4 Z" data-holc_grade="A"/>
<path d="M 1128.9 1839.8 1129.1 1844.7 1130.1 1869.2 1124.2 1925.3 1121 1969.2 1126 1990.9 1136.9 2037.5 1165.5 2039.2 1167.5 2068.1 1165.9 2068.1 1154.1 2068.1 1079.6 2073.1 967.9 2066.4 923.1 2069.4 923.1 2068.2 920.9 2068.3 925.1 2007.4 924 1981.8 926.5 1845.4 926.6 1840 924.8 1840 924.8 1839.7 1128.7 1837 1128.9 1839.8 Z" data-holc_grade="A"/>
<path d="M 925.3 1609.4 925.2 1611 925.2 1612.5 924.8 1839.7 924.8 1840 919.9 1840 707 1840.7 694.6 1840.8 694.6 1838.1 690.7 1838.2 689 1606.9 695 1606.9 709 1606.9 921.3 1606.4 925.3 1606.4 925.3 1609.4 Z" data-holc_grade="A"/>
<path d="M 920.9 2068.3 692 2070.6 694.8 2036.5 694.6 1844 694.6 1842.6 694.6 1840.8 707 1840.7 919.9 1840 924.8 1840 926.6 1840 926.5 1845.4 924 1981.8 925.1 2007.4 920.9 2068.3 Z" data-holc_grade="A"/>
<path d="M 694.6 1840.8 694.6 1842.6 694.6 1844 694.8 2036.5 692 2070.6 687.2 2070.7 687.1 2072.4 348.3 2070.6 350 2020 291.2 2020.4 295 1843.5 295.1 1840.1 295.9 1840.1 406 1839.6 463.6 1839.3 472.6 1839.3 690.7 1838.2 694.6 1838.1 694.6 1840.8 Z" data-holc_grade="A"/>
<path d="M 1498.3 2039.8 1500.8 2039.8 1500.8 2085.3 1501.7 2154.8 1512.6 2177 1530.3 2185.9 1549.9 2188.7 1572.6 2189.2 1572.6 2190.2 1571.3 2305.3 1418 2302.6 1417.2 2289.2 1419.5 2255.9 1411.3 2225.3 1390.9 2196.4 1378.1 2176.4 1374.5 2150.9 1373.1 2093.7 1373.1 2038.7 1495.6 2039.7 1498.3 2039.8 Z" data-holc_grade="A"/>
</g>
<g id="B">
<path d="M 1376.4 1304.5 1376.4 1307.4 1273.5 1306.5 1268.5 1264.8 1123.3 1260.5 1123.1 1260.5 1114.6 1033.1 1151.5 1032.2 1151.5 909.8 1377.9 911.6 1376.4 1304.5 Z" data-holc_grade="B"/>
<path d="M 1746.4 9.4 1742.8 159.4 1393.7 158.3 1397.8 4.9 1746.4 9.4 Z" data-holc_grade="B"/>
<path d="M 1343.2 1845.4 1493.1 1844.3 1493.1 1845.2 1493.1 1847.1 1493.1 2029.2 1498.3 2039.8 1495.6 2039.7 1373.1 2038.7 1373.1 2037.6 1210.9 2033.7 1207.7 2067.8 1204.1 2068.1 1167.5 2068.1 1165.5 2039.2 1136.9 2037.5 1126 1990.9 1121 1969.2 1124.2 1925.3 1130.1 1869.2 1129.1 1844.7 1128.9 1839.8 1207.8 1840.9 1317.3 1840.9 1340.3 1844.9 1343.2 1845.4 Z" data-holc_grade="B"/>
<path d="M 924.8 1839.7 925.2 1612.5 925.2 1611 925.3 1609.4 1156.9 1609.3 1161.4 1609.3 1322.5 1609.3 1324.1 1609.3 1324.1 1611.3 1325 1811.5 1343.2 1845.4 1340.3 1844.9 1317.3 1840.9 1207.8 1840.9 1128.9 1839.8 1128.7 1837 924.8 1839.7 Z" data-holc_grade="B"/>
<path d="M 348.3 2070.6 687.1 2072.4 685.5 2098.4 686.1 2146.7 691 2180.2 691.3 2219.6 694.2 2272.2 695.8 2307.4 468 2305.7 468.9 2207.9 432.1 2209 405.8 2209 380.3 2199 363.5 2187.3 352.6 2168.4 348.1 2138.4 346.8 2104.5 346.3 2070.6 348.3 2070.6 Z" data-holc_grade="B"/>
<path d="M 923.1 2069.4 924.9 2099.8 924.2 2165.6 929.4 2223.6 929.4 2302.8 929.2 2302.8 727.9 2303.5 727.8 2307.4 695.9 2308.2 695.8 2307.4 694.2 2272.2 691.3 2219.6 691 2180.2 686.1 2146.7 685.5 2098.4 687.1 2072.4 687.2 2070.7 692 2070.6 920.9 2068.3 923.1 2068.2 923.1 2069.4 Z" data-holc_grade="B"/>
<path d="M 1167.5 2068.1 1204.1 2068.1 1207.7 2067.8 1210 2067.5 1210.1 2069.8 1214.5 2301.4 1214.5 2303.6 1154.6 2305.2 1154.6 2302 1149.6 2302 929.4 2302.8 929.4 2223.6 924.2 2165.6 924.9 2099.8 923.1 2069.4 967.9 2066.4 1079.6 2073.1 1154.1 2068.1 1165.9 2068.1 1167.5 2068.1 Z" data-holc_grade="B"/>
<path d="M 1373.1 2038.7 1373.1 2093.7 1374.5 2150.9 1378.1 2176.4 1390.9 2196.4 1411.3 2225.3 1419.5 2255.9 1417.2 2289.2 1418 2302.6 1418.1 2304.2 1414.9 2304.2 1381.3 2303.7 1214.5 2301.4 1210.1 2069.8 1210 2067.5 1207.7 2067.8 1210.9 2033.7 1373.1 2037.6 1373.1 2038.7 Z" data-holc_grade="B"/>
<path d="M 914 3213.3 912.6 3124.5 991.5 3082.6 991.5 3081.4 1069.8 3037.6 1108.4 3102.1 1022 3154.7 1022 3210.2 914 3213.3 Z" data-holc_grade="B"/>
<path d="M 1383.5 3543 1385.8 3543 1741.6 3544.1 1741.5 3546.9 1740.2 3769.9 1632.4 3770.9 1601.5 3773.4 1508.1 3769.6 1457.6 3770.7 1379.5 3770.2 1381.2 3545.2 1381.3 3543 1383.5 3543 Z" data-holc_grade="B"/>
<path d="M 1740.2 3769.9 1739 3969.7 1600.4 3973 1600.4 3974.9 1385.3 3968.5 1377.6 3878 1379 3770.2 1379.5 3770.2 1457.6 3770.7 1508.1 3769.6 1601.5 3773.4 1632.4 3770.9 1740.2 3769.9 Z" data-holc_grade="B"/>
<path d="M 1072.7 1270.3 1072.7 1310.8 1109.6 1309.1 1155.1 1388.2 1155.6 1399.3 1156.9 1609.3 925.3 1609.4 925.3 1606.4 921.3 1606.4 927.1 1392 975.3 1375.9 949.9 1304.2 942.6 1270.4 942.1 1268.1 1072.7 1270.3 Z" data-holc_grade="B"/>
</g>
<g id="C">
<path d="M 1616.6 1153.2 1396.9 1152.6 1396.4 1152.6 1393.6 912.7 1618.4 911 1618.9 1153.2 1616.6 1153.2 Z" data-holc_grade="C"/>
<path d="M 2071.7 1154.8 1770.1 1152.6 1769 1147.6 1718.8 924.9 1855.5 923.2 1850.9 837.6 1956.8 837.6 1955.4 913.2 2068.9 915.4 2072.6 1154.8 2071.7 1154.8 Z" data-holc_grade="C"/>
<path d="M 2071.3 1375 2071.3 1377 1851 1378.4 1844.3 1378.5 1806.1 1378.7 1805.2 1374.3 1788.3 1288.2 1792.9 1267.1 1766.5 1148.2 1769 1147.6 1770.1 1152.6 2071.7 1154.8 2071.3 1375 Z" data-holc_grade="C"/>
<path d="M 2083.1 1377 2080.9 1606.4 2080 1606.4 1854.1 1609.7 1853.9 1609.7 1849.7 1609.8 1844.3 1378.5 1851 1378.4 2071.3 1377 2071.3 1375 2083.1 1375.9 2083.1 1377 Z" data-holc_grade="C"/>
<path d="M 1805.2 1374.3 1806.1 1378.7 1844.3 1378.5 1849.7 1609.8 1853.9 1609.7 1854.1 1609.7 1854 1615.4 1849.3 1844.2 1846 1844.1 1751.5 1841.5 1751.1 1841.5 1751.1 1840.3 1751.2 1834.8 1751.9 1628 1752 1611.4 1752.9 1376.3 1752.9 1374.8 1805.2 1374.3 Z" data-holc_grade="C"/>
<path d="M 2075.1 1730.7 2077.3 1848.1 2034.6 1849.2 2036.5 1918.6 1873.8 1917 1872.9 1867.6 1884.7 1865.3 1885.6 1848.1 1849.3 1846.4 1849.3 1844.2 1854 1615.4 1854.1 1609.7 2080 1606.4 2080 1612.5 2071.4 1730.9 2075.1 1730.7 Z" data-holc_grade="C"/>
<path d="M 2305.2 1380.1 2304.9 1723.6 2303.2 1723.6 2075.1 1730.7 2071.4 1730.9 2080 1612.5 2080 1606.4 2080.9 1606.4 2083.1 1377 2305.2 1378.6 2305.2 1380.1 Z" data-holc_grade="C"/>
<path d="M 2539 1378.7 2541.9 1838.4 2542 1846.3 2542 1847.1 2310.8 1844.6 2309.9 1844.5 2309.4 1836.9 2303.2 1723.6 2304.9 1723.6 2305.2 1380.1 2411.9 1378.4 2414 1300.3 2530.4 1301.1 2528.3 1375.7 2538.9 1377.5 2539 1378.7 Z" data-holc_grade="C"/>
<path d="M 2774 1858.2 2773.4 1858.2 2773.4 1859.3 2773.4 1859.8 2542 1846.3 2541.9 1838.4 2539 1378.7 2768.2 1379.1 2774 1858.2 Z" data-holc_grade="C"/>
<path d="M 2966.1 2080.2 2772.9 2079.6 2772 2079.6 2771.4 2079.6 2773.4 1859.8 2773.4 1859.3 2773.4 1858.2 2774 1858.2 2925.3 1857.3 2923.7 1610.8 2992.6 1610.7 2999 1633.3 2996.4 2080.3 2966.1 2080.2 Z" data-holc_grade="C"/>
<path d="M 2310.8 1844.6 2542 1847.1 2542 1846.3 2773.4 1859.8 2771.4 2079.6 2772 2079.6 2772.9 2079.6 2771.4 2126.6 2769.9 2173.9 2763 2174.5 2763.1 2175 2440 2168.5 2438.6 2159.1 2437.1 2159.1 2435.9 2159.1 2435.4 1998 2310 1996.9 2310.8 1844.6 Z" data-holc_grade="C"/>
<path d="M 1869.4 2081.7 1879.7 2092.9 1875.5 2193.6 1873.6 2193.4 1745.1 2183.3 1743.4 2183.2 1748.3 1840.3 1751.1 1840.3 1751.1 1841.5 1751.5 1841.5 1846 1844.1 1859.8 1977.4 1866.9 2079 1869.4 2081.7 Z" data-holc_grade="C"/>
<path d="M 1388.5 1574.4 1561.7 1576.5 1560.4 1609.9 1560.3 1612.6 1551.7 1612.6 1544.9 1612.6 1543.1 1838.4 1543.1 1839.8 1543.1 1841.5 1493.1 1847.1 1493.1 1845.2 1493.1 1844.3 1343.2 1845.4 1325 1811.5 1324.1 1611.3 1324.1 1609.3 1322.5 1609.3 1328.2 1573.7 1382.4 1574.4 1388.5 1574.4 Z" data-holc_grade="C"/>
<path d="M 236.7 918.7 229.7 918.5 231.4 1173.4 254.1 1173.4 256.6 1272.4 207.5 1272.3 10.9 1255.9 4.8 800.9 114.8 796.6 113.4 826.1 233.3 834 236.7 918.7 Z" data-holc_grade="C"/>
<path d="M 1154.6 2305.2 1154.5 2538.1 1148.6 2581.4 1152.8 2644 1151.9 2644 925.5 2644 916.5 2597 925.9 2570.8 924.6 2553 919.1 2523.6 919.1 2512.5 922.8 2415.8 726.5 2354.1 727.8 2307.4 727.9 2303.5 929.2 2302.8 929.4 2302.8 1149.6 2302 1154.6 2302 1154.6 2305.2 Z" data-holc_grade="C"/>
<path d="M 1381.3 2303.7 1379 2583.1 1378.6 2640.3 1375.6 2649.2 1375.5 2643.9 1152.8 2644 1148.6 2581.4 1154.5 2538.1 1154.6 2305.2 1214.5 2303.6 1214.5 2301.4 1381.3 2303.7 Z" data-holc_grade="C"/>
<path d="M 1571.3 2305.3 1571.7 2305.3 1567.6 2577.5 1379 2583.1 1381.3 2303.7 1414.9 2304.2 1418.1 2304.2 1418 2302.6 1571.3 2305.3 Z" data-holc_grade="C"/>
<path d="M 664.1 1273.2 263.6 1272.5 256.6 1272.4 254.1 1173.4 231.4 1173.4 229.7 918.5 236.7 918.7 340.5 922.4 338.7 873.5 375.9 874.6 374.6 813 461.8 813 471.6 1161.3 650.1 1151.9 658.3 1160.3 664.1 1273.2 Z" data-holc_grade="C"/>
<path d="M 10.9 1255.9 207.5 1272.3 256.6 1272.4 263.6 1272.5 664.1 1273.2 755 1273.4 755 1384.2 696.4 1385.3 696.4 1388 468 1389.6 467.9 1391.3 186.9 1388.6 186.8 1393 15.1 1393.8 8.8 1255.7 10.9 1255.9 Z" data-holc_grade="C"/>
<path d="M 467.9 1391.3 467.7 1396.5 462.2 1535.5 464.3 1608.4 472.1 1663.9 464.3 1716.9 463.6 1839.3 406 1839.6 403.2 1729.9 294.6 1723.7 295.9 1840.1 295.1 1840.1 295 1843.5 229.3 1839.1 234.4 1544.9 225.2 1531.9 193.9 1491.1 179 1477.2 179.8 1450.3 185.5 1432.9 186.8 1393 186.9 1388.6 467.9 1391.3 Z" data-holc_grade="C"/>
<path d="M 227.8 3611.1 227.8 3612.9 233.7 3824.9 234.5 3921.7 236.2 4137.1 2.5 4143.1 1 3730.3 5 3728.2 227.7 3608.1 227.8 3611.1 Z" data-holc_grade="C"/>
<path d="M 458.6 3477.4 458.6 3479.8 455.5 3902.8 455.4 3905.3 455.3 3923.6 453.1 3923.5 234.5 3921.7 233.7 3824.9 227.8 3612.9 227.8 3611.1 458.6 3476.3 458.6 3477.4 Z" data-holc_grade="C"/>
<path d="M 684.4 3348.7 692.4 3677.6 693.4 3680.6 693.3 3685.5 689.4 3906.2 455.5 3902.8 458.6 3479.8 458.6 3477.4 461.1 3476 684.4 3346.8 684.4 3348.7 Z" data-holc_grade="C"/>
<path d="M 689.4 3906.2 689.7 3906.2 689.7 3906.9 689.7 3908.3 693.7 4135.6 693.7 4137.8 450.9 4136.6 453.1 3923.5 455.3 3923.6 455.4 3905.3 455.5 3902.8 689.4 3906.2 Z" data-holc_grade="C"/>
<path d="M 693.7 4135.6 689.7 3908.3 914.5 3906.2 915.6 3906.2 918.8 4135.6 693.7 4135.6 Z" data-holc_grade="C"/>
<path d="M 914.3 3678.6 914.3 3681.2 914.5 3904.8 914.5 3906.2 689.7 3908.3 689.7 3906.9 689.7 3906.2 689.4 3906.2 693.3 3685.5 693.4 3680.6 693.4 3679.5 914.3 3676.2 914.3 3678.6 Z" data-holc_grade="C"/>
<path d="M 922 3446 921 3446 923.8 3564.9 942.3 3588.4 938.7 3676.9 914.3 3678.6 914.3 3676.2 693.4 3679.5 693.4 3680.6 692.4 3677.6 684.4 3348.7 728.9 3317.4 729 3321.2 748.5 3309.9 760.8 3321.2 776.7 3333.5 826.7 3332.4 920.8 3327.9 922 3446 Z" data-holc_grade="C"/>
<path d="M 1147.6 3546.8 1147.1 3898.3 914.5 3904.8 914.3 3681.2 914.3 3678.6 938.7 3676.9 942.3 3588.4 923.8 3564.9 921 3446 922 3446 1144.8 3445.2 1144.4 3546.9 1147.6 3546.8 Z" data-holc_grade="C"/>
<path d="M 1147.1 3898.3 1147.6 3546.8 1148.5 3546.8 1369.4 3545.3 1367.1 3898 1147.1 3899.6 1147.1 3898.3 Z" data-holc_grade="C"/>
<path d="M 695 1606.9 689 1606.9 690.7 1838.2 472.6 1839.3 463.6 1839.3 464.3 1716.9 472.1 1663.9 464.3 1608.4 462.2 1535.5 467.7 1396.5 467.9 1391.3 468 1389.6 696.4 1388 696.3 1392.5 695 1606.9 Z" data-holc_grade="C"/>
<path d="M 1738.2 4125.3 1738.2 4126.3 1600.9 4124 1600.4 3974.9 1600.4 3973 1739 3969.7 1741.3 3969.6 1738.2 4125.3 Z" data-holc_grade="C"/>
<path d="M 921.3 1606.4 709 1606.9 695 1606.9 696.3 1392.5 696.4 1388 696.4 1385.3 755 1384.2 755 1273.4 755 1272.5 942.6 1270.4 949.9 1304.2 975.3 1375.9 927.1 1392 921.3 1606.4 Z" data-holc_grade="C"/>
</g>
<g id="D">
<path d="M 1378.5 2761.2 1376.7 2984.2 1375.5 2984.2 1146.2 2990.8 1144.9 2990.8 1147.7 2901.9 1147.2 2814.7 1147.7 2758.1 1147.7 2757.5 1376.9 2757.5 1378.6 2757.5 1378.5 2761.2 Z" data-holc_grade="D"/>
<path d="M 1739.9 2760.8 1738.6 2988.1 1738.5 2991.4 1738.5 2993 1375.9 2997.3 1375.7 2991.9 1375.5 2984.2 1376.7 2984.2 1378.5 2761.2 1739.9 2757.8 1739.9 2760.8 Z" data-holc_grade="D"/>
<path d="M 1863.5 3010.8 1738.5 2991.4 1738.6 2988.1 1739.9 2760.8 1778.9 2760.3 1829.9 2760.3 1872.6 2764.7 1913.5 2775.8 1924.2 2780.4 1924.1 2784.3 1997.8 2784.9 1995.3 2795.2 1992.6 2898.6 1983 2956.9 1968.5 2991.3 1942.1 2977.4 1924 2976.3 1902.1 2983.6 1874.9 3002.5 1867.2 3011.3 1863.5 3010.8 Z" data-holc_grade="D"/>
<path d="M 2328.9 2396 2329.6 2396 2329.5 2398.4 2329.4 2401.8 2324.2 2534.6 2298.3 2535.7 2299.7 2634.1 2301.5 2633.9 2301.6 2634.5 2137.2 2651.3 2136.1 2666.8 2136.1 2667.6 2117.2 2669.4 2104.7 2678.7 2089.5 2693.6 2080.5 2718.1 2079.4 2755.1 2074.7 2770.8 2060.5 2784.3 2041.6 2785.3 2030.9 2785.2 1997.8 2784.9 1924.1 2784.3 1924.2 2780.4 1932.1 2457.2 1933.7 2455.9 1999.3 2401.4 2011.5 2403.5 2020.5 2395.7 2065 2394.3 2108.1 2393.9 2280.2 2393.1 2328.9 2396 Z" data-holc_grade="D"/>
<path d="M 2328.9 2396 2280.2 2393.1 2108.1 2393.9 2065 2394.3 2020.5 2395.7 2011.5 2403.5 1999.3 2401.4 1933.7 2455.9 1933 2239.6 1933 2237 2129.6 2234.4 2129.6 2236.1 2132.9 2235.8 2332.8 2220.5 2328.9 2396 Z" data-holc_grade="D"/>
<path d="M 2763.1 2175 2764.5 2308.9 2767.2 2307 2767.2 2385 2612.3 2381.7 2549.1 2382.9 2527.3 2390.7 2337 2395 2329.7 2395.2 2329.6 2396 2328.9 2396 2332.8 2220.5 2334.1 2159.1 2435.9 2159.1 2437.1 2159.1 2438.6 2159.1 2440 2168.5 2763.1 2175 Z" data-holc_grade="D"/>
<path d="M 2966.1 2080.2 2966.1 2109.4 2963.4 2126.6 2953.4 2156.6 2929.8 2190.5 2908 2216.1 2851.7 2249.4 2767.2 2307 2764.5 2308.9 2763.1 2175 2763 2174.5 2769.9 2173.9 2771.4 2126.6 2772.9 2079.6 2966.1 2080.2 Z" data-holc_grade="D"/>
<path d="M 2767.2 2385 2767.7 2385 2766 2588.9 2762.8 2598.9 2567.9 2611.7 2517 2614.5 2301.5 2633.9 2299.7 2634.1 2298.3 2535.7 2324.2 2534.6 2329.4 2401.8 2329.5 2398.4 2329.6 2396 2329.7 2395.2 2337 2395 2527.3 2390.7 2549.1 2382.9 2612.3 2381.7 2767.2 2385 Z" data-holc_grade="D"/>
<path d="M 2293.2 2747.6 2301.6 2747.4 2301.8 2757.6 2307.1 2982.9 2301.2 2982.9 2081.7 2981.9 2065.8 2989.6 2065.3 2958.5 2052.6 2899.7 2034.8 2869.1 2014.8 2845.8 2009.8 2811.9 2020.7 2793 2030.9 2785.2 2041.6 2785.3 2060.5 2784.3 2074.7 2770.8 2079.4 2755.1 2080.5 2718.1 2089.5 2693.6 2104.7 2678.7 2117.2 2669.4 2136.1 2667.6 2136.1 2666.8 2142.4 2670.5 2153.5 2682.4 2163.3 2697.4 2168.4 2710.7 2167.2 2727.6 2163.9 2745.8 2169.3 2751.3 2293.2 2747.6 Z" data-holc_grade="D"/>
<path d="M 2534.3 2745 2536.1 2871.2 2531.6 2906.7 2533 2984.7 2533 2985.6 2370.7 2989 2372.1 3043.4 2301.2 3040.1 2301.2 2982.9 2307.1 2982.9 2301.8 2757.6 2301.6 2747.4 2293.2 2747.6 2293 2747.4 2534.3 2743.4 2534.3 2745 Z" data-holc_grade="D"/>
<path d="M 2533 2984.7 2531.6 2906.7 2536.1 2871.2 2534.3 2745 2764.1 2746 2761.2 2790.8 2767 2812.1 2763.8 2897.4 2761 2982 2533 2984.7 Z" data-holc_grade="D"/>
<path d="M 916.5 2597 925.5 2644 1151.9 2644 1152.8 2644 1375.5 2643.9 1375.6 2649.2 1376.9 2757.5 1147.7 2757.5 1147.7 2758.1 1145.4 2758 918.1 2755.3 918.2 2749.1 841 2748 861.3 2706 892.1 2649.2 909.4 2606.3 916.2 2595.4 916.5 2597 Z" data-holc_grade="D"/>
<path d="M 2758.8 3448.2 2630.9 3446.6 2631 3450.3 2519.6 3446.7 2518.6 3220.6 2434.9 3219.5 2439.4 3134 2527.6 3132.3 2530.8 3203.9 2764 3207.2 2758.8 3448.2 Z" data-holc_grade="D"/>
<path d="M 2068.1 3436.9 2068.2 3435.1 2070 3432.9 2069 3215.7 2066.1 3215.7 2074.4 3042.4 2389.8 3083.1 2387 3209.8 2272.9 3212.3 2269.5 3269.9 2250.8 3274.1 2247.1 3353.1 2273 3353.4 2269.1 3441.8 2068.1 3436.9 Z" data-holc_grade="D"/>
<path d="M 2068.2 3435.1 2068.2 3433.8 2063.2 3434.1 1869.6 3445.1 1822.8 3447.8 1822.5 3447.2 1822.4 3446.9 1745.7 3449.4 1743 3449.5 1736.5 3383.7 1739.9 3383.6 1740.8 3383.6 1734 3218 1901.3 3217.4 1900.7 3213.6 2066.1 3215.7 2069 3215.7 2070 3432.9 2068.2 3435.1 Z" data-holc_grade="D"/>
<path d="M 1736.5 3383.7 1602.1 3386.9 1601.8 3339.3 1588.4 3353.2 1574.5 3352.8 1555.8 3346.4 1539 3331.1 1524.7 3304.8 1517.4 3278.5 1518.6 3259.7 1534.3 3236.9 1555 3223.4 1387.2 3217.8 1384.8 3217.7 1384.7 3217.5 1385.4 3217.5 1385.3 3216.5 1380.4 3161.4 1375.9 2997.3 1738.5 2993 1738.5 2991.4 1863.5 3010.8 1853.5 3028 1851.7 3042.5 1855.3 3068.6 1867.6 3094.1 1875.4 3120.8 1868.1 3138 1858.5 3151.3 1854.9 3160.8 1855.8 3174.1 1865.8 3181.9 1886.7 3190.8 1899.5 3205.8 1900.7 3213.6 1901.3 3217.4 1734 3218 1740.8 3383.6 1739.9 3383.6 1736.5 3383.7 Z" data-holc_grade="D"/>
<path d="M 1384.7 3217.5 1382.7 3217.4 1145.8 3215.2 1143.5 3215.2 1146.2 2990.8 1375.5 2984.2 1375.7 2991.9 1375.9 2997.3 1380.4 3161.4 1385.3 3216.5 1385.4 3217.5 1384.7 3217.5 Z" data-holc_grade="D"/>
<path d="M 748.5 3309.9 729 3321.2 728.9 3317.4 722.7 3012.9 726 3008.5 725.9 3009.6 794.5 2953.5 836.3 2923 857.2 2906.3 877.7 2907.4 895.9 2921.3 916.8 2952.4 916.8 2948.2 946.7 2985.5 970.3 3004.3 983.9 3004.3 990.6 3006.1 991.5 3081.4 991.5 3082.6 912.6 3124.5 914 3213.3 914 3213.5 748.5 3309.9 Z" data-holc_grade="D"/>
<path d="M 841 2748 918.2 2749.1 918.1 2755.3 916.8 2948.2 916.8 2952.4 895.9 2921.3 877.7 2907.4 857.2 2906.3 836.3 2923 794.5 2953.5 725.9 3009.6 726 3008.5 729.5 2987.9 690.9 2987.4 714.1 2930.1 666.3 2929.6 665.9 2929.5 666.4 2887.9 645 2900.1 629.5 2896.8 613.6 2879 594.1 2854.6 600 2836.8 621.4 2816.2 642.8 2793.5 643.7 2782.9 638.2 2767.9 631.4 2757.4 637.3 2749 637.3 2746.5 637.3 2746.1 637.6 2746 638.7 2745.6 651.8 2746.5 664 2753.8 678.4 2765 691.4 2765.2 711.7 2757.9 719.5 2751.8 736.6 2747.5 754.3 2752.7 759.7 2766.1 759.3 2779.3 753.2 2797.5 737.7 2806.6 725.5 2815.3 716.9 2821.8 721.5 2836.6 742 2843.9 768.4 2841.2 795.1 2828.2 820.8 2803 835.3 2780.9 839.7 2754.4 840.7 2748.6 841 2748 Z" data-holc_grade="D"/>
<path d="M 909.4 2606.3 892.1 2649.2 861.3 2706 841 2748 840.7 2748.6 839.7 2754.4 835.3 2780.9 820.8 2803 795.1 2828.2 768.4 2841.2 742 2843.9 721.5 2836.6 716.9 2821.8 725.5 2815.3 737.7 2806.6 753.2 2797.5 759.3 2779.3 759.7 2766.1 754.3 2752.7 736.6 2747.5 719.5 2751.8 711.7 2757.9 691.4 2765.2 678.4 2765 664 2753.8 651.8 2746.5 638.7 2745.6 637.6 2746 637.3 2746.1 634.7 2545.5 663.8 2527.9 844.1 2526.8 840.9 2622.8 912.8 2598 909.4 2606.3 Z" data-holc_grade="D"/>
<path d="M 634.7 2545.5 637.3 2746.1 637.3 2746.5 637.3 2749 631.4 2757.4 638.2 2767.9 643.7 2782.9 642.8 2793.5 621.4 2816.2 600 2836.8 594.1 2854.6 613.6 2879 629.5 2896.8 645 2900.1 666.4 2887.9 665.9 2929.5 665.9 2929.6 465.1 2935.5 466.2 2878.7 461.6 2688.8 472.4 2686.2 488.3 2685.6 511.5 2674 518.7 2659 517.4 2647.3 517.4 2631.2 523.8 2614.6 537.4 2601.2 574.2 2573.5 598.3 2556.3 634.7 2545.2 634.7 2545.5 Z" data-holc_grade="D"/>
<path d="M 461.6 2688.8 466.2 2878.7 465.1 2935.5 463 3043.9 340.9 3043.3 333.2 3048.9 331.3 3038.9 329.1 3021.1 319.5 2994.4 311.4 2981.7 283.2 2972.2 268.2 2966.6 255.5 2960.5 248.2 2948.3 249.6 2938.9 266.8 2928.3 281.4 2919.4 294.6 2910 308.2 2901.7 312.8 2886.7 312.8 2869.4 307.8 2850 301 2827.2 296.4 2802.8 297.8 2787.2 305.1 2761.1 314.2 2743.9 324.7 2726.1 339.2 2716.7 382.8 2706.7 412.8 2698.4 436.5 2692.8 461.5 2685.1 461.6 2688.8 Z" data-holc_grade="D"/>
<path d="M 463 3043.9 465.4 3043.9 457.9 3432.8 227.9 3433.2 226.7 3224.7 241.2 3225.6 256.3 3229.5 273.2 3224.9 281.9 3210.3 284.3 3190.8 285.1 3174.4 287.5 3163.7 298.8 3137.1 313.4 3112.6 324.2 3082 330.9 3050.5 333.2 3048.9 340.9 3043.3 463 3043.9 Z" data-holc_grade="D"/>
<path d="M 226.7 3224.7 227.9 3433.2 228 3434.9 224.5 3434.4 223.9 3434.4 223.9 3452.1 133.4 3453.7 61.1 3459.8 5.7 3458.1 4.7 3458.1 1.5 3099.9 118.2 3100.6 147.7 3096 162.9 3104.4 178.2 3120.2 188.4 3128.4 190.5 3151.8 186.9 3166.8 175 3188.4 164.4 3201.2 152.3 3211.9 145.4 3218.1 145.2 3227.4 158.9 3231.6 174.9 3229.6 200.1 3222.6 215.5 3222.6 226.7 3223.8 226.7 3224.7 Z" data-holc_grade="D"/>
<path d="M 461.1 3476 458.6 3477.4 458.6 3476.3 227.8 3611.1 227.7 3608.1 5 3728.2 15.1 3624.2 5.7 3458.1 61.1 3459.8 133.4 3453.7 223.9 3452.1 223.9 3434.4 224.5 3434.4 228 3434.9 227.9 3433.2 457.9 3432.8 461.2 3432.8 461.1 3476 Z" data-holc_grade="D"/>
<path d="M 1382.7 3217.4 1383.5 3543 1381.3 3543 1381.2 3545.2 1369.4 3545.3 1148.5 3546.8 1147.6 3546.8 1144.4 3546.9 1144.8 3445.2 1145.8 3215.2 1382.7 3217.4 Z" data-holc_grade="D"/>
<path d="M 1384.7 3217.5 1384.8 3217.7 1387.2 3217.8 1555 3223.4 1534.3 3236.9 1518.6 3259.7 1517.4 3278.5 1524.7 3304.8 1539 3331.1 1555.8 3346.4 1574.5 3352.8 1588.4 3353.2 1601.8 3339.3 1602.1 3386.9 1736.5 3383.7 1743 3449.5 1742.1 3449.6 1741.6 3544.1 1385.8 3543 1383.5 3543 1382.7 3217.4 1384.7 3217.5 Z" data-holc_grade="D"/>
<path d="M 1822.8 3447.8 1926.8 3676.3 1927.2 3677.1 1927.8 3678.3 1956.2 3735.7 1956.5 4126.8 1954.8 4126.8 1953.9 4126.8 1738.2 4125.3 1741.3 3969.6 1739 3969.7 1740.2 3769.9 1741.5 3546.9 1741.6 3544.1 1742.1 3449.6 1743 3449.5 1745.7 3449.4 1822.4 3446.9 1822.5 3447.2 1822.8 3447.8 Z" data-holc_grade="D"/>
<path d="M 2187 3675.7 2185.6 3886.3 2193.6 3912.7 2289.5 3913.6 2289.5 3915 2291.2 4026.8 2292.4 4121.3 1956.5 4126.8 1956.2 3735.7 1927.8 3678.3 2159.6 3672.3 2185.8 3675.6 2187 3675.7 Z" data-holc_grade="D"/>
<path d="M 2068.2 3435.1 2068.1 3436.9 2066.5 3582.8 2070 3588.5 2145.3 3587.4 2189.5 3592.7 2191 3674.7 2191 3676.2 2187 3675.7 2185.8 3675.6 2159.6 3672.3 1927.8 3678.3 1927.2 3677.1 1926.8 3676.3 1822.8 3447.8 1869.6 3445.1 2063.2 3434.1 2068.2 3433.8 2068.2 3435.1 Z" data-holc_grade="D"/>
<path d="M 2522.2 3908 2522.2 3914.3 2519.9 3914.3 2416.3 3915.1 2409.3 3917.2 2400.9 3913.3 2301.4 3913.7 2289.5 3915 2289.5 3913.6 2193.6 3912.7 2185.6 3886.3 2187 3675.7 2191 3676.2 2191 3674.7 2517.9 3673.4 2522 3756 2522.2 3908 Z" data-holc_grade="D"/>
<path d="M 2519.9 3914.3 2522.2 3914.3 2522.2 3908 2545.2 3910.8 2595 3904 2760.8 3898.2 2757.1 3920.6 2761.5 4137.8 2522.3 4135.8 2519.9 3914.3 Z" data-holc_grade="D"/>
<path d="M 2758.8 3448.2 2760.9 3448.2 2758.8 3674.3 2636.5 3670 2631 3450.3 2630.9 3446.6 2758.8 3448.2 Z" data-holc_grade="D"/>
</g>
</svg>