<?xml version="1.0"?>
<svg xmlns="http://www.w3.org/2000/svg" version="1.2" baseProfile="tiny" width="3000" height="2168" viewBox="0 0 3000 2168" stroke-linecap="round" stroke-linejoin="round">
<g id="A">
<path d="M 404.8 2002.6 404.8 2019.2 400.4 2006.9 391.1 1995.9 373.2 1938 319.9 1790.2 299.7 1739.2 280.9 1705.9 261 1672.9 226.4 1614.7 194.1 1556.6 174.6 1528.1 166 1505.6 149.7 1478.3 69.9 1501.3 59.4 1444.8 55.1 1428.5 52.5 1402.6 51.1 1390.3 47.5 1368.8 34.8 1312.7 26 1265.5 17.5 1200.4 13.5 1160.2 11.1 1111.9 6.8 1080.7 3.1 1059.4 4.2 1019.1 3.1 1000.7 1 980.7 1.3 953.5 3.2 935.9 3.4 920.1 20.3 919.6 29.7 915.9 86.7 905.5 152 898.1 234.4 884.5 303.8 873.9 388.4 867.5 513.6 853.7 515.5 864.9 524.9 897.9 528.1 931.8 532.9 955.8 539 1001.2 544.9 1027.6 518.1 1087 507.4 1101.7 484.6 1135 468 1163.8 431.6 1223.8 435.6 1312.6 440.9 1384.9 519.1 1360.6 538.6 1406.5 545 1428.1 567.8 1489.2 444.1 1530.8 384.6 1545.4 329.8 1568.9 337 1601.7 345.5 1659.3 349.8 1674 352.5 1695.6 371.3 1789 375.6 1817.9 390.7 1922.2 392.9 1943.2 399.4 1973.8 404.5 1991.7 404.8 2002.6 Z" data-holc_grade="A"/>
<path d="M 1295.7 1682.7 1293.6 1747.7 1325.8 1750.2 1381 1746.9 1428.7 1731 1449 1782.2 1454.5 1809 1453.9 1829.9 1445.9 1852.2 1435.4 1905.7 1436 1966.3 1435.7 2005.2 1431.4 2015.1 1432.5 2029.5 1428.2 2043.1 1425.5 2069.2 1421.8 2093.5 1422 2143.4 1255.7 2149.3 1083.8 2148.2 961.2 2158.6 877.1 2167.3 823.6 2155.1 836.4 2113.7 847.6 2094.9 852.5 2086.8 860 2070 887.6 2035 960.5 1944.4 1022.9 1859.4 1046.7 1819.4 1079.4 1772.7 1102.5 1738 1121.2 1705.6 1138.7 1680.8 1144 1670.4 1174 1688.5 1295.7 1682.7 Z" data-holc_grade="A"/>
<path d="M 2041.9 1170.2 2039.9 1166.5 2084.4 1100.8 2086.4 1098.3 2108 1071.6 2110.1 1069.1 2133.3 1033.7 2141.4 1021.4 2149.5 1004.7 2151 1001.5 2154.1 998 2157.4 994.2 2161 991.7 2173.3 983.1 2176.2 981.1 2182.9 972.3 2234.2 985.6 2240.6 964.8 2257.6 880.4 2270.5 803.2 2272.9 707.7 2284.2 705.8 2377.3 709.3 2520.5 717.5 2538.9 721 2538.7 741.3 2539.3 864.2 2531.4 1101 2531.4 1184 2396.7 1180.2 2317.8 1177.2 2224.7 1177.5 2041.9 1170.2 Z" data-holc_grade="A"/>
<path d="M 1835.6 1041.5 1827.2 1113.8 1830 1131.2 1843.5 1173.4 1859.1 1216.5 1727.7 1251.1 1624.6 1276.2 1596.8 1167.4 1591.6 1123.8 1586.4 1088.8 1586.7 1084.2 1585.6 1074.7 1603.8 1061.5 1638.4 1022.9 1664.8 995.2 1774.7 884.1 1884.4 771.8 1875.8 807.6 1864.5 855.5 1856.1 898 1852 912.6 1849 936.3 1845.3 958.4 1839.8 999.3 1836.5 1026.8 1835.6 1041.5 Z" data-holc_grade="A"/>
</g>
<g id="B">
<path d="M 2052.9 1387.7 2053.8 1372.5 2054.9 1354.4 2056.7 1322.6 2056.9 1310.6 2057.2 1293.1 2057.6 1272.6 2055.9 1231.5 2054.7 1218.2 2052.9 1197.3 2041.9 1170.2 2224.7 1177.5 2317.8 1177.2 2396.7 1180.2 2531.4 1184 2531.4 1101 2539.3 864.2 2538.7 741.3 2538.9 721 2520.5 717.5 2377.3 709.3 2284.2 705.8 2272.9 707.7 2270.5 803.2 2257.6 880.4 2240.6 964.8 2234.2 985.6 2182.9 972.3 2129 970.2 2120.2 861.8 2123.2 778.3 2123.4 721.1 2113.5 719.2 2049.5 726.1 2042.6 729.1 2015.4 729.9 1953.7 737.6 1912.9 754.8 1884.4 771.8 1774.7 884.1 1664.8 995.2 1638.4 1022.9 1603.8 1061.5 1585.6 1074.7 1637.6 953.9 1678.3 836.5 1740.3 666.7 1903.9 245.5 1980.5 235.8 2030.7 223.7 2079.9 210.3 2136.8 202.3 2233.5 196.9 2294.8 181.3 2429.6 162.8 2649 126 2782 106.7 2867 90.4 2938.3 81 2957.6 77.1 2956.3 101.1 2967.5 157.1 2974 208.8 2980.9 269.1 2982.6 323 2990.8 408.6 2999 464.2 2942.8 468.5 2865.5 488.2 2800.2 510.5 2808.3 583.8 2831.6 690.1 2852.3 815.9 2849.3 883 2851.5 961.3 2944.3 955.7 2960.2 1021.4 2968.3 1072.2 2970.3 1123 2969.5 1136.5 2977.2 1224.1 2969.8 1237.2 2919.2 1281.6 2823.1 1350.9 2729.6 1422.2 2631 1492.9 2598.6 1517.5 2555 1517.2 2531.8 1515.1 2527.5 1494.5 2527.5 1424.4 2527.4 1394.4 2441.6 1392.7 2401.2 1393.6 2325.2 1389.8 2229.8 1389.8 2146.5 1387.7 2053.5 1387.7 2052.9 1387.7 Z" data-holc_grade="B"/>
<path d="M 1093.7 847.6 1086.6 834.3 1046.5 792.6 985.8 724.7 940.3 671.3 911 633.4 879.2 591.7 852.9 560.5 811.5 577.1 743.7 599.2 598.5 643.6 574.2 566.5 547.2 474.5 524.7 386.8 536.8 360.7 548.8 345.7 573.5 300.2 592.5 269.8 620.6 226.6 631.6 215.1 653.5 205.5 683.2 205 699.8 212.7 706.2 230.6 721.2 252.5 734 275.7 767 322.1 799.1 337.8 826.4 345.3 867 348.7 889 339.4 908.5 310.9 928.1 257.3 945.5 228 952.4 208.8 956.7 184 965.3 170.9 981.9 159.2 993.1 149.9 1002.2 133.6 1009.7 120 1026.3 104.6 1043.7 96 1062.7 95.5 1074.2 94.7 1098 85.6 1113.8 83.8 1136.3 69.9 1154.2 58.7 1163.3 53.7 1181.5 37.9 1194.1 31 1200 33.9 1222.5 60.6 1242 84.1 1246.5 97.9 1252.4 137.6 1256.2 173.4 1257.2 187.8 1263.4 226.7 1269.8 273.6 1270.6 301.1 1277.6 349.1 1202.1 356 1150.4 366.4 1109 373 1084.1 376 1073.1 383.2 1099.8 431.7 1121.2 472 1145.8 516.3 1165.7 566.6 1187.1 619.4 1200.7 649.3 1294.4 626.1 1300.3 696.2 1304 739.4 1311.3 796.5 1310.2 822.4 1313.9 860 1320.1 929.6 1323.3 981 1325.2 1006.4 1285 1013.8 1259.8 1018.6 1220 978.1 1185.2 940.7 1147.4 906.6 1111.6 869.5 1093.7 847.6 Z" data-holc_grade="B"/>
<path d="M 837.5 908.8 860.4 938.5 873.2 957.7 904.7 1000.8 944.6 1050.3 971.7 1082.4 1002.4 1125.9 1041.4 1186.3 1063.3 1214.8 1074.5 1231.9 1146.6 1217.6 1199.9 1214.9 1203.1 1234.6 1201.7 1274.4 1201.5 1333 1201.7 1385.8 1204.7 1406.9 1206.3 1467.2 1210 1550.7 1214.6 1561.1 1249.9 1560.6 1298.4 1559.8 1295.7 1682.7 1174 1688.5 1144 1670.4 1138.7 1680.8 1121.2 1705.6 1102.5 1738 1079.4 1772.7 1046.7 1819.4 1022.9 1859.4 960.5 1944.4 887.6 2035 860 2070 852.5 2086.8 847.6 2094.9 836.4 2113.7 823.6 2155.1 709.8 2160.1 718.1 2129.6 721.2 2106.5 717.6 2086.4 726 2014 732.7 1961.9 736.1 1916.2 740.2 1868.2 735.5 1823.8 728.3 1770.5 726.4 1749.9 732.7 1701.1 736.5 1633.3 747.8 1619.8 783.5 1613.5 794.8 1615.4 828.5 1592 869.7 1557.2 876.5 1495.4 880.7 1456.7 878.1 1407 874.3 1370.5 863.9 1308.1 854.1 1275.2 668.8 1315.3 655.2 1256.6 638 1140.8 649.1 1116.6 666.9 1080.4 683.4 1031.8 718.9 925.5 836.6 907.6 837.5 908.8 Z" data-holc_grade="B"/>
<path d="M 404.8 2002.6 510.1 2033.1 505.2 2047.2 480.6 2091.5 458.9 2123.5 447.4 2143.8 434 2166.4 282.4 2076.5 227.8 2048.7 192.2 2026.6 169 1942.8 165 1938 150.3 1839.8 141.2 1786.1 128.6 1741.2 112.3 1676.3 103.1 1641.1 97.4 1621.3 88 1581 80.7 1551.5 69.9 1501.3 149.7 1478.3 166 1505.6 174.6 1528.1 194.1 1556.6 226.4 1614.7 261 1672.9 280.9 1705.9 299.7 1739.2 319.9 1790.2 373.2 1938 391.1 1995.9 400.4 2006.9 404.8 2019.2 404.8 2002.6 Z" data-holc_grade="B"/>
<path d="M 2007.7 1956.9 2037.6 1995.8 2082.4 2049.5 2105 2076.9 2074.4 2083.7 2010.5 2097.1 1920.6 2110.1 1864.9 2117.4 1812 2123.4 1789.4 2125.8 1761.4 2130 1751.2 2120.3 1748.5 2107.9 1753.6 2088.3 1754.1 2068.8 1749.8 2058.2 1743.2 2046.7 1745.2 2040.1 1761.2 2041.5 1770.7 2040.1 1776.9 2029 1776 1967.2 1770.3 1909 1756.1 1883.9 1744.2 1858.5 1738 1785.9 1728 1695.9 1671.8 1622.6 1610.3 1533.3 1566.6 1467.1 1571.5 1412.3 1573 1358.6 1559.9 1343.3 1556.9 1337.6 1559 1333 1583.3 1329.4 1638.7 1314.8 1624.6 1276.2 1727.7 1251.1 1859.1 1216.5 1863.1 1230.9 1866 1299 1878.7 1364.5 1868.4 1364.6 1826.1 1478.6 1831 1542 1831.9 1611.2 1836.2 1655.7 1839.9 1675.1 1839.5 1695.3 1834.6 1717.1 1831.5 1728.7 1877.9 1789.1 1890.2 1803.5 1907.4 1825.1 1962.7 1894.8 1988.5 1926.2 2007.7 1956.9 Z" data-holc_grade="B"/>
<path d="M 2531.8 1515.1 2531.4 1674.2 2688.2 1677.2 2692.1 1845.4 2690.4 1990.4 2657.8 1995.2 2486.8 2020 2254.6 2054.6 2105 2076.9 2082.4 2049.5 2037.6 1995.8 2007.7 1956.9 2083.3 1954.7 2084.6 1884.9 2086.5 1820.8 2084 1767.4 2138.2 1764.1 2137.6 1692.6 2135.7 1616.2 2131.8 1592.1 2057.1 1589.1 2055.7 1550.5 2051 1507.8 2051.4 1485.9 2052.9 1387.7 2053.5 1387.7 2146.5 1387.7 2229.8 1389.8 2325.2 1389.8 2401.2 1393.6 2441.6 1392.7 2527.4 1394.4 2527.5 1424.4 2527.5 1494.5 2531.8 1515.1 Z" data-holc_grade="B"/>
</g>
<g id="C">
<path d="M 747.8 1619.8 735.6 1597 721.4 1561.5 712.9 1534.3 701.9 1508.7 693.1 1472.2 685 1438.3 657.2 1319.1 668.8 1315.3 854.1 1275.2 863.9 1308.1 874.3 1370.5 878.1 1407 880.7 1456.7 876.5 1495.4 869.7 1557.2 828.5 1592 794.8 1615.4 783.5 1613.5 747.8 1619.8 Z" data-holc_grade="C"/>
<path d="M 1367.8 1210 1367.6 1212.5 1367.2 1252.2 1364.2 1289.6 1359.9 1323.2 1356.2 1372.3 1355.1 1443.5 1357.5 1505.3 1364.5 1530.7 1373.9 1560.3 1380.5 1585.9 1404.1 1669.4 1428.7 1731 1381 1746.9 1325.8 1750.2 1293.6 1747.7 1295.7 1682.7 1298.4 1559.8 1249.9 1560.6 1214.6 1561.1 1210 1550.7 1206.3 1467.2 1204.7 1406.9 1201.7 1385.8 1201.5 1333 1201.7 1274.4 1203.1 1234.6 1199.9 1214.9 1219.7 1210.4 1267.3 1204 1308.5 1197.6 1367.8 1210 Z" data-holc_grade="C"/>
<path d="M 1310.2 822.4 1311.3 796.5 1304 739.4 1300.3 696.2 1294.4 626.1 1200.7 649.3 1187.1 619.4 1165.7 566.6 1145.8 516.3 1121.2 472 1099.8 431.7 1073.1 383.2 1084.1 376 1109 373 1150.4 366.4 1202.1 356 1277.6 349.1 1270.6 301.1 1269.8 273.6 1263.4 226.7 1257.2 187.8 1256.2 173.4 1252.4 137.6 1246.5 97.9 1242 84.1 1222.5 60.6 1200 33.9 1194.1 31 1227 12.9 1259.9 4.2 1287.7 1.3 1305.7 1 1332.9 3.7 1348.5 12.1 1363 29.3 1376.9 47.8 1388.5 63.8 1406 84.8 1423.9 100.5 1443.5 129.7 1459 163.8 1465.7 185.6 1468.4 203.2 1466.2 237.9 1466.8 257.1 1473.7 281.6 1481.7 316.8 1486.3 341.3 1491.9 368.8 1489.8 388 1479.6 409.3 1461.1 438.7 1449.4 468.5 1442.9 488.5 1439.2 509.9 1446.7 536.5 1458.2 553.5 1472.8 571.1 1494 586.3 1490.6 605 1491.1 637.8 1487.9 681.8 1485.8 717.6 1483.9 745.6 1482.3 778.9 1482 792.3 1437.9 797.9 1416.1 801.6 1386.1 809.3 1352.2 812.1 1310.2 822.4 Z" data-holc_grade="C"/>
<path d="M 1903.9 245.5 1740.3 666.7 1678.3 836.5 1637.6 953.9 1585.6 1074.7 1576.7 1083.6 1563.3 1109 1554.9 1124.8 1537.4 1141.6 1520.2 1152.6 1507 1129.1 1518.4 1118.1 1525.9 1086.7 1527.3 1058.7 1526.6 1028.8 1529.3 1007.5 1526.1 964.9 1539.3 896.7 1556.5 810.5 1551.3 751.7 1551.3 711.2 1546.1 687.4 1544.4 641.4 1546.9 625.8 1555.5 615 1560.2 584.7 1557.3 568.4 1524.5 548.3 1509.6 538.7 1493.4 540.5 1483.2 535.7 1475.1 523.1 1471.2 505.9 1469.5 486.7 1478.4 464.2 1491.1 433.9 1524.7 394.9 1528.9 378.9 1523.6 344.2 1516.6 330 1511.9 310.6 1516.4 306.7 1668.8 285 1739.8 274.4 1845.9 252.7 1886.6 244.4 1903.9 245.5 Z" data-holc_grade="C"/>
<path d="M 2129 970.2 2182.9 972.3 2176.2 981.1 2173.3 983.1 2161 991.7 2157.4 994.2 2154.1 998 2151 1001.5 2149.5 1004.7 2141.4 1021.4 2133.3 1033.7 2110.1 1069.1 2108 1071.6 2086.4 1098.3 2084.4 1100.8 2039.9 1166.5 2041.9 1170.2 2052.9 1197.3 2054.7 1218.2 2055.9 1231.5 2057.6 1272.6 2057.2 1293.1 2056.9 1310.6 2056.7 1322.6 2054.9 1354.4 2053.8 1372.5 2052.9 1387.7 2051.4 1485.9 2051 1507.8 1976.7 1505.1 1940.7 1523.9 1935.3 1524.3 1902.2 1514.7 1880.5 1501.4 1878.7 1364.5 1866 1299 1863.1 1230.9 1859.1 1216.5 1843.5 1173.4 1830 1131.2 1827.2 1113.8 1835.6 1041.5 2067.4 967.9 2129 970.2 Z" data-holc_grade="C"/>
</g>
<g id="D">
<path d="M 837.5 908.8 836.6 907.6 718.9 925.5 714.8 913.8 713.1 882.9 712.7 854.6 709 819.2 706.1 801.3 765 729.2 754.2 665.9 748.8 620.5 743.7 599.2 811.5 577.1 852.9 560.5 879.2 591.7 911 633.4 940.3 671.3 985.8 724.7 1046.5 792.6 1086.6 834.3 1093.7 847.6 1088.3 859.7 1069.9 869.7 1030.6 892.2 1000.7 889.3 912.4 896.7 837.5 908.8 Z" data-holc_grade="D"/>
<path d="M 1624.6 1276.2 1638.7 1314.8 1583.3 1329.4 1559 1333 1556.9 1337.6 1559.9 1343.3 1573 1358.6 1571.5 1412.3 1566.6 1467.1 1564.8 1487.1 1561.5 1545.5 1556.4 1610.3 1570.1 1689.8 1549.6 1697.3 1500.6 1711.5 1461.7 1721 1428.7 1731 1404.1 1669.4 1380.5 1585.9 1373.9 1560.3 1364.5 1530.7 1357.5 1505.3 1355.1 1443.5 1356.2 1372.3 1359.9 1323.2 1364.2 1289.6 1367.2 1252.2 1367.6 1212.5 1367.8 1210 1369 1195.4 1407.9 1137.9 1437.2 1155.4 1452.7 1170.1 1484 1166.2 1520.2 1152.6 1537.4 1141.6 1554.9 1124.8 1563.3 1109 1576.7 1083.6 1585.6 1074.7 1586.7 1084.2 1586.4 1088.8 1591.6 1123.8 1596.8 1167.4 1624.6 1276.2 Z" data-holc_grade="D"/>
</g>
</svg>