<?xml version="1.0"?>
<svg xmlns="http://www.w3.org/2000/svg" version="1.2" baseProfile="tiny" width="3000" height="4537" viewBox="0 0 3000 4537" stroke-linecap="round" stroke-linejoin="round">
<g id="A">
<path d="M 2616.6 592.7 2564.2 580 2536.6 561 2511.8 530 2509 485.6 2367.5 480 2366.8 416.6 2345.5 389.8 2256.4 361 2218.5 346.6 2218.9 331.4 2241.5 339.1 2291.1 357.5 2359 381.4 2384.5 414.5 2386.6 431.4 2530.2 436.3 2550.7 460.2 2559.9 496.9 2614.4 539.1 2678.1 546.9 2709.9 544.7 2734.7 550.4 2738.3 588.4 2759.5 605.3 2802.7 625.7 2793.5 644.1 2820.4 658.2 2847.2 661.7 2859.3 680.7 2872 693.4 2910.2 725.1 2913.1 805.4 2945.7 862.5 2985.4 983.7 2985.4 1051.4 2928.1 1052.1 2930.2 999.2 2918.9 953.4 2889.8 861.8 2870 837.1 2840.3 841.4 2829.6 827.3 2902.5 827.3 2892.6 798.4 2894 769.5 2853 769.5 2854.4 748.3 2811.9 725.1 2750.3 688.5 2721.3 687.1 2724.8 587 2688 601.1 2616.6 592.7 Z" data-holc_grade="A"/>
<path d="M 1917.7 1014.2 1913.4 1196.8 1796.1 1199.3 1800.2 1037.7 1786 1034.8 1774 1049.5 1688.9 1053.9 1663.5 1023 1675.6 965.8 1665.7 949.3 1650.2 911.8 1646.9 884.3 1858 882.1 1869.1 904.1 1865.8 938.2 1906.7 958 1916.6 984.5 1917.7 1014.2 Z" data-holc_grade="A"/>
<path d="M 1793.9 1416.2 1652.3 1412.7 1477.5 1412 1477.5 1307 1440 1306.2 1440.7 1230.1 1416 1229 1418.1 1151.2 1454.2 1158.2 1522.8 1156.8 1522.1 1128.6 1675.7 1131.4 1675.7 1202.6 1667.2 1262.5 1670 1307.7 1791.7 1306.2 1793.9 1387.3 1793.9 1416.2 Z" data-holc_grade="A"/>
<path d="M 708.8 2654.3 710.4 2695.9 710.7 2706.7 573.4 2701.5 476 2695.8 482.4 2663.7 509 2647.7 540.4 2646.1 562.2 2607.6 567 2587.5 596 2575.5 621 2553.9 658.9 2556.3 661.3 2657.4 708.8 2654.3 Z" data-holc_grade="A"/>
</g>
<g id="B">
<path d="M 2372.7 1315.3 2261.6 1314.1 2286.4 1285 2287.8 1170.1 2368.4 1171.5 2372 1254.6 2372.7 1315.3 Z" data-holc_grade="B"/>
<path d="M 1416 1229 1440.7 1230.1 1440 1306.2 1477.5 1307 1477.5 1412 1652.3 1412.7 1793.9 1416.2 1793.9 1586.8 1650.9 1584 1648.1 1546.6 1603.5 1546.6 1604.9 1446.5 1527.1 1445.8 1441.2 1443.8 1236.7 1292.9 1234.8 1284.4 1238.9 1221.3 1416 1229 Z" data-holc_grade="B"/>
<path d="M 1236.7 1292.9 1235.7 1565.7 1201.5 1567.8 1202.2 1432.4 1031 1434.5 1047.3 1389.4 1057.9 1386.6 1088.3 1395.7 1089.7 1352 1075.6 1354.9 1067.8 1339.3 1067.8 1325.2 1090.4 1315.4 1091.1 1285.1 1234.8 1284.4 1236.7 1292.9 Z" data-holc_grade="B"/>
<path d="M 1221.3 2068.2 1277.2 2067.7 1278.6 2135.4 1437.2 2137.5 1437.2 2227.8 1236.1 2226.3 1236.8 2279.9 1079.7 2275 1079.7 2308.1 1115.8 2309.5 1119.3 2404 945.7 2401.2 947.3 2263.7 947.3 2171.3 968.5 2177.6 1015.2 2267.2 1028.7 2265.1 1019.5 2155.1 1023.1 2109.3 1041.5 2085.3 1070.5 2074 1120 2069.1 1221.3 2068.2 Z" data-holc_grade="B"/>
<path d="M 947.3 2263.7 945.7 2401.2 942.2 2609.2 940.1 2638.9 708.6 2636 708.8 2654.3 661.3 2657.4 658.9 2556.3 660.5 2421.6 464.4 2419.4 464.4 2334.8 541.6 2332 553.6 2347.5 587.6 2346.8 589.1 2277 600.4 2245.9 609.6 2224.1 807.8 2221.3 810 2183.3 853.9 2183.3 851.7 2262.2 947.3 2263.7 Z" data-holc_grade="B"/>
<path d="M 1512.9 2379.4 1257.3 2503.5 1131.3 2574 990.4 2651.6 941.8 2675.7 940.1 2638.9 942.2 2609.2 994.2 2580.3 1092.6 2525.4 1183.7 2474.6 1206.2 2462.3 1276.8 2423.8 1324.6 2397.7 1345.6 2388.6 1515.7 2314.5 1512.9 2379.4 Z" data-holc_grade="B"/>
</g>
<g id="C">
<path d="M 2218.5 346.6 2256.4 361 2345.5 389.8 2366.8 416.6 2367.5 480 2509 485.6 2511.8 530 2536.6 561 2564.2 580 2616.6 592.7 2613.1 694.2 2611 749.2 2570.6 744.3 2527.5 737.2 2479.4 718.2 2419.9 687.9 2377.5 658.3 2374 779.6 2518.3 780.9 2516.3 1034 2536.1 1086.1 2577.9 1143.2 2560.2 1150.9 2512.1 1149.6 2512.1 1314.5 2372.7 1315.3 2372 1254.6 2368.4 1171.5 2367.7 1103.8 2087.5 1098.9 2084.7 1276.6 2084 1312.3 1834.9 1309.8 1791.7 1306.2 1796.1 1199.3 1913.4 1196.8 1917.7 1014.2 2039.4 1017.5 2050.6 748.6 1961.5 750.1 1962.9 608.4 2166.6 603.4 2202 607.7 2310.9 612.6 2366.9 649.9 2366.8 585 2280.5 583.7 2271 574.6 2218.9 518.7 2178.1 468.7 2072.2 341.1 2078.9 333.9 2052.2 307.7 2055.4 280.6 1947.2 151.1 1878.6 64.4 1883.5 1 2047.7 199.7 2080.2 166.5 2108.5 189.8 2113.5 256.7 2126.9 307.5 2145.3 296.9 2182.1 332.8 2218.5 346.6 Z" data-holc_grade="C"/>
<path d="M 2666.6 1900.7 2637.9 1907.3 2552.8 1977.9 2541.7 1959.2 2511 1949 2453.6 1879.3 2504 1796.1 2523.9 1749.8 2490.7 1689.3 2506.2 1593.4 2622.3 1595.6 2643.3 1572.4 2642.1 1517.4 2655.4 1517.3 2720.6 1403.9 2727.2 1314.6 2647.6 1315.8 2643 1079.7 2647.2 1031.1 2744.1 1034.6 2739.9 1083.9 2756.2 1131.1 2780.3 1191.7 2785.3 1217.1 2775.4 1277 2799.5 1323.5 2873.8 1360.2 2885.1 1315 2888.6 1253.7 2999 1268.5 2939.6 1404.5 2900.8 1480 2878.1 1469.4 2837.1 1560.4 2716.2 1810 2666.6 1900.7 Z" data-holc_grade="C"/>
<path d="M 2361.6 1774.9 2362.3 1867.3 2319.1 1868 2154.2 2000.6 2065.1 2055.6 1949.3 2139.8 1878.2 2188.1 1826.6 2232.4 1804.2 2238.3 1792.6 2241.4 1784.1 2253.1 1788.3 1937.2 1793.9 1586.8 1793.9 1416.2 1793.9 1387.3 1791.7 1306.2 1834.9 1309.8 2084 1312.3 2261.6 1314.1 2372.7 1315.3 2323.3 1495.8 2288.6 1587.4 2288.6 1611.4 2285.1 1676.2 2314.8 1678.4 2314.1 1729.8 2325.5 1731.2 2323.3 1772.1 2361.6 1774.9 Z" data-holc_grade="C"/>
<path d="M 2453.6 1879.3 2511 1949 2410.5 2028 2444.5 2069.6 2075 2382.1 2027.4 2423.5 2004.3 2443.5 1926.4 2345.5 1903.7 2366.7 1875.4 2328.6 1804.2 2238.3 1826.6 2232.4 1878.2 2188.1 1949.3 2139.8 2065.1 2055.6 2154.2 2000.6 2319.1 1868 2362.3 1867.3 2361.6 1774.9 2375 1785.5 2421 1839.8 2453.6 1879.3 Z" data-holc_grade="C"/>
<path d="M 943.9 2723 763 2814.1 764.9 2783 801.6 2765.8 803.1 2707.5 710.7 2706.7 710.4 2695.9 708.8 2654.3 708.6 2636 940.1 2638.9 941.8 2675.7 943.9 2723 Z M 1793.9 1586.8 1788.3 1937.2 1784.1 2253.1 1696.1 2325.4 1628.1 2380.9 1609.1 2361.9 1592.8 2373.2 1529.8 2388.1 1514.4 2391.3 1512.9 2379.4 1515.7 2314.5 1345.6 2388.6 1324.6 2397.7 1276.8 2423.8 1206.2 2462.3 1183.7 2474.6 1092.6 2525.4 994.2 2580.3 942.2 2609.2 945.7 2401.2 1119.3 2404 1115.8 2309.5 1079.7 2308.1 1079.7 2275 1236.8 2279.9 1236.1 2226.3 1437.2 2227.8 1437.2 2137.5 1278.6 2135.4 1277.2 2067.7 1221.3 2068.2 1221.3 2018.3 1306.2 2017.6 1309.1 1957 1353.7 1958.5 1370.6 1959.1 1367.1 2067 1426.6 2067 1451.3 2081.8 1517.9 2082.5 1521.4 1816.7 1547.6 1818.1 1548.3 1744.1 1522.8 1743.3 1527.1 1445.8 1604.9 1446.5 1603.5 1546.6 1648.1 1546.6 1650.9 1584 1793.9 1586.8 Z" data-holc_grade="C"/>
<path d="M 1527.1 1445.8 1522.8 1743.3 1548.3 1744.1 1547.6 1818.1 1521.4 1816.7 1517.9 2082.5 1451.3 2081.8 1426.6 2067 1367.1 2067 1370.6 1959.1 1353.7 1958.5 1352.7 1862.4 1231.1 1863.5 1235.5 1605.7 1235.7 1565.7 1236.7 1292.9 1441.2 1443.8 1527.1 1445.8 Z" data-holc_grade="C"/>
<path d="M 939.4 2765 943 2758.9 961.3 2760.9 1158.4 2763.1 1158.6 2799.4 1206.5 2799.6 1224.3 2809.1 1262.4 2806.6 1261.8 2830.6 1262.6 2947.6 1019.3 2945.3 945.3 2944.7 939.4 2765 Z" data-holc_grade="C"/>
<path d="M 2343.9 3650.8 2441.1 3665 2582.9 3599.6 2614.3 3633.4 2582.4 3655.4 2549.3 3662.6 2513.6 3671 2482.3 3686.9 2469.2 3684.6 2464.3 3673.3 2449.8 3681.1 2412.6 3677.7 2412.1 3734.6 2394.1 3735.5 2394.7 3703.7 2371.7 3700.5 2381.3 3737.2 2383.4 3765.6 2384.5 3778.6 2367.1 3778.9 2369.1 3747.6 2354.3 3701.1 2282.7 3690.4 2274.9 3782.4 2249.6 3781.2 2255.7 3703.7 2227.8 3702.9 2152.7 3634.1 2153.8 3624 2174.7 3598.3 2196.5 3588.5 2238 3585 2263.5 3589.3 2289.3 3608.4 2343.9 3650.8 Z M 2831.6 3349.8 2830.3 3428.8 2901.4 3395.3 2899.6 3467.1 2878.3 3465.8 2855.2 3476.6 2853.9 3485.7 2781.8 3484.8 2759.6 3525.5 2633.6 3557.6 2622.3 3529.6 2662.6 3518.7 2671.7 3496.1 2671.6 3428.4 2717.4 3430.2 2716 3345.8 2831.6 3349.8 Z" data-holc_grade="C"/>
<path d="M 102.7 3814.5 167.9 3817.1 225.4 3994.6 208.2 4020.8 207.5 4402.5 97.4 4403.3 98.2 4534.8 46.5 4536.1 49.8 4365.4 1.2 4364.9 1 4013 27.3 4000 138.4 4029.4 169.7 4021.3 171 3983.8 102.6 3984.6 102.7 3814.5 Z M 102.7 3814.5 100.9 3814.4 102.7 3813.9 102.7 3814.5 Z" data-holc_grade="C"/>
</g>
<g id="D">
<path d="M 2027.4 2423.5 2075 2382.1 2444.5 2069.6 2410.5 2028 2511 1949 2541.7 1959.2 2552.8 1977.9 2637.9 1907.3 2666.6 1900.7 2619.1 2001 2469.9 2124.5 2429 2212.6 2381.4 2257.8 2278.2 2350.4 2224.4 2396.2 2208.9 2459.7 2145.9 2510.5 2018.5 2617 1972.4 2562 2060.9 2487.2 2062.3 2466.1 2027.4 2423.5 Z" data-holc_grade="D"/>
<path d="M 1507.1 2814.7 1514.4 2391.3 1529.8 2388.1 1592.8 2373.2 1609.1 2361.9 1628.1 2380.9 1696.1 2325.4 1713.3 2349.7 1689.7 2371.9 1718.7 2411.6 1715.6 2430.5 1706.1 2430.5 1705.6 2468.4 1707.4 2663.4 1557.4 2776.3 1507.1 2814.7 Z" data-holc_grade="D"/>
<path d="M 1507.1 2814.7 1506.7 2844 1379.3 2846.7 1505.3 2991.2 1400.6 3086 1158.6 3300.9 980.9 3455.7 877.1 3544.7 825.8 3547.3 692.1 3677.8 615.4 3734.2 506.6 3813.2 433.6 3794.2 433.2 3676.8 372.9 3674.5 373.5 3177.6 578.5 3176.6 579.4 3108.4 649.6 3110.2 648.3 2983.4 558.1 2980.2 557.2 2968.4 939.4 2765 945.3 2944.7 1019.3 2945.3 1262.6 2947.6 1261.8 2830.6 1262.4 2806.6 1224.3 2809.1 1206.5 2799.6 1158.6 2799.4 1158.4 2763.1 961.3 2760.9 943 2758.9 943.9 2723 1174.1 2587.1 1401.6 2447.7 1514.4 2391.3 1511.7 2498.7 1507.1 2814.7 Z M 519.3 3605.7 521.4 3682.9 577.9 3680.7 577.9 3604.6 519.3 3605.7 Z" data-holc_grade="D"/>
<path d="M 1511.7 3581.8 1744.6 3266.1 1763.7 3274.2 1799 3304.9 1833.5 3316.7 1879.7 3323.4 1927.3 3320.3 1951.8 3327.5 1994 3360.5 1984 3440.4 1962.3 3600.7 1531.8 3589.7 1515.8 3589.1 1511.7 3581.8 Z" data-holc_grade="D"/>
</g>
</svg>