<?xml version="1.0"?>
<svg xmlns="http://www.w3.org/2000/svg" version="1.2" baseProfile="tiny" width="3000" height="3447" viewBox="0 0 3000 3447" stroke-linecap="round" stroke-linejoin="round">
<g id="A">
<path d="M 994.6 1480.5 994.6 1480.3 994.5 1480.3 995.2 1615.6 716.6 1611.8 668.9 1611.6 669.7 1275.7 992.2 1278.7 994.4 1459.9 994.6 1480.3 994.6 1480.5 Z" data-holc_grade="A"/>
<path d="M 1341.7 1572.7 1341.7 1618 1341.6 1618 1257.3 1617.3 1257.3 1616.8 1257.2 1607.2 1255.5 1495.4 1254.7 1495.4 994.6 1494.9 994.6 1480.5 994.6 1480.3 994.4 1459.9 992.2 1278.7 992.2 1278.4 1081.3 1280.2 1133.7 1281.2 1332.8 1285.1 1342 1285.3 1342 1288.2 1341.7 1559.7 1341.7 1572.7 Z" data-holc_grade="A"/>
<path d="M 1667 1287.7 1669.6 1573.5 1653.7 1572.8 1341.7 1572.7 1341.7 1559.7 1342 1288.2 1342 1285.3 1343.2 1229.5 1343.7 1203.7 1512.5 1203 1513.9 1286.8 1514.1 1286.8 1518.7 1286.8 1667 1287.1 1667 1287.7 Z" data-holc_grade="A"/>
<path d="M 1747.2 619.8 1746.7 866.6 1754 878 2018.2 877.8 2017.8 639.3 2100.8 714.1 2208.5 809.6 2209 936.2 2209.1 951.3 2209.1 952.1 1673.6 952 1673.6 951.3 1673.5 938.7 1672.3 789.9 1666.4 790 1671.7 789.9 1672.3 789.9 1671.8 619.8 1747.2 619.8 Z" data-holc_grade="A"/>
<path d="M 1673.6 951.3 1671.7 951.3 1671.2 951.3 1663.5 951.3 1505.7 950.4 1503.4 790.2 1666.4 790 1672.3 789.9 1673.5 938.7 1673.6 951.3 Z" data-holc_grade="A"/>
</g>
<g id="B">
<path d="M 994.6 1480.5 994.6 1494.9 1254.7 1495.4 1255.5 1495.4 1257.2 1607.2 1257.3 1616.8 1257.3 1617.3 1257.3 1616.8 1169.9 1616.8 1170.8 1802.5 1187.5 1802.5 1187.9 1942.1 834.6 1942.4 832.6 1848.6 650.4 1848.8 649.7 1848.8 502.3 1702.8 504.1 1611.1 668.9 1611.6 716.6 1611.8 995.2 1615.6 994.5 1480.3 994.6 1480.3 994.6 1480.5 Z" data-holc_grade="B"/>
<path d="M 1343.2 1229.5 1342 1285.3 1332.8 1285.1 1133.7 1281.2 1081.3 1280.2 1080.6 1119.4 1170.2 1117.8 1169.5 951.8 1340.4 950.4 1342.3 1203.2 1343.3 1203.2 1343.2 1229.5 Z" data-holc_grade="B"/>
<path d="M 1503.8 456.7 1505.3 619.3 1661.4 618.6 1671.2 618.5 1671.2 619.8 1671.8 619.8 1672.3 789.9 1671.7 789.9 1666.4 790 1503.4 790.2 1505.7 950.4 1663.5 951.3 1671.2 951.3 1671.7 951.3 1673.6 951.3 1673.6 952 1674.9 1093.2 1665.3 1093.2 1667 1287.7 1667 1287.1 1518.7 1286.8 1514.1 1286.8 1513.9 1286.8 1512.5 1203 1343.7 1203.7 1343.2 1229.5 1343.3 1203.2 1342.3 1203.2 1340.4 950.4 1338 620.6 1340.5 620.6 1339.5 456.2 1503.8 456.7 Z" data-holc_grade="B"/>
<path d="M 2010.2 1623.1 1675.8 1622.6 1675.8 1612.2 1675.5 1585.4 1674.3 1573.7 1669.6 1573.5 1667 1287.7 1665.3 1093.2 1674.9 1093.2 1675.2 1116.7 1866 1119.1 1866.7 1203.7 1849.8 1203.5 1849.9 1286.8 2012.8 1287.8 2010.3 1612.6 2010.2 1623.1 Z" data-holc_grade="B"/>
<path d="M 2010.2 1623.1 2010.2 1623.8 2339.3 1623.1 2339.4 1623.1 2339.5 1651.2 2341.4 1941.9 2340.4 1941.9 2338.7 1941.9 1394 1941.5 1393.5 1941.5 1389.6 1816.1 1391.8 1816.1 1391.1 1623.8 1675.9 1625.7 1675.8 1622.6 2010.2 1623.1 Z" data-holc_grade="B"/>
<path d="M 2998.1 952.8 2999 1943.4 2998.6 1943.4 2340.4 1944.1 2340.4 1941.9 2341.4 1941.9 2339.5 1651.2 2339.4 1623.1 2340.1 1623.1 2337.3 951.8 2337.3 951.6 2472.1 951.9 2998.1 952.8 Z" data-holc_grade="B"/>
<path d="M 2339.4 1623.1 2339.3 1623.1 2010.2 1623.8 2010.2 1623.1 2010.3 1612.6 2012.8 1287.8 1849.9 1286.8 1849.8 1203.5 1866.7 1203.7 1866 1119.1 1675.2 1116.7 1674.9 1093.2 1673.6 952 2209.1 952.1 2209.1 951.3 2209 936.2 2337.2 935.6 2337.3 951.6 2337.3 951.8 2340.1 1623.1 2339.4 1623.1 Z" data-holc_grade="B"/>
<path d="M 2998.1 952.8 2472.1 951.9 2337.3 951.6 2337.2 935.6 2209 936.2 2208.5 809.6 2100.8 714.1 2017.8 639.3 1996.2 619.8 2670.3 619.7 2670.3 618.4 2994.3 618.2 2998.7 952.8 2998.1 952.8 Z" data-holc_grade="B"/>
</g>
<g id="C">
<path d="M 2670.3 618.4 2670.3 619.7 1996.2 619.8 1747.2 619.8 1671.8 619.8 1671.2 619.8 1671.2 618.5 1671.2 609.7 1670.8 457.2 1503.8 456.7 1339.5 456.2 1340.5 620.6 1338 620.6 986.6 621.5 972.7 276.7 2336.1 276.8 2335.9 1 2668.8 4 2670.3 618.4 Z" data-holc_grade="C"/>
<path d="M 1675.8 1622.6 1675.9 1625.7 1391.1 1623.8 1391.8 1816.1 1389.6 1816.1 1290.6 1817.2 1290.8 2189.2 994.4 2190.5 650.4 1848.8 832.6 1848.6 834.6 1942.4 1187.9 1942.1 1187.5 1802.5 1170.8 1802.5 1169.9 1616.8 1257.3 1616.8 1257.3 1617.3 1341.6 1618 1341.7 1618 1341.7 1572.7 1653.7 1572.8 1669.6 1573.5 1674.3 1573.7 1675.5 1585.4 1675.8 1612.2 1675.8 1622.6 Z" data-holc_grade="C"/>
<path d="M 2338.7 1941.9 2343.9 2228.5 2343.9 2228.8 1392.4 2234.3 1394 1941.5 2338.7 1941.9 Z" data-holc_grade="C"/>
<path d="M 499.4 2604.3 499.4 2606 499.4 2606.4 321.8 2607.4 2.4 2609.2 1 2115.1 313.2 2111.6 313.1 2113.3 584.6 2108.5 586.9 2108.4 586.6 1921.1 666.2 1999.6 666.4 2286.7 511.2 2287.6 499.2 2287.6 499.4 2604.3 Z" data-holc_grade="C"/>
</g>
<g id="D">
<path d="M 586.6 1921.1 586.9 2108.4 584.6 2108.5 313.1 2113.3 313.2 2111.6 319.9 1669.1 337.7 1671.7 586.6 1920.6 586.6 1921.1 Z" data-holc_grade="D"/>
<path d="M 661.4 2603.5 499.4 2604.3 499.2 2287.6 511.2 2287.6 666.4 2286.7 666.2 1999.6 896 2228.4 896.4 2405.8 867.5 2410.8 662.5 2411.1 661.4 2603.5 Z" data-holc_grade="D"/>
<path d="M 1290 3109.9 1132.6 3108.5 1129.2 2974.1 1005.2 2974.9 1003.2 2798.9 919.7 2798.9 918.9 2778.1 833.1 2779.3 832.7 2694.9 1289.8 2694.3 1290 3109.9 Z" data-holc_grade="D"/>
<path d="M 832.7 2694.9 833.1 2779.3 918.9 2778.1 919.7 2798.9 1003.2 2798.9 1005.2 2974.9 1129.2 2974.1 1132.6 3108.5 1290 3109.9 1289.3 3446 676.3 3441.7 673.6 2952.8 672.6 2946.7 331.4 2944.7 320.3 2938.8 321.8 2607.4 499.4 2606.4 499.4 2606 499.4 2604.3 661.4 2603.5 832.3 2602.6 832.7 2694.9 Z" data-holc_grade="D"/>
<path d="M 1391.8 2936.1 1537 2936.4 1536.9 2794.5 1673 2793.7 1672.8 2785.7 2301.6 2789.6 2355 2787.6 2349.1 2598.7 2349.3 2598.7 2993.4 2596.4 2993.6 2596.4 2985.3 3279.2 1391.5 3279.4 1391.8 2936.1 Z" data-holc_grade="D"/>
<path d="M 2993.4 2596.4 2349.3 2598.7 2347.8 2523.1 1675.5 2526.3 1671 2316.1 2996.7 2307.3 2993.4 2596.4 Z" data-holc_grade="D"/>
<path d="M 2340.4 1941.9 2340.4 1944.1 2998.6 1943.4 2996.2 2223.4 2343.9 2228.5 2338.7 1941.9 2340.4 1941.9 Z" data-holc_grade="D"/>
<path d="M 1391.8 2936.1 1391.7 2936 1391.6 2691.9 1670.7 2689.2 1672.8 2785.7 1673 2793.7 1536.9 2794.5 1537 2936.4 1391.8 2936.1 Z" data-holc_grade="D"/>
</g>
</svg>