<?xml version="1.0"?>
<svg xmlns="http://www.w3.org/2000/svg" version="1.2" baseProfile="tiny" width="3000" height="2456" viewBox="0 0 3000 2456" stroke-linecap="round" stroke-linejoin="round">
<g id="A">
<path d="M 1240.2 933.5 1240.2 938.8 1241.3 949.6 1244 964.9 1229.7 966.8 1197.8 966.7 1190.8 966.3 1189.8 965.9 1188.5 964.3 1186.9 947.3 1183.7 947.3 1177.5 946 1175.3 945 1174.3 943 1173.2 940 1173 937.3 1173.7 932.4 1175.5 927.9 1179.5 924.6 1187.5 919.6 1193 916.4 1192 894.9 1234.2 895.3 1234.6 903.3 1227.6 904.3 1224.4 904.7 1219.4 908.8 1218 918.5 1218.7 922.6 1217.1 927.2 1229.9 932.4 1240.2 933.5 Z" data-holc_grade="A"/>
<path d="M 1430.1 2163.9 1430 2174.4 1432.5 2184.3 1430.7 2198.2 1439.3 2199.3 1437.5 2214.6 1438.6 2222.8 1442.9 2234.5 1452.1 2251.2 1464.3 2238.1 1480.3 2245.1 1482.5 2269.3 1484.6 2276 1491.3 2291.8 1499.1 2304 1501.5 2309.2 1507.6 2317.4 1508.9 2320.3 1503.2 2326 1497.2 2330.2 1490.4 2332 1473.2 2335.2 1471.8 2341.3 1464.3 2344.5 1458.2 2347 1449.3 2346.6 1443.9 2342 1430.7 2328.5 1420 2310.7 1418.2 2303.2 1416.1 2297.1 1406.4 2303.9 1401 2309.6 1398.5 2316 1398.9 2327.4 1398.9 2342.3 1403.2 2354.8 1403.9 2363.7 1405 2367.2 1412.1 2369.4 1423.2 2374 1426.4 2373.3 1431.4 2371.2 1434.6 2367.3 1439.6 2363 1457.1 2378.3 1485.4 2356.2 1513.2 2393.6 1502.9 2409.6 1484.7 2425.6 1456.8 2384.3 1452.1 2388.6 1448.2 2393.9 1445.7 2400.7 1438.6 2405.7 1429.6 2411.4 1418.2 2414.6 1421 2437 1426 2447 1426 2449.8 1420 2452.7 1406.7 2453 1393.9 2453 1380.7 2453 1373.9 2447.7 1364.9 2430.6 1359.6 2443.8 1349.2 2450.5 1335.6 2455.2 1326.3 2452.7 1316.7 2451.2 1304.2 2444.5 1298.8 2436.6 1292 2426.3 1284.2 2422 1274.2 2416.3 1274.5 2399.6 1286.3 2381.8 1294.2 2364.4 1304.9 2357.3 1314.2 2355.8 1321 2350.5 1329.2 2345.2 1340.3 2344.8 1352.8 2347.7 1365 2351.9 1371.7 2349.8 1378.9 2347 1378.9 2344.1 1378.2 2327 1359.2 2330.9 1347.1 2328.1 1345.3 2304.9 1386.4 2300 1363.9 2245.2 1347.5 2265.4 1342.1 2257.3 1338.9 2259.7 1336 2271.1 1335 2276.5 1326 2280.4 1316 2274 1292.8 2258.7 1279.6 2253.7 1274.9 2248.3 1281.4 2229.1 1288.5 2223.4 1297.5 2218.5 1318.5 2210.3 1325.3 2206.7 1328.9 2202.1 1330.7 2197.8 1336.4 2187.9 1341 2183.5 1359.3 2181.7 1378.7 2172.8 1390.3 2167.9 1398.4 2165.9 1408 2164.8 1424.3 2163.3 1430.1 2163.9 Z" data-holc_grade="A"/>
<path d="M 331.1 553.1 317 563.7 295.9 579.9 294.1 581.6 283.5 590.2 272.5 575.9 280.5 567.6 252.9 532.6 244.5 523.8 239.7 518.1 235.9 510.4 232.1 500.3 262.4 471.5 295 504.1 323.5 537.6 331.1 553.1 Z" data-holc_grade="A"/>
<path d="M 2531.8 1122.1 2529.3 1119.8 2531.5 1115 2531.3 1109.5 2529.7 1106.3 2526.3 1102.4 2525.7 1098.3 2527.2 1094.7 2530.4 1091.3 2534.1 1086.9 2535.5 1083.2 2536.4 1078.4 2536.8 1065.9 2539.8 1056 2543.9 1048.9 2549.9 1043.4 2556 1041.7 2559.5 1041.6 2564.5 1046.3 2575.2 1045.4 2576.8 1047.6 2578.1 1049.7 2579 1054 2577.9 1064.1 2580.1 1081 2578.9 1082 2574.9 1084.2 2577.3 1098.9 2580.9 1100.5 2583 1103.7 2583.4 1106 2581.4 1133.9 2531.8 1122.1 Z" data-holc_grade="A"/>
<path d="M 2399.8 1297.4 2399.3 1301.3 2391.5 1299.1 2386.8 1316.9 2396.6 1318.9 2398.4 1314.7 2412.7 1317.3 2410.2 1339.8 2405.8 1340.9 2381.7 1335.1 2344.4 1323.4 2369.6 1269.6 2352.2 1262.5 2343.7 1281 2326.8 1274.6 2325 1279.9 2299.8 1267.5 2300.4 1261.1 2301.3 1252.6 2305.6 1253.9 2307.8 1249.3 2311.3 1248.2 2314.5 1249 2316.2 1245.7 2337 1253 2339.4 1251.9 2351.9 1255.7 2355.1 1255 2356.4 1252.8 2359.5 1246.8 2404.1 1268.5 2399.8 1297.4 Z" data-holc_grade="A"/>
<path d="M 2153.5 1572.6 2139.7 1529.3 2186.8 1511.5 2198.8 1504.6 2202.2 1506.1 2205.1 1507.2 2209.5 1507.4 2212.9 1507.7 2220.2 1506.5 2223.6 1512.8 2232.1 1531 2242.4 1561 2238.1 1563.6 2236.6 1566.3 2234.6 1569.6 2235.5 1578.1 2236.6 1585.8 2235.3 1589.8 2231.5 1593.4 2224.8 1598.1 2217.4 1601.2 2203.4 1598.5 2197.8 1596.6 2192.4 1594.6 2187.1 1595.2 2184.9 1593.5 2187.5 1584.1 2187.5 1568.1 2177 1570.6 2168.3 1569.9 2153.5 1572.6 Z" data-holc_grade="A"/>
<path d="M 2389.2 1577 2374 1596.3 2376.9 1603.5 2380.3 1612.6 2383.4 1624.8 2375.4 1627.5 2366.2 1582.6 2364.6 1578.4 2362.6 1571.3 2360.8 1561 2346.1 1563.9 2357.8 1620.1 2334.8 1624.6 2331.2 1600.4 2322.5 1600.2 2318.5 1600.6 2317.8 1598 2316.7 1585.5 2299.3 1591.3 2300.9 1596 2300.2 1620.7 2287.3 1622.7 2291.3 1635.1 2278.8 1640 2280.2 1674.5 2273.5 1675.8 2268.6 1679.4 2265 1683.6 2261 1687.2 2255.9 1688.5 2249.8 1656.7 2226.9 1649.6 2202.1 1643.4 2205.2 1628.1 2225.9 1616.1 2217.4 1601.2 2224.8 1598.1 2231.5 1593.4 2235.3 1589.8 2236.6 1585.8 2235.5 1578.1 2234.6 1569.6 2236.6 1566.3 2238.1 1563.6 2242.4 1561 2286.3 1543.6 2281.8 1535.4 2297.9 1528.9 2288.9 1510.5 2302.3 1504.9 2304.6 1514.9 2313.7 1530.9 2340.9 1517.5 2337.8 1510.6 2361.4 1503.7 2365 1504.6 2373.7 1504.6 2393.8 1499.9 2392.2 1503.4 2393.3 1507.2 2396.7 1507.7 2407.8 1505.4 2410.5 1519.4 2399.8 1520.5 2402.7 1529.9 2398.3 1531 2384.7 1555.4 2390.7 1558.5 2392.9 1561 2398.8 1564.8 2389.2 1577 Z" data-holc_grade="A"/>
<path d="M 2475.3 1590 2477.7 1585.8 2482 1582.4 2488 1577.1 2482.2 1575.8 2487.3 1566.6 2482.6 1564.9 2477.7 1563.1 2466.8 1558.4 2464.8 1560.9 2464.6 1567.3 2453.2 1563.8 2446.5 1579.8 2426.4 1572.3 2424.4 1572.1 2411.5 1574.7 2410.6 1591 2393.2 1594.8 2399.9 1583.4 2389.2 1577 2398.8 1564.8 2401.2 1565 2414.8 1546.1 2431.7 1517.8 2437.5 1524.3 2450.2 1531.6 2507.6 1557.9 2496.7 1580.8 2508.1 1585 2509.9 1582.6 2522.4 1587.2 2526.8 1570.1 2536.6 1575.4 2530.2 1591.7 2538.4 1595.9 2525.3 1635.9 2526.7 1647.2 2520 1648.8 2514 1649.7 2506.6 1647.7 2508.6 1631.7 2507.7 1627 2502.3 1621.5 2507.2 1602.4 2481.3 1590.6 2475.3 1590 Z" data-holc_grade="A"/>
<path d="M 2399 1705.1 2397.2 1705.2 2392 1704.8 2385.3 1702.6 2381.1 1702.6 2369.7 1705.2 2366.1 1686.1 2365.7 1682.8 2367.7 1681.9 2371.5 1681.7 2377.3 1685.9 2383.5 1687.7 2382.6 1680.1 2383.5 1670.6 2387.5 1660.8 2416.7 1661.6 2423.9 1660.3 2435.9 1665.4 2441.5 1669.4 2444 1674 2443.1 1678.3 2438 1681.6 2430.4 1683.4 2422.8 1684.7 2417.7 1685.6 2416.5 1687.8 2417 1696.1 2416.3 1700.1 2414.6 1701.9 2407 1704.5 2399 1705.1 Z" data-holc_grade="A"/>
<path d="M 2536.9 1763.2 2527.8 1763.2 2522.4 1761.9 2519.3 1758.8 2512.6 1745.7 2518.8 1739.7 2514.3 1730.8 2521 1726.5 2515 1714.6 2530.1 1705.6 2521.9 1687.9 2536.3 1682.7 2538.6 1692.3 2562.1 1736 2552.9 1741.6 2547.8 1746.1 2539.6 1749 2532.4 1751 2536.9 1763.2 Z" data-holc_grade="A"/>
<path d="M 1923.8 2365.5 1928.8 2377.3 1927.2 2380.6 1924.1 2384.2 1917.6 2388.9 1917.6 2389.8 1919.6 2392.9 1921.2 2395.8 1921.4 2397.5 1922.8 2400.9 1925.9 2403.8 1930.6 2407.3 1944.9 2418.9 1927.3 2445.4 1914.3 2446.7 1910.1 2442.5 1903.6 2437.8 1892.2 2431.8 1878.1 2399.1 1862.2 2401.8 1856 2404.5 1851.8 2406.7 1824.5 2421 1821.8 2412.3 1814.9 2403.6 1865.6 2386.7 1862.2 2379.1 1861.3 2372.7 1863.1 2365.3 1866.7 2360.6 1872.5 2356.2 1877.4 2351.3 1878.6 2349 1879.9 2346.4 1880.1 2340.6 1882.1 2335.9 1885.9 2332.8 1888.8 2332.2 1894.1 2335.9 1901.1 2340.2 1907.6 2345.7 1916.9 2353.1 1921.4 2359.9 1923.8 2365.5 Z" data-holc_grade="A"/>
</g>
<g id="B">
<path d="M 1098.2 1001.6 1097.8 979.4 1093.6 966.4 1092.7 962.9 1092.7 959.3 1093.7 955.2 1096.1 950.3 1095.9 946 1095.2 937.5 1092.3 924.5 1091.3 914.7 1089.3 884 1102.3 883.3 1105.8 932 1131.1 940.7 1132.4 940.5 1135.2 938.4 1173 937.3 1173.2 940 1174.3 943 1175.3 945 1177.5 946 1183.7 947.3 1186.9 947.3 1188.5 964.3 1189.8 965.9 1190.8 966.3 1197.8 966.7 1229.7 966.8 1244 964.9 1241.3 949.6 1240.2 938.8 1240.2 933.5 1248.1 935.8 1254.5 941.6 1264 953.9 1271.6 967 1277.1 980 1281.6 985.5 1287.6 990 1291.5 994.2 1295.1 996.2 1300.3 996.4 1308.1 991.9 1318.9 983.7 1323.2 981.1 1326.8 979.1 1331.1 978.2 1337.8 974.9 1343 973.8 1347.3 972 1351.7 971.9 1392.2 996.4 1404.2 1009.2 1398.3 1026.2 1422 1046.5 1413.1 1053 1410 1059.8 1409.9 1068 1410.7 1077.9 1414.7 1091.8 1416.3 1109 1422.9 1127.1 1423.9 1133.2 1423.6 1138.3 1420.9 1147 1339.9 1093.7 1294.7 1065.6 1283.2 1093.2 1279.8 1099.5 1269.5 1110.4 1233.5 1080.5 1226 1070.2 1218.2 1061 1213.2 1057.2 1208.4 1058.3 1201.4 1054.9 1194.1 1045.7 1190.2 1038.4 1183.3 1035.7 1168.7 1024.7 1164 1021.3 1157.4 1018.3 1143.9 1015.1 1137.5 1013.2 1132.3 1011.2 1126.6 1004.1 1121.5 998.9 1117.7 995.7 1115.1 994.1 1110.2 994 1106.7 995.9 1103.8 997.9 1100.1 1001.6 1098.2 1001.6 Z" data-holc_grade="B"/>
<path d="M 2300.4 1261.1 2299.8 1267.5 2325 1279.9 2326.8 1274.6 2343.7 1281 2352.2 1262.5 2369.6 1269.6 2344.4 1323.4 2381.7 1335.1 2405.8 1340.9 2410.2 1339.8 2412.7 1317.3 2398.4 1314.7 2396.6 1318.9 2386.8 1316.9 2391.5 1299.1 2399.3 1301.3 2399.8 1297.4 2430.9 1295.3 2428.7 1303.1 2427.5 1310.9 2424 1334.6 2420.8 1346.3 2416.7 1351.1 2406 1355.6 2393.5 1358.1 2382.4 1359.1 2377.9 1368.5 2346.7 1359.6 2343.6 1369.8 2303 1352.6 2299.9 1365.4 2285.7 1393.4 2280.6 1401.2 2265.8 1394.8 2275.8 1373 2281.4 1349 2279.3 1315 2285.5 1279.7 2289.3 1270.6 2291.1 1265.9 2291.8 1261.5 2292.5 1256.4 2300.4 1261.1 Z" data-holc_grade="B"/>
<path d="M 2186.8 1511.5 2139.7 1529.3 2153.5 1572.6 2159.4 1591 2142.1 1621.9 2138.9 1621.7 2134 1607.5 2130.7 1604.6 2127.3 1601.3 2125.7 1594.6 2123.1 1581.7 2120.1 1574.6 2117.7 1571.1 2106.1 1578.9 2094.1 1589.3 2092.9 1591.3 2085.4 1589.1 2082.9 1586.4 2081.3 1581.8 2076.4 1577.8 2072.4 1574.2 2068.4 1571.3 2067 1565.6 2069.7 1561.1 2075.3 1553.8 2077.2 1550.9 2096.9 1535.5 2108.1 1526.4 2143.3 1511.7 2175.6 1501.7 2186.8 1511.5 Z" data-holc_grade="B"/>
<path d="M 2388.9 1480.3 2418.7 1502.4 2436.2 1479 2465.1 1493.8 2459.8 1501 2480.1 1509.5 2477.3 1516.9 2488.7 1522.2 2494.1 1517.6 2503 1519.7 2528.3 1531.4 2518.7 1546.4 2540.9 1556.6 2536.7 1567.6 2554.5 1574.3 2549.6 1589.2 2547.1 1596 2545.7 1603.1 2545 1610.6 2541.1 1624.5 2537.9 1636.2 2537.5 1645.4 2541.8 1657.9 2549.7 1678.5 2536.3 1682.7 2536.4 1677.5 2536.8 1672.9 2526.7 1647.2 2525.3 1635.9 2538.4 1595.9 2530.2 1591.7 2536.6 1575.4 2526.8 1570.1 2522.4 1587.2 2509.9 1582.6 2508.1 1585 2496.7 1580.8 2507.6 1557.9 2450.2 1531.6 2437.5 1524.3 2431.7 1517.8 2414.8 1546.1 2401.2 1565 2398.8 1564.8 2392.9 1561 2390.7 1558.5 2384.7 1555.4 2398.3 1531 2402.7 1529.9 2399.8 1520.5 2410.5 1519.4 2407.8 1505.4 2396.7 1507.7 2393.3 1507.2 2392.2 1503.4 2393.8 1499.9 2373.7 1504.6 2365 1504.6 2361.4 1503.7 2337.8 1510.6 2340.9 1517.5 2313.7 1530.9 2304.6 1514.9 2302.3 1504.9 2288.9 1510.5 2297.9 1528.9 2281.8 1535.4 2286.3 1543.6 2242.4 1561 2232.1 1531 2223.6 1512.8 2220.2 1506.5 2228.3 1502.9 2242.3 1534.8 2266.3 1525.2 2259.6 1502.3 2271.3 1495.2 2275.6 1485.9 2280 1493 2287.2 1488.3 2292.5 1483.4 2300.3 1477.9 2315.7 1476.5 2326 1476.7 2339.1 1480.7 2340.9 1477.4 2347.8 1480 2362.8 1486.7 2363.5 1484.8 2376.1 1495.3 2387.3 1482.3 2388.9 1480.3 Z" data-holc_grade="B"/>
<path d="M 2475.3 1590 2468 1603.1 2444.8 1598.7 2447 1592.5 2422.4 1581.8 2414.2 1629.8 2382.8 1635 2387.5 1660.8 2383.5 1670.6 2382.6 1680.1 2383.5 1687.7 2377.3 1685.9 2371.5 1681.7 2367.7 1681.9 2365.7 1682.8 2366.1 1686.1 2300.8 1697.8 2302.3 1706.4 2261.5 1714.5 2255.9 1688.5 2261 1687.2 2265 1683.6 2268.6 1679.4 2273.5 1675.8 2280.2 1674.5 2278.8 1640 2291.3 1635.1 2287.3 1622.7 2300.2 1620.7 2300.9 1596 2299.3 1591.3 2316.7 1585.5 2317.8 1598 2318.5 1600.6 2322.5 1600.2 2331.2 1600.4 2334.8 1624.6 2357.8 1620.1 2346.1 1563.9 2360.8 1561 2362.6 1571.3 2364.6 1578.4 2366.2 1582.6 2375.4 1627.5 2383.4 1624.8 2380.3 1612.6 2376.9 1603.5 2374 1596.3 2389.2 1577 2399.9 1583.4 2393.2 1594.8 2410.6 1591 2411.5 1574.7 2424.4 1572.1 2426.4 1572.3 2446.5 1579.8 2453.2 1563.8 2464.6 1567.3 2464.8 1560.9 2466.8 1558.4 2477.7 1563.1 2482.6 1564.9 2487.3 1566.6 2482.2 1575.8 2488 1577.1 2482 1582.4 2477.7 1585.8 2475.3 1590 Z" data-holc_grade="B"/>
<path d="M 2399 1705.1 2397.8 1708.5 2396 1711.2 2396.7 1713.2 2399 1713.7 2405.2 1711.6 2406.3 1714.3 2406.1 1735.4 2404.8 1738.1 2401.2 1739 2397.9 1738.1 2391.9 1755.7 2389.6 1756.6 2384.7 1768.3 2383 1768.1 2377.6 1767.5 2330.9 1751.5 2322.7 1761.3 2319.8 1760.9 2316.5 1762.7 2311.1 1766.4 2302.2 1783.6 2319.8 1784.9 2328.5 1784.4 2349.5 1786.8 2357.6 1789.7 2357.6 1793.9 2357.6 1800.4 2358.7 1805.7 2361.8 1808.4 2366.9 1809.7 2375.9 1810.4 2377.2 1813.5 2377.9 1819.3 2376.8 1822.1 2374.1 1825.5 2362.1 1829.5 2366.3 1834.2 2370.1 1838.8 2370.1 1840.8 2361.2 1846 2351.4 1847.5 2339.8 1846.6 2338.2 1852.2 2334.7 1858.9 2328 1859.8 2323.7 1859.1 2321.7 1855.3 2317.2 1852.7 2307.4 1847.8 2302.3 1843.4 2298.3 1842.3 2291.6 1842.9 2287.3 1816.5 2291.1 1807.1 2260.5 1793.4 2254.9 1791.2 2245.5 1791 2235.9 1790.1 2229.9 1787 2227 1781.7 2224.8 1772.5 2222.3 1770.5 2218.3 1770.1 2223.4 1755.4 2229.2 1755.6 2234.1 1754.3 2240.6 1752.3 2247.3 1749.6 2251.5 1748.5 2259.5 1747.6 2262.2 1727.2 2261.5 1714.5 2302.3 1706.4 2300.8 1697.8 2366.1 1686.1 2369.7 1705.2 2381.1 1702.6 2385.3 1702.6 2392 1704.8 2397.2 1705.2 2399 1705.1 Z" data-holc_grade="B"/>
<path d="M 2391.9 1755.7 2405.5 1756.1 2409.5 1762.5 2417.8 1772.3 2420.7 1780.1 2420.7 1786.5 2420 1793.4 2416.5 1798.1 2413.4 1799.4 2408.9 1798.8 2402.9 1796.1 2396.8 1793 2393.9 1791.5 2389.2 1791.5 2386.3 1793.2 2381.4 1799.5 2377.7 1807.5 2375.9 1810.4 2366.9 1809.7 2361.8 1808.4 2358.7 1805.7 2357.6 1800.4 2357.6 1793.9 2357.6 1789.7 2349.5 1786.8 2328.5 1784.4 2319.8 1784.9 2302.2 1783.6 2311.1 1766.4 2316.5 1762.7 2319.8 1760.9 2322.7 1761.3 2330.9 1751.5 2377.6 1767.5 2383 1768.1 2384.7 1768.3 2389.6 1756.6 2391.9 1755.7 Z" data-holc_grade="B"/>
<path d="M 2664.5 1699.3 2668 1702.1 2712.9 1714.9 2707.6 1736.5 2700.9 1743.8 2692.2 1738.9 2688.2 1750.5 2685.5 1753.4 2684 1757.8 2683.7 1762.5 2692.9 1795.4 2702.5 1792.5 2706.6 1806.3 2702 1838.5 2678.3 1832.1 2673.4 1828.1 2669.6 1824.3 2651.7 1815.5 2633.4 1809.7 2612.6 1806.4 2609.7 1802.4 2625.2 1741.3 2609.4 1727.5 2602.5 1733.7 2592.4 1742.4 2589.1 1742.7 2586 1745.3 2581.1 1751.6 2575.5 1762.2 2575.1 1763.1 2574.7 1763 2561.2 1756.3 2560.1 1759.2 2557.2 1766.9 2554.1 1768.9 2549.9 1768.1 2548.1 1766.1 2544.7 1759.4 2536.9 1763.2 2532.4 1751 2539.6 1749 2547.8 1746.1 2552.9 1741.6 2562.1 1736 2538.6 1692.3 2536.3 1682.7 2549.7 1678.5 2564.2 1671 2600.2 1661.7 2615.2 1659.9 2618.8 1683 2637 1687.2 2638.8 1680.8 2647 1688.3 2664.5 1699.3 Z" data-holc_grade="B"/>
<path d="M 2745.6 1523.1 2748.5 1519.6 2757.1 1511.7 2762.8 1507.1 2775.2 1496.1 2777 1489.3 2777.7 1484 2774.5 1470.1 2769.1 1456.3 2761.9 1434.2 2752.3 1438.2 2745.5 1437.8 2739.1 1436.4 2730.9 1434.3 2719.3 1437.5 2713.2 1439 2704.3 1447.5 2699.3 1417.3 2696.8 1414.8 2697.1 1410.5 2720.8 1410.1 2721.9 1416.2 2729.4 1414 2741.2 1414 2746.5 1412.9 2754.7 1409.4 2762.2 1406.2 2760.8 1401.9 2761.8 1391.2 2767.9 1380.2 2774.3 1372 2783.9 1367.7 2798.5 1363.1 2814.2 1360.9 2835.3 1360.9 2860.6 1360.8 2856 1379 2858.2 1390.3 2862.1 1395.3 2856.4 1397.4 2852.1 1399.9 2848.6 1407.1 2855.1 1458.6 2846.6 1461.4 2844.4 1465 2844.5 1506.6 2835.2 1515.1 2830.3 1549.3 2821.1 1568.1 2829.1 1644.9 2836 1689.7 2838.1 1694.7 2842 1702.5 2841 1708.6 2839.2 1713.5 2826.7 1719.6 2830 1747 2830 1753.7 2826.5 1758.4 2826.8 1764.1 2825.8 1771.5 2815.8 1792.5 2841.2 1813.1 2837.3 1816.7 2829.8 1819.5 2813.4 1829.9 2817 1839.5 2811.3 1842.3 2801.3 1843.1 2779.5 1844.2 2778.1 1852.4 2773.8 1855.9 2769.2 1861.3 2774.5 1867.7 2777.4 1873 2778.1 1877.3 2778.1 1882.2 2772.1 1889 2759.6 1894 2751 1896.9 2744.2 1896.2 2751.7 1886.5 2749.6 1882.6 2737.4 1875.5 2728.5 1870.2 2724.9 1869.5 2718.5 1871 2703.4 1835.4 2717.7 1827.2 2726.3 1825.8 2738.4 1825.4 2760.5 1824.3 2764.4 1811.8 2751.6 1804.7 2744.8 1789.5 2750.1 1779.5 2752.6 1766.7 2747.2 1758.2 2741.1 1741.5 2735.7 1736.5 2753.9 1729.7 2760.3 1724.7 2765.3 1711.5 2709.8 1676.4 2706.6 1672.2 2702.7 1664.7 2699.8 1658.3 2695.9 1655.8 2689.1 1649.8 2686.9 1642.4 2695.1 1643 2703.4 1643 2707.6 1640.2 2713.7 1636.6 2718.3 1630.2 2726.9 1617.4 2727.2 1611 2730.1 1607.1 2733.6 1605.3 2746.1 1604.9 2752.5 1601 2754.3 1596 2749.3 1570.4 2749.6 1565.8 2754.2 1555.8 2754.9 1549.4 2752.8 1541.6 2746.7 1529.5 2745.6 1523.1 Z M 2741 1627.3 2750.2 1674.2 2790.2 1662.1 2793.4 1628.3 2773.4 1629 2741 1627.3 Z" data-holc_grade="B"/>
<path d="M 2971 1881.1 2961.4 1893.3 2956.1 1904.9 2952.1 1916 2946.7 1924.5 2941.2 1932.5 2936.7 1940.5 2934.3 1937.6 2926.6 1920.5 2922.6 1905.4 2919.9 1901.6 2907.6 1888.3 2903.6 1879.9 2899.7 1869.2 2897.3 1863.5 2895.5 1861.5 2890.8 1863.9 2887.7 1865.7 2883 1877.9 2874.8 1875.1 2867.8 1866.8 2862.2 1863.7 2871.8 1846.6 2878.5 1838.1 2877.8 1834.4 2899.4 1824.3 2935.3 1809.8 2933.3 1795.6 2946.7 1790.9 2952.2 1787.5 2958.7 1791.5 2960.5 1798 2963.2 1802.8 2963.2 1808 2963.2 1811.3 2960.1 1816.4 2952.5 1818.2 2943.6 1822.9 2956.6 1848.4 2971 1881.1 Z" data-holc_grade="B"/>
<path d="M 2521.9 2111.3 2519.5 2126.6 2514.7 2139.9 2503.8 2158.6 2501.1 2163.2 2497.9 2171.7 2496 2176.5 2461.4 2162.7 2453.1 2165.7 2464.7 2218.5 2450.5 2248.8 2445.2 2259.9 2460.5 2269.7 2450.1 2290 2435.9 2281.3 2430 2291.4 2423 2297.3 2419 2302.1 2420.6 2308 2426.8 2309.6 2430.6 2312 2433.5 2316.5 2435.7 2319.7 2435.1 2324 2432.7 2327.7 2429.3 2331.7 2417.7 2333.6 2411.8 2333.6 2409.2 2332.3 2411.5 2301.6 2409.4 2293.8 2408.3 2292.2 2403.2 2290.4 2398.9 2292 2397.6 2285.6 2394.4 2281.8 2391.4 2280.2 2388.5 2280.3 2382.3 2283.2 2379.9 2279.7 2381.5 2275.7 2387.9 2271.7 2411.5 2262.3 2429.4 2243.9 2427.8 2232.4 2431 2230.3 2436.1 2229.5 2446 2225.5 2438.7 2190.5 2445.4 2189.7 2439.5 2157.1 2444.8 2151.8 2457.9 2140.8 2469.4 2132 2476.4 2130.1 2485 2128 2490 2109.3 2490.6 2100.8 2493.2 2093.5 2496.4 2090.9 2501.8 2091.1 2507.1 2090.9 2510.9 2089.5 2507.4 2096.7 2507.2 2098.3 2507.2 2110.9 2521.9 2111.3 Z" data-holc_grade="B"/>
<path d="M 1540.8 994 1536.5 988.1 1535.4 986 1535.2 984.4 1534.9 979 1535.4 974.8 1538.6 968.9 1542.6 964.4 1545 945.2 1547.2 938.6 1534.9 917.2 1524.7 905.5 1525.8 903.7 1525.8 901 1524.2 897.8 1519.9 895.4 1516.7 893 1517 889.8 1519.1 888.5 1522.6 887.1 1525.8 886.6 1527.4 885 1530.1 882.9 1530.6 880.7 1526.9 879.9 1521.8 876.8 1519.6 874.4 1517 876.5 1511.6 879.4 1504.4 881.5 1497.4 881.3 1490 880.5 1484.3 878.9 1479.5 875.4 1475.5 875.7 1467.5 876.8 1458.7 878.1 1457.9 881.3 1456.3 887.7 1456.3 892.5 1456.5 900.7 1454.9 905.8 1452.8 911.4 1458.1 917.5 1462.1 920.2 1462.1 924.7 1429.5 928.7 1422.8 911.9 1402.8 916.7 1396.1 921 1391.5 922 1387.8 920.7 1386.2 921.5 1384.6 922.6 1379.5 926 1374.4 927.6 1364.8 899.1 1396.4 886.3 1395 863.2 1395 843.4 1395 835.7 1395.6 831.5 1400.7 827.5 1404.4 828.8 1407.9 830.9 1415.9 833.3 1428.2 836 1435.9 837.1 1445.8 834.7 1449 834.1 1452.8 831.2 1455.5 830.4 1459.5 831.2 1461.1 829.3 1463.8 822.9 1466.2 818.2 1472 813.6 1474.5 812.6 1477.9 811.5 1484.3 811.5 1519.9 810.2 1538.1 829.3 1540 831.2 1545.3 831.2 1550.4 831.2 1555.2 831.5 1556.8 833.6 1558.4 838.1 1560.3 842.1 1564 844.5 1568.8 845.9 1575.3 845.6 1578.7 844.8 1583.3 845.6 1584.9 846.9 1587 849.6 1624.7 915.4 1587.8 948.9 1540.8 994 Z" data-holc_grade="B"/>
<path d="M 1923.8 2365.5 1921.4 2359.9 1916.9 2353.1 1907.6 2345.7 1901.1 2340.2 1894.1 2335.9 1888.8 2332.2 1885.9 2332.8 1882.1 2335.9 1880.1 2340.6 1879.9 2346.4 1878.6 2349 1870.5 2346 1863.3 2336.6 1860.6 2325.5 1860.6 2321.3 1862.6 2316.6 1868.9 2307.3 1890.3 2298.6 1879.2 2278.3 1890.8 2265.9 1874.2 2247 1878.5 2242.1 1886.9 2235.8 1893.9 2229.4 1893.9 2225.2 1888.7 2216.9 1881.6 2213.2 1888.3 2204.3 1895.9 2200.9 1907 2198.5 1925.8 2195.3 1940.1 2192.4 1944.1 2193.8 1979.2 2231.8 1989.9 2245.8 1994.1 2254.7 1993.5 2264 1992.2 2284 1973.2 2289.6 1988.6 2311.8 1992.4 2322.1 1979.5 2338.5 1978.6 2343.4 1975.9 2350.1 1973 2354.6 1963.6 2359.7 1964.1 2354.4 1953.1 2342.8 1951.1 2346.8 1944.6 2351.9 1938.2 2355.9 1933.9 2359.3 1923.8 2365.5 Z" data-holc_grade="B"/>
<path d="M 1977.7 2081.7 1982 2089 1988.4 2096.6 1994.5 2102.5 1997.6 2107.2 1999.2 2119.2 2000.3 2128.8 1998.3 2145.7 2000.8 2149.2 1997 2166.6 1998.1 2169.3 1999.7 2169.7 2005.7 2169.3 2007.2 2169.9 2008.1 2175.5 2006.6 2185.3 2007.9 2193.9 2009.5 2197.9 2013.3 2204.6 2015.1 2208.4 2016.7 2215.5 2015.8 2220 2010.9 2226 2015.6 2227.7 2022.5 2230.9 2026.3 2234 2026.3 2241.8 2023.6 2252 2020.5 2260.4 2012.9 2267.8 2030.4 2315.2 2027.7 2317.4 2019.2 2318.7 2011.8 2319.2 2003.1 2319.4 1992.4 2322.1 1988.6 2311.8 1973.2 2289.6 1992.2 2284 1993.5 2264 1994.1 2254.7 1989.9 2245.8 1979.2 2231.8 1944.1 2193.8 1940.1 2192.4 1925.8 2195.3 1907 2198.5 1895.9 2200.9 1888.3 2204.3 1881.6 2213.2 1880.2 2216.9 1876.7 2219.2 1871.3 2220.7 1863 2219.8 1858.1 2219.2 1853.9 2218.3 1849 2218.5 1846.5 2201.2 1852.3 2201.2 1851 2192.7 1829.8 2194.3 1828.2 2209.8 1839.8 2209.6 1836.7 2235.6 1809.9 2234.1 1802.5 2230.3 1797.4 2224.8 1795.3 2222.9 1790.9 2219 1787.1 2208.3 1786.2 2201.6 1787.1 2195.2 1788.9 2190.3 1787.6 2185.2 1786.2 2179 1784 2173.6 1776.2 2161.8 1771.5 2150.7 1767.9 2140.3 1765.9 2128.5 1766.3 2120.9 1767.4 2113.1 1768.8 2107.1 1768.3 2102 1767.4 2095.3 1767 2086.7 1767.4 2081.1 1767.2 2073.1 1773.2 2072 1774.1 2069.8 1773.7 2067.1 1771.7 2061.3 1772.8 2047.8 1772.5 2033.1 1769.4 2026.2 1768.5 2022.6 1770.3 2017.1 1774.5 2014.4 1781.9 2010.2 1791.3 2009.1 1814 2003.3 1808.2 1988.4 1810.9 1984.8 1819.8 1981.7 1815.8 1977.2 1813.6 1973.5 1813.1 1968.6 1814.5 1964.1 1812 1962.8 1807.8 1961.7 1798.6 1960.4 1791.5 1955.9 1788.6 1950.8 1786.1 1950.6 1782.3 1949.2 1781.4 1924.4 1780.7 1903.1 1780.3 1892.8 1848.1 1890.5 1848.6 1897 1893.2 1895.6 1895.9 1918.5 1895.5 1938.1 1892.1 1945.4 1886.1 1953.6 1872.5 1967 1868.9 1972.8 1867.8 1980.6 1868.7 1984.8 1873.4 1996.1 1886.2 2026.8 1859.4 2031.7 1862.3 2044.4 1868.5 2055.5 1871.4 2063.5 1875.2 2072.8 1892.4 2066.4 1902.9 2091.5 1901.8 2111.7 1909.9 2101.3 1912.1 2108.4 1923.7 2106.2 1928.8 2104.8 1928.8 2101.9 1929.5 2097.5 1933.3 2093.5 1936.4 2093.5 1943.6 2094.4 1950.7 2093.7 1952.9 2092.4 1956.3 2087.9 1977.7 2081.7 Z M 1834.8 2026.9 1830 2003.8 1822.8 2007.9 1818.3 2010.4 1813.7 2012.6 1795.8 2014.5 1790.3 2015.1 1782.5 2020.6 1782.8 2038.3 1834.8 2026.9 Z M 1931.2 2145.9 1929.3 2132 1915.6 2131.8 1915.5 2131.7 1915.5 2131.8 1899.8 2162.8 1903.6 2163.4 1916.6 2171.6 1931.2 2145.9 Z" data-holc_grade="B"/>
<path d="M 1516.9 2027.4 1512.5 2032.1 1511.3 2034.7 1524.3 2047.2 1521.4 2052.5 1525.4 2057.4 1536.3 2063.8 1546.8 2075.9 1548.9 2077.6 1553.8 2077 1557.1 2075 1561.1 2071.9 1566.5 2067.3 1567.8 2066.1 1570.3 2066.7 1571.6 2056.1 1591 2037.6 1598.6 2035.2 1603.3 2035.6 1609.8 2037.8 1614.9 2042 1630.8 2059.8 1639 2065.8 1647.7 2068.5 1651.3 2071.6 1652.7 2073.8 1660.7 2089.2 1658.2 2113.4 1659.3 2116.9 1661.8 2120.8 1669.6 2123.7 1678.2 2128.3 1683.9 2135.4 1688.9 2141.5 1693 2147.5 1692.1 2170.6 1683 2173.7 1683.9 2183.2 1683.2 2199.5 1681.9 2204.4 1678.7 2205.5 1674.3 2204.4 1659.3 2201 1653.7 2199.5 1647 2198.4 1636.1 2197.9 1624.3 2170.4 1615.5 2166.4 1609.5 2161 1605.5 2158.8 1602.4 2158.6 1595.9 2159.5 1548.6 2123.2 1543.9 2122.8 1536.7 2122.8 1532.7 2122.8 1502.8 2137.2 1499 2141.9 1498.3 2161.3 1491.2 2183.9 1520.4 2223.1 1524.2 2231.1 1535.6 2243.3 1588.5 2282.7 1573.8 2299.2 1570.2 2297.8 1568 2295.1 1565.5 2292.9 1562.6 2292.3 1560.6 2293.8 1556.9 2298.3 1548 2305.4 1541.9 2308.3 1534.4 2308.5 1530.1 2309.8 1525.9 2314.9 1523.2 2317 1519.2 2318.7 1508.9 2320.3 1507.6 2317.4 1501.5 2309.2 1499.1 2304 1491.3 2291.8 1484.6 2276 1482.5 2269.3 1480.3 2245.1 1478.3 2236 1475.8 2228 1473.4 2210 1460.7 2204.2 1459.3 2201.1 1459.8 2189.5 1436.3 2152.1 1433.7 2154.8 1430.1 2163.9 1424.3 2163.3 1408 2164.8 1398.4 2165.9 1390.3 2167.9 1378.7 2172.8 1359.3 2181.7 1341 2183.5 1337.9 2173.7 1324.9 2146.3 1318.5 2134.5 1318.7 2128.3 1324 2121.9 1327.8 2119.6 1337 2119 1346.8 2118.1 1355.3 2115 1362.2 2115 1365.6 2111.6 1357.1 2096.3 1357.1 2092.1 1361.8 2087.4 1367.8 2081.2 1372 2078.5 1381.2 2075.8 1391.9 2072.1 1401.3 2069.6 1411.3 2070.7 1412 2079.4 1411.6 2091.2 1415.6 2102.3 1442.1 2087 1445 2083.4 1445 2079.4 1443 2074.7 1437.9 2069.4 1437.2 2065.4 1436.8 2062.3 1434.6 2058.5 1436.1 2047.4 1438.1 2042.9 1449.5 2030 1456.7 2026.2 1458.2 2025.4 1470 2011.8 1479.4 2002.3 1485.5 1997.4 1490.1 1996.7 1496.4 1998.3 1502.2 2000 1505.5 1999.4 1516.9 2027.4 Z" data-holc_grade="B"/>
<path d="M 1122.2 1858.5 1104.1 1862.7 1098.3 1852.5 1096.5 1850.3 1093.4 1848.3 1089.1 1849.4 1085.8 1848.9 1057.7 1814.9 1045.2 1768.4 1047.2 1767.6 1069.6 1776.2 1088.8 1738.5 1099.7 1724.7 1105.5 1720.3 1105.1 1717.6 1102.6 1713.4 1102 1707.4 1104 1702.5 1107.5 1699.6 1111.3 1698.9 1115.6 1700.3 1118 1701.8 1122.5 1695.8 1124.9 1687.4 1127.2 1679.2 1126.5 1674 1126.5 1668.9 1128.3 1664.5 1131.2 1662.5 1148.4 1668.5 1152.4 1671.2 1155.7 1676.7 1156.9 1680.1 1153.3 1703.8 1151 1710.5 1144.3 1717.2 1132.3 1724.5 1118.9 1732.5 1113.8 1736 1105.7 1739.4 1099 1745.1 1097 1749.8 1094.1 1758.3 1090.7 1783.6 1091.4 1795.6 1094.8 1802.7 1104.1 1819.4 1108.3 1830.3 1109.2 1839.4 1114.1 1847.4 1119.5 1852.7 1122.2 1858.5 Z" data-holc_grade="B"/>
<path d="M 1341.3 1565.9 1339.5 1566.1 1335.3 1569.5 1329 1574.3 1324.5 1576.6 1317.9 1578.1 1325.2 1587 1326.1 1589.5 1325 1594.6 1332.8 1595.7 1349.1 1602.1 1347.5 1604.6 1355.8 1607.2 1361.8 1610.3 1368 1613.4 1377.4 1618.1 1384.6 1621.3 1393 1625 1394.1 1625.5 1402.4 1631.2 1412.2 1638.6 1406.6 1641 1386.1 1643.2 1389 1659.7 1382.1 1659 1381.2 1668.4 1372.7 1669.5 1376.9 1681.2 1376.9 1687.2 1380.1 1697 1365.3 1698.4 1350.6 1696.8 1351.1 1725.9 1349 1733.7 1345.5 1739.2 1339.7 1734.6 1326.8 1729 1325.1 1729.9 1322.2 1737 1315.2 1749.9 1315.2 1753.5 1316.1 1756.8 1318.4 1760.4 1310.1 1777 1278.9 1776.1 1271 1779.2 1262.8 1787.9 1253.4 1803.7 1244.3 1796.8 1235.3 1789.9 1234.9 1785.2 1236.2 1780.8 1239.4 1773.7 1240.7 1768.1 1240.3 1763.4 1254.3 1755 1254.3 1749 1254.8 1742.1 1258.3 1734.3 1257.2 1732.8 1241.4 1726.3 1238.7 1734.5 1230 1753.2 1219.5 1769.4 1211 1778.3 1197.6 1786.8 1180.7 1795.6 1171.5 1801.4 1161 1802.7 1125.8 1805.4 1120 1789.6 1116.6 1779.4 1115.5 1771.4 1121.1 1759.6 1133.4 1766.7 1167.3 1749.2 1186.1 1736.3 1191 1729.4 1199.4 1719 1199.3 1712.1 1197.6 1705.6 1193.5 1694.3 1189.1 1683.4 1184 1672.1 1177.5 1663.6 1166.3 1652.5 1156.3 1641.4 1154.1 1640.7 1142.3 1638 1136.2 1636.3 1130.9 1628.3 1128.4 1623.4 1126.4 1616.9 1119.5 1608.3 1152.1 1586.1 1159 1601.6 1164.1 1608.9 1160.3 1615.2 1165.5 1626.3 1180.2 1621 1168.2 1580.9 1163.5 1580.5 1155.7 1579.6 1149.4 1576.3 1144.7 1572.3 1134.3 1559.4 1151.2 1540.9 1127.6 1516 1137.4 1504.1 1145 1494.5 1150.6 1489.2 1154.2 1488.7 1158.2 1485.8 1164.9 1479.6 1170 1476.7 1173.8 1477.6 1179.6 1478.3 1183.6 1477.6 1184.5 1476.5 1186.5 1474.1 1189.2 1468.3 1193.7 1462.3 1203 1459.4 1226.2 1459.7 1229.1 1458.8 1254.8 1469.2 1277.1 1456.1 1294.7 1478.8 1304.5 1467.9 1312.3 1464.4 1321 1462.8 1323.7 1461 1323.2 1459 1321 1453 1328.1 1449.3 1343.1 1449.9 1351.8 1453 1359.8 1457.7 1363.8 1461.5 1369.6 1469 1378.5 1480.4 1391.3 1500.8 1387.2 1511.3 1373.9 1505 1370.7 1499 1360.3 1481.9 1350.7 1470.1 1323.7 1489.2 1319.2 1509.9 1273.9 1546.3 1268.6 1542.3 1266.6 1541.7 1264.1 1543.4 1258.1 1555.9 1250 1552.3 1241.1 1563 1264.5 1585.2 1272.8 1576.3 1281.9 1563.7 1293.5 1548.6 1301.4 1541.9 1310.3 1532.8 1316.1 1527.9 1325.7 1523.5 1342 1517.9 1338.2 1533 1344 1539.5 1348.4 1545.7 1346.9 1552.1 1343.7 1557 1341.3 1565.9 Z" data-holc_grade="B"/>
<path d="M 1121 1887.4 1107.4 1914.8 1095.6 1931.5 1092.6 1933.5 1082.6 1936.5 1059.7 1937 1053.5 1934.3 1051.7 1932.4 1043.3 1900.5 1067.6 1886.1 1099.6 1873 1106.5 1879.4 1121 1887.4 Z" data-holc_grade="B"/>
<path d="M 295.9 579.9 317 563.7 331.1 553.1 329.1 549.1 346.5 535.1 340.6 524.3 354 510.3 366.7 527.3 357.3 539.2 383.5 572.2 389.6 578.8 396.6 589.9 387 598.1 395.6 612.6 407.7 602.5 410 625.9 422.1 616 439.9 643.5 443.6 648.2 446.4 650.8 449.1 651.6 455.6 651.7 462.1 648 465.3 650.2 447.6 673 458 681.4 461.4 688.4 450.8 700.1 443.3 710.8 434 729.1 421.6 724.6 415.6 734 402.8 729.1 377.5 710.9 370.8 716.7 345 695 338.8 689.1 332.4 681.2 324.4 662.1 311.6 637.5 318.3 632.8 303.9 611.6 293.7 594.1 290.3 584.7 295.9 579.9 Z" data-holc_grade="B"/>
<path d="M 571.8 927.6 565.7 931.1 561.3 933.6 559.1 933 540.8 949.8 533.1 947.2 525 948.5 518.8 951.5 513.6 956.4 505.9 956.8 503.6 951.4 510.7 937.8 490.4 926.2 485.4 931.8 481.5 940 474.1 954.7 469.8 958.4 465 957.9 457.6 953.4 448.7 946.7 459.4 923.8 459.2 903.2 441.6 894.2 449.7 878.1 455.1 879.8 469.9 855.4 578.2 915.4 576.9 922.4 571.8 927.6 Z" data-holc_grade="B"/>
<path d="M 1524.1 1257.7 1520.8 1246.6 1516.8 1241.5 1513.7 1238.4 1505 1231.9 1493.1 1234.6 1486 1237 1480.4 1241.5 1476.2 1247.5 1474.9 1256.4 1476.4 1264.6 1476.9 1272.4 1476.9 1274.8 1472.4 1279.7 1470.8 1280.8 1463 1282.8 1457 1253.9 1449.9 1254.6 1444.3 1232.2 1416.2 1222.2 1407.5 1219.3 1405.3 1216.4 1416.2 1191.5 1411.5 1188.6 1437.2 1156 1433.8 1152.7 1437 1148.2 1441.9 1144 1451.5 1136.4 1447.9 1121.3 1448.6 1118 1452.4 1114.2 1464.2 1110 1472.9 1105.1 1474.6 1108 1474.4 1113.6 1479.8 1113.6 1488.7 1113.3 1493.8 1111.1 1498.5 1108.2 1500.9 1106.7 1504.1 1105.8 1509.6 1105.8 1514.5 1108.7 1518.6 1108.2 1518.8 1105.4 1516.3 1096.9 1514.1 1080.5 1550.2 1073.8 1552.4 1086 1559.1 1100.7 1551.8 1104.5 1546.6 1109.8 1540.2 1116 1534.4 1119.1 1528.1 1119.1 1520.6 1118.5 1511.2 1116.7 1518.1 1132 1517.7 1135.8 1520.8 1137.1 1531.5 1137.1 1544.4 1137.1 1544 1155.3 1534.2 1176 1531 1181.7 1532.4 1184.4 1538.2 1192 1543.5 1198.8 1546.2 1206.4 1545.8 1209.3 1545.8 1223.5 1546.4 1233.7 1538.4 1235 1540.6 1252.6 1536.4 1255.9 1524.1 1257.7 Z" data-holc_grade="B"/>
<path d="M 1551.8 1104.5 1559.1 1100.7 1584.5 1096.2 1585.3 1099.4 1591.1 1107.8 1593.6 1105.1 1600.1 1094.2 1603 1083.6 1603.8 1071.6 1599.2 1062.5 1592.5 1054.7 1586.7 1049.2 1581.8 1042.7 1570.4 1052.1 1552.1 1030.3 1567.5 1016.3 1584.2 1013.2 1588.5 1021.6 1594.7 1026.7 1609.9 1036.7 1613 1035.2 1620.3 1031.2 1631.2 1027.6 1639.9 1026.7 1644.8 1027.2 1656.2 1031 1652.6 1041.6 1674 1048.9 1675 1088.7 1667.4 1087.6 1649.3 1088.2 1643.1 1084 1638.2 1082 1628.6 1080.9 1629.7 1090.9 1638.8 1102.9 1651.3 1102.2 1652.4 1124.7 1654.2 1125.5 1656.9 1127.3 1662.3 1127.8 1668.7 1126.4 1671.8 1125.3 1674.5 1116.9 1692.3 1118.9 1693 1124.9 1693 1130.9 1694.6 1137.3 1694.6 1141.1 1700.8 1140.6 1702.4 1141.5 1710.4 1139.1 1722 1141.7 1724.2 1144 1727.4 1148.2 1729.6 1154.6 1732 1160.6 1732.5 1171.7 1723.4 1174.2 1732.1 1198.1 1726.3 1201.5 1728.5 1205.9 1729.8 1210.6 1730.3 1217 1727.4 1218.3 1718.5 1222.6 1711.8 1223.7 1707.3 1222.4 1705.3 1215.7 1705.7 1206.6 1697.9 1189.3 1671.2 1196.2 1675 1199.3 1679.2 1203.9 1683.2 1208.4 1685 1211.9 1686.8 1220.4 1688.6 1223 1691 1227.7 1692.8 1231.9 1698.6 1233.5 1693.3 1276.1 1693.7 1286.3 1695.3 1290.5 1697.3 1293.4 1701.1 1297.6 1705.8 1304.1 1709.8 1312.3 1712.5 1319.6 1714.7 1331.6 1716.9 1333.6 1722.7 1339.4 1724.1 1343.2 1724.7 1350.7 1726.5 1359.4 1729.2 1367.8 1730.1 1372.5 1727.4 1375.8 1733.2 1381.2 1737 1399.8 1716.5 1403.8 1705.1 1409.4 1705.8 1416.3 1704.9 1421.6 1699.6 1424.9 1689.1 1428.3 1682.4 1428.5 1679.3 1424.5 1674.4 1404.5 1650.3 1413.4 1649.6 1395.4 1621.3 1407.4 1617.5 1396.1 1619.9 1391.6 1627.5 1383 1637.1 1377.6 1654.1 1371 1653.6 1366.5 1653.6 1358.7 1651.4 1354.3 1647.8 1355 1644.2 1361.6 1638.9 1363.6 1635.6 1361.6 1633.3 1357.9 1629.5 1341.6 1641.1 1330.1 1641.6 1322.5 1626 1323.7 1625.3 1304.3 1629.7 1303.2 1634.4 1302.8 1640.4 1301.7 1642.5 1301 1642.9 1298.3 1642.5 1295.2 1639.1 1292.3 1634.6 1289 1632 1283.9 1632.6 1279.5 1638.9 1273.5 1647.4 1271.9 1651.1 1269.7 1655.4 1261.2 1659.4 1255.7 1660.1 1252.1 1658.3 1250.8 1655.1 1246.8 1652.7 1239.5 1651.8 1223.5 1654.3 1218.1 1653.4 1215.9 1649.1 1211 1639.3 1220.4 1625.5 1229.5 1627.5 1217.5 1629.7 1204.6 1629.1 1196.2 1625.9 1187.7 1620.4 1186.6 1614.1 1183.3 1608.5 1178.6 1605.2 1175.7 1599.8 1177.3 1596.3 1175.3 1591.1 1175.5 1590 1177.5 1590 1182.6 1589.6 1185.7 1587.4 1189.5 1583.3 1191.5 1578.9 1190.2 1575.3 1190.8 1569.3 1196.6 1563.3 1178 1557.7 1169.5 1547.7 1139.8 1548.8 1120.5 1551.8 1104.5 Z" data-holc_grade="B"/>
<path d="M 1978.9 1067.8 1962.2 1067.1 1960.4 1041.5 2029.5 1040.7 2031.7 1066.7 1978.9 1067.8 Z" data-holc_grade="B"/>
<path d="M 2070.9 804.4 2122.4 803.6 2123 835.9 2106.6 843.8 2102.5 846.8 2100.1 849.4 2093.9 849.7 2090.1 849.5 2085.2 846.6 2082.4 844.4 2084.3 873.5 2107.4 874.4 2105.8 878.1 2103.9 885.2 2103.1 890.3 2105.8 894.8 2119.9 911 2119.9 913.2 2118.2 915.3 2115.1 917.3 2110.4 917.9 2104 918.7 2087 923.6 2093.4 940.7 2055.7 954.8 2053.1 940.1 2058.5 937.1 2063.1 935.5 2072.2 929.8 2067.6 906.7 2066.4 896.6 2066.6 868 2065.8 861.5 2063.1 855 2063.1 848 2061.4 835.4 2057.7 828.8 2062.8 821.4 2071.1 811.5 2070.9 804.4 Z" data-holc_grade="B"/>
<path d="M 2531.9 1151 2508.2 1144.5 2500.7 1143.8 2450 1124.9 2447.8 1091.5 2453.5 1089.7 2460.3 1086.7 2464.2 1082.7 2467.9 1079.7 2470.8 1069.4 2471.3 1062.8 2474.3 1056.6 2490.6 1053.7 2492 1059.1 2495 1066.5 2497.2 1073.3 2497.7 1078.1 2498.3 1101 2498.8 1103.5 2503.1 1108.8 2515.4 1117.1 2521 1117.1 2525.1 1117.6 2529.3 1119.8 2531.8 1122.1 2533.5 1128.3 2531.9 1151 Z" data-holc_grade="B"/>
<path d="M 2998.2 975.2 2981.6 974.7 2957.3 977.4 2944.4 975.6 2946 966.6 2947.5 912.5 2951.7 886.4 2955.2 867.7 2955.7 856.5 2955.4 830.9 2958.5 819.2 2967.9 820.8 2968.9 795.2 2992.4 794.1 2998.2 975.2 Z" data-holc_grade="B"/>
<path d="M 2339.2 1187.1 2321.1 1211.7 2313.8 1215.5 2305.8 1219.9 2300.4 1224.2 2293.5 1249.5 2292.5 1256.4 2291.8 1261.5 2291.1 1265.9 2289.3 1270.6 2285.5 1279.7 2279.3 1315 2272.9 1310.8 2262.8 1288.2 2260.4 1277.5 2259.7 1266.4 2258.8 1256.4 2256.8 1251.3 2251.9 1246.3 2249.7 1242.7 2240.1 1238.5 2248.7 1223.3 2270.3 1234.6 2280.2 1207.6 2287.8 1193 2301.6 1204.9 2328.1 1177.6 2339.2 1187.1 Z" data-holc_grade="B"/>
</g>
<g id="C">
<path d="M 1091.3 914.7 1092.3 924.5 1095.2 937.5 1095.9 946 1096.1 950.3 1093.7 955.2 1092.7 959.3 1092.7 962.9 1093.6 966.4 1097.8 979.4 1098.2 1001.6 1082.7 995 1075.7 992.7 1073.4 990.6 1073.2 986.8 1078.6 976.7 1078.6 973.9 1075.4 969.1 1072.5 966.9 1070.2 966.8 1061.8 968 1044.2 967.6 1038.8 967.6 1035.2 967.3 1034 964.6 1033.5 962.3 1032.6 953.4 1018.3 951.5 994.6 941.8 995.9 956.6 969.5 944 972.5 930.1 970 918.9 967.9 915.2 962 911.3 959.3 907.2 958.6 902.6 958.1 886.8 997.1 897.4 1002.1 902.2 1007.8 903 1012.5 905.6 1040.8 903.9 1067.2 917.2 1091.3 914.7 Z" data-holc_grade="C"/>
<path d="M 2930.9 902.1 2934.1 883.2 2935.1 879.5 2937.5 874.1 2939.9 867.7 2939.9 863.7 2940.1 845.9 2940.4 838.2 2944.1 819.8 2947.8 809.4 2951.5 794.7 2968.9 795.2 2967.9 820.8 2958.5 819.2 2955.4 830.9 2955.7 856.5 2955.2 867.7 2951.7 886.4 2947.5 912.5 2946 966.6 2944.4 975.6 2957.3 977.4 2981.6 974.7 2998.2 975.2 2996.7 1034.9 2979.3 1027.2 2966.5 1020.1 2960.8 1017.4 2955.8 1016.9 2949.1 1016.9 2943.7 1016.9 2935.4 1015.9 2926.1 1011.6 2928.1 983.6 2935.9 983.1 2936.6 938.9 2932 931.1 2930.9 902.1 Z" data-holc_grade="C"/>
<path d="M 2764.8 1178.7 2767.4 1113.5 2775.9 1110 2782.9 1105.7 2789 1099.3 2790.3 1092.4 2791.4 1061.7 2811.7 1054.7 2811.6 1036.4 2811.1 1019.6 2811 1003.9 2813.4 996.7 2813.1 986.3 2815.8 983.1 2820.9 981.2 2824.6 980.7 2827.6 982.5 2829.5 986.5 2830.3 988.9 2839.4 989.7 2846 991.3 2859.2 993.4 2858.9 1005.1 2861.6 1009.9 2867.8 1013.9 2872.8 1015.2 2875.3 1019.7 2872.1 1034.9 2866.8 1055.7 2862.8 1073.8 2857.7 1079.2 2797.4 1135.8 2788.3 1147.3 2787 1151.3 2787 1155.3 2789.9 1161.1 2791.6 1164.8 2775.3 1176.1 2764.8 1178.7 Z" data-holc_grade="C"/>
<path d="M 2339.2 1187.1 2328.1 1177.6 2301.6 1204.9 2287.8 1193 2280.2 1207.6 2273.3 1207.4 2269.7 1207.9 2266.1 1208.1 2257 1207.2 2251.7 1218.1 2248.7 1223.3 2240.1 1238.5 2249.7 1242.7 2251.9 1246.3 2250.1 1250.7 2244.4 1261.9 2240.6 1267 2232.8 1269 2226.5 1265.4 2220.5 1261 2217.4 1257.4 2216.7 1250.8 2218.2 1243.2 2196.2 1236.8 2178.8 1262.1 2172.8 1269 2159.6 1274.6 2155.2 1274.6 2144.5 1265.5 2127.1 1276.2 2115.5 1272.2 2102.6 1276.9 2089.4 1266.4 2104.3 1234.2 2111.2 1228.5 2144.4 1204.2 2165.6 1198.2 2166.5 1199.1 2171.8 1206.6 2181 1208.6 2184.5 1206.4 2206.8 1190.4 2221.1 1194.8 2244.3 1205.4 2250.1 1193 2261.4 1178.8 2274.3 1167.7 2295.5 1156.7 2308.2 1155.4 2313.6 1156.5 2322.7 1159.4 2333.2 1162.9 2340.1 1165.6 2350.4 1167.3 2358.1 1167.8 2357.9 1169.1 2358 1171.8 2355.1 1174 2350.4 1178 2344.6 1180 2339.2 1187.1 Z" data-holc_grade="C"/>
<path d="M 2152.8 1387.8 2147.7 1432.5 2208.6 1479.1 2255.5 1460.8 2253.2 1469 2253.9 1473.5 2258.4 1480.6 2273.3 1469.7 2282.9 1466.8 2288.7 1469.2 2290.9 1471.4 2302.8 1464.7 2313.9 1462.7 2330.2 1462.3 2339.3 1464.9 2352.1 1472.7 2365.7 1478.9 2363.5 1484.8 2362.8 1486.7 2347.8 1480 2340.9 1477.4 2339.1 1480.7 2326 1476.7 2315.7 1476.5 2300.3 1477.9 2292.5 1483.4 2287.2 1488.3 2280 1493 2275.6 1485.9 2271.3 1495.2 2259.6 1502.3 2266.3 1525.2 2242.3 1534.8 2228.3 1502.9 2225.5 1496.4 2220.1 1496.8 2216.8 1489.7 2204.1 1494.4 2195.4 1494 2185.8 1488 2172.2 1479.3 2162.6 1473.6 2143.4 1466 2132.9 1458.9 2128.7 1463.8 2125.1 1464.5 2119.3 1463.2 2112.2 1460.3 2109.5 1456.1 2103.7 1451.2 2100.1 1444.3 2092.1 1436.1 2087.2 1433.6 2081.8 1430.5 2076 1430.5 2066.4 1432.8 2051.7 1435.4 2035.4 1437.2 2024.3 1436.8 2016 1436.8 2012.7 1434.1 2008.5 1431.5 2008.1 1427.1 2004.8 1419.1 2009.2 1410.7 2017.9 1397.8 2030.4 1372.5 2043.5 1358.4 2051.7 1350.7 2067.5 1317.7 2075 1324.1 2081 1317.2 2102.9 1337 2091.2 1351.4 2111.5 1367 2116.4 1384.7 2137 1383.8 2152.8 1387.8 Z" data-holc_grade="C"/>
<path d="M 2175.6 1501.7 2143.3 1511.7 2108.1 1526.4 2101.8 1512 2094.9 1516.9 2084.4 1529.6 2082.2 1534.9 2079.1 1548 2077.2 1550.9 2075.3 1553.8 2069.7 1561.1 2067 1565.6 2064.4 1566.9 2057 1567.8 2042.8 1563.9 2025.8 1559.2 2020.6 1547.2 2020.2 1541.2 2019.5 1536.7 2021.3 1531.2 2023.1 1527.2 2023.5 1522.9 2023.5 1519.2 2011.9 1506.5 2012.6 1496.5 2011.7 1491 2012.6 1485.9 2016.1 1481.2 2021 1476.1 2027 1468.1 2029.7 1461.4 2029.9 1457.8 2029.9 1452.3 2031 1449.8 2033.9 1447.4 2052.2 1442.5 2066.7 1438.5 2073.6 1438.5 2079 1439.1 2086.1 1445.8 2094.6 1458.7 2101.5 1466.9 2110 1471.3 2118 1473.5 2132.1 1475.1 2137 1475.1 2145.3 1476.4 2160.9 1482.2 2168.2 1490.2 2175.6 1501.7 Z" data-holc_grade="C"/>
<path d="M 2255.5 1460.8 2208.6 1479.1 2147.7 1432.5 2152.8 1387.8 2158.7 1389 2209 1399.5 2232.6 1398 2251.3 1355.3 2256.4 1348.6 2269.3 1324.8 2271.1 1317.8 2272.9 1310.8 2279.3 1315 2281.4 1349 2275.8 1373 2265.8 1394.8 2280.6 1401.2 2255.5 1460.8 Z" data-holc_grade="C"/>
<path d="M 2388.4 1371.2 2372.9 1380.2 2365.3 1386.5 2361 1389.1 2358.2 1396.5 2337.8 1387.6 2336.3 1390.9 2325.4 1387.2 2322.2 1394.1 2312 1388.8 2307.5 1401.9 2285.7 1393.4 2299.9 1365.4 2303 1352.6 2343.6 1369.8 2346.7 1359.6 2377.9 1368.5 2382.4 1359.1 2388.4 1371.2 Z" data-holc_grade="C"/>
<path d="M 2616.4 1347.8 2614.2 1342.4 2609.2 1340.3 2603.5 1340.7 2598.5 1338.6 2594.6 1341.1 2593.2 1345 2590.3 1346 2586.8 1348.2 2588.9 1352.8 2592.8 1353.5 2593 1430.6 2510.1 1405.5 2505.1 1409.8 2499.6 1424.1 2492.3 1422.3 2488.7 1424 2486.6 1425.5 2478 1421.6 2474.1 1418 2472.3 1411.6 2469.4 1402.4 2462.3 1386.8 2458 1378.6 2454.1 1368.3 2454 1355.1 2454.7 1330.6 2465.1 1337 2472.5 1326 2476.1 1322.4 2483.2 1319.2 2492.5 1316 2500.7 1314.9 2511.8 1317.7 2533.5 1297.8 2536 1291.4 2547.8 1278.2 2555.9 1270.4 2562.4 1267.5 2567.7 1268.6 2571.6 1270.7 2573.4 1277.1 2571 1291.3 2572.8 1299.9 2576.3 1303.4 2583.5 1293.8 2587.7 1288.5 2593.1 1286 2599.5 1286.3 2604.5 1287.7 2605.9 1286.7 2616.6 1295.5 2626.3 1289.8 2633 1285.2 2640.5 1298.7 2630.2 1307.9 2635.2 1314 2642.4 1321.8 2640.6 1330.3 2637.8 1336 2632.1 1339.6 2623.9 1342.1 2616.4 1347.8 Z" data-holc_grade="C"/>
<path d="M 2466.6 1417.7 2464.9 1439.7 2477 1442.5 2486.3 1443.6 2488.1 1435.1 2494.1 1435 2495.5 1434.3 2577.7 1457.7 2593 1461.6 2597.7 1464.7 2603 1470.1 2612.3 1472.5 2620.2 1475 2623.4 1478.6 2624.1 1486 2633 1485.7 2634.8 1466.1 2634.7 1451.9 2634.7 1437 2646.5 1437.3 2646.8 1426.6 2688.9 1427.6 2689.3 1410.9 2697.1 1410.5 2696.8 1414.8 2699.3 1417.3 2704.3 1447.5 2713.2 1439 2719.3 1437.5 2722.2 1459.6 2724 1463.1 2721.1 1469.9 2717.2 1471.6 2709 1469.9 2697.9 1470.3 2693.7 1473.8 2692 1516.8 2683.8 1524.7 2686.3 1528.2 2687 1541.7 2628.5 1553.6 2624.5 1523.7 2487.8 1484.1 2493.5 1468.1 2432.8 1451.5 2437.7 1441.2 2425.2 1423.1 2444.8 1406 2450.5 1408.5 2455.6 1425.2 2466.6 1417.7 Z" data-holc_grade="C"/>
<path d="M 2132.1 1687.1 2129.2 1686 2124.7 1685.5 2120.5 1687.7 2122 1696.4 2120.3 1700.9 2119.8 1719.1 2110.5 1736 2094.4 1722.4 2085.9 1715.6 2084.6 1710.4 2087.5 1695.1 2077 1693.6 2070.1 1702.5 2069.6 1711.3 2065.2 1712.2 2060.5 1711.6 2022.3 1690.5 2016.7 1686.3 2014.5 1682.3 2013.8 1679.6 2013.4 1676.3 2014.7 1673.4 2016.5 1670.3 2017.6 1666.1 2018 1663.8 2030.1 1659.6 2056.4 1636.9 2074.5 1620 2097 1599.1 2103.7 1602.9 2108.1 1609.1 2109.3 1613.5 2109.3 1617.8 2100.3 1621.3 2094.8 1626 2094.1 1628.7 2101 1633.3 2114.4 1642.6 2129.1 1642.2 2130.3 1651.1 2133.6 1658.8 2133.4 1665.3 2132.1 1672 2132.1 1687.1 Z" data-holc_grade="C"/>
<path d="M 1414.7 1091.8 1437.9 1086.3 1448.3 1090.7 1456.4 1094.7 1472.9 1105.1 1464.2 1110 1452.4 1114.2 1448.6 1118 1447.9 1121.3 1451.5 1136.4 1441.9 1144 1437 1148.2 1433.8 1152.7 1437.2 1156 1411.5 1188.6 1416.2 1191.5 1405.3 1216.4 1407.5 1219.3 1416.2 1222.2 1444.3 1232.2 1449.9 1254.6 1457 1253.9 1463 1282.8 1470.8 1280.8 1472.4 1279.7 1476.9 1274.8 1476.9 1272.4 1476.4 1264.6 1474.9 1256.4 1476.2 1247.5 1480.4 1241.5 1486 1237 1493.1 1234.6 1505 1231.9 1513.7 1238.4 1516.8 1241.5 1520.8 1246.6 1524.1 1257.7 1511 1260.1 1505.9 1261.7 1511 1281.7 1486.7 1287.7 1488 1293 1483.3 1295 1453.9 1297.2 1436.1 1269.5 1424.5 1252.8 1415.3 1242.1 1388.8 1222.4 1350.5 1190.6 1321.7 1161.7 1299.2 1143.5 1293.2 1133.7 1286.5 1127.1 1269.5 1110.4 1279.8 1099.5 1283.2 1093.2 1294.7 1065.6 1339.9 1093.7 1420.9 1147 1423.6 1138.3 1423.9 1133.2 1422.9 1127.1 1416.3 1109 1414.7 1091.8 Z" data-holc_grade="C"/>
<path d="M 2549.7 1678.5 2541.8 1657.9 2537.5 1645.4 2537.9 1636.2 2541.1 1624.5 2545 1610.6 2545.7 1603.1 2547.1 1596 2549.6 1589.2 2554.5 1574.3 2536.7 1567.6 2540.9 1556.6 2546.5 1547.7 2584 1566.1 2575.1 1584.9 2603 1594.5 2606.1 1591.3 2622.8 1551.1 2628.5 1553.6 2687 1541.7 2707.8 1546 2719.6 1547.7 2717.8 1534.6 2720.3 1522.8 2724.5 1519.3 2728.5 1523.9 2745.6 1523.1 2746.7 1529.5 2752.8 1541.6 2754.9 1549.4 2754.2 1555.8 2749.6 1565.8 2749.3 1570.4 2754.3 1596 2752.5 1601 2746.1 1604.9 2733.6 1605.3 2730.1 1607.1 2727.2 1611 2726.9 1617.4 2718.3 1630.2 2713.7 1636.6 2707.6 1640.2 2703.4 1643 2695.1 1643 2686.9 1642.4 2689.1 1649.8 2695.9 1655.8 2699.8 1658.3 2702.7 1664.7 2706.6 1672.2 2709.8 1676.4 2710.6 1685.7 2695.6 1685 2684.1 1680.8 2675.6 1685.8 2664.5 1699.3 2647 1688.3 2638.8 1680.8 2637 1687.2 2618.8 1683 2615.2 1659.9 2600.2 1661.7 2564.2 1671 2549.7 1678.5 Z" data-holc_grade="C"/>
<path d="M 2218.3 1770.1 2222.3 1770.5 2224.8 1772.5 2227 1781.7 2229.9 1787 2235.9 1790.1 2245.5 1791 2254.9 1791.2 2260.5 1793.4 2291.1 1807.1 2287.3 1816.5 2291.6 1842.9 2290.5 1845.8 2285.3 1849.2 2278.2 1851.2 2270.6 1850.1 2268.8 1846.1 2267 1842.7 2262.1 1841.2 2257.6 1842.5 2255.2 1843.4 2260.1 1851 2251.6 1863.7 2287.4 1937.6 2286.1 1943.9 2282.1 1946.3 2276.1 1949.7 2268.7 1957.2 2265.6 1966.3 2263.1 1973.5 2254.7 1980.8 2246.6 1985 2242.6 1973.3 2238.6 1966.6 2225.4 1958.2 2220.1 1959.1 2215.6 1960 2212.7 1964 2209.3 1935.1 2204.2 1919.5 2197.9 1914 2193.7 1908 2191.4 1900.2 2191.9 1892.6 2184.7 1876.6 2182.5 1869.1 2186.7 1867.3 2179.5 1839.5 2185.8 1833 2176.6 1793.5 2180.8 1781 2210.3 1769.7 2218.3 1770.1 Z" data-holc_grade="C"/>
<path d="M 2609.7 1802.4 2612.6 1806.4 2633.4 1809.7 2651.7 1815.5 2669.6 1824.3 2673.4 1828.1 2664.7 1850.8 2670.3 1853 2674.5 1857.9 2680.4 1864.5 2686.8 1867.6 2698.9 1874.1 2693.1 1881.4 2682.2 1880.1 2673 1877.7 2668.1 1874.1 2665.4 1885.9 2662.8 1885.2 2654 1882.1 2645.6 1876.4 2623.4 1860 2613.8 1849.5 2608.7 1839.8 2604.4 1828.7 2590.1 1834.2 2586.3 1826.2 2556.2 1841.6 2548.2 1825.9 2530.6 1834.8 2528.3 1839.4 2522.8 1848.3 2516.8 1854.1 2513.6 1858.8 2487.3 1855.1 2487.5 1849.3 2461.2 1852.7 2452.4 1815.1 2473.2 1814 2478.7 1806 2502 1819.9 2510.9 1807.5 2503.9 1796.6 2499.9 1782.1 2517.1 1773.4 2519.3 1782.3 2525.1 1779.7 2527.6 1785.7 2542.3 1776.5 2548.8 1779 2553.5 1779.2 2556.6 1778.5 2559.3 1777.2 2562.6 1773.6 2574.7 1763 2575.1 1763.1 2575.5 1762.2 2578.4 1762.9 2609.7 1802.4 Z" data-holc_grade="C"/>
<path d="M 2826.6 2004.8 2821.9 2009 2810.8 2023.3 2788.2 1999.1 2777.5 2009.5 2774.4 2008.4 2770.3 2000.4 2768.5 1982.2 2767.8 1959.1 2765.8 1952.9 2753 1936 2737.6 1919.6 2732 1910.5 2737.1 1904.2 2742.5 1898.7 2754.3 1906 2782.7 1919.7 2788.7 1927 2803.9 1944.3 2814.2 1959.9 2823.4 1949.9 2828.9 1945.8 2831.4 1944.3 2836.3 1944.3 2839.4 1947.8 2839.6 1950.1 2820.5 1978.3 2822.5 1981.7 2831.5 1983.2 2835.9 1984.7 2837.5 1987.9 2837.5 1991.2 2835.5 1995.9 2826.6 2004.8 Z" data-holc_grade="C"/>
<path d="M 2829.2 2242.7 2801.8 2203.1 2801.7 2199 2801.5 2195.5 2803.1 2188.8 2807.9 2182.5 2827.2 2190.4 2851.6 2217.1 2862.8 2231.9 2860.9 2234.5 2839.4 2247.5 2836.8 2246.8 2832.5 2243.5 2829.2 2242.7 Z" data-holc_grade="C"/>
<path d="M 2904.8 2258.3 2925.1 2293.3 2940.1 2336 2921.1 2341.2 2918.7 2336.9 2900 2343.1 2898.6 2347.1 2892.2 2350 2874.5 2358.9 2867.3 2361.8 2857.4 2365.1 2851.8 2364.8 2844.8 2364.5 2841.8 2365.4 2836.8 2367.2 2833 2370.4 2818.5 2357.9 2824.1 2349.9 2824.1 2333.6 2824.1 2316.5 2826.2 2314.1 2826.2 2310.7 2854 2290.3 2862.9 2298.8 2873 2288.9 2861.8 2274.8 2862.3 2271.3 2864.2 2267.9 2866.8 2264.9 2869.2 2259.1 2870.3 2254 2875.4 2250.5 2879.9 2248.6 2880.7 2246.2 2884.2 2240.6 2887.7 2239 2904.8 2258.3 Z" data-holc_grade="C"/>
<path d="M 2890.5 2421.3 2881.9 2420.5 2873 2418.9 2867.4 2416.8 2861.2 2415.5 2857.8 2416.3 2853.5 2420.1 2850.2 2408.9 2843 2388.8 2833 2370.4 2836.8 2367.2 2841.8 2365.4 2844.8 2364.5 2851.8 2364.8 2857.4 2365.1 2867.3 2361.8 2874.5 2358.9 2892.2 2350 2898.6 2347.1 2901.3 2363.6 2907.5 2365.2 2909.4 2367.1 2911.3 2372.9 2912.4 2379.6 2890.5 2421.3 Z" data-holc_grade="C"/>
<path d="M 2824.1 2333.6 2824.1 2349.9 2818.5 2357.9 2833 2370.4 2843 2388.8 2850.2 2408.9 2853.5 2420.1 2855.4 2425.1 2853.5 2433.9 2851.1 2436.3 2846 2437.4 2827.5 2436.1 2818.1 2436.1 2794.3 2437 2780.9 2436 2772.8 2436.2 2762.7 2438.1 2758.1 2441.9 2751.1 2444.6 2738.3 2442.7 2734.5 2437.9 2731 2436.8 2723.3 2437.9 2731.8 2394.7 2741.1 2385.8 2748.8 2361.3 2755.5 2344.4 2775.1 2346.8 2782.4 2333.3 2789 2338 2792.5 2340.9 2795.7 2341.4 2798.9 2341.4 2804.8 2339 2807.8 2342.5 2815.5 2339.2 2824.1 2333.6 Z" data-holc_grade="C"/>
<path d="M 2500.7 1960.2 2499.3 1960.4 2500 1970.9 2504.2 1995 2488 2002.4 2471.4 1975.9 2448.2 1992.2 2432.7 1972.1 2449.8 1959.3 2454.8 1956.5 2462.7 1955.2 2498.1 1953.1 2500.7 1960.2 Z" data-holc_grade="C"/>
<path d="M 2467.9 2033.3 2494.3 2015.3 2501.2 2027.5 2498.4 2030.3 2501.8 2037.8 2508.8 2033.4 2516.7 2046.2 2488.7 2063.6 2467.9 2033.3 Z" data-holc_grade="C"/>
<path d="M 1546.6 1319 1562.2 1333.3 1572.2 1382.7 1579.7 1397 1580.6 1406 1571.2 1406.2 1561.5 1408 1549.7 1413 1547.4 1401.9 1542.1 1376.4 1530.6 1379.6 1525.5 1366.5 1513.2 1381.2 1502.2 1369.7 1492.8 1344.1 1491.8 1331 1496.3 1319.3 1504.1 1321.7 1503.5 1315.3 1505.4 1312.4 1509.4 1309.7 1512.6 1303.1 1513.4 1300.4 1517.7 1298.3 1527.9 1298 1532.4 1301.5 1537.3 1306 1542.3 1316.1 1546.6 1319 Z" data-holc_grade="C"/>
<path d="M 2576.4 1999.2 2580.9 2001.9 2587.9 2009.6 2594.4 2019.5 2546.5 2044.6 2539.5 2047.8 2540.5 2028.6 2542.4 2022.5 2546.4 1991.8 2548.8 1987.8 2553.9 1987 2562.7 1989.1 2576.4 1999.2 Z" data-holc_grade="C"/>
<path d="M 2551.4 2112.1 2521.9 2111.3 2507.2 2110.9 2507.2 2098.3 2507.4 2096.7 2510.9 2089.5 2511.9 2078.3 2519.7 2075.4 2532.3 2073.2 2544.1 2069.2 2545.2 2074.5 2548.9 2078 2551.1 2080.6 2550.8 2085.5 2550 2096.1 2551.4 2107.9 2551.4 2112.1 Z" data-holc_grade="C"/>
<path d="M 2450.5 2248.8 2464.7 2218.5 2453.1 2165.7 2461.4 2162.7 2496 2176.5 2497.9 2171.7 2501.1 2163.2 2503.8 2158.6 2514.5 2163.4 2528.7 2168.5 2530.8 2171.4 2530.9 2175.4 2530.3 2182.6 2529 2188.5 2524.4 2190.9 2513.7 2193.6 2498.2 2196.6 2514.4 2250.7 2515.2 2259.5 2513.3 2263 2511.4 2263.5 2507.1 2263.5 2490 2260.4 2459.2 2251.6 2450.5 2248.8 Z" data-holc_grade="C"/>
<path d="M 1642.6 1747.4 1644.2 1745.7 1655.2 1738.1 1686 1701 1711.8 1717.9 1731.9 1728.1 1755.8 1738.5 1767.2 1745 1785.3 1760.1 1781.3 1763 1775.7 1776.3 1794.4 1790.5 1799.6 1792.1 1806.3 1791.2 1810.3 1787.6 1810.9 1783.6 1808 1779 1804.7 1769.8 1805.8 1766.7 1808.7 1763.6 1812.9 1761.4 1816.3 1763 1832.8 1770.5 1845.1 1775.4 1850.7 1778.3 1854.7 1784.1 1856 1789.6 1855.8 1794.9 1853.1 1801.8 1850.7 1804.5 1846.4 1805.8 1846.5 1842.7 1892.9 1844 1893.3 1861.4 1915.6 1858.7 1916.1 1841.1 1920.8 1836.2 1927.2 1831.4 1929.7 1830 1989.3 1842.9 1988.8 1850.9 2006.2 1853.7 2016.5 1854 2021.6 1852.2 2026.1 1849.3 2031 1847.2 2032.8 1846.4 2042.2 1845.1 2043.3 1847.1 2046.2 1852.8 2052.9 1854.6 2057.8 1855.5 2060 1859.3 2065.6 1870.6 2071.4 1879.9 2073.4 1887 2077.7 1899.7 2081.5 1907.5 2070.6 1912.2 2067.2 1908.4 2064.1 1902.8 2057.4 1895.5 2054 1891.9 2034.8 1889.7 2033.5 1899.7 2036.9 1905.7 2038.9 1912.9 2035.1 1921.3 2030.4 1925.1 2024.4 1924.2 2019 1920.4 2014.8 1916.2 2016.1 1912.9 2017.2 1904 2016.1 1902.9 2012.5 1903.1 2006.3 1903.8 2001.4 1905.3 1996 1906.4 1992.7 1904.7 1988 1899.3 1988.7 1902.9 1987.8 1906.5 1983.7 1907.8 1971.5 1907.1 1970.1 1912.9 1969.2 1914.2 1967.5 1914.2 1963.9 1914.2 1961 1914.5 1959.2 1936.9 1972.2 1939.8 1970 1966.7 1974.9 1968.9 1978.2 1968.9 1985.4 1969.6 1984.9 1980.5 1964.8 1987.8 1963 1990.1 1961.5 2031 1973.6 2032.3 1970.7 2070.3 1977.7 2081.7 1956.3 2087.9 1952.9 2092.4 1950.7 2093.7 1943.6 2094.4 1936.4 2093.5 1933.3 2093.5 1929.5 2097.5 1928.8 2101.9 1928.8 2104.8 1923.7 2106.2 1912.1 2108.4 1909.9 2101.3 1901.8 2111.7 1902.9 2091.5 1892.4 2066.4 1875.2 2072.8 1871.4 2063.5 1868.5 2055.5 1862.3 2044.4 1859.4 2031.7 1886.2 2026.8 1873.4 1996.1 1868.7 1984.8 1867.8 1980.6 1868.9 1972.8 1872.5 1967 1886.1 1953.6 1892.1 1945.4 1895.5 1938.1 1895.9 1918.5 1893.2 1895.6 1848.6 1897 1848.1 1890.5 1780.3 1892.8 1780.7 1903.1 1752.5 1903.4 1751.6 1881.7 1728.9 1883 1729.7 1897.2 1715.4 1896.9 1715.2 1925.7 1781.4 1924.4 1782.3 1949.2 1785.4 1998.6 1808.2 1988.4 1814 2003.3 1791.3 2009.1 1781.9 2010.2 1774.5 2014.4 1770.3 2017.1 1768.5 2022.6 1769.4 2026.2 1772.5 2033.1 1772.8 2047.8 1771.7 2061.3 1773.7 2067.1 1774.1 2069.8 1773.2 2072 1767.2 2073.1 1757.7 2072 1747.5 2071.3 1731.2 2070 1721.3 2068.2 1714.9 2065.3 1713.7 2060 1709.9 2045.6 1710.2 2040.2 1713.7 2040.7 1718.4 2040.4 1721.8 2039.8 1721.8 2036.7 1721.1 2033.1 1719.5 2028.4 1719.3 2022.4 1719.8 2018.6 1722.4 2012.2 1727.3 2000.6 1721.8 1995.3 1714.4 1983.7 1708.8 1969.7 1706.6 1966.6 1690.5 1948 1696.7 1939.5 1690 1930.2 1688 1925.1 1690.3 1920.6 1689.1 1917.7 1686.9 1913.3 1684.2 1910.2 1682 1907.9 1684.9 1893.9 1675.3 1881.3 1671.1 1882.4 1663 1881.3 1659.5 1879.9 1655.9 1877.3 1654.1 1874.2 1651.4 1863.3 1648.5 1849 1648.7 1838.4 1644.5 1826.4 1638.2 1816.6 1658.3 1799 1657.4 1793.9 1641.8 1793.7 1641.4 1786.8 1639.3 1781.2 1632.7 1786.8 1624.4 1789.7 1615.2 1792.1 1608.6 1780.8 1612.3 1778.6 1621 1773.2 1625.3 1768.4 1629.5 1761.2 1636.7 1753.5 1642.6 1747.4 Z" data-holc_grade="C"/>
<path d="M 1693 2147.5 1688.9 2141.5 1683.9 2135.4 1678.2 2128.3 1669.6 2123.7 1661.8 2120.8 1659.3 2116.9 1658.2 2113.4 1660.7 2089.2 1682.1 2088.1 1695.7 2086.7 1717.8 2088.8 1718.6 2104.8 1763.6 2109.4 1767.4 2113.1 1766.3 2120.9 1765.9 2128.5 1767.9 2140.3 1771.5 2150.7 1776.2 2161.8 1784 2173.6 1786.2 2179 1787.6 2185.2 1788.9 2190.3 1787.1 2195.2 1786.2 2201.6 1787.1 2208.3 1790.9 2219 1795.3 2222.9 1798.6 2238.2 1798.6 2242.9 1794.4 2255.3 1787.9 2269.6 1783.6 2268.8 1776.1 2266.4 1770.8 2267.4 1764.7 2266.4 1759 2273.8 1751.1 2284.2 1745.4 2287.4 1750.1 2314.8 1754.7 2324.7 1736.5 2326.2 1723.6 2334.7 1713.3 2340.1 1705.1 2346.5 1697.2 2347.5 1693.3 2346.1 1676.5 2328.3 1690.1 2315.9 1664.7 2284.5 1684 2267.8 1691.1 2271.4 1697.2 2273.5 1701.5 2274.6 1706.5 2280.3 1712.9 2283.8 1716.8 2275.6 1718.3 2268.9 1720.4 2255.3 1722.5 2250.7 1728.3 2244 1733.3 2241.5 1741.1 2237.5 1743.3 2234 1736.1 2224.7 1733.6 2218.7 1733.3 2215.1 1731.1 2211.2 1720.4 2195.9 1720.7 2191.3 1722.5 2187.7 1716.8 2181.7 1708.2 2172.4 1706.4 2167.8 1706.8 2153.6 1694.6 2150 1693 2147.5 Z" data-holc_grade="C"/>
<path d="M 1502.9 2409.6 1513.2 2393.6 1523.6 2379.4 1532.4 2370.8 1524.7 2363.7 1532.2 2352.3 1542 2357.5 1560.6 2383.6 1578.6 2374.4 1565.4 2363.9 1580.6 2354.4 1575.1 2339.3 1584.2 2337.2 1593.8 2334 1598.6 2331.1 1603.6 2327 1610.4 2319.4 1617.8 2313.3 1630.1 2327.7 1639.2 2341.3 1657.4 2368.7 1629.7 2386.1 1631.3 2375.1 1602.9 2384.2 1607.6 2404.1 1608.8 2410 1607.9 2414.4 1604.4 2419 1600.4 2423.8 1598.3 2427.8 1597.9 2432.7 1599.4 2450.5 1564.9 2449.8 1545.1 2451.3 1544.2 2445.2 1545.4 2440.6 1546.8 2435.1 1547.9 2427.8 1548.1 2419.6 1529.5 2418.9 1517.4 2417.3 1510.9 2415.8 1506.1 2413.4 1502.9 2409.6 Z" data-holc_grade="C"/>
<path d="M 1566.5 2067.3 1564.6 2065.2 1562.8 2063.2 1561.7 2060.5 1561.2 2055.9 1561.3 2052.1 1558.9 2051.1 1555.7 2051 1551.8 2051.4 1547.8 2051.7 1541.6 2050.6 1536.3 2047.6 1530.9 2042.3 1522.4 2034.5 1516.9 2027.4 1505.5 1999.4 1502.2 2000 1496.4 1998.3 1490.1 1996.7 1485.5 1997.4 1479.4 2002.3 1470 2011.8 1458.2 2025.4 1456.7 2026.2 1452.3 2008.3 1465.7 1992.5 1469.9 1986.2 1472.8 1982.9 1476 1980.2 1479.2 1979.3 1482.8 1979.5 1485.3 1978.6 1489 1976.1 1489.9 1971.7 1491.7 1970.4 1494.9 1969 1497.3 1962.6 1516.2 1955.7 1516.4 1981.6 1521.5 1981.3 1544.8 1963.3 1538.5 1956.7 1532.4 1952.1 1528.3 1950.1 1524.4 1947.8 1520.3 1942.1 1520.8 1934.5 1529.2 1907.1 1533.3 1897.7 1533.9 1892.3 1535.1 1889.3 1537.3 1887.4 1542.8 1887 1543.3 1886.5 1542.4 1866.7 1549.9 1864.2 1584.7 1866.7 1586.4 1899.4 1592.2 1896.8 1632.4 1893.9 1632.7 1901.9 1645.1 1911.3 1646.8 1912.6 1664.7 1916 1672 1917.6 1675.2 1917.6 1674.5 1920.8 1672.2 1922.4 1665.9 1925.9 1653.4 1930.6 1642.7 1932.7 1639.7 1933.9 1635.6 1939.5 1628.1 1949.4 1625.2 1953 1622.4 1965.6 1622.6 1969 1628.6 1969.3 1634.9 1970.9 1643.6 1973.1 1647 1974.3 1645.2 2000.6 1651.7 2001.2 1661.9 2000.8 1669.7 2002.4 1676 2005.3 1688.5 2007 1693.5 2007.7 1709.7 2018.9 1693.8 2035.1 1689.2 2036.7 1657.2 2036.9 1626.3 2035.2 1620.4 2037.5 1614.9 2042 1609.8 2037.8 1603.3 2035.6 1598.6 2035.2 1591 2037.6 1571.6 2056.1 1570.3 2066.7 1567.8 2066.1 1566.5 2067.3 Z" data-holc_grade="C"/>
<path d="M 1686 1701 1655.2 1738.1 1644.2 1745.7 1642.6 1747.4 1638.9 1746 1633.3 1745.1 1628 1744.2 1623.5 1744 1617.4 1747.2 1604.8 1757.9 1595.7 1761.8 1591.2 1760.9 1588.7 1760.4 1587.5 1757.4 1586.2 1752.2 1585 1744.6 1582.1 1738.5 1579.1 1731.6 1577.5 1727.5 1574.2 1726.1 1562.3 1725.2 1559.8 1722.9 1557.3 1717.4 1552.8 1707.8 1553.5 1705.4 1553.4 1700.8 1553.2 1696.7 1551.6 1691 1555.7 1686.1 1564.1 1676.3 1574.8 1652.1 1585.8 1637.2 1592.1 1642.9 1597.1 1645.9 1602.4 1646.6 1607.8 1651 1615.5 1657.3 1641.2 1672.4 1644.6 1675.9 1647.4 1680 1651.7 1683.4 1657.4 1685.3 1661.5 1684.8 1663.8 1684.3 1666.2 1684.3 1669.2 1685.2 1671 1686.8 1686 1701 Z" data-holc_grade="C"/>
<path d="M 1338.9 1437.9 1341.3 1437.8 1355 1437 1367.3 1436.2 1371 1443.4 1391.4 1468.2 1401.5 1487.1 1408.5 1494.9 1414.4 1499.1 1421.9 1503.4 1423.5 1505.3 1423.7 1512.2 1424.5 1519.7 1425.3 1522.3 1415.2 1525.8 1407.7 1527.4 1392.1 1524.5 1378 1521 1382.2 1535.6 1382.2 1538 1381.2 1543.6 1380.9 1548.4 1383 1550.3 1385.7 1553.2 1387.3 1558.3 1388.1 1565.5 1390.8 1568.4 1395.3 1567.6 1399.1 1566.6 1404.5 1568.4 1410.3 1569.5 1413.8 1569.5 1417.3 1568.2 1424.3 1567.4 1428 1567.4 1426.1 1560.7 1451.4 1544.7 1457.3 1540.5 1462.7 1539.7 1469.1 1542.6 1476.1 1551.1 1508.2 1586.3 1502.3 1593 1498.8 1597.3 1490.5 1612.7 1480.6 1621.5 1484.6 1630.3 1487.3 1636.2 1494.5 1648.2 1488.4 1664.7 1485.7 1673.5 1482.7 1681.3 1464 1673.5 1458.4 1670.3 1435.4 1660.7 1429.2 1656.7 1424.4 1654.6 1417.2 1654.6 1412.6 1658.6 1412.1 1666 1412.1 1678.6 1410.5 1686 1415 1693.8 1419.3 1701.8 1420.1 1709.5 1422.5 1718.1 1432.9 1718.3 1438.6 1715.1 1447.1 1703.4 1450.9 1697.3 1450.9 1695.4 1447.4 1694.1 1431.1 1696.5 1424.4 1680.7 1431.3 1678.1 1445.5 1681.8 1454.9 1683.9 1467.5 1684.2 1474.7 1686.3 1478.5 1687.9 1478.2 1696.5 1493.7 1701.8 1473.5 1757.7 1472.8 1759.7 1469.6 1763.1 1454.4 1757.3 1444.2 1752.7 1440.7 1749.8 1433.7 1759.4 1430.5 1758.6 1426 1753.3 1420.1 1749 1416.1 1748.2 1408.3 1748.2 1402.7 1749.5 1400.3 1749.8 1393.8 1745 1384.5 1719.9 1381.5 1700.7 1380.1 1697 1376.9 1687.2 1376.9 1681.2 1372.7 1669.5 1381.2 1668.4 1382.1 1659 1389 1659.7 1386.1 1643.2 1406.6 1641 1412.2 1638.6 1402.4 1631.2 1394.1 1625.5 1393 1625 1394 1623.7 1399.5 1616.4 1406.5 1610.9 1415.5 1603.1 1417.3 1600.8 1415.8 1598 1413.8 1595.1 1411.3 1594.9 1408.7 1596.4 1405.8 1598.5 1402 1602.8 1397.7 1607.1 1394.2 1611.4 1384.6 1621.3 1377.4 1618.1 1368 1613.4 1370.9 1607.3 1373.4 1603.6 1379.4 1598.2 1389.8 1589.2 1393.1 1586.2 1392.8 1584.4 1391.6 1583.1 1390.2 1582.7 1385.7 1583.9 1382.5 1586.7 1377.6 1591.4 1370.9 1597.2 1367.1 1602 1361.8 1610.3 1355.8 1607.2 1347.5 1604.6 1349.1 1602.1 1357.4 1589.1 1357.3 1587.5 1355.1 1586.1 1352.8 1585.3 1350.7 1584.1 1347.4 1583.3 1343.5 1582.8 1341 1581.3 1339.8 1579 1339.9 1576.1 1340.7 1572.7 1341.3 1565.9 1343.7 1557 1346.9 1552.1 1348.4 1545.7 1344 1539.5 1338.2 1533 1342 1517.9 1325.7 1523.5 1316.1 1527.9 1310.3 1532.8 1301.4 1541.9 1293.5 1548.6 1281.9 1563.7 1272.8 1576.3 1264.5 1585.2 1241.1 1563 1250 1552.3 1258.1 1555.9 1264.1 1543.4 1266.6 1541.7 1268.6 1542.3 1273.9 1546.3 1319.2 1509.9 1323.7 1489.2 1350.7 1470.1 1360.3 1481.9 1370.7 1499 1373.9 1505 1387.2 1511.3 1391.3 1500.8 1378.5 1480.4 1369.6 1469 1363.8 1461.5 1359.8 1457.7 1351.8 1453 1343.1 1449.9 1328.1 1449.3 1321 1453 1323.2 1459 1323.7 1461 1321 1462.8 1312.3 1464.4 1304.5 1467.9 1294.7 1478.8 1277.1 1456.1 1254.8 1469.2 1229.1 1458.8 1226.2 1459.7 1203 1459.4 1193.7 1462.3 1189.2 1468.3 1186.5 1474.1 1184.5 1476.5 1183.6 1477.6 1179.6 1478.3 1173.8 1477.6 1170 1476.7 1164.9 1479.6 1158.2 1485.8 1154.2 1488.7 1142.4 1476.4 1135.7 1475 1122.6 1464.4 1119.7 1460.6 1133.6 1452.1 1150 1437.5 1161.5 1421.7 1167.1 1414.8 1206.7 1432.7 1208 1437.2 1216.9 1441 1235.6 1444.4 1253.8 1444.7 1267.2 1443.4 1281.9 1439.9 1297.7 1433.5 1301.7 1433 1308.9 1433 1318 1438.6 1325.5 1442.1 1331.9 1441.8 1336.8 1438.1 1338.9 1437.9 Z" data-holc_grade="C"/>
<path d="M 1150.7 1226.2 1159.4 1229.1 1161.9 1234.6 1164.8 1236.6 1168.1 1240.6 1172.6 1247.3 1173.7 1257.5 1177.3 1260.2 1190.2 1265.7 1196.4 1270.4 1203.6 1275.5 1210.7 1287.3 1212.5 1282.6 1214.7 1278.4 1219 1276.4 1221.6 1274.6 1224.4 1269.9 1229 1274.6 1236.8 1283.3 1238.6 1285.1 1242.6 1286.9 1247.5 1286.9 1253.7 1283.5 1259.5 1283.1 1262.2 1285.1 1263.3 1288.2 1262.9 1300 1268.4 1386.8 1258.4 1394.2 1260.4 1411.3 1244.2 1413.5 1203.6 1408.8 1201.8 1403 1190.7 1386.4 1184 1386.1 1179.1 1383.5 1175 1381.9 1170.1 1381.5 1153.4 1383 1116 1365.2 1116.9 1357.2 1109.3 1344.3 1134 1329.7 1139.8 1340.8 1155.6 1348.4 1164.5 1342.8 1150.9 1333.3 1139.1 1319.7 1136 1310.4 1130.4 1299 1124.2 1293 1125.5 1279 1128.9 1264.8 1129.8 1256.6 1126.9 1246.4 1127.3 1232.2 1132.2 1224.6 1138.3 1222.6 1142.9 1222.6 1147.9 1224.6 1150.7 1226.2 Z" data-holc_grade="C"/>
<path d="M 1707.3 1222.4 1707 1229.5 1723.9 1223.9 1740.6 1221.2 1758.9 1221 1776.5 1221 1796.8 1222.5 1799.3 1242.3 1808.2 1275.2 1797.9 1275.4 1792.6 1276.5 1790.1 1275.4 1788.4 1270.1 1784.6 1271 1781 1272.5 1758.3 1272.3 1760.5 1311.6 1781.2 1310.9 1791.1 1311.4 1802.2 1312.3 1815.4 1312 1818.9 1324.5 1823.8 1328 1826.7 1330.2 1829 1333.6 1835.9 1332.7 1837.2 1331.1 1837.2 1327.8 1835.4 1324.7 1832.8 1321.1 1832.8 1318 1835.9 1315.8 1840.1 1313.4 1840.1 1303.8 1841.9 1300.5 1849 1298.9 1858.8 1295.6 1859.9 1294.7 1860.4 1286.7 1860.4 1280.7 1879.8 1278.9 1884.3 1302.7 1891.4 1302.2 1896.5 1301.8 1904.8 1306.4 1913 1318.6 1916.8 1328.4 1920.8 1331.7 1932.4 1337.5 1928 1349.1 1935.1 1355.3 1901.7 1411.7 1870.1 1451.3 1865.8 1450.4 1860.2 1446 1856.9 1441.5 1855.6 1435.3 1857.1 1422.9 1864.2 1406.6 1856.4 1402.9 1847.1 1420.2 1844.2 1422.9 1839.9 1422.7 1829.7 1429.3 1825.7 1431.3 1824.1 1432 1821.4 1431.5 1818.1 1427.1 1797.4 1445.6 1784 1453.8 1777.7 1455.8 1772.8 1455.8 1769 1450 1766.4 1439.6 1756.3 1441.8 1750.3 1442 1743.8 1441.6 1735.4 1449.1 1731.6 1451.1 1725.3 1451.6 1715.7 1449.4 1699.3 1454.7 1697.5 1455.1 1693.7 1454.7 1690.8 1437.8 1687 1442.3 1684.8 1444.5 1680.8 1447.2 1668.7 1446.5 1653.6 1439.6 1629.7 1444.9 1624.3 1417.4 1619.7 1414.3 1614.1 1408.3 1611.9 1406.5 1607.2 1406.5 1601.8 1406.5 1599.8 1394.5 1599.4 1390.5 1599.8 1387.6 1602.5 1382.7 1603.4 1380.1 1602 1378.1 1597.6 1377.6 1594.9 1377 1593.8 1373 1592 1365.9 1592.2 1361 1600.3 1358.3 1606 1357.6 1608.9 1356.8 1613 1354.5 1617.2 1345.9 1621.4 1341.4 1626.3 1337.6 1629.5 1341.6 1633.3 1357.9 1635.6 1361.6 1638.9 1363.6 1644.2 1361.6 1647.8 1355 1651.4 1354.3 1653.6 1358.7 1653.6 1366.5 1654.1 1371 1637.1 1377.6 1627.5 1383 1619.9 1391.6 1617.5 1396.1 1621.3 1407.4 1649.6 1395.4 1650.3 1413.4 1674.4 1404.5 1679.3 1424.5 1682.4 1428.5 1689.1 1428.3 1699.6 1424.9 1704.9 1421.6 1705.8 1416.3 1705.1 1409.4 1716.5 1403.8 1737 1399.8 1733.2 1381.2 1727.4 1375.8 1730.1 1372.5 1729.2 1367.8 1726.5 1359.4 1724.7 1350.7 1724.1 1343.2 1722.7 1339.4 1716.9 1333.6 1714.7 1331.6 1712.5 1319.6 1709.8 1312.3 1705.8 1304.1 1701.1 1297.6 1697.3 1293.4 1695.3 1290.5 1693.7 1286.3 1693.3 1276.1 1698.6 1233.5 1692.8 1231.9 1691 1227.7 1688.6 1223 1686.8 1220.4 1685 1211.9 1683.2 1208.4 1679.2 1203.9 1675 1199.3 1671.2 1196.2 1697.9 1189.3 1705.7 1206.6 1705.3 1215.7 1707.3 1222.4 Z" data-holc_grade="C"/>
<path d="M 109.5 217.4 104.7 210.8 98 197.4 87.3 204.1 81.1 205.7 73.9 204.2 50.5 220.7 47.3 220.7 41.7 210.1 25.5 179.8 20.5 177.7 18.3 173.3 17.4 169 7.9 136.5 44.6 129.3 47.8 144.8 52.5 158.7 59.2 166.6 64.4 168.6 69 165.4 70.5 162.2 70.6 158.8 69 153.6 85 150.4 87.9 114.9 86.8 96.9 89 92.3 98.1 93.1 103.6 95.6 108.2 101 110 109.4 106.6 147.9 107.8 167.4 121.2 161.8 138.7 162.2 160.5 169.7 157.9 185.6 153.4 194.4 150.4 198.8 145.6 200.5 129.7 197.5 122.3 201.8 118 204.3 109.5 217.4 Z" data-holc_grade="C"/>
<path d="M 610 942.1 608.9 945 607.9 947.9 597 958.2 583.1 968.1 581.2 970.2 579.8 971.7 576.1 968.5 570.3 966.1 565.8 960.7 562.3 951.7 561.3 933.6 571.8 927.6 576.9 922.4 578.2 915.4 469.9 855.4 455.1 879.8 449.7 878.1 440 871.4 460.1 837 584.5 898.4 582.8 907.7 599.7 916.3 598 923.5 609.7 929.8 602.1 937 610 942.1 Z" data-holc_grade="C"/>
<path d="M 1192 1939.2 1177.3 1948.5 1184.1 1958.8 1183.6 1965 1167.1 2009.5 1163.6 2014.3 1158.7 2017.1 1149.6 2019.6 1146.2 2020.8 1145.2 2025.8 1145.7 2034.7 1143.9 2041.3 1127.3 2065.3 1136.4 2073.8 1133.2 2077 1130.1 2078.6 1126.4 2081.7 1123 2085.9 1118 2087.5 1111.4 2087.5 1107.8 2089.8 1110.5 2101.2 1114.2 2106.9 1112.9 2128.6 1020.2 2130.2 1014.2 2098.1 1027.4 2106.7 1033.7 2103.3 1041.3 2101 1049.9 2099.9 1057.6 2099.6 1065.8 2099.4 1073.9 2098 1075.3 2097.5 1076.9 2081.8 1075.3 2080 1048.5 2084.1 1044.6 2083.7 1022.4 2088 1018.1 2087.3 1017.2 2083 1017.8 2066.7 1018.7 2061.7 1023 2052.6 1024.8 2048 1019.2 2046.9 1024.8 2035 1026.6 2032.1 1030 2030.9 1034.1 2029.7 1046.3 2027 1059.5 2024.5 1068.1 2021.9 1070.6 2021.1 1076.1 2021.2 1085.6 2018.7 1094.7 2015.3 1100.7 2009.8 1103.6 2007.1 1105 2000.4 1103.3 1985.4 1098.6 1970.6 1141.9 1934.6 1156.5 1922.3 1163.6 1928.7 1167.6 1921.6 1171.9 1922.8 1192 1939.2 Z" data-holc_grade="C"/>
<path d="M 1962.2 1067.1 1978.9 1067.8 1977.1 1083.8 1986.1 1194.6 2002.9 1192.8 2004.3 1200.6 1999 1205.2 2002.2 1221.9 2025 1220.9 2023.3 1227.6 2018.3 1236.5 2011.9 1253.6 2008.7 1257.1 1991.2 1266.4 1987.6 1274.9 1983 1279.5 1974.8 1293 1970.2 1303.3 1965.9 1316.9 1954.1 1330.7 1945.2 1321.8 1928.8 1311.9 1936.6 1302.3 1910.6 1288.5 1897 1294.5 1891.7 1278.5 1899.9 1278.9 1906.3 1254.7 1890.6 1246.2 1877.7 1229.5 1875.2 1225.9 1859.2 1218.5 1853.5 1216.7 1849.5 1214.2 1842 1208.2 1839.9 1186.5 1837 1179.1 1834.2 1167.3 1847.4 1173.4 1863.8 1168.4 1880.5 1168 1884.5 1172.6 1885.2 1177.3 1884.1 1189 1883.8 1196.1 1881.6 1207.5 1885.2 1214.2 1890.2 1219.9 1899.1 1224.9 1913.8 1233.4 1913.7 1216.7 1943 1214.2 1936.5 1095.9 1930.8 1093 1926.5 1096.2 1915.8 1100.1 1907.3 1100.5 1904 1071.7 1898.7 1053.6 1916.1 1055.7 1928.3 1060 1933.6 1073.5 1962.2 1067.1 Z" data-holc_grade="C"/>
<path d="M 2086.7 1107.8 2087.4 1114.4 2077.9 1114.8 2030.9 1116.8 2030.3 1112.3 2030.5 1111.6 2030.1 1109.8 2032.8 1104.7 2035.1 1101.8 2036.5 1098.3 2039.6 1096 2044 1095.2 2048 1096.1 2051.5 1090.1 2053.3 1084.9 2055.8 1083.3 2061.9 1082.4 2065.4 1083.3 2084.9 1088.5 2086.7 1107.8 Z" data-holc_grade="C"/>
<path d="M 2204.4 1086.1 2204.5 1087.9 2194.9 1088.8 2186.9 1091.1 2175.1 1096.3 2170.1 1100.7 2166.4 1106.2 2151.6 1121.9 2147.1 1121 2142.9 1123.3 2139.3 1126.3 2133.4 1135.1 2128.4 1141.5 2122 1147.7 2107 1156.8 2093.3 1132.8 2083.5 1137.1 2077.9 1114.8 2087.4 1114.4 2086.7 1107.8 2093.4 1109.5 2103 1111.6 2106.9 1110.4 2113.9 1109.7 2125.3 1108.4 2135.5 1108.4 2139.6 1109.5 2147.8 1114.1 2159.2 1102 2159.5 1100 2159.2 1096.1 2157.6 1085.3 2157.4 1075.7 2151 1078 2145.1 1081.4 2139.4 1085.3 2134.4 1085.3 2132.8 1084.8 2131 1082.8 2128.5 1078.6 2118.3 1075 2116.9 1073.2 2107.8 1068.8 2106.2 1063.5 2102.8 1056.9 2100.7 1056.9 2094.8 1059.9 2093.2 1055.7 2091.5 1040.8 2085.3 1041.3 2074.8 1041.1 2072.1 1009 2094 1007.4 2099 1007.2 2109 1003.5 2115.8 999.5 2120.2 998.6 2127.7 999.5 2112.3 958.2 2121.2 955.8 2135.7 956.4 2142.1 956.9 2164.6 966.1 2166.9 968.6 2169.9 973.2 2172.1 981.4 2172.6 992.6 2182.4 995.9 2180.7 1005.9 2183.7 1011.7 2180.9 1021 2189.8 1035.5 2247.6 1038.8 2247.7 1039.7 2249.7 1044.5 2254 1056.9 2251.3 1063.3 2251.9 1075.6 2203.6 1077.2 2204.4 1086.1 Z" data-holc_grade="C"/>
<path d="M 2334.1 1104.3 2334.6 1094.7 2285.2 1097.9 2265.8 1098.3 2243.1 1097.5 2233.8 1096.6 2213.7 1085.8 2222.2 1084.3 2225.6 1083.8 2233.4 1085.4 2233.8 1081.7 2315.4 1077.3 2320.2 1054.6 2314.3 1035.9 2305.2 1021.2 2321.6 1019.2 2323.6 1021.9 2327.5 1040.9 2330.7 1041.2 2334.3 1040 2336.8 1038 2340.3 1033.6 2347.1 1024.5 2353.7 1018.3 2358.9 1016.7 2366.7 1016.7 2367.6 1054.7 2355.2 1055 2356.3 1083.1 2372.1 1082.2 2378.4 1083.3 2393.2 1098 2406.4 1104.7 2399.5 1118.6 2372.2 1111.7 2334.1 1104.3 Z" data-holc_grade="C"/>
<path d="M 2531.9 1151 2529.6 1170 2451.4 1142.4 2450 1130.5 2450 1124.9 2500.7 1143.8 2508.2 1144.5 2531.9 1151 Z" data-holc_grade="C"/>
</g>
<g id="D">
<path d="M 1453.9 1297.2 1483.3 1295 1488 1293 1486.7 1287.7 1511 1281.7 1518 1279.6 1524.1 1279.6 1531.1 1280.1 1531.9 1276.9 1534 1272.1 1538.3 1268.9 1545 1266.8 1546.1 1266.3 1547.4 1262.8 1550.4 1251.9 1549 1231.1 1552.5 1228.2 1567.2 1228.2 1568.6 1233.2 1565.6 1242.8 1564.8 1249.7 1565.9 1254.3 1571 1260.7 1570.7 1264.1 1568 1267.6 1565.3 1271.3 1565.9 1278 1573.9 1281.7 1578.5 1279.6 1583.5 1279.6 1598.8 1282 1592.4 1286.5 1593.4 1290.3 1583.5 1299.8 1575.5 1305.7 1564.3 1308.6 1547.2 1306.5 1546.6 1319 1542.3 1316.1 1537.3 1306 1532.4 1301.5 1527.9 1298 1517.7 1298.3 1513.4 1300.4 1512.6 1303.1 1509.4 1309.7 1505.4 1312.4 1503.5 1315.3 1504.1 1321.7 1496.3 1319.3 1491.8 1331 1492.8 1344.1 1502.2 1369.7 1513.2 1381.2 1525.5 1366.5 1530.6 1379.6 1542.1 1376.4 1547.4 1401.9 1525.5 1427 1564.6 1448.6 1599.3 1472.1 1630.8 1492.3 1666.7 1515.5 1679 1525.9 1688.7 1541.9 1696.4 1547.7 1705.8 1547.7 1715.4 1546.7 1749.7 1538.9 1778.1 1530.9 1799.5 1515.2 1816.9 1497 1828.4 1481.3 1848.7 1468.5 1860.2 1477 1854.6 1480.5 1834.3 1499.7 1801.4 1537 1776.3 1554.1 1728.1 1575.5 1718.2 1577.1 1711.2 1576.5 1704 1574.7 1696.8 1575.2 1692.5 1576.8 1685.8 1577.1 1679.4 1577.1 1678 1568.3 1606.3 1577.4 1604.2 1567.2 1602.6 1566.7 1592.1 1567 1582.7 1562.2 1568 1555.8 1545.3 1543.5 1541.8 1528.3 1525.2 1532.6 1508.1 1462.2 1500.3 1453.9 1499.2 1444.1 1489.3 1412.1 1501.1 1406.7 1511 1405.1 1488.5 1369.4 1480.5 1349.4 1455.9 1357.4 1446.5 1330.5 1437.4 1331.8 1430.2 1311 1448.1 1312.1 1453.2 1312.1 1464.2 1314 1453.9 1297.2 Z" data-holc_grade="D"/>
<path d="M 2042.8 1563.9 2018.2 1586.7 2025.7 1604.5 2020 1609.8 2036.1 1621.9 2053.6 1602.7 2074.5 1620 2056.4 1636.9 2030.1 1659.6 2018 1663.8 2017.6 1666.1 2016.5 1670.3 2014.7 1673.4 2013.4 1676.3 1979.7 1675.6 1974 1674.9 1969 1673.8 1960.1 1674.2 1931.9 1678.5 1890.2 1683.8 1859.5 1689.2 1837 1689.9 1824.5 1691 1815.2 1693.5 1808.4 1694.9 1775.2 1682.5 1794.5 1642.6 1797.3 1626.3 1804.8 1611.3 1818.7 1604.9 1849.8 1580.8 1877.2 1553.4 1909.7 1535.2 1918.6 1527 1927.5 1521.3 1929.3 1519.2 1933.6 1512.8 1942.9 1507.8 1957.1 1489.7 1981 1469.8 1998.1 1459.1 2016 1452.3 2029.9 1452.3 2029.9 1457.8 2029.7 1461.4 2027 1468.1 2021 1476.1 2016.1 1481.2 2012.6 1485.9 2011.7 1491 2012.6 1496.5 2011.9 1506.5 2023.5 1519.2 2023.5 1522.9 2023.1 1527.2 2021.3 1531.2 2019.5 1536.7 2020.2 1541.2 2020.6 1547.2 2025.8 1559.2 2042.8 1563.9 Z" data-holc_grade="D"/>
<path d="M 2223.4 1755.4 2218.3 1770.1 2210.3 1769.7 2180.8 1781 2176.6 1793.5 2185.8 1833 2179.5 1839.5 2186.7 1867.3 2182.5 1869.1 2184.7 1876.6 2191.9 1892.6 2191.4 1900.2 2193.7 1908 2197.9 1914 2204.2 1919.5 2209.3 1935.1 2212.7 1964 2215.6 1960 2220.1 1959.1 2225.4 1958.2 2238.6 1966.6 2242.6 1973.3 2246.6 1985 2242.6 1988.8 2240.4 1993.9 2238.4 2006 2231.3 2024.6 2229.5 2028.9 2224.8 2033.1 2201.1 2012.9 2197.8 2009.6 2193.3 1999.8 2174.5 1921.3 2187.4 1919.7 2186.1 1911.5 2174.9 1888.9 2168 1870.2 2167.7 1858.8 2154.3 1841.5 2146.9 1830.2 2145.8 1821.7 2137.6 1813.8 2131.3 1805.3 2127.9 1798.4 2126.6 1790.4 2127.5 1785.1 2132.8 1780.9 2121.7 1760.6 2103.3 1742.7 2069.6 1711.3 2070.1 1702.5 2077 1693.6 2087.5 1695.1 2084.6 1710.4 2085.9 1715.6 2094.4 1722.4 2110.5 1736 2119.8 1719.1 2120.3 1700.9 2122 1696.4 2120.5 1687.7 2124.7 1685.5 2129.2 1686 2132.1 1687.1 2130.8 1725.5 2134.1 1740.6 2139.1 1751.7 2144.4 1755.3 2153.1 1755.5 2160.3 1755.3 2167.6 1753.9 2183.4 1743.5 2191.3 1739.5 2194.6 1737.5 2199.7 1737.5 2204 1738.6 2209.1 1741.7 2211.6 1748.1 2217.4 1750.8 2218.9 1752.8 2223.4 1755.4 Z" data-holc_grade="D"/>
<path d="M 2013.4 1676.3 2013.8 1679.6 2014.5 1682.3 2016.7 1686.3 2022.3 1690.5 2060.5 1711.6 2065.2 1712.2 2069.6 1711.3 2103.3 1742.7 2121.7 1760.6 2132.8 1780.9 2127.5 1785.1 2126.6 1790.4 2127.9 1798.4 2131.3 1805.3 2137.6 1813.8 2145.8 1821.7 2146.9 1830.2 2154.3 1841.5 2167.7 1858.8 2168 1870.2 2174.9 1888.9 2186.1 1911.5 2187.4 1919.7 2174.5 1921.3 2193.3 1999.8 2197.8 2009.6 2201.1 2012.9 2224.8 2033.1 2220.4 2034.7 2213.9 2036.9 2209 2034.9 2203.4 2030.4 2196.7 2022.9 2189.3 2010 2182.4 1992.7 2171.2 1996.5 2158.9 1997.4 2148 1956.2 2163.1 1951.1 2156.9 1929.8 2133.7 1936 2131.9 1927.4 2129.2 1915.1 2164 1904 2159.3 1890.4 2156.8 1879.8 2136.9 1835.3 2111.6 1788.7 2087.3 1756.7 2066.1 1728.2 2057.8 1721.1 2043.7 1710.9 2017.4 1696.1 1979.7 1675.6 2013.4 1676.3 Z" data-holc_grade="D"/>
<path d="M 2693.1 1881.4 2695.1 1894.7 2707.6 1898.7 2715.9 1903.4 2725.5 1911.1 2713.3 1920.3 2696.4 1951.7 2678.5 1971 2668.7 1955.5 2673.8 1948.6 2640.1 1924 2617.3 1902.4 2583.3 1881.4 2585.3 1868.9 2583.7 1866.7 2575 1865.6 2567.9 1862.1 2567 1856.1 2570.5 1847.8 2556.2 1841.6 2586.3 1826.2 2590.1 1834.2 2604.4 1828.7 2608.7 1839.8 2613.8 1849.5 2623.4 1860 2645.6 1876.4 2654 1882.1 2662.8 1885.2 2665.4 1885.9 2668.1 1874.1 2673 1877.7 2682.2 1880.1 2693.1 1881.4 Z" data-holc_grade="D"/>
<path d="M 2826.6 2004.8 2840.5 2021 2835.1 2028.4 2820 2049.1 2789.7 2090.7 2763.3 2071.6 2746.3 2053.4 2736.2 2033.6 2725.5 2019.2 2706.7 2001 2691.5 1988.1 2678.5 1971 2696.4 1951.7 2713.3 1920.3 2725.5 1911.1 2732 1910.5 2737.6 1919.6 2753 1936 2765.8 1952.9 2767.8 1959.1 2768.5 1982.2 2770.3 2000.4 2774.4 2008.4 2777.5 2009.5 2788.2 1999.1 2810.8 2023.3 2821.9 2009 2826.6 2004.8 Z" data-holc_grade="D"/>
<path d="M 2835.1 2028.4 2845.4 2035 2851.8 2023.2 2861.4 2004.9 2864.3 2000.9 2862.3 1998.9 2858.5 1997.8 2855.6 1992.9 2857.4 1988.9 2860.7 1984.5 2864 1979.6 2866.3 1973.8 2870 1954.7 2859.7 1945.6 2855 1944.2 2844.8 1944 2840.5 1944 2836.3 1944.3 2831.4 1944.3 2828.9 1945.8 2823.4 1949.9 2814.2 1959.9 2803.9 1944.3 2788.7 1927 2782.7 1919.7 2802.3 1915.9 2801.2 1905 2806.3 1903.2 2823 1903.4 2832.9 1905.6 2837.8 1908.3 2841.3 1904.2 2846.5 1899.8 2850.9 1897.1 2854 1897.1 2859.8 1898.2 2863.2 1898 2867.9 1896.6 2873.9 1894.8 2881.9 1891.3 2881.7 1882.4 2883 1877.9 2887.7 1865.7 2890.8 1863.9 2895.5 1861.5 2897.3 1863.5 2899.7 1869.2 2903.6 1879.9 2907.6 1888.3 2919.9 1901.6 2922.6 1905.4 2926.6 1920.5 2934.3 1937.6 2936.7 1940.5 2941.2 1932.5 2946.7 1924.5 2952.1 1916 2956.1 1904.9 2961.4 1893.3 2971 1881.1 2976.8 1893.5 2980.8 1902 2988.9 1910.4 2994.7 1917.3 2997.2 1918.8 2999 2044.7 2995.7 2045.3 2992.3 2048.7 2989.6 2052.7 2987.2 2060.5 2984.6 2084.3 2987.3 2093.8 2986.4 2100.5 2983.7 2103.2 2973.2 2105.9 2965 2105.7 2955.8 2103.7 2947.6 2099.5 2942.6 2095.5 2937.5 2093.3 2932.1 2093.1 2925.7 2092.2 2917.8 2090.9 2912.3 2089.1 2907.6 2086.9 2903.5 2081.3 2916.6 2036.2 2912.8 2028.2 2909.9 2020.8 2907.4 2017.1 2902.5 2011.1 2894.4 2004.2 2887.7 2000.2 2881 1997.8 2882.6 2003.8 2880.4 2007.8 2876.2 2019.6 2860.8 2053.2 2857.7 2057.2 2856.2 2057.9 2854.6 2058.1 2820 2049.1 2835.1 2028.4 Z" data-holc_grade="D"/>
<path d="M 2904.8 2258.3 2940.2 2250.8 2961.1 2282.4 2925.1 2293.3 2904.8 2258.3 Z" data-holc_grade="D"/>
<path d="M 2898.6 2347.1 2900 2343.1 2918.7 2336.9 2921.1 2341.2 2940.1 2336 2943.7 2350.7 2947.2 2372.1 2946.9 2384.6 2940.3 2405.2 2930.9 2417 2919.7 2425.5 2909 2430.9 2908.7 2423.9 2890.5 2421.3 2912.4 2379.6 2911.3 2372.9 2909.4 2367.1 2907.5 2365.2 2901.3 2363.6 2898.6 2347.1 Z" data-holc_grade="D"/>
<path d="M 2824.1 2333.6 2815.5 2339.2 2807.8 2342.5 2804.8 2339 2798.9 2341.4 2795.7 2341.4 2792.5 2340.9 2789 2338 2782.4 2333.3 2779.6 2331.3 2769.4 2322.5 2767 2314 2763.2 2311.3 2759.2 2307.3 2756.2 2303.1 2752.8 2302.5 2733.7 2300.2 2736.1 2297.8 2742 2292.9 2749.5 2290.8 2754.3 2290.2 2807.7 2297.9 2836.8 2276.2 2864.2 2267.9 2862.3 2271.3 2861.8 2274.8 2873 2288.9 2862.9 2298.8 2854 2290.3 2826.2 2310.7 2826.2 2314.1 2824.1 2316.5 2824.1 2333.6 Z" data-holc_grade="D"/>
<path d="M 2801.8 2203.1 2829.2 2242.7 2782.9 2251.6 2767.2 2230.8 2801.8 2203.1 Z" data-holc_grade="D"/>
<path d="M 1580.6 1406 1585.7 1434.5 1613.2 1428.4 1602.5 1417.8 1600.3 1413.5 1597.8 1407.1 1601.8 1406.5 1607.2 1406.5 1611.9 1406.5 1614.1 1408.3 1619.7 1414.3 1624.3 1417.4 1629.7 1444.9 1653.6 1439.6 1668.7 1446.5 1680.8 1447.2 1684.8 1444.5 1687 1442.3 1690.8 1437.8 1693.7 1454.7 1697.5 1455.1 1699.3 1454.7 1715.7 1449.4 1725.3 1451.6 1731.6 1451.1 1735.4 1449.1 1743.8 1441.6 1750.3 1442 1756.3 1441.8 1766.4 1439.6 1769 1450 1772.8 1455.8 1777.7 1455.8 1784 1453.8 1797.4 1445.6 1818.1 1427.1 1821.4 1431.5 1824.1 1432 1825.7 1431.3 1829.7 1429.3 1839.9 1422.7 1844.2 1422.9 1847.1 1420.2 1856.4 1402.9 1864.2 1406.6 1857.1 1422.9 1855.6 1435.3 1856.9 1441.5 1860.2 1446 1865.8 1450.4 1870.1 1451.3 1848.7 1468.5 1828.4 1481.3 1816.9 1497 1799.5 1515.2 1778.1 1530.9 1749.7 1538.9 1715.4 1546.7 1705.8 1547.7 1696.4 1547.7 1688.7 1541.9 1679 1525.9 1666.7 1515.5 1630.8 1492.3 1599.3 1472.1 1564.6 1448.6 1525.5 1427 1547.4 1401.9 1549.7 1413 1561.5 1408 1571.2 1406.2 1580.6 1406 Z" data-holc_grade="D"/>
<path d="M 2551.4 2112.1 2551.4 2107.9 2550 2096.1 2550.8 2085.5 2551.1 2080.6 2548.9 2078 2545.2 2074.5 2544.1 2069.2 2540.9 2063.6 2539.5 2056.1 2539.5 2047.8 2546.5 2044.6 2594.4 2019.5 2587.9 2009.6 2580.9 2001.9 2576.4 1999.2 2576.1 1993.4 2568.9 1984.6 2558.9 1979.2 2553 1971.5 2550.6 1966.7 2551.1 1961.1 2554.6 1955.8 2566.1 1954.4 2608.5 1970.9 2639.6 1994.8 2670.2 2027.6 2690.9 2056.7 2728.2 2103.3 2739.5 2120.1 2748.1 2136.9 2735 2147.3 2727.5 2152.1 2718.9 2155.6 2710.1 2157 2700.4 2158.1 2704.5 2167.7 2716 2198.6 2672.4 2203.2 2672.4 2197.9 2671.3 2193.3 2668.1 2189.9 2661.9 2186.1 2655.7 2183.8 2643.7 2183 2627.6 2184.1 2612.3 2183.8 2602.9 2154.8 2558.1 2155.9 2552.8 2154.8 2551.4 2152.4 2550.4 2146.3 2553 2125.5 2551.4 2120.1 2551.4 2112.1 Z" data-holc_grade="D"/>
<path d="M 2526.1 1960.9 2524.4 1959.9 2518.5 1958.8 2510.8 1958.7 2500.7 1960.2 2498.1 1953.1 2462.7 1955.2 2454.8 1956.5 2449.8 1959.3 2432.7 1972.1 2410.7 1990.5 2410 1989 2408.4 1985.1 2405.6 1982.4 2398.9 1979.3 2396.4 1976.8 2385 1965.2 2379.5 1960.4 2387.5 1950.7 2378.7 1939.9 2398.2 1924.5 2416.8 1911 2434.9 1902.4 2452.2 1897.6 2465.9 1895.6 2473 1897.1 2484.9 1941.1 2489.5 1941.9 2493.9 1942.2 2504.2 1940.9 2517.2 1938.9 2522.1 1940.3 2526.8 1941.4 2526.1 1960.9 Z" data-holc_grade="D"/>
<path d="M 2508.8 2033.4 2501.8 2037.8 2498.4 2030.3 2501.2 2027.5 2494.3 2015.3 2467.9 2033.3 2464.9 2028.2 2463.9 2027.7 2461.2 2028.3 2458.2 2030.2 2452.1 2035.9 2448.5 2040.7 2445.2 2041.1 2441.5 2039.3 2440.1 2039.9 2435.8 2043.2 2429.1 2044.3 2416.8 2042.6 2413.9 2042.6 2410.5 2039.5 2406.2 2039.8 2400.8 2043.5 2374.9 2023.6 2377 2016.3 2377.6 2012.5 2377.2 2008.1 2375.9 2004 2398.9 1979.3 2405.6 1982.4 2408.4 1985.1 2410 1989 2410.7 1990.5 2432.7 1972.1 2448.2 1992.2 2471.4 1975.9 2488 2002.4 2504.2 1995 2500 1970.9 2499.3 1960.4 2500.7 1960.2 2510.8 1958.7 2518.5 1958.8 2524.4 1959.9 2526.1 1960.9 2513.3 1983 2512.4 1984.8 2511.6 1990.5 2511.6 1998.6 2513.3 2009.5 2514.9 2014.7 2513.8 2018.7 2510.6 2022.7 2509.5 2026.8 2510.6 2031.9 2508.8 2033.4 Z" data-holc_grade="D"/>
<path d="M 2400.8 2043.5 2391.5 2052.6 2395.3 2054.2 2400.4 2058.6 2405.3 2061.7 2408 2064.8 2406.2 2070.2 2394.4 2082.9 2384.8 2091.8 2380.4 2100 2378.8 2105.4 2374.6 2104.5 2368.8 2103.4 2365.9 2104.3 2362.5 2107.6 2357 2113.2 2345.8 2123.2 2334 2133 2324.6 2136.6 2321 2137 2316.1 2137.2 2311.2 2136.1 2310.3 2139.7 2313.5 2145 2320.6 2148.4 2325.3 2150.8 2327.3 2153.7 2328.9 2158.3 2329.1 2170.8 2332.7 2180.6 2329.4 2181.9 2326 2182.6 2318.6 2184.6 2313.3 2187.5 2310.6 2191.5 2310.8 2195.3 2309.3 2199.7 2303.9 2200.6 2301.3 2203.5 2301.3 2208.6 2303 2212.9 2307.5 2219.5 2311.8 2227.5 2308.2 2238.7 2304.2 2252.5 2298.6 2263.4 2290.2 2271.8 2281.7 2276.1 2275.2 2274.5 2272.3 2271.8 2270 2252.3 2262.9 2239.8 2264.4 2231.6 2262 2227.8 2261.3 2225.2 2261.3 2215.8 2259.7 2214.7 2253.3 2223.4 2249 2229.8 2245.5 2231.4 2241.9 2229.8 2239.9 2226.1 2237.2 2215.2 2238.1 2206.1 2238 2192.7 2238 2179.6 2234.9 2168.7 2235.5 2152.9 2234 2139.6 2255.4 2132.9 2248.2 2113.3 2245.3 2109.5 2248.2 2104.6 2254.5 2103.3 2263.8 2100.6 2264.1 2108.6 2265.9 2111.7 2268.6 2140.2 2271.5 2153.3 2271.1 2157.5 2270 2168.4 2270.4 2175.8 2274.6 2168.2 2276.6 2162.6 2282.9 2158.8 2281.8 2155.3 2280.6 2145.5 2282 2137.1 2287.8 2130.8 2283.5 2126.8 2278.4 2122.2 2277.5 2116.8 2279.9 2108.8 2284.6 2101.5 2292.6 2095.7 2301.3 2093 2303.8 2087.9 2311.8 2075.6 2325.9 2060.1 2375.9 2004 2377.2 2008.1 2377.6 2012.5 2377 2016.3 2374.9 2023.6 2400.8 2043.5 Z" data-holc_grade="D"/>
<path d="M 2429.3 2331.7 2437.8 2328 2445.6 2326.4 2457.4 2325 2464.7 2355.7 2466.6 2381 2476.5 2393.8 2467.4 2399.5 2454 2404.6 2448.4 2394.7 2425.9 2402.5 2422.4 2386.7 2419.1 2379 2410 2381.9 2405.7 2374.7 2384.8 2375.6 2358.6 2374 2342.5 2371.3 2341.7 2370 2338.4 2344.1 2352.9 2340.1 2363.1 2339.5 2362.5 2333.4 2364.4 2331 2372.4 2332.3 2389.6 2329.9 2389.6 2320 2385.8 2299.5 2382.3 2283.2 2388.5 2280.3 2391.4 2280.2 2394.4 2281.8 2397.6 2285.6 2398.9 2292 2403.2 2290.4 2408.3 2292.2 2409.4 2293.8 2411.5 2301.6 2409.2 2332.3 2411.8 2333.6 2417.7 2333.6 2429.3 2331.7 Z" data-holc_grade="D"/>
<path d="M 2491.4 2305.7 2531.6 2291.5 2543.6 2287.8 2550.6 2288.6 2554.9 2292.8 2557.3 2300 2560.5 2315.2 2563.2 2317.9 2566.7 2317.9 2573.7 2354.7 2555.5 2351.3 2549.1 2351.8 2509.7 2366.6 2491.4 2305.7 Z" data-holc_grade="D"/>
<path d="M 2031 1847.2 2026.1 1849.3 2021.6 1852.2 2016.5 1854 2006.2 1853.7 1988.8 1850.9 1989.3 1842.9 1929.7 1830 1927.2 1831.4 1920.8 1836.2 1916.1 1841.1 1915.6 1858.7 1893.3 1861.4 1892.9 1844 1846.5 1842.7 1846.4 1805.8 1850.7 1804.5 1853.1 1801.8 1855.8 1794.9 1856 1789.6 1854.7 1784.1 1850.7 1778.3 1845.1 1775.4 1832.8 1770.5 1816.3 1763 1812.9 1761.4 1796.8 1751.5 1787 1748.6 1790.3 1742.2 1800.8 1747.7 1844.8 1746.2 1845 1739.1 1891.8 1739 1891.6 1733.5 1893 1731 1894.5 1728.6 1894.5 1725.5 1930.7 1723.2 1934.4 1724.1 1942 1727.2 1955 1733.9 1979.3 1741.2 1978.4 1749.4 1989.4 1753.4 1987.6 1761.6 2005 1767.2 2013.7 1772.3 2027.1 1785.4 2036.1 1775.6 2041 1776 2071.4 1813.6 2067.8 1816.2 2064.7 1823.4 2046 1809.4 2042.4 1814.5 2027.4 1800.5 2021 1807.6 2044 1827.4 2031 1847.2 Z" data-holc_grade="D"/>
<path d="M 1555.7 1686.1 1547.5 1684.5 1542.6 1683 1545 1665.4 1547.3 1652.7 1542.8 1652.7 1538.8 1654.1 1535.7 1656.1 1524.9 1659.9 1520.9 1658.7 1518.2 1655.4 1518 1649.6 1518.7 1645.6 1522.5 1641.6 1525.4 1636.7 1528.3 1630.7 1524.7 1627.2 1522.5 1628.5 1518.7 1636.1 1512.2 1639.2 1506.2 1644.3 1504.9 1652.1 1505.1 1658.3 1506.6 1671.2 1511.3 1684.3 1515.6 1689.9 1520.9 1692.3 1528.5 1697.2 1537.9 1704.5 1546.8 1714.8 1554.6 1725.6 1557.1 1726.3 1562.3 1725.2 1574.2 1726.1 1577.5 1727.5 1579.1 1731.6 1582.1 1738.5 1585 1744.6 1586.2 1752.2 1587.5 1757.4 1588.7 1760.4 1591.2 1760.9 1595.7 1761.8 1604.8 1757.9 1617.4 1747.2 1623.5 1744 1628 1744.2 1633.3 1745.1 1638.9 1746 1642.6 1747.4 1636.7 1753.5 1629.5 1761.2 1625.3 1768.4 1621 1773.2 1612.3 1778.6 1608.6 1780.8 1615.2 1792.1 1624.4 1789.7 1632.7 1786.8 1639.3 1781.2 1641.4 1786.8 1641.8 1793.7 1657.4 1793.9 1658.3 1799 1638.2 1816.6 1644.5 1826.4 1648.7 1838.4 1648.5 1849 1651.4 1863.3 1654.1 1874.2 1655.9 1877.3 1659.5 1879.9 1663 1881.3 1671.1 1882.4 1675.3 1881.3 1684.9 1893.9 1682 1907.9 1675.2 1917.6 1672 1917.6 1664.7 1916 1646.8 1912.6 1645.1 1911.3 1649.9 1904.8 1649.5 1903.2 1646.8 1899.2 1644.8 1896.1 1643 1892.8 1642.3 1891.2 1642.1 1888.3 1645.5 1885.2 1647 1879.7 1643.2 1868.8 1640.1 1857.9 1638.1 1844.3 1637.2 1833.4 1633.6 1822.5 1607.3 1793 1594.6 1780.1 1585.6 1773.2 1573.8 1768.1 1568.9 1766.3 1565.8 1760.3 1563.8 1749 1561.1 1743.9 1557.1 1740.1 1547.7 1737.9 1543.9 1737 1532.8 1718.3 1525.8 1709.9 1520.5 1706.3 1515.1 1704.3 1509.8 1713.9 1513.3 1757.9 1499.3 1757.7 1487 1755.2 1482.1 1753.6 1473.5 1757.7 1493.7 1701.8 1478.2 1696.5 1478.5 1687.9 1474.7 1686.3 1467.5 1684.2 1454.9 1683.9 1445.5 1681.8 1431.3 1678.1 1424.4 1680.7 1431.1 1696.5 1447.4 1694.1 1450.9 1695.4 1450.9 1697.3 1447.1 1703.4 1438.6 1715.1 1432.9 1718.3 1422.5 1718.1 1420.1 1709.5 1419.3 1701.8 1415 1693.8 1410.5 1686 1412.1 1678.6 1412.1 1666 1412.6 1658.6 1417.2 1654.6 1424.4 1654.6 1429.2 1656.7 1435.4 1660.7 1458.4 1670.3 1464 1673.5 1482.7 1681.3 1485.7 1673.5 1488.4 1664.7 1494.5 1648.2 1487.3 1636.2 1484.6 1630.3 1480.6 1621.5 1490.5 1612.7 1498.8 1597.3 1502.3 1593 1508.2 1586.3 1476.1 1551.1 1469.1 1542.6 1462.7 1539.7 1457.3 1540.5 1451.4 1544.7 1426.1 1560.7 1419 1539.2 1441.3 1524.5 1448 1521.4 1453.8 1522.3 1469.4 1530.8 1494.8 1554.8 1526.1 1584.1 1539.9 1601.4 1543 1605.4 1545.3 1613.4 1549.7 1623.6 1555.1 1627.6 1560.4 1627.2 1568 1628.5 1575.1 1632.1 1585.8 1637.2 1574.8 1652.1 1564.1 1676.3 1555.7 1686.1 Z" data-holc_grade="D"/>
<path d="M 1425.3 1522.3 1424.5 1519.7 1423.7 1512.2 1423.5 1505.3 1421.9 1503.4 1414.4 1499.1 1408.5 1494.9 1401.5 1487.1 1391.4 1468.2 1371 1443.4 1367.3 1436.2 1355 1437 1341.3 1437.8 1338.9 1437.9 1324.2 1405.3 1313.7 1406.2 1304.3 1402.2 1295.6 1396.8 1290 1401.3 1278.9 1407.3 1267.5 1410.4 1260.4 1411.3 1258.4 1394.2 1268.4 1386.8 1262.9 1300 1263.3 1288.2 1262.2 1285.1 1259.5 1283.1 1253.7 1283.5 1247.5 1286.9 1242.6 1286.9 1238.6 1285.1 1236.8 1283.3 1229 1274.6 1224.4 1269.9 1221.4 1266.9 1237 1253.3 1233.7 1248.2 1226.5 1248.7 1219.9 1235.8 1215.8 1230.9 1209.8 1232.2 1202.2 1235.1 1193.5 1239.3 1182.2 1245.5 1171.9 1232.9 1167.9 1230.6 1165.7 1231.3 1161.9 1234.6 1159.4 1229.1 1150.7 1226.2 1153.7 1218.6 1153.9 1214.6 1153.7 1210.4 1156.1 1198.9 1141.8 1196.4 1137.8 1219.3 1080.3 1215.3 1075 1202.4 1087.2 1195.1 1102.8 1185.8 1119.8 1173.8 1130.3 1165.8 1129.4 1160.7 1129.2 1156.5 1131.2 1152 1137.4 1139.6 1162.4 1153.1 1169.7 1157.6 1173.1 1160.7 1175.1 1164.9 1178.6 1168.9 1181.1 1170.2 1186.9 1172.2 1194.7 1176.7 1209.6 1185.4 1222.8 1196 1233.7 1207.6 1241 1217.8 1293.4 1309.3 1296.5 1310 1310.1 1335.3 1323.1 1327.5 1299.4 1287.6 1343.2 1260.5 1363.9 1292.7 1377.7 1319.3 1379.7 1326.2 1377.9 1331.1 1364.5 1342.7 1353.8 1344.7 1349.4 1344.7 1342.9 1343.5 1336.7 1342.2 1331.3 1342.2 1328 1343.5 1314.8 1350.9 1311.2 1354.2 1308.6 1361.7 1310.1 1372.9 1313.7 1374.9 1321.9 1373.5 1334.9 1374.6 1343.8 1378.6 1348.9 1383.1 1355.2 1394.9 1372.3 1421.7 1381.2 1427.1 1406 1448.9 1422.5 1462.6 1433.2 1474.4 1447.7 1494 1452.4 1502.4 1454.2 1506.6 1449 1514.6 1445.7 1517.1 1440.6 1519.1 1433.4 1521.5 1425.3 1522.3 Z" data-holc_grade="D"/>
<path d="M 44.6 129.3 7.9 136.5 3.8 119.2 2.3 106.8 1 59.1 3.1 54.4 10.2 48.5 16.3 49.1 19 51.3 21.5 59.8 22.9 61.7 30.5 77 36.4 85.2 39.5 90.8 41.1 96.7 42.2 105.8 44.6 129.3 Z" data-holc_grade="D"/>
<path d="M 2151.6 1121.9 2166.4 1106.2 2170.1 1100.7 2175.1 1096.3 2186.9 1091.1 2194.9 1088.8 2204.5 1087.9 2204.4 1086.1 2213.7 1085.8 2233.8 1096.6 2243.1 1097.5 2265.8 1098.3 2285.2 1097.9 2334.6 1094.7 2334.1 1104.3 2294.8 1107.9 2267.4 1109 2217.1 1124.3 2211.9 1104.2 2208 1105.3 2202.3 1107.8 2195.5 1112.8 2192.3 1114.9 2186.6 1114.9 2181.8 1115.6 2178.7 1117.2 2173.4 1120.6 2171.3 1121.5 2166.6 1120.5 2162.9 1120.5 2161.3 1122.1 2158.4 1124.2 2155.9 1124.4 2151.6 1121.9 Z" data-holc_grade="D"/>
<path d="M 87.9 114.9 85 150.4 69 153.6 62.6 126.8 63.3 97.3 54.5 96.6 52.7 79.4 57.5 75.9 56.2 55.2 57.4 52.2 56.5 27.3 57.4 26.6 56.2 6.9 57.2 4 61.4 1 69.1 10.3 84.7 27.7 83.4 39.1 81.3 47.7 82.2 52.1 87.8 52 91.6 75.5 83.2 76.4 84.9 85.8 86.3 94.1 87.9 114.9 Z" data-holc_grade="D"/>
<path d="M 109.5 217.4 113.5 222.4 117.4 228 123.3 228.7 155.6 231.8 169.9 236.6 176.4 240.4 174.7 244.9 166.4 258.7 157.7 262.1 158.8 288.1 137.7 293.7 131.6 272.5 128.9 274.5 122.7 279.1 115.2 283.2 106.6 283.4 101.9 281.4 94.7 280.4 86.3 284 78.8 273.3 70.9 258.3 62.2 242.3 47.3 220.7 50.5 220.7 73.9 204.2 81.1 205.7 87.3 204.1 98 197.4 104.7 210.8 109.5 217.4 Z" data-holc_grade="D"/>
<path d="M 216.2 416.1 156.3 471 141.2 453.6 150.9 444.8 140.2 429.1 172.7 404.4 159.8 390.3 172 379.1 207.4 405.3 216.2 416.1 Z" data-holc_grade="D"/>
<path d="M 583.1 968.1 597 958.2 607.9 947.9 610 942.1 602.1 937 609.7 929.8 598 923.5 599.7 916.3 582.8 907.7 584.5 898.4 460.1 837 440 871.4 424.9 863.8 459.5 799.2 468.4 803.9 488.1 811.9 513.8 824.5 542.3 842.2 564.7 861.9 587.2 882.4 601.5 900.2 623.4 930.7 629.4 942 639 968.7 644.5 973.1 647.6 975 658.9 970.3 662 966.8 662.5 963.9 654.8 958.8 665.8 941.4 699.6 964.2 634.3 1010.4 618.1 998 606.8 1001.3 602.5 1010.1 580.6 1002.1 584.1 987.3 583.5 983.2 577.3 974.6 583.1 968.1 Z" data-holc_grade="D"/>
<path d="M 1059.7 1937 1082.6 1936.5 1092.6 1933.5 1095.6 1931.5 1107.4 1914.8 1121 1887.4 1129.3 1884.9 1136.8 1883.9 1142.2 1882.6 1145.6 1884.1 1147.4 1887.3 1147.2 1892.6 1143.6 1899.9 1137.2 1908.4 1130.7 1915.5 1128.8 1919.3 1129.1 1921.2 1130.2 1924.2 1137.4 1921.6 1141.5 1918 1150 1912.9 1157.5 1909.5 1164 1906.5 1168.4 1902 1172.4 1895.6 1175.4 1888.2 1176.8 1873.2 1180.8 1869 1184.5 1861 1192 1849.6 1202.2 1837.3 1205.6 1836.6 1208.5 1838.4 1212.6 1852.6 1215 1859.7 1212.2 1862.9 1219 1873.1 1223.6 1875.4 1232.2 1875 1250.6 1873.1 1251.3 1876.3 1249.3 1880 1238.2 1894.8 1229.8 1904 1224 1905.3 1216.8 1903.5 1210.9 1901.9 1206.3 1901.7 1203.2 1912.7 1203.2 1922.7 1206.4 1923.9 1211.1 1923.6 1216.3 1921.6 1220.7 1920 1227.7 1919.3 1227.5 1923 1224.5 1931.6 1219.1 1935 1212.7 1937.1 1208.1 1936.4 1203.1 1936.2 1199.5 1936.4 1192 1939.2 1171.9 1922.8 1167.6 1921.6 1163.6 1928.7 1156.5 1922.3 1141.9 1934.6 1098.6 1970.6 1103.3 1985.4 1105 2000.4 1103.6 2007.1 1100.7 2009.8 1094.7 2015.3 1085.6 2018.7 1076.1 2021.2 1070.6 2021.1 1068.1 2021.9 1059.5 2024.5 1046.3 2027 1034.1 2029.7 1030 2030.9 1026.6 2032.1 1024.8 2035 1013.2 2034.6 1007.3 2037.6 1002.9 2040.3 997.7 2039.1 996.1 2036.4 998.2 2012.7 994.7 2007.9 995.9 2004.2 999.5 2001 1007.2 1994.2 1020.8 1986.4 1028.6 1980 1037.6 1972.9 1038.8 1969.9 1041 1966.7 1044 1965.1 1047.2 1959.6 1050.2 1955.3 1052.7 1952.8 1055.3 1950.5 1059.2 1942.7 1059.7 1937 Z" data-holc_grade="D"/>
<path d="M 2951.5 794.7 2947.8 809.4 2944.1 819.8 2940.4 838.2 2940.1 845.9 2939.9 863.7 2939.9 867.7 2937.5 874.1 2935.1 879.5 2934.1 883.2 2930.9 902.1 2897.2 897.9 2893.2 900.3 2891.6 891.3 2894.2 875.6 2899.3 875.5 2902.5 874.7 2905.1 843.8 2896.3 842 2913.3 796.4 2951.5 794.7 Z" data-holc_grade="D"/>
<path d="M 2926.1 1011.6 2916.9 1090.2 2907.5 1090.5 2898.9 1091.1 2898.3 1057.8 2902.3 1041.2 2905.5 1024.2 2908.7 1019.1 2909.7 1009 2926.1 1011.6 Z" data-holc_grade="D"/>
<path d="M 2165.6 1198.2 2144.4 1204.2 2111.2 1228.5 2104.3 1234.2 2089.4 1266.4 2079.3 1282.2 2075.7 1304.4 2068.4 1315.8 2067.5 1317.7 2051.7 1350.7 2043.5 1358.4 2030.4 1372.5 2017.9 1397.8 2009.2 1410.7 2004.8 1419.1 2008.1 1427.1 1935 1490.9 1882.2 1538.1 1827.3 1585 1817.1 1571.7 1849.6 1545.9 1875.2 1521.2 1871.9 1514.3 1932.2 1458.1 1981 1417.4 1989 1407.4 1991.9 1401.6 1995.5 1393.4 2000.8 1367.4 2011.9 1336 2034.4 1298.9 2065.5 1257.8 2081.6 1235.1 2096.7 1220.9 2113 1212.2 2132.6 1201.6 2150.6 1187.8 2158.7 1194 2241.3 1157 2247.4 1173.5 2240.2 1176.8 2231.6 1179 2223.8 1178.8 2213 1176.6 2207 1178.2 2165.6 1198.2 Z" data-holc_grade="D"/>
<path d="M 2271.1 1317.8 2269.3 1324.8 2256.4 1348.6 2251.3 1355.3 2232.6 1398 2209 1399.5 2158.7 1389 2159 1376.9 2152.3 1366.5 2151.4 1361.8 2153.2 1353.4 2159.8 1341.4 2177.9 1322.5 2183 1321.6 2187.9 1322.9 2197.1 1318.7 2210.7 1313.6 2221.4 1313.3 2229.8 1313.5 2240.3 1316.6 2251.2 1319.5 2271.1 1317.8 Z" data-holc_grade="D"/>
<path d="M 2466.6 1417.7 2455.6 1425.2 2450.5 1408.5 2444.8 1406 2425.2 1423.1 2437.7 1441.2 2432.8 1451.5 2493.5 1468.1 2487.8 1484.1 2624.5 1523.7 2628.5 1553.6 2622.8 1551.1 2606.1 1591.3 2591.4 1561.8 2584.2 1551.5 2577.8 1546.2 2552.1 1533.8 2468.9 1488.8 2472.4 1480.9 2443.9 1472.4 2428.5 1463.9 2414.2 1459.3 2402.4 1453.7 2389.6 1447.6 2383.9 1439.5 2378.5 1439.5 2369.2 1438.8 2363.5 1438.4 2359.9 1437 2346.7 1439.9 2359.3 1455.5 2388.9 1480.3 2387.3 1482.3 2376.1 1495.3 2363.5 1484.8 2365.7 1478.9 2352.1 1472.7 2339.3 1464.9 2330.2 1462.3 2313.9 1462.7 2302.8 1464.7 2290.9 1471.4 2288.7 1469.2 2282.9 1466.8 2273.3 1469.7 2258.4 1480.6 2253.9 1473.5 2253.2 1469 2255.5 1460.8 2280.6 1401.2 2285.7 1393.4 2307.5 1401.9 2312 1388.8 2322.2 1394.1 2325.4 1387.2 2336.3 1390.9 2337.8 1387.6 2358.2 1396.5 2361 1389.1 2365.3 1386.5 2372.9 1380.2 2388.4 1371.2 2397.7 1368.7 2404.8 1364.4 2411.9 1358.4 2421.2 1351.6 2426.6 1348.4 2433.7 1340.6 2436.2 1337 2439.4 1316.4 2446.8 1303.6 2451.5 1305 2450.4 1319.6 2447.2 1340.2 2445.8 1361.9 2447.3 1374.7 2451.2 1381.8 2458.7 1395.3 2466.6 1417.7 Z" data-holc_grade="D"/>
<path d="M 2616.4 1347.8 2621.7 1351.3 2625.3 1354.9 2627.4 1358.1 2633.2 1359.1 2641.4 1374 2644.3 1385 2641.4 1387.5 2636.4 1386.8 2626.8 1385.4 2618.6 1386.9 2620.4 1435.9 2634.7 1437 2634.7 1451.9 2634.8 1466.1 2633 1485.7 2624.1 1486 2623.4 1478.6 2620.2 1475 2612.3 1472.5 2603 1470.1 2597.7 1464.7 2593 1461.6 2577.7 1457.7 2495.5 1434.3 2499.6 1424.1 2505.1 1409.8 2510.1 1405.5 2593 1430.6 2592.8 1353.5 2588.9 1352.8 2586.8 1348.2 2590.3 1346 2593.2 1345 2594.6 1341.1 2598.5 1338.6 2603.5 1340.7 2609.2 1340.3 2614.2 1342.4 2616.4 1347.8 Z" data-holc_grade="D"/>
</g>
</svg>