<?xml version="1.0"?>
<svg xmlns="http://www.w3.org/2000/svg" version="1.2" baseProfile="tiny" width="3000" height="3753" viewBox="0 0 3000 3753" stroke-linecap="round" stroke-linejoin="round">
<g id="A">
<path d="M 463.3 2497.9 469.6 2698.1 465.5 2725.6 365 2704.6 228.1 2627.8 147.9 2513.9 145.5 2454.2 463.3 2497.9 Z" data-holc_grade="A"/>
<path d="M 709.6 2216.1 712.5 2376.8 749.9 2581.7 625.3 2569.6 463.3 2497.9 437.7 2016.8 437.1 2005.4 651.2 1987.3 658.5 2018.7 662.1 2068.4 656 2087.8 637.8 2109.6 664.5 2137.4 671.8 2217.3 709.6 2216.1 Z" data-holc_grade="A"/>
<path d="M 1051 2462.1 973.2 2519 858.3 2590.8 749.9 2581.7 712.5 2376.8 709.6 2216.1 1012.1 2206.5 1029.1 2422.1 1051 2462.1 Z" data-holc_grade="A"/>
</g>
<g id="B">
<path d="M 305.8 662 171.9 664.7 14.2 517 10.6 336.6 28.8 331.8 54.3 334.2 113.9 348.8 135.7 336.7 124.8 321 116.3 285.9 124.8 262.9 129.7 221.7 111.5 195.1 93.3 191.5 58.1 179.3 10.7 174.5 1 152.7 36.2 116.4 19.2 103.1 29 82.5 30.2 66.8 52.1 55.9 71.5 77.7 109.1 89.8 155.3 87.4 202.7 75.3 209.9 187.9 189.2 201.2 151.6 214.5 161.2 344 178.2 342.8 212.2 348.8 246.2 367 275.4 358.5 324 354.9 334.9 364.6 345.8 605.5 336 622.4 316.6 630.9 305.8 662 Z" data-holc_grade="B"/>
<path d="M 2165.6 1197 2104.1 1263.7 1982.3 1395.8 2001.6 1409.9 2006.6 1447.3 2010.7 1508.8 1981.3 1509.8 1942.9 1511.8 1907.4 1510.8 1879.1 1499.7 1843.4 1533.3 1808.2 1539.4 1760.8 1533.3 1717 1522.4 1662.3 1505.5 1622.2 1484.9 1633.2 1465.5 1674.5 1480.6 1733.2 1505.8 1765.6 1508.8 1821.3 1506.8 1793 1490.7 1766.7 1476.5 1745.4 1454.3 1736.3 1430.1 1727.2 1400.9 1711 1367.6 1683.6 1328.2 1719 1292.9 1706.9 1255.6 1776.8 1254.6 1787.9 1253.6 1793 1242.5 1785.9 1217.3 1774.7 1209.2 1761.6 1161.8 1983.9 1155.9 2070.4 1153.7 2103.8 1155.7 2142.3 1170.8 2165.6 1197 Z M 1910.4 1306 1906.4 1278.8 1900.3 1255.6 1805.1 1259.6 1806.1 1341.3 1825.4 1338.3 1862.8 1353.4 1910.4 1306 Z" data-holc_grade="B"/>
<path d="M 1346.4 2108.5 1348.5 2131.9 1362.2 2285.3 1222.4 2374.9 1051 2462.1 1029.1 2422.1 1012.1 2206.5 709.6 2216.1 671.8 2217.3 664.5 2137.4 637.8 2109.6 656 2087.8 662.1 2068.4 658.5 2018.7 651.2 1987.3 997.6 1953.4 1346.4 2108.5 Z" data-holc_grade="B"/>
<path d="M 2378.4 2085.5 2387.3 2255.7 1839.4 2268.8 1835.6 2107.2 1910.6 2103.9 2168.6 2092.6 2164.9 1932.8 2370.3 1929.1 2378.4 2085.5 Z" data-holc_grade="B"/>
<path d="M 126.7 3423.1 84.1 3441.3 83.2 3188.9 107.5 3178.8 140 3139.4 148.1 3098.1 150.1 3058.7 135 3007.2 124.9 2977.9 89.4 2913.3 75.3 2892.1 75.3 2856.8 93.5 2852.7 132 2870.9 156.3 2898.2 183.6 2933.5 221.1 2954.8 248.5 2952.7 275.8 2939.6 281.9 2910.4 278.9 2886.1 278.9 2869 458.2 2814.5 461.2 3006.3 316.2 3200.1 301 3188 279.8 3179.9 247.4 3184.9 204.8 3181.9 182.5 3163.7 166.3 3178.8 150.1 3204.1 122.7 3221.2 126.7 3423.1 Z" data-holc_grade="B"/>
<path d="M 960.7 2993.3 694.3 2995.5 637.5 2946.8 722.6 2836.8 750 2853 790.5 2832.8 843.2 2821.7 883.7 2809.6 932.3 2809.6 977.9 2816.7 976.9 2833.9 967.8 2856.1 972.9 2876.3 962.7 2894.4 930.3 2918.6 924.2 2941.9 940.4 2964.1 960.7 2993.3 Z" data-holc_grade="B"/>
<path d="M 816.9 3465.8 836.2 3500.2 849.3 3516.3 874.7 3512.3 905.1 3517.4 934.5 3529.5 957.8 3541.6 973 3544.6 999.3 3534.5 1008.4 3513.3 1027.7 3481 1027.7 3494.2 1054 3520.4 1084.4 3533.5 1155.4 3568.9 1151.3 3716.3 1169.5 3736.5 1039.8 3735.5 1025.6 3721.3 998.3 3718.3 988.1 3707.2 954.7 3687 929.4 3670.8 909.1 3663.8 894.9 3680.9 861.5 3704.1 840.2 3741.5 657.8 3751.5 664.9 3710.1 666.9 3677.8 816.9 3465.8 Z" data-holc_grade="B"/>
<path d="M 1936.7 3379 2078.9 3371.7 2087.4 3313.5 2245.5 3267.5 2429 3171.7 2803.7 3525.3 2817.1 3682.8 1929.4 3709.7 1936.7 3379 Z" data-holc_grade="B"/>
</g>
<g id="C">
<path d="M 1487.4 1421.9 1446.1 1423.2 1359.8 1425.6 1288.1 1429.2 1214 1428 1121.6 1430.4 1060.9 1441.3 991.6 1449.7 684 1158 627.3 1219.3 517.1 1109.5 570.6 1049.8 541.5 1019.2 755.3 999.8 760.2 1017.6 774.7 1025.7 821.7 1028.9 849.2 1080.6 888.1 1070.9 982.1 1156.5 962.7 602.9 983.8 602.9 967.6 383.4 1291.5 385.1 1286.7 306 779.8 310.8 817 223.6 791.1 215.6 783.1 33.2 796 30 797.7 13.9 946.6 1 949.9 22 936.9 26.8 953.1 144.6 1455.1 133.4 1468.1 288.3 1801.7 280.2 1817.9 407.7 1474.5 412.5 1489.1 898.3 1319 904.7 1322.3 1053.2 1510.2 1095.2 1513.4 1163 1494 1264.6 1400 1222.7 1332 1204.9 1335.2 1345.4 1484.2 1335.7 1487.4 1421.9 Z M 1155.6 1134.9 1144.7 1124 1122.8 1121.5 1093.6 1098.5 1066.9 1087.6 1046.2 1094.9 1043.8 1109.4 1040.2 1128.8 1041.4 1149.4 1053.5 1156.6 1071.8 1171.2 1085.1 1179.6 1104.6 1167.5 1116.7 1157.9 1142.2 1167.5 1188.4 1194.2 1167.7 1167.5 1155.6 1134.9 Z M 1302.6 506.7 1092.5 498.2 1099.8 613.2 1301.4 615.6 1302.6 506.7 Z" data-holc_grade="C"/>
<path d="M 1362.2 2285.3 1348.5 2131.9 1452.1 2107.3 1471.6 2146 1498.3 2192 1517.7 2251.4 1362.2 2285.3 Z" data-holc_grade="C"/>
<path d="M 1926.7 2002.9 1910.6 2103.9 1835.6 2107.2 1780.9 2109.7 1683.4 2135.3 1663.1 2096.7 1649.5 2055.4 1631.3 2010.1 1602.2 2017.3 1587.3 1955.9 1596.3 1892.6 1668.9 1779 1755.1 1935.9 1808.3 1910.7 1827.1 1941.7 1831 1958.5 1842 1972 1874.4 1990.1 1878.3 2012.1 1873.1 2033.4 1875.1 2046.3 1885.4 2050.2 1896.4 2049.5 1904.2 2038.5 1906.2 2020.5 1912.6 2005 1926.7 2002.9 Z" data-holc_grade="C"/>
<path d="M 1839.4 2268.8 1709.2 2271.9 1660.6 2223.5 1647.2 2144.8 1683.4 2135.3 1780.9 2109.7 1835.6 2107.2 1839.4 2268.8 Z" data-holc_grade="C"/>
<path d="M 749.9 2581.7 858.3 2590.8 796.2 2705.5 725.7 2691 715.9 2679.7 715.9 2659.5 710.3 2640.9 702.2 2612.6 701.4 2591.6 691.7 2591.6 681.9 2607 680.3 2623.9 621.1 2598.1 568.5 2615 539.3 2639.2 537.7 2667.5 540.9 2693.3 469.6 2698.1 463.3 2497.9 625.3 2569.6 749.9 2581.7 Z" data-holc_grade="C"/>
<path d="M 2538.2 2506.7 1732.3 2521.4 1665.5 2447.5 1653.3 2391.8 1637.5 2319.2 1709.2 2321.6 1709.2 2271.9 1839.4 2268.8 2387.3 2255.7 2524.8 2252.4 2538.2 2506.7 Z" data-holc_grade="C"/>
<path d="M 171.9 664.7 305.8 662 407.5 659.9 405 825.7 516.8 837.9 521.7 859.7 516.8 892.3 508.3 929.9 482.7 955.3 440.2 986.7 440.2 1077.5 397.7 1083.6 197.3 898.3 241 851.1 193.7 799 248.4 744.6 171.9 664.7 Z" data-holc_grade="C"/>
<path d="M 413.4 1324.5 542.2 1316 554.2 1646.6 425.4 1564.2 413.4 1324.5 Z" data-holc_grade="C"/>
<path d="M 2165.6 1197 2142.3 1170.8 2103.8 1155.7 2070.4 1153.7 1983.9 1155.9 1975.7 941.9 1661.8 956 1661.8 827.9 1590 830 1582.9 618.1 1788.4 620.1 1972.6 609 2323.8 583.7 2331 926.7 2168 928.7 2166.1 1132.5 2194.4 1159.7 2165.6 1197 Z" data-holc_grade="C"/>
<path d="M 2010.7 1508.8 2006.6 1447.3 2001.6 1409.9 1982.3 1395.8 2104.1 1263.7 2330.1 1261.6 2344.3 1266.6 2342.3 1287.8 2326.1 1296.9 2335.2 1440.2 2332.2 1476.5 2317 1504.7 2307.9 1536 2318.1 1582.4 2244.2 1662.1 2068 1768.1 2057.8 1576.4 2035.5 1555.2 2013.3 1553.2 2010.7 1508.8 Z" data-holc_grade="C"/>
<path d="M 1817.1 1573.7 1753.1 1627.8 1713 1712.5 1644.9 1689.5 1506.1 1700.6 1499.5 1632.6 1455.8 1639.9 1449.7 1664.1 1442.4 1693.1 1341.5 1696.8 1344 1632.6 1275.9 1630.2 1241.9 1595.1 1192.1 1641.1 1175.2 1625 991.6 1449.7 1060.9 1441.3 1121.6 1430.4 1214 1428 1288.1 1429.2 1359.8 1425.6 1446.1 1423.2 1487.4 1421.9 1528.7 1411.1 1566.3 1432.8 1633.2 1465.5 1622.2 1484.9 1662.3 1505.5 1717 1522.4 1760.8 1533.3 1808.2 1539.4 1843.4 1533.3 1817.1 1573.7 Z" data-holc_grade="C"/>
<path d="M 1673.1 1772.6 1713 1712.5 1753.1 1627.8 1817.1 1573.7 1843 1624.5 1909.4 1623.7 1911.1 1668.9 1957.2 1710.1 1830.1 1779.5 1673.1 1772.6 Z" data-holc_grade="C"/>
<path d="M 1713 1712.5 1673.1 1772.6 1668.9 1779 1596.3 1892.6 1587.3 1955.9 1602.2 2017.3 1583 2024.9 1564.7 1966.8 1423.8 1820.3 1478.4 1820.3 1465.1 1759.7 1462.7 1704 1506.1 1700.6 1644.9 1689.5 1713 1712.5 Z" data-holc_grade="C"/>
<path d="M 1192.1 1641.1 1212.7 1661.7 1184.8 1685.9 1512.9 1989.8 1516.5 2027.3 1486.1 2032.2 1492.2 2061.3 1346.4 2108.5 997.6 1953.4 1134.9 1811.8 1002.5 1679.8 1175.2 1625 1192.1 1641.1 Z" data-holc_grade="C"/>
</g>
<g id="D">
<path d="M 2808.5 251.9 2987.5 242.9 2999 576.1 2813.6 586.7 2808.5 251.9 Z" data-holc_grade="D"/>
<path d="M 2244.2 1662.1 2318.1 1582.4 2383.9 1515.8 2373.7 1470.4 2386.9 1449.2 2383.8 1271.7 2344.3 1266.6 2335.1 1006.4 2496 825.7 2599.2 745 2624.6 772.2 2637.8 906.4 2674.2 905.4 2681.4 1070.8 2603.4 1083.9 2614.6 1296.8 2680.4 1246.3 2685.7 1603.5 2467.9 1612.6 2305.9 1649 2244.2 1662.1 Z" data-holc_grade="D"/>
<path d="M 2524.8 2252.4 2387.3 2255.7 2378.4 2085.5 2470 2080.4 2467.5 1969 2446.9 1965.4 2432.3 1851.6 2494.2 1815.2 2522.2 1840.7 2565.9 1855.2 2607.3 1858.8 2642.5 1874.5 2666.8 1895.1 2679.1 2249.9 2524.8 2252.4 Z" data-holc_grade="D"/>
<path d="M 463.3 2497.9 145.5 2454.2 116.9 2452.8 62.2 2372 49.3 2019.8 437.7 2016.8 463.3 2497.9 Z" data-holc_grade="D"/>
<path d="M 1637.5 2319.2 1653.3 2391.8 1514.1 2401.5 1492.2 2407.6 1492.2 2416.1 1501.9 2463.3 1459.4 2479.1 1481.3 2611.1 1486.1 2668 1498.1 2694.8 1418.7 2697 1408.3 2676.5 1425.4 2630.4 1440 2592.9 1422.9 2584.4 1375.5 2584.4 1322 2586.8 1302.6 2589.3 1291.6 2605 1288 2626.8 1289.2 2663.1 1292.9 2701.9 1285.6 2720.1 1277.1 2722.5 1263.7 2717.6 1263.7 2693.4 1260 2670.4 1238.2 2668 1147 2665.6 1143.3 2632.8 1140.9 2521.4 973.2 2519 1051 2462.1 1222.4 2374.9 1362.2 2285.3 1517.7 2251.4 1619.8 2250.2 1637.5 2319.2 Z" data-holc_grade="D"/>
<path d="M 2164.9 1932.8 2168.6 2092.6 1910.6 2103.9 1926.7 2002.9 1932.8 1964.3 1926.7 1943.7 1963.2 1885.6 1981.4 1859 2005.7 1848.1 2026.4 1867.4 2034.9 1883.2 2051.9 1884.4 2066.5 1872.3 2079.8 1860.2 2129.7 1857.7 2132.1 1937.6 2164.9 1932.8 Z" data-holc_grade="D"/>
<path d="M 694.3 2995.5 960.7 2993.3 978.9 3206.3 980.9 3243.7 974.8 3275 928.2 3291.1 857.3 3285.1 759 3258.8 663.8 3224.4 480.4 3152.7 603 2996.3 694.3 2995.5 Z" data-holc_grade="D"/>
<path d="M 2033.9 2956.2 2092.2 3043.4 2087.4 3313.5 2078.9 3371.7 1936.7 3379 1917.2 3365.7 1737.3 3371.7 1738.5 3446.9 1914.8 3437.1 1918.4 3547.4 1734.8 3551.1 1730 3514.7 1467.3 3515.9 1449.1 3202.2 1511.1 3198.5 1497.7 2795.1 1460 2791.5 1464.9 2774.6 1463.7 2758.8 1454 2745.5 1436.9 2727.3 1428.4 2711.6 1418.7 2697 1498.1 2694.8 1714.1 2688.6 1719 2962.3 2033.9 2956.2 Z" data-holc_grade="D"/>
<path d="M 2033.9 2956.2 1825.9 2668 1808.9 2648.6 1795.5 2623.1 1771.2 2584.4 1732.3 2521.4 2538.2 2506.7 2535.8 2561.2 2399.7 2568.5 2404.6 2711.4 2426.5 2724.7 2448.4 2735.6 2469 2741.7 2495.8 2742.9 2539.5 2735.6 2606.4 2719.8 2768.1 2723.4 2770.6 2956 2658.7 2941.5 2505.6 2940.3 2033.9 2956.2 Z" data-holc_grade="D"/>
</g>
</svg>