<?xml version="1.0"?>
<svg xmlns="http://www.w3.org/2000/svg" version="1.2" baseProfile="tiny" width="3000" height="2452" viewBox="0 0 3000 2452" stroke-linecap="round" stroke-linejoin="round">
<g id="A">
<path d="M 1264.6 496.5 1264.6 499.1 1218.9 499.9 1219.5 457.4 1264.6 457.4 1264.6 496.5 Z" data-holc_grade="A"/>
<path d="M 895.4 1267.2 989.1 1291.2 981.7 1307.6 979.1 1313.5 972.3 1319.8 963.2 1323.9 952.8 1326.2 937 1324.8 926 1321 919.2 1321.4 918.8 1324.4 923.7 1329.2 945.4 1342.8 941.5 1349.6 934.7 1351.9 927.6 1349.4 922.4 1340.5 915.3 1331.2 910.7 1329.4 905.6 1329.4 904.3 1334.1 907.5 1340.7 902 1345 903.6 1360 892.3 1378.4 874.1 1387.9 857.9 1391.4 854.1 1388.4 857.6 1375.7 863.8 1370.7 858.9 1368.4 851.8 1372.1 836.2 1378.9 818.1 1387.5 814.5 1391.8 799 1391.1 785.7 1391.1 778.6 1393.6 758.2 1385.5 755.3 1380 755.3 1375.5 746.5 1365 749.4 1360.3 766.3 1356.6 774.4 1352.8 785.7 1352.8 793.2 1353.7 799.6 1358.4 819.4 1348.2 844.3 1331.2 847.9 1326.7 845.3 1324.4 810 1322.8 804.5 1322.8 797.1 1310.5 795.1 1304.4 798 1296.2 812 1287.8 818.4 1289.2 825.2 1295.3 830.7 1295.3 827.5 1288.7 834.6 1281.5 842.1 1277.4 846.6 1269.7 856.3 1264.7 862.8 1266.1 868.3 1272 868.6 1274.7 880 1267.4 889 1265.6 895.4 1267.2 Z" data-holc_grade="A"/>
<path d="M 970.6 1442.9 969.8 1450.3 961.3 1462.8 951.6 1466.5 950.8 1471.9 952 1475.9 962.1 1479.3 962.1 1490.6 966.5 1493.2 974.2 1495.7 975 1498.6 970.2 1509.3 969.8 1513.3 982.3 1521.8 980.7 1532.3 964.1 1532 963.3 1523.8 956 1521 952 1521.3 949.5 1525 949.1 1529.5 948.3 1534 919.6 1533.7 915.1 1525 905.4 1518.1 880.7 1517.9 871 1512.7 864.1 1497.7 861.7 1492 853.6 1485.5 817.1 1486.1 811.1 1477.3 822.4 1474.7 828.9 1471.6 842.2 1464.8 841.8 1461.7 813.5 1461.9 797.3 1458.8 779.9 1442.4 777.1 1435.6 829.7 1435.6 829.3 1402.1 847.5 1410 860.1 1414 862.5 1420.8 861.3 1428.5 874.2 1428.5 882.3 1429.6 886.4 1433.9 888 1438.7 893.3 1437.3 894.1 1427.6 895.7 1423.1 905.8 1420.2 922 1422.8 928.5 1426.5 932.1 1425.3 930.9 1415.1 935.4 1408 948.7 1410.9 953.6 1425.1 958.8 1428.5 957.6 1435 949.9 1441.2 948.7 1448 949.1 1450.3 965.3 1442.4 970.6 1442.9 Z" data-holc_grade="A"/>
<path d="M 1024.1 1693 1023.3 1606.2 1142.4 1606.2 1138.3 1617.8 1138.7 1627.2 1147.2 1638 1148.4 1652.1 1146.4 1662.6 1142.8 1670.6 1134.3 1677.1 1125.4 1678.5 1068.7 1675.1 1024.1 1693 Z" data-holc_grade="A"/>
<path d="M 1921.4 1689.6 1921.4 1747.2 1926.6 1753.8 1927.5 1884.4 1810.9 1851.2 1810.9 1833.3 1799.1 1830.1 1797.5 1786.4 1795.9 1776.8 1787.8 1765.7 1778.5 1756.6 1787.1 1753 1801 1748.6 1807.8 1743.4 1809.1 1736.3 1808 1723.4 1816.3 1708.3 1817.1 1701.9 1816.6 1696.3 1839.4 1687.2 1859.3 1688.9 1868.4 1693.2 1874.9 1693.9 1885.3 1690.9 1906 1689 1921.4 1689.6 Z" data-holc_grade="A"/>
<path d="M 1373 2036.7 1375.8 2103.9 1462.2 2102.5 1466.1 2107 1467.4 2120.7 1453.8 2111.1 1453.1 2122 1433.7 2122 1435.6 2212 1448.6 2217.5 1468 2231.6 1469.3 2261 1300.2 2261 1295.7 2105.2 1295.2 2062.5 1263.6 2037.3 1373 2036.7 Z" data-holc_grade="A"/>
<path d="M 1584.1 2275.7 1565.9 2274.1 1542.1 2271.9 1508.7 2276.3 1507.9 2261 1469.3 2261 1468 2231.6 1448.6 2217.5 1435.6 2212 1433.7 2122 1453.1 2122 1453.8 2111.1 1467.4 2120.7 1466.1 2107 1462.2 2102.5 1461.5 2093.8 1527 2094.3 1538 2109.8 1560.7 2142.9 1580.1 2164.3 1595 2175.6 1618.3 2182.9 1641 2190.6 1645.5 2201.1 1642.3 2214.7 1631.3 2232 1617.7 2247.9 1606 2260.2 1601.5 2270.2 1598.9 2277.5 1584.1 2275.7 Z" data-holc_grade="A"/>
<path d="M 1584.1 2275.7 1533.6 2434.5 1525.8 2450.3 1276.3 2450.8 1268.5 2261 1300.2 2261 1469.3 2261 1507.9 2261 1508.7 2276.3 1542.1 2271.9 1565.9 2274.1 1584.1 2275.7 Z" data-holc_grade="A"/>
<path d="M 2094.9 838.1 2062.8 841.8 2032.2 830.9 2026.8 822.4 2021 817 2015.7 817 2009.8 822.4 2003.5 824.1 1990.4 818.3 1971.9 810.8 1974.9 806.4 1981.7 801.3 1981.2 796.9 1969 799.6 1955.4 798.6 1942.3 794.8 1938.4 790.4 1932.1 779.5 1896.6 775.8 1886.4 779.5 1864.1 778.8 1863.9 747.6 1805.6 747.3 1802.4 741.6 1790.3 736.8 1776.1 738.5 1750.2 725.7 1729.5 707.6 1698.8 703 1700 683.8 1725.1 683.2 1793.5 705 1793.9 699.6 1821.4 699.1 1821.4 682.6 1865.6 681.8 1865.5 671 1935.5 672 1934.5 717.3 1961.7 718.6 1971.9 741.4 1969.5 781.2 2034.6 783.9 2037 808.8 2043.8 821.4 2068.1 822.4 2085.6 826.5 2100.7 826.5 2094.9 838.1 Z" data-holc_grade="A"/>
<path d="M 1861.7 844.2 1860.7 890.5 1860.7 900.3 1781.5 901.3 1770.3 895.9 1762.1 896.2 1763.1 820.7 1816.2 820.7 1820.6 811.4 1832.8 811.1 1834.8 769.1 1804.8 768.3 1805.6 747.3 1863.9 747.6 1864.1 778.8 1861.7 844.2 Z" data-holc_grade="A"/>
<path d="M 2218.4 892.5 2258.5 892.5 2258.9 849.4 2324 848.5 2291 860 2292.4 896.5 2336.3 897.1 2336.7 929.9 2218.6 928.8 2218.4 892.5 Z" data-holc_grade="A"/>
<path d="M 895.8 1030.3 910.5 1054.9 912.9 1057.9 916.2 1062 940.1 1083.4 912 1080.8 886.6 1077.1 855.4 1079.1 839.7 1080.2 824.3 1079.6 870.1 1062.3 879 1056.4 872.5 1050.7 859.5 1047.9 846.2 1043.3 828.3 1037.4 813 1038.5 810.9 1017.8 812.6 1007.3 804.1 1007 794.7 1005 785 998.5 786.2 1009 782.2 1012.1 772.5 1011 762 1011.3 758.3 1026.3 753 1032.8 763.6 1037.9 761.1 1042.2 752.2 1045 747.8 1043.6 736.4 1041 724.3 1045.6 713.2 1052.1 712.6 1015.8 762.4 960.5 775.7 960.5 775.7 952.6 789.5 952.3 859.5 995.4 869.2 997.9 870.9 1010.7 892.7 1025.2 895.8 1030.3 Z" data-holc_grade="A"/>
<path d="M 870.1 1062.3 862.8 1060.3 824.3 1057.8 791.5 1061.5 780.6 1068.8 762 1068.6 745.8 1077.1 731.2 1079.6 713.8 1087.6 713.2 1052.1 724.3 1045.6 736.4 1041 747.8 1043.6 752.2 1045 761.1 1042.2 763.6 1037.9 753 1032.8 758.3 1026.3 762 1011.3 772.5 1011 782.2 1012.1 786.2 1009 785 998.5 794.7 1005 804.1 1007 812.6 1007.3 810.9 1017.8 813 1038.5 828.3 1037.4 846.2 1043.3 859.5 1047.9 872.5 1050.7 879 1056.4 870.1 1062.3 Z" data-holc_grade="A"/>
<path d="M 824.3 1079.6 839.7 1080.2 855.4 1079.1 857.5 1117.6 839.7 1117.6 839.3 1128.1 819.8 1129.5 779 1146.9 779 1158.8 715.4 1158.2 714.6 1136.4 600 1135.8 600.8 1116.2 613.8 1124.7 633.6 1121 655.9 1109.4 684.2 1108.3 721.5 1094.9 744.9 1095.5 769.6 1093.5 810.1 1081.6 824.3 1079.6 Z" data-holc_grade="A"/>
<path d="M 585.9 1196 608.7 1196.7 619.3 1200.2 632.5 1200 647.3 1195.5 650.9 1309.3 591.6 1291.5 582.3 1282.6 569 1277.5 565.9 1269.7 584.3 1258.8 592.6 1248.9 589.3 1243.8 579.7 1243.4 571.6 1243.6 565.9 1237.6 569.6 1230.5 586.4 1218.5 585.9 1196 Z" data-holc_grade="A"/>
<path d="M 623.6 1355.7 627.2 1353.5 634.2 1354.4 637 1358.8 642.2 1360.4 664.5 1362.1 677.7 1370.4 689.1 1369.5 699.5 1368.4 706.5 1369.9 708.3 1375 704.4 1382.6 696.1 1383.3 683.2 1386.9 669.9 1386.8 649 1388 645.6 1380.8 639.6 1379.1 613.7 1379.5 606.7 1375.9 603.1 1367.9 609.3 1364.2 623 1358.8 623.6 1355.7 Z" data-holc_grade="A"/>
</g>
<g id="B">
<path d="M 739.4 307.7 738.8 282 848.1 283 848.8 297 958 297.5 959.4 277.7 1024.3 278 1027.4 259.7 1073.8 259.1 1156.3 258.1 1154.1 286.1 1153 346.2 1105.9 347.2 955.7 347.6 805.7 348.6 776.5 343.1 809 339 808 308.3 739.4 307.7 Z" data-holc_grade="B"/>
<path d="M 1865.7 666.8 1865.5 671 1865.6 681.8 1821.4 682.6 1821.4 699.1 1793.9 699.6 1793.5 705 1725.1 683.2 1700 683.8 1698.8 703 1729.5 707.6 1750.2 725.7 1776.1 738.5 1790.3 736.8 1802.4 741.6 1805.6 747.3 1804.8 768.3 1834.8 769.1 1832.8 811.1 1820.6 811.4 1816.2 820.7 1763.1 820.7 1763.5 750.4 1598.4 749.8 1598.4 695.7 1612.5 695.4 1611.7 669.6 1651.8 669 1653.4 697.1 1674.9 697.7 1674.9 666.8 1865.7 666.8 Z" data-holc_grade="B"/>
<path d="M 1763.1 820.7 1762.1 896.2 1761.6 923.5 1595.1 922.8 1594.7 907.8 1540.1 907.5 1539.6 854.5 1497.5 854.2 1500.4 778.2 1535.6 778.2 1535.2 749.8 1598.4 749.8 1763.5 750.4 1763.1 820.7 Z" data-holc_grade="B"/>
<path d="M 1593.1 978.1 1593.9 934.7 1698 935 1858.3 933.3 1838.8 944.4 1798 944.9 1795.9 977 1593.1 978.1 Z" data-holc_grade="B"/>
<path d="M 1697.6 1254.6 1767.6 1255.6 1770 1258 1795.8 1258.3 1798.2 1256.3 1850.2 1256 1851.6 1328.5 1698.1 1327.8 1697.6 1254.6 Z" data-holc_grade="B"/>
<path d="M 1690.5 1633 1691.3 1659.4 1702.2 1660.2 1709.5 1721.5 1720.8 1815.8 1721.3 1835.9 1701 1837.1 1701 1843.9 1645.9 1845 1645.5 1834.8 1657.3 1834.5 1652.4 1812.1 1627.3 1814.6 1627.7 1820.6 1561.3 1821.7 1474.7 1818.3 1524.1 1809.8 1546.8 1796.2 1556.1 1796.5 1556.1 1788.8 1567.4 1770.1 1572.3 1766.9 1575.6 1766.9 1633.8 1766.4 1624.5 1690.3 1639.5 1690 1637.4 1658.2 1665.4 1658.8 1665.4 1632.4 1690.5 1633 Z" data-holc_grade="B"/>
<path d="M 1700 2112.9 1642.3 2139.3 1578.8 2060 1659.8 2050.9 1674.7 2065.9 1695.1 2092.9 1700 2112.9 Z M 1562.3 1972.7 1648.8 1970.9 1652.3 2019.1 1570.1 2022.7 1562.3 1972.7 Z" data-holc_grade="B"/>
<path d="M 1991.8 1694.6 1991.8 1746.8 1977.2 1747.3 1977.2 1891.3 1929 1890.8 1927.5 1884.4 1926.6 1753.8 1921.4 1747.2 1921.4 1689.6 1959.1 1689.8 1959.1 1668.9 1991.8 1668.9 1991.8 1694.6 Z" data-holc_grade="B"/>
<path d="M 2094.9 838.1 2113.3 838.7 2126.9 836.3 2134.2 841.5 2150.2 844.5 2176 839.8 1967.1 923.8 1761.6 923.5 1762.1 896.2 1770.3 895.9 1781.5 901.3 1860.7 900.3 1860.7 890.5 1927.2 890.5 1924.8 843.5 1861.7 844.2 1864.1 778.8 1886.4 779.5 1896.6 775.8 1932.1 779.5 1938.4 790.4 1942.3 794.8 1955.4 798.6 1969 799.6 1981.2 796.9 1981.7 801.3 1974.9 806.4 1971.9 810.8 1990.4 818.3 2003.5 824.1 2009.8 822.4 2015.7 817 2021 817 2026.8 822.4 2032.2 830.9 2062.8 841.8 2094.9 838.1 Z" data-holc_grade="B"/>
<path d="M 2007.5 658.4 2003.4 747.9 2024.4 747.9 2024.9 766.3 2095.7 765.2 2096.1 782.5 2219.2 782.2 2219.6 822.4 2176 839.8 2150.2 844.5 2134.2 841.5 2126.9 836.3 2113.3 838.7 2094.9 838.1 2100.7 826.5 2085.6 826.5 2068.1 822.4 2043.8 821.4 2037 808.8 2034.6 783.9 1969.5 781.2 1971.9 741.4 1961.7 718.6 1934.5 717.3 1935.5 672 1865.5 671 1865.7 666.8 1866.5 633.6 1934.2 632.9 1934 649.6 1967.6 649.6 1969 658.1 2007.5 658.4 Z" data-holc_grade="B"/>
<path d="M 1965.8 1141.8 1966.6 1132.8 1934 1133 1933.7 1141.4 1851.1 1140.4 1849.8 978.4 1945.9 945.1 2044.8 968.9 2046.1 1033.3 2079.8 1033.3 2080.3 1050.5 2079.8 1064.5 2119.2 1065.2 2120.1 1095.8 2080.4 1095.5 2079.8 1135 2009.1 1135.4 2008.9 1142.7 2008 1176.4 2007.9 1180.8 1971.3 1181.1 1970.3 1178.1 1968.3 1141.8 1965.8 1141.8 Z M 1965.8 1129 1964.8 1097.8 1930.9 1101.6 1913 1104.3 1904.2 1106.1 1895.1 1103.9 1880.3 1106.8 1877.5 1109.4 1877.2 1113.6 1867.9 1123.4 1868.7 1128.6 1891.2 1129.2 1965.8 1129 Z" data-holc_grade="B"/>
<path d="M 975.3 501.7 927.1 500.9 923.5 485.1 915.1 447.9 909.3 435.2 894 417.9 882.1 408.2 865.9 397.1 815 384.4 814.4 358.8 972.4 359.5 975.3 501.7 Z" data-holc_grade="B"/>
<path d="M 2218.4 892.5 2218.6 928.8 2336.7 929.9 2335.5 948.3 2296.3 947.7 2255.2 947 2254.5 997.8 2215 997.3 2215.3 947.2 2183.9 946.7 2184.2 996.4 2161.9 996.2 2161.2 1028.6 2145.7 1028.6 2145.1 981.7 2079 980.8 2078.3 965.1 2046.3 963.5 2045.6 947 1945.9 945.1 2121.7 874.1 2219.2 834.9 2218.4 892.5 Z" data-holc_grade="B"/>
<path d="M 2434.6 751.8 2434 809.1 2284.8 808.8 2434.6 751.8 Z M 2570.6 684.9 2479.9 720.4 2397.7 753 2219.6 822.4 2219.2 782.2 2096.1 782.5 2095.7 765.2 2024.9 766.3 2024.4 747.9 2003.4 747.9 2007.5 658.4 2007.8 650 2078.3 650 2076.3 699.6 2075.5 720.1 2084.8 720.9 2084 747 2222.2 746.2 2290 745.9 2291.7 690 2404.6 690.6 2403.4 649.5 2536.5 649.3 2569.8 649.2 2570.6 684.9 Z" data-holc_grade="B"/>
<path d="M 2116.9 1231.7 2111.7 1231.4 2112 1194.5 2195.1 1194.2 2194.7 1177.2 2227.1 1177.5 2228.7 1164.5 2257.8 1165 2259 1186 2303.6 1185.7 2303.6 1205.6 2290.6 1205.9 2290.6 1233.1 2260.7 1234 2261.5 1270.6 2311.7 1271.4 2312.5 1290.4 2261.9 1291 2261.9 1298.4 2312.9 1298.6 2312.9 1319.1 2259.5 1319.6 2259.9 1330.4 2155.8 1331.8 2146.1 1327.6 2143.3 1303.2 2146.9 1298.9 2133.5 1296.9 2129.1 1254.4 2127.9 1234.2 2122.2 1232 2116.9 1231.7 Z" data-holc_grade="B"/>
<path d="M 2434 809.1 2433.8 835.8 2411.9 836.3 2342.7 847.4 2338.2 845.4 2324 848.5 2258.9 849.4 2258.5 892.5 2218.4 892.5 2219.2 834.9 2284.8 808.8 2434 809.1 Z" data-holc_grade="B"/>
<path d="M 2574.8 724.2 2576.8 749.4 2576.8 753.1 2560.2 752.8 2560.7 798.1 2485.7 796.9 2484.9 840 2433.8 839.4 2433.8 835.8 2434 809.1 2434.6 751.8 2571.8 698 2574.8 724.2 Z" data-holc_grade="B"/>
<path d="M 2872.2 675.6 2874.6 696.5 2874.1 750.6 2821.2 748.6 2801.8 724.7 2778.4 710.8 2733.7 681.9 2732.8 652 2853.7 650.2 2855.7 675.8 2872.2 675.6 Z" data-holc_grade="B"/>
<path d="M 666 892.2 680.4 904 690.9 913.7 709.2 912.3 720.9 916.2 770.3 925.9 828.2 925.3 829 959.3 855.7 959.9 856.5 977.8 883.6 977.5 883.2 1000.2 911.6 1000.7 912.8 1019.5 940.3 1019.7 943.2 1056.3 957.8 1056.5 956.6 1084.9 940.1 1083.4 916.2 1062 912.9 1057.9 910.8 1029.4 895.8 1030.3 892.7 1025.2 870.9 1010.7 869.2 997.9 859.5 995.4 789.5 952.3 775.7 952.6 775.7 960.5 762.4 960.5 744.8 961.3 724.1 964.7 720.9 958.5 732.2 952.8 733.8 948.8 741.5 944.6 739.1 938.3 730.2 938.9 722.5 944.3 712 955.6 661 967.3 660.2 953.4 637.5 947.4 629.8 942.6 673.5 941.5 673.1 919.6 652.9 898.4 631.8 898.4 631.4 893.5 542.3 894.4 540.3 886.2 547.2 882.8 554.9 876.8 559.4 870.6 573.1 872.3 579.2 870.3 594.6 865.5 595 860.4 599.4 855 632.6 856.4 645.2 864.9 649.2 872 650.4 879.4 666 892.2 Z" data-holc_grade="B"/>
<path d="M 940.1 1083.4 956.6 1084.9 961.4 1085.4 964.2 1133.3 961.4 1136.7 944.4 1137.6 911 1137.7 912 1080.8 940.1 1083.4 Z" data-holc_grade="B"/>
<path d="M 1019.7 1298.4 1019.7 1287.6 1039.9 1244.5 1068.3 1251.9 1067 1258.7 1069.1 1261.8 1088.9 1287.4 1061.8 1287.4 1062.2 1297.9 1019.7 1298.4 Z M 989.1 1291.2 895.4 1267.2 910.4 1238.4 917.2 1239.5 922.4 1239.3 934.1 1221.1 935.7 1206.1 942.2 1204.3 946.4 1198.9 956.1 1199.6 956.4 1190.2 953.2 1186.4 951.9 1182.3 956.4 1178.2 955.1 1175 950.3 1173.9 940.5 1179.1 935.7 1175.9 934.7 1167.8 937.3 1160.5 944.8 1157.1 958 1153.5 968.7 1153.5 980.1 1160.1 995.9 1174.6 1011.5 1186.4 989.8 1227 1016.7 1234 989.1 1291.2 Z" data-holc_grade="B"/>
<path d="M 1527 2094.3 1461.5 2093.8 1462.2 2102.5 1375.8 2103.9 1373 2036.7 1479.4 2037 1498.5 2055.2 1517.9 2074.2 1527 2094.3 Z" data-holc_grade="B"/>
<path d="M 1025 555.8 1026 600.8 1017.5 600.7 1008.3 601.9 1002.5 597.8 995.9 588.5 992 576.9 981.3 567.9 974.9 563.7 962.1 561.4 957.6 555.9 952.4 553.6 949.5 550.6 1025.1 551.2 1025 555.8 Z" data-holc_grade="B"/>
<path d="M 1154.1 501.2 1094.2 501.2 1093.6 452.9 1155.1 452.4 1154.1 501.2 Z M 1155.1 429.1 1036.5 427.9 1036.2 415.5 1057.3 415.5 1056 359.7 1153.1 358.5 1155.1 429.1 Z" data-holc_grade="B"/>
<path d="M 1172.7 665.3 1171.5 740.5 1145.9 742.5 1122.1 752.4 1030.3 668.4 1029.8 661.9 1172.7 665.3 Z" data-holc_grade="B"/>
<path d="M 1351 355.8 1261.7 356.5 1262.6 346.3 1172.3 345.6 1172.6 321.6 1267.5 321.8 1268.1 294.8 1302.8 294.8 1303.4 330.2 1354 330.4 1351 355.8 Z" data-holc_grade="B"/>
<path d="M 1264 426.3 1264.5 455 1264.6 457.4 1219.5 457.4 1218.9 499.9 1175.5 500.7 1171.6 357.2 1261.7 356.5 1351 355.8 1343.9 403.7 1263.6 404.6 1264 426.3 Z" data-holc_grade="B"/>
<path d="M 1264.6 496.5 1295 496.9 1293.7 454.2 1264.5 455 1264 426.3 1342.3 425.9 1342.9 452.2 1435.6 451.3 1439.2 543.1 1262.9 544 1264.6 499.1 1264.6 496.5 Z" data-holc_grade="B"/>
<path d="M 1809.7 474.8 1809 525.4 1695.1 525.8 1693.4 502.3 1662.4 502.5 1661.4 513.3 1661.4 513.6 1561 513.6 1560.7 488 1561.1 488 1561.1 487.7 1696 486.8 1695.9 473.4 1696.3 473.4 1696.1 443.8 1794.5 443.8 1796.1 453.3 1811 453.7 1809.7 474.8 Z" data-holc_grade="B"/>
<path d="M 1089.8 1828.8 1111.8 1838.8 1111.8 1831.1 1119 1829.2 1126.1 1832 1142.3 1839.7 1155.2 1851.5 1162.4 1861.5 1164.3 1871.5 1188.9 1852.4 1192.8 1853.8 1190.2 1897.4 1178.6 1902.4 1129.3 1901.5 1114.4 1906.9 1104.7 1907.4 1074.9 1899.7 1059.4 1904.2 1058.1 1817 1074.9 1811.5 1076.9 1826.1 1089.8 1828.8 Z M 924.1 1780.2 925.8 1803.5 884.9 1804.6 884.9 1876.4 709.6 1877.6 710.8 1924.4 657.3 1924.1 656.9 1871.6 678 1825.6 678.4 1814.5 710.8 1815.1 711.6 1798.9 816 1801.5 818.1 1779.3 924.1 1780.2 Z M 1237.5 1774.3 1243.3 1787.9 1248.5 1797 1264.7 1806.5 1267.3 1817.4 1275.7 1818.3 1275.7 1838.3 1211.6 1837.9 1210.9 1826.1 1147.5 1824.7 1146.2 1801.5 1170.1 1801.5 1172.1 1774.7 1237.5 1774.3 Z M 1024.1 1693 1035.9 1695.6 1048.4 1702.4 1076.8 1702.7 1085.3 1711.2 1090.5 1711.2 1100.7 1710.1 1106.7 1706.4 1111.6 1705.5 1115.2 1708.1 1116.9 1714 1110 1718.6 1086.9 1721.4 1090.9 1724.8 1100.3 1725.1 1110.8 1728.2 1116 1727.9 1121.7 1724 1127.4 1722.5 1132.2 1724.3 1132.2 1729.1 1126.2 1735.6 1118.9 1741.6 1115.6 1750.7 1114.4 1754.6 1101.1 1747 1084.5 1744.7 1078.8 1741.3 1072.3 1736.2 1072.7 1775.4 1059 1773.6 1028.2 1772.2 1012.8 1777.9 1002.3 1787.6 998.2 1787.6 965 1723.4 963.4 1712.6 964.6 1705.2 1009.2 1699 1024.1 1693 Z M 744.8 1680.8 816.9 1681.4 816 1655.8 831.4 1661.2 831.4 1646.2 854.5 1634.3 883.2 1635.7 883.2 1657.5 969.9 1659.5 939.1 1731.6 676.8 1726.5 678 1679.7 606.7 1679.4 605.5 1611.8 632.2 1613.5 662.2 1619.5 706.3 1636.5 743.2 1652.7 744.8 1680.8 Z M 645.6 1344.5 649 1353.4 654.9 1352.6 670.7 1351.5 680.3 1353.7 696.4 1360.1 706.5 1364.2 721.3 1367.2 726.2 1371 734.7 1375 732.7 1383.9 732.9 1401.3 722.3 1401.1 704.7 1402.7 690.9 1408 680.1 1406.7 667.6 1414.4 656 1417.6 643 1416.9 619.2 1409.3 615.8 1403.1 610.9 1399.8 592.2 1399.7 584.2 1397.5 577.4 1390.2 578 1385 584.7 1380.2 585 1363.3 601.8 1362.6 601.8 1359.5 613.7 1358.8 615.5 1349.9 617.6 1347.9 619.9 1334.8 623.6 1333.9 634.4 1343.2 645.6 1344.5 Z M 623.6 1355.7 623 1358.8 609.3 1364.2 603.1 1367.9 606.7 1375.9 613.7 1379.5 639.6 1379.1 645.6 1380.8 649 1388 669.9 1386.8 683.2 1386.9 696.1 1383.3 704.4 1382.6 708.3 1375 706.5 1369.9 699.5 1368.4 689.1 1369.5 677.7 1370.4 664.5 1362.1 642.2 1360.4 637 1358.8 634.2 1354.4 627.2 1353.5 623.6 1355.7 Z M 1125.9 1312.3 1126.6 1336.7 1141.1 1337.1 1141.1 1341.3 1139.9 1345.2 1131.8 1352.1 1116.4 1358.6 1095.4 1365.1 1069.1 1368.2 1055.3 1367.4 1057.3 1318.9 1069.5 1310.9 1125.9 1312.3 Z" data-holc_grade="B"/>
</g>
<g id="C">
<path d="M 243.3 86.4 139 131.8 107.9 100.5 90.4 107.1 158.1 183 108.2 201.8 1 77.1 73.9 49 64.5 28.2 132.5 1 167.8 59.2 180.4 55.6 183 58.6 209.6 47.7 243.3 86.4 Z" data-holc_grade="C"/>
<path d="M 1593.9 934.7 1593.1 978.1 1540.1 978.4 1538.8 1003.1 1493.1 1020.1 1482.6 1022.1 1471.2 1030.6 1465.2 1039.6 1446.5 1046.7 1447.3 935.8 1593.9 934.7 Z M 1488.2 750.3 1487.4 778.7 1500.4 778.2 1497.5 854.2 1539.6 854.5 1540.1 907.5 1594.7 907.8 1595.1 922.8 1449.4 923.1 1453.8 750.7 1488.2 750.3 Z" data-holc_grade="C"/>
<path d="M 2296.3 947.7 2296.3 983.5 2330.6 968.7 2328.7 1005.9 2381.5 1006.6 2383.1 977.8 2367.9 976.7 2367.9 954.9 2384.7 947.9 2573.6 948.8 2573.9 962.4 2609.8 962.6 2608.9 1009.6 2575.5 1009.8 2574.5 1040 2253.9 1036.4 2254.5 997.8 2255.2 947 2296.3 947.7 Z" data-holc_grade="C"/>
<path d="M 2718.2 633.9 2608.1 676.1 2573.4 689.4 2570.6 684.9 2569.8 649.2 2574.9 624.4 2644.8 624.4 2647.3 546.8 2693.4 547.2 2723.5 551.9 2718.2 633.9 Z" data-holc_grade="C"/>
<path d="M 2579.2 798.3 2560.7 798.1 2560.2 752.8 2576.8 753.1 2576.8 749.4 2574.8 724.2 2696.8 724.2 2694.8 686.1 2717.2 686.1 2717.2 749.1 2717.2 798.4 2687 798 2685.1 778 2647.7 778.3 2647.7 797.7 2579.2 798.3 Z" data-holc_grade="C"/>
<path d="M 2715.5 898.7 2716.6 863.6 2772.5 874.5 2767.1 1048.2 2857.3 1047.7 2856.5 1105.9 2784.2 1108.1 2783.4 1171.8 2708.3 1170.2 2708.5 1149.6 2709.5 1136.6 2709.5 1094.8 2715.5 898.7 Z" data-holc_grade="C"/>
<path d="M 2872.2 675.6 2855.7 675.8 2853.7 650.2 2732.8 652 2715.8 652.3 2717.7 677.1 2608.1 676.1 2718.2 633.9 2816.8 595.5 2846.4 597.9 2846 574.4 2996.1 598.9 2999 674.4 2872.2 675.6 Z" data-holc_grade="C"/>
<path d="M 1880.3 1247.1 1881.6 1336 1553.8 1332.9 1554.3 1242.7 1880.3 1247.1 Z M 1697.6 1254.6 1698.1 1327.8 1851.6 1328.5 1850.2 1256 1798.2 1256.3 1795.8 1258.3 1770 1258 1767.6 1255.6 1697.6 1254.6 Z" data-holc_grade="C"/>
<path d="M 1654.1 1618.7 1609.7 1617.5 1583.2 1537.4 1535.1 1532.9 1527.8 1516.6 1517.1 1515.9 1463.6 1395.4 1624.5 1427.7 1624.5 1597.3 1654.1 1618.7 Z" data-holc_grade="C"/>
<path d="M 1609.7 1617.5 1654.1 1618.7 1710.1 1620.2 1714 1632.8 1690.5 1633 1665.4 1632.4 1665.4 1658.8 1637.4 1658.2 1639.5 1690 1624.5 1690.3 1633.8 1766.4 1575.6 1766.9 1574.6 1738 1557.1 1737 1543.5 1720.7 1550.8 1713.8 1551.3 1711.5 1503.2 1709.7 1528.4 1656.9 1582.4 1656.6 1606.2 1617.4 1609.7 1617.5 Z" data-holc_grade="C"/>
<path d="M 1648.8 1970.9 1562.3 1972.7 1509.1 1973.7 1442.3 1894.1 1441.9 1862.6 1475.1 1862.6 1474.7 1818.3 1561.3 1821.7 1627.7 1820.6 1627.3 1814.6 1652.4 1812.1 1657.3 1834.5 1645.5 1834.8 1645.9 1845 1701 1843.9 1701 1837.1 1721.3 1835.9 1724.9 1856.1 1734.2 1868.9 1763.8 1869.7 1762.1 1929.1 1760.5 1968.8 1690.1 1970 1648.8 1970.9 Z" data-holc_grade="C"/>
<path d="M 418.7 234.2 358.3 282.1 343.7 291.6 331.5 288.2 318.6 287.6 276.9 289.8 232.5 290.4 214.2 288.4 201.5 281.8 187.7 274 176.3 263.9 168.8 259 194.7 225.4 183.6 220 204.8 193.3 236.2 204.8 258.2 192.8 418.7 234.2 Z M 394.8 81.7 424.3 88.9 431.3 88.9 418.6 107.2 540.9 107 536.5 146 484.7 182.8 432.6 223.8 375.8 208.9 275 184.6 298.1 171.4 209.2 182.6 177.4 172.1 149.4 142.9 237.7 104 247.8 100 263.9 96.2 371.7 119.2 394.8 81.7 Z" data-holc_grade="C"/>
<path d="M 1991.8 1668.9 1959.1 1668.9 1959 1614.5 1933.9 1614.5 1932.7 1581 1769.5 1581.3 1769.9 1540.4 1712.8 1540.1 1712.4 1516.6 1705.6 1516.3 1700.3 1496.1 1738.8 1496.4 1738.4 1437.1 1839.2 1458.9 1865.5 1458.9 1866.3 1476.8 1875.2 1477.1 1876 1497.3 1947.3 1496.7 2017.8 1494.5 2017.8 1528.8 2014.5 1539.3 1995 1575.3 1994.6 1658.8 1994.7 1668.9 1991.8 1668.9 Z M 1843.4 1513.9 1843.4 1538.4 1875.1 1537.5 1874.8 1513.9 1843.4 1513.9 Z" data-holc_grade="C"/>
<path d="M 1970.8 1186.3 1970.8 1235.6 1808 1234.8 1807.9 1186.6 1970.8 1186.3 Z M 1970.3 1178.1 1807.9 1176.3 1807.6 1001.6 1807.7 990.4 1807.7 983.8 1831 976.6 1831 961.2 1844.6 948 1945.9 945.1 1849.8 978.4 1851.1 1140.4 1933.7 1141.4 1965.8 1141.8 1968.3 1141.8 1970.3 1178.1 Z" data-holc_grade="C"/>
<path d="M 1975 1401 1974.5 1342.4 2024.1 1342.1 2031.9 1336.6 2116.4 1337.7 2114.5 1434 2061.5 1432.3 2061 1401 2034.3 1400.3 2034.3 1404.4 2011.9 1404.4 2010.5 1400.7 1975 1401 Z M 1974.3 1332.9 1972.1 1248.8 2118.3 1247.1 2116.9 1326.8 2021.7 1326.8 2015.8 1332.6 1974.3 1332.9 Z M 2116.9 1231.7 2116.9 1236.2 1970.8 1235.6 1970.8 1186.3 2112.1 1186 2112 1194.5 2111.7 1231.4 2116.9 1231.7 Z M 2008 1176.4 2008.9 1142.7 2111.5 1142.4 2111.9 1176.7 2008 1176.4 Z" data-holc_grade="C"/>
<path d="M 2132.9 1449.8 2132.3 1512.5 2081.1 1513.2 2080.4 1561.8 2063.9 1562.5 2064.6 1614.5 2086.9 1614.8 2087.6 1642.4 2136.2 1642.6 2135.8 1615.4 2165.6 1615.8 2167.2 1684.4 2006.6 1684 2006.3 1571.5 2020.8 1541.8 2027.3 1535 2028.6 1469.1 2077.9 1469.4 2078.8 1443.7 2132.9 1444.4 2132.9 1449.8 Z" data-holc_grade="C"/>
<path d="M 1977.2 1891.3 1977.2 1747.3 1991.8 1746.8 1991.8 1694.6 2167.4 1695.9 2167.7 1732.3 2066.6 1731.4 2067.3 1784.5 1998.9 1783.8 2000.2 1912.8 1977.6 1906.5 1977.2 1891.3 Z" data-holc_grade="C"/>
<path d="M 2540.9 1095 2496.2 1095.1 2419.4 1092 2367.4 1093.1 2301.8 1093.8 2301.8 1143.4 2423.8 1144.1 2422.3 1184.7 2303.6 1185.7 2259 1186 2257.8 1165 2228.7 1164.5 2227.1 1177.5 2194.7 1177.2 2184.8 1179.9 2143 1179.9 2143 1142.1 2180.9 1141.7 2180.4 1095.1 2120.1 1095.8 2119.2 1065.2 2079.8 1064.5 2080.3 1050.5 2256.7 1049.8 2441.3 1052.9 2538 1053.6 2540.9 1095 Z" data-holc_grade="C"/>
<path d="M 2259.9 1330.4 2290.2 1329.9 2292.2 1435.4 2136.4 1434.3 2138 1336.1 2134.4 1328.4 2133.5 1296.9 2146.9 1298.9 2143.3 1303.2 2146.1 1327.6 2155.8 1331.8 2259.9 1330.4 Z" data-holc_grade="C"/>
<path d="M 2478.5 1284.4 2478.1 1331 2537.2 1331.8 2544.9 1336.4 2569.6 1336.9 2569.6 1342.4 2569.6 1405.6 2571.6 1437.1 2462.7 1437.4 2345.3 1435.1 2292.2 1435.4 2290.2 1329.9 2330.3 1329.6 2330.3 1310 2414.1 1309.4 2414.9 1283.9 2410.9 1281.3 2409.7 1234 2421.8 1234 2421.4 1222.6 2410.9 1222.3 2409.3 1204.7 2421.4 1204.7 2421.8 1197.4 2479.3 1198.8 2478.5 1284.4 Z" data-holc_grade="C"/>
<path d="M 2571.6 1544.2 2542.7 1543.6 2541.9 1563.5 2571.4 1563.8 2570.4 1632.1 2427.4 1582.1 2301.8 1528.5 2294 1519.9 2157.3 1452.7 2150.8 1442.7 2444.3 1446.8 2444.9 1488.5 2573.2 1489.9 2572.1 1511.2 2571.6 1544.2 Z" data-holc_grade="C"/>
<path d="M 2569.4 1647.1 2568.9 1683.2 2442.4 1681.5 2435.1 1679.8 2433.1 1675.6 2463.4 1676.1 2461.4 1652.3 2433.5 1652.6 2433 1597.5 2439.8 1600.3 2569.4 1647.1 Z M 2568.8 1693.2 2568.2 1734 2167.7 1732.3 2167.4 1695.9 2167.2 1684.4 2165.6 1615.8 2186.2 1616.2 2187.5 1652.7 2289.3 1654.2 2288.5 1589.5 2261.3 1588.9 2261.9 1539.4 2208.2 1538.3 2207.7 1519.9 2190.3 1519.6 2190.3 1508.8 2166.2 1508.5 2166 1512.8 2132.3 1512.5 2132.9 1449.8 2147.1 1459.8 2317.2 1550 2418.6 1591.6 2421.3 1692.6 2568.8 1693.2 Z" data-holc_grade="C"/>
<path d="M 358.3 282.1 418.7 234.2 451.4 244.2 481.7 249.5 701.9 326.7 787.7 355.9 717 355.2 683.8 355.7 667.7 359 635.9 401.8 621.3 407.6 525.2 373 486.9 426.1 462.8 401.8 451.1 381.9 476.5 348.8 437.4 324 409.9 315.7 389.2 306.4 372.3 287.7 358.3 282.1 Z M 1073.8 259.1 1027.4 259.7 1024.3 278 959.4 277.7 958 297.5 848.8 297 848.1 283 738.8 282 739.4 307.7 739.4 328.7 538 256.3 555.8 233.4 549.1 230.4 548.7 205.8 617 205.4 621.5 187.2 625.6 162.3 640 162.6 638.2 181.5 679.7 181.1 679.8 190.7 672.1 214.8 671.6 252.8 812.9 251.2 814.9 237.9 960.5 237.1 959.2 252 1073 251 1073.8 259.1 Z" data-holc_grade="C"/>
<path d="M 2540.9 1095 2709.5 1094.8 2709.5 1136.6 2500.1 1136 2500.1 1149.2 2708.5 1149.6 2708.3 1170.2 2708 1196.5 2569.5 1194.8 2570.5 1249 2538.4 1248.6 2538.9 1285.1 2478.5 1284.4 2479.3 1198.8 2421.8 1197.4 2422.3 1184.7 2423.8 1144.1 2430.6 1141.4 2430.6 1134.6 2408.7 1120.3 2405.3 1112.8 2387.4 1104.6 2376.7 1100.2 2367.4 1093.1 2419.4 1092 2496.2 1095.1 2540.9 1095 Z" data-holc_grade="C"/>
<path d="M 2571.6 1437.1 2569.6 1405.6 2569.6 1342.4 2626.6 1343 2762.6 1344.6 2761.4 1360.5 2760.1 1364.2 2761.4 1390.3 2757.1 1397.3 2751 1397.5 2749.7 1401.4 2746.1 1412.3 2739 1415.9 2739.6 1443.8 2683.3 1444.1 2682.6 1481.1 2571.6 1480.2 2571.6 1437.1 Z" data-holc_grade="C"/>
<path d="M 2569.4 1647.1 2704.9 1686.6 2568.9 1683.2 2569.4 1647.1 Z M 2663.7 1834.9 2567.2 1833.1 2570.1 1737 2568.2 1734 2568.8 1693.2 2708.1 1696.8 2708.9 1720.1 2741.3 1720.7 2742.1 1668.5 2710.5 1667.3 2709.7 1675.8 2570.4 1632.1 2571.4 1563.8 2571.6 1544.2 2572.1 1511.2 2854.7 1516.9 2855.5 1838.2 2663.7 1834.9 Z M 2693.7 1612.6 2710.3 1613.1 2709.1 1591.3 2693.3 1591.3 2693.7 1612.6 Z" data-holc_grade="C"/>
<path d="M 812 914.8 879.6 914.8 882.4 916.8 884.1 958.8 937.1 958.8 939.5 989.7 1020.5 988.5 1023.7 1090.9 996.6 1087.4 974.6 1086.1 972.7 1056.9 957.8 1056.5 943.2 1056.3 940.3 1019.7 912.8 1019.5 911.6 1000.7 883.2 1000.2 883.6 977.5 856.5 977.8 855.7 959.9 829 959.3 828.2 925.3 770.3 925.9 720.9 916.2 709.2 912.3 690.9 913.7 680.4 904 666 892.2 723.7 883.9 766.2 883.9 776 889.3 790.5 905.4 791.7 914.8 812 914.8 Z" data-holc_grade="C"/>
<path d="M 974.6 1086.1 996.6 1087.4 997 1120.3 1041.1 1131.6 1016.8 1178.1 1066.2 1191.2 1062.6 1198.8 1080.4 1204.2 1071.9 1220.7 1097.8 1229.2 1139.9 1148.4 1177.6 1158.6 1145.9 1231 1134.2 1257.6 1167.8 1267.2 1158.5 1287.1 1156.9 1293.6 1156.9 1337.6 1141.1 1337.1 1126.6 1336.7 1125.9 1312.3 1125.3 1287.9 1088.9 1287.4 1069.1 1261.8 1067 1258.7 1068.3 1251.9 1039.9 1244.5 1019.7 1287.6 1019.7 1298.4 981.7 1307.6 989.1 1291.2 1016.7 1234 989.8 1227 1011.5 1186.4 995.9 1174.6 980.1 1160.1 968.7 1153.5 958 1153.5 944.8 1157.1 944.4 1137.6 961.4 1136.7 964.2 1133.3 961.4 1085.4 974.6 1086.1 Z" data-holc_grade="C"/>
<path d="M 969.8 1450.3 970.6 1442.9 971.8 1408.2 957.6 1407.3 958.4 1356.8 1000.1 1359.4 1000.1 1377 1023.2 1379.2 1023.6 1388.3 1069.4 1390.9 1065.3 1485.1 974.6 1481.7 969.8 1450.3 Z" data-holc_grade="C"/>
<path d="M 1249.1 1549.2 1230.1 1565.7 1214.7 1584.8 1202.5 1601.8 1202.1 1611.4 1202.9 1623.2 1196 1616.8 1184.3 1614 1183.5 1610 1177.4 1604.6 1171.8 1597.5 1175 1587.9 1178.6 1582.2 1195.2 1579.9 1192.4 1577.7 1181.9 1573.1 1176.6 1566.3 1178.6 1556.7 1175.4 1554.1 1163.7 1558.4 1146.2 1553.3 1127.6 1553.3 1125.6 1512.1 1110.6 1512.1 1109.8 1478.9 1169.7 1479.2 1173.4 1472.4 1188.4 1467.5 1206.2 1464.7 1220.6 1464.5 1240.6 1496.3 1238.3 1506.5 1231.2 1518.3 1219.5 1528.5 1219.2 1549.2 1249.1 1549.2 Z" data-holc_grade="C"/>
<path d="M 1262.9 544 1175.5 544.7 1175.5 500.7 1218.9 499.9 1264.6 499.1 1262.9 544 Z M 1154.1 501.2 1153.1 544.2 1025.9 543.6 1025.1 551.2 949.5 550.6 940.4 546.3 935.5 540.4 935.8 535.6 941.6 531.8 944.6 525.6 952 519.8 953.3 515.9 949.7 513.2 938.1 517 931.9 518.8 927.4 514.5 927.1 500.9 975.3 501.7 986.7 501.8 986.7 359.9 1056 359.7 1057.3 415.5 1036.2 415.5 1036.5 427.9 1155.1 429.1 1155.1 452.4 1093.6 452.9 1094.2 501.2 1154.1 501.2 Z" data-holc_grade="C"/>
<path d="M 1264 426.3 1263.6 404.6 1343.9 403.7 1351 355.8 1354 330.4 1303.4 330.2 1302.8 294.8 1268.1 294.8 1267.5 321.8 1172.6 321.6 1172.9 283.5 1174.9 256.3 1201.4 263.1 1234.4 255.6 1310.6 267.2 1435.3 296.7 1436.9 339.5 1435.6 451.3 1342.9 452.2 1342.3 425.9 1264 426.3 Z" data-holc_grade="C"/>
<path d="M 1026 600.8 1025 555.8 1152.7 557.5 1151.8 643.2 1026.9 642.9 1026 600.8 Z M 1436.5 636.1 1355.3 637.1 1355.3 633 1207.6 630.9 1202.8 756.1 1171.2 757.2 1171.5 740.5 1172.7 665.3 1174.6 555.8 1436.9 554.4 1436.5 636.1 Z" data-holc_grade="C"/>
<path d="M 1696.1 443.8 1696.3 473.4 1695.9 473.4 1454.3 474 1454.3 380.5 1457.5 335.1 1513.4 348.7 1511.7 371.4 1606.1 371.7 1607.3 383.9 1683.8 383.6 1697.6 390.7 1697.6 396 1796.8 402.6 1794.9 443.5 1696.1 443.5 1696.1 443.8 Z" data-holc_grade="C"/>
<path d="M 1661.4 513.3 1661.8 513.3 1662.4 550 1455 550.1 1454.3 474 1695.9 473.4 1696 486.8 1561.1 487.7 1561.1 488 1560.7 488 1561 513.6 1661.4 513.6 1661.4 513.3 Z M 1808.6 550.3 1693.5 550.3 1695.1 525.8 1809 525.4 1808.6 550.3 Z" data-holc_grade="C"/>
<path d="M 1935 550.2 1934.2 632.9 1866.5 633.6 1865.7 666.8 1674.9 666.8 1674.9 697.7 1653.4 697.1 1651.8 669 1611.7 669.6 1612.5 695.4 1598.4 695.7 1598.4 749.8 1535.2 749.8 1488.2 750.3 1453.8 750.7 1453.6 732.3 1548.8 732 1552.7 648.6 1822.4 648 1820.6 606.9 1820.4 602 1807.8 602.4 1807.9 593.5 1808.6 550.3 1809 525.4 1809.7 474.8 1867.1 475.2 1866.6 533.7 1935.6 534 1935 550.2 Z" data-holc_grade="C"/>
<path d="M 2067.3 1784.5 2066.6 1731.4 2167.7 1732.3 2568.2 1734 2570.1 1737 2567.2 1833.1 2663.7 1834.9 2662.8 1918.5 2654.7 1931.2 2407.5 1929.9 2070.7 1930.8 2067.3 1784.5 Z M 2579.2 798.3 2580.8 849.7 2716 849.1 2716.6 863.6 2715.5 898.7 2648 899.3 2647.6 941 2576 940.1 2576.4 897 2515.2 897 2515.6 873.5 2540.3 873.2 2540.3 838.3 2507.5 838 2503.1 840.3 2484.9 840 2485.7 796.9 2560.7 798.1 2579.2 798.3 Z M 2536.5 649.3 2403.4 649.5 2404.6 690.6 2291.7 690 2290 745.9 2222.2 746.2 2223.1 698.5 2076.3 699.6 2078.3 650 2007.8 650 2007.5 658.4 1969 658.1 1967.6 649.6 1934 649.6 1934.2 632.9 1935 550.2 2360.6 550.6 2311.5 603 2431.1 603.3 2433 598.9 2540.9 596.8 2536.5 649.3 Z" data-holc_grade="C"/>
</g>
<g id="D">
<path d="M 1435.5 747.6 1281.5 749.7 1266.9 755.8 1249.4 756.8 1202.8 756.1 1207.6 630.9 1355.3 633 1355.3 637.1 1436.5 636.1 1435.5 747.6 Z" data-holc_grade="D"/>
<path d="M 1435.5 747.6 1433.5 855.5 1428.7 1016.5 1371.8 1016.5 1371.4 972.9 1307.2 932.8 1265.9 907.9 1267.4 875.9 1244.6 859.2 1246.5 811.9 1244.6 793.6 1248.4 776.9 1249.4 756.8 1266.9 755.8 1281.5 749.7 1435.5 747.6 Z" data-holc_grade="D"/>
<path d="M 1453.6 732.3 1455.6 604.8 1820.6 606.9 1822.4 648 1552.7 648.6 1548.8 732 1453.6 732.3 Z M 1808.6 550.3 1807.9 593.5 1455.6 591.8 1454.6 550.3 1693.5 550.3 1808.6 550.3 Z" data-holc_grade="D"/>
<path d="M 1655.8 1175.3 1655.3 1188.9 1624.3 1188.2 1624.7 1198.1 1654.9 1198.1 1655.3 1232.1 1552.8 1230.4 1552.3 1174.6 1655.8 1175.3 Z M 1656.3 1145.7 1656.8 1167.1 1552.3 1166.8 1552.3 1145 1656.3 1145.7 Z M 1807.6 1001.6 1807.9 1176.3 1807.9 1186.6 1808 1234.8 1667.1 1232 1667.1 1188.3 1747.3 1188.8 1747.7 1144.9 1669.6 1145.2 1668.8 1139.2 1553 1138.4 1553 1099.5 1675.2 1053.3 1807.6 1001.6 Z M 1807.7 983.8 1807.7 990.4 1731.6 1020 1550.7 1091.2 1465.7 1090.2 1466.8 1047.8 1527.4 1021.4 1554.1 1021.3 1554.4 1062.3 1569.6 1062.8 1570.2 1067.4 1591.1 1068.1 1590.1 1022.7 1630.5 1022.4 1630.8 995.7 1775.4 995.3 1807.7 983.8 Z" data-holc_grade="D"/>
<path d="M 1972.1 1248.8 1974.3 1332.9 1974.5 1342.4 1975 1401 1975 1436.4 1921.6 1436.4 1921.1 1421.1 1896.8 1421.4 1857 1434.7 1855.5 1450 1637.4 1402.7 1582 1376.5 1578.1 1344.1 1881.7 1345.5 1881.6 1336 1880.3 1247.1 1972.1 1248.8 Z" data-holc_grade="D"/>
<path d="M 1023.7 1090.9 1020.5 988.5 939.5 989.7 937.1 958.8 884.1 958.8 882.4 916.8 879.6 914.8 812 914.8 812 895.5 910.4 895 910.4 867.4 953.7 853 978.4 847 1019.7 874.5 1021.3 922.2 1046.8 922.2 1052.9 1092.6 1023.7 1090.9 Z" data-holc_grade="D"/>
<path d="M 1139.9 1148.4 1097.8 1229.2 1071.9 1220.7 1080.4 1204.2 1062.6 1198.8 1066.2 1191.2 1016.8 1178.1 1041.1 1131.6 1056 1107.7 1121.7 1125.2 1113 1140.8 1139.9 1148.4 Z" data-holc_grade="D"/>
<path d="M 1249.1 1549.2 1219.2 1549.2 1219.5 1528.5 1231.2 1518.3 1238.3 1506.5 1240.6 1496.3 1220.6 1464.5 1167.4 1379.8 1169.7 1338.3 1156.9 1337.6 1156.9 1293.6 1158.5 1287.1 1167.8 1267.2 1134.2 1257.6 1145.9 1231 1168.7 1236.4 1204 1164.4 1228.9 1170.3 1221.2 1189 1273 1202.6 1232.5 1284.5 1231.2 1343.3 1252.9 1343.7 1284.6 1408 1285.3 1522.6 1275.2 1549.2 1249.1 1549.2 Z" data-holc_grade="D"/>
<path d="M 1202.9 1623.2 1265.4 1624.4 1282.2 1647.5 1283.5 1773.4 1237.5 1774.3 1237.5 1739.3 1234.3 1737 1205.1 1736.6 1185 1641.2 1172.1 1637.1 1170.1 1622.6 1202.9 1623.2 Z" data-holc_grade="D"/>
</g>
</svg>