<?xml version="1.0"?>
<svg xmlns="http://www.w3.org/2000/svg" version="1.2" baseProfile="tiny" width="3000" height="3491" viewBox="0 0 3000 3491" stroke-linecap="round" stroke-linejoin="round">
<g id="A">
<path d="M 1263.9 707.4 1263.9 711.1 1218.3 712.3 1218.9 651.7 1264 651.7 1263.9 707.4 Z" data-holc_grade="A"/>
<path d="M 894.1 1804.7 987.9 1838.9 980.5 1862.3 977.9 1870.6 971.1 1879.7 962 1885.5 951.6 1888.7 935.7 1886.8 924.7 1881.3 917.9 1881.9 917.5 1886.1 922.4 1892.9 944.1 1912.3 940.2 1922 933.4 1925.2 926.3 1921.7 921.1 1909 914 1895.8 909.4 1893.2 904.2 1893.2 902.9 1900 906.2 1909.4 900.7 1915.5 902.3 1936.8 890.9 1963 872.7 1976.6 856.5 1981.4 852.6 1977.2 856.2 1959.1 862.4 1952 857.5 1948.8 850.4 1953.9 834.8 1963.6 816.6 1975.9 813.1 1982 797.5 1981.1 784.2 1981.1 777.1 1984.6 756.6 1973 753.7 1965.2 753.7 1958.7 745 1943.9 747.9 1937.1 764.8 1931.9 772.9 1926.4 784.2 1926.4 791.7 1927.7 798.2 1934.5 818 1920 842.9 1895.8 846.5 1889.3 843.9 1886.1 808.6 1883.8 803.1 1883.8 795.6 1866.3 793.7 1857.6 796.6 1845.9 810.6 1834 817 1835.9 823.8 1844.7 829.4 1844.7 826.1 1835.3 833.3 1825 840.7 1819.2 845.3 1808.2 855 1801.1 861.5 1803 867 1811.4 867.3 1815.3 878.7 1805 887.8 1802.4 894.1 1804.7 Z" data-holc_grade="A"/>
<path d="M 969.3 2054.9 968.5 2065.4 959.9 2083.2 950.2 2088.5 949.4 2096.1 950.6 2101.8 960.7 2106.6 960.7 2122.8 965.2 2126.4 972.9 2130.1 973.7 2134.1 968.8 2149.5 968.4 2155.1 981 2167.3 979.4 2182.2 962.7 2181.8 961.9 2170.1 954.6 2166 950.6 2166.4 948.1 2171.7 947.7 2178.2 946.9 2184.6 918.1 2184.2 913.7 2171.7 903.9 2162 879.2 2161.6 869.5 2154.3 862.6 2132.9 860.2 2124.8 852.1 2115.5 815.6 2116.3 809.5 2103.7 820.9 2100.1 827.4 2095.7 840.7 2086 840.3 2081.5 812 2081.9 795.7 2077.5 778.3 2054 775.5 2044.3 828.2 2044.3 827.8 1996.7 846.1 2008 858.6 2013.6 861 2023.3 859.8 2034.3 872.8 2034.3 880.9 2035.9 885 2041.9 886.6 2048.8 891.8 2046.8 892.7 2033.1 894.3 2026.6 904.4 2022.6 920.6 2026.2 927.1 2031.5 930.8 2029.9 929.6 2015.3 934 2005.2 947.4 2009.3 952.3 2029.5 957.5 2034.3 956.3 2043.6 948.6 2052.5 947.4 2062.2 947.8 2065.4 964 2054.1 969.3 2054.9 Z" data-holc_grade="A"/>
<path d="M 1022.7 2411.1 1022 2287.4 1141.2 2287.4 1137.1 2304 1137.5 2317.3 1146.1 2332.7 1147.3 2352.9 1145.2 2367.9 1141.6 2379.2 1133.1 2388.5 1124.1 2390.5 1067.4 2385.6 1022.7 2411.1 Z" data-holc_grade="A"/>
<path d="M 1921.5 2406.2 1921.6 2488.3 1926.8 2497.6 1927.7 2683.5 1810.9 2636.3 1810.9 2610.8 1799.1 2606.4 1797.5 2544.1 1795.8 2530.4 1787.7 2514.6 1778.4 2501.7 1787 2496.5 1801 2490.3 1807.7 2482.8 1809 2472.7 1808 2454.3 1816.3 2432.9 1817.1 2423.8 1816.6 2415.8 1839.4 2402.8 1859.4 2405.2 1868.5 2411.4 1875 2412.4 1885.3 2408 1906.1 2405.4 1921.5 2406.2 Z" data-holc_grade="A"/>
<path d="M 1372.1 2900.5 1375 2996.2 1461.5 2994.2 1465.4 3000.7 1466.7 3020.1 1453.1 3006.5 1452.4 3022 1433 3022 1434.9 3150.1 1447.9 3157.9 1467.4 3178 1468.7 3219.9 1299.2 3219.9 1294.7 2998 1294.2 2937.3 1262.6 2901.3 1372.1 2900.5 Z" data-holc_grade="A"/>
<path d="M 1583.7 3240.9 1565.5 3238.5 1541.6 3235.4 1508.1 3241.7 1507.4 3219.9 1468.7 3219.9 1467.4 3178 1447.9 3157.9 1434.9 3150.1 1433 3022 1452.4 3022 1453.1 3006.5 1466.7 3020.1 1465.4 3000.7 1461.5 2994.2 1460.9 2981.9 1526.4 2982.5 1537.5 3004.5 1560.2 3051.8 1579.7 3082.2 1594.6 3098.4 1618 3108.7 1640.7 3119.7 1645.3 3134.6 1642 3154 1631 3178.6 1617.4 3201.3 1605.7 3218.7 1601.1 3233 1598.5 3243.3 1583.7 3240.9 Z" data-holc_grade="A"/>
<path d="M 1583.7 3240.9 1533.1 3466.9 1525.3 3489.4 1275.1 3490.2 1267.4 3219.9 1299.2 3219.9 1468.7 3219.9 1507.4 3219.9 1508.1 3241.7 1541.6 3235.4 1565.5 3238.5 1583.7 3240.9 Z" data-holc_grade="A"/>
<path d="M 2094.6 1193.6 2062.6 1198.9 2031.9 1183.4 2026.6 1171.3 2020.7 1163.6 2015.4 1163.6 2009.6 1171.3 2003.2 1173.8 1990.1 1165.5 1971.6 1154.9 1974.5 1148.6 1981.3 1141.3 1980.9 1135 1968.7 1138.9 1955.1 1137.5 1942 1132.1 1938.1 1125.8 1931.7 1110.3 1896.3 1105 1886.1 1110.3 1863.7 1109.4 1863.5 1064.8 1805.2 1064.4 1802 1056.4 1789.8 1049.5 1775.6 1051.9 1749.7 1033.8 1729 1007.9 1698.3 1001.5 1699.5 974 1724.6 973.2 1793 1004.3 1793.4 996.6 1821 995.8 1821 972.4 1865.1 971.2 1865.1 955.8 1935.1 957.2 1934.1 1021.7 1961.4 1023.6 1971.6 1056.1 1969.2 1112.7 2034.3 1116.6 2036.8 1152 2043.6 1169.9 2067.9 1171.3 2085.4 1177.1 2100.5 1177.1 2094.6 1193.6 Z" data-holc_grade="A"/>
<path d="M 1861.3 1202.4 1860.3 1268.3 1860.3 1282.4 1781.1 1283.8 1769.9 1276.1 1761.7 1276.6 1762.7 1169 1815.8 1169 1820.2 1155.7 1832.4 1155.3 1834.4 1095.5 1804.4 1094.3 1805.2 1064.4 1863.5 1064.8 1863.7 1109.4 1861.3 1202.4 Z" data-holc_grade="A"/>
<path d="M 2218.3 1271 2258.4 1271 2258.7 1209.6 2324 1208.3 2291 1224.8 2292.4 1276.7 2336.3 1277.5 2336.7 1324.2 2218.5 1322.7 2218.3 1271 Z" data-holc_grade="A"/>
<path d="M 894.7 1467.3 909.4 1502.4 911.8 1506.6 915.1 1512.5 939 1542.9 910.9 1539.2 885.5 1533.9 854.2 1536.9 838.5 1538.3 823.1 1537.5 868.9 1512.9 877.8 1504.4 871.3 1496.4 858.4 1492.3 845 1485.8 827.2 1477.3 811.8 1479 809.8 1449.5 811.4 1434.5 802.9 1434.1 793.6 1431.3 783.9 1422 785.1 1436.9 781 1441.4 771.3 1439.7 760.8 1440.1 757.1 1461.5 751.8 1470.8 762.4 1478.1 759.9 1484.2 751 1488.2 746.5 1486.2 735.2 1482.5 723 1489 711.9 1498.3 711.3 1446.6 761.2 1367.9 774.6 1367.9 774.6 1356.6 788.4 1356.2 858.4 1417.6 868.1 1421.2 869.8 1439.4 891.6 1460 894.7 1467.3 Z" data-holc_grade="A"/>
<path d="M 868.9 1512.9 861.6 1510.1 823.1 1506.4 790.3 1511.7 779.3 1522.1 760.7 1521.7 744.5 1533.8 729.9 1537.5 712.5 1548.8 711.9 1498.3 723 1489 735.2 1482.5 746.5 1486.2 751 1488.2 759.9 1484.2 762.4 1478.1 751.8 1470.8 757.1 1461.5 760.8 1440.1 771.3 1439.7 781 1441.4 785.1 1436.9 783.9 1422 793.6 1431.3 802.9 1434.1 811.4 1434.5 809.8 1449.5 811.8 1479 827.2 1477.3 845 1485.8 858.4 1492.3 871.3 1496.4 877.8 1504.4 868.9 1512.9 Z" data-holc_grade="A"/>
<path d="M 823.1 1537.5 838.5 1538.3 854.2 1536.9 856.3 1591.7 838.5 1591.7 838.1 1606.6 818.6 1608.6 777.7 1633.2 777.6 1650.2 714 1649.3 713.2 1618.2 598.5 1617.3 599.4 1589.5 612.3 1601.6 632.2 1596.4 654.5 1579.8 682.9 1578.2 720.2 1559.3 743.7 1560.1 768.4 1557.3 808.9 1540.3 823.1 1537.5 Z" data-holc_grade="A"/>
<path d="M 584.3 1703.1 607.2 1704.1 617.8 1709.1 631 1708.8 645.8 1702.4 649.3 1864.5 589.9 1839.1 580.6 1826.4 567.4 1819.2 564.3 1808 582.7 1792.5 591 1778.3 587.6 1771.1 578 1770.6 570 1770.8 564.3 1762.3 567.9 1752.2 584.8 1735.1 584.3 1703.1 Z" data-holc_grade="A"/>
<path d="M 621.9 1930.5 625.5 1927.4 632.5 1928.7 635.4 1934.9 640.5 1937.2 662.9 1939.6 676.1 1951.5 687.5 1950.2 697.9 1948.7 704.9 1950.7 706.7 1958 702.8 1968.8 694.5 1969.9 681.5 1975 668.3 1974.8 647.3 1976.6 643.9 1966.2 637.9 1963.9 612 1964.4 605 1959.2 601.4 1947.8 607.6 1942.6 621.3 1934.9 621.9 1930.5 Z" data-holc_grade="A"/>
</g>
<g id="B">
<path d="M 738.9 438.4 738.3 401.8 847.5 403.2 848.3 423.1 957.5 424 958.9 395.7 1023.8 396.1 1026.9 370.2 1073.3 369.4 1155.7 367.9 1153.6 407.8 1152.4 493.4 1105.4 494.7 955.2 495.3 805.1 496.5 776 488.8 808.4 483 807.5 439.2 738.9 438.4 Z" data-holc_grade="B"/>
<path d="M 1865.2 949.8 1865.1 955.8 1865.1 971.2 1821 972.4 1821 995.8 1793.4 996.6 1793 1004.3 1724.6 973.2 1699.5 974 1698.3 1001.5 1729 1007.9 1749.7 1033.8 1775.6 1051.9 1789.8 1049.5 1802 1056.4 1805.2 1064.4 1804.4 1094.3 1834.4 1095.5 1832.4 1155.3 1820.2 1155.7 1815.8 1169 1762.7 1169 1763.1 1068.9 1597.8 1068.1 1597.8 991 1612 990.6 1611.2 953.9 1651.3 953.1 1652.9 993 1674.4 993.8 1674.4 949.8 1865.2 949.8 Z" data-holc_grade="B"/>
<path d="M 1762.7 1169 1761.7 1276.6 1761.2 1315.3 1594.6 1314.4 1594.2 1293 1539.5 1292.6 1539.1 1217.1 1497 1216.7 1499.8 1108.5 1535 1108.5 1534.6 1068.1 1597.8 1068.1 1763.1 1068.9 1762.7 1169 Z" data-holc_grade="B"/>
<path d="M 1592.6 1393.2 1593.4 1331.4 1697.5 1331.8 1858 1329.3 1838.5 1345.1 1797.6 1345.9 1795.6 1391.5 1592.6 1393.2 Z" data-holc_grade="B"/>
<path d="M 1697.3 1786.9 1767.3 1788.3 1769.7 1791.7 1795.5 1792.2 1797.9 1789.3 1850 1788.8 1851.5 1892 1697.8 1891.1 1697.3 1786.9 Z" data-holc_grade="B"/>
<path d="M 1690.2 2325.6 1691 2363.2 1702 2364.4 1709.3 2451.7 1720.7 2585.9 1721.1 2614.6 1700.8 2616.3 1700.8 2626 1645.6 2627.6 1645.2 2613 1657 2612.6 1652.1 2580.7 1627 2584.3 1627.4 2592.8 1560.9 2594.4 1474.1 2589.6 1523.5 2577.5 1546.3 2558.1 1555.6 2558.5 1555.6 2547.5 1566.9 2520.9 1571.8 2516.4 1575.1 2516.4 1633.5 2515.6 1624.1 2407.3 1639.1 2406.9 1637.1 2361.6 1665.1 2362.4 1665.1 2324.8 1690.2 2325.6 Z" data-holc_grade="B"/>
<path d="M 1699.8 3009 1642 3046.6 1578.4 2933.6 1659.6 2920.7 1674.5 2942 1695 2980.5 1699.8 3009 Z M 1561.9 2809.4 1648.5 2806.8 1652.1 2875.4 1569.6 2880.6 1561.9 2809.4 Z" data-holc_grade="B"/>
<path d="M 1992.1 2413.3 1992.1 2487.6 1977.5 2488.3 1977.6 2693.3 1929.2 2692.7 1927.7 2683.5 1926.8 2497.6 1921.6 2488.3 1921.5 2406.2 1959.3 2406.5 1959.3 2376.7 1992.1 2376.7 1992.1 2413.3 Z" data-holc_grade="B"/>
<path d="M 2094.6 1193.6 2113.1 1194.5 2126.7 1191.1 2134 1198.4 2150.1 1202.8 2175.8 1196 1966.8 1315.8 1761.2 1315.3 1761.7 1276.6 1769.9 1276.1 1781.1 1283.8 1860.3 1282.4 1860.3 1268.3 1926.9 1268.3 1924.5 1201.4 1861.3 1202.4 1863.7 1109.4 1886.1 1110.3 1896.3 1105 1931.7 1110.3 1938.1 1125.8 1942 1132.1 1955.1 1137.5 1968.7 1138.9 1980.9 1135 1981.3 1141.3 1974.5 1148.6 1971.6 1154.9 1990.1 1165.5 2003.2 1173.8 2009.6 1171.3 2015.4 1163.6 2020.7 1163.6 2026.6 1171.3 2031.9 1183.4 2062.6 1198.9 2094.6 1193.6 Z" data-holc_grade="B"/>
<path d="M 2007.1 937.8 2003.1 1065.2 2024.1 1065.2 2024.5 1091.4 2095.4 1089.8 2095.8 1114.4 2219 1113.9 2219.4 1171.3 2175.8 1196 2150.1 1202.8 2134 1198.4 2126.7 1191.1 2113.1 1194.5 2094.6 1193.6 2100.5 1177.1 2085.4 1177.1 2067.9 1171.3 2043.6 1169.9 2036.8 1152 2034.3 1116.6 1969.2 1112.7 1971.6 1056.1 1961.4 1023.6 1934.1 1021.7 1935.1 957.2 1865.1 955.8 1865.2 949.8 1866.1 902.5 1933.8 901.5 1933.6 925.3 1967.2 925.3 1968.6 937.4 2007.1 937.8 Z" data-holc_grade="B"/>
<path d="M 1965.7 1626.1 1966.5 1613.3 1933.8 1613.6 1933.5 1625.6 1850.9 1624.2 1849.5 1393.5 1945.6 1346.1 2044.6 1379.9 2046 1471.6 2079.7 1471.6 2080.2 1496.1 2079.8 1516 2119.1 1517 2120.1 1560.6 2080.4 1560.2 2079.7 1616.4 2009.1 1617.1 2008.9 1627.4 2007.9 1675.5 2007.8 1681.7 1971.3 1682.2 1970.2 1677.8 1968.2 1626.1 1965.7 1626.1 Z M 1965.7 1607.9 1964.7 1563.5 1930.7 1568.9 1912.8 1572.8 1904 1575.4 1894.9 1572.3 1880.1 1576.4 1877.3 1580 1877 1586 1867.7 1599.9 1868.4 1607.4 1891 1608.2 1965.7 1607.9 Z" data-holc_grade="B"/>
<path d="M 974.7 714.6 926.4 713.6 922.8 691 914.5 638 908.6 619.9 893.4 595.4 881.4 581.5 865.3 565.7 814.4 547.6 813.8 511.1 971.8 512.1 974.7 714.6 Z" data-holc_grade="B"/>
<path d="M 2218.3 1271 2218.5 1322.7 2336.7 1324.2 2335.5 1350.4 2296.4 1349.5 2255.2 1348.6 2254.6 1420.9 2215 1420.3 2215.3 1348.9 2183.8 1348.3 2184.2 1419 2161.8 1418.7 2161.2 1464.9 2145.7 1464.9 2145 1398.1 2078.9 1396.8 2078.2 1374.5 2046.1 1372.3 2045.4 1348.7 1945.6 1346.1 2121.6 1244.9 2219 1189 2218.3 1271 Z" data-holc_grade="B"/>
<path d="M 2434.4 1070.6 2434 1152.1 2284.6 1151.9 2434.4 1070.6 Z M 2570.5 975.2 2479.8 1025.7 2397.6 1072.2 2219.4 1171.3 2219 1113.9 2095.8 1114.4 2095.4 1089.8 2024.5 1091.4 2024.1 1065.2 2003.1 1065.2 2007.1 937.8 2007.4 925.9 2077.9 925.9 2076 996.4 2075.1 1025.6 2084.5 1026.8 2083.7 1064 2221.9 1062.8 2289.8 1062.2 2291.4 982.7 2404.4 983.4 2403.1 924.9 2536.3 924.4 2569.6 924.3 2570.5 975.2 Z" data-holc_grade="B"/>
<path d="M 2117 1754.1 2111.8 1753.7 2112.1 1701.2 2195.2 1700.7 2194.8 1676.5 2227.2 1676.9 2228.8 1658.3 2258 1659.1 2259.3 1689 2303.8 1688.5 2303.9 1716.8 2290.9 1717.2 2290.9 1756 2260.9 1757.2 2261.8 1809.3 2312 1810.5 2312.9 1837.6 2262.2 1838.4 2262.2 1848.9 2313.3 1849.3 2313.3 1878.4 2259.8 1879.2 2260.2 1894.6 2156 1896.7 2146.3 1890.6 2143.5 1855.9 2147.1 1849.8 2133.7 1847 2129.2 1786.4 2128 1757.7 2122.3 1754.5 2117 1754.1 Z" data-holc_grade="B"/>
<path d="M 2434 1152.1 2433.8 1190.1 2411.9 1190.9 2342.6 1206.7 2338.1 1203.9 2324 1208.3 2258.7 1209.6 2258.4 1271 2218.3 1271 2219 1189 2284.6 1151.9 2434 1152.1 Z" data-holc_grade="B"/>
<path d="M 2574.7 1031.1 2576.7 1067 2576.7 1072.3 2560.2 1071.8 2560.7 1136.3 2485.6 1134.7 2484.9 1196.1 2433.7 1195.3 2433.8 1190.1 2434 1152.1 2434.4 1070.6 2571.7 993.8 2574.7 1031.1 Z" data-holc_grade="B"/>
<path d="M 2872.1 961.6 2874.6 991.3 2874.2 1068.4 2821.2 1065.5 2801.8 1031.6 2778.4 1011.8 2733.6 970.7 2732.6 928.2 2853.6 925.5 2855.6 961.8 2872.1 961.6 Z" data-holc_grade="B"/>
<path d="M 664.9 1270.5 679.3 1287.4 689.8 1301.1 708 1299.1 719.8 1304.8 769.2 1318.5 827.1 1317.8 827.9 1366.2 854.6 1367.1 855.4 1392.5 882.6 1392.1 882.2 1424.4 910.5 1425.2 911.7 1451.9 939.3 1452.3 942.1 1504.4 956.7 1504.6 955.6 1545.2 939 1542.9 915.1 1512.5 911.8 1506.6 909.7 1466 894.7 1467.3 891.6 1460 869.8 1439.4 868.1 1421.2 858.4 1417.6 788.4 1356.2 774.6 1356.6 774.6 1367.9 761.2 1367.9 743.6 1369 723 1373.8 719.7 1365 731.1 1356.9 732.7 1351.2 740.4 1345.2 738 1336.3 729.1 1337.1 721.4 1344.8 710.8 1360.9 659.7 1377.4 658.9 1357.6 636.3 1349.1 628.6 1342.3 672.3 1340.7 672 1309.6 651.7 1279.3 630.7 1279.3 630.3 1272.4 541.1 1273.5 539.1 1261.8 546 1257 553.7 1248.5 558.2 1239.6 571.9 1242.1 578 1239.3 593.4 1232.4 593.8 1225.1 598.3 1217.5 631.5 1219.5 644.1 1231.6 648.1 1241.7 649.3 1252.2 664.9 1270.5 Z" data-holc_grade="B"/>
<path d="M 939 1542.9 955.6 1545.2 960.3 1545.8 963.1 1614.1 960.3 1618.9 943.2 1620.1 909.9 1620.3 910.9 1539.2 939 1542.9 Z" data-holc_grade="B"/>
<path d="M 1018.5 1849.2 1018.5 1833.8 1038.8 1772.4 1067.2 1783 1066 1792.6 1068 1797.1 1087.8 1833.5 1060.7 1833.4 1061.1 1848.4 1018.5 1849.2 Z M 987.9 1838.9 894.1 1804.7 909.2 1763.6 916 1765.2 921.2 1764.9 932.9 1739.1 934.5 1717.7 941 1715.1 945.2 1707.4 954.9 1708.4 955.3 1695.1 952 1689.6 950.7 1683.8 955.3 1678 954 1673.5 949.1 1671.8 939.4 1679.3 934.5 1674.7 933.5 1663.1 936.1 1652.8 943.6 1647.9 956.9 1642.8 967.6 1642.8 978.9 1652.1 994.8 1672.8 1010.4 1689.6 988.6 1747.5 1015.5 1757.5 987.9 1838.9 Z" data-holc_grade="B"/>
<path d="M 1526.4 2982.5 1460.9 2981.9 1461.5 2994.2 1375 2996.2 1372.1 2900.5 1478.8 2900.9 1497.9 2926.8 1517.4 2953.9 1526.4 2982.5 Z" data-holc_grade="B"/>
<path d="M 1024.3 791.7 1025.2 855.9 1016.7 855.7 1007.6 857.4 1001.8 851.6 995.2 838.2 991.3 821.8 980.6 809 974.2 803 961.4 799.7 956.9 791.9 951.7 788.6 948.7 784.3 1024.4 785.2 1024.3 791.7 Z" data-holc_grade="B"/>
<path d="M 1153.5 714 1093.6 714 1092.9 645.2 1154.5 644.6 1153.5 714 Z M 1154.5 611.3 1035.9 609.7 1035.6 591.9 1056.7 591.9 1055.4 512.5 1152.6 510.9 1154.5 611.3 Z" data-holc_grade="B"/>
<path d="M 1172 947.7 1170.7 1054.8 1145.2 1057.7 1121.4 1071.7 1029.5 952 1029.1 942.8 1172 947.7 Z" data-holc_grade="B"/>
<path d="M 1350.5 507.1 1261.1 508 1262.1 493.5 1171.7 492.5 1172 458.3 1266.9 458.7 1267.6 420.2 1302.2 420.2 1302.9 470.6 1353.4 470.9 1350.5 507.1 Z" data-holc_grade="B"/>
<path d="M 1263.4 607.5 1263.9 648.3 1264 651.7 1218.9 651.7 1218.3 712.3 1174.9 713.4 1171 509 1261.1 508 1350.5 507.1 1343.3 575.2 1263 576.5 1263.4 607.5 Z" data-holc_grade="B"/>
<path d="M 1263.9 707.4 1294.4 707.9 1293.1 647.2 1263.9 648.3 1263.4 607.5 1341.7 606.8 1342.4 644.3 1435 643 1438.6 773.8 1262.3 775 1263.9 711.1 1263.9 707.4 Z" data-holc_grade="B"/>
<path d="M 1809.2 676.5 1808.4 748.5 1694.5 749.2 1692.9 715.6 1661.8 715.9 1660.9 731.3 1660.8 731.7 1560.4 731.8 1560.1 695.3 1560.5 695.3 1560.5 694.9 1695.5 693.6 1695.4 674.5 1695.8 674.5 1695.6 632.3 1793.9 632.3 1795.6 645.8 1810.5 646.5 1809.2 676.5 Z" data-holc_grade="B"/>
<path d="M 1088.5 2604.4 1110.5 2618.6 1110.5 2607.6 1117.7 2605.1 1124.8 2608.9 1141 2619.9 1154 2636.8 1161.1 2651 1163.1 2665.2 1187.7 2638.1 1191.6 2640 1189 2702.1 1177.3 2709.2 1128 2707.9 1113.1 2715.7 1103.3 2716.3 1073.5 2705.3 1057.9 2711.8 1056.7 2587.6 1073.5 2579.8 1075.5 2600.5 1088.5 2604.4 Z M 922.5 2535.1 924.1 2568.3 883.1 2569.9 883.1 2672.1 707.4 2673.6 708.6 2740.4 655.1 2739.9 654.7 2665.1 675.9 2599.6 676.3 2583.9 708.7 2584.7 709.5 2561.7 814.2 2565.4 816.2 2533.8 922.5 2535.1 Z M 1236.4 2526.8 1242.3 2546.2 1247.5 2559.2 1263.7 2572.8 1266.3 2588.3 1274.7 2589.6 1274.7 2618 1210.5 2617.4 1209.8 2600.6 1146.2 2598.6 1144.9 2565.6 1168.9 2565.6 1170.9 2527.4 1236.4 2526.8 Z M 1022.7 2411.1 1034.5 2414.7 1047.1 2424.4 1075.5 2424.8 1084 2436.9 1089.2 2437 1099.4 2435.3 1105.5 2430.1 1110.3 2428.9 1114 2432.5 1115.6 2441 1108.7 2447.5 1085.6 2451.5 1089.6 2456.4 1099 2456.8 1109.5 2461.2 1114.8 2460.8 1120.5 2455.2 1126.1 2453.1 1131 2455.6 1131 2462.4 1124.9 2471.7 1117.6 2480.2 1114.4 2493.1 1113.2 2498.8 1099.8 2487.9 1083.1 2484.6 1077.5 2479.8 1071 2472.5 1071.4 2528.3 1057.6 2525.9 1026.8 2523.8 1011.3 2531.9 1000.8 2545.7 996.7 2545.7 963.5 2454.3 961.9 2438.9 963.1 2428.4 1007.7 2419.5 1022.7 2411.1 Z M 742.9 2393.5 815.1 2394.4 814.3 2358 829.7 2365.7 829.7 2344.3 852.9 2327.3 881.7 2329.3 881.6 2360.5 968.4 2363.3 937.6 2466 674.7 2458.5 676 2391.9 604.6 2391.4 603.5 2295.2 630.3 2297.6 660.3 2306.1 704.4 2330.4 741.3 2353.5 742.9 2393.5 Z M 643.9 1914.5 647.3 1927.2 653.3 1926.1 669.1 1924.6 678.7 1927.7 694.8 1936.8 704.9 1942.7 719.7 1946.9 724.6 1952.3 733.2 1958 731.1 1970.7 731.3 1995.5 720.7 1995.2 703 1997.5 689.3 2005 678.4 2003.2 665.9 2014.1 654.2 2018.7 641.3 2017.7 617.4 2006.8 614 1998 609.1 1993.3 590.4 1993.1 582.4 1990 575.6 1979.6 576.2 1972.1 582.9 1965.4 583.2 1941.3 600.1 1940.3 600.1 1935.9 612 1934.9 613.8 1922.2 615.9 1919.4 618.3 1900.8 621.9 1899.5 632.8 1912.7 643.9 1914.5 Z M 621.9 1930.5 621.3 1934.9 607.6 1942.6 601.4 1947.8 605 1959.2 612 1964.4 637.9 1963.9 643.9 1966.2 647.3 1976.6 668.3 1974.8 681.5 1975 694.5 1969.9 702.8 1968.8 706.7 1958 704.9 1950.7 697.9 1948.7 687.5 1950.2 676.1 1951.5 662.9 1939.6 640.5 1937.2 635.4 1934.9 632.5 1928.7 625.5 1927.4 621.9 1930.5 Z M 1124.9 1869 1125.5 1903.8 1140.1 1904.4 1140.1 1910.2 1138.9 1915.9 1130.8 1925.6 1115.4 1934.9 1094.3 1944.2 1067.9 1948.6 1054.1 1947.4 1056.2 1878.3 1068.4 1867 1124.9 1869 Z" data-holc_grade="B"/>
</g>
<g id="C">
<path d="M 243.2 122.8 138.8 187.2 107.8 142.6 90.3 152 157.8 260.2 107.9 286.9 1 109.2 73.9 69.3 64.5 39.6 132.6 1 167.8 84 180.4 78.8 183 83 209.6 67.6 243.2 122.8 Z" data-holc_grade="C"/>
<path d="M 1593.4 1331.4 1592.6 1393.2 1539.5 1393.6 1538.3 1428.7 1492.5 1452.9 1482 1455.8 1470.6 1467.9 1464.5 1480.8 1445.9 1490.9 1446.7 1333 1593.4 1331.4 Z M 1487.6 1068.8 1486.8 1109.3 1499.8 1108.5 1497 1216.7 1539.1 1217.1 1539.5 1292.6 1594.2 1293 1594.6 1314.4 1448.7 1314.8 1453.2 1069.3 1487.6 1068.8 Z" data-holc_grade="C"/>
<path d="M 2296.4 1349.5 2296.4 1400.5 2330.7 1379.5 2328.8 1432.5 2381.6 1433.4 2383.2 1392.4 2368 1390.8 2368 1359.8 2384.8 1349.8 2573.8 1350.9 2574.1 1370.3 2610.1 1370.6 2609.2 1437.4 2575.8 1437.8 2574.9 1480.8 2253.9 1475.9 2254.6 1420.9 2255.2 1348.6 2296.4 1349.5 Z" data-holc_grade="C"/>
<path d="M 2718 902.4 2608 962.5 2573.3 981.5 2570.5 975.2 2569.6 924.3 2574.6 889 2644.6 888.9 2646.9 778.5 2693.1 778.9 2723.2 785.7 2718 902.4 Z" data-holc_grade="C"/>
<path d="M 2579.2 1136.7 2560.7 1136.3 2560.2 1071.8 2576.7 1072.3 2576.7 1067 2574.7 1031.1 2696.7 1031 2694.7 976.8 2717.1 976.7 2717.2 1066.4 2717.3 1136.6 2687.1 1136.1 2685.1 1107.6 2647.7 1108.1 2647.7 1135.7 2579.2 1136.7 Z" data-holc_grade="C"/>
<path d="M 2715.7 1279.5 2716.7 1229.5 2772.8 1244.9 2767.6 1492.3 2857.9 1491.4 2857.2 1574.4 2784.8 1577.5 2784.2 1668.3 2708.9 1666 2709.1 1636.7 2710.1 1618.2 2710 1558.6 2715.7 1279.5 Z" data-holc_grade="C"/>
<path d="M 2872.1 961.6 2855.6 961.8 2853.6 925.5 2732.6 928.2 2715.6 928.6 2717.6 963.9 2608 962.5 2718 902.4 2816.6 847.5 2846.3 850.9 2845.7 817.5 2995.9 852.2 2999 959.7 2872.1 961.6 Z" data-holc_grade="C"/>
<path d="M 1880.1 1776.1 1881.5 1902.7 1553.3 1898.4 1553.8 1769.9 1880.1 1776.1 Z M 1697.3 1786.9 1697.8 1891.1 1851.5 1892 1850 1788.8 1797.9 1789.3 1795.5 1792.2 1769.7 1791.7 1767.3 1788.3 1697.3 1786.9 Z" data-holc_grade="C"/>
<path d="M 1653.8 2305.3 1609.3 2303.7 1582.7 2189.5 1534.5 2183.2 1527.2 2159.9 1516.5 2159 1463 1987.3 1624 2033.4 1624.1 2274.9 1653.8 2305.3 Z" data-holc_grade="C"/>
<path d="M 1609.3 2303.7 1653.8 2305.3 1709.9 2307.4 1713.8 2325.3 1690.2 2325.6 1665.1 2324.8 1665.1 2362.4 1637.1 2361.6 1639.1 2406.9 1624.1 2407.3 1633.5 2515.6 1575.1 2516.4 1574.1 2475.2 1556.6 2473.8 1543 2450.5 1550.3 2440.8 1550.8 2437.4 1502.6 2435 1527.9 2359.8 1581.9 2359.3 1605.7 2303.5 1609.3 2303.7 Z" data-holc_grade="C"/>
<path d="M 1648.5 2806.8 1561.9 2809.4 1508.5 2810.8 1441.6 2697.5 1441.2 2652.7 1474.5 2652.7 1474.1 2589.6 1560.9 2594.4 1627.4 2592.8 1627 2584.3 1652.1 2580.7 1657 2612.6 1645.2 2613 1645.6 2627.6 1700.8 2626 1700.8 2616.3 1721.1 2614.6 1724.7 2643.3 1734.1 2661.5 1763.7 2662.7 1762.1 2747.2 1760.5 2803.9 1689.9 2805.5 1648.5 2806.8 Z" data-holc_grade="C"/>
<path d="M 418.3 333.4 357.9 401.5 343.3 415.1 331.1 410.2 318.1 409.4 276.4 412.4 232.1 413.1 213.7 410.3 201 401 187.3 389.9 175.9 375.4 168.4 368.4 194.4 320.7 183.3 312.9 204.5 275 235.9 291.3 257.9 274.3 418.3 333.4 Z M 394.6 116.1 424.1 126.5 431.1 126.5 418.4 152.6 540.6 152.4 536.2 207.9 484.3 260.3 432.2 318.6 375.5 297.4 274.8 262.7 297.8 243.8 209 259.7 177.1 244.7 149.2 203.1 237.6 147.7 247.7 142.1 263.8 136.7 371.5 169.6 394.6 116.1 Z" data-holc_grade="C"/>
<path d="M 1992.1 2376.7 1959.3 2376.7 1959.2 2299.2 1934 2299.2 1932.8 2251.5 1769.4 2252 1769.8 2193.8 1712.6 2193.4 1712.2 2159.9 1705.3 2159.5 1700 2130.8 1738.5 2131.2 1738.1 2046.7 1839.1 2077.8 1865.4 2077.8 1866.2 2103.2 1875.1 2103.6 1876 2132.3 1947.3 2131.5 2017.9 2128.3 2018 2177.1 2014.7 2192.1 1995.2 2243.4 1994.9 2362.3 1994.9 2376.7 1992.1 2376.7 Z M 1843.3 2156 1843.3 2190.9 1875.1 2189.6 1874.7 2156 1843.3 2156 Z" data-holc_grade="C"/>
<path d="M 1970.7 1689.5 1970.7 1759.7 1807.8 1758.7 1807.7 1690 1970.7 1689.5 Z M 1970.2 1677.8 1807.7 1675.3 1807.3 1426.6 1807.3 1410.6 1807.3 1401.3 1830.7 1391 1830.7 1369 1844.3 1350.3 1945.6 1346.1 1849.5 1393.5 1850.9 1624.2 1933.5 1625.6 1965.7 1626.1 1968.2 1626.1 1970.2 1677.8 Z" data-holc_grade="C"/>
<path d="M 1975.1 1995.2 1974.6 1911.8 2024.2 1911.3 2031.9 1903.6 2116.6 1905 2114.7 2042.2 2061.7 2039.8 2061.2 1995.2 2034.4 1994.2 2034.4 2000.1 2012.1 2000.1 2010.6 1994.7 1975.1 1995.2 Z M 1974.3 1898.3 1972.1 1778.5 2118.5 1776 2117.1 1889.5 2021.7 1889.5 2015.9 1897.8 1974.3 1898.3 Z M 2117 1754.1 2117.1 1760.5 1970.7 1759.7 1970.7 1689.5 2112.1 1689 2112.1 1701.2 2111.8 1753.7 2117 1754.1 Z M 2007.9 1675.5 2008.9 1627.4 2111.5 1627 2112 1675.8 2007.9 1675.5 Z" data-holc_grade="C"/>
<path d="M 2133.2 2064.7 2132.6 2153.9 2081.4 2154.9 2080.8 2224.1 2064.2 2225.1 2064.9 2299.1 2087.3 2299.6 2088 2338.9 2136.6 2339.2 2136.3 2300.5 2166.1 2301 2167.8 2398.7 2006.9 2398.1 2006.5 2238.1 2021.1 2195.7 2027.5 2186 2028.8 2092.2 2078.1 2092.5 2079 2056 2133.2 2057 2133.2 2064.7 Z" data-holc_grade="C"/>
<path d="M 1977.6 2693.3 1977.5 2488.3 1992.1 2487.6 1992.1 2413.3 2167.9 2415.1 2168.3 2466.8 2067 2465.6 2067.7 2541.3 1999.3 2540.3 2000.6 2724.1 1977.9 2715 1977.6 2693.3 Z" data-holc_grade="C"/>
<path d="M 2541.3 1559.2 2496.5 1559.3 2419.7 1555 2367.7 1556.5 2302 1557.6 2302.1 1628.3 2424.1 1629.2 2422.7 1686.9 2303.8 1688.5 2259.3 1689 2258 1659.1 2228.8 1658.3 2227.2 1676.9 2194.8 1676.5 2184.9 1680.3 2143.1 1680.3 2143 1626.5 2181 1626 2180.4 1559.6 2120.1 1560.6 2119.1 1517 2079.8 1516 2080.2 1496.1 2256.7 1495.1 2441.5 1499.3 2538.3 1500.2 2541.3 1559.2 Z" data-holc_grade="C"/>
<path d="M 2260.2 1894.6 2290.6 1893.8 2292.8 2044.1 2136.7 2042.5 2138.2 1902.7 2134.6 1891.8 2133.7 1847 2147.1 1849.8 2143.5 1855.9 2146.3 1890.6 2156 1896.7 2260.2 1894.6 Z" data-holc_grade="C"/>
<path d="M 2479.1 1828.8 2478.7 1895.2 2537.9 1896.4 2545.6 1902.8 2570.3 1903.6 2570.3 1911.3 2570.4 2001.4 2572.5 2046.2 2463.4 2046.8 2345.9 2043.6 2292.8 2044.1 2290.6 1893.8 2330.8 1893.3 2330.7 1865.4 2414.6 1864.6 2415.4 1828.2 2411.4 1824.6 2410.1 1757.1 2422.3 1757.1 2421.8 1740.9 2411.3 1740.5 2409.7 1715.5 2421.8 1715.5 2422.2 1705 2479.8 1707 2479.1 1828.8 Z" data-holc_grade="C"/>
<path d="M 2572.7 2198.7 2543.7 2197.9 2542.9 2226.2 2572.4 2226.6 2571.6 2323.9 2428.3 2252.8 2302.4 2176.6 2294.6 2164.3 2157.7 2068.7 2151.2 2054.5 2445 2060.1 2445.7 2119.6 2574.2 2121.4 2573.1 2151.7 2572.7 2198.7 Z" data-holc_grade="C"/>
<path d="M 2570.6 2345.3 2570.1 2396.7 2443.4 2394.4 2436.1 2392 2434 2385.9 2464.5 2386.7 2462.4 2352.7 2434.4 2353.2 2433.9 2274.7 2440.8 2278.7 2570.6 2345.3 Z M 2570 2410.9 2569.5 2468.9 2168.3 2466.8 2167.9 2415.1 2167.8 2398.7 2166.1 2301 2186.7 2301.5 2188 2353.5 2290.1 2355.5 2289.2 2263.5 2262 2262.7 2262.4 2192.1 2208.7 2190.6 2208.2 2164.4 2190.8 2163.9 2190.8 2148.7 2166.6 2148.2 2166.4 2154.4 2132.6 2153.9 2133.2 2064.7 2147.5 2078.8 2317.8 2207.2 2419.5 2266.3 2422.3 2410.2 2570 2410.9 Z" data-holc_grade="C"/>
<path d="M 357.9 401.5 418.3 333.4 451 347.7 481.3 355.2 701.4 465.4 787.1 507 716.4 505.9 683.2 506.7 667.2 511.3 635.2 572.2 620.7 580.5 524.6 531.1 486.2 606.7 462.2 572.1 450.5 543.7 476 496.7 436.9 461.3 409.4 449.4 388.7 436.2 371.9 409.6 357.9 401.5 Z M 1073.3 369.4 1026.9 370.2 1023.8 396.1 958.9 395.7 957.5 424 848.3 423.1 847.5 403.2 738.3 401.8 738.9 438.4 738.8 468.2 537.5 365 555.4 332.4 548.7 328.1 548.3 293 616.6 292.6 621.2 266.6 625.2 231.1 639.6 231.6 637.8 258.6 679.3 258 679.4 271.7 671.6 306 671.1 360.1 812.5 357.9 814.4 338.9 960 337.9 958.7 359.2 1072.5 357.8 1073.3 369.4 Z" data-holc_grade="C"/>
<path d="M 2541.3 1559.2 2710 1558.6 2710.1 1618.2 2500.5 1617.5 2500.5 1636.4 2709.1 1636.7 2708.9 1666 2708.7 1703.6 2570.1 1701.3 2571.1 1778.4 2539 1777.9 2539.6 1829.8 2479.1 1828.8 2479.8 1707 2422.2 1705 2422.7 1686.9 2424.1 1629.2 2430.9 1625.3 2430.9 1615.6 2409 1595.3 2405.6 1584.6 2387.6 1573 2376.9 1566.7 2367.7 1556.5 2419.7 1555 2496.5 1559.3 2541.3 1559.2 Z" data-holc_grade="C"/>
<path d="M 2572.5 2046.2 2570.4 2001.4 2570.3 1911.3 2627.5 1912.2 2763.7 1914.3 2762.4 1937 2761.1 1942.1 2762.4 1979.3 2758.2 1989.3 2752.1 1989.7 2750.8 1995.2 2747.2 2010.7 2740.1 2015.9 2740.8 2055.6 2684.4 2056 2683.8 2108.7 2572.5 2107.5 2572.5 2046.2 Z" data-holc_grade="C"/>
<path d="M 2570.6 2345.3 2706.3 2401.4 2570.1 2396.7 2570.6 2345.3 Z M 2665.4 2612.6 2568.6 2610.1 2571.4 2473.3 2569.5 2468.9 2570 2410.9 2709.6 2415.9 2710.4 2449.1 2742.9 2449.8 2743.6 2375.5 2712 2373.9 2711.2 2386 2571.6 2323.9 2572.4 2226.6 2572.7 2198.7 2573.1 2151.7 2856.1 2159.5 2857.5 2617.1 2665.4 2612.6 Z M 2695 2295.9 2711.6 2296.7 2710.4 2265.6 2694.6 2265.6 2695 2295.9 Z" data-holc_grade="C"/>
<path d="M 810.9 1302.8 878.6 1302.9 881.4 1305.7 883 1365.5 936.1 1365.5 938.5 1409.5 1019.5 1407.9 1022.7 1553.7 995.5 1548.6 973.6 1546.9 971.7 1505.2 956.7 1504.6 942.1 1504.4 939.3 1452.3 911.7 1451.9 910.5 1425.2 882.2 1424.4 882.6 1392.1 855.4 1392.5 854.6 1367.1 827.9 1366.2 827.1 1317.8 769.2 1318.5 719.8 1304.8 708 1299.1 689.8 1301.1 679.3 1287.4 664.9 1270.5 722.6 1258.8 765.2 1258.8 774.9 1266.5 789.5 1289.5 790.7 1302.8 810.9 1302.8 Z" data-holc_grade="C"/>
<path d="M 973.6 1546.9 995.5 1548.6 995.9 1595.5 1040.1 1611.7 1015.7 1677.9 1065.2 1696.5 1061.5 1707.4 1079.4 1715.1 1070.8 1738.5 1096.8 1750.6 1139 1635.5 1176.7 1650.1 1144.9 1753.2 1133.2 1791.1 1166.9 1804.8 1157.5 1833.1 1155.9 1842.4 1155.9 1905 1140.1 1904.4 1125.5 1903.8 1124.9 1869 1124.3 1834.3 1087.8 1833.5 1068 1797.1 1066 1792.6 1067.2 1783 1038.8 1772.4 1018.5 1833.8 1018.5 1849.2 980.5 1862.3 987.9 1838.9 1015.5 1757.5 988.6 1747.5 1010.4 1689.6 994.8 1672.8 978.9 1652.1 967.6 1642.8 956.9 1642.8 943.6 1647.9 943.2 1620.1 960.3 1618.9 963.1 1614.1 960.3 1545.8 973.6 1546.9 Z" data-holc_grade="C"/>
<path d="M 968.5 2065.4 969.3 2054.9 970.5 2005.4 956.3 2004.2 957.2 1932.3 998.9 1935.9 998.9 1961 1022 1964.2 1022.4 1977.2 1068.2 1980.8 1064.1 2115 973.3 2110.1 968.5 2065.4 Z" data-holc_grade="C"/>
<path d="M 1248.1 2206.4 1229.1 2229.9 1213.6 2257 1201.5 2281.2 1201.1 2295 1201.9 2311.7 1195 2302.6 1183.2 2298.6 1182.4 2292.9 1176.3 2285.3 1170.7 2275.1 1173.9 2261.4 1177.6 2253.3 1194.2 2250.1 1191.3 2246.9 1180.8 2240.4 1175.5 2230.7 1177.6 2217 1174.3 2213.3 1162.6 2219.4 1145.1 2212.1 1126.5 2212.1 1124.5 2153.5 1109.5 2153.5 1108.7 2106.2 1168.7 2106.6 1172.3 2096.9 1187.3 2090.1 1205.2 2086 1219.6 2085.8 1239.6 2131 1237.4 2145.6 1230.2 2162.4 1218.5 2176.9 1218.2 2206.3 1248.1 2206.4 Z" data-holc_grade="C"/>
<path d="M 1262.3 775 1174.8 776 1174.9 713.4 1218.3 712.3 1263.9 711.1 1262.3 775 Z M 1153.5 714 1152.5 775.3 1025.2 774.3 1024.4 785.2 948.7 784.3 939.6 778.2 934.8 769.8 935.1 763 941 757.5 943.9 748.8 951.3 740.4 952.6 734.9 949.1 731 937.4 736.5 931.2 739.1 926.7 732.9 926.4 713.6 974.7 714.6 986 714.9 986.1 512.8 1055.4 512.5 1056.7 591.9 1035.6 591.9 1035.9 609.7 1154.5 611.3 1154.5 644.6 1092.9 645.2 1093.6 714 1153.5 714 Z" data-holc_grade="C"/>
<path d="M 1263.4 607.5 1263 576.5 1343.3 575.2 1350.5 507.1 1353.4 470.9 1302.9 470.6 1302.2 420.2 1267.6 420.2 1266.9 458.7 1172 458.3 1172.4 404.1 1174.3 365.3 1200.9 375 1233.9 364.4 1310 380.9 1434.7 422.8 1436.3 483.9 1435 643 1342.4 644.3 1341.7 606.8 1263.4 607.5 Z" data-holc_grade="C"/>
<path d="M 1025.2 855.9 1024.3 791.7 1152.1 794.2 1151.1 916.2 1026.2 915.7 1025.2 855.9 Z M 1435.9 906.1 1354.7 907.6 1354.7 901.8 1206.9 898.8 1202 1077.1 1170.4 1078.5 1170.7 1054.8 1172 947.7 1173.9 791.8 1436.3 789.9 1435.9 906.1 Z" data-holc_grade="C"/>
<path d="M 1695.6 632.3 1695.8 674.5 1695.4 674.5 1453.7 675.3 1453.7 542.2 1456.9 477.6 1512.8 497 1511.2 529.3 1605.5 529.6 1606.7 547 1683.2 546.6 1697 556.7 1697 564.3 1796.2 573.6 1794.4 631.9 1695.6 631.9 1695.6 632.3 Z" data-holc_grade="C"/>
<path d="M 1660.9 731.3 1661.2 731.3 1661.8 783.6 1454.4 783.7 1453.7 675.3 1695.4 674.5 1695.5 693.6 1560.5 694.9 1560.5 695.3 1560.1 695.3 1560.4 731.8 1660.8 731.7 1660.9 731.3 Z M 1808.1 784 1693 784 1694.5 749.2 1808.4 748.5 1808.1 784 Z" data-holc_grade="C"/>
<path d="M 1934.5 783.8 1933.8 901.5 1866.1 902.5 1865.2 949.8 1674.4 949.8 1674.4 993.8 1652.9 993 1651.3 953.1 1611.2 953.9 1612 990.6 1597.8 991 1597.8 1068.1 1534.6 1068.1 1487.6 1068.8 1453.2 1069.3 1453 1043.2 1548.3 1042.7 1552.2 924 1821.9 923 1820.1 864.5 1819.9 857.6 1807.3 858.1 1807.4 845.6 1808.1 784 1808.4 748.5 1809.2 676.5 1866.5 677 1866.1 760.3 1935.1 760.7 1934.5 783.8 Z" data-holc_grade="C"/>
<path d="M 2067.7 2541.3 2067 2465.6 2168.3 2466.8 2569.5 2468.9 2571.4 2473.3 2568.6 2610.1 2665.4 2612.6 2664.5 2731.6 2656.4 2749.8 2408.8 2748.1 2071.3 2749.6 2067.7 2541.3 Z M 2579.2 1136.7 2580.9 1209.7 2716.2 1208.8 2716.7 1229.5 2715.7 1279.5 2648.2 1280.3 2647.9 1339.7 2576.2 1338.6 2576.5 1277.2 2515.3 1277.2 2515.7 1243.7 2540.4 1243.3 2540.4 1193.6 2507.6 1193.3 2503.1 1196.5 2484.9 1196.1 2485.6 1134.7 2560.7 1136.3 2579.2 1136.7 Z M 2536.3 924.4 2403.1 924.9 2404.4 983.4 2291.4 982.7 2289.8 1062.2 2221.9 1062.8 2222.8 994.9 2076 996.4 2077.9 925.9 2007.4 925.9 2007.1 937.8 1968.6 937.4 1967.2 925.3 1933.6 925.3 1933.8 901.5 1934.5 783.8 2360.2 784.1 2311.2 858.7 2430.8 859.1 2432.7 852.8 2540.6 849.8 2536.3 924.4 Z" data-holc_grade="C"/>
</g>
<g id="D">
<path d="M 1434.9 1065 1280.8 1067.9 1266.2 1076.6 1248.7 1078.1 1202 1077.1 1206.9 898.8 1354.7 901.8 1354.7 907.6 1435.9 906.1 1434.9 1065 Z" data-holc_grade="D"/>
<path d="M 1434.9 1065 1432.9 1218.6 1428 1447.8 1371.2 1447.8 1370.7 1385.8 1306.5 1328.6 1265.2 1293.2 1266.7 1247.6 1243.8 1223.9 1245.8 1156.6 1243.8 1130.4 1247.7 1106.7 1248.7 1078.1 1266.2 1076.6 1280.8 1067.9 1434.9 1065 Z" data-holc_grade="D"/>
<path d="M 1453 1043.2 1455 861.6 1820.1 864.5 1821.9 923 1552.2 924 1548.3 1042.7 1453 1043.2 Z M 1808.1 784 1807.4 845.6 1455 843.2 1454 784.1 1693 784 1808.1 784 Z" data-holc_grade="D"/>
<path d="M 1655.4 1673.9 1654.9 1693.3 1623.8 1692.3 1624.3 1706.4 1654.4 1706.4 1654.9 1754.9 1552.3 1752.4 1551.8 1673 1655.4 1673.9 Z M 1655.9 1631.7 1656.4 1662.3 1551.8 1661.8 1551.8 1630.8 1655.9 1631.7 Z M 1807.3 1426.6 1807.7 1675.3 1807.7 1690 1807.8 1758.7 1666.7 1754.6 1666.7 1692.4 1747 1693.2 1747.4 1630.6 1669.2 1631 1668.3 1622.6 1552.4 1621.4 1552.4 1566 1674.8 1500.2 1807.3 1426.6 Z M 1807.3 1401.3 1807.3 1410.6 1731.2 1452.8 1550.2 1554.1 1465.1 1552.9 1466.2 1492.4 1526.8 1454.9 1553.6 1454.6 1553.8 1513 1569.1 1513.8 1569.6 1520.3 1590.6 1521.3 1589.6 1456.7 1630.1 1456.2 1630.3 1418.2 1775 1417.6 1807.3 1401.3 Z" data-holc_grade="D"/>
<path d="M 1972.1 1778.5 1974.3 1898.3 1974.6 1911.8 1975.1 1995.2 1975.1 2045.7 1921.6 2045.7 1921.1 2023.9 1896.8 2024.4 1856.9 2043.3 1855.4 2065.1 1637 1997.8 1581.5 1960.4 1577.6 1914.4 1881.6 1916.2 1881.5 1902.7 1880.1 1776.1 1972.1 1778.5 Z" data-holc_grade="D"/>
<path d="M 1022.7 1553.7 1019.5 1407.9 938.5 1409.5 936.1 1365.5 883 1365.5 881.4 1305.7 878.6 1302.9 810.9 1302.8 810.9 1275.4 909.4 1274.6 909.4 1235.4 952.8 1214.9 977.5 1206.4 1018.8 1245.6 1020.4 1313.4 1045.9 1313.4 1051.9 1556.2 1022.7 1553.7 Z" data-holc_grade="D"/>
<path d="M 1139 1635.5 1096.8 1750.6 1070.8 1738.5 1079.4 1715.1 1061.5 1707.4 1065.2 1696.5 1015.7 1677.9 1040.1 1611.7 1055 1577.6 1120.8 1602.5 1112 1624.8 1139 1635.5 Z" data-holc_grade="D"/>
<path d="M 1248.1 2206.4 1218.2 2206.3 1218.5 2176.9 1230.2 2162.4 1237.4 2145.6 1239.6 2131 1219.6 2085.8 1166.4 1965.2 1168.7 1906 1155.9 1905 1155.9 1842.4 1157.5 1833.1 1166.9 1804.8 1133.2 1791.1 1144.9 1753.2 1167.7 1760.9 1203.1 1658.5 1228.1 1666.9 1220.3 1693.4 1272.2 1712.8 1231.6 1829.4 1230.3 1913.1 1252 1913.8 1283.8 2005.3 1284.4 2168.5 1274.3 2206.4 1248.1 2206.4 Z" data-holc_grade="D"/>
<path d="M 1201.9 2311.7 1264.4 2313.4 1281.3 2346.4 1282.5 2525.5 1236.4 2526.8 1236.5 2477 1233.2 2473.8 1204 2473.1 1183.9 2337.3 1171 2331.5 1169 2310.8 1201.9 2311.7 Z" data-holc_grade="D"/>
</g>
</svg>