<?xml version="1.0"?>
<svg xmlns="http://www.w3.org/2000/svg" version="1.2" baseProfile="tiny" width="3000" height="1270" viewBox="0 0 3000 1270" stroke-linecap="round" stroke-linejoin="round">
<g id="A">
<path d="M 399.8 457.3 404.9 418.3 482.9 420.8 481.4 459.1 399.8 457.3 Z" data-holc_grade="A"/>
<path d="M 850.6 437.4 855.8 460.8 858.4 494.1 736.7 496.6 733.3 449.5 850.6 437.4 Z M 850.6 437.4 850.5 437 850.9 437.3 850.6 437.4 Z" data-holc_grade="A"/>
<path d="M 689.8 599.4 686 652.2 686.3 689.7 692.8 699 694.9 708.4 692.5 716.4 684.3 725 620.5 722.9 622.1 699.1 623.7 696.7 623.7 647.8 626.2 598.6 689.8 599.4 Z" data-holc_grade="A"/>
</g>
<g id="B">
<path d="M 518.6 754 376.7 752.8 390.3 512.4 397.6 512 399.8 457.3 481.4 459.1 482.9 420.8 404.9 418.3 407.9 394.8 423.6 355.2 480.7 354.7 475.5 386.1 569 388.5 567.8 418.7 606.7 419.9 600 522.2 560.9 521.3 562.9 479 480.3 476.2 477.9 516.9 427.7 514.9 422.1 593.2 499.5 597.8 500 739.3 518.9 740.5 518.6 754 Z" data-holc_grade="B"/>
<path d="M 623.7 647.8 623.7 696.7 622.1 699.1 620.5 722.9 684.3 725 692.5 716.4 694.9 708.4 692.8 699 686.3 689.7 686 652.2 689.8 599.4 690 597.7 696.7 597.4 697.5 502.7 688.9 486.2 653 439.2 645 439 646.6 387.9 710.8 383.8 711.7 423.9 720.1 469.3 718.3 499.1 728.8 498.8 730.1 547.1 733.4 547.1 729.9 662 752.8 662.8 750.2 736.4 687.5 734.6 687.1 744.8 672.4 744.3 669.7 816.5 659.7 815.5 610.2 814.7 590.8 812.9 593.8 728.7 543 744.6 544.6 703.8 579.2 708.5 579.5 638.2 587.9 627.6 595.2 626 602.2 627 610.5 630.3 614.4 635.9 623.7 647.8 Z" data-holc_grade="B"/>
<path d="M 547.7 1160 548.8 1088.6 548.6 1088.4 594.7 1090.2 593.9 1152.4 547.7 1160 Z" data-holc_grade="B"/>
</g>
<g id="C">
<path d="M 404.9 418.3 399.8 457.3 397.6 512 390.3 512.4 376.7 752.8 518.6 754 516 804.3 484.2 801.1 388.9 799 334.3 741.6 328.8 726.2 330.4 702.2 316 702.7 317.2 639.6 323.6 575.5 326.1 573.5 327.7 554.8 325.2 552.7 328.6 518.5 334.3 513.3 366 394.2 387.5 355 423.6 355.2 407.9 394.8 404.9 418.3 Z" data-holc_grade="C"/>
<path d="M 549.8 981.5 501.7 980.9 505.3 905.2 489.5 903.8 474.4 879.8 484.2 801.1 516 804.3 512.6 854.4 577.7 857.6 610.2 814.7 659.7 815.5 658.2 860.1 705.2 862.4 707.1 817.3 669.7 816.5 672.4 744.3 687.1 744.8 687.5 734.6 750.2 736.4 783.7 746.5 781.6 813.1 795 813.4 793 853.1 826.3 848.2 833.8 858.4 839.1 896.6 819 912.5 803.5 915.3 804.8 944.7 777.4 945.4 775.3 958.7 765.8 958.9 762.9 965.1 650.7 962 649.4 984.5 549.8 981.5 Z" data-holc_grade="C"/>
<path d="M 501.7 980.9 549.8 981.5 547.7 1008.7 529 1008.5 528.6 1018 366 1071.5 367.1 1049.9 282.8 1047 284.9 978.5 326.5 980.1 326.6 991.5 461.4 995.3 468.2 999.5 500.9 999 501.7 980.9 Z" data-holc_grade="C"/>
<path d="M 673.1 1036 670.7 1114.5 636.4 1113.3 636 1143.9 669.1 1142.7 669.7 1152.3 695 1148.2 653.8 1203.4 578.4 1217.3 581.8 1195.7 535 1209 499.1 1209.1 499.7 1175.9 279.1 1170.2 282.4 1098.2 381.9 1102 381.5 1092.7 406 1086.3 418.2 1085.9 419.8 1075.9 452.1 1078.1 454.6 1066.9 464.2 1066.9 465.4 1063.5 490.9 1059.5 490.9 1054.9 502.5 1054.6 548.9 1038.8 549.3 1034 579 1033.6 580 1022.4 616.1 1023.4 617.1 1009.9 632.8 1009.9 642.2 1007.3 674 1007.3 673.1 1036 Z M 547.7 1160 593.9 1152.4 594.7 1090.2 548.6 1088.4 548.8 1088.6 547.7 1160 Z" data-holc_grade="C"/>
<path d="M 950.8 898.8 857.5 908.4 863.7 898.4 856.9 817.7 854.3 806.7 881.4 807.3 869.3 715.8 865.8 671.1 858.8 648.6 845.2 625.9 840 610.2 839.5 595.4 846 566.7 847.8 564.5 848.5 534.8 858.6 513.8 863.6 503.1 874.9 495.8 883.1 493.8 912.7 493.6 943.8 505.3 955.1 510.3 995.2 519.6 1006.5 529.1 1010 540 1006.4 549.5 1002 554.1 991.3 556.3 984.1 559.1 979.1 566.7 978.9 593.1 984.1 629 995.7 644.6 1040.7 623.3 1040.9 623.1 1053.7 643.9 1000 672.5 965.7 710.2 952.2 742.4 942.4 794.1 942.8 818.3 953.4 856.4 957.4 870.6 950.8 898.8 Z" data-holc_grade="C"/>
<path d="M 1633.7 561.4 1599.3 516 1599.2 515.9 1613 504.7 1615.8 486.2 1611.8 461.8 1602.1 462 1589.5 407.6 1564.5 411.3 1532 412.5 1530.7 326.4 1540.2 321.9 1528.4 297.6 1523.8 278.2 1522.7 255.2 1507.4 242.7 1548.3 200.6 1598.4 184.8 1613.6 249.1 1615.5 275.5 1635.1 273.1 1649.2 314.4 1622.4 321.9 1619.1 353.8 1641.8 372.4 1647.6 372.7 1653.3 375.2 1658.1 384 1670.5 425.3 1669.2 452 1663.7 483 1682.5 486.5 1683.5 512.7 1689.3 518.4 1715.6 518.4 1714.6 556.6 1644.6 555.1 1633.7 561.4 Z" data-holc_grade="C"/>
<path d="M 2477 475.5 2477.2 475.5 2478 443.5 2454.9 439.1 2417.2 437.6 2412.4 441.5 2401.4 430.4 2411.4 404.2 2406 396.8 2404.7 329.7 2405.5 322.5 2420 297.1 2414.7 284.5 2418.3 266.4 2437 275.5 2447.8 243.4 2443.2 214.6 2443.4 164.9 2504.3 155.3 2620.6 131 2699.4 88.3 2746.9 99.8 2723.9 137.2 2718.9 150.2 2701.3 203.9 2693.7 216.3 2674.2 239.7 2654.6 254.1 2620.7 271.3 2601.2 288.2 2595.4 303 2592.2 321 2546.3 351.6 2545.7 366 2541.3 366.2 2538.1 413.3 2672.9 421.6 2649.9 459.2 2644.1 477.4 2644.1 484 2617.4 485.6 2570.3 473 2572.9 499.2 2477 475.5 Z" data-holc_grade="C"/>
<path d="M 2668.8 495.8 2668.8 495.9 2684.7 498.1 2731.6 544.8 2764.7 588.8 2776.2 587.1 2812.3 560.4 2820.2 570.8 2776.4 602.3 2791.4 646.7 2786.6 651.1 2769.1 636.1 2762.5 626.5 2755.5 616.5 2744.2 609.3 2651.7 517.4 2668.8 495.8 Z" data-holc_grade="C"/>
</g>
<g id="D">
<path d="M 132.3 1072.9 134.1 1031.5 140.2 993 182.6 994.3 184.6 947.8 259.1 951.1 255.1 1046.5 225.3 1046.4 223.9 1067.9 252.2 1068.6 252.2 1079.5 225.5 1079 225 1100.8 252.1 1101.6 250.6 1134.1 219.1 1133.6 218.3 1144.8 149.1 1143.5 150.6 1105.4 120.2 1103.8 117.7 1142.1 1 1137.1 4.6 1122.5 7.2 1099.9 43.2 1102.1 50.6 1071.1 132.1 1072.8 132.3 1072.9 Z" data-holc_grade="D"/>
<path d="M 501.7 980.9 500.9 999 468.2 999.5 461.4 995.3 326.6 991.5 326.5 980.1 284.9 978.5 285.9 955.1 350.6 829.1 350.5 828.8 422 830.8 388.9 799 484.2 801.1 474.4 879.8 489.5 903.8 505.3 905.2 501.7 980.9 Z" data-holc_grade="D"/>
<path d="M 499.1 1209.1 487.1 1264.2 441.9 1269.3 383.3 1255.7 393.5 1213.9 282.4 1208.7 283.8 1197.2 268.3 1195 269.2 1185.9 278.5 1185.3 279.1 1170.2 499.7 1175.9 499.1 1209.1 Z" data-holc_grade="D"/>
<path d="M 695 1148.2 669.7 1152.3 669.1 1142.7 636 1143.9 636.4 1113.3 670.7 1114.5 673.1 1036 716.5 1036.8 716.3 1027.8 737.9 1028.5 738 1016.8 772.5 1016.3 772.5 1036.3 807.5 1037.7 805.5 1020.3 874.9 1012.9 881.4 1058.1 801.7 1075.4 802.3 1110 785 1116 761.3 1114.8 754.6 1116.5 743.6 1132 736.4 1136.3 707.5 1139 698.3 1141.1 695 1148.2 Z" data-holc_grade="D"/>
<path d="M 857.5 908.4 950.8 898.8 939.7 925.5 934.7 953.1 877.3 971.8 857 971 839.6 977.4 834.6 949.4 852.6 945.8 849.8 923.3 857.5 908.4 Z" data-holc_grade="D"/>
<path d="M 1599.2 515.9 1599.3 516 1633.7 561.4 1571.1 611 1578.8 623.6 1542.6 653.3 1546.9 661.1 1429.5 750.1 1410.6 707.3 1370.7 732 1244.4 821.6 1253.2 832.5 1064.5 905.6 1049.7 863.5 1107.1 823 1127.4 815.6 1138.8 834 1138.8 834.1 1223.2 792 1225.2 798.9 1521.5 590.5 1514.2 582.9 1551.5 553.9 1544.4 545.7 1569.2 526.1 1574.4 532.2 1597.1 513.1 1599.2 515.9 Z" data-holc_grade="D"/>
<path d="M 2886 140.6 2886.4 141.1 2861.1 119.4 2847.7 103.7 2854 87 2867.2 61 2878.2 43 2901.2 21.6 2918.2 11.8 2947.9 1 2968.5 1.1 2985.8 9.4 2996.8 14.3 2999 19.2 2998.7 25.2 2971.9 44.4 2956 83.3 2886 140.6 Z" data-holc_grade="D"/>
</g>
</svg>