<?xml version="1.0"?>
<svg xmlns="http://www.w3.org/2000/svg" version="1.2" baseProfile="tiny" width="3000" height="4598" viewBox="0 0 3000 4598" stroke-linecap="round" stroke-linejoin="round">
<g id="A">
<path d="M 1311 2751 1335.9 2756.8 1354.3 2959.6 1363.1 3056.8 1323.2 3174.2 1303.2 3197.7 1270.6 3271.8 1243.3 3378.4 1296 3392.9 1259.7 3474.2 1205.2 3604.3 1188.9 3685.7 1080 3859.2 1119.9 4012.8 1187.1 4117.6 1205.2 4180.9 1221.5 4564.1 1205.2 4594.8 1087.2 4591.2 867.7 4596.6 662.7 4591.2 646.4 4444.7 637.3 4363.4 610.1 4151.9 581.1 3844.6 453.3 3457.9 511.4 3400 499.8 3366.8 534.7 3063.2 534.7 2964.9 534.7 2914.3 546.3 2844.9 801.7 2897 833.6 2652.7 904.7 2672.9 1036.8 2693.2 1208 2729.3 1311 2751 Z" data-holc_grade="A"/>
</g>
<g id="B">
<path d="M 1310.4 2711.9 1308.1 2576.1 1299.4 2464.8 1383.6 2472 1387.9 2386.7 1452.5 2420 1548.3 2493.7 1822.5 2576.1 2134.5 2655.6 2059.1 2912.9 1974.9 2897 1600.5 2788.6 1498.9 2758.2 1398.8 2729.3 1326.3 2710.5 1310.4 2711.9 Z" data-holc_grade="B"/>
<path d="M 1567.9 2396.7 1712.9 2094.9 1640.5 2059.6 1652 2033.6 1732.1 2035.9 1808.7 1922.6 1895.1 1774.6 2108.7 1835.8 2191.1 1865.9 2272.4 1893.6 2228.3 2327.3 2159.8 2403.6 2129.7 2541.2 2125 2588.6 1872 2520.4 1701.4 2470.7 1567.9 2396.7 Z" data-holc_grade="B"/>
<path d="M 1363.1 3056.8 1461 3067.6 1626.1 3100.1 1758.5 3116.4 1765.8 3074.8 1675.1 3049.5 1490.1 2995.3 1354.3 2959.6 1335.9 2756.8 1311 2751 1310.4 2711.9 1326.3 2710.5 1398.8 2729.3 1498.9 2758.2 1600.5 2788.6 1974.9 2897 2059.1 2912.9 2134.5 2655.6 2265.3 2693.9 2278.1 3159.9 2150.3 3134.4 2115.9 3257.3 2059.7 3365.8 1990.7 3537.5 2264.7 3651.3 2286.5 3837.4 1929.1 3964 1787.6 3935.1 1700.5 3893.5 1330.4 4032.7 1292.3 4049 1187.1 4117.6 1119.9 4012.8 1080 3859.2 1188.9 3685.7 1205.2 3604.3 1259.7 3474.2 1296 3392.9 1243.3 3378.4 1270.6 3271.8 1303.2 3197.7 1323.2 3174.2 1363.1 3056.8 Z" data-holc_grade="B"/>
<path d="M 1475 753.8 1425.6 761.1 1353.1 779.8 1122.5 830.4 944.1 810.2 915.1 697.4 903.5 607.9 887.5 467.7 886.1 459.3 868.7 355 794.7 282.7 786.1 63.1 1225.5 1 1244.4 242.3 1730.2 174.4 1779.5 164.3 1776.6 219.2 1820.2 639.7 1775.2 639.7 1614.2 667.1 1470.6 691.7 1475 753.8 Z" data-holc_grade="B"/>
</g>
<g id="C">
<path d="M 218.3 3122.4 202.4 2946 166.2 2706 157.5 2610.6 311.3 2552.8 294 2119.2 218.5 2107.6 205.5 2051.2 207 1990.5 215.7 1967.4 220 1941.4 301.3 1932.7 439.1 1980.4 533.4 2003.6 543.5 2101.9 616.1 2112 576.9 2233.4 748.1 2289.8 720.5 2388.1 546.4 2380.9 558 2619.4 559.4 2696 546.3 2844.9 534.7 2914.3 534.7 2964.9 534.7 3063.2 499.8 3366.8 511.4 3400 453.3 3457.9 435.9 3402.9 451.9 3135.5 454.8 3073.3 404.1 3070.4 366.3 3070.4 315.5 3061.7 285.1 3050.1 218.3 3122.4 Z" data-holc_grade="C"/>
<path d="M 1299.4 2464.8 1308.1 2576.1 1310.4 2711.9 1311 2751 1208 2729.3 1036.8 2693.2 904.7 2672.9 833.6 2652.7 801.7 2897 546.3 2844.9 559.4 2696 558 2619.4 546.4 2380.9 720.5 2388.1 855.4 2412.7 909.1 2295.6 1129.7 2393.9 1299.4 2464.8 Z" data-holc_grade="C"/>
<path d="M 1299.4 2464.8 1129.7 2393.9 909.1 2295.6 855.4 2412.7 720.5 2388.1 748.1 2289.8 826.4 2314.4 893.2 2174.2 1387.9 2386.7 1383.6 2472 1299.4 2464.8 Z" data-holc_grade="C"/>
<path d="M 1366.5 1583.8 1276 1720.2 1452.4 1750.3 1519.7 1775.7 1604.4 1823.1 1732.1 1879.8 1808.7 1922.6 1732.1 2035.9 1652 2033.6 1640.5 2059.6 1584.7 2185.1 1506.9 2358.5 1221.4 2187.4 1069.3 2173.5 966 2122.6 759.4 2022 797.8 1952.6 746.7 1930.6 769.9 1780.3 775.7 1760.7 780.4 1737.5 696.1 1739.8 699.6 1707.5 638.1 1522.5 845.9 1453.1 973.5 1416.1 1036.2 1393 1075.2 1595.3 1178.5 1712.1 1234.2 1464.7 1305 1161.8 1371.1 1127.1 1366.5 1583.8 Z" data-holc_grade="C"/>
<path d="M 886.1 459.3 887.5 467.7 903.5 607.9 915.1 697.4 944.1 810.2 1122.5 830.4 1353.1 779.8 1425.6 761.1 1475 753.8 1491.8 1000.1 1460.5 1005.3 1386.5 1013.1 1253.3 1021.8 1192.4 1029.6 1160.2 1028.7 1108 1025.2 991.7 1005.3 1010.8 1178.7 920.3 1183.9 908.1 1187.3 753.2 1236.7 578.2 1279.2 581.7 1216.8 587.8 1184.7 603.5 1113.6 614 1007.8 490.4 746.8 495.7 667.9 478.3 535.2 467 406.9 565 399.1 571.1 480.6 886.1 459.3 Z" data-holc_grade="C"/>
<path d="M 1366.5 1583.8 1371.1 1127.1 1464 1090.1 1596.3 1018.4 1747.1 1301.7 1807.5 1418.5 1727.4 1551.4 1647.4 1608.1 1554.5 1670.5 1366.5 1583.8 Z" data-holc_grade="C"/>
<path d="M 2125 2588.6 2129.7 2541.2 2159.8 2403.6 2228.3 2327.3 2272.4 1893.6 2795.5 2056.6 2730.6 2471.7 2999 2937.7 2794.7 3142.5 2568.3 3075.4 2329.2 3017.7 2316.4 3172.6 2278.1 3159.9 2265.3 2693.9 2528.8 2767.8 2547.4 2706.5 2125 2588.6 Z" data-holc_grade="C"/>
</g>
<g id="D">
<path d="M 220 1941.4 215.7 1967.4 207 1990.5 205.5 2051.2 218.5 2107.6 294 2119.2 311.3 2552.8 157.5 2610.6 166.2 2706 202.4 2946 218.3 3122.4 153 3132.5 145.8 3087.7 111 2964.8 10.9 2635.1 25.5 2493.5 38.6 2122 28.5 1960.1 220 1941.4 Z" data-holc_grade="D"/>
<path d="M 1010.8 1178.7 1036.2 1393 973.5 1416.1 845.9 1453.1 638.1 1522.5 699.6 1707.5 696.1 1739.8 619.5 1737.5 626.5 1812.7 540.6 1773.3 484.9 1753.7 404.8 1714.3 295.7 1657.7 238.8 1684.2 399 1817.3 488.3 1858.9 473.2 1919 229.5 1839.2 64.7 1853 19.4 1863.4 9 1765.1 42.7 1582.4 100.8 1444.9 1 1417.1 109 1307.3 140.3 1116.5 279.6 972 490.4 746.8 614 1007.8 603.5 1113.6 587.8 1184.7 581.7 1216.8 578.2 1279.2 753.2 1236.7 908.1 1187.3 920.3 1183.9 1010.8 1178.7 Z" data-holc_grade="D"/>
<path d="M 1554.5 1670.5 1647.4 1608.1 1727.4 1551.4 1807.5 1418.5 1920.6 1196.5 2145.8 1156 2138.9 1612.7 2094.8 1611.5 2005.4 1625.4 1955.5 1640.4 1777.9 1569.9 1635.2 1708.7 1554.5 1670.5 Z" data-holc_grade="D"/>
<path d="M 1363.1 3056.8 1354.3 2959.6 1490.1 2995.3 1675.1 3049.5 1765.8 3074.8 1758.5 3116.4 1626.1 3100.1 1461 3067.6 1363.1 3056.8 Z" data-holc_grade="D"/>
<path d="M 1506.9 2358.5 1584.7 2185.1 1640.5 2059.6 1712.9 2094.9 1567.9 2396.7 1506.9 2358.5 Z" data-holc_grade="D"/>
</g>
</svg>