<?xml version="1.0"?>
<svg xmlns="http://www.w3.org/2000/svg" version="1.2" baseProfile="tiny" width="3000" height="4023" viewBox="0 0 3000 4023" stroke-linecap="round" stroke-linejoin="round">
<g id="A">
<path d="M 1649.1 547.8 1650.9 883.7 1651.9 1077.4 1652.3 1163 1477.9 1163.3 1476.1 1034.2 1475.9 1025.2 1392.8 1023.8 1392.3 902.7 1390.8 550 1389.6 290.5 1389.6 268.9 1428.2 268.3 1428.2 220.4 1429.6 195.5 1426.7 176.5 1426.6 176.5 1544.1 172.2 1544.1 172.4 1545.6 256.4 1546.2 307.4 1545.8 317 1548.2 343.1 1548.7 458.5 1602.2 456.9 1648.6 455.4 1648.7 483.5 1649.1 547.8 Z" data-holc_grade="A"/>
<path d="M 1093.9 186.8 1092.8 186.8 1093.4 211 1093.4 212.2 1022.2 213.1 1022.2 212.9 1026 6.9 1097.2 6.9 1093.9 186.8 Z" data-holc_grade="A"/>
<path d="M 1066.9 2567.8 1064.9 2565.8 729.2 2229.1 729.2 2229 904 2056.2 903.7 2056.5 1167.3 2314.9 1137.1 2345.2 1079.1 2403.4 1155.8 2477.8 1066.9 2567.8 Z" data-holc_grade="A"/>
<path d="M 1023.5 1938 1022.9 1937.4 904 2056.2 729.2 2229 729.1 2229.1 708.5 2208.3 411.2 1908.8 411.4 1908.6 412.9 1907 414.3 1905.6 414.6 1845.2 414.7 1819.1 562.9 1814.2 569.3 1814 580 1803.3 727.3 1655 727.4 1655 1023.6 1938 1023.5 1938 Z" data-holc_grade="A"/>
<path d="M 727.3 1655 580 1803.3 569.3 1814 562.9 1814.2 414.7 1819.1 414.6 1845.2 414.3 1905.6 412.9 1907 324.9 1909.1 322.9 1819.1 321.4 1749.5 371.9 1748.7 371.5 1636.1 680.6 1630.8 703.2 1630.4 727.3 1655 Z" data-holc_grade="A"/>
<path d="M 322.9 1819.1 324.9 1909.1 49 1906.4 47.9 1815.1 322.9 1819.1 Z" data-holc_grade="A"/>
</g>
<g id="B">
<path d="M 1026 6.9 1022.2 212.9 1022.2 213.1 1093.4 212.2 1093.4 211 1092.8 186.8 1093.9 186.8 1227.2 184.8 1232.7 55.7 1390.4 53.3 1391.9 176 1426.6 176.5 1426.7 176.5 1429.6 195.5 1428.2 220.4 1428.2 268.3 1389.6 268.9 1389.6 290.5 1390.8 550 1029 553.6 1025.7 375.9 973.3 377 973.3 377.1 666.4 383.8 659.6 73.4 658.2 73.5 652.8 73.6 652.4 12.5 973.1 6.6 1026 6.7 1026 6.9 Z" data-holc_grade="B"/>
<path d="M 1715.9 880.6 1715.9 881.1 1650.9 883.7 1649.1 547.8 1649.1 547.9 1711.8 546.2 1715.5 880.6 1715.9 880.6 Z" data-holc_grade="B"/>
<path d="M 1656.1 1305.8 1521.5 1309 1479.5 1308.3 1479.5 1307.6 1479.4 1298.7 1477.9 1163.3 1652.3 1163 1651.9 1077.4 1792.1 1073.9 1791.8 1302.7 1656.1 1305.8 Z" data-holc_grade="B"/>
<path d="M 2667.3 1177 2668.5 1200.7 2671.1 1269.3 2872 1262.3 2894.9 1260 2897.1 1259.8 2961.4 1260.4 2986.6 1260.6 2996.2 1537.9 2806.3 1546.4 2792.8 1555.3 2753.3 1547.1 2684.1 1551.2 2688.1 1641.8 2688.7 1662.9 2685.9 1708.2 2689.7 1822.1 2632.1 1825.6 2596.6 1823.1 2580.3 1818.6 2504.3 1815.9 2501.6 1697 2501.6 1694.5 2501.5 1694.5 2437.8 1695.9 2437 1663.7 2375.4 1664.7 2371.8 1558.2 2316.7 1561.5 2312.8 1420.7 2191.2 1425.4 2190.8 1415.8 2183 1200.1 2185.1 1072.7 2496.2 1073.6 2497.4 1092.5 2498.2 1131.1 2496.8 1183.2 2667.2 1176.8 2667.3 1177 Z" data-holc_grade="B"/>
<path d="M 1158.6 2660.6 1158.6 2659.8 1066.9 2567.8 1155.8 2477.8 1079.1 2403.4 1137.1 2345.2 1167.3 2314.9 903.7 2056.5 904 2056.2 1022.9 1937.4 1023.5 1938 1225.1 2133.2 1513.3 2412.2 1520 2418.7 1518.9 2419.8 1515.8 2423.1 1357.1 2588 1314.9 2631.8 1309.2 2631.8 1221 2631.6 1175.1 2677.1 1158.6 2660.6 Z" data-holc_grade="B"/>
<path d="M 729.2 2229 729.2 2229.1 1064.9 2565.8 1066.9 2567.8 1158.6 2659.8 1158.6 2660.6 1158.6 2664.6 1157.2 2893.9 1159.7 3072.6 1159.8 3082.5 1157.1 3174.1 1248.2 3175.7 1251.5 3319.3 1470.3 3317.3 1475.2 3317.3 1474.7 3895.6 1477.5 3918.8 1477.6 4016.2 1072.2 4022.4 1068.8 4020.6 1070.4 4001.8 924.4 4004.2 943.4 3956.5 946.8 3926.3 947.3 3895.8 950.5 3832.9 958.6 3796 965.2 3779 977.9 3752.7 998.5 3719 1007.5 3710.6 1027.2 3692.3 1046.8 3666.5 1054.4 3654.9 1065.4 3631.8 1077.9 3601.6 1097.1 3565.5 1109 3550.8 1108.4 3545.9 1250 3545.3 1249.7 3362.6 692.3 3371.1 692.3 3371 691.5 3274.8 690.2 3096.1 688.8 2914.6 687.8 2773.3 686.9 2650.3 686.1 2550.7 509 2553.8 509.8 2008.9 411.2 1908.8 708.5 2208.3 729.1 2229.1 729.2 2229 Z" data-holc_grade="B"/>
<path d="M 49 1906.4 324.9 1909.1 412.9 1907 411.4 1908.6 411.2 1908.8 509.8 2008.9 509 2553.8 138.7 2563.3 134.7 2184.3 45.9 2183.3 44.5 2011.8 2.2 2011.9 1 1905.8 49 1906.4 Z" data-holc_grade="B"/>
</g>
<g id="C">
<path d="M 1477.9 1163.3 1479.4 1298.7 1479.5 1307.6 1479.5 1308.3 1462.7 1307.7 1366.2 1304.1 1304.1 1306 1303.6 1306 1302.1 1293.1 1301.1 1283.5 1299 1265.2 1298.6 1261.2 1298.5 1261.2 1297.3 1261.2 1267.7 1261.8 1125.9 1264.7 1125.9 1264.1 1125.9 1263.5 1125.7 1254.2 1125.6 1248.3 1122.2 1086.2 1121 1024.1 1118.5 906.8 1392.3 902.7 1392.8 1023.8 1475.9 1025.2 1476.1 1034.2 1477.9 1163.3 Z" data-holc_grade="C"/>
<path d="M 850.1 949.9 849.7 1021.9 687.4 1024.4 536.9 708.7 673.4 706.6 675.1 729.7 851.4 729.6 850.1 949.9 Z" data-holc_grade="C"/>
<path d="M 2316.7 1561.5 2316.7 1561.6 2060.9 1573.7 2060.8 1573.7 2020 1289.5 2010.4 1287.2 2005 1071 2185.1 1072.7 2183 1200.1 2190.8 1415.8 2191.2 1425.4 2312.8 1420.7 2316.7 1561.5 Z" data-holc_grade="C"/>
<path d="M 2961.4 1260.4 2897.1 1259.8 2894.9 1260 2872 1262.3 2671.1 1269.3 2668.5 1200.7 2667.3 1177 2984.5 1160.7 2986.5 1260.6 2961.4 1260.4 Z" data-holc_grade="C"/>
<path d="M 2688.1 1641.8 2684.1 1551.2 2753.3 1547.1 2792.8 1555.3 2806.3 1546.4 2996.2 1537.9 2999 1628.6 2777.7 1654.6 2746.8 1657.8 2727.9 1658.7 2688.1 1641.8 Z" data-holc_grade="C"/>
<path d="M 1808.1 2505.2 2060.2 2652.3 2099.5 2677.2 2182.3 2720 2185.5 2897.6 1611.4 2899.3 1609.7 2821.6 1606.3 2799.3 1607.2 2783.5 1607.3 2783.2 1607.8 2779.4 1610.1 2761.4 1610.2 2760.9 1617.3 2718.2 1621.4 2709.4 1632.6 2692 1636.3 2686 1647.7 2665.4 1654.3 2655.8 1672.8 2632.5 1691.3 2621.7 1692.9 2620.1 1696.1 2616.6 1709.8 2600.5 1718.6 2594 1732.2 2577.3 1743.5 2561.8 1745.3 2559.3 1754.5 2542.4 1758.3 2528.1 1783.7 2529.6 1783.9 2504.9 1808.1 2505.2 Z" data-holc_grade="C"/>
<path d="M 1225.1 2133.2 1023.5 1938 1023.6 1938 727.4 1655 727.3 1655 703.2 1630.4 680.6 1630.8 681.3 1522.6 704 1524.9 758.1 1538.1 875.1 1583.6 950.7 1612.2 1026.3 1641.1 1052.5 1654.2 1077.4 1670.7 1094.7 1687.4 1109.2 1710.9 1126.6 1751.9 1135.4 1778 1149.6 1812.3 1156.6 1826.7 1185.9 1862.8 1257.7 1962.2 1292.6 2003.1 1320.5 2035.4 1355.6 2069.3 1350.7 2077.6 1337.9 2088 1310.1 2104.5 1297.6 2109.3 1278 2111 1259.5 2114.6 1245.6 2118.3 1232.6 2125.3 1225.1 2133.2 Z" data-holc_grade="C"/>
<path d="M 1517.4 2854.9 1425.4 2858.2 1425.6 2945.8 1600.5 2943.3 1601.8 3065.8 1432.3 3070.3 1435.2 3240.7 1602.8 3237.2 1605.1 3628.5 1524.4 3627.2 1524 4015.3 1477.6 4016.2 1477.5 3918.8 1474.7 3895.6 1475.2 3317.3 1470.3 3317.3 1251.5 3319.3 1248.2 3175.7 1157.1 3174.1 1159.8 3082.5 1159.7 3072.6 1157.2 2893.9 1158.6 2664.6 1158.6 2660.6 1175.1 2677.1 1221 2631.6 1309.2 2631.8 1314.9 2631.8 1357.1 2588 1515.8 2423.1 1518.9 2419.8 1520 2418.7 1517.4 2854.9 Z" data-holc_grade="C"/>
<path d="M 686.9 2650.3 687.8 2773.3 688.8 2914.6 518.7 2914.9 519.5 3006.5 331.9 3009.7 329.9 2909.7 139.4 2912.6 138.6 2728.8 590 2714 640.3 2714.3 640.6 2650.6 686.9 2650.3 Z" data-holc_grade="C"/>
</g>
<g id="D">
<path d="M 278.5 508.3 278.4 508.3 278.4 508.1 278.5 508.3 Z M 278.5 508.3 297.5 507.6 294.7 381 305.9 380.7 304 221.9 593 215.4 588.7 75.1 652.8 73.6 658.2 73.5 659.6 73.4 666.4 383.8 673.4 706.6 536.9 708.7 394.9 710.9 278.5 508.3 Z" data-holc_grade="D"/>
<path d="M 692.3 3371.1 339.1 3375.1 334.2 3139.7 521.5 3136.5 521.3 3096.7 690.2 3096.1 691.5 3274.8 692.3 3371 692.3 3371.1 Z" data-holc_grade="D"/>
<path d="M 687.4 1024.4 711.2 1074.3 719.5 1091.1 748.7 1150.5 760.3 1165.6 786.7 1210.2 803.7 1228.3 820.3 1241.1 847.1 1264.1 874.3 1285.4 690.1 1285.8 689.7 1269.5 574.7 1270.1 566.2 1276.1 551.3 1293 541.3 1302.7 499.3 1316.7 497.7 1253 544.7 1253.4 545.7 1026.5 467.8 1023.8 468 884 491.4 884.9 491.8 866.7 490.3 861.3 394.9 710.9 536.9 708.7 687.4 1024.4 Z" data-holc_grade="D"/>
<path d="M 1118.5 906.8 1121 1024.1 1122.2 1086.2 719.5 1091.1 711.2 1074.3 687.4 1024.4 849.7 1021.9 850.1 949.9 1028.2 950.7 1028.4 909 1118.5 906.8 Z" data-holc_grade="D"/>
<path d="M 1479.5 1308.3 1521.5 1309 1656.1 1305.8 1656.4 1618.9 1590.8 1623 1590.8 1763.2 1553.9 1760.4 1512.9 1740 1451.4 1647.5 1420 1624.4 1309.3 1625.7 1306.6 1542.7 1398.2 1540 1396.8 1499.2 1033.4 1267.9 1125.9 1263.5 1125.9 1264.1 1125.9 1264.7 1267.7 1261.8 1297.3 1261.2 1298.5 1261.2 1298.6 1261.2 1299 1265.2 1301.1 1283.5 1302.1 1293.1 1303.6 1306 1304.1 1306 1366.2 1304.1 1462.7 1307.7 1479.5 1308.3 Z" data-holc_grade="D"/>
<path d="M 1715.9 880.6 1715.5 880.6 1711.8 546.2 1649.1 547.9 1649.1 547.8 1648.7 483.5 1648.6 455.4 1602.2 456.9 1548.7 458.5 1548.2 343.1 1545.8 317 1546.2 307.4 1545.6 256.4 1544.1 172.4 1554.9 172.5 1556.6 1 1622.9 1 1601.5 93.9 1606.3 97.4 1678.9 95.2 1682.3 170.1 1625 173.2 1630.2 189.4 1658.8 263.5 1698.2 338.8 1741.4 408 1771.4 443.1 1794.9 479.9 1816.3 513.6 1832.6 544.3 1856.4 609.2 1865.7 654.3 1868.4 875.3 1715.9 880.6 Z" data-holc_grade="D"/>
<path d="M 2504.3 1815.9 2506.6 1921.1 2503.9 1979.8 2504.9 2186.2 2384.1 2117.4 2335.6 2096.7 2315.9 2086.9 2312.5 1965.2 2267.7 1935.8 2235 1911.4 2193.8 1873.5 2134.4 1813.6 2095.1 1767.7 2083.7 1743.4 2076.4 1694.6 2060.9 1573.7 2316.7 1561.6 2316.7 1561.5 2371.8 1558.2 2375.4 1664.7 2437 1663.7 2437.8 1695.9 2501.5 1694.5 2501.6 1694.5 2501.6 1697 2504.3 1815.9 Z" data-holc_grade="D"/>
<path d="M 1818.3 1330.5 1921.7 1329.5 1918.3 1312.8 1919.5 1304.9 1924.2 1298.5 1933.8 1297.9 1948.2 1306.5 1970 1332.9 1978.5 1350.2 1984.7 1365.6 1985.3 1392.1 1989.8 1486.8 1965.7 1488.1 1997.6 1622.9 2044.2 1811.6 1951.8 1811.1 1950.8 1769.2 1826.7 1770 1818.3 1330.5 Z" data-holc_grade="D"/>
<path d="M 1808.1 2505.2 1783.9 2504.9 1783.7 2529.6 1758.3 2528.1 1759.9 2516.1 1760 2490.2 1758.7 2474.1 1752.4 2453.5 1743.4 2436.7 1716.2 2402.7 1711.9 2390.7 1712.4 2382.1 1777.2 2411 1777 2370.7 1590.1 2230 1581.3 2222.4 1578.7 2212.4 1583.7 2198.3 1754.3 1988.4 1786.8 2012.8 1787.9 2170.6 1901.5 2179.8 1902.9 2506.3 1808.1 2505.2 Z" data-holc_grade="D"/>
<path d="M 1611.4 2899.3 1552 2900.1 1551.7 2853.2 1517.4 2854.9 1520 2418.7 1513.3 2412.2 1225.1 2133.2 1232.6 2125.3 1245.6 2118.3 1259.5 2114.6 1278 2111 1297.6 2109.3 1310.1 2104.5 1337.9 2088 1350.7 2077.6 1355.6 2069.3 1436.4 2143.3 1470.3 2177.4 1502 2209.3 1524.1 2227.7 1575.3 2276.2 1608.5 2307.7 1640.7 2339.3 1667.1 2365.7 1692.7 2391.5 1713.8 2416.6 1736.8 2444.3 1751.6 2466.1 1758.7 2474.1 1760 2490.2 1759.9 2516.1 1758.3 2528.1 1754.5 2542.4 1745.3 2559.3 1743.5 2561.8 1732.2 2577.3 1718.6 2594 1709.8 2600.5 1696.1 2616.6 1692.9 2620.1 1691.3 2621.7 1672.8 2632.5 1654.3 2655.8 1647.7 2665.4 1636.3 2686 1632.6 2692 1621.4 2709.4 1617.3 2718.2 1610.2 2760.9 1610.1 2761.4 1607.8 2779.4 1607.3 2783.2 1607.2 2783.5 1606.3 2799.3 1609.7 2821.6 1611.4 2899.3 Z" data-holc_grade="D"/>
</g>
</svg>