<?xml version="1.0"?>
<svg xmlns="http://www.w3.org/2000/svg" version="1.2" baseProfile="tiny" width="3000" height="2975" viewBox="0 0 3000 2975" stroke-linecap="round" stroke-linejoin="round">
<g id="B">
<path d="M 1236 368.4 1208.7 398.3 1206.8 431 1182.3 431.9 1121.3 466.3 1087.6 467.2 1048.4 494.5 1012 507.1 977.4 492.6 966.5 458.2 965.6 432.8 957.4 400.1 1041.1 372.9 1106.7 358.4 1178.6 354.8 1236 368.4 Z" data-holc_grade="B"/>
<path d="M 1406.6 1748.2 1405.8 1734.6 1384.8 1694.5 1435.6 1654.4 1458.3 1577.7 1481 1556.8 1542.2 1537.6 1582.5 1537.6 1640.2 1516.7 1701.4 1508 1746.9 1527.2 1767.8 1569 1787.1 1551.6 1837.8 1584.7 1871 1638.7 1876.3 1682.2 1867.6 1760.7 1816.8 1755.4 1815.1 1722.3 1788.8 1691 1788.8 1664.8 1710.1 1678.8 1657.7 1699.7 1610.5 1752 1573.7 1790.3 1517.8 1736.3 1505.5 1746.8 1463.5 1699.7 1406.6 1748.2 Z" data-holc_grade="B"/>
<path d="M 1406.6 1748.2 1407.6 1765.9 1365.6 1795.5 1423.3 1874 1472.6 1904.2 1416.2 1936.9 1416.2 1960.5 1390.6 1995 1392.5 2034.9 1385.2 2065.8 1283.1 2114.8 1326.9 2216.5 1299.5 2260.1 1044.9 2175.4 1073.4 2090 1085.7 2023.8 1085.7 1982 1049 1973.3 1010.5 1983.7 973.8 2027.3 935.3 2067.3 902.3 2074.8 844 2069.4 751.1 2073 751.1 2043.9 713.2 2029.7 692.8 2022.1 732.4 1990.6 755.1 1948.8 790.1 1905.2 860.1 1894.8 905.6 1905.3 973.8 1880.9 1021 1875.7 1108.5 1879.2 1183.7 1832.1 1213.4 1786.8 1229.2 1753.7 1253.7 1732.8 1288.6 1739.8 1318.4 1748.5 1337.6 1739.8 1337.6 1713.6 1349.9 1703.2 1384.8 1694.5 1405.8 1734.6 1406.6 1748.2 Z" data-holc_grade="B"/>
<path d="M 1782 2416.7 1745 2423.4 1721.4 2423.4 1712.2 2457.1 1607.7 2445.2 1573 2467.8 1438.8 2363.5 1505.1 2311 1536.9 2261.6 1644.7 2317.7 1720.2 2336.3 1789.1 2354.7 1782 2416.7 Z" data-holc_grade="B"/>
<path d="M 1565.8 2870.4 1374.8 2893.6 1269.8 2954.6 1224.6 2973.5 1226.1 2912.5 1237.8 2773 1255.3 2694.9 1292.1 2510.1 1286.8 2438.6 1311.3 2438.6 1337.6 2423 1349.8 2632.1 1414.5 2611.2 1472.3 2693.2 1496.3 2677.2 1525 2723.6 1530.8 2764.3 1560 2816.6 1565.8 2870.4 Z" data-holc_grade="B"/>
<path d="M 573.6 1982.2 494.2 1949.4 521.6 1875 470.6 1816.9 485.2 1780.6 522.5 1771.3 558.2 1802.5 635.5 1792.4 646.4 1815.6 562.6 1831.5 564.8 1841.7 591.7 1863.5 639.1 1927.4 644.2 1953.6 612.1 1973.9 573.6 1982.2 Z" data-holc_grade="B"/>
</g>
<g id="C">
<path d="M 957.4 400.1 957.4 357.5 934.6 331.1 900.9 322.1 880.9 323 857.2 310.3 834.5 275.8 870.9 245.9 916.4 222.3 931 199.6 938.3 161.5 983.8 108 1026.6 50.9 1054 1 1132.2 22.8 1190.5 76.3 1240.6 116.2 1278.8 135.3 1283.4 146.2 1270.6 174.3 1252.4 209.6 1256 245 1278.8 279.5 1287 306.7 1275.1 338.5 1236 368.4 1178.6 354.8 1106.7 358.4 1041.1 372.9 957.4 400.1 Z" data-holc_grade="C"/>
<path d="M 1213.4 1786.8 1183.7 1832.1 1108.5 1879.2 1021 1875.7 973.8 1880.9 905.6 1905.3 897.5 1865.6 861 1819.2 831.9 1835.1 798.3 1839.5 773.6 1827.9 754.6 1793 646.4 1815.6 635.5 1792.4 558.2 1802.5 522.5 1771.3 485.2 1780.6 171.9 1517.3 163.3 1395.3 283.5 1403 257.4 1208.1 275.9 1209.2 342.6 1187.4 383.1 1196.1 423.5 1217.9 446.4 1243 457.4 1264.8 471.6 1257.1 491.3 1204.9 561.2 1132 582 1111.3 447.6 975.1 429.1 921.8 416 890.2 391.9 857.5 400.7 837.9 475.2 776.6 473.7 762 543.7 699.7 526.2 667.7 599.1 618.4 626.7 644.5 651.5 641.6 715.6 624.2 762.2 644.6 792.8 685.2 826.3 725.9 829.2 782.5 856.9 865.2 905 926.2 969.1 972.7 1081.2 1045.3 1180.3 1093.2 1288.1 1138.2 1331.9 1164.4 1256.1 1254.4 1250.2 1305.2 1269.2 1348.8 1221.1 1418.4 1277.9 1443.1 1292.5 1467.8 1267.7 1505.6 1237.1 1549.1 1207.9 1586.9 1181.7 1595.6 1164.2 1568 1075.3 1525.9 1053.5 1586.9 1113.2 1737.9 1162.8 1727.7 1213.4 1786.8 Z" data-holc_grade="C"/>
<path d="M 902.3 2074.8 936.9 2127.5 987.9 2156.5 1044.9 2175.4 1299.5 2260.1 1326.9 2216.5 1283.1 2114.8 1385.2 2065.8 1392.5 2034.9 1390.6 1995 1416.2 1960.5 1416.2 1936.9 1472.6 1904.2 1556.5 1949.6 1591.1 1993.2 1638.5 1958.7 1700.3 2044.6 1784.2 2062.2 1802.9 2053.4 1911.3 2086.5 1972.6 2137.1 2002.3 2105.7 2051.3 2137.1 2096.8 2091.7 2117.8 2105.7 2119.5 2117.9 2203.5 2220.7 2231.5 2248.6 2327.7 2279.9 2299.8 2381 2264.8 2422.9 2180.8 2431.6 2133.6 2454.3 2114.3 2489.1 2098.6 2590.2 2053.2 2672.2 2002.4 2694.8 1923.7 2625.1 1846.7 2576.3 1764.4 2546.7 1654.2 2527.5 1621 2511.9 1603.5 2543.2 1552.8 2572.9 1540.5 2595.5 1514.3 2665.3 1496.3 2677.2 1472.3 2693.2 1414.5 2611.2 1349.8 2632.1 1337.6 2423 1311.3 2438.6 1286.8 2438.6 1292.1 2510.1 1255.3 2694.9 1229.1 2696.6 1206.3 2717.5 1197.6 2764.6 1131.1 2857 1113.6 2860.5 1082.1 2830.8 1041.8 2870.9 905.4 2780.2 725.2 2595.4 704.2 2607.6 697.2 2637.2 690.2 2673.9 670.9 2743.6 648.1 2783.7 707.6 2815.1 677.9 2874.3 560.6 2820.2 569.4 2715.6 511.7 2715.6 520.5 2665.1 478.5 2687.7 441.7 2689.5 443.5 2647.6 433 2607.5 483.8 2583.1 524 2537.8 524 2478.6 497.8 2412.3 466.3 2384.4 394.6 2368.7 356.1 2328.6 352.7 2295.5 342.2 2288.5 293.2 2314.6 252.9 2356.4 191.7 2396.5 142.7 2403.4 29 2368.5 1 2349.3 2.8 2338.9 95.5 2286.6 39.6 2190.7 26.5 2148.2 207.8 2014.9 146 1859.6 171.5 1842.4 258.6 1683.6 259.6 1660.9 186.7 1560.2 164.9 1536.6 171.9 1517.3 485.2 1780.6 470.6 1816.9 521.6 1875 494.2 1949.4 573.6 1982.2 599.9 1993 638.1 2003.9 667.3 2027.6 692.8 2022.1 713.2 2029.7 751.1 2043.9 751.1 2073 720.1 2136.5 707.3 2178.2 716.4 2310.8 752.8 2332.6 791.1 2334.4 829.4 2354.4 929.6 2350.8 982.4 2350.8 1035.3 2365.3 1122.7 2401.7 1144.6 2381.7 1168.3 2316.3 1141 2252.8 1040.8 2229.2 1009.8 2227.3 977 2214.6 931.4 2211 887.7 2156.5 860.4 2134.7 827.6 2132.9 844 2069.4 902.3 2074.8 Z M 1789.1 2354.7 1720.2 2336.3 1644.7 2317.7 1536.9 2261.6 1505.1 2311 1438.8 2363.5 1573 2467.8 1607.7 2445.2 1712.2 2457.1 1721.4 2423.4 1745 2423.4 1782 2416.7 1789.1 2354.7 Z" data-holc_grade="C"/>
<path d="M 2214.3 1645.7 2220.6 1654 2221.8 1680 2188.6 1709.6 2161.3 1722.6 2124.5 1768.7 2107.1 1785 2085.3 1805.4 2037.8 1814.9 1996.2 1807.8 1976.1 1781.8 1974.9 1762.8 2021.2 1708.4 1996.2 1694.2 1932.1 1673 1902.4 1674.1 1891.7 1663.5 1896.5 1639.8 1890.5 1611.5 1902.4 1579.5 1935.7 1555.9 1960.6 1540.5 1980.8 1538.1 2004.5 1531 2057.9 1547.5 2104.2 1572.4 2142.2 1593.7 2183.8 1605.5 2214.3 1645.7 Z" data-holc_grade="C"/>
</g>
<g id="D">
<path d="M 2107.1 1785 2124.5 1768.7 2161.3 1722.6 2188.6 1709.6 2221.8 1680 2220.6 1654 2214.3 1645.7 2283.5 1619.6 2314.4 1596 2353.5 1517.9 2397.4 1488.3 2456.8 1454 2500.7 1406.7 2568.3 1372.3 2603.9 1364 2729.8 1316.7 2758.2 1303.7 2779.6 1302.5 2849.3 1253.7 2874.4 1229.7 2889.7 1185.1 2878.8 1149.1 2864.5 1111 2873.2 1070.7 2971.6 1044.6 2999 1203.5 2972.8 1261.2 2964.1 1340.7 2960.9 1393 2968.5 1411.5 2958.7 1467.1 2954.4 1512.8 2926 1558.6 2917.3 1629.4 2906.4 1667.5 2941.4 1719.7 2940.3 1731.7 2907.5 1738.3 2852.8 1711.1 2828.8 1698 2786.1 1695.9 2755.5 1680.6 2665.9 1673 2634.2 1691.6 2630.9 1714.4 2606.9 1733 2531.4 1735.2 2550 1700.3 2535.8 1687.3 2531.4 1675.3 2519.4 1662.2 2466.9 1644.8 2414.4 1651.4 2351 1644.9 2307.3 1686.3 2249.4 1711.3 2211.2 1736.4 2205.7 1754.9 2218.8 1770.1 2252.7 1776.7 2278.9 1773.4 2306.3 1779.9 2340.1 1747.2 2358.7 1752.7 2376.2 1771.2 2405.7 1782.1 2441.8 1782 2463.7 1779.9 2484.5 1789.7 2506.3 1797.3 2538 1791.8 2561 1797.3 2580.7 1803.8 2575.2 1819 2549 1829.9 2503.1 1837.6 2481.2 1850.7 2403.6 1879 2393.8 1888.8 2413.4 1906.2 2433.1 1921.5 2464.8 1929.1 2483.4 1936.7 2491.1 1951.9 2566.5 1876.8 2588.3 1874.6 2598.2 1897.4 2608 1902.9 2622.2 1900.7 2625.5 1915.9 2638.7 1930.1 2533.8 2045.6 2535.9 2057.6 2604.8 2094.6 2656.2 2143.6 2635.5 2189.3 2606 2228.6 2568.8 2263.4 2569.9 2222 2554.6 2198.1 2592.8 2155.6 2516.3 2104.4 2520.6 2071.7 2462.7 2031.5 2446.3 2009.7 2447.4 1975.9 2434.2 1961.8 2402.5 1948.7 2363.2 1917.1 2321.6 1898.6 2281.2 1883.4 2242.9 1904.1 2198.1 1899.8 2163.1 1860.6 2153.2 1834.4 2146.7 1814.8 2107.1 1785 Z" data-holc_grade="D"/>
</g>
</svg>