<?xml version="1.0"?>
<svg xmlns="http://www.w3.org/2000/svg" version="1.2" baseProfile="tiny" width="3000" height="4368" viewBox="0 0 3000 4368" stroke-linecap="round" stroke-linejoin="round">
<g id="C">
<path d="M 1451.9 3279.6 1524.1 3304.7 1539.5 3393.5 1650.1 3378.2 1785.4 3335.3 1936 3359.8 1871.4 3604.8 1736.2 3577.2 1557.9 3626.2 1373.5 3871.2 1198.3 3828.3 1451.9 3279.6 Z" data-holc_grade="C"/>
<path d="M 2478.3 3275.4 2645.9 3368.9 2618.3 3574 2667.6 3993.6 2701.4 4302.9 2695.3 4351.9 2624.6 4342.7 2541.6 4367.2 2458.6 4339.7 2378.7 4306 2277.2 4321.3 2163.5 4241.7 2092.8 4180.5 2040.5 4235.6 1905.3 4152.9 1865.3 4012.1 1899.1 3978.4 2040.5 3730.3 2145 3546.6 2234.1 3378.1 2338.6 3197.4 2478.3 3275.4 Z" data-holc_grade="C"/>
<path d="M 1451.9 3279.6 1198.3 3828.3 1373.5 3871.2 1557.9 3626.2 1736.2 3577.2 1871.4 3604.8 1936 3359.8 2234.1 3378.1 2145 3546.6 2040.5 3730.3 1899.1 3978.4 1803.8 3941.6 1717.8 3978.4 1656.3 4079.5 1539.5 4131.5 1441.1 4143.8 1382.7 4125.4 1063.1 3984.5 522.1 3757.8 448.4 3770 402.2 3809.8 390 3696.5 316.2 3641.4 257.9 3518.9 1 3159 52.1 3038.1 124.3 2792.5 499.2 2912 1451.9 3279.6 Z" data-holc_grade="C"/>
</g>
<g id="D">
<path d="M 2478.3 3275.4 2338.6 3197.4 2409.1 3052.7 2268.5 2993 1865.1 2993 1816.7 3071.1 1858.2 3153.8 1858.2 3220.4 1611.6 3326 1524.1 3304.7 1451.9 3279.6 499.2 2912 124.3 2792.5 277.2 2413.2 324.2 2296.6 588.6 1644.6 819.1 1167.1 880.5 1056.9 690.1 796.7 490.5 490.6 942.1 1 1350.6 698.8 1553.3 821.2 1365.9 913.1 1215.4 977.3 1074.1 1108.9 929.6 1289.5 828.2 1445.6 769.8 1601.7 812.8 1672.2 981.8 1794.6 1187.7 1978.3 1375.1 2171.2 1562.5 1993.6 2035.7 2260 1951.9 2395.9 2335.2 2478.6 2678.7 2595.6 2777.8 2636.9 2975.9 2207.5 2999 2522.1 2711 3103.1 2558.9 3038.9 2478.3 3275.4 Z" data-holc_grade="D"/>
</g>
</svg>