<?xml version="1.0"?>
<svg xmlns="http://www.w3.org/2000/svg" version="1.2" baseProfile="tiny" width="3000" height="1824" viewBox="0 0 3000 1824" stroke-linecap="round" stroke-linejoin="round">
<g id="A">
<path d="M 1743.4 372.9 1753.3 426.9 1754 483.9 1697.5 482.3 1678 473.8 1662.5 450.3 1643 433.8 1620.2 414.6 1591.9 408.8 1561.7 396 1537.5 382.1 1520 369.4 1502.5 276.1 1499.6 260.8 1719.8 253.2 1724.4 269.7 1743.4 372.9 Z" data-holc_grade="A"/>
<path d="M 295.7 380 295.4 387.5 300.2 399.9 305.9 418 288.7 423.1 273.6 424.6 266.1 421.8 257.5 420.4 234.4 425.9 213.9 427.6 188.9 423.3 167.7 421.6 144.3 431.4 128.4 442.9 104.8 446.4 100.4 431.2 126.3 414 134.1 405 144 385.2 155.6 373.3 167.1 365.6 187 360 205.7 353.5 208.1 357.4 213.9 357.2 271 331.5 282.2 343.2 289.6 358.5 295.7 380 Z" data-holc_grade="A"/>
<path d="M 703.5 449.9 731.4 464 720.6 484.2 710.2 481.9 674 531.6 683 537.6 673.3 549 737.5 577.7 694.4 638.5 708.8 646.2 645.7 732.6 551.4 690.2 546.7 703 518.4 715.5 510.5 725.5 501.9 726.9 496.9 720.6 505.8 703.6 523 678.9 504.8 650.2 511.6 641.9 543.1 627.1 570.4 605.8 585.8 599.6 544.2 578.5 532 594.7 514.4 606.4 497.2 625.1 488.6 641.9 480 664.7 468.9 674.3 458.9 684 452.8 676 443.1 666.1 445.2 657.3 458.1 643.6 466.4 624 472.1 611.2 494.4 587.9 506.2 569.2 480.7 568 455.6 562.6 452.1 579.7 432.7 601.3 416.6 620.6 406.9 624.3 401.5 617.8 407.9 607.2 437.3 572.3 439.5 558.4 364.2 551.5 344.5 569.2 337.7 582.2 331.2 591.3 316.9 606.7 314.7 619.5 309 624.6 299.3 626.3 293.9 622.3 296.8 602.4 310.4 589.9 322.3 577.7 327.6 564.6 316.2 568.9 302.9 571.7 281.4 573.1 268.5 570.6 265.6 572.3 264.5 588.2 271 595.9 272.4 607.5 268.8 614.6 261.3 621.5 249.5 627.1 231.5 627.1 209 628 198.2 624.9 201.4 607.5 198.9 596.4 195.7 580.8 189.6 572.3 129.7 573.4 116.8 572.3 108.9 566.3 101 565.5 94.9 571.4 87.1 575.7 75.6 574.3 67.7 578.8 55.9 585.1 27.9 595.6 3.5 602.7 1 599.9 9.6 593 37.9 582.2 59.8 576.8 70.6 567.2 79.2 563.5 93.1 561.8 101.8 555.2 129.4 565.2 143 566.3 178.8 563.8 201.8 561.2 212.5 560.4 268.5 560.4 300.7 556.9 325.1 551.3 353.8 545.3 364.8 539.1 371.5 539 440.7 548.4 473.2 503.8 501.8 464.7 579.3 500.7 640.3 418 703.5 449.9 Z" data-holc_grade="A"/>
<path d="M 1064.3 544 1011.2 592.8 993.3 611.3 947.8 675.2 920.4 663.5 855.3 635.5 806.9 614.7 767.1 671.2 736.2 657.3 834.5 518.2 882.5 541.7 929.9 487.6 1064.3 544 Z M 1078.6 530.8 952.2 458.1 1006.9 397.6 1115.2 499.6 1078.6 530.8 Z" data-holc_grade="A"/>
<path d="M 736.2 657.3 767.1 671.2 908.9 740.1 903.2 749.5 974.6 778.8 967 839.6 956.3 877.4 945.2 909.5 944.1 939.4 948 958.1 950.9 987.7 955.6 1010.7 958.1 1041.4 951.3 1077.5 941.2 1098.3 926.2 1082.9 922.9 1061.6 920.1 1056.2 892.8 1060.5 844.1 1061.6 828.3 1042.6 827.2 1025.5 826.8 992 816.8 964.1 801 945.1 787.8 932 760.9 917.2 715.7 897 692.4 885.6 677.8 873.6 659.9 865.1 622.4 854.9 581.5 851.8 554.6 852.2 645.7 732.6 708.8 646.2 736.2 657.3 Z" data-holc_grade="A"/>
<path d="M 792.7 1193.9 796.3 1184.3 838 1179 864 1182.9 889.9 1193.9 908.3 1208.8 918.6 1229.8 921.3 1252.2 915.9 1266 946.9 1288.4 983.6 1275.6 1041 1261.4 1082.2 1289.1 1149.9 1335 1111.3 1395.1 1070.6 1391.2 1051.7 1378.4 1043.7 1363.1 997.1 1338.5 911.9 1300.5 898.5 1277.1 835.7 1238 829.9 1220.9 810.6 1201.7 792.7 1193.9 Z" data-holc_grade="A"/>
<path d="M 1963.2 372.5 1961.2 420.3 1877.1 447.5 1864.1 450.3 1842.6 457.8 1825.9 372.5 1821.4 352.5 1917.2 347.6 1926.7 374.2 1963.2 372.5 Z" data-holc_grade="A"/>
</g>
<g id="B">
<path d="M 295.7 380 289.6 358.5 282.2 343.2 271 331.5 213.9 357.2 208.1 357.4 205.7 353.5 161.7 279.3 157.9 170.6 190.4 170.5 199.3 205.3 251.9 239.5 302.8 309.6 327.9 342.7 305.8 371.4 295.7 380 Z" data-holc_grade="B"/>
<path d="M 1612.5 1453 1375.2 1544.8 1352.1 1500.1 1336 1424.8 1404.1 1396.3 1585.9 1393.8 1621.4 1448.7 1612.5 1453 Z" data-holc_grade="B"/>
<path d="M 1520 369.4 1323.9 370.3 1326.1 292.1 1435 290 1435.5 278.6 1502.5 276.1 1520 369.4 Z" data-holc_grade="B"/>
<path d="M 1466.4 128.1 1527.3 122.8 1676.6 118.5 1663.1 62.4 1683.7 60.7 1719.8 253.2 1499.6 260.8 1490.1 219.9 1475 192.8 1471.6 140.9 1466.4 128.1 Z" data-holc_grade="B"/>
<path d="M 1683.7 60.7 1663.1 62.4 1676.6 118.5 1527.3 122.8 1466.4 128.1 1431.9 50.4 1418.4 4.9 1669.8 1 1671.2 16.6 1677.9 18.4 1683.7 60.7 Z" data-holc_grade="B"/>
<path d="M 1743.4 372.9 1724.4 269.7 1719.8 253.2 1683.7 60.7 1755.3 52.4 1767.1 111.9 1783.3 193.1 1791.7 252.1 1861.2 249.5 1904.9 258.8 1943 259.2 1963.2 372.5 1926.7 374.2 1917.2 347.6 1821.4 352.5 1825.9 372.5 1743.4 372.9 Z" data-holc_grade="B"/>
<path d="M 1754 483.9 1753.3 426.9 1743.4 372.9 1825.9 372.5 1842.6 457.8 1828.3 481.9 1856.1 483.7 1864.1 450.3 1877.1 447.5 1870 484.4 1886.1 488 1887.9 518.9 1904 527.4 1905.4 537.7 1897.3 545.9 1905.4 571.1 1928.2 593.1 1937.2 610.9 1939 635.8 1874.4 633.3 1858.7 579.6 1833.6 580 1793.3 626.9 1767.3 522.8 1756.6 522.4 1754 483.9 Z" data-holc_grade="B"/>
<path d="M 443.7 295.1 525.4 348.2 517.8 360.8 557.5 386.8 527.9 429 501.8 464.7 473.2 503.8 440.7 548.4 371.5 539 364.8 539.1 347.5 494.4 341.2 473.3 338.1 458.3 330.5 445.5 319 433.1 305.9 418 300.2 399.9 295.4 387.5 295.7 380 305.8 371.4 327.9 342.7 395.6 264.6 423 281.1 377.1 339.2 428.4 373.1 459.9 328.4 426.5 305.3 438.4 291.3 443.7 295.1 Z" data-holc_grade="B"/>
<path d="M 525.4 348.2 443.7 295.1 454.8 282.5 495.4 226 502.3 205.4 508.2 170.6 530.8 155.2 620.2 177.9 653.6 201.5 663.5 206.2 684.8 188.2 714.6 211.1 752.2 175.6 769.5 187.9 670.9 288.5 718.1 316.8 696.4 337.6 625.8 296.5 569.6 355.9 536.4 338.5 525.4 348.2 Z" data-holc_grade="B"/>
<path d="M 1006.9 397.6 952.2 458.1 1078.6 530.8 1064.3 544 929.9 487.6 882.5 541.7 834.5 518.2 805.9 504.2 748.9 581.3 737.5 577.7 673.3 549 683 537.6 674 531.6 710.2 481.9 720.6 484.2 731.4 464 703.5 449.9 757.5 385.3 793 402.1 798.4 395.9 696.4 337.6 718.1 316.8 815.9 373.1 883.4 304.9 914.5 308.3 932 271.7 991.5 291.7 967.8 342.8 970.2 347.5 1018.1 385.3 1006.9 397.6 Z M 932.9 218.1 893.4 262.5 861.6 240.9 898.4 195.8 932.9 218.1 Z M 936.5 63.3 924.4 98.8 867 88.2 830.3 52.6 849.1 42.4 867.5 38.8 893 44.5 909.1 55.5 925.3 60.1 936.5 63.3 Z" data-holc_grade="B"/>
<path d="M 920.4 663.5 907.9 682.5 843.7 657.8 855.3 635.5 920.4 663.5 Z M 1308.7 744.4 1262.8 729.4 1229.1 789.1 1276.1 809.2 1271.1 818 1037.7 731.4 1051.6 702.9 1109 646.4 1154.9 606 1325.2 711.7 1308.7 744.4 Z M 1349.9 670.2 1329.9 679.3 1236.6 623.1 1175.7 586.4 1203.3 562.5 1349.9 670.2 Z M 1092.8 608.9 998.9 698.8 975 687.7 1012.1 634.9 1010.2 629.7 1136.6 511 1174.8 532.1 1142.3 565.8 1092.8 608.9 Z" data-holc_grade="B"/>
<path d="M 1027.4 1006.7 1106.7 1037.9 1046 1069.7 1009.2 1054.8 974.7 1085.6 976.5 1060.5 973.1 1027.8 964.4 1004.2 1002.5 1027.8 1027.4 1006.7 Z" data-holc_grade="B"/>
<path d="M 1206.4 1008.3 1259.4 1014.9 1201.6 1121.1 1163.7 1112.3 1169.3 1101.9 1166.6 1083.3 1206.4 1008.3 Z" data-holc_grade="B"/>
<path d="M 1111.3 1395.1 1133.3 1404.4 1101 1463.9 1019.6 1451.1 955.4 1418.3 861.1 1370.3 840.3 1363.8 781.5 1316.8 752.5 1293.2 730.6 1283.6 698.3 1265.4 771.5 1202.8 792.7 1193.9 810.6 1201.7 829.9 1220.9 835.7 1238 898.5 1277.1 911.9 1300.5 997.1 1338.5 1043.7 1363.1 1051.7 1378.4 1070.6 1391.2 1111.3 1395.1 Z" data-holc_grade="B"/>
<path d="M 1101 1463.9 1145.1 1472.3 1145.1 1477.2 1100.3 1528.6 1117.8 1537.4 1179.1 1424 1133.3 1404.4 1111.3 1395.1 1149.9 1335 1163.7 1347.5 1253.7 1427.1 1277.4 1535.5 1255.9 1569.3 1271.6 1618.5 1197.4 1627 1197.8 1579.5 1250.8 1575.6 1249 1567 1196.7 1545.4 1156.2 1571.9 1089.9 1572.4 1036.4 1566.2 1006 1564.7 978.4 1558.7 1008.5 1486.1 1019.6 1451.1 1101 1463.9 Z" data-holc_grade="B"/>
</g>
<g id="C">
<path d="M 251.9 239.5 199.3 205.3 190.4 170.5 197.4 126.2 199 101.1 196.9 82.8 193.9 67.4 155.7 44.7 180.7 16.9 255.7 13.2 374.4 63.5 334.3 100.2 264.6 62.4 255.9 70.2 287 90.3 256.6 151.5 320 183.8 347.1 158.6 400 182.4 355.8 230.7 370.2 241.4 324.7 286.8 251.9 239.5 Z" data-holc_grade="C"/>
<path d="M 2225.8 510.5 2218.2 540.9 2257.4 548.4 2266.1 518.5 2300.1 522.2 2316 522.4 2353.3 543.7 2385.2 556.8 2309.6 653.4 2279.8 641.8 2272.7 649.8 2281.3 654.9 2270.9 669.4 2291.9 677.7 2308.9 684.4 2268.9 738.1 2193.8 704.5 2203.8 677.3 2214.9 653.7 2300.6 576.7 2294.9 572.7 2143.9 544.6 2140.7 545.4 2142.2 565.1 2139.6 575 2150.8 580.4 2133.9 618.2 2136.4 642.4 2131.4 662.3 2132.5 683.1 2088.2 684.1 2053.2 681.6 2054 668.8 2070.1 668.5 2070.8 636.7 2053.2 636.1 2052.9 620.2 2055.7 590.9 2061.8 509.1 2130.8 512 2132.3 500.3 2176 501.2 2193.6 503.8 2225.8 510.5 Z" data-holc_grade="C"/>
<path d="M 2384.9 580.3 2397.2 563.5 2400.2 555.4 2401.8 550.2 2381.8 525.9 2347.1 515.4 2326.3 481.5 2302.5 443.3 2255 297.5 2254.8 297.5 2319.2 295.7 2328.7 220.2 2402.7 225.1 2392 301.5 2434.1 329.9 2444.1 282.4 2544.4 297.9 2482.2 353 2612.8 373.4 2659.8 393.8 2722 444.9 2700.2 478.6 2653.1 457.8 2638.5 459.1 2573.6 424.9 2559 420 2478.3 461.8 2432.4 407.6 2422.3 488.4 2422.3 496 2431.3 501.3 2483.4 473.8 2508 538.6 2384.9 580.3 Z M 2334.5 428.2 2370.9 445.1 2386.7 422.8 2349.9 406.7 2334.5 428.2 Z" data-holc_grade="C"/>
<path d="M 2550.7 1569.9 2607.4 1570.1 2608.1 1545.1 2589.9 1544.8 2589.5 1535.1 2767.7 1534.6 2773.3 1553.9 2747.1 1553.9 2747.1 1568.4 2790.5 1598.9 2793.4 1659.4 2793.7 1747.6 2731 1727.1 2686.2 1686.5 2651 1662.8 2607.7 1662 2605.9 1644.4 2526.3 1643.2 2524.5 1615.9 2534.9 1607.7 2550.7 1613.9 2550.7 1569.9 Z" data-holc_grade="C"/>
<path d="M 2924.2 1511.5 2914.2 1513.5 2848.4 1539.4 2843.2 1542.9 2833.1 1549.7 2800 1562.9 2774.9 1518.8 2745.3 1496.4 2710.3 1457.7 2685.7 1435.6 2758.3 1401.1 2778.4 1384.8 2791.9 1386.9 2823.7 1371.6 2859.1 1412.2 2908.4 1471.2 2941.6 1461.9 2958.2 1504.9 2924.2 1511.5 Z" data-holc_grade="C"/>
<path d="M 2843.2 1542.9 2848.4 1539.4 2914.2 1513.5 2924.2 1511.5 2945.6 1563.5 2958.5 1564.9 2977.5 1611.5 2970.3 1613.5 2999 1685.2 2949.5 1707.9 2884.3 1654.2 2896.5 1590.5 2873.9 1595 2843.2 1542.9 Z" data-holc_grade="C"/>
<path d="M 1349.9 670.2 1386.4 693.1 1644.9 849.2 1631.3 866.2 1765.1 947.5 1756.5 956.1 1724.2 937.3 1707 952.4 1706.6 968.3 1599.4 966 1307.6 856.6 1286.5 890.2 1230.8 869.5 1237.6 857.1 1020 767.9 1037.7 731.4 1271.1 818 1276.1 809.2 1311.1 747.1 1308.7 744.4 1325.2 711.7 1154.9 606 1175.7 586.4 1236.6 623.1 1329.9 679.3 1349.9 670.2 Z" data-holc_grade="C"/>
<path d="M 1106.7 1037.9 1027.4 1006.7 1034.8 996.6 1038 985.1 989.1 965.2 1014.6 954.6 1028.6 943.9 1054.4 928.8 1070.3 917.3 1080.8 903.2 1077.8 898.3 1034.5 884 1025.9 891.5 1035.3 900 1003.3 933 963 970.4 959.8 951.6 970.3 899.4 1000.1 865.9 1044.7 809 1227.9 873.6 1230.8 869.5 1286.5 890.2 1263.1 930.5 1173.3 901.1 1164.1 933.5 1152.8 961.2 1139.1 1004.7 1130.8 1031.5 1106.7 1037.9 Z" data-holc_grade="C"/>
<path d="M 1426.6 1048.9 1399.7 1098.1 1435.2 1110.3 1420.9 1132.8 1313.3 1096.4 1321.9 1069.1 1315.5 1054.3 1338.1 1012.2 1259.5 983.5 1282.9 939.2 1297.9 945.2 1297.6 948.8 1307.9 952.8 1340.6 895.1 1418 921.6 1361.7 1024.5 1426.6 1048.9 Z" data-holc_grade="C"/>
<path d="M 1019.6 1451.1 1008.5 1486.1 978.4 1558.7 967.2 1581.4 959.4 1605.3 928.2 1581.1 897.3 1473.1 955.4 1418.3 1019.6 1451.1 Z" data-holc_grade="C"/>
<path d="M 1687 1572.1 1698.8 1648.3 1686.7 1656.6 1646.5 1618.8 1585.5 1658 1624.6 1699 1523.9 1767.8 1512.8 1776.3 1485.2 1809.9 1293.3 1809.9 1290.1 1807 1354.3 1767.8 1363.3 1769.5 1682.4 1568.1 1687 1572.1 Z M 1526.5 1568.5 1491.1 1580.3 1498.7 1621.5 1483 1631.8 1486.6 1645.7 1526 1623.3 1550.7 1622.6 1357.5 1745.2 1344.5 1734.2 1316.3 1749.1 1337.8 1639.3 1277.7 1648.9 1271.6 1618.5 1255.9 1569.3 1277.4 1535.5 1284.4 1534.8 1359.7 1550.8 1375.2 1544.8 1612.5 1453 1629.1 1481.4 1552.2 1514 1509 1532.3 1526.5 1568.5 Z" data-holc_grade="C"/>
<path d="M 1789.7 87.1 1787.2 90.1 1787.8 129.6 1794.5 161.1 1794.5 169.5 1794.5 182.4 1830.9 183.3 1949.1 252.6 1943 259.2 1904.9 258.8 1861.2 249.5 1791.7 252.1 1783.3 193.1 1767.1 111.9 1755.3 52.4 1786.7 47.9 1795.1 80.3 1789.7 87.1 Z" data-holc_grade="C"/>
<path d="M 2259.9 400.9 2248.4 404.3 2263.1 451.2 2274.3 476.5 2288.2 500.1 2300.1 522.2 2266.1 518.5 2261 518 2225.8 510.5 2193.6 503.8 2176 501.2 2132.3 500.3 2131.2 487 1977.4 479.6 1975.2 492.1 1886.1 488 1870 484.4 1877.1 447.5 1961.2 420.3 1983.5 405.4 2020.1 391.8 2034.4 382.4 2055.5 367.4 2071.3 372.8 2077.8 365.6 2117.9 382.7 2125.8 374.5 2146.6 387.5 2141.2 394.1 2161 404.9 2184.3 408.3 2188.2 397.5 2198.6 398.6 2199.3 379 2202.2 360.2 2211.9 323.6 2224.4 323.6 2224.1 314.2 2233.4 314.2 2248.8 365.6 2259.9 400.9 Z" data-holc_grade="C"/>
<path d="M 1939 635.8 1939.6 651.5 1922.7 660 1905.5 654 1894.8 643.8 1879.7 649.2 1874.4 633.3 1939 635.8 Z M 2061.8 509.1 2055.7 590.9 2052.9 620.2 2037.5 619.6 2034.9 667.4 2054 668.8 2053.2 681.6 1973.6 675.8 1974 644.1 1980.1 626.7 1972.6 633.3 1963.2 632.7 1957.9 624.7 1958.9 610 1927.4 566.8 1928.8 549.7 1916.6 547.4 1916.6 520.7 1908.7 519.9 1904 527.4 1887.9 518.9 1886.1 488 1975.2 492.1 1975.8 503.7 2061.8 509.1 Z" data-holc_grade="C"/>
</g>
<g id="D">
<path d="M 2152.7 876.9 2166.1 990.1 2128.2 1032.7 2050.8 985 2033.5 1001.2 1976.3 965.8 1994 948.3 2008.8 954.9 2015.5 947.7 2002.9 938.3 2031.7 908 2054 884.3 2076.6 897.3 2111 861.5 2128.7 869.4 2152.7 876.9 Z M 1738.4 757.2 1799.5 790.4 1783.9 808.7 1831.2 837.1 1859.4 945.8 1776.9 895.9 1792.5 876.8 1713.7 830.3 1665.3 801.7 1702.6 764.8 1720.4 774 1738.4 757.2 Z M 2181.7 762 2187.6 712.9 2193.8 704.5 2268.9 738.1 2247.4 766.9 2236.4 763.3 2222.8 779.3 2181.7 762 Z M 1667.4 734.1 1644.1 754.9 1567 708.8 1585.3 690.1 1667.4 734.1 Z M 2181.7 762 2179.6 774.3 2194.9 779 2187.1 792.7 2190.1 806.3 2183.4 813.1 2153.8 797.6 2165.3 786.7 2156.2 782.8 2143.8 782.2 2135.8 774.7 2090.6 774.7 2090.6 760.7 2085.2 759.6 2086 730 2055.6 728.9 2053.5 763.4 2036.3 763 2030.6 769.8 2021.2 769.8 2020.4 754.7 2013.7 754.3 2014.2 733.6 1996.5 733.2 1996.2 741.9 1971.2 741.7 1971.2 756.4 1993.8 759.2 1992.4 800.5 2004.1 792 2051.2 805.4 2074.9 837.4 2042.9 830.8 1914.9 969.2 1905.2 964.9 1872.9 841.5 1892.8 838.7 1915.1 931.2 1927 938.5 1938.8 927.4 1929.7 828 1966.2 827.2 1987.9 803.1 1905 801 1905.8 781.6 1893.5 776.7 1894.3 677.5 1883 672 1883.8 654.9 1904.5 669.7 1914.7 671.1 1923.9 668.6 1929 668.6 1941.1 665.2 1939.7 722.3 1968.8 725.3 1973.6 675.8 2053.2 681.6 2088.2 684.1 2132.5 683.1 2144.1 707 2139.3 738.1 2132 755.3 2181.7 762 Z M 1757 577.2 1785.4 704.9 1669.6 721.6 1597.1 675.3 1617.2 654 1637.7 664.8 1669.2 658.2 1715.8 616.5 1668.5 616.2 1663.1 577.5 1757 577.2 Z" data-holc_grade="D"/>
<path d="M 1526.5 1568.5 1571.3 1551 1552.2 1514 1629.1 1481.4 1635.1 1481.6 1661 1528 1536.5 1579.2 1551.2 1615.3 1550.7 1622.6 1526 1623.3 1486.6 1645.7 1483 1631.8 1498.7 1621.5 1491.1 1580.3 1526.5 1568.5 Z M 1696.4 1402.9 1625.8 1430.5 1605.7 1392.4 1668.1 1358.3 1696.4 1402.9 Z" data-holc_grade="D"/>
<path d="M 1703.8 1418.4 1720.8 1412.4 1737.7 1428.2 1824.6 1376.8 1830.5 1381.1 1841.3 1375.1 1863.3 1393.9 1878.6 1384.1 1900.7 1405.6 1732.9 1509.5 1718.9 1485.1 1696.3 1444.8 1703.8 1418.4 Z" data-holc_grade="D"/>
<path d="M 1914.7 1419.6 1973.5 1477.8 1860.9 1550.3 1990.9 1678.7 1950.5 1707.1 1969 1728 2013.3 1727.6 2017.2 1773.8 1876 1780.9 1876 1820.9 1824.5 1823.1 1778 1502.3 1914.7 1419.6 Z" data-holc_grade="D"/>
<path d="M 1794.5 169.5 1794.5 161.1 1787.8 129.6 1787.2 90.1 1789.7 87.1 1845.5 104.2 1869.2 51.9 1996.5 92 1995 100.5 1940.2 190.6 1885.7 198.5 1849.1 176.4 1835.1 171 1794.5 169.5 Z" data-holc_grade="D"/>
<path d="M 2077.1 87.5 2142.6 66.2 2156.5 97.5 2230.4 224.3 2213.8 268.6 2141.2 270.1 2142.1 238.8 2139 238.8 2077.6 283.9 2040.8 305.6 1987.9 272.9 2023.8 171.7 2058.7 171 2069.1 118.1 2077.1 87.5 Z" data-holc_grade="D"/>
<path d="M 2316 522.4 2300.1 522.2 2288.2 500.1 2274.3 476.5 2263.1 451.2 2248.4 404.3 2259.9 400.9 2277.5 455.2 2316.2 518.3 2316 522.4 Z M 2077.8 365.6 2120.6 317.8 2151 314.6 2194.5 314.2 2224.1 314.2 2224.4 323.6 2211.9 323.6 2202.2 360.2 2199.3 379 2198.6 398.6 2188.2 397.5 2184.3 408.3 2161 404.9 2141.2 394.1 2146.6 387.5 2125.8 374.5 2117.9 382.7 2077.8 365.6 Z" data-holc_grade="D"/>
<path d="M 2544.6 704.6 2494.8 781.4 2427 770.3 2434.3 810.3 2462.8 830.7 2513.8 844.5 2540.2 789 2714.4 830.3 2684.1 884.9 2657.2 877.8 2625.3 941.2 2709.5 919.2 2714 893.2 2760.2 905.7 2761.1 912.1 2624.4 1045.3 2563.9 1054.6 2567 1047.1 2608.7 988.1 2625.7 945.5 2620.3 940.8 2574.6 938.4 2556.2 956.8 2563 963.6 2511.9 1020.8 2523.1 1049.9 2528.5 1052.4 2540.1 1040.7 2559.4 1051 2558 1056 2471.1 1076.9 2441.1 1105.4 2318.3 1108.6 2321.9 1094 2322.3 1068.1 2364 1021.5 2382.4 1030.7 2394.5 1016.5 2381.5 1008.4 2438.8 909.6 2408.8 891.8 2359.5 965.4 2363.1 977.8 2283.3 1106.4 2237.6 1107.5 2238 1010.1 2239.4 912.8 2226.8 824.3 2248.8 821.1 2255.5 838.9 2343.4 826.4 2335.7 771.7 2366.7 722 2434.8 713.1 2446.9 722.3 2476.3 678 2544.6 704.6 Z M 2384.9 580.3 2308.9 684.4 2291.9 677.7 2300.8 663.8 2281.3 654.9 2272.7 649.8 2279.8 641.8 2309.6 653.4 2385.2 556.8 2397.2 563.5 2384.9 580.3 Z" data-holc_grade="D"/>
<path d="M 2357.7 1194.9 2337 1216.2 2301.6 1199.2 2359.5 1188.5 2357.7 1194.9 Z M 2516.8 1196 2440.6 1272.7 2360.8 1221.9 2433 1148.3 2516.8 1196 Z M 2383.7 1172.5 2295.8 1176.8 2253.7 1155.5 2258.2 1140.5 2263.1 1131.3 2422.2 1128.4 2383.7 1172.5 Z M 2614.5 1394.7 2575 1383.6 2516.3 1374.4 2500.6 1371.9 2508.2 1358.4 2443.7 1322.9 2401.6 1370.1 2344.7 1336.7 2362.1 1318.9 2310.2 1286.6 2316.4 1279.1 2269.8 1252.5 2263.5 1256 2249.2 1246.8 2252.3 1242.5 2234.9 1230.4 2257.3 1208.4 2324.5 1248.9 2337 1240 2493 1330.3 2509.1 1313.3 2463.9 1287.3 2556.2 1189.9 2454.9 1128.4 2489.9 1093.3 2659.3 1070.2 2626.6 1106.4 2682.6 1142.7 2715.8 1144.8 2735.5 1176.8 2713.1 1182.1 2716.7 1193.1 2704.6 1196.7 2712.6 1212.3 2753.4 1204.1 2772.2 1221.2 2754.3 1269.9 2744.9 1266.3 2664.7 1273.5 2641.4 1261.7 2624.3 1279.8 2651.7 1295.1 2653.5 1337.8 2611.3 1371.2 2614.5 1394.7 Z" data-holc_grade="D"/>
<path d="M 2477.6 1472.6 2475.9 1496.2 2381.8 1495.3 2382.9 1462.8 2379 1446.4 2488.3 1442.4 2477.6 1472.6 Z M 2614.5 1394.7 2697.4 1465.2 2751.2 1514.9 2767.7 1534.6 2589.5 1535.1 2589.9 1544.8 2608.1 1545.1 2607.4 1570.1 2550.7 1569.9 2532.5 1569.8 2517.8 1558.7 2497 1513.8 2496.6 1469.7 2509.9 1453.5 2507 1428.5 2609.2 1424.2 2601.3 1407.7 2518.9 1410.6 2516.3 1374.4 2575 1383.6 2614.5 1394.7 Z" data-holc_grade="D"/>
<path d="M 1889.5 1110.5 1861 1141.6 1814 1111.5 1833.7 1087.2 1809 1072.3 1825.4 1056.4 1887.2 1093.9 1880.5 1103.2 1889.5 1110.5 Z M 1756.5 956.1 1765.1 947.5 1833.5 990.5 1820.6 1003.5 1758.7 970.1 1756.5 956.1 Z M 1435.2 1110.3 1399.7 1098.1 1426.6 1048.9 1511 1078.8 1520.4 1063.7 1398.1 1019.1 1445.4 929.5 1460.1 934.7 1450.1 953.7 1630.1 1019.1 1757 1021.1 1754.8 1108.1 1798.9 1110.3 1789.3 1121.1 1790 1141.9 1766 1164.6 1748.8 1168.3 1748.8 1157.5 1728 1157.5 1725.8 1168.3 1672 1168.1 1669.9 1083.9 1646.2 1082.8 1645.5 1057.2 1615 1056.3 1613.9 1086.2 1589.2 1085.3 1588.5 1090.2 1550.1 1087.3 1532.5 1116.6 1521.1 1114.3 1513.9 1124.6 1502.4 1123.4 1491.3 1141.9 1455.8 1141.6 1472.3 1111.8 1443.3 1100.1 1435.2 1110.3 Z" data-holc_grade="D"/>
<path d="M 1277 1139.2 1383.8 1140.9 1374.6 1174.4 1410.9 1178.9 1383.2 1277.4 1356.9 1280.4 1327 1275.9 1289.1 1264 1250.1 1246.3 1277 1139.2 Z" data-holc_grade="D"/>
</g>
</svg>