<?xml version="1.0"?>
<svg xmlns="http://www.w3.org/2000/svg" version="1.2" baseProfile="tiny" width="3000" height="1934" viewBox="0 0 3000 1934" stroke-linecap="round" stroke-linejoin="round">
<g id="A">
<path d="M 1619.8 1647.7 1608.6 1627.4 1627.1 1611.4 1645.5 1651.4 1645.8 1653.2 1646 1655 1646.1 1656.8 1646.1 1658.6 1646 1660.4 1645.9 1662.2 1645.6 1664 1645.2 1665.8 1644.8 1667.5 1644.2 1669.3 1632.2 1682.7 1636.9 1703.3 1634.9 1711.7 1625.8 1722.9 1627.8 1735.5 1627.5 1736.3 1627 1737.1 1626.5 1737.8 1625.9 1738.5 1625.2 1739.1 1624.5 1739.6 1623.7 1740 1622.9 1740.4 1622 1740.6 1621.1 1740.8 1620.2 1740.8 1619.3 1740.7 1618.4 1740.6 1617.6 1740.3 1616.7 1740 1615.9 1739.5 1615.2 1739 1611.9 1732.9 1609.8 1726.9 1609.6 1726 1609.4 1725 1609.1 1724.1 1608.7 1723.2 1608.1 1722.4 1607.6 1721.7 1606.9 1721 1606.1 1720.3 1605.3 1719.8 1604.5 1719.3 1603.6 1719 1602.6 1718.7 1601.7 1718.5 1600.7 1718.5 1599.8 1718.5 1599.3 1718.4 1598.8 1718.3 1598.3 1718.2 1597.8 1717.9 1597.4 1717.7 1597 1717.3 1596.5 1716.9 1596.1 1716.4 1595.4 1715.6 1594.7 1714.5 1594 1713.4 1592.2 1710.1 1591.6 1709.1 1591 1708.3 1590.4 1707.4 1589.7 1706.6 1589 1705.9 1588.4 1705.2 1587.6 1704.6 1586.9 1704.1 1586.1 1703.6 1585.3 1703.3 1584.4 1702.9 1583.5 1702.7 1582.6 1702.6 1581.6 1702.5 1558.5 1701.5 1572.8 1679.4 1574.6 1680.2 1576.4 1681 1578.2 1681.7 1580.1 1682.3 1582 1682.8 1583.9 1683.2 1585.9 1683.5 1587.8 1683.7 1589.8 1683.8 1591.8 1683.8 1592 1681.7 1592.2 1679.6 1592.6 1677.5 1593.1 1675.4 1593.7 1673.4 1594.5 1671.4 1595.3 1669.5 1596.2 1667.6 1597.2 1665.7 1598.3 1663.9 1599.5 1662.2 1600.8 1660.5 1602.2 1658.9 1603.7 1657.4 1605.2 1656 1606.8 1654.6 1608.5 1653.3 1610.3 1652.2 1612.1 1651.1 1614 1650.1 1615.9 1649.2 1617.8 1648.4 1619.8 1647.7 Z" data-holc_grade="A"/>
<path d="M 1676.2 1555.3 1676 1554.2 1675.9 1553.1 1675.9 1552 1676 1550.9 1676.2 1549.8 1676.6 1548.7 1677 1547.7 1677.5 1546.7 1678 1545.8 1678.7 1544.9 1679.4 1544.1 1680.3 1543.3 1681.1 1542.6 1682.9 1542.4 1684.7 1542.2 1686.4 1542.1 1688.2 1542.1 1690 1542.2 1691.7 1542.3 1693.5 1542.6 1695.2 1542.9 1707.2 1553.3 1711.2 1555 1713.1 1555.6 1715 1556.4 1716.8 1557.3 1718.6 1558.2 1720.3 1559.3 1722 1560.4 1723.6 1561.7 1725.1 1563 1726.6 1564.4 1727.9 1565.9 1729.2 1567.4 1730.4 1569 1731.6 1570.7 1732.6 1572.5 1733.5 1574.3 1734.3 1576.1 1735 1578 1735.6 1579.9 1736.1 1581.8 1736.5 1583.8 1736.8 1585.8 1737 1587.8 1737.1 1589.8 1737 1591.8 1752.3 1604.2 1753.4 1604.8 1754.5 1605.5 1755.5 1606.3 1756.4 1607.1 1757.3 1608.1 1758.1 1609 1758.8 1610.1 1759.4 1611.2 1759.9 1612.4 1760.3 1613.5 1760.7 1614.8 1760.9 1616 1761 1617.3 1761 1618.5 1760.9 1619.8 1760.7 1621 1760.4 1622.2 1759.2 1623.2 1758 1624.2 1756.9 1625.3 1755.8 1626.4 1754.9 1627.7 1754 1629 1753.2 1630.3 1752.6 1631.7 1748.8 1659 1739.5 1660.4 1724.5 1671.9 1724.1 1673.3 1723.9 1674.7 1723.7 1676.1 1723.6 1677.5 1723.6 1679 1723.7 1680.4 1723.9 1681.8 1724.2 1683.2 1724.6 1684.6 1725.1 1685.9 1725.7 1687.2 1726.6 1686.6 1727.6 1686 1728.6 1685.4 1729.6 1684.8 1730.6 1684.3 1731.7 1683.8 1732.7 1683.3 1733.8 1682.9 1734.8 1682.5 1735.9 1682.2 1736.9 1681.9 1737.9 1681.7 1738.9 1681.5 1739.8 1681.4 1740.8 1681.3 1741.6 1681.3 1742.4 1681.4 1743.1 1681.4 1743.8 1681.6 1744.4 1681.8 1745 1682 1745.5 1682.3 1745.9 1682.6 1746.2 1683 1746.4 1683.5 1746.6 1683.9 1746.7 1684.4 1746.7 1685 1746.7 1685.6 1746.5 1686.2 1746.3 1686.8 1746 1687.5 1748.2 1688.4 1750.4 1689.4 1752.5 1690.4 1754.5 1691.5 1756.6 1692.7 1758.5 1694 1760.5 1695.3 1762.4 1696.7 1763.4 1698 1764.4 1699.3 1765.3 1700.6 1766.2 1702 1766.9 1703.5 1767.5 1705 1768 1706.6 1768.4 1708.2 1768.7 1709.8 1768.9 1711.4 1769 1713 1769 1714.7 1768.4 1715.5 1767.7 1716.3 1766.9 1717 1766 1717.6 1765.1 1718.2 1764.2 1718.6 1763.2 1718.9 1762.1 1719.2 1761.1 1719.3 1760 1719.3 1758.9 1719.2 1757.9 1719 1755.3 1721.7 1752.6 1724.3 1749.8 1726.8 1747 1729.3 1744 1731.7 1741.1 1734 1738 1736.2 1734.9 1738.3 1731.8 1740.3 1728.5 1742.2 1725.3 1744.1 1722 1745.8 1718.6 1747.5 1716.9 1748.1 1715.2 1748.5 1713.5 1748.9 1711.8 1749.3 1710 1749.5 1708.3 1749.6 1706.5 1749.6 1704.8 1749.6 1703 1749.5 1702.4 1748.4 1701.9 1747.2 1701.5 1746 1701.2 1744.8 1700.9 1743.6 1700.8 1742.3 1700.8 1741.1 1700.9 1739.8 1701.2 1738.6 1701.5 1737.3 1701.9 1736.2 1702.4 1735 1703 1733.9 1703.7 1732.8 1704.5 1731.9 1705.3 1730.9 1706.2 1730.1 1707.2 1729.3 1708.3 1728.6 1721 1722.2 1728.5 1719 1720.7 1716.6 1706.5 1711 1693.9 1698 1687.9 1696.9 1687.2 1697.1 1686.5 1697.3 1685.8 1697.3 1685.1 1697.2 1684.4 1697 1683.8 1696.7 1683.2 1696.4 1682.7 1695.9 1682.2 1695.4 1681.9 1694.5 1681.7 1693.6 1681.6 1692.6 1681.5 1691.7 1681.6 1690.7 1681.8 1689.8 1682 1688.8 1682.4 1688 1682.9 1687.1 1683.4 1686.3 1684 1685.6 1684.7 1684.9 1689.1 1683.2 1697.5 1676.8 1700.9 1673.9 1701.1 1673.2 1701.3 1672.5 1701.4 1671.8 1701.4 1671 1701.2 1670.3 1701.1 1669.6 1700.8 1668.9 1692.8 1664.2 1691.2 1659.4 1691.5 1644.4 1669.1 1622.9 1664.4 1598.1 1664.3 1588.9 1664.7 1574.4 1678.2 1563.2 1676.2 1555.3 Z" data-holc_grade="A"/>
<path d="M 1789.7 1566.2 1781.8 1575 1781.9 1573.1 1781.8 1571.2 1781.7 1569.3 1781.5 1567.4 1781.1 1565.5 1780.6 1563.6 1780 1561.8 1779.4 1560 1778.6 1558.3 1777.7 1556.6 1776.7 1554.9 1775.6 1553.3 1774.5 1551.8 1773.2 1550.4 1771.9 1549 1770.5 1547.7 1769 1546.5 1767.4 1545.3 1765.8 1544.3 1764.1 1543.4 1753.7 1499.3 1777.9 1461.5 1833.2 1493 1789.7 1566.2 Z" data-holc_grade="A"/>
<path d="M 1988.9 1483.7 1990.3 1484.9 1991.6 1486.1 1992.8 1487.3 1994 1488.7 1995.1 1490.1 1996.1 1491.5 1997.1 1491.8 1998.1 1491.9 1999.1 1492 2000.1 1492 2001.1 1491.9 2002.1 1491.7 2003.1 1491.4 2004 1491 2004.9 1490.5 2005.4 1491.8 2005.8 1493.1 2006.1 1494.4 2006.3 1495.7 2006.4 1497 2006.4 1498.4 2006.3 1499.7 2006.2 1499.9 2006.1 1500.2 2006.1 1500.4 2006.1 1500.7 2006.1 1500.9 2006.2 1501.2 2006.3 1501.4 2006.5 1501.6 2006.7 1501.7 2006.9 1501.9 2007.2 1502 2007.4 1502 2007.7 1502 2007.9 1502 2008.2 1501.9 2008.4 1501.8 2008.6 1501.6 2008.7 1501.4 2019.2 1499.3 2019.6 1511.3 2010.8 1525.4 2001.5 1561.5 1981.7 1585.7 1980.3 1595.4 1978.9 1596.4 1977.3 1597.3 1975.8 1598.1 1974.1 1598.8 1972.5 1599.4 1970.8 1599.9 1969.1 1600.3 1967.3 1600.6 1965.6 1600.8 1963.8 1600.9 1962 1600.9 1960.3 1600.8 1958.5 1600.6 1956.8 1600.2 1955.1 1599.8 1953.4 1599.3 1951.7 1598.7 1950.1 1598 1948.5 1597.1 1925.8 1588.2 1924.4 1586.8 1923.1 1585.2 1921.8 1583.6 1920.7 1582 1919.6 1580.3 1918.6 1578.5 1917.7 1576.7 1916.8 1574.9 1916.1 1573 1915.5 1571.1 1914.9 1569.1 1914.3 1567.1 1913.8 1565.1 1913.4 1563 1913.1 1560.9 1912.9 1558.8 1912.8 1556.7 1912.8 1554.6 1912.9 1552.5 1913.2 1550.4 1913.5 1548.3 1913.9 1546.3 1914.5 1544.2 1915.1 1542.2 1915.8 1540.2 1916.7 1538.3 1943.2 1470.6 1988.9 1483.7 Z" data-holc_grade="A"/>
</g>
<g id="B">
<path d="M 1861.9 173.4 1851 181.8 1999.7 430.9 1994.1 437.7 1981.7 426.5 1951.3 463.8 1935.8 487.5 1910.4 466.2 1926 444.6 1895.2 420.4 1883.9 408.6 1903.3 396 1861.5 340 1845.1 352.2 1808.5 310.5 1817.3 280.8 1790.8 249.3 1827.2 184.1 1776.3 116.3 1791.2 109.2 1792.6 93.4 1757.1 44.7 1815 1 1843.3 28.5 1863.6 62.8 1819.5 93.3 1814.7 116.5 1861.9 173.4 Z" data-holc_grade="B"/>
<path d="M 149.3 536.3 139.4 555.7 137 554.6 134.6 553.5 132.2 552.2 130 550.9 127.7 549.4 125.5 547.9 123.4 546.3 121.4 544.7 119.4 542.9 117.5 541.1 115.6 539.2 113.9 537.2 112.2 535.2 110.6 533.1 109.1 530.9 70.9 538.5 58.7 509.1 133.3 487.1 140 523.4 139.3 523.8 138.6 524.2 137.9 524.7 137.4 525.3 136.9 526 136.5 526.7 136.2 527.4 136 528.2 135.8 529 136.7 530 137.6 531 138.5 531.9 139.5 532.7 140.6 533.4 141.7 534.1 142.9 534.7 144.1 535.2 145.4 535.6 146.7 535.9 148 536.1 149.3 536.3 Z M 222.5 469.7 196.3 474 196.2 474.1 176.6 402.9 171.1 395.1 147.3 361.9 147.4 361.9 168.5 350.9 193.6 401.2 213 398.8 226 459.1 223.1 460.9 224.8 469.4 222.6 469.7 222.5 469.7 Z" data-holc_grade="B"/>
<path d="M 1485.4 1160 1495.9 1162.9 1529 1200.7 1541.3 1202.5 1556.6 1197.5 1593.2 1209.9 1592.8 1230.4 1592.8 1230.6 1593.1 1255.6 1537.2 1257.8 1496.4 1270.5 1473.6 1297 1469.9 1297.5 1466.3 1297.8 1462.6 1298.1 1458.9 1298.2 1455.2 1298.2 1451.5 1298.2 1447.8 1298 1444.1 1297.7 1440.5 1297.3 1436.8 1296.9 1433.2 1296.3 1429.6 1295.6 1433.1 1270.8 1359.5 1256.1 1334.5 1275.8 1281.6 1293.4 1277.4 1268.7 1288.3 1235.3 1227.2 1222.8 1229.6 1183.7 1229.6 1182.9 1229.8 1182.9 1300 1196.3 1309.8 1198.2 1337.8 1215.4 1352.5 1232.4 1380.7 1210 1407.4 1178.8 1347.6 1149.5 1322.5 1180.6 1250.3 1163.8 1255.8 1152.7 1261.2 1150.2 1281 1154 1323.7 1159.1 1329.5 1141 1348.2 1137.6 1348.4 1137.6 1348.5 1137.6 1375.6 1149.1 1419.2 1167.7 1427.4 1176.5 1427.6 1176.7 1444.8 1155.5 1468.2 1154.6 1485.4 1160 Z" data-holc_grade="B"/>
<path d="M 410.3 587.9 334.1 599.5 328.3 607.8 328.4 607.8 328.3 607.9 373.6 637.2 368.9 653.7 368.9 653.8 362.7 675.4 284.2 628.4 272.8 576 272.8 575.9 273.8 575.6 283.6 573.2 286.5 572.5 314.5 594.1 324.4 582.5 368.8 576.1 406.9 569.4 410.3 587.9 Z" data-holc_grade="B"/>
<path d="M 1969.4 1372.2 1985.5 1379.6 1977.4 1396.3 1994.8 1448 1988.9 1483.7 1943.2 1470.6 1916.7 1538.3 1915.8 1540.2 1915.1 1542.2 1914.5 1544.2 1913.9 1546.3 1913.5 1548.3 1913.2 1550.4 1912.9 1552.5 1912.8 1554.6 1912.8 1556.7 1912.9 1558.8 1913.1 1560.9 1913.4 1563 1913.8 1565.1 1914.3 1567.1 1914.9 1569.1 1898.1 1562.4 1890.5 1554.5 1884.5 1567.1 1825.9 1530.4 1799.2 1566 1789.7 1566.2 1833.2 1493 1777.9 1461.5 1753.7 1499.3 1743.1 1466.2 1787.2 1407.7 1907.4 1370.4 1917.7 1373.9 1925 1365.4 1935.9 1369.5 1938.4 1370.3 1940.9 1371 1943.5 1371.7 1946 1372.2 1948.6 1372.6 1951.2 1372.9 1953.8 1373.1 1956.4 1373.2 1959 1373.2 1961.7 1373.1 1964.3 1372.9 1966.9 1372.6 1969.4 1372.2 Z" data-holc_grade="B"/>
</g>
<g id="C">
<path d="M 1817.2 622.7 1816.6 656.9 1809.4 701 1808.9 700.9 1718.7 682.6 1713 717.6 1713.1 717.6 1713.1 717.7 1712.3 723 1488.3 674.7 1475 674.1 1455.9 654.6 1447.9 648.7 1410.7 645.7 1336.1 623.5 1331.9 619.6 1295.4 603.3 1300.1 567.8 1334.3 578.8 1337.9 559.2 1379.3 451.2 1433.2 520.5 1532.2 451.4 1558.7 501.6 1554.4 594.8 1626.2 623.3 1652.6 627.8 1656.7 602.4 1670.9 603.2 1671.4 552.8 1749.5 582.5 1748.7 594 1770.8 597.1 1801.5 613.7 1812.2 606.6 1820.2 616.3 1817.2 622.6 1817.2 622.7 Z" data-holc_grade="C"/>
<path d="M 1229.8 1182.9 1231.9 1159.5 1250.3 1163.8 1322.5 1180.6 1347.6 1149.5 1407.4 1178.8 1380.7 1210 1352.5 1232.4 1337.8 1215.4 1309.8 1198.2 1300 1196.3 1229.8 1182.9 Z" data-holc_grade="C"/>
<path d="M 1281.6 1293.4 1368.9 1404.8 1320.3 1416.3 1328.3 1431.5 1382.8 1424.8 1390.7 1434.7 1362.1 1445.6 1381.9 1477 1398.1 1493.1 1396.6 1526.1 1320.3 1542.1 1274.9 1553.5 1269.6 1537.7 1243.7 1559.1 1225.1 1535.6 1242.4 1523.2 1235.9 1506.6 1164.8 1528.6 1150.3 1497.5 1154.4 1495.4 1158.4 1493.5 1162.5 1491.6 1166.7 1489.9 1170.9 1488.3 1175.1 1486.7 1179.4 1485.3 1183.7 1483.9 1188 1482.7 1192.4 1481.5 1196.8 1480.5 1201.2 1479.6 1205.6 1478.7 1210.1 1478 1214.5 1477.4 1219 1476.9 1223.5 1476.5 1228 1476.2 1232.5 1476 1237 1475.9 1241.5 1475.9 1246 1476 1250.5 1476.3 1255 1476.6 1259.5 1477 1264 1477.6 1268.4 1478.3 1272.9 1479 1275.2 1465.5 1247.8 1448.8 1245.2 1430.9 1237 1431.2 1209 1393.7 1168.3 1422.1 1165.9 1418.8 1163.6 1415.4 1161.4 1411.9 1159.2 1408.4 1157.2 1404.9 1155.2 1401.3 1153.3 1397.7 1151.4 1394 1149.7 1390.3 1148 1386.6 1183.6 1359.9 1183.7 1351.6 1231.1 1310.7 1281.6 1293.4 Z" data-holc_grade="C"/>
<path d="M 1830.4 1269.4 1846.3 1287 1847.8 1299.5 1854.9 1310.1 1754.2 1384.2 1749.3 1379.6 1746.7 1379.8 1744.1 1379.9 1741.5 1379.8 1738.9 1379.7 1736.3 1379.4 1733.7 1379.1 1731.1 1378.6 1728.6 1378.1 1726.1 1377.4 1723.6 1376.6 1721.1 1375.8 1718.7 1374.8 1716.3 1373.8 1714 1372.6 1711.7 1371.4 1709.4 1370 1707.3 1368.6 1705.1 1367.1 1703.1 1365.5 1701.1 1363.8 1699.2 1362 1830.4 1269.4 Z" data-holc_grade="C"/>
<path d="M 1861.9 173.4 1911.9 255.4 1933.8 243.5 1990.1 329.6 2012.6 355.9 2013.6 318.3 2024.3 273.4 2066 269.5 2067.7 286.8 2091.4 283.9 2090.7 263.4 2182.2 263 2182.7 278.8 2108 283.4 2151.8 370.8 2030.1 428 2035.6 435.7 2033.9 437.6 1984.9 493.1 1951.3 463.8 1981.7 426.5 1994.1 437.7 1999.7 430.9 1851 181.8 1861.9 173.4 Z" data-holc_grade="C"/>
<path d="M 2033.9 437.6 2097.6 511.8 2074.2 538.7 2035.5 583.3 2025.9 568.9 2018.3 564.5 1994.1 614.1 1963.1 601.9 1947.7 629.3 1916.2 614.8 1930.3 587.7 1905 574.6 1871.2 644.8 1864.2 641.4 1851.4 643.1 1843.6 638.7 1837.5 641.1 1831.7 639 1883.8 547.6 1862.1 532.9 1910.4 466.2 1935.8 487.5 1951.3 463.8 1984.9 493.1 2033.9 437.6 Z" data-holc_grade="C"/>
<path d="M 2114.7 565.8 2122.3 585.8 2140.8 666.9 2145.4 687.2 2114.7 694.3 2111.4 673.6 2061.5 685.3 2035.5 583.3 2074.2 538.7 2086 558.9 2101.3 571.2 2107.2 567.5 2114.7 565.8 Z" data-holc_grade="C"/>
<path d="M 2546.3 903.4 2556.7 933.4 2592.5 988.7 2593.3 991.5 2595.1 997.5 2595.9 999.9 2596.6 1002.6 2597.1 1004.9 2597.4 1006.1 2597.6 1007.4 2597.7 1008.5 2597.9 1009.7 2598 1010.8 2598 1012 2598 1013.1 2598 1014.2 2597.9 1015.5 2597.7 1016.7 2597.5 1018 2597.3 1019.3 2597 1020.6 2596.6 1021.9 2596.2 1023.3 2595.7 1024.6 2595.2 1026.1 2594.6 1027.5 2594 1029.1 2593.3 1030.6 2592.5 1032.2 2591.7 1033.9 2590.8 1035.6 2589.8 1037.4 2479.8 1011.9 2461.3 999.6 2455.7 1008.4 2468.4 1027.5 2460.4 1039.5 2459.6 1040.8 2458.6 1042.1 2457.6 1043.3 2456.5 1044.4 2455.4 1045.4 2454.1 1046.4 2452.9 1047.2 2451.5 1048 2450.1 1048.7 2448.7 1049.3 2447.2 1049.8 2444.2 1047.4 2442.9 1048.9 2441.4 1050.3 2439.9 1051.7 2438.4 1052.9 2436.7 1054.1 2435.1 1055.2 2433.3 1056.2 2431.5 1057.1 2429.7 1057.9 2427.8 1058.7 2425.9 1059.3 2424 1059.8 2422 1060.3 2420 1060.6 2418 1060.8 2416 1061 2414 1061 2412 1060.9 2410 1060.7 2408 1060.5 2406 1060.1 2384.5 1081.5 2350.7 1095 2354.2 1129.3 2362.2 1128.1 2370.7 1151.3 2379.3 1148.4 2392.3 1210.8 2382.6 1226.9 2313.6 1215.5 2281.9 1225.2 2286.9 1247 2245.6 1239.1 2213.8 1231.8 2210.8 1231 2207.8 1230 2204.8 1228.9 2201.9 1227.8 2199 1226.5 2196.1 1225.1 2193.3 1223.7 2190.6 1222.1 2187.9 1220.5 2185.2 1218.8 2182.6 1216.9 2180.1 1215 2177.7 1213 2175.3 1211 2173 1208.8 2170.7 1206.6 2168.6 1204.3 2166.5 1201.9 2164.5 1199.5 2162.6 1197 2160.8 1194.4 2159 1191.8 2157.4 1189.1 2155.8 1186.4 2154.3 1183.6 2153 1180.8 2151.7 1177.9 2150.5 1175 2149.5 1172 2148.5 1169 2148.2 1167.5 2147.9 1166.1 2147.4 1164.7 2146.8 1163.3 2146.2 1162 2145.4 1160.7 2144.5 1159.5 2143.6 1158.4 2142.6 1157.3 2141.5 1156.3 2140.3 1155.4 2139 1154.5 2137.7 1153.8 2136.4 1153.2 2122.9 1148.4 2120.1 1138.3 2174.6 1122.3 2191.1 1108.2 2169 1031.2 2324.3 984.3 2346.7 959.6 2395.6 947.3 2395.6 943.7 2466.7 926.3 2449.2 851.3 2468.7 848.3 2498.9 857.1 2533.4 887.7 2544.9 901.9 2546.3 903.4 Z M 2249.9 1067.3 2238.1 1077.5 2243.9 1102.2 2253.7 1093.2 2258.7 1107.2 2252 1115.1 2277.5 1130.3 2272.3 1139.9 2309 1159.5 2327.1 1123.6 2278.2 1096.1 2274.8 1070.4 2262 1080.8 2249.9 1067.3 Z" data-holc_grade="C"/>
<path d="M 1985.5 1379.6 1969.4 1372.2 1973.2 1368.6 1976.8 1364.9 1980.4 1361.1 1983.9 1357.3 1987.3 1353.4 1990.7 1349.4 1993.9 1345.3 1997.1 1341.2 2000.2 1337.1 2002.5 1336.3 2004.7 1335.5 2006.8 1334.7 2008.8 1333.7 2010.7 1332.7 2012.6 1331.6 2014.3 1330.4 2016 1329.2 2017.7 1327.8 2019.2 1326.4 2020.7 1325 2022.1 1323.4 2023.4 1321.8 2024.6 1320.1 2025.8 1318.3 2026.9 1316.4 2027.8 1314.8 2028.6 1313 2029.4 1311.3 2030.1 1309.4 2030.7 1307.5 2031.3 1305.6 2031.9 1303.5 2032.4 1301.4 2032.8 1299.2 2033.3 1296.9 2033.6 1294.5 2033.9 1292 2034.2 1289.7 2034.4 1287.2 2035.1 1278.1 2035.3 1276.3 2035.5 1274.9 2035.6 1274 2035.8 1273.2 2036 1272.5 2036.2 1272 2036.4 1271.5 2036.6 1271 2036.9 1270.7 2037.2 1270.4 2052.5 1237.9 2064.7 1226.3 2070.4 1218.2 2101.4 1171.5 2102.5 1170.4 2103.5 1169.5 2104.7 1168.6 2105.9 1167.8 2107.2 1167.1 2108.5 1166.4 2109.9 1165.9 2111.3 1165.5 2112.7 1165.2 2114.2 1164.9 2115.6 1164.8 2117.1 1164.8 2118.6 1164.9 2120 1165.1 2121.4 1165.4 2122.9 1165.8 2124.3 1165.9 2125.8 1166.1 2127.3 1166.4 2128.7 1166.9 2130.1 1167.4 2131.4 1168 2132.7 1168.7 2134 1169.5 2135.2 1170.4 2136.3 1171.4 2137.4 1172.4 2138.3 1173.6 2139.2 1174.8 2140.1 1176 2140.8 1177.3 2141.4 1178.6 2142 1180 2142.4 1181.4 2142.7 1182.9 2143 1184.3 2143.1 1185.8 2143.1 1187.3 2143 1188.8 2149 1204.4 2151.3 1206.4 2153.5 1208.4 2155.7 1210.6 2157.8 1212.8 2159.8 1215 2161.8 1217.4 2163.7 1219.8 2165.5 1222.2 2167.2 1224.7 2168.9 1227.2 2170.4 1229.8 2170.3 1231.8 2170.2 1233.7 2170.2 1235.7 2170.3 1237.6 2170.5 1239.6 2170.8 1241.5 2171.1 1243.4 2171.6 1245.3 2172.2 1247.1 2202.6 1267.1 2210.3 1277.6 2211.5 1284.7 2197.4 1297.6 2168.5 1274.7 2152.6 1290 2145.1 1284 2141.1 1285.7 2137 1287.3 2132.9 1288.8 2128.8 1290.3 2124.6 1291.6 2120.5 1292.8 2116.2 1294 2112 1295 2107.7 1296 2103.5 1296.8 2099.2 1297.6 2094.9 1298.2 2095 1300 2095.1 1301.6 2095.1 1303.2 2095.1 1304.7 2095 1306.2 2094.9 1307.6 2094.8 1308.9 2094.6 1310.2 2094.3 1311.4 2094 1312.6 2093.6 1313.7 2093.2 1314.8 2092.8 1315.8 2092.3 1316.8 2091.7 1317.7 2091.1 1318.6 2090.6 1319.3 2090 1320 2089.4 1320.7 2088.8 1321.3 2088.1 1322 2087.3 1322.6 2086.5 1323.3 2085.7 1323.9 2084.2 1324.9 2082.5 1326 2080.9 1327 2076.2 1329.8 2073.4 1331.5 2072.1 1332.4 2070.7 1333.3 2069.5 1334.2 2068.3 1335.1 2060.6 1353.3 2059.6 1354.4 2058.5 1355.3 2057.3 1356.2 2056.1 1357 2054.9 1357.7 2053.6 1358.3 2052.2 1358.7 2050.8 1359.1 2049.4 1359.4 2048 1359.6 2046.5 1359.7 2036.1 1351 2032.4 1351.9 2016.4 1372.2 2011.4 1379.8 2010.2 1380.6 2008.9 1381.3 2007.6 1381.9 2006.2 1382.5 2004.8 1382.9 2003.4 1383.2 2002 1383.5 2000.5 1383.6 1999 1383.6 1997.6 1383.5 1996.1 1383.3 1994.7 1382.9 1993.3 1382.5 1991.9 1382 1990.6 1381.4 1989.3 1380.6 1985.5 1379.6 Z" data-holc_grade="C"/>
<path d="M 1659.6 1024.4 1680.3 1007.7 1690.5 943.6 1783.1 958.1 1782.2 967.5 1842.4 978 1836.7 1022 1945 1035.4 1943.4 1037.2 1942 1039 1940.6 1040.9 1939.3 1042.8 1938.1 1044.8 1937 1046.9 1936 1049 1935.1 1051.1 1934.3 1053.3 1933.6 1055.5 1933 1057.8 1932.5 1060.1 1932.1 1062.4 1931.8 1064.7 1931.7 1067 1931.6 1069.3 1931.6 1071.7 1931.8 1074 2012.7 1072.5 2007.4 1187.1 1957.7 1237.3 1880.1 1243.6 1839.6 1235.5 1815.3 1207.6 1803.1 1180.2 1820.4 1160.7 1882.3 1145 1882.2 1127 1871.1 1126.4 1870.5 1110.1 1838.1 1108.3 1839.9 1090.7 1821.5 1089.3 1821.2 1078.5 1800.9 1050.8 1788.2 1049.9 1746.3 1016.1 1728.5 1013.1 1694.7 1015.9 1689.5 1024.9 1682.7 1031.4 1668.8 1034.7 1659.6 1024.4 Z" data-holc_grade="C"/>
<path d="M 1467.4 857.7 1606 892.1 1643.2 907.7 1641.5 916.7 1672.5 924.4 1662.2 998 1639.7 1010.5 1620.4 1001.3 1596.3 994.7 1599.9 972.7 1555.8 959.6 1558.4 942.3 1514 931.2 1519 910.1 1459.7 893.8 1467.4 857.7 Z" data-holc_grade="C"/>
<path d="M 1593.1 1255.6 1592.8 1230.6 1613.1 1230.8 1621.5 1184.3 1618.3 1182.8 1614.1 1145.3 1586.8 1146 1581.4 1130.9 1560.3 1137.1 1497.7 1143.4 1486.6 1145 1485.4 1159.9 1485.4 1160 1468.2 1154.6 1444.8 1155.5 1427.6 1176.7 1427.4 1176.5 1419.2 1167.7 1375.6 1149.1 1348.5 1137.6 1348.4 1137.6 1348.2 1137.6 1329.5 1141 1322.3 1132.2 1324.1 1115.9 1290.8 1111.7 1300.9 1051.6 1274.1 1046.7 1254.6 1076.5 1230.8 1072.3 1246.8 991.9 1346.8 985.1 1361.8 986.5 1361.7 976.3 1384.2 975.8 1474.7 1010.6 1485.8 994.4 1565.9 1032.4 1586.9 1048.7 1573.2 1053.8 1573.6 1056.2 1574.1 1058.5 1574.7 1060.9 1575.4 1063.2 1576.1 1065.4 1577 1067.7 1578 1069.9 1579.1 1072 1580.2 1074.1 1581.5 1076.2 1582.8 1078.2 1584.2 1080.1 1585.7 1082 1587.3 1083.8 1589 1085.5 1590.7 1087.2 1592.6 1088.8 1594.4 1090.3 1596.4 1091.7 1598.4 1093 1600.4 1094.3 1602.5 1095.4 1604.7 1096.5 1606.9 1097.5 1609.1 1098.4 1611.4 1099.1 1613.7 1099.8 1620 1091.2 1647.1 1094.6 1675.9 1067.1 1678.1 1065.6 1680.4 1064.2 1682.7 1062.9 1685 1061.6 1687.5 1060.5 1689.9 1059.5 1692.4 1058.6 1695 1057.7 1697.5 1057 1700.1 1056.4 1702.7 1055.9 1705.4 1055.5 1708 1055.2 1710.7 1055 1713.4 1054.9 1716 1054.9 1718.7 1055 1721.4 1055.2 1724 1055.5 1726.6 1056 1729.3 1056.5 1731.8 1057.2 1734.4 1057.9 1736.9 1058.8 1739.4 1059.7 1741.9 1060.8 1744.3 1061.9 1746.7 1063.1 1749 1064.5 1751.2 1065.9 1753.4 1067.4 1755.5 1069 1757.6 1070.7 1759.6 1072.5 1761.5 1074.3 1763.4 1076.2 1765.2 1078.2 1766.8 1080.3 1768.4 1082.4 1770 1084.6 1771.4 1086.8 1772.7 1089.1 1774 1091.5 1775.1 1093.9 1776.2 1096.3 1777.1 1098.8 1778 1101.3 1778.7 1103.9 1779.4 1106.5 1779.9 1109.1 1775.1 1143.1 1767.5 1142.5 1763.6 1173.9 1728.9 1170.2 1724.9 1161.8 1658 1194.4 1648.3 1203.9 1658.4 1214.4 1666.8 1209.1 1698.6 1213.5 1696.9 1230.9 1705.5 1232 1701.4 1256 1661 1252.4 1658 1269.8 1611.7 1272.2 1593.1 1255.6 Z" data-holc_grade="C"/>
<path d="M 368.9 653.7 373.6 637.2 328.3 607.9 328.4 607.8 328.3 607.8 334.1 599.5 410.3 587.9 410.4 587.9 421.8 644.2 368.9 653.7 Z M 222.5 469.7 236.6 539 192.2 548.1 179.4 489.7 134.4 413 112.8 424.6 91.6 389.1 121.1 373.2 111.7 355.1 142.6 357.2 145 359.5 147.3 361.9 171.1 395.1 176.6 402.9 196.2 474.1 196.3 474 222.5 469.7 Z" data-holc_grade="C"/>
<path d="M 2884.2 816.9 2993.1 833.5 2999 875.5 2948.7 880.2 2916.4 848.8 2879.3 839.8 2884.2 816.9 Z" data-holc_grade="C"/>
</g>
<g id="D">
<path d="M 1488.3 674.7 1712.3 723 1713.1 717.7 1713.1 717.6 1731.8 722.8 1731.9 722.8 1731.9 722.9 1731.8 723 1731.8 723.2 1721.7 769 1708.9 802.2 1708.9 802.3 1481.1 716.4 1488.3 674.7 Z" data-holc_grade="D"/>
<path d="M 1831.7 639 1837.5 641.1 1843.6 638.7 1851.4 643.1 1864.2 641.4 1871.2 644.8 1885.9 652.1 1901.4 652.9 1878.5 739.2 1803.6 738.6 1798.2 741.7 1769.8 733.6 1732.3 723 1731.9 722.8 1731.8 722.8 1713.1 717.6 1713 717.6 1718.7 682.6 1808.9 700.9 1809.4 701 1816.6 656.9 1817.2 622.7 1826.4 637 1831.7 639 Z" data-holc_grade="D"/>
<path d="M 2145.4 687.2 2140.8 666.9 2182.8 666.3 2184.8 663.9 2194.6 663.1 2224.3 663.3 2226.7 741.9 2218.4 741.3 2218.8 756.3 2207.3 756.9 2209.1 791.5 2202.3 826.6 2143.4 887.7 2081.9 885.6 2073.4 893 2034.9 892.4 2034.9 881.2 2006.7 878.9 2005.2 910 1983.7 907.1 1925.1 886.9 1922.2 884.2 1708.9 802.2 1721.7 769 1731.8 723.2 1731.8 723 1731.9 722.9 1731.9 722.8 1732.3 723 1769.8 733.6 1798.2 741.7 1803.6 738.6 1878.5 739.2 1901.4 652.9 1909.7 653.4 1919.5 663.8 1928.1 663.5 1937.6 672.3 1948.7 675.5 1969.4 685.7 1939 681.9 1939.3 699.8 1950.8 703 1956.1 727.9 1969.1 739.7 1968.2 749 1992.9 752.6 2006.2 760.2 2023.3 730 1974.7 658.2 2026.1 596.3 2057.7 725.6 2089.8 739.3 2045.3 743.5 2044.8 755.5 2105.2 763.2 2142.2 761.2 2153.5 741.5 2154 724.1 2145.4 687.2 Z" data-holc_grade="D"/>
<path d="M 2553.8 824.1 2524.2 859.2 2515 851.5 2512.6 845.6 2504.7 840.5 2470.9 838.3 2436.4 814.7 2407.9 807 2406.5 806.7 2405.1 806.2 2403.7 805.7 2402.3 805 2401 804.3 2399.7 803.4 2398.6 802.5 2397.4 801.5 2396.4 800.5 2395.4 799.3 2394.5 798.1 2393.7 796.9 2393 795.6 2392.4 794.2 2391.9 792.8 2391.4 791.4 2391.1 789.9 2390.9 788.4 2390.8 786.9 2390.8 785.4 2390.8 784 2391 782.5 2391.3 781 2391.7 779.6 2392.2 778.2 2392.8 776.8 2424.6 751.7 2388.5 708.6 2355.9 728.1 2315.6 741.6 2270.4 749 2269.1 727.8 2275.1 706.1 2271.8 638.8 2243.4 638.7 2236.8 585.1 2183 582.9 2194.6 663.1 2184.8 663.9 2182.8 666.3 2140.8 666.9 2122.3 585.8 2114.7 565.8 2097.6 511.8 2033.9 437.6 2035.6 435.7 2175.2 375.1 2176.6 404.4 2187.5 453.5 2197.3 474.3 2207 537.3 2256.3 536.7 2300.2 531.4 2311.9 577.7 2335.6 605.5 2339.7 625.5 2343 627.7 2384.2 557 2386.1 536.9 2395.7 537.7 2404.2 532.7 2481.3 522.4 2513.7 577.4 2514.4 564.4 2545.2 536.8 2558 517.3 2550.4 515.9 2546.9 507.9 2555.4 496.4 2560.3 443.1 2541.7 422.4 2522.9 428.8 2513.3 415.6 2552.8 304.4 2541.8 280.8 2573.4 233.5 2608.5 179.1 2655.9 93.9 2672.1 116.7 2668.4 121.7 2695.8 160.3 2678.6 262 2660.2 275.4 2674.2 310.7 2627.2 342.4 2618.6 395.2 2674.7 486.2 2506.3 606.5 2529.5 639.5 2492.8 712.8 2515 721 2512.3 750.7 2538.8 739.3 2603.9 702.1 2603.9 696.9 2582.4 688.9 2574.4 683 2574.4 669.3 2561 669.1 2550.3 662.5 2578.5 652.6 2738.1 577.2 2759.9 625.9 2800.3 592.5 2819.1 609.4 2761.3 663.8 2769.2 670.5 2728.2 717.9 2714.2 709.7 2701.7 725.1 2699.8 726.1 2697.8 727.1 2695.7 727.9 2693.7 728.7 2691.6 729.4 2689.4 729.9 2687.3 730.4 2685.1 730.7 2682.9 731 2680.7 731.1 2678.5 731.2 2676.3 731.1 2674.1 731 2670.8 728.2 2658.7 727.3 2642 730.5 2564.7 811.1 2553.8 824.1 Z" data-holc_grade="D"/>
<path d="M 2546.3 903.4 2543.6 891.1 2536.8 881.2 2524.2 859.2 2553.8 824.1 2557.8 824.9 2561.8 825.5 2565.9 826.1 2569.9 826.5 2574 826.9 2578.1 827.1 2582.2 827.3 2586.3 827.3 2590.4 827.2 2594.5 827 2598.6 826.7 2602.7 826.3 2606.7 825.8 2610.8 825.2 2614.8 824.5 2618.8 823.6 2622.8 822.7 2626.8 821.7 2630.7 820.5 2634.6 819.3 2638.5 817.9 2642.3 816.5 2645.7 814.6 2649.1 812.6 2652.4 810.6 2655.6 808.4 2658.8 806.2 2662 803.9 2665.1 801.5 2668.1 799 2671 796.5 2673.9 793.9 2676.7 791.2 2679.4 788.4 2682.1 785.6 2684.7 782.7 2687.2 779.7 2689.6 776.7 2692 773.6 2694.2 770.4 2696.4 767.2 2722.4 774.9 2724.7 759.9 2730 756.4 2740 744.1 2773.6 751.7 2787.7 764.6 2799.2 754.9 2811.3 765.7 2815.7 765.1 2818.6 752 2835.7 738.2 2867.5 738.1 2865.1 760.4 2861 765.1 2848.1 795.9 2817.2 784.8 2798.6 809.1 2800.4 817.1 2794.3 836.7 2803.1 839.9 2795.5 859.6 2865 891.5 2845 931.4 2761.2 931.3 2749.4 923.8 2738.6 954.3 2714.1 976.6 2697.7 1007.1 2642.9 1008.1 2624.6 999.3 2652.3 923.9 2569.2 920.4 2569.2 888.8 2546.3 903.4 Z" data-holc_grade="D"/>
<path d="M 2395.6 943.7 2395.6 947.3 2346.7 959.6 2324.3 984.3 2169 1031.2 2191.1 1108.2 2174.6 1122.3 2120.1 1138.3 2104.9 1142.8 2084.2 1137 2083.4 1117.6 2098.7 1108 2117.8 1000.9 2124.8 1000.6 2124.8 1007.1 2145.1 1007.9 2147.2 990.6 2256.7 958.6 2252.9 910 2264.1 905.6 2259.3 888.3 2291.1 877.1 2287.9 861.9 2384.3 832.8 2383.7 851.4 2395.8 857.3 2395.2 866.6 2386.1 868.4 2386.7 902.4 2396.1 903.9 2395.6 943.7 Z" data-holc_grade="D"/>
<path d="M 1581.6 1910.1 1548.4 1933.1 1531.2 1901.9 1565.1 1883.2 1581.6 1910.1 Z M 2168 1793.1 2149.6 1836.1 2112.7 1821.8 2114.6 1817.3 2116.6 1812.9 2118.7 1808.5 2120.8 1804.2 2123.1 1799.9 2125.4 1795.7 2127.9 1791.5 2130.4 1787.3 2133 1783.3 2135.7 1779.2 2140.5 1780.9 2145.1 1782.7 2149.8 1784.6 2154.4 1786.6 2159 1788.7 2163.5 1790.9 2168 1793.1 Z M 2579 1274.8 2559.9 1288.9 2546.3 1280.6 2541.2 1292.6 2538.2 1300.8 2547.6 1301.5 2585.4 1352.4 2581.3 1398.2 2551.5 1397.9 2536 1388.2 2536.8 1366.2 2545 1356.4 2545 1343.2 2548 1337.7 2546 1331 2497.4 1339.1 2490.5 1343.5 2486.9 1339 2485.6 1333.3 2487.1 1321.6 2491.5 1317.9 2480.4 1310.6 2474.5 1316.4 2442.8 1298.4 2447.2 1289.4 2448.1 1272.5 2463.9 1191.5 2423.4 1102.3 2426.3 1099.3 2436.6 1104.8 2475.1 1106.4 2538.4 1151.8 2520.8 1181.9 2601.1 1248.1 2586.2 1261.4 2579 1274.8 Z" data-holc_grade="D"/>
<path d="M 874 448.2 866.3 560.2 686.4 541.3 699.4 479.2 709.4 461.9 728 451.4 788 433.2 837.2 442.3 874 448.2 Z" data-holc_grade="D"/>
<path d="M 128.1 738 269.2 921.8 266.6 932.4 254.5 933.1 238.5 925.1 200.3 895.3 1 840.9 1.6 838.8 2.3 836.7 3.2 834.6 4.1 832.5 5.2 830.3 6.4 828.2 7.7 826 9.2 823.7 10.6 821.8 12.1 819.7 13.7 817.6 15.5 815.3 17.3 813.2 19.3 810.8 27 802 30.3 798.1 32 796.1 33.6 794.1 35.1 792.2 36.5 790.4 38.1 788.2 39.6 786 41 783.9 42.3 781.8 43.5 779.7 44.7 777.6 45.7 775.6 46.7 773.5 48.1 773.7 49.6 773.8 51 773.7 52.4 773.6 53.8 773.4 55.2 773.1 56.6 772.7 57.9 772.2 59.2 771.6 60.5 770.9 61.7 770.2 62.9 769.3 79.5 761.6 80.2 761.9 80.9 762 81.6 762.1 82.4 762.1 83.1 761.9 83.8 761.7 84.5 761.4 85.1 761 85.7 760.5 86.2 760 86.6 759.4 87 758.7 87.2 758.1 100.2 752.6 103.2 751.5 106.1 750.4 109 749.1 111.8 747.8 114.7 746.4 117.4 744.9 120.2 743.3 122.9 741.6 125.5 739.9 128.1 738 Z M 192.2 548.1 236.6 539 380 509.6 382.6 525 355.5 529.3 360.8 554.3 286.6 572.5 286.5 572.5 283.6 573.2 273.8 575.6 272.8 575.9 272.8 576 284.2 628.4 362.7 675.4 374.2 682.4 400.4 685.6 403.9 704.1 437.5 734.6 461.1 729.6 506.3 769.4 485.7 794.4 496.3 807 480.1 821.4 466.1 806.4 372.1 827.3 242 741.4 236.5 717.8 204.2 722.8 198.6 698.3 102.7 672.5 16.7 656 14.4 654.2 8.5 603.2 18.6 601.8 28.8 600.3 38.9 598.8 48.9 597.1 59 595.3 69.1 593.4 79.1 591.5 89.1 589.4 99.1 587.2 109.1 584.9 119 582.6 128.9 580.1 138.8 577.5 148.7 574.9 158.5 572.1 168.3 569.3 165.9 553.5 192.2 548.1 Z" data-holc_grade="D"/>
</g>
</svg>