<?xml version="1.0"?>
<svg xmlns="http://www.w3.org/2000/svg" version="1.2" baseProfile="tiny" width="3000" height="2805" viewBox="0 0 3000 2805" stroke-linecap="round" stroke-linejoin="round">
<g id="A">
<path d="M 462.9 1399.2 487 1400.9 580.9 1400.6 588.7 1392.6 718.5 1391.3 749.2 1390.7 760.4 1397.5 855.7 1397.5 892.5 1399.3 941.3 1397.1 969.7 1399.3 1099.3 1399.8 1134.3 1399.4 1132.9 1636 925.4 1635.6 925.2 2236.3 885.8 2263.2 882 2267.3 773.9 2337.1 770.3 2336 763 2338.3 731.7 2348.7 709.7 2355.9 656.5 2373.4 624.3 2373.4 624.9 2332.7 620.5 2327.4 626.2 2326.7 626.3 2254.8 630.2 2238.3 630.7 2227 631.5 2219.6 626.5 2212.9 624.8 2106.1 509.8 2106.1 507.8 2088.8 498.4 2071 485.9 2058.5 474.6 2051.5 465.3 2046.1 459.4 2045.9 458.4 1880 440.9 1880.6 360.3 1880.4 282.4 1879.1 281.8 1919 247.6 1917.9 247.6 1879.8 235.3 1880.2 235.1 1886.2 203.5 1884.7 202 1829.1 1 1826.5 3.3 1740.6 2.7 1655.3 3.6 1597.8 5.9 1511.2 9 1405.6 41.7 1406.4 40.9 1343.7 169.8 1343.6 170.2 1410.2 169.4 1648.1 268.5 1650 267.9 1725.1 507.8 1727.9 518.4 1728.1 518 1644.8 525.5 1644.4 527.6 1435.1 462.8 1435.1 462.9 1399.2 Z" data-holc_grade="A"/>
</g>
<g id="B">
<path d="M 1742.4 2139.8 1859.8 2141 2026.3 2142 2100.3 2142.4 2224.1 2144.8 2229.4 2146.3 2381.8 2146.5 2452 2149.8 2450.5 2163.9 2457.8 2174.2 2469.3 2180 2481.9 2185.9 2478.1 2197.2 2465.7 2227.5 2445.7 2232.2 2383 2231 2386.4 2803.9 2245.5 2802 2000 2804 1943.1 2803.4 1817.7 2799.1 1739.3 2796.2 1739 2629.6 1545.8 2629.5 1524.2 2579.5 1518.3 2564.9 1513.7 2546.5 1510.5 2536.9 1510.1 2531.1 1509.1 2525.8 1507.1 2516 1504.8 2506.4 1502.8 2492.7 1502.2 2483.9 1500.5 2473.8 1499 2461.3 1498.8 2440.8 1499.3 2388.9 1500.6 2379.7 1501.9 2368.5 1572 2367.6 1571.1 2196.3 1735.5 2194.1 1736.8 2139.8 1742.4 2139.8 Z M 1137.1 934.8 1134.2 1340.2 1102.2 1340.3 1102.4 1361.7 1133.9 1362.1 1134.3 1399.4 1099.3 1399.8 969.7 1399.3 941.3 1397.1 892.5 1399.3 855.7 1397.5 760.4 1397.5 749.2 1390.7 718.5 1391.3 588.7 1392.6 580.9 1400.6 487 1400.9 462.9 1399.2 461.8 1345.4 193.4 1344.8 177.1 1343.6 169.8 1343.6 40.9 1343.7 6.3 1343.7 9.3 1105.9 12 1106.5 15.5 982.5 14 977.8 399.8 981.1 422.2 982.3 439.3 981.2 447.7 974.1 456.2 963.4 460.3 952.7 486.6 952.7 497.2 951 507.1 949 516.6 945 532 947.2 543 951.8 551.5 961.1 563.6 959.7 570.6 957 582 957.4 589.8 954.2 585.9 939.9 589.5 938.3 606.7 944.8 621.7 937.7 649 934.1 659.1 929.2 704 929.9 793.8 931.4 1137.1 934.8 Z" data-holc_grade="B"/>
</g>
<g id="C">
<path d="M 1367.4 936 1367.4 1100.2 1188.4 1100.2 1188.4 1196.9 1242.3 1197.5 1241.2 1259.3 1189.4 1259.8 1188.4 1356.1 1280.4 1355.6 1280 1462.1 1370.2 1462.1 1464.9 1456.6 1480.5 1459.9 1842.7 1461.5 1865.2 1475.1 1865.5 1457.6 1891.2 1443.3 1921.8 1424.8 1931.9 1397.3 1930.6 1349.3 1927.3 1314.2 1914.9 1280.5 1903.9 1267.9 1870 1230.9 1844.6 1202 1836.2 1188.7 2052.3 1187.4 2370.5 1185.1 2477.3 1184.8 2539.8 1184.1 2600.6 1183.8 2722 1181.8 2720.7 1339.7 2999 1338.7 2698.9 1532.1 2534.3 1536.7 2533.2 1985.3 2349 1986.4 2348 1992.5 2348.8 2001.3 2343.9 2011.9 2320.7 2042.7 2310 2062.1 2308.4 2070.9 2308.3 2086.6 2313.1 2096.8 2323 2104 2331.7 2107.3 2339.9 2107.3 2351.8 2107 2363.4 2103.7 2373.5 2096.4 2383.4 2088.4 2385.1 2077 2388 2062.4 2393.1 2055.6 2403.6 2056.4 2406.8 2060.4 2403.8 2071.2 2397 2084.2 2395.1 2097.9 2397.1 2105.7 2406.6 2113.3 2414.7 2110.7 2429.9 2100.4 2443.6 2095.2 2455 2095.9 2468.8 2107.3 2469.9 2119.8 2464.2 2133.7 2452 2149.8 2381.8 2146.5 2229.4 2146.3 2224.1 2144.8 2100.3 2142.4 2026.3 2142 1859.8 2141 1742.4 2139.8 1739.9 1987.8 1476.8 1986.8 1480.3 1835.7 1474.3 1833.6 1452.9 1825.2 1412.3 1825.9 1374.5 1828.9 1351.2 1833.6 1295.8 1832.2 1288 1842.5 1103.8 1840 1102.5 1984.7 945.1 1984.5 944.2 1653.8 1152.3 1654.5 1155.3 935 1137.1 934.8 793.8 931.4 793.8 866.5 894.9 867.3 1194.5 869.6 1275.8 936 1367.4 936 Z M 2382 702.6 2384 794.9 2509.3 793.7 2623.3 790.2 2844.2 787.4 2847.7 968.6 2798.9 983.2 2744.2 1000 2666.2 1019.5 2638.4 1026.2 2546.3 1044.7 2493.8 1053.1 2438.3 1060.5 2407.3 1064 2375.6 1067 2375.4 1063.9 2340 1064.7 2319.1 1065.5 2279.5 1066.5 2212.4 1058.8 2209.6 943.3 2173.2 943.8 2170.5 748.6 2290.8 747.8 2289.8 704.1 2382 702.6 Z M 1472.9 87.3 1509.7 119.5 1541 153.1 1575.7 188.8 1590.7 193.4 1621.6 195.2 1657.8 201.2 1688 206 1689.4 529.4 1664.4 563.3 1624.1 562.7 1622.9 570.2 1616.1 580.8 1612 590.6 1598.6 609.3 1591.1 621.4 1578.7 643.8 1092.9 639.7 1093 560.2 1026.2 551.2 1026.3 400.8 1026.9 362 1091.9 361.8 1091.4 252.5 1160.5 252.3 1161.6 232.2 1184.3 210.4 1200.5 205.2 1202.6 173.6 1214 172.8 1229.4 172.6 1241.1 169.5 1250.3 161.8 1250.7 152.1 1245.5 122.4 1253 122.8 1278.2 110.4 1286.9 116.2 1291.9 113.1 1290 101.6 1306.9 90.6 1318 77.6 1321.5 51 1320 1 1327.3 2 1455.6 68.2 1472.9 87.3 Z" data-holc_grade="C"/>
</g>
<g id="D">
<path d="M 2271.8 1088.4 2358.2 1089 2382.4 1088.4 2422.2 1085.1 2466.3 1080.5 2523.4 1072 2573.6 1062.8 2626.3 1052.8 2654.6 1043.7 2691.7 1036.6 2724.2 1026.9 2725.4 1165.5 1926.4 1176.4 1897.8 1175.8 1836.8 1178.4 1800 1119.3 1796.3 1108.8 1791.1 1091.5 1785.2 1083.1 1776.2 1072.5 1769.3 1064.3 1762.1 1043.4 1758.9 1028.8 1754.9 1009.4 1749.8 999.6 1738.9 980.6 1944.4 1036.1 2044 1059.6 2092.3 1071.6 2141.4 1078.2 2210.4 1085.7 2230.8 1086.1 2271.8 1088.4 Z M 1794.2 1177.9 1549.6 1179.2 1547.1 1178.1 1544.5 1149.6 1542.1 1124.8 1534.8 1100.5 1529.5 1086.2 1523.6 1075 1517.4 1059.6 1505.9 1039.1 1494.3 1019.6 1481.8 1005.9 1482.8 895.5 1581.2 918.9 1683.8 950.1 1692.2 982.6 1696.7 993.2 1707.6 1010.8 1714.4 1022.6 1719.9 1037.8 1726.7 1058.8 1730.7 1071.3 1739.6 1084.2 1746.5 1102.7 1752 1118.2 1757.4 1124.8 1771.5 1140 1779.1 1151.4 1788.2 1165.7 1794.2 1177.9 Z M 1367.4 936 1275.8 936 1194.5 869.6 894.9 867.3 886.1 857.5 886.3 786.8 1000 787 1059.2 801.7 1058.7 793.4 1103.5 810.2 1145.7 827.3 1196.9 851.1 1216.5 861.1 1238.1 870.6 1287.7 894.2 1339.2 916.2 1364.8 929.5 1367.4 936 Z M 1647.4 786.6 1646.8 933.5 1623.7 924.1 1575.5 908.5 1517.3 891.7 1434.9 865.1 1250.1 812.6 1166.5 788.2 1081.2 762.3 1059.7 757.4 1060.1 656.6 1591.8 659.8 1590.1 725.7 1593.1 751.9 1594.4 785 1647.4 786.6 Z M 777.9 716.6 777.7 729.2 788.3 731.4 787.8 794.5 624.7 792.2 600.1 776.8 466.5 776.6 457.9 760.1 457 724 442.7 724.4 442.3 609.4 449.9 611.5 452.6 618 777.9 716.6 Z" data-holc_grade="D"/>
</g>
</svg>