<?xml version="1.0"?>
<svg xmlns="http://www.w3.org/2000/svg" version="1.2" baseProfile="tiny" width="3000" height="3361" viewBox="0 0 3000 3361" stroke-linecap="round" stroke-linejoin="round">
<g id="A">
<path d="M 1738.8 1754.9 1715.8 1735.5 1791 1696.3 1932.6 1623.4 1941.9 1643.7 1928.9 1660.3 1911.8 1676.7 1891 1693.7 1867.2 1706.9 1817.3 1729.7 1771.7 1749 1753.8 1750.7 1738.8 1754.9 Z M 2003.8 1571.4 1979.5 1571.8 1978.1 1550.3 2002.2 1492.2 1974.6 1491.3 1974.6 1385.8 1977.3 1351.4 1977.7 1325.6 1996.9 1323.9 1994.6 1279.6 2002.6 1279.5 2015.2 1304.2 2023.4 1327.5 2027.8 1352.8 2028.4 1439.5 2058.1 1440.5 2054.5 1465.5 2031.9 1513.6 2003.8 1571.4 Z" data-holc_grade="A"/>
<path d="M 1874.3 1915.2 1816.5 1916.1 1812.1 1915.9 1811.8 1910.6 1811.6 1898.9 1809.7 1882.8 1796.3 1871.2 1804.2 1862.1 1820 1843.6 1841.4 1858.8 1858.3 1867.6 1873.3 1870.9 1874.3 1915.2 Z" data-holc_grade="A"/>
<path d="M 2159 1862.7 2160.5 1898.5 2162.4 1926.3 2163.1 1948.8 2162.7 1965.2 2093.1 1964.3 2084.5 1944.3 2083.3 1937 2083.8 1918.5 2087.1 1908.3 2085.9 1895.7 2081.6 1876.7 2077.8 1861.3 2159 1862.7 Z" data-holc_grade="A"/>
<path d="M 2291.1 1963.8 2291.7 1990.2 2294.3 2038 2327.5 2037.7 2338.3 2040.5 2347.7 2043 2348.4 2077.9 2356.5 2089.3 2357.7 2138.2 2350 2169.1 2349.8 2169.9 2205.9 2167.8 2169.9 2168 2170.4 2100.1 2215.6 2098.9 2213.2 2037.2 2214.4 1960.7 2250.9 1960.5 2291.1 1963.8 Z" data-holc_grade="A"/>
<path d="M 2343.2 1370.5 2487.3 1367 2493.6 1407.7 2492.7 1432 2493.9 1470.1 2467.6 1485.2 2396.2 1494.1 2396.2 1479.6 2385 1458.2 2376.1 1454.5 2366.4 1450.5 2357 1438.6 2348.7 1424.1 2346.7 1393 2343.2 1370.5 Z" data-holc_grade="A"/>
<path d="M 2540.1 1564.4 2544.6 1560.4 2545.1 1534.8 2550.1 1522.4 2568.7 1510.5 2565.3 1497.2 2598 1479.9 2620.6 1466.6 2629.2 1489.8 2624.7 1530.4 2624 1576.5 2618 1584.3 2599 1589.1 2577.8 1599.8 2568.7 1618.3 2551.1 1618.8 2541.8 1623.5 2540.1 1564.4 Z" data-holc_grade="A"/>
</g>
<g id="B">
<path d="M 1845.3 889.3 1844.9 989.5 1772.9 988.9 1773.7 1096.2 1775 1158.8 1678.8 1160.1 1677.3 1096.6 1642.6 1096.6 1646 997.7 1625.3 997.9 1620.7 935.2 1617.6 891.4 1717.3 889.8 1773.5 884.9 1845.3 889.3 Z M 1408.3 787.6 1413.2 894.5 1438.9 892.8 1441.3 945.5 1576 943.5 1577.5 993.9 1373.1 994.2 1367 853.2 1366.2 788.2 1408.3 787.6 Z" data-holc_grade="B"/>
<path d="M 1519.9 1388.2 1519.3 1420 1678 1419.1 1681.1 1576.7 1670.2 1577.2 1670.4 1616 1689.5 1615.7 1661.8 1702.4 1652.4 1725.7 1635.2 1752.5 1606 1779.2 1562.2 1830.2 1504 1776.1 1504.5 1731.7 1524.3 1710.6 1561.9 1740.9 1581.9 1724.3 1630.8 1667.1 1629.3 1636.3 1552.9 1638.6 1529.1 1610.6 1494.3 1614 1495.2 1558.7 1413.3 1556.3 1414.4 1487.2 1520 1382.8 1519.9 1388.2 Z" data-holc_grade="B"/>
<path d="M 2003.8 1571.4 1995.6 1588 1970.5 1610.7 1941.9 1643.7 1932.6 1623.4 1791 1696.3 1715.8 1735.5 1738.8 1754.9 1726.4 1762.7 1711.5 1764.7 1692.1 1772.4 1653.2 1796.2 1644.4 1798.1 1645.1 1797.7 1606 1779.2 1635.2 1752.5 1652.4 1725.7 1661.8 1702.4 1689.5 1615.7 1725.1 1615.2 1723.4 1578.4 1826.1 1578.4 1902.1 1578.5 1900.1 1320.1 1973.4 1318.5 1973.7 1310.2 1971 1305.5 1972.7 1297.5 1970.8 1277.9 1994.6 1279.6 1996.9 1323.9 1977.7 1325.6 1977.3 1351.4 1974.6 1385.8 1974.6 1491.3 2002.2 1492.2 1978.1 1550.3 1979.5 1571.8 2003.8 1571.4 Z" data-holc_grade="B"/>
<path d="M 2540.1 1564.4 2541.8 1623.5 2528.1 1634.9 2511.1 1653.2 2508.7 1660.6 2699.3 1660.7 2723.3 1648.5 2728.1 1703 2735.3 1738.3 2736.1 1753.5 2738.3 1843.5 2738.1 1885.3 2686.8 1875.3 2686.9 1918.9 2638.8 1910.8 2623 1911.9 2528.6 1896.1 2438.5 1894 2344.9 1893.9 2328.5 1886.1 2333.7 1816.4 2333 1799.1 2273.9 1802.2 2238.6 1804.6 2194.3 1806.5 2195.7 1764 2157.1 1764 2160.7 1711.1 2249.1 1712.5 2242.8 1636.7 2316.2 1660.7 2352.2 1662.1 2357.4 1631 2360.5 1621.7 2361 1603.7 2364.1 1584.2 2366.9 1570 2378.6 1556.9 2389.1 1553.6 2396.9 1554.1 2410.8 1556 2423.4 1561.9 2431 1568.8 2540.1 1564.4 Z M 2582.2 1767.5 2583.8 1860.9 2634.3 1860.1 2634.8 1767.6 2582.2 1767.5 Z M 2713.8 1638.6 2706.9 1648.1 2687.1 1627.6 2694.3 1614.3 2697 1594.5 2697.3 1566.4 2695.8 1538 2707.6 1526.6 2720.6 1523.5 2722.5 1616.2 2713 1623 2713.8 1638.6 Z" data-holc_grade="B"/>
<path d="M 1812.1 1915.9 1760.1 1913 1796.3 1871.2 1809.7 1882.8 1811.6 1898.9 1811.8 1910.6 1812.1 1915.9 Z M 2077.8 1861.3 2081.6 1876.7 2085.9 1895.7 2087.1 1908.3 2083.8 1918.5 2083.3 1937 2084.5 1944.3 2093.1 1964.3 2162.7 1965.2 2163.1 1948.8 2162.4 1926.3 2160.5 1898.5 2159 1862.7 2266.5 1861.9 2328.5 1886.1 2344.9 1893.9 2334.4 1894.4 2330.5 1962 2329.8 1973.1 2318.7 1964.2 2291.1 1963.8 2250.9 1960.5 2214.4 1960.7 2213.2 2037.2 2215.6 2098.9 2170.4 2100.1 2169.9 2168 2205.9 2167.8 2205.4 2218.6 2181.1 2218.6 2156.4 2222.4 2135.1 2219.6 2025.8 2220.6 1968.6 2219.9 1971.4 2169.1 1878.4 2166.5 1877.4 2101.9 1876.3 2069.5 1874.8 2032.1 1876.5 1967.2 1936.2 1965.6 1944.5 1964.6 1945.3 1914.5 1877.8 1915.1 1874.3 1915.2 1873.3 1870.9 1858.3 1867.6 1841.4 1858.8 1820 1843.6 1850.1 1808.3 1864.9 1799.1 1886.6 1799.8 1896.6 1801.4 1966.2 1834.4 1968.9 1877.4 1970.3 1890 1971.5 1912.3 1971.1 1943.9 2059.2 1860.6 2077.8 1861.3 Z M 1957.8 2014.9 1956.6 2050.2 2024.1 2048.5 2024.5 2012.4 2026 1995.5 2025.8 1973.3 1985.4 1975.2 1985.4 2013.2 1957.8 2014.9 Z" data-holc_grade="B"/>
<path d="M 2350 2169.1 2357.7 2138.2 2356.5 2089.3 2348.4 2077.9 2347.7 2043 2338.3 2040.5 2333.9 2028.3 2330.8 2005 2329.6 1986.4 2329.8 1973.1 2330.5 1962 2442.1 1962.7 2443.5 2009.8 2443.4 2097 2425.7 2099 2425.6 2127.6 2408.2 2181.5 2370.7 2170.4 2350 2169.1 Z" data-holc_grade="B"/>
<path d="M 2265.5 1245.1 2291.4 1280.7 2276.7 1297.3 2267.4 1319.1 2249.3 1385.8 2221.9 1388.2 2180 1347.4 2265.5 1245.1 Z" data-holc_grade="B"/>
</g>
<g id="C">
<path d="M 2070.1 1247.1 2071.8 1190.1 2068.9 1152.3 2009.2 1152 1990.3 1120.4 1986.3 1078 1987.1 994 1976 978.6 1969.1 969.2 1971.7 949.6 1970.8 933.9 1967.1 914.5 1964.3 891.5 1958.5 866.7 1945.1 845.4 1936.5 835.7 1935.4 823.2 1935.9 796.4 1933.6 777.6 1936.8 755.4 1941.1 738 1957.4 740.3 2155.6 739.1 2156.8 842.2 2160.3 916.2 2161.2 930.7 2333.5 933.8 2332.6 994.1 2296.6 995 2296.1 1055.9 2299.5 1073.9 2249.5 1077.3 2250.7 1124 2161.8 1126.9 2162.1 1193.5 2262.4 1192.3 2163.9 1332.2 2162.8 1386.3 2115.9 1387.2 2048.7 1260.5 2070.1 1247.1 Z" data-holc_grade="C"/>
<path d="M 1900.1 1320.1 1902.1 1578.5 1826.1 1578.4 1825.8 1511.8 1825.5 1454.8 1875.2 1453.6 1874.9 1383.9 1775.7 1382.5 1705.7 1577.6 1723.4 1578.4 1725.1 1615.2 1689.5 1615.7 1670.4 1616 1670.2 1577.2 1681.1 1576.7 1678 1419.1 1519.3 1420 1519.9 1388.2 1570.5 1387.3 1571.4 1330.1 1900.1 1320.1 Z" data-holc_grade="C"/>
<path d="M 1414.4 1487.2 1413.3 1556.3 1495.2 1558.7 1494.3 1614 1529.1 1610.6 1552.9 1638.6 1629.3 1636.3 1630.8 1667.1 1581.9 1724.3 1561.9 1740.9 1524.3 1710.6 1504.5 1731.7 1504 1776.1 1562.2 1830.2 1606 1779.2 1645.1 1797.7 1644.4 1798.1 1632 1806.9 1622 1812.6 1605.1 1837.6 1591.7 1857.7 1576.9 1874.6 1561 1903.8 1544.5 1926.3 1527.6 1950.8 1491.5 1932.6 1507.4 1915.9 1545.8 1870 1531.5 1863 1513.7 1847.6 1469.7 1808.4 1438.3 1808.8 1438.3 1781.3 1432.1 1668.5 1382.4 1670.4 1382.2 1629.7 1333.1 1633 1328.5 1583.8 1248.6 1584 1230.9 1532.6 1221.3 1518.6 1221.1 1514.1 1217.3 1492.5 1206.1 1458.8 1193 1422.5 1184 1401.1 1179.7 1387.4 1159.4 1311.6 1180.3 1289.7 1314.7 1293.1 1318.5 1241.3 1318.7 1184.6 1376.1 1185.8 1375.2 1257.7 1379 1389.9 1415.9 1389.2 1414.4 1487.2 Z M 1373 1424.9 1302.9 1426.6 1300.9 1490.9 1373.3 1491 1373 1424.9 Z" data-holc_grade="C"/>
<path d="M 1188.1 1777.3 1190.3 1834.2 1190 1928.3 1190 1930.7 1127.6 1927 1125.3 1981.4 990.4 1972.6 912.6 1968.3 800.2 1961.8 749.3 1958.9 749 1901.9 698.4 1898.2 699.3 1787.9 955.8 1784 1079.7 1783.3 1153.7 1778.8 1188 1775.4 1188.1 1777.3 Z" data-holc_grade="C"/>
<path d="M 1966.2 1834.4 1896.6 1801.4 1886.6 1799.8 1864.9 1799.1 1850.1 1808.3 1820 1843.6 1804.2 1862.1 1796.3 1871.2 1760.1 1913 1725.4 1911.7 1723.1 1962.1 1813.5 1965.7 1816.5 1916.1 1874.3 1915.2 1877.8 1915.1 1876.5 1967.2 1874.8 2032.1 1876.3 2069.5 1877.4 2101.9 1878.4 2166.5 1738.2 2167.1 1729.6 2167.1 1666.8 2169 1601.9 2129.8 1534.3 2086.8 1568.3 2035.7 1578.4 2020.7 1575.4 2016.6 1651.4 1901.9 1667.8 1877.2 1680.7 1867 1703.5 1850.9 1732.9 1868.6 1743.6 1852.3 1814.4 1806.2 1861.8 1777.7 1964.7 1777 1966.2 1834.4 Z" data-holc_grade="C"/>
<path d="M 2205.4 2218.6 2207.2 2301 2209.8 2351.3 2182.4 2355.1 2165.7 2347.8 2131.6 2328.5 2075.8 2309.1 2051.3 2312.9 1999.8 2314 1943 2314 1815.2 2313.2 1735.9 2315.2 1736.6 2190.2 1738.2 2167.1 1878.4 2166.5 1971.4 2169.1 1968.6 2219.9 2025.8 2220.6 2135.1 2219.6 2156.4 2222.4 2181.1 2218.6 2205.4 2218.6 Z" data-holc_grade="C"/>
<path d="M 2162.9 2403.8 2160.5 2429.3 2159.4 2456.1 2160.2 2638.4 2161 2640.6 2164 2648.2 2163.6 2677.2 2124.1 2677.6 2123.8 2619.1 2121.1 2554.5 2037.6 2554.4 1996.6 2519.1 1973.5 2503.7 1952.6 2503.9 1853.6 2505.2 1698.8 2505.4 1699.1 2427.2 1770.2 2429.1 1773.7 2397.1 1832 2402.4 1870 2398.5 1959.6 2396 2089.6 2397.4 2133.9 2400.1 2152.4 2403.3 2162.9 2403.8 Z" data-holc_grade="C"/>
<path d="M 2161 2640.6 2160.2 2638.4 2159.4 2456.1 2160.5 2429.3 2162.9 2403.8 2178.3 2404.5 2186.4 2403.1 2182.4 2355.1 2292.6 2398.4 2294.1 2498.7 2372.7 2500.7 2375.3 2480.1 2373 2466.5 2370.7 2416.9 2338.3 2408.6 2337.4 2196.6 2344.2 2194.9 2376.9 2204.3 2410.3 2208.6 2412 2180.9 2458.6 2191.7 2542.7 2190.2 2545.6 2199.4 2548.8 2327.9 2548.5 2350.7 2641.2 2349.5 2641.5 2378.5 2691.3 2379.1 2740.7 2384.2 2742.5 2445.1 2742.8 2510.4 2743.4 2535.8 2821.9 2537.1 2846.9 2536.6 2879.8 2533 2891.9 2534.4 2910 2529.9 2916.3 2536.3 2921.3 2536.5 2923.9 2573.3 2927 2596.8 2930.1 2614.6 2930.4 2635.8 2939.7 2635.1 2943.3 2653.6 2942.3 2669.3 2952.9 2698 2964.1 2702.3 2966.7 2746 2994.9 2745.9 2999 2852.8 2981.1 2853.5 2983.3 2933.3 2926.4 2933.9 2921 2829.8 2872.9 2829.2 2873.3 2804.7 2875 2781.2 2871.8 2733.2 2871.3 2696.6 2874.4 2686.4 2836 2676.7 2811 2656.5 2763 2606.9 2746.3 2587.7 2743.3 2623.8 2742.4 2686.5 2747.9 2743.8 2644.4 2743.8 2642.5 2703.7 2645.3 2636.7 2644.5 2566.2 2642.6 2521.1 2599 2508.3 2484.1 2465.8 2489.6 2547.5 2545.1 2543.4 2548.1 2657 2549.1 2748.9 2347.9 2750.7 2336.6 2652.6 2321.1 2652.8 2317.3 2646.9 2293 2645 2285.6 2648.8 2247.5 2653.6 2246.8 2675.6 2202.7 2676.4 2202.4 2639.8 2161 2640.6 Z" data-holc_grade="C"/>
<path d="M 1403.2 2650 1354.9 2651 1353.2 2601.4 1267.9 2604 1268.8 2594.5 1277.9 2576.7 1294.8 2554.1 1319.4 2532.3 1338.5 2519.2 1354.4 2513.8 1395.7 2511.1 1444.2 2508.6 1404.7 2599.6 1403.2 2650 Z" data-holc_grade="C"/>
</g>
<g id="D">
<path d="M 2354.6 409.6 2351.1 601.7 2268.6 601.6 2168.9 606.6 2161.3 655.2 1985.8 653.4 2062.4 605 2076.6 590.6 2135.9 593.2 2163.3 595.5 2170.3 575.5 2175.1 552.4 2217.7 389.9 2249.3 388.6 2316.7 387.4 2353.3 393.7 2354.6 409.6 Z M 2353.2 1 2317.8 101.2 2318.2 196.2 2387.3 196.2 2385.6 297.8 2237.7 301.6 2253.1 205.1 2139.7 207.7 2137.3 111.8 2136.2 25.3 2143.9 18.4 2151.9 19.3 2153.3 5.9 2353.2 1 Z" data-holc_grade="D"/>
<path d="M 2164.2 3329.1 2061.4 3330.3 2061.9 3239.3 2077.9 3237.6 2164.4 3237.1 2164.2 3329.1 Z M 1043.7 3299.1 1043.3 3314.1 1115.8 3312.8 1115.4 3346.8 923.3 3354.5 771.6 3360.4 782.5 3343.1 845.5 3249 940.1 3244.7 934 3236.3 1049.4 3232.9 1051.1 3294.9 1043.7 3299.1 Z M 818.6 3065.6 820.3 3097.9 943.8 3097.7 901.3 3160.9 857.4 3160.8 857.9 3166.1 763.3 3170.3 700.5 3171.2 703.7 3069.1 749 3068.6 764.3 3065.8 818.6 3065.6 Z M 2011.2 2948.8 2011.4 2992.5 2040.5 2993.2 2041 3145.8 1874.6 3143.4 1873.4 3250.3 1974.1 3251.7 1972.7 3339.2 1382.8 3345.9 1336.2 3316.7 1332.8 3306 1313.9 3288.5 1299.2 3262.1 1287 3227.1 1287.4 3217.3 1310.7 3142.3 1481.4 3142.8 1654.5 3143.7 1764.9 3142.3 1766.3 2949.6 1896.5 2949.8 2011.2 2948.8 Z M 1574.4 3050.9 1306.4 3051.3 1307.9 2944.4 1573 2944 1574.4 3050.9 Z M 2264.2 2919.2 2295.1 2943.1 2170.9 2942 2168.4 3056.4 2198.4 3060.9 2265.1 3064.9 2268 3121 2268.6 3143.3 2236.8 3149.5 2191.6 3144.1 2161.3 3141.9 2083.1 3143 2082.5 3002.8 2083.6 2943.5 2163.5 2940.1 2162 2781 2179.4 2817.8 2196.6 2848 2214.6 2873.9 2235.3 2894.7 2264.2 2919.2 Z M 1287.8 2859.9 1287.4 2860.4 1288.3 2754 1378 2755.9 1378.4 2858 1287.8 2859.9 Z M 2823.9 2145.3 2832.5 2182.3 2832.8 2225.6 2834.1 2349 2806.9 2344.2 2753.7 2348.2 2729.1 2344.8 2727.9 2277.8 2732.7 2146.2 2761 2148.4 2791.9 2150.1 2823.9 2145.3 Z" data-holc_grade="D"/>
<path d="M 1180.3 1289.7 1159.4 1311.6 1097.2 1262.1 1069.6 1241.9 990.7 1169.2 977.9 1160.1 979.3 1003.8 1103.5 996.7 1182.4 994.4 1187.7 1078.9 1182.8 1167.7 1180.3 1289.7 Z" data-holc_grade="D"/>
<path d="M 1179.7 1387.4 1184 1401.1 1193 1422.5 1206.1 1458.8 1217.3 1492.5 1221.1 1514.1 1221.3 1518.6 1230.9 1532.6 1248.6 1584 1268 1640.2 1187 1641.3 1188 1775.4 1153.7 1778.8 1079.7 1783.3 955.8 1784 699.3 1787.9 658.4 1788.6 656.5 1725.8 655.5 1592.1 657.8 1584.2 662.9 1582.1 673.2 1582.1 689.6 1563.3 692.7 1488.1 796.6 1487.2 796.3 1551.3 790.8 1629.8 793.7 1653.6 931.9 1654.3 934 1586.2 987.4 1585 992.9 1385.4 1071.8 1386.6 1156.8 1385.2 1179.7 1387.4 Z" data-holc_grade="D"/>
<path d="M 204.1 2130.5 203.4 2214.9 132.5 2200 105.1 2187.7 13.8 2219.8 12.1 2200.7 5.3 2201.6 2.6 2012.4 1 1840.1 20.7 1840.1 33 1825.6 59.6 1835.8 207.7 1847.6 208.8 1917.1 203.8 2070.1 204.1 2130.5 Z M 658.4 1788.6 699.3 1787.9 698.4 1898.2 749 1901.9 749.3 1958.9 800.2 1961.8 800.4 2072.5 800.4 2075.1 799.8 2113.6 723.8 2111.9 722 2176.5 604.2 2180.5 557.3 2183.3 523.6 2183.8 455.8 2180.7 397.1 2190 362.8 2196.8 287 2215 287.1 2174.9 291.7 2105.9 294 2066.9 292.6 2041.8 297.3 1856.6 304.4 1855.8 301.6 1786.3 335.9 1786.9 416 1784.6 411.1 1867.5 588.6 1881 592.4 1847.1 594.4 1816.7 593.8 1789.6 658.4 1788.6 Z" data-holc_grade="D"/>
<path d="M 800.4 2072.5 800.2 1961.8 912.6 1968.3 990.4 1972.6 1125.3 1981.4 1127.6 1927 1190 1930.7 1188.8 2074.6 1108.2 2078 1110.4 2045.5 990.9 2034.1 800.4 2072.5 Z" data-holc_grade="D"/>
<path d="M 1491.5 1932.6 1489.5 1934.7 1466.3 1975.1 1437.2 1960.6 1410.1 2008.5 1302.7 1953.5 1287.6 1980.5 1337 2007.9 1327 2027.6 1383.2 2059.8 1337.1 2136.2 1231.2 2080.9 1282.1 1994.1 1262.1 1982 1269.9 1968.2 1206.3 1927.5 1195.2 1927.4 1190 1928.3 1190.3 1834.2 1188.1 1777.3 1218.6 1777.1 1220.4 1818.1 1221.5 1866.9 1230.9 1866.4 1262.9 1889.1 1275.2 1904.2 1284.7 1905.1 1296.5 1903.6 1314.6 1891 1318.3 1877.6 1318.1 1866.7 1321.1 1854.7 1318.7 1836.8 1312.6 1827.6 1284.3 1830.5 1277.1 1782.6 1302 1783.4 1294.6 1725 1338.4 1723.8 1333.1 1633 1382.2 1629.7 1382.4 1670.4 1432.1 1668.5 1438.3 1781.3 1438.3 1808.8 1469.7 1808.4 1513.7 1847.6 1531.5 1863 1545.8 1870 1507.4 1915.9 1491.5 1932.6 Z" data-holc_grade="D"/>
<path d="M 1703.5 1850.9 1680.7 1867 1667.8 1877.2 1651.4 1901.9 1575.4 2016.6 1553.2 2004.7 1558 1991.9 1568.7 1979.6 1588.5 1958 1603.5 1934.2 1620.9 1901.7 1627.8 1883.9 1643.7 1856.1 1657.3 1843.5 1672.6 1834 1703.5 1850.9 Z" data-holc_grade="D"/>
<path d="M 820.8 2456.9 856.8 2490.3 901.4 2489.2 898.9 2570.1 775.1 2571.4 760.3 2517.1 820.8 2456.9 Z M 1413.8 2333.8 1416.2 2344.4 1323 2337.5 1322.5 2369.6 1321.8 2396.7 1349.8 2404.7 1346.5 2428.2 1355.8 2429 1325.7 2477.2 1282.6 2464.8 1281.2 2477.4 1257.3 2514.9 1231.3 2565.3 1208.5 2634.4 1119.5 2764.5 1099 2728.2 1098.8 2663.8 1097.6 2536.3 983.7 2536.7 980.5 2452.7 945.8 2452.5 946 2373.8 786.4 2376.3 786.3 2276.7 982.1 2274.1 982.7 2183.3 984.2 2152.4 1066.5 2138.6 1090.7 2138.7 1140.7 2139.3 1142.2 2157.7 1180.6 2164.7 1211.3 2170.9 1252.1 2178.5 1225.6 2229.7 1235.9 2232 1249.6 2236.3 1249.9 2261.2 1333.4 2271.9 1327.9 2297.1 1415.8 2302.2 1417.3 2313.9 1415.6 2325.2 1413.8 2333.8 Z" data-holc_grade="D"/>
<path d="M 1738.2 2167.1 1736.6 2190.2 1735.9 2315.2 1815.2 2313.2 1943 2314 1999.8 2314 2051.3 2312.9 2075.8 2309.1 2131.6 2328.5 2165.7 2347.8 2182.4 2355.1 2186.4 2403.1 2178.3 2404.5 2162.9 2403.8 2152.4 2403.3 2133.9 2400.1 2089.6 2397.4 1959.6 2396 1870 2398.5 1832 2402.4 1773.7 2397.1 1770.2 2429.1 1699.1 2427.2 1698.8 2505.4 1853.6 2505.2 1952.6 2503.9 1952.2 2554.5 1931.9 2554.8 1931.1 2587.6 2040 2588.4 2037.6 2554.4 2121.1 2554.5 2123.8 2619.1 2124.1 2677.6 1939 2679 1794.6 2679.9 1693.6 2680.9 1693.2 2713.6 1909.5 2713.6 1908.8 2824.8 1908.1 2854.7 1876 2855.1 1876 2870.5 1567.8 2868.3 1569.3 2762.3 1569.7 2686.8 1527.5 2687.4 1528.5 2647.1 1403.2 2650 1404.7 2599.6 1444.2 2508.6 1465.2 2507.5 1477.6 2494.4 1507.7 2465.1 1474.7 2437.8 1463.3 2426.7 1445.7 2407.2 1448 2366.5 1443.6 2327.6 1442.7 2309 1493.2 2307.1 1495.5 2269.5 1440.2 2268.7 1446.3 2255 1425.5 2235.6 1452.4 2190.6 1442.1 2181.9 1471.7 2135.5 1540.3 2179 1579.2 2178.7 1666.3 2178.3 1666.8 2169 1729.6 2167.1 1738.2 2167.1 Z" data-holc_grade="D"/>
</g>
</svg>