<?xml version="1.0"?>
<svg xmlns="http://www.w3.org/2000/svg" version="1.2" baseProfile="tiny" width="3000" height="3658" viewBox="0 0 3000 3658" stroke-linecap="round" stroke-linejoin="round">
<g id="A">
<path d="M 2315.3 2101.6 2297.9 2097.5 2257.2 2213.9 2241.9 2257.9 2180.3 2238.4 2144.7 2227.2 2163.4 2168.3 2174.3 2131.1 2186.3 2098.1 2196.6 2059 2176.7 2051.2 2205.7 1961.8 2217.6 1965.4 2256.8 1980.4 2302.7 2000.2 2330.4 2013.4 2349.1 2019.4 2339.4 2039.2 2331 2059 2319.6 2086.6 2315.3 2101.6 Z" data-holc_grade="A"/>
<path d="M 739.7 2712.7 728.9 2706.1 704.6 2704.6 683.8 2699.5 664.7 2694.8 653.4 2693.3 639.8 2703.1 632.2 2715.1 627.7 2729.4 629.2 2739.9 626.2 2751.9 639.4 2756.7 651.1 2760.9 666.9 2766.3 684.7 2772.4 700 2778 710.6 2781.9 720.7 2784.3 735.6 2789.2 737 2789.6 734 2812 729 2825.3 724.9 2836 720.9 2847.4 715.9 2861.5 735.1 2866.2 762 2872.7 790.3 2879.7 804.8 2883.3 826.4 2889.9 839.5 2893.8 865.8 2900.2 880.4 2903.7 880.3 2904.1 873.9 2926.5 866.3 2952.8 857.9 2981.8 857.9 2982.2 840.2 2986.2 825.9 2993 816.1 3007.2 800.3 3026.7 782.9 3031.2 740 3021.5 695.5 3007.2 645 2994.4 638.9 2984.6 642.7 2960.6 604.3 2950.1 572.6 2942.6 549.2 2937.3 520.6 2921.5 498 2896.7 469.3 2887 431.7 2871.9 442.2 2838.9 448.4 2823 455 2805.9 439.8 2800.6 422.6 2794.6 413.8 2789.9 402.6 2783.8 396.3 2780.3 382.7 2769.8 389.5 2755.7 398.5 2736.8 383.4 2734.3 361.6 2730.8 374.4 2694 388 2661 403.1 2627.2 420.4 2586.6 437 2547.6 454.4 2506.3 477.8 2508.6 506.4 2513.9 528.3 2523.6 553.9 2529.6 571.2 2517.6 584.8 2494.4 593.9 2471.1 599.2 2442.6 608.2 2421.6 618.8 2403.5 639.4 2364 639.6 2363.6 664.6 2370.6 694.6 2361.8 707.7 2350.1 708.8 2350.5 734.9 2359.6 754.3 2372.2 769.7 2381.2 781 2389.3 760.2 2441.6 751.6 2465.9 743.9 2486.6 734.8 2512.3 728.9 2533 721.7 2556.4 748.8 2563.6 779.1 2570.8 812.1 2577.6 812.1 2600.1 806.7 2621.3 792.2 2660 782.4 2687.2 782.3 2687.5 753.3 2680.6 752 2680.3 747.4 2691.1 741.6 2706.9 739.7 2712.7 Z" data-holc_grade="A"/>
<path d="M 857.9 2982.2 858.5 2992.7 855.1 2996.9 860.1 3007.2 857.4 3023 851.9 3040.1 846.3 3049.3 841.7 3060.5 838.3 3071.7 836.1 3076.6 831.5 3092.8 832.7 3101.1 822.9 3119.1 771.6 3105.6 709 3089.8 663 3078.5 615.5 3064.2 572.6 3054.5 537.9 3043.2 539.4 3034.9 546.2 3015.4 553 2990.6 557.5 2971.1 519.8 2961.3 482.1 2950.8 438.4 2942.5 392.4 2933.5 352.5 2926.7 355.5 2915.5 360.8 2893.3 370.5 2894.3 387.9 2896 392.6 2877.1 397 2859.2 431.7 2871.9 469.3 2887 498 2896.7 520.6 2921.5 549.2 2937.3 572.6 2942.6 604.3 2950.1 642.7 2960.6 638.9 2984.6 645 2994.4 695.5 3007.2 740 3021.5 782.9 3031.2 800.3 3026.7 816.1 3007.2 825.9 2993 840.2 2986.2 857.9 2982.2 Z" data-holc_grade="A"/>
</g>
<g id="B">
<path d="M 2008.5 576 2008.5 601.8 2035.6 601.8 2067.2 598.4 2091 597.3 2117 599.6 2122.6 588.3 2140.7 587.2 2156.5 607.4 2170.1 614.2 2152 669.3 2107.9 667.1 2083.1 663.7 2068.4 663.7 2070.7 721.1 2070.7 748.1 2027.7 741.4 1982.5 741.4 1929.4 739.1 1898.9 738 1895.5 706.5 1897.8 660.4 1901.1 643.5 1906.8 627.7 1902.3 580.5 1912.4 571.5 1967.8 573.7 2008.5 576 Z M 2002.8 667.1 1994.9 671.6 1980.2 673.9 1964.4 673.9 1954.3 669.4 1955.4 691.9 1983.6 688.5 2005.1 690.7 2006.2 679.5 2002.8 667.1 Z" data-holc_grade="B"/>
<path d="M 917.1 2391.5 909.3 2410.7 905 2430.5 899 2455.7 893.6 2481.5 891.2 2500.8 887.5 2537.4 889.3 2560.2 888.7 2593.8 893.5 2629.3 882.7 2630.5 855.6 2623.3 797.6 2805.8 776.4 2800.1 768.2 2797.9 754.9 2794.6 737 2789.6 735.6 2789.2 720.7 2784.3 725.6 2772.4 728.1 2763.6 730.8 2755.8 734.9 2743.8 735.5 2738.5 736.1 2732.4 736.7 2726.7 739.4 2718.3 740.9 2713.5 739.7 2712.7 741.6 2706.9 747.4 2691.1 752 2680.3 753.3 2680.6 782.3 2687.5 782.4 2687.2 792.2 2660 806.7 2621.3 812.1 2600.1 812.1 2577.6 779.1 2570.8 748.8 2563.6 721.7 2556.4 728.9 2533 734.8 2512.3 743.9 2486.6 751.6 2465.9 760.2 2441.6 781 2389.3 769.7 2381.2 754.3 2372.2 734.9 2359.6 708.8 2350.5 707.7 2350.1 694.6 2361.8 664.6 2370.6 639.6 2363.6 639.4 2364 638.1 2363.6 661.8 2297.9 701.4 2310.3 750 2329.4 791.8 2344.1 812.2 2359.8 917.1 2391.5 Z" data-holc_grade="B"/>
<path d="M 361.6 2730.8 383.4 2734.3 398.5 2736.8 389.5 2755.7 382.7 2769.8 396.3 2780.3 402.6 2783.8 413.8 2789.9 422.6 2794.6 439.8 2800.6 455 2805.9 448.4 2823 442.2 2838.9 431.7 2871.9 397 2859.2 392.6 2877.1 387.9 2896 370.5 2894.3 360.8 2893.3 333.6 2890.7 321.6 2723.2 361.6 2730.8 Z" data-holc_grade="B"/>
<path d="M 1131.3 2648.3 1163.8 2660.7 1180.4 2623.2 1273.1 2622.4 1299.5 2623.2 1325.1 2623.9 1322.1 2720 1304 2714.8 1303.3 2780.1 1329.6 2788.3 1332.7 2841.7 1331.9 2894.2 1329.6 2934 1331.1 2961 1334.2 2977.6 1334.9 3015.1 1335.7 3049.6 1335.7 3069.2 1377.1 3071.4 1377.9 3093.9 1469.1 3099.2 1467.6 3156.3 1415.6 3154.8 1413.3 3225.3 1340.2 3223.8 1329.6 3163.8 1219.2 3181.9 1226.3 3122.5 1225.6 3080.4 1221.1 3036.9 1221.1 3007.6 1221.1 2973 1224.1 2943.8 1224.8 2882.2 1188.7 2881.4 1188.6 2941.5 1188.6 2957.3 1186.4 2991.8 1188.6 3022.6 1189.4 3048.1 1193.2 3084.9 1192.4 3107.4 1189.4 3130.7 1187.5 3190.8 1180.6 3192.7 1172.1 3159.7 1167.9 3122.5 1160.1 3090.6 1152.2 3065.4 1151.6 3055.2 1145.6 3045 1141.4 3016.1 1134.7 2990.3 1125.1 2960.3 1120.3 2932.6 1114.8 2902 1102.8 2872 1097.4 2777.7 934.5 2690.5 967.7 2544.6 1060 2573.5 1043.2 2614.9 1086 2631.2 1077.9 2637.4 1077.9 2698.2 1137.4 2699.7 1137.4 2665.2 1131.3 2648.3 Z M 1265.5 3041.4 1316.8 3042.9 1319.8 2998.6 1264 2996.3 1265.5 3041.4 Z" data-holc_grade="B"/>
<path d="M 2262.3 3053.3 2091.9 3051.2 2082.1 3051.1 2054.2 2975.3 2261.5 2974.5 2262.3 3053.3 Z" data-holc_grade="B"/>
<path d="M 858.5 2992.7 885 3004.1 906.7 2999.9 923 3002.3 932.1 3008.3 921.8 3023.3 917.6 3038.3 898.3 3107.4 831.5 3092.8 836.1 3076.6 838.3 3071.7 845.2 3073.9 850.3 3075.4 860.5 3078.7 868.2 3081.1 871.3 3070.3 875 3057.4 879.1 3043.3 866 3041.7 851.9 3040.1 857.4 3023 860.1 3007.2 855.1 2996.9 858.5 2992.7 Z" data-holc_grade="B"/>
<path d="M 2416.2 3379.1 2413.5 3517.8 2411.7 3636.1 2319.4 3637.4 2274.8 3506.4 2261.5 3460.1 2247.6 3441.5 2213.8 3362.2 2183.2 3286.8 2413.1 3286.8 2416.2 3379.1 Z" data-holc_grade="B"/>
<path d="M 751.6 3396.1 729 3478.3 531 3435.4 548 3338.6 591 3345.3 620.4 3354.4 643 3358.9 663.4 3362.3 751.6 3396.1 Z" data-holc_grade="B"/>
<path d="M 1866.1 1656.1 1898 1666.4 1908.3 1649 1946.9 1664 2022.6 1626.7 2048.1 1664 2062 1654.6 2108.3 1721.8 2083.7 1730 2065.7 1781.7 1996.9 1772.7 1953.5 1881.3 1855.9 1848.3 1842.6 1890.4 1760.6 1861.6 1763.6 1839.9 1694.9 1822.5 1703.3 1791.3 1801 1820.7 1834.1 1731.3 1905.9 1753.5 1916.7 1724.6 1760 1672.4 1773.8 1626.2 1866.1 1656.1 Z" data-holc_grade="B"/>
<path d="M 2473.9 1871 2469.6 1890.2 2464.8 1893.2 2396.7 1942.5 2423.8 1953.9 2429.3 1951.5 2446.1 1954.5 2437.7 1975.5 2427.5 1970.7 2414.2 2015.7 2457.6 2034.3 2501.6 2049.3 2538.4 2060.7 2531.2 2102.2 2530.1 2107.5 2493.8 2093.8 2469.1 2160.2 2427.5 2144.2 2450.4 2079.4 2374.4 2049.4 2345.5 2114.7 2315.3 2101.6 2319.6 2086.6 2331 2059 2339.4 2039.2 2349.1 2019.4 2330.4 2013.4 2302.7 2000.2 2256.8 1980.4 2217.6 1965.4 2205.7 1961.8 2191.1 1957.6 2168.4 1948.1 2162.2 1945.6 2183.9 1893.9 2237.5 1913.7 2263.4 1832.6 2325.5 1853.6 2345.4 1793 2339.4 1816.4 2366.5 1828.4 2384.6 1841 2399.7 1846.4 2473.9 1871 Z" data-holc_grade="B"/>
<path d="M 2205.7 1961.8 2176.7 2051.2 2196.6 2059 2186.3 2098.1 2174.3 2131.1 2163.4 2168.3 2144.7 2227.2 2086 2208.7 2064.5 2202 2035.4 2192.3 2008.4 2183.4 1995.3 2178.9 1959.6 2166.6 1931.4 2157.2 1925.2 2155.2 1902.3 2150.4 1868.6 2139 1845 2130 1776.9 2107.1 1785.3 2090.3 1796.8 2068.1 1805.2 2041.7 1808.5 2035.5 1860.1 2055.5 1877.7 2011.7 1880.6 2012.9 2006 2049.5 2019.3 2004.4 2044 2012.8 2046.3 2007.2 2097.7 2025.4 2133 1936.9 2157.9 1944.3 2162.2 1945.6 2168.4 1948.1 2191.1 1957.6 2205.7 1961.8 Z" data-holc_grade="B"/>
<path d="M 2197.8 2439.8 2174.3 2433.2 2213.5 2308.8 2184.5 2295.6 2070.6 2246.4 2035 2234.4 1999.4 2356.3 1862.5 2312.5 1904.1 2193.7 1890.9 2187.6 1902.3 2150.4 1925.2 2155.2 1931.4 2157.2 1959.6 2166.6 1995.3 2178.9 2008.4 2183.4 2035.4 2192.3 2064.5 2202 2086 2208.7 2144.7 2227.2 2180.3 2238.4 2241.9 2257.9 2257.2 2213.9 2297.9 2097.5 2315.3 2101.6 2345.5 2114.7 2340.1 2126.9 2317.1 2188.5 2314.8 2194.7 2300.3 2236.2 2287.1 2272.8 2282.6 2288.3 2269 2335.3 2234.6 2316.7 2197.8 2439.8 Z" data-holc_grade="B"/>
<path d="M 1368.6 2254 1352.8 2298.3 1290.2 2275 1265.8 2348.5 1254.1 2383.8 1195.3 2365.8 1158.3 2352.3 1115.4 2339.5 1060.3 2320.8 1090.5 2244.2 1111.6 2166.9 1368.6 2254 Z" data-holc_grade="B"/>
<path d="M 1939.1 2699.1 1912.4 2698.2 1919.2 2756.8 1828 2768.8 1813.6 2762.1 1815.9 2740.3 1828.7 2681.7 1693.8 2637.4 1665.2 2627.5 1672.4 2607.6 1676.9 2591.8 1682.2 2575.3 1686 2554.3 1690.5 2525.7 1695.8 2496.5 1656.6 2485.9 1606.8 2472.4 1610.7 2457.3 1615.9 2437.2 1621.2 2412.4 1593.4 2403.7 1563 2394.2 1498.3 2374.1 1531.4 2285.5 1646.8 2324.5 1641.5 2350.1 1669.4 2358.3 1662.6 2391.4 1738.7 2410.1 1784.7 2475.4 1832.2 2543 1874.5 2603 1939.1 2699.1 Z" data-holc_grade="B"/>
<path d="M 1833.9 2415.5 1901.8 2439.8 1991 2469.2 2064 2496.9 2142.4 2526.3 2366.7 2603.7 2361.3 2622.3 2372.8 2628.3 2359.4 2662.9 1815.5 2471.7 1789 2431.4 1798 2402.6 1833.9 2415.5 Z" data-holc_grade="B"/>
<path d="M 506.4 2513.9 477.8 2508.6 454.4 2506.3 437 2547.6 420.4 2586.6 403.1 2627.2 388 2661 374.4 2694 361.6 2730.8 321.6 2723.2 319.4 2697 318.4 2676.2 316.7 2657 314.1 2636.2 311.1 2603.9 311.9 2570.1 366.2 2572.4 373 2556.6 381.3 2535.6 392.6 2515.3 404.7 2492.1 412.2 2472.5 422 2456.8 443.9 2471.8 471 2489.1 494.4 2491.3 512.4 2493.6 506.4 2513.9 Z" data-holc_grade="B"/>
</g>
<g id="C">
<path d="M 1313.6 492.7 1312.5 44.9 1314.7 4.4 1353.1 3.2 1393.8 3.2 1448 2.1 1495.5 1 1544.1 1 1542.9 19 1535 69.6 1527.1 137.1 1521.5 183.3 1513.6 240.7 1498.9 308.2 1493.2 350.9 1484.2 428.6 1483 489.3 1313.6 492.7 Z" data-holc_grade="C"/>
<path d="M 2638.6 2146 2626.5 2213.2 2518 2179 2530.1 2107.5 2531.2 2102.2 2538.4 2060.7 2501.6 2049.3 2457.6 2034.3 2414.2 2015.7 2427.5 1970.7 2437.7 1975.5 2446.1 1954.5 2544.4 1976.7 2615.6 1964.6 2535.3 1861.4 2608.3 1855.4 2637.3 1971.8 2659 2058.9 2638.6 2146 Z" data-holc_grade="C"/>
<path d="M 660.7 1887.6 675.8 1841.9 762.6 1870.2 791.5 1787.3 923 1829.4 954.3 1740.5 1039.3 1765.8 1053.2 1723.1 1099.6 1736.4 1083.9 1782 1120.7 1794.6 1095.4 1875.1 1085.1 1908.1 1072.5 1943.5 1064 1971.7 1055 1999.9 1047.7 2019.8 979 1997.5 919.3 1978.9 929 1938.7 895.8 1926.7 885.8 1964.4 869.3 1957.3 802.3 1936.2 757.7 1920 687.8 1896.6 660.7 1887.6 Z M 979.6 1826.4 975.4 1840.8 1006.2 1851 1011 1836.6 979.6 1826.4 Z" data-holc_grade="C"/>
<path d="M 1217.8 1803.6 1399.3 1866.7 1418.5 1825.2 1614.5 1889.5 1606.1 1911.1 1633.8 1918.9 1562.7 2120.1 1537.3 2114.1 1524.7 2156.1 1455.9 2132.1 1518 1952.5 1481.3 1944.1 1425.8 2100.9 1403.5 2093.6 1391.4 2131.5 1410.7 2139.9 1402.9 2165.1 1170.1 2087 1220.8 1930.3 1179.2 1913.5 1217.8 1803.6 Z M 1478.8 1920.1 1489.7 1920.7 1493.9 1920.7 1506 1923.7 1517.4 1887.7 1495.1 1879.3 1472.8 1872.1 1439.7 1862.5 1429.4 1897.3 1433 1901.5 1442.7 1903.9 1450.5 1908.1 1455.3 1913.5 1466.2 1917.1 1478.8 1920.1 Z M 1298.6 1999.4 1330.5 2012.6 1340.8 1979 1307.6 1969.3 1298.6 1999.4 Z" data-holc_grade="C"/>
<path d="M 1953.5 1881.3 2082.1 1921.5 2046.3 2007.2 2044 2012.8 2019.3 2004.4 2006 2049.5 1880.6 2012.9 1877.7 2011.7 1831.1 1993.1 1808.5 2035.5 1805.2 2041.7 1796.8 2068.1 1785.3 2090.3 1776.9 2107.1 1845 2130 1868.6 2139 1902.3 2150.4 1890.9 2187.6 1844 2172.1 1811.3 2161.2 1800.4 2157.6 1776 2148.7 1722.6 2130 1697.9 2094.5 1707.6 2069.3 1658.1 2032.7 1676.2 1983.5 1693.7 1937.2 1707.5 1897.6 1741.9 1906 1760.6 1861.6 1842.6 1890.4 1855.9 1848.3 1953.5 1881.3 Z" data-holc_grade="C"/>
<path d="M 2469.1 2160.2 2518 2179 2626.5 2213.2 2638.6 2146 2687.4 2148.4 2672.4 2216.8 2707.3 2227.6 2721.2 2252.2 2671.8 2356.7 2645.9 2416.2 2619.4 2467.3 2581.4 2555 2388.4 2496.8 2381.2 2537.6 2185.8 2467.4 2197.8 2439.8 2234.6 2316.7 2269 2335.3 2282.6 2288.3 2287.1 2272.8 2300.3 2236.2 2314.8 2194.7 2317.1 2188.5 2340.1 2126.9 2345.5 2114.7 2374.4 2049.4 2450.4 2079.4 2427.5 2144.2 2469.1 2160.2 Z M 2506 2305.2 2433.6 2274 2416.1 2329.2 2481.2 2351.4 2506 2305.2 Z" data-holc_grade="C"/>
<path d="M 1697.9 2094.5 1722.6 2130 1776 2148.7 1800.4 2157.6 1811.3 2161.2 1844 2172.1 1890.9 2187.6 1904.1 2193.7 1862.5 2312.5 1853.2 2346 1763.6 2318.6 1775.7 2287.4 1662.3 2246 1679.2 2192.5 1615.3 2170.3 1623.1 2153.5 1594.8 2140.9 1623.7 2058 1638.8 2069.4 1677.4 2110.2 1685.2 2089.2 1697.9 2094.5 Z" data-holc_grade="C"/>
<path d="M 2070.6 2246.4 2021.1 2390.6 2144.2 2437.4 2184.5 2295.6 2213.5 2308.8 2174.3 2433.2 2197.8 2439.8 2185.8 2467.4 2381.2 2537.6 2384.8 2573.7 2444.5 2594.7 2448.8 2694.4 2359.4 2662.9 2372.8 2628.3 2361.3 2622.3 2366.7 2603.7 2142.4 2526.3 2064 2496.9 1991 2469.2 1901.8 2439.8 1833.9 2415.5 1853.2 2346 1862.5 2312.5 1999.4 2356.3 2035 2234.4 2070.6 2246.4 Z" data-holc_grade="C"/>
<path d="M 805.9 2256.3 790.2 2300.7 761.3 2288.1 718.4 2272.5 689.5 2262.3 666 2253.9 636.4 2244.3 627.4 2271.9 588.8 2258.6 553.8 2244.8 540.6 2238.8 553.2 2200.4 558.1 2188.4 568.9 2156.6 590.6 2164.4 622.6 2174.6 658.2 2186 705.2 2202.2 701 2221.4 805.9 2256.3 Z M 946.4 2315.2 930.1 2351.2 893.9 2340.4 855.3 2327.2 828.8 2317 842.1 2277.3 868 2203.5 914.5 2072.6 1019.4 2110.4 962.7 2269.6 946.4 2315.2 Z M 842.1 2142.8 778.8 2123.6 785.4 2106.2 743.2 2092.4 735.4 2114.6 684.7 2098.9 692.6 2071.9 716.7 2003.5 807.1 2036.5 853 2049.7 871.1 2057 859 2097.2 842.1 2142.8 Z" data-holc_grade="C"/>
<path d="M 1368.6 2254 1111.6 2166.9 1090.5 2244.2 1060.3 2320.8 1115.4 2339.5 1158.3 2352.3 1195.3 2365.8 1254.1 2383.8 1268.4 2386.1 1291 2394.4 1302.3 2359.8 1265.8 2348.5 1290.2 2275 1352.8 2298.3 1342.3 2327.5 1327.2 2370.3 1310.6 2416.9 1289.5 2475.4 1245.8 2458.9 1209.6 2447.6 1153 2426.6 1111.6 2414.6 1058.8 2396.6 1011.3 2382.3 968.4 2372.5 975.2 2350 1001.5 2354.5 1009.1 2334.3 1018.1 2308 1031 2275.7 1042.3 2241.9 1053.6 2206.7 1068.7 2163.1 1077.7 2130.1 1104.8 2137.6 1141 2151.1 1188.5 2165.4 1235.2 2181.2 1274.4 2194.7 1321.2 2209.7 1376.9 2227.7 1368.6 2254 Z M 1410.1 2490.5 1403.3 2514.5 1371.6 2504.7 1340 2492.7 1325.7 2488.9 1343.8 2449.9 1355.8 2415.4 1378.4 2356.8 1414.6 2247.2 1483.2 2268.2 1466.6 2322.3 1454.6 2354.6 1445.5 2383.9 1432.7 2423.6 1418.4 2461.9 1410.1 2490.5 Z M 1569.4 2577.4 1527.2 2561.6 1499 2554.3 1472.7 2544.5 1449.3 2535.5 1440.2 2533.2 1452.3 2508.5 1467.4 2464.2 1498.3 2374.1 1563 2394.2 1593.4 2403.7 1621.2 2412.4 1615.9 2437.2 1610.7 2457.3 1606.8 2472.4 1599.9 2491.9 1594.5 2507.1 1591.1 2516.5 1584.2 2535.9 1569.4 2577.4 Z" data-holc_grade="C"/>
<path d="M 2359.4 2662.9 2448.8 2694.4 2444.5 2594.7 2643.6 2664.9 2645.4 2779 2645.5 2929.7 2450.1 2929.8 2451.2 2789.3 2260.7 2791.7 2260.6 2714.2 2225.7 2713.6 2222 2648.2 1846.3 2511.9 1815.5 2471.7 2359.4 2662.9 Z" data-holc_grade="C"/>
<path d="M 1631.1 282.3 1686.4 281.2 1780.2 282.3 1880.8 282.3 1915.8 281.1 1914.7 321.6 1879.6 340.8 1843.5 366.7 1815.2 383.5 1787 402.7 1767.8 417.3 1716.9 416.2 1678.5 417.3 1645.8 417.3 1613 418.4 1624.3 379.1 1631.1 343.1 1631.1 282.3 Z" data-holc_grade="C"/>
<path d="M 311.9 2570.1 311.1 2603.9 314.1 2636.2 316.7 2657 318.4 2676.2 319.4 2697 321.6 2723.2 333.6 2890.7 293.7 2877.2 286.2 2852.4 278.6 2829.1 271.8 2809.6 262.8 2785.5 254.5 2763 245.5 2737.5 234.9 2709.7 220.6 2668.4 202.6 2621.1 189.8 2582.8 179.2 2558.8 206.4 2559.5 249.3 2563.3 311.9 2570.1 Z" data-holc_grade="C"/>
<path d="M 1069.1 2543.4 1060 2573.5 967.7 2544.6 934.5 2690.5 1097.4 2777.7 1102.8 2872 1114.8 2902 1120.3 2932.6 1125.1 2960.3 1134.7 2990.3 1141.4 3016.1 1145.6 3045 1151.6 3055.2 1152.2 3065.4 1160.1 3090.6 1167.9 3122.5 1172.1 3159.7 1180.6 3192.7 1187.5 3190.8 1219.2 3181.9 1217.9 3296.1 1164.3 3304.5 1170.3 3208.4 1151.6 3195.7 1146.2 3146.5 1135.3 3103.8 1125.1 3061.8 1112.4 3004.1 1101.6 2960.3 1096.7 2912.8 1082.9 2873.8 1082.3 2822.7 928.5 2744 910.1 2815.7 906.2 2831.1 901.7 2830 883 2825.7 857 2819.7 825.3 2812.3 797.6 2805.8 855.6 2623.3 882.7 2630.5 893.5 2629.3 888.7 2593.8 889.3 2560.2 887.5 2537.4 891.2 2500.8 893.6 2481.5 899 2455.7 905 2430.5 909.3 2410.7 917.1 2391.5 1007.6 2419.7 973.2 2512.8 1069.1 2543.4 Z" data-holc_grade="C"/>
<path d="M 1693.8 2637.4 1649.3 2765.8 1604.1 2747.8 1624.4 2683.2 1502.3 2639.7 1527.2 2561.6 1569.4 2577.4 1564.1 2592.4 1588.1 2600.7 1600.6 2605.1 1613.3 2609.5 1641.5 2619.3 1665.2 2627.5 1693.8 2637.4 Z M 1677.9 2919 1673.6 3078.1 1671.7 3148 1669.7 3221.7 1413.3 3225.3 1415.6 3154.8 1467.6 3156.3 1469.1 3099.2 1377.9 3093.9 1377.1 3071.4 1335.7 3069.2 1335.7 3049.6 1334.9 3015.1 1334.2 2977.6 1331.1 2961 1329.6 2934 1331.9 2894.2 1332.7 2841.7 1329.6 2788.3 1303.3 2780.1 1304 2714.8 1322.1 2720 1325.1 2623.9 1299.5 2623.2 1273.1 2622.4 1180.4 2623.2 1163.8 2660.7 1131.3 2648.3 1086 2631.2 1043.2 2614.9 1060 2573.5 1069.1 2543.4 1101.3 2450.5 1423.9 2570.6 1417.8 2595.4 1462.3 2611.2 1435.9 2687.7 1475.1 2702.8 1463.8 2744.1 1470.6 2759.8 1469.9 2927.3 1579.2 2932.5 1592.7 2890.5 1677.9 2919 Z" data-holc_grade="C"/>
<path d="M 2137.2 3226.8 2101.7 3226 1917.7 3233.6 1853.6 3232.1 1843.6 3231.6 1778.2 3228.3 1695.3 3227.6 1678 3221.6 1669.7 3221.7 1671.7 3148 1785 3151 1784.3 3081.2 1673.6 3078.1 1677.9 2919 1680.2 2902.5 1606.3 2789.9 1635.7 2804.9 1649.3 2765.8 1693.8 2637.4 1828.7 2681.7 1815.9 2740.3 1813.6 2762.1 1828 2768.8 1919.2 2756.8 1912.4 2698.2 1939.1 2699.1 1958.4 2699.7 1950.8 2675.7 1935 2640.4 1968.2 2632.9 2045.1 2632.1 2048.1 2780.8 1990.8 2783.1 2012.7 2846.9 2067 2846.9 2067 2890.4 2079 2891.9 2076.8 2909.2 1998.4 2909.9 2137.2 3226.8 Z" data-holc_grade="C"/>
<path d="M 898.3 3107.4 917.6 3038.3 921.8 3023.3 932.1 3008.3 923 3002.3 906.7 2999.9 885 3004.1 858.5 2992.7 857.9 2982.2 857.9 2981.8 866.3 2952.8 873.9 2926.5 880.3 2904.1 880.4 2903.7 883.2 2894.3 889.1 2873.5 894.1 2856.4 898 2842.8 901.7 2830 906.2 2831.1 910.1 2815.7 952 2825.7 993 2971.1 956.8 3049.7 941.1 3117.6 898.3 3107.4 Z" data-holc_grade="C"/>
<path d="M 2183.2 3286.8 2159.3 3225.2 2091.9 3051.2 2262.3 3053.3 2263 3062.3 2287.2 3063.1 2291.7 3223.7 2505.9 3227.4 2499.9 3376.9 2416.2 3379.1 2413.1 3286.8 2183.2 3286.8 Z" data-holc_grade="C"/>
<path d="M 993.6 3460.3 751.6 3396.1 780 3278.6 959.8 3236 1044.2 3219.2 1151.6 3195.7 1170.3 3208.4 1164.3 3304.5 1125 3310.5 1125.6 3356.7 1080.4 3356.7 1079.8 3379 995.3 3381.3 993.6 3460.3 Z" data-holc_grade="C"/>
<path d="M 2101.7 3226 2100.2 3392 1960 3391.3 1961.5 3434.8 1965.3 3515.2 1925.3 3514.4 1886.9 3517.4 1826.5 3516.7 1781.3 3522.7 1696.8 3519.7 1675 3522 1682.5 3567.8 1680.2 3601.6 1408 3606.1 1400.5 3569.3 1392.9 3545.3 1390.7 3522 1384.6 3491.9 1376.4 3438.6 1371.1 3419.1 1352.2 3293.7 1281.4 3293.7 1272.3 3241.1 1340.2 3223.8 1413.3 3225.3 1669.7 3221.7 1678 3221.6 1695.3 3227.6 1778.2 3228.3 1843.6 3231.6 1853.6 3232.1 1917.7 3233.6 2101.7 3226 Z" data-holc_grade="C"/>
<path d="M 2183.2 3286.8 2213.8 3362.2 2247.6 3441.5 2261.5 3460.1 2274.8 3506.4 2164.4 3507.6 2112.5 3513.6 2087.7 3520.3 1965.3 3515.2 1961.5 3434.8 1960 3391.3 2100.2 3392 2101.7 3226 2137.2 3226.8 2159.3 3225.2 2183.2 3286.8 Z" data-holc_grade="C"/>
<path d="M 2413.5 3517.8 2416.2 3379.1 2499.9 3376.9 2505.9 3227.4 2291.7 3223.7 2287.2 3063.1 2263 3062.3 2262.3 3053.3 2261.5 2974.5 2449.5 2971.2 2450.1 2929.8 2645.5 2929.7 2645.4 2779 2845.1 2775.3 2847.6 3096 2845.9 3217.4 2821.7 3219.8 2819.5 3511.8 2413.5 3517.8 Z" data-holc_grade="C"/>
<path d="M 2301 209 2266 246.2 2182.4 329.5 2080.8 332.9 2072.8 355.4 2081.9 368.9 1984.7 430.8 1909 472.4 1756.5 563.6 1613 650.3 1605.1 634.5 1563.3 632.3 1585.9 556.9 1705.6 472.5 1958.7 301.4 2026.5 253 2074 224.9 2128.2 179.8 2181.3 184.3 2268.3 182 2301 209 Z" data-holc_grade="C"/>
<path d="M 531 3435.4 729 3478.3 751.6 3396.1 993.6 3460.3 993.6 3505.4 968.7 3604.5 959.7 3657.5 670.1 3656.3 698.4 3576.3 494.8 3572.9 531 3435.4 Z" data-holc_grade="C"/>
<path d="M 2202.8 528.6 2189.3 528.6 2139.5 528.7 2069.5 529.8 2016.4 529.8 2007.7 529.4 1967.8 527.6 1921.5 525.3 1885.3 524.2 1928.2 498.3 1961 487.1 1998.3 461.2 2048 434.2 2084.2 415 2121.4 394.8 2157.6 373.4 2182.4 359.9 2210.7 341.8 2237.8 325 2266.1 325 2266 246.2 2301 209 2346.3 251.8 2341.8 330.6 2341.8 374.4 2338.4 448.7 2332.8 492.6 2328.3 525.2 2262.7 528.6 2202.8 528.6 Z" data-holc_grade="C"/>
<path d="M 1967.8 527.6 1957.6 555.7 1894.4 550.1 1901.1 559.1 1892.1 569.2 1827.7 608.6 1827.7 669.4 1814.1 667.1 1794.9 661.5 1781.4 653.6 1659.3 729 1631.1 676.1 1885.3 524.2 1921.5 525.3 1967.8 527.6 Z" data-holc_grade="C"/>
<path d="M 2170.1 614.2 2156.5 607.4 2140.7 587.2 2122.6 588.3 2117 599.6 2091 597.3 2067.2 598.4 2035.6 601.8 2008.5 601.8 2008.5 576 2007.7 529.4 2016.4 529.8 2069.5 529.8 2139.5 528.7 2189.3 528.6 2202.8 528.6 2200.6 551.2 2188.1 562.4 2179.1 582.7 2170.1 614.2 Z" data-holc_grade="C"/>
<path d="M 1908.6 1542.8 1928.4 1546.5 1959.5 1616.9 2000.5 1594.3 2022.6 1626.7 1946.9 1664 1908.3 1649 1919.2 1622.2 1884.3 1610.2 1866.1 1656.1 1773.8 1626.2 1760 1672.4 1916.7 1724.6 1905.9 1753.5 1834.1 1731.3 1801 1820.7 1703.3 1791.3 1694.9 1822.5 1679.8 1859.9 1548.8 1821.5 1551.6 1799.9 1514 1785.8 1508.3 1800.8 1434.8 1778.3 1361.4 1752 1297.3 1731.4 1249.3 1717.3 1267.2 1663.8 1278.5 1630.1 1289.8 1596.3 1301.1 1559.7 1314.3 1522.2 1329.3 1483.7 1342.5 1424.6 1379.2 1437.4 1431.1 1455.6 1498.9 1478.1 1577.1 1504.4 1604.2 1513.4 1635.7 1523.8 1659 1531.6 1729.7 1554.1 1774.9 1567.2 1787.1 1528.7 1852.1 1551.2 1902 1563.4 1908.6 1542.8 Z M 1450.2 1705.1 1478.5 1714.1 1488.8 1682.3 1455.6 1672.1 1446 1701.5 1450.2 1705.1 Z" data-holc_grade="C"/>
<path d="M 2095.9 1925.6 2082.1 1921.5 1953.5 1881.3 1996.9 1772.7 2065.7 1781.7 2083.7 1730 2108.3 1721.8 2141 1710.9 2148.2 1720.4 2191 1710.2 2158.5 1797.8 2139.8 1816.5 2095.9 1925.6 Z" data-holc_grade="C"/>
<path d="M 2608.3 1855.4 2535.3 1861.4 2479.9 1844 2473.9 1871 2399.7 1846.4 2384.6 1841 2366.5 1828.4 2339.4 1816.4 2345.4 1793 2281.5 1773.8 2263.4 1832.6 2237.5 1913.7 2183.9 1893.9 2162.2 1945.6 2157.9 1944.3 2133 1936.9 2095.9 1925.6 2139.8 1816.5 2158.5 1797.8 2191 1710.2 2148.2 1720.4 2141 1710.9 2085.5 1638.8 2062 1654.6 2048.1 1664 2022.6 1626.7 2000.5 1594.3 2157.8 1495.2 2555.2 1695.7 2584.1 1750.9 2608.3 1855.4 Z" data-holc_grade="C"/>
</g>
<g id="D">
<path d="M 285.5 1474.5 93.3 1468.8 23.6 1464 1 1460.3 2.9 1454.6 4.8 1431.2 8.6 1404 8.6 1375.8 12.4 1333.6 15.2 1300.8 17.1 1258.6 20 1232.3 20 1195.7 22.8 1161 24.7 1134.8 54.9 1134.8 101 1134.8 155.6 1136.7 221.6 1137.7 261.1 1139.6 279 1167.7 290.3 1184.6 311.9 1221.2 320.4 1249.4 317.6 1275.6 321.3 1311.3 319.4 1341.3 316.6 1375 307.1 1417.3 285.5 1474.5 Z" data-holc_grade="D"/>
<path d="M 1253.7 1419.3 1230.8 1482.9 1210.9 1537.6 1167.5 1661.2 1083.7 1633.6 1103 1585.6 1062.6 1570.6 1004.7 1551.9 929.3 1526.1 846.2 1497.9 780.5 1473.8 716.6 1451 728.6 1415 740.1 1382.6 749.7 1353.2 761.2 1317.7 773.9 1284.1 780.5 1257.1 823.9 1273.3 878.2 1291.4 985.4 1329.2 1030 1344.2 1069.8 1356.2 1136.7 1379.7 1206.1 1403.1 1253.7 1419.3 Z M 1148.2 1465.5 1136.7 1498.5 1170.5 1508.1 1181.3 1476.9 1148.2 1465.5 Z M 989.6 1510.5 950.4 1496.7 945.6 1509.9 984.2 1523.7 989.6 1510.5 Z" data-holc_grade="D"/>
<path d="M 1908.6 1542.8 1902 1563.4 1852.1 1551.2 1787.1 1528.7 1774.9 1567.2 1729.7 1554.1 1659 1531.6 1635.7 1523.8 1649.7 1486.5 1616.6 1475.1 1604.2 1513.4 1577.1 1504.4 1498.9 1478.1 1431.1 1455.6 1379.2 1437.4 1391.7 1399.5 1359.8 1388.7 1391.1 1295 1436.9 1308.8 1422.5 1350.9 1463.5 1364.1 1518.3 1383.3 1561.7 1397.7 1608.8 1413.3 1657.6 1430.1 1721.5 1451.1 1793.2 1473.3 1859.5 1493.7 1915.6 1512.9 1908.6 1542.8 Z" data-holc_grade="D"/>
<path d="M 423.7 1905.5 347.7 2127.7 260.8 2097.6 221 2090.4 298.9 1865.2 423.7 1905.5 Z M 675.8 1841.9 660.7 1887.6 653.4 1912.2 613.6 1898.4 591.9 1891.8 562.4 1882.1 527.4 1871.9 494.3 1859.3 439.4 1841.3 396.6 1826.2 355.6 1811.2 320.7 1799.2 331.5 1772.2 345.4 1730.1 357.5 1695.3 372.6 1651.5 405.2 1554.9 695.1 1649.8 661.9 1741.1 704.7 1756.1 675.8 1841.9 Z M 417.1 1798.6 443.6 1810 449.7 1793.8 456.3 1775.8 426.2 1767.4 417.1 1798.6 Z M 623.9 1871.3 655.2 1879.2 666.1 1847.3 636.6 1836.5 623.9 1871.3 Z" data-holc_grade="D"/>
<path d="M 2581.4 2555 2619.4 2467.3 2645.9 2416.2 2671.8 2356.7 2721.2 2252.2 2758.2 2304.5 2764.8 2320.7 2776.9 2337.5 2798.6 2372.3 2827.6 2416.1 2847.5 2449.2 2869.2 2479.2 2889.8 2512.2 2923 2566.8 2944.1 2599.9 2977.3 2653.3 2999 2685.7 2990.6 2709.7 2956.8 2697.1 2920.6 2680.9 2884.4 2664.7 2856.7 2653.3 2835.5 2650.4 2795.1 2637.2 2760.8 2624.6 2720.9 2610.8 2692.6 2599.4 2649.8 2583.2 2615.4 2569.4 2581.4 2555 Z" data-holc_grade="D"/>
<path d="M 705.2 2202.2 658.2 2186 622.6 2174.6 590.6 2164.4 568.9 2156.6 558.1 2188.4 553.2 2200.4 466.4 2166.7 484.5 2120.5 497.8 2075.5 516.5 2023.8 526.2 1993.2 482.8 1978.8 450.8 1967.4 442.4 1990.2 433.3 2017.8 424.3 2048.4 414 2073.6 409.2 2093.4 400.1 2116.9 393.5 2138.5 392.3 2142.1 347.7 2127.7 423.7 1905.5 520.8 1938 550.3 1947.6 611.2 1968 629.3 1974 668.5 1986.6 716.7 2003.5 692.6 2071.9 684.7 2098.9 735.4 2114.6 730.1 2129.8 723.4 2149.4 718.4 2164 709.7 2189.3 705.2 2202.2 Z M 676.9 2097.7 643.1 2083.9 633.5 2120.5 665.4 2129.6 676.9 2097.7 Z M 705.2 2202.2 713.5 2204.6 728.1 2208.7 748 2214.3 753.4 2202.2 757.8 2190.2 759.9 2184.5 764.7 2171.5 767.9 2162.6 770.5 2153.3 774.9 2137.5 778.8 2123.6 842.1 2142.8 831.8 2172.8 819.2 2213.1 805.9 2256.3 701 2221.4 705.2 2202.2 Z" data-holc_grade="D"/>
<path d="M 179.2 2558.8 189.8 2582.8 202.6 2621.1 220.6 2668.4 234.9 2709.7 245.5 2737.5 254.5 2763 262.8 2785.5 271.8 2809.6 278.6 2829.1 286.2 2852.4 293.7 2877.2 333.6 2890.7 306.5 2936.5 292.2 2931.2 256.7 2922.2 233.4 2915.4 231.9 2901.2 228.1 2880.9 224.3 2869.6 216 2856.1 206.2 2835.8 201.7 2816.3 195 2794.5 185.9 2774.2 176.9 2752.5 172.4 2732.2 161.8 2710.4 150.5 2688.6 146 2670.6 139.2 2651.1 133.2 2628.6 130.2 2614.3 127.2 2601.5 124.2 2583.5 118.9 2564.7 118.2 2552 179.2 2558.8 Z" data-holc_grade="D"/>
</g>
</svg>