<?xml version="1.0"?>
<svg xmlns="http://www.w3.org/2000/svg" version="1.2" baseProfile="tiny" width="3000" height="3820" viewBox="0 0 3000 3820" stroke-linecap="round" stroke-linejoin="round">
<g id="A">
<path d="M 1225.7 1476.8 1228.3 1747.3 1115.3 1745.6 1111.4 1474.3 1225.7 1476.8 Z" data-holc_grade="A"/>
<path d="M 790.5 2178.9 765.3 2199.3 724.3 2162 687.5 2199.2 607.4 2126.4 661.7 2068.2 790.5 2178.9 Z" data-holc_grade="A"/>
<path d="M 308.9 2576.7 308.2 2804.9 153.1 2807.1 90.2 2808 131.1 2731.1 134.4 2713 131.2 2543 227.9 2544.4 309 2545.1 308.9 2576.7 Z" data-holc_grade="A"/>
<path d="M 329.3 2406.8 328.9 2545.3 309 2545.1 227.9 2544.4 228.6 2402.8 329.3 2406.8 Z" data-holc_grade="A"/>
<path d="M 631.4 2449.5 629.3 2491.4 558.7 2489.3 555.1 2498.1 525 2498 525 2419.5 529.2 2394.1 631.4 2449.5 Z" data-holc_grade="A"/>
</g>
<g id="B">
<path d="M 826.9 1474.3 830.9 1770.6 694.7 1767.4 697.9 2004 826.3 2137.5 790.5 2178.9 661.7 2068.2 607.4 2126.4 485.8 2018.9 465.6 1994.7 439.6 1950.2 429.1 1913.1 295.4 1910.6 296.8 2303.9 1 2143 4.5 1737.6 35.3 1736.8 33.1 1467.8 363.7 1473.7 826.9 1474.3 Z" data-holc_grade="B"/>
<path d="M 631.4 2449.5 529.2 2394.1 525 2419.5 443.6 2380.6 445.7 2324.3 633 2419 631.4 2449.5 Z" data-holc_grade="B"/>
<path d="M 328.9 2545.3 614.4 2548 613.8 2631.8 424.4 2625.9 422.4 2576.8 308.9 2576.7 309 2545.1 328.9 2545.3 Z" data-holc_grade="B"/>
<path d="M 1382.3 2584.7 1408.3 2552.6 1431.1 2504 1447.7 2474.5 1482.5 2450.8 1502.7 2427 1535.4 2378.9 1600.3 2416.6 1483 2568.1 1438.4 2626.6 1382.3 2584.7 Z" data-holc_grade="B"/>
</g>
<g id="C">
<path d="M 1557 1816.6 1282.7 1814.7 1228.9 1810.8 1228.3 1747.3 1225.7 1476.8 1462.3 1474.2 1460.4 1365.7 1415.7 1319.2 1387.1 1273.3 1393.6 1249.4 1380 1206.1 1633.7 1204.6 1707.4 1204.9 1705.4 1304.9 1702.2 1339.2 1682.1 1366.3 1646.4 1401.2 1635.4 1406.4 1603.7 1396 1542.1 1398 1538.8 1490.3 1539.5 1531.7 1570 1790.1 1557 1816.6 Z" data-holc_grade="C"/>
<path d="M 2646.6 3268.9 2609.1 3191.4 2390.8 2747.1 2619.9 2745.5 2623.9 2691.4 2739.1 2695.3 2781.3 2843.2 2923.5 3263.3 2646.6 3268.9 Z" data-holc_grade="C"/>
<path d="M 2040.5 2642.9 1909.1 2646.2 1760 2644.3 1769.8 2604.4 1709.6 2589.5 1739.7 2483.3 1788.4 2319.9 1819 2212.3 1840.3 2157.5 1865.2 2097.6 1885.9 2016.9 1917.1 2023.8 1944.6 2075 2026.5 2041.9 2135.6 2268.8 2235.2 2469.4 2276.8 2558.3 2041.7 2557.9 2040.5 2642.9 Z" data-holc_grade="C"/>
<path d="M 2701.1 2534.5 2712.2 2559.2 2315.2 2557.4 2063.1 2042 2533.2 2039.5 2690.8 2511.7 2701.1 2534.5 Z" data-holc_grade="C"/>
<path d="M 1874.5 1648 1928.5 1658.3 2030.7 1659.8 2029.1 1754.9 1979.4 1943.1 1932.1 1893.5 1951.3 1803 1841.9 1776.2 1874.5 1648 Z" data-holc_grade="C"/>
<path d="M 1979.4 1943.1 2029.1 1754.9 2030.7 1659.8 2140.8 1659.2 2140.8 1732.7 2410.7 1735.8 2446.4 1781 2533.2 2039.5 2063.1 2042 2046.8 2006.5 1979.4 1943.1 Z" data-holc_grade="C"/>
<path d="M 2701.1 2534.5 2690.8 2511.7 2533.2 2039.5 2446.4 1781 2410.7 1735.8 2434.5 1736.2 2574.6 1738.2 2582.3 1485.3 2545.3 1483.4 2554.9 1083.2 2637.5 1050.2 2671.5 1026 2714.3 1029.8 2717.2 1053.1 2718.2 1080.2 2990.5 1073.3 2979.9 1251.5 2982 1489.9 2994 2021 2999 2217.8 2994.3 2536.7 2701.1 2534.5 Z" data-holc_grade="C"/>
<path d="M 2289 1.1 2533.7 1 2526.9 32 2524.9 68.7 2529.1 120.3 2538.9 162.1 2556 208.1 2565.9 226.2 2576.8 276.8 2578.9 400.8 2287.6 397.3 2289 1.1 Z" data-holc_grade="C"/>
<path d="M 1018.4 1974.2 831.7 1974.2 830.8 2142.2 826.3 2137.5 697.9 2004 694.7 1767.4 830.9 1770.6 826.9 1474.3 1111.4 1474.3 1115.3 1745.6 1016.5 1744 1018.4 1974.2 Z" data-holc_grade="C"/>
<path d="M 1115.3 1745.6 1228.3 1747.3 1228.9 1810.8 1282.7 1814.7 1557 1816.6 1489 2017.1 1282.3 2015.5 1252.3 2034 1018.9 2034.8 1018.4 1974.2 1016.5 1744 1115.3 1745.6 Z" data-holc_grade="C"/>
<path d="M 1489 2017.1 1426.5 2195.1 1402.1 2211.1 1413.5 2227.6 1442.6 2249.3 1457.1 2261.2 1390.1 2308.8 1338.8 2353.3 1246.9 2431.3 1202.8 2385.3 1133.3 2446.8 830.8 2142.2 831.7 1974.2 1018.4 1974.2 1018.9 2034.8 1252.3 2034 1282.3 2015.5 1489 2017.1 Z" data-holc_grade="C"/>
<path d="M 1066 2523 1054.7 2535.8 923 2535.1 841.3 2535.8 823.1 2550 614.4 2548 328.9 2545.3 329.3 2406.8 329.6 2323.6 296.8 2303.9 295.4 1910.6 429.1 1913.1 439.6 1950.2 465.6 1994.7 485.8 2018.9 607.4 2126.4 687.5 2199.2 724.3 2162 765.3 2199.3 790.5 2178.9 826.3 2137.5 830.8 2142.2 1133.3 2446.8 1066 2523 Z M 631.4 2449.5 633 2419 445.7 2324.3 443.6 2380.6 525 2419.5 525 2498 555.1 2498.1 558.7 2489.3 629.3 2491.4 631.4 2449.5 Z" data-holc_grade="C"/>
<path d="M 1087.3 2544 642.8 3039.1 699.9 3088.2 697.9 3229.2 618.1 3230.4 616.8 3207.1 389.1 3205.1 389.8 3110.7 389.6 3076.8 388.6 2812.1 326.3 2813.1 310.8 2813.3 308.2 2804.9 308.9 2576.7 422.4 2576.8 424.4 2625.9 613.8 2631.8 614.4 2548 823.1 2550 826.5 2567.3 1023.1 2568 1054.7 2535.8 1066 2523 1087.3 2544 Z M 635.1 2919.5 674 2953.1 794.7 2821.3 565.7 2817.3 563.7 2915.6 635.1 2919.5 Z" data-holc_grade="C"/>
<path d="M 1367.9 3272.2 1302 3128.4 1270.8 3033.7 1203.9 2823.8 1251.9 2824.1 1253.5 2732.8 1483 2734.4 1485.4 2778.8 1560.8 2782.1 1563.2 2890.3 1637.8 2890.3 1635.4 3203.1 1517.8 3110.9 1430.2 3110.1 1429.4 3166.7 1366.2 3165.9 1367.9 3272.2 Z" data-holc_grade="C"/>
<path d="M 2390.8 2747.1 2609.1 3191.4 2646.6 3268.9 2694.3 3367.5 2437.2 3372.5 1833.8 3369.4 1635.4 3203.1 1637.8 2890.3 1635.9 2827.2 1672.3 2711.7 1908.3 2714.9 1909.1 2646.2 2040.5 2642.9 2040.5 2651 2340.5 2654.2 2390.8 2747.1 Z M 2144.4 3163.3 2143.6 3096.2 1673.2 3097.1 1673.2 3166.6 2144.4 3163.3 Z" data-holc_grade="C"/>
<path d="M 2425.7 3417.9 2594.4 3413.8 2716.9 3416.1 2770.5 3496.9 2844.4 3634.3 2905.3 3748.2 2941.8 3814.5 2450.2 3818.8 2441.2 3587.6 2430.6 3456.7 2425.7 3417.9 Z" data-holc_grade="C"/>
</g>
<g id="D">
<path d="M 697.9 3229.2 699.9 3088.2 642.8 3039.1 1087.3 2544 1118 2573.1 938.3 2772.8 932.5 2869.8 790.3 3032.7 815.6 3055.3 783.2 3098.6 782.5 3230.5 697.9 3229.2 Z" data-holc_grade="D"/>
<path d="M 326.3 2813.1 328.1 3076.8 389.6 3076.8 389.8 3110.7 389.1 3205.1 154.8 3206.7 153.1 2807.1 308.2 2804.9 310.8 2813.3 326.3 2813.1 Z" data-holc_grade="D"/>
<path d="M 1203.9 2823.8 1270.8 3033.7 1302 3128.4 1367.9 3272.2 1419.9 3382.6 1496.9 3528.9 1531 3606.5 1170 3613 1166 3591.1 1151.4 3587.1 1140.8 3579.8 1140.8 3494.9 1141.6 3478 1149.8 3469.1 1144.1 3454.5 1146.5 3435.9 1153.8 3421.4 1146.5 3410.1 1153.8 3361.6 1183 3365.6 1191.2 2888.9 1173.3 2823.8 1203.9 2823.8 Z" data-holc_grade="D"/>
<path d="M 1885.9 2016.9 1865.2 2097.6 1840.3 2157.5 1819 2212.3 1788.4 2319.9 1739.7 2483.3 1605.8 2405.7 1659.2 2306.5 1728.7 2177.2 1770.2 2076.9 1794.1 1996.8 1885.9 2016.9 Z" data-holc_grade="D"/>
<path d="M 2434.5 1736.2 2437.3 1481 2220.4 1479.2 2219.5 1652.6 2374.2 1703.9 2410.7 1735.8 2140.8 1732.7 2140.8 1659.2 2030.7 1659.8 1928.5 1658.3 1874.5 1648 1884 1611 1893.7 1584.9 1912.2 1562.6 2063.9 1612.9 2058.1 1525.7 2005.5 1523.8 1977.3 1508.3 1961.8 1483.1 2157.2 1330 2286.5 1329.9 2298.2 1335.7 2428.5 1252.4 2430.4 1174.8 2443 1136.1 2554.9 1083.2 2545.3 1483.4 2582.3 1485.3 2574.6 1738.2 2434.5 1736.2 Z" data-holc_grade="D"/>
<path d="M 1707.4 1204.9 1633.7 1204.6 1634.4 988.2 1905.3 871.3 1975.9 825.4 1867.7 665.9 1814.5 584.5 2054.3 433.4 2205.3 654.8 2355 659.9 2290.3 846 2137.3 944.8 2106.9 963.6 2020.7 1026.2 1932.6 1085.7 1885.9 1115.4 1839.2 1142.5 1812 1160.6 1791.3 1177.4 1776.3 1205.2 1707.4 1204.9 Z" data-holc_grade="D"/>
</g>
</svg>