<?xml version="1.0"?>
<svg xmlns="http://www.w3.org/2000/svg" version="1.2" baseProfile="tiny" width="3000" height="2853" viewBox="0 0 3000 2853" stroke-linecap="round" stroke-linejoin="round">
<g id="A">
<path d="M 2397.6 1059.3 2397.5 1059.3 2397.5 1052.7 2397.4 884.9 2397.3 784.7 2589.4 780.1 2591.7 943.2 2485.5 945.6 2482.2 1060.4 2397.6 1059.3 Z" data-holc_grade="A"/>
<path d="M 2735.2 1761.6 2362.3 1764.4 2242.6 1764.8 2241.9 1558.5 2241.9 1536.9 2361.9 1534 2361.8 1498.7 2988.8 1505.8 2992.2 1588 2855.3 1585.5 2854.7 1760.6 2735.2 1761.6 Z" data-holc_grade="A"/>
<path d="M 2613.1 1992.3 2362.6 1992.3 2362.3 1764.4 2735.2 1761.6 2735.2 1771.6 2735.3 1821.4 2722.8 1824.2 2710.7 1821.9 2673.7 1838.5 2626 1838.1 2627 1912.8 2610.8 1912.3 2613.1 1992.3 Z" data-holc_grade="A"/>
<path d="M 2817.9 2213.8 2973.8 2209.2 2986.8 2205.5 2999 2217.7 2992.3 2476.4 2813.6 2432.3 2817.9 2213.8 Z" data-holc_grade="A"/>
</g>
<g id="B">
<path d="M 2241.7 1500.8 2241.9 1536.9 2241.9 1558.5 2242.6 1764.8 2362.3 1764.4 2362.6 1992.3 2613.1 1992.3 2613.8 1981.2 2670.4 1984.5 2673.4 2165.1 2725.5 2163.6 2726.2 2206.1 2785.5 2206.1 2786.3 2219.8 2696.5 2220.6 2696.6 2370.5 2638.8 2369.8 2637.9 2224.2 2621.3 2223.5 2615.1 2219.8 2610.4 2217 2611.9 2184.6 2362.2 2182.5 2362.3 2213.8 2362.3 2215.3 2362.3 2215.7 2346.6 2216.5 2303.2 2212.8 2304.5 2192.1 2122.2 2188.7 2125.7 2238 2210.5 2236.2 2214.1 2290.7 2245.9 2389.3 2267.1 2420.9 2266 2434.3 2263.6 2463.2 2358.7 2740.5 2194.7 2743.9 2197 2832.9 2159.7 2834 2160.8 2850.9 2129.2 2852.1 2129.1 2769.8 2055.6 2767.6 2055.6 2605.8 2000.6 2608.7 1999.8 2572.6 1814.6 2572.7 1810.1 2339.6 1874.6 2341.9 1873.4 2218 1673.3 2215.8 1676.7 1766.4 1638.2 1766.4 1641.6 1588.6 1668.7 1589.7 1669.9 1540.1 1881.2 1536.7 1881 1507.8 2017.7 1502.6 2162.5 1504.3 2241.7 1500.8 Z" data-holc_grade="B"/>
<path d="M 2358.7 2740.5 2263.6 2463.2 2266 2434.3 2276 2360.9 2256.8 2341.7 2255.6 2315.8 2246.6 2300.1 2331.3 2299 2339.1 2298.9 2339.3 2298.9 2337.1 2428.7 2337 2431.2 2586.7 2434.7 2586.7 2436.4 2590.4 2563 2575.2 2571.7 2578.8 2691.6 2578.9 2692.8 2581.8 2754.8 2408.1 2758.5 2389.3 2740.5 2358.7 2740.5 Z" data-holc_grade="B"/>
<path d="M 2578.8 2691.6 2575.2 2571.7 2590.4 2563 2586.7 2436.4 2605.5 2434.4 2608.3 2434.1 2606.9 2451.1 2746.3 2454.3 2747.3 2560.8 2791.8 2560.8 2796.1 2692.8 2578.8 2691.6 Z" data-holc_grade="B"/>
<path d="M 2361.8 1498.7 2361.9 1534 2241.9 1536.9 2241.7 1500.8 2238.8 994.4 2114.4 995.9 2114.4 882.1 2397.4 884.9 2397.5 1052.7 2397.5 1059.3 2397.6 1059.3 2401.6 1296.2 2361.1 1294.8 2361.8 1498.7 Z" data-holc_grade="B"/>
<path d="M 2155.5 676.7 2135.2 677.9 2133 839.9 1706 837.8 1716.1 766.9 1734.2 678 1772.6 612.7 1988.3 618.3 1988.3 581.1 2155.5 586.7 2155.5 676.7 Z" data-holc_grade="B"/>
<path d="M 1671.1 847.6 1641.6 885 1641.4 899.6 1577.2 904.2 1577.2 865.9 1551.2 815.3 1582.8 674.6 1576 656.6 1577.2 574.4 1689 572.2 1693.5 703.8 1609.1 708.8 1586.8 808.2 1680.3 807.7 1676.6 825.4 1671.1 847.6 Z" data-holc_grade="B"/>
<path d="M 935 1495.4 939.8 1495.3 940.5 1480.2 926.8 1458.2 906.8 1453.4 901 1441.9 905.2 1424 926.3 1397.3 950 1378.9 961.6 1375.3 965.3 1355.3 961.6 1327 954.8 1325.4 935.3 1346.9 925.8 1349 917.9 1339.1 912.1 1325.4 921.6 1299.2 1036.6 1296.4 1039.3 1843 927.9 1845.8 918.3 1817.1 915.7 1809 919.9 1792.6 934.8 1780.4 966.3 1770.8 979.7 1772 990.1 1768.6 998.5 1767.8 1012.7 1761.7 1004.7 1725.8 998.2 1702.1 950.2 1705.1 944.1 1693.3 947.5 1676.8 962.9 1647.1 961.4 1616.9 953.7 1609.6 934.1 1620.7 922.2 1615.3 919.9 1602.3 924.9 1593.6 982.1 1552.7 980.9 1540.5 972.5 1532.4 957.5 1535.9 944.5 1535.1 939.1 1521 938.4 1507.6 935 1495.4 Z" data-holc_grade="B"/>
</g>
<g id="C">
<path d="M 2241.7 1500.8 2162.5 1504.3 2017.7 1502.6 1881 1507.8 1877.8 997.3 2114.4 995.9 2238.8 994.4 2241.7 1500.8 Z" data-holc_grade="C"/>
<path d="M 2397.3 784.7 2397.4 884.9 2114.4 882.1 2114.4 995.9 1877.8 997.3 1694.7 998.4 1640.4 998.7 1641 943.5 1641.4 899.6 1641.6 885 1671.1 847.6 1678.8 837.8 1706 837.8 2133 839.9 2135.2 677.9 2155.5 676.7 2155.6 863.5 2364.6 864.6 2366.8 678.9 2397.3 680 2397.3 784.7 Z" data-holc_grade="C"/>
<path d="M 1577.2 574.4 1576 656.6 1582.8 674.6 1551.2 815.3 1577.2 865.9 1577.2 904.2 1641.4 899.6 1641 943.5 1516.2 936.8 1518.4 998.7 1336.5 1001 1336.5 932.3 1365.9 932.3 1364.8 873.8 1336.5 872.7 1334.3 811.9 1369.3 813 1369.3 629.6 1394.2 629.6 1394.2 519.3 1394.2 506.9 1394.5 507.2 1437.1 538.4 1473.2 495.7 1535.4 572.2 1577.2 574.4 Z" data-holc_grade="C"/>
<path d="M 1157.9 816.7 972.2 812.7 837.5 815.5 835.8 806.5 826.9 798.8 817.5 791.1 810.6 783.4 800.5 778.6 783.8 779.8 763 790.7 739.9 808.1 730.1 814.6 717.9 812.2 695.1 795.6 670.7 774.9 632.5 745.7 623.2 741.6 603.6 753.4 591.4 765.5 584.1 753 584.9 738 591.5 716.1 595.9 701.5 595.1 692.6 591.1 685.7 592.3 679.2 603.7 683.3 624.8 680.9 631.3 674 627.7 663 635.4 656.6 667.5 670.4 680.3 665.7 679 650.4 672 635.7 1157.1 634.4 1157.9 816.7 Z M 672.1 451.3 672 528.6 666.4 523.7 657.8 517.2 650.9 516 640.4 512.4 632.6 505.5 631.4 499 635.9 497 655 482.8 656.6 476.3 652.2 467.4 637.1 463.8 625.7 464.6 622.5 460.9 620.5 452 630 451.9 672.1 451.3 Z" data-holc_grade="C"/>
<path d="M 1157.9 816.7 1158.5 934.6 1091.6 934.1 985 933.2 972.2 933.1 972.2 812.7 1157.9 816.7 Z" data-holc_grade="C"/>
<path d="M 1097.4 1053.5 1097 1178.4 911.7 1176.4 915.6 1050.9 1097.4 1053.5 Z" data-holc_grade="C"/>
<path d="M 921.6 1299.2 912.1 1325.4 917.9 1339.1 925.8 1349 935.3 1346.9 954.8 1325.4 961.6 1327 965.3 1355.3 961.6 1375.3 950 1378.9 926.3 1397.3 905.2 1424 901 1441.9 906.8 1453.4 926.8 1458.2 940.5 1480.2 939.8 1495.3 935 1495.4 565.7 1497.7 567.1 1180.1 888 1176.7 877.4 1197.4 880 1211.6 889 1232 888.4 1251.4 893.7 1265.1 905.3 1263.5 921.6 1264 928.4 1273.5 921.6 1289.2 921.6 1299.2 Z" data-holc_grade="C"/>
<path d="M 1459.7 1991 1458.7 1765 1545.2 1760 1551.3 1763 1606 1760.5 1607.9 1991.7 1459.7 1991 Z" data-holc_grade="C"/>
<path d="M 2615.1 2219.8 2614.7 2312.7 2611.1 2423 2605.5 2434.4 2586.7 2436.4 2586.7 2434.7 2337 2431.2 2337.1 2428.7 2339.3 2298.9 2339.1 2298.9 2339.1 2298.5 2386.7 2298.3 2387.8 2402.1 2590.9 2403.7 2589 2220.7 2582.5 2220.7 2580.7 2209.1 2415.5 2206 2391.3 2206.5 2385.9 2214.1 2362.3 2213.8 2362.2 2182.5 2611.9 2184.6 2610.4 2217 2615.1 2219.8 Z" data-holc_grade="C"/>
</g>
<g id="D">
<path d="M 1881 1507.8 1881.2 1536.7 1669.9 1540.1 1665.3 1483.9 1641.6 1482.7 1638.2 1299.2 1699.2 1299.2 1694.7 998.4 1877.8 997.3 1881 1507.8 Z" data-holc_grade="D"/>
<path d="M 1518.2 1538.4 1342.7 1538.4 1338.3 1241.8 1518.8 1241.2 1518.2 1538.4 Z" data-holc_grade="D"/>
<path d="M 1342.7 1538.4 1518.2 1538.4 1548.1 1538.4 1545.2 1760 1458.7 1765 1459.7 1991 1459.7 1992.6 1323.6 1992.6 1327.6 1774.9 1185.5 1770.3 1200.6 1770.5 1194.8 1534.4 1206.4 1538.4 1342.7 1538.4 Z" data-holc_grade="D"/>
<path d="M 1194.8 1534.4 1200.6 1770.5 1185.5 1770.3 1101.1 1769 1102.6 1932.3 1071.8 1932.3 1064.5 1984.8 902.1 1986.2 907.9 1942.5 894.8 1930.8 865.5 1935.2 855.3 1916.2 912.3 1884.1 927.9 1845.8 1039.3 1843 1036.6 1296.4 921.6 1299.2 921.6 1289.2 928.4 1273.5 921.6 1264 905.3 1263.5 893.7 1265.1 888.4 1251.4 889 1232 880 1211.6 877.4 1197.4 888 1176.7 911.7 1176.4 1097 1178.4 1099.8 1213.8 1096.8 1541.7 1194.8 1534.4 Z" data-holc_grade="D"/>
<path d="M 570.9 949 567.1 1180.1 565.7 1497.7 935 1495.4 938.4 1507.6 939.1 1521 944.5 1535.1 957.5 1535.9 972.5 1532.4 980.9 1540.5 982.1 1552.7 924.9 1593.6 919.9 1602.3 922.2 1615.3 934.1 1620.7 953.7 1609.6 961.4 1616.9 962.9 1647.1 947.5 1676.8 944.1 1693.3 950.2 1705.1 998.2 1702.1 1004.7 1725.8 1012.7 1761.7 998.5 1767.8 990.1 1768.6 979.7 1772 966.3 1770.8 934.8 1780.4 919.9 1792.6 915.7 1809 918.3 1817.1 927.9 1845.8 912.3 1884.1 855.3 1916.2 865.5 1935.2 894.8 1930.8 907.9 1942.5 902.1 1986.2 840.7 2203.3 1 2209.8 5 927.4 285 932.5 285.5 296.6 370.8 296.6 363.1 1 561.6 1.1 563.3 448 567.2 561.8 569.1 798.2 570.9 949 Z" data-holc_grade="D"/>
<path d="M 1091.6 934.1 1097.5 1042.1 1098.1 1053.5 1097.4 1053.5 915.6 1050.9 911.7 1176.4 888 1176.7 567.1 1180.1 570.9 949 571.1 936.8 985 933.2 1091.6 934.1 Z" data-holc_grade="D"/>
<path d="M 1275.5 685.8 1279.1 698.5 1274.2 934.8 1180.4 934.8 1158.5 934.8 1158.5 934.6 1157.9 816.7 1157.1 634.4 672 635.7 672 528.6 672.1 451.3 1131.1 455.1 1121.3 409.8 1119.5 401.8 1275.5 685.8 Z" data-holc_grade="D"/>
<path d="M 1394.5 507.2 1394.2 506.9 1394.2 519.3 1394.2 629.6 1369.3 629.6 1369.3 813 1334.3 811.9 1310.5 810.8 1279.1 698.5 1275.5 685.8 1266.5 628.4 1281.2 628.4 1277.8 569.9 1338.8 571.1 1341.1 457.4 1377.2 457.4 1395.3 482.2 1394.5 507.2 Z" data-holc_grade="D"/>
<path d="M 1121.3 409.8 1131.1 455.1 672.1 451.3 630 451.9 646.5 437 646.6 425.6 639.8 410.8 640.1 401.7 641.6 371.8 636.4 359.7 640 343.1 628.6 334.1 624.2 331.7 610.3 332.5 603.8 334.9 600.6 332.5 606.7 327.2 618.1 327.2 628.7 319.1 632.7 306.2 628.7 296.9 615.2 295.7 604.7 290.4 602.6 277.8 620.5 266.5 623.4 256.4 619.3 241.4 687.2 238.2 690.9 319.3 690.4 328.1 769.2 327.1 768.9 272.2 770.2 249.1 857.6 248.4 860.1 96.7 951.6 99.9 986.5 160 1110.3 391.6 1121.3 409.8 Z" data-holc_grade="D"/>
</g>
</svg>