<?xml version="1.0"?>
<svg xmlns="http://www.w3.org/2000/svg" version="1.2" baseProfile="tiny" width="3000" height="2530" viewBox="0 0 3000 2530" stroke-linecap="round" stroke-linejoin="round">
<g id="A">
<path d="M 703 508.4 703.7 524.2 682.3 526.1 587.5 530.9 523.9 535.3 521.2 533.9 519.9 522.9 477.2 526.6 476 529.1 475.4 538.5 455.3 539.6 454.7 542.9 456.4 587.2 421.9 589.9 360 593.4 356.4 596.4 350.5 595.3 340.3 596.4 339.5 567.6 335.3 523.5 334.6 484.6 337.3 484.6 340.6 484.3 344.1 482.7 349.3 479.7 350.2 477.6 353.1 475.6 355.8 474.5 357.2 474.9 358.8 477 360.3 479.1 364.1 479.6 367.9 479.1 373.5 477.5 379.4 474.4 385.1 470.6 388.7 467.5 391.7 464.7 393.2 462.1 394.9 458.1 395.9 456.2 396.5 454.2 398.2 452.2 401.2 450.1 404.2 449.4 409.2 449 413.9 448.6 419 447.2 425.9 444.8 428.3 443.4 431.8 444 436 444.1 441 443.4 449.6 442.9 463.4 442.2 466 440.8 473.4 435.2 477.7 429.5 481.6 426.1 486.3 424 494.8 422.4 496.9 421.4 498.1 419.7 499.1 417.8 502 415.8 503.7 414.4 506.2 414.5 509.2 417.3 513.9 419.2 518.2 423.2 521.1 428.7 523.6 432.7 523.9 433.5 524.2 434.3 524.6 435 525 435.7 525.5 436.3 526 436.9 526.5 437.4 527.1 437.9 527.7 438.3 528.3 438.6 529 439 529.7 439.3 531.2 439.8 534.1 440.6 535.3 441 536.5 441.4 537.5 441.9 538 442.2 538.6 442.5 539.1 442.9 539.5 443.3 539.9 443.7 540.3 444.2 540.7 444.6 541 445.2 541.4 445.8 541.8 446.6 542.1 447.4 542.3 448.2 542.5 449.1 542.7 450.1 542.9 451.1 542.9 452.2 543 453.4 543 454.6 543 455.9 542.9 457.2 542.7 460.1 542.3 463.3 535.2 481.2 536.2 486.3 553 501.8 563.9 502.6 637.4 511.7 685.6 507.4 703 508.4 Z" data-holc_grade="A"/>
<path d="M 1000.5 1820.5 998 1818.9 992.7 1814.7 985.1 1809.5 978.6 1807.3 974.4 1805.5 969.2 1802.3 967.1 1801.2 960.7 1798.4 961 1802.5 961 1805.6 960.7 1809.7 959.6 1812.6 957 1814.3 952.9 1816.9 950.3 1818.3 942.5 1819.5 938.7 1818.9 934.6 1818.3 933.6 1818.8 929.7 1820.7 931.1 1825.3 932.3 1831.9 934.6 1842 936.1 1851 933.5 1861.7 929.4 1871.5 923.9 1875.8 916.9 1879.9 907.9 1882.9 905.9 1883.6 898 1885.4 886.4 1886.8 783.9 1881.9 786 1870.2 786.3 1868.5 786.5 1866.9 786.5 1865.2 786.3 1863.5 786 1861.9 785.6 1860.3 785.1 1858.7 784.4 1857.2 783.6 1855.7 789.1 1844.8 793.6 1837 798.8 1830.8 818 1812.3 812 1805.9 816.2 1800.4 882.6 1727.9 887.9 1730 891 1730 895.3 1726.1 902.5 1721.7 921.9 1712.4 929.8 1709.2 936.7 1706.6 940.7 1705.9 949.5 1705 956.8 1703.3 961.7 1702.4 970 1702.2 983.6 1700.9 998.1 1699.5 1006.8 1697.5 1013.5 1695.9 1014.7 1695.9 1014.3 1700.5 1013.8 1704.7 1013.8 1707.9 1015.1 1709.8 1016.7 1712.6 1016.1 1716.1 1015.4 1717.9 1013.8 1721 1010 1723.3 1006.5 1724.4 1001.6 1726.7 998.4 1728.8 994.1 1732.5 991.5 1737.4 989.1 1745.8 992 1765.2 1000.5 1820.5 Z" data-holc_grade="A"/>
<path d="M 1096.1 1697.7 1088.5 1701.2 1083.3 1704.5 1077.1 1709 1070.5 1716.4 1063.2 1725.4 1067 1730.6 1075.4 1736.6 1081.1 1741.4 1089.8 1743.4 1098.1 1747.7 1103.3 1741.2 1104.9 1740.6 1106.6 1740.9 1107.5 1742.6 1108.7 1747.4 1112.3 1758.2 1113.2 1759.7 1114.3 1761 1115.5 1762.3 1116.8 1763.5 1118.2 1764.5 1119.6 1765.5 1121.1 1766.3 1122.7 1767 1124.4 1767.6 1126 1768.1 1127.7 1768.4 1129.5 1768.6 1131.2 1768.7 1132.9 1768.6 1145.7 1769.7 1153.8 1771.1 1154.4 1834.6 1143 1833.1 1138 1832.2 1122.1 1835.6 1116.9 1835.7 1111.4 1835.4 1090.2 1832.1 1084.1 1831.9 1080 1832.4 1055.9 1837.1 1046.8 1837.3 1042.6 1835.5 1038.1 1834 1025.6 1858.1 1007.6 1827 1000.5 1820.5 992 1765.2 989.1 1745.8 991.5 1737.4 994.1 1732.5 998.4 1728.8 1001.6 1726.7 1006.5 1724.4 1010 1723.3 1013.8 1721 1015.4 1717.9 1016.1 1716.1 1016.7 1712.6 1015.1 1709.8 1013.8 1707.9 1013.8 1704.7 1014.3 1700.5 1014.7 1695.9 1018.3 1695.6 1025.5 1695.9 1035.7 1696.9 1044.1 1695.7 1047 1696.1 1050.5 1694.9 1054 1693.6 1057.4 1692.1 1060.7 1690.5 1064 1688.8 1067.3 1687 1070.4 1685 1073.5 1683 1076.5 1680.8 1079.4 1678.5 1082.3 1676.1 1096.1 1697.7 Z" data-holc_grade="A"/>
<path d="M 783.9 1881.9 886.4 1886.8 898 1885.4 905.9 1883.6 907.9 1882.9 922.8 1897.9 941.1 1921.9 953.6 1933.9 965.8 1944.1 980.9 1952.6 987.1 1954.5 988.1 1958.6 986.3 1979 958.8 1977.1 951.9 1991.5 939.9 1985.3 938.1 1985.9 933.7 1995.2 929.8 2002.9 899.8 2056 897.1 2056.2 879.9 2039.2 877.3 2036.6 867.9 2027.3 865 2017.9 856.1 1997.8 844.5 1977.8 828.8 1969.5 803.7 1953.3 775.3 1937.5 776 1925 783.9 1881.9 Z M 887.2 2021.1 889.7 2021.7 892.1 2017.5 900.8 2003.7 905.1 1995.4 909.1 1984 910.8 1977.1 911.1 1971.5 910.2 1968.3 892.6 1963.2 881.1 1987.1 887.4 1992.2 882.9 1998.2 878.3 2007 883.9 2011.5 883.8 2014.9 887.2 2021.1 Z" data-holc_grade="A"/>
<path d="M 1000.5 1820.5 1007.6 1827 1025.6 1858.1 1038.1 1834 1042.6 1835.5 1046.8 1837.3 1055.9 1837.1 1080 1832.4 1084.1 1831.9 1090.2 1832.1 1111.4 1835.4 1116.9 1835.7 1122.1 1835.6 1138 1832.2 1143 1833.1 1154.4 1834.6 1154.6 1865.4 1151.7 1867.2 1146.9 1869.1 1140.3 1870.4 1133.9 1868.9 1124.7 1862.3 1113.1 1853.8 1103.5 1851.2 1100.1 1850.6 1096.8 1851.8 1096.7 1853.6 1097.4 1856.9 1099.9 1861.8 1100.2 1867.6 1098.8 1869.6 1089.4 1876.3 1088.7 1879.5 1088.9 1881 1092.9 1890.2 1094.3 1892 1096.4 1894.8 1098.5 1897.7 1099.8 1900.1 1100.9 1902.6 1102 1905.2 1102.9 1907.8 1103.6 1910.5 1104.2 1913.2 1104.8 1915.8 1105.3 1918.4 1105.6 1921 1105.8 1923.7 1105.9 1926.4 1105.9 1929 1105.7 1931.7 1105.4 1934.3 1105 1937 1103.8 1938.6 1096.6 1940.8 1076.7 1944.3 1053.7 1948.4 1032.2 1952.5 1008.1 1957.4 988.1 1958.6 987.1 1954.5 980.9 1952.6 965.8 1944.1 953.6 1933.9 941.1 1921.9 922.8 1897.9 907.9 1882.9 916.9 1879.9 923.9 1875.8 929.4 1871.5 933.5 1861.7 936.1 1851 934.6 1842 932.3 1831.9 931.1 1825.3 929.7 1820.7 933.6 1818.8 934.6 1818.3 938.7 1818.9 942.5 1819.5 950.3 1818.3 952.9 1816.9 957 1814.3 959.6 1812.6 960.7 1809.7 961 1805.6 961 1802.5 960.7 1798.4 967.1 1801.2 969.2 1802.3 974.4 1805.5 978.6 1807.3 985.1 1809.5 992.7 1814.7 998 1818.9 1000.5 1820.5 Z M 939.2 1852.2 946.9 1860.2 959 1840 958 1839.4 956.2 1837.6 953.8 1835.3 952.1 1833.3 949.7 1829.4 949 1826.9 948.4 1825 947.2 1823.1 945.2 1821.7 935 1820.3 934.4 1820.7 933.9 1821.3 932.4 1823.4 932.5 1824.8 933.4 1827.4 935.2 1831.2 936.8 1836.5 937.6 1841.5 938.4 1848.3 939.2 1852.2 Z" data-holc_grade="A"/>
<path d="M 1033 481 1022.6 482.7 1022.9 499.2 980.5 499.5 979.2 451 1030.4 438 1033 481 Z" data-holc_grade="A"/>
<path d="M 1278.4 440.3 1252.2 445.1 1135.4 463.8 1033 481 1030.4 438 1169.4 402.7 1197.2 395.1 1208.8 393.9 1257 386.3 1297.4 380.5 1302 404.2 1275.4 408.3 1274.3 411.3 1278.4 440.3 Z" data-holc_grade="A"/>
<path d="M 1303.1 72.9 1308.1 112.1 1312.1 137.8 1316 161.6 1316.1 167.4 1318.9 181.1 1300.2 184.3 1303.7 207.8 1278.1 211.9 1268.3 137 1296.2 132.7 1286.1 66.9 1283.3 44.5 1381.3 28.8 1495.9 9.5 1524.3 27.7 1551.8 47.4 1532.3 49.8 1490.8 20.2 1347.2 43.9 1300.9 50.8 1303.1 72.9 Z" data-holc_grade="A"/>
<path d="M 1297.4 380.5 1283.5 259.4 1298.4 258.1 1304.6 292.1 1307.1 292.8 1331.8 288.1 1449.3 269.5 1451.8 269.5 1456 292.4 1459.3 293.2 1487.1 288.7 1488.1 290.8 1497.9 347.9 1473.2 351.7 1403.3 363.2 1327.6 375.6 1297.4 380.5 Z" data-holc_grade="A"/>
<path d="M 752.1 1847.5 767.1 1846.6 768.7 1846.7 770.3 1846.9 771.9 1847.2 773.5 1847.7 775 1848.3 776.5 1849 777.9 1849.9 779.2 1850.9 780.5 1851.9 781.6 1853.1 782.6 1854.4 783.6 1855.7 784.4 1857.2 785.1 1858.7 785.6 1860.3 786 1861.9 786.3 1863.5 786.5 1865.2 786.5 1866.9 786.3 1868.5 786 1870.2 783.9 1881.9 776 1925 775.3 1937.5 775.2 1939.9 775.1 1939.9 719.6 1941.1 675.8 1942.1 581.8 1942.4 561 1941.4 561.6 1853.9 491.3 1859.1 492.7 1821.5 493.4 1800.8 493.6 1797.5 496.4 1798.7 499.2 1799.7 501.9 1800.6 504.5 1801.3 507 1801.8 509.4 1802.3 511.8 1802.6 514.1 1802.7 516.4 1802.7 518.7 1802.5 521 1802.3 523.3 1801.8 525.5 1801.3 527.9 1800.6 530.3 1799.8 536.8 1797.6 538.8 1796.9 540.7 1796.4 542.9 1795.9 545.1 1795.5 547.2 1795.2 549.3 1795.1 550.7 1795 552 1795 553.4 1795.1 554.8 1795.2 556.2 1795.3 557.6 1795.5 559.1 1795.7 560.5 1796 562 1796.3 563.6 1796.7 565.1 1797.1 566.7 1797.6 569.9 1798.6 573.3 1799.9 573.6 1818.9 621.9 1838.2 628.7 1841.4 646.3 1849.7 649 1849.7 654.4 1849.7 650.7 1775.9 711.6 1773.7 717.2 1849.2 752.1 1847.5 Z M 650.9 1895 649.3 1856.3 628.9 1856.3 629.6 1895.6 650.9 1895 Z" data-holc_grade="A"/>
<path d="M 1041.8 1519.3 1007.7 1551.6 943.6 1612.7 941.1 1615.2 895.9 1617.6 863.2 1622.9 855.5 1623.5 858.8 1614 877.4 1548.6 888.8 1545.9 897.5 1541.4 902.9 1539.5 908 1538.1 910.6 1538 916.5 1539.7 921 1541.5 924.6 1544.3 930.4 1545 935.8 1544.2 939.3 1543.8 945.3 1542.6 949.1 1538.7 950.2 1533.7 950.7 1519 959.2 1506.5 964.2 1502.8 966.6 1498.5 966.9 1494.3 966.3 1492.2 959.8 1481.8 959.2 1476.9 959.2 1471 959.6 1466.3 959.6 1462.2 959 1458.2 957.2 1454.5 952.3 1448.5 948.7 1445.9 943.6 1443.2 941 1441.4 937.1 1437.7 934.4 1434.3 932.4 1430.8 929.7 1426.4 928.1 1418.4 927.9 1413.2 927.9 1407.7 928.5 1401.7 928.8 1393.3 929 1388.3 928.8 1383.6 929.4 1381.7 933.7 1376.4 935.1 1373.8 938.8 1370.6 943.1 1366.3 943.8 1365.9 1013.2 1437.4 1017.7 1456.4 1025.1 1467.6 1050.3 1497.5 1051.1 1498.4 1051.7 1499.4 1052.2 1500.5 1052.6 1501.6 1052.9 1502.8 1053 1504 1053 1505.2 1052.9 1506.4 1052.6 1507.5 1052.2 1508.6 1051.7 1509.7 1051.1 1510.7 1050.3 1511.7 1049.4 1512.5 1041.8 1519.3 Z" data-holc_grade="A"/>
<path d="M 1044.1 1695.7 1035.7 1696.9 1025.5 1695.9 1018.3 1695.6 1014.7 1695.9 1013.5 1695.9 1006.8 1697.5 998.1 1699.5 983.6 1700.9 970 1702.2 961.7 1702.4 956.8 1703.3 949.5 1705 940.7 1705.9 936.7 1706.6 929.8 1709.2 921.9 1712.4 902.5 1721.7 895.3 1726.1 891 1730 887.9 1730 882.6 1727.9 917.4 1690 921.7 1683.7 930 1671.7 916.8 1662.3 911 1660.5 901.2 1676.8 899.5 1679.6 870.9 1709.1 811.7 1775.8 806.5 1781.3 805.3 1784.7 805.3 1787.8 806.6 1791.7 816.2 1800.4 812 1805.9 818 1812.3 798.8 1830.8 793.6 1837 789.1 1844.8 783.6 1855.7 782.6 1854.4 781.6 1853.1 780.5 1851.9 779.2 1850.9 777.9 1849.9 776.5 1849 775 1848.3 773.5 1847.7 771.9 1847.2 770.3 1846.9 768.7 1846.7 767.1 1846.6 752.1 1847.5 753.6 1834 755.5 1825.8 758.3 1818.5 760.2 1816.3 765.1 1812.7 780.5 1817.1 783 1814.7 794.2 1785.9 803.5 1769 829 1711.1 840.2 1667 855.2 1624.5 855.5 1623.5 863.2 1622.9 895.9 1617.6 941.1 1615.2 943.6 1612.7 993.4 1643.5 1044.1 1695.7 Z" data-holc_grade="A"/>
<path d="M 1098.7 1536.9 1092.7 1543.8 1140 1585.4 1147.9 1593.6 1149 1597 1147.6 1599.9 1146.8 1603.5 1144.4 1606.8 1140.3 1608.4 1123 1625 1108.4 1654.7 1101.6 1664.7 1097.2 1668 1082.3 1676.1 1079.4 1678.5 1076.5 1680.8 1073.5 1683 1070.4 1685 1067.3 1687 1064 1688.8 1060.7 1690.5 1057.4 1692.1 1054 1693.6 1050.5 1694.9 1047 1696.1 1044.1 1695.7 993.4 1643.5 943.6 1612.7 1007.7 1551.6 1041.8 1519.3 1045.9 1523.6 1058.2 1525.9 1092.7 1534.6 1098.7 1536.9 Z" data-holc_grade="A"/>
</g>
<g id="B">
<path d="M 186.5 648.4 187.4 701.6 225.3 700.1 296.4 693.8 298.1 693.7 366.3 688.7 404.3 686.8 407.5 686.7 408.6 710.1 413.5 778.8 414 791.8 417.8 880.4 363.6 883.4 260.4 890.9 113.6 899.6 42.7 903.8 26.6 904.2 20.3 808.3 1.9 808.7 1 783.2 18.8 782.1 15.7 722.4 14.6 699.7 14.3 690.6 12.7 688 12.6 681.2 6.6 670.8 6.9 665.3 100.4 655.3 186.5 648.4 Z M 370.9 777 371.3 783.2 409.9 781 407.7 746.8 404.7 694 365.7 695.5 370.7 773.4 370.9 777 Z M 335.4 780.3 334.5 777.4 257.3 781.6 229.9 783.5 192.8 785.4 164.9 786.4 153.7 788.1 154.1 809.1 157.2 810.8 225.2 807.8 293.1 802.8 337.4 800 335.4 780.3 Z" data-holc_grade="B"/>
<path d="M 1074.3 738.8 1094 734.8 1089.5 702.9 1088.4 700.2 1044.8 705.9 1042.9 668.6 1113.6 663.4 1121.5 663.2 1125 679.7 1142.2 677.8 1152.2 741 1120.6 746.6 1080.1 752.7 1078.5 753 1077.2 751.5 1075.3 741.6 1074.3 738.8 Z" data-holc_grade="B"/>
<path d="M 1276.7 722 1285.3 772.2 1235 781.5 1233.4 783.7 1234.3 790 1165.8 794 1165.7 793 1165.6 793 1157.2 740.7 1157.1 740.2 1276.7 722 Z" data-holc_grade="B"/>
<path d="M 1551.8 47.4 1554 47.1 1561.7 92.7 1560.8 94.2 1498.7 103.4 1496.3 103.8 1478.1 94.4 1475.4 97.8 1472.6 101 1469.7 104.2 1466.7 107.3 1463.6 110.3 1460.4 113.2 1457.1 116 1453.7 118.7 1450.3 121.2 1446.7 123.7 1443.1 126 1439.4 128.3 1435.6 130.4 1431.8 132.4 1427.9 134.2 1424 136 1420 137.6 1415.9 139.1 1411.8 140.5 1409.8 141.3 1407.8 142 1405.8 142.7 1403.7 143.2 1401.6 143.6 1399.5 144 1384.7 59 1303.1 72.9 1300.9 50.8 1347.2 43.9 1490.8 20.2 1532.3 49.8 1551.8 47.4 Z" data-holc_grade="B"/>
<path d="M 1516.7 247.8 1521.6 271.7 1583.8 260.3 1585.5 261.8 1593.4 308.5 1528.6 319.6 1536 371.1 1508.3 376 1506.7 375.2 1504.6 374.8 1503.1 371.4 1497.4 372.2 1474.5 375.3 1439.3 381.4 1399.6 388.2 1302 404.2 1297.4 380.5 1327.6 375.6 1403.3 363.2 1473.2 351.7 1497.9 347.9 1488.1 290.8 1487.1 288.7 1459.3 293.2 1456 292.4 1451.8 269.5 1449.3 269.5 1331.8 288.1 1307.1 292.8 1304.6 292.1 1298.4 258.1 1283.5 259.4 1281.4 237.1 1306.4 233.2 1309.5 236 1313.2 256.1 1369.4 246.6 1446.8 234.7 1451.4 258.9 1516.7 247.8 Z" data-holc_grade="B"/>
<path d="M 1707.1 360.5 1640 370.5 1631.2 315.7 1695.1 306.2 1697.7 307.9 1707.1 360.5 Z" data-holc_grade="B"/>
<path d="M 238.2 1177.5 234.5 1130.8 232.4 1129.4 191.7 1129.1 191.2 1082.4 330.9 1074.8 399.2 1070.8 644.2 1059.3 646.8 1092.9 646.7 1095.3 606.2 1096.5 607.8 1119.7 649.7 1118.2 651.2 1155.1 518.7 1161.4 486.8 1164.3 439.2 1167.4 315.9 1173.7 251.2 1177 238.2 1177.5 Z" data-holc_grade="B"/>
<path d="M 764 1196.3 743.9 1198.1 744.9 1244.9 679.3 1249.3 679.5 1253.5 680.8 1293.7 680.7 1293.7 682.2 1344.6 619.5 1348.3 556.5 1352 314 1366.1 310.9 1319.9 309.4 1317.4 268.4 1319.3 264.7 1273.5 263.6 1271.6 245.6 1272.3 242.9 1270.8 239.8 1224 238.2 1177.5 251.2 1177 315.9 1173.7 439.2 1167.4 486.8 1164.3 518.7 1161.4 651.2 1155.1 761 1150.1 764 1196.3 Z M 661.2 1254.3 663 1294.6 679.5 1293.8 677.4 1253.6 661.2 1254.3 Z" data-holc_grade="B"/>
<path d="M 331.8 1650.4 323.2 1508.4 469.7 1499.8 627.1 1491.2 632.4 1589.8 590.6 1591.8 591.4 1622.4 461 1628.9 461.8 1644.3 331.8 1650.4 Z" data-holc_grade="B"/>
<path d="M 711.6 1773.7 650.7 1775.9 576.2 1778.6 574.2 1734.6 510.2 1738.2 486.2 1739.5 417.5 1744.3 336.4 1747.6 331.8 1650.4 461.8 1644.3 462.4 1656.9 594.7 1650.4 594.7 1641 630.1 1640.2 630.8 1648 722.2 1643.5 722.1 1630.7 780.3 1629.7 827.5 1626.1 855.2 1624.5 840.2 1667 829 1711.1 803.5 1769 763.3 1771.8 711.6 1773.7 Z" data-holc_grade="B"/>
<path d="M 493.6 1797.5 493.4 1800.8 492.7 1821.5 491.3 1859.1 446.1 1863 347.3 1868 343.1 1872.8 340.4 1873 338.9 1873 342.5 1849.2 341.5 1839.1 338.4 1789.5 336.4 1747.6 417.5 1744.3 486.2 1739.5 510.2 1738.2 509.3 1780.5 494.1 1784.4 493.6 1797.5 Z M 432.3 1799.8 431.6 1799.7 429.7 1798.9 427.1 1797.8 424.8 1796.9 421.7 1795.1 420 1793.8 418 1791.6 415.3 1787.1 414.1 1785.2 411.7 1782.8 410.7 1781.1 409.3 1779.7 408.2 1778.4 406.9 1777.5 406.1 1777.5 405.2 1778.3 404.3 1779 403.8 1779.8 403.3 1781.3 402.8 1782.8 402.7 1784.8 402.6 1786.6 403.1 1788.4 403.6 1791.1 404.4 1793 405.4 1795.1 406.5 1796.7 408.2 1799 409.3 1802.2 409.8 1804 410.1 1805.5 410.2 1807.3 411.1 1809.4 412.8 1810.9 416.5 1813.4 418.2 1815.4 420 1816.1 424.4 1818.3 427.3 1818 429 1816.9 430.5 1816.3 432.2 1817 434.9 1817.9 438 1818.7 442 1819.5 444.9 1821 447 1821.4 448.7 1821.7 451 1821.2 452.8 1821.1 455.1 1820.1 457.1 1819.2 459.4 1818.1 461.1 1817.1 462.7 1816.5 464.9 1816 466.6 1816.2 468.6 1816.8 469.9 1817.2 473.1 1818.9 475.8 1819.8 477 1820.6 479.4 1820.9 481.9 1819.8 483.5 1819 484.8 1818.3 487.7 1816 488.9 1814 489.8 1811.4 488.9 1809.1 488 1806.1 488.6 1804.6 489.1 1801.4 487.8 1800.7 486 1799.9 484.7 1799.7 483.3 1799.4 482.3 1799.4 481 1799.5 479.3 1799.4 478.3 1798.7 476.5 1798.3 475 1798.3 471.5 1798.3 469.8 1798.5 467.4 1798.5 466 1798.7 464.3 1799.4 462 1800 460.5 1800.3 458.1 1800.1 456.5 1799.8 454.7 1799.1 453.3 1798.5 452.3 1798.5 451.2 1798.9 449.2 1800.4 445.4 1800.7 441.9 1800.7 438.2 1801.1 436.7 1801.3 432.3 1799.8 Z" data-holc_grade="B"/>
<path d="M 298.1 693.7 296.4 693.8 225.3 700.1 187.4 701.6 186.5 648.4 295.8 643.9 298.1 693.7 Z" data-holc_grade="B"/>
<path d="M 691.5 1488.3 699.8 1616.9 634.1 1620.8 632.4 1589.8 627.1 1491.2 619.5 1348.3 682.2 1344.6 691.5 1488.3 Z" data-holc_grade="B"/>
<path d="M 779.2 1482.9 691.5 1488.3 682.2 1344.6 680.7 1293.7 680.8 1293.7 679.5 1253.5 679.3 1249.3 744.9 1244.9 746.1 1273.4 753 1283.5 748.1 1290.8 745.2 1299.7 772.1 1341.6 779.2 1482.9 Z" data-holc_grade="B"/>
<path d="M 877.4 1548.6 858.8 1614 855.5 1623.5 855.2 1624.5 827.5 1626.1 780.3 1629.7 722.1 1630.7 720.1 1616.9 699.8 1616.9 691.5 1488.3 779.2 1482.9 847.9 1480.1 852.5 1549.8 877.4 1548.6 Z" data-holc_grade="B"/>
<path d="M 860.5 1335.7 862.2 1383.4 883.5 1383.7 887.8 1478.4 847.9 1480.1 779.2 1482.9 772.1 1341.6 745.2 1299.7 748.1 1290.8 753 1283.5 746.1 1273.4 744.9 1244.9 743.9 1198.1 764 1196.3 807.6 1194 811 1232.2 814.4 1306.9 834.5 1316.4 837.5 1316.2 860.5 1335.7 Z" data-holc_grade="B"/>
<path d="M 1004 2014 1002.7 2015.7 1001.4 2017.3 999.9 2018.8 998.3 2020.1 996.7 2021.4 994.9 2022.6 993.1 2023.6 991.2 2024.5 989.3 2025.3 987.3 2025.9 985.3 2026.4 983.2 2026.8 981.1 2027 979 2027.1 977.7 2070.5 952.1 2058.9 951.4 2061 950.5 2063.1 949.5 2065.1 948.4 2067 947.2 2068.9 945.9 2070.7 944.5 2072.4 943 2074.1 941.5 2075.7 939.8 2077.2 904.7 2064.8 905.9 2060.7 904.4 2057.8 899.8 2056 929.8 2002.9 933.7 1995.2 938.1 1985.9 939.9 1985.3 951.9 1991.5 958.8 1977.1 986.3 1979 988.1 1958.6 1008.1 1957.4 1004 2014 Z" data-holc_grade="B"/>
<path d="M 899.8 2056 904.4 2057.8 905.9 2060.7 904.7 2064.8 939.8 2077.2 941.9 2077.9 941.1 2087.2 971.9 2099.5 973.8 2174.4 972.3 2176.3 923.3 2175.3 852.7 2180.5 799.5 2179.2 793.1 2177 765.3 2174.8 771.2 2034.6 771.2 2034.4 775.1 1939.9 775.2 1939.9 775.3 1937.5 803.7 1953.3 828.8 1969.5 844.5 1977.8 856.1 1997.8 865 2017.9 867.9 2027.3 877.3 2036.6 879.9 2039.2 897.1 2056.2 899.8 2056 Z" data-holc_grade="B"/>
<path d="M 943.8 1365.9 943.1 1366.3 938.8 1370.6 935.1 1373.8 933.7 1376.4 929.4 1381.7 928.8 1383.6 929 1388.3 928.8 1393.3 928.5 1401.7 927.9 1407.7 927.9 1413.2 928.1 1418.4 929.7 1426.4 932.4 1430.8 934.4 1434.3 937.1 1437.7 941 1441.4 943.6 1443.2 948.7 1445.9 952.3 1448.5 957.2 1454.5 959 1458.2 959.6 1462.2 959.6 1466.3 959.2 1471 959.2 1476.9 959.8 1481.8 966.3 1492.2 966.9 1494.3 966.6 1498.5 964.2 1502.8 959.2 1506.5 950.7 1519 950.2 1533.7 949.1 1538.7 945.3 1542.6 939.3 1543.8 935.8 1544.2 930.4 1545 924.6 1544.3 921 1541.5 916.5 1539.7 910.6 1538 908 1538.1 902.9 1539.5 897.5 1541.4 888.8 1545.9 877.4 1548.6 852.5 1549.8 847.9 1480.1 887.8 1478.4 883.5 1383.7 862.2 1383.4 860.5 1335.7 881 1334.3 879.5 1287.5 900.2 1286.6 899.5 1237.8 958.3 1234 960.6 1242.9 962.7 1247.6 961.7 1261 963.1 1261.3 964.5 1261.8 965.8 1262.4 967 1263.1 968.2 1264 969.2 1265 970.2 1266 971.1 1267.2 971.8 1268.4 972.4 1269.7 972.9 1271.1 973.2 1272.5 973.4 1273.9 973.5 1275.3 973.4 1276.8 973.2 1278.2 972.8 1279.6 972.3 1280.9 971.7 1282.2 971 1283.5 970.1 1284.6 969.1 1285.7 968 1286.6 966.9 1287.5 965.6 1288.2 964.3 1288.8 962.9 1289.2 959.7 1291.8 956.6 1296 940.5 1353.5 943.8 1365.9 Z" data-holc_grade="B"/>
<path d="M 1324.6 1678.1 1312.2 1688.7 1298.6 1702.7 1296.9 1703.3 1295.1 1703.8 1293.4 1704.2 1291.6 1704.4 1289.8 1704.6 1288 1704.6 1286.1 1704.5 1284.4 1704.2 1282.6 1703.8 1280.8 1703.3 1279.1 1702.7 1277.5 1702 1275.9 1701.1 1274.4 1700.1 1267.1 1695.4 1253.6 1681 1213.4 1706.5 1212.1 1704.6 1210.7 1702.8 1209.1 1701.1 1207.5 1699.5 1205.7 1698 1203.9 1696.7 1202 1695.4 1200 1694.2 1197.9 1693.2 1195.8 1692.3 1193.6 1691.5 1191.4 1690.9 1189.2 1690.4 1186.9 1690.1 1184.6 1689.8 1182.3 1689.8 1180 1689.8 1177.7 1690.1 1175.4 1690.4 1173.2 1690.9 1170.9 1691.5 1168.8 1692.3 1166.6 1693.2 1164.6 1694.2 1162.6 1695.3 1160.7 1696.6 1158.8 1698 1157.1 1699.5 1155.4 1701.1 1141.6 1690 1137.9 1690.1 1130.3 1696.4 1119.4 1690.1 1101.9 1700.5 1099.3 1700.3 1096.1 1697.7 1082.3 1676.1 1097.2 1668 1101.6 1664.7 1108.4 1654.7 1123 1625 1140.3 1608.4 1144.4 1606.8 1146.8 1603.5 1147.6 1599.9 1149 1597 1147.9 1593.6 1140 1585.4 1092.7 1543.8 1098.7 1536.9 1114.1 1539.2 1123.4 1541.2 1132.2 1544.7 1139.3 1549.9 1148.6 1556.5 1200.9 1558.2 1205.7 1562 1235.7 1612.5 1238.1 1614.7 1240.6 1616.8 1243.1 1618.9 1245.8 1620.8 1248.5 1622.6 1251.3 1624.3 1254.2 1625.9 1257.1 1627.4 1260.1 1628.8 1263.1 1630 1266.2 1631.2 1269.3 1632.2 1272.5 1633.1 1275.7 1633.8 1278.9 1634.5 1282.1 1635 1285.4 1635.4 1287.8 1636.7 1290.1 1638 1292.1 1639.3 1294 1640.6 1295.7 1641.8 1297.3 1643.1 1298.6 1644.4 1299.9 1645.7 1300.9 1646.9 1301.8 1648.1 1302.6 1649.3 1303.3 1650.6 1303.8 1651.9 1304.4 1653.2 1304.9 1654.6 1306.1 1658.3 1306.5 1659.5 1306.9 1660.6 1307.5 1661.8 1308.1 1662.9 1308.8 1664.1 1309.5 1665.1 1310.6 1666.5 1311.7 1667.8 1313 1669.1 1314.4 1670.4 1315.9 1671.6 1317.6 1672.9 1319.4 1674.3 1321.4 1675.6 1324.6 1678.1 Z" data-holc_grade="B"/>
<path d="M 1154.6 1865.4 1154.8 1881.6 1155.6 1964.9 1142.5 1964.8 1143.6 1968.4 1144.6 1972 1145.4 1975.7 1146.1 1979.3 1146.6 1983 1147.1 1986.8 1147.3 1990.5 1147.5 1994.2 1147.5 1998 1147.4 2001.7 1147.1 2005.5 1146.7 2009.2 1146.4 2010.5 1102.5 2009 1100.2 2010.8 1101.9 2108.7 1011.5 2083.4 1009.4 2081.7 1005.8 2013.9 1004 2014 1008.1 1957.4 1032.2 1952.5 1053.7 1948.4 1076.7 1944.3 1096.6 1940.8 1103.8 1938.6 1105 1937 1105.4 1934.3 1105.7 1931.7 1105.9 1929 1105.9 1926.4 1105.8 1923.7 1105.6 1921 1105.3 1918.4 1104.8 1915.8 1104.2 1913.2 1103.6 1910.5 1102.9 1907.8 1102 1905.2 1100.9 1902.6 1099.8 1900.1 1098.5 1897.7 1096.4 1894.8 1094.3 1892 1092.9 1890.2 1088.9 1881 1088.7 1879.5 1089.4 1876.3 1098.8 1869.6 1100.2 1867.6 1099.9 1861.8 1097.4 1856.9 1096.7 1853.6 1096.8 1851.8 1100.1 1850.6 1103.5 1851.2 1113.1 1853.8 1124.7 1862.3 1133.9 1868.9 1140.3 1870.4 1146.9 1869.1 1151.7 1867.2 1154.6 1865.4 Z" data-holc_grade="B"/>
<path d="M 1196 1157.5 1186.5 1157.7 1178 1160.2 1175.1 1145.6 1171.1 1127.5 1168.1 1127.4 1109.1 1186.5 1112.3 1141.5 1111.4 1109.2 1112.4 1092.3 1128 1087 1141.5 1084.1 1169.2 1081.1 1172.2 1101.9 1186.6 1100.8 1196 1157.5 Z" data-holc_grade="B"/>
<path d="M 424 625.2 384.2 626.6 382.2 627.6 359 629.9 359.3 637.9 357.3 639.9 349.7 640.3 350.9 654 425.1 650.5 426.8 671.3 428 686.3 407.5 686.7 404.3 686.8 366.3 688.7 298.1 693.7 295.8 643.9 341.7 640.9 340.3 596.4 350.5 595.3 356.4 596.4 360 593.4 421.9 589.9 424 625.2 Z" data-holc_grade="B"/>
<path d="M 1296.3 1170.3 1294.2 1181.6 1294.7 1183.8 1294 1183.5 1293.1 1185 1292.3 1186.6 1291.5 1188.2 1290.8 1189.9 1290.1 1191.6 1289.5 1193.3 1289 1195.1 1288.6 1196.8 1288.2 1198.7 1288.2 1198.8 1288.1 1198.8 1286.8 1203.1 1285.7 1205.9 1284.5 1208.1 1283.1 1210.7 1281.8 1213 1260.3 1223.9 1259.3 1225.1 1258.5 1226.3 1257.8 1227.7 1257.2 1229.1 1256.7 1230.6 1256.4 1232.1 1256.3 1233.6 1256.2 1235.1 1256.4 1236.6 1256.6 1238.1 1257 1239.6 1257.6 1241 1258.2 1242.4 1275.8 1280.2 1182.6 1287.9 1180.7 1223.3 1179.5 1177.1 1178 1160.2 1186.5 1157.7 1196 1157.5 1205.6 1157.3 1211.6 1194.1 1217 1194.3 1222.4 1194.5 1227.8 1194.5 1233.2 1194.3 1238.5 1194 1243.9 1193.6 1249.3 1193 1254.6 1192.3 1259.9 1191.4 1262.2 1189.2 1264.3 1187 1266.4 1184.7 1268.4 1182.3 1270.2 1179.8 1272 1177.2 1273.7 1174.6 1275.2 1171.9 1296.3 1170.3 Z" data-holc_grade="B"/>
<path d="M 1470 1956.1 1502.9 1994 1507.7 2001.1 1493.3 2017.1 1469.3 2077.8 1467 2085.4 1430.6 2065.5 1399.9 2047.4 1394.1 2049.7 1319.3 2050.3 1323.5 2044.9 1327.9 2039.7 1332.3 2034.6 1336.9 2029.5 1341.6 2024.5 1346.4 2019.7 1351.3 2014.9 1356.3 2010.3 1361.4 2005.7 1366.6 2001.3 1371.9 1997 1377.2 1992.8 1382.7 1988.7 1388.3 1984.7 1393.9 1980.9 1399.6 1977.1 1405.4 1973.5 1411.3 1970 1417.2 1966.7 1423.2 1963.4 1429.3 1960.3 1435.5 1957.3 1441.7 1954.5 1455.3 1968.9 1470 1956.1 Z" data-holc_grade="B"/>
<path d="M 1335.7 2197.6 1337.1 2194.5 1338.3 2195.1 1368.6 2210.9 1372.3 2215.8 1373.2 2219.7 1375.5 2231.7 1377.2 2235.3 1375.2 2236.9 1367.3 2240.1 1313.8 2291.9 1302.9 2279.6 1299.1 2275.5 1325.2 2218.7 1335.7 2197.6 Z" data-holc_grade="B"/>
<path d="M 1468.7 2351.6 1498.1 2371.1 1526.1 2388.3 1556.9 2397.9 1592.8 2409.1 1585.8 2420.4 1603.7 2459.2 1601.6 2464.4 1594 2475.5 1582.5 2488.5 1571.9 2498.6 1563.1 2505 1551.9 2511.1 1541.9 2515 1540.9 2514.5 1536.6 2502.1 1533.3 2497.1 1529.3 2497 1519.8 2502.9 1484.7 2503.3 1467.9 2501.8 1464.9 2500.6 1462.1 2499.3 1459.5 2497.9 1458.3 2497.3 1457.1 2496.6 1456 2495.9 1454.9 2495.2 1454 2494.5 1453 2493.7 1452.2 2493 1451.4 2492.3 1450.6 2491.5 1450 2490.8 1449.4 2490 1448.8 2489.3 1448.3 2488.5 1447.9 2487.8 1447.5 2487 1447.2 2486.3 1447 2485.5 1446.8 2484.7 1446.7 2483.9 1446.7 2483.1 1446.7 2482.4 1446.8 2481.6 1446.9 2480.8 1447.1 2480 1447.4 2479.2 1447.7 2478.4 1451.6 2473.3 1456.8 2468.9 1446.2 2429.6 1433.2 2400.2 1417.6 2356.3 1416.7 2352.9 1421.9 2346.2 1424.4 2345.9 1426.2 2347 1429.1 2350 1432.1 2350 1458.7 2365.8 1459.9 2365.4 1468.7 2351.6 Z" data-holc_grade="B"/>
<path d="M 1467.6 966.1 1495.5 964.9 1497.4 1009.6 1473.7 1011.1 1463.5 1013.6 1465.6 1027.9 1461.2 1031.7 1444.8 1030.3 1439.5 1032.9 1423.2 1044.4 1403.5 1060.7 1400.7 1061.1 1398 1061.5 1395.4 1062 1392.9 1062.5 1390.5 1063.1 1388.3 1063.8 1386.1 1064.5 1384.1 1065.2 1382.1 1066 1380.3 1066.8 1378.6 1067.7 1377 1068.6 1375.5 1069.6 1374.1 1070.6 1372.8 1071.7 1371.6 1072.8 1370.6 1074 1369.6 1075.2 1368.8 1076.4 1368 1077.7 1367.4 1079.1 1366.9 1080.5 1366.5 1082 1366.2 1083.5 1366 1085 1365.9 1086.6 1365.9 1088.3 1366.1 1089.9 1366.3 1091.7 1366.7 1093.5 1367.1 1095.3 1367.7 1097.3 1367.9 1098.8 1368 1100.3 1367.9 1101.8 1367.7 1103.3 1367.3 1104.8 1366.9 1106.2 1366.3 1107.6 1365.5 1108.9 1364.7 1110.2 1363.8 1111.4 1362.7 1112.5 1361.6 1113.5 1360.3 1114.3 1357.8 1115 1355.3 1115.7 1352.9 1116.6 1350.5 1117.6 1348.2 1118.7 1346 1120 1343.8 1121.4 1341.7 1122.9 1339.7 1124.5 1337.7 1126.2 1335.9 1128.1 1334.2 1130 1332.6 1132 1331.1 1134.1 1329.7 1136.3 1328.4 1138.5 1327.3 1140.8 1326.3 1143.2 1325.4 1145.6 1325.2 1150.1 1319.6 1162.1 1320.1 1167.9 1323.3 1175.7 1323.5 1181.9 1320.7 1183.8 1303.4 1185.2 1298.7 1185.3 1294.7 1183.8 1294.2 1181.6 1296.3 1170.3 1296 1162.2 1294 1153.8 1291.5 1147.9 1289.5 1142.5 1288.7 1135.9 1287.8 1130 1291.3 1125.9 1292.7 1121.5 1297.7 1109.2 1300.9 1102.7 1305.8 1096.5 1307.8 1088.4 1306.9 1081 1302.9 1054 1333 1027.7 1330.5 1005.1 1330.2 1002.3 1350.5 953.1 1348.9 941.3 1364.2 936.8 1369.8 944 1376.5 949 1378.1 952 1378.3 955 1377.4 956.9 1375.6 958.7 1371.8 961.4 1369.4 963.7 1366.9 965.3 1365.8 966.7 1363.4 968.1 1361.2 969.5 1351.3 1000.1 1350.6 1003.4 1350.8 1009.5 1351.4 1014.6 1352.3 1017.9 1353.3 1021.2 1354.6 1023.3 1356.8 1025.6 1359.1 1027.4 1360.7 1028.4 1363.2 1030.4 1363.8 1032.8 1364 1034.8 1367.3 1039.5 1369.5 1041.6 1370.8 1043 1382.1 1043.1 1407.1 1020.7 1418.7 997.8 1442.4 983.7 1446.7 981 1457.1 965.8 1467.6 966.1 Z" data-holc_grade="B"/>
<path d="M 1754.1 1924 1727.7 1924.4 1721.5 1922.6 1703.5 1921.4 1685.5 1921.4 1752.4 1834.1 1765.3 1835.2 1786.2 1836.9 1812.6 1837.2 1802.4 1850.1 1802.7 1858.1 1806.5 1867.1 1813 1877.9 1814.3 1887.5 1819.3 1910.8 1809.6 1912.7 1804.9 1915.6 1798.4 1918.9 1780.4 1922.2 1754.1 1924 Z" data-holc_grade="B"/>
<path d="M 703.7 524.2 725.5 523.4 726.8 526.7 731.1 620.5 732.8 654.3 689.4 656 688.2 634 686.9 608.9 685.1 575.4 523.7 584.3 456.4 587.2 454.7 542.9 455.3 539.6 475.4 538.5 476 529.1 477.2 526.6 519.9 522.9 521.2 533.9 523.9 535.3 587.5 530.9 682.3 526.1 703.7 524.2 Z" data-holc_grade="B"/>
<path d="M 742.9 862.6 695.7 865.4 598.6 871.2 489.8 876.9 417.8 880.4 414 791.8 413.5 778.8 408.6 710.1 407.5 686.7 428 686.3 430.9 693.4 469.2 691.3 471.1 699.7 706.6 684.8 734.2 683.1 737.3 721.6 739.4 774.2 742.9 862.6 Z" data-holc_grade="B"/>
<path d="M 782.1 521.1 784.1 563.6 788.8 648.2 789.1 652.7 791 683.9 794.9 749.3 797.6 810.3 807.4 810.7 808.9 858.9 742.9 862.6 739.4 774.2 737.3 721.6 734.2 683.1 732.8 654.3 731.1 620.5 726.8 526.7 725.5 523.4 703.7 524.2 703 508.4 722.9 510.5 755.5 499.9 760.9 494.8 780.8 493.2 782.1 521.1 Z" data-holc_grade="B"/>
<path d="M 940.4 512.4 908.5 514.5 803.8 519.8 782.1 521.1 780.8 493.2 820.4 489.7 835.1 487.1 885.5 473.6 938.2 461 940.4 512.4 Z" data-holc_grade="B"/>
<path d="M 808.9 858.9 807.4 810.7 851.6 809.1 897.5 806 940.3 804.8 975.4 802.4 1017.2 800.1 1025.6 799.8 1026.1 834 954 846 901.8 854.8 849.9 857.2 808.9 858.9 Z" data-holc_grade="B"/>
<path d="M 1179.6 489.5 1178 483.5 1084.3 498.2 1085.8 507.9 1034.5 514.5 1034.2 507.3 980.2 510.1 980.5 499.5 1022.9 499.2 1022.6 482.7 1033 481 1135.4 463.8 1252.2 445.1 1278.4 440.3 1283.3 472.8 1180.7 489.2 1179.6 489.5 Z" data-holc_grade="B"/>
<path d="M 921.7 1683.7 901.2 1676.8 911 1660.5 916.8 1662.3 930 1671.7 921.7 1683.7 Z M 619.5 1348.3 627.1 1491.2 469.7 1499.8 323.2 1508.4 331.8 1650.4 336.4 1747.6 338.4 1789.5 341.5 1839.1 342.5 1849.2 338.9 1873 246.9 1876.1 244.2 1874.8 241.5 1873.5 239 1872.2 236.5 1870.9 234.1 1869.6 231.8 1868.2 229.5 1866.8 227.3 1865.4 225.3 1864 223.4 1862.6 221.4 1861.2 219.4 1859.7 215.8 1856.7 207.7 1850 205.5 1848.2 203.4 1846.6 200.8 1844.8 198.2 1843.1 195.6 1841.6 192.9 1840.2 191 1839.3 189 1838.4 186.9 1837.6 184.8 1836.8 182.6 1836 180.3 1835.2 177.9 1834.5 175.5 1833.8 172.9 1833.2 170.2 1832.5 167.5 1831.9 164.6 1831.3 161.6 1830.8 158.5 1830.2 155.2 1829.7 151.9 1829.2 75.9 1828.3 70.1 1711.6 91 1710.9 76.9 1426.1 97.6 1424.7 92.2 1327.7 136.3 1326 134.6 1278.6 156.4 1277.1 154.9 1228.3 239.8 1224 242.9 1270.8 245.6 1272.3 263.6 1271.6 264.7 1273.5 268.4 1319.3 309.4 1317.4 310.9 1319.9 314 1366.1 556.5 1352 619.5 1348.3 Z" data-holc_grade="B"/>
</g>
<g id="C">
<path d="M 426.8 671.3 425.1 650.5 426.7 648.6 562.4 640.8 688.2 634 689.4 656 654 658.3 576.4 662.2 426.8 671.3 Z M 424 625.2 421.9 589.9 456.4 587.2 523.7 584.3 685.1 575.4 686.9 608.9 631.6 612.4 424 625.2 Z" data-holc_grade="C"/>
<path d="M 1801.6 202.4 1750.3 210.1 1738.5 136.9 1727.6 67 1777.4 59.7 1798.2 56.6 1806.8 55.3 1824.8 52.5 1855.6 47.6 1862 46.4 1873.3 113.4 1890.1 209.5 1824.7 221.7 1821.6 220.2 1818.5 199.8 1801.6 202.4 Z M 1829.9 88.2 1827.1 68.7 1801 72.3 1804.1 93 1829.9 88.2 Z" data-holc_grade="C"/>
<path d="M 2066.9 35.7 2099.3 31.5 2103.2 53 2133.9 49.2 2138 71.9 2155.6 70 2174 186.2 2172.8 188.9 2129.7 196.8 2127.2 194.1 2113.9 113.1 2105.9 103.1 2078.5 107.1 2069.8 51.7 2066.9 35.7 Z" data-holc_grade="C"/>
<path d="M 1441.4 842 1433.3 794.5 1170.4 838.6 1169.4 838.8 1165.3 839.5 1137.9 844.1 1133.4 843.1 1128.9 818.5 1134.3 817.7 1141.6 815.8 1150.6 814.1 1168.4 811.3 1165.8 794 1234.3 790 1233.4 783.7 1235 781.5 1285.3 772.2 1276.7 722 1396.7 702 1398.5 699.7 1383.8 606.9 1385.6 606.6 1422.7 600.2 1424.6 603.1 1449.7 765.6 1461.7 838.9 1441.4 842 Z" data-holc_grade="C"/>
<path d="M 1330.5 1005.1 1163.9 1034 1154.9 972.9 1341.5 942 1348.9 941.3 1350.5 953.1 1330.2 1002.3 1330.5 1005.1 Z M 1495.5 964.9 1467.6 966.1 1442.5 935.9 1439.2 928.7 1424.3 914.7 1452.6 910.5 1499.3 903.1 1520.3 899.6 1529.3 947.5 1529.3 956.6 1501.4 964.7 1495.5 964.9 Z" data-holc_grade="C"/>
<path d="M 1572.5 722.4 1583.5 788.4 1588.4 817.7 1488.8 834 1486.3 821.5 1484.2 807.5 1478.1 766.7 1473.9 738.3 1572.5 722.4 Z M 1501.5 762.9 1507.3 803.7 1566.3 794.1 1567.1 793.6 1560.5 753.5 1501.5 762.9 Z" data-holc_grade="C"/>
<path d="M 238.2 1177.5 239.8 1224 154.9 1228.3 156.4 1277.1 134.6 1278.6 136.3 1326 92.2 1327.7 97.6 1424.7 76.9 1426.1 91 1710.9 70.1 1711.6 61.5 1562.5 43.7 1200.8 109.2 1196.8 108 1171.5 43.5 1173.4 41.4 1172.6 39.1 1092.2 191.2 1082.4 191.7 1129.1 232.4 1129.4 234.5 1130.8 238.2 1177.5 Z" data-holc_grade="C"/>
<path d="M 761 1150.1 651.2 1155.1 649.7 1118.2 747.9 1114.7 880.6 1107.5 881.4 1143.2 761 1150.1 Z M 646.8 1092.9 644.2 1059.3 877.6 1047.2 878.8 1082.2 876.6 1084.1 646.8 1092.9 Z M 1169.2 1081.1 1141.5 1084.1 1128 1087 1112.4 1092.3 1007.2 1128.1 979.3 1137.6 904.6 1141.9 902.4 1106.7 951.9 1104.1 951.3 1079.8 904.9 1081.3 902.6 1079.6 901.6 1045.9 1056.8 1037.4 1079.4 1048.5 1163.9 1034 1162.8 1036.8 1169.2 1081.1 Z" data-holc_grade="C"/>
<path d="M 958.3 1234 899.5 1237.8 900.2 1286.6 879.5 1287.5 881 1334.3 860.5 1335.7 837.5 1316.2 834.5 1316.4 814.4 1306.9 811 1232.2 807.6 1194 764 1196.3 761 1150.1 881.4 1143.2 904.6 1141.9 979.3 1137.6 1007.2 1128.1 1010.8 1185.9 1005.6 1193.4 1003.3 1199.6 998.2 1202.9 993.3 1205.2 986.5 1205.3 982.6 1204.6 978.9 1203.6 974.7 1203.3 970.4 1204.4 965.4 1207.1 962.2 1208.8 958 1212.1 956.6 1216.3 957.6 1226.1 958.3 1234 Z" data-holc_grade="C"/>
<path d="M 1138.6 2134 1140.9 2261.8 1138.7 2264.8 966.3 2267.4 963.7 2269.6 966.7 2456.4 968.3 2483 952.5 2483.2 977 2505.6 1002.3 2527.4 909.2 2528.7 794.4 2528.7 791.7 2473.5 789.8 2410 761.4 2303.2 765.3 2174.8 793.1 2177 799.5 2179.2 852.7 2180.5 923.3 2175.3 972.3 2176.3 973.8 2174.4 971.9 2099.5 1016 2113.5 1057.5 2123.4 1100 2136.1 1101.9 2135.7 1102.2 2124.1 1138.6 2134 Z" data-holc_grade="C"/>
<path d="M 1296.3 1170.3 1275.2 1171.9 1273.7 1174.6 1272 1177.2 1270.2 1179.8 1268.4 1182.3 1266.4 1184.7 1264.3 1187 1262.2 1189.2 1259.9 1191.4 1254.6 1192.3 1249.3 1193 1243.9 1193.6 1238.5 1194 1233.2 1194.3 1227.8 1194.5 1222.4 1194.5 1217 1194.3 1211.6 1194.1 1205.6 1157.3 1196 1157.5 1186.6 1100.8 1172.2 1101.9 1169.2 1081.1 1162.8 1036.8 1163.9 1034 1330.5 1005.1 1333 1027.7 1302.9 1054 1306.9 1081 1307.8 1088.4 1305.8 1096.5 1300.9 1102.7 1297.7 1109.2 1292.7 1121.5 1291.3 1125.9 1287.8 1130 1288.7 1135.9 1289.5 1142.5 1291.5 1147.9 1294 1153.8 1296 1162.2 1296.3 1170.3 Z" data-holc_grade="C"/>
<path d="M 1034.5 514.5 1035.7 538.3 1035.8 539 1041.5 634.1 1041.6 636.2 941.7 642.9 789.1 652.7 788.8 648.2 784.1 563.6 782.1 521.1 803.8 519.8 908.5 514.5 940.4 512.4 967.6 510.7 980.2 510.1 1034.2 507.3 1034.5 514.5 Z" data-holc_grade="C"/>
<path d="M 1381.3 1390.6 1380.1 1399.4 1377.9 1405.1 1374.3 1408.4 1372.9 1408.9 1371.5 1409.4 1370.2 1410 1369 1410.6 1367.9 1411.4 1366.8 1412.1 1365.9 1413 1364.9 1413.8 1364.2 1414.7 1363.5 1415.5 1362.9 1416.4 1362.3 1417.4 1361.8 1418.4 1361.3 1419.5 1360.9 1420.6 1360.6 1421.7 1360.3 1423 1360 1424.3 1359.8 1425.7 1359.6 1427.2 1359.5 1428.7 1359.4 1430.3 1359.4 1431.9 1359.5 1433.7 1359.7 1436.7 1360 1440.1 1360.4 1443.6 1361.5 1452.2 1361.8 1454.6 1362 1456.8 1323.1 1462.9 1320.5 1457.3 1319.1 1456.2 1317.9 1455 1316.8 1453.7 1315.7 1452.3 1314.8 1450.8 1314.1 1449.3 1313.4 1447.7 1312.9 1446 1312.6 1444.3 1312.3 1442.6 1312.3 1440.9 1312.3 1439.2 1312.5 1437.5 1312.9 1435.8 1313.4 1434.2 1314 1432.6 1317.3 1429.9 1320 1428.5 1322.7 1427 1325.3 1425.3 1327.9 1423.6 1330.3 1421.8 1332.7 1419.9 1335 1417.9 1336.6 1415.3 1337.5 1413.5 1338.2 1411.7 1338.9 1409.8 1339.4 1407.8 1339.7 1405.9 1339.9 1403.9 1340 1401.9 1333.4 1386.3 1333.4 1384 1333.5 1381.8 1333.7 1379.5 1334 1377.3 1334.5 1375.1 1335 1372.9 1335.7 1370.7 1336.5 1368.6 1337.4 1366.5 1341.6 1361.3 1343.4 1352.2 1346.2 1343.9 1348 1336.1 1346.8 1329.9 1341.9 1320 1341.9 1305.4 1342.6 1297.9 1341.6 1294.7 1322.9 1282.6 1317.9 1282.6 1312.4 1285.9 1306.7 1286.1 1299.2 1282.6 1291.1 1280.4 1275.8 1280.2 1258.2 1242.4 1257.6 1241 1257 1239.6 1256.6 1238.1 1256.4 1236.6 1256.2 1235.1 1256.3 1233.6 1256.4 1232.1 1256.7 1230.6 1257.2 1229.1 1257.8 1227.7 1258.5 1226.3 1259.3 1225.1 1260.3 1223.9 1281.8 1213 1283.1 1210.7 1284.5 1208.1 1285.7 1205.9 1286.8 1203.1 1288.1 1198.8 1288.2 1198.7 1288.6 1196.8 1289 1195.1 1289.5 1193.3 1290.1 1191.6 1290.8 1189.9 1291.5 1188.2 1292.3 1186.6 1293.1 1185 1294 1183.5 1294.7 1183.8 1298.7 1185.3 1303.4 1185.2 1320.7 1183.8 1323.5 1181.9 1323.3 1175.7 1320.1 1167.9 1319.6 1162.1 1325.2 1150.1 1325.4 1145.6 1326.4 1146.1 1366.9 1143.3 1367.1 1152.9 1363.9 1156.3 1346.5 1165.8 1363.4 1207.3 1374.7 1226.1 1441.5 1221.5 1442 1230.9 1447.3 1312.2 1439.6 1316.5 1423.1 1322 1411.6 1337.7 1410.5 1342.7 1407.1 1349.3 1389.4 1367.9 1382.6 1382.2 1381.3 1390.6 Z" data-holc_grade="C"/>
<path d="M 1438.5 1812.3 1432.8 1843.8 1418.9 1843 1414.4 1840.4 1411 1839.7 1406.9 1841 1403.7 1844.1 1402.6 1847.3 1402.9 1851.4 1382.6 1850.6 1387.3 1924.8 1390.5 1925.4 1492.6 1923.2 1492.8 1925.6 1441.7 1954.5 1435.5 1957.3 1429.3 1960.3 1423.2 1963.4 1417.2 1966.7 1411.3 1970 1405.4 1973.5 1399.6 1977.1 1393.9 1980.9 1388.3 1984.7 1382.7 1988.7 1377.2 1992.8 1371.9 1997 1366.6 2001.3 1361.4 2005.7 1356.3 2010.3 1351.3 2014.9 1346.4 2019.7 1341.6 2024.5 1336.9 2029.5 1332.3 2034.6 1327.9 2039.7 1323.5 2044.9 1319.3 2050.3 1266.4 2050.6 1264.2 2049.1 1262.8 2012.6 1258.3 2009.3 1146.4 2010.5 1146.7 2009.2 1147.1 2005.5 1147.4 2001.7 1147.5 1998 1147.5 1994.2 1147.3 1990.5 1147.1 1986.8 1146.6 1983 1146.1 1979.3 1145.4 1975.7 1144.6 1972 1143.6 1968.4 1142.5 1964.8 1155.6 1964.9 1154.8 1881.6 1154.6 1865.4 1154.4 1834.6 1153.8 1771.1 1155.4 1701.1 1157.1 1699.5 1158.8 1698 1160.7 1696.6 1162.6 1695.3 1164.6 1694.2 1166.6 1693.2 1168.8 1692.3 1170.9 1691.5 1173.2 1690.9 1175.4 1690.4 1177.7 1690.1 1180 1689.8 1182.3 1689.8 1184.6 1689.8 1186.9 1690.1 1189.2 1690.4 1191.4 1690.9 1193.6 1691.5 1195.8 1692.3 1197.9 1693.2 1200 1694.2 1202 1695.4 1203.9 1696.7 1205.7 1698 1207.5 1699.5 1209.1 1701.1 1210.7 1702.8 1212.1 1704.6 1213.4 1706.5 1253.6 1681 1267.1 1695.4 1274.4 1700.1 1275.9 1701.1 1277.5 1702 1279.1 1702.7 1280.8 1703.3 1282.6 1703.8 1284.4 1704.2 1286.1 1704.5 1288 1704.6 1289.8 1704.6 1291.6 1704.4 1293.4 1704.2 1295.1 1703.8 1296.9 1703.3 1298.6 1702.7 1312.2 1688.7 1324.6 1678.1 1327.9 1680.9 1334.9 1690.2 1346.8 1697.5 1364 1706.3 1371.3 1711.2 1376.4 1721.1 1374.6 1753.2 1378.9 1764.6 1386.9 1768.1 1396 1770.4 1405.8 1770.6 1409.9 1771 1413.1 1772.9 1413.5 1776.7 1413.9 1782.1 1430.3 1803.7 1431.5 1806.9 1438.5 1812.3 Z" data-holc_grade="C"/>
<path d="M 1655.3 1907.1 1606.6 1971.3 1591.8 1988.1 1582.2 1981.9 1541.7 2016.6 1515.9 2076.9 1503.7 2102.2 1509.1 2106.3 1501.1 2120.7 1451.1 2202.9 1413.9 2265.5 1376.2 2329.4 1358.9 2351.4 1324.7 2392.7 1302.8 2420.8 1271.4 2441.9 1261.5 2449.5 1156.9 2494.6 1106.5 2447.9 1108.7 2446 1110.5 2446.2 1136.6 2430.2 1160.5 2409.7 1185.1 2382.5 1241.1 2323.6 1247.8 2312.4 1257.6 2283.2 1260.5 2263.8 1262.4 2244.7 1266.3 2220.3 1274.8 2223.3 1304.5 2180.7 1306.5 2177.9 1340.8 2128.5 1394.1 2049.7 1399.9 2047.4 1430.6 2065.5 1467 2085.4 1469.3 2077.8 1493.3 2017.1 1507.7 2001.1 1502.9 1994 1470 1956.1 1474 1952.7 1491.5 1942.8 1512.1 1929.3 1525.2 1918 1534.8 1905.3 1593.3 1881.4 1598.8 1920.6 1600.1 1921.7 1623.6 1915.9 1655.3 1907.1 Z M 1335.7 2197.6 1325.2 2218.7 1299.1 2275.5 1302.9 2279.6 1313.8 2291.9 1367.3 2240.1 1375.2 2236.9 1377.2 2235.3 1375.5 2231.7 1373.2 2219.7 1372.3 2215.8 1368.6 2210.9 1338.3 2195.1 1337.1 2194.5 1335.7 2197.6 Z" data-holc_grade="C"/>
<path d="M 1468.7 2351.6 1459.9 2365.4 1458.7 2365.8 1432.1 2350 1429.1 2350 1426.2 2347 1424.4 2345.9 1421.9 2346.2 1416.7 2352.9 1417.6 2356.3 1433.2 2400.2 1446.2 2429.6 1456.8 2468.9 1451.6 2473.3 1447.7 2478.4 1447.4 2479.2 1447.1 2480 1446.9 2480.8 1446.8 2481.6 1446.7 2482.4 1446.7 2483.1 1446.7 2483.9 1446.8 2484.7 1447 2485.5 1447.2 2486.3 1447.5 2487 1447.9 2487.8 1448.3 2488.5 1448.8 2489.3 1449.4 2490 1450 2490.8 1450.6 2491.5 1451.4 2492.3 1452.2 2493 1453 2493.7 1454 2494.5 1454.9 2495.2 1456 2495.9 1457.1 2496.6 1458.3 2497.3 1459.5 2497.9 1462.1 2499.3 1464.9 2500.6 1467.9 2501.8 1484.7 2503.3 1519.8 2502.9 1529.3 2497 1533.3 2497.1 1536.6 2502.1 1540.9 2514.5 1541.9 2515 1551.9 2511.1 1563.1 2505 1571.9 2498.6 1582.5 2488.5 1594 2475.5 1601.6 2464.4 1603.7 2459.2 1585.8 2420.4 1592.8 2409.1 1596.7 2409.9 1677.9 2436.5 1673 2446.7 1662.7 2481 1656.2 2509.1 1649.1 2526.3 1613.6 2527.5 1465.6 2528.9 1414.1 2527.7 1157.2 2526.5 1302.5 2464.5 1321.8 2440.2 1352.6 2403.9 1375 2379.9 1407.5 2343.1 1418.3 2323.9 1468.7 2351.6 Z" data-holc_grade="C"/>
<path d="M 1676.2 953.6 1543.9 1085.3 1516.3 1107.4 1490.4 1134.9 1485.6 1135.3 1366.9 1143.3 1326.4 1146.1 1325.4 1145.6 1326.3 1143.2 1327.3 1140.8 1328.4 1138.5 1329.7 1136.3 1331.1 1134.1 1332.6 1132 1334.2 1130 1335.9 1128.1 1337.7 1126.2 1339.7 1124.5 1341.7 1122.9 1343.8 1121.4 1346 1120 1348.2 1118.7 1350.5 1117.6 1352.9 1116.6 1355.3 1115.7 1357.8 1115 1360.3 1114.3 1361.6 1113.5 1362.7 1112.5 1363.8 1111.4 1364.7 1110.2 1365.5 1108.9 1366.3 1107.6 1366.9 1106.2 1367.3 1104.8 1367.7 1103.3 1367.9 1101.8 1368 1100.3 1367.9 1098.8 1367.7 1097.3 1367.1 1095.3 1366.7 1093.5 1366.3 1091.7 1366.1 1089.9 1365.9 1088.3 1365.9 1086.6 1366 1085 1366.2 1083.5 1366.5 1082 1366.9 1080.5 1367.4 1079.1 1368 1077.7 1368.8 1076.4 1369.6 1075.2 1370.6 1074 1371.6 1072.8 1372.8 1071.7 1374.1 1070.6 1375.5 1069.6 1377 1068.6 1378.6 1067.7 1380.3 1066.8 1382.1 1066 1384.1 1065.2 1386.1 1064.5 1388.3 1063.8 1390.5 1063.1 1392.9 1062.5 1395.4 1062 1398 1061.5 1400.7 1061.1 1403.5 1060.7 1423.2 1044.4 1439.5 1032.9 1444.8 1030.3 1461.2 1031.7 1465.6 1027.9 1463.5 1013.6 1473.7 1011.1 1497.4 1009.6 1495.5 964.9 1501.4 964.7 1529.3 956.6 1529.3 947.5 1566 945.9 1574.7 944.3 1592.1 943 1593.5 956.6 1597.4 957.8 1638.1 954.6 1668.4 952.3 1676.2 953.6 Z" data-holc_grade="C"/>
<path d="M 1485.6 1135.3 1489.2 1186.7 1664.8 1174.1 1670.6 1242.3 1716 1239 1711.8 1159.1 1734.1 1158.2 1737.1 1197 1760 1196.6 1764.5 1277.6 1763.6 1279 1751.7 1279.6 1759.6 1360.6 1751 1361.5 1755.3 1402 1680.5 1408.1 1674.1 1328.6 1624.1 1332.3 1620.2 1332.6 1535.1 1338.8 1450.7 1345.3 1453.1 1385.9 1381.3 1390.6 1382.6 1382.2 1389.4 1367.9 1407.1 1349.3 1410.5 1342.7 1411.6 1337.7 1423.1 1322 1439.6 1316.5 1447.3 1312.2 1442 1230.9 1441.5 1221.5 1374.7 1226.1 1363.4 1207.3 1346.5 1165.8 1363.9 1156.3 1367.1 1152.9 1366.9 1143.3 1485.6 1135.3 Z M 1651.5 1033.1 1656.7 1085.2 1658.6 1104.1 1660.8 1126.8 1662.3 1142.2 1662.5 1152.3 1528.8 1162.7 1530.5 1158.7 1598.7 1088.5 1651.5 1033.1 Z" data-holc_grade="C"/>
<path d="M 1755.3 1402 1762.2 1465.9 1764.1 1483.7 1762.6 1486.7 1751.3 1488.2 1759.2 1616.9 1760.2 1652.7 1696.6 1656.7 1701.4 1714.7 1691.9 1716.3 1680.3 1717.4 1657.1 1718.7 1652.8 1719.8 1613.4 1692.2 1591.7 1666.4 1572.9 1665.1 1518.6 1668.2 1512.6 1587.5 1557 1584.8 1559 1584.7 1552.6 1502.8 1517.6 1505.6 1466.2 1508.2 1464.8 1505.5 1459.8 1470.4 1458.8 1468.3 1361 1474.8 1359.9 1472.5 1360.3 1471.8 1360.6 1471.1 1360.9 1470.4 1361.2 1469.6 1361.4 1468.8 1361.6 1467.9 1361.8 1467 1362 1466.1 1362.2 1464.1 1362.2 1461.9 1362.2 1459.5 1362 1456.8 1361.8 1454.6 1361.5 1452.2 1360.4 1443.6 1360 1440.1 1359.7 1436.7 1359.5 1433.7 1359.4 1431.9 1359.4 1430.3 1359.5 1428.7 1359.6 1427.2 1359.8 1425.7 1360 1424.3 1360.3 1423 1360.6 1421.7 1360.9 1420.6 1361.3 1419.5 1361.8 1418.4 1362.3 1417.4 1362.9 1416.4 1363.5 1415.5 1364.2 1414.7 1364.9 1413.8 1365.9 1413 1366.8 1412.1 1367.9 1411.4 1369 1410.6 1370.2 1410 1371.5 1409.4 1372.9 1408.9 1374.3 1408.4 1377.9 1405.1 1380.1 1399.4 1381.3 1390.6 1453.1 1385.9 1450.7 1345.3 1535.1 1338.8 1620.2 1332.6 1624.1 1332.3 1674.1 1328.6 1680.5 1408.1 1755.3 1402 Z M 1550.7 1409.3 1552.4 1429.5 1633.1 1422.8 1631 1401.9 1628.8 1402.1 1550.7 1409.3 Z" data-holc_grade="C"/>
<path d="M 2119.3 1905.4 2059.8 1927.3 2029.1 1938.2 2019.2 1943.1 1940 1983.6 1935.8 1982.6 1934.4 1980.3 1928.2 1932 1929 1928.9 1942.8 1924.1 1949.3 1920.5 1967.3 1914 1968.6 1907.2 2012.2 1889.9 2017 1893.7 2056.9 1868.1 2078.6 1854.8 2094.1 1848.6 2119.3 1905.4 Z" data-holc_grade="C"/>
<path d="M 2183.6 2090.8 2180.5 2093.5 2143.1 2106.1 2103.3 2119.6 2063.1 2132.4 2020.3 2009.3 1940.9 2035.6 1925.1 1993.5 1928.1 1989.1 1927.5 1987.3 1935.8 1982.6 1940 1983.6 2019.2 1943.1 2029.1 1938.2 2059.8 1927.3 2119.3 1905.4 2120 1906.8 2126.1 1922.1 2159 2020.5 2183.6 2090.8 Z" data-holc_grade="C"/>
<path d="M 2275.7 2414.7 2277 2414.9 2278.4 2415 2279.8 2415 2281.1 2414.8 2282.5 2414.5 2283.8 2414.1 2285 2413.6 2286.2 2412.9 2287.4 2412.1 2288.4 2411.2 2289.4 2410.3 2290.2 2409.2 2291 2408.1 2291.6 2406.9 2292.1 2405.6 2292.5 2404.3 2292.7 2402.9 2324.3 2412.5 2315 2449.5 2302.6 2479.9 2271.3 2473.3 2265.5 2493.8 2236 2484.7 2205 2475 2213.3 2422.1 2216.4 2422.8 2225.7 2399.3 2233.8 2393.5 2237.5 2394.3 2265.9 2410.6 2275.7 2414.7 Z" data-holc_grade="C"/>
<path d="M 1041.5 634.1 1035.8 539 1035.7 538.3 1089.6 529.1 1105.3 527.4 1107.7 572.1 1111.6 630.3 1041.5 634.1 Z" data-holc_grade="C"/>
<path d="M 2612.8 2002.4 2579.9 2046.5 2542 2019.6 2506.7 2068.2 2389.1 1981.1 2429.7 1843.4 2473.6 1874.7 2511.2 1901.4 2500.6 1918.5 2613.5 2000.1 2612.8 2002.4 Z" data-holc_grade="C"/>
<path d="M 1111.6 630.3 1107.7 572.1 1105.3 527.4 1121.4 524 1121.1 511.5 1180.1 502.7 1180.5 492.8 1179.6 489.5 1180.7 489.2 1283.3 472.8 1288 498.8 1289 503.9 1229.5 513 1200.8 516.7 1136 526.6 1138.2 589.7 1151.7 589.9 1251.2 589.5 1254.3 608.6 1209.1 616.1 1130.5 629.7 1111.6 630.3 Z" data-holc_grade="C"/>
<path d="M 1044.8 705.9 1046.6 740.8 1048.8 742.9 1071.7 738.7 1074.3 738.8 1075.3 741.6 1077.2 751.5 1078.5 753 1080.1 752.7 1120.6 746.6 1131.1 797.6 1133 798.5 1165.6 793 1165.7 793 1165.8 794 1168.4 811.3 1150.6 814.1 1141.6 815.8 1134.3 817.7 1128.9 818.5 1120.3 819.8 1074.4 825.9 1026.1 834 1025.6 799.8 1017.2 800.1 975.4 802.4 940.3 804.8 897.5 806 851.6 809.1 807.4 810.7 797.6 810.3 794.9 749.3 791 683.9 900.5 678 1042.9 668.6 1044.8 705.9 Z" data-holc_grade="C"/>
<path d="M 1539.6 392.8 1550.2 455.6 1537.2 457.9 1532 458.8 1492.1 464.9 1486.5 465.1 1430.2 475.5 1403.7 479.9 1372.4 485.1 1311.6 495.2 1288 498.8 1283.3 472.8 1278.4 440.3 1274.3 411.3 1275.4 408.3 1302 404.2 1399.6 388.2 1439.3 381.4 1474.5 375.3 1497.4 372.2 1503.1 371.4 1504.6 374.8 1506.7 375.2 1508.3 376 1536 371.1 1539.6 392.8 Z M 1505.3 413.8 1499.3 377.7 1498.6 376.6 1440.3 385.4 1446.3 421.7 1447.3 421.9 1505.3 413.8 Z" data-holc_grade="C"/>
<path d="M 1593.6 89.4 1594.5 93.9 1593.3 94.1 1499.7 109.2 1504.7 142 1450.9 150.1 1391.2 159.1 1371.5 162.3 1374 182.4 1508.8 161.1 1540.7 156.3 1539.4 145.3 1601.3 134.7 1605.5 158.7 1506.2 176.2 1516.7 247.8 1451.4 258.9 1446.8 234.7 1369.4 246.6 1313.2 256.1 1309.5 236 1306.4 233.2 1281.4 237.1 1280.5 235.8 1278.1 211.9 1303.7 207.8 1300.2 184.3 1318.9 181.1 1316.1 167.4 1316 161.6 1312.1 137.8 1308.1 112.1 1303.1 72.9 1384.7 59 1399.5 144 1401.6 143.6 1403.7 143.2 1405.8 142.7 1407.8 142 1409.8 141.3 1411.8 140.5 1415.9 139.1 1420 137.6 1424 136 1427.9 134.2 1431.8 132.4 1435.6 130.4 1439.4 128.3 1443.1 126 1446.7 123.7 1450.3 121.2 1453.7 118.7 1457.1 116 1460.4 113.2 1463.6 110.3 1466.7 107.3 1469.7 104.2 1472.6 101 1475.4 97.8 1478.1 94.4 1496.3 103.8 1498.7 103.4 1560.8 94.2 1561.7 92.7 1554 47.1 1585 41.8 1593.6 89.4 Z" data-holc_grade="C"/>
<path d="M 1727.6 67 1738.5 136.9 1719.9 140.3 1641.4 153.2 1605.5 158.7 1601.3 134.7 1593.3 94.1 1594.5 93.9 1593.6 89.4 1634.3 81.7 1704.3 70.2 1725.4 66.8 1727.6 67 Z" data-holc_grade="C"/>
<path d="M 1750.3 210.1 1718.5 216.3 1739.3 356.4 1707.1 360.5 1697.7 307.9 1695.1 306.2 1631.2 315.7 1640 370.5 1647.3 416.1 1649.3 417.8 1704.1 408.4 1714.2 407.6 1718.1 429.8 1635.3 442.1 1620.2 444.9 1617.1 443.5 1612 419.2 1608.3 401.5 1580.9 405 1578.8 405.2 1576.1 404.2 1573.2 387.4 1539.6 392.8 1536 371.1 1528.6 319.6 1593.4 308.5 1585.5 261.8 1583.8 260.3 1521.6 271.7 1516.7 247.8 1506.2 176.2 1605.5 158.7 1641.4 153.2 1719.9 140.3 1738.5 136.9 1750.3 210.1 Z" data-holc_grade="C"/>
<path d="M 719.6 1941.1 775.1 1939.9 771.2 2034.4 743.9 2034.7 721.3 2035.9 724.1 1972.3 719.8 1948.9 719.6 1941.1 Z" data-holc_grade="C"/>
</g>
<g id="D">
<path d="M 1422.7 600.2 1385.6 606.6 1383.8 606.9 1306.1 618.2 1289 503.9 1288 498.8 1311.6 495.2 1372.4 485.1 1403.7 479.9 1405.2 489.7 1422.7 600.2 Z" data-holc_grade="D"/>
<path d="M 1795 1691.6 1859.1 1729.4 1904.3 1734.4 1891.5 1884.4 1846.2 1886.7 1849.8 1841.6 1849.1 1840.3 1812.6 1837.2 1786.2 1836.9 1765.3 1835.2 1752.4 1834.1 1767.5 1745.3 1767.7 1742.5 1767.6 1742.4 1782.7 1714.3 1782.8 1714.3 1795 1691.6 Z M 1794.4 1757.7 1810.8 1767.8 1811.1 1767.2 1826.5 1738 1790.6 1718.5 1790.6 1718.6 1774.3 1746.2 1794.4 1757.7 Z M 1819.4 1767 1818.7 1768.1 1817.1 1770.6 1816.1 1772.3 1815.7 1773.4 1814 1776.3 1812.7 1778.6 1812.2 1780.6 1812 1783.5 1812 1786.6 1812.9 1791.2 1814.9 1795 1819 1799.7 1822.5 1802.3 1824.5 1803.5 1826.3 1804.3 1828.1 1805.1 1829.9 1805.3 1831.7 1805.2 1833.5 1805.1 1835.1 1804.9 1836.9 1804.3 1838.5 1803.5 1840.3 1802.4 1841.8 1800.9 1842.9 1800 1844.4 1798.4 1845.7 1796.6 1846.8 1795.5 1848.6 1792.3 1849.9 1789.8 1851.1 1787.6 1852.4 1784.7 1853.1 1782.2 1853.4 1780.4 1853.6 1778.2 1854 1774.9 1853.9 1772.6 1853.9 1771 1853.1 1768.4 1852.3 1766.2 1851 1763.7 1849.9 1762.2 1848.7 1761 1846.8 1759.7 1845.2 1759 1842.9 1757.9 1840.7 1757.3 1839.1 1757 1837.7 1757 1835.5 1757.1 1833.3 1757.2 1830.8 1757.9 1829.5 1758.6 1828.1 1759.5 1826.8 1760.2 1824.8 1761.5 1823.9 1762.4 1822.9 1763.4 1821.3 1764.7 1820.5 1765.9 1819.4 1767 Z" data-holc_grade="D"/>
<path d="M 1509.1 2106.3 1503.7 2102.2 1515.9 2076.9 1541.7 2016.6 1582.2 1981.9 1591.8 1988.1 1562.9 2021.5 1555.1 2029.9 1519.7 2093.2 1509.1 2106.3 Z M 1754.1 1924 1758.9 1993.2 1805.6 1991.5 1807.4 1988.4 1827 1987.9 1842.2 1984.4 1850.5 1983.4 1905.9 1996.1 1927.5 1987.3 1928.1 1989.1 1925.1 1993.5 1940.9 2035.6 1879.7 2054.9 1860.3 1994 1848.8 1990.8 1847.1 1992.3 1877.6 2091.2 1813.8 2111.9 1812.5 2115.6 1751.6 2134.9 1725.5 2220.9 1694.9 2333.7 1608.6 2313.8 1597.9 2331.4 1556.9 2397.9 1526.1 2388.3 1498.1 2371.1 1468.7 2351.6 1418.3 2323.9 1486.8 2211.3 1531.2 2137.9 1593.8 2034.1 1626.9 2052.2 1655.5 2004.5 1623.7 2003.7 1685.5 1921.4 1703.5 1921.4 1721.5 1922.6 1727.7 1924.4 1754.1 1924 Z" data-holc_grade="D"/>
<path d="M 2098.7 1460.4 1881.5 1479.1 1879.1 1445.4 1863.1 1233.1 1867 1230.9 2018.2 1220.8 2097.6 1215.4 2099 1217.9 2104.1 1294.6 2109.1 1366 2115 1435.7 2097.8 1458.4 2098.7 1460.4 Z" data-holc_grade="D"/>
<path d="M 1881.5 1479.1 2098.7 1460.4 2109 1481.8 2127.7 1474.8 2159.3 1501.1 2146.6 1576.7 2145.6 1576.7 2142.9 1592.8 2112.3 1649.4 2093.2 1728.4 2090.5 1744.7 2091.5 1770.5 2093.7 1807.1 2103.9 1841.5 2098.6 1846.6 2094.1 1848.6 2078.6 1854.8 2056.9 1868.1 2017 1893.7 2012.2 1889.9 1976.8 1860 1948.8 1880.4 1918.1 1882.6 1917.5 1883 1891.5 1884.4 1904.3 1734.4 1859.1 1729.4 1795 1691.6 1794.8 1684.5 1832 1614.4 1882.3 1517.8 1884.2 1516.2 1881.5 1479.1 Z" data-holc_grade="D"/>
<path d="M 2011.8 2347.3 2106.9 2379.3 2185.2 2415.9 2213.3 2422.1 2205 2475 2236 2484.7 2231.7 2497.7 2228.1 2524.4 2042.5 2524.5 1840 2523.8 1836.2 2525.2 1800.9 2525.1 1809.6 2509.1 1819.5 2485.5 1826.7 2469.5 1885.6 2490.7 1915.9 2391.5 1922.6 2367.6 1922.8 2331.2 2006.9 2360.8 2011.8 2347.3 Z" data-holc_grade="D"/>
<path d="M 2107.7 1078.2 2200.3 1073.7 2207.2 1073.7 2214.8 1170.9 2253.9 1168.2 2251.5 1134.5 2268.9 1133.6 2264.5 1069.3 2341.1 1062.1 2343.1 1063.3 2346 1095.5 2365.8 1093.8 2366.5 1095.7 2378.2 1258.9 2340.3 1261.8 2280.3 1265.7 2284.9 1328.3 2284.4 1330 2169.4 1338.5 2159.4 1212.8 2117.1 1215.5 2111.9 1128.6 2107.7 1078.2 Z" data-holc_grade="D"/>
<path d="M 2612.8 2002.4 2613.5 2000.1 2500.6 1918.5 2511.2 1901.4 2473.6 1874.7 2429.7 1843.4 2389.1 1981.1 2387.4 1986.4 2342.8 1977.9 2339.1 1977.2 2313.2 1972.2 2236 1962.9 2224 2021.9 2210.4 2075.1 2148 1893.8 2144.1 1878.9 2133.5 1860.3 2118 1828.1 2110.2 1805.2 2106.8 1788.1 2104.4 1761.1 2204 1730.1 2263.3 1773.1 2298.6 1725.9 2370.9 1777.4 2451.1 1665.2 2564.4 1745.1 2654.5 1808.6 2662.7 1816.3 2665.4 1822.3 2666.1 1826.4 2668.1 1833.6 2675.1 1841.8 2680.4 1846.6 2682.3 1852.9 2683.3 1856.5 2709.9 1877.9 2742.1 1927.2 2911 1991.6 2999 2027.4 2960.6 2080.9 2833.1 2049 2677.6 2015.9 2612.8 2002.4 Z M 2344.8 1934.7 2348.5 1935.2 2353.5 1898.1 2349.3 1898.1 2344.5 1893.3 2351.3 1852.1 2291.3 1842 2280.1 1798.7 2235.9 1821.8 2200.6 1848.8 2253.8 1918.8 2285.5 1924.8 2344.8 1934.7 Z" data-holc_grade="D"/>
<path d="M 2275.7 2414.7 2265.9 2410.6 2237.5 2394.3 2233.8 2393.5 2225.7 2399.3 2216.4 2422.8 2213.3 2422.1 2185.2 2415.9 2106.9 2379.3 2011.8 2347.3 2022.1 2315.7 2017.1 2313.6 2034.5 2258.9 2054.4 2248.9 2091.9 2260.8 2103.7 2224.4 2113.8 2219 2162.7 2246.9 2168 2258.7 2190.6 2250.7 2143.1 2106.1 2180.5 2093.5 2183.6 2090.8 2190.5 2114 2239.1 2131.5 2337.4 2163.2 2354 2129.9 2367 2138.2 2379.9 2146.5 2392.8 2155 2405.5 2163.7 2418.2 2172.4 2430.8 2181.2 2443.4 2190.2 2455.8 2199.2 2468.2 2208.4 2480.5 2217.7 2492.7 2227 2504.8 2236.5 2464.4 2295.3 2463.9 2296.6 2463.4 2297.9 2463.1 2299.1 2462.9 2300.3 2462.8 2301.4 2462.8 2302.6 2462.9 2303.6 2463.1 2304.7 2463.3 2305.5 2463.7 2306.3 2464.1 2307.2 2464.6 2308 2465 2308.8 2465.6 2309.5 2468 2312.7 2468.5 2313.5 2468.9 2314.2 2469.3 2314.9 2469.6 2315.7 2469.8 2316.4 2469.9 2317.1 2469.9 2317.9 2469.9 2318.8 2469.7 2319.6 2469.5 2320.5 2469.1 2321.4 2468.7 2322.3 2468.2 2323.3 2467.5 2324.3 2480.3 2348.1 2469.1 2365.1 2422.2 2291.5 2381.8 2271.5 2352.5 2248.8 2311.9 2301.2 2277.1 2323.7 2273.2 2342.8 2292.4 2397.5 2292.7 2398.9 2292.8 2400.2 2292.9 2401.6 2292.7 2402.9 2292.5 2404.3 2292.1 2405.6 2291.6 2406.9 2291 2408.1 2290.2 2409.2 2289.4 2410.3 2288.4 2411.2 2287.4 2412.1 2286.2 2412.9 2285 2413.6 2283.8 2414.1 2282.5 2414.5 2281.1 2414.8 2279.8 2415 2278.4 2415 2277 2414.9 2275.7 2414.7 Z" data-holc_grade="D"/>
<path d="M 1452.6 910.5 1424.3 914.7 1355.5 924.8 1353.9 916.3 1171.6 946.3 1153.6 949.2 1148.4 915 1315.6 887.4 1405.9 872.7 1401.3 844.5 1398.7 827.3 1373.9 831.5 1376.7 849.9 1212.5 877.3 1143.8 888.4 1140.2 866 1166.5 861.8 1168.1 859.5 1165.3 839.5 1169.4 838.8 1170.4 838.6 1433.3 794.5 1441.4 842 1452.6 910.5 Z M 1269.4 855.8 1265.7 835.1 1172.5 852.1 1172 852.4 1175.8 872.2 1269.4 855.8 Z" data-holc_grade="D"/>
<path d="M 1572.5 722.4 1473.9 738.3 1473 738.4 1452.4 613.6 1448.8 591 1446.4 576 1445.1 568.2 1442.5 552.1 1430.2 475.5 1486.5 465.1 1492.1 464.9 1532 458.8 1537.2 457.9 1543.6 496.3 1580.3 721.1 1572.5 722.4 Z M 1444.5 551.8 1447.5 567.9 1462.2 565.7 1459.6 549.2 1444.5 551.8 Z M 1529.5 562.2 1489.2 568.3 1470.3 571.7 1473.3 587.3 1532.1 578.4 1529.5 562.2 Z M 1580.9 405 1583.5 423.8 1612 419.2 1617.1 443.5 1620.2 444.9 1635.3 442.1 1718.1 429.8 1739.2 552.9 1749.2 620.4 1685.6 631.3 1693.3 677.9 1753.9 668.7 1763.6 730.9 1773.5 787.6 1756.2 792 1619.3 813 1603.9 715.1 1563.7 456.4 1550.2 455.6 1539.6 392.8 1573.2 387.4 1576.1 404.2 1578.8 405.2 1580.9 405 Z" data-holc_grade="D"/>
<path d="M 1676.2 953.6 1668.4 952.3 1638.1 954.6 1597.4 957.8 1593.5 956.6 1592.1 943 1574.7 944.3 1566 945.9 1529.3 947.5 1520.3 899.6 1499.3 903.1 1488.8 834 1588.4 817.7 1596.4 816.8 1602.2 851.2 1583.9 854.1 1588.8 879.9 1568 884.2 1570.3 899 1671.4 880.9 1669.8 867.1 1629.4 873.2 1623.7 840.7 1619.3 813 1756.2 792 1773.5 787.6 1784.1 847.9 1764.5 865.6 1758.2 876.5 1722.1 911.4 1714.7 918.5 1692.5 938.7 1683.7 946.7 1676.2 953.6 Z M 1691 880.1 1696.8 919.9 1712.1 918.7 1721.7 908 1717.9 876.1 1691 880.1 Z M 1664.4 931.7 1666.2 948.4 1681.5 946.9 1692.2 936.6 1691 927.5 1664.4 931.7 Z" data-holc_grade="D"/>
<path d="M 1801.6 202.4 1818.5 199.8 1821.6 220.2 1824.7 221.7 1890.1 209.5 1873.3 113.4 1862 46.4 1855.6 47.6 1824.8 52.5 1806.8 55.3 1798.2 56.6 1777.4 59.7 1727.6 67 1720.7 19.5 1840.4 1 1975.9 116 1997.3 236 2012.8 334.8 1981.9 339.5 1978.5 342.2 1981.2 362.1 1951.8 367.1 1950 369.3 1952.1 390.5 1839.9 409.4 1835.3 409.3 1834.5 407.7 1809.3 252 1801.6 202.4 Z" data-holc_grade="D"/>
<path d="M 1002.3 2527.4 977 2505.6 952.5 2483.2 968.3 2483 966.7 2456.4 963.7 2269.6 966.3 2267.4 1138.7 2264.8 1140.9 2261.8 1138.6 2134 1168.9 2142.3 1172.7 2143.8 1266.9 2141.9 1268.2 2160.5 1245.1 2207.4 1246 2210.5 1266.3 2220.3 1262.4 2244.7 1260.5 2263.8 1257.6 2283.2 1247.8 2312.4 1241.1 2323.6 1185.1 2382.5 1160.5 2409.7 1136.6 2430.2 1110.5 2446.2 1108.7 2446 1106.5 2447.9 1156.9 2494.6 1127.7 2525.7 1002.3 2527.4 Z" data-holc_grade="D"/>
<path d="M 1580.6 1839.6 1581 1843.4 1589.7 1842.6 1592.6 1847.5 1593.1 1858.4 1595.1 1862 1596.3 1865.3 1596.9 1867.9 1595.6 1871.5 1593.7 1874.4 1593.3 1881.4 1534.8 1905.3 1525.2 1918 1512.1 1929.3 1491.5 1942.8 1474 1952.7 1470 1956.1 1455.3 1968.9 1441.7 1954.5 1492.8 1925.6 1492.6 1923.2 1390.5 1925.4 1387.3 1924.8 1382.6 1850.6 1402.9 1851.4 1402.6 1847.3 1403.7 1844.1 1406.9 1841 1411 1839.7 1414.4 1840.4 1418.9 1843 1432.8 1843.8 1438.5 1812.3 1439.5 1809.9 1440.8 1791.3 1443.7 1790.9 1458.4 1795.9 1465.9 1799.1 1472 1804.2 1479.9 1804.4 1488.1 1803.1 1497 1800.7 1501.8 1800 1507.7 1796.7 1510.9 1794.6 1513.3 1792.7 1513.1 1790.1 1511.7 1788.4 1510 1788.1 1508 1785.2 1506.2 1759.5 1526.1 1745.6 1577.2 1797.1 1580.6 1839.6 Z" data-holc_grade="D"/>
<path d="M 1768.5 1652.8 1760.2 1652.7 1759.2 1616.9 1751.3 1488.2 1762.6 1486.7 1764.1 1483.7 1762.2 1465.9 1755.3 1402 1751 1361.5 1759.6 1360.6 1751.7 1279.6 1763.6 1279 1764.5 1277.6 1760 1196.6 1737.1 1197 1734.1 1158.2 1711.8 1159.1 1710.4 1145.6 1706.1 1139.8 1703.2 1140.1 1662.3 1142.2 1660.8 1126.8 1658.6 1104.1 1697.7 1095.2 1696.5 1082.5 1694 1082.4 1656.7 1085.2 1651.5 1033.1 1679.9 1002.9 1724.5 956.5 1758.7 924.5 1761 916.1 1778.6 902.1 1781.9 902.3 1783.8 925.8 1786.5 947.9 1790.8 1013.2 1792 1024.5 1792.1 1025.5 1793.9 1043.5 1797.1 1084.5 1800.1 1121.2 1798.8 1139.4 1805.2 1227.5 1811.2 1327.2 1820.7 1439.1 1800.1 1440.2 1805.7 1517.6 1792.2 1565.6 1787.3 1590.5 1768.5 1652.8 Z M 1768.1 1028.1 1768.8 1026.5 1786.6 1025.7 1786.6 1024.8 1784.9 1012.6 1783.5 993.3 1781.9 993.4 1765.3 994.3 1764.5 995.7 1749.5 996.3 1749.3 997.3 1751.2 1028.5 1759.5 1028.8 1768.1 1028.1 Z M 1766.5 988.9 1768.1 987.1 1781.2 986.1 1783 985.8 1782.4 974 1765.2 974.2 1764.4 975.6 1753.3 976.3 1747.2 976.5 1748.8 987.9 1750.3 989.5 1766.5 988.9 Z" data-holc_grade="D"/>
<path d="M 1655.3 1907.1 1623.6 1915.9 1600.1 1921.7 1598.8 1920.6 1593.3 1881.4 1593.7 1874.4 1595.6 1871.5 1596.9 1867.9 1596.3 1865.3 1595.1 1862 1593.1 1858.4 1592.6 1847.5 1589.7 1842.6 1581 1843.4 1580.6 1839.6 1633.8 1797.2 1666.4 1770.8 1668.2 1767.5 1671 1757.9 1671.2 1750 1667.3 1737 1666.6 1732.7 1652.8 1719.8 1657.1 1718.7 1680.3 1717.4 1691.9 1716.3 1701.4 1714.7 1696.6 1656.7 1760.2 1652.7 1768.5 1652.8 1749.9 1712.9 1726.3 1812.5 1708.4 1838.7 1655.3 1907.1 Z" data-holc_grade="D"/>
</g>
</svg>