<?xml version="1.0"?>
<svg xmlns="http://www.w3.org/2000/svg" version="1.2" baseProfile="tiny" width="3000" height="3320" viewBox="0 0 3000 3320" stroke-linecap="round" stroke-linejoin="round">
<g id="A">
<path d="M 972.5 565.4 973.9 565.4 974.1 565.7 982.8 577.1 1026.8 635.6 1086.9 700.4 1103 717.8 1146.4 769 1209.6 843.6 1218.9 854.2 1290.1 936.3 1292 943.1 1292 943.3 1292.2 944 1290.9 943.9 1283.4 942.8 1276.4 941.9 1139 922.9 936.3 902.5 893.1 897.4 862 893.7 858.5 893.3 794.4 885.6 787.3 883.5 791.6 862.4 792.3 839.3 820.5 814 829.7 786.6 820.5 774.6 800.1 764.1 784.5 765.5 787.4 745.8 807.8 724.7 827.6 698.8 826.9 682.6 801.5 675.6 769 672 723.8 668.5 673 659.4 598.1 650.2 555.8 650.2 554.3 709.9 543.7 793.5 529.6 858.8 442 859.5 382.7 811 326.9 777.3 309.3 792 252.1 789.2 179.4 744.2 154.6 744.2 144 737.8 89 746.9 81.9 737.8 61.4 741.3 31.8 716 8.6 433.6 1 281.5 52.5 226.7 219.2 347.7 127.9 449.3 189.8 450.2 197.5 456.1 302.8 460.6 481.7 467.9 514.2 467.9 534.6 457.1 550.4 459.8 556.7 539.9 709 550.3 809.7 560.2 892.1 562.2 971 565.3 972.2 565.4 972.5 565.4 Z" data-holc_grade="A"/>
<path d="M 2001.2 798.8 2003.3 858 1935.4 854.9 1928.1 936.9 1779.9 933.8 1774.7 946.3 1732.9 945.2 1735 1088.6 1633.8 1088.6 1630.6 1073 1632.2 953.5 1628.2 619.4 1709.2 614.4 1887 608.5 1896 495.1 1783.3 499 1780.7 367.4 1772.9 279.8 1771.4 282 1773.4 263.2 1770.2 120.1 1776.5 106.9 1779.2 77.8 1764 76.1 1764.1 74.1 1966.6 76.1 1968.7 191.3 1990.6 189.3 1993.7 213.1 1980.2 259.9 1990.6 280.6 1984.4 299.3 1983.3 347.1 1933.2 402.1 1915.5 470.7 1920.7 494.5 2048.1 497.6 2042.9 603.5 1999 615 1995.9 713.6 1898.9 711.6 1902 798.8 1998 798.8 2001.2 798.8 Z" data-holc_grade="A"/>
</g>
<g id="B">
<path d="M 1283.4 942.8 1284.5 949.1 1287.7 993.4 1292 1029.7 1296.1 1055.6 1290.3 1055.3 1288.2 1055 1251.5 1050.9 1226.1 1049.8 1189.9 1043.7 1155.2 1038.6 1108.8 1034.2 1030.5 1027.6 985.2 1026.5 986.6 1022.1 989.7 1012.2 1009.5 999.1 1011.7 988.1 995.2 994.7 972 987 962.1 974.9 945.5 963.9 921.3 958.4 905.8 943.1 904.7 926.6 893.7 910.1 893.1 897.4 936.3 902.5 1139 922.9 1276.4 941.9 1283.4 942.8 Z" data-holc_grade="B"/>
<path d="M 1109 2202.7 1223.6 2214.9 1360.5 2221.5 1323.2 2271.9 1202.8 2432.1 1122.8 2535.4 1085.8 2583.2 986.9 2721.1 879.9 2725.2 898.1 2625.3 909 2492.3 911.5 2359.4 1107.4 2202.5 1109 2202.7 Z" data-holc_grade="B"/>
<path d="M 1914.9 2250.1 1915 2250.1 1991.4 2266.4 1987.2 2234.7 2056.9 2237.8 2133.3 2239.2 2133.9 2194.8 2133.3 2181.4 2134.1 2181.4 2134.1 2180.2 2140.7 2179.3 2217.2 2180.4 2375.2 2178.6 2595.1 2177.2 2638.1 2177 2730 2170.9 2728.5 2478.1 2706.6 2479.9 2701.5 2480.3 2698.6 2480.6 2695.2 2471.8 2694.5 2469.8 2567.4 2471.9 2541.7 2472.4 2537.7 2645.8 2534.4 2645.7 2334.3 2637.6 2333.4 2577.3 2297.7 2572.4 2295.2 2550.9 2265.3 2552.6 2262 2569.1 2051.2 2547.7 2011.3 2386.6 1914.5 2361.6 1905.9 2359.4 1914.9 2250.1 Z" data-holc_grade="B"/>
<path d="M 2486.4 180.1 2486.4 183.4 2482.6 189.9 2472.1 203 2466.7 218.6 2460.6 251.4 2447.7 279.8 2433.7 294.7 2418.8 320 2410.7 332.2 2407.6 331.8 2400.5 314.6 2392.6 309.2 2377.7 298.1 2367.2 284.2 2353.6 267.3 2337.6 259.9 2322.1 257.6 2304.5 262.4 2285.8 268.7 2272.1 272.8 2250.6 282.3 2235.8 288.6 2222.1 290.3 2206.1 302.2 2188.5 313 2178.6 320.8 2172.9 340.7 2169.8 378.2 2166.4 379.2 2163.8 376.8 2148.4 362.3 2129.7 345.8 2124.3 325.5 2102.5 298.5 2079.1 281.2 2047.2 288 2025.8 282.9 2020.7 264 2020 197.8 2007.4 178.5 2008.7 154.5 2015.9 126.5 2004.3 127.8 1999.6 107.5 1994.1 87.6 1985.3 63.6 1978.2 42.3 1959.5 11.6 1963.9 8.9 1975.1 6.8 2194.5 4.4 2311.4 2.7 2333.1 1 2336.2 18.6 2366.4 19.9 2488.3 17.8 2487.7 36.8 2487.4 140.2 2486.4 180.1 Z" data-holc_grade="B"/>
<path d="M 1900.7 2170.2 1890.1 2163.7 1859.4 2156.3 1843.6 2151.3 1819.5 2137.3 1802.1 2127.4 1795.5 2108.4 1791.3 2090.2 1783 2080.3 1771.4 2077.8 1742.3 2073.7 1729.1 2045.6 1732.4 2019.2 1721.6 2001 1731.2 1986.4 1735.7 1979.6 1758.9 1964.7 1767.2 1954 1782.2 1950.7 1805.4 1944.1 1813.7 1942.2 1842.2 1933.2 1853.6 1929.7 1857.6 1932 1862.7 1930.8 1868.2 1963.1 1874.6 1981.9 1881.6 2007 1882.6 2010.1 1882.9 2011.9 1890 2037.1 1901.7 2080.4 1902.5 2082.8 1915 2124.9 1927.4 2174.4 1920 2174.4 1900.9 2170.3 1900.7 2170.2 Z M 1442.1 421.9 1442.1 478.4 1443.8 552.3 1444.5 610.5 1446.9 616.3 1598.8 621.2 1628.2 619.4 1632.2 953.5 1630.6 1073 1633.8 1088.6 1735 1088.6 1732.9 945.2 1774.7 946.3 1779.9 933.8 1928.1 936.9 1933.3 942.1 1928.2 950.9 1915.6 972.2 1880.1 1014.8 1865.8 1036.4 1864.5 1053.9 1873 1069.6 1894.4 1097.3 1899.8 1142.4 1902.1 1161.5 1901.5 1192.6 1900.8 1223.6 1911.1 1253.8 1924.8 1278.1 1934.2 1302.8 1945.3 1333 1945.7 1371.1 1945.8 1385.7 1956.5 1406.1 1931.2 1413.8 1906.4 1427 1885.5 1430.8 1872.6 1453.9 1861.1 1473.4 1807.7 1484.4 1787.7 1460.9 1761.3 1436.4 1702.9 1436.4 1672.1 1435.3 1617.2 1386 1594.6 1366.9 1569.1 1328 1556.8 1288 1555.8 1245.1 1553.7 1231.4 1544.6 1229.2 1518 1199.2 1447 1118.9 1363 1024 1299.7 952.4 1292.2 944 1292 943.3 1292 943.1 1290.1 936.3 1218.9 854.2 1209.6 843.6 1146.4 769 1103 717.8 1086.9 700.4 1026.8 635.6 982.8 577.1 974.1 565.7 973.9 565.4 972.5 565.4 853.1 428.5 843.2 285.5 1057.1 283.4 1048.9 212.7 1065.3 212.7 1056.2 76.8 1253.8 78.7 1255.6 181 1316.7 183.8 1315.7 251.7 1446.9 251.7 1442.1 421.9 Z" data-holc_grade="B"/>
<path d="M 2453.5 1219.1 2450 1219.1 2449.1 1268.6 2435.9 1307.4 2425.1 1319.8 2425.4 1326.7 2424.3 1344.5 2422.6 1362.7 2354.6 1352.8 2257.2 1349 2256.7 1345.6 2131.1 1346.3 2129.1 1344.2 2138 1285.2 2074.8 1281.8 2064.8 1281.3 2064.1 1281.3 2060.9 1281.1 2079.9 1220 2113.7 1130 2115.6 1125.1 2138 1070.6 2157.9 1001.2 2191.9 944.3 2247.5 863.6 2302.2 783.3 2355.3 715.1 2381.8 681.8 2417.4 632.2 2418.4 567.7 2416.3 553.5 2419.4 553.6 2465.3 555.3 2472.5 555.6 2463 643.2 2454.6 767.9 2451.9 866.7 2446.1 914.2 2387.2 916.9 2364.4 910.6 2350 926.9 2347.9 977.1 2340 1003 2324 1018.3 2314.5 1037.3 2297.5 1045.3 2284.2 1053.7 2282.7 1074.9 2276.8 1081.2 2260.9 1088.6 2234.9 1089.1 2204.6 1105 2182.3 1137.8 2170.6 1162.6 2169.6 1177.9 2233.8 1174.7 2305.5 1176.8 2353.8 1174.2 2428.7 1180.5 2449.4 1179.9 2453.5 1219.1 Z" data-holc_grade="B"/>
<path d="M 1764 76.1 1779.2 77.8 1776.5 106.9 1770.2 120.1 1773.4 263.2 1771.4 282 1758.6 301.7 1733.1 340.8 1720.7 384.3 1705.4 416.3 1696 416.7 1666.7 417.9 1631.2 420.5 1629 417.4 1628.5 334.5 1626.9 231.5 1629 191.9 1557.3 192.9 1446.9 192.4 1446.4 153.9 1454.4 148.1 1458.1 76.2 1631.1 75.7 1755.8 75.2 1764 76.1 Z" data-holc_grade="B"/>
<path d="M 2472.5 555.6 2465.3 555.3 2419.4 553.6 2417.9 551.8 2398.1 500.3 2368.7 500.3 2230.8 502.9 2218.7 494.3 2184.2 463.5 2164.4 436.9 2163.5 395.7 2163.8 376.8 2166.4 379.2 2169.8 378.2 2172.9 340.7 2178.6 320.8 2188.5 313 2206.1 302.2 2222.1 290.3 2235.8 288.6 2250.6 282.3 2272.1 272.8 2285.8 268.7 2304.5 262.4 2322.1 257.6 2337.6 259.9 2353.6 267.3 2367.2 284.2 2377.7 298.1 2392.6 309.2 2400.5 314.6 2407.6 331.8 2410.7 332.2 2418.8 320 2433.7 294.7 2447.7 279.8 2460.6 251.4 2466.7 218.6 2472.1 203 2482.6 189.9 2486.4 183.4 2486.4 180.1 2488.9 179.1 2517.6 157.2 2561.8 154.9 2573.9 148.9 2583.3 147.2 2588.8 152.2 2656.7 150.5 2652.3 213.1 2614.8 234.5 2586.6 259.8 2577.3 279.6 2881.3 273.4 2909.5 390.9 2884.7 392 2875.4 486.4 2999 488.5 2985.2 517.6 2811.4 555.1 2721.5 556.5 2651.2 553.4 2511 557.3 2472.5 555.6 Z" data-holc_grade="B"/>
</g>
<g id="C">
<path d="M 1288.2 1055 1300.9 1073.3 1313.1 1124.1 1320.4 1165.1 1320.4 1189.8 1300.9 1189.8 1241.2 1182.1 1191.1 1176.3 1152.2 1174 1110.2 1167.3 1076.3 1164.6 1076.3 1133.6 1006.2 1122.8 914 1117.3 811.4 1102.9 746.3 1096.6 742.7 1129.4 728.6 1227.5 724.1 1278.3 712.8 1352.9 707.3 1411.9 702.8 1451.4 759.3 1458.6 857 1468.1 922.5 1474.4 1012 1486.1 1125.5 1496.5 1225.8 1508.2 1336.7 1515.3 1343 1521.7 1325.4 1543.4 1324 1560.3 1326.8 1589.1 1323.3 1625.7 1316.9 1655.2 1312 1698.8 1299.9 1698.8 1219.4 1687.5 1167.1 1681.9 1097.2 1672 1052 1667.8 1012.4 1660.8 928.4 1648.8 893.1 1648.1 846 1641.4 817.3 1632.6 780.9 1635.9 692.6 1618.3 635.2 1614.9 640.4 1516.1 640.8 1509.5 661.8 1511.7 655.2 1260.3 654.2 1080.2 662 876 792.2 890.3 826.8 895.3 822.3 901 831.8 907.3 840.4 915.9 847.2 937.4 847.6 960.8 864.3 986.5 878.8 1012.5 895.5 1030.5 910.4 1038.6 927.6 1037.7 974.6 1028.8 986.6 1022.1 985.2 1026.5 1030.5 1027.6 1108.8 1034.2 1155.2 1038.6 1189.9 1043.7 1226.1 1049.8 1251.5 1050.9 1288.2 1055 Z" data-holc_grade="C"/>
<path d="M 2565.3 1223.3 2571.1 1223.6 2576.1 1224 2574.5 1317.2 2563.7 1322.2 2556.1 1324.9 2552.5 1326.2 2508.9 1342 2472.4 1348.6 2422.6 1362.7 2424.9 1335.6 2425.4 1326.7 2425.1 1319.8 2435.9 1307.4 2449.1 1268.6 2450 1219.1 2453.5 1219.1 2511.4 1219.9 2565.3 1223.3 Z" data-holc_grade="C"/>
<path d="M 1620.8 1448.3 1612.6 1449 1593.5 1435.8 1563.7 1405.2 1537.2 1367.7 1514.9 1325.4 1505.9 1282.6 1518.6 1249.8 1540.9 1228.7 1544.6 1229.2 1553.7 1231.4 1555.8 1245.1 1556.8 1288 1569.1 1328 1594.6 1366.9 1608.3 1377.7 1617.2 1386 1672.1 1435.3 1648.2 1445.8 1620.8 1448.3 Z" data-holc_grade="C"/>
<path d="M 1628.2 619.4 1598.8 621.2 1446.9 616.3 1444.5 610.5 1443.8 552.3 1442.1 478.4 1442.1 421.9 1485.6 422.2 1562.1 423.3 1625.6 426.6 1630 426.4 1628 555.8 1704.7 417.6 1705.4 416.3 1720.7 384.3 1733.1 340.8 1758.6 301.7 1771.4 282 1772.9 279.8 1780.7 367.4 1783.3 499 1896 495.1 1887 608.5 1709.2 614.4 1628.2 619.4 Z" data-holc_grade="C"/>
<path d="M 2113.7 1130 2079.9 1220 2060.9 1281.1 2064.1 1281.3 2064.8 1281.3 2059.5 1314.6 2059.5 1315.1 2055.5 1340.7 2050.1 1350.8 2050.1 1368.6 2050.1 1384.4 2036.3 1397.9 2032.6 1401.4 2069.8 1440.1 2027 1504.8 1996.3 1545.3 1980.4 1568.9 1969.4 1580.4 1936 1549.9 1886.8 1498 1861.1 1473.4 1872.6 1453.9 1885.5 1430.8 1906.4 1427 1931.2 1413.8 1956.5 1406.1 1945.8 1385.7 1945.7 1371.1 1945.3 1333 1934.2 1302.8 1924.8 1278.1 1911.1 1253.8 1900.8 1223.6 1901.5 1192.6 1902.1 1161.5 1899.8 1142.4 1894.4 1097.3 1873 1069.6 1864.5 1053.9 1865.8 1036.4 1880.1 1014.8 1915.6 972.2 1928.2 950.9 1933.3 942.1 1928.1 936.9 1935.4 854.9 2003.3 858 2001.2 798.8 2001.5 795.3 2095.3 796.9 2070.9 848.8 2148.8 854.3 2132.5 867.5 2086.4 902 2080.4 924.1 2087.6 941.1 2085.9 966.6 2059.9 977.7 2060.3 1004.1 2045.8 1019.8 1973.9 978.1 1937.6 1027.9 1956.8 1044.5 2024.4 1070.9 2020.1 1090.9 1990.6 1114.7 1995.8 1121.5 2014.1 1121.5 2030.8 1099.8 2078.7 1106.2 2118.5 1113 2113.7 1130 Z" data-holc_grade="C"/>
<path d="M 1109 2202.7 1107.4 2202.5 911.5 2359.4 909 2492.3 898.1 2625.3 879.9 2725.2 986.9 2721.1 1085.8 2583.2 1122.8 2535.4 1134 2537.2 1183.4 2541.9 1188.1 2551.9 1180.8 2716.1 1214.2 2716.1 1396.7 2717.5 1603.9 2712.8 1783 2719.9 1826.2 2722.9 1841.2 2728.8 1859.2 2731.4 1865.6 2658.6 1845.4 2599 1793.2 2524.1 1764.6 2471.3 1775 2417.5 1900.7 2452.1 1905.9 2359.4 1914.5 2361.6 2011.3 2386.6 2051.2 2547.7 2262 2569.1 2264.4 2577.7 2262.4 2730.7 2272.5 2730 2271.2 2839.1 2339.4 2848.4 2473.8 2860.3 2477.1 2942.8 2753.9 2944.7 2796.8 3036.4 2711.8 3033.2 2707.8 3054.4 2645.7 3054.5 2381.6 3053.3 2376.3 3206.9 2416.4 3292.7 2361.6 3296.1 2370.3 3314.7 2351.6 3318.7 2138.9 3307.5 1791.2 3294.9 1527.7 3286.2 1526.4 3223.7 1271 3229 1125.9 3228.3 861.1 3232.3 626.4 3237.5 587.6 3294.1 463.2 3276 153.6 3259.3 149.6 3201.4 282.1 3035.2 286.8 3033.8 294.1 3043.1 465.3 2828.3 470.1 2822.4 502.2 2821.1 502.4 2828.4 503.5 2869.6 861.8 2893.7 875.2 2863.1 869.9 2817.2 692 2795.2 700.1 2695.4 535 2680.1 549.8 2387.4 414.8 2376.1 108.6 2357.3 97.4 2189.7 94.2 1916.4 100.3 1914.7 184.4 1890.5 208.5 1879.9 404.8 1830 657.3 1772.6 704.5 1761.8 815.2 1736.7 814.9 1740.6 803.6 1902.9 991.6 1922.7 965.4 2186.6 1106.4 2200.1 1109 2202.7 Z" data-holc_grade="C"/>
<path d="M 1850.5 1852.2 1848.3 1856.3 1876.6 1869.1 1922.8 1898.4 1954.4 1925.7 1963.4 1951.2 1963.8 1970.4 1995.9 1986.5 2043.4 2011.2 2114.8 2010.8 2175.6 2013.3 2204.2 2021.4 2246.2 2026 2295.4 2027.3 2360.8 2026 2440.4 2023 2448 1924.7 2541.3 1925.5 2626.8 1915.2 2640.9 1916.9 2638 2014.8 2715.8 2071 2712 2126.7 2761.6 2130.9 2780 2135.6 2824 2175.9 2831.1 2184.4 2827.8 2281.5 2825.2 2457.8 2828.6 2598.8 2825.4 2735.1 2722.4 2740.5 2540.6 2733.2 2534.4 2645.7 2537.7 2645.8 2541.7 2472.4 2567.4 2471.9 2694.5 2469.8 2695.2 2471.8 2698.6 2480.6 2701.5 2480.3 2706.6 2479.9 2728.5 2478.1 2730 2170.9 2638.1 2177 2595.1 2177.2 2375.2 2178.6 2217.2 2180.4 2140.7 2179.3 2134.1 2180.2 2134.1 2181.4 2133.3 2181.4 2133.9 2194.8 2133.3 2239.2 2056.9 2237.8 1987.2 2234.7 1991.4 2266.4 1915 2250.1 1914.9 2250.1 1909.9 2311.4 1908.1 2311.1 1843.2 2296.5 1841.9 2268.5 1863.3 2240.6 1863.3 2200.7 1894 2177.4 1900.7 2170.2 1900.9 2170.3 1920 2174.4 1927.4 2174.4 1915 2124.9 1902.5 2082.8 1901.7 2080.4 1890 2037.1 1882.9 2011.9 1882.6 2010.1 1881.6 2007 1874.6 1981.9 1868.2 1963.1 1862.7 1930.8 1857.6 1932 1853.6 1929.7 1842.2 1933.2 1813.7 1942.2 1805.4 1944.1 1782.2 1950.7 1767.2 1954 1758.9 1964.7 1735.7 1979.6 1731.2 1986.4 1712.2 2000.6 1700.1 2011.9 1601.9 1970.7 1603.8 1961.4 1609.9 1932.1 1638 1864.3 1666.9 1812.9 1699.5 1755.2 1769 1781.2 1798.4 1783.1 1813.1 1797.1 1831.8 1855.6 1850.5 1852.2 Z" data-holc_grade="C"/>
</g>
<g id="D">
<path d="M 1630 426.4 1630.1 420.6 1631.2 420.5 1666.7 417.9 1696 416.7 1705.4 416.3 1704.7 417.6 1628 555.8 1630 426.4 Z" data-holc_grade="D"/>
<path d="M 2824 2175.9 2780 2135.6 2761.6 2130.9 2712 2126.7 2715.8 2071 2638 2014.8 2640.9 1916.9 2626.8 1915.2 2541.3 1925.5 2448 1924.7 2440.4 2023 2360.8 2026 2295.4 2027.3 2246.2 2026 2204.2 2021.4 2175.6 2013.3 2114.8 2010.8 2043.4 2011.2 1995.9 1986.5 1963.8 1970.4 1963.4 1951.2 1954.4 1925.7 1922.8 1898.4 1876.6 1869.1 1848.3 1856.3 1850.5 1852.2 1868 1818.9 1901.4 1782.7 1942.4 1747.4 2016.4 1806.5 2029.7 1801.8 2045.1 1780.5 2053.6 1761.8 2068.3 1710 1930.7 1674.1 1928 1623.6 1969.4 1580.4 1980.4 1568.9 1996.3 1545.3 2027 1504.8 2069.8 1440.1 2032.6 1401.4 2036.3 1397.9 2050.1 1384.4 2050.1 1368.6 2050.1 1350.8 2055.5 1340.7 2059.5 1315.1 2059.5 1314.6 2064.8 1281.3 2074.8 1281.8 2138 1285.2 2129.1 1344.2 2131.1 1346.3 2256.7 1345.6 2257.2 1349 2258 1354.2 2258.7 1404.1 2351.6 1407.4 2455.8 1409.3 2601.5 1400.6 2546 1370.1 2552.5 1326.2 2556.1 1324.9 2563.7 1322.2 2574.5 1317.2 2576.1 1224 2571.1 1223.6 2565.3 1223.3 2578.2 1204.7 2579 1149.8 2583.3 1140.5 2651.7 1140 2660.2 1143.4 2706.9 1157.4 2715.8 1147.2 2758.2 1147.2 2838.2 1260.7 2833.9 1345 2833.6 1485 2759.6 1460.7 2762.2 1580.3 2858.9 1579.8 2863.2 1668.8 2832 1668.8 2830.4 1843.2 2828.8 2038.6 2829.7 2181.1 2824 2175.9 Z" data-holc_grade="D"/>
<path d="M 1909.9 2311.4 1905.9 2359.4 1900.7 2452.1 1775 2417.5 1764.6 2471.3 1793.2 2524.1 1845.4 2599 1865.6 2658.6 1859.2 2731.4 1841.2 2728.8 1826.2 2722.9 1783 2719.9 1603.9 2712.8 1396.7 2717.5 1214.2 2716.1 1180.8 2716.1 1188.1 2551.9 1183.4 2541.9 1134 2537.2 1122.8 2535.4 1202.8 2432.1 1323.2 2271.9 1360.5 2221.5 1223.6 2214.9 1109 2202.7 1106.4 2200.1 965.4 2186.6 991.6 1922.7 803.6 1902.9 814.9 1740.6 815.2 1736.7 704.5 1761.8 657.3 1772.6 404.8 1830 208.5 1879.9 184.4 1890.5 100.3 1914.7 63.7 1467.6 152.9 1474.7 280.7 1466 640.4 1516.1 635.2 1614.9 692.6 1618.3 780.9 1635.9 817.3 1632.6 846 1641.4 893.1 1648.1 928.4 1648.8 1012.4 1660.8 1052 1667.8 1097.2 1672 1167.1 1681.9 1219.4 1687.5 1299.9 1698.8 1312 1698.8 1316.9 1655.2 1323.3 1625.7 1326.8 1589.1 1324 1560.3 1325.4 1543.4 1343 1521.7 1336.7 1515.3 1225.8 1508.2 1125.5 1496.5 1012 1486.1 922.5 1474.4 857 1468.1 759.3 1458.6 702.8 1451.4 707.3 1411.9 712.8 1352.9 724.1 1278.3 728.6 1227.5 742.7 1129.4 746.3 1096.6 811.4 1102.9 914 1117.3 1006.2 1122.8 1076.3 1133.6 1076.3 1164.6 1110.2 1167.3 1152.2 1174 1191.1 1176.3 1241.2 1182.1 1300.9 1189.8 1320.4 1189.8 1320.4 1165.1 1313.1 1124.1 1300.9 1073.3 1288.2 1055 1290.3 1055.3 1296.1 1055.6 1292 1029.7 1287.7 993.4 1284.5 949.1 1283.4 942.8 1290.9 943.9 1292.2 944 1299.7 952.4 1363 1024 1447 1118.9 1518 1199.2 1544.6 1229.2 1540.9 1228.7 1518.6 1249.8 1505.9 1282.6 1514.9 1325.4 1537.2 1367.7 1563.7 1405.2 1593.5 1435.8 1612.6 1449 1620.8 1448.3 1682 1534.3 1662.9 1714.7 1607.6 1807.9 1527.1 1898.3 1549.5 1935.1 1603.8 1961.4 1601.9 1970.7 1700.1 2011.9 1712.2 2000.6 1731.2 1986.4 1721.6 2001 1732.4 2019.2 1729.1 2045.6 1742.3 2073.7 1771.4 2077.8 1783 2080.3 1791.3 2090.2 1795.5 2108.4 1802.1 2127.4 1819.5 2137.3 1843.6 2151.3 1859.4 2156.3 1890.1 2163.7 1900.7 2170.2 1894 2177.4 1863.3 2200.7 1863.3 2240.6 1841.9 2268.5 1843.2 2296.5 1908.1 2311.1 1909.9 2311.4 Z" data-holc_grade="D"/>
</g>
</svg>