<?xml version="1.0"?>
<svg xmlns="http://www.w3.org/2000/svg" version="1.2" baseProfile="tiny" width="3000" height="2009" viewBox="0 0 3000 2009" stroke-linecap="round" stroke-linejoin="round">
<g id="A">
<path d="M 703.1 404 703.9 416.6 682.4 418 587.6 421.9 524 425.4 521.3 424.3 519.9 415.6 477.2 418.5 476 420.5 475.4 428 455.3 428.9 454.7 431.5 456.5 466.6 421.9 468.8 360 471.6 356.4 474 350.5 473.1 340.3 474 339.5 451.1 335.2 416.1 334.6 385.3 337.3 385.3 340.6 385 344 383.7 349.3 381.4 350.1 379.7 353 378.1 355.7 377.2 357.1 377.5 358.7 379.2 360.2 380.8 364.1 381.2 367.8 380.8 373.4 379.6 379.3 377.1 385 374.1 388.6 371.7 391.6 369.4 393.2 367.4 394.8 364.2 395.9 362.6 396.5 361 398.1 359.5 401.1 357.8 404.2 357.2 409.1 356.9 413.9 356.6 419 355.5 425.8 353.6 428.3 352.5 431.7 352.9 436 353 440.9 352.5 449.5 352.1 463.4 351.5 466 350.4 473.3 345.9 477.7 341.4 481.5 338.7 486.3 337 494.8 335.7 496.8 335 498.1 333.6 499 332.2 501.9 330.5 503.7 329.4 506.2 329.5 509.2 331.7 513.8 333.2 518.2 336.4 521.1 340.8 523.6 343.9 523.9 344.6 524.2 345.2 524.6 345.8 525 346.3 525.4 346.8 526 347.3 526.5 347.7 527.1 348.1 527.7 348.4 528.3 348.6 529 348.9 529.7 349.2 531.2 349.6 534.1 350.2 535.3 350.5 536.5 350.8 537.5 351.2 538.1 351.5 538.6 351.7 539.1 352 539.5 352.3 540 352.7 540.3 353 540.7 353.4 541.1 353.8 541.4 354.4 541.8 355 542.1 355.6 542.3 356.3 542.5 357 542.7 357.8 542.9 358.6 543 359.4 543 360.4 543 361.3 543 362.3 542.9 363.4 542.7 365.7 542.3 368.2 535.2 382.4 536.2 386.5 553.1 398.8 563.9 399.4 637.5 406.7 685.7 403.2 703.1 404 Z" data-holc_grade="A"/>
<path d="M 1001.1 1445.7 998.5 1444.5 993.3 1441.1 985.7 1437 979.2 1435.2 975 1433.8 969.8 1431.3 967.7 1430.4 961.3 1428.2 961.6 1431.4 961.6 1433.9 961.3 1437.1 960.2 1439.4 957.6 1440.8 953.5 1442.9 950.9 1444 943.1 1444.9 939.3 1444.5 935.2 1444 934.2 1444.4 930.3 1445.8 931.8 1449.5 932.9 1454.8 935.2 1462.8 936.7 1469.9 934.1 1478.4 930 1486.2 924.5 1489.7 917.5 1492.9 908.6 1495.3 906.5 1495.9 898.7 1497.2 887.1 1498.4 784.5 1494.5 786.7 1485.2 787 1483.9 787.1 1482.6 787.1 1481.2 787 1479.9 786.7 1478.6 786.3 1477.3 785.7 1476.1 785 1474.9 784.2 1473.7 789.8 1465 794.2 1458.8 799.4 1453.9 818.6 1439.3 812.6 1434.1 816.8 1429.8 883.2 1372.2 888.5 1373.9 891.6 1373.9 895.8 1370.8 903.1 1367.3 922.4 1359.9 930.4 1357.3 937.3 1355.3 941.3 1354.7 950.1 1354 957.4 1352.6 962.3 1352 970.5 1351.8 984.2 1350.7 998.7 1349.7 1007.4 1348 1014.1 1346.8 1015.3 1346.7 1014.9 1350.4 1014.4 1353.8 1014.4 1356.3 1015.6 1357.8 1017.3 1360 1016.7 1362.8 1015.9 1364.2 1014.4 1366.7 1010.6 1368.5 1007.1 1369.4 1002.2 1371.3 999 1372.9 994.6 1375.8 992 1379.7 989.7 1386.4 992.6 1401.8 1001.1 1445.7 Z" data-holc_grade="A"/>
<path d="M 1096.7 1348.2 1089 1350.9 1083.9 1353.6 1077.7 1357.2 1071 1363 1063.8 1370.2 1067.6 1374.3 1076 1379.1 1081.7 1382.9 1090.4 1384.5 1098.7 1387.9 1103.8 1382.7 1105.5 1382.3 1107.2 1382.5 1108 1383.8 1109.3 1387.7 1112.8 1396.3 1113.8 1397.4 1114.9 1398.5 1116.1 1399.5 1117.4 1400.4 1118.7 1401.2 1120.2 1402 1121.7 1402.7 1123.3 1403.2 1124.9 1403.7 1126.6 1404.1 1128.3 1404.3 1130 1404.5 1131.8 1404.5 1133.5 1404.5 1146.3 1405.3 1154.3 1406.5 1154.9 1456.8 1143.6 1455.7 1138.6 1455 1122.7 1457.6 1117.4 1457.8 1111.9 1457.5 1090.8 1454.9 1084.7 1454.8 1080.6 1455.1 1056.5 1458.9 1047.4 1459 1043.2 1457.6 1038.7 1456.4 1026.2 1475.5 1008.2 1450.9 1001.1 1445.7 992.6 1401.8 989.7 1386.4 992 1379.7 994.6 1375.8 999 1372.9 1002.2 1371.3 1007.1 1369.4 1010.6 1368.5 1014.4 1366.7 1015.9 1364.2 1016.7 1362.8 1017.3 1360 1015.6 1357.8 1014.4 1356.3 1014.4 1353.8 1014.9 1350.4 1015.3 1346.7 1018.9 1346.5 1026 1346.8 1036.3 1347.6 1044.6 1346.6 1047.5 1347 1051 1346 1054.5 1344.9 1057.9 1343.8 1061.3 1342.5 1064.6 1341.1 1067.8 1339.7 1071 1338.1 1074.1 1336.5 1077.1 1334.8 1080 1332.9 1082.8 1331 1096.7 1348.2 Z" data-holc_grade="A"/>
<path d="M 784.5 1494.5 887.1 1498.4 898.7 1497.2 906.5 1495.9 908.6 1495.3 923.4 1507.2 941.8 1526.2 954.2 1535.8 966.4 1543.9 981.5 1550.6 987.7 1552.1 988.7 1555.3 987 1571.6 959.5 1570 952.5 1581.5 940.5 1576.6 938.8 1577.1 934.4 1584.4 930.5 1590.5 900.5 1632.7 897.8 1632.9 880.6 1619.4 878 1617.3 868.6 1610 865.7 1602.5 856.8 1586.6 845.2 1570.6 829.5 1564.1 804.4 1551.2 776 1538.6 776.7 1528.7 784.5 1494.5 Z M 887.8 1605 890.4 1605.5 892.8 1602.1 901.5 1591.2 905.7 1584.6 909.7 1575.5 911.4 1570.1 911.8 1565.6 910.8 1563.1 893.3 1559 881.8 1578 888.1 1582 883.6 1586.8 879 1593.8 884.6 1597.4 884.5 1600.1 887.8 1605 Z" data-holc_grade="A"/>
<path d="M 1001.1 1445.7 1008.2 1450.9 1026.2 1475.5 1038.7 1456.4 1043.2 1457.6 1047.4 1459 1056.5 1458.9 1080.6 1455.1 1084.7 1454.8 1090.8 1454.9 1111.9 1457.5 1117.4 1457.8 1122.7 1457.6 1138.6 1455 1143.6 1455.7 1154.9 1456.8 1155.2 1481.3 1152.2 1482.7 1147.5 1484.3 1140.9 1485.3 1134.4 1484.1 1125.3 1478.9 1113.7 1472.1 1104.1 1470 1100.7 1469.6 1097.4 1470.6 1097.3 1471.9 1098 1474.6 1100.5 1478.4 1100.8 1483.1 1099.3 1484.6 1090 1490 1089.3 1492.5 1089.5 1493.7 1093.4 1501 1094.9 1502.5 1097 1504.7 1099.1 1507 1100.4 1508.9 1101.5 1510.9 1102.6 1512.9 1103.5 1515 1104.2 1517.1 1104.8 1519.3 1105.4 1521.3 1105.9 1523.4 1106.2 1525.5 1106.4 1527.6 1106.5 1529.7 1106.5 1531.9 1106.3 1534 1106 1536.1 1105.6 1538.2 1104.4 1539.5 1097.2 1541.2 1077.3 1544 1054.3 1547.3 1032.8 1550.5 1008.7 1554.4 988.7 1555.3 987.7 1552.1 981.5 1550.6 966.4 1543.9 954.2 1535.8 941.8 1526.2 923.4 1507.2 908.6 1495.3 917.5 1492.9 924.5 1489.7 930 1486.2 934.1 1478.4 936.7 1469.9 935.2 1462.8 932.9 1454.8 931.8 1449.5 930.3 1445.8 934.2 1444.4 935.2 1444 939.3 1444.5 943.1 1444.9 950.9 1444 953.5 1442.9 957.6 1440.8 960.2 1439.4 961.3 1437.1 961.6 1433.9 961.6 1431.4 961.3 1428.2 967.7 1430.4 969.8 1431.3 975 1433.8 979.2 1435.2 985.7 1437 993.3 1441.1 998.5 1444.5 1001.1 1445.7 Z M 939.8 1470.9 947.5 1477.3 959.7 1461.2 958.6 1460.7 956.8 1459.3 954.4 1457.5 952.7 1455.9 950.3 1452.8 949.6 1450.8 949 1449.3 947.8 1447.8 945.8 1446.7 935.7 1445.5 935 1445.9 934.5 1446.4 933 1448 933.1 1449.1 934 1451.2 935.8 1454.2 937.5 1458.5 938.3 1462.4 939.1 1467.8 939.8 1470.9 Z" data-holc_grade="A"/>
<path d="M 1033.3 382.1 1022.9 383.5 1023.1 396.6 980.7 396.8 979.4 358.3 1030.6 348 1033.3 382.1 Z" data-holc_grade="A"/>
<path d="M 1278.8 349.8 1252.6 353.6 1135.7 368.4 1033.3 382.1 1030.6 348 1169.8 319.9 1197.6 313.9 1209.2 312.9 1257.4 306.9 1297.8 302.3 1302.4 321.2 1275.8 324.4 1274.7 326.8 1278.8 349.8 Z" data-holc_grade="A"/>
<path d="M 1303.5 58 1308.5 89.2 1312.5 109.6 1316.3 128.5 1316.4 133.1 1319.2 144 1300.6 146.5 1304 165.2 1278.4 168.4 1268.6 108.9 1296.5 105.6 1286.5 53.3 1283.7 35.5 1381.7 23.1 1496.4 7.7 1524.8 22.1 1552.3 37.8 1532.9 39.7 1491.3 16.2 1347.6 35.1 1301.2 40.6 1303.5 58 Z" data-holc_grade="A"/>
<path d="M 1297.8 302.3 1283.9 206.2 1298.7 205.1 1304.9 232.1 1307.5 232.7 1332.2 228.9 1449.8 214.2 1452.3 214.2 1456.5 232.4 1459.8 233 1487.6 229.4 1488.6 231.1 1498.4 276.4 1473.7 279.5 1403.8 288.5 1328 298.4 1297.8 302.3 Z" data-holc_grade="A"/>
<path d="M 752.8 1467.2 767.7 1466.5 769.4 1466.5 771 1466.7 772.6 1467 774.2 1467.4 775.7 1467.8 777.2 1468.4 778.6 1469.1 779.9 1469.9 781.1 1470.7 782.2 1471.7 783.3 1472.7 784.2 1473.7 785 1474.9 785.7 1476.1 786.3 1477.3 786.7 1478.6 787 1479.9 787.1 1481.2 787.1 1482.6 787 1483.9 786.7 1485.2 784.5 1494.5 776.7 1528.7 776 1538.6 775.8 1540.5 720.3 1541.6 676.5 1542.4 582.5 1542.6 561.8 1541.8 562.3 1472.4 492 1476.5 493.4 1446.7 494.1 1430.2 494.3 1427.6 497.1 1428.6 499.9 1429.4 502.6 1430 505.2 1430.6 507.7 1431.1 510.1 1431.4 512.5 1431.6 514.8 1431.7 517.1 1431.7 519.4 1431.6 521.7 1431.4 524 1431 526.2 1430.6 528.6 1430.1 530.9 1429.4 537.4 1427.6 539.5 1427.1 541.4 1426.7 543.6 1426.3 545.7 1426 547.9 1425.8 550 1425.6 551.4 1425.6 552.7 1425.6 554.1 1425.6 555.5 1425.7 556.9 1425.8 558.3 1426 559.8 1426.2 561.2 1426.4 562.7 1426.6 564.2 1426.9 565.8 1427.3 567.4 1427.6 570.6 1428.5 574 1429.5 574.3 1444.6 622.6 1459.9 629.4 1462.4 647 1469 649.7 1469 655.1 1469 651.4 1410.4 712.3 1408.6 717.8 1468.6 752.8 1467.2 Z M 651.6 1505 649.9 1474.2 629.6 1474.3 630.3 1505.5 651.6 1505 Z" data-holc_grade="A"/>
<path d="M 1042.3 1206.5 1008.2 1232.2 944.2 1280.7 941.6 1282.7 896.5 1284.6 863.7 1288.9 856.1 1289.3 859.4 1281.8 878 1229.8 889.3 1227.7 898 1224.1 903.5 1222.6 908.6 1221.5 911.1 1221.4 917 1222.8 921.5 1224.2 925.2 1226.4 930.9 1227 936.3 1226.4 939.8 1226 945.8 1225.1 949.7 1222 950.8 1218 951.3 1206.4 959.7 1196.4 964.8 1193.5 967.2 1190.1 967.4 1186.7 966.9 1185 960.3 1176.8 959.8 1172.9 959.8 1168.2 960.1 1164.5 960.1 1161.2 959.5 1158.1 957.7 1155.1 952.8 1150.4 949.2 1148.3 944.1 1146.1 941.5 1144.7 937.6 1141.8 934.9 1139.1 932.9 1136.3 930.2 1132.8 928.6 1126.4 928.4 1122.3 928.4 1117.9 929 1113.2 929.3 1106.5 929.5 1102.6 929.3 1098.8 929.9 1097.3 934.2 1093.1 935.6 1091 939.2 1088.5 943.6 1085.1 944.2 1084.7 1013.7 1141.5 1018.2 1156.6 1025.6 1165.5 1050.8 1189.2 1051.6 1190 1052.2 1190.8 1052.7 1191.6 1053.1 1192.5 1053.4 1193.4 1053.5 1194.4 1053.5 1195.3 1053.4 1196.3 1053.1 1197.2 1052.7 1198.1 1052.2 1198.9 1051.6 1199.7 1050.8 1200.5 1050 1201.1 1042.3 1206.5 Z" data-holc_grade="A"/>
<path d="M 1044.6 1346.6 1036.3 1347.6 1026 1346.8 1018.9 1346.5 1015.3 1346.7 1014.1 1346.8 1007.4 1348 998.7 1349.7 984.2 1350.7 970.5 1351.8 962.3 1352 957.4 1352.6 950.1 1354 941.3 1354.7 937.3 1355.3 930.4 1357.3 922.4 1359.9 903.1 1367.3 895.8 1370.8 891.6 1373.9 888.5 1373.9 883.2 1372.2 917.9 1342.1 922.3 1337.1 930.5 1327.5 917.3 1320.1 911.5 1318.7 901.7 1331.7 900.1 1333.9 871.5 1357.3 812.3 1410.2 807.1 1414.6 806 1417.4 806 1419.8 807.3 1422.9 816.8 1429.8 812.6 1434.1 818.6 1439.3 799.4 1453.9 794.2 1458.8 789.8 1465 784.2 1473.7 783.3 1472.7 782.2 1471.7 781.1 1470.7 779.9 1469.9 778.6 1469.1 777.2 1468.4 775.7 1467.8 774.2 1467.4 772.6 1467 771 1466.7 769.4 1466.5 767.7 1466.5 752.8 1467.2 754.2 1456.5 756.2 1450 759 1444.2 760.9 1442.4 765.7 1439.6 781.1 1443 783.6 1441.2 794.8 1418.3 804.1 1404.8 829.6 1358.9 840.8 1323.9 855.7 1290.1 856.1 1289.3 863.7 1288.9 896.5 1284.6 941.6 1282.7 944.2 1280.7 994 1305.1 1044.6 1346.6 Z" data-holc_grade="A"/>
<path d="M 1099.2 1220.5 1093.3 1226 1140.5 1259 1148.4 1265.6 1149.5 1268.2 1148.1 1270.5 1147.4 1273.4 1144.9 1276 1140.8 1277.3 1123.6 1290.4 1108.9 1314.1 1102.1 1322 1097.8 1324.6 1082.8 1331 1080 1332.9 1077.1 1334.8 1074.1 1336.5 1071 1338.1 1067.8 1339.7 1064.6 1341.1 1061.3 1342.5 1057.9 1343.8 1054.5 1344.9 1051 1346 1047.5 1347 1044.6 1346.6 994 1305.1 944.2 1280.7 1008.2 1232.2 1042.3 1206.5 1046.4 1209.9 1058.7 1211.8 1093.3 1218.7 1099.2 1220.5 Z" data-holc_grade="A"/>
</g>
<g id="B">
<path d="M 186.5 515.4 187.4 557.6 225.4 556.4 296.4 551.4 298.1 551.3 366.3 547.3 404.4 545.8 407.5 545.7 408.7 564.2 413.6 618.8 414.2 629.1 418 699.4 363.8 701.9 260.5 707.8 113.7 714.9 42.8 718.2 26.7 718.5 20.3 642.4 2 642.7 1 622.5 18.8 621.6 15.7 574.2 14.5 556.2 14.2 549 12.7 546.9 12.5 541.5 6.6 533.3 6.9 528.9 100.3 520.9 186.5 515.4 Z M 371 617.4 371.4 622.3 410 620.6 407.8 593.4 404.8 551.5 365.7 552.7 370.8 614.5 371 617.4 Z M 335.6 620 334.6 617.7 257.4 621.1 230 622.6 192.8 624.2 165 624.9 153.8 626.3 154.2 643 157.2 644.3 225.3 641.9 293.2 637.9 337.5 635.6 335.6 620 Z" data-holc_grade="B"/>
<path d="M 1074.7 586.8 1094.3 583.6 1089.9 558.3 1088.7 556.2 1045.1 560.7 1043.2 531.1 1113.9 526.9 1121.8 526.8 1125.4 539.9 1142.6 538.4 1152.6 588.5 1120.9 593 1080.5 597.8 1078.9 598.1 1077.6 596.9 1075.7 589 1074.7 586.8 Z" data-holc_grade="B"/>
<path d="M 1277.1 573.4 1285.7 613.3 1235.4 620.7 1233.8 622.4 1234.7 627.4 1166.2 630.7 1166 629.8 1157.5 588.3 1157.5 588 1277.1 573.4 Z" data-holc_grade="B"/>
<path d="M 1552.3 37.8 1554.5 37.6 1562.2 73.8 1561.4 75 1499.2 82.3 1496.8 82.6 1478.6 75.1 1475.9 77.8 1473.1 80.4 1470.2 82.9 1467.2 85.4 1464.1 87.8 1460.9 90.1 1457.6 92.3 1454.2 94.4 1450.7 96.4 1447.2 98.4 1443.5 100.3 1439.8 102 1436.1 103.7 1432.3 105.3 1428.4 106.8 1424.4 108.2 1420.4 109.4 1416.3 110.6 1412.2 111.7 1410.3 112.4 1408.2 113 1406.2 113.5 1404.1 113.9 1402 114.2 1399.9 114.5 1385.1 47 1303.5 58 1301.2 40.6 1347.6 35.1 1491.3 16.2 1532.9 39.7 1552.3 37.8 Z" data-holc_grade="B"/>
<path d="M 1517.2 196.9 1522.1 215.9 1584.3 206.9 1586.1 208.1 1594 245.2 1529.1 253.9 1536.5 294.8 1508.8 298.7 1507.2 298.1 1505.1 297.7 1503.6 295.1 1497.9 295.7 1475 298.2 1439.8 303 1400 308.4 1302.4 321.2 1297.8 302.3 1328 298.4 1403.8 288.5 1473.7 279.5 1498.4 276.4 1488.6 231.1 1487.6 229.4 1459.8 233 1456.5 232.4 1452.3 214.2 1449.8 214.2 1332.2 228.9 1307.5 232.7 1304.9 232.1 1298.7 205.1 1283.9 206.2 1281.8 188.4 1306.8 185.4 1309.9 187.6 1313.6 203.6 1369.9 196 1447.3 186.5 1451.8 205.8 1517.2 196.9 Z" data-holc_grade="B"/>
<path d="M 1707.7 286.4 1640.5 294.3 1631.8 250.9 1695.7 243.3 1698.3 244.7 1707.7 286.4 Z" data-holc_grade="B"/>
<path d="M 238.5 935.5 234.8 898.4 232.7 897.2 192 897.1 191.5 860 331.2 853.9 399.5 850.6 644.5 841.4 647.1 868.1 647 870 606.6 870.9 608.2 889.4 650.1 888.2 651.6 917.5 519 922.5 487.1 924.8 439.6 927.3 316.3 932.4 251.6 935 238.5 935.5 Z" data-holc_grade="B"/>
<path d="M 764.5 950.2 744.3 951.6 745.3 988.7 679.7 992.2 679.9 995.6 681.3 1027.5 681.1 1027.5 682.7 1067.9 620 1070.9 557 1073.9 314.5 1085.2 311.4 1048.5 309.8 1046.5 268.8 1048 265.1 1011.6 264 1010.1 246 1010.7 243.3 1009.5 240.2 972.3 238.5 935.5 251.6 935 316.3 932.4 439.6 927.3 487.1 924.8 519 922.5 651.6 917.5 761.4 913.5 764.5 950.2 Z M 661.6 996.2 663.5 1028.2 680 1027.6 677.8 995.7 661.6 996.2 Z" data-holc_grade="B"/>
<path d="M 332.4 1310.9 323.8 1198.1 470.3 1191.2 627.6 1184.3 633 1262.6 591.2 1264.2 592 1288.5 461.6 1293.8 462.4 1306 332.4 1310.9 Z" data-holc_grade="B"/>
<path d="M 712.3 1408.6 651.4 1410.4 576.8 1412.5 574.8 1377.7 510.8 1380.5 486.9 1381.6 418.2 1385.4 337.1 1388.1 332.4 1310.9 462.4 1306 463.1 1316 595.3 1310.8 595.3 1303.3 630.7 1302.7 631.4 1308.9 722.8 1305.3 722.6 1295.1 780.9 1294.3 828 1291.4 855.7 1290.1 840.8 1323.9 829.6 1358.9 804.1 1404.8 764 1407.1 712.3 1408.6 Z" data-holc_grade="B"/>
<path d="M 494.3 1427.6 494.1 1430.2 493.4 1446.7 492 1476.5 446.9 1479.6 348.1 1483.6 343.9 1487.4 341.1 1487.6 339.7 1487.6 343.3 1468.7 342.3 1460.7 339.2 1421.3 337.1 1388.1 418.2 1385.4 486.9 1381.6 510.8 1380.5 510 1414.1 494.7 1417.2 494.3 1427.6 Z M 433 1429.5 432.4 1429.4 430.4 1428.8 427.8 1427.9 425.5 1427.2 422.4 1425.8 420.8 1424.7 418.7 1423 416 1419.4 414.8 1417.9 412.4 1416 411.4 1414.6 410 1413.5 408.9 1412.5 407.6 1411.7 406.8 1411.8 405.9 1412.4 405 1412.9 404.6 1413.6 404 1414.8 403.5 1416 403.4 1417.5 403.3 1419 403.8 1420.4 404.3 1422.5 405.1 1424.1 406.1 1425.8 407.2 1427 408.9 1428.8 410.1 1431.4 410.5 1432.8 410.8 1434 411 1435.4 411.9 1437.1 413.6 1438.3 417.2 1440.3 418.9 1441.9 420.7 1442.4 425.1 1444.2 428.1 1443.9 429.7 1443.1 431.3 1442.5 432.9 1443.1 435.6 1443.8 438.8 1444.4 442.7 1445.1 445.6 1446.3 447.7 1446.6 449.5 1446.8 451.7 1446.4 453.5 1446.3 455.8 1445.5 457.8 1444.9 460.1 1444 461.8 1443.2 463.4 1442.7 465.6 1442.3 467.3 1442.5 469.3 1442.9 470.6 1443.3 473.8 1444.6 476.5 1445.3 477.7 1446 480.1 1446.2 482.6 1445.4 484.2 1444.7 485.5 1444.1 488.4 1442.3 489.6 1440.7 490.5 1438.6 489.6 1436.8 488.7 1434.4 489.3 1433.3 489.8 1430.7 488.5 1430.2 486.7 1429.5 485.4 1429.3 484 1429.1 483 1429.1 481.7 1429.2 480 1429.1 479 1428.6 477.2 1428.3 475.7 1428.3 472.2 1428.3 470.6 1428.4 468.1 1428.4 466.7 1428.6 465.1 1429.1 462.8 1429.6 461.2 1429.8 458.8 1429.7 457.3 1429.4 455.4 1428.9 454.1 1428.4 453 1428.4 451.9 1428.7 449.9 1430 446.1 1430.1 442.6 1430.1 438.9 1430.5 437.4 1430.6 433 1429.5 Z" data-holc_grade="B"/>
<path d="M 298.1 551.3 296.4 551.4 225.4 556.4 187.4 557.6 186.5 515.4 295.8 511.8 298.1 551.3 Z" data-holc_grade="B"/>
<path d="M 692 1182 700.4 1284.2 634.7 1287.2 633 1262.6 627.6 1184.3 620 1070.9 682.7 1067.9 692 1182 Z" data-holc_grade="B"/>
<path d="M 779.7 1177.7 692 1182 682.7 1067.9 681.1 1027.5 681.3 1027.5 679.9 995.6 679.7 992.2 745.3 988.7 746.5 1011.4 753.5 1019.4 748.5 1025.2 745.6 1032.3 772.6 1065.5 779.7 1177.7 Z" data-holc_grade="B"/>
<path d="M 878 1229.8 859.4 1281.8 856.1 1289.3 855.7 1290.1 828 1291.4 780.9 1294.3 722.6 1295.1 720.7 1284.2 700.4 1284.2 692 1182 779.7 1177.7 848.4 1175.4 853.1 1230.8 878 1229.8 Z" data-holc_grade="B"/>
<path d="M 861 1060.8 862.7 1098.7 884 1098.9 888.4 1174.1 848.4 1175.4 779.7 1177.7 772.6 1065.5 745.6 1032.3 748.5 1025.2 753.5 1019.4 746.5 1011.4 745.3 988.7 744.3 951.6 764.5 950.2 808 948.3 811.5 978.6 814.9 1038 834.9 1045.5 837.9 1045.3 861 1060.8 Z" data-holc_grade="B"/>
<path d="M 1004.6 1599.4 1003.4 1600.7 1002 1602 1000.6 1603.1 999 1604.2 997.3 1605.2 995.6 1606.2 993.8 1607 991.9 1607.7 989.9 1608.3 988 1608.8 985.9 1609.2 983.9 1609.5 981.8 1609.7 979.7 1609.8 978.3 1644.2 952.8 1635 952.1 1636.7 951.2 1638.3 950.2 1639.9 949.1 1641.4 947.9 1642.9 946.6 1644.4 945.2 1645.8 943.7 1647.1 942.1 1648.3 940.5 1649.5 905.4 1639.7 906.6 1636.4 905.1 1634.1 900.5 1632.7 930.5 1590.5 934.4 1584.4 938.8 1577.1 940.5 1576.6 952.5 1581.5 959.5 1570 987 1571.6 988.7 1555.3 1008.7 1554.4 1004.6 1599.4 Z" data-holc_grade="B"/>
<path d="M 900.5 1632.7 905.1 1634.1 906.6 1636.4 905.4 1639.7 940.5 1649.5 942.6 1650.1 941.8 1657.5 972.5 1667.2 974.5 1726.7 973 1728.3 924 1727.4 853.5 1731.6 800.3 1730.6 793.9 1728.8 766 1727.1 771.9 1615.8 771.9 1615.6 775.8 1540.5 776 1538.6 804.4 1551.2 829.5 1564.1 845.2 1570.6 856.8 1586.6 865.7 1602.5 868.6 1610 878 1617.3 880.6 1619.4 897.8 1632.9 900.5 1632.7 Z" data-holc_grade="B"/>
<path d="M 944.2 1084.7 943.6 1085.1 939.2 1088.5 935.6 1091 934.2 1093.1 929.9 1097.3 929.3 1098.8 929.5 1102.6 929.3 1106.5 929 1113.2 928.4 1117.9 928.4 1122.3 928.6 1126.4 930.2 1132.8 932.9 1136.3 934.9 1139.1 937.6 1141.8 941.5 1144.7 944.1 1146.1 949.2 1148.3 952.8 1150.4 957.7 1155.1 959.5 1158.1 960.1 1161.2 960.1 1164.5 959.8 1168.2 959.8 1172.9 960.3 1176.8 966.9 1185 967.4 1186.7 967.2 1190.1 964.8 1193.5 959.7 1196.4 951.3 1206.4 950.8 1218 949.7 1222 945.8 1225.1 939.8 1226 936.3 1226.4 930.9 1227 925.2 1226.4 921.5 1224.2 917 1222.8 911.1 1221.4 908.6 1221.5 903.5 1222.6 898 1224.1 889.3 1227.7 878 1229.8 853.1 1230.8 848.4 1175.4 888.4 1174.1 884 1098.9 862.7 1098.7 861 1060.8 881.4 1059.7 880 1022.6 900.6 1021.8 899.9 983.1 958.8 980 961.1 987.1 963.1 990.8 962.2 1001.4 963.6 1001.7 964.9 1002.1 966.2 1002.6 967.5 1003.2 968.6 1003.9 969.7 1004.6 970.7 1005.5 971.5 1006.4 972.3 1007.4 972.9 1008.4 973.3 1009.5 973.7 1010.6 973.9 1011.7 974 1012.9 973.9 1014 973.7 1015.1 973.3 1016.2 972.8 1017.3 972.2 1018.3 971.4 1019.3 970.5 1020.2 969.6 1021 968.5 1021.8 967.3 1022.5 966.1 1023 964.7 1023.5 963.4 1023.9 960.1 1025.9 957.1 1029.2 941 1074.9 944.2 1084.7 Z" data-holc_grade="B"/>
<path d="M 1325.1 1332.6 1312.7 1341 1299.1 1352.1 1297.4 1352.6 1295.6 1353 1293.9 1353.3 1292.1 1353.5 1290.3 1353.6 1288.5 1353.6 1286.7 1353.5 1284.9 1353.3 1283.1 1353 1281.4 1352.6 1279.7 1352.1 1278 1351.5 1276.4 1350.9 1274.9 1350.1 1267.7 1346.4 1254.1 1334.9 1214 1355.2 1212.7 1353.7 1211.2 1352.2 1209.7 1350.9 1208 1349.6 1206.3 1348.4 1204.4 1347.3 1202.5 1346.3 1200.5 1345.4 1198.5 1344.6 1196.3 1343.9 1194.2 1343.3 1192 1342.8 1189.7 1342.4 1187.4 1342.1 1185.1 1341.9 1182.8 1341.9 1180.5 1341.9 1178.2 1342.1 1176 1342.4 1173.7 1342.8 1171.5 1343.3 1169.3 1343.9 1167.2 1344.6 1165.1 1345.4 1163.1 1346.3 1161.2 1347.3 1159.4 1348.4 1157.6 1349.6 1156 1350.9 1142.2 1342.1 1138.4 1342.2 1130.8 1347.1 1119.9 1342.2 1102.4 1350.4 1099.9 1350.3 1096.7 1348.2 1082.8 1331 1097.8 1324.6 1102.1 1322 1108.9 1314.1 1123.6 1290.4 1140.8 1277.3 1144.9 1276 1147.4 1273.4 1148.1 1270.5 1149.5 1268.2 1148.4 1265.6 1140.5 1259 1093.3 1226 1099.2 1220.5 1114.6 1222.3 1123.9 1223.9 1132.8 1226.7 1139.8 1230.8 1149.1 1236.1 1201.4 1237.4 1206.2 1240.5 1236.2 1280.5 1238.6 1282.3 1241.1 1284 1243.7 1285.6 1246.3 1287.1 1249 1288.5 1251.8 1289.9 1254.7 1291.2 1257.6 1292.4 1260.6 1293.4 1263.6 1294.4 1266.7 1295.3 1269.8 1296.1 1273 1296.8 1276.2 1297.5 1279.4 1298 1282.6 1298.4 1285.9 1298.7 1288.3 1299.7 1290.6 1300.8 1292.6 1301.8 1294.5 1302.8 1296.2 1303.8 1297.8 1304.8 1299.2 1305.8 1300.4 1306.9 1301.4 1307.8 1302.3 1308.8 1303.1 1309.8 1303.8 1310.8 1304.3 1311.8 1304.9 1312.9 1305.4 1313.9 1306.6 1316.9 1307 1317.8 1307.5 1318.7 1308 1319.6 1308.6 1320.6 1309.3 1321.4 1310.1 1322.3 1311.1 1323.4 1312.2 1324.4 1313.5 1325.4 1314.9 1326.4 1316.4 1327.5 1318.1 1328.5 1319.9 1329.5 1321.9 1330.6 1325.1 1332.6 Z" data-holc_grade="B"/>
<path d="M 1155.2 1481.3 1155.4 1494.2 1156.2 1560.3 1143.1 1560.3 1144.2 1563.1 1145.2 1566 1146 1568.9 1146.7 1571.8 1147.2 1574.7 1147.7 1577.7 1147.9 1580.7 1148.1 1583.6 1148.1 1586.6 1148 1589.6 1147.7 1592.5 1147.3 1595.5 1147 1596.5 1103.2 1595.4 1100.8 1596.8 1102.6 1674.5 1012.2 1654.5 1010 1653.1 1006.4 1599.3 1004.6 1599.4 1008.7 1554.4 1032.8 1550.5 1054.3 1547.3 1077.3 1544 1097.2 1541.2 1104.4 1539.5 1105.6 1538.2 1106 1536.1 1106.3 1534 1106.5 1531.9 1106.5 1529.7 1106.4 1527.6 1106.2 1525.5 1105.9 1523.4 1105.4 1521.3 1104.8 1519.3 1104.2 1517.1 1103.5 1515 1102.6 1512.9 1101.5 1510.9 1100.4 1508.9 1099.1 1507 1097 1504.7 1094.9 1502.5 1093.4 1501 1089.5 1493.7 1089.3 1492.5 1090 1490 1099.3 1484.6 1100.8 1483.1 1100.5 1478.4 1098 1474.6 1097.3 1471.9 1097.4 1470.6 1100.7 1469.6 1104.1 1470 1113.7 1472.1 1125.3 1478.9 1134.4 1484.1 1140.9 1485.3 1147.5 1484.3 1152.2 1482.7 1155.2 1481.3 Z" data-holc_grade="B"/>
<path d="M 1196.5 919.2 1186.9 919.4 1178.4 921.4 1175.5 909.8 1171.6 895.5 1168.5 895.4 1109.5 942.3 1112.7 906.6 1111.8 880.9 1112.8 867.5 1128.4 863.3 1141.9 861 1169.6 858.6 1172.7 875.1 1187 874.2 1196.5 919.2 Z" data-holc_grade="B"/>
<path d="M 424 496.8 384.3 498 382.2 498.8 359.1 500.6 359.3 506.9 357.3 508.5 349.8 508.9 351 519.8 425.2 516.9 426.9 533.4 428.1 545.4 407.5 545.7 404.4 545.8 366.3 547.3 298.1 551.3 295.8 511.8 341.7 509.3 340.3 474 350.5 473.1 356.4 474 360 471.6 421.9 468.8 424 496.8 Z" data-holc_grade="B"/>
<path d="M 1296.8 929.4 1294.6 938.4 1295.1 940.1 1294.5 939.9 1293.6 941.1 1292.8 942.3 1292 943.6 1291.3 945 1290.6 946.3 1290 947.7 1289.5 949.1 1289 950.5 1288.6 952 1287.3 955.4 1286.1 957.6 1285 959.4 1283.6 961.5 1282.3 963.3 1260.7 971.9 1259.8 972.9 1258.9 973.9 1258.2 975 1257.7 976.1 1257.2 977.3 1256.9 978.5 1256.7 979.7 1256.7 980.9 1256.8 982.1 1257.1 983.3 1257.5 984.4 1258 985.6 1258.7 986.7 1276.3 1016.6 1183 1022.8 1181.1 971.5 1180 934.8 1178.4 921.4 1186.9 919.4 1196.5 919.2 1206.1 919.1 1212.1 948.3 1217.4 948.5 1222.8 948.6 1228.2 948.6 1233.6 948.5 1239 948.2 1244.4 947.9 1249.7 947.4 1255.1 946.8 1260.4 946.2 1262.6 944.4 1264.8 942.7 1266.9 940.8 1268.8 938.9 1270.7 936.9 1272.5 934.9 1274.1 932.8 1275.7 930.7 1296.8 929.4 Z" data-holc_grade="B"/>
<path d="M 1470.5 1553.3 1503.4 1583.4 1508.2 1589.1 1493.8 1601.8 1469.8 1650 1467.5 1656 1431.1 1640.2 1400.4 1625.8 1394.6 1627.6 1319.8 1628.1 1324.1 1623.9 1328.4 1619.7 1332.9 1615.6 1337.5 1611.6 1342.1 1607.7 1346.9 1603.8 1351.8 1600 1356.8 1596.4 1361.9 1592.7 1367.1 1589.2 1372.4 1585.8 1377.8 1582.5 1383.2 1579.2 1388.8 1576.1 1394.4 1573 1400.1 1570 1405.9 1567.2 1411.8 1564.4 1417.7 1561.7 1423.8 1559.1 1429.8 1556.7 1436 1554.3 1442.2 1552.1 1455.8 1563.5 1470.5 1553.3 Z" data-holc_grade="B"/>
<path d="M 1336.3 1745.1 1337.7 1742.6 1338.8 1743.1 1369.1 1755.6 1372.9 1759.5 1373.7 1762.6 1376 1772.2 1377.7 1775 1375.8 1776.3 1367.8 1778.8 1314.4 1820 1303.5 1810.2 1299.6 1807 1325.8 1761.8 1336.3 1745.1 Z" data-holc_grade="B"/>
<path d="M 1469.2 1867.3 1498.6 1882.8 1526.6 1896.5 1557.4 1904.1 1593.2 1913 1586.2 1922 1604.1 1952.8 1602.1 1956.9 1594.5 1965.7 1583 1976 1572.3 1984.1 1563.5 1989.1 1552.4 1994 1542.4 1997.1 1541.4 1996.7 1537 1986.9 1533.8 1982.9 1529.8 1982.8 1520.3 1987.5 1485.2 1987.8 1468.4 1986.6 1465.4 1985.6 1462.6 1984.6 1460 1983.6 1458.8 1983 1457.6 1982.5 1456.5 1981.9 1455.5 1981.3 1454.5 1980.8 1453.6 1980.2 1452.7 1979.6 1451.9 1979.1 1451.2 1978.5 1450.5 1977.9 1449.9 1977.3 1449.3 1976.7 1448.8 1976.1 1448.4 1975.5 1448.1 1974.9 1447.8 1974.3 1447.5 1973.7 1447.4 1973 1447.2 1972.4 1447.2 1971.8 1447.2 1971.2 1447.3 1970.5 1447.4 1969.9 1447.6 1969.3 1447.9 1968.7 1448.2 1968 1452.1 1964 1457.3 1960.5 1446.7 1929.3 1433.8 1906 1418.1 1871.1 1417.2 1868.4 1422.5 1863 1425 1862.8 1426.7 1863.7 1429.6 1866.1 1432.6 1866.1 1459.2 1878.6 1460.5 1878.3 1469.2 1867.3 Z" data-holc_grade="B"/>
<path d="M 1468.1 767.3 1496 766.3 1497.9 801.8 1474.2 803 1464 805 1466.1 816.4 1461.7 819.3 1445.3 818.3 1440 820.3 1423.6 829.5 1403.9 842.4 1401.1 842.7 1398.4 843 1395.8 843.4 1393.4 843.8 1391 844.3 1388.7 844.8 1386.6 845.4 1384.5 845.9 1382.6 846.6 1380.8 847.2 1379 847.9 1377.4 848.7 1375.9 849.4 1374.5 850.2 1373.3 851.1 1372.1 852 1371 852.9 1370.1 853.9 1369.2 854.9 1368.5 855.9 1367.9 857 1367.4 858.1 1366.9 859.3 1366.6 860.5 1366.5 861.7 1366.4 862.9 1366.4 864.3 1366.5 865.6 1366.8 867 1367.1 868.4 1367.6 869.9 1368.2 871.4 1368.4 872.6 1368.4 873.8 1368.4 875 1368.2 876.2 1367.8 877.4 1367.3 878.5 1366.7 879.6 1366 880.7 1365.2 881.7 1364.2 882.6 1363.2 883.5 1362 884.3 1360.8 885 1358.3 885.5 1355.8 886 1353.4 886.7 1351 887.6 1348.7 888.5 1346.4 889.5 1344.2 890.6 1342.1 891.8 1340.1 893 1338.2 894.4 1336.4 895.9 1334.6 897.4 1333 899 1331.5 900.7 1330.1 902.4 1328.9 904.2 1327.7 906 1326.7 907.9 1325.9 909.8 1325.7 913.4 1320 922.9 1320.6 927.5 1323.7 933.7 1324 938.7 1321.2 940.1 1303.8 941.2 1299.1 941.3 1295.1 940.1 1294.6 938.4 1296.8 929.4 1296.4 923 1294.5 916.3 1292 911.6 1290 907.3 1289.2 902.1 1288.3 897.4 1291.7 894.2 1293.1 890.7 1298.2 880.9 1301.4 875.7 1306.2 870.8 1308.3 864.3 1307.3 858.5 1303.4 837.1 1333.5 816.2 1331 798.2 1330.7 796 1350.9 756.9 1349.3 747.6 1364.7 744 1370.3 749.7 1377 753.7 1378.6 756.1 1378.7 758.4 1377.8 759.9 1376 761.4 1372.2 763.5 1369.9 765.3 1367.4 766.7 1366.2 767.8 1363.8 768.9 1361.7 770 1351.7 794.3 1351.1 796.9 1351.2 801.7 1351.8 805.7 1352.8 808.4 1353.8 811 1355 812.7 1357.2 814.5 1359.6 816 1361.2 816.7 1363.7 818.3 1364.3 820.2 1364.4 821.8 1367.8 825.6 1369.9 827.2 1371.2 828.3 1382.6 828.4 1407.6 810.6 1419.2 792.4 1442.9 781.3 1447.2 779.1 1457.6 767.1 1468.1 767.3 Z" data-holc_grade="B"/>
<path d="M 1754.6 1527.8 1728.1 1528.2 1721.9 1526.8 1703.9 1525.8 1685.9 1525.8 1752.9 1456.5 1765.7 1457.3 1786.6 1458.7 1813 1458.9 1802.9 1469.2 1803.1 1475.5 1806.9 1482.6 1813.4 1491.3 1814.7 1498.9 1819.7 1517.4 1810 1518.9 1805.3 1521.2 1798.8 1523.8 1780.8 1526.5 1754.6 1527.8 Z" data-holc_grade="B"/>
<path d="M 703.9 416.6 725.6 415.9 727 418.5 731.3 493 733 519.9 689.5 521.2 688.4 503.7 687 483.8 685.3 457.2 523.8 464.3 456.5 466.6 454.7 431.5 455.3 428.9 475.4 428 476 420.5 477.2 418.5 519.9 415.6 521.3 424.3 524 425.4 587.6 421.9 682.4 418 703.9 416.6 Z" data-holc_grade="B"/>
<path d="M 743.1 685.2 695.9 687.5 598.9 692 490 696.6 418 699.4 414.2 629.1 413.6 618.8 408.7 564.2 407.5 545.7 428.1 545.4 431 551 469.3 549.3 471.2 556 706.8 544.1 734.4 542.7 737.5 573.3 739.6 615 743.1 685.2 Z" data-holc_grade="B"/>
<path d="M 782.3 414 784.3 447.8 789 515 789.3 518.5 791.2 543.3 795.1 595.2 797.8 643.7 807.7 644 809.2 682.2 743.1 685.2 739.6 615 737.5 573.3 734.4 542.7 733 519.9 731.3 493 727 418.5 725.6 415.9 703.9 416.6 703.1 404 723 405.6 755.6 397.2 761 393.2 780.9 391.9 782.3 414 Z" data-holc_grade="B"/>
<path d="M 940.6 407.1 908.7 408.7 804 413 782.3 414 780.9 391.9 820.6 389.1 835.3 387.1 885.7 376.3 938.4 366.2 940.6 407.1 Z" data-holc_grade="B"/>
<path d="M 809.2 682.2 807.7 644 851.9 642.7 897.8 640.2 940.6 639.3 975.7 637.4 1017.5 635.5 1026 635.3 1026.5 662.4 954.3 672 902.1 678.9 850.2 680.9 809.2 682.2 Z" data-holc_grade="B"/>
<path d="M 1180 388.8 1178.4 384.1 1084.6 395.8 1086.1 403.5 1034.8 408.7 1034.5 403 980.5 405.2 980.7 396.8 1023.1 396.6 1022.9 383.5 1033.3 382.1 1135.7 368.4 1252.6 353.6 1278.8 349.8 1283.7 375.6 1181 388.7 1180 388.8 Z" data-holc_grade="B"/>
<path d="M 922.3 1337.1 901.7 1331.7 911.5 1318.7 917.3 1320.1 930.5 1327.5 922.3 1337.1 Z M 620 1070.9 627.6 1184.3 470.3 1191.2 323.8 1198.1 332.4 1310.9 337.1 1388.1 339.2 1421.3 342.3 1460.7 343.3 1468.7 339.7 1487.6 247.7 1490.1 245 1489.1 242.3 1488.1 239.8 1487.1 237.3 1486 234.9 1485 232.6 1483.9 230.3 1482.8 228.1 1481.6 226.1 1480.6 224.2 1479.5 222.2 1478.3 220.2 1477.1 216.6 1474.8 208.5 1469.4 206.3 1468 204.2 1466.7 201.6 1465.3 199 1464 196.4 1462.8 193.7 1461.6 191.7 1460.9 189.8 1460.2 187.7 1459.6 185.6 1458.9 183.4 1458.3 181.1 1457.7 178.7 1457.2 176.3 1456.6 173.7 1456.1 171 1455.6 168.2 1455.1 165.4 1454.6 162.4 1454.2 159.2 1453.8 156 1453.3 152.7 1452.9 76.7 1452.3 70.8 1359.6 91.7 1359 77.4 1132.9 98.1 1131.8 92.6 1054.8 136.7 1053.4 135 1015.8 156.8 1014.5 155.3 975.9 240.2 972.3 243.3 1009.5 246 1010.7 264 1010.1 265.1 1011.6 268.8 1048 309.8 1046.5 311.4 1048.5 314.5 1085.2 557 1073.9 620 1070.9 Z" data-holc_grade="B"/>
</g>
<g id="C">
<path d="M 426.9 533.4 425.2 516.9 426.7 515.4 562.5 509.2 688.4 503.7 689.5 521.2 654.2 523 576.6 526.1 426.9 533.4 Z M 424 496.8 421.9 468.8 456.5 466.6 523.8 464.3 685.3 457.2 687 483.8 631.7 486.6 424 496.8 Z" data-holc_grade="C"/>
<path d="M 1802.3 160.9 1750.9 167 1739.1 108.9 1728.3 53.4 1778.1 47.6 1798.9 45.1 1807.5 44.1 1825.5 41.9 1856.3 38 1862.7 37.1 1874.1 90.3 1890.8 166.5 1825.4 176.2 1822.2 175.1 1819.2 158.9 1802.3 160.9 Z M 1830.6 70.2 1827.8 54.8 1801.7 57.6 1804.8 74 1830.6 70.2 Z" data-holc_grade="C"/>
<path d="M 2067.8 28.6 2100.3 25.3 2104.1 42.4 2134.9 39.3 2138.9 57.4 2156.5 55.8 2174.9 148.1 2173.7 150.3 2130.6 156.5 2128.1 154.4 2114.8 90.1 2106.8 82.1 2079.4 85.3 2070.7 41.3 2067.8 28.6 Z" data-holc_grade="C"/>
<path d="M 1441.9 668.7 1433.8 631 1170.7 666.1 1169.8 666.2 1165.7 666.8 1138.2 670.4 1133.8 669.6 1129.3 650.1 1134.7 649.4 1142 647.9 1151 646.6 1168.8 644.4 1166.2 630.7 1234.7 627.4 1233.8 622.4 1235.4 620.7 1285.7 613.3 1277.1 573.4 1397.2 557.6 1398.9 555.8 1384.2 482 1386.1 481.8 1423.2 476.8 1425 479 1450.2 608 1462.2 666.3 1441.9 668.7 Z" data-holc_grade="C"/>
<path d="M 1331 798.2 1164.4 821.2 1155.3 772.7 1342 748.1 1349.3 747.6 1350.9 756.9 1330.7 796 1331 798.2 Z M 1496 766.3 1468.1 767.3 1443 743.3 1439.7 737.6 1424.8 726.4 1453.1 723.1 1499.7 717.2 1520.8 714.4 1529.8 752.5 1529.8 759.7 1501.8 766.1 1496 766.3 Z" data-holc_grade="C"/>
<path d="M 1573.1 573.7 1584.1 626.2 1588.9 649.4 1489.3 662.4 1486.8 652.4 1484.7 641.3 1478.6 608.9 1474.3 586.4 1573.1 573.7 Z M 1502 605.9 1507.8 638.3 1566.8 630.7 1567.6 630.3 1561 598.4 1502 605.9 Z" data-holc_grade="C"/>
<path d="M 238.5 935.5 240.2 972.3 155.3 975.9 156.8 1014.5 135 1015.8 136.7 1053.4 92.6 1054.8 98.1 1131.8 77.4 1132.9 91.7 1359 70.8 1359.6 62.1 1241.3 44 954.1 109.5 950.8 108.3 930.8 43.8 932.3 41.7 931.6 39.3 867.8 191.5 860 192 897.1 232.7 897.2 234.8 898.4 238.5 935.5 Z" data-holc_grade="C"/>
<path d="M 761.4 913.5 651.6 917.5 650.1 888.2 748.2 885.3 881 879.6 881.8 908 761.4 913.5 Z M 647.1 868.1 644.5 841.4 878 831.7 879.2 859.5 877 861 647.1 868.1 Z M 1169.6 858.6 1141.9 861 1128.4 863.3 1112.8 867.5 1007.6 896 979.7 903.5 905 906.9 902.8 879 952.3 876.9 951.7 857.6 905.3 858.8 903 857.4 902 830.7 1057.2 823.9 1079.8 832.7 1164.4 821.2 1163.2 823.5 1169.6 858.6 Z" data-holc_grade="C"/>
<path d="M 958.8 980 899.9 983.1 900.6 1021.8 880 1022.6 881.4 1059.7 861 1060.8 837.9 1045.3 834.9 1045.5 814.9 1038 811.5 978.6 808 948.3 764.5 950.2 761.4 913.5 881.8 908 905 906.9 979.7 903.5 1007.6 896 1011.2 941.8 1006 947.8 1003.7 952.7 998.7 955.3 993.8 957.2 986.9 957.3 983 956.7 979.3 955.9 975.2 955.6 970.8 956.5 965.8 958.6 962.7 960.1 958.4 962.7 957 966 958.1 973.8 958.8 980 Z" data-holc_grade="C"/>
<path d="M 1139.2 1694.6 1141.6 1796.1 1139.4 1798.5 967.1 1800.6 964.5 1802.3 967.5 1950.6 969.1 1971.8 953.3 1971.9 977.8 1989.7 1003 2007 910 2008 795.3 2008 792.6 1964.3 790.7 1913.8 762.3 1829 766 1727.1 793.9 1728.8 800.3 1730.6 853.5 1731.6 924 1727.4 973 1728.3 974.5 1726.7 972.5 1667.2 1016.7 1678.4 1058.2 1686.2 1100.7 1696.3 1102.5 1695.9 1102.8 1686.7 1139.2 1694.6 Z" data-holc_grade="C"/>
<path d="M 1296.8 929.4 1275.7 930.7 1274.1 932.8 1272.5 934.9 1270.7 936.9 1268.8 938.9 1266.9 940.8 1264.8 942.7 1262.6 944.4 1260.4 946.2 1255.1 946.8 1249.7 947.4 1244.4 947.9 1239 948.2 1233.6 948.5 1228.2 948.6 1222.8 948.6 1217.4 948.5 1212.1 948.3 1206.1 919.1 1196.5 919.2 1187 874.2 1172.7 875.1 1169.6 858.6 1163.2 823.5 1164.4 821.2 1331 798.2 1333.5 816.2 1303.4 837.1 1307.3 858.5 1308.3 864.3 1306.2 870.8 1301.4 875.7 1298.2 880.9 1293.1 890.7 1291.7 894.2 1288.3 897.4 1289.2 902.1 1290 907.3 1292 911.6 1294.5 916.3 1296.4 923 1296.8 929.4 Z" data-holc_grade="C"/>
<path d="M 1034.8 408.7 1036 427.7 1036.1 428.2 1041.8 503.7 1041.9 505.4 942 510.7 789.3 518.5 789 515 784.3 447.8 782.3 414 804 413 908.7 408.7 940.6 407.1 967.9 405.8 980.5 405.2 1034.5 403 1034.8 408.7 Z" data-holc_grade="C"/>
<path d="M 1381.8 1104.3 1380.6 1111.3 1378.4 1115.8 1374.8 1118.4 1373.4 1118.8 1372 1119.2 1370.7 1119.7 1369.5 1120.2 1368.4 1120.8 1367.3 1121.4 1366.3 1122.1 1365.4 1122.8 1364.7 1123.4 1364 1124.1 1363.3 1124.8 1362.8 1125.6 1362.3 1126.4 1361.8 1127.2 1361.4 1128.1 1361.1 1129 1360.7 1130 1360.5 1131.1 1360.3 1132.2 1360.1 1133.3 1360 1134.5 1359.9 1135.8 1359.9 1137.1 1360 1138.5 1360.2 1140.9 1360.5 1143.7 1360.9 1146.4 1362 1153.2 1362.3 1155.1 1362.5 1156.8 1323.6 1161.7 1321 1157.3 1319.6 1156.4 1318.4 1155.4 1317.3 1154.4 1316.2 1153.3 1315.3 1152.1 1314.6 1150.9 1313.9 1149.6 1313.4 1148.3 1313.1 1147 1312.8 1145.6 1312.8 1144.3 1312.8 1142.9 1313 1141.5 1313.4 1140.2 1313.9 1138.9 1314.5 1137.6 1317.8 1135.5 1320.5 1134.4 1323.2 1133.2 1325.8 1131.9 1328.3 1130.5 1330.8 1129.1 1333.2 1127.6 1335.5 1126 1337.1 1124 1338 1122.5 1338.7 1121.1 1339.4 1119.6 1339.8 1118 1340.2 1116.4 1340.4 1114.9 1340.5 1113.3 1333.9 1100.9 1333.9 1099.1 1334 1097.3 1334.2 1095.5 1334.5 1093.7 1335 1092 1335.5 1090.3 1336.2 1088.5 1337 1086.9 1337.9 1085.2 1342.1 1081 1343.9 1073.9 1346.7 1067.2 1348.4 1061 1347.3 1056.1 1342.4 1048.2 1342.3 1036.7 1343.1 1030.7 1342.1 1028.2 1323.3 1018.5 1318.4 1018.6 1312.8 1021.2 1307.2 1021.4 1299.7 1018.5 1291.6 1016.8 1276.3 1016.6 1258.7 986.7 1258 985.6 1257.5 984.4 1257.1 983.3 1256.8 982.1 1256.7 980.9 1256.7 979.7 1256.9 978.5 1257.2 977.3 1257.7 976.1 1258.2 975 1258.9 973.9 1259.8 972.9 1260.7 971.9 1282.3 963.3 1283.6 961.5 1285 959.4 1286.1 957.6 1287.3 955.4 1288.6 952 1289 950.5 1289.5 949.1 1290 947.7 1290.6 946.3 1291.3 945 1292 943.6 1292.8 942.3 1293.6 941.1 1294.5 939.9 1295.1 940.1 1299.1 941.3 1303.8 941.2 1321.2 940.1 1324 938.7 1323.7 933.7 1320.6 927.5 1320 922.9 1325.7 913.4 1325.9 909.8 1326.8 910.2 1367.4 908 1367.6 915.6 1364.3 918.3 1346.9 925.8 1363.8 958.7 1375.2 973.7 1442 970.1 1442.5 977.5 1447.8 1042.1 1440 1045.4 1423.6 1049.9 1412.1 1062.3 1411 1066.3 1407.6 1071.5 1389.9 1086.3 1383.1 1097.7 1381.8 1104.3 Z" data-holc_grade="C"/>
<path d="M 1439 1439.1 1433.3 1464.1 1419.4 1463.6 1414.9 1461.4 1411.5 1460.9 1407.4 1462 1404.3 1464.4 1403.1 1466.9 1403.4 1470.2 1383.1 1469.6 1387.9 1528.5 1391 1529 1493.1 1527.2 1493.3 1529.1 1442.2 1552.1 1436 1554.3 1429.8 1556.7 1423.8 1559.1 1417.7 1561.7 1411.8 1564.4 1405.9 1567.2 1400.1 1570 1394.4 1573 1388.8 1576.1 1383.2 1579.2 1377.8 1582.5 1372.4 1585.8 1367.1 1589.2 1361.9 1592.7 1356.8 1596.4 1351.8 1600 1346.9 1603.8 1342.1 1607.7 1337.5 1611.6 1332.9 1615.6 1328.4 1619.7 1324.1 1623.9 1319.8 1628.1 1267 1628.4 1264.8 1627.2 1263.4 1598.2 1258.9 1595.6 1147 1596.5 1147.3 1595.5 1147.7 1592.5 1148 1589.6 1148.1 1586.6 1148.1 1583.6 1147.9 1580.7 1147.7 1577.7 1147.2 1574.7 1146.7 1571.8 1146 1568.9 1145.2 1566 1144.2 1563.1 1143.1 1560.3 1156.2 1560.3 1155.4 1494.2 1155.2 1481.3 1154.9 1456.8 1154.3 1406.5 1156 1350.9 1157.6 1349.6 1159.4 1348.4 1161.2 1347.3 1163.1 1346.3 1165.1 1345.4 1167.2 1344.6 1169.3 1343.9 1171.5 1343.3 1173.7 1342.8 1176 1342.4 1178.2 1342.1 1180.5 1341.9 1182.8 1341.9 1185.1 1341.9 1187.4 1342.1 1189.7 1342.4 1192 1342.8 1194.2 1343.3 1196.3 1343.9 1198.5 1344.6 1200.5 1345.4 1202.5 1346.3 1204.4 1347.3 1206.3 1348.4 1208 1349.6 1209.7 1350.9 1211.2 1352.2 1212.7 1353.7 1214 1355.2 1254.1 1334.9 1267.7 1346.4 1274.9 1350.1 1276.4 1350.9 1278 1351.5 1279.7 1352.1 1281.4 1352.6 1283.1 1353 1284.9 1353.3 1286.7 1353.5 1288.5 1353.6 1290.3 1353.6 1292.1 1353.5 1293.9 1353.3 1295.6 1353 1297.4 1352.6 1299.1 1352.1 1312.7 1341 1325.1 1332.6 1328.4 1334.8 1335.4 1342.2 1347.3 1348 1364.5 1355 1371.8 1358.9 1376.9 1366.7 1375.1 1392.2 1379.5 1401.3 1387.4 1404 1396.5 1405.9 1406.4 1406 1410.4 1406.3 1413.6 1407.9 1414 1410.9 1414.4 1415.2 1430.8 1432.3 1432 1434.9 1439 1439.1 Z" data-holc_grade="C"/>
<path d="M 1655.7 1514.4 1607.1 1565.4 1592.3 1578.7 1582.7 1573.8 1542.2 1601.4 1516.4 1649.2 1504.2 1669.3 1509.6 1672.6 1501.6 1684 1451.6 1749.3 1414.4 1799 1376.8 1849.7 1359.5 1867.2 1325.3 1900 1303.4 1922.3 1272 1939.1 1262.1 1945.1 1157.6 1980.9 1107.2 1943.8 1109.4 1942.3 1111.2 1942.5 1137.3 1929.8 1161.1 1913.5 1185.7 1891.9 1241.7 1845.2 1248.4 1836.2 1258.2 1813 1261.1 1797.7 1263 1782.5 1266.9 1763.1 1275.4 1765.5 1305.1 1731.7 1307 1729.4 1341.4 1690.2 1394.6 1627.6 1400.4 1625.8 1431.1 1640.2 1467.5 1656 1469.8 1650 1493.8 1601.8 1508.2 1589.1 1503.4 1583.4 1470.5 1553.3 1474.5 1550.6 1492 1542.7 1512.6 1532.1 1525.7 1523.1 1535.3 1513 1593.7 1494 1599.3 1525.2 1600.6 1526 1624.1 1521.4 1655.7 1514.4 Z M 1336.3 1745.1 1325.8 1761.8 1299.6 1807 1303.5 1810.2 1314.4 1820 1367.8 1778.8 1375.8 1776.3 1377.7 1775 1376 1772.2 1373.7 1762.6 1372.9 1759.5 1369.1 1755.6 1338.8 1743.1 1337.7 1742.6 1336.3 1745.1 Z" data-holc_grade="C"/>
<path d="M 1469.2 1867.3 1460.5 1878.3 1459.2 1878.6 1432.6 1866.1 1429.6 1866.1 1426.7 1863.7 1425 1862.8 1422.5 1863 1417.2 1868.4 1418.1 1871.1 1433.8 1906 1446.7 1929.3 1457.3 1960.5 1452.1 1964 1448.2 1968 1447.9 1968.7 1447.6 1969.3 1447.4 1969.9 1447.3 1970.5 1447.2 1971.2 1447.2 1971.8 1447.2 1972.4 1447.4 1973 1447.5 1973.7 1447.8 1974.3 1448.1 1974.9 1448.4 1975.5 1448.8 1976.1 1449.3 1976.7 1449.9 1977.3 1450.5 1977.9 1451.2 1978.5 1451.9 1979.1 1452.7 1979.6 1453.6 1980.2 1454.5 1980.8 1455.5 1981.3 1456.5 1981.9 1457.6 1982.5 1458.8 1983 1460 1983.6 1462.6 1984.6 1465.4 1985.6 1468.4 1986.6 1485.2 1987.8 1520.3 1987.5 1529.8 1982.8 1533.8 1982.9 1537 1986.9 1541.4 1996.7 1542.4 1997.1 1552.4 1994 1563.5 1989.1 1572.3 1984.1 1583 1976 1594.5 1965.7 1602.1 1956.9 1604.1 1952.8 1586.2 1922 1593.2 1913 1597.1 1913.6 1678.3 1934.7 1673.4 1942.9 1663.1 1970.1 1656.6 1992.4 1649.5 2006.1 1614 2007 1466.1 2008.1 1414.6 2007.2 1157.9 2006.3 1303.1 1957 1322.4 1937.7 1353.1 1908.9 1375.6 1889.8 1408 1860.6 1418.9 1845.4 1469.2 1867.3 Z" data-holc_grade="C"/>
<path d="M 1676.7 757.3 1544.4 861.9 1516.8 879.4 1490.9 901.3 1486 901.6 1367.4 908 1326.8 910.2 1325.9 909.8 1326.7 907.9 1327.7 906 1328.9 904.2 1330.1 902.4 1331.5 900.7 1333 899 1334.6 897.4 1336.4 895.9 1338.2 894.4 1340.1 893 1342.1 891.8 1344.2 890.6 1346.4 889.5 1348.7 888.5 1351 887.6 1353.4 886.7 1355.8 886 1358.3 885.5 1360.8 885 1362 884.3 1363.2 883.5 1364.2 882.6 1365.2 881.7 1366 880.7 1366.7 879.6 1367.3 878.5 1367.8 877.4 1368.2 876.2 1368.4 875 1368.4 873.8 1368.4 872.6 1368.2 871.4 1367.6 869.9 1367.1 868.4 1366.8 867 1366.5 865.6 1366.4 864.3 1366.4 862.9 1366.5 861.7 1366.6 860.5 1366.9 859.3 1367.4 858.1 1367.9 857 1368.5 855.9 1369.2 854.9 1370.1 853.9 1371 852.9 1372.1 852 1373.3 851.1 1374.5 850.2 1375.9 849.4 1377.4 848.7 1379 847.9 1380.8 847.2 1382.6 846.6 1384.5 845.9 1386.6 845.4 1388.7 844.8 1391 844.3 1393.4 843.8 1395.8 843.4 1398.4 843 1401.1 842.7 1403.9 842.4 1423.6 829.5 1440 820.3 1445.3 818.3 1461.7 819.3 1466.1 816.4 1464 805 1474.2 803 1497.9 801.8 1496 766.3 1501.8 766.1 1529.8 759.7 1529.8 752.5 1566.5 751.2 1575.2 750 1592.6 748.9 1594 759.7 1597.9 760.7 1638.6 758.1 1669 756.3 1676.7 757.3 Z" data-holc_grade="C"/>
<path d="M 1486 901.6 1489.7 942.4 1665.3 932.5 1671.1 986.6 1716.5 984 1712.3 920.5 1734.7 919.8 1737.6 950.6 1760.5 950.3 1765 1014.6 1764.1 1015.8 1752.2 1016.2 1760.1 1080.5 1751.5 1081.2 1755.8 1113.4 1681 1118.2 1674.6 1055.1 1624.6 1058 1620.7 1058.2 1535.6 1063.1 1451.1 1068.3 1453.6 1100.6 1381.8 1104.3 1383.1 1097.7 1389.9 1086.3 1407.6 1071.5 1411 1066.3 1412.1 1062.3 1423.6 1049.9 1440 1045.4 1447.8 1042.1 1442.5 977.5 1442 970.1 1375.2 973.7 1363.8 958.7 1346.9 925.8 1364.3 918.3 1367.6 915.6 1367.4 908 1486 901.6 Z M 1652 820.5 1657.2 861.8 1659.1 876.9 1661.3 894.9 1662.8 907.1 1663 915.1 1529.3 923.4 1531 920.2 1599.2 864.4 1652 820.5 Z" data-holc_grade="C"/>
<path d="M 1755.8 1113.4 1762.7 1164.1 1764.5 1178.3 1763.1 1180.7 1751.8 1181.8 1759.6 1284 1760.6 1312.4 1697 1315.6 1701.9 1361.7 1692.3 1362.9 1680.7 1363.8 1657.5 1364.8 1653.3 1365.7 1613.9 1343.8 1592.1 1323.3 1573.4 1322.2 1519.1 1324.8 1513.1 1260.7 1557.5 1258.5 1559.5 1258.4 1553.1 1193.4 1518.1 1195.6 1466.7 1197.7 1465.3 1195.5 1460.2 1167.7 1459.3 1166 1361.5 1171.2 1360.4 1169.3 1360.8 1168.8 1361.1 1168.3 1361.4 1167.7 1361.7 1167.1 1361.9 1166.4 1362.1 1165.7 1362.3 1165 1362.5 1164.3 1362.6 1162.7 1362.7 1160.9 1362.7 1159 1362.5 1156.8 1362.3 1155.1 1362 1153.2 1360.9 1146.4 1360.5 1143.7 1360.2 1140.9 1360 1138.5 1359.9 1137.1 1359.9 1135.8 1360 1134.5 1360.1 1133.3 1360.3 1132.2 1360.5 1131.1 1360.7 1130 1361.1 1129 1361.4 1128.1 1361.8 1127.2 1362.3 1126.4 1362.8 1125.6 1363.3 1124.8 1364 1124.1 1364.7 1123.4 1365.4 1122.8 1366.3 1122.1 1367.3 1121.4 1368.4 1120.8 1369.5 1120.2 1370.7 1119.7 1372 1119.2 1373.4 1118.8 1374.8 1118.4 1378.4 1115.8 1380.6 1111.3 1381.8 1104.3 1453.6 1100.6 1451.1 1068.3 1535.6 1063.1 1620.7 1058.2 1624.6 1058 1674.6 1055.1 1681 1118.2 1755.8 1113.4 Z M 1551.2 1119.2 1552.9 1135.2 1633.6 1129.9 1631.5 1113.3 1629.3 1113.4 1551.2 1119.2 Z" data-holc_grade="C"/>
<path d="M 2119.7 1513.1 2060.2 1530.6 2029.4 1539.2 2019.6 1543.1 1940.4 1575.2 1936.2 1574.4 1934.7 1572.5 1928.6 1534.2 1929.3 1531.8 1943.2 1528 1949.6 1525.1 1967.6 1519.9 1969 1514.6 2012.6 1500.8 2017.3 1503.9 2057.3 1483.5 2078.9 1473 2094.5 1468 2119.7 1513.1 Z" data-holc_grade="C"/>
<path d="M 2183.8 1660.3 2180.7 1662.5 2143.3 1672.5 2103.6 1683.2 2063.4 1693.4 2020.6 1595.6 1941.2 1616.5 1925.4 1583 1928.5 1579.5 1927.9 1578.2 1936.2 1574.4 1940.4 1575.2 2019.6 1543.1 2029.4 1539.2 2060.2 1530.6 2119.7 1513.1 2120.3 1514.3 2126.4 1526.4 2159.3 1604.5 2183.8 1660.3 Z" data-holc_grade="C"/>
<path d="M 2275.8 1917.6 2277.1 1917.7 2278.5 1917.8 2279.9 1917.8 2281.2 1917.7 2282.6 1917.4 2283.9 1917.1 2285.1 1916.7 2286.3 1916.2 2287.4 1915.5 2288.5 1914.8 2289.4 1914.1 2290.3 1913.2 2291 1912.3 2291.7 1911.4 2292.2 1910.3 2292.6 1909.3 2292.8 1908.2 2324.4 1915.8 2315.1 1945.2 2302.6 1969.4 2271.3 1964.1 2265.5 1980.4 2236.1 1973.1 2205.1 1965.5 2213.4 1923.4 2216.5 1924 2225.8 1905.3 2233.9 1900.7 2237.6 1901.3 2265.9 1914.3 2275.8 1917.6 Z" data-holc_grade="C"/>
<path d="M 1041.8 503.7 1036.1 428.2 1036 427.7 1089.9 420.3 1105.6 419 1108 454.5 1111.9 500.6 1041.8 503.7 Z" data-holc_grade="C"/>
<path d="M 2612.9 1590.4 2580.1 1625.4 2542.1 1603.9 2506.8 1642.6 2389.3 1573.4 2429.9 1464 2473.9 1488.9 2511.4 1510.1 2500.8 1523.7 2613.7 1588.5 2612.9 1590.4 Z" data-holc_grade="C"/>
<path d="M 1111.9 500.6 1108 454.5 1105.6 419 1121.7 416.3 1121.5 406.3 1180.4 399.4 1180.9 391.5 1180 388.8 1181 388.7 1283.7 375.6 1288.4 396.2 1289.3 400.3 1229.9 407.5 1201.1 410.4 1136.3 418.3 1138.6 468.4 1152.1 468.6 1251.6 468.3 1254.7 483.4 1209.5 489.4 1130.8 500.2 1111.9 500.6 Z" data-holc_grade="C"/>
<path d="M 1045.1 560.7 1047 588.4 1049.1 590.1 1072 586.7 1074.7 586.8 1075.7 589 1077.6 596.9 1078.9 598.1 1080.5 597.8 1120.9 593 1131.5 633.5 1133.4 634.2 1166 629.8 1166.2 630.7 1168.8 644.4 1151 646.6 1142 647.9 1134.7 649.4 1129.3 650.1 1120.6 651.2 1074.8 656 1026.5 662.4 1026 635.3 1017.5 635.5 975.7 637.4 940.6 639.3 897.8 640.2 851.9 642.7 807.7 644 797.8 643.7 795.1 595.2 791.2 543.3 900.7 538.6 1043.2 531.1 1045.1 560.7 Z" data-holc_grade="C"/>
<path d="M 1540.1 312 1550.7 361.9 1537.7 363.7 1532.5 364.5 1492.6 369.3 1487 369.5 1430.7 377.8 1404.1 381.2 1372.9 385.3 1312 393.3 1288.4 396.2 1283.7 375.6 1278.8 349.8 1274.7 326.8 1275.8 324.4 1302.4 321.2 1400 308.4 1439.8 303 1475 298.2 1497.9 295.7 1503.6 295.1 1505.1 297.7 1507.2 298.1 1508.8 298.7 1536.5 294.8 1540.1 312 Z M 1505.8 328.7 1499.8 300.1 1499.1 299.2 1440.7 306.2 1446.7 335 1447.8 335.1 1505.8 328.7 Z" data-holc_grade="C"/>
<path d="M 1594.1 71.2 1595 74.7 1593.8 74.9 1500.2 86.9 1505.2 112.9 1451.3 119.3 1391.6 126.5 1371.9 129.1 1374.4 145 1509.3 128.1 1541.3 124.3 1539.9 115.5 1601.8 107.1 1606.1 126.2 1506.7 140.1 1517.2 196.9 1451.8 205.8 1447.3 186.5 1369.9 196 1313.6 203.6 1309.9 187.6 1306.8 185.4 1281.8 188.4 1280.8 187.4 1278.4 168.4 1304 165.2 1300.6 146.5 1319.2 144 1316.4 133.1 1316.3 128.5 1312.5 109.6 1308.5 89.2 1303.5 58 1385.1 47 1399.9 114.5 1402 114.2 1404.1 113.9 1406.2 113.5 1408.2 113 1410.3 112.4 1412.2 111.7 1416.3 110.6 1420.4 109.4 1424.4 108.2 1428.4 106.8 1432.3 105.3 1436.1 103.7 1439.8 102 1443.5 100.3 1447.2 98.4 1450.7 96.4 1454.2 94.4 1457.6 92.3 1460.9 90.1 1464.1 87.8 1467.2 85.4 1470.2 82.9 1473.1 80.4 1475.9 77.8 1478.6 75.1 1496.8 82.6 1499.2 82.3 1561.4 75 1562.2 73.8 1554.5 37.6 1585.5 33.4 1594.1 71.2 Z" data-holc_grade="C"/>
<path d="M 1728.3 53.4 1739.1 108.9 1720.5 111.6 1642 121.8 1606.1 126.2 1601.8 107.1 1593.8 74.9 1595 74.7 1594.1 71.2 1634.9 65.1 1705 55.9 1726 53.2 1728.3 53.4 Z" data-holc_grade="C"/>
<path d="M 1750.9 167 1719.1 172 1740 283.2 1707.7 286.4 1698.3 244.7 1695.7 243.3 1631.8 250.9 1640.5 294.3 1647.9 330.5 1649.9 331.9 1704.7 324.4 1714.8 323.9 1718.7 341.4 1635.9 351.2 1620.8 353.5 1617.6 352.3 1612.5 333.1 1608.8 319 1581.4 321.7 1579.3 321.9 1576.7 321.1 1573.8 307.8 1540.1 312 1536.5 294.8 1529.1 253.9 1594 245.2 1586.1 208.1 1584.3 206.9 1522.1 215.9 1517.2 196.9 1506.7 140.1 1606.1 126.2 1642 121.8 1720.5 111.6 1739.1 108.9 1750.9 167 Z" data-holc_grade="C"/>
<path d="M 720.3 1541.6 775.8 1540.5 771.9 1615.6 744.7 1615.9 722.1 1616.8 724.9 1566.3 720.5 1547.7 720.3 1541.6 Z" data-holc_grade="C"/>
</g>
<g id="D">
<path d="M 1423.2 476.8 1386.1 481.8 1384.2 482 1306.5 491 1289.3 400.3 1288.4 396.2 1312 393.3 1372.9 385.3 1404.1 381.2 1405.7 389 1423.2 476.8 Z" data-holc_grade="D"/>
<path d="M 1795.5 1343.3 1859.5 1373.3 1904.7 1377.4 1891.9 1496.5 1846.6 1498.3 1850.2 1462.4 1849.5 1461.4 1813 1458.9 1786.6 1458.7 1765.7 1457.3 1752.9 1456.5 1767.9 1386 1768.1 1383.7 1768 1383.7 1783.2 1361.3 1783.3 1361.3 1795.5 1343.3 Z M 1794.9 1395.8 1811.2 1403.8 1811.5 1403.4 1826.9 1380.2 1791.1 1364.7 1791 1364.7 1774.8 1386.7 1794.9 1395.8 Z M 1819.9 1403.2 1819.1 1404.1 1817.5 1406.1 1816.5 1407.4 1816.1 1408.3 1814.4 1410.6 1813.1 1412.4 1812.6 1414 1812.5 1416.3 1812.4 1418.8 1813.3 1422.4 1815.4 1425.4 1819.4 1429.2 1822.9 1431.2 1824.9 1432.2 1826.8 1432.8 1828.5 1433.5 1830.3 1433.6 1832.1 1433.5 1833.9 1433.5 1835.5 1433.3 1837.3 1432.8 1839 1432.2 1840.7 1431.3 1842.2 1430.1 1843.4 1429.4 1844.8 1428.1 1846.2 1426.7 1847.2 1425.9 1849.1 1423.3 1850.3 1421.3 1851.5 1419.6 1852.8 1417.2 1853.5 1415.3 1853.8 1413.8 1854 1412.1 1854.4 1409.4 1854.3 1407.7 1854.3 1406.4 1853.5 1404.3 1852.7 1402.6 1851.4 1400.6 1850.4 1399.4 1849.2 1398.5 1847.3 1397.4 1845.6 1396.9 1843.4 1396 1841.1 1395.5 1839.5 1395.3 1838.1 1395.2 1836 1395.3 1833.7 1395.4 1831.2 1396 1829.9 1396.5 1828.6 1397.3 1827.2 1397.8 1825.3 1398.8 1824.4 1399.5 1823.3 1400.3 1821.7 1401.4 1820.9 1402.3 1819.9 1403.2 Z" data-holc_grade="D"/>
<path d="M 1509.6 1672.6 1504.2 1669.3 1516.4 1649.2 1542.2 1601.4 1582.7 1573.8 1592.3 1578.7 1563.4 1605.3 1555.5 1611.9 1520.1 1662.2 1509.6 1672.6 Z M 1754.6 1527.8 1759.3 1582.8 1806 1581.4 1807.8 1579 1827.4 1578.6 1842.6 1575.8 1850.9 1575.1 1906.3 1585.1 1927.9 1578.2 1928.5 1579.5 1925.4 1583 1941.2 1616.5 1880.1 1631.8 1860.7 1583.4 1849.2 1580.9 1847.5 1582.1 1878 1660.6 1814.2 1677.1 1812.9 1680 1752 1695.3 1725.9 1763.6 1695.3 1853.1 1609.1 1837.4 1598.3 1851.3 1557.4 1904.1 1526.6 1896.5 1498.6 1882.8 1469.2 1867.3 1418.9 1845.4 1487.3 1755.9 1531.7 1697.7 1594.3 1615.3 1627.4 1629.6 1655.9 1591.8 1624.1 1591.1 1685.9 1525.8 1703.9 1525.8 1721.9 1526.8 1728.1 1528.2 1754.6 1527.8 Z" data-holc_grade="D"/>
<path d="M 2099.2 1159.8 1882 1174.6 1879.6 1147.8 1863.6 979.3 1867.5 977.5 2018.8 969.5 2098.1 965.3 2099.6 967.2 2104.7 1028.2 2109.6 1084.9 2115.5 1140.2 2098.3 1158.2 2099.2 1159.8 Z" data-holc_grade="D"/>
<path d="M 1882 1174.6 2099.2 1159.8 2109.5 1176.8 2128.2 1171.3 2159.8 1192.1 2147 1252.1 2146 1252.1 2143.4 1264.9 2112.7 1309.9 2093.6 1372.6 2090.9 1385.6 2091.9 1406 2094 1435.1 2104.2 1462.4 2098.9 1466.4 2094.5 1468 2078.9 1473 2057.3 1483.5 2017.3 1503.9 2012.6 1500.8 1977.2 1477.1 1949.2 1493.2 1918.5 1495 1917.9 1495.3 1891.9 1496.5 1904.7 1377.4 1859.5 1373.3 1795.5 1343.3 1795.2 1337.7 1832.4 1282 1882.7 1205.4 1884.7 1204 1882 1174.6 Z" data-holc_grade="D"/>
<path d="M 2012.1 1864 2107 1889.4 2185.4 1918.5 2213.4 1923.4 2205.1 1965.5 2236.1 1973.1 2231.8 1983.4 2228.2 2004.7 2042.6 2004.7 1840.3 2004.1 1836.5 2005.2 1801.2 2005.2 1809.9 1992.4 1819.9 1973.7 1827 1961 1885.9 1977.8 1916.2 1899.1 1922.8 1880.1 1923.1 1851.2 2007.1 1874.7 2012.1 1864 Z" data-holc_grade="D"/>
<path d="M 2108.3 856.3 2200.9 852.8 2207.9 852.8 2215.3 930 2254.5 927.9 2252.1 901.1 2269.5 900.4 2265.1 849.3 2341.8 843.6 2343.7 844.6 2346.6 870.2 2366.4 868.8 2367.2 870.4 2378.8 999.9 2340.8 1002.2 2280.9 1005.3 2285.5 1055 2285 1056.3 2169.9 1063 2160 963.2 2117.7 965.3 2112.4 896.4 2108.3 856.3 Z" data-holc_grade="D"/>
<path d="M 2612.9 1590.4 2613.7 1588.5 2500.8 1523.7 2511.4 1510.1 2473.9 1488.9 2429.9 1464 2389.3 1573.4 2387.6 1577.6 2343 1570.8 2339.3 1570.2 2313.4 1566.3 2236.3 1558.8 2224.2 1605.7 2210.7 1647.9 2148.3 1503.9 2144.4 1492.1 2133.8 1477.4 2118.3 1451.8 2110.6 1433.6 2107.2 1420 2104.8 1398.6 2204.4 1373.9 2263.6 1408.2 2298.9 1370.7 2371.2 1411.6 2451.5 1322.5 2564.7 1386 2654.8 1436.5 2663 1442.6 2665.6 1447.4 2666.4 1450.6 2668.3 1456.3 2675.3 1462.8 2680.6 1466.7 2682.6 1471.6 2683.5 1474.5 2710.1 1491.5 2742.3 1530.7 2911 1582 2999 1610.4 2960.6 1652.9 2833.2 1627.5 2677.7 1601.1 2612.9 1590.4 Z M 2345 1536.5 2348.7 1536.9 2353.7 1507.4 2349.6 1507.4 2344.8 1503.6 2351.5 1470.9 2291.6 1462.9 2280.5 1428.4 2236.2 1446.8 2200.9 1468.2 2254.1 1523.8 2285.8 1528.6 2345 1536.5 Z" data-holc_grade="D"/>
<path d="M 2275.8 1917.6 2265.9 1914.3 2237.6 1901.3 2233.9 1900.7 2225.8 1905.3 2216.5 1924 2213.4 1923.4 2185.4 1918.5 2107 1889.4 2012.1 1864 2022.3 1838.9 2017.3 1837.2 2034.7 1793.8 2054.6 1785.8 2092.1 1795.3 2103.9 1766.4 2114 1762.1 2162.9 1784.3 2168.1 1793.6 2190.8 1787.4 2143.3 1672.5 2180.7 1662.5 2183.8 1660.3 2190.8 1678.8 2239.3 1692.7 2337.6 1717.9 2354.2 1691.5 2367.2 1698 2380.1 1704.7 2392.9 1711.4 2405.7 1718.3 2418.3 1725.2 2430.9 1732.2 2443.5 1739.4 2455.9 1746.6 2468.3 1753.8 2480.5 1761.2 2492.7 1768.7 2504.8 1776.2 2464.4 1822.9 2463.9 1823.9 2463.5 1824.9 2463.1 1825.9 2462.9 1826.8 2462.8 1827.7 2462.8 1828.6 2462.9 1829.4 2463.1 1830.3 2463.4 1830.9 2463.7 1831.6 2464.1 1832.3 2464.6 1833 2465 1833.5 2465.6 1834.1 2468 1836.7 2468.5 1837.3 2468.9 1837.8 2469.3 1838.4 2469.6 1839 2469.8 1839.6 2469.9 1840.2 2469.9 1840.8 2469.9 1841.5 2469.7 1842.2 2469.5 1842.9 2469.2 1843.6 2468.7 1844.3 2468.2 1845.1 2467.6 1845.9 2480.3 1864.8 2469.1 1878.2 2422.3 1819.8 2381.9 1803.9 2352.6 1785.8 2312 1827.5 2277.2 1845.4 2273.4 1860.5 2292.5 1903.9 2292.8 1905 2292.9 1906.1 2292.9 1907.2 2292.8 1908.2 2292.6 1909.3 2292.2 1910.3 2291.7 1911.4 2291 1912.3 2290.3 1913.2 2289.4 1914.1 2288.5 1914.8 2287.4 1915.5 2286.3 1916.2 2285.1 1916.7 2283.9 1917.1 2282.6 1917.4 2281.2 1917.7 2279.9 1917.8 2278.5 1917.8 2277.1 1917.7 2275.8 1917.6 Z" data-holc_grade="D"/>
<path d="M 1453.1 723.1 1424.8 726.4 1355.9 734.5 1354.3 727.7 1172 751.6 1154 753.9 1148.8 726.7 1316 704.8 1406.4 693.1 1401.8 670.7 1399.2 657.1 1374.4 660.4 1377.1 675 1212.9 696.8 1144.2 705.6 1140.5 687.8 1166.9 684.5 1168.5 682.7 1165.7 666.8 1169.8 666.2 1170.7 666.1 1433.8 631 1441.9 668.7 1453.1 723.1 Z M 1269.8 679.7 1266.2 663.3 1172.8 676.7 1172.4 677 1176.2 692.7 1269.8 679.7 Z" data-holc_grade="D"/>
<path d="M 1573.1 573.7 1474.3 586.4 1473.5 586.5 1452.9 487.3 1449.3 469.5 1446.8 457.5 1445.6 451.4 1443 438.5 1430.7 377.8 1487 369.5 1492.6 369.3 1532.5 364.5 1537.7 363.7 1544.1 394.3 1580.8 572.7 1573.1 573.7 Z M 1444.9 438.3 1448 451.1 1462.7 449.3 1460.1 436.3 1444.9 438.3 Z M 1530 446.6 1489.7 451.4 1470.8 454.1 1473.8 466.5 1532.6 459.4 1530 446.6 Z M 1581.4 321.7 1584.1 336.7 1612.5 333.1 1617.6 352.3 1620.8 353.5 1635.9 351.2 1718.7 341.4 1739.8 439.2 1749.8 492.8 1686.2 501.4 1693.8 538.4 1754.5 531.1 1764.2 580.5 1774.1 625.6 1756.8 629 1619.9 645.7 1604.4 568 1564.2 362.6 1550.7 361.9 1540.1 312 1573.8 307.8 1576.7 321.1 1579.3 321.9 1581.4 321.7 Z" data-holc_grade="D"/>
<path d="M 1676.7 757.3 1669 756.3 1638.6 758.1 1597.9 760.7 1594 759.7 1592.6 748.9 1575.2 750 1566.5 751.2 1529.8 752.5 1520.8 714.4 1499.7 717.2 1489.3 662.4 1588.9 649.4 1596.9 648.7 1602.7 676 1584.4 678.3 1589.3 698.9 1568.5 702.2 1570.8 714 1671.9 699.6 1670.4 688.6 1630 693.5 1624.2 667.7 1619.9 645.7 1756.8 629 1774.1 625.6 1784.6 673.5 1765.1 687.5 1758.8 696.1 1722.6 723.8 1715.3 729.4 1693 745.5 1684.3 751.9 1676.7 757.3 Z M 1691.6 699 1697.4 730.6 1712.6 729.6 1722.2 721.1 1718.4 695.8 1691.6 699 Z M 1664.9 740 1666.8 753.3 1682.1 752 1692.7 743.9 1691.6 736.6 1664.9 740 Z" data-holc_grade="D"/>
<path d="M 1802.3 160.9 1819.2 158.9 1822.2 175.1 1825.4 176.2 1890.8 166.5 1874.1 90.3 1862.7 37.1 1856.3 38 1825.5 41.9 1807.5 44.1 1798.9 45.1 1778.1 47.6 1728.3 53.4 1721.3 15.7 1841.1 1 1976.7 92.3 1998.1 187.6 2013.6 266 1982.6 269.8 1979.3 272 1981.9 287.7 1952.5 291.7 1950.7 293.4 1952.8 310.3 1840.5 325.3 1836 325.2 1835.1 323.9 1810 200.3 1802.3 160.9 Z" data-holc_grade="D"/>
<path d="M 1003 2007 977.8 1989.7 953.3 1971.9 969.1 1971.8 967.5 1950.6 964.5 1802.3 967.1 1800.6 1139.4 1798.5 1141.6 1796.1 1139.2 1694.6 1169.6 1701.2 1173.3 1702.4 1267.5 1700.9 1268.8 1715.7 1245.7 1752.8 1246.6 1755.4 1266.9 1763.1 1263 1782.5 1261.1 1797.7 1258.2 1813 1248.4 1836.2 1241.7 1845.2 1185.7 1891.9 1161.1 1913.5 1137.3 1929.8 1111.2 1942.5 1109.4 1942.3 1107.2 1943.8 1157.6 1980.9 1128.4 2005.6 1003 2007 Z" data-holc_grade="D"/>
<path d="M 1581.1 1460.8 1581.4 1463.8 1590.1 1463.2 1593.1 1467.1 1593.6 1475.7 1595.6 1478.6 1596.8 1481.2 1597.4 1483.3 1596.1 1486.1 1594.2 1488.5 1593.7 1494 1535.3 1513 1525.7 1523.1 1512.6 1532.1 1492 1542.7 1474.5 1550.6 1470.5 1553.3 1455.8 1563.5 1442.2 1552.1 1493.3 1529.1 1493.1 1527.2 1391 1529 1387.9 1528.5 1383.1 1469.6 1403.4 1470.2 1403.1 1466.9 1404.3 1464.4 1407.4 1462 1411.5 1460.9 1414.9 1461.4 1419.4 1463.6 1433.3 1464.1 1439 1439.1 1440 1437.3 1441.3 1422.5 1444.2 1422.1 1458.9 1426.1 1466.4 1428.7 1472.5 1432.7 1480.4 1432.8 1488.6 1431.9 1497.5 1430 1502.3 1429.3 1508.2 1426.8 1511.4 1425.1 1513.8 1423.5 1513.6 1421.5 1512.2 1420.2 1510.5 1419.9 1508.5 1417.6 1506.7 1397.2 1526.6 1386.2 1577.7 1427.1 1581.1 1460.8 Z" data-holc_grade="D"/>
<path d="M 1769 1312.5 1760.6 1312.4 1759.6 1284 1751.8 1181.8 1763.1 1180.7 1764.5 1178.3 1762.7 1164.1 1755.8 1113.4 1751.5 1081.2 1760.1 1080.5 1752.2 1016.2 1764.1 1015.8 1765 1014.6 1760.5 950.3 1737.6 950.6 1734.7 919.8 1712.3 920.5 1710.9 909.8 1706.7 905.2 1703.8 905.4 1662.8 907.1 1661.3 894.9 1659.1 876.9 1698.3 869.8 1697 859.7 1694.5 859.6 1657.2 861.8 1652 820.5 1680.4 796.5 1725 759.7 1759.2 734.3 1761.5 727.6 1779.2 716.5 1782.5 716.6 1784.4 735.3 1787 752.8 1791.4 804.7 1792.5 813.7 1792.6 814.4 1794.4 828.8 1797.7 861.3 1800.7 890.4 1799.4 904.8 1805.7 974.9 1811.7 1054 1821.2 1142.9 1800.6 1143.7 1806.2 1205.2 1792.6 1243.3 1787.8 1263.1 1769 1312.5 Z M 1768.7 816.5 1769.4 815.3 1787.2 814.6 1787.1 813.9 1785.5 804.2 1784 788.9 1782.4 789 1765.9 789.6 1765 790.8 1750 791.3 1749.8 792 1751.7 816.8 1760.1 817.1 1768.7 816.5 Z M 1767.1 785.4 1768.7 783.9 1781.7 783.2 1783.6 782.9 1782.9 773.5 1765.8 773.7 1764.9 774.8 1753.8 775.3 1747.8 775.5 1749.4 784.6 1750.8 785.9 1767.1 785.4 Z" data-holc_grade="D"/>
<path d="M 1655.7 1514.4 1624.1 1521.4 1600.6 1526 1599.3 1525.2 1593.7 1494 1594.2 1488.5 1596.1 1486.1 1597.4 1483.3 1596.8 1481.2 1595.6 1478.6 1593.6 1475.7 1593.1 1467.1 1590.1 1463.2 1581.4 1463.8 1581.1 1460.8 1634.3 1427.2 1666.8 1406.2 1668.6 1403.5 1671.4 1396 1671.7 1389.7 1667.8 1379.4 1667.1 1375.9 1653.3 1365.7 1657.5 1364.8 1680.7 1363.8 1692.3 1362.9 1701.9 1361.7 1697 1315.6 1760.6 1312.4 1769 1312.5 1750.3 1360.2 1726.8 1439.3 1708.9 1460.1 1655.7 1514.4 Z" data-holc_grade="D"/>
</g>
</svg>