<?xml version="1.0"?>
<svg xmlns="http://www.w3.org/2000/svg" version="1.2" baseProfile="tiny" width="3000" height="3759" viewBox="0 0 3000 3759" stroke-linecap="round" stroke-linejoin="round">
<g id="B">
<path d="M 1305.9 1254.4 1049.3 1275.7 985.2 657.9 1013.7 629.5 1494.8 572.7 1466.3 732.4 1437.8 963.3 1305.9 1254.4 Z" data-holc_grade="B"/>
<path d="M 1238.1 3147.4 1134.7 3310.8 1045.6 3243.3 1009.9 3161.6 1042 3097.7 1002.8 2891.7 1320.1 2877.5 1316.5 2817.1 1348.6 2756.7 1234.6 2515.2 1505.5 2412.2 1630.3 2710.5 1402.1 2831.3 1412.8 2895.2 1352.2 2930.8 1238.1 3147.4 Z" data-holc_grade="B"/>
</g>
<g id="C">
<path d="M 2895.6 1822.5 2803 2113.7 2803 2259.3 2617.7 2579 2478.7 2756.6 2318.3 2809.9 2269.7 2887.1 2168.6 3047.9 2133 3140.3 2072.4 3236.2 2051 3168.7 1990.3 3094.1 1726.5 3200.7 1698 3158.1 1633.8 3069.3 1345.1 3175.9 1238.1 3147.4 1352.2 2930.8 1412.8 2895.2 1402.1 2831.3 1630.3 2710.5 1505.5 2412.2 1234.6 2515.2 1348.6 2756.7 1316.5 2817.1 1320.1 2877.5 1002.8 2891.7 949.4 2689.2 838.9 2586.2 657.1 2479.6 625 2419.2 354.1 2447.6 293.6 1929.1 343.5 1939.7 471.8 2067.6 507.4 2064.1 582.3 1961.1 625.1 1843.9 589.4 1748 582.3 1634.3 650.1 1538.5 646.5 1311.2 1049.3 1275.7 1305.9 1254.4 1523.3 1218.9 1612.4 1325.5 1697.9 1368.1 1737.2 1417.8 1990.2 1478.1 2018.7 1538.5 2090 1581.1 2058 1630.8 2015.2 1854.6 2528.5 2060.5 2649.7 1804.8 2688.9 1819 2806.5 1797.6 2895.6 1822.5 Z" data-holc_grade="C"/>
</g>
<g id="D">
<path d="M 1394.6 3680 1159.3 3537.8 685.2 2727.9 161 3296.2 1 3069.1 140.1 2667.8 354.1 2447.6 625 2419.2 657.1 2479.6 838.9 2586.2 949.4 2689.2 1002.8 2891.7 1042 3097.7 1009.9 3161.6 1045.6 3243.3 1134.7 3310.8 1238.1 3147.4 1345.1 3175.9 1633.8 3069.3 1698 3158.1 1726.5 3200.7 1990.3 3094.1 2051 3168.7 2072.4 3236.2 2036.7 3385.4 2104.5 3524 1997.5 3683.8 1929.8 3747.8 1808.6 3758.4 1658.8 3719.4 1601.8 3623.4 1548.3 3595 1437.7 3580.8 1394.6 3680 Z" data-holc_grade="D"/>
<path d="M 2269.7 2887.1 2318.3 2809.9 2478.7 2756.6 2617.7 2579 2803 2259.3 2803 2113.7 2895.6 1822.5 2999 1911.2 2974.4 3300 2913.8 3268.1 2867.4 3300 2871 3403.1 2810.4 3427.9 2567.9 3392.5 2635.7 3271.7 2589.3 3261 2421.7 3207.8 2269.7 2887.1 Z" data-holc_grade="D"/>
<path d="M 2881.3 1730.1 2756.6 1708.9 2688.8 1694.7 2589 1673.4 2514.2 1627.2 2428.6 1595.3 2357.4 1613 2261.1 1602.4 2211.2 1549.1 2118.5 1556.3 2086.5 1517.2 2147 1517.2 2150.6 1478.1 2086.4 1439.1 2082.9 1357.4 2025.8 1332.5 1979.5 1378.7 1922.5 1329 1865.5 1314.8 1744.3 1336.1 1669.4 1304.1 1658.7 1258 1744.3 1289.9 1797.7 1215.4 1740.7 1115.9 1623.1 1052 1608.8 1087.5 1569.6 1062.7 1551.8 828.3 1598.1 750.2 1601.7 679.2 1601.7 611.7 1562.5 558.5 1601.7 491 1605.3 420 1501.9 370.3 1420 274.4 1195.5 242.4 1117.1 221.1 1099.2 167.9 1081.4 89.8 914 50.7 892.6 18.7 2043.6 1 2157.6 104 2218.2 79.1 2303.7 146.5 2460.5 182 2881.3 1730.1 Z" data-holc_grade="D"/>
</g>
</svg>