<?xml version="1.0"?>
<svg xmlns="http://www.w3.org/2000/svg" version="1.2" baseProfile="tiny" width="3000" height="2782" viewBox="0 0 3000 2782" stroke-linecap="round" stroke-linejoin="round">
<g id="A">
<path d="M 2998.5 1781.9 2999 1780.6 2999 1782.1 2998.5 1781.9 Z M 2998.5 1781.9 2909.2 2036.4 2850.9 2015.6 2805.4 2140.5 2739.5 1990.4 2304.6 1864.3 2303.9 1864.1 2365.7 1689.7 2413.2 1555.4 2414 1553.3 2598.8 1591.9 2619.1 1617.2 2998.5 1781.9 Z" data-holc_grade="A"/>
<path d="M 1892.3 2278.9 1889.1 2289.6 1892.8 2290.8 1777 2647.2 1758.2 2668.5 1482.2 2574.9 1389.7 2543.6 1502.9 2171.5 1503.7 2168.9 1892.3 2278.9 Z" data-holc_grade="A"/>
<path d="M 645.6 1628.1 788.3 1669.3 786.4 1674.9 703 1923.7 502.3 1860 508.6 1837.4 546.4 1702 638.9 1626.2 645.6 1628.1 Z" data-holc_grade="A"/>
</g>
<g id="B">
<path d="M 2095.2 1604.5 1892.3 2278.9 1503.7 2168.9 1502.9 2171.5 1121.3 2045.5 1087.2 2066.1 1088.6 2062.2 1399.8 1862.6 1392.2 1860.2 1516.7 1781.9 1809.2 1879 1866.7 1685.8 1755.7 1651.6 1810.1 1514.7 2095.2 1604.5 Z" data-holc_grade="B"/>
<path d="M 2365.7 1689.7 2303.9 1864.1 2304.6 1864.3 2294.6 1876.1 2139.2 2368.2 2138.4 2370.9 1892.8 2290.8 1889.1 2289.6 1892.3 2278.9 2095.2 1604.5 2095.6 1603.1 2365.7 1689.7 Z" data-holc_grade="B"/>
<path d="M 644.2 179.5 625.2 354.2 606.2 528.9 454.3 482.8 10.1 114 100 1 317.7 68 644.2 179.5 Z" data-holc_grade="B"/>
<path d="M 1621.9 1127.2 1594.5 1187.2 1541 1169.7 1504.5 1157.7 1490.5 1203.3 1415.4 1447 1202.7 1378.8 1204.2 1374 1216.4 1335.2 1246.8 1342.3 1336.8 1063.5 1340.6 1034.6 1621 1127.7 1621.9 1127.2 Z" data-holc_grade="B"/>
<path d="M 931.7 1711 928.8 1719.9 786.4 1674.9 788.3 1669.3 645.6 1628.1 680.7 1593.5 932.7 1391.3 1023.8 1421 931.7 1711 Z" data-holc_grade="B"/>
<path d="M 502.3 1860 703 1923.7 707.2 1925 638 2122.7 433.8 2065.5 500.8 1859.6 502.3 1860 Z" data-holc_grade="B"/>
<path d="M 1502.9 2171.5 1389.7 2543.6 1482.2 2574.9 1428.9 2723.5 930 2571.8 932.4 2540.6 932.5 2539.1 996.9 2336.7 1082 2069.3 1087.2 2066.1 1121.3 2045.5 1502.9 2171.5 Z" data-holc_grade="B"/>
<path d="M 2139.2 2368.2 2154.5 2384.5 2297.6 2426.1 2181.2 2781.4 1775.9 2650.6 1777 2647.2 1892.8 2290.8 2138.4 2370.9 2139.2 2368.2 Z" data-holc_grade="B"/>
</g>
<g id="C">
<path d="M 89.7 551.1 91 549.6 253 588.3 582.1 677.6 678.3 662.7 675.8 717.8 618.8 818.8 523.8 983.9 375.7 930.3 1 805.3 89.7 551.1 Z" data-holc_grade="C"/>
<path d="M 996.9 2336.7 932.5 2539.1 932.4 2540.6 747.6 2479.6 784.5 2366.5 813.5 2277.4 996.9 2336.7 Z" data-holc_grade="C"/>
<path d="M 1204.2 1374 1202.7 1378.8 1415.4 1447 1490.5 1203.3 1503.6 1153.2 1594.5 1187.2 1621.9 1127.2 1672.3 1142 1588.8 1399.4 1934.8 1506.9 1968 1414.6 2135.1 1468.7 2095.2 1603 2095.6 1603.1 2095.2 1604.5 1810.1 1514.7 1755.7 1651.6 1866.7 1685.8 1809.2 1879 1516.7 1781.9 1392.2 1860.2 1399.8 1862.6 1088.6 2062.2 1101.6 2024.8 1135.9 1934 1091.8 1922.5 1063.6 2013.8 907.7 1969 844.4 2180.4 638 2122.7 707.2 1925 703 1923.7 786.4 1674.9 928.8 1719.9 931.7 1711 1023.8 1421 932.7 1391.3 680.7 1593.5 645.6 1628.1 638.9 1626.2 546.4 1702 508.6 1837.4 324.1 1764.5 361.7 1755.2 264.8 1736.6 229.2 1520.5 266.8 1453.2 413.3 1341.7 472.6 1285.9 615.7 1015.9 808.5 1063.5 843.4 953.1 939 982.6 1103.6 1033 1011.2 1317 1189.7 1373.5 1204.2 1374 Z" data-holc_grade="C"/>
<path d="M 2347.5 1534.6 2413.2 1555.4 2365.7 1689.7 2095.6 1603.1 2095.2 1603 2135.1 1468.7 2168.3 1356.9 2169.8 1351.8 2257.3 1479.3 2322.9 1526.9 2347.5 1534.6 Z" data-holc_grade="C"/>
</g>
<g id="D">
<path d="M 1361.4 401.7 1354.3 399.6 1322.6 509.7 1327.6 511.2 1270.7 665.8 1265.5 664.1 1040.3 592.9 1136.6 212.3 1359.4 369.9 1361.4 401.7 Z" data-holc_grade="D"/>
<path d="M 954.2 940.8 993.5 784.7 1209.3 854.1 1199.1 888.7 1159.6 876.9 1120.1 865 1116.3 879.9 1112.5 894.7 1100.4 891.8 1088.4 888.8 1074.5 930.4 1060.6 972 1007.4 956.4 954.2 940.8 Z" data-holc_grade="D"/>
<path d="M 1340.6 1034.6 1336.8 1063.5 1246.8 1342.3 1216.4 1335.2 1214.4 1334.7 1123.7 1307.1 1162.6 1174.8 1222.5 1182.5 1282.5 981.7 1344.9 1001.7 1340.6 1034.6 Z" data-holc_grade="D"/>
<path d="M 1063.6 2013.8 979.5 2262.3 1016.5 2275.3 996.9 2336.7 813.5 2277.4 784.5 2366.5 379.4 2238.4 428.9 2064.2 433.8 2065.5 638 2122.7 844.4 2180.4 907.7 1969 1063.6 2013.8 Z" data-holc_grade="D"/>
<path d="M 2126.9 1275.7 2168.3 1356.9 2135.1 1468.7 1968 1414.6 1934.8 1506.9 1588.8 1399.4 1672.3 1142 1675.4 1132.7 1764.4 1153.6 1705 1330.2 1910.8 1395.2 1974.1 1228 2080.9 1260.5 2126.9 1275.7 Z" data-holc_grade="D"/>
<path d="M 2168.3 1356.9 2126.9 1275.7 2091.1 1205.5 2095.8 1203.1 2182.2 1160.8 2217.6 1149.8 2268.3 1134.1 2235.4 1209.9 2278.5 1314 2341.8 1377.9 2398.8 1394.2 2347.5 1534.6 2322.9 1526.9 2257.3 1479.3 2169.8 1351.8 2168.3 1356.9 Z" data-holc_grade="D"/>
<path d="M 2217.6 1149.8 2182.2 1160.8 2095.8 1203.1 1959.4 952.5 1863.2 775.8 1968 719.2 1979.6 713 1987.2 708.9 2217.6 1149.8 Z" data-holc_grade="D"/>
<path d="M 1361.4 401.7 1904.9 561.7 1979.6 713 1968 719.2 1954.3 704.4 1327.6 511.2 1322.6 509.7 1354.3 399.6 1361.4 401.7 Z" data-holc_grade="D"/>
</g>
</svg>