<?xml version="1.0"?>
<svg xmlns="http://www.w3.org/2000/svg" version="1.2" baseProfile="tiny" width="3000" height="4178" viewBox="0 0 3000 4178" stroke-linecap="round" stroke-linejoin="round">
<g id="A">
<path d="M 664.9 6.8 668.2 182.9 651 181.8 648.6 245.5 641 245.5 634.8 244.8 635.2 167.8 616.7 167.8 611.2 78.4 619.8 77 620.9 74.6 620.5 68.4 632.2 65 632.6 42.8 624.3 38 625.7 29.1 630.2 26 636.7 22.2 639.5 17.8 644.3 1 664.9 6.8 Z" data-holc_grade="A"/>
<path d="M 681.7 2299.8 692.4 2285 707.6 2266.2 717.2 2249 720 2241.1 723.4 2235.3 730 2231.9 738.6 2221.9 748.6 2204.1 761.3 2188.7 764.4 2170.1 771 2158.1 776.6 2151 842.5 2152.3 842.9 2171.2 786.4 2168.8 785.4 2226.4 766.1 2225.4 765 2255.2 750.2 2254.9 750.2 2289.9 737.5 2288.8 686.5 2307.7 681.7 2299.8 Z" data-holc_grade="A"/>
<path d="M 962.3 2282 962.3 2356.4 973.3 2366 973.8 2428.3 944.4 2428.3 942.2 2332.5 921 2333.1 921 2307.8 898.4 2322.1 896.5 2263.8 941.7 2262.2 962.3 2282 Z" data-holc_grade="A"/>
<path d="M 679.3 2898.4 697.2 2898.6 697.4 2921.4 712.7 2921.8 712.6 3014.5 680.3 3010.6 680.3 3096.9 673.4 3108.9 672.9 3117 675.5 3128.6 685.8 3139.8 695.7 3150.1 700.5 3164.3 704.3 3188.3 714.6 3224.8 727.5 3243.7 742.2 3255.3 741.7 3300.4 688.7 3299.5 678.9 3262.1 675 3244.5 675 3234.2 681 3212.3 681.9 3195.2 672 3176.7 663.4 3156.1 657.8 3138.1 653.1 3121.3 650.1 3098.1 655.7 3073.2 660.9 3059.1 663.5 3046.2 661.4 3033.8 643.3 2946.6 646.8 2933.7 645.1 2927.7 641.7 2911 633.6 2895.6 679.3 2898.4 Z" data-holc_grade="A"/>
<path d="M 2701.4 406.9 2726.7 406.5 2708.6 448.7 2628.1 518.4 2564.4 534.9 2560.2 525.2 2543.2 516.5 2543.7 507.2 2539.2 413.9 2547.2 404.9 2701.4 406.9 Z" data-holc_grade="A"/>
<path d="M 2392.8 690.3 2425.4 690.2 2424.3 634.6 2420.1 634.8 2420.6 554.4 2448.9 554.2 2452.1 629.6 2483 630.1 2483.5 590.5 2554.1 594.1 2551.5 633.8 2551.2 657.1 2549.8 678.4 2546.4 687 2521.7 729.8 2504.1 745.3 2484.9 771.3 2464.7 790.9 2454.4 804.9 2447.1 808.7 2433.8 826.9 2434.1 835.8 2438.2 846.8 2443.4 851.9 2451 861.5 2452.7 873.1 2456.1 883.1 2447.6 904 2440.7 908.8 2432.1 912.2 2424.5 911.5 2420.1 907.8 2413.9 893 2397 858.8 2388.7 852.6 2369.1 840.3 2363.6 827.6 2362.2 819.7 2373.6 798.8 2346.1 782.4 2338.8 769.4 2334.7 761.5 2316.1 759.8 2303.4 759.5 2293.8 752.6 2290 742.3 2286.9 736.5 2280.4 736.9 2282.1 721.8 2278.3 707.1 2279.7 699.2 2283.5 692.5 2392.8 690.3 Z" data-holc_grade="A"/>
<path d="M 709.5 1175.8 715.8 1252.3 691 1244.3 675.8 1173.2 709.5 1175.8 Z M 659.6 1171.9 658.6 1245.2 632.2 1235.3 568.7 1169.4 519.5 1120.8 430.5 1032.4 432.5 978.1 404.7 975.9 413.6 904.6 518.1 909.7 523.3 909.9 519.9 962 553.2 963.2 550.4 1021.8 600.4 1026.3 595.4 1097 642.5 1100.1 660.6 1098.2 659.6 1171.9 Z" data-holc_grade="A"/>
<path d="M 1217.2 1297.3 1216.7 1329.7 1167.7 1329.2 1167.7 1311.2 1142.4 1309.6 1132.6 1310.7 1125.9 1309.1 1117.7 1298.3 1115.1 1284.9 1095 1283.9 1096 1178 1134.2 1178.5 1135.2 1276.2 1181.1 1278.3 1181.6 1295.8 1217.2 1297.3 Z" data-holc_grade="A"/>
<path d="M 2114.1 1240.8 2124.9 1257.1 2087.5 1255.8 2084.9 1297 1986.9 1293.2 1986.9 1246.9 2027.7 1204 2040.4 1195.4 2046.6 1198.9 2052.2 1198 2053 1171 2038.8 1163.3 1981.4 1118.8 1982.3 1065.6 1982.9 1012.9 1970 1006.1 1977.3 1000.1 1988.1 997.5 1981.6 992.4 1974.3 992.4 1976 988.5 1966.6 970.1 1962.3 970.1 1954.5 964.5 1954.9 950.4 1961 942.7 1967 939.7 1976.4 938.8 1982.4 938.4 1988.5 936.2 2027.6 937.9 2067.5 936.2 2089 946.9 2082.6 951.2 2092.5 958.5 2092.5 960.2 2095.5 963.6 2110.5 964.9 2088.6 982.9 2087.3 1004.3 2099.4 1007.7 2104.1 1010.3 2107.5 1019.3 2108.4 1040.7 2112.3 1051 2120 1065.6 2128.2 1073.3 2127.4 1105.4 2120 1104.1 2109.3 1103.7 2108.5 1233.6 2114.1 1240.8 Z" data-holc_grade="A"/>
<path d="M 2368.3 1664.7 2360.5 1657 2355.8 1645 2351.5 1638.6 2347.6 1633.9 2344.6 1627.9 2345.4 1615.9 2348.4 1597 2339.8 1570.5 2331.6 1535.3 2326.5 1527.6 2319.1 1520.3 2307.5 1516.9 2294.6 1513.5 2283 1513.5 2274 1513.5 2268.8 1498.1 2270.1 1482.6 2277.8 1466.8 2283 1453.1 2289.4 1445.8 2249.4 1419.2 2248.7 1365.3 2248.7 1319.5 2219.4 1317.8 2220.7 1328 2188.5 1327.6 2187 1295.8 2207.2 1264.1 2208 1250.8 2189.1 1220.8 2188.2 1186.1 2203.7 1143.3 2191.6 1125.7 2192.5 1095.7 2219.5 1047.7 2227.7 1053.3 2240.6 1055 2248.7 1054.5 2256.1 1049.8 2259.1 1044.7 2265.5 1034.4 2270.6 1028.8 2308.5 1022.8 2311.1 1066.5 2308.9 1078.9 2302.6 1286.3 2434.6 1287.5 2406.7 1330.8 2381.8 1375 2350 1424.3 2349.2 1446.1 2387.1 1489.8 2384.1 1583.3 2368.3 1664.7 Z" data-holc_grade="A"/>
<path d="M 2385.8 2592.8 2306.2 2589.9 2305.7 2535.4 2288 2533.3 2285 2444.9 2280.6 2430.7 2272.5 2415.7 2266.4 2396.4 2267.7 2369.4 2272.4 2346.7 2278.4 2336.8 2288.3 2329.9 2304.3 2344.8 2317.6 2374 2341.3 2446.5 2360.3 2492.4 2380.2 2557.1 2385.8 2592.8 Z" data-holc_grade="A"/>
<path d="M 2692.9 3027.2 2697.4 3028.1 2704.3 3033.3 2706.4 3038.8 2706.9 3046.6 2701.7 3053.9 2694.4 3065.9 2692.3 3078.8 2697 3095.9 2700.5 3102.4 2700.5 3109.7 2694 3119.9 2641 3120.6 2638.9 3100 2628.6 3112.1 2619 3118.6 2619.6 3095.9 2531.8 3096 2485.8 3098 2486.6 3026.3 2527.5 3024.9 2648.7 3021.3 2666.8 3021.7 2692.9 3027.2 Z" data-holc_grade="A"/>
</g>
<g id="B">
<path d="M 1211.3 319.3 1066.2 321.8 1031.4 321.8 987 321.8 817.4 321.9 631.9 325.1 632.4 298.2 611.3 298.5 612.1 271.6 583.8 273.5 565.1 272.1 567.3 259.5 572.3 245.6 584.7 221.4 592.1 207.5 606.4 166.7 616.7 167.8 635.2 167.8 634.8 244.8 641 245.5 648.6 245.5 651 181.8 668.2 182.9 664.9 6.8 717.2 14.7 754.6 15.8 775.7 15.5 933.3 13.2 1055.6 11.3 1213.5 12.7 1212.2 83.4 1211.3 319.3 Z" data-holc_grade="B"/>
<path d="M 787.3 1175.4 844.6 1179 822.2 1206.4 823.9 1265.7 716.6 1262.2 715.8 1252.3 709.5 1175.8 710.9 1100.4 727.2 1100.4 729.9 904.6 789.2 907.2 788.3 963.8 767.7 963.3 765.5 1065.7 786.1 1066.6 787.3 1175.4 Z" data-holc_grade="B"/>
<path d="M 1172.4 903.8 1171.8 945.6 1134.3 946.1 1125.5 950.7 1120.4 959.5 1118.8 1001.1 1120.3 1014.5 1122.4 1017 1143.6 1018.6 1170.8 1017.3 1214.2 1018.7 1246.7 1019.1 1249.3 947.3 1288.5 948.2 1288.2 967.7 1370.2 969.3 1380.3 971.3 1380.3 994 1393.2 997 1407.1 1052.1 1411.7 1082.9 1443.2 1143.6 1443.2 1176.2 1443.2 1255.2 1407.1 1255.7 1404 1369.3 1348.3 1370.4 1347.2 1390.4 1270.3 1388.4 1253.8 1372.4 1253.3 1355.4 1167.2 1356.4 1130.6 1333.3 1110.4 1334.3 1093.4 1310.6 1071.2 1309.1 1071.8 1283.4 1052.7 1282.3 1053.7 1256.6 1040.3 1256.6 1044.5 1129.1 1028 1102.9 1029.1 1027.3 1057.9 1025.2 1057.4 980 1040.4 944.5 1045.1 862.8 1067.3 862.8 1110.1 865.4 1174.5 866.4 1172.4 903.8 Z M 1217.2 1297.3 1181.6 1295.8 1181.1 1278.3 1135.2 1276.2 1134.2 1178.5 1096 1178 1095 1283.9 1115.1 1284.9 1117.7 1298.3 1125.9 1309.1 1132.6 1310.7 1142.4 1309.6 1167.7 1311.2 1167.7 1329.2 1216.7 1329.7 1217.2 1297.3 Z" data-holc_grade="B"/>
<path d="M 1982.3 1065.6 1981.4 1118.8 2038.8 1163.3 2053 1171 2052.2 1198 2046.6 1198.9 2040.4 1195.4 2035.8 1192.9 2030.3 1192.9 2021.7 1197.6 2016.1 1202.7 2008.3 1201.9 2002.3 1195.5 1995.9 1178.3 1986.8 1171.9 1969.2 1166.8 1965.8 1176.6 1975.7 1175.3 1982.5 1179.6 1987.7 1186.9 1989.9 1202.3 1988.6 1212.2 1983 1220.8 1981.3 1233.2 1985.6 1242.2 1986.9 1246.9 1986.9 1293.2 2084.9 1297 2087.5 1255.8 2124.9 1257.1 2114.1 1240.8 2123.6 1243 2132.2 1250.3 2134.7 1257.5 2133 1265.7 2130 1278.5 2133 1292.2 2137.4 1306.8 2152.4 1327.8 2154.1 1336.8 2161 1347.5 2173.4 1365.4 2161.3 1367.1 2056.9 1360.8 2053.9 1403.6 1689.6 1400.9 1691.8 1385.8 1697.3 1376.8 1705.1 1376.8 1705.9 1373.8 1697.8 1342 1708.5 1324.9 1733.4 1293.2 1733 1255.9 1742.4 1208.3 1743.7 1201.5 1738.6 1189.9 1737.7 1182.6 1751.9 1158.2 1720.9 1156 1672.8 1153.1 1665.1 1141.1 1666.8 1052 1674.1 1043.9 1679.2 1028 1705 1025.9 1714 1025.4 1714.5 971 1725.2 970.6 1730.4 970.6 1802.1 842.1 1831.3 876.8 1870.5 938.4 1869.6 974 1896.7 1017.7 1942.1 1017.1 1940.8 1064.4 1982.3 1065.6 Z M 1906.5 1220.8 1895.3 1211.4 1887.6 1197.7 1885.4 1180.1 1830 1182.2 1825.7 1255.5 1817.9 1254.7 1815.8 1336.5 1867.4 1339.1 1885.5 1336.9 1907.8 1331.8 1906.5 1220.8 Z" data-holc_grade="B"/>
<path d="M 2434.6 1287.5 2302.6 1286.3 2308.9 1078.9 2311.1 1066.5 2308.5 1022.8 2317.5 1025.8 2326.5 1029.6 2346.3 1034.7 2360.5 1033.9 2363.5 1029.2 2372.5 1030.4 2397.4 1006.4 2408.2 1020.6 2414.6 1021.4 2423.7 1036.8 2424.1 1049.3 2433.6 1057 2437.9 1063.4 2437.4 1069 2433.1 1082.7 2428.4 1107.5 2434.9 1129.8 2436.2 1159.8 2441.8 1169.6 2434.6 1287.5 Z" data-holc_grade="B"/>
<path d="M 2692.9 3027.2 2666.8 3021.7 2648.7 3021.3 2527.5 3024.9 2527 2992.3 2540 2990.6 2611.9 2991.4 2596.3 2964.4 2584.3 2940.3 2546.4 2942.5 2529.1 2918.5 2529.1 2866.1 2541.1 2865.7 2540.2 2816.4 2519.6 2815.5 2519.5 2788.5 2505.8 2787.6 2500.6 2790.2 2500.1 2737.9 2480.3 2736.6 2481.1 2686 2372.7 2685.6 2373.1 2629 2259.9 2630.8 2259 2591.7 2247.4 2590.9 2249.1 2554 2223.2 2554 2226.2 2536 2215.9 2534.7 2202.6 2509.4 2207.3 2506 2187.5 2469.1 2173.3 2469.1 2175.8 2352.8 2139.6 2352.4 2144.3 2224.2 2186 2225.4 2188.5 2041.4 2183.3 2035.9 2185 1870.3 2219.8 1872.9 2219.7 1668.8 2230.4 1669.2 2234.5 1378.6 2248.7 1365.3 2249.4 1419.2 2289.4 1445.8 2283 1453.1 2277.8 1466.8 2270.1 1482.6 2268.8 1498.1 2274 1513.5 2283 1513.5 2294.6 1513.5 2307.5 1516.9 2319.1 1520.3 2326.5 1527.6 2331.6 1535.3 2339.8 1570.5 2348.4 1597 2345.4 1615.9 2344.6 1627.9 2347.6 1633.9 2351.5 1638.6 2355.8 1645 2360.5 1657 2368.3 1664.7 2344.8 1854.3 2316.8 1904 2311.7 1917.3 2302.7 1949.1 2288.1 2020.3 2286 2089.7 2293.3 2106.5 2314.5 2164.3 2313.2 2181.9 2314.9 2194.8 2314.5 2227.4 2289.1 2273.7 2288.3 2329.9 2278.4 2336.8 2272.4 2346.7 2267.7 2369.4 2266.4 2396.4 2272.5 2415.7 2280.6 2430.7 2285 2444.9 2288 2533.3 2305.7 2535.4 2306.2 2589.9 2385.8 2592.8 2386.6 2597.1 2394 2604.8 2400.4 2605.3 2402.1 2603.1 2401.7 2598 2400.4 2591.5 2428.4 2593.2 2432.7 2585.1 2440.4 2584.2 2477.5 2609.5 2480.5 2633.1 2486.1 2624.1 2499 2637.8 2515.4 2633.9 2530 2646.3 2555.4 2680.2 2535.7 2717.6 2577.5 2775 2605.4 2783.1 2666.7 2921.7 2687.5 2998.9 2690.9 3006.2 2692.9 3027.2 Z" data-holc_grade="B"/>
<path d="M 1997.1 2405.4 1996.7 2449 2022.1 2552.4 1992.4 2550.3 1914.5 2549.9 1915.9 2598.3 1912.4 2663.1 1905.7 2728 1903.9 2746 1906.5 2781.6 1906 2797 1852.2 2794.9 1853.5 2693.2 1870.7 2692.3 1874.1 2622 1887 2621.5 1887.4 2573 1874.1 2548.2 1858.2 2533.2 1845.7 2528 1809.5 2529.3 1809.9 2437.9 1816.4 2379.5 1850 2380.8 1848.3 2316.5 1935.8 2317.3 1936 2369.1 1947.2 2371.3 1951.9 2377.3 1956.2 2390.6 1955 2404.7 1997.1 2405.4 Z" data-holc_grade="B"/>
<path d="M 2150 2817.1 2150 2823.1 2157.3 2823.1 2160.7 2829.9 2166.3 2831.7 2170.6 2832.5 2172 2912.3 2073.8 2909.4 2054 2813.3 2150 2817.1 Z" data-holc_grade="B"/>
<path d="M 2558.7 3503.7 2573.5 3489.2 2590 3474.1 2589.3 3405.4 2569.5 3318.5 2571.6 3255.7 2603.9 3178 2613.5 3138.2 2588.7 3136.5 2531.5 3136.5 2531.8 3096 2619.6 3095.9 2619 3118.6 2628.6 3112.1 2638.9 3100 2641 3120.6 2694 3119.9 2692.4 3145.6 2688.2 3166.6 2676.2 3187.9 2669 3193.7 2662.4 3203.7 2650.1 3212.3 2643.2 3227.4 2641.5 3240.5 2643.6 3262.1 2627.7 3290.6 2616.4 3326.4 2612.3 3357.6 2615.4 3370 2627.2 3394.4 2633.7 3404.3 2635.5 3430.8 2638.9 3445.5 2647.2 3458.6 2657.6 3469.2 2665.1 3483.3 2669 3498.1 2670.7 3526.9 2668.3 3545.1 2671.1 3564 2670.1 3573.3 2664.6 3579.5 2646.6 3580.5 2640.4 3574.4 2628.7 3576.8 2628.7 3581.9 2600.5 3579.5 2601.5 3566.1 2570.8 3566.5 2572.8 3520.1 2558.7 3503.7 Z" data-holc_grade="B"/>
<path d="M 980.1 2248.9 978.4 2314 989.4 2314.2 989.7 2390.8 1002.1 2390.3 1004 2446.3 1044.6 2527.9 1047 2637.4 1060.3 2637.4 1070.7 2637.4 1052.8 2689.1 1052.4 2708.7 1052 2727.5 993 2726.7 991.9 2779.7 774.5 2778.7 775.6 2499.4 775.4 2393.2 649.3 2393.9 647.3 2415.1 627.9 2430.7 604.5 2429.9 598.4 2436.7 596.5 2461.4 605.3 2462.3 604.1 2541.6 605.2 2577.6 623.9 2578.1 626.1 2620.4 620 2622.1 620 2658.3 646.4 2659.2 645.3 2697.1 663.5 2696.3 663.2 2735 682.5 2736.4 683 2780 659.6 2779.5 656 2806.4 658.7 2852.8 678.5 2853.9 679.3 2898.4 633.6 2895.6 584.3 2806.9 573.9 2778.6 563.7 2770.1 536.8 2734.1 525.2 2699.2 519.2 2694.5 516.5 2689.8 515.6 2684.1 505.2 2675 500 2660.7 498.9 2645.6 498.3 2630.2 500.3 2617.6 469.5 2572.5 457.6 2570.3 353.2 2481.5 341.4 2470.8 335.6 2463.7 335.6 2456.2 340 2450.8 345 2447.5 350.7 2444.5 363.1 2436.5 366.1 2479.6 397 2500.2 406.9 2511.2 434.1 2522 446.8 2530.5 446.9 2402.3 478.3 2388.3 494 2382.5 530.4 2361.4 571.3 2339.5 592.5 2326.9 613.6 2311.7 623.5 2334.7 628.3 2338.9 639 2340.2 668.3 2301.5 670.4 2299.8 678.6 2298.4 681.7 2299.8 686.5 2307.7 737.5 2288.8 750.2 2289.9 750.2 2254.9 765 2255.2 766.1 2225.4 785.4 2226.4 786.4 2168.8 842.9 2171.2 842.5 2152.3 776.6 2151 781.3 2145.1 791.6 2135.8 800.6 2130 809.9 2126.6 815.4 2119.7 823.3 2106 828.1 2093 828.1 2085.1 830.2 2078.6 834.3 2073.8 842.6 2071.4 852.9 2075.8 868.4 2095.1 899 2132.5 917.1 2178.6 950.4 2217 980.1 2248.9 Z M 962.3 2282 941.7 2262.2 896.5 2263.8 898.4 2322.1 921 2307.8 921 2333.1 942.2 2332.5 944.4 2428.3 973.8 2428.3 973.3 2366 962.3 2356.4 962.3 2282 Z" data-holc_grade="B"/>
<path d="M 991.9 2779.7 992.5 2838.2 997.3 2844.7 994.6 2935.2 1001.1 2935.3 999.5 3243 962.2 3242.6 961.3 3322 946.7 3320.7 945.7 3559.8 959.5 3559.9 959.9 3589.1 957.7 3633.3 1000.8 3634.6 1000.4 3640.4 999.3 3708.1 918.1 3707.1 791.4 3703.2 770.7 3707.9 754.3 3709.2 735.8 3708.7 670.8 3702.3 672.1 3697.5 682 3686.4 706.1 3663.6 715.2 3648.2 728.1 3596.6 735 3599.7 738.1 3598.4 742.9 3487.6 746.4 3300.4 741.7 3300.4 742.2 3255.3 727.5 3243.7 714.6 3224.8 704.3 3188.3 700.5 3164.3 695.7 3150.1 685.8 3139.8 675.5 3128.6 672.9 3117 673.4 3108.9 680.3 3096.9 692.7 3122.6 711.7 3123.5 712.6 3014.5 712.7 2921.8 720 2922 719.5 2928.3 738.5 2928.6 739.6 2932.1 753.4 2933.5 753.6 2917 768.8 2908.8 769.1 2851.9 775.7 2851.7 774.5 2778.7 991.9 2779.7 Z" data-holc_grade="B"/>
<path d="M 1287 559.5 1212.3 552.8 1211.3 478.3 1207.7 461.4 1210.8 438.8 1213.9 419.2 1208.2 362.2 1211.3 319.3 1212.2 83.4 1213.5 12.7 1256.6 11.3 1497.3 10.8 1543.4 10.8 1579.4 14.4 1608.8 10.3 1770.1 14.4 1921.6 13.8 1991.6 12.8 1994.9 322.6 1778.9 323.1 1754.2 281 1767.6 278.4 1779.4 273.3 1763.4 247.1 1761.9 171.6 1748.5 173.1 1703.1 219.4 1699.5 213.2 1683 199.3 1669.1 187 1658.3 181.9 1631.5 184.4 1627.4 180.8 1616.6 182.4 1598.5 175.2 1587.2 160.3 1581 145.4 1572.2 126.9 1564.3 117.7 1548.9 113.6 1539.1 115.6 1530.9 120.7 1524.7 130.5 1521.1 154.7 1512.3 175.2 1504.1 183.4 1487 191.6 1468 198.3 1455.6 206 1444.8 218.9 1439.6 238.4 1436 287.2 1423.1 309.8 1419 367.9 1421.1 371 1419.5 413.1 1311.3 415.1 1308.7 548.8 1287 559.5 Z" data-holc_grade="B"/>
<path d="M 1738.6 751.1 1735.3 752.1 1668.4 751.8 1636.5 751.6 1634.4 785.5 1617.6 784.2 1616.3 812 1524.4 809.5 1523.1 819.3 1494.3 819.3 1495.8 786.2 1498.4 758 1477.8 763.6 1364.8 761 1364.3 743.6 1363.8 633.6 1286 632 1287 559.5 1308.7 548.8 1505.5 551.6 1508.9 436 1507.2 410.3 1576.8 378.6 1622.3 325.5 1624 304.1 1630.5 286.5 1634.3 278.8 1642.5 273.7 1664.4 272.4 1668.2 274.6 1669.7 282.4 1668.1 324.6 1650 323.7 1645 411.4 1728.9 412.2 1728 396.6 1742.3 398.3 1740.9 324.5 1778.9 323.1 1994.9 322.6 2087.6 325.4 2130.5 324.5 2163.4 321.9 2203.8 324 2310.7 321.4 2314.3 507.2 2298.9 528.2 2294.2 547.1 2294.2 559.5 2291.6 589 2279.2 615.6 2266.7 626.7 2248.7 633.2 2235.4 634 2223.3 630.6 2219.8 554.4 2233.2 554.4 2231 484.6 2171.3 484.2 2168.7 478.6 2150.6 477.8 2073.6 478.2 2073.1 438.8 2066.7 435.9 2062.8 429 2061.5 417.9 2055.9 418.7 2035.3 390.5 1993.6 390.5 1947.2 363.5 1926.2 362.7 1884.1 380.3 1884.5 398.2 1885 410.7 1895.3 415.4 1891.5 556.3 1879.9 556.7 1881.2 726.7 1879.9 755.4 1837 756.3 1824.5 750.7 1804.5 747.8 1785.2 748.2 1769.3 746.5 1754.3 746.5 1738.6 751.1 Z" data-holc_grade="B"/>
<path d="M 2050 494.6 2056.9 511.8 2071.2 534.6 2059.9 544.7 2054.7 555.2 2050.9 567.8 2050.9 584.5 2057.8 610.8 2066 638.5 1911.5 640.7 1910.3 415.4 1933.4 394.6 2036 449.9 2037.1 495.7 2050 494.6 Z" data-holc_grade="B"/>
<path d="M 2467.8 325.4 2474.6 396.3 2500.3 396.3 2494.2 413.2 2483.9 436.9 2475.6 451.3 2461.2 457.4 2447.8 458.5 2434.4 454.4 2418.4 457 2393.2 465.7 2386.9 319.3 2417.8 322.3 2467.8 325.4 Z" data-holc_grade="B"/>
<path d="M 2448.9 554.2 2463.4 554.1 2463.3 481.6 2471.5 482.6 2507.1 452.8 2519.9 435.3 2539.2 413.9 2543.7 507.2 2543.2 516.5 2560.2 525.2 2564.4 534.9 2559.7 547.3 2554.1 594.1 2483.5 590.5 2483 630.1 2452.1 629.6 2448.9 554.2 Z" data-holc_grade="B"/>
<path d="M 2283.5 692.5 2279.4 674 2279.4 638.5 2340.1 555.2 2420.6 554.4 2420.1 634.8 2390.7 636.3 2392.8 690.3 2283.5 692.5 Z" data-holc_grade="B"/>
<path d="M 515.8 407.2 540.9 459 531.6 499.7 500.5 497.7 484.4 496.6 479 475 367.7 467.5 363.2 435.6 408.4 416.4 407.3 414.5 405.9 410.2 409.6 406.9 416.4 405.7 445.5 406.1 515.8 407.2 Z" data-holc_grade="B"/>
<path d="M 355.1 831.5 347.6 820.3 348.5 781.5 406.5 784 436.2 780.5 483 783.2 481.8 814.5 482.1 820.8 520.3 868.8 518.1 909.7 413.6 904.6 407 902.2 414.4 875.6 409.5 864.1 400.1 850.3 363.9 830.3 355.1 831.5 Z" data-holc_grade="B"/>
</g>
<g id="C">
<path d="M 987 321.8 988.6 459.2 921.6 459.2 840.4 459.1 737.8 460.8 678.5 461.6 637.7 463.3 602.5 461.5 588.7 429.8 573.7 399.4 567.3 382.3 562.6 342.9 561.8 306 565.1 272.1 583.8 273.5 612.1 271.6 611.3 298.5 632.4 298.2 631.9 325.1 817.4 321.9 987 321.8 Z" data-holc_grade="C"/>
<path d="M 1443.2 1176.2 1443.2 1143.6 1411.7 1082.9 1407.1 1052.1 1393.2 997 1445.6 1012.7 1513 1155 1510.6 1161.1 1510.3 1176.9 1443.2 1176.2 Z" data-holc_grade="C"/>
<path d="M 1671.9 1400.8 1689.6 1400.9 2053.9 1403.6 2056.9 1360.8 2161.3 1367.1 2173.4 1365.4 2190.6 1398.8 2187.2 1403.1 2167.8 1405.7 2064.4 1405.3 2065.3 1446.1 2020.1 1445.2 2018 1483.4 1982.8 1483.4 1983.7 1587.1 1901.1 1633.5 1902.4 1608.2 1837.5 1608.2 1709.3 1604.4 1708.9 1550.3 1670.2 1549.9 1673.6 1503.2 1671.9 1400.8 Z" data-holc_grade="C"/>
<path d="M 1935.8 2317.3 1848.3 2316.5 1846.5 2244.3 1935.5 2244.7 1935.8 2317.3 Z" data-holc_grade="C"/>
<path d="M 2248.7 1365.3 2234.5 1378.6 2230.4 1669.2 2219.7 1668.8 2219.8 1872.9 2185 1870.3 2183.3 2035.9 2188.5 2041.4 2186 2225.4 2144.3 2224.2 2139.6 2352.4 2175.8 2352.8 2173.3 2469.1 2187.5 2469.1 2207.3 2506 2202.6 2509.4 2215.9 2534.7 2226.2 2536 2223.2 2554 2249.1 2554 2247.4 2590.9 2259 2591.7 2259.9 2630.8 2373.1 2629 2372.7 2685.6 2481.1 2686 2480.3 2736.6 2500.1 2737.9 2500.6 2790.2 2505.8 2787.6 2519.5 2788.5 2519.6 2815.5 2540.2 2816.4 2541.1 2865.7 2529.1 2866.1 2529.1 2918.5 2546.4 2942.5 2584.3 2940.3 2596.3 2964.4 2611.9 2991.4 2540 2990.6 2527 2992.3 2527.5 3024.9 2486.6 3026.3 2485.8 3098 2388.1 3097.2 2197.3 3096.9 2091.4 3092.3 2050.2 2899.5 2031.2 2807.7 2027.7 2782.8 2065.2 2778.9 2067.3 2627.5 2063 2627 2063.8 2550.2 2022.1 2552.4 1996.7 2449 1997.1 2405.4 2063 2406.4 2063.4 2352.8 2101.2 2353.2 2103.7 2226.2 2124.4 2226.2 2123.5 2192.3 2162.7 2192.7 2160.5 2089.4 2141.5 2090.2 2140.7 2068.4 2148.4 2033.2 2150.9 1896.4 2149.6 1851.4 2184.4 1851.8 2185.5 1732.2 2183.8 1667.9 2197.5 1667.9 2199.1 1488.7 2205.6 1487 2207.3 1408.5 2201.2 1401.2 2205.7 1350.8 2187.6 1336.2 2188.5 1327.6 2220.7 1328 2219.4 1317.8 2248.7 1319.5 2248.7 1365.3 Z M 2150 2817.1 2054 2813.3 2073.8 2909.4 2172 2912.3 2170.6 2832.5 2166.3 2831.7 2160.7 2829.9 2157.3 2823.1 2150 2823.1 2150 2817.1 Z" data-holc_grade="C"/>
<path d="M 2485.8 3098 2531.8 3096 2531.5 3136.5 2588.7 3136.5 2613.5 3138.2 2603.9 3178 2571.6 3255.7 2569.5 3318.5 2589.3 3405.4 2590 3474.1 2573.5 3489.2 2558.7 3503.7 2533.6 3528.4 2532.6 3624.3 2534.4 3650.7 2540.2 3657.6 2544.4 3660.3 2592.7 3657.9 2615.1 3653.4 2642.4 3646.2 2666.5 3644.8 2685.8 3647.1 2700.3 3654 2716.8 3667 2744.8 3703.4 2766.2 3743.6 2786.2 3764.9 2797.6 3782.4 2824.5 3807.8 2847.3 3817.7 2890.4 3834.5 2936.6 3842.7 2956.2 3848.9 2991.8 3864.6 2999 3871.8 2991.5 3871.8 2937 3870.2 2904.9 3870.2 2881.8 3870.3 2862.9 3868.2 2840.8 3873.4 2815.3 3874.8 2826 3892 2844 3938.7 2844.4 3953.1 2830.6 3955.5 2825.8 4017.4 2783.8 4021.6 2676.7 4025.5 2675.8 4174.3 2636.5 4174 2533.8 4176.5 2533 4029.1 2534.2 3876.1 2456.5 3873.4 2227.3 3870.9 2223.8 3805.2 2224 3537.3 2186.4 3536.2 2137.7 3325.7 2137.7 3313.3 2124.6 3292.1 2111.5 3256 2109.9 3247.6 2119.2 3222.3 2091.4 3092.3 2197.3 3096.9 2388.1 3097.2 2485.8 3098 Z" data-holc_grade="C"/>
<path d="M 1226.6 2816.2 1234.6 2839.6 1243.7 2871.2 1242.3 2890.7 1256.9 2891.2 1255 2851.4 1258.8 2845.4 1264.3 2841.8 1271.2 2844 1275.1 2848.7 1280 2854.7 1288.8 2869 1291 2880 1297.4 2881.6 1296.5 2942.9 1227.1 2940.9 1228.7 3017.9 1244.7 3017.9 1243.9 3246.2 1190.9 3244.2 1191.2 3234.6 1162.9 3128.8 1143 3127.2 1143.9 3103.3 1164.2 3102.7 1164 3012.1 1176.9 3012.9 1177.5 2939.6 1196 2939.3 1196.8 2778.9 1183.4 2738.5 1187.8 2729.2 1187.2 2706.7 1225.5 2706.4 1223.3 2729.5 1225.8 2813.8 1226.6 2816.2 Z" data-holc_grade="C"/>
<path d="M 999.5 3243 1040.2 3243.3 1034.5 3641.8 1000.4 3640.4 1000.8 3634.6 957.7 3633.3 959.9 3589.1 959.5 3559.9 945.7 3559.8 946.7 3320.7 961.3 3322 962.2 3242.6 999.5 3243 Z" data-holc_grade="C"/>
<path d="M 774.5 2778.7 775.7 2851.7 769.1 2851.9 768.8 2908.8 753.6 2917 753.4 2933.5 739.6 2932.1 738.5 2928.6 719.5 2928.3 720 2922 712.7 2921.8 697.4 2921.4 697.2 2898.6 679.3 2898.4 678.5 2853.9 658.7 2852.8 656 2806.4 659.6 2779.5 683 2780 682.5 2736.4 663.2 2735 663.5 2696.3 645.3 2697.1 646.4 2659.2 620 2658.3 620 2622.1 626.1 2620.4 623.9 2578.1 605.2 2577.6 604.1 2541.6 680.6 2542.7 680.9 2489.7 672.7 2489.7 672.1 2468.5 627.5 2467.7 627.9 2430.7 647.3 2415.1 649.3 2393.9 775.4 2393.2 775.6 2499.4 774.5 2778.7 Z" data-holc_grade="C"/>
<path d="M 363.1 2436.5 374.8 2426.5 405.3 2416.3 446.9 2402.3 446.8 2530.5 434.1 2522 406.9 2511.2 397 2500.2 366.1 2479.6 363.1 2436.5 Z" data-holc_grade="C"/>
<path d="M 1031.4 321.8 1066.2 321.8 1211.3 319.3 1208.2 362.2 1213.9 419.2 1210.8 438.8 1207.7 461.4 1211.3 478.3 1212.3 552.8 1287 559.5 1286 632 1363.8 633.6 1364.3 743.6 1364.8 761 1477.8 763.6 1498.4 758 1495.8 786.2 1476.7 786.2 1461.3 803.2 1452 790.3 1368.5 786.7 1370.5 845.3 1323.1 832.5 1239.5 804.2 1235.4 794.4 1214.3 770.3 1201.4 751.8 1164.8 693.7 1162.8 551.8 1134.4 551.3 1133.4 558.5 1098.4 554.4 1099.4 477.8 1068 477.8 1068.5 458.2 1029.8 459.8 1031.4 321.8 Z" data-holc_grade="C"/>
<path d="M 1778.9 323.1 1740.9 324.5 1742.3 398.3 1728 396.6 1728.9 412.2 1645 411.4 1650 323.7 1668.1 324.6 1669.7 282.4 1692.3 282.1 1706.3 279.9 1717.8 272.8 1723.6 264.8 1728.8 253.6 1763.4 247.1 1779.4 273.3 1767.6 278.4 1754.2 281 1778.9 323.1 Z" data-holc_grade="C"/>
<path d="M 2171.3 484.2 2157.4 497.8 2159 543.6 2168.1 554.8 2219.8 554.4 2223.3 630.6 2213.6 625.3 2192.9 614 2161.3 573.5 2145 555.7 2125.5 538.1 2114.5 531.8 2102.9 528.5 2086.7 528.3 2071.2 534.6 2056.9 511.8 2050 494.6 2073.6 478.2 2150.6 477.8 2168.7 478.6 2171.3 484.2 Z" data-holc_grade="C"/>
<path d="M 2467.8 325.4 2554.9 324.8 2620.4 323.2 2701.8 325.7 2701.4 406.9 2547.2 404.9 2539.2 413.9 2519.9 435.3 2507.1 452.8 2471.5 482.6 2463.3 481.6 2463.4 554.1 2448.9 554.2 2420.6 554.4 2340.1 555.2 2279.4 638.5 2279.4 674 2283.5 692.5 2232 697.1 2226.3 689.9 2203.6 641.6 2203.6 632.4 2206.2 629.8 2213.6 625.3 2223.3 630.6 2235.4 634 2248.7 633.2 2266.7 626.7 2279.2 615.6 2291.6 589 2294.2 559.5 2294.2 547.1 2298.9 528.2 2314.3 507.2 2310.7 321.4 2386.9 319.3 2393.2 465.7 2418.4 457 2434.4 454.4 2447.8 458.5 2461.2 457.4 2475.6 451.3 2483.9 436.9 2494.2 413.2 2500.3 396.3 2474.6 396.3 2467.8 325.4 Z" data-holc_grade="C"/>
<path d="M 1668.4 751.8 1667.4 789.3 1652.6 787.9 1650.9 837.6 1616.9 834.5 1616.9 865.7 1494.1 862.3 1494.3 819.3 1523.1 819.3 1524.4 809.5 1616.3 812 1617.6 784.2 1634.4 785.5 1636.5 751.6 1668.4 751.8 Z" data-holc_grade="C"/>
<path d="M 787.3 1175.4 786.1 1066.6 765.5 1065.7 767.7 963.3 788.3 963.8 789.2 907.2 729.9 904.6 727.2 1100.4 710.9 1100.4 709.5 1175.8 675.8 1173.2 659.6 1171.9 660.6 1098.2 642.5 1100.1 595.4 1097 600.4 1026.3 550.4 1021.8 553.2 963.2 519.9 962 523.3 909.9 518.1 909.7 520.3 868.8 482.1 820.8 481.8 814.5 483 783.2 588.5 783.5 584.4 696.7 589.2 625.2 590.1 556.3 577.6 557.5 508.9 557.5 500.5 497.7 531.6 499.7 554.5 519.4 606 525 612.5 540.9 612 551.1 621 566.6 634.3 585.8 658.8 604.7 683.7 619.3 712.9 631.7 731.4 644.6 768.7 675.9 818.5 731.2 852.9 769.3 904 868.3 903.5 958.7 895.7 966 787.3 1175.4 Z" data-holc_grade="C"/>
<path d="M 1174.5 866.4 1110.1 865.4 1067.3 862.8 1045.1 862.8 1040.4 944.5 1057.4 980 1057.9 1025.2 1029.1 1027.3 1028 1102.9 1044.5 1129.1 1040.3 1256.6 1053.7 1256.6 1052.7 1282.3 1071.8 1283.4 1071.2 1309.1 1093.4 1310.6 1110.4 1334.3 1130.6 1333.3 1167.2 1356.4 1253.3 1355.4 1253.8 1372.4 1270.3 1388.4 1347.2 1390.4 1348.3 1370.4 1404 1369.3 1407.1 1255.7 1443.2 1255.2 1440.8 1418.6 1138.8 1415.5 1121.6 1394.6 1154.6 1402.1 1155 1373 1088.1 1338 1015.9 1239.5 1019.1 1176.8 1005 1176.1 999.9 904.6 998.9 790.2 1035.7 773.4 1066.7 782.3 1067.3 784.7 1116.1 834.8 1112.4 843.7 1174.5 866.4 Z" data-holc_grade="C"/>
<path d="M 1370.2 969.3 1288.2 967.7 1288.5 948.2 1249.3 947.3 1215.1 946.6 1214.2 1018.7 1170.8 1017.3 1171.8 945.6 1172.4 903.8 1208.2 904.1 1207.9 889.3 1253.8 890.9 1370.2 969.3 Z" data-holc_grade="C"/>
</g>
<g id="D">
<path d="M 355.1 831.5 363.9 830.3 400.1 850.3 409.5 864.1 414.4 875.6 407 902.2 413.6 904.6 404.7 975.9 432.5 978.1 430.5 1032.4 519.5 1120.8 568.7 1169.4 534.9 1168.8 516.5 1151.2 473.3 1109.8 409.6 1053.5 407.9 1047.5 394.5 1018.7 379.4 989.9 385.5 903.8 364.9 868.1 355.1 831.5 Z M 355.1 831.5 314 844.6 239.9 874.1 150.5 911.6 109.9 837.5 70.4 764.8 40.2 706.6 1 633.9 20.5 636.4 23 616.4 81.9 606.1 96.2 615.7 131.1 630.5 185.1 653.1 252.1 702.5 325.7 787.8 347.6 820.3 355.1 831.5 Z M 515.8 407.2 445.5 406.1 416.4 405.7 409.6 406.9 405.9 410.2 407.3 414.5 408.4 416.4 363.2 435.6 348.4 444.5 294.7 479.3 262.9 523.5 242.2 570.1 213.1 580.4 102.3 603.1 99.7 581.1 107.5 580.3 135 557.3 198.1 437.5 250.9 401.2 335.4 347.4 357.7 270.6 405.3 288.3 515.8 407.2 Z" data-holc_grade="D"/>
<path d="M 776.6 2151 771 2158.1 764.4 2170.1 761.3 2188.7 748.6 2204.1 738.6 2221.9 730 2231.9 723.4 2235.3 720 2241.1 717.2 2249 707.6 2266.2 692.4 2285 681.7 2299.8 678.6 2298.4 670.4 2299.8 668.3 2301.5 639 2340.2 628.3 2338.9 623.5 2334.7 613.6 2311.7 662.8 2248.6 680 2250.4 688.3 2243.9 698.3 2229.1 708.3 2209.6 777.9 2117.7 818.2 2071 831.2 2062.8 841.2 2060.4 855.3 2060.1 865.3 2061.1 871.2 2063.8 881.5 2071.1 886.6 2086.2 899 2132.5 868.4 2095.1 852.9 2075.8 842.6 2071.4 834.3 2073.8 830.2 2078.6 828.1 2085.1 828.1 2093 823.3 2106 815.4 2119.7 809.9 2126.6 800.6 2130 791.6 2135.8 781.3 2145.1 776.6 2151 Z" data-holc_grade="D"/>
<path d="M 712.6 3014.5 711.7 3123.5 692.7 3122.6 680.3 3096.9 680.3 3010.6 712.6 3014.5 Z" data-holc_grade="D"/>
<path d="M 1494.1 862.3 1616.9 865.7 1616.9 834.5 1650.9 837.6 1652.6 787.9 1667.4 789.3 1668.4 751.8 1735.3 752.1 1738.6 751.1 1765.3 760.1 1713.8 784.1 1683.2 809.1 1656 840.7 1632 877 1617.2 911.3 1502.7 905.5 1502 893.8 1494.1 893.1 1494.1 862.3 Z" data-holc_grade="D"/>
<path d="M 1689.6 1400.9 1671.9 1400.8 1671.1 1324.9 1696.9 1293.2 1710.2 1262.8 1727 1210 1723.5 1188.6 1717.9 1174.9 1717.5 1164.6 1720.9 1156 1751.9 1158.2 1737.7 1182.6 1738.6 1189.9 1743.7 1201.5 1742.4 1208.3 1733 1255.9 1733.4 1293.2 1708.5 1324.9 1697.8 1342 1705.9 1373.8 1705.1 1376.8 1697.3 1376.8 1691.8 1385.8 1689.6 1400.9 Z" data-holc_grade="D"/>
<path d="M 1983.7 1587.1 1982.8 1483.4 2018 1483.4 2020.1 1445.2 2065.3 1446.1 2064.4 1405.3 2167.8 1405.7 2187.2 1403.1 2201.2 1401.2 2207.3 1408.5 2205.6 1487 2199.1 1488.7 2197.5 1667.9 2183.8 1667.9 2185.5 1732.2 1984.7 1730.6 1983.7 1587.1 Z" data-holc_grade="D"/>
<path d="M 1983.7 1587.1 1984.7 1730.6 2185.5 1732.2 2184.4 1851.8 2149.6 1851.4 2150.9 1896.4 2148.4 2033.2 2140.7 2068.4 2141.5 2090.2 2160.5 2089.4 2162.7 2192.7 2123.5 2192.3 2124.4 2226.2 2103.7 2226.2 2101.2 2353.2 2063.4 2352.8 2063 2406.4 1997.1 2405.4 1955 2404.7 1956.2 2390.6 1951.9 2377.3 1947.2 2371.3 1936 2369.1 1935.8 2317.3 1935.5 2244.7 1846.5 2244.3 1848.3 2316.5 1850 2380.8 1816.4 2379.5 1794.9 2289.8 1790.5 2201.5 1733.7 2068.1 1732.4 2019.2 1926 2016.2 1904.4 1910.2 1762.1 1908.6 1724.6 1844.7 1640.8 1704.1 1667.8 1686.5 1661.4 1677.1 1703.5 1651.3 1710.8 1655.2 1747.8 1657.8 1771.5 1657.3 1794.7 1656.9 1794.3 1723.3 1860.1 1723.8 1861.8 1698 1857.9 1666.3 1906.5 1667.1 1901.8 1644.4 1901.1 1633.5 1983.7 1587.1 Z" data-holc_grade="D"/>
<path d="M 1905.7 2728 1941.2 2763.1 1976.1 2766.1 1976.1 2774.3 2027.7 2782.8 2031.2 2807.7 2050.2 2899.5 2091.4 3092.3 2119.2 3222.3 2109.9 3247.6 2103.8 3245.5 2089.2 3231.3 2059 3198.3 1951.3 3076.4 1911.7 3052 1863.9 2972.6 1842.8 2944.2 1789.4 2885 1778.6 2788.1 1779.5 2717.2 1788.5 2679.1 1787.2 2643 1846.6 2643.4 1843.6 2611.7 1843.1 2548.6 1845.7 2528 1858.2 2533.2 1874.1 2548.2 1887.4 2573 1887 2621.5 1874.1 2622 1870.7 2692.3 1853.5 2693.2 1852.2 2794.9 1906 2797 1906.5 2781.6 1903.9 2746 1905.7 2728 Z" data-holc_grade="D"/>
<path d="M 1686 3452.8 1819.4 3454.4 1821.8 3472 1833.2 3480.5 1849.7 3492.6 1860.7 3498.1 1874.2 3501.8 1869.7 3609.4 1686.1 3607.7 1686 3452.8 Z" data-holc_grade="D"/>
<path d="M 999.3 3708.1 1000.4 3640.4 1034.5 3641.8 1040.2 3243.3 999.5 3243 1001.1 2935.3 1134 2935.4 1134.8 2709.1 1052.4 2708.7 1052.8 2689.1 1070.7 2637.4 1173.3 2638.2 1215.5 2569.6 1273.1 2570.5 1302.8 2609.5 1324.8 2661.4 1331.6 2710.8 1339.4 2771.3 1339 2799.2 1338.1 2818.1 1334.6 2837.8 1335.1 2850.3 1338.9 2868.7 1346.3 2889.7 1359.6 2906.1 1392.3 2936.1 1404.8 2949.8 1412.5 2961 1420.7 2987.6 1441.4 3122 1454.7 3219.1 1453.7 3222.8 1487.8 3279.5 1510.9 3289.1 1528.1 3327.2 1536 3408 1588.1 3408.6 1586.3 3518.2 1571.2 3518.9 1570.8 3515.8 1513.3 3515.8 1508.5 3522.7 1438.9 3524.1 1437.1 3597.9 1439.9 3673.9 1513.6 3674.2 1513.6 3597.2 1587.4 3595.5 1588.1 3708.2 1435.8 3712.3 1366.5 3708.2 1162.8 3708.8 1106.9 3710.2 1019.7 3708.8 999.3 3708.1 Z M 1297.4 2881.6 1297.9 2828.4 1296.3 2822.2 1291.4 2819.1 1286.1 2816 1280.1 2813.8 1275.2 2813.2 1267.6 2814 1262.6 2809.4 1255.3 2805.9 1246.9 2805 1240.6 2806.7 1234.7 2809.3 1226.6 2816.2 1225.8 2813.8 1223.3 2729.5 1225.5 2706.4 1187.2 2706.7 1187.8 2729.2 1183.4 2738.5 1196.8 2778.9 1196 2939.3 1177.5 2939.6 1176.9 3012.9 1164 3012.1 1164.2 3102.7 1143.9 3103.3 1143 3127.2 1162.9 3128.8 1191.2 3234.6 1190.9 3244.2 1243.9 3246.2 1244.7 3017.9 1228.7 3017.9 1227.1 2940.9 1296.5 2942.9 1297.4 2881.6 Z M 1138.7 3175.6 1064.6 3174.7 1065.1 3205.5 1138.7 3207.2 1138.7 3175.6 Z" data-holc_grade="D"/>
<path d="M 1060.3 2637.4 1047 2637.4 1044.6 2527.9 1004 2446.3 1002.1 2390.3 989.7 2390.8 989.4 2314.2 978.4 2314 980.1 2248.9 1016.5 2308.3 1020 2331.4 1057.8 2462.3 1060.3 2637.4 Z" data-holc_grade="D"/>
</g>
</svg>