<?xml version="1.0"?>
<svg xmlns="http://www.w3.org/2000/svg" version="1.2" baseProfile="tiny" width="3000" height="4090" viewBox="0 0 3000 4090" stroke-linecap="round" stroke-linejoin="round">
<g id="A">
<path d="M 1993.8 1670.5 2227.6 1666.6 2222.9 1928.1 2146.6 1934.3 2126.2 1971.4 2125.1 2119.1 2145.5 2121.2 2199.6 2131.5 2209 2198.1 2216.4 2232.1 2142.3 2233.2 2142.3 2236.2 1870 2222.2 1867.1 2517 2011 2507.4 2026.7 2543.8 2033.1 2578.2 2041.3 2604.3 2067.9 2644.2 2069.2 2646.2 2055.3 2812.5 2055.2 2819.4 2054.2 2923.7 1713.7 2929.1 1711.9 3084.7 2119.7 3083.6 2107 3128.7 2121.6 3200.7 2143.4 3253.3 2175.3 3276.9 2199 3302.7 2118.9 3342.3 2005.3 3393.9 2005.8 3367.1 1858.6 3369.3 1860.1 3228.5 1787.8 3155.5 1712.2 3155.9 1712.2 3152 1564 3155 1561.3 2970.6 1420 2966.8 1416.3 2805.3 1546.1 2795.4 1551.9 2723.9 1542.6 2708.1 1545.5 2640.1 1551.9 2586.5 1544.9 2513.6 1542.2 2513.6 1555.4 2158.4 1430.8 2194.8 1429.8 2181.6 1430.8 2181.7 1438.3 2084.8 1462.8 2078.6 1472.1 2058 1470.8 2056.4 1492.8 2051.6 1493.2 2042 1482.2 1880.7 1483.2 1880.7 1483.2 1658.2 1483.2 1657.4 1483.4 1657.4 1538.5 1654.7 1538.5 1652.9 1619.9 1662 1617.7 1596 1539.1 1597.2 1539.1 1596.9 1549.5 1429 1719.4 1428.9 1740.1 1408.3 1751.6 1414.5 1745.5 1520.9 1740.9 1524.6 1750.1 1923 1873.8 1923 1873.8 2127 1988.5 2116.2 1993.8 1670.5 Z M 1727.2 2123.5 1722.3 2193.1 1855.6 2194.6 1854.3 2120.4 1727.2 2123.5 Z" data-holc_grade="A"/>
<path d="M 2665.1 2221.7 2702.4 2310.7 2966.9 2603.3 2999 2685.1 2582.1 2916 2521.2 2910.7 2513.8 2750.7 2497.4 2772.2 2464.7 2796.9 2428.3 2800.1 2297.2 2806.6 2055.2 2819.4 2055.3 2812.5 2069.2 2646.2 2067.9 2644.2 2210.8 2617.3 2315.6 2596.7 2367.5 2586.4 2385 2577.4 2423.4 2547.9 2446.1 2510.8 2457.7 2455.8 2451.9 2301.8 2409.4 2296.4 2316.7 2197.4 2344.7 2184.4 2374.4 2156.9 2391.8 2132.8 2391.8 2122.5 2412.8 2103.9 2423.4 2097.6 2435.4 2106.5 2665.1 2221.7 Z" data-holc_grade="A"/>
</g>
<g id="B">
<path d="M 749.7 1952.5 771.9 1944.7 908.3 1915 887.7 1993.3 619.7 2217.1 585.9 2237.2 541.9 2224.2 504.1 2130 498.3 2082.6 221.6 2077.7 215.8 1943 243.8 1942.4 249.1 1690.2 1 1694.2 1.6 1580.1 5.1 1580.2 145.5 1583.6 146 1619.3 436.1 1622.2 435.8 1519.8 482.8 1531.7 579.3 1568.6 579.3 1627.6 638.7 1630.5 656.8 1639.4 673.7 1716.4 680.6 1976.8 749.7 1952.5 Z" data-holc_grade="B"/>
<path d="M 1468.6 1880 1469.8 1904.8 1444.8 1920.6 1432.5 1937.8 1432.5 1959.8 1432.5 1989.3 1436.6 2018.9 1461.1 2043.6 1470.8 2056.4 1472.1 2058 1462.8 2078.6 1438.3 2084.8 1430.8 2181.7 1429.8 2181.6 1412.1 2180.3 1387.7 2187.2 1348.6 2199.6 1312.5 2216.1 1296.8 2235.3 1276.4 2259.4 1179.7 2263.5 1179.7 2234.6 1149.4 2231.9 1141.7 2263.1 1113.7 2261 1086.1 2231.5 1084.2 2188 1152.1 2184.4 1151.3 2179.6 1153.6 1912.7 1150.7 1916.7 1156.5 1879.3 1397.2 1861.9 1397 1876.6 1441.5 1878.7 1468.6 1880 Z" data-holc_grade="B"/>
<path d="M 2151.4 1368.9 2290.5 1370.9 2292.4 1665.6 2227.6 1666.6 1993.8 1670.5 1984.8 1670.6 1985 1639 1985.7 1521.4 1766.9 1521.4 1745.5 1521.4 1745.5 1520.9 1751.6 1414.5 1751.8 1410.8 1789 1410.6 2146.9 1408.6 2147.6 1368.9 2151.4 1368.9 Z" data-holc_grade="B"/>
<path d="M 2081.5 740.7 2031.7 676.5 2406 670.5 2406 731 2081.5 740.7 Z" data-holc_grade="B"/>
</g>
<g id="C">
<path d="M 1385 1302.1 1390.6 1307.8 1362.4 1406.5 1359.8 1406.5 921.1 1407.6 842.8 1415.1 742.7 1434.4 734.5 1480.5 689.9 1489.1 670.8 1526.7 678.1 1585.8 716.3 1607.2 740 1614.8 844.3 1661.5 840.2 1741.9 810.5 1787.9 775 1820.9 755.2 1833.9 756.9 1882.7 753.6 1923.2 753.6 1924 749.7 1952.5 680.6 1976.8 673.7 1716.4 656.8 1639.4 638.7 1630.5 579.3 1627.6 579.3 1568.6 482.8 1531.7 435.8 1519.8 436.1 1622.2 146 1619.3 145.5 1583.6 5.1 1580.2 4 1369.2 294.6 1372 294.3 1231.7 297.2 1231.6 579.4 1228.3 862 1225 862.2 1086.9 862.5 940.6 881.7 925.5 1285.1 928.7 1290.5 1206.8 1385 1302.1 Z" data-holc_grade="C"/>
<path d="M 2151.4 1368.9 2147.6 1368.9 2146.9 1408.6 1789 1410.6 1751.8 1410.8 1751.6 1414.5 1740.1 1408.3 1738.3 1407.3 1745.2 1357.9 1755.1 1287 1885.6 1246.4 2030 1229.9 2087.8 1221.1 2088.8 1221 2085.9 1270.5 2149.4 1349.5 2151.4 1368.9 Z" data-holc_grade="C"/>
<path d="M 1993.8 1670.5 1988.5 2116.2 1873.8 2127 1873.8 1923 1750.1 1923 1740.9 1524.6 1745.5 1520.9 1745.5 1521.4 1766.9 1521.4 1985.7 1521.4 1985 1639 1984.8 1670.6 1993.8 1670.5 Z" data-holc_grade="C"/>
<path d="M 2559.4 1945 2560.9 2016.2 2627.4 2110.7 2670.4 2219.1 2672.9 2225.6 2665.1 2221.7 2435.4 2106.5 2423.4 2097.6 2416.9 2092.8 2400.9 2081 2269.7 2082.4 2273 1943.8 2294.3 1943.4 2294.3 1945.5 2558.2 1947.5 2559.4 1945 Z" data-holc_grade="C"/>
<path d="M 1416.3 2805.3 1416.2 2799.5 1382.3 2799.5 1378.3 2799.5 1374.8 2765.1 1274 2770.6 1237.3 2760.3 1253.1 2694.3 1255.4 2564.5 1269 2514.3 1542.2 2513.6 1544.9 2513.6 1551.9 2586.5 1545.5 2640.1 1542.6 2708.1 1551.9 2723.9 1546.1 2795.4 1416.3 2805.3 Z" data-holc_grade="C"/>
<path d="M 585.9 2237.2 619.7 2217.1 887.7 1993.3 891 1990.6 869.9 2081.1 868 2239.4 647.8 2509.4 820.3 2508.1 736.9 2733.4 721.8 2803.5 576.7 2803.1 295.3 2802.7 300.1 2511.4 7.6 2516.7 7.1 2337.4 33.4 2315.4 99.8 2290 151 2264.2 148.2 2367.3 292 2373.8 525.9 2272.9 585.9 2237.2 Z" data-holc_grade="C"/>
<path d="M 1291.3 3148.9 1291.3 3152.4 1152 3156.7 1149.3 3223.2 871.6 3222.1 868.9 2946.2 870.7 2946.2 965.4 2949.4 1137.5 2943 1143.9 2909.7 1155.7 2894.7 1261.3 2895.8 1289.5 2946.2 1291.3 3148.9 Z" data-holc_grade="C"/>
<path d="M 1154.1 3702.1 1151 3571.2 1352.7 3571.9 1338.9 3165.8 1338.7 3159.6 1428.7 3157.7 1564 3155 1712.2 3152 1712.2 3155.9 1716.1 3451.9 1621.3 3458.5 1620.7 3595.9 1627.7 3633 1634.5 3706.4 1154.1 3702.1 Z" data-holc_grade="C"/>
<path d="M 2031.7 676.5 2081.5 740.7 2115.7 784.8 2402.3 774 2390.5 818 2051.1 821.3 1955.6 748.3 1944.7 726.8 1866.4 563.6 1872.8 504.6 1878.2 457.3 1876.4 412.2 1880 371.4 1864.6 313.5 1841.8 267.3 1844.5 222.2 1893.7 175 1971.9 126.6 1995.8 120.9 1986.5 170.2 2143 219.8 2185.8 218.1 2189.5 271.7 2156.4 341.2 2205.6 359.2 2035.4 649.1 2023.4 665.8 2031.7 676.5 Z" data-holc_grade="C"/>
<path d="M 1539.1 1597.2 1538.5 1652.9 1538.5 1654.7 1483.4 1657.4 1483.2 1657.4 1483.2 1658.2 1483.2 1880.7 1482.2 1880.7 1468.6 1880 1441.5 1878.7 1397 1876.6 1397.2 1861.9 1400.5 1583.9 1409.2 1524.1 1450.9 1429.1 1525.6 1429 1549.5 1429 1539.1 1596.9 1539.1 1597.2 Z" data-holc_grade="C"/>
</g>
<g id="D">
<path d="M 1095.7 6.1 1139.3 1 1223.5 74.8 1262.3 113.3 1291.9 147.4 1333.1 180.3 1372.1 201.9 1413.8 223 1453 250.2 1488.7 275.3 1526 285.4 1544.2 285.4 1564.7 276.6 1567 338.7 1627 385.4 1641.6 428 1635.7 459.6 1641 500.9 1656.7 539.4 1680.6 566.2 1681.7 578.5 1658.4 591.6 1627.6 588.8 1583.9 590.2 1553.1 597.8 1515.2 622.5 1462.1 629.5 1428.7 629.3 1400.9 629.5 1380 623 1345.5 569 1321.7 550.7 1298.5 521.5 1277.6 496.1 1244.3 479.8 1244.3 376.5 1116.9 380 1079.2 314 1080 140.3 1020 86.2 1095.7 6.1 Z" data-holc_grade="D"/>
<path d="M 1482.2 1880.7 1493.2 2042 1492.8 2051.6 1470.8 2056.4 1461.1 2043.6 1436.6 2018.9 1432.5 1989.3 1432.5 1959.8 1432.5 1937.8 1444.8 1920.6 1469.8 1904.8 1468.6 1880 1482.2 1880.7 Z" data-holc_grade="D"/>
<path d="M 1385 1302.1 1290.5 1206.8 1285.1 928.7 881.7 925.5 862.5 940.6 862.2 1086.9 580.9 1092.9 579.4 1228.3 297.2 1231.6 295.5 946.7 529.9 950.7 570.5 939.7 635.3 911.2 695.4 878.7 722.2 848.5 753.1 810.7 781 768.8 796.2 746.1 816 731.7 836.9 717.3 845.7 686.4 863.7 652 881.2 633.4 913.8 636.2 945.8 649.9 961.5 659.6 956.9 750.3 1047.1 761.3 1084.4 774.3 1144.9 748.2 1149.6 798.4 1411.5 802 1521.6 710.8 1567.1 764.4 1400.6 896.5 1508.9 1024.3 1484.3 1093 1467.9 1101.6 1385 1302.1 Z" data-holc_grade="D"/>
<path d="M 2087.8 1221.1 2030 1229.9 1885.6 1246.4 1755.1 1287 1745.2 1357.9 1738.3 1407.3 1740.1 1408.3 1719.4 1428.9 1549.5 1429 1525.6 1429 1450.9 1429.1 1448.8 1429.1 1471.6 1359.3 1506.2 1299.2 1511.6 1246.6 1653.6 1112.3 1652.6 1093 1759.1 1040.4 1822.8 1074.7 2062.7 1148.8 2092.8 1207.6 2087.8 1221.1 Z" data-holc_grade="D"/>
<path d="M 2559.4 1945 2558.2 1947.5 2294.3 1945.5 2294.3 1943.4 2292.4 1665.6 2290.5 1370.9 2290.5 1367.8 2297.8 1368.9 2297.1 1194 2308.9 1190.7 2329.8 1178 2351.1 1162.5 2372.3 1149.3 2407.3 1144 2441 1156.9 2435.9 1365.9 2581.5 1370.7 2585.5 1890.6 2559.4 1945 Z" data-holc_grade="D"/>
<path d="M 1538.5 1652.9 1539.1 1597.2 1617.7 1596 1619.9 1662 1538.5 1652.9 Z" data-holc_grade="D"/>
<path d="M 753.6 1923.2 756.9 1882.7 755.2 1833.9 775 1820.9 810.5 1787.9 840.2 1741.9 844.3 1661.5 740 1614.8 716.3 1607.2 678.1 1585.8 670.8 1526.7 689.9 1489.1 734.5 1480.5 742.7 1434.4 842.8 1415.1 921.1 1407.6 1359.8 1406.5 1339.6 1494.6 1260.5 1525.7 1198.6 1563.3 1110.3 1636.3 1035.7 1716.8 992.9 1757.6 971.1 1798.4 901 1860.7 813.6 1906.8 753.6 1923.2 Z" data-holc_grade="D"/>
<path d="M 1141.7 2263.1 1143.1 2263.2 1144.7 2511.5 1269.4 2512.9 1269 2514.3 1255.4 2564.5 1253.1 2694.3 1237.3 2760.3 1274 2770.6 1374.8 2765.1 1378.3 2799.5 1382.3 2799.5 1416.2 2799.5 1416.3 2805.3 1420 2966.8 1422.6 3079.9 1432.5 3106 1428.7 3157.7 1338.7 3159.6 1338.9 3165.8 1291.3 3148.9 1289.5 2946.2 1261.3 2895.8 1155.7 2894.7 1143.9 2909.7 1137.5 2943 965.4 2949.4 870.7 2946.2 860.6 2512.5 834.1 2515.6 820 2494.2 1004.8 2143 1020.1 2130.8 1060 2043.7 1150.7 1916.7 1153.6 1912.7 1151.3 2179.6 1152.1 2184.4 1084.2 2188 1086.1 2231.5 1113.7 2261 1141.7 2263.1 Z" data-holc_grade="D"/>
<path d="M 2142.3 2236.2 2142.3 2233.2 2216.4 2232.1 2283.4 2231.1 2285.3 2537.1 2142.4 2536 2142.3 2236.2 Z" data-holc_grade="D"/>
<path d="M 1154.1 3702.1 1634.5 3706.4 1627.7 3633 1620.7 3595.9 1621.3 3458.5 1716.1 3451.9 1719.8 3451.6 1724.7 4087.6 1156.2 4088.6 1151.1 3702.1 1154.1 3702.1 Z" data-holc_grade="D"/>
</g>
</svg>