<?xml version="1.0"?>
<svg xmlns="http://www.w3.org/2000/svg" version="1.2" baseProfile="tiny" width="3000" height="2993" viewBox="0 0 3000 2993" stroke-linecap="round" stroke-linejoin="round">
<g id="A">
<path d="M 1753.2 1027.4 1750.5 1027.5 1752.5 1060.4 1751.1 1060.4 1696.5 1061.3 1693.5 1298.3 1693.9 1301.6 1672.2 1302.3 1673.2 1400.5 1553.6 1400.3 1513 1400.2 1512.3 1401.2 1510.6 1353.3 1491.4 1348 1462 1322.5 1440.1 1314 1420.7 1311.5 1419.8 1285.4 1421.3 1234.4 1420.2 1202.3 1417.3 1187.6 1416.4 1148.1 1393.6 1147.7 1375.7 1089.5 1378.9 1027.9 1380.1 1020.8 1383.6 1000.7 1391.3 986.3 1404.9 975.2 1428.8 968.4 1445.8 966.3 1440.1 952.5 1443.7 948.5 1447.5 944.2 1475.7 938.1 1485.9 935.6 1493.8 933.6 1509.9 927.5 1515.8 920 1518 906.3 1525.2 899.2 1535.3 904.3 1543.1 904.3 1549.6 894.6 1554.1 888 1564.4 879.4 1572.8 876.5 1581.4 871 1583.5 863.9 1595.3 862.4 1639 860.4 1641.9 814.8 1641.5 732.8 1591.9 732.5 1591.5 709.4 1591.3 697 1591.2 694.3 1612.9 695.3 1614.5 678.4 1643.2 677.1 1644 640.2 1644 639.3 1695.4 638.6 1697.3 638.6 1697.8 694.5 1724.8 696.6 1724.7 815.2 1753.2 815 1752.8 899.4 1724.4 901.1 1723.8 958.4 1752.6 958.4 1753.2 1027.4 Z M 1583.7 593.3 1584.4 635.4 1566.2 634.6 1566.5 593.8 1583.7 593.3 Z M 1611.2 499.7 1613.3 554.2 1572.4 551.8 1572.6 551.8 1576.5 501.2 1611.2 499.7 Z M 1627 321.2 1609.7 344.5 1594.7 364.9 1594.5 365.4 1583.5 364.4 1556.8 365.7 1535.4 362.2 1534.9 363.1 1534 364.5 1515.6 387.1 1522.9 393.7 1532.2 398 1539.1 402.4 1544.9 413.3 1545.8 427.2 1545.5 437.9 1540.3 443.9 1531.5 449.2 1524.1 458.7 1522.3 466 1527.5 477 1530.2 486.5 1532.4 494.9 1534.7 500.8 1533.2 503.5 1529.7 503.4 1525.2 502.8 1524.9 507.8 1529.8 519 1529.6 525.2 1529.8 537.1 1534.9 539.1 1538.3 543.3 1540.7 552.3 1540.9 552.9 1522.4 585.9 1505.3 600.4 1493.1 610.9 1487.6 616.9 1485.1 626.8 1485.4 634 1491.8 637.3 1495.1 642.2 1498.9 652.9 1501.7 673.6 1515.1 695.6 1510.8 695.5 1509.7 719.3 1508.9 734.7 1509 734.8 1428.3 733.5 1433.8 364.6 1420.7 364.4 1414.5 332 1427 325.1 1430.2 320 1430 311.6 1431.4 304.7 1440.1 302.6 1449.4 307.7 1462.5 321.3 1470.6 320.4 1471.3 315.1 1473.8 304.6 1474.3 302.5 1479.6 297.9 1487.6 299.2 1483.3 279.6 1476.3 274.8 1481.7 252.5 1490.4 253.2 1514.1 255.2 1511.4 271 1529.6 272.4 1530.4 307.9 1543.4 308.1 1551.2 306.7 1555.5 309.2 1559.8 296.1 1573.9 296.5 1574.1 306.3 1596.1 305.6 1613.4 312.8 1627 321.2 Z M 1645.4 178.1 1652.5 212.9 1580.6 219.8 1578.6 193.4 1598.8 190.4 1602.1 181.8 1601.8 174.4 1602.6 165.9 1612.3 164.8 1622.8 173.6 1633 172.8 1634.1 176.3 1627.5 179.4 1626.4 184.6 1632.2 186.5 1636.3 184.3 1639.3 178.3 1645.4 178.1 Z" data-holc_grade="A"/>
</g>
<g id="B">
<path d="M 968.3 1458.9 971.6 1346.7 972.6 1346.7 972.9 1346.7 1059.3 1344.9 1057.6 1280.5 1057.6 1279.5 1057.7 1279.5 1097.7 1278.1 1099.4 1278 1150.2 1276.3 1151 1203.3 1147.3 1194.6 1149 1178.8 1162.6 1179 1238.5 1180.5 1244 1316.9 1268 1317.1 1271.1 1471.2 1294.7 1472.3 1286.3 1481.3 1282 1491.1 1274.2 1508.7 1263.4 1539.4 1253.8 1563 1246.7 1590 1085.2 1591.2 1080.4 1475.7 970.9 1477.5 970.1 1474.8 969.3 1459.6 969.3 1458.9 968.3 1458.9 Z M 1235.7 996 1240.9 933.4 1282.5 906.3 1305.4 906.6 1309.5 906.7 1308.9 924.8 1308.5 936.4 1304.8 1051.7 1304.8 1088.5 1235.5 1089.2 1239.6 1017.7 1240.8 995.9 1235.7 996 Z" data-holc_grade="B"/>
<path d="M 1785.5 1454.8 1775.3 1454.7 1775.3 1457.7 1723.2 1458.3 1723.6 1557.6 1547.7 1557.1 1544.2 1548.5 1523.4 1541.8 1507.7 1538.1 1497.8 1529.6 1491.2 1518.2 1487.4 1512.9 1488.5 1508.1 1495.7 1500.9 1495.7 1495.9 1484 1486.1 1483.5 1485 1480.8 1479.7 1481.9 1476.5 1483.3 1455.4 1503 1454.3 1502.6 1416.5 1512.3 1401.2 1513 1400.2 1553.6 1400.3 1673.2 1400.5 1672.2 1302.3 1693.9 1301.6 1693.5 1298.3 1696.5 1061.3 1751.1 1060.4 1752.5 1060.4 1752.6 1061.7 1753.4 1061.7 1805.4 1061.7 1804.7 1072.5 1803.3 1094.8 1786.7 1093.8 1785.5 1454.8 Z" data-holc_grade="B"/>
<path d="M 1585.6 643.8 1587.5 693.9 1591.3 697 1591.5 709.4 1591.9 732.5 1641.5 732.8 1641.9 814.8 1639 860.4 1595.3 862.4 1583.5 863.9 1581.4 871 1572.8 876.5 1564.4 879.4 1554.1 888 1549.6 894.6 1543.1 904.3 1535.3 904.3 1525.2 899.2 1518 906.3 1515.8 920 1509.9 927.5 1493.8 933.6 1485.9 935.6 1482.3 929.1 1481.7 922.6 1485.6 911.2 1513.2 849.7 1491.8 849 1491.4 810 1513.7 809.6 1510.2 797.3 1511 791.3 1508 784.8 1510.9 773.4 1511.7 770.4 1496.2 747.7 1496.6 745.1 1501 744.4 1510.2 746.1 1511.6 744.2 1511.2 738 1509 734.8 1508.9 734.7 1509.7 719.3 1510.8 695.5 1515.1 695.6 1563.8 696.1 1566.3 644.4 1585.6 643.6 1585.6 643.8 Z" data-holc_grade="B"/>
<path d="M 2173.4 2345.4 2171.4 2345.2 2162.4 2344 2157.5 2347.1 2150.4 2343.6 2148.2 2342 2145.2 2336.9 2144.3 2327.8 2144.5 2316.9 2141.1 2307.5 2131.8 2299.7 2124.6 2298.3 2121.6 2294.4 2123.9 2285.4 2124.2 2273.2 2123.2 2266.8 2117.1 2256.3 2109.5 2242.4 2096.1 2236.4 2095.6 2225.3 2088.5 2217.9 2074.9 2210.3 2069.8 2203.1 2068.9 2192 2067.9 2183.8 2068.5 2183.8 2070.7 2180 2071.4 2178.9 2084.5 2182.4 2092.9 2186.7 2103.5 2200.3 2108.8 2201.5 2118.7 2203.8 2131 2208.3 2140.9 2214 2142 2214.1 2143.5 2222.5 2148.6 2227.4 2154.1 2237.8 2165.6 2244.8 2196 2251.8 2225.7 2277 2241.9 2279.1 2242.2 2313.7 2264.8 2314.8 2268.1 2340.4 2288 2341.2 2285.2 2291.9 2434.1 2287.2 2402.8 2179.6 2373.3 2180.7 2372.4 2154.9 2344.5 2155.7 2342.3 2125.4 2318.8 2127.1 2317.4 2093.5 2291.8 2092.4 2289.8 2032.7 2240.9 2033.6 2238 1998.9 2187.6 1998.3 2185 1913.8 2235.4 1913.7 2237.2 1934.5 2367.9 1931.2 2371.2 1981 2390.8 1981.5 2395.3 2029.1 2420.4 2029.4 2421.5 2058.3 2468.5 2059.9 2471 2091 2495.8 2087.4 2497.5 2120.4 2524.3 2118.2 2528.2 2175.7 2604.8 2172.7 2604.8 2221.3 2620.8 2221 2621.5 2254.2 2698.7 2252.7 2699.7 2274.5 2786.5 2271.6 2788.9 2304.3 2800.2 2303.2 2807.1 2416.2 2575 2429.5 2534.9 2431.8 2531.4 2411 2421.4 2417 2353.4 2420.7 2352 2407.5 2290.8 2410.3 2287.2 2367.7 2253.1 2368.9 2244.8 2365.8 2234.7 2360.2 2228 2352.5 2219.3 2341.7 2206.8 2333 2200.8 2325.8 2191.1 2327.2 2185.6 2336.2 2185.4 2336.9 2182.9 2345 2179.6 2345.9 2173.4 2345.4 Z" data-holc_grade="B"/>
</g>
<g id="C">
<path d="M 359.7 1434.8 358.9 1434.9 360.3 1419.5 352.8 1392.4 343.3 1363.5 336.1 1340.4 320.1 1322.3 303.6 1306.4 289.9 1279.2 276.1 1264.2 254.9 1253.8 237.4 1251.3 211.6 1244.7 193.3 1240.9 180.4 1241.8 162.5 1236.3 142.9 1238.4 119.2 1237.5 88.8 1234.2 63.4 1221.7 38.8 1200.1 25.5 1188.9 13.4 1169 4.7 1152 1 1124.6 5.6 1096.8 12.3 1073.2 28.1 1050.4 42.4 1036.6 66.9 1018.1 101.3 1008.3 121.6 1002.5 143.4 995.6 171.9 976 192.7 964.6 201.3 956.6 221.5 942.5 243.4 909.4 254.4 885.8 255.9 886.7 274.8 898.4 298.5 924.8 310.8 948.2 319.3 969.4 327.6 1007 333.8 1052.2 334.3 1055.6 340.8 1102.7 354.8 1204.4 365.4 1265.5 371.8 1324.7 388.8 1430.2 359.7 1434.8 Z" data-holc_grade="C"/>
<path d="M 684.2 1498.5 689 1489.7 681 1476.8 687.4 1466.5 738.8 1464.1 741.6 1552.3 737.4 1560.7 727.1 1558.3 716.5 1561.6 708.9 1565.8 700.8 1579 698 1589.4 690.3 1611.6 684 1622.8 678.5 1636.3 675.7 1654.7 669.6 1667.9 662.4 1679.5 651.1 1688 639.8 1688.3 626.8 1692.4 618.5 1689.9 607.5 1689.9 559.7 1663.5 551.5 1644.5 541 1618.4 539.1 1596.6 543.8 1583.2 554.5 1574.4 571.1 1567.2 604.2 1564.5 623.3 1566.1 635.7 1570.8 648.9 1578.3 663 1580.7 673 1581.6 681.8 1573.3 683.5 1567.6 680.4 1552.1 679.6 1537.3 689.6 1524.6 678.8 1508.4 684.2 1498.5 Z" data-holc_grade="C"/>
<path d="M 972.6 1346.7 968.7 1277.8 1054.8 1277 1057.7 1279.5 1057.6 1279.5 1057.6 1280.5 1059.3 1344.9 972.9 1346.7 972.6 1346.7 Z M 1443.7 948.5 1440.1 952.5 1445.8 966.3 1428.8 968.4 1404.9 975.2 1391.3 986.3 1383.6 1000.7 1380.1 1020.8 1378.9 1027.9 1375.7 1089.5 1393.6 1147.7 1416.4 1148.1 1417.3 1187.6 1420.2 1202.3 1421.3 1234.4 1419.8 1285.4 1420.7 1311.5 1440.1 1314 1462 1322.5 1491.4 1348 1510.6 1353.3 1512.3 1401.2 1502.6 1416.5 1503 1454.3 1483.3 1455.4 1483.5 1452.9 1324.9 1453.4 1323.5 1471.2 1325.1 1471.3 1325.8 1495.4 1325.9 1497.5 1450.4 1579.5 1410.4 1642.8 1519.1 1722 1486.1 1775.4 1482.9 1773.4 1335.5 1679.9 1249.7 1678.1 1255.5 1651.2 1164.6 1693.2 1139.8 1699.3 1101.7 1705.7 1076.6 1716.8 1022.2 1745.7 983.6 1758.2 943.6 1758.5 883.1 1752.2 837 1747.3 826 1747.2 826 1745.5 826 1639.7 877.3 1637.6 877.7 1570 829.4 1569.5 830.7 1462.3 968.3 1458.9 969.3 1458.9 969.3 1459.6 970.1 1474.8 970.9 1477.5 1080.4 1475.7 1085.2 1591.2 1246.7 1590 1253.8 1563 1263.4 1539.4 1274.2 1508.7 1282 1491.1 1286.3 1481.3 1294.7 1472.3 1271.1 1471.2 1268 1317.1 1244 1316.9 1238.5 1180.5 1162.6 1179 1149 1178.8 1147.3 1194.6 1151 1203.3 1150.2 1276.3 1099.4 1278 1097.7 1278.1 1099.3 1208.3 1099.4 1206.5 1100 1178 1146.7 1177.4 1150.6 997.2 1235.7 996 1240.8 995.9 1239.6 1017.7 1235.5 1089.2 1304.8 1088.5 1304.8 1051.7 1308.5 936.4 1308.9 924.8 1309.5 906.7 1305.4 906.6 1282.5 906.3 1240.9 933.4 1239.2 934.5 1244.2 797.8 1265.2 790.9 1439.7 947.5 1443.7 948.5 Z" data-holc_grade="C"/>
<path d="M 2607.4 423.5 2604 426.1 2603.9 428.8 2590.9 440.4 2569.9 459.2 2545.2 480 2526.7 497 2494.1 526 2449.3 568.1 2410.8 601.2 2377.5 634.9 2324.8 680.3 2269.1 728.6 2259.2 741.8 2247.7 757.1 2246.2 276 2605.8 276.4 2607.1 422.7 2607.4 423.5 Z" data-holc_grade="C"/>
<path d="M 1775.3 1457.7 1778.6 1592.3 1779 1612 1571.5 1614.8 1570.2 1614.8 1566.4 1614.9 1566.3 1613.1 1565.6 1585.9 1548.8 1586.5 1548.8 1580.9 1547.7 1566.3 1548.8 1559.6 1547.7 1557.1 1723.6 1557.6 1723.2 1458.3 1775.3 1457.7 Z M 2067.5 1089.3 2058.6 1103.6 2045.6 1115.3 2040.4 1119.2 2017 1136.7 1984.5 1171.7 1961.7 1202.2 1933.1 1237.9 1894.7 1291 1868.8 1323.8 1864.9 1330.5 1847.3 1360.4 1832.9 1397.3 1823.6 1420.7 1844.1 1455.1 1841.1 1455.1 1785.5 1454.8 1786.7 1093.8 1803.3 1094.8 1804.7 1072.5 1805.4 1061.7 1753.4 1061.7 1752.6 1061.7 1752.5 1060.4 1750.5 1027.5 1753.2 1027.4 1858.9 1024 1863 991.7 1883 991.7 1885.5 999.6 1925.1 1000.8 1926.7 914.9 1903 914.5 1905 818.7 1881.3 817.5 1885 764.8 1933.7 761 1952.9 763.5 1951.3 908.3 1972.1 908.7 1972.1 999.6 1993.2 1001.5 1992.7 1028 1991.9 1086.2 2067.5 1089.3 Z" data-holc_grade="C"/>
<path d="M 2334.7 1086 2296.5 1176.6 2295.4 1187.8 2293.6 1203.9 2353.6 1204.7 2354.1 1272.8 2236.6 1279.9 2236.7 1364.1 2414 1363.7 2414.1 1453.2 2238.8 1455.4 2235.4 1572.7 2237.3 1640.7 2148.6 1643 2148.9 1638.4 2139.8 1638.7 2077.3 1640.1 2073.1 1456.8 2073.1 1456.6 2090.9 1432.8 2126.3 1399.9 2151.9 1382.4 2170.4 1363.2 2178.7 1345.7 2192.2 1331.9 2213.3 1296.2 2230.9 1273.4 2249.3 1222.2 2261.7 1190.3 2278.4 1149.5 2303.6 1086.9 2335.2 1084.8 2334.7 1086 Z" data-holc_grade="C"/>
<path d="M 2969.8 2210.3 2981.5 2494.3 2979.3 2494.5 2804.7 2504.4 2801 2507.6 2805.1 2586.2 2536.7 2603.8 2533.2 2435.8 2528.3 2434.1 2254.3 2448 2244.4 2423.5 2245.6 2408.9 2237.4 2398.5 2231.8 2405 2225.4 2405.4 2215 2396 2205.9 2386.5 2196.9 2385.7 2185.2 2379.6 2176.1 2365.9 2174.4 2351.7 2173.4 2345.4 2179.6 2345.9 2182.9 2345 2185.4 2336.9 2185.6 2336.2 2191.1 2327.2 2200.8 2325.8 2206.8 2333 2219.3 2341.7 2228 2352.5 2234.7 2360.2 2244.8 2365.8 2253.1 2368.9 2287.2 2367.7 2290.8 2410.3 2352 2407.5 2353.4 2420.7 2421.4 2417 2531.4 2411 2534.9 2431.8 2575 2429.5 2807.1 2416.2 2800.2 2303.2 2788.9 2304.3 2786.5 2271.6 2699.7 2274.5 2698.7 2252.7 2621.5 2254.2 2620.8 2221 2604.8 2221.3 2604.8 2172.7 2528.2 2175.7 2524.3 2118.2 2497.5 2120.4 2495.8 2087.4 2471 2091 2468.5 2059.9 2421.5 2058.3 2420.4 2029.4 2395.3 2029.1 2390.8 1981.5 2371.2 1981 2367.9 1931.2 2237.2 1934.5 2235.4 1913.7 2185 1913.8 2187.6 1998.3 2238 1998.9 2240.9 2033.6 2289.8 2032.7 2291.8 2092.4 2317.4 2093.5 2318.8 2127.1 2342.3 2125.4 2344.5 2155.7 2372.4 2154.9 2373.3 2180.7 2402.8 2179.6 2434.1 2287.2 2285.2 2291.9 2288 2341.2 2268.1 2340.4 2264.8 2314.8 2242.2 2313.7 2241.9 2279.1 2225.7 2277 2196 2251.8 2165.6 2244.8 2154.1 2237.8 2148.6 2227.4 2143.5 2222.5 2142 2214.1 2142.2 2214.1 2147.5 2214.4 2155.9 2212.3 2135.9 2197.7 2128.4 2191.4 2123.5 2181.4 2122.7 2113.6 2132.3 2111.8 2133.5 2068 2125.5 2067 2121.4 2063.9 2110.4 2027.6 2107.1 2006.8 2057.6 2004.9 2056.5 1830.2 2073.8 1822 2074 1821.9 2074.2 1821.8 2090.7 1816.1 2103.6 1811.5 2117.7 1799.5 2238.5 1801.1 2236.4 1773.7 2184.8 1775.4 2183.5 1729.3 2183.6 1728.9 2311.4 1733 2318.5 1727.6 2371 1727.6 2372.6 1823 2346.6 1823.6 2345.1 1835.3 2368.6 1852.9 2372.1 1910.3 2391.5 1909.5 2394.5 1982 2396.9 1981.2 2407.9 1978.5 2426 1983 2449.4 1980.9 2494.8 1980.3 2508.2 1979 2513.7 2079.9 2595.7 2078.6 2688.7 2145.3 2688.3 2171.1 2872.5 2164.4 2874.9 2216.8 2969.8 2210.3 Z" data-holc_grade="C"/>
<path d="M 1644 640.2 1643.2 677.1 1614.5 678.4 1612.9 695.3 1591.2 694.3 1591.3 697 1587.5 693.9 1585.6 643.8 1587.2 635.6 1641.8 634.2 1642.4 639.5 1644 640.2 Z" data-holc_grade="C"/>
<path d="M 1594.5 365.4 1591 377.1 1590.8 377.8 1587.8 416 1581.8 455.1 1614.2 455.6 1617.7 455.5 1613.4 499.6 1611.2 499.7 1576.5 501.2 1572.6 551.8 1572.4 551.8 1540.7 552.3 1538.3 543.3 1534.9 539.1 1529.8 537.1 1529.6 525.2 1529.8 519 1524.9 507.8 1525.2 502.8 1529.7 503.4 1533.2 503.5 1534.7 500.8 1532.4 494.9 1530.2 486.5 1527.5 477 1522.3 466 1524.1 458.7 1531.5 449.2 1540.3 443.9 1545.5 437.9 1545.8 427.2 1544.9 413.3 1539.1 402.4 1532.2 398 1522.9 393.7 1515.6 387.1 1534 364.5 1534.9 363.1 1535.4 362.2 1556.8 365.7 1583.5 364.4 1594.5 365.4 Z" data-holc_grade="C"/>
<path d="M 1717.6 22.9 1645.1 176.6 1645.4 178.1 1639.3 178.3 1636.3 184.3 1632.2 186.5 1626.4 184.6 1627.5 179.4 1634.1 176.3 1633 172.8 1622.8 173.6 1612.3 164.8 1602.6 165.9 1601.8 174.4 1602.1 181.8 1598.8 190.4 1578.6 193.4 1580.6 219.8 1652.5 212.9 1653.1 215.9 1658.6 242.3 1659.2 261.5 1650.6 291.8 1627 321.1 1627 321.2 1613.4 312.8 1596.1 305.6 1574.1 306.3 1573.9 296.5 1559.8 296.1 1555.5 309.2 1551.2 306.7 1543.4 308.1 1530.4 307.9 1529.6 272.4 1511.4 271 1514.1 255.2 1490.4 253.2 1495.2 232.6 1497.8 208.2 1495 189 1487 176 1480.3 164.2 1473.8 151 1469.7 139.1 1479.1 123.8 1493.9 120.2 1510.7 119.7 1530.1 120.4 1532.9 184.4 1596.3 183 1594.2 177.6 1587.5 161.2 1591.1 159.6 1595.5 159.6 1600.2 156 1600.2 151.1 1592.7 142.3 1596.6 139.2 1600.2 133.8 1591.1 130.5 1590.5 124.1 1597.4 122.5 1602.9 120.6 1606.8 108.2 1612.8 108.2 1611.2 117 1619.2 121.9 1628.8 115.9 1622.5 103 1621.7 94.2 1626.1 96.7 1631.3 97.8 1643.8 60.8 1647.1 55.3 1654.5 48 1654 43.6 1651 41.1 1644.5 38.3 1643.8 34.2 1648.4 32.8 1658.6 33 1663.5 20.7 1717.6 22.9 Z" data-holc_grade="C"/>
</g>
<g id="D">
<path d="M 1663.5 20.7 1658.6 33 1648.4 32.8 1643.8 34.2 1644.5 38.3 1651 41.1 1654 43.6 1654.5 48 1647.1 55.3 1643.8 60.8 1631.3 97.8 1626.1 96.7 1621.7 94.2 1622.5 103 1628.8 115.9 1619.2 121.9 1611.2 117 1612.8 108.2 1606.8 108.2 1602.9 120.6 1597.4 122.5 1590.5 124.1 1591.1 130.5 1600.2 133.8 1596.6 139.2 1592.7 142.3 1600.2 151.1 1600.2 156 1595.5 159.6 1591.1 159.6 1587.5 161.2 1594.2 177.6 1596.3 183 1532.9 184.4 1530.1 120.4 1510.7 119.7 1493.9 120.2 1479.1 123.8 1469.7 139.1 1473.8 151 1480.3 164.2 1487 176 1495 189 1497.8 208.2 1495.2 232.6 1490.4 253.2 1481.7 252.5 1476.3 274.8 1483.3 279.6 1487.6 299.2 1479.6 297.9 1474.3 302.5 1473.8 304.6 1471.3 315.1 1470.6 320.4 1462.5 321.3 1449.4 307.7 1440.1 302.6 1431.4 304.7 1430 311.6 1430.2 320 1427 325.1 1414.5 332 1420.7 364.4 1433.8 364.6 1428.3 733.5 1509 734.8 1511.2 738 1511.6 744.2 1510.2 746.1 1501 744.4 1496.6 745.1 1496.2 747.7 1511.7 770.4 1510.9 773.4 1508 784.8 1511 791.3 1510.2 797.3 1513.7 809.6 1491.4 810 1491.8 849 1513.2 849.7 1485.6 911.2 1481.7 922.6 1482.3 929.1 1485.9 935.6 1475.7 938.1 1447.5 944.2 1443.7 948.5 1439.7 947.5 1265.2 790.9 1244.2 797.8 1239.2 934.5 1240.9 933.4 1235.7 996 1150.6 997.2 1146.7 1177.4 1100 1178 1099.4 1206.5 1099.3 1208.3 1024.2 1174.9 950.5 1181.5 881.3 1184 795.4 1181.8 709.1 1096.5 634.6 1091.8 604.1 1103.9 580.4 1104.5 563.1 1101.1 544.7 1093.2 519.8 1076.3 500.1 1063.2 461.4 1036.3 437.7 1036.1 412.7 1034.7 386.2 1039.4 368.5 1044.8 334.3 1055.6 333.8 1052.2 327.6 1007 319.3 969.4 310.8 948.2 298.5 924.8 274.8 898.4 255.9 886.7 269.6 835.4 275.3 810.6 286.1 773.8 297 726 305.8 614.4 308.9 547.4 308.5 483.8 312 450.7 309.8 419.4 304.7 379.9 308.2 352.8 307.3 330.5 305.2 310.7 300.9 291.4 302.6 270.4 297.2 250.6 296.9 228.9 291.4 197 288.4 125 280.4 106.4 264.2 94.2 243.5 91.8 211.2 90.9 171.2 95.5 144.8 93.6 127.7 100.2 102.8 93.3 107.2 1 1665.3 16.1 1663.5 20.7 Z M 377.8 14.5 375.6 109.8 293.7 107.2 296.7 150.9 300 186.6 308.3 184.1 461.3 185.9 463.4 293.3 312.9 292.3 319.3 362.7 463.7 366.3 456.3 539.8 718.1 538.1 720.7 370 706.7 367.7 666.5 329.1 656.9 282.6 631.5 236.7 628 216.1 610.4 196.3 607 97.5 585.5 16.4 377.8 14.5 Z" data-holc_grade="D"/>
<path d="M 1099.3 1208.3 1097.7 1278.1 1057.7 1279.5 1054.8 1277 968.7 1277.8 972.6 1346.7 971.6 1346.7 968.3 1458.9 830.7 1462.3 829.4 1569.5 877.7 1570 877.3 1637.6 826 1639.7 826 1745.5 796.8 1743.6 780.4 1744.2 766.5 1744.2 743.7 1743.8 726.5 1738.2 699.7 1732.7 670.2 1726.5 656.4 1725.7 640.3 1725.6 611.7 1733.8 583.2 1746.7 542.6 1760 517.2 1767.7 498.6 1770.3 470.6 1769.7 397.7 1755.2 370.1 1747.3 350.7 1739 338 1731.6 328.1 1721.7 315.4 1706.4 302.4 1679.7 299.1 1658.3 297.2 1644.8 303.4 1617.3 309.1 1601.7 327.6 1568.4 339.2 1550.8 350.8 1523.1 351.7 1507.1 352 1482.4 359.7 1434.8 388.8 1430.2 371.8 1324.7 365.4 1265.5 354.8 1204.4 340.8 1102.7 334.3 1055.6 368.5 1044.8 386.2 1039.4 412.7 1034.7 437.7 1036.1 461.4 1036.3 500.1 1063.2 519.8 1076.3 544.7 1093.2 563.1 1101.1 580.4 1104.5 604.1 1103.9 634.6 1091.8 709.1 1096.5 795.4 1181.8 881.3 1184 950.5 1181.5 1024.2 1174.9 1099.3 1208.3 Z M 684.2 1498.5 678.8 1508.4 689.6 1524.6 679.6 1537.3 680.4 1552.1 683.5 1567.6 681.8 1573.3 673 1581.6 663 1580.7 648.9 1578.3 635.7 1570.8 623.3 1566.1 604.2 1564.5 571.1 1567.2 554.5 1574.4 543.8 1583.2 539.1 1596.6 541 1618.4 551.5 1644.5 559.7 1663.5 607.5 1689.9 618.5 1689.9 626.8 1692.4 639.8 1688.3 651.1 1688 662.4 1679.5 669.6 1667.9 675.7 1654.7 678.5 1636.3 684 1622.8 690.3 1611.6 698 1589.4 700.8 1579 708.9 1565.8 716.5 1561.6 727.1 1558.3 737.4 1560.7 741.6 1552.3 738.8 1464.1 687.4 1466.5 681 1476.8 689 1489.7 684.2 1498.5 Z" data-holc_grade="D"/>
<path d="M 2961.7 29.7 2823.6 192.1 2751.5 282.8 2719 314.6 2670.9 374.2 2607.4 423.5 2607.1 422.7 2605.8 276.4 2246.2 276 2247.7 757.1 2247.6 757.3 2181.5 879.3 2162.6 915 2159.4 929.9 2143.1 955.8 2107.4 1018.7 2073.6 1079.6 2067.5 1089.3 1991.9 1086.2 1992.7 1028 1993.2 1001.5 1972.1 999.6 1972.1 908.7 1951.3 908.3 1952.9 763.5 1933.7 761 1885 764.8 1881.3 817.5 1905 818.7 1903 914.5 1926.7 914.9 1925.1 1000.8 1885.5 999.6 1883 991.7 1863 991.7 1858.9 1024 1753.2 1027.4 1752.6 958.4 1723.8 958.4 1724.4 901.1 1752.8 899.4 1753.2 815 1724.7 815.2 1724.8 696.6 1697.8 694.5 1697.3 638.6 1695.4 638.6 1695.4 634.8 1791.4 633.1 1793.8 452.8 1617.7 455.5 1614.2 455.6 1581.8 455.1 1587.8 416 1590.8 377.8 1591 377.1 1594.5 365.4 1594.7 364.9 1609.7 344.5 1627 321.2 1627 321.1 1650.6 291.8 1659.2 261.5 1658.6 242.3 1653.1 215.9 1652.5 212.9 1645.4 178.1 1645.1 176.6 1717.6 22.9 1720.9 15.8 2965.9 6.5 2961.7 29.7 Z" data-holc_grade="D"/>
<path d="M 2334.7 1086 2335.2 1084.8 2303.6 1086.9 2278.4 1149.5 2261.7 1190.3 2249.3 1222.2 2230.9 1273.4 2213.3 1296.2 2192.2 1331.9 2178.7 1345.7 2170.4 1363.2 2151.9 1382.4 2126.3 1399.9 2090.9 1432.8 2073.1 1456.6 2073 1453.8 1860.1 1455 1858.4 1455 1844.1 1455.1 1823.6 1420.7 1832.9 1397.3 1847.3 1360.4 1864.9 1330.5 1868.8 1323.8 1894.7 1291 1933.1 1237.9 1961.7 1202.2 1984.5 1171.7 2017 1136.7 2040.4 1119.2 2045.6 1115.3 2058.6 1103.6 2067.5 1089.3 2073.6 1079.6 2107.4 1018.7 2143.1 955.8 2159.4 929.9 2162.6 915 2181.5 879.3 2247.6 757.3 2247.7 757.1 2259.2 741.8 2269.1 728.6 2324.8 680.3 2377.5 634.9 2410.8 601.2 2449.3 568.1 2494.1 526 2526.7 497 2545.2 480 2569.9 459.2 2590.9 440.4 2603.9 428.8 2603.7 445.8 2599 823.3 2444 981.3 2338.6 1084.1 2334.7 1086 Z" data-holc_grade="D"/>
<path d="M 2969.8 2210.3 2874.9 2216.8 2872.5 2164.4 2688.3 2171.1 2688.7 2145.3 2595.7 2078.6 2513.7 2079.9 2508.2 1979 2494.8 1980.3 2449.4 1980.9 2426 1983 2407.9 1978.5 2396.9 1981.2 2394.5 1982 2391.5 1909.5 2372.1 1910.3 2368.6 1852.9 2345.1 1835.3 2346.6 1823.6 2372.6 1823 2371 1727.6 2318.5 1727.6 2311.4 1733 2183.6 1728.9 2183.7 1727.4 2185.2 1711.9 2169.8 1682.4 2158.9 1673.3 2147.3 1664.2 2148.6 1643 2237.3 1640.7 2235.4 1572.7 2238.8 1455.4 2414.1 1453.2 2414 1363.7 2236.7 1364.1 2236.6 1279.9 2354.1 1272.8 2353.6 1204.7 2293.6 1203.9 2295.4 1187.8 2296.5 1176.6 2334.7 1086 2338.6 1084.1 2444 981.3 2599 823.3 2603.7 445.8 2603.9 428.8 2604 426.1 2607.4 423.5 2670.9 374.2 2719 314.6 2751.5 282.8 2823.6 192.1 2961.7 29.7 2962.6 28.7 2960.8 179 2958.1 448.7 2950.6 1202.2 2949.3 1616.8 2958.3 2162.2 2969.3 2162.2 2970.4 2210.3 2969.8 2210.3 Z" data-holc_grade="D"/>
<path d="M 2067.9 2183.8 2068.9 2192 2069.8 2203.1 2074.9 2210.3 2088.5 2217.9 2095.6 2225.3 2096.1 2236.4 2109.5 2242.4 2117.1 2256.3 2123.2 2266.8 2124.2 2273.2 2123.9 2285.4 2121.6 2294.4 2124.6 2298.3 2131.8 2299.7 2141.1 2307.5 2144.5 2316.9 2144.3 2327.8 2145.2 2336.9 2148.2 2342 2150.4 2343.6 2157.5 2347.1 2162.4 2344 2171.4 2345.2 2173.4 2345.4 2174.4 2351.7 2176.1 2365.9 2185.2 2379.6 2196.9 2385.7 2205.9 2386.5 2215 2396 2225.4 2405.4 2231.8 2405 2237.4 2398.5 2245.6 2408.9 2244.4 2423.5 2254.3 2448 2528.3 2434.1 2533.2 2435.8 2536.7 2603.8 2805.1 2586.2 2801 2507.6 2804.7 2504.4 2979.3 2494.5 2987.7 2609.6 2999 2944.9 2122 2992.1 2123.7 2970.2 2131.1 2932.7 2134.5 2861.3 2127.1 2815.7 2125.2 2783.3 2120.5 2740.9 2115 2674.6 2109.1 2647.7 2087.6 2598.1 2078.1 2479.1 2067.2 2379 2065.7 2346.5 2058.5 2319.6 2040.5 2285.7 2025.1 2251.3 2015.7 2218 2006.8 2191.3 2008 2182.3 2009.5 2183.5 2022.6 2183.8 2043.4 2184.3 2067.9 2183.8 Z" data-holc_grade="D"/>
<path d="M 1483.3 1455.4 1481.9 1476.5 1480.8 1479.7 1483.5 1485 1484 1486.1 1495.7 1495.9 1495.7 1500.9 1488.5 1508.1 1487.4 1512.9 1491.2 1518.2 1497.8 1529.6 1507.7 1538.1 1523.4 1541.8 1544.2 1548.5 1547.7 1557.1 1548.8 1559.6 1547.7 1566.3 1548.8 1580.9 1548.8 1586.5 1565.6 1585.9 1566.3 1613.1 1566.4 1614.9 1570.2 1614.8 1571.5 1614.8 1779 1612 1778.6 1592.3 1775.3 1457.7 1775.3 1454.7 1785.5 1454.8 1841.1 1455.1 1844.1 1455.1 1858.4 1455 1860.1 1455 2073 1453.8 2073.1 1456.6 2073.1 1456.8 2077.3 1640.1 2139.8 1638.7 2148.9 1638.4 2148.6 1643 2147.3 1664.2 2158.9 1673.3 2169.8 1682.4 2185.2 1711.9 2183.7 1727.4 2183.6 1728.9 2183.5 1729.3 2184.8 1775.4 2236.4 1773.7 2238.5 1801.1 2117.7 1799.5 2103.6 1811.5 2090.7 1816.1 2074.2 1821.8 2074 1821.9 2073.8 1822 2056.5 1830.2 2057.6 2004.9 2107.1 2006.8 2110.4 2027.6 2121.4 2063.9 2125.5 2067 2133.5 2068 2132.3 2111.8 2122.7 2113.6 2123.5 2181.4 2128.4 2191.4 2135.9 2197.7 2155.9 2212.3 2147.5 2214.4 2142.2 2214.1 2142 2214.1 2140.9 2214 2131 2208.3 2118.7 2203.8 2108.8 2201.5 2103.5 2200.3 2092.9 2186.7 2084.5 2182.4 2071.4 2178.9 2070.7 2180 2068.5 2183.8 2067.9 2183.8 2043.4 2184.3 2022.6 2183.8 2009.5 2183.5 2008 2182.3 1995.2 2172.3 1965.9 2117.8 1953.5 2096.4 1936.6 2064 1921.2 2045.1 1913 2031.2 1901.9 2022.1 1890.3 2019.1 1869.9 2000.9 1814.9 1941.5 1807 1945.3 1789.9 1938.2 1749.9 1899.6 1720.8 1883 1691.6 1863.1 1664.5 1852.7 1622.4 1834.9 1568.7 1816.2 1512.5 1802.5 1482.1 1795 1482.9 1773.4 1486.1 1775.4 1519.1 1722 1410.4 1642.8 1450.4 1579.5 1325.9 1497.5 1325.8 1495.4 1325.1 1471.3 1323.5 1471.2 1324.9 1453.4 1483.5 1452.9 1483.3 1455.4 Z" data-holc_grade="D"/>
</g>
</svg>