<?xml version="1.0"?>
<svg xmlns="http://www.w3.org/2000/svg" version="1.2" baseProfile="tiny" width="3000" height="2189" viewBox="0 0 3000 2189" stroke-linecap="round" stroke-linejoin="round">
<g id="B">
<path d="M 652.9 73.1 533.4 302 652.9 383.2 614.8 466.1 708.9 554.4 730.6 520.2 839.2 586.9 812 651.8 926.8 711.6 909.8 738.4 1032.8 792.5 1038.2 769 1230.1 846.6 1231.9 1008.9 1266.2 1063 1329.6 1169.4 1397.6 1184.6 1310.7 1366.4 1070.4 1245.2 1157.3 1158.6 986.4 1152.9 925.6 1121.1 798.2 1285.5 760.6 1216.3 818.5 1106.7 560.8 924.9 447.9 812.3 488.1 727.5 482.7 666.2 500.8 590.5 490 541.8 491.8 412 471.9 334.4 461.1 211.8 540.7 100.1 609.5 26.2 652.9 73.1 Z" data-holc_grade="B"/>
<path d="M 1137.8 19.1 1096.2 96.6 1190.3 145.3 1237.3 143.5 1365.8 219.2 1347.7 267.9 1364 415.7 1342.3 505.8 1309.7 480.6 1240.9 462.6 1202.9 468 1170.4 513 1197.5 558.1 1204.7 597.8 1143.2 668.1 1096.2 588.7 1029.2 550.9 926.8 711.6 812 651.8 839.2 586.9 730.6 520.2 708.9 554.4 614.8 466.1 652.9 383.2 533.4 302 652.9 73.1 707.2 110.9 777.8 38.8 815.8 46.1 821.2 26.2 877.3 1 955.1 1 1038.3 24.5 1137.8 19.1 Z" data-holc_grade="B"/>
</g>
<g id="C">
<path d="M 1075.4 1824.8 1171 1935.4 1112.1 1977.7 1135.2 2010.4 1097.6 2039.3 1024.1 2001.9 369.6 1865.6 370.1 1679.3 196.4 1658.8 182 1324.6 1 1289.7 7 1260.8 56.5 1233.2 112 1227.2 194.1 1180.3 255.6 1115.4 291.9 1036.1 300.3 907.5 462 1091.5 622.4 1376.4 862.4 1741.9 961.4 1648.2 1002.4 1743.1 1075.4 1824.8 Z" data-holc_grade="C"/>
<path d="M 1467.1 1230.8 1577.2 1429.9 1478.7 1614.5 1218.1 1539.5 1310.7 1366.4 1397.6 1184.6 1467.1 1230.8 Z" data-holc_grade="C"/>
<path d="M 2725.9 1650.1 2584.9 1501.9 2448.8 1351.9 2500.9 1343.2 2692 1253.7 2735.5 1256.6 2799.2 1325.8 2813.7 1403.7 2752.9 1591.3 2725.9 1650.1 Z" data-holc_grade="C"/>
<path d="M 1310.7 1366.4 1218.1 1539.5 1478.7 1614.5 1577.2 1429.9 1467.1 1230.8 2014.4 1478.9 2165.2 1221 2208.4 1147.1 2359 1245.1 2222.9 1450 2437.3 1585.6 2466.2 1542.3 2584.9 1501.9 2725.9 1650.1 2999 1937.2 2908.5 2074.3 2799.9 2029.2 2637 1904.8 2575.4 1987.8 2494 2188 2436.1 2159.2 2418 2173.6 2150.1 2020.3 2092.4 2130.4 1760.8 1972.9 1172.9 1627.6 1075.4 1824.8 1002.4 1743.1 961.4 1648.2 862.4 1741.9 622.4 1376.4 462 1091.5 300.3 907.5 329.2 745.9 447.9 812.3 560.8 924.9 818.5 1106.7 760.6 1216.3 798.2 1285.5 925.6 1121.1 986.4 1152.9 1157.3 1158.6 1070.4 1245.2 1310.7 1366.4 Z" data-holc_grade="C"/>
<path d="M 2165.2 1221 2014.4 1478.9 1467.1 1230.8 1397.6 1184.6 1329.6 1169.4 1266.2 1063 1593.8 897.1 1461.7 449.9 1454.5 62.3 1501.5 75 1575.7 78.6 1601 102 1601 150.7 1646.3 177.7 1637.2 239 1588.4 276.9 1943.1 815.9 1926.8 844.8 1859.8 870 1827.3 886.3 1856.2 974.6 1849 1026.9 1865.3 1053.9 1923.2 1068.4 1932.2 1048.5 1950.3 1034.1 2002.8 1104.4 1984.7 1158.5 2165.2 1221 Z" data-holc_grade="C"/>
<path d="M 1454.5 62.3 1461.7 449.9 1593.8 897.1 1266.2 1063 1231.9 1008.9 1230.1 846.6 1038.2 769 1032.8 792.5 909.8 738.4 926.8 711.6 1029.2 550.9 1096.2 588.7 1143.2 668.1 1204.7 597.8 1197.5 558.1 1170.4 513 1202.9 468 1240.9 462.6 1309.7 480.6 1342.3 505.8 1364 415.7 1347.7 267.9 1365.8 219.2 1237.3 143.5 1190.3 145.3 1096.2 96.6 1137.8 19.1 1195.7 2.8 1454.5 62.3 Z" data-holc_grade="C"/>
</g>
</svg>