<?xml version="1.0"?>
<svg xmlns="http://www.w3.org/2000/svg" version="1.2" baseProfile="tiny" width="3000" height="1463" viewBox="0 0 3000 1463" stroke-linecap="round" stroke-linejoin="round">
<g id="A">
<path d="M 1395.3 1154.9 1396.4 1305.5 1255.5 1306 1253.3 1370.8 1186.6 1376.7 1109.1 1374.5 1103.6 1311.6 1104.1 1159.3 1119.9 1159.1 1252.3 1157 1265.2 1153.2 1395.3 1154.9 Z" data-holc_grade="A"/>
<path d="M 1319.2 702.6 1319.1 743.7 1203 744.2 1171.3 745.3 1098.5 725.4 1098.9 675 1138.5 668.7 1162.2 668.7 1210 678.9 1319.2 702.6 Z" data-holc_grade="A"/>
<path d="M 1319.2 702.6 1210 678.9 1162.2 668.7 1138.5 668.7 1098.9 675 1099.8 578.1 1151.4 578.7 1151.4 618.3 1180.4 617.8 1178.8 564.2 1241.8 529.4 1275.6 516.6 1341.2 515 1389.1 517.1 1387.4 571.7 1392.3 718.5 1319.2 702.6 Z" data-holc_grade="A"/>
<path d="M 772.5 379.3 768.7 364.8 811.7 373.9 820.9 370.7 852.6 363.8 829.5 322 820.4 306.5 810.2 293.1 934.9 293.7 937.5 379.4 885.4 379.9 880.5 401.3 846.7 407.7 819.2 412 804.2 405.5 789.2 392.7 772.5 379.3 Z" data-holc_grade="A"/>
<path d="M 556.2 217.8 556.7 223.7 459.5 225.8 456.3 141.2 520.3 139.1 540.7 177.1 556.2 217.8 Z" data-holc_grade="A"/>
<path d="M 1319.1 743.7 1322.9 863.7 1280.3 862.5 1238.5 861.4 1162.1 859.4 1154.8 855.4 1097.6 824 1098.5 725.4 1171.3 745.3 1203 744.2 1319.1 743.7 Z" data-holc_grade="A"/>
</g>
<g id="B">
<path d="M 876.8 1170.8 1041.8 1161.5 1041.1 1116.5 1061.9 1120.1 1092 1115.1 1094.7 1158.4 1104.1 1159.3 1103.6 1311.6 1094.6 1315.2 881.2 1322.3 876.8 1170.8 Z" data-holc_grade="B"/>
<path d="M 1926.4 1041.4 1925.5 1093.2 1686.7 1089.8 1685 1027.3 1687 998.2 1778.4 976.3 1881.1 975.8 1883.3 996.8 1827.3 997.7 1825.1 1056.2 1901.3 1055.3 1901.7 1041.4 1926.4 1041.4 Z" data-holc_grade="B"/>
<path d="M 2027.9 923.2 2030 887.9 2056.9 879.3 2070.9 872.1 2094.5 851 2115 851.4 2110.3 877.1 2102.8 899.3 2094.2 906.8 2077.7 917.8 2027.9 923.2 Z M 2158.4 955.4 2124.6 955 2029.4 955.9 2029.7 940.4 2063.7 939.6 2083.8 931.1 2098.5 926.8 2110.3 913.9 2118.9 903.2 2123.6 889.2 2130 871 2134 851 2154.4 851.7 2158.4 955.4 Z" data-holc_grade="B"/>
<path d="M 2307.4 860.3 2307.9 931.3 2165.4 955.5 2158.4 955.4 2154.4 851.7 2134 851 2137.5 822.8 2151.9 796.4 2159.4 785.3 2174.4 781 2187.7 781 2211.4 783.8 2228.9 789.9 2251.2 798.5 2265.2 807.4 2269.5 820.2 2270.2 848.8 2292.8 847 2307.5 849.1 2307.4 860.3 Z" data-holc_grade="B"/>
<path d="M 2558.9 900.7 2558 920.8 2545 920.4 2548.1 933.4 2548.1 957 2486.3 957 2485.8 915.1 2522.1 917.7 2522.1 894.5 2536.5 899.5 2558.9 900.7 Z" data-holc_grade="B"/>
<path d="M 1001.4 783.6 987.9 764.3 1003 746.1 1036.9 773.9 1037.4 790.5 1027.2 781.4 1011.6 793.2 1001.4 783.6 Z" data-holc_grade="B"/>
<path d="M 1280.3 862.5 1282.1 937 1244.9 936.1 1235.8 932.5 1238.5 861.4 1280.3 862.5 Z" data-holc_grade="B"/>
<path d="M 1151.4 578.7 1152 520.8 1154.1 515.5 1207.4 513.9 1240.7 514.4 1241.8 529.4 1178.8 564.2 1180.4 617.8 1151.4 618.3 1151.4 578.7 Z" data-holc_grade="B"/>
<path d="M 919.5 473.1 885.8 473.8 829.2 474.5 803.4 483.1 783.3 470.2 743.9 473.8 694.4 421.6 556.8 419.4 556.8 389.4 575.7 388.8 575.8 374.9 589.7 348.1 608 324.5 620.4 318.1 627.9 310.6 670.4 306.9 674.1 337.4 696.2 368.5 725.7 384.1 795.6 422.1 820.9 429.1 838.1 423.2 855.8 423.2 894.5 430.2 914.9 455.9 919.5 473.1 Z" data-holc_grade="B"/>
<path d="M 810.2 293.1 820.4 306.5 829.5 322 852.6 363.8 820.9 370.7 811.7 373.9 768.7 364.8 772.5 379.3 742.9 370.2 716.6 358.9 700.5 338.5 692.4 309.6 733.3 308.6 757.5 302.1 804.3 301.6 810.2 293.1 Z" data-holc_grade="B"/>
<path d="M 613.2 214.7 604.1 213.6 591.2 209.8 586.9 203.4 556.2 217.8 540.7 177.1 520.3 139.1 496.7 79.1 517.1 74.8 517.1 71.6 518.2 68.4 590.8 24 595 39.6 619.7 75.4 576.2 122 598.2 148.8 614.3 150.9 613.2 214.7 Z" data-holc_grade="B"/>
<path d="M 222.2 486.4 221.4 377.7 255.6 361.6 369 361.7 373.8 481.7 329.2 483.3 243.7 484.3 222.2 486.4 Z" data-holc_grade="B"/>
<path d="M 1785.8 855.2 1786.2 877.9 1743.2 899.9 1719.5 918.1 1711.4 933.6 1702.3 944.9 1686.7 957.2 1684.5 854.9 1683.6 845.1 1785.8 845 1785.8 855.2 Z" data-holc_grade="B"/>
</g>
<g id="C">
<path d="M 1092 1115.1 1061.9 1120.1 1041.1 1116.5 1041.8 1161.5 876.8 1170.8 876.5 1001 876 958.2 1036.8 951.3 1037.5 980.8 1086.3 981.5 1092 1115.1 Z M 1391.6 1024.1 1392 1037.3 1395.3 1154.9 1265.2 1153.2 1252.3 1157 1119.9 1159.1 1113.5 956.6 1124.8 955 1141 946.9 1155.5 961.4 1184 978 1249.1 1003.2 1321.7 1021.4 1344.8 1025.7 1391.6 1024.1 Z" data-holc_grade="C"/>
<path d="M 2029.4 955.9 2124.6 955 2158.4 955.4 2165.4 955.5 2307.9 931.3 2307.4 860.3 2320.9 876.3 2331.6 880.8 2342.4 886.6 2412.7 880.8 2413.6 864.2 2458 860.2 2475.5 866.4 2494.7 876.7 2522.1 894.5 2522.1 917.7 2485.8 915.1 2486.3 957 2548.1 957 2548.1 933.4 2545 920.4 2558 920.8 2558.9 900.7 2599.6 897.1 2654.3 879.7 2679.8 871.6 2747.9 840.7 2789.6 822.4 2799 815.2 2816 802.3 2850.9 775 2871.5 765.2 2885.9 762.9 2900.6 752.6 2916.7 739.2 2932.9 719.1 2953 705.3 2995.6 694.9 2999 958.8 2922.8 962.4 2923.7 985.2 2809.9 987.6 2684 989.9 2559.8 986.5 2561.3 1113.7 2479.2 1112.4 2476.9 981.6 2271.2 991.6 2271.7 1001.8 2273 1081.8 2222.8 1082.2 2221.9 1021.5 2173.5 1022 2174 1049.7 2134.5 1049.2 2134.5 1063.1 2135 1162.7 2063.9 1163.9 2061.6 1108.5 2059.2 995.3 1979.9 995.3 1979.4 979.2 1970 977 1970.5 956.4 2029.4 955.9 Z" data-holc_grade="C"/>
<path d="M 694 1004 694.5 1038.8 806.9 1035.7 810.6 1178.7 613.7 1183.5 388.3 1190.2 314.7 1188 225.9 1190.6 225.9 1180.5 78 1177.6 74.4 1046.9 232 1041.1 232 1021.3 378.3 1021.4 378.8 1009.7 694 1004 Z M 604.6 1132 672.4 1132.6 670.3 1082.7 604.7 1084.8 604.6 1132 Z" data-holc_grade="C"/>
<path d="M 337.2 623.5 337.6 735 376.8 736.7 379 747.4 516.1 745.4 518.2 809.1 376.7 864.7 375.1 861.5 309 863.6 307.9 870 224 869.4 222.9 882.8 9.9 883.6 6.8 815.1 7.4 739.5 97.7 740.2 232.2 736 306.9 735.5 307.6 624.7 330.6 620 333.4 622 337.2 623.5 Z" data-holc_grade="C"/>
<path d="M 635.5 655.8 660.6 654.4 662 648.7 662.1 628 668.5 623 637.7 584.4 572.5 534.4 575.3 585.1 518.7 585 518 534.3 487.9 533.6 489.3 552.2 444.2 552.8 443.5 542.8 371.8 542.8 373 504.2 373.8 481.7 369 361.7 370.7 299.1 513.3 295.1 516 386.5 556.8 389.4 556.8 419.4 694.4 421.6 743.9 473.8 783.3 470.2 803.4 483.1 829.2 474.5 885.8 473.8 919.5 473.1 928.8 505.3 928.8 533.9 912.3 551 893.6 563.1 886.5 581 887.9 595.2 870.7 596 867.8 566.7 800.4 568.1 795.4 562.4 782.5 586.6 783.9 653.8 786 714.5 603.2 717.2 604.7 679.4 635.5 681.5 635.5 655.8 Z" data-holc_grade="C"/>
<path d="M 1207.4 513.9 1154.1 515.5 1154.1 503.7 1162.2 503.2 1163.8 474.2 1111.1 474.2 1111.7 456 1080.5 456 1081.6 504.2 1098.2 506.3 1100.4 523.5 1152 520.8 1151.4 578.7 1099.8 578.1 1098.9 675 1098.5 725.4 1097.6 824 1092.2 819.2 1089 784.9 1075 766.1 1055.1 746.8 1053.5 721.1 1006.7 722.7 1005.1 674 985.8 672.4 982.1 435.1 918.7 437.7 907.9 422.2 893.4 414.1 880.5 401.3 885.4 379.9 937.5 379.4 934.9 293.7 952.1 294.7 963.4 296.9 971.4 300.6 982.2 308.7 991.8 317.8 1003.7 318.3 1017.1 316.7 1051 319.4 1051 342.4 1183.2 344.6 1242.3 295.4 1239.6 318.4 1240.7 406.2 1205.8 408.4 1207.4 513.9 Z" data-holc_grade="C"/>
<path d="M 1238.5 861.4 1235.8 932.5 1234.1 976.3 1201.4 964.2 1184.4 952.6 1155.3 935.2 1154.8 855.4 1162.1 859.4 1238.5 861.4 Z" data-holc_grade="C"/>
<path d="M 1686.7 957.2 1688.3 975.4 1805 941.1 1863.6 941.1 1882.4 943.8 1881.1 975.8 1778.4 976.3 1687 998.2 1685 1027.3 1588.7 1030.6 1392 1037.3 1391.6 1024.1 1392 951.3 1406 954 1400.6 744 1635 741.8 1635 641.7 1682.9 641.7 1683.6 845.1 1684.5 854.9 1686.7 957.2 Z" data-holc_grade="C"/>
<path d="M 2094.5 851 2070.9 872.1 2056.9 879.3 2030 887.9 2027.9 923.2 2017.6 922.6 2006.3 920 2000.4 913 1996.6 902.8 1994.5 896.4 1987.5 893.2 1979.4 894.3 1966.5 890 1963.8 846.6 1926.2 843.9 1925.6 827.3 1902.5 825.2 1902.5 843.9 1863.2 844.5 1862.7 855.2 1785.8 855.2 1785.8 845 1683.6 845.1 1682.9 641.7 1682.5 551.5 2269.6 554 2269.2 715.2 2126.1 715.8 2125.6 784.9 2115.4 794.6 2108.4 829.4 2094.5 851 Z" data-holc_grade="C"/>
<path d="M 1981.2 1109 1982.9 1155.3 1831.2 1150.9 1688.2 1146.8 1686.7 1089.8 1925.5 1093.2 1926.4 1041.4 1978.8 1041.4 1981.2 1109 Z" data-holc_grade="C"/>
<path d="M 221.4 377.7 222.2 486.4 85.1 484.6 5 503.8 7.7 441.7 4.6 304.1 1 203.4 1.6 154.7 219.8 156.5 221.4 377.7 Z" data-holc_grade="C"/>
<path d="M 590.8 24 518.2 68.4 517.1 71.6 517.1 74.8 496.7 79.1 520.3 139.1 456.3 141.2 459.5 225.8 556.7 223.7 556.2 217.8 586.9 203.4 591.2 209.8 604.1 213.6 613.2 214.7 610.5 284.3 588.4 283.7 592.7 292.8 513.3 295.1 370.7 299.1 369 361.7 255.6 361.6 254.6 286.7 295.5 284.6 293.5 79.5 332.7 80 326.4 4.5 512.8 2 588.1 1 590.8 24 Z" data-holc_grade="C"/>
<path d="M 878.3 1330 874.2 1458.6 752.7 1461.7 823.6 1331.3 878.3 1330 Z" data-holc_grade="C"/>
</g>
<g id="D">
<path d="M 1037.4 790.5 1020.2 809.3 1070.2 869.8 1034.1 870.4 1036.8 951.3 876 958.2 876.5 1001 805 1001.5 805.6 908.8 874.4 908.3 872.3 811.4 899.7 810.8 899.2 787.3 1001.4 783.6 1011.6 793.2 1027.2 781.4 1037.4 790.5 Z" data-holc_grade="D"/>
<path d="M 1831.2 1150.9 1982.9 1155.3 1981.2 1109 2061.6 1108.5 2063.9 1163.9 2054 1163.4 2056.3 1235.3 1978.3 1238 1833.5 1233.6 1831.2 1150.9 Z" data-holc_grade="D"/>
<path d="M 679.9 961.3 727.6 962 727.6 993.5 662.7 993.8 679.9 961.3 Z" data-holc_grade="D"/>
<path d="M 636 878.3 637.1 832.8 691.5 831.7 692.6 772.3 671.6 774.4 670.5 744.4 827 741.3 829.1 784.7 772.1 786.8 723.7 875.7 636 878.3 Z" data-holc_grade="D"/>
<path d="M 518.2 809.1 516.1 745.4 569.5 743.8 571.6 807 593.6 807.5 593.1 778.1 610.3 773.3 617.2 877.7 476.3 879.3 475.8 845.5 520.4 842.3 518.2 809.1 Z" data-holc_grade="D"/>
<path d="M 307.6 624.7 306.9 735.5 232.2 736 97.7 740.2 7.4 739.5 7.2 591.7 222.2 590.3 307.6 624.7 Z" data-holc_grade="D"/>
<path d="M 603.2 717.2 524.7 722.9 529 681.1 604.7 679.4 603.2 717.2 Z M 373 504.2 371.8 542.8 443.5 542.8 444.2 552.8 489.3 552.2 487.9 533.6 518 534.3 518.7 585 575.3 585.1 577.5 614.7 623.7 616.3 622.7 584.7 637.7 584.4 668.5 623 662.1 628 662 648.7 660.6 654.4 635.5 655.8 507.5 657.5 498.9 643.6 490.9 640.9 380.7 640.3 337.2 623.5 333.4 622 330.6 620 282.3 585.5 274.3 584.5 274.3 547 325.4 544.3 327.6 504.2 373 504.2 Z" data-holc_grade="D"/>
<path d="M 610.5 284.3 613.2 214.7 614.3 150.9 598.2 148.8 576.2 122 619.7 75.4 634.7 98.9 645.5 113.2 669.5 121.1 691 119.7 699.2 117.2 715 111.5 742.9 103.6 765.9 112.2 773.4 124.7 775.9 150.8 765.5 168.6 751.8 186.5 726 226.8 695.2 246.1 672.2 284.2 610.5 284.3 Z" data-holc_grade="D"/>
<path d="M 1154.1 515.5 1152 520.8 1100.4 523.5 1098.2 506.3 1081.6 504.2 1080.5 456 1111.7 456 1111.1 474.2 1163.8 474.2 1162.2 503.2 1154.1 503.7 1154.1 515.5 Z" data-holc_grade="D"/>
<path d="M 1686.7 1089.8 1688.2 1146.8 1586.6 1151.1 1395.3 1154.9 1392 1037.3 1588.7 1030.6 1685 1027.3 1686.7 1089.8 Z" data-holc_grade="D"/>
<path d="M 376.7 864.7 377.4 881.8 222.9 882.8 224 869.4 307.9 870 309 863.6 375.1 861.5 376.7 864.7 Z" data-holc_grade="D"/>
</g>
</svg>