<?xml version="1.0"?>
<svg xmlns="http://www.w3.org/2000/svg" version="1.2" baseProfile="tiny" width="3000" height="2816" viewBox="0 0 3000 2816" stroke-linecap="round" stroke-linejoin="round">
<g id="A">
<path d="M 364.9 818.7 366.4 898.7 411.3 925.1 413.5 1028.3 287.7 1024.9 256.3 1000.1 229 976.1 202.5 934.8 162.8 936.5 152.9 913.3 159.6 884.5 180.3 838.3 186.1 808.6 183.7 792.9 231.6 794.6 233.3 837.5 287 838.4 286.2 821.1 364.9 818.7 Z" data-holc_grade="A"/>
<path d="M 1089.9 750.1 1119.8 750.9 1129.7 751.2 1131.4 816.2 1132.2 844.7 1040.3 845.2 1041 750.6 1065.2 749.4 1089.9 750.1 Z" data-holc_grade="A"/>
<path d="M 1099.9 1116.1 956.3 1119.6 953 1032.5 1104.5 1030.6 1118.9 1031.8 1119.8 1115.6 1099.9 1116.1 Z" data-holc_grade="A"/>
<path d="M 321.9 1351.3 385.2 1359.4 384.5 1456.5 353.4 1444.7 337.3 1439.2 331.7 1467 300 1460.2 302.5 1442.8 302.5 1421.8 302.6 1368.6 321.9 1351.3 Z" data-holc_grade="A"/>
<path d="M 1099.3 1974.8 1128.3 2000.4 1177.2 1998.7 1180.5 1990.5 1260.8 1987.2 1262.5 2017.7 1292.3 2016.9 1297.3 2033.4 1318.8 2033.4 1322.1 2054.9 1382.6 2057.4 1423.1 2106.1 1412.4 2107.8 1415.7 2168.1 1445.5 2165.6 1448 2180.4 1496 2182.1 1501.8 2209.3 1568.9 2209.3 1564.8 2232.5 1492.7 2235.8 1399.9 2233.3 1381.7 2207.7 1353.6 2186.2 1354.4 2159.8 1346.1 2141.6 1346.1 2126.8 1352.7 2109.4 1340.3 2103.6 1329.5 2097 1322.1 2085.5 1304.7 2086.3 1275.7 2054.9 1238.4 2054.1 1230.2 2040 1219.4 2024.3 1120.8 2018.5 1046.3 2016 1014 2004.5 993.3 1997 914.6 1950.8 909.7 1946.6 922.1 1923.5 934.5 1922.7 979.2 1933.4 1024 1959.9 1069.5 1974.8 1099.3 1974.8 Z M 980 2025.1 1002.4 2032.5 992.5 2031.7 980 2025.1 Z" data-holc_grade="A"/>
<path d="M 1492.7 2235.8 1493.5 2287 1394.1 2277.9 1393.3 2328.3 1496.9 2330.8 1500.2 2436.5 1309.6 2432.3 1304.7 2086.3 1322.1 2085.5 1329.5 2097 1340.3 2103.6 1352.7 2109.4 1346.1 2126.8 1346.1 2141.6 1354.4 2159.8 1353.6 2186.2 1381.7 2207.7 1399.9 2233.3 1492.7 2235.8 Z" data-holc_grade="A"/>
<path d="M 898 2115.9 902.1 2141.5 1028 2138.2 1027.5 2202.4 1027.1 2245.8 1025.4 2430.4 935.7 2433.3 940.8 2506.1 937.4 2614.3 906.8 2620.9 904.3 2585.4 874.5 2573 859.6 2435.8 801.1 2437.7 785 2396.8 752.1 2241.3 741.4 2243.8 739.7 2203.4 702.5 2157.1 700.9 2117.4 898 2115.9 Z M 928.6 2198.7 957.2 2214.8 976.4 2176.4 946.6 2159.7 911.8 2159 891.3 2178.8 908.7 2183.8 926.1 2189.4 928.6 2198.7 Z M 859.6 2338.6 857.1 2362.2 890 2361.6 888.1 2338.6 859.6 2338.6 Z" data-holc_grade="A"/>
<path d="M 1220 2431.9 1221.4 2538.7 1221.7 2564 1165.3 2564.9 1165.4 2431 1164.6 2346.8 1218.4 2345.2 1220 2431.9 Z" data-holc_grade="A"/>
</g>
<g id="B">
<path d="M 1037.8 462.3 1041.7 558.8 1033 560 1036 646 1060.9 645.4 1061.1 650.5 1065.2 749.4 1041 750.6 1040.3 845.2 998.1 847.1 998.2 751.2 785.3 747.4 785.3 722.4 784 370.8 1034.3 376.3 1037.8 462.3 Z M 823.2 616.2 823.2 595.2 806.5 596.4 808.9 616.8 823.2 616.2 Z" data-holc_grade="B"/>
<path d="M 1002.4 2032.5 1011.5 2019.3 1014 2004.5 1046.3 2016 1120.8 2018.5 1120 2058.2 1066.6 2058.2 1024.7 2058.1 1025.7 2080.5 1028 2138.2 902.1 2141.5 898 2115.9 902.2 2073.8 873.6 1992.2 909.7 1972.2 914.6 1950.8 993.3 1997 977.6 2011.1 980 2025.1 992.5 2031.7 1002.4 2032.5 Z" data-holc_grade="B"/>
<path d="M 1568.9 2209.3 1501.8 2209.3 1496 2182.1 1448 2180.4 1445.5 2165.6 1415.7 2168.1 1412.4 2107.8 1423.1 2106.1 1689.9 2107.8 1687.4 2059.9 1848 2050.8 1873.7 2050.5 1870.6 2119.3 1813.5 2118.1 1698.6 2122.4 1688.6 2126.1 1691.1 2188.7 1717.8 2212.2 1722.8 2201.7 1762.6 2202.3 1765.7 2189.3 1824.1 2190.5 1825.3 2242.6 1683 2244.4 1680.5 2204.8 1652 2190.6 1589.8 2178.8 1586.7 2207.9 1568.9 2209.3 Z" data-holc_grade="B"/>
<path d="M 1304.7 2086.3 1309.6 2432.3 1220 2431.9 1218.4 2345.2 1164.6 2346.8 1165.4 2431 1025.4 2430.4 1027.1 2245.8 1104.9 2241.5 1112.4 2263.2 1107.4 2286.1 1114.2 2318.3 1128.5 2326.3 1131.6 2334.4 1157.1 2333.2 1162.1 2310.9 1149.7 2291.7 1142.8 2244.6 1157.7 2229.7 1177 2239 1206.8 2222.9 1180.1 2129.4 1129.8 2129.4 1125.5 2149.8 1072.7 2154.8 1067 2201.2 1027.5 2202.4 1028 2138.2 1025.7 2080.5 1064.4 2080.4 1066.6 2058.2 1120 2058.2 1120.8 2018.5 1219.4 2024.3 1230.2 2040 1238.4 2054.1 1275.7 2054.9 1304.7 2086.3 Z" data-holc_grade="B"/>
<path d="M 1165.4 2431 1165.3 2564.9 1169.4 2618.8 1264.7 2618.8 1262.2 2535.4 1221.4 2538.7 1220 2431.9 1309.6 2432.3 1500.2 2436.5 1499.1 2812.1 1321.9 2814.6 1312.7 2786.5 1254.7 2783.2 1224.1 2772.4 1205 2760.9 1191.8 2746 1172.7 2731.9 1154.5 2722 1139.6 2719.5 1129.6 2710.5 1123.8 2699.7 1123.8 2616.3 937.4 2614.3 940.8 2506.1 935.7 2433.3 1025.4 2430.4 1165.4 2431 Z" data-holc_grade="B"/>
<path d="M 1360.9 565.8 1361.9 603 1221.2 604 1223.3 554.5 1357.8 550.4 1360.9 565.8 Z" data-holc_grade="B"/>
<path d="M 579.2 1045.3 571.8 1045.4 571.8 1130.7 519.4 1131.5 462.3 1028.3 413.5 1028.3 411.3 925.1 407.9 769.2 367.4 767.5 364.9 818.7 286.2 821.1 287 838.4 233.3 837.5 231.6 794.6 183.7 792.9 156.4 748.4 285.4 746.3 383.1 744.8 404.6 744.5 436 794 458.4 794 458.4 834.4 470.8 840.2 487.3 864.1 490.6 912.8 519.5 912.8 523.6 956.6 493 960.7 490.5 978 579.2 1045.3 Z" data-holc_grade="B"/>
<path d="M 1040.3 845.2 1132.2 844.7 1131.4 816.2 1361.5 817.8 1363.1 893.7 1407.8 895.4 1408.6 929.2 1181.9 930 1173.6 895.3 1126.2 900.5 1125.3 878.1 1093.7 877.4 1044 860.7 1040.3 845.2 Z" data-holc_grade="B"/>
<path d="M 1104.5 1030.6 953 1032.5 887.2 1033.4 882.9 935.5 1100.5 935.5 1104.5 1030.6 Z M 1062 969.8 1054.8 961.6 938.1 964 932.2 972.4 940.1 978.4 1055.1 979.9 1062 969.8 Z" data-holc_grade="B"/>
<path d="M 1099.9 1116.1 1101.9 1206.3 886.7 1207.9 887.2 1033.4 953 1032.5 956.3 1119.6 1099.9 1116.1 Z" data-holc_grade="B"/>
<path d="M 572.7 1324 582.6 1337.2 602.5 1357 566.5 1357.6 565.2 1405.3 434.2 1405.2 429.2 1470.8 383.2 1474.5 384.4 1490.6 381.9 1515.3 368.3 1498 359.6 1486.8 331.7 1467 337.3 1439.2 353.4 1444.7 384.5 1456.5 385.2 1359.4 321.9 1351.3 335.5 1333.9 369.7 1314.2 406.3 1319.8 429.3 1319.8 480.8 1303.7 501.3 1287 511.9 1280.8 521.8 1261 547.3 1260.4 558.4 1305 572.7 1324 Z" data-holc_grade="B"/>
<path d="M 2246.9 1706.9 2245 1755 2205.9 1756.2 2204 1774.1 2244.2 1775.3 2240.7 1863 2061.4 1870.8 2061.5 1843.5 2109 1844.1 2106.5 1823.7 2061.6 1825.6 2062.1 1702.3 2246.9 1706.9 Z" data-holc_grade="B"/>
<path d="M 873.6 1992.2 902.2 2073.8 898 2115.9 700.9 2117.4 685.9 2114.1 685.2 1973.8 869.1 1973.9 871.5 1986.2 872.4 1992.9 873.6 1992.2 Z" data-holc_grade="B"/>
</g>
<g id="C">
<path d="M 383.1 744.8 285.4 746.3 285.6 602.5 382.4 602.6 383.1 744.8 Z" data-holc_grade="C"/>
<path d="M 1498.1 1200.9 1501.2 1178.2 1495.5 1145.7 1499.1 1082.7 1508 1082.6 1508 1035.6 1685.1 1034.7 1689.2 987.7 1805.9 984.4 1809.2 942.3 1956.9 938.4 1956.4 989.4 1951.7 1009.5 1927.4 1035.8 1867.9 1047.2 1788.8 1066.3 1706 1083.3 1629 1102.4 1577.8 1127.7 1541.5 1149.4 1517.2 1177.7 1498.1 1200.9 Z" data-holc_grade="C"/>
<path d="M 582.2 1324.1 623.8 1324.1 824.2 1324.4 822.3 1349.7 755.8 1350.3 757.7 1448.7 678.8 1453.7 676.9 1496.4 505.5 1496.3 384.4 1490.6 383.2 1474.5 429.2 1470.8 434.2 1405.2 565.2 1405.3 566.5 1357.6 602.5 1357 582.6 1337.2 572.7 1324 582.2 1324.1 Z" data-holc_grade="C"/>
<path d="M 886.7 1207.9 1101.9 1206.3 1104 1307.4 1046 1308.2 1047.3 1339.6 1076.2 1344.2 1074.6 1402.3 886.6 1403.9 886.7 1207.9 Z M 986.4 1275.6 974.4 1278.1 973.6 1307 1012.5 1305.8 1012.9 1277.7 998 1276.5 999.3 1286.8 986 1288.4 986.4 1275.6 Z" data-holc_grade="C"/>
<path d="M 1187.1 1134.9 1294.5 1133.7 1295.3 1116.4 1346.6 1109.8 1354.1 1085.1 1499.1 1082.7 1495.5 1145.7 1501.2 1178.2 1498.1 1200.9 1496.5 1315.4 1436.5 1316 1442.2 1396.9 1481 1398.5 1448.9 1450.6 1360.4 1452.1 1354.8 1429.9 1318 1429.9 1317 1392.8 1184 1396.4 1187.1 1134.9 Z M 1326.3 1305.6 1326.8 1258.2 1303 1257.7 1304.6 1306.1 1326.3 1305.6 Z M 1321.7 1358.2 1320.6 1339.7 1301 1340.7 1303 1359.8 1321.7 1358.2 Z M 1424.1 1128.7 1425.7 1115.8 1386.3 1115.8 1386.3 1130.8 1424.1 1128.7 Z" data-holc_grade="C"/>
<path d="M 1897.5 1129.2 1895.6 1256.7 1880.1 1259.8 1877 1379.8 1786.4 1379.9 1782 1379.9 1523.7 1379.9 1535.5 1353.9 1552.9 1305.6 1567.2 1274.7 1579.6 1245 1607.6 1217.7 1712.5 1165.1 1765.2 1144.7 1798.8 1134.1 1824.8 1126.7 1858.3 1123 1879.4 1124.2 1897.5 1129.2 Z M 1620 1332.2 1623.7 1309.3 1608.2 1310.6 1606.9 1333.5 1620 1332.2 Z M 1857.8 1331.6 1856.5 1315.5 1739.2 1311.8 1739.2 1335.3 1857.8 1331.6 Z" data-holc_grade="C"/>
<path d="M 732.5 1734.4 575.1 1842.4 571 1857.3 504.7 1856.4 487.5 1834.6 467.6 1809 448.6 1790.8 439.5 1776.8 411.4 1757.8 384.9 1745.4 383.2 1714.8 438.8 1670.3 474.4 1670.3 560.5 1676.2 597.7 1675.4 655.7 1677.9 706.2 1696.9 727.7 1696.9 732.5 1734.4 Z M 562.1 1760.4 524 1758.7 523.9 1797.5 563.7 1799.2 562.1 1760.4 Z" data-holc_grade="C"/>
<path d="M 2061.6 1825.6 2061.5 1843.5 2061.4 1870.8 2058.9 1906.6 2058.1 1918.7 2018.3 1920.3 2013.4 1936.8 1914.8 1937.7 1914 1875.8 1845.2 1874.1 1845.2 1914.6 1766.6 1917.9 1761.1 1931 1715.5 1915.4 1498 1921.6 1486.9 1820.4 1508.5 1815.5 1494.4 1779.2 1493.5 1702.4 1751.6 1702.4 2062.1 1702.3 2061.6 1825.6 Z M 1672.4 1713.1 1655 1713.1 1655.9 1729.6 1670.8 1730.4 1672.4 1713.1 Z M 1721.3 1846.8 1720.5 1828.7 1708 1829.5 1710.5 1847.7 1721.3 1846.8 Z" data-holc_grade="C"/>
<path d="M 938.7 1851.2 934.5 1922.7 922.1 1923.5 909.7 1946.6 914.6 1950.8 909.7 1972.2 873.6 1992.2 872.4 1992.9 871.5 1986.2 869.1 1973.9 685.2 1973.8 685.9 2114.1 700.9 2117.4 702.5 2157.1 739.7 2203.4 741.4 2243.8 673.5 2162.9 652.8 2114.1 589.1 1984.4 566 1936.5 561.8 1924.1 570.9 1887.3 643 1884.6 648.8 1849.9 938.7 1851.2 Z" data-holc_grade="C"/>
<path d="M 1486.9 1820.4 1498 1921.6 1500.2 1941.8 1409.9 1944.3 1188.8 1944.2 1145.7 1928.5 1123.3 1937.6 1103.5 1941.7 1083.6 1933.5 1075.3 1942.6 1099.3 1974.8 1069.5 1974.8 1024 1959.9 979.2 1933.4 934.5 1922.7 938.7 1851.2 1065.4 1851.7 1266.6 1855.9 1405.8 1856.8 1408.3 1816.3 1425.6 1818 1434.8 1823.7 1457.1 1818 1486.9 1820.4 Z" data-holc_grade="C"/>
<path d="M 1188.8 1944.2 1184.6 1964.1 1207.8 1974 1214.4 1968.2 1223.5 1965.7 1224.4 1946.7 1188.8 1944.2 1409.9 1944.3 1409.9 1951.7 1419.8 1957.5 1491.9 1957.5 1491.9 1944.3 1409.9 1944.3 1500.2 1941.8 1498 1921.6 1715.5 1915.4 1761.1 1931 1824.8 1958.3 1874.5 1959.9 1913.7 1973.1 1948.2 1984.7 1946.6 2035 1916.8 2037.5 1914.3 2022.7 1846.4 2023.5 1848 2050.8 1687.4 2059.9 1689.9 2107.8 1423.1 2106.1 1382.6 2057.4 1322.1 2054.9 1318.8 2033.4 1297.3 2033.4 1292.3 2016.9 1262.5 2017.7 1260.8 1987.2 1180.5 1990.5 1177.2 1998.7 1128.3 2000.4 1099.3 1974.8 1075.3 1942.6 1083.6 1933.5 1103.5 1941.7 1123.3 1937.6 1145.7 1928.5 1188.8 1944.2 Z M 1416.1 1986.8 1422.7 1994.6 1433.1 1993 1438.9 1989.3 1432.3 1981.4 1423.1 1980.2 1416.1 1986.8 Z" data-holc_grade="C"/>
<path d="M 1501.2 519.9 1504.3 561.5 1360.9 565.8 1357.8 550.4 1223.3 554.5 1222.3 466.8 1132.3 464 1122 463.7 1123.5 436.4 1494.9 436.4 1501.2 519.9 Z" data-holc_grade="C"/>
<path d="M 1499.1 2812.1 1500.2 2436.5 1642.1 2434.7 1681.8 2481.3 1679.3 2529.6 1775 2537 1781.2 2454 1768.8 2432.9 1678.1 2434.2 1678.1 2340 1780 2341.3 1780 2423 1822.2 2423 1828.4 2439.1 1958.9 2435.4 1961.4 2378.4 1962.6 2188.8 1947.7 2177.7 1919.1 2175.2 1920.3 2151.7 1878.1 2141.8 1870.6 2119.3 1873.7 2050.5 1848 2050.8 1846.4 2023.5 1914.3 2022.7 1916.8 2037.5 1946.6 2035 1948.2 1984.7 1913.7 1973.1 1914.8 1937.7 2013.4 1936.8 2018.3 1920.3 2058.1 1918.7 2058.9 1906.6 2061.4 1870.8 2240.7 1863 2244.2 1775.3 2245 1755 2246.9 1706.9 2430.7 1706.8 2433.2 1774.9 2331.4 1775 2337.6 1879 2246.9 1879.1 2245.8 1965.7 2433.3 1961.9 2440.9 2061 2247 2058.6 2246.2 2710.3 2151.7 2710.4 2152.9 2622.4 2007.5 2626.2 1880.7 2623.7 1878.2 2752.6 2059.7 2752.5 2057.3 2808.3 1863.3 2805.9 1854.6 2709.2 1775.1 2713 1780.1 2805.9 1499.1 2812.1 Z" data-holc_grade="C"/>
<path d="M 1882.3 565.9 1829.5 565.4 1831.1 445.5 1831.2 447.6 1877.4 445.9 1880.4 429.5 1882.3 565.9 Z M 1831.8 480.6 1832.4 515.3 1853.1 512.3 1852.2 478.5 1831.8 480.6 Z M 1831.3 429.9 1832 384.4 1693 382.5 1691.5 524.4 1501.2 519.9 1494.9 436.4 1497.4 378.7 1599.2 380.3 1596.7 288.8 1596.1 192.6 1694.3 189.8 1691.8 6.8 1947.6 8.9 1957.6 187 1877.2 190 1880.4 427.8 1831.3 429.9 Z M 1723.8 168 1723.3 194.8 1756.9 194.7 1757.4 168.5 1723.8 168 Z M 1793 337.5 1787.7 356.1 1827 355.2 1825.7 337.9 1793 337.5 Z M 1559.8 427.8 1586.2 428.3 1587.1 417.5 1559.4 417.9 1559.8 427.8 Z" data-holc_grade="C"/>
<path d="M 1831.3 429.9 1830.8 429.9 1831.1 445.5 1829.5 565.4 1690.7 564 1691.5 524.4 1693 382.5 1832 384.4 1831.3 429.9 Z" data-holc_grade="C"/>
<path d="M 785.3 747.4 785.3 750.5 762.1 748 759.5 875 829.1 877.6 828.8 935.5 828.7 936.7 828.2 1040 579.2 1045.3 490.5 978 493 960.7 523.6 956.6 519.5 912.8 490.6 912.8 487.3 864.1 470.8 840.2 458.4 834.4 458.4 794 594.1 794.1 595.7 933.5 666.8 932.7 670.3 724 671.2 559.4 385.8 566.5 382.4 602.6 285.6 602.5 285.4 746.3 156.4 748.4 109.5 700.2 85.7 675.5 52.7 638.3 1 608.4 3.3 373.3 760.2 370.9 784 370.8 785.3 722.4 785.3 747.4 Z" data-holc_grade="C"/>
<path d="M 998.1 847.1 858.5 842.1 860.3 873 960.2 873.1 1063.3 907.1 1100.5 935.5 882.9 935.5 829.6 935.5 828.8 935.5 829.1 877.6 759.5 875 762.1 748 785.3 750.5 785.3 747.4 998.2 751.2 998.1 847.1 Z" data-holc_grade="C"/>
<path d="M 1223.3 554.5 1221.2 604 1361.9 603 1360.9 565.8 1504.3 561.5 1501.6 936 1501.5 952.1 1313.4 957.7 1276.2 957.1 1182.4 938.5 1181.9 930 1408.6 929.2 1407.8 895.4 1363.1 893.7 1361.5 817.8 1131.4 816.2 1129.7 751.2 1119.8 750.9 1116.7 706 1085.7 705 1089.9 750.1 1065.2 749.4 1061.1 650.5 1129.2 653.4 1125.1 561.7 1041.7 558.8 1037.8 462.3 1122 463.7 1132.3 464 1130.4 551.8 1136 555.5 1223.3 554.5 Z M 1266.3 792.5 1306 793.1 1307.8 779.5 1264.4 775.1 1266.3 792.5 Z M 1368 783.8 1368.7 793.7 1397.8 792.5 1399.1 782.6 1368 783.8 Z" data-holc_grade="C"/>
<path d="M 1504.3 561.5 1592.9 562.7 1592.9 548.7 1503.9 547.4 1504.3 561.5 1501.2 519.9 1691.5 524.4 1690.7 564 1829.5 565.4 1882.3 565.9 1935.6 566.4 1936.5 748.7 1782.6 750.4 1777.6 909.6 1742.9 913 1742.1 934.4 1501.6 936 1504.3 561.5 Z M 1831.6 610.6 1833.5 631.6 1878.8 631 1874.4 614.3 1831.6 610.6 Z M 1597 785.7 1596.4 803 1681.4 803 1682.1 785.7 1597 785.7 Z M 1741 853.7 1744.8 875.4 1758.4 874.1 1759 856.2 1741 853.7 Z" data-holc_grade="C"/>
<path d="M 824.2 1324.4 623.8 1324.1 619.5 1308.5 583.4 1309.7 582.2 1324.1 572.7 1324 558.4 1305 561.8 1217.5 571.7 1213.8 571.8 1130.7 571.8 1045.4 579.2 1045.3 828.2 1040 824.2 1324.4 Z" data-holc_grade="C"/>
<path d="M 372.1 2140.9 376.7 2236.1 90.5 2233.9 89.5 2216 72.6 2217 73.6 2187.3 94.5 2176.4 154.2 2117 190 2119 196.4 1685.1 245 1686.6 250.7 1718 266.4 1749.4 290.4 1779.1 316.9 1801.5 320.2 1815.5 321 1889.8 347.5 1890.7 344.1 1917.9 371.5 1919.6 379.7 2031.1 372.1 2140.9 Z M 2478.6 1259.5 2450 1191.4 2425.8 1200.1 2461.1 1123.3 2724.5 1118.3 2722.6 1272.8 2618.4 1306.6 2620.3 1234.3 2561.7 1227.4 2478.6 1259.5 Z M 2880.6 1036.5 2841.3 1045.8 2846.9 936.5 2892.4 933.8 2890.8 865.8 2997.3 864.6 2999 992.5 2975.7 1008 2926.1 1016.8 2880.6 1036.5 Z M 1034.3 376.3 784 370.8 760.2 370.9 758.1 350.4 687.8 349.4 681.6 305 666.1 303 668.2 282.3 751.9 281.4 758.2 185.5 846.1 187.6 869.8 192.8 1101.4 194.9 1103.5 282.5 1037.3 283.5 1034.3 376.3 Z" data-holc_grade="C"/>
</g>
<g id="D">
<path d="M 1980.6 1139 1981.2 1012.8 1951.7 1009.5 1956.4 989.4 1956.9 938.4 1809.2 942.3 1742.1 934.4 1742.9 913 1777.6 909.6 1782.6 750.4 1936.5 748.7 1991.5 746.9 1991.5 565 2027.5 560 2029.9 388.1 2005.1 388.1 1998.8 197.6 2126.6 195.1 2249.4 193.8 2250.8 402.8 2166.4 402.9 2164 560 2247.1 561.2 2248.4 681.2 2192.6 681.2 2190.1 654 2067.2 651.6 2067.3 842.2 2275.8 842.1 2275.9 871.8 2167.9 868.1 2161.7 928.7 2508 936 2484.5 949.6 2494.4 958.2 2500.6 964.4 2462.1 1007.8 2454.7 1028.8 2067.4 1036.5 2063.7 1144.1 1980.6 1139 Z" data-holc_grade="D"/>
<path d="M 1065.4 1851.7 1065.4 1807.2 1065.4 1721.3 1129.2 1698.2 1493.5 1702.4 1494.4 1779.2 1405.8 1781.6 1408.3 1816.3 1405.8 1856.8 1266.6 1855.9 1065.4 1851.7 Z" data-holc_grade="D"/>
<path d="M 1499.1 1082.7 1354.1 1085.1 1346.6 1109.8 1295.3 1116.4 1294.5 1133.7 1187.1 1134.9 1147.9 1135.4 1150.5 977.8 1181.9 976.1 1182.4 938.5 1276.2 957.1 1313.4 957.7 1501.5 952.1 1501.6 936 1742.1 934.4 1809.2 942.3 1805.9 984.4 1689.2 987.7 1685.1 1034.7 1508 1035.6 1508 1082.6 1499.1 1082.7 Z" data-holc_grade="D"/>
<path d="M 2461.1 1123.3 2425.8 1200.1 2450 1191.4 2478.6 1259.5 2374.3 1294.2 2361.3 1311.5 2245.2 1313 2084.6 1315.1 1960.2 1316.7 1958.4 1380.4 1877 1379.8 1880.1 1259.8 1895.6 1256.7 1897.5 1129.2 1969.5 1158.2 1975.1 1213.9 2071.3 1217.6 2066.4 1260.3 2153.9 1261.5 2157 1244.2 2253.8 1239.8 2253.2 1197.1 2349.4 1192.1 2356.2 1187.7 2364.9 1180.3 2374.9 1170.4 2387.9 1148.7 2421.4 1124.6 2461.1 1123.3 Z M 1980.6 1139 1960.8 1130.4 1896.8 1106.3 1867 1103.2 1811.8 1108.1 1788.2 1114.3 1764 1125.5 1669.6 1167.6 1651 1170.7 1622.5 1185.5 1580.2 1217.1 1559.8 1233.8 1551.1 1264.1 1532.4 1287.7 1520.6 1326 1513.2 1339 1506.4 1354.5 1497.1 1368.1 1496.5 1315.4 1498.1 1200.9 1517.2 1177.7 1541.5 1149.4 1577.8 1127.7 1629 1102.4 1706 1083.3 1788.8 1066.3 1867.9 1047.2 1927.4 1035.8 1951.7 1009.5 1981.2 1012.8 1980.6 1139 Z" data-holc_grade="D"/>
<path d="M 381.9 1515.3 384.4 1490.6 505.5 1496.3 676.9 1496.4 678.8 1453.7 757.7 1448.7 755.8 1350.3 822.3 1349.7 825.9 1555.3 532.8 1552 435.9 1553.2 404.3 1542 381.9 1515.3 Z" data-holc_grade="D"/>
<path d="M 1523.7 1379.9 1782 1379.9 1780.4 1470.6 1481.5 1473.5 1523.7 1379.9 Z" data-holc_grade="D"/>
<path d="M 1958.4 1380.4 2020.1 1339.9 2084.6 1315.1 2245.2 1313 2241.2 1400.9 2159.2 1422.4 2155.1 1406.7 2070.6 1407.6 2069 1453.8 1971.3 1455.5 1900.9 1515.8 1873.6 1523.2 1871.9 1455.5 1958.4 1380.4 Z" data-holc_grade="D"/>
<path d="M 727.7 1696.9 706.2 1696.9 655.7 1677.9 597.7 1675.4 560.5 1676.2 474.4 1670.3 438.8 1670.3 457 1648.9 479.4 1635.7 522.4 1636.5 567.1 1643.2 587.8 1646.5 613.5 1642.4 635 1629.2 655.7 1613.5 681.4 1601.1 712 1600.3 756.8 1612.7 755.1 1682.9 727.7 1696.9 Z" data-holc_grade="D"/>
<path d="M 383.2 1714.8 384.9 1745.4 374 1870 463.4 1868.5 476.7 1895.7 476.7 1918.8 465.9 1946.1 459.2 1973.3 474.1 1984.1 495.7 1974.2 506.4 1948.6 517.2 1938.7 520.5 1887.8 546.9 1891.9 546.2 1958.5 570.2 2007.2 625.6 2134.5 612.3 2128.7 589.2 2123.7 572.6 2110.5 575.1 2127.8 583.3 2138.6 594.9 2149.3 605.7 2163.3 620.6 2163.4 641.3 2170 664.5 2196.4 659.3 2459.9 597.2 2460.7 595.6 2407 569.9 2406.1 566.6 2372.3 513.6 2371.4 508.6 2342.5 541 2341.7 531.2 2149.3 372.1 2140.9 379.7 2031.1 371.5 1919.6 344.1 1917.9 347.5 1890.7 321 1889.8 320.2 1815.5 316.9 1801.5 290.4 1779.1 266.4 1749.4 250.7 1718 245 1686.6 262.4 1688.3 268.2 1674.3 278.1 1675.1 288.9 1671 290.6 1652.8 296.3 1652.8 307.1 1661.9 307.9 1673.5 327 1675.2 345.2 1686.7 359.2 1699.1 369.2 1709 383.2 1714.8 Z" data-holc_grade="D"/>
<path d="M 1065.4 1807.2 1065.4 1851.7 938.7 1851.2 648.8 1849.9 643 1884.6 570.9 1887.3 557.7 1887.8 546.9 1891.9 520.5 1887.8 514.7 1872.1 504.7 1856.4 571 1857.3 575.1 1842.4 732.5 1734.4 730.9 1804.5 1065.4 1807.2 Z" data-holc_grade="D"/>
<path d="M 1596.1 192.6 1494.1 195.6 1497.4 285.5 1596.7 288.8 1599.2 380.3 1497.4 378.7 1494.9 436.4 1123.5 436.4 1121 378.6 1404.8 375.4 1399.8 284.7 1103.5 282.5 1101.4 194.9 1313.8 193.1 1308 2.6 1399.8 2.6 1400.6 192.3 1488.3 188.2 1487.5 1 1691.8 6.8 1694.3 189.8 1596.1 192.6 Z" data-holc_grade="D"/>
</g>
</svg>