<?xml version="1.0"?>
<svg xmlns="http://www.w3.org/2000/svg" version="1.2" baseProfile="tiny" width="3000" height="4108" viewBox="0 0 3000 4108" stroke-linecap="round" stroke-linejoin="round">
<g id="A">
<path d="M 1008.2 2166.2 365.4 2171.7 350.8 2187.1 306 2194.6 302 2051.9 809.8 2046.8 1009.8 2044.8 1008.2 2166.2 Z" data-holc_grade="A"/>
<path d="M 982.2 2441.4 602.6 2443.6 601 2226 205.3 2229.2 293.1 2196.8 306 2194.6 350.8 2187.1 365.4 2171.7 1008.2 2166.2 1014.6 2439 982.2 2441.4 Z" data-holc_grade="A"/>
<path d="M 464.3 2444.4 465.8 2690.5 529.4 2689.7 533.1 2992 403.6 2995.8 400.9 3297.5 197.9 3300.5 4.7 3310.6 1 3000.7 197.9 2989.4 196.7 2603.6 201 2441.9 464.3 2444.4 Z" data-holc_grade="A"/>
<path d="M 533.1 2992 529.4 2689.7 465.8 2690.5 464.3 2444.4 602.6 2443.6 982.2 2441.4 996.6 2441.3 1011.2 3077.6 984.3 3078.4 932.3 3080.8 889.2 3083.2 860 3075.1 832.3 3075.9 802.3 3084.8 794.8 2998.4 533.1 2992 Z" data-holc_grade="A"/>
</g>
<g id="B">
<path d="M 1784.6 482 1746.5 486.5 1604.9 485 1609.4 8.7 1776.9 5.7 1784.6 482 Z" data-holc_grade="B"/>
<path d="M 1746.5 486.5 1749.7 670.8 1684.1 677.7 1685.7 815.6 1502.9 817.6 1504.6 817.6 1503.1 679.5 1494.4 608.9 1465.2 607.7 1464 559.6 1494.4 562.1 1493.2 490.1 1604.9 485 1746.5 486.5 Z" data-holc_grade="B"/>
<path d="M 809.8 2046.8 302 2051.9 306 2194.6 293.1 2196.8 205.3 2229.2 190 2231.2 193.3 1642.4 393.4 1637.4 393.4 1364.2 799.7 1499.9 809.8 2046.8 Z" data-holc_grade="B"/>
<path d="M 1780.2 2369.3 1777.2 2425.5 1684.2 2430.1 1675.1 2786.7 1768.1 2786.7 1822.9 2786.7 1778.7 2871.5 1645.7 2872.8 1639.5 3110.4 1628.9 3121.8 1577.1 3187 1548.1 3231.1 1505.5 3276.6 1449.1 3320.6 1456.9 3275.8 1470.9 2873.3 1390.1 2871.8 1384 2978 1192 2981 1188.9 3088.8 1137.1 3087.3 1141.6 3282.4 1012 3285 1011.2 3077.6 996.6 2441.3 982.2 2441.4 1014.6 2439 1008.2 2166.2 1009.8 2044.8 1213.4 2043 1221 2436.1 1411.5 2431.6 1416 2058.2 1455.7 2058.2 1441.9 2430.1 1475.5 2430.1 1481.6 2059.7 1748.2 2062.8 1751.3 2361.8 1780.2 2369.3 Z" data-holc_grade="B"/>
<path d="M 1999.3 3322.1 1999.3 3400 1922.1 3400 1920 3469.9 1891.6 3471.9 1892.6 3556.9 1837.7 3556.9 1836.7 3475 1808.3 3472.9 1805.2 3405.1 1641.8 3410.5 1628.9 3121.8 1639.6 3121.5 1796.1 3118 1856 3116.7 1849.9 2865.7 1936.2 2864.7 1944.4 3305.9 1970.8 3306.9 1970.8 3322.1 1999.3 3322.1 Z" data-holc_grade="B"/>
</g>
<g id="C">
<path d="M 1749.7 670.8 1746.5 486.5 1784.6 482 1808.9 485 1815 664 1749.7 670.8 Z" data-holc_grade="C"/>
<path d="M 2234.3 685.1 1987.2 674.6 1987.1 540.4 2229.3 538.1 2234.3 685.1 Z" data-holc_grade="C"/>
<path d="M 1502.9 817.6 1000.5 823.6 996.1 633.5 1399.5 618.8 1404.1 678 1503.1 679.5 1504.6 817.6 1502.9 817.6 Z" data-holc_grade="C"/>
<path d="M 1002.1 1227.2 1002.9 1424.4 797.8 1426.4 795.7 1323.2 391.5 1321.1 388.2 828 787.2 826.6 1000.5 823.6 1002.1 1227.2 Z" data-holc_grade="C"/>
<path d="M 1002.9 1424.4 1007 1535.7 1031.3 1549.9 1380.7 1553.9 1437.6 1553.9 1429.5 1871.6 1969.6 1877.6 1969.8 1877.6 1969.1 1899.1 1965.8 2007.1 1780.9 2005.1 1780.2 2369.3 1751.3 2361.8 1748.2 2062.8 1481.6 2059.7 1475.5 2430.1 1441.9 2430.1 1455.7 2058.2 1416 2058.2 1411.5 2431.6 1221 2436.1 1213.4 2043 1009.8 2044.8 809.8 2046.8 799.7 1499.9 393.4 1364.2 391.5 1321.1 795.7 1323.2 797.8 1426.4 1002.9 1424.4 Z" data-holc_grade="C"/>
<path d="M 1768.1 2786.7 1675.1 2786.7 1684.2 2430.1 1777.2 2425.5 1768.1 2786.7 Z" data-holc_grade="C"/>
<path d="M 1449.1 3320.6 1411.2 3345.7 798.5 3360.8 805.1 3504.5 795.9 3620.9 697.7 3594.1 558.5 3598.1 556.5 3631.5 382.7 3640.6 140.8 3643.6 139.8 3590.9 133.8 3513 196.8 3514 197.9 3300.5 400.9 3297.5 800 3291.6 800 3289.4 1012 3285 1141.6 3282.4 1456.9 3275.8 1449.1 3320.6 Z M 1449.1 3320.6 1505.5 3276.6 1548.1 3231.1 1577.1 3187 1628.9 3121.8 1641.8 3410.5 1642.6 3428.4 1598.4 3429.9 1596.9 3560.5 1499.4 3565 1502.4 3322.1 1449.1 3320.6 Z M 1796.1 3118 1796 2871.3 1796 2871.2 1796 2869.8 1797 2869.7 1822.9 2867.7 1849.9 2865.7 1856 3116.7 1796.1 3118 Z M 1999.3 3322.1 1970.8 3322.1 1970.8 3306.9 1944.4 3305.9 1936.2 2864.7 1984 2864.7 1999.3 3322.1 Z" data-holc_grade="C"/>
</g>
<g id="D">
<path d="M 2288.6 4.1 2291.7 208.9 2223.2 208.9 2229.3 538.1 1987.1 540.4 1911 541.1 1888.1 547.2 1876 579.1 1874.5 813.6 1685.7 815.6 1684.1 677.7 1749.7 670.8 1815 664 1808.9 485 1784.6 482 1776.9 5.7 1833.3 16.3 2069.3 1.1 2288.6 4.1 Z" data-holc_grade="D"/>
<path d="M 2006.9 3669.8 2430.7 3663.6 2470.3 3657.5 2476.5 4062.9 2011.6 4073.6 2006.9 3669.8 Z" data-holc_grade="D"/>
<path d="M 794.9 3634 798.2 4093.2 767.7 4103.3 502.5 4107.3 499.5 3727.7 794.9 3634 Z" data-holc_grade="D"/>
<path d="M 794.9 3634 795.9 3620.9 805.1 3504.5 798.5 3360.8 1411.2 3345.7 1234.9 3473.2 908.7 3603.7 794.9 3634 Z" data-holc_grade="D"/>
<path d="M 1795 2871.3 1639.5 3110.4 1645.7 2872.8 1778.7 2871.5 1795 2871.3 Z" data-holc_grade="D"/>
<path d="M 2291.7 208.9 2288.6 4.1 2541.4 1 2543 208.8 2291.7 208.9 Z" data-holc_grade="D"/>
<path d="M 996.1 633.5 1000.5 823.6 787.2 826.6 791.8 623.3 995.9 626.4 996.1 633.5 Z" data-holc_grade="D"/>
<path d="M 2238.5 1078.2 2238.6 1219.6 2098.7 1219.6 2094.2 1256 1919 1254.5 1620.4 1248.5 1614.3 1221.1 1448.3 1225.7 1002.1 1227.2 1000.5 823.6 1502.9 817.6 1685.7 815.6 1874.5 813.6 2238.5 809.6 2238.5 1078.2 Z" data-holc_grade="D"/>
<path d="M 2238.6 1219.6 2238.5 1078.2 2427.4 1079.6 2427.4 812.6 2238.5 809.6 2234.3 685.1 2229.3 538.1 2540 538 2604 571.3 2637.5 648.7 2648.3 1208.5 2444.5 1219.5 2238.6 1219.6 Z" data-holc_grade="D"/>
<path d="M 1380.7 1553.9 1031.3 1549.9 1007 1535.7 1002.9 1424.4 1002.1 1227.2 1448.3 1225.7 1446.8 1494.3 1373.6 1500.3 1380.7 1553.9 Z" data-holc_grade="D"/>
<path d="M 1446.8 1494.3 1448.3 1225.7 1614.3 1221.1 1620.4 1248.5 1919 1254.5 1919 1506.4 1446.8 1494.3 Z" data-holc_grade="D"/>
<path d="M 2447.5 1615 2448.2 1705 2449 1817.3 2450.8 2063.2 1963.3 2063.3 1965.8 2007.1 1969.1 1899.1 1969.8 1877.6 1969.6 1877.6 1976.9 1509.4 1919 1506.4 1919 1254.5 2094.2 1256 2098.7 1219.6 2238.6 1219.6 2444.5 1219.5 2447.5 1615 Z" data-holc_grade="D"/>
<path d="M 2780.9 2257.3 2450.8 2063.2 2449 1817.3 2540 1818.3 2542 1701.9 2448.2 1705 2447.5 1615 2999 1604.7 2998 1754.4 2857.9 1751.4 2859 2012.4 2778.7 2013.5 2780.9 2257.3 Z" data-holc_grade="D"/>
<path d="M 1965.8 2007.1 1963.3 2063.3 2450.8 2063.2 2780.9 2257.3 2782.4 2421.2 2648.3 2419.7 1777.2 2425.5 1780.2 2369.3 1780.9 2005.1 1965.8 2007.1 Z" data-holc_grade="D"/>
<path d="M 1999.3 3322.1 1984 2864.7 1936.2 2864.7 1849.9 2865.7 1822.9 2867.7 1797 2869.7 1796 2869.8 1796 2871.2 1795 2871.3 1778.7 2871.5 1822.9 2786.7 1768.1 2786.7 1777.2 2425.5 2648.3 2419.7 2649.9 2512.3 2529.5 2512.3 2540.4 3253.1 2327 3256.2 2195.9 3083.2 2199 3326 1999.3 3322.1 Z" data-holc_grade="D"/>
</g>
</svg>