<?xml version="1.0"?>
<svg xmlns="http://www.w3.org/2000/svg" version="1.2" baseProfile="tiny" width="3000" height="3826" viewBox="0 0 3000 3826" stroke-linecap="round" stroke-linejoin="round">
<g id="A">
<path d="M 1770.9 3295.7 2198.7 3298.5 2194 3527.1 2186.2 3583.5 1942.4 3580.4 1802.4 3585.1 1800.7 3534.8 1799.2 3491.2 1717.4 3494.3 1722.1 3397.2 1726.8 3295.4 1770.9 3295.7 Z" data-holc_grade="A"/>
<path d="M 2845.4 2783.2 2833.7 2915.4 2780.6 2922.5 2766.4 3024.3 2628.3 3018.1 2484.9 3011.8 2497.4 2798.8 2555.6 2800.4 2554.1 2773.7 2845.4 2783.2 Z" data-holc_grade="A"/>
</g>
<g id="B">
<path d="M 2466.5 2103.3 2470.5 2103.6 2712.7 2112.9 2871.5 2116 2860.5 2206.8 2560.2 2199.1 2217.4 2194.4 2208 2150.6 2219 2088 2466.5 2103.3 Z" data-holc_grade="B"/>
<path d="M 2602.7 2316.5 2591.8 2700.1 2851.7 2711.5 2845.4 2783.2 2554.1 2773.7 2555.6 2800.4 2497.4 2798.8 2484.9 3011.8 2628.3 3018.1 2628.1 3121.4 2615.5 3307.8 2615.5 3368.8 2623.5 3520.8 2194 3527.1 2198.7 3298.5 2204.3 3101.3 2216.1 2688.1 2221.8 2489 2226.9 2313.4 2319.6 2304 2365.2 2307.1 2412.4 2316.5 2480 2308.7 2524.1 2308.7 2602.7 2316.5 Z" data-holc_grade="B"/>
<path d="M 2216.1 2688.1 2204.3 3101.3 2133.1 3105.2 2131 2971.1 2120 2850.6 2006.8 2852.1 2002.3 3112.3 1947 3115.3 1953.3 2947.7 1855.8 2943 1836.9 3140.3 1816.5 3229.6 1770.9 3295.7 1726.8 3295.4 1722.1 3397.2 1717.4 3494.3 1799.2 3491.2 1800.7 3534.8 1737.9 3538.1 1665.5 3556.9 1501.9 3555.4 1336.8 3546 1357.2 3503.7 1357.2 3488 1500.3 3492.7 1508.2 3464.5 1558.5 3453.6 1580.6 2864.7 1582.1 2681.5 1910.8 2679.9 2031.9 2681.4 2216.1 2688.1 Z" data-holc_grade="B"/>
</g>
<g id="C">
<path d="M 1078.9 2698.7 1012.8 2692.4 1008.1 2880.3 918.4 2877.2 910.6 3002.5 853.9 3010.3 787.9 2989.9 810 2279 1137.1 2288.4 1148.1 2371.4 1085.2 2374.5 1078.9 2459.1 1078.9 2698.7 Z" data-holc_grade="C"/>
<path d="M 1287.9 794.1 1147.1 815 1145.4 666.8 940 664.6 862.5 656.3 856.2 627.1 891.8 625 887.6 558.2 906.5 251.4 1067.9 264 1076.3 286.9 1258.6 284.9 1273.3 268.2 1327.8 278.6 1319.4 666.8 1296.3 668.8 1287.9 794.1 Z" data-holc_grade="C"/>
<path d="M 1357.2 3488 1383.9 3414.4 1387.1 3304.8 1389 3269 1393.4 3185.8 1388.7 3063.6 1389.2 3032.5 1390.8 2932.1 1391.8 2867.8 1580.6 2864.7 1558.5 3453.6 1508.2 3464.5 1500.3 3492.7 1357.2 3488 Z" data-holc_grade="C"/>
<path d="M 2133.1 3105.2 2002.3 3112.3 2006.8 2852.1 2120 2850.6 2131 2971.1 2133.1 3105.2 Z" data-holc_grade="C"/>
<path d="M 2192.5 3697.9 2406.4 3674.3 2403.3 3788.7 2167.3 3824.7 2187.8 3763.6 2192.5 3697.9 Z" data-holc_grade="C"/>
<path d="M 2848 2416.6 2854.4 2681.3 2851.7 2711.5 2591.8 2700.1 2602.7 2316.5 2689.2 2308.6 2739.5 2319.6 2796.1 2313.3 2844.9 2313.3 2848 2416.6 Z" data-holc_grade="C"/>
<path d="M 2208 2150.6 2217.4 2194.4 2560.2 2199.1 2860.5 2206.8 2863.7 2235 2844.9 2313.3 2796.1 2313.3 2739.5 2319.6 2689.2 2308.6 2602.7 2316.5 2524.1 2308.7 2480 2308.7 2412.4 2316.5 2365.2 2307.1 2319.6 2304 2226.9 2313.4 2221.8 2489 2039.7 2490.4 2031.9 2681.4 1910.8 2679.9 1582.1 2681.5 1401.3 2678.3 1365.1 2672.1 1384 2207 1415.3 2207.4 1750.4 2211.7 1764.5 1973.7 1948.5 1980 1954.8 2135 2208 2150.6 Z" data-holc_grade="C"/>
<path d="M 2871.5 2116 2712.7 2112.9 2470.5 2103.6 2466.5 2103.3 2406 1976.8 2544.4 1984.6 2616.8 1984.5 2865.2 1990.7 2871.5 2116 Z" data-holc_grade="C"/>
<path d="M 1859.4 1338.5 1862.5 1304.1 1714.8 1297.8 1708.4 1553.5 1669.2 1553 1669.2 1642.3 1593.7 1643.8 1585.9 1553 1540.3 1543.6 1535.5 1488.8 1537.1 942.5 1652.1 940.5 1974.1 934.7 1982 1041.1 1969.4 1222.7 1972.6 1340.1 1859.4 1338.5 Z" data-holc_grade="C"/>
<path d="M 1535.5 1488.8 1480.5 1482.6 1386.2 1495.1 1241.5 1487.3 1013.6 1481 919.5 1476.1 832.8 1471.6 826.5 1432.4 832.8 1412.1 829.6 1336.9 824.9 1286.8 831.2 1238.3 834.4 1207 832.8 1142.8 832.8 1019.2 850.1 928.4 1040.4 948.7 1537.1 942.5 1535.5 1488.8 Z M 1166.1 1152.3 1112.6 1147.6 1106.4 1119.4 1076.5 1117.8 1076.5 1275.9 1169.2 1282.2 1166.1 1203.9 1145.7 1200.8 1144.1 1180.4 1167.7 1182 1166.1 1152.3 Z" data-holc_grade="C"/>
</g>
<g id="D">
<path d="M 2833.7 2915.4 2845.4 2783.2 2851.7 2711.5 2854.4 2681.3 2848 2416.6 2999 2421.3 2953.6 2928.7 2827.8 2981.9 2833.7 2915.4 Z" data-holc_grade="D"/>
<path d="M 1389 3269 1343.1 3265.6 1026.9 3289.1 1028.5 3240.5 1025.3 3152.8 1052.1 3159.1 1319.5 3148.2 1322.6 3033.8 1389.2 3032.5 1388.7 3063.6 1393.4 3185.8 1389 3269 Z M 1391.8 2867.8 1390.8 2932.1 1179.5 2932 1189 2788 1248.7 2783.3 1248.7 2728.5 1330.5 2731.6 1399.7 2722.2 1391.8 2867.8 Z" data-holc_grade="D"/>
<path d="M 1415.3 2207.4 1384 2207 1365.1 2672.1 1200 2679.9 1184.2 2730 1078.9 2733.1 1078.9 2698.7 1078.9 2459.1 1085.2 2374.5 1148.1 2371.4 1137.1 2288.4 810 2279 814.8 2045.7 1000.3 2045.7 1052.2 2064.5 1289.6 2034.8 1295.9 2136.6 1404.4 2146 1415.3 2207.4 Z" data-holc_grade="D"/>
<path d="M 2865.2 1990.7 2616.8 1984.5 2544.4 1984.6 2406 1976.8 2466.5 2103.3 2219 2088 2208 2150.6 1954.8 2135 1948.5 1980 1764.5 1973.7 1895 1881.3 2338.4 1890.7 2522.4 1901.6 2862 1892.1 2865.2 1990.7 Z" data-holc_grade="D"/>
<path d="M 2662.6 727.9 2664.2 904.8 2483.4 901.7 2478.8 1177.2 2483.5 1271.1 2469.4 1474.6 2799.6 1488.6 2857.8 1501.1 2864.1 1656.1 2824.8 1654.6 2796.5 1665.6 2661.3 1665.6 2653.4 1635.8 2466.3 1632.8 2466.4 1743.9 2238.4 1747.1 2232.1 1678.2 2181.8 1668.8 2183.3 1708 1996.2 1704.9 2004.1 1487.2 1872 1477.9 1859.4 1338.5 1972.6 1340.1 1969.4 1222.7 1982 1041.1 1974.1 934.7 1652.1 940.5 1656.6 894 1812.2 881.5 1812.2 853.3 1994.6 837.6 2085.7 847 2329.4 842.3 2469.3 748.3 2615.4 726.4 2662.6 727.9 Z M 2145.5 1280.6 2147.1 1404.3 2197.4 1401.1 2197.4 1286.8 2145.5 1280.6 Z" data-holc_grade="D"/>
<path d="M 1535.5 1488.8 1540.3 1543.6 1585.9 1553 1593.7 1643.8 1669.2 1642.3 1669.2 1553 1708.4 1553.5 1790.2 1554.6 1790.3 1822.3 1317 1822.3 1059.1 1812.9 887.7 1808.2 890.9 1659.4 919.5 1476.1 1013.6 1481 1241.5 1487.3 1386.2 1495.1 1480.5 1482.6 1535.5 1488.8 Z" data-holc_grade="D"/>
<path d="M 814.8 2045.7 810 2279 787.9 2989.9 785.3 3228.4 593.4 3201.8 576.1 3266 387.4 3250.3 387.4 3081.1 357.5 3062.3 280.5 3051.3 143.6 3043.5 110.7 2850.8 217.6 2843 197.2 2728.7 198.8 2644.2 565.2 2661.5 570 2254.4 710 2260.6 714.7 2100.9 711.6 2049.3 622 2047.7 618.8 2111.9 563.8 2113.4 489.8 2241.8 7.1 2232.3 1 1659.2 15.3 1305.4 23.2 1029.9 422.6 954.9 781 945.6 832.8 1019.2 832.8 1142.8 834.4 1207 831.2 1238.3 824.9 1286.8 829.6 1336.9 832.8 1412.1 826.5 1432.4 832.8 1471.6 834.3 1524.8 824.9 1557.7 815.4 1673.5 814.8 2045.7 Z" data-holc_grade="D"/>
<path d="M 2662.6 727.9 2615.4 726.4 2469.3 748.3 2465.8 689.6 2342.2 687.6 2249.9 687.6 2061.3 681.3 1967 689.7 1830.8 679.3 1826.6 746.1 1707.1 773.2 1604.4 771.1 1480.8 794.1 1287.9 794.1 1296.3 668.8 1319.4 666.8 1327.8 278.6 1273.3 268.2 1258.6 284.9 1076.3 286.9 1067.9 264 906.5 251.4 887.6 558.2 891.8 625 856.2 627.1 862.5 656.3 940 664.6 1145.4 666.8 1147.1 815 1147.5 850.4 889.7 867.1 166.6 704.1 95.4 693.7 95.4 662.4 103.8 597.7 118.5 549.7 114.3 493.3 110.1 420.3 275.7 405.7 418.2 409.9 432.9 330.6 435 293.1 435 266 428.7 245.1 682.3 255.6 667.7 69.9 686.5 1 801.8 9.4 935.9 24 1026 19.8 1111.9 21.9 1185.3 24 1298.4 24 1665.2 13.6 1979.5 17.7 2289.6 21.9 2300.1 153.3 2478.3 149.1 2497.1 128.2 2501.3 103.2 2505.5 65.6 2698.3 67.7 2690 288.9 2493 286.8 2497.2 366.1 2497.2 447.5 2486.7 476.7 2654.4 485 2658.6 562.3 2872.4 606 2876.6 699.9 2662.6 727.9 Z M 1878.1 277.3 1741.9 286.4 1738 352.9 1855.9 376.4 1878.1 277.3 Z" data-holc_grade="D"/>
</g>
</svg>