<?xml version="1.0"?>
<svg xmlns="http://www.w3.org/2000/svg" version="1.2" baseProfile="tiny" width="3000" height="3283" viewBox="0 0 3000 3283" stroke-linecap="round" stroke-linejoin="round">
<g id="A">
<path d="M 2459.1 1267.2 2497.8 1231.4 2559.1 1183.8 2596.2 1216.7 2604.2 1214.7 2613.8 1209.5 2619.8 1208 2646.1 1220.5 2654.3 1221.4 2658.9 1217.4 2653.2 1202.8 2669.7 1201.7 2693.7 1196.2 2713.5 1187.2 2735.5 1207.4 2716.2 1222.8 2756.1 1337.7 2752.1 1341.4 2741.9 1344.9 2732.8 1343.3 2718.5 1331.7 2711.2 1327.7 2704.7 1328.8 2696 1331.5 2690.9 1340 2688.3 1345.8 2677.3 1351.6 2664.9 1354.5 2651.5 1350 2644.7 1339.9 2640.7 1325.4 2642 1316.8 2646.2 1304.6 2645.5 1298.7 2640.5 1295.1 2631.1 1293.6 2617.1 1290.4 2586.6 1260.4 2577.2 1254.1 2569.5 1256.5 2568.6 1263.9 2610.2 1303.4 2612.2 1320.7 2600.6 1324 2581.5 1327.8 2563.9 1332.5 2548.1 1334.9 2534.5 1335.6 2522.3 1333.1 2520.9 1324.6 2521.1 1309.4 2521.4 1300.6 2515.2 1295.3 2508.2 1291.3 2500.3 1291.5 2483.6 1291.5 2468.8 1291.2 2461.1 1290.1 2456.2 1278.9 2459.1 1267.2 Z" data-holc_grade="A"/>
<path d="M 2493.4 1447.7 2442.9 1445.5 2479.2 1375.8 2477.7 1347.1 2431.8 1347.3 2430.3 1318.5 2374.2 1319.7 2373.3 1297.3 2300.1 1297.1 2297.1 1181.8 2334.1 1180.6 2339.1 1214 2341.8 1226.4 2347.5 1234.3 2359.5 1240.8 2368.9 1245.1 2374.3 1251.5 2375.9 1261.6 2377.9 1267.3 2392 1270.2 2413.8 1280.3 2428.8 1285.3 2441.7 1289.6 2455.4 1303.1 2468.5 1313.3 2482.2 1327.5 2492.2 1334.3 2504.4 1337.9 2519.9 1347.4 2539.2 1360.9 2539.4 1368.8 2493.4 1447.7 Z" data-holc_grade="A"/>
<path d="M 2069.5 1062.6 2069.1 1037 2061 1032.6 2056.6 1023 2048.4 1012.5 2038.9 1008.6 2030.9 1008.9 2017.9 1010.1 2009.9 992.8 2015.2 989.7 2020 979.5 2019.5 964.2 2017.3 955.8 2042.5 951.5 2071.3 951.1 2103.3 953.3 2099.9 972.7 2100.3 988.3 2103.5 1001.4 2105.6 1015.6 2145.7 1015.8 2146 1061 2069.5 1062.6 Z" data-holc_grade="A"/>
<path d="M 2151.7 1300.9 2152 1410.2 2087.5 1411.3 2085.2 1325.3 2110.4 1324.6 2111.5 1301.1 2151.7 1300.9 Z" data-holc_grade="A"/>
<path d="M 188.5 1626.5 187.7 1636.9 182.7 1643 168.2 1650.4 162.6 1647.1 160.4 1635.8 159.3 1621.3 155.5 1605.2 161.5 1604.7 167.5 1600.7 166.2 1593.8 160.4 1593.1 149.2 1593.5 138.6 1586.6 118.7 1565.8 106 1544.7 96.4 1531.3 90.7 1512.9 84.4 1487.7 72.2 1479.6 61.9 1467.1 56.8 1453.9 52.3 1438.4 46.5 1422.9 36.9 1414 29.6 1405.3 28.7 1397.6 24 1386.7 10.6 1369.4 42.7 1367.8 71.5 1414.4 106.4 1470.1 140.5 1522.5 151 1538.2 162.5 1555.9 166 1571.6 168.1 1580.7 176.8 1591.7 187.1 1608 188.8 1623.1 188.5 1626.5 Z" data-holc_grade="A"/>
</g>
<g id="B">
<path d="M 2395.7 1547.4 2377.6 1546.8 2401.6 1505.7 2312.6 1505.7 2310.8 1445.6 2246.5 1445.9 2247 1386 2270.1 1386 2267.6 1181.4 2297.1 1181.8 2300.1 1297.1 2373.3 1297.3 2374.2 1319.7 2430.3 1318.5 2431.8 1347.3 2477.7 1347.1 2479.2 1375.8 2442.9 1445.5 2493.4 1447.7 2433.7 1548.7 2395.7 1547.4 Z" data-holc_grade="B"/>
<path d="M 2059.6 1455.9 2025.7 1456.3 2026.4 1487.5 1998.2 1487.5 1996.6 1455.9 1977.1 1455.6 1976.6 1448.7 1976.6 1414.2 2060.5 1413.6 2059.6 1455.9 Z" data-holc_grade="B"/>
<path d="M 1500.4 1618.3 1446.2 1618.1 1445.8 1567.3 1595.1 1567.7 1595.8 1541.3 1683.4 1539.3 1683.2 1581.5 1755.4 1580.6 1755.2 1616.3 1682.3 1617.4 1682.3 1641.6 1596.5 1642.3 1595.8 1618.6 1500.4 1618.3 Z" data-holc_grade="B"/>
<path d="M 2151.7 1300.9 2150.3 1255.7 2112.4 1255.8 2110.4 1170 2147.8 1169.7 2147.6 1144 2184.1 1144 2181.6 1156.8 2186.4 1161.6 2190.3 1300.2 2151.7 1300.9 Z" data-holc_grade="B"/>
<path d="M 1916.2 1224.4 1984.6 1223.5 1985.3 1292.8 1917.2 1293.1 1916.2 1224.4 Z" data-holc_grade="B"/>
<path d="M 251.9 1775.4 373.1 1777.4 374.5 1847.3 422.4 1860.2 421.5 1917.1 356.8 1895.4 328.7 1934.1 297.6 1894.1 269.5 1865.7 269.7 1847.3 251.9 1775.4 Z" data-holc_grade="B"/>
<path d="M 1801.9 3179 2070 3175.9 2070.6 3232.5 2044.4 3233.7 2016.2 3240.1 1998 3248.7 1988.4 3262.1 1982.8 3271.3 1969.2 3277.5 1955.3 3281.7 1942.6 3280.4 1934.1 3277.5 1929.7 3272.8 1926.1 3262.7 1912.3 3254.5 1895.2 3253.8 1881.9 3257.4 1874.8 3258.2 1866.8 3250.6 1861.7 3248.4 1852.1 3250.8 1847.4 3255.6 1838.7 3255.5 1833.4 3255.6 1824.1 3248.4 1819.6 3239 1818.3 3231.8 1810.5 3229.4 1799.9 3229.1 1801.9 3179 Z" data-holc_grade="B"/>
<path d="M 542.1 1557.4 586.6 1558.2 586.8 1601.2 619.1 1601.2 620 1730.5 513.2 1730 514.3 1600.6 540.8 1601 542.1 1557.4 Z" data-holc_grade="B"/>
<path d="M 42.7 1367.8 167.5 1362.7 144.6 1390.9 144.8 1408.8 148.7 1432.4 157.1 1456.5 163.6 1480.9 171.2 1493.6 184.3 1507.7 163 1523.7 122.2 1461.4 106.4 1470.1 71.5 1414.4 42.7 1367.8 Z" data-holc_grade="B"/>
</g>
<g id="C">
<path d="M 1500.4 1618.3 1595.8 1618.6 1596.5 1642.3 1682.3 1641.6 1682.3 1617.4 1755.2 1616.3 1755.4 1580.6 1683.2 1581.5 1683.4 1539.3 1829.1 1536 1830.4 1644.7 1842.5 1652.7 1893.6 1652.7 1933.9 1734 1608 1737 1608 1760 1745.9 1759.8 1746.2 1782.3 1550.8 1782.3 1550.6 1746.2 1519.5 1746.5 1517.9 1638.4 1500.7 1638.9 1500.4 1618.3 Z" data-holc_grade="C"/>
<path d="M 1053.6 2393.2 1052.2 2458 1048.3 2462.3 1039 2457.7 1030.4 2456.2 1019.7 2458.2 1005.2 2459.1 990.7 2458.6 974.8 2453.9 962.9 2452.3 949.3 2454.1 938.9 2463.4 926.6 2470.8 916.8 2472.4 899.6 2472.8 889.6 2474.4 856.7 2475.5 832.8 2471.5 823.5 2466.9 821.7 2391.2 879.3 2391 879.3 2369.7 899.3 2369.2 899.2 2269.9 930.8 2270.1 932.8 2337.2 957.6 2336.5 958.2 2393.4 1053.6 2393.2 Z" data-holc_grade="C"/>
<path d="M 1682.7 1462 1683.4 1539.3 1595.8 1541.3 1595.1 1567.7 1445.8 1567.3 1445.6 1551.7 1446 1517.9 1524.3 1517.3 1524.3 1496.9 1568 1495.2 1565.3 1342.9 1634.3 1342 1634.7 1380.9 1682.1 1379.8 1682.7 1462 Z" data-holc_grade="C"/>
<path d="M 1038.6 1615.6 1035.6 1561.3 1034.3 1538.4 1030.7 1366.5 1099.5 1366.8 1100.6 1479.8 1213.5 1481.3 1215.8 1517.4 1214.9 1560.5 1214.4 1614.1 1038.6 1615.6 Z" data-holc_grade="C"/>
<path d="M 1912.3 829.7 1832.7 829.8 1833 751.4 1990.1 748.9 1991.6 678.6 2023.5 677.6 2037.6 679.8 2050.2 682.1 2064.2 682.6 2064.5 827.5 1912.3 829.7 Z" data-holc_grade="C"/>
<path d="M 2892.1 977.9 2857.4 1018.4 2792.9 978 2789.5 934.4 2829.4 899.4 2889.4 897.1 2892.1 977.9 Z M 2865.3 587.5 2882.6 599 2895 597.2 2908.7 595.4 2914.8 597.7 2915 613.2 2918.9 620.2 2928.6 622 2937 620.9 2930.2 610.5 2925.9 606.7 2922.5 601.3 2925.4 595 2934.7 591.6 2942.2 591.3 2959.3 601.3 2959 612.8 2961.3 615.5 2968.8 614.3 2974.7 610 2982.2 606.4 2991.5 611.4 2991.7 628.1 2999 635.3 2980.5 729.5 2953.9 741.7 2909.7 757.3 2911 767.2 2914.9 780.3 2916 793.6 2887 824.8 2883.4 834.3 2868.8 800.9 2830.6 701.1 2827.9 691 2829.3 684 2833.4 678.5 2840.2 673.6 2849.2 665 2849.7 653 2841.7 639 2831.1 622.6 2831.7 610.4 2836 605.6 2848.1 608.8 2854.2 607.2 2849.7 600.4 2851.9 590.5 2859.9 587.3 2865.3 587.5 Z" data-holc_grade="C"/>
<path d="M 817.4 1997.2 818.8 2074.2 772.3 2073.7 772.1 2060 624.9 2058.9 620.6 2042.2 608.9 2024.3 589 2011.2 585.5 1839.3 528.3 1819 528.6 1796.1 589.9 1795.6 589.3 1756.8 631.3 1757.9 631.9 1738.1 701.6 1738.2 701.3 1836.8 662.9 1837.3 663.7 1930.6 816.2 1930.4 817.4 1997.2 Z" data-holc_grade="C"/>
<path d="M 184.3 1507.7 197.8 1527.5 199.8 1537 193 1550.4 166 1571.6 162.5 1555.9 151 1538.2 140.5 1522.5 106.4 1470.1 122.2 1461.4 163 1523.7 184.3 1507.7 Z" data-holc_grade="C"/>
<path d="M 1 1132.7 25.7 1135.2 41.6 1135.6 42 1304.3 3.6 1305.4 1 1132.7 Z" data-holc_grade="C"/>
<path d="M 981.7 2083 902.3 2083.1 896.6 2244.9 821.9 2242.2 823.8 2073.6 818.8 2074.2 817.4 1997.2 1013.5 1999.4 1013.3 1941.6 1087.9 1942.5 1087.4 1998.3 1132.6 1998.8 1132.9 2035.7 1057.4 2036 1057.1 2082.9 981.7 2083 Z" data-holc_grade="C"/>
<path d="M 1597.6 2507 1604 2493.9 1614 2480.9 1621.8 2476.6 1631.2 2475.5 1641.6 2478.9 1656.4 2483.7 1668.4 2489.1 1711.1 2537.7 1720 2544.3 1710.8 2563 1701.9 2573.4 1691 2562.9 1646.1 2505.6 1597.6 2507 Z" data-holc_grade="C"/>
<path d="M 2230 1562.2 2321.3 1561 2386 1564.4 2362.5 1599.4 2366.1 1606.8 2336.7 1692.1 2227.2 1691.2 2230 1562.2 Z M 2208 1553.6 2205.9 1721 2086.6 1720.3 2085.3 1554.1 2208 1553.6 Z" data-holc_grade="C"/>
<path d="M 2009.9 992.8 2017.9 1010.1 2030.9 1008.9 2038.9 1008.6 2048.4 1012.5 2056.6 1023 2061 1032.6 2069.1 1037 2069.5 1062.6 2070.5 1143.3 1911.7 1145.6 1911.3 1066 1836.9 1066.1 1837.3 1026.2 1878.3 1025.3 1877.7 963.6 1978.1 961 2009.9 992.8 Z" data-holc_grade="C"/>
<path d="M 2059.6 1455.9 2062.7 1459.5 2063.1 1516.5 2055.1 1516.7 2056.2 1607.4 1994.2 1607.4 1993.2 1640.1 1967 1641.6 1967.2 1652.4 1917.1 1654.1 1916.5 1617.9 1882.7 1535.4 1869.5 1535.7 1871.1 1450.4 1907.8 1449.2 1976.6 1448.7 1977.1 1455.6 1996.6 1455.9 1998.2 1487.5 2026.4 1487.5 2025.7 1456.3 2059.6 1455.9 Z" data-holc_grade="C"/>
<path d="M 2267.6 1181.4 2270.1 1386 2247 1386 2246.5 1445.9 2310.8 1445.6 2312.6 1505.7 2401.6 1505.7 2377.6 1546.8 2395.7 1547.4 2386 1564.4 2321.3 1561 2230 1562.2 2229.2 1335.1 2215.3 1335.1 2208.3 1339.2 2208 1553.6 2085.3 1554.1 2083.7 1517.3 2063.1 1516.5 2062.7 1459.5 2059.6 1455.9 2060.5 1413.6 1976.6 1414.2 1976.6 1448.7 1907.8 1449.2 1907.4 1333.4 1841.8 1333.6 1842.2 1299.7 1884.7 1300.7 1883.4 1212.1 1883.2 1194.6 1911.9 1194.2 1911.7 1145.6 2070.5 1143.3 2069.5 1062.6 2146 1061 2145.7 1015.8 2189.4 1015.5 2190.6 989.8 2249.3 989.1 2255.1 1181 2267.6 1181.4 Z M 2151.7 1300.9 2111.5 1301.1 2110.4 1324.6 2085.2 1325.3 2087.5 1411.3 2152 1410.2 2151.7 1300.9 2190.3 1300.2 2186.4 1161.6 2181.6 1156.8 2184.1 1144 2147.6 1144 2147.8 1169.7 2110.4 1170 2112.4 1255.8 2150.3 1255.7 2151.7 1300.9 Z M 1916.2 1224.4 1917.2 1293.1 1985.3 1292.8 1984.6 1223.5 1916.2 1224.4 Z" data-holc_grade="C"/>
<path d="M 1134.3 1655.5 1134.3 1694 1385.1 1694.8 1385.3 1728.2 1444.5 1728.9 1445.8 1771.2 1286.7 1773.4 1285.6 1843.8 1214.9 1843.8 1214.6 1888.6 898.9 1886.8 898.4 1748.4 823.7 1748.5 822.6 1695.4 1005.4 1693.8 1005.9 1655.9 1134.3 1655.5 Z" data-holc_grade="C"/>
<path d="M 2262.1 2237.9 2230.9 2237.3 2230.3 2148.7 2148.7 2149.4 2148.9 2160.3 1911.8 2163.4 1910.9 2030.6 1911 1956.4 1998 1955.6 1998.2 1940.4 2044.5 1940.4 2044.5 1893.3 2056.3 1893.1 2087.5 1892.9 2131.4 1892.6 2227.2 1891.9 2227.3 1904.2 2229.2 2116.3 2314.5 2115.7 2314 2079.8 2364.4 2079.2 2369.4 2179.4 2373.7 2209.9 2373.7 2226.1 2375.9 2240.4 2262.1 2237.9 Z" data-holc_grade="C"/>
<path d="M 2230.9 2237.3 2262.1 2237.9 2262 2248.8 2321.6 2328.3 2315.8 2334.8 2310 2346.8 2303.2 2355.9 2283.9 2366.8 2272.9 2365.2 2252.3 2365.3 2238.3 2376.3 2225.4 2396 2201.8 2423.5 2194.9 2438.7 2193.7 2450.2 2196.4 2463.4 2198.9 2471.8 2207.2 2485.9 2218.4 2499.4 2211 2501.8 2202.3 2503.9 2197.3 2507.1 2194.5 2513.1 2196.7 2520.4 2201 2526.1 2210.4 2530.2 2211 2536.1 2079.6 2539.7 2077.6 2276.4 1569.1 2276.9 1570.1 2392.4 1481.5 2392 1478 2174 1568.7 2173.4 1568.9 2230.5 1680 2231.2 1679.5 2164.3 1911.8 2163.4 2148.9 2160.3 2149.5 2237.4 2230.9 2237.3 Z" data-holc_grade="C"/>
<path d="M 168.2 1650.4 182.7 1643 187.7 1636.9 188.5 1626.5 347.2 1626.6 347.3 1697 353 1713.1 363.6 1728.9 255.5 1728.5 227.6 1757.8 223.1 1741.6 207.9 1717.6 176.3 1676 166.3 1662.7 168.2 1650.4 Z" data-holc_grade="C"/>
<path d="M 2079.6 2539.7 2211 2536.1 2256.4 2537 2261.3 2541 2265.3 2547.3 2268 2580.1 2265.5 2589.9 2256.7 2614.7 2255.7 2627.5 2259.3 2636.7 2263 2645.4 2272.4 2656.3 2282.6 2671.6 2282.5 2682.4 2229.7 2682.1 2229.1 2774.2 2077.3 2772.3 2079.4 2735.1 2095.1 2717.7 2106.8 2699.5 2115.1 2674.5 2114 2646.1 2105.4 2628.5 2096.8 2614.8 2079.9 2590.2 2079.6 2539.7 Z" data-holc_grade="C"/>
</g>
<g id="D">
<path d="M 2227.3 1904.2 2227.2 1891.9 2131.4 1892.6 2130.3 1795 2314.7 1793.8 2314.5 1906 2227.3 1904.2 Z" data-holc_grade="D"/>
<path d="M 1837.3 1026.2 1758.3 1025.3 1757.2 1101.2 1690.3 1101 1632.7 1099.9 1633.6 946.8 1715.9 946.9 1717.7 841.1 1577.5 693.5 1398.7 693.2 1400.7 920.8 1400.7 948.5 1461 948.6 1462.8 1108.3 1405.4 1110.1 1403.3 1010 1284.9 1011.7 1286 949.7 1324.8 949.3 1325 588.4 1756.6 588.9 1759.2 750.5 1833 751.4 1832.7 829.8 1912.3 829.7 1913.8 891.8 1921.9 901.8 1977.7 901.9 1978.1 961 1877.7 963.6 1878.3 1025.3 1837.3 1026.2 Z" data-holc_grade="D"/>
<path d="M 1682.7 1462 1682.1 1379.8 1634.7 1380.9 1634.3 1342 1565.3 1342.9 1563.5 1244.8 1625.7 1244.3 1629.1 1323.8 1718.8 1324.1 1719.5 1462 1682.7 1462 Z" data-holc_grade="D"/>
<path d="M 1038.6 1615.6 931.5 1616.3 930.6 1562.1 1035.6 1561.3 1038.6 1615.6 Z M 1385.1 1694.8 1134.3 1694 1134.3 1655.5 1134.6 1637.2 1292.6 1636.1 1291.8 1559.7 1214.9 1560.5 1215.8 1517.4 1446 1517.9 1445.6 1551.7 1384.3 1552.5 1385.1 1694.8 Z" data-holc_grade="D"/>
<path d="M 1141.9 2268.6 1142.6 2393.1 1054.3 2393.2 1053.6 2393.2 958.2 2393.4 957.6 2336.5 932.8 2337.2 930.8 2270.1 899.2 2269.9 899.3 2369.2 879.3 2369.7 879.3 2391 821.7 2391.2 819 2329.2 821.9 2242.2 896.6 2244.9 902.3 2083.1 981.7 2083 982 2174.7 1141.3 2174.9 1141.9 2268.6 Z" data-holc_grade="D"/>
<path d="M 1454.8 2067.7 1454.7 2078.8 1057.1 2082.9 1057.4 2036 1132.9 2035.7 1132.6 1998.8 1087.4 1998.3 1087.9 1942.5 1485.9 1943.9 1483.8 2008.3 1455.9 2008.5 1454.8 2067.7 Z" data-holc_grade="D"/>
<path d="M 1550.8 1782.3 1746.2 1782.3 1747.3 1841.6 1679.1 1842.1 1679.9 1876.6 1678.1 1885.1 1670.9 1895.5 1602.2 1895.1 1600.9 1904.6 1423.8 1904.9 1423.5 1831.2 1550.6 1831.3 1550.8 1782.3 Z" data-holc_grade="D"/>
<path d="M 1837.3 1026.2 1836.9 1066.1 1911.3 1066 1911.7 1145.6 1911.9 1194.2 1883.2 1194.6 1883.4 1212.1 1796.2 1211.5 1793.8 1181.2 1712.7 1181.6 1690.7 1142.9 1690.3 1101 1757.2 1101.2 1758.3 1025.3 1837.3 1026.2 Z" data-holc_grade="D"/>
<path d="M 864.5 310.7 865.6 405.8 819.7 406.2 819.5 363.1 722.9 361.6 722.2 310.3 626.9 307.1 626.5 260.2 780 263.8 779.3 207.2 870.2 206.2 913.4 165.4 1009 164.1 1012.8 307.7 908.2 309.7 864.5 310.7 Z" data-holc_grade="D"/>
<path d="M 1141.9 2268.6 1141.3 2174.9 982 2174.7 981.7 2083 1057.1 2082.9 1454.7 2078.8 1454.8 2067.7 1564.3 2066.5 1564.9 2041.8 1738.9 2045.2 1738.6 2087.3 1881.8 2086.2 1884.1 2030.8 1910.9 2030.6 1911.8 2163.4 1679.5 2164.3 1680 2231.2 1568.9 2230.5 1568.7 2173.4 1478 2174 1481.5 2392 1324.5 2392 1322.6 2310.1 1321.8 2242.6 1208.2 2244 1207.6 2268.4 1141.9 2268.6 Z" data-holc_grade="D"/>
<path d="M 1917.1 1654.1 1967.2 1652.4 1967 1641.6 1993.2 1640.1 1994.2 1607.4 2056.2 1607.4 2056.4 1683.5 2047.1 1683.9 2043.8 1686 2044.4 1713.1 1980.6 1713.3 1980.5 1694.9 1939 1694.5 1917.1 1654.1 Z" data-holc_grade="D"/>
<path d="M 2131.4 1892.6 2087.5 1892.9 2086.4 1812.6 2113.1 1811.8 2113.4 1795.8 2130.3 1795 2131.4 1892.6 Z M 2056.3 1893.1 2044.5 1893.3 2044.5 1940.4 1998.2 1940.4 1998 1955.6 1911 1956.4 1910.9 2030.6 1884.1 2030.8 1881.8 2086.2 1738.6 2087.3 1738.9 2045.2 1564.9 2041.8 1564.3 2066.5 1454.8 2067.7 1455.9 2008.5 1483.8 2008.3 1485.9 1943.9 1522.5 1943.2 1522.3 1961.3 1552.9 1961.7 1552.9 1995.2 1597.4 1996.3 1599.7 1928.3 1683 1928.7 1760.2 1870 1840.1 1870 1840.8 1810.1 2010.2 1810.3 2010.4 1773.1 2054.2 1773.3 2056.3 1893.1 Z" data-holc_grade="D"/>
<path d="M 2144.1 1 2228.7 1.2 2228.7 48.1 2399.5 48.2 2445.4 111.9 2443.4 120.2 2393.7 157.6 2146.5 160.6 2146.7 70.5 2144.1 1 Z" data-holc_grade="D"/>
<path d="M 2064.5 827.5 2064.2 682.6 2148.6 682.4 2192.7 677 2186.6 325.9 2260.4 324.6 2263.5 729.5 2226 730.5 2222.7 870.7 2066.7 871.6 2064.5 827.5 Z" data-holc_grade="D"/>
</g>
</svg>