<?xml version="1.0"?>
<svg xmlns="http://www.w3.org/2000/svg" version="1.2" baseProfile="tiny" width="3000" height="5274" viewBox="0 0 3000 5274" stroke-linecap="round" stroke-linejoin="round">
<g id="A">
<path d="M 2155.7 1242.7 2186.5 1243.3 2186.5 1394 2029.7 1397 2031 1370.1 2017.4 1350.5 2007 1327.9 2002.7 1311.3 2002.6 1241.6 2155.7 1242.7 Z" data-holc_grade="A"/>
<path d="M 2275.4 1213.9 2276.2 1252.5 2211.7 1253.7 2211 1052.9 2222.1 1052.9 2271.9 1053.5 2275.4 1213.9 Z" data-holc_grade="A"/>
<path d="M 2317.9 895.6 2222.1 1052.9 2211 1052.9 2185.2 1052.9 2173.5 1043.1 2156.9 1043.1 2090.5 1043.2 2093 916.4 2195 918.2 2204.8 850.9 2253.4 850.3 2317.9 895.6 Z" data-holc_grade="A"/>
</g>
<g id="B">
<path d="M 1806 861.3 1722.9 863 1684.7 863.8 1658.2 775.7 1620 795.6 1619.6 761 1634.9 746.3 1645.3 728.5 1652.1 715.7 1653.9 605.5 1689.6 606.7 1693.3 595.7 1794 533.9 1791 481.8 1807.6 460.4 1857.1 499.7 1964.9 585.3 1986.4 607.3 1995.6 623.8 2000.6 647.1 2004.9 857.1 1806 861.3 Z" data-holc_grade="B"/>
<path d="M 1857.1 499.7 1807.6 460.4 1870 375.3 2005.9 266.9 2006.5 291.4 2216.6 204.5 2217.2 169 2323.9 122.4 2379.2 85.7 2448 39.8 2520.5 38.5 2520.6 205.6 2615.8 206.2 2619.6 421.1 2534.1 422.3 2536 508.6 2408.2 511.1 2399.6 559.5 2287.7 559.5 2286.5 408.3 2341.8 406.4 2394 226.5 2390.9 167.1 2328.2 201.4 2006.8 334.3 1923.3 407.7 1857.1 499.7 Z" data-holc_grade="B"/>
<path d="M 2211.7 1253.7 2276.2 1252.5 2275.4 1213.9 2282.3 1213.9 2402.2 1214.5 2404.7 1288.6 2271.3 1288 2271.9 1393.9 2212.9 1392.7 2211.7 1253.7 Z M 2185.2 1052.9 2186.5 1243.3 2155.7 1242.7 2156.9 1043.1 2173.5 1043.1 2185.2 1052.9 Z" data-holc_grade="B"/>
<path d="M 2043.1 1862.4 2047.2 1757.3 2109.7 1756.2 2107.6 1722.6 2151.7 1722.6 2152.7 1538.9 2113.7 1539.9 2113.7 1467.4 2038.9 1466.4 2038.9 1440.9 2239.2 1438.8 2238.2 1616.4 2195.2 1617.4 2193.2 1856.2 2043.1 1862.4 Z" data-holc_grade="B"/>
<path d="M 2193.2 1856.2 2195.2 1617.4 2238.2 1616.4 2401.1 1610.3 2401.1 1646 2485.1 1647 2487.3 2055.2 2192.2 2058.3 2193.2 1856.2 Z" data-holc_grade="B"/>
<path d="M 2406.7 2504.4 2300.9 2506.1 2300.3 2450.2 2695.2 2446.4 2696.1 2478.2 2756.7 2479 2757.6 2524.7 2697.7 2524.8 2697.7 2552.5 2607.5 2552.6 2605.1 2503.6 2406.7 2504.4 Z" data-holc_grade="B"/>
<path d="M 1987.9 1045 1987.3 1241.5 1889.6 1244 1887.7 1044.4 1987.9 1045 Z" data-holc_grade="B"/>
</g>
<g id="C">
<path d="M 1330.1 106.9 1327.5 124.4 1236.9 123.4 1236.3 1 1293.7 1 1301.9 8.1 1332.1 5.6 1343.9 13.2 1330.1 106.9 Z" data-holc_grade="C"/>
<path d="M 1802.3 1244.6 1726.5 1243.7 1724 1130.4 1722.9 863 1806 861.3 1802.3 1244.6 Z" data-holc_grade="C"/>
<path d="M 2204.8 850.9 2195 918.2 2093 916.4 2094.8 852.8 2204.8 850.9 Z M 2399.6 559.5 2343.1 850.9 2317.9 895.6 2253.4 850.3 2278.6 727.2 2317.3 725.4 2335.1 622.5 2289.6 623.8 2287.7 559.5 2399.6 559.5 Z" data-holc_grade="C"/>
<path d="M 2155.7 1242.7 2002.6 1241.6 1987.3 1241.5 1987.9 1045 2090.5 1043.2 2156.9 1043.1 2155.7 1242.7 Z" data-holc_grade="C"/>
<path d="M 2002.1 1396.6 2001 1438.9 2038.9 1440.9 2038.9 1466.4 2113.7 1467.4 2113.7 1539.9 2152.7 1538.9 2151.7 1722.6 2107.6 1722.6 2109.7 1756.2 2047.2 1757.3 2043.1 1862.4 1919.1 1859.3 1919.1 1798.1 1971.3 1799.1 1965.1 1396 2002.1 1396.6 Z" data-holc_grade="C"/>
<path d="M 2192.2 2058.3 2487.3 2055.2 2485.1 1647 2604 1646.9 2606.2 2054.1 2806 2052 2811.1 2138.8 2764 2135.7 2726.1 2132.7 2685.1 2128.6 2657.4 2122.5 2617.5 2119.5 2570.3 2127.6 2519.1 2139.9 2489.4 2148.1 2463.8 2152.2 2424.8 2154.2 2369.5 2132.8 2249.6 2093 2189.1 2079.8 2192.2 2058.3 Z" data-holc_grade="C"/>
<path d="M 2607.5 2552.6 2697.7 2552.5 2697.7 2524.8 2757.6 2524.7 2756.7 2479 2696.1 2478.2 2695.2 2446.4 2300.3 2450.2 2298.2 2402.3 2246 2404.3 2249 2245.1 2407.5 2244 2587.4 2245.5 2585.8 2340.2 2752.3 2339.4 2747.4 2403.9 2913 2402.2 2913.8 2367.9 2996.6 2367.9 2997.5 2607.9 2606.4 2609.7 2607.5 2552.6 Z" data-holc_grade="C"/>
<path d="M 1842.2 2877 1839.1 2761.6 1886.3 2759.6 1885.3 2663.6 2007.2 2662.6 2005.1 2451.3 2300.3 2450.2 2300.9 2506.1 2406.7 2504.4 2409.2 2663.7 2302.6 2662.9 2305.9 2769.8 2133.7 2769.9 2135.4 2907.1 2254.3 3077.7 2253.5 3090 2187 3088.4 2068.9 2920.2 2069.8 2872 1842.2 2877 Z" data-holc_grade="C"/>
</g>
<g id="D">
<path d="M 1091.8 968.8 954.7 1189.4 884.2 1302.8 882.7 1238 578.1 1236.9 574.1 1114.5 393.3 1114.9 374.8 1080.8 251.9 1007.3 252 799.6 378.2 800.2 380.2 1003.2 579 1006.3 578.9 799.2 782.2 812 782.3 414.6 982.8 416.2 980.2 170.8 1318.7 174.4 1327.5 124.4 1330.1 106.9 1376.1 106.1 1371 147.4 1377.2 151 1364.4 215.7 1408.9 216.3 1340.3 412.6 1219.9 770.7 1183.3 828.4 1115.7 930.4 1091.8 968.8 Z" data-holc_grade="D"/>
<path d="M 1254 3460 1205.8 3461 1158.7 3447.7 1124.8 3434.4 1104.3 3403.8 1091 3355.8 1090.2 3348.3 1080.8 3258.8 1079.8 2607.5 1112.6 2610.6 1109.6 2060.4 1433.4 2063.5 1436.4 2255.4 1392.3 2256.4 1393.3 2462.6 1657.7 2461.6 1721.3 2463.6 1727.4 2878 1660.9 2878 1665 3258.8 1799.3 3259.8 1801.3 3064.8 2005.3 3071 2006.4 3229.2 1955.1 3229.2 1955.1 3390.5 1802.4 3409.9 1805.5 3528.4 1647.6 3560 1647.6 3669.3 1403.6 3665.2 1405.7 3515.1 1534.9 3515.1 1534.9 3438.5 1495.9 3413 1495.9 3273.1 1396.5 3270.1 1396.5 3335.4 1260.2 3239.4 1254 3460 Z" data-holc_grade="D"/>
<path d="M 763.6 3245 763.7 3048 819 3051 825.2 2861.2 876.4 2866.3 874.5 2373.2 982.1 2379.4 985 3256.3 763.6 3245 Z" data-holc_grade="D"/>
<path d="M 1254 3460 1257.2 3668.7 925.1 3661.5 992.8 3544.1 1035.8 3491 1059.4 3447.1 1076.8 3409.4 1090.2 3348.3 1091 3355.8 1104.3 3403.8 1124.8 3434.4 1158.7 3447.7 1205.8 3461 1254 3460 Z" data-holc_grade="D"/>
<path d="M 909.7 3721.8 981.5 3765.7 872.8 3951.5 801 3906.6 909.7 3721.8 Z" data-holc_grade="D"/>
<path d="M 576.6 3666.6 782.6 3664.6 783.6 3735 712.9 3893.3 578.5 4072 576.6 3666.6 Z" data-holc_grade="D"/>
<path d="M 639 4066.9 839.9 4064.9 745.6 4346.7 746.5 4896.2 882.9 4897.2 877.8 4799.1 989.5 4803.3 987.5 4823.7 1197.7 4822.7 1198.7 4930.9 1098.2 4933 1080.8 4924.8 1067.5 4918.7 1043.9 4918.7 1011.1 4918.7 897.2 4919.7 902.3 5080 785.4 5076.9 784.4 5149.5 633.6 5144.3 629.6 5054.4 591.6 5055.5 542.3 5273 7 5264.7 1 4866.3 139.4 4870.5 390.8 4513.1 344.6 4482.4 639 4066.9 Z" data-holc_grade="D"/>
<path d="M 1619.6 761 1620 795.6 1570.2 854.4 1570.2 1130.1 1470.4 1129.9 1466.3 883 1302.3 885.3 1293.7 586.3 1414.1 592.4 1415.3 545.3 1502.6 549.6 1502.6 500.6 1616.3 503 1619.6 761 Z" data-holc_grade="D"/>
<path d="M 1570.2 1130.1 1724 1130.4 1726.5 1243.7 1802.3 1244.6 1847.9 1245.2 1847.4 1273.8 1609.7 1406.4 1545.7 1439.6 1394.3 1548.3 1216 1684.5 931 1685 930.4 1652.8 883.8 1652.3 884.1 1364 919 1299.8 1050.7 1300.8 1049.1 1218.1 988.7 1216.6 954.7 1189.4 1091.8 968.8 1181.8 972.8 1179 887 1302.3 885.3 1466.3 883 1470.4 1129.9 1570.2 1130.1 Z" data-holc_grade="D"/>
<path d="M 578.1 1236.9 882.7 1238 884.2 1302.8 884.1 1364 883.8 1652.3 707.3 1652.8 700.6 1647.7 665.3 1648.7 664.7 1782.4 597.1 1781.9 593.5 1732.9 590.5 1715.5 583.3 1698.7 558.2 1672.2 537.2 1650.7 492.1 1572.6 487.5 1535.4 471.7 1504.3 450.7 1473.1 416.9 1404.8 400.5 1401.2 392.8 1395.1 387.2 1384.8 375.4 1357.8 366.2 1349.6 324.2 1332.8 256.1 1293.5 259.2 1209.8 452.3 1209.4 471.7 1238.9 578.1 1236.9 Z" data-holc_grade="D"/>
<path d="M 2002.6 1241.6 2002.7 1311.3 2007 1327.9 2017.4 1350.5 2031 1370.1 2029.7 1397 2002.1 1396.6 1965.1 1396 1971.3 1799.1 1919.1 1798.1 1919.1 1859.3 2043.1 1862.4 2042.1 1917.5 1799.2 1917.5 1798.2 1867.5 1640.4 1868.6 1639.3 1550.1 1556.4 1549.1 1540 1509.3 1851.4 1333.8 1847.4 1273.8 1847.9 1245.2 1889.6 1244 1987.3 1241.5 2002.6 1241.6 Z" data-holc_grade="D"/>
<path d="M 1640.4 1868.6 1433.4 1869.6 1433.4 2063.5 1109.6 2060.4 1109.6 2004.3 1204.9 2004.3 1204.9 1827.7 1314.6 1827.7 1311.5 1683.8 1540 1509.3 1556.4 1549.1 1639.3 1550.1 1640.4 1868.6 Z" data-holc_grade="D"/>
<path d="M 2042.1 1917.5 2042 2058.3 2192.2 2058.3 2189.1 2079.8 2194.7 2152.2 1907.7 2150.2 1908.8 2244.1 1804.3 2243.1 1803.2 2349.3 1659.8 2350.3 1657.7 2461.6 1393.3 2462.6 1392.3 2256.4 1436.4 2255.4 1433.4 2063.5 1433.4 1869.6 1640.4 1868.6 1798.2 1867.5 1799.2 1917.5 2042.1 1917.5 Z" data-holc_grade="D"/>
<path d="M 2996.6 2367.9 2913.8 2367.9 2913 2402.2 2747.4 2403.9 2752.3 2339.4 2585.8 2340.2 2587.4 2245.5 2694 2243 2693.2 2283.9 2999 2282.1 2996.6 2367.9 Z" data-holc_grade="D"/>
<path d="M 1657.7 2461.6 1659.8 2350.3 1803.2 2349.3 1804.3 2243.1 1908.8 2244.1 1907.7 2150.2 2194.7 2152.2 2299.9 2148.1 2299.9 2200.2 2404.4 2204.2 2407.5 2244 2249 2245.1 2246 2404.3 2298.2 2402.3 2300.3 2450.2 2005.1 2451.3 2007.2 2662.6 1885.3 2663.6 1886.3 2759.6 1839.1 2761.6 1842.2 2877 1727.4 2878 1721.3 2463.6 1657.7 2461.6 Z" data-holc_grade="D"/>
</g>
</svg>