<?xml version="1.0"?>
<svg xmlns="http://www.w3.org/2000/svg" version="1.2" baseProfile="tiny" width="3000" height="2286" viewBox="0 0 3000 2286" stroke-linecap="round" stroke-linejoin="round">
<g id="A">
<path d="M 725.6 83.2 725.6 119.9 572.3 120.3 571.9 84.8 725.6 83.2 Z" data-holc_grade="A"/>
<path d="M 851.6 1527.3 850.6 1528.7 848.2 1539.7 842.2 1548.7 833.8 1546 826.1 1538 826.1 1528 820.4 1528 809 1562.4 807 1580.1 798.9 1601.8 798.3 1615.1 730.6 1616.4 732.2 1523.7 808 1528 806.4 1396.4 838.2 1396.8 850 1416.8 857.3 1430.5 861 1447.2 861 1461.2 859.3 1473.6 852.9 1488.6 848.6 1500.3 848.6 1516.7 851.6 1527.3 Z M 273.2 861.9 272.5 862 270.8 1012.7 575.9 1012.3 576.9 1033 578.5 1033 578.4 1125.1 728.1 1123.1 729.6 1217 575.1 1218.6 574.3 1372.2 500.2 1373.5 499.8 1483 576.2 1483.4 576.5 1526.2 577.6 1526.1 575 1618.8 535.5 1619.2 535.5 1599.8 367.8 1598.1 367.7 1525 268.3 1522.2 268.9 1499.8 146.3 1497.4 146.3 1498.7 146.3 1498.8 113.4 1497.6 116.6 1483.3 114 1473.3 110.8 1452.8 111.1 1440.6 112.4 1426 116 1409 119.6 1397.2 124 1378.5 121.3 1365.8 118 1344.4 112.7 1306.7 108.7 1281 104.7 1258.9 98.7 1243.9 97.4 1236.3 96.3 1229.2 100.4 1219.5 106.4 1207.8 125 1162.4 130.1 1137.5 130.8 1121.9 130.4 1102.8 129.6 1091 126 1082.4 128.9 1071.9 124.8 1067.4 129.3 1060.4 138.8 1054.1 149.4 1048.8 165.5 1043.7 176.9 1032.3 172.9 1027 162.9 1028 142.8 1028.9 129.7 1033.6 117.7 1033.9 109.6 1029.2 109.6 1019.6 111 1005.9 105.6 990.8 101 969.1 97.3 952.1 94 933.4 91.5 908.5 83.6 886.4 70 866.9 51.8 849.8 47 843.4 23 813.2 1 804.3 44 730.3 44.4 730.5 71.3 769.2 183.9 771 192 777.7 192.9 807 195.9 812.7 207 819.1 221.4 823.1 231.8 823.1 235.4 826.4 236.4 841.4 273.3 841.5 273.2 861.9 Z" data-holc_grade="A"/>
<path d="M 1267.6 1137.1 1184.5 1191.2 1180.4 1184.2 1173.7 1172.9 1164.6 1165.9 1152.9 1159.2 1186.8 1160.2 1186.5 1104.7 1186.4 1091.7 1203.3 1091.1 1231.3 1090.1 1267.6 1137.1 Z" data-holc_grade="A"/>
<path d="M 1046.4 311.4 1046 311.8 1044.7 322.8 1037.7 328.5 1036.4 333.4 1035.5 336.7 1033.3 335 1023.5 342.2 1011.3 349.7 993.3 352.5 986.6 358.9 981.3 358.6 979.6 348.4 975.1 341.1 965.6 333.9 956.2 331.1 955.7 330.9 953.6 329.9 946.4 336.5 939.3 343 909.9 322.3 898 313.3 896.3 287.5 893.3 286.7 893.7 280.7 910.6 276.4 920.3 260.6 929.3 281.1 929.9 292.4 933.1 304.8 941.2 312.7 951.9 314.2 958.8 316.8 970.8 327.3 984.1 337.5 992 342.2 1004.2 338.6 1014.9 332 1029.7 324.3 1037.6 315.5 1039.4 310.2 1036.8 302.1 1034 299.7 1028.2 300.2 1021.4 300.4 1015.8 299.9 1013.9 298.7 1011.5 297.2 1010 294.4 1008.5 290.8 1004.5 282.5 1000.4 270.1 994.8 259 991.5 248.5 989.2 232.5 983 220.6 976.6 213.8 971 204.5 969.9 191.9 961.4 182.2 951.7 179.7 951.8 156.2 942 147 941 123.7 1006.9 125 1028.6 149.6 1028.3 220.6 1045.3 228.3 1046.2 310 1046.4 311.4 Z" data-holc_grade="A"/>
<path d="M 2086.9 312.9 2081.7 312.9 2080.7 312.9 2080.7 312.3 2080.6 300 2079.8 198.3 1966 197.8 1966.8 122.9 1966.8 122.5 2005 122.9 2005.1 138.3 2082 138.9 2082.1 157.7 2157 158.9 2157.2 233.4 2181.4 234.2 2182.8 270.2 2235.2 271.2 2235.2 234.1 2276.1 234.2 2277.4 250.5 2282.7 250.3 2292.6 266.9 2311 269 2326 290.4 2328.2 309.4 2327.7 314.2 2094.7 313 2086.9 312.9 Z" data-holc_grade="A"/>
<path d="M 1468 1527.4 1467.4 1527.1 1427.3 1526.2 1439 1505.2 1440.9 1498.5 1438.7 1491.8 1434.2 1479 1430.3 1467.5 1430.2 1459.3 1435 1452.3 1440.9 1448.2 1448.9 1445.1 1451.7 1439.4 1452.2 1417.3 1450.9 1406.6 1452.6 1396.1 1458.1 1385.1 1466.6 1377.4 1478 1372.3 1487.4 1367.6 1495.1 1354.9 1498.7 1339.3 1498.4 1331.1 1504.5 1320.8 1513 1311 1524.8 1301.2 1540.9 1288.4 1546.5 1285.8 1544.8 1315.5 1524.1 1316.4 1523.7 1356.4 1504.6 1357.9 1503.5 1379.3 1485.5 1380.5 1487.8 1527 1468 1527.1 1468 1527.4 Z" data-holc_grade="A"/>
</g>
<g id="B">
<path d="M 268.8 311.3 178.8 266.7 183.3 294.8 143.4 294.8 118 316.1 115.6 318.1 114.7 318.9 42.8 288.9 42.3 288.7 37.6 96.1 97.2 95.1 97.9 57.8 192.8 51.9 194.8 91.8 271.7 89.8 275.1 312.2 275.1 312.3 275.2 313.9 274.7 313.7 268.8 311.3 Z" data-holc_grade="B"/>
<path d="M 1816.6 1312.8 1816.6 1313.8 1728.1 1314.5 1727.2 1367.6 1656.5 1367.6 1657.1 1450.9 1705.2 1450.8 1706.5 1527.3 1859.4 1527.9 1859.3 1600 1859.2 1679 1747.9 1678.2 1746.8 1645 1702.6 1644.4 1701.8 1602.7 1641.9 1603.2 1585.3 1602.2 1554.5 1593.1 1498.2 1653.4 1469.5 1653.2 1468 1527.4 1468 1527.1 1487.8 1527 1485.5 1380.5 1503.5 1379.3 1504.6 1357.9 1523.7 1356.4 1524.1 1316.4 1544.8 1315.5 1546.5 1285.8 1546.6 1284.4 1568.8 1268.5 1590.3 1255.5 1601.5 1249.5 1609.6 1247.3 1616.3 1250.3 1621.1 1250.2 1624.4 1247.6 1622 1244 1615 1235.3 1613.9 1232.7 1621.4 1222.6 1621.5 1222.5 1631.9 1223.5 1638.6 1221.6 1648 1212 1668.4 1224.6 1689.8 1225 1690.6 1217.1 1707 1207.8 1719.6 1198.5 1734.7 1194.6 1748.8 1191.6 1761.4 1190.5 1772.4 1194.9 1780.9 1186.5 1797.3 1201.6 1801.6 1221.5 1802.5 1227.7 1803.1 1237.7 1802.2 1244.4 1801.6 1259 1816.7 1259.1 1805.8 1276.7 1819.4 1277.2 1818.6 1280.7 1818.1 1288 1816.6 1312.8 Z" data-holc_grade="B"/>
<path d="M 2356.6 2168.7 2319.5 2168.8 2318.9 2054.8 2428.7 2053.7 2422.3 2066.3 2494.6 2066.2 2510.9 2088.9 2509 2132.9 2507.7 2133.6 2505.8 2285.4 2357.3 2284.8 2356.6 2168.7 Z" data-holc_grade="B"/>
<path d="M 146.3 1498.8 146.3 1498.7 146.3 1497.4 268.9 1499.8 268.3 1522.2 268.3 1522.5 267.2 1561.3 147.2 1559.2 146.3 1498.8 Z" data-holc_grade="B"/>
<path d="M 1057.1 382.2 1046.7 367.5 1041.7 354.5 1035.3 337.5 1035.5 336.7 1036.4 333.4 1037.7 328.5 1044.7 322.8 1046 311.8 1046.4 311.4 1062.8 292.4 1062.8 292.5 1074.8 295.8 1081.2 305.8 1083.9 368.9 1070.8 372.2 1057.1 382.2 Z M 955.7 330.9 955.7 331.6 956.6 367 885.7 366.9 885.6 365.3 885.1 359 884.3 302.2 879.3 300.7 873.5 295.6 870.5 291.3 871.4 287.5 872.3 284.7 878.5 284.7 888.3 285.4 893.3 286.7 896.3 287.5 898 313.3 909.9 322.3 939.3 343 946.4 336.5 953.6 329.9 955.7 330.9 Z M 725.6 83.2 725.6 78.7 779 79.8 778.4 154.9 725.6 155.4 725.5 354 575.3 357 574.9 292.9 570.8 120.3 572.3 120.3 725.6 119.9 725.6 83.2 Z" data-holc_grade="B"/>
<path d="M 877.7 743.2 877.5 765.4 577.3 766.5 503.3 766.7 503.3 765.4 500.8 688 421.3 689.5 422.9 614.3 424.5 534.6 878 532.9 879.7 532.9 879.7 535 877.7 743.2 Z" data-holc_grade="B"/>
<path d="M 579.4 911.5 579.7 948.3 579.9 969.6 692.8 970 695.3 1028.7 695.4 1032.4 688.2 1032.5 578.5 1033 576.9 1033 575.9 1012.3 270.8 1012.7 272.5 862 273.2 861.9 273.2 863.8 285.6 864.3 299 864.9 299 872.6 462.4 873.4 463.8 911.8 579.4 911.5 Z" data-holc_grade="B"/>
<path d="M 730.8 1055.3 792 1057.1 788 1050.2 788.5 1050.2 791.2 1050.2 802.2 1050.2 803.8 1050.2 803.8 1052.6 804 1088.5 804.1 1103.7 805.5 1313.2 879 1313.2 879 1315.6 879 1321.3 879.3 1461.9 879.3 1467 879.4 1527.4 873.5 1527.4 851.6 1527.3 848.6 1516.7 848.6 1500.3 852.9 1488.6 859.3 1473.6 861 1461.2 861 1447.2 857.3 1430.5 850 1416.8 838.2 1396.8 806.4 1396.4 808 1528 732.2 1523.7 729.4 1523.5 729.4 1524.3 595.4 1525.8 595.4 1525.6 577.6 1526.1 576.5 1526.2 576.2 1483.4 499.8 1483 500.2 1373.5 574.3 1372.2 575.1 1218.6 729.6 1217 728.1 1123.1 578.4 1125.1 578.5 1033 688.2 1032.5 695.4 1032.4 695.3 1028.7 728.7 1028.7 730.8 1055.3 Z" data-holc_grade="B"/>
<path d="M 803.8 1050.2 881.6 1049.6 881 914.6 1033.8 914.1 1033.8 1040.9 1182.5 1041.5 1194.4 1041.6 1337.3 1042.2 1337.4 1044.4 1338.5 1065.3 1372.9 1065.4 1374 1065.4 1268.2 1137.8 1267.6 1137.1 1231.3 1090.1 1203.3 1091.1 1186.4 1091.7 1186.5 1104.7 1186.8 1160.2 1152.9 1159.2 1164.6 1165.9 1173.7 1172.9 1180.4 1184.2 1184.5 1191.2 1185.1 1192.2 1152.2 1216.7 1252.5 1217 1254 1249 1102 1249.8 1096.5 1251.2 1097.3 1250.6 1077.5 1248.6 1037.7 1255.3 1030.1 1257 992.4 1265.6 953.6 1273.9 924.4 1273.6 889.2 1264.2 858.1 1249.2 838.7 1224.8 825.3 1193.8 818.3 1159.7 807.9 1121 805.9 1112 804.1 1103.7 804 1088.5 803.8 1052.6 803.8 1050.2 Z" data-holc_grade="B"/>
<path d="M 836.7 1682 859.2 1562.5 873.5 1527.4 879.4 1527.4 879.3 1467 914.3 1466.5 913.3 1395 957.8 1395.6 957.8 1374.2 998 1374.5 998.7 1335.1 1034.6 1335.2 1034.9 1325.9 1035 1323.6 1045.5 1323.6 1051.5 1323.6 1051.5 1294.4 1056.5 1294.3 1249.9 1290.8 838.5 1680.2 836.7 1682 Z" data-holc_grade="B"/>
<path d="M 2157.8 517.7 2094.6 517.6 2080.8 517.6 2081.7 312.9 2086.9 312.9 2094.7 313 2327.7 314.2 2343.2 314.3 2353.3 363.2 2353.5 407.1 2315.4 407.2 2315 463.8 2294.9 464.2 2295.1 482.6 2236.6 484.7 2236.6 482 2157.3 480.5 2157.8 517.7 Z M 1966.8 122.9 1966 197.8 2079.8 198.3 2080.6 300 2080.7 312.3 2080.7 312.9 2079.1 313.7 1965.6 312.1 1966.2 252.7 1928.7 251.1 1928.8 230.9 1929.3 122.1 1966.8 122.9 Z M 2330.3 2.2 2329.6 126 2319.9 118.7 2308.3 111 2300.4 102.5 2292.3 92.3 2284.3 82 2281.1 69.9 2284.3 56.2 2289.5 43.2 2292.9 32.7 2294.8 21.2 2288.4 10.9 2285.8 2.4 2330.3 2.2 Z" data-holc_grade="B"/>
<path d="M 2651.8 317 2651.1 307.7 2689 307.3 2691.4 1 2922.3 1.2 2922.3 160.9 2770.5 160.8 2770 317.5 2715.8 317.4 2651.8 317 Z" data-holc_grade="B"/>
</g>
<g id="C">
<path d="M 879.4 518 883.9 518.8 880.2 532.9 879.7 532.9 878 532.9 424.5 534.6 422.9 614.3 351.2 613.3 348.7 489.2 693.5 487.4 879.4 518 Z M 260.4 354.2 115.6 318.1 118 316.1 143.4 294.8 183.3 294.8 178.8 266.7 268.8 311.3 274.7 313.7 261.6 354.5 260.4 354.2 Z" data-holc_grade="C"/>
<path d="M 503.3 765.4 503.3 766.7 577.3 766.5 579.2 836.7 673.5 845.8 673 911.2 579.4 911.5 463.8 911.8 462.4 873.4 299 872.6 299 864.9 285.6 864.3 273.2 863.8 273.2 861.9 273.3 841.5 236.4 841.4 235.4 826.4 231.8 823.1 221.4 823.1 207 819.1 195.9 812.7 192.9 807 192 777.7 183.9 771 71.3 769.2 44.4 730.5 44 730.3 28.5 721.3 27.5 689.3 45.9 686.1 62.4 685.3 96.5 692.2 114.5 699.6 177.7 725.6 349 802.6 347.6 715.9 436.9 762 447.4 766.2 498.6 765.7 503.3 765.4 Z" data-holc_grade="C"/>
<path d="M 1141.4 239.6 1142.2 355.1 1229 310.7 1230.2 309.8 1334.4 309.9 1333.9 293 1623.8 291.5 1624.4 310.5 1623.4 310.5 1620.2 577.8 1549.2 578.5 1548.7 563.3 1481.1 562.9 1481.1 463.3 1426.4 463.3 1425.5 523.8 1336.7 523.8 1336.7 561 1338.7 561.7 1338.3 611.4 1336.2 611.4 1336.7 743.6 1338.2 743.6 1338.2 745 877.7 743.2 879.7 535 879.7 532.9 880.2 532.9 883.9 518.8 879.4 518 879.4 517.5 877.6 367.1 885.6 365.3 885.7 366.9 956.6 367 955.7 331.6 955.7 330.9 956.2 331.1 965.6 333.9 975.1 341.1 979.6 348.4 981.3 358.6 986.6 358.9 993.3 352.5 1011.3 349.7 1023.5 342.2 1033.3 335 1035.5 336.7 1035.3 337.5 1041.7 354.5 1046.7 367.5 1057.1 382.2 1070.8 372.2 1083.9 368.9 1081.2 305.8 1074.8 295.8 1062.8 292.5 1073.8 278.8 1091.3 267.1 1101 258.8 1114.7 248.4 1134.4 237.4 1141.4 239.6 Z M 1184.3 441 1183.9 608.8 1297.6 610.4 1297.4 519.1 1261.6 498 1262.3 478.3 1222.1 477.3 1222.1 440.6 1184.3 441 Z" data-holc_grade="C"/>
<path d="M 2080.7 312.9 2081.7 312.9 2080.8 517.6 1927.1 517.6 1927 462.5 1778.1 461.2 1776.8 316.6 1777 312.2 1775.5 262 1622.3 262 1624.9 32.8 1799.2 31.6 1817 49.6 1794.9 83.3 1787 102.5 1778.2 127.7 1778.2 261.2 1849.4 260.4 1849.5 229.4 1928.4 230.6 1928.8 230.9 1928.7 251.1 1966.2 252.7 1965.6 312.1 2079.1 313.7 2080.7 312.9 Z" data-holc_grade="C"/>
<path d="M 1917.3 739.8 1918.1 731.5 1915.4 716.9 1917.8 702.2 1918 684.3 1922.8 670.9 1931.6 660.9 1941 658.3 1952.6 658.5 1962.4 653.2 1971.2 647 1981 635.8 1984.7 627.5 1985.1 619 1984.5 614.1 2079.4 612.5 2079.6 576 2178.2 575.7 2233.2 536.6 2237.1 536.4 2237.1 535.6 2396.5 537.8 2397.5 479.3 2421.9 467.5 2466.1 451 2514.3 437.6 2551.8 434.9 2573.6 436.5 2600.4 435.8 2635.8 430.1 2665 416.7 2685.7 403.4 2707.1 385.3 2726.2 370.6 2749.3 354.3 2770.4 346.1 2770.1 462.3 2904.1 463.5 2903.9 483.6 2946.1 483.7 2939.1 507 2929 527.9 2913.4 551.3 2897 565.8 2884.8 573.7 2884.5 615.4 2691.3 614.5 2691.9 654.1 2415.7 652.5 2415.5 842.2 2333.5 842.5 2335.8 847.5 2348.6 857.8 2354.9 866.2 2358.6 882.2 2357.3 899.2 2342.6 910.2 2305.3 931.7 2293.3 945 2191.6 943.4 2174.1 928.7 2150.4 952.4 2085.7 924.7 2014.3 839.7 2032.8 826 2019 820.6 2001.6 803.3 1977.5 771.3 1966.8 759.9 1947.3 755.6 1930.6 731.6 1917.3 739.8 Z" data-holc_grade="C"/>
<path d="M 896.7 784.6 896.9 898.6 1196.1 894.4 1285.3 894.4 1336.9 892.5 1336.9 954.2 1479.9 954.3 1480.1 954.5 1494.6 967.6 1494.1 968.1 1459.1 1008 1449 1003.3 1436.7 1017.7 1414.2 1030.1 1383.6 1047.1 1388.1 1056.7 1374.5 1064.5 1374 1065.4 1372.9 1065.4 1338.5 1065.3 1337.4 1044.4 1337.3 1042.2 1194.4 1041.6 1182.5 1041.5 1033.8 1040.9 1033.8 914.1 881 914.6 881.6 1049.6 802.2 1050.2 791.2 1050.2 788.5 1050.2 788 1050.2 785.5 1046.5 775.1 1027.8 759.4 1006.4 737 983.1 728.6 976 729.6 949.3 726.3 949.3 727.7 909.8 876.9 908.3 877.4 856.1 840.1 857.6 838.9 807.2 879.8 807.2 880.1 782.2 896.7 783.7 896.7 784.6 Z" data-holc_grade="C"/>
<path d="M 1035 1323.6 1034.9 1325.9 1034.6 1335.2 998.7 1335.1 998 1374.5 957.8 1374.2 957.8 1395.6 913.3 1395 914.3 1466.5 879.3 1467 879.3 1461.9 879 1321.3 879 1315.6 1035.3 1312.6 1035 1323.6 Z" data-holc_grade="C"/>
<path d="M 2037.8 1369.3 2104 1427.4 2123.5 1459.9 2133.6 1473.5 1976.1 1473 1976.8 1600.9 1859.3 1600 1859.4 1527.9 1706.5 1527.3 1705.2 1450.8 1657.1 1450.9 1656.5 1367.6 1727.2 1367.6 1728.1 1314.5 1816.6 1313.8 1816.6 1312.8 1922 1315.5 1962.8 1336.1 2037.7 1370.9 2037.8 1369.3 Z" data-holc_grade="C"/>
</g>
<g id="D">
<path d="M 115.6 318.1 260.4 354.2 254.3 375 164.4 363.4 113 350.1 43.8 317.3 42.8 288.9 114.7 318.9 115.6 318.1 Z" data-holc_grade="D"/>
<path d="M 2999 1378.8 2997.8 1828.5 2841 1828.7 2841.2 1656 2840.9 1376.9 2999 1378.8 Z" data-holc_grade="D"/>
<path d="M 1230.2 309.8 1229 310.7 1142.2 355.1 1141.4 239.6 1141.3 239.1 1260 238.5 1280.4 222.5 1308.2 195.1 1320.6 174.4 1340.3 158.4 1352.8 135.3 1356.7 122.1 1429.3 123.4 1430.3 154.4 1437.7 174.4 1451.4 201.8 1465.1 217.8 1430 217.8 1378.1 226.8 1332.9 236.1 1303.8 253.1 1279.4 270.2 1266.2 284.4 1230.2 309.8 Z" data-holc_grade="D"/>
<path d="M 1776.8 316.6 1778.1 461.2 1927 462.5 1927.1 517.6 2080.8 517.6 2094.6 517.6 2157.8 517.7 2157.3 480.5 2236.6 482 2236.6 484.7 2237.1 535.6 2237.1 536.4 2233.2 536.6 2178.2 575.7 2079.6 576 2079.4 612.5 1984.5 614.1 1985.1 619 1984.7 627.5 1981 635.8 1971.2 647 1962.4 653.2 1952.6 658.5 1941 658.3 1931.6 660.9 1922.8 670.9 1918 684.3 1917.8 702.2 1915.4 716.9 1918.1 731.5 1917.3 739.8 1917 743.1 1902.8 746.5 1873.3 749.4 1870.5 741.9 1846.1 714.7 1836.4 705.7 1822.2 692 1810.7 677.7 1802.7 661.3 1797.7 645.4 1788.5 633.8 1788.4 658 1787.9 685.8 1777.2 695.5 1773.2 689.3 1760.1 680.1 1747.7 672.9 1736.1 669 1722.2 665.2 1720.9 634.4 1702.7 634.4 1702.3 699.8 1699 704.7 1697.8 746.4 1708.5 761.8 1705.1 764.3 1700 762.8 1693.5 766.1 1692 770.5 1709.1 795.3 1601.8 868.8 1596.4 862.8 1537.9 909.8 1520.3 888.6 1459.7 932.4 1480 953.1 1480.1 954.5 1479.9 954.3 1336.9 954.2 1336.9 892.5 1334.8 892.5 1337.1 782.4 1483.5 780.3 1484.1 820.1 1531.9 819.6 1563.4 798.9 1561 744.3 1338.2 743.6 1336.7 743.6 1336.2 611.4 1338.3 611.4 1375.5 611.2 1441.9 667.8 1482 668 1482.8 611.8 1338.7 561.7 1336.7 561 1336.7 523.8 1425.5 523.8 1426.4 463.3 1481.1 463.3 1481.1 562.9 1548.7 563.3 1549.2 578.5 1620.2 577.8 1623.4 310.5 1624.4 310.5 1776.7 309.8 1776.8 316.6 Z" data-holc_grade="D"/>
<path d="M 1336.9 892.5 1285.3 894.4 1196.1 894.4 896.9 898.6 896.7 784.6 1337.1 781.1 1337.1 782.4 1334.8 892.5 1336.9 892.5 Z" data-holc_grade="D"/>
<path d="M 1096.5 1251.2 1038.4 1293 1037.9 1293.4 1038.5 1293.4 1051.5 1293.6 1051.5 1294.4 1051.5 1323.6 1045.5 1323.6 1035 1323.6 1035.3 1312.6 879 1315.6 879 1313.2 805.5 1313.2 804.1 1103.7 805.9 1112 807.9 1121 818.3 1159.7 825.3 1193.8 838.7 1224.8 858.1 1249.2 889.2 1264.2 924.4 1273.6 953.6 1273.9 992.4 1265.6 1030.1 1257 1037.7 1255.3 1077.5 1248.6 1097.3 1250.6 1096.5 1251.2 Z M 728.6 976 737 983.1 759.4 1006.4 775.1 1027.8 785.5 1046.5 788 1050.2 792 1057.1 730.8 1055.3 728.7 1028.7 695.3 1028.7 692.8 970 579.9 969.6 579.7 948.3 726.3 949.3 729.6 949.3 728.6 976 Z" data-holc_grade="D"/>
<path d="M 1374 1065.4 1374.5 1064.5 1409.9 1065.1 1411.2 1088.8 1437.3 1089.8 1437 1165.5 1426.3 1169.9 1399.1 1196.3 1379.7 1217.3 1352.2 1254.4 1335.1 1282.7 1314.4 1313.1 1300.6 1336.8 1295.3 1352.9 1294.9 1379.6 1298.3 1393.3 1274.8 1413 1262.4 1425.3 1239.3 1453.4 1212.8 1467 1188.3 1478.1 1169.6 1491.7 1147.5 1510.1 1126.7 1531.1 1119.3 1551.8 1110.6 1565.2 1103.2 1570.2 1096.8 1594.9 1088.8 1614.9 1071.4 1642 1055.6 1660.4 1033.1 1687.1 1025.1 1702.8 1012.7 1716.8 994.6 1728.8 969.8 1747.5 958 1762.2 949.3 1784.6 947.3 1806.6 939.2 1836.3 928.8 1862.4 904 1886.8 889.6 1900.8 879.5 1910.5 871.4 1924.1 862 1945 847.8 1968.5 828 1982.6 805.3 1986.7 760.8 1991.6 716.9 1993.5 665 2002.5 641.8 2008.5 618.4 2009.2 593.2 2011.5 579.1 2009.5 556.7 2016.1 529.2 2020.8 498.3 2032.8 469.8 2045.5 450 2053.1 432.9 2052.8 418.9 2047.4 404.5 2043.4 381.7 2039.7 367.3 2035 346.1 2028.7 327.4 2021.6 300.6 2011.6 283.8 1998.2 267.1 1982.8 252.3 1962.8 241 1936.7 236.6 1921 224.3 1897.2 219.3 1869.5 216.3 1852.1 205.6 1833.4 193.8 1817.4 181.1 1803 162 1780.9 147 1760.9 131.9 1734.1 119.9 1716.1 101.8 1688.4 95.8 1674 88.8 1654.6 86.1 1643.6 84.8 1625.5 84.8 1600.8 81.9 1564.1 101 1563.8 100.9 1582.1 98.6 1597.2 99.9 1605.9 106.6 1623.2 110.6 1634.3 112.9 1649.6 117.3 1662.7 127 1684 137 1703.4 150 1724.8 158.1 1740.9 171.8 1740.5 176.8 1736.2 183.2 1723.8 187.9 1711.5 205 1712.2 260.6 1711.6 267 1717.3 264.1 1895.6 416 1898.8 417.7 1820.6 638.9 1819.8 789.8 1725 836.7 1682 838.5 1680.2 1249.9 1290.8 1056.5 1294.3 1051.5 1294.4 1051.5 1293.6 1038.5 1293.4 1037.9 1293.4 1038.4 1293 1096.5 1251.2 1102 1249.8 1254 1249 1252.5 1217 1152.2 1216.7 1185.1 1192.2 1184.5 1191.2 1267.6 1137.1 1268.2 1137.8 1374 1065.4 Z" data-holc_grade="D"/>
<path d="M 1437 1165.5 1437.3 1089.8 1411.2 1088.8 1409.9 1065.1 1374.5 1064.5 1388.1 1056.7 1383.6 1047.1 1414.2 1030.1 1436.7 1017.7 1449 1003.3 1459.1 1008 1494.1 968.1 1535 998.7 1514.6 1019.6 1590.6 1095.4 1552.9 1141.5 1536.5 1168.2 1511 1202 1502 1215.3 1494.6 1231.7 1437 1167.9 1437 1165.5 Z" data-holc_grade="D"/>
<path d="M 2037.8 1369.3 2037.7 1370.9 1962.8 1336.1 1922 1315.5 1816.6 1312.8 1818.1 1288 1818.6 1280.7 1819.4 1277.2 1805.8 1276.7 1816.7 1259.1 1801.6 1259 1802.2 1244.4 1803.1 1237.7 1802.5 1227.7 1801.6 1221.5 1797.3 1201.6 1780.9 1186.5 1772.4 1194.9 1761.4 1190.5 1748.8 1191.6 1734.7 1194.6 1719.6 1198.5 1707 1207.8 1690.6 1217.1 1689.8 1225 1668.4 1224.6 1648 1212 1638.6 1221.6 1631.9 1223.5 1621.5 1222.5 1621.4 1222.6 1612.1 1214.4 1666.7 1146.7 1719 1114.5 1775.3 1079.7 1866.4 1026 1873.8 1039.2 1969.2 988.3 2010.2 1069.5 1954.6 1099.2 1987.1 1153.4 1986.2 1227.4 1961.1 1226.9 1958.6 1231.7 1925.7 1208.2 1858.9 1208.2 1859.7 1236 2054.2 1321.4 2038.9 1351 2037.8 1369.3 Z" data-holc_grade="D"/>
<path d="M 2329.7 1016.7 2324.4 1023.4 2319 1037.5 2315.2 1053.7 2315.6 1069.5 2321.7 1095.1 2332.6 1124.2 2351.5 1176.5 2375.5 1197.4 2397.6 1210 2409.5 1220.3 2407.6 1376.3 2381 1377.8 2380.6 1401.7 2383.9 1436.6 2383.7 1466.1 2384.1 1493.8 2381.3 1503.9 2371.5 1512.2 2363.7 1492.8 2353 1475.7 2339.9 1451.3 2333.9 1417.8 2342.4 1396.2 2347.3 1383.2 2354.2 1381.6 2354.9 1370.5 2359.8 1361.9 2359.1 1349.4 2355.8 1321 2353 1296.9 2354.7 1271.6 2355.7 1251.5 2349.5 1228.8 2346.9 1214.4 2337.9 1197.9 2328.5 1176.2 2321 1168.1 2312.9 1157.6 2310.4 1145.4 2310.5 1135.3 2282.4 1096.2 2266.1 1069.1 2259.2 1058.4 2246.6 1033.4 2237.6 1023.4 2235.9 1015.3 2239.7 1005.5 2245.3 995.2 2251.9 988.6 2262 986.2 2272.1 987.9 2293.5 991.8 2307.4 998.8 2320.1 1006.7 2329.7 1016.7 Z" data-holc_grade="D"/>
</g>
</svg>