<?xml version="1.0"?>
<svg xmlns="http://www.w3.org/2000/svg" version="1.2" baseProfile="tiny" width="3000" height="2013" viewBox="0 0 3000 2013" stroke-linecap="round" stroke-linejoin="round">
<g id="A">
<path d="M 2247.6 340.2 2187.1 389.1 2181 384.8 2142.6 412.9 2117.6 392 2159.6 360.3 2183.8 377.5 2228.6 339.3 2247.6 340.2 Z" data-holc_grade="A"/>
<path d="M 2447.5 1080.3 2447 1138.2 2408.7 1137.8 2408.7 1079.5 2447.5 1080.3 Z" data-holc_grade="A"/>
<path d="M 2380.3 1260.3 2368.5 1260.3 2358.2 1257.9 2346.1 1256.3 2323.4 1244.7 2301.3 1232.4 2325.8 1178.2 2368.5 1192.4 2408.1 1204.5 2380.3 1260.3 Z" data-holc_grade="A"/>
<path d="M 2820.9 1420.2 2827 1411.9 2835.2 1397.6 2839.2 1387.6 2838.4 1378.4 2853.7 1382.5 2864.6 1356 2875.1 1352.5 2867 1395.1 2870.7 1404.6 2871.1 1417.8 2869.9 1434.9 2865 1443.1 2842.8 1443.4 2835.6 1440.9 2817.4 1438 2813.4 1435.5 2820.9 1420.2 Z" data-holc_grade="A"/>
<path d="M 2825.5 1536.8 2818.2 1527.6 2803.4 1512.2 2811.8 1508.9 2839.7 1508.6 2838.2 1515.3 2840.9 1525.4 2842.7 1535.1 2825.5 1536.8 Z" data-holc_grade="A"/>
<path d="M 2818.2 1527.6 2825.5 1536.8 2820.9 1539.4 2820 1556.4 2794.6 1558.1 2761 1559 2747.1 1558.6 2735.6 1559.5 2702.9 1531.8 2711.4 1531.4 2719.5 1529.7 2727.4 1525.9 2734.4 1524.7 2738.3 1526.4 2740.4 1529.7 2806.1 1529 2818.2 1527.6 Z" data-holc_grade="A"/>
<path d="M 2842.7 1590.3 2840.1 1581.8 2863.3 1573 2887.8 1568 2892.6 1579.9 2896 1578.2 2914.7 1573.9 2904.4 1597.6 2945.9 1628.1 2975.3 1650.6 2985.6 1660.3 2897.8 1655.8 2869 1628.6 2860.6 1612.8 2844.8 1596.9 2842.7 1590.3 Z" data-holc_grade="A"/>
<path d="M 1113.5 1653.1 1075.6 1633.8 1048.1 1618.2 1029.2 1608.1 1001 1641.7 983.6 1633.8 965.7 1624.3 982.6 1605.6 999 1588 1004 1581.8 1006.3 1579.1 1014 1582.9 1014.7 1584.4 1026.3 1591 1033.4 1581.9 1043.4 1587.6 1050.8 1585.5 1068.1 1563.9 1126.5 1595.6 1124.4 1599.3 1149.8 1610.5 1119.6 1642.9 1113.5 1653.1 Z" data-holc_grade="A"/>
<path d="M 1270.7 351.7 1226 340.2 1179.1 328.4 1176 325.8 1254.8 296 1284 287.1 1281.3 298.3 1280.5 310.1 1270.7 351.7 Z" data-holc_grade="A"/>
<path d="M 744.4 915.6 746.1 906.3 754.6 869.9 756.4 863.5 774.5 865.4 765.5 917.7 764.9 932.3 760.3 946.3 749.1 980.3 742.5 1021.4 739.4 1037.8 731 1059.2 702.3 1057.8 709.6 1051.3 714.6 1044.6 716.4 1040.7 719.8 1025 727.3 993.8 731.6 970.1 735.8 960.2 743.8 942.3 743.4 921.2 744.4 915.6 Z" data-holc_grade="A"/>
<path d="M 404.4 1389.7 394.9 1386.9 383.3 1379.7 372.4 1380.4 368.4 1398.6 350.2 1396.4 347.9 1405.3 343.2 1404.7 326.3 1403.4 322.3 1400.1 319.4 1395.4 317.6 1384 315.2 1377.6 309.1 1374.2 323.1 1364.8 334.8 1353.1 345.9 1342.6 381.6 1346.2 393.1 1347 411.8 1349 404.4 1389.7 Z" data-holc_grade="A"/>
<path d="M 326.3 1403.4 343.2 1404.7 333.8 1448.1 330.3 1471.7 287.9 1467.6 242.1 1463.2 251.8 1406.7 287.7 1410.4 290.2 1400.6 326.3 1403.4 Z" data-holc_grade="A"/>
<path d="M 118 1511.3 117.8 1481.9 119 1463.1 117.8 1457.1 117.7 1455 136 1454.8 136.6 1450.6 157.4 1453 164.3 1453.1 185.2 1417.9 197.3 1402.3 204.6 1397.3 221.2 1389.9 237.5 1393 254 1395.2 251.8 1406.7 242.1 1463.2 223.6 1461.5 215 1510.9 167.5 1523.4 140.5 1521.8 118.5 1517.9 118 1511.3 Z" data-holc_grade="A"/>
<path d="M 117.7 1455 117.8 1457.1 119 1463.1 117.8 1481.9 48.5 1482.2 36.8 1483.7 33.3 1483.7 43.5 1446.8 55.8 1408.5 82.2 1404.9 115.7 1400.3 117.7 1455 Z" data-holc_grade="A"/>
<path d="M 505.4 1091 476.5 1085.7 474.1 1086.8 471.8 1087.9 464.5 1090.3 454.4 1091.5 443.1 1092.4 436 1092.8 437.4 1079.7 439.3 1072.6 438.7 1069.6 434.2 1053.6 431.4 1045.8 434.3 1037.4 435.6 1028.9 433.5 1024.6 431.9 1018.1 443.1 1016.3 466.5 1017.6 487.3 1018.8 511.8 1022.9 524.9 1024.2 539.4 1027.5 538.9 1029.2 534.1 1031.1 530.2 1037.9 530.1 1046.1 530.4 1053.7 526.8 1058.5 517.1 1068.7 511.2 1077.7 508.8 1082.6 505.4 1091 Z" data-holc_grade="A"/>
<path d="M 502.4 971.6 522 972 538.9 972.4 547.2 990.7 546.6 1003.9 547.6 1011.3 549.5 1018.3 547.6 1024.6 548.3 1029.8 539.4 1027.5 524.9 1024.2 511.8 1022.9 487.3 1018.8 466.5 1017.6 473.4 987.8 474 966.2 490 969.1 493.8 971.4 502.4 971.6 Z" data-holc_grade="A"/>
<path d="M 548.3 1029.8 547.6 1024.6 549.5 1018.3 547.6 1011.3 546.6 1003.9 547.2 990.7 538.9 972.4 561 971.8 581.8 971.8 587.6 971.4 597 969.6 594.3 987.2 609.7 987.1 625.7 987.2 620.6 1020.8 610.6 1024.5 605.5 1028.7 602.4 1033.6 597 1035.2 576.8 1030.9 569.2 1030.8 558.8 1032.2 548.3 1029.8 Z" data-holc_grade="A"/>
<path d="M 716.4 1040.7 692.2 1038.9 662.2 1034.8 641 1033.4 628.9 1031.6 628.9 1028.1 620.6 1020.8 625.7 987.2 629.3 981.1 636.6 951.5 639 934.8 639.2 933.8 658.4 934.1 687.6 936.4 704.7 939.8 710 941.7 743.8 942.3 735.8 960.2 731.6 970.1 727.3 993.8 719.8 1025 716.4 1040.7 Z" data-holc_grade="A"/>
<path d="M 833.7 1430 824.9 1483.9 820.7 1524.6 765.6 1520.6 687.8 1517.3 684.5 1510.4 682.7 1484.2 676.9 1470 659.7 1456.7 649.9 1446.4 668.4 1438.6 690 1426.5 703.3 1421.5 720.8 1416.8 756.5 1400 818 1408.2 818 1411.1 818 1417.2 818 1420.1 821.9 1428.8 833.7 1430 Z M 776.2 1448 759.3 1442.1 742 1439.9 735.7 1481.3 770.5 1485.6 776.2 1448 Z" data-holc_grade="A"/>
<path d="M 697.3 857.8 714.9 859.5 756.4 863.5 754.6 869.9 746.1 906.3 744.4 915.6 701.9 910.8 660.4 907.5 659.8 913.7 642.2 912.3 646 883.6 651.2 853.1 697.3 857.8 Z" data-holc_grade="A"/>
<path d="M 697.3 857.8 651.2 853.1 633.4 852.2 618.3 851.6 621.3 836.3 627.6 828.4 632.4 804.2 703.7 813.4 697.3 857.8 Z" data-holc_grade="A"/>
<path d="M 618.3 851.6 599.5 850.8 577.6 848 557.2 843.8 526.1 842.1 526.2 840.4 529.7 804.8 534.1 760.7 532.5 755.8 526 749.6 527.2 744.1 536.8 739.6 544.3 739 550.9 741.4 553.4 748.9 558.7 753.6 565.5 756.9 580.4 777 595 800.3 632.4 804.2 627.6 828.4 621.3 836.3 618.3 851.6 Z" data-holc_grade="A"/>
<path d="M 618.3 851.6 633.4 852.2 651.2 853.1 646 883.6 642.2 912.3 641.2 919.6 597.3 916.5 528.2 909.2 530.1 905.3 531.1 900.2 514.9 898.2 517.6 884.3 524 857.4 525.2 853.8 526.1 842.1 557.2 843.8 577.6 848 599.5 850.8 618.3 851.6 Z" data-holc_grade="A"/>
<path d="M 636.6 951.5 612.4 949.7 593.2 948.3 583.9 947 576.9 944.4 552.3 941.7 535.7 937.9 519.8 935.7 514.1 942.6 508.5 952.6 502.8 967.1 502.4 971.6 493.8 971.4 490 969.1 474 966.2 465.7 965.6 460.7 957.4 442.3 956.6 431.9 955.9 419.7 954.5 413.2 952.5 416.1 939.3 420.5 899.8 421.9 896 425.8 873.8 448.2 876.8 477.6 877.9 492.3 879.5 517.6 884.3 514.9 898.2 531.1 900.2 530.1 905.3 528.2 909.2 597.3 916.5 641.2 919.6 639.2 933.8 639 934.8 636.6 951.5 Z" data-holc_grade="A"/>
<path d="M 466.5 1017.6 443.1 1016.3 431.9 1018.1 404.6 1018.9 375.4 1015.8 377.7 1014.2 379.1 998.5 396.4 978.8 403.4 967.1 413.2 952.5 419.7 954.5 431.9 955.9 442.3 956.6 460.7 957.4 465.7 965.6 474 966.2 473.4 987.8 466.5 1017.6 Z" data-holc_grade="A"/>
<path d="M 284.2 882.3 315 881.1 317.5 884.3 313.4 943.3 318 953.8 319.2 967.2 316 978 311.7 985.3 307.9 991.6 304.1 1000.7 302.7 1002.9 305.5 1003.3 328.2 1006.6 345.5 1011.6 343.1 1088.7 277.1 1087 278.3 1117 277.4 1125.3 277.4 1129.1 279.2 1145.4 278.3 1162.7 275.6 1179.7 240.5 1174.3 238.1 1186.2 148.2 1172.4 136.3 1172.1 163.6 1088.7 179 1041.2 195.7 987.5 219.4 915 227.9 889.6 237.3 857.1 265.5 856.1 265 883.1 284.2 882.3 Z M 178.1 1165 221.4 1170.5 223.5 1167.2 232.9 1168.6 235.6 1164.3 237.1 1154.6 237.4 1143.5 235.9 1123.2 209.6 1120.4 192 1116.6 188.7 1131.7 185.7 1145.9 178.1 1165 Z" data-holc_grade="A"/>
<path d="M 526.1 842.1 525.2 853.8 524 857.4 517.6 884.3 492.3 879.5 477.6 877.9 448.2 876.8 425.8 873.8 429.2 855.3 358.8 848.7 341.4 848.9 342.8 834.5 345.5 804.1 338.6 788.9 356.8 789.6 378.1 792.2 438.7 802.4 455.6 804.1 455.6 799.4 469.1 798.8 494.4 807 503.8 807.3 516.3 809.3 512.5 767.6 523.8 752.5 526 749.6 532.5 755.8 534.1 760.7 529.7 804.8 526.2 840.4 526.1 842.1 Z" data-holc_grade="A"/>
<path d="M 633.8 418.2 639.5 421.9 645.2 425.1 650.2 425.9 667.3 423.9 685.3 423.3 699.9 424.6 719 428.4 715 445.7 711.5 467.1 712.9 477.2 697 477 688.3 477.5 670.8 480.5 667.3 480.5 655.6 475.7 645.5 474.6 616.9 471 610.1 468.9 606.6 468.9 602.5 468 601.3 463.1 602.2 460.2 599.3 457.9 596.4 451.5 587.5 453.2 607.1 429.6 612.6 421.5 620.6 408.1 628 414.5 633.8 418.2 Z" data-holc_grade="A"/>
<path d="M 830.6 470.3 808.7 501.3 753.1 480.4 771.7 453.8 772.7 444.8 788 449.5 798.7 452 818.7 456 831.2 459.7 837.1 462.3 830.6 470.3 Z" data-holc_grade="A"/>
<path d="M 907.3 1437.1 887.6 1530.1 820.7 1524.6 824.9 1483.9 833.7 1430 907.3 1437.1 Z" data-holc_grade="A"/>
<path d="M 789.6 360.7 806.3 370.6 815.6 374.2 820.3 377.6 820.9 381.2 822.5 381.2 828.1 382.6 835.8 387.3 839.6 387.7 843.3 388.1 882 402.6 868.9 420.1 847.7 450 837.1 462.3 831.2 459.7 818.7 456 798.7 452 788 449.5 772.7 444.8 758.1 440.5 719 428.4 727 407.5 734.9 383.4 735.3 381.9 740.2 364 751.5 365.7 759.3 368.1 774.7 373.3 776.9 368.9 765.2 356.1 771.8 351.1 789.6 360.7 Z" data-holc_grade="A"/>
<path d="M 625.7 987.2 609.7 987.1 594.3 987.2 597 969.6 587.6 971.4 581.8 971.8 561 971.8 538.9 972.4 522 972 502.4 971.6 502.8 967.1 508.5 952.6 514.1 942.6 519.8 935.7 535.7 937.9 552.3 941.7 576.9 944.4 583.9 947 593.2 948.3 612.4 949.7 636.6 951.5 629.3 981.1 625.7 987.2 Z" data-holc_grade="A"/>
<path d="M 760.5 1379.6 763.2 1359.7 768 1334.2 833.7 1340.6 831.9 1365.2 822.8 1376.5 818.6 1390.3 778.3 1386.7 775.6 1383.6 769.9 1380.6 760.5 1379.6 Z" data-holc_grade="A"/>
<path d="M 1021.1 1347.5 1018 1356.3 1012.7 1386.1 998.5 1406.5 997.3 1408.2 985.7 1424.8 908.7 1416.4 917.3 1372.8 929.7 1373.2 931.9 1352.3 953.1 1355.1 958.9 1350.1 958.9 1342.2 996.8 1343.4 1006.5 1348.2 1021.1 1347.5 Z" data-holc_grade="A"/>
<path d="M 1082.7 1257.7 1041.5 1254.1 1045.5 1237.8 1083.5 1242 1082.7 1257.7 Z" data-holc_grade="A"/>
<path d="M 1076.7 923.8 1100.9 928.6 1098.6 939.6 1074 933.6 1072.6 945.9 1070.4 955.8 1036.1 951.9 1020.3 951.3 1019.1 959.4 972.1 953 953.8 950.9 866.3 943.1 793.7 936.2 764.9 932.3 765.5 917.7 851.8 926.7 986.6 937.1 987.8 928.6 1067.4 935 1069.4 933.1 1071.2 923 1076.7 923.8 Z M 989.5 904.5 988.2 913.6 952.6 910.6 919.9 907.7 925.1 881.1 994 888.4 989.5 904.5 Z" data-holc_grade="A"/>
<path d="M 1436.1 685.3 1402.4 703.6 1357.8 677.8 1406 651 1436.1 685.3 Z" data-holc_grade="A"/>
<path d="M 1202.3 429.8 1192 414.2 1182.9 401.6 1173.1 392 1154.5 375.1 1141.9 361.7 1153.3 349.1 1171.3 357 1217.2 375.5 1236.1 380.2 1244.2 380.6 1252.8 382.9 1202.3 429.8 Z" data-holc_grade="A"/>
</g>
<g id="B">
<path d="M 2351.8 220 2354.8 189.8 2358.6 187.1 2388.6 189.5 2425.7 185.7 2437.8 185.3 2437.3 216.2 2438.3 221.3 2419.9 221.1 2351.8 220 Z" data-holc_grade="B"/>
<path d="M 2249.6 374.9 2154.5 448 2100.8 490.3 2084.1 479.9 2043.6 450.7 2117.5 391.9 2117.6 392 2142.6 412.9 2181 384.8 2187.1 389.1 2247.6 340.2 2255.5 346.3 2255.5 348.7 2269.4 358.4 2249.6 374.9 Z" data-holc_grade="B"/>
<path d="M 2457.1 1021.2 2456.6 1042 2480.8 1041.6 2480.3 1061.8 2479.8 1079.5 2447.5 1080.3 2408.7 1079.5 2408.7 1137.8 2373.4 1138.6 2373.9 1154 2335.5 1137 2333.5 1094.8 2316.9 1073.6 2317.9 1062.5 2288.1 1064.1 2289.1 1018.4 2359.2 1017.6 2364.3 1019.6 2457.1 1021.2 Z" data-holc_grade="B"/>
<path d="M 2301.3 1232.4 2298.9 1238.5 2188.7 1201.4 2221.7 1141.8 2325.8 1178.2 2301.3 1232.4 Z" data-holc_grade="B"/>
<path d="M 2595.1 1331.7 2568.5 1364.8 2550.4 1358.9 2579.6 1328 2595.1 1331.7 Z" data-holc_grade="B"/>
<path d="M 2693.8 1388 2684.1 1379 2681.1 1372.9 2664 1361 2637.5 1342.6 2595.1 1331.7 2606.9 1317.3 2609.6 1314.2 2653.6 1331.9 2674.1 1307.3 2711.1 1323.4 2724.7 1305.7 2735.3 1310.7 2747.7 1316.6 2726.5 1346.4 2712.9 1364.8 2709.2 1368.4 2707.1 1376.2 2693.8 1388 Z" data-holc_grade="B"/>
<path d="M 2676.6 1503.4 2685.3 1499.7 2693.8 1495.2 2701.4 1490.4 2709.8 1480.5 2715 1477.9 2746.5 1465.8 2750.7 1468.9 2772.1 1452.7 2801.2 1465.1 2801.9 1473.6 2798.2 1488.1 2796.4 1500.1 2797.9 1508.6 2803.4 1512.2 2818.2 1527.6 2806.1 1529 2740.4 1529.7 2738.3 1526.4 2734.4 1524.7 2727.4 1525.9 2719.5 1529.7 2711.4 1531.4 2702.9 1531.8 2697.4 1529.2 2671.4 1512.9 2672.6 1507.9 2676.6 1503.4 Z" data-holc_grade="B"/>
<path d="M 2840.1 1581.8 2832.1 1555.7 2825.5 1536.8 2842.7 1535.1 2840.9 1525.4 2838.2 1515.3 2839.7 1508.6 2811.8 1508.9 2803.4 1512.2 2797.9 1508.6 2796.4 1500.1 2798.2 1488.1 2801.9 1473.6 2801.2 1465.1 2818.2 1459.2 2830.9 1455.9 2849.4 1454.7 2867.2 1453 2873.6 1450.2 2876.6 1459.9 2879.3 1474.8 2879.3 1492.3 2877.8 1512.4 2876.6 1535.4 2862.7 1535.6 2847.2 1536.3 2847.6 1541.1 2863.3 1573 2840.1 1581.8 Z" data-holc_grade="B"/>
<path d="M 2840.1 1581.8 2842.7 1590.3 2830.3 1585.8 2817.3 1580.3 2797.6 1574.2 2778.5 1568.7 2765.5 1566.4 2742.5 1564.7 2735.6 1559.5 2747.1 1558.6 2761 1559 2794.6 1558.1 2820 1556.4 2820.9 1539.4 2825.5 1536.8 2832.1 1555.7 2840.1 1581.8 Z" data-holc_grade="B"/>
<path d="M 877.8 1279.6 875.1 1300.6 850.9 1298 845.7 1301.1 841.8 1316.5 965.3 1333.5 980.4 1331.4 1026.1 1335.4 1024 1339 1021.1 1347.5 1006.5 1348.2 996.8 1343.4 958.9 1342.2 958.9 1350.1 953.1 1355.1 931.9 1352.3 929.7 1373.2 917.3 1372.8 908.7 1416.4 907.3 1437.1 833.7 1430 821.9 1428.8 818 1420.1 818 1417.2 818 1411.1 818 1408.2 756.5 1400 720.8 1416.8 703.3 1421.5 690 1426.5 668.4 1438.6 662.2 1428.1 661.2 1420.7 666 1396.8 668.6 1382.8 671.5 1369.2 676.7 1351.9 678.9 1335.7 679.7 1322.4 682.5 1310.7 684.8 1293.3 744.1 1222.3 813.7 1183.1 819.2 1196.3 834.9 1202 857.9 1205.8 882.7 1208.6 870.6 1262.1 881.5 1268.7 877.8 1279.6 Z M 760.5 1379.6 769.9 1380.6 775.6 1383.6 778.3 1386.7 818.6 1390.3 822.8 1376.5 831.9 1365.2 833.7 1340.6 768 1334.2 763.2 1359.7 760.5 1379.6 Z" data-holc_grade="B"/>
<path d="M 994 888.4 925.1 881.1 919.9 907.7 952.6 910.6 988.2 913.6 989.5 904.5 1072.4 912.4 1078.7 914.2 1076.7 923.8 1071.2 923 1069.4 933.1 1067.4 935 987.8 928.6 986.6 937.1 851.8 926.7 765.5 917.7 774.5 865.4 756.4 863.5 776.7 837.2 789.6 843.7 799.7 851.4 810.8 864.6 816.1 869.7 820.9 871.9 815.1 856.9 802.2 822.9 796.8 811.1 834.9 761 856.2 738.8 911.9 769.5 1004.7 816.1 1003.1 847 998 865.7 994 888.4 Z" data-holc_grade="B"/>
<path d="M 1053.7 630.7 1126.6 663.2 1074.4 735 1013.1 707.3 972 687.4 971 689.2 916 663.8 912.7 663.2 920.8 652.7 947.8 665.5 968.3 636.4 969.2 638.3 974.4 643 981.7 648.1 991.7 652.6 1003.9 632.7 1028 631.3 1042.9 630.8 1053.7 630.7 Z M 1289.3 530.7 1220.2 567.8 1183.7 588.6 1178.9 589.8 1083.5 549.5 1035.4 618.4 1010.1 602.2 997.2 593.8 992.5 588.5 983 580 978.5 576 986.9 565.8 998.2 557.9 1000 555.7 1032.6 571.1 1043 552.6 1051.5 540.7 1059 510.8 1088 474.3 1096.7 453.6 1110 429.6 1120.5 420 1154.5 375.1 1173.1 392 1182.9 401.6 1192 414.2 1202.3 429.8 1248 482.3 1289.3 530.7 Z" data-holc_grade="B"/>
<path d="M 1372.3 625.9 1356.6 649.6 1354.5 653.1 1354.5 655.7 1317.2 677 1310.6 682.2 1291.8 710.5 1297 713.6 1283.9 732.2 1244.3 715.2 1211.9 761.8 1170.8 744.5 1143.2 784.5 1115.1 771.9 1119.6 765.8 1069.4 741.9 1074.4 735 1126.6 663.2 1128.1 661.1 1152.3 623.6 1161.1 619.1 1178.9 589.8 1183.7 588.6 1220.2 567.8 1289.3 530.7 1337.5 583.4 1372.3 625.9 Z" data-holc_grade="B"/>
<path d="M 1406 651 1357.8 677.8 1402.4 703.6 1436.1 685.3 1468.8 667.5 1480.1 681.1 1517.9 662 1527.8 654.5 1555 675.8 1563.1 683.5 1586.5 715.6 1525.5 748.7 1496.8 787.8 1470.8 775.2 1395.6 742.5 1376.4 772.5 1283.9 732.2 1297 713.6 1291.8 710.5 1310.6 682.2 1317.2 677 1354.5 655.7 1354.5 653.1 1356.6 649.6 1372.3 625.9 1378.7 631.1 1393.6 636.2 1399.4 641.5 1406 651 Z" data-holc_grade="B"/>
<path d="M 1252.8 382.9 1244.2 380.6 1236.1 380.2 1217.2 375.5 1171.3 357 1153.3 349.1 1176 325.8 1179.1 328.4 1226 340.2 1270.7 351.7 1268.9 364.5 1252.8 382.9 Z" data-holc_grade="B"/>
<path d="M 1252.8 382.9 1268.9 364.5 1270.7 351.7 1280.5 310.1 1281.3 298.3 1284 287.1 1339.8 268.6 1383.2 254.5 1379.6 277.7 1372.6 321.7 1364.2 372.7 1364 409.9 1365.2 438.6 1350.9 426.6 1337 418.6 1312.3 408.3 1283 395 1261.3 385.7 1252.8 382.9 Z" data-holc_grade="B"/>
<path d="M 493.8 1408.3 499.6 1364.7 471.9 1372.6 468.6 1380.9 461.6 1387.4 444.9 1398 420.9 1400.6 418.8 1411.4 400.2 1409 404.4 1389.7 411.8 1349 393.1 1347 381.6 1346.2 345.9 1342.6 354.6 1329.4 360.2 1318.6 366.5 1310.7 374.3 1292.8 388.2 1280.5 398.5 1273.6 412.4 1269.7 428 1268.5 458.8 1271.1 472.6 1272.9 472.3 1275 472.7 1280.5 472.6 1292 479.2 1298.9 490.6 1307.2 502.4 1309.7 517 1310.5 526.6 1314.1 535.7 1314.1 545 1313.1 544.8 1319.4 554 1329.7 550.1 1359.6 543.8 1384 539.7 1408.9 515 1406.7 493.8 1408.3 Z" data-holc_grade="B"/>
<path d="M 404.4 1389.7 400.2 1409 418.8 1411.4 426.1 1412.4 419.6 1415.5 405.2 1419.1 393.3 1420.5 388 1443.9 386 1463 381 1491 376.9 1511.5 374.4 1523.8 370.2 1546.4 328.6 1541.3 336.6 1511.1 321 1510 270 1505 264.5 1534.2 271.3 1535 270.5 1553.5 269 1560.7 253.9 1557.3 225.2 1547.9 205.4 1556.1 198.4 1557 162.9 1569.6 166.9 1581 136 1594.5 114.4 1605.7 114.8 1595.2 118.3 1581.1 118.9 1573.9 118.1 1566.8 116.9 1557 117.5 1544.1 118.5 1517.9 140.5 1521.8 167.5 1523.4 215 1510.9 223.6 1461.5 242.1 1463.2 287.9 1467.6 330.3 1471.7 333.8 1448.1 343.2 1404.7 347.9 1405.3 350.2 1396.4 368.4 1398.6 372.4 1380.4 383.3 1379.7 394.9 1386.9 404.4 1389.7 Z" data-holc_grade="B"/>
<path d="M 435.5 1568.9 425.4 1569.1 411.7 1570.9 392.3 1574.9 383.1 1576.3 367.8 1576.4 368.9 1557 370.2 1546.4 377.1 1546.5 400.1 1544.6 415.2 1544.4 438.1 1545.1 435.7 1560.1 435.5 1568.9 Z" data-holc_grade="B"/>
<path d="M 118.5 1517.9 117.5 1544.1 116.9 1557 118.1 1566.8 118.9 1573.9 118.3 1581.1 114.8 1595.2 114.4 1605.7 100.6 1613.5 75.7 1586.7 63 1594.3 69.6 1601.3 68.1 1625.1 19.7 1616.2 8.8 1605.6 1 1592.2 16.9 1538.4 33.3 1483.7 36.8 1483.7 36.8 1493.6 48.2 1493.4 47.2 1519.6 45.9 1523.8 45.6 1535.2 54.5 1529.5 87.3 1520.4 118 1511.3 118.5 1517.9 Z" data-holc_grade="B"/>
<path d="M 820.7 1524.6 887.6 1530.1 882.7 1535.8 881.2 1552.6 876.7 1557.3 877 1575.3 898.5 1588 890.5 1597 883.9 1602.7 841.8 1627.1 854.2 1641 868.4 1633.7 884.8 1652.2 874.2 1661.6 849.4 1664 830 1658.8 818.8 1652.9 804.6 1642.2 710.8 1552.8 687.8 1517.3 765.6 1520.6 820.7 1524.6 Z" data-holc_grade="B"/>
<path d="M 333.6 1338.4 344 1340.2 345.9 1342.6 334.8 1353.1 323.1 1364.8 309.1 1374.2 315.2 1377.6 317.6 1384 319.4 1395.4 322.3 1400.1 326.3 1403.4 290.2 1400.6 290.8 1386.5 262.9 1380.7 259.3 1374.9 268.6 1371.4 273 1369.2 277.3 1367.2 320.2 1347.4 323.3 1336.7 333.6 1338.4 Z" data-holc_grade="B"/>
<path d="M 147.8 1369.3 118 1369.7 115.7 1400.3 82.2 1404.9 55.8 1408.5 66.1 1376.6 92.8 1299.1 99.6 1296.8 111 1291.6 123.3 1311.2 164.9 1307.6 161.8 1317.9 158.5 1326 152.7 1333 150.2 1356.9 147.8 1369.3 Z" data-holc_grade="B"/>
<path d="M 219.5 1305.9 212.5 1306.4 164.9 1307.6 123.3 1311.2 111 1291.6 99.6 1296.8 92.8 1299.1 108.2 1256 121.8 1257.4 150.3 1261.5 152.1 1250.7 190.7 1255 187.4 1266.2 198.7 1265 229.8 1257.5 230.3 1258.7 229.5 1265.4 227 1274.9 222.2 1290.3 219.5 1305.9 Z" data-holc_grade="B"/>
<path d="M 297.6 1179.5 294.6 1179 291.3 1194.4 238.1 1186.2 240.5 1174.3 275.6 1179.7 278.3 1162.7 279.2 1145.4 277.4 1129.1 299.8 1131.9 300.1 1149.4 297.6 1179.5 Z" data-holc_grade="B"/>
<path d="M 716.4 1040.7 714.6 1044.6 709.6 1051.3 702.3 1057.8 697.5 1081.3 695 1098.2 686.9 1133.3 682.9 1143.7 680.3 1154.2 680.3 1159.1 677.3 1177.2 680.3 1181.3 665.4 1203.6 666.4 1207.9 648.8 1247.4 643 1249.3 628.6 1260.6 597.4 1259.2 604.9 1228.8 585.5 1233.7 571.2 1231.3 578.4 1202.5 582.1 1184.3 546 1187.2 530.8 1185.6 518.7 1185.1 519.3 1169.7 519.2 1141.1 505 1142.2 503.6 1142 505 1126.5 507.2 1115.8 508.2 1108.5 511.4 1101.3 514.7 1093.1 505.4 1091 508.8 1082.6 511.2 1077.7 517.1 1068.7 526.8 1058.5 530.4 1053.7 530.1 1046.1 530.2 1037.9 534.1 1031.1 538.9 1029.2 539.4 1027.5 548.3 1029.8 558.8 1032.2 569.2 1030.8 576.8 1030.9 597 1035.2 602.4 1033.6 605.5 1028.7 610.6 1024.5 620.6 1020.8 628.9 1028.1 628.9 1031.6 641 1033.4 662.2 1034.8 692.2 1038.9 716.4 1040.7 Z" data-holc_grade="B"/>
<path d="M 420.6 1092.3 404.2 1091.4 371.6 1089.6 372.4 1060.9 375.4 1015.8 404.6 1018.9 431.9 1018.1 433.5 1024.6 435.6 1028.9 434.3 1037.4 431.4 1045.8 434.2 1053.6 438.7 1069.6 439.3 1072.6 437.4 1079.7 436 1092.8 420.6 1092.3 Z" data-holc_grade="B"/>
<path d="M 747.9 806.6 796.8 811.1 776.7 837.2 756.4 863.5 714.9 859.5 697.3 857.8 703.7 813.4 732.5 816.6 733 805.2 747.9 806.6 Z" data-holc_grade="B"/>
<path d="M 644.4 666.7 657.1 667.5 681.6 674.6 690.8 677.3 694.7 677.4 696.8 677.4 732.3 685.4 729.2 704.3 728.9 706 722 706 719.6 738.8 719.6 742.7 724.3 753.3 718 758 717.7 766.3 746.7 769.4 752.8 770.8 747.9 806.6 733 805.2 659.9 797.1 634.1 780.8 602.2 760.1 600.4 756.8 584 744.3 571.6 740.3 573.7 744.3 576.4 746.7 577.1 749.3 575.8 753 571.9 753.3 565.5 756.9 558.7 753.6 553.4 748.9 550.9 741.4 544.3 739 536.8 739.6 527.2 744.1 526 749.6 523.8 752.5 520.8 747.6 522.3 728.9 505 726.1 507.4 706.3 497.5 704.1 499.9 690.7 491.1 689 483.7 629.7 513.1 630.8 536.8 685.9 562.8 686.6 562.2 644.8 582.2 657.4 642.7 680.7 639.7 667.5 644.4 666.7 Z" data-holc_grade="B"/>
<path d="M 620.6 408.1 612.6 421.5 607.1 429.6 587.5 453.2 583.1 452.5 579.1 449.8 573.8 441.3 556 437.2 555.8 444.4 554.6 459 555.2 466.4 553.4 481.1 553.1 499.9 555 509.1 530.5 497.6 527.6 508.6 528.7 529.7 529.7 556.3 524 555 504.4 552.1 481.3 548.7 484 557.9 487.6 575.2 489.7 591.4 491.9 600.5 512.6 628.5 513.1 630.8 483.7 629.7 469.6 628.8 447.9 619.8 445.1 558.8 443.2 535.5 439.9 524.6 425.1 518.8 405.2 507.5 410.7 483.7 377.3 491.5 371.2 494.9 348.6 494.4 338.7 498.1 341.2 490.1 348.4 460.9 358.9 419.7 374.3 422.6 378.8 416.8 389.9 421.7 415.7 433.8 444.6 450.8 466.9 463.9 440.8 471.5 446.2 477.3 437.4 502.2 485.1 511.8 490.6 492.1 496.8 486.2 499 481.1 489.2 475.1 497.2 457.8 508.2 464.9 506.8 455.5 521.3 456.1 518.1 439.6 527.3 440.1 540.2 408.2 557.1 412.4 564.6 410.4 554.9 401.2 555.8 394.8 563.1 394.1 562.8 391.9 553.3 381.5 552.6 374.9 580.2 375.1 586.2 379.3 594.6 383.9 620.6 408.1 Z" data-holc_grade="B"/>
<path d="M 670.7 367.7 666 377.8 660.2 386.8 660.8 394 633.8 418.2 628 414.5 620.6 408.1 594.6 383.9 586.2 379.3 580.2 375.1 585.1 375.3 580.1 367.6 581.4 359 602 362.9 604.6 354.4 606.6 353.3 613.6 353.5 635.4 353.1 656.1 360.6 670.7 367.7 Z" data-holc_grade="B"/>
<path d="M 1001 1641.7 1018.4 1649.7 1045.6 1664.5 1087.5 1686.8 1074.1 1700.6 1026.7 1675.2 953.6 1638.5 965.7 1624.3 983.6 1633.8 1001 1641.7 Z" data-holc_grade="B"/>
<path d="M 722.6 298 710.8 321 711.2 325.1 714.4 333.2 695.7 337.2 686.2 343 675.9 355.4 670.7 367.7 656.1 360.6 635.4 353.1 613.6 353.5 606.6 353.3 616.9 332 617.7 324.7 620.7 313.5 636.8 310.2 719.3 297 722.6 298 Z" data-holc_grade="B"/>
<path d="M 839.6 387.7 835.8 387.3 828.1 382.6 822.5 381.2 820.9 381.2 820.3 377.6 815.6 374.2 806.3 370.6 789.6 360.7 789.3 348.9 790.1 338.5 814 329.8 841.6 332.1 829.8 336.6 821.3 342.6 816.6 349.2 816.1 356.6 817.5 363.9 822.7 369 840.8 376.8 847.2 378.5 839.6 387.7 Z M 771.8 351.1 765.2 356.1 776.9 368.9 774.7 373.3 759.3 368.1 751.5 365.7 740.2 364 735.3 381.9 718 380.7 696.9 368.6 714.4 333.2 724.9 350.2 743.7 346.7 743.7 344.8 750.1 328.9 763 304.4 772.9 308.3 770.5 348.1 771.8 351.1 Z" data-holc_grade="B"/>
<path d="M 808.7 501.3 830.6 470.3 836.4 477.2 842 481.5 855.8 490 863.7 494.3 880.3 469.1 894.2 468.7 903.3 469.1 909.8 469.5 920.9 474.6 926.2 480.1 932 489.8 941.1 507.3 956.2 531.5 962 544.9 963.8 553.6 962.8 558.5 961.5 563.4 962.5 576.6 959.8 587 955.5 599.6 948.4 613.2 933.3 605.9 908.6 595.4 916.6 583.3 910.3 579.8 923.7 563 902.5 553.8 913.1 534.7 891.7 525.4 878.5 515.2 872 519.1 866.9 524.8 857.9 537.6 850 554.4 853 572 842.7 571.5 818.8 570.3 811 559.9 801.4 546.9 796.6 534.3 795.8 525.8 798.1 515 807.9 502.4 808.7 501.3 Z" data-holc_grade="B"/>
<path d="M 1153.3 349.1 1117.2 330.4 1071.3 299.7 1067.3 295.6 1049.9 273.3 1044.9 269.4 1041.1 261.9 1022.9 243.6 1035.1 236.1 1040.1 233 1055.2 226.2 1086.4 206.3 1128.5 194.3 1168.1 263.9 1180.2 282.1 1171.5 286.4 1175.1 289.4 1199.6 301 1170.9 321.8 1176 325.8 1153.3 349.1 Z" data-holc_grade="B"/>
<path d="M 805 196.3 817.7 194.7 853.5 195.1 854.8 202.1 855.7 220.6 898 219.6 899.1 249.4 895.9 250.8 861.9 249.4 849.7 255.5 836.7 254.7 831.3 258.5 821 258.2 806.7 199.8 805 196.3 Z" data-holc_grade="B"/>
<path d="M 798.5 179.1 786.1 180.3 753.4 184.2 754.9 170.7 749.1 162.4 724.4 174.4 694.8 182.9 686.5 186.8 676.9 189.5 678.4 164 681.5 126.8 684.7 108 686.8 86.3 694.1 84 675.7 68.8 663.3 61.7 686.3 66.3 702.9 67.9 693.2 49.5 694.2 48.5 691.2 36.7 691 26.6 675 26 675.2 1 692.8 4.3 778.3 15 774.1 23.5 773.3 32.6 776.1 46.5 774.5 57.8 772.7 62.4 773.9 67.2 777.7 71 798.7 70.4 800.5 86.8 808.6 86 809.6 87.1 811.8 97.6 818.1 114.9 819.9 120.9 821.9 135.4 824.3 140.1 828.2 144.7 823.5 151.4 782.8 137.4 781.2 138.7 791.2 152.5 797.3 164.3 798.9 175.7 798.5 179.1 Z" data-holc_grade="B"/>
<path d="M 663.7 1681.9 667.3 1682.4 673.7 1684 692.7 1685.2 706.4 1686.3 726 1689.8 727 1695.9 690.3 1705.1 686.5 1717.4 683.6 1726.2 682.6 1730.5 682.6 1733.2 640.7 1728.1 617.7 1726.4 614.4 1727.3 617.5 1731.9 618.3 1737.8 616 1744.7 616.4 1751.6 619.3 1759.8 621.9 1778.1 613.6 1778.3 589.4 1777.7 572.5 1777.4 569.2 1730.2 549.5 1725 549.7 1719.6 548 1713.8 605.1 1721 611 1715.3 614.2 1706.5 615.8 1696.3 637.2 1699.4 638.6 1678.9 663.7 1681.9 Z" data-holc_grade="B"/>
<path d="M 667.5 1633.5 689.8 1635.4 686.6 1648.3 684.2 1655.3 679.6 1659.7 648.8 1657 636.4 1655.2 623.8 1653.4 605.9 1652.9 588.8 1650.8 592.5 1626 614.4 1627.7 642.3 1631 667.5 1633.5 Z" data-holc_grade="B"/>
<path d="M 759.7 1680.4 792.9 1654.6 803.6 1664.7 813.6 1675.6 832.2 1691.2 845.7 1699.8 854.1 1703.9 842.2 1718.1 830.2 1730.2 807.6 1716 781 1696.2 759.7 1680.4 Z" data-holc_grade="B"/>
<path d="M 894.8 1948.4 856.5 1943 861.7 1938.9 862.9 1901.1 886.7 1879.9 895.6 1867.9 903.3 1872.6 874.6 1904.5 913.8 1930.1 892 1942.7 894.8 1948.4 Z" data-holc_grade="B"/>
<path d="M 1000 1408.3 977.1 1443.3 970.8 1472.6 1000.5 1478.4 1023.7 1417.5 1022.5 1409.8 1051.3 1416.3 1078.4 1416.2 1042.4 1517.7 1033.7 1539.1 1010.2 1526.6 1004.6 1529 1008.1 1535.3 1003.6 1541.6 989 1562.1 983.4 1571.6 1004 1581.8 999 1588 982.6 1605.6 965.7 1624.3 938 1609 965.7 1580.2 956 1574.6 947.5 1572.7 935.1 1560.1 916 1572.2 904.5 1581.9 898.5 1588 877 1575.3 876.7 1557.3 881.2 1552.6 882.7 1535.8 887.6 1530.1 907.3 1437.1 908.7 1416.4 985.7 1424.8 997.3 1408.2 1000 1408.3 Z" data-holc_grade="B"/>
<path d="M 889.1 1807.3 907.3 1787.4 957.7 1817.1 942.8 1832.6 930.7 1831.9 889.1 1807.3 Z" data-holc_grade="B"/>
<path d="M 1068.1 1563.9 1050.8 1585.5 1043.4 1587.6 1033.4 1581.9 1026.3 1591 1014.7 1584.4 1014 1582.9 1040.3 1550.1 1068.1 1563.9 Z M 1068.1 1563.9 1075.1 1557.9 1123.8 1581.6 1126.8 1570.2 1114.4 1563.6 1114.1 1555.3 1042.4 1517.7 1078.4 1416.2 1088.7 1406.3 1088.1 1382.4 1090.5 1364.4 1093.6 1348.8 1071.5 1347.2 1074.8 1330.4 1062.4 1328.7 1062.1 1319.7 1029.7 1316.6 1032.1 1294.6 1057.2 1292 1082.4 1293.2 1120.5 1297.3 1264 1314.1 1252.5 1375.9 1235.8 1457.5 1245.2 1497.5 1160.4 1603.9 1227.9 1639.7 1219.5 1651.9 1180.1 1632.7 1162.6 1652.1 1147.1 1670.6 1113.5 1653.1 1119.6 1642.9 1149.8 1610.5 1124.4 1599.3 1126.5 1595.6 1068.1 1563.9 Z" data-holc_grade="B"/>
<path d="M 1270.6 1278.4 1224 1272 1205.2 1269.4 1124.7 1259.7 1137.7 1194.9 1286 1208.9 1282.4 1221.4 1276.4 1238.2 1270.6 1278.4 Z M 1082.7 1257.7 1083.5 1242 1045.5 1237.8 1045.5 1226.1 1094.8 1188.1 1116.5 1191.5 1115.8 1194 1114.3 1201.1 1111.4 1206.3 1103 1216.6 1097.5 1223.9 1091.1 1233.1 1088.6 1242.3 1086.2 1258.1 1082.7 1257.7 Z" data-holc_grade="B"/>
<path d="M 1400.5 1222.4 1395.2 1244.9 1382.7 1302.9 1341.4 1289.5 1270.6 1278.4 1276.4 1238.2 1282.4 1221.4 1316.6 1226.6 1321.1 1209.7 1320.8 1212 1400.5 1222.4 Z" data-holc_grade="B"/>
<path d="M 1107.6 1056.6 1105.6 1065.9 1099.8 1088.3 1095.1 1116.4 1069.3 1120.5 1015.3 1114.6 1012.6 1113.2 983.6 1109.6 963.2 1108.5 946.5 1106.4 944.6 1107.9 912.2 1104.1 910.3 1117.5 886.1 1114.8 883.5 1132.8 887.1 1135.4 884.7 1145.7 856.5 1149.8 864.9 1110.4 791.1 1103.1 787.5 1130.4 780.8 1126.9 762 1124.2 756.6 1155.5 755.4 1169.2 718.7 1166.2 714.4 1183.4 680.3 1181.3 677.3 1177.2 680.3 1159.1 680.3 1154.2 682.9 1143.7 686.9 1133.3 695 1098.2 697.5 1081.3 702.3 1057.8 731 1059.2 736 1059.5 771.5 1059.1 806 1061.4 855.5 1065 911.5 1071.4 986 1082.2 1005.2 1082.8 1024.7 1084.5 1041.5 1086.7 1057.4 1089.7 1070.7 1089.7 1083.2 1036.3 1110.9 1040.7 1107.6 1056.6 Z" data-holc_grade="B"/>
<path d="M 1132.5 901.6 1129.5 916 1151.9 928 1138.3 947.5 1133 964.5 1151.7 968.2 1168 972.1 1191 978.3 1188.5 985.9 1232.4 995.4 1235.1 986.3 1273.5 1002.9 1276 1000.1 1295.4 1008.6 1315 1013.1 1340 1018.8 1339.7 1020.1 1337.5 1028.1 1156.2 989.9 1153.9 996.2 1092.9 982.4 1087.6 1016.9 1083.2 1036.3 1052.5 1032.2 1053.3 1025.5 1063.6 966 1019.1 959.4 1020.3 951.3 1036.1 951.9 1070.4 955.8 1072.6 945.9 1074 933.6 1098.6 939.6 1100.9 928.6 1076.7 923.8 1078.7 914.2 1081.8 897.7 1132.5 901.6 Z" data-holc_grade="B"/>
</g>
<g id="C">
<path d="M 2358.6 187.1 2354.8 189.8 2351.8 220 2351.8 220.5 2282.7 220.1 2283.7 251.4 2301.1 251.2 2304.4 281.1 2270.1 280.7 2266.8 257.3 2255.2 258.3 2253.7 220.9 2220.6 221.5 2219.6 191.6 2254.7 185.7 2256.7 214 2289.7 183.2 2299.1 183.2 2343.5 144 2344.2 138.5 2355.1 129.5 2355.6 137.3 2356.8 146.4 2358.6 187.1 Z" data-holc_grade="C"/>
<path d="M 2373.9 1154 2373.4 1138.6 2408.7 1137.8 2447 1138.2 2447.5 1080.3 2479.8 1079.5 2480.3 1061.8 2540.3 1062.5 2539.8 1078.3 2555.5 1081.1 2570.6 1091.3 2569.1 1113 2542.3 1113.4 2528.7 1111 2529.2 1140.6 2455.1 1143.3 2454.1 1170.9 2374.4 1168.9 2373.9 1154 Z" data-holc_grade="C"/>
<path d="M 2301.3 1232.4 2323.4 1244.7 2346.1 1256.3 2358.2 1257.9 2368.5 1260.3 2380.3 1260.3 2454.8 1279.7 2510.7 1294.3 2511.6 1311.6 2500.4 1311.8 2485 1307.3 2462 1302.6 2387.5 1280.6 2372.1 1275.9 2349.7 1266.9 2317.6 1261 2309.1 1273 2299.5 1272.8 2292.8 1271.6 2286.5 1272.1 2280.7 1272.6 2273.4 1271.4 2262.8 1268.1 2255.9 1265.2 2247.1 1264.8 2238.3 1265.7 2235.6 1267.6 2223.8 1285.4 2214.7 1278.8 2195.8 1262.7 2167.1 1236.4 2188.7 1201.4 2298.9 1238.5 2301.3 1232.4 Z" data-holc_grade="C"/>
<path d="M 2605.4 1262.4 2606.9 1317.3 2595.1 1331.7 2579.6 1328 2511.6 1311.6 2510.7 1294.3 2454.8 1279.7 2468.6 1245.6 2486.8 1211.3 2530.7 1225 2533.1 1261.5 2605.4 1262.4 Z" data-holc_grade="C"/>
<path d="M 2724.7 1305.7 2711.1 1323.4 2674.1 1307.3 2685 1296 2705.3 1303.1 2709.2 1300.2 2724.7 1305.7 Z M 2609.6 1314.2 2606.9 1317.3 2605.4 1262.4 2626.3 1263.1 2646 1272.6 2609.6 1314.2 Z" data-holc_grade="C"/>
<path d="M 2693.8 1388 2707.1 1405 2721 1424.2 2730.4 1435.8 2746.5 1465.8 2715 1477.9 2709.8 1480.5 2701.4 1490.4 2693.8 1495.2 2685.3 1499.7 2676.6 1503.4 2656.3 1503.7 2636.3 1498 2629.6 1489 2621.8 1478.1 2620.3 1471.5 2617.5 1458 2613.3 1446.7 2606.9 1436.3 2602.7 1428.7 2651.4 1365.5 2658.7 1369.1 2664 1361 2681.1 1372.9 2684.1 1379 2693.8 1388 Z" data-holc_grade="C"/>
<path d="M 2772.1 1452.7 2750.7 1468.9 2746.5 1465.8 2730.4 1435.8 2721 1424.2 2707.1 1405 2693.8 1388 2707.1 1376.2 2709.2 1368.4 2712.9 1364.8 2726.5 1346.4 2747.7 1316.6 2777.3 1330.5 2763.7 1349.9 2778.9 1356.5 2786.4 1346.1 2808.8 1350.6 2797 1372.4 2786.7 1386.3 2827 1411.9 2820.9 1420.2 2805.8 1431.3 2800 1431.5 2772.1 1452.7 Z" data-holc_grade="C"/>
<path d="M 2875.1 1352.5 2864.6 1356 2853.7 1382.5 2838.4 1378.4 2838.4 1367.4 2847.3 1358.9 2867.5 1344 2871.9 1336.1 2894.5 1281.9 2918.3 1288.5 2930.8 1286 2932.4 1280.6 2982.9 1280.3 2983.3 1288.2 2999 1288.5 2999 1315.6 2932.4 1315 2930.4 1320.7 2928.8 1324.2 2924.8 1320.7 2903 1333 2915.9 1336.1 2919.5 1340.2 2920.7 1349.4 2918.3 1360.4 2912.6 1372.1 2901.3 1365.8 2884.8 1360.7 2875.1 1352.5 Z" data-holc_grade="C"/>
<path d="M 2276.5 458.8 2158.3 459.6 2154.5 448 2249.6 374.9 2256.6 380.6 2240.7 392.6 2276.6 391.6 2277.4 408 2250.7 407.5 2250.9 443.3 2275.9 443.7 2276.5 458.8 Z" data-holc_grade="C"/>
<path d="M 1908.7 745.7 1891 754.6 1874.4 732.7 1874.6 723.3 1902.1 709.5 1923.3 736.1 1908.7 745.7 Z" data-holc_grade="C"/>
<path d="M 2197 1360.8 2193.4 1363.4 2211.9 1380.4 2181.7 1402.5 2068.9 1310 2066.3 1307.9 2086.9 1293 2133.7 1333.4 2148.2 1323.6 2197 1360.8 Z" data-holc_grade="C"/>
<path d="M 1658 1645.4 1671.5 1626 1683.6 1604 1687.3 1595.5 1705.1 1556.2 1721.8 1548.9 1734.8 1546 1752 1551.5 1764.1 1555.7 1768.1 1557.6 1778.7 1554.3 1789.3 1553.4 1798.6 1548.2 1811.7 1542.7 1818 1540.4 1821.3 1540.6 1836.8 1553.8 1890.6 1595.2 1921.8 1617 1862.5 1631.2 1835.3 1627.9 1803.2 1635 1748.4 1580.1 1726.6 1574.7 1716.9 1584.4 1705.7 1598.3 1687.9 1631.7 1681.2 1645.2 1658 1645.4 Z" data-holc_grade="C"/>
<path d="M 2149.4 1220.8 2037.6 1123.7 2101.9 1076.8 2160.2 1124.3 2181.6 1133.5 2197.8 1137.9 2149.4 1220.8 Z" data-holc_grade="C"/>
<path d="M 2197.8 1137.9 2181.6 1133.5 2160.2 1124.3 2101.9 1076.8 2167.9 1028.8 2183.7 1021.2 2202.2 1020 2222.4 1029.4 2236.5 1040.1 2243.4 1050.5 2243.4 1059.4 2197.8 1137.9 Z" data-holc_grade="C"/>
<path d="M 2236.5 1040.1 2222.4 1029.4 2211.5 1015.3 2305.3 1003.4 2306.3 1007.8 2454.6 987.7 2457.1 1021.2 2364.3 1019.6 2359.2 1017.6 2289.1 1018.4 2288.1 1064.1 2317.9 1062.5 2316.9 1073.6 2333.5 1094.8 2298.7 1101.9 2285.1 1118.1 2258.4 1107.8 2260.9 1095.2 2261.9 1082.2 2259.4 1072.4 2272.5 1071.2 2272 1059.8 2260.4 1059.4 2236.5 1040.1 Z" data-holc_grade="C"/>
<path d="M 2570.6 1091.3 2555.5 1081.1 2539.8 1078.3 2540.3 1062.5 2480.3 1061.8 2480.8 1041.6 2456.6 1042 2457.1 1021.2 2454.6 987.7 2606.4 964 2608.9 991.6 2608.9 1078.3 2650.3 1077.9 2651.3 1092.1 2649.3 1112.2 2627.1 1113.4 2593.3 1103.1 2570.6 1091.3 Z" data-holc_grade="C"/>
<path d="M 1219.5 1651.9 1211.4 1664.5 1215.3 1666.1 1075.5 1788.9 1040.7 1818.8 1012.2 1839.4 1008.9 1837.2 1014.4 1820.9 1011.3 1782.6 1043.7 1755.1 1036.8 1749.7 1042.5 1743.3 1018 1729.1 1022.8 1717 1004.4 1709.2 1021.9 1690.3 941.4 1650.7 953.6 1638.5 1026.7 1675.2 1074.1 1700.6 1087.5 1686.8 1113.2 1699 1147.1 1670.6 1162.6 1652.1 1180.1 1632.7 1219.5 1651.9 Z" data-holc_grade="C"/>
<path d="M 1074.4 735 1069.4 741.9 1043.5 776.7 1042.2 778 1004.7 816.1 911.9 769.5 856.2 738.8 912.7 663.2 916 663.8 971 689.2 972 687.4 1013.1 707.3 1074.4 735 Z" data-holc_grade="C"/>
<path d="M 1166.1 827.7 1211.7 846.3 1196.5 868.7 1171.8 903 1166.8 909.9 1153.2 903.2 1132.5 901.6 1081.8 897.7 1078.7 914.2 1072.4 912.4 989.5 904.5 994 888.4 998 865.7 1003.1 847 1004.7 816.1 1042.2 778 1066.9 791.4 1073.7 795.2 1140.9 817.4 1166.1 827.7 Z" data-holc_grade="C"/>
<path d="M 1211.9 761.8 1166.1 827.7 1140.9 817.4 1073.7 795.2 1066.9 791.4 1042.2 778 1043.5 776.7 1069.4 741.9 1119.6 765.8 1115.1 771.9 1143.2 784.5 1170.8 744.5 1211.9 761.8 Z" data-holc_grade="C"/>
<path d="M 1283.9 732.2 1376.4 772.5 1475.7 815.4 1438.5 868.3 1398.2 925.5 1388.9 938.8 1366.6 912.7 1351.1 906.3 1358.4 894.2 1318.7 875.7 1342.4 839.4 1214.6 781.5 1191.3 816.7 1212.1 827.3 1206.8 835.2 1216 840.1 1211.7 846.3 1166.1 827.7 1211.9 761.8 1244.3 715.2 1283.9 732.2 Z M 1328.3 777.1 1302.9 764.1 1289.9 781.8 1282.3 779.2 1276.9 789.6 1312.6 805.9 1320.8 794.6 1319 788.4 1328.3 777.1 Z" data-holc_grade="C"/>
<path d="M 1438.5 868.3 1475.7 815.4 1496.8 787.8 1525.5 748.7 1586.5 715.6 1623.2 751.3 1637.8 767.5 1646 786.1 1650.4 794.7 1657.1 808.4 1574.3 835.2 1588.9 859.8 1544.3 851.8 1507.5 832.9 1467.8 882.1 1438.5 868.3 Z" data-holc_grade="C"/>
<path d="M 968.3 636.4 967.2 634.1 966.5 627.4 945.6 623 951.8 613.4 978.5 576 983 580 992.5 588.5 997.2 593.8 1010.1 602.2 1035.4 618.4 1041.4 622.3 1053.7 630.7 1042.9 630.8 1028 631.3 1003.9 632.7 991.7 652.6 981.7 648.1 974.4 643 969.2 638.3 968.3 636.4 Z M 1000 555.7 1017.4 534.7 1045.6 498.6 1062.3 479.6 1077.1 454.6 1091 433.9 1102.9 418.9 1110.2 410.5 1129.9 379.4 1140.4 363.2 1141.9 361.7 1154.5 375.1 1120.5 420 1110 429.6 1096.7 453.6 1088 474.3 1059 510.8 1051.5 540.7 1043 552.6 1032.6 571.1 1000 555.7 Z" data-holc_grade="C"/>
<path d="M 376.9 1511.5 381 1491 386 1463 388 1443.9 393.3 1420.5 405.2 1419.1 419.6 1415.5 426.1 1412.4 440.4 1411.8 440.1 1419.7 462.8 1416.2 492.3 1416.2 493.8 1408.3 515 1406.7 539.7 1408.9 543.8 1384 569.8 1387.2 587.9 1387.6 596.7 1387.2 603.3 1399.4 605.3 1407.9 608.8 1419.7 627.8 1456 554.1 1450.1 552.6 1459.3 487.5 1454.6 490.8 1445.9 478.2 1446.9 457.3 1454.4 452.7 1484.4 444.2 1516.1 376.9 1511.5 Z M 1090.5 1364.4 1088.1 1382.4 1088.7 1406.3 1078.4 1416.2 1051.3 1416.3 1022.5 1409.8 1000 1408.3 997.3 1408.2 998.5 1406.5 1012.7 1386.1 1018 1356.3 1021.1 1347.5 1024 1339 1045.7 1341.7 1037.4 1373.5 1065.1 1376 1069.4 1362.6 1090.5 1364.4 Z" data-holc_grade="C"/>
<path d="M 435.5 1568.9 449.2 1569.6 473.6 1572.7 488.8 1574.2 483 1587.4 480.7 1596.9 479.6 1603.5 481 1614.6 473.4 1613.4 450.2 1615.6 428.1 1618 432.6 1606.6 436 1582.1 435.5 1568.9 Z" data-holc_grade="C"/>
<path d="M 273 1369.2 268.6 1371.4 259.3 1374.9 262.9 1380.7 246.4 1384.2 254 1395.2 237.5 1393 221.2 1389.9 204.6 1397.3 197.3 1402.3 185.2 1417.9 172.2 1411.9 155.5 1410.9 151 1409.9 147.5 1406.6 145.7 1401.8 141.7 1401.6 147.8 1369.3 150.2 1356.9 152.7 1333 158.5 1326 161.8 1317.9 164.9 1307.6 212.5 1306.4 219.5 1305.9 236.5 1304.5 238.5 1286.1 247.3 1286 246.9 1293.9 265.3 1294.7 285.3 1298 283 1302.9 281.8 1312 274.2 1356.3 273 1369.2 Z" data-holc_grade="C"/>
<path d="M 238.1 1186.2 291.3 1194.4 294.6 1179 297.6 1179.5 303.1 1180.4 304.6 1190.3 303.7 1202.6 300.1 1214.9 297.4 1226.3 290.1 1235.3 280 1243.9 272.3 1250.4 252.4 1274.9 247.3 1286 238.5 1286.1 236.5 1304.5 219.5 1305.9 222.2 1290.3 227 1274.9 229.5 1265.4 230.3 1258.7 229.8 1257.5 198.7 1265 187.4 1266.2 190.7 1255 152.1 1250.7 150.3 1261.5 121.8 1257.4 108.2 1256 136.3 1172.1 148.2 1172.4 238.1 1186.2 Z" data-holc_grade="C"/>
<path d="M 1382.7 1302.9 1338.4 1509.6 1270.9 1501.7 1227.9 1639.7 1160.4 1603.9 1245.2 1497.5 1235.8 1457.5 1252.5 1375.9 1264 1314.1 1270.6 1278.4 1341.4 1289.5 1382.7 1302.9 Z" data-holc_grade="C"/>
<path d="M 288.1 1247.9 280 1243.9 290.1 1235.3 297.4 1226.3 300.1 1214.9 303.7 1202.6 304.6 1190.3 303.1 1180.4 297.6 1179.5 300.1 1149.4 299.8 1131.9 335.2 1132.2 354.9 1132.7 359.6 1133 387.2 1135 384.2 1168.4 423 1171.9 422 1193.9 434.8 1196.3 433.2 1214.5 454.1 1216.6 451.1 1237.9 405.1 1234.6 383.6 1232.7 378.2 1245.9 370.9 1257.5 347.9 1265.1 334.6 1263.7 312.2 1256.6 288.1 1247.9 Z M 1021.5 49.7 1163.5 78 1178 126.8 1106.9 126.8 1061.5 128 1044.8 130.2 1053 86 1053.3 69.5 1022.4 70 1021.5 49.7 Z" data-holc_grade="C"/>
<path d="M 617.9 1332.3 617.3 1335.1 592.5 1340.3 575.2 1339.6 562.5 1335.8 554 1329.7 561.7 1299 564.3 1282.1 570.6 1255.8 597.4 1259.2 628.6 1260.6 643 1249.3 648.8 1247.4 638.8 1270.8 630 1296.3 623.3 1309.6 617.9 1332.3 Z" data-holc_grade="C"/>
<path d="M 597.4 1259.2 570.6 1255.8 564.3 1282.1 561.7 1299 553.4 1299.4 534.1 1298.2 518.5 1295.6 498.1 1290.3 482.8 1284.6 472.7 1280.5 472.3 1275 472.6 1272.9 478.6 1235.9 487 1228.5 478.8 1216.2 480.8 1202.9 498.1 1203.9 502.2 1199 501.6 1165.4 503.8 1165.4 505 1155.8 505 1142.2 519.2 1141.1 519.3 1169.7 518.7 1185.1 530.8 1185.6 546 1187.2 582.1 1184.3 578.4 1202.5 571.2 1231.3 585.5 1233.7 604.9 1228.8 597.4 1259.2 Z" data-holc_grade="C"/>
<path d="M 284.2 882.3 265 883.1 265.5 856.1 237.3 857.1 248.4 824.4 283.7 823.4 284.2 882.3 Z" data-holc_grade="C"/>
<path d="M 292.2 677.7 320.8 669.3 327.3 675.9 347 676.5 345.9 702.7 343 731.3 285 730 277.3 729.2 292.2 677.7 Z" data-holc_grade="C"/>
<path d="M 456.1 723.5 459.6 724 455 748.9 453.9 760.2 452.4 764.2 445.2 762.1 438.5 756.9 436.6 753.5 435.5 747.7 437.4 739.7 436.8 735.8 434.5 731.4 433.6 727.1 436.8 723.9 439.1 721.2 456.1 723.5 Z" data-holc_grade="C"/>
<path d="M 703.7 813.4 632.4 804.2 634.6 794.1 634.1 780.8 659.9 797.1 733 805.2 732.5 816.6 703.7 813.4 Z" data-holc_grade="C"/>
<path d="M 853 572 908.6 595.4 933.3 605.9 896 655.5 912.7 663.2 856.2 738.8 834.9 761 796.8 811.1 747.9 806.6 752.8 770.8 746.7 769.4 717.7 766.3 718 758 724.3 753.3 719.6 742.7 719.6 738.8 722 706 728.9 706 729.2 704.3 775.2 713.5 775.7 704.1 789.6 681.6 806.5 663.1 815.6 655.1 808 651.1 817.3 615.5 806.7 611.2 798.7 646.4 756 624.9 744.7 640.9 743.2 651.3 732.3 685.4 696.8 677.4 694.7 677.4 690.8 677.3 681.6 674.6 657.1 667.5 644.4 666.7 642.8 648.4 667.8 651.8 702.5 656.6 709.4 625.5 684.3 611.1 697 592.2 726.3 608.8 726.7 604.8 725.9 588.7 743.7 587.9 761.8 588.8 796.5 602.7 818.5 612.9 822.1 597.4 822.5 584.9 833.6 589.2 842.7 571.5 853 572 Z" data-holc_grade="C"/>
<path d="M 1022.9 243.6 1041.1 261.9 1044.9 269.4 1049.9 273.3 1067.3 295.6 1071.3 299.7 1117.2 330.4 1153.3 349.1 1141.9 361.7 1140.4 363.2 1129.9 379.4 1110.2 410.5 1102.9 418.9 1091 433.9 1077.1 454.6 1062.3 479.6 1045.6 498.6 1017.4 534.7 1000 555.7 998.2 557.9 986.9 565.8 978.5 576 951.8 613.4 948.4 613.2 955.5 599.6 959.8 587 962.5 576.6 961.5 563.4 962.8 558.5 963.8 553.6 962 544.9 956.2 531.5 941.1 507.3 932 489.8 926.2 480.1 920.9 474.6 909.8 469.5 903.3 469.1 894.2 468.7 880.3 469.1 863.7 494.3 855.8 490 842 481.5 836.4 477.2 830.6 470.3 837.1 462.3 847.7 450 868.9 420.1 882 402.6 891 390 926.8 403.2 976.9 425.4 983.8 413.3 993.7 401.4 1002.2 389.2 1016.7 369.2 1002.4 364 962 347 930.9 334.4 975.3 272.5 985.1 268.8 1022.9 243.6 Z M 1022.9 243.6 994.4 228.6 997.4 193.8 1007.1 194.1 1023.1 193.2 1022.8 190.1 1025.5 177.3 1056.2 175.4 1063.1 176.1 1059.7 186.9 1059.4 204.2 1042.6 203.9 1040.7 218.4 1038.3 220.6 1035.1 236.1 1022.9 243.6 Z" data-holc_grade="C"/>
<path d="M 1068.1 1563.9 1040.3 1550.1 1014 1582.9 1006.3 1579.1 1033.7 1539.1 1042.4 1517.7 1114.1 1555.3 1114.4 1563.6 1126.8 1570.2 1123.8 1581.6 1075.1 1557.9 1068.1 1563.9 Z" data-holc_grade="C"/>
<path d="M 444.6 450.8 415.7 433.8 389.9 421.7 378.8 416.8 374.3 422.6 358.9 419.7 368.2 377.7 382.4 333.8 389.4 310.4 445.7 311.3 445.2 322.2 440.4 336.1 426.8 335.9 434.3 396.9 469.6 401.3 461.1 420.2 458 431.4 449.7 445.6 444.6 450.8 Z" data-holc_grade="C"/>
<path d="M 559.9 245.4 574.5 237.4 617.9 222.4 646.4 209.8 647.2 197.6 676.9 189.5 686.5 186.8 694.8 182.9 724.4 174.4 749.1 162.4 754.9 170.7 753.4 184.2 786.1 180.3 798.5 179.1 794.2 198.6 789.9 212 785.1 238.9 778.1 265.7 771.5 283.8 765.5 277.9 753.9 272.2 742.8 267.9 738.6 266.8 743 261.4 751.4 239.3 753 224.9 726 221.4 688.9 217.5 681.6 217.3 666.1 222.8 662.4 225.9 662.7 232.5 666.3 249 672.3 268.6 676.6 279.9 691.5 279.3 738.8 273.8 722.6 298 719.3 297 636.8 310.2 620.7 313.5 617.7 324.7 616.9 332 606.6 353.3 604.6 354.4 602 362.9 581.4 359 580.1 367.6 585.1 375.3 580.2 375.1 552.6 374.9 470.1 374.3 475.9 337.9 489.8 339.7 502.4 319 546 350.1 550.8 344.4 542.5 335.9 540.5 310.2 576.1 311.7 559.9 245.4 Z" data-holc_grade="C"/>
<path d="M 676.9 189.5 647.2 197.6 648.8 174.3 647.2 144.4 647.6 109.2 610.5 109.2 611.7 96 608.8 78.8 608.8 55.6 611.9 28.9 678.2 46 682.7 60.8 686.3 66.3 663.3 61.7 675.7 68.8 694.1 84 686.8 86.3 684.7 108 681.5 126.8 678.4 164 676.9 189.5 Z" data-holc_grade="C"/>
<path d="M 525.4 94.3 525.6 101.9 523.4 107.2 523.6 130.3 500.9 129.3 483.5 127.1 469.9 126.3 470.7 90.6 468.3 59.5 471.2 47.3 477.6 18.1 527 30.1 524.1 48.4 523.8 63.2 525.7 78.2 525.4 94.3 Z" data-holc_grade="C"/>
<path d="M 540.8 225.5 541 234.1 540.3 239.2 495.4 235.3 496.6 211.1 507.8 200.1 512.3 204.4 535.5 221 540.8 225.5 Z" data-holc_grade="C"/>
<path d="M 823.5 151.4 828.2 144.7 824.3 140.1 821.9 135.4 819.9 120.9 818.1 114.9 811.8 97.6 809.6 87.1 808.6 86 800.5 86.8 798.7 70.4 777.7 71 773.9 67.2 772.7 62.4 774.5 57.8 776.1 46.5 773.3 32.6 774.1 23.5 778.3 15 896.2 27.7 940.3 33.8 937.8 69.4 850.5 68.2 857.8 97.4 842 97.6 847.8 112.5 847 135.9 853.3 163.3 823.5 151.4 Z" data-holc_grade="C"/>
<path d="M 328.6 1541.3 370.2 1546.4 368.9 1557 367.8 1576.4 361.8 1575.8 308.6 1567.4 269 1560.7 270.5 1553.5 271.3 1535 320 1540.3 328.6 1541.3 Z" data-holc_grade="C"/>
<path d="M 689.8 1635.4 667.5 1633.5 672.7 1610.1 675 1588.2 677.9 1542.5 607.5 1536.7 614.8 1476.4 638.5 1477.8 660.3 1516.9 686.3 1541.2 723.2 1579.3 734.8 1592.2 757.1 1618.2 749.2 1624 737.4 1630.3 726.1 1634.9 712.9 1638.3 701.3 1637.3 689.8 1635.4 Z" data-holc_grade="C"/>
<path d="M 727 1695.9 726 1689.8 706.4 1686.3 692.7 1685.2 673.7 1684 667.3 1682.4 663.7 1681.9 674.6 1664.2 693.5 1667.1 712.4 1669.1 725.7 1669.7 729.3 1665.7 734.1 1661.9 739.5 1668.7 748.5 1686.2 732.3 1693.7 727 1695.9 Z" data-holc_grade="C"/>
<path d="M 549.5 1725 569.2 1730.2 572.5 1777.4 549.7 1776.4 551.3 1765.7 550.7 1755.7 538.6 1725.9 549.5 1725 Z" data-holc_grade="C"/>
<path d="M 617.9 1332.3 623.3 1309.6 630 1296.3 638.8 1270.8 648.8 1247.4 666.4 1207.9 691.8 1197.1 709 1193.3 737.8 1184.1 730.4 1192.2 732.8 1221.2 722.9 1230.2 687.8 1272.1 682.7 1275.7 670 1278.1 660.2 1282.2 657.1 1289 657.7 1296.2 652.3 1307.9 682.5 1310.7 679.7 1322.4 678.9 1335.7 676.7 1351.9 671.5 1369.2 668.6 1382.8 666 1396.8 661.2 1420.7 662.2 1428.1 668.4 1438.6 649.9 1446.4 636.9 1432.3 628.9 1419.9 625.4 1412.3 624.8 1405.5 603.9 1368.8 620.6 1356 635.1 1341 630.3 1328.1 617.9 1332.3 Z" data-holc_grade="C"/>
<path d="M 1011.3 1782.6 1014.4 1820.9 1008.9 1837.2 1006.3 1842.9 1007.5 1852.4 1010.8 1857.8 1025.3 1864.7 1031.4 1865.8 1031.4 1869.2 1032 1876 1035.3 1881.9 1041.7 1887.2 1055.9 1892.6 1067.4 1894.9 1038 1911.8 1024.7 1928.8 1020.3 1962.6 1014.2 1980.9 1011 1994.5 1011 2011.5 890.8 1988.8 896.4 1975.5 903.3 1950.3 894.8 1948.4 892 1942.7 913.8 1930.1 874.6 1904.5 903.3 1872.6 895.6 1867.9 886.7 1879.9 862.9 1901.1 808.8 1891.6 889.1 1807.3 930.7 1831.9 942.8 1832.6 957.7 1817.1 907.3 1787.4 944.4 1749.2 952.1 1757.8 1006.2 1773.2 1011.3 1782.6 Z" data-holc_grade="C"/>
<path d="M 737.8 1184.1 709 1193.3 691.8 1197.1 666.4 1207.9 665.4 1203.6 680.3 1181.3 714.4 1183.4 718.7 1166.2 755.4 1169.2 756.6 1155.5 762 1124.2 780.8 1126.9 787.5 1130.4 791.1 1103.1 864.9 1110.4 856.5 1149.8 836.7 1153.1 823.4 1157.3 789.1 1168.7 737.8 1184.1 Z" data-holc_grade="C"/>
<path d="M 1045.5 1226.1 1045.5 1237.8 1041.5 1254.1 1032.1 1294.6 1029.7 1316.6 991.6 1312.9 994 1288.1 997.6 1288.1 1004 1246.2 983.4 1244.3 976.8 1287.8 877.8 1279.6 881.5 1268.7 870.6 1262.1 882.7 1208.6 857.9 1205.8 834.9 1202 819.2 1196.3 813.7 1183.1 851.3 1159.7 851.3 1166.1 868.5 1168.2 870 1155.7 972.6 1148.3 971.1 1158 1054.6 1173.6 1055.9 1165.1 1061.3 1163.9 1062.5 1162 1093.4 1164.6 1099.1 1168 1072.8 1187.1 1055.6 1184.7 1047.4 1219.3 1001.1 1212.4 997.4 1238.7 1045.5 1226.1 Z M 1012.6 1113.2 1011 1125.5 980.8 1122.4 978.3 1133.9 884.7 1145.7 887.1 1135.4 883.5 1132.8 886.1 1114.8 910.3 1117.5 912.2 1104.1 944.6 1107.9 946.5 1106.4 963.2 1108.5 983.6 1109.6 1012.6 1113.2 Z" data-holc_grade="C"/>
<path d="M 1400.5 1222.4 1439.3 1226.8 1510.9 1246.3 1508.4 1264.4 1495.5 1269.3 1433.5 1253.4 1433.3 1249.2 1395.2 1244.9 1400.5 1222.4 Z M 1400.5 1222.4 1320.8 1212 1321.1 1209.7 1322.7 1197.8 1289.7 1193.3 1286 1208.9 1137.7 1194.9 1116.5 1191.5 1094.8 1188.1 1117.1 1167.6 1144.6 1171.4 1289.1 1184.8 1345 1193.1 1405 1200 1400.5 1222.4 Z" data-holc_grade="C"/>
<path d="M 1095.1 1116.4 1099.8 1088.3 1105.6 1065.9 1107.6 1056.6 1168.6 1058.7 1158 1090.4 1154.5 1096.5 1156 1106.4 1095.1 1116.4 Z" data-holc_grade="C"/>
<path d="M 1337.5 1028.1 1336.8 1031.7 1331.8 1042.1 1328.3 1051.6 1180 1022 1175.7 1034.6 1087.6 1016.9 1092.9 982.4 1153.9 996.2 1156.2 989.9 1337.5 1028.1 Z" data-holc_grade="C"/>
</g>
<g id="D">
<path d="M 2276.8 471.2 2276.5 458.8 2275.9 443.7 2277.4 408 2276.6 391.6 2277.6 338.3 2288.2 338.6 2302.4 339.5 2318.1 338.6 2320 403.7 2345.4 403.3 2345.4 418.1 2336 419.5 2335.7 426.4 2283.6 427.3 2282.7 442.9 2304.8 442.7 2297 465.4 2324.5 465.4 2326 475.8 2274.9 498.4 2276.8 471.2 Z" data-holc_grade="D"/>
<path d="M 1988.1 1161.3 1940 1198.8 1916.8 1212.7 1891.9 1192.4 1882.2 1180.1 1877.8 1172.2 1878.2 1161.8 1879.8 1155.5 1889.5 1148 1904 1137.6 1914.9 1127.1 1926.2 1119.9 1934.7 1115.8 1988.1 1161.3 Z" data-holc_grade="D"/>
<path d="M 2149.4 1220.8 2163.9 1233.4 2167.1 1236.4 2195.8 1262.7 2214.7 1278.8 2223.8 1285.4 2225.6 1286.7 2198.2 1308.1 2205.4 1316.6 2184.1 1329.3 2114.8 1270.7 1988.1 1161.3 2037.6 1123.7 2149.4 1220.8 Z" data-holc_grade="D"/>
<path d="M 2114.8 1270.7 2086.9 1293 2066.3 1307.9 2068.9 1310 2060.6 1315.3 2119.2 1368.5 2111.6 1374 2086.4 1352.3 2072.2 1362.6 2066.7 1365 2030.4 1335.6 2002.6 1353.9 1934.4 1296.8 1954.6 1281.4 1913 1241.3 1913.8 1214.5 1916.8 1212.7 1940 1198.8 1988.1 1161.3 2114.8 1270.7 Z" data-holc_grade="D"/>
<path d="M 2197 1360.8 2215.5 1347.6 2223.6 1353.1 2251.3 1379.9 2296.2 1419.4 2284.1 1427.6 2296.2 1445 2326.5 1474.6 2350.7 1502.6 2317.4 1520.7 2275.5 1550.3 2247.8 1567.6 2236.2 1557.8 2214.5 1538 2208.4 1531.7 2173.6 1499.8 2156 1481.7 2188.3 1462.3 2072.2 1362.6 2086.4 1352.3 2111.6 1374 2119.2 1368.5 2060.6 1315.3 2068.9 1310 2181.7 1402.5 2211.9 1380.4 2193.4 1363.4 2197 1360.8 Z M 2294.3 1499.3 2280.4 1484.9 2270.8 1477.4 2265.8 1473.5 2257.9 1461.3 2241.8 1445.5 2224.9 1457.5 2281.1 1508.2 2294.3 1499.3 Z M 2288.5 1510.8 2273.1 1520 2266.5 1516.3 2248.1 1528.7 2268.3 1547.4 2304.9 1524.2 2288.5 1510.8 Z" data-holc_grade="D"/>
<path d="M 1849.1 1332.8 1858.2 1300.3 1901.1 1309.9 1975.7 1373 1966.9 1396.5 1897.5 1342.7 1849.1 1332.8 Z" data-holc_grade="D"/>
<path d="M 2606.4 964 2454.6 987.7 2306.3 1007.8 2305.3 1003.4 2301.2 971.9 2347.6 944.7 2398.1 921.5 2434.9 893.9 2473.2 858.5 2503 838.4 2526.7 830.9 2523.2 827 2572.6 829.3 2601.9 831.3 2599.8 861.2 2603.4 891.2 2595.8 892.3 2606.4 964 Z" data-holc_grade="D"/>
<path d="M 2059.1 597 2059.1 550.8 2102.8 515.1 2072.8 489.4 2084.1 479.9 2100.8 490.3 2154.5 448 2158.3 459.6 2276.5 458.8 2276.8 471.2 2155.7 471.4 2152.2 480.5 2145.1 487.8 2124.2 504.7 2156 533.4 2146.7 543.9 2150.9 550 2133 558.2 2065.4 558.8 2065.7 566.9 2121.9 566.5 2122.7 596.2 2059.1 597 Z" data-holc_grade="D"/>
<path d="M 2159.6 360.3 2117.6 392 2117.5 391.9 2043.6 450.7 2010.7 477.9 2050.9 511.7 2021.8 535.8 1982.2 505 2004.3 486.2 1991.9 474.6 2088.1 397.8 2082.4 393.8 2142.9 343.7 2144.4 330 2153.5 330.3 2155.6 309.3 2193.4 309.3 2193.4 329.8 2159.6 360.3 Z" data-holc_grade="D"/>
<path d="M 2023.1 386.1 2023.3 407.8 2011.5 407.4 2010.7 416.8 2015.8 416.4 2015.5 432.2 1923.7 435.1 1924.7 453.6 1953.7 453.4 1952.2 476.3 1933 476.4 1933.3 494.9 1888.9 494.6 1889.4 435.7 1865.5 434.5 1865.7 419 1869 405.6 1874.3 408.2 1886.9 410.9 1888.4 402.8 1887.9 397.9 1892.2 388.3 1908.1 374.9 1927.8 366.2 1952 402.6 1956.5 403.2 1957.3 382.4 1966.3 382.2 1970.1 366.8 2023.1 363.3 2023.1 386.1 Z M 2113.4 345.8 2093.7 364.1 2085.4 360.3 2083.3 356.8 2081.7 349.3 2093.2 328.9 2099.3 332.1 2113.4 345.8 Z" data-holc_grade="D"/>
<path d="M 2059.1 597 2059.1 680.3 2030.1 683.3 2011.2 684.6 1978.7 680.3 1977.4 668.5 1944.6 669.3 1981.7 551.2 2036.7 551.8 2059.1 550.8 2059.1 597 Z" data-holc_grade="D"/>
<path d="M 1908.7 745.7 1923.3 736.1 1902.1 709.5 1874.6 723.3 1874.4 732.7 1873.1 789.2 1844.4 788.2 1840.8 737.6 1871.8 720.9 1874.6 683.7 1920 687.2 1926.6 689 1933.9 701.2 1932.1 709.5 1931.9 718.1 1932.9 728.4 1932.1 735.3 1937.2 756.5 1939.9 772.1 1908.7 745.7 Z M 1932.5 604.9 1925.4 628.6 1936.9 631.6 1924 675.7 1849.2 656.7 1862.7 613.8 1904 624.1 1911.9 600.9 1932.5 604.9 Z" data-holc_grade="D"/>
<path d="M 1800.5 829.8 1991.4 828.2 1991.9 866.2 1884.2 948.4 1825.4 950.7 1818.9 918 1814.3 883.6 1811.3 866.2 1800.5 829.8 Z" data-holc_grade="D"/>
<path d="M 1944.2 928.7 1995.7 890.6 2015.6 905.6 1961.4 946.8 1944.2 928.7 Z" data-holc_grade="D"/>
<path d="M 2101.9 1076.8 2037.6 1123.7 1988.1 1161.3 1934.7 1115.8 1930.2 1109.5 2027.9 1065.4 2066.2 1047.7 2036.4 1023.4 2105 974 2167.9 1028.8 2101.9 1076.8 Z" data-holc_grade="D"/>
<path d="M 1067.4 1894.9 1055.9 1892.6 1041.7 1887.2 1035.3 1881.9 1032 1876 1031.4 1869.2 1031.4 1865.8 1025.3 1864.7 1010.8 1857.8 1007.5 1852.4 1006.3 1842.9 1008.9 1837.2 1012.2 1839.4 1040.7 1818.8 1075.5 1788.9 1215.3 1666.1 1211.4 1664.5 1219.5 1651.9 1227.9 1639.7 1270.9 1501.7 1338.4 1509.6 1368 1513 1335.2 1542.6 1328.9 1567.2 1258.4 1672.9 1266.5 1678.2 1251.1 1683.6 1244.4 1689 1149.4 1770 1138.2 1841.2 1129.1 1862.8 1090.4 1895.7 1071 1895.7 1067.4 1894.9 Z" data-holc_grade="D"/>
<path d="M 1669.6 987.4 1561.6 962.6 1552.5 962.3 1513.1 954 1468.7 945.1 1464.7 945.1 1398.2 925.5 1438.5 868.3 1467.8 882.1 1507.5 832.9 1544.3 851.8 1588.9 859.8 1574.3 835.2 1657.1 808.4 1732.1 952.6 1710 956.6 1704.5 983.4 1685.8 979.8 1683 988.1 1669.6 987.4 Z" data-holc_grade="D"/>
<path d="M 288.1 1247.9 293.3 1250.5 326 1271.2 341.1 1298.9 339.7 1303.3 333.6 1338.4 323.3 1336.7 320.2 1347.4 277.3 1367.2 273 1369.2 274.2 1356.3 281.8 1312 283 1302.9 285.3 1298 265.3 1294.7 246.9 1293.9 247.3 1286 252.4 1274.9 272.3 1250.4 280 1243.9 288.1 1247.9 Z" data-holc_grade="D"/>
<path d="M 505.4 1091 514.7 1093.1 511.4 1101.3 508.2 1108.5 507.2 1115.8 505 1126.5 503.6 1142 505 1142.2 505 1155.8 503.8 1165.4 501.6 1165.4 475.5 1165.1 476.6 1138.4 471.2 1133.4 471.5 1119.7 474.1 1086.8 476.5 1085.7 505.4 1091 Z" data-holc_grade="D"/>
<path d="M 387.2 1135 359.6 1133 370.1 1122.8 372.4 1111.5 371.6 1089.6 404.2 1091.4 420.6 1092.3 416.4 1126.3 396.6 1124.3 395 1135.7 387.2 1135 Z" data-holc_grade="D"/>
<path d="M 456.1 723.5 439.1 721.2 437.8 721 410 717.8 413 683.4 435.4 687.1 459.8 689.4 456.1 723.5 Z" data-holc_grade="D"/>
<path d="M 320.8 669.3 292.2 677.7 303.4 637.6 339.5 629.7 339.3 650.5 338.3 666.7 328.6 667.1 320.8 669.3 Z" data-holc_grade="D"/>
<path d="M 647.2 197.6 646.4 209.8 617.9 222.4 574.5 237.4 559.9 245.4 552.9 235.9 540.8 225.5 535.5 221 512.3 204.4 507.8 200.1 491.3 184.4 483 168 480.7 166.3 473.7 150.3 469.9 126.3 483.5 127.1 500.9 129.3 523.6 130.3 523.4 107.2 525.6 101.9 525.4 94.3 539.8 97.8 552.4 98.8 566.7 98.6 611.7 96 610.5 109.2 647.6 109.2 647.2 144.4 648.8 174.3 647.2 197.6 Z" data-holc_grade="D"/>
<path d="M 1382.7 1302.9 1395.2 1244.9 1433.3 1249.2 1433.5 1253.4 1495.5 1269.3 1508.4 1264.4 1510.9 1246.3 1439.3 1226.8 1400.5 1222.4 1405 1200 1345 1193.1 1289.1 1184.8 1144.6 1171.4 1117.1 1167.6 1145.9 1144.6 1147.3 1143.6 1149.1 1161 1238 1168.1 1240.9 1150 1248.6 1136.8 1255.7 1105.1 1698.9 1193.9 1715.4 1204.6 1680.9 1261.4 1641.4 1327.9 1621.8 1354.2 1590.1 1384.5 1552.4 1344.9 1534.4 1367 1519.7 1356.8 1473.9 1342.4 1465.4 1385.5 1458.4 1423.5 1469.1 1422.2 1514.3 1395.2 1544.7 1422.2 1492.7 1452.9 1486.8 1448.2 1471.3 1457.4 1463.8 1452.5 1453.9 1455.9 1445.7 1455.5 1443.8 1458.8 1407.1 1504.5 1393.8 1513 1388 1513.7 1385.1 1512.9 1398.6 1454.4 1395.6 1453.9 1394.8 1452 1403.3 1444.6 1406.7 1443 1428.3 1429.3 1391 1423.9 1383.7 1452.8 1378.1 1452.6 1373.6 1478.5 1378.7 1485.8 1376.5 1495.5 1376.7 1498.1 1377.5 1500.3 1379.9 1501.8 1368 1513 1338.4 1509.6 1382.7 1302.9 Z" data-holc_grade="D"/>
<path d="M 1147.3 1143.6 1145.9 1144.6 1140.6 1145.2 1108.1 1147.6 1090.4 1143.8 1095.1 1116.4 1156 1106.4 1208.9 1098.9 1147.3 1143.6 Z" data-holc_grade="D"/>
<path d="M 1156 1106.4 1154.5 1096.5 1158 1090.4 1168.6 1058.7 1179.4 1055.3 1247.3 1068.1 1208.9 1098.9 1156 1106.4 Z" data-holc_grade="D"/>
<path d="M 1364.3 986.1 1356.1 997.8 1349.7 1001.8 1323.1 990.8 1316.3 998.4 1322.6 1002.9 1315 1013.1 1295.4 1008.6 1276 1000.1 1273.5 1002.9 1235.1 986.3 1232.4 995.4 1188.5 985.9 1191 978.3 1168 972.1 1151.7 968.2 1133 964.5 1138.3 947.5 1151.9 928 1166.8 909.9 1171.8 903 1262.4 941.2 1337.5 973.9 1364.3 986.1 Z" data-holc_grade="D"/>
<path d="M 1388.9 938.8 1364.3 986.1 1337.5 973.9 1262.4 941.2 1171.8 903 1196.5 868.7 1211.7 846.3 1216 840.1 1206.8 835.2 1212.1 827.3 1191.3 816.7 1214.6 781.5 1342.4 839.4 1318.7 875.7 1358.4 894.2 1351.1 906.3 1366.6 912.7 1388.9 938.8 Z" data-holc_grade="D"/>
<path d="M 1328.3 777.1 1319 788.4 1320.8 794.6 1312.6 805.9 1276.9 789.6 1282.3 779.2 1289.9 781.8 1302.9 764.1 1328.3 777.1 Z" data-holc_grade="D"/>
<path d="M 1328.3 1051.6 1331.8 1042.1 1336.8 1031.7 1337.5 1028.1 1339.7 1020.1 1377.9 1028.3 1432.1 1040.1 1450 1042.7 1478 1048.4 1471.2 1068.9 1393.3 1070.7 1340.3 1071.9 1322.4 1068.1 1328.3 1051.6 Z" data-holc_grade="D"/>
<path d="M 1356.1 997.8 1364.3 986.1 1388.9 938.8 1398.2 925.5 1464.7 945.1 1468.7 945.1 1513.1 954 1552.5 962.3 1561.6 962.6 1669.6 987.4 1662.9 1006.8 1644.8 1004.9 1635.7 1021.4 1628.4 1021.4 1623 1030.4 1613 1027.8 1611.2 1034.4 1510.4 1015.5 1509.2 1031.1 1362.1 1000.1 1356.1 997.8 Z" data-holc_grade="D"/>
</g>
</svg>