<?xml version="1.0"?>
<svg xmlns="http://www.w3.org/2000/svg" version="1.2" baseProfile="tiny" width="3000" height="2327" viewBox="0 0 3000 2327" stroke-linecap="round" stroke-linejoin="round">
<g id="A">
<path d="M 575.6 566.9 542 454.9 866.1 355.7 922.3 459.5 575.6 566.9 Z" data-holc_grade="A"/>
<path d="M 968.9 536 872.2 567.4 916 695.1 890 704.7 894.8 714.2 867 722.3 641.8 787.6 618.3 709.3 645.8 699.1 626 645.9 603.3 659.4 575.6 566.9 922.3 459.5 968.9 536 Z" data-holc_grade="A"/>
<path d="M 552.3 1101.1 537.4 1032.4 522.2 1035.4 500.3 1039.9 464.1 861.6 590.3 815.9 597.8 817.9 746.6 774.3 752.8 799.5 751.4 814.6 872.8 786.6 878.3 766.1 867 722.3 894.8 714.2 911.2 770.9 918.8 792.1 797.4 819.4 807.6 871.3 715.7 893.1 734.9 973.7 763 965.5 789.1 1073.4 706.8 1091.2 672.5 1089.8 653.3 1093.2 607.3 1108.2 574.4 1112.3 553.8 1108.2 552.3 1101.1 Z M 665.7 945 627.2 966.1 585.4 1000.3 573.7 1033.1 563.4 1055.6 571 1065.2 591.5 1067.2 650.5 1049.5 689.6 1050.9 665.7 945 Z" data-holc_grade="A"/>
</g>
<g id="B">
<path d="M 542 454.9 575.6 566.9 603.3 659.4 618.3 709.3 383.8 785.8 373.6 759.8 184.2 821.8 40.4 869.3 1 747.4 326.3 647.8 258.4 427.4 505.9 349.4 520.7 386 542 454.9 Z" data-holc_grade="B"/>
<path d="M 500.3 1039.9 489.4 1044 501 1094.5 532.6 1087.7 522.2 1035.4 537.4 1032.4 552.3 1101.1 425.9 1129.2 388.5 1137.5 383.7 1103.3 276 1129.9 272.8 1114.7 234.3 935.9 309 906.6 464.1 861.6 500.3 1039.9 Z" data-holc_grade="B"/>
<path d="M 872.3 1056.1 857.7 1003.1 821.3 1009.9 833.6 1064.2 789.1 1073.4 763 965.5 734.9 973.7 715.7 893.1 807.6 871.3 797.4 819.4 918.8 792.1 921.5 812.6 937.3 808.5 989.3 1033.2 894 1051.6 872.3 1056.1 Z" data-holc_grade="B"/>
<path d="M 1769.9 837 1670.5 860.9 1666.2 848.1 1655 850.7 1623.3 689.3 1731.3 662.8 1769.9 837 Z" data-holc_grade="B"/>
<path d="M 2102.2 801.6 2073.3 810.6 2028.8 686.8 2194.6 638 2239.4 619.1 2276.1 747.4 2102.2 801.6 Z" data-holc_grade="B"/>
<path d="M 833.6 1064.2 838.4 1076.9 875.5 1070 872.3 1056.1 894 1051.6 920 1169.8 770.5 1202.5 760.2 1169 724.6 1176.5 710.9 1117.1 528.4 1170.3 540.7 1233.2 487.9 1240.7 450.2 1242.7 425.9 1129.2 552.3 1101.1 553.8 1108.2 574.4 1112.3 607.3 1108.2 653.3 1093.2 672.5 1089.8 706.8 1091.2 789.1 1073.4 833.6 1064.2 Z" data-holc_grade="B"/>
<path d="M 724.6 1176.5 705.4 1180.6 713.6 1208 603.2 1225 540.7 1233.2 528.4 1170.3 710.9 1117.1 724.6 1176.5 Z" data-holc_grade="B"/>
<path d="M 976.2 318.9 888.1 348.4 794.8 214.4 904.5 178.9 917.5 211 936.7 205.5 976.2 318.9 Z" data-holc_grade="B"/>
<path d="M 968.9 536 922.3 459.5 866.1 355.7 888.1 348.4 976.2 318.9 1060.1 290.9 1093.7 404.2 999.7 432.9 1033.3 536 1018.2 540.8 1007.3 523.7 968.9 536 Z" data-holc_grade="B"/>
<path d="M 1232.9 247.2 1198.6 258.1 1237 358.5 1203.6 369.2 1093.7 404.2 1060.1 290.9 1177.5 254 1227.4 238.3 1232.9 247.2 Z M 1156.1 343.5 1149.9 328.5 1088.2 346.9 1091.6 362.6 1156.1 343.5 Z" data-holc_grade="B"/>
<path d="M 184.2 821.8 373.6 759.8 383.8 785.8 618.3 709.3 641.8 787.6 210.5 925.1 184.2 821.8 Z" data-holc_grade="B"/>
<path d="M 894.8 714.2 890 704.7 916 695.1 872.2 567.4 968.9 536 1060.7 692.4 1069.6 722.4 911.2 770.9 894.8 714.2 Z" data-holc_grade="B"/>
<path d="M 1062.6 618.6 1018.2 540.8 1033.3 536 1099.5 516.6 1135.5 506 1149.9 527.8 1165 585.2 1062.6 618.6 Z" data-holc_grade="B"/>
<path d="M 1319.9 733.4 1303.3 736.1 1239 746.4 1232.8 733.4 1117.6 757.3 1093 671.9 1062.6 618.6 1165 585.2 1149.9 527.8 1135.5 506 1155.4 501.9 1144.4 464.3 1087.5 478.7 1099.5 516.6 1033.3 536 999.7 432.9 1093.7 404.2 1203.6 369.2 1319.9 733.4 Z" data-holc_grade="B"/>
<path d="M 1546.1 424.7 1598.4 405.1 1677.3 648.3 1662.7 651.8 1625 643.2 1597.6 648.3 1546.1 424.7 Z" data-holc_grade="B"/>
</g>
<g id="C">
<path d="M 1177.5 254 1060.1 290.9 1018.6 164.1 1136.1 127.4 1177.5 254 Z" data-holc_grade="C"/>
<path d="M 1670.5 860.9 1769.9 837 1802.5 998.3 1753.6 1008.6 1758.8 1036.8 1740.8 1040.2 1748.5 1082.9 1709.9 1091.4 1703 1058.1 1717.6 1053.8 1711.6 1028.2 1695.3 1031.6 1661.9 877.1 1678.2 874.6 1670.5 860.9 Z" data-holc_grade="C"/>
<path d="M 2073.3 810.6 2102.2 801.6 2143 921.4 2308.8 829.2 2338 914.8 2049.2 998.5 2033.1 944.4 2085 929.6 2048.3 818.2 2073.3 810.6 Z" data-holc_grade="C"/>
<path d="M 2804.2 823.8 2722.9 849.8 2355.9 967.4 2338 914.8 2308.8 829.2 2812.6 553.2 2804.2 823.8 Z" data-holc_grade="C"/>
<path d="M 2722.9 849.8 2804.2 823.8 2972.2 767.4 2999 1253.1 2906.4 1242.9 2712.6 1236.2 2669.7 1101.3 2800 1062 2722.9 849.8 Z" data-holc_grade="C"/>
<path d="M 2712.6 1236.2 2906.4 1242.9 2908.6 1326.3 2708.7 1385.8 2706.3 1329.8 2606.5 1361.3 2516.6 1394.5 2454.9 1366.5 2415.1 1243.2 2453.5 1230.2 2450.6 1222.6 2526.4 1228.7 2712.6 1236.2 Z" data-holc_grade="C"/>
<path d="M 1481 33 1558.1 11.6 1550.4 147.3 1519.6 156.7 1481 33 Z" data-holc_grade="C"/>
<path d="M 1203.6 369.2 1237 358.5 1198.6 258.1 1232.9 247.2 1308.3 463.7 1274 473.2 1287.7 519.7 1339.2 506 1332.3 491 1354.2 485.5 1357 493 1382.4 486.2 1374.8 525.8 1432.4 694.5 1391.3 701.3 1389.9 689.7 1347.4 697.2 1354.2 726.6 1319.9 733.4 1203.6 369.2 Z" data-holc_grade="C"/>
<path d="M 1427.9 557 1534.2 525.4 1541.9 578.4 1567.6 677.4 1473.3 698.7 1427.9 557 Z" data-holc_grade="C"/>
<path d="M 1741.6 519.4 1876.1 475 1913 602.2 1808.4 622.7 1798.2 591.1 1780.2 596.3 1788.7 627.8 1764.7 632.1 1748.4 574.9 1715 587.7 1730.4 638.1 1715.9 644.9 1691 569.8 1751 551.9 1741.6 519.4 Z" data-holc_grade="C"/>
<path d="M 2043.4 581.1 2205.5 524.9 2239.4 619.1 2194.6 638 2028.8 686.8 1998.7 596.6 2043.4 581.1 Z" data-holc_grade="C"/>
<path d="M 425.9 1129.2 450.2 1242.7 380.2 1240.6 326 1237.2 301.4 1231 282.2 1217.4 267.1 1192.8 90.1 1232.3 75.7 1157.8 272.8 1114.7 276 1129.9 383.7 1103.3 388.5 1137.5 425.9 1129.2 Z" data-holc_grade="C"/>
<path d="M 920 1169.8 894 1051.6 989.3 1033.2 937.3 808.5 955.8 803 962.6 833.1 1204.7 781.9 1274.6 1095.4 1229.4 1145.2 1221.8 1104.2 920 1169.8 Z M 1196.5 985.4 1204 1016.1 1236.2 1010.7 1227.3 979.3 1196.5 985.4 Z M 1128.6 1038.7 1134.1 1067.3 1168.3 1060.5 1161.5 1031.2 1128.6 1038.7 Z M 1057.2 1088.5 1063.4 1118.6 1104.6 1111.1 1095.6 1081 1057.2 1088.5 Z" data-holc_grade="C"/>
<path d="M 1239 746.4 1303.3 736.1 1317.9 807.2 1393.3 790.8 1424.9 927.4 1395.4 934.9 1424.2 1061.2 1348 1074.9 1341.9 1048.2 1326.1 1052.3 1315.1 997.7 1297.3 1000.4 1287.7 956.7 1297.3 954.7 1291.8 928.7 1280.1 931.5 1239 746.4 Z" data-holc_grade="C"/>
</g>
<g id="D">
<path d="M 2338.8 238.5 2287.6 203.9 2302.7 273.2 2310.9 269.1 2310.9 254.8 2327.7 241.8 2338.8 238.5 2349.9 275 2369.2 343 2414.5 459.3 2205.5 524.9 2043.4 581.1 2024.1 510.6 2042.6 495.9 1989.5 325.4 1946.3 202.6 1885.4 225.5 1830.7 56.3 1970.5 5.9 1994.8 1 2007.1 45.2 2073.8 25.6 2180.7 94.8 2246.6 133.3 2385.6 205.7 2338.8 238.5 Z" data-holc_grade="D"/>
<path d="M 1346.8 1840.7 1411 1827.2 1444.8 1910.4 1420.5 1916.2 1474.4 2086.3 1503.7 2082.2 1552.3 2236 1231.1 2325.8 1215.9 2248.3 1194.1 2114.7 1187.1 2080.2 1186.7 2042.5 1203.2 1986 1288.4 1864.2 1310.6 1877.3 1346.8 1840.7 Z" data-holc_grade="D"/>
<path d="M 1759.5 1871.6 1787.9 1991.7 1784.7 2053.2 1757.5 2063.5 1783.8 2136.9 1781.4 2169.7 1636.1 2214.4 1610.5 2116.4 1576.4 2125 1557.4 2113.9 1554.1 2102.4 1531.9 2106.1 1476.3 1851.2 1468.5 1814.7 1660.7 1772.5 1715.1 1763.8 1780.1 1748.3 1789.6 1814.3 1764 1822 1775.6 1868.4 1759.5 1871.6 Z M 1602.7 1956.9 1609.2 1993.1 1639.2 1987.8 1632.7 1951.6 1602.7 1956.9 Z" data-holc_grade="D"/>
<path d="M 675.6 1581.2 803.2 1548.4 789.5 1479.4 932.2 1448.1 954.1 1450.8 989.1 1470.6 1007.6 1555.3 880.7 1583.3 888.9 1617.5 859.4 1623.6 873.1 1689.2 703 1728.1 675.6 1581.2 Z" data-holc_grade="D"/>
<path d="M 1846 1200.4 1905.7 1475.4 1853.5 1487.7 1860.9 1512.7 1834.5 1516.4 1811.5 1397.9 1775.3 1406.1 1735.7 1222.9 1846 1200.4 Z M 1773.6 1239.7 1778.5 1263.5 1797.9 1258.2 1792.9 1235.2 1773.6 1239.7 Z" data-holc_grade="D"/>
<path d="M 2669.7 1101.3 2434.5 1177 2428 1179.1 2374.2 1021.2 2355.9 967.4 2722.9 849.8 2800 1062 2669.7 1101.3 Z" data-holc_grade="D"/>
<path d="M 2428 1179.1 2395.7 1190.6 2415.1 1243.2 2454.9 1366.5 2426.7 1355.2 2421.2 1335.4 2395.8 1342.9 2381.4 1300.5 2183.2 1364.8 2174.2 1338.2 2153 1344.3 2143.4 1312.2 2118 1319.1 2106.3 1284.9 1997.3 1318.4 2005.5 1345 2007.6 1369.6 2023.3 1366.9 2041.9 1429 1969.2 1454.3 1960.2 1414 1933.5 1418.1 1917 1344.4 1954.7 1331.4 1941 1276.7 1908.1 1283.6 1895.7 1229.6 1982.8 1210.5 1993.1 1241.2 2044.6 1224.8 2037 1198.2 2299.7 1212.5 2293.5 1195.4 2024 1170.9 2010.9 1131.2 2374.2 1021.2 2428 1179.1 Z" data-holc_grade="D"/>
<path d="M 2712.6 1236.2 2526.4 1228.7 2450.6 1222.6 2434.5 1177 2669.7 1101.3 2712.6 1236.2 Z" data-holc_grade="D"/>
<path d="M 1354.7 1647.6 1370.5 1719.3 1315.6 1802.7 1161.9 1831.3 1130.4 1694 1354.7 1647.6 Z M 1158 1713.9 1163.2 1739.2 1189.5 1733.8 1184.4 1708.6 1158 1713.9 Z" data-holc_grade="D"/>
<path d="M 1689.6 1545.1 1724.6 1718.9 1458.3 1775.5 1422.9 1609.5 1440.2 1606.6 1438.1 1598.4 1532.8 1579.2 1539.8 1606.6 1582.2 1598.4 1576.4 1566.9 1689.6 1545.1 Z M 1673.2 1603.3 1648.9 1609.1 1653.4 1634.5 1679.3 1629.2 1673.2 1603.3 Z M 1512.6 1712.8 1518 1738.2 1544.7 1732 1538.2 1707 1512.6 1712.8 Z" data-holc_grade="D"/>
<path d="M 1922.1 1534.9 1952.6 1667.4 1839.5 1692.4 1818.9 1585.5 1859 1592 1851.4 1550.6 1922.1 1534.9 Z M 1846.7 1604.6 1851.9 1627.9 1907.1 1615.6 1901.9 1592.3 1846.7 1604.6 Z" data-holc_grade="D"/>
</g>
</svg>