<?xml version="1.0"?>
<svg xmlns="http://www.w3.org/2000/svg" version="1.2" baseProfile="tiny" width="3000" height="2823" viewBox="0 0 3000 2823" stroke-linecap="round" stroke-linejoin="round">
<g id="A">
<path d="M 1966.9 980.4 1928.1 983.8 1856.7 990.2 1857.3 997.3 1796.7 1038.6 1753.1 998.4 1770 988 1758.5 969 1820.7 928.2 1814.7 797.3 1830.5 796.7 1830.5 745.1 1912.8 741.3 1911.2 703.2 1966.3 701.6 1967.4 707 2015.4 705.4 2019.2 754.3 2079.2 799.4 2083.6 847.7 2025.2 852.6 2025.8 876 1987.1 901 1980.5 892.9 1929.3 926 1966.9 980.4 Z" data-holc_grade="A"/>
<path d="M 2645.5 1273.3 2649.6 1334.9 2686.1 1354 2684.8 1360.8 2725.2 1376.4 2714.4 1404.9 2628.5 1343.6 2463.9 1296.6 2460.3 1214.2 2460.7 1213.7 2479.9 1189.8 2480.4 1189.8 2537.5 1190.4 2559.8 1199.1 2634.3 1263 2644.8 1262.7 2645.5 1273.3 Z" data-holc_grade="A"/>
<path d="M 1987.5 1567.1 1925.8 1570.4 1919.2 1484.5 2001.6 1481.2 2008.1 1565.4 1987.5 1567.1 Z M 2286.2 1305.9 2304.7 1314.8 2389.7 1300.3 2463.9 1296.6 2628.5 1343.6 2714.4 1404.9 2704.3 1431.7 2645.8 1438 2615.4 1412.4 2472.7 1421.4 2477.8 1496.2 2402.5 1501.1 2399.4 1488.5 2373.8 1463.7 2377.8 1458.2 2369.5 1453.9 2359.6 1454.3 2350 1458.9 2340.4 1440.2 2336.7 1437.6 2331 1438.7 2317.3 1447 2308.4 1463.5 2299.8 1467.2 2293.1 1468.3 2278.9 1466.4 2268.3 1468.6 2260.1 1416.8 2175.7 1422.3 2166.8 1257.1 2191 1260.1 2285.8 1305.7 2286.2 1305.9 Z" data-holc_grade="A"/>
<path d="M 907.2 1597.6 946.5 1586.7 956.3 1593.3 957.9 1621.5 942.6 1622.1 927.8 1719.4 872.2 1721 870 1648.2 906.6 1638.4 907.2 1597.6 Z M 1311 1722.8 1315.9 1830.5 1301.2 1836.5 1284.2 1829.9 1281.5 1797.8 1242.8 1803.8 1237.8 1789.7 1231.3 1744.5 1229.7 1713 1219.3 1571.1 1311 1564.5 1307.8 1507.5 1385.2 1504.7 1388 1581.4 1362.9 1585.8 1364.5 1598.3 1357.9 1607.5 1344.9 1614 1325.2 1614 1305 1614 1303.4 1624.9 1295.7 1624.9 1287.5 1628.2 1303.4 1667.3 1315.9 1705.4 1311 1722.8 Z" data-holc_grade="A"/>
<path d="M 2992 1509.7 2999 1665.2 2977.6 1663.4 2970.6 1503.4 2992 1509.7 Z M 2823.4 1356.3 2853.6 1357.4 2870.3 1351.6 2882 1373.7 2910.1 1482 2877.8 1578.8 2869.4 1567.3 2861.1 1560.7 2853.8 1562.9 2850.5 1559.3 2830.1 1557.9 2818.8 1552.1 2815.2 1561.9 2788.3 1547.4 2825.3 1449.8 2825.3 1449.1 2763.4 1430 2760.4 1352.4 2823 1350.5 2823.4 1356.3 Z" data-holc_grade="A"/>
</g>
<g id="B">
<path d="M 1770.9 474.7 1810.4 524.7 1810.4 545 1859.1 542 1867.2 681.1 1840.8 682.6 1755.8 688.6 1754.5 679 1735.2 678.6 1718.8 659.8 1699.9 658 1690.4 675.8 1606.8 652.7 1634.2 600.6 1624.2 587.5 1619.7 591.6 1528.8 509.2 1541.4 496.1 1591.2 440.7 1607.2 450.1 1623.2 437.4 1648.6 428.7 1681.4 449.7 1721 500.8 1767.2 470 1770.9 474.7 Z" data-holc_grade="B"/>
<path d="M 1379.6 1689.4 1376.9 1660.4 1396.9 1659 1396 1641.8 1414.6 1639.1 1416.4 1652.7 1461.9 1679.8 1379.6 1689.4 Z M 1406.5 1580.9 1388 1581.4 1385.2 1504.7 1307.8 1507.5 1311 1564.5 1219.3 1571.1 1145.1 1574.8 1145.7 1606.4 1153.3 1612.4 1158.7 1618.9 1158.7 1630.3 1164.2 1629.8 1179.5 1683.1 1187.1 1682 1196.4 1695.6 1205.7 1692.3 1207.8 1712.4 1229.7 1713 1231.3 1744.5 1237.8 1789.7 1216 1788 1207.3 1782.1 1189.8 1773.3 1182.7 1762.5 1177.3 1739.1 1139.1 1668.9 1107.4 1678.7 1009.2 1631.4 968.8 1595.4 956.3 1593.3 946.5 1586.7 907.2 1597.6 903.9 1537.2 925.4 1522.4 1026.7 1517.2 1022.4 1500.3 1033.8 1499.2 1065.5 1499.2 1211.7 1489.5 1241.5 1488 1341 1483 1385.3 1458 1400.5 1457.4 1406.5 1580.9 Z" data-holc_grade="B"/>
<path d="M 1284.2 1829.9 1301.2 1836.5 1315.9 1830.5 1311 1722.8 1344.6 1721.8 1349.2 1721.7 1463.8 1710.8 1520.8 1705.5 1533.1 1704.3 1527.1 1731.5 1526 1747.3 1540.2 1788.1 1541.3 1805.5 1533.1 1815.3 1511.3 1832.1 1499.8 1850.6 1503.7 1883.8 1467.1 1897.4 1435.4 1818 1465.5 1774.5 1467.6 1765.8 1471.5 1757.6 1472 1734.2 1463.3 1730.4 1449.1 1734.2 1449.1 1760.9 1422.3 1801.1 1430.5 1808.2 1349.2 1943.1 1291.9 1989.8 1284.2 1829.9 Z" data-holc_grade="B"/>
<path d="M 1526.8 2059.3 1541 2099 1590.1 2108.3 1600.5 2126.7 1593.9 2158.8 1560.6 2154.5 1474.4 2131.6 1452 2117.5 1457.5 2103.4 1456.9 2054.9 1431.3 1950.5 1441.6 1944 1437.8 1927.7 1475.2 1919.3 1526.8 2059.3 Z" data-holc_grade="B"/>
<path d="M 1859.1 542 1810.4 545 1810.4 524.7 1770.9 474.7 1812.2 444.6 1807.9 428.7 1802.7 332.3 1894.3 331.6 1898.4 414.2 1871.8 416.4 1871.8 443.5 1919.8 463.4 1962.4 465.2 1967.1 537.7 1859.1 542 Z" data-holc_grade="B"/>
<path d="M 2686.1 1354 2649.6 1334.9 2645.5 1273.3 2656.3 1271.7 2668.3 1257.2 2673.1 1263.7 2678.5 1285.1 2678.5 1303.9 2682.9 1323.5 2688.4 1333.3 2689.5 1344.5 2686.1 1354 Z" data-holc_grade="B"/>
<path d="M 2204.8 1715.6 2196.7 1586.8 2261 1582.7 2265.8 1618.6 2266.4 1672.5 2337.9 1669.7 2347.8 1770.3 2317.8 1763.2 2243 1757.3 2204.8 1715.6 Z" data-holc_grade="B"/>
<path d="M 750.1 981.5 748.9 1020 755.4 1038.1 755.4 1060.5 742.3 1101.1 745.9 1133 743 1143.9 749.5 1178.7 777.1 1212 748 1206.9 721.8 1208.4 716.1 1131.5 693.5 1131.5 689.2 1139.5 675.3 1140.9 674.6 1149.6 671 1151.1 674.7 1211.6 649.8 1214.1 641.2 1091.6 583.9 1092.8 581.3 1055.4 606.6 1056.2 603.2 957.1 646.8 951.9 674.7 986.7 750.1 981.5 Z" data-holc_grade="B"/>
<path d="M 917.6 1308.3 860.8 1309.8 857.1 1210.5 871.3 1203.9 887.6 1185 906.5 1163.3 907.6 1181.4 914.5 1183.2 933.7 1221.7 913.9 1233.3 917.6 1308.3 Z" data-holc_grade="B"/>
<path d="M 520.1 1096.2 583.9 1092.8 641.2 1091.6 649.8 1214.1 610.5 1217.7 462.9 1187.2 462.9 1160.4 462.9 1137.9 472.4 1107.5 481.1 1096.6 490.6 1090.1 504.4 1090.1 520.1 1096.2 Z" data-holc_grade="B"/>
<path d="M 1606.8 652.7 1523.3 806.6 1480.8 780.3 1405.6 736.5 1528.8 509.2 1619.7 591.6 1624.2 587.5 1634.2 600.6 1606.8 652.7 Z" data-holc_grade="B"/>
<path d="M 844.1 1324.8 910.2 1321.6 910.2 1346.2 935.7 1345.5 937.1 1381 990.2 1378.9 977.1 1307.8 995.3 1307.8 1023.7 1418 1012.7 1419.5 1011.3 1431.8 1005.5 1437.6 973.4 1439.8 951.6 1436.8 939.2 1439.7 922.5 1452.1 925.4 1522.4 811.1 1528.1 811.2 1436.8 914.5 1432.5 911.6 1370.1 806.9 1373 784.3 1390.4 782.9 1367.2 769.8 1373.7 758.8 1374.4 748 1206.9 777.1 1212 777.8 1225.8 769.8 1243.2 777.1 1328 844.1 1324.8 Z M 462.9 1187.2 610.5 1217.7 649.8 1214.1 674.7 1211.6 692.7 1209.8 702.9 1315.7 687.6 1323.6 689.7 1381.6 643.2 1385.2 643.1 1425.1 448.9 1433.6 439.6 1184.3 462.9 1187.2 Z" data-holc_grade="B"/>
<path d="M 2151 757.2 2152.8 779.2 2175.2 778.1 2184 910.7 2151.8 912.4 2133.8 903.7 2126.7 904.2 2123.4 868.9 2109.2 869.4 2097.8 869.5 2097.2 862.4 2091.2 862.4 2090.3 855.6 2081.5 856.3 2081.5 863.9 2084.2 866.7 2084.2 869.8 2082.2 873.5 2082.4 878.2 2087.6 878.5 2087.7 886.9 2094 887.4 2095.3 917.6 2092 920.6 2084.2 921.3 2085.3 971.7 2030.5 974.8 2031 977.4 1984.3 979.6 1966.9 980.4 1929.3 926 1980.5 892.9 1987.1 901 2025.8 876 2025.2 852.6 2083.6 847.7 2079.2 799.4 2019.2 754.3 2015.4 705.4 1967.4 707 1966.3 701.6 1911.2 703.2 1912.8 741.3 1830.5 745.1 1830.5 796.7 1814.7 797.3 1820.7 928.2 1758.5 969 1747.6 953.8 1800.5 913 1797.8 853.3 1809.2 850.5 1803.8 778.8 1788.5 775 1788 766.3 1780.9 759.8 1764 745.1 1728.5 732.1 1729 695.1 1755.2 692.9 1755.8 688.6 1840.8 682.6 1867.2 681.1 2014.3 672.8 2135.4 666.1 2143.5 665.6 2151 757.2 Z" data-holc_grade="B"/>
<path d="M 2151.8 912.4 2184 910.7 2175.2 778.1 2462.1 757.4 2463 772.5 2512.4 771 2563.7 870.4 2519.2 872.2 2229.8 964.3 2157.4 970.7 2151.8 912.4 Z" data-holc_grade="B"/>
<path d="M 917.6 1308.3 918.2 1320.8 910.2 1321.6 844.1 1324.8 850 1306.1 850.6 1293.1 848.4 1273 841.8 1271.3 835.3 1264.3 828.2 1255 827.7 1238.7 828.2 1225.1 832.1 1212.1 857.1 1210.5 860.8 1309.8 917.6 1308.3 Z" data-holc_grade="B"/>
<path d="M 1002.5 1265.2 1124.7 1205.4 1163.8 1189.4 1187.8 1201.9 1189.4 1212.2 1227 1265.5 1215 1275.3 1186.1 1236.1 1167.6 1243.7 1156.7 1241.6 1145.8 1247 1141.9 1259.5 1032.2 1316.5 1026.8 1304.6 1002.2 1306.7 1002.5 1265.2 Z" data-holc_grade="B"/>
<path d="M 2480.4 1189.8 2479.9 1189.8 2460.7 1213.7 2459.7 1200.8 2362 1222.6 2365.6 1274.3 2283.7 1279.8 2286.2 1305.9 2191 1260.1 2166.8 1257.1 2111.7 1245.7 2109.6 1190.6 2146 1189.7 2145.5 1172.5 2314.2 1161 2312.8 1141.6 2531 1121.5 2531.9 1131 2521 1132.3 2480.4 1189.8 Z" data-holc_grade="B"/>
<path d="M 2166.8 1257.1 2175.7 1422.3 2182.1 1556.6 2125.7 1559.2 2008.1 1565.4 2001.6 1481.2 1919.2 1484.5 1914.8 1439.9 1888.6 1440.4 1885.3 1372.5 1788.8 1371.4 1789.6 1344.8 1790.9 1302.9 1809.5 1303.4 1811.7 1241.5 1962.8 1240.9 1977.5 1249 1928.4 1253.4 1936.6 1387.1 2033.2 1381.7 2030.5 1365.9 2022.8 1348.5 1999.9 1311 2025 1297.9 2048.5 1320.8 2056.7 1321.3 2052.3 1262.6 2045.7 1252.3 2045.3 1240.4 2045.2 1235.4 2068.1 1244.1 2111.7 1245.7 2166.8 1257.1 Z M 2084.5 1308.2 2066.5 1308.8 2070.3 1364.8 2086.1 1366.4 2084.5 1308.2 Z" data-holc_grade="B"/>
<path d="M 2268.3 1468.6 2274.7 1509 2254 1510.7 2261 1582.7 2196.7 1586.8 2204.8 1715.6 2207.3 1755.5 2189.8 1756.7 2171.2 1761.7 2168.3 1728.3 1993.9 1744 2003.6 1914.3 1982.6 1916.4 1989.9 1921 2004.2 1949.4 2033 1975.2 2027.8 1984.8 1995.7 1957.8 1970.2 1911.6 1828.7 1694.5 1827.8 1649.7 1826.5 1623.2 1898 1635.1 1901.3 1678.6 1979.3 1722.1 1978.2 1711.2 1997.3 1712.8 1987.5 1567.1 2008.1 1565.4 2125.7 1559.2 2182.1 1556.6 2175.7 1422.3 2260.1 1416.8 2268.3 1468.6 Z" data-holc_grade="B"/>
</g>
<g id="C">
<path d="M 1727.7 2181.7 1721.2 2261.7 1827.7 2257.3 1837.5 2389.5 1698.8 2391.7 1695.5 2411.8 1825.5 2409.6 1831.8 2503.3 1704.3 2509.2 1697.2 2463.5 1679.7 2438.5 1675.9 2402 1683 2347.1 1698.8 2346 1704.8 2294.1 1706.4 2280.2 1691.2 2280.7 1698.2 2176.8 1727.7 2181.7 Z" data-holc_grade="C"/>
<path d="M 1528.8 509.2 1405.6 736.5 1381.8 722.9 1410.9 668.2 1386.9 652.2 1441.8 551.9 1467.6 566.7 1521.4 476.9 1541.4 496.1 1528.8 509.2 Z" data-holc_grade="C"/>
<path d="M 1704.8 2294.1 1698.8 2346 1683 2347.1 1644.7 2348.7 1636.6 2363.4 1622.9 2353.6 1611.4 2357.4 1610.9 2349.8 1612.5 2338.4 1619.1 2332.9 1637.6 2326.4 1650.2 2318.8 1645.8 2311.2 1638.2 2310.1 1618 2314.4 1616.9 2309 1625.1 2287.8 1634.4 2285.1 1650.7 2297.6 1677 2293.8 1704.8 2294.1 Z" data-holc_grade="C"/>
<path d="M 2121.6 460.3 2133.6 615.8 2135.4 666.1 2014.3 672.8 2011.1 658.2 2002.8 658.2 2003.1 569.9 2012.9 569.5 2010 474.2 2047.4 492 2091 498.8 2121.6 460.3 Z M 1185.5 186.5 1367.2 355.2 1289.4 429.9 1222.5 400.9 1215.3 406.7 1186.2 379.1 1144 421.1 1118.6 396.5 1178.9 330.6 1105.5 262.5 1142.6 219 1150.6 224.1 1185.5 186.5 Z M 1810.6 146.6 1816.4 257.4 1798.3 264.7 1783.7 264.7 1772.1 265.4 1772.8 303.8 1683.4 326.3 1682 309.6 1614.4 311.8 1648.5 223.4 1457.4 237.2 1457.4 201 1485.7 185 1503.2 166.9 1502.4 146.7 1507.5 137.2 1528.6 121.3 1539.5 90.2 1537.3 79.3 1546 67 1546 43.8 1554 27.9 1554 20.6 1996.6 1 2002.5 129.2 1897.1 143 1810.6 146.6 Z" data-holc_grade="C"/>
<path d="M 2133.6 615.8 2121.6 460.3 2133.9 444.8 2144.1 441.6 2155 441.9 2223 497.7 2340.8 487.1 2355 521.1 2348.8 548.7 2323.7 579.1 2311.4 587.5 2324.1 600.1 2280.5 603 2133.6 615.8 Z" data-holc_grade="C"/>
<path d="M 2890.7 720.4 2592.9 738 2578.7 712.5 2608.7 712.5 2608.7 704.9 2625.1 703.8 2620.7 671.2 2653.4 669 2641.9 578.2 2711.1 573.3 2701.7 436.4 2898 424.2 2900.8 530.2 2844.7 534 2836.5 546 2833.3 559 2813.6 560.1 2817.5 618.3 2725.9 621.6 2728.1 665.6 2885.7 661.1 2890.7 720.4 Z" data-holc_grade="C"/>
<path d="M 2912.1 880.1 2915.5 952.4 2776.9 964.5 2773.6 939 2665.1 967.9 2661.8 949.9 2735.5 930.3 2733.3 921.1 2916.5 868.2 2912.1 880.1 Z M 2592.9 738 2890.7 720.4 2965.9 715.9 2968.8 812.7 2894.1 842.1 2895.7 853 2872.8 859 2872.8 851.9 2843.4 850.3 2814.5 847.6 2759.4 842.8 2690.1 825.4 2665.5 808.6 2650.2 798.9 2635.5 780.4 2613.1 762.5 2602.7 751.1 2592.9 738 Z" data-holc_grade="C"/>
<path d="M 366.9 1036.2 368.5 1181.1 346.7 1189.7 255 1212.5 143.7 1248.3 11.6 1313.4 6.3 1197 6.4 1115.5 1 1038.3 137.3 1089.5 178.8 1088.5 189.7 1095 191.9 1104.8 258.4 1095.1 366.5 1000.6 366.9 1036.2 Z" data-holc_grade="C"/>
<path d="M 843.3 1026 834.2 1025.2 812.6 1024.2 785.5 997.2 762 980.7 750.1 981.5 674.7 986.7 646.8 951.9 603.2 957.1 606.6 1056.2 581.3 1055.4 583.9 1092.8 520.1 1096.2 515.8 1046.6 366.9 1036.2 366.5 1000.6 367.6 985.4 386.2 987.6 446.2 923.5 467 911.5 464.8 925.7 639.3 898.6 842 967.5 843.3 1026 Z" data-holc_grade="C"/>
<path d="M 843.3 1026 843.9 1054.2 854.4 1056.7 906.5 1163.3 887.6 1185 838.9 1091.9 834.2 1025.2 843.3 1026 Z" data-holc_grade="C"/>
<path d="M 1704.3 2509.2 1718.7 2585.5 1619.9 2605.1 1593.6 2487.6 1597.5 2481.6 1605.1 2475 1609.5 2473.4 1618.8 2479.4 1622.6 2470.7 1697.2 2463.5 1704.3 2509.2 Z" data-holc_grade="C"/>
<path d="M 2151 757.2 2143.5 665.6 2135.4 666.1 2133.6 615.8 2280.5 603 2288.2 713.2 2365.3 709.1 2365.3 717.8 2375.8 716.7 2376.9 728.7 2420.6 727.2 2421.7 739.5 2151 757.2 Z" data-holc_grade="C"/>
<path d="M 1772.4 853.4 1697 856.4 1654 926.4 1637.6 917.1 1634.1 921.9 1594.4 893.4 1599.7 880.8 1563.4 860.1 1569.3 847.1 1496.9 808.4 1480.8 780.3 1523.3 806.6 1606.8 652.7 1690.4 675.8 1686.7 686.4 1705.2 693.2 1699.8 722.1 1716.8 725.1 1722.7 695.1 1729 695.1 1728.5 732.1 1726.6 740.3 1726.8 762.7 1738.8 770.1 1739.7 779.7 1767.4 807.9 1772.4 853.4 Z" data-holc_grade="C"/>
<path d="M 1697 856.4 1772.4 853.4 1797.8 853.3 1800.5 913 1747.6 953.8 1699.8 982.3 1735.8 1010.5 1753.1 998.4 1796.7 1038.6 1857.3 997.3 1856.7 990.2 1928.1 983.8 1931.6 1037.9 1858 1043.8 1834.3 1074.7 1697 1077.7 1652.9 998.8 1686.1 965.5 1693 951.2 1679.3 937.9 1715.1 869.4 1697 856.4 Z" data-holc_grade="C"/>
<path d="M 898.9 986.8 904.4 998.8 926.2 985.8 942.6 991.2 981.8 1072.7 1012.4 1058.6 1024.4 1082.5 937.1 1133.6 944.7 1149.9 1029.8 1103.2 1076.7 1115.2 1124.7 1205.4 1002.5 1265.2 1002.5 1252.1 967.5 1268.4 943.6 1218.4 933.7 1221.7 914.5 1183.2 907.6 1181.4 906.5 1163.3 854.4 1056.7 843.9 1054.2 843.3 1026 842 967.5 898.9 986.8 Z" data-holc_grade="C"/>
<path d="M 2045.3 1240.4 2045.7 1252.3 2052.3 1262.6 2056.7 1321.3 2048.5 1320.8 2025 1297.9 1977.5 1249 1962.8 1240.9 1811.7 1241.5 1809.5 1303.4 1790.9 1302.9 1789.6 1344.8 1778.7 1336.6 1779.1 1306.2 1770.9 1305.8 1790 1273.2 1790.9 1230.1 1978.7 1229.2 2008.7 1228.7 2045.3 1240.4 Z M 2145.5 1172.5 2146 1189.7 2109.6 1190.6 2111.7 1245.7 2068.1 1244.1 2045.2 1235.4 2041 1218.7 2008.2 1205.1 1767.7 1202.5 1724.5 1197.1 1674.5 1187.1 1674.5 1173.1 1982.8 1172.5 2013.2 1179.3 2044.1 1183.4 2059.6 1180.7 2067.8 1174.8 2070 1162.5 2111.9 1138.5 2111.9 1131.7 2141.4 1120.4 2145.5 1172.5 Z" data-holc_grade="C"/>
<path d="M 1520.8 1705.5 1463.8 1710.8 1349.2 1721.7 1344.6 1721.8 1344.6 1707.1 1357.3 1704.5 1382.1 1706.3 1379.6 1689.4 1461.9 1679.8 1416.4 1652.7 1414.6 1639.1 1426.8 1635.3 1428.7 1627.3 1457.4 1629.8 1457 1639.3 1494.9 1655.6 1499.3 1661.7 1508 1685.7 1521.8 1687.1 1520.8 1705.5 Z M 1211.7 1489.5 1065.5 1499.2 1033.8 1499.2 1022.4 1500.3 1005.5 1437.6 1046.9 1434 1105.3 1400.8 1213.4 1383.5 1215 1420.4 1231.9 1417.7 1211.7 1489.5 Z M 1572.1 1488.2 1556.8 1526.3 1480.4 1599.7 1476.6 1623.1 1463.5 1623.1 1449.8 1611.7 1440.6 1610 1427.5 1612.8 1418.7 1607.3 1419.3 1593.2 1428 1580.1 1406.5 1580.9 1400.5 1457.4 1385.3 1458 1341 1483 1241.5 1488 1283.4 1342.5 1490.2 1330 1492.9 1345.2 1561.7 1411.6 1561.2 1489.3 1572.1 1488.2 Z" data-holc_grade="C"/>
<path d="M 1727.7 2181.7 1725 2138.7 1721.7 2079.4 1726.1 2051.7 1776.3 2047.8 1780.7 2105.5 1775.8 2187.7 1727.7 2181.7 Z M 1698.2 2176.8 1652.9 2168.6 1640.7 1978.7 1636 1904.3 1577 1908.1 1575.9 1841.2 1535.5 1847.2 1533.1 1815.3 1541.3 1805.5 1540.2 1788.1 1526 1747.3 1527.1 1731.5 1533.1 1704.3 1538.2 1686.2 1543.7 1676.4 1555.7 1670.9 1554.1 1662.2 1571.5 1656.3 1556.3 1612.8 1513.1 1626.4 1491.9 1620.4 1476.6 1623.1 1480.4 1599.7 1556.8 1526.3 1572.1 1488.2 1585.7 1495.3 1593.9 1513.8 1602.1 1513.2 1726.6 1855.8 1709.7 1915.7 1689.5 2076.1 1698.2 2176.8 Z M 1827.8 1649.7 1828.7 1694.5 1970.2 1911.6 1995.7 1957.8 1833.8 1961.5 1807.4 1947.4 1798.3 1988.2 1738.7 1992.3 1737.8 1967.9 1744.2 1916.6 1753.7 1861.3 1631.8 1503.3 1720.4 1469.8 1724.4 1495.7 1725.9 1505.6 1760 1615.7 1764.6 1646.1 1791.4 1647.4 1811 1644.7 1827.8 1649.7 Z" data-holc_grade="C"/>
<path d="M 1640.7 1978.7 1629.4 1985.3 1623.4 1992.4 1618.5 2002.2 1618.5 2011.4 1550.3 2023.4 1553.5 2051.1 1526.8 2059.3 1475.2 1919.3 1467.1 1897.4 1503.7 1883.8 1499.8 1850.6 1511.3 1832.1 1533.1 1815.3 1535.5 1847.2 1575.9 1841.2 1577 1908.1 1636 1904.3 1640.7 1978.7 Z" data-holc_grade="C"/>
</g>
<g id="D">
<path d="M 1679.3 937.9 1693 951.2 1686.1 965.5 1652.9 998.8 1697 1077.7 1834.3 1074.7 1858 1043.8 1931.6 1037.9 1992.3 1033.7 1986.2 1021.6 1984.3 979.6 2031 977.4 2031.5 1007.6 2103.1 1004.1 2157.2 984.1 2157.4 970.7 2229.8 964.3 2519.2 872.2 2563.7 870.4 2593.5 917.7 2453.9 930.9 2259.3 998 1960 1109.4 1671.1 1103.4 1672.8 1085.1 1658.9 1064.3 1649.3 1067.7 1603.9 987.7 1673.7 950.3 1679.3 937.9 Z M 1654 926.4 1648.7 935.2 1591.6 965.6 1496.9 808.4 1569.3 847.1 1563.4 860.1 1599.7 880.8 1594.4 893.4 1634.1 921.9 1637.6 917.1 1654 926.4 Z M 1565.4 963.4 1554.5 970 1489.8 862.3 1396.3 804.7 1370.5 773.2 1337.1 752.6 1342.9 738.4 1455.6 791.7 1565.4 963.4 Z" data-holc_grade="D"/>
<path d="M 1467.8 1130.8 1446.3 1137.4 1357.2 1136.3 1356.5 1154 1289.6 1149.7 1185.6 1146 1152.1 1120.6 1152.1 1110.5 1248.5 1083.3 1472.5 1092.8 1467.8 1130.8 Z M 1246.7 1066.7 1142.7 1093.5 1119 1047.4 1156.5 1031.5 1351.1 1043.1 1361.2 1045.7 1359.8 1064.9 1246.7 1066.7 Z M 1024.4 1082.5 1012.4 1058.6 981.8 1072.7 942.6 991.2 926.2 985.8 904.4 998.8 898.9 986.8 881.8 951.7 904.7 938.7 916.2 940.9 945.1 965.3 946.7 976.8 963.6 978.9 980.5 988.2 1007.8 1042.5 1046.5 1035 1092.3 1106.7 1024.4 1082.5 Z" data-holc_grade="D"/>
<path d="M 1674.5 1173.1 1674.1 1145.4 1966.8 1146.3 1979.1 1153.1 1998.7 1159.4 2024.6 1160.3 2046.4 1158 2076 1150.3 2111.9 1131.7 2111.9 1138.5 2070 1162.5 2067.8 1174.8 2059.6 1180.7 2044.1 1183.4 2013.2 1179.3 1982.8 1172.5 1674.5 1173.1 Z" data-holc_grade="D"/>
<path d="M 1490.2 1330 1283.4 1342.5 1300.9 1256.6 1471.1 1199.5 1490.2 1330 Z" data-holc_grade="D"/>
<path d="M 1790.9 1230.1 1790 1273.2 1770.9 1305.8 1757.3 1328.4 1742.3 1374.2 1736.4 1409.5 1786.4 1408.2 1786.9 1444.9 1768.2 1447.1 1771 1491.5 1724.4 1495.7 1720.4 1469.8 1631.8 1503.3 1619.1 1489.8 1614.5 1457.6 1648.6 1454 1642.7 1272.7 1672.7 1271.8 1671.8 1229.2 1790.9 1230.1 Z" data-holc_grade="D"/>
<path d="M 1619.9 2605.1 1718.7 2585.5 1731.5 2648.9 1795.2 2645.7 1798.4 2663.4 1811.6 2685.6 1823.4 2725.6 1823.4 2745.1 1817.1 2782.7 1823 2819.9 1745.2 2822.2 1737.4 2707.9 1631.4 2714.2 1640.5 2704.7 1645.5 2694.7 1642.3 2681.6 1631.3 2673 1629.1 2660.3 1628.2 2636.7 1619.9 2605.1 Z" data-holc_grade="D"/>
</g>
</svg>