<?xml version="1.0"?>
<svg xmlns="http://www.w3.org/2000/svg" version="1.2" baseProfile="tiny" width="3000" height="3401" viewBox="0 0 3000 3401" stroke-linecap="round" stroke-linejoin="round">
<g id="A">
<path d="M 1635.9 652.9 1637.6 761 1635.9 791 1638.6 840 1639.7 859.6 1585.8 862.1 1582.1 728.6 1523.2 724.8 1522 699.9 1358 699.9 1357.6 665.2 1432.7 665.6 1432.3 639.4 1357.4 639.8 1356.7 577.6 1206.5 577.5 1206.9 411.6 1242 411.6 1247 355 1237 355 1237 311.7 1203.6 310.1 1202 261.8 1218.7 241.9 1260.4 278.5 1252 303.4 1317.1 386.6 1315.4 436.5 1258.7 438.2 1230.3 481.4 1237 504.7 1250.3 511.4 1277 494.8 1287 494.8 1287.1 478.1 1348.8 474.8 1348.8 461.5 1367.2 479.8 1440.6 486.5 1440.6 526.4 1500.7 528.1 1500.7 584.6 1522.4 583 1525.7 602.9 1579.2 604.6 1582.5 627.9 1605.9 627.9 1605.7 652.3 1635.9 652.9 Z" data-holc_grade="A"/>
<path d="M 1445.1 952.1 1443.9 862.2 1523.2 860.9 1523.2 724.8 1582.1 728.6 1585.8 862.1 1639.7 859.6 1638.4 963.3 1522 962 1520.7 949.5 1445.1 952.1 Z" data-holc_grade="A"/>
<path d="M 1846.3 771 1875.1 770.6 1916.8 860 1908.5 789.3 1921 772.6 1996.1 801.7 2011.6 829.6 1956.5 948.2 1743.6 859.6 1639.7 859.6 1638.6 840 1672.7 837.2 1678.9 803.9 1674.8 761.6 1742.8 762.7 1746.1 802.6 1806.2 805.9 1837.9 820.9 1846.3 771 Z" data-holc_grade="A"/>
<path d="M 1343.4 1163.3 1350.5 1210 1248.2 1208.9 1248.2 1134 1314.3 1133.6 1317.3 1163.2 1343.4 1163.3 Z" data-holc_grade="A"/>
</g>
<g id="B">
<path d="M 1206.5 577.5 1146.8 581.3 1153.5 463.1 1173.6 463.1 1178.6 251.8 1198.6 225.2 1218.7 241.9 1202 261.8 1203.6 310.1 1237 311.7 1237 355 1247 355 1242 411.6 1206.9 411.6 1206.5 577.5 Z" data-holc_grade="B"/>
<path d="M 2389.8 2323.5 2389.6 2646 2389.7 2648 2389.7 2710.6 2366.9 2709.6 2279.5 2705.7 2251.8 2704.4 2251.6 2491.9 2174.3 2487.8 2174.3 2274 2347.2 2275.3 2347.6 2321.1 2389.8 2323.5 Z M 2285.5 2330.6 2286 2331.4 2285.3 2330.6 2285.3 2364.1 2318.9 2364.6 2317.4 2331.4 2285.5 2330.6 Z" data-holc_grade="B"/>
<path d="M 1357.4 639.8 1357.6 665.2 1358 699.9 1358 772.3 1330.4 773.5 1329.2 798.5 1205.2 798.5 1204 718.6 1206.5 718.6 1259.1 719.8 1259.1 646.2 1206.5 646.2 1206.5 577.5 1356.7 577.6 1357.4 639.8 Z" data-holc_grade="B"/>
<path d="M 1523.2 724.8 1523.2 860.9 1443.9 862.2 1443.1 798.5 1419.3 798.5 1416.8 772.3 1358 772.3 1358 699.9 1522 699.9 1523.2 724.8 Z" data-holc_grade="B"/>
<path d="M 1443.9 862.2 1445.1 952.1 1446.8 1080.6 1182.6 1079.3 1181.2 991.1 1181.2 989 1180.1 922 1178.9 920.8 1330.4 920.8 1334.1 939.5 1416.8 938.3 1415.5 865.9 1181.4 864.6 1178.9 824.7 1205.2 819.7 1205.2 798.5 1329.2 798.5 1329.2 820.9 1418.1 821 1419.3 798.5 1443.1 798.5 1443.9 862.2 Z" data-holc_grade="B"/>
<path d="M 1446.8 1080.6 1446.8 1134.3 1445.6 1204.2 1399.2 1204.2 1400.5 1272.9 1355.5 1271.5 1233.9 1267.9 1231.4 1241.7 1168.8 1244.1 1166.3 1245.4 1093.6 1239.1 1094.9 1200.4 1099.9 1128 1180.1 1128 1182.6 1079.3 1446.8 1080.6 Z M 1343.4 1163.3 1341.9 1133.6 1314.3 1133.6 1248.2 1134 1248.2 1208.9 1350.5 1210 1343.4 1163.3 Z" data-holc_grade="B"/>
<path d="M 1627.2 1282.9 1490.7 1284.1 1489.4 1247.9 1444.3 1245.4 1445.6 1204.2 1446.8 1134.3 1501.9 1131.8 1501.9 1070.6 1524.5 1071.9 1522 962 1638.4 963.3 1642.2 1039.4 1630.9 1058.1 1629.7 1168 1631 1218 1627.2 1282.9 Z" data-holc_grade="B"/>
<path d="M 2001.6 987.6 1997.9 998.1 1722.3 870.9 1723.1 972.7 1723.6 1033.2 1642.2 1039.4 1638.4 963.3 1639.7 859.6 1743.6 859.6 1956.5 948.2 2011.6 829.6 2032.9 857.1 1997.8 929.5 2017.9 941.9 2001.6 987.6 Z" data-holc_grade="B"/>
<path d="M 1 1727.8 4.8 1614.3 13.8 1510.2 34.2 1467.6 65 1432.8 94.7 1435.4 92.1 1492.1 84.7 1569.1 86.7 1633.1 72.1 1665.9 37 1725.7 1 1727.8 Z" data-holc_grade="B"/>
<path d="M 2222.1 1992.1 2320.3 1992.1 2324.5 2085.8 2345.4 2092 2347.2 2275.3 2174.3 2274 2078.1 2273.3 2083.6 1987 2084.3 1952.6 2136.5 1950.5 2136.5 1979.7 2190.8 1981.7 2195 2013 2138.6 2017.2 2138.6 2046.3 2205.4 2048.4 2215.9 2031.7 2222.1 1992.1 Z" data-holc_grade="B"/>
</g>
<g id="C">
<path d="M 891.7 1 963.4 2.9 962.7 98.9 983.4 98.5 984.2 128.8 1072.8 127.1 1068.5 188.6 883.3 181.9 891.7 1 Z" data-holc_grade="C"/>
<path d="M 1077.2 1803.6 865.4 1804.8 871.8 1619.9 865.5 1521.3 1072.2 1520.1 1077.2 1803.6 Z" data-holc_grade="C"/>
<path d="M 1457.7 1898.6 1356.6 1897.1 1353.4 1996.5 1257.9 1994.9 1261.1 1759.1 1355.6 1757.6 1356.6 1708.6 1532 1707.6 1532.5 1791.3 1480.6 1829.9 1459.8 1834.1 1457.7 1898.6 Z" data-holc_grade="C"/>
<path d="M 1718.7 1721.6 1718.7 1578 1929.6 1580 1911.6 1466.4 2065.2 1442.6 2094.6 1650.8 1887.8 1684.1 1887.9 1721.6 1718.7 1721.6 Z" data-holc_grade="C"/>
<path d="M 2015.9 2087.6 1994 2088.2 1866.8 2087 1866.8 2087.1 1866.8 2268.8 1796.8 2270.3 1794.1 2085.2 1811 2084.5 1812.2 1900.8 1853.5 1901 2140.6 1902.6 2136.5 1950.5 2084.3 1952.6 2083.6 1987 2014.6 1988.9 2015.9 2087.6 Z" data-holc_grade="C"/>
<path d="M 2427 2273.1 2420.8 2325.2 2389.8 2323.5 2347.6 2321.1 2347.2 2275.3 2345.4 2092 2324.5 2085.8 2320.3 1992.1 2222.1 1992.1 2211.6 1842.2 2197 1842.2 2209.5 1763.1 2313.9 1748.5 2324.3 1777.6 2323.4 1806.6 2320.2 1906.7 2393.3 1910.8 2393.4 1956.6 2422.6 1958.7 2427 2273.1 Z" data-holc_grade="C"/>
<path d="M 2577.1 1906.8 2562.4 1810.8 2531.1 1817 2546 1907.4 2479 1908.7 2453.9 1908.7 2435 1802.5 2491.4 1798.3 2486.9 1746.3 2531.1 1754.6 2581.1 1698.3 2608.4 1856.5 2583.4 1860.7 2589.7 1906.5 2577.1 1906.8 Z" data-holc_grade="C"/>
<path d="M 2728.7 1898.5 2701.3 1736.2 2861 1706.4 2961.2 1693.8 2999 1893.6 2728.7 1898.5 Z" data-holc_grade="C"/>
<path d="M 2481.3 2273.1 2479 1908.7 2546 1907.4 2577.1 1906.8 2589.7 1906.5 2583.4 1860.7 2608.4 1856.5 2581.1 1698.3 2600.5 1674 2610.4 1731.6 2645.9 1727.4 2648 1746.2 2701.3 1736.2 2728.7 1898.5 2631.4 1900.2 2648.8 2656.2 2602.8 2658.3 2598.7 2720.8 2550.6 2718.8 2546.4 2685.5 2393.8 2689.7 2389.8 2648 2523.4 2645.9 2518.9 2277.2 2481.3 2273.1 Z" data-holc_grade="C"/>
<path d="M 1552.4 2406.7 1553.5 2509.3 1552 2693.2 1466.7 2693.2 1466.7 2376.6 1488.4 2379.9 1490.1 2404.9 1552.4 2406.7 Z" data-holc_grade="C"/>
<path d="M 1796.8 2270.3 1796.9 2462.4 1676.7 2461.9 1675.7 2509.3 1553.5 2509.3 1552.4 2406.7 1580.6 2406.2 1582.2 2364 1595.2 2362.5 1594.2 2272.4 1478.8 2269.3 1478.8 2002.7 1479.3 2003.3 1623.9 2002.7 1625.5 2270.8 1796.8 2270.3 Z" data-holc_grade="C"/>
<path d="M 1146.8 581.3 1206.5 577.5 1206.5 646.2 1204 718.6 1205.2 798.5 1205.2 819.7 1178.9 824.7 1146.8 820.5 1146.8 581.3 Z M 1146.8 581.3 977.8 572.9 980 379.5 856.9 381.5 856.9 310.8 794.3 310.8 794.5 3 891.7 1 883.3 181.9 1068.5 188.6 1157.3 202.8 1198.6 225.2 1178.6 251.8 1173.6 463.1 1153.5 463.1 1146.8 581.3 Z" data-holc_grade="C"/>
<path d="M 2015.9 2087.6 2013.5 2411.8 2011 2411.9 2011 2411.2 1890 2413.1 1890.7 2487.5 2138.8 2489.9 2139.2 2513 1797.9 2510 1796.9 2462.4 1796.8 2270.3 1866.8 2268.8 1866.8 2314.4 1992.2 2315 1994 2088.2 2015.9 2087.6 Z" data-holc_grade="C"/>
<path d="M 2174.3 2274 2174.3 2487.8 2138.8 2489.9 1890.7 2487.5 1890 2413.1 2011 2411.2 2011 2411.9 2011 2447.5 1967.1 2448.7 1966.5 2472.5 2039.9 2473.7 2038.6 2413.1 2013.5 2411.8 2015.9 2087.6 2014.6 1988.9 2083.6 1987 2078.1 2273.3 2174.3 2274 Z" data-holc_grade="C"/>
<path d="M 1156 2560.1 1280.2 2561.4 1283.9 2801.4 1074.5 2798.8 1073.3 2575.1 1153.5 2577.5 1156 2560.1 Z" data-holc_grade="C"/>
<path d="M 2279.5 2705.7 2281.4 3400.4 2153.9 3400.4 2139.2 2513 2138.8 2489.9 2174.3 2487.8 2251.6 2491.9 2251.8 2704.4 2279.5 2705.7 Z" data-holc_grade="C"/>
<path d="M 2366.9 2709.6 2367.1 3398.2 2281.4 3400.4 2279.5 2705.7 2366.9 2709.6 Z" data-holc_grade="C"/>
<path d="M 1846.3 771 1837.9 820.9 1806.2 805.9 1746.1 802.6 1742.8 762.7 1674.8 761.6 1637.6 761 1635.9 652.9 1744.4 674.5 1744.4 724.4 1806.2 727.7 1806.2 686.1 1827.9 697.8 1827.9 762.7 1846.3 771 Z" data-holc_grade="C"/>
<path d="M 1975.5 1237 1952.3 1079.8 1723.1 972.7 1722.3 870.9 1997.9 998.1 2001.6 987.6 2050 1011.4 2027.1 1026 2043.8 1143.5 2065.5 1139.2 2095.7 1327.7 2018.9 1339.3 2002.1 1233 1977.3 1236.7 1975.5 1237 Z" data-holc_grade="C"/>
<path d="M 1723.1 972.7 1952.3 1079.8 1975.5 1237 1953 1240.3 1967.6 1347 1896.5 1357.8 1892.8 1340.3 1796.3 1332.8 1793.8 1281.6 1723.7 1281.6 1723.6 1284.5 1702.4 1285.4 1702.4 1297.9 1627.2 1299.1 1627.2 1282.9 1631 1218 1742.2 1218.5 1739.1 1172.7 1629.7 1168 1630.9 1058.1 1642.2 1039.4 1723.6 1033.2 1723.1 972.7 Z M 1742.4 1081.8 1812.5 1118 1841.3 1063.1 1775 1026.9 1772.4 1028.2 1742.4 1081.8 Z M 1768.3 1155.5 1767.4 1188.3 1792.5 1187.9 1808.8 1174.6 1806.7 1140 1797.9 1133.8 1802.1 1127.6 1788.7 1123.4 1788.7 1122.6 1779.5 1135.1 1779.1 1153.8 1768.3 1155.5 Z" data-holc_grade="C"/>
<path d="M 1166.3 1245.4 1168.8 1244.1 1231.4 1241.7 1233.9 1267.9 1355.5 1271.5 1359.1 1384 1263.9 1387.8 1257.7 1431.5 1166.2 1427.7 1166.3 1245.4 Z" data-holc_grade="C"/>
<path d="M 1627.2 1282.9 1627.2 1299.1 1702.4 1297.9 1702.4 1285.4 1723.6 1284.5 1722.4 1330.3 1708.6 1334.1 1706.1 1379 1580.9 1380.7 1580.8 1380.7 1429.3 1382.8 1428 1497.7 1357.9 1493.9 1359.1 1384 1355.5 1271.5 1400.5 1272.9 1399.2 1204.2 1445.6 1204.2 1444.3 1245.4 1489.4 1247.9 1490.7 1284.1 1627.2 1282.9 Z" data-holc_grade="C"/>
<path d="M 1580.8 1380.7 1580.9 1380.7 1706.1 1379 1795.1 1379 1796.3 1332.8 1892.8 1340.3 1896.5 1357.8 1911.6 1466.4 1857.7 1471.4 1713.7 1471.4 1712.4 1521.4 1661.1 1520.1 1659.8 1431.5 1582.1 1432.7 1580.8 1380.7 Z" data-holc_grade="C"/>
<path d="M 560.1 1202.7 566.1 1529.8 564.6 1905.8 300.2 1904.3 300.2 1943.1 24.5 1940.3 35.8 1872.9 41 1762.9 110 1618.1 115.1 1523.2 164 1527 223 1427.2 275.6 1428.4 330.8 1296.1 431 1270 488.7 1237.6 488.7 1203.9 560.1 1202.7 Z" data-holc_grade="C"/>
<path d="M 1094.9 1200.4 1069.4 1199.2 1069.5 991.1 1181.2 989 1181.2 991.1 1182.6 1079.3 1180.1 1128 1099.9 1128 1094.9 1200.4 Z" data-holc_grade="C"/>
</g>
<g id="D">
<path d="M 1204 718.6 1206.5 646.2 1259.1 646.2 1259.1 719.8 1206.5 718.6 1204 718.6 Z" data-holc_grade="D"/>
<path d="M 1181.4 864.6 1415.5 865.9 1416.8 938.3 1334.1 939.5 1330.4 920.8 1178.9 920.8 1065.3 918.3 1069.5 868.3 1181.4 864.6 Z" data-holc_grade="D"/>
<path d="M 1742.4 1081.8 1772.4 1028.2 1775 1026.9 1841.3 1063.1 1812.5 1118 1742.4 1081.8 Z" data-holc_grade="D"/>
<path d="M 1706.1 1379 1708.6 1334.1 1722.4 1330.3 1723.6 1284.5 1723.7 1281.6 1793.8 1281.6 1796.3 1332.8 1795.1 1379 1706.1 1379 Z" data-holc_grade="D"/>
<path d="M 2140.6 1902.6 1853.5 1901 1812.2 1900.8 1457.7 1898.6 1459.8 1834.1 1480.6 1829.9 1532.5 1791.3 1576.7 1773.7 1651.9 1752.9 1716.6 1752.9 1718.7 1721.6 1887.9 1721.6 1887.8 1684.1 2094.6 1650.8 2065.2 1442.6 1911.6 1466.4 1896.5 1357.8 1967.6 1347 2018.9 1339.3 2095.7 1327.7 2065.5 1139.2 2154.9 1113.8 2234.5 1656.9 2224.1 1706.9 2188.6 1740.2 2161.4 1754.8 2169.8 1794.4 2161.5 1840.2 2161.5 1871.4 2140.6 1902.6 Z" data-holc_grade="D"/>
<path d="M 2861 1706.4 2701.3 1736.2 2648 1746.2 2645.9 1727.4 2610.4 1731.6 2600.5 1674 2595.7 1646.3 2531 1721.3 2485.1 1725.5 2486.9 1746.3 2491.4 1798.3 2435 1802.5 2453.9 1908.7 2479 1908.7 2481.3 2273.1 2427 2273.1 2422.6 1958.7 2393.4 1956.6 2393.3 1910.8 2320.2 1906.7 2323.4 1806.6 2324.3 1777.6 2313.9 1748.5 2209.5 1763.1 2217.8 1758.9 2278.3 1675.6 2802.4 1594.1 2846.3 1616.9 2850.5 1652.3 2861 1706.4 Z" data-holc_grade="D"/>
<path d="M 1994 2088.2 1992.2 2315 1866.8 2314.4 1866.8 2268.8 1866.8 2087.1 1866.8 2087 1994 2088.2 Z" data-holc_grade="D"/>
<path d="M 1675.7 2509.3 1672.4 2829.9 1451.7 2829.9 1451.7 2759.9 1465 2758.2 1466.7 2693.2 1552 2693.2 1553.5 2509.3 1675.7 2509.3 Z" data-holc_grade="D"/>
</g>
</svg>