<?xml version="1.0"?>
<svg xmlns="http://www.w3.org/2000/svg" version="1.2" baseProfile="tiny" width="3000" height="4879" viewBox="0 0 3000 4879" stroke-linecap="round" stroke-linejoin="round">
<g id="A">
<path d="M 1991.7 1050.4 1939.7 1055.4 1919.8 1057.3 1920.9 874 2070.4 874 2061.2 1048.1 1991.7 1050.4 Z" data-holc_grade="A"/>
<path d="M 1012.2 2742.1 1018.1 2706 952.8 2701.7 944.1 2736.3 857.2 2732 858.6 2569 1290.5 2566.2 1294.9 2659.9 1223.9 2750.8 1012.2 2742.1 Z" data-holc_grade="A"/>
<path d="M 1209.4 3762.8 1183.3 3641.7 1151.4 3494.5 1139.8 3341.7 1118.1 3242.2 1119.6 3194.6 1139.9 3272.5 1168.8 3439.7 1177.5 3513.3 1207.9 3705.1 1239.8 3767.1 1209.4 3762.8 Z M 1118.1 3095.1 1116.7 3080.7 1152.9 3025.9 1179 2988.4 1244.3 2949.5 1229.8 2917.7 1319.6 2864.4 1315.3 2812.5 1461.7 2728.9 1470.4 2562.9 1661.7 2561.6 1663.2 2665.4 1654.5 2681.3 1612.4 2694.3 1538.5 2713 1496.5 2763.5 1477.6 2789.4 1434.1 2835.6 1341.4 2893.2 1271.8 2940.8 1244.3 2972.5 1195 3010 1151.5 3053.3 1118.1 3095.1 Z" data-holc_grade="A"/>
<path d="M 1971.2 2777.9 1966.6 2796.4 2000.2 2835.6 1970.1 2859.8 1981.7 2901.4 1944.6 2911.7 1945.7 2954.4 1955 3012.1 1945.7 3054.8 2002.6 3030.6 2028.1 3047.9 2018.8 3070.9 1982.9 3092.9 1977.1 3118.2 1986.3 3144.8 2028.1 3140.1 2044.3 3144.8 2066.4 3158.6 2096.5 3182.8 2094.2 3218.6 2095.4 3261.3 2079.2 3286.6 2045.5 3320.1 2002.6 3340.9 1955.1 3355.9 1916.8 3354.7 1857.6 3358.2 1841.4 3345.5 1828.6 3310.9 1842.6 3285.5 1835.6 3268.2 1824 3262.5 1815.9 3220.9 1820.5 3127.5 1826.3 3103.3 1833.3 3086 1817 3064 1811.2 3016.7 1839 2987.9 1824 2960.2 1820.5 2900.2 1824 2850.6 1843.7 2836.8 1842.5 2822.9 1834.4 2798.7 1848.6 2767.2 1854.1 2754.9 1844.8 2739.9 1846 2698.4 1848.4 2682.6 1858.7 2614.2 1903.9 2636.1 1937.6 2718 1971.2 2777.9 Z" data-holc_grade="A"/>
</g>
<g id="B">
<path d="M 2109.6 303.5 2137.5 308 2192 349.5 2197.8 557 2157.3 553.5 2163.1 746 2246.5 748.3 2248.8 1097.4 2249 1128.7 2191 1129.6 2097.1 1131.1 2096 1350.1 1921 1350.1 1922.1 1187.6 1919.8 1057.3 1939.7 1055.4 1943 1138 1944.2 1154.1 1990.5 1154.1 1991.7 1050.4 2061.2 1048.1 2070.4 874 1920.9 874 1919.8 1057.3 1916.3 921.3 1868.8 925.9 1865.4 1352.4 1732.1 1353.3 1740.2 977.8 1751.8 934 1740.2 906.3 1743.6 649.3 1772.6 605.4 1774.9 590.5 1776.1 572 1881.5 568.6 1880.3 268.9 1917.4 281.6 2004.3 300 2030.9 290.8 2109.6 303.5 Z" data-holc_grade="B"/>
<path d="M 1742.7 1590.6 1733.3 1753.7 1529.3 1758.3 1511.9 1752.6 1489.9 1720.3 1470.2 1690.3 1447 1674.2 1420.3 1666.1 1392.5 1661.5 1373.9 1645.3 1363.5 1618.8 1372.8 1608.4 1676.5 1611.9 1690.4 1590 1742.7 1590.6 Z" data-holc_grade="B"/>
<path d="M 988.1 3158.1 984.6 3163.1 465.7 3163 464.2 3138.5 468.6 2961.1 858.6 2569 857.2 2732 853.2 2757.7 757.5 2756.8 756.6 2958.3 861 2959.2 854.1 2823.4 1006.3 2827.8 1012.2 2742.1 1223.9 2750.8 1294.9 2659.9 1290.5 2566.2 858.6 2569 857.2 2422 1441.3 2413.4 1447.1 2489.8 988.1 3158.1 Z" data-holc_grade="B"/>
<path d="M 1118.1 3095.1 1100.7 3090.8 1093.5 3175.8 1119.6 3194.6 1118.1 3242.2 1139.8 3341.7 1151.4 3494.5 1183.3 3641.7 1209.4 3762.8 1057.1 3770 1054.3 3224.9 1054.3 3162.8 1032.6 3155.6 1448.6 2563.1 1470.4 2562.9 1461.7 2728.9 1315.3 2812.5 1319.6 2864.4 1229.8 2917.7 1244.3 2949.5 1179 2988.4 1152.9 3025.9 1116.7 3080.7 1118.1 3095.1 Z" data-holc_grade="B"/>
<path d="M 2019.5 2782.5 2047.8 2822.9 2061.7 2858.7 2130.1 2982.1 2116.5 2988.4 2082.6 3004 2038.5 2932.5 1986.3 2936 1945.7 2954.4 1944.6 2911.7 1981.7 2901.4 1970.1 2859.8 2000.2 2835.6 1966.6 2796.4 1971.2 2777.9 1992.8 2771.2 2000.1 2768.9 2008.3 2766.4 2019.5 2782.5 Z" data-holc_grade="B"/>
</g>
<g id="C">
<path d="M 2279.5 264.6 2110.8 262.5 2114.4 2.5 2275.8 1 2279.5 264.6 Z" data-holc_grade="C"/>
<path d="M 2197.8 557 2192 349.5 2137.5 308 2109.6 303.5 2110.8 262.5 2279.5 264.6 2441.7 258.8 2493.8 206.9 2486.7 559.2 2197.8 557 Z" data-holc_grade="C"/>
<path d="M 1921 1350.1 2096 1350.1 2097.1 1131.1 2191 1129.6 2192.3 1654.5 2092.6 1652.2 2089.2 1931.2 1919.9 1932.4 1921 1350.1 Z" data-holc_grade="C"/>
<path d="M 1732.1 1353.3 1865.4 1352.4 1866.6 1930.1 1778.5 1931.3 1753 1914 1731 1912.8 1680 1912.8 1649.8 1894.4 1617.4 1878.3 1604.6 1854 1565.2 1807.9 1529.3 1758.3 1733.3 1753.7 1742.7 1590.6 1783.1 1591.1 1793.5 1451.6 1695 1448.2 1690.4 1590 1676.5 1611.9 1372.8 1608.4 1367 1586.5 1369.3 1551.9 1379.8 1516.2 1416.8 1477 1450.5 1452.8 1466.7 1409 1509.6 1354.8 1732.1 1353.3 Z" data-holc_grade="C"/>
<path d="M 1663.2 2665.4 1661.7 2561.6 1470.4 2562.9 1448.6 2563.1 1032.6 3155.6 988.1 3158.1 1447.1 2489.8 1441.3 2413.4 857.2 2422 860.3 2355.4 1158.8 2352.5 1163.2 2300.6 1595 2303.5 1583.4 2326.6 1321.1 2329.5 1321.1 2374.2 1621.1 2382.8 1855.9 2382.8 1884.9 2395.8 1890.7 2453.5 1848.7 2508.2 1790.7 2542.9 1741.4 2560.2 1702.3 2600.5 1682 2655.3 1663.2 2665.4 Z" data-holc_grade="C"/>
<path d="M 2000.1 2768.9 1992.8 2771.2 1971.2 2777.9 1937.6 2718 1903.9 2636.1 1858.7 2614.2 1871.1 2563.1 1949.9 2596.5 1989.4 2688.8 1991.7 2716.5 1991.7 2751.1 2000.1 2768.9 Z" data-holc_grade="C"/>
<path d="M 2171.2 3037.2 2177.7 3050.1 2123.2 3072.1 2082.6 3004 2116.5 2988.4 2160.3 3015.5 2171.2 3037.2 Z" data-holc_grade="C"/>
<path d="M 231.3 2664.4 218.2 2641.3 210.3 2616.1 219 2599.5 198.7 2582.9 198.7 2560.6 235.7 2541.1 251.6 2525.3 254.6 2453.9 456 2455.4 455.2 2663 231.3 2664.4 Z" data-holc_grade="C"/>
<path d="M 468.6 2961.1 464.2 3138.5 232.3 3142.7 230.9 3072.1 225.1 3063.4 204.8 3038.9 196.1 2994.2 181.6 2962.4 468.6 2961.1 Z" data-holc_grade="C"/>
</g>
<g id="D">
<path d="M 41.5 4876.4 38.7 4735 1 4733.6 5.4 4621 102.6 4603.8 156.3 4589.4 201.2 4570.6 228.8 4524.5 231.7 4489.9 140.3 4494.2 147.7 4362.9 371 4360.1 370.8 4878 41.5 4876.4 Z" data-holc_grade="D"/>
<path d="M 1919.9 1932.4 2089.2 1931.2 2092.6 1652.2 2192.3 1654.5 2191 1129.6 2249 1128.7 2248.8 1097.4 2991.6 1098.5 2999 2051.8 2407.8 2053.4 2411.9 2011.9 2146.2 2016.1 2101.7 2110.2 1947.3 2110.2 1932 2122.7 1909.8 2121.3 1919.9 1932.4 Z" data-holc_grade="D"/>
<path d="M 2412.4 2159.3 2693 2153.4 2691.9 2276.8 2678 2281.4 2649 2294.1 2646.7 2309.1 2606.1 2310.3 2514.5 2449.9 2492.5 2537.6 2406.7 2536.4 2412.4 2159.3 Z" data-holc_grade="D"/>
<path d="M 1778.5 1931.3 1866.6 1930.1 1869 2119.2 1758.8 2117 1779.7 2055.8 1783.2 2012 1804 1973.9 1794.7 1948.6 1778.5 1931.3 Z" data-holc_grade="D"/>
<path d="M 1595 2303.5 1163.2 2300.6 1158.8 2352.5 860.3 2355.4 866.8 1558 916.1 1558 958.1 1562.3 998.7 1555.1 1065.3 1560.9 1133.4 1559.5 1179.8 1556.6 1336.2 1546.5 1330.4 1566.7 1329 1607 1329 1648.8 1349.3 1660.4 1384 1679.1 1420.3 1686.3 1450.7 1706.5 1478.2 1748.3 1507.2 1793 1526 1840.5 1552.1 1870.8 1579.7 1891 1607.2 1921.3 1623.1 1937.1 1642 1942.9 1672.4 1937.1 1733.3 1950.1 1768 1964.5 1757.9 2000.5 1731.8 2064 1730.4 2115.8 1724.6 2153.3 1713 2179.3 1720.2 2198 1682.6 2213.9 1595 2303.5 Z" data-holc_grade="D"/>
<path d="M 2171.2 3037.2 2160.3 3015.5 2116.5 2988.4 2130.1 2982.1 2061.7 2858.7 2047.8 2822.9 2019.5 2782.5 2037.3 2766.4 2069.5 2818.8 2079.1 2834.4 2133.6 2925.6 2191.6 3027.1 2171.2 3037.2 Z" data-holc_grade="D"/>
</g>
</svg>