<?xml version="1.0"?>
<svg xmlns="http://www.w3.org/2000/svg" version="1.2" baseProfile="tiny" width="3000" height="2574" viewBox="0 0 3000 2574" stroke-linecap="round" stroke-linejoin="round">
<g id="A">
<path d="M 420.5 1444.4 423.7 1444.6 423.6 1467.4 423.1 1532.6 422 1690.6 421.4 1690.6 420.3 1724.7 417.6 1801.3 302.7 1801.9 302.7 1799.1 159.4 1798.2 163.7 1608.5 165.4 1534 167.1 1534 376.4 1535.5 376.5 1460.8 384.2 1441.8 420.5 1444.4 Z" data-holc_grade="A"/>
<path d="M 485.6 2056.7 485.6 2057.8 305.3 2055 303.7 1989.4 336.1 1990.8 336.1 1920.3 304.2 1920.3 302.7 1801.9 417.6 1801.3 420.3 1801.3 420.6 1828.6 421.9 1926 488.9 1928.9 485.6 2056.7 Z" data-holc_grade="A"/>
<path d="M 547.8 1534.4 550.1 1534.6 550.1 1537.7 550.1 1537.9 550.7 1691 422 1690.6 423.1 1532.6 423.6 1467.4 483.3 1469.6 481.1 1529.6 534.1 1533.4 547.8 1534.4 Z" data-holc_grade="A"/>
<path d="M 839.2 1539.3 837 1794.4 836.9 1797.2 681.8 1804.2 682 1691.4 550.7 1691 550.1 1537.9 550.1 1537.7 839.2 1537.8 839.2 1539.3 Z" data-holc_grade="A"/>
<path d="M 681.5 1278.3 681.5 1278.8 681.5 1299.6 681.5 1344.2 681.5 1362 681.5 1410.2 550.1 1410.2 550.1 1409.7 532.9 1409 425.9 1404.9 429.4 1280.4 447.4 1280.4 447.5 1278.2 681.5 1274.9 681.5 1278.3 Z" data-holc_grade="A"/>
<path d="M 1205.6 768.6 1207.7 841.7 1208.1 856.1 1212.4 1010 1082.8 1012.1 1086.2 868.3 1088.8 755.2 1205.3 759.8 1205.6 768.6 Z" data-holc_grade="A"/>
<path d="M 1179.9 2320.6 1179.9 2187.7 1284.6 2185.2 1412.4 2182.1 1408.6 2317.4 1179.9 2321.6 1179.9 2320.6 Z" data-holc_grade="A"/>
</g>
<g id="B">
<path d="M 422 1690.6 550.7 1691 682 1691.4 681.8 1804.2 681.3 2060.7 485.6 2056.7 488.9 1928.9 421.9 1926 420.6 1828.6 420.3 1801.3 417.6 1801.3 420.3 1724.7 421.4 1690.6 422 1690.6 Z" data-holc_grade="B"/>
<path d="M 426.6 1023.1 426.1 1150 449.7 1152.2 449.7 1152.4 447.5 1278.2 447.4 1280.4 429.4 1280.4 229.8 1280.3 228.7 1347.3 167.7 1345.8 173.3 1025.9 302.5 1023.4 421.6 1021.2 426.7 1021.1 426.6 1023.1 Z" data-holc_grade="B"/>
<path d="M 853.7 922.9 855.2 1015.6 867.8 1015.6 891.1 1032.7 820 1226.6 817.4 1275.4 681.6 1278.3 684.9 1154.4 449.7 1152.4 449.7 1152.2 426.1 1150 426.6 1023.1 431.1 1019.6 431.1 1018.1 690.6 1014.3 696.2 923.2 853.6 924.6 853.7 922.9 Z" data-holc_grade="B"/>
<path d="M 835.5 1357.7 835.9 1408.8 921.4 1410.2 925 1410.3 925.8 1474.8 925.8 1475.1 926.6 1533.5 926.6 1535 839.2 1539.3 839.2 1537.8 550.1 1537.7 550.1 1534.6 547.8 1534.4 550.1 1410.2 681.5 1410.2 681.5 1362 681.5 1344.2 792.4 1346.1 835.4 1346.8 835.5 1357.7 Z" data-holc_grade="B"/>
<path d="M 955.8 799.2 955.3 1014.2 955.3 1015.6 944.3 1015.6 867.8 1015.6 855.2 1015.6 853.7 922.9 858.1 797.8 945.5 799 955.8 799.2 Z" data-holc_grade="B"/>
<path d="M 1013 1185.3 1159.7 1239.7 1138.2 1287.7 1105.2 1275 1067.8 1380.4 1055.4 1376.1 969.7 1346.4 955.2 1341.4 955.2 1337.7 999.1 1213.8 1009.6 1184 1013 1185.3 Z" data-holc_grade="B"/>
<path d="M 1850.5 2051.1 1843.4 2116.5 1884.1 2121.4 1881.3 2179.2 1897.8 2178.5 1893.5 2304 2060.9 2305.4 2054.3 2440.4 2207.4 2437.1 2207.5 2564.7 1729.1 2571 1736.6 2116.2 1757 2116.1 1758.4 2052.4 1781.8 2052.4 1785.1 1982.2 1843.2 1979.9 1840.7 2048 1850.5 2051.1 Z" data-holc_grade="B"/>
<path d="M 2746.1 851.8 2738.3 845.5 2723.5 831.4 2707.5 844.1 2690.5 854.7 2676.2 849 2651.5 829.3 2628.9 811.7 2612.5 794.8 2591 782.1 2581.7 795.5 2581.1 808.9 2589.4 822.3 2608.1 838.5 2608.3 842.6 2607.4 853.6 2602.4 855.9 2585.8 857.9 2572.5 860.5 2571.2 869.5 2578.4 880.2 2574.3 882.8 2568 880.5 2560.8 880.5 2556.4 881.5 2554.4 1007.2 2554.3 1012.6 2403.5 1012.9 2399.4 1012.9 2153.2 1013.4 2153.7 890.1 2154.5 890 2154.7 890 2198.7 885.9 2206.4 745.6 2428.9 742.7 2430.9 561.2 2496.3 560.2 2500.7 275.4 2629.8 270.4 2632.6 285.2 2667.7 285.2 2667.2 355 2758.9 351.4 2748.7 853.9 2746.1 851.8 Z" data-holc_grade="B"/>
</g>
<g id="C">
<path d="M 159.4 1798.2 302.7 1799.1 302.7 1801.9 304.2 1920.3 336.1 1920.3 336.1 1990.8 303.7 1989.4 305.3 2055 305.3 2055.6 42.5 2057.6 48.7 1797.5 159.4 1798.2 Z" data-holc_grade="C"/>
<path d="M 2207.4 2437.1 2054.3 2440.4 2060.9 2305.4 2131.5 2306 2138 2051.6 2216.5 2051.1 2208 2437.1 2207.4 2437.1 Z" data-holc_grade="C"/>
<path d="M 431.1 1018.1 431.1 1019.6 426.6 1023.1 426.7 1021.1 421.6 1021.2 302.5 1023.4 303.6 859.6 434.4 860.4 431.1 1018.1 Z" data-holc_grade="C"/>
<path d="M 425.9 1404.9 532.9 1409 550.1 1409.7 550.1 1410.2 547.8 1534.4 534.1 1533.4 481.1 1529.6 483.3 1469.6 423.6 1467.4 423.7 1444.6 420.5 1444.4 422.3 1404.7 425.9 1404.9 Z" data-holc_grade="C"/>
<path d="M 1504.3 1530.3 1497.1 1544.2 1475.3 1617.5 1471.8 1616.8 1426.2 1747.2 1428.4 1804.3 1322.3 1802.9 1322.2 1804.5 1214 1804.6 1216 1644.2 1191.7 1643.1 1189 1806.3 1185.4 1808 1185.4 1807.8 1135.4 1806.4 1132.6 2052.8 1132.6 2055.9 1096.8 2057.1 1037.5 2055.2 1038.3 2059.6 933 2055.2 929.6 1798.1 837 1794.4 839.2 1539.3 926.6 1535 926.6 1533.5 1120.6 1532.2 1121.1 1532.9 1454.1 1534.3 1465.3 1514.9 1465.8 1513.5 1504.3 1530.3 Z" data-holc_grade="C"/>
<path d="M 1013 1185.3 1009.6 1184 999.1 1213.8 955.2 1337.7 955.2 1341.4 954.7 1341.2 921.4 1410.2 835.9 1408.8 835.5 1357.7 837.1 1315.6 838.7 1276.3 868.5 1274.1 871.9 1233.7 936.6 1057.5 939.1 1050.8 939.9 1048.6 945.7 1051.2 1042.3 1094 1013 1185.3 Z" data-holc_grade="C"/>
<path d="M 1088.8 755.2 1086.2 868.3 1082.8 1012.1 1082.8 1014.2 955.3 1014.2 955.8 799.2 957.5 799.2 959.8 707.5 1088.8 754.8 1088.8 755.2 Z" data-holc_grade="C"/>
<path d="M 1451.6 935.5 1633.1 1006.6 1465.8 1513.5 1465.3 1514.9 1454.1 1534.3 1121.1 1532.9 1120.6 1532.2 1121.1 1532.2 1121.4 1475.6 1121.7 1399 1067.8 1380.4 1105.2 1275 1138.2 1287.7 1159.7 1239.7 1013 1185.3 1042.3 1094 945.7 1051.2 939.9 1048.6 939.1 1050.8 892.1 1029.9 891.1 1032.7 867.8 1015.6 944.3 1015.6 955.3 1015.6 955.3 1014.2 1082.8 1014.2 1082.8 1012.1 1212.4 1010 1208.1 856.1 1450.6 938.4 1451.6 935.5 Z" data-holc_grade="C"/>
<path d="M 1678.4 1568.4 1603.7 1666.9 1601.2 1666 1598.6 1665.1 1477.8 1623.1 1474 1621.8 1475.3 1617.5 1497.1 1544.2 1504.3 1530.3 1504.8 1529.4 1548.2 1542.8 1639.6 1285.5 1751 1320.8 1671.3 1561.1 1672.3 1567.2 1673 1571.7 1678.4 1568.4 Z" data-holc_grade="C"/>
<path d="M 2178.7 220.4 1851.4 216.4 1843.7 211.5 1847.1 6.7 2239.1 1 2243.3 111.1 2178.7 220.4 Z" data-holc_grade="C"/>
</g>
<g id="D">
<path d="M 167.1 1534 165.4 1534 163.7 1608.5 1 1605.1 2.8 1364.8 167.1 1362.8 167.1 1534 Z" data-holc_grade="D"/>
<path d="M 1451.6 935.5 1450.6 938.4 1208.1 856.1 1207.7 841.7 1205.6 768.6 1238.2 759.3 1270.5 758 1306.8 765.2 1345.4 776 1382.4 792.3 1421.4 820.7 1465.3 859.9 1473.1 872.6 1451.6 935.5 Z" data-holc_grade="D"/>
<path d="M 1847.1 6.7 1843.7 211.5 1851.4 216.4 2178.7 220.4 2187.6 220.5 2032.7 558.9 1964.6 699.1 1948.1 743.5 1921.7 762.9 1889.9 779.2 1857.9 782.8 1850.7 789.6 1826.1 790 1802.9 781.4 1792.7 773.3 1832.1 662.4 1784.8 645.7 1723.8 801.9 1593.3 757.1 1601.4 713.3 1530 680 1527.9 755.3 1504.4 747.6 1480.8 728.2 1447.4 703 1425.3 675.9 1402 661 1382.7 632.6 1361.3 612.3 1331.7 596.1 1318.7 583.9 1319.1 539.2 1341.9 553.2 1346.5 451.3 1356 460.7 1358.6 394 1542.7 391.2 1543.2 217.1 1289.4 219.9 1290 120.5 1220.2 121.2 1221.3 5.7 1581.6 10 1847.1 3.8 1847.1 6.7 Z" data-holc_grade="D"/>
<path d="M 1865.3 1192.6 1747.7 1515.3 1739.5 1531.5 1678.4 1568.4 1673 1571.7 1672.3 1567.2 1671.3 1561.1 1751 1320.8 1639.6 1285.5 1637.8 1284.9 1719.6 1030.4 1873.5 1084.7 1857 1131.9 1882.3 1146 1865.3 1192.6 Z" data-holc_grade="D"/>
<path d="M 2746.1 851.8 2749.4 1011.8 2554.4 1007.2 2556.4 881.5 2560.8 880.5 2568 880.5 2574.3 882.8 2578.4 880.2 2571.2 869.5 2572.5 860.5 2585.8 857.9 2602.4 855.9 2607.4 853.6 2608.3 842.6 2608.1 838.5 2589.4 822.3 2581.1 808.9 2581.7 795.5 2591 782.1 2612.5 794.8 2628.9 811.7 2651.5 829.3 2676.2 849 2690.5 854.7 2707.5 844.1 2723.5 831.4 2738.3 845.5 2746.1 851.8 Z" data-holc_grade="D"/>
<path d="M 2399.4 1012.9 2399.5 1270.3 2999 1269.6 2987.7 2043.5 2214.4 2051.1 2216.3 1791.7 1701.3 1796.8 1636.1 1797.4 1509.8 1796.7 1507.9 1791.8 1601.2 1666 1603.7 1666.9 1678.4 1568.4 1739.5 1531.5 1747.7 1515.3 1865.3 1192.6 1898 1203.4 1917.3 1152 1997.3 1177.4 2082.2 905.1 2095.9 895.5 2112.9 887.2 2130 870.6 2146.8 849.1 2151.6 845.8 2154.7 890 2154.5 890 2153.7 890.1 2153.2 1013.4 2399.4 1012.9 Z" data-holc_grade="D"/>
<path d="M 1185.4 1808 1182.1 2053.3 1182.1 2055.2 1149.4 2055.7 1132.6 2055.9 1132.6 2052.8 1135.4 1806.4 1185.4 1807.8 1185.4 1808 Z" data-holc_grade="D"/>
<path d="M 1214 1804.6 1213.9 1805.9 1188.9 1806.5 1189 1806.3 1191.7 1643.1 1216 1644.2 1214 1804.6 Z" data-holc_grade="D"/>
<path d="M 959.8 707.5 957.5 799.2 955.8 799.2 945.5 799 858.1 797.8 853.7 922.9 853.6 924.6 696.2 923.2 693.7 923.2 703.2 554.6 960.8 666.7 959.8 707.5 Z" data-holc_grade="D"/>
<path d="M 939.1 1050.8 936.6 1057.5 871.9 1233.7 868.5 1274.1 838.7 1276.3 838.7 1274.9 817.4 1275.4 820 1226.6 891.1 1032.7 892.1 1029.9 939.1 1050.8 Z" data-holc_grade="D"/>
<path d="M 838.7 1276.3 837.1 1315.6 835.5 1357.7 835.4 1346.8 792.4 1346.1 681.5 1344.2 681.5 1299.6 681.5 1278.8 681.5 1278.3 681.6 1278.3 817.4 1275.4 838.7 1274.9 838.7 1276.3 Z" data-holc_grade="D"/>
<path d="M 1322.7 2056.6 1284.6 2185.2 1179.9 2187.7 1179.9 2320.6 1016 2319.5 1062.2 2192.6 1038.3 2059.6 1037.5 2055.2 1096.8 2057.1 1132.6 2055.9 1149.4 2055.7 1182.1 2055.2 1182.1 2053.3 1240.4 2055.2 1317 2047.5 1316.8 2056.6 1322.7 2056.6 Z" data-holc_grade="D"/>
<path d="M 1758.4 2052.4 1757 2116.1 1736.6 2116.2 1729.1 2571 1729.1 2571.1 1570.2 2572.5 1571.3 2314.6 1430 2314.6 1544.2 2054.3 1707 2052.6 1737.6 2052.8 1758.4 2052.1 1758.4 2052.4 Z" data-holc_grade="D"/>
<path d="M 2138 2051.6 2131.5 2306 2060.9 2305.4 1893.5 2304 1897.8 2178.5 1881.3 2179.2 1884.1 2121.4 1843.4 2116.5 1850.5 2051.1 1850.5 2050.3 2138 2049.5 2138 2051.6 Z" data-holc_grade="D"/>
<path d="M 1701.3 1796.8 1706.9 2045.6 1707 2052.6 1544.2 2054.3 1322.7 2056.6 1316.8 2056.6 1317 2047.5 1322.2 1804.5 1322.3 1802.9 1428.4 1804.3 1426.2 1747.2 1471.8 1616.8 1475.3 1617.5 1474 1621.8 1477.8 1623.1 1598.6 1665.1 1601.2 1666 1507.9 1791.8 1509.8 1796.7 1636.1 1797.4 1701.3 1796.8 Z" data-holc_grade="D"/>
<path d="M 955.2 1341.4 969.7 1346.4 1055.4 1376.1 1067.8 1380.4 1121.7 1399 1121.4 1475.6 1121.1 1532.2 1120.6 1532.2 926.6 1533.5 925.8 1475.1 925.8 1474.8 925 1410.3 921.4 1410.2 954.7 1341.2 955.2 1341.4 Z" data-holc_grade="D"/>
</g>
</svg>