<?xml version="1.0"?>
<svg xmlns="http://www.w3.org/2000/svg" version="1.2" baseProfile="tiny" width="3000" height="2146" viewBox="0 0 3000 2146" stroke-linecap="round" stroke-linejoin="round">
<g id="A">
<path d="M 939.7 849.9 964.3 871.5 994.7 895.6 1021.4 916.4 1052.3 938 1060.6 943.8 1058.9 950.5 1053.5 974.2 1048.9 994.1 1048.1 1007 1043.9 1024 1043.5 1032.3 1065.2 1041.9 1080.6 1049.8 1082.7 1055.2 1077.3 1062.3 1066.4 1075.2 1056.8 1086.8 1048.5 1098 1041.4 1106.3 1049.3 1110.9 1062.6 1119.2 1079.3 1128.4 1095.6 1133.8 1114 1140.8 1126.7 1148.2 1129.2 1149.8 1130.9 1150.8 1132.3 1152.1 1134.5 1154 1136.5 1155.8 1139 1157.9 1139.2 1158.1 1139.8 1158.5 1141.3 1159.5 1142.5 1160.4 1145.4 1162.3 1147.6 1163.8 1150.3 1166.8 1152.4 1169.2 1154.5 1171.5 1157.2 1174.5 1159.5 1177.3 1162 1180.3 1164.3 1183.1 1165.1 1184 1166 1184.9 1168.3 1187.2 1171 1190.1 1173.6 1192.8 1175.4 1194.7 1175.7 1195 1176.9 1196.1 1179.4 1198.7 1182.2 1201.5 1184.3 1203.6 1184.6 1203.8 1184.9 1204.1 1186.2 1205.3 1188.1 1207 1190.3 1209 1190.9 1209.4 1192.9 1210.8 1195.8 1212.9 1197 1213.7 1198.3 1214.7 1198.9 1215.1 1199.2 1215.3 1201.1 1216.5 1203.8 1218.2 1207 1220.3 1208.1 1221 1210.1 1221.8 1212.9 1223 1216.9 1224.6 1220.3 1226.2 1222.5 1227.2 1224.8 1228.3 1222.9 1230.3 1220.6 1232.9 1217.1 1236.3 1214.4 1238.9 1212.1 1241.1 1209.6 1243.6 1207 1246.1 1205.4 1247.6 1204.8 1248.2 1205.6 1250.1 1206.2 1251.8 1206.6 1252.7 1207.1 1253.4 1208 1254.7 1208.9 1256.1 1210 1257.6 1211.1 1259.1 1191.1 1279.3 1176.9 1271.4 1158.6 1259.3 1141.9 1250.2 1127.3 1240.2 1098.9 1217.3 1084.7 1207.3 1068.5 1197.3 1055.5 1187.8 1032.6 1169.1 1000.9 1148.3 976.7 1132.1 945.4 1109.6 916.2 1090.5 906.6 1085.5 895.3 1079.3 887.8 1071.8 867 1055.6 844.5 1034.8 830.7 1020.6 826.1 1025.2 816.9 1038.9 798.6 1028.9 784 1018.1 763.5 1005.6 742.3 993.6 713.9 973.2 689.3 957.4 664.3 940.8 641.3 926.6 618 914.1 594.6 899.6 571.3 887.5 553.3 879.2 521.6 862.1 503.7 853.4 460.3 838.4 442.4 832.6 432 825.9 419.5 822.2 411.5 817.2 394.4 811.8 385.7 805.9 374.8 798.5 366.9 791 369 780.6 373.2 766 379.5 749 384.5 738.6 397.8 741.5 421.2 752 437.4 759.4 460.8 774 482.9 784 509.2 794.8 531.7 804.4 558 816 576.7 823.9 594.2 833.5 619.3 843.5 633.4 848.5 648.9 857.6 661 865.1 677.7 876.8 688.1 883 710.6 892.2 739.8 901.7 748.6 903 751.9 893.4 756.1 881.8 765.3 857.7 774.9 824.9 783.2 796.2 788.7 776.3 794.5 761.3 799.1 750.1 809.1 737.6 817.9 730.2 820.8 729.3 836.7 743.9 852.1 756.3 872.9 775.9 890.9 788.8 897.5 797.1 890.4 807.5 939.7 849.9 Z" data-holc_grade="A"/>
<path d="M 384.5 738.6 379.5 749 373.2 766 369 780.6 366.9 791 358.4 789.8 346.1 783.5 329.4 776.8 309.4 768.5 297.4 764.5 284.1 760.9 265 751.5 251.4 744.5 228 733.2 197.7 718.6 179 710.2 144.9 695.9 122.9 682.6 105.3 668.3 90.6 654.3 75.9 639 67.9 627 58.3 610.8 44.6 584.1 29.3 547.6 10.6 504 1 472.1 4.7 467.8 19 453.8 39.7 433.6 51.1 423 66.1 435.6 76.8 444.9 84.4 455.9 97.4 466.2 110.4 481.5 126.4 498.1 132.4 509.1 150.1 525.7 173.1 556 184.1 570 203.1 598.2 218.4 619.5 235.8 636.5 272.8 665.1 284.1 672.8 301.5 689.4 323.5 707 357.5 727.3 384.5 738.6 Z" data-holc_grade="A"/>
</g>
<g id="B">
<path d="M 1778.6 345.9 1789.5 344.2 1800.3 341.5 1803.3 339.3 1805.5 323.8 1807.3 298.4 1808 273.2 1807.5 244.5 1810.5 224.9 1811 217.1 1816.2 201.8 1819.8 191.2 1827.7 178.7 1838.1 165.6 1844.2 158.6 1835 154.6 1805.8 143.4 1787.3 136.1 1772.9 130.9 1768.9 129.7 1772.2 119.1 1788.5 108.5 1812.7 90.7 1833.5 74.2 1846.9 59.7 1856.7 70.7 1876.5 91.3 1900.5 115.8 1928.6 146.7 1941.8 162.1 1959.1 180.1 1980.1 202.3 2000.4 223.9 1996.2 227.3 1991 234.1 1986 242.6 1979.5 247.8 1969.1 259.9 1958 263.8 1944.5 266.5 1929.1 264.9 1918.2 260.1 1909.5 255.9 1905.7 253.2 1901.5 253.2 1899.5 271.1 1894.5 294.2 1889.2 305 1873.8 300.6 1862.3 296 1850.9 292.5 1849.4 300.6 1845 323.5 1837.3 345.1 1833.4 359.4 1830.5 375.8 1824.6 393 1822.1 406.1 1819.8 435 1819 462 1818.4 475.7 1820.5 484.2 1805 483 1785.6 480.9 1767.7 480.3 1760.6 480.3 1761 459.5 1763.3 453.7 1764.8 422.8 1766.9 402.8 1770.6 386.6 1773.3 375.6 1774.6 365.8 1776.4 356.1 1778.6 345.9 Z" data-holc_grade="B"/>
<path d="M 1721 1818 1709.3 1820.3 1702.9 1820 1702.9 1795.1 1714.3 1778.1 1720.3 1765.8 1730 1751.1 1740.3 1735.5 1750.3 1721.5 1755 1713.6 1759 1709.9 1773 1718.9 1792.1 1727.5 1817.8 1741.5 1846.5 1757.8 1863.5 1767.4 1865.5 1794.7 1861.2 1796.4 1840.2 1800 1824.5 1802.7 1812.5 1805.3 1786.4 1808.3 1766 1811 1749.3 1814.3 1733.6 1814.3 1721 1818 Z" data-holc_grade="B"/>
<path d="M 1909.8 499.8 1928.3 493.1 1949.6 487.8 1970.1 485.8 1989.9 481.6 2000.9 483.1 2006.2 486.6 2008.9 492.3 2011.7 500.3 2018.9 512.2 2026.2 521.7 2034.4 527.2 2044.5 527.9 2051.2 527.4 2061.2 522.9 2068 521.7 2076.2 519.9 2083.5 518.2 2087.2 517.7 2091.8 513.9 2100.8 511.4 2108.5 512.4 2118.3 519.2 2125.3 527.1 2119 532.9 2113.3 538.6 2104.3 544.4 2095.3 549.6 2078 561.3 2047.7 581.5 2021.2 598 2005.7 607.7 1996.9 613.4 1984.7 603 1973.7 591.3 1963.4 581.3 1948.4 568.6 1937.6 558.6 1928.8 546.9 1923.6 532.4 1916.3 520.7 1911.1 510.5 1909.8 499.8 Z" data-holc_grade="B"/>
<path d="M 2511.9 1045.2 2507.5 1028.2 2501.9 1009.6 2500.2 999.3 2500.5 990 2526.6 986.8 2522.4 953.6 2522.4 926 2519.2 900.1 2523.9 890.7 2528.1 857.5 2531.2 838.2 2532.2 825.8 2553.1 840.3 2579.2 859.5 2608.4 883.4 2618.8 894.8 2633.4 902.6 2664.2 932.7 2674.7 938.9 2680.4 945.1 2700.2 939.4 2714.3 934.2 2723.7 933.2 2729.9 957.6 2732.6 979.9 2734.7 1002.2 2736.2 1012.1 2735.7 1017.8 2740.4 1032.4 2739.9 1042.8 2723.2 1047.4 2694.6 1055.8 2680.5 1062 2685.7 1076.6 2688.3 1091.6 2654.4 1103.6 2622.6 1115.6 2604.4 1122.3 2597.6 1121.8 2587.7 1076.1 2580.9 1053.8 2576.7 1037.2 2573.5 1015.3 2568.3 1011.7 2552.2 1021.1 2532.3 1032 2511.9 1045.2 Z" data-holc_grade="B"/>
<path d="M 1112.2 323.1 1116 333.7 1117.2 344.3 1123.5 356.8 1125.3 374.2 1132.8 394.2 1137.2 411 1141 419.1 1101.5 425.9 1072.8 427.2 1072.8 419.7 1062.1 389.2 1045.3 349.9 1035.9 296.9 1034 263.3 1030.9 222.2 1030.9 210.3 1029.7 194.7 1032.2 180.4 1035.9 161.1 1044.1 142.4 1054.1 124.3 1064.1 106.3 1071 87 1077.2 64.5 1084.1 39 1087.9 14.7 1092.3 1 1101.7 3.5 1126 11.6 1152.3 17.8 1191.7 32.2 1197.3 37.2 1191.1 54 1184.8 78.9 1173.6 101.9 1166.7 123.7 1151.7 133.1 1127.3 141.8 1111 142.4 1101 173 1091 208.5 1092.8 225.9 1092.8 246.5 1098.5 274.5 1106.6 307.5 1112.2 323.1 Z" data-holc_grade="B"/>
<path d="M 1015.4 667.5 1011.5 672.1 992.3 695.3 978.5 715.3 974.2 724.1 950.3 695.9 922.7 661.9 905.2 638.2 878.6 605.3 860.6 581.2 833.5 545.1 804.8 499.8 785.6 472.3 774.8 459.5 768.5 451.6 753.1 433.7 741.8 426.2 726 412.1 701.8 390 685.6 378 686.4 373 699.3 357.2 708.5 343.5 720.2 325.3 728.1 316.5 731.9 315.3 742.7 323.6 754.4 331.1 768.6 342.3 786.1 354.8 808.6 374.3 829.8 398.4 841.9 415.9 845.3 420.4 851.9 388.9 861.1 360.6 865.7 356.1 877.4 359.4 898.7 369.8 918.7 379.8 924.9 384.7 940.8 403.4 944.9 410.1 935.3 420.1 918.2 436.3 899 455.4 886.5 470.3 883.6 472.8 886.9 481.1 906.1 505.6 935.7 547.6 952.4 572.5 968.2 595.4 983.2 618.7 1001.2 646.1 1015.4 667.5 Z" data-holc_grade="B"/>
<path d="M 1126.7 1148.2 1114 1140.8 1095.6 1133.8 1079.3 1128.4 1062.6 1119.2 1049.3 1110.9 1041.4 1106.3 1048.5 1098 1056.8 1086.8 1066.4 1075.2 1077.3 1062.3 1082.7 1055.2 1080.6 1049.8 1065.2 1041.9 1043.5 1032.3 1043.9 1024 1048.1 1007 1048.9 994.1 1053.5 974.2 1058.9 950.5 1060.6 943.8 1052.3 938 1021.4 916.4 994.7 895.6 964.3 871.5 939.7 849.9 943.4 839.5 948.8 820.4 955.1 789.6 950.1 785.9 944.3 776.7 948 771.8 954.7 760.1 963.1 746 968.1 736.9 974.2 724.1 978.5 715.3 992.3 695.3 1011.5 672.1 1015.4 667.5 1023.6 657.9 1044.8 637.6 1049.4 641.3 1059.4 651.3 1067.4 661.7 1073.6 670.8 1087.8 691.2 1098.2 714.9 1103.2 719 1116.6 727.8 1133.7 738.6 1148.3 747.7 1159.1 756.9 1162.9 753.5 1169.5 746.5 1179.6 738.6 1190 732.8 1200 731.5 1207.9 730.7 1215 727.4 1228.4 709.5 1242.1 688.3 1247.6 687.5 1253.4 691.6 1265.1 699.5 1278.8 709.9 1288.8 719.5 1296.4 734 1309.3 752.7 1318 760.2 1327.6 771.8 1337.6 782.6 1346 785.6 1348.9 775.2 1358.9 778.1 1373.9 783.1 1391.9 787.2 1406.1 788.9 1396.5 828.4 1383.9 879.5 1373.1 922.7 1350.6 948.5 1329.3 975.5 1301.7 1002.1 1280.9 1025.3 1271.3 1010.8 1251.3 985 1233.3 959.2 1222.9 944.7 1209.1 966.3 1195.8 987.5 1184.1 1007.4 1202.9 1030.8 1188.3 1052.1 1184.1 1063 1175.8 1078.6 1165.8 1089 1154.4 1106.2 1140.8 1123.3 1126.7 1148.2 Z" data-holc_grade="B"/>
<path d="M 1776.3 1383.9 1778 1383.5 1779.3 1383.1 1780.8 1382.7 1782.6 1382.3 1784.6 1381.7 1785.6 1381.5 1786.5 1381.2 1787.6 1380.9 1788.7 1380.7 1789.6 1380.4 1790.5 1380.2 1791.2 1379.9 1791.7 1379.7 1792.3 1379.5 1793.1 1379.2 1794 1378.9 1794.7 1378.6 1795.8 1378.3 1796.6 1378 1797.7 1377.6 1798.5 1377.3 1799.2 1377 1799.9 1376.8 1801.3 1376.3 1802.6 1375.8 1804.1 1375.3 1805.6 1374.7 1806.5 1374.4 1807.5 1374 1808.6 1373.6 1809.5 1373.3 1810.5 1372.9 1811.3 1372.6 1812.1 1372.3 1812.9 1372.1 1813.9 1371.7 1814.7 1371.4 1815.8 1371 1817.1 1370.5 1818.5 1370 1819.9 1369.5 1821.2 1369.1 1822.2 1368.7 1822.9 1368.4 1823.7 1368.1 1824.9 1367.7 1825.7 1367.4 1826.6 1367.1 1827.3 1366.9 1827.6 1366.8 1828.2 1366.6 1828.8 1366.4 1829.4 1366.3 1830.4 1366 1831.3 1365.8 1832.2 1365.6 1833.2 1365.3 1834.1 1365.1 1835.2 1364.8 1836 1364.6 1836.8 1364.4 1837.6 1364.1 1838.9 1363.8 1839.7 1363.6 1840.9 1363.3 1841.5 1363.1 1842.1 1363 1843 1362.8 1843.8 1362.5 1844.8 1362.3 1844.5 1361.8 1844.1 1361 1843.5 1359.9 1842.8 1358.6 1842.2 1357.5 1841.5 1356.4 1840.9 1355.3 1840.2 1354 1839.5 1352.7 1838.6 1351.1 1838.1 1350.2 1837.7 1349.4 1837.1 1348.6 1836.6 1347.8 1836 1347 1835.5 1346.2 1834.8 1345.2 1834 1343.9 1833 1342.5 1832 1341.1 1831.5 1340.3 1831 1339.5 1830.5 1338.8 1829.9 1338 1829.2 1336.9 1828.5 1335.9 1828.1 1335.3 1827.6 1334.5 1827.2 1333.8 1826.8 1333.1 1826.4 1332.5 1825.8 1331.5 1825.4 1330.7 1824.9 1330 1824.3 1329 1823.9 1328.3 1823.5 1327.6 1823.1 1327 1822.7 1326.3 1822.3 1325.5 1821.9 1324.9 1821.3 1323.9 1820.8 1323 1820.4 1322.4 1820 1321.7 1819.6 1321 1819.1 1320.2 1818.8 1319.6 1818.6 1319.3 1818.3 1318.8 1818 1318.4 1817.7 1317.8 1817.4 1317.3 1817.1 1316.8 1816.6 1316 1816.2 1315.3 1815.8 1314.7 1815.5 1314.2 1815.2 1313.6 1814.8 1312.9 1814.5 1312.4 1814.1 1311.9 1813.8 1311.3 1813.5 1310.7 1812.9 1309.9 1812.4 1309.1 1811.8 1308.1 1811.4 1307.5 1810.9 1306.6 1810.4 1305.9 1809.9 1305.1 1809.4 1304.2 1808.7 1303.2 1807.8 1301.8 1807 1300.6 1806.4 1299.6 1805.8 1298.5 1805.2 1297.7 1804.7 1296.8 1804 1295.8 1803.5 1294.9 1802.9 1294 1802.6 1293.6 1802.3 1293.1 1801.8 1292.3 1801.4 1291.6 1800.9 1290.8 1800.5 1290.2 1800.1 1289.6 1799.3 1288.3 1831.8 1265.8 1855.6 1250 1876.7 1236.2 2002.3 1399 1982.1 1417.5 1971.7 1433.3 1955.8 1450 1948.3 1462.8 1937.5 1472.4 1924.1 1489.5 1900.3 1518.6 1871.5 1551.4 1861.1 1533.1 1839.4 1493.6 1825.2 1470.4 1816.4 1453.7 1807.7 1440.4 1796.8 1420.5 1787.2 1404.3 1776.3 1383.9 Z" data-holc_grade="B"/>
<path d="M 1983.8 1546.7 2034.1 1591.8 2020.7 1611 1997.4 1645.1 1977.2 1676.8 1972.2 1685.8 1963.2 1699.5 1958.8 1696.8 1934.6 1656.1 1901.8 1598.5 1910.6 1593.7 1926.7 1577.3 1935.6 1566.5 1941.3 1559.4 1951.5 1546.9 1962.8 1532 1971.9 1538 1983.8 1546.7 Z" data-holc_grade="B"/>
<path d="M 2145.7 1901.1 2154.5 1877.8 2163.4 1854.5 2174.9 1825 2177.4 1818.9 2213.5 1837.9 2262.6 1859.5 2307.4 1882.4 2337.8 1897 2363.5 1911 2352.8 1932.3 2342.8 1952.3 2339.5 1960.6 2328.2 1975.9 2316.8 1992.9 2284.1 1975.6 2240.6 1954 2214.9 1939.4 2181.2 1920.7 2145.7 1901.1 Z" data-holc_grade="B"/>
</g>
<g id="C">
<path d="M 1811 217.1 1810.5 224.9 1807.5 244.5 1808 273.2 1807.3 298.4 1805.5 323.8 1803.3 339.3 1800.3 341.5 1789.5 344.2 1778.6 345.9 1775 346.5 1757.5 351.2 1733.2 358 1710.2 365.7 1693.2 373.4 1675.7 383.6 1658.2 392.6 1653.6 393.1 1651.4 390.6 1645.4 375.9 1640.1 362.5 1633.4 350.7 1628.4 341.8 1620.4 333.3 1613.4 332.3 1594.3 330.8 1574.6 329.1 1562.6 326.6 1543.8 322.8 1541.3 319.6 1540.5 309.9 1540.8 292.2 1540.5 282.5 1538.3 279 1533 279 1515.8 280 1491.7 282.2 1469.5 284.7 1463.2 274.2 1458 262 1449.2 244.1 1443 227.1 1435.7 211.4 1453.3 196.5 1471.1 182.5 1489.3 167.4 1508.1 149.3 1525.8 132.7 1538.3 121.2 1555.5 103.1 1574.8 90.6 1587.8 80.7 1610.8 67.8 1622.2 63.1 1639.4 65.2 1650.9 67.7 1670.2 75.5 1687.9 83.3 1710.3 93.2 1703.7 109.5 1701.4 123.9 1695.4 158.1 1688.7 195.7 1686.7 221.4 1682.9 255.8 1684.4 262.8 1735.2 269.5 1754.5 272 1758 248 1761.2 226.6 1764 212.6 1771 212.4 1789 215.1 1811 217.1 Z" data-holc_grade="C"/>
<path d="M 1813.5 710 1831.5 688.5 1851 666.6 1871.8 644.9 1895.3 620.4 1904.6 623.4 1919.1 629.7 1934.6 638.9 1950.6 649.6 1961.2 655.6 1965.2 658.8 1961.7 664.3 1952.7 674 1939.9 688.2 1929.6 698.7 1902.9 726.9 1894.6 737.6 1886.9 744.9 1871.1 761.8 1854.8 773.8 1833.8 793 1809.3 814.9 1788.5 834.1 1780 841.9 1769.7 851.6 1757 862.3 1747.7 871 1731.4 885 1711.9 902 1694.9 914.7 1681.4 926.1 1676.4 926.9 1661.1 907.7 1646.1 888 1630.1 872.5 1616.8 859.1 1602 846.6 1625.1 816.2 1643.6 791.3 1656.8 772.8 1660.6 768.3 1668.9 756.1 1680.6 743.9 1691.4 735.9 1696.4 733.2 1703.4 727.9 1713.7 724.9 1731.4 718 1741.7 714.5 1754.4 710.5 1768.5 706 1778.5 704.5 1790 702.5 1800 704.7 1813.5 710 Z" data-holc_grade="C"/>
<path d="M 2010.1 717.5 2023.5 719.8 2038.2 723.1 2059.5 729.8 2069.2 732.4 2075.2 734.7 2072.6 746 2067.9 762.7 2064.6 776.6 2059.6 802.2 2051.9 833.1 2045.6 856.7 2036.9 887 2027.2 884 2011.2 882.4 1984.2 881.7 1952.8 881.7 1953.5 877.7 1962.8 845.5 1970.1 829.8 1974.8 817.9 1982.8 803.9 1985.5 789 1985.5 772 1988.1 759.7 1991.5 748.7 1992.5 740.7 1998.8 732.4 2005.5 722.5 2010.1 717.5 Z" data-holc_grade="C"/>
<path d="M 2050 1460.3 2049.4 1459.6 2048.6 1458.4 2047.4 1456.9 2046.6 1456 2045.9 1455 2045.1 1454 2044.2 1452.9 2043.5 1452 2042.6 1450.8 2041.6 1449.6 2040.7 1448.4 2039.7 1447.2 2038.9 1446.1 2038.2 1445.2 2037.4 1444.2 2036.5 1443 2035.4 1441.7 2034.4 1440.4 2033.5 1439.3 2032.8 1438.3 2032 1437.4 2031.2 1436.3 2030 1434.7 2029.2 1433.8 2028.3 1432.5 2027.3 1431.3 2026 1429.7 2025 1428.3 2024.1 1427.2 2023.4 1426.3 2023 1425.8 2022.5 1425.1 2021.5 1423.9 2020.6 1422.7 2019.6 1421.5 2018.7 1420.3 2017.8 1419.1 2016.9 1417.9 2016.3 1417.1 2015.5 1416.1 2014.6 1415 2013.9 1414 2013.1 1413 2012.4 1412 2011.6 1411 2010.7 1409.9 2009.9 1408.9 2009.2 1408 2008.7 1407.3 2008 1406.4 2007.5 1405.8 2007 1405.1 2006.3 1404.1 2005.6 1403.3 2005 1402.5 2004.4 1401.7 2003.9 1401.1 2003.4 1400.5 2003 1399.9 2002.3 1399 1876.7 1236.2 1875.1 1234.1 1873.5 1232 1871.5 1229.4 1869.2 1226.5 1866.9 1223.5 1865.2 1221.2 1863.9 1219.6 1862.7 1218.1 1861.5 1216.4 1860.6 1215.3 1859.5 1213.9 1858.1 1212.1 1857.3 1211 1856.5 1210 1855.5 1208.7 1854.7 1207.7 1853.5 1206.1 1852.6 1204.9 1851.4 1203.4 1850.5 1202.2 1849.8 1201.3 1848.9 1200.1 1848 1199 1847 1197.7 1846.5 1197 1845.9 1196.2 1845.3 1195.5 1845 1195.1 1844.4 1194.3 1843.9 1193.6 1843.3 1192.9 1842.6 1192 1842 1191.2 1841.4 1190.4 1840.8 1189.7 1840.3 1189 1839.7 1188.2 1839.4 1187.8 1838.8 1187.1 1838.4 1186.5 1837.9 1185.9 1837.4 1185.3 1836.9 1184.5 1836.3 1183.9 1835.8 1183.2 1835.1 1182.3 1834.6 1181.6 1834.1 1181 1833.8 1180.6 1833.2 1179.8 1832.7 1179.1 1831.9 1178.2 1831.4 1177.4 1831 1176.9 1830.5 1176.2 1830.2 1175.7 1829.9 1175.2 1829.6 1174.8 1829.3 1174.3 1828.8 1173.7 1828.5 1173.1 1828.1 1172.5 1827.7 1171.9 1827.1 1171 1826.6 1170.3 1826.1 1169.5 1825.6 1168.8 1825.1 1168 1824.7 1167.4 1824.4 1167 1824.1 1166.5 1823.7 1165.8 1823.1 1165 1822.6 1164.2 1822.2 1163.6 1821.7 1162.8 1821.3 1162.3 1821 1161.8 1820.6 1161.2 1820.3 1160.7 1819.8 1159.9 1819.4 1159.4 1819 1158.8 1818.6 1158.2 1818.2 1157.5 1817.9 1157 1817.5 1156.5 1817.2 1156 1816.9 1155.5 1816.6 1155 1816.3 1154.6 1816 1154.1 1815.6 1153.6 1815.2 1153 1814.9 1152.6 1814.7 1152.1 1814.3 1151.5 1813.9 1151 1813.4 1150.3 1853.9 1115 1873.5 1095.4 1908.1 1061.8 1939 1035.2 1968.2 1008.5 2007.4 971.1 2048.7 931.6 2055.8 925 2067.1 936.2 2079.2 957 2087.9 975.3 2093.8 992.3 2096.3 1014.3 2095.9 1033 2093.4 1053.8 2093.8 1080 2101.3 1092 2124.3 1117.8 2138.9 1136.1 2139.3 1140.2 2129.7 1147.7 2123.9 1153.1 2113 1158.5 2109.3 1163.9 2094.3 1172.7 2095.5 1178.1 2110.5 1203 2122.2 1222.5 2136.4 1212.1 2146.4 1205.5 2152.7 1209.2 2161 1222.9 2169.4 1233.3 2174.4 1239.1 2194.4 1225.8 2223.2 1209.6 2244.5 1194.2 2271.2 1178.4 2283.7 1170.5 2288.7 1173.4 2296.6 1188 2307.1 1202.5 2317.1 1219.5 2314.2 1222.4 2297.1 1229.9 2284.2 1237.8 2276.2 1241.6 2277.1 1246.2 2289.2 1265.3 2296.3 1277.3 2302.5 1286.5 2298.4 1295.2 2281.3 1314.3 2265 1333.9 2258.3 1341.3 2254.2 1340.5 2241.6 1326.4 2224.1 1344.3 2174.9 1390.9 2146.1 1416.6 2144.9 1420 2144.4 1426.2 2133.6 1442.4 2115.2 1469 2100.6 1490.2 2090.6 1505.2 2088.1 1510.2 2058.5 1471.1 2050 1460.3 Z" data-holc_grade="C"/>
<path d="M 2184.3 1802.1 2160.9 1789.2 2113.5 1764.1 2039 1716.7 1994.9 1689.9 1977.2 1676.8 1997.4 1645.1 2020.7 1611 2034.1 1591.8 1983.8 1546.7 1994.9 1533.6 2016.4 1502.6 2029.7 1484.1 2037 1475.6 2040.6 1469.8 2050 1460.3 2058.5 1471.1 2088.1 1510.2 2090.6 1505.2 2100.6 1490.2 2115.2 1469 2133.6 1442.4 2144.4 1426.2 2152.6 1430.1 2183.9 1477.5 2190.6 1487.4 2206.8 1465.4 2225.6 1439.6 2231 1433.4 2241.9 1437.5 2266.5 1457.5 2292.8 1478.6 2306.6 1489 2302.4 1503.6 2293.2 1522.7 2294.1 1526.5 2309.9 1528.5 2326.2 1536.4 2346.3 1545.1 2368.4 1554.7 2378.4 1560.1 2379.7 1565.1 2378 1584.2 2372.2 1610.4 2368 1630.3 2365.9 1643.7 2363.4 1655.7 2360.1 1656.1 2338.8 1645.7 2302.9 1622.1 2262.8 1598.8 2252.8 1591.3 2246.1 1595.5 2231.1 1614.6 2224.4 1621.3 2207.3 1615.5 2178.9 1600.5 2157.6 1591 2167.6 1568.1 2176.8 1553.1 2158 1545.2 2140.1 1536.1 2130.9 1531.5 2126.3 1541.9 2120.9 1555.2 2114.6 1564.4 2102.1 1586.8 2112.6 1597.6 2138 1623.4 2144.3 1627.1 2149.7 1635.9 2164.7 1647.5 2182.3 1661.2 2201.1 1681.2 2214.9 1698.2 2216.1 1704 2212.4 1719 2209.9 1729.4 2202.4 1748.9 2196.5 1768.9 2188.2 1791.3 2184.3 1802.1 Z" data-holc_grade="C"/>
<path d="M 520.4 216.3 529.2 235 556.7 287.9 567.3 311 559.8 329.1 554.8 340.9 544.1 367.1 537.2 381.4 529.1 401.9 509.7 446.8 505.9 454.3 501.5 451.8 496.5 427.5 490.3 413.8 485.3 399.4 481.5 387.6 462.8 398.2 436.5 409.4 425.2 417.5 415.8 408.7 409 398.8 399 403.7 383.3 385.6 375.2 371.9 362.1 361.3 349 345.7 345.8 341.4 338.3 342 316.5 309 333.4 295.9 362.8 274.1 389.1 257.3 401.6 271.6 409.1 283.5 430.3 270.4 455.4 252.4 477.3 238 520.4 216.3 Z" data-holc_grade="C"/>
<path d="M 678.1 559.5 701.9 577.8 720.6 591.1 737.3 604.4 754.8 619.4 764 626 776.5 633.9 785.3 639.3 798.2 652.2 785.2 666.3 776.1 680.4 761.9 700.4 749.8 693.7 738.9 685.4 727.3 678.8 718.9 674.2 706.4 664.6 691.4 654.2 677.6 643 659.7 629.7 642.2 614.3 633.4 607.7 640.5 598.9 654.7 584 678.1 559.5 Z" data-holc_grade="C"/>
<path d="M 1493.4 1118.7 1484 1108.3 1467.8 1094.2 1446.4 1074.5 1429.7 1062.6 1410.5 1047.5 1389.1 1030.9 1373.1 1017.4 1364.8 1010.7 1371.6 992 1383.1 969.1 1390.9 957.2 1399.2 944.2 1408.6 930.7 1415.9 922.4 1423.2 910.9 1430.5 913 1449.8 929.1 1459.7 936.9 1471.7 919.8 1476.4 911.5 1482.7 914.6 1494.1 926 1502.5 927 1508.7 926 1516.6 927.6 1524.4 914.1 1529.1 913 1551 928.1 1535.3 946.8 1512.9 972.8 1502 989.4 1492.1 1001.3 1504.1 1014.3 1519.7 1035.1 1528.6 1052.2 1536.9 1065.7 1541.1 1072.5 1528 1081.3 1513.4 1092.2 1502 1102.1 1493.4 1118.7 Z" data-holc_grade="C"/>
<path d="M 1290.5 1144.6 1288.4 1149.3 1278 1162.8 1267.5 1175.8 1260.8 1182 1248.2 1172.7 1236.2 1162.8 1224.8 1154 1212.3 1142 1198.2 1131.1 1195.6 1131.1 1185.7 1142.5 1174.2 1158.1 1169 1164.3 1178.9 1170.6 1197.1 1178.9 1209.1 1185.1 1223.2 1191.4 1235.7 1195 1242.5 1198.7 1243.5 1204.4 1224.8 1228.3 1222.5 1227.2 1220.3 1226.2 1216.9 1224.6 1212.9 1223 1210.1 1221.8 1208.1 1221 1207 1220.3 1203.8 1218.2 1201.1 1216.5 1199.2 1215.3 1198.9 1215.1 1198.3 1214.7 1197 1213.7 1195.8 1212.9 1192.9 1210.8 1190.9 1209.4 1190.3 1209 1188.1 1207 1186.2 1205.3 1184.9 1204.1 1184.6 1203.8 1184.3 1203.6 1182.2 1201.5 1179.4 1198.7 1176.9 1196.1 1175.7 1195 1175.4 1194.7 1173.6 1192.8 1171 1190.1 1168.3 1187.2 1166 1184.9 1165.1 1184 1164.3 1183.1 1162 1180.3 1159.5 1177.3 1157.2 1174.5 1157 1174.2 1154.5 1171.5 1152.4 1169.2 1150.3 1166.8 1147.6 1163.8 1145.4 1162.3 1142.5 1160.4 1141.3 1159.5 1139.8 1158.5 1139.2 1158.1 1139 1157.9 1136.5 1155.8 1134.5 1154 1132.3 1152.1 1130.9 1150.8 1129.2 1149.8 1126.7 1148.2 1140.8 1123.3 1154.4 1106.2 1165.8 1089 1175.8 1078.6 1184.1 1063 1188.3 1052.1 1202.9 1030.8 1210.7 1042.3 1226.9 1063.1 1239.4 1081.8 1249.8 1094.7 1266 1114.5 1281.6 1132.2 1290.5 1144.6 Z" data-holc_grade="C"/>
<path d="M 1335.8 1282.3 1337.5 1300.3 1337.2 1307.5 1320 1301.8 1291.2 1290.3 1261.4 1280.1 1228.6 1267.6 1211.1 1259.1 1210 1257.6 1208.9 1256.1 1208 1254.7 1207.1 1253.4 1206.6 1252.7 1206.2 1251.8 1205.6 1250.1 1204.8 1248.2 1205.4 1247.6 1207 1246.1 1209.6 1243.6 1212.1 1241.1 1214.4 1238.9 1217.1 1236.3 1220.6 1232.9 1221.1 1232.5 1222.9 1230.3 1224.8 1228.3 1244.6 1238.7 1258.7 1243.3 1274.8 1250.1 1298.8 1260.5 1317.6 1265.7 1335.8 1273.5 1335.8 1282.3 Z" data-holc_grade="C"/>
<path d="M 2050 1460.3 2040.6 1469.8 2037 1475.6 2029.7 1484.1 2016.4 1502.6 1994.9 1533.6 1983.8 1546.7 1971.9 1538 1962.8 1532 1951.5 1546.9 1941.3 1559.4 1935.6 1566.5 1926.7 1577.3 1910.6 1593.7 1901.8 1598.5 1934.6 1656.1 1958.8 1696.8 1963.2 1699.5 1972.2 1685.8 1977.2 1676.8 1994.9 1689.9 2039 1716.7 2113.5 1764.1 2160.9 1789.2 2184.3 1802.1 2177.4 1818.9 2174.9 1825 2163.4 1854.5 2154.5 1877.8 2145.7 1901.1 2140.9 1916.1 2120.1 1945.6 2101.9 1974.1 2088.3 1992 2075 2009.7 2062.3 2006.5 2055.6 2002.8 2036.8 1989.5 2029.3 1979.5 2024.9 1968.1 2020.3 1949.4 2015.9 1933.8 2007.3 1919 1993.1 1899.7 1975.8 1882.9 1954.5 1871.6 1932.4 1861 1917.1 1857.4 1901.1 1858.9 1891.3 1860.9 1877.8 1863.4 1864.5 1869.6 1851 1877.1 1828 1892.1 1817 1903.8 1803.7 1930 1791.9 1947.5 1781.9 1954.5 1773.6 1960.7 1759.6 1966.2 1739.1 1971.9 1708.8 1974.2 1688.2 1976.2 1684.2 1953.7 1680 1902.3 1676.7 1864.2 1672.9 1807.3 1668.9 1791.6 1655.4 1745.2 1640.6 1698 1632.8 1676.1 1629.3 1665.3 1628.3 1657.9 1625.1 1610.7 1623.1 1575.3 1623.1 1551.8 1618.3 1531.9 1607.5 1490.7 1602 1462.5 1590.8 1414.4 1585.2 1386 1596.8 1383 1604.8 1381 1618.5 1376.7 1639.8 1370.8 1641.6 1368.5 1638.8 1362.3 1630.1 1348.6 1623.8 1333.8 1624.8 1329.6 1628.1 1327.4 1634.1 1320.9 1641.3 1313.1 1652.3 1302.4 1663.9 1290 1674.9 1278.7 1687.4 1264 1699.7 1253 1710.7 1242.6 1721.2 1234.8 1728.2 1229.8 1747.2 1211.6 1766.2 1194.9 1782.3 1179.2 1800 1165 1809.8 1155.1 1813.4 1150.3 1813.9 1151 1814.3 1151.5 1814.7 1152.1 1814.9 1152.6 1815.2 1153 1815.6 1153.6 1816 1154.1 1816.3 1154.6 1816.6 1155 1816.9 1155.5 1817.2 1156 1817.5 1156.5 1817.9 1157 1818.2 1157.5 1818.6 1158.2 1819 1158.8 1819.4 1159.4 1819.8 1159.9 1820.3 1160.7 1820.6 1161.2 1821 1161.8 1821.3 1162.3 1821.7 1162.8 1822.2 1163.6 1822.6 1164.2 1823.1 1165 1823.7 1165.8 1824.1 1166.5 1824.4 1167 1824.7 1167.4 1825.1 1168 1825.6 1168.8 1826.1 1169.5 1826.6 1170.3 1827.1 1171 1827.7 1171.9 1828.1 1172.5 1828.5 1173.1 1828.8 1173.7 1829.3 1174.3 1829.6 1174.8 1829.9 1175.2 1830.2 1175.7 1830.5 1176.2 1831 1176.9 1831.4 1177.4 1831.9 1178.2 1832.7 1179.1 1833.2 1179.8 1833.8 1180.6 1834.1 1181 1834.6 1181.6 1835.1 1182.3 1835.8 1183.2 1836.3 1183.9 1836.9 1184.5 1837.4 1185.3 1837.9 1185.9 1838.4 1186.5 1838.8 1187.1 1839.4 1187.8 1839.7 1188.2 1840.3 1189 1840.8 1189.7 1841.4 1190.4 1842 1191.2 1842.6 1192 1843.3 1192.9 1843.9 1193.6 1844.4 1194.3 1845 1195.1 1845.3 1195.5 1845.9 1196.2 1846.5 1197 1847 1197.7 1848 1199 1848.9 1200.1 1849.8 1201.3 1850.5 1202.2 1851.4 1203.4 1852.6 1204.9 1853.5 1206.1 1854.7 1207.7 1855.5 1208.7 1856.5 1210 1857.3 1211 1858.1 1212.1 1859.5 1213.9 1860.6 1215.3 1861.5 1216.4 1862.7 1218.1 1863.9 1219.6 1865.2 1221.2 1866.9 1223.5 1869.2 1226.5 1871.5 1229.4 1873.5 1232 1875.1 1234.1 1876.7 1236.2 1855.6 1250 1831.8 1265.8 1799.3 1288.3 1787.9 1295.4 1760.7 1313.2 1743.8 1324 1745.3 1327.7 1746 1331 1748.5 1335.7 1755.9 1348.2 1767.2 1369.2 1774.9 1384.7 1776.3 1383.9 1787.2 1404.3 1796.8 1420.5 1807.7 1440.4 1816.4 1453.7 1825.2 1470.4 1839.4 1493.6 1861.1 1533.1 1871.5 1551.4 1900.3 1518.6 1924.1 1489.5 1937.5 1472.4 1948.3 1462.8 1955.8 1450 1971.7 1433.3 1982.1 1417.5 2002.3 1399 2003 1399.9 2003.4 1400.5 2003.9 1401.1 2004.4 1401.7 2005 1402.5 2005.6 1403.3 2006.3 1404.1 2007 1405.1 2007.5 1405.8 2008 1406.4 2008.7 1407.3 2009.2 1408 2009.9 1408.9 2010.7 1409.9 2011.6 1411 2012.4 1412 2013.1 1413 2013.9 1414 2014.6 1415 2015.5 1416.1 2016.3 1417.1 2016.9 1417.9 2017.8 1419.1 2018.7 1420.3 2019.6 1421.5 2020.6 1422.7 2021.5 1423.9 2022.5 1425.1 2023 1425.8 2023.4 1426.3 2024.1 1427.2 2025 1428.3 2026 1429.7 2027.3 1431.3 2028.3 1432.5 2029.2 1433.8 2030 1434.7 2031.2 1436.3 2032 1437.4 2032.8 1438.3 2033.5 1439.3 2034.4 1440.4 2035.4 1441.7 2036.5 1443 2037.4 1444.2 2038.2 1445.2 2038.9 1446.1 2039.7 1447.2 2040.7 1448.4 2041.6 1449.6 2042.6 1450.8 2043.5 1452 2044.2 1452.9 2045.1 1454 2045.9 1455 2046.6 1456 2047.4 1456.9 2048.6 1458.4 2049.4 1459.6 2050 1460.3 Z M 1721 1818 1733.6 1814.3 1749.3 1814.3 1766 1811 1786.4 1808.3 1812.5 1805.3 1824.5 1802.7 1840.2 1800 1861.2 1796.4 1865.5 1794.7 1863.5 1767.4 1846.5 1757.8 1817.8 1741.5 1792.1 1727.5 1773 1718.9 1759 1709.9 1755 1713.6 1750.3 1721.5 1740.3 1735.5 1730 1751.1 1720.3 1765.8 1714.3 1778.1 1702.9 1795.1 1702.9 1820 1709.3 1820.3 1721 1818 Z" data-holc_grade="C"/>
<path d="M 1918.2 397.6 1927.5 386 1933.8 375.4 1939.2 369.4 1945.9 357.1 1953.9 347.8 1973.2 325.2 1977.2 319.9 1994.9 323.5 2006.9 327.5 2018.2 329.1 2029.6 328.8 2045.6 331.8 2064.3 335.4 2079 339.8 2084.6 341.4 2084.6 345.1 2080 351.4 2076.3 365.7 2073 376.3 2069.3 390.6 2063 390.6 2052.6 398.3 2041.6 407.2 2030.3 412.9 2020.6 418.2 2014.3 420.2 1999.9 419.2 1984.6 416.9 1961.5 409.6 1952.2 406.6 1940.9 404.9 1930.9 403.9 1922.5 401.6 1918.2 397.6 Z" data-holc_grade="C"/>
<path d="M 2316.8 1992.9 2328.2 1975.9 2356.5 1992.5 2375.7 2000.4 2372.8 2007.3 2362 2027.4 2349.4 2051.8 2350.5 2055.7 2367 2065.1 2385.2 2077.3 2405.2 2085.8 2420 2096.2 2414.8 2106 2409.6 2117 2400.2 2135.1 2396 2135.8 2346.1 2106.3 2326.9 2093.8 2323.6 2096.9 2317.1 2109.8 2315.2 2118.3 2300.4 2145.4 2295.6 2144.8 2266 2129 2257.8 2124.4 2246.4 2117.3 2247 2114.2 2271 2073.4 2278.1 2060.3 2290.2 2040.4 2300 2023.1 2305.4 2011 2316.8 1992.9 Z" data-holc_grade="C"/>
<path d="M 2273.2 407 2286.9 409.9 2301.1 410.3 2310.3 410.7 2327.4 419.4 2344.1 427.3 2352.8 430.7 2362 435.6 2360.4 445.2 2357.9 454.3 2354.5 466.8 2350.4 485.5 2347.9 499.6 2345 509.6 2341.2 522.1 2337.9 534.1 2335 551.1 2332.9 569.8 2331.2 583.5 2330.4 603.1 2332.1 612.2 2333.8 618 2328.3 623 2307.9 628.8 2272.5 638.8 2246.6 645.9 2224.1 652.6 2220.3 650.1 2219.5 636.4 2222.8 613.9 2225.3 593.2 2230.7 573.6 2235.3 552.9 2237.8 529.2 2243.6 500.1 2254.4 461 2257.3 443.6 2260.3 427.4 2273.2 407 Z" data-holc_grade="C"/>
<path d="M 2319.4 678.4 2344.9 677.9 2350.3 679.2 2368.3 691.6 2377.8 695.8 2398.3 714.9 2418.3 729.4 2420.4 732.3 2414.2 736.1 2412.5 750.2 2412.9 765.6 2413.4 774.3 2410.8 777.2 2410 786.4 2405 793 2377.1 796.3 2360.4 799.3 2347 800.5 2332 801.8 2318.7 801.4 2312.4 803 2309.1 796.4 2309.1 773.9 2304.9 774.4 2295.3 774.8 2292 758.2 2289.4 741.1 2297.4 740.3 2314.9 738.6 2323.2 736.1 2324.1 734 2322 712.9 2320.7 689.6 2317.8 685 2319.4 678.4 Z" data-holc_grade="C"/>
<path d="M 2456 994.1 2431 994.5 2416 997 2393.5 998.7 2373 1000 2348.4 1001.2 2337.1 1000.8 2340 970.5 2341.7 940.1 2342.1 929.3 2338.8 928.1 2321.7 931.4 2311.6 932.7 2290 933.5 2287 920.2 2285.3 901.1 2282.8 891.1 2282.4 878.3 2297.8 872.8 2297.4 852.1 2296.2 840.4 2297 827.1 2354.1 822.5 2352.9 847.5 2354.2 875.3 2355.4 907.3 2355.5 932.2 2355.5 937.6 2359.2 941.8 2396.3 941.4 2433.1 937.6 2439.7 936.8 2443.5 948 2449.3 966.3 2455.2 988.7 2456 994.1 Z" data-holc_grade="C"/>
<path d="M 2337.1 1000.8 2348.4 1001.2 2373 1000 2393.5 998.7 2416 997 2431 994.5 2456 994.1 2491.8 990 2500.5 990 2500.2 999.3 2501.9 1009.6 2507.5 1028.2 2511.9 1045.2 2481.9 1064.5 2459.8 1077.5 2433.5 1094.4 2417.1 1105.1 2406.8 1110.1 2384.4 1124.1 2366.1 1134.4 2346.1 1146.4 2318.4 1165 2307.7 1171.6 2302.7 1159.7 2280 1126.8 2265.9 1103.2 2245.5 1071.6 2226.5 1043.7 2213.5 1026.4 2210.5 1010.4 2227.8 1009.1 2249.5 1006.4 2296.2 1003.4 2337.1 1000.8 Z" data-holc_grade="C"/>
<path d="M 2739.9 1042.8 2740.4 1032.4 2735.7 1017.8 2736.2 1012.1 2734.7 1002.2 2732.6 979.9 2729.9 957.6 2723.7 933.2 2746.1 924.3 2791.4 906.6 2808.1 898.3 2841.5 862.9 2864.4 840.1 2885.2 818.2 2904.5 800.5 2909.7 809.9 2913.4 829.6 2916 844.2 2919.7 857.2 2923.3 871.7 2924.9 898.7 2926 909.1 2947.9 909.6 2977.1 908 2993.8 907.5 2999 911.1 2995.9 947.5 2996.4 968.8 2994.9 988.5 2995.4 1002 2993.9 1018.6 2988.2 1037.3 2981.4 1055 2954.3 1047.2 2927.2 1038.4 2896.9 1030.2 2872.9 1023.4 2870.8 1027.6 2869.3 1036.9 2866.7 1046.8 2863 1058.2 2857.8 1072.3 2856.3 1081.1 2847.4 1093.1 2840.1 1108.1 2830.2 1122.7 2822.9 1135.7 2809.9 1154.9 2798.4 1175.7 2791.1 1176.2 2778.1 1181.4 2760.9 1184.6 2750 1188.7 2741.6 1186.7 2740 1134.2 2741 1107.7 2741.5 1077.6 2739.9 1042.8 Z" data-holc_grade="C"/>
<path d="M 1030.9 210.3 1030.9 222.2 1034 263.3 1035.9 296.9 1045.3 349.9 1062.1 389.2 1072.8 419.7 1072.8 427.2 1101.5 425.9 1141 419.1 1137.2 411 1132.8 394.2 1125.3 374.2 1123.5 356.8 1117.2 344.3 1116 333.7 1112.2 323.1 1131 320.6 1164.1 314.4 1179.1 310.7 1207.3 303.8 1225.4 296.3 1240.4 280.1 1254.2 267.1 1266.7 262.1 1275.5 275.2 1291.7 298.2 1305.5 314.4 1318 323.8 1339.3 338.7 1352.4 353.1 1358 366.2 1348.7 368 1343 373 1334.3 381.1 1325.5 396.1 1303.6 416.6 1308.6 424.1 1320.5 444 1358.7 520.1 1333 551.9 1292.3 601.7 1281.1 613.5 1267.3 606.1 1253.5 593.6 1268.6 577.4 1260.4 570.5 1240.4 556.2 1218.5 541.2 1199.1 523.2 1184.1 507 1167.2 518.8 1129 536.9 1091.5 553.7 1083.4 546.2 1065.9 517.5 1049 490.7 1037.1 465.2 1025.8 446.5 1022.7 427.2 1015.2 405.3 1014 385.4 1004 366.1 988.3 344.3 987.1 331.2 987.7 311.9 975.8 310.6 961.5 310.6 960.8 301.9 965.8 283.2 969 264.5 973.4 234 977.1 210.3 1011.5 210.3 1030.9 210.3 Z" data-holc_grade="C"/>
<path d="M 1391.2 569.3 1411.2 606.7 1418.7 614.8 1441.9 633.5 1476.9 655.9 1493.8 667.8 1502.5 674.6 1483.2 700.2 1471.3 713.3 1463.1 712.7 1437.5 690.2 1414.3 677.1 1403.1 670.3 1399.3 669 1393.1 684.6 1388.7 685.2 1353.6 669.6 1324.9 656.6 1325.5 650.3 1347.4 622.3 1368 593.6 1383.7 573 1391.2 569.3 Z" data-holc_grade="C"/>
</g>
<g id="D">
<path d="M 1541.1 1072.5 1536.9 1065.7 1528.6 1052.2 1519.7 1035.1 1504.1 1014.3 1492.1 1001.3 1502 989.4 1512.9 972.8 1535.3 946.8 1551 928.1 1554.6 921.3 1569.2 931.2 1582.3 945.7 1599.5 957.2 1612 967.6 1629.2 975.4 1642.8 980.5 1648 987.8 1651.1 994.1 1635.5 1006 1613.1 1027.3 1598.4 1041.8 1590.6 1036.7 1584.4 1027.3 1577.1 1025.7 1568.7 1042.4 1555.7 1056.9 1541.1 1072.5 Z" data-holc_grade="D"/>
<path d="M 1224.8 1228.3 1243.5 1204.4 1242.5 1198.7 1235.7 1195 1223.2 1191.4 1209.1 1185.1 1197.1 1178.9 1178.9 1170.6 1169 1164.3 1174.2 1158.1 1185.7 1142.5 1195.6 1131.1 1198.2 1131.1 1212.3 1142 1224.8 1154 1236.2 1162.8 1248.2 1172.7 1260.8 1182 1267.5 1175.8 1278 1162.8 1288.4 1149.3 1290.5 1144.6 1302.5 1159.2 1316 1175.3 1333.2 1190.4 1339 1191.9 1342.6 1177.9 1342.6 1169.6 1347.3 1151.4 1347.3 1141.5 1339 1132.7 1332.2 1127 1328 1121.3 1319.7 1114.5 1319.2 1109.8 1332.2 1090.1 1351.5 1066.7 1367.7 1047.5 1375 1037.6 1382.8 1030.9 1389.1 1030.9 1410.5 1047.5 1429.7 1062.6 1446.4 1074.5 1467.8 1094.2 1484 1108.3 1493.4 1118.7 1490.2 1126.5 1487.1 1133.2 1482.4 1141.5 1476.2 1149.3 1466.8 1156.6 1452.7 1166.5 1437.6 1181.5 1429.7 1187.8 1420.4 1197.1 1415.1 1207 1413 1215.3 1400 1216.3 1387 1217.9 1380.2 1218.9 1377.1 1238.2 1375.5 1256.9 1372.9 1263.6 1370.8 1288 1361.9 1288.6 1341.1 1284.9 1335.8 1282.3 1335.8 1273.5 1317.6 1265.7 1298.8 1260.5 1274.8 1250.1 1258.7 1243.3 1244.6 1238.7 1224.8 1228.3 Z" data-holc_grade="D"/>
<path d="M 1724.6 971.1 1742.1 960.7 1761.7 949.1 1778.8 939.5 1805.5 919.6 1813.9 913.3 1825.6 907.1 1839.7 895.9 1852.3 885.5 1864.4 880.1 1875.6 879.2 1891.5 885.5 1904 896.7 1895.7 904.6 1885.6 912.9 1874.4 922.5 1866.5 929.1 1858.1 941.2 1851.4 954 1849.8 968.2 1844.8 979.8 1841 992.7 1836.4 1005.2 1831 1012.6 1821.4 1017.6 1804.3 1023.5 1796.4 1028 1792.2 1029.3 1789.7 1038 1784.3 1054.6 1779.7 1065.4 1775.5 1077.1 1771.8 1085.4 1756.3 1092.5 1745.1 1099.9 1734.6 1105.3 1722.1 1111.6 1706.3 1119.9 1696.3 1131.5 1681.7 1151.9 1668.7 1163.5 1657 1175.2 1646.2 1182.2 1639.1 1196.4 1630.8 1215.1 1617.8 1245.4 1603.6 1275.8 1589.9 1301.5 1574.9 1326.1 1567.3 1338.9 1547.3 1364.3 1529.8 1384.7 1516.4 1395.1 1503.9 1406.7 1482.2 1430 1467.6 1442 1454.7 1422.9 1445.9 1412.5 1444.2 1404.2 1431.3 1390.1 1423 1379.7 1416.7 1370.1 1415.4 1349.3 1433.4 1347.3 1469.7 1347.3 1488.9 1346.8 1498.9 1347.7 1506.4 1343.5 1516 1343.5 1514.8 1317.7 1509.3 1285.7 1503.5 1266.2 1498.5 1253.7 1479.3 1258.7 1447.2 1270.8 1425 1277.8 1417.1 1279.1 1414.2 1252.5 1414.6 1240.9 1438.8 1231.7 1469.7 1220.5 1493.1 1208.8 1532.3 1193.5 1524.4 1180.2 1512.3 1168.9 1533.5 1147.3 1551.1 1134 1557.7 1131.5 1563.6 1136.9 1567.3 1141.9 1576.9 1134.9 1590.3 1132.4 1602 1133.2 1608.2 1139.4 1610.7 1143.2 1623.7 1128.6 1645.4 1099.9 1661.6 1080 1666.6 1075.4 1689.6 1037.6 1723.4 1014.7 1739.6 1006 1727.5 988.6 1722.9 978.6 1724.6 971.1 Z" data-holc_grade="D"/>
<path d="M 1506.7 1825.5 1499.4 1805.5 1498.4 1793.2 1495.7 1774.6 1493 1754.3 1486.7 1733 1480 1720.7 1474.3 1710 1468.6 1698.4 1460.3 1690.7 1453.6 1681.1 1445.3 1665.8 1442.3 1650.5 1439.6 1632.9 1439.6 1621.6 1440.3 1613.9 1437.6 1610.9 1432.6 1613.2 1422.6 1615.2 1413.2 1616.9 1409.2 1613.6 1403.2 1601.9 1394.5 1583.3 1391.2 1574.3 1386.5 1576.3 1376.8 1581.7 1367.5 1578.7 1359.8 1561.7 1354.1 1542.7 1346.8 1519.1 1341.8 1499.8 1333.1 1476.2 1327.7 1457.3 1320.1 1437.6 1312.4 1424 1308.1 1416.7 1314.1 1412 1323.7 1400.4 1333.8 1390.4 1345.1 1383.1 1357.8 1380.4 1362.5 1382.4 1364.1 1402.7 1368.2 1412 1367.8 1434 1371.8 1437.6 1397.9 1437.3 1400.2 1434.3 1414.9 1422.7 1420.2 1430 1447.6 1464.9 1459 1481.2 1470.6 1470.6 1480.7 1461.6 1487 1467.6 1494 1480.6 1488.7 1487.2 1489 1495.2 1497 1532.4 1506.7 1579.7 1517.4 1631.2 1527.4 1686.1 1537.1 1728 1543.8 1760.3 1537.4 1773.6 1540.4 1786.9 1545.8 1820.8 1538.1 1821.8 1524.7 1823.8 1506.7 1825.5 Z" data-holc_grade="D"/>
</g>
</svg>