<?xml version="1.0"?>
<svg xmlns="http://www.w3.org/2000/svg" version="1.2" baseProfile="tiny" width="3000" height="5981" viewBox="0 0 3000 5981" stroke-linecap="round" stroke-linejoin="round">
<g id="A">
<path d="M 2260.9 4223.1 2061.8 4243.4 1989.7 4255.3 1984.7 4217.3 1770.3 4167.5 1780.3 4097.8 1780.5 4096.6 1809.3 4091.5 1825.4 4089.8 1840.6 4095.7 1856.7 4101.6 1864.3 4106.7 1872 4103.3 1863.5 4086.4 1846.5 4056.1 1840.6 4024.8 1842.3 3991.1 1851.6 3948.8 1856.7 3910.9 1856.7 3902.4 1849.1 3874.6 1850 3859.4 1878.8 3740.3 1994 3763.1 2021.9 3589.2 2062.6 3404.4 2030.4 3397.6 2063.4 3345.3 2139.6 3138.5 2152.3 3066.8 2367.4 3070.1 2380.1 3206 2381.8 3274.3 2372.5 3346.9 2378.5 3382.4 2366.6 3453.3 2391.2 3578.2 2294.6 3594.2 2117.6 3557.1 2099.8 3661 2065.1 3807.8 2001.6 4143 2145.6 4129.5 2299.8 4125.2 2262.6 4202 2260.9 4223.1 Z" data-holc_grade="A"/>
</g>
<g id="B">
<path d="M 2090.7 426.1 1966.1 778.4 1875.7 744.9 1887.5 696.8 1903.6 651.3 1927.3 600.7 1959.5 555.1 2000.9 507 2020.4 469.1 2030.6 443.8 2041.6 404.1 2090.7 426.1 Z" data-holc_grade="B"/>
<path d="M 2503.9 4765 2442.1 4741.3 2419.2 4803.8 2398 4837.6 2380.2 4874.7 2330.2 4931.3 2246.3 4782.7 2120.9 4861.3 2038.7 4747.3 2051.4 4739.7 2057.3 4723.7 2112.4 4665.4 2029.4 4597 1958.2 4668.8 1857.3 4580.2 1792.9 4614.8 1772.6 4562.4 1852.2 4532 1831.1 4437.5 1852.2 4443.4 1909.9 4424 1926 4506.7 2013.2 4499.9 1986.1 4516.8 1981.9 4527.8 1981.9 4549.8 1992.9 4568.3 2014.1 4568.3 2050.5 4584.4 2079.3 4581.8 2118.3 4586.9 2130.2 4575.1 2140.4 4560.7 2154.8 4537.9 2171.7 4534.5 2198 4526.9 2297.9 4488.1 2314.9 4472 2326.8 4471.2 2330.1 4475.4 2329.3 4509.2 2329.3 4545.5 2314.1 4609.6 2293.7 4664.5 2449.7 4696.6 2515.8 4724.4 2503.9 4765 Z" data-holc_grade="B"/>
<path d="M 2503.9 4765 2492.1 4804.6 2447.2 4925.4 2429.4 4924.6 2406.5 4923.7 2383.6 4933.9 2327.7 4967.6 2359.1 5040.3 2382.8 5077.4 2426.1 5126.4 2427.8 5150.9 2423.5 5163.5 2385.4 5151.7 2250.6 5116.3 2200.6 5112.9 2141.3 5085.9 2137 5025.1 2137.9 4965.1 2115.8 4934.8 2102.3 4903.5 2074.3 4838.5 2035.3 4793.8 1990.8 4760.3 1983.6 4754.9 1942.1 4732.1 1875.1 4689.1 1792.9 4614.8 1857.3 4580.2 1958.2 4668.8 2029.4 4597 2112.4 4665.4 2057.3 4723.7 2051.4 4739.7 2038.7 4747.3 2120.9 4861.3 2246.3 4782.7 2330.2 4931.3 2380.2 4874.7 2398 4837.6 2419.2 4803.8 2442.1 4741.3 2503.9 4765 Z" data-holc_grade="B"/>
<path d="M 2317.5 491.8 2395.4 478.3 2388.6 526.4 2340.4 652.9 2342.1 663.9 2265.9 744.8 2252.4 779.4 2163.5 850.3 2152.5 852 2069.6 888.3 2175.3 566.9 2199.9 541.6 2225.3 514.6 2317.5 491.8 Z" data-holc_grade="B"/>
<path d="M 2208.8 1206.3 2212.1 1276.3 2213.8 1343.8 2213.8 1406.2 2213.8 1453.4 2204.5 1486.3 2192.7 1520.1 2192.8 1561.4 2111.5 1542.9 1883.7 1465.3 1986.1 1143 2102.1 1184.3 2208.8 1206.3 Z" data-holc_grade="B"/>
<path d="M 2132.7 1735.2 2112.3 1788.4 2114 1806.9 1987.8 1767.3 1955.6 1841.5 1912.5 1828.9 1887.9 1900.6 1852.3 1887.1 1807.6 2017.9 1710.2 1986.7 1758.4 1839 1810.9 1856.7 1880.4 1654.3 2132.7 1735.2 Z" data-holc_grade="B"/>
<path d="M 2152.3 3066.8 2139.6 3138.5 2063.4 3345.3 2030.4 3397.6 1885.1 3367.8 1821.1 3354.6 1742.2 3345.5 1711 3341.9 1726.3 3280.3 1775.3 3203.1 1854.2 3212.8 1880.9 3036 1892.3 3017 1945.6 2950.3 1899 2946.1 1982 2790 2044.7 2820.3 2044.7 2828.8 2045.6 2843.1 2042.2 2854.1 2036.2 2859.2 1997.3 2883.6 1993.9 2900.5 1998.1 2919.9 1978.7 3029.6 2089.6 3049 2152.3 3066.8 Z" data-holc_grade="B"/>
<path d="M 2963.6 3171.5 2922.4 3458.5 2883.3 3450 2842 3463.8 2745.6 3477.5 2705.4 3483.9 2706.4 3519.7 2652.4 3552.5 2586.8 3545.1 2550.8 3546.2 2457.6 3563.1 2391.2 3578.2 2366.6 3453.3 2378.5 3382.4 2372.5 3346.9 2381.8 3274.3 2380.1 3206 2367.4 3070.1 2560.3 3069 2701 3068.2 2718 3171.6 2724.4 3241.2 2721.2 3282.4 2906.5 3191.6 2963.6 3171.5 Z" data-holc_grade="B"/>
<path d="M 2021.9 3589.2 1994 3763.1 1878.8 3740.3 1850 3859.4 1831.4 3861.1 1797.5 3854.3 1824.6 3737.8 1860.1 3558 2021.9 3589.2 Z" data-holc_grade="B"/>
<path d="M 2652.4 3552.5 2706.4 3519.7 2704.4 3608.4 2776.4 3638.9 2791.2 3624.2 2815.5 3614.7 2835.7 3611.5 2919.3 3656.8 2940.5 3685.3 2946.9 3711.7 2940.6 3744.4 2930 3760.2 2902.4 3778.2 2877 3779.2 2840 3762.4 2772.3 3979.8 2772.3 4042 2798.8 4164.4 2770.2 4165.5 2737.4 4168.7 2685.5 4207.7 2647.4 4246.8 2611.4 4267.9 2553.1 4288 2535 3909.1 2533.9 3846.9 2545.6 3782.5 2557.2 3720.3 2555.1 3690.7 2583.6 3646.4 2621.8 3591.5 2652.4 3552.5 Z" data-holc_grade="B"/>
<path d="M 2267.4 4363.9 2264.7 4305.7 2281 4290.5 2356.9 4263.5 2428.9 4255.4 2486.9 4252.4 2491.6 4281.6 2444.6 4283.7 2422.1 4283.7 2373.8 4287.9 2347.1 4295.5 2314.1 4316.2 2292.9 4336.9 2277.2 4357.2 2267.4 4363.9 Z" data-holc_grade="B"/>
</g>
<g id="C">
<path d="M 2317.5 491.8 2225.3 514.6 2199.9 541.6 2175.3 566.9 2069.6 888.3 2152.5 852 2163.5 850.3 2252.4 779.4 2265.9 744.8 2342.1 663.9 2340.4 652.9 2388.6 526.4 2395.4 478.3 2437.7 463.9 2473.3 474.9 2480.9 483.3 2581.6 479.1 2594.3 481.6 2563.8 538.1 2525.8 585.4 2480.9 623.3 2364.5 737.2 2320.5 797.1 2285.8 856.2 2234.1 981 2208.8 1056.9 2202 1115.2 2209.6 1158.2 2208.8 1206.3 2102.1 1184.3 1986.1 1143 1883.7 1465.3 2111.5 1542.9 2192.8 1561.4 2161.5 1659.3 2132.7 1735.2 1880.4 1654.3 1810.9 1856.7 1758.4 1839 1710.2 1986.7 1807.6 2017.9 1792.3 2068.5 1837.2 2082 1823.7 2126.7 1815.2 2166.4 1961.7 2213.6 1918.5 2334.3 1857.6 2332.6 1555.2 2300.6 1564.5 2244.9 1566.2 2177.4 1576.4 2135.2 1584.9 2086.2 1591.6 2025.5 1589.1 1869.4 1593.3 1819.6 1602.6 1748.8 1617.9 1683 1622.9 1612.9 1626.3 1569.1 1642.4 1487.2 1714.9 1515.1 1742.8 1424 1773.3 1433.2 1923.1 981.9 1897.7 971.8 1966.1 778.4 2090.7 426.1 2107.6 410.9 2317.5 491.8 Z" data-holc_grade="C"/>
<path d="M 2141.3 5085.9 2082 5116.3 2058.2 5071.6 2006.5 5007.4 1880.2 4840.2 1990.8 4760.3 2035.3 4793.8 2074.3 4838.5 2102.3 4903.5 2115.8 4934.8 2137.9 4965.1 2137 5025.1 2141.3 5085.9 Z" data-holc_grade="C"/>
<path d="M 632.9 4692.5 625.4 4708.3 282.8 5276.5 238.8 5269.7 147.3 5231.7 250.7 4965.7 361.9 4658.4 396.6 4685.4 425.4 4724.3 444.9 4680.4 543.2 4688.8 600 4695.6 632.9 4692.5 Z" data-holc_grade="C"/>
<path d="M 282.8 5276.5 625.4 4708.3 632.9 4692.5 641.5 4674.5 652.5 4655.9 701.7 4668.6 670.3 4757.3 661.8 4823.1 650.8 4866.2 638 4889 614.3 4942.2 594.8 5017.3 598.2 5081.5 577.8 5066.3 492.2 5307.8 482 5330.6 468.4 5332.3 282.8 5276.5 Z" data-holc_grade="C"/>
<path d="M 2385.4 5151.7 2423.5 5163.5 2427.8 5150.9 2426.1 5126.4 2430.7 5091.7 2488.4 5161 2507.8 4987.9 2540 4991.2 2621.4 4998.8 2695.1 5000.5 2758.7 4997.1 2746.9 5292.6 2805.4 5374.5 2913 5369.4 2991 5397.3 2977.6 5704.7 2965.7 5701.3 2913.1 5663.3 2855.9 5620.3 2794 5589 2699.9 5497.9 2673.6 5514.8 2591.4 5405.8 2518.5 5465.8 2497.3 5497.1 2439.7 5528.3 2427.9 5544.4 2427 5553.7 2444.8 5549.4 2462.6 5546.9 2483.8 5552 2496.5 5560.4 2700 5703.9 2650 5760.5 2624.6 5789.2 2626.3 5809.5 2640.7 5845 2657.6 5862.7 2678 5888.9 2684.8 5907.5 2686.5 5932 2601.7 5910 2555.9 5898.2 2523.7 5894 2432.2 5911.8 2355.9 5872.1 2303.3 5840.8 2162.6 5745.4 2149.9 5630.6 2193.1 5586.7 2271.1 5602.7 2310.9 5596.8 2338 5587.5 2384.6 5573.1 2382.9 5552 2422.7 5468.4 2315.1 5310.5 2343 5290.2 2432 5253.9 2385.4 5151.7 Z" data-holc_grade="C"/>
<path d="M 1327.3 5486.6 1330.7 5463.4 1342.6 5455 1342.2 5463 1345.1 5466.4 1359.5 5464.3 1371.8 5464.3 1379 5468.5 1398.1 5482 1421.8 5462.6 1443 5461.7 1474 5462.6 1478.6 5458.8 1482.4 5448.2 1492.2 5439.4 1509.1 5428 1528.6 5410.2 1553.2 5381.5 1583.7 5394.2 1613.4 5429.6 1674.8 5517.9 1681.6 5544.5 1570.2 5615.9 1521 5624.3 1435.8 5643.7 1332.4 5686.4 1293 5624.7 1287.1 5589.3 1294.3 5553.4 1305.3 5520.8 1327.3 5486.6 Z" data-holc_grade="C"/>
<path d="M 951.4 5463 963.9 5490 1032.6 5509.6 1059.9 5504.6 1057.3 5552.7 1070.7 5589.4 1084.7 5618.6 1094.2 5645.8 1094.2 5680.7 1086.6 5720.6 1073.9 5733.9 1038.3 5733.2 1030 5792.8 1016.6 5871.9 1012.8 5961.3 989.9 5960 921.2 5955.5 739.4 5944.1 739.4 5911.8 754.7 5837.1 773.2 5745.8 805.6 5624.9 876.8 5621.1 913 5602.7 932.1 5557.8 950.6 5554 951.8 5539.4 952.5 5509 944.2 5483 938.7 5456.8 951.4 5463 Z" data-holc_grade="C"/>
<path d="M 1263.1 2731 1277.9 2769.5 1275.8 2839.1 1279 2966.7 1257.2 3146.6 1240.8 3182.5 1181 3309.6 1053.4 3560.7 1027.9 3645.1 986.6 3722.6 941.6 3690.4 921.5 3669.3 912.5 3664.1 889.8 3611.8 877.1 3577.5 870.2 3540.1 871.8 3477.8 873.9 3444.1 882.4 3414 882.9 3391.8 892.4 3374.4 905.7 3357.6 928.4 3339.1 968.7 3320.6 994.1 3301.1 1031.7 3264.2 1042.8 3239.4 1054.5 3184.6 1057.1 3133.9 1062.4 3107 1034.4 3095.9 1034.9 3059 1019 3039 989.9 3018.4 956 2998.3 937 2977.2 915.8 2948.2 909.5 2912.9 911.6 2886.5 965 2890.2 1000.5 2744.6 1190.6 2797.4 1210.2 2718.3 1263.1 2731 Z" data-holc_grade="C"/>
<path d="M 1982 2790 1899 2946.1 1945.6 2950.3 1892.3 3017 1880.9 3036 1876.2 3044 1775.3 3203.1 1726.3 3280.3 1711 3341.9 1632.2 3340.3 1672 3136.9 1742.3 2968.9 1769.4 2844.8 1802.5 2709 1982 2790 Z" data-holc_grade="C"/>
<path d="M 2963.6 3171.5 2906.5 3191.6 2721.2 3282.4 2724.4 3241.2 2718 3171.6 2701 3068.2 2560.3 3069 2616.1 2871.8 2999 2900.3 2963.6 3171.5 Z" data-holc_grade="C"/>
<path d="M 2030.4 3397.6 2062.6 3404.4 2021.9 3589.2 1860.1 3558 1824.6 3737.8 1772 3729.4 1687.3 3707.4 1748.3 3382.5 1880.4 3407.8 1885.1 3367.8 2030.4 3397.6 Z" data-holc_grade="C"/>
<path d="M 465.7 3445.1 442.2 3517.3 375.4 3702.8 353.5 3762.9 138.2 3683.1 11.1 3625.4 1 3483.6 163 3524.2 166.2 3538.1 196.6 3599.5 234.8 3633.1 235.4 3602.1 237.3 3571.7 245.6 3535.6 262.1 3507.7 267.2 3481.8 281.9 3382.4 389.9 3391.3 383.5 3426.8 465.7 3445.1 Z" data-holc_grade="C"/>
<path d="M 893.2 3936.5 865.4 4038.4 856.5 4054.9 868.5 4061.2 822.1 4192.3 815.8 4245.5 804.3 4259.4 810 4270.8 773.1 4410.7 644.8 4379.7 569.8 4353.7 494.8 4392.3 319.4 4470.1 206.2 4502.4 220.9 4299.1 229.9 4214.9 232.4 4182 234.3 4122.5 247.7 4080.1 352.5 4089.6 434.5 4103.5 441.5 4006 380.5 3997.8 344.3 4001 343.7 3929.4 338.6 3900.3 342.4 3863.6 348.8 3807.2 353.5 3762.9 375.4 3702.8 521.5 3719.3 511.3 3823.1 765.5 3921.3 893.2 3936.5 Z" data-holc_grade="C"/>
<path d="M 1266.1 3994.8 1243.7 3991.9 1219.1 4124.4 1212.4 4173.4 1208.1 4202.9 1203.9 4222.4 1225.1 4228.3 1206.4 4351.5 1040.3 4326.5 1015.9 4322.8 1023.6 4292.4 1066 4024.8 1073.6 3995.3 1076.1 3979.2 1088 3894.8 1188 3910.9 1251.5 3921.8 1281.2 3923.5 1266.1 3994.8 Z" data-holc_grade="C"/>
<path d="M 1780.3 4097.8 1770.3 4167.5 1984.7 4217.3 1989.7 4255.3 2061.8 4243.4 2260.9 4223.1 2264.7 4305.7 2267.4 4363.9 2270.2 4425.8 2249.1 4425.8 2228.7 4424.1 2207.5 4424.1 2196.5 4427.5 2156.7 4419.9 2113.5 4401.3 2076.2 4394.6 2038.9 4402.2 2022.8 4404.7 1981.3 4404.7 1945.7 4401.3 1928.8 4401.3 1903.3 4412.3 1898.3 4406.4 1863.5 4419.1 1850.8 4426.7 1834.7 4421.6 1822.8 4412.3 1804.2 4408.1 1788.1 4409.8 1788.1 4424.1 1783 4441.9 1764.4 4447.8 1699.1 4451.2 1694 4449.5 1716.9 4344.8 1749.1 4316.1 1767.8 4200.4 1723.7 4185.2 1740.6 4088.1 1780.3 4097.8 Z" data-holc_grade="C"/>
</g>
<g id="D">
<path d="M 2594.3 481.6 2581.6 479.1 2480.9 483.3 2473.3 474.9 2437.7 463.9 2395.4 478.3 2317.5 491.8 2107.6 410.9 2110.1 389.8 2122 361.1 2136.3 329.9 2149 311.4 2149 205.1 2206.6 92.1 2247.2 1 2641.6 138.4 2648.4 199.1 2647.6 253 2641.7 310.4 2625.6 389.7 2594.3 481.6 Z" data-holc_grade="D"/>
<path d="M 1966.1 778.4 1897.7 971.8 1873.4 965.9 1718.5 1412.1 1742.8 1424 1714.9 1515.1 1642.4 1487.2 1653.3 1448.4 1655 1425.6 1678.7 1364.1 1694 1319.4 1704.1 1267 1717.7 1238.4 1734.6 1132.1 1772.7 1013.1 1792.2 956.6 1828.6 884.1 1848.9 844.4 1859.9 813.2 1875.7 744.9 1966.1 778.4 Z" data-holc_grade="D"/>
<path d="M 1918.5 2334.3 1875.3 2439.8 1819.4 2606 1744 2600.1 1699.1 2586.6 1676.3 2779 1604.3 2769.7 1607.7 2730.1 1610.2 2648.2 1609.3 2579 1490.8 2566.4 1507.7 2533.5 1528.9 2485.4 1537.4 2452.5 1544.1 2422.1 1543.3 2388.3 1550.1 2357.9 1555.2 2300.6 1857.6 2332.6 1918.5 2334.3 Z" data-holc_grade="D"/>
<path d="M 1802.5 2709 1769.4 2844.8 1742.3 2968.9 1672 3136.9 1632.2 3340.3 1607.7 3332.7 1509.8 3340.4 1469.6 3343.6 1455.2 3336.9 1483.2 3181.6 1514.5 3027.1 1523 2989.2 1572.1 2860.9 1580.6 2771.4 1604.3 2769.7 1676.3 2779 1699.1 2586.6 1744 2600.1 1819.4 2606 1837.2 2614.5 1802.5 2709 Z" data-holc_grade="D"/>
<path d="M 893.2 3936.5 765.5 3921.3 511.3 3823.1 521.5 3719.3 375.4 3702.8 442.2 3517.3 465.7 3445.1 677.9 3493.9 718.6 3518 725.6 3426.2 793.5 3440.1 788.4 3529.4 838 3535.7 840.5 3580.7 855.8 3640.2 876.1 3714.3 876.1 3758 896.4 3792.2 919.3 3816.2 918 3847.9 906.6 3882.1 893.2 3936.5 Z" data-holc_grade="D"/>
<path d="M 1742.2 3345.5 1736.6 3380.6 1748.3 3382.5 1687.3 3707.4 1667.3 3812.9 1657.2 3825.6 1585.1 3750.5 1546.2 3736.1 1513.1 3915.9 1487.7 4018.9 1415.7 4008.8 1405.2 4095.8 1400.5 4135.4 1352.2 4199.6 1328.4 4371 1288.7 4364.6 1206.4 4351.5 1225.1 4228.3 1203.9 4222.4 1208.1 4202.9 1212.4 4173.4 1219.1 4124.4 1243.7 3991.9 1266.1 3994.8 1378.9 4009.6 1391.6 3939.6 1406.9 3883 1418.8 3808.7 1424.7 3728.5 1424.7 3709.1 1412 3683.8 1401 3663.5 1456 3536.9 1467.1 3551.3 1509.8 3340.4 1607.7 3332.7 1632.2 3340.3 1711 3341.9 1742.2 3345.5 Z" data-holc_grade="D"/>
<path d="M 1487.7 4018.9 1514.7 4024 1740.6 4088.1 1723.7 4185.2 1767.8 4200.4 1749.1 4316.1 1716.9 4344.8 1694 4449.5 1661.3 4457.9 1654.5 4447.8 1647.7 4425.8 1650.2 4403 1657 4389.5 1623.1 4386.2 1576.5 4257 1628.2 4233.4 1631.6 4224.9 1616.3 4195.4 1617.2 4151.5 1613.8 4129.5 1546.9 4094.1 1524.8 4107.6 1405.2 4095.8 1415.7 4008.8 1487.7 4018.9 Z" data-holc_grade="D"/>
<path d="M 951.4 5463 938.7 5456.8 902.2 5329.3 910.7 5293.8 915.8 5170.5 933.6 4996.6 952.3 4904.5 977.7 4747.5 992.2 4629.3 996.4 4574.4 1008.3 4538.9 1040.3 4326.5 1206.4 4351.5 1288.7 4364.6 1305.7 4439.3 1365 4495.9 1377.7 4499.3 1382.8 4533.1 1373.5 4552.5 1251.5 4528 1242.1 4594.7 1199.8 4911.3 1294.7 4953.5 1375.2 4981.4 1340.4 5175.6 1281.9 5157.9 1169.2 5130.9 1103.1 5114 1068.4 5097.1 1063.3 5259.2 1138.7 5263.4 1311.6 5346.2 1301.4 5423.1 1320.1 5451.8 1315 5478.8 1295.5 5489.8 1276.8 5502.4 1268.4 5506.7 1260.7 5506.7 1259.9 5490.6 1242.1 5467 1242.1 5455.1 1231.1 5442.5 1220.1 5440.8 1212.4 5447.5 1208.2 5464.4 1207.3 5483 1201.4 5489.8 1191.2 5494 1172.6 5486.4 1155.6 5482.2 1123.4 5488.9 1098 5492.3 1064.9 5483 1058.2 5486.4 1040.4 5493.1 1017.5 5486.4 975.1 5474.5 951.4 5463 Z" data-holc_grade="D"/>
<path d="M 2977.6 5704.7 2950.6 5980 2686.5 5932 2684.8 5907.5 2678 5888.9 2657.6 5862.7 2640.7 5845 2626.3 5809.5 2624.6 5789.2 2650 5760.5 2700 5703.9 2496.5 5560.4 2483.8 5552 2462.6 5546.9 2444.8 5549.4 2427 5553.7 2427.9 5544.4 2439.7 5528.3 2497.3 5497.1 2518.5 5465.8 2591.4 5405.8 2673.6 5514.8 2699.9 5497.9 2794 5589 2855.9 5620.3 2913.1 5663.3 2965.7 5701.3 2977.6 5704.7 Z" data-holc_grade="D"/>
</g>
</svg>