<?xml version="1.0"?>
<svg xmlns="http://www.w3.org/2000/svg" version="1.2" baseProfile="tiny" width="3000" height="3057" viewBox="0 0 3000 3057" stroke-linecap="round" stroke-linejoin="round">
<g id="A">
<path d="M 2996.8 893.7 2999 893.7 2998.3 1251.7 2689.5 1251.9 2603.4 1251.9 2595.7 1251.9 2595.7 1247.1 2598.7 892.8 2996.8 893.7 Z" data-holc_grade="A"/>
<path d="M 2193.6 1651.1 2006.8 1652.9 2006.4 1652.3 1872 1440.2 1872.3 1432.9 1876.1 1354.2 1943.6 1353.9 2197.2 1353 2193.6 1651.1 Z" data-holc_grade="A"/>
<path d="M 1412.2 1351.4 1311.2 1351.4 1307.2 1351.4 1311.4 1346.2 1315.6 1323.5 1316.9 1292.1 1312.3 1269.3 1306.4 1255.6 1305.4 1253.3 1409.9 1253.3 1410.1 1263.2 1411.5 1323.5 1412.2 1351.4 Z" data-holc_grade="A"/>
<path d="M 1008.7 199.4 1008.8 303.7 1007.1 303.6 1004.6 303.5 860 297.9 834.8 292.7 832.3 292.2 833.3 45.4 885 44.9 884.1 3.2 1008.4 1 1008.5 46.1 1008.7 195.5 1008.7 199.4 Z" data-holc_grade="A"/>
<path d="M 1015.4 1451.7 1015.5 1480.2 1009.2 1480.2 957.7 1480.7 930.9 1451.1 903.6 1431.1 905.8 1373.5 1010.4 1370.7 1014.6 1451.7 1015.4 1451.7 Z" data-holc_grade="A"/>
<path d="M 1109.3 1453.3 1111.6 1548.6 1010.8 1544.2 1007.1 1544 1009.2 1480.2 1015.5 1480.2 1015.4 1451.7 1109.3 1453.3 Z" data-holc_grade="A"/>
<path d="M 1456.2 2349.8 1454.5 2349.8 1453.7 2146.7 1211.5 2146.5 1211 2146.5 1207.3 2133.4 1206.3 2108.9 1201.7 2093.5 1202.2 2066.1 1196.2 2049.6 1198 2033.1 1180.9 1973.8 1170.6 1947.6 1168.6 1934.8 1163 1910 1158.8 1904.9 1149.6 1864.4 1146.1 1846.9 1145.2 1836.7 1139.3 1815.9 1138.4 1796.9 1130.6 1773.2 1124.1 1750.4 1112.1 1727.6 1102.8 1713.9 1095.4 1700.2 1088 1685.9 1079.7 1672.3 1066.8 1654.6 1058.9 1643.8 1054.3 1621.5 1040.4 1607.8 1034.9 1597 1027.5 1586.7 1021.9 1579.9 1013.6 1557.1 1006.2 1553.7 1010.8 1544.2 1111.6 1548.6 1109.3 1453.3 1113 1453.4 1113 1448.9 1268.5 1449.9 1225.2 1549.6 1409.4 1550.3 1410.8 1650.6 1794.8 1652.4 1797 1851 1995.5 1851 1999.6 2355.7 1798.8 2355.1 1797 2450.4 1596.1 2450.4 1593.2 2350.7 1456.2 2349.8 Z" data-holc_grade="A"/>
</g>
<g id="B">
<path d="M 2296.6 884.1 2298.1 1354 2398.4 1353.2 2399.2 1254.3 2400.6 1254.3 2595.7 1247.1 2595.7 1251.9 2603.4 1251.9 2689.5 1251.9 2689.5 1303.2 2711.3 1303.7 2710.4 1357.3 2401.5 1355.8 2399.3 1453.2 2300.3 1456.7 2294.4 1653.9 2193.6 1653.9 2193.6 1651.1 2197.2 1353 1943.6 1353.9 1876.1 1354.2 1874 1354.2 1874.4 1313 1874.9 1252.2 1949.8 1251.6 1947.5 1051 1996 1050.9 1996.5 945.5 1996.6 945.5 1996.7 891.1 2199.1 889.6 2200.2 701.4 2296 698.8 2296.6 884.1 Z" data-holc_grade="B"/>
<path d="M 1872.3 1432.9 1872 1440.2 2006.4 1652.3 2003.6 1652.5 1999.9 1652.8 1995.7 1850.1 1995.7 1851 1995.5 1851 1797 1851 1794.8 1652.4 1410.8 1650.6 1409.4 1550.3 1225.2 1549.6 1268.5 1449.9 1311.2 1351.4 1412.2 1351.4 1412.2 1352 1819.6 1348.6 1872.3 1432.9 Z" data-holc_grade="B"/>
<path d="M 1007.1 303.6 1006.9 649.1 1005.5 649.1 1003.3 649.1 837.7 647.9 835.3 851.2 834.9 881 764.2 880.4 765.6 832.6 774.8 791.5 775.8 772.7 786.4 772.7 788.3 719.1 776.7 718.6 777.7 617.7 722.2 617.7 719.9 571.5 511.9 564 513.4 471.1 836.4 465.5 834.8 292.7 860 297.9 1004.6 303.5 1007.1 303.6 Z" data-holc_grade="B"/>
<path d="M 1456.2 2349.8 1453.9 2353.3 1414.5 2352.9 1413 2447 1511.6 2447.4 1513 2563.8 1407.5 2564.9 1406.1 2554.6 1220.6 2554.6 1219.4 2532 1219.1 2509 1222.4 2484.6 1221.8 2466.7 1232.4 2432.8 1236.9 2424.4 1242.5 2403.2 1251.4 2381 1245.3 2347 1244.1 2328.3 1238.4 2306.2 1228.4 2279.5 1218.6 2249.4 1216.5 2231.7 1219.7 2200.6 1213.4 2178 1211.3 2147.5 1211.5 2146.5 1453.7 2146.7 1454.5 2349.8 1456.2 2349.8 Z" data-holc_grade="B"/>
</g>
<g id="C">
<path d="M 2996.8 893.7 2598.7 892.8 2595.7 1247.1 2400.6 1254.3 2401.8 890.6 2296.6 884.1 2296 698.8 2200.2 701.4 2199.1 889.6 1996.7 891.1 1996.6 945.5 1996.5 945.5 1899.1 947 1899.1 1048 1947.5 1051 1949.8 1251.6 1874.9 1252.2 1874.4 1313 1874 1354.2 1876.1 1354.2 1872.3 1432.9 1819.6 1348.6 1412.2 1352 1412.2 1351.4 1411.5 1323.5 1410.1 1263.2 1409.9 1253.3 1409.9 1251.6 1412.4 1251.6 1412.7 1251.6 1413 1251.6 1753.4 1248.2 1724.6 1198.7 1713.4 1182.3 1696.2 1165.1 1670.8 1146.5 1642.1 1131.9 1595.3 1109.7 1594.3 769.4 1693.7 732.4 2046.8 587.1 2050.6 585.5 2083.5 572 2400.5 430.4 2448.8 402.1 2490.5 391.2 2570.7 377.3 2596.4 375.4 2595.8 448.8 2669.2 448.7 2669.3 547.9 2697.9 548.5 2697.6 749.7 2998 749.5 2996.8 893.7 Z" data-holc_grade="C"/>
<path d="M 1995.7 1850.1 1999.9 1652.8 2003.6 1652.5 2080.3 1779.9 2080.8 1851.8 1995.7 1850.1 Z" data-holc_grade="C"/>
<path d="M 1207.1 47.3 1207.1 200 1008.7 199.4 1008.7 195.5 1008.5 46.1 1194.1 47.8 1207.1 44.4 1207.1 47.3 Z" data-holc_grade="C"/>
<path d="M 1005.5 797.4 1005.5 798.8 930.9 798.4 930.9 860.8 835.3 851.2 837.7 647.9 1003.3 649.1 1005.5 649.1 1005.5 797.4 Z" data-holc_grade="C"/>
<path d="M 712.4 1028.6 716.1 1034.8 665.8 1052 634.6 1056.5 600.1 1050.4 545.4 1036.8 503.7 1023.7 473.5 1022.6 450.7 1023 423.8 1027.3 395.4 1033.2 363.1 1036.1 324.1 1037.1 284.8 1025.8 247.4 1015.7 213.5 1004.4 183.6 995.3 146.7 988.3 124.9 987.3 109.9 989.2 108.1 989.4 89.7 993 69.8 1001.5 41.2 1011.2 26.8 1017.4 7 1026 7.5 889.2 133.1 891.1 704.9 882.3 706 1018 712.4 1028.6 Z" data-holc_grade="C"/>
<path d="M 1113 1448.9 1113 1453.4 1109.3 1453.3 1015.4 1451.7 1014.6 1451.7 1010.4 1370.7 905.8 1373.5 905 1373.5 890.7 1367.8 877.3 1415.1 793.6 1349 802.9 1329.6 801.5 1251 1068.7 1252.7 1091.3 1300 1113.1 1301.8 1113 1448.9 Z" data-holc_grade="C"/>
</g>
<g id="D">
<path d="M 1 3055.7 7.1 2641.3 113.3 2641.3 114.6 2344.9 210.6 2346.4 212.9 2242 412.8 2244.9 412.7 2342.3 506.5 2347.9 509.9 2247.7 621.7 2243.3 621.3 2149.2 707.1 2149.9 709.1 2242.2 785.8 2241.5 785.5 2251 845 2251.4 860.1 2257.6 876.7 2268.2 888.8 2287.2 891.2 2304 893.8 2325.1 765.6 2324.7 766.6 2260.5 710.6 2258.3 705.7 2647.9 612.8 2648.2 611.9 2692.7 637.3 2690.2 637.3 2700.4 706.6 2700.4 707.2 2750 757.2 2749.3 760.1 2850 557.6 2848.8 558.3 2648.2 408.3 2645 406.4 2744.2 355 2744.7 353.5 2842 250.9 2845.5 251.6 2898.9 107 2901.5 106 3050.7 1 3055.7 Z M 507.4 2462.1 506.4 2549.3 604 2549.3 603.6 2463.3 507.4 2462.1 Z M 404.1 2645 406.5 2547.5 307.5 2540.1 271.9 2495 211.8 2494.4 211.7 2647.7 404.1 2645 Z M 105.8 2647.1 103.4 2748 201 2749.2 202.4 2646.6 105.8 2647.1 Z" data-holc_grade="D"/>
<path d="M 663.9 1933.2 661.1 1886.5 662.6 1850 629.3 1850 661.7 1661.5 681.9 1563 670.3 1578.3 657.6 1595.1 646.3 1610.8 633 1622.1 620.9 1625.7 609.6 1625.3 610.6 1496.9 685.7 1499.8 697.4 1477.2 711.2 1455.4 749.1 1454.3 763 1466.7 781.3 1481.3 789.9 1486.8 794.9 1495.2 802.9 1508.3 811.2 1514.9 813.8 1650.2 845.2 1652.8 846.6 1682.7 857 1682 856.7 1695.1 861.7 1695.5 861.7 1701.7 877.1 1702.8 875.3 1855.7 718.1 1856.8 711.1 1865.4 712 1932.6 663.9 1933.2 Z" data-holc_grade="D"/>
<path d="M 109.9 989.2 124.9 987.3 146.7 988.3 183.6 995.3 213.5 1004.4 247.4 1015.7 284.8 1025.8 324.1 1037.1 363.1 1036.1 395.4 1033.2 423.8 1027.3 450.7 1023 473.5 1022.6 503.7 1023.7 545.4 1036.8 600.1 1050.4 634.6 1056.5 665.8 1052 716.1 1034.8 712.4 1028.6 849.2 964.8 879.7 1039.5 870 1046.3 860.3 1062.3 862.1 1111.9 795 1257.2 771.4 1303.4 752.9 1314.8 729.8 1311.4 713.6 1293.7 678.5 1254.9 654.5 1235.5 608.9 1214.2 573.4 1206.5 528.7 1178.4 474 1164.5 431.1 1154.3 406 1148.8 384.7 1149.9 206.6 1181.1 205.6 1156.6 105.8 1156.6 109.9 989.2 Z" data-holc_grade="D"/>
<path d="M 2046.8 587.1 1693.7 732.4 1594.3 769.4 1595.3 1109.7 1642.1 1131.9 1670.8 1146.5 1696.2 1165.1 1713.4 1182.3 1724.6 1198.7 1753.4 1248.2 1413 1251.6 1412.7 1251.6 1412.4 1251.6 1408.9 1202 1280 1202.6 1263.3 1181.5 1262.4 908.5 1101.1 976.9 1027.4 797.7 1005.5 797.4 1005.5 649.1 1006.9 649.1 1007.1 303.6 1008.8 303.7 1008.7 199.4 1207.1 200 1207.1 47.3 1309.9 45.9 1310.8 94.4 1410.5 93.7 1408.5 243.9 1501.9 245.6 1501.9 348.2 1546.7 349.9 1549.5 388.7 1602.1 344.2 1601.7 255.8 1793.9 253 1793.9 147.5 2097 150.3 2096.1 356.7 1910.8 357.3 1912.2 453.6 1875.5 453.6 1874.8 548 2045.2 550.6 2046.8 587.1 Z" data-holc_grade="D"/>
</g>
</svg>