<?xml version="1.0"?>
<svg xmlns="http://www.w3.org/2000/svg" version="1.2" baseProfile="tiny" width="3000" height="1990" viewBox="0 0 3000 1990" stroke-linecap="round" stroke-linejoin="round">
<g id="A">
<path d="M 1046.9 235.8 1032 207.1 1023.2 200.9 1021.3 172.1 1013.1 148.8 1010.6 122.9 1009.3 106.4 1012.4 89.3 1018.1 71.5 984.9 47.2 999.8 1 1060.3 28.3 1041.6 87.9 1066.1 108 1081.4 140.6 1071.3 157.6 1087.9 199.8 1088.8 229.2 1046.9 235.8 Z" data-holc_grade="A"/>
<path d="M 2261.8 970.1 2200.6 926.8 2295.5 885.8 2321.2 890.4 2296.1 944.6 2298.1 962 2261.8 970.1 Z" data-holc_grade="A"/>
<path d="M 2261.8 970.1 2217.6 981.3 2210.8 972.8 2201.7 961 2187.3 970.2 2181.7 940.1 2200.6 926.8 2261.8 970.1 Z" data-holc_grade="A"/>
<path d="M 778 1609.2 710.5 1774.8 624.1 1786 621.4 1777.4 555 1723.6 587.2 1662.6 621.9 1654.7 625.1 1675.7 664.8 1666.7 661.7 1643.2 682.2 1639.5 673.4 1628.9 661.3 1595.5 661.4 1561.2 662.4 1529 690.7 1524.6 710.6 1541.3 714.8 1551.2 718 1583.1 778 1609.2 Z" data-holc_grade="A"/>
<path d="M 1119.1 1097.1 1095.8 1079.3 1050.4 1083.6 1029.4 1113 989.7 1083.3 1014.1 1050.9 1045.3 1073.5 1088.7 1025.6 1090.3 1023.4 1102.6 1006.7 1119.2 1016.5 1153.1 984.4 1179.4 1008.8 1187.7 1037.1 1192.3 1062 1157.2 1101.1 1133.8 1082.3 1119.1 1097.1 Z" data-holc_grade="A"/>
<path d="M 1371.2 1029.9 1339.6 1061.4 1317.7 1048.4 1289.1 1084.1 1239.2 1045.5 1233.9 1041.4 1268 994.8 1259 968.9 1242.3 955 1240 953 1239.1 928 1287.7 950.6 1315.9 907 1354 924.6 1371.2 1029.9 Z" data-holc_grade="A"/>
<path d="M 1393.6 1149.5 1392.8 1153.1 1335.6 1108.3 1342.8 1087.9 1339.6 1061.4 1371.2 1029.9 1439.9 1055.1 1443.2 1099 1408.7 1104.3 1393.6 1149.5 Z" data-holc_grade="A"/>
<path d="M 1213.4 1309 1237.1 1338.7 1252.1 1347.1 1216.4 1394 1186 1431.9 1184.2 1429.9 1186.6 1419.8 1183.9 1415.4 1178.8 1412 1173.3 1412.5 1162.1 1403.8 1149.4 1394.9 1140.8 1387.7 1168.5 1358.8 1161.3 1353 1204.1 1291.9 1213.4 1309 Z" data-holc_grade="A"/>
<path d="M 2088.5 1389.8 2063.2 1419.2 1991 1354.2 1964 1385.2 1949.6 1399.1 1912.1 1430.3 1887.3 1405.4 1872.5 1374.5 1840 1353.5 1841.8 1351.4 1928.9 1288.3 1928.9 1281.9 1957.1 1269.1 1992.6 1279 2004 1289.5 2035 1319.2 2092.3 1374.4 2084 1385.7 2088.5 1389.8 Z" data-holc_grade="A"/>
<path d="M 957 1322 967 1281.9 998.5 1304.8 1062 1352.7 1075.1 1390.3 1036.3 1412 1010.4 1391.6 982.6 1424.1 953.8 1403.7 997.5 1350.9 957 1322 Z" data-holc_grade="A"/>
<path d="M 1246 307.1 1233.3 318.3 1222.6 323 1213.2 319.2 1197.5 312.9 1191.5 246 1190.2 216 1162.6 218.7 1155.7 161.7 1126.2 163.6 1122 147 1092 160.3 1081.4 140.6 1066.1 108 1073.4 101.9 1082 98 1094.6 98.9 1109.4 103.9 1139.2 65.7 1162.2 83.7 1195.9 103.1 1230.7 133.4 1270.8 172.2 1282 184.2 1320.4 203.7 1301.5 253.9 1275.5 280.1 1246 307.1 Z" data-holc_grade="A"/>
<path d="M 1049.5 481.4 1049.1 498.7 982.7 560.2 962.1 570 877.2 520.8 872 488.8 851 460.4 849.6 447.3 850 447.3 878.5 447.5 895.3 426.1 930.1 385.8 1007.2 379.2 1024 351.5 1031.2 351.5 1034.5 354.4 1035.9 358.7 1039.8 390.6 1045.8 439.5 1049.5 481.4 Z" data-holc_grade="A"/>
<path d="M 1805.4 425.8 1781.2 461.6 1722.2 421.3 1710.6 413.3 1712.9 405.4 1734.3 393.8 1757.1 390 1805.4 425.8 Z" data-holc_grade="A"/>
<path d="M 2170.9 502.7 2160.8 546.6 2134.8 558.4 2139.7 516.8 2147.8 475.9 2167.9 474.2 2170.9 502.7 Z" data-holc_grade="A"/>
<path d="M 2039.6 728.9 1988.5 728.1 1989.7 709.5 1992.6 698.3 1996.8 689.7 1996.6 677.8 2020.1 669.6 2020.8 679 2022.4 685.6 2028.7 693.8 2035.2 702 2038.9 711.2 2039.6 728.9 Z" data-holc_grade="A"/>
<path d="M 2054.6 722.5 2075.9 726.8 2096.3 736.9 2116.9 742.2 2133.7 746.4 2144.1 745.8 2162.9 744.3 2173.9 742.5 2162.8 700.1 2186.8 686.8 2208.8 664.2 2242.8 624 2310.7 641.6 2323.9 637.9 2349.9 672.4 2375 664.4 2376.5 670.2 2355.2 708.9 2316.3 750 2282.6 769.3 2257.9 778.5 2239.9 788.3 2220.9 808.8 2198.4 824.8 2184.8 829.2 2157.5 831.7 2126.6 834.7 2096 788.4 2080.1 771.6 2064.5 778.7 2054.6 722.5 Z" data-holc_grade="A"/>
<path d="M 2607.6 727.8 2541.9 848.7 2521.1 820.1 2514.1 793.9 2501.8 778.8 2476.7 746.9 2473.2 727.1 2465 716.1 2445.1 702.7 2477.2 680.6 2494.7 696.3 2572.9 699.1 2570 730.5 2607.6 727.8 Z" data-holc_grade="A"/>
<path d="M 2541.9 848.7 2607.6 727.8 2610.9 727.5 2613.8 763 2604.5 768.8 2625.6 805.4 2607.5 864.2 2585.4 867.1 2574.3 871.5 2557.2 878.3 2545.3 853.4 2541.9 848.7 Z" data-holc_grade="A"/>
</g>
<g id="B">
<path d="M 817.9 344.3 847.5 371.1 850 447.3 849.6 447.3 851 460.4 872 488.8 877.2 520.8 858.4 542.3 864.1 567.1 731 656.1 738.8 666.7 738.4 681.7 737.2 686.4 717 712.8 713.5 715.3 696.4 718.4 691.6 718.8 661.6 739.1 645.8 579.4 655.2 578.8 669.3 577.1 681.6 566.4 692.9 564.7 730.9 554.8 748.8 548.3 725.3 495 698.4 419.5 618.6 450.9 555.4 474.8 544.8 461.7 538.5 452.7 527.8 437.1 533.3 434.4 539.7 425.8 543.7 417.6 546.8 406 547 399.2 549.2 393.7 553.1 389.4 559.6 388.5 569.2 391.2 574.9 392 583.3 388.1 585.5 384.6 587.1 374.4 590 357.8 594.5 343.6 595 342.4 782.2 344.3 817.9 344.3 Z M 653.7 436.8 644.7 410.4 587.6 437 592.9 460 653.7 436.8 Z" data-holc_grade="B"/>
<path d="M 2478.9 505.1 2538.7 419.7 2631.1 510.7 2632.8 522.7 2617.5 525.6 2602 533.4 2593.3 542.6 2586.1 559.3 2549.8 547.8 2528.4 541 2503.6 538.7 2474.4 517.5 2482.5 508 2478.9 505.1 Z" data-holc_grade="B"/>
<path d="M 2620.9 704.2 2607.6 727.8 2570 730.5 2572.9 699.1 2494.7 696.3 2477.2 680.6 2504.5 656.2 2585.7 594.2 2596 596.1 2603.7 668.9 2615 668.4 2620.3 697.2 2620.9 704.2 Z" data-holc_grade="B"/>
<path d="M 930.5 1239.5 919.7 1256.9 903.4 1266.4 882.5 1287 868.3 1299.3 840.6 1315.7 828.5 1335.9 810 1354.4 749.8 1406.6 729.5 1391.4 662.1 1340.8 743.4 1254.8 745.5 1252.5 824.5 1171.3 828.7 1168.1 930.5 1239.5 Z" data-holc_grade="B"/>
<path d="M 967 1281.9 957 1322 945.6 1367.6 937.6 1396.4 929.6 1412.4 910.5 1429.9 887.2 1443.1 872.3 1448.8 848.7 1472.4 798.2 1438 819.3 1413.6 837.6 1387.7 859.5 1368.9 883.1 1348.7 894.2 1339.3 905.4 1335.2 921.9 1329.2 930.7 1319.6 939.7 1297 970.2 1269.2 967 1281.9 Z" data-holc_grade="B"/>
<path d="M 1002.3 1145.5 1041.6 1229.9 966.7 1245.6 946.7 1249.7 930.5 1239.5 828.7 1168.1 824.5 1171.3 772.7 1132.8 729.1 1185.6 692 1156.5 733.6 1101.1 701.8 1076.3 695.3 1071.2 721 1050.4 765.2 1008.2 812 952.5 843.8 977.1 899.5 952.2 911.1 972.3 864.4 1001.8 840.3 1018.8 833 1028.7 785.1 1062.6 840.5 1105.1 970 1195.3 990.3 1170.1 1002.3 1145.5 Z" data-holc_grade="B"/>
<path d="M 1119.1 1097.1 1168.1 1134.7 1146.3 1162.8 1164.1 1177.8 1127.6 1211.8 1105.8 1218.1 1041.6 1229.9 1002.3 1145.5 980.2 1098.1 989.7 1083.3 1029.4 1113 1050.4 1083.6 1095.8 1079.3 1119.1 1097.1 Z" data-holc_grade="B"/>
<path d="M 1239.2 1045.5 1196.4 1099.1 1168.1 1134.7 1119.1 1097.1 1133.8 1082.3 1157.2 1101.1 1192.3 1062 1187.7 1037.1 1179.4 1008.8 1153.1 984.4 1168.8 970.5 1203.3 1000.6 1242.3 955 1259 968.9 1268 994.8 1233.9 1041.4 1239.2 1045.5 Z" data-holc_grade="B"/>
<path d="M 1289.1 1084.1 1301.8 1094.8 1257.5 1146.9 1196.4 1099.1 1239.2 1045.5 1289.1 1084.1 Z" data-holc_grade="B"/>
<path d="M 1339.6 1061.4 1342.8 1087.9 1335.6 1108.3 1392.8 1153.1 1390 1165.5 1301.4 1185.6 1257.5 1146.9 1301.8 1094.8 1289.1 1084.1 1317.7 1048.4 1339.6 1061.4 Z" data-holc_grade="B"/>
<path d="M 1252.1 1347.1 1237.1 1338.7 1213.4 1309 1260.9 1276.2 1302.9 1247.4 1306.2 1249.9 1415.8 1326.9 1375.8 1373.9 1335.4 1347.8 1310.7 1378.6 1253.4 1347.8 1252.1 1347.1 Z" data-holc_grade="B"/>
<path d="M 958 185.4 959.2 189.5 966.4 202.5 981.6 222.2 1001.8 241.5 1001.6 267.9 1041.9 268.9 1054.7 285 1040.2 294.2 1032.8 298.8 1046.2 328.9 1076.4 327.7 1085.3 316 1109.4 332.5 1118.6 396.5 1124 434.1 1108.4 445 1105.6 438.8 1103 438 1097.1 441.9 1091.5 455.7 1076 470.5 1049.5 481.4 1045.8 439.5 1039.8 390.6 1035.9 358.7 1034.5 354.4 1031.2 351.5 1024 351.5 1007.2 379.2 930.1 385.8 895.3 426.1 878.5 447.5 850 447.3 847.5 371.1 817.9 344.3 818.1 344.3 805.6 327 758.4 273.2 764.6 273.2 770.1 271.6 773.5 264 772.3 250.7 771.9 236.7 772.1 222.4 772.7 212.5 770.6 202.3 770.2 191.5 770.2 182.6 774.7 177.1 781.2 174.8 826.1 174.6 859.6 212.5 882 214.7 894.7 217.2 903.5 220.2 915.3 220.2 933.7 217.6 932 193 956.1 185.8 958 185.4 Z" data-holc_grade="B"/>
<path d="M 1204.1 1291.9 1161.3 1353 1168.5 1358.8 1140.8 1387.7 1113.2 1369.1 1188 1262 1204.1 1291.9 Z" data-holc_grade="B"/>
<path d="M 1239.1 928 1240 953 1242.3 955 1203.3 1000.6 1168.8 970.5 1167 966.7 1160.9 961.1 1133.8 938.2 1091.3 904.5 1064 882.8 1029.2 922.3 998.7 895.3 1044.3 844.9 1075.5 810.5 1134.6 858.9 1190.6 786.6 1238.1 821.5 1205.4 866.8 1214.2 874.7 1209 881.2 1207 917.9 1224.7 912.4 1239.1 928 Z" data-holc_grade="B"/>
<path d="M 1776.1 997.9 1723.7 1064.5 1693.5 1044.3 1649.5 1038.5 1625.2 1074.9 1596.7 1108.1 1561.9 1116.9 1521.6 1091.8 1498.6 1095.8 1485.1 1110.4 1462.5 1114.7 1451.1 1116.4 1513.6 1045 1564.9 986.1 1575.6 974.4 1584.7 980.3 1591.4 980.3 1604.1 974.2 1609.1 978.5 1614 978.5 1615.7 975.6 1615.7 936.8 1646.2 917.4 1689.1 912.3 1701 912.3 1705 908.3 1745.9 904.4 1752.2 953.4 1740.2 965.8 1776.1 997.9 Z" data-holc_grade="B"/>
<path d="M 1734.6 1268.3 1684 1314.4 1666.4 1281.8 1674 1225.2 1646.5 1201.1 1550.8 1326.7 1527.1 1312 1560.3 1263.9 1563.1 1258.2 1557.9 1254 1638 1161 1668.3 1185.1 1711.4 1185.1 1712.8 1195.4 1755.9 1187.4 1735.2 1155 1763.6 1134 1776 1135.5 1784.5 1144.2 1790.1 1161 1791.1 1172.5 1800.1 1186.8 1756.8 1228.7 1767.2 1238.8 1734.6 1268.3 Z" data-holc_grade="B"/>
<path d="M 2210.8 972.8 2191.9 989.4 2110.8 1002.1 2102.2 954.5 2079.2 959 2073.2 933.7 2067.4 905.5 2151.4 892.6 2200.6 926.8 2181.7 940.1 2187.3 970.2 2201.7 961 2210.8 972.8 Z" data-holc_grade="B"/>
<path d="M 2004 1289.5 1992.6 1279 1957.1 1269.1 1928.9 1281.9 1919 1203.1 1944.7 1181.5 1967 1128.3 1964.5 1100.3 2059.4 1086 2061 1100.7 2106.5 1091.7 2109 1107.3 2123.6 1188.3 2130.8 1242.3 2144.9 1247.6 2147.7 1293.8 2139.6 1298.4 2114 1338.7 2093.7 1318.9 2091.2 1285.7 2100.2 1252.5 2068.6 1239.1 2004 1289.5 Z" data-holc_grade="B"/>
<path d="M 2328.6 1074.5 2331.3 1086.9 2329 1097.9 2312.4 1108.8 2303.7 1116.7 2297.7 1131 2296.9 1141.2 2279.5 1143.9 2283.7 1155 2241.2 1170.5 2229.2 1143.2 2144.5 1158 2130.4 1103 2122.9 1074.7 2172 1064.4 2257.1 1050.8 2261.3 1083.6 2328.6 1074.5 Z" data-holc_grade="B"/>
<path d="M 2557.2 878.3 2542.3 886.1 2476.6 926 2448.6 901.8 2473 876.1 2479.2 880.6 2489.6 867.6 2498.2 875.7 2510.5 867.9 2498.2 854.5 2506.8 847.8 2514.3 854.5 2537.4 854.9 2545.3 853.4 2557.2 878.3 Z M 2441.9 895.9 2408.7 934.3 2376.8 989.8 2342.4 995 2332.9 1013.3 2279.4 1022.1 2275.3 998.3 2261.8 970.1 2298.1 962 2296.1 944.6 2321.2 890.4 2351.4 904.2 2353.5 888.8 2361.7 881.7 2368.4 884.7 2381.2 863.3 2388.2 863.3 2401.5 834.9 2421.5 854.8 2428.4 861.6 2419.4 874.8 2441.9 895.9 Z" data-holc_grade="B"/>
<path d="M 2607.6 727.8 2620.9 704.2 2623.2 727.9 2652.3 729.6 2649 772.9 2674.4 779.8 2686.3 785.2 2656.3 851.5 2633.8 844.6 2631.2 860.8 2620 885.6 2608.5 902.9 2573.6 900.9 2576 883.7 2574.3 871.5 2585.4 867.1 2607.5 864.2 2625.6 805.4 2604.5 768.8 2613.8 763 2610.9 727.5 2607.6 727.8 Z" data-holc_grade="B"/>
<path d="M 2447.6 1069.4 2465 1060.7 2471.6 1068.9 2484.6 1064.3 2498.9 1086.4 2430.4 1134.3 2414.9 1139.2 2399.4 1109.5 2356.4 1068.8 2313.5 1028.2 2412.5 1014.1 2421.3 1058.6 2423.3 1069.5 2441 1091.5 2457.4 1082.3 2447.6 1069.4 Z" data-holc_grade="B"/>
<path d="M 1191.5 246 1054.1 249.5 1046.9 235.8 1088.8 229.2 1087.9 199.8 1071.3 157.6 1081.4 140.6 1092 160.3 1122 147 1126.2 163.6 1155.7 161.7 1162.6 218.7 1190.2 216 1191.5 246 Z" data-holc_grade="B"/>
<path d="M 346 1688.3 329.5 1700 335.3 1706.8 296.3 1748.8 291 1742.3 283.4 1745.8 272.7 1736.8 260.3 1738.5 247.1 1724.7 218.5 1704.4 197.7 1710.9 135.9 1661.2 206.7 1590.8 247.6 1621.4 294.6 1614.9 308.8 1645.6 316.7 1666.6 346 1688.3 Z" data-holc_grade="B"/>
<path d="M 525.3 1409.2 524.5 1421.7 525.7 1442.8 515.6 1464.2 513 1473.6 518.1 1488.4 503.8 1509.5 496.2 1523 470 1532.8 463.3 1537.2 429.2 1514.5 410.6 1538.1 367.6 1503 394.6 1472.8 460.2 1523.1 477.5 1506.8 492.8 1489.6 499.3 1462.6 464.7 1437.5 507.2 1391.8 525.3 1409.2 Z" data-holc_grade="B"/>
<path d="M 278.9 1923.6 297.7 1904.3 316.8 1886.4 332 1870.2 404.9 1780.5 408.8 1778.7 426.6 1770.7 449.8 1788.1 485.6 1782.1 541.2 1774.4 551.7 1822.8 553.6 1831.3 570.7 1855.3 574 1893.3 466.7 1905.3 278.9 1923.6 Z" data-holc_grade="B"/>
<path d="M 645 1841.7 624.1 1786 710.5 1774.8 724.3 1786.9 733 1801.9 735.9 1818.2 732.7 1847.1 735.9 1861.6 744.4 1875.8 745.1 1886.2 663 1896.6 645 1841.7 Z" data-holc_grade="B"/>
<path d="M 659.6 1517.7 734.3 1454.9 834.4 1527.1 797.2 1567.8 778 1609.2 718 1583.1 714.8 1551.2 710.6 1541.3 690.7 1524.6 662.4 1529 659.6 1517.7 Z" data-holc_grade="B"/>
<path d="M 1901.3 1636 1877.4 1675.9 1866.7 1747.6 1864.2 1770 1829.5 1836 1802.6 1830.3 1800 1829.8 1775.8 1824.6 1805.1 1676.3 1791.5 1662.7 1800.8 1653.1 1789.4 1642.6 1821.1 1623.5 1835.1 1640.6 1845.7 1645.4 1901.3 1636 Z" data-holc_grade="B"/>
<path d="M 1800 1829.8 1802.6 1830.3 1829.5 1836 1864.2 1770 1866.7 1747.6 1909.7 1748.2 1905.3 1772.1 1966.6 1770.8 1969.7 1783 1957.5 1784.8 1943.6 1783.3 1938.7 1798.6 1961.6 1802.7 1933.8 1832.9 1909 1825.6 1879.3 1863.5 1848.5 1905.6 1834.5 1921.2 1819.4 1920.2 1818.6 1903 1788.6 1896.8 1800 1829.8 Z" data-holc_grade="B"/>
<path d="M 2009 1622.1 2014.1 1635.7 2014.1 1678.4 2018.3 1694.2 2012.9 1700.2 2014.1 1708.8 1998.6 1672.1 1992.2 1676.2 1975.1 1662 1954.5 1644.9 1918 1618.7 1914.8 1603.8 1918.9 1591.5 1918.9 1582.7 1899.9 1568.5 1918.9 1555.2 1942.1 1569.7 1967.4 1544.7 2003.3 1589.3 2005.5 1617.1 2009 1622.1 Z" data-holc_grade="B"/>
<path d="M 2063.2 1419.2 2088.5 1389.8 2100.9 1398 2109.4 1384.8 2136.7 1408.4 2129.7 1416.7 2154.2 1435.3 2099 1502 2145 1536.7 2057.5 1531.7 2019.7 1508.7 1998.8 1490 2026.7 1429.1 2042.5 1443.3 2063.2 1419.2 Z" data-holc_grade="B"/>
<path d="M 1239.6 391.8 1278.1 410.5 1261.1 427.4 1250.7 449.8 1236 461.3 1229.6 472 1194.8 488.7 1124 434.1 1118.6 396.5 1141.2 389.1 1145.8 395.8 1204.6 371.4 1239.6 391.8 Z" data-holc_grade="B"/>
<path d="M 1712.9 405.4 1710.6 413.3 1709.6 417 1713.5 447.2 1712 455.1 1691.1 455.3 1670.5 451.4 1651.2 451 1645.4 454 1634.4 466.4 1589.3 463.2 1541.5 515.3 1511.9 490.4 1437.3 434.1 1454.9 365.2 1461.6 339 1484.6 294.3 1506.1 253 1512.5 251.5 1545.3 262.2 1537.9 282.6 1598.8 313.5 1598.8 321.3 1609.2 324.5 1608.8 329.2 1629.6 335 1634.6 324.7 1666.2 337.1 1727.7 363.4 1732.4 375 1713.5 403.3 1712.9 405.4 Z M 1612.1 356.5 1612.1 352.7 1593.2 349.3 1585 369 1655.9 385 1676.8 366.8 1664.4 350.4 1648.4 361.3 1627.6 356.5 1627 359.1 1612.1 356.5 Z" data-holc_grade="B"/>
<path d="M 2036.6 328.3 2071.6 328.1 2074.2 324.8 2090.2 334.8 2112.7 305.6 2163.5 327.4 2193.9 343 2233.2 350.7 2206.6 387.4 2174.8 357.7 2160.6 375.1 2156.6 399.5 2131 400.6 2096.8 376.4 2086.1 385.4 2049.5 359.9 2023.7 382.5 1997.6 368 2036.6 328.3 Z" data-holc_grade="B"/>
<path d="M 2072.6 592.7 2057.7 634.5 2008.8 631.3 1994 628.4 1981.4 627 1955.9 616.6 1918.2 603.8 1941.5 552.3 1944 499 1991 438.5 2029.9 430.7 2092.6 414.3 2135.6 438.1 2142.1 440.5 2148.5 440.5 2156.1 439.2 2168.7 433 2187.8 416.9 2194.2 422 2206.9 452.8 2210.7 491.9 2206.7 551.1 2187.3 559.2 2161.5 570.4 2148.6 575.8 2140.6 588.5 2066.9 571.6 2091 544.1 2078.6 529.7 2054.9 556.1 2030.1 555.3 2026.5 574.7 1994 592.2 2001.5 609.3 2046.5 584.8 2072.6 592.7 Z M 2160.8 546.6 2163.4 539.1 2170.9 502.7 2167.9 474.2 2147.8 475.9 2139.7 516.8 2134.8 558.4 2160.8 546.6 Z" data-holc_grade="B"/>
<path d="M 2126.6 834.7 2167.8 873.2 2151.4 892.6 2067.4 905.5 2058.9 849 2073.4 849.7 2094.9 843.1 2075.4 828.8 2064.5 778.7 2080.1 771.6 2096 788.4 2126.6 834.7 Z" data-holc_grade="B"/>
<path d="M 2473 876.1 2448.6 901.8 2441.9 895.9 2419.4 874.8 2428.4 861.6 2421.5 854.8 2453.3 820.3 2486.2 856.8 2474.3 874.6 2473 876.1 Z" data-holc_grade="B"/>
</g>
<g id="C">
<path d="M 314.4 695.2 282.9 742.4 282.7 761.5 285.6 926.4 369.1 915.7 403.3 902.7 423.1 886.1 469.8 848.2 544.9 787.7 551.5 802.2 563.9 791.2 578.2 808.4 496.1 872.1 424.6 926.9 408.5 938.8 374.5 948.4 358.3 949.7 309.6 955.5 273.5 959.6 202.2 967.9 198.8 912.4 196.8 876.2 193.8 797.4 133.1 737.1 137.6 713.9 143.1 703.1 153.5 699.8 162.6 701.6 173.9 708.3 184.1 707.9 187.9 706.7 196.5 696.4 200.4 688.6 212 683.1 221.3 680 232.1 674.3 256.2 665.8 267.8 661.7 275.6 654.3 283.7 640.8 289 632.6 294.5 630.8 299.8 629.5 332.7 661.2 333.7 664.1 314.4 695.2 Z M 189.1 759.6 201.6 785.6 256.5 758.8 241.7 732.2 189.1 759.6 Z" data-holc_grade="C"/>
<path d="M 2039.6 728.9 2040.7 750.6 2044.6 769.9 2051.7 807.6 2023.3 787.9 1993.1 762.9 1975.2 747.9 1983.9 741.5 1988 735.6 1988.5 728.1 2039.6 728.9 Z" data-holc_grade="C"/>
<path d="M 2058.9 849 2067.4 905.5 2027.9 913.7 2010.8 891.7 2005.2 878.9 2055.9 828.8 2058.9 849 Z" data-holc_grade="C"/>
<path d="M 2431.6 560.5 2411.2 588 2380 638.2 2374.7 615 2371.9 592.2 2358.1 587.9 2352 574.2 2347.7 573.3 2326.3 583.1 2312.8 578.8 2296.3 568.1 2289.2 561.1 2326.4 548.1 2350.3 542.3 2367.7 540.1 2399.1 538.1 2435.3 536.5 2419.1 552.9 2431.6 560.5 Z M 2377.5 519.9 2309.1 534.4 2302.3 485.4 2381.2 472.2 2379.4 483.8 2376.3 503.1 2377.5 519.9 Z" data-holc_grade="C"/>
<path d="M 2538.7 419.7 2478.9 505.1 2468 496.6 2449 516.5 2422.4 498.6 2417.8 489.3 2417.1 480.5 2428.5 468.1 2466.9 402.1 2538.7 419.7 Z" data-holc_grade="C"/>
<path d="M 2380 638.2 2411.2 588 2431.6 560.5 2456.3 536.6 2522.6 580.7 2530.2 581.7 2549.7 578.1 2559.6 581.7 2512.8 615.1 2481.2 639.6 2448.1 666.2 2390.5 670.4 2385.4 661.3 2380 638.2 Z" data-holc_grade="C"/>
<path d="M 824.5 1171.3 745.5 1252.5 743.4 1254.8 713.5 1214.7 711.7 1208.8 702.6 1203.8 674.8 1246.9 626.5 1313.2 590.3 1284.1 590.3 1263.2 596.6 1252.9 610.5 1240.1 615.1 1232.8 612.5 1197.1 618.9 1189.6 622.7 1182.3 629.3 1163.7 642.9 1154.3 643.8 1141.7 645.6 1130.8 677.8 1093.7 685.7 1098.7 701.8 1076.3 733.6 1101.1 692 1156.5 729.1 1185.6 772.7 1132.8 824.5 1171.3 Z" data-holc_grade="C"/>
<path d="M 861 1046.9 880.3 1063.7 840.5 1105.1 785.1 1062.6 833 1028.7 861 1046.9 Z" data-holc_grade="C"/>
<path d="M 966.7 1245.6 970.2 1269.2 939.7 1297 930.7 1319.6 921.9 1329.2 905.4 1335.2 894.2 1339.3 883.1 1348.7 859.5 1368.9 837.6 1387.7 819.3 1413.6 798.2 1438 749.8 1406.6 810 1354.4 828.5 1335.9 840.6 1315.7 868.3 1299.3 882.5 1287 903.4 1266.4 919.7 1256.9 930.5 1239.5 946.7 1249.7 966.7 1245.6 Z" data-holc_grade="C"/>
<path d="M 1257.5 1146.9 1301.4 1185.6 1267.8 1190.5 1229.1 1158.7 1190.5 1204.9 1193.9 1232 1080 1256.1 1055.9 1260.2 1041.6 1229.9 1105.8 1218.1 1127.6 1211.8 1164.1 1177.8 1146.3 1162.8 1168.1 1134.7 1196.4 1099.1 1257.5 1146.9 Z" data-holc_grade="C"/>
<path d="M 1188 1262 1113.2 1369.1 1099.3 1358.3 1089.3 1332.6 1123.2 1290.7 1080 1256.1 1193.9 1232 1217 1228 1223.2 1238 1188 1262 Z" data-holc_grade="C"/>
<path d="M 645.8 579.4 644.5 552.9 500.8 570.3 520.5 672.7 490.4 697.6 469.3 671.8 475.8 635.8 473.2 614.8 427.7 591.2 406.6 564.2 442.4 533.8 485 497 538.5 452.7 544.8 461.7 555.4 474.8 618.6 450.9 698.4 419.5 725.3 495 748.8 548.3 730.9 554.8 692.9 564.7 681.6 566.4 669.3 577.1 655.2 578.8 645.8 579.4 Z" data-holc_grade="C"/>
<path d="M 1213.4 1309 1204.1 1291.9 1188 1262 1223.2 1238 1217 1228 1265.2 1219.7 1302.9 1247.4 1260.9 1276.2 1213.4 1309 Z" data-holc_grade="C"/>
<path d="M 1533 1442.2 1480.7 1406.4 1427 1364.8 1473 1306.4 1578.3 1385.3 1557.4 1416.1 1533 1442.2 Z" data-holc_grade="C"/>
<path d="M 1561.9 1116.9 1579.4 1130.7 1553.7 1138 1543.7 1134.8 1520.5 1140.1 1512.1 1141.8 1506.2 1137.6 1477.7 1144.5 1447.5 1149.8 1448.9 1154.8 1390 1165.5 1392.8 1153.1 1393.6 1149.5 1408.7 1104.3 1443.2 1099 1448.3 1117.9 1485.5 1110.8 1498.6 1095.8 1521.6 1091.8 1561.9 1116.9 Z" data-holc_grade="C"/>
<path d="M 1557.9 1254 1563.1 1258.2 1560.3 1263.9 1527.1 1312 1399.7 1235 1378.4 1222.1 1385.4 1204.3 1459 1189.2 1466 1213.7 1487.2 1206.7 1484.5 1182.9 1580 1161.5 1524.2 1232.8 1557.9 1254 Z" data-holc_grade="C"/>
<path d="M 1579.4 1130.7 1561.9 1116.9 1596.7 1108.1 1625.2 1074.9 1649.5 1038.5 1693.5 1044.3 1723.7 1064.5 1776.1 997.9 1858.7 1075.5 1853.7 1093.2 1736.9 1115.2 1712.3 1117.2 1705.4 1095.3 1699.6 1096.5 1690.6 1109.4 1662.3 1110.9 1634.8 1113.7 1637.2 1135.3 1597.8 1138.8 1586.3 1131.6 1579.4 1130.7 Z" data-holc_grade="C"/>
<path d="M 1736.9 1115.2 1853.7 1093.2 1848.7 1110.8 1860 1206.2 1896.2 1273.3 1820.9 1324.7 1795.1 1318.6 1789.2 1314.2 1784.2 1307.6 1778.3 1302.4 1773.5 1300 1763.9 1299.5 1734.6 1268.3 1767.2 1238.8 1756.8 1228.7 1800.1 1186.8 1791.1 1172.5 1790.1 1161 1784.5 1144.2 1776 1135.5 1763.6 1134 1735.2 1155 1723.8 1140.2 1723.9 1136.8 1739.2 1135.9 1736.9 1115.2 Z" data-holc_grade="C"/>
<path d="M 2086.4 957.5 2097 1013.8 2092.3 1015.1 2096.8 1039.8 2012.9 1055.6 2010.6 1018.4 2021 1026.4 2041.3 1010.2 2031.4 996.7 2010 1010.2 2009.3 998.5 1987.2 958.1 1980.4 923.5 2027.9 913.7 2067.4 905.5 2073.2 933.7 2079.2 959 2086.4 957.5 Z" data-holc_grade="C"/>
<path d="M 2097 1013.8 2086.4 957.5 2102.2 954.5 2110.8 1002.1 2191.9 989.4 2210.8 972.8 2217.6 981.3 2261.8 970.1 2275.3 998.3 2279.4 1022.1 2120.1 1051.5 2116.4 1032.9 2109 1033.9 2107.6 1011 2097 1013.8 Z" data-holc_grade="C"/>
<path d="M 2313.5 1028.2 2356.4 1068.8 2328.6 1074.5 2261.3 1083.6 2257.1 1050.8 2172 1064.4 2122.9 1074.7 2120.2 1057 2305.1 1024.4 2313.5 1028.2 Z" data-holc_grade="C"/>
<path d="M 2106.5 1091.7 2061 1100.7 2059.4 1086 1964.5 1100.3 1967 1128.3 1944.7 1181.5 1919 1203.1 1904.2 1127.9 1916.5 1094.9 2064 1072.5 2064.7 1078.6 2104.4 1072.5 2106.5 1091.7 Z" data-holc_grade="C"/>
<path d="M 950.4 158.8 958 185.4 956.1 185.8 932 193 933.7 217.6 915.3 220.2 903.5 220.2 894.7 217.2 882 214.7 859.6 212.5 826.1 174.6 834.9 172.4 847.9 174.5 866.3 160 875.1 147.1 878.5 134.2 883.2 129.5 905.5 145.6 906 159.3 942.1 151.8 950.4 158.8 Z M 1010.6 122.9 994.5 111 964.9 145.9 959.4 142.5 936.9 104.8 951.7 84.6 984.9 47.2 1018.1 71.5 1012.4 89.3 1009.3 106.4 1010.6 122.9 Z" data-holc_grade="C"/>
<path d="M 2147.7 1293.8 2144.9 1247.6 2130.8 1242.3 2123.6 1188.3 2109 1107.3 2130.4 1103 2144.5 1158 2229.2 1143.2 2241.2 1170.5 2283.7 1155 2300 1187.2 2333.7 1200.1 2275.1 1224 2264.9 1204 2250.6 1192.1 2212.9 1162.9 2145.1 1174.7 2155.3 1240.5 2213.3 1265 2147.7 1293.8 Z" data-holc_grade="C"/>
<path d="M 2145 1536.7 2099 1502 2154.2 1435.3 2200.5 1466.9 2183.1 1497.2 2166 1540.2 2163.1 1546.2 2152.3 1536.4 2145 1536.7 Z M 2192.2 1288.8 2270.5 1352 2301.2 1315.3 2342.3 1324.9 2233.5 1462 2143.6 1400.9 2136.7 1408.4 2109.4 1384.8 2165.5 1301.4 2178.9 1293.8 2192.2 1288.8 Z" data-holc_grade="C"/>
<path d="M 2371.4 1289.4 2306.5 1231 2320.4 1223.1 2356.2 1207.8 2354.1 1202.6 2421 1151.3 2414.9 1139.2 2430.4 1134.3 2469.4 1167.8 2442.2 1202.9 2371.4 1289.4 Z" data-holc_grade="C"/>
<path d="M 2332.6 1486.7 2331.7 1487.2 2303.4 1523.5 2313.5 1529.2 2266.6 1597 2186.3 1556.9 2272.9 1447.7 2332.6 1486.7 Z" data-holc_grade="C"/>
<path d="M 2674.4 779.8 2649 772.9 2652.3 729.6 2623.2 727.9 2620.3 697.2 2615 668.4 2664.1 662.7 2666.7 641.9 2724.5 680 2674.4 779.8 Z" data-holc_grade="C"/>
<path d="M 2332.9 1013.3 2342.4 995 2376.8 989.8 2408.7 934.3 2441.9 895.9 2448.6 901.8 2476.6 926 2542.3 886.1 2564.9 916.2 2572.6 910.6 2573.6 900.9 2608.5 902.9 2598.2 919.8 2577.7 931 2550 950.5 2555.2 961.1 2555.6 975.6 2332.9 1013.3 Z" data-holc_grade="C"/>
<path d="M 2656.3 851.5 2686.3 785.2 2690.6 787.5 2697.4 773.5 2714.4 777.3 2739.9 788.3 2751.4 769.7 2734.4 760.4 2764.5 700.6 2886 680.1 2811.4 825.9 2769.4 906.4 2811.6 971.1 2795.9 1008.8 2661.1 943.8 2647.1 950.6 2620.3 939.6 2664.8 856.1 2656.3 851.5 Z" data-holc_grade="C"/>
<path d="M 2469.4 1167.8 2430.4 1134.3 2498.9 1086.4 2484.6 1064.3 2471.6 1068.9 2465 1060.7 2447.6 1069.4 2439.1 1055.6 2436.9 1043.1 2431.8 1009.4 2493.5 999.4 2531.8 990.4 2577 983.9 2574.9 1009.2 2570.5 1032.8 2565 1046.6 2538.6 1082.3 2469.4 1167.8 Z" data-holc_grade="C"/>
<path d="M 2604.1 1245.6 2579.9 1224.5 2558.1 1246.8 2498.8 1193.9 2522.2 1172.2 2505.7 1156.3 2559.3 1088.3 2576.7 1068.6 2593.7 1057 2620.2 1046.4 2642.5 1049.2 2659.9 1056.9 2675.4 1068 2682.7 1078.1 2665.3 1106 2685.2 1147.4 2686.2 1157.1 2674.6 1186 2677.9 1205.9 2671.8 1209.1 2667.6 1225.5 2635.3 1221.6 2623.9 1234.2 2615.6 1241.8 2609.6 1240.4 2604.1 1245.6 Z" data-holc_grade="C"/>
<path d="M 2856.1 1224 2797.2 1137.8 2767.1 1094.3 2789 1081 2870 1189.5 2880.8 1204.9 2856.1 1224 Z" data-holc_grade="C"/>
<path d="M 1023.2 200.9 1032 207.1 1046.9 235.8 1054.1 249.5 1191.5 246 1197.5 312.9 1158.8 296.3 1159.6 281.1 1173.4 280.8 1174.5 266.2 1080.1 274.3 1054.7 285 1041.9 268.9 1001.6 267.9 1001.8 241.5 981.6 222.2 966.4 202.5 959.2 189.5 958 185.4 950.4 158.8 1014.1 210.5 1023.2 200.9 Z M 1023.2 200.9 964.9 145.9 994.5 111 1010.6 122.9 1013.1 148.8 1021.3 172.1 1023.2 200.9 Z" data-holc_grade="C"/>
<path d="M 283.4 1745.8 274.4 1748.9 259 1749.2 246.1 1752.4 238.3 1757.6 233 1758.2 226.3 1755.4 220.9 1755.5 218.6 1758.3 215.8 1763.5 202 1764.7 193.6 1771.7 181.7 1773.2 175.3 1777.1 167.1 1788 160.8 1802.7 153.9 1818.5 142.6 1826.8 132.4 1830.5 122.1 1837.2 111.5 1841 103.5 1846.7 93.6 1849.8 84 1857.2 77.6 1864.8 1 1741.5 26.5 1715.7 75.4 1666.7 162.1 1579.8 244.3 1492.4 284.8 1525 263.6 1550.6 351.3 1617.4 359.6 1609.9 375.5 1622.3 404.5 1651.9 375.7 1676.3 351.4 1684.6 346 1688.3 316.7 1666.6 308.8 1645.6 294.6 1614.9 247.6 1621.4 206.7 1590.8 135.9 1661.2 197.7 1710.9 218.5 1704.4 247.1 1724.7 260.3 1738.5 272.7 1736.8 283.4 1745.8 Z" data-holc_grade="C"/>
<path d="M 464.7 1437.5 499.3 1462.6 492.8 1489.6 477.5 1506.8 460.2 1523.1 394.6 1472.8 367.6 1503 337 1478.2 315.8 1503.6 306.8 1496.4 284.8 1525 244.3 1492.4 251.1 1484.5 412 1391.8 464.7 1437.5 Z" data-holc_grade="C"/>
<path d="M 367.6 1503 410.6 1538.1 429.2 1514.5 463.3 1537.2 470 1532.8 498.1 1555.5 481.3 1578.1 448.5 1551.9 443.7 1560.1 404.5 1603.9 306.6 1523.8 321.2 1507.4 315.8 1503.6 337 1478.2 367.6 1503 Z" data-holc_grade="C"/>
<path d="M 498.1 1555.5 470 1532.8 496.2 1523 503.8 1509.5 518.1 1488.4 513 1473.6 515.6 1464.2 525.7 1442.8 524.5 1421.7 525.3 1409.2 525.7 1402.5 526.4 1374.8 532.5 1361.9 604.9 1418.1 579 1468.1 560.4 1455.6 547.2 1482.5 507.6 1562.7 498.1 1555.5 Z" data-holc_grade="C"/>
<path d="M 77.6 1864.8 84 1857.2 93.6 1849.8 103.5 1846.7 111.5 1841 122.1 1837.2 132.4 1830.5 142.6 1826.8 153.9 1818.5 160.8 1802.7 167.1 1788 175.3 1777.1 181.7 1773.2 193.6 1771.7 202 1764.7 215.8 1763.5 218.6 1758.3 220.9 1755.5 226.3 1755.4 233 1758.2 238.3 1757.6 246.1 1752.4 259 1749.2 274.4 1748.9 283.4 1745.8 291 1742.3 296.3 1748.8 306.4 1759.5 288.3 1779.1 291.9 1781.5 262.9 1809.4 256.4 1807.3 205.5 1858.1 196.6 1850.6 122.2 1915.5 139.2 1932.5 142.8 1939.9 97.8 1943.3 69.4 1965.3 15.6 1905.9 35.5 1896 53.2 1893.8 59.2 1888.1 66.1 1874.4 77.6 1864.8 Z" data-holc_grade="C"/>
<path d="M 408.8 1778.7 404.9 1780.5 332 1870.2 316.8 1886.4 297.7 1904.3 278.9 1923.6 225.6 1929.6 254.3 1901.1 272.4 1884 284.8 1874 307 1845.4 310 1848.2 354.1 1797.5 365.8 1806.1 396.1 1770 408.8 1778.7 Z" data-holc_grade="C"/>
<path d="M 555 1723.6 621.4 1777.4 624.1 1786 645 1841.7 628.7 1845.4 614.2 1833.1 597.1 1833 591.7 1829.1 573.2 1831.5 561.8 1760.6 536.9 1740.5 541.2 1774.4 485.6 1782.1 449.8 1788.1 426.6 1770.7 403.4 1753.2 473.4 1677.6 494.4 1692.5 501.4 1683.3 555 1723.6 Z" data-holc_grade="C"/>
<path d="M 662.4 1529 661.4 1561.2 661.3 1595.5 673.4 1628.9 682.2 1639.5 661.7 1643.2 664.8 1666.7 625.1 1675.7 621.9 1654.7 587.2 1662.6 555 1723.6 501.4 1683.3 506.1 1677 492.4 1666.4 514.3 1645.3 537.1 1619.1 542.6 1624 562.2 1602.8 591.6 1577.7 659.6 1517.7 662.4 1529 Z" data-holc_grade="C"/>
<path d="M 1821.1 1623.5 1789.4 1642.6 1789.3 1642.7 1758.3 1616.9 1745.1 1629.2 1776.6 1655 1723.9 1719.6 1709.5 1721.5 1698.9 1708.2 1701.4 1703 1705.1 1697.3 1705.7 1692 1702.1 1681 1696.8 1673.8 1694.7 1667.6 1686 1655.8 1678.8 1640.8 1670.7 1633.5 1668.5 1626.1 1667.8 1621.4 1661.9 1616.9 1655.2 1613.8 1650.5 1610 1639.7 1604.2 1636.5 1604.2 1625.9 1601.4 1618.9 1599.1 1611.8 1597.3 1600.2 1596.9 1590.4 1595 1580.2 1595.2 1592.3 1578.4 1564.6 1554.9 1531.5 1539.6 1569 1489.7 1633.2 1468.6 1681.3 1497.4 1742 1530 1819.7 1576 1814.6 1580.7 1810.9 1592.2 1812.3 1604.3 1821.1 1623.5 Z" data-holc_grade="C"/>
<path d="M 1966.6 1770.8 1905.3 1772.1 1909.7 1748.2 1866.7 1747.6 1877.4 1675.9 1901.3 1636 1908.1 1623.6 1926.2 1630.6 1932 1645.3 1945 1652.1 1953.7 1654.8 1970.4 1682.4 1975.2 1686.7 1982 1696.7 1998.3 1707.9 2001.9 1709.8 2001.2 1724.7 2014.1 1708.8 2021.7 1717.1 2006.7 1732.3 1990.1 1753.6 1972.9 1745.3 1972.9 1725.2 1972.1 1721 1958.3 1711.1 1956.1 1723.8 1964 1758 1966.6 1770.8 Z" data-holc_grade="C"/>
<path d="M 1118.6 396.5 1109.4 332.5 1085.3 316 1076.4 327.7 1046.2 328.9 1032.8 298.8 1040.2 294.2 1059.3 301.8 1067.5 311 1085.7 302.8 1092.8 305 1096.4 301.1 1127.7 313.1 1126.3 324.9 1183.3 331.6 1190.8 336.9 1208.9 343.7 1204.6 371.4 1145.8 395.8 1141.2 389.1 1118.6 396.5 Z" data-holc_grade="C"/>
<path d="M 1980.4 1822.1 1979 1824.3 1975.2 1830 1972.9 1849.7 1965.1 1869.2 1946.3 1899.9 1924.4 1886.6 1947.9 1858.3 1919.4 1846.1 1854 1933.4 1836.3 1957.1 1834.5 1921.2 1848.5 1905.6 1879.3 1863.5 1909 1825.6 1933.8 1832.9 1961.6 1802.7 1989.2 1807.8 1980.4 1822.1 Z" data-holc_grade="C"/>
<path d="M 2081.5 1837.7 2055.4 1838 2054.8 1818.5 2008.2 1806.7 2005.5 1769.5 1990.1 1753.6 2006.7 1732.3 2050.6 1757.7 2074.6 1731.9 2062.5 1719.8 2103.1 1675.2 2158.3 1747.5 2123 1795.4 2104 1818.5 2081.5 1837.7 Z M 2021.7 1717.1 2014.1 1708.8 2012.9 1700.2 2018.3 1694.2 2014.1 1678.4 2014.1 1635.7 2009 1622.1 2035.6 1594.6 2079.8 1646.1 2021.7 1717.1 Z" data-holc_grade="C"/>
<path d="M 1278.1 410.5 1239.6 391.8 1244.5 359.8 1251.5 357.9 1285.7 326 1246 307.1 1275.5 280.1 1301.5 253.9 1320.4 203.7 1405.7 252.3 1411.5 293.6 1395.7 293.6 1382.1 297.3 1356.9 319.2 1278.1 410.5 Z" data-holc_grade="C"/>
<path d="M 1382 663.7 1327.2 626.5 1285.5 587.4 1311.2 559.9 1405 635.3 1382 663.7 Z" data-holc_grade="C"/>
<path d="M 1941.5 552.3 1918.2 603.8 1902.8 600.7 1878.6 586.1 1800.8 539.2 1785.6 568.1 1727.4 523 1722.2 421.3 1781.2 461.6 1805.4 425.8 1846.1 370.7 1814.5 349.8 1840.8 323.1 1861.9 313.6 1898.3 296 1922.2 335.6 1929 380 1890.7 416.3 1870.2 436.3 1853 461.5 1853.5 479.9 1898.9 518.5 1881.1 535.4 1896.9 546.6 1902.5 544.9 1908.8 541.7 1915.9 531.7 1941.5 552.3 Z" data-holc_grade="C"/>
<path d="M 2008.8 631.3 2057.7 634.5 2072.6 592.7 2162.3 613 2151.2 631.1 2149.3 651.1 2150.3 665.4 2162.8 700.1 2173.9 742.5 2162.9 744.3 2144.1 745.8 2133.7 746.4 2116.9 742.2 2096.3 736.9 2075.9 726.8 2054.6 722.5 2051.5 711.3 2050 702.4 2048.9 694.4 2042.6 685.4 2040.2 664.7 2034.7 664.4 2034.9 655.2 2030.2 648 2018.9 637.8 2008.8 631.3 Z" data-holc_grade="C"/>
</g>
<g id="D">
<path d="M 1204.6 371.4 1208.9 343.7 1213.2 319.2 1222.6 323 1233.3 318.3 1246 307.1 1285.7 326 1251.5 357.9 1244.5 359.8 1239.6 391.8 1204.6 371.4 Z" data-holc_grade="D"/>
<path d="M 1090.3 1023.4 1088.7 1025.6 1045.3 1073.5 1014.1 1050.9 989.7 1083.3 980.2 1098.1 914.1 979.1 911.1 972.3 932.6 960.7 952 986 962.1 989.4 1027.8 1042 1059.7 1001.5 1090.3 1023.4 Z" data-holc_grade="D"/>
<path d="M 1399.7 1235 1374.3 1266.5 1320.8 1230.4 1306.2 1249.9 1302.9 1247.4 1265.2 1219.7 1277.7 1217.6 1284.6 1207.5 1267.8 1190.5 1301.4 1185.6 1390 1165.5 1383.9 1183.7 1389.4 1193 1385.4 1204.3 1378.4 1222.1 1399.7 1235 Z" data-holc_grade="D"/>
<path d="M 1711.4 1185.1 1668.3 1185.1 1638 1161 1557.9 1254 1524.2 1232.8 1580 1161.5 1597.8 1138.8 1637.2 1135.3 1637.4 1140.1 1656.2 1138.9 1658.9 1160 1709.8 1156.1 1711.4 1185.1 Z" data-holc_grade="D"/>
<path d="M 2010 1010.2 2010.6 1018.4 2012.9 1055.6 1913.7 1074.5 1906.9 1016.5 1902 992.7 1922.9 984.6 1944.2 976.2 1987.2 958.1 2009.3 998.5 2010 1010.2 Z" data-holc_grade="D"/>
<path d="M 2275.1 1224 2266.8 1228.3 2248.8 1248.1 2238 1254.6 2213.3 1265 2155.3 1240.5 2145.1 1174.7 2212.9 1162.9 2250.6 1192.1 2264.9 1204 2275.1 1224 Z" data-holc_grade="D"/>
<path d="M 2342.3 1324.9 2301.2 1315.3 2270.5 1352 2192.2 1288.8 2232 1276 2249 1267 2261.4 1255.8 2279.4 1239.5 2306.5 1231 2371.4 1289.4 2342.3 1324.9 Z" data-holc_grade="D"/>
<path d="M 2332.6 1486.7 2382.5 1515.8 2384 1522.4 2439.2 1577.8 2410.9 1610.8 2439.2 1643.2 2485.3 1690.5 2467.6 1744.9 2393.3 1724.5 2394.7 1659.5 2396.6 1655.2 2378.8 1634.7 2311.7 1630.9 2266.6 1597 2313.5 1529.2 2303.4 1523.5 2331.7 1487.2 2332.6 1486.7 Z" data-holc_grade="D"/>
<path d="M 2558.1 1246.8 2584.3 1271.3 2497.5 1364.9 2450.7 1331.9 2506.8 1232.3 2481.6 1209.2 2498.8 1193.9 2558.1 1246.8 Z" data-holc_grade="D"/>
<path d="M 2584.3 1271.3 2558.1 1246.8 2579.9 1224.5 2604.1 1245.6 2600.3 1249.7 2671.1 1316 2683.2 1303.7 2702.4 1322.7 2673.5 1354.5 2584.3 1271.3 Z" data-holc_grade="D"/>
<path d="M 2677.9 1205.9 2674.6 1186 2686.2 1157.1 2685.2 1147.4 2665.3 1106 2682.7 1078.1 2688.6 1091 2721.8 1080.4 2731.7 1101.4 2749.4 1097.1 2767.7 1120.8 2798.4 1166.4 2812.7 1190.5 2833.2 1220.4 2858.3 1266.9 2816 1298.1 2766.3 1222.3 2725.2 1255.4 2723.3 1251.3 2728.9 1241.2 2698.8 1197.4 2677.9 1205.9 Z" data-holc_grade="D"/>
<path d="M 2074.2 324.8 2071.6 328.1 2036.6 328.3 2015.2 328.3 1939.8 370.9 1929 380 1922.2 335.6 1905 301.3 1898.3 296 1861.9 313.6 1852.1 307 1842.7 303.5 1831.2 300.9 1766.4 311.3 1763.4 302 1786.5 279.7 1794.9 269.3 1795.7 253.7 1800.5 246.2 1810.2 243.6 1824.4 236.6 1830.1 230.2 1849.4 224.5 1855.9 224.8 1943 252.6 1868.8 273 1864.5 274.9 1873.9 288.8 1969.9 262 1991.7 266.8 2026.6 274.8 2094.7 297.8 2074.2 324.8 Z" data-holc_grade="D"/>
<path d="M 2856.1 1224 2880.8 1204.9 2870 1189.5 2789 1081 2767.1 1094.3 2756.2 1084.7 2758.6 1077.5 2737.8 1062.6 2747 1042.8 2659.8 1002.9 2671.4 976.4 2787.1 1034.6 2890.2 1086.5 2949.4 1112.9 2992.8 1134.4 2999 1142.1 2957.3 1171.7 2968.4 1187.5 2876.3 1254.8 2856.1 1224 Z M 2892.5 1179.6 2898.8 1189.8 2911.5 1181 2903.4 1170.5 2892.5 1179.6 Z" data-holc_grade="D"/>
<path d="M 404.5 1651.9 375.5 1622.3 359.6 1609.9 351.3 1617.4 263.6 1550.6 284.8 1525 419.8 1630.7 404.5 1651.9 Z" data-holc_grade="D"/>
<path d="M 396.1 1770 365.8 1806.1 354.1 1797.5 310 1848.2 307 1845.4 284.8 1874 272.4 1884 254.3 1901.1 225.6 1929.6 142.8 1939.9 139.2 1932.5 191.8 1891.2 202 1902.8 233 1880.5 239.1 1874.2 227.8 1861 271.5 1820.6 262.9 1809.4 291.9 1781.5 299.7 1788.8 320 1773.8 306.4 1759.5 296.3 1748.8 335.3 1706.8 329.5 1700 346 1688.3 351.4 1684.6 375.7 1676.3 393.1 1688.7 405.8 1674.4 425.7 1691.3 453.4 1661.5 473.4 1677.6 403.4 1753.2 394.7 1746.9 381.7 1757.6 396.1 1770 Z" data-holc_grade="D"/>
<path d="M 626.5 1313.2 662.1 1340.8 729.5 1391.4 683.4 1429.1 693.3 1440 624.8 1496.5 561.9 1548.6 524.9 1577.8 542 1590.9 577.3 1562.7 604.6 1538.6 657 1493.9 688.4 1468.2 718.7 1446 734.3 1454.9 659.6 1517.7 591.6 1577.7 562.2 1602.8 542.6 1624 537.1 1619.1 514.3 1645.3 443.5 1590.6 441.5 1581.5 443.7 1560.1 448.5 1551.9 481.3 1578.1 498.1 1555.5 507.6 1562.7 547.2 1482.5 560.4 1455.6 579 1468.1 604.9 1418.1 532.5 1361.9 533.7 1341.9 540.4 1328 557.9 1309.1 583.3 1307.6 586.5 1304.1 590 1297.5 590.3 1284.1 626.5 1313.2 Z" data-holc_grade="D"/>
<path d="M 1924.4 1886.6 1946.3 1899.9 1965.1 1869.2 1972.9 1849.7 1975.2 1830 1979 1824.3 1980.4 1822.1 1992.9 1828.5 2008.2 1806.7 2054.8 1818.5 2055.4 1838 2081.5 1837.7 2022.5 1875.4 2012.8 1887.9 2015.7 1902.7 2017.5 1918.1 2010.4 1925.8 2037.4 1945 2072.6 1871.7 2082.7 1862.5 2112.4 1840.3 2125.4 1828.5 2142.3 1805.8 2171.3 1764.7 2193.9 1795.4 2172.3 1870.7 2157.2 1930.7 2036.8 1962.4 1948.1 1985.5 1933.6 1989.1 1916.1 1963.1 1884 1937.1 1924.4 1886.6 Z" data-holc_grade="D"/>
<path d="M 2375 664.4 2349.9 672.4 2323.9 637.9 2321.4 631.8 2293.3 616.3 2273 601.4 2226.2 568.5 2289.2 561.1 2296.3 568.1 2312.8 578.8 2326.3 583.1 2347.7 573.3 2352 574.2 2358.1 587.9 2371.9 592.2 2374.7 615 2385.4 661.3 2375 664.4 Z" data-holc_grade="D"/>
<path d="M 1695 659.1 1666.2 587.1 1716.7 577.3 1746.5 647.8 1695 659.1 Z" data-holc_grade="D"/>
<path d="M 1501 604.2 1558.3 532.1 1626 595 1585.2 659.6 1520.8 618.9 1501 604.2 Z" data-holc_grade="D"/>
<path d="M 1409.3 658.5 1470.6 584 1519 617.9 1463.9 694.6 1409.3 658.5 Z" data-holc_grade="D"/>
<path d="M 1944.2 976.2 1922.9 984.6 1889.4 907.1 1866 915.8 1858 924.8 1849.9 926.6 1832.8 926.9 1815.4 906.4 1828.9 888.2 1832.9 883 1832.4 877.9 1835.6 875.3 1830.2 829.7 1799.8 832.1 1798.7 818.8 1700 829.7 1693.8 796.8 1721.9 790.6 1758.7 787.4 1827.3 783.4 1865 780.5 1893.4 851 1944.2 976.2 Z" data-holc_grade="D"/>
<path d="M 743.4 1254.8 662.1 1340.8 626.5 1313.2 674.8 1246.9 702.6 1203.8 711.7 1208.8 713.5 1214.7 743.4 1254.8 Z" data-holc_grade="D"/>
<path d="M 980.2 1098.1 1002.3 1145.5 990.3 1170.1 970 1195.3 840.5 1105.1 880.3 1063.7 861 1046.9 914.1 979.1 980.2 1098.1 Z" data-holc_grade="D"/>
</g>
</svg>