<?xml version="1.0"?>
<svg xmlns="http://www.w3.org/2000/svg" version="1.2" baseProfile="tiny" width="3000" height="2241" viewBox="0 0 3000 2241" stroke-linecap="round" stroke-linejoin="round">
<g id="A">
<path d="M 957.6 1479.6 885.5 1563.1 781.1 1681.3 701.1 1771.5 686.1 1803.3 682.7 1850.5 676 1944 650.4 1947.1 631 1947.7 622.9 1944 614.6 1934.5 602.6 1921.6 601.1 1916.6 596.6 1909.1 594.1 1899.6 592.6 1888.7 592.6 1881.6 593.1 1871.3 594.1 1859.8 595.1 1845.4 595.1 1841.4 593.1 1833.4 584.1 1817 569.2 1804.5 558 1798.2 544.3 1706.1 460.4 1624.3 526.9 1577 595.4 1527.7 816.7 1378.2 862.1 1424.2 957.6 1479.6 Z" data-holc_grade="A"/>
<path d="M 676 1944 682.7 1850.5 686.1 1803.3 701.1 1771.5 781.1 1681.3 909.1 1744.2 819.7 1896.7 684.1 1946.5 676 1944 Z" data-holc_grade="A"/>
<path d="M 1654.8 1559.4 1761.2 1632.8 1816.7 1664.6 1872.1 1694.5 1961.1 1729.3 2030.1 1757.7 1983.2 1829.1 1979.1 1835.4 1886.9 1781.9 1873.8 1793.7 1856.3 1819.2 1790.1 1770.1 1782 1784.4 1743.6 1758.6 1657.7 1657.3 1600.3 1592.6 1563.3 1554.2 1543.3 1538.2 1550.6 1524.1 1553.3 1518.7 1551.1 1512.8 1591.9 1521.2 1654.8 1559.4 Z" data-holc_grade="A"/>
<path d="M 1979.1 1835.4 1988.6 1844.4 1983.1 1856.8 2057.6 1904.1 1954.8 2060.7 1840.9 2240 1748.4 2183 1631.2 2117.3 1657.9 2038.8 1676.1 1977 1691.1 1920 1712.4 1847.3 1743.6 1758.6 1782 1784.4 1790.1 1770.1 1856.3 1819.2 1873.8 1793.7 1886.9 1781.9 1979.1 1835.4 Z" data-holc_grade="A"/>
</g>
<g id="B">
<path d="M 1540.1 1488.2 1551.1 1512.8 1553.3 1518.7 1550.6 1524.1 1543.3 1538.2 1504.1 1504.8 1498.1 1516.7 1375.4 1463 1324.6 1435.1 1241.5 1397.2 1122.8 1328.7 1070.4 1415.9 1015.6 1451.3 957.6 1479.6 862.1 1424.2 816.7 1378.2 816.5 1378 841 1361.8 901.7 1321.4 901.3 1321.8 914.9 1343.8 935.7 1368.1 946.5 1362.5 961.3 1359.3 988.1 1335.8 988.5 1305.1 1046.8 1300.8 1064.4 1302.8 1132.8 1293.2 1202.3 1330.7 1419.8 1449 1434.2 1424.3 1540.1 1488.2 Z" data-holc_grade="B"/>
<path d="M 1802.5 1370.3 1762.5 1432.7 1755.6 1447 1743.3 1460.8 1707.3 1501.7 1654.8 1559.4 1591.9 1521.2 1551.1 1512.8 1540.1 1488.2 1572.8 1439.7 1624.2 1363.8 1678.2 1287.3 1802.5 1370.3 Z" data-holc_grade="B"/>
<path d="M 558 1798.2 547.2 1792 521.7 1780.6 513.2 1776.6 506.7 1776.1 486.4 1773.9 483.7 1773.6 471.2 1767.1 469.2 1762.6 465 1757.9 461.2 1753.6 452.2 1747.2 434.7 1745.7 427.2 1744.7 424.2 1738.2 419.2 1731.2 418.8 1722.2 418.5 1719.1 418.3 1714.8 413.3 1700.3 413.8 1690.9 409.8 1678.9 404.9 1673.4 402.8 1670.9 400.2 1664.9 399.8 1664 399.3 1663.3 395.8 1658.5 382.4 1634.7 371 1608.8 353.5 1583.4 390 1564 424 1542.1 453.4 1617.8 460.4 1624.3 544.3 1706.1 558 1798.2 Z" data-holc_grade="B"/>
<path d="M 176.2 1446.4 255.4 1546.3 297.4 1618.1 318.4 1603.7 328.9 1619.6 337.3 1631.1 351.3 1639 365.3 1646.5 383.3 1653.5 395.8 1658.5 399.3 1663.3 399.8 1664 400.2 1664.9 402.8 1670.9 404.9 1673.4 409.8 1678.9 413.8 1690.9 413.3 1700.3 418.3 1714.8 418.5 1719.1 418.8 1722.2 419.2 1731.2 424.2 1738.2 427.2 1744.7 434.7 1745.7 452.2 1747.2 461.2 1753.6 465 1757.9 469.2 1762.6 471.2 1767.1 483.7 1773.6 486.4 1773.9 506.7 1776.1 513.2 1776.6 521.7 1780.6 547.2 1792 558 1798.2 569.2 1804.5 584.1 1817 593.1 1833.4 595.1 1841.4 595.1 1845.4 594.1 1859.8 593.1 1871.3 592.6 1881.6 592.6 1888.7 594.1 1899.6 596.6 1909.1 601.1 1916.6 602.6 1921.6 614.6 1934.5 463.6 2017.1 414.1 2044.5 366.1 2068.4 325.5 2086.8 249.5 2123.6 168.7 1926.8 156.7 1900.9 133.9 1858.3 98 1762 45.3 1597.3 1 1534.2 176.2 1446.4 Z M 176.2 1446.4 176.1 1446.2 176.6 1446.2 176.2 1446.4 Z" data-holc_grade="B"/>
</g>
<g id="C">
<path d="M 1408.9 943.6 1275.9 1034.9 1280.7 1041.7 1170.8 1117.3 1170 1117.8 1140 1138.4 1002 1060 1094.5 907.6 1103.2 911.9 1156.3 944.7 1191.8 972.6 1201.3 974.2 1210.5 976.6 1242.6 992.9 1265.4 951.9 1306.5 970.2 1334.9 904.5 1347.7 918.9 1408.9 943.6 Z" data-holc_grade="C"/>
<path d="M 1629.4 1 1630.2 1.7 2212.2 296.4 2340.4 335.9 2999 531.1 2865.8 724.5 2833.6 710.4 2733.1 685.8 2512.8 632.2 2296.3 581.5 2157.7 546.5 2066.2 524.1 2051.3 513 2004.8 490.6 1959.8 468.2 1831.7 409.2 1724.6 357.8 1669.9 327.9 1651.9 317.5 1492.4 228.6 1629.4 1 Z" data-holc_grade="C"/>
<path d="M 2057.6 1904.1 1983.1 1856.8 1988.6 1844.4 1979.1 1835.4 1983.2 1829.1 2030.1 1757.7 1961.1 1729.3 1872.1 1694.5 1816.7 1664.6 1761.2 1632.8 1654.8 1559.4 1707.3 1501.7 1743.3 1460.8 1755.6 1447 1762.5 1432.7 1802.5 1370.3 1850.5 1402.4 1872 1367.8 1872.1 1367.6 1971 1427.6 2041.9 1465.9 2074.4 1485.8 2109.5 1506.7 2123 1516.6 2266.4 1593.8 2057.6 1904.1 Z" data-holc_grade="C"/>
<path d="M 1170.8 1117.3 1280.7 1041.7 1289.9 1060.4 1306.7 1046.9 1350.7 1017.8 1419 982.7 1448.6 1008.2 1463.8 1025.8 1459.4 1035.7 1608.9 1103.4 1558.1 1183.5 1493.4 1283.8 1425 1243.2 1360.3 1208.2 1281.9 1163.5 1245.9 1224.1 1184 1134.1 1170.8 1117.3 Z" data-holc_grade="C"/>
<path d="M 1103.2 911.9 1094.5 907.6 1002 1060 1140 1138.4 1053.9 1193.3 1006.3 1223.7 835.2 1115.3 809.5 1116.3 809.5 1115.6 737.9 1118.9 708.1 1120 705.4 1120.1 812 960.6 887.1 1004.6 915.2 960.4 940.2 938.6 981.4 892.6 1120.7 773.8 1168.2 805.5 1103.2 911.9 Z" data-holc_grade="C"/>
<path d="M 1493.4 1283.8 1545.1 1313.6 1583.8 1340.7 1624.2 1363.8 1572.8 1439.7 1540.1 1488.2 1434.2 1424.3 1419.8 1449 1202.3 1330.7 1132.8 1293.2 1064.4 1302.8 1046.8 1300.8 988.5 1305.1 988.1 1335.8 961.3 1359.3 946.5 1362.5 935.7 1368.1 914.9 1343.8 901.3 1321.8 969.8 1275.2 956.6 1255.3 1006.3 1223.7 1053.9 1193.3 1140 1138.4 1170 1117.8 1170.8 1117.3 1184 1134.1 1245.9 1224.1 1281.9 1163.5 1360.3 1208.2 1425 1243.2 1493.4 1283.8 Z M 1467.5 1354.1 1411.5 1320.3 1357.1 1289.6 1318 1270.9 1303.3 1297.8 1366.7 1330.6 1449.5 1383.6 1467.5 1354.1 Z" data-holc_grade="C"/>
<path d="M 1935.1 1228.5 1953.6 1236.3 1872.1 1367.6 1872 1367.8 1850.5 1402.4 1802.5 1370.3 1678.2 1287.3 1624.2 1363.8 1583.8 1340.7 1545.1 1313.6 1493.4 1283.8 1558.1 1183.5 1608.9 1103.4 1618.6 1108.9 1624.2 1098.1 1814.5 1177.7 1935.1 1228.5 Z" data-holc_grade="C"/>
<path d="M 1006.3 1223.7 956.6 1255.3 952.8 1248.5 825.4 1335.6 841 1361.8 816.5 1378 816.7 1378.2 595.4 1527.7 526.9 1577 460.4 1624.3 453.4 1617.8 424 1542.1 390 1564 353.5 1583.4 371 1608.8 382.4 1634.7 369.9 1625.2 356 1610.8 330.5 1587.3 297.5 1546 259.6 1496.7 263.1 1413.5 382.6 1362.3 587.5 1334.5 598 1318.1 773.4 1307.3 842.4 1260.5 801.4 1234.6 808.9 1192.8 809.5 1116.3 835.2 1115.3 1006.3 1223.7 Z" data-holc_grade="C"/>
<path d="M 670.3 834.3 718.3 757.8 817.3 596.5 819.9 592.2 825.3 577.7 894.6 605.8 1010.1 626.1 1049.1 642.2 1024.4 688.3 1058 703.4 1061.2 708.6 1050.4 717.7 1050.7 718 912.9 841.9 854.5 902 773.4 860.6 757.4 897.2 705.9 862.2 670.3 834.3 Z" data-holc_grade="C"/>
<path d="M 751.4 576.8 750.8 576.7 750.1 576.5 744 575 691.7 554.6 564.8 530.9 538.3 525.9 419.6 494.4 436.5 469.1 428.1 470.3 432.9 451.6 439.3 438.5 466.9 443.7 478.5 434.9 516.5 405.5 541.6 383.2 556.4 365.7 657.5 425 792.1 503.1 776.1 534.6 771.7 559.7 751.4 576.8 Z" data-holc_grade="C"/>
<path d="M 58.6 123.5 228.4 95.1 229.1 95.7 337.6 225.8 350.7 244.4 451.1 309.2 442.4 327.8 311.8 478.3 215.7 429.1 158.9 394.8 26 335 58.6 123.5 Z" data-holc_grade="C"/>
</g>
<g id="D">
<path d="M 1408.9 943.6 1347.7 918.9 1334.9 904.5 1306.5 970.2 1265.4 951.9 1242.6 992.9 1210.5 976.6 1201.3 974.2 1191.8 972.6 1156.3 944.7 1103.2 911.9 1168.2 805.5 1120.7 773.8 1050.7 718 1050.4 717.7 1061.2 708.6 1058 703.4 1024.4 688.3 1049.1 642.2 1117.2 670.4 1136 624.2 1239 656.4 1375.3 699.9 1507.2 739.3 1489.2 769.2 1513.6 787.1 1502.4 811.4 1483.6 831.7 1404.9 797.8 1418.1 765.6 1262.2 699.1 1253.8 691.5 1201.1 750 1235.8 767.9 1304.6 799 1460.8 863.9 1408.9 943.6 Z" data-holc_grade="D"/>
<path d="M 2267.6 1048.6 2178.5 1198.1 2171.7 1209.4 2089.3 1212.4 2014.3 1217.4 1935.1 1228.5 1814.5 1177.7 1624.2 1098.1 1634.7 1069.8 1474.2 1002 1463.8 1025.8 1448.6 1008.2 1419 982.7 1441.7 970.3 1455.5 952.8 1484.2 989.6 1555.4 912.4 1748.3 989.5 1753.3 970.3 1813.9 993.9 1845.4 914.4 1942.6 960.9 2013.1 992.6 2114.3 1036.1 2267.6 1048.6 Z" data-holc_grade="D"/>
<path d="M 1872.1 1367.6 1953.6 1236.3 1935.1 1228.5 2014.3 1217.4 2089.3 1212.4 2171.7 1209.4 2178.5 1198.1 2267.6 1048.6 2294.1 1054 2309.1 1054 2323.1 1060 2390.5 1094.3 2554.9 1164.9 2508.6 1234.6 2430.1 1219.3 2411.6 1212.8 2342.2 1206.4 2288.2 1194.9 2248.7 1193 2190.3 1285.1 2308.8 1351.8 2275.3 1408 2206.3 1369.2 2163.3 1338.9 2147.9 1366.3 2074.4 1485.8 2041.9 1465.9 1971 1427.6 1872.1 1367.6 Z" data-holc_grade="D"/>
<path d="M 809.5 1116.3 808.9 1192.8 801.4 1234.6 842.4 1260.5 773.4 1307.3 598 1318.1 709 1186.7 673 1174.8 676.6 1120.5 705.3 1120.1 705.4 1120.1 706 1120.1 714.5 1120 736.8 1119 737.9 1118.9 809.5 1115.6 809.5 1116.3 Z" data-holc_grade="D"/>
<path d="M 670.3 834.3 551 734.5 486.3 671.1 476.2 662 433.2 623.3 398.5 591.4 375.3 573.1 356.9 564.7 376.1 548.4 394.9 527.3 419.6 494.4 538.3 525.9 564.8 530.9 691.7 554.6 744 575 750.1 576.5 750.8 576.7 751.4 576.8 780.8 584.2 817.3 596.5 718.3 757.8 670.3 834.3 Z" data-holc_grade="D"/>
<path d="M 356.9 564.7 375.3 573.1 398.5 591.4 433.2 623.3 476.2 662 424 726 362.8 812.4 273.4 946.1 270.9 960.4 266.5 986 234 1051.3 242.1 1066.2 139.1 1041.9 97.5 873 173 772.5 233 685.4 285.5 618.9 342.4 546.1 356.9 564.7 Z" data-holc_grade="D"/>
</g>
</svg>