<?xml version="1.0"?>
<svg xmlns="http://www.w3.org/2000/svg" version="1.2" baseProfile="tiny" width="3000" height="2688" viewBox="0 0 3000 2688" stroke-linecap="round" stroke-linejoin="round">
<g id="A">
<path d="M 825.1 1549.6 838.9 1574.4 616.3 1714.5 594.4 1701.1 586.3 1673.8 793.9 1539.4 825.1 1549.6 Z" data-holc_grade="A"/>
<path d="M 290.5 1689.3 259.1 1634.8 428.5 1525.5 461.5 1584.2 290.5 1689.3 Z" data-holc_grade="A"/>
<path d="M 576.5 905.2 604.8 946.6 216.7 1188.5 176.7 1115.7 202.2 1099.8 446.3 948.4 558.8 880.9 576.5 905.2 Z" data-holc_grade="A"/>
<path d="M 1004.6 1871.8 919.2 1971.9 1064 2115 1231.2 1934.1 1262.5 1970.2 1106.2 2133.3 1007.8 2231.2 1025.8 2250 674.7 2613.1 534.2 2472.1 596.6 2410.5 818.6 2191.3 675.9 2053.6 930 1800.8 1004.6 1871.8 Z" data-holc_grade="A"/>
</g>
<g id="B">
<path d="M 2041.4 1775 2174.4 1897.6 2150.5 1940 2197.1 2010.6 2155 2059 2177.7 2082.7 2098.8 2186 2064.2 2159.1 2041.5 2182.8 1917.1 2069.8 1995 1986.9 1916 1906.3 2041.4 1775 Z" data-holc_grade="B"/>
<path d="M 1709.5 2382.9 1669.2 2424.2 1530.8 2296.8 1645.7 2174.2 1792.8 2309.7 1709.5 2382.9 Z" data-holc_grade="B"/>
<path d="M 1373.3 1854.6 1262.5 1970.2 1231.2 1934.1 1064 2115 919.2 1971.9 1004.6 1871.8 1056.8 1928.3 1094.2 1883.6 1112.2 1899.4 1194.3 1808.8 1423 1556.6 1500.3 1478.9 1527.9 1451.2 1571.1 1482.4 1449 1613.7 1519.2 1676 1363.6 1833.1 1373.3 1854.6 Z" data-holc_grade="B"/>
<path d="M 1194.3 1808.8 1182.4 1792.2 1219.8 1753.5 1157.1 1695.4 1004.6 1871.8 930 1800.8 675.9 2053.6 818.6 2191.3 596.6 2410.5 507.2 2270.9 460.7 2292.4 380.7 2143.9 578.6 2028.8 510.5 1902.9 402.2 1956.4 340.7 1849.7 373.5 1833.6 384.5 1828.2 417.6 1808.1 594.4 1701.1 594.6 1700.9 616.3 1714.5 838.9 1574.4 825.1 1549.6 982.9 1457.4 1009.9 1428.9 1083.6 1382.3 1155.8 1336.8 1269.5 1265.1 1293.3 1260.1 1305.2 1257.6 1360.3 1299.5 1338.7 1326.4 1487.9 1471.6 1500.3 1478.9 1423 1556.6 1194.3 1808.8 Z" data-holc_grade="B"/>
<path d="M 290.5 1689.3 461.5 1584.2 428.5 1525.5 259.1 1634.8 182 1491.9 262 1449.9 230.7 1391.8 308.5 1341.3 216.7 1188.5 604.8 946.6 576.5 905.2 767.7 800.4 786.5 826.7 751.9 845.3 857.7 857.7 857.7 872.9 890.9 861.9 913.1 866.7 929 860.5 971.9 817.8 989.8 817.1 1003 800.6 1045.9 870.2 1075.6 852.3 1178.8 1003.7 1235 1039.2 1143.1 1193 1094.4 1221 1155.8 1336.8 1083.6 1382.3 1009.9 1428.9 982.9 1457.4 825.1 1549.6 793.9 1539.4 586.3 1673.8 594.4 1701.1 417.6 1808.1 391.9 1825.2 373.5 1833.6 290.5 1689.3 Z" data-holc_grade="B"/>
<path d="M 2927.6 151.7 2681.3 308.5 2584.1 148.8 2815.1 16.7 2838.4 60 2851.5 60 2876.9 94.3 2935.9 1 2999 39 2943.9 120.5 2927.6 151.7 Z" data-holc_grade="B"/>
</g>
<g id="C">
<path d="M 2041.4 1775 1916 1906.3 1995 1986.9 1917.1 2069.8 2041.5 2182.8 2064.2 2159.1 2098.8 2186 2177.7 2082.7 2155 2059 2197.1 2010.6 2150.5 1940 2174.4 1897.6 2300.9 2031 2266.3 2082.6 2229.6 2111.7 2156.1 2189.2 1842.6 2514.2 1709.5 2382.9 1792.8 2309.7 1645.7 2174.2 1709.5 2111.7 1856.6 1967.6 1878.2 1999.9 1921.4 1960 1852.2 1895.5 1832.8 1911.6 1816.6 1897.7 1777.6 1920.3 1647.9 1812.7 1748.4 1715.8 1775.5 1739.5 1975.4 1535.1 2066.3 1625.4 2012.2 1672.8 2065.2 1736.3 2033.8 1757.8 2041.4 1775 Z" data-holc_grade="C"/>
<path d="M 1709.5 2111.7 1645.7 2174.2 1530.8 2296.8 1513.8 2296.8 1330.4 2488.6 1280.3 2541.1 1139.7 2404.4 1149.4 2379.7 1025.8 2250 1007.8 2231.2 1106.2 2133.3 1262.5 1970.2 1373.3 1854.6 1406.8 1881.5 1436 1857.9 1709.5 2111.7 Z" data-holc_grade="C"/>
<path d="M 1182.4 1792.2 1094.2 1883.6 1056.8 1928.3 1004.6 1871.8 1157.1 1695.4 1219.8 1753.5 1182.4 1792.2 Z" data-holc_grade="C"/>
<path d="M 1293.3 1260.1 1269.5 1265.1 1155.8 1336.8 1094.4 1221 1143.1 1193 1235 1039.2 1348.5 967.2 1456.5 1040.3 1623 1205.9 1679.2 1278 1583 1377 1467.3 1259.7 1452.2 1278 1265.2 1143.6 1230.6 1200.6 1279 1237.1 1293.3 1260.1 Z" data-holc_grade="C"/>
<path d="M 290.5 1689.3 373.5 1833.6 340.7 1849.7 402.2 1956.4 186.3 2090.6 88.8 1919.8 256.3 1820 267.3 1813.8 186.4 1677.5 259.1 1634.8 290.5 1689.3 Z" data-holc_grade="C"/>
<path d="M 216.7 1188.5 185.8 1211.5 202 1244.8 66.1 1326.4 9.4 1223.5 176.7 1115.7 216.7 1188.5 Z" data-holc_grade="C"/>
<path d="M 767.7 800.4 576.5 905.2 558.8 880.9 446.3 948.4 202.2 1099.8 1 751.8 278.1 588 322.4 573.9 415.1 722 542.9 645.9 533.8 633.6 544.8 629.1 537.7 619.4 585.7 591.7 599.3 610.4 606.4 604.6 622.6 623.9 644 611 767.7 800.4 Z" data-holc_grade="C"/>
<path d="M 2593.5 1157.1 2702 1330.5 2576.4 1436.5 2334.2 1305.4 2211.7 1282.7 2176.8 1259.2 2321.7 1117 2373.6 1213.2 2388.5 1199 2422.9 1255.7 2593.5 1157.1 Z" data-holc_grade="C"/>
<path d="M 1761.6 990.9 1812.2 918.3 2023 1064.5 1917.6 1207.7 1839.6 1142.1 1876.1 1075.6 1761.6 990.9 Z" data-holc_grade="C"/>
<path d="M 2517.4 499.7 2605.1 391.7 2659.1 325.2 2717.9 280.8 2927.6 151.7 2699.7 520.8 2570.1 603.5 2517.4 499.7 Z" data-holc_grade="C"/>
</g>
<g id="D">
<path d="M 1194.3 1808.8 1112.2 1899.4 1094.2 1883.6 1182.4 1792.2 1194.3 1808.8 Z" data-holc_grade="D"/>
<path d="M 1583 1377 1487.9 1471.6 1338.7 1326.4 1360.3 1299.5 1305.2 1257.6 1293.3 1260.1 1279 1237.1 1230.6 1200.6 1265.2 1143.6 1452.2 1278 1467.3 1259.7 1583 1377 Z" data-holc_grade="D"/>
<path d="M 1330.4 2488.6 1513.8 2296.8 1530.8 2296.8 1669.2 2424.2 1709.5 2382.9 1842.6 2514.2 2156.1 2189.2 2229.6 2111.7 2266.3 2082.6 2300.9 2031 2174.4 1897.6 2041.4 1775 2033.8 1757.8 2065.2 1736.3 2012.2 1672.8 2066.3 1625.4 1975.4 1535.1 2054.3 1448.9 2084.2 1457.7 2165.5 1507.4 2235.5 1537 2285 1557.6 2328.9 1581 2316.7 1649.3 2413.5 1744.8 2431.8 1724.4 2511.7 1810 2401.8 1931.9 2572.8 2104 2541.7 2137.5 2623.4 2215.7 2591.3 2250.2 2612.9 2267.4 2341.7 2566.3 2184.9 2420.8 2193.1 2410.5 2132.1 2358.8 1788 2687 1730.6 2623.2 1706.6 2640.1 1574.7 2517 1476.7 2607.6 1330.4 2488.6 Z" data-holc_grade="D"/>
<path d="M 1647.9 1812.7 1777.6 1920.3 1816.6 1897.7 1832.8 1911.6 1852.2 1895.5 1921.4 1960 1878.2 1999.9 1856.6 1967.6 1709.5 2111.7 1436 1857.9 1406.8 1881.5 1373.3 1854.6 1363.6 1833.1 1519.2 1676 1647.9 1812.7 Z" data-holc_grade="D"/>
<path d="M 2517.4 499.7 2570.1 603.5 2489.8 656.6 2513.7 717.1 2535 814.3 2453.6 905.8 2593.5 1157.1 2422.9 1255.7 2388.5 1199 2373.6 1213.2 2321.7 1117 2176.8 1259.2 2211.7 1282.7 2334.2 1305.4 2576.4 1436.5 2513.9 1477.5 2259.1 1363.1 2210.6 1347.5 2100.5 1336.9 2054.5 1319.8 1917.6 1207.7 2023 1064.5 1812.2 918.3 1761.6 990.9 1719.2 969.8 1619.8 895.4 1522 802.2 1837.5 634.6 1857.2 619.1 2044.5 520.9 2043.7 509.5 2266.3 416.3 2252.3 491.5 2437.2 400.7 2502.1 504.5 2517.4 499.7 Z" data-holc_grade="D"/>
</g>
</svg>