<?xml version="1.0"?>
<svg xmlns="http://www.w3.org/2000/svg" version="1.2" baseProfile="tiny" width="3000" height="3109" viewBox="0 0 3000 3109" stroke-linecap="round" stroke-linejoin="round">
<g id="A">
<path d="M 295.6 2851 347.9 2883.8 293.9 2977.2 36.1 2880.2 4.4 2902.3 1 2658.3 178.5 2649 178.5 2664.2 262.8 2695.7 291 2709.7 241.7 2823 295.6 2851 Z" data-holc_grade="A"/>
</g>
<g id="B">
<path d="M 364.8 2819.5 313.2 2803.2 295.6 2851 241.7 2823 291 2709.7 262.8 2695.7 178.5 2664.2 178.5 2649 307.4 2656 302.7 2628 274.6 2604.6 265.2 2578.9 273.5 2478.5 268.8 2424.8 275.8 2361.7 323.9 2245 309.9 2181.9 402.5 1972.9 457.6 1986.9 490.4 1978.8 628.7 2027.9 677.9 2034.9 682.6 2088.6 706 2144.6 702.5 2266.1 499.7 2399.2 451.6 2423.7 421.1 2506.6 388.3 2503.1 424.6 2647.9 416.4 2686.4 381.2 2762.3 364.8 2819.5 Z" data-holc_grade="B"/>
<path d="M 1150.7 1866.6 853 1783.6 848.3 1767.3 758.1 1733.4 603.5 1644.6 642.2 1640 722 1454.1 781 1362.6 813.9 1331.8 834.5 1322.5 815.7 1252.4 887 1274.8 932.9 1268.3 1088.5 1311.3 1123.2 1214.2 1160.7 1226.3 1136.3 1356.1 1178.5 1373.9 1096 1596.2 1091.3 1627.9 1124.1 1704.5 1145.6 1821.3 1262.8 1853 1261 1890.4 1150.7 1866.6 Z" data-holc_grade="B"/>
<path d="M 1639.4 2426.9 1528.3 2447.9 1484.7 2457.5 1482.6 2410.8 1394 2422 1337 2424.1 1277.2 2413.6 1332.1 2307.1 1373.6 2255.2 1380 2249.9 1465.7 2178.2 1514.9 2186.6 1524.1 2255.2 1647.1 2273.5 1679.5 2253.8 1702 2245.4 1744.9 2255.2 1768.8 2269.9 1768.1 2342.8 1759.6 2368 1744.2 2387.7 1647.8 2395.4 1639.4 2426.9 Z" data-holc_grade="B"/>
<path d="M 2270.6 2785.6 2296.1 2726.8 2349.7 2603.4 2026.1 2487.9 2061.3 2442.3 2282.8 2508.9 2321.5 2416 2254.7 2382.7 2340.8 2200.6 2377.7 2179.5 2416.4 2177.8 2448 2221.6 2416.4 2282.9 2572.9 2358.2 2657.3 2408.9 2611.6 2501.8 2592.3 2533.3 2522 2568.4 2493.8 2624.4 2427 2596.4 2339.2 2806.6 2270.6 2785.6 Z" data-holc_grade="B"/>
</g>
<g id="C">
<path d="M 2296.1 2726.8 2270.6 2785.6 2266.7 2793.3 2108.5 2728.1 2060 2826.3 2130.3 2857.1 2102.9 2913.1 1996 2862 1959.4 2924.4 1839.8 2858.5 1638 2716.3 1590.2 2688.2 1517.7 2670.7 1480.5 2653.9 1436.9 2653.2 1426.3 2596.5 1504.4 2574 1540.2 2555.1 1528.3 2447.9 1639.4 2426.9 1735.7 2415 1788.5 2416.4 1853.2 2431.1 1897.5 2419.2 1896.1 2599.2 1944.6 2618.2 1960.8 2581 2145.1 2668.6 2296.1 2726.8 Z M 1380 2249.9 1373.6 2255.2 1332.1 2307.1 1277.2 2413.6 1337 2424.1 1394 2422 1482.6 2410.8 1484.7 2457.5 1455.1 2464 1465 2559.3 1299 2592.9 1289.2 2594.3 1277.9 2504 1180.2 2529.2 1198.4 2623.8 1175.9 2631.5 1156.3 2554.4 1102.1 2548.1 1110.5 2473.1 1177.4 2471.7 1176.7 2418.5 1167.5 2393.2 1149.2 2382.7 1153.5 2284.6 1225.2 2274.8 1215.4 2199.2 1266 2203.4 1357.4 2178.2 1349.7 2244.7 1380 2249.9 Z M 1150.7 1866.6 1176.5 2068.6 1079.2 2044 1048.7 2062.7 1014.7 2070.9 945.6 2055.7 930.3 2112.9 914.6 2220.6 909.9 2324.5 1016.6 2332.7 1001.3 2518.4 950.9 2519.5 948.6 2609.4 779.8 2626.9 780.9 2683 721.1 2713.3 721.1 2805.6 744.6 2902.5 831.3 2788.1 855.9 2819.6 806.2 2880.4 767.5 2950.4 725.3 3022.8 689 3068.4 653.8 3102.2 633.9 3108.1 605.7 3034.5 583.5 3017 554.2 2994.8 508.5 2970.2 502.6 2861.6 505 2826.6 442.9 2817.2 364.8 2819.5 381.2 2762.3 416.4 2686.4 424.6 2647.9 388.3 2503.1 421.1 2506.6 451.6 2423.7 499.7 2399.2 702.5 2266.1 706 2144.6 682.6 2088.6 677.9 2034.9 628.7 2027.9 490.4 1978.8 457.6 1986.9 402.5 1972.9 424.1 1922.5 312.8 1864.1 367.9 1665.6 501.5 1728.7 598.7 1771.9 606.9 1754.4 603.5 1644.6 758.1 1733.4 848.3 1767.3 853 1783.6 1150.7 1866.6 Z" data-holc_grade="C"/>
<path d="M 2983.8 1173.2 2999 1198.9 2979.1 1274.8 2922.9 1353 2872.5 1398.6 2615.8 1193.2 2640.4 1131.3 2711.9 1152.3 2772.8 1008.7 2857.1 951.5 2988.4 1037.8 2927.5 1168.6 2983.8 1173.2 Z M 2195.7 660.7 2168.8 768.7 2127.2 744.8 2077.4 719.7 2018.8 659.6 2032.3 585.5 2078 465.2 2129.5 349.7 2345.2 441.7 2195.7 660.7 Z M 1178.5 1373.9 1136.3 1356.1 1160.7 1226.3 1176.6 1182.9 1249.9 1041.4 1103.4 1000.5 1074.1 1019.5 1060.9 1082.2 1047.7 1083.7 898.4 1032.6 817.8 956.7 781.2 927.5 732.9 920.2 740.2 980.1 731.4 1031.1 781.2 1219.4 815.7 1252.4 834.5 1322.5 722.6 1251.5 633.2 1169.7 583.5 1107 527.8 1061.7 545.4 988.8 611.3 854.5 520.5 832.6 686.1 437.3 661.3 170.3 569 161.5 504.6 136.7 485.6 106 525.1 1 1058.1 112 1053.7 171.8 1040.5 193.7 1009.8 209.7 1003.9 241.8 986.3 266.6 951.2 272.4 910.2 254.9 872.1 249.1 844.3 271 820.8 320.6 823.8 361.4 842.8 387.7 857.4 409.6 842.8 437.3 823.8 473.8 828.1 502.9 872.1 555.5 877.9 583.2 897 599.2 914.5 587.6 918.9 574.4 929.2 564.2 974.6 558.4 1034.6 546.7 1059.5 516.1 1075.6 481.1 1116.6 498.6 1151.8 594.9 1163.5 646 1153.2 707.2 1131.2 774.4 1181 813.8 1238.2 845.9 1248.4 895.5 1365.6 964.1 1326 1006.4 1214.7 1238.4 1276.2 1264.7 1252.8 1378.5 1178.5 1373.9 Z" data-holc_grade="C"/>
</g>
<g id="D">
<path d="M 1733.2 3018.2 1705.1 3071.4 1496.9 3006.9 1496.9 2967.7 1384.4 2945.3 1390 2889.2 1311.2 2858.4 1285.9 2906 1207.1 2894.8 1210 2815.5 1267.7 2832.4 1282.4 2814.8 1305.6 2800.1 1368.9 2814.1 1418.9 2873.7 1440.7 2884.9 1453.3 2876.5 1451.2 2828.2 1462.5 2812.8 1478.6 2763.7 1600.3 2816.3 1638.3 2861.1 1696.7 2894.7 1721.3 2927 1681.9 2954.3 1733.2 3018.2 Z M 1426.3 2596.5 1307.5 2628.7 1299 2592.9 1465 2559.3 1455.1 2464 1484.7 2457.5 1528.3 2447.9 1540.2 2555.1 1504.4 2574 1426.3 2596.5 Z M 1153.5 2284.6 1149.2 2382.7 1167.5 2393.2 1176.7 2418.5 1177.4 2471.7 1110.5 2473.1 1102.1 2548.1 1156.3 2554.4 1175.9 2631.5 927.4 2701.7 936.8 2753.1 855.9 2819.6 831.3 2788.1 744.6 2902.5 721.1 2805.6 721.1 2713.3 780.9 2683 779.8 2626.9 948.6 2609.4 950.9 2519.5 1001.3 2518.4 1016.6 2332.7 909.9 2324.5 914.6 2220.6 990.8 2212.4 993.1 2287.1 1056.4 2304.7 1153.5 2284.6 Z" data-holc_grade="D"/>
</g>
</svg>