<?xml version="1.0"?>
<svg xmlns="http://www.w3.org/2000/svg" version="1.2" baseProfile="tiny" width="3000" height="1619" viewBox="0 0 3000 1619" stroke-linecap="round" stroke-linejoin="round">
<g id="B">
<path d="M 1693.8 365.2 1835.6 401.2 1973.4 452.2 2121.7 511 2361.9 552.8 2481.3 555.4 2687.4 639 2778.8 653.3 2805.4 756.9 2780.6 769.8 2681.6 822.9 2547.8 927.6 2495.3 936.7 2399.5 904.1 2336.5 904.1 2253.8 949.9 2039.8 946 2066.1 980 2070 1011.4 2066.1 1065 2076.6 1097.7 2005.7 1126.5 1900.7 1020.5 1719.6 1059.8 1653.9 1100.3 1488.6 939.5 1496.4 905.5 1480.7 853.2 1508.2 825.7 1534.5 779.9 1558.1 795.6 1583 692.3 1483.3 609.9 1524 462.2 1525.3 407.3 1540.3 357.3 1628.2 346.9 1663.6 353.4 1693.8 365.2 Z" data-holc_grade="B"/>
</g>
<g id="C">
<path d="M 1540.3 357.3 1525.3 407.3 1524 462.2 1483.3 609.9 1583 692.3 1558.1 795.6 1534.5 779.9 1508.2 825.7 1480.7 853.2 1496.4 905.5 1488.6 939.5 1653.9 1100.3 1719.6 1059.8 1900.7 1020.5 2005.7 1126.5 2014.8 1142.4 1951.9 1191.8 1911.2 1180.1 1891.5 1157.9 1871.8 1133 1774.7 1182.7 1756.3 1223.3 1718.3 1229.8 1696 1258.6 2070.1 1296.5 2046.4 1371 2173.8 1408.9 2021.5 1500.5 1944.1 1518.8 1927 1364.5 1769.5 1322.7 1705.2 1517.5 1639.5 1501.8 1573.9 1465.2 1492.5 1335.7 1437.8 1309.8 1382.4 1287.2 1271.5 1269.7 983.6 1128.1 957.4 1091.5 931.1 1100.6 912.8 1141.2 844.5 1111.1 763.1 1156.8 659.4 1203.9 534.7 1219.6 470.4 1291.5 431 1307.2 356.2 1292.7 293.1 1305.8 136.4 1236.6 53 1217.8 1 1162.8 250 908.7 379.2 717.3 708.4 381.6 801.3 257.6 1020 1 1039 26.5 1234.5 322 1351.3 345.6 1407.7 339 1468.1 350.8 1540.3 357.3 Z" data-holc_grade="C"/>
<path d="M 1533.8 1555.5 1486.5 1618.3 940.4 1448.2 1077.4 1284.7 1203.4 1272.2 1271.5 1269.7 1382.4 1287.2 1437.8 1309.8 1488.2 1415.3 1490.7 1488.1 1531.1 1515.8 1533.8 1555.5 Z" data-holc_grade="C"/>
<path d="M 2704.1 1080.7 2587.2 1092.3 2563.6 1075.3 2550.5 1185.2 2446.8 1181.3 2449.4 1221.8 2126.5 1227.1 2039.9 1186.6 2014.8 1142.4 2005.7 1126.5 2076.6 1097.7 2066.1 1065 2070 1011.4 2066.1 980 2039.8 946 2253.8 949.9 2336.5 904.1 2399.5 904.1 2495.3 936.7 2547.8 927.6 2681.6 822.9 2780.6 769.8 2841.5 866 2755.4 989.5 2704.1 1080.7 Z" data-holc_grade="C"/>
</g>
<g id="D">
<path d="M 2704.1 1080.7 2755.4 989.5 2841.5 866 2780.6 769.8 2805.4 756.9 2885.6 715.3 2981.5 682.9 2967.5 727.9 2944.4 761.3 2971.7 755.1 2999 842.9 2971.7 845 2938.1 868.1 2946.5 951.7 2971.8 1016.6 2917.2 1100.3 2866.8 1108.7 2812.2 1100.4 2843.7 1207.1 2860.5 1209.2 2894.1 1215.4 2940.4 1284.5 2925.7 1297 2898.4 1271.9 2801.7 1267.8 2793.3 1276.1 2841.7 1408 2690.5 1387.1 2677.8 1219.7 2640 1194.6 2704.1 1080.7 Z" data-holc_grade="D"/>
</g>
</svg>