<?xml version="1.0"?>
<svg xmlns="http://www.w3.org/2000/svg" version="1.2" baseProfile="tiny" width="3000" height="2518" viewBox="0 0 3000 2518" stroke-linecap="round" stroke-linejoin="round">
<g id="A">
<path d="M 1659.6 1081.6 1673.8 1060.3 1681 1070.2 1685.5 1094.8 1687.3 1110.7 1732.5 1114.6 1740.3 1130.8 1747.3 1163.5 1764.2 1216.6 1709.6 1256.5 1653.9 1259.8 1655.4 1218.4 1665.4 1200.7 1658.1 1160.8 1659.6 1081.6 Z" data-holc_grade="A"/>
</g>
<g id="B">
<path d="M 1367.9 1303 1327.2 1308.3 1342.3 1361.5 1331 1369 1338.5 1444.8 1324.9 1474.1 1276.7 1457.6 1268.4 1477.8 1270.7 1507.1 1263.9 1511.6 1218 1501.8 1193.2 1285 1271.5 1234 1227.1 1204 1209.7 1198 1179.6 1180 1224.8 1168.7 1261.7 1150.7 1279 1125.2 1305.4 1115.5 1342.3 1108.7 1347.5 1123 1352.1 1133.5 1362.6 1140.2 1368.6 1149.2 1408.5 1252 1367.9 1303 Z" data-holc_grade="B"/>
<path d="M 1392.8 1529.1 1365.7 1538.1 1361.8 1524.3 1270.7 1507.1 1268.4 1477.8 1276.7 1457.6 1324.9 1474.1 1338.5 1444.8 1331 1369 1342.3 1361.5 1327.2 1308.3 1367.9 1303 1377.6 1360.8 1459.7 1423.1 1479.3 1481.6 1477.8 1498.1 1392.8 1529.1 Z" data-holc_grade="B"/>
<path d="M 1385.3 1606.4 1372.5 1621.4 1367.9 1647.6 1362.7 1673.2 1358.9 1742.2 1342.3 1764 1319.2 1765.4 1309.1 1767.9 1305.6 1772.9 1274.5 1750.8 1268.5 1753.8 1255.9 1756.8 1245.4 1760.3 1237.3 1762.3 1228.3 1760.8 1217.2 1646.3 1324.2 1632.8 1324.2 1626.8 1326.2 1615.3 1335.8 1606.8 1353.3 1605.8 1385.3 1606.4 Z" data-holc_grade="B"/>
<path d="M 1820.5 1162.5 1810.5 1199.2 1833.1 1227.3 1838.7 1243.6 1850.6 1331.7 1851.3 1356.7 1847.7 1374.8 1838.2 1382.6 1833.2 1501.6 1767.4 1498.6 1732.2 1526.2 1731.7 1501.1 1722.2 1479.1 1721.7 1471.6 1719.2 1453.6 1714.7 1414.6 1707.1 1359.1 1689 1358.1 1687.5 1329.1 1693.6 1308.1 1688.5 1281.1 1625.8 1282.6 1600.7 1254.6 1622.9 1222.3 1634.3 1165.6 1659.6 1081.6 1658.1 1160.8 1665.4 1200.7 1655.4 1218.4 1653.9 1259.8 1709.6 1256.5 1764.2 1216.6 1747.3 1163.5 1740.3 1130.8 1732.5 1114.6 1687.3 1110.7 1685.5 1094.8 1681 1070.2 1673.8 1060.3 1673.2 1007.8 1712.6 1005.7 1713.1 1000 1758.8 996 1756.8 1025.5 1834.1 1030.5 1814 1094 1824.6 1128 1820.5 1162.5 Z" data-holc_grade="B"/>
<path d="M 432.5 252.7 453.9 350.4 471.7 448.7 383.3 481.9 263.4 530.4 263.9 599.7 207.9 622.1 159.6 588.8 142.8 579.5 67.3 527.7 73.9 483.4 87 421.9 94.2 372 97.7 333.7 109.1 254.9 69.4 165.1 44.4 175.4 20.8 111.6 1 89 54.7 53.4 76.3 57.9 83.9 57.5 187.8 7.5 205.8 1 202.7 44.9 215.7 50 264.5 59.6 334.8 68.5 343.2 71.3 350.7 180 358.7 250.7 360.5 268 408.4 259.9 432.5 252.7 Z" data-holc_grade="B"/>
</g>
<g id="C">
<path d="M 833.5 1023.1 801.7 979.6 890.6 918.1 924.5 856.6 940.3 864.9 943 858.6 974.2 787.6 1005.8 786.9 1046.4 801.9 1067.5 815.4 1118.7 865.7 1036.6 923.4 967.3 963.1 934.2 981.9 922.2 992.4 943.2 1041.1 858.9 1086.1 842.3 1035.1 833.5 1023.1 Z" data-holc_grade="C"/>
<path d="M 1828 959 1712.1 949 1713.2 939.9 1717.6 929.3 1727.6 916.1 1738.9 900.5 1749.5 880.5 1773.4 864.3 1768.4 823 1729.5 811.1 1668.6 818.6 1612.1 838 1640.4 884.3 1659.8 948 1651.1 982.4 1629.7 1012.4 1556.3 1019.3 1506.8 978.7 1520.6 938.6 1396.3 883.6 1407 732.4 1482.3 726.8 1573.2 669.3 1526.8 624.9 1517.4 597.4 1734.5 621.1 1735.7 678 1822.3 691.1 1804.8 844.2 1828 959 Z" data-holc_grade="C"/>
<path d="M 1732.5 1869.3 1618.9 1916.2 1655.3 2004.3 1668.5 2007.5 1681 2058.8 1715.6 2153.2 1717.5 2161.3 1750.1 2228.2 1719 2242 1728 2263.8 1731 2308.8 1723.5 2316.3 1722 2322.3 1720.5 2332.1 1720.5 2339.6 1716 2359.1 1713 2368.9 1718.2 2383.9 1719.8 2403.4 1720.5 2428.2 1634.6 2436.4 1582.6 2415.4 1522.3 2393.6 1508.8 2345.6 1306.8 2411.6 1303.8 2388.4 1305.3 2381.6 1284.3 2300.6 1287.3 2293.8 1287.3 2233 1301.6 2143.7 1490.7 2072.4 1425.9 1890 1416.9 1893 1342.3 1764 1358.9 1742.2 1362.7 1673.2 1367.9 1647.6 1372.5 1621.4 1385.3 1606.4 1365.7 1538.1 1392.8 1529.1 1414.6 1596.6 1439.5 1592.9 1473.4 1586.1 1504.3 1567.4 1523.1 1597.4 1535.1 1614.6 1545.7 1642.4 1550.2 1671.7 1558.5 1705.4 1578.8 1729.4 1593.9 1751.2 1599.2 1764 1609.7 1783.5 1647.4 1815.7 1670 1818.7 1691.1 1828.5 1718.9 1853.2 1732.5 1869.3 Z" data-holc_grade="C"/>
<path d="M 1828 959 1838.1 1007 1940.5 1014 1968.6 976.5 2114.2 1066.4 2055.5 1166.5 2094.1 1194 2078.6 1270.5 2094.2 1298.8 2109.3 1287.5 2118.1 1281.3 2130.6 1281.3 2146.9 1283.8 2154.5 1283.8 2154.5 1263.7 2150.7 1235 2145.7 1202.5 2140.6 1167.5 2135.6 1137.5 2131.8 1115 2139.3 1100 2139.3 1085 2136.8 1072.5 2143.1 1075 2163.2 1080 2177 1086.2 2184.5 1082.5 2209.6 1077.4 2230.9 1077.4 2241 1077.4 2253.5 1077.4 2269.8 1069.9 2308.7 1073.6 2346.4 1082.4 2382.8 1099.9 2412.9 1103.6 2410.4 1127.4 2405.4 1162.4 2370.3 1158.6 2340.2 1149.9 2325.2 1309.9 2305.2 1472.5 2329 1467.5 2322.8 1560 2446.8 1539.2 2433.8 1606.2 2381.6 1683.3 2336.4 1760.4 2313.3 1778.4 2304.3 1797.4 2258.1 1792.4 2243 1787.4 2204.9 1761.4 2168.7 1739.4 2110.9 1720.6 2120.7 1725.4 2099.3 1715.5 2054.1 1706.5 1969.7 1690.8 1943.4 1693 1840.2 1654 1845.2 1640.7 1781 1622.7 1788 1638.2 1811.6 1645.7 1800 1701.2 1795.5 1706.7 1773.4 1754.2 1743.3 1737.7 1734.3 1724.7 1721.7 1691.7 1720.7 1601.2 1710.1 1543.2 1696.1 1543.7 1665 1532.7 1640.9 1453.6 1623.3 1445.6 1598.2 1393.6 1587.6 1357.6 1581.1 1328.6 1585.6 1307.1 1583.1 1280.1 1600.7 1254.6 1625.8 1282.6 1688.5 1281.1 1693.6 1308.1 1687.5 1329.1 1689 1358.1 1707.1 1359.1 1714.7 1414.6 1719.2 1453.6 1721.7 1471.6 1722.2 1479.1 1731.7 1501.1 1732.2 1526.2 1767.4 1498.6 1833.2 1501.6 1838.2 1382.6 1847.7 1374.8 1864.8 1372.6 1883.8 1358.6 1894.8 1340.8 1894.8 1329.6 1894.8 1325.8 1894.8 1316.8 1894.8 1308.8 1899.8 1301.8 1902.8 1293.8 1902.3 1287.1 1901.8 1281.8 1898.8 1268.8 1925.9 1234.8 1918.9 1173.8 1889.7 1174.8 1883.7 1153.8 1820.5 1162.5 1824.6 1128 1814 1094 1834.1 1030.5 1756.8 1025.5 1758.8 996 1713.1 1000 1712.1 949 1828 959 Z M 1885.9 1459.2 1880.9 1583.7 1841.3 1616.2 1837.8 1629.2 1903 1647.2 1908.1 1631.7 1870.4 1619.7 1910 1578.7 1906.5 1572.7 1946.2 1534.7 1932.6 1452.6 1894.9 1366.6 1873.4 1380.1 1851.3 1393.1 1855.3 1415.1 1875.4 1445.1 1885.9 1459.2 Z M 2069 1585.2 2099.1 1590.8 2114.2 1557.7 2121.1 1543.3 2124.2 1533.9 2129.9 1513.9 2139.3 1505.8 2155.9 1502.3 2160.4 1494.8 2161.2 1484.3 2165.7 1464 2175.5 1442.3 2180.9 1421.3 2084.2 1373.8 2067.7 1407 2043.9 1424.5 2025.7 1437.7 2010.6 1463.3 1989.3 1499 1962.3 1539 1990.5 1550.2 2008.7 1554.6 2042 1579 2069 1585.2 Z" data-holc_grade="C"/>
<path d="M 2163.8 1951 2197 1999.8 2224.9 2053.8 2237.7 2075.6 2276.1 2117.6 2302.5 2159.6 2313.8 2176.9 2340.9 2190.4 2316.9 2236.9 2295.8 2260.9 2270.9 2280.5 2250.6 2329.6 2251.4 2357.3 2246.8 2395.6 2219 2407.6 2188.1 2425.7 2173.8 2430.2 2156.4 2424.2 2145.1 2427.9 2124.8 2439.2 2096.2 2458 2057.8 2478.3 1993 2514.9 1944.7 2517.2 1925.9 2500.7 1912.3 2486.4 1852 2447.4 1876.1 2370.1 1890.4 2334.8 1911.5 2318.3 1924.3 2271.7 1943.2 2210.2 1949.9 2181.6 1945.4 2156.9 1962 2175.6 1980.1 2211.7 1995.1 2173.4 1994.4 2101.3 1997.4 2063 1987.6 2033.6 1980.8 2001.4 1984.5 1966.8 1981.5 1948.1 2039.5 1956.3 2060.6 1998.3 2163.8 1951 Z" data-holc_grade="C"/>
<path d="M 2446.8 1539.2 2469.4 1508.4 2475.4 1481.4 2513.7 1397.4 2525.8 1415.4 2535.6 1436.4 2547.7 1462.6 2587.6 1521.9 2637.3 1536.8 2637.3 1451.3 2653.8 1377.8 2684.7 1373.3 2747.2 1406.2 2737.5 1525.5 2733.7 1568.3 2885.1 1581.7 2971.8 1595.1 2999 1756.4 2960.6 1751.2 2883 1690.5 2821.9 1663.5 2739.1 1735.6 2705.2 1746.2 2714.3 1809.2 2751.2 1808.4 2800.9 1817.4 2865.7 1829.3 2914.7 1832.3 2985.5 1839 2991.6 1968.8 2929.2 2012.4 2884.7 2040.9 2857.6 2048.5 2831.2 2053.7 2810.2 2059.8 2794.3 2064.3 2764.2 2084.6 2732.6 2102.6 2720.5 2107.1 2699.5 2129.6 2682.9 2149.9 2655.8 2153.7 2661 2006.6 2609.7 1987.1 2545.7 2005.2 2535.2 2003.7 2524.6 2002.9 2522.4 2011.2 2526.2 2089.2 2493.8 2075.7 2463.6 2042.7 2447 2041.2 2376.2 2009 2371.7 1963.2 2386.7 1939.2 2499 1999.2 2508.8 1980.4 2394.2 1917.4 2389 1928.7 2351.3 1925.7 2324.9 1908.5 2226.2 1833.5 2120.7 1725.4 2110.9 1720.6 2168.7 1739.4 2204.9 1761.4 2243 1787.4 2258.1 1792.4 2304.3 1797.4 2313.3 1778.4 2336.4 1760.4 2381.6 1683.3 2433.8 1606.2 2446.8 1539.2 Z" data-holc_grade="C"/>
<path d="M 943 858.6 940.3 864.9 924.5 856.6 890.6 918.1 801.7 979.6 833.5 1023.1 782.5 1069.8 777.7 1066.9 769.6 1075.4 752.5 1064 690.5 1015 690.4 976 689.1 935.8 701.7 887.3 714.6 851 634.8 780.3 600.1 769.9 571.6 764.2 545.8 754.5 537.3 749.2 529.3 718.9 531.8 691.5 554.7 592.9 552.7 575.8 670.5 548 695 497.4 704.8 468.3 708.9 465.8 724.9 465.3 744.6 460.9 728.8 259.3 906.4 181.4 916.1 218.2 921.9 234.2 935.4 255.1 985.5 335.5 1188.8 435.1 1262 468.8 1230.7 551.7 1166 529.3 1120.9 645.2 1068.9 647.9 1053.7 727.8 1029.1 767.5 976 786.6 965.8 789.8 929.2 851.7 943 858.6 Z" data-holc_grade="C"/>
</g>
<g id="D">
<path d="M 1750.1 2228.2 1717.5 2161.3 1715.6 2153.2 1681 2058.8 1668.5 2007.5 1655.3 2004.3 1618.9 1916.2 1732.5 1869.3 1757.6 1911.1 1742.6 1935.5 1727.5 1971.2 1716.2 1995.6 1708 2023.1 1706.2 2046.9 1704.9 2067.5 1704.9 2104.4 1730 2102.5 1728.8 2031.9 1741.9 1992.5 1760.8 1953 1777.1 1938 1801.6 2205.7 1750.1 2228.2 Z M 2163.8 1951 2060.6 1998.3 2039.5 1956.3 1981.5 1948.1 1984.5 1966.8 1980.8 2001.4 1987.6 2033.6 1997.4 2063 1994.4 2101.3 1995.1 2173.4 1980.1 2211.7 1962 2175.6 1945.4 2156.9 1910 2038.1 1911.5 1976.6 1877.5 1791.3 1900.9 1792.7 1911.4 1756 1979.2 1771.7 2006.3 1760.5 2086.2 1767.2 2114 1803.9 2121.6 1836.2 2129.9 1864 2138.2 1889.5 2141.2 1926.3 2163.8 1951 Z" data-holc_grade="D"/>
<path d="M 2069 1585.2 2042 1579 2008.7 1554.6 1990.5 1550.2 1962.3 1539 1989.3 1499 2010.6 1463.3 2025.7 1437.7 2043.9 1424.5 2067.7 1407 2084.2 1373.8 2180.9 1421.3 2175.5 1442.3 2165.7 1464 2161.2 1484.3 2160.4 1494.8 2155.9 1502.3 2139.3 1505.8 2129.9 1513.9 2124.2 1533.9 2121.1 1543.3 2114.2 1557.7 2099.1 1590.8 2069 1585.2 Z M 1885.9 1459.2 1875.4 1445.1 1855.3 1415.1 1851.3 1393.1 1873.4 1380.1 1894.9 1366.6 1932.6 1452.6 1946.2 1534.7 1906.5 1572.7 1910 1578.7 1870.4 1619.7 1908.1 1631.7 1903 1647.2 1837.8 1629.2 1841.3 1616.2 1880.9 1583.7 1885.9 1459.2 Z" data-holc_grade="D"/>
</g>
</svg>