<?xml version="1.0"?>
<svg xmlns="http://www.w3.org/2000/svg" version="1.2" baseProfile="tiny" width="3000" height="2417" viewBox="0 0 3000 2417" stroke-linecap="round" stroke-linejoin="round">
<g id="A">
<path d="M 2712.3 1355.6 2713.1 1342.6 2586.5 1343.5 2584 1244.3 2584.8 1233.7 2911.5 1227.8 2910.7 1148.9 2998.9 1150.5 2999 1357.1 2904.3 1358.8 2893 1556.4 2708.3 1552.5 2712.3 1355.6 Z" data-holc_grade="A"/>
<path d="M 2449.5 1769.8 2451.1 1568.9 2498.4 1567.2 2504.2 1768.9 2449.5 1769.8 Z" data-holc_grade="A"/>
<path d="M 2228.9 1565.8 2231.1 1611.3 2186.4 1613.5 2178.8 1665.6 2133.1 1665.6 2129.8 1621.1 2073.2 1619 2076.5 1715.5 2069.4 1709.3 2050.3 1692.7 2027.4 1688.4 2025.3 1650.4 2020.9 1636.3 2013.3 1613.6 2018.7 1578.8 2018.3 1560.1 2029.6 1559.3 2228.9 1565.8 Z" data-holc_grade="A"/>
<path d="M 2419.9 1143.3 2419.9 1350.1 2393 1350.9 2393 1359.9 2393.8 1455 2342.4 1456.7 2339.1 1558.3 2288.8 1552.7 2287.6 1355.4 2283.3 1316.3 2282.1 1244.8 2285.4 1189.4 2286.5 1141.7 2419.9 1143.3 Z" data-holc_grade="A"/>
<path d="M 2029.6 1559.3 2031.7 1499.7 2045.9 1495.3 2073.1 1482.3 2078.6 1446.5 2077.5 1421.6 2065.5 1416.2 2060 1390.1 2069.8 1378.2 2094.9 1366.3 2090.5 1145.1 2272.9 1142 2286.5 1141.7 2285.4 1189.4 2282.1 1244.8 2283.3 1316.3 2287.6 1355.4 2288.8 1552.7 2228.9 1565.8 2029.6 1559.3 Z" data-holc_grade="A"/>
<path d="M 2272.9 1142 2090.5 1145.1 2073 1142.9 2071.9 1126.6 1914.1 1127.7 1907.5 1105 1907.5 1068.1 1910.8 1038.8 2013.1 1038.8 2120.9 1038.7 2122.5 989.1 2176.4 984.2 2178.8 934.6 2231.1 937.8 2234.4 982.6 2252.4 986.6 2259.7 1026.5 2265.4 1035.4 2270.3 1037.8 2272.9 1142 Z" data-holc_grade="A"/>
<path d="M 625.5 723.9 586.3 722.8 564.5 726.1 538.4 734.7 403.4 729.2 423 706.5 450.2 668.5 464.4 632.8 474.2 603.5 568.9 603.6 575.4 683.8 627.7 681.6 625.5 723.9 Z" data-holc_grade="A"/>
<path d="M 2419.9 1143.3 2286.5 1141.7 2272.9 1142 2270.3 1037.8 2265.4 1035.4 2259.7 1026.5 2252.4 986.6 2234.4 982.6 2231.1 937.8 2178.8 934.6 2176.4 984.2 2122.5 989.1 2120.9 1038.7 2013.1 1038.8 2012 961.8 2002.2 841.5 2053 722.4 2284.9 717.5 2289.1 1030.5 2494.9 1037.8 2500.7 1144.3 2419.9 1143.3 Z" data-holc_grade="A"/>
<path d="M 2500.7 1144.3 2503.2 1243.5 2584 1244.3 2586.5 1343.5 2713.1 1342.6 2712.3 1355.6 2393 1359.9 2393 1350.9 2419.9 1350.1 2419.9 1143.3 2500.7 1144.3 Z" data-holc_grade="A"/>
<path d="M 2339.1 1558.3 2451.1 1568.9 2449.5 1769.8 2070.5 1773.2 2069.4 1709.3 2076.5 1715.5 2073.2 1619 2129.8 1621.1 2133.1 1665.6 2178.8 1665.6 2186.4 1613.5 2231.1 1611.3 2228.9 1565.8 2288.8 1552.7 2339.1 1558.3 Z" data-holc_grade="A"/>
</g>
<g id="B">
<path d="M 2090.5 1145.1 2094.9 1366.3 2069.8 1378.2 2060 1390.1 2065.5 1416.2 2077.5 1421.6 2078.6 1446.5 2073.1 1482.3 2045.9 1495.3 2031.7 1499.7 2029.6 1559.3 2018.3 1560.1 1914.1 1566.9 1863 1565.4 1859 1385.8 1860.3 1336 1865.1 1154.9 1882.5 1146.2 1894.5 1119.1 1907.5 1105 1914.1 1127.7 2071.9 1126.6 2073 1142.9 2090.5 1145.1 Z" data-holc_grade="B"/>
<path d="M 1907.5 1068.1 1866.1 1076.8 1862.9 1082.2 1865 1145.9 1650.5 1143 1653.8 1050.8 1750.7 1011.8 1825.8 984.6 1863.9 964 1866.1 989 1922.7 987.9 1924.9 958.6 2012 961.8 2013.1 1038.8 1910.8 1038.8 1907.5 1068.1 Z" data-holc_grade="B"/>
<path d="M 1661.7 1570.7 1863 1565.4 1866.2 1722 1550.4 1726.4 1546 1573.5 1661.7 1570.7 Z" data-holc_grade="B"/>
<path d="M 538.4 734.7 494.8 784.6 494.8 838.8 540.5 887.6 590.6 913.6 629.8 926.7 683.1 940.8 727.8 958.1 748.4 933.2 742.1 875.6 784.9 876.4 787.5 929.7 818.9 928.4 824.1 949.2 843.7 976.6 871.6 992.1 869.8 1028.6 856.7 1033.8 835.5 1008 817 976.6 782.2 951.6 758.2 947.3 753.9 1013.4 670 1048.1 654.8 1045.9 602.5 1054.6 585.1 1070.8 577.4 1082.8 468.6 1083.8 467.5 1024.2 403.3 1024.1 403.4 729.2 538.4 734.7 Z" data-holc_grade="B"/>
<path d="M 723.5 761.9 691.9 760.8 664.7 747.8 639.6 731.5 625.5 723.9 627.7 681.6 575.4 683.8 568.9 603.6 574.4 581.9 628.8 577.6 631 627.4 712.6 630.7 714.8 679.5 731.1 678.4 723.5 761.9 Z" data-holc_grade="B"/>
</g>
<g id="C">
<path d="M 2002.2 841.5 2012 961.8 1924.9 958.6 1922.7 987.9 1866.1 989 1863.9 964 1903.1 943.4 1929.3 927.2 2002.2 841.5 Z M 1947.7 722.9 1764.8 728.2 1760.8 624.1 1839.2 618.9 1837.9 516.1 1861.4 516.1 1946.3 517.4 1947.7 722.9 Z" data-holc_grade="C"/>
<path d="M 1863 1565.4 1661.7 1570.7 1656.4 1385.9 1859 1385.8 1863 1565.4 Z M 1860.3 1336 1564.5 1336 1563.4 1259 1574.3 1250.3 1571.1 1146.2 1550.4 1144 1547.1 1071.4 1617.9 1060.6 1653.8 1050.8 1650.5 1143 1865 1145.9 1882.5 1146.2 1865.1 1154.9 1860.3 1336 Z" data-holc_grade="C"/>
<path d="M 1546 1573.5 1550.4 1726.4 1866.2 1722 1863 1565.4 1914.1 1566.9 1919.6 1888 1647.3 1889.1 1650.6 1984.6 1536.2 1983.5 1536.2 1904.3 1475.2 1905.4 1465.4 1575.7 1546 1573.5 Z" data-holc_grade="C"/>
<path d="M 954.8 730.7 922.1 734.6 919.5 842.6 879 843.9 871.6 992.1 843.7 976.6 824.1 949.2 818.9 928.4 787.5 929.7 784.9 876.4 742.1 875.6 638.6 873.7 630.8 778.7 683 811.3 736.6 815.2 779.7 803.5 805.8 782.7 801.9 758 790.2 733.3 838.5 724.2 834.6 635.7 879 627.9 879.1 422.4 1021.5 415.9 1025.4 521.3 999.3 523.9 996.6 622.7 956.1 633.1 954.8 730.7 Z" data-holc_grade="C"/>
<path d="M 742 632.9 747.5 653.5 742 678.4 751.8 713.1 764.8 739.1 760.5 748.9 723.5 761.9 731.1 678.4 714.8 679.5 712.6 630.7 631 627.4 628.8 577.6 574.4 581.9 568.9 603.6 474.2 603.5 463.4 549.3 462.3 521.1 705 522.3 712.7 352.1 723.6 368.4 731.2 391.2 754.1 404.2 753 417.2 757.3 435.6 770.4 435.6 796.5 433.5 795.4 463.8 783.4 497.4 779.1 528.8 742 632.9 Z" data-holc_grade="C"/>
<path d="M 461.6 1429.9 461.7 1444 462.6 1529.7 673.9 1537.3 669.5 1642.5 371.1 1651.1 370 1620.6 367.9 1561.1 399.4 1560 398.4 1454.8 186 1451.4 179.5 1430.8 120.7 1429.7 118.6 1364.6 426.8 1371.3 432.2 1423.4 461.6 1429.9 Z" data-holc_grade="C"/>
</g>
<g id="D">
<path d="M 1546.6 940.2 1541.4 734.7 1545.4 410.7 1758.2 412.1 1754.3 197.4 1862.7 190.9 1865.3 302.8 1801.3 310.6 1803.9 415.9 1864 415.9 1861.4 516.1 1837.9 516.1 1839.2 618.9 1760.8 624.1 1764.8 728.2 1947.7 722.9 1945.1 772.4 1866.7 776.3 1865.4 845.2 1738.7 851.8 1736.1 940.2 1546.6 940.2 Z" data-holc_grade="D"/>
<path d="M 712.7 352.1 705 522.3 462.3 521.1 460.1 470.2 522.2 465.9 527.7 346.6 563.6 355.3 590.8 345.6 619.1 327.2 640.9 327.2 668.1 330.4 696.4 344.5 712.7 352.1 Z" data-holc_grade="D"/>
<path d="M 461.6 1429.9 432.2 1423.4 426.8 1371.3 118.6 1364.6 88.1 1374.4 82.7 1321.2 1 1315.7 1.1 1113 202.6 1113.1 249.4 1156.5 286.4 1169.5 311.4 1179.3 307 1320.3 411.5 1322.5 410.5 1203.2 517.2 1208.7 566.2 1227.1 593.4 1225 635.9 1225 677.3 1231.5 701.2 1256.5 708.8 1357.3 763.3 1363.9 762.2 1404 462.7 1407.1 461.6 1429.9 Z" data-holc_grade="D"/>
<path d="M 367.9 1561.1 284 1564.3 266.6 1580.5 263.3 1632.6 284 1631.5 286.1 1626.1 370 1620.6 371.1 1651.1 669.5 1642.5 673.9 1537.3 462.6 1529.7 461.7 1444 757.8 1438.7 764.3 1516.8 820.9 1520 823.1 1616.6 764.3 1620.9 765.3 1761.9 722.8 1762.9 632.4 1765.1 623.7 1773.8 429.8 1776.9 422.2 1789.9 213.1 1788.7 207.7 1684.6 6.2 1712.7 6.2 1707.3 6.4 1431.8 89.1 1434 88.1 1374.4 118.6 1364.6 120.7 1429.7 179.5 1430.8 186 1451.4 398.4 1454.8 399.4 1560 367.9 1561.1 Z" data-holc_grade="D"/>
<path d="M 281.5 2048 548.5 1876.8 266.5 1882.1 211.9 1883.1 213.1 1788.7 422.2 1789.9 429.8 1776.9 623.7 1773.8 632.4 1765.1 722.8 1762.9 726 1947.3 633.4 1947.3 631.2 2046 421 2047.2 281.5 2048 Z" data-holc_grade="D"/>
<path d="M 1471.4 1075.9 1494.3 1147.1 1550.4 1144 1571.1 1146.2 1574.3 1250.3 1563.4 1259 1564.5 1336 1208.2 1343.6 1205.6 1208.2 1146.8 1203 1146.8 784.1 1142.9 564.2 1128.6 504.4 1105.1 458.9 1186.1 314.5 1274.9 310.6 1358.5 626.7 1486.5 628 1489.1 726.9 1541.4 734.7 1546.6 940.2 1427.7 940.2 1471.4 1075.9 Z" data-holc_grade="D"/>
<path d="M 1546 1573.5 1465.4 1575.7 1475.2 1905.4 1536.2 1904.3 1536.2 1983.5 1452.3 1987.8 1448 2037.7 1436 2047.5 1074.4 2049.4 1070.1 1468.2 1115.8 1469.3 1121.3 1571.3 1205.1 1573.5 1206.2 1474.8 1237.8 1469.4 1242.2 1391.3 1546 1391.3 1546 1573.5 Z" data-holc_grade="D"/>
<path d="M 1650.6 1984.6 1653.9 2336 1448 2329.5 1449.1 2200.4 1296.6 2201.5 1294.4 2412 1027.4 2416.3 1027.6 2355.5 1028.6 2049.6 1074.4 2049.4 1436 2047.5 1448 2037.7 1452.3 1987.8 1536.2 1983.5 1650.6 1984.6 Z" data-holc_grade="D"/>
<path d="M 1074.4 2049.4 1028.6 2049.6 1027.6 2355.5 971.9 2359.9 964.2 2345.7 882.5 2344.6 880.4 2319.7 787.8 2318.6 764.9 2279.5 756.2 2203.6 759.5 2105.9 810.7 1986.6 821.6 1945.4 832.6 1865.1 866.4 1773 868.5 1728.5 876.2 1694.9 889.3 1620 884.9 1512.7 874.1 1467.1 1070.1 1468.2 1074.4 2049.4 Z" data-holc_grade="D"/>
<path d="M 1050.1 1151 875 1157.4 877.6 1258.9 809.6 1258.9 728.6 1197.7 728.6 1135.3 783.5 1127.5 831.9 1095 851.5 1067.6 856.7 1033.8 869.8 1028.6 871.6 992.1 879 843.9 919.5 842.6 922.1 734.6 954.8 730.7 1077.6 734.6 1084 1147.1 1050.1 1151 Z" data-holc_grade="D"/>
<path d="M 1105.1 458.9 1128.6 504.4 1142.9 564.2 1146.8 784.1 1146.8 1203 1142.8 1259 1057.9 1255.1 1050.1 1151 1084 1147.1 1077.6 734.6 954.8 730.7 956.1 633.1 996.6 622.7 999.3 523.9 1025.4 521.3 1021.5 415.9 1026.7 410.7 1071.1 408.1 1105.1 458.9 Z" data-holc_grade="D"/>
<path d="M 1028.4 315.4 771.5 317.5 742.1 319.6 708.4 319.6 687.7 308.8 670.3 304.4 648.5 309.8 633.3 305.5 608.3 310.9 608.3 216.6 710.6 213.4 715 158.1 786.8 156 793.4 105 815.1 102.9 819.5 1 1018.7 2.1 1016.5 145.2 1020.8 217.8 1024.1 265.5 1028.4 315.4 Z" data-holc_grade="D"/>
<path d="M 1071.1 408.1 1026.7 410.7 1021.5 415.9 879.1 422.4 879 627.9 834.6 635.7 742 632.9 779.1 528.8 783.4 497.4 795.4 463.8 796.5 433.5 770.4 435.6 757.3 435.6 753 417.2 754.1 404.2 731.2 391.2 723.6 368.4 712.7 352.1 696.4 344.5 668.1 330.4 640.9 327.2 619.1 327.2 590.8 345.6 563.6 355.3 527.7 346.6 525.5 333.6 526.6 323.9 558.2 331.5 579.9 327.1 608.3 310.9 633.3 305.5 648.5 309.8 670.3 304.4 687.7 308.8 708.4 319.6 742.1 319.6 771.5 317.5 1028.4 315.4 1038.2 338.1 1055.6 381.5 1071.1 408.1 Z" data-holc_grade="D"/>
<path d="M 1550.4 1144 1494.3 1147.1 1471.4 1075.9 1547.1 1071.4 1550.4 1144 Z" data-holc_grade="D"/>
<path d="M 1545.4 410.7 1541.4 734.7 1489.1 726.9 1486.5 628 1358.5 626.7 1274.9 310.6 1342.8 306.7 1342.8 250.8 1473.4 248.2 1476.1 309.3 1546.6 314.5 1545.4 410.7 Z" data-holc_grade="D"/>
<path d="M 1864 415.9 1803.9 415.9 1801.3 310.6 1865.3 302.8 1864 415.9 Z" data-holc_grade="D"/>
<path d="M 213.1 1788.7 211.9 1883.1 266.5 1882.1 268.5 2051.3 281.5 2048 421 2047.2 427.4 2256.4 211.7 2257.4 209.6 2062.1 147.5 2056.6 152 1952.5 2.7 1951.3 6.2 1712.7 207.7 1684.6 213.1 1788.7 Z" data-holc_grade="D"/>
</g>
</svg>