<?xml version="1.0"?>
<svg xmlns="http://www.w3.org/2000/svg" version="1.2" baseProfile="tiny" width="3000" height="2877" viewBox="0 0 3000 2877" stroke-linecap="round" stroke-linejoin="round">
<g id="A">
<path d="M 1484.4 2136.7 1445.2 2218.2 1378.7 2284.5 1353.1 2269.2 1361.6 2194.4 1324.1 2158.7 1288.3 2102.7 1237.2 2084 1133.1 2095.9 1095.6 2163.8 1090.5 2219.9 1063.2 2269.2 1058.1 2309.9 1030.8 2330.3 988.2 2400 879.1 2391.5 821.1 2405.1 793.7 2704.1 720.4 2766.9 636.8 2828.1 488.5 2821.3 464.6 2714.2 423.7 2603.8 289.1 2325.1 255 2350.6 207.2 2347.2 164.6 2294.5 113.4 2272.4 82.8 2190.8 122 2160.3 76 2122.9 19.7 2058.3 1 1963.2 1 1896.9 38.6 1774.6 103.4 1657.4 202.3 1514.7 309.8 1395.9 427.4 1316.1 509.2 1300.8 572.3 1265.1 587.7 1329.7 620 1365.4 771.8 1367.1 792.2 1351.8 869 1317.8 894.5 1365.4 949.1 1397.7 819.5 1469 921.8 1666.1 669.4 1793.4 575.7 1606.6 558.6 1620.1 326.7 1716.9 408.5 1837.5 550.1 1764.5 596.1 1854.6 278.9 2036.3 268.7 2082.1 215.8 2156.9 203.8 2253.7 287.4 2243.5 340.2 2263.9 754.6 2036.4 776.8 2065.3 822.8 2196.1 843.3 2291.2 981.4 2235.2 1018.9 2179.1 1070.1 2073.8 1102.5 2046.6 1254.2 1973.6 1387.2 2073.8 1484.4 2136.7 Z" data-holc_grade="A"/>
</g>
<g id="B">
<path d="M 794.1 874.1 865.7 864.6 910.1 876.2 946.2 898.6 1005.5 957.7 1034.8 982.8 1105.8 1003.2 1086.6 1116.7 998.7 1277 916.2 1232.2 882.1 1226 853.4 1169.6 816.6 1154 758 1156.7 730 1143.1 689.8 1102.4 723.2 1063.6 763.4 966.5 794.1 874.1 Z" data-holc_grade="B"/>
<path d="M 2609.5 622.4 2585 692.3 2467.4 916.5 2402.8 1033.3 2394.1 1049 2302.1 1257.9 2312.3 1359.9 2271.4 1455 2245.9 1529.7 2254 1637.2 2213.1 1586.9 2131.2 1562.4 2132.6 1543.4 1884.4 1513.5 1854.4 1490.4 1840.7 1464.6 1862.5 1427.9 1884.4 1395.3 1940.7 1269.9 1983.3 1271.6 2186.1 872.4 2240.6 683.9 2254.3 556.5 2298.6 449.5 2180.9 388.4 2131.5 345.9 2211.6 283.1 2305.4 322.1 2412.7 318.7 2421.3 376.4 2603.6 327.2 2722.9 194.7 2861 133.5 2987 1 2999 68.9 2966.6 147 2881.4 194.6 2835.4 215 2861 266 2864.4 318.6 2804.8 359.4 2738.3 367.9 2666.7 350.9 2634.4 551.3 2609.5 622.4 Z" data-holc_grade="B"/>
<path d="M 2402.8 1033.3 2467.4 916.5 2585 692.3 2609.5 622.4 2656.8 662.1 2640.5 749.8 2624.1 827.2 2636.4 914.8 2695.8 1039.2 2677.4 1108.5 2595.6 1118.7 2532.1 1073.9 2402.8 1033.3 Z" data-holc_grade="B"/>
<path d="M 2253.3 1713.6 2258.5 1749.3 2294.3 1783.2 2338.6 1844.4 2331.8 1958.2 2400.1 2170.6 2420.5 2257.2 2158 2875.7 1970.4 2875.7 1922.7 2639.5 1968.7 2452.6 1972.1 2400 2067.6 2163.8 2053.9 2050 2139.1 1710.2 2253.3 1713.6 Z" data-holc_grade="B"/>
<path d="M 2254 1637.2 2261.9 1667.7 2253.3 1713.6 2139.1 1710.2 2053.9 2050 2067.6 2163.8 1972.1 2400 1968.7 2452.6 1922.7 2639.5 1885.1 2578.4 1687.3 2556.3 1656.6 2590.3 1614 2610.7 1535.6 2595.4 1431.5 2457.8 1366.7 2413.6 1463.9 2257.3 1491.2 2298.1 1598.6 2236.9 1627.6 2201.2 1649.8 2107.8 1603.8 1990.6 1624.2 1922.6 1735 1815.6 1735 1698.4 1747 1655.9 1873.1 1623.6 1884.4 1513.5 2132.6 1543.4 2131.2 1562.4 2213.1 1586.9 2254 1637.2 Z" data-holc_grade="B"/>
<path d="M 1484.4 2136.7 1387.2 2073.8 1254.2 1973.6 1102.5 2046.6 1070.1 2073.8 1018.9 2179.1 981.4 2235.2 843.3 2291.2 822.8 2196.1 776.8 2065.3 754.6 2036.4 340.2 2263.9 287.4 2243.5 203.8 2253.7 215.8 2156.9 268.7 2082.1 278.9 2036.3 596.1 1854.6 550.1 1764.5 408.5 1837.5 326.7 1716.9 558.6 1620.1 575.7 1606.6 669.4 1793.4 921.8 1666.1 819.5 1469 949.1 1397.7 988.3 1380.7 1208.2 1503 1155.4 1572.7 1151.9 1635.5 1179.2 1652.5 1255.9 1618.5 1325.8 1542.1 1380.4 1564.2 1453.7 1598.1 1494.6 1562.5 1544.1 1531.9 1550.9 1438.5 1527 1384.1 1540.7 1363.7 1625.9 1341.7 1644.7 1475.8 1677.1 1548.9 1625.9 1550.6 1585 1616.8 1554.3 1676.3 1542.4 1737.4 1579.9 1783.3 1545.8 1931.1 1484.4 2136.7 Z" data-holc_grade="B"/>
</g>
<g id="C">
<path d="M 1105.8 1003.2 1034.8 982.8 1005.5 957.7 946.2 898.6 910.1 876.2 865.7 864.6 794.1 874.1 815.6 796 817.3 704.3 1064.5 571.8 1200.8 526 1630.4 318.8 2063.3 408.8 2131.5 345.9 2180.9 388.4 2298.6 449.5 2254.3 556.5 2240.6 683.9 2186.1 872.4 1983.3 1271.6 1940.7 1269.9 1908.3 1241 1908.3 1201.9 1773.6 1142.5 1744.6 1076.3 1686.7 1098.3 1662.8 1074.6 1690.1 923.4 1836.7 954 1925.3 649.9 1881 675.4 1836.6 680.5 1773.6 731.5 1753.1 775.6 1734.4 787.5 1703.7 821.5 1696.9 889.4 1681.5 906.4 1436.1 843.6 1632.1 1218.9 1442.9 1290.3 1412.2 1249.5 1373 1193.5 1294.6 1169.7 1163.3 999.8 1125.8 972.6 1105.8 1003.2 Z" data-holc_grade="C"/>
</g>
</svg>