<?xml version="1.0"?>
<svg xmlns="http://www.w3.org/2000/svg" version="1.2" baseProfile="tiny" width="3000" height="3587" viewBox="0 0 3000 3587" stroke-linecap="round" stroke-linejoin="round">
<g id="A">
<path d="M 1004.9 1910.4 1004.6 1946.9 1012.7 2001.2 1002.7 2021.1 1002.6 2024.2 976.2 2031.3 953.3 2026.3 928.8 2009.1 896.1 1970.4 861.8 1943.1 827.2 1919.8 768.6 1903.3 707.4 1878.1 630.8 1856.9 573.4 1837.8 523.9 1819.8 512.4 1826.9 452.5 1919.6 410.5 1993.3 396.3 2023.2 383.6 2041 248.1 2052.3 158.7 2052.2 144.9 2043.2 129.5 2002.7 119.1 1992.9 60.8 1995 19.6 1991.5 6.8 1982.5 2.8 1962.9 1 1876 5 1851.4 18.9 1831.2 67.8 1806.4 104.3 1783.1 120 1760.3 136.5 1739.9 173.8 1680 179.1 1662 157.8 1648.8 134.4 1626.8 99.3 1581.2 167.2 1557.7 227.6 1532 248.3 1562.7 277.6 1599.6 306.3 1624.5 350.5 1639.1 395.7 1647 401 1640.4 401 1618.2 410.1 1570 421.3 1522.5 457.2 1418.3 506.1 1300.6 532.1 1283.4 546.4 1273.4 555.7 1259.2 559.4 1216.2 565 1197 583 1177.1 648.2 1149.6 702.1 1127.8 818.7 1087.6 825.4 1097.9 833.9 1132.6 833.8 1181.9 822.4 1216.8 801.6 1252.6 800.6 1271.4 814.4 1293.6 834.1 1312.7 872.6 1356.2 907.5 1411.8 933.5 1456.8 951.1 1514.8 1004.8 1601.7 967.8 1645.2 955.3 1646 961.4 1732.6 957.7 1750.9 935.6 1764.1 933.2 1805.7 935.3 1828.5 965.1 1861.3 980.3 1901.1 990.9 1910.9 1004.9 1910.4 Z" data-holc_grade="A"/>
</g>
<g id="B">
<path d="M 1609.3 1253.3 1573.6 1263.6 1566.2 1211.4 1551 1216.3 1519.5 1220.3 1510.9 1217.1 1498 1168.7 1486.2 1132.5 1469.4 1099.5 1456.1 1072.9 1451.2 1052.3 1434.2 1009.2 1426.7 968.3 1514.7 968.2 1540.6 970.6 1550.2 964.3 1549 887.6 1553.8 839.5 1553.4 815.5 1553 771.4 1635 769 1638.4 749.2 1634.6 723.1 1642.4 702.5 1664.5 706.5 1725.8 743.4 1769.3 777.3 1784.4 807.9 1785.6 837.9 1800.6 898.1 1801.8 923.3 1814 960.1 1814.2 1035.9 1818.8 1078.6 1812.4 1136 1807.4 1143.2 1741.8 1143.2 1717.4 1149.8 1679.2 1174.8 1649.6 1198.1 1628.4 1221.3 1613.9 1241.3 1609.3 1253.3 Z" data-holc_grade="B"/>
<path d="M 1012.7 2001.2 1004.6 1946.9 1004.9 1910.4 1004.9 1907.1 1017.9 1865.1 1042.2 1828.3 1074.5 1789.9 1096.1 1761.4 1113.5 1722.7 1136.8 1709.5 1186.7 1684 1245.9 1679.7 1278.4 1682.7 1304.4 1706.5 1311 1723.4 1309.4 1736.3 1296.4 1744.3 1248.5 1754.9 1231.2 1783.3 1219.2 1813.5 1203.9 1870.4 1198.3 1910.2 1174 1949.9 1147.4 1969.4 1096.5 1984.3 1012.7 2001.2 Z" data-holc_grade="B"/>
<path d="M 1026.9 2486.8 945.5 2486.8 882.8 2483.6 816.9 2478 787.4 2474 787.8 2537 780.6 2603.4 777.8 2636 626.9 2636.7 621.7 2595.8 572.6 2595.4 540.2 2597 509.9 2598.9 466.7 2604.5 457.6 2605.7 402.9 2607.2 398.1 2581.8 405.7 2523.8 395.8 2420.4 394.2 2323.8 397 2287.1 542.7 2280 546.3 2262.9 542 2198.5 545.2 2183.8 567.9 2169.9 722.8 2125.8 795.5 2121.5 836.6 2111.2 888.5 2083.4 1001.8 2049.6 1053.3 2071.1 1086.1 2105.7 1088.8 2218.1 1084 2251.5 1082.8 2320.3 1036.1 2315.5 1024.5 2327 1021.3 2379.9 1026.9 2486.8 Z" data-holc_grade="B"/>
<path d="M 1700.7 2577.4 1710 2619.1 1718 2688 1427.6 2726.4 1417.9 2721.5 1428.9 2692.7 1447.6 2639.8 1448.2 2638 1455.2 2617.5 1478.2 2583 1504.1 2557.5 1528.9 2542 1529.4 2551.9 1538.7 2562.5 1558.3 2578.7 1575 2597.9 1589.9 2594.3 1615.6 2592.3 1634.8 2588 1700.7 2577.4 Z" data-holc_grade="B"/>
<path d="M 1383.2 130 1412.1 129.7 1453 125.7 1482.3 132.3 1488.3 164.1 1488.3 273 1481.6 328.9 1465 343.8 1437.4 357.7 1416.5 364 1390.5 367 1383.6 325.3 1376.6 239.5 1383.2 130 Z" data-holc_grade="B"/>
</g>
<g id="C">
<path d="M 1937.8 671.2 1917 751.1 1850.3 738.4 1725.6 707.3 1673.4 698.4 1644.5 688.8 1619.2 666.9 1597 637.1 1570.4 586.5 1546.4 554.1 1539.8 525.6 1527.8 504.7 1536.5 497.5 1569.7 490.5 1603.9 486.5 1605.6 458.7 1600 405.1 1595.3 385.6 1593.3 360.4 1586.3 329.3 1581 277.4 1589.6 235 1596 151.9 1605.3 97 1619.5 76.1 1645.5 61.6 1698.7 39.1 1750.2 24.2 1817 7 1835.9 8 1883.8 5.3 1923.7 1 1930.3 12.6 1931.7 86.4 1927 117.5 1926.7 169.4 1935.7 175.4 2142.1 140.9 2172.3 139.6 2181.6 199.5 2185 238.9 2189.3 280.6 2178.7 288.9 2118.5 294.2 2097.9 294.5 2059 298.5 2034.1 324.3 2023.4 343.2 1958.3 591.4 1937.8 671.2 Z" data-holc_grade="C"/>
<path d="M 2420.8 3169.7 2396.8 3138.4 2363.5 3075.4 2313.1 2969.1 2266.3 2965.7 2221.8 2956.7 2188 2954.5 2152.9 2947.4 2076.5 2936.4 2079.5 2906 2077.7 2860.1 2073.7 2834.6 2066.4 2815.6 2068.9 2811.8 2068.3 2783 2067.8 2727.8 2068.8 2682.5 2063.8 2664.5 2062.2 2646.9 2116 2647.8 2153 2638.9 2203.5 2640.5 2285.1 2629.6 2347.9 2625.9 2422.4 2612 2419.4 2573.9 2407.1 2492.1 2489.6 2466.9 2498.9 2473.1 2509.6 2535.7 2521.6 2646.7 2589.1 2630.4 2614.1 2630.1 2717.6 2641 2788.4 2644.6 2777.7 2573.1 2774.7 2531.3 2779.7 2525.4 2822 2523.7 2875.5 2530.9 2875.6 2583.3 2872.4 2618.3 2875.9 2628.2 2931.1 2630.9 2983.4 2713.2 2999 2752.5 2984.2 2766 2968.3 2770.8 2932.3 2795.1 2920 2808.6 2903.6 2833.3 2885.3 2854.7 2857.7 2897.7 2831.4 2943.4 2811.5 2966.1 2797.9 2972.4 2784.7 2968.9 2775.9 2975.6 2781.5 3006.2 2791.5 3025.3 2796.7 3048.4 2807.9 3060.7 2819.5 3090.9 2833.9 3116.3 2847.5 3134.2 2866.2 3143.8 2871.4 3158.9 2868.7 3188.3 2710.1 3180.4 2699.4 3195.5 2691.8 3217.4 2669.4 3195.9 2639 3165.7 2587.1 3164.6 2555.2 3155 2514 3123.2 2504.5 3121.6 2420.8 3169.7 Z" data-holc_grade="C"/>
<path d="M 2114.9 2019 2115.1 2056.7 2108.7 2104 2106.7 2129.5 2108.9 2143.4 2120.5 2170.2 2127.7 2182.9 2130.9 2224 2121.5 2228.6 2062.2 2229.2 2066.2 2287.4 2083.2 2301.7 2108.5 2311.1 2150.5 2315.4 2162.8 2329.6 2167.2 2349.6 2168.4 2375.3 2165.8 2411.8 2158.7 2441.6 2137.1 2447.8 2083.6 2444.4 2046.5 2438.5 2021.7 2430.8 2004.4 2417.6 1992.9 2398.5 1989.2 2375.2 1991.9 2356.1 2002.8 2339.1 2009.7 2316.9 2013.1 2296.7 2022.5 2263.9 2024.8 2237.1 2017.9 2220.7 1998.2 2211.2 1991 2205.1 1988.4 2193.1 1992.6 2182.5 1998.5 2158.7 1997.4 2136.4 1989.7 2099.1 1980.9 2069.7 1976.1 2004.8 2019.2 1996.8 2064.2 2002.9 2102 2018 2114.9 2019 Z" data-holc_grade="C"/>
<path d="M 1456.1 1072.9 1397.8 1073.5 1387 1076.9 1327.4 1078.9 1306.3 1077.8 1351.5 1162.5 1364 1199.1 1367.8 1220.3 1348.9 1227.9 1332.7 1225.5 1314.3 1170.5 1284.5 1106.1 1270.2 1078.6 1247.8 1077 1219.3 1071.4 1209.5 1066.1 1200.2 1058.9 1164 1069.8 1142.2 1070.1 1097.8 1060.3 1085.3 1063.2 1079 1055.1 1080.5 1002.8 1087.2 993.6 1135.6 974.5 1281 969.6 1322.1 972.6 1426.7 968.3 1434.2 1009.2 1451.2 1052.3 1456.1 1072.9 Z" data-holc_grade="C"/>
<path d="M 1609.3 1253.3 1613.9 1241.3 1628.4 1221.3 1649.6 1198.1 1679.2 1174.8 1717.4 1149.8 1741.8 1143.2 1807.4 1143.2 1800.3 1170.7 1783 1256.5 1790.6 1262.8 1802.6 1259.8 1815.2 1261.4 1827.9 1255.8 1829.5 1199.2 1838.5 1160.1 1855.5 1093.6 1877.7 1008.8 1880.7 964.8 1886.3 888.3 1892.7 844 1910.9 774.1 1917 751.1 1937.8 671.2 1998.7 693 2130.4 752.6 2191.9 781.4 2262 824.7 2295.9 830.7 2336.8 842.2 2358.5 853.8 2359.8 1000.8 2355.5 1046.1 2342.6 1109 2332.6 1167.6 2331.6 1186.2 2291.4 1186.5 2255.8 1183.6 2160.4 1187.6 2146.1 1181.6 2136.8 1165 2126.5 1158.1 1901 1163.8 1888.1 1204.2 1883.1 1283.3 1885.7 1301.2 1929.6 1308.4 1951.9 1312.4 1979.8 1313.7 2007.8 1318.7 2047 1319.3 2097.2 1316.7 2134.5 1314 2147.8 1246.2 2158.1 1241.8 2168 1247.5 2172.4 1258.4 2167.4 1304.4 2212 1305.4 2237.9 1306.4 2261.5 1304.4 2266.2 1322.6 2248.2 1322.7 2214.2 1324.3 2194.5 1329.1 2190.3 1341.3 2173.2 1341.3 2154.1 1342.9 2134.4 1340.3 2087.6 1352.5 2038.1 1351.9 1979.6 1345.6 1941.8 1344.5 1900.3 1339.8 1878.5 1343 1868.3 1358.3 1820.6 1353.6 1789.1 1358.1 1755.6 1374 1720 1378.8 1611.7 1385.8 1608.7 1328.6 1610.9 1288.2 1609.3 1253.3 Z" data-holc_grade="C"/>
<path d="M 2279.7 1527.2 2216.3 1529.2 2211.1 1538 2211.5 1585.2 2209.9 1614.2 2214.3 1631.7 2369.9 1629.3 2376.1 1647.3 2376.1 1672.2 2368.1 1703.5 2351.1 1728.9 2358.5 1733.1 2410.1 1727.8 2438.3 1726.7 2486.8 1727.8 2517.6 1732 2562.3 1746.8 2577.9 1729.2 2607.5 1709 2630.6 1696.6 2670.2 1662.6 2706.1 1630.8 2738.9 1608 2792 1556.1 2810.7 1589.2 2840.5 1631 2830.1 1649.6 2795.6 1684.3 2698.2 1775.5 2632.5 1828.5 2603.3 1854.2 2575.6 1874.9 2520.8 1906.9 2456.1 1933.7 2414.9 1943 2321.8 1951.3 2269.6 1951.5 2221.2 1946.5 2182.3 1937.7 2162.9 1930.2 2123.5 1914.9 2092.6 1908.1 2054.9 1914.2 2014.4 1926.6 1995.5 1927.9 1990.2 1916.3 1995.8 1867 1995.2 1793.1 1987.8 1787.5 1960.8 1788.4 1927.1 1789.4 1878.7 1797.1 1875.8 1853.8 1879.8 1890.9 1877.6 1939.4 1880 1960 1872.6 1967.2 1848.6 1971.7 1852.6 1936.7 1857.4 1918.5 1862.1 1898.2 1835.8 1875.1 1806.3 1852.9 1781.9 1823.1 1773.1 1804.4 1765.5 1759.1 1765.6 1724.7 1779.3 1639.1 1783.9 1592.2 1799.1 1541.3 1849.1 1476.9 1857.3 1448.5 1863.5 1433.6 1863.8 1429.5 1919.3 1431.5 1922 1445.4 1918 1484.2 1915.7 1513 1891.7 1513.7 1882.4 1519 1879.8 1582.5 1905.7 1585.5 1942.3 1585.5 1944 1602.7 1939.3 1660.3 1945.3 1672.2 1987.5 1671.2 2010.8 1676.5 2043.7 1674.9 2069 1677.9 2112.2 1674.9 2148.2 1678.5 2175.1 1630.8 2177.1 1602.3 2174.4 1528.2 2178.1 1500 2177 1441.1 2176.4 1403.7 2192.7 1372.9 2196.7 1421.5 2199.9 1440.2 2238.2 1438.6 2265.3 1439 2273.3 1452.1 2279.7 1527.2 Z" data-holc_grade="C"/>
<path d="M 1547.7 1564.6 1550.7 1590.3 1553.5 1623.7 1548.7 1639.6 1493.2 1643.1 1465.7 1642 1412.6 1642.3 1408.2 1659.4 1415 1673.3 1422.6 1731.4 1427.8 1753.6 1437 1843.8 1446.5 1891.5 1547.5 1878.4 1561.5 1882.4 1568.7 1928.1 1572.7 1966.2 1585.8 1970.2 1608.6 1964.2 1636.9 1963.8 1646.1 2027.4 1630.5 2033 1626.9 2052.4 1635.7 2085 1638.9 2136.3 1645.7 2143 1658.5 2143 1666.1 2172.8 1672.9 2216.6 1677.3 2279.8 1684.8 2320.7 1689.6 2348.9 1682 2360 1591.8 2406.1 1570.2 2419.7 1565.9 2422.4 1514 2445.5 1439.3 2463.8 1395.8 2460.6 1326.4 2463.4 1278.1 2456.6 1219 2458.6 1058.9 2480.8 1026.9 2486.8 1021.3 2379.9 1024.5 2327 1036.1 2315.5 1082.8 2320.3 1084 2251.5 1088.8 2218.1 1086.1 2105.7 1053.3 2071.1 1001.8 2049.6 1002.6 2024.2 1002.7 2021.1 1012.7 2001.2 1096.5 1984.3 1147.4 1969.4 1174 1949.9 1198.3 1910.2 1203.9 1870.4 1219.2 1813.5 1231.2 1783.3 1248.5 1754.9 1296.4 1744.3 1309.4 1736.3 1311 1723.4 1304.4 1706.5 1278.4 1682.7 1245.9 1679.7 1186.7 1684 1136.8 1709.5 1113.5 1722.7 1080.9 1687.9 1078.6 1675 1098.2 1651.2 1142.4 1610.1 1177.7 1600.5 1207 1603.9 1235.2 1602.2 1251.5 1599.2 1288.1 1608.2 1316.4 1603.8 1344 1584.7 1366.7 1555.3 1375.5 1529.1 1387.9 1507.3 1397.5 1502.1 1455.7 1501.7 1502.4 1500.9 1531.1 1500.5 1543.1 1507.7 1547.5 1562.5 1547.7 1564.6 Z" data-holc_grade="C"/>
<path d="M 119.8 2210.4 144.1 2215.6 191.6 2259.7 208.3 2301.1 207.1 2363.5 208.7 2398.8 238.2 2413.2 295.3 2423.1 328.8 2435.9 337.6 2461.7 337.6 2523.3 327.6 2528.9 244.2 2528.4 215 2516.9 194.3 2464 175.1 2444.5 147.6 2426.2 114.9 2415.9 83.7 2412.7 55 2410.3 28.3 2401.1 11.9 2388 8.3 2362.6 6.3 2306.5 27.5 2270.8 74.6 2236.2 119.8 2210.4 Z" data-holc_grade="C"/>
<path d="M 1026.9 2486.8 1058.9 2480.8 1058.4 2710.2 905.1 2715.3 821.7 2721.3 598.9 2729.5 476.7 2731.9 472.8 2712.8 471.6 2628.5 466.7 2604.5 509.9 2598.9 540.2 2597 572.6 2595.4 621.7 2595.8 626.9 2636.7 777.8 2636 780.6 2603.4 787.8 2537 787.4 2474 816.9 2478 882.8 2483.6 945.5 2486.8 1026.9 2486.8 Z" data-holc_grade="C"/>
<path d="M 1697.6 2545 1700.7 2577.4 1634.8 2588 1615.6 2592.3 1589.9 2594.3 1575 2597.9 1558.3 2578.7 1538.7 2562.5 1529.4 2551.9 1528.9 2542 1528.7 2537 1546 2512.5 1572.5 2478.3 1594 2486.5 1622 2488.1 1657.4 2478.5 1688.2 2470.3 1697.6 2545 Z" data-holc_grade="C"/>
<path d="M 2076.5 2936.4 2001.4 2922.1 1969.9 2917.3 1940.7 2910 1872.1 2905 1862 2945 1854 3000.3 1852.2 3035.4 1851.4 3051.3 1851.4 3083.8 1854.4 3149.1 1853.1 3186.8 1852.1 3241.8 1843.8 3252.4 1814.8 3259 1757.3 3265.8 1740.1 3283.5 1733.3 3298.6 1726.7 3336.2 1726.5 3382.7 1733.7 3490.6 1736.3 3505.8 1738.6 3548.9 1735.3 3581.3 1645.8 3586.3 1636.1 3577.7 1628.8 3512.8 1627.8 3462.7 1627.2 3366 1621.2 3311.7 1612.2 3263.6 1607.8 3209.3 1608.2 3156.9 1600.2 3099.9 1596.5 3066.8 1591.2 3053.2 1581.2 3048.3 1545.6 2972.1 1528 2955.8 1502.7 2948.9 1476.4 2946.6 1411.9 2980.4 1375.6 2955.5 1374.6 2923.7 1379.2 2870.4 1376.6 2843.9 1364.3 2820.3 1349 2801.5 1330.3 2783.6 1321 2763.7 1324.4 2740.2 1343.3 2713.4 1346.3 2696.5 1361.3 2668 1367.6 2652.7 1386.2 2637.8 1414.9 2635.5 1433.5 2637.2 1447.6 2639.8 1428.9 2692.7 1417.9 2721.5 1427.6 2726.4 1718 2688 1710 2619.1 1724.1 2627.6 1749.3 2656.2 1764.4 2684.8 1785.2 2700.3 1804 2704.3 1813.9 2700.7 1820.3 2687.6 1833.9 2673.7 1867 2621.8 1879.6 2624 1897.7 2593.3 1914.5 2597.8 1956.3 2623.7 1990.6 2641.7 2011.6 2661.6 2024.4 2697.4 2031.6 2743.5 2030.5 2816.1 2043.3 2822.2 2063.3 2820.3 2066.4 2815.6 2073.7 2834.6 2077.7 2860.1 2079.5 2906 2076.5 2936.4 Z" data-holc_grade="C"/>
</g>
<g id="D">
<path d="M 1609.3 1253.3 1610.9 1288.2 1608.7 1328.6 1611.7 1385.8 1720 1378.8 1755.6 1374 1789.1 1358.1 1820.6 1353.6 1868.3 1358.3 1871.3 1393.9 1864.3 1422.1 1863.8 1429.5 1863.5 1433.6 1857.3 1448.5 1849.1 1476.9 1799.1 1541.3 1783.9 1592.2 1779.3 1639.1 1765.6 1724.7 1641.8 1719.3 1636.7 1684.8 1614.1 1616.4 1597.7 1568.5 1580.8 1563 1557.6 1564.2 1547.7 1564.6 1547.5 1562.5 1543.1 1507.7 1531.1 1500.5 1502.4 1500.9 1455.7 1501.7 1397.5 1502.1 1387.9 1507.3 1375.5 1529.1 1366.7 1555.3 1344 1584.7 1316.4 1603.8 1288.1 1608.2 1251.5 1599.2 1259.2 1588.1 1285.3 1566.2 1272.2 1550 1229.9 1531.5 1221.7 1500.5 1202.8 1465.8 1174.3 1441.1 1152.8 1418.6 1138.2 1393.7 1123.5 1347.4 1111.6 1303.4 1104.9 1234.5 1100.4 1187.9 1089.5 1123 1085.3 1063.2 1097.8 1060.3 1142.2 1070.1 1164 1069.8 1200.2 1058.9 1209.5 1066.1 1219.3 1071.4 1247.8 1077 1270.2 1078.6 1284.5 1106.1 1314.3 1170.5 1332.7 1225.5 1348.9 1227.9 1367.8 1220.3 1364 1199.1 1351.5 1162.5 1306.3 1077.8 1327.4 1078.9 1387 1076.9 1397.8 1073.5 1456.1 1072.9 1469.4 1099.5 1486.2 1132.5 1498 1168.7 1510.9 1217.1 1519.5 1220.3 1551 1216.3 1566.2 1211.4 1573.6 1263.6 1609.3 1253.3 Z" data-holc_grade="D"/>
<path d="M 2261.5 1304.4 2237.9 1306.4 2212 1305.4 2167.4 1304.4 2172.4 1258.4 2168 1247.5 2158.1 1241.8 2147.8 1246.2 2134.5 1314 2097.2 1316.7 2047 1319.3 2007.8 1318.7 1979.8 1313.7 1951.9 1312.4 1929.6 1308.4 1885.7 1301.2 1883.1 1283.3 1888.1 1204.2 1901 1163.8 2126.5 1158.1 2136.8 1165 2146.1 1181.6 2160.4 1187.6 2255.8 1183.6 2291.4 1186.5 2331.6 1186.2 2379.9 1188.1 2397.2 1183.9 2433.6 1173 2448.5 1164.3 2453.3 1150.7 2458.1 1142.3 2470.6 1137 2493.2 1146 2507 1162.4 2521.7 1234.4 2533.7 1263 2538.8 1333.7 2528 1345.8 2488.5 1358.1 2469.7 1353.4 2457 1353.4 2437.8 1348.2 2415 1325.2 2395.1 1314.4 2378.7 1297 2321.3 1277.9 2304.9 1268 2290.5 1275.5 2261.5 1304.4 Z" data-holc_grade="D"/>
<path d="M 2190.3 1341.3 2192.7 1372.9 2176.4 1403.7 2177 1441.1 2178.1 1500 2174.4 1528.2 2177.1 1602.3 2175.1 1630.8 2148.2 1678.5 2112.2 1674.9 2069 1677.9 2043.7 1674.9 2010.8 1676.5 1987.5 1671.2 1945.3 1672.2 1939.3 1660.3 1944 1602.7 1942.3 1585.5 1905.7 1585.5 1879.8 1582.5 1882.4 1519 1891.7 1513.7 1915.7 1513 1918 1484.2 1922 1445.4 1919.3 1431.5 1863.8 1429.5 1864.3 1422.1 1871.3 1393.9 1868.3 1358.3 1878.5 1343 1900.3 1339.8 1941.8 1344.5 1979.6 1345.6 2038.1 1351.9 2087.6 1352.5 2134.4 1340.3 2154.1 1342.9 2173.2 1341.3 2190.3 1341.3 Z" data-holc_grade="D"/>
<path d="M 2369.9 1629.3 2214.3 1631.7 2209.9 1614.2 2211.5 1585.2 2211.1 1538 2216.3 1529.2 2279.7 1527.2 2408.7 1525.7 2413.5 1532.5 2410.7 1559.5 2404.8 1584.9 2380.8 1617.9 2369.9 1629.3 Z" data-holc_grade="D"/>
<path d="M 2062.2 2646.9 2063.8 2664.5 2068.8 2682.5 2067.8 2727.8 2068.3 2783 2068.9 2811.8 2066.4 2815.6 2063.3 2820.3 2043.3 2822.2 2030.5 2816.1 2031.6 2743.5 2024.4 2697.4 2011.6 2661.6 1990.6 2641.7 1956.3 2623.7 1914.5 2597.8 1897.7 2593.3 1879.6 2624 1867 2621.8 1862.6 2621.1 1790.4 2522.8 1765.9 2529.1 1734.3 2541.9 1698.1 2549 1697.6 2545 1688.2 2470.3 1657.4 2478.5 1622 2488.1 1594 2486.5 1572.5 2478.3 1565.8 2468.2 1564.5 2446.8 1570.2 2419.7 1591.8 2406.1 1682 2360 1689.6 2348.9 1699.6 2344.4 1713.2 2332.2 1738.7 2306 1763.5 2267 1788.2 2207.7 1790.3 2179.6 1789.3 2153.9 1774.6 2069.1 1766.1 2026.5 1741.6 2015.4 1646.1 2027.4 1636.9 1963.8 1665.3 1956 1724.1 1948.3 1731.3 1961.3 1744.9 1980.6 1759 1995.7 1771 2000.2 1797.9 1980.9 1823.1 1975.9 1848.6 1971.7 1872.6 1967.2 1880 1960 1877.6 1939.4 1879.8 1890.9 1875.8 1853.8 1878.7 1797.1 1927.1 1789.4 1960.8 1788.4 1987.8 1787.5 1995.2 1793.1 1995.8 1867 1990.2 1916.3 1995.5 1927.9 2014.4 1926.6 2054.9 1914.2 2092.6 1908.1 2123.5 1914.9 2162.9 1930.2 2182.3 1937.7 2178.9 2023.5 2131.2 2020.4 2114.9 2019 2102 2018 2064.2 2002.9 2019.2 1996.8 1976.1 2004.8 1980.9 2069.7 1989.7 2099.1 1997.4 2136.4 1998.5 2158.7 1992.6 2182.5 1988.4 2193.1 1991 2205.1 1998.2 2211.2 2017.9 2220.7 2024.8 2237.1 2022.5 2263.9 2013.1 2296.7 2009.7 2316.9 2002.8 2339.1 1991.9 2356.1 1989.2 2375.2 1992.9 2398.5 2004.4 2417.6 2021.7 2430.8 2035.8 2501 2047.5 2541 2060.1 2623.4 2062.2 2646.9 Z" data-holc_grade="D"/>
<path d="M 2076.5 2936.4 2152.9 2947.4 2188 2954.5 2221.8 2956.7 2266.3 2965.7 2313.1 2969.1 2363.5 3075.4 2396.8 3138.4 2420.8 3169.7 2406.9 3187.7 2388 3196.7 2372.3 3195.1 2307.6 3197.8 2251.5 3205.5 2227.2 3238.4 2204.4 3292.5 2196.9 3335.4 2198.3 3367.7 2201.2 3446.2 2213.2 3510.3 2211.1 3531.8 2198.8 3537.7 2143.5 3534.5 2122.1 3527.6 2110.4 3471.4 2108 3443.6 2099.5 3390 2088.8 3307.5 2088.1 3270.7 2081.5 3230.3 2065.5 3199.8 2038.9 3165 2023.6 3129.2 2011.9 3084.5 1994.9 3064.3 1951 3050.7 1904.4 3044.1 1852.2 3035.4 1854 3000.3 1862 2945 1872.1 2905 1940.7 2910 1969.9 2917.3 2001.4 2922.1 2076.5 2936.4 Z" data-holc_grade="D"/>
</g>
</svg>